<?xml version="1.0" encoding="UTF-8" standalone="no"?>
<!-- Created with Inkscape (http://www.inkscape.org/) -->

<svg
   xmlns:dc="http://purl.org/dc/elements/1.1/"
   xmlns:cc="http://creativecommons.org/ns#"
   xmlns:rdf="http://www.w3.org/1999/02/22-rdf-syntax-ns#"
   xmlns:svg="http://www.w3.org/2000/svg"
   xmlns="http://www.w3.org/2000/svg"
   xmlns:sodipodi="http://sodipodi.sourceforge.net/DTD/sodipodi-0.dtd"
   xmlns:inkscape="http://www.inkscape.org/namespaces/inkscape"
   width="52.685829mm"
   height="40.527267mm"
   viewBox="0 0 186.68208 143.60055"
   id="svg2"
   version="1.1"
   inkscape:version="0.91 r13725"
   sodipodi:docname="Base2.svg">
  <defs
     id="defs4" />
  <sodipodi:namedview
     id="base"
     pagecolor="#ffffff"
     bordercolor="#666666"
     borderopacity="1.0"
     inkscape:pageopacity="0.0"
     inkscape:pageshadow="2"
     inkscape:zoom="3.959798"
     inkscape:cx="171.6438"
     inkscape:cy="-419.43175"
     inkscape:document-units="mm"
     inkscape:current-layer="layer5"
     showgrid="false"
     fit-margin-top="0"
     fit-margin-left="0"
     fit-margin-right="0"
     fit-margin-bottom="0"
     inkscape:window-width="1372"
     inkscape:window-height="984"
     inkscape:window-x="542"
     inkscape:window-y="28"
     inkscape:window-maximized="0" />
  <metadata
     id="metadata7">
    <rdf:RDF>
      <cc:Work
         rdf:about="">
        <dc:format>image/svg+xml</dc:format>
        <dc:type
           rdf:resource="http://purl.org/dc/dcmitype/StillImage" />
        <dc:title></dc:title>
      </cc:Work>
    </rdf:RDF>
  </metadata>
  <g
     inkscape:label="Base"
     inkscape:groupmode="layer"
     id="layer1"
     transform="translate(4.5854926,-889.78819)"
     style="display:inline">
    <path
       inkscape:connector-curvature="0"
       id="path4204"
       d="m 654.08483,766.4705 c -6.44597,-0.5722 -21.30039,-3.94557 -24.26491,-5.51047 -1.63286,-0.862 -3.39426,-1.5673 -3.91423,-1.5673 -0.51997,0 -1.6195,-0.7448 -2.4434,-1.6552 -0.8239,-0.9104 -3.66245,-2.4208 -6.30788,-3.3565 -14.87975,-5.2627 -17.70687,-6.6706 -30.50092,-15.1893 -10.43567,-6.94835 -15.06651,-11.96754 -20.29293,-21.9945 -2.43071,-4.66337 -2.99701,-6.69084 -2.99701,-10.73004 0,-7.36551 3.60095,-10.77818 15.00796,-14.22323 3.33499,-1.00721 6.44532,-2.31475 6.91186,-2.90567 0.46653,-0.5909 1.07549,-4.90767 1.35323,-9.5928 0.81632,-13.77008 4.4143,-22.76986 13.70194,-34.2732 4.37393,-5.41741 7.16195,-7.90634 12.64201,-11.28587 3.86681,-2.38464 9.13887,-4.91351 11.71569,-5.6197 2.57683,-0.7062 5.38286,-1.67062 6.23562,-2.14317 2.12567,-1.17789 21.20494,-0.85564 32.09731,0.54213 16.88555,2.16685 25.27638,6.14463 37.13799,17.60575 6.72466,6.49761 8.37528,8.69878 12.48235,16.64577 4.50253,8.71217 6.13128,13.458 8.25908,24.06527 0.51691,2.57682 1.21787,5.09207 1.55768,5.58943 0.3398,0.49736 4.16217,3.31739 8.49414,6.26673 7.21257,4.91055 12.16903,9.74871 15.84211,15.46398 0.89316,1.38973 1.60646,4.9871 1.95081,9.83831 0.59225,8.3437 -0.48292,12.18305 -5.40975,19.31811 -2.44517,3.5411 -10.86028,10.5486 -15.57435,12.9691 -5.62108,2.8863 -17.4075,7.2028 -24.2488,8.8806 -11.45779,2.80987 -34.79845,4.16107 -49.4356,2.86177 z m 3.0912,-26.28377 c 3.70998,-2.3735 6.71238,-8.11842 6.68628,-12.79402 -0.0263,-4.71246 -2.6446,-9.9378 -6.42405,-12.82055 -2.84876,-2.17286 -3.91728,-2.45664 -9.25002,-2.45664 -4.95287,0 -6.5269,0.35497 -8.81699,1.98838 -5.30803,3.786 -7.45701,11.37721 -5.32508,18.81087 2.56281,8.93596 14.60876,12.72316 23.12986,7.27196 z m -15.10219,-6.68998 c -3.2627,-3.2627 -3.8424,-7.28449 -1.65867,-11.50738 3.17966,-6.14876 12.74235,-5.10904 16.30085,1.77238 2.91301,5.63314 -1.72327,12.63128 -8.36824,12.63128 -2.70549,0 -3.95406,-0.5763 -6.27394,-2.89628 z"
       style="fill:#9f9f9f" />
    <path
       inkscape:connector-curvature="0"
       id="path4202"
       d="m 83.823546,1030.4746 c -4.21663,-0.6295 -9.7749,-1.6107 -12.35173,-2.1804 -4.80582,-1.0625 -14.85776,-5.3386 -15.68106,-6.6707 -0.25324,-0.4098 -3.63269,-1.9724 -7.5099,-3.4725 -14.16365,-5.4802 -18.50546,-7.6543 -28.26213,-14.1519 -11.3215098,-7.53991 -19.88333984,-16.70011 -21.4523698,-22.95151 -0.2861,-1.14 -1.05757,-2.5186 -1.71437,-3.0637 -0.81501,-0.6764 -1.17872,-2.7837 -1.14546,-6.6368 l 0.0487,-5.6456 4.34132996,-3.5871 c 3.15820004,-2.6095 5.64053004,-3.8556 9.10859004,-4.5723 2.6219898,-0.5418 5.7627698,-1.6911 6.9795098,-2.5539 2.06688,-1.4657 2.246,-2.1449 2.72583,-10.335 0.82089,-14.0118 4.36792,-22.935 13.72228,-34.521 4.37394,-5.4174 7.16195,-7.9063 12.64202,-11.2858 3.8668,-2.3847 9.13887,-4.9135 11.71569,-5.6197 2.57682,-0.7062 5.38285,-1.6706 6.23561,-2.1432 2.12567,-1.1779 21.20494,-0.8556 32.09732,0.5421 16.917854,2.171 25.271974,6.1404 37.218894,17.684 7.27256,7.0271 8.19442,8.3138 12.94219,18.0638 3.04799,6.2593 5.52042,12.6766 6.12381,15.8945 2.2683,12.0969 2.57302,12.598 11.06934,18.2 9.57124,6.3109 16.95621,14.8894 17.94431,20.8445 1.47249,8.8745 0.95553,12.444 -2.84199,19.62251 -5.30858,10.035 -12.96983,15.8589 -28.67838,21.8003 -10.4282,3.9443 -15.9499,5.2387 -26.94512,6.3165 -14.99529,1.4699 -30.197244,1.6376 -38.332934,0.4229 z m 5.04537,-24.6529 c 9.97582,-5.84631 10.27299,-20.47831 0.55532,-27.34251 -3.08565,-2.1796 -4.39939,-2.5556 -8.93069,-2.5556 -6.79845,0 -11.33198,2.7328 -14.13317,8.5192 -1.62642,3.3598 -1.82216,4.7296 -1.31654,9.2136 0.65923,5.8462 3.05064,9.80821 7.59146,12.57701 3.97851,2.426 11.72676,2.2295 16.23362,-0.4117 z m -10.15643,-5.3763 c -2.56245,-0.61661 -6.2391,-4.43811 -6.82166,-7.09041 -0.64197,-2.9229 1.40537,-8.0358 3.71209,-9.2703 2.39854,-1.2837 5.73661,-1.1474 8.63714,0.3525 7.07284,3.6575 6.78982,12.3819 -0.50048,15.428 -1.56352,0.65331 -2.95091,1.14341 -3.08309,1.08901 -0.13217,-0.054 -1.00697,-0.2833 -1.944,-0.5088 z"
       style="fill:#909090" />
    <path
       inkscape:connector-curvature="0"
       id="path4200"
       d="m 497.9371,944.9535 c -11.4578,-1.6177 -20.18614,-3.70127 -25.28606,-6.03617 -2.89726,-1.3265 -5.47494,-2.747 -5.72818,-3.1568 -0.25323,-0.4098 -3.63268,-1.9724 -7.50989,-3.4725 -14.17607,-5.4849 -18.50912,-7.6567 -28.34198,-14.2052 -11.28313,-7.51423 -16.37812,-13.00671 -21.29356,-22.95481 -4.09454,-8.28671 -4.16003,-13.41663 -0.21903,-17.1566 3.46941,-3.29243 7.16311,-5.17059 13.29996,-6.76271 2.64094,-0.68515 5.26186,-1.70703 5.82427,-2.27084 0.56242,-0.56381 1.23867,-3.70842 1.50277,-6.98801 0.70928,-8.80747 1.27615,-12.30296 2.76292,-17.03686 5.79321,-18.4457 22.12377,-34.49999 38.63485,-37.98124 2.54757,-0.53713 5.11587,-1.36607 5.70735,-1.84206 1.26368,-1.01697 19.28749,-0.3598 29.59094,1.07892 16.62115,2.3209 24.81298,6.39575 36.69416,18.25272 7.43034,7.4152 9.15949,9.71015 12.87241,17.08429 4.09615,8.13528 6.28166,14.96609 7.51804,23.49771 0.31127,2.14793 0.81944,4.2948 1.12924,4.77084 0.30982,0.47603 3.91922,3.06749 8.02089,5.75879 7.92681,5.20118 15.3422,12.6319 17.41872,17.45475 0.69315,1.60988 1.47066,5.70898 1.72781,9.10906 0.44592,5.89618 0.31735,6.48191 -2.78096,12.66865 -3.46727,6.9235 -9.27173,13.0458 -16.24026,17.1296 -4.98139,2.9193 -17.11834,7.6577 -25.04568,9.7781 -10.81724,2.89337 -39.66412,4.77617 -50.25873,3.28037 z m 2.06392,-24.99477 c 9.97583,-5.84626 10.273,-20.47827 0.55533,-27.34253 -3.08565,-2.1796 -4.3994,-2.55552 -8.9307,-2.55552 -6.79844,0 -11.33197,2.73273 -14.13316,8.51921 -1.62643,3.35974 -1.82217,4.72957 -1.31655,9.21354 0.65924,5.84623 3.05064,9.8082 7.59146,12.577 3.97851,2.426 11.72677,2.2295 16.23362,-0.4117 z m -10.15643,-5.3763 c -2.56244,-0.61655 -6.23909,-4.43805 -6.82165,-7.09042 -0.64197,-2.92291 1.40536,-8.03574 3.71209,-9.27023 2.39854,-1.28369 5.7366,-1.14747 8.63714,0.35246 7.07284,3.65754 6.78982,12.38191 -0.50049,15.42803 -1.56352,0.65326 -2.9509,1.14336 -3.08308,1.08896 -0.13218,-0.054 -1.00698,-0.2833 -1.94401,-0.5088 z"
       style="fill:#727272" />
    <path
       inkscape:connector-curvature="0"
       id="path4194"
       d="m 368.47927,1349.544 c -7.70358,-0.9303 -22.02352,-4.1593 -24.69083,-5.5675 -1.63286,-0.8621 -3.39426,-1.5674 -3.91423,-1.5674 -0.51997,0 -1.62675,-0.7528 -2.4595,-1.673 -0.83276,-0.9202 -3.28798,-2.3 -5.45605,-3.0662 -13.47403,-4.7616 -20.35506,-8.147 -31.08771,-15.2946 -10.43529,-6.9497 -15.19148,-11.8023 -19.38065,-19.7734 -1.42053,-2.703 -3.0726,-5.4895 -3.67126,-6.1923 -0.63665,-0.7473 -1.04334,-3.2594 -0.97973,-6.0516 0.0945,-4.1479 0.44108,-5.0722 2.64333,-7.0496 3.24132,-2.9105 7.68849,-5.2598 11.47892,-6.0639 3.48145,-0.7385 7.82318,-2.8134 8.71835,-4.1665 0.34421,-0.5202 0.63836,-3.4375 0.65367,-6.4829 0.0683,-13.5809 5.98974,-28.2274 15.72196,-38.8876 7.26238,-7.9549 15.09014,-12.6597 26.17272,-15.7309 10.87549,-3.0137 35.35722,-1.5007 48.82484,3.0174 8.69849,2.9182 13.87912,6.3618 22.79422,15.1515 6.39466,6.3047 7.67315,8.1226 11.93539,16.9716 2.73473,5.6777 5.20919,12.2267 5.79349,15.3332 2.42038,12.8686 2.32063,12.6835 9.3501,17.3484 8.51158,5.6484 9.88283,6.8201 14.73484,12.59 3.05105,3.6283 4.43134,6.1806 5.29367,9.7885 1.78744,7.4785 1.50431,9.6664 -2.21147,17.0904 -6.47267,12.9319 -18.74156,20.9612 -41.28311,27.0173 -8.37592,2.2504 -39.94201,4.3507 -48.98096,3.2591 z m 0.25526,-22.9967 c 7.24971,-3.6711 10.7488,-11.0746 9.02752,-19.1006 -2.90735,-13.5565 -20.96446,-18.2094 -29.12857,-7.5057 -3.43749,4.5068 -4.20582,7.3752 -3.57496,13.3467 0.46122,4.3656 1.07559,5.9561 3.26306,8.4475 1.48217,1.6881 3.84485,3.7705 5.25041,4.6278 3.27584,1.9977 11.38671,2.0963 15.16254,0.1843 z m -9.30671,-7.7252 c -2.6635,-0.5226 -5.43007,-3.8649 -5.97408,-7.2173 -0.64023,-3.9452 2.87327,-8.3805 6.63882,-8.3805 9.35807,0 12.82413,11.5065 4.51221,14.9795 -1.58704,0.663 -2.99367,1.1533 -3.12585,1.0896 -0.13217,-0.064 -1.05517,-0.2759 -2.0511,-0.4713 z m 57.18057,-8.9327 c 1.40554,-0.4864 3.70552,-1.3759 5.11106,-1.9767 1.40554,-0.6007 3.99563,-1.7047 5.75576,-2.4534 1.76014,-0.7486 3.9267,-2.5557 4.81459,-4.0157 1.62423,-2.6708 3.16373,-9.8985 2.2937,-10.7685 -0.25702,-0.257 -1.99348,0.9115 -3.85881,2.5967 -5.57588,5.0375 -13.32548,8.2535 -28.27227,11.7327 -4.39557,1.0232 -8.28207,2.1172 -8.63665,2.4311 -0.3546,0.3139 0.88642,1.3483 2.75781,2.2987 2.8231,1.4337 4.60112,1.6694 10.44091,1.3837 3.8711,-0.1893 8.18836,-0.7423 9.5939,-1.2286 z"
       style="fill:#575757" />
    <path
       inkscape:connector-curvature="0"
       id="path4192"
       d="m -115.3838,1012.153 c -7.70358,-0.9303 -22.02352,-4.1592 -24.69083,-5.5674 -1.63286,-0.8621 -3.39426,-1.5674 -3.91423,-1.5674 -0.51997,0 -1.62674,-0.7528 -2.4595,-1.673 -0.83276,-0.9202 -3.28798,-2.3 -5.45605,-3.0662 -13.47403,-4.76164 -20.35506,-8.14704 -31.08771,-15.29464 -11.01873,-7.3383 -15.42335,-12.0188 -20.25553,-21.52453 -2.56073,-5.03738 -3.28335,-7.43366 -3.28335,-10.88789 0,-4.03852 0.28218,-4.68391 3.20066,-7.32059 3.39961,-3.07133 5.27203,-3.95468 13.41028,-6.3265 2.81108,-0.81926 5.27212,-1.61794 5.46898,-1.77482 0.19686,-0.15688 0.63853,-4.21675 0.9815,-9.02192 0.75606,-10.5927 2.45524,-16.83906 6.95256,-25.55822 5.4085,-10.4857 17.39987,-21.56608 27.70962,-25.60451 5.2584,-2.05976 17.30114,-3.98544 24.80379,-3.96622 7.99829,0.0205 22.78211,1.97495 29.06403,3.84232 9.70873,2.88604 20.98192,10.7424 28.68772,19.99266 5.56622,6.68184 12.59122,20.90307 13.98101,28.30281 2.39933,12.7748 2.30996,12.60946 9.33408,17.27078 8.51118,5.64818 9.88291,6.82019 14.73309,12.588 4.65155,5.53161 7.0427,12.90573 6.11944,18.87183 -0.89399,5.77699 -6.19382,14.6256 -11.79683,19.696 -9.56006,8.65144 -28.54253,15.85054 -46.15125,17.50294 -10.11575,0.9493 -31.13759,1.5954 -35.35148,1.0865 z m 0.25526,-22.99664 c 7.24971,-3.6711 10.7488,-11.07456 9.02752,-19.10056 -2.90735,-13.55658 -20.96445,-18.20945 -29.12857,-7.50574 -3.43749,4.50678 -4.20582,7.37524 -3.57496,13.34673 0.46122,4.36559 1.07559,5.95607 3.26306,8.44747 1.48217,1.6881 3.84485,3.7705 5.25041,4.6278 3.27584,1.9977 11.38671,2.0963 15.16254,0.1843 z m -9.30671,-7.72525 c -2.6635,-0.52256 -5.43007,-3.86485 -5.97408,-7.21723 -0.64023,-3.94519 2.87328,-8.38049 6.63882,-8.38049 9.35807,0 12.82413,11.50642 4.51221,14.97942 -1.58704,0.66307 -2.99367,1.15335 -3.12585,1.08965 -0.13217,-0.064 -1.05517,-0.27591 -2.0511,-0.47135 z m 61.60756,-7.90197 c 8.5877,-2.8059 9.91263,-3.59566 11.50187,-6.85584 1.6664,-3.4185 3.38883,-13.08409 2.66688,-14.96546 -0.36479,-0.95063 -1.23258,-0.40269 -3.43238,2.16727 -4.94032,5.77167 -21.51883,12.3645 -35.47774,14.10853 -6.38812,0.79814 -6.91994,1.27082 -5.06763,4.50373 0.84172,1.46912 2.1054,2.83275 2.80817,3.03038 0.70277,0.19756 5.76155,0.25698 11.24173,0.13207 7.52042,-0.17153 11.38516,-0.69156 15.7591,-2.12068 z m -85.77799,-8.84383 c 0,-0.16294 -4.42107,-1.93457 -9.8246,-3.937 -13.52764,-5.01303 -20.31933,-9.58926 -24.8379,-16.73573 -0.98227,-1.55354 -1.01621,-1.55038 -1.06162,0.0988 -0.12123,4.40287 6.23045,10.53531 15.27344,14.74625 8.97206,4.1779 20.45068,7.44886 20.45068,5.82764 z"
       style="fill:#4a4a4a" />
    <path
       inkscape:connector-curvature="0"
       id="path4190"
       d="m 197.31328,738.65834 c -10.63866,-1.47157 -20.75548,-3.78277 -22.79374,-5.20717 -0.92415,-0.6458 -2.22962,-1.1742 -2.90105,-1.1742 -0.67143,0 -2.50382,-0.9786 -4.07199,-2.1747 -1.56817,-1.1961 -4.096,-2.5757 -5.61739,-3.0656 -17.25697,-5.558 -35.51582,-16.3694 -43.57292,-25.80031 -5.57264,-6.52287 -10.72974,-16.9146 -10.72974,-21.62082 0,-3.22702 0.42896,-4.1147 3.19441,-6.61043 3.19121,-2.87998 6.97001,-4.64323 13.44284,-6.27264 6.01444,-1.51403 6.30329,-2.01447 7.22463,-12.51685 1.44702,-16.49477 5.98062,-26.54727 17.02658,-37.7536 6.65907,-6.75575 14.78109,-11.59896 22.99976,-13.71493 5.9991,-1.54451 23.31837,-1.95597 33.22187,-0.78926 15.67816,1.84703 24.92313,5.77436 35.6439,15.14181 11.06269,9.66621 18.74892,23.41396 21.76949,38.93742 l 1.82329,9.37027 6.79794,4.48591 c 8.0877,5.33702 14.99761,11.82871 17.94612,16.85996 1.83675,3.13419 2.14057,4.69153 2.14057,10.97254 0,6.61828 -0.26419,7.81556 -2.75616,12.49103 -2.54702,4.7787 -6.54336,9.3019 -11.81035,13.3674 -4.76862,3.681 -18.05935,9.253 -28.96266,12.1424 -11.11249,2.94487 -38.37014,4.54267 -50.0154,2.93177 z m 2.72564,-22.49557 c 3.81272,-2.1432 7.91675,-8.03003 8.55217,-12.26737 1.55012,-10.33694 -6.83764,-20.10123 -17.31338,-20.15474 -8.01795,-0.041 -16.35567,7.68806 -16.35567,15.16165 0,7.37791 1.08945,10.65736 4.75974,14.32766 1.99783,1.9978 4.90665,3.9842 6.46404,4.4141 3.76033,1.038 10.73392,0.2945 13.8931,-1.4813 z m -12.93635,-9.01776 c -2.50472,-1.75438 -3.94804,-6.37505 -2.87385,-9.20038 1.2327,-3.24225 4.62419,-5.17545 7.92227,-4.51585 3.47667,0.69537 7.47449,4.49595 7.47449,7.1058 0,2.64112 -2.13135,6.69391 -3.87145,7.36169 -2.44761,0.93921 -6.77436,0.56351 -8.65146,-0.75126 z m 27.85608,7.29356 c 0,-1.005 -1.66139,-2.0802 -2.27158,-1.47 -0.61019,0.6102 0.46496,2.2715 1.47001,2.2715 0.44087,0 0.80157,-0.3607 0.80157,-0.8015 z m 2.67412,-9.44885 c -2.17321,-1.81048 -4.37781,-2.21139 -4.37781,-0.7961 0,0.94997 3.03894,2.40417 5.11106,2.44574 0.87598,0.0177 0.64543,-0.50109 -0.73325,-1.64964 z m 33.10328,-4.14691 c 2.57683,-0.98276 5.30427,-1.78703 6.06098,-1.78724 2.6103,0 5.8132,-3.45623 7.04334,-7.59857 1.74321,-5.87002 2.66687,-15.40164 1.49248,-15.40164 -0.51417,0 -1.17155,0.94306 -1.46083,2.09569 -0.60157,2.39683 -6.38765,7.43413 -10.66715,9.28671 -1.5921,0.68921 -4.23639,1.82841 -5.87619,2.53155 -3.14288,1.34765 -12.35826,3.86917 -16.1014,4.40562 -1.21727,0.17453 -4.02433,0.67262 -6.23791,1.10692 -2.21359,0.43438 -4.94779,0.61326 -6.07602,0.39758 -1.12822,-0.21562 -2.34488,0.0829 -2.70369,0.66348 -0.47471,0.76809 -0.0553,0.94139 1.53989,0.6365 1.80745,-0.34558 2.45914,0.0765 3.71258,2.4039 0.83617,1.55267 2.11076,2.98853 2.83243,3.1908 0.72167,0.20219 5.91208,0.25248 11.53424,0.11162 7.86366,-0.19701 11.30308,-0.66832 14.90725,-2.04292 z m -83.87709,-9.40667 c -0.23336,-0.37753 -1.29376,-0.68774 -2.35646,-0.68928 -1.0627,-10e-4 -3.4655,-0.68072 -5.33956,-1.50931 -1.87405,-0.8286 -3.97131,-1.62043 -4.66057,-1.75965 -2.71027,-0.54743 -11.95036,-4.84296 -11.95036,-5.55548 0,-0.4158 -0.54305,-0.756 -1.20678,-0.756 -0.66373,0 -1.33456,-0.30337 -1.49073,-0.67416 -0.15617,-0.37079 -1.74403,-1.77517 -3.52857,-3.12085 -1.78454,-1.34568 -3.85881,-3.62979 -4.60949,-5.07578 -1.67866,-3.23354 -2.55192,-1.47277 -1.05813,2.13355 2.22024,5.36015 12.95503,12.09045 25.52318,16.00205 7.98337,2.48467 11.81487,2.8453 10.67747,1.00491 z m 13.17413,-10.64537 c 0,-0.20661 -0.38333,-0.61255 -0.85184,-0.90211 -0.46851,-0.28956 -0.85184,-0.12051 -0.85184,0.37565 0,0.49616 0.38333,0.90211 0.85184,0.90211 0.46851,0 0.85184,-0.16904 0.85184,-0.37565 z m 17.03686,-0.85184 c 0,-0.20661 -0.38333,-0.61256 -0.85184,-0.90212 -0.46851,-0.28955 -0.85184,-0.12051 -0.85184,0.37565 0,0.49616 0.38333,0.90212 0.85184,0.90212 0.46851,0 0.85184,-0.16904 0.85184,-0.37565 z m -10.22211,-3.03172 c -0.50148,-0.93703 -1.10345,-1.70369 -1.33771,-1.70369 -0.23426,0 -0.0156,0.76666 0.48586,1.70369 0.50149,0.93702 1.10345,1.70368 1.33771,1.70368 0.23426,0 0.0156,-0.76666 -0.48586,-1.70368 z"
       style="fill:#444444" />
    <path
       inkscape:connector-curvature="0"
       id="path4188"
       d="m 411.46562,786.13551 c -10.63866,-1.47157 -20.75548,-3.78277 -22.79374,-5.20717 -0.92415,-0.6458 -2.22962,-1.1742 -2.90105,-1.1742 -0.67143,0 -2.50382,-0.9786 -4.07199,-2.1747 -1.56817,-1.1961 -4.096,-2.5757 -5.61739,-3.0656 -12.40912,-3.9967 -23.40187,-9.6657 -35.75768,-18.44046 -8.64481,-6.13926 -17.47781,-19.85622 -18.35272,-28.50028 -0.37967,-3.75112 -0.1965,-4.24638 2.4673,-6.67125 3.54573,-3.22768 8.18966,-5.39276 14.54746,-6.78225 2.90869,-0.6357 5.06371,-1.60426 5.37514,-2.4158 0.28591,-0.74508 0.87809,-5.43715 1.31595,-10.42685 1.40786,-16.04337 6.04468,-26.23318 16.99035,-37.33776 10.85363,-11.01121 22.57795,-15.38457 41.15711,-15.35227 17.37127,0.0302 31.8657,3.09465 41.04572,8.67802 5.91875,3.59983 14.44259,11.20716 18.33507,16.36362 6.00098,7.94963 11.087,19.55517 13.09712,29.88567 l 1.82329,9.37027 6.79794,4.48591 c 8.0877,5.33702 14.99761,11.82871 17.94612,16.85996 1.83675,3.13419 2.14057,4.69153 2.14057,10.97254 0,6.61828 -0.26419,7.81556 -2.75616,12.49103 -2.54702,4.7787 -6.54336,9.3019 -11.81035,13.3674 -4.76862,3.681 -18.05935,9.253 -28.96266,12.1424 -11.11249,2.94487 -38.37014,4.54267 -50.0154,2.93177 z m 2.72564,-22.49557 c 3.81272,-2.1432 7.91675,-8.03003 8.55217,-12.26737 1.55012,-10.33694 -6.83764,-20.10123 -17.31338,-20.15474 -8.01795,-0.041 -16.35567,7.68806 -16.35567,15.16165 0,7.37791 1.08945,10.65736 4.75974,14.32766 1.99783,1.9978 4.90665,3.9842 6.46404,4.4141 3.76033,1.038 10.73392,0.2945 13.8931,-1.4813 z m -12.93635,-9.01776 c -2.50472,-1.75438 -3.94804,-6.37505 -2.87385,-9.20038 1.2327,-3.24225 4.62419,-5.17545 7.92227,-4.51585 3.47667,0.69537 7.47449,4.49595 7.47449,7.1058 0,2.64112 -2.13135,6.69391 -3.87145,7.36169 -2.44761,0.93921 -6.77436,0.56351 -8.65146,-0.75126 z m 27.85608,7.29356 c 0,-1.005 -1.66139,-2.0802 -2.27158,-1.47 -0.61019,0.6102 0.46496,2.2715 1.47001,2.2715 0.44087,0 0.80157,-0.3607 0.80157,-0.8015 z m 27.75298,-5.6114 c 6.93384,-1.76564 15.28246,-6.10036 18.24274,-9.47195 1.35652,-1.54497 2.90667,-4.25704 3.44478,-6.02676 1.39476,-4.58701 2.11631,-17.2731 0.98246,-17.2731 -0.4957,0 -1.12281,0.69803 -1.39359,1.55118 -2.27308,7.16187 -19.24308,14.73433 -38.74448,17.28884 -8.53858,1.1185 -10.76341,1.74573 -7.94232,2.23925 1.05415,0.18441 1.91664,0.8145 1.91664,1.40023 0,1.23933 -3.84312,4.77945 -5.18852,4.77945 -1.98106,0 -0.0491,2.16436 2.70127,3.02629 1.60225,0.50211 4.63816,1.76652 6.74647,2.80977 4.31505,2.1354 9.95145,2.0406 19.23455,-0.3232 z m -76.43519,-16.88217 c 0.1015,-0.39668 -3.37416,-1.96466 -7.72369,-3.48439 -4.34953,-1.51973 -10.09023,-3.79999 -12.75711,-5.06724 -5.80709,-2.75942 -12.83072,-8.85944 -14.30837,-12.42679 -1.7014,-4.10755 -2.79923,-3.12328 -2.11292,1.89437 0.80939,5.91748 1.48746,7.54433 4.64188,11.13703 1.65346,1.88318 4.24325,3.54923 6.87682,4.42396 2.32349,0.77174 6.04307,2.38158 8.26575,3.57744 5.24076,2.8196 12.73225,3.79663 15.1723,1.97873 0.96844,-0.72147 1.84384,-1.63635 1.94534,-2.03311 z m 13.75665,-11.15423 c 0,-0.20661 -0.38333,-0.61255 -0.85184,-0.90211 -0.46851,-0.28956 -0.85184,-0.12051 -0.85184,0.37565 0,0.49616 0.38333,0.90211 0.85184,0.90211 0.46851,0 0.85184,-0.16904 0.85184,-0.37565 z m 17.03686,-0.85184 c 0,-0.20661 -0.38333,-0.61256 -0.85184,-0.90212 -0.46851,-0.28955 -0.85184,-0.12051 -0.85184,0.37565 0,0.49616 0.38333,0.90212 0.85184,0.90212 0.46851,0 0.85184,-0.16904 0.85184,-0.37565 z m -10.22211,-3.03172 c -0.50148,-0.93703 -1.10345,-1.70369 -1.33771,-1.70369 -0.23426,0 -0.0156,0.76666 0.48586,1.70369 0.50149,0.93702 1.10345,1.70368 1.33771,1.70368 0.23426,0 0.0156,-0.76666 -0.48586,-1.70368 z"
       style="fill:#2f2f2f" />
    <path
       inkscape:connector-curvature="0"
       id="path4186"
       d="m 439.50656,1084.618 c -12.97824,-1.4932 -24.81106,-4.8514 -29.92492,-8.4928 -1.30857,-0.9318 -4.40652,-2.4049 -6.88434,-3.2735 -15.52795,-5.4434 -29.74088,-13.7557 -38.64178,-22.5994 -6.00945,-5.9708 -8.88052,-10.5681 -11.9653,-19.1591 -1.96269,-5.466 -2.08592,-6.4281 -1.06717,-8.3317 1.69984,-3.1762 5.60966,-5.8162 11.57782,-7.8176 7.72942,-2.5922 7.5992,-2.6602 8.28802,4.3302 1.22117,12.393 6.18555,20.1962 16.24467,25.5339 6.51787,3.4586 21.51569,4.7178 24.15298,2.0279 1.28393,-1.3096 1.21294,-1.5551 -0.9556,-3.3052 -2.96351,-2.3917 -2.93655,-2.8385 0.21296,-3.5303 1.40555,-0.3087 2.55553,-0.8824 2.55553,-1.2749 0,-0.3926 -4.27326,-2.1377 -9.49614,-3.878 -18.22582,-6.0731 -27.13097,-11.9423 -29.41596,-19.3875 -1.12474,-3.6647 0.0452,-19.38223 1.97102,-26.47851 4.87286,-17.95603 19.59635,-33.59912 36.08924,-38.34333 11.69829,-3.36503 32.15427,-3.19061 45.99951,0.39222 11.19697,2.89752 16.44375,6.12659 26.87328,16.53881 8.09143,8.07801 9.89871,10.40982 12.89352,16.63556 4.06222,8.44471 5.02041,11.50221 6.64995,21.21955 0.66078,3.9402 1.6997,7.4861 2.30874,7.8796 0.60902,0.3936 3.79063,2.3359 7.07022,4.3162 7.35833,4.4431 15.2495,12.1283 17.46424,17.0084 2.61905,5.7709 2.32036,14.2847 -0.72715,20.7264 -5.82662,12.3163 -24.57697,23.5393 -46.12567,27.6086 -12.73316,2.4045 -32.37292,3.1243 -45.14767,1.6545 z m 2.96897,-21.972 c 3.81329,-2.1448 7.91681,-8.0314 8.55217,-12.2683 1.56299,-10.4227 -6.86186,-20.1277 -17.48404,-20.1407 -4.7194,-0.01 -9.50165,2.5752 -13.12258,7.0823 -2.49992,3.1118 -2.63227,3.6535 -2.55474,10.457 0.0756,6.6342 0.27337,7.4121 2.62253,10.3146 1.39743,1.7265 4.19428,4.0136 6.21523,5.0823 3.05831,1.6172 4.47547,1.8559 8.45142,1.4231 2.62733,-0.286 5.92134,-1.1636 7.32001,-1.9503 z m -12.93635,-9.0187 c -2.50472,-1.7543 -3.94804,-6.375 -2.87385,-9.2003 1.25705,-3.3064 4.58576,-5.1525 8.10099,-4.4931 3.26023,0.6117 7.29577,4.7131 7.29577,7.4149 0,2.3565 -2.22591,6.3983 -3.87145,7.0298 -2.44761,0.9392 -6.77436,0.5635 -8.65146,-0.7513 z m 29.00821,8.3628 c 0.32132,-0.3214 3.69565,-0.7027 7.49851,-0.8475 7.5956,-0.289 19.3206,-2.7843 25.10308,-5.3421 12.85337,-5.6857 17.26514,-11.7178 18.00031,-24.6116 0.28023,-4.9148 0.0814,-8.1486 -0.57653,-9.378 -1.22461,-2.2882 -2.31469,-1.7618 -3.0222,1.4594 -1.61265,7.3424 -17.04592,14.3714 -38.56647,17.5649 -4.79918,0.7122 -8.91996,1.2948 -9.15731,1.2948 -0.23733,0 -0.43152,0.3834 -0.43152,0.8519 0,0.4685 0.55237,0.8518 1.22749,0.8518 2.39274,0 2.19934,1.65 -0.34779,2.9671 -3.34632,1.7305 -3.3064,4.0687 0.11099,6.5021 l 2.69438,1.9185 -3.32648,0.9334 c -2.02158,0.5672 -3.44027,1.5242 -3.61657,2.4396 -0.50853,2.6407 2.69697,5.1088 4.41011,3.3957 z m -42.89243,-30.0821 c -1.66822,-1.0781 -2.7959,-1.0781 -2.12961,0 0.28956,0.4685 1.17468,0.8459 1.96692,0.8388 1.24137,-0.011 1.26386,-0.1272 0.16269,-0.8388 z m 6.81475,-4.5809 c 0,-0.1769 -0.58377,-0.8061 -1.29727,-1.3982 -1.08469,-0.9002 -1.20934,-0.8475 -0.7607,0.3216 0.4582,1.1941 2.05797,2.031 2.05797,1.0766 z m 17.03685,-0.9058 c 0,-0.2067 -0.38333,-0.6126 -0.85184,-0.9022 -0.46851,-0.2895 -0.85184,-0.1205 -0.85184,0.3757 0,0.4961 0.38333,0.9021 0.85184,0.9021 0.46851,0 0.85184,-0.169 0.85184,-0.3756 z m -10.22211,-3.0318 c -0.50148,-0.937 -1.10345,-1.7037 -1.33771,-1.7037 -0.23426,0 -0.0156,0.7667 0.48587,1.7037 0.50148,0.9371 1.10345,1.7037 1.3377,1.7037 0.23426,0 0.0156,-0.7666 -0.48586,-1.7037 z"
       style="fill:#191919" />
    <path
       inkscape:connector-curvature="0"
       id="path4184"
       d="m -203.35459,795.58673 c -13.05392,-1.2901 -23.67161,-3.9514 -32.37003,-8.1131 -3.2796,-1.5691 -7.87955,-3.6371 -10.22212,-4.5956 -25.04179,-10.2463 -39.48534,-22.22096 -46.04495,-38.17446 -2.73645,-6.65529 -2.67477,-9.62319 0.2584,-12.43207 2.51527,-2.40869 8.33614,-5.21928 12.70021,-6.13225 l 2.69107,-0.56297 0.61005,6.65246 c 0.91509,9.9788 3.12906,15.14919 8.93595,20.86853 5.1703,5.09232 14.71964,10.51127 22.69901,12.88089 2.41581,0.71739 5.38564,1.95517 6.59961,2.75057 1.81524,1.1894 2.44068,1.2525 3.52183,0.3552 1.80816,-1.5007 1.20718,-4.47165 -1.11018,-5.48834 -2.44515,-1.07271 -2.41018,-1.62123 0.21296,-3.33997 2.46345,-1.61414 2.71385,-3.55785 0.73942,-5.73952 -1.30169,-1.43839 -1.24305,-1.59213 0.92108,-2.41494 1.2712,-0.4833 2.16293,-1.32376 1.98163,-1.86765 -0.18131,-0.54395 -4.71659,-2.44397 -10.0784,-4.22232 -12.89566,-4.27709 -22.6717,-9.29569 -26.06348,-13.37989 -3.84103,-4.62514 -4.56091,-8.09188 -3.65926,-17.62202 1.68704,-17.83164 6.16782,-28.02641 17.02627,-38.73853 12.2928,-12.12715 20.19581,-14.94018 41.70658,-14.84519 7.73047,0.0341 15.97206,0.51227 18.31462,1.06252 10.04313,2.35903 15.85056,4.71587 17.09823,5.63002 11.41276,7.9542 18.22207,14.39528 25.49391,23.96962 5.05533,7.68884 8.57715,17.8312 9.46507,26.54304 0.53661,5.77373 0.59209,5.88102 4.05791,7.84776 12.92779,7.33613 21.34329,15.14054 23.55618,21.84567 1.48426,4.49736 0.71157,13.68302 -1.53448,18.24188 -6.02661,12.23236 -26.11696,23.93216 -47.51667,27.67196 -9.02733,1.5776 -30.38644,2.2979 -39.99042,1.3487 z m 37.90701,-23.1352 c 7.58579,-1.9252 14.91958,-5.2193 21.17925,-9.51315 5.55272,-3.8089 8.05583,-9.81814 8.42413,-20.22389 0.29728,-8.39894 -0.72247,-12.35172 -3.1865,-12.35172 -0.68781,0 -1.46217,1.19541 -1.77954,2.74715 -0.30902,1.51093 -1.18176,3.69327 -1.93944,4.84963 -1.47938,2.25782 -10.15249,7.39221 -15.03132,8.89838 -9.4054,2.90359 -12.40292,3.58595 -21.29607,4.84764 -10.61563,1.50612 -12.48733,2.32069 -9.83326,4.27938 1.64253,1.21221 1.63946,1.24901 -0.21296,2.54654 -2.15653,1.51048 -2.40023,3.58959 -0.69423,5.92269 1.05145,1.43791 0.98012,1.72338 -0.63133,2.52677 -2.06576,1.02978 -2.65663,2.99078 -1.85893,6.16898 l 0.54964,2.19 9.53494,-0.5255 c 5.24423,-0.289 12.79325,-1.3523 16.77562,-2.3629 z"
       style="fill:#151515"
       sodipodi:nodetypes="sssssscssccscscscsssssscccssssscsssssssscscccsc" />
    <path
       sodipodi:nodetypes="ccccccsccccccccccccscscsscsssscsssccsssccscscsscsccsssscsscccscccccsccsccccccccccccccsssscccccscscssccssssc"
       inkscape:connector-curvature="0"
       id="path4215-6"
       d="m -53.199643,1345.1621 c -0.19465,-0.6915 -0.44496,-1.8082 -0.55624,-2.4818 -0.16778,-1.0154 -0.35968,-1.2476 -1.12396,-1.3598 -0.82231,-0.1207 -1.06143,0.093 -2.21842,1.9852 -0.93472,1.5284 -1.43907,2.0613 -1.80637,1.9083 -0.28027,-0.1164 -0.77286,-0.2875 -1.09463,-0.38 -0.49763,-0.1431 -0.55706,-0.4506 -0.39784,-2.0573 0.10294,-1.0388 0.24998,-2.2045 0.32671,-2.5902 0.097,-0.4874 -0.11201,-0.8358 -0.68512,-1.1426 -0.75809,-0.4057 -0.98933,-0.3258 -2.86513,0.99 0,0 -2.04047,1.4312 -2.04047,1.4312 0,0 -0.7984,-0.75 -0.7984,-0.75 0,0 -0.7984,-0.75 -0.7984,-0.75 0,0 1.12268,-2.2294 1.12268,-2.2294 1.00266,-1.9909 1.07183,-2.2988 0.64709,-2.8797 -0.4631,-0.6334 -0.53491,-0.6352 -2.73215,-0.072 -2.80548,0.719 -2.57086,0.7428 -3.27446,-0.3311 0,0 -0.59219,-0.9038 -0.59219,-0.9038 0,0 1.93621,-1.718 1.93621,-1.718 1.55926,-1.3835 1.89263,-1.8553 1.71232,-2.4234 -0.18805,-0.5925 -0.58367,-0.7401 -2.47208,-0.9219 -2.99931,-0.2889 -3.08626,-0.3303 -3.08626,-1.4698 0,-0.9103 0.1814,-1.0577 2.34662,-1.9072 2.23086,-0.8753 2.34661,-0.9741 2.34661,-2.0033 0,-1.014 -0.13815,-1.1414 -2.179,-2.0087 -1.70146,-0.7232 -2.17787,-1.0804 -2.17387,-1.6301 0.01,-1.2778 0.49303,-1.5666 2.97203,-1.7744 1.92837,-0.1617 2.48721,-0.3351 2.76738,-0.8586 0.29439,-0.5501 0.14318,-0.8569 -0.93678,-1.9007 -2.13165,-2.0603 -2.2261,-2.2261 -1.76854,-3.1049 0.22215,-0.4266 0.44295,-0.8226 0.49065,-0.8799 0.0477,-0.057 1.17221,0.2255 2.49888,0.6284 2.2265,0.6763 2.45404,0.6908 2.95683,0.188 0.50278,-0.5028 0.45931,-0.7179 -0.56502,-2.7951 0,0 -1.10972,-2.2504 -1.10972,-2.2504 0,0 0.73971,-0.599 0.73971,-0.599 0.40685,-0.3294 0.84757,-0.599 0.9794,-0.599 0.13181,0 1.12972,0.6658 2.21754,1.4796 1.80843,1.3528 2.0477,1.443 2.79314,1.0524 0.76658,-0.4016 0.81082,-0.5802 0.74052,-2.9881 -0.0736,-2.521 -0.0603,-2.5664 0.85902,-2.9159 1.05751,-0.4021 1.18937,-0.284 2.73531,2.4498 0.71188,1.2589 1.0824,1.5921 1.77049,1.5923 0.7952,3e-4 0.9337,-0.2181 1.60661,-2.534 0.73269,-2.5216 0.74184,-2.5339 1.81164,-2.4304 1.04986,0.1016 1.08735,0.1625 1.58927,2.5839 0.41148,1.9852 0.66012,2.534 1.24614,2.7508 0.63321,0.2343 0.92124,0 2.13256,-1.7257 0.77027,-1.0981 1.52238,-1.9965 1.67136,-1.9965 0.80448,0 1.9729,0.8358 1.83571,1.3131 -0.0839,0.2919 -0.25524,1.4057 -0.38081,2.4753 -0.19513,1.6622 -0.13895,2.0099 0.3868,2.3944 0.54037,0.3951 0.8484,0.2913 2.53657,-0.8552 1.05685,-0.7176 2.01054,-1.3049 2.11933,-1.3049 0.10877,0 0.57205,0.2453 1.02943,0.5449 0,0 0.83161,0.5449 0.83161,0.5449 0,0 -1.17864,2.1076 -1.17864,2.1076 -1.9363,3.4625 -1.5748,4.05 1.93621,3.1469 1.31498,-0.3383 2.4046,-0.5841 2.42133,-0.5464 0.0168,0.038 0.28438,0.475 0.59475,0.9716 0,0 0.56433,0.903 0.56433,0.903 0,0 -1.9586,1.7035 -1.9586,1.7035 -1.55808,1.3552 -1.92807,1.8633 -1.80931,2.4847 0.13448,0.7034 0.4049,0.8109 2.71758,1.081 2.55317,0.2982 2.56881,0.3061 2.66961,1.3406 0.0933,0.9569 -0.0281,1.0955 -1.5085,1.7216 -0.88548,0.3745 -1.94938,0.7838 -2.36424,0.9095 -1.45142,0.4399 -0.87626,1.341 1.54167,2.4153 2.19656,0.976 2.28946,1.064 2.147,2.0348 -0.13495,0.9193 -0.29205,1.0343 -1.67226,1.2235 -0.83783,0.1148 -2.0155,0.2088 -2.61706,0.2088 -0.90833,0 -1.15181,0.1666 -1.43654,0.9834 -0.32058,0.9196 -0.23575,1.0834 1.30814,2.5277 1.77191,1.6573 1.90038,1.9974 1.13631,3.0077 -0.48728,0.6442 -0.52206,0.643 -2.8393,-0.1032 -3.37394,-1.0867 -3.6863,-0.6855 -2.02649,2.6025 0,0 0.98894,1.9592 0.98894,1.9592 0,0 -0.80617,0.7573 -0.80617,0.7573 0,0 -0.80617,0.7573 -0.80617,0.7573 0,0 -2.05957,-1.5305 -2.05957,-1.5305 -1.81816,-1.351 -2.1545,-1.4871 -2.86944,-1.1613 -0.49658,0.2262 -0.7525,0.5742 -0.66156,0.8994 0.0816,0.292 0.2451,1.4366 0.3634,2.5436 0,0 0.2151,2.013 0.2151,2.013 0,0 -1.03971,0.3924 -1.03971,0.3924 -1.03761,0.3918 -1.04247,0.3882 -2.40003,-1.7614 -1.00836,-1.5967 -1.55352,-2.154 -2.10705,-2.154 -0.65308,0 -0.82106,0.3153 -1.33945,2.5143 -0.59263,2.5138 -0.59295,2.5142 -1.72169,2.5142 -1.01818,0 -1.16371,-0.1235 -1.4829,-1.2571 0,0 0,-2e-4 0,-2e-4 m 7.07741,-9.28 c 2.72963,-1.35 5.15872,-3.808 6.41653,-6.4927 0.93907,-2.0043 1.05134,-2.5708 1.04298,-5.2631 -0.006,-2.1005 -0.22007,-3.6731 -0.78967,-5.0809 -0.5797,-1.4327 -1.5281,-2.6947 -3.00202,-4.1686 -1.43871,-1.4387 -2.69035,-2.3769 -4.09396,-2.9543 -1.39951,-0.5757 -2.95012,-0.7927 -4.98793,-0.7896 -2.03922,0 -3.59021,0.2214 -4.98694,0.7941 -1.40769,0.5771 -2.6587,1.5136 -4.09494,2.9498 -1.47393,1.4739 -2.42229,2.7359 -3.00197,4.1686 -0.56958,1.4078 -0.78321,2.9804 -0.78973,5.0809 -0.008,2.6785 0.1058,3.2616 1.01678,5.1961 1.03593,2.1998 3.35414,4.7858 5.41208,6.0373 1.5982,0.9719 3.72439,1.5166 5.86967,1.6115 2.14737,0.095 4.31388,-0.2605 5.98912,-1.0891 0,0 0,0 0,0 m -7.64828,-4.8443 c -2.40346,-0.9539 -4.0108,-2.8086 -4.64127,-4.9494 -0.63108,-2.1428 -0.28337,-4.5723 1.22439,-6.6718 1.41127,-1.9652 3.23791,-2.833 5.96299,-2.833 2.46616,0 4.53717,1.0235 5.87437,2.6587 1.32938,1.6256 1.93349,3.8558 1.47954,6.2856 -0.32682,1.7494 -0.85026,2.6832 -2.21181,3.9457 -2.01058,1.8643 -5.26421,2.5263 -7.68821,1.5642 0,0 0,0 0,0"
       style="display:inline;fill:#d45500" />
  </g>
  <g
     inkscape:groupmode="layer"
     id="layer3"
     inkscape:label="Mask"
     style="display:none" />
  <g
     inkscape:groupmode="layer"
     id="layer5"
     inkscape:label="Gear"
     style="display:inline">
    <path
       inkscape:connector-curvature="0"
       id="path4184-3"
       d="m -136.79278,289.3121 c -13.05392,-1.2901 -23.67161,-3.9514 -32.37003,-8.1131 -3.2796,-1.5691 -7.87955,-3.6371 -10.22212,-4.5956 -25.04179,-10.2463 -39.48535,-22.22097 -46.04496,-38.17447 -2.73645,-6.65529 -2.67477,-9.62319 0.2584,-12.43207 2.51527,-2.40869 7.52971,-4.52204 11.87947,-5.5009 l 1.25084,-0.28149 8.1325,-3.81702 -6.82918,4.27325 1.56771,5.2834 c 2.85054,9.60668 3.12906,15.14919 8.93595,20.86853 5.1703,5.09232 14.71964,10.51127 22.69901,12.88089 2.41581,0.71739 5.38564,1.95518 6.59961,2.75058 1.81524,1.1894 2.44068,1.2525 3.52183,0.3552 1.80816,-1.5007 1.20718,-4.47166 -1.11018,-5.48835 -2.44515,-1.07271 -2.41018,-1.62123 0.21296,-3.33997 2.46345,-1.61414 2.71385,-3.55785 0.73942,-5.73952 -1.30169,-1.43839 -1.24305,-1.59213 0.92108,-2.41494 1.2712,-0.4833 2.16293,-1.32376 1.98163,-1.86765 -0.18131,-0.54395 -4.71659,-2.44397 -10.0784,-4.22232 -12.89566,-4.27709 -22.6717,-9.29569 -26.06348,-13.37989 -3.84103,-4.62514 -4.56091,-8.09188 -3.65926,-17.62202 1.68704,-17.83164 6.16782,-28.02642 17.02627,-38.73854 12.2928,-12.12715 20.19581,-14.94018 41.70658,-14.84519 7.73047,0.0341 15.97206,0.51227 18.31462,1.06252 10.04313,2.35903 15.85056,4.71587 17.09823,5.63002 11.412761,7.9542 18.222071,14.39528 25.493915,23.96962 5.05533,7.68885 8.57715,17.83121 9.46507,26.54305 0.53661,5.77373 0.59209,5.88102 4.05791,7.84776 12.927795,7.33613 21.343295,15.14054 23.556185,21.84567 1.48426,4.49736 0.71157,13.68302 -1.53448,18.24188 -6.02661,12.23237 -26.116965,23.93217 -47.516679,27.67197 -9.027331,1.5776 -30.386441,2.2979 -39.990421,1.3487 z m 37.907011,-23.1352 c 7.58579,-1.9252 14.919584,-5.21931 21.179254,-9.51316 5.55272,-3.8089 8.05583,-9.81814 8.42413,-20.22389 0.29728,-8.39894 -0.72247,-12.35172 -3.1865,-12.35172 -0.68781,0 -1.46217,1.19541 -1.77954,2.74715 -0.30902,1.51093 -1.18176,3.69327 -1.93944,4.84963 -1.47938,2.25782 -10.152494,7.39221 -15.031324,8.89838 -9.405401,2.90359 -12.402921,3.58595 -21.296071,4.84764 -10.61563,1.50612 -12.48733,2.32069 -9.83326,4.27938 1.64253,1.21221 1.63946,1.24901 -0.21296,2.54654 -2.15653,1.51048 -2.40023,3.58959 -0.69423,5.92269 1.05145,1.43791 0.98012,1.72338 -0.63133,2.52677 -2.06576,1.02979 -2.65663,2.99079 -1.85893,6.16899 l 0.54964,2.19 9.53494,-0.5255 c 5.24423,-0.289 12.79325,-1.3523 16.775621,-2.3629 z"
       style="fill:#151515"
       sodipodi:nodetypes="sssssscccssccscscscsssssscccssssscsssssssscscccsc" />
    <path
       style="display:inline;fill:#909090"
       d="m 143.83398,461.71289 c -4.23955,0.0422 -7.41967,0.27313 -8.21679,0.71484 -0.85276,0.4726 -3.65951,1.43638 -6.23633,2.14258 -2.57683,0.7062 -7.84805,3.23444 -11.71484,5.61914 -5.48007,3.3795 -8.26864,5.86971 -12.64258,11.28711 -9.354352,11.586 -12.901769,20.50774 -13.722659,34.51953 -0.47983,8.1901 -0.657729,8.87024 -2.724609,10.33594 -1.21674,0.8628 -4.358479,2.01094 -6.980469,2.55274 -3.46806,0.7167 -5.951175,1.96276 -9.109375,4.57226 0,0 -3.533061,1.89316 -4.339844,3.58789 -0.809044,1.69949 -0.715648,3.06057 -0.459202,6.12 0.243791,2.90846 15.683287,26.05204 24.722874,32.17688 9.756664,6.4976 14.098084,8.67214 28.261724,14.15234 3.8772,1.5001 7.25652,3.06286 7.50976,3.47266 0.8233,1.3321 10.87582,5.60742 15.68164,6.66992 2.57683,0.5697 8.13493,1.55214 12.35156,2.18164 8.13569,1.2147 23.33675,1.04607 38.33204,-0.42383 10.99521,-1.0778 16.51711,-2.37211 26.94531,-6.31641 15.70855,-5.94139 23.36915,-11.76382 28.67773,-21.79882 3.79752,-7.17852 4.31429,-10.74856 2.8418,-19.62305 -0.9881,-5.9551 -8.37212,-14.5348 -17.94336,-20.8457 -8.49632,-5.60201 -8.80201,-6.10232 -11.07031,-18.19922 -0.60339,-3.2179 -3.07506,-9.63523 -6.12305,-15.89453 -4.74777,-9.75 -5.66885,-11.03736 -12.94141,-18.06446 -11.94692,-11.54359 -20.30089,-15.51259 -37.21875,-17.68359 -6.80773,-0.87356 -16.81493,-1.32616 -23.88086,-1.25586 z m 9.52735,78.79688 c 0.16274,-0.026 0.36536,-0.006 0.63281,0.0195 1.04986,0.1016 1.08597,0.16252 1.58789,2.58398 0.41148,1.98515 0.66009,2.53322 1.24609,2.75 0.63322,0.23424 0.92151,0.002 2.13282,-1.72461 0.77027,-1.09806 1.52289,-1.99805 1.67187,-1.99805 0.80448,0 1.97313,0.83715 1.83594,1.31446 -0.0839,0.29186 -0.25529,1.40506 -0.38086,2.47461 -0.19513,1.66219 -0.13903,2.0101 0.38672,2.39453 0.54037,0.39514 0.84894,0.29095 2.53711,-0.85547 1.05685,-0.71768 2.01035,-1.30469 2.11914,-1.30469 0.10877,0 0.57192,0.24524 1.0293,0.54492 l 0.83203,0.54493 -1.17969,2.10742 c -1.9363,3.46243 -1.57546,4.04958 1.93555,3.14648 1.31498,-0.33824 2.40514,-0.58267 2.42187,-0.54492 0.0168,0.0377 0.28534,0.47407 0.5957,0.9707 l 0.56446,0.90235 -1.95899,1.70508 c -1.55808,1.35518 -1.9293,1.86297 -1.81054,2.48437 0.13448,0.7034 0.40607,0.80996 2.71875,1.08008 2.55317,0.29816 2.56912,0.30727 2.66992,1.3418 0.0933,0.95688 -0.0294,1.09458 -1.50977,1.7207 -0.88548,0.37453 -1.94842,0.78445 -2.36328,0.91015 -1.45142,0.43988 -0.87691,1.33974 1.54102,2.41407 2.19656,0.976 2.28894,1.06434 2.14648,2.03515 -0.13495,0.9193 -0.29166,1.03541 -1.67187,1.22461 -0.83783,0.1148 -2.01563,0.20703 -2.61719,0.20703 -0.90833,0 -1.15082,0.16758 -1.43555,0.98438 -0.32058,0.9196 -0.23529,1.08304 1.3086,2.52734 1.77191,1.6573 1.89883,1.9975 1.13476,3.00782 -0.48728,0.6442 -0.52065,0.64268 -2.83789,-0.10352 -3.37394,-1.08672 -3.68715,-0.6845 -2.02734,2.60352 l 0.98828,1.95898 -0.80469,0.75781 -0.80664,0.75586 -2.06055,-1.52929 c -1.81816,-1.351 -2.1542,-1.48791 -2.86914,-1.16211 -0.49658,0.2262 -0.75305,0.57519 -0.66211,0.90039 0.0816,0.292 0.24694,1.43597 0.36524,2.54296 l 0.21484,2.01368 -1.04101,0.39258 c -1.0376,0.39179 -1.04088,0.38788 -2.39844,-1.76172 -1.00837,-1.5967 -1.55389,-2.1543 -2.10742,-2.1543 -0.65309,0 -0.82145,0.31467 -1.33985,2.51367 -0.59262,2.5138 -0.5939,2.51367 -1.72265,2.51367 -1.01817,0 -1.16324,-0.12226 -1.48243,-1.25586 -0.19465,-0.6915 -0.44536,-1.80882 -0.55664,-2.48242 -0.16777,-1.0154 -0.35876,-1.24717 -1.12304,-1.35937 -0.82231,-0.1207 -1.06176,0.0922 -2.21875,1.98437 -0.93472,1.5284 -1.43934,2.0612 -1.80664,1.9082 -0.28027,-0.11639 -0.77198,-0.2864 -1.09375,-0.3789 -0.49763,-0.1431 -0.55766,-0.4519 -0.39844,-2.0586 0.10294,-1.03879 0.24944,-2.20414 0.32617,-2.58984 0.097,-0.4874 -0.11048,-0.83578 -0.68359,-1.14258 -0.7581,-0.4057 -0.98944,-0.32556 -2.86524,0.99024 l -2.04101,1.43164 -0.79883,-0.75 -0.79883,-0.75 1.12305,-2.23047 c 1.00267,-1.99092 1.07123,-2.29801 0.64648,-2.87891 -0.4631,-0.6334 -0.53324,-0.63546 -2.73047,-0.0723 -2.80549,0.719 -2.57178,0.74382 -3.27539,-0.33008 l -0.59179,-0.9043 1.93554,-1.71875 c 1.55927,-1.3835 1.89319,-1.85573 1.71289,-2.42383 -0.18806,-0.5925 -0.58424,-0.74007 -2.47265,-0.92187 -2.99932,-0.2889 -3.08594,-0.32924 -3.08594,-1.46875 0,-0.91027 0.18245,-1.05873 2.34766,-1.9082 2.23086,-0.87527 2.3457,-0.97273 2.3457,-2.00196 0,-1.01398 -0.13884,-1.14239 -2.17969,-2.00976 -1.70146,-0.72314 -2.17783,-1.07921 -2.17383,-1.62891 0.01,-1.27783 0.49366,-1.56756 2.97266,-1.77539 1.92837,-0.16167 2.48742,-0.33393 2.76758,-0.85742 0.2944,-0.55009 0.14246,-0.85852 -0.9375,-1.90234 -2.13166,-2.06033 -2.22514,-2.2248 -1.76758,-3.10352 0.22215,-0.42664 0.44252,-0.82352 0.49023,-0.88086 0.0477,-0.0573 1.17139,0.22595 2.49805,0.62891 2.2265,0.67628 2.45424,0.69028 2.95703,0.1875 0.50278,-0.50279 0.45987,-0.7177 -0.56445,-2.79493 l -1.10938,-2.25 0.74024,-0.5996 c 0.40685,-0.32945 0.84668,-0.59766 0.97851,-0.59766 0.13181,0 1.12898,0.66474 2.2168,1.47851 1.80843,1.35284 2.04948,1.44331 2.79492,1.05274 0.76657,-0.40165 0.81054,-0.58041 0.74024,-2.98828 -0.0736,-2.52103 -0.0619,-2.5665 0.85742,-2.91602 1.05751,-0.40205 1.19039,-0.28457 2.73633,2.44922 0.71188,1.25884 1.08143,1.59347 1.76953,1.59375 0.7952,2.7e-4 0.93451,-0.21923 1.60742,-2.53516 0.54952,-1.8912 0.69145,-2.3712 1.17969,-2.44921 z m -0.80664,9.92578 c -2.03923,0.002 -3.59155,0.22031 -4.98828,0.79297 -1.40769,0.57716 -2.65751,1.51494 -4.09375,2.95117 -1.47393,1.47393 -2.42228,2.73525 -3.00196,4.16797 -0.56958,1.40776 -0.78254,2.97956 -0.78906,5.08007 -0.008,2.67849 0.10464,3.26276 1.01563,5.19727 1.03593,2.1998 3.35416,4.78561 5.41211,6.03711 1.59819,0.97192 3.72386,1.51643 5.86914,1.61133 2.14737,0.095 4.31498,-0.26125 5.99023,-1.08985 2.72962,-1.35002 5.15821,-3.80748 6.41602,-6.49218 0.93907,-2.00431 1.05132,-2.57139 1.04296,-5.26368 -0.006,-2.10051 -0.21946,-3.67231 -0.78906,-5.08007 -0.5797,-1.43272 -1.52803,-2.69404 -3.00195,-4.16797 -1.43871,-1.4387 -2.69014,-2.37769 -4.09375,-2.95508 -1.39951,-0.5757 -2.95047,-0.79213 -4.98828,-0.78906 z m 0.3125,5.44922 c 2.46615,0 4.53585,1.02497 5.87304,2.66015 1.32938,1.62562 1.93442,3.8553 1.48047,6.28516 -0.32681,1.74936 -0.85133,2.68281 -2.21289,3.94531 -2.01057,1.8643 -5.2635,2.52655 -7.6875,1.56445 -2.40347,-0.9539 -4.01016,-2.80847 -4.64062,-4.94922 -0.63108,-2.14284 -0.28512,-4.57235 1.22265,-6.67187 1.41127,-1.96516 3.23976,-2.83398 5.96485,-2.83398 z"
       transform="translate(0,-7.6293954e-6)"
       id="path4202-5"
       inkscape:connector-curvature="0"
       sodipodi:nodetypes="scscsscccsscccscssssssssssccsccscccsscccscccccccccsccsccccccccccccccssssccccccsccccccccccccccscsscsssccsccccsssssscsccssscssscccssscsssscsss" />
    <path
       style="fill:#008080;fill-opacity:1;stroke:#e8b913;stroke-width:0.71428573;stroke-linecap:round;stroke-linejoin:round;stroke-miterlimit:4;stroke-dasharray:none;stroke-opacity:1"
       d="m 128.1579,571.26446 c -0.10995,-0.17791 -0.91297,-0.59372 -2.11815,-1.12034 -1.20519,-0.52661 -2.81254,-1.16403 -4.53115,-1.78513 -12.44939,-4.49917 -22.365083,-11.00861 -26.325299,-17.282 -1.489658,-2.35977 -6.727311,-18.7125 -6.701054,-20.92168 0.0049,-0.40916 1.096472,-1.44821 2.425798,-2.309 l 2.416956,-1.56507 0.817586,3.24693 c 1.702849,6.76263 9.880353,12.167 28.973683,19.14831 2.55357,0.93369 8.71041,3.08714 9.36806,3.50105 0.61743,0.38859 3.07997,2.92296 3.24444,3.10063 0.33361,0.36041 0.14091,0.80958 -0.16483,0.96726 -0.49174,0.25361 -2.28459,0.39454 -2.87475,0.45623 -1.03796,0.1085 -2.00417,0.17096 -2.41012,0.71897 -0.35254,0.47589 -0.68067,1.63788 0.32356,2.38961 0.94265,0.70565 3.65534,1.51362 3.723,2.13948 0.0609,0.56358 0.0984,1.19861 -0.56029,1.45741 0,0 -2.11556,0.65505 -2.49912,0.95148 -0.46881,0.36232 -1.14379,0.53654 -1.42768,1.1747 -0.41846,0.94065 -0.13082,1.64593 0.28569,2.14202 0.72438,0.3904 4.92622,0.53286 5.14715,1.05428 0.22092,0.52142 -0.84683,1.5038 -1.44638,2.01199 -0.6544,0.55467 -1.56351,1.33101 -2.17249,1.48626 -0.60898,0.15524 -3.14591,-0.39916 -3.49464,-0.96339 z"
       id="path4281"
       inkscape:connector-curvature="0"
       sodipodi:nodetypes="cssscscsssssssssssscssssc" />
    <path
       style="fill:#008080;fill-opacity:1;stroke:#e8b913;stroke-width:0.71428573;stroke-linecap:round;stroke-linejoin:round;stroke-miterlimit:4;stroke-dasharray:none;stroke-opacity:1"
       d="m 172.24031,574.04519 c -0.29032,-0.53322 -0.78613,-1.06417 -1.21037,-1.46711 -0.39196,-0.37228 -1.20022,-0.98139 -1.45111,-1.3255 -0.2509,-0.34411 -0.38637,-0.81782 -0.20617,-1.12448 0.28601,-0.48671 0.38243,-0.68589 0.71995,-0.72474 0.40563,-0.0467 1.63958,-0.13325 2.25339,-0.15788 0.61381,-0.0246 1.47785,-0.16759 1.95543,-0.33135 0.47759,-0.16375 0.66343,-0.58502 0.80472,-1.13466 0.172,-0.66914 0.14382,-1.08112 -0.25206,-1.52402 -0.39588,-0.4429 -0.96351,-0.60072 -1.56778,-0.88845 -0.60428,-0.28773 -0.99967,-0.42635 -1.45288,-0.62997 -0.4532,-0.20363 -1.19859,-0.84056 -1.14124,-1.03115 0.0505,-0.16792 1.07751,-0.44209 1.64959,-0.6964 0.57209,-0.25431 0.90132,-0.31019 1.58759,-0.62193 0.68627,-0.31174 1.00115,-0.39013 1.29677,-0.81777 0.28149,-0.40718 0.14343,-0.86566 0.12985,-1.33967 -0.0135,-1.38819 -1.70194,-1.37869 -3.2422,-1.5197 -0.28089,-0.033 -1.29644,-0.16506 -1.74583,-0.31434 -0.4494,-0.14928 -0.49047,-0.49727 -0.43232,-0.66214 0.19625,-0.55642 0.75336,-0.96866 1.28121,-1.50546 0.52785,-0.53681 1.01855,-1.02456 1.22402,-1.10067 0.23395,-0.0867 1.70551,0.33817 3.34232,0.49591 0.81859,0.0789 3.62033,0.20623 4.79064,-0.0395 1.17032,-0.24575 2.47658,-0.50798 3.82066,-0.76339 1.34407,-0.2554 2.72596,-0.504 4.04753,-0.72247 11.29234,-1.8668 19.27361,-4.23434 25.8599,-7.6711 5.83537,-3.04492 8.30231,-5.43386 9.80402,-9.49406 2.4888,-6.72896 4.65952,-3.51102 4.59299,6.8088 -0.0854,13.2478 -2.97046,18.57846 -13.20519,24.39889 -9.21272,5.23921 -20.08171,7.99835 -35.69447,9.06119 -5.22334,0.35558 -9.16561,-0.0384 -8.32756,-1.13404 0.77364,-0.85703 0.95678,-1.32638 0.7686,-2.02281 z"
       id="path4283"
       inkscape:connector-curvature="0"
       sodipodi:nodetypes="cssssssssssssssccssssssssssssscc" />
  </g>
  <g
     inkscape:groupmode="layer"
     id="layer2"
     inkscape:label="Edge.Cuts"
     transform="translate(4.5854926,-14.591325)"
     style="display:none">
    <path
       inkscape:connector-curvature="0"
       id="path4208"
       d="m 89.191302,157.12855 c -11.73592,-1.5733 -23.541925,-4.1468 -26.638974,-5.8067 -1.732661,-0.9287 -3.575721,-1.6885 -4.095691,-1.6885 -0.51997,0 -1.60751,-0.7316 -2.41677,-1.6258 -0.80925,-0.8942 -2.68948,-2.072 -4.17828,-2.6171 -1.48879,-0.5452 -4.81521,-1.7625 -7.39204,-2.7052 -13.75102,-5.0305 -32.32172,-16.5923 -38.4842396,-23.9597 -5.44828996,-6.51352 -8.36712,-11.10802 -8.36712,-13.17055 0,-1.00132 -0.38333,-2.0575 -0.85184,-2.34706 -0.46851,-0.28955 -0.85184,-3.246787 -0.85184,-6.571637 0,-5.17226 0.31464,-6.4577 2.17895,-8.90195 2.53524004,-3.32386 6.68381,-5.5971 12.8708296,-7.05266 2.42097,-0.56957 4.95765,-1.675764 5.637081,-2.458224 0.811839,-0.93496 1.407409,-4.34283 1.737319,-9.94109 0.79593,-13.50575 4.62225,-22.74047 14.5423,-35.09744 3.48003,-4.33492 6.7147,-7.23541 11.02525,-9.886189 13.16321,-8.09474 16.3501,-8.7137 41.054375,-7.97369 16.766938,0.50225 18.395378,0.69634 25.365218,3.02324 9.61203,3.209 16.53887,7.783979 24.98768,16.503669 5.81281,5.99916 7.50299,8.46787 11.59106,16.93005 3.05449,6.32271 5.27866,12.33217 6.14786,16.61093 2.26743,11.161594 2.58734,11.762634 8.17459,15.357814 8.09928,5.21155 10.69169,7.39939 14.92374,12.59466 4.60315,5.650857 5.41731,8.407877 5.44516,18.439297 0.018,6.48233 -0.27748,7.91353 -2.58889,12.53903 -3.51356,7.0313 -11.39245,14.4797 -19.11278,18.0685 -16.22683,7.5431 -28.20423,10.4514 -47.27728,11.4798 -4.91939,0.2652 -10.86099,0.6113 -13.203558,0.7691 -2.34257,0.1577 -6.94251,-0.073 -10.22211,-0.5126 z"
       style="fill:none;stroke:#e9cc08;stroke-width:1;stroke-miterlimit:4;stroke-dasharray:none;stroke-opacity:1"
       sodipodi:nodetypes="ccsscssscsssssssssssssssssscc" />
  </g>
</svg>
