<?xml version="1.0" encoding="UTF-8" standalone="no"?>
<!-- Created with Inkscape (http://www.inkscape.org/) -->

<svg
   xmlns:dc="http://purl.org/dc/elements/1.1/"
   xmlns:cc="http://creativecommons.org/ns#"
   xmlns:rdf="http://www.w3.org/1999/02/22-rdf-syntax-ns#"
   xmlns:svg="http://www.w3.org/2000/svg"
   xmlns="http://www.w3.org/2000/svg"
   xmlns:sodipodi="http://sodipodi.sourceforge.net/DTD/sodipodi-0.dtd"
   xmlns:inkscape="http://www.inkscape.org/namespaces/inkscape"
   version="1.1"
   id="svg3636"
   width="443.97083mm"
   height="679.46643mm"
   viewBox="0 0 1678 2568.0621"
   sodipodi:docname="KiCad_Logo.svg"
   inkscape:version="0.92.4 (unknown)">
  <metadata
     id="metadata80">
    <rdf:RDF>
      <cc:Work
         rdf:about="">
        <dc:format>image/svg+xml</dc:format>
        <dc:type
           rdf:resource="http://purl.org/dc/dcmitype/StillImage" />
        <dc:title></dc:title>
      </cc:Work>
    </rdf:RDF>
  </metadata>
  <sodipodi:namedview
     pagecolor="#ffffff"
     bordercolor="#666666"
     borderopacity="1"
     objecttolerance="10"
     gridtolerance="10"
     guidetolerance="10"
     inkscape:pageopacity="0"
     inkscape:pageshadow="2"
     inkscape:window-width="1920"
     inkscape:window-height="957"
     id="namedview78"
     showgrid="false"
     inkscape:snap-bbox="true"
     inkscape:snap-global="false"
     fit-margin-top="0"
     fit-margin-left="0"
     fit-margin-right="0"
     fit-margin-bottom="0"
     inkscape:zoom="0.085360491"
     inkscape:cx="-384.36568"
     inkscape:cy="733.54108"
     inkscape:window-x="0"
     inkscape:window-y="31"
     inkscape:window-maximized="1"
     inkscape:current-layer="svg3636" />
  <defs
     id="defs3640" />
  <g
     inkscape:groupmode="layer"
     id="layer1"
     inkscape:label="001"
     style="display:inline"
     transform="translate(-0.00164151,-0.0038)">
    <g
       id="g4639"
       transform="translate(0,-189.52343)">
      <path
         id="path4613"
         d="m 0.00164151,671.52723 v -482 H 839.00164 1678.0016 v 482 481.99997 H 839.00164 0.00164151 Z"
         style="fill:#000000"
         inkscape:connector-curvature="0" />
      <path
         id="path4611"
         d="m 174.50164,940.12503 c 18.98988,-4.2789 30.35221,-15.1493 35.06561,-33.5474 1.51144,-5.8997 1.51303,-6.8984 0.0207,-12.9711 -4.30031,-17.499 -14.77649,-27.8148 -33.08629,-32.5799 -7.47525,-1.9454 -31.10379,-3.7926 -42.71881,-3.3397 -11.18226,0.436 -12.48006,1.5458 -13.9484,11.9275 -1.45123,10.2607 -0.58942,65.6305 1.06976,68.7307 0.67551,1.2622 2.21128,2.7195 3.41282,3.2385 3.48825,1.5067 41.99103,0.3876 50.18463,-1.4586 z"
         style="fill:#ffffff;fill-opacity:1"
         inkscape:connector-curvature="0" />
      <path
         id="path4609"
         d="m 136.00164,900.02723 v -25.5 h 8.77623 c 11.79422,0 24.2061,1.6473 30.68976,4.0732 6.77132,2.5334 13.69111,8.6022 16.4143,14.3955 2.60302,5.5377 2.65193,8.1239 0.25919,13.7059 -5.73538,13.3801 -18.37712,18.8254 -43.70486,18.8254 h -12.43462 z"
         style="fill:#0f0000;fill-opacity:1"
         inkscape:connector-curvature="0" />
      <path
         id="path4607"
         d="m 323.41831,941.77723 c 0.4125,-0.4125 1.1625,-0.8062 1.66666,-0.875 0.50417,-0.069 1.31208,-0.1812 1.79535,-0.25 1.54286,-0.2195 3.37051,-5.996 2.71872,-8.5929 -1.38587,-5.5218 -3.29827,-5.8769 -34.21469,-6.3523 l -28.38271,-0.4364 v -8.7299 -8.7299 l 18.32242,-0.5021 c 22.71597,-0.6225 24.04931,-1.0843 24.47769,-8.4778 0.43355,-7.4828 -0.22749,-7.7099 -23.68726,-8.1381 l -19.38714,-0.3539 0.58889,-7.0242 c 0.32389,-3.8634 0.8721,-7.3085 1.21824,-7.6559 0.34614,-0.3474 13.40216,-0.8566 29.01338,-1.1316 31.37369,-0.5527 31.00697,-0.4718 32.0785,-7.0748 0.44404,-2.7364 0.0581,-3.9754 -1.89466,-6.0825 -2.06649,-2.2297 -3.62386,-2.7558 -9.89903,-3.3438 -12.2927,-1.152 -59.97122,-0.1681 -62.55811,1.2909 -4.44728,2.5082 -4.59542,3.8298 -4.57016,40.7734 0.0265,38.784 0.24826,40.371 5.8068,41.5603 4.26329,0.9122 66.00468,1.0289 66.90711,0.1265 z"
         style="fill:#ffffff;fill-opacity:1"
         inkscape:connector-curvature="0" />
      <path
         id="path4605"
         d="m 423.23131,941.59403 c 11.89621,-1.5341 17.51914,-3.8781 24.01279,-10.01 4.58243,-4.3271 6.0964,-6.5123 6.84139,-9.8746 2.54043,-11.4656 -7.02556,-22.4994 -22.58385,-26.0492 -2.75,-0.6274 -13.05918,-2.4836 -22.90928,-4.1248 -19.72055,-3.2858 -26.91188,-5.8146 -26.39513,-9.2817 0.52212,-3.5032 6.60306,-5.7109 19.19667,-6.9696 11.25507,-1.1248 18.10459,-0.8168 42.29331,1.9023 4.74649,0.5335 5.40272,0.3486 7.75,-2.1842 3.07934,-3.3226 3.3386,-7.7008 0.61718,-10.4223 -7.26967,-7.2696 -53.83672,-9.3063 -70.24364,-3.0722 -12.31755,4.6803 -17.91548,11.3857 -18.15801,21.7504 l -0.1511,6.4573 6.24407,5.8753 c 7.68552,7.2317 11.71516,8.593 39.45444,13.329 20.39825,3.4827 26.30149,5.5261 26.30149,9.1042 0,1.2492 -1.66872,2.7433 -4.94953,4.4317 -4.71347,2.4257 -5.73891,2.5477 -21.5,2.5594 -9.10276,0.01 -22.05099,-0.3373 -28.77384,-0.7644 -11.50366,-0.7309 -12.3427,-0.6573 -14.25,1.25 -2.19427,2.1942 -2.66859,6.9586 -1.00267,10.0714 1.32302,2.4721 10.17997,5.0503 20.47604,5.9606 11.65489,1.0303 29.98437,1.0601 37.72967,0.061 z"
         style="fill:#ffffff;fill-opacity:1"
         inkscape:connector-curvature="0" />
      <path
         id="path4603"
         d="m 506.45992,941.36433 c 4.26212,-1.942 4.66289,-5.984 4.3398,-43.769 -0.27912,-32.6436 -0.41925,-34.9948 -2.20307,-36.9645 -2.59932,-2.8703 -7.14611,-2.6834 -11.27176,0.4634 l -3.36554,2.567 0.0399,27.683 c 0.022,15.2257 0.32914,31.7278 0.68262,36.6714 0.5752,8.0445 0.93271,9.2784 3.40429,11.75 3.04353,3.0435 4.56505,3.334 8.37373,1.5987 z"
         style="fill:#ffffff;fill-opacity:1"
         inkscape:connector-curvature="0" />
      <path
         id="path4601"
         d="m 629.98749,940.03093 c 8.14401,-2.1104 13.55589,-4.8747 15.57431,-7.9552 1.31057,-2.0002 1.53242,-4.9706 1.26462,-16.9325 -0.31249,-13.9578 -0.41865,-14.5941 -2.80506,-16.8114 -2.34036,-2.1746 -3.18654,-2.2945 -15,-2.1263 -6.88585,0.098 -13.83924,0.5723 -15.45199,1.0538 -4.2973,1.2832 -6.9444,5.2764 -6.08661,9.1819 1.04913,4.7767 4.58424,6.5082 14.46673,7.086 l 8.55215,0.5 0.29405,3 c 0.16173,1.65 -0.28827,3.7738 -1,4.7195 -3.22052,4.2795 -30.75167,4.8901 -41.99096,0.9313 -19.5501,-6.886 -25.92367,-23.5721 -13.93893,-36.4924 8.48227,-9.1444 31.04464,-13.6385 50.93233,-10.1452 9.52387,1.6729 10.26342,1.6776 12.7027,0.079 3.56939,-2.3387 4.85812,-6.0671 3.26115,-9.4347 -3.0792,-6.4932 -19.40875,-9.8735 -38.92733,-8.0581 -25.35007,2.3578 -39.48273,10.1972 -47.30164,26.2381 -6.24569,12.8134 -6.15584,18.5392 0.49776,31.72 6.91355,13.6956 21.30614,22.4785 40.94012,24.983 9.29106,1.1852 26.51436,0.4069 34.0166,-1.5371 z"
         style="fill:#ffffff;fill-opacity:1"
         inkscape:connector-curvature="0" />
      <path
         id="path4599"
         d="m 699.93012,941.06423 c 1.55604,-0.8047 3.15309,-2.2672 3.54901,-3.25 0.39591,-0.9829 1.07188,-12.4959 1.50215,-25.5846 0.43027,-13.0887 1.00491,-24.0203 1.27697,-24.2923 0.27206,-0.2721 10.57781,8.6368 22.90165,19.7976 33.93381,30.7313 38.94365,34.7796 43.05127,34.7886 0.94024,0 2.80654,-1.1794 4.14732,-2.6253 3.50631,-3.7814 3.95115,-10.4988 3.10383,-46.8696 l -0.72751,-31.2278 -2.77088,-1.6368 c -3.84,-2.2683 -7.37554,-2.0456 -10.52463,0.6632 l -2.67387,2.2999 -0.86141,24.8463 c -0.47378,13.6654 -0.98313,24.953 -1.1319,25.0835 -0.14876,0.1305 -9.94548,-8.5498 -21.77048,-19.2896 -26.42914,-24.0036 -39.68598,-35.1232 -42.8085,-35.9069 -3.17581,-0.7971 -7.0341,3.0715 -8.23744,8.2593 -1.15137,4.9639 -1.15505,61.4142 -0.004,67.3784 0.55281,2.8653 1.81405,5.2893 3.51221,6.75 3.09669,2.6636 4.61149,2.8096 8.4666,0.8161 z"
         style="fill:#ffffff;fill-opacity:1"
         inkscape:connector-curvature="0" />
      <path
         id="path4597"
         d="m 900.28537,940.70813 c 3.60298,-2.9934 2.85947,-12.0653 -1.12529,-13.7301 -0.91214,-0.3811 -14.37094,-0.9243 -29.90844,-1.2072 l -28.25,-0.5142 v -8.7444 -8.7443 l 18.75,-0.4244 c 11.11718,-0.2515 19.58028,-0.8796 20.78958,-1.5429 4.55222,-2.4966 5.47338,-8.1372 2.086,-12.7734 -1.36222,-1.8644 -2.81817,-2.022 -21.47902,-2.3243 l -20.01774,-0.3243 0.5739,-7.1757 c 0.31565,-3.9466 0.77349,-7.4007 1.01742,-7.6757 0.24393,-0.275 12.68931,-0.725 27.6564,-1 24.03469,-0.4416 27.53497,-0.7111 29.97062,-2.3074 2.45538,-1.6093 2.72457,-2.3211 2.45529,-6.4921 -0.48639,-7.5338 -0.66217,-7.5696 -39.40814,-8.0253 l -33.10569,-0.3893 -2.39431,3.3571 -2.39431,3.357 v 36.645 c 0,34.2828 0.11954,36.7771 1.85443,38.6941 1.01994,1.1271 2.81994,2.2517 4,2.4993 1.18006,0.2476 16.81468,0.3853 34.74358,0.3059 25.35059,-0.1122 32.95101,-0.4376 34.18572,-1.4634 z"
         style="fill:#ffffff;fill-opacity:1"
         inkscape:connector-curvature="0" />
      <path
         id="path4595"
         d="m 998.30663,940.14513 c 15.63667,-3.5305 27.92507,-13.4127 33.58517,-27.0089 4.8399,-11.6259 3.8718,-20.747 -3.408,-32.109 -6.7251,-10.4963 -14.1302,-15.7328 -27.4798,-19.4321 -8.9677,-2.4851 -32.24696,-4.4967 -43.83769,-3.7881 -7.40283,0.4525 -8.66141,0.8219 -11.25,3.302 l -2.91467,2.7924 v 34.0695 c 0,34.3014 0.42052,39.1415 3.71971,42.8132 1.70023,1.8921 2.74718,1.9569 23.28029,1.4394 13.82681,-0.3485 23.92865,-1.0903 28.30499,-2.0784 z"
         style="fill:#ffffff;fill-opacity:1"
         inkscape:connector-curvature="0" />
      <path
         id="path4593"
         d="m 961.00164,899.87743 v -25.6498 l 13.25,0.5654 c 22.12349,0.944 34.23226,5.4581 40.08216,14.9425 5.3289,8.6397 4.4686,15.9329 -2.9147,24.7073 -6.0441,7.183 -19.54733,11.0844 -38.36487,11.0844 h -12.05259 z"
         style="fill:#0f0000;fill-opacity:1"
         inkscape:connector-curvature="0" />
      <path
         id="path4591"
         d="m 1206.3987,940.22103 c 1.2685,-1.2684 6.0855,-9.8168 10.7046,-18.9963 4.6191,-9.1795 8.6233,-16.6847 8.8983,-16.6782 0.275,0.01 4.3234,7.5423 8.9965,16.7462 4.6731,9.204 9.4901,17.747 10.7045,18.9845 2.7561,2.8085 7.6018,2.9472 10.2555,0.2935 2.0925,-2.0925 10.598,-19.3062 22.7506,-46.0435 9.6003,-21.122 11.2929,-25.4479 11.2929,-28.8627 0,-2.9732 -3.0594,-6.4721 -6.5929,-7.5399 -4.8412,-1.463 -7.5486,2.9613 -26.8667,43.9026 l -5.6622,12 -2.4429,-4 c -1.3436,-2.2 -5.1773,-9.2607 -8.5192,-15.6904 -7.1678,-13.7904 -9.6514,-16.8096 -13.8279,-16.8096 -4.3044,0 -6.8611,3.2311 -15.0883,19.0681 -3.9238,7.5533 -7.6797,14.4793 -8.3463,15.391 -1.0269,1.4043 -2.8667,-1.9102 -12.0353,-21.6811 -12.9589,-27.9443 -14.9411,-31.156 -19.5021,-31.5983 -3.3532,-0.3252 -6.3345,1.4912 -8.215,5.005 -1.1994,2.241 0.9317,7.888 13.2285,35.0533 12.943,28.5928 19.429,41.4067 21.5983,42.6696 2.9153,1.6972 6.221,1.2343 8.6691,-1.2138 z"
         style="fill:#ffffff;fill-opacity:1"
         inkscape:connector-curvature="0" />
      <path
         id="path4589"
         d="m 1337.0016,940.56263 2.5,-1.9201 v -38.709 -38.7091 l -3.7185,-1.9303 -3.7185,-1.9303 -4.0315,2.2659 -4.0315,2.2658 v 38.3305 38.3306 l 3.25,1.9816 c 4.0571,2.4736 6.553,2.4799 9.75,0.024 z"
         style="fill:#ffffff;fill-opacity:1"
         inkscape:connector-curvature="0" />
      <path
         id="path4587"
         d="m 1417.6958,940.11503 2.8058,-2.4121 0.3139,-31.5228 0.3139,-31.5228 17.0266,-0.315 c 16.5064,-0.3055 17.0849,-0.3872 18.9361,-2.6759 2.7588,-3.4107 2.4685,-8.2654 -0.6707,-11.2149 l -2.5801,-2.4243 h -40.5054 -40.5053 l -2.4145,2.8058 c -2.9046,3.3752 -3.1023,7.6226 -0.5043,10.8334 1.8409,2.2753 2.493,2.373 18,2.6987 l 16.0898,0.3378 0.084,25.6622 c 0.1049,31.9185 0.6144,36.6461 4.2901,39.8078 3.4729,2.9873 5.7945,2.9729 9.3197,-0.058 z"
         style="fill:#ffffff;fill-opacity:1"
         inkscape:connector-curvature="0" />
      <path
         id="path4585"
         d="m 1499.6039,940.19303 c 3.2137,-2.7643 4.2135,-8.0621 4.3247,-22.9157 l 0.073,-9.7501 h 29 29 v 15.345 c 0,13.3469 0.2279,15.5504 1.75,16.9221 4.6625,4.2018 11.0886,2.5034 13.1752,-3.4823 0.6862,-1.9684 1.0748,-15.5744 1.0748,-37.6293 v -34.5461 l -2.6871,-2.8047 c -3.6015,-3.7591 -8.3604,-3.831 -11.2403,-0.1698 -1.862,2.3671 -2.0726,3.993 -2.0726,16 v 13.3651 h -29 -29 l -0.06,-9.25 c -0.084,-13.1111 -1.1593,-18.6448 -4.0535,-20.8702 -3.0954,-2.3801 -7.0622,-2.3679 -10.0261,0.031 l -2.3608,1.9107 -0.3096,35.3393 c -0.1991,22.7298 0.066,36.6218 0.7435,38.9336 1.7053,5.8205 7.1251,7.4794 11.6684,3.5714 z"
         style="fill:#ffffff;fill-opacity:1"
         inkscape:connector-curvature="0" />
      <path
         id="path4583"
         d="m 627.00164,818.52633 c 16.225,-0.4945 30.84252,-1.2895 32.48337,-1.7666 1.79944,-0.5232 3.78366,-2.2297 5,-4.3 2.00582,-3.4141 2.01818,-4.797 2.30644,-258.0184 l 0.28981,-254.586 -4.51747,-4.164 c -4.23353,-3.9024 -4.8875,-4.1641 -10.4048,-4.1641 h -5.88733 l -0.49482,12.25 c -0.55674,13.7833 -3.17996,23.2148 -9.4165,33.8558 -13.6744,23.3318 -42.87802,37.8362 -68.51695,34.0299 -28.25934,-4.1952 -50.38315,-22.7624 -58.91212,-49.4414 -1.27645,-3.9928 -2.20298,-10.5481 -2.60692,-18.4443 l -0.62666,-12.25 -181.59803,0.063 c -99.87891,0.035 -185.34699,0.4211 -189.92906,0.8588 -11.19709,1.0697 -11.92395,1.8627 -13.43038,14.6522 -0.86033,7.3042 -1.17482,72.3957 -1.19062,246.4261 -0.021,231.6016 0.22921,253.0438 3.03841,260.3645 1.3379,3.4865 5.38921,4.0249 34.91363,4.64 47.01186,0.9794 437.33962,0.9749 469.5,-0.01 z"
         style="fill:#ffffff;fill-opacity:1"
         inkscape:connector-curvature="0" />
      <path
         id="path4581"
         d="m 155.00164,759.01613 c 0,-0.3292 1.88957,-3.3811 4.19905,-6.782 5.79544,-8.5342 6.69155,-11.7521 7.80236,-28.0183 1.28012,-18.7456 1.28012,-308.6316 0,-327.3772 -1.11081,-16.2662 -2.00692,-19.4841 -7.80236,-28.0183 -2.30948,-3.4009 -4.19905,-6.433 -4.19905,-6.7382 0,-0.3052 27.45,-0.5549 61,-0.5549 33.55,0 61,0.3732 61,0.8293 0,0.4561 -1.94453,4.2415 -4.32117,8.412 -5.33394,9.3599 -6.71696,15.3438 -7.68273,33.2412 -1.03317,19.1462 -1.22537,105.5175 -0.23481,105.5175 0.99289,0 14.09445,-16.3954 50.87629,-63.6669 34.75502,-44.6667 37.37368,-48.3188 43.19241,-60.2375 4.15957,-8.5203 4.59494,-10.0951 4.63062,-16.7496 l 0.0394,-7.3451 65.25,-5e-4 c 37.18057,-2e-4 65.25,0.3803 65.25,0.8846 0,0.4867 -1.20735,1.6761 -2.68301,2.643 -4.43613,2.9066 -20.00706,18.3149 -29.27785,28.972 -15.44516,17.7547 -119.24247,146.8312 -122.83171,152.7466 -1.48585,2.4488 -1.22002,2.9381 11.34398,20.8805 35.48956,50.6818 102.23276,142.6903 116.19558,160.1809 3.98585,4.9929 12.00756,14.1661 17.82602,20.385 l 10.57902,11.307 h -66.93976 -66.93976 l -0.50299,-9.6161 c -0.48946,-9.3575 -0.66667,-9.9422 -6.59261,-21.75 -4.7003,-9.3656 -11.17584,-19.1066 -28.38327,-42.6964 -41.61179,-57.0458 -60.13194,-81.9375 -60.9639,-81.9375 -1.09154,0 -1.00098,94.0601 0.10975,114 0.94985,17.0517 3.21822,25.8548 9.11618,35.3783 1.66164,2.683 2.74169,5.158 2.40011,5.5 -0.79888,0.7997 -121.45579,1.4064 -121.45579,0.6106 z"
         style="fill:#000000"
         inkscape:connector-curvature="0" />
      <path
         id="path4579"
         d="m 521.25718,758.72783 -2.24446,-0.7006 3.01548,-4.5 c 6.85507,-10.2298 6.47352,-1.9476 6.4727,-140.5 -8.1e-4,-136.4151 0.33356,-128.6115 -5.96817,-139.2883 l -3.37117,-5.7117 4.67004,-0.6624 c 2.56852,-0.3643 25.9174,-0.7018 51.88639,-0.75 l 47.21636,-0.088 0.28364,137.25 0.28365,137.25 2.87825,5.5 c 1.58303,3.025 3.76962,6.7634 4.85909,8.3076 1.08946,1.5442 1.6694,3.1192 1.28874,3.5 -0.91636,0.9168 -108.37663,1.2963 -111.27054,0.393 z"
         style="fill:#000000"
         inkscape:connector-curvature="0" />
      <path
         id="path4577"
         d="m 896.50164,764.49973 c 16.4288,-1.5321 32.5106,-4.8949 44,-9.2008 12.34718,-4.6273 48.66667,-22.8916 52.75529,-26.5295 1.66147,-1.4783 1.58673,-1.8605 -1.39855,-7.152 -2.8697,-5.0866 -30.85819,-51.3222 -36.5572,-60.3907 l -2.38839,-3.8005 -7.0549,6.0871 c -29.37888,25.3484 -60.11622,33.3404 -89.06562,23.1578 -20.68904,-7.2771 -40.77021,-28.0422 -49.79102,-51.4869 -8.45844,-21.9831 -11.42828,-40.7979 -11.4686,-72.657 -0.0397,-31.3754 2.29897,-48.1541 9.95535,-71.4243 7.99475,-24.2986 23.26467,-44.0141 40.64087,-52.4727 12.89842,-6.2789 19.02203,-7.5646 35.87277,-7.532 12.2337,0.024 15.67222,0.3874 22,2.3269 10.88915,3.3377 19.28055,8.0696 30.48389,17.1898 l 9.89799,8.0575 1.83661,-2.3226 c 5.38035,-6.804 43.74883,-65.0665 43.31331,-65.7711 -0.2821,-0.4565 -1.75465,-1.1395 -3.27235,-1.5178 -1.5177,-0.3784 -7.48445,-2.9493 -13.25945,-5.7132 -34.65462,-16.5854 -52.95154,-22.7049 -78.7467,-26.3369 -31.06418,-4.374 -69.37288,2.7258 -98.2533,18.2093 -31.20218,16.7284 -61.78368,48.014 -77.47662,79.2605 -12.3668,24.6238 -18.93662,49.0682 -22.0513,82.0466 -1.8394,19.4757 -1.84113,29.4829 -0.008,49 3.58259,38.1527 12.69893,67.6248 29.54415,95.5129 26.7793,44.3345 63.33559,71.1758 110.99222,81.4955 12.98535,2.8119 40.62539,3.7243 59.5,1.9641 z"
         style="fill:#ffffff;fill-opacity:1"
         inkscape:connector-curvature="0" />
      <path
         id="path4575"
         d="m 1118.5016,763.35933 c 13.888,-2.0575 28.2573,-8.4992 42,-18.8287 l 8,-6.013 0.2408,3.7548 c 0.1325,2.0651 0.5134,7.071 0.8465,11.1241 l 0.6057,7.3692 47.8515,-0.4006 c 26.3184,-0.2203 48.1818,-0.7308 48.5853,-1.1344 0.4036,-0.4036 -0.62,-2.6544 -2.2746,-5.0019 -1.6546,-2.3475 -3.5686,-5.8281 -4.2533,-7.7349 -1.7703,-4.9297 -3.0023,-40.3131 -3.0979,-88.9667 -0.096,-49.1465 -1.4693,-100.5082 -2.9668,-111 -2.3821,-16.6897 -9.7835,-36.3274 -17.7626,-47.1282 -11.6676,-15.7939 -30.2592,-27.3092 -52.7746,-32.6875 -17.5871,-4.2011 -43.1001,-5.9319 -62.504,-4.2403 -13.5206,1.1787 -24.0086,3.213 -56.496,10.9581 -11.55,2.7536 -24.375,5.5243 -28.5,6.157 -4.125,0.6328 -7.6208,1.2617 -7.7685,1.3976 -0.3708,0.3411 17.008,42.0538 21.9952,52.7933 2.9137,6.2744 4.5748,8.75 5.871,8.75 0.9942,0 6.8915,-2.0823 13.105,-4.6273 32.0366,-13.1221 60.7439,-16.5147 75.6512,-8.9405 10.4556,5.3125 16.6954,15.2357 19.5356,31.0678 0.888,4.95 1.6137,9.3503 1.6125,9.7783 0,0.4281 -7.7645,0.4808 -17.252,0.1171 -29.4658,-1.1294 -61.533,2.2557 -81.25,8.577 -39.8,12.76 -66.1996,40.1907 -70.49246,73.2454 -5.35645,41.2443 9.99816,77.2452 41.48036,97.2557 11.7462,7.4661 29.9138,13.8818 44.0121,15.5425 7.9517,0.9366 25.605,0.3561 36,-1.1839 z"
         style="fill:#ffffff;fill-opacity:1"
         inkscape:connector-curvature="0" />
      <path
         id="path4573"
         d="m 1114.5016,699.45443 c -8.7922,-0.8546 -15.7118,-4.0545 -21.4119,-9.9016 -6.4334,-6.5993 -8.5037,-11.84 -8.5037,-21.5256 0,-9.9425 2.265,-15.4446 9.2218,-22.4015 5.5225,-5.5225 12.5203,-9.4192 22.1872,-12.3548 8.2135,-2.4943 43.9896,-3.8326 46.5112,-1.7399 1.247,1.0349 1.4954,5.0196 1.4954,23.988 v 22.7469 l -4.0162,5.0442 c -5.3381,6.7043 -15.5923,13.2535 -24.4838,15.6375 -3.5663,0.9561 -13.8291,1.2038 -21,0.5068 z"
         style="fill:#000000"
         inkscape:connector-curvature="0" />
      <path
         id="path4571"
         d="m 1428.7085,762.93893 c 13.2951,-2.2792 28.3411,-9.0853 40.9225,-18.5114 4.3288,-3.2432 8.2081,-5.8975 8.6206,-5.8985 0.4125,-0.001 0.75,4.9482 0.75,10.9982 v 11 h 49.5 c 27.225,0 49.5,-0.2009 49.5,-0.4464 0,-0.2456 -1.5288,-3.0581 -3.3974,-6.25 -4.4037,-7.5227 -5.5622,-12.0812 -6.6578,-26.197 -0.4955,-6.3837 -0.9162,-96.7691 -0.935,-200.8566 l -0.034,-189.25 h -52.4754 -52.4755 l 3.488,5.4525 c 5.8317,9.1166 6.5316,13.5754 7.62,48.5475 1.031,33.1288 0.8402,90.3644 -0.3051,91.5071 -0.3697,0.369 -3.0697,-1.0908 -6,-3.2438 -16.4484,-12.0858 -29.9527,-16.077 -57.3368,-16.9457 -14.8872,-0.4723 -19.5677,-0.2636 -27,1.204 -43.6808,8.6254 -74.0999,44.1657 -85.4837,99.8754 -4.9661,24.303 -6.9353,67.0606 -4.0805,88.603 8.3008,62.6398 46.2878,106.046 98.0733,112.0645 8.3689,0.9726 27.2098,0.1468 37.7069,-1.6528 z"
         style="fill:#ffffff;fill-opacity:1"
         inkscape:connector-curvature="0" />
      <path
         id="path4191"
         d="m 1423.3069,693.53783 c -17.5996,-2.6381 -30.1166,-19.0007 -34.3872,-44.952 -1.3062,-7.9375 -1.231,-48.8018 0.1106,-60.0586 1.3954,-11.7088 5.0722,-25.1843 9.4672,-34.6972 12.3924,-26.8229 40.284,-31.6939 71.2523,-12.4435 l 4.2482,2.6407 v 66.7702 66.7701 l -6.75,4.3427 c -14.7405,9.4833 -30.4751,13.6466 -43.9447,11.6276 z"
         style="fill:#000000"
         inkscape:connector-curvature="0" />
      <circle
         r="52.884056"
         cy="301.41403"
         cx="576.44818"
         id="path4195"
         style="opacity:1;vector-effect:none;fill:#ffffff;fill-opacity:1;fill-rule:evenodd;stroke:#fc0000;stroke-width:0.05865792;stroke-linecap:butt;stroke-linejoin:miter;stroke-miterlimit:4;stroke-dasharray:none;stroke-dashoffset:0;stroke-opacity:1" />
    </g>
  </g>
  <g
     inkscape:groupmode="layer"
     id="layer2"
     inkscape:label="002"
     style="display:inline"
     transform="translate(-0.00164151,-0.0038)">
    <g
       id="g4565"
       transform="translate(0,-189.52343)">
      <path
         id="path4334"
         d="m 181.00238,1941.927 c 18.9899,-4.2789 30.3522,-15.1493 35.0656,-33.5474 1.5115,-5.8997 1.513,-6.8984 0.021,-12.9711 -4.3003,-17.499 -14.7765,-27.8148 -33.0863,-32.5799 -7.4752,-1.9454 -31.1038,-3.7926 -42.7188,-3.3397 -11.1822,0.436 -12.48,1.5458 -13.9484,11.9275 -1.4512,10.2607 -0.5894,65.6305 1.0698,68.7307 0.6755,1.2622 2.2113,2.7195 3.4128,3.2385 3.4882,1.5067 41.991,0.3876 50.1846,-1.4586 z"
         style="fill:#190000;fill-opacity:1"
         inkscape:connector-curvature="0" />
      <path
         id="path4332"
         d="m 142.50238,1901.8292 v -25.5 h 8.7762 c 11.7943,0 24.2061,1.6473 30.6898,4.0732 6.7713,2.5334 13.6911,8.6022 16.4143,14.3955 2.603,5.5377 2.6519,8.1239 0.2592,13.7059 -5.7354,13.3801 -18.3771,18.8254 -43.7049,18.8254 h -12.4346 z"
         style="fill:#ffffff;fill-opacity:1"
         inkscape:connector-curvature="0" />
      <path
         id="path4330"
         d="m 329.91908,1943.5792 c 0.4125,-0.4125 1.1625,-0.8062 1.6666,-0.875 0.5042,-0.069 1.3121,-0.1812 1.7954,-0.25 1.5428,-0.2195 3.3705,-5.996 2.7187,-8.5929 -1.3859,-5.5218 -3.2983,-5.8769 -34.2147,-6.3523 l -28.3827,-0.4364 v -8.7299 -8.7299 l 18.3224,-0.5021 c 22.716,-0.6225 24.0493,-1.0843 24.4777,-8.4778 0.4336,-7.4828 -0.2275,-7.7099 -23.6872,-8.1381 l -19.3872,-0.3539 0.5889,-7.0242 c 0.3239,-3.8634 0.8721,-7.3085 1.2182,-7.6559 0.3462,-0.3474 13.4022,-0.8566 29.0134,-1.1316 31.3737,-0.5527 31.007,-0.4718 32.0785,-7.0748 0.4441,-2.7364 0.058,-3.9754 -1.8946,-6.0825 -2.0665,-2.2297 -3.6239,-2.7558 -9.8991,-3.3438 -12.2927,-1.152 -59.9712,-0.1681 -62.5581,1.2909 -4.4473,2.5082 -4.5954,3.8298 -4.5701,40.7734 0.026,38.784 0.2482,40.371 5.8068,41.5603 4.2633,0.9122 66.0046,1.0289 66.9071,0.1265 z"
         style="fill:#000000;fill-opacity:1"
         inkscape:connector-curvature="0" />
      <path
         id="path4328"
         d="m 429.73208,1943.396 c 11.8962,-1.5341 17.5191,-3.8781 24.0128,-10.01 4.5824,-4.3271 6.0964,-6.5123 6.8414,-9.8746 2.5404,-11.4656 -7.0256,-22.4994 -22.5839,-26.0492 -2.75,-0.6274 -13.0592,-2.4836 -22.9093,-4.1248 -19.7205,-3.2858 -26.9119,-5.8146 -26.3951,-9.2817 0.5221,-3.5032 6.6031,-5.7109 19.1967,-6.9696 11.255,-1.1248 18.1046,-0.8168 42.2933,1.9023 4.7465,0.5335 5.4027,0.3486 7.75,-2.1842 3.0793,-3.3226 3.3386,-7.7008 0.6172,-10.4223 -7.2697,-7.2696 -53.8368,-9.3063 -70.2437,-3.0722 -12.3175,4.6803 -17.9155,11.3857 -18.158,21.7504 l -0.1511,6.4573 6.2441,5.8753 c 7.6855,7.2317 11.7151,8.593 39.4544,13.329 20.3983,3.4827 26.3015,5.5261 26.3015,9.1042 0,1.2492 -1.6687,2.7433 -4.9495,4.4317 -4.7135,2.4257 -5.7389,2.5477 -21.5,2.5594 -9.1028,0.01 -22.051,-0.3373 -28.7739,-0.7644 -11.5036,-0.7309 -12.3427,-0.6573 -14.25,1.25 -2.1942,2.1942 -2.6686,6.9586 -1.0026,10.0714 1.323,2.4721 10.1799,5.0503 20.476,5.9606 11.6549,1.0303 29.9844,1.0601 37.7297,0.061 z"
         style="fill:#000000;fill-opacity:1"
         inkscape:connector-curvature="0" />
      <path
         id="path4326"
         d="m 512.96068,1943.1663 c 4.2621,-1.942 4.6629,-5.984 4.3398,-43.769 -0.2791,-32.6436 -0.4193,-34.9948 -2.2031,-36.9645 -2.5993,-2.8703 -7.1461,-2.6834 -11.2717,0.4634 l -3.3656,2.567 0.04,27.683 c 0.022,15.2257 0.3292,31.7278 0.6826,36.6714 0.5752,8.0445 0.9327,9.2784 3.4043,11.75 3.0436,3.0435 4.5651,3.334 8.3738,1.5987 z"
         style="fill:#000000;fill-opacity:1"
         inkscape:connector-curvature="0" />
      <path
         id="path4324"
         d="m 636.48828,1941.8329 c 8.144,-2.1104 13.5558,-4.8747 15.5743,-7.9552 1.3105,-2.0002 1.5324,-4.9706 1.2646,-16.9325 -0.3125,-13.9578 -0.4187,-14.5941 -2.8051,-16.8114 -2.3403,-2.1746 -3.1865,-2.2945 -15,-2.1263 -6.8858,0.098 -13.8392,0.5723 -15.452,1.0538 -4.2973,1.2832 -6.9444,5.2764 -6.0866,9.1819 1.0492,4.7767 4.5843,6.5082 14.4668,7.086 l 8.5521,0.5 0.2941,3 c 0.1617,1.65 -0.2883,3.7738 -1,4.7195 -3.2206,4.2795 -30.7517,4.8901 -41.991,0.9313 -19.5501,-6.886 -25.9237,-23.5721 -13.9389,-36.4924 8.4822,-9.1444 31.0446,-13.6385 50.9323,-10.1452 9.5239,1.6729 10.2634,1.6776 12.7027,0.079 3.5694,-2.3387 4.8581,-6.0671 3.2611,-9.4347 -3.0792,-6.4932 -19.4087,-9.8735 -38.9273,-8.0581 -25.3501,2.3578 -39.4827,10.1972 -47.3016,26.2381 -6.2457,12.8134 -6.1559,18.5392 0.4977,31.72 6.9136,13.6956 21.3062,22.4785 40.9402,24.983 9.291,1.1852 26.5143,0.4069 34.0166,-1.5371 z"
         style="fill:#000000;fill-opacity:1"
         inkscape:connector-curvature="0" />
      <path
         id="path4322"
         d="m 706.43088,1942.8662 c 1.556,-0.8047 3.1531,-2.2672 3.549,-3.25 0.3959,-0.9829 1.0719,-12.4959 1.5021,-25.5846 0.4303,-13.0887 1.005,-24.0203 1.277,-24.2923 0.2721,-0.2721 10.5778,8.6368 22.9017,19.7976 33.9338,30.7313 38.9436,34.7796 43.0512,34.7886 0.9403,0 2.8066,-1.1794 4.1474,-2.6253 3.5063,-3.7814 3.9511,-10.4988 3.1038,-46.8696 l -0.7275,-31.2278 -2.7709,-1.6368 c -3.84,-2.2683 -7.3755,-2.0456 -10.5246,0.6632 l -2.6739,2.2999 -0.8614,24.8463 c -0.4738,13.6654 -0.9831,24.953 -1.1319,25.0835 -0.1488,0.1305 -9.9455,-8.5498 -21.7705,-19.2896 -26.4291,-24.0036 -39.686,-35.1232 -42.8085,-35.9069 -3.1758,-0.7971 -7.0341,3.0715 -8.2374,8.2593 -1.1514,4.9639 -1.1551,61.4142 0,67.3784 0.5528,2.8653 1.814,5.2893 3.5122,6.75 3.0967,2.6636 4.6115,2.8096 8.4666,0.8161 z"
         style="fill:#000000;fill-opacity:1"
         inkscape:connector-curvature="0" />
      <path
         id="path4320"
         d="m 906.78608,1942.5101 c 3.603,-2.9934 2.8595,-12.0653 -1.1253,-13.7301 -0.9121,-0.3811 -14.3709,-0.9243 -29.9084,-1.2072 l -28.25,-0.5142 v -8.7444 -8.7443 l 18.75,-0.4244 c 11.1172,-0.2515 19.5803,-0.8796 20.7896,-1.5429 4.5522,-2.4966 5.4734,-8.1372 2.086,-12.7734 -1.3622,-1.8644 -2.8182,-2.022 -21.479,-2.3243 l -20.0178,-0.3243 0.5739,-7.1757 c 0.3157,-3.9466 0.7735,-7.4007 1.0174,-7.6757 0.244,-0.275 12.6894,-0.725 27.6564,-1 24.0347,-0.4416 27.535,-0.7111 29.9707,-2.3074 2.4553,-1.6093 2.7245,-2.3211 2.4553,-6.4921 -0.4864,-7.5338 -0.6622,-7.5696 -39.4082,-8.0253 l -33.1057,-0.3893 -2.3943,3.3571 -2.3943,3.357 v 36.645 c 0,34.2828 0.1195,36.7771 1.8544,38.6941 1.02,1.1271 2.82,2.2517 4,2.4993 1.1801,0.2476 16.8147,0.3853 34.7436,0.3059 25.3506,-0.1122 32.951,-0.4376 34.1857,-1.4634 z"
         style="fill:#000000;fill-opacity:1"
         inkscape:connector-curvature="0" />
      <path
         id="path4318"
         d="m 1004.8073,1941.9471 c 15.6367,-3.5305 27.9251,-13.4127 33.5852,-27.0089 4.8399,-11.6259 3.8718,-20.747 -3.408,-32.109 -6.7251,-10.4963 -14.1302,-15.7328 -27.4798,-19.4321 -8.96762,-2.4851 -32.24692,-4.4967 -43.83762,-3.7881 -7.4029,0.4525 -8.6614,0.8219 -11.25,3.302 l -2.9147,2.7924 v 34.0695 c 0,34.3014 0.4205,39.1415 3.7197,42.8132 1.7002,1.8921 2.7472,1.9569 23.2803,1.4394 13.8268,-0.3485 23.92862,-1.0903 28.30492,-2.0784 z"
         style="fill:#000004;fill-opacity:1"
         inkscape:connector-curvature="0" />
      <path
         id="path4316"
         d="m 967.50238,1901.6794 v -25.6498 l 13.25,0.5654 c 22.12342,0.944 34.23222,5.4581 40.08212,14.9425 5.3289,8.6397 4.4686,15.9329 -2.9147,24.7073 -6.0441,7.183 -19.54732,11.0844 -38.36482,11.0844 h -12.0526 z"
         style="fill:#fbffff;fill-opacity:1"
         inkscape:connector-curvature="0" />
      <path
         id="path4314"
         d="m 1212.8994,1942.023 c 1.2685,-1.2684 6.0855,-9.8168 10.7046,-18.9963 4.6191,-9.1795 8.6233,-16.6847 8.8983,-16.6782 0.275,0.01 4.3234,7.5423 8.9965,16.7462 4.6731,9.204 9.4901,17.747 10.7045,18.9845 2.7561,2.8085 7.6018,2.9472 10.2555,0.2935 2.0925,-2.0925 10.598,-19.3062 22.7506,-46.0435 9.6003,-21.122 11.2929,-25.4479 11.2929,-28.8627 0,-2.9732 -3.0594,-6.4721 -6.5929,-7.5399 -4.8412,-1.463 -7.5486,2.9613 -26.8667,43.9026 l -5.6622,12 -2.4429,-4 c -1.3436,-2.2 -5.1773,-9.2607 -8.5192,-15.6904 -7.1678,-13.7904 -9.6514,-16.8096 -13.8279,-16.8096 -4.3044,0 -6.8611,3.2311 -15.0883,19.0681 -3.9238,7.5533 -7.6797,14.4793 -8.3463,15.391 -1.0269,1.4043 -2.8667,-1.9102 -12.0353,-21.6811 -12.9589,-27.9443 -14.9411,-31.156 -19.5021,-31.5983 -3.3532,-0.3252 -6.3345,1.4912 -8.215,5.005 -1.1994,2.241 0.9317,7.888 13.2285,35.0533 12.943,28.5928 19.429,41.4067 21.5983,42.6696 2.9153,1.6972 6.221,1.2343 8.6691,-1.2138 z"
         style="fill:#000000;fill-opacity:1"
         inkscape:connector-curvature="0" />
      <path
         id="path4312"
         d="m 1343.5023,1942.3646 2.5,-1.9201 v -38.709 -38.7091 l -3.7185,-1.9303 -3.7185,-1.9303 -4.0315,2.2659 -4.0315,2.2658 v 38.3305 38.3306 l 3.25,1.9816 c 4.0571,2.4736 6.553,2.4799 9.75,0.024 z"
         style="fill:#000000;fill-opacity:1"
         inkscape:connector-curvature="0" />
      <path
         id="path4310"
         d="m 1424.1965,1941.917 2.8058,-2.4121 0.3139,-31.5228 0.3139,-31.5228 17.0266,-0.315 c 16.5064,-0.3055 17.0849,-0.3872 18.9361,-2.6759 2.7588,-3.4107 2.4685,-8.2654 -0.6707,-11.2149 l -2.5801,-2.4243 h -40.5054 -40.5053 l -2.4145,2.8058 c -2.9046,3.3752 -3.1023,7.6226 -0.5043,10.8334 1.8409,2.2753 2.493,2.373 18,2.6987 l 16.0898,0.3378 0.084,25.6622 c 0.1049,31.9185 0.6144,36.6461 4.2901,39.8078 3.4729,2.9873 5.7945,2.9729 9.3197,-0.058 z"
         style="fill:#000000;fill-opacity:1"
         inkscape:connector-curvature="0" />
      <path
         id="path4308"
         d="m 1506.1046,1941.995 c 3.2137,-2.7643 4.2135,-8.0621 4.3247,-22.9157 l 0.073,-9.7501 h 29 29 v 15.345 c 0,13.3469 0.2279,15.5504 1.75,16.9221 4.6625,4.2018 11.0886,2.5034 13.1752,-3.4823 0.6862,-1.9684 1.0748,-15.5744 1.0748,-37.6293 v -34.5461 l -2.6871,-2.8047 c -3.6015,-3.7591 -8.3604,-3.831 -11.2403,-0.1698 -1.862,2.3671 -2.0726,3.993 -2.0726,16 v 13.3651 h -29 -29 l -0.06,-9.25 c -0.084,-13.1111 -1.1593,-18.6448 -4.0535,-20.8702 -3.0954,-2.3801 -7.0622,-2.3679 -10.0261,0.031 l -2.3608,1.9107 -0.3096,35.3393 c -0.1991,22.7298 0.066,36.6218 0.7435,38.9336 1.7053,5.8205 7.1251,7.4794 11.6684,3.5714 z"
         style="fill:#000000;fill-opacity:1"
         inkscape:connector-curvature="0" />
      <path
         id="path4306"
         d="m 633.50238,1820.3283 c 16.225,-0.4945 30.8425,-1.2895 32.4834,-1.7666 1.7994,-0.5232 3.7836,-2.2297 5,-4.3 2.0058,-3.4141 2.0182,-4.797 2.3064,-258.0184 l 0.2898,-254.586 -4.5174,-4.164 c -4.2336,-3.9024 -4.8875,-4.1641 -10.4048,-4.1641 h -5.8874 l -0.4948,12.25 c -0.5567,13.7833 -3.18,23.2148 -9.4165,33.8558 -13.6744,23.3318 -42.878,37.8362 -68.5169,34.0299 -28.2594,-4.1952 -50.3832,-22.7624 -58.9122,-49.4414 -1.2764,-3.9928 -2.2029,-10.5481 -2.6069,-18.4443 l -0.6266,-12.25 -181.5981,0.063 c -99.8789,0.035 -185.347,0.4211 -189.929,0.8588 -11.1971,1.0697 -11.924,1.8627 -13.4304,14.6522 -0.8603,7.3042 -1.1748,72.3957 -1.1906,246.4261 -0.021,231.6016 0.2292,253.0438 3.0384,260.3645 1.3379,3.4865 5.3892,4.0249 34.9136,4.64 47.0119,0.9794 437.3396,0.9749 469.5,-0.01 z"
         style="fill:#000000;fill-opacity:1"
         inkscape:connector-curvature="0" />
      <path
         id="path4304"
         d="m 161.50238,1760.8181 c 0,-0.3292 1.8896,-3.3811 4.1991,-6.782 5.7954,-8.5342 6.6915,-11.7521 7.8023,-28.0183 1.2801,-18.7456 1.2801,-308.6316 0,-327.3772 -1.1108,-16.2662 -2.0069,-19.4841 -7.8023,-28.0183 -2.3095,-3.4009 -4.1991,-6.433 -4.1991,-6.7382 0,-0.3052 27.45,-0.5549 61,-0.5549 33.55,0 61,0.3732 61,0.8293 0,0.4561 -1.9445,4.2415 -4.3212,8.412 -5.3339,9.3599 -6.7169,15.3438 -7.6827,33.2412 -1.0332,19.1462 -1.2254,105.5175 -0.2348,105.5175 0.9929,0 14.0944,-16.3954 50.8763,-63.6669 34.755,-44.6667 37.3737,-48.3188 43.1924,-60.2375 4.1596,-8.5203 4.5949,-10.0951 4.6306,-16.7496 l 0.039,-7.3451 65.25,-5e-4 c 37.1806,-2e-4 65.25,0.3803 65.25,0.8846 0,0.4867 -1.2073,1.6761 -2.683,2.643 -4.4361,2.9066 -20.0071,18.3149 -29.2778,28.972 -15.4452,17.7547 -119.2425,146.8312 -122.8318,152.7466 -1.4858,2.4488 -1.22,2.9381 11.344,20.8805 35.4896,50.6818 102.2328,142.6903 116.1956,160.1809 3.9859,4.9929 12.0076,14.1661 17.826,20.385 l 10.579,11.307 h -66.9397 -66.9398 l -0.503,-9.6161 c -0.4894,-9.3575 -0.6666,-9.9422 -6.5926,-21.75 -4.7003,-9.3656 -11.1758,-19.1066 -28.3832,-42.6964 -41.6118,-57.0458 -60.132,-81.9375 -60.9639,-81.9375 -1.0916,0 -1.001,94.0601 0.1097,114 0.9499,17.0517 3.2182,25.8548 9.1162,35.3783 1.6616,2.683 2.7417,5.158 2.4001,5.5 -0.7989,0.7997 -121.4558,1.4064 -121.4558,0.6106 z"
         style="fill:#ffffff;fill-opacity:1"
         inkscape:connector-curvature="0" />
      <path
         id="path4302"
         d="m 527.75788,1760.5298 -2.2444,-0.7006 3.0155,-4.5 c 6.855,-10.2298 6.4735,-1.9476 6.4727,-140.5 -8e-4,-136.4151 0.3335,-128.6115 -5.9682,-139.2883 l -3.3712,-5.7117 4.6701,-0.6624 c 2.5685,-0.3643 25.9174,-0.7018 51.8864,-0.75 l 47.2163,-0.088 0.2837,137.25 0.2836,137.25 2.8783,5.5 c 1.583,3.025 3.7696,6.7634 4.859,8.3076 1.0895,1.5442 1.6694,3.1192 1.2888,3.5 -0.9164,0.9168 -108.3766,1.2963 -111.2706,0.393 z"
         style="fill:#ffffff;fill-opacity:1"
         inkscape:connector-curvature="0" />
      <path
         id="path4300"
         d="m 903.00238,1766.3017 c 16.4288,-1.5321 32.5106,-4.8949 44,-9.2008 12.3472,-4.6273 48.6667,-22.8916 52.7553,-26.5295 1.66142,-1.4783 1.58662,-1.8605 -1.3986,-7.152 -2.8697,-5.0866 -30.8581,-51.3222 -36.5572,-60.3907 l -2.3883,-3.8005 -7.0549,6.0871 c -29.3789,25.3484 -60.1163,33.3404 -89.0657,23.1578 -20.689,-7.2771 -40.7702,-28.0422 -49.791,-51.4869 -8.4584,-21.9831 -11.4283,-40.7979 -11.4686,-72.657 -0.04,-31.3754 2.299,-48.1541 9.9554,-71.4243 7.9947,-24.2986 23.2646,-44.0141 40.6408,-52.4727 12.8985,-6.2789 19.0221,-7.5646 35.8728,-7.532 12.2337,0.024 15.6722,0.3874 22,2.3269 10.8892,3.3377 19.2806,8.0696 30.4839,17.1898 l 9.898,8.0575 1.8366,-2.3226 c 5.3803,-6.804 43.7488,-65.0665 43.3133,-65.7711 -0.2821,-0.4565 -1.7546,-1.1395 -3.2723,-1.5178 -1.5177,-0.3784 -7.4845,-2.9493 -13.2595,-5.7132 -34.6546,-16.5854 -52.9515,-22.7049 -78.7467,-26.3369 -31.0642,-4.374 -69.3729,2.7258 -98.2533,18.2093 -31.2022,16.7284 -61.7837,48.014 -77.4766,79.2605 -12.3668,24.6238 -18.9366,49.0682 -22.0513,82.0466 -1.8394,19.4757 -1.8411,29.4829 -0.01,49 3.5826,38.1527 12.6989,67.6248 29.5441,95.5129 26.7793,44.3345 63.3356,71.1758 110.9923,81.4955 12.9853,2.8119 40.6253,3.7243 59.5,1.9641 z"
         style="fill:#000000;fill-opacity:1"
         inkscape:connector-curvature="0" />
      <path
         id="path4298"
         d="m 1125.0023,1765.1613 c 13.888,-2.0575 28.2573,-8.4992 42,-18.8287 l 8,-6.013 0.2408,3.7548 c 0.1325,2.0651 0.5134,7.071 0.8465,11.1241 l 0.6057,7.3692 47.8515,-0.4006 c 26.3184,-0.2203 48.1818,-0.7308 48.5853,-1.1344 0.4036,-0.4036 -0.62,-2.6544 -2.2746,-5.0019 -1.6546,-2.3475 -3.5686,-5.8281 -4.2533,-7.7349 -1.7703,-4.9297 -3.0023,-40.3131 -3.0979,-88.9667 -0.096,-49.1465 -1.4693,-100.5082 -2.9668,-111 -2.3821,-16.6897 -9.7835,-36.3274 -17.7626,-47.1282 -11.6676,-15.7939 -30.2592,-27.3092 -52.7746,-32.6875 -17.5871,-4.2011 -43.1001,-5.9319 -62.504,-4.2403 -13.5206,1.1787 -24.0086,3.213 -56.496,10.9581 -11.55,2.7536 -24.375,5.5243 -28.5,6.157 -4.125,0.6328 -7.6208,1.2617 -7.7685,1.3976 -0.3708,0.3411 17.008,42.0538 21.9952,52.7933 2.9137,6.2744 4.5748,8.75 5.871,8.75 0.9942,0 6.8915,-2.0823 13.105,-4.6273 32.0366,-13.1221 60.7439,-16.5147 75.6512,-8.9405 10.4556,5.3125 16.6954,15.2357 19.5356,31.0678 0.888,4.95 1.6137,9.3503 1.6125,9.7783 0,0.4281 -7.7645,0.4808 -17.252,0.1171 -29.4658,-1.1294 -61.533,2.2557 -81.25,8.577 -39.8,12.76 -66.1996,40.1907 -70.4925,73.2454 -5.35632,41.2443 9.9982,77.2452 41.4804,97.2557 11.7462,7.4661 29.9138,13.8818 44.0121,15.5425 7.9517,0.9366 25.605,0.3561 36,-1.1839 z"
         style="fill:#00000c;fill-opacity:1"
         inkscape:connector-curvature="0" />
      <path
         id="path4296"
         d="m 1121.0023,1701.2564 c -8.7922,-0.8546 -15.7118,-4.0545 -21.4119,-9.9016 -6.4334,-6.5993 -8.5037,-11.84 -8.5037,-21.5256 0,-9.9425 2.265,-15.4446 9.2218,-22.4015 5.5225,-5.5225 12.5203,-9.4192 22.1872,-12.3548 8.2135,-2.4943 43.9896,-3.8326 46.5112,-1.7399 1.247,1.0349 1.4954,5.0196 1.4954,23.988 v 22.7469 l -4.0162,5.0442 c -5.3381,6.7043 -15.5923,13.2535 -24.4838,15.6375 -3.5663,0.9561 -13.8291,1.2038 -21,0.5068 z"
         style="fill:#ffffff;fill-opacity:1"
         inkscape:connector-curvature="0" />
      <path
         id="path4294"
         d="m 1435.2092,1764.7409 c 13.2951,-2.2792 28.3411,-9.0853 40.9225,-18.5114 4.3288,-3.2432 8.2081,-5.8975 8.6206,-5.8985 0.4125,0 0.75,4.9482 0.75,10.9982 v 11 h 49.5 c 27.225,0 49.5,-0.2009 49.5,-0.4464 0,-0.2456 -1.5288,-3.0581 -3.3974,-6.25 -4.4037,-7.5227 -5.5622,-12.0812 -6.6578,-26.197 -0.4955,-6.3837 -0.9162,-96.7691 -0.935,-200.8566 l -0.034,-189.25 h -52.4754 -52.4755 l 3.488,5.4525 c 5.8317,9.1166 6.5316,13.5754 7.62,48.5475 1.031,33.1288 0.8402,90.3644 -0.3051,91.5071 -0.3697,0.369 -3.0697,-1.0908 -6,-3.2438 -16.4484,-12.0858 -29.9527,-16.077 -57.3368,-16.9457 -14.8872,-0.4723 -19.5677,-0.2636 -27,1.204 -43.6808,8.6254 -74.0999,44.1657 -85.4837,99.8754 -4.9661,24.303 -6.9353,67.0606 -4.0805,88.603 8.3008,62.6398 46.2878,106.046 98.0733,112.0645 8.3689,0.9726 27.2098,0.1468 37.7069,-1.6528 z"
         style="fill:#0d0000;fill-opacity:1"
         inkscape:connector-curvature="0" />
      <path
         id="path4191-3"
         d="m 1429.8076,1695.3398 c -17.5996,-2.6381 -30.1166,-19.0007 -34.3872,-44.952 -1.3062,-7.9375 -1.231,-48.8018 0.1106,-60.0586 1.3954,-11.7088 5.0722,-25.1843 9.4672,-34.6972 12.3924,-26.8229 40.284,-31.6939 71.2523,-12.4435 l 4.2482,2.6407 v 66.7702 66.7701 l -6.75,4.3427 c -14.7405,9.4833 -30.4751,13.6466 -43.9447,11.6276 z"
         style="fill:#feffff;fill-opacity:1"
         inkscape:connector-curvature="0" />
      <circle
         r="52.884056"
         cy="1303.2161"
         cx="582.94885"
         id="path4195-6"
         style="opacity:1;vector-effect:none;fill:#000009;fill-opacity:1;fill-rule:evenodd;stroke:#fc0000;stroke-width:0.05865792;stroke-linecap:butt;stroke-linejoin:miter;stroke-miterlimit:4;stroke-dasharray:none;stroke-dashoffset:0;stroke-opacity:1" />
    </g>
  </g>
  <g
     inkscape:groupmode="layer"
     id="layer3"
     inkscape:label="003"
     style="display:inline"
     transform="translate(-0.00164151,-0.0038)">
    <g
       id="g4540"
       transform="translate(52.639819,-276.3466)">
      <path
         id="path4334-5"
         d="m 108.24437,2842.0139 c 18.9899,-4.2789 30.3522,-15.1493 35.0656,-33.5474 1.5115,-5.8997 1.513,-6.8984 0.021,-12.9711 -4.3003,-17.499 -14.7765,-27.8148 -33.0863,-32.5799 -7.4752,-1.9454 -31.103803,-3.7926 -42.718803,-3.3397 -11.1822,0.436 -12.48,1.5458 -13.9484,11.9275 -1.4512,10.2607 -0.5894,65.6305 1.0698,68.7307 0.6755,1.2622 2.2113,2.7195 3.4128,3.2385 3.4882,1.5067 41.991003,0.3876 50.184603,-1.4586 z"
         style="fill:#0000ff;fill-opacity:1"
         inkscape:connector-curvature="0" />
      <path
         id="path4332-3"
         d="m 69.744367,2801.9161 v -25.5 h 8.7762 c 11.7943,0 24.206103,1.6473 30.689803,4.0732 6.7713,2.5334 13.6911,8.6022 16.4143,14.3955 2.603,5.5377 2.6519,8.1239 0.2592,13.7059 -5.7354,13.3801 -18.3771,18.8254 -43.704903,18.8254 h -12.4346 z"
         style="fill:#ffffff;fill-opacity:1"
         inkscape:connector-curvature="0" />
      <path
         id="path4330-5"
         d="m 257.16107,2843.6661 c 0.4125,-0.4125 1.1625,-0.8062 1.6666,-0.875 0.5042,-0.069 1.3121,-0.1812 1.7954,-0.25 1.5428,-0.2195 3.3705,-5.996 2.7187,-8.5929 -1.3859,-5.5218 -3.2983,-5.8769 -34.2147,-6.3523 l -28.3827,-0.4364 v -8.7299 -8.7299 l 18.3224,-0.5021 c 22.716,-0.6225 24.0493,-1.0843 24.4777,-8.4778 0.4336,-7.4828 -0.2275,-7.7099 -23.6872,-8.1381 l -19.3872,-0.3539 0.5889,-7.0242 c 0.3239,-3.8634 0.8721,-7.3085 1.2182,-7.6559 0.3462,-0.3474 13.4022,-0.8566 29.0134,-1.1316 31.3737,-0.5527 31.007,-0.4718 32.0785,-7.0748 0.4441,-2.7364 0.058,-3.9754 -1.8946,-6.0825 -2.0665,-2.2297 -3.6239,-2.7558 -9.8991,-3.3438 -12.2927,-1.152 -59.9712,-0.1681 -62.5581,1.2909 -4.4473,2.5082 -4.5954,3.8298 -4.5701,40.7734 0.026,38.784 0.2482,40.371 5.8068,41.5603 4.2633,0.9122 66.0046,1.0289 66.9071,0.1265 z"
         style="fill:#0000ff;fill-opacity:1"
         inkscape:connector-curvature="0" />
      <path
         id="path4328-6"
         d="m 356.97407,2843.4829 c 11.8962,-1.5341 17.5191,-3.8781 24.0128,-10.01 4.5824,-4.3271 6.0964,-6.5123 6.8414,-9.8746 2.5404,-11.4656 -7.0256,-22.4994 -22.5839,-26.0492 -2.75,-0.6274 -13.0592,-2.4836 -22.9093,-4.1248 -19.7205,-3.2858 -26.9119,-5.8146 -26.3951,-9.2817 0.5221,-3.5032 6.6031,-5.7109 19.1967,-6.9696 11.255,-1.1248 18.1046,-0.8168 42.2933,1.9023 4.7465,0.5335 5.4027,0.3486 7.75,-2.1842 3.0793,-3.3226 3.3386,-7.7008 0.6172,-10.4223 -7.2697,-7.2696 -53.8368,-9.3063 -70.2437,-3.0722 -12.3175,4.6803 -17.9155,11.3857 -18.158,21.7504 l -0.1511,6.4573 6.2441,5.8753 c 7.6855,7.2317 11.7151,8.593 39.4544,13.329 20.3983,3.4827 26.3015,5.5261 26.3015,9.1042 0,1.2492 -1.6687,2.7433 -4.9495,4.4317 -4.7135,2.4257 -5.7389,2.5477 -21.5,2.5594 -9.1028,0.01 -22.051,-0.3373 -28.7739,-0.7644 -11.5036,-0.7309 -12.3427,-0.6573 -14.25,1.25 -2.1942,2.1942 -2.6686,6.9586 -1.0026,10.0714 1.323,2.4721 10.1799,5.0503 20.476,5.9606 11.6549,1.0303 29.9844,1.0601 37.7297,0.061 z"
         style="fill:#0000ff;fill-opacity:1"
         inkscape:connector-curvature="0" />
      <path
         id="path4326-2"
         d="m 440.20267,2843.2532 c 4.2621,-1.942 4.6629,-5.984 4.3398,-43.769 -0.2791,-32.6436 -0.4193,-34.9948 -2.2031,-36.9645 -2.5993,-2.8703 -7.1461,-2.6834 -11.2717,0.4634 l -3.3656,2.567 0.04,27.683 c 0.022,15.2257 0.3292,31.7278 0.6826,36.6714 0.5752,8.0445 0.9327,9.2784 3.4043,11.75 3.0436,3.0435 4.5651,3.334 8.3738,1.5987 z"
         style="fill:#0000ff;fill-opacity:1"
         inkscape:connector-curvature="0" />
      <path
         id="path4324-9"
         d="m 563.73027,2841.9198 c 8.144,-2.1104 13.5558,-4.8747 15.5743,-7.9552 1.3105,-2.0002 1.5324,-4.9706 1.2646,-16.9325 -0.3125,-13.9578 -0.4187,-14.5941 -2.8051,-16.8114 -2.3403,-2.1746 -3.1865,-2.2945 -15,-2.1263 -6.8858,0.098 -13.8392,0.5723 -15.452,1.0538 -4.2973,1.2832 -6.9444,5.2764 -6.0866,9.1819 1.0492,4.7767 4.5843,6.5082 14.4668,7.086 l 8.5521,0.5 0.2941,3 c 0.1617,1.65 -0.2883,3.7738 -1,4.7195 -3.2206,4.2795 -30.7517,4.8901 -41.991,0.9313 -19.5501,-6.886 -25.9237,-23.5721 -13.9389,-36.4924 8.4822,-9.1444 31.0446,-13.6385 50.9323,-10.1452 9.5239,1.6729 10.2634,1.6776 12.7027,0.079 3.5694,-2.3387 4.8581,-6.0671 3.2611,-9.4347 -3.0792,-6.4932 -19.4087,-9.8735 -38.9273,-8.0581 -25.3501,2.3578 -39.4827,10.1972 -47.3016,26.2381 -6.2457,12.8134 -6.1559,18.5392 0.4977,31.72 6.9136,13.6956 21.3062,22.4785 40.9402,24.983 9.291,1.1852 26.5143,0.4069 34.0166,-1.5371 z"
         style="fill:#0000ff;fill-opacity:1"
         inkscape:connector-curvature="0" />
      <path
         id="path4322-1"
         d="m 633.67287,2842.9531 c 1.556,-0.8047 3.1531,-2.2672 3.549,-3.25 0.3959,-0.9829 1.0719,-12.4959 1.5021,-25.5846 0.4303,-13.0887 1.005,-24.0203 1.277,-24.2923 0.2721,-0.2721 10.5778,8.6368 22.9017,19.7976 33.9338,30.7313 38.9436,34.7796 43.0512,34.7886 0.9403,0 2.8066,-1.1794 4.1474,-2.6253 3.5063,-3.7814 3.9511,-10.4988 3.1038,-46.8696 l -0.7275,-31.2278 -2.7709,-1.6368 c -3.84,-2.2683 -7.3755,-2.0456 -10.5246,0.6632 l -2.6739,2.2999 -0.8614,24.8463 c -0.4738,13.6654 -0.9831,24.953 -1.1319,25.0835 -0.1488,0.1305 -9.9455,-8.5498 -21.7705,-19.2896 -26.4291,-24.0036 -39.686,-35.1232 -42.8085,-35.9069 -3.1758,-0.7971 -7.0341,3.0715 -8.2374,8.2593 -1.1514,4.9639 -1.1551,61.4142 0,67.3784 0.5528,2.8653 1.814,5.2893 3.5122,6.75 3.0967,2.6636 4.6115,2.8096 8.4666,0.8161 z"
         style="fill:#0000ff;fill-opacity:1"
         inkscape:connector-curvature="0" />
      <path
         id="path4320-2"
         d="m 834.02807,2842.597 c 3.603,-2.9934 2.8595,-12.0653 -1.1253,-13.7301 -0.9121,-0.3811 -14.3709,-0.9243 -29.9084,-1.2072 l -28.25,-0.5142 v -8.7444 -8.7443 l 18.75,-0.4244 c 11.1172,-0.2515 19.5803,-0.8796 20.7896,-1.5429 4.5522,-2.4966 5.4734,-8.1372 2.086,-12.7734 -1.3622,-1.8644 -2.8182,-2.022 -21.479,-2.3243 l -20.0178,-0.3243 0.5739,-7.1757 c 0.3157,-3.9466 0.7735,-7.4007 1.0174,-7.6757 0.244,-0.275 12.6894,-0.725 27.6564,-1 24.0347,-0.4416 27.535,-0.7111 29.9707,-2.3074 2.4553,-1.6093 2.7245,-2.3211 2.4553,-6.4921 -0.4864,-7.5338 -0.6622,-7.5696 -39.4082,-8.0253 l -33.1057,-0.3893 -2.3943,3.3571 -2.3943,3.357 v 36.645 c 0,34.2828 0.1195,36.7771 1.8544,38.6941 1.02,1.1271 2.82,2.2517 4,2.4993 1.1801,0.2476 16.8147,0.3853 34.7436,0.3059 25.3506,-0.1122 32.951,-0.4376 34.1857,-1.4634 z"
         style="fill:#0000ff;fill-opacity:1"
         inkscape:connector-curvature="0" />
      <path
         id="path4318-7"
         d="m 932.04938,2842.034 c 15.6367,-3.5305 27.9251,-13.4127 33.5852,-27.0089 4.8399,-11.6259 3.8718,-20.747 -3.408,-32.109 -6.7251,-10.4963 -14.1302,-15.7328 -27.4798,-19.4321 -8.96771,-2.4851 -32.24701,-4.4967 -43.83771,-3.7881 -7.4029,0.4525 -8.6614,0.8219 -11.25,3.302 l -2.9147,2.7924 v 34.0695 c 0,34.3014 0.4205,39.1415 3.7197,42.8132 1.7002,1.8921 2.7472,1.9569 23.2803,1.4394 13.8268,-0.3485 23.9287,-1.0903 28.30501,-2.0784 z"
         style="fill:#0000ff;fill-opacity:1"
         inkscape:connector-curvature="0" />
      <path
         id="path4316-0"
         d="m 894.74437,2801.7663 v -25.6498 l 13.25,0.5654 c 22.1235,0.944 34.23231,5.4581 40.08221,14.9425 5.3289,8.6397 4.4686,15.9329 -2.9147,24.7073 -6.0441,7.183 -19.54741,11.0844 -38.36491,11.0844 h -12.0526 z"
         style="fill:#ffffff;fill-opacity:1"
         inkscape:connector-curvature="0" />
      <path
         id="path4314-9"
         d="m 1140.1415,2842.1099 c 1.2685,-1.2684 6.0855,-9.8168 10.7046,-18.9963 4.6191,-9.1795 8.6233,-16.6847 8.8983,-16.6782 0.275,0.01 4.3234,7.5423 8.9965,16.7462 4.6731,9.204 9.4901,17.747 10.7045,18.9845 2.7561,2.8085 7.6018,2.9472 10.2555,0.2935 2.0925,-2.0925 10.598,-19.3062 22.7506,-46.0435 9.6003,-21.122 11.2929,-25.4479 11.2929,-28.8627 0,-2.9732 -3.0594,-6.4721 -6.5929,-7.5399 -4.8412,-1.463 -7.5486,2.9613 -26.8667,43.9026 l -5.6622,12 -2.4429,-4 c -1.3436,-2.2 -5.1773,-9.2607 -8.5192,-15.6904 -7.1678,-13.7904 -9.6514,-16.8096 -13.8279,-16.8096 -4.3044,0 -6.8611,3.2311 -15.0883,19.0681 -3.9238,7.5533 -7.6797,14.4793 -8.3463,15.391 -1.0269,1.4043 -2.8667,-1.9102 -12.0353,-21.6811 -12.9589,-27.9443 -14.9411,-31.156 -19.5021,-31.5983 -3.3532,-0.3252 -6.3345,1.4912 -8.215,5.005 -1.1994,2.241 0.9317,7.888 13.2285,35.0533 12.943,28.5928 19.429,41.4067 21.5983,42.6696 2.9153,1.6972 6.221,1.2343 8.6691,-1.2138 z"
         style="fill:#0000ff;fill-opacity:1"
         inkscape:connector-curvature="0" />
      <path
         id="path4312-3"
         d="m 1270.7444,2842.4515 2.5,-1.9201 v -38.709 -38.7091 l -3.7185,-1.9303 -3.7185,-1.9303 -4.0315,2.2659 -4.0315,2.2658 v 38.3305 38.3306 l 3.25,1.9816 c 4.0571,2.4736 6.553,2.4799 9.75,0.024 z"
         style="fill:#0000ff;fill-opacity:1"
         inkscape:connector-curvature="0" />
      <path
         id="path4310-6"
         d="m 1351.4386,2842.0039 2.8058,-2.4121 0.3139,-31.5228 0.3139,-31.5228 17.0266,-0.315 c 16.5064,-0.3055 17.0849,-0.3872 18.9361,-2.6759 2.7588,-3.4107 2.4685,-8.2654 -0.6707,-11.2149 l -2.5801,-2.4243 h -40.5054 -40.5053 l -2.4145,2.8058 c -2.9046,3.3752 -3.1023,7.6226 -0.5043,10.8334 1.8409,2.2753 2.493,2.373 18,2.6987 l 16.0898,0.3378 0.084,25.6622 c 0.1049,31.9185 0.6144,36.6461 4.2901,39.8078 3.4729,2.9873 5.7945,2.9729 9.3197,-0.058 z"
         style="fill:#0000ff;fill-opacity:1"
         inkscape:connector-curvature="0" />
      <path
         id="path4308-0"
         d="m 1433.3467,2842.0819 c 3.2137,-2.7643 4.2135,-8.0621 4.3247,-22.9157 l 0.073,-9.7501 h 29 29 v 15.345 c 0,13.3469 0.2279,15.5504 1.75,16.9221 4.6625,4.2018 11.0886,2.5034 13.1752,-3.4823 0.6862,-1.9684 1.0748,-15.5744 1.0748,-37.6293 v -34.5461 l -2.6871,-2.8047 c -3.6015,-3.7591 -8.3604,-3.831 -11.2403,-0.1698 -1.862,2.3671 -2.0726,3.993 -2.0726,16 v 13.3651 h -29 -29 l -0.06,-9.25 c -0.084,-13.1111 -1.1593,-18.6448 -4.0535,-20.8702 -3.0954,-2.3801 -7.0622,-2.3679 -10.0261,0.031 l -2.3608,1.9107 -0.3096,35.3393 c -0.1991,22.7298 0.066,36.6218 0.7435,38.9336 1.7053,5.8205 7.1251,7.4794 11.6684,3.5714 z"
         style="fill:#0000ff;fill-opacity:1"
         inkscape:connector-curvature="0" />
      <path
         id="path4306-6"
         d="m 560.74437,2720.4152 c 16.225,-0.4945 30.8425,-1.2895 32.4834,-1.7666 1.7994,-0.5232 3.7836,-2.2297 5,-4.3 2.0058,-3.4141 2.0182,-4.797 2.3064,-258.0184 l 0.2898,-254.586 -4.5174,-4.164 c -4.2336,-3.9024 -4.8875,-4.1641 -10.4048,-4.1641 h -5.8874 l -0.4948,12.25 c -0.5567,13.7833 -3.18,23.2148 -9.4165,33.8558 -13.6744,23.3318 -42.878,37.8362 -68.5169,34.0299 -28.2594,-4.1952 -50.3832,-22.7624 -58.9122,-49.4414 -1.2764,-3.9928 -2.2029,-10.5481 -2.6069,-18.4443 l -0.6266,-12.25 -181.5981,0.063 c -99.8789,0.035 -185.347003,0.4211 -189.929003,0.8588 -11.1971,1.0697 -11.924,1.8627 -13.4304,14.6522 -0.8603,7.3042 -1.1748,72.3957 -1.1906,246.4261 -0.021,231.6016 0.2292,253.0438 3.0384,260.3645 1.3379,3.4865 5.3892,4.0249 34.9136,4.64 47.011903,0.9794 437.339603,0.9749 469.500003,-0.01 z"
         style="fill:#002bff;fill-opacity:1"
         inkscape:connector-curvature="0" />
      <path
         id="path4304-2"
         d="m 88.744367,2660.905 c 0,-0.3292 1.8896,-3.3811 4.1991,-6.782 5.7954,-8.5342 6.6915,-11.7521 7.802303,-28.0183 1.2801,-18.7456 1.2801,-308.6316 0,-327.3772 -1.110803,-16.2662 -2.006903,-19.4841 -7.802303,-28.0183 -2.3095,-3.4009 -4.1991,-6.433 -4.1991,-6.7382 0,-0.3052 27.450003,-0.5549 61.000003,-0.5549 33.55,0 61,0.3732 61,0.8293 0,0.4561 -1.9445,4.2415 -4.3212,8.412 -5.3339,9.3599 -6.7169,15.3438 -7.6827,33.2412 -1.0332,19.1462 -1.2254,105.5175 -0.2348,105.5175 0.9929,0 14.0944,-16.3954 50.8763,-63.6669 34.755,-44.6667 37.3737,-48.3188 43.1924,-60.2375 4.1596,-8.5203 4.5949,-10.0951 4.6306,-16.7496 l 0.039,-7.3451 65.25,-5e-4 c 37.1806,-2e-4 65.25,0.3803 65.25,0.8846 0,0.4867 -1.2073,1.6761 -2.683,2.643 -4.4361,2.9066 -20.0071,18.3149 -29.2778,28.972 -15.4452,17.7547 -119.2425,146.8312 -122.8318,152.7466 -1.4858,2.4488 -1.22,2.9381 11.344,20.8805 35.4896,50.6818 102.2328,142.6903 116.1956,160.1809 3.9859,4.9929 12.0076,14.1661 17.826,20.385 l 10.579,11.307 h -66.9397 -66.9398 l -0.503,-9.6161 c -0.4894,-9.3575 -0.6666,-9.9422 -6.5926,-21.75 -4.7003,-9.3656 -11.1758,-19.1066 -28.3832,-42.6964 -41.6118,-57.0458 -60.132,-81.9375 -60.9639,-81.9375 -1.0916,0 -1.001,94.0601 0.1097,114 0.9499,17.0517 3.2182,25.8548 9.1162,35.3783 1.6616,2.683 2.7417,5.158 2.4001,5.5 -0.7989,0.7997 -121.455803,1.4064 -121.455803,0.6106 z"
         style="fill:#fffff0;fill-opacity:1"
         inkscape:connector-curvature="0" />
      <path
         id="path4302-6"
         d="m 454.99987,2660.6167 -2.2444,-0.7006 3.0155,-4.5 c 6.855,-10.2298 6.4735,-1.9476 6.4727,-140.5 -8e-4,-136.4151 0.3335,-128.6115 -5.9682,-139.2883 l -3.3712,-5.7117 4.6701,-0.6624 c 2.5685,-0.3643 25.9174,-0.7018 51.8864,-0.75 l 47.2163,-0.088 0.2837,137.25 0.2836,137.25 2.8783,5.5 c 1.583,3.025 3.7696,6.7634 4.859,8.3076 1.0895,1.5442 1.6694,3.1192 1.2888,3.5 -0.9164,0.9168 -108.3766,1.2963 -111.2706,0.393 z"
         style="fill:#fffff0;fill-opacity:1"
         inkscape:connector-curvature="0" />
      <path
         id="path4300-1"
         d="m 830.24437,2666.3886 c 16.4288,-1.5321 32.5106,-4.8949 44,-9.2008 12.3472,-4.6273 48.6667,-22.8916 52.7553,-26.5295 1.6615,-1.4783 1.5867,-1.8605 -1.3986,-7.152 -2.8697,-5.0866 -30.8581,-51.3222 -36.5572,-60.3907 l -2.3883,-3.8005 -7.0549,6.0871 c -29.3789,25.3484 -60.1163,33.3404 -89.0657,23.1578 -20.689,-7.2771 -40.7702,-28.0422 -49.791,-51.4869 -8.4584,-21.9831 -11.4283,-40.7979 -11.4686,-72.657 -0.04,-31.3754 2.299,-48.1541 9.9554,-71.4243 7.9947,-24.2986 23.2646,-44.0141 40.6408,-52.4727 12.8985,-6.2789 19.0221,-7.5646 35.8728,-7.532 12.2337,0.024 15.6722,0.3874 22,2.3269 10.8892,3.3377 19.2806,8.0696 30.4839,17.1898 l 9.898,8.0575 1.8366,-2.3226 c 5.3803,-6.804 43.7488,-65.0665 43.3133,-65.7711 -0.2821,-0.4565 -1.7546,-1.1395 -3.2723,-1.5178 -1.5177,-0.3784 -7.4845,-2.9493 -13.2595,-5.7132 -34.6546,-16.5854 -52.9515,-22.7049 -78.7467,-26.3369 -31.0642,-4.374 -69.3729,2.7258 -98.2533,18.2093 -31.2022,16.7284 -61.7837,48.014 -77.4766,79.2605 -12.3668,24.6238 -18.9366,49.0682 -22.0513,82.0466 -1.8394,19.4757 -1.8411,29.4829 -0.01,49 3.5826,38.1527 12.6989,67.6248 29.5441,95.5129 26.7793,44.3345 63.3356,71.1758 110.9923,81.4955 12.9853,2.8119 40.6253,3.7243 59.5,1.9641 z"
         style="fill:#0000ff;fill-opacity:1"
         inkscape:connector-curvature="0" />
      <path
         id="path4298-8"
         d="m 1052.2444,2665.2482 c 13.888,-2.0575 28.2573,-8.4992 42,-18.8287 l 8,-6.013 0.2408,3.7548 c 0.1325,2.0651 0.5134,7.071 0.8465,11.1241 l 0.6057,7.3692 47.8515,-0.4006 c 26.3184,-0.2203 48.1818,-0.7308 48.5853,-1.1344 0.4036,-0.4036 -0.62,-2.6544 -2.2746,-5.0019 -1.6546,-2.3475 -3.5686,-5.8281 -4.2533,-7.7349 -1.7703,-4.9297 -3.0023,-40.3131 -3.0979,-88.9667 -0.096,-49.1465 -1.4693,-100.5082 -2.9668,-111 -2.3821,-16.6897 -9.7835,-36.3274 -17.7626,-47.1282 -11.6676,-15.7939 -30.2592,-27.3092 -52.7746,-32.6875 -17.5871,-4.2011 -43.1001,-5.9319 -62.504,-4.2403 -13.5206,1.1787 -24.0086,3.213 -56.49602,10.9581 -11.55,2.7536 -24.375,5.5243 -28.5,6.157 -4.125,0.6328 -7.6208,1.2617 -7.7685,1.3976 -0.3708,0.3411 17.008,42.0538 21.9952,52.7933 2.9137,6.2744 4.5748,8.75 5.871,8.75 0.9942,0 6.8915,-2.0823 13.10502,-4.6273 32.0366,-13.1221 60.7439,-16.5147 75.6512,-8.9405 10.4556,5.3125 16.6954,15.2357 19.5356,31.0678 0.888,4.95 1.6137,9.3503 1.6125,9.7783 0,0.4281 -7.7645,0.4808 -17.252,0.1171 -29.4658,-1.1294 -61.533,2.2557 -81.25,8.577 -39.80002,12.76 -66.19962,40.1907 -70.49252,73.2454 -5.35641,41.2443 9.9982,77.2452 41.4804,97.2557 11.7462,7.4661 29.91382,13.8818 44.01212,15.5425 7.9517,0.9366 25.605,0.3561 36,-1.1839 z"
         style="fill:#0000ff;fill-opacity:1"
         inkscape:connector-curvature="0" />
      <path
         id="path4296-7"
         d="m 1048.2444,2601.3433 c -8.7922,-0.8546 -15.7118,-4.0545 -21.4119,-9.9016 -6.4334,-6.5993 -8.5037,-11.84 -8.5037,-21.5256 0,-9.9425 2.265,-15.4446 9.2218,-22.4015 5.5225,-5.5225 12.5203,-9.4192 22.1872,-12.3548 8.2135,-2.4943 43.9896,-3.8326 46.5112,-1.7399 1.247,1.0349 1.4954,5.0196 1.4954,23.988 v 22.7469 l -4.0162,5.0442 c -5.3381,6.7043 -15.5923,13.2535 -24.4838,15.6375 -3.5663,0.9561 -13.8291,1.2038 -21,0.5068 z"
         style="fill:#fffffb;fill-opacity:1"
         inkscape:connector-curvature="0" />
      <path
         id="path4294-9"
         d="m 1362.4513,2664.8278 c 13.2951,-2.2792 28.3411,-9.0853 40.9225,-18.5114 4.3288,-3.2432 8.2081,-5.8975 8.6206,-5.8985 0.4125,0 0.75,4.9482 0.75,10.9982 v 11 h 49.5 c 27.225,0 49.5,-0.2009 49.5,-0.4464 0,-0.2456 -1.5288,-3.0581 -3.3974,-6.25 -4.4037,-7.5227 -5.5622,-12.0812 -6.6578,-26.197 -0.4955,-6.3837 -0.9162,-96.7691 -0.935,-200.8566 l -0.034,-189.25 h -52.4754 -52.4755 l 3.488,5.4525 c 5.8317,9.1166 6.5316,13.5754 7.62,48.5475 1.031,33.1288 0.8402,90.3644 -0.3051,91.5071 -0.3697,0.369 -3.0697,-1.0908 -6,-3.2438 -16.4484,-12.0858 -29.9527,-16.077 -57.3368,-16.9457 -14.8872,-0.4723 -19.5677,-0.2636 -27,1.204 -43.6808,8.6254 -74.0999,44.1657 -85.4837,99.8754 -4.9661,24.303 -6.9353,67.0606 -4.0805,88.603 8.3008,62.6398 46.2878,106.046 98.0733,112.0645 8.3689,0.9726 27.2098,0.1468 37.7069,-1.6528 z"
         style="fill:#0000ff;fill-opacity:1"
         inkscape:connector-curvature="0" />
      <path
         id="path4191-3-2"
         d="m 1357.0497,2595.4267 c -17.5996,-2.6381 -30.1166,-19.0007 -34.3872,-44.952 -1.3062,-7.9375 -1.231,-48.8018 0.1106,-60.0586 1.3954,-11.7088 5.0722,-25.1843 9.4672,-34.6972 12.3924,-26.8229 40.284,-31.6939 71.2523,-12.4435 l 4.2482,2.6407 v 66.7702 66.7701 l -6.75,4.3427 c -14.7405,9.4833 -30.4751,13.6466 -43.9447,11.6276 z"
         style="fill:#fffffb;fill-opacity:1"
         inkscape:connector-curvature="0" />
      <circle
         r="52.884056"
         cy="2203.303"
         cx="510.19083"
         id="path4195-6-0"
         style="opacity:1;vector-effect:none;fill:#0000ff;fill-opacity:1;fill-rule:evenodd;stroke:#fc0000;stroke-width:0.05865792;stroke-linecap:butt;stroke-linejoin:miter;stroke-miterlimit:4;stroke-dasharray:none;stroke-dashoffset:0;stroke-opacity:1" />
    </g>
  </g>
</svg>
