<?xml version="1.0" encoding="UTF-8" standalone="no"?>
<svg
   xmlns:dc="http://purl.org/dc/elements/1.1/"
   xmlns:cc="http://creativecommons.org/ns#"
   xmlns:rdf="http://www.w3.org/1999/02/22-rdf-syntax-ns#"
   xmlns:svg="http://www.w3.org/2000/svg"
   xmlns="http://www.w3.org/2000/svg"
   xmlns:sodipodi="http://sodipodi.sourceforge.net/DTD/sodipodi-0.dtd"
   xmlns:inkscape="http://www.inkscape.org/namespaces/inkscape"
   version="1.1"
   id="Calque_1"
   x="0px"
   y="0px"
   width="40.271992mm"
   height="48.64975mm"
   viewBox="0 0 142.69604 172.38101"
   enable-background="new 0 0 712 860"
   xml:space="preserve"
   inkscape:version="0.91 r13725"
   sodipodi:docname="BaseLedMask.svg"
   inkscape:export-filename="./Tux Mono.png"
   inkscape:export-xdpi="90"
   inkscape:export-ydpi="90"><sodipodi:namedview
     pagecolor="#8f8be8"
     bordercolor="#666666"
     borderopacity="1"
     objecttolerance="10"
     gridtolerance="10"
     guidetolerance="10"
     inkscape:pageopacity="0"
     inkscape:pageshadow="2"
     inkscape:window-width="1325"
     inkscape:window-height="1143"
     id="namedview19"
     showgrid="false"
     inkscape:zoom="2.6101083"
     inkscape:cx="43.350888"
     inkscape:cy="47.074972"
     inkscape:window-x="587"
     inkscape:window-y="31"
     inkscape:window-maximized="0"
     inkscape:current-layer="g4271"
     inkscape:document-units="mm"
     units="mm"
     fit-margin-top="0"
     fit-margin-left="0"
     fit-margin-right="0"
     fit-margin-bottom="0" /><metadata
     id="metadata23"><rdf:RDF><cc:Work
         rdf:about=""><dc:format>image/svg+xml</dc:format><dc:type
           rdf:resource="http://purl.org/dc/dcmitype/StillImage" /><dc:title></dc:title></cc:Work></rdf:RDF></metadata><defs
     id="defs21"><inkscape:path-effect
       is_visible="true"
       id="path-effect29672-0"
       effect="spiro" /><inkscape:path-effect
       is_visible="true"
       id="path-effect29678-1"
       effect="spiro" /><inkscape:path-effect
       is_visible="true"
       id="path-effect29678-4-6"
       effect="spiro" /><inkscape:path-effect
       is_visible="true"
       id="path-effect28714-5"
       effect="spiro" /><inkscape:path-effect
       is_visible="true"
       id="path-effect29721-2"
       effect="spiro" /><inkscape:path-effect
       is_visible="true"
       id="path-effect28463-8-0"
       effect="spiro" /><inkscape:path-effect
       is_visible="true"
       id="path-effect28463-0-7"
       effect="spiro" /><linearGradient
       id="linearGradient28799-5-5"><stop
         id="stop28801-1-9"
         offset="0"
         style="stop-color:#fefefc;stop-opacity:1;" /><stop
         style="stop-color:#fefefc;stop-opacity:1"
         offset="0.75733864"
         id="stop28807-2-6" /><stop
         id="stop28803-6-3"
         offset="1"
         style="stop-color:#d4d4d4;stop-opacity:1" /></linearGradient><inkscape:path-effect
       is_visible="true"
       id="path-effect28797-8-1"
       effect="spiro" /><inkscape:path-effect
       is_visible="true"
       id="path-effect28797-81"
       effect="spiro" /><inkscape:path-effect
       is_visible="true"
       id="path-effect28273-4-2"
       effect="spiro" /><linearGradient
       id="linearGradient28853-5"><stop
         id="stop28855-3"
         offset="0"
         style="stop-color:#020204;stop-opacity:1" /><stop
         style="stop-color:#020204;stop-opacity:1"
         offset="0.73448181"
         id="stop28865-0" /><stop
         id="stop28857-9"
         offset="1"
         style="stop-color:#5c5c5c;stop-opacity:1;" /></linearGradient><inkscape:path-effect
       is_visible="true"
       id="path-effect28851-0"
       effect="spiro" /><inkscape:path-effect
       is_visible="true"
       id="path-effect28881-6"
       effect="spiro" /><linearGradient
       id="linearGradient28935-8"><stop
         id="stop28937-7"
         offset="0"
         style="stop-color:#949494;stop-opacity:0.39215687;" /><stop
         style="stop-color:#949494;stop-opacity:1;"
         offset="0.5"
         id="stop28943-3" /><stop
         id="stop28939-8"
         offset="1"
         style="stop-color:#949494;stop-opacity:0.39215687;" /></linearGradient><linearGradient
       id="linearGradient28976-3"><stop
         id="stop28978-7"
         offset="0"
         style="stop-color:#747474;stop-opacity:1" /><stop
         style="stop-color:#8c8c8c;stop-opacity:1;"
         offset="0.125"
         id="stop29259-5" /><stop
         style="stop-color:#a4a4a4;stop-opacity:1;"
         offset="0.25"
         id="stop29257-0" /><stop
         style="stop-color:#d4d4d4;stop-opacity:1"
         offset="0.5"
         id="stop28984-4" /><stop
         id="stop28986-0"
         offset="0.61919296"
         style="stop-color:#d4d4d4;stop-opacity:1" /><stop
         id="stop28980-2"
         offset="1"
         style="stop-color:#7c7c7c;stop-opacity:1" /></linearGradient><inkscape:path-effect
       is_visible="true"
       id="path-effect28974-8"
       effect="spiro" /><clipPath
       id="clipPath29028-5"
       clipPathUnits="userSpaceOnUse"><path
         sodipodi:nodetypes="aaaaaaaa"
         inkscape:connector-curvature="0"
         inkscape:original-d="m 85.75,122.36218 c -2.54738,2.12715 -5.20812,4.59907 -6.25,7.75 -1.30914,3.95917 -1.63336,8.91703 0.5,12.5 3.91901,6.58194 12.38353,13.85135 19.75,11.75 4.87452,-1.3905 6.10748,-8.51023 7,-13.5 0.59149,-3.30679 0.59578,-7.19325 -1.25,-10 -3.61233,-5.49303 -10.4265,-9.89357 -17,-10 -1.04403,-0.0169 -1.94852,0.83074 -2.75,1.5 z"
         id="path29030-7"
         d="m 85.75,122.36218 c -2.780425,1.91023 -5.110569,4.57487 -6.25,7.75 -1.436029,4.00163 -0.885838,8.48071 0.5,12.5 1.419488,4.11688 3.793788,8.04098 7.37932,10.51234 1.792766,1.23567 3.868091,2.08301 6.030402,2.33859 2.162311,0.25558 4.409274,-0.0949 6.340278,-1.10093 2.35312,-1.22596 4.14782,-3.37278 5.26217,-5.78076 1.11436,-2.40798 1.5888,-5.0701 1.73783,-7.71924 0.18989,-3.37546 -0.14047,-6.80646 -1.25,-10 -1.20527,-3.46909 -3.39005,-6.67055 -6.472754,-8.6666 -1.541351,-0.99803 -3.291947,-1.68356 -5.110883,-1.93515 -1.818936,-0.25158 -3.704766,-0.0633 -5.416363,0.60175 -0.975471,0.37901 -1.887438,0.9074 -2.75,1.5"
         style="fill:url(#radialGradient29032);fill-opacity:1;stroke:none" /></clipPath><linearGradient
       id="linearGradient29336-6"><stop
         id="stop29338-1"
         offset="0"
         style="stop-color:#646464;stop-opacity:0" /><stop
         style="stop-color:#646464;stop-opacity:0.5825243"
         offset="0.30628255"
         id="stop29344-7" /><stop
         id="stop29354-5"
         offset="0.47000006"
         style="stop-color:#646464;stop-opacity:1" /><stop
         style="stop-color:#646464;stop-opacity:0.25728154"
         offset="0.72834015"
         id="stop29356-3" /><stop
         id="stop29340-6"
         offset="1"
         style="stop-color:#646464;stop-opacity:0;" /></linearGradient><inkscape:path-effect
       is_visible="true"
       id="path-effect29455-3"
       effect="spiro" /><linearGradient
       id="linearGradient29477-3"><stop
         id="stop29479-5"
         offset="0"
         style="stop-color:#757574;stop-opacity:0" /><stop
         style="stop-color:#757574;stop-opacity:1;"
         offset="0.26291031"
         id="stop29487-5" /><stop
         style="stop-color:#757574;stop-opacity:1;"
         offset="0.5"
         id="stop29485-0" /><stop
         id="stop29481-3"
         offset="1"
         style="stop-color:#757574;stop-opacity:0" /></linearGradient><linearGradient
       id="linearGradient28469-0"><stop
         style="stop-color:#d2940a;stop-opacity:1"
         offset="0"
         id="stop28479-4" /><stop
         style="stop-color:#d89c08;stop-opacity:1"
         offset="0.75143719"
         id="stop28477-2" /><stop
         id="stop28485-7"
         offset="0.86579126"
         style="stop-color:#b67e07;stop-opacity:1;" /><stop
         id="stop28473-1"
         offset="1"
         style="stop-color:#946106;stop-opacity:1" /></linearGradient><inkscape:path-effect
       is_visible="true"
       id="path-effect28463-4"
       effect="spiro" /><inkscape:path-effect
       is_visible="true"
       id="path-effect28489-4"
       effect="spiro" /><inkscape:path-effect
       is_visible="true"
       id="path-effect28273-54-7"
       effect="spiro" /><linearGradient
       id="linearGradient28275-8"><stop
         id="stop28277-1"
         offset="0"
         style="stop-color:#ad780a;stop-opacity:1" /><stop
         style="stop-color:#d89e08;stop-opacity:1"
         offset="0.11972899"
         id="stop28291-9" /><stop
         style="stop-color:#edb80b;stop-opacity:1"
         offset="0.25514477"
         id="stop28289-6" /><stop
         style="stop-color:#ebc80d;stop-opacity:1"
         offset="0.39194193"
         id="stop28287-6" /><stop
         style="stop-color:#f5d838;stop-opacity:1"
         offset="0.52741116"
         id="stop28285-7" /><stop
         style="stop-color:#f6d811;stop-opacity:1"
         offset="0.76906693"
         id="stop28283-7" /><stop
         id="stop28279-5"
         offset="1"
         style="stop-color:#f5cd31;stop-opacity:1" /></linearGradient><inkscape:path-effect
       is_visible="true"
       id="path-effect28273-44"
       effect="spiro" /><inkscape:path-effect
       is_visible="true"
       id="path-effect28384-7"
       effect="spiro" /><linearGradient
       id="linearGradient29529-6"><stop
         id="stop29531-0"
         offset="0"
         style="stop-color:#3a2903;stop-opacity:1;" /><stop
         style="stop-color:#735208;stop-opacity:1"
         offset="0.55472803"
         id="stop29539-7" /><stop
         id="stop29533-8"
         offset="1"
         style="stop-color:#ac8c04;stop-opacity:1" /></linearGradient><inkscape:path-effect
       is_visible="true"
       id="path-effect29553-7"
       effect="spiro" /><clipPath
       id="clipPath29644-8"
       clipPathUnits="userSpaceOnUse"><path
         sodipodi:nodetypes="zzzzzzz"
         inkscape:connector-curvature="0"
         inkscape:original-d="m 54.232441,122.36218 c -3.79199,4.78949 -8.5176,11.69104 -8.19273,17.25 0.32487,5.55896 3.86025,13.93486 8.37542,16 4.51517,2.06514 5.75436,0.0125 8.32902,-2.5 2.57466,-2.51247 3.85871,-7.34762 4.00585,-12.25 0.14713,-4.90238 -3.03534,-11.91949 -5.43855,-15.25 -2.40321,-3.33051 -3.28702,-8.03949 -7.07901,-3.25 z"
         id="path29646-8"
         d="m 54.232441,122.36218 c -1.780966,0.097 -3.484616,0.91899 -4.787851,2.1367 -1.303235,1.21771 -2.221372,2.81176 -2.786181,4.50357 -1.129618,3.38363 -0.875481,7.05177 -0.618698,10.60973 0.23251,3.22162 0.470404,6.50533 1.676785,9.50158 0.60319,1.49813 1.450247,2.91021 2.580338,4.06395 1.130092,1.15374 2.551736,2.04189 4.118297,2.43447 1.468838,0.36809 3.038161,0.29183 4.482784,-0.16209 1.444623,-0.45391 2.763917,-1.27887 3.846236,-2.33791 1.57904,-1.54507 2.643262,-3.5662 3.253449,-5.68947 0.610186,-2.12328 0.784157,-4.35155 0.752401,-6.56053 -0.03974,-2.76435 -0.400909,-5.53851 -1.265755,-8.16439 -0.864846,-2.62588 -2.245742,-5.10327 -4.172795,-7.08561 -0.933308,-0.96009 -1.997766,-1.80513 -3.198586,-2.39747 -1.200819,-0.59233 -2.54344,-0.92535 -3.880424,-0.85253"
         style="fill:url(#radialGradient29648);fill-opacity:1;stroke:none" /></clipPath><inkscape:path-effect
       is_visible="true"
       id="path-effect29707-7-6"
       effect="spiro" /><clipPath
       clipPathUnits="userSpaceOnUse"
       id="clipPath14656-7"><path
         sodipodi:nodetypes="aaaaassssaaaaaa"
         inkscape:connector-curvature="0"
         d="m 304.84727,225.44951 c 6.01627,4.92338 9.77707,12.317 10.94319,20.00305 1.8254,12.03148 -2.34636,24.07488 -6.44591,35.53273 -0.81749,2.28481 -1.63978,4.59033 -1.96473,6.99513 -0.32495,2.4048 -0.11897,4.94825 1.02948,7.08594 1.30279,2.42497 3.73227,4.12469 6.36677,4.92292 2.58877,0.78438 5.39365,0.76103 8.01466,0.0922 2.62101,-0.66882 5.06097,-1.96774 7.18716,-3.63996 5.48002,-4.30997 8.75799,-10.98552 10.01043,-17.84394 1.25243,-6.85841 0.63908,-13.92879 -0.551,-20.7983 -1.62313,-9.36916 -4.30898,-18.53961 -7.74003,-27.40773 -2.51766,-6.50732 -5.46794,-12.91081 -9.61753,-18.52016 -4.04611,-5.46946 -9.16208,-10.08954 -13.10336,-15.63502 -2.73209,-3.84412 -4.89983,-8.13097 -8.1917,-11.50812 -1.64594,-1.68858 -3.57654,-3.13527 -5.76975,-4.00143 -2.19321,-0.86616 -4.66356,-1.12446 -6.93254,-0.48249 -1.50468,0.42573 -2.89193,1.23739 -4.03791,2.30136 -1.14598,1.06397 -2.05268,2.37637 -2.69275,3.80312 -1.28015,2.85349 -1.47719,6.11241 -0.96512,9.1977 0.66114,3.98343 2.44407,7.69333 4.46569,11.18873 2.27396,3.93169 4.918,7.71926 8.38442,10.65407 3.5985,3.04664 7.96161,5.07413 11.61053,8.0602"
         id="path14658-9"
         inkscape:original-d="m 304.84727,225.44951 c 5.05628,5.63479 9.72833,12.47181 10.94319,20.00305 1.91724,11.88535 -4.97006,23.58228 -6.44591,35.53273 -0.57645,4.66766 -2.84839,9.7988 -0.93525,14.08107 1.10334,2.46967 3.76154,4.35176 6.36677,4.92292 5.08221,1.1142 11.95719,2.41291 15.20182,-3.54776 6.07775,-11.16533 10.5961,-26.78641 9.45943,-38.64224 -0.906,-9.44981 -3.86858,-18.61978 -7.74003,-27.40773 -2.817,-6.39442 -6.14704,-12.5833 -9.61753,-18.52016 -3.44146,-5.88721 -8.20051,-10.94245 -13.10336,-15.63502 -6.34842,-6.07614 -12.40311,-17.98386 -20.89399,-15.99204 -5.48499,1.28669 -7.45029,9.57719 -7.69578,15.30218 -0.17245,4.02188 2.46425,7.71677 4.46569,11.18873 2.26238,3.92465 5.10447,7.56255 8.38442,10.65407 3.43735,3.23988 8.4511,4.53927 11.61053,8.0602 z"
         style="fill:none;stroke:#c17d11;stroke-width:1px;stroke-linecap:butt;stroke-linejoin:miter;stroke-opacity:1" /></clipPath><inkscape:path-effect
       is_visible="true"
       id="path-effect4500-7"
       effect="spiro" /><inkscape:path-effect
       is_visible="true"
       id="path-effect4582-3"
       effect="spiro" /><inkscape:path-effect
       effect="spiro"
       id="path-effect14300-7"
       is_visible="true" /><clipPath
       clipPathUnits="userSpaceOnUse"
       id="clipPath14489-3"><path
         style="fill:url(#linearGradient14493);fill-opacity:1;stroke:none"
         d="m 516.00562,331.8756 c -0.6714,1.71905 -1.62682,3.32679 -2.81579,4.73826 -2.6238,3.11482 -6.268,5.17039 -9.89648,7.01985 -6.1886,3.15437 -12.60169,5.92177 -18.41964,9.71654 -3.89802,2.54249 -7.4959,5.52671 -10.86016,8.74238 -2.87719,2.75012 -5.60582,5.68745 -8.83247,8.01771 -3.25567,2.35122 -7.01915,4.05426 -10.99061,4.6502 -4.83026,0.72481 -9.82134,-0.21289 -14.29898,-2.16416 -3.13754,-1.36728 -6.15569,-3.3229 -7.96301,-6.22931 -1.81425,-2.91754 -2.22807,-6.48813 -2.23266,-9.92375 -0.008,-6.07666 1.11824,-12.09004 2.17848,-18.07349 0.88097,-4.97177 1.71949,-9.95483 2.26013,-14.97502 0.98337,-9.13118 0.9763,-18.35278 0.3199,-27.51327 -0.10993,-1.53416 -0.23754,-3.0832 -0.008,-4.60412 0.22922,-1.52092 0.85475,-3.0367 2.02069,-4.03986 1.07696,-0.9266 2.52093,-1.33598 3.93947,-1.4145 1.41854,-0.0785 2.83404,0.14655 4.23982,0.35197 3.31254,0.48405 6.65159,0.8649 9.88917,1.71656 2.04284,0.53738 4.03315,1.25925 6.0722,1.81081 3.40258,0.92039 6.96639,1.36144 10.46739,0.95192 3.76917,-0.44089 7.42987,-1.85678 11.22363,-1.76474 1.55658,0.0378 3.1015,0.33171 4.58649,0.79985 1.51539,0.47772 3.00914,1.16182 4.12281,2.29512 0.84639,0.8613 1.43579,1.94539 1.87872,3.06879 0.65982,1.67352 1.01492,3.457 1.16703,5.24945 0.13475,1.58788 0.11343,3.19441 0.41433,4.75933 0.49503,2.57458 1.84746,4.92305 3.52848,6.93494 1.68102,2.01189 3.68982,3.72048 5.69641,5.40783 1.99908,1.68103 4.0106,3.35469 6.16708,4.82839 1.0121,0.69165 2.05642,1.33949 3.01736,2.10062 0.96094,0.76113 1.84466,1.6468 2.44543,2.71535 0.81492,1.44944 1.06377,3.2077 0.68307,4.82635 l 2e-5,0"
         id="path14491-6"
         inkscape:connector-curvature="0"
         sodipodi:nodetypes="aaaaaaaaaaaaaaaaaaaaaaaacscaa"
         inkscape:original-d="m 516.00562,331.8756 c 0.90859,1.59687 -1.57016,3.38773 -2.81579,4.73826 -2.74207,2.97299 -6.45099,4.90178 -9.89648,7.01985 -5.91373,3.63539 -12.61918,5.90302 -18.41964,9.71654 -3.88318,2.553 -7.32809,5.72221 -10.86016,8.74238 -3.0221,2.58411 -5.48201,5.87643 -8.83247,8.01771 -3.3519,2.1422 -7.0437,4.15414 -10.99061,4.6502 -4.78298,0.60114 -9.87221,-0.25577 -14.29898,-2.16416 -3.0947,-1.33413 -6.16113,-3.38144 -7.96301,-6.22931 -1.81288,-2.86525 -2.06093,-6.5375 -2.23266,-9.92375 -0.30734,-6.06031 1.36252,-12.0605 2.17848,-18.07349 0.67882,-5.00236 1.85312,-9.94325 2.26013,-14.97502 0.73946,-9.14185 -0.7797,-18.40771 0.3199,-27.51327 0.35468,-2.93704 -0.181,-6.65876 2.01238,-8.64398 2.0384,-1.84494 5.43058,-1.1212 8.17929,-1.06253 3.34492,0.0714 6.63224,0.95108 9.88917,1.71656 2.05612,0.48325 3.99816,1.41138 6.0722,1.81081 3.44031,0.66255 6.96573,1.06623 10.46739,0.95192 3.78516,-0.12356 7.43659,-1.79636 11.22363,-1.76474 1.55185,0.013 3.12359,0.28186 4.58649,0.79985 1.48266,0.52499 2.98786,1.20618 4.12281,2.29512 0.86547,0.83038 1.42933,1.95676 1.87872,3.06879 0.67163,1.66196 0.8942,3.4778 1.16703,5.24945 0.24238,1.57389 -0.1531,3.27141 0.41433,4.75933 1.83023,4.79924 5.57666,8.72712 9.22489,12.34277 1.74278,1.93455 4.03041,3.53404 6.16708,4.82839 2.26886,1.37444 4.3675,2.44991 5.46279,4.81597 0.65901,1.48517 -0.54371,3.76097 0.68307,4.82635 z" /></clipPath><inkscape:path-effect
       effect="spiro"
       id="path-effect14300-2-7"
       is_visible="true" /><clipPath
       clipPathUnits="userSpaceOnUse"
       id="clipPath14481-1"><path
         style="fill:url(#linearGradient14485);fill-opacity:1;stroke:none"
         d="m 516.00562,331.8756 c -0.6714,1.71905 -1.62682,3.32679 -2.81579,4.73826 -2.6238,3.11482 -6.268,5.17039 -9.89648,7.01985 -6.1886,3.15437 -12.60169,5.92177 -18.41964,9.71654 -3.89802,2.54249 -7.4959,5.52671 -10.86016,8.74238 -2.87719,2.75012 -5.60582,5.68745 -8.83247,8.01771 -3.25567,2.35122 -7.01915,4.05426 -10.99061,4.6502 -4.83026,0.72481 -9.82134,-0.21289 -14.29898,-2.16416 -3.13754,-1.36728 -6.15569,-3.3229 -7.96301,-6.22931 -1.81425,-2.91754 -2.22807,-6.48813 -2.23266,-9.92375 -0.008,-6.07666 1.11824,-12.09004 2.17848,-18.07349 0.88097,-4.97177 1.71949,-9.95483 2.26013,-14.97502 0.98337,-9.13118 0.9763,-18.35278 0.3199,-27.51327 -0.10993,-1.53416 -0.23754,-3.0832 -0.008,-4.60412 0.22922,-1.52092 0.85475,-3.0367 2.02069,-4.03986 1.07696,-0.9266 2.52093,-1.33598 3.93947,-1.4145 1.41854,-0.0785 2.83404,0.14655 4.23982,0.35197 3.31254,0.48405 6.65159,0.8649 9.88917,1.71656 2.04284,0.53738 4.03315,1.25925 6.0722,1.81081 3.40258,0.92039 6.96639,1.36144 10.46739,0.95192 3.76917,-0.44089 7.42987,-1.85678 11.22363,-1.76474 1.55658,0.0378 3.1015,0.33171 4.58649,0.79985 1.51539,0.47772 3.00914,1.16182 4.12281,2.29512 0.84639,0.8613 1.43579,1.94539 1.87872,3.06879 0.65982,1.67352 1.01492,3.457 1.16703,5.24945 0.13475,1.58788 0.11343,3.19441 0.41433,4.75933 0.49503,2.57458 1.84746,4.92305 3.52848,6.93494 1.68102,2.01189 3.68982,3.72048 5.69641,5.40783 1.99908,1.68103 4.0106,3.35469 6.16708,4.82839 1.0121,0.69165 2.05642,1.33949 3.01736,2.10062 0.96094,0.76113 1.84466,1.6468 2.44543,2.71535 0.81492,1.44944 1.06377,3.2077 0.68307,4.82635 l 2e-5,0"
         id="path14483-3"
         inkscape:connector-curvature="0"
         sodipodi:nodetypes="aaaaaaaaaaaaaaaaaaaaaaaacscaa"
         inkscape:original-d="m 516.00562,331.8756 c 0.90859,1.59687 -1.57016,3.38773 -2.81579,4.73826 -2.74207,2.97299 -6.45099,4.90178 -9.89648,7.01985 -5.91373,3.63539 -12.61918,5.90302 -18.41964,9.71654 -3.88318,2.553 -7.32809,5.72221 -10.86016,8.74238 -3.0221,2.58411 -5.48201,5.87643 -8.83247,8.01771 -3.3519,2.1422 -7.0437,4.15414 -10.99061,4.6502 -4.78298,0.60114 -9.87221,-0.25577 -14.29898,-2.16416 -3.0947,-1.33413 -6.16113,-3.38144 -7.96301,-6.22931 -1.81288,-2.86525 -2.06093,-6.5375 -2.23266,-9.92375 -0.30734,-6.06031 1.36252,-12.0605 2.17848,-18.07349 0.67882,-5.00236 1.85312,-9.94325 2.26013,-14.97502 0.73946,-9.14185 -0.7797,-18.40771 0.3199,-27.51327 0.35468,-2.93704 -0.181,-6.65876 2.01238,-8.64398 2.0384,-1.84494 5.43058,-1.1212 8.17929,-1.06253 3.34492,0.0714 6.63224,0.95108 9.88917,1.71656 2.05612,0.48325 3.99816,1.41138 6.0722,1.81081 3.44031,0.66255 6.96573,1.06623 10.46739,0.95192 3.78516,-0.12356 7.43659,-1.79636 11.22363,-1.76474 1.55185,0.013 3.12359,0.28186 4.58649,0.79985 1.48266,0.52499 2.98786,1.20618 4.12281,2.29512 0.86547,0.83038 1.42933,1.95676 1.87872,3.06879 0.67163,1.66196 0.8942,3.4778 1.16703,5.24945 0.24238,1.57389 -0.1531,3.27141 0.41433,4.75933 1.83023,4.79924 5.57666,8.72712 9.22489,12.34277 1.74278,1.93455 4.03041,3.53404 6.16708,4.82839 2.26886,1.37444 4.3675,2.44991 5.46279,4.81597 0.65901,1.48517 -0.54371,3.76097 0.68307,4.82635 z" /></clipPath><inkscape:path-effect
       effect="spiro"
       id="path-effect14300-2-2-0"
       is_visible="true" /><clipPath
       clipPathUnits="userSpaceOnUse"
       id="clipPath14473-5"><path
         style="fill:url(#linearGradient14477);fill-opacity:1;stroke:none"
         d="m 511.82669,331.89986 c -0.60617,1.40358 -1.44178,2.70776 -2.46357,3.84504 -2.32524,2.58805 -5.50706,4.22246 -8.65855,5.69652 -5.42045,2.53534 -11.00071,4.7788 -16.11556,7.88485 -3.38301,2.05437 -6.53696,4.47221 -9.50169,7.09434 -2.52461,2.23286 -4.92977,4.6271 -7.72763,6.50627 -2.88313,1.93644 -6.17534,3.29888 -9.61582,3.77358 -4.21817,0.58201 -8.55335,-0.18335 -12.51035,-1.75619 -2.7091,-1.07682 -5.36625,-2.6185 -6.96693,-5.05501 -1.53813,-2.3413 -1.9333,-5.25173 -1.95338,-8.053 -0.0354,-4.93859 0.96501,-9.81816 1.90598,-14.66641 0.78215,-4.02995 1.52682,-8.0717 1.97741,-12.15204 0.81784,-7.40607 0.66114,-14.88536 0.27989,-22.32668 -0.064,-1.24906 -0.13361,-2.5105 0.0789,-3.74301 0.21256,-1.23251 0.73646,-2.45247 1.68171,-3.27147 0.93914,-0.8137 2.20952,-1.15942 3.45104,-1.2115 1.24152,-0.0521 2.47642,0.16381 3.70512,0.34927 2.88969,0.43617 5.81087,0.7091 8.65215,1.39297 1.78651,0.43 3.53091,1.02011 5.31265,1.46945 2.98632,0.75312 6.09645,1.10709 9.15804,0.77247 3.2941,-0.36004 6.50688,-1.50957 9.81969,-1.43207 1.35838,0.0318 2.70755,0.27142 4.01277,0.64907 1.31265,0.3798 2.61744,0.9202 3.6071,1.86246 0.72535,0.69061 1.25006,1.56936 1.64371,2.49029 0.57625,1.34814 0.88626,2.79994 1.02105,4.25986 0.11897,1.28855 0.10468,2.59405 0.36251,3.86214 0.4369,2.14878 1.63966,4.08139 3.11506,5.70353 1.4754,1.62214 3.22406,2.96752 4.9559,4.31247 1.75634,1.36398 3.50975,2.7398 5.39565,3.91818 0.88228,0.55128 1.79349,1.05932 2.63473,1.67142 0.84123,0.61209 1.61878,1.33907 2.14473,2.23668 0.68386,1.16711 0.90229,2.59857 0.59763,3.91652 l 2e-5,0"
         id="path14475-9"
         inkscape:connector-curvature="0"
         sodipodi:nodetypes="aaaaaaaaaaaaaaaaaaaaaaaacscaa"
         inkscape:original-d="m 511.82669,331.89986 c 0.79493,1.29584 -1.37375,2.7491 -2.46357,3.84504 -2.39907,2.41255 -5.64405,3.97773 -8.65855,5.69652 -5.17399,2.95008 -11.04067,4.79023 -16.11556,7.88485 -3.39744,2.07173 -6.41144,4.64351 -9.50169,7.09434 -2.64407,2.09697 -4.79627,4.76865 -7.72763,6.50627 -2.93262,1.73837 -6.16262,3.37103 -9.61582,3.77358 -4.18468,0.48781 -8.63731,-0.20756 -12.51035,-1.75619 -2.70759,-1.08263 -5.39044,-2.744 -6.96693,-5.05501 -1.58611,-2.32511 -1.80313,-5.3051 -1.95338,-8.053 -0.2689,-4.91787 1.19208,-9.78694 1.90598,-14.66641 0.59391,-4.05935 1.62131,-8.06882 1.97741,-12.15204 0.64696,-7.4185 -0.68217,-14.93763 0.27989,-22.32668 0.31031,-2.38337 -0.15836,-5.4035 1.76065,-7.01448 1.78342,-1.49715 4.75128,-0.90984 7.15616,-0.86223 2.92651,0.0579 5.80263,0.77179 8.65215,1.39297 1.79893,0.39215 3.49804,1.14531 5.31265,1.46945 3.00996,0.53765 6.0944,0.86523 9.15804,0.77247 3.31168,-0.10027 6.50636,-1.45773 9.81969,-1.43207 1.35773,0.0105 2.73287,0.22873 4.01277,0.64907 1.2972,0.42602 2.61412,0.9788 3.6071,1.86246 0.75721,0.67384 1.25054,1.58789 1.64371,2.49029 0.58762,1.34866 0.78235,2.82219 1.02105,4.25986 0.21206,1.27719 -0.13395,2.65471 0.36251,3.86214 1.60129,3.89452 4.87908,7.08195 8.07096,10.016 1.52478,1.56986 3.52626,2.86783 5.39565,3.91818 1.98506,1.11534 3.82118,1.98807 4.77946,3.9081 0.57658,1.2052 -0.47569,3.05198 0.59763,3.91652 z" /></clipPath><linearGradient
       id="linearGradient14518-6"><stop
         id="stop14540-0"
         offset="0"
         style="stop-color:#110800;stop-opacity:1;" /><stop
         style="stop-color:#a65a00;stop-opacity:0.80000001;"
         offset="0.59066743"
         id="stop14542-5" /><stop
         style="stop-color:#ff921e;stop-opacity:0;"
         offset="1"
         id="stop14522-4" /></linearGradient><inkscape:path-effect
       is_visible="true"
       id="path-effect29716-0-0"
       effect="spiro" /><inkscape:path-effect
       is_visible="true"
       id="path-effect29716-0-8-3"
       effect="spiro" /><inkscape:path-effect
       is_visible="true"
       id="path-effect29716-6-1"
       effect="spiro" /><clipPath
       clipPathUnits="userSpaceOnUse"
       id="clipPath14822-9"><path
         sodipodi:nodetypes="aaaasssaccaa"
         inkscape:connector-curvature="0"
         d="m 386.1875,285.32775 c -0.40516,-1.10369 -1.11845,-2.08156 -1.9907,-2.86987 -0.87226,-0.78832 -1.90049,-1.39229 -2.98278,-1.85155 -2.16459,-0.91852 -4.52053,-1.26149 -6.83152,-1.69556 -2.17919,-0.40931 -4.34179,-0.90631 -6.52782,-1.27734 -2.27136,-0.38551 -4.6179,-0.63213 -6.8653,-0.1253 -1.96583,0.44333 -3.7845,1.45879 -5.27172,2.81864 -1.48723,1.35984 -2.64911,3.0564 -3.48499,4.89007 -1.47218,3.22952 -1.93451,6.86503 -1.65394,10.40316 0.20882,2.63325 0.87532,5.34594 2.60877,7.33912 1.40065,1.61052 3.38733,2.61526 5.43398,3.22092 3.52502,1.04316 7.36663,0.98822 10.86038,-0.1553 5.76689,-1.93113 10.87568,-5.77387 14.33034,-10.77903 1.13861,-1.64963 2.11217,-3.44809 2.5532,-5.4034 0.33597,-1.48955 0.34831,-3.08112 -0.1779,-4.51456"
         id="path14824-1"
         inkscape:original-d="m 386.1875,285.32775 c -2.36571,-3.81321 -7.59294,-4.9003 -11.805,-6.41698 -2.08672,-0.75138 -4.32322,-1.04333 -6.52782,-1.27734 -2.27612,-0.2416 -4.71593,-0.91505 -6.8653,-0.1253 -3.64566,1.33955 -7.24986,3.80684 -8.75671,7.70871 -1.13743,2.94527 -1.80122,7.05909 -1.65394,10.40316 0.13075,2.96891 0.9633,5.07273 2.60877,7.33912 1.08803,1.49859 3.40096,2.67896 5.43398,3.22092 3.49923,0.93284 7.37483,0.82779 10.86038,-0.1553 5.98587,-2.2615 11.09272,-5.76885 14.33034,-10.77903 1.07459,-1.67639 2.15539,-3.45031 2.5532,-5.4034 0.30053,-1.4755 0.61519,-3.23621 -0.1779,-4.51456 z"
         style="fill:none;stroke:#ce5c00;stroke-width:1px;stroke-linecap:butt;stroke-linejoin:miter;stroke-opacity:1" /></clipPath><clipPath
       clipPathUnits="userSpaceOnUse"
       id="clipPath14822-2-4"><path
         sodipodi:nodetypes="aaaasssaccaa"
         inkscape:connector-curvature="0"
         d="m 386.1875,285.32775 c -0.40516,-1.10369 -1.11845,-2.08156 -1.9907,-2.86987 -0.87226,-0.78832 -1.90049,-1.39229 -2.98278,-1.85155 -2.16459,-0.91852 -4.52053,-1.26149 -6.83152,-1.69556 -2.17919,-0.40931 -4.34179,-0.90631 -6.52782,-1.27734 -2.27136,-0.38551 -4.6179,-0.63213 -6.8653,-0.1253 -1.96583,0.44333 -3.7845,1.45879 -5.27172,2.81864 -1.48723,1.35984 -2.64911,3.0564 -3.48499,4.89007 -1.47218,3.22952 -1.93451,6.86503 -1.65394,10.40316 0.20882,2.63325 0.87532,5.34594 2.60877,7.33912 1.40065,1.61052 3.38733,2.61526 5.43398,3.22092 3.52502,1.04316 7.36663,0.98822 10.86038,-0.1553 5.76689,-1.93113 10.87568,-5.77387 14.33034,-10.77903 1.13861,-1.64963 2.11217,-3.44809 2.5532,-5.4034 0.33597,-1.48955 0.34831,-3.08112 -0.1779,-4.51456"
         id="path14824-6-5"
         inkscape:original-d="m 386.1875,285.32775 c -2.36571,-3.81321 -7.59294,-4.9003 -11.805,-6.41698 -2.08672,-0.75138 -4.32322,-1.04333 -6.52782,-1.27734 -2.27612,-0.2416 -4.71593,-0.91505 -6.8653,-0.1253 -3.64566,1.33955 -7.24986,3.80684 -8.75671,7.70871 -1.13743,2.94527 -1.80122,7.05909 -1.65394,10.40316 0.13075,2.96891 0.9633,5.07273 2.60877,7.33912 1.08803,1.49859 3.40096,2.67896 5.43398,3.22092 3.49923,0.93284 7.37483,0.82779 10.86038,-0.1553 5.98587,-2.2615 11.09272,-5.76885 14.33034,-10.77903 1.07459,-1.67639 2.15539,-3.45031 2.5532,-5.4034 0.30053,-1.4755 0.61519,-3.23621 -0.1779,-4.51456 z"
         style="fill:none;stroke:#ce5c00;stroke-width:1px;stroke-linecap:butt;stroke-linejoin:miter;stroke-opacity:1" /></clipPath><inkscape:path-effect
       effect="spiro"
       id="path-effect14972-2-2"
       is_visible="true" /><inkscape:path-effect
       effect="spiro"
       id="path-effect15017-9"
       is_visible="true" /><clipPath
       clipPathUnits="userSpaceOnUse"
       id="clipPath15031-3"><path
         style="fill:none;stroke:#729fcf;stroke-width:0.125;stroke-linecap:butt;stroke-linejoin:miter;stroke-miterlimit:4;stroke-dasharray:none;stroke-opacity:1"
         d="m 248.06066,184.61218 c -2.60091,3.4397 -5.23338,6.85555 -7.89695,10.24696 -2.83301,3.60715 -5.70116,7.1866 -8.58729,10.75139 -3.54135,4.37407 -7.15155,8.79286 -9.44912,13.93045 -1.97407,4.41422 -2.91014,9.20748 -4.26498,13.84932 -1.53862,5.27153 -3.62627,10.37023 -5.97071,15.33612 -2.1648,4.58539 -4.54978,9.06293 -6.93891,13.53553 -1.73823,3.25407 -3.50515,6.58104 -4.10782,10.22071 -0.47627,2.87632 -0.19849,5.84423 0.53376,8.66626 0.73224,2.82202 1.90964,5.5106 3.23775,8.10601 5.66724,11.07504 14.17003,20.62168 24.24176,27.92472 4.57063,3.31418 9.46669,6.18109 14.60245,8.52595 2.78247,1.27041 5.71355,2.40436 8.77186,2.45744 1.52915,0.0265 3.0741,-0.22544 4.47434,-0.84055 1.40024,-0.6151 2.65068,-1.60373 3.48254,-2.88709 1.02278,-1.5779 1.36992,-3.53829 1.16461,-5.40743 -0.2053,-1.86914 -0.93484,-3.65294 -1.91324,-5.25873 -2.38997,-3.92251 -6.1652,-6.76055 -9.79642,-9.57343 -7.84055,-6.07358 -15.42466,-12.48038 -22.68212,-19.23996 -2.04911,-1.90854 -4.0984,-3.87759 -5.53019,-6.28412 -1.3943,-2.34352 -2.14763,-5.01375 -2.65783,-7.69253 -1.39963,-7.34872 -1.0404,-15.0827 1.45958,-22.13343 0.97802,-2.75834 2.27066,-5.39225 3.51815,-8.03965 2.1622,-4.58855 4.21133,-9.26299 7.04933,-13.46723 3.53268,-5.23334 8.24484,-9.67275 11.15147,-15.27803 2.45457,-4.7335 3.49353,-10.05742 4.36185,-15.31831 0.66531,-4.03089 1.24751,-8.07549 1.74613,-12.13037"
         id="path15033-2"
         inkscape:connector-curvature="0"
         inkscape:original-d="m 248.06066,184.61218 c 0,0 -5.10626,6.34527 -7.89695,10.24696 -2.7907,3.9017 -5.73652,6.64881 -8.58729,10.75139 -2.85076,4.10259 -7.36482,9.43164 -9.44912,13.93045 -2.08429,4.49881 -2.32047,9.0356 -4.26498,13.84932 -1.94451,4.81371 -3.70129,10.64183 -5.97071,15.33612 -2.26943,4.69429 -5.37093,9.68473 -6.93891,13.53553 -1.56799,3.8508 -3.81119,5.72384 -4.10782,10.22071 -0.29663,4.49686 -0.57747,8.31749 3.77151,16.77227 4.34898,8.45478 17.23626,22.00721 24.24176,27.92472 7.00549,5.9175 9.39133,7.22492 14.60245,8.52595 5.21112,1.30104 13.85627,2.9981 16.72874,-1.2702 2.87246,-4.26829 2.27191,-5.96483 -0.74863,-10.66616 -3.02055,-4.70132 -4.82469,-5.30209 -9.79642,-9.57343 -4.97172,-4.27133 -18.63696,-14.87266 -22.68212,-19.23996 -4.04516,-4.36729 -7.10731,-3.41164 -5.53019,-6.28412 1.57712,-2.87249 -2.20738,-4.00856 -2.65783,-7.69253 -0.76361,-6.24511 0.9436,-18.71046 1.45958,-22.13343 0.51598,-3.42296 1.22371,-2.92446 3.51815,-8.03965 2.29444,-5.11519 4.12424,-8.62435 7.04933,-13.46723 2.92509,-4.84289 8.62493,-10.12787 11.15147,-15.27803 2.52654,-5.15017 3.50393,-10.72068 4.36185,-15.31831 0.85792,-4.59763 1.74613,-12.13037 1.74613,-12.13037 z"
         sodipodi:nodetypes="czzzzzzzzzzzzzzzszzzzzc" /></clipPath><clipPath
       clipPathUnits="userSpaceOnUse"
       id="clipPath14186-9"><path
         inkscape:original-d="m 137.57703,281.0191 c 6.32494,-1.3585 11.99755,4.87308 16.86679,9.13228 6.42572,5.62067 -8.54781,26.01622 13.24488,19.8293 5.86081,-1.66388 6.89528,11.31183 10.16415,16.45304 4.09971,6.44793 11.58575,13.6827 13.65231,21.03883 1.58383,5.63779 1.34339,10.90606 -1.62666,15.95302 -3.57124,6.06857 -11.7907,10.42929 -18.78877,11.20919 -5.73056,0.63864 -11.87822,-3.8351 -17.38362,-5.54906 -12.31617,-3.83432 -23.77946,-5.82074 -36.09666,-9.65174 -2.50091,-0.77785 -8.28361,-2.638 -10.96988,-3.42629 -4.51043,-1.3236 -6.46556,-0.99271 -8.72046,-4.76819 -2.68251,-4.49147 0.68051,-9.72669 3.16379,-14.79408 4.06995,-8.30524 1.91195,-17.82603 0.46203,-25.51057 -0.92235,-4.8884 -0.66071,-7.92707 2.7425,-10.79139 4.99476,-4.20385 14.53027,-1.53186 20.35272,-4.08305 5.82246,-2.55119 6.66365,-13.6939 12.93688,-15.04129 z"
         sodipodi:nodetypes="ssssssssssssssss"
         inkscape:connector-curvature="0"
         id="path14188-1"
         d="m 137.57703,281.0191 c 1.59929,-0.66295 3.3982,-0.78361 5.10074,-0.46963 1.70253,0.31398 3.31141,1.04948 4.74342,2.02239 2.86402,1.94583 4.98821,4.77774 7.02263,7.57952 4.67189,6.43406 9.16868,13.00227 13.24488,19.8293 3.30635,5.53766 6.34352,11.25685 10.16415,16.45304 2.49398,3.3919 5.3066,6.53947 7.813,9.92221 2.50639,3.38273 4.72794,7.05586 5.83931,11.11662 1.44411,5.27653 0.88463,11.09291 -1.62666,15.95302 -1.76663,3.41896 -4.47646,6.35228 -7.77242,8.33898 -3.29595,1.9867 -7.17064,3.01444 -11.01635,2.87021 -6.11413,-0.2293 -11.69944,-3.28515 -17.38362,-5.54906 -11.58097,-4.6125 -24.15978,-6.0594 -36.09666,-9.65174 -3.66859,-1.10404 -7.27582,-2.4107 -10.96988,-3.42629 -1.64125,-0.45122 -3.30866,-0.8482 -4.85875,-1.55144 -1.55008,-0.70325 -2.999548,-1.7491 -3.86171,-3.21675 -0.666391,-1.13439 -0.948386,-2.47002 -0.930187,-3.78554 0.0182,-1.31552 0.325889,-2.61453 0.773815,-3.85158 0.895851,-2.47409 2.343262,-4.71374 3.320162,-7.15696 1.59511,-3.98935 1.88169,-8.38839 1.66657,-12.67942 -0.21511,-4.29103 -0.91078,-8.54478 -1.20454,-12.83115 -0.13118,-1.91406 -0.18066,-3.85256 0.18479,-5.73598 0.36545,-1.88343 1.17577,-3.72459 2.55771,-5.05541 1.27406,-1.22693 2.96492,-1.95531 4.69643,-2.31651 1.73151,-0.3612 3.51533,-0.37747 5.28367,-0.33762 1.76833,0.0399 3.54067,0.13425 5.30351,-0.0106 1.76284,-0.14488 3.53347,-0.54055 5.06911,-1.41828 1.45996,-0.83447 2.65433,-2.0745 3.64374,-3.43424 0.9894,-1.35974 1.78909,-2.84573 2.60891,-4.31396 0.81983,-1.46823 1.66834,-2.93151 2.74157,-4.22611 1.07324,-1.2946 2.38923,-2.42304 3.94266,-3.06698"
         style="fill:#402c07;fill-opacity:1;stroke:none" /></clipPath><inkscape:path-effect
       is_visible="true"
       id="path-effect4669-1"
       effect="spiro" /><inkscape:path-effect
       is_visible="true"
       id="path-effect4669-4-3"
       effect="spiro" /></defs><g
     inkscape:groupmode="layer"
     id="layer1"
     inkscape:label="Base"
     transform="translate(-10.334292,-443.27192)"
     style="display:none"><path
       inkscape:connector-curvature="0"
       d="m 147.01068,578.55089 c -0.003,-0.002 -0.004,-0.004 -0.004,-0.006 -1.20803,-1.36351 -1.78351,-3.89146 -2.40235,-6.58466 -0.61725,-2.69119 -1.30777,-5.59334 -3.51725,-7.47438 -0.004,-0.004 -0.0102,-0.01 -0.014,-0.0114 -0.4379,-0.38217 -0.88776,-0.70445 -1.33962,-0.97337 -0.45364,-0.26871 -0.91364,-0.48768 -1.37325,-0.66085 3.07137,-9.10861 1.8671,-18.1792 -1.23413,-26.37437 -3.80388,-10.0601 -10.44623,-18.82415 -15.52007,-24.81958 -5.67894,-7.16388 -11.23271,-13.96348 -11.12302,-24.00765 0.16891,-15.32897 1.68578,-43.75557 -25.289733,-43.79339 -1.096775,-0.002 -2.241322,0.0436 -3.433643,0.13938 -30.144414,2.42645 -22.148501,34.27475 -22.596366,44.93794 -0.551373,7.79887 -2.131846,13.94559 -7.496294,21.56928 -6.299991,7.49229 -15.173722,19.62053 -19.375707,32.2464 -1.982553,5.95761 -2.92606,12.03049 -2.056204,17.7791 -0.272701,0.24484 -0.531468,0.50181 -0.780282,0.76456 -1.849193,1.97659 -3.21668,4.36899 -4.739425,5.97931 -1.423219,1.42145 -3.449567,1.96087 -5.678949,2.75887 -2.229382,0.80038 -4.675729,1.97858 -6.160654,4.82899 0,0 0,0.002 -0.0019,0.002 -0.0019,0.004 -0.0041,0.01 -0.008,0.0146 -0.698673,1.30381 -0.925593,2.7111 -0.925593,4.13828 0,1.31973 0.195072,2.65755 0.392133,3.94522 0.410047,2.67924 0.826066,5.21298 0.274691,6.929 -1.763599,4.82302 -1.990517,8.15714 -0.748434,10.57781 1.246065,2.42445 3.803881,3.49336 6.696103,4.09847 5.784448,1.20627 13.617135,0.90769 19.789735,4.18011 l 0.531467,-1.00124 -0.525497,1.00321 c 6.608522,3.45556 13.308606,4.68191 18.65315,3.46152 3.87753,-0.88359 7.022549,-3.19259 8.638851,-6.74389 4.180088,-0.02 8.768234,-1.79145 16.117227,-2.19532 4.986248,-0.40229 11.21458,1.77135 18.378454,1.37326 0.1871,0.77629 0.45801,1.52474 0.82806,2.23533 0.004,0.006 0.008,0.0146 0.0121,0.02 2.77657,5.55356 7.936,8.09347 13.43601,7.65954 5.50557,-0.43416 11.35969,-3.68048 16.09334,-9.31166 l -0.86787,-0.72852 0.87404,0.72055 c 4.51051,-5.46994 11.99685,-7.73715 16.96319,-10.73088 2.48219,-1.49687 4.49461,-3.37175 4.65185,-6.09497 0.15492,-2.72104 -1.44352,-5.77052 -5.11803,-9.84908 z"
       id="path3"
       style="fill:#202020;fill-opacity:1" /><path
       inkscape:connector-curvature="0"
       d="m 149.86309,588.2706 c -0.0955,1.67979 -1.31174,2.92806 -3.55905,4.28159 -4.4908,2.70911 -12.45089,5.06588 -17.53247,11.22256 -4.41517,5.25298 -9.79753,8.13723 -14.53676,8.51145 -4.73922,0.37423 -8.82796,-1.59239 -11.24046,-6.43136 l -0.004,-0.01 -0.005,-0.013 c -1.49708,-2.84643 -0.87405,-7.33505 0.38595,-12.07228 1.25999,-4.73546 3.07136,-9.60026 3.31422,-13.55146 l 0,-0.0131 c 0.25458,-5.06366 0.53942,-9.48681 1.38917,-12.90055 0.85194,-3.41373 2.19156,-5.72273 4.56446,-7.02253 0.11137,-0.0598 0.22075,-0.11756 0.33023,-0.17119 0.26892,4.38514 2.44058,8.86001 6.27811,9.82719 4.20018,1.10696 10.25335,-2.49609 12.80919,-5.43609 0.51135,-0.02 1.00898,-0.0458 1.49286,-0.0578 2.24333,-0.0539 4.12236,0.0757 6.04522,1.75562 l 0.005,0.005 0.005,0.004 c 1.47697,1.25203 2.17962,3.61675 2.78873,6.26416 0.60928,2.64957 1.09479,5.53362 2.92226,7.58983 l 0.003,0.002 0.003,0.004 c 3.51147,3.89544 4.64011,6.52691 4.54258,8.20889 z"
       id="path5"
       style="fill:#ffffff;fill-opacity:1" /><path
       inkscape:connector-curvature="0"
       d="m 64.519619,600.68745 -0.0019,0.0131 0,0.0146 c -0.406064,5.32262 -3.407766,8.22085 -8.017807,9.27382 -4.60606,1.05299 -10.854298,0.004 -17.092584,-3.25847 -0.0019,0 -0.0041,-0.002 -0.0058,-0.002 -6.903118,-3.65658 -15.114007,-3.29232 -20.382908,-4.39309 -2.633455,-0.54939 -4.353263,-1.37745 -5.141509,-2.91413 -0.788245,-1.53867 -0.806161,-4.21987 0.869857,-8.79212 l 0.008,-0.02 0.0059,-0.02 c 0.830046,-2.55783 0.214975,-5.35649 -0.187109,-7.98397 -0.402085,-2.62531 -0.599147,-5.01593 0.298578,-6.68019 l 0.008,-0.0163 c 1.148529,-2.21345 2.832509,-3.00567 4.922553,-3.75413 2.092033,-0.75042 4.570229,-1.3394 6.526911,-3.30227 l 0.01188,-0.01 0.0099,-0.01 c 1.809381,-1.90891 3.168906,-4.30351 4.759327,-6.0014 1.341611,-1.43318 2.685211,-2.38264 4.709566,-2.39659 0.02388,0.002 0.04577,0.002 0.06968,0 0.354312,0.002 0.730522,0.0317 1.128624,0.0936 2.6872,0.40607 5.03004,2.28493 7.287288,5.34634 l 6.516959,11.87741 0.0019,0.006 0.0041,0.004 c 1.73374,3.62074 5.396294,7.60377 8.499512,11.66642 3.103219,4.06086 5.503785,8.13943 5.191273,11.26056 z"
       id="path7"
       style="fill:#ffffff;fill-opacity:1" /><path
       inkscape:connector-curvature="0"
       d="m 97.0208,489.96287 c -0.523502,-1.02511 -1.592414,-2.00048 -3.411745,-2.74691 l -0.0044,-0.002 -0.0062,-0.002 c -3.783975,-1.62028 -5.426151,-1.73572 -7.538092,-3.10917 -3.437626,-2.20948 -6.278095,-2.98379 -8.638848,-2.97384 -1.236114,0.004 -2.340853,0.22293 -3.330138,0.56531 -2.8763,0.98928 -4.785208,3.05344 -5.98151,4.18606 l -0.0019,0.002 c 0,0.002 -0.0019,0.002 -0.0019,0.004 -0.23488,0.22293 -0.537439,0.42599 -1.26995,0.96342 -0.738481,0.53942 -1.84521,1.35156 -3.437623,2.54586 -1.41526,1.06095 -1.87507,2.44238 -1.385403,4.06068 0.487678,1.61827 2.048244,3.48537 4.902647,5.09971 l 0.0041,0.004 0.0058,0.002 c 1.771559,1.04103 2.981796,2.44432 4.371178,3.56101 0.694692,0.55735 1.425212,1.05498 2.30502,1.4312 0.87981,0.3762 1.906917,0.631 3.192793,0.70663 3.017625,0.17517 5.239044,-0.73051 7.199705,-1.85318 1.964641,-1.12066 3.628515,-2.49213 5.537622,-3.11118 l 0.0044,-0.002 0.0044,-0.002 c 3.913162,-1.22218 6.704073,-3.68446 7.57771,-6.02332 0.437912,-1.17042 0.423982,-2.28113 -0.09753,-3.30625 z"
       id="path9"
       style="fill:#ffffff;fill-opacity:1" /><path
       d="m 87.0921,495.73935 c -3.113322,1.62281 -6.749849,3.59091 -10.619417,3.59091 -3.867578,0 -6.923024,-1.78748 -9.120557,-3.5292 -1.098765,-0.86984 -1.990517,-1.73573 -2.663312,-2.36474 -1.167308,-0.92141 -1.027482,-2.21377 -0.547883,-2.17562 0.803898,0.10046 0.925447,1.1588 1.431673,1.63222 0.68474,0.64093 1.54265,1.47098 2.581702,2.29507 2.078102,1.64616 4.848903,3.24852 8.318377,3.24852 3.463504,0 7.506592,-2.03334 9.974489,-3.41773 1.398182,-0.78431 3.177316,-2.19018 4.629267,-3.25597 1.110852,-0.8154 1.070341,-1.79727 1.987549,-1.6904 0.917199,0.10682 0.238696,1.08681 -1.045769,2.20781 -1.284474,1.12099 -3.29395,2.60837 -4.926119,3.45913 z"
       id="path11"
       inkscape:connector-curvature="0"
       style="fill:#202020;fill-opacity:1"
       sodipodi:nodetypes="sscccccssszzs" /><path
       inkscape:connector-curvature="0"
       style="fill:#ffffff"
       d="m 134.76501,562.17492 c -0.43194,-0.0163 -0.8579,-0.0146 -1.27194,-0.004 -0.0377,0.002 -0.0756,0.002 -0.11539,0.002 1.06891,-3.37593 -1.29582,-5.86607 -7.59781,-8.71649 -6.53486,-2.87411 -11.74206,-2.58966 -12.62187,3.24255 -0.0558,0.30455 -0.10159,0.61707 -0.13534,0.93156 -0.48968,0.17118 -0.97934,0.38616 -1.47299,0.65488 -3.06739,1.68002 -4.74341,4.72549 -5.67498,8.46389 -0.92957,3.73422 -1.19829,8.24672 -1.45306,13.32055 0,0.002 0,0.002 0,0.004 -0.15719,2.55003 -1.20826,6.00141 -2.27119,9.6562 -10.705007,7.63742 -25.562238,10.94565 -38.178147,2.33467 -0.85393,-1.35155 -1.835256,-2.69118 -2.844448,-4.01288 -0.644929,-0.84379 -1.307772,-1.68197 -1.964641,-2.50983 1.293835,0.002 2.394594,-0.21121 3.284355,-0.61309 1.106728,-0.5036 1.88303,-1.30777 2.269191,-2.34305 0.768341,-2.06813 -0.0041,-4.98625 -2.466254,-8.32037 -2.462268,-3.33212 -6.632408,-7.0922 -12.759224,-10.85031 0,0 0,0 0,-0.002 -4.502552,-2.80066 -7.01857,-6.23251 -8.196955,-9.95857 -1.180376,-3.72826 -1.015164,-7.75904 -0.105478,-11.7381 1.743692,-7.6376 6.222361,-15.06623 9.080744,-19.72801 0.768341,-0.56531 0.274692,1.05099 -2.894213,6.93497 -2.838479,5.37856 -8.147192,17.79124 -0.87981,27.48129 0.195072,-6.89535 1.84123,-13.92788 4.606061,-20.50652 4.02682,-9.12653 12.448703,-24.95713 13.117516,-37.57303 0.346351,0.2508 1.530708,1.05099 2.058195,1.35156 0.0019,0.002 0.0019,0.002 0.0041,0.002 1.544642,0.90967 2.705112,2.23933 4.207956,3.44758 1.506823,1.21025 3.387863,2.25526 6.230323,2.42046 0.2727,0.0163 0.53943,0.024 0.800189,0.024 2.930043,0 5.215158,-0.95545 7.118094,-2.04427 2.068346,-1.18236 3.720278,-2.49212 5.28702,-3.00168 0.0018,-0.002 0.0044,-0.002 0.0062,-0.002 3.310225,-1.03508 5.939706,-2.86636 7.436374,-5.00019 2.571752,10.13572 8.551272,24.77598 12.395152,31.91996 2.04427,3.78996 6.10871,11.84359 7.86455,21.54735 1.1127,-0.034 2.33886,0.1275 3.65061,0.46361 4.59212,-11.90529 -3.89346,-24.72623 -7.77498,-28.29723 -1.56652,-1.52075 -1.64216,-2.2015 -0.86387,-2.16968 4.20796,3.72429 9.73542,11.21063 11.74604,19.66236 0.91744,3.85345 1.1127,7.90635 0.12923,11.9053 0.47972,0.19905 0.96938,0.41601 1.46501,0.6511 7.3709,3.5887 10.09593,6.70983 8.78615,10.96954 z"
       id="path13" /><path
       d="m 97.367154,478.2865 c 0.01596,2.00843 -0.330422,3.71829 -1.092797,5.46397 -0.433926,0.99525 -0.933351,1.83126 -1.532497,2.5558 -0.203237,-0.0975 -0.414028,-0.19108 -0.633178,-0.28064 -0.758389,-0.32446 -1.429196,-0.59119 -2.030133,-0.8181 -0.601333,-0.22693 -1.070481,-0.38198 -1.55438,-0.54918 0.350533,-0.42398 1.041044,-0.92359 1.298016,-1.5506 0.390145,-0.94551 0.581232,-1.86912 0.617062,-2.96986 0,-0.0437 0.01402,-0.0817 0.01402,-0.13336 0.02186,-1.05497 -0.117426,-1.95667 -0.425974,-2.88029 -0.322461,-0.96937 -0.732707,-1.66604 -1.325682,-2.2453 -0.595162,-0.57925 -1.18834,-0.84199 -1.900945,-0.86589 -0.03384,-0.002 -0.0657,-0.002 -0.09952,-0.002 -0.668813,0.002 -1.250044,0.23289 -1.85138,0.73449 -0.630994,0.5275 -1.098767,1.20228 -1.48871,2.1418 -0.38815,0.93953 -0.57924,1.87108 -0.617259,2.97781 -0.0058,0.044 -0.0058,0.0817 -0.0058,0.12537 -0.014,0.6091 0.02588,1.16645 0.119432,1.70785 -1.369478,-0.68273 -3.121549,-1.18057 -4.331784,-1.46919 -0.06966,-0.52352 -0.109484,-1.06293 -0.121419,-1.62825 l 0,-0.15323 c -0.0219,-2.00247 0.306541,-3.72029 1.076872,-5.46398 0.77033,-1.74568 1.72379,-2.9997 3.065199,-4.02084 1.343599,-1.01915 2.663514,-1.48692 4.225871,-1.50284 l 0.07364,0 c 1.528719,0 2.836486,0.44985 4.180091,1.42321 1.363505,0.99127 2.346819,2.22938 3.139054,3.96114 0.776295,1.68797 1.150517,3.33809 1.188533,5.29476 -2.02e-4,0.0518 -2.02e-4,0.0956 0.01384,0.1472 z"
       id="path15"
       inkscape:connector-curvature="0"
       style="fill:#ffffff"
       sodipodi:nodetypes="ccccccccccccccccccccccccscccc" /><path
       d="m 74.261217,480.28695 c -0.201044,0.0578 -0.396113,0.11951 -0.589192,0.18511 -1.094786,0.37822 -1.964018,0.79559 -2.804016,1.35095 0.0816,-0.58124 0.09356,-1.17042 0.02986,-1.82927 -0.0058,-0.0358 -0.0058,-0.0658 -0.0058,-0.1016 -0.08758,-0.87384 -0.272701,-1.60634 -0.581232,-2.3468 -0.328435,-0.77035 -0.696681,-1.31376 -1.180377,-1.73178 -0.437914,-0.3782 -0.851942,-0.55336 -1.309762,-0.54937 -0.04577,0 -0.09354,0.002 -0.141332,0.006 -0.513553,0.044 -0.939525,0.2946 -1.343601,0.78625 -0.402083,0.48968 -0.666822,1.09878 -0.857912,1.90693 -0.19109,0.80617 -0.240853,1.59839 -0.16123,2.50805 0,0.0358 0.008,0.0658 0.008,0.1016 0.08758,0.88181 0.264739,1.61433 0.57924,2.3548 0.322466,0.76237 0.696682,1.30579 1.180377,1.72379 0.08161,0.0697 0.161229,0.13335 0.240853,0.18909 -0.501609,0.38816 -0.838633,0.66346 -1.252659,0.96602 -0.264741,0.19308 -0.579243,0.424 -0.945497,0.69471 -0.798198,-0.74844 -1.42123,-1.68797 -1.966633,-2.92807 -0.644928,-1.46501 -0.989287,-2.93202 -1.092795,-4.66378 l 0,-0.0146 c -0.09555,-1.73175 0.07364,-3.22066 0.549383,-4.76131 0.477726,-1.54065 1.114691,-2.65536 2.040282,-3.57099 0.923601,-0.91763 1.855164,-1.37943 2.977815,-1.43715 0.08758,-0.004 0.173174,-0.006 0.258768,-0.006 1.017154,0.002 1.924831,0.34038 2.864356,1.0908 1.019146,0.81414 1.789475,1.85518 2.434405,3.32218 0.646919,1.46703 0.991278,2.93403 1.086823,4.66578 l 0,0.0146 c 0.04577,0.72653 0.03981,1.41127 -0.01792,2.0741 z"
       id="path17"
       inkscape:connector-curvature="0"
       style="fill:#ffffff"
       sodipodi:nodetypes="cccccccccccccccccccccccccccccc" /><path
       sodipodi:nodetypes="aaaaaaa"
       inkscape:connector-curvature="0"
       id="path28396-7"
       d="m 79.368213,484.42916 c 0.128762,0.41328 0.794816,0.34479 1.179639,0.543 0.337674,0.17399 0.60927,0.55515 0.988947,0.56611 0.36236,0.01 0.926306,-0.12553 0.973446,-0.48491 0.06228,-0.47488 -0.631159,-0.77666 -1.077378,-0.95062 -0.574204,-0.22389 -1.309874,-0.33747 -1.848513,-0.0379 -0.123438,0.0687 -0.258149,0.22957 -0.216141,0.36439 z"
       style="opacity:1;fill:#202020;fill-opacity:1;stroke:none" /><path
       style="opacity:1;fill:#202020;fill-opacity:1;stroke:none"
       d="m 75.434082,484.42916 c -0.128746,0.41328 -0.794814,0.34479 -1.179639,0.543 -0.337674,0.17399 -0.60927,0.55515 -0.988947,0.56611 -0.362361,0.01 -0.926306,-0.12553 -0.973445,-0.48491 -0.06228,-0.47488 0.631158,-0.77666 1.077378,-0.95062 0.574204,-0.22389 1.309874,-0.33747 1.848512,-0.0379 0.123422,0.0687 0.258149,0.22957 0.216141,0.36439 z"
       id="path5461"
       inkscape:connector-curvature="0"
       sodipodi:nodetypes="aaaaaaa" /><path
       inkscape:connector-curvature="0"
       d="m 147.08617,578.79625 c -0.002,-0.002 -0.004,-0.004 -0.004,-0.006 -1.20804,-1.36351 -1.7835,-3.89146 -2.40235,-6.58466 -0.61726,-2.69118 -1.30777,-5.59334 -3.51725,-7.47438 -0.004,-0.004 -0.01,-0.01 -0.0146,-0.0114 -0.4379,-0.38217 -0.88775,-0.70445 -1.33961,-0.97337 -0.45365,-0.26871 -0.91365,-0.48768 -1.37325,-0.66084 3.07137,-9.10862 1.8671,-18.17921 -1.23414,-26.37438 -3.80388,-10.0601 -10.44623,-18.82415 -15.52006,-24.81958 -5.67895,-7.16388 -11.2327,-13.96348 -11.12302,-24.00765 0.16889,-15.32897 1.68578,-43.75557 -25.289735,-43.79339 -1.096775,-0.002 -2.24132,0.0436 -3.433657,0.13938 -30.144406,2.42645 -22.148494,34.27475 -22.596359,44.93794 -0.551373,7.79887 -2.131846,13.94559 -7.496293,21.56928 -6.299992,7.49229 -15.173722,19.62053 -19.375707,32.2464 -1.982554,5.95761 -2.92606,12.0305 -2.056205,17.77911 -0.272701,0.24483 -0.531467,0.5018 -0.780282,0.76456 -1.849193,1.97658 -3.216678,4.36899 -4.739423,5.97931 -1.423218,1.42144 -3.449567,1.96087 -5.678949,2.75886 -2.229381,0.80038 -4.675728,1.97858 -6.160655,4.82899 0,0 0,0.002 -0.0019,0.002 -0.0019,0.004 -0.0041,0.01 -0.008,0.0146 -0.698673,1.30381 -0.925593,2.71111 -0.925593,4.13828 0,1.31973 0.195072,2.65756 0.392134,3.94522 0.410046,2.67924 0.826066,5.21298 0.274691,6.929 -1.7636,4.82302 -1.990518,8.15714 -0.748436,10.57781 1.246066,2.42445 3.803883,3.49336 6.696104,4.09847 5.784448,1.20627 13.617133,0.90769 19.789734,4.18012 l 0.531467,-1.00125 -0.525497,1.00321 c 6.608521,3.45556 13.308606,4.68191 18.65315,3.46152 3.877529,-0.88359 7.022549,-3.19259 8.638849,-6.74389 4.18009,-0.02 8.768238,-1.79145 16.117235,-2.19532 4.986242,-0.40229 11.21458,1.77135 18.378447,1.37327 0.18712,0.77628 0.45802,1.52473 0.82806,2.23532 0.005,0.006 0.008,0.0146 0.0114,0.02 2.77657,5.55356 7.936,8.09347 13.436,7.65954 5.50558,-0.43416 11.35969,-3.68048 16.09334,-9.31165 l -0.86787,-0.72853 0.87404,0.72056 c 4.51052,-5.46994 11.99686,-7.73716 16.96319,-10.73089 2.48218,-1.49687 4.49461,-3.37175 4.65184,-6.09496 0.15485,-2.72105 -1.4435,-5.77053 -5.11801,-9.84909 z"
       id="path3-3"
       style="fill:none;fill-opacity:1;stroke:#808000;stroke-width:1.62825096;stroke-opacity:1" /></g><g
     inkscape:groupmode="layer"
     id="g4271"
     inkscape:label="Mask"
     transform="translate(-10.334292,-443.27192)"
     style="display:inline"><path
       inkscape:connector-curvature="0"
       d="m 14.383765,588.51043 c 0.0224,0.39398 0.11051,0.76267 0.263039,1.11393 0.152502,0.35127 0.369446,0.68509 0.64946,1.00936 0.280015,0.32425 0.623117,0.63895 1.027991,0.95194 0.404877,0.313 0.871527,0.62431 1.398637,0.94176 0.570893,0.34441 1.201548,0.68274 1.877145,1.0247 0.675599,0.34194 1.396137,0.68751 2.146809,1.04639 0.750665,0.35888 1.531464,0.73109 2.327571,1.12631 0.796111,0.3952 1.60753,0.81339 2.419446,1.26428 0.686107,0.38105 1.372568,0.78542 2.050442,1.219 0.677877,0.4336 1.347168,0.89635 1.99893,1.39418 0.651762,0.49781 1.285999,1.03069 1.893769,1.60444 0.607771,0.57376 1.189073,1.18841 1.734969,1.84979 0.470262,0.5595 0.952221,1.09036 1.443658,1.59237 0.491442,0.50203 0.992368,0.97522 1.500566,1.41935 0.5082,0.44416 1.023673,0.85927 1.544209,1.24521 0.520534,0.38589 1.046133,0.74256 1.574587,1.06981 0.635278,0.3934 1.274681,0.74432 1.914365,1.05237 0.639683,0.30803 1.279651,0.57326 1.916061,0.79527 0.63641,0.222 1.26926,0.40083 1.894715,0.53614 0.625449,0.1353 1.243506,0.22706 1.850322,0.27499 1.111591,0.0881 2.18504,0.0384 3.205312,-0.15631 1.020269,-0.19453 1.987357,-0.53413 2.886228,-1.02658 0.898873,-0.49243 1.729527,-1.13772 2.476929,-1.94363 0.747399,-0.80591 1.411547,-1.77248 1.977404,-2.90747 l 8.37e-4,-0.002 8.42e-4,-0.002 8.4e-4,-0.004 8.42e-4,-0.002 0.0012,-0.004 0.0012,-0.004 0.0012,-0.004 0.0012,-0.004 c 0.351144,-0.66764 0.577963,-1.43157 0.702211,-2.27136 0.124236,-0.83982 0.145907,-1.75546 0.08677,-2.72655 -0.05917,-0.97109 -0.199164,-1.99763 -0.398258,-3.05916 -0.19909,-1.06154 -0.457275,-2.1581 -0.752806,-3.26922 -0.295536,-1.11071 -0.623399,-2.22901 -0.952517,-3.33962 -0.329121,-1.11057 -0.659498,-2.21345 -0.960051,-3.29334 -0.300556,-1.07992 -0.571288,-2.13678 -0.781122,-3.15541 -0.209835,-1.01864 -0.358771,-1.99896 -0.415732,-2.92572 l 0,-0.004 0,-0.004 0,-0.004 0,-0.004 c -0.05971,-1.18766 -0.121207,-2.3378 -0.192303,-3.44496 -0.07109,-1.10718 -0.151802,-2.17137 -0.24997,-3.18722 -0.04909,-0.5079 -0.102532,-1.00372 -0.161312,-1.48676 -0.05878,-0.48305 -0.122916,-0.95333 -0.193356,-1.41017 -0.07045,-0.45685 -0.102694,-0.90658 -0.142244,-1.34222 -0.03955,-0.43563 -0.08641,-0.85715 -0.18606,-1.25748 -0.04153,-0.29282 -0.08596,-0.576 -0.133582,-0.85096 -0.04763,-0.27496 -0.09846,-0.54169 -0.152844,-0.80162 -0.05438,-0.25994 -0.112317,-0.51307 -0.174145,-0.76079 -0.06182,-0.24773 -0.121158,-0.50917 -0.191102,-0.74754 -0.06993,-0.23837 -0.127281,-0.41133 -0.171839,-0.57927 -0.04457,-0.16793 -0.08268,-0.31177 -0.12689,-0.45371 -0.0442,-0.14198 -0.0945,-0.28201 -0.163389,-0.44243 -0.06889,-0.16038 -0.156376,-0.34117 -0.274963,-0.56449 -0.04673,-0.0879 -0.1229,-0.21282 -0.215472,-0.3544 -0.09258,-0.14149 -0.201561,-0.29989 -0.313919,-0.45491 -0.112365,-0.15501 -0.228092,-0.30671 -0.334168,-0.43504 -0.10608,-0.1283 -0.202492,-0.23324 -0.27622,-0.29475 -0.294906,-0.24596 -0.606889,-0.46884 -0.90941,-0.6988 -0.113131,-0.0744 -0.199819,-0.14525 -0.290023,-0.20196 -0.0902,-0.0567 -0.183982,-0.0988 -0.311125,-0.11756 -0.01942,-0.004 -0.03632,0.002 -0.05106,0.0146 -0.01482,0.0114 -0.02734,0.0302 -0.0382,0.0533 -0.01091,0.0233 -0.01998,0.0515 -0.02775,0.0829 -0.0078,0.0316 -0.01417,0.0665 -0.01971,0.10306 -0.0056,0.0367 -0.01009,0.075 -0.014,0.11366 -0.0041,0.0386 -0.0075,0.0775 -0.01075,0.11511 -0.0033,0.0377 -0.0065,0.0738 -0.0099,0.10698 -0.0034,0.0332 -0.0071,0.0637 -0.01156,0.0894 -0.0086,0.099 -0.01948,0.19738 -0.03211,0.29514 -0.0127,0.0977 -0.02709,0.19492 -0.04305,0.29154 -0.01596,0.0966 -0.03341,0.19266 -0.05203,0.2882 -0.01861,0.0956 -0.0384,0.19062 -0.05901,0.28522 -0.02061,0.0946 -0.04205,0.18876 -0.06401,0.28252 -0.02195,0.0938 -0.04439,0.18712 -0.06701,0.28014 -0.02261,0.093 -0.04541,0.18568 -0.06803,0.27806 -0.02263,0.0923 -0.0451,0.18446 -0.06708,0.2763 -0.07343,0.20108 -0.149018,0.39976 -0.226743,0.59628 -0.07773,0.19651 -0.157598,0.39087 -0.239624,0.58332 -0.08203,0.19243 -0.166202,0.38294 -0.25254,0.57179 -0.08633,0.18883 -0.174832,0.37599 -0.265491,0.56173 -0.09066,0.18573 -0.183481,0.37001 -0.278477,0.55311 -0.09499,0.18312 -0.19216,0.36503 -0.291501,0.54599 -0.09934,0.18095 -0.200861,0.36097 -0.304561,0.54027 -0.103704,0.17932 -0.209584,0.35792 -0.317654,0.53606 -0.221761,0.25476 -0.44694,0.49266 -0.675924,0.71378 -0.228985,0.22114 -0.461776,0.42554 -0.698756,0.61335 -0.236981,0.1878 -0.478153,0.35902 -0.723901,0.51381 -0.245751,0.15485 -0.496076,0.29313 -0.751365,0.41521 -0.255288,0.12211 -0.515539,0.22787 -0.78114,0.31754 -0.265601,0.0897 -0.53655,0.16323 -0.813231,0.22082 -0.276684,0.0577 -0.559103,0.0992 -0.847642,0.12505 -0.288539,0.0259 -0.583197,0.0358 -0.884364,0.0302 -0.188315,-0.0175 -0.374644,-0.0412 -0.559147,-0.0708 -0.184504,-0.0294 -0.367182,-0.0648 -0.548197,-0.10502 -0.181012,-0.0402 -0.360361,-0.0855 -0.538205,-0.13482 -0.177844,-0.0495 -0.354184,-0.10308 -0.52918,-0.16022 -0.174997,-0.0571 -0.348649,-0.11789 -0.521118,-0.18126 -0.172471,-0.0633 -0.343759,-0.12961 -0.514023,-0.19781 -0.170265,-0.0682 -0.339508,-0.1384 -0.507891,-0.20994 -0.16838,-0.0715 -0.335901,-0.14426 -0.50272,-0.21763 -0.03457,-0.0166 -0.06909,-0.0332 -0.10354,-0.05 -0.03447,-0.0168 -0.06889,-0.0337 -0.103248,-0.0506 -0.03437,-0.0169 -0.06868,-0.0342 -0.102939,-0.0515 -0.03426,-0.0173 -0.06847,-0.0346 -0.102611,-0.0521 -0.03415,-0.0175 -0.06824,-0.035 -0.102271,-0.0527 -0.03403,-0.0175 -0.06801,-0.0355 -0.101928,-0.0533 -0.03392,-0.0179 -0.06777,-0.0358 -0.101554,-0.0539 -0.03379,-0.0181 -0.06751,-0.0361 -0.101163,-0.0546 -0.164764,-0.0853 -0.326818,-0.17382 -0.486429,-0.26536 -0.159601,-0.0915 -0.316773,-0.18607 -0.47175,-0.2832 -0.154977,-0.0972 -0.307768,-0.19687 -0.458632,-0.29886 -0.150857,-0.10193 -0.299803,-0.20625 -0.447075,-0.3124 -0.147275,-0.10616 -0.292881,-0.21419 -0.437081,-0.32377 -0.144198,-0.10958 -0.286994,-0.2207 -0.428642,-0.33302 -0.141642,-0.11234 -0.282148,-0.22577 -0.421762,-0.34007 -0.139623,-0.11431 -0.278347,-0.22942 -0.41645,-0.34501 -0.04883,-0.0412 -0.09657,-0.0834 -0.143368,-0.12603 -0.0468,-0.0427 -0.09266,-0.086 -0.137734,-0.12977 -0.04509,-0.0438 -0.08939,-0.0879 -0.133077,-0.13253 -0.04368,-0.0444 -0.08675,-0.0892 -0.129364,-0.13417 -0.04261,-0.045 -0.08477,-0.0899 -0.126629,-0.13466 -0.04186,-0.045 -0.08341,-0.0897 -0.124854,-0.13417 -0.04142,-0.0444 -0.08272,-0.0887 -0.124024,-0.13254 -0.04131,-0.0438 -0.08265,-0.0871 -0.124171,-0.12994 -0.197744,-0.008 -0.393549,-0.0169 -0.584991,-0.025 -0.191442,-0.008 -0.378518,-0.0163 -0.558806,-0.0238 -0.59685,-0.0378 -1.196125,-0.006 -1.777182,0.002 -0.519178,0.008 -0.964663,0.12636 -1.428154,0.19914 -0.464667,0.11073 -0.919926,0.27195 -1.371777,0.50418 -0.451851,0.23225 -0.900288,0.53538 -1.351297,0.9294 l -0.0013,8.8e-4 -0.0013,8.8e-4 -0.0013,8.8e-4 -0.0013,8.8e-4 -0.0013,7.7e-4 -0.0013,7.9e-4 -0.0013,7.5e-4 -0.0013,7.5e-4 c -0.346425,0.2937 -0.647446,0.6526 -0.913044,1.06459 -0.265596,0.41198 -0.495769,0.87704 -0.700496,1.38304 -0.204728,0.50596 -0.38401,1.05284 -0.547827,1.62849 -0.163816,0.57564 -0.312171,1.18 -0.455035,1.80096 -0.142912,0.62146 -0.27856,1.25668 -0.42844,1.89006 -0.149881,0.63339 -0.31399,1.26498 -0.513813,1.87913 -0.199825,0.61416 -0.435363,1.21093 -0.72811,1.77473 -0.292743,0.5638 -0.642688,1.09463 -1.071327,1.57691 l -5.34e-4,3.9e-4 -5.36e-4,3.8e-4 -5.34e-4,3.9e-4 -5.34e-4,3.8e-4 -5.36e-4,7.4e-4 -5.34e-4,7.8e-4 -5.34e-4,7.9e-4 -5.36e-4,7.4e-4 c -0.823623,0.9137 -1.507518,1.75326 -2.068644,2.5233 -0.561131,0.77005 -0.999491,1.47061 -1.332039,2.10626 -0.332548,0.63567 -0.559284,1.20643 -0.697164,1.71691 -0.13788,0.51046 -0.186904,0.96065 -0.164031,1.35516 l 3.3e-4,8.8e-4 3.28e-4,8.8e-4 3.27e-4,8.8e-4 3.27e-4,8.9e-4"
       id="path4273"
       style="fill:#800080;fill-opacity:1"
       sodipodi:nodetypes="cssscssssssscssssssssssscccccccccssscssscccccssssscsssssssssssscssssssssscssssssscssssssscssssssscssssssscssssssscssssssscssssssscscccscccccccccssscssscccccccccsssccccc" /><path
       inkscape:connector-curvature="0"
       d="m 98.86137,600.26837 4.76e-4,0.004 4.68e-4,0.004 4.67e-4,0.004 4.67e-4,0.004 0,0.004 0,0.004 0,0.004 0,0.004 c 0.09739,1.27643 0.350374,2.40751 0.744186,3.40191 0.393816,0.99442 0.928446,1.85216 1.589096,2.58191 0.66066,0.72974 1.44733,1.33152 2.34523,1.81397 0.89789,0.48244 1.90701,0.84559 3.01255,1.0981 0.6065,0.13873 1.24268,0.23929 1.90445,0.30167 0.66176,0.0623 1.3491,0.0865 2.05793,0.0719 0.70883,-0.0146 1.43915,-0.0675 2.18684,-0.15925 0.7477,-0.0918 1.51278,-0.22247 2.29115,-0.39219 0.63924,-0.13938 1.28744,-0.30516 1.94232,-0.49743 0.6549,-0.19229 1.31647,-0.41108 1.98247,-0.65654 0.666,-0.24544 1.33641,-0.51756 2.00898,-0.81649 0.67257,-0.29893 1.34729,-0.62468 2.02188,-0.97741 4.7e-4,0 8.9e-4,-10e-5 0.002,-2.5e-4 4.8e-4,-1.4e-4 8.8e-4,-3.2e-4 0.002,-5.4e-4 4.8e-4,-1.9e-4 8.8e-4,-3.8e-4 0.002,-5.2e-4 4.7e-4,-1.5e-4 8.9e-4,-2.5e-4 0.002,-2.5e-4 0.76488,-0.40516 1.5465,-0.75885 2.33856,-1.0692 0.79207,-0.31033 1.5946,-0.57734 2.4013,-0.80907 0.80669,-0.23175 1.61757,-0.42828 2.42632,-0.59766 0.80877,-0.16938 1.61541,-0.31162 2.41367,-0.43485 0.92943,-0.14361 1.8475,-0.26117 2.74426,-0.36588 0.89676,-0.10471 1.77223,-0.19642 2.61649,-0.28796 0.84425,-0.0915 1.6573,-0.1829 2.42921,-0.28686 0.77192,-0.10406 1.50271,-0.22057 2.18245,-0.36259 0.63153,-0.13172 1.20829,-0.2802 1.73,-0.4518 0.52171,-0.17162 0.98838,-0.36637 1.39974,-0.59073 0.41136,-0.22436 0.7674,-0.47832 1.06786,-0.76829 0.30047,-0.28999 0.54534,-0.61603 0.73438,-0.98454 0.18903,-0.36899 0.33187,-0.80649 0.4147,-1.32369 0.0828,-0.51721 0.10561,-1.11412 0.0545,-1.802 -0.0511,-0.68786 -0.17602,-1.46665 -0.38868,-2.34759 -0.21266,-0.88096 -0.51304,-1.86406 -0.91496,-2.96054 l -0.002,-0.005 -0.002,-0.005 -0.002,-0.005 -0.002,-0.005 -0.002,-0.005 -0.002,-0.005 -0.002,-0.005 -0.002,-0.005 c -0.19905,-0.61341 -0.31147,-1.24125 -0.3621,-1.87734 -0.0506,-0.63609 -0.0395,-1.28046 0.009,-1.9269 0.0481,-0.64647 0.13312,-1.29499 0.23022,-1.93945 0.0971,-0.64445 0.20631,-1.28482 0.30273,-1.91492 0.0964,-0.62958 0.18056,-1.24509 0.23907,-1.83916 0.0585,-0.59407 0.0914,-1.1667 0.0853,-1.71053 -0.006,-0.54381 -0.0511,-1.05881 -0.14848,-1.53767 -0.0973,-0.47884 -0.247,-0.92149 -0.46228,-1.32059 l -0.002,-0.005 -0.002,-0.004 -0.002,-0.005 -0.002,-0.004 c -0.27542,-0.53081 -0.58296,-0.97643 -0.92065,-1.35747 -0.3377,-0.38103 -0.70555,-0.69753 -1.10163,-0.97008 -0.39609,-0.27257 -0.82039,-0.50123 -1.27098,-0.70661 -0.45059,-0.20539 -0.92746,-0.38749 -1.42868,-0.567 -0.50169,-0.17995 -1.02654,-0.35023 -1.56093,-0.53385 -0.53439,-0.1836 -1.07833,-0.38055 -1.61822,-0.61385 -0.53989,-0.23328 -1.07571,-0.50293 -1.59387,-0.83191 -0.51816,-0.329 -1.01867,-0.71736 -1.48791,-1.18807 l -0.003,-0.002 -0.003,-0.002 -0.003,-0.002 -0.003,-0.004 -0.003,-0.002 -0.003,-0.002 -0.003,-0.004 -0.003,-0.002 c -0.43391,-0.45777 -0.84085,-0.94468 -1.23102,-1.44298 -0.39018,-0.49829 -0.76358,-1.00798 -1.13042,-1.51134 -0.36684,-0.50338 -0.72713,-1.00041 -1.09104,-1.4734 -0.36393,-0.473 -0.73148,-0.92196 -1.11288,-1.32912 -0.32174,-0.34369 -0.64359,-0.65837 -0.97574,-0.93731 -0.33214,-0.2789 -0.67458,-0.52205 -1.03749,-0.72267 -0.3629,-0.2006 -0.74628,-0.35865 -1.16029,-0.4674 -0.8163,-0.24903 -1.42145,-0.14997 -2.21112,-0.12017 -0.76176,0.0625 -1.53441,0.38547 -2.15768,0.59161 -0.60701,0.26961 -1.19726,0.6232 -1.77462,1.05636 -0.57735,0.43317 -1.14181,0.94593 -1.69727,1.53396 -0.55546,0.58803 -1.10191,1.25128 -1.64322,1.98546 l -1.56284,2.84833 -1.56285,2.84835 -1.56285,2.84835 -1.56283,2.84835 -4.8e-4,0.002 -4.7e-4,0.002 -4.6e-4,0.002 -4.7e-4,0.002 -8.8e-4,7.9e-4 -8.9e-4,7.7e-4 -8.8e-4,7.9e-4 -8.8e-4,7.8e-4 c -0.41577,0.8683 -0.94718,1.75831 -1.55694,2.66581 -0.60975,0.90751 -1.29785,1.83249 -2.027,2.77071 -0.72915,0.93822 -1.49935,1.88973 -2.27332,2.85022 -0.77396,0.96048 -1.55168,1.92997 -2.29588,2.90424 -0.74418,0.97384 -1.44625,1.94874 -2.07605,2.91009 -0.62981,0.96135 -1.18735,1.90916 -1.64251,2.82878 -0.455144,0.91963 -0.807907,1.81109 -1.028141,2.65977 -0.220244,0.84866 -0.307958,1.65456 -0.23301,2.40304 l 6.2e-5,-4.3e-4 6.2e-5,-4.2e-4 6.1e-5,-4.2e-4 6.2e-5,-4.4e-4"
       id="path4275"
       style="fill:#800080;fill-opacity:1"
       sodipodi:nodetypes="cccccccccssscssssssscssscssssssscssscssscccccccccssscssscccccssscssscccccccccssscsscccsscccccccccccccssscsssccccc" /><path
       style="fill:#800080;fill-opacity:1"
       d="m 84.807651,481.34458 c 0.297845,7.9e-4 0.588222,0.013 0.870478,0.04 0.282254,0.0254 0.557358,0.063 0.8245,0.1104 0.267148,0.0473 0.526009,0.10518 0.778527,0.17164 0.252518,0.0663 0.497247,0.1415 0.735616,0.22375 0.693046,0.23837 1.329196,0.54202 1.909529,0.87969 0.580341,0.33764 1.106276,0.70852 1.58157,1.08499 0.475302,0.37653 0.900192,0.75773 1.278135,1.11265 0.377934,0.3549 0.707897,0.68339 0.996142,0.9563 l 0.0035,0.004 0,0.004 0.0035,0 c 0.0566,0.0536 0.116765,0.10567 0.186979,0.16234 0.07018,0.0567 0.150496,0.11658 0.245202,0.18697 0.09471,0.0703 0.203933,0.15061 0.33409,0.24521 0.130157,0.0946 0.280195,0.20458 0.456691,0.33407 0.177941,0.12994 0.376681,0.27692 0.600751,0.44139 0.224069,0.16433 0.47413,0.34634 0.74788,0.54865 0.273741,0.20228 0.57111,0.42481 0.898059,0.66819 0.326957,0.24336 0.682946,0.50607 1.066637,0.79383 0.341011,0.25564 0.623031,0.53152 0.849022,0.8245 0.225992,0.29299 0.394588,0.60396 0.505737,0.93177 0.111157,0.32785 0.16596,0.67281 0.162451,1.03295 -0.0035,0.36011 -0.06595,0.73494 -0.183901,1.12489 -0.117532,0.38991 -0.29856,0.79527 -0.548647,1.20761 -0.250095,0.41235 -0.566975,0.83395 -0.9563,1.25361 -0.389333,0.41966 -0.850186,0.83866 -1.385404,1.25054 -0.535228,0.41186 -1.14514,0.8156 -1.832909,1.20457 l -0.0035,0 0,0.004 -0.0035,0 -0.0035,0 c -0.426865,0.25084 -0.821929,0.52447 -1.192307,0.80919 -0.370387,0.28469 -0.718177,0.58061 -1.054383,0.87969 -0.336214,0.29899 -0.659548,0.60116 -0.983887,0.89496 -0.324338,0.29382 -0.649109,0.57996 -0.983877,0.84904 -0.167389,0.13433 -0.335395,0.26617 -0.508805,0.39231 -0.173411,0.12603 -0.350471,0.24855 -0.533324,0.36472 -0.182852,0.11627 -0.37132,0.22667 -0.567036,0.33108 -0.195711,0.10421 -0.40102,0.2005 -0.613009,0.29116 -0.211992,0.0909 -0.430638,0.1731 -0.662053,0.24826 -0.231414,0.0754 -0.475291,0.14442 -0.729486,0.20229 -0.254196,0.0579 -0.519642,0.10519 -0.799979,0.14411 -0.280334,0.0389 -0.575977,0.0675 -0.885803,0.0858 -0.727102,0.0425 -1.405158,0.0198 -2.044398,-0.055 -0.639236,-0.0752 -1.237814,-0.20164 -1.80532,-0.36782 -0.567504,-0.16618 -1.103385,-0.37248 -1.615287,-0.6038 -0.511896,-0.23138 -0.998803,-0.48657 -1.471227,-0.7571 -0.473382,-0.27001 -0.930841,-0.55773 -1.376213,-0.84289 -0.445371,-0.28511 -0.88111,-0.56981 -1.31491,-0.83982 -0.4338,-0.27005 -0.863973,-0.52319 -1.302651,-0.74785 -0.438679,-0.22473 -0.885562,-0.42097 -1.345561,-0.57011 l -0.0033,0 -0.0033,0 0,-0.004 c -0.942878,-0.29449 -1.818794,-0.66168 -2.614498,-1.08502 -0.795701,-0.42333 -1.511764,-0.90185 -2.136345,-1.41301 -0.624579,-0.51113 -1.158187,-1.05738 -1.587701,-1.61526 -0.429514,-0.5579 -0.75499,-1.12836 -0.965494,-1.6919 -0.10551,-0.28206 -0.185772,-0.55931 -0.23601,-0.83375 -0.05023,-0.27439 -0.07109,-0.54616 -0.06438,-0.81221 0.0069,-0.26608 0.04195,-0.52774 0.107286,-0.78465 0.06534,-0.25692 0.159389,-0.50701 0.285048,-0.75402 l 0.0033,0 c 0.12614,-0.247 0.283216,-0.49117 0.478149,-0.72949 0.194937,-0.23828 0.425865,-0.47154 0.695768,-0.69575 0.269907,-0.22423 0.580735,-0.43892 0.931779,-0.64367 0.35105,-0.20474 0.741678,-0.39944 1.180049,-0.57929 l 0.0033,0 0.0033,0 0,-0.004 0.0033,0 c 0.911749,-0.3904 1.694634,-0.69025 2.387681,-0.94097 0.693044,-0.25071 1.298301,-0.45248 1.851295,-0.64674 0.552998,-0.19423 1.056252,-0.37978 1.547856,-0.60076 0.491607,-0.22098 0.971552,-0.47821 1.480425,-0.80917 0.828296,-0.53234 1.620363,-0.97627 2.378485,-1.34555 0.758127,-0.36928 1.481644,-0.66309 2.173129,-0.88887 0.691484,-0.22578 1.351642,-0.38545 1.980028,-0.48735 0.628388,-0.10193 1.224236,-0.14638 1.793062,-0.14394 z"
       id="path4277"
       inkscape:connector-curvature="0"
       sodipodi:nodetypes="cccccccsccccccccccccsscccsccccccccccccccccsccscccccccccccscsccccccccccccscccccccc" /></g></svg>