G04 #@! TF.GenerationSoftware,KiCad,Pcbnew,5.0.0-rc2-unknown-6090f90~65~ubuntu18.04.1*
G04 #@! TF.CreationDate,2018-05-28T20:14:59-06:00*
G04 #@! TF.ProjectId,wemos-01,77656D6F732D30312E6B696361645F70,rev?*
G04 #@! TF.SameCoordinates,Original*
G04 #@! TF.FileFunction,Legend,Top*
G04 #@! TF.FilePolarity,Positive*
%FSLAX46Y46*%
G04 Gerber Fmt 4.6, Leading zero omitted, Abs format (unit mm)*
G04 Created by KiCad (PCBNEW 5.0.0-rc2-unknown-6090f90~65~ubuntu18.04.1) date Mon May 28 20:14:59 2018*
%MOMM*%
%LPD*%
G01*
G04 APERTURE LIST*
%ADD10C,0.200000*%
%ADD11C,0.300000*%
%ADD12C,0.250000*%
%ADD13C,0.100000*%
%ADD14C,0.150000*%
G04 APERTURE END LIST*
D10*
X131401142Y-107857857D02*
X131001142Y-107286428D01*
X130715428Y-107857857D02*
X130715428Y-106657857D01*
X131172571Y-106657857D01*
X131286857Y-106715000D01*
X131344000Y-106772142D01*
X131401142Y-106886428D01*
X131401142Y-107057857D01*
X131344000Y-107172142D01*
X131286857Y-107229285D01*
X131172571Y-107286428D01*
X130715428Y-107286428D01*
X132086857Y-107857857D02*
X131972571Y-107800714D01*
X131915428Y-107743571D01*
X131858285Y-107629285D01*
X131858285Y-107286428D01*
X131915428Y-107172142D01*
X131972571Y-107115000D01*
X132086857Y-107057857D01*
X132258285Y-107057857D01*
X132372571Y-107115000D01*
X132429714Y-107172142D01*
X132486857Y-107286428D01*
X132486857Y-107629285D01*
X132429714Y-107743571D01*
X132372571Y-107800714D01*
X132258285Y-107857857D01*
X132086857Y-107857857D01*
X133001142Y-107857857D02*
X133001142Y-106657857D01*
X133001142Y-107115000D02*
X133115428Y-107057857D01*
X133344000Y-107057857D01*
X133458285Y-107115000D01*
X133515428Y-107172142D01*
X133572571Y-107286428D01*
X133572571Y-107629285D01*
X133515428Y-107743571D01*
X133458285Y-107800714D01*
X133344000Y-107857857D01*
X133115428Y-107857857D01*
X133001142Y-107800714D01*
X134258285Y-107857857D02*
X134144000Y-107800714D01*
X134086857Y-107743571D01*
X134029714Y-107629285D01*
X134029714Y-107286428D01*
X134086857Y-107172142D01*
X134144000Y-107115000D01*
X134258285Y-107057857D01*
X134429714Y-107057857D01*
X134544000Y-107115000D01*
X134601142Y-107172142D01*
X134658285Y-107286428D01*
X134658285Y-107629285D01*
X134601142Y-107743571D01*
X134544000Y-107800714D01*
X134429714Y-107857857D01*
X134258285Y-107857857D01*
X135001142Y-107057857D02*
X135458285Y-107057857D01*
X135172571Y-106657857D02*
X135172571Y-107686428D01*
X135229714Y-107800714D01*
X135344000Y-107857857D01*
X135458285Y-107857857D01*
X136715428Y-107800714D02*
X136886857Y-107857857D01*
X137172571Y-107857857D01*
X137286857Y-107800714D01*
X137344000Y-107743571D01*
X137401142Y-107629285D01*
X137401142Y-107515000D01*
X137344000Y-107400714D01*
X137286857Y-107343571D01*
X137172571Y-107286428D01*
X136944000Y-107229285D01*
X136829714Y-107172142D01*
X136772571Y-107115000D01*
X136715428Y-107000714D01*
X136715428Y-106886428D01*
X136772571Y-106772142D01*
X136829714Y-106715000D01*
X136944000Y-106657857D01*
X137229714Y-106657857D01*
X137401142Y-106715000D01*
X137744000Y-107057857D02*
X138201142Y-107057857D01*
X137915428Y-106657857D02*
X137915428Y-107686428D01*
X137972571Y-107800714D01*
X138086857Y-107857857D01*
X138201142Y-107857857D01*
X138486857Y-107057857D02*
X138772571Y-107857857D01*
X139058285Y-107057857D02*
X138772571Y-107857857D01*
X138658285Y-108143571D01*
X138601142Y-108200714D01*
X138486857Y-108257857D01*
X139686857Y-107857857D02*
X139572571Y-107800714D01*
X139515428Y-107686428D01*
X139515428Y-106657857D01*
X140601142Y-107800714D02*
X140486857Y-107857857D01*
X140258285Y-107857857D01*
X140144000Y-107800714D01*
X140086857Y-107686428D01*
X140086857Y-107229285D01*
X140144000Y-107115000D01*
X140258285Y-107057857D01*
X140486857Y-107057857D01*
X140601142Y-107115000D01*
X140658285Y-107229285D01*
X140658285Y-107343571D01*
X140086857Y-107457857D01*
X141115428Y-107800714D02*
X141229714Y-107857857D01*
X141458285Y-107857857D01*
X141572571Y-107800714D01*
X141629714Y-107686428D01*
X141629714Y-107629285D01*
X141572571Y-107515000D01*
X141458285Y-107457857D01*
X141286857Y-107457857D01*
X141172571Y-107400714D01*
X141115428Y-107286428D01*
X141115428Y-107229285D01*
X141172571Y-107115000D01*
X141286857Y-107057857D01*
X141458285Y-107057857D01*
X141572571Y-107115000D01*
D11*
X133661123Y-73454371D02*
X133732904Y-73383297D01*
X133876113Y-73312576D01*
X134233252Y-73314344D01*
X134375754Y-73386479D01*
X134446828Y-73458261D01*
X134517548Y-73601470D01*
X134516841Y-73744325D01*
X134444353Y-73958254D01*
X133582977Y-74811144D01*
X134511537Y-74815740D01*
X135876089Y-73322477D02*
X135161812Y-73318941D01*
X135086848Y-74032865D01*
X135158630Y-73961790D01*
X135301839Y-73891070D01*
X135658977Y-73892838D01*
X135801479Y-73964973D01*
X135872553Y-74036754D01*
X135943273Y-74179963D01*
X135941505Y-74537102D01*
X135869370Y-74679603D01*
X135797589Y-74750678D01*
X135654380Y-74821398D01*
X135297242Y-74819630D01*
X135154740Y-74747495D01*
X135083666Y-74675714D01*
X136583647Y-74683140D02*
X136654722Y-74754921D01*
X136582940Y-74825995D01*
X136511866Y-74754214D01*
X136583647Y-74683140D01*
X136582940Y-74825995D01*
X137947492Y-73332732D02*
X137661781Y-73331317D01*
X137518572Y-73402038D01*
X137446791Y-73473112D01*
X137302875Y-73686688D01*
X137230033Y-73972045D01*
X137227204Y-74543467D01*
X137297924Y-74686676D01*
X137368999Y-74758457D01*
X137511500Y-74830592D01*
X137797211Y-74832006D01*
X137940420Y-74761286D01*
X138012201Y-74690212D01*
X138084336Y-74547710D01*
X138086104Y-74190571D01*
X138015384Y-74047362D01*
X137944310Y-73975581D01*
X137801808Y-73903446D01*
X137516097Y-73902032D01*
X137372888Y-73972752D01*
X137301107Y-74043826D01*
X137228972Y-74186328D01*
X139447474Y-73340157D02*
X138733197Y-73336621D01*
X138658233Y-74050545D01*
X138730014Y-73979471D01*
X138873223Y-73908750D01*
X139230362Y-73910518D01*
X139372864Y-73982653D01*
X139443938Y-74054434D01*
X139514658Y-74197643D01*
X139512890Y-74554782D01*
X139440755Y-74697284D01*
X139368974Y-74768358D01*
X139225765Y-74839078D01*
X138868627Y-74837310D01*
X138726125Y-74765175D01*
X138655051Y-74693394D01*
X140802125Y-73846870D02*
X140797174Y-74846857D01*
X140447815Y-73273680D02*
X140085373Y-74343328D01*
X141013933Y-74347924D01*
X142725722Y-74856405D02*
X142730673Y-73856417D01*
X142729965Y-73999272D02*
X142801747Y-73928198D01*
X142944956Y-73857478D01*
X143159239Y-73858539D01*
X143301741Y-73930673D01*
X143372461Y-74073882D01*
X143368571Y-74859587D01*
X143372461Y-74073882D02*
X143444596Y-73931381D01*
X143587805Y-73860660D01*
X143802088Y-73861721D01*
X143944590Y-73933856D01*
X144015310Y-74077065D01*
X144011421Y-74862770D01*
X144725698Y-74866306D02*
X144730648Y-73866318D01*
X144729941Y-74009173D02*
X144801722Y-73938099D01*
X144944931Y-73867379D01*
X145159214Y-73868439D01*
X145301716Y-73940574D01*
X145372437Y-74083783D01*
X145368547Y-74869488D01*
X145372437Y-74083783D02*
X145444571Y-73941282D01*
X145587780Y-73870561D01*
X145802063Y-73871622D01*
X145944565Y-73943757D01*
X146015286Y-74086966D01*
X146011396Y-74872670D01*
X152688578Y-76327172D02*
X127034578Y-76200172D01*
X152654000Y-83312000D02*
X152691481Y-75740758D01*
X127000000Y-83185000D02*
X127037481Y-75613758D01*
X127034578Y-76200172D02*
X128163971Y-75619335D01*
X127034578Y-76200172D02*
X128158165Y-76792162D01*
X152688578Y-76327172D02*
X151564991Y-75735182D01*
X152688578Y-76327172D02*
X151559185Y-76908009D01*
X116966571Y-103567714D02*
X116966571Y-102639142D01*
X117538000Y-103139142D01*
X117538000Y-102924857D01*
X117609428Y-102782000D01*
X117680857Y-102710571D01*
X117823714Y-102639142D01*
X118180857Y-102639142D01*
X118323714Y-102710571D01*
X118395142Y-102782000D01*
X118466571Y-102924857D01*
X118466571Y-103353428D01*
X118395142Y-103496285D01*
X118323714Y-103567714D01*
X117466571Y-101353428D02*
X118466571Y-101353428D01*
X116895142Y-101710571D02*
X117966571Y-102067714D01*
X117966571Y-101139142D01*
X118323714Y-100567714D02*
X118395142Y-100496285D01*
X118466571Y-100567714D01*
X118395142Y-100639142D01*
X118323714Y-100567714D01*
X118466571Y-100567714D01*
X117109428Y-99924857D02*
X117038000Y-99853428D01*
X116966571Y-99710571D01*
X116966571Y-99353428D01*
X117038000Y-99210571D01*
X117109428Y-99139142D01*
X117252285Y-99067714D01*
X117395142Y-99067714D01*
X117609428Y-99139142D01*
X118466571Y-99996285D01*
X118466571Y-99067714D01*
X118466571Y-98353428D02*
X118466571Y-98067714D01*
X118395142Y-97924857D01*
X118323714Y-97853428D01*
X118109428Y-97710571D01*
X117823714Y-97639142D01*
X117252285Y-97639142D01*
X117109428Y-97710571D01*
X117038000Y-97782000D01*
X116966571Y-97924857D01*
X116966571Y-98210571D01*
X117038000Y-98353428D01*
X117109428Y-98424857D01*
X117252285Y-98496285D01*
X117609428Y-98496285D01*
X117752285Y-98424857D01*
X117823714Y-98353428D01*
X117895142Y-98210571D01*
X117895142Y-97924857D01*
X117823714Y-97782000D01*
X117752285Y-97710571D01*
X117609428Y-97639142D01*
X116966571Y-96710571D02*
X116966571Y-96567714D01*
X117038000Y-96424857D01*
X117109428Y-96353428D01*
X117252285Y-96282000D01*
X117538000Y-96210571D01*
X117895142Y-96210571D01*
X118180857Y-96282000D01*
X118323714Y-96353428D01*
X118395142Y-96424857D01*
X118466571Y-96567714D01*
X118466571Y-96710571D01*
X118395142Y-96853428D01*
X118323714Y-96924857D01*
X118180857Y-96996285D01*
X117895142Y-97067714D01*
X117538000Y-97067714D01*
X117252285Y-96996285D01*
X117109428Y-96924857D01*
X117038000Y-96853428D01*
X116966571Y-96710571D01*
X118466571Y-94424857D02*
X117466571Y-94424857D01*
X117609428Y-94424857D02*
X117538000Y-94353428D01*
X117466571Y-94210571D01*
X117466571Y-93996285D01*
X117538000Y-93853428D01*
X117680857Y-93782000D01*
X118466571Y-93782000D01*
X117680857Y-93782000D02*
X117538000Y-93710571D01*
X117466571Y-93567714D01*
X117466571Y-93353428D01*
X117538000Y-93210571D01*
X117680857Y-93139142D01*
X118466571Y-93139142D01*
X118466571Y-92424857D02*
X117466571Y-92424857D01*
X117609428Y-92424857D02*
X117538000Y-92353428D01*
X117466571Y-92210571D01*
X117466571Y-91996285D01*
X117538000Y-91853428D01*
X117680857Y-91782000D01*
X118466571Y-91782000D01*
X117680857Y-91782000D02*
X117538000Y-91710571D01*
X117466571Y-91567714D01*
X117466571Y-91353428D01*
X117538000Y-91210571D01*
X117680857Y-91139142D01*
X118466571Y-91139142D01*
X119888000Y-114427000D02*
X119888000Y-80137000D01*
X128905000Y-114427000D02*
X119301579Y-114427000D01*
X128905000Y-80137000D02*
X119301579Y-80137000D01*
X119888000Y-80137000D02*
X120474421Y-81263504D01*
X119888000Y-80137000D02*
X119301579Y-81263504D01*
X119888000Y-114427000D02*
X120474421Y-113300496D01*
X119888000Y-114427000D02*
X119301579Y-113300496D01*
D12*
X150915714Y-108618400D02*
X150820476Y-108570780D01*
X150677619Y-108570780D01*
X150534761Y-108618400D01*
X150439523Y-108713638D01*
X150391904Y-108808876D01*
X150344285Y-108999352D01*
X150344285Y-109142209D01*
X150391904Y-109332685D01*
X150439523Y-109427923D01*
X150534761Y-109523161D01*
X150677619Y-109570780D01*
X150772857Y-109570780D01*
X150915714Y-109523161D01*
X150963333Y-109475542D01*
X150963333Y-109142209D01*
X150772857Y-109142209D01*
X151868095Y-108570780D02*
X151391904Y-108570780D01*
X151344285Y-109046971D01*
X151391904Y-108999352D01*
X151487142Y-108951733D01*
X151725238Y-108951733D01*
X151820476Y-108999352D01*
X151868095Y-109046971D01*
X151915714Y-109142209D01*
X151915714Y-109380304D01*
X151868095Y-109475542D01*
X151820476Y-109523161D01*
X151725238Y-109570780D01*
X151487142Y-109570780D01*
X151391904Y-109523161D01*
X151344285Y-109475542D01*
X148451914Y-108593000D02*
X148356676Y-108545380D01*
X148213819Y-108545380D01*
X148070961Y-108593000D01*
X147975723Y-108688238D01*
X147928104Y-108783476D01*
X147880485Y-108973952D01*
X147880485Y-109116809D01*
X147928104Y-109307285D01*
X147975723Y-109402523D01*
X148070961Y-109497761D01*
X148213819Y-109545380D01*
X148309057Y-109545380D01*
X148451914Y-109497761D01*
X148499533Y-109450142D01*
X148499533Y-109116809D01*
X148309057Y-109116809D01*
X149356676Y-108878714D02*
X149356676Y-109545380D01*
X149118580Y-108497761D02*
X148880485Y-109212047D01*
X149499533Y-109212047D01*
X145810314Y-108618400D02*
X145715076Y-108570780D01*
X145572219Y-108570780D01*
X145429361Y-108618400D01*
X145334123Y-108713638D01*
X145286504Y-108808876D01*
X145238885Y-108999352D01*
X145238885Y-109142209D01*
X145286504Y-109332685D01*
X145334123Y-109427923D01*
X145429361Y-109523161D01*
X145572219Y-109570780D01*
X145667457Y-109570780D01*
X145810314Y-109523161D01*
X145857933Y-109475542D01*
X145857933Y-109142209D01*
X145667457Y-109142209D01*
X146191266Y-108570780D02*
X146810314Y-108570780D01*
X146476980Y-108951733D01*
X146619838Y-108951733D01*
X146715076Y-108999352D01*
X146762695Y-109046971D01*
X146810314Y-109142209D01*
X146810314Y-109380304D01*
X146762695Y-109475542D01*
X146715076Y-109523161D01*
X146619838Y-109570780D01*
X146334123Y-109570780D01*
X146238885Y-109523161D01*
X146191266Y-109475542D01*
X143371914Y-108618400D02*
X143276676Y-108570780D01*
X143133819Y-108570780D01*
X142990961Y-108618400D01*
X142895723Y-108713638D01*
X142848104Y-108808876D01*
X142800485Y-108999352D01*
X142800485Y-109142209D01*
X142848104Y-109332685D01*
X142895723Y-109427923D01*
X142990961Y-109523161D01*
X143133819Y-109570780D01*
X143229057Y-109570780D01*
X143371914Y-109523161D01*
X143419533Y-109475542D01*
X143419533Y-109142209D01*
X143229057Y-109142209D01*
X143800485Y-108666019D02*
X143848104Y-108618400D01*
X143943342Y-108570780D01*
X144181438Y-108570780D01*
X144276676Y-108618400D01*
X144324295Y-108666019D01*
X144371914Y-108761257D01*
X144371914Y-108856495D01*
X144324295Y-108999352D01*
X143752866Y-109570780D01*
X144371914Y-109570780D01*
D10*
X147574142Y-86907666D02*
X148050333Y-86907666D01*
X147478904Y-87193380D02*
X147812238Y-86193380D01*
X148145571Y-87193380D01*
X148478904Y-87193380D02*
X148478904Y-86193380D01*
X149050333Y-87193380D01*
X149050333Y-86193380D01*
X149383666Y-86193380D02*
X149955095Y-86193380D01*
X149669380Y-87193380D02*
X149669380Y-86193380D01*
D13*
G04 #@! TO.C,U1*
X147439000Y-103497000D02*
X147439000Y-101377000D01*
X147439000Y-103497000D02*
X147269000Y-103497000D01*
X131199000Y-89377000D02*
X131199000Y-87257000D01*
X131199000Y-87257000D02*
X131369000Y-87257000D01*
G04 #@! TO.C,C1*
D14*
X134834333Y-81256142D02*
X134786714Y-81303761D01*
X134643857Y-81351380D01*
X134548619Y-81351380D01*
X134405761Y-81303761D01*
X134310523Y-81208523D01*
X134262904Y-81113285D01*
X134215285Y-80922809D01*
X134215285Y-80779952D01*
X134262904Y-80589476D01*
X134310523Y-80494238D01*
X134405761Y-80399000D01*
X134548619Y-80351380D01*
X134643857Y-80351380D01*
X134786714Y-80399000D01*
X134834333Y-80446619D01*
X135786714Y-81351380D02*
X135215285Y-81351380D01*
X135501000Y-81351380D02*
X135501000Y-80351380D01*
X135405761Y-80494238D01*
X135310523Y-80589476D01*
X135215285Y-80637095D01*
G04 #@! TO.C,C2*
X138136333Y-81256142D02*
X138088714Y-81303761D01*
X137945857Y-81351380D01*
X137850619Y-81351380D01*
X137707761Y-81303761D01*
X137612523Y-81208523D01*
X137564904Y-81113285D01*
X137517285Y-80922809D01*
X137517285Y-80779952D01*
X137564904Y-80589476D01*
X137612523Y-80494238D01*
X137707761Y-80399000D01*
X137850619Y-80351380D01*
X137945857Y-80351380D01*
X138088714Y-80399000D01*
X138136333Y-80446619D01*
X138517285Y-80446619D02*
X138564904Y-80399000D01*
X138660142Y-80351380D01*
X138898238Y-80351380D01*
X138993476Y-80399000D01*
X139041095Y-80446619D01*
X139088714Y-80541857D01*
X139088714Y-80637095D01*
X139041095Y-80779952D01*
X138469666Y-81351380D01*
X139088714Y-81351380D01*
G04 #@! TD*
M02*
