G04 #@! TF.GenerationSoftware,KiCad,Pcbnew,5.1.5-52549c5~84~ubuntu18.04.1*
G04 #@! TF.CreationDate,2019-12-24T12:24:14-07:00*
G04 #@! TF.ProjectId,001,3030312e-6b69-4636-9164-5f7063625858,rev?*
G04 #@! TF.SameCoordinates,Original*
G04 #@! TF.FileFunction,Soldermask,Top*
G04 #@! TF.FilePolarity,Negative*
%FSLAX46Y46*%
G04 Gerber Fmt 4.6, Leading zero omitted, Abs format (unit mm)*
G04 Created by KiCad (PCBNEW 5.1.5-52549c5~84~ubuntu18.04.1) date 2019-12-24 12:24:14*
%MOMM*%
%LPD*%
G04 APERTURE LIST*
%ADD10C,0.100000*%
G04 APERTURE END LIST*
D10*
G36*
X160903900Y-114040600D02*
G01*
X159276900Y-114040600D01*
X159276900Y-113238600D01*
X160903900Y-113238600D01*
X160903900Y-114040600D01*
G37*
G36*
X155479900Y-114040600D02*
G01*
X153852900Y-114040600D01*
X153852900Y-113238600D01*
X155479900Y-113238600D01*
X155479900Y-114040600D01*
G37*
G36*
X166483512Y-112133927D02*
G01*
X166632812Y-112163624D01*
X166796784Y-112231544D01*
X166944354Y-112330147D01*
X167069853Y-112455646D01*
X167168456Y-112603216D01*
X167236376Y-112767188D01*
X167271000Y-112941259D01*
X167271000Y-113118741D01*
X167236376Y-113292812D01*
X167168456Y-113456784D01*
X167069853Y-113604354D01*
X166944354Y-113729853D01*
X166796784Y-113828456D01*
X166632812Y-113896376D01*
X166483512Y-113926073D01*
X166458742Y-113931000D01*
X166281258Y-113931000D01*
X166256488Y-113926073D01*
X166107188Y-113896376D01*
X165943216Y-113828456D01*
X165795646Y-113729853D01*
X165670147Y-113604354D01*
X165571544Y-113456784D01*
X165503624Y-113292812D01*
X165469000Y-113118741D01*
X165469000Y-112941259D01*
X165503624Y-112767188D01*
X165571544Y-112603216D01*
X165670147Y-112455646D01*
X165795646Y-112330147D01*
X165943216Y-112231544D01*
X166107188Y-112163624D01*
X166256488Y-112133927D01*
X166281258Y-112129000D01*
X166458742Y-112129000D01*
X166483512Y-112133927D01*
G37*
G36*
X148703512Y-112133927D02*
G01*
X148852812Y-112163624D01*
X149016784Y-112231544D01*
X149164354Y-112330147D01*
X149289853Y-112455646D01*
X149388456Y-112603216D01*
X149456376Y-112767188D01*
X149491000Y-112941259D01*
X149491000Y-113118741D01*
X149456376Y-113292812D01*
X149388456Y-113456784D01*
X149289853Y-113604354D01*
X149164354Y-113729853D01*
X149016784Y-113828456D01*
X148852812Y-113896376D01*
X148703512Y-113926073D01*
X148678742Y-113931000D01*
X148501258Y-113931000D01*
X148476488Y-113926073D01*
X148327188Y-113896376D01*
X148163216Y-113828456D01*
X148015646Y-113729853D01*
X147890147Y-113604354D01*
X147791544Y-113456784D01*
X147723624Y-113292812D01*
X147689000Y-113118741D01*
X147689000Y-112941259D01*
X147723624Y-112767188D01*
X147791544Y-112603216D01*
X147890147Y-112455646D01*
X148015646Y-112330147D01*
X148163216Y-112231544D01*
X148327188Y-112163624D01*
X148476488Y-112133927D01*
X148501258Y-112129000D01*
X148678742Y-112129000D01*
X148703512Y-112133927D01*
G37*
G36*
X155479900Y-112770600D02*
G01*
X153852900Y-112770600D01*
X153852900Y-111968600D01*
X155479900Y-111968600D01*
X155479900Y-112770600D01*
G37*
G36*
X160903900Y-112770600D02*
G01*
X159276900Y-112770600D01*
X159276900Y-111968600D01*
X160903900Y-111968600D01*
X160903900Y-112770600D01*
G37*
G36*
X163386362Y-110151381D02*
G01*
X163421281Y-110161974D01*
X163453463Y-110179176D01*
X163481673Y-110202327D01*
X163504824Y-110230537D01*
X163522026Y-110262719D01*
X163532619Y-110297638D01*
X163536800Y-110340095D01*
X163536800Y-111481305D01*
X163532619Y-111523762D01*
X163522026Y-111558681D01*
X163504824Y-111590863D01*
X163481673Y-111619073D01*
X163453463Y-111642224D01*
X163421281Y-111659426D01*
X163386362Y-111670019D01*
X163343905Y-111674200D01*
X161877695Y-111674200D01*
X161835238Y-111670019D01*
X161800319Y-111659426D01*
X161768137Y-111642224D01*
X161739927Y-111619073D01*
X161716776Y-111590863D01*
X161699574Y-111558681D01*
X161688981Y-111523762D01*
X161684800Y-111481305D01*
X161684800Y-110340095D01*
X161688981Y-110297638D01*
X161699574Y-110262719D01*
X161716776Y-110230537D01*
X161739927Y-110202327D01*
X161768137Y-110179176D01*
X161800319Y-110161974D01*
X161835238Y-110151381D01*
X161877695Y-110147200D01*
X163343905Y-110147200D01*
X163386362Y-110151381D01*
G37*
G36*
X160903900Y-111500600D02*
G01*
X159276900Y-111500600D01*
X159276900Y-110698600D01*
X160903900Y-110698600D01*
X160903900Y-111500600D01*
G37*
G36*
X155479900Y-111500600D02*
G01*
X153852900Y-111500600D01*
X153852900Y-110698600D01*
X155479900Y-110698600D01*
X155479900Y-111500600D01*
G37*
G36*
X166483512Y-109593927D02*
G01*
X166632812Y-109623624D01*
X166796784Y-109691544D01*
X166944354Y-109790147D01*
X167069853Y-109915646D01*
X167168456Y-110063216D01*
X167236376Y-110227188D01*
X167271000Y-110401259D01*
X167271000Y-110578741D01*
X167236376Y-110752812D01*
X167168456Y-110916784D01*
X167069853Y-111064354D01*
X166944354Y-111189853D01*
X166796784Y-111288456D01*
X166632812Y-111356376D01*
X166483512Y-111386073D01*
X166458742Y-111391000D01*
X166281258Y-111391000D01*
X166256488Y-111386073D01*
X166107188Y-111356376D01*
X165943216Y-111288456D01*
X165795646Y-111189853D01*
X165670147Y-111064354D01*
X165571544Y-110916784D01*
X165503624Y-110752812D01*
X165469000Y-110578741D01*
X165469000Y-110401259D01*
X165503624Y-110227188D01*
X165571544Y-110063216D01*
X165670147Y-109915646D01*
X165795646Y-109790147D01*
X165943216Y-109691544D01*
X166107188Y-109623624D01*
X166256488Y-109593927D01*
X166281258Y-109589000D01*
X166458742Y-109589000D01*
X166483512Y-109593927D01*
G37*
G36*
X148703512Y-109593927D02*
G01*
X148852812Y-109623624D01*
X149016784Y-109691544D01*
X149164354Y-109790147D01*
X149289853Y-109915646D01*
X149388456Y-110063216D01*
X149456376Y-110227188D01*
X149491000Y-110401259D01*
X149491000Y-110578741D01*
X149456376Y-110752812D01*
X149388456Y-110916784D01*
X149289853Y-111064354D01*
X149164354Y-111189853D01*
X149016784Y-111288456D01*
X148852812Y-111356376D01*
X148703512Y-111386073D01*
X148678742Y-111391000D01*
X148501258Y-111391000D01*
X148476488Y-111386073D01*
X148327188Y-111356376D01*
X148163216Y-111288456D01*
X148015646Y-111189853D01*
X147890147Y-111064354D01*
X147791544Y-110916784D01*
X147723624Y-110752812D01*
X147689000Y-110578741D01*
X147689000Y-110401259D01*
X147723624Y-110227188D01*
X147791544Y-110063216D01*
X147890147Y-109915646D01*
X148015646Y-109790147D01*
X148163216Y-109691544D01*
X148327188Y-109623624D01*
X148476488Y-109593927D01*
X148501258Y-109589000D01*
X148678742Y-109589000D01*
X148703512Y-109593927D01*
G37*
G36*
X155479900Y-110230600D02*
G01*
X153852900Y-110230600D01*
X153852900Y-109428600D01*
X155479900Y-109428600D01*
X155479900Y-110230600D01*
G37*
G36*
X160903900Y-110230600D02*
G01*
X159276900Y-110230600D01*
X159276900Y-109428600D01*
X160903900Y-109428600D01*
X160903900Y-110230600D01*
G37*
G36*
X155479900Y-108960600D02*
G01*
X153852900Y-108960600D01*
X153852900Y-108158600D01*
X155479900Y-108158600D01*
X155479900Y-108960600D01*
G37*
G36*
X160903900Y-108960600D02*
G01*
X159276900Y-108960600D01*
X159276900Y-108158600D01*
X160903900Y-108158600D01*
X160903900Y-108960600D01*
G37*
G36*
X166483512Y-107053927D02*
G01*
X166632812Y-107083624D01*
X166796784Y-107151544D01*
X166944354Y-107250147D01*
X167069853Y-107375646D01*
X167168456Y-107523216D01*
X167236376Y-107687188D01*
X167271000Y-107861259D01*
X167271000Y-108038741D01*
X167236376Y-108212812D01*
X167168456Y-108376784D01*
X167069853Y-108524354D01*
X166944354Y-108649853D01*
X166796784Y-108748456D01*
X166632812Y-108816376D01*
X166483512Y-108846073D01*
X166458742Y-108851000D01*
X166281258Y-108851000D01*
X166256488Y-108846073D01*
X166107188Y-108816376D01*
X165943216Y-108748456D01*
X165795646Y-108649853D01*
X165670147Y-108524354D01*
X165571544Y-108376784D01*
X165503624Y-108212812D01*
X165469000Y-108038741D01*
X165469000Y-107861259D01*
X165503624Y-107687188D01*
X165571544Y-107523216D01*
X165670147Y-107375646D01*
X165795646Y-107250147D01*
X165943216Y-107151544D01*
X166107188Y-107083624D01*
X166256488Y-107053927D01*
X166281258Y-107049000D01*
X166458742Y-107049000D01*
X166483512Y-107053927D01*
G37*
G36*
X148703512Y-107053927D02*
G01*
X148852812Y-107083624D01*
X149016784Y-107151544D01*
X149164354Y-107250147D01*
X149289853Y-107375646D01*
X149388456Y-107523216D01*
X149456376Y-107687188D01*
X149491000Y-107861259D01*
X149491000Y-108038741D01*
X149456376Y-108212812D01*
X149388456Y-108376784D01*
X149289853Y-108524354D01*
X149164354Y-108649853D01*
X149016784Y-108748456D01*
X148852812Y-108816376D01*
X148703512Y-108846073D01*
X148678742Y-108851000D01*
X148501258Y-108851000D01*
X148476488Y-108846073D01*
X148327188Y-108816376D01*
X148163216Y-108748456D01*
X148015646Y-108649853D01*
X147890147Y-108524354D01*
X147791544Y-108376784D01*
X147723624Y-108212812D01*
X147689000Y-108038741D01*
X147689000Y-107861259D01*
X147723624Y-107687188D01*
X147791544Y-107523216D01*
X147890147Y-107375646D01*
X148015646Y-107250147D01*
X148163216Y-107151544D01*
X148327188Y-107083624D01*
X148476488Y-107053927D01*
X148501258Y-107049000D01*
X148678742Y-107049000D01*
X148703512Y-107053927D01*
G37*
G36*
X163386362Y-107176381D02*
G01*
X163421281Y-107186974D01*
X163453463Y-107204176D01*
X163481673Y-107227327D01*
X163504824Y-107255537D01*
X163522026Y-107287719D01*
X163532619Y-107322638D01*
X163536800Y-107365095D01*
X163536800Y-108506305D01*
X163532619Y-108548762D01*
X163522026Y-108583681D01*
X163504824Y-108615863D01*
X163481673Y-108644073D01*
X163453463Y-108667224D01*
X163421281Y-108684426D01*
X163386362Y-108695019D01*
X163343905Y-108699200D01*
X161877695Y-108699200D01*
X161835238Y-108695019D01*
X161800319Y-108684426D01*
X161768137Y-108667224D01*
X161739927Y-108644073D01*
X161716776Y-108615863D01*
X161699574Y-108583681D01*
X161688981Y-108548762D01*
X161684800Y-108506305D01*
X161684800Y-107365095D01*
X161688981Y-107322638D01*
X161699574Y-107287719D01*
X161716776Y-107255537D01*
X161739927Y-107227327D01*
X161768137Y-107204176D01*
X161800319Y-107186974D01*
X161835238Y-107176381D01*
X161877695Y-107172200D01*
X163343905Y-107172200D01*
X163386362Y-107176381D01*
G37*
G36*
X155479900Y-107690600D02*
G01*
X153852900Y-107690600D01*
X153852900Y-106888600D01*
X155479900Y-106888600D01*
X155479900Y-107690600D01*
G37*
G36*
X160903900Y-107690600D02*
G01*
X159276900Y-107690600D01*
X159276900Y-106888600D01*
X160903900Y-106888600D01*
X160903900Y-107690600D01*
G37*
G36*
X160903900Y-106420600D02*
G01*
X159276900Y-106420600D01*
X159276900Y-105618600D01*
X160903900Y-105618600D01*
X160903900Y-106420600D01*
G37*
G36*
X155479900Y-106420600D02*
G01*
X153852900Y-106420600D01*
X153852900Y-105618600D01*
X155479900Y-105618600D01*
X155479900Y-106420600D01*
G37*
G36*
X166483512Y-104513927D02*
G01*
X166632812Y-104543624D01*
X166796784Y-104611544D01*
X166944354Y-104710147D01*
X167069853Y-104835646D01*
X167168456Y-104983216D01*
X167236376Y-105147188D01*
X167271000Y-105321259D01*
X167271000Y-105498741D01*
X167236376Y-105672812D01*
X167168456Y-105836784D01*
X167069853Y-105984354D01*
X166944354Y-106109853D01*
X166796784Y-106208456D01*
X166632812Y-106276376D01*
X166483512Y-106306073D01*
X166458742Y-106311000D01*
X166281258Y-106311000D01*
X166256488Y-106306073D01*
X166107188Y-106276376D01*
X165943216Y-106208456D01*
X165795646Y-106109853D01*
X165670147Y-105984354D01*
X165571544Y-105836784D01*
X165503624Y-105672812D01*
X165469000Y-105498741D01*
X165469000Y-105321259D01*
X165503624Y-105147188D01*
X165571544Y-104983216D01*
X165670147Y-104835646D01*
X165795646Y-104710147D01*
X165943216Y-104611544D01*
X166107188Y-104543624D01*
X166256488Y-104513927D01*
X166281258Y-104509000D01*
X166458742Y-104509000D01*
X166483512Y-104513927D01*
G37*
G36*
X148703512Y-104513927D02*
G01*
X148852812Y-104543624D01*
X149016784Y-104611544D01*
X149164354Y-104710147D01*
X149289853Y-104835646D01*
X149388456Y-104983216D01*
X149456376Y-105147188D01*
X149491000Y-105321259D01*
X149491000Y-105498741D01*
X149456376Y-105672812D01*
X149388456Y-105836784D01*
X149289853Y-105984354D01*
X149164354Y-106109853D01*
X149016784Y-106208456D01*
X148852812Y-106276376D01*
X148703512Y-106306073D01*
X148678742Y-106311000D01*
X148501258Y-106311000D01*
X148476488Y-106306073D01*
X148327188Y-106276376D01*
X148163216Y-106208456D01*
X148015646Y-106109853D01*
X147890147Y-105984354D01*
X147791544Y-105836784D01*
X147723624Y-105672812D01*
X147689000Y-105498741D01*
X147689000Y-105321259D01*
X147723624Y-105147188D01*
X147791544Y-104983216D01*
X147890147Y-104835646D01*
X148015646Y-104710147D01*
X148163216Y-104611544D01*
X148327188Y-104543624D01*
X148476488Y-104513927D01*
X148501258Y-104509000D01*
X148678742Y-104509000D01*
X148703512Y-104513927D01*
G37*
G36*
X148703512Y-101973927D02*
G01*
X148852812Y-102003624D01*
X149016784Y-102071544D01*
X149164354Y-102170147D01*
X149289853Y-102295646D01*
X149388456Y-102443216D01*
X149456376Y-102607188D01*
X149491000Y-102781259D01*
X149491000Y-102958741D01*
X149456376Y-103132812D01*
X149388456Y-103296784D01*
X149289853Y-103444354D01*
X149164354Y-103569853D01*
X149016784Y-103668456D01*
X148852812Y-103736376D01*
X148703512Y-103766073D01*
X148678742Y-103771000D01*
X148501258Y-103771000D01*
X148476488Y-103766073D01*
X148327188Y-103736376D01*
X148163216Y-103668456D01*
X148015646Y-103569853D01*
X147890147Y-103444354D01*
X147791544Y-103296784D01*
X147723624Y-103132812D01*
X147689000Y-102958741D01*
X147689000Y-102781259D01*
X147723624Y-102607188D01*
X147791544Y-102443216D01*
X147890147Y-102295646D01*
X148015646Y-102170147D01*
X148163216Y-102071544D01*
X148327188Y-102003624D01*
X148476488Y-101973927D01*
X148501258Y-101969000D01*
X148678742Y-101969000D01*
X148703512Y-101973927D01*
G37*
G36*
X166483512Y-101973927D02*
G01*
X166632812Y-102003624D01*
X166796784Y-102071544D01*
X166944354Y-102170147D01*
X167069853Y-102295646D01*
X167168456Y-102443216D01*
X167236376Y-102607188D01*
X167271000Y-102781259D01*
X167271000Y-102958741D01*
X167236376Y-103132812D01*
X167168456Y-103296784D01*
X167069853Y-103444354D01*
X166944354Y-103569853D01*
X166796784Y-103668456D01*
X166632812Y-103736376D01*
X166483512Y-103766073D01*
X166458742Y-103771000D01*
X166281258Y-103771000D01*
X166256488Y-103766073D01*
X166107188Y-103736376D01*
X165943216Y-103668456D01*
X165795646Y-103569853D01*
X165670147Y-103444354D01*
X165571544Y-103296784D01*
X165503624Y-103132812D01*
X165469000Y-102958741D01*
X165469000Y-102781259D01*
X165503624Y-102607188D01*
X165571544Y-102443216D01*
X165670147Y-102295646D01*
X165795646Y-102170147D01*
X165943216Y-102071544D01*
X166107188Y-102003624D01*
X166256488Y-101973927D01*
X166281258Y-101969000D01*
X166458742Y-101969000D01*
X166483512Y-101973927D01*
G37*
G36*
X157040562Y-100043181D02*
G01*
X157075481Y-100053774D01*
X157107663Y-100070976D01*
X157135873Y-100094127D01*
X157159024Y-100122337D01*
X157176226Y-100154519D01*
X157186819Y-100189438D01*
X157191000Y-100231895D01*
X157191000Y-101698105D01*
X157186819Y-101740562D01*
X157176226Y-101775481D01*
X157159024Y-101807663D01*
X157135873Y-101835873D01*
X157107663Y-101859024D01*
X157075481Y-101876226D01*
X157040562Y-101886819D01*
X156998105Y-101891000D01*
X155856895Y-101891000D01*
X155814438Y-101886819D01*
X155779519Y-101876226D01*
X155747337Y-101859024D01*
X155719127Y-101835873D01*
X155695976Y-101807663D01*
X155678774Y-101775481D01*
X155668181Y-101740562D01*
X155664000Y-101698105D01*
X155664000Y-100231895D01*
X155668181Y-100189438D01*
X155678774Y-100154519D01*
X155695976Y-100122337D01*
X155719127Y-100094127D01*
X155747337Y-100070976D01*
X155779519Y-100053774D01*
X155814438Y-100043181D01*
X155856895Y-100039000D01*
X156998105Y-100039000D01*
X157040562Y-100043181D01*
G37*
G36*
X154065562Y-100043181D02*
G01*
X154100481Y-100053774D01*
X154132663Y-100070976D01*
X154160873Y-100094127D01*
X154184024Y-100122337D01*
X154201226Y-100154519D01*
X154211819Y-100189438D01*
X154216000Y-100231895D01*
X154216000Y-101698105D01*
X154211819Y-101740562D01*
X154201226Y-101775481D01*
X154184024Y-101807663D01*
X154160873Y-101835873D01*
X154132663Y-101859024D01*
X154100481Y-101876226D01*
X154065562Y-101886819D01*
X154023105Y-101891000D01*
X152881895Y-101891000D01*
X152839438Y-101886819D01*
X152804519Y-101876226D01*
X152772337Y-101859024D01*
X152744127Y-101835873D01*
X152720976Y-101807663D01*
X152703774Y-101775481D01*
X152693181Y-101740562D01*
X152689000Y-101698105D01*
X152689000Y-100231895D01*
X152693181Y-100189438D01*
X152703774Y-100154519D01*
X152720976Y-100122337D01*
X152744127Y-100094127D01*
X152772337Y-100070976D01*
X152804519Y-100053774D01*
X152839438Y-100043181D01*
X152881895Y-100039000D01*
X154023105Y-100039000D01*
X154065562Y-100043181D01*
G37*
G36*
X162120562Y-100043181D02*
G01*
X162155481Y-100053774D01*
X162187663Y-100070976D01*
X162215873Y-100094127D01*
X162239024Y-100122337D01*
X162256226Y-100154519D01*
X162266819Y-100189438D01*
X162271000Y-100231895D01*
X162271000Y-101698105D01*
X162266819Y-101740562D01*
X162256226Y-101775481D01*
X162239024Y-101807663D01*
X162215873Y-101835873D01*
X162187663Y-101859024D01*
X162155481Y-101876226D01*
X162120562Y-101886819D01*
X162078105Y-101891000D01*
X160936895Y-101891000D01*
X160894438Y-101886819D01*
X160859519Y-101876226D01*
X160827337Y-101859024D01*
X160799127Y-101835873D01*
X160775976Y-101807663D01*
X160758774Y-101775481D01*
X160748181Y-101740562D01*
X160744000Y-101698105D01*
X160744000Y-100231895D01*
X160748181Y-100189438D01*
X160758774Y-100154519D01*
X160775976Y-100122337D01*
X160799127Y-100094127D01*
X160827337Y-100070976D01*
X160859519Y-100053774D01*
X160894438Y-100043181D01*
X160936895Y-100039000D01*
X162078105Y-100039000D01*
X162120562Y-100043181D01*
G37*
G36*
X159145562Y-100043181D02*
G01*
X159180481Y-100053774D01*
X159212663Y-100070976D01*
X159240873Y-100094127D01*
X159264024Y-100122337D01*
X159281226Y-100154519D01*
X159291819Y-100189438D01*
X159296000Y-100231895D01*
X159296000Y-101698105D01*
X159291819Y-101740562D01*
X159281226Y-101775481D01*
X159264024Y-101807663D01*
X159240873Y-101835873D01*
X159212663Y-101859024D01*
X159180481Y-101876226D01*
X159145562Y-101886819D01*
X159103105Y-101891000D01*
X157961895Y-101891000D01*
X157919438Y-101886819D01*
X157884519Y-101876226D01*
X157852337Y-101859024D01*
X157824127Y-101835873D01*
X157800976Y-101807663D01*
X157783774Y-101775481D01*
X157773181Y-101740562D01*
X157769000Y-101698105D01*
X157769000Y-100231895D01*
X157773181Y-100189438D01*
X157783774Y-100154519D01*
X157800976Y-100122337D01*
X157824127Y-100094127D01*
X157852337Y-100070976D01*
X157884519Y-100053774D01*
X157919438Y-100043181D01*
X157961895Y-100039000D01*
X159103105Y-100039000D01*
X159145562Y-100043181D01*
G37*
G36*
X148703512Y-99433927D02*
G01*
X148852812Y-99463624D01*
X149016784Y-99531544D01*
X149164354Y-99630147D01*
X149289853Y-99755646D01*
X149388456Y-99903216D01*
X149456376Y-100067188D01*
X149474451Y-100158061D01*
X149489138Y-100231895D01*
X149491000Y-100241259D01*
X149491000Y-100418741D01*
X149456376Y-100592812D01*
X149388456Y-100756784D01*
X149289853Y-100904354D01*
X149164354Y-101029853D01*
X149016784Y-101128456D01*
X148852812Y-101196376D01*
X148703512Y-101226073D01*
X148678742Y-101231000D01*
X148501258Y-101231000D01*
X148476488Y-101226073D01*
X148327188Y-101196376D01*
X148163216Y-101128456D01*
X148015646Y-101029853D01*
X147890147Y-100904354D01*
X147791544Y-100756784D01*
X147723624Y-100592812D01*
X147689000Y-100418741D01*
X147689000Y-100241259D01*
X147690863Y-100231895D01*
X147705549Y-100158061D01*
X147723624Y-100067188D01*
X147791544Y-99903216D01*
X147890147Y-99755646D01*
X148015646Y-99630147D01*
X148163216Y-99531544D01*
X148327188Y-99463624D01*
X148476488Y-99433927D01*
X148501258Y-99429000D01*
X148678742Y-99429000D01*
X148703512Y-99433927D01*
G37*
G36*
X166483512Y-99433927D02*
G01*
X166632812Y-99463624D01*
X166796784Y-99531544D01*
X166944354Y-99630147D01*
X167069853Y-99755646D01*
X167168456Y-99903216D01*
X167236376Y-100067188D01*
X167254451Y-100158061D01*
X167269138Y-100231895D01*
X167271000Y-100241259D01*
X167271000Y-100418741D01*
X167236376Y-100592812D01*
X167168456Y-100756784D01*
X167069853Y-100904354D01*
X166944354Y-101029853D01*
X166796784Y-101128456D01*
X166632812Y-101196376D01*
X166483512Y-101226073D01*
X166458742Y-101231000D01*
X166281258Y-101231000D01*
X166256488Y-101226073D01*
X166107188Y-101196376D01*
X165943216Y-101128456D01*
X165795646Y-101029853D01*
X165670147Y-100904354D01*
X165571544Y-100756784D01*
X165503624Y-100592812D01*
X165469000Y-100418741D01*
X165469000Y-100241259D01*
X165470863Y-100231895D01*
X165485549Y-100158061D01*
X165503624Y-100067188D01*
X165571544Y-99903216D01*
X165670147Y-99755646D01*
X165795646Y-99630147D01*
X165943216Y-99531544D01*
X166107188Y-99463624D01*
X166256488Y-99433927D01*
X166281258Y-99429000D01*
X166458742Y-99429000D01*
X166483512Y-99433927D01*
G37*
G36*
X162120562Y-97503181D02*
G01*
X162155481Y-97513774D01*
X162187663Y-97530976D01*
X162215873Y-97554127D01*
X162239024Y-97582337D01*
X162256226Y-97614519D01*
X162266819Y-97649438D01*
X162271000Y-97691895D01*
X162271000Y-99158105D01*
X162266819Y-99200562D01*
X162256226Y-99235481D01*
X162239024Y-99267663D01*
X162215873Y-99295873D01*
X162187663Y-99319024D01*
X162155481Y-99336226D01*
X162120562Y-99346819D01*
X162078105Y-99351000D01*
X160936895Y-99351000D01*
X160894438Y-99346819D01*
X160859519Y-99336226D01*
X160827337Y-99319024D01*
X160799127Y-99295873D01*
X160775976Y-99267663D01*
X160758774Y-99235481D01*
X160748181Y-99200562D01*
X160744000Y-99158105D01*
X160744000Y-97691895D01*
X160748181Y-97649438D01*
X160758774Y-97614519D01*
X160775976Y-97582337D01*
X160799127Y-97554127D01*
X160827337Y-97530976D01*
X160859519Y-97513774D01*
X160894438Y-97503181D01*
X160936895Y-97499000D01*
X162078105Y-97499000D01*
X162120562Y-97503181D01*
G37*
G36*
X159145562Y-97503181D02*
G01*
X159180481Y-97513774D01*
X159212663Y-97530976D01*
X159240873Y-97554127D01*
X159264024Y-97582337D01*
X159281226Y-97614519D01*
X159291819Y-97649438D01*
X159296000Y-97691895D01*
X159296000Y-99158105D01*
X159291819Y-99200562D01*
X159281226Y-99235481D01*
X159264024Y-99267663D01*
X159240873Y-99295873D01*
X159212663Y-99319024D01*
X159180481Y-99336226D01*
X159145562Y-99346819D01*
X159103105Y-99351000D01*
X157961895Y-99351000D01*
X157919438Y-99346819D01*
X157884519Y-99336226D01*
X157852337Y-99319024D01*
X157824127Y-99295873D01*
X157800976Y-99267663D01*
X157783774Y-99235481D01*
X157773181Y-99200562D01*
X157769000Y-99158105D01*
X157769000Y-97691895D01*
X157773181Y-97649438D01*
X157783774Y-97614519D01*
X157800976Y-97582337D01*
X157824127Y-97554127D01*
X157852337Y-97530976D01*
X157884519Y-97513774D01*
X157919438Y-97503181D01*
X157961895Y-97499000D01*
X159103105Y-97499000D01*
X159145562Y-97503181D01*
G37*
G36*
X154065562Y-97503181D02*
G01*
X154100481Y-97513774D01*
X154132663Y-97530976D01*
X154160873Y-97554127D01*
X154184024Y-97582337D01*
X154201226Y-97614519D01*
X154211819Y-97649438D01*
X154216000Y-97691895D01*
X154216000Y-99158105D01*
X154211819Y-99200562D01*
X154201226Y-99235481D01*
X154184024Y-99267663D01*
X154160873Y-99295873D01*
X154132663Y-99319024D01*
X154100481Y-99336226D01*
X154065562Y-99346819D01*
X154023105Y-99351000D01*
X152881895Y-99351000D01*
X152839438Y-99346819D01*
X152804519Y-99336226D01*
X152772337Y-99319024D01*
X152744127Y-99295873D01*
X152720976Y-99267663D01*
X152703774Y-99235481D01*
X152693181Y-99200562D01*
X152689000Y-99158105D01*
X152689000Y-97691895D01*
X152693181Y-97649438D01*
X152703774Y-97614519D01*
X152720976Y-97582337D01*
X152744127Y-97554127D01*
X152772337Y-97530976D01*
X152804519Y-97513774D01*
X152839438Y-97503181D01*
X152881895Y-97499000D01*
X154023105Y-97499000D01*
X154065562Y-97503181D01*
G37*
G36*
X157040562Y-97503181D02*
G01*
X157075481Y-97513774D01*
X157107663Y-97530976D01*
X157135873Y-97554127D01*
X157159024Y-97582337D01*
X157176226Y-97614519D01*
X157186819Y-97649438D01*
X157191000Y-97691895D01*
X157191000Y-99158105D01*
X157186819Y-99200562D01*
X157176226Y-99235481D01*
X157159024Y-99267663D01*
X157135873Y-99295873D01*
X157107663Y-99319024D01*
X157075481Y-99336226D01*
X157040562Y-99346819D01*
X156998105Y-99351000D01*
X155856895Y-99351000D01*
X155814438Y-99346819D01*
X155779519Y-99336226D01*
X155747337Y-99319024D01*
X155719127Y-99295873D01*
X155695976Y-99267663D01*
X155678774Y-99235481D01*
X155668181Y-99200562D01*
X155664000Y-99158105D01*
X155664000Y-97691895D01*
X155668181Y-97649438D01*
X155678774Y-97614519D01*
X155695976Y-97582337D01*
X155719127Y-97554127D01*
X155747337Y-97530976D01*
X155779519Y-97513774D01*
X155814438Y-97503181D01*
X155856895Y-97499000D01*
X156998105Y-97499000D01*
X157040562Y-97503181D01*
G37*
G36*
X166483512Y-96893927D02*
G01*
X166632812Y-96923624D01*
X166796784Y-96991544D01*
X166944354Y-97090147D01*
X167069853Y-97215646D01*
X167168456Y-97363216D01*
X167236376Y-97527188D01*
X167254451Y-97618061D01*
X167269138Y-97691895D01*
X167271000Y-97701259D01*
X167271000Y-97878741D01*
X167236376Y-98052812D01*
X167168456Y-98216784D01*
X167069853Y-98364354D01*
X166944354Y-98489853D01*
X166796784Y-98588456D01*
X166632812Y-98656376D01*
X166483512Y-98686073D01*
X166458742Y-98691000D01*
X166281258Y-98691000D01*
X166256488Y-98686073D01*
X166107188Y-98656376D01*
X165943216Y-98588456D01*
X165795646Y-98489853D01*
X165670147Y-98364354D01*
X165571544Y-98216784D01*
X165503624Y-98052812D01*
X165469000Y-97878741D01*
X165469000Y-97701259D01*
X165470863Y-97691895D01*
X165485549Y-97618061D01*
X165503624Y-97527188D01*
X165571544Y-97363216D01*
X165670147Y-97215646D01*
X165795646Y-97090147D01*
X165943216Y-96991544D01*
X166107188Y-96923624D01*
X166256488Y-96893927D01*
X166281258Y-96889000D01*
X166458742Y-96889000D01*
X166483512Y-96893927D01*
G37*
G36*
X148703512Y-96893927D02*
G01*
X148852812Y-96923624D01*
X149016784Y-96991544D01*
X149164354Y-97090147D01*
X149289853Y-97215646D01*
X149388456Y-97363216D01*
X149456376Y-97527188D01*
X149474451Y-97618061D01*
X149489138Y-97691895D01*
X149491000Y-97701259D01*
X149491000Y-97878741D01*
X149456376Y-98052812D01*
X149388456Y-98216784D01*
X149289853Y-98364354D01*
X149164354Y-98489853D01*
X149016784Y-98588456D01*
X148852812Y-98656376D01*
X148703512Y-98686073D01*
X148678742Y-98691000D01*
X148501258Y-98691000D01*
X148476488Y-98686073D01*
X148327188Y-98656376D01*
X148163216Y-98588456D01*
X148015646Y-98489853D01*
X147890147Y-98364354D01*
X147791544Y-98216784D01*
X147723624Y-98052812D01*
X147689000Y-97878741D01*
X147689000Y-97701259D01*
X147690863Y-97691895D01*
X147705549Y-97618061D01*
X147723624Y-97527188D01*
X147791544Y-97363216D01*
X147890147Y-97215646D01*
X148015646Y-97090147D01*
X148163216Y-96991544D01*
X148327188Y-96923624D01*
X148476488Y-96893927D01*
X148501258Y-96889000D01*
X148678742Y-96889000D01*
X148703512Y-96893927D01*
G37*
M02*
