M48
;DRILL file {KiCad 5.0.0-rc2-unknown-6090f90~65~ubuntu18.04.1} date Mon May 28 20:15:34 2018
;FORMAT={-:-/ absolute / inch / decimal}
FMAT,2
INCH,TZ
T1C0.0130
T2C0.0394
T3C0.0400
%
G90
G05
M72
T1
X5.21Y-3.44
X5.21Y-3.53
X5.21Y-4.07
X5.2881Y-4.07
X5.29Y-3.44
X5.3669Y-4.07
X5.3714Y-3.4356
X5.4431Y-4.0725
X5.445Y-3.245
X5.475Y-3.525
X5.5244Y-4.07
X5.54Y-3.205
X5.54Y-3.28
X5.54Y-3.345
X5.575Y-3.76
X5.59Y-4.185
X5.6Y-3.365
X5.6031Y-4.07
X5.705Y-3.52
X5.705Y-4.31
X5.765Y-3.52
X5.835Y-3.38
X5.835Y-3.445
X5.835Y-3.515
X5.9Y-3.38
X5.935Y-3.245
X5.935Y-3.315
T2
X5.735Y-3.34
X5.652Y-4.366
X5.752Y-4.366
X5.852Y-4.366
X5.952Y-4.366
T3
X5.0511Y-3.4575
X5.0511Y-3.5575
X5.0511Y-3.6575
X5.0511Y-3.7575
X5.0511Y-3.8575
X5.0511Y-3.9575
X5.0511Y-4.0575
X5.0511Y-4.1575
X5.9511Y-3.4575
X5.9511Y-3.5575
X5.9511Y-3.6575
X5.9511Y-3.7575
X5.9511Y-3.8575
X5.9511Y-3.9575
X5.9511Y-4.0575
X5.9511Y-4.1575
T0
M30
