G04 #@! TF.GenerationSoftware,KiCad,Pcbnew,6.0.0-rc1-unknown-0769b04~66~ubuntu16.04.1*
G04 #@! TF.CreationDate,2018-12-11T15:13:33-07:00
G04 #@! TF.ProjectId,ws2812b_reverse,77733238-3132-4625-9f72-657665727365,rev?*
G04 #@! TF.SameCoordinates,Original*
G04 #@! TF.FileFunction,Copper,L2,Bot*
G04 #@! TF.FilePolarity,Positive*
%FSLAX46Y46*%
G04 Gerber Fmt 4.6, Leading zero omitted, Abs format (unit mm)*
G04 Created by KiCad (PCBNEW 6.0.0-rc1-unknown-0769b04~66~ubuntu16.04.1) date Tue 11 Dec 2018 03:13:33 PM MST*
%MOMM*%
%LPD*%
G04 APERTURE LIST*
%ADD10O,1.700000X1.700000*%
%ADD11C,0.100000*%
%ADD12C,1.700000*%
%ADD13R,1.395000X1.800000*%
%ADD14C,0.685800*%
%ADD15C,0.762000*%
G04 APERTURE END LIST*
D10*
X142875000Y-103505000D03*
X145415000Y-103505000D03*
X142875000Y-101705000D03*
X145415000Y-101705000D03*
D11*
G36*
X143341657Y-101573646D02*
G01*
X143382913Y-101579766D01*
X143423371Y-101589900D01*
X143462640Y-101603951D01*
X143500344Y-101621783D01*
X143536117Y-101643225D01*
X143569617Y-101668071D01*
X143600520Y-101696080D01*
X143628529Y-101726983D01*
X143653375Y-101760483D01*
X143674817Y-101796256D01*
X143692649Y-101833960D01*
X143706700Y-101873229D01*
X143716834Y-101913687D01*
X143722954Y-101954943D01*
X143725000Y-101996600D01*
X143725000Y-103946600D01*
X143722954Y-103988257D01*
X143716834Y-104029513D01*
X143706700Y-104069971D01*
X143692649Y-104109240D01*
X143674817Y-104146944D01*
X143653375Y-104182717D01*
X143628529Y-104216217D01*
X143600520Y-104247120D01*
X143569617Y-104275129D01*
X143536117Y-104299975D01*
X143500344Y-104321417D01*
X143462640Y-104339249D01*
X143423371Y-104353300D01*
X143382913Y-104363434D01*
X143341657Y-104369554D01*
X143300000Y-104371600D01*
X142450000Y-104371600D01*
X142408343Y-104369554D01*
X142367087Y-104363434D01*
X142326629Y-104353300D01*
X142287360Y-104339249D01*
X142249656Y-104321417D01*
X142213883Y-104299975D01*
X142180383Y-104275129D01*
X142149480Y-104247120D01*
X142121471Y-104216217D01*
X142096625Y-104182717D01*
X142075183Y-104146944D01*
X142057351Y-104109240D01*
X142043300Y-104069971D01*
X142033166Y-104029513D01*
X142027046Y-103988257D01*
X142025000Y-103946600D01*
X142025000Y-101996600D01*
X142027046Y-101954943D01*
X142033166Y-101913687D01*
X142043300Y-101873229D01*
X142057351Y-101833960D01*
X142075183Y-101796256D01*
X142096625Y-101760483D01*
X142121471Y-101726983D01*
X142149480Y-101696080D01*
X142180383Y-101668071D01*
X142213883Y-101643225D01*
X142249656Y-101621783D01*
X142287360Y-101603951D01*
X142326629Y-101589900D01*
X142367087Y-101579766D01*
X142408343Y-101573646D01*
X142450000Y-101571600D01*
X143300000Y-101571600D01*
X143341657Y-101573646D01*
X143341657Y-101573646D01*
G37*
D12*
X142875000Y-102971600D03*
D11*
G36*
X145881657Y-101573646D02*
G01*
X145922913Y-101579766D01*
X145963371Y-101589900D01*
X146002640Y-101603951D01*
X146040344Y-101621783D01*
X146076117Y-101643225D01*
X146109617Y-101668071D01*
X146140520Y-101696080D01*
X146168529Y-101726983D01*
X146193375Y-101760483D01*
X146214817Y-101796256D01*
X146232649Y-101833960D01*
X146246700Y-101873229D01*
X146256834Y-101913687D01*
X146262954Y-101954943D01*
X146265000Y-101996600D01*
X146265000Y-103946600D01*
X146262954Y-103988257D01*
X146256834Y-104029513D01*
X146246700Y-104069971D01*
X146232649Y-104109240D01*
X146214817Y-104146944D01*
X146193375Y-104182717D01*
X146168529Y-104216217D01*
X146140520Y-104247120D01*
X146109617Y-104275129D01*
X146076117Y-104299975D01*
X146040344Y-104321417D01*
X146002640Y-104339249D01*
X145963371Y-104353300D01*
X145922913Y-104363434D01*
X145881657Y-104369554D01*
X145840000Y-104371600D01*
X144990000Y-104371600D01*
X144948343Y-104369554D01*
X144907087Y-104363434D01*
X144866629Y-104353300D01*
X144827360Y-104339249D01*
X144789656Y-104321417D01*
X144753883Y-104299975D01*
X144720383Y-104275129D01*
X144689480Y-104247120D01*
X144661471Y-104216217D01*
X144636625Y-104182717D01*
X144615183Y-104146944D01*
X144597351Y-104109240D01*
X144583300Y-104069971D01*
X144573166Y-104029513D01*
X144567046Y-103988257D01*
X144565000Y-103946600D01*
X144565000Y-101996600D01*
X144567046Y-101954943D01*
X144573166Y-101913687D01*
X144583300Y-101873229D01*
X144597351Y-101833960D01*
X144615183Y-101796256D01*
X144636625Y-101760483D01*
X144661471Y-101726983D01*
X144689480Y-101696080D01*
X144720383Y-101668071D01*
X144753883Y-101643225D01*
X144789656Y-101621783D01*
X144827360Y-101603951D01*
X144866629Y-101589900D01*
X144907087Y-101579766D01*
X144948343Y-101573646D01*
X144990000Y-101571600D01*
X145840000Y-101571600D01*
X145881657Y-101573646D01*
X145881657Y-101573646D01*
G37*
D12*
X145415000Y-102971600D03*
D11*
G36*
X143341657Y-110260446D02*
G01*
X143382913Y-110266566D01*
X143423371Y-110276700D01*
X143462640Y-110290751D01*
X143500344Y-110308583D01*
X143536117Y-110330025D01*
X143569617Y-110354871D01*
X143600520Y-110382880D01*
X143628529Y-110413783D01*
X143653375Y-110447283D01*
X143674817Y-110483056D01*
X143692649Y-110520760D01*
X143706700Y-110560029D01*
X143716834Y-110600487D01*
X143722954Y-110641743D01*
X143725000Y-110683400D01*
X143725000Y-112633400D01*
X143722954Y-112675057D01*
X143716834Y-112716313D01*
X143706700Y-112756771D01*
X143692649Y-112796040D01*
X143674817Y-112833744D01*
X143653375Y-112869517D01*
X143628529Y-112903017D01*
X143600520Y-112933920D01*
X143569617Y-112961929D01*
X143536117Y-112986775D01*
X143500344Y-113008217D01*
X143462640Y-113026049D01*
X143423371Y-113040100D01*
X143382913Y-113050234D01*
X143341657Y-113056354D01*
X143300000Y-113058400D01*
X142450000Y-113058400D01*
X142408343Y-113056354D01*
X142367087Y-113050234D01*
X142326629Y-113040100D01*
X142287360Y-113026049D01*
X142249656Y-113008217D01*
X142213883Y-112986775D01*
X142180383Y-112961929D01*
X142149480Y-112933920D01*
X142121471Y-112903017D01*
X142096625Y-112869517D01*
X142075183Y-112833744D01*
X142057351Y-112796040D01*
X142043300Y-112756771D01*
X142033166Y-112716313D01*
X142027046Y-112675057D01*
X142025000Y-112633400D01*
X142025000Y-110683400D01*
X142027046Y-110641743D01*
X142033166Y-110600487D01*
X142043300Y-110560029D01*
X142057351Y-110520760D01*
X142075183Y-110483056D01*
X142096625Y-110447283D01*
X142121471Y-110413783D01*
X142149480Y-110382880D01*
X142180383Y-110354871D01*
X142213883Y-110330025D01*
X142249656Y-110308583D01*
X142287360Y-110290751D01*
X142326629Y-110276700D01*
X142367087Y-110266566D01*
X142408343Y-110260446D01*
X142450000Y-110258400D01*
X143300000Y-110258400D01*
X143341657Y-110260446D01*
X143341657Y-110260446D01*
G37*
D12*
X142875000Y-111658400D03*
D11*
G36*
X145881657Y-110260446D02*
G01*
X145922913Y-110266566D01*
X145963371Y-110276700D01*
X146002640Y-110290751D01*
X146040344Y-110308583D01*
X146076117Y-110330025D01*
X146109617Y-110354871D01*
X146140520Y-110382880D01*
X146168529Y-110413783D01*
X146193375Y-110447283D01*
X146214817Y-110483056D01*
X146232649Y-110520760D01*
X146246700Y-110560029D01*
X146256834Y-110600487D01*
X146262954Y-110641743D01*
X146265000Y-110683400D01*
X146265000Y-112633400D01*
X146262954Y-112675057D01*
X146256834Y-112716313D01*
X146246700Y-112756771D01*
X146232649Y-112796040D01*
X146214817Y-112833744D01*
X146193375Y-112869517D01*
X146168529Y-112903017D01*
X146140520Y-112933920D01*
X146109617Y-112961929D01*
X146076117Y-112986775D01*
X146040344Y-113008217D01*
X146002640Y-113026049D01*
X145963371Y-113040100D01*
X145922913Y-113050234D01*
X145881657Y-113056354D01*
X145840000Y-113058400D01*
X144990000Y-113058400D01*
X144948343Y-113056354D01*
X144907087Y-113050234D01*
X144866629Y-113040100D01*
X144827360Y-113026049D01*
X144789656Y-113008217D01*
X144753883Y-112986775D01*
X144720383Y-112961929D01*
X144689480Y-112933920D01*
X144661471Y-112903017D01*
X144636625Y-112869517D01*
X144615183Y-112833744D01*
X144597351Y-112796040D01*
X144583300Y-112756771D01*
X144573166Y-112716313D01*
X144567046Y-112675057D01*
X144565000Y-112633400D01*
X144565000Y-110683400D01*
X144567046Y-110641743D01*
X144573166Y-110600487D01*
X144583300Y-110560029D01*
X144597351Y-110520760D01*
X144615183Y-110483056D01*
X144636625Y-110447283D01*
X144661471Y-110413783D01*
X144689480Y-110382880D01*
X144720383Y-110354871D01*
X144753883Y-110330025D01*
X144789656Y-110308583D01*
X144827360Y-110290751D01*
X144866629Y-110276700D01*
X144907087Y-110266566D01*
X144948343Y-110260446D01*
X144990000Y-110258400D01*
X145840000Y-110258400D01*
X145881657Y-110260446D01*
X145881657Y-110260446D01*
G37*
D12*
X145415000Y-111658400D03*
D10*
X142875000Y-112925000D03*
X145415000Y-112925000D03*
X142875000Y-111125000D03*
X145415000Y-111125000D03*
D13*
X143262500Y-107315000D03*
X146297500Y-107315000D03*
D14*
X146583400Y-108966000D03*
D15*
X146297500Y-108680100D02*
X146583400Y-108966000D01*
X146297500Y-107315000D02*
X146297500Y-108680100D01*
X143262500Y-111270900D02*
X142875000Y-111658400D01*
X143262500Y-107315000D02*
X143262500Y-111270900D01*
M02*
