G04 #@! TF.GenerationSoftware,KiCad,Pcbnew,5.1.5-52549c5~84~ubuntu18.04.1*
G04 #@! TF.CreationDate,2019-12-24T12:24:14-07:00*
G04 #@! TF.ProjectId,001,3030312e-6b69-4636-9164-5f7063625858,rev?*
G04 #@! TF.SameCoordinates,Original*
G04 #@! TF.FileFunction,Paste,Top*
G04 #@! TF.FilePolarity,Positive*
%FSLAX46Y46*%
G04 Gerber Fmt 4.6, Leading zero omitted, Abs format (unit mm)*
G04 Created by KiCad (PCBNEW 5.1.5-52549c5~84~ubuntu18.04.1) date 2019-12-24 12:24:14*
%MOMM*%
%LPD*%
G04 APERTURE LIST*
%ADD10C,0.100000*%
%ADD11R,1.372600X0.547600*%
G04 APERTURE END LIST*
D10*
G36*
X163208221Y-107300475D02*
G01*
X163229893Y-107303690D01*
X163251147Y-107309014D01*
X163271776Y-107316395D01*
X163291582Y-107325763D01*
X163310375Y-107337027D01*
X163327974Y-107350078D01*
X163344208Y-107364792D01*
X163358922Y-107381026D01*
X163371973Y-107398625D01*
X163383237Y-107417418D01*
X163392605Y-107437224D01*
X163399986Y-107457853D01*
X163405310Y-107479107D01*
X163408525Y-107500779D01*
X163409600Y-107522663D01*
X163409600Y-108348737D01*
X163408525Y-108370621D01*
X163405310Y-108392293D01*
X163399986Y-108413547D01*
X163392605Y-108434176D01*
X163383237Y-108453982D01*
X163371973Y-108472775D01*
X163358922Y-108490374D01*
X163344208Y-108506608D01*
X163327974Y-108521322D01*
X163310375Y-108534373D01*
X163291582Y-108545637D01*
X163271776Y-108555005D01*
X163251147Y-108562386D01*
X163229893Y-108567710D01*
X163208221Y-108570925D01*
X163186337Y-108572000D01*
X162035263Y-108572000D01*
X162013379Y-108570925D01*
X161991707Y-108567710D01*
X161970453Y-108562386D01*
X161949824Y-108555005D01*
X161930018Y-108545637D01*
X161911225Y-108534373D01*
X161893626Y-108521322D01*
X161877392Y-108506608D01*
X161862678Y-108490374D01*
X161849627Y-108472775D01*
X161838363Y-108453982D01*
X161828995Y-108434176D01*
X161821614Y-108413547D01*
X161816290Y-108392293D01*
X161813075Y-108370621D01*
X161812000Y-108348737D01*
X161812000Y-107522663D01*
X161813075Y-107500779D01*
X161816290Y-107479107D01*
X161821614Y-107457853D01*
X161828995Y-107437224D01*
X161838363Y-107417418D01*
X161849627Y-107398625D01*
X161862678Y-107381026D01*
X161877392Y-107364792D01*
X161893626Y-107350078D01*
X161911225Y-107337027D01*
X161930018Y-107325763D01*
X161949824Y-107316395D01*
X161970453Y-107309014D01*
X161991707Y-107303690D01*
X162013379Y-107300475D01*
X162035263Y-107299400D01*
X163186337Y-107299400D01*
X163208221Y-107300475D01*
G37*
G36*
X163208221Y-110275475D02*
G01*
X163229893Y-110278690D01*
X163251147Y-110284014D01*
X163271776Y-110291395D01*
X163291582Y-110300763D01*
X163310375Y-110312027D01*
X163327974Y-110325078D01*
X163344208Y-110339792D01*
X163358922Y-110356026D01*
X163371973Y-110373625D01*
X163383237Y-110392418D01*
X163392605Y-110412224D01*
X163399986Y-110432853D01*
X163405310Y-110454107D01*
X163408525Y-110475779D01*
X163409600Y-110497663D01*
X163409600Y-111323737D01*
X163408525Y-111345621D01*
X163405310Y-111367293D01*
X163399986Y-111388547D01*
X163392605Y-111409176D01*
X163383237Y-111428982D01*
X163371973Y-111447775D01*
X163358922Y-111465374D01*
X163344208Y-111481608D01*
X163327974Y-111496322D01*
X163310375Y-111509373D01*
X163291582Y-111520637D01*
X163271776Y-111530005D01*
X163251147Y-111537386D01*
X163229893Y-111542710D01*
X163208221Y-111545925D01*
X163186337Y-111547000D01*
X162035263Y-111547000D01*
X162013379Y-111545925D01*
X161991707Y-111542710D01*
X161970453Y-111537386D01*
X161949824Y-111530005D01*
X161930018Y-111520637D01*
X161911225Y-111509373D01*
X161893626Y-111496322D01*
X161877392Y-111481608D01*
X161862678Y-111465374D01*
X161849627Y-111447775D01*
X161838363Y-111428982D01*
X161828995Y-111409176D01*
X161821614Y-111388547D01*
X161816290Y-111367293D01*
X161813075Y-111345621D01*
X161812000Y-111323737D01*
X161812000Y-110497663D01*
X161813075Y-110475779D01*
X161816290Y-110454107D01*
X161821614Y-110432853D01*
X161828995Y-110412224D01*
X161838363Y-110392418D01*
X161849627Y-110373625D01*
X161862678Y-110356026D01*
X161877392Y-110339792D01*
X161893626Y-110325078D01*
X161911225Y-110312027D01*
X161930018Y-110300763D01*
X161949824Y-110291395D01*
X161970453Y-110284014D01*
X161991707Y-110278690D01*
X162013379Y-110275475D01*
X162035263Y-110274400D01*
X163186337Y-110274400D01*
X163208221Y-110275475D01*
G37*
G36*
X158967421Y-100167275D02*
G01*
X158989093Y-100170490D01*
X159010347Y-100175814D01*
X159030976Y-100183195D01*
X159050782Y-100192563D01*
X159069575Y-100203827D01*
X159087174Y-100216878D01*
X159103408Y-100231592D01*
X159118122Y-100247826D01*
X159131173Y-100265425D01*
X159142437Y-100284218D01*
X159151805Y-100304024D01*
X159159186Y-100324653D01*
X159164510Y-100345907D01*
X159167725Y-100367579D01*
X159168800Y-100389463D01*
X159168800Y-101540537D01*
X159167725Y-101562421D01*
X159164510Y-101584093D01*
X159159186Y-101605347D01*
X159151805Y-101625976D01*
X159142437Y-101645782D01*
X159131173Y-101664575D01*
X159118122Y-101682174D01*
X159103408Y-101698408D01*
X159087174Y-101713122D01*
X159069575Y-101726173D01*
X159050782Y-101737437D01*
X159030976Y-101746805D01*
X159010347Y-101754186D01*
X158989093Y-101759510D01*
X158967421Y-101762725D01*
X158945537Y-101763800D01*
X158119463Y-101763800D01*
X158097579Y-101762725D01*
X158075907Y-101759510D01*
X158054653Y-101754186D01*
X158034024Y-101746805D01*
X158014218Y-101737437D01*
X157995425Y-101726173D01*
X157977826Y-101713122D01*
X157961592Y-101698408D01*
X157946878Y-101682174D01*
X157933827Y-101664575D01*
X157922563Y-101645782D01*
X157913195Y-101625976D01*
X157905814Y-101605347D01*
X157900490Y-101584093D01*
X157897275Y-101562421D01*
X157896200Y-101540537D01*
X157896200Y-100389463D01*
X157897275Y-100367579D01*
X157900490Y-100345907D01*
X157905814Y-100324653D01*
X157913195Y-100304024D01*
X157922563Y-100284218D01*
X157933827Y-100265425D01*
X157946878Y-100247826D01*
X157961592Y-100231592D01*
X157977826Y-100216878D01*
X157995425Y-100203827D01*
X158014218Y-100192563D01*
X158034024Y-100183195D01*
X158054653Y-100175814D01*
X158075907Y-100170490D01*
X158097579Y-100167275D01*
X158119463Y-100166200D01*
X158945537Y-100166200D01*
X158967421Y-100167275D01*
G37*
G36*
X161942421Y-100167275D02*
G01*
X161964093Y-100170490D01*
X161985347Y-100175814D01*
X162005976Y-100183195D01*
X162025782Y-100192563D01*
X162044575Y-100203827D01*
X162062174Y-100216878D01*
X162078408Y-100231592D01*
X162093122Y-100247826D01*
X162106173Y-100265425D01*
X162117437Y-100284218D01*
X162126805Y-100304024D01*
X162134186Y-100324653D01*
X162139510Y-100345907D01*
X162142725Y-100367579D01*
X162143800Y-100389463D01*
X162143800Y-101540537D01*
X162142725Y-101562421D01*
X162139510Y-101584093D01*
X162134186Y-101605347D01*
X162126805Y-101625976D01*
X162117437Y-101645782D01*
X162106173Y-101664575D01*
X162093122Y-101682174D01*
X162078408Y-101698408D01*
X162062174Y-101713122D01*
X162044575Y-101726173D01*
X162025782Y-101737437D01*
X162005976Y-101746805D01*
X161985347Y-101754186D01*
X161964093Y-101759510D01*
X161942421Y-101762725D01*
X161920537Y-101763800D01*
X161094463Y-101763800D01*
X161072579Y-101762725D01*
X161050907Y-101759510D01*
X161029653Y-101754186D01*
X161009024Y-101746805D01*
X160989218Y-101737437D01*
X160970425Y-101726173D01*
X160952826Y-101713122D01*
X160936592Y-101698408D01*
X160921878Y-101682174D01*
X160908827Y-101664575D01*
X160897563Y-101645782D01*
X160888195Y-101625976D01*
X160880814Y-101605347D01*
X160875490Y-101584093D01*
X160872275Y-101562421D01*
X160871200Y-101540537D01*
X160871200Y-100389463D01*
X160872275Y-100367579D01*
X160875490Y-100345907D01*
X160880814Y-100324653D01*
X160888195Y-100304024D01*
X160897563Y-100284218D01*
X160908827Y-100265425D01*
X160921878Y-100247826D01*
X160936592Y-100231592D01*
X160952826Y-100216878D01*
X160970425Y-100203827D01*
X160989218Y-100192563D01*
X161009024Y-100183195D01*
X161029653Y-100175814D01*
X161050907Y-100170490D01*
X161072579Y-100167275D01*
X161094463Y-100166200D01*
X161920537Y-100166200D01*
X161942421Y-100167275D01*
G37*
G36*
X156862421Y-97627275D02*
G01*
X156884093Y-97630490D01*
X156905347Y-97635814D01*
X156925976Y-97643195D01*
X156945782Y-97652563D01*
X156964575Y-97663827D01*
X156982174Y-97676878D01*
X156998408Y-97691592D01*
X157013122Y-97707826D01*
X157026173Y-97725425D01*
X157037437Y-97744218D01*
X157046805Y-97764024D01*
X157054186Y-97784653D01*
X157059510Y-97805907D01*
X157062725Y-97827579D01*
X157063800Y-97849463D01*
X157063800Y-99000537D01*
X157062725Y-99022421D01*
X157059510Y-99044093D01*
X157054186Y-99065347D01*
X157046805Y-99085976D01*
X157037437Y-99105782D01*
X157026173Y-99124575D01*
X157013122Y-99142174D01*
X156998408Y-99158408D01*
X156982174Y-99173122D01*
X156964575Y-99186173D01*
X156945782Y-99197437D01*
X156925976Y-99206805D01*
X156905347Y-99214186D01*
X156884093Y-99219510D01*
X156862421Y-99222725D01*
X156840537Y-99223800D01*
X156014463Y-99223800D01*
X155992579Y-99222725D01*
X155970907Y-99219510D01*
X155949653Y-99214186D01*
X155929024Y-99206805D01*
X155909218Y-99197437D01*
X155890425Y-99186173D01*
X155872826Y-99173122D01*
X155856592Y-99158408D01*
X155841878Y-99142174D01*
X155828827Y-99124575D01*
X155817563Y-99105782D01*
X155808195Y-99085976D01*
X155800814Y-99065347D01*
X155795490Y-99044093D01*
X155792275Y-99022421D01*
X155791200Y-99000537D01*
X155791200Y-97849463D01*
X155792275Y-97827579D01*
X155795490Y-97805907D01*
X155800814Y-97784653D01*
X155808195Y-97764024D01*
X155817563Y-97744218D01*
X155828827Y-97725425D01*
X155841878Y-97707826D01*
X155856592Y-97691592D01*
X155872826Y-97676878D01*
X155890425Y-97663827D01*
X155909218Y-97652563D01*
X155929024Y-97643195D01*
X155949653Y-97635814D01*
X155970907Y-97630490D01*
X155992579Y-97627275D01*
X156014463Y-97626200D01*
X156840537Y-97626200D01*
X156862421Y-97627275D01*
G37*
G36*
X153887421Y-97627275D02*
G01*
X153909093Y-97630490D01*
X153930347Y-97635814D01*
X153950976Y-97643195D01*
X153970782Y-97652563D01*
X153989575Y-97663827D01*
X154007174Y-97676878D01*
X154023408Y-97691592D01*
X154038122Y-97707826D01*
X154051173Y-97725425D01*
X154062437Y-97744218D01*
X154071805Y-97764024D01*
X154079186Y-97784653D01*
X154084510Y-97805907D01*
X154087725Y-97827579D01*
X154088800Y-97849463D01*
X154088800Y-99000537D01*
X154087725Y-99022421D01*
X154084510Y-99044093D01*
X154079186Y-99065347D01*
X154071805Y-99085976D01*
X154062437Y-99105782D01*
X154051173Y-99124575D01*
X154038122Y-99142174D01*
X154023408Y-99158408D01*
X154007174Y-99173122D01*
X153989575Y-99186173D01*
X153970782Y-99197437D01*
X153950976Y-99206805D01*
X153930347Y-99214186D01*
X153909093Y-99219510D01*
X153887421Y-99222725D01*
X153865537Y-99223800D01*
X153039463Y-99223800D01*
X153017579Y-99222725D01*
X152995907Y-99219510D01*
X152974653Y-99214186D01*
X152954024Y-99206805D01*
X152934218Y-99197437D01*
X152915425Y-99186173D01*
X152897826Y-99173122D01*
X152881592Y-99158408D01*
X152866878Y-99142174D01*
X152853827Y-99124575D01*
X152842563Y-99105782D01*
X152833195Y-99085976D01*
X152825814Y-99065347D01*
X152820490Y-99044093D01*
X152817275Y-99022421D01*
X152816200Y-99000537D01*
X152816200Y-97849463D01*
X152817275Y-97827579D01*
X152820490Y-97805907D01*
X152825814Y-97784653D01*
X152833195Y-97764024D01*
X152842563Y-97744218D01*
X152853827Y-97725425D01*
X152866878Y-97707826D01*
X152881592Y-97691592D01*
X152897826Y-97676878D01*
X152915425Y-97663827D01*
X152934218Y-97652563D01*
X152954024Y-97643195D01*
X152974653Y-97635814D01*
X152995907Y-97630490D01*
X153017579Y-97627275D01*
X153039463Y-97626200D01*
X153865537Y-97626200D01*
X153887421Y-97627275D01*
G37*
G36*
X156862421Y-100167275D02*
G01*
X156884093Y-100170490D01*
X156905347Y-100175814D01*
X156925976Y-100183195D01*
X156945782Y-100192563D01*
X156964575Y-100203827D01*
X156982174Y-100216878D01*
X156998408Y-100231592D01*
X157013122Y-100247826D01*
X157026173Y-100265425D01*
X157037437Y-100284218D01*
X157046805Y-100304024D01*
X157054186Y-100324653D01*
X157059510Y-100345907D01*
X157062725Y-100367579D01*
X157063800Y-100389463D01*
X157063800Y-101540537D01*
X157062725Y-101562421D01*
X157059510Y-101584093D01*
X157054186Y-101605347D01*
X157046805Y-101625976D01*
X157037437Y-101645782D01*
X157026173Y-101664575D01*
X157013122Y-101682174D01*
X156998408Y-101698408D01*
X156982174Y-101713122D01*
X156964575Y-101726173D01*
X156945782Y-101737437D01*
X156925976Y-101746805D01*
X156905347Y-101754186D01*
X156884093Y-101759510D01*
X156862421Y-101762725D01*
X156840537Y-101763800D01*
X156014463Y-101763800D01*
X155992579Y-101762725D01*
X155970907Y-101759510D01*
X155949653Y-101754186D01*
X155929024Y-101746805D01*
X155909218Y-101737437D01*
X155890425Y-101726173D01*
X155872826Y-101713122D01*
X155856592Y-101698408D01*
X155841878Y-101682174D01*
X155828827Y-101664575D01*
X155817563Y-101645782D01*
X155808195Y-101625976D01*
X155800814Y-101605347D01*
X155795490Y-101584093D01*
X155792275Y-101562421D01*
X155791200Y-101540537D01*
X155791200Y-100389463D01*
X155792275Y-100367579D01*
X155795490Y-100345907D01*
X155800814Y-100324653D01*
X155808195Y-100304024D01*
X155817563Y-100284218D01*
X155828827Y-100265425D01*
X155841878Y-100247826D01*
X155856592Y-100231592D01*
X155872826Y-100216878D01*
X155890425Y-100203827D01*
X155909218Y-100192563D01*
X155929024Y-100183195D01*
X155949653Y-100175814D01*
X155970907Y-100170490D01*
X155992579Y-100167275D01*
X156014463Y-100166200D01*
X156840537Y-100166200D01*
X156862421Y-100167275D01*
G37*
G36*
X153887421Y-100167275D02*
G01*
X153909093Y-100170490D01*
X153930347Y-100175814D01*
X153950976Y-100183195D01*
X153970782Y-100192563D01*
X153989575Y-100203827D01*
X154007174Y-100216878D01*
X154023408Y-100231592D01*
X154038122Y-100247826D01*
X154051173Y-100265425D01*
X154062437Y-100284218D01*
X154071805Y-100304024D01*
X154079186Y-100324653D01*
X154084510Y-100345907D01*
X154087725Y-100367579D01*
X154088800Y-100389463D01*
X154088800Y-101540537D01*
X154087725Y-101562421D01*
X154084510Y-101584093D01*
X154079186Y-101605347D01*
X154071805Y-101625976D01*
X154062437Y-101645782D01*
X154051173Y-101664575D01*
X154038122Y-101682174D01*
X154023408Y-101698408D01*
X154007174Y-101713122D01*
X153989575Y-101726173D01*
X153970782Y-101737437D01*
X153950976Y-101746805D01*
X153930347Y-101754186D01*
X153909093Y-101759510D01*
X153887421Y-101762725D01*
X153865537Y-101763800D01*
X153039463Y-101763800D01*
X153017579Y-101762725D01*
X152995907Y-101759510D01*
X152974653Y-101754186D01*
X152954024Y-101746805D01*
X152934218Y-101737437D01*
X152915425Y-101726173D01*
X152897826Y-101713122D01*
X152881592Y-101698408D01*
X152866878Y-101682174D01*
X152853827Y-101664575D01*
X152842563Y-101645782D01*
X152833195Y-101625976D01*
X152825814Y-101605347D01*
X152820490Y-101584093D01*
X152817275Y-101562421D01*
X152816200Y-101540537D01*
X152816200Y-100389463D01*
X152817275Y-100367579D01*
X152820490Y-100345907D01*
X152825814Y-100324653D01*
X152833195Y-100304024D01*
X152842563Y-100284218D01*
X152853827Y-100265425D01*
X152866878Y-100247826D01*
X152881592Y-100231592D01*
X152897826Y-100216878D01*
X152915425Y-100203827D01*
X152934218Y-100192563D01*
X152954024Y-100183195D01*
X152974653Y-100175814D01*
X152995907Y-100170490D01*
X153017579Y-100167275D01*
X153039463Y-100166200D01*
X153865537Y-100166200D01*
X153887421Y-100167275D01*
G37*
G36*
X158967421Y-97627275D02*
G01*
X158989093Y-97630490D01*
X159010347Y-97635814D01*
X159030976Y-97643195D01*
X159050782Y-97652563D01*
X159069575Y-97663827D01*
X159087174Y-97676878D01*
X159103408Y-97691592D01*
X159118122Y-97707826D01*
X159131173Y-97725425D01*
X159142437Y-97744218D01*
X159151805Y-97764024D01*
X159159186Y-97784653D01*
X159164510Y-97805907D01*
X159167725Y-97827579D01*
X159168800Y-97849463D01*
X159168800Y-99000537D01*
X159167725Y-99022421D01*
X159164510Y-99044093D01*
X159159186Y-99065347D01*
X159151805Y-99085976D01*
X159142437Y-99105782D01*
X159131173Y-99124575D01*
X159118122Y-99142174D01*
X159103408Y-99158408D01*
X159087174Y-99173122D01*
X159069575Y-99186173D01*
X159050782Y-99197437D01*
X159030976Y-99206805D01*
X159010347Y-99214186D01*
X158989093Y-99219510D01*
X158967421Y-99222725D01*
X158945537Y-99223800D01*
X158119463Y-99223800D01*
X158097579Y-99222725D01*
X158075907Y-99219510D01*
X158054653Y-99214186D01*
X158034024Y-99206805D01*
X158014218Y-99197437D01*
X157995425Y-99186173D01*
X157977826Y-99173122D01*
X157961592Y-99158408D01*
X157946878Y-99142174D01*
X157933827Y-99124575D01*
X157922563Y-99105782D01*
X157913195Y-99085976D01*
X157905814Y-99065347D01*
X157900490Y-99044093D01*
X157897275Y-99022421D01*
X157896200Y-99000537D01*
X157896200Y-97849463D01*
X157897275Y-97827579D01*
X157900490Y-97805907D01*
X157905814Y-97784653D01*
X157913195Y-97764024D01*
X157922563Y-97744218D01*
X157933827Y-97725425D01*
X157946878Y-97707826D01*
X157961592Y-97691592D01*
X157977826Y-97676878D01*
X157995425Y-97663827D01*
X158014218Y-97652563D01*
X158034024Y-97643195D01*
X158054653Y-97635814D01*
X158075907Y-97630490D01*
X158097579Y-97627275D01*
X158119463Y-97626200D01*
X158945537Y-97626200D01*
X158967421Y-97627275D01*
G37*
G36*
X161942421Y-97627275D02*
G01*
X161964093Y-97630490D01*
X161985347Y-97635814D01*
X162005976Y-97643195D01*
X162025782Y-97652563D01*
X162044575Y-97663827D01*
X162062174Y-97676878D01*
X162078408Y-97691592D01*
X162093122Y-97707826D01*
X162106173Y-97725425D01*
X162117437Y-97744218D01*
X162126805Y-97764024D01*
X162134186Y-97784653D01*
X162139510Y-97805907D01*
X162142725Y-97827579D01*
X162143800Y-97849463D01*
X162143800Y-99000537D01*
X162142725Y-99022421D01*
X162139510Y-99044093D01*
X162134186Y-99065347D01*
X162126805Y-99085976D01*
X162117437Y-99105782D01*
X162106173Y-99124575D01*
X162093122Y-99142174D01*
X162078408Y-99158408D01*
X162062174Y-99173122D01*
X162044575Y-99186173D01*
X162025782Y-99197437D01*
X162005976Y-99206805D01*
X161985347Y-99214186D01*
X161964093Y-99219510D01*
X161942421Y-99222725D01*
X161920537Y-99223800D01*
X161094463Y-99223800D01*
X161072579Y-99222725D01*
X161050907Y-99219510D01*
X161029653Y-99214186D01*
X161009024Y-99206805D01*
X160989218Y-99197437D01*
X160970425Y-99186173D01*
X160952826Y-99173122D01*
X160936592Y-99158408D01*
X160921878Y-99142174D01*
X160908827Y-99124575D01*
X160897563Y-99105782D01*
X160888195Y-99085976D01*
X160880814Y-99065347D01*
X160875490Y-99044093D01*
X160872275Y-99022421D01*
X160871200Y-99000537D01*
X160871200Y-97849463D01*
X160872275Y-97827579D01*
X160875490Y-97805907D01*
X160880814Y-97784653D01*
X160888195Y-97764024D01*
X160897563Y-97744218D01*
X160908827Y-97725425D01*
X160921878Y-97707826D01*
X160936592Y-97691592D01*
X160952826Y-97676878D01*
X160970425Y-97663827D01*
X160989218Y-97652563D01*
X161009024Y-97643195D01*
X161029653Y-97635814D01*
X161050907Y-97630490D01*
X161072579Y-97627275D01*
X161094463Y-97626200D01*
X161920537Y-97626200D01*
X161942421Y-97627275D01*
G37*
D11*
X160090400Y-106019600D03*
X160090400Y-107289600D03*
X160090400Y-108559600D03*
X160090400Y-109829600D03*
X160090400Y-111099600D03*
X160090400Y-112369600D03*
X160090400Y-113639600D03*
X154666400Y-113639600D03*
X154666400Y-112369600D03*
X154666400Y-111099600D03*
X154666400Y-109829600D03*
X154666400Y-108559600D03*
X154666400Y-107289600D03*
X154666400Y-106019600D03*
M02*
