G04 #@! TF.GenerationSoftware,KiCad,Pcbnew,5.1.5-52549c5~84~ubuntu18.04.1*
G04 #@! TF.CreationDate,2019-12-24T12:24:14-07:00*
G04 #@! TF.ProjectId,001,3030312e-6b69-4636-9164-5f7063625858,rev?*
G04 #@! TF.SameCoordinates,Original*
G04 #@! TF.FileFunction,Legend,Bot*
G04 #@! TF.FilePolarity,Positive*
%FSLAX46Y46*%
G04 Gerber Fmt 4.6, Leading zero omitted, Abs format (unit mm)*
G04 Created by KiCad (PCBNEW 5.1.5-52549c5~84~ubuntu18.04.1) date 2019-12-24 12:24:14*
%MOMM*%
%LPD*%
G04 APERTURE LIST*
%ADD10C,0.200000*%
G04 APERTURE END LIST*
D10*
X161739304Y-102317904D02*
X160939304Y-102317904D01*
X160939304Y-102508380D01*
X160977400Y-102622666D01*
X161053590Y-102698857D01*
X161129780Y-102736952D01*
X161282161Y-102775047D01*
X161396447Y-102775047D01*
X161548828Y-102736952D01*
X161625019Y-102698857D01*
X161701209Y-102622666D01*
X161739304Y-102508380D01*
X161739304Y-102317904D01*
X161701209Y-103422666D02*
X161739304Y-103346476D01*
X161739304Y-103194095D01*
X161701209Y-103117904D01*
X161625019Y-103079809D01*
X161320257Y-103079809D01*
X161244066Y-103117904D01*
X161205971Y-103194095D01*
X161205971Y-103346476D01*
X161244066Y-103422666D01*
X161320257Y-103460761D01*
X161396447Y-103460761D01*
X161472638Y-103079809D01*
X161205971Y-103727428D02*
X161739304Y-103917904D01*
X161205971Y-104108380D01*
X161701209Y-104717904D02*
X161739304Y-104641714D01*
X161739304Y-104489333D01*
X161701209Y-104413142D01*
X161625019Y-104375047D01*
X161320257Y-104375047D01*
X161244066Y-104413142D01*
X161205971Y-104489333D01*
X161205971Y-104641714D01*
X161244066Y-104717904D01*
X161320257Y-104756000D01*
X161396447Y-104756000D01*
X161472638Y-104375047D01*
X161739304Y-105213142D02*
X161701209Y-105136952D01*
X161625019Y-105098857D01*
X160939304Y-105098857D01*
X161739304Y-105632190D02*
X161701209Y-105556000D01*
X161663114Y-105517904D01*
X161586923Y-105479809D01*
X161358352Y-105479809D01*
X161282161Y-105517904D01*
X161244066Y-105556000D01*
X161205971Y-105632190D01*
X161205971Y-105746476D01*
X161244066Y-105822666D01*
X161282161Y-105860761D01*
X161358352Y-105898857D01*
X161586923Y-105898857D01*
X161663114Y-105860761D01*
X161701209Y-105822666D01*
X161739304Y-105746476D01*
X161739304Y-105632190D01*
X161205971Y-106241714D02*
X162005971Y-106241714D01*
X161244066Y-106241714D02*
X161205971Y-106317904D01*
X161205971Y-106470285D01*
X161244066Y-106546476D01*
X161282161Y-106584571D01*
X161358352Y-106622666D01*
X161586923Y-106622666D01*
X161663114Y-106584571D01*
X161701209Y-106546476D01*
X161739304Y-106470285D01*
X161739304Y-106317904D01*
X161701209Y-106241714D01*
X161701209Y-107270285D02*
X161739304Y-107194095D01*
X161739304Y-107041714D01*
X161701209Y-106965523D01*
X161625019Y-106927428D01*
X161320257Y-106927428D01*
X161244066Y-106965523D01*
X161205971Y-107041714D01*
X161205971Y-107194095D01*
X161244066Y-107270285D01*
X161320257Y-107308380D01*
X161396447Y-107308380D01*
X161472638Y-106927428D01*
X161739304Y-107994095D02*
X160939304Y-107994095D01*
X161701209Y-107994095D02*
X161739304Y-107917904D01*
X161739304Y-107765523D01*
X161701209Y-107689333D01*
X161663114Y-107651238D01*
X161586923Y-107613142D01*
X161358352Y-107613142D01*
X161282161Y-107651238D01*
X161244066Y-107689333D01*
X161205971Y-107765523D01*
X161205971Y-107917904D01*
X161244066Y-107994095D01*
X163139304Y-104679809D02*
X162339304Y-104679809D01*
X162644066Y-104679809D02*
X162605971Y-104756000D01*
X162605971Y-104908380D01*
X162644066Y-104984571D01*
X162682161Y-105022666D01*
X162758352Y-105060761D01*
X162986923Y-105060761D01*
X163063114Y-105022666D01*
X163101209Y-104984571D01*
X163139304Y-104908380D01*
X163139304Y-104756000D01*
X163101209Y-104679809D01*
X162605971Y-105327428D02*
X163139304Y-105517904D01*
X162605971Y-105708380D02*
X163139304Y-105517904D01*
X163329780Y-105441714D01*
X163367876Y-105403619D01*
X163405971Y-105327428D01*
M02*
