G04 #@! TF.GenerationSoftware,KiCad,Pcbnew,5.1.4-e60b266~84~ubuntu18.04.1*
G04 #@! TF.CreationDate,2019-10-18T09:02:20-06:00*
G04 #@! TF.ProjectId,001,3030312e-6b69-4636-9164-5f7063625858,rev?*
G04 #@! TF.SameCoordinates,Original*
G04 #@! TF.FileFunction,Legend,Bot*
G04 #@! TF.FilePolarity,Positive*
%FSLAX46Y46*%
G04 Gerber Fmt 4.6, Leading zero omitted, Abs format (unit mm)*
G04 Created by KiCad (PCBNEW 5.1.4-e60b266~84~ubuntu18.04.1) date 2019-10-18 09:02:20*
%MOMM*%
%LPD*%
G04 APERTURE LIST*
%ADD10C,0.150000*%
%ADD11C,0.010000*%
G04 APERTURE END LIST*
D10*
X147870751Y-101826111D02*
X148470751Y-101826111D01*
X148470751Y-101683254D01*
X148442180Y-101597540D01*
X148385037Y-101540397D01*
X148327894Y-101511825D01*
X148213608Y-101483254D01*
X148127894Y-101483254D01*
X148013608Y-101511825D01*
X147956465Y-101540397D01*
X147899322Y-101597540D01*
X147870751Y-101683254D01*
X147870751Y-101826111D01*
X147899322Y-100997540D02*
X147870751Y-101054682D01*
X147870751Y-101168968D01*
X147899322Y-101226111D01*
X147956465Y-101254682D01*
X148185037Y-101254682D01*
X148242180Y-101226111D01*
X148270751Y-101168968D01*
X148270751Y-101054682D01*
X148242180Y-100997540D01*
X148185037Y-100968968D01*
X148127894Y-100968968D01*
X148070751Y-101254682D01*
X148270751Y-100768968D02*
X147870751Y-100626111D01*
X148270751Y-100483254D01*
X147899322Y-100026111D02*
X147870751Y-100083254D01*
X147870751Y-100197540D01*
X147899322Y-100254682D01*
X147956465Y-100283254D01*
X148185037Y-100283254D01*
X148242180Y-100254682D01*
X148270751Y-100197540D01*
X148270751Y-100083254D01*
X148242180Y-100026111D01*
X148185037Y-99997540D01*
X148127894Y-99997540D01*
X148070751Y-100283254D01*
X147870751Y-99654682D02*
X147899322Y-99711825D01*
X147956465Y-99740397D01*
X148470751Y-99740397D01*
X147870751Y-99340397D02*
X147899322Y-99397540D01*
X147927894Y-99426111D01*
X147985037Y-99454682D01*
X148156465Y-99454682D01*
X148213608Y-99426111D01*
X148242180Y-99397540D01*
X148270751Y-99340397D01*
X148270751Y-99254682D01*
X148242180Y-99197540D01*
X148213608Y-99168968D01*
X148156465Y-99140397D01*
X147985037Y-99140397D01*
X147927894Y-99168968D01*
X147899322Y-99197540D01*
X147870751Y-99254682D01*
X147870751Y-99340397D01*
X148270751Y-98883254D02*
X147670751Y-98883254D01*
X148242180Y-98883254D02*
X148270751Y-98826111D01*
X148270751Y-98711825D01*
X148242180Y-98654682D01*
X148213608Y-98626111D01*
X148156465Y-98597540D01*
X147985037Y-98597540D01*
X147927894Y-98626111D01*
X147899322Y-98654682D01*
X147870751Y-98711825D01*
X147870751Y-98826111D01*
X147899322Y-98883254D01*
X147899322Y-98111825D02*
X147870751Y-98168968D01*
X147870751Y-98283254D01*
X147899322Y-98340397D01*
X147956465Y-98368968D01*
X148185037Y-98368968D01*
X148242180Y-98340397D01*
X148270751Y-98283254D01*
X148270751Y-98168968D01*
X148242180Y-98111825D01*
X148185037Y-98083254D01*
X148127894Y-98083254D01*
X148070751Y-98368968D01*
X147870751Y-97568968D02*
X148470751Y-97568968D01*
X147899322Y-97568968D02*
X147870751Y-97626111D01*
X147870751Y-97740397D01*
X147899322Y-97797540D01*
X147927894Y-97826111D01*
X147985037Y-97854682D01*
X148156465Y-97854682D01*
X148213608Y-97826111D01*
X148242180Y-97797540D01*
X148270751Y-97740397D01*
X148270751Y-97626111D01*
X148242180Y-97568968D01*
X146820751Y-100054682D02*
X147420751Y-100054682D01*
X147192180Y-100054682D02*
X147220751Y-99997540D01*
X147220751Y-99883254D01*
X147192180Y-99826111D01*
X147163608Y-99797540D01*
X147106465Y-99768968D01*
X146935037Y-99768968D01*
X146877894Y-99797540D01*
X146849322Y-99826111D01*
X146820751Y-99883254D01*
X146820751Y-99997540D01*
X146849322Y-100054682D01*
X147220751Y-99568968D02*
X146820751Y-99426111D01*
X147220751Y-99283254D02*
X146820751Y-99426111D01*
X146677894Y-99483254D01*
X146649322Y-99511825D01*
X146620751Y-99568968D01*
D11*
G36*
X146141151Y-99164347D02*
G01*
X146092384Y-99183594D01*
X146024615Y-99203192D01*
X145949164Y-99219502D01*
X145931302Y-99222502D01*
X145854576Y-99245731D01*
X145789061Y-99284090D01*
X145783136Y-99289239D01*
X145726150Y-99341624D01*
X145898968Y-99329161D01*
X145984607Y-99323656D01*
X146038856Y-99323750D01*
X146072520Y-99331649D01*
X146096408Y-99349559D01*
X146116533Y-99373585D01*
X146142198Y-99415562D01*
X146146342Y-99443739D01*
X146144799Y-99445768D01*
X146120046Y-99460350D01*
X146065140Y-99488502D01*
X145988376Y-99526079D01*
X145904213Y-99566047D01*
X145808086Y-99610643D01*
X145741442Y-99639250D01*
X145695518Y-99654021D01*
X145661548Y-99657109D01*
X145630766Y-99650666D01*
X145602588Y-99640112D01*
X145544723Y-99609036D01*
X145526372Y-99575427D01*
X145541266Y-99539362D01*
X145571159Y-99517664D01*
X145618587Y-99497028D01*
X145672060Y-99471481D01*
X145683497Y-99443774D01*
X145653197Y-99411630D01*
X145631514Y-99398182D01*
X145582286Y-99355350D01*
X145554377Y-99304618D01*
X145550765Y-99260661D01*
X145570810Y-99222448D01*
X145605606Y-99187909D01*
X145643308Y-99157952D01*
X145686184Y-99133939D01*
X145742995Y-99112692D01*
X145822502Y-99091037D01*
X145933468Y-99065800D01*
X145955936Y-99060958D01*
X146025455Y-99047103D01*
X146066671Y-99044593D01*
X146092565Y-99055410D01*
X146116119Y-99081534D01*
X146119507Y-99085926D01*
X146147591Y-99125688D01*
X146159595Y-99149062D01*
X146159596Y-99149093D01*
X146141151Y-99164347D01*
X146141151Y-99164347D01*
G37*
X146141151Y-99164347D02*
X146092384Y-99183594D01*
X146024615Y-99203192D01*
X145949164Y-99219502D01*
X145931302Y-99222502D01*
X145854576Y-99245731D01*
X145789061Y-99284090D01*
X145783136Y-99289239D01*
X145726150Y-99341624D01*
X145898968Y-99329161D01*
X145984607Y-99323656D01*
X146038856Y-99323750D01*
X146072520Y-99331649D01*
X146096408Y-99349559D01*
X146116533Y-99373585D01*
X146142198Y-99415562D01*
X146146342Y-99443739D01*
X146144799Y-99445768D01*
X146120046Y-99460350D01*
X146065140Y-99488502D01*
X145988376Y-99526079D01*
X145904213Y-99566047D01*
X145808086Y-99610643D01*
X145741442Y-99639250D01*
X145695518Y-99654021D01*
X145661548Y-99657109D01*
X145630766Y-99650666D01*
X145602588Y-99640112D01*
X145544723Y-99609036D01*
X145526372Y-99575427D01*
X145541266Y-99539362D01*
X145571159Y-99517664D01*
X145618587Y-99497028D01*
X145672060Y-99471481D01*
X145683497Y-99443774D01*
X145653197Y-99411630D01*
X145631514Y-99398182D01*
X145582286Y-99355350D01*
X145554377Y-99304618D01*
X145550765Y-99260661D01*
X145570810Y-99222448D01*
X145605606Y-99187909D01*
X145643308Y-99157952D01*
X145686184Y-99133939D01*
X145742995Y-99112692D01*
X145822502Y-99091037D01*
X145933468Y-99065800D01*
X145955936Y-99060958D01*
X146025455Y-99047103D01*
X146066671Y-99044593D01*
X146092565Y-99055410D01*
X146116119Y-99081534D01*
X146119507Y-99085926D01*
X146147591Y-99125688D01*
X146159595Y-99149062D01*
X146159596Y-99149093D01*
X146141151Y-99164347D01*
G36*
X146140916Y-100216970D02*
G01*
X146130889Y-100289167D01*
X146114195Y-100371333D01*
X146094068Y-100450819D01*
X146073742Y-100514974D01*
X146056451Y-100551148D01*
X146055098Y-100552655D01*
X146021412Y-100564156D01*
X145966789Y-100550484D01*
X145921566Y-100538182D01*
X145879016Y-100542436D01*
X145822183Y-100565861D01*
X145802011Y-100575903D01*
X145706813Y-100609904D01*
X145624120Y-100611759D01*
X145560346Y-100582217D01*
X145530885Y-100544229D01*
X145515722Y-100508753D01*
X145508772Y-100471227D01*
X145509790Y-100420289D01*
X145518532Y-100344579D01*
X145525546Y-100295108D01*
X145541841Y-100222788D01*
X145565273Y-100162823D01*
X145579258Y-100141478D01*
X145609716Y-100113830D01*
X145634432Y-100117906D01*
X145654102Y-100134145D01*
X145673772Y-100158865D01*
X145683093Y-100194611D01*
X145683587Y-100252587D01*
X145679048Y-100317790D01*
X145673442Y-100395265D01*
X145673872Y-100438647D01*
X145681772Y-100455923D01*
X145698571Y-100455084D01*
X145703347Y-100453360D01*
X145738661Y-100441399D01*
X145749048Y-100439220D01*
X145754385Y-100420312D01*
X145757537Y-100372601D01*
X145757900Y-100346315D01*
X145771177Y-100255229D01*
X145798214Y-100203624D01*
X145828463Y-100170462D01*
X145851068Y-100168446D01*
X145881257Y-100192506D01*
X145911645Y-100235813D01*
X145913661Y-100294407D01*
X145912693Y-100300756D01*
X145911043Y-100352685D01*
X145922725Y-100383413D01*
X145923913Y-100384251D01*
X145938145Y-100383033D01*
X145953175Y-100357922D01*
X145971008Y-100303612D01*
X145993646Y-100214798D01*
X146003063Y-100174637D01*
X146030538Y-100100357D01*
X146064990Y-100063995D01*
X146099582Y-100063451D01*
X146127478Y-100096626D01*
X146141842Y-100161420D01*
X146140916Y-100216970D01*
X146140916Y-100216970D01*
G37*
X146140916Y-100216970D02*
X146130889Y-100289167D01*
X146114195Y-100371333D01*
X146094068Y-100450819D01*
X146073742Y-100514974D01*
X146056451Y-100551148D01*
X146055098Y-100552655D01*
X146021412Y-100564156D01*
X145966789Y-100550484D01*
X145921566Y-100538182D01*
X145879016Y-100542436D01*
X145822183Y-100565861D01*
X145802011Y-100575903D01*
X145706813Y-100609904D01*
X145624120Y-100611759D01*
X145560346Y-100582217D01*
X145530885Y-100544229D01*
X145515722Y-100508753D01*
X145508772Y-100471227D01*
X145509790Y-100420289D01*
X145518532Y-100344579D01*
X145525546Y-100295108D01*
X145541841Y-100222788D01*
X145565273Y-100162823D01*
X145579258Y-100141478D01*
X145609716Y-100113830D01*
X145634432Y-100117906D01*
X145654102Y-100134145D01*
X145673772Y-100158865D01*
X145683093Y-100194611D01*
X145683587Y-100252587D01*
X145679048Y-100317790D01*
X145673442Y-100395265D01*
X145673872Y-100438647D01*
X145681772Y-100455923D01*
X145698571Y-100455084D01*
X145703347Y-100453360D01*
X145738661Y-100441399D01*
X145749048Y-100439220D01*
X145754385Y-100420312D01*
X145757537Y-100372601D01*
X145757900Y-100346315D01*
X145771177Y-100255229D01*
X145798214Y-100203624D01*
X145828463Y-100170462D01*
X145851068Y-100168446D01*
X145881257Y-100192506D01*
X145911645Y-100235813D01*
X145913661Y-100294407D01*
X145912693Y-100300756D01*
X145911043Y-100352685D01*
X145922725Y-100383413D01*
X145923913Y-100384251D01*
X145938145Y-100383033D01*
X145953175Y-100357922D01*
X145971008Y-100303612D01*
X145993646Y-100214798D01*
X146003063Y-100174637D01*
X146030538Y-100100357D01*
X146064990Y-100063995D01*
X146099582Y-100063451D01*
X146127478Y-100096626D01*
X146141842Y-100161420D01*
X146140916Y-100216970D01*
G36*
X146135306Y-98732504D02*
G01*
X146109535Y-98756470D01*
X146068500Y-98801463D01*
X146045781Y-98843016D01*
X146020131Y-98872830D01*
X145964529Y-98910703D01*
X145888903Y-98952148D01*
X145803185Y-98992682D01*
X145717305Y-99027821D01*
X145641193Y-99053080D01*
X145584782Y-99063975D01*
X145562996Y-99061029D01*
X145526403Y-99026162D01*
X145528821Y-98985516D01*
X145568272Y-98943902D01*
X145623516Y-98913849D01*
X145679921Y-98888017D01*
X145702565Y-98870537D01*
X145697250Y-98854701D01*
X145684025Y-98843906D01*
X145659268Y-98814382D01*
X145655985Y-98768860D01*
X145660618Y-98738692D01*
X145663312Y-98687363D01*
X145652384Y-98660204D01*
X145633790Y-98663708D01*
X145617770Y-98691974D01*
X145601155Y-98711482D01*
X145569291Y-98699792D01*
X145565927Y-98697721D01*
X145522804Y-98658332D01*
X145518869Y-98613453D01*
X145530754Y-98585858D01*
X145571516Y-98534121D01*
X145627138Y-98514519D01*
X145650400Y-98513377D01*
X145707266Y-98498972D01*
X145739961Y-98478382D01*
X145774980Y-98455950D01*
X145805348Y-98466353D01*
X145810420Y-98470390D01*
X145837527Y-98506232D01*
X145842567Y-98525825D01*
X145846749Y-98542236D01*
X145849413Y-98544188D01*
X145849413Y-98702663D01*
X145812715Y-98716702D01*
X145800233Y-98756470D01*
X145804121Y-98796289D01*
X145811562Y-98809387D01*
X145835521Y-98798960D01*
X145876325Y-98774375D01*
X145910342Y-98746220D01*
X145908473Y-98726652D01*
X145902038Y-98721782D01*
X145849413Y-98702663D01*
X145849413Y-98544188D01*
X145864621Y-98555333D01*
X145904177Y-98568121D01*
X145973408Y-98583606D01*
X146022313Y-98593431D01*
X146095095Y-98620043D01*
X146133348Y-98662132D01*
X146147959Y-98702430D01*
X146135306Y-98732504D01*
X146135306Y-98732504D01*
G37*
X146135306Y-98732504D02*
X146109535Y-98756470D01*
X146068500Y-98801463D01*
X146045781Y-98843016D01*
X146020131Y-98872830D01*
X145964529Y-98910703D01*
X145888903Y-98952148D01*
X145803185Y-98992682D01*
X145717305Y-99027821D01*
X145641193Y-99053080D01*
X145584782Y-99063975D01*
X145562996Y-99061029D01*
X145526403Y-99026162D01*
X145528821Y-98985516D01*
X145568272Y-98943902D01*
X145623516Y-98913849D01*
X145679921Y-98888017D01*
X145702565Y-98870537D01*
X145697250Y-98854701D01*
X145684025Y-98843906D01*
X145659268Y-98814382D01*
X145655985Y-98768860D01*
X145660618Y-98738692D01*
X145663312Y-98687363D01*
X145652384Y-98660204D01*
X145633790Y-98663708D01*
X145617770Y-98691974D01*
X145601155Y-98711482D01*
X145569291Y-98699792D01*
X145565927Y-98697721D01*
X145522804Y-98658332D01*
X145518869Y-98613453D01*
X145530754Y-98585858D01*
X145571516Y-98534121D01*
X145627138Y-98514519D01*
X145650400Y-98513377D01*
X145707266Y-98498972D01*
X145739961Y-98478382D01*
X145774980Y-98455950D01*
X145805348Y-98466353D01*
X145810420Y-98470390D01*
X145837527Y-98506232D01*
X145842567Y-98525825D01*
X145846749Y-98542236D01*
X145849413Y-98544188D01*
X145849413Y-98702663D01*
X145812715Y-98716702D01*
X145800233Y-98756470D01*
X145804121Y-98796289D01*
X145811562Y-98809387D01*
X145835521Y-98798960D01*
X145876325Y-98774375D01*
X145910342Y-98746220D01*
X145908473Y-98726652D01*
X145902038Y-98721782D01*
X145849413Y-98702663D01*
X145849413Y-98544188D01*
X145864621Y-98555333D01*
X145904177Y-98568121D01*
X145973408Y-98583606D01*
X146022313Y-98593431D01*
X146095095Y-98620043D01*
X146133348Y-98662132D01*
X146147959Y-98702430D01*
X146135306Y-98732504D01*
G36*
X146129862Y-98049313D02*
G01*
X146097020Y-98102997D01*
X146029405Y-98198008D01*
X145952983Y-98286941D01*
X145876725Y-98360529D01*
X145809602Y-98409502D01*
X145791818Y-98418335D01*
X145707901Y-98432137D01*
X145621235Y-98410041D01*
X145561983Y-98370819D01*
X145539425Y-98344566D01*
X145528618Y-98310021D01*
X145527475Y-98254949D01*
X145531677Y-98193137D01*
X145545346Y-98096942D01*
X145569214Y-97987607D01*
X145593499Y-97903428D01*
X145615338Y-97833592D01*
X145627760Y-97784056D01*
X145628621Y-97763701D01*
X145627159Y-97763949D01*
X145597683Y-97763061D01*
X145566553Y-97750600D01*
X145530981Y-97715023D01*
X145531913Y-97673101D01*
X145566508Y-97634112D01*
X145608456Y-97613792D01*
X145656789Y-97591387D01*
X145687234Y-97566304D01*
X145693072Y-97546394D01*
X145672120Y-97539387D01*
X145656860Y-97524943D01*
X145655520Y-97478023D01*
X145659368Y-97444137D01*
X145661918Y-97385446D01*
X145653228Y-97351263D01*
X145637148Y-97347554D01*
X145617770Y-97379640D01*
X145601155Y-97399149D01*
X145569291Y-97387458D01*
X145565927Y-97385387D01*
X145523384Y-97346636D01*
X145520229Y-97303186D01*
X145548952Y-97254987D01*
X145607001Y-97209445D01*
X145651011Y-97200720D01*
X145704271Y-97190009D01*
X145736733Y-97168970D01*
X145769737Y-97141005D01*
X145798311Y-97149333D01*
X145829676Y-97196280D01*
X145831302Y-97199402D01*
X145837589Y-97208324D01*
X145837589Y-97394229D01*
X145809047Y-97405942D01*
X145800312Y-97448942D01*
X145800233Y-97456161D01*
X145800233Y-97521102D01*
X145867096Y-97473492D01*
X145908043Y-97442030D01*
X145917100Y-97424462D01*
X145898003Y-97411824D01*
X145893554Y-97410039D01*
X145837589Y-97394229D01*
X145837589Y-97208324D01*
X145860207Y-97240422D01*
X145902370Y-97263489D01*
X145964137Y-97276191D01*
X146031591Y-97288564D01*
X146085046Y-97302850D01*
X146099215Y-97308588D01*
X146137850Y-97348195D01*
X146142567Y-97400054D01*
X146113008Y-97448226D01*
X146073773Y-97494145D01*
X146054018Y-97529649D01*
X146026839Y-97560786D01*
X145970895Y-97600540D01*
X145896611Y-97641521D01*
X145895558Y-97642035D01*
X145823768Y-97678267D01*
X145784481Y-97702959D01*
X145771565Y-97721875D01*
X145778890Y-97740778D01*
X145783874Y-97747022D01*
X145813357Y-97787843D01*
X145849932Y-97845949D01*
X145860757Y-97864506D01*
X145889440Y-97933640D01*
X145883968Y-97978915D01*
X145845084Y-97998989D01*
X145788137Y-97995583D01*
X145739857Y-97991155D01*
X145716888Y-98006964D01*
X145708588Y-98031007D01*
X145693428Y-98105732D01*
X145683204Y-98181229D01*
X145678774Y-98246296D01*
X145680997Y-98289730D01*
X145687863Y-98301387D01*
X145725726Y-98285008D01*
X145778403Y-98241547D01*
X145837794Y-98179517D01*
X145895799Y-98107433D01*
X145944317Y-98033807D01*
X145947076Y-98028946D01*
X145998754Y-97948203D01*
X146042679Y-97906958D01*
X146082052Y-97903818D01*
X146120075Y-97937390D01*
X146128789Y-97949887D01*
X146145956Y-97981221D01*
X146147217Y-98010010D01*
X146129862Y-98049313D01*
X146129862Y-98049313D01*
G37*
X146129862Y-98049313D02*
X146097020Y-98102997D01*
X146029405Y-98198008D01*
X145952983Y-98286941D01*
X145876725Y-98360529D01*
X145809602Y-98409502D01*
X145791818Y-98418335D01*
X145707901Y-98432137D01*
X145621235Y-98410041D01*
X145561983Y-98370819D01*
X145539425Y-98344566D01*
X145528618Y-98310021D01*
X145527475Y-98254949D01*
X145531677Y-98193137D01*
X145545346Y-98096942D01*
X145569214Y-97987607D01*
X145593499Y-97903428D01*
X145615338Y-97833592D01*
X145627760Y-97784056D01*
X145628621Y-97763701D01*
X145627159Y-97763949D01*
X145597683Y-97763061D01*
X145566553Y-97750600D01*
X145530981Y-97715023D01*
X145531913Y-97673101D01*
X145566508Y-97634112D01*
X145608456Y-97613792D01*
X145656789Y-97591387D01*
X145687234Y-97566304D01*
X145693072Y-97546394D01*
X145672120Y-97539387D01*
X145656860Y-97524943D01*
X145655520Y-97478023D01*
X145659368Y-97444137D01*
X145661918Y-97385446D01*
X145653228Y-97351263D01*
X145637148Y-97347554D01*
X145617770Y-97379640D01*
X145601155Y-97399149D01*
X145569291Y-97387458D01*
X145565927Y-97385387D01*
X145523384Y-97346636D01*
X145520229Y-97303186D01*
X145548952Y-97254987D01*
X145607001Y-97209445D01*
X145651011Y-97200720D01*
X145704271Y-97190009D01*
X145736733Y-97168970D01*
X145769737Y-97141005D01*
X145798311Y-97149333D01*
X145829676Y-97196280D01*
X145831302Y-97199402D01*
X145837589Y-97208324D01*
X145837589Y-97394229D01*
X145809047Y-97405942D01*
X145800312Y-97448942D01*
X145800233Y-97456161D01*
X145800233Y-97521102D01*
X145867096Y-97473492D01*
X145908043Y-97442030D01*
X145917100Y-97424462D01*
X145898003Y-97411824D01*
X145893554Y-97410039D01*
X145837589Y-97394229D01*
X145837589Y-97208324D01*
X145860207Y-97240422D01*
X145902370Y-97263489D01*
X145964137Y-97276191D01*
X146031591Y-97288564D01*
X146085046Y-97302850D01*
X146099215Y-97308588D01*
X146137850Y-97348195D01*
X146142567Y-97400054D01*
X146113008Y-97448226D01*
X146073773Y-97494145D01*
X146054018Y-97529649D01*
X146026839Y-97560786D01*
X145970895Y-97600540D01*
X145896611Y-97641521D01*
X145895558Y-97642035D01*
X145823768Y-97678267D01*
X145784481Y-97702959D01*
X145771565Y-97721875D01*
X145778890Y-97740778D01*
X145783874Y-97747022D01*
X145813357Y-97787843D01*
X145849932Y-97845949D01*
X145860757Y-97864506D01*
X145889440Y-97933640D01*
X145883968Y-97978915D01*
X145845084Y-97998989D01*
X145788137Y-97995583D01*
X145739857Y-97991155D01*
X145716888Y-98006964D01*
X145708588Y-98031007D01*
X145693428Y-98105732D01*
X145683204Y-98181229D01*
X145678774Y-98246296D01*
X145680997Y-98289730D01*
X145687863Y-98301387D01*
X145725726Y-98285008D01*
X145778403Y-98241547D01*
X145837794Y-98179517D01*
X145895799Y-98107433D01*
X145944317Y-98033807D01*
X145947076Y-98028946D01*
X145998754Y-97948203D01*
X146042679Y-97906958D01*
X146082052Y-97903818D01*
X146120075Y-97937390D01*
X146128789Y-97949887D01*
X146145956Y-97981221D01*
X146147217Y-98010010D01*
X146129862Y-98049313D01*
G36*
X146271402Y-100968345D02*
G01*
X146222729Y-101030281D01*
X146173553Y-101069862D01*
X146118947Y-101115964D01*
X146087349Y-101156804D01*
X146082988Y-101173596D01*
X146075074Y-101196018D01*
X146042379Y-101215258D01*
X145977678Y-101234914D01*
X145943070Y-101243271D01*
X145868704Y-101261132D01*
X145829110Y-101274320D01*
X145817786Y-101287558D01*
X145828225Y-101305568D01*
X145839903Y-101318186D01*
X145873876Y-101361296D01*
X145915092Y-101423406D01*
X145934784Y-101456384D01*
X145966115Y-101514909D01*
X145976947Y-101551572D01*
X145969592Y-101580173D01*
X145958438Y-101597742D01*
X145929967Y-101627318D01*
X145893576Y-101631369D01*
X145858444Y-101623036D01*
X145807887Y-101609614D01*
X145777198Y-101603433D01*
X145776088Y-101603387D01*
X145765805Y-101622430D01*
X145752667Y-101671677D01*
X145738877Y-101739301D01*
X145726642Y-101813475D01*
X145718167Y-101882373D01*
X145715567Y-101927912D01*
X145722937Y-101969353D01*
X145738427Y-101984387D01*
X145770328Y-101968454D01*
X145819575Y-101925987D01*
X145879023Y-101864979D01*
X145941526Y-101793424D01*
X145999937Y-101719315D01*
X146047111Y-101650647D01*
X146065431Y-101618577D01*
X146103030Y-101550706D01*
X146132199Y-101514357D01*
X146160371Y-101501804D01*
X146177465Y-101502160D01*
X146223544Y-101523827D01*
X146260058Y-101563569D01*
X146276395Y-101595003D01*
X146279182Y-101623465D01*
X146265684Y-101660579D01*
X146233165Y-101717968D01*
X146217701Y-101743486D01*
X146106745Y-101905131D01*
X145995088Y-102027251D01*
X145896056Y-102101587D01*
X145834806Y-102133585D01*
X145786442Y-102144445D01*
X145729642Y-102137970D01*
X145712625Y-102134313D01*
X145626808Y-102100726D01*
X145570030Y-102055321D01*
X145542465Y-102018334D01*
X145529214Y-101980388D01*
X145527403Y-101926860D01*
X145532238Y-101863206D01*
X145548678Y-101751522D01*
X145576397Y-101628363D01*
X145611317Y-101508288D01*
X145649358Y-101405855D01*
X145675099Y-101353406D01*
X145695610Y-101312704D01*
X145697944Y-101295524D01*
X145694023Y-101296703D01*
X145655625Y-101301421D01*
X145603948Y-101287870D01*
X145555609Y-101263101D01*
X145527223Y-101234170D01*
X145525067Y-101224978D01*
X145543557Y-101172442D01*
X145589655Y-101141183D01*
X145613967Y-101137720D01*
X145647231Y-101129957D01*
X145644241Y-101104551D01*
X145621989Y-101075887D01*
X145594595Y-101032569D01*
X145561863Y-100962763D01*
X145529668Y-100880800D01*
X145503886Y-100801014D01*
X145495337Y-100766891D01*
X145494893Y-100697787D01*
X145509768Y-100664339D01*
X145553019Y-100634230D01*
X145602558Y-100636972D01*
X145642483Y-100669362D01*
X145653209Y-100693220D01*
X145668730Y-100748808D01*
X145687730Y-100818080D01*
X145691294Y-100831210D01*
X145713549Y-100896416D01*
X145739353Y-100949773D01*
X145744606Y-100957675D01*
X145764184Y-100980227D01*
X145777436Y-100975735D01*
X145791030Y-100938396D01*
X145798693Y-100910606D01*
X145834585Y-100820638D01*
X145885426Y-100748976D01*
X145943719Y-100704250D01*
X145987323Y-100693568D01*
X146015381Y-100699785D01*
X146015381Y-100875049D01*
X145995610Y-100882974D01*
X145973679Y-100921618D01*
X145964830Y-100940835D01*
X145937478Y-101005492D01*
X145930156Y-101038133D01*
X145942844Y-101044029D01*
X145964512Y-101034592D01*
X146006656Y-101003942D01*
X146043606Y-100968435D01*
X146071544Y-100934510D01*
X146070917Y-100914255D01*
X146043369Y-100891298D01*
X146015381Y-100875049D01*
X146015381Y-100699785D01*
X146055627Y-100708705D01*
X146134513Y-100747159D01*
X146207661Y-100799560D01*
X146250792Y-100844836D01*
X146280342Y-100907737D01*
X146271402Y-100968345D01*
X146271402Y-100968345D01*
G37*
X146271402Y-100968345D02*
X146222729Y-101030281D01*
X146173553Y-101069862D01*
X146118947Y-101115964D01*
X146087349Y-101156804D01*
X146082988Y-101173596D01*
X146075074Y-101196018D01*
X146042379Y-101215258D01*
X145977678Y-101234914D01*
X145943070Y-101243271D01*
X145868704Y-101261132D01*
X145829110Y-101274320D01*
X145817786Y-101287558D01*
X145828225Y-101305568D01*
X145839903Y-101318186D01*
X145873876Y-101361296D01*
X145915092Y-101423406D01*
X145934784Y-101456384D01*
X145966115Y-101514909D01*
X145976947Y-101551572D01*
X145969592Y-101580173D01*
X145958438Y-101597742D01*
X145929967Y-101627318D01*
X145893576Y-101631369D01*
X145858444Y-101623036D01*
X145807887Y-101609614D01*
X145777198Y-101603433D01*
X145776088Y-101603387D01*
X145765805Y-101622430D01*
X145752667Y-101671677D01*
X145738877Y-101739301D01*
X145726642Y-101813475D01*
X145718167Y-101882373D01*
X145715567Y-101927912D01*
X145722937Y-101969353D01*
X145738427Y-101984387D01*
X145770328Y-101968454D01*
X145819575Y-101925987D01*
X145879023Y-101864979D01*
X145941526Y-101793424D01*
X145999937Y-101719315D01*
X146047111Y-101650647D01*
X146065431Y-101618577D01*
X146103030Y-101550706D01*
X146132199Y-101514357D01*
X146160371Y-101501804D01*
X146177465Y-101502160D01*
X146223544Y-101523827D01*
X146260058Y-101563569D01*
X146276395Y-101595003D01*
X146279182Y-101623465D01*
X146265684Y-101660579D01*
X146233165Y-101717968D01*
X146217701Y-101743486D01*
X146106745Y-101905131D01*
X145995088Y-102027251D01*
X145896056Y-102101587D01*
X145834806Y-102133585D01*
X145786442Y-102144445D01*
X145729642Y-102137970D01*
X145712625Y-102134313D01*
X145626808Y-102100726D01*
X145570030Y-102055321D01*
X145542465Y-102018334D01*
X145529214Y-101980388D01*
X145527403Y-101926860D01*
X145532238Y-101863206D01*
X145548678Y-101751522D01*
X145576397Y-101628363D01*
X145611317Y-101508288D01*
X145649358Y-101405855D01*
X145675099Y-101353406D01*
X145695610Y-101312704D01*
X145697944Y-101295524D01*
X145694023Y-101296703D01*
X145655625Y-101301421D01*
X145603948Y-101287870D01*
X145555609Y-101263101D01*
X145527223Y-101234170D01*
X145525067Y-101224978D01*
X145543557Y-101172442D01*
X145589655Y-101141183D01*
X145613967Y-101137720D01*
X145647231Y-101129957D01*
X145644241Y-101104551D01*
X145621989Y-101075887D01*
X145594595Y-101032569D01*
X145561863Y-100962763D01*
X145529668Y-100880800D01*
X145503886Y-100801014D01*
X145495337Y-100766891D01*
X145494893Y-100697787D01*
X145509768Y-100664339D01*
X145553019Y-100634230D01*
X145602558Y-100636972D01*
X145642483Y-100669362D01*
X145653209Y-100693220D01*
X145668730Y-100748808D01*
X145687730Y-100818080D01*
X145691294Y-100831210D01*
X145713549Y-100896416D01*
X145739353Y-100949773D01*
X145744606Y-100957675D01*
X145764184Y-100980227D01*
X145777436Y-100975735D01*
X145791030Y-100938396D01*
X145798693Y-100910606D01*
X145834585Y-100820638D01*
X145885426Y-100748976D01*
X145943719Y-100704250D01*
X145987323Y-100693568D01*
X146015381Y-100699785D01*
X146015381Y-100875049D01*
X145995610Y-100882974D01*
X145973679Y-100921618D01*
X145964830Y-100940835D01*
X145937478Y-101005492D01*
X145930156Y-101038133D01*
X145942844Y-101044029D01*
X145964512Y-101034592D01*
X146006656Y-101003942D01*
X146043606Y-100968435D01*
X146071544Y-100934510D01*
X146070917Y-100914255D01*
X146043369Y-100891298D01*
X146015381Y-100875049D01*
X146015381Y-100699785D01*
X146055627Y-100708705D01*
X146134513Y-100747159D01*
X146207661Y-100799560D01*
X146250792Y-100844836D01*
X146280342Y-100907737D01*
X146271402Y-100968345D01*
G36*
X146154010Y-100006192D02*
G01*
X146129624Y-100014538D01*
X146077587Y-100013878D01*
X146036139Y-100010529D01*
X145956173Y-99998716D01*
X145884177Y-99980478D01*
X145851316Y-99967385D01*
X145812797Y-99950449D01*
X145778793Y-99948986D01*
X145733985Y-99964896D01*
X145687351Y-99987708D01*
X145611978Y-100020551D01*
X145561000Y-100026857D01*
X145525347Y-100006019D01*
X145504927Y-99975471D01*
X145494318Y-99939511D01*
X145515939Y-99912506D01*
X145530000Y-99903329D01*
X145569607Y-99879780D01*
X145634530Y-99841866D01*
X145713344Y-99796246D01*
X145747971Y-99776313D01*
X145832110Y-99724783D01*
X145909123Y-99672047D01*
X145966213Y-99627056D01*
X145979473Y-99614427D01*
X146025823Y-99574034D01*
X146066266Y-99551748D01*
X146075127Y-99550220D01*
X146125375Y-99568617D01*
X146156578Y-99612897D01*
X146160067Y-99635160D01*
X146143721Y-99673577D01*
X146102011Y-99722495D01*
X146045930Y-99770727D01*
X145995432Y-99802696D01*
X145961995Y-99830787D01*
X145967672Y-99854674D01*
X146009350Y-99867199D01*
X146023733Y-99867720D01*
X146078938Y-99883622D01*
X146128694Y-99922382D01*
X146157671Y-99970576D01*
X146160067Y-99987076D01*
X146154010Y-100006192D01*
X146154010Y-100006192D01*
G37*
X146154010Y-100006192D02*
X146129624Y-100014538D01*
X146077587Y-100013878D01*
X146036139Y-100010529D01*
X145956173Y-99998716D01*
X145884177Y-99980478D01*
X145851316Y-99967385D01*
X145812797Y-99950449D01*
X145778793Y-99948986D01*
X145733985Y-99964896D01*
X145687351Y-99987708D01*
X145611978Y-100020551D01*
X145561000Y-100026857D01*
X145525347Y-100006019D01*
X145504927Y-99975471D01*
X145494318Y-99939511D01*
X145515939Y-99912506D01*
X145530000Y-99903329D01*
X145569607Y-99879780D01*
X145634530Y-99841866D01*
X145713344Y-99796246D01*
X145747971Y-99776313D01*
X145832110Y-99724783D01*
X145909123Y-99672047D01*
X145966213Y-99627056D01*
X145979473Y-99614427D01*
X146025823Y-99574034D01*
X146066266Y-99551748D01*
X146075127Y-99550220D01*
X146125375Y-99568617D01*
X146156578Y-99612897D01*
X146160067Y-99635160D01*
X146143721Y-99673577D01*
X146102011Y-99722495D01*
X146045930Y-99770727D01*
X145995432Y-99802696D01*
X145961995Y-99830787D01*
X145967672Y-99854674D01*
X146009350Y-99867199D01*
X146023733Y-99867720D01*
X146078938Y-99883622D01*
X146128694Y-99922382D01*
X146157671Y-99970576D01*
X146160067Y-99987076D01*
X146154010Y-100006192D01*
M02*
