<?xml version="1.0" encoding="UTF-8" standalone="no"?>
<svg
   xmlns:dc="http://purl.org/dc/elements/1.1/"
   xmlns:cc="http://creativecommons.org/ns#"
   xmlns:rdf="http://www.w3.org/1999/02/22-rdf-syntax-ns#"
   xmlns:svg="http://www.w3.org/2000/svg"
   xmlns="http://www.w3.org/2000/svg"
   xmlns:sodipodi="http://sodipodi.sourceforge.net/DTD/sodipodi-0.dtd"
   xmlns:inkscape="http://www.inkscape.org/namespaces/inkscape"
   id="Capa_3"
   data-name="Capa 3"
   viewBox="0 0 99.9000015259 99.9000015259"
   version="1.1"
   sodipodi:docname="Cerebro_001.svg"
   inkscape:version="0.92.4 (unknown)"
   width="99.9000015259mm"
   height="99.9000015259mm">
  <metadata
     id="metadata13">
    <rdf:RDF>
      <cc:Work
         rdf:about="">
        <dc:format>image/svg+xml</dc:format>
        <dc:type
           rdf:resource="http://purl.org/dc/dcmitype/StillImage" />
        <dc:title>Cerebro</dc:title>
      </cc:Work>
    </rdf:RDF>
  </metadata>
  <sodipodi:namedview
     pagecolor="#ffffff"
     bordercolor="#666666"
     borderopacity="1"
     objecttolerance="10"
     gridtolerance="10"
     guidetolerance="10"
     inkscape:pageopacity="0"
     inkscape:pageshadow="2"
     inkscape:window-width="1920"
     inkscape:window-height="957"
     id="namedview11"
     showgrid="true"
     inkscape:zoom="1.3262566"
     inkscape:cx="88.588763"
     inkscape:cy="135.66912"
     inkscape:window-x="0"
     inkscape:window-y="31"
     inkscape:window-maximized="1"
     inkscape:current-layer="g863"
     borderlayer="true"
     inkscape:document-units="mm"
     inkscape:snap-bbox="true"
     inkscape:snap-global="false">
    <inkscape:grid
       id="grid840"
       units="mm"
       type="xygrid"
       empspacing="1"
       spacingy="2.54"
       spacingx="2.54" />
  </sodipodi:namedview>
  <defs
     id="defs4">
    <style
       id="style2">.cls-1{fill:#62aeef;}</style>
  </defs>
  <title
     id="title6">Cerebro</title>
  <g
     id="g849"
     sodipodi:insensitive="true"
     inkscape:groupmode="layer"
     inkscape:label="[fixed] BG">
    <rect
       id="rect847"
       style="stroke:none;fill-opacity:1;fill:#FFFFFF"
       height="99.9000015259"
       width="99.9000015259"
       y="0"
       x="0" />
  </g>
  <g
     inkscape:groupmode="layer"
     id="layer1"
     inkscape:label="Base"
     style="display:none">
    <path
       class="cls-1"
       d="M 71.046514,87.415308 A 13.325069,13.325069 0 0 1 53.491621,80.333675 c 6.671631,-0.886719 11.981043,-2.65167 15.827539,-5.268163 1.894743,-1.289447 3.082293,-2.564334 3.80647,-3.548094 5.146858,2.290188 10.874769,2.484273 16.6803,0.542219 a 29.766397,29.766397 0 0 0 3.077436,-1.228791 C 92.03425,76.04685 90.000008,79.385092 85.076339,83.613694 80.15268,87.842296 71.754918,87.492942 71.046514,87.415308 Z M 88.51405,68.575834 c -5.450112,1.792848 -10.570282,1.418025 -15.219809,-1.113557 a 1.8340923,1.8340923 0 0 0 -1.576937,-0.121302 c -0.619848,0.253521 -0.821206,0.688999 -1.101427,1.24335 -0.778755,1.534477 -2.338698,2.7475 -3.754295,3.658478 -3.91201,2.518241 -8.670703,3.664545 -13.221969,4.320794 -3.591762,0.516747 -7.651754,-1.112345 -10.267039,-3.510494 A 15.405405,15.405405 0 0 1 28.711976,69.583854 c -2.234399,-2.668652 -2.66138,-6.25071 -1.709157,-8.976377 2.253797,-6.46299 8.425662,-7.724535 8.679185,-7.773059 a 1.819536,1.819536 0 0 0 1.519927,-1.775865 c 0.0073,-0.186807 0.221977,-4.598575 5.14807,-6.533345 4.830265,-1.898386 7.873732,0.493701 8.090873,0.672011 a 1.7831453,1.7831453 0 0 0 2.729297,-0.317808 c 0.177114,-0.223198 2.225907,-2.668657 7.481931,-2.668657 5.511982,0 8.522712,3.590554 8.65372,3.74946 a 1.8562596,1.8562596 0 0 0 2.893061,-2.326581 c -0.162542,-0.203789 -3.9399,-4.825413 -10.852927,-5.120175 -0.134643,-1.819539 -0.01212,-6.598851 4.609499,-8.964251 3.84892,-1.971163 10.134809,-2.36418 13.992222,0.390596 3.060461,2.183442 4.217688,6.037222 3.437711,11.443669 a 1.8547137,1.8547137 0 0 0 0.744796,1.767374 c 0.03646,0.0267 3.616027,2.726881 3.533539,6.186424 -0.04366,1.846225 -1.029854,3.67425 -2.637105,4.892127 -1.652145,1.250628 -4.730803,2.452737 -10.055977,1.119622 A 28.786272,28.786272 0 0 0 66.980452,53.57194 c -6.16823,-0.464587 -11.384228,1.334324 -15.081531,5.185676 -2.199208,2.292616 -4.17037,3.360079 -5.701212,3.085934 -1.881393,-0.337222 -2.911258,-2.638329 -2.942793,-2.700194 a 1.8571398,1.8571398 0 0 0 -3.419515,1.447139 c 0.07155,0.169825 1.797703,4.182506 5.669677,4.900619 a 6.5248561,6.5248561 0 0 0 1.191185,0.109169 c 2.510965,0 5.156562,-1.431366 7.884658,-4.27227 7.080427,-7.383678 18.968055,-2.540069 19.082089,-2.496401 a 1.6327303,1.6327303 0 0 0 0.259581,0.08734 c 6.828105,1.749178 11.021539,0.0267 13.337194,-1.726133 2.501261,-1.894744 4.036949,-4.797514 4.1073,-7.763355 0.09704,-4.103659 -2.707466,-7.206577 -4.184931,-8.551824 0.840623,-7.896783 -2.262289,-11.941006 -5.085,-13.957051 -4.195847,-2.999811 -10.137233,-3.18904 -14.781902,-1.864421 -1.322203,-2.4588 -4.523376,-7.382462 -9.808512,-9.382739 -6.643742,-2.512173 -12.685812,-1.012875 -16.12109,3.893807 -2.601945,-0.582252 -8.272823,-1.3877 -12.987854,1.185124 -3.016789,1.64486 -5.094693,4.34869 -6.197332,8.035073 a 9.8594593,9.8594593 0 0 0 -4.814503,-0.492487 c -6.904525,1.03107 -9.8570329,6.697105 -9.2056404,11.766331 0.6404872,4.973401 4.8581664,9.946798 12.6009014,9.111024 A 1.8563764,1.8563764 0 1 0 20.382131,45.48106 c -5.28757,0.571338 -8.08844,-2.547347 -8.517855,-5.89408 -0.408785,-3.170845 1.317346,-6.905745 6.065123,-7.614153 7.256309,-1.084445 13.106724,11.443673 15.251355,17.733204 -2.547347,0.91825 -7.070723,3.275163 -9.356055,8.81383 l -0.03029,0.04369 C 7.5884153,60.395195 -0.08154576,49.690258 0.63657266,38.726944 1.1678732,30.610604 6.9442929,23.554443 13.922825,20.451527 a 19.965162,19.965162 0 0 1 24.602552,-9.335433 23.013491,23.013491 0 0 1 27.778248,2.531581 h 0.09098 c 12.09749,0 22.272326,8.071462 25.230891,19.021429 4.455439,4.591297 7.190805,10.803194 7.190805,17.642225 0,5.40766 -1.783132,11.637752 -5.499843,15.718366 -1.107486,1.222728 -3.26182,2.041518 -4.801144,2.547351 z M 57.619541,38.735438 c -3.039832,0.522814 -5.043751,1.735837 -6.203401,2.692916 -1.916574,-1.027435 -5.598104,-2.256225 -10.423513,-0.363909 -2.689269,1.056545 -4.414189,2.644394 -5.521685,4.245589 A 55.890079,55.890079 0 0 0 32.273404,38.72816 C 29.98565,34.759147 27.68818,32.196028 25.516862,30.59241 a 1.9238561,1.9238561 0 0 0 0.121303,-0.325091 c 0.792115,-2.969482 2.272003,-5.012214 4.524588,-6.247073 4.796286,-2.628623 11.443663,-0.564057 11.506744,-0.543434 a 1.8559267,1.8559267 0 0 0 2.194361,-0.870955 c 2.321724,-4.207978 6.931213,-5.501061 12.329181,-3.458329 3.90471,1.477463 6.47511,5.229344 7.654168,7.320599 -5.48287,3.054394 -6.498163,8.787148 -6.226444,12.274592 z"
       id="path8"
       inkscape:connector-curvature="0"
       style="fill:#62aeef;stroke-width:0.1213024" />
  </g>
  <g
     id="g851"
     inkscape:groupmode="layer"
     inkscape:label="Edge.Cuts">
    <path
       style="display:inline;fill:none;stroke:#000000;stroke-width:0.40000001;stroke-miterlimit:4;stroke-dasharray:none;stroke-opacity:1"
       d="m 51.530704,7.6000527 c -0.13444,-0.00148 -0.268913,-0.00179 -0.403403,-9.168e-4 -0.134489,8.705e-4 -0.268995,0.00292 -0.403501,0.00614 -0.134506,0.00323 -0.269012,0.00763 -0.403502,0.013211 -0.134491,0.00558 -0.268965,0.012345 -0.403407,0.020288 -0.134442,0.00794 -0.268852,0.017067 -0.403214,0.027374 -0.134362,0.010307 -0.268675,0.021796 -0.402924,0.034469 -0.134249,0.012673 -0.268433,0.02653 -0.402537,0.041573 -0.134104,0.015043 -0.268127,0.031271 -0.402053,0.048685 -0.133926,0.017415 -0.267756,0.036017 -0.401472,0.055807 -0.133716,0.01979 -0.26732,0.040769 -0.400794,0.062937 -0.133474,0.022168 -0.266819,0.045527 -0.400019,0.070076 -0.133199,0.02455 -0.266253,0.05029 -0.399146,0.077224 -0.132892,0.026934 -0.265624,0.05506 -0.398177,0.084381 -0.132553,0.029321 -0.264929,0.059836 -0.397111,0.091547 -0.132181,0.031711 -0.264169,0.064618 -0.395947,0.098721 -0.131777,0.034104 -0.263345,0.069405 -0.394686,0.1059046 -0.131342,0.0365 -0.262457,0.074198 -0.393329,0.1130969 -0.130873,0.038899 -0.261503,0.078997 -0.391875,0.120298 -0.130371,0.041301 -0.260484,0.083803 -0.390322,0.127508 -0.129838,0.043705 -0.259402,0.088614 -0.388674,0.1347267 -0.129272,0.046113 -0.258254,0.093431 -0.386928,0.1419544 -0.128674,0.048524 -0.257041,0.098254 -0.385085,0.149191 -0.128044,0.050937 -0.255764,0.1030823 -0.383145,0.1564363 -0.127381,0.053354 -0.254422,0.107917 -0.381108,0.1636905 -0.126686,0.055773 -0.253016,0.1127576 -0.378974,0.1709536 -0.125958,0.058196 -0.251544,0.117604 -0.376743,0.1782255 -0.125198,0.060621 -0.250008,0.1224564 -0.374414,0.1855064 -0.124406,0.06305 -0.248408,0.127315 -0.371989,0.192796 -0.123581,0.06548 -0.246742,0.132179 -0.369467,0.200094 -0.122724,0.06792 -0.245012,0.137049 -0.366847,0.207402 -0.121835,0.07035 -0.243217,0.141925 -0.364131,0.214718 -0.120913,0.07279 -0.241358,0.146807 -0.361317,0.222043 -0.293173,-0.10929 -0.587459,-0.211266 -0.882645,-0.306008 -0.295186,-0.09474 -0.591273,-0.182253 -0.888048,-0.262609 -0.296775,-0.08036 -0.594238,-0.153561 -0.892176,-0.219693 -0.297939,-0.06613 -0.596353,-0.125192 -0.89503,-0.177261 -0.298677,-0.05207 -0.597617,-0.09715 -0.896609,-0.135311 -0.298991,-0.038166 -0.598033,-0.069422 -0.896913,-0.093847 -0.29888,-0.024425 -0.597599,-0.04202 -0.895943,-0.052865 -0.298345,-0.010845 -0.596315,-0.01494 -0.893699,-0.012367 -0.297384,0.00257 -0.594181,0.011817 -0.89018,0.027648 -0.295998,0.015831 -0.591198,0.038251 -0.885386,0.067179 -0.294188,0.028928 -0.587365,0.064363 -0.879317,0.1062259 -0.291953,0.04186 -0.582683,0.09015 -0.871976,0.14479 -0.289292,0.05464 -0.577149,0.115621 -0.863357,0.18287 -0.286208,0.06725 -0.570768,0.140766 -0.853466,0.220467 -0.282698,0.0797 -0.563536,0.165588 -0.842299,0.25758 -0.278764,0.09199 -0.555455,0.190088 -0.829859,0.294209 -0.274404,0.104121 -0.546523,0.214266 -0.816143,0.330355 -0.26962,0.116089 -0.536742,0.238121 -0.801153,0.366017 -0.264411,0.127896 -0.526111,0.261654 -0.784888,0.401196 -0.258777,0.139541 -0.514631,0.284865 -0.767349,0.435891 -0.252718,0.151025 -0.502301,0.307753 -0.748535,0.470102 -0.246235,0.162349 -0.489121,0.330319 -0.728447,0.50383 -0.239326,0.173511 -0.475092,0.352563 -0.707084,0.537075 -0.231993,0.184512 -0.460213,0.374484 -0.684447,0.569835 -0.224235,0.195352 -0.444484,0.396083 -0.660535,0.602113 -0.216052,0.206029 -0.427905,0.417358 -0.635349,0.633905 -0.207443,0.216548 -0.410476,0.438313 -0.608887,0.665216 -0.198411,0.226904 -0.392199,0.458945 -0.581152,0.696043 -0.188953,0.237098 -0.373071,0.479253 -0.552141,0.726385 -0.179071,0.247132 -0.353094,0.49924 -0.521857,0.756244 -0.168764,0.257004 -0.332267,0.518905 -0.490298,0.78562 -0.158031,0.266716 -0.31059,0.538246 -0.457464,0.814512 -0.218079,0.09697 -0.434984,0.197793 -0.650592,0.302392 -0.215607,0.104599 -0.429917,0.21297 -0.642806,0.325025 -0.212889,0.112055 -0.424357,0.227794 -0.634281,0.347129 -0.209923,0.119335 -0.418303,0.242265 -0.625015,0.368703 -0.206712,0.126438 -0.411756,0.256384 -0.615009,0.389748 -0.203253,0.133364 -0.404715,0.270148 -0.604263,0.410262 -0.199548,0.140115 -0.397181,0.28356 -0.592777,0.430247 -0.1955956,0.146688 -0.3891535,0.296618 -0.5805503,0.449703 -0.1913968,0.153084 -0.3806325,0.309323 -0.5675837,0.468628 -0.1869512,0.159305 -0.3716179,0.321675 -0.5538767,0.487024 -0.1822589,0.165348 -0.3621099,0.333674 -0.5394296,0.50489 -0.1773198,0.171215 -0.3521083,0.34532 -0.5242423,0.522226 -0.172134,0.176906 -0.3416133,0.356613 -0.5083147,0.539033 -0.1667015,0.18242 -0.3306249,0.367552 -0.491647,0.555309 -0.1610222,0.187758 -0.319143,0.378139 -0.4742391,0.571057 -0.1550961,0.192918 -0.3071675,0.388373 -0.4560908,0.586275 -0.1489234,0.197902 -0.2946987,0.398252 -0.4372025,0.600962 -0.1425039,0.20271 -0.2817363,0.407779 -0.4175739,0.61512 -0.1358377,0.207341 -0.2682805,0.416954 -0.3972052,0.628749 -0.1289246,0.211795 -0.2543311,0.425774 -0.3760961,0.641847 -0.1217649,0.216073 -0.2398884,0.434242 -0.3542469,0.654416 -0.1143585,0.220175 -0.2249521,0.442356 -0.3316575,0.666456 -0.1067053,0.224099 -0.2095224,0.450117 -0.3083279,0.677964 -0.098805,0.227848 -0.1935992,0.457525 -0.284258,0.688945 -0.090659,0.231419 -0.1771826,0.46458 -0.259448,0.699394 -0.082265,0.234814 -0.1602725,0.471282 -0.2338978,0.709315 -0.073625,0.238033 -0.1428688,0.47763 -0.2076073,0.718705 -0.064738,0.241075 -0.1249718,0.483626 -0.1805766,0.727566 -0.055605,0.24394 -0.1065813,0.489269 -0.1528058,0.735898 -0.046224,0.246628 -0.087697,0.494557 -0.1242947,0.743698 -0.036598,0.249141 -0.06832,0.499494 -0.095043,0.750971 -0.026724,0.251476 -0.048449,0.504076 -0.065052,0.757712 -0.022441,0.342604 -0.035425,0.683372 -0.039293,1.02209 -0.00387,0.338718 0.00138,0.675387 0.015404,1.009791 0.014023,0.334404 0.036822,0.666544 0.068054,0.996205 0.031232,0.329661 0.070897,0.656844 0.1186553,0.981333 0.047758,0.324489 0.1036081,0.646285 0.1672095,0.965174 0.063601,0.318888 0.1349538,0.634869 0.2137161,0.947727 0.078762,0.312859 0.1649344,0.622595 0.2581752,0.928995 0.093241,0.306401 0.19355,0.609464 0.3005866,0.908977 0.1070366,0.299512 0.2208005,0.595474 0.3409505,0.88767 0.12015,0.292196 0.2466861,0.580627 0.3792669,0.865077 0.1325809,0.284451 0.2712065,0.564922 0.4155357,0.841199 0.1443291,0.276276 0.2943619,0.548359 0.4497568,0.816032 0.155395,0.267674 0.3161523,0.530939 0.4819305,0.78958 0.1657783,0.258642 0.3365776,0.51266 0.5120566,0.761841 0.175479,0.249181 0.3556378,0.493524 0.5401351,0.732815 0.1844972,0.239291 0.373333,0.47353 0.566166,0.702502 0.192833,0.228973 0.3896632,0.452678 0.5901494,0.670903 0.2004861,0.218225 0.4046283,0.430969 0.6120851,0.638017 0.2074569,0.207049 0.4182284,0.408402 0.6319734,0.603845 0.213745,0.195443 0.4304635,0.384976 0.6498141,0.568385 0.2193506,0.183409 0.4413334,0.360693 0.6656072,0.531639 0.2242737,0.170946 0.4508383,0.335553 0.6793526,0.493607 0.2285139,0.158053 0.4589779,0.309554 0.6910509,0.454287 0.232072,0.144733 0.465753,0.282698 0.700701,0.413681 0.234948,0.130983 0.471163,0.254984 0.708304,0.371789 0.237141,0.116804 0.475207,0.226412 0.713859,0.328609 0.238651,0.102197 0.477887,0.196983 0.717367,0.284143 0.239479,0.08716 0.479202,0.166695 0.718826,0.238391 0.239625,0.07169 0.479152,0.13555 0.71824,0.191351 0.239088,0.0558 0.477736,0.103547 0.715604,0.143025 0.237869,0.03948 0.474956,0.07069 0.710922,0.09341 0.235966,0.02273 0.470811,0.03697 0.704192,0.04251 0.104133,0.01757 0.209971,0.03214 0.317372,0.044 0.107401,0.01186 0.216366,0.02101 0.326754,0.02772 0.110389,0.0067 0.222203,0.01099 0.3353,0.01311 0.113097,0.0021 0.227479,0.0021 0.343005,1.83e-4 0.115526,-0.0019 0.232197,-0.0057 0.349873,-0.01107 0.117675,-0.0054 0.236355,-0.01235 0.355901,-0.02064 0.119545,-0.0083 0.239955,-0.01789 0.36109,-0.02853 0.121135,-0.01064 0.242996,-0.02231 0.365442,-0.03475 0.122446,-0.01243 0.245477,-0.02562 0.368954,-0.03928 0.123476,-0.01366 0.247399,-0.0278 0.371627,-0.04214 0.124228,-0.01434 0.248762,-0.02887 0.373462,-0.04332 0.124701,-0.01445 0.249567,-0.02881 0.374459,-0.04282 0.124892,-0.014 0.249811,-0.02764 0.374616,-0.04064 0.124805,-0.013 0.249497,-0.02535 0.373935,-0.03678 0.124438,-0.01143 0.248623,-0.02194 0.372415,-0.03124 0.123791,-0.0093 0.24719,-0.01741 0.370056,-0.02403 0.122865,-0.0066 0.245198,-0.01176 0.366859,-0.01514 0.12166,-0.0034 0.242647,-0.005 0.362822,-0.0046 0.120175,4.27e-4 0.239538,0.0029 0.357948,0.0077 0.11841,0.0048 0.235869,0.0119 0.352235,0.02161 0.116366,0.0097 0.23164,0.02203 0.345682,0.03722 0.114042,0.01519 0.226852,0.03327 0.338291,0.05451 0.111439,0.02124 0.221506,0.04563 0.330062,0.07347 0.108555,0.02784 0.2156,0.05912 0.320993,0.09412 0.105393,0.035 0.209135,0.07372 0.311086,0.116438 0.101951,0.04272 0.202111,0.08944 0.300341,0.140439 0.09823,0.051 0.194528,0.106279 0.288756,0.166118 0.09423,0.05984 0.186385,0.124238 0.276333,0.193476 0.08995,0.06924 0.177684,0.143315 0.263071,0.222512 0.08539,0.0792 0.168423,0.163512 0.24897,0.253226 0.08055,0.08971 0.158604,0.184829 0.234031,0.285621 0.07543,0.100792 0.148225,0.207263 0.218253,0.319692 -0.02508,0.09141 -0.04911,0.183269 -0.07205,0.275538 -0.02294,0.09227 -0.04481,0.184948 -0.06557,0.278002 -0.02076,0.09305 -0.0404,0.186484 -0.05892,0.280252 -0.01851,0.09377 -0.03589,0.187877 -0.05211,0.282289 -0.01622,0.09441 -0.03127,0.189126 -0.04514,0.284109 -0.01387,0.09498 -0.02655,0.190234 -0.03801,0.285717 -0.01146,0.09548 -0.02171,0.191198 -0.03072,0.287109 -0.009,0.09591 -0.01677,0.192019 -0.02327,0.288288 -0.0065,0.09627 -0.01172,0.192697 -0.01566,0.289251 -0.0039,0.09655 -0.0066,0.193232 -0.0079,0.29 -0.0013,0.09677 -0.0013,0.193625 5e-5,0.290536 0.0014,0.09691 0.0041,0.193874 0.0081,0.290856 0.0041,0.09698 0.0095,0.19398 0.0164,0.290962 0.0069,0.09698 0.01512,0.193944 0.02481,0.290854 0.0097,0.09691 0.02081,0.193765 0.03339,0.290531 0.01258,0.09677 0.02661,0.193442 0.04213,0.289994 0.01552,0.09655 0.03252,0.192977 0.05102,0.289242 0.01851,0.09627 0.03853,0.19237 0.06008,0.288277 0.02155,0.09591 0.04465,0.191618 0.0693,0.287096 0.02465,0.09548 0.05087,0.190725 0.07868,0.285702 0.02781,0.09498 0.05721,0.189687 0.08822,0.284093 0.03102,0.0944 0.06365,0.188507 0.09792,0.282269 0.03427,0.09376 0.07019,0.187184 0.107783,0.280231 0.03759,0.09305 0.07685,0.185719 0.117806,0.277979 0.04096,0.09226 0.08361,0.18411 0.127988,0.275512 0.04438,0.0914 0.09048,0.182358 0.138332,0.272831 0.04785,0.09047 0.09746,0.180464 0.148836,0.269936 0.05138,0.08947 0.104539,0.178426 0.159501,0.266825 0.05496,0.0884 0.111729,0.176246 0.170327,0.263501 0.0586,0.08726 0.119026,0.173922 0.181313,0.259963 0.06229,0.08604 0.126431,0.171455 0.19246,0.256209 0.06603,0.08475 0.133942,0.168847 0.203767,0.252242 0.123423,0.113439 0.248413,0.224616 0.374908,0.333516 0.126495,0.108901 0.254495,0.215525 0.38394,0.319859 0.129444,0.104334 0.260333,0.206377 0.392605,0.306115 0.132273,0.09974 0.265928,0.197171 0.400905,0.292284 0.134978,0.09511 0.271278,0.187908 0.408839,0.278368 0.137561,0.09046 0.276383,0.178586 0.416405,0.264363 0.140023,0.08578 0.281245,0.169207 0.423607,0.250274 0.142361,0.08107 0.285862,0.15977 0.430441,0.236096 0.144579,0.07633 0.290236,0.150275 0.43691,0.221833 0.146674,0.07156 0.294365,0.140723 0.443012,0.207483 0.148647,0.06676 0.29825,0.131113 0.448748,0.193046 0.150498,0.06193 0.301891,0.121446 0.454119,0.178523 0.152227,0.05708 0.305288,0.111721 0.459122,0.163914 0.153834,0.05219 0.308441,0.101937 0.46376,0.149217 0.155319,0.04728 0.31135,0.0921 0.468032,0.134435 0.156681,0.04234 0.314014,0.0822 0.471936,0.119564 0.157923,0.03737 0.316435,0.07224 0.475476,0.104609 0.159042,0.03237 0.318612,0.06223 0.478649,0.08957 0.160038,0.02734 0.320544,0.05216 0.481456,0.07444 0.160913,0.02228 0.322232,0.04203 0.483897,0.05922 0.161664,0.0172 0.323675,0.03184 0.48597,0.04392 0.162296,0.01208 0.324876,0.0216 0.48768,0.02853 0.162803,0.0069 0.325831,0.01129 0.489021,0.01305 0.16319,0.0018 0.326542,9.32e-4 0.489997,-0.0025 0.163454,-0.0034 0.32701,-0.0095 0.490607,-0.01816 0.163596,-0.0087 0.327233,-0.01996 0.49085,-0.03389 0.163617,-0.01393 0.327213,-0.0305 0.490728,-0.04971 0.163514,-0.01922 0.326948,-0.04109 0.490238,-0.06562 0.163291,-0.02454 0.326439,-0.05174 0.489384,-0.08162 0.162945,-0.02988 0.325686,-0.06244 0.488163,-0.0977 0.162477,-0.03526 0.324689,-0.07321 0.486575,-0.113866 0.161887,-0.04066 0.323448,-0.08403 0.484622,-0.13012 0.06306,0.05782 0.126959,0.115316 0.191672,0.172455 0.06471,0.05714 0.130237,0.113926 0.196543,0.170335 0.06631,0.05641 0.133396,0.112441 0.201237,0.168073 0.06784,0.05563 0.136435,0.110864 0.205751,0.165672 0.06932,0.05481 0.139354,0.109193 0.210085,0.16313 0.07073,0.05394 0.142155,0.107428 0.214241,0.160448 0.07209,0.05302 0.144835,0.105569 0.218217,0.157625 0.07338,0.05205 0.147396,0.103617 0.222014,0.154662 0.07462,0.05104 0.149838,0.101571 0.225631,0.151558 0.07579,0.04999 0.152161,0.09943 0.229071,0.148315 0.07691,0.04888 0.154363,0.0972 0.23233,0.144931 0.07797,0.04773 0.156446,0.09487 0.23541,0.141406 0.07896,0.04653 0.15841,0.09245 0.238311,0.137741 0.0799,0.04529 0.160255,0.08994 0.241033,0.133937 0.08078,0.044 0.161979,0.08733 0.243575,0.129991 0.0816,0.04266 0.163585,0.08463 0.245939,0.125905 0.08235,0.04127 0.165071,0.08184 0.248123,0.121678 0.08305,0.03984 0.166438,0.07895 0.250128,0.117312 0.08369,0.03836 0.167685,0.07597 0.251954,0.112805 0.08427,0.03683 0.168812,0.0729 0.2536,0.108158 0.08479,0.03526 0.16982,0.06973 0.255068,0.10337 0.08525,0.03364 0.170709,0.06647 0.256356,0.09844 0.08565,0.03198 0.171478,0.06311 0.257465,0.09337 0.08599,0.03026 0.172128,0.05966 0.258394,0.08817 0.08627,0.0285 0.172659,0.05612 0.259145,0.08282 0.08649,0.0267 0.17307,0.05248 0.259717,0.07733 0.08665,0.02484 0.17336,0.04875 0.260109,0.0717 0.08675,0.02295 0.173532,0.04493 0.260322,0.06593 0.08679,0.021 0.173584,0.04101 0.260355,0.06002 0.08677,0.01901 0.173518,0.037 0.26021,0.05397 0.08669,0.01696 0.173331,0.0329 0.259885,0.04777 0.08656,0.01488 0.173025,0.0287 0.259382,0.04144 0.0215,0.05205 0.04284,0.103027 0.06406,0.152993 0.02122,0.04997 0.04231,0.09892 0.06329,0.146926 0.02098,0.04801 0.04186,0.09506 0.06265,0.141237 0.02079,0.04617 0.0415,0.09146 0.06214,0.135927 0.02064,0.04447 0.04122,0.08811 0.06176,0.130993 0.02054,0.04288 0.04104,0.08501 0.06152,0.126436 0.02048,0.04143 0.04094,0.08216 0.06141,0.122259 0.02047,0.0401 0.04094,0.07956 0.06143,0.118458 0.02049,0.03889 0.04102,0.07722 0.06158,0.115034 0.02057,0.03782 0.04118,0.07512 0.06187,0.111989 0.02069,0.03686 0.04144,0.07328 0.06228,0.109321 0.02085,0.03604 0.04178,0.07169 0.06283,0.107031 0.02105,0.03534 0.04222,0.07036 0.06352,0.105118 0.0213,0.03476 0.04274,0.06927 0.06433,0.103583 0.02159,0.03431 0.04335,0.06844 0.06528,0.102426 0.02193,0.03399 0.04404,0.06785 0.06636,0.101646 0.02231,0.03379 0.04483,0.06752 0.06757,0.101243 0.02274,0.03372 0.0457,0.06744 0.06891,0.101218 0.02321,0.03378 0.04667,0.06761 0.07039,0.101572 0.02372,0.03396 0.04772,0.06804 0.072,0.102302 0.02428,0.03426 0.04886,0.06871 0.07374,0.10341 0.02489,0.0347 0.05008,0.06964 0.07562,0.104896 0.02553,0.03526 0.0514,0.07082 0.07762,0.106759 0.02622,0.03594 0.0528,0.07225 0.07976,0.109001 0.02696,0.03675 0.05429,0.07393 0.08203,0.111618 0.02774,0.03768 0.05587,0.07587 0.08443,0.114615 0.02856,0.03875 0.05754,0.07805 0.08697,0.117989 0.02943,0.03993 0.0593,0.08049 0.08964,0.12174 0.03034,0.04125 0.06114,0.08318 0.09244,0.125869 0.03129,0.04269 0.06308,0.08612 0.09537,0.130376 0.03229,0.04425 0.0651,0.08932 0.09843,0.135259 0.03334,0.04594 0.06721,0.09276 0.101632,0.140522 0.03442,0.04776 0.06941,0.09646 0.104923,0.146027 0.03552,0.04957 0.07157,0.100007 0.108152,0.151244 0.03658,0.05124 0.07368,0.103273 0.111282,0.156037 0.0376,0.05276 0.07571,0.106256 0.114311,0.160406 0.0386,0.05415 0.07768,0.108959 0.11724,0.164354 0.03956,0.0554 0.07959,0.111378 0.120069,0.167878 0.04048,0.0565 0.08142,0.113515 0.122798,0.170978 0.04138,0.05746 0.08319,0.115371 0.125427,0.173656 0.04224,0.05828 0.08489,0.116944 0.127956,0.17591 0.04306,0.05897 0.08653,0.118236 0.130384,0.177741 0.04386,0.05951 0.0881,0.119246 0.132713,0.17915 0.04462,0.0599 0.0896,0.119973 0.134941,0.180135 0.04534,0.06016 0.09104,0.120418 0.13707,0.180697 0.04603,0.06028 0.0924,0.120581 0.139097,0.180835 0.04669,0.06026 0.09371,0.120462 0.141026,0.180552 0.04732,0.06009 0.09494,0.120061 0.142854,0.179844 0.04791,0.05978 0.09611,0.119377 0.144581,0.178713 0.04847,0.05934 0.09721,0.118413 0.14621,0.17716 0.049,0.05875 0.09825,0.117165 0.147736,0.175183 0.04949,0.05802 0.09922,0.115636 0.149165,0.172783 0.04995,0.05715 0.100118,0.113825 0.150492,0.169961 0.05037,0.05613 0.100952,0.11173 0.151719,0.166714 0.05077,0.05498 0.10172,0.109355 0.152846,0.163044 0.05112,0.05369 0.102422,0.106698 0.153873,0.158953 0.05145,0.05226 0.103057,0.103758 0.1548,0.154437 0.05174,0.05068 0.103625,0.100536 0.155627,0.149498 0.052,0.04896 0.104126,0.09703 0.156354,0.144137 0.05223,0.04711 0.10456,0.09325 0.15698,0.138352 0.05242,0.04511 0.104928,0.08918 0.157507,0.132144 0.05258,0.04297 0.105229,0.08483 0.157934,0.125513 0.0527,0.04068 0.105463,0.0802 0.158259,0.118459 0.0528,0.03826 0.105631,0.07528 0.158486,0.110981 0.10571,0.0714 0.212745,0.141806 0.321072,0.211149 0.108328,0.06934 0.21795,0.137626 0.328835,0.204783 0.110885,0.06716 0.223034,0.133186 0.336416,0.198026 0.113382,0.06484 0.227998,0.128488 0.343816,0.190882 0.115819,0.06239 0.232841,0.123531 0.351036,0.183348 0.118195,0.05982 0.237563,0.118315 0.358074,0.175427 0.120511,0.05711 0.242165,0.112839 0.364932,0.167116 0.122766,0.05428 0.246646,0.107104 0.371608,0.158416 0.124962,0.05131 0.251006,0.10111 0.378103,0.149329 0.127097,0.04822 0.255246,0.09486 0.384418,0.139852 0.129172,0.04499 0.259366,0.08835 0.390551,0.129986 0.131186,0.04164 0.263365,0.08157 0.396505,0.119732 0.13314,0.03816 0.267241,0.07454 0.402275,0.10909 0.135034,0.03455 0.270999,0.06725 0.407866,0.09806 0.136868,0.0308 0.274636,0.0597 0.413276,0.08664 0.138641,0.02693 0.278152,0.0519 0.418505,0.07483 0.140353,0.02293 0.281547,0.04383 0.423552,0.06263 0.142006,0.0188 0.284822,0.03551 0.42842,0.05004 0.143597,0.01454 0.287975,0.02692 0.433104,0.03707 0.14513,0.01015 0.29101,0.01807 0.43761,0.02371 0.146601,0.0056 0.293922,0.009 0.441934,0.01 0.148011,9.83e-4 0.296714,-3.92e-4 0.446076,-0.0042 0.149363,-0.0038 0.299386,-0.01001 0.450038,-0.01872 0.150653,-0.0087 0.301937,-0.01989 0.45382,-0.03364 0.151883,-0.01374 0.304366,-0.03003 0.457419,-0.04894 0.153053,-0.01891 0.306676,-0.04043 0.460838,-0.06464 0.154163,-0.0242 0.308865,-0.05109 0.464076,-0.08072 0.155212,-0.02963 0.310933,-0.06201 0.467134,-0.0972 0.1562,-0.03519 0.31288,-0.07318 0.470009,-0.114058 0.157129,-0.04087 0.314707,-0.08462 0.472705,-0.131308 0.157997,-0.04669 0.316413,-0.09632 0.475218,-0.148948 0.158805,-0.05263 0.317999,-0.10827 0.477552,-0.166976 0.02214,0.0024 0.05178,0.0051 0.0886,0.0079 0.03682,0.0028 0.0808,0.0057 0.131613,0.0086 0.05081,0.0029 0.108453,0.0058 0.172582,0.0084 0.06413,0.0027 0.134743,0.0052 0.211505,0.0074 0.07676,0.0022 0.159671,0.004 0.248386,0.0054 0.08871,0.0014 0.183235,0.0023 0.283221,0.0026 0.09999,2.8e-4 0.205437,-6.2e-5 0.316013,-0.0012 0.110575,-0.0011 0.226275,-0.003 0.34676,-0.0058 0.120484,-0.0028 0.245751,-0.0065 0.375462,-0.01131 0.129712,-0.0048 0.263866,-0.01064 0.402122,-0.01771 0.138257,-0.0071 0.280616,-0.01535 0.426737,-0.025 0.146121,-0.0096 0.296003,-0.02066 0.449307,-0.03318 0.153303,-0.01252 0.310028,-0.02655 0.469833,-0.04224 0.159805,-0.01569 0.32269,-0.03304 0.488315,-0.05219 0.165625,-0.01916 0.333989,-0.04012 0.504753,-0.06304 0.170763,-0.02292 0.343926,-0.04779 0.519146,-0.07476 0.175221,-0.02698 0.3525,-0.05605 0.531496,-0.08738 0.178996,-0.03133 0.35971,-0.06491 0.541801,-0.100882 0.182091,-0.03598 0.365558,-0.07435 0.550062,-0.115275 0.184504,-0.04092 0.370044,-0.08439 0.556279,-0.130553 0.186235,-0.04616 0.373166,-0.09502 0.560451,-0.146722 0.187286,-0.0517 0.374926,-0.106243 0.56258,-0.163777 0.187654,-0.05753 0.375322,-0.118058 0.562663,-0.18172 0.187342,-0.06366 0.374357,-0.130464 0.560704,-0.200552 0.186348,-0.07009 0.372028,-0.143462 0.556699,-0.220271 0.184672,-0.07681 0.368336,-0.157053 0.550651,-0.240879 0.182315,-0.08383 0.363282,-0.171234 0.542558,-0.262373 0.179277,-0.09114 0.356865,-0.186009 0.532422,-0.284757 0.175557,-0.09875 0.349084,-0.201374 0.52024,-0.308027 0.171156,-0.106653 0.339941,-0.217333 0.506014,-0.332187 0.166074,-0.114854 0.329436,-0.233882 0.489746,-0.357233 0.160309,-0.123351 0.317567,-0.251024 0.471431,-0.383168 0.164885,-0.127736 0.326499,-0.255832 0.484909,-0.384302 0.15841,-0.12847 0.313618,-0.257313 0.465692,-0.386541 0.152074,-0.129228 0.301015,-0.25884 0.446892,-0.38885 0.145877,-0.130009 0.28869,-0.260416 0.428509,-0.391231 0.139818,-0.130815 0.276642,-0.262038 0.410541,-0.393683 0.133898,-0.131644 0.264872,-0.263708 0.39299,-0.396206 0.128117,-0.132497 0.253379,-0.265426 0.375855,-0.3988 0.122476,-0.133373 0.242165,-0.267191 0.359137,-0.401465 0.116973,-0.134274 0.231228,-0.269005 0.342836,-0.404203 0.111608,-0.135198 0.220568,-0.270864 0.326951,-0.40701 0.106382,-0.136146 0.210186,-0.272772 0.311481,-0.409889 0.101295,-0.137117 0.200082,-0.274727 0.296429,-0.412839 0.09635,-0.138113 0.190255,-0.276729 0.281793,-0.415861 0.09154,-0.139132 0.180706,-0.278779 0.267574,-0.418953 0.08687,-0.140175 0.171434,-0.280876 0.25377,-0.422117 0.08234,-0.141241 0.16244,-0.283021 0.240383,-0.425352 0.07794,-0.142331 0.153725,-0.285213 0.227413,-0.428658 0.07369,-0.143444 0.145286,-0.287452 0.21486,-0.432035 0.06957,-0.144582 0.137124,-0.289739 0.202721,-0.435483 0.0656,-0.145744 0.129241,-0.292074 0.191001,-0.439003 0.06176,-0.146929 0.121635,-0.294456 0.179696,-0.442594 0.05806,-0.148137 0.114306,-0.296885 0.168807,-0.446256 0.0545,-0.14937 0.107256,-0.299362 0.158336,-0.449988 0.05108,-0.150627 0.100483,-0.301887 0.14828,-0.453793 0.0478,-0.151907 0.09399,-0.304459 0.138641,-0.457669 0.04465,-0.15321 0.08777,-0.307078 0.129419,-0.461615 0.04165,-0.154538 0.08183,-0.309745 0.120612,-0.465633 0.03878,-0.155889 0.07617,-0.312459 0.112223,-0.469722 0.03606,-0.157264 0.07078,-0.315221 0.104249,-0.473883 0.03347,-0.158662 0.06567,-0.318029 0.09669,-0.478113 0.03102,-0.160084 0.06085,-0.320886 0.08955,-0.482416 0.02871,-0.161531 0.05629,-0.32379 0.08283,-0.48679 1e-4,-0.04488 -7.7e-4,-0.08964 -0.0025,-0.134264 -0.0017,-0.04463 -0.0043,-0.08913 -0.0077,-0.13352 -0.0033,-0.04439 -0.0074,-0.08866 -0.01219,-0.132812 -0.0047,-0.04416 -0.01014,-0.0882 -0.01606,-0.132138 -0.0059,-0.04394 -0.01239,-0.08777 -0.01928,-0.131498 -0.0069,-0.04373 -0.01421,-0.08736 -0.02185,-0.130893 -0.0076,-0.04353 -0.01559,-0.08697 -0.02376,-0.130322 -0.0082,-0.04335 -0.01655,-0.08661 -0.02503,-0.129786 -0.0085,-0.04318 -0.01706,-0.08627 -0.02564,-0.129284 -0.0086,-0.04301 -0.01715,-0.08595 -0.0256,-0.128816 -0.0085,-0.04286 -0.0168,-0.08566 -0.02492,-0.128383 -0.0081,-0.04273 -0.01601,-0.08539 -0.02358,-0.127984 -0.0076,-0.0426 -0.0148,-0.08514 -0.02159,-0.12762 -0.0068,-0.04248 -0.01314,-0.08491 -0.01895,-0.12729 -0.0058,-0.04238 -0.01106,-0.08471 -0.01565,-0.126995 -0.0046,-0.04229 -0.0085,-0.08453 -0.01171,-0.126734 -0.0032,-0.0422 -0.0056,-0.08437 -0.0071,-0.126508 -0.0015,-0.04214 -0.0022,-0.08424 -0.0019,-0.126315 3.22e-4,-0.04208 0.0016,-0.08413 0.004,-0.126158 0.0024,-0.04203 0.0059,-0.08404 0.01057,-0.126034 0.0047,-0.042 0.01057,-0.08397 0.01777,-0.125945 0.0072,-0.04197 0.0157,-0.08393 0.02562,-0.125892 0.0099,-0.04196 0.02125,-0.08391 0.03412,-0.125871 0.01286,-0.04196 0.02725,-0.08392 0.04327,-0.125886 0.01602,-0.04197 0.03367,-0.08394 0.05307,-0.125934 0.0194,-0.04199 0.04053,-0.08399 0.06352,-0.126018 0.02299,-0.04202 0.04783,-0.08407 0.07463,-0.126136 0.0268,-0.04207 0.05556,-0.08416 0.08638,-0.126288 0.03082,-0.04212 0.06372,-0.08428 0.09879,-0.126475 0.03507,-0.04219 0.07231,-0.08442 0.111843,-0.126696 0.03953,-0.04227 0.08134,-0.08459 0.125552,-0.126951 0.04421,-0.04236 0.09081,-0.08478 0.13991,-0.127241 0.0491,-0.04247 0.10012,-0.09209 0.152887,-0.148557 0.05277,-0.05646 0.107282,-0.119765 0.163377,-0.189578 0.0561,-0.06981 0.113772,-0.146138 0.172861,-0.228652 0.05909,-0.08251 0.119592,-0.171214 0.181339,-0.265778 0.06175,-0.09456 0.12474,-0.194992 0.18881,-0.300958 0.06407,-0.105966 0.129218,-0.217471 0.195276,-0.334191 0.06606,-0.116719 0.133025,-0.238652 0.200734,-0.365476 0.06771,-0.126823 0.136161,-0.258536 0.205187,-0.394814 0.06903,-0.136278 0.138627,-0.277122 0.208634,-0.422206 0.07001,-0.145084 0.140421,-0.294409 0.211074,-0.44765 0.07065,-0.153242 0.141545,-0.310399 0.212508,-0.471148 0.07096,-0.160749 0.141998,-0.32509 0.212936,-0.492698 0.07094,-0.167608 0.14178,-0.338483 0.212357,-0.512301 0.07058,-0.173817 0.140891,-0.350578 0.210773,-0.529957 0.06988,-0.179378 0.139332,-0.361375 0.208182,-0.545665 0.06885,-0.184291 0.137101,-0.370875 0.204585,-0.559428 0.06748,-0.188554 0.1342,-0.379076 0.199981,-0.571243 0.06578,-0.192167 0.130628,-0.385979 0.194372,-0.581111 0.06374,-0.195131 0.126386,-0.391583 0.187756,-0.589031 0.06137,-0.197447 0.121472,-0.395891 0.180135,-0.595005 0.05866,-0.199114 0.115887,-0.398899 0.171505,-0.599031 0.05562,-0.200132 0.109632,-0.400611 0.161872,-0.601111 0.05224,-0.200501 0.102706,-0.401024 0.15123,-0.601244 0.04852,-0.20022 0.09511,-0.400138 0.139584,-0.599429 0.04447,-0.199291 0.08684,-0.397955 0.126931,-0.595667 0.04009,-0.197713 0.0779,-0.394474 0.113271,-0.589959 0.03537,-0.195485 0.06829,-0.389694 0.09861,-0.582303 0.03031,-0.192608 0.05801,-0.383617 0.08293,-0.5727 0.02492,-0.189083 0.04706,-0.376241 0.06625,-0.56115 0.01919,-0.184909 0.03544,-0.367568 0.04857,-0.547653 0.01313,-0.180085 0.02315,-0.357596 0.02988,-0.532209 0.0067,-0.174613 0.01018,-0.346327 0.01018,-0.514818 0,-0.21372 -0.0027,-0.426826 -0.008,-0.63929 -0.0053,-0.212464 -0.01326,-0.424284 -0.02382,-0.635432 -0.01056,-0.211147 -0.02373,-0.421621 -0.03948,-0.631391 -0.01575,-0.20977 -0.03408,-0.418836 -0.05495,-0.627168 -0.02087,-0.208333 -0.0443,-0.415931 -0.07023,-0.622765 -0.02594,-0.206834 -0.05439,-0.412904 -0.08533,-0.618179 -0.03094,-0.205275 -0.06436,-0.409755 -0.100243,-0.613411 -0.03588,-0.203656 -0.07421,-0.406487 -0.11497,-0.608462 -0.04076,-0.201976 -0.08394,-0.403096 -0.129509,-0.603331 -0.04557,-0.200235 -0.09354,-0.399584 -0.143864,-0.598018 -0.05033,-0.198434 -0.103014,-0.395952 -0.158032,-0.592524 -0.05502,-0.196572 -0.112366,-0.392197 -0.172014,-0.586847 -0.05965,-0.194649 -0.121596,-0.388322 -0.185812,-0.580989 -0.06421,-0.192666 -0.1307,-0.384326 -0.199422,-0.574949 -0.06872,-0.190623 -0.139681,-0.380209 -0.212846,-0.568728 -0.07317,-0.188518 -0.148538,-0.37597 -0.226086,-0.562324 -0.07755,-0.186354 -0.157271,-0.37161 -0.239139,-0.555739 -0.08187,-0.184129 -0.16588,-0.367129 -0.252006,-0.548972 -0.08613,-0.181843 -0.174365,-0.362527 -0.264687,-0.542023 -0.09032,-0.179497 -0.182727,-0.357804 -0.277183,-0.534893 -0.09446,-0.177089 -0.190964,-0.35296 -0.289492,-0.527581 -0.09853,-0.174622 -0.199077,-0.347994 -0.301615,-0.520087 -0.102539,-0.172093 -0.207067,-0.342907 -0.313554,-0.512411 -0.106487,-0.169504 -0.214932,-0.337699 -0.325305,-0.504554 -0.110373,-0.166854 -0.222674,-0.332369 -0.336871,-0.496514 -0.114197,-0.164145 -0.230291,-0.326919 -0.348251,-0.488293 -0.11796,-0.161375 -0.237785,-0.321348 -0.359445,-0.479891 -0.12166,-0.158543 -0.245155,-0.315655 -0.370453,-0.471306 -0.125299,-0.155651 -0.252401,-0.309841 -0.381276,-0.46254 -0.128875,-0.152699 -0.259523,-0.303906 -0.391912,-0.453592 -0.13239,-0.149685 -0.266521,-0.297849 -0.402363,-0.444462 -0.135842,-0.146612 -0.273394,-0.291672 -0.412627,-0.43515 -0.09246,-0.342186 -0.191958,-0.681562 -0.298346,-1.017968 -0.106388,-0.336406 -0.219662,-0.669843 -0.33966,-1.000152 -0.119998,-0.330309 -0.24672,-0.65749 -0.380004,-0.981385 -0.133285,-0.323895 -0.273133,-0.644503 -0.419381,-0.961667 -0.146248,-0.317163 -0.298898,-0.630882 -0.457787,-0.940997 -0.158888,-0.310116 -0.324017,-0.616628 -0.495223,-0.919378 -0.171206,-0.30275 -0.348491,-0.601739 -0.531691,-0.896807 C 89.049287,25.655901 88.86017,25.364753 88.665298,25.077684 88.470427,24.790615 88.2698,24.507625 88.06358,24.228872 87.85736,23.950119 87.645547,23.675603 87.428303,23.405483 87.211058,23.135363 86.988381,22.869639 86.760435,22.608469 86.532488,22.347299 86.299271,22.090683 86.060946,21.83878 85.82262,21.586877 85.579186,21.339687 85.330805,21.097367 85.082424,20.855048 84.829096,20.6176 84.570983,20.385182 84.312869,20.152764 84.04997,19.925375 83.782447,19.703175 c -0.267523,-0.2222 -0.53967,-0.439213 -0.816279,-0.650878 -0.276609,-0.211666 -0.557681,-0.417985 -0.843053,-0.618798 -0.285372,-0.200814 -0.575046,-0.396122 -0.868858,-0.585767 -0.293812,-0.189645 -0.591764,-0.373627 -0.893694,-0.551786 -0.301929,-0.178159 -0.607836,-0.350496 -0.917559,-0.516852 -0.309724,-0.166357 -0.623263,-0.326733 -0.940457,-0.48097 -0.317194,-0.154236 -0.638043,-0.302334 -0.962384,-0.444134 -0.324342,-0.1418 -0.652176,-0.277303 -0.983342,-0.406349 -0.331167,-0.129046 -0.665664,-0.251637 -1.003332,-0.367613 -0.337667,-0.115976 -0.678505,-0.225337 -1.02235,-0.327925 -0.343846,-0.102588 -0.6907,-0.198404 -1.040401,-0.287287 -0.349701,-0.08888 -0.702249,-0.170836 -1.057482,-0.245698 -0.355233,-0.07486 -0.713151,-0.142635 -1.073593,-0.203158 -0.360442,-0.06052 -0.723408,-0.113799 -1.088735,-0.159667 -0.365328,-0.04587 -0.733018,-0.08433 -1.102909,-0.115226 -0.36989,-0.03089 -0.741981,-0.05423 -1.116111,-0.06983 -0.37413,-0.01561 -0.750299,-0.02349 -1.128346,-0.02349 h -0.0028 -0.0028 -0.0028 -0.0028 -0.0028 -0.0028 -0.0028 -0.0028 -0.0028 -0.0028 -0.0028 -0.0028 -0.0028 -0.0028 -0.0028 -0.0028 -0.0028 -0.0028 -0.0028 -0.0028 -0.0028 -0.0028 -0.0028 -0.0028 -0.0028 -0.0028 -0.0028 -0.0028 -0.0028 -0.0028 -0.0028 -0.0028 C 66.698406,13.524727 66.563046,13.40355 66.426566,13.284218 66.290087,13.164886 66.152488,13.0474 66.013804,12.931763 65.87512,12.816125 65.735352,12.702336 65.594532,12.590398 65.453713,12.478461 65.311842,12.368375 65.168956,12.260144 65.02607,12.151913 64.882167,12.045537 64.737282,11.941019 64.592398,11.8365 64.446531,11.73384 64.299717,11.633041 c -0.146814,-0.100799 -0.294575,-0.199738 -0.44325,-0.296812 -0.148675,-0.09707 -0.298263,-0.192283 -0.448729,-0.285626 -0.150467,-0.09334 -0.301813,-0.184817 -0.454003,-0.274422 -0.15219,-0.0896 -0.305224,-0.177338 -0.459068,-0.263199 -0.153845,-0.08586 -0.308499,-0.169847 -0.463929,-0.251957 -0.15543,-0.08211 -0.311636,-0.162344 -0.468583,-0.240697 C 61.405207,9.9419741 61.247519,9.8655005 61.089123,9.7909099 60.930728,9.7163193 60.771626,9.6436117 60.611851,9.5727903 60.452076,9.5019689 60.291628,9.4330336 60.130543,9.3659876 59.969457,9.2989416 59.807733,9.2337849 59.645405,9.1705206 59.483077,9.1072563 59.320146,9.0458844 59.156645,8.9864081 58.993144,8.9269318 58.829073,8.869351 58.664467,8.8136689 58.499862,8.7579869 58.334721,8.7042035 58.16908,8.6523219 58.003438,8.6004404 57.837296,8.5504606 57.670687,8.5023859 57.504079,8.4543111 57.337004,8.4081413 57.169497,8.3638795 57.00199,8.3196178 56.834051,8.2772642 56.665715,8.2368218 56.497378,8.1963794 56.328644,8.1578482 56.159547,8.1212314 55.990449,8.0846146 55.820989,8.0499121 55.651199,8.0171272 55.48141,7.9843422 55.311291,7.9534748 55.140878,7.924528 c -0.170412,-0.028947 -0.34112,-0.055973 -0.512087,-0.081075 -0.170968,-0.025102 -0.342196,-0.048281 -0.513649,-0.069533 -0.171453,-0.021252 -0.343133,-0.040577 -0.515003,-0.057972 -0.171871,-0.017395 -0.343933,-0.03286 -0.516152,-0.046391 -0.172219,-0.013532 -0.344595,-0.02513 -0.517094,-0.034792 -0.172498,-0.00966 -0.34512,-0.017388 -0.51783,-0.023174 -0.172709,-0.00579 -0.345507,-0.00963 -0.518359,-0.011538 z"
       id="path895"
       inkscape:connector-curvature="0"
       sodipodi:nodetypes="sssssssssssssssssssssssssssssssscssssssssssssssssssssssssssssssscssssssssssssssssssssssssssssssscssssssssssssssssssssssssssssssscssssssssssssssssssssssssssssssscssssssssssssssssssssssssssssssscssssssssssssssssssssssssssssssscssssssssssssssssssssssssssssssscssssssssssssssssssssssssssssssssssssssssssssssssssssssssssssssssssssssssssssssssssssssssssssssscssssssssssssssssssssssssssssssscssssssssssssssssssssssssssssssscssssssssssssssssssssssssssssssssssssssssssssssssssssssssssssssssssssssssssssssssssssssssssssssscssssssssssssssssssssssssssssssssccccccccccccccccccccccccccccccccssssssssssssssssssssssssssssssss" />
  </g>
  <g
     id="g853"
     inkscape:groupmode="layer"
     inkscape:label="B.Cu-disabled" />
  <g
     id="g855"
     inkscape:groupmode="layer"
     inkscape:label="B.Mask-disabled" />
  <g
     id="g857"
     inkscape:groupmode="layer"
     inkscape:label="B.Silk-disabled" />
  <g
     id="g859"
     inkscape:groupmode="layer"
     inkscape:label="F.Cu" />
  <g
     id="g861"
     inkscape:groupmode="layer"
     inkscape:label="F.Mask-disabled" />
  <g
     id="g863"
     inkscape:groupmode="layer"
     inkscape:label="F.Silk"
     style="display:inline">
    <path
       style="fill:#000000;fill-opacity:1;stroke:#000000;stroke-width:0.80503941;stroke-miterlimit:4;stroke-dasharray:none;stroke-opacity:1"
       d="m 170.02522,246.83666 c -0.77584,-0.21767 -1.55066,-0.48373 -2.32071,-0.79521 -0.77004,-0.31148 -1.53531,-0.66838 -2.29201,-1.06772 -0.75671,-0.39935 -1.50486,-0.84114 -2.24068,-1.32241 -0.73582,-0.48126 -1.4593,-1.002 -2.16668,-1.55923 -0.70738,-0.55724 -1.39865,-1.15097 -2.07005,-1.77823 -0.67139,-0.62726 -1.3229,-1.28804 -1.95075,-1.97937 -0.62785,-0.69134 -1.23205,-1.41322 -1.80881,-2.16268 -0.57677,-0.74947 -1.1261,-1.52651 -1.64423,-2.32815 -0.33082,-0.51185 -0.63338,-0.99758 -0.90871,-1.46023 -0.27533,-0.46265 -0.52345,-0.90223 -0.7454,-1.32178 -0.22194,-0.41955 -0.41773,-0.81907 -0.58839,-1.2016 -0.17067,-0.38253 -0.31622,-0.74808 -0.43771,-1.09969 -0.12148,-0.35161 -0.21891,-0.68927 -0.29333,-1.01605 -0.0744,-0.32677 -0.12582,-0.64265 -0.15526,-0.95067 -0.0294,-0.30803 -0.0369,-0.60821 -0.0235,-0.90358 0.0134,-0.29537 0.0477,-0.58594 0.10192,-0.87475 0.0833,-0.44425 0.2217,-0.87194 0.4071,-1.27831 0.1854,-0.40637 0.41784,-0.79142 0.68933,-1.1504 0.27149,-0.35898 0.58203,-0.69189 0.92364,-0.99397 0.34162,-0.30209 0.7143,-0.57335 1.11008,-0.80903 0.39577,-0.23568 0.81463,-0.43578 1.2486,-0.59555 0.43396,-0.15977 0.88303,-0.27921 1.33922,-0.35356 0.4562,-0.0743 0.91951,-0.10361 1.38196,-0.083 0.46246,0.0206 0.92405,0.091 1.3768,0.216 0.25471,0.0703 0.49782,0.15227 0.73215,0.24868 0.23434,0.0964 0.4599,0.20728 0.67951,0.33546 0.21961,0.12818 0.43327,0.27366 0.64379,0.43931 0.21053,0.16564 0.41793,0.35143 0.62502,0.56023 0.20709,0.2088 0.41387,0.44059 0.62317,0.69823 0.20929,0.25764 0.42111,0.54113 0.63825,0.8533 0.21715,0.31218 0.43964,0.65305 0.67028,1.02545 0.23065,0.37241 0.46945,0.77635 0.71924,1.21467 0.45641,0.8009 0.94248,1.55203 1.45409,2.251 0.5116,0.69897 1.04873,1.34578 1.60725,1.93801 0.55852,0.59223 1.13842,1.12989 1.73556,1.61057 0.59714,0.48068 1.21152,0.90438 1.839,1.2687 0.62747,0.36432 1.26805,0.66926 1.91758,0.9124 0.64952,0.24315 1.308,0.4245 1.97129,0.54166 0.66329,0.11717 1.33139,0.17013 2.00016,0.1565 0.66876,-0.0136 1.3382,-0.0939 2.00415,-0.24312 0.6772,-0.15176 1.32996,-0.32445 1.96946,-0.52546 0.63951,-0.20101 1.26575,-0.43035 1.88993,-0.69542 0.62419,-0.26508 1.2463,-0.5659 1.87753,-0.90988 0.63123,-0.34397 1.27159,-0.73109 1.93224,-1.16878 0.66066,-0.43769 1.34163,-0.92594 2.05409,-1.47217 0.71246,-0.54623 1.45642,-1.15044 2.24306,-1.82003 0.78664,-0.66959 1.61596,-1.40457 2.49914,-2.21235 0.88319,-0.80778 1.82025,-1.68836 2.82237,-2.64915 1.8043,-1.72989 3.61169,-3.3343 5.43329,-4.81762 1.82159,-1.48332 3.65739,-2.84557 5.51849,-4.09114 1.8611,-1.24557 3.74751,-2.37447 5.67034,-3.39111 1.92282,-1.01663 3.88206,-1.921 5.88882,-2.71752 2.00676,-0.79652 4.06104,-1.48518 6.17395,-2.0704 2.1129,-0.58522 4.28444,-1.06699 6.52571,-1.44972 2.24127,-0.38273 4.55227,-0.66643 6.94411,-0.85549 2.39184,-0.18906 4.86453,-0.2835 7.42916,-0.28771 1.55439,-0.003 3.0895,0.0241 4.60843,0.0805 1.51893,0.0564 3.02167,0.14246 4.51133,0.25877 1.48966,0.11631 2.96622,0.26285 4.4328,0.44012 1.46657,0.17727 2.92315,0.38528 4.37284,0.62454 1.44968,0.23926 2.89246,0.50977 4.33144,0.81204 1.43899,0.30226 2.87416,0.63629 4.30863,1.00258 1.43447,0.3663 2.86823,0.76486 4.30438,1.19621 1.43615,0.43134 2.87468,0.89547 4.3187,1.39289 0.71085,0.24487 1.43162,0.4745 2.16221,0.68887 0.73059,0.21437 1.47099,0.41349 2.2211,0.59733 0.75012,0.18385 1.50994,0.35242 2.27937,0.5057 0.76944,0.15329 1.54848,0.29129 2.33702,0.41398 0.78854,0.12269 1.58659,0.23008 2.39403,0.32215 0.80745,0.0921 1.62429,0.16881 2.45043,0.23022 0.82614,0.0614 1.66158,0.10749 2.50621,0.13821 0.84462,0.0307 1.69844,0.0461 2.56135,0.0461 1.27354,0 2.50289,-0.0399 3.69097,-0.12075 1.18809,-0.0808 2.33491,-0.2026 3.4434,-0.36631 1.1085,-0.16371 2.17866,-0.36936 3.21342,-0.61797 1.03476,-0.24862 2.03412,-0.54019 3.00101,-0.87575 0.96689,-0.33555 1.90131,-0.71508 2.80619,-1.13961 0.90489,-0.42453 1.78023,-0.89405 2.62896,-1.40958 0.84874,-0.51554 1.67086,-1.07708 2.46931,-1.68566 0.79844,-0.60857 1.57321,-1.26418 2.32723,-1.96783 1.15958,-1.08212 2.19484,-2.20603 3.10501,-3.36526 0.91018,-1.15924 1.69527,-2.3538 2.35453,-3.57724 0.65926,-1.22344 1.19269,-2.47575 1.59954,-3.75049 0.40685,-1.27475 0.68711,-2.57191 0.84004,-3.88505 0.15292,-1.31313 0.17852,-2.64224 0.076,-3.98087 -0.10249,-1.33862 -0.33307,-2.68677 -0.69249,-4.03798 -0.35942,-1.35121 -0.84768,-2.70549 -1.46552,-4.05639 -0.61785,-1.35089 -1.36528,-2.6984 -2.24306,-4.03607 -0.13445,-0.20489 -0.29815,-0.43638 -0.48662,-0.68938 -0.18847,-0.25301 -0.40171,-0.52754 -0.63524,-0.81851 -0.23353,-0.29097 -0.48736,-0.59838 -0.757,-0.91717 -0.26964,-0.31878 -0.5551,-0.64893 -0.85189,-0.98537 -0.2968,-0.33645 -0.60493,-0.67919 -0.91993,-1.02314 -0.31499,-0.34396 -0.63685,-0.68913 -0.96109,-1.03044 -0.32423,-0.34131 -0.65085,-0.67877 -0.97538,-1.00729 -0.32453,-0.32852 -0.64696,-0.6481 -0.96282,-0.95368 l -0.57429,-0.55559 -0.57429,-0.5556 -0.5743,-0.55559 -0.57429,-0.55559 -0.57429,-0.55559 -0.57429,-0.5556 -0.5743,-0.55559 -0.57429,-0.55559 v -1.57705 -1.57704 -1.57705 -1.57704 -1.57705 -1.57705 -1.57704 -1.57705 c 0,-1.32308 -0.002,-2.52124 -0.008,-3.61072 -0.006,-1.08948 -0.0152,-2.07027 -0.0289,-2.95861 -0.0137,-0.88835 -0.0318,-1.68424 -0.0553,-2.40393 -0.0235,-0.71968 -0.0524,-1.36315 -0.0877,-1.94664 -0.0353,-0.58349 -0.0769,-1.10701 -0.12588,-1.58678 -0.049,-0.47977 -0.10531,-0.9158 -0.16998,-1.32432 -0.0647,-0.40852 -0.13766,-0.78954 -0.21997,-1.15928 -0.0823,-0.36974 -0.17393,-0.72821 -0.27585,-1.09164 -0.5476,-1.95272 -1.20408,-3.79775 -1.96925,-5.53495 -0.76517,-1.73719 -1.63903,-3.36655 -2.62139,-4.88793 -0.98236,-1.52138 -2.07322,-2.93477 -3.27239,-4.24004 -1.19917,-1.30527 -2.50665,-2.50241 -3.92225,-3.59128 -1.4156,-1.08887 -2.93932,-2.06946 -4.57097,-2.94164 -1.63165,-0.87217 -3.37123,-1.63593 -5.21856,-2.29112 -1.84732,-0.65519 -3.80238,-1.20181 -5.865,-1.63973 -2.06261,-0.43792 -4.23278,-0.76712 -6.51031,-0.98747 -1.48419,-0.14359 -3.00344,-0.22168 -4.54261,-0.23752 -1.53916,-0.0158 -3.09825,0.0306 -4.66212,0.13595 -1.56387,0.10539 -3.13252,0.26976 -4.69082,0.48985 -1.55829,0.22008 -3.10624,0.49589 -4.62869,0.82415 -1.52246,0.32826 -3.01942,0.70897 -4.47576,1.13887 -1.45634,0.42991 -2.87205,0.90901 -4.23199,1.43403 -1.35995,0.52502 -2.66414,1.09597 -3.89742,1.70959 -1.23329,0.61361 -2.39567,1.26989 -3.47202,1.96557 -1.07931,0.69759 -2.10812,1.46037 -3.08304,2.2822 -0.97492,0.82183 -1.89594,1.70272 -2.75968,2.63652 -0.86373,0.93381 -1.67017,1.92054 -2.41592,2.95405 -0.74575,1.03351 -1.43081,2.11381 -2.05179,3.23477 -0.62098,1.12095 -1.17787,2.28256 -1.66727,3.47869 -0.48941,1.19613 -0.91133,2.42679 -1.26237,3.68583 -0.35103,1.25904 -0.63119,2.54647 -0.83707,3.85616 -0.20588,1.30968 -0.33748,2.64163 -0.3914,3.98969 -0.0332,0.83035 -0.0686,1.54836 -0.094,2.17053 -0.0254,0.62217 -0.0407,1.14851 -0.0338,1.59553 0.007,0.44703 0.036,0.81474 0.0996,1.11966 0.0635,0.30492 0.16153,0.54706 0.30613,0.74291 0.1446,0.19586 0.33582,0.34545 0.58585,0.46529 0.25003,0.11984 0.55888,0.20992 0.93875,0.28678 0.37986,0.0769 0.83074,0.14048 1.36482,0.2074 0.53409,0.0669 1.15139,0.13711 1.86409,0.22713 1.68293,0.21256 3.35724,0.5028 5.01584,0.86706 1.6586,0.36426 3.30149,0.80255 4.92159,1.31119 1.6201,0.50865 3.21742,1.08766 4.78486,1.73337 1.56744,0.64571 3.105,1.35812 4.60561,2.13357 1.50061,0.77545 2.96427,1.61394 4.38388,2.51181 1.41962,0.89787 2.79519,1.85513 4.11965,2.8681 1.32445,1.01298 2.59778,2.08167 3.81291,3.20243 1.21513,1.12075 2.37205,2.29357 3.46368,3.51478 0.21705,0.24282 0.41108,0.46527 0.58445,0.6731 0.17337,0.20784 0.32608,0.40105 0.4605,0.5854 0.13441,0.18434 0.25054,0.35981 0.35073,0.53216 0.10019,0.17235 0.18445,0.34158 0.25515,0.51343 0.0707,0.17185 0.12783,0.34632 0.17376,0.52916 0.0459,0.18285 0.0806,0.37406 0.10654,0.5794 0.0259,0.20533 0.0429,0.42478 0.0535,0.6641 0.0106,0.23931 0.0147,0.49849 0.0147,0.78329 0,0.39219 -0.026,0.77211 -0.077,1.13857 -0.0511,0.36646 -0.12727,0.71946 -0.22773,1.05779 -0.10046,0.33833 -0.22519,0.66199 -0.37334,0.9698 -0.14815,0.3078 -0.31973,0.59974 -0.51387,0.87462 -0.19415,0.27488 -0.41087,0.5327 -0.64933,0.77226 -0.23845,0.23955 -0.49863,0.46085 -0.77969,0.66269 -0.28106,0.20184 -0.583,0.38422 -0.90497,0.54594 -0.32198,0.16172 -0.66399,0.30278 -1.02519,0.42199 -0.37644,0.12424 -0.73442,0.22065 -1.08153,0.28597 -0.34711,0.0653 -0.68333,0.0996 -1.01627,0.0994 -0.33293,-1.1e-4 -0.66258,-0.0346 -0.99651,-0.10665 -0.33393,-0.0721 -0.67215,-0.18176 -1.02225,-0.33231 -0.35009,-0.15056 -0.71206,-0.34199 -1.09349,-0.57755 -0.38143,-0.23556 -0.78231,-0.51525 -1.21023,-0.84234 -0.42793,-0.32709 -0.88289,-0.70157 -1.37248,-1.12671 -0.48959,-0.42514 -1.0138,-0.90093 -1.58022,-1.43064 -1.24589,-1.16515 -2.53395,-2.25004 -3.8607,-3.25353 -1.32675,-1.0035 -2.69219,-1.92559 -4.09285,-2.76514 -1.40066,-0.83955 -2.83654,-1.59655 -4.30417,-2.26985 -1.46763,-0.67331 -2.967,-1.26292 -4.49465,-1.76769 -1.52765,-0.50476 -3.08357,-0.92469 -4.66429,-1.25863 -1.58073,-0.33394 -3.18625,-0.58188 -4.81311,-0.7427 -1.62686,-0.16081 -3.27504,-0.23448 -4.94109,-0.21987 -1.66604,0.0146 -3.34994,0.1175 -5.04823,0.30982 -1.24176,0.14062 -2.42638,0.30273 -3.55917,0.48843 -1.13279,0.1857 -2.21375,0.395 -3.24819,0.63 -1.03444,0.23501 -2.02236,0.49572 -2.96907,0.78426 -0.94671,0.28854 -1.8522,0.6049 -2.72179,0.9512 -0.86959,0.3463 -1.70327,0.72254 -2.50636,1.13083 -0.80309,0.40828 -1.57559,0.84862 -2.32279,1.32313 -0.74721,0.4745 -1.46912,0.98317 -2.17106,1.52812 -0.70194,0.54495 -1.3839,1.12618 -2.05119,1.7458 -0.67905,0.63054 -1.29476,1.18598 -1.86252,1.66898 -0.56776,0.48299 -1.08757,0.89354 -1.5748,1.23429 -0.48724,0.34075 -0.94191,0.61171 -1.37939,0.81553 -0.43748,0.20382 -0.85778,0.34049 -1.27629,0.41269 -0.4185,0.0722 -0.8352,0.0799 -1.26548,0.0258 -0.43029,-0.0541 -0.87416,-0.17008 -1.347,-0.34521 -0.47285,-0.17514 -0.97466,-0.40945 -1.52082,-0.70028 -0.54617,-0.29084 -1.13669,-0.6382 -1.78695,-1.03943 -0.69335,-0.42782 -1.34752,-0.81697 -1.97391,-1.17099 -0.62639,-0.35402 -1.225,-0.67292 -1.80724,-0.96026 -0.58224,-0.28733 -1.14811,-0.5431 -1.70903,-0.77086 -0.56091,-0.22775 -1.11686,-0.4275 -1.67926,-0.6028 -0.5624,-0.17529 -1.13124,-0.32613 -1.71795,-0.45607 -0.5867,-0.12995 -1.19127,-0.23899 -1.82509,-0.3307 -0.63383,-0.0917 -1.29693,-0.16606 -2.0007,-0.22663 -0.70377,-0.0606 -1.44822,-0.10737 -2.24475,-0.14393 -2.26708,-0.10406 -4.47872,-0.0173 -6.61762,0.24687 -2.13889,0.26414 -4.20504,0.70561 -6.18112,1.31092 -1.97607,0.6053 -3.86208,1.37444 -5.64071,2.29389 -1.77862,0.91945 -3.44985,1.98922 -4.99638,3.19579 -1.54653,1.20658 -2.96836,2.54996 -4.24816,4.01664 -1.27981,1.46668 -2.41759,3.05665 -3.39603,4.75641 -0.97844,1.69975 -1.79753,3.5093 -2.43997,5.41511 -0.64244,1.90581 -1.10822,3.9079 -1.38002,5.99275 -0.0656,0.50286 -0.14923,0.96573 -0.25832,1.39495 -0.1091,0.42923 -0.24361,0.8248 -0.41085,1.19308 -0.16723,0.36829 -0.36719,0.70927 -0.60718,1.0293 -0.23999,0.32004 -0.52,0.61912 -0.84735,0.9036 -0.32735,0.28448 -0.70203,0.55436 -1.13135,0.81598 -0.42932,0.26163 -0.91327,0.515 -1.45916,0.76646 -0.5459,0.25147 -1.15373,0.50102 -1.83081,0.75502 -0.67708,0.254 -1.42341,0.51243 -2.24628,0.78166 -1.54178,0.50444 -3.04864,1.07986 -4.51516,1.72166 -1.46652,0.64181 -2.8927,1.35 -4.27314,2.11999 -1.38044,0.76999 -2.71513,1.60177 -3.99867,2.49075 -1.28354,0.88898 -2.51593,1.83515 -3.69175,2.83393 -1.17583,0.99879 -2.29509,2.05017 -3.35238,3.14957 -1.05729,1.09939 -2.05261,2.2468 -2.98055,3.43762 -0.92795,1.19082 -1.78851,2.42506 -2.57628,3.69812 -0.78778,1.27305 -1.50276,2.58493 -2.13955,3.93104 -0.10404,0.21993 -0.20655,0.43626 -0.30642,0.64669 -0.0999,0.21042 -0.19708,0.41493 -0.29054,0.6112 -0.0935,0.19628 -0.18316,0.38431 -0.26798,0.56178 -0.0848,0.17748 -0.16476,0.34439 -0.23872,0.49841 -0.0739,0.15403 -0.14191,0.29517 -0.20276,0.4211 -0.0609,0.12594 -0.1146,0.23666 -0.16012,0.32985 -0.0455,0.0932 -0.0828,0.16885 -0.11078,0.22465 -0.028,0.0558 -0.0466,0.0917 -0.0547,0.10552 -0.008,0.0138 -0.0254,0.0163 -0.0506,0.008 -0.0252,-0.008 -0.0585,-0.026 -0.0989,-0.0536 -0.0404,-0.0276 -0.0878,-0.0646 -0.14138,-0.11005 -0.0536,-0.0455 -0.11321,-0.0994 -0.17798,-0.16094 -0.0648,-0.0615 -0.13467,-0.13057 -0.20871,-0.20626 -0.074,-0.0757 -0.15222,-0.15801 -0.23357,-0.24602 -0.0814,-0.088 -0.16587,-0.18172 -0.25258,-0.2802 -0.0867,-0.0985 -0.17561,-0.20173 -0.26572,-0.30882 -0.1999,-0.23757 -0.43978,-0.48169 -0.7118,-0.72798 -0.27202,-0.2463 -0.576184,-0.49478 -0.904664,-0.74108 -0.328479,-0.24629 -0.681272,-0.49039 -1.050546,-0.72794 -0.369274,-0.23754 -0.75503,-0.46853 -1.149436,-0.68859 -0.394405,-0.22006 -0.797461,-0.42919 -1.201335,-0.62302 -0.403874,-0.19384 -0.808566,-0.37238 -1.206244,-0.53125 -0.397679,-0.15886 -0.788344,-0.29807 -1.164164,-0.41323 -0.37582,-0.11517 -0.736795,-0.2063 -1.075093,-0.26902 -0.137455,-0.0255 -0.271724,-0.0528 -0.401445,-0.0814 -0.129722,-0.0286 -0.254896,-0.0586 -0.374162,-0.0894 -0.119266,-0.0308 -0.232624,-0.0624 -0.338714,-0.0944 -0.106089,-0.032 -0.20491,-0.0644 -0.295102,-0.0966 -0.09019,-0.0322 -0.171755,-0.0643 -0.243327,-0.0958 -0.07157,-0.0315 -0.133156,-0.0624 -0.183388,-0.0921 -0.05023,-0.0298 -0.08911,-0.0584 -0.115285,-0.0855 -0.02617,-0.0271 -0.03963,-0.0526 -0.03902,-0.076 6e-4,-0.0234 0.01784,-0.0773 0.05008,-0.1584 0.03225,-0.0811 0.0795,-0.18943 0.140138,-0.32174 0.06064,-0.1323 0.134662,-0.28859 0.220445,-0.4656 0.08578,-0.17701 0.183327,-0.37475 0.291004,-0.58997 0.107678,-0.21523 0.22549,-0.44793 0.351813,-0.69488 0.126322,-0.24694 0.261154,-0.50812 0.402871,-0.78029 0.141716,-0.27216 0.290318,-0.55532 0.444179,-0.84622 0.153861,-0.29089 0.312982,-0.58953 0.475738,-0.89267 0.779525,-1.45188 1.624456,-2.86975 2.530507,-4.24974 0.90605,-1.37998 1.87322,-2.72208 2.89722,-4.02242 1.024,-1.30033 2.104828,-2.55889 3.238208,-3.77179 1.13337,-1.21291 2.31929,-2.38017 3.55346,-3.49789 1.23417,-1.11771 2.5166,-2.1859 3.84299,-3.20066 1.32639,-1.01476 2.69675,-1.9761 4.10679,-2.88014 1.41004,-0.90404 2.85976,-1.75077 4.34487,-2.53632 1.48511,-0.78555 3.00561,-1.50991 4.55721,-2.1692 0.32532,-0.13823 0.62276,-0.26851 0.89394,-0.39202 0.27118,-0.12351 0.5161,-0.24025 0.73639,-0.3514 0.22029,-0.11116 0.41594,-0.21673 0.58858,-0.3179 0.17264,-0.10117 0.32228,-0.19794 0.45052,-0.2915 0.12824,-0.0935 0.23509,-0.18389 0.32218,-0.27219 0.0871,-0.0883 0.15442,-0.17458 0.2036,-0.26001 0.0492,-0.0854 0.0802,-0.17 0.0947,-0.25491 0.0145,-0.0849 0.0125,-0.17016 -0.004,-0.25693 -0.0621,-0.31881 -0.20515,-0.80658 -0.41602,-1.43222 -0.21087,-0.62565 -0.48953,-1.38917 -0.82278,-2.2595 -0.33325,-0.87033 -0.72109,-1.84746 -1.15029,-2.90033 -0.42921,-1.05286 -0.8998,-2.18145 -1.39854,-3.3547 -0.49875,-1.17325 -1.02566,-2.39116 -1.56753,-3.62264 -0.54187,-1.23149 -1.09869,-2.47655 -1.65726,-3.70412 -0.55857,-1.22758 -1.11888,-2.43766 -1.66773,-3.59917 -0.54885,-1.16151 -1.08624,-2.27445 -1.59895,-3.30775 -1.30676,-2.63361 -2.64904,-5.17166 -4.01952,-7.60555 -1.37048,-2.4339 -2.76916,-4.76364 -4.18872,-6.98063 -1.41955,-2.21699 -2.85999,-4.32123 -4.31399,-6.30412 -1.454,-1.98289 -2.921569,-3.84443 -4.39538,-5.57602 -1.473811,-1.7316 -2.953868,-3.33325 -4.432853,-4.79635 -1.478986,-1.46311 -2.9569,-2.78767 -4.426425,-3.96509 -1.469526,-1.17742 -2.930662,-2.2077 -4.376092,-3.08224 -1.445431,-0.87455 -2.875155,-1.59335 -4.281855,-2.14782 -0.623413,-0.24573 -1.232865,-0.46737 -1.831786,-0.66528 -0.59892,-0.19791 -1.187311,-0.3721 -1.768602,-0.52291 -0.581292,-0.1508 -1.155485,-0.27824 -1.72601,-0.38266 -0.570526,-0.10441 -1.137384,-0.18581 -1.704007,-0.24455 -0.566622,-0.0587 -1.133009,-0.0948 -1.702592,-0.10857 -0.569583,-0.0138 -1.142362,-0.005 -1.721769,0.0253 -0.579406,0.0305 -1.16544,0.0829 -1.761533,0.15696 -0.596094,0.074 -1.202246,0.16967 -1.821889,0.28654 -1.715641,0.32358 -3.343647,0.75449 -4.87912,1.28701 -1.535473,0.53251 -2.978414,1.16665 -4.323923,1.89668 -1.345509,0.73004 -2.593587,1.55598 -3.739336,2.47212 -1.145749,0.91614 -2.189169,1.92248 -3.125361,3.01331 -0.936192,1.09083 -1.765156,2.26615 -2.481995,3.52026 -0.716839,1.25411 -1.321551,2.587 -1.80924,3.99296 -0.487689,1.40597 -0.858354,2.88501 -1.107097,4.43142 -0.248743,1.54641 -0.375563,3.1602 -0.375563,4.83564 0,1.50106 0.10616,2.95516 0.315116,4.35785 0.208957,1.40268 0.520709,2.75395 0.931895,4.04934 0.411186,1.29539 0.921805,2.53491 1.528493,3.7141 0.606688,1.17919 1.309445,2.29804 2.104909,3.35211 0.795463,1.05407 1.683633,2.04335 2.661145,2.96338 0.977511,0.92004 2.044366,1.77083 3.197199,2.54792 1.152833,0.77708 2.391645,1.48047 3.713073,2.10569 1.321427,0.62523 2.72547,1.1723 4.208765,1.63675 0.251723,0.0788 0.520416,0.15292 0.807243,0.2224 0.286826,0.0695 0.591787,0.13438 0.916045,0.19479 0.324259,0.0604 0.667815,0.11632 1.031833,0.16789 0.364018,0.0516 0.748498,0.0988 1.154603,0.14175 0.406105,0.043 0.833836,0.0817 1.284356,0.11634 0.450521,0.0346 0.923831,0.0652 1.421094,0.0917 0.497264,0.0265 1.018481,0.0491 1.564815,0.0678 0.546335,0.0187 1.117787,0.0335 1.71552,0.0446 0.974467,0.0181 1.847537,0.041 2.63223,0.0736 0.784693,0.0325 1.481008,0.0745 2.101967,0.13069 0.620958,0.0562 1.16656,0.12641 1.649824,0.21538 0.483264,0.089 0.904192,0.19663 1.275802,0.32758 0.37161,0.13096 0.693903,0.28521 0.9799,0.46733 0.285996,0.18213 0.535695,0.39213 0.762118,0.6346 0.226422,0.24247 0.429568,0.51741 0.622457,0.8294 0.192888,0.31199 0.37552,0.66104 0.560915,1.05173 0.133358,0.28103 0.250046,0.54898 0.350065,0.80713 0.100018,0.25814 0.183367,0.50648 0.250046,0.74827 0.06668,0.2418 0.116688,0.47706 0.150028,0.70905 0.03334,0.23198 0.05001,0.4607 0.05001,0.68942 0,0.22872 -0.01667,0.45744 -0.05001,0.68942 -0.03334,0.23199 -0.08335,0.46725 -0.150028,0.70905 -0.06668,0.24179 -0.150028,0.49013 -0.250046,0.74827 -0.100019,0.25815 -0.216707,0.5261 -0.350065,0.80713 -0.200038,0.42155 -0.392254,0.79572 -0.593544,1.12773 -0.20129,0.33202 -0.411654,0.62188 -0.647989,0.87481 -0.236335,0.25292 -0.498641,0.46892 -0.803815,0.65321 -0.305175,0.1843 -0.653217,0.33689 -1.061023,0.46299 -0.407807,0.12611 -0.875379,0.22574 -1.419612,0.30411 -0.544234,0.0784 -1.165129,0.13549 -1.879582,0.17658 -0.714454,0.0411 -1.522466,0.0662 -2.440934,0.0804 -0.918467,0.0142 -1.94739,0.0177 -3.103666,0.0156 -1.181938,-0.002 -2.264937,-0.0141 -3.268704,-0.0397 -1.003766,-0.0256 -1.9283,-0.065 -2.79331,-0.12219 -0.86501,-0.0572 -1.670495,-0.13212 -2.436162,-0.22889 -0.765668,-0.0968 -1.491518,-0.21534 -2.197259,-0.35977 -0.705741,-0.14443 -1.391372,-0.3147 -2.0766,-0.51485 -0.685229,-0.20016 -1.370055,-0.43019 -2.074187,-0.69414 -0.704132,-0.26394 -1.427568,-0.5618 -2.190018,-0.89761 -0.762449,-0.3358 -1.563912,-0.70955 -2.424094,-1.12528 -1.222087,-0.59064 -2.408749,-1.25203 -3.555703,-1.9789 -1.146954,-0.72687 -2.254202,-1.51922 -3.317463,-2.37177 -1.063261,-0.85256 -2.082535,-1.76531 -3.053543,-2.733 -0.971007,-0.96769 -1.893747,-1.99031 -2.76394,-3.06259 -0.870194,-1.07227 -1.68784,-2.19421 -2.448658,-3.36052 -0.760819,-1.16632 -1.464811,-2.37701 -2.107695,-3.62682 -0.642884,-1.2498 -1.22466,-2.53872 -1.741049,-3.86147 -0.516389,-1.32275 -0.96739,-2.67933 -1.348724,-4.06447 -0.186933,-0.67901 -0.34847,-1.44019 -0.484867,-2.26256 -0.136398,-0.82237 -0.247655,-1.70593 -0.334026,-2.62968 -0.08637,-0.92375 -0.147858,-1.8877 -0.184714,-2.87084 -0.03686,-0.98315 -0.04908,-1.98549 -0.03693,-2.98605 0.01215,-1.00056 0.04868,-1.99933 0.109321,-2.97531 0.06065,-0.97598 0.145412,-1.92919 0.254045,-2.83862 0.108632,-0.90942 0.241129,-1.77508 0.397238,-2.57597 0.156109,-0.80088 0.335828,-1.53701 0.538903,-2.18737 0.552289,-1.76875 1.18755,-3.45889 1.904999,-5.0697 0.71745,-1.61081 1.517088,-3.14229 2.398133,-4.5937 0.881044,-1.4514 1.843494,-2.82274 2.886568,-4.11327 1.043073,-1.29053 2.166769,-2.50026 3.370305,-3.62845 1.203536,-1.1282 2.486912,-2.17485 3.849344,-3.13923 1.362433,-0.96439 2.803922,-1.8465 4.323686,-2.6456 1.519763,-0.79911 3.1178,-1.51521 4.793328,-2.14757 1.675528,-0.63236 3.428546,-1.18098 5.258273,-1.64513 0.911502,-0.23122 1.850192,-0.42975 2.806171,-0.59586 0.955979,-0.1661 1.929248,-0.29978 2.909909,-0.4013 0.980661,-0.10152 1.968714,-0.17088 2.95426,-0.20835 0.985547,-0.0375 1.968588,-0.043 2.939224,-0.017 0.970636,0.0261 1.928869,0.0837 2.864799,0.17279 0.935931,0.0891 1.84956,0.20946 2.730988,0.36096 0.881429,0.15151 1.730658,0.33411 2.537789,0.54755 0.807132,0.21343 1.572165,0.4577 2.285203,0.73253 0.08653,0.0333 0.168206,0.0543 0.2463,0.061 0.07809,0.007 0.152611,-7.8e-4 0.224831,-0.0243 0.07222,-0.0235 0.142146,-0.0629 0.211058,-0.12017 0.06891,-0.0572 0.136811,-0.13222 0.204979,-0.22676 0.06817,-0.0945 0.136607,-0.20862 0.206598,-0.34402 0.06999,-0.13541 0.141533,-0.29214 0.21591,-0.47197 0.07438,-0.17983 0.15159,-0.38276 0.23292,-0.61057 0.08133,-0.22781 0.166777,-0.4805 0.257624,-0.75985 0.18021,-0.55414 0.407142,-1.16715 0.672028,-1.82281 0.264886,-0.65566 0.567725,-1.35396 0.89975,-2.07869 0.332024,-0.72472 0.693233,-1.47587 1.074859,-2.23721 0.381626,-0.761344 0.783668,-1.532882 1.197357,-2.298389 0.41369,-0.765506 0.839028,-1.524982 1.267244,-2.262202 0.428217,-0.73722 0.859312,-1.452183 1.284518,-2.128664 0.425206,-0.676481 0.844523,-1.314479 1.249181,-1.89777 0.404658,-0.583291 0.794659,-1.111873 1.161232,-1.569522 0.882222,-1.10141 1.838038,-2.16505 2.860413,-3.187095 1.022375,-1.022046 2.111309,-2.002497 3.259766,-2.937533 1.14846,-0.935035 2.35644,-1.824655 3.61691,-2.665035 1.26047,-0.84038 2.57343,-1.631522 3.93184,-2.369602 1.35841,-0.738079 2.76227,-1.423098 4.20455,-2.051232 1.44228,-0.628135 2.92298,-1.199385 4.43506,-1.709928 1.51209,-0.510544 3.05555,-0.960381 4.62336,-1.345689 1.56781,-0.385307 3.15997,-0.706085 4.76944,-0.958512 0.78087,-0.12247 1.63314,-0.227662 2.54164,-0.315751 0.90849,-0.08809 1.87321,-0.159076 2.87898,-0.213138 1.00578,-0.05406 2.0526,-0.0912 3.1253,-0.111586 1.0727,-0.02039 2.17128,-0.02403 3.28055,-0.0111 1.10928,0.01293 2.22926,0.04244 3.34477,0.08833 1.11551,0.0459 2.22655,0.10819 3.31794,0.186699 1.09139,0.07851 2.16313,0.173237 3.20005,0.284006 1.03692,0.110768 2.03903,0.237576 2.99113,0.380249 l 0.81911,0.122744 0.81912,0.122744 0.81912,0.122744 0.81911,0.122744 0.81911,0.122745 0.81912,0.122744 0.81911,0.122744 0.81912,0.122744 0.11118,-0.160905 0.11117,-0.160904 0.11118,-0.160904 0.11117,-0.160905 0.11118,-0.160905 0.11118,-0.160904 0.11117,-0.160905 0.11118,-0.160904 c 0.65687,-0.95068 1.39062,-1.885444 2.19148,-2.797976 0.80087,-0.912531 1.66886,-1.802829 2.59421,-2.664576 0.92534,-0.861747 1.90805,-1.694943 2.93836,-2.49327 1.03031,-0.798327 2.10822,-1.561786 3.22397,-2.284059 1.11575,-0.722272 2.26934,-1.403359 3.45102,-2.036941 1.18167,-0.633582 2.39143,-1.21966 3.61951,-1.751916 1.22808,-0.532257 2.47448,-1.010691 3.72944,-1.428986 1.25496,-0.418295 2.51849,-0.77645 3.78082,-1.068148 0.54143,-0.125113 1.04216,-0.236408 1.51771,-0.33493 0.47555,-0.09852 0.92591,-0.184272 1.36659,-0.258295 0.44069,-0.07402 0.8717,-0.136322 1.30854,-0.18794 0.43684,-0.05162 0.87952,-0.09256 1.34355,-0.123862 0.46402,-0.0313 0.94939,-0.05298 1.47162,-0.06606 0.52223,-0.01308 1.08131,-0.01758 1.69276,-0.01454 0.61146,0.003 1.27528,0.01362 2.00698,0.0307 0.73169,0.01707 1.53127,0.04064 2.41424,0.06966 1.11787,0.03674 2.15988,0.08196 3.14399,0.13935 0.98412,0.05739 1.91033,0.126948 2.79662,0.212353 0.88629,0.0854 1.73266,0.186655 2.55706,0.307433 0.82441,0.120778 1.62686,0.261083 2.42532,0.424594 0.79846,0.163511 1.59293,0.350229 2.40139,0.563833 0.80845,0.213605 1.63089,0.454095 2.48528,0.725152 0.85439,0.271057 1.74073,0.57268 2.67699,0.908549 0.93626,0.335869 1.92244,0.705985 2.97651,1.114026 1.52271,0.589457 3.02369,1.250925 4.50175,1.983395 1.47807,0.73247 2.93323,1.535942 4.36432,2.409409 1.43109,0.873467 2.8381,1.816928 4.21988,2.829375 1.38177,1.012447 2.73831,2.09388 4.06844,3.243292 1.33013,1.149411 2.63385,2.3668 3.91,3.651159 1.27615,1.28436 2.52473,2.635689 3.74457,4.05298 1.21984,1.417291 2.41093,2.900544 3.57213,4.44875 1.16119,1.548207 2.29248,3.161367 3.39269,4.838473 0.25249,0.384875 0.50395,0.767831 0.75142,1.144379 0.24748,0.376548 0.49096,0.746687 0.72748,1.105927 0.23653,0.359239 0.46609,0.707579 0.68573,1.040529 0.21963,0.332949 0.42934,0.650508 0.62615,0.948186 0.19681,0.297678 0.38072,0.575474 0.54876,0.828899 0.16805,0.253424 0.32023,0.482476 0.45357,0.682665 0.13334,0.20019 0.24785,0.371516 0.34055,0.509489 0.0927,0.137972 0.1636,0.242591 0.20972,0.309365 0.0808,0.116946 0.15506,0.219139 0.23373,0.306171 0.0787,0.08703 0.16176,0.158905 0.26012,0.21521 0.0984,0.0563 0.21202,0.09704 0.35187,0.121802 0.13984,0.02476 0.30586,0.03355 0.50897,0.02595 0.20311,-0.0076 0.4433,-0.03158 0.73146,-0.07234 0.28816,-0.04077 0.6243,-0.09833 1.0193,-0.173086 0.395,-0.07476 0.84888,-0.166711 1.37251,-0.276271 0.52364,-0.109559 1.11703,-0.236724 1.79109,-0.381901 0.98637,-0.212443 2.08558,-0.398976 3.26798,-0.559519 1.1824,-0.160542 2.44799,-0.295095 3.76712,-0.403575 1.31912,-0.108481 2.69178,-0.19089 4.08831,-0.247146 1.39654,-0.05626 2.81695,-0.08636 4.23158,-0.09023 1.41463,-0.0039 2.82349,0.0185 4.1969,0.06717 1.37342,0.04868 2.71141,0.123673 3.9843,0.225063 1.27289,0.10139 2.48069,0.229176 3.59375,0.38344 1.11305,0.154263 2.13136,0.335004 3.02526,0.542303 1.29793,0.300995 2.54757,0.622189 3.7537,0.966009 1.20613,0.34382 2.36875,0.710265 3.49264,1.101762 1.12389,0.391498 2.20905,0.808047 3.26025,1.252074 1.05121,0.444027 2.06847,0.915532 3.05656,1.416941 0.98809,0.50141 1.94701,1.032723 2.88155,1.596367 0.93453,0.56364 1.84468,1.15962 2.73522,1.79035 0.89054,0.63073 1.76147,1.29622 2.61758,1.99889 0.85611,0.70267 1.69739,1.44252 2.52863,2.22198 0.89284,0.83723 1.74083,1.69166 2.54605,2.56714 0.80523,0.87547 1.56769,1.77198 2.28949,2.69336 0.7218,0.92137 1.40294,1.86761 2.0455,2.84254 0.64257,0.97493 1.24657,1.97855 1.81409,3.01469 0.56753,1.03614 1.09858,2.1048 1.59526,3.2098 0.49667,1.105 0.95897,2.24634 1.38899,3.42786 0.43002,1.18152 0.82776,2.40321 1.19531,3.66889 0.36756,1.26569 0.70493,2.57537 1.01421,3.93288 0.10845,0.476 0.20718,0.93952 0.29703,1.40071 0.0899,0.46118 0.17083,0.92004 0.24374,1.38669 0.0729,0.46666 0.13778,0.94113 0.19542,1.43355 0.0576,0.49242 0.10806,1.00279 0.15208,1.54125 0.044,0.53846 0.0816,1.10501 0.1137,1.7098 0.0321,0.60479 0.0586,1.24782 0.0803,1.93922 0.0217,0.6914 0.0388,1.43119 0.0519,2.22949 0.0131,0.7983 0.0223,1.65512 0.0285,2.58061 l 0.008,1.1739 0.008,1.1739 0.008,1.1739 0.008,1.1739 0.008,1.1739 0.008,1.1739 0.008,1.1739 0.008,1.1739 0.38246,0.41311 0.38247,0.4131 0.38246,0.41311 0.38246,0.41311 0.38247,0.41311 0.38246,0.4131 0.38247,0.41311 0.38246,0.41311 c 1.04352,1.12713 2.01513,2.25016 2.91651,3.37308 0.90139,1.12292 1.73257,2.24573 2.49523,3.37242 0.76267,1.12669 1.45683,2.25726 2.08419,3.3957 0.62736,1.13844 1.18792,2.28476 1.68339,3.44293 0.49547,1.15818 0.92585,2.32822 1.29284,3.51411 0.36699,1.18589 0.67059,2.38764 0.91252,3.60922 0.24193,1.22159 0.42218,2.46303 0.54246,3.72829 0.12028,1.26527 0.18058,2.55437 0.18263,3.8713 0.002,1.04922 -0.0327,2.06948 -0.10475,3.06565 -0.072,0.99618 -0.18173,1.96827 -0.33082,2.92114 -0.14909,0.95287 -0.33756,1.88653 -0.56712,2.80584 -0.22956,0.91932 -0.50021,1.82429 -0.81365,2.71979 -0.31344,0.89549 -0.66968,1.78152 -1.07041,2.66294 -0.40074,0.88142 -0.84597,1.75824 -1.33741,2.63533 -0.49143,0.87709 -1.02908,1.75445 -1.61463,2.63695 -0.58555,0.88249 -1.21901,1.77013 -1.90208,2.66778 -1.08644,1.42772 -2.26416,2.77072 -3.5266,4.02627 -1.26243,1.25555 -2.60958,2.42367 -4.03487,3.50162 -1.42529,1.07795 -2.92872,2.06575 -4.50371,2.96068 -1.575,0.89493 -3.22155,1.69699 -4.9331,2.40347 -1.71155,0.70647 -3.48809,1.31737 -5.32304,1.82996 -1.83496,0.5126 -3.72833,0.9269 -5.67354,1.24019 -1.94521,0.31328 -3.94226,0.52556 -5.98459,0.63412 -2.04232,0.10855 -4.12991,0.11338 -6.25619,0.0118 -0.84976,-0.0406 -1.7349,-0.10097 -2.64154,-0.17864 -0.90664,-0.0777 -1.83477,-0.17267 -2.77048,-0.28254 -0.93571,-0.10987 -1.87901,-0.23461 -2.81598,-0.3718 -0.93698,-0.13719 -1.86763,-0.28681 -2.77806,-0.44644 -0.91043,-0.15962 -1.80063,-0.32925 -2.65671,-0.50644 -0.85607,-0.17719 -1.67801,-0.36195 -2.45192,-0.55183 -0.77391,-0.18988 -1.49978,-0.38488 -2.16371,-0.58258 -0.66393,-0.19769 -1.26592,-0.39807 -1.79207,-0.5987 -0.18857,-0.0719 -0.40979,-0.15148 -0.65821,-0.2371 -0.24843,-0.0856 -0.52404,-0.1773 -0.82138,-0.2734 -0.29735,-0.0961 -0.61641,-0.19664 -0.95174,-0.29999 -0.33533,-0.10335 -0.68692,-0.2095 -1.0493,-0.31685 -0.36239,-0.10735 -0.73556,-0.21589 -1.11406,-0.32401 -0.3785,-0.10811 -0.76233,-0.2158 -1.14602,-0.32143 -0.38368,-0.10564 -0.76723,-0.20923 -1.14517,-0.30916 -0.37794,-0.0999 -0.75027,-0.19618 -1.11152,-0.28715 -2.88561,-0.72665 -5.72863,-1.31942 -8.52171,-1.77929 -2.79308,-0.45987 -5.53624,-0.78685 -8.22212,-0.98193 -2.68589,-0.19508 -5.31451,-0.25826 -7.87852,-0.19054 -2.56401,0.0677 -5.06342,0.26636 -7.49089,0.59491 -2.42747,0.32854 -4.783,0.787 -7.05925,1.37438 -2.27625,0.58739 -4.47322,1.30369 -6.58358,2.14792 -2.11036,0.84423 -4.13411,1.81639 -6.0639,2.91548 -1.9298,1.09909 -3.76564,2.32512 -5.5002,3.67709 -0.19593,0.15271 -0.42303,0.33614 -0.67587,0.54543 -0.25284,0.20929 -0.53143,0.44445 -0.83036,0.70064 -0.29893,0.25618 -0.6182,0.53339 -0.9524,0.82679 -0.3342,0.29339 -0.68333,0.60298 -1.04197,0.9239 -0.35865,0.32092 -0.72681,0.65319 -1.09908,0.99196 -0.37227,0.33876 -0.74865,0.68403 -1.12372,1.03096 -0.37508,0.34693 -0.74885,0.69552 -1.11591,1.04093 -0.36706,0.34541 -0.7274,0.68764 -1.07562,1.02184 -1.17445,1.12718 -2.32442,2.177 -3.45455,3.15186 -1.13013,0.97487 -2.24041,1.87479 -3.33547,2.70215 -1.09507,0.82737 -2.17492,1.5822 -3.24419,2.26688 -1.06927,0.68468 -2.12795,1.29922 -3.18068,1.84602 -1.05273,0.54681 -2.09951,1.02588 -3.14496,1.43962 -1.04546,0.41373 -2.08959,0.76214 -3.13703,1.04762 -1.04744,0.28548 -2.09819,0.50804 -3.15687,0.67008 -1.05869,0.16203 -2.12532,0.26355 -3.20451,0.30695 -0.40152,0.0161 -0.79255,0.0271 -1.17322,0.0328 -0.38067,0.006 -0.75098,0.006 -1.11105,0.002 -0.36007,-0.005 -0.70991,-0.0147 -1.04963,-0.0299 -0.33973,-0.0152 -0.66934,-0.0356 -0.98896,-0.0613 -0.31962,-0.0257 -0.62925,-0.0566 -0.92901,-0.0928 -0.29977,-0.0362 -0.58967,-0.0776 -0.86982,-0.1243 -0.28016,-0.0467 -0.55057,-0.0987 -0.81137,-0.15591 -0.26079,-0.0572 -0.51197,-0.11976 -0.75365,-0.18757 z m -24.33007,-86.53865 c 0.54925,-0.36736 1.12074,-0.72882 1.71202,-1.0833 0.59128,-0.35448 1.20235,-0.70197 1.83074,-1.04141 0.62839,-0.33943 1.27412,-0.6708 1.93472,-0.99302 0.6606,-0.32223 1.33607,-0.63531 2.02396,-0.93816 0.68789,-0.30286 1.3882,-0.59549 2.09847,-0.87681 0.71027,-0.28132 1.43051,-0.55134 2.15825,-0.80896 0.72774,-0.25763 1.46299,-0.50287 2.20329,-0.73464 0.7403,-0.23177 1.48564,-0.45007 2.23359,-0.65382 0.4,-0.10896 0.78937,-0.20822 1.17591,-0.29853 0.38655,-0.0903 0.77028,-0.17169 1.15898,-0.2449 0.38871,-0.0732 0.78241,-0.13826 1.1889,-0.19592 0.40648,-0.0577 0.82576,-0.10793 1.26564,-0.15158 0.43988,-0.0437 0.90036,-0.0807 1.38925,-0.11191 0.48889,-0.0312 1.00618,-0.0566 1.55969,-0.0769 0.55351,-0.0203 1.14324,-0.0355 1.77698,-0.0465 0.63375,-0.0109 1.31152,-0.0176 2.04112,-0.0207 1.00898,-0.004 1.94666,0.002 2.82669,0.0217 0.88002,0.0197 1.70239,0.0527 2.48075,0.10153 0.77836,0.0488 1.51271,0.11349 2.21669,0.19654 0.70399,0.083 1.37761,0.18446 2.03452,0.3068 0.65691,0.12235 1.29711,0.26561 1.93423,0.43233 0.63713,0.16672 1.27118,0.35691 1.91582,0.57309 0.64463,0.21619 1.29985,0.45838 1.97929,0.72911 0.67944,0.27073 1.3831,0.57001 2.12464,0.90037 0.34335,0.15297 0.65171,0.28803 0.93043,0.40603 0.27872,0.118 0.5278,0.21893 0.7526,0.30362 0.2248,0.0847 0.42532,0.15313 0.60693,0.20616 0.18161,0.053 0.34429,0.0906 0.49342,0.11367 0.14914,0.023 0.28471,0.0315 0.41209,0.0262 0.12737,-0.005 0.24656,-0.0244 0.3629,-0.0564 0.11634,-0.032 0.22985,-0.077 0.34588,-0.13399 0.11603,-0.057 0.23459,-0.1262 0.36103,-0.20662 0.93976,-0.59774 1.83313,-1.15303 2.68986,-1.67028 0.85674,-0.51725 1.67684,-0.99647 2.47007,-1.44208 0.79322,-0.44562 1.55957,-0.85762 2.30879,-1.24045 0.74922,-0.38282 1.48131,-0.73647 2.20604,-1.06536 0.72472,-0.32889 1.44207,-0.63303 2.16181,-0.91684 0.71973,-0.28382 1.44185,-0.5473 2.1761,-0.79489 0.73426,-0.24758 1.48065,-0.47927 2.24893,-0.69948 0.76828,-0.22021 1.55845,-0.42894 2.38027,-0.63063 l 0.47906,-0.11757 0.47906,-0.11757 0.47906,-0.11757 0.47906,-0.11757 0.47906,-0.11757 0.47906,-0.11757 0.47906,-0.11757 0.47906,-0.11757 0.0429,-0.79503 0.0428,-0.79504 0.0429,-0.79503 0.0428,-0.79504 0.0429,-0.79503 0.0428,-0.79503 0.0428,-0.79504 0.0428,-0.79503 c 0.0663,-1.23054 0.1554,-2.41463 0.26942,-3.55975 0.11403,-1.14513 0.25299,-2.2513 0.41907,-3.32603 0.16608,-1.07473 0.35927,-2.11801 0.58175,-3.13736 0.22248,-1.01934 0.47424,-2.01475 0.75746,-2.99374 0.28322,-0.97898 0.5979,-1.94154 0.94622,-2.89518 0.34831,-0.95364 0.73025,-1.89836 1.14799,-2.84168 0.41775,-0.94331 0.8713,-1.88522 1.36282,-2.83323 0.49152,-0.94801 1.02102,-1.90212 1.59067,-2.86984 0.32139,-0.54599 0.70335,-1.12731 1.13397,-1.73174 0.43062,-0.60442 0.9099,-1.23196 1.42596,-1.87037 0.51606,-0.6384 1.0689,-1.28769 1.64661,-1.93562 0.57771,-0.64793 1.1803,-1.29451 1.79588,-1.92751 0.61558,-0.63299 1.24415,-1.2524 1.87381,-1.846 0.62966,-0.5936 1.26041,-1.16138 1.88036,-1.69113 0.61996,-0.52974 1.22911,-1.02144 1.81557,-1.46287 0.58646,-0.44142 1.15023,-0.83258 1.67941,-1.16123 0.20657,-0.12829 0.40863,-0.25582 0.60409,-0.3811 0.19547,-0.12528 0.38436,-0.24832 0.56458,-0.36762 0.18023,-0.1193 0.3518,-0.23487 0.51263,-0.34522 0.16084,-0.11035 0.31095,-0.21549 0.44826,-0.31392 0.13731,-0.0984 0.26182,-0.19016 0.37146,-0.2737 0.10963,-0.0835 0.2044,-0.1589 0.28222,-0.22458 0.0778,-0.0657 0.1387,-0.12169 0.18056,-0.16655 0.0419,-0.04485 0.0647,-0.07855 0.0665,-0.0996 0.0108,-0.128737 -0.0947,-0.397944 -0.29457,-0.777847 -0.19988,-0.379903 -0.49415,-0.870501 -0.86097,-1.442021 -0.36681,-0.57152 -0.80618,-1.223961 -1.29624,-1.92755 -0.49006,-0.703589 -1.03081,-1.458325 -1.60041,-2.234435 -0.56959,-0.77611 -1.16803,-1.573594 -1.77347,-2.362676 -0.60543,-0.789083 -1.21785,-1.569765 -1.81541,-2.312272 -0.59756,-0.742508 -1.18026,-1.44684 -1.72625,-2.083224 -0.54599,-0.636384 -1.05527,-1.204819 -1.50598,-1.675531 -0.98865,-1.032515 -1.95572,-1.998485 -2.91037,-2.903506 -0.95465,-0.905022 -1.89686,-1.749096 -2.83578,-2.537819 -0.93891,-0.788722 -1.87452,-1.522094 -2.81597,-2.205711 -0.94144,-0.683617 -1.88872,-1.31748 -2.85096,-1.907185 -0.96225,-0.589706 -1.93945,-1.135254 -2.94076,-1.642241 -1.0013,-0.506987 -2.0267,-0.975414 -3.08534,-1.410877 -1.05863,-0.435463 -2.15049,-0.837962 -3.28472,-1.213095 -1.13422,-0.375132 -2.31081,-0.722897 -3.53889,-1.048893 -0.5102,-0.135433 -0.99307,-0.258259 -1.45791,-0.369581 -0.46483,-0.111322 -0.91163,-0.21114 -1.3497,-0.300556 -0.43806,-0.08942 -0.86738,-0.168431 -1.29726,-0.238146 -0.42987,-0.06972 -0.8603,-0.130131 -1.30058,-0.182349 -0.44028,-0.05222 -0.89041,-0.09624 -1.35968,-0.133167 -0.46927,-0.03693 -0.95768,-0.06676 -1.47453,-0.0906 -0.51685,-0.02384 -1.06214,-0.04169 -1.64516,-0.05464 -0.58302,-0.01296 -1.20377,-0.02102 -1.87154,-0.0253 -0.76787,-0.0049 -1.45355,-0.0073 -2.07391,-0.0047 -0.62037,0.0026 -1.17541,0.01016 -1.682,0.02505 -0.50659,0.0149 -0.96472,0.03713 -1.39127,0.0691 -0.42654,0.03196 -0.8215,0.07366 -1.20173,0.12746 -0.38023,0.05381 -0.74574,0.119724 -1.11339,0.200143 -0.36765,0.08042 -0.73744,0.175339 -1.12624,0.287145 -0.3888,0.111806 -0.7966,0.240499 -1.24028,0.388465 -0.44367,0.147967 -0.92322,0.315206 -1.45551,0.504106 -0.93881,0.333168 -1.83992,0.690357 -2.70719,1.074755 -0.86726,0.384398 -1.70069,0.796005 -2.50415,1.238008 -0.80346,0.442003 -1.57694,0.914404 -2.32433,1.42039 -0.74738,0.505985 -1.46866,1.045556 -2.1677,1.621901 -0.69904,0.576344 -1.37584,1.189462 -2.03427,1.842541 -0.65843,0.65308 -1.2985,1.346121 -1.92406,2.082312 -0.62555,0.736191 -1.23661,1.515532 -1.83703,2.341212 -0.60042,0.825679 -1.1902,1.697696 -1.77321,2.61924 -0.35616,0.562974 -0.68811,1.059142 -1.01629,1.492096 -0.32817,0.432954 -0.65257,0.802693 -0.99362,1.112808 -0.34106,0.310114 -0.69878,0.560604 -1.0936,0.755059 -0.39482,0.194455 -0.82674,0.332875 -1.3162,0.418851 -0.48946,0.08598 -1.03646,0.119506 -1.66143,0.104183 -0.62498,-0.01532 -1.32793,-0.0795 -2.12929,-0.188945 -0.80136,-0.109442 -1.70114,-0.26415 -2.71978,-0.460531 -1.01863,-0.196382 -2.15611,-0.434438 -3.43289,-0.710579 -0.87867,-0.190038 -1.79425,-0.363577 -2.73609,-0.520092 -0.94185,-0.156514 -1.90996,-0.296003 -2.89368,-0.417941 -0.98373,-0.121938 -1.98306,-0.226324 -2.98736,-0.312631 -1.0043,-0.08631 -2.01357,-0.154537 -3.01715,-0.204162 -1.00357,-0.04962 -2.00146,-0.08064 -2.98301,-0.09253 -0.98156,-0.01189 -1.94677,-0.0046 -2.885,0.02226 -0.93823,0.0269 -1.84947,0.07346 -2.72307,0.140207 -0.87361,0.06674 -1.70957,0.153675 -2.49725,0.261316 -2.05272,0.280518 -4.00325,0.653027 -5.85499,1.120336 -1.85175,0.467308 -3.60471,1.029417 -5.26229,1.689135 -1.65759,0.659717 -3.21981,1.417045 -4.69007,2.274791 -1.47026,0.857745 -2.84856,1.81591 -4.13833,2.877303 -1.28976,1.061392 -2.49097,2.226013 -3.60706,3.496672 -1.11609,1.270658 -2.14705,2.647352 -3.0963,4.132902 -0.94924,1.48554 -1.81677,3.07993 -2.606003,4.78597 -0.789229,1.70605 -1.500157,3.52375 -2.136199,5.45592 l -0.151701,0.46084 -0.1517,0.46083 -0.151701,0.46084 -0.151701,0.46083 -0.1517,0.46084 -0.151701,0.46084 -0.1517,0.46083 -0.151701,0.46084 0.358975,0.3041 0.358974,0.3041 0.358975,0.3041 0.358974,0.3041 0.358975,0.30411 0.358975,0.3041 0.358974,0.3041 0.358975,0.3041 c 0.863986,0.73192 1.72906,1.50403 2.59366,2.31445 0.8646,0.81042 1.72872,1.65915 2.5908,2.54429 0.86209,0.88514 1.72213,1.80669 2.57856,2.76278 0.85643,0.95608 1.70926,1.94669 2.55691,2.96993 0.84766,1.02325 1.69014,2.07913 2.52588,3.16576 0.83575,1.08663 1.66476,2.20401 2.48546,3.35024 0.82071,1.14624 1.63311,2.32133 2.43564,3.52339 0.80254,1.20206 1.59521,2.43109 2.37644,3.6852 0.43561,0.69928 0.9275,1.52607 1.45973,2.44945 0.53223,0.92337 1.10481,1.94334 1.70179,3.02896 0.59699,1.08563 1.21839,2.23691 1.84826,3.42293 0.62988,1.18601 1.26823,2.40675 1.89912,3.6313 0.63089,1.22455 1.25432,2.45289 1.85436,3.65412 0.60004,1.20122 1.17669,2.37532 1.71401,3.49136 0.53732,1.11604 1.03531,2.17403 1.47804,3.14303 0.44273,0.96901 0.8302,1.84903 1.14648,2.60914 l 0.18572,0.44634 0.18572,0.44634 0.18572,0.44635 0.18572,0.44634 0.18572,0.44634 0.18572,0.44634 0.18572,0.44635 0.18572,0.44634 0.49777,-0.52914 0.49777,-0.52913 0.49777,-0.52914 0.49777,-0.52913 0.49778,-0.52914 0.49777,-0.52913 0.49777,-0.52914 0.49777,-0.52913 c 0.27377,-0.29103 0.56853,-0.59363 0.87889,-0.90315 0.31037,-0.30952 0.63634,-0.62595 0.97256,-0.94464 0.33622,-0.31869 0.68269,-0.63963 1.03403,-0.95816 0.35134,-0.31853 0.70756,-0.63466 1.0633,-0.94371 0.35573,-0.30905 0.71097,-0.61103 1.06036,-0.90128 0.34939,-0.29025 0.69292,-0.56876 1.02523,-0.83088 0.33231,-0.26211 0.6534,-0.50784 0.9579,-0.7325 0.3045,-0.22466 0.59241,-0.42827 0.85837,-0.60615 z"
       id="path902"
       inkscape:connector-curvature="0"
       transform="scale(0.26458333)"
       sodipodi:nodetypes="cssssssssssssssscssssssscssssssssssssssssssssssssssssssscssssssscssssssssssssssssssssssscsssssssccccccccccccccccsssssssssssssssssssssssssssssssssssssssscssssssscssssssssssssssssssssssssssssssssssssssssssssssscssssssssssssssssssssssssssssssscssssssscssssssssssssssscssssssscssssssssssssssssssssssssssssssssssssssscssssssssssssssssssssssscssssssssssssssssssssssssssssssscssssssssssssssssssssssssssssssssssssssscssssssscsssssssssssssssssssssssscccccccccccccccsssssssssssssssssssssssssssssssssssssssscssssssssssssssssssssssscssssssscssssssscccccccccccccccccssssssscssssssscssssssssssssssscssssssscssssssscsssssssssssssssssssssssccssssssssssssssssssssssscsssssssssssssssscccccccccccccccsssssssssssssssscssssssscssssssssssssssssssssssssssssssssssssssssssssssssssssssssssssssssccccccccccccccccssssssscsssssssccccccccccccccccssssssssc" />
    <path
       style="fill:#000000;fill-opacity:1;stroke:#000000;stroke-width:0.60700119;stroke-miterlimit:4;stroke-dasharray:none;stroke-opacity:1"
       d="m 199.45686,299.53705 c -0.35868,-0.49246 -0.74376,-1.04736 -1.13267,-1.62861 -0.38892,-0.58126 -0.78167,-1.18888 -1.15569,-1.78678 -0.37402,-0.5979 -0.7293,-1.18608 -1.04328,-1.72846 -0.31398,-0.54238 -0.58665,-1.03896 -0.79545,-1.45366 l -0.37963,-0.754 -0.37964,-0.754 -0.37964,-0.75401 -0.37963,-0.754 1.25134,-0.0287 1.25134,-0.0287 1.25135,-0.0287 1.25134,-0.0287 c 1.56557,-0.0359 3.72195,-0.26102 6.2237,-0.62596 2.50176,-0.36493 5.34889,-0.86963 8.29597,-1.46455 2.94708,-0.59492 5.99411,-1.28006 8.89565,-2.00587 2.90155,-0.72582 5.6576,-1.49231 8.02275,-2.24993 4.4607,-1.42889 8.65477,-3.05169 12.51849,-4.82704 3.86371,-1.77534 7.39708,-3.70322 10.5364,-5.74225 3.13932,-2.03904 5.88459,-4.18924 8.1721,-6.40922 2.28751,-2.21998 4.11726,-4.50974 5.42555,-6.8279 0.3463,-0.61361 0.70732,-1.18398 1.07605,-1.7035 0.36872,-0.51951 0.74516,-0.98817 1.1223,-1.39835 0.37713,-0.41018 0.75497,-0.76188 1.12649,-1.04747 0.37153,-0.28559 0.73675,-0.50508 1.08865,-0.65084 0.50247,-0.20813 0.93557,-0.351 1.4029,-0.40422 0.46732,-0.0532 0.96888,-0.0168 1.60826,0.13358 0.63937,0.15042 1.41657,0.41484 2.43519,0.81763 1.01862,0.4028 2.27865,0.94397 3.8837,1.64789 2.828,1.24027 5.32514,2.25272 7.65823,3.07385 2.3331,0.82112 4.50216,1.45092 6.67401,1.92587 2.17185,0.47495 4.34649,0.79505 6.69075,0.99679 2.34427,0.20174 4.85816,0.28512 7.7085,0.28662 3.33086,0.002 6.82787,-0.22349 10.35306,-0.64721 3.52518,-0.42372 7.07853,-1.04592 10.52206,-1.8381 3.44353,-0.79218 6.77724,-1.75433 9.86313,-2.85795 3.0859,-1.10362 5.92398,-2.3487 8.37627,-3.70674 l 0.97334,-0.53902 0.97333,-0.53902 0.97334,-0.53902 0.97334,-0.53902 0.13028,1.56396 0.13027,1.56395 0.13028,1.56396 0.13028,1.56396 c 0.0716,0.86018 0.13253,1.71945 0.18123,2.53617 0.0487,0.81672 0.0853,1.59089 0.10824,2.28088 0.023,0.69 0.0324,1.2958 0.0269,1.77579 -0.005,0.47999 -0.026,0.83415 -0.0627,1.02086 -0.081,0.41137 -0.81721,0.96161 -2.03779,1.59938 -1.22059,0.63777 -2.92558,1.36306 -4.94422,2.12455 -2.01864,0.76148 -4.35093,1.55916 -6.82612,2.34169 -2.47519,0.78252 -5.09327,1.5499 -7.6835,2.25079 -1.63327,0.44195 -2.98476,0.7851 -4.29609,1.05178 -1.31133,0.26668 -2.5825,0.45689 -4.0551,0.59295 -1.47261,0.13606 -3.14666,0.21798 -5.26376,0.26808 -2.1171,0.0501 -4.67725,0.0684 -7.92206,0.0771 -3.79021,0.0103 -6.99131,-0.0398 -9.80587,-0.18267 -2.81455,-0.1429 -5.24255,-0.37868 -7.48653,-0.73995 -2.24398,-0.36126 -4.30395,-0.84801 -6.38243,-1.49286 -2.07849,-0.64485 -4.1755,-1.44779 -6.49358,-2.44143 l -0.88132,-0.37778 -0.88132,-0.37778 -0.88133,-0.37778 -0.88132,-0.37778 -0.8778,0.97794 -0.8778,0.97794 -0.8778,0.97795 -0.8778,0.97794 c -1.97166,2.1966 -4.32826,4.36067 -7.00043,6.45142 -2.67218,2.09074 -5.65993,4.10814 -8.89389,6.01139 -3.23397,1.90325 -6.71415,3.69234 -10.37119,5.32645 -3.65704,1.63412 -7.49093,3.11326 -11.43232,4.3966 -1.90668,0.62083 -4.6123,1.37277 -7.65291,2.1517 -3.04061,0.77892 -6.4162,1.58483 -9.6628,2.31357 -3.24661,0.72874 -6.36423,1.38031 -8.8889,1.85058 -2.52468,0.47027 -4.4564,0.75923 -5.33121,0.76274 -0.27066,10e-4 -0.5629,-0.0735 -0.87606,-0.22285 -0.31316,-0.14938 -0.64723,-0.37368 -1.00154,-0.67233 -0.3543,-0.29865 -0.72884,-0.67166 -1.12294,-1.11848 -0.3941,-0.44681 -0.80775,-0.96743 -1.24029,-1.5613 z"
       id="path906"
       inkscape:connector-curvature="0"
       transform="scale(0.26458333)"
       sodipodi:nodetypes="sssscccccccccssssssscssscsssssssssssscccccccsssscsssssssssssccccccccsssssssscssss" />
  </g>
  <g
     id="g865"
     inkscape:groupmode="layer"
     inkscape:label="Drill" />
</svg>
