<svg id="Capa_3" data-name="Capa 3" xmlns="http://www.w3.org/2000/svg" viewBox="0 0 809.81 666.96"><defs><style>.cls-1{fill:#62aeef;}</style></defs><title>Cerebro</title><path class="cls-1" d="M670.37,681a109.85,109.85,0,0,1-144.72-58.38c55-7.31,98.77-21.86,130.48-43.43,15.62-10.63,25.41-21.14,31.38-29.25,42.43,18.88,89.65,20.48,137.51,4.47a245.39,245.39,0,0,0,25.37-10.13c-7,43-23.77,70.52-64.36,105.38S676.21,681.64,670.37,681Zm144-155.31c-44.93,14.78-87.14,11.69-125.47-9.18a15.12,15.12,0,0,0-13-1c-5.11,2.09-6.77,5.68-9.08,10.25-6.42,12.65-19.28,22.65-30.95,30.16-32.25,20.76-71.48,30.21-109,35.62-29.61,4.26-63.08-9.17-84.64-28.94A127,127,0,0,1,321.37,534c-18.42-22-21.94-51.53-14.09-74,18.58-53.28,69.46-63.68,71.55-64.08a15,15,0,0,0,12.53-14.64c.06-1.54,1.83-37.91,42.44-53.86,39.82-15.65,64.91,4.07,66.7,5.54A14.7,14.7,0,0,0,523,330.34c1.46-1.84,18.35-22,61.68-22,45.44,0,70.26,29.6,71.34,30.91a15.3,15.3,0,0,0,23.85-19.18c-1.34-1.68-32.48-39.78-89.47-42.21-1.11-15-.1-54.4,38-73.9,31.73-16.25,83.55-19.49,115.35,3.22,25.23,18,34.77,49.77,28.34,94.34a15.29,15.29,0,0,0,6.14,14.57c.3.22,29.81,22.48,29.13,51-.36,15.22-8.49,30.29-21.74,40.33-13.62,10.31-39,20.22-82.9,9.23A237.31,237.31,0,0,0,636.85,402C586,398.17,543,413,512.52,444.75c-18.13,18.9-34.38,27.7-47,25.44-15.51-2.78-24-21.75-24.26-22.26a15.31,15.31,0,0,0-28.19,11.93c.59,1.4,14.82,34.48,46.74,40.4a53.79,53.79,0,0,0,9.82.9c20.7,0,42.51-11.8,65-35.22C593,405.07,691,445,691.94,445.36a13.46,13.46,0,0,0,2.14.72c56.29,14.42,90.86.22,109.95-14.23,20.62-15.62,33.28-39.55,33.86-64,.8-33.83-22.32-59.41-34.5-70.5,6.93-65.1-18.65-98.44-41.92-115.06C726.88,157.56,677.9,156,639.61,166.92c-10.9-20.27-37.29-60.86-80.86-77.35-54.77-20.71-104.58-8.35-132.9,32.1-21.45-4.8-68.2-11.44-107.07,9.77-24.87,13.56-42,35.85-51.09,66.24A81.28,81.28,0,0,0,228,193.62c-56.92,8.5-81.26,55.21-75.89,97,5.28,41,40.05,82,103.88,75.11a15.3,15.3,0,1,0-3.29-30.43c-43.59,4.71-66.68-21-70.22-48.59-3.37-26.14,10.86-56.93,50-62.77C292.3,215,340.53,318.28,358.21,370.13c-21,7.57-58.29,27-77.13,72.66l-.25.36C147.23,458.25,84,370,89.92,279.62c4.38-66.91,52-125.08,109.53-150.66A164.59,164.59,0,0,1,402.27,52a189.72,189.72,0,0,1,229,20.87h.75c99.73,0,183.61,66.54,208,156.81,36.73,37.85,59.28,89.06,59.28,145.44,0,44.58-14.7,95.94-45.34,129.58C844.83,514.78,827.07,521.53,814.38,525.7Zm-254.69-246C534.62,284,518.1,294,508.54,301.89c-15.8-8.47-46.15-18.6-85.93-3-22.17,8.71-36.39,21.8-45.52,35a460.75,460.75,0,0,0-26.36-54.26c-18.86-32.72-37.8-53.85-55.7-67.07a15.86,15.86,0,0,0,1-2.68c6.53-24.48,18.73-41.32,37.3-51.5,39.54-21.67,94.34-4.65,94.86-4.48a15.3,15.3,0,0,0,18.09-7.18c19.14-34.69,57.14-45.35,101.64-28.51,32.19,12.18,53.38,43.11,63.1,60.35C565.82,203.74,557.45,251,559.69,279.75Z" transform="translate(-89.54 -23)"/></svg>