G04 Layer_Color=8388736*
%FSLAX24Y24*%
%MOIN*%
G70*
G01*
G75*
%ADD62C,0.0240*%
%ADD63R,0.3020X0.0660*%
%ADD64R,0.2620X0.0460*%
%ADD65R,0.0316X0.0473*%
%ADD66R,0.0473X0.0611*%
%ADD67R,0.1941X0.1941*%
%ADD68C,0.0148*%
%ADD69R,0.0257X0.0217*%
%ADD70R,0.0787X0.0787*%
%ADD71R,0.0296X0.0395*%
%ADD72R,0.0454X0.0395*%
%ADD73R,0.0360X0.0380*%
%ADD74R,0.0375X0.0355*%
%ADD75R,0.0257X0.0296*%
%ADD76R,0.0316X0.0257*%
%ADD77R,0.0434X0.0395*%
%ADD78R,0.0166X0.0178*%
%ADD79R,0.0611X0.0355*%
%ADD80R,0.0178X0.0166*%
%ADD81C,0.0787*%
%ADD82C,0.0769*%
%ADD83R,0.0296X0.0257*%
%ADD84R,0.0355X0.0375*%
%ADD85C,0.0139*%
%ADD86R,0.0769X0.0592*%
%ADD87R,0.0500X0.0592*%
%ADD88C,0.0450*%
%ADD89R,0.0500X0.0158*%
%ADD90R,0.0769X0.0158*%
%ADD91R,0.0769X0.0631*%
D62*
X13485Y256D02*
G03*
X13485Y256I-110J0D01*
G01*
X13507D02*
G03*
X13507Y256I-110J0D01*
G01*
X13485Y-256D02*
G03*
X13485Y-256I-110J0D01*
G01*
X13507D02*
G03*
X13507Y-256I-110J0D01*
G01*
D63*
X16236Y-1376D02*
D03*
Y1382D02*
D03*
D64*
X16037Y-396D02*
D03*
Y398D02*
D03*
D65*
X3757Y313D02*
D03*
Y1947D02*
D03*
X4603Y313D02*
D03*
Y1947D02*
D03*
D66*
X2545Y421D02*
D03*
X3115D02*
D03*
Y1839D02*
D03*
X2545D02*
D03*
D67*
X6750Y0D02*
D03*
D68*
X5667Y1280D02*
D03*
X5864D02*
D03*
X6061D02*
D03*
X6258D02*
D03*
X6455D02*
D03*
X6652D02*
D03*
X6848D02*
D03*
X7045D02*
D03*
X7242D02*
D03*
X7439D02*
D03*
X7636D02*
D03*
X7833D02*
D03*
X5470Y1083D02*
D03*
X5963D02*
D03*
X6159D02*
D03*
X6356D02*
D03*
X6553D02*
D03*
X6750D02*
D03*
X6947D02*
D03*
X7144D02*
D03*
X7537D02*
D03*
X7833Y984D02*
D03*
X5470Y886D02*
D03*
X5667Y787D02*
D03*
X7833D02*
D03*
X5470Y689D02*
D03*
X8030D02*
D03*
X5667Y591D02*
D03*
X5470Y492D02*
D03*
X8030D02*
D03*
X5667Y394D02*
D03*
X7833D02*
D03*
X5470Y295D02*
D03*
X8030D02*
D03*
X5667Y197D02*
D03*
X7833D02*
D03*
X5470Y98D02*
D03*
X8030D02*
D03*
X7833Y0D02*
D03*
X5470Y-98D02*
D03*
X8030D02*
D03*
X7833Y-197D02*
D03*
X5470Y-295D02*
D03*
X8030D02*
D03*
X5667Y-394D02*
D03*
X7833D02*
D03*
X8030Y-492D02*
D03*
X5667Y-591D02*
D03*
X7833D02*
D03*
X5470Y-689D02*
D03*
X7833Y-787D02*
D03*
X8030Y-886D02*
D03*
X5667Y-787D02*
D03*
X5470Y-1083D02*
D03*
X6159D02*
D03*
X6356D02*
D03*
X6553D02*
D03*
X6750D02*
D03*
X6947D02*
D03*
X7144D02*
D03*
X7341D02*
D03*
X7537D02*
D03*
X7734D02*
D03*
X8030D02*
D03*
X5667Y-1280D02*
D03*
X6061D02*
D03*
X6258D02*
D03*
X6455D02*
D03*
X6652D02*
D03*
X6848D02*
D03*
X7045D02*
D03*
X7242D02*
D03*
X5864D02*
D03*
D69*
X11356Y1738D02*
D03*
X10844D02*
D03*
Y1462D02*
D03*
X11356D02*
D03*
D70*
X14173Y1575D02*
D03*
D71*
X11626Y404D02*
D03*
X12374D02*
D03*
Y-404D02*
D03*
D72*
X11705D02*
D03*
D73*
X10825Y-1600D02*
D03*
X11375D02*
D03*
D74*
X9430Y1000D02*
D03*
Y1532D02*
D03*
X8730Y-984D02*
D03*
Y-1516D02*
D03*
X9190D02*
D03*
Y-984D02*
D03*
X9880Y1182D02*
D03*
Y650D02*
D03*
X8980Y1582D02*
D03*
Y1050D02*
D03*
D75*
X8400Y1313D02*
D03*
Y1707D02*
D03*
D76*
X8383Y-1914D02*
D03*
X8757D02*
D03*
D77*
X4426Y-1488D02*
D03*
Y-1941D02*
D03*
X4997D02*
D03*
Y-1488D02*
D03*
D78*
X4734Y-303D02*
D03*
X4509D02*
D03*
X5862Y1880D02*
D03*
X5638D02*
D03*
X2398Y-1920D02*
D03*
X2622D02*
D03*
X12442Y-2170D02*
D03*
X12218D02*
D03*
X11722Y-840D02*
D03*
X11498D02*
D03*
X11652Y720D02*
D03*
X11428D02*
D03*
X11282Y-840D02*
D03*
X11058D02*
D03*
X11722Y-1070D02*
D03*
X11498D02*
D03*
X9968Y-1330D02*
D03*
X10192D02*
D03*
X6524Y-1615D02*
D03*
X6299D02*
D03*
X5629D02*
D03*
X5854D02*
D03*
X4739Y-1105D02*
D03*
X4964D02*
D03*
X4964Y-875D02*
D03*
X4739D02*
D03*
X6002Y1626D02*
D03*
X5778D02*
D03*
X6962D02*
D03*
X6738D02*
D03*
X8942Y-514D02*
D03*
X8718D02*
D03*
X7962Y-1620D02*
D03*
X7738D02*
D03*
X10622Y120D02*
D03*
X10398D02*
D03*
X10622Y453D02*
D03*
X10398D02*
D03*
X10622Y1120D02*
D03*
X10398D02*
D03*
X10622Y787D02*
D03*
X10398D02*
D03*
D79*
X10100Y-455D02*
D03*
Y-1025D02*
D03*
D80*
X2170Y-1912D02*
D03*
Y-1688D02*
D03*
X5320Y1643D02*
D03*
Y1867D02*
D03*
X2850Y-1688D02*
D03*
Y-1912D02*
D03*
X9610Y-576D02*
D03*
Y-352D02*
D03*
X5110Y452D02*
D03*
Y228D02*
D03*
X4300Y-418D02*
D03*
Y-642D02*
D03*
X4958Y-390D02*
D03*
Y-614D02*
D03*
X5342Y-1807D02*
D03*
Y-1583D02*
D03*
X4082Y-1623D02*
D03*
Y-1847D02*
D03*
D81*
X2820Y-850D02*
D03*
D82*
X13250Y-2000D02*
D03*
Y2000D02*
D03*
D83*
X11747Y1020D02*
D03*
X11353D02*
D03*
D84*
X7947Y-1955D02*
D03*
X7416D02*
D03*
D85*
X13253Y256D02*
D03*
X13519D02*
D03*
X13253Y-256D02*
D03*
X13519D02*
D03*
D86*
X9250Y-2734D02*
D03*
X11250D02*
D03*
X3250Y2734D02*
D03*
X4250D02*
D03*
X7250D02*
D03*
X6250D02*
D03*
X5250D02*
D03*
X3250Y-2734D02*
D03*
X4250D02*
D03*
X5250D02*
D03*
X6250D02*
D03*
X7250D02*
D03*
X8250D02*
D03*
X10250D02*
D03*
X11250Y2734D02*
D03*
X10250D02*
D03*
X8250D02*
D03*
X9250D02*
D03*
D87*
X2250Y-2734D02*
D03*
Y2734D02*
D03*
D88*
X12050Y-1500D02*
D03*
X12850D02*
D03*
X12450Y1500D02*
D03*
D89*
X2250Y3050D02*
D03*
Y-3050D02*
D03*
D90*
X3250D02*
D03*
X4250D02*
D03*
X5250D02*
D03*
X6250D02*
D03*
X7250D02*
D03*
X8250D02*
D03*
X9250D02*
D03*
X10250D02*
D03*
X11250D02*
D03*
X13250Y-2416D02*
D03*
Y2416D02*
D03*
X11250Y3050D02*
D03*
X10250D02*
D03*
X9250D02*
D03*
X8250D02*
D03*
X7250D02*
D03*
X6250D02*
D03*
X5250D02*
D03*
X4250D02*
D03*
X3250D02*
D03*
D91*
X13250Y-2081D02*
D03*
Y2081D02*
D03*
M02*
