G04 #@! TF.GenerationSoftware,KiCad,Pcbnew,6.0.0-rc1-unknown-7b10490~66~ubuntu16.04.1*
G04 #@! TF.CreationDate,2018-10-31T12:07:26-07:00*
G04 #@! TF.ProjectId,HG_002,48475f30-3032-42e6-9b69-6361645f7063,rev?*
G04 #@! TF.SameCoordinates,Original*
G04 #@! TF.FileFunction,Soldermask,Bot*
G04 #@! TF.FilePolarity,Negative*
%FSLAX46Y46*%
G04 Gerber Fmt 4.6, Leading zero omitted, Abs format (unit mm)*
G04 Created by KiCad (PCBNEW 6.0.0-rc1-unknown-7b10490~66~ubuntu16.04.1) date Wed 31 Oct 2018 12:07:26 PM MST*
%MOMM*%
%LPD*%
G01*
G04 APERTURE LIST*
%ADD10C,0.100000*%
G04 APERTURE END LIST*
D10*
G04 #@! TO.C,svg2mod*
G36*
X155756327Y-116103180D02*
X156604997Y-115595127D01*
X156446401Y-115583380D01*
X156284869Y-115556946D01*
X156328925Y-115374855D01*
X156378851Y-115183953D01*
X156396474Y-115213322D01*
X156511015Y-115351358D01*
X156602060Y-115495270D01*
X156637305Y-115548137D01*
X156669609Y-115601005D01*
X156637305Y-115598082D01*
X156604995Y-115595159D01*
X156604997Y-115595127D01*
X155756327Y-116103180D01*
X155809194Y-116205974D01*
X155888493Y-116297019D01*
X155988349Y-116361632D01*
X156105828Y-116391001D01*
X156158695Y-116370444D01*
X156185129Y-116352821D01*
X156202751Y-116344010D01*
X156214497Y-116335199D01*
X156249742Y-116320511D01*
X156237996Y-116282331D01*
X156240919Y-116247086D01*
X156276164Y-116208906D01*
X156293786Y-116191284D01*
X156308474Y-116173661D01*
X156358400Y-116117859D01*
X156279103Y-116097301D01*
X156182183Y-116044434D01*
X156161625Y-115935766D01*
X156261482Y-115932844D01*
X156340779Y-115953401D01*
X156449447Y-115979835D01*
X156566926Y-115988646D01*
X156610982Y-115988646D01*
X156655038Y-115982800D01*
X156684407Y-115976955D01*
X156696153Y-115941710D01*
X156707899Y-115929963D01*
X156740209Y-115891783D01*
X156746055Y-115827170D01*
X156763678Y-115774303D01*
X156790111Y-115847727D01*
X156801858Y-115877096D01*
X156831226Y-115882942D01*
X156840038Y-115897629D01*
X156842960Y-115912316D01*
X156857648Y-115962243D01*
X156869394Y-115973989D01*
X156881140Y-115982800D01*
X156895828Y-116035668D01*
X156913450Y-116085594D01*
X156939884Y-116161955D01*
X156945730Y-116232441D01*
X156957476Y-116264751D01*
X156989786Y-116294120D01*
X157025031Y-116311743D01*
X157042653Y-116323489D01*
X157057341Y-116329335D01*
X157066152Y-116361638D01*
X157101397Y-116367484D01*
X157148388Y-116376295D01*
X157177757Y-116379218D01*
X157207126Y-116376295D01*
X157257052Y-116335180D01*
X157298167Y-116302870D01*
X157327536Y-116250003D01*
X157333382Y-116217699D01*
X157339227Y-116188330D01*
X157348039Y-116170708D01*
X157386219Y-116135463D01*
X157353909Y-116109029D01*
X157350986Y-116059103D01*
X157227634Y-115771281D01*
X157089597Y-115489333D01*
X157045540Y-115395351D01*
X156998549Y-115301368D01*
X157001472Y-115280811D01*
X156995626Y-115254377D01*
X156942759Y-115166268D01*
X156901644Y-115084033D01*
X156854652Y-114987113D01*
X156790039Y-114890194D01*
X156743048Y-114869636D01*
X156722491Y-114863791D01*
X156696057Y-114857945D01*
X156652001Y-114863791D01*
X156508090Y-114758060D01*
X156381801Y-114590653D01*
X156352432Y-114549538D01*
X156314252Y-114573031D01*
X156273137Y-114590653D01*
X156217334Y-114605341D01*
X156117478Y-114631774D01*
X156041117Y-114675831D01*
X156020559Y-114746317D01*
X156011748Y-114793309D01*
X155997061Y-114893165D01*
X155985315Y-115004769D01*
X155961816Y-115104626D01*
X155941258Y-115201545D01*
X155911890Y-115339583D01*
X155873710Y-115462935D01*
X155844341Y-115465858D01*
X155814972Y-115457046D01*
X155776792Y-115451201D01*
X155744488Y-115448278D01*
X155732742Y-115477647D01*
X155703373Y-115507015D01*
X155647571Y-115524638D01*
X155615261Y-115551072D01*
X155591768Y-115568694D01*
X155547712Y-115586316D01*
X155571205Y-115630373D01*
X155656376Y-115733166D01*
X155776792Y-115812464D01*
X155773869Y-115847709D01*
X155765058Y-115880013D01*
X155750370Y-115982806D01*
X155750370Y-116091474D01*
X155756216Y-116103220D01*
X155756327Y-116103180D01*
X155756327Y-116103180D01*
G37*
G36*
X157457320Y-115821232D02*
X157642349Y-116018008D01*
X157894927Y-116132550D01*
X158185686Y-116211847D01*
X158476445Y-116302893D01*
X158549869Y-116305816D01*
X158608607Y-116314627D01*
X158661474Y-116323438D01*
X158720211Y-116329284D01*
X158734899Y-116335130D01*
X158743710Y-116346876D01*
X158834756Y-116355687D01*
X158899369Y-116355687D01*
X158972793Y-116364499D01*
X159037406Y-116373310D01*
X159383967Y-116217651D01*
X159522004Y-115812351D01*
X159527850Y-115794728D01*
X159539596Y-115785917D01*
X159533751Y-115735991D01*
X159530828Y-115683123D01*
X159357547Y-115383554D01*
X159125528Y-115136849D01*
X159090283Y-115101604D01*
X159063849Y-115066359D01*
X159031545Y-115036990D01*
X158987489Y-115016433D01*
X158840641Y-114887207D01*
X158661487Y-114775602D01*
X158476458Y-114666935D01*
X158306115Y-114543582D01*
X158259124Y-114552393D01*
X158226820Y-114552393D01*
X158171017Y-114614069D01*
X158097594Y-114652249D01*
X158027107Y-114696305D01*
X157977181Y-114766792D01*
X157994803Y-114781480D01*
X157985992Y-114807913D01*
X157983069Y-114834347D01*
X158003626Y-114846093D01*
X157986004Y-114863716D01*
X157968381Y-114878403D01*
X157977193Y-114901896D01*
X157977193Y-114931265D01*
X158109356Y-115004688D01*
X158259140Y-115081050D01*
X158420673Y-115166221D01*
X158582206Y-115269014D01*
X158743738Y-115401178D01*
X158902334Y-115550963D01*
X159046245Y-115715432D01*
X159160786Y-115879902D01*
X159149040Y-115903394D01*
X159134352Y-115923952D01*
X158961072Y-115923952D01*
X158796603Y-115932763D01*
X158784856Y-115915141D01*
X158770175Y-115897518D01*
X158458857Y-115844651D01*
X158165161Y-115765353D01*
X158209218Y-115750665D01*
X158244462Y-115735984D01*
X158244462Y-115712491D01*
X158215094Y-115688993D01*
X158282644Y-115630255D01*
X158312012Y-115536272D01*
X158294390Y-115501027D01*
X158312012Y-115468717D01*
X158326694Y-115468717D01*
X158332540Y-115477528D01*
X158335462Y-115489275D01*
X158350150Y-115486352D01*
X158338404Y-115442296D01*
X158320781Y-115401181D01*
X158118131Y-115266081D01*
X158038833Y-115318948D01*
X157941914Y-115374751D01*
X157836183Y-115430553D01*
X157733389Y-115483420D01*
X157659966Y-115530412D01*
X157598289Y-115592088D01*
X157539552Y-115650825D01*
X157466127Y-115700752D01*
X157463205Y-115762428D01*
X157457359Y-115821166D01*
X157457320Y-115821232D01*
X157457320Y-115821232D01*
G37*
G36*
X159812350Y-116103180D02*
X160661031Y-115595127D01*
X160502435Y-115583380D01*
X160340902Y-115556946D01*
X160384958Y-115374855D01*
X160434885Y-115183953D01*
X160452507Y-115213322D01*
X160567048Y-115351358D01*
X160658094Y-115495270D01*
X160693339Y-115548137D01*
X160725649Y-115601005D01*
X160693339Y-115598082D01*
X160661035Y-115595159D01*
X160661031Y-115595127D01*
X159812350Y-116103180D01*
X159865217Y-116205974D01*
X159944515Y-116297019D01*
X160044372Y-116361632D01*
X160161850Y-116391001D01*
X160214717Y-116370444D01*
X160241151Y-116352821D01*
X160258774Y-116344010D01*
X160270520Y-116335199D01*
X160305765Y-116320511D01*
X160294019Y-116282331D01*
X160296941Y-116247086D01*
X160332186Y-116208906D01*
X160349809Y-116191284D01*
X160364496Y-116173661D01*
X160414423Y-116117859D01*
X160335125Y-116097301D01*
X160238205Y-116044434D01*
X160217648Y-115935766D01*
X160317504Y-115932844D01*
X160396803Y-115953401D01*
X160505470Y-115979835D01*
X160622948Y-115988646D01*
X160667004Y-115988646D01*
X160711061Y-115982800D01*
X160740429Y-115976955D01*
X160752176Y-115941710D01*
X160763922Y-115929963D01*
X160796232Y-115891783D01*
X160802078Y-115827170D01*
X160819700Y-115774303D01*
X160846134Y-115847727D01*
X160857880Y-115877096D01*
X160887249Y-115882942D01*
X160896060Y-115897629D01*
X160898983Y-115912316D01*
X160913670Y-115962243D01*
X160925417Y-115973989D01*
X160937163Y-115982800D01*
X160951850Y-116035668D01*
X160969473Y-116085594D01*
X160995907Y-116161955D01*
X161001752Y-116232441D01*
X161013499Y-116264751D01*
X161045802Y-116294120D01*
X161081047Y-116311743D01*
X161098670Y-116323489D01*
X161113357Y-116329335D01*
X161122168Y-116361638D01*
X161157413Y-116367484D01*
X161204405Y-116376295D01*
X161233773Y-116379218D01*
X161263142Y-116376295D01*
X161313068Y-116335180D01*
X161354184Y-116302870D01*
X161383552Y-116250003D01*
X161389398Y-116217699D01*
X161395244Y-116188330D01*
X161404055Y-116170708D01*
X161442235Y-116135463D01*
X161409931Y-116109029D01*
X161407008Y-116059103D01*
X161283656Y-115771281D01*
X161145619Y-115489333D01*
X161101563Y-115395351D01*
X161054572Y-115301368D01*
X161057494Y-115280811D01*
X161051649Y-115254377D01*
X160998781Y-115166268D01*
X160957666Y-115084033D01*
X160910675Y-114987113D01*
X160846062Y-114890194D01*
X160799071Y-114869636D01*
X160778513Y-114863791D01*
X160752079Y-114857945D01*
X160708023Y-114863791D01*
X160564112Y-114758060D01*
X160437823Y-114590653D01*
X160408454Y-114549538D01*
X160370274Y-114573031D01*
X160329159Y-114590653D01*
X160273356Y-114605341D01*
X160173500Y-114631774D01*
X160097139Y-114675831D01*
X160076581Y-114746317D01*
X160067770Y-114793309D01*
X160053083Y-114893165D01*
X160041336Y-115004769D01*
X160017844Y-115104626D01*
X159997286Y-115201545D01*
X159967918Y-115339583D01*
X159929738Y-115462935D01*
X159900369Y-115465858D01*
X159871000Y-115457046D01*
X159832820Y-115451201D01*
X159800510Y-115448278D01*
X159788764Y-115477647D01*
X159759395Y-115507015D01*
X159703593Y-115524638D01*
X159671289Y-115551072D01*
X159647790Y-115568694D01*
X159603734Y-115586316D01*
X159627233Y-115630373D01*
X159712404Y-115733166D01*
X159832819Y-115812464D01*
X159829897Y-115847709D01*
X159821085Y-115880013D01*
X159806404Y-115982806D01*
X159806404Y-116091474D01*
X159812250Y-116103220D01*
X159812350Y-116103180D01*
X159812350Y-116103180D01*
G37*
G36*
X162461486Y-115815358D02*
X162499666Y-115847668D01*
X162523158Y-115897594D01*
X162543716Y-115947521D01*
X162573085Y-115968078D01*
X162590707Y-116009193D01*
X162614206Y-116047373D01*
X162631828Y-116088488D01*
X162625983Y-116138415D01*
X162655351Y-116188341D01*
X162670039Y-116250017D01*
X162693531Y-116299943D01*
X162758144Y-116317566D01*
X162761067Y-116332253D01*
X162752256Y-116352811D01*
X162802182Y-116355734D01*
X162840362Y-116370415D01*
X162934345Y-116308739D01*
X162998958Y-116211819D01*
X163048884Y-116100215D01*
X163089999Y-116003296D01*
X163087076Y-115941619D01*
X163107634Y-115888752D01*
X163071244Y-115811748D01*
X163034026Y-115733461D01*
X162995986Y-115653887D01*
X162957118Y-115573029D01*
X162917422Y-115490886D01*
X162876904Y-115407458D01*
X162835557Y-115322745D01*
X162793383Y-115236747D01*
X162751074Y-115150245D01*
X162709314Y-115064017D01*
X162668101Y-114978065D01*
X162627443Y-114892389D01*
X162587332Y-114806988D01*
X162547776Y-114721862D01*
X162508768Y-114637011D01*
X162470314Y-114552436D01*
X162338151Y-114614112D01*
X162217735Y-114690473D01*
X162123753Y-114793267D01*
X162073827Y-114919555D01*
X162088514Y-114934243D01*
X162100260Y-114937166D01*
X162088514Y-114957723D01*
X162088514Y-114969470D01*
X162088514Y-114987092D01*
X162079703Y-115013526D01*
X162097325Y-115016449D01*
X162114948Y-115016449D01*
X162109102Y-115069316D01*
X162120848Y-115107496D01*
X162135536Y-115142741D01*
X162132613Y-115189732D01*
X162147300Y-115195578D01*
X162153146Y-115204389D01*
X162161957Y-115213200D01*
X162173704Y-115213200D01*
X162167858Y-115342427D01*
X162173704Y-115474590D01*
X162170781Y-115612627D01*
X162150223Y-115759475D01*
X161982817Y-115600878D01*
X161880023Y-115383544D01*
X161818347Y-115125092D01*
X161774291Y-114843144D01*
X161733176Y-114778531D01*
X161706742Y-114699232D01*
X161683249Y-114614061D01*
X161653881Y-114534763D01*
X161580456Y-114564132D01*
X161521719Y-114611123D01*
X161465916Y-114658114D01*
X161392493Y-114684548D01*
X161327880Y-114781467D01*
X161289700Y-114881324D01*
X161313192Y-114934192D01*
X161327880Y-114992929D01*
X161351372Y-115048732D01*
X161392487Y-115089847D01*
X161415980Y-115230821D01*
X161442413Y-115354173D01*
X161462971Y-115483399D01*
X161468817Y-115627310D01*
X161518743Y-115771221D01*
X161559858Y-115909258D01*
X161633282Y-116000304D01*
X161689085Y-116106034D01*
X161703772Y-116111880D01*
X161724330Y-116103069D01*
X161724330Y-116120691D01*
X161733141Y-116132437D01*
X161738987Y-116144184D01*
X161733141Y-116167682D01*
X161806565Y-116217609D01*
X161877052Y-116276346D01*
X161965161Y-116311591D01*
X162097324Y-116291033D01*
X162311722Y-116088384D01*
X162461507Y-115815246D01*
X162461486Y-115815358D01*
X162461486Y-115815358D01*
G37*
G36*
X163327888Y-115580402D02*
X163363133Y-115624458D01*
X163392502Y-115674384D01*
X163424806Y-115736061D01*
X163468862Y-115788928D01*
X163498231Y-115859415D01*
X163545222Y-115915217D01*
X163683259Y-116170732D01*
X163700881Y-116223600D01*
X163727315Y-116270591D01*
X163739061Y-116291149D01*
X163747872Y-116305836D01*
X163753718Y-116335205D01*
X163786028Y-116376320D01*
X163818332Y-116408624D01*
X163838889Y-116432116D01*
X163882946Y-116449739D01*
X164144335Y-116220656D01*
X164141412Y-116191287D01*
X164132601Y-116161919D01*
X164120855Y-116126674D01*
X164094421Y-116044439D01*
X164044495Y-115971015D01*
X164018061Y-115906402D01*
X163947574Y-115768365D01*
X163882961Y-115656761D01*
X163844781Y-115592148D01*
X163915268Y-115506976D01*
X163982818Y-115366002D01*
X164023933Y-115245586D01*
X164032745Y-115180973D01*
X164044491Y-115125171D01*
X164059178Y-115060558D01*
X164065024Y-114993008D01*
X164082647Y-114951893D01*
X164076801Y-114922524D01*
X164073878Y-114869657D01*
X164088565Y-114799170D01*
X164103253Y-114734557D01*
X164106176Y-114664070D01*
X164088553Y-114599457D01*
X164032751Y-114543654D01*
X163982824Y-114540731D01*
X163932898Y-114570100D01*
X163882972Y-114596534D01*
X163821296Y-114625902D01*
X163759620Y-114664082D01*
X163739062Y-114705198D01*
X163700882Y-114737501D01*
X163700882Y-114769811D01*
X163697960Y-114802115D01*
X163686213Y-114849106D01*
X163674467Y-114884351D01*
X163665656Y-114963649D01*
X163648033Y-115031199D01*
X163630411Y-115098749D01*
X163627488Y-115175110D01*
X163598119Y-115154552D01*
X163586373Y-115145741D01*
X163574627Y-115136930D01*
X163401346Y-114901974D01*
X163407192Y-114872605D01*
X163345516Y-114813867D01*
X163301460Y-114769811D01*
X163263280Y-114725755D01*
X163230970Y-114702256D01*
X162963707Y-114520165D01*
X162922592Y-114514319D01*
X162910846Y-114552499D01*
X162863854Y-114611237D01*
X162784556Y-114661163D01*
X162758123Y-114678786D01*
X162743435Y-114722842D01*
X162746358Y-114749276D01*
X162734612Y-114778644D01*
X162793349Y-114881438D01*
X162857962Y-114940176D01*
X162907889Y-114984232D01*
X162940192Y-115031223D01*
X162960750Y-115054722D01*
X163040048Y-115148704D01*
X163048859Y-115183949D01*
X163084104Y-115183949D01*
X163098792Y-115195695D01*
X163128160Y-115245622D01*
X163157529Y-115283802D01*
X163172217Y-115298489D01*
X163181028Y-115321982D01*
X163189839Y-115345474D01*
X163236830Y-115404212D01*
X163257388Y-115445327D01*
X163280880Y-115492318D01*
X163313184Y-115536374D01*
X163327872Y-115580431D01*
X163327888Y-115580402D01*
X163327888Y-115580402D01*
G37*
G36*
X164197227Y-114696377D02*
X164197227Y-114728687D01*
X164200150Y-114746310D01*
X164200150Y-114766867D01*
X164194304Y-114796236D01*
X164338215Y-114934273D01*
X164511496Y-114987140D01*
X164705335Y-115019450D01*
X164899174Y-115095811D01*
X164969661Y-115095811D01*
X165057770Y-115104622D01*
X165101826Y-115131056D01*
X165154694Y-115145743D01*
X165145882Y-115201545D01*
X165137071Y-115245602D01*
X164910925Y-115242679D01*
X164664221Y-115227991D01*
X164667143Y-115248549D01*
X164670066Y-115263236D01*
X164628951Y-115301416D01*
X164587836Y-115342531D01*
X164546721Y-115377776D01*
X164493854Y-115386588D01*
X164479166Y-115439455D01*
X164485012Y-115495257D01*
X164578994Y-115562807D01*
X164678851Y-115621545D01*
X164787519Y-115665601D01*
X164913808Y-115677347D01*
X164937301Y-115677347D01*
X164954923Y-115668536D01*
X165022474Y-115677347D01*
X165087086Y-115686159D01*
X165166384Y-115674412D01*
X165245682Y-115662666D01*
X165330854Y-115794829D01*
X165398404Y-115944614D01*
X165233934Y-115956360D01*
X165107645Y-115947549D01*
X164987230Y-115932868D01*
X164831571Y-115927022D01*
X164693534Y-115885907D01*
X164543750Y-115850662D01*
X164502634Y-115882966D01*
X164470325Y-115924081D01*
X164435080Y-115956391D01*
X164391023Y-115968137D01*
X164376336Y-115997506D01*
X164367525Y-116026875D01*
X164358714Y-116053308D01*
X164332280Y-116059154D01*
X164435074Y-116208939D01*
X164564300Y-116285300D01*
X164728769Y-116326415D01*
X164925545Y-116361660D01*
X164969601Y-116358738D01*
X165010717Y-116352892D01*
X165172249Y-116379325D01*
X165363151Y-116388137D01*
X165548180Y-116361703D01*
X165692091Y-116285342D01*
X165724401Y-116238351D01*
X165762581Y-116194295D01*
X165774327Y-116109124D01*
X165791949Y-116012204D01*
X165806631Y-115909410D01*
X165800785Y-115818364D01*
X165765540Y-115739067D01*
X165744983Y-115662706D01*
X165727360Y-115648024D01*
X165703867Y-115636278D01*
X165665687Y-115536421D01*
X165624572Y-115445376D01*
X165580516Y-115357267D01*
X165536460Y-115254474D01*
X165598136Y-115172239D01*
X165624570Y-115081193D01*
X165639257Y-114987210D01*
X165659815Y-114887354D01*
X165589327Y-114816867D01*
X165495345Y-114769876D01*
X165386678Y-114740507D01*
X165263326Y-114714073D01*
X165054801Y-114655336D01*
X164872710Y-114623032D01*
X164684745Y-114596598D01*
X164464473Y-114561353D01*
X164414546Y-114587787D01*
X164388113Y-114573100D01*
X164373425Y-114555477D01*
X164300002Y-114640649D01*
X164197208Y-114696451D01*
X164197227Y-114696377D01*
X164197227Y-114696377D01*
G37*
G36*
X166990275Y-116044441D02*
X166825802Y-115401275D01*
X166611404Y-115345473D01*
X166399943Y-115257364D01*
X166464556Y-115110516D01*
X166570287Y-115037092D01*
X166570289Y-115037093D01*
X166643713Y-115122264D01*
X166720074Y-115201562D01*
X166784687Y-115289671D01*
X166825802Y-115401275D01*
X166990275Y-116044441D01*
X167049012Y-116223596D01*
X167122437Y-116346947D01*
X167175304Y-116355759D01*
X167207614Y-116382192D01*
X167245794Y-116382192D01*
X167266352Y-116367505D01*
X167289850Y-116352817D01*
X167328030Y-116346972D01*
X167342718Y-116302916D01*
X167380898Y-116288228D01*
X167377975Y-116250048D01*
X167386786Y-116220679D01*
X167392632Y-116194246D01*
X167389709Y-116159001D01*
X167413201Y-116138443D01*
X167433759Y-116097328D01*
X167416137Y-115997472D01*
X167395579Y-115909363D01*
X167372086Y-115827128D01*
X167380898Y-115741956D01*
X167363275Y-115739033D01*
X167354464Y-115703788D01*
X167351541Y-115659732D01*
X167354464Y-115621552D01*
X167307473Y-115465894D01*
X167272228Y-115304361D01*
X167236983Y-115148702D01*
X167189992Y-115007728D01*
X167119505Y-115016539D01*
X167069578Y-115048843D01*
X166934478Y-114907869D01*
X166814063Y-114743399D01*
X166678963Y-114602426D01*
X166488061Y-114529002D01*
X166358835Y-114620048D01*
X166238419Y-114737526D01*
X166200239Y-114763959D01*
X166159124Y-114790393D01*
X166159124Y-114825638D01*
X166103322Y-114901999D01*
X166062207Y-114993045D01*
X166026962Y-115089964D01*
X165985847Y-115181010D01*
X165991692Y-115207444D01*
X165988769Y-115228001D01*
X165979958Y-115251500D01*
X165979958Y-115283804D01*
X166065130Y-115492327D01*
X166244284Y-115624491D01*
X166470430Y-115709662D01*
X166687765Y-115786023D01*
X166678954Y-115797770D01*
X166670142Y-115812457D01*
X166558538Y-115882944D01*
X166482178Y-115927000D01*
X166402879Y-115959310D01*
X166282464Y-115988679D01*
X166164986Y-116018048D01*
X166085688Y-116035670D01*
X166015201Y-116047416D01*
X165909470Y-116056228D01*
X165865414Y-116120841D01*
X165838980Y-116194265D01*
X165836057Y-116264752D01*
X165856615Y-116317619D01*
X165844869Y-116326431D01*
X165821370Y-116326431D01*
X165850739Y-116355799D01*
X165874231Y-116391044D01*
X165900665Y-116420413D01*
X165941780Y-116438036D01*
X166170863Y-116440958D01*
X166520361Y-116329354D01*
X166693641Y-116258867D01*
X166808182Y-116197191D01*
X166896291Y-116129641D01*
X166990274Y-116044469D01*
X166990275Y-116044441D01*
X166990275Y-116044441D01*
G37*
G36*
X168817063Y-115028253D02*
X168752449Y-114922523D01*
X168652593Y-114849099D01*
X168538051Y-114796232D01*
X168426447Y-114760987D01*
X168176806Y-114667004D01*
X167903668Y-114584769D01*
X167615847Y-114540713D01*
X167307466Y-114575958D01*
X167281032Y-114631760D01*
X167245787Y-114684628D01*
X167210542Y-114737495D01*
X167192920Y-114787422D01*
X167145929Y-114846159D01*
X167140083Y-114925457D01*
X167198820Y-114969513D01*
X167257558Y-115001817D01*
X167477830Y-114984195D01*
X167677543Y-114998882D01*
X167742156Y-114972448D01*
X167818517Y-114984195D01*
X167897815Y-115007687D01*
X167971238Y-115013533D01*
X168044663Y-115045837D01*
X168135708Y-115057583D01*
X168129863Y-115078141D01*
X168126940Y-115095763D01*
X168082884Y-115125132D01*
X168024146Y-115142754D01*
X167968344Y-115166247D01*
X167936040Y-115207362D01*
X167859679Y-115227920D01*
X167806811Y-115277846D01*
X167777442Y-115342459D01*
X167765696Y-115401196D01*
X167745139Y-115421754D01*
X167718705Y-115433500D01*
X167674649Y-115512798D01*
X167618846Y-115597970D01*
X167610035Y-115730133D01*
X167630592Y-115844675D01*
X167753945Y-116038513D01*
X167930162Y-116191235D01*
X168138686Y-116302839D01*
X168356021Y-116382138D01*
X168379520Y-116382138D01*
X168385365Y-116367450D01*
X168438233Y-116393884D01*
X168496970Y-116396807D01*
X168564520Y-116393884D01*
X168626197Y-116396807D01*
X168664377Y-116355692D01*
X168687869Y-116308700D01*
X168702557Y-116294013D01*
X168711368Y-116279326D01*
X168696680Y-116247022D01*
X168705492Y-116238211D01*
X168717238Y-116232365D01*
X168720161Y-116217683D01*
X168711350Y-116164816D01*
X168717195Y-116100203D01*
X168714272Y-116038527D01*
X168670216Y-115991535D01*
X168482251Y-115985690D01*
X168311908Y-115929887D01*
X168162123Y-115853527D01*
X168018212Y-115780103D01*
X167994713Y-115736047D01*
X167959468Y-115703737D01*
X167927158Y-115671433D01*
X167906601Y-115627377D01*
X167918347Y-115603878D01*
X167930094Y-115580385D01*
X167962397Y-115571574D01*
X168088687Y-115518707D01*
X168209102Y-115468781D01*
X168270778Y-115477592D01*
X168341265Y-115459969D01*
X168535104Y-115439412D01*
X168711322Y-115386544D01*
X168726009Y-115360111D01*
X168758313Y-115354265D01*
X168793558Y-115310209D01*
X168825862Y-115260282D01*
X168817050Y-115201545D01*
X168834673Y-115151619D01*
X168817050Y-115089942D01*
X168817050Y-115028266D01*
X168817063Y-115028253D01*
X168817063Y-115028253D01*
G37*
G36*
X168658467Y-115821232D02*
X168739968Y-115933571D01*
X168843495Y-116018008D01*
X168963911Y-116080419D01*
X169096074Y-116132549D01*
X169237782Y-116174401D01*
X169386832Y-116211844D01*
X169534414Y-116252229D01*
X169677591Y-116302892D01*
X169716502Y-116303623D01*
X169751010Y-116305815D01*
X169780379Y-116309468D01*
X169809747Y-116314644D01*
X169836181Y-116318298D01*
X169862615Y-116323474D01*
X169890516Y-116326397D01*
X169921352Y-116329319D01*
X169930900Y-116329319D01*
X169936015Y-116335165D01*
X169939669Y-116341011D01*
X169944845Y-116346918D01*
X169992573Y-116353524D01*
X170014787Y-116355169D01*
X170035899Y-116355719D01*
X170052053Y-116355719D01*
X170068208Y-116355719D01*
X170084363Y-116355719D01*
X170100518Y-116355719D01*
X170118323Y-116356270D01*
X170136494Y-116357914D01*
X170155036Y-116360654D01*
X170173943Y-116364490D01*
X170191200Y-116369422D01*
X170207721Y-116372528D01*
X170223504Y-116373807D01*
X170238557Y-116373257D01*
X170342819Y-116359124D01*
X170435333Y-116328470D01*
X170516099Y-116281296D01*
X170585118Y-116217600D01*
X170640001Y-116137201D01*
X170681299Y-116042851D01*
X170709017Y-115934550D01*
X170723151Y-115812299D01*
X170722420Y-115805693D01*
X170723151Y-115800578D01*
X170725343Y-115796924D01*
X170728996Y-115794732D01*
X170731919Y-115793088D01*
X170734842Y-115791078D01*
X170737765Y-115788703D01*
X170740688Y-115785963D01*
X170740323Y-115771830D01*
X170739227Y-115758799D01*
X170737400Y-115746870D01*
X170734842Y-115736043D01*
X170731371Y-115725027D01*
X170729727Y-115712544D01*
X170729915Y-115698594D01*
X170731925Y-115683176D01*
X170692460Y-115603878D01*
X170650425Y-115527517D01*
X170605821Y-115454093D01*
X170558647Y-115383606D01*
X170507802Y-115315322D01*
X170452182Y-115251443D01*
X170391788Y-115191969D01*
X170326624Y-115136903D01*
X170316711Y-115128092D01*
X170307534Y-115119281D01*
X170299088Y-115110469D01*
X170291379Y-115101658D01*
X170284218Y-115092847D01*
X170277423Y-115084036D01*
X170270998Y-115075224D01*
X170264970Y-115066413D01*
X170257444Y-115057967D01*
X170249552Y-115050258D01*
X170232666Y-115037044D01*
X170212839Y-115024561D01*
X170188610Y-115016487D01*
X170121060Y-114948937D01*
X170041762Y-114887261D01*
X169954388Y-114829991D01*
X169862608Y-114775656D01*
X169769359Y-114720590D01*
X169677579Y-114666992D01*
X169588002Y-114608254D01*
X169507236Y-114543641D01*
X169479335Y-114553189D01*
X169460245Y-114552459D01*
X169444826Y-114549536D01*
X169427941Y-114552459D01*
X169403711Y-114589908D01*
X169372138Y-114614137D01*
X169334689Y-114632490D01*
X169298713Y-114652317D01*
X169262001Y-114672144D01*
X169228223Y-114696373D01*
X169199585Y-114727210D01*
X169178297Y-114766857D01*
X169191517Y-114770511D01*
X169195901Y-114781526D01*
X169192248Y-114794010D01*
X169187072Y-114807960D01*
X169183418Y-114820443D01*
X169184149Y-114834394D01*
X169189264Y-114843205D01*
X169204682Y-114846128D01*
X169198836Y-114857874D01*
X169187078Y-114863720D01*
X169173864Y-114867374D01*
X169169480Y-114878389D01*
X169171672Y-114891603D01*
X169178279Y-114901882D01*
X169181202Y-114913628D01*
X169178279Y-114931251D01*
X169240688Y-114968694D01*
X169310442Y-115004669D01*
X169383131Y-115041382D01*
X169460226Y-115081029D01*
X169538790Y-115121414D01*
X169621759Y-115166201D01*
X169703260Y-115213929D01*
X169783292Y-115268994D01*
X169863324Y-115331404D01*
X169944824Y-115401157D01*
X170025591Y-115473847D01*
X170064873Y-115511845D01*
X170103419Y-115550944D01*
X170141051Y-115590957D01*
X170177580Y-115631707D01*
X170213008Y-115673193D01*
X170247334Y-115715411D01*
X170279826Y-115756526D01*
X170309749Y-115797641D01*
X170337096Y-115838756D01*
X170361874Y-115879871D01*
X170358951Y-115886849D01*
X170356028Y-115893091D01*
X170353105Y-115898571D01*
X170350182Y-115903321D01*
X170345980Y-115906792D01*
X170342144Y-115911359D01*
X170338673Y-115917022D01*
X170335568Y-115923823D01*
X170289496Y-115926016D01*
X170245257Y-115926746D01*
X170202857Y-115926016D01*
X170162290Y-115923823D01*
X170121175Y-115921083D01*
X170080060Y-115921634D01*
X170038945Y-115925470D01*
X169997830Y-115932631D01*
X169993811Y-115929343D01*
X169990523Y-115925324D01*
X169987965Y-115920574D01*
X169986138Y-115915033D01*
X169984129Y-115909553D01*
X169981023Y-115904803D01*
X169976822Y-115900784D01*
X169971463Y-115897496D01*
X169809930Y-115875465D01*
X169660145Y-115844622D01*
X169514766Y-115805705D01*
X169366450Y-115765321D01*
X169389211Y-115757240D01*
X169410506Y-115750634D01*
X169428128Y-115742559D01*
X169445751Y-115735952D01*
X169453094Y-115722738D01*
X169445751Y-115712466D01*
X169429596Y-115700719D01*
X169416382Y-115688967D01*
X169453825Y-115662539D01*
X169483931Y-115630230D01*
X169503021Y-115589108D01*
X169513300Y-115536241D01*
X169500086Y-115520086D01*
X169495701Y-115500996D01*
X169500086Y-115482637D01*
X169513300Y-115468686D01*
X169522848Y-115467225D01*
X169527963Y-115468686D01*
X169530885Y-115472340D01*
X169533808Y-115477516D01*
X169534539Y-115483361D01*
X169536731Y-115489268D01*
X169541846Y-115489999D01*
X169551400Y-115486345D01*
X169547016Y-115462116D01*
X169539666Y-115442289D01*
X169529387Y-115423199D01*
X169522044Y-115401174D01*
X169420719Y-115333624D01*
X169319394Y-115266074D01*
X169283412Y-115291034D01*
X169240093Y-115318941D01*
X169192365Y-115346106D01*
X169143169Y-115374744D01*
X169090302Y-115401908D01*
X169037440Y-115430546D01*
X168983842Y-115456980D01*
X168934647Y-115483414D01*
X168895736Y-115503971D01*
X168861228Y-115530405D01*
X168829655Y-115560511D01*
X168799549Y-115592084D01*
X168770180Y-115621452D01*
X168740812Y-115650821D01*
X168706303Y-115677986D01*
X168667393Y-115700747D01*
X168669585Y-115735256D01*
X168664470Y-115762420D01*
X168658624Y-115788848D01*
X168658645Y-115821158D01*
X168658626Y-115821191D01*
X168658467Y-115821232D01*
X168658467Y-115821232D01*
G37*
G36*
X153551600Y-116487200D02*
X151199200Y-116487200D01*
X151199200Y-113234800D01*
X153551600Y-113234800D01*
X153551600Y-116487200D01*
X153551600Y-116487200D01*
G37*
G36*
X147301600Y-116487200D02*
X144949200Y-116487200D01*
X144949200Y-113234800D01*
X147301600Y-113234800D01*
X147301600Y-116487200D01*
X147301600Y-116487200D01*
G37*
G36*
X149101600Y-112887200D02*
X148149200Y-112887200D01*
X148149200Y-111034800D01*
X149101600Y-111034800D01*
X149101600Y-112887200D01*
X149101600Y-112887200D01*
G37*
G36*
X150351600Y-112887200D02*
X149399200Y-112887200D01*
X149399200Y-111034800D01*
X150351600Y-111034800D01*
X150351600Y-112887200D01*
X150351600Y-112887200D01*
G37*
G36*
X177511200Y-106971200D02*
X175358800Y-106971200D01*
X175358800Y-105118800D01*
X177511200Y-105118800D01*
X177511200Y-106971200D01*
X177511200Y-106971200D01*
G37*
G36*
X181511200Y-106971200D02*
X179358800Y-106971200D01*
X179358800Y-105118800D01*
X181511200Y-105118800D01*
X181511200Y-106971200D01*
X181511200Y-106971200D01*
G37*
G36*
X152575260Y-106767630D02*
X149923500Y-106767630D01*
X149923500Y-104814370D01*
X152575260Y-104814370D01*
X152575260Y-106767630D01*
X152575260Y-106767630D01*
G37*
G36*
X148577300Y-106767630D02*
X145925540Y-106767630D01*
X145925540Y-104814370D01*
X148577300Y-104814370D01*
X148577300Y-106767630D01*
X148577300Y-106767630D01*
G37*
G36*
X159851200Y-105996200D02*
X157698800Y-105996200D01*
X157698800Y-104343800D01*
X159851200Y-104343800D01*
X159851200Y-105996200D01*
X159851200Y-105996200D01*
G37*
G36*
X166151200Y-104846200D02*
X163998800Y-104846200D01*
X163998800Y-100893800D01*
X166151200Y-100893800D01*
X166151200Y-104846200D01*
X166151200Y-104846200D01*
G37*
G36*
X159851200Y-103696200D02*
X157698800Y-103696200D01*
X157698800Y-102043800D01*
X159851200Y-102043800D01*
X159851200Y-103696200D01*
X159851200Y-103696200D01*
G37*
G36*
X106890800Y-102225400D02*
X103938400Y-102225400D01*
X103938400Y-101073000D01*
X106890800Y-101073000D01*
X106890800Y-102225400D01*
X106890800Y-102225400D01*
G37*
G36*
X159851200Y-101396200D02*
X157698800Y-101396200D01*
X157698800Y-99743800D01*
X159851200Y-99743800D01*
X159851200Y-101396200D01*
X159851200Y-101396200D01*
G37*
G36*
X152326600Y-100952200D02*
X150174200Y-100952200D01*
X150174200Y-99199800D01*
X152326600Y-99199800D01*
X152326600Y-100952200D01*
X152326600Y-100952200D01*
G37*
G36*
X148326600Y-100952200D02*
X146174200Y-100952200D01*
X146174200Y-99199800D01*
X148326600Y-99199800D01*
X148326600Y-100952200D01*
X148326600Y-100952200D01*
G37*
G36*
X107890800Y-100475400D02*
X106738400Y-100475400D01*
X106738400Y-99623000D01*
X107890800Y-99623000D01*
X107890800Y-100475400D01*
X107890800Y-100475400D01*
G37*
G36*
X105668089Y-98793222D02*
X105763847Y-98832886D01*
X105850034Y-98890475D01*
X105923325Y-98963766D01*
X105980914Y-99049953D01*
X106020578Y-99145711D01*
X106040800Y-99247374D01*
X106040800Y-99351026D01*
X106020578Y-99452689D01*
X105980914Y-99548447D01*
X105923325Y-99634634D01*
X105850034Y-99707925D01*
X105763847Y-99765514D01*
X105668089Y-99805178D01*
X105566426Y-99825400D01*
X105462774Y-99825400D01*
X105361111Y-99805178D01*
X105265353Y-99765514D01*
X105179166Y-99707925D01*
X105105875Y-99634634D01*
X105048286Y-99548447D01*
X105008622Y-99452689D01*
X104988400Y-99351026D01*
X104988400Y-99247374D01*
X105008622Y-99145711D01*
X105048286Y-99049953D01*
X105105875Y-98963766D01*
X105179166Y-98890475D01*
X105265353Y-98832886D01*
X105361111Y-98793222D01*
X105462774Y-98773000D01*
X105566426Y-98773000D01*
X105668089Y-98793222D01*
X105668089Y-98793222D01*
G37*
G36*
X136810800Y-99636200D02*
X134148400Y-99636200D01*
X134148400Y-98483800D01*
X136810800Y-98483800D01*
X136810800Y-99636200D01*
X136810800Y-99636200D01*
G37*
G36*
X107890800Y-97475400D02*
X106738400Y-97475400D01*
X106738400Y-96623000D01*
X107890800Y-96623000D01*
X107890800Y-97475400D01*
X107890800Y-97475400D01*
G37*
G36*
X140120800Y-97096200D02*
X137458400Y-97096200D01*
X137458400Y-95943800D01*
X140120800Y-95943800D01*
X140120800Y-97096200D01*
X140120800Y-97096200D01*
G37*
G36*
X105618089Y-95793222D02*
X105713847Y-95832886D01*
X105800034Y-95890475D01*
X105873325Y-95963766D01*
X105930914Y-96049953D01*
X105970578Y-96145711D01*
X105990800Y-96247374D01*
X105990800Y-96351026D01*
X105970578Y-96452689D01*
X105930914Y-96548447D01*
X105873325Y-96634634D01*
X105800034Y-96707925D01*
X105713847Y-96765514D01*
X105618089Y-96805178D01*
X105516426Y-96825400D01*
X105412774Y-96825400D01*
X105311111Y-96805178D01*
X105215353Y-96765514D01*
X105129166Y-96707925D01*
X105055875Y-96634634D01*
X104998286Y-96548447D01*
X104958622Y-96452689D01*
X104938400Y-96351026D01*
X104938400Y-96247374D01*
X104958622Y-96145711D01*
X104998286Y-96049953D01*
X105055875Y-95963766D01*
X105129166Y-95890475D01*
X105215353Y-95832886D01*
X105311111Y-95793222D01*
X105412774Y-95773000D01*
X105516426Y-95773000D01*
X105618089Y-95793222D01*
X105618089Y-95793222D01*
G37*
G36*
X107890800Y-95975400D02*
X106738400Y-95975400D01*
X106738400Y-95123000D01*
X107890800Y-95123000D01*
X107890800Y-95975400D01*
X107890800Y-95975400D01*
G37*
G36*
X106890800Y-94275400D02*
X103938400Y-94275400D01*
X103938400Y-93123000D01*
X106890800Y-93123000D01*
X106890800Y-94275400D01*
X106890800Y-94275400D01*
G37*
G36*
X146829400Y-92822200D02*
X145677000Y-92822200D01*
X145677000Y-89519800D01*
X146829400Y-89519800D01*
X146829400Y-92822200D01*
X146829400Y-92822200D01*
G37*
G36*
X151909400Y-92822200D02*
X150757000Y-92822200D01*
X150757000Y-89519800D01*
X151909400Y-89519800D01*
X151909400Y-92822200D01*
X151909400Y-92822200D01*
G37*
G36*
X149369400Y-92822200D02*
X148217000Y-92822200D01*
X148217000Y-89519800D01*
X149369400Y-89519800D01*
X149369400Y-92822200D01*
X149369400Y-92822200D01*
G37*
G36*
X140236200Y-92544000D02*
X138083800Y-92544000D01*
X138083800Y-90691600D01*
X140236200Y-90691600D01*
X140236200Y-92544000D01*
X140236200Y-92544000D01*
G37*
G36*
X136236200Y-92544000D02*
X134083800Y-92544000D01*
X134083800Y-90691600D01*
X136236200Y-90691600D01*
X136236200Y-92544000D01*
X136236200Y-92544000D01*
G37*
G36*
X161001200Y-92316200D02*
X158848800Y-92316200D01*
X158848800Y-90563800D01*
X161001200Y-90563800D01*
X161001200Y-92316200D01*
X161001200Y-92316200D01*
G37*
G36*
X165001200Y-92316200D02*
X162848800Y-92316200D01*
X162848800Y-90563800D01*
X165001200Y-90563800D01*
X165001200Y-92316200D01*
X165001200Y-92316200D01*
G37*
G36*
X146829400Y-87772200D02*
X145677000Y-87772200D01*
X145677000Y-84469800D01*
X146829400Y-84469800D01*
X146829400Y-87772200D01*
X146829400Y-87772200D01*
G37*
G36*
X151909400Y-87772200D02*
X150757000Y-87772200D01*
X150757000Y-84469800D01*
X151909400Y-84469800D01*
X151909400Y-87772200D01*
X151909400Y-87772200D01*
G37*
G36*
X149369400Y-87772200D02*
X148217000Y-87772200D01*
X148217000Y-84469800D01*
X149369400Y-84469800D01*
X149369400Y-87772200D01*
X149369400Y-87772200D01*
G37*
G36*
X130443400Y-87164800D02*
X127781000Y-87164800D01*
X127781000Y-86012400D01*
X130443400Y-86012400D01*
X130443400Y-87164800D01*
X130443400Y-87164800D01*
G37*
G36*
X169043400Y-87164800D02*
X166381000Y-87164800D01*
X166381000Y-86012400D01*
X169043400Y-86012400D01*
X169043400Y-87164800D01*
X169043400Y-87164800D01*
G37*
G36*
X127133400Y-84624800D02*
X124471000Y-84624800D01*
X124471000Y-83472400D01*
X127133400Y-83472400D01*
X127133400Y-84624800D01*
X127133400Y-84624800D01*
G37*
G36*
X172353400Y-84624800D02*
X169691000Y-84624800D01*
X169691000Y-83472400D01*
X172353400Y-83472400D01*
X172353400Y-84624800D01*
X172353400Y-84624800D01*
G37*
G36*
X169043400Y-82084800D02*
X166381000Y-82084800D01*
X166381000Y-80932400D01*
X169043400Y-80932400D01*
X169043400Y-82084800D01*
X169043400Y-82084800D01*
G37*
G36*
X130443400Y-82084800D02*
X127781000Y-82084800D01*
X127781000Y-80932400D01*
X130443400Y-80932400D01*
X130443400Y-82084800D01*
X130443400Y-82084800D01*
G37*
G36*
X146526600Y-79268200D02*
X144674200Y-79268200D01*
X144674200Y-78465800D01*
X146526600Y-78465800D01*
X146526600Y-79268200D01*
X146526600Y-79268200D01*
G37*
G36*
X153826600Y-79268200D02*
X151974200Y-79268200D01*
X151974200Y-78465800D01*
X153826600Y-78465800D01*
X153826600Y-79268200D01*
X153826600Y-79268200D01*
G37*
G36*
X153826600Y-77998200D02*
X151974200Y-77998200D01*
X151974200Y-77195800D01*
X153826600Y-77195800D01*
X153826600Y-77998200D01*
X153826600Y-77998200D01*
G37*
G36*
X146526600Y-77998200D02*
X144674200Y-77998200D01*
X144674200Y-77195800D01*
X146526600Y-77195800D01*
X146526600Y-77998200D01*
X146526600Y-77998200D01*
G37*
G36*
X146526600Y-76728200D02*
X144674200Y-76728200D01*
X144674200Y-75925800D01*
X146526600Y-75925800D01*
X146526600Y-76728200D01*
X146526600Y-76728200D01*
G37*
G36*
X153826600Y-76728200D02*
X151974200Y-76728200D01*
X151974200Y-75925800D01*
X153826600Y-75925800D01*
X153826600Y-76728200D01*
X153826600Y-76728200D01*
G37*
G36*
X146526600Y-75458200D02*
X144674200Y-75458200D01*
X144674200Y-74655800D01*
X146526600Y-74655800D01*
X146526600Y-75458200D01*
X146526600Y-75458200D01*
G37*
G36*
X153826600Y-75458200D02*
X151974200Y-75458200D01*
X151974200Y-74655800D01*
X153826600Y-74655800D01*
X153826600Y-75458200D01*
X153826600Y-75458200D01*
G37*
G36*
X167325800Y-70548400D02*
X165173400Y-70548400D01*
X165173400Y-68796000D01*
X167325800Y-68796000D01*
X167325800Y-70548400D01*
X167325800Y-70548400D01*
G37*
G36*
X171325800Y-70548400D02*
X169173400Y-70548400D01*
X169173400Y-68796000D01*
X171325800Y-68796000D01*
X171325800Y-70548400D01*
X171325800Y-70548400D01*
G37*
G36*
X150046096Y-51982217D02*
X150605925Y-52214106D01*
X150605927Y-52214107D01*
X151109763Y-52550760D01*
X151538239Y-52979236D01*
X151874894Y-53483075D01*
X152106783Y-54042904D01*
X152225000Y-54637221D01*
X152225000Y-55243179D01*
X152106783Y-55837496D01*
X151874894Y-56397325D01*
X151874893Y-56397327D01*
X151538240Y-56901163D01*
X151109763Y-57329640D01*
X150605927Y-57666293D01*
X150605926Y-57666294D01*
X150605925Y-57666294D01*
X150046096Y-57898183D01*
X149451779Y-58016400D01*
X148845821Y-58016400D01*
X148251504Y-57898183D01*
X147691675Y-57666294D01*
X147691674Y-57666294D01*
X147691673Y-57666293D01*
X147187837Y-57329640D01*
X146759360Y-56901163D01*
X146422707Y-56397327D01*
X146422706Y-56397325D01*
X146190817Y-55837496D01*
X146072600Y-55243179D01*
X146072600Y-54637221D01*
X146190817Y-54042904D01*
X146422706Y-53483075D01*
X146759361Y-52979236D01*
X147187837Y-52550760D01*
X147691673Y-52214107D01*
X147691675Y-52214106D01*
X148251504Y-51982217D01*
X148845821Y-51864000D01*
X149451779Y-51864000D01*
X150046096Y-51982217D01*
X150046096Y-51982217D01*
G37*
M02*
