M48
;DRILL file {KiCad 6.0.0-rc1-unknown-7b10490~66~ubuntu16.04.1} date Wed 31 Oct 2018 12:07:29 PM MST
;FORMAT={-:-/ absolute / inch / decimal}
FMAT,2
INCH
T1C0.0130
T2C0.1969
%
G90
G05
M72
T1
X4.411Y-3.756
X4.588Y-4.084
X4.615Y-4.019
X4.6612Y-2.7769
X4.772Y-4.11
X4.7722Y-4.8353
X4.788Y-4.032
X5.404Y-3.502
X5.657Y-3.694
X5.695Y-3.219
X5.709Y-3.78
X5.777Y-2.335
X5.782Y-5.321
X5.839Y-3.709
X5.875Y-4.32
X5.928Y-3.063
X5.939Y-3.207
X5.958Y-3.59
X5.97Y-2.464
X6.016Y-4.32
X6.019Y-3.055
X6.019Y-3.108
X6.8552Y-4.9609
X6.9521Y-2.6702
X7.1037Y-4.05
T2
X5.872Y-2.163
T0
M30
