G04 #@! TF.GenerationSoftware,KiCad,Pcbnew,6.0.0-rc1-unknown-7b10490~66~ubuntu16.04.1*
G04 #@! TF.CreationDate,2018-10-31T12:07:25-07:00*
G04 #@! TF.ProjectId,HG_002,48475f30-3032-42e6-9b69-6361645f7063,rev?*
G04 #@! TF.SameCoordinates,Original*
G04 #@! TF.FileFunction,Paste,Top*
G04 #@! TF.FilePolarity,Positive*
%FSLAX46Y46*%
G04 Gerber Fmt 4.6, Leading zero omitted, Abs format (unit mm)*
G04 Created by KiCad (PCBNEW 6.0.0-rc1-unknown-7b10490~66~ubuntu16.04.1) date Wed 31 Oct 2018 12:07:25 PM MST*
%MOMM*%
%LPD*%
G01*
G04 APERTURE LIST*
%ADD10R,1.847600X1.547600*%
%ADD11C,1.247600*%
%ADD12C,0.100000*%
%ADD13R,1.647600X1.247600*%
%ADD14R,1.247600X1.647600*%
G04 APERTURE END LIST*
D10*
G04 #@! TO.C,On*
X176435000Y-102870000D03*
X180435000Y-102870000D03*
G04 #@! TD*
D11*
G04 #@! TO.C,LED1*
X177696376Y-73605242D03*
D12*
G36*
X176672768Y-73463821D02*
X177554955Y-72581634D01*
X178719984Y-73746663D01*
X177837797Y-74628850D01*
X176672768Y-73463821D01*
X176672768Y-73463821D01*
G37*
D11*
X180031242Y-71270376D03*
D12*
G36*
X179007634Y-71128955D02*
X179889821Y-70246768D01*
X181054850Y-71411797D01*
X180172663Y-72293984D01*
X179007634Y-71128955D01*
X179007634Y-71128955D01*
G37*
D11*
X176582824Y-67821958D03*
D12*
G36*
X175559216Y-67680537D02*
X176441403Y-66798350D01*
X177606432Y-67963379D01*
X176724245Y-68845566D01*
X175559216Y-67680537D01*
X175559216Y-67680537D01*
G37*
D11*
X174247958Y-70156824D03*
D12*
G36*
X173224350Y-70015403D02*
X174106537Y-69133216D01*
X175271566Y-70298245D01*
X174389379Y-71180432D01*
X173224350Y-70015403D01*
X173224350Y-70015403D01*
G37*
G04 #@! TD*
D13*
G04 #@! TO.C,LED2*
X146735800Y-62611000D03*
X146735800Y-59309000D03*
X151612600Y-59309000D03*
X151612600Y-62611000D03*
G04 #@! TD*
D11*
G04 #@! TO.C,LED3*
X120728224Y-72868642D03*
D12*
G36*
X120586803Y-73892250D02*
X119704616Y-73010063D01*
X120869645Y-71845034D01*
X121751832Y-72727221D01*
X120586803Y-73892250D01*
X120586803Y-73892250D01*
G37*
D11*
X118393358Y-70533776D03*
D12*
G36*
X118251937Y-71557384D02*
X117369750Y-70675197D01*
X118534779Y-69510168D01*
X119416966Y-70392355D01*
X118251937Y-71557384D01*
X118251937Y-71557384D01*
G37*
D11*
X121841776Y-67085358D03*
D12*
G36*
X121700355Y-68108966D02*
X120818168Y-67226779D01*
X121983197Y-66061750D01*
X122865384Y-66943937D01*
X121700355Y-68108966D01*
X121700355Y-68108966D01*
G37*
D11*
X124176642Y-69420224D03*
D12*
G36*
X124035221Y-70443832D02*
X123153034Y-69561645D01*
X124318063Y-68396616D01*
X125200250Y-69278803D01*
X124035221Y-70443832D01*
X124035221Y-70443832D01*
G37*
G04 #@! TD*
D14*
G04 #@! TO.C,LED4*
X108737400Y-95402400D03*
X112039400Y-95402400D03*
X112039400Y-100279200D03*
X108737400Y-100279200D03*
G04 #@! TD*
D11*
G04 #@! TO.C,LED5*
X122326400Y-128600200D03*
D12*
G36*
X121302792Y-128458779D02*
X122184979Y-127576592D01*
X123350008Y-128741621D01*
X122467821Y-129623808D01*
X121302792Y-128458779D01*
X121302792Y-128458779D01*
G37*
D11*
X124661266Y-126265334D03*
D12*
G36*
X123637658Y-126123913D02*
X124519845Y-125241726D01*
X125684874Y-126406755D01*
X124802687Y-127288942D01*
X123637658Y-126123913D01*
X123637658Y-126123913D01*
G37*
D11*
X121212848Y-122816916D03*
D12*
G36*
X120189240Y-122675495D02*
X121071427Y-121793308D01*
X122236456Y-122958337D01*
X121354269Y-123840524D01*
X120189240Y-122675495D01*
X120189240Y-122675495D01*
G37*
D11*
X118877982Y-125151782D03*
D12*
G36*
X117854374Y-125010361D02*
X118736561Y-124128174D01*
X119901590Y-125293203D01*
X119019403Y-126175390D01*
X117854374Y-125010361D01*
X117854374Y-125010361D01*
G37*
G04 #@! TD*
D13*
G04 #@! TO.C,LED6*
X146862800Y-138455400D03*
X146862800Y-135153400D03*
X151739600Y-135153400D03*
X151739600Y-138455400D03*
G04 #@! TD*
D11*
G04 #@! TO.C,LED7*
X179904242Y-124893824D03*
D12*
G36*
X179762821Y-125917432D02*
X178880634Y-125035245D01*
X180045663Y-123870216D01*
X180927850Y-124752403D01*
X179762821Y-125917432D01*
X179762821Y-125917432D01*
G37*
D11*
X177569376Y-122558958D03*
D12*
G36*
X177427955Y-123582566D02*
X176545768Y-122700379D01*
X177710797Y-121535350D01*
X178592984Y-122417537D01*
X177427955Y-123582566D01*
X177427955Y-123582566D01*
G37*
D11*
X174120958Y-126007376D03*
D12*
G36*
X173979537Y-127030984D02*
X173097350Y-126148797D01*
X174262379Y-124983768D01*
X175144566Y-125865955D01*
X173979537Y-127030984D01*
X173979537Y-127030984D01*
G37*
D11*
X176455824Y-128342242D03*
D12*
G36*
X176314403Y-129365850D02*
X175432216Y-128483663D01*
X176597245Y-127318634D01*
X177479432Y-128200821D01*
X176314403Y-129365850D01*
X176314403Y-129365850D01*
G37*
G04 #@! TD*
M02*
