G04 #@! TF.GenerationSoftware,KiCad,Pcbnew,6.0.0-rc1-unknown-7b10490~66~ubuntu16.04.1*
G04 #@! TF.CreationDate,2018-10-31T12:07:25-07:00*
G04 #@! TF.ProjectId,HG_002,48475f30-3032-42e6-9b69-6361645f7063,rev?*
G04 #@! TF.SameCoordinates,Original*
G04 #@! TF.FileFunction,Legend,Top*
G04 #@! TF.FilePolarity,Positive*
%FSLAX46Y46*%
G04 Gerber Fmt 4.6, Leading zero omitted, Abs format (unit mm)*
G04 Created by KiCad (PCBNEW 6.0.0-rc1-unknown-7b10490~66~ubuntu16.04.1) date Wed 31 Oct 2018 12:07:25 PM MST*
%MOMM*%
%LPD*%
G01*
G04 APERTURE LIST*
%ADD10C,0.120000*%
%ADD11C,0.050000*%
%ADD12C,0.152400*%
%ADD13C,0.100000*%
%ADD14C,0.150000*%
G04 APERTURE END LIST*
D10*
G04 #@! TO.C,On*
X175335000Y-101920000D02*
X175335000Y-103820000D01*
X175335000Y-103820000D02*
X180035000Y-103820000D01*
X175335000Y-101920000D02*
X180035000Y-101920000D01*
D11*
G04 #@! TO.C,LED1*
X178978078Y-73966291D02*
X177917417Y-75026951D01*
D12*
X175972167Y-68288931D02*
X174714931Y-69546167D01*
X177139600Y-74305702D02*
X173637300Y-70803403D01*
X177139600Y-67121498D02*
X180731702Y-70713600D01*
X179564269Y-71881033D02*
X178307033Y-73138269D01*
G04 #@! TO.C,LED2*
X151714200Y-60071000D02*
X151714200Y-61849000D01*
X146634200Y-58420000D02*
X151714200Y-58420000D01*
X151714200Y-63500000D02*
X146761200Y-63500000D01*
X146634200Y-60071000D02*
X146634200Y-61849000D01*
D11*
X152774200Y-61960000D02*
X152774200Y-63460000D01*
D12*
G04 #@! TO.C,LED3*
X122452433Y-67552331D02*
X123709669Y-68809567D01*
X117692898Y-69977000D02*
X121285000Y-66384898D01*
X124877102Y-69977000D02*
X121374803Y-73479300D01*
X118860331Y-71144433D02*
X120117567Y-72401669D01*
D11*
X124537691Y-68138522D02*
X125598351Y-69199183D01*
D12*
G04 #@! TO.C,LED4*
X111277400Y-100380800D02*
X109499400Y-100380800D01*
X112928400Y-95300800D02*
X112928400Y-100380800D01*
X107848400Y-100380800D02*
X107848400Y-95427800D01*
X111277400Y-95300800D02*
X109499400Y-95300800D01*
D11*
X109388400Y-101440800D02*
X107888400Y-101440800D01*
G04 #@! TO.C,LED5*
X123608102Y-128961249D02*
X122547441Y-130021909D01*
D12*
X120602191Y-123283889D02*
X119344955Y-124541125D01*
X121769624Y-129300660D02*
X118267324Y-125798361D01*
X121769624Y-122116456D02*
X125361726Y-125708558D01*
X124194293Y-126875991D02*
X122937057Y-128133227D01*
G04 #@! TO.C,LED6*
X151841200Y-135915400D02*
X151841200Y-137693400D01*
X146761200Y-134264400D02*
X151841200Y-134264400D01*
X151841200Y-139344400D02*
X146888200Y-139344400D01*
X146761200Y-135915400D02*
X146761200Y-137693400D01*
D11*
X152901200Y-137804400D02*
X152901200Y-139304400D01*
G04 #@! TO.C,LED7*
X180265291Y-123612122D02*
X181325951Y-124672783D01*
D12*
X174587931Y-126618033D02*
X175845167Y-127875269D01*
X180604702Y-125450600D02*
X177102403Y-128952900D01*
X173420498Y-125450600D02*
X177012600Y-121858498D01*
X178180033Y-123025931D02*
X179437269Y-124283167D01*
D13*
G04 #@! TO.C,svg2mod*
G36*
X148792460Y-50519130D02*
X150161738Y-51773940D01*
X151554316Y-51830540D01*
X152966426Y-51924240D01*
X154392207Y-52057060D01*
X155202754Y-52162520D01*
X156044551Y-52289480D01*
X156919551Y-52437920D01*
X157409785Y-52529720D01*
X157675410Y-53992610D01*
X158015254Y-55877380D01*
X158357051Y-57762140D01*
X158767207Y-60035580D01*
X159150019Y-60135180D01*
X160720332Y-60586350D01*
X162298457Y-61125420D01*
X163878535Y-61748460D01*
X165466426Y-62459400D01*
X166228144Y-62846120D01*
X166890254Y-63195730D01*
X167442988Y-63502370D01*
X167880488Y-63762130D01*
X168226191Y-63976980D01*
X170132441Y-62642990D01*
X170917598Y-62094160D01*
X171704707Y-61545340D01*
X172489863Y-60996510D01*
X173275019Y-60445730D01*
X174062129Y-59896900D01*
X174493769Y-59596120D01*
X175046504Y-59978930D01*
X175941035Y-60633230D01*
X176827754Y-61314870D01*
X177706660Y-62027760D01*
X178577754Y-62769950D01*
X179441035Y-63543380D01*
X180298457Y-64344160D01*
X180939082Y-64971120D01*
X181064116Y-65090840D01*
X181197986Y-65228040D01*
X181329702Y-65355880D01*
X181935171Y-65976980D01*
X182704702Y-66801200D01*
X183456655Y-67642990D01*
X184191030Y-68502370D01*
X184905874Y-69381270D01*
X185603139Y-70275810D01*
X186282827Y-71189870D01*
X186696889Y-71773850D01*
X186398061Y-72201590D01*
X185847280Y-72986740D01*
X185298452Y-73773850D01*
X184749624Y-74559010D01*
X184200796Y-75344160D01*
X183650014Y-76129320D01*
X183101186Y-76916430D01*
X182630483Y-77590260D01*
X181829702Y-78059010D01*
X180907827Y-78594160D01*
X179978139Y-79125420D01*
X179044546Y-79656660D01*
X178107046Y-80187920D01*
X177169546Y-80717210D01*
X176233999Y-81244560D01*
X175821889Y-81478930D01*
X175579702Y-81090260D01*
X175284780Y-80639090D01*
X174982046Y-80189870D01*
X174669546Y-79740650D01*
X174347280Y-79291430D01*
X174015249Y-78846120D01*
X173673452Y-78398850D01*
X173671452Y-78396850D01*
X173667552Y-78392850D01*
X173306223Y-77945590D01*
X173306223Y-77943590D01*
X172948802Y-77515860D01*
X172599192Y-77107660D01*
X172255442Y-76717030D01*
X171917552Y-76347890D01*
X171587473Y-75998280D01*
X171261302Y-75666250D01*
X170954661Y-75367420D01*
X170942941Y-75355720D01*
X170407785Y-74826430D01*
X169841379Y-74295180D01*
X168657785Y-73261970D01*
X167403879Y-72269790D01*
X166081613Y-71316660D01*
X166075713Y-71312660D01*
X166069813Y-71308660D01*
X164817860Y-70519600D01*
X163603016Y-69816470D01*
X162421376Y-69199280D01*
X161274891Y-68669990D01*
X161265091Y-68665990D01*
X161026809Y-68572290D01*
X160798294Y-68482490D01*
X160567825Y-68392590D01*
X160343216Y-68302790D01*
X160339316Y-68300790D01*
X158946738Y-67785160D01*
X157519004Y-67341800D01*
X156060020Y-66974610D01*
X154577598Y-66683600D01*
X153222129Y-66470710D01*
X151806113Y-66320320D01*
X150329551Y-66230520D01*
X148792442Y-66199320D01*
X147265098Y-66230520D01*
X145792442Y-66320320D01*
X144372520Y-66470710D01*
X143007285Y-66683600D01*
X141513145Y-66976570D01*
X140048301Y-67349610D01*
X138620566Y-67802740D01*
X137233848Y-68333990D01*
X137015098Y-68419890D01*
X136786582Y-68509690D01*
X136556113Y-68599490D01*
X136319785Y-68693190D01*
X136311985Y-68697190D01*
X135103000Y-69244070D01*
X133899875Y-69863210D01*
X132702610Y-70552660D01*
X131509250Y-71310470D01*
X131505350Y-71312470D01*
X131501450Y-71316470D01*
X130179184Y-72269600D01*
X128925278Y-73261780D01*
X127741684Y-74294990D01*
X126628403Y-75369210D01*
X125554184Y-76488350D01*
X124546372Y-77636780D01*
X123606919Y-78812570D01*
X122735825Y-80013740D01*
X121931137Y-81240300D01*
X121196762Y-82492250D01*
X120532700Y-83769600D01*
X119935044Y-85072330D01*
X119935044Y-85074330D01*
X119888174Y-85183710D01*
X119843254Y-85291130D01*
X119798334Y-85398550D01*
X119753414Y-85507930D01*
X119708494Y-85615350D01*
X119663574Y-85722770D01*
X119616704Y-85830190D01*
X119569834Y-85943470D01*
X119567834Y-85949470D01*
X119067834Y-87299080D01*
X118636194Y-88676040D01*
X118269006Y-90080330D01*
X117970178Y-91510020D01*
X117737756Y-92967050D01*
X117571740Y-94451430D01*
X117472130Y-95961190D01*
X117438930Y-97498300D01*
X117470180Y-99015880D01*
X117567840Y-100510020D01*
X117729950Y-101980720D01*
X117954559Y-103427990D01*
X118247528Y-104853770D01*
X118602996Y-106254160D01*
X119024871Y-107633070D01*
X119509246Y-108986580D01*
X119515146Y-108996580D01*
X119571786Y-109129390D01*
X119622566Y-109250490D01*
X119675296Y-109371580D01*
X119728026Y-109494630D01*
X119778806Y-109615720D01*
X119831536Y-109736810D01*
X119884266Y-109859860D01*
X119936996Y-109980950D01*
X119936996Y-109982950D01*
X120550277Y-111309120D01*
X121229965Y-112602090D01*
X121972152Y-113861850D01*
X122776839Y-115088420D01*
X123645980Y-116281770D01*
X124579574Y-117441930D01*
X125575668Y-118568880D01*
X126626449Y-119652870D01*
X127794418Y-120791540D01*
X129003402Y-121848180D01*
X130253402Y-122822790D01*
X131542465Y-123717320D01*
X132704574Y-124475130D01*
X133901839Y-125178260D01*
X135118636Y-125822790D01*
X136358871Y-126406770D01*
X136374501Y-126414770D01*
X136614735Y-126504570D01*
X136837391Y-126588570D01*
X137060048Y-126670570D01*
X137282704Y-126754570D01*
X138710438Y-127266290D01*
X140151844Y-127703790D01*
X141595204Y-128063170D01*
X143044423Y-128344410D01*
X144437001Y-128565120D01*
X145864735Y-128725270D01*
X147317860Y-128820970D01*
X148792470Y-128852170D01*
X150269032Y-128820970D01*
X151724110Y-128725270D01*
X153161610Y-128565120D01*
X154575673Y-128342460D01*
X156073720Y-128049490D01*
X157552235Y-127682310D01*
X159001454Y-127240900D01*
X160423329Y-126723320D01*
X160427229Y-126721320D01*
X160634260Y-126635420D01*
X160835432Y-126553420D01*
X161036604Y-126469420D01*
X161247542Y-126381520D01*
X161255342Y-126379520D01*
X162460420Y-125809210D01*
X163663545Y-125182260D01*
X164265108Y-124844360D01*
X164866670Y-124494760D01*
X165466280Y-124127570D01*
X166067842Y-123746710D01*
X166073742Y-123740710D01*
X166081542Y-123736710D01*
X166733886Y-123275780D01*
X167374511Y-122801170D01*
X168001464Y-122312890D01*
X168616698Y-121810930D01*
X169220214Y-121293350D01*
X169812011Y-120762100D01*
X170390136Y-120215230D01*
X170952636Y-119658590D01*
X172114745Y-118441790D01*
X173198730Y-117193740D01*
X174204589Y-115916400D01*
X175132323Y-114607810D01*
X175979980Y-113269920D01*
X176747558Y-111900780D01*
X177435058Y-110502340D01*
X178044433Y-109074600D01*
X178050333Y-109059000D01*
X178058133Y-109033600D01*
X178062033Y-109023600D01*
X178065933Y-109013600D01*
X178069833Y-109001900D01*
X178071833Y-108991900D01*
X178075733Y-108981900D01*
X178079633Y-108970200D01*
X178356977Y-108144030D01*
X176024945Y-108144030D01*
X174554242Y-108144030D01*
X173083539Y-108144030D01*
X171612836Y-108144030D01*
X170142133Y-108144030D01*
X168671430Y-108144030D01*
X167200727Y-108144030D01*
X166353070Y-108144030D01*
X166353070Y-107948710D01*
X166351070Y-106593240D01*
X166347170Y-104884260D01*
X166339370Y-103009260D01*
X166335470Y-101147930D01*
X166333470Y-100280740D01*
X166333470Y-99487780D01*
X166335470Y-98790510D01*
X166337470Y-98212390D01*
X166339470Y-98116690D01*
X167130486Y-98116690D01*
X168528924Y-98116690D01*
X169929314Y-98116690D01*
X171327752Y-98116690D01*
X172728142Y-98116690D01*
X174126580Y-98116690D01*
X175526970Y-98116690D01*
X176925408Y-98116690D01*
X178325799Y-98116690D01*
X179724236Y-98116690D01*
X181124627Y-98116690D01*
X182523064Y-98116690D01*
X183923455Y-98116690D01*
X185321892Y-98116690D01*
X186722283Y-98116690D01*
X187495720Y-98116690D01*
X187495720Y-98220210D01*
X187478140Y-98937010D01*
X187448840Y-99651850D01*
X187407820Y-100360830D01*
X187290632Y-101770990D01*
X187126570Y-103165520D01*
X186913679Y-104544430D01*
X186655867Y-105909660D01*
X186349226Y-107259270D01*
X185995710Y-108593250D01*
X185997710Y-108591250D01*
X185667632Y-109667420D01*
X185312163Y-110724060D01*
X184927397Y-111757270D01*
X184513335Y-112768990D01*
X184071928Y-113759220D01*
X183603178Y-114726020D01*
X183107085Y-115673280D01*
X182581694Y-116597110D01*
X182380522Y-116940860D01*
X183153960Y-118048280D01*
X183698882Y-118831490D01*
X184245756Y-119612740D01*
X184790678Y-120395940D01*
X185337553Y-121177190D01*
X185882475Y-121960390D01*
X186427397Y-122741640D01*
X186728178Y-123171330D01*
X186343413Y-123724060D01*
X185689116Y-124618600D01*
X185007475Y-125503360D01*
X184294585Y-126382270D01*
X183552397Y-127255310D01*
X182778960Y-128118600D01*
X181978178Y-128976020D01*
X181150053Y-129821720D01*
X180277006Y-130665470D01*
X179403960Y-131476020D01*
X178528960Y-132251410D01*
X177657866Y-132991640D01*
X176784819Y-133700630D01*
X175913725Y-134374460D01*
X175042632Y-135013130D01*
X174519194Y-135376410D01*
X174095366Y-135081490D01*
X173316069Y-134538520D01*
X172536772Y-133997500D01*
X171759428Y-133454530D01*
X170980132Y-132911560D01*
X170200835Y-132368600D01*
X169423491Y-131827580D01*
X168333647Y-131067810D01*
X167679350Y-131417420D01*
X167359038Y-131587350D01*
X167038725Y-131757270D01*
X166720366Y-131927190D01*
X166400053Y-132099060D01*
X166079741Y-132268990D01*
X165759428Y-132438910D01*
X165441069Y-132608830D01*
X164685210Y-132956490D01*
X163900053Y-133296330D01*
X162319975Y-133915470D01*
X160726225Y-134458440D01*
X159120756Y-134921330D01*
X158737944Y-135020930D01*
X158335600Y-137288510D01*
X158001616Y-139165460D01*
X157667632Y-141044370D01*
X157411772Y-142479910D01*
X156985991Y-142542410D01*
X156116850Y-142667410D01*
X155247710Y-142792410D01*
X154378569Y-142917410D01*
X152966460Y-143046320D01*
X151554350Y-143142020D01*
X150161772Y-143198620D01*
X148792632Y-143218120D01*
X147435210Y-143198620D01*
X147433210Y-143198620D01*
X146050398Y-143142020D01*
X144644148Y-143046320D01*
X143233992Y-142917410D01*
X142364851Y-142792410D01*
X141495710Y-142667410D01*
X140626570Y-142542410D01*
X140200789Y-142479910D01*
X139944929Y-141036550D01*
X139610945Y-139151790D01*
X139276960Y-137268980D01*
X138874617Y-134995540D01*
X138493757Y-134893980D01*
X136823836Y-134409600D01*
X135208601Y-133860770D01*
X133651960Y-133247490D01*
X132157820Y-132573660D01*
X132150020Y-132569660D01*
X131382442Y-132180990D01*
X130716427Y-131835280D01*
X130161739Y-131536450D01*
X129718380Y-131286450D01*
X129376583Y-131085280D01*
X127485958Y-132403640D01*
X126704708Y-132950520D01*
X125921505Y-133495440D01*
X125140255Y-134042310D01*
X124357052Y-134587240D01*
X123575802Y-135134110D01*
X123144161Y-135434890D01*
X122601192Y-135059890D01*
X121714473Y-134413410D01*
X120825802Y-133733720D01*
X119939083Y-133018880D01*
X119054317Y-132270830D01*
X118169552Y-131489580D01*
X117286739Y-130673170D01*
X116405880Y-129821610D01*
X115587520Y-128973950D01*
X114794552Y-128118490D01*
X114030880Y-127259110D01*
X113296505Y-126397780D01*
X112593380Y-125534500D01*
X111921505Y-124669270D01*
X111280880Y-123802080D01*
X110915645Y-123282550D01*
X111214473Y-122854810D01*
X111763302Y-122073560D01*
X112312130Y-121290360D01*
X112862911Y-120509110D01*
X113411739Y-119725910D01*
X113960567Y-118944660D01*
X114509395Y-118161450D01*
X115288692Y-117052080D01*
X115085567Y-116708330D01*
X114540645Y-115757160D01*
X114028927Y-114788410D01*
X113548458Y-113800130D01*
X113099239Y-112796220D01*
X112681270Y-111772780D01*
X112294552Y-110731770D01*
X111939083Y-109671220D01*
X111616817Y-108593090D01*
X111614817Y-108591090D01*
X111585517Y-108493490D01*
X111558177Y-108399790D01*
X111530837Y-108306090D01*
X111503497Y-108210390D01*
X111474197Y-108116690D01*
X111446857Y-108022990D01*
X111419517Y-107929290D01*
X111282798Y-107466400D01*
X109960532Y-107237890D01*
X109019126Y-107075780D01*
X108077720Y-106911710D01*
X107134361Y-106747650D01*
X106192955Y-106585540D01*
X105249595Y-106421480D01*
X104308189Y-106257420D01*
X103794517Y-106169520D01*
X103675377Y-105487880D01*
X103507408Y-104374600D01*
X103366783Y-103253500D01*
X103251548Y-102122640D01*
X103161704Y-100980060D01*
X103097251Y-99829670D01*
X103058188Y-98667560D01*
X103044516Y-97497640D01*
X103044516Y-97495640D01*
X103044516Y-97491640D01*
X103044516Y-97487640D01*
X103044516Y-97485640D01*
X103044516Y-97481640D01*
X103044516Y-97479640D01*
X103044516Y-97475640D01*
X103044516Y-97473640D01*
X103058188Y-96329110D01*
X103095297Y-95190440D01*
X103157797Y-94057630D01*
X103243734Y-92930680D01*
X103355063Y-91811540D01*
X103493734Y-90698250D01*
X103653891Y-89590830D01*
X103769125Y-88911140D01*
X104284750Y-88821340D01*
X105232016Y-88653370D01*
X106177328Y-88487360D01*
X107122641Y-88319390D01*
X108067952Y-88153370D01*
X109013266Y-87985400D01*
X109960531Y-87819390D01*
X111294516Y-87583060D01*
X111396077Y-87202200D01*
X111728109Y-86028370D01*
X112095297Y-84876030D01*
X112497641Y-83745170D01*
X112935141Y-82633840D01*
X113405843Y-81544000D01*
X113913656Y-80475640D01*
X114454671Y-79426810D01*
X115030843Y-78399470D01*
X115232015Y-78057670D01*
X114454671Y-76946340D01*
X113905843Y-76161180D01*
X113357015Y-75374080D01*
X112806234Y-74588920D01*
X112257406Y-73803760D01*
X111708577Y-73016650D01*
X111159749Y-72231500D01*
X110858968Y-71801810D01*
X111269124Y-71217820D01*
X111942952Y-70303760D01*
X112638266Y-69405320D01*
X113353108Y-68524470D01*
X114087483Y-67661180D01*
X114841390Y-66815480D01*
X115614827Y-65985400D01*
X116405843Y-65176810D01*
X116407843Y-65174810D01*
X116409843Y-65172810D01*
X117243827Y-64370080D01*
X118093437Y-63584920D01*
X118954765Y-62823200D01*
X119829765Y-62082970D01*
X120714530Y-61366170D01*
X121612968Y-60670860D01*
X122521171Y-59998990D01*
X123093437Y-59594690D01*
X123523124Y-59895470D01*
X124308280Y-60444300D01*
X125095390Y-60995080D01*
X125880546Y-61543910D01*
X126665702Y-62092730D01*
X127450859Y-62641560D01*
X129349297Y-63967730D01*
X129691094Y-63768520D01*
X130134453Y-63516560D01*
X130689140Y-63217730D01*
X131355156Y-62872030D01*
X132130547Y-62479450D01*
X133685234Y-61784140D01*
X135261406Y-61157190D01*
X136847344Y-60606410D01*
X138441094Y-60131800D01*
X138818047Y-60028280D01*
X139228203Y-57760700D01*
X139570000Y-55875940D01*
X139909844Y-53991170D01*
X140173515Y-52528280D01*
X140665703Y-52436480D01*
X141540703Y-52288040D01*
X142382500Y-52161080D01*
X143193047Y-52055620D01*
X144616875Y-51922800D01*
X146030937Y-51829100D01*
X147421562Y-51772500D01*
X148792656Y-51753000D01*
X148792598Y-51754440D01*
X150161738Y-51773940D01*
X148792460Y-50519130D01*
X147388163Y-50536730D01*
X145964334Y-50595330D01*
X144519022Y-50693030D01*
X143054178Y-50827800D01*
X143048278Y-50827800D01*
X143044378Y-50827800D01*
X142208440Y-50937170D01*
X141345159Y-51068030D01*
X140448675Y-51220370D01*
X139522893Y-51392250D01*
X139106878Y-51472350D01*
X138690862Y-53773130D01*
X138351018Y-55657890D01*
X138009221Y-57542660D01*
X137737737Y-59052430D01*
X136466253Y-59431330D01*
X134829534Y-59999690D01*
X133202581Y-60646180D01*
X131587346Y-61368830D01*
X131581446Y-61372830D01*
X131575546Y-61374830D01*
X130790389Y-61773270D01*
X130110702Y-62126790D01*
X129536483Y-62435380D01*
X129413436Y-62505680D01*
X128161483Y-61630680D01*
X127374374Y-61081850D01*
X126589217Y-60531070D01*
X125804061Y-59982240D01*
X125016952Y-59433420D01*
X124231796Y-58884590D01*
X123095077Y-58087710D01*
X122739608Y-58331850D01*
X121796249Y-58997870D01*
X120864608Y-59687320D01*
X119946639Y-60398260D01*
X119038436Y-61132630D01*
X118145858Y-61890450D01*
X117263046Y-62669740D01*
X116393905Y-63472480D01*
X115536483Y-64296700D01*
X115534483Y-64298700D01*
X115532483Y-64300700D01*
X114719983Y-65132730D01*
X113927014Y-65984300D01*
X113153577Y-66851480D01*
X112399670Y-67736250D01*
X111667249Y-68638590D01*
X110956311Y-69560470D01*
X110262952Y-70497970D01*
X109591077Y-71453050D01*
X109348889Y-71806560D01*
X110143811Y-72943280D01*
X110692639Y-73730390D01*
X111243420Y-74515550D01*
X111792249Y-75300700D01*
X112341077Y-76087810D01*
X112891858Y-76872970D01*
X113440686Y-77658120D01*
X113766858Y-78124920D01*
X113364514Y-78841720D01*
X112803967Y-79929610D01*
X112278577Y-81037030D01*
X111790295Y-82163980D01*
X111337170Y-83314380D01*
X110921155Y-84484300D01*
X110542249Y-85675700D01*
X110307873Y-86503830D01*
X109743420Y-86603430D01*
X108798108Y-86769440D01*
X107852795Y-86937410D01*
X106907483Y-87103430D01*
X105962171Y-87271400D01*
X105016858Y-87437410D01*
X104069593Y-87603430D01*
X102700452Y-87845610D01*
X102622327Y-88269440D01*
X102430921Y-89400300D01*
X102264905Y-90535070D01*
X102126233Y-91677650D01*
X102010999Y-92824130D01*
X101921155Y-93978430D01*
X101856702Y-95138580D01*
X101819593Y-96304600D01*
X101805921Y-97476470D01*
X101805921Y-97478470D01*
X101805921Y-97482470D01*
X101805921Y-97484470D01*
X101805921Y-97488470D01*
X101805921Y-97490470D01*
X101805921Y-97494470D01*
X101805921Y-97498470D01*
X101805921Y-97500470D01*
X101819593Y-98697740D01*
X101858656Y-99887190D01*
X101925062Y-101066880D01*
X102016859Y-102236800D01*
X102136000Y-103396960D01*
X102282484Y-104547350D01*
X102452406Y-105689930D01*
X102651625Y-106820780D01*
X102729750Y-107242660D01*
X104096937Y-107480940D01*
X105038343Y-107643050D01*
X105981703Y-107807110D01*
X106923109Y-107971170D01*
X107864515Y-108133280D01*
X108807874Y-108297350D01*
X109749281Y-108461410D01*
X110313734Y-108559110D01*
X110315734Y-108565110D01*
X110343074Y-108660810D01*
X110370414Y-108754510D01*
X110399714Y-108848210D01*
X110427054Y-108941910D01*
X110759085Y-110049330D01*
X111126273Y-111146990D01*
X111526663Y-112225110D01*
X111960257Y-113285660D01*
X112425101Y-114326670D01*
X112925101Y-115352060D01*
X113456351Y-116355970D01*
X113819632Y-116992690D01*
X113497367Y-117453630D01*
X112946585Y-118234880D01*
X112397757Y-119018080D01*
X111848929Y-119801280D01*
X111300272Y-120581630D01*
X110749491Y-121364840D01*
X110200663Y-122146090D01*
X109403788Y-123280850D01*
X109647928Y-123634370D01*
X110276834Y-124528900D01*
X110935038Y-125419520D01*
X111624491Y-126308200D01*
X112345194Y-127191010D01*
X113095194Y-128073820D01*
X113876444Y-128952730D01*
X114688944Y-129827730D01*
X115530741Y-130698820D01*
X115532741Y-130702820D01*
X115536641Y-130706820D01*
X116437032Y-131575960D01*
X117339375Y-132409950D01*
X118243672Y-133210730D01*
X119151875Y-133976350D01*
X120060079Y-134708780D01*
X120972188Y-135407990D01*
X121886251Y-136074010D01*
X122802266Y-136704870D01*
X123153829Y-136939250D01*
X124284688Y-136152140D01*
X125065938Y-135605260D01*
X125849141Y-135060340D01*
X126630391Y-134513460D01*
X127413594Y-133968540D01*
X128194844Y-133421670D01*
X129438985Y-132552530D01*
X129563985Y-132622830D01*
X130138204Y-132933380D01*
X130817891Y-133286890D01*
X131605001Y-133683380D01*
X131608901Y-133685380D01*
X131612801Y-133687380D01*
X133169442Y-134390510D01*
X134782723Y-135025270D01*
X136450692Y-135591680D01*
X137790535Y-135980350D01*
X138058113Y-137486210D01*
X138392098Y-139370980D01*
X138726082Y-141255740D01*
X139138192Y-143579960D01*
X140450692Y-143769410D01*
X141319832Y-143894410D01*
X142188973Y-144019410D01*
X143069832Y-144146370D01*
X143081552Y-144148370D01*
X144544443Y-144283130D01*
X145983896Y-144380830D01*
X147399911Y-144437430D01*
X148792490Y-144456930D01*
X150196786Y-144437430D01*
X151620614Y-144380830D01*
X153065927Y-144283130D01*
X154530771Y-144148370D01*
X154542491Y-144146370D01*
X155423350Y-144019410D01*
X156292491Y-143894410D01*
X157161631Y-143769410D01*
X158474131Y-143581910D01*
X158886241Y-141263550D01*
X159220225Y-139384650D01*
X159554209Y-137507690D01*
X159819834Y-136009650D01*
X161097178Y-135642460D01*
X162745615Y-135081910D01*
X164378428Y-134439340D01*
X165188975Y-134087770D01*
X165995615Y-133716680D01*
X166009285Y-133710680D01*
X166341317Y-133532940D01*
X166661629Y-133363020D01*
X166981942Y-133193100D01*
X167302254Y-133023180D01*
X167620613Y-132853260D01*
X167940926Y-132681380D01*
X168247567Y-132519270D01*
X168714363Y-132845440D01*
X169493660Y-133388410D01*
X170272957Y-133929430D01*
X171052254Y-134472400D01*
X171829598Y-135015370D01*
X172608895Y-135556380D01*
X173388192Y-136099350D01*
X174515145Y-136884510D01*
X174866707Y-136646230D01*
X175763192Y-136023180D01*
X176659676Y-135364980D01*
X177554207Y-134673570D01*
X178448739Y-133947010D01*
X179341317Y-133187240D01*
X180235848Y-132394270D01*
X181126473Y-131566150D01*
X182019051Y-130706770D01*
X182021051Y-130704770D01*
X182023051Y-130702770D01*
X182872661Y-129833630D01*
X183692973Y-128956670D01*
X184483989Y-128069950D01*
X185245707Y-127177380D01*
X185978129Y-126275030D01*
X186679301Y-125364880D01*
X187353129Y-124444950D01*
X187995707Y-123519170D01*
X188232036Y-123165660D01*
X187442973Y-122036750D01*
X186898051Y-121253550D01*
X186351176Y-120472300D01*
X185806254Y-119689100D01*
X185259379Y-118907840D01*
X184714457Y-118124640D01*
X184167583Y-117341440D01*
X183845317Y-116880500D01*
X184192973Y-116269170D01*
X184708598Y-115286750D01*
X185194926Y-114282840D01*
X185651957Y-113255500D01*
X186079692Y-112208630D01*
X186478129Y-111140270D01*
X186847270Y-110048470D01*
X187187114Y-108937140D01*
X187187114Y-108935140D01*
X187187114Y-108933140D01*
X187552348Y-107556180D01*
X187866801Y-106163600D01*
X188134379Y-104755400D01*
X188353129Y-103333530D01*
X188523051Y-101896030D01*
X188644145Y-100444850D01*
X188685165Y-99714390D01*
X188716415Y-98980010D01*
X188733995Y-98241730D01*
X188739895Y-97499540D01*
X188739895Y-96880400D01*
X186722317Y-96880400D01*
X185321926Y-96880400D01*
X183923489Y-96880400D01*
X182523098Y-96880400D01*
X181124661Y-96880400D01*
X179724270Y-96880400D01*
X178325833Y-96880400D01*
X176925442Y-96880400D01*
X175527004Y-96880400D01*
X174126614Y-96880400D01*
X172728176Y-96880400D01*
X171327786Y-96880400D01*
X169929348Y-96880400D01*
X168528958Y-96880400D01*
X167130520Y-96880400D01*
X165140286Y-96880400D01*
X165112946Y-97470240D01*
X165105146Y-97761260D01*
X165105146Y-97763260D01*
X165099246Y-98206620D01*
X165097246Y-98788650D01*
X165095246Y-99487870D01*
X165095246Y-100284750D01*
X165097246Y-101151940D01*
X165103146Y-103015220D01*
X165109046Y-104892170D01*
X165114946Y-106597250D01*
X165116946Y-107948810D01*
X165113046Y-108755450D01*
X165103246Y-109384360D01*
X167200903Y-109384360D01*
X168671606Y-109384360D01*
X170142309Y-109384360D01*
X171613012Y-109384360D01*
X173083715Y-109384360D01*
X174554418Y-109384360D01*
X176025121Y-109384360D01*
X176568090Y-109384360D01*
X176310278Y-109987870D01*
X175652074Y-111325760D01*
X174915746Y-112636310D01*
X174103246Y-113919510D01*
X173212621Y-115177330D01*
X172245824Y-116405840D01*
X171200903Y-117608970D01*
X170077856Y-118784750D01*
X170075856Y-118786750D01*
X170073856Y-118786750D01*
X169528934Y-119327770D01*
X168972293Y-119853160D01*
X168403934Y-120364880D01*
X167823856Y-120862920D01*
X167230106Y-121347300D01*
X166624637Y-121818000D01*
X166009402Y-122275030D01*
X165380496Y-122718390D01*
X164812137Y-123077770D01*
X164232059Y-123431280D01*
X163650027Y-123771130D01*
X163069949Y-124097300D01*
X161909793Y-124702770D01*
X160749637Y-125249640D01*
X160564090Y-125325840D01*
X160362918Y-125409840D01*
X160161746Y-125491840D01*
X159968387Y-125571940D01*
X159966387Y-125571940D01*
X159958587Y-125575940D01*
X158608978Y-126066180D01*
X157222259Y-126490010D01*
X155806243Y-126843520D01*
X154362884Y-127124770D01*
X154358984Y-127124770D01*
X154355084Y-127124770D01*
X152995708Y-127339620D01*
X151616802Y-127491960D01*
X150214458Y-127583760D01*
X148792584Y-127614960D01*
X147370708Y-127585660D01*
X145974224Y-127491960D01*
X144603130Y-127339620D01*
X143257427Y-127124770D01*
X143253527Y-127124770D01*
X143247627Y-127122770D01*
X141862861Y-126855190D01*
X140480049Y-126511440D01*
X139101142Y-126093470D01*
X137722236Y-125599330D01*
X137720236Y-125597330D01*
X137493673Y-125513330D01*
X137271017Y-125429330D01*
X137048361Y-125345330D01*
X136860861Y-125276930D01*
X136853061Y-125272930D01*
X135673374Y-124716290D01*
X134505405Y-124099100D01*
X133356968Y-123423320D01*
X132230015Y-122688950D01*
X132224115Y-122684950D01*
X132218215Y-122680950D01*
X130987746Y-121827440D01*
X129792434Y-120893840D01*
X128634230Y-119882120D01*
X127511184Y-118790330D01*
X127507284Y-118786330D01*
X127503384Y-118782330D01*
X126483853Y-117727650D01*
X125524868Y-116645620D01*
X124630337Y-115530380D01*
X123794400Y-114383900D01*
X123022915Y-113208120D01*
X122311978Y-112001090D01*
X121661587Y-110760850D01*
X121073697Y-109493270D01*
X121071697Y-109491270D01*
X121020917Y-109372130D01*
X120970137Y-109251040D01*
X120917407Y-109127990D01*
X120864677Y-109006890D01*
X120813897Y-108885800D01*
X120761167Y-108762750D01*
X120708437Y-108641660D01*
X120665467Y-108540100D01*
X120198671Y-107243220D01*
X119794374Y-105920960D01*
X119452577Y-104577210D01*
X119173280Y-103210020D01*
X118956483Y-101817440D01*
X118800233Y-100401430D01*
X118706483Y-98961970D01*
X118675233Y-97499080D01*
X118708433Y-96016660D01*
X118804133Y-94561580D01*
X118964289Y-93135800D01*
X119186946Y-91735410D01*
X119474055Y-90364320D01*
X119825618Y-89018610D01*
X120239680Y-87700250D01*
X120714289Y-86419000D01*
X120718189Y-86407300D01*
X120759209Y-86309600D01*
X120804129Y-86202180D01*
X120849049Y-86094750D01*
X120893969Y-85987330D01*
X120940839Y-85879910D01*
X120985759Y-85770540D01*
X121030679Y-85663110D01*
X121073649Y-85559600D01*
X121075649Y-85555600D01*
X121644008Y-84313420D01*
X122280727Y-83092710D01*
X122983852Y-81893490D01*
X123753383Y-80717710D01*
X124591274Y-79563420D01*
X125495570Y-78434510D01*
X126468227Y-77327090D01*
X127507289Y-76241150D01*
X127507289Y-76239150D01*
X127509289Y-76239150D01*
X128579602Y-75207900D01*
X129718274Y-74213760D01*
X130925305Y-73256720D01*
X132204602Y-72336800D01*
X133343274Y-71612190D01*
X134491711Y-70952040D01*
X135642102Y-70360240D01*
X136780774Y-69842660D01*
X136786674Y-69840660D01*
X136794474Y-69836660D01*
X137009317Y-69752660D01*
X137239786Y-69662760D01*
X137468302Y-69572960D01*
X137704630Y-69479260D01*
X137710530Y-69477260D01*
X139030843Y-68971400D01*
X140388265Y-68541710D01*
X141784749Y-68184290D01*
X143220296Y-67903040D01*
X143224196Y-67903040D01*
X143228096Y-67901040D01*
X144532784Y-67699860D01*
X145894112Y-67555330D01*
X147314034Y-67467430D01*
X148792550Y-67438130D01*
X150278878Y-67467430D01*
X151702706Y-67555330D01*
X153062081Y-67699860D01*
X154355050Y-67901040D01*
X154358950Y-67903040D01*
X154362850Y-67903040D01*
X155788631Y-68184290D01*
X157185116Y-68535850D01*
X158548397Y-68957730D01*
X159882381Y-69451870D01*
X159884381Y-69453870D01*
X160114850Y-69543670D01*
X160345319Y-69635470D01*
X160573835Y-69725270D01*
X160804303Y-69815170D01*
X161874616Y-70311260D01*
X163005475Y-70901110D01*
X164177350Y-71578840D01*
X165392194Y-72344460D01*
X166657819Y-73256570D01*
X167866803Y-74215560D01*
X169005475Y-75207750D01*
X169548444Y-75719460D01*
X170073835Y-76239000D01*
X170081635Y-76245000D01*
X170087535Y-76251000D01*
X170388317Y-76543960D01*
X170694957Y-76858420D01*
X171011364Y-77190450D01*
X171333629Y-77545920D01*
X171663707Y-77920920D01*
X172003551Y-78315450D01*
X172349254Y-78731460D01*
X172700817Y-79167010D01*
X172696917Y-79159010D01*
X173026995Y-79590650D01*
X173347308Y-80022290D01*
X173659808Y-80455880D01*
X173960589Y-80889480D01*
X174253558Y-81323070D01*
X174534808Y-81756660D01*
X174536808Y-81756660D01*
X174808292Y-82192210D01*
X175071964Y-82627760D01*
X175382511Y-83149240D01*
X175909855Y-82850410D01*
X176841496Y-82323070D01*
X177778996Y-81795730D01*
X178716496Y-81266430D01*
X179655949Y-80735180D01*
X180591496Y-80201980D01*
X181525089Y-79666820D01*
X182452824Y-79129710D01*
X183374699Y-78588700D01*
X183489933Y-78522300D01*
X184116886Y-77625820D01*
X184665714Y-76840660D01*
X185214542Y-76053550D01*
X185763371Y-75268390D01*
X186314152Y-74483240D01*
X186862980Y-73696130D01*
X187411808Y-72910970D01*
X188208683Y-71772300D01*
X187962589Y-71418780D01*
X187284855Y-70463710D01*
X186589542Y-69526210D01*
X185874699Y-68610190D01*
X185140324Y-67709800D01*
X184388371Y-66828940D01*
X183618839Y-65965660D01*
X183048527Y-65356280D01*
X183079777Y-65356280D01*
X182185246Y-64461750D01*
X182023136Y-64295740D01*
X180915714Y-63190270D01*
X180917714Y-63227370D01*
X180277088Y-62629710D01*
X179390370Y-61838700D01*
X178497792Y-61076980D01*
X177595448Y-60344550D01*
X176685292Y-59643380D01*
X175765370Y-58971510D01*
X174839588Y-58326980D01*
X174486073Y-58090650D01*
X173351307Y-58883620D01*
X172566151Y-59432450D01*
X171780995Y-59981270D01*
X170995838Y-60530100D01*
X170208729Y-61080880D01*
X169423573Y-61629710D01*
X168177479Y-62498850D01*
X168056385Y-62426550D01*
X167478260Y-62106230D01*
X166796620Y-61746860D01*
X166007557Y-61346470D01*
X166001657Y-61344470D01*
X165995757Y-61340470D01*
X164359039Y-60608050D01*
X162724273Y-59963520D01*
X161093414Y-59406870D01*
X159847320Y-59049450D01*
X159573883Y-57541640D01*
X159234039Y-55656870D01*
X158892242Y-53772110D01*
X158476226Y-51471330D01*
X158060211Y-51391230D01*
X157134429Y-51219350D01*
X156239898Y-51067010D01*
X155374664Y-50936150D01*
X154540679Y-50826780D01*
X154534779Y-50826780D01*
X154530879Y-50826780D01*
X153066035Y-50692010D01*
X151620722Y-50594310D01*
X150196894Y-50535710D01*
X148792598Y-50518110D01*
X148792460Y-50519130D01*
X148792460Y-50519130D01*
G37*
G04 #@! TO.C,On*
D14*
X177887380Y-100472380D02*
X178077857Y-100472380D01*
X178173095Y-100520000D01*
X178268333Y-100615238D01*
X178315952Y-100805714D01*
X178315952Y-101139047D01*
X178268333Y-101329523D01*
X178173095Y-101424761D01*
X178077857Y-101472380D01*
X177887380Y-101472380D01*
X177792142Y-101424761D01*
X177696904Y-101329523D01*
X177649285Y-101139047D01*
X177649285Y-100805714D01*
X177696904Y-100615238D01*
X177792142Y-100520000D01*
X177887380Y-100472380D01*
X178744523Y-100805714D02*
X178744523Y-101472380D01*
X178744523Y-100900952D02*
X178792142Y-100853333D01*
X178887380Y-100805714D01*
X179030238Y-100805714D01*
X179125476Y-100853333D01*
X179173095Y-100948571D01*
X179173095Y-101472380D01*
G04 #@! TD*
M02*
