M48
; DRILL file {KiCad 5.1.4-e60b266~84~ubuntu18.04.1} date lun 26 ago 2019 09:48:30 MDT
; FORMAT={-:-/ absolute / inch / decimal}
; #@! TF.CreationDate,2019-08-26T09:48:30-06:00
; #@! TF.GenerationSoftware,Kicad,Pcbnew,5.1.4-e60b266~84~ubuntu18.04.1
; #@! TF.FileFunction,NonPlated,1,4,NPTH
FMAT,2
INCH
T1C0.0400
T2C0.0650
%
G90
G05
T1
X5.1304Y-3.684
X5.2304Y-3.684
X5.3304Y-3.684
X5.4304Y-3.684
X5.5304Y-3.684
X5.6304Y-3.684
X5.7304Y-3.684
X5.8304Y-3.684
X5.9304Y-3.684
X6.0304Y-3.684
X6.1304Y-3.684
X6.2304Y-3.684
X6.3304Y-3.684
X6.4304Y-3.684
X6.5304Y-3.684
X5.1304Y-4.384
X5.2304Y-4.384
X5.3304Y-4.384
X5.4304Y-4.384
X5.5304Y-4.384
X5.6304Y-4.384
X5.7304Y-4.384
X5.8304Y-4.384
X5.9304Y-4.384
X6.0304Y-4.384
X6.1304Y-4.384
X6.2304Y-4.384
X6.3304Y-4.384
X6.4304Y-4.384
X6.5304Y-4.384
T2
X6.6304Y-4.334
X6.6304Y-3.734
X5.0304Y-3.734
X5.0304Y-4.334
T0
M30
