G04 #@! TF.GenerationSoftware,KiCad,Pcbnew,5.1.4-e60b266~84~ubuntu18.04.1*
G04 #@! TF.CreationDate,2019-08-26T09:48:33-06:00*
G04 #@! TF.ProjectId,NANO33IoTV2.0,4e414e4f-3333-4496-9f54-56322e302e6b,rev?*
G04 #@! TF.SameCoordinates,Original*
G04 #@! TF.FileFunction,Soldermask,Top*
G04 #@! TF.FilePolarity,Negative*
%FSLAX46Y46*%
G04 Gerber Fmt 4.6, Leading zero omitted, Abs format (unit mm)*
G04 Created by KiCad (PCBNEW 5.1.4-e60b266~84~ubuntu18.04.1) date 2019-08-26 09:48:33*
%MOMM*%
%LPD*%
G04 APERTURE LIST*
%ADD10C,0.100000*%
G04 APERTURE END LIST*
D10*
G36*
X143263003Y-109253187D02*
G01*
X143420168Y-109318287D01*
X143561613Y-109412798D01*
X143681902Y-109533087D01*
X143776413Y-109674532D01*
X143841513Y-109831697D01*
X143874700Y-109998543D01*
X143874700Y-110168657D01*
X143841513Y-110335503D01*
X143776413Y-110492668D01*
X143681902Y-110634113D01*
X143561613Y-110754402D01*
X143472948Y-110813647D01*
X143454010Y-110829188D01*
X143438464Y-110848130D01*
X143426913Y-110869741D01*
X143419800Y-110893189D01*
X143417398Y-110917576D01*
X143419800Y-110941962D01*
X143426913Y-110965411D01*
X143438464Y-110987021D01*
X143445304Y-110997258D01*
X143506480Y-111088814D01*
X143527549Y-111139680D01*
X143548620Y-111190549D01*
X143570100Y-111298541D01*
X143570100Y-111408659D01*
X143548620Y-111516651D01*
X143527549Y-111567520D01*
X143506480Y-111618386D01*
X143445304Y-111709942D01*
X143367442Y-111787804D01*
X143275886Y-111848980D01*
X143225020Y-111870049D01*
X143174151Y-111891120D01*
X143066159Y-111912600D01*
X142956041Y-111912600D01*
X142848049Y-111891120D01*
X142797180Y-111870049D01*
X142746314Y-111848980D01*
X142654758Y-111787804D01*
X142576896Y-111709942D01*
X142515720Y-111618386D01*
X142494651Y-111567520D01*
X142473580Y-111516651D01*
X142452100Y-111408659D01*
X142452100Y-111298541D01*
X142473580Y-111190549D01*
X142494651Y-111139680D01*
X142515720Y-111088814D01*
X142576896Y-110997258D01*
X142583736Y-110987021D01*
X142595287Y-110965411D01*
X142602400Y-110941962D01*
X142604802Y-110917576D01*
X142602400Y-110893190D01*
X142595287Y-110869741D01*
X142583736Y-110848130D01*
X142568190Y-110829188D01*
X142549252Y-110813647D01*
X142460587Y-110754402D01*
X142340298Y-110634113D01*
X142245787Y-110492668D01*
X142180687Y-110335503D01*
X142147500Y-110168657D01*
X142147500Y-109998543D01*
X142180687Y-109831697D01*
X142245787Y-109674532D01*
X142340298Y-109533087D01*
X142460587Y-109412798D01*
X142602032Y-109318287D01*
X142759197Y-109253187D01*
X142926043Y-109220000D01*
X143096157Y-109220000D01*
X143263003Y-109253187D01*
X143263003Y-109253187D01*
G37*
G36*
X163583003Y-109253187D02*
G01*
X163740168Y-109318287D01*
X163881613Y-109412798D01*
X164001902Y-109533087D01*
X164096413Y-109674532D01*
X164161513Y-109831697D01*
X164194700Y-109998543D01*
X164194700Y-110168657D01*
X164161513Y-110335503D01*
X164096413Y-110492668D01*
X164001902Y-110634113D01*
X163881613Y-110754402D01*
X163792948Y-110813647D01*
X163774010Y-110829188D01*
X163758464Y-110848130D01*
X163746913Y-110869741D01*
X163739800Y-110893189D01*
X163737398Y-110917576D01*
X163739800Y-110941962D01*
X163746913Y-110965411D01*
X163758464Y-110987021D01*
X163765304Y-110997258D01*
X163826480Y-111088814D01*
X163847549Y-111139680D01*
X163868620Y-111190549D01*
X163890100Y-111298541D01*
X163890100Y-111408659D01*
X163868620Y-111516651D01*
X163847549Y-111567520D01*
X163826480Y-111618386D01*
X163765304Y-111709942D01*
X163687442Y-111787804D01*
X163595886Y-111848980D01*
X163545020Y-111870049D01*
X163494151Y-111891120D01*
X163386159Y-111912600D01*
X163276041Y-111912600D01*
X163168049Y-111891120D01*
X163117180Y-111870049D01*
X163066314Y-111848980D01*
X162974758Y-111787804D01*
X162896896Y-111709942D01*
X162835720Y-111618386D01*
X162814651Y-111567520D01*
X162793580Y-111516651D01*
X162772100Y-111408659D01*
X162772100Y-111298541D01*
X162793580Y-111190549D01*
X162814651Y-111139680D01*
X162835720Y-111088814D01*
X162896896Y-110997258D01*
X162903736Y-110987021D01*
X162915287Y-110965411D01*
X162922400Y-110941962D01*
X162924802Y-110917576D01*
X162922400Y-110893190D01*
X162915287Y-110869741D01*
X162903736Y-110848130D01*
X162888190Y-110829188D01*
X162869252Y-110813647D01*
X162780587Y-110754402D01*
X162660298Y-110634113D01*
X162565787Y-110492668D01*
X162500687Y-110335503D01*
X162467500Y-110168657D01*
X162467500Y-109998543D01*
X162500687Y-109831697D01*
X162565787Y-109674532D01*
X162660298Y-109533087D01*
X162780587Y-109412798D01*
X162922032Y-109318287D01*
X163079197Y-109253187D01*
X163246043Y-109220000D01*
X163416157Y-109220000D01*
X163583003Y-109253187D01*
X163583003Y-109253187D01*
G37*
G36*
X130563003Y-109253187D02*
G01*
X130720168Y-109318287D01*
X130861613Y-109412798D01*
X130981902Y-109533087D01*
X131076413Y-109674532D01*
X131141513Y-109831697D01*
X131174700Y-109998543D01*
X131174700Y-110168657D01*
X131141513Y-110335503D01*
X131076413Y-110492668D01*
X130981902Y-110634113D01*
X130861613Y-110754402D01*
X130772948Y-110813647D01*
X130754010Y-110829188D01*
X130738464Y-110848130D01*
X130726913Y-110869741D01*
X130719800Y-110893189D01*
X130717398Y-110917576D01*
X130719800Y-110941962D01*
X130726913Y-110965411D01*
X130738464Y-110987021D01*
X130745304Y-110997258D01*
X130806480Y-111088814D01*
X130827549Y-111139680D01*
X130848620Y-111190549D01*
X130870100Y-111298541D01*
X130870100Y-111408659D01*
X130848620Y-111516651D01*
X130827549Y-111567520D01*
X130806480Y-111618386D01*
X130745304Y-111709942D01*
X130667442Y-111787804D01*
X130575886Y-111848980D01*
X130525020Y-111870049D01*
X130474151Y-111891120D01*
X130366159Y-111912600D01*
X130256041Y-111912600D01*
X130148049Y-111891120D01*
X130097180Y-111870049D01*
X130046314Y-111848980D01*
X129954758Y-111787804D01*
X129876896Y-111709942D01*
X129815720Y-111618386D01*
X129794651Y-111567520D01*
X129773580Y-111516651D01*
X129752100Y-111408659D01*
X129752100Y-111298541D01*
X129773580Y-111190549D01*
X129794651Y-111139680D01*
X129815720Y-111088814D01*
X129876896Y-110997258D01*
X129883736Y-110987021D01*
X129895287Y-110965411D01*
X129902400Y-110941962D01*
X129904802Y-110917576D01*
X129902400Y-110893190D01*
X129895287Y-110869741D01*
X129883736Y-110848130D01*
X129868190Y-110829188D01*
X129849252Y-110813647D01*
X129760587Y-110754402D01*
X129640298Y-110634113D01*
X129545787Y-110492668D01*
X129480687Y-110335503D01*
X129447500Y-110168657D01*
X129447500Y-109998543D01*
X129480687Y-109831697D01*
X129545787Y-109674532D01*
X129640298Y-109533087D01*
X129760587Y-109412798D01*
X129902032Y-109318287D01*
X130059197Y-109253187D01*
X130226043Y-109220000D01*
X130396157Y-109220000D01*
X130563003Y-109253187D01*
X130563003Y-109253187D01*
G37*
G36*
X133103003Y-109253187D02*
G01*
X133260168Y-109318287D01*
X133401613Y-109412798D01*
X133521902Y-109533087D01*
X133616413Y-109674532D01*
X133681513Y-109831697D01*
X133714700Y-109998543D01*
X133714700Y-110168657D01*
X133681513Y-110335503D01*
X133616413Y-110492668D01*
X133521902Y-110634113D01*
X133401613Y-110754402D01*
X133312948Y-110813647D01*
X133294010Y-110829188D01*
X133278464Y-110848130D01*
X133266913Y-110869741D01*
X133259800Y-110893189D01*
X133257398Y-110917576D01*
X133259800Y-110941962D01*
X133266913Y-110965411D01*
X133278464Y-110987021D01*
X133285304Y-110997258D01*
X133346480Y-111088814D01*
X133367549Y-111139680D01*
X133388620Y-111190549D01*
X133410100Y-111298541D01*
X133410100Y-111408659D01*
X133388620Y-111516651D01*
X133367549Y-111567520D01*
X133346480Y-111618386D01*
X133285304Y-111709942D01*
X133207442Y-111787804D01*
X133115886Y-111848980D01*
X133065020Y-111870049D01*
X133014151Y-111891120D01*
X132906159Y-111912600D01*
X132796041Y-111912600D01*
X132688049Y-111891120D01*
X132637180Y-111870049D01*
X132586314Y-111848980D01*
X132494758Y-111787804D01*
X132416896Y-111709942D01*
X132355720Y-111618386D01*
X132334651Y-111567520D01*
X132313580Y-111516651D01*
X132292100Y-111408659D01*
X132292100Y-111298541D01*
X132313580Y-111190549D01*
X132334651Y-111139680D01*
X132355720Y-111088814D01*
X132416896Y-110997258D01*
X132423736Y-110987021D01*
X132435287Y-110965411D01*
X132442400Y-110941962D01*
X132444802Y-110917576D01*
X132442400Y-110893190D01*
X132435287Y-110869741D01*
X132423736Y-110848130D01*
X132408190Y-110829188D01*
X132389252Y-110813647D01*
X132300587Y-110754402D01*
X132180298Y-110634113D01*
X132085787Y-110492668D01*
X132020687Y-110335503D01*
X131987500Y-110168657D01*
X131987500Y-109998543D01*
X132020687Y-109831697D01*
X132085787Y-109674532D01*
X132180298Y-109533087D01*
X132300587Y-109412798D01*
X132442032Y-109318287D01*
X132599197Y-109253187D01*
X132766043Y-109220000D01*
X132936157Y-109220000D01*
X133103003Y-109253187D01*
X133103003Y-109253187D01*
G37*
G36*
X135643003Y-109253187D02*
G01*
X135800168Y-109318287D01*
X135941613Y-109412798D01*
X136061902Y-109533087D01*
X136156413Y-109674532D01*
X136221513Y-109831697D01*
X136254700Y-109998543D01*
X136254700Y-110168657D01*
X136221513Y-110335503D01*
X136156413Y-110492668D01*
X136061902Y-110634113D01*
X135941613Y-110754402D01*
X135852948Y-110813647D01*
X135834010Y-110829188D01*
X135818464Y-110848130D01*
X135806913Y-110869741D01*
X135799800Y-110893189D01*
X135797398Y-110917576D01*
X135799800Y-110941962D01*
X135806913Y-110965411D01*
X135818464Y-110987021D01*
X135825304Y-110997258D01*
X135886480Y-111088814D01*
X135907549Y-111139680D01*
X135928620Y-111190549D01*
X135950100Y-111298541D01*
X135950100Y-111408659D01*
X135928620Y-111516651D01*
X135907549Y-111567520D01*
X135886480Y-111618386D01*
X135825304Y-111709942D01*
X135747442Y-111787804D01*
X135655886Y-111848980D01*
X135605020Y-111870049D01*
X135554151Y-111891120D01*
X135446159Y-111912600D01*
X135336041Y-111912600D01*
X135228049Y-111891120D01*
X135177180Y-111870049D01*
X135126314Y-111848980D01*
X135034758Y-111787804D01*
X134956896Y-111709942D01*
X134895720Y-111618386D01*
X134874651Y-111567520D01*
X134853580Y-111516651D01*
X134832100Y-111408659D01*
X134832100Y-111298541D01*
X134853580Y-111190549D01*
X134874651Y-111139680D01*
X134895720Y-111088814D01*
X134956896Y-110997258D01*
X134963736Y-110987021D01*
X134975287Y-110965411D01*
X134982400Y-110941962D01*
X134984802Y-110917576D01*
X134982400Y-110893190D01*
X134975287Y-110869741D01*
X134963736Y-110848130D01*
X134948190Y-110829188D01*
X134929252Y-110813647D01*
X134840587Y-110754402D01*
X134720298Y-110634113D01*
X134625787Y-110492668D01*
X134560687Y-110335503D01*
X134527500Y-110168657D01*
X134527500Y-109998543D01*
X134560687Y-109831697D01*
X134625787Y-109674532D01*
X134720298Y-109533087D01*
X134840587Y-109412798D01*
X134982032Y-109318287D01*
X135139197Y-109253187D01*
X135306043Y-109220000D01*
X135476157Y-109220000D01*
X135643003Y-109253187D01*
X135643003Y-109253187D01*
G37*
G36*
X138183003Y-109253187D02*
G01*
X138340168Y-109318287D01*
X138481613Y-109412798D01*
X138601902Y-109533087D01*
X138696413Y-109674532D01*
X138761513Y-109831697D01*
X138794700Y-109998543D01*
X138794700Y-110168657D01*
X138761513Y-110335503D01*
X138696413Y-110492668D01*
X138601902Y-110634113D01*
X138481613Y-110754402D01*
X138392948Y-110813647D01*
X138374010Y-110829188D01*
X138358464Y-110848130D01*
X138346913Y-110869741D01*
X138339800Y-110893189D01*
X138337398Y-110917576D01*
X138339800Y-110941962D01*
X138346913Y-110965411D01*
X138358464Y-110987021D01*
X138365304Y-110997258D01*
X138426480Y-111088814D01*
X138447549Y-111139680D01*
X138468620Y-111190549D01*
X138490100Y-111298541D01*
X138490100Y-111408659D01*
X138468620Y-111516651D01*
X138447549Y-111567520D01*
X138426480Y-111618386D01*
X138365304Y-111709942D01*
X138287442Y-111787804D01*
X138195886Y-111848980D01*
X138145020Y-111870049D01*
X138094151Y-111891120D01*
X137986159Y-111912600D01*
X137876041Y-111912600D01*
X137768049Y-111891120D01*
X137717180Y-111870049D01*
X137666314Y-111848980D01*
X137574758Y-111787804D01*
X137496896Y-111709942D01*
X137435720Y-111618386D01*
X137414651Y-111567520D01*
X137393580Y-111516651D01*
X137372100Y-111408659D01*
X137372100Y-111298541D01*
X137393580Y-111190549D01*
X137414651Y-111139680D01*
X137435720Y-111088814D01*
X137496896Y-110997258D01*
X137503736Y-110987021D01*
X137515287Y-110965411D01*
X137522400Y-110941962D01*
X137524802Y-110917576D01*
X137522400Y-110893190D01*
X137515287Y-110869741D01*
X137503736Y-110848130D01*
X137488190Y-110829188D01*
X137469252Y-110813647D01*
X137380587Y-110754402D01*
X137260298Y-110634113D01*
X137165787Y-110492668D01*
X137100687Y-110335503D01*
X137067500Y-110168657D01*
X137067500Y-109998543D01*
X137100687Y-109831697D01*
X137165787Y-109674532D01*
X137260298Y-109533087D01*
X137380587Y-109412798D01*
X137522032Y-109318287D01*
X137679197Y-109253187D01*
X137846043Y-109220000D01*
X138016157Y-109220000D01*
X138183003Y-109253187D01*
X138183003Y-109253187D01*
G37*
G36*
X140723003Y-109253187D02*
G01*
X140880168Y-109318287D01*
X141021613Y-109412798D01*
X141141902Y-109533087D01*
X141236413Y-109674532D01*
X141301513Y-109831697D01*
X141334700Y-109998543D01*
X141334700Y-110168657D01*
X141301513Y-110335503D01*
X141236413Y-110492668D01*
X141141902Y-110634113D01*
X141021613Y-110754402D01*
X140932948Y-110813647D01*
X140914010Y-110829188D01*
X140898464Y-110848130D01*
X140886913Y-110869741D01*
X140879800Y-110893189D01*
X140877398Y-110917576D01*
X140879800Y-110941962D01*
X140886913Y-110965411D01*
X140898464Y-110987021D01*
X140905304Y-110997258D01*
X140966480Y-111088814D01*
X140987549Y-111139680D01*
X141008620Y-111190549D01*
X141030100Y-111298541D01*
X141030100Y-111408659D01*
X141008620Y-111516651D01*
X140987549Y-111567520D01*
X140966480Y-111618386D01*
X140905304Y-111709942D01*
X140827442Y-111787804D01*
X140735886Y-111848980D01*
X140685020Y-111870049D01*
X140634151Y-111891120D01*
X140526159Y-111912600D01*
X140416041Y-111912600D01*
X140308049Y-111891120D01*
X140257180Y-111870049D01*
X140206314Y-111848980D01*
X140114758Y-111787804D01*
X140036896Y-111709942D01*
X139975720Y-111618386D01*
X139954651Y-111567520D01*
X139933580Y-111516651D01*
X139912100Y-111408659D01*
X139912100Y-111298541D01*
X139933580Y-111190549D01*
X139954651Y-111139680D01*
X139975720Y-111088814D01*
X140036896Y-110997258D01*
X140043736Y-110987021D01*
X140055287Y-110965411D01*
X140062400Y-110941962D01*
X140064802Y-110917576D01*
X140062400Y-110893190D01*
X140055287Y-110869741D01*
X140043736Y-110848130D01*
X140028190Y-110829188D01*
X140009252Y-110813647D01*
X139920587Y-110754402D01*
X139800298Y-110634113D01*
X139705787Y-110492668D01*
X139640687Y-110335503D01*
X139607500Y-110168657D01*
X139607500Y-109998543D01*
X139640687Y-109831697D01*
X139705787Y-109674532D01*
X139800298Y-109533087D01*
X139920587Y-109412798D01*
X140062032Y-109318287D01*
X140219197Y-109253187D01*
X140386043Y-109220000D01*
X140556157Y-109220000D01*
X140723003Y-109253187D01*
X140723003Y-109253187D01*
G37*
G36*
X145803003Y-109253187D02*
G01*
X145960168Y-109318287D01*
X146101613Y-109412798D01*
X146221902Y-109533087D01*
X146316413Y-109674532D01*
X146381513Y-109831697D01*
X146414700Y-109998543D01*
X146414700Y-110168657D01*
X146381513Y-110335503D01*
X146316413Y-110492668D01*
X146221902Y-110634113D01*
X146101613Y-110754402D01*
X146012948Y-110813647D01*
X145994010Y-110829188D01*
X145978464Y-110848130D01*
X145966913Y-110869741D01*
X145959800Y-110893189D01*
X145957398Y-110917576D01*
X145959800Y-110941962D01*
X145966913Y-110965411D01*
X145978464Y-110987021D01*
X145985304Y-110997258D01*
X146046480Y-111088814D01*
X146067549Y-111139680D01*
X146088620Y-111190549D01*
X146110100Y-111298541D01*
X146110100Y-111408659D01*
X146088620Y-111516651D01*
X146067549Y-111567520D01*
X146046480Y-111618386D01*
X145985304Y-111709942D01*
X145907442Y-111787804D01*
X145815886Y-111848980D01*
X145765020Y-111870049D01*
X145714151Y-111891120D01*
X145606159Y-111912600D01*
X145496041Y-111912600D01*
X145388049Y-111891120D01*
X145337180Y-111870049D01*
X145286314Y-111848980D01*
X145194758Y-111787804D01*
X145116896Y-111709942D01*
X145055720Y-111618386D01*
X145034651Y-111567520D01*
X145013580Y-111516651D01*
X144992100Y-111408659D01*
X144992100Y-111298541D01*
X145013580Y-111190549D01*
X145034651Y-111139680D01*
X145055720Y-111088814D01*
X145116896Y-110997258D01*
X145123736Y-110987021D01*
X145135287Y-110965411D01*
X145142400Y-110941962D01*
X145144802Y-110917576D01*
X145142400Y-110893190D01*
X145135287Y-110869741D01*
X145123736Y-110848130D01*
X145108190Y-110829188D01*
X145089252Y-110813647D01*
X145000587Y-110754402D01*
X144880298Y-110634113D01*
X144785787Y-110492668D01*
X144720687Y-110335503D01*
X144687500Y-110168657D01*
X144687500Y-109998543D01*
X144720687Y-109831697D01*
X144785787Y-109674532D01*
X144880298Y-109533087D01*
X145000587Y-109412798D01*
X145142032Y-109318287D01*
X145299197Y-109253187D01*
X145466043Y-109220000D01*
X145636157Y-109220000D01*
X145803003Y-109253187D01*
X145803003Y-109253187D01*
G37*
G36*
X148343003Y-109253187D02*
G01*
X148500168Y-109318287D01*
X148641613Y-109412798D01*
X148761902Y-109533087D01*
X148856413Y-109674532D01*
X148921513Y-109831697D01*
X148954700Y-109998543D01*
X148954700Y-110168657D01*
X148921513Y-110335503D01*
X148856413Y-110492668D01*
X148761902Y-110634113D01*
X148641613Y-110754402D01*
X148552948Y-110813647D01*
X148534010Y-110829188D01*
X148518464Y-110848130D01*
X148506913Y-110869741D01*
X148499800Y-110893189D01*
X148497398Y-110917576D01*
X148499800Y-110941962D01*
X148506913Y-110965411D01*
X148518464Y-110987021D01*
X148525304Y-110997258D01*
X148586480Y-111088814D01*
X148607549Y-111139680D01*
X148628620Y-111190549D01*
X148650100Y-111298541D01*
X148650100Y-111408659D01*
X148628620Y-111516651D01*
X148607549Y-111567520D01*
X148586480Y-111618386D01*
X148525304Y-111709942D01*
X148447442Y-111787804D01*
X148355886Y-111848980D01*
X148305020Y-111870049D01*
X148254151Y-111891120D01*
X148146159Y-111912600D01*
X148036041Y-111912600D01*
X147928049Y-111891120D01*
X147877180Y-111870049D01*
X147826314Y-111848980D01*
X147734758Y-111787804D01*
X147656896Y-111709942D01*
X147595720Y-111618386D01*
X147574651Y-111567520D01*
X147553580Y-111516651D01*
X147532100Y-111408659D01*
X147532100Y-111298541D01*
X147553580Y-111190549D01*
X147574651Y-111139680D01*
X147595720Y-111088814D01*
X147656896Y-110997258D01*
X147663736Y-110987021D01*
X147675287Y-110965411D01*
X147682400Y-110941962D01*
X147684802Y-110917576D01*
X147682400Y-110893190D01*
X147675287Y-110869741D01*
X147663736Y-110848130D01*
X147648190Y-110829188D01*
X147629252Y-110813647D01*
X147540587Y-110754402D01*
X147420298Y-110634113D01*
X147325787Y-110492668D01*
X147260687Y-110335503D01*
X147227500Y-110168657D01*
X147227500Y-109998543D01*
X147260687Y-109831697D01*
X147325787Y-109674532D01*
X147420298Y-109533087D01*
X147540587Y-109412798D01*
X147682032Y-109318287D01*
X147839197Y-109253187D01*
X148006043Y-109220000D01*
X148176157Y-109220000D01*
X148343003Y-109253187D01*
X148343003Y-109253187D01*
G37*
G36*
X150883003Y-109253187D02*
G01*
X151040168Y-109318287D01*
X151181613Y-109412798D01*
X151301902Y-109533087D01*
X151396413Y-109674532D01*
X151461513Y-109831697D01*
X151494700Y-109998543D01*
X151494700Y-110168657D01*
X151461513Y-110335503D01*
X151396413Y-110492668D01*
X151301902Y-110634113D01*
X151181613Y-110754402D01*
X151092948Y-110813647D01*
X151074010Y-110829188D01*
X151058464Y-110848130D01*
X151046913Y-110869741D01*
X151039800Y-110893189D01*
X151037398Y-110917576D01*
X151039800Y-110941962D01*
X151046913Y-110965411D01*
X151058464Y-110987021D01*
X151065304Y-110997258D01*
X151126480Y-111088814D01*
X151147549Y-111139680D01*
X151168620Y-111190549D01*
X151190100Y-111298541D01*
X151190100Y-111408659D01*
X151168620Y-111516651D01*
X151147549Y-111567520D01*
X151126480Y-111618386D01*
X151065304Y-111709942D01*
X150987442Y-111787804D01*
X150895886Y-111848980D01*
X150845020Y-111870049D01*
X150794151Y-111891120D01*
X150686159Y-111912600D01*
X150576041Y-111912600D01*
X150468049Y-111891120D01*
X150417180Y-111870049D01*
X150366314Y-111848980D01*
X150274758Y-111787804D01*
X150196896Y-111709942D01*
X150135720Y-111618386D01*
X150114651Y-111567520D01*
X150093580Y-111516651D01*
X150072100Y-111408659D01*
X150072100Y-111298541D01*
X150093580Y-111190549D01*
X150114651Y-111139680D01*
X150135720Y-111088814D01*
X150196896Y-110997258D01*
X150203736Y-110987021D01*
X150215287Y-110965411D01*
X150222400Y-110941962D01*
X150224802Y-110917576D01*
X150222400Y-110893190D01*
X150215287Y-110869741D01*
X150203736Y-110848130D01*
X150188190Y-110829188D01*
X150169252Y-110813647D01*
X150080587Y-110754402D01*
X149960298Y-110634113D01*
X149865787Y-110492668D01*
X149800687Y-110335503D01*
X149767500Y-110168657D01*
X149767500Y-109998543D01*
X149800687Y-109831697D01*
X149865787Y-109674532D01*
X149960298Y-109533087D01*
X150080587Y-109412798D01*
X150222032Y-109318287D01*
X150379197Y-109253187D01*
X150546043Y-109220000D01*
X150716157Y-109220000D01*
X150883003Y-109253187D01*
X150883003Y-109253187D01*
G37*
G36*
X153423003Y-109253187D02*
G01*
X153580168Y-109318287D01*
X153721613Y-109412798D01*
X153841902Y-109533087D01*
X153936413Y-109674532D01*
X154001513Y-109831697D01*
X154034700Y-109998543D01*
X154034700Y-110168657D01*
X154001513Y-110335503D01*
X153936413Y-110492668D01*
X153841902Y-110634113D01*
X153721613Y-110754402D01*
X153632948Y-110813647D01*
X153614010Y-110829188D01*
X153598464Y-110848130D01*
X153586913Y-110869741D01*
X153579800Y-110893189D01*
X153577398Y-110917576D01*
X153579800Y-110941962D01*
X153586913Y-110965411D01*
X153598464Y-110987021D01*
X153605304Y-110997258D01*
X153666480Y-111088814D01*
X153687549Y-111139680D01*
X153708620Y-111190549D01*
X153730100Y-111298541D01*
X153730100Y-111408659D01*
X153708620Y-111516651D01*
X153687549Y-111567520D01*
X153666480Y-111618386D01*
X153605304Y-111709942D01*
X153527442Y-111787804D01*
X153435886Y-111848980D01*
X153385020Y-111870049D01*
X153334151Y-111891120D01*
X153226159Y-111912600D01*
X153116041Y-111912600D01*
X153008049Y-111891120D01*
X152957180Y-111870049D01*
X152906314Y-111848980D01*
X152814758Y-111787804D01*
X152736896Y-111709942D01*
X152675720Y-111618386D01*
X152654651Y-111567520D01*
X152633580Y-111516651D01*
X152612100Y-111408659D01*
X152612100Y-111298541D01*
X152633580Y-111190549D01*
X152654651Y-111139680D01*
X152675720Y-111088814D01*
X152736896Y-110997258D01*
X152743736Y-110987021D01*
X152755287Y-110965411D01*
X152762400Y-110941962D01*
X152764802Y-110917576D01*
X152762400Y-110893190D01*
X152755287Y-110869741D01*
X152743736Y-110848130D01*
X152728190Y-110829188D01*
X152709252Y-110813647D01*
X152620587Y-110754402D01*
X152500298Y-110634113D01*
X152405787Y-110492668D01*
X152340687Y-110335503D01*
X152307500Y-110168657D01*
X152307500Y-109998543D01*
X152340687Y-109831697D01*
X152405787Y-109674532D01*
X152500298Y-109533087D01*
X152620587Y-109412798D01*
X152762032Y-109318287D01*
X152919197Y-109253187D01*
X153086043Y-109220000D01*
X153256157Y-109220000D01*
X153423003Y-109253187D01*
X153423003Y-109253187D01*
G37*
G36*
X155963003Y-109253187D02*
G01*
X156120168Y-109318287D01*
X156261613Y-109412798D01*
X156381902Y-109533087D01*
X156476413Y-109674532D01*
X156541513Y-109831697D01*
X156574700Y-109998543D01*
X156574700Y-110168657D01*
X156541513Y-110335503D01*
X156476413Y-110492668D01*
X156381902Y-110634113D01*
X156261613Y-110754402D01*
X156172948Y-110813647D01*
X156154010Y-110829188D01*
X156138464Y-110848130D01*
X156126913Y-110869741D01*
X156119800Y-110893189D01*
X156117398Y-110917576D01*
X156119800Y-110941962D01*
X156126913Y-110965411D01*
X156138464Y-110987021D01*
X156145304Y-110997258D01*
X156206480Y-111088814D01*
X156227549Y-111139680D01*
X156248620Y-111190549D01*
X156270100Y-111298541D01*
X156270100Y-111408659D01*
X156248620Y-111516651D01*
X156227549Y-111567520D01*
X156206480Y-111618386D01*
X156145304Y-111709942D01*
X156067442Y-111787804D01*
X155975886Y-111848980D01*
X155925020Y-111870049D01*
X155874151Y-111891120D01*
X155766159Y-111912600D01*
X155656041Y-111912600D01*
X155548049Y-111891120D01*
X155497180Y-111870049D01*
X155446314Y-111848980D01*
X155354758Y-111787804D01*
X155276896Y-111709942D01*
X155215720Y-111618386D01*
X155194651Y-111567520D01*
X155173580Y-111516651D01*
X155152100Y-111408659D01*
X155152100Y-111298541D01*
X155173580Y-111190549D01*
X155194651Y-111139680D01*
X155215720Y-111088814D01*
X155276896Y-110997258D01*
X155283736Y-110987021D01*
X155295287Y-110965411D01*
X155302400Y-110941962D01*
X155304802Y-110917576D01*
X155302400Y-110893190D01*
X155295287Y-110869741D01*
X155283736Y-110848130D01*
X155268190Y-110829188D01*
X155249252Y-110813647D01*
X155160587Y-110754402D01*
X155040298Y-110634113D01*
X154945787Y-110492668D01*
X154880687Y-110335503D01*
X154847500Y-110168657D01*
X154847500Y-109998543D01*
X154880687Y-109831697D01*
X154945787Y-109674532D01*
X155040298Y-109533087D01*
X155160587Y-109412798D01*
X155302032Y-109318287D01*
X155459197Y-109253187D01*
X155626043Y-109220000D01*
X155796157Y-109220000D01*
X155963003Y-109253187D01*
X155963003Y-109253187D01*
G37*
G36*
X158503003Y-109253187D02*
G01*
X158660168Y-109318287D01*
X158801613Y-109412798D01*
X158921902Y-109533087D01*
X159016413Y-109674532D01*
X159081513Y-109831697D01*
X159114700Y-109998543D01*
X159114700Y-110168657D01*
X159081513Y-110335503D01*
X159016413Y-110492668D01*
X158921902Y-110634113D01*
X158801613Y-110754402D01*
X158712948Y-110813647D01*
X158694010Y-110829188D01*
X158678464Y-110848130D01*
X158666913Y-110869741D01*
X158659800Y-110893189D01*
X158657398Y-110917576D01*
X158659800Y-110941962D01*
X158666913Y-110965411D01*
X158678464Y-110987021D01*
X158685304Y-110997258D01*
X158746480Y-111088814D01*
X158767549Y-111139680D01*
X158788620Y-111190549D01*
X158810100Y-111298541D01*
X158810100Y-111408659D01*
X158788620Y-111516651D01*
X158767549Y-111567520D01*
X158746480Y-111618386D01*
X158685304Y-111709942D01*
X158607442Y-111787804D01*
X158515886Y-111848980D01*
X158465020Y-111870049D01*
X158414151Y-111891120D01*
X158306159Y-111912600D01*
X158196041Y-111912600D01*
X158088049Y-111891120D01*
X158037180Y-111870049D01*
X157986314Y-111848980D01*
X157894758Y-111787804D01*
X157816896Y-111709942D01*
X157755720Y-111618386D01*
X157734651Y-111567520D01*
X157713580Y-111516651D01*
X157692100Y-111408659D01*
X157692100Y-111298541D01*
X157713580Y-111190549D01*
X157734651Y-111139680D01*
X157755720Y-111088814D01*
X157816896Y-110997258D01*
X157823736Y-110987021D01*
X157835287Y-110965411D01*
X157842400Y-110941962D01*
X157844802Y-110917576D01*
X157842400Y-110893190D01*
X157835287Y-110869741D01*
X157823736Y-110848130D01*
X157808190Y-110829188D01*
X157789252Y-110813647D01*
X157700587Y-110754402D01*
X157580298Y-110634113D01*
X157485787Y-110492668D01*
X157420687Y-110335503D01*
X157387500Y-110168657D01*
X157387500Y-109998543D01*
X157420687Y-109831697D01*
X157485787Y-109674532D01*
X157580298Y-109533087D01*
X157700587Y-109412798D01*
X157842032Y-109318287D01*
X157999197Y-109253187D01*
X158166043Y-109220000D01*
X158336157Y-109220000D01*
X158503003Y-109253187D01*
X158503003Y-109253187D01*
G37*
G36*
X161043003Y-109253187D02*
G01*
X161200168Y-109318287D01*
X161341613Y-109412798D01*
X161461902Y-109533087D01*
X161556413Y-109674532D01*
X161621513Y-109831697D01*
X161654700Y-109998543D01*
X161654700Y-110168657D01*
X161621513Y-110335503D01*
X161556413Y-110492668D01*
X161461902Y-110634113D01*
X161341613Y-110754402D01*
X161252948Y-110813647D01*
X161234010Y-110829188D01*
X161218464Y-110848130D01*
X161206913Y-110869741D01*
X161199800Y-110893189D01*
X161197398Y-110917576D01*
X161199800Y-110941962D01*
X161206913Y-110965411D01*
X161218464Y-110987021D01*
X161225304Y-110997258D01*
X161286480Y-111088814D01*
X161307549Y-111139680D01*
X161328620Y-111190549D01*
X161350100Y-111298541D01*
X161350100Y-111408659D01*
X161328620Y-111516651D01*
X161307549Y-111567520D01*
X161286480Y-111618386D01*
X161225304Y-111709942D01*
X161147442Y-111787804D01*
X161055886Y-111848980D01*
X161005020Y-111870049D01*
X160954151Y-111891120D01*
X160846159Y-111912600D01*
X160736041Y-111912600D01*
X160628049Y-111891120D01*
X160577180Y-111870049D01*
X160526314Y-111848980D01*
X160434758Y-111787804D01*
X160356896Y-111709942D01*
X160295720Y-111618386D01*
X160274651Y-111567520D01*
X160253580Y-111516651D01*
X160232100Y-111408659D01*
X160232100Y-111298541D01*
X160253580Y-111190549D01*
X160274651Y-111139680D01*
X160295720Y-111088814D01*
X160356896Y-110997258D01*
X160363736Y-110987021D01*
X160375287Y-110965411D01*
X160382400Y-110941962D01*
X160384802Y-110917576D01*
X160382400Y-110893190D01*
X160375287Y-110869741D01*
X160363736Y-110848130D01*
X160348190Y-110829188D01*
X160329252Y-110813647D01*
X160240587Y-110754402D01*
X160120298Y-110634113D01*
X160025787Y-110492668D01*
X159960687Y-110335503D01*
X159927500Y-110168657D01*
X159927500Y-109998543D01*
X159960687Y-109831697D01*
X160025787Y-109674532D01*
X160120298Y-109533087D01*
X160240587Y-109412798D01*
X160382032Y-109318287D01*
X160539197Y-109253187D01*
X160706043Y-109220000D01*
X160876157Y-109220000D01*
X161043003Y-109253187D01*
X161043003Y-109253187D01*
G37*
G36*
X166123003Y-109253187D02*
G01*
X166280168Y-109318287D01*
X166421613Y-109412798D01*
X166541902Y-109533087D01*
X166636413Y-109674532D01*
X166701513Y-109831697D01*
X166734700Y-109998543D01*
X166734700Y-110168657D01*
X166701513Y-110335503D01*
X166636413Y-110492668D01*
X166541902Y-110634113D01*
X166421613Y-110754402D01*
X166332948Y-110813647D01*
X166314010Y-110829188D01*
X166298464Y-110848130D01*
X166286913Y-110869741D01*
X166279800Y-110893189D01*
X166277398Y-110917576D01*
X166279800Y-110941962D01*
X166286913Y-110965411D01*
X166298464Y-110987021D01*
X166305304Y-110997258D01*
X166366480Y-111088814D01*
X166387549Y-111139680D01*
X166408620Y-111190549D01*
X166430100Y-111298541D01*
X166430100Y-111408659D01*
X166408620Y-111516651D01*
X166387549Y-111567520D01*
X166366480Y-111618386D01*
X166305304Y-111709942D01*
X166227442Y-111787804D01*
X166135886Y-111848980D01*
X166085020Y-111870049D01*
X166034151Y-111891120D01*
X165926159Y-111912600D01*
X165816041Y-111912600D01*
X165708049Y-111891120D01*
X165657180Y-111870049D01*
X165606314Y-111848980D01*
X165514758Y-111787804D01*
X165436896Y-111709942D01*
X165375720Y-111618386D01*
X165354651Y-111567520D01*
X165333580Y-111516651D01*
X165312100Y-111408659D01*
X165312100Y-111298541D01*
X165333580Y-111190549D01*
X165354651Y-111139680D01*
X165375720Y-111088814D01*
X165436896Y-110997258D01*
X165443736Y-110987021D01*
X165455287Y-110965411D01*
X165462400Y-110941962D01*
X165464802Y-110917576D01*
X165462400Y-110893190D01*
X165455287Y-110869741D01*
X165443736Y-110848130D01*
X165428190Y-110829188D01*
X165409252Y-110813647D01*
X165320587Y-110754402D01*
X165200298Y-110634113D01*
X165105787Y-110492668D01*
X165040687Y-110335503D01*
X165007500Y-110168657D01*
X165007500Y-109998543D01*
X165040687Y-109831697D01*
X165105787Y-109674532D01*
X165200298Y-109533087D01*
X165320587Y-109412798D01*
X165462032Y-109318287D01*
X165619197Y-109253187D01*
X165786043Y-109220000D01*
X165956157Y-109220000D01*
X166123003Y-109253187D01*
X166123003Y-109253187D01*
G37*
G36*
X127942097Y-109223941D02*
G01*
X128026766Y-109240783D01*
X128092838Y-109268151D01*
X128186277Y-109306855D01*
X128329836Y-109402778D01*
X128451922Y-109524864D01*
X128547845Y-109668423D01*
X128613917Y-109827935D01*
X128647600Y-109997271D01*
X128647600Y-110169929D01*
X128613917Y-110339265D01*
X128547845Y-110498777D01*
X128451922Y-110642336D01*
X128329836Y-110764422D01*
X128186277Y-110860345D01*
X128106982Y-110893190D01*
X128026766Y-110926417D01*
X127948615Y-110941962D01*
X127857429Y-110960100D01*
X127684771Y-110960100D01*
X127593585Y-110941962D01*
X127515434Y-110926417D01*
X127435218Y-110893190D01*
X127355923Y-110860345D01*
X127212364Y-110764422D01*
X127090278Y-110642336D01*
X126994355Y-110498777D01*
X126928283Y-110339265D01*
X126894600Y-110169929D01*
X126894600Y-109997271D01*
X126928283Y-109827935D01*
X126994355Y-109668423D01*
X127090278Y-109524864D01*
X127212364Y-109402778D01*
X127355923Y-109306855D01*
X127449362Y-109268151D01*
X127515434Y-109240783D01*
X127600103Y-109223941D01*
X127684771Y-109207100D01*
X127857429Y-109207100D01*
X127942097Y-109223941D01*
X127942097Y-109223941D01*
G37*
G36*
X168582097Y-109223941D02*
G01*
X168666766Y-109240783D01*
X168732838Y-109268151D01*
X168826277Y-109306855D01*
X168969836Y-109402778D01*
X169091922Y-109524864D01*
X169187845Y-109668423D01*
X169253917Y-109827935D01*
X169287600Y-109997271D01*
X169287600Y-110169929D01*
X169253917Y-110339265D01*
X169187845Y-110498777D01*
X169091922Y-110642336D01*
X168969836Y-110764422D01*
X168826277Y-110860345D01*
X168746982Y-110893190D01*
X168666766Y-110926417D01*
X168588615Y-110941962D01*
X168497429Y-110960100D01*
X168324771Y-110960100D01*
X168233585Y-110941962D01*
X168155434Y-110926417D01*
X168075218Y-110893190D01*
X167995923Y-110860345D01*
X167852364Y-110764422D01*
X167730278Y-110642336D01*
X167634355Y-110498777D01*
X167568283Y-110339265D01*
X167534600Y-110169929D01*
X167534600Y-109997271D01*
X167568283Y-109827935D01*
X167634355Y-109668423D01*
X167730278Y-109524864D01*
X167852364Y-109402778D01*
X167995923Y-109306855D01*
X168089362Y-109268151D01*
X168155434Y-109240783D01*
X168240103Y-109223941D01*
X168324771Y-109207100D01*
X168497429Y-109207100D01*
X168582097Y-109223941D01*
X168582097Y-109223941D01*
G37*
G36*
X168582097Y-93983942D02*
G01*
X168666766Y-94000783D01*
X168696711Y-94013187D01*
X168826277Y-94066855D01*
X168969836Y-94162778D01*
X169091922Y-94284864D01*
X169187845Y-94428423D01*
X169253917Y-94587935D01*
X169287600Y-94757271D01*
X169287600Y-94929929D01*
X169253917Y-95099265D01*
X169187845Y-95258777D01*
X169091922Y-95402336D01*
X168969836Y-95524422D01*
X168826277Y-95620345D01*
X168732838Y-95659049D01*
X168666766Y-95686417D01*
X168582097Y-95703259D01*
X168497429Y-95720100D01*
X168324771Y-95720100D01*
X168240103Y-95703259D01*
X168155434Y-95686417D01*
X168089362Y-95659049D01*
X167995923Y-95620345D01*
X167852364Y-95524422D01*
X167730278Y-95402336D01*
X167634355Y-95258777D01*
X167568283Y-95099265D01*
X167534600Y-94929929D01*
X167534600Y-94757271D01*
X167568283Y-94587935D01*
X167634355Y-94428423D01*
X167730278Y-94284864D01*
X167852364Y-94162778D01*
X167995923Y-94066855D01*
X168125489Y-94013187D01*
X168155434Y-94000783D01*
X168240103Y-93983941D01*
X168324771Y-93967100D01*
X168497429Y-93967100D01*
X168582097Y-93983942D01*
X168582097Y-93983942D01*
G37*
G36*
X127942097Y-93983942D02*
G01*
X128026766Y-94000783D01*
X128056711Y-94013187D01*
X128186277Y-94066855D01*
X128329836Y-94162778D01*
X128451922Y-94284864D01*
X128547845Y-94428423D01*
X128613917Y-94587935D01*
X128647600Y-94757271D01*
X128647600Y-94929929D01*
X128613917Y-95099265D01*
X128547845Y-95258777D01*
X128451922Y-95402336D01*
X128329836Y-95524422D01*
X128186277Y-95620345D01*
X128092838Y-95659049D01*
X128026766Y-95686417D01*
X127942097Y-95703259D01*
X127857429Y-95720100D01*
X127684771Y-95720100D01*
X127600103Y-95703259D01*
X127515434Y-95686417D01*
X127449362Y-95659049D01*
X127355923Y-95620345D01*
X127212364Y-95524422D01*
X127090278Y-95402336D01*
X126994355Y-95258777D01*
X126928283Y-95099265D01*
X126894600Y-94929929D01*
X126894600Y-94757271D01*
X126928283Y-94587935D01*
X126994355Y-94428423D01*
X127090278Y-94284864D01*
X127212364Y-94162778D01*
X127355923Y-94066855D01*
X127485489Y-94013187D01*
X127515434Y-94000783D01*
X127600103Y-93983941D01*
X127684771Y-93967100D01*
X127857429Y-93967100D01*
X127942097Y-93983942D01*
X127942097Y-93983942D01*
G37*
G36*
X163494151Y-93036080D02*
G01*
X163545020Y-93057151D01*
X163595886Y-93078220D01*
X163687442Y-93139396D01*
X163765304Y-93217258D01*
X163826480Y-93308814D01*
X163847549Y-93359680D01*
X163868620Y-93410549D01*
X163890100Y-93518541D01*
X163890100Y-93628659D01*
X163868620Y-93736651D01*
X163847549Y-93787520D01*
X163826480Y-93838386D01*
X163826478Y-93838389D01*
X163758464Y-93940179D01*
X163746913Y-93961789D01*
X163739800Y-93985238D01*
X163737398Y-94009624D01*
X163739800Y-94034010D01*
X163746913Y-94057459D01*
X163758464Y-94079070D01*
X163774010Y-94098012D01*
X163792948Y-94113553D01*
X163881613Y-94172798D01*
X164001902Y-94293087D01*
X164096413Y-94434532D01*
X164161513Y-94591697D01*
X164194700Y-94758543D01*
X164194700Y-94928657D01*
X164161513Y-95095503D01*
X164096413Y-95252668D01*
X164001902Y-95394113D01*
X163881613Y-95514402D01*
X163740168Y-95608913D01*
X163583003Y-95674013D01*
X163416157Y-95707200D01*
X163246043Y-95707200D01*
X163079197Y-95674013D01*
X162922032Y-95608913D01*
X162780587Y-95514402D01*
X162660298Y-95394113D01*
X162565787Y-95252668D01*
X162500687Y-95095503D01*
X162467500Y-94928657D01*
X162467500Y-94758543D01*
X162500687Y-94591697D01*
X162565787Y-94434532D01*
X162660298Y-94293087D01*
X162780587Y-94172798D01*
X162869252Y-94113553D01*
X162888190Y-94098012D01*
X162903736Y-94079070D01*
X162915287Y-94057459D01*
X162922400Y-94034011D01*
X162924802Y-94009624D01*
X162922400Y-93985238D01*
X162915287Y-93961789D01*
X162903736Y-93940179D01*
X162835722Y-93838389D01*
X162835720Y-93838386D01*
X162814651Y-93787520D01*
X162793580Y-93736651D01*
X162772100Y-93628659D01*
X162772100Y-93518541D01*
X162793580Y-93410549D01*
X162814651Y-93359680D01*
X162835720Y-93308814D01*
X162896896Y-93217258D01*
X162974758Y-93139396D01*
X163066314Y-93078220D01*
X163117180Y-93057151D01*
X163168049Y-93036080D01*
X163276041Y-93014600D01*
X163386159Y-93014600D01*
X163494151Y-93036080D01*
X163494151Y-93036080D01*
G37*
G36*
X160954151Y-93036080D02*
G01*
X161005020Y-93057151D01*
X161055886Y-93078220D01*
X161147442Y-93139396D01*
X161225304Y-93217258D01*
X161286480Y-93308814D01*
X161307549Y-93359680D01*
X161328620Y-93410549D01*
X161350100Y-93518541D01*
X161350100Y-93628659D01*
X161328620Y-93736651D01*
X161307549Y-93787520D01*
X161286480Y-93838386D01*
X161286478Y-93838389D01*
X161218464Y-93940179D01*
X161206913Y-93961789D01*
X161199800Y-93985238D01*
X161197398Y-94009624D01*
X161199800Y-94034010D01*
X161206913Y-94057459D01*
X161218464Y-94079070D01*
X161234010Y-94098012D01*
X161252948Y-94113553D01*
X161341613Y-94172798D01*
X161461902Y-94293087D01*
X161556413Y-94434532D01*
X161621513Y-94591697D01*
X161654700Y-94758543D01*
X161654700Y-94928657D01*
X161621513Y-95095503D01*
X161556413Y-95252668D01*
X161461902Y-95394113D01*
X161341613Y-95514402D01*
X161200168Y-95608913D01*
X161043003Y-95674013D01*
X160876157Y-95707200D01*
X160706043Y-95707200D01*
X160539197Y-95674013D01*
X160382032Y-95608913D01*
X160240587Y-95514402D01*
X160120298Y-95394113D01*
X160025787Y-95252668D01*
X159960687Y-95095503D01*
X159927500Y-94928657D01*
X159927500Y-94758543D01*
X159960687Y-94591697D01*
X160025787Y-94434532D01*
X160120298Y-94293087D01*
X160240587Y-94172798D01*
X160329252Y-94113553D01*
X160348190Y-94098012D01*
X160363736Y-94079070D01*
X160375287Y-94057459D01*
X160382400Y-94034011D01*
X160384802Y-94009624D01*
X160382400Y-93985238D01*
X160375287Y-93961789D01*
X160363736Y-93940179D01*
X160295722Y-93838389D01*
X160295720Y-93838386D01*
X160274651Y-93787520D01*
X160253580Y-93736651D01*
X160232100Y-93628659D01*
X160232100Y-93518541D01*
X160253580Y-93410549D01*
X160274651Y-93359680D01*
X160295720Y-93308814D01*
X160356896Y-93217258D01*
X160434758Y-93139396D01*
X160526314Y-93078220D01*
X160577180Y-93057151D01*
X160628049Y-93036080D01*
X160736041Y-93014600D01*
X160846159Y-93014600D01*
X160954151Y-93036080D01*
X160954151Y-93036080D01*
G37*
G36*
X158414151Y-93036080D02*
G01*
X158465020Y-93057151D01*
X158515886Y-93078220D01*
X158607442Y-93139396D01*
X158685304Y-93217258D01*
X158746480Y-93308814D01*
X158767549Y-93359680D01*
X158788620Y-93410549D01*
X158810100Y-93518541D01*
X158810100Y-93628659D01*
X158788620Y-93736651D01*
X158767549Y-93787520D01*
X158746480Y-93838386D01*
X158746478Y-93838389D01*
X158678464Y-93940179D01*
X158666913Y-93961789D01*
X158659800Y-93985238D01*
X158657398Y-94009624D01*
X158659800Y-94034010D01*
X158666913Y-94057459D01*
X158678464Y-94079070D01*
X158694010Y-94098012D01*
X158712948Y-94113553D01*
X158801613Y-94172798D01*
X158921902Y-94293087D01*
X159016413Y-94434532D01*
X159081513Y-94591697D01*
X159114700Y-94758543D01*
X159114700Y-94928657D01*
X159081513Y-95095503D01*
X159016413Y-95252668D01*
X158921902Y-95394113D01*
X158801613Y-95514402D01*
X158660168Y-95608913D01*
X158503003Y-95674013D01*
X158336157Y-95707200D01*
X158166043Y-95707200D01*
X157999197Y-95674013D01*
X157842032Y-95608913D01*
X157700587Y-95514402D01*
X157580298Y-95394113D01*
X157485787Y-95252668D01*
X157420687Y-95095503D01*
X157387500Y-94928657D01*
X157387500Y-94758543D01*
X157420687Y-94591697D01*
X157485787Y-94434532D01*
X157580298Y-94293087D01*
X157700587Y-94172798D01*
X157789252Y-94113553D01*
X157808190Y-94098012D01*
X157823736Y-94079070D01*
X157835287Y-94057459D01*
X157842400Y-94034011D01*
X157844802Y-94009624D01*
X157842400Y-93985238D01*
X157835287Y-93961789D01*
X157823736Y-93940179D01*
X157755722Y-93838389D01*
X157755720Y-93838386D01*
X157734651Y-93787520D01*
X157713580Y-93736651D01*
X157692100Y-93628659D01*
X157692100Y-93518541D01*
X157713580Y-93410549D01*
X157734651Y-93359680D01*
X157755720Y-93308814D01*
X157816896Y-93217258D01*
X157894758Y-93139396D01*
X157986314Y-93078220D01*
X158037180Y-93057151D01*
X158088049Y-93036080D01*
X158196041Y-93014600D01*
X158306159Y-93014600D01*
X158414151Y-93036080D01*
X158414151Y-93036080D01*
G37*
G36*
X155874151Y-93036080D02*
G01*
X155925020Y-93057151D01*
X155975886Y-93078220D01*
X156067442Y-93139396D01*
X156145304Y-93217258D01*
X156206480Y-93308814D01*
X156227549Y-93359680D01*
X156248620Y-93410549D01*
X156270100Y-93518541D01*
X156270100Y-93628659D01*
X156248620Y-93736651D01*
X156227549Y-93787520D01*
X156206480Y-93838386D01*
X156206478Y-93838389D01*
X156138464Y-93940179D01*
X156126913Y-93961789D01*
X156119800Y-93985238D01*
X156117398Y-94009624D01*
X156119800Y-94034010D01*
X156126913Y-94057459D01*
X156138464Y-94079070D01*
X156154010Y-94098012D01*
X156172948Y-94113553D01*
X156261613Y-94172798D01*
X156381902Y-94293087D01*
X156476413Y-94434532D01*
X156541513Y-94591697D01*
X156574700Y-94758543D01*
X156574700Y-94928657D01*
X156541513Y-95095503D01*
X156476413Y-95252668D01*
X156381902Y-95394113D01*
X156261613Y-95514402D01*
X156120168Y-95608913D01*
X155963003Y-95674013D01*
X155796157Y-95707200D01*
X155626043Y-95707200D01*
X155459197Y-95674013D01*
X155302032Y-95608913D01*
X155160587Y-95514402D01*
X155040298Y-95394113D01*
X154945787Y-95252668D01*
X154880687Y-95095503D01*
X154847500Y-94928657D01*
X154847500Y-94758543D01*
X154880687Y-94591697D01*
X154945787Y-94434532D01*
X155040298Y-94293087D01*
X155160587Y-94172798D01*
X155249252Y-94113553D01*
X155268190Y-94098012D01*
X155283736Y-94079070D01*
X155295287Y-94057459D01*
X155302400Y-94034011D01*
X155304802Y-94009624D01*
X155302400Y-93985238D01*
X155295287Y-93961789D01*
X155283736Y-93940179D01*
X155215722Y-93838389D01*
X155215720Y-93838386D01*
X155194651Y-93787520D01*
X155173580Y-93736651D01*
X155152100Y-93628659D01*
X155152100Y-93518541D01*
X155173580Y-93410549D01*
X155194651Y-93359680D01*
X155215720Y-93308814D01*
X155276896Y-93217258D01*
X155354758Y-93139396D01*
X155446314Y-93078220D01*
X155497180Y-93057151D01*
X155548049Y-93036080D01*
X155656041Y-93014600D01*
X155766159Y-93014600D01*
X155874151Y-93036080D01*
X155874151Y-93036080D01*
G37*
G36*
X153334151Y-93036080D02*
G01*
X153385020Y-93057151D01*
X153435886Y-93078220D01*
X153527442Y-93139396D01*
X153605304Y-93217258D01*
X153666480Y-93308814D01*
X153687549Y-93359680D01*
X153708620Y-93410549D01*
X153730100Y-93518541D01*
X153730100Y-93628659D01*
X153708620Y-93736651D01*
X153687549Y-93787520D01*
X153666480Y-93838386D01*
X153666478Y-93838389D01*
X153598464Y-93940179D01*
X153586913Y-93961789D01*
X153579800Y-93985238D01*
X153577398Y-94009624D01*
X153579800Y-94034010D01*
X153586913Y-94057459D01*
X153598464Y-94079070D01*
X153614010Y-94098012D01*
X153632948Y-94113553D01*
X153721613Y-94172798D01*
X153841902Y-94293087D01*
X153936413Y-94434532D01*
X154001513Y-94591697D01*
X154034700Y-94758543D01*
X154034700Y-94928657D01*
X154001513Y-95095503D01*
X153936413Y-95252668D01*
X153841902Y-95394113D01*
X153721613Y-95514402D01*
X153580168Y-95608913D01*
X153423003Y-95674013D01*
X153256157Y-95707200D01*
X153086043Y-95707200D01*
X152919197Y-95674013D01*
X152762032Y-95608913D01*
X152620587Y-95514402D01*
X152500298Y-95394113D01*
X152405787Y-95252668D01*
X152340687Y-95095503D01*
X152307500Y-94928657D01*
X152307500Y-94758543D01*
X152340687Y-94591697D01*
X152405787Y-94434532D01*
X152500298Y-94293087D01*
X152620587Y-94172798D01*
X152709252Y-94113553D01*
X152728190Y-94098012D01*
X152743736Y-94079070D01*
X152755287Y-94057459D01*
X152762400Y-94034011D01*
X152764802Y-94009624D01*
X152762400Y-93985238D01*
X152755287Y-93961789D01*
X152743736Y-93940179D01*
X152675722Y-93838389D01*
X152675720Y-93838386D01*
X152654651Y-93787520D01*
X152633580Y-93736651D01*
X152612100Y-93628659D01*
X152612100Y-93518541D01*
X152633580Y-93410549D01*
X152654651Y-93359680D01*
X152675720Y-93308814D01*
X152736896Y-93217258D01*
X152814758Y-93139396D01*
X152906314Y-93078220D01*
X152957180Y-93057151D01*
X153008049Y-93036080D01*
X153116041Y-93014600D01*
X153226159Y-93014600D01*
X153334151Y-93036080D01*
X153334151Y-93036080D01*
G37*
G36*
X150794151Y-93036080D02*
G01*
X150845020Y-93057151D01*
X150895886Y-93078220D01*
X150987442Y-93139396D01*
X151065304Y-93217258D01*
X151126480Y-93308814D01*
X151147549Y-93359680D01*
X151168620Y-93410549D01*
X151190100Y-93518541D01*
X151190100Y-93628659D01*
X151168620Y-93736651D01*
X151147549Y-93787520D01*
X151126480Y-93838386D01*
X151126478Y-93838389D01*
X151058464Y-93940179D01*
X151046913Y-93961789D01*
X151039800Y-93985238D01*
X151037398Y-94009624D01*
X151039800Y-94034010D01*
X151046913Y-94057459D01*
X151058464Y-94079070D01*
X151074010Y-94098012D01*
X151092948Y-94113553D01*
X151181613Y-94172798D01*
X151301902Y-94293087D01*
X151396413Y-94434532D01*
X151461513Y-94591697D01*
X151494700Y-94758543D01*
X151494700Y-94928657D01*
X151461513Y-95095503D01*
X151396413Y-95252668D01*
X151301902Y-95394113D01*
X151181613Y-95514402D01*
X151040168Y-95608913D01*
X150883003Y-95674013D01*
X150716157Y-95707200D01*
X150546043Y-95707200D01*
X150379197Y-95674013D01*
X150222032Y-95608913D01*
X150080587Y-95514402D01*
X149960298Y-95394113D01*
X149865787Y-95252668D01*
X149800687Y-95095503D01*
X149767500Y-94928657D01*
X149767500Y-94758543D01*
X149800687Y-94591697D01*
X149865787Y-94434532D01*
X149960298Y-94293087D01*
X150080587Y-94172798D01*
X150169252Y-94113553D01*
X150188190Y-94098012D01*
X150203736Y-94079070D01*
X150215287Y-94057459D01*
X150222400Y-94034011D01*
X150224802Y-94009624D01*
X150222400Y-93985238D01*
X150215287Y-93961789D01*
X150203736Y-93940179D01*
X150135722Y-93838389D01*
X150135720Y-93838386D01*
X150114651Y-93787520D01*
X150093580Y-93736651D01*
X150072100Y-93628659D01*
X150072100Y-93518541D01*
X150093580Y-93410549D01*
X150114651Y-93359680D01*
X150135720Y-93308814D01*
X150196896Y-93217258D01*
X150274758Y-93139396D01*
X150366314Y-93078220D01*
X150417180Y-93057151D01*
X150468049Y-93036080D01*
X150576041Y-93014600D01*
X150686159Y-93014600D01*
X150794151Y-93036080D01*
X150794151Y-93036080D01*
G37*
G36*
X148254151Y-93036080D02*
G01*
X148305020Y-93057151D01*
X148355886Y-93078220D01*
X148447442Y-93139396D01*
X148525304Y-93217258D01*
X148586480Y-93308814D01*
X148607549Y-93359680D01*
X148628620Y-93410549D01*
X148650100Y-93518541D01*
X148650100Y-93628659D01*
X148628620Y-93736651D01*
X148607549Y-93787520D01*
X148586480Y-93838386D01*
X148586478Y-93838389D01*
X148518464Y-93940179D01*
X148506913Y-93961789D01*
X148499800Y-93985238D01*
X148497398Y-94009624D01*
X148499800Y-94034010D01*
X148506913Y-94057459D01*
X148518464Y-94079070D01*
X148534010Y-94098012D01*
X148552948Y-94113553D01*
X148641613Y-94172798D01*
X148761902Y-94293087D01*
X148856413Y-94434532D01*
X148921513Y-94591697D01*
X148954700Y-94758543D01*
X148954700Y-94928657D01*
X148921513Y-95095503D01*
X148856413Y-95252668D01*
X148761902Y-95394113D01*
X148641613Y-95514402D01*
X148500168Y-95608913D01*
X148343003Y-95674013D01*
X148176157Y-95707200D01*
X148006043Y-95707200D01*
X147839197Y-95674013D01*
X147682032Y-95608913D01*
X147540587Y-95514402D01*
X147420298Y-95394113D01*
X147325787Y-95252668D01*
X147260687Y-95095503D01*
X147227500Y-94928657D01*
X147227500Y-94758543D01*
X147260687Y-94591697D01*
X147325787Y-94434532D01*
X147420298Y-94293087D01*
X147540587Y-94172798D01*
X147629252Y-94113553D01*
X147648190Y-94098012D01*
X147663736Y-94079070D01*
X147675287Y-94057459D01*
X147682400Y-94034011D01*
X147684802Y-94009624D01*
X147682400Y-93985238D01*
X147675287Y-93961789D01*
X147663736Y-93940179D01*
X147595722Y-93838389D01*
X147595720Y-93838386D01*
X147574651Y-93787520D01*
X147553580Y-93736651D01*
X147532100Y-93628659D01*
X147532100Y-93518541D01*
X147553580Y-93410549D01*
X147574651Y-93359680D01*
X147595720Y-93308814D01*
X147656896Y-93217258D01*
X147734758Y-93139396D01*
X147826314Y-93078220D01*
X147877180Y-93057151D01*
X147928049Y-93036080D01*
X148036041Y-93014600D01*
X148146159Y-93014600D01*
X148254151Y-93036080D01*
X148254151Y-93036080D01*
G37*
G36*
X145714151Y-93036080D02*
G01*
X145765020Y-93057151D01*
X145815886Y-93078220D01*
X145907442Y-93139396D01*
X145985304Y-93217258D01*
X146046480Y-93308814D01*
X146067549Y-93359680D01*
X146088620Y-93410549D01*
X146110100Y-93518541D01*
X146110100Y-93628659D01*
X146088620Y-93736651D01*
X146067549Y-93787520D01*
X146046480Y-93838386D01*
X146046478Y-93838389D01*
X145978464Y-93940179D01*
X145966913Y-93961789D01*
X145959800Y-93985238D01*
X145957398Y-94009624D01*
X145959800Y-94034010D01*
X145966913Y-94057459D01*
X145978464Y-94079070D01*
X145994010Y-94098012D01*
X146012948Y-94113553D01*
X146101613Y-94172798D01*
X146221902Y-94293087D01*
X146316413Y-94434532D01*
X146381513Y-94591697D01*
X146414700Y-94758543D01*
X146414700Y-94928657D01*
X146381513Y-95095503D01*
X146316413Y-95252668D01*
X146221902Y-95394113D01*
X146101613Y-95514402D01*
X145960168Y-95608913D01*
X145803003Y-95674013D01*
X145636157Y-95707200D01*
X145466043Y-95707200D01*
X145299197Y-95674013D01*
X145142032Y-95608913D01*
X145000587Y-95514402D01*
X144880298Y-95394113D01*
X144785787Y-95252668D01*
X144720687Y-95095503D01*
X144687500Y-94928657D01*
X144687500Y-94758543D01*
X144720687Y-94591697D01*
X144785787Y-94434532D01*
X144880298Y-94293087D01*
X145000587Y-94172798D01*
X145089252Y-94113553D01*
X145108190Y-94098012D01*
X145123736Y-94079070D01*
X145135287Y-94057459D01*
X145142400Y-94034011D01*
X145144802Y-94009624D01*
X145142400Y-93985238D01*
X145135287Y-93961789D01*
X145123736Y-93940179D01*
X145055722Y-93838389D01*
X145055720Y-93838386D01*
X145034651Y-93787520D01*
X145013580Y-93736651D01*
X144992100Y-93628659D01*
X144992100Y-93518541D01*
X145013580Y-93410549D01*
X145034651Y-93359680D01*
X145055720Y-93308814D01*
X145116896Y-93217258D01*
X145194758Y-93139396D01*
X145286314Y-93078220D01*
X145337180Y-93057151D01*
X145388049Y-93036080D01*
X145496041Y-93014600D01*
X145606159Y-93014600D01*
X145714151Y-93036080D01*
X145714151Y-93036080D01*
G37*
G36*
X143174151Y-93036080D02*
G01*
X143225020Y-93057151D01*
X143275886Y-93078220D01*
X143367442Y-93139396D01*
X143445304Y-93217258D01*
X143506480Y-93308814D01*
X143527549Y-93359680D01*
X143548620Y-93410549D01*
X143570100Y-93518541D01*
X143570100Y-93628659D01*
X143548620Y-93736651D01*
X143527549Y-93787520D01*
X143506480Y-93838386D01*
X143506478Y-93838389D01*
X143438464Y-93940179D01*
X143426913Y-93961789D01*
X143419800Y-93985238D01*
X143417398Y-94009624D01*
X143419800Y-94034010D01*
X143426913Y-94057459D01*
X143438464Y-94079070D01*
X143454010Y-94098012D01*
X143472948Y-94113553D01*
X143561613Y-94172798D01*
X143681902Y-94293087D01*
X143776413Y-94434532D01*
X143841513Y-94591697D01*
X143874700Y-94758543D01*
X143874700Y-94928657D01*
X143841513Y-95095503D01*
X143776413Y-95252668D01*
X143681902Y-95394113D01*
X143561613Y-95514402D01*
X143420168Y-95608913D01*
X143263003Y-95674013D01*
X143096157Y-95707200D01*
X142926043Y-95707200D01*
X142759197Y-95674013D01*
X142602032Y-95608913D01*
X142460587Y-95514402D01*
X142340298Y-95394113D01*
X142245787Y-95252668D01*
X142180687Y-95095503D01*
X142147500Y-94928657D01*
X142147500Y-94758543D01*
X142180687Y-94591697D01*
X142245787Y-94434532D01*
X142340298Y-94293087D01*
X142460587Y-94172798D01*
X142549252Y-94113553D01*
X142568190Y-94098012D01*
X142583736Y-94079070D01*
X142595287Y-94057459D01*
X142602400Y-94034011D01*
X142604802Y-94009624D01*
X142602400Y-93985238D01*
X142595287Y-93961789D01*
X142583736Y-93940179D01*
X142515722Y-93838389D01*
X142515720Y-93838386D01*
X142494651Y-93787520D01*
X142473580Y-93736651D01*
X142452100Y-93628659D01*
X142452100Y-93518541D01*
X142473580Y-93410549D01*
X142494651Y-93359680D01*
X142515720Y-93308814D01*
X142576896Y-93217258D01*
X142654758Y-93139396D01*
X142746314Y-93078220D01*
X142797180Y-93057151D01*
X142848049Y-93036080D01*
X142956041Y-93014600D01*
X143066159Y-93014600D01*
X143174151Y-93036080D01*
X143174151Y-93036080D01*
G37*
G36*
X140634151Y-93036080D02*
G01*
X140685020Y-93057151D01*
X140735886Y-93078220D01*
X140827442Y-93139396D01*
X140905304Y-93217258D01*
X140966480Y-93308814D01*
X140987549Y-93359680D01*
X141008620Y-93410549D01*
X141030100Y-93518541D01*
X141030100Y-93628659D01*
X141008620Y-93736651D01*
X140987549Y-93787520D01*
X140966480Y-93838386D01*
X140966478Y-93838389D01*
X140898464Y-93940179D01*
X140886913Y-93961789D01*
X140879800Y-93985238D01*
X140877398Y-94009624D01*
X140879800Y-94034010D01*
X140886913Y-94057459D01*
X140898464Y-94079070D01*
X140914010Y-94098012D01*
X140932948Y-94113553D01*
X141021613Y-94172798D01*
X141141902Y-94293087D01*
X141236413Y-94434532D01*
X141301513Y-94591697D01*
X141334700Y-94758543D01*
X141334700Y-94928657D01*
X141301513Y-95095503D01*
X141236413Y-95252668D01*
X141141902Y-95394113D01*
X141021613Y-95514402D01*
X140880168Y-95608913D01*
X140723003Y-95674013D01*
X140556157Y-95707200D01*
X140386043Y-95707200D01*
X140219197Y-95674013D01*
X140062032Y-95608913D01*
X139920587Y-95514402D01*
X139800298Y-95394113D01*
X139705787Y-95252668D01*
X139640687Y-95095503D01*
X139607500Y-94928657D01*
X139607500Y-94758543D01*
X139640687Y-94591697D01*
X139705787Y-94434532D01*
X139800298Y-94293087D01*
X139920587Y-94172798D01*
X140009252Y-94113553D01*
X140028190Y-94098012D01*
X140043736Y-94079070D01*
X140055287Y-94057459D01*
X140062400Y-94034011D01*
X140064802Y-94009624D01*
X140062400Y-93985238D01*
X140055287Y-93961789D01*
X140043736Y-93940179D01*
X139975722Y-93838389D01*
X139975720Y-93838386D01*
X139954651Y-93787520D01*
X139933580Y-93736651D01*
X139912100Y-93628659D01*
X139912100Y-93518541D01*
X139933580Y-93410549D01*
X139954651Y-93359680D01*
X139975720Y-93308814D01*
X140036896Y-93217258D01*
X140114758Y-93139396D01*
X140206314Y-93078220D01*
X140257180Y-93057151D01*
X140308049Y-93036080D01*
X140416041Y-93014600D01*
X140526159Y-93014600D01*
X140634151Y-93036080D01*
X140634151Y-93036080D01*
G37*
G36*
X138094151Y-93036080D02*
G01*
X138145020Y-93057151D01*
X138195886Y-93078220D01*
X138287442Y-93139396D01*
X138365304Y-93217258D01*
X138426480Y-93308814D01*
X138447549Y-93359680D01*
X138468620Y-93410549D01*
X138490100Y-93518541D01*
X138490100Y-93628659D01*
X138468620Y-93736651D01*
X138447549Y-93787520D01*
X138426480Y-93838386D01*
X138426478Y-93838389D01*
X138358464Y-93940179D01*
X138346913Y-93961789D01*
X138339800Y-93985238D01*
X138337398Y-94009624D01*
X138339800Y-94034010D01*
X138346913Y-94057459D01*
X138358464Y-94079070D01*
X138374010Y-94098012D01*
X138392948Y-94113553D01*
X138481613Y-94172798D01*
X138601902Y-94293087D01*
X138696413Y-94434532D01*
X138761513Y-94591697D01*
X138794700Y-94758543D01*
X138794700Y-94928657D01*
X138761513Y-95095503D01*
X138696413Y-95252668D01*
X138601902Y-95394113D01*
X138481613Y-95514402D01*
X138340168Y-95608913D01*
X138183003Y-95674013D01*
X138016157Y-95707200D01*
X137846043Y-95707200D01*
X137679197Y-95674013D01*
X137522032Y-95608913D01*
X137380587Y-95514402D01*
X137260298Y-95394113D01*
X137165787Y-95252668D01*
X137100687Y-95095503D01*
X137067500Y-94928657D01*
X137067500Y-94758543D01*
X137100687Y-94591697D01*
X137165787Y-94434532D01*
X137260298Y-94293087D01*
X137380587Y-94172798D01*
X137469252Y-94113553D01*
X137488190Y-94098012D01*
X137503736Y-94079070D01*
X137515287Y-94057459D01*
X137522400Y-94034011D01*
X137524802Y-94009624D01*
X137522400Y-93985238D01*
X137515287Y-93961789D01*
X137503736Y-93940179D01*
X137435722Y-93838389D01*
X137435720Y-93838386D01*
X137414651Y-93787520D01*
X137393580Y-93736651D01*
X137372100Y-93628659D01*
X137372100Y-93518541D01*
X137393580Y-93410549D01*
X137414651Y-93359680D01*
X137435720Y-93308814D01*
X137496896Y-93217258D01*
X137574758Y-93139396D01*
X137666314Y-93078220D01*
X137717180Y-93057151D01*
X137768049Y-93036080D01*
X137876041Y-93014600D01*
X137986159Y-93014600D01*
X138094151Y-93036080D01*
X138094151Y-93036080D01*
G37*
G36*
X135554151Y-93036080D02*
G01*
X135605020Y-93057151D01*
X135655886Y-93078220D01*
X135747442Y-93139396D01*
X135825304Y-93217258D01*
X135886480Y-93308814D01*
X135907549Y-93359680D01*
X135928620Y-93410549D01*
X135950100Y-93518541D01*
X135950100Y-93628659D01*
X135928620Y-93736651D01*
X135907549Y-93787520D01*
X135886480Y-93838386D01*
X135886478Y-93838389D01*
X135818464Y-93940179D01*
X135806913Y-93961789D01*
X135799800Y-93985238D01*
X135797398Y-94009624D01*
X135799800Y-94034010D01*
X135806913Y-94057459D01*
X135818464Y-94079070D01*
X135834010Y-94098012D01*
X135852948Y-94113553D01*
X135941613Y-94172798D01*
X136061902Y-94293087D01*
X136156413Y-94434532D01*
X136221513Y-94591697D01*
X136254700Y-94758543D01*
X136254700Y-94928657D01*
X136221513Y-95095503D01*
X136156413Y-95252668D01*
X136061902Y-95394113D01*
X135941613Y-95514402D01*
X135800168Y-95608913D01*
X135643003Y-95674013D01*
X135476157Y-95707200D01*
X135306043Y-95707200D01*
X135139197Y-95674013D01*
X134982032Y-95608913D01*
X134840587Y-95514402D01*
X134720298Y-95394113D01*
X134625787Y-95252668D01*
X134560687Y-95095503D01*
X134527500Y-94928657D01*
X134527500Y-94758543D01*
X134560687Y-94591697D01*
X134625787Y-94434532D01*
X134720298Y-94293087D01*
X134840587Y-94172798D01*
X134929252Y-94113553D01*
X134948190Y-94098012D01*
X134963736Y-94079070D01*
X134975287Y-94057459D01*
X134982400Y-94034011D01*
X134984802Y-94009624D01*
X134982400Y-93985238D01*
X134975287Y-93961789D01*
X134963736Y-93940179D01*
X134895722Y-93838389D01*
X134895720Y-93838386D01*
X134874651Y-93787520D01*
X134853580Y-93736651D01*
X134832100Y-93628659D01*
X134832100Y-93518541D01*
X134853580Y-93410549D01*
X134874651Y-93359680D01*
X134895720Y-93308814D01*
X134956896Y-93217258D01*
X135034758Y-93139396D01*
X135126314Y-93078220D01*
X135177180Y-93057151D01*
X135228049Y-93036080D01*
X135336041Y-93014600D01*
X135446159Y-93014600D01*
X135554151Y-93036080D01*
X135554151Y-93036080D01*
G37*
G36*
X133014151Y-93036080D02*
G01*
X133065020Y-93057151D01*
X133115886Y-93078220D01*
X133207442Y-93139396D01*
X133285304Y-93217258D01*
X133346480Y-93308814D01*
X133367549Y-93359680D01*
X133388620Y-93410549D01*
X133410100Y-93518541D01*
X133410100Y-93628659D01*
X133388620Y-93736651D01*
X133367549Y-93787520D01*
X133346480Y-93838386D01*
X133346478Y-93838389D01*
X133278464Y-93940179D01*
X133266913Y-93961789D01*
X133259800Y-93985238D01*
X133257398Y-94009624D01*
X133259800Y-94034010D01*
X133266913Y-94057459D01*
X133278464Y-94079070D01*
X133294010Y-94098012D01*
X133312948Y-94113553D01*
X133401613Y-94172798D01*
X133521902Y-94293087D01*
X133616413Y-94434532D01*
X133681513Y-94591697D01*
X133714700Y-94758543D01*
X133714700Y-94928657D01*
X133681513Y-95095503D01*
X133616413Y-95252668D01*
X133521902Y-95394113D01*
X133401613Y-95514402D01*
X133260168Y-95608913D01*
X133103003Y-95674013D01*
X132936157Y-95707200D01*
X132766043Y-95707200D01*
X132599197Y-95674013D01*
X132442032Y-95608913D01*
X132300587Y-95514402D01*
X132180298Y-95394113D01*
X132085787Y-95252668D01*
X132020687Y-95095503D01*
X131987500Y-94928657D01*
X131987500Y-94758543D01*
X132020687Y-94591697D01*
X132085787Y-94434532D01*
X132180298Y-94293087D01*
X132300587Y-94172798D01*
X132389252Y-94113553D01*
X132408190Y-94098012D01*
X132423736Y-94079070D01*
X132435287Y-94057459D01*
X132442400Y-94034011D01*
X132444802Y-94009624D01*
X132442400Y-93985238D01*
X132435287Y-93961789D01*
X132423736Y-93940179D01*
X132355722Y-93838389D01*
X132355720Y-93838386D01*
X132334651Y-93787520D01*
X132313580Y-93736651D01*
X132292100Y-93628659D01*
X132292100Y-93518541D01*
X132313580Y-93410549D01*
X132334651Y-93359680D01*
X132355720Y-93308814D01*
X132416896Y-93217258D01*
X132494758Y-93139396D01*
X132586314Y-93078220D01*
X132637180Y-93057151D01*
X132688049Y-93036080D01*
X132796041Y-93014600D01*
X132906159Y-93014600D01*
X133014151Y-93036080D01*
X133014151Y-93036080D01*
G37*
G36*
X130474151Y-93036080D02*
G01*
X130525020Y-93057151D01*
X130575886Y-93078220D01*
X130667442Y-93139396D01*
X130745304Y-93217258D01*
X130806480Y-93308814D01*
X130827549Y-93359680D01*
X130848620Y-93410549D01*
X130870100Y-93518541D01*
X130870100Y-93628659D01*
X130848620Y-93736651D01*
X130827549Y-93787520D01*
X130806480Y-93838386D01*
X130806478Y-93838389D01*
X130738464Y-93940179D01*
X130726913Y-93961789D01*
X130719800Y-93985238D01*
X130717398Y-94009624D01*
X130719800Y-94034010D01*
X130726913Y-94057459D01*
X130738464Y-94079070D01*
X130754010Y-94098012D01*
X130772948Y-94113553D01*
X130861613Y-94172798D01*
X130981902Y-94293087D01*
X131076413Y-94434532D01*
X131141513Y-94591697D01*
X131174700Y-94758543D01*
X131174700Y-94928657D01*
X131141513Y-95095503D01*
X131076413Y-95252668D01*
X130981902Y-95394113D01*
X130861613Y-95514402D01*
X130720168Y-95608913D01*
X130563003Y-95674013D01*
X130396157Y-95707200D01*
X130226043Y-95707200D01*
X130059197Y-95674013D01*
X129902032Y-95608913D01*
X129760587Y-95514402D01*
X129640298Y-95394113D01*
X129545787Y-95252668D01*
X129480687Y-95095503D01*
X129447500Y-94928657D01*
X129447500Y-94758543D01*
X129480687Y-94591697D01*
X129545787Y-94434532D01*
X129640298Y-94293087D01*
X129760587Y-94172798D01*
X129849252Y-94113553D01*
X129868190Y-94098012D01*
X129883736Y-94079070D01*
X129895287Y-94057459D01*
X129902400Y-94034011D01*
X129904802Y-94009624D01*
X129902400Y-93985238D01*
X129895287Y-93961789D01*
X129883736Y-93940179D01*
X129815722Y-93838389D01*
X129815720Y-93838386D01*
X129794651Y-93787520D01*
X129773580Y-93736651D01*
X129752100Y-93628659D01*
X129752100Y-93518541D01*
X129773580Y-93410549D01*
X129794651Y-93359680D01*
X129815720Y-93308814D01*
X129876896Y-93217258D01*
X129954758Y-93139396D01*
X130046314Y-93078220D01*
X130097180Y-93057151D01*
X130148049Y-93036080D01*
X130256041Y-93014600D01*
X130366159Y-93014600D01*
X130474151Y-93036080D01*
X130474151Y-93036080D01*
G37*
G36*
X166034151Y-93036080D02*
G01*
X166085020Y-93057151D01*
X166135886Y-93078220D01*
X166227442Y-93139396D01*
X166305304Y-93217258D01*
X166366480Y-93308814D01*
X166387549Y-93359680D01*
X166408620Y-93410549D01*
X166430100Y-93518541D01*
X166430100Y-93628659D01*
X166408620Y-93736651D01*
X166387549Y-93787520D01*
X166366480Y-93838386D01*
X166366478Y-93838389D01*
X166298464Y-93940179D01*
X166286913Y-93961789D01*
X166279800Y-93985238D01*
X166277398Y-94009624D01*
X166279800Y-94034010D01*
X166286913Y-94057459D01*
X166298464Y-94079070D01*
X166314010Y-94098012D01*
X166332948Y-94113553D01*
X166421613Y-94172798D01*
X166541902Y-94293087D01*
X166636413Y-94434532D01*
X166701513Y-94591697D01*
X166734700Y-94758543D01*
X166734700Y-94928657D01*
X166701513Y-95095503D01*
X166636413Y-95252668D01*
X166541902Y-95394113D01*
X166421613Y-95514402D01*
X166280168Y-95608913D01*
X166123003Y-95674013D01*
X165956157Y-95707200D01*
X165786043Y-95707200D01*
X165619197Y-95674013D01*
X165462032Y-95608913D01*
X165320587Y-95514402D01*
X165200298Y-95394113D01*
X165105787Y-95252668D01*
X165040687Y-95095503D01*
X165007500Y-94928657D01*
X165007500Y-94758543D01*
X165040687Y-94591697D01*
X165105787Y-94434532D01*
X165200298Y-94293087D01*
X165320587Y-94172798D01*
X165409252Y-94113553D01*
X165428190Y-94098012D01*
X165443736Y-94079070D01*
X165455287Y-94057459D01*
X165462400Y-94034011D01*
X165464802Y-94009624D01*
X165462400Y-93985238D01*
X165455287Y-93961789D01*
X165443736Y-93940179D01*
X165375722Y-93838389D01*
X165375720Y-93838386D01*
X165354651Y-93787520D01*
X165333580Y-93736651D01*
X165312100Y-93628659D01*
X165312100Y-93518541D01*
X165333580Y-93410549D01*
X165354651Y-93359680D01*
X165375720Y-93308814D01*
X165436896Y-93217258D01*
X165514758Y-93139396D01*
X165606314Y-93078220D01*
X165657180Y-93057151D01*
X165708049Y-93036080D01*
X165816041Y-93014600D01*
X165926159Y-93014600D01*
X166034151Y-93036080D01*
X166034151Y-93036080D01*
G37*
M02*
