G04 Layer_Color=16711935*
%FSLAX24Y24*%
%MOIN*%
G70*
G01*
G75*
%ADD62C,0.0240*%
%ADD70R,0.0787X0.0787*%
%ADD81C,0.0787*%
%ADD82C,0.0769*%
%ADD83R,0.0296X0.0257*%
%ADD85C,0.0139*%
%ADD86R,0.0769X0.0592*%
%ADD87R,0.0500X0.0592*%
%ADD88C,0.0450*%
%ADD89R,0.0500X0.0158*%
%ADD90R,0.0769X0.0158*%
%ADD91R,0.0769X0.0631*%
%ADD92C,0.0454*%
%ADD93C,0.0370*%
%ADD94R,0.1005X0.0359*%
%ADD95C,0.0375*%
D62*
X9550Y1601D02*
G03*
X9550Y1601I-110J0D01*
G01*
X9010Y1611D02*
G03*
X9010Y1611I-110J0D01*
G01*
Y1589D02*
G03*
X9010Y1589I-110J0D01*
G01*
D70*
X14173Y1575D02*
D03*
D81*
X2820Y-850D02*
D03*
D82*
X13250Y-2000D02*
D03*
Y2000D02*
D03*
D83*
X3447Y2190D02*
D03*
X3053D02*
D03*
X4447D02*
D03*
X4053D02*
D03*
D85*
X9440Y1723D02*
D03*
Y1477D02*
D03*
X8900Y1733D02*
D03*
Y1467D02*
D03*
D86*
X9250Y-2734D02*
D03*
X11250D02*
D03*
X3250Y2734D02*
D03*
X4250D02*
D03*
X7250D02*
D03*
X6250D02*
D03*
X5250D02*
D03*
X3250Y-2734D02*
D03*
X4250D02*
D03*
X5250D02*
D03*
X6250D02*
D03*
X7250D02*
D03*
X8250D02*
D03*
X10250D02*
D03*
X11250Y2734D02*
D03*
X10250D02*
D03*
X8250D02*
D03*
X9250D02*
D03*
D87*
X2250Y-2734D02*
D03*
Y2734D02*
D03*
D88*
X12050Y-1500D02*
D03*
X12850D02*
D03*
X12450Y1500D02*
D03*
D89*
X2250Y3050D02*
D03*
Y-3050D02*
D03*
D90*
X3250D02*
D03*
X4250D02*
D03*
X5250D02*
D03*
X6250D02*
D03*
X7250D02*
D03*
X8250D02*
D03*
X9250D02*
D03*
X10250D02*
D03*
X11250D02*
D03*
X13250Y-2416D02*
D03*
Y2416D02*
D03*
X11250Y3050D02*
D03*
X10250D02*
D03*
X9250D02*
D03*
X8250D02*
D03*
X7250D02*
D03*
X6250D02*
D03*
X5250D02*
D03*
X4250D02*
D03*
X3250D02*
D03*
D91*
X13250Y-2081D02*
D03*
Y2081D02*
D03*
D92*
X13780Y886D02*
D03*
X5315Y-1181D02*
D03*
X7087Y1181D02*
D03*
X11024Y-984D02*
D03*
Y-1575D02*
D03*
X13780Y295D02*
D03*
Y-295D02*
D03*
Y-886D02*
D03*
X7087Y-1181D02*
D03*
X5315Y591D02*
D03*
Y1181D02*
D03*
X5906D02*
D03*
Y591D02*
D03*
Y-1181D02*
D03*
X7677Y1181D02*
D03*
D93*
X12200Y-1000D02*
D03*
Y-500D02*
D03*
Y500D02*
D03*
Y0D02*
D03*
Y1000D02*
D03*
X12700Y-1000D02*
D03*
Y-500D02*
D03*
Y0D02*
D03*
Y500D02*
D03*
Y1000D02*
D03*
D94*
X10168Y-1000D02*
D03*
Y-500D02*
D03*
Y0D02*
D03*
Y500D02*
D03*
Y1000D02*
D03*
X8632Y-1000D02*
D03*
Y-500D02*
D03*
Y0D02*
D03*
Y500D02*
D03*
Y1000D02*
D03*
D95*
X13169Y295D02*
D03*
Y-295D02*
D03*
M02*
