G04 Layer_Color=32896*
%FSLAX24Y24*%
%MOIN*%
G70*
G01*
G75*
%ADD11C,0.0080*%
%ADD12C,0.0090*%
%ADD40C,0.0100*%
%ADD44C,0.0150*%
%ADD97C,0.0072*%
D11*
X26640Y-3892D02*
X27265Y-4517D01*
X27372Y3490D02*
X28722Y3290D01*
X28672Y3340D02*
Y3640D01*
X27272Y3490D02*
X28772Y3240D01*
Y3740D01*
X28722Y3690D02*
X28722Y3290D01*
X27472Y3490D02*
X28672Y3340D01*
X28622Y3390D02*
Y3590D01*
X27472Y3490D02*
X28672Y3640D01*
X27372Y3490D02*
X28722Y3690D01*
X28572Y3540D02*
X28572Y3440D01*
X27672Y3490D02*
X28572Y3440D01*
X27572Y3490D02*
X28622Y3390D01*
X27672Y3490D02*
X28572Y3540D01*
X27572Y3490D02*
X28622Y3590D01*
X27272Y3490D02*
X30222D01*
X27272D02*
X28772Y3740D01*
X33541Y-12843D02*
X34283Y-11889D01*
X33541Y-12773D02*
X34213Y-11959D01*
X33541Y-12985D02*
X34425Y-11747D01*
X33541Y-12702D02*
X34142Y-12030D01*
X33470Y-12631D02*
X33541Y-12702D01*
X33541Y-12914D02*
X34354Y-11818D01*
X33329Y-12631D02*
X34283Y-11889D01*
X33399Y-12631D02*
X34213Y-11959D01*
X33258Y-12631D02*
X34354Y-11818D01*
X33187Y-12631D02*
X34425Y-11747D01*
X32250Y-13922D02*
X34425Y-11747D01*
X33258Y-12631D02*
X33541Y-12914D01*
X33329Y-12631D02*
X33541Y-12843D01*
X33187Y-12631D02*
X33541Y-12985D01*
X33470Y-12631D02*
X34142Y-12030D01*
X33399Y-12631D02*
X33541Y-12773D01*
X28088Y-5342D02*
X34987Y-12240D01*
X27463Y-4717D02*
X28088Y-5342D01*
X27264Y-4517D02*
X36265Y-4517D01*
X26640Y-3142D02*
X27262Y-2520D01*
X23640Y3483D02*
X26590D01*
X22640Y-3142D02*
X26140D01*
X22640Y-3892D02*
X26140D01*
X23240Y-1692D02*
X23540D01*
X23290Y-1742D02*
X23490D01*
X23140Y-1592D02*
X23640D01*
X23190Y-1642D02*
X23590D01*
X23240Y-1692D02*
X23390Y-2892D01*
X23290Y-1742D02*
X23390Y-2792D01*
X23140Y-1592D02*
X23390Y-3092D01*
X23190Y-1642D02*
X23390Y-2992D01*
X23340Y-1792D02*
X23390Y-2692D01*
X23340Y-1792D02*
X23440D01*
X23390Y-2792D02*
X23490Y-1742D01*
X23390Y-2692D02*
X23440Y-1792D01*
X23390Y-3092D02*
Y-142D01*
Y-6892D02*
Y-3942D01*
Y-3092D02*
X23640Y-1592D01*
X23390Y-2992D02*
X23590Y-1642D01*
X23390Y-2892D02*
X23540Y-1692D01*
X23190Y-5392D02*
X23390Y-4042D01*
X23240Y-5342D02*
X23390Y-4142D01*
X23240Y-5342D02*
X23540D01*
X23190Y-5392D02*
X23590D01*
X23140Y-5442D02*
X23390Y-3942D01*
X23140Y-5442D02*
X23640Y-5442D01*
X23290Y-5292D02*
X23390Y-4242D01*
X23340Y-5242D02*
X23390Y-4342D01*
X23440Y-5242D01*
X23340D02*
X23440D01*
X23390Y-4242D02*
X23490Y-5292D01*
X23290Y-5292D02*
X23490Y-5292D01*
X23390Y-3942D02*
X23640Y-5442D01*
X23390Y-4042D02*
X23590Y-5392D01*
X23390Y-4142D02*
X23540Y-5342D01*
X25240Y3383D02*
Y3583D01*
X26290Y3483D01*
X25290Y3433D02*
Y3533D01*
X26190Y3483D01*
X25290Y3433D02*
X26190Y3483D01*
X25090Y3733D02*
X26590Y3483D01*
X25140Y3683D02*
X26490Y3483D01*
X25190Y3633D02*
X26390Y3483D01*
X25090Y3233D02*
Y3733D01*
X25140Y3283D02*
Y3683D01*
X25190Y3333D02*
Y3633D01*
X25240Y3383D02*
X26290Y3483D01*
X25190Y3333D02*
X26390Y3483D01*
X26640Y-2517D02*
Y4004D01*
X27264Y-2017D02*
Y4004D01*
X25090Y3233D02*
X26590Y3483D01*
X25140Y3283D02*
X26490Y3483D01*
X27264Y-2517D02*
X36265Y-2517D01*
X38640Y-2967D02*
X38890Y-4467D01*
Y-1392D01*
X36265Y-2517D02*
X36265Y-3142D01*
X38640Y-2967D02*
X39140D01*
X38890Y-4467D02*
X39140Y-2967D01*
X35640Y-3267D02*
X36265Y-3142D01*
X26640Y-3892D02*
Y-3142D01*
X35640Y-3267D02*
X37140Y-3892D01*
X36265Y-4517D02*
Y-3892D01*
X37140Y-3892D01*
X36640Y-4517D02*
X39640Y-4517D01*
X38740Y-3067D02*
X38890Y-4267D01*
X38790Y-3117D02*
X38890Y-4167D01*
X38840Y-3167D02*
X38890Y-4067D01*
X38840Y-3167D02*
X38940Y-3167D01*
X38890Y-4067D02*
X38940Y-3167D01*
X38690Y-3017D02*
X39090Y-3017D01*
X38740Y-3067D02*
X39040D01*
X38790Y-3117D02*
X38990D01*
X38890Y-4167D02*
X38990Y-3117D01*
X38890Y-4267D02*
X39040Y-3067D01*
X38690Y-3017D02*
X38890Y-4367D01*
X39090Y-3017D01*
X18305Y9176D02*
X18376Y9247D01*
X18412Y9354D01*
Y9497D01*
X18376Y9604D01*
X18305Y9675D01*
X18234D01*
X18162Y9640D01*
X18127Y9604D01*
X18091Y9533D01*
X18019Y9318D01*
X17984Y9247D01*
X17948Y9211D01*
X17877Y9176D01*
X17769D01*
X17698Y9247D01*
X17662Y9354D01*
Y9497D01*
X17698Y9604D01*
X17769Y9675D01*
X18412Y8544D02*
Y9008D01*
X17662D01*
Y8544D01*
X18055Y9008D02*
Y8722D01*
X18412Y7954D02*
Y8419D01*
X17662D01*
Y7954D01*
X18055Y8419D02*
Y8133D01*
X18412Y7240D02*
X17662D01*
X18412D02*
Y6990D01*
X18376Y6883D01*
X18305Y6812D01*
X18234Y6776D01*
X18127Y6740D01*
X17948D01*
X17841Y6776D01*
X17769Y6812D01*
X17698Y6883D01*
X17662Y6990D01*
Y7240D01*
X18412Y6108D02*
Y6573D01*
X17662D01*
Y6108D01*
X18055Y6573D02*
Y6287D01*
X18412Y5733D02*
X17662D01*
X18412Y5983D02*
Y5484D01*
X17662Y4823D02*
X18412Y5109D01*
X17662Y5394D01*
X17912Y5287D02*
Y4930D01*
X18412Y4648D02*
X17662D01*
X18412Y4491D02*
X17662D01*
Y4062D01*
Y2820D02*
X18412Y3105D01*
X17662Y3391D01*
X17912Y3284D02*
Y2927D01*
D12*
X23789Y-7774D02*
X23746Y-7646D01*
X23618Y-7560D01*
X23404Y-7517D01*
X23275D01*
X23061Y-7560D01*
X22932Y-7646D01*
X22890Y-7774D01*
Y-7860D01*
X22932Y-7988D01*
X23061Y-8074D01*
X23275Y-8117D01*
X23404D01*
X23618Y-8074D01*
X23746Y-7988D01*
X23789Y-7860D01*
Y-7774D01*
X22975Y-8361D02*
X22932Y-8318D01*
X22890Y-8361D01*
X22932Y-8404D01*
X22975Y-8361D01*
X23789Y-8858D02*
X23746Y-8730D01*
X23618Y-8644D01*
X23404Y-8601D01*
X23275D01*
X23061Y-8644D01*
X22932Y-8730D01*
X22890Y-8858D01*
Y-8944D01*
X22932Y-9073D01*
X23061Y-9158D01*
X23275Y-9201D01*
X23404D01*
X23618Y-9158D01*
X23746Y-9073D01*
X23789Y-8944D01*
Y-8858D01*
Y-9488D02*
Y-9959D01*
X23447Y-9702D01*
Y-9831D01*
X23404Y-9917D01*
X23361Y-9959D01*
X23232Y-10002D01*
X23147D01*
X23018Y-9959D01*
X22932Y-9874D01*
X22890Y-9745D01*
Y-9617D01*
X22932Y-9488D01*
X22975Y-9445D01*
X23061Y-9402D01*
X23789Y-10461D02*
X23746Y-10332D01*
X23618Y-10247D01*
X23404Y-10204D01*
X23275D01*
X23061Y-10247D01*
X22932Y-10332D01*
X22890Y-10461D01*
Y-10546D01*
X22932Y-10675D01*
X23061Y-10761D01*
X23275Y-10804D01*
X23404D01*
X23618Y-10761D01*
X23746Y-10675D01*
X23789Y-10546D01*
Y-10461D01*
Y-11091D02*
X23746Y-11134D01*
X23789Y-11176D01*
X23832Y-11134D01*
X23789Y-11091D01*
X23489Y-11134D02*
X22890D01*
X23489Y-11335D02*
X22890D01*
X23318D02*
X23447Y-11463D01*
X23489Y-11549D01*
Y-11678D01*
X23447Y-11763D01*
X23318Y-11806D01*
X22890D01*
X23704Y-12749D02*
X22847D01*
X23704Y-12792D02*
X22847D01*
X23704Y-12749D02*
Y-12963D01*
X22847Y-12749D02*
Y-12963D01*
X23789Y-13336D02*
X23746Y-13207D01*
X23618Y-13122D01*
X23404Y-13079D01*
X23275D01*
X23061Y-13122D01*
X22932Y-13207D01*
X22890Y-13336D01*
Y-13422D01*
X22932Y-13550D01*
X23061Y-13636D01*
X23275Y-13679D01*
X23404D01*
X23618Y-13636D01*
X23746Y-13550D01*
X23789Y-13422D01*
Y-13336D01*
X22975Y-13923D02*
X22932Y-13880D01*
X22890Y-13923D01*
X22932Y-13966D01*
X22975Y-13923D01*
X23789Y-14763D02*
X22890Y-14334D01*
X23789Y-14163D02*
Y-14763D01*
Y-15478D02*
Y-15050D01*
X23404Y-15007D01*
X23447Y-15050D01*
X23489Y-15178D01*
Y-15307D01*
X23447Y-15435D01*
X23361Y-15521D01*
X23232Y-15564D01*
X23147D01*
X23018Y-15521D01*
X22932Y-15435D01*
X22890Y-15307D01*
Y-15178D01*
X22932Y-15050D01*
X22975Y-15007D01*
X23061Y-14964D01*
X23489Y-15765D02*
X22890D01*
X23318D02*
X23447Y-15894D01*
X23489Y-15980D01*
Y-16108D01*
X23447Y-16194D01*
X23318Y-16237D01*
X22890D01*
X23318D02*
X23447Y-16365D01*
X23489Y-16451D01*
Y-16579D01*
X23447Y-16665D01*
X23318Y-16708D01*
X22890D01*
X23489Y-16991D02*
X22890D01*
X23318D02*
X23447Y-17119D01*
X23489Y-17205D01*
Y-17334D01*
X23447Y-17419D01*
X23318Y-17462D01*
X22890D01*
X23318D02*
X23447Y-17591D01*
X23489Y-17676D01*
Y-17805D01*
X23447Y-17891D01*
X23318Y-17933D01*
X22890D01*
X23704Y-18388D02*
X22847D01*
X23704Y-18431D02*
X22847D01*
X23704Y-18216D02*
Y-18431D01*
X22847Y-18216D02*
Y-18431D01*
X37038Y-7413D02*
X36438Y-6985D01*
Y-7627D01*
X37038Y-7413D02*
X36139D01*
X37038Y-8300D02*
Y-7872D01*
X36653Y-7829D01*
X36696Y-7872D01*
X36738Y-8000D01*
Y-8129D01*
X36696Y-8257D01*
X36610Y-8343D01*
X36481Y-8386D01*
X36396D01*
X36267Y-8343D01*
X36181Y-8257D01*
X36139Y-8129D01*
Y-8000D01*
X36181Y-7872D01*
X36224Y-7829D01*
X36310Y-7786D01*
X31329Y9503D02*
X31286Y9631D01*
X31158Y9717D01*
X30943Y9760D01*
X30815D01*
X30601Y9717D01*
X30472Y9631D01*
X30429Y9503D01*
Y9417D01*
X30472Y9288D01*
X30601Y9203D01*
X30815Y9160D01*
X30943D01*
X31158Y9203D01*
X31286Y9288D01*
X31329Y9417D01*
Y9503D01*
X30515Y8916D02*
X30472Y8958D01*
X30429Y8916D01*
X30472Y8873D01*
X30515Y8916D01*
X31329Y8419D02*
X31286Y8547D01*
X31158Y8633D01*
X30943Y8676D01*
X30815D01*
X30601Y8633D01*
X30472Y8547D01*
X30429Y8419D01*
Y8333D01*
X30472Y8204D01*
X30601Y8119D01*
X30815Y8076D01*
X30943D01*
X31158Y8119D01*
X31286Y8204D01*
X31329Y8333D01*
Y8419D01*
X31115Y7832D02*
X31158D01*
X31243Y7789D01*
X31286Y7746D01*
X31329Y7660D01*
Y7489D01*
X31286Y7403D01*
X31243Y7360D01*
X31158Y7317D01*
X31072D01*
X30986Y7360D01*
X30858Y7446D01*
X30429Y7874D01*
Y7275D01*
X31329Y6559D02*
Y6987D01*
X30943Y7030D01*
X30986Y6987D01*
X31029Y6859D01*
Y6730D01*
X30986Y6602D01*
X30901Y6516D01*
X30772Y6473D01*
X30686D01*
X30558Y6516D01*
X30472Y6602D01*
X30429Y6730D01*
Y6859D01*
X30472Y6987D01*
X30515Y7030D01*
X30601Y7073D01*
X31329Y6186D02*
X31286Y6143D01*
X31329Y6101D01*
X31372Y6143D01*
X31329Y6186D01*
X31029Y6143D02*
X30429D01*
X31029Y5942D02*
X30429D01*
X30858D02*
X30986Y5813D01*
X31029Y5728D01*
Y5599D01*
X30986Y5513D01*
X30858Y5471D01*
X30429D01*
X31243Y4528D02*
X30386D01*
X31243Y4485D02*
X30386D01*
X31243Y4528D02*
Y4314D01*
X30386Y4528D02*
Y4314D01*
X31329Y3941D02*
X31286Y4070D01*
X31158Y4155D01*
X30943Y4198D01*
X30815D01*
X30601Y4155D01*
X30472Y4070D01*
X30429Y3941D01*
Y3855D01*
X30472Y3727D01*
X30601Y3641D01*
X30815Y3598D01*
X30943D01*
X31158Y3641D01*
X31286Y3727D01*
X31329Y3855D01*
Y3941D01*
X30515Y3354D02*
X30472Y3397D01*
X30429Y3354D01*
X30472Y3311D01*
X30515Y3354D01*
X31201Y2600D02*
X31286Y2643D01*
X31329Y2771D01*
Y2857D01*
X31286Y2985D01*
X31158Y3071D01*
X30943Y3114D01*
X30729D01*
X30558Y3071D01*
X30472Y2985D01*
X30429Y2857D01*
Y2814D01*
X30472Y2686D01*
X30558Y2600D01*
X30686Y2557D01*
X30729D01*
X30858Y2600D01*
X30943Y2686D01*
X30986Y2814D01*
Y2857D01*
X30943Y2985D01*
X30858Y3071D01*
X30729Y3114D01*
X31115Y2317D02*
X31158D01*
X31243Y2274D01*
X31286Y2231D01*
X31329Y2146D01*
Y1974D01*
X31286Y1889D01*
X31243Y1846D01*
X31158Y1803D01*
X31072D01*
X30986Y1846D01*
X30858Y1931D01*
X30429Y2360D01*
Y1760D01*
X31329Y1044D02*
Y1473D01*
X30943Y1516D01*
X30986Y1473D01*
X31029Y1344D01*
Y1216D01*
X30986Y1087D01*
X30901Y1002D01*
X30772Y959D01*
X30686D01*
X30558Y1002D01*
X30472Y1087D01*
X30429Y1216D01*
Y1344D01*
X30472Y1473D01*
X30515Y1516D01*
X30601Y1559D01*
X31029Y757D02*
X30429D01*
X30858D02*
X30986Y629D01*
X31029Y543D01*
Y415D01*
X30986Y329D01*
X30858Y286D01*
X30429D01*
X30858D02*
X30986Y158D01*
X31029Y72D01*
Y-57D01*
X30986Y-142D01*
X30858Y-185D01*
X30429D01*
X31029Y-468D02*
X30429D01*
X30858D02*
X30986Y-597D01*
X31029Y-682D01*
Y-811D01*
X30986Y-897D01*
X30858Y-939D01*
X30429D01*
X30858D02*
X30986Y-1068D01*
X31029Y-1154D01*
Y-1282D01*
X30986Y-1368D01*
X30858Y-1411D01*
X30429D01*
X31243Y-1865D02*
X30386D01*
X31243Y-1908D02*
X30386D01*
X31243Y-1694D02*
Y-1908D01*
X30386Y-1694D02*
Y-1908D01*
D40*
X19106Y789D02*
G03*
X19106Y789I-1000J0D01*
G01*
X18630Y1992D02*
X18662Y2195D01*
X18124Y2207D02*
X18662Y2195D01*
X18124Y2207D02*
X18630Y1992D01*
X17576Y2209D02*
X18126D01*
X17626Y2009D02*
X18126Y2209D01*
X17576D02*
X17626Y2009D01*
D44*
X43139Y-17D02*
X41640D01*
X43139D02*
Y-517D01*
X43068Y-731D01*
X42925Y-874D01*
X42782Y-945D01*
X42568Y-1017D01*
X42211D01*
X41997Y-945D01*
X41854Y-874D01*
X41711Y-731D01*
X41640Y-517D01*
Y-17D01*
X43139Y-2281D02*
Y-1353D01*
X41640D01*
Y-2281D01*
X42425Y-1353D02*
Y-1924D01*
X43139Y-3031D02*
X41640D01*
X43139Y-2531D02*
Y-3531D01*
X41640Y-4852D02*
X43139Y-4281D01*
X41640Y-3709D01*
X42139Y-3923D02*
Y-4638D01*
X43139Y-5202D02*
X41640D01*
X43139Y-5516D02*
X41640D01*
Y-6373D01*
Y-8858D02*
X43139Y-8287D01*
X41640Y-7715D01*
X42139Y-7930D02*
Y-8644D01*
D97*
X37458Y-8724D02*
X37436Y-8678D01*
X37390Y-8633D01*
X37321Y-8610D01*
X37276D01*
X37207Y-8633D01*
X37161Y-8678D01*
X37139Y-8724D01*
Y-8792D01*
X37161Y-8838D01*
X37207Y-8884D01*
X37276Y-8907D01*
X37321D01*
X37390Y-8884D01*
X37436Y-8838D01*
X37458Y-8792D01*
Y-8724D01*
M02*
