G04 Layer_Color=8421504*
%FSLAX24Y24*%
%MOIN*%
G70*
G01*
G75*
%ADD18R,0.0256X0.0413*%
%ADD19R,0.0413X0.0551*%
%ADD20R,0.1902X0.1902*%
%ADD22R,0.0197X0.0157*%
%ADD24R,0.0236X0.0335*%
%ADD25R,0.0394X0.0335*%
%ADD26R,0.0300X0.0320*%
%ADD27R,0.0315X0.0295*%
%ADD28R,0.0197X0.0236*%
%ADD29R,0.0256X0.0197*%
%ADD30R,0.0374X0.0335*%
%ADD31R,0.0106X0.0118*%
%ADD32R,0.0551X0.0295*%
%ADD33R,0.0118X0.0106*%
%ADD34C,0.0394*%
%ADD36R,0.0236X0.0197*%
%ADD37R,0.0295X0.0315*%
%ADD61C,0.0118*%
D18*
X3757Y313D02*
D03*
Y1947D02*
D03*
X4603Y313D02*
D03*
Y1947D02*
D03*
D19*
X2545Y421D02*
D03*
X3115D02*
D03*
Y1839D02*
D03*
X2545D02*
D03*
D20*
X6750Y0D02*
D03*
D22*
X11356Y1738D02*
D03*
X10844D02*
D03*
Y1462D02*
D03*
X11356D02*
D03*
D24*
X11626Y404D02*
D03*
X12374D02*
D03*
Y-404D02*
D03*
D25*
X11705D02*
D03*
D26*
X10825Y-1600D02*
D03*
X11375D02*
D03*
D27*
X9430Y1000D02*
D03*
Y1532D02*
D03*
X8730Y-984D02*
D03*
Y-1516D02*
D03*
X9190D02*
D03*
Y-984D02*
D03*
X9880Y1182D02*
D03*
Y650D02*
D03*
X8980Y1582D02*
D03*
Y1050D02*
D03*
D28*
X8400Y1313D02*
D03*
Y1707D02*
D03*
D29*
X8383Y-1914D02*
D03*
X8757D02*
D03*
D30*
X4426Y-1488D02*
D03*
Y-1941D02*
D03*
X4997D02*
D03*
Y-1488D02*
D03*
D31*
X4734Y-303D02*
D03*
X4509D02*
D03*
X5862Y1880D02*
D03*
X5638D02*
D03*
X2398Y-1920D02*
D03*
X2622D02*
D03*
X12442Y-2170D02*
D03*
X12218D02*
D03*
X11722Y-840D02*
D03*
X11498D02*
D03*
X11652Y720D02*
D03*
X11428D02*
D03*
X11282Y-840D02*
D03*
X11058D02*
D03*
X11722Y-1070D02*
D03*
X11498D02*
D03*
X9968Y-1330D02*
D03*
X10192D02*
D03*
X6524Y-1615D02*
D03*
X6299D02*
D03*
X5629D02*
D03*
X5854D02*
D03*
X4739Y-1105D02*
D03*
X4964D02*
D03*
X4964Y-875D02*
D03*
X4739D02*
D03*
X6002Y1626D02*
D03*
X5778D02*
D03*
X6962D02*
D03*
X6738D02*
D03*
X8942Y-514D02*
D03*
X8718D02*
D03*
X7962Y-1620D02*
D03*
X7738D02*
D03*
X10622Y120D02*
D03*
X10398D02*
D03*
X10622Y453D02*
D03*
X10398D02*
D03*
X10622Y1120D02*
D03*
X10398D02*
D03*
X10622Y787D02*
D03*
X10398D02*
D03*
D32*
X10100Y-455D02*
D03*
Y-1025D02*
D03*
D33*
X2170Y-1912D02*
D03*
Y-1688D02*
D03*
X5320Y1643D02*
D03*
Y1867D02*
D03*
X2850Y-1688D02*
D03*
Y-1912D02*
D03*
X9610Y-576D02*
D03*
Y-352D02*
D03*
X5110Y452D02*
D03*
Y228D02*
D03*
X4300Y-418D02*
D03*
Y-642D02*
D03*
X4958Y-390D02*
D03*
Y-614D02*
D03*
X5342Y-1807D02*
D03*
Y-1583D02*
D03*
X4082Y-1623D02*
D03*
Y-1847D02*
D03*
D34*
X2820Y-850D02*
D03*
D36*
X11747Y1020D02*
D03*
X11353D02*
D03*
D37*
X7947Y-1955D02*
D03*
X7416D02*
D03*
D61*
X5667Y1280D02*
D03*
X5864D02*
D03*
X6061D02*
D03*
X6258D02*
D03*
X6455D02*
D03*
X6652D02*
D03*
X6848D02*
D03*
X7045D02*
D03*
X7242D02*
D03*
X7439D02*
D03*
X7636D02*
D03*
X7833D02*
D03*
X5470Y1083D02*
D03*
X5963D02*
D03*
X6159D02*
D03*
X6356D02*
D03*
X6553D02*
D03*
X6750D02*
D03*
X6947D02*
D03*
X7144D02*
D03*
X7537D02*
D03*
X7833Y984D02*
D03*
X5470Y886D02*
D03*
X5667Y787D02*
D03*
X7833D02*
D03*
X5470Y689D02*
D03*
X8030D02*
D03*
X5667Y591D02*
D03*
X5470Y492D02*
D03*
X8030D02*
D03*
X5667Y394D02*
D03*
X7833D02*
D03*
X5470Y295D02*
D03*
X8030D02*
D03*
X5667Y197D02*
D03*
X7833D02*
D03*
X5470Y98D02*
D03*
X8030D02*
D03*
X7833Y0D02*
D03*
X5470Y-98D02*
D03*
X8030D02*
D03*
X7833Y-197D02*
D03*
X5470Y-295D02*
D03*
X8030D02*
D03*
X5667Y-394D02*
D03*
X7833D02*
D03*
X8030Y-492D02*
D03*
X5667Y-591D02*
D03*
X7833D02*
D03*
X5470Y-689D02*
D03*
X7833Y-787D02*
D03*
X8030Y-886D02*
D03*
X5667Y-787D02*
D03*
X5470Y-1083D02*
D03*
X6159D02*
D03*
X6356D02*
D03*
X6553D02*
D03*
X6750D02*
D03*
X6947D02*
D03*
X7144D02*
D03*
X7341D02*
D03*
X7537D02*
D03*
X7734D02*
D03*
X8030D02*
D03*
X5667Y-1280D02*
D03*
X6061D02*
D03*
X6258D02*
D03*
X6455D02*
D03*
X6652D02*
D03*
X6848D02*
D03*
X7045D02*
D03*
X7242D02*
D03*
X5864D02*
D03*
M02*
