G04 Layer_Color=65535*
%FSLAX24Y24*%
%MOIN*%
G70*
G01*
G75*
%ADD10C,0.0079*%
%ADD15C,0.0060*%
%ADD39C,0.0098*%
%ADD41C,0.0059*%
%ADD42C,0.0050*%
%ADD60C,0.0049*%
G36*
X987Y-1629D02*
X846D01*
X845Y-1629D01*
X836Y-1630D01*
X829Y-1631D01*
X823Y-1633D01*
X817Y-1635D01*
X812Y-1638D01*
X808Y-1641D01*
X803Y-1645D01*
X797Y-1653D01*
X795Y-1658D01*
X792Y-1663D01*
X791Y-1670D01*
X790Y-1675D01*
X790Y-1680D01*
X790Y-1686D01*
X791Y-1691D01*
X792Y-1697D01*
X794Y-1703D01*
X796Y-1708D01*
X799Y-1712D01*
X806Y-1720D01*
X811Y-1723D01*
X816Y-1727D01*
X823Y-1729D01*
X828Y-1731D01*
X834Y-1732D01*
X842Y-1733D01*
X846Y-1733D01*
X987D01*
Y-1779D01*
X843D01*
X838Y-1779D01*
X832Y-1778D01*
X826Y-1778D01*
X818Y-1776D01*
X810Y-1774D01*
X805Y-1773D01*
X798Y-1770D01*
X792Y-1767D01*
X785Y-1763D01*
X779Y-1760D01*
X774Y-1755D01*
X764Y-1745D01*
X761Y-1740D01*
X758Y-1736D01*
X755Y-1730D01*
X754Y-1727D01*
X751Y-1720D01*
X749Y-1713D01*
X748Y-1707D01*
X747Y-1700D01*
X746Y-1694D01*
X745Y-1688D01*
X745Y-1682D01*
X745Y-1673D01*
X746Y-1667D01*
X747Y-1660D01*
X748Y-1654D01*
X749Y-1648D01*
X751Y-1642D01*
X754Y-1636D01*
X757Y-1629D01*
X760Y-1623D01*
X767Y-1614D01*
X777Y-1604D01*
X785Y-1598D01*
X789Y-1596D01*
X794Y-1593D01*
X800Y-1591D01*
X807Y-1588D01*
X814Y-1587D01*
X823Y-1585D01*
X830Y-1584D01*
X836Y-1584D01*
X843Y-1584D01*
X987D01*
X987Y-1629D01*
D02*
G37*
G36*
X174Y-1751D02*
X100D01*
Y-1680D01*
X174D01*
Y-1751D01*
D02*
G37*
G36*
X489Y-1593D02*
X427D01*
Y-1523D01*
X489D01*
Y-1593D01*
D02*
G37*
G36*
X875Y-1869D02*
X878Y-1869D01*
X885Y-1869D01*
X890Y-1870D01*
X895Y-1871D01*
X901Y-1872D01*
X911Y-1875D01*
X916Y-1877D01*
X921Y-1879D01*
X926Y-1881D01*
X933Y-1885D01*
X937Y-1887D01*
X943Y-1891D01*
X955Y-1901D01*
X962Y-1909D01*
X965Y-1912D01*
X968Y-1916D01*
X971Y-1922D01*
X975Y-1927D01*
X977Y-1931D01*
X979Y-1936D01*
X981Y-1940D01*
X983Y-1945D01*
X985Y-1951D01*
X986Y-1955D01*
X987Y-1959D01*
X989Y-1964D01*
X990Y-1970D01*
X991Y-1978D01*
X991Y-1985D01*
X992Y-1996D01*
X992Y-2004D01*
X991Y-2011D01*
X990Y-2020D01*
X989Y-2029D01*
X986Y-2040D01*
X982Y-2050D01*
X978Y-2060D01*
X977Y-2062D01*
X973Y-2069D01*
X970Y-2074D01*
X966Y-2081D01*
X928Y-2056D01*
X929Y-2054D01*
X932Y-2050D01*
X934Y-2046D01*
X936Y-2042D01*
X938Y-2039D01*
X940Y-2034D01*
X943Y-2027D01*
X944Y-2021D01*
X947Y-2010D01*
X947Y-2001D01*
X947Y-1998D01*
X947Y-1992D01*
X947Y-1985D01*
X946Y-1980D01*
X945Y-1975D01*
X944Y-1969D01*
X942Y-1964D01*
X939Y-1958D01*
X935Y-1951D01*
X932Y-1946D01*
X928Y-1941D01*
X921Y-1934D01*
X913Y-1928D01*
X906Y-1924D01*
X903Y-1923D01*
X898Y-1921D01*
X892Y-1919D01*
X887Y-1918D01*
X881Y-1917D01*
X877Y-1916D01*
X871Y-1916D01*
X866Y-1916D01*
X861Y-1916D01*
X854Y-1917D01*
X849Y-1918D01*
X841Y-1920D01*
X834Y-1923D01*
X829Y-1925D01*
X821Y-1930D01*
X813Y-1936D01*
X806Y-1945D01*
X801Y-1951D01*
X800Y-1953D01*
X797Y-1958D01*
X795Y-1963D01*
X794Y-1967D01*
X792Y-1974D01*
X791Y-1978D01*
X790Y-1985D01*
X789Y-1990D01*
X789Y-1998D01*
X790Y-2005D01*
X790Y-2011D01*
X793Y-2022D01*
X794Y-2025D01*
X794Y-2028D01*
X797Y-2034D01*
X799Y-2038D01*
X801Y-2042D01*
X804Y-2048D01*
X806Y-2051D01*
X809Y-2056D01*
X771Y-2081D01*
X769Y-2078D01*
X766Y-2073D01*
X761Y-2064D01*
X757Y-2056D01*
X753Y-2047D01*
X750Y-2037D01*
X749Y-2034D01*
X748Y-2029D01*
X747Y-2023D01*
X746Y-2016D01*
X745Y-2008D01*
X745Y-2001D01*
X745Y-1994D01*
X745Y-1989D01*
X745Y-1983D01*
X746Y-1975D01*
X747Y-1968D01*
X748Y-1962D01*
X750Y-1955D01*
X752Y-1951D01*
X754Y-1945D01*
X756Y-1938D01*
X759Y-1932D01*
X763Y-1925D01*
X769Y-1917D01*
X774Y-1910D01*
X778Y-1905D01*
X786Y-1897D01*
X793Y-1891D01*
X801Y-1886D01*
X805Y-1884D01*
X809Y-1882D01*
X812Y-1881D01*
X817Y-1878D01*
X824Y-1875D01*
X833Y-1873D01*
X841Y-1871D01*
X848Y-1870D01*
X853Y-1869D01*
X860Y-1869D01*
X865Y-1869D01*
X870Y-1869D01*
X875Y-1869D01*
D02*
G37*
G36*
X249Y-1810D02*
X259Y-1811D01*
X264Y-1812D01*
X271Y-1813D01*
X279Y-1815D01*
X285Y-1817D01*
X291Y-1818D01*
X296Y-1820D01*
X303Y-1823D01*
X310Y-1827D01*
X315Y-1829D01*
X321Y-1833D01*
X327Y-1837D01*
X333Y-1841D01*
X338Y-1845D01*
X344Y-1850D01*
X348Y-1855D01*
X354Y-1861D01*
X359Y-1867D01*
X363Y-1872D01*
X367Y-1878D01*
X371Y-1885D01*
X374Y-1892D01*
X377Y-1897D01*
X379Y-1902D01*
X382Y-1909D01*
X384Y-1917D01*
X386Y-1924D01*
X387Y-1929D01*
X389Y-1939D01*
X389Y-1947D01*
X390Y-1951D01*
X390Y-1959D01*
X390Y-1968D01*
X389Y-1974D01*
X388Y-1982D01*
X387Y-1991D01*
X386Y-1995D01*
X385Y-2001D01*
X382Y-2010D01*
X379Y-2019D01*
X375Y-2027D01*
X371Y-2035D01*
X369Y-2038D01*
X368Y-2040D01*
X366Y-2043D01*
X364Y-2046D01*
X362Y-2048D01*
X360Y-2051D01*
X357Y-2054D01*
X356Y-2056D01*
X353Y-2059D01*
X350Y-2062D01*
X345Y-2067D01*
X341Y-2072D01*
X297Y-2031D01*
X299Y-2029D01*
X302Y-2026D01*
X304Y-2024D01*
X306Y-2022D01*
X308Y-2019D01*
X312Y-2016D01*
X314Y-2012D01*
X317Y-2008D01*
X320Y-2004D01*
X322Y-2000D01*
X324Y-1996D01*
X325Y-1994D01*
X327Y-1990D01*
X329Y-1985D01*
X330Y-1981D01*
X330Y-1979D01*
X331Y-1974D01*
X332Y-1968D01*
X333Y-1962D01*
X333Y-1958D01*
X333Y-1953D01*
X332Y-1948D01*
X332Y-1945D01*
X331Y-1941D01*
X330Y-1937D01*
X329Y-1933D01*
X327Y-1928D01*
X325Y-1923D01*
X322Y-1918D01*
X320Y-1915D01*
X316Y-1910D01*
X314Y-1907D01*
X311Y-1903D01*
X307Y-1899D01*
X302Y-1896D01*
X298Y-1892D01*
X296Y-1891D01*
X291Y-1888D01*
X285Y-1885D01*
X279Y-1882D01*
X276Y-1881D01*
X273Y-1880D01*
X269Y-1879D01*
X265Y-1878D01*
X261Y-1877D01*
X257Y-1876D01*
X253Y-1876D01*
X250Y-1876D01*
X246Y-1875D01*
X241Y-1875D01*
X236Y-1875D01*
X231Y-1876D01*
X226Y-1876D01*
X221Y-1877D01*
X216Y-1878D01*
X211Y-1880D01*
X207Y-1881D01*
X202Y-1883D01*
X197Y-1885D01*
X192Y-1888D01*
X188Y-1891D01*
X185Y-1892D01*
X183Y-1894D01*
X181Y-1896D01*
X178Y-1898D01*
X176Y-1900D01*
X173Y-1902D01*
X171Y-1905D01*
X167Y-1909D01*
X165Y-1913D01*
X163Y-1916D01*
X160Y-1921D01*
X158Y-1925D01*
X156Y-1931D01*
X154Y-1935D01*
X153Y-1938D01*
X152Y-1943D01*
X151Y-1947D01*
X151Y-1951D01*
X150Y-1956D01*
X150Y-1959D01*
X150Y-1965D01*
X151Y-1970D01*
X151Y-1974D01*
X152Y-1978D01*
X153Y-1981D01*
X154Y-1986D01*
X156Y-1992D01*
X157Y-1995D01*
X159Y-2000D01*
X162Y-2005D01*
X165Y-2009D01*
X168Y-2014D01*
X170Y-2017D01*
X174Y-2022D01*
X176Y-2025D01*
X179Y-2028D01*
X183Y-2032D01*
X185Y-2034D01*
X147Y-2073D01*
X144Y-2071D01*
X141Y-2068D01*
X137Y-2064D01*
X132Y-2059D01*
X129Y-2055D01*
X125Y-2051D01*
X121Y-2045D01*
X117Y-2041D01*
X115Y-2037D01*
X112Y-2032D01*
X108Y-2026D01*
X106Y-2022D01*
X104Y-2017D01*
X102Y-2011D01*
X100Y-2006D01*
X99Y-2001D01*
X98Y-1998D01*
X96Y-1991D01*
X95Y-1986D01*
X95Y-1980D01*
X94Y-1975D01*
X94Y-1968D01*
X93Y-1964D01*
X93Y-1959D01*
X93Y-1953D01*
X93Y-1950D01*
X94Y-1942D01*
X94Y-1938D01*
X95Y-1933D01*
X96Y-1928D01*
X97Y-1923D01*
X99Y-1917D01*
X101Y-1909D01*
X104Y-1900D01*
X109Y-1891D01*
X112Y-1884D01*
X116Y-1878D01*
X120Y-1872D01*
X124Y-1866D01*
X129Y-1860D01*
X134Y-1854D01*
X139Y-1849D01*
X145Y-1844D01*
X151Y-1840D01*
X157Y-1836D01*
X162Y-1832D01*
X168Y-1828D01*
X175Y-1825D01*
X182Y-1822D01*
X190Y-1819D01*
X198Y-1816D01*
X203Y-1815D01*
X213Y-1813D01*
X221Y-1811D01*
X228Y-1811D01*
X235Y-1810D01*
X241Y-1810D01*
X249Y-1810D01*
D02*
G37*
G36*
X1794Y-1437D02*
X1794Y-1651D01*
X1794Y-1665D01*
X1793Y-1678D01*
X1792Y-1691D01*
X1790Y-1704D01*
X1787Y-1723D01*
X1784Y-1737D01*
X1781Y-1746D01*
X1780Y-1750D01*
X1778Y-1759D01*
X1775Y-1768D01*
X1771Y-1778D01*
X1768Y-1787D01*
X1764Y-1797D01*
X1757Y-1812D01*
X1751Y-1822D01*
X1748Y-1828D01*
X1745Y-1833D01*
X1737Y-1845D01*
X1732Y-1852D01*
X1727Y-1859D01*
X1721Y-1867D01*
X1713Y-1876D01*
X1700Y-1889D01*
X1689Y-1900D01*
X1679Y-1908D01*
X1667Y-1917D01*
X1656Y-1924D01*
X1646Y-1931D01*
X1630Y-1939D01*
X1617Y-1945D01*
X1605Y-1950D01*
X1595Y-1954D01*
X1580Y-1959D01*
X1571Y-1962D01*
X1558Y-1965D01*
X1545Y-1968D01*
X1533Y-1970D01*
X1521Y-1971D01*
X1513Y-1972D01*
X1501Y-1973D01*
X1493Y-1973D01*
X1482Y-1974D01*
X1470Y-1974D01*
X1460Y-1974D01*
X1449Y-1973D01*
X1441Y-1972D01*
X1429Y-1971D01*
X1417Y-1970D01*
X1405Y-1968D01*
X1393Y-1965D01*
X1388Y-1964D01*
X1380Y-1962D01*
X1370Y-1959D01*
X1356Y-1955D01*
X1346Y-1951D01*
X1335Y-1946D01*
X1322Y-1941D01*
X1315Y-1937D01*
X1298Y-1928D01*
X1287Y-1920D01*
X1275Y-1911D01*
X1263Y-1902D01*
X1251Y-1892D01*
X1238Y-1878D01*
X1232Y-1871D01*
X1219Y-1855D01*
X1210Y-1842D01*
X1203Y-1830D01*
X1196Y-1819D01*
X1191Y-1808D01*
X1186Y-1798D01*
X1182Y-1788D01*
X1178Y-1779D01*
X1175Y-1769D01*
X1171Y-1755D01*
X1167Y-1742D01*
X1164Y-1728D01*
X1162Y-1718D01*
X1160Y-1709D01*
X1156Y-1678D01*
X1155Y-1655D01*
X1155Y-1641D01*
Y-1437D01*
X1794Y-1437D01*
D02*
G37*
G36*
X384Y-1591D02*
X100Y-1591D01*
Y-1526D01*
X384D01*
Y-1591D01*
D02*
G37*
G36*
X1794Y-1090D02*
X1794Y-1100D01*
X1794Y-1111D01*
X1793Y-1121D01*
X1791Y-1135D01*
X1789Y-1145D01*
X1786Y-1157D01*
X1784Y-1164D01*
X1780Y-1176D01*
X1775Y-1189D01*
X1770Y-1200D01*
X1765Y-1209D01*
X1761Y-1216D01*
X1756Y-1223D01*
X1749Y-1232D01*
X1744Y-1237D01*
X1737Y-1245D01*
X1729Y-1252D01*
X1722Y-1258D01*
X1710Y-1267D01*
X1698Y-1274D01*
X1689Y-1278D01*
X1682Y-1281D01*
X1675Y-1284D01*
X1668Y-1286D01*
X1662Y-1288D01*
X1653Y-1291D01*
X1645Y-1292D01*
X1637Y-1294D01*
X1632Y-1295D01*
X1621Y-1296D01*
X1613Y-1296D01*
X1606Y-1297D01*
X1598Y-1297D01*
X1590Y-1296D01*
X1578Y-1296D01*
X1567Y-1294D01*
X1556Y-1292D01*
X1548Y-1290D01*
X1542Y-1289D01*
X1535Y-1287D01*
X1529Y-1285D01*
X1518Y-1280D01*
X1510Y-1277D01*
X1501Y-1272D01*
X1495Y-1268D01*
X1487Y-1263D01*
X1479Y-1256D01*
X1470Y-1249D01*
X1465Y-1245D01*
X1457Y-1235D01*
X1450Y-1226D01*
X1444Y-1218D01*
X1438Y-1208D01*
X1435Y-1202D01*
X1430Y-1193D01*
X1427Y-1185D01*
X1423Y-1175D01*
X1421Y-1168D01*
X1419Y-1161D01*
X1417Y-1153D01*
X1415Y-1147D01*
X1155Y-1336D01*
Y-1189D01*
X1410Y-1015D01*
Y-971D01*
X1155D01*
Y-854D01*
X1794D01*
Y-1090D01*
D02*
G37*
G36*
X986Y-1029D02*
X823Y-1144D01*
X986D01*
Y-1187D01*
X749D01*
Y-1147D01*
X912Y-1032D01*
X749Y-1032D01*
Y-989D01*
X986D01*
Y-1029D01*
D02*
G37*
G36*
X247Y-654D02*
X252Y-654D01*
X258Y-655D01*
X260Y-655D01*
X263Y-655D01*
X268Y-656D01*
X274Y-657D01*
X279Y-658D01*
X285Y-660D01*
X290Y-661D01*
X295Y-663D01*
X300Y-665D01*
X305Y-667D01*
X310Y-669D01*
X314Y-671D01*
X319Y-673D01*
X323Y-676D01*
X327Y-679D01*
X332Y-682D01*
X336Y-685D01*
X340Y-688D01*
X342Y-689D01*
X344Y-691D01*
X346Y-693D01*
X349Y-695D01*
X351Y-697D01*
X353Y-700D01*
X355Y-702D01*
X357Y-704D01*
X360Y-708D01*
X362Y-710D01*
X364Y-713D01*
X366Y-716D01*
X368Y-718D01*
X370Y-722D01*
X372Y-725D01*
X374Y-728D01*
X376Y-732D01*
X377Y-735D01*
X378Y-738D01*
X380Y-741D01*
X381Y-745D01*
X382Y-748D01*
X384Y-751D01*
X385Y-755D01*
X386Y-761D01*
X387Y-766D01*
X388Y-770D01*
X389Y-774D01*
X389Y-778D01*
X389Y-781D01*
X390Y-787D01*
X390Y-792D01*
X390Y-797D01*
X390Y-802D01*
X389Y-806D01*
X389Y-811D01*
X388Y-815D01*
X387Y-820D01*
X386Y-827D01*
X385Y-831D01*
X384Y-835D01*
X383Y-839D01*
X381Y-844D01*
X380Y-846D01*
X379Y-849D01*
X377Y-852D01*
X375Y-856D01*
X374Y-858D01*
X372Y-862D01*
X369Y-867D01*
X367Y-871D01*
X364Y-874D01*
X362Y-877D01*
X359Y-880D01*
X356Y-884D01*
X353Y-886D01*
X351Y-889D01*
X349Y-891D01*
X347Y-893D01*
X343Y-896D01*
X339Y-899D01*
X335Y-902D01*
X331Y-904D01*
X328Y-906D01*
X325Y-908D01*
X319Y-911D01*
X316Y-913D01*
X312Y-914D01*
X308Y-916D01*
X305Y-917D01*
X301Y-919D01*
X297Y-920D01*
X293Y-921D01*
X290Y-922D01*
X287Y-923D01*
X283Y-924D01*
X279Y-925D01*
X274Y-926D01*
X270Y-927D01*
X265Y-927D01*
X262Y-928D01*
X257Y-928D01*
X253Y-928D01*
X249Y-929D01*
X246Y-929D01*
X243Y-929D01*
X240Y-929D01*
X235Y-929D01*
X231Y-929D01*
X226Y-929D01*
X222Y-928D01*
X219Y-928D01*
Y-719D01*
X217Y-720D01*
X213Y-720D01*
X211Y-721D01*
X207Y-722D01*
X204Y-723D01*
X201Y-723D01*
X197Y-725D01*
X194Y-726D01*
X190Y-728D01*
X186Y-730D01*
X182Y-733D01*
X179Y-735D01*
X176Y-737D01*
X171Y-741D01*
X168Y-744D01*
X166Y-746D01*
X164Y-749D01*
X161Y-752D01*
X158Y-756D01*
X157Y-759D01*
X155Y-763D01*
X154Y-765D01*
X152Y-769D01*
X151Y-772D01*
X150Y-775D01*
X149Y-779D01*
X148Y-783D01*
X148Y-786D01*
X147Y-790D01*
X147Y-794D01*
X147Y-796D01*
X147Y-800D01*
X147Y-803D01*
X147Y-806D01*
X147Y-810D01*
X147Y-813D01*
X148Y-817D01*
X148Y-821D01*
X149Y-824D01*
X149Y-826D01*
X150Y-830D01*
X152Y-834D01*
X153Y-838D01*
X155Y-842D01*
X157Y-846D01*
X159Y-851D01*
X161Y-853D01*
X162Y-855D01*
X163Y-857D01*
X165Y-860D01*
X168Y-864D01*
X170Y-867D01*
X173Y-870D01*
X176Y-873D01*
X179Y-876D01*
X180Y-878D01*
X147Y-916D01*
X143Y-913D01*
X140Y-910D01*
X137Y-907D01*
X133Y-904D01*
X129Y-900D01*
X127Y-897D01*
X124Y-893D01*
X121Y-889D01*
X119Y-886D01*
X117Y-883D01*
X114Y-879D01*
X113Y-877D01*
X111Y-873D01*
X109Y-869D01*
X107Y-866D01*
X105Y-861D01*
X103Y-857D01*
X102Y-854D01*
X100Y-848D01*
X99Y-843D01*
X97Y-837D01*
X96Y-833D01*
X95Y-828D01*
X95Y-822D01*
X94Y-817D01*
X94Y-813D01*
X94Y-810D01*
X93Y-806D01*
X93Y-802D01*
X93Y-797D01*
X93Y-794D01*
X94Y-790D01*
X94Y-787D01*
X94Y-784D01*
X94Y-781D01*
X95Y-777D01*
X95Y-774D01*
X96Y-770D01*
X97Y-767D01*
X98Y-763D01*
X98Y-759D01*
X100Y-755D01*
X101Y-751D01*
X102Y-747D01*
X104Y-743D01*
X106Y-738D01*
X107Y-735D01*
X109Y-731D01*
X111Y-728D01*
X112Y-725D01*
X114Y-722D01*
X117Y-718D01*
X119Y-715D01*
X121Y-711D01*
X123Y-708D01*
X126Y-706D01*
X128Y-702D01*
X131Y-700D01*
X133Y-698D01*
X136Y-695D01*
X139Y-692D01*
X141Y-690D01*
X144Y-687D01*
X147Y-685D01*
X150Y-683D01*
X152Y-681D01*
X155Y-679D01*
X158Y-677D01*
X161Y-675D01*
X167Y-672D01*
X171Y-669D01*
X176Y-667D01*
X180Y-666D01*
X183Y-664D01*
X187Y-663D01*
X190Y-662D01*
X193Y-661D01*
X197Y-660D01*
X200Y-659D01*
X203Y-658D01*
X208Y-657D01*
X216Y-656D01*
X222Y-655D01*
X227Y-655D01*
X229Y-655D01*
X232Y-654D01*
X234Y-654D01*
X239Y-654D01*
X242Y-654D01*
X247Y-654D01*
D02*
G37*
G36*
X987Y-1370D02*
X987Y-1377D01*
X986Y-1384D01*
X985Y-1392D01*
X984Y-1397D01*
X983Y-1402D01*
X982Y-1408D01*
X980Y-1414D01*
X979Y-1419D01*
X977Y-1423D01*
X974Y-1432D01*
X971Y-1437D01*
X968Y-1441D01*
X964Y-1448D01*
X959Y-1454D01*
X956Y-1457D01*
X952Y-1462D01*
X943Y-1470D01*
X935Y-1475D01*
X926Y-1481D01*
X921Y-1483D01*
X915Y-1485D01*
X909Y-1487D01*
X904Y-1489D01*
X898Y-1490D01*
X893Y-1491D01*
X884Y-1493D01*
X878Y-1493D01*
X870Y-1493D01*
X864Y-1493D01*
X857Y-1493D01*
X851Y-1492D01*
X844Y-1491D01*
X839Y-1491D01*
X830Y-1488D01*
X821Y-1485D01*
X814Y-1482D01*
X809Y-1480D01*
X803Y-1476D01*
X799Y-1473D01*
X787Y-1465D01*
X778Y-1455D01*
X770Y-1444D01*
X763Y-1432D01*
X759Y-1423D01*
X756Y-1413D01*
X754Y-1404D01*
X752Y-1396D01*
X751Y-1392D01*
X750Y-1382D01*
X750Y-1370D01*
Y-1295D01*
X987D01*
Y-1370D01*
D02*
G37*
G36*
X384Y-1068D02*
X341D01*
X344Y-1071D01*
X349Y-1074D01*
X352Y-1076D01*
X356Y-1080D01*
X360Y-1084D01*
X364Y-1088D01*
X369Y-1093D01*
X372Y-1097D01*
X375Y-1102D01*
X377Y-1106D01*
X379Y-1110D01*
X381Y-1114D01*
X383Y-1118D01*
X385Y-1122D01*
X387Y-1130D01*
X388Y-1136D01*
X389Y-1142D01*
X390Y-1149D01*
X390Y-1156D01*
X389Y-1162D01*
X389Y-1167D01*
X388Y-1172D01*
X387Y-1178D01*
X386Y-1185D01*
X385Y-1188D01*
X383Y-1193D01*
X381Y-1196D01*
X378Y-1204D01*
X375Y-1208D01*
X371Y-1214D01*
X368Y-1217D01*
X363Y-1223D01*
X359Y-1227D01*
X353Y-1231D01*
X350Y-1234D01*
X344Y-1237D01*
X340Y-1239D01*
X343Y-1242D01*
X347Y-1245D01*
X351Y-1249D01*
X355Y-1253D01*
X359Y-1256D01*
X362Y-1260D01*
X366Y-1265D01*
X369Y-1268D01*
X373Y-1274D01*
X375Y-1278D01*
X377Y-1281D01*
X379Y-1286D01*
X381Y-1290D01*
X384Y-1298D01*
X385Y-1301D01*
X387Y-1309D01*
X388Y-1313D01*
X389Y-1318D01*
X389Y-1322D01*
X389Y-1327D01*
X390Y-1335D01*
X390Y-1341D01*
X389Y-1346D01*
X389Y-1350D01*
X388Y-1354D01*
X388Y-1359D01*
X387Y-1363D01*
X385Y-1368D01*
X384Y-1372D01*
X382Y-1377D01*
X380Y-1382D01*
X378Y-1386D01*
X376Y-1390D01*
X374Y-1394D01*
X372Y-1397D01*
X367Y-1402D01*
X364Y-1406D01*
X360Y-1409D01*
X358Y-1411D01*
X355Y-1414D01*
X351Y-1417D01*
X348Y-1418D01*
X345Y-1420D01*
X338Y-1424D01*
X334Y-1426D01*
X326Y-1428D01*
X320Y-1430D01*
X316Y-1431D01*
X309Y-1432D01*
X303Y-1433D01*
X297Y-1434D01*
X289Y-1435D01*
X281Y-1435D01*
X100D01*
Y-1370D01*
X261D01*
X266Y-1370D01*
X270Y-1369D01*
X276Y-1369D01*
X280Y-1368D01*
X285Y-1367D01*
X291Y-1366D01*
X295Y-1365D01*
X299Y-1363D01*
X303Y-1361D01*
X307Y-1359D01*
X311Y-1356D01*
X314Y-1353D01*
X318Y-1350D01*
X320Y-1346D01*
X323Y-1343D01*
X325Y-1339D01*
X327Y-1335D01*
X328Y-1330D01*
X329Y-1326D01*
X330Y-1322D01*
X330Y-1317D01*
X331Y-1312D01*
X330Y-1305D01*
X330Y-1302D01*
X329Y-1298D01*
X328Y-1292D01*
X326Y-1287D01*
X324Y-1283D01*
X322Y-1279D01*
X318Y-1274D01*
X315Y-1271D01*
X312Y-1268D01*
X310Y-1266D01*
X307Y-1264D01*
X304Y-1262D01*
X300Y-1260D01*
X296Y-1258D01*
X291Y-1256D01*
X288Y-1255D01*
X284Y-1254D01*
X278Y-1253D01*
X273Y-1252D01*
X266Y-1251D01*
X260Y-1251D01*
X100D01*
Y-1186D01*
X263Y-1186D01*
X267Y-1186D01*
X272Y-1186D01*
X277Y-1185D01*
X282Y-1184D01*
X289Y-1183D01*
X294Y-1181D01*
X298Y-1180D01*
X301Y-1178D01*
X305Y-1177D01*
X309Y-1174D01*
X312Y-1171D01*
X315Y-1168D01*
X318Y-1165D01*
X321Y-1162D01*
X323Y-1159D01*
X324Y-1156D01*
X326Y-1152D01*
X328Y-1148D01*
X329Y-1142D01*
X330Y-1138D01*
X330Y-1133D01*
X331Y-1129D01*
X330Y-1124D01*
X330Y-1120D01*
X329Y-1115D01*
X328Y-1111D01*
X327Y-1108D01*
X325Y-1103D01*
X323Y-1099D01*
X321Y-1096D01*
X319Y-1092D01*
X316Y-1089D01*
X314Y-1087D01*
X311Y-1084D01*
X307Y-1081D01*
X303Y-1078D01*
X298Y-1076D01*
X294Y-1074D01*
X289Y-1072D01*
X285Y-1071D01*
X281Y-1070D01*
X279Y-1070D01*
X275Y-1069D01*
X271Y-1068D01*
X266Y-1068D01*
X260Y-1068D01*
X100D01*
Y-1003D01*
X384D01*
X384Y-1068D01*
D02*
G37*
G36*
X8128Y-1378D02*
X7931Y-1378D01*
X8128Y-1181D01*
Y-1378D01*
D02*
G37*
G36*
X14457Y337D02*
X14469Y336D01*
X14484Y335D01*
X14499Y334D01*
X14516Y333D01*
X14550Y328D01*
X14585Y321D01*
X14601Y316D01*
X14617Y311D01*
X14631Y306D01*
X14643Y299D01*
X14644Y298D01*
X14646Y297D01*
X14649Y294D01*
X14652Y292D01*
X14657Y287D01*
X14662Y283D01*
X14668Y277D01*
X14673Y271D01*
X14679Y264D01*
X14685Y257D01*
X14690Y248D01*
X14695Y239D01*
X14698Y229D01*
X14701Y219D01*
X14703Y208D01*
X14704Y197D01*
Y196D01*
Y194D01*
X14703Y190D01*
Y186D01*
X14702Y180D01*
X14700Y175D01*
X14699Y168D01*
X14696Y160D01*
X14693Y152D01*
X14689Y144D01*
X14684Y135D01*
X14678Y127D01*
X14671Y118D01*
X14663Y110D01*
X14654Y102D01*
X14643Y94D01*
X14642Y93D01*
X14640Y93D01*
X14637Y90D01*
X14631Y88D01*
X14625Y85D01*
X14616Y81D01*
X14606Y78D01*
X14594Y74D01*
X14581Y71D01*
X14565Y67D01*
X14548Y64D01*
X14528Y61D01*
X14508Y58D01*
X14484Y56D01*
X14459Y55D01*
X14432Y54D01*
X14418D01*
X14407Y55D01*
X14395Y56D01*
X14381Y57D01*
X14365Y58D01*
X14349Y59D01*
X14314Y64D01*
X14297Y67D01*
X14279Y71D01*
X14263Y76D01*
X14247Y81D01*
X14233Y87D01*
X14221Y94D01*
X14220Y95D01*
X14218Y96D01*
X14215Y98D01*
X14212Y101D01*
X14207Y105D01*
X14202Y110D01*
X14196Y115D01*
X14191Y122D01*
X14186Y128D01*
X14180Y136D01*
X14170Y154D01*
X14166Y163D01*
X14164Y173D01*
X14161Y185D01*
X14161Y196D01*
Y197D01*
Y199D01*
X14161Y202D01*
Y207D01*
X14163Y212D01*
X14164Y218D01*
X14166Y225D01*
X14169Y233D01*
X14171Y241D01*
X14176Y249D01*
X14180Y258D01*
X14186Y266D01*
X14193Y275D01*
X14200Y283D01*
X14210Y291D01*
X14220Y299D01*
X14221Y299D01*
X14223Y300D01*
X14227Y302D01*
X14232Y305D01*
X14239Y308D01*
X14247Y311D01*
X14258Y314D01*
X14269Y318D01*
X14283Y322D01*
X14299Y326D01*
X14316Y328D01*
X14335Y331D01*
X14357Y334D01*
X14380Y336D01*
X14405Y337D01*
X14433Y338D01*
X14447D01*
X14457Y337D01*
D02*
G37*
G36*
Y676D02*
X14469Y675D01*
X14484Y675D01*
X14499Y673D01*
X14516Y672D01*
X14550Y667D01*
X14585Y660D01*
X14601Y655D01*
X14617Y651D01*
X14631Y645D01*
X14643Y638D01*
X14644Y637D01*
X14646Y636D01*
X14649Y634D01*
X14652Y631D01*
X14657Y626D01*
X14662Y622D01*
X14668Y617D01*
X14673Y610D01*
X14679Y603D01*
X14685Y596D01*
X14690Y587D01*
X14695Y578D01*
X14698Y568D01*
X14701Y558D01*
X14703Y547D01*
X14704Y536D01*
Y535D01*
Y533D01*
X14703Y529D01*
Y525D01*
X14702Y520D01*
X14700Y514D01*
X14699Y507D01*
X14696Y499D01*
X14693Y491D01*
X14689Y483D01*
X14684Y474D01*
X14678Y466D01*
X14671Y457D01*
X14663Y449D01*
X14654Y441D01*
X14643Y433D01*
X14642Y432D01*
X14640Y432D01*
X14637Y430D01*
X14631Y427D01*
X14625Y424D01*
X14616Y420D01*
X14606Y417D01*
X14594Y413D01*
X14581Y410D01*
X14565Y406D01*
X14548Y403D01*
X14528Y400D01*
X14508Y397D01*
X14484Y395D01*
X14459Y394D01*
X14432Y394D01*
X14418D01*
X14407Y394D01*
X14395Y395D01*
X14381Y396D01*
X14365Y397D01*
X14349Y398D01*
X14314Y403D01*
X14297Y406D01*
X14279Y410D01*
X14263Y415D01*
X14247Y420D01*
X14233Y426D01*
X14221Y433D01*
X14220Y434D01*
X14218Y435D01*
X14215Y437D01*
X14212Y440D01*
X14207Y444D01*
X14202Y449D01*
X14196Y454D01*
X14191Y461D01*
X14186Y467D01*
X14180Y475D01*
X14170Y493D01*
X14166Y503D01*
X14164Y512D01*
X14161Y524D01*
X14161Y535D01*
Y536D01*
Y538D01*
X14161Y541D01*
Y546D01*
X14163Y551D01*
X14164Y557D01*
X14166Y564D01*
X14169Y572D01*
X14171Y580D01*
X14176Y588D01*
X14180Y597D01*
X14186Y605D01*
X14193Y614D01*
X14200Y622D01*
X14210Y630D01*
X14220Y638D01*
X14221Y638D01*
X14223Y639D01*
X14227Y641D01*
X14232Y644D01*
X14239Y647D01*
X14247Y650D01*
X14258Y653D01*
X14269Y657D01*
X14283Y661D01*
X14299Y665D01*
X14316Y667D01*
X14335Y670D01*
X14357Y673D01*
X14380Y675D01*
X14405Y676D01*
X14433Y677D01*
X14447D01*
X14457Y676D01*
D02*
G37*
G36*
X14704Y841D02*
Y770D01*
X14367D01*
Y716D01*
X14277D01*
Y770D01*
X14170D01*
Y851D01*
X14277D01*
Y1030D01*
X14366D01*
X14704Y841D01*
D02*
G37*
G36*
X14457Y-681D02*
X14469Y-681D01*
X14484Y-682D01*
X14499Y-683D01*
X14516Y-685D01*
X14550Y-689D01*
X14585Y-696D01*
X14601Y-701D01*
X14617Y-706D01*
X14631Y-712D01*
X14643Y-719D01*
X14644Y-719D01*
X14646Y-721D01*
X14649Y-723D01*
X14652Y-726D01*
X14657Y-730D01*
X14662Y-734D01*
X14668Y-740D01*
X14673Y-746D01*
X14679Y-753D01*
X14685Y-761D01*
X14690Y-769D01*
X14695Y-778D01*
X14698Y-788D01*
X14701Y-798D01*
X14703Y-809D01*
X14704Y-821D01*
Y-821D01*
Y-824D01*
X14703Y-827D01*
Y-831D01*
X14702Y-837D01*
X14700Y-843D01*
X14699Y-850D01*
X14696Y-858D01*
X14693Y-865D01*
X14689Y-874D01*
X14684Y-882D01*
X14678Y-891D01*
X14671Y-899D01*
X14663Y-908D01*
X14654Y-916D01*
X14643Y-923D01*
X14642Y-924D01*
X14640Y-925D01*
X14637Y-927D01*
X14631Y-930D01*
X14625Y-933D01*
X14616Y-936D01*
X14606Y-940D01*
X14594Y-943D01*
X14581Y-947D01*
X14565Y-950D01*
X14548Y-954D01*
X14528Y-957D01*
X14508Y-959D01*
X14484Y-962D01*
X14459Y-962D01*
X14432Y-963D01*
X14418D01*
X14407Y-962D01*
X14395Y-962D01*
X14381Y-961D01*
X14365Y-959D01*
X14349Y-958D01*
X14314Y-953D01*
X14297Y-950D01*
X14279Y-946D01*
X14263Y-942D01*
X14247Y-937D01*
X14233Y-930D01*
X14221Y-923D01*
X14220Y-923D01*
X14218Y-921D01*
X14215Y-919D01*
X14212Y-916D01*
X14207Y-913D01*
X14202Y-908D01*
X14196Y-902D01*
X14191Y-896D01*
X14186Y-889D01*
X14180Y-882D01*
X14170Y-864D01*
X14166Y-854D01*
X14164Y-844D01*
X14161Y-833D01*
X14161Y-821D01*
Y-821D01*
Y-819D01*
X14161Y-815D01*
Y-811D01*
X14163Y-805D01*
X14164Y-799D01*
X14166Y-792D01*
X14169Y-785D01*
X14171Y-777D01*
X14176Y-768D01*
X14180Y-760D01*
X14186Y-751D01*
X14193Y-743D01*
X14200Y-734D01*
X14210Y-727D01*
X14220Y-719D01*
X14221Y-718D01*
X14223Y-717D01*
X14227Y-715D01*
X14232Y-712D01*
X14239Y-710D01*
X14247Y-707D01*
X14258Y-703D01*
X14269Y-700D01*
X14283Y-695D01*
X14299Y-692D01*
X14316Y-689D01*
X14335Y-686D01*
X14357Y-683D01*
X14380Y-681D01*
X14405Y-681D01*
X14433Y-680D01*
X14447D01*
X14457Y-681D01*
D02*
G37*
G36*
X14318Y-426D02*
X14317D01*
X14312Y-426D01*
X14306Y-428D01*
X14298Y-429D01*
X14289Y-432D01*
X14280Y-436D01*
X14271Y-441D01*
X14263Y-447D01*
X14262Y-448D01*
X14260Y-450D01*
X14256Y-454D01*
X14253Y-459D01*
X14249Y-465D01*
X14246Y-472D01*
X14244Y-479D01*
X14243Y-487D01*
Y-488D01*
X14244Y-491D01*
X14244Y-496D01*
X14246Y-502D01*
X14249Y-509D01*
X14254Y-516D01*
X14259Y-524D01*
X14268Y-531D01*
X14269Y-532D01*
X14273Y-534D01*
X14278Y-538D01*
X14287Y-541D01*
X14298Y-544D01*
X14312Y-547D01*
X14327Y-550D01*
X14346Y-550D01*
X14354D01*
X14358Y-550D01*
X14363D01*
X14373Y-548D01*
X14385Y-546D01*
X14397Y-542D01*
X14409Y-538D01*
X14419Y-532D01*
X14420Y-531D01*
X14423Y-528D01*
X14427Y-525D01*
X14431Y-519D01*
X14435Y-512D01*
X14440Y-504D01*
X14443Y-495D01*
X14443Y-484D01*
Y-484D01*
Y-483D01*
Y-481D01*
X14443Y-478D01*
X14441Y-472D01*
X14438Y-463D01*
X14434Y-453D01*
X14427Y-442D01*
X14423Y-436D01*
X14417Y-431D01*
X14411Y-426D01*
X14404Y-420D01*
X14416Y-352D01*
X14695Y-395D01*
Y-616D01*
X14599D01*
Y-459D01*
X14508Y-445D01*
X14509Y-446D01*
X14511Y-450D01*
X14514Y-455D01*
X14517Y-462D01*
X14520Y-471D01*
X14523Y-481D01*
X14525Y-491D01*
X14525Y-502D01*
Y-503D01*
Y-504D01*
Y-507D01*
X14525Y-511D01*
X14524Y-516D01*
X14523Y-521D01*
X14520Y-533D01*
X14516Y-546D01*
X14512Y-554D01*
X14508Y-561D01*
X14503Y-569D01*
X14498Y-576D01*
X14491Y-583D01*
X14484Y-590D01*
X14484Y-591D01*
X14482Y-592D01*
X14479Y-594D01*
X14475Y-597D01*
X14469Y-601D01*
X14464Y-605D01*
X14456Y-608D01*
X14448Y-613D01*
X14438Y-618D01*
X14428Y-621D01*
X14417Y-625D01*
X14405Y-629D01*
X14392Y-632D01*
X14378Y-634D01*
X14363Y-635D01*
X14348Y-636D01*
X14341D01*
X14336Y-635D01*
X14330Y-635D01*
X14322Y-634D01*
X14314Y-632D01*
X14305Y-631D01*
X14285Y-627D01*
X14263Y-620D01*
X14253Y-615D01*
X14242Y-610D01*
X14230Y-604D01*
X14219Y-597D01*
X14218Y-596D01*
X14217Y-595D01*
X14213Y-593D01*
X14210Y-590D01*
X14205Y-586D01*
X14200Y-581D01*
X14195Y-575D01*
X14190Y-569D01*
X14184Y-561D01*
X14179Y-553D01*
X14174Y-544D01*
X14170Y-534D01*
X14166Y-523D01*
X14164Y-511D01*
X14161Y-499D01*
X14161Y-486D01*
Y-485D01*
Y-483D01*
Y-480D01*
X14161Y-476D01*
X14162Y-471D01*
X14163Y-465D01*
X14166Y-452D01*
X14170Y-437D01*
X14176Y-421D01*
X14181Y-412D01*
X14186Y-404D01*
X14192Y-397D01*
X14198Y-389D01*
X14199Y-388D01*
X14200Y-387D01*
X14203Y-385D01*
X14205Y-382D01*
X14210Y-380D01*
X14214Y-376D01*
X14220Y-373D01*
X14227Y-368D01*
X14234Y-364D01*
X14242Y-361D01*
X14251Y-356D01*
X14261Y-353D01*
X14271Y-349D01*
X14283Y-346D01*
X14295Y-344D01*
X14307Y-342D01*
X14318Y-426D01*
D02*
G37*
G36*
X14175Y8D02*
X14179Y7D01*
X14184D01*
X14189Y6D01*
X14195Y5D01*
X14203Y3D01*
X14218Y-0D01*
X14235Y-5D01*
X14253Y-12D01*
X14271Y-20D01*
X14272D01*
X14273Y-21D01*
X14276Y-23D01*
X14280Y-25D01*
X14285Y-28D01*
X14291Y-31D01*
X14297Y-36D01*
X14305Y-41D01*
X14314Y-47D01*
X14324Y-53D01*
X14334Y-61D01*
X14346Y-70D01*
X14358Y-79D01*
X14370Y-90D01*
X14385Y-101D01*
X14399Y-114D01*
X14399Y-115D01*
X14402Y-116D01*
X14404Y-119D01*
X14409Y-123D01*
X14414Y-128D01*
X14420Y-133D01*
X14433Y-143D01*
X14447Y-155D01*
X14461Y-166D01*
X14467Y-171D01*
X14474Y-176D01*
X14479Y-179D01*
X14484Y-182D01*
X14484D01*
X14485Y-183D01*
X14489Y-185D01*
X14496Y-188D01*
X14504Y-192D01*
X14514Y-195D01*
X14525Y-198D01*
X14537Y-201D01*
X14549Y-201D01*
X14554D01*
X14561Y-201D01*
X14569Y-199D01*
X14577Y-197D01*
X14586Y-194D01*
X14594Y-191D01*
X14601Y-185D01*
X14602Y-184D01*
X14604Y-182D01*
X14607Y-179D01*
X14610Y-174D01*
X14614Y-168D01*
X14617Y-161D01*
X14619Y-153D01*
X14620Y-144D01*
Y-143D01*
Y-142D01*
X14619Y-139D01*
X14618Y-135D01*
X14617Y-131D01*
X14615Y-126D01*
X14612Y-121D01*
X14609Y-116D01*
X14605Y-111D01*
X14599Y-105D01*
X14593Y-100D01*
X14585Y-96D01*
X14575Y-91D01*
X14564Y-88D01*
X14552Y-86D01*
X14537Y-84D01*
X14547Y-2D01*
X14548D01*
X14551Y-2D01*
X14555D01*
X14561Y-3D01*
X14567Y-4D01*
X14575Y-6D01*
X14583Y-8D01*
X14593Y-10D01*
X14612Y-16D01*
X14632Y-23D01*
X14650Y-33D01*
X14658Y-40D01*
X14666Y-46D01*
X14666Y-47D01*
X14667Y-48D01*
X14669Y-50D01*
X14671Y-53D01*
X14675Y-57D01*
X14678Y-61D01*
X14681Y-67D01*
X14685Y-73D01*
X14688Y-79D01*
X14692Y-87D01*
X14698Y-104D01*
X14702Y-124D01*
X14703Y-135D01*
X14704Y-146D01*
Y-147D01*
Y-149D01*
Y-152D01*
X14703Y-157D01*
X14702Y-163D01*
X14702Y-169D01*
X14698Y-185D01*
X14693Y-201D01*
X14690Y-210D01*
X14685Y-219D01*
X14680Y-227D01*
X14674Y-235D01*
X14667Y-242D01*
X14659Y-249D01*
X14659Y-250D01*
X14657Y-251D01*
X14655Y-253D01*
X14651Y-255D01*
X14647Y-258D01*
X14642Y-261D01*
X14637Y-264D01*
X14629Y-267D01*
X14615Y-273D01*
X14597Y-279D01*
X14578Y-283D01*
X14567Y-284D01*
X14557Y-285D01*
X14551D01*
X14545Y-284D01*
X14537Y-283D01*
X14527Y-283D01*
X14516Y-281D01*
X14505Y-278D01*
X14494Y-276D01*
X14492Y-275D01*
X14489Y-274D01*
X14482Y-272D01*
X14474Y-268D01*
X14465Y-265D01*
X14455Y-260D01*
X14443Y-254D01*
X14432Y-248D01*
X14431Y-247D01*
X14426Y-244D01*
X14420Y-240D01*
X14411Y-233D01*
X14399Y-225D01*
X14385Y-214D01*
X14370Y-201D01*
X14353Y-186D01*
X14352Y-186D01*
X14351Y-185D01*
X14348Y-183D01*
X14346Y-180D01*
X14338Y-173D01*
X14328Y-165D01*
X14318Y-156D01*
X14308Y-148D01*
X14300Y-140D01*
X14295Y-137D01*
X14292Y-135D01*
X14292Y-135D01*
X14290Y-134D01*
X14288Y-132D01*
X14284Y-129D01*
X14275Y-124D01*
X14265Y-118D01*
Y-285D01*
X14170D01*
Y8D01*
X14172D01*
X14175Y8D01*
D02*
G37*
G36*
X384Y-2560D02*
X341D01*
X344Y-2562D01*
X349Y-2566D01*
X352Y-2568D01*
X356Y-2572D01*
X360Y-2576D01*
X364Y-2580D01*
X369Y-2585D01*
X372Y-2589D01*
X375Y-2594D01*
X377Y-2598D01*
X379Y-2602D01*
X381Y-2606D01*
X383Y-2610D01*
X385Y-2614D01*
X387Y-2622D01*
X388Y-2627D01*
X389Y-2634D01*
X390Y-2641D01*
X390Y-2648D01*
X389Y-2654D01*
X389Y-2658D01*
X388Y-2664D01*
X387Y-2670D01*
X386Y-2677D01*
X385Y-2680D01*
X383Y-2685D01*
X381Y-2688D01*
X378Y-2696D01*
X375Y-2700D01*
X371Y-2706D01*
X368Y-2709D01*
X363Y-2714D01*
X359Y-2719D01*
X353Y-2723D01*
X350Y-2725D01*
X344Y-2729D01*
X340Y-2731D01*
X343Y-2734D01*
X347Y-2737D01*
X351Y-2741D01*
X355Y-2744D01*
X359Y-2748D01*
X362Y-2752D01*
X366Y-2757D01*
X369Y-2760D01*
X373Y-2766D01*
X375Y-2770D01*
X377Y-2773D01*
X379Y-2778D01*
X381Y-2782D01*
X384Y-2790D01*
X385Y-2793D01*
X387Y-2801D01*
X388Y-2805D01*
X389Y-2810D01*
X389Y-2814D01*
X389Y-2819D01*
X390Y-2827D01*
X390Y-2833D01*
X389Y-2838D01*
X389Y-2842D01*
X388Y-2846D01*
X388Y-2851D01*
X387Y-2855D01*
X385Y-2860D01*
X384Y-2864D01*
X382Y-2869D01*
X380Y-2874D01*
X378Y-2878D01*
X376Y-2881D01*
X374Y-2886D01*
X372Y-2889D01*
X367Y-2894D01*
X364Y-2897D01*
X360Y-2901D01*
X358Y-2903D01*
X355Y-2905D01*
X351Y-2908D01*
X348Y-2910D01*
X345Y-2912D01*
X338Y-2915D01*
X334Y-2917D01*
X326Y-2920D01*
X320Y-2922D01*
X316Y-2923D01*
X309Y-2924D01*
X303Y-2925D01*
X297Y-2926D01*
X289Y-2926D01*
X281Y-2927D01*
X100D01*
Y-2862D01*
X261D01*
X266Y-2861D01*
X270Y-2861D01*
X276Y-2861D01*
X280Y-2860D01*
X285Y-2859D01*
X291Y-2858D01*
X295Y-2857D01*
X299Y-2855D01*
X303Y-2853D01*
X307Y-2850D01*
X311Y-2848D01*
X314Y-2845D01*
X318Y-2841D01*
X320Y-2838D01*
X323Y-2835D01*
X325Y-2831D01*
X327Y-2827D01*
X328Y-2822D01*
X329Y-2818D01*
X330Y-2814D01*
X330Y-2808D01*
X331Y-2804D01*
X330Y-2797D01*
X330Y-2793D01*
X329Y-2789D01*
X328Y-2784D01*
X326Y-2779D01*
X324Y-2775D01*
X322Y-2771D01*
X318Y-2766D01*
X315Y-2762D01*
X312Y-2760D01*
X310Y-2758D01*
X307Y-2756D01*
X304Y-2754D01*
X300Y-2752D01*
X296Y-2750D01*
X291Y-2748D01*
X288Y-2747D01*
X284Y-2746D01*
X278Y-2745D01*
X273Y-2744D01*
X266Y-2743D01*
X260Y-2743D01*
X100D01*
Y-2678D01*
X263Y-2678D01*
X267Y-2678D01*
X272Y-2678D01*
X277Y-2677D01*
X282Y-2676D01*
X289Y-2675D01*
X294Y-2673D01*
X298Y-2672D01*
X301Y-2670D01*
X305Y-2668D01*
X309Y-2666D01*
X312Y-2663D01*
X315Y-2660D01*
X318Y-2657D01*
X321Y-2654D01*
X323Y-2651D01*
X324Y-2648D01*
X326Y-2644D01*
X328Y-2640D01*
X329Y-2634D01*
X330Y-2629D01*
X330Y-2625D01*
X331Y-2620D01*
X330Y-2616D01*
X330Y-2612D01*
X329Y-2607D01*
X328Y-2603D01*
X327Y-2599D01*
X325Y-2595D01*
X323Y-2591D01*
X321Y-2588D01*
X319Y-2584D01*
X316Y-2581D01*
X314Y-2579D01*
X311Y-2576D01*
X307Y-2573D01*
X303Y-2570D01*
X298Y-2568D01*
X294Y-2566D01*
X289Y-2564D01*
X285Y-2563D01*
X281Y-2562D01*
X279Y-2561D01*
X275Y-2561D01*
X271Y-2560D01*
X266Y-2560D01*
X260Y-2560D01*
X100D01*
Y-2495D01*
X384D01*
Y-2560D01*
D02*
G37*
G36*
X241Y-2183D02*
X233Y-2183D01*
X227Y-2184D01*
X218Y-2185D01*
X209Y-2188D01*
X205Y-2190D01*
X199Y-2192D01*
X192Y-2196D01*
X185Y-2201D01*
X179Y-2206D01*
X174Y-2210D01*
X171Y-2214D01*
X168Y-2217D01*
X163Y-2224D01*
X160Y-2229D01*
X157Y-2235D01*
X155Y-2240D01*
X153Y-2247D01*
X152Y-2254D01*
X151Y-2259D01*
X150Y-2265D01*
X150Y-2272D01*
X151Y-2278D01*
X151Y-2284D01*
X153Y-2290D01*
X154Y-2296D01*
X156Y-2300D01*
X158Y-2306D01*
X161Y-2313D01*
X164Y-2317D01*
X168Y-2323D01*
X172Y-2327D01*
X177Y-2332D01*
X182Y-2336D01*
X187Y-2340D01*
X191Y-2342D01*
X195Y-2345D01*
X200Y-2347D01*
X204Y-2349D01*
X209Y-2350D01*
X213Y-2352D01*
X218Y-2353D01*
X223Y-2354D01*
X228Y-2355D01*
X233Y-2355D01*
X238Y-2355D01*
X245Y-2355D01*
X252Y-2355D01*
X259Y-2354D01*
X267Y-2352D01*
X274Y-2350D01*
X281Y-2347D01*
X288Y-2344D01*
X294Y-2340D01*
X300Y-2335D01*
X307Y-2330D01*
X310Y-2327D01*
X313Y-2323D01*
X317Y-2317D01*
X322Y-2310D01*
X325Y-2305D01*
X328Y-2297D01*
X330Y-2291D01*
X331Y-2285D01*
X332Y-2280D01*
X333Y-2274D01*
X333Y-2267D01*
X332Y-2262D01*
X332Y-2255D01*
X331Y-2248D01*
X329Y-2243D01*
X328Y-2238D01*
X325Y-2232D01*
X323Y-2227D01*
X319Y-2220D01*
X314Y-2214D01*
X309Y-2208D01*
X304Y-2204D01*
X299Y-2200D01*
X295Y-2197D01*
X289Y-2194D01*
X285Y-2192D01*
X277Y-2188D01*
X268Y-2186D01*
X259Y-2184D01*
X252Y-2183D01*
X247Y-2183D01*
X241Y-2183D01*
X241Y-2117D01*
X252Y-2118D01*
X259Y-2118D01*
X268Y-2120D01*
X279Y-2122D01*
X286Y-2124D01*
X291Y-2126D01*
X298Y-2129D01*
X306Y-2132D01*
X312Y-2135D01*
X318Y-2139D01*
X325Y-2143D01*
X331Y-2148D01*
X337Y-2153D01*
X342Y-2157D01*
X346Y-2161D01*
X349Y-2164D01*
X353Y-2168D01*
X359Y-2176D01*
X363Y-2181D01*
X367Y-2188D01*
X370Y-2192D01*
X374Y-2199D01*
X376Y-2205D01*
X379Y-2210D01*
X380Y-2215D01*
X383Y-2223D01*
X385Y-2229D01*
X386Y-2235D01*
X387Y-2241D01*
X388Y-2246D01*
X389Y-2250D01*
X389Y-2259D01*
X390Y-2267D01*
X390Y-2273D01*
X389Y-2284D01*
X388Y-2291D01*
X387Y-2300D01*
X386Y-2305D01*
X385Y-2310D01*
X383Y-2316D01*
X380Y-2325D01*
X377Y-2331D01*
X373Y-2341D01*
X370Y-2346D01*
X368Y-2351D01*
X365Y-2355D01*
X361Y-2361D01*
X357Y-2365D01*
X354Y-2370D01*
X350Y-2374D01*
X346Y-2378D01*
X342Y-2382D01*
X337Y-2386D01*
X333Y-2389D01*
X328Y-2393D01*
X325Y-2396D01*
X320Y-2399D01*
X316Y-2401D01*
X308Y-2405D01*
X304Y-2407D01*
X299Y-2409D01*
X294Y-2411D01*
X289Y-2413D01*
X283Y-2415D01*
X279Y-2416D01*
X270Y-2418D01*
X265Y-2419D01*
X257Y-2420D01*
X251Y-2420D01*
X245Y-2420D01*
X238Y-2420D01*
X229Y-2420D01*
X224Y-2419D01*
X219Y-2419D01*
X210Y-2417D01*
X205Y-2416D01*
X200Y-2414D01*
X193Y-2412D01*
X187Y-2410D01*
X181Y-2408D01*
X175Y-2405D01*
X168Y-2401D01*
X162Y-2397D01*
X156Y-2394D01*
X148Y-2388D01*
X144Y-2384D01*
X139Y-2379D01*
X134Y-2375D01*
X131Y-2371D01*
X124Y-2362D01*
X121Y-2358D01*
X117Y-2353D01*
X114Y-2347D01*
X110Y-2340D01*
X108Y-2336D01*
X104Y-2328D01*
X102Y-2321D01*
X100Y-2316D01*
X98Y-2309D01*
X97Y-2303D01*
X96Y-2298D01*
X95Y-2293D01*
X94Y-2284D01*
X93Y-2276D01*
X93Y-2269D01*
X93Y-2261D01*
X94Y-2253D01*
X95Y-2244D01*
X96Y-2240D01*
X97Y-2235D01*
X98Y-2229D01*
X100Y-2223D01*
X102Y-2217D01*
X104Y-2209D01*
X107Y-2203D01*
X111Y-2195D01*
X114Y-2189D01*
X120Y-2181D01*
X123Y-2175D01*
X128Y-2169D01*
X134Y-2163D01*
X137Y-2159D01*
X142Y-2155D01*
X150Y-2148D01*
X157Y-2143D01*
X164Y-2139D01*
X169Y-2136D01*
X175Y-2132D01*
X181Y-2130D01*
X188Y-2127D01*
X196Y-2124D01*
X204Y-2122D01*
X215Y-2120D01*
X224Y-2118D01*
X231Y-2118D01*
X241Y-2117D01*
Y-2183D01*
D02*
G37*
G36*
X987Y-2324D02*
X946D01*
Y-2259D01*
X750Y-2259D01*
X750Y-2216D01*
X946D01*
X946Y-2151D01*
X987D01*
Y-2324D01*
D02*
G37*
G36*
X1794Y-2216D02*
X1155D01*
Y-2098D01*
X1794D01*
Y-2216D01*
D02*
G37*
G36*
X1488Y-2342D02*
X1499Y-2343D01*
X1510Y-2343D01*
X1524Y-2345D01*
X1533Y-2346D01*
X1548Y-2349D01*
X1558Y-2351D01*
X1574Y-2355D01*
X1590Y-2360D01*
X1597Y-2362D01*
X1609Y-2366D01*
X1616Y-2369D01*
X1623Y-2372D01*
X1631Y-2376D01*
X1639Y-2380D01*
X1648Y-2385D01*
X1660Y-2392D01*
X1676Y-2403D01*
X1693Y-2416D01*
X1708Y-2430D01*
X1720Y-2443D01*
X1727Y-2450D01*
X1736Y-2461D01*
X1743Y-2470D01*
X1748Y-2478D01*
X1753Y-2485D01*
X1758Y-2492D01*
X1765Y-2505D01*
X1769Y-2512D01*
X1775Y-2524D01*
X1780Y-2536D01*
X1784Y-2547D01*
X1788Y-2558D01*
X1791Y-2569D01*
X1794Y-2580D01*
X1798Y-2596D01*
X1802Y-2611D01*
X1804Y-2626D01*
X1806Y-2642D01*
X1807Y-2657D01*
X1808Y-2668D01*
X1808Y-2683D01*
X1808Y-2694D01*
X1808Y-2711D01*
X1807Y-2726D01*
X1805Y-2742D01*
X1803Y-2755D01*
X1801Y-2770D01*
X1796Y-2788D01*
X1792Y-2806D01*
X1785Y-2827D01*
X1778Y-2843D01*
X1771Y-2859D01*
X1768Y-2866D01*
X1762Y-2876D01*
X1756Y-2888D01*
X1750Y-2897D01*
X1743Y-2908D01*
X1738Y-2916D01*
X1635Y-2848D01*
X1637Y-2846D01*
X1646Y-2833D01*
X1652Y-2822D01*
X1658Y-2811D01*
X1665Y-2797D01*
X1670Y-2784D01*
X1674Y-2774D01*
X1678Y-2759D01*
X1681Y-2748D01*
X1684Y-2738D01*
X1685Y-2728D01*
X1687Y-2716D01*
X1688Y-2704D01*
X1688Y-2696D01*
X1688Y-2689D01*
X1688Y-2683D01*
X1688Y-2672D01*
X1688Y-2665D01*
X1687Y-2658D01*
X1686Y-2647D01*
X1684Y-2640D01*
X1683Y-2632D01*
X1680Y-2621D01*
X1677Y-2610D01*
X1674Y-2602D01*
X1671Y-2594D01*
X1666Y-2582D01*
X1661Y-2573D01*
X1655Y-2563D01*
X1647Y-2551D01*
X1642Y-2545D01*
X1634Y-2536D01*
X1628Y-2529D01*
X1618Y-2520D01*
X1606Y-2510D01*
X1596Y-2503D01*
X1583Y-2496D01*
X1573Y-2491D01*
X1564Y-2487D01*
X1552Y-2482D01*
X1545Y-2480D01*
X1535Y-2477D01*
X1525Y-2475D01*
X1512Y-2473D01*
X1501Y-2471D01*
X1489Y-2470D01*
X1472Y-2470D01*
X1455Y-2471D01*
X1440Y-2472D01*
X1425Y-2475D01*
X1412Y-2478D01*
X1398Y-2482D01*
X1386Y-2486D01*
X1373Y-2492D01*
X1362Y-2498D01*
X1346Y-2508D01*
X1331Y-2520D01*
X1322Y-2528D01*
X1314Y-2537D01*
X1306Y-2547D01*
X1301Y-2554D01*
X1297Y-2559D01*
X1293Y-2565D01*
X1287Y-2575D01*
X1283Y-2584D01*
X1277Y-2596D01*
X1273Y-2608D01*
X1269Y-2620D01*
X1267Y-2631D01*
X1264Y-2646D01*
X1262Y-2664D01*
X1261Y-2682D01*
X1261Y-2693D01*
X1262Y-2710D01*
X1264Y-2725D01*
X1266Y-2737D01*
X1269Y-2750D01*
X1272Y-2763D01*
X1274Y-2771D01*
X1279Y-2782D01*
X1282Y-2791D01*
X1291Y-2810D01*
X1300Y-2827D01*
X1308Y-2839D01*
X1314Y-2848D01*
X1212Y-2916D01*
X1199Y-2896D01*
X1189Y-2879D01*
X1181Y-2864D01*
X1173Y-2847D01*
X1166Y-2830D01*
X1160Y-2813D01*
X1156Y-2798D01*
X1153Y-2790D01*
X1150Y-2777D01*
X1148Y-2763D01*
X1146Y-2751D01*
X1144Y-2738D01*
X1143Y-2730D01*
X1142Y-2718D01*
X1142Y-2708D01*
X1141Y-2691D01*
X1141Y-2677D01*
X1142Y-2663D01*
X1143Y-2652D01*
X1143Y-2642D01*
X1145Y-2631D01*
X1146Y-2621D01*
X1148Y-2609D01*
X1150Y-2599D01*
X1153Y-2586D01*
X1156Y-2575D01*
X1159Y-2564D01*
X1163Y-2554D01*
X1167Y-2543D01*
X1172Y-2531D01*
X1174Y-2526D01*
X1180Y-2514D01*
X1183Y-2508D01*
X1195Y-2488D01*
X1199Y-2480D01*
X1205Y-2472D01*
X1219Y-2454D01*
X1230Y-2441D01*
X1245Y-2426D01*
X1257Y-2416D01*
X1270Y-2405D01*
X1281Y-2397D01*
X1294Y-2389D01*
X1304Y-2383D01*
X1314Y-2378D01*
X1330Y-2371D01*
X1344Y-2365D01*
X1356Y-2360D01*
X1368Y-2357D01*
X1379Y-2354D01*
X1395Y-2350D01*
X1410Y-2347D01*
X1424Y-2345D01*
X1438Y-2344D01*
X1447Y-2343D01*
X1461Y-2342D01*
X1475Y-2342D01*
X1488Y-2342D01*
D02*
G37*
G36*
X987Y-2814D02*
X986Y-2823D01*
X986Y-2827D01*
X985Y-2834D01*
X982Y-2843D01*
X979Y-2851D01*
X976Y-2857D01*
X971Y-2865D01*
X968Y-2869D01*
X961Y-2876D01*
X955Y-2880D01*
X949Y-2883D01*
X945Y-2885D01*
X940Y-2887D01*
X930Y-2889D01*
X926Y-2890D01*
X918Y-2891D01*
X913Y-2891D01*
X908Y-2890D01*
X903Y-2890D01*
X898Y-2889D01*
X893Y-2888D01*
X886Y-2885D01*
X881Y-2883D01*
X876Y-2880D01*
X868Y-2874D01*
X862Y-2868D01*
X858Y-2863D01*
X854Y-2857D01*
X850Y-2848D01*
X848Y-2840D01*
X846Y-2835D01*
X750Y-2905D01*
Y-2851D01*
X844Y-2786D01*
Y-2770D01*
X883D01*
X883Y-2810D01*
X883Y-2816D01*
X884Y-2822D01*
X886Y-2827D01*
X888Y-2831D01*
X892Y-2836D01*
X895Y-2839D01*
X902Y-2842D01*
X907Y-2844D01*
X914Y-2844D01*
X919Y-2844D01*
X926Y-2842D01*
X931Y-2840D01*
X938Y-2835D01*
X942Y-2829D01*
X944Y-2825D01*
X946Y-2817D01*
X947Y-2812D01*
X947Y-2770D01*
X750Y-2770D01*
Y-2727D01*
X987D01*
Y-2814D01*
D02*
G37*
G36*
X873Y-2391D02*
X881Y-2391D01*
X891Y-2392D01*
X900Y-2394D01*
X908Y-2396D01*
X914Y-2398D01*
X923Y-2402D01*
X931Y-2406D01*
X936Y-2409D01*
X942Y-2413D01*
X949Y-2418D01*
X957Y-2425D01*
X962Y-2430D01*
X966Y-2435D01*
X969Y-2439D01*
X972Y-2444D01*
X975Y-2449D01*
X977Y-2453D01*
X982Y-2464D01*
X985Y-2470D01*
X988Y-2479D01*
X989Y-2485D01*
X990Y-2491D01*
X991Y-2499D01*
X992Y-2504D01*
X992Y-2511D01*
Y-2517D01*
X992Y-2522D01*
X991Y-2530D01*
X990Y-2535D01*
X989Y-2541D01*
X988Y-2547D01*
X987Y-2553D01*
X985Y-2559D01*
X980Y-2569D01*
X977Y-2577D01*
X974Y-2581D01*
X972Y-2585D01*
X968Y-2590D01*
X963Y-2597D01*
X960Y-2600D01*
X956Y-2605D01*
X948Y-2612D01*
X944Y-2615D01*
X939Y-2618D01*
X934Y-2621D01*
X929Y-2624D01*
X921Y-2628D01*
X914Y-2630D01*
X909Y-2632D01*
X903Y-2634D01*
X898Y-2635D01*
X893Y-2636D01*
X885Y-2637D01*
X876Y-2638D01*
X866Y-2638D01*
X852Y-2637D01*
X841Y-2636D01*
X836Y-2635D01*
X828Y-2632D01*
X822Y-2630D01*
X816Y-2628D01*
X808Y-2624D01*
X803Y-2621D01*
X797Y-2618D01*
X792Y-2614D01*
X786Y-2609D01*
X781Y-2604D01*
X775Y-2599D01*
X768Y-2590D01*
X765Y-2585D01*
X762Y-2580D01*
X758Y-2572D01*
X755Y-2565D01*
X752Y-2558D01*
X750Y-2552D01*
X749Y-2546D01*
X747Y-2537D01*
X746Y-2532D01*
X745Y-2524D01*
X745Y-2519D01*
X745Y-2506D01*
X746Y-2502D01*
X746Y-2496D01*
X747Y-2488D01*
X749Y-2480D01*
X751Y-2474D01*
X754Y-2464D01*
X757Y-2458D01*
X761Y-2450D01*
X764Y-2446D01*
X767Y-2441D01*
X771Y-2435D01*
X776Y-2429D01*
X781Y-2425D01*
X785Y-2420D01*
X792Y-2415D01*
X797Y-2411D01*
X803Y-2407D01*
X812Y-2403D01*
X819Y-2400D01*
X825Y-2397D01*
X830Y-2396D01*
X838Y-2394D01*
X845Y-2392D01*
X852Y-2391D01*
X868Y-2390D01*
X873Y-2391D01*
D02*
G37*
G36*
X872Y-650D02*
X880Y-650D01*
X890Y-652D01*
X900Y-654D01*
X907Y-656D01*
X913Y-657D01*
X922Y-661D01*
X930Y-665D01*
X935Y-668D01*
X941Y-672D01*
X948Y-677D01*
X956Y-685D01*
X961Y-690D01*
X965Y-694D01*
X968Y-699D01*
X971Y-704D01*
X974Y-708D01*
X976Y-712D01*
X981Y-723D01*
X984Y-730D01*
X987Y-739D01*
X988Y-745D01*
X989Y-750D01*
X990Y-758D01*
X991Y-764D01*
X991Y-771D01*
Y-776D01*
X991Y-781D01*
X990Y-789D01*
X989Y-795D01*
X988Y-800D01*
X987Y-806D01*
X986Y-812D01*
X984Y-818D01*
X980Y-829D01*
X976Y-836D01*
X974Y-840D01*
X971Y-845D01*
X967Y-850D01*
X962Y-856D01*
X959Y-860D01*
X955Y-864D01*
X947Y-871D01*
X943Y-874D01*
X938Y-878D01*
X933Y-881D01*
X928Y-884D01*
X920Y-887D01*
X914Y-890D01*
X908Y-892D01*
X902Y-893D01*
X897Y-895D01*
X893Y-896D01*
X884Y-897D01*
X875Y-898D01*
X865Y-898D01*
X851Y-897D01*
X840Y-895D01*
X835Y-894D01*
X827Y-892D01*
X822Y-890D01*
X815Y-887D01*
X807Y-884D01*
X802Y-881D01*
X796Y-877D01*
X791Y-873D01*
X786Y-869D01*
X780Y-864D01*
X774Y-858D01*
X768Y-849D01*
X764Y-844D01*
X761Y-840D01*
X757Y-832D01*
X754Y-825D01*
X751Y-818D01*
X749Y-812D01*
X748Y-806D01*
X746Y-797D01*
X745Y-791D01*
X744Y-783D01*
X744Y-778D01*
X744Y-766D01*
X745Y-761D01*
X745Y-756D01*
X746Y-748D01*
X748Y-739D01*
X750Y-733D01*
X753Y-724D01*
X756Y-717D01*
X760Y-709D01*
X763Y-705D01*
X766Y-700D01*
X770Y-694D01*
X775Y-689D01*
X780Y-684D01*
X784Y-680D01*
X791Y-674D01*
X796Y-671D01*
X802Y-667D01*
X811Y-662D01*
X818Y-659D01*
X824Y-657D01*
X829Y-655D01*
X837Y-653D01*
X844Y-652D01*
X851Y-651D01*
X867Y-650D01*
X872Y-650D01*
D02*
G37*
G36*
X241Y988D02*
X233Y988D01*
X227Y987D01*
X218Y985D01*
X209Y983D01*
X205Y981D01*
X199Y979D01*
X192Y975D01*
X185Y970D01*
X179Y965D01*
X174Y961D01*
X171Y957D01*
X168Y953D01*
X163Y947D01*
X160Y942D01*
X157Y936D01*
X155Y930D01*
X153Y923D01*
X152Y917D01*
X151Y912D01*
X150Y906D01*
X150Y899D01*
X151Y893D01*
X151Y887D01*
X153Y881D01*
X154Y875D01*
X156Y871D01*
X158Y865D01*
X161Y858D01*
X164Y854D01*
X168Y848D01*
X172Y844D01*
X177Y839D01*
X182Y834D01*
X187Y831D01*
X191Y828D01*
X195Y826D01*
X200Y824D01*
X204Y822D01*
X209Y820D01*
X213Y819D01*
X218Y818D01*
X223Y817D01*
X228Y816D01*
X233Y816D01*
X238Y816D01*
X245Y816D01*
X252Y816D01*
X259Y817D01*
X267Y819D01*
X274Y821D01*
X281Y824D01*
X288Y827D01*
X294Y831D01*
X300Y835D01*
X307Y841D01*
X310Y844D01*
X313Y848D01*
X317Y853D01*
X322Y861D01*
X325Y866D01*
X328Y873D01*
X330Y880D01*
X331Y886D01*
X332Y891D01*
X333Y897D01*
X333Y904D01*
X332Y909D01*
X332Y915D01*
X331Y923D01*
X329Y928D01*
X328Y933D01*
X325Y939D01*
X323Y944D01*
X319Y951D01*
X314Y957D01*
X309Y963D01*
X304Y967D01*
X299Y971D01*
X295Y973D01*
X289Y977D01*
X285Y979D01*
X277Y983D01*
X268Y985D01*
X259Y987D01*
X252Y988D01*
X247Y988D01*
X241Y988D01*
X241Y1053D01*
X252Y1053D01*
X259Y1052D01*
X268Y1051D01*
X279Y1049D01*
X286Y1047D01*
X291Y1045D01*
X298Y1042D01*
X306Y1039D01*
X312Y1036D01*
X318Y1032D01*
X325Y1028D01*
X331Y1023D01*
X337Y1018D01*
X342Y1014D01*
X346Y1010D01*
X349Y1007D01*
X353Y1003D01*
X359Y995D01*
X363Y990D01*
X367Y983D01*
X370Y979D01*
X374Y971D01*
X376Y966D01*
X379Y960D01*
X380Y956D01*
X383Y948D01*
X385Y941D01*
X386Y935D01*
X387Y930D01*
X388Y925D01*
X389Y920D01*
X389Y912D01*
X390Y904D01*
X390Y898D01*
X389Y887D01*
X388Y879D01*
X387Y871D01*
X386Y866D01*
X385Y861D01*
X383Y855D01*
X380Y845D01*
X377Y840D01*
X373Y830D01*
X370Y825D01*
X368Y820D01*
X365Y816D01*
X361Y810D01*
X357Y806D01*
X354Y801D01*
X350Y797D01*
X346Y793D01*
X342Y789D01*
X337Y785D01*
X333Y782D01*
X328Y778D01*
X325Y775D01*
X320Y772D01*
X316Y770D01*
X308Y766D01*
X304Y764D01*
X299Y762D01*
X294Y760D01*
X289Y758D01*
X283Y756D01*
X279Y755D01*
X270Y753D01*
X265Y752D01*
X257Y751D01*
X251Y751D01*
X245Y750D01*
X238Y751D01*
X229Y751D01*
X224Y751D01*
X219Y752D01*
X210Y754D01*
X205Y755D01*
X200Y756D01*
X193Y758D01*
X187Y761D01*
X181Y763D01*
X175Y766D01*
X168Y770D01*
X162Y774D01*
X156Y777D01*
X148Y783D01*
X144Y787D01*
X139Y791D01*
X134Y796D01*
X131Y800D01*
X124Y808D01*
X121Y813D01*
X117Y818D01*
X114Y823D01*
X110Y831D01*
X108Y835D01*
X104Y843D01*
X102Y850D01*
X100Y855D01*
X98Y862D01*
X97Y867D01*
X96Y873D01*
X95Y878D01*
X94Y887D01*
X93Y895D01*
X93Y902D01*
X93Y910D01*
X94Y918D01*
X95Y927D01*
X96Y931D01*
X97Y936D01*
X98Y942D01*
X100Y948D01*
X102Y954D01*
X104Y962D01*
X107Y968D01*
X111Y975D01*
X114Y982D01*
X120Y990D01*
X123Y996D01*
X128Y1002D01*
X134Y1008D01*
X137Y1011D01*
X142Y1016D01*
X150Y1022D01*
X157Y1028D01*
X164Y1032D01*
X169Y1035D01*
X175Y1038D01*
X181Y1041D01*
X188Y1044D01*
X196Y1047D01*
X204Y1049D01*
X215Y1051D01*
X224Y1052D01*
X231Y1053D01*
X241Y1053D01*
Y988D01*
D02*
G37*
G36*
X1843Y2897D02*
X1849Y2892D01*
X1854Y2887D01*
X1858Y2882D01*
X1863Y2875D01*
X1868Y2867D01*
X2068Y2522D01*
X2072Y2516D01*
X2074Y2510D01*
X2076Y2506D01*
X2079Y2498D01*
X2080Y2493D01*
X2082Y2486D01*
X2082Y2482D01*
X2082Y2478D01*
X2082Y2471D01*
X2082Y2466D01*
X2081Y2460D01*
X2079Y2452D01*
X2077Y2447D01*
X2073Y2439D01*
X2069Y2431D01*
X1531Y1501D01*
X2079D01*
X2077Y1493D01*
X2074Y1486D01*
X2071Y1481D01*
X1867Y1129D01*
X1864Y1123D01*
X1857Y1114D01*
X1851Y1107D01*
X1838Y1096D01*
X1827Y1089D01*
X1815Y1083D01*
X1804Y1079D01*
X1795Y1078D01*
X1787Y1076D01*
X1778Y1076D01*
X788D01*
X1840Y2899D01*
X1843Y2897D01*
D02*
G37*
G36*
X763Y2920D02*
X1777Y2920D01*
X723Y1093D01*
X485Y1497D01*
X483Y1502D01*
X481Y1505D01*
X480Y1507D01*
X478Y1511D01*
X477Y1515D01*
X477Y1517D01*
X476Y1519D01*
X476Y1522D01*
X477Y1525D01*
X477Y1527D01*
X478Y1531D01*
X480Y1534D01*
X481Y1537D01*
X482Y1539D01*
X1033Y2496D01*
X483Y2495D01*
X715Y2892D01*
X720Y2900D01*
X724Y2905D01*
X730Y2909D01*
X736Y2914D01*
X743Y2917D01*
X750Y2918D01*
X758Y2920D01*
X763Y2920D01*
D02*
G37*
G36*
X384Y611D02*
X323Y610D01*
X328Y608D01*
X335Y604D01*
X342Y600D01*
X349Y595D01*
X353Y592D01*
X359Y587D01*
X364Y581D01*
X369Y575D01*
X373Y570D01*
X377Y565D01*
X380Y558D01*
X383Y551D01*
X386Y542D01*
X388Y535D01*
X389Y529D01*
X389Y524D01*
X389Y516D01*
X389Y511D01*
X320D01*
X320Y525D01*
X319Y531D01*
X318Y537D01*
X317Y542D01*
X315Y549D01*
X312Y556D01*
X309Y562D01*
X305Y569D01*
X300Y577D01*
X292Y584D01*
X286Y589D01*
X280Y593D01*
X273Y597D01*
X268Y600D01*
X261Y603D01*
X250Y606D01*
X243Y608D01*
X233Y610D01*
X222Y611D01*
X216Y611D01*
X208Y611D01*
X100D01*
Y676D01*
X384D01*
X384Y611D01*
D02*
G37*
G36*
X248Y468D02*
X256Y468D01*
X261Y468D01*
X265Y467D01*
X275Y466D01*
X283Y464D01*
X294Y461D01*
X300Y459D01*
X306Y457D01*
X311Y455D01*
X316Y453D01*
X321Y450D01*
X327Y447D01*
X334Y442D01*
X338Y440D01*
X342Y437D01*
X346Y433D01*
X350Y429D01*
X354Y426D01*
X359Y420D01*
X363Y416D01*
X368Y408D01*
X373Y401D01*
X375Y396D01*
X379Y388D01*
X382Y380D01*
X384Y376D01*
X385Y371D01*
X387Y362D01*
X388Y356D01*
X389Y350D01*
X390Y340D01*
X390Y331D01*
X389Y322D01*
X388Y317D01*
X387Y312D01*
X386Y307D01*
X385Y302D01*
X382Y293D01*
X379Y287D01*
X375Y279D01*
X370Y271D01*
X367Y266D01*
X363Y262D01*
X359Y258D01*
X356Y254D01*
X352Y250D01*
X346Y245D01*
X340Y240D01*
X492D01*
Y175D01*
X239Y175D01*
X239Y239D01*
X247Y239D01*
X253Y239D01*
X258Y240D01*
X265Y241D01*
X270Y243D01*
X278Y245D01*
X282Y247D01*
X287Y249D01*
X292Y251D01*
X297Y255D01*
X303Y259D01*
X309Y265D01*
X313Y268D01*
X316Y272D01*
X320Y277D01*
X323Y283D01*
X327Y291D01*
X329Y297D01*
X331Y303D01*
X332Y309D01*
X333Y317D01*
X333Y326D01*
X333Y330D01*
X332Y335D01*
X331Y341D01*
X329Y348D01*
X326Y356D01*
X323Y361D01*
X319Y368D01*
X315Y373D01*
X309Y379D01*
X304Y383D01*
X300Y386D01*
X293Y391D01*
X287Y394D01*
X278Y397D01*
X272Y399D01*
X265Y401D01*
X260Y402D01*
X252Y403D01*
X245Y403D01*
X237Y403D01*
X229Y402D01*
X223Y402D01*
X217Y400D01*
X210Y399D01*
X203Y396D01*
X195Y393D01*
X191Y390D01*
X187Y388D01*
X182Y385D01*
X177Y381D01*
X172Y375D01*
X168Y370D01*
X164Y365D01*
X160Y359D01*
X157Y352D01*
X155Y348D01*
X153Y343D01*
X152Y337D01*
X151Y330D01*
X150Y326D01*
X150Y318D01*
X151Y312D01*
X152Y305D01*
X154Y299D01*
X156Y292D01*
X159Y286D01*
X162Y281D01*
X165Y276D01*
X168Y272D01*
X172Y267D01*
X177Y262D01*
X183Y257D01*
X189Y253D01*
X195Y250D01*
X200Y247D01*
X207Y244D01*
X212Y243D01*
X218Y241D01*
X224Y240D01*
X229Y239D01*
X234Y239D01*
X239Y239D01*
X239Y175D01*
X100Y175D01*
X100Y240D01*
X147D01*
X138Y247D01*
X134Y250D01*
X127Y256D01*
X124Y260D01*
X120Y264D01*
X113Y273D01*
X109Y279D01*
X107Y284D01*
X104Y288D01*
X100Y297D01*
X98Y304D01*
X97Y308D01*
X96Y315D01*
X95Y321D01*
X94Y326D01*
X94Y331D01*
X94Y340D01*
X94Y347D01*
X95Y357D01*
X96Y362D01*
X98Y369D01*
X99Y374D01*
X102Y381D01*
X103Y385D01*
X107Y393D01*
X109Y398D01*
X112Y402D01*
X115Y407D01*
X118Y411D01*
X122Y417D01*
X126Y421D01*
X129Y425D01*
X135Y430D01*
X138Y433D01*
X143Y437D01*
X148Y441D01*
X152Y444D01*
X157Y447D01*
X165Y452D01*
X171Y454D01*
X177Y457D01*
X186Y460D01*
X194Y463D01*
X203Y465D01*
X209Y466D01*
X220Y467D01*
X227Y468D01*
X235Y468D01*
X242Y469D01*
X248Y468D01*
D02*
G37*
G36*
X986Y213D02*
X945Y213D01*
Y311D01*
X898D01*
X898Y222D01*
X858D01*
X858Y311D01*
X790D01*
Y212D01*
X749D01*
Y354D01*
X986D01*
Y213D01*
D02*
G37*
G36*
X807Y592D02*
X803Y585D01*
X801Y582D01*
X798Y576D01*
X796Y571D01*
X794Y566D01*
X792Y561D01*
X789Y552D01*
X788Y547D01*
X787Y542D01*
X787Y537D01*
X786Y534D01*
X786Y529D01*
X786Y524D01*
X786Y521D01*
X787Y518D01*
X788Y513D01*
X789Y509D01*
X791Y506D01*
X792Y504D01*
X794Y502D01*
X796Y500D01*
X798Y498D01*
X801Y496D01*
X803Y496D01*
X806Y495D01*
X809Y495D01*
X812Y495D01*
X815Y495D01*
X817Y496D01*
X819Y496D01*
X821Y497D01*
X823Y498D01*
X825Y500D01*
X828Y503D01*
X830Y505D01*
X833Y508D01*
X838Y514D01*
X841Y519D01*
X869Y557D01*
X870Y558D01*
X872Y562D01*
X875Y565D01*
X877Y568D01*
X880Y571D01*
X885Y576D01*
X888Y579D01*
X894Y583D01*
X897Y585D01*
X900Y587D01*
X904Y589D01*
X914Y592D01*
X915Y593D01*
X918Y593D01*
X923Y594D01*
X927Y594D01*
X933Y594D01*
X935Y594D01*
X939Y594D01*
X943Y593D01*
X948Y592D01*
X952Y591D01*
X956Y590D01*
X960Y588D01*
X964Y585D01*
X972Y579D01*
X974Y577D01*
X975Y575D01*
X978Y572D01*
X981Y568D01*
X983Y563D01*
X985Y559D01*
X987Y555D01*
X988Y548D01*
X990Y543D01*
X990Y536D01*
X991Y530D01*
X991Y526D01*
X991Y521D01*
X991Y514D01*
X990Y507D01*
X989Y498D01*
X987Y492D01*
X986Y485D01*
X984Y479D01*
X982Y473D01*
X979Y465D01*
X974Y455D01*
X935Y473D01*
X937Y478D01*
X938Y480D01*
X939Y482D01*
X940Y485D01*
X942Y488D01*
X943Y492D01*
X944Y495D01*
X945Y499D01*
X946Y502D01*
X947Y505D01*
X948Y509D01*
X948Y512D01*
X949Y515D01*
X949Y518D01*
X949Y520D01*
X949Y524D01*
X949Y527D01*
X949Y531D01*
X949Y533D01*
X947Y538D01*
X946Y540D01*
X945Y542D01*
X944Y544D01*
X942Y545D01*
X941Y546D01*
X939Y547D01*
X936Y548D01*
X935Y548D01*
X933Y548D01*
X931Y548D01*
X928Y548D01*
X924Y547D01*
X921Y544D01*
X917Y541D01*
X914Y538D01*
X910Y534D01*
X893Y510D01*
X876Y485D01*
X873Y481D01*
X870Y477D01*
X867Y474D01*
X865Y471D01*
X863Y469D01*
X861Y467D01*
X858Y465D01*
X854Y462D01*
X850Y459D01*
X843Y455D01*
X835Y452D01*
X833Y451D01*
X830Y450D01*
X828Y450D01*
X824Y449D01*
X821Y449D01*
X818Y449D01*
X815Y449D01*
X812Y449D01*
X809Y449D01*
X806Y449D01*
X802Y449D01*
X800Y449D01*
X796Y450D01*
X791Y451D01*
X787Y453D01*
X783Y454D01*
X779Y456D01*
X773Y460D01*
X767Y465D01*
X763Y469D01*
X761Y470D01*
X759Y474D01*
X757Y477D01*
X754Y481D01*
X753Y485D01*
X751Y488D01*
X750Y491D01*
X749Y495D01*
X747Y501D01*
X746Y507D01*
X745Y511D01*
X745Y516D01*
X744Y522D01*
X744Y529D01*
X745Y541D01*
X745Y548D01*
X746Y555D01*
X748Y565D01*
X749Y571D01*
X753Y581D01*
X755Y587D01*
X757Y591D01*
X758Y594D01*
X761Y599D01*
X763Y604D01*
X765Y607D01*
X767Y611D01*
X807Y592D01*
D02*
G37*
G36*
X384Y2389D02*
X189Y2332D01*
X385Y2269D01*
Y2213D01*
X189Y2150D01*
X384Y2092D01*
Y2026D01*
X98Y2119D01*
X98Y2178D01*
X292Y2241D01*
X98Y2305D01*
Y2363D01*
X384Y2455D01*
Y2389D01*
D02*
G37*
G36*
X703Y2054D02*
X485Y2430D01*
X920Y2431D01*
X703Y2054D01*
D02*
G37*
G36*
X384Y2855D02*
X189Y2797D01*
X385Y2735D01*
Y2679D01*
X189Y2616D01*
X384Y2558D01*
Y2492D01*
X98Y2585D01*
Y2644D01*
X292Y2707D01*
X98Y2771D01*
Y2829D01*
X384Y2921D01*
Y2855D01*
D02*
G37*
G36*
X2078Y1566D02*
X1644D01*
X1862Y1942D01*
X2078Y1566D01*
D02*
G37*
G36*
X384Y1314D02*
X340D01*
X342Y1313D01*
X345Y1311D01*
X348Y1308D01*
X352Y1305D01*
X355Y1303D01*
X359Y1299D01*
X363Y1295D01*
X366Y1291D01*
X368Y1289D01*
X371Y1286D01*
X374Y1281D01*
X377Y1275D01*
X379Y1271D01*
X382Y1266D01*
X384Y1260D01*
X386Y1255D01*
X387Y1249D01*
X388Y1243D01*
X389Y1238D01*
X390Y1229D01*
X390Y1223D01*
X389Y1216D01*
X389Y1209D01*
X388Y1202D01*
X386Y1195D01*
X384Y1187D01*
X382Y1182D01*
X380Y1177D01*
X377Y1172D01*
X373Y1167D01*
X370Y1162D01*
X366Y1157D01*
X361Y1152D01*
X358Y1149D01*
X353Y1145D01*
X349Y1143D01*
X343Y1139D01*
X338Y1136D01*
X331Y1133D01*
X327Y1131D01*
X322Y1130D01*
X316Y1128D01*
X309Y1127D01*
X303Y1126D01*
X297Y1125D01*
X290Y1125D01*
X282Y1124D01*
X100Y1124D01*
Y1189D01*
X261Y1189D01*
X265Y1190D01*
X268Y1190D01*
X273Y1190D01*
X276Y1190D01*
X280Y1191D01*
X284Y1192D01*
X288Y1193D01*
X293Y1194D01*
X297Y1196D01*
X301Y1198D01*
X303Y1199D01*
X308Y1202D01*
X312Y1205D01*
X315Y1208D01*
X319Y1212D01*
X322Y1216D01*
X323Y1218D01*
X324Y1221D01*
X326Y1225D01*
X327Y1229D01*
X329Y1235D01*
X330Y1239D01*
X330Y1244D01*
X331Y1250D01*
X330Y1254D01*
X330Y1261D01*
X329Y1264D01*
X328Y1269D01*
X327Y1274D01*
X325Y1278D01*
X323Y1282D01*
X320Y1287D01*
X316Y1293D01*
X312Y1296D01*
X308Y1300D01*
X303Y1303D01*
X297Y1307D01*
X291Y1309D01*
X285Y1311D01*
X278Y1313D01*
X272Y1314D01*
X266Y1314D01*
X261Y1314D01*
X100Y1314D01*
Y1379D01*
X384D01*
Y1314D01*
D02*
G37*
G36*
X174Y1465D02*
X100D01*
Y1536D01*
X174D01*
Y1465D01*
D02*
G37*
G36*
X384Y1923D02*
X189Y1866D01*
X385Y1803D01*
Y1747D01*
X189Y1684D01*
X384Y1626D01*
Y1560D01*
X98Y1653D01*
Y1712D01*
X292Y1775D01*
X98Y1839D01*
Y1897D01*
X384Y1989D01*
Y1923D01*
D02*
G37*
G36*
X1794Y488D02*
X1355Y176D01*
X1794D01*
X1794Y59D01*
X1155Y59D01*
X1155Y168D01*
X1593Y479D01*
X1155D01*
Y596D01*
X1794Y596D01*
Y488D01*
D02*
G37*
G36*
X249Y-62D02*
X259Y-62D01*
X264Y-63D01*
X271Y-64D01*
X279Y-66D01*
X285Y-68D01*
X291Y-69D01*
X296Y-71D01*
X303Y-74D01*
X310Y-78D01*
X315Y-80D01*
X321Y-84D01*
X327Y-88D01*
X333Y-92D01*
X338Y-96D01*
X344Y-101D01*
X348Y-106D01*
X354Y-112D01*
X359Y-118D01*
X363Y-123D01*
X367Y-130D01*
X371Y-136D01*
X374Y-143D01*
X377Y-148D01*
X379Y-153D01*
X382Y-160D01*
X384Y-168D01*
X386Y-175D01*
X387Y-180D01*
X389Y-190D01*
X389Y-198D01*
X390Y-202D01*
X390Y-210D01*
X390Y-219D01*
X389Y-225D01*
X388Y-233D01*
X387Y-242D01*
X386Y-246D01*
X385Y-252D01*
X382Y-261D01*
X379Y-270D01*
X375Y-278D01*
X371Y-286D01*
X369Y-289D01*
X368Y-291D01*
X366Y-294D01*
X364Y-297D01*
X362Y-299D01*
X360Y-302D01*
X357Y-305D01*
X356Y-307D01*
X353Y-310D01*
X350Y-313D01*
X345Y-318D01*
X341Y-323D01*
X297Y-282D01*
X299Y-280D01*
X302Y-277D01*
X304Y-275D01*
X306Y-273D01*
X308Y-270D01*
X312Y-267D01*
X314Y-263D01*
X317Y-259D01*
X320Y-255D01*
X322Y-251D01*
X324Y-248D01*
X325Y-245D01*
X327Y-241D01*
X329Y-236D01*
X330Y-232D01*
X330Y-230D01*
X331Y-225D01*
X332Y-219D01*
X333Y-213D01*
X333Y-209D01*
X333Y-205D01*
X332Y-200D01*
X332Y-196D01*
X331Y-192D01*
X330Y-188D01*
X329Y-184D01*
X327Y-179D01*
X325Y-174D01*
X322Y-170D01*
X320Y-166D01*
X316Y-161D01*
X314Y-158D01*
X311Y-154D01*
X307Y-150D01*
X302Y-147D01*
X298Y-143D01*
X296Y-142D01*
X291Y-139D01*
X285Y-136D01*
X279Y-133D01*
X276Y-132D01*
X273Y-131D01*
X269Y-130D01*
X265Y-129D01*
X261Y-128D01*
X257Y-128D01*
X253Y-127D01*
X250Y-127D01*
X246Y-126D01*
X241Y-126D01*
X236Y-127D01*
X231Y-127D01*
X226Y-127D01*
X221Y-128D01*
X216Y-129D01*
X211Y-131D01*
X207Y-132D01*
X202Y-134D01*
X197Y-136D01*
X192Y-139D01*
X188Y-142D01*
X185Y-143D01*
X183Y-145D01*
X181Y-147D01*
X178Y-149D01*
X176Y-151D01*
X173Y-153D01*
X171Y-156D01*
X167Y-160D01*
X165Y-164D01*
X163Y-167D01*
X160Y-172D01*
X158Y-176D01*
X156Y-182D01*
X154Y-186D01*
X153Y-189D01*
X152Y-194D01*
X151Y-198D01*
X151Y-202D01*
X150Y-207D01*
X150Y-210D01*
X150Y-216D01*
X151Y-221D01*
X151Y-225D01*
X152Y-229D01*
X153Y-232D01*
X154Y-237D01*
X156Y-243D01*
X157Y-246D01*
X159Y-251D01*
X162Y-256D01*
X165Y-260D01*
X168Y-265D01*
X170Y-268D01*
X174Y-273D01*
X176Y-276D01*
X179Y-279D01*
X183Y-283D01*
X185Y-285D01*
X147Y-324D01*
X144Y-322D01*
X141Y-319D01*
X137Y-315D01*
X132Y-310D01*
X129Y-306D01*
X125Y-302D01*
X121Y-296D01*
X117Y-292D01*
X115Y-288D01*
X112Y-283D01*
X108Y-277D01*
X106Y-273D01*
X104Y-268D01*
X102Y-262D01*
X100Y-257D01*
X99Y-252D01*
X98Y-249D01*
X96Y-242D01*
X95Y-237D01*
X95Y-231D01*
X94Y-226D01*
X94Y-219D01*
X93Y-215D01*
X93Y-211D01*
X93Y-204D01*
X93Y-201D01*
X94Y-193D01*
X94Y-189D01*
X95Y-185D01*
X96Y-180D01*
X97Y-174D01*
X99Y-168D01*
X101Y-160D01*
X104Y-151D01*
X109Y-142D01*
X112Y-135D01*
X116Y-129D01*
X120Y-123D01*
X124Y-117D01*
X129Y-111D01*
X134Y-105D01*
X139Y-100D01*
X145Y-95D01*
X151Y-91D01*
X157Y-87D01*
X162Y-83D01*
X168Y-79D01*
X175Y-76D01*
X182Y-73D01*
X190Y-70D01*
X198Y-67D01*
X203Y-66D01*
X213Y-64D01*
X221Y-62D01*
X228Y-62D01*
X235Y-61D01*
X241Y-61D01*
X249Y-62D01*
D02*
G37*
G36*
X986Y-277D02*
X749D01*
Y-232D01*
X986D01*
Y-277D01*
D02*
G37*
G36*
X874Y-365D02*
X877Y-365D01*
X884Y-366D01*
X889Y-366D01*
X895Y-367D01*
X900Y-369D01*
X910Y-371D01*
X915Y-373D01*
X920Y-375D01*
X925Y-377D01*
X932Y-381D01*
X936Y-383D01*
X942Y-387D01*
X954Y-397D01*
X961Y-405D01*
X964Y-409D01*
X967Y-412D01*
X971Y-418D01*
X974Y-423D01*
X976Y-428D01*
X979Y-432D01*
X980Y-437D01*
X982Y-442D01*
X984Y-447D01*
X985Y-451D01*
X987Y-456D01*
X988Y-461D01*
X989Y-466D01*
X990Y-474D01*
X991Y-482D01*
X991Y-493D01*
X991Y-500D01*
X990Y-507D01*
X989Y-516D01*
X988Y-525D01*
X985Y-537D01*
X982Y-546D01*
X977Y-556D01*
X976Y-559D01*
X972Y-566D01*
X969Y-570D01*
X965Y-577D01*
X927Y-552D01*
X928Y-551D01*
X931Y-547D01*
X933Y-543D01*
X935Y-539D01*
X937Y-535D01*
X939Y-531D01*
X942Y-523D01*
X944Y-517D01*
X946Y-507D01*
X947Y-497D01*
X947Y-494D01*
X947Y-488D01*
X946Y-482D01*
X945Y-476D01*
X944Y-471D01*
X943Y-466D01*
X941Y-460D01*
X938Y-454D01*
X934Y-447D01*
X932Y-443D01*
X927Y-437D01*
X920Y-430D01*
X912Y-424D01*
X906Y-421D01*
X902Y-419D01*
X898Y-417D01*
X891Y-415D01*
X886Y-414D01*
X880Y-413D01*
X876Y-413D01*
X871Y-412D01*
X865Y-412D01*
X860Y-412D01*
X854Y-413D01*
X848Y-414D01*
X841Y-416D01*
X833Y-419D01*
X828Y-421D01*
X820Y-426D01*
X812Y-432D01*
X805Y-441D01*
X800Y-447D01*
X799Y-449D01*
X796Y-455D01*
X794Y-459D01*
X793Y-464D01*
X791Y-471D01*
X790Y-475D01*
X789Y-481D01*
X789Y-487D01*
X788Y-495D01*
X789Y-501D01*
X790Y-507D01*
X792Y-518D01*
X793Y-522D01*
X794Y-524D01*
X796Y-530D01*
X798Y-535D01*
X800Y-538D01*
X803Y-544D01*
X805Y-548D01*
X808Y-552D01*
X770Y-577D01*
X768Y-574D01*
X765Y-569D01*
X760Y-560D01*
X756Y-552D01*
X752Y-543D01*
X749Y-533D01*
X749Y-530D01*
X747Y-525D01*
X746Y-519D01*
X745Y-513D01*
X745Y-504D01*
X744Y-497D01*
X744Y-491D01*
X744Y-485D01*
X745Y-479D01*
X745Y-472D01*
X747Y-464D01*
X748Y-459D01*
X750Y-451D01*
X751Y-447D01*
X753Y-441D01*
X755Y-435D01*
X759Y-428D01*
X762Y-421D01*
X768Y-413D01*
X773Y-406D01*
X777Y-401D01*
X785Y-393D01*
X792Y-388D01*
X800Y-383D01*
X804Y-380D01*
X808Y-378D01*
X811Y-377D01*
X816Y-374D01*
X824Y-372D01*
X832Y-369D01*
X840Y-367D01*
X847Y-366D01*
X852Y-366D01*
X859Y-365D01*
X864Y-365D01*
X869Y-365D01*
X874Y-365D01*
D02*
G37*
G36*
X1486Y-58D02*
X1502Y-59D01*
X1513Y-60D01*
X1530Y-62D01*
X1542Y-64D01*
X1555Y-67D01*
X1561Y-68D01*
X1575Y-72D01*
X1589Y-76D01*
X1597Y-78D01*
X1613Y-85D01*
X1622Y-89D01*
X1632Y-94D01*
X1644Y-100D01*
X1657Y-107D01*
X1674Y-119D01*
X1690Y-131D01*
X1707Y-145D01*
X1720Y-159D01*
X1732Y-171D01*
X1745Y-189D01*
X1755Y-203D01*
X1762Y-215D01*
X1769Y-227D01*
X1774Y-237D01*
X1782Y-256D01*
X1789Y-274D01*
X1794Y-290D01*
X1798Y-306D01*
X1802Y-322D01*
X1804Y-337D01*
X1806Y-351D01*
X1807Y-365D01*
X1808Y-378D01*
X1808Y-393D01*
X1808Y-410D01*
X1807Y-428D01*
X1805Y-442D01*
X1804Y-450D01*
X1801Y-465D01*
X1798Y-481D01*
X1794Y-496D01*
X1785Y-522D01*
X1781Y-531D01*
X1777Y-541D01*
X1773Y-551D01*
X1767Y-561D01*
X1761Y-572D01*
X1754Y-584D01*
X1744Y-598D01*
X1730Y-616D01*
X1716Y-631D01*
X1703Y-644D01*
X1690Y-655D01*
X1671Y-669D01*
X1652Y-682D01*
X1638Y-689D01*
X1627Y-695D01*
X1617Y-700D01*
X1607Y-703D01*
X1599Y-707D01*
X1591Y-710D01*
X1576Y-714D01*
X1568Y-716D01*
X1555Y-720D01*
X1548Y-721D01*
X1535Y-723D01*
X1523Y-725D01*
X1512Y-726D01*
X1506Y-727D01*
X1495Y-727D01*
X1485Y-728D01*
X1475Y-728D01*
X1463Y-728D01*
X1453Y-727D01*
X1442Y-727D01*
X1431Y-725D01*
X1419Y-724D01*
X1407Y-722D01*
X1400Y-721D01*
X1387Y-718D01*
X1380Y-716D01*
X1373Y-714D01*
X1366Y-712D01*
X1358Y-709D01*
X1350Y-707D01*
X1342Y-703D01*
X1333Y-700D01*
X1323Y-695D01*
X1312Y-690D01*
X1298Y-682D01*
X1289Y-677D01*
X1282Y-672D01*
X1269Y-663D01*
X1257Y-654D01*
X1245Y-643D01*
X1233Y-631D01*
X1224Y-621D01*
X1214Y-609D01*
X1204Y-597D01*
X1195Y-583D01*
X1188Y-571D01*
X1181Y-560D01*
X1176Y-549D01*
X1171Y-540D01*
X1167Y-530D01*
X1161Y-512D01*
X1158Y-503D01*
X1155Y-495D01*
X1153Y-487D01*
X1151Y-478D01*
X1149Y-471D01*
X1146Y-455D01*
X1145Y-448D01*
X1143Y-433D01*
X1143Y-426D01*
X1142Y-411D01*
X1141Y-398D01*
X1141Y-393D01*
X1141Y-378D01*
X1142Y-372D01*
X1143Y-358D01*
X1144Y-344D01*
X1145Y-337D01*
X1146Y-330D01*
X1148Y-323D01*
X1149Y-315D01*
X1151Y-308D01*
X1153Y-300D01*
X1155Y-292D01*
X1160Y-276D01*
X1163Y-267D01*
X1166Y-259D01*
X1170Y-250D01*
X1174Y-240D01*
X1179Y-230D01*
X1185Y-219D01*
X1191Y-208D01*
X1200Y-195D01*
X1212Y-179D01*
X1220Y-168D01*
X1234Y-153D01*
X1245Y-143D01*
X1255Y-134D01*
X1264Y-127D01*
X1275Y-119D01*
X1283Y-113D01*
X1298Y-104D01*
X1322Y-91D01*
X1332Y-87D01*
X1341Y-83D01*
X1357Y-77D01*
X1372Y-72D01*
X1386Y-69D01*
X1399Y-66D01*
X1417Y-62D01*
X1435Y-60D01*
X1446Y-59D01*
X1462Y-58D01*
X1475Y-58D01*
X1486Y-58D01*
D02*
G37*
G36*
X181Y-398D02*
X175Y-406D01*
X171Y-413D01*
X167Y-419D01*
X164Y-425D01*
X161Y-430D01*
X158Y-437D01*
X155Y-444D01*
X154Y-449D01*
X152Y-455D01*
X150Y-461D01*
X149Y-467D01*
X148Y-471D01*
X147Y-475D01*
X147Y-480D01*
X146Y-483D01*
X146Y-487D01*
X146Y-492D01*
X146Y-498D01*
X147Y-501D01*
X147Y-506D01*
X148Y-508D01*
X148Y-510D01*
X149Y-514D01*
X151Y-517D01*
X152Y-520D01*
X154Y-523D01*
X155Y-525D01*
X157Y-527D01*
X160Y-530D01*
X162Y-531D01*
X164Y-533D01*
X167Y-534D01*
X168Y-534D01*
X170Y-535D01*
X172Y-535D01*
X175Y-535D01*
X178Y-535D01*
X181Y-535D01*
X183Y-535D01*
X186Y-533D01*
X189Y-532D01*
X192Y-530D01*
X194Y-528D01*
X196Y-525D01*
X198Y-523D01*
X201Y-518D01*
X204Y-512D01*
X207Y-504D01*
X210Y-498D01*
X211Y-494D01*
X213Y-488D01*
X214Y-482D01*
X216Y-475D01*
X218Y-469D01*
X221Y-461D01*
X224Y-449D01*
X227Y-442D01*
X231Y-434D01*
X234Y-428D01*
X238Y-420D01*
X240Y-417D01*
X243Y-413D01*
X246Y-408D01*
X248Y-406D01*
X252Y-402D01*
X255Y-399D01*
X259Y-396D01*
X264Y-393D01*
X269Y-390D01*
X274Y-388D01*
X278Y-386D01*
X284Y-385D01*
X287Y-384D01*
X293Y-383D01*
X296Y-383D01*
X299Y-383D01*
X301Y-383D01*
X307Y-383D01*
X313Y-384D01*
X318Y-384D01*
X323Y-385D01*
X332Y-388D01*
X335Y-389D01*
X341Y-392D01*
X347Y-396D01*
X352Y-400D01*
X357Y-403D01*
X361Y-407D01*
X365Y-411D01*
X369Y-416D01*
X371Y-420D01*
X374Y-425D01*
X377Y-431D01*
X380Y-436D01*
X382Y-441D01*
X383Y-445D01*
X384Y-451D01*
X386Y-455D01*
X386Y-460D01*
X387Y-465D01*
X388Y-470D01*
X388Y-475D01*
X389Y-480D01*
X389Y-487D01*
X388Y-492D01*
X388Y-496D01*
X388Y-502D01*
X387Y-507D01*
X386Y-512D01*
X385Y-518D01*
X384Y-523D01*
X383Y-529D01*
X382Y-533D01*
X380Y-538D01*
X378Y-544D01*
X376Y-550D01*
X374Y-556D01*
X370Y-563D01*
X367Y-570D01*
X365Y-574D01*
X361Y-582D01*
X356Y-589D01*
X310Y-563D01*
X315Y-554D01*
X319Y-547D01*
X321Y-543D01*
X323Y-537D01*
X326Y-532D01*
X328Y-527D01*
X329Y-523D01*
X331Y-519D01*
X332Y-514D01*
X334Y-507D01*
X335Y-502D01*
X336Y-496D01*
X336Y-492D01*
X337Y-487D01*
X337Y-484D01*
X337Y-481D01*
X337Y-478D01*
X337Y-475D01*
X336Y-473D01*
X336Y-469D01*
X335Y-466D01*
X334Y-463D01*
X333Y-461D01*
X332Y-458D01*
X330Y-455D01*
X328Y-452D01*
X326Y-449D01*
X324Y-448D01*
X322Y-446D01*
X320Y-445D01*
X316Y-444D01*
X313Y-443D01*
X311Y-443D01*
X308Y-443D01*
X304Y-443D01*
X301Y-444D01*
X297Y-446D01*
X295Y-447D01*
X292Y-450D01*
X291Y-451D01*
X290Y-453D01*
X287Y-457D01*
X284Y-462D01*
X282Y-466D01*
X280Y-471D01*
X278Y-476D01*
X276Y-480D01*
X273Y-489D01*
X265Y-515D01*
X262Y-524D01*
X259Y-531D01*
X257Y-537D01*
X254Y-544D01*
X252Y-548D01*
X249Y-553D01*
X246Y-559D01*
X243Y-563D01*
X240Y-567D01*
X237Y-570D01*
X234Y-574D01*
X231Y-577D01*
X227Y-580D01*
X222Y-584D01*
X216Y-588D01*
X212Y-590D01*
X206Y-592D01*
X203Y-593D01*
X199Y-594D01*
X195Y-594D01*
X190Y-595D01*
X185Y-595D01*
X179Y-595D01*
X174Y-595D01*
X170Y-594D01*
X166Y-594D01*
X161Y-593D01*
X156Y-591D01*
X150Y-589D01*
X145Y-587D01*
X141Y-585D01*
X137Y-583D01*
X134Y-581D01*
X130Y-578D01*
X125Y-574D01*
X122Y-571D01*
X119Y-567D01*
X115Y-563D01*
X112Y-559D01*
X109Y-554D01*
X106Y-548D01*
X105Y-544D01*
X102Y-538D01*
X100Y-531D01*
X98Y-523D01*
X97Y-517D01*
X95Y-509D01*
X95Y-503D01*
X95Y-498D01*
X94Y-491D01*
X94Y-484D01*
X95Y-478D01*
X95Y-473D01*
X96Y-468D01*
X96Y-463D01*
X98Y-456D01*
X98Y-452D01*
X99Y-448D01*
X100Y-443D01*
X102Y-437D01*
X104Y-430D01*
X106Y-424D01*
X110Y-414D01*
X113Y-408D01*
X116Y-402D01*
X120Y-395D01*
X123Y-389D01*
X126Y-385D01*
X127Y-382D01*
X131Y-376D01*
X134Y-373D01*
X137Y-369D01*
X181Y-398D01*
D02*
G37*
G36*
X489Y14D02*
X427D01*
Y84D01*
X489Y84D01*
Y14D01*
D02*
G37*
G36*
X384Y81D02*
Y16D01*
X100Y16D01*
Y81D01*
X384Y81D01*
D02*
G37*
G36*
X986Y77D02*
Y45D01*
X852Y-9D01*
X986Y-63D01*
Y-95D01*
X749Y-137D01*
Y-93D01*
X902Y-71D01*
X785Y-25D01*
Y7D01*
X902Y52D01*
X749Y76D01*
Y119D01*
X986Y77D01*
D02*
G37*
%LPC*%
G36*
X1687Y-1554D02*
X1263D01*
X1263Y-1647D01*
X1263Y-1657D01*
X1264Y-1669D01*
X1266Y-1685D01*
X1268Y-1700D01*
X1271Y-1711D01*
X1275Y-1722D01*
X1277Y-1728D01*
X1279Y-1734D01*
X1282Y-1740D01*
X1288Y-1751D01*
X1292Y-1759D01*
X1300Y-1770D01*
X1306Y-1779D01*
X1314Y-1787D01*
X1328Y-1801D01*
X1338Y-1809D01*
X1349Y-1816D01*
X1361Y-1823D01*
X1370Y-1827D01*
X1382Y-1832D01*
X1396Y-1837D01*
X1407Y-1840D01*
X1418Y-1842D01*
X1429Y-1844D01*
X1444Y-1846D01*
X1459Y-1847D01*
X1473Y-1848D01*
X1483Y-1848D01*
X1497Y-1847D01*
X1514Y-1845D01*
X1525Y-1844D01*
X1536Y-1841D01*
X1544Y-1839D01*
X1553Y-1837D01*
X1567Y-1832D01*
X1579Y-1827D01*
X1587Y-1823D01*
X1596Y-1819D01*
X1605Y-1813D01*
X1613Y-1807D01*
X1623Y-1799D01*
X1633Y-1790D01*
X1643Y-1779D01*
X1652Y-1766D01*
X1659Y-1756D01*
X1665Y-1745D01*
X1671Y-1732D01*
X1674Y-1723D01*
X1678Y-1711D01*
X1681Y-1700D01*
X1683Y-1690D01*
X1685Y-1678D01*
X1686Y-1663D01*
X1687Y-1655D01*
X1687Y-1650D01*
X1687Y-1554D01*
D02*
G37*
G36*
X1687Y-971D02*
X1513D01*
Y-1072D01*
X1513Y-1081D01*
X1514Y-1089D01*
X1515Y-1098D01*
X1516Y-1104D01*
X1518Y-1113D01*
X1520Y-1121D01*
X1525Y-1131D01*
X1529Y-1138D01*
X1532Y-1143D01*
X1538Y-1149D01*
X1548Y-1158D01*
X1556Y-1163D01*
X1567Y-1167D01*
X1581Y-1170D01*
X1595Y-1171D01*
X1607Y-1171D01*
X1617Y-1170D01*
X1629Y-1167D01*
X1640Y-1163D01*
X1648Y-1159D01*
X1652Y-1156D01*
X1662Y-1147D01*
X1668Y-1140D01*
X1673Y-1132D01*
X1676Y-1126D01*
X1679Y-1119D01*
X1681Y-1113D01*
X1683Y-1104D01*
X1685Y-1098D01*
X1686Y-1092D01*
X1686Y-1080D01*
X1687Y-1072D01*
Y-971D01*
D02*
G37*
G36*
X262Y-719D02*
Y-865D01*
X264Y-864D01*
X267Y-864D01*
X269Y-864D01*
X273Y-863D01*
X278Y-862D01*
X284Y-860D01*
X289Y-858D01*
X293Y-857D01*
X298Y-854D01*
X302Y-852D01*
X306Y-850D01*
X309Y-848D01*
X311Y-846D01*
X315Y-843D01*
X318Y-840D01*
X321Y-837D01*
X324Y-833D01*
X326Y-831D01*
X327Y-828D01*
X329Y-824D01*
X331Y-821D01*
X332Y-817D01*
X334Y-812D01*
X335Y-808D01*
X335Y-805D01*
X336Y-801D01*
X336Y-796D01*
X336Y-788D01*
X336Y-783D01*
X335Y-779D01*
X334Y-773D01*
X333Y-770D01*
X331Y-766D01*
X330Y-762D01*
X328Y-758D01*
X325Y-754D01*
X322Y-750D01*
X319Y-746D01*
X316Y-743D01*
X313Y-740D01*
X309Y-737D01*
X305Y-735D01*
X302Y-732D01*
X299Y-730D01*
X294Y-728D01*
X288Y-725D01*
X283Y-724D01*
X279Y-723D01*
X272Y-720D01*
X267Y-719D01*
X262Y-719D01*
D02*
G37*
G36*
X947Y-1338D02*
X790D01*
Y-1372D01*
X790Y-1383D01*
X792Y-1391D01*
X794Y-1399D01*
X798Y-1408D01*
X800Y-1412D01*
X803Y-1418D01*
X806Y-1421D01*
X814Y-1429D01*
X821Y-1434D01*
X825Y-1437D01*
X832Y-1440D01*
X838Y-1442D01*
X846Y-1445D01*
X851Y-1445D01*
X859Y-1446D01*
X866Y-1447D01*
X873Y-1447D01*
X880Y-1446D01*
X887Y-1445D01*
X893Y-1444D01*
X898Y-1442D01*
X902Y-1441D01*
X905Y-1440D01*
X909Y-1438D01*
X913Y-1436D01*
X920Y-1432D01*
X924Y-1428D01*
X930Y-1422D01*
X934Y-1417D01*
X939Y-1409D01*
X941Y-1403D01*
X944Y-1396D01*
X945Y-1388D01*
X946Y-1381D01*
X947Y-1373D01*
Y-1338D01*
D02*
G37*
G36*
X14454Y250D02*
X14412D01*
X14403Y249D01*
X14392D01*
X14380Y248D01*
X14367Y248D01*
X14341Y246D01*
X14327Y245D01*
X14315Y244D01*
X14303Y242D01*
X14293Y241D01*
X14284Y238D01*
X14277Y236D01*
X14275Y235D01*
X14272Y233D01*
X14267Y229D01*
X14261Y225D01*
X14255Y219D01*
X14250Y212D01*
X14246Y204D01*
X14246Y200D01*
X14245Y196D01*
Y195D01*
X14246Y192D01*
X14246Y187D01*
X14249Y182D01*
X14253Y175D01*
X14259Y169D01*
X14267Y163D01*
X14272Y160D01*
X14278Y157D01*
X14278D01*
X14279Y156D01*
X14281Y156D01*
X14285Y155D01*
X14289Y154D01*
X14295Y152D01*
X14301Y151D01*
X14309Y149D01*
X14319Y149D01*
X14329Y147D01*
X14342Y146D01*
X14356Y144D01*
X14372Y144D01*
X14390Y143D01*
X14410Y142D01*
X14452D01*
X14461Y143D01*
X14472D01*
X14484Y144D01*
X14497Y144D01*
X14523Y146D01*
X14536Y147D01*
X14549Y149D01*
X14560Y150D01*
X14570Y152D01*
X14579Y154D01*
X14586Y157D01*
X14587D01*
X14588Y158D01*
X14591Y160D01*
X14597Y163D01*
X14603Y167D01*
X14609Y173D01*
X14615Y180D01*
X14618Y187D01*
X14620Y192D01*
Y196D01*
Y197D01*
X14619Y200D01*
X14618Y204D01*
X14615Y210D01*
X14612Y217D01*
X14605Y223D01*
X14598Y230D01*
X14592Y233D01*
X14586Y236D01*
X14586D01*
X14585Y236D01*
X14583Y237D01*
X14579Y238D01*
X14575Y239D01*
X14569Y240D01*
X14563Y241D01*
X14555Y243D01*
X14545Y244D01*
X14535Y246D01*
X14522Y246D01*
X14508Y248D01*
X14491Y248D01*
X14474Y249D01*
X14454Y250D01*
D02*
G37*
G36*
Y589D02*
X14412D01*
X14403Y588D01*
X14392D01*
X14380Y587D01*
X14367Y587D01*
X14341Y585D01*
X14327Y584D01*
X14315Y583D01*
X14303Y581D01*
X14293Y580D01*
X14284Y577D01*
X14277Y575D01*
X14275Y574D01*
X14272Y572D01*
X14267Y568D01*
X14261Y564D01*
X14255Y558D01*
X14250Y551D01*
X14246Y544D01*
X14246Y539D01*
X14245Y535D01*
Y534D01*
X14246Y531D01*
X14246Y527D01*
X14249Y521D01*
X14253Y515D01*
X14259Y508D01*
X14267Y502D01*
X14272Y499D01*
X14278Y496D01*
X14278D01*
X14279Y495D01*
X14281Y495D01*
X14285Y494D01*
X14289Y493D01*
X14295Y491D01*
X14301Y490D01*
X14309Y488D01*
X14319Y488D01*
X14329Y486D01*
X14342Y485D01*
X14356Y483D01*
X14372Y483D01*
X14390Y482D01*
X14410Y481D01*
X14452D01*
X14461Y482D01*
X14472D01*
X14484Y483D01*
X14497Y483D01*
X14523Y485D01*
X14536Y486D01*
X14549Y488D01*
X14560Y489D01*
X14570Y491D01*
X14579Y493D01*
X14586Y496D01*
X14587D01*
X14588Y497D01*
X14591Y499D01*
X14597Y502D01*
X14603Y506D01*
X14609Y512D01*
X14615Y519D01*
X14618Y527D01*
X14620Y531D01*
Y535D01*
Y537D01*
X14619Y539D01*
X14618Y544D01*
X14615Y549D01*
X14612Y556D01*
X14605Y562D01*
X14598Y569D01*
X14592Y572D01*
X14586Y575D01*
X14586D01*
X14585Y575D01*
X14583Y576D01*
X14579Y577D01*
X14575Y578D01*
X14569Y579D01*
X14563Y580D01*
X14555Y582D01*
X14545Y583D01*
X14535Y585D01*
X14522Y585D01*
X14508Y587D01*
X14491Y587D01*
X14474Y588D01*
X14454Y589D01*
D02*
G37*
G36*
X14367Y951D02*
Y851D01*
X14548D01*
X14367Y951D01*
D02*
G37*
G36*
X14454Y-768D02*
X14412D01*
X14403Y-768D01*
X14392D01*
X14380Y-769D01*
X14367Y-770D01*
X14341Y-771D01*
X14327Y-773D01*
X14315Y-773D01*
X14303Y-775D01*
X14293Y-777D01*
X14284Y-780D01*
X14277Y-782D01*
X14275Y-782D01*
X14272Y-785D01*
X14267Y-788D01*
X14261Y-792D01*
X14255Y-798D01*
X14250Y-805D01*
X14246Y-813D01*
X14246Y-817D01*
X14245Y-821D01*
Y-823D01*
X14246Y-826D01*
X14246Y-830D01*
X14249Y-836D01*
X14253Y-842D01*
X14259Y-848D01*
X14267Y-855D01*
X14272Y-858D01*
X14278Y-860D01*
X14278D01*
X14279Y-861D01*
X14281Y-862D01*
X14285Y-862D01*
X14289Y-864D01*
X14295Y-865D01*
X14301Y-867D01*
X14309Y-868D01*
X14319Y-869D01*
X14329Y-870D01*
X14342Y-872D01*
X14356Y-873D01*
X14372Y-874D01*
X14390Y-875D01*
X14410Y-875D01*
X14452D01*
X14461Y-875D01*
X14472D01*
X14484Y-874D01*
X14497Y-873D01*
X14523Y-872D01*
X14536Y-870D01*
X14549Y-869D01*
X14560Y-867D01*
X14570Y-865D01*
X14579Y-863D01*
X14586Y-860D01*
X14587D01*
X14588Y-860D01*
X14591Y-858D01*
X14597Y-855D01*
X14603Y-850D01*
X14609Y-845D01*
X14615Y-838D01*
X14618Y-830D01*
X14620Y-826D01*
Y-821D01*
Y-820D01*
X14619Y-817D01*
X14618Y-813D01*
X14615Y-807D01*
X14612Y-801D01*
X14605Y-795D01*
X14598Y-787D01*
X14592Y-785D01*
X14586Y-782D01*
X14586D01*
X14585Y-781D01*
X14583Y-780D01*
X14579Y-780D01*
X14575Y-778D01*
X14569Y-778D01*
X14563Y-776D01*
X14555Y-775D01*
X14545Y-773D01*
X14535Y-772D01*
X14522Y-771D01*
X14508Y-770D01*
X14491Y-769D01*
X14474Y-768D01*
X14454Y-768D01*
D02*
G37*
G36*
X867Y-2438D02*
X858Y-2438D01*
X849Y-2440D01*
X841Y-2442D01*
X837Y-2443D01*
X832Y-2445D01*
X825Y-2449D01*
X821Y-2452D01*
X811Y-2460D01*
X807Y-2464D01*
X801Y-2472D01*
X797Y-2478D01*
X795Y-2483D01*
X793Y-2489D01*
X792Y-2494D01*
X790Y-2500D01*
X790Y-2507D01*
X789Y-2512D01*
X790Y-2520D01*
X790Y-2528D01*
X792Y-2535D01*
X793Y-2540D01*
X795Y-2545D01*
X799Y-2554D01*
X804Y-2562D01*
X808Y-2566D01*
X815Y-2572D01*
X820Y-2576D01*
X824Y-2579D01*
X829Y-2582D01*
X834Y-2584D01*
X838Y-2586D01*
X849Y-2589D01*
X857Y-2590D01*
X865Y-2591D01*
X871Y-2591D01*
X877Y-2590D01*
X884Y-2589D01*
X890Y-2588D01*
X897Y-2586D01*
X902Y-2584D01*
X906Y-2582D01*
X915Y-2577D01*
X920Y-2574D01*
X929Y-2566D01*
X934Y-2560D01*
X937Y-2555D01*
X940Y-2549D01*
X942Y-2543D01*
X944Y-2538D01*
X946Y-2532D01*
X947Y-2523D01*
X948Y-2518D01*
X948Y-2513D01*
X947Y-2508D01*
X946Y-2499D01*
X944Y-2490D01*
X942Y-2484D01*
X939Y-2478D01*
X935Y-2471D01*
X930Y-2464D01*
X923Y-2457D01*
X917Y-2452D01*
X909Y-2447D01*
X901Y-2444D01*
X892Y-2441D01*
X884Y-2439D01*
X873Y-2438D01*
X867Y-2438D01*
D02*
G37*
G36*
X866Y-697D02*
X857Y-698D01*
X848Y-699D01*
X840Y-701D01*
X836Y-703D01*
X831Y-705D01*
X824Y-709D01*
X820Y-711D01*
X810Y-719D01*
X807Y-723D01*
X800Y-732D01*
X797Y-738D01*
X794Y-742D01*
X792Y-748D01*
X791Y-753D01*
X790Y-759D01*
X789Y-766D01*
X788Y-772D01*
X789Y-780D01*
X790Y-788D01*
X791Y-795D01*
X792Y-799D01*
X794Y-804D01*
X798Y-813D01*
X804Y-821D01*
X807Y-825D01*
X814Y-832D01*
X819Y-836D01*
X823Y-839D01*
X828Y-841D01*
X833Y-844D01*
X837Y-845D01*
X848Y-848D01*
X856Y-850D01*
X864Y-850D01*
X870Y-850D01*
X876Y-850D01*
X883Y-849D01*
X889Y-848D01*
X896Y-846D01*
X901Y-844D01*
X906Y-842D01*
X915Y-837D01*
X919Y-833D01*
X928Y-825D01*
X933Y-820D01*
X936Y-814D01*
X939Y-809D01*
X942Y-803D01*
X943Y-798D01*
X945Y-792D01*
X946Y-782D01*
X947Y-777D01*
X947Y-772D01*
X946Y-767D01*
X945Y-759D01*
X943Y-749D01*
X941Y-744D01*
X938Y-737D01*
X935Y-731D01*
X929Y-724D01*
X922Y-716D01*
X916Y-712D01*
X908Y-707D01*
X900Y-703D01*
X891Y-700D01*
X883Y-699D01*
X872Y-697D01*
X866Y-697D01*
D02*
G37*
G36*
X1475Y-186D02*
X1465Y-186D01*
X1459Y-187D01*
X1452Y-187D01*
X1442Y-188D01*
X1436Y-189D01*
X1429Y-190D01*
X1418Y-192D01*
X1408Y-195D01*
X1392Y-200D01*
X1380Y-205D01*
X1371Y-209D01*
X1367Y-211D01*
X1357Y-217D01*
X1345Y-224D01*
X1339Y-229D01*
X1331Y-235D01*
X1319Y-246D01*
X1309Y-256D01*
X1300Y-267D01*
X1292Y-279D01*
X1283Y-296D01*
X1277Y-308D01*
X1273Y-319D01*
X1270Y-328D01*
X1266Y-341D01*
X1264Y-354D01*
X1262Y-365D01*
X1261Y-376D01*
X1261Y-393D01*
X1261Y-399D01*
X1261Y-409D01*
X1264Y-430D01*
X1265Y-437D01*
X1268Y-449D01*
X1271Y-462D01*
X1276Y-475D01*
X1278Y-481D01*
X1284Y-492D01*
X1288Y-499D01*
X1293Y-508D01*
X1302Y-520D01*
X1311Y-532D01*
X1321Y-542D01*
X1330Y-550D01*
X1338Y-556D01*
X1344Y-561D01*
X1355Y-568D01*
X1360Y-571D01*
X1369Y-576D01*
X1378Y-580D01*
X1389Y-584D01*
X1400Y-588D01*
X1408Y-590D01*
X1418Y-593D01*
X1425Y-594D01*
X1432Y-596D01*
X1441Y-597D01*
X1448Y-598D01*
X1458Y-599D01*
X1464Y-599D01*
X1473Y-599D01*
X1478Y-599D01*
X1487Y-599D01*
X1493Y-598D01*
X1500Y-598D01*
X1507Y-597D01*
X1516Y-596D01*
X1523Y-595D01*
X1536Y-592D01*
X1545Y-589D01*
X1554Y-587D01*
X1562Y-584D01*
X1569Y-581D01*
X1582Y-575D01*
X1591Y-570D01*
X1602Y-563D01*
X1607Y-559D01*
X1614Y-554D01*
X1622Y-548D01*
X1633Y-538D01*
X1641Y-529D01*
X1649Y-518D01*
X1661Y-501D01*
X1665Y-494D01*
X1670Y-482D01*
X1675Y-471D01*
X1678Y-462D01*
X1681Y-453D01*
X1683Y-445D01*
X1684Y-437D01*
X1686Y-426D01*
X1687Y-416D01*
X1688Y-405D01*
X1688Y-397D01*
X1688Y-389D01*
X1688Y-378D01*
X1687Y-367D01*
X1686Y-360D01*
X1685Y-352D01*
X1683Y-344D01*
X1681Y-336D01*
X1679Y-327D01*
X1676Y-317D01*
X1671Y-306D01*
X1669Y-300D01*
X1666Y-294D01*
X1661Y-286D01*
X1656Y-277D01*
X1648Y-266D01*
X1642Y-258D01*
X1634Y-248D01*
X1621Y-237D01*
X1612Y-230D01*
X1599Y-221D01*
X1588Y-214D01*
X1579Y-209D01*
X1570Y-205D01*
X1562Y-202D01*
X1550Y-197D01*
X1539Y-194D01*
X1528Y-192D01*
X1518Y-190D01*
X1510Y-189D01*
X1501Y-187D01*
X1491Y-187D01*
X1475Y-186D01*
D02*
G37*
%LPD*%
D10*
X2003Y1465D02*
X2259D01*
X2003Y795D02*
X2259D01*
X2003D02*
Y1465D01*
X3401Y441D02*
Y1819D01*
X2259Y441D02*
Y1819D01*
Y441D02*
X3401D01*
X2259Y1819D02*
X3401D01*
X5333Y1417D02*
X8167D01*
X5333Y-1417D02*
X8167D01*
X5333D02*
Y1417D01*
X8167Y-1417D02*
Y1417D01*
X12591Y-276D02*
Y276D01*
X11409Y-276D02*
Y276D01*
X9312Y1226D02*
Y1305D01*
X9548Y1226D02*
Y1305D01*
X8848Y-1289D02*
Y-1211D01*
X8612Y-1289D02*
Y-1211D01*
X10336Y-834D02*
Y-646D01*
X9864Y-834D02*
Y-646D01*
X9308Y-1289D02*
Y-1211D01*
X9072Y-1289D02*
Y-1211D01*
X9762Y876D02*
Y955D01*
X9998Y876D02*
Y955D01*
X8862Y1276D02*
Y1355D01*
X9098Y1276D02*
Y1355D01*
X7642Y-1837D02*
X7721D01*
X7642Y-2073D02*
X7721D01*
D15*
X9233Y803D02*
Y1167D01*
Y1364D02*
Y1728D01*
X9627Y803D02*
Y1167D01*
Y1364D02*
Y1728D01*
X9233Y803D02*
X9627D01*
X9233Y1728D02*
X9627D01*
X8538Y1608D02*
Y1864D01*
X8262D02*
X8538D01*
Y1156D02*
Y1412D01*
X8262Y1156D02*
X8538D01*
X8262Y1608D02*
Y1864D01*
Y1156D02*
Y1412D01*
X8924Y-2052D02*
Y-1776D01*
X8216Y-2052D02*
Y-1776D01*
X8472D01*
X8668D02*
X8924D01*
X8216Y-2052D02*
X8472D01*
X8668D02*
X8924D01*
X8927Y-1152D02*
Y-787D01*
Y-1713D02*
Y-1348D01*
X8533Y-1152D02*
Y-787D01*
Y-1713D02*
Y-1348D01*
Y-787D02*
X8927D01*
X8533Y-1713D02*
X8927D01*
X4286Y-1738D02*
Y-1691D01*
X4649Y-1368D02*
X4775D01*
X5137Y-1738D02*
Y-1691D01*
X4649Y-2061D02*
X4775D01*
X8993Y-1713D02*
X9387D01*
X8993Y-787D02*
X9387D01*
Y-1152D02*
Y-787D01*
Y-1713D02*
Y-1348D01*
X8993Y-1152D02*
Y-787D01*
Y-1713D02*
Y-1348D01*
X11648Y882D02*
X11904D01*
X11196D02*
X11452D01*
X11648Y1158D02*
X11904D01*
X11196D02*
X11452D01*
X11196Y882D02*
Y1158D01*
X11904Y882D02*
Y1158D01*
X9683Y1378D02*
X10077D01*
X9683Y453D02*
X10077D01*
X9683D02*
Y817D01*
Y1014D02*
Y1378D01*
X10077Y453D02*
Y817D01*
Y1014D02*
Y1378D01*
X8783Y1778D02*
X9177D01*
X8783Y853D02*
X9177D01*
X8783D02*
Y1217D01*
Y1414D02*
Y1778D01*
X9177Y853D02*
Y1217D01*
Y1414D02*
Y1778D01*
X8144Y-2152D02*
Y-1758D01*
X7219Y-2152D02*
Y-1758D01*
X7583D01*
X7780D02*
X8144D01*
X7219Y-2152D02*
X7583D01*
X7780D02*
X8144D01*
X10840Y-1060D02*
Y-1330D01*
X10994D01*
X11024Y-1060D02*
Y-1330D01*
Y-1060D02*
X11114D01*
X11152Y-1073D01*
X11178Y-1099D01*
X11191Y-1124D01*
X11204Y-1163D01*
Y-1227D01*
X11191Y-1266D01*
X11178Y-1291D01*
X11152Y-1317D01*
X11114Y-1330D01*
X11024D01*
X11264Y-1111D02*
X11290Y-1099D01*
X11328Y-1060D01*
Y-1330D01*
X10815Y2140D02*
Y1870D01*
X10969D01*
X10999Y2140D02*
Y1870D01*
Y2140D02*
X11089D01*
X11127Y2127D01*
X11153Y2101D01*
X11166Y2076D01*
X11179Y2037D01*
Y1973D01*
X11166Y1934D01*
X11153Y1909D01*
X11127Y1883D01*
X11089Y1870D01*
X10999D01*
X11252Y2076D02*
Y2089D01*
X11265Y2114D01*
X11278Y2127D01*
X11303Y2140D01*
X11355D01*
X11381Y2127D01*
X11393Y2114D01*
X11406Y2089D01*
Y2063D01*
X11393Y2037D01*
X11368Y1999D01*
X11239Y1870D01*
X11419D01*
X3880Y-19D02*
X3854Y7D01*
X3816Y20D01*
X3764D01*
X3726Y7D01*
X3700Y-19D01*
Y-44D01*
X3713Y-70D01*
X3726Y-83D01*
X3751Y-96D01*
X3829Y-121D01*
X3854Y-134D01*
X3867Y-147D01*
X3880Y-173D01*
Y-211D01*
X3854Y-237D01*
X3816Y-250D01*
X3764D01*
X3726Y-237D01*
X3700Y-211D01*
X3940Y20D02*
X4005Y-250D01*
X4069Y20D02*
X4005Y-250D01*
X4069Y20D02*
X4133Y-250D01*
X4197Y20D02*
X4133Y-250D01*
X4251Y-31D02*
X4277Y-19D01*
X4316Y20D01*
Y-250D01*
X2320Y20D02*
Y-250D01*
Y20D02*
X2436D01*
X2474Y7D01*
X2487Y-6D01*
X2500Y-31D01*
Y-57D01*
X2487Y-83D01*
X2474Y-96D01*
X2436Y-109D01*
X2320D01*
X2410D02*
X2500Y-250D01*
X2727Y20D02*
X2560D01*
Y-250D01*
X2727D01*
X2560Y-109D02*
X2663D01*
X2952Y-19D02*
X2927Y7D01*
X2888Y20D01*
X2837D01*
X2798Y7D01*
X2772Y-19D01*
Y-44D01*
X2785Y-70D01*
X2798Y-83D01*
X2824Y-96D01*
X2901Y-121D01*
X2927Y-134D01*
X2940Y-147D01*
X2952Y-173D01*
Y-211D01*
X2927Y-237D01*
X2888Y-250D01*
X2837D01*
X2798Y-237D01*
X2772Y-211D01*
X3180Y20D02*
X3013D01*
Y-250D01*
X3180D01*
X3013Y-109D02*
X3116D01*
X3315Y20D02*
Y-250D01*
X3225Y20D02*
X3405D01*
X14010Y893D02*
X13997Y931D01*
X13959Y957D01*
X13894Y970D01*
X13856D01*
X13791Y957D01*
X13753Y931D01*
X13740Y893D01*
Y867D01*
X13753Y829D01*
X13791Y803D01*
X13856Y790D01*
X13894D01*
X13959Y803D01*
X13997Y829D01*
X14010Y867D01*
Y893D01*
X13946Y717D02*
X13959D01*
X13984Y704D01*
X13997Y691D01*
X14010Y665D01*
Y614D01*
X13997Y588D01*
X13984Y575D01*
X13959Y563D01*
X13933D01*
X13907Y575D01*
X13869Y601D01*
X13740Y730D01*
Y550D01*
X14010Y425D02*
X13997Y464D01*
X13971Y476D01*
X13946D01*
X13920Y464D01*
X13907Y438D01*
X13894Y386D01*
X13881Y348D01*
X13856Y322D01*
X13830Y309D01*
X13791D01*
X13766Y322D01*
X13753Y335D01*
X13740Y374D01*
Y425D01*
X13753Y464D01*
X13766Y476D01*
X13791Y489D01*
X13830D01*
X13856Y476D01*
X13881Y451D01*
X13894Y412D01*
X13907Y361D01*
X13920Y335D01*
X13946Y322D01*
X13971D01*
X13997Y335D01*
X14010Y374D01*
Y425D01*
Y120D02*
X13830Y249D01*
Y56D01*
X14010Y120D02*
X13740D01*
X14010Y8D02*
X13740D01*
X14010D02*
Y-107D01*
X13997Y-146D01*
X13984Y-159D01*
X13959Y-171D01*
X13933D01*
X13907Y-159D01*
X13894Y-146D01*
X13881Y-107D01*
Y8D01*
Y-81D02*
X13740Y-171D01*
X14010Y-232D02*
X13817D01*
X13779Y-245D01*
X13753Y-270D01*
X13740Y-309D01*
Y-335D01*
X13753Y-373D01*
X13779Y-399D01*
X13817Y-412D01*
X14010D01*
Y-486D02*
X13740D01*
X14010D02*
Y-602D01*
X13997Y-641D01*
X13984Y-654D01*
X13959Y-666D01*
X13933D01*
X13907Y-654D01*
X13894Y-641D01*
X13881Y-602D01*
Y-486D02*
Y-602D01*
X13869Y-641D01*
X13856Y-654D01*
X13830Y-666D01*
X13791D01*
X13766Y-654D01*
X13753Y-641D01*
X13740Y-602D01*
Y-486D01*
X14010Y-727D02*
X13740D01*
X14010D02*
Y-842D01*
X13997Y-881D01*
X13984Y-894D01*
X13959Y-907D01*
X13933D01*
X13907Y-894D01*
X13894Y-881D01*
X13881Y-842D01*
Y-727D01*
Y-817D02*
X13740Y-907D01*
D39*
X8369Y-1540D02*
G03*
X8369Y-1540I-49J0D01*
G01*
X11341Y-404D02*
G03*
X11341Y-404I-49J0D01*
G01*
D41*
X3550Y303D02*
Y1957D01*
X3983Y303D02*
X4377Y303D01*
X4810Y303D02*
Y1957D01*
X3983D02*
X4377D01*
X11523Y1236D02*
Y1393D01*
X11445Y1315D02*
X11602D01*
D42*
X10525Y-1500D02*
X10625Y-1400D01*
X10975D01*
X10525Y-1700D02*
X10625Y-1800D01*
X10975D01*
X10625D02*
Y-1400D01*
X10525Y-1700D02*
Y-1500D01*
X11575Y-1800D02*
Y-1400D01*
X11225D02*
X11575D01*
X11225Y-1800D02*
X11575D01*
X9988Y-1850D02*
Y-1983D01*
X10054Y-2050D01*
X10121Y-1983D01*
Y-1850D01*
X10187D02*
Y-2050D01*
X10287D01*
X10321Y-2017D01*
Y-1883D01*
X10287Y-1850D01*
X10187D01*
X10387D02*
Y-2050D01*
X10487D01*
X10521Y-2017D01*
Y-1883D01*
X10487Y-1850D01*
X10387D01*
X10087Y-2210D02*
X10021D01*
X9988Y-2243D01*
Y-2377D01*
X10021Y-2410D01*
X10087D01*
X10121Y-2377D01*
Y-2243D01*
X10087Y-2210D01*
X10187D02*
Y-2377D01*
X10221Y-2410D01*
X10287D01*
X10321Y-2377D01*
Y-2210D01*
X10387D02*
X10521D01*
X10454D01*
Y-2410D01*
X9121Y-2243D02*
X9087Y-2210D01*
X9021D01*
X8988Y-2243D01*
Y-2377D01*
X9021Y-2410D01*
X9087D01*
X9121Y-2377D01*
Y-2310D01*
X9054D01*
X9187Y-2410D02*
Y-2210D01*
X9321Y-2410D01*
Y-2210D01*
X9387D02*
Y-2410D01*
X9487D01*
X9521Y-2377D01*
Y-2243D01*
X9487Y-2210D01*
X9387D01*
X2687Y-2523D02*
X2720Y-2490D01*
Y-2423D01*
X2687Y-2390D01*
X2553D01*
X2520Y-2423D01*
Y-2490D01*
X2553Y-2523D01*
X2620D01*
Y-2457D01*
X2520Y-2590D02*
X2720D01*
X2520Y-2723D01*
X2720D01*
Y-2790D02*
X2520D01*
Y-2890D01*
X2553Y-2923D01*
X2687D01*
X2720Y-2890D01*
Y-2790D01*
X2687Y2787D02*
X2720Y2820D01*
Y2887D01*
X2687Y2920D01*
X2553D01*
X2520Y2887D01*
Y2820D01*
X2553Y2787D01*
X2620D01*
Y2853D01*
X2520Y2720D02*
X2720D01*
X2520Y2587D01*
X2720D01*
Y2520D02*
X2520D01*
Y2420D01*
X2553Y2387D01*
X2687D01*
X2720Y2420D01*
Y2520D01*
X10888Y-2210D02*
Y-2343D01*
X10954Y-2410D01*
X11021Y-2343D01*
Y-2210D01*
X11087D02*
Y-2410D01*
X11187D01*
X11221Y-2377D01*
Y-2343D01*
X11187Y-2310D01*
X11087D01*
X11187D01*
X11221Y-2277D01*
Y-2243D01*
X11187Y-2210D01*
X11087D01*
X11287D02*
Y-2377D01*
X11321Y-2410D01*
X11387D01*
X11421Y-2377D01*
Y-2210D01*
X11621Y-2243D02*
X11587Y-2210D01*
X11521D01*
X11487Y-2243D01*
Y-2277D01*
X11521Y-2310D01*
X11587D01*
X11621Y-2343D01*
Y-2377D01*
X11587Y-2410D01*
X11521D01*
X11487Y-2377D01*
X6020Y1780D02*
Y1980D01*
X6120D01*
X6153Y1947D01*
Y1880D01*
X6120Y1847D01*
X6020D01*
X6087D02*
X6153Y1780D01*
X6353D02*
X6220D01*
X6353Y1913D01*
Y1947D01*
X6320Y1980D01*
X6253D01*
X6220Y1947D01*
X5137Y1907D02*
X5170Y1940D01*
Y2007D01*
X5137Y2040D01*
X5003D01*
X4970Y2007D01*
Y1940D01*
X5003Y1907D01*
X4970Y1707D02*
Y1840D01*
X5103Y1707D01*
X5137D01*
X5170Y1740D01*
Y1807D01*
X5137Y1840D01*
X5170Y1640D02*
Y1507D01*
X5137D01*
X5003Y1640D01*
X4970D01*
X13821Y-2105D02*
X13787Y-2072D01*
X13721D01*
X13688Y-2105D01*
Y-2138D01*
X13721Y-2172D01*
X13787D01*
X13821Y-2205D01*
Y-2238D01*
X13787Y-2272D01*
X13721D01*
X13688Y-2238D01*
X13887Y-2072D02*
Y-2272D01*
X13954Y-2205D01*
X14021Y-2272D01*
Y-2072D01*
X14087D02*
Y-2272D01*
X14187D01*
X14221Y-2238D01*
Y-2105D01*
X14187Y-2072D01*
X14087D01*
X14421Y-2105D02*
X14387Y-2072D01*
X14321D01*
X14287Y-2105D01*
Y-2238D01*
X14321Y-2272D01*
X14387D01*
X14421Y-2238D01*
X14487Y-2072D02*
Y-2272D01*
X14621D01*
X14687Y-2072D02*
Y-2272D01*
Y-2205D01*
X14820Y-2072D01*
X14721Y-2172D01*
X14820Y-2272D01*
X14454Y2112D02*
X14488Y2078D01*
X14554D01*
X14588Y2112D01*
Y2145D01*
X14554Y2178D01*
X14488D01*
X14454Y2212D01*
Y2245D01*
X14488Y2278D01*
X14554D01*
X14588Y2245D01*
X14388Y2078D02*
Y2278D01*
X14321Y2212D01*
X14254Y2278D01*
Y2078D01*
X14188D02*
Y2278D01*
X14088D01*
X14054Y2245D01*
Y2112D01*
X14088Y2078D01*
X14188D01*
X13988D02*
X13921D01*
X13954D01*
Y2278D01*
X13988D01*
X13921D01*
X13721Y2078D02*
X13788D01*
X13821Y2112D01*
Y2245D01*
X13788Y2278D01*
X13721D01*
X13688Y2245D01*
Y2112D01*
X13721Y2078D01*
X4117Y-503D02*
X4150Y-470D01*
Y-403D01*
X4117Y-370D01*
X3983D01*
X3950Y-403D01*
Y-470D01*
X3983Y-503D01*
X3950Y-670D02*
X4150D01*
X4050Y-570D01*
Y-703D01*
X2350Y-1760D02*
Y-1560D01*
X2450D01*
X2483Y-1593D01*
Y-1660D01*
X2450Y-1693D01*
X2350D01*
X2417D02*
X2483Y-1760D01*
X2550D02*
X2617D01*
X2583D01*
Y-1560D01*
X2550Y-1593D01*
X2237Y-1143D02*
X2270Y-1110D01*
Y-1043D01*
X2237Y-1010D01*
X2103D01*
X2070Y-1043D01*
Y-1110D01*
X2103Y-1143D01*
X2070Y-1343D02*
Y-1210D01*
X2203Y-1343D01*
X2237D01*
X2270Y-1310D01*
Y-1243D01*
X2237Y-1210D01*
X2270Y-1543D02*
X2237Y-1477D01*
X2170Y-1410D01*
X2103D01*
X2070Y-1443D01*
Y-1510D01*
X2103Y-1543D01*
X2137D01*
X2170Y-1510D01*
Y-1410D01*
X3177Y-1593D02*
X3210Y-1560D01*
Y-1493D01*
X3177Y-1460D01*
X3043D01*
X3010Y-1493D01*
Y-1560D01*
X3043Y-1593D01*
X3010Y-1793D02*
Y-1660D01*
X3143Y-1793D01*
X3177D01*
X3210Y-1760D01*
Y-1693D01*
X3177Y-1660D01*
X3210Y-1993D02*
Y-1860D01*
X3110D01*
X3143Y-1927D01*
Y-1960D01*
X3110Y-1993D01*
X3043D01*
X3010Y-1960D01*
Y-1893D01*
X3043Y-1860D01*
X3588Y2243D02*
X3554Y2210D01*
X3488D01*
X3454Y2243D01*
Y2377D01*
X3488Y2410D01*
X3554D01*
X3588Y2377D01*
Y2243D01*
X3388Y2410D02*
Y2377D01*
X3354D01*
Y2410D01*
X3388D01*
X3221D02*
X3154D01*
X3188D01*
Y2210D01*
X3221Y2243D01*
X3054D02*
X3021Y2210D01*
X2954D01*
X2921Y2243D01*
Y2377D01*
X2954Y2410D01*
X3021D01*
X3054Y2377D01*
Y2243D01*
X9637Y-1083D02*
X9670Y-1050D01*
Y-983D01*
X9637Y-950D01*
X9503D01*
X9470Y-983D01*
Y-1050D01*
X9503Y-1083D01*
X9470Y-1150D02*
Y-1217D01*
Y-1183D01*
X9670D01*
X9637Y-1150D01*
X9470Y-1417D02*
X9670D01*
X9570Y-1317D01*
Y-1450D01*
X6793Y-1883D02*
X6760Y-1850D01*
X6693D01*
X6660Y-1883D01*
Y-2017D01*
X6693Y-2050D01*
X6760D01*
X6793Y-2017D01*
X6860Y-2050D02*
X6927D01*
X6893D01*
Y-1850D01*
X6860Y-1883D01*
X7160Y-1850D02*
X7027D01*
Y-1950D01*
X7093Y-1917D01*
X7127D01*
X7160Y-1950D01*
Y-2017D01*
X7127Y-2050D01*
X7060D01*
X7027Y-2017D01*
X10640Y-570D02*
X10440Y-703D01*
X10640D02*
X10440Y-570D01*
Y-903D02*
Y-770D01*
X10573Y-903D01*
X10607D01*
X10640Y-870D01*
Y-803D01*
X10607Y-770D01*
X5027Y-43D02*
X5060Y-10D01*
Y57D01*
X5027Y90D01*
X4893D01*
X4860Y57D01*
Y-10D01*
X4893Y-43D01*
X5027Y-110D02*
X5060Y-143D01*
Y-210D01*
X5027Y-243D01*
X4993D01*
X4960Y-210D01*
Y-177D01*
Y-210D01*
X4927Y-243D01*
X4893D01*
X4860Y-210D01*
Y-143D01*
X4893Y-110D01*
X4500Y-470D02*
Y-670D01*
X4633D01*
X4700D02*
X4767D01*
X4733D01*
Y-470D01*
X4700Y-503D01*
X5383Y-1983D02*
X5350Y-1950D01*
X5283D01*
X5250Y-1983D01*
Y-2117D01*
X5283Y-2150D01*
X5350D01*
X5383Y-2117D01*
X5583Y-2150D02*
X5450D01*
X5583Y-2017D01*
Y-1983D01*
X5550Y-1950D01*
X5483D01*
X5450Y-1983D01*
X7243Y1697D02*
X7210Y1730D01*
X7143D01*
X7110Y1697D01*
Y1563D01*
X7143Y1530D01*
X7210D01*
X7243Y1563D01*
X7310Y1730D02*
X7443D01*
Y1697D01*
X7310Y1563D01*
Y1530D01*
X4233Y-805D02*
X4200Y-772D01*
X4133D01*
X4100Y-805D01*
Y-938D01*
X4133Y-972D01*
X4200D01*
X4233Y-938D01*
X4300Y-972D02*
X4367D01*
X4333D01*
Y-772D01*
X4300Y-805D01*
X4467D02*
X4500Y-772D01*
X4567D01*
X4600Y-805D01*
Y-938D01*
X4567Y-972D01*
X4500D01*
X4467Y-938D01*
Y-805D01*
X5187Y807D02*
X5220Y840D01*
Y907D01*
X5187Y940D01*
X5053D01*
X5020Y907D01*
Y840D01*
X5053Y807D01*
Y740D02*
X5020Y707D01*
Y640D01*
X5053Y607D01*
X5187D01*
X5220Y640D01*
Y707D01*
X5187Y740D01*
X5153D01*
X5120Y707D01*
Y607D01*
X3910Y-1280D02*
X4043Y-1480D01*
Y-1280D02*
X3910Y-1480D01*
X4110D02*
X4177D01*
X4143D01*
Y-1280D01*
X4110Y-1313D01*
X3897Y-1753D02*
X3930Y-1720D01*
Y-1653D01*
X3897Y-1620D01*
X3763D01*
X3730Y-1653D01*
Y-1720D01*
X3763Y-1753D01*
X3730Y-1820D02*
Y-1887D01*
Y-1853D01*
X3930D01*
X3897Y-1820D01*
X6283Y1697D02*
X6250Y1730D01*
X6183D01*
X6150Y1697D01*
Y1563D01*
X6183Y1530D01*
X6250D01*
X6283Y1563D01*
X6350Y1697D02*
X6383Y1730D01*
X6450D01*
X6483Y1697D01*
Y1663D01*
X6450Y1630D01*
X6483Y1597D01*
Y1563D01*
X6450Y1530D01*
X6383D01*
X6350Y1563D01*
Y1597D01*
X6383Y1630D01*
X6350Y1663D01*
Y1697D01*
X6383Y1630D02*
X6450D01*
X9947Y227D02*
X9980Y260D01*
Y327D01*
X9947Y360D01*
X9813D01*
X9780Y327D01*
Y260D01*
X9813Y227D01*
X9980Y27D02*
X9947Y93D01*
X9880Y160D01*
X9813D01*
X9780Y127D01*
Y60D01*
X9813Y27D01*
X9847D01*
X9880Y60D01*
Y160D01*
X8795Y-178D02*
X8762Y-145D01*
X8695D01*
X8662Y-178D01*
Y-311D01*
X8695Y-345D01*
X8762D01*
X8795Y-311D01*
X8995Y-145D02*
X8862D01*
Y-245D01*
X8928Y-211D01*
X8961D01*
X8995Y-245D01*
Y-311D01*
X8961Y-345D01*
X8895D01*
X8862Y-311D01*
X8452Y-950D02*
X8252D01*
Y-1083D01*
Y-1283D02*
Y-1150D01*
X8385Y-1283D01*
X8418D01*
X8452Y-1250D01*
Y-1183D01*
X8418Y-1150D01*
X9032Y-1815D02*
Y-2015D01*
X9165D01*
X9232Y-1848D02*
X9265Y-1815D01*
X9331D01*
X9365Y-1848D01*
Y-1881D01*
X9331Y-1915D01*
X9298D01*
X9331D01*
X9365Y-1948D01*
Y-1981D01*
X9331Y-2015D01*
X9265D01*
X9232Y-1981D01*
X4233Y-1035D02*
X4200Y-1002D01*
X4133D01*
X4100Y-1035D01*
Y-1168D01*
X4133Y-1202D01*
X4200D01*
X4233Y-1168D01*
X4300Y-1202D02*
X4367D01*
X4333D01*
Y-1002D01*
X4300Y-1035D01*
X4467Y-1202D02*
X4533D01*
X4500D01*
Y-1002D01*
X4467Y-1035D01*
X9417Y-343D02*
X9450Y-310D01*
Y-243D01*
X9417Y-210D01*
X9283D01*
X9250Y-243D01*
Y-310D01*
X9283Y-343D01*
X9250Y-410D02*
Y-477D01*
Y-443D01*
X9450D01*
X9417Y-410D01*
X9450Y-577D02*
Y-710D01*
X9417D01*
X9283Y-577D01*
X9250D01*
X9953Y-1523D02*
X9920Y-1490D01*
X9853D01*
X9820Y-1523D01*
Y-1657D01*
X9853Y-1690D01*
X9920D01*
X9953Y-1657D01*
X10020Y-1690D02*
X10087D01*
X10053D01*
Y-1490D01*
X10020Y-1523D01*
X10187D02*
X10220Y-1490D01*
X10287D01*
X10320Y-1523D01*
Y-1557D01*
X10287Y-1590D01*
X10320Y-1623D01*
Y-1657D01*
X10287Y-1690D01*
X10220D01*
X10187Y-1657D01*
Y-1623D01*
X10220Y-1590D01*
X10187Y-1557D01*
Y-1523D01*
X10220Y-1590D02*
X10287D01*
X8467Y927D02*
X8500Y960D01*
Y1027D01*
X8467Y1060D01*
X8333D01*
X8300Y1027D01*
Y960D01*
X8333Y927D01*
X8300Y860D02*
Y793D01*
Y827D01*
X8500D01*
X8467Y860D01*
X8333Y693D02*
X8300Y660D01*
Y593D01*
X8333Y560D01*
X8467D01*
X8500Y593D01*
Y660D01*
X8467Y693D01*
X8433D01*
X8400Y660D01*
Y560D01*
X9037Y647D02*
X9070Y680D01*
Y747D01*
X9037Y780D01*
X8903D01*
X8870Y747D01*
Y680D01*
X8903Y647D01*
X8870Y447D02*
Y580D01*
X9003Y447D01*
X9037D01*
X9070Y480D01*
Y547D01*
X9037Y580D01*
Y380D02*
X9070Y347D01*
Y280D01*
X9037Y247D01*
X8903D01*
X8870Y280D01*
Y347D01*
X8903Y380D01*
X9037D01*
X5703Y-1793D02*
X5670Y-1760D01*
X5603D01*
X5570Y-1793D01*
Y-1927D01*
X5603Y-1960D01*
X5670D01*
X5703Y-1927D01*
X5770Y-1960D02*
X5837D01*
X5803D01*
Y-1760D01*
X5770Y-1793D01*
X6070Y-1960D02*
X5937D01*
X6070Y-1827D01*
Y-1793D01*
X6037Y-1760D01*
X5970D01*
X5937Y-1793D01*
X6283D02*
X6250Y-1760D01*
X6183D01*
X6150Y-1793D01*
Y-1927D01*
X6183Y-1960D01*
X6250D01*
X6283Y-1927D01*
X6350Y-1960D02*
X6417D01*
X6383D01*
Y-1760D01*
X6350Y-1793D01*
X6517D02*
X6550Y-1760D01*
X6617D01*
X6650Y-1793D01*
Y-1827D01*
X6617Y-1860D01*
X6583D01*
X6617D01*
X6650Y-1893D01*
Y-1927D01*
X6617Y-1960D01*
X6550D01*
X6517Y-1927D01*
X9512Y725D02*
X9312D01*
Y592D01*
Y425D02*
X9512D01*
X9412Y525D01*
Y392D01*
X10760Y18D02*
Y218D01*
X10860D01*
X10893Y185D01*
Y118D01*
X10860Y85D01*
X10760D01*
X10827D02*
X10893Y18D01*
X10960Y185D02*
X10993Y218D01*
X11060D01*
X11093Y185D01*
Y152D01*
X11060Y118D01*
X11027D01*
X11060D01*
X11093Y85D01*
Y52D01*
X11060Y18D01*
X10993D01*
X10960Y52D01*
X12203Y-1810D02*
X12070D01*
Y-1910D01*
X12137D01*
X12070D01*
Y-2010D01*
X12270Y-1810D02*
Y-2010D01*
X12370D01*
X12403Y-1977D01*
Y-1943D01*
X12370Y-1910D01*
X12270D01*
X12370D01*
X12403Y-1877D01*
Y-1843D01*
X12370Y-1810D01*
X12270D01*
X12603Y-2010D02*
X12470D01*
X12603Y-1877D01*
Y-1843D01*
X12570Y-1810D01*
X12503D01*
X12470Y-1843D01*
X12013Y-740D02*
X11880D01*
Y-840D01*
X11947D01*
X11880D01*
Y-940D01*
X12080Y-740D02*
Y-940D01*
X12180D01*
X12213Y-907D01*
Y-873D01*
X12180Y-840D01*
X12080D01*
X12180D01*
X12213Y-807D01*
Y-773D01*
X12180Y-740D01*
X12080D01*
X12280Y-940D02*
X12347D01*
X12313D01*
Y-740D01*
X12280Y-773D01*
X12910Y140D02*
X12710D01*
Y40D01*
X12743Y7D01*
X12877D01*
X12910Y40D01*
Y140D01*
X12710Y-60D02*
Y-127D01*
Y-93D01*
X12910D01*
X12877Y-60D01*
X10833Y-523D02*
X10800Y-490D01*
X10733D01*
X10700Y-523D01*
Y-657D01*
X10733Y-690D01*
X10800D01*
X10833Y-657D01*
X11033Y-690D02*
X10900D01*
X11033Y-557D01*
Y-523D01*
X11000Y-490D01*
X10933D01*
X10900Y-523D01*
X11233Y-690D02*
X11100D01*
X11233Y-557D01*
Y-523D01*
X11200Y-490D01*
X11133D01*
X11100Y-523D01*
X11983Y807D02*
X11950Y840D01*
X11883D01*
X11850Y807D01*
Y673D01*
X11883Y640D01*
X11950D01*
X11983Y673D01*
X12183Y640D02*
X12050D01*
X12183Y773D01*
Y807D01*
X12150Y840D01*
X12083D01*
X12050Y807D01*
X12350Y640D02*
Y840D01*
X12250Y740D01*
X12383D01*
X12123Y1097D02*
X12090Y1130D01*
X12023D01*
X11990Y1097D01*
Y963D01*
X12023Y930D01*
X12090D01*
X12123Y963D01*
X12323Y930D02*
X12190D01*
X12323Y1063D01*
Y1097D01*
X12290Y1130D01*
X12223D01*
X12190Y1097D01*
X12390D02*
X12423Y1130D01*
X12490D01*
X12523Y1097D01*
Y1063D01*
X12490Y1030D01*
X12457D01*
X12490D01*
X12523Y997D01*
Y963D01*
X12490Y930D01*
X12423D01*
X12390Y963D01*
X12013Y-1003D02*
X11980Y-970D01*
X11913D01*
X11880Y-1003D01*
Y-1137D01*
X11913Y-1170D01*
X11980D01*
X12013Y-1137D01*
X12213Y-1170D02*
X12080D01*
X12213Y-1037D01*
Y-1003D01*
X12180Y-970D01*
X12113D01*
X12080Y-1003D01*
X12280Y-1170D02*
X12347D01*
X12313D01*
Y-970D01*
X12280Y-1003D01*
X4598Y2243D02*
X4564Y2210D01*
X4498D01*
X4464Y2243D01*
Y2377D01*
X4498Y2410D01*
X4564D01*
X4598Y2377D01*
Y2243D01*
X4398Y2410D02*
Y2377D01*
X4364D01*
Y2410D01*
X4398D01*
X4231Y2243D02*
X4198Y2210D01*
X4131D01*
X4098Y2243D01*
Y2377D01*
X4131Y2410D01*
X4198D01*
X4231Y2377D01*
Y2243D01*
X4031Y2377D02*
X3998Y2410D01*
X3931D01*
X3898Y2377D01*
Y2243D01*
X3931Y2210D01*
X3998D01*
X4031Y2243D01*
Y2277D01*
X3998Y2310D01*
X3898D01*
X7588Y2243D02*
X7554Y2210D01*
X7488D01*
X7454Y2243D01*
Y2377D01*
X7488Y2410D01*
X7554D01*
X7588Y2377D01*
Y2243D01*
X7388Y2410D02*
Y2377D01*
X7354D01*
Y2410D01*
X7388D01*
X7088D02*
X7221D01*
X7088Y2277D01*
Y2243D01*
X7121Y2210D01*
X7188D01*
X7221Y2243D01*
X6888Y2410D02*
X7021D01*
X6888Y2277D01*
Y2243D01*
X6921Y2210D01*
X6988D01*
X7021Y2243D01*
X6588D02*
X6554Y2210D01*
X6488D01*
X6454Y2243D01*
Y2377D01*
X6488Y2410D01*
X6554D01*
X6588Y2377D01*
Y2243D01*
X6388Y2410D02*
Y2377D01*
X6354D01*
Y2410D01*
X6388D01*
X6088D02*
X6221D01*
X6088Y2277D01*
Y2243D01*
X6121Y2210D01*
X6188D01*
X6221Y2243D01*
X5921Y2410D02*
Y2210D01*
X6021Y2310D01*
X5888D01*
X5588Y2410D02*
X5521D01*
X5554D01*
Y2210D01*
X5588Y2243D01*
X5421Y2410D02*
Y2377D01*
X5388D01*
Y2410D01*
X5421D01*
X5254Y2243D02*
X5221Y2210D01*
X5154D01*
X5121Y2243D01*
Y2377D01*
X5154Y2410D01*
X5221D01*
X5254Y2377D01*
Y2243D01*
X5054D02*
X5021Y2210D01*
X4954D01*
X4921Y2243D01*
Y2377D01*
X4954Y2410D01*
X5021D01*
X5054Y2377D01*
Y2243D01*
X2938Y-2410D02*
X3004D01*
X2971D01*
Y-2210D01*
X2938Y-2243D01*
X3104Y-2410D02*
Y-2377D01*
X3137D01*
Y-2410D01*
X3104D01*
X3271D02*
X3337D01*
X3304D01*
Y-2210D01*
X3271Y-2243D01*
X3437D02*
X3471Y-2210D01*
X3537D01*
X3571Y-2243D01*
Y-2377D01*
X3537Y-2410D01*
X3471D01*
X3437Y-2377D01*
Y-2243D01*
X3938Y-2410D02*
X4004D01*
X3971D01*
Y-2210D01*
X3938Y-2243D01*
X4104Y-2410D02*
Y-2377D01*
X4137D01*
Y-2410D01*
X4104D01*
X4271D02*
X4337D01*
X4304D01*
Y-2210D01*
X4271Y-2243D01*
X4437D02*
X4471Y-2210D01*
X4537D01*
X4571Y-2243D01*
Y-2277D01*
X4537Y-2310D01*
X4504D01*
X4537D01*
X4571Y-2343D01*
Y-2377D01*
X4537Y-2410D01*
X4471D01*
X4437Y-2377D01*
X4938Y-2410D02*
X5004D01*
X4971D01*
Y-2210D01*
X4938Y-2243D01*
X5104Y-2410D02*
Y-2377D01*
X5137D01*
Y-2410D01*
X5104D01*
X5271D02*
X5337D01*
X5304D01*
Y-2210D01*
X5271Y-2243D01*
X5571Y-2210D02*
X5437D01*
Y-2310D01*
X5504Y-2277D01*
X5537D01*
X5571Y-2310D01*
Y-2377D01*
X5537Y-2410D01*
X5471D01*
X5437Y-2377D01*
X5898Y-2243D02*
X5931Y-2210D01*
X5997D01*
X6031Y-2243D01*
Y-2377D01*
X5997Y-2410D01*
X5931D01*
X5898Y-2377D01*
Y-2243D01*
X6097Y-2410D02*
Y-2377D01*
X6131D01*
Y-2410D01*
X6097D01*
X6264Y-2243D02*
X6297Y-2210D01*
X6364D01*
X6397Y-2243D01*
Y-2377D01*
X6364Y-2410D01*
X6297D01*
X6264Y-2377D01*
Y-2243D01*
X6597Y-2410D02*
X6464D01*
X6597Y-2277D01*
Y-2243D01*
X6564Y-2210D01*
X6497D01*
X6464Y-2243D01*
X6898D02*
X6931Y-2210D01*
X6997D01*
X7031Y-2243D01*
Y-2377D01*
X6997Y-2410D01*
X6931D01*
X6898Y-2377D01*
Y-2243D01*
X7097Y-2410D02*
Y-2377D01*
X7131D01*
Y-2410D01*
X7097D01*
X7397D02*
X7264D01*
X7397Y-2277D01*
Y-2243D01*
X7364Y-2210D01*
X7297D01*
X7264Y-2243D01*
X7464Y-2377D02*
X7497Y-2410D01*
X7564D01*
X7597Y-2377D01*
Y-2243D01*
X7564Y-2210D01*
X7497D01*
X7464Y-2243D01*
Y-2277D01*
X7497Y-2310D01*
X7597D01*
X7938Y-2243D02*
X7971Y-2210D01*
X8037D01*
X8071Y-2243D01*
Y-2377D01*
X8037Y-2410D01*
X7971D01*
X7938Y-2377D01*
Y-2243D01*
X8137Y-2410D02*
Y-2377D01*
X8171D01*
Y-2410D01*
X8137D01*
X8304Y-2243D02*
X8337Y-2210D01*
X8404D01*
X8437Y-2243D01*
Y-2277D01*
X8404Y-2310D01*
X8371D01*
X8404D01*
X8437Y-2343D01*
Y-2377D01*
X8404Y-2410D01*
X8337D01*
X8304Y-2377D01*
X8504Y-2410D02*
X8571D01*
X8537D01*
Y-2210D01*
X8504Y-2243D01*
X11588Y2243D02*
X11554Y2210D01*
X11488D01*
X11454Y2243D01*
Y2377D01*
X11488Y2410D01*
X11554D01*
X11588Y2377D01*
Y2243D01*
X11388Y2410D02*
Y2377D01*
X11354D01*
Y2410D01*
X11388D01*
X11221D02*
X11154D01*
X11188D01*
Y2210D01*
X11221Y2243D01*
X11054D02*
X11021Y2210D01*
X10954D01*
X10921Y2243D01*
Y2277D01*
X10954Y2310D01*
X10988D01*
X10954D01*
X10921Y2343D01*
Y2377D01*
X10954Y2410D01*
X11021D01*
X11054Y2377D01*
X10598Y2243D02*
X10564Y2210D01*
X10498D01*
X10464Y2243D01*
Y2377D01*
X10498Y2410D01*
X10564D01*
X10598Y2377D01*
Y2243D01*
X10398Y2410D02*
Y2377D01*
X10364D01*
Y2410D01*
X10398D01*
X10231D02*
X10164D01*
X10198D01*
Y2210D01*
X10231Y2243D01*
X9931Y2210D02*
X10064D01*
Y2310D01*
X9998Y2277D01*
X9964D01*
X9931Y2310D01*
Y2377D01*
X9964Y2410D01*
X10031D01*
X10064Y2377D01*
X8598Y2243D02*
X8564Y2210D01*
X8498D01*
X8464Y2243D01*
Y2377D01*
X8498Y2410D01*
X8564D01*
X8598Y2377D01*
Y2243D01*
X8398Y2410D02*
Y2377D01*
X8364D01*
Y2410D01*
X8398D01*
X8098D02*
X8231D01*
X8098Y2277D01*
Y2243D01*
X8131Y2210D01*
X8198D01*
X8231Y2243D01*
X8031D02*
X7998Y2210D01*
X7931D01*
X7898Y2243D01*
Y2377D01*
X7931Y2410D01*
X7998D01*
X8031Y2377D01*
Y2243D01*
X9598D02*
X9564Y2210D01*
X9498D01*
X9464Y2243D01*
Y2377D01*
X9498Y2410D01*
X9564D01*
X9598Y2377D01*
Y2243D01*
X9398Y2410D02*
Y2377D01*
X9364D01*
Y2410D01*
X9398D01*
X9231D02*
X9164D01*
X9198D01*
Y2210D01*
X9231Y2243D01*
X9064Y2210D02*
X8931D01*
Y2243D01*
X9064Y2377D01*
Y2410D01*
X10760Y352D02*
Y552D01*
X10860D01*
X10893Y518D01*
Y452D01*
X10860Y418D01*
X10760D01*
X10827D02*
X10893Y352D01*
X11060D02*
Y552D01*
X10960Y452D01*
X11093D01*
X10760Y1018D02*
Y1218D01*
X10860D01*
X10893Y1185D01*
Y1118D01*
X10860Y1085D01*
X10760D01*
X10827D02*
X10893Y1018D01*
X11093Y1218D02*
X11027Y1185D01*
X10960Y1118D01*
Y1052D01*
X10993Y1018D01*
X11060D01*
X11093Y1052D01*
Y1085D01*
X11060Y1118D01*
X10960D01*
X7223Y-1523D02*
X7190Y-1490D01*
X7123D01*
X7090Y-1523D01*
Y-1657D01*
X7123Y-1690D01*
X7190D01*
X7223Y-1657D01*
X7290Y-1690D02*
X7357D01*
X7323D01*
Y-1490D01*
X7290Y-1523D01*
X7590Y-1490D02*
X7523Y-1523D01*
X7457Y-1590D01*
Y-1657D01*
X7490Y-1690D01*
X7557D01*
X7590Y-1657D01*
Y-1623D01*
X7557Y-1590D01*
X7457D01*
X7740Y1720D02*
Y1553D01*
X7773Y1520D01*
X7840D01*
X7873Y1553D01*
Y1720D01*
X7940Y1520D02*
X8007D01*
X7973D01*
Y1720D01*
X7940Y1687D01*
X3181Y1277D02*
X3200Y1296D01*
X3210Y1324D01*
Y1362D01*
X3200Y1391D01*
X3181Y1410D01*
X3162D01*
X3143Y1400D01*
X3134Y1391D01*
X3124Y1372D01*
X3105Y1315D01*
X3096Y1296D01*
X3086Y1286D01*
X3067Y1277D01*
X3039D01*
X3020Y1296D01*
X3010Y1324D01*
Y1362D01*
X3020Y1391D01*
X3039Y1410D01*
X3210Y1232D02*
X3010Y1184D01*
X3210Y1137D02*
X3010Y1184D01*
X3210Y1137D02*
X3010Y1089D01*
X3210Y1042D02*
X3010Y1089D01*
X3162Y992D02*
X3172D01*
X3191Y982D01*
X3200Y973D01*
X3210Y954D01*
Y916D01*
X3200Y897D01*
X3191Y887D01*
X3172Y878D01*
X3153D01*
X3134Y887D01*
X3105Y906D01*
X3010Y1002D01*
Y868D01*
X10760Y685D02*
Y885D01*
X10860D01*
X10893Y852D01*
Y785D01*
X10860Y752D01*
X10760D01*
X10827D02*
X10893Y685D01*
X11093Y885D02*
X10960D01*
Y785D01*
X11027Y818D01*
X11060D01*
X11093Y785D01*
Y718D01*
X11060Y685D01*
X10993D01*
X10960Y718D01*
X13204Y-564D02*
X13171Y-531D01*
X13104D01*
X13071Y-564D01*
Y-597D01*
X13104Y-631D01*
X13171D01*
X13204Y-664D01*
Y-697D01*
X13171Y-731D01*
X13104D01*
X13071Y-697D01*
X13271Y-531D02*
Y-731D01*
X13371D01*
X13404Y-697D01*
Y-664D01*
X13371Y-631D01*
X13271D01*
X13371D01*
X13404Y-597D01*
Y-564D01*
X13371Y-531D01*
X13271D01*
X13471Y-564D02*
X13504Y-531D01*
X13571D01*
X13604Y-564D01*
Y-597D01*
X13571Y-631D01*
X13537D01*
X13571D01*
X13604Y-664D01*
Y-697D01*
X13571Y-731D01*
X13504D01*
X13471Y-697D01*
X13204Y697D02*
X13171Y731D01*
X13104D01*
X13071Y697D01*
Y664D01*
X13104Y631D01*
X13171D01*
X13204Y597D01*
Y564D01*
X13171Y531D01*
X13104D01*
X13071Y564D01*
X13271Y731D02*
Y531D01*
X13371D01*
X13404Y564D01*
Y597D01*
X13371Y631D01*
X13271D01*
X13371D01*
X13404Y664D01*
Y697D01*
X13371Y731D01*
X13271D01*
X13571Y531D02*
Y731D01*
X13471Y631D01*
X13604D01*
D60*
X11415Y1443D02*
Y1757D01*
X10785Y1443D02*
Y1757D01*
Y1443D02*
X11415D01*
X10785Y1757D02*
X11415D01*
X4429Y-390D02*
Y-217D01*
X4814Y-390D02*
Y-217D01*
X4690Y-390D02*
X4814D01*
X4429D02*
X4553D01*
X4690Y-217D02*
X4814D01*
X4429D02*
X4553D01*
X2083Y-1993D02*
Y-1869D01*
Y-1731D02*
Y-1607D01*
X2257Y-1993D02*
Y-1869D01*
Y-1731D02*
Y-1607D01*
X2083D02*
X2257D01*
X2083Y-1993D02*
X2257D01*
X5233Y1562D02*
Y1686D01*
Y1824D02*
Y1948D01*
X5407Y1562D02*
Y1686D01*
Y1824D02*
Y1948D01*
X5233D02*
X5407D01*
X5233Y1562D02*
X5407D01*
X5819Y1793D02*
X5943D01*
X5557D02*
X5681D01*
X5819Y1967D02*
X5943D01*
X5557D02*
X5681D01*
X5557Y1793D02*
Y1967D01*
X5943Y1793D02*
Y1967D01*
X2317Y-1833D02*
X2441D01*
X2579D02*
X2703D01*
X2317Y-2007D02*
X2441D01*
X2579D02*
X2703D01*
Y-1833D01*
X2317Y-2007D02*
Y-1833D01*
X12137Y-2257D02*
Y-2083D01*
X12523Y-2257D02*
Y-2083D01*
X12399Y-2257D02*
X12523D01*
X12137D02*
X12261D01*
X12399Y-2083D02*
X12523D01*
X12137D02*
X12261D01*
X11417Y-927D02*
Y-753D01*
X11803Y-927D02*
Y-753D01*
X11679Y-927D02*
X11803D01*
X11417D02*
X11541D01*
X11679Y-753D02*
X11803D01*
X11417D02*
X11541D01*
X2937Y-1731D02*
Y-1607D01*
Y-1993D02*
Y-1869D01*
X2763Y-1731D02*
Y-1607D01*
Y-1993D02*
Y-1869D01*
Y-1993D02*
X2937D01*
X2763Y-1607D02*
X2937D01*
X11609Y633D02*
X11733D01*
X11347D02*
X11471D01*
X11609Y807D02*
X11733D01*
X11347D02*
X11471D01*
X11347Y633D02*
Y807D01*
X11733Y633D02*
Y807D01*
X11239Y-927D02*
X11363D01*
X10977D02*
X11101D01*
X11239Y-753D02*
X11363D01*
X10977D02*
X11101D01*
X10977Y-927D02*
Y-753D01*
X11363Y-927D02*
Y-753D01*
X11679Y-1157D02*
X11803D01*
X11417D02*
X11541D01*
X11679Y-983D02*
X11803D01*
X11417D02*
X11541D01*
X11417Y-1157D02*
Y-983D01*
X11803Y-1157D02*
Y-983D01*
X9887Y-1243D02*
X10011D01*
X10149D02*
X10273D01*
X9887Y-1417D02*
X10011D01*
X10149D02*
X10273D01*
Y-1243D01*
X9887Y-1417D02*
Y-1243D01*
X9523Y-657D02*
Y-533D01*
Y-395D02*
Y-271D01*
X9697Y-657D02*
Y-533D01*
Y-395D02*
Y-271D01*
X9523D02*
X9697D01*
X9523Y-657D02*
X9697D01*
X6480Y-1701D02*
X6604D01*
X6219D02*
X6343D01*
X6480Y-1528D02*
X6604D01*
X6219D02*
X6343D01*
X6219Y-1701D02*
Y-1528D01*
X6604Y-1701D02*
Y-1528D01*
X5549D02*
X5673D01*
X5810D02*
X5934D01*
X5549Y-1701D02*
X5673D01*
X5810D02*
X5934D01*
Y-1528D01*
X5549Y-1701D02*
Y-1528D01*
X4659Y-1018D02*
X4783D01*
X4920D02*
X5044D01*
X4659Y-1191D02*
X4783D01*
X4920D02*
X5044D01*
Y-1018D01*
X4659Y-1191D02*
Y-1018D01*
X4920Y-961D02*
X5044D01*
X4659D02*
X4783D01*
X4920Y-788D02*
X5044D01*
X4659D02*
X4783D01*
X4659Y-961D02*
Y-788D01*
X5044Y-961D02*
Y-788D01*
X5197Y409D02*
Y533D01*
Y147D02*
Y271D01*
X5023Y409D02*
Y533D01*
Y147D02*
Y271D01*
Y147D02*
X5197D01*
X5023Y533D02*
X5197D01*
X5959Y1539D02*
X6083D01*
X5697D02*
X5821D01*
X5959Y1712D02*
X6083D01*
X5697D02*
X5821D01*
X5697Y1539D02*
Y1712D01*
X6083Y1539D02*
Y1712D01*
X6919Y1539D02*
X7043D01*
X6657D02*
X6781D01*
X6919Y1712D02*
X7043D01*
X6657D02*
X6781D01*
X6657Y1539D02*
Y1712D01*
X7043Y1539D02*
Y1712D01*
X8899Y-601D02*
X9023D01*
X8637D02*
X8761D01*
X8899Y-428D02*
X9023D01*
X8637D02*
X8761D01*
X8637Y-601D02*
Y-428D01*
X9023Y-601D02*
Y-428D01*
X4387Y-461D02*
Y-337D01*
Y-723D02*
Y-599D01*
X4213Y-461D02*
Y-337D01*
Y-723D02*
Y-599D01*
Y-723D02*
X4387D01*
X4213Y-337D02*
X4387D01*
X5045Y-433D02*
Y-309D01*
Y-695D02*
Y-571D01*
X4871Y-433D02*
Y-309D01*
Y-695D02*
Y-571D01*
Y-695D02*
X5045D01*
X4871Y-309D02*
X5045D01*
X5255Y-1888D02*
Y-1764D01*
Y-1626D02*
Y-1502D01*
X5428Y-1888D02*
Y-1764D01*
Y-1626D02*
Y-1502D01*
X5255D02*
X5428D01*
X5255Y-1888D02*
X5428D01*
X4168Y-1666D02*
Y-1542D01*
Y-1928D02*
Y-1804D01*
X3995Y-1666D02*
Y-1542D01*
Y-1928D02*
Y-1804D01*
Y-1928D02*
X4168D01*
X3995Y-1542D02*
X4168D01*
X7657Y-1707D02*
Y-1533D01*
X8043Y-1707D02*
Y-1533D01*
X7919Y-1707D02*
X8043D01*
X7657D02*
X7781D01*
X7919Y-1533D02*
X8043D01*
X7657D02*
X7781D01*
X10579Y33D02*
X10703D01*
X10317D02*
X10441D01*
X10579Y207D02*
X10703D01*
X10317D02*
X10441D01*
X10317Y33D02*
Y207D01*
X10703Y33D02*
Y207D01*
X10579Y367D02*
X10703D01*
X10317D02*
X10441D01*
X10579Y540D02*
X10703D01*
X10317D02*
X10441D01*
X10317Y367D02*
Y540D01*
X10703Y367D02*
Y540D01*
X10579Y1033D02*
X10703D01*
X10317D02*
X10441D01*
X10579Y1207D02*
X10703D01*
X10317D02*
X10441D01*
X10317Y1033D02*
Y1207D01*
X10703Y1033D02*
Y1207D01*
X10579Y700D02*
X10703D01*
X10317D02*
X10441D01*
X10579Y873D02*
X10703D01*
X10317D02*
X10441D01*
X10317Y700D02*
Y873D01*
X10703Y700D02*
Y873D01*
M02*
