<?xml version="1.0" encoding="UTF-8" standalone="no"?>
<!-- Created with Inkscape (http://www.inkscape.org/) -->

<svg
   xmlns:dc="http://purl.org/dc/elements/1.1/"
   xmlns:cc="http://creativecommons.org/ns#"
   xmlns:rdf="http://www.w3.org/1999/02/22-rdf-syntax-ns#"
   xmlns:svg="http://www.w3.org/2000/svg"
   xmlns="http://www.w3.org/2000/svg"
   xmlns:sodipodi="http://sodipodi.sourceforge.net/DTD/sodipodi-0.dtd"
   xmlns:inkscape="http://www.inkscape.org/namespaces/inkscape"
   width="48.983875mm"
   height="60.250683mm"
   viewBox="0 0 173.56491 213.48666"
   id="svg2"
   version="1.1"
   inkscape:version="0.91 r13725"
   sodipodi:docname="Base2.svg">
  <sodipodi:namedview
     id="base"
     pagecolor="#ffffff"
     bordercolor="#666666"
     borderopacity="1.0"
     inkscape:pageopacity="0.0"
     inkscape:pageshadow="2"
     inkscape:zoom="7.9195959"
     inkscape:cx="82.945081"
     inkscape:cy="83.854171"
     inkscape:document-units="mm"
     inkscape:current-layer="g4213"
     showgrid="false"
     fit-margin-top="0"
     fit-margin-left="0"
     fit-margin-right="0"
     fit-margin-bottom="0"
     inkscape:window-width="1376"
     inkscape:window-height="997"
     inkscape:window-x="542"
     inkscape:window-y="31"
     inkscape:window-maximized="0" />
  <defs
     id="defs4" />
  <metadata
     id="metadata7">
    <rdf:RDF>
      <cc:Work
         rdf:about="">
        <dc:format>image/svg+xml</dc:format>
        <dc:type
           rdf:resource="http://purl.org/dc/dcmitype/StillImage" />
        <dc:title></dc:title>
      </cc:Work>
    </rdf:RDF>
  </metadata>
  <g
     inkscape:label="Base"
     inkscape:groupmode="layer"
     id="layer1"
     transform="translate(-1.1635727,-877.69461)"
     style="display:none">
    <path
       style="fill:#000000"
       d="m 103.6725,1089.8518 c -8.040874,-1.7425 -14.88212,-4.1544 -22.292848,-7.8595 -7.971914,-3.9856 -12.860794,-7.1272 -15.92345,-10.2326 -1.106261,-1.1216 -2.516692,-2.3916 -3.134285,-2.822 -2.801251,-1.9525 -6.470193,-6.0414 -9.582995,-10.6794 -4.692296,-6.9914 -8.045454,-14.0491 -9.782788,-20.5906 -0.531057,-1.9996 -0.657117,-2.2005 -1.118612,-1.783 -0.286057,0.259 -1.349309,0.858 -2.362782,1.3312 -1.729693,0.8079 -2.058515,0.8481 -5.362602,0.655 -3.963325,-0.2313 -4.338115,-0.3851 -7.890707,-3.2363 -2.948524,-2.3664 -5.06012,-4.8105 -7.215982,-8.352 -3.835446,-6.3007 -5.601562,-10.9724 -7.543577,-19.9547 -1.21693,-5.6286 -1.110589,-11.09695 0.350677,-18.03227 0.194663,-0.92387 0.08087,-1.08634 -1.399212,-1.99693 -0.8861013,-0.54519 -2.6430623,-1.97832 -3.9043438,-3.1847 -8.324763,-7.96247 -5.66408188,-18.93793 5.9807758,-24.67097 2.769607,-1.36356 7.334798,-2.84209 10.224529,-3.3114 l 1.173308,-0.19056 0.07464,-5.95079 c 0.355586,-28.35626 9.028399,-48.6675 25.530379,-59.79076 9.267821,-6.24703 19.382516,-9.46843 33.563195,-10.68943 7.26827,-0.62586 13.360776,-0.33477 20.95191,1.00097 10.30574,1.8134 19.27701,5.78764 26.40584,11.69771 2.34185,1.94149 6.07353,5.86075 6.7755,7.11611 1.03783,1.85594 3.14084,4.59672 3.36904,4.39078 0.14568,-0.13144 0.16596,-0.0661 0.0451,0.14552 -0.12081,0.21148 0.38444,1.4183 1.12293,2.68184 3.39025,5.80043 6.27558,14.60259 7.85199,23.95371 1.01403,6.0153 1.45694,10.78592 1.74328,18.77679 l 0.22358,6.23971 3.14904,0.22134 c 5.75531,0.40457 10.10627,1.64598 13.01366,3.71304 0.8914,0.63378 1.78269,1.06024 1.9806,0.94771 0.19797,-0.11247 0.24947,-0.0825 0.11456,0.0667 -0.13492,0.14916 0.25137,0.82105 0.85849,1.49307 2.07544,2.29727 3.58649,6.56014 3.56696,10.06293 -0.0606,10.8697 -5.18008,18.08972 -15.49657,21.85476 -1.47916,0.53981 -3.46024,1.13358 -4.40242,1.31948 -0.94214,0.18593 -2.39186,0.48739 -3.22156,0.66994 l -1.50854,0.33194 0.0961,10.29526 c 0.1078,11.5368 0.0342,12.4965 -1.89664,24.7101 -0.17487,1.1062 -0.77881,3.7463 -1.34204,5.8666 -0.94423,3.5548 -1.59908,5.5099 -4.82815,14.4147 -1.06258,2.9307 -2.51309,6.0707 -5.42008,11.7334 -0.61521,1.1984 -1.22019,2.6587 -1.34439,3.2452 -0.12419,0.5865 -0.42724,1.2335 -0.67347,1.4378 -0.24626,0.2045 -0.7878,1.2331 -1.20343,2.286 -0.881,2.2319 -2.54653,5.1127 -4.59542,7.9486 -0.79921,1.1064 -1.97846,2.8034 -2.62051,3.7714 -0.64205,0.9679 -1.29288,1.7601 -1.44625,1.7601 -0.1534,0 -1.46193,1.1266 -2.9079,2.504 -3.95951,3.7715 -7.8845,5.5712 -12.02265,5.5126 -1.11888,-0.015 -3.69374,-0.3885 -5.72186,-0.828 z m 9.96539,-2.1758 c 3.04957,-0.8469 7.91282,-4.9798 11.81599,-10.0414 2.45342,-3.1815 8.30348,-14.2244 11.80996,-22.2929 2.87995,-6.6269 7.33169,-19.8088 8.43888,-24.9879 1.67223,-7.8225 1.79236,-9.9424 1.73744,-30.66035 -0.0282,-10.69383 0.11479,-22.51493 0.31801,-26.26905 0.20323,-3.75417 0.29532,-6.89994 0.20459,-6.99066 -0.0907,-0.0907 -1.3436,0.22455 -2.78423,0.70058 -7.79901,2.57711 -14.8571,3.57841 -26.7559,3.79576 -9.94624,0.18168 -18.493077,-0.29782 -26.536868,-1.48877 -2.826078,-0.41843 -5.899927,-0.58033 -10.673725,-0.56212 -6.099226,0.0231 -6.994859,0.10338 -9.919124,0.8882 -8.536327,2.29076 -14.161094,7.32684 -17.062405,15.27665 -2.029579,5.56113 -2.139592,6.6294 -2.337276,22.69496 l -0.181487,14.7501 -4.944644,0.093 -4.944655,0.093 -0.0021,-6.9648 c -0.0031,-13.699 -0.979787,-22.66109 -3.123275,-28.65836 -2.576109,-7.20763 -6.304805,-10.42626 -12.128162,-10.46913 -2.322254,-0.017 -2.941133,0.11166 -4.615589,0.96008 -3.677124,1.8632 -6.295947,5.44439 -7.703193,10.53397 -0.613431,2.21859 -0.711095,3.49607 -0.721558,9.43812 -0.01378,7.81452 0.311097,9.95832 2.512641,16.58042 3.541494,10.6528 8.360435,17.6016 14.212529,20.494 2.32253,1.1477 2.65623,1.2221 4.802631,1.0683 2.581283,-0.1845 4.737747,-1.1641 6.876378,-3.1233 0.697065,-0.6386 1.379141,-1.1612 1.51573,-1.1612 0.136585,0 0.515758,1.1693 0.842596,2.5982 2.905207,12.7016 10.371686,25.7781 19.01368,33.2999 8.201426,7.1385 24.198904,15.7799 35.003503,18.9078 5.728153,1.6587 12.401853,2.3104 15.329073,1.4974 z m -80.385756,-67.6598 c -0.565197,-0.3446 -1.545745,-1.2808 -2.179003,-2.0803 -1.002548,-1.2659 -1.15137,-1.6972 -1.15137,-3.3372 0,-1.52 0.171087,-2.1077 0.886598,-3.0459 0.804642,-1.0548 0.843979,-1.2383 0.425589,-1.9852 -0.945466,-1.6877 -2.453551,-6.9949 -2.963463,-10.42889 -0.789948,-5.32003 -1.662082,-7.31465 -3.820826,-8.73834 -1.184448,-0.78118 -2.119799,-0.75006 -3.209021,0.10683 -0.719829,0.56622 -0.989424,0.62344 -1.38614,0.2942 -0.75207,-0.62419 -0.595056,-1.30278 0.548641,-2.37118 1.717637,-1.6045 4.105871,-1.1561 6.387725,1.19933 1.583749,1.63484 2.551045,4.20845 3.152633,8.38789 0.652778,4.53516 1.734451,9.00106 2.719866,11.22956 l 0.814999,1.8433 -0.731831,1.5624 c -1.064719,2.2731 -0.731525,3.5752 1.367983,5.3454 1.383174,1.1663 1.596797,1.4942 1.315535,2.02 -0.422021,0.7887 -0.882589,0.7883 -2.177915,0 z m 45.458485,-0.9631 c -0.194653,-0.6915 -0.444963,-1.8082 -0.556244,-2.4818 -0.167774,-1.0154 -0.359671,-1.2476 -1.123954,-1.3598 -0.822307,-0.1207 -1.061426,0.093 -2.218423,1.9852 -0.93472,1.5284 -1.439065,2.0613 -1.806368,1.9083 -0.280272,-0.1164 -0.772856,-0.2875 -1.094628,-0.38 -0.497632,-0.1431 -0.557067,-0.4506 -0.397845,-2.0573 0.10294,-1.0388 0.249983,-2.2045 0.326711,-2.5902 0.09703,-0.4874 -0.112009,-0.8358 -0.685115,-1.1426 -0.758096,-0.4057 -0.98933,-0.3258 -2.865132,0.99 l -2.040472,1.4312 -0.798394,-0.75 -0.798403,-0.75 1.122676,-2.2294 c 1.002663,-1.9909 1.071834,-2.2988 0.647089,-2.8797 -0.4631,-0.6334 -0.534908,-0.6352 -2.732143,-0.072 -2.805485,0.719 -2.570863,0.7428 -3.274465,-0.3311 l -0.592192,-0.9038 1.93621,-1.718 c 1.559268,-1.3835 1.89263,-1.8553 1.712325,-2.4234 -0.188054,-0.5925 -0.583671,-0.7401 -2.472078,-0.9219 -2.999316,-0.2889 -3.086263,-0.3303 -3.086263,-1.4698 0,-0.91027 0.181404,-1.05772 2.346618,-1.90719 2.23086,-0.87527 2.346609,-0.97408 2.346609,-2.00331 0,-1.01398 -0.138147,-1.14134 -2.178992,-2.00871 -1.701462,-0.72314 -2.177875,-1.08036 -2.173872,-1.63006 0.0095,-1.27783 0.493028,-1.56662 2.972032,-1.77445 1.928366,-0.16167 2.487208,-0.33504 2.767372,-0.85853 0.294397,-0.55009 0.143188,-0.85689 -0.936774,-1.90072 -2.131655,-2.06033 -2.226099,-2.22615 -1.768542,-3.10487 0.222154,-0.42664 0.442946,-0.82261 0.490652,-0.87995 0.04771,-0.0573 1.172212,0.22548 2.498875,0.62844 2.226499,0.67628 2.454046,0.69075 2.956831,0.18797 0.502783,-0.50279 0.459309,-0.71789 -0.565019,-2.79512 l -1.109723,-2.25039 0.739718,-0.59897 c 0.40685,-0.32945 0.847568,-0.59901 0.979395,-0.59901 0.131813,0 1.129718,0.66582 2.217537,1.47959 1.808436,1.35284 2.047703,1.44301 2.793141,1.05244 0.766577,-0.40165 0.81082,-0.58023 0.74052,-2.9881 -0.07357,-2.52103 -0.06028,-2.56646 0.859023,-2.91598 1.057509,-0.40205 1.189368,-0.28394 2.735311,2.44985 0.71188,1.25884 1.082393,1.59205 1.770485,1.59233 0.795206,2.7e-4 0.933705,-0.21812 1.606616,-2.53405 0.732686,-2.5216 0.741839,-2.5339 1.811636,-2.43044 1.049864,0.1016 1.087353,0.1625 1.58927,2.58396 0.411476,1.98515 0.660116,2.53402 1.246134,2.7508 0.633215,0.23424 0.921245,10e-4 2.13256,-1.72572 0.77027,-1.09806 1.52238,-1.99651 1.671364,-1.99651 0.804474,0 1.972894,0.8358 1.835706,1.31311 -0.08394,0.29186 -0.25524,1.40574 -0.380809,2.47529 -0.195127,1.66219 -0.138947,2.00994 0.386795,2.39437 0.540376,0.39514 0.848402,0.2913 2.536578,-0.85512 1.056848,-0.71768 2.010538,-1.30489 2.119323,-1.30489 0.108773,0 0.572051,0.24522 1.029432,0.5449 l 0.831619,0.54489 -1.178645,2.10761 c -1.936302,3.46243 -1.574805,4.04994 1.936206,3.14684 1.31498,-0.33824 2.4046,-0.5841 2.42133,-0.54635 0.0168,0.0377 0.284377,0.47498 0.594747,0.97161 l 0.56433,0.90291 -1.958597,1.70353 c -1.55808,1.35518 -1.92807,1.86327 -1.80931,2.48467 0.13448,0.7034 0.4049,0.81096 2.717577,1.08108 2.55317,0.29816 2.56881,0.30603 2.66961,1.34056 0.0933,0.95688 -0.0281,1.09547 -1.5085,1.72159 -0.88548,0.37453 -1.949377,0.78379 -2.364237,0.9095 -1.45142,0.43988 -0.87626,1.34097 1.541667,2.4153 2.19656,0.976 2.28946,1.064 2.147,2.0348 -0.13495,0.9193 -0.29205,1.0343 -1.67226,1.2235 -0.83783,0.1148 -2.015497,0.2088 -2.617057,0.2088 -0.90833,0 -1.15181,0.1666 -1.436539,0.9834 -0.320581,0.9196 -0.235748,1.0834 1.308139,2.5277 1.77191,1.6573 1.900377,1.9974 1.13631,3.0077 -0.48728,0.6442 -0.52206,0.643 -2.839299,-0.1032 -3.373943,-1.0867 -3.686302,-0.6855 -2.026492,2.6025 l 0.988943,1.9592 -0.80617,0.7573 -0.80617,0.7573 -2.059569,-1.5305 c -1.81816,-1.351 -2.154499,-1.4871 -2.86944,-1.1613 -0.496586,0.2262 -0.7525,0.5742 -0.661562,0.8994 0.0816,0.292 0.245095,1.4366 0.363398,2.5436 l 0.215103,2.013 -1.039709,0.3924 c -1.037609,0.3918 -1.042464,0.3882 -2.400028,-1.7614 -1.008364,-1.5967 -1.553515,-2.154 -2.107046,-2.154 -0.653086,0 -0.82106,0.3153 -1.339457,2.5143 -0.592625,2.5138 -0.592942,2.5142 -1.721688,2.5142 -1.018173,0 -1.163704,-0.1235 -1.482898,-1.2571 z m 7.077408,-9.28 c 2.72963,-1.35 5.158721,-3.808 6.416528,-6.4927 0.939065,-2.0043 1.051335,-2.5708 1.042979,-5.26309 -0.01299,-4.23827 -0.869528,-6.32733 -3.791695,-9.24951 -2.873209,-2.8732 -5.000283,-3.75008 -9.081881,-3.74393 -4.094435,0.005 -6.220576,0.88264 -9.081877,3.74393 -2.922173,2.92218 -3.778546,5.01124 -3.7917,9.24951 -0.0084,2.67849 0.105797,3.26159 1.016777,5.19609 1.03593,2.1998 3.354139,4.7858 5.412084,6.0373 3.197966,1.9448 8.509935,2.1788 11.858785,0.5224 z m -7.648274,-4.8443 c -4.809281,-1.9087 -6.430942,-7.42419 -3.41688,-11.62118 1.411269,-1.96516 3.237904,-2.83301 5.962986,-2.83301 4.917903,0 8.264471,4.07033 7.353907,8.94433 -0.326815,1.74936 -0.850259,2.68316 -2.211812,3.94566 -2.010574,1.8643 -5.2642,2.5263 -7.688201,1.5642 z"
       id="path4147"
       inkscape:connector-curvature="0" />
  </g>
  <g
     style="display:inline"
     transform="translate(-1.1635727,-877.69461)"
     id="g4213"
     inkscape:groupmode="layer"
     inkscape:label="Gear">
    <path
       sodipodi:nodetypes="ccccccsccccccccccccscscsscsssscsssccsssccscscsscsccsssscsscccscccccsccsccccccccccccccsssscccccscscssccssssc"
       inkscape:connector-curvature="0"
       id="path4215"
       d="M78.710619 1019.0531C78.515966 1018.3616 78.265656 1017.2449 78.154375 1016.5713C77.986601 1015.5559 77.794704 1015.3237 77.030421 1015.2115C76.208114 1015.0908 75.968995 1015.3045 74.811998 1017.1967C73.877278 1018.7251 73.372933 1019.258 73.00563 1019.105C72.725358 1018.9886 72.232774 1018.8175 71.911002 1018.725C71.41337 1018.5819 71.353935 1018.2744 71.513157 1016.6677C71.616097 1015.6289 71.76314 1014.4632 71.839868 1014.0775C71.936898 1013.5901 71.727859 1013.2417 71.154753 1012.9349C70.396657 1012.5292 70.165423 1012.6091 68.289621 1013.9249C68.289621 1013.9249 66.249149 1015.3561 66.249149 1015.3561C66.249149 1015.3561 65.450755 1014.6061 65.450755 1014.6061C65.450755 1014.6061 64.652352 1013.8561 64.652352 1013.8561C64.652352 1013.8561 65.775028 1011.6267 65.775028 1011.6267C66.777691 1009.6358 66.846862 1009.3279 66.422117 1008.747C65.959017 1008.1136 65.887209 1008.1118 63.689974 1008.675C60.884489 1009.394 61.119111 1009.4178 60.415509 1008.3439C60.415509 1008.3439 59.823317 1007.4401 59.823317 1007.4401C59.823317 1007.4401 61.759527 1005.7221 61.759527 1005.7221C63.318795 1004.3386 63.652157 1003.8668 63.471852 1003.2987C63.283798 1002.7062 62.888181 1002.5586 60.999774 1002.3768C58.000458 1002.0879 57.913511 1002.0465 57.913511 1000.907C57.913511 999.99673 58.094915 999.84928 60.260129 998.99981C62.490989 998.12454 62.606738 998.02573 62.606738 996.9965C62.606738 995.98252 62.468591 995.85516 60.427746 994.98779C58.726284 994.26465 58.249871 993.90743 58.253874 993.35773C58.263374 992.0799 58.746902 991.79111 61.225906 991.58328C63.154272 991.42161 63.713114 991.24824 63.993278 990.72475C64.287675 990.17466 64.136466 989.86786 63.056504 988.82403C60.924849 986.7637 60.830405 986.59788 61.287962 985.71916C61.510116 985.29252 61.730908 984.89655 61.778614 984.83921C61.826324 984.78191 62.950826 985.06469 64.277489 985.46765C66.503988 986.14393 66.731535 986.1584 67.23432 985.65562C67.737103 985.15283 67.693629 984.93773 66.669301 982.8605C66.669301 982.8605 65.559578 980.61011 65.559578 980.61011C65.559578 980.61011 66.299296 980.01114 66.299296 980.01114C66.706146 979.68169 67.146864 979.41213 67.278691 979.41213C67.410504 979.41213 68.408409 980.07795 69.496228 980.89172C71.304664 982.24456 71.543931 982.33473 72.289369 981.94416C73.055946 981.54251 73.100189 981.36393 73.029889 978.95606C72.956319 976.43503 72.969609 976.3896 73.888912 976.04008C74.946421 975.63803 75.07828 975.75614 76.624223 978.48993C77.336103 979.74877 77.706616 980.08198 78.394708 980.08226C79.189914 980.08253 79.328413 979.86414 80.001324 977.54821C80.73401 975.02661 80.743163 975.01431 81.81296 975.11777C82.862824 975.21937 82.900313 975.28027 83.40223 977.70173C83.813706 979.68688 84.062346 980.23575 84.648364 980.45253C85.281579 980.68677 85.569609 980.45353 86.780924 978.72681C87.551194 977.62875 88.303304 976.7303 88.452288 976.7303C89.256762 976.7303 90.425182 977.5661 90.287994 978.04341C90.204054 978.33527 90.032754 979.44915 89.907185 980.5187C89.712058 982.18089 89.768238 982.52864 90.29398 982.91307C90.834356 983.30821 91.142382 983.20437 92.830558 982.05795C93.887406 981.34027 94.841096 980.75306 94.949881 980.75306C95.058654 980.75306 95.521932 980.99828 95.979313 981.29796C95.979313 981.29796 96.810932 981.84285 96.810932 981.84285C96.810932 981.84285 95.632287 983.95046 95.632287 983.95046C93.695985 987.41289 94.057482 988.0004 97.568493 987.0973C98.883473 986.75906 99.973093 986.5132 99.989823 986.55095C100.006623 986.58865 100.2742 987.02593 100.58457 987.52256C100.58457 987.52256 101.1489 988.42547 101.1489 988.42547C101.1489 988.42547 99.190303 990.129 99.190303 990.129C97.632223 991.48418 97.262233 991.99227 97.380993 992.61367C97.515473 993.31707 97.785893 993.42463 100.09857 993.69475C102.65174 993.99291 102.66738 994.00078 102.76818 995.03531C102.86148 995.99219 102.74008 996.13078 101.25968 996.7569C100.3742 997.13143 99.310303 997.54069 98.895443 997.6664C97.444023 998.10628 98.019183 999.00737 100.43711 1000.0817C102.63367 1001.0577 102.72657 1001.1457 102.58411 1002.1165C102.44916 1003.0358 102.29206 1003.1508 100.91185 1003.34C100.07402 1003.4548 98.896353 1003.5488 98.294793 1003.5488C97.386463 1003.5488 97.142983 1003.7154 96.858254 1004.5322C96.537673 1005.4518 96.622506 1005.6156 98.166393 1007.0599C99.938303 1008.7172 100.06677 1009.0573 99.302703 1010.0676C98.815423 1010.7118 98.780643 1010.7106 96.463404 1009.9644C93.089461 1008.8777 92.777102 1009.2789 94.436912 1012.5669C94.436912 1012.5669 95.425855 1014.5261 95.425855 1014.5261C95.425855 1014.5261 94.619685 1015.2834 94.619685 1015.2834C94.619685 1015.2834 93.813515 1016.0407 93.813515 1016.0407C93.813515 1016.0407 91.753946 1014.5102 91.753946 1014.5102C89.935786 1013.1592 89.599447 1013.0231 88.884506 1013.3489C88.38792 1013.5751 88.132006 1013.9231 88.222944 1014.2483C88.304544 1014.5403 88.468039 1015.6849 88.586342 1016.7919C88.586342 1016.7919 88.801445 1018.8049 88.801445 1018.8049C88.801445 1018.8049 87.761736 1019.1973 87.761736 1019.1973C86.724127 1019.5891 86.719272 1019.5855 85.361708 1017.4359C84.353344 1015.8392 83.808193 1015.2819 83.254662 1015.2819C82.601576 1015.2819 82.433602 1015.5972 81.915205 1017.7962C81.32258 1020.31 81.322263 1020.3104 80.193517 1020.3104C79.175344 1020.3104 79.029813 1020.1869 78.710619 1019.0533C78.710619 1019.0533 78.710619 1019.0531 78.710619 1019.0531M85.788027 1009.7731C88.517657 1008.4231 90.946748 1005.9651 92.204555 1003.2804C93.14362 1001.2761 93.25589 1000.7096 93.247534 998.01731C93.241096085 995.91680021 93.0274618774 994.344189655 92.45786381 992.936430403C91.878164496 991.503705962 90.9297640542 990.241731611 89.455839 988.7678C88.0171300989 987.329095605 86.7655018336 986.39093443 85.3618861387 985.81354278C83.9623765843 985.237840232 82.4117675483 985.020799504 80.373958 985.02387C78.3347374434 985.026360234 76.7837535709 985.245309423 75.3870193213 985.817972708C73.9793302932 986.395127469 72.7283199785 987.331566543 71.292081 988.7678C69.8181529194 990.241731611 68.8697929561 991.503705962 68.2901134628 992.936430403C67.7205348706 994.344189655 67.5069001943 995.91680021 67.500381 998.01731C67.491981 1000.6958 67.606178 1001.2789 68.517158 1003.2134C69.553088 1005.4132 71.871297 1007.9992 73.929242 1009.2507C75.5274442466 1010.2226252 77.6536312552 1010.76726796 79.7989089546 1010.86221118C81.9462826752 1010.95724715 84.1127844097 1010.60170439 85.788027 1009.7731C85.788027 1009.7731 85.788027 1009.7731 85.788027 1009.7731M78.139753 1004.9288C75.7362866409 1003.97491599 74.1289472442 1002.12021483 73.4984826589 999.979456363C72.8674020847 997.83660629 73.215106145 995.407139656 74.722873 993.30762C76.134142 991.34246 77.960777 990.47461 80.685859 990.47461C83.1520144595 990.47461 85.223031037 991.498163631 86.5602247497 993.13333901C87.8896062304 994.75896127 88.493714166 996.989079648 88.039766 999.41894C87.712951 1001.1683 87.189507 1002.1021 85.827954 1003.3646C83.81738 1005.2289 80.563754 1005.8909 78.139753 1004.9288C78.139753 1004.9288 78.139753 1004.9288 78.139753 1004.9288"
       style="fill:#000000" />
  </g>
  <g
     style="display:none"
     transform="translate(-1.1635727,-877.69461)"
     id="g4205"
     inkscape:groupmode="layer"
     inkscape:label="Mask">
    <path
       transform="translate(1.1635727,877.6946)"
       inkscape:connector-curvature="0"
       id="path4209"
       d="M 101.43333,209.24901 C 91.295791,207.07169 76.563211,199.97004 65.825457,192.08468 55.740708,184.67886 47.565342,171.95109 43.777229,157.75903 c -0.593181,-2.22233 -1.148673,-4.12463 -1.234427,-4.22732 -0.08575,-0.10269 -1.280192,0.63858 -2.654307,1.64727 -2.752242,2.02034 -6.389214,2.97899 -8.741924,2.30423 -6.31778,-1.81191 -12.476266,-10.31041 -16.636429,-22.95769 -1.623319,-4.93504 -1.662023,-5.25906 -1.689238,-14.14213 -0.02585,-8.43802 0.05851,-9.30573 1.173937,-12.07409 1.594236,-3.95673 5.564828,-8.07616 8.547708,-8.868138 1.232852,-0.32733 3.162082,-0.429021 4.45653,-0.234906 9.202908,1.380064 13.287582,12.821684 13.311273,37.286334 l 0.0088,9.03815 3.409265,-0.32199 c 1.875095,-0.17709 4.232204,-0.3236 5.23802,-0.32557 l 1.828755,-0.004 0.265399,-15.5311 c 0.294667,-17.24382 0.539043,-18.88204 3.719517,-24.93449 3.33759,-6.35145 8.903781,-10.528983 16.37541,-12.290057 4.325549,-1.019539 12.29546,-0.982748 20.681414,0.09547 5.150899,0.662275 10.524368,0.875755 21.970818,0.872869 15.95105,-0.004 20.87967,-0.49368 28.28427,-2.810045 1.66676,-0.521405 3.30442,-0.950942 3.63927,-0.954526 0.96259,-0.0103 0.36036,52.100079 -0.67948,58.795279 -2.04661,13.17739 -11.97362,38.12442 -19.86632,49.92498 -2.93762,4.39212 -8.37823,9.68439 -11.33754,11.02844 -2.49219,1.13189 -7.6164,1.20313 -12.41457,0.1726 z M 34.293953,141.41728 c -0.246447,-0.45696 -1.037166,-1.38185 -1.757153,-2.0553 -1.438207,-1.34526 -1.621913,-2.69257 -0.614758,-4.50866 0.567453,-1.02322 0.495691,-1.636 -0.518941,-4.43128 -0.647601,-1.78412 -1.623572,-5.72137 -2.168823,-8.74944 -0.545252,-3.02807 -1.314569,-6.26153 -1.709594,-7.18547 -1.712646,-4.00577 -6.064125,-6.06966 -8.320701,-3.94647 -0.640536,0.60267 -1.086396,1.47284 -0.990801,1.93371 0.170962,0.82423 0.49256,0.84764 3.461473,0.25203 2.048703,-0.411 3.753662,2.02197 4.744325,6.77012 1.099281,5.26875 2.251147,9.63802 3.053018,11.58073 0.552169,1.33776 0.545885,1.75497 -0.03804,2.52539 -0.978547,1.29107 -0.905019,4.98691 0.13066,6.56756 1.224044,1.86813 3.704613,3.30025 4.529932,2.6153 0.424444,-0.35226 0.493133,-0.82357 0.199402,-1.36822 z m 46.587262,-0.93003 c 0.380408,-1.30462 0.920481,-2.44831 1.200167,-2.54153 0.279681,-0.0932 1.12433,0.76105 1.877,1.89841 1.018607,1.53922 1.651872,2.0276 2.476919,1.91019 0.977408,-0.13908 1.108435,-0.46543 1.108435,-2.76073 0,-1.43165 0.165842,-2.7718 0.368539,-2.9781 0.202697,-0.20631 1.302471,0.24295 2.443943,0.99834 3.285814,2.17444 4.826509,0.84745 3.052782,-2.62934 -0.563069,-1.1037 -0.899091,-2.1314 -0.746725,-2.28377 0.152367,-0.15237 1.335871,0.0443 2.630008,0.43707 1.294142,0.39276 2.401804,0.71657 2.461479,0.71957 0.05967,0.003 0.364792,-0.47342 0.67804,-1.05873 0.488247,-0.91229 0.337057,-1.30406 -1.059196,-2.74463 -2.115234,-2.18236 -1.738371,-3.06452 1.49941,-3.50983 2.264234,-0.31141 2.561314,-0.49204 2.561314,-1.5573 0,-0.89737 -0.51581,-1.46818 -2.020301,-2.23572 -1.111168,-0.56687 -2.019452,-1.19652 -2.018411,-1.39922 0.001,-0.2027 1.036017,-0.79385 2.299945,-1.31367 1.830537,-0.75284 2.266857,-1.16348 2.144677,-2.01845 -0.11994,-0.8394 -0.696,-1.18807 -2.643182,-1.59982 -1.369398,-0.28958 -2.571222,-0.77073 -2.670722,-1.06922 -0.09949,-0.29849 0.623173,-1.2487 1.605935,-2.11157 3.033679,-2.66361 2.099549,-4.40326 -1.875903,-3.49355 -1.318179,0.30165 -2.525947,0.41919 -2.68393,0.2612 -0.157983,-0.15798 0.283504,-1.41355 0.98108,-2.79015 0.951927,-1.87854 1.124194,-2.64704 0.690561,-3.08068 -0.837013,-0.83701 -1.966697,-0.69361 -3.406194,0.43239 -0.69448,0.54323 -1.676793,0.99274 -2.18292,0.99892 -0.819476,0.01 -0.882919,-0.28737 -0.579459,-2.71619 0.316279,-2.531375 0.258887,-2.753399 -0.79846,-3.088988 -0.923744,-0.293185 -1.450099,0.0078 -2.782748,1.590998 -0.903935,1.07391 -1.835154,1.7663 -2.069383,1.53863 -0.234224,-0.22767 -0.662751,-1.36409 -0.952281,-2.525382 -0.431179,-1.729467 -0.763564,-2.139366 -1.837316,-2.265789 -1.147382,-0.135091 -1.396738,0.116381 -1.998971,2.01596 -0.904076,2.851661 -1.958882,2.984771 -3.395592,0.428484 -1.177702,-2.095439 -1.438361,-2.256179 -2.806997,-1.730985 -0.591858,0.227116 -0.798924,1.012562 -0.798924,3.030462 0,3.20965 -0.747114,3.51842 -3.535534,1.46119 -1.974035,-1.4564 -1.974778,-1.45652 -3.190431,-0.53496 -0.883105,0.66947 -0.878363,0.7725 0.126269,2.74174 1.433725,2.81033 1.356297,3.28788 -0.471372,2.90711 -0.833376,-0.17362 -2.164833,-0.45127 -2.958789,-0.61701 -2.207342,-0.46077 -2.459612,1.3627 -0.497661,3.59724 1.7262,1.96604 1.539195,2.76502 -0.647173,2.76502 -3.77852,0 -4.673808,2.33533 -1.452216,3.78807 2.789534,1.2579 2.693558,2.52523 -0.288025,3.80328 -1.884437,0.80777 -2.278627,1.1981 -2.146575,2.12558 0.134845,0.9471 0.602917,1.20605 2.813407,1.55649 3.175213,0.50338 3.35109,1.19947 0.816759,3.23258 -1.663237,1.3343 -1.777004,1.58016 -1.216116,2.62819 0.638076,1.19226 0.979586,1.20938 4.832694,0.24231 1.274858,-0.31997 1.370939,-0.24625 1.120254,0.85948 -0.15081,0.6652 -0.574034,1.94731 -0.940502,2.84914 -0.581469,1.43091 -0.558978,1.747 0.17662,2.4826 0.787177,0.78717 0.981126,0.75146 2.932796,-0.5401 2.840665,-1.87986 3.407346,-1.54389 3.125639,1.85312 -0.204813,2.46978 -0.119496,2.77953 0.834311,3.02896 0.805743,0.21071 1.439816,-0.19862 2.624255,-1.6941 1.532856,-1.93539 2.989405,-2.58736 2.994971,-1.3406 0.0015,0.34724 0.239517,1.48366 0.528815,2.52538 0.422885,1.52274 0.765882,1.89404 1.749665,1.89404 1.022956,0 1.337118,-0.38907 1.91532,-2.37203 z"
       style="fill:#800080;fill-opacity:1;stroke:#e8b913;stroke-width:0.50507629;stroke-linecap:round;stroke-linejoin:round;stroke-miterlimit:4;stroke-dasharray:none;stroke-opacity:1" />
    <path
       transform="translate(1.1635727,877.6946)"
       inkscape:connector-curvature="0"
       id="path4211"
       d="m 73.902345,131.8158 c -2.287158,-1.03904 -4.804574,-3.68503 -6.306021,-6.62811 -2.378682,-4.6626 -0.563888,-11.56316 3.945583,-15.00265 8.40268,-6.40894 20.2436,-0.51946 20.283885,10.08887 0.01857,4.88969 -3.321751,9.8803 -7.890904,11.78941 -2.376828,0.99311 -7.584451,0.86462 -10.032543,-0.24752 z m 9.904896,-5.2553 c 4.834634,-3.22974 4.407931,-10.73864 -0.749307,-13.18591 -5.35479,-2.54102 -11.113284,0.96783 -11.113284,6.7717 0,2.70705 1.2884,5.11214 3.530301,6.59011 2.10854,1.39004 6.114816,1.30547 8.33229,-0.1759 z"
       style="fill:#800080;fill-opacity:1;stroke:#e8b913;stroke-width:0.50507629;stroke-linecap:round;stroke-linejoin:round;stroke-miterlimit:4;stroke-dasharray:none;stroke-opacity:1" />
  </g>
  <g
     style="display:none"
     transform="translate(-1.1635727,-877.69461)"
     id="g4149"
     inkscape:groupmode="layer"
     inkscape:label="Edge.Cuts">
    <path
       inkscape:connector-curvature="0"
       id="path4151"
       d="m 103.6725,1089.8518 c -2.65952,-0.5763 -5.187797,-1.2259 -7.648855,-1.9713 -2.530626,-0.7664 -4.990175,-1.6341 -7.44824,-2.6277 -2.378945,-0.9615 -4.7565,-2.041 -7.195753,-3.2605 -3.27265,-1.6362 -6.02572,-3.1301 -8.346162,-4.5377 -3.331971,-2.0212 -5.771921,-3.8643 -7.577288,-5.6949 -1.106261,-1.1216 -2.516692,-2.3916 -3.134285,-2.822 -1.553477,-1.0828 -3.373806,-2.8226 -5.218149,-4.9488 -1.481402,-1.7077 -2.978296,-3.6647 -4.364846,-5.7306 -1.456605,-2.1703 -2.784166,-4.347 -3.974406,-6.5127 -1.268418,-2.3079 -2.380884,-4.6032 -3.32738,-6.865 -1.026455,-2.4528 -1.857714,-4.8661 -2.481002,-7.2129 -0.531057,-1.9996 -0.657117,-2.2005 -1.118612,-1.783 -0.286057,0.259 -1.349309,0.858 -2.362782,1.3312 -1.729693,0.8079 -2.058515,0.8481 -5.362602,0.655 -3.963325,-0.2313 -4.338115,-0.3851 -7.890707,-3.2363 -1.512414,-1.2138 -2.804627,-2.4481 -3.995562,-3.8404 -1.13085,-1.3221 -2.170385,-2.7867 -3.22042,-4.5116 -1.348399,-2.2151 -2.441037,-4.2288 -3.375472,-6.2993 -0.94381,-2.0913 -1.726227,-4.2405 -2.447777,-6.7135 -0.596091,-2.043 -1.150641,-4.307 -1.720328,-6.9419 -0.643077,-2.9744 -0.91663,-5.904 -0.815985,-9.02905 0.08981,-2.78862 0.477591,-5.73282 1.166662,-9.00322 0.194663,-0.92387 0.08087,-1.08634 -1.399212,-1.99693 -0.8861013,-0.54519 -2.6430623,-1.97832 -3.9043438,-3.1847 -2.057818,-1.96826 -3.4443806,-4.12063 -4.1899159,-6.33241 -0.8420055,-2.49798 -0.8663562,-5.07174 -0.1165982,-7.54165 0.6923493,-2.28079 2.0447994,-4.47303 4.0230607,-6.43527 1.6561672,-1.64275 3.7509502,-3.12429 6.2642292,-4.36164 1.370604,-0.67479 3.180945,-1.37773 5.010354,-1.97259 1.867314,-0.60718 3.754494,-1.10175 5.214175,-1.33881 0,0 1.173308,-0.19056 1.173308,-0.19056 0,0 0.07464,-5.95079 0.07464,-5.95079 0.04176,-3.33035 0.198251,-6.54974 0.468675,-9.6563 0.289422,-3.32481 0.709351,-6.52039 1.258817,-9.58447 0.589641,-3.28811 1.328455,-6.42478 2.215243,-9.40722 0.950859,-3.19792 2.071848,-6.2185 3.36149,-9.0583 1.372132,-3.02143 2.935183,-5.83821 4.687373,-8.44616 1.829288,-2.72271 3.864725,-5.2178 6.104289,-7.48056 2.269285,-2.29278 4.748151,-4.34701 7.434492,-6.15775 2.495139,-1.68186 5.051662,-3.14442 7.732387,-4.40768 2.633174,-1.24085 5.386184,-2.28941 8.318564,-3.16464 2.721455,-0.81227 5.597404,-1.47525 8.675437,-2.0041 2.770336,-0.47598 5.704373,-0.8433 8.836807,-1.11301 2.433256,-0.20952 4.734736,-0.31628 7.004786,-0.31548 2.331345,8.3e-4 4.629538,0.1151 7.003276,0.34801 2.219002,0.21773 4.504018,0.53913 6.943848,0.96844 3.2847,0.57798 6.43384,1.37547 9.43097,2.38518 3.14687,1.06016 6.12616,2.35428 8.91883,3.87393 2.89261,1.57403 5.58501,3.39002 8.05604,5.4386 2.34185,1.94149 6.07353,5.86075 6.7755,7.11611 1.03783,1.85594 3.14084,4.59672 3.36904,4.39078 0.14568,-0.13144 0.16596,-0.0661 0.0451,0.14552 -0.12081,0.21148 0.38444,1.4183 1.12293,2.68184 1.26927,2.17162 2.46778,4.76399 3.55331,7.64838 0.9382,2.4929 1.79201,5.20392 2.53421,8.04999 0.69279,2.65665 1.28834,5.43095 1.76447,8.25534 0.54737,3.24703 0.92832,6.13138 1.20807,9.35533 0.2385,2.74859 0.40343,5.74402 0.53521,9.42146 0,0 0.22358,6.23971 0.22358,6.23971 0,0 3.14904,0.22134 3.14904,0.22134 2.52568,0.17754 4.7809,0.51625 6.76235,1.01517 2.53373,0.63797 4.61981,1.53792 6.25131,2.69787 0.8914,0.63378 1.78269,1.06024 1.9806,0.94771 0.19797,-0.11247 0.24947,-0.0825 0.11456,0.0667 -0.13492,0.14916 0.25137,0.82105 0.85849,1.49307 1.0666,1.1806 1.98414,2.88034 2.62148,4.72926 0.60282,1.74878 0.95497,3.63102 0.94548,5.33367 -0.0196,3.51686 -0.56879,6.65167 -1.65223,9.41101 -1.19122,3.03382 -3.02827,5.61376 -5.51737,7.7486 -2.24412,1.92471 -5.01826,3.48762 -8.32697,4.69515 -1.47916,0.53981 -3.46024,1.13358 -4.40242,1.31948 -0.94214,0.18593 -2.39186,0.48739 -3.22156,0.66994 0,0 -1.50854,0.33194 -1.50854,0.33194 0,0 0.024,2.57382 0.048,5.14766 0.024,2.5738 0.0481,5.1476 0.0481,5.1476 0.0332,3.5475 0.0491,6.0949 -7.4e-4,8.277 -0.0662,2.8979 -0.24869,5.1514 -0.66147,8.2474 -0.28717,2.1539 -0.68584,4.7156 -1.23443,8.1857 -0.17487,1.1062 -0.77881,3.7463 -1.34204,5.8666 -0.614,2.3116 -1.10564,3.9467 -2.26231,7.2562 -0.62208,1.78 -1.43653,4.0442 -2.56584,7.1585 -0.63272,1.7451 -1.40299,3.5644 -2.53642,5.9464 -0.77002,1.6183 -1.70766,3.4962 -2.88366,5.787 -0.61521,1.1984 -1.22019,2.6587 -1.34439,3.2452 -0.12419,0.5865 -0.42724,1.2335 -0.67347,1.4378 -0.24626,0.2045 -0.7878,1.2331 -1.20343,2.286 -0.881,2.2319 -2.54653,5.1127 -4.59542,7.9486 -0.79921,1.1064 -1.97846,2.8034 -2.62051,3.7714 -0.64205,0.9679 -1.29288,1.7601 -1.44625,1.7601 -0.1534,0 -1.46193,1.1266 -2.9079,2.504 -1.82509,1.7384 -3.64284,3.0579 -5.47751,3.9696 -2.14564,1.0662 -4.31442,1.5746 -6.54514,1.543 -1.11888,-0.015 -3.69374,-0.3885 -5.72186,-0.828 0,0 -2e-5,-10e-5 -2e-5,-10e-5"
       style="fill:none;fill-opacity:1;stroke:#e8b913;stroke-width:1;stroke-miterlimit:4;stroke-dasharray:none;stroke-opacity:1"
       sodipodi:nodetypes="csccsscccsssscssscsssssccccsscscccssscccssccscccccscccc" />
  </g>
</svg>
