<?xml version="1.0" encoding="UTF-8" standalone="no"?>
<!-- Created with Inkscape (http://www.inkscape.org/) -->

<svg
   xmlns:dc="http://purl.org/dc/elements/1.1/"
   xmlns:cc="http://creativecommons.org/ns#"
   xmlns:rdf="http://www.w3.org/1999/02/22-rdf-syntax-ns#"
   xmlns:svg="http://www.w3.org/2000/svg"
   xmlns="http://www.w3.org/2000/svg"
   xmlns:sodipodi="http://sodipodi.sourceforge.net/DTD/sodipodi-0.dtd"
   xmlns:inkscape="http://www.inkscape.org/namespaces/inkscape"
   sodipodi:docname="Base1.svg"
   inkscape:version="0.91 r13725"
   version="1.1"
   id="svg2"
   viewBox="0 0 173.56491 213.48666"
   height="60.250683mm"
   width="48.983875mm">
  <sodipodi:namedview
     inkscape:window-maximized="0"
     inkscape:window-y="37"
     inkscape:window-x="536"
     inkscape:window-height="997"
     inkscape:window-width="1376"
     fit-margin-bottom="0"
     fit-margin-right="0"
     fit-margin-left="0"
     fit-margin-top="0"
     showgrid="false"
     inkscape:current-layer="g6087"
     inkscape:document-units="mm"
     inkscape:cy="82.254032"
     inkscape:cx="70.876916"
     inkscape:zoom="3.0762712"
     inkscape:pageshadow="2"
     inkscape:pageopacity="0.0"
     borderopacity="1.0"
     bordercolor="#666666"
     pagecolor="#ffffff"
     id="base" />
  <defs
     id="defs4" />
  <metadata
     id="metadata7">
    <rdf:RDF>
      <cc:Work
         rdf:about="">
        <dc:format>image/svg+xml</dc:format>
        <dc:type
           rdf:resource="http://purl.org/dc/dcmitype/StillImage" />
        <dc:title></dc:title>
      </cc:Work>
    </rdf:RDF>
  </metadata>
  <g
     style="display:none"
     transform="translate(-1.1635727,-877.69461)"
     id="layer1"
     inkscape:groupmode="layer"
     inkscape:label="Base">
    <path
       inkscape:connector-curvature="0"
       id="path4147"
       d="m 103.6725,1089.8518 c -8.040874,-1.7425 -14.88212,-4.1544 -22.292848,-7.8595 -7.971914,-3.9856 -12.860794,-7.1272 -15.92345,-10.2326 -1.106261,-1.1216 -2.516692,-2.3916 -3.134285,-2.822 -2.801251,-1.9525 -6.470193,-6.0414 -9.582995,-10.6794 -4.692296,-6.9914 -8.045454,-14.0491 -9.782788,-20.5906 -0.531057,-1.9996 -0.657117,-2.2005 -1.118612,-1.783 -0.286057,0.259 -1.349309,0.858 -2.362782,1.3312 -1.729693,0.8079 -2.058515,0.8481 -5.362602,0.655 -3.963325,-0.2313 -4.338115,-0.3851 -7.890707,-3.2363 -2.948524,-2.3664 -5.06012,-4.8105 -7.215982,-8.352 -3.835446,-6.3007 -5.601562,-10.9724 -7.543577,-19.9547 -1.21693,-5.6286 -1.110589,-11.09695 0.350677,-18.03227 0.194663,-0.92387 0.08087,-1.08634 -1.399212,-1.99693 -0.8861013,-0.54519 -2.6430623,-1.97832 -3.9043438,-3.1847 -8.324763,-7.96247 -5.66408188,-18.93793 5.9807758,-24.67097 2.769607,-1.36356 7.334798,-2.84209 10.224529,-3.3114 l 1.173308,-0.19056 0.07464,-5.95079 c 0.355586,-28.35626 9.028399,-48.6675 25.530379,-59.79076 9.267821,-6.24703 19.382516,-9.46843 33.563195,-10.68943 7.26827,-0.62586 13.360776,-0.33477 20.95191,1.00097 10.30574,1.8134 19.27701,5.78764 26.40584,11.69771 2.34185,1.94149 6.07353,5.86075 6.7755,7.11611 1.03783,1.85594 3.14084,4.59672 3.36904,4.39078 0.14568,-0.13144 0.16596,-0.0661 0.0451,0.14552 -0.12081,0.21148 0.38444,1.4183 1.12293,2.68184 3.39025,5.80043 6.27558,14.60259 7.85199,23.95371 1.01403,6.0153 1.45694,10.78592 1.74328,18.77679 l 0.22358,6.23971 3.14904,0.22134 c 5.75531,0.40457 10.10627,1.64598 13.01366,3.71304 0.8914,0.63378 1.78269,1.06024 1.9806,0.94771 0.19797,-0.11247 0.24947,-0.0825 0.11456,0.0667 -0.13492,0.14916 0.25137,0.82105 0.85849,1.49307 2.07544,2.29727 3.58649,6.56014 3.56696,10.06293 -0.0606,10.8697 -5.18008,18.08972 -15.49657,21.85476 -1.47916,0.53981 -3.46024,1.13358 -4.40242,1.31948 -0.94214,0.18593 -2.39186,0.48739 -3.22156,0.66994 l -1.50854,0.33194 0.0961,10.29526 c 0.1078,11.5368 0.0342,12.4965 -1.89664,24.7101 -0.17487,1.1062 -0.77881,3.7463 -1.34204,5.8666 -0.94423,3.5548 -1.59908,5.5099 -4.82815,14.4147 -1.06258,2.9307 -2.51309,6.0707 -5.42008,11.7334 -0.61521,1.1984 -1.22019,2.6587 -1.34439,3.2452 -0.12419,0.5865 -0.42724,1.2335 -0.67347,1.4378 -0.24626,0.2045 -0.7878,1.2331 -1.20343,2.286 -0.881,2.2319 -2.54653,5.1127 -4.59542,7.9486 -0.79921,1.1064 -1.97846,2.8034 -2.62051,3.7714 -0.64205,0.9679 -1.29288,1.7601 -1.44625,1.7601 -0.1534,0 -1.46193,1.1266 -2.9079,2.504 -3.95951,3.7715 -7.8845,5.5712 -12.02265,5.5126 -1.11888,-0.015 -3.69374,-0.3885 -5.72186,-0.828 z m 9.96539,-2.1758 c 3.04957,-0.8469 7.91282,-4.9798 11.81599,-10.0414 2.45342,-3.1815 8.30348,-14.2244 11.80996,-22.2929 2.87995,-6.6269 7.33169,-19.8088 8.43888,-24.9879 1.67223,-7.8225 1.79236,-9.9424 1.73744,-30.66035 -0.0282,-10.69383 0.11479,-22.51493 0.31801,-26.26905 0.20323,-3.75417 0.29532,-6.89994 0.20459,-6.99066 -0.0907,-0.0907 -1.3436,0.22455 -2.78423,0.70058 -7.79901,2.57711 -14.8571,3.57841 -26.7559,3.79576 -9.94624,0.18168 -18.493077,-0.29782 -26.536868,-1.48877 -2.826078,-0.41843 -5.899927,-0.58033 -10.673725,-0.56212 -6.099226,0.0231 -6.994859,0.10338 -9.919124,0.8882 -8.536327,2.29076 -14.161094,7.32684 -17.062405,15.27665 -2.029579,5.56113 -2.139592,6.6294 -2.337276,22.69496 l -0.181487,14.7501 -4.944644,0.093 -4.944655,0.093 -0.0021,-6.9648 c -0.0031,-13.699 -0.979787,-22.66109 -3.123275,-28.65836 -2.576109,-7.20763 -6.304805,-10.42626 -12.128162,-10.46913 -2.322254,-0.017 -2.941133,0.11166 -4.615589,0.96008 -3.677124,1.8632 -6.295947,5.44439 -7.703193,10.53397 -0.613431,2.21859 -0.711095,3.49607 -0.721558,9.43812 -0.01378,7.81452 0.311097,9.95832 2.512641,16.58042 3.541494,10.6528 8.360435,17.6016 14.212529,20.494 2.32253,1.1477 2.65623,1.2221 4.802631,1.0683 2.581283,-0.1845 4.737747,-1.1641 6.876378,-3.1233 0.697065,-0.6386 1.379141,-1.1612 1.51573,-1.1612 0.136585,0 0.515758,1.1693 0.842596,2.5982 2.905207,12.7016 10.371686,25.7781 19.01368,33.2999 8.201426,7.1385 24.198904,15.7799 35.003503,18.9078 5.728153,1.6587 12.401853,2.3104 15.329073,1.4974 z m -80.385756,-67.6598 c -0.565197,-0.3446 -1.545745,-1.2808 -2.179003,-2.0803 -1.002548,-1.2659 -1.15137,-1.6972 -1.15137,-3.3372 0,-1.52 0.171087,-2.1077 0.886598,-3.0459 0.804642,-1.0548 0.843979,-1.2383 0.425589,-1.9852 -0.945466,-1.6877 -2.453551,-6.9949 -2.963463,-10.42889 -0.789948,-5.32003 -1.662082,-7.31465 -3.820826,-8.73834 -1.184448,-0.78118 -2.119799,-0.75006 -3.209021,0.10683 -0.719829,0.56622 -0.989424,0.62344 -1.38614,0.2942 -0.75207,-0.62419 -0.595056,-1.30278 0.548641,-2.37118 1.717637,-1.6045 4.105871,-1.1561 6.387725,1.19933 1.583749,1.63484 2.551045,4.20845 3.152633,8.38789 0.652778,4.53516 1.734451,9.00106 2.719866,11.22956 l 0.814999,1.8433 -0.731831,1.5624 c -1.064719,2.2731 -0.731525,3.5752 1.367983,5.3454 1.383174,1.1663 1.596797,1.4942 1.315535,2.02 -0.422021,0.7887 -0.882589,0.7883 -2.177915,0 z m 45.458485,-0.9631 c -0.194653,-0.6915 -0.444963,-1.8082 -0.556244,-2.4818 -0.167774,-1.0154 -0.359671,-1.2476 -1.123954,-1.3598 -0.822307,-0.1207 -1.061426,0.093 -2.218423,1.9852 -0.93472,1.5284 -1.439065,2.0613 -1.806368,1.9083 -0.280272,-0.1164 -0.772856,-0.2875 -1.094628,-0.38 -0.497632,-0.1431 -0.557067,-0.4506 -0.397845,-2.0573 0.10294,-1.0388 0.249983,-2.2045 0.326711,-2.5902 0.09703,-0.4874 -0.112009,-0.8358 -0.685115,-1.1426 -0.758096,-0.4057 -0.98933,-0.3258 -2.865132,0.99 l -2.040472,1.4312 -0.798394,-0.75 -0.798403,-0.75 1.122676,-2.2294 c 1.002663,-1.9909 1.071834,-2.2988 0.647089,-2.8797 -0.4631,-0.6334 -0.534908,-0.6352 -2.732143,-0.072 -2.805485,0.719 -2.570863,0.7428 -3.274465,-0.3311 l -0.592192,-0.9038 1.93621,-1.718 c 1.559268,-1.3835 1.89263,-1.8553 1.712325,-2.4234 -0.188054,-0.5925 -0.583671,-0.7401 -2.472078,-0.9219 -2.999316,-0.2889 -3.086263,-0.3303 -3.086263,-1.4698 0,-0.91027 0.181404,-1.05772 2.346618,-1.90719 2.23086,-0.87527 2.346609,-0.97408 2.346609,-2.00331 0,-1.01398 -0.138147,-1.14134 -2.178992,-2.00871 -1.701462,-0.72314 -2.177875,-1.08036 -2.173872,-1.63006 0.0095,-1.27783 0.493028,-1.56662 2.972032,-1.77445 1.928366,-0.16167 2.487208,-0.33504 2.767372,-0.85853 0.294397,-0.55009 0.143188,-0.85689 -0.936774,-1.90072 -2.131655,-2.06033 -2.226099,-2.22615 -1.768542,-3.10487 0.222154,-0.42664 0.442946,-0.82261 0.490652,-0.87995 0.04771,-0.0573 1.172212,0.22548 2.498875,0.62844 2.226499,0.67628 2.454046,0.69075 2.956831,0.18797 0.502783,-0.50279 0.459309,-0.71789 -0.565019,-2.79512 l -1.109723,-2.25039 0.739718,-0.59897 c 0.40685,-0.32945 0.847568,-0.59901 0.979395,-0.59901 0.131813,0 1.129718,0.66582 2.217537,1.47959 1.808436,1.35284 2.047703,1.44301 2.793141,1.05244 0.766577,-0.40165 0.81082,-0.58023 0.74052,-2.9881 -0.07357,-2.52103 -0.06028,-2.56646 0.859023,-2.91598 1.057509,-0.40205 1.189368,-0.28394 2.735311,2.44985 0.71188,1.25884 1.082393,1.59205 1.770485,1.59233 0.795206,2.7e-4 0.933705,-0.21812 1.606616,-2.53405 0.732686,-2.5216 0.741839,-2.5339 1.811636,-2.43044 1.049864,0.1016 1.087353,0.1625 1.58927,2.58396 0.411476,1.98515 0.660116,2.53402 1.246134,2.7508 0.633215,0.23424 0.921245,10e-4 2.13256,-1.72572 0.77027,-1.09806 1.52238,-1.99651 1.671364,-1.99651 0.804474,0 1.972894,0.8358 1.835706,1.31311 -0.08394,0.29186 -0.25524,1.40574 -0.380809,2.47529 -0.195127,1.66219 -0.138947,2.00994 0.386795,2.39437 0.540376,0.39514 0.848402,0.2913 2.536578,-0.85512 1.056848,-0.71768 2.010538,-1.30489 2.119323,-1.30489 0.108773,0 0.572051,0.24522 1.029432,0.5449 l 0.831619,0.54489 -1.178645,2.10761 c -1.936302,3.46243 -1.574805,4.04994 1.936206,3.14684 1.31498,-0.33824 2.4046,-0.5841 2.42133,-0.54635 0.0168,0.0377 0.284377,0.47498 0.594747,0.97161 l 0.56433,0.90291 -1.958597,1.70353 c -1.55808,1.35518 -1.92807,1.86327 -1.80931,2.48467 0.13448,0.7034 0.4049,0.81096 2.717577,1.08108 2.55317,0.29816 2.56881,0.30603 2.66961,1.34056 0.0933,0.95688 -0.0281,1.09547 -1.5085,1.72159 -0.88548,0.37453 -1.949377,0.78379 -2.364237,0.9095 -1.45142,0.43988 -0.87626,1.34097 1.541667,2.4153 2.19656,0.976 2.28946,1.064 2.147,2.0348 -0.13495,0.9193 -0.29205,1.0343 -1.67226,1.2235 -0.83783,0.1148 -2.015497,0.2088 -2.617057,0.2088 -0.90833,0 -1.15181,0.1666 -1.436539,0.9834 -0.320581,0.9196 -0.235748,1.0834 1.308139,2.5277 1.77191,1.6573 1.900377,1.9974 1.13631,3.0077 -0.48728,0.6442 -0.52206,0.643 -2.839299,-0.1032 -3.373943,-1.0867 -3.686302,-0.6855 -2.026492,2.6025 l 0.988943,1.9592 -0.80617,0.7573 -0.80617,0.7573 -2.059569,-1.5305 c -1.81816,-1.351 -2.154499,-1.4871 -2.86944,-1.1613 -0.496586,0.2262 -0.7525,0.5742 -0.661562,0.8994 0.0816,0.292 0.245095,1.4366 0.363398,2.5436 l 0.215103,2.013 -1.039709,0.3924 c -1.037609,0.3918 -1.042464,0.3882 -2.400028,-1.7614 -1.008364,-1.5967 -1.553515,-2.154 -2.107046,-2.154 -0.653086,0 -0.82106,0.3153 -1.339457,2.5143 -0.592625,2.5138 -0.592942,2.5142 -1.721688,2.5142 -1.018173,0 -1.163704,-0.1235 -1.482898,-1.2571 z m 7.077408,-9.28 c 2.72963,-1.35 5.158721,-3.808 6.416528,-6.4927 0.939065,-2.0043 1.051335,-2.5708 1.042979,-5.26309 -0.01299,-4.23827 -0.869528,-6.32733 -3.791695,-9.24951 -2.873209,-2.8732 -5.000283,-3.75008 -9.081881,-3.74393 -4.094435,0.005 -6.220576,0.88264 -9.081877,3.74393 -2.922173,2.92218 -3.778546,5.01124 -3.7917,9.24951 -0.0084,2.67849 0.105797,3.26159 1.016777,5.19609 1.03593,2.1998 3.354139,4.7858 5.412084,6.0373 3.197966,1.9448 8.509935,2.1788 11.858785,0.5224 z m -7.648274,-4.8443 c -4.809281,-1.9087 -6.430942,-7.42419 -3.41688,-11.62118 1.411269,-1.96516 3.237904,-2.83301 5.962986,-2.83301 4.917903,0 8.264471,4.07033 7.353907,8.94433 -0.326815,1.74936 -0.850259,2.68316 -2.211812,3.94566 -2.010574,1.8643 -5.2642,2.5263 -7.688201,1.5642 z"
       style="fill:#000000" />
  </g>
  <g
     inkscape:label="SilkS.1"
     inkscape:groupmode="layer"
     id="g4205"
     transform="translate(-1.1635727,-877.69461)"
     style="display:none">
    <path
       style="fill:#808000;fill-opacity:1;stroke:#e8b913;stroke-width:0.50507629;stroke-linecap:round;stroke-linejoin:round;stroke-miterlimit:4;stroke-dasharray:none;stroke-opacity:1"
       d="m 145.73047,89.328125 c -0.0837,8.9e-4 -0.24795,0.02725 -0.47461,0.07617 -0.22666,0.04892 -0.51589,0.120531 -0.8457,0.207031 -0.32981,0.0865 -0.7006,0.189087 -1.09375,0.302734 -0.39315,0.113648 -0.80792,0.236836 -1.22461,0.367188 -0.79766,0.249531 -1.56715,0.478689 -2.32422,0.6875 -0.75707,0.208811 -1.50172,0.396915 -2.25196,0.568359 -0.75022,0.171444 -1.50607,0.325462 -2.2832,0.462891 -0.77714,0.13743 -1.57627,0.258466 -2.41406,0.365234 -0.65388,0.08333 -1.32993,0.15814 -2.03906,0.22461 -0.70914,0.06647 -1.45004,0.124571 -2.23047,0.175781 -0.78043,0.0512 -1.60098,0.09527 -2.46875,0.132813 -0.86778,0.03753 -1.78275,0.07024 -2.75391,0.0957 -0.67222,0.01762 -1.37135,0.03244 -2.09961,0.04492 -0.72826,0.01248 -1.48577,0.0214 -2.27539,0.0293 -0.78962,0.0079 -1.61245,0.01378 -2.46875,0.01758 -0.8563,0.0038 -1.74553,0.0056 -2.67383,0.0059 -0.69334,2e-4 -1.36555,-4.06e-4 -2.01562,-0.002 -0.65007,-0.0015 -1.27926,-0.0046 -1.88867,-0.0078 -0.60941,-0.0032 -1.19818,-0.0066 -1.76953,-0.01172 -0.57135,-0.0051 -1.12427,-0.01058 -1.66016,-0.01758 -0.7166,-0.0094 -1.40387,-0.02013 -2.0625,-0.0332 -0.65862,-0.01307 -1.28963,-0.02791 -1.89649,-0.04492 -0.60684,-0.01701 -1.18867,-0.03738 -1.75,-0.05859 -0.5613,-0.02121 -1.101045,-0.04466 -1.623042,-0.07031 -0.698768,-0.03434 -1.366483,-0.07241 -2.007812,-0.115234 -0.641329,-0.04281 -1.256664,-0.08873 -1.855469,-0.140625 -0.598806,-0.05189 -1.180755,-0.110325 -1.751953,-0.171875 -0.571198,-0.06155 -1.1329,-0.127409 -1.691406,-0.199219 -0.588302,-0.07564 -1.17277,-0.145557 -1.75586,-0.210938 -0.58309,-0.06538 -1.164583,-0.12652 -1.740234,-0.18164 -0.575651,-0.05511 -1.146908,-0.105551 -1.712891,-0.150391 -0.565983,-0.04484 -1.125601,-0.08263 -1.679687,-0.117187 -0.616985,-0.03848 -1.226859,-0.07195 -1.826172,-0.09766 -0.599313,-0.02571 -1.189016,-0.04371 -1.767578,-0.05664 -0.578563,-0.01289 -1.144485,-0.0194 -1.699219,-0.01953 -0.554735,-1.3e-4 -1.097171,0.0049 -1.625,0.01758 -0.687384,0.01651 -1.350583,0.04376 -1.986328,0.08203 -0.635744,0.03827 -1.244959,0.08839 -1.822266,0.148437 -0.577307,0.06005 -1.122693,0.131021 -1.634765,0.212891 -0.512074,0.08187 -0.989648,0.173626 -1.429688,0.277344 -0.599729,0.141357 -1.188663,0.298334 -1.763672,0.470703 -0.575008,0.17237 -1.137546,0.361322 -1.6875,0.564453 -0.549955,0.203131 -1.086762,0.420655 -1.611328,0.654297 -0.524566,0.233642 -1.036313,0.482192 -1.535156,0.746094 -0.530248,0.280516 -1.04608,0.578165 -1.546875,0.892578 -0.500796,0.314414 -0.986092,0.646131 -1.457031,0.99414 -0.47094,0.348011 -0.926503,0.712447 -1.367188,1.09375 -0.440684,0.381305 -0.867317,0.779061 -1.277344,1.19336 -0.405657,0.409884 -0.796616,0.835455 -1.171875,1.277346 -0.375259,0.44189 -0.733653,0.90141 -1.078125,1.375 -0.344472,0.47359 -0.674985,0.96178 -0.988281,1.46679 -0.313296,0.50501 -0.610847,1.02636 -0.892578,1.5625 -0.384616,0.73193 -0.725275,1.39889 -1.029297,2.03711 -0.304021,0.63822 -0.570697,1.24795 -0.804688,1.86328 -0.233989,0.61533 -0.434855,1.23714 -0.609374,1.90039 -0.174524,0.66324 -0.323604,1.36647 -0.449219,2.14844 -0.08307,0.51714 -0.155183,1.06927 -0.220703,1.66406 -0.06552,0.59479 -0.122808,1.23286 -0.173828,1.92578 -0.05103,0.69295 -0.09714,1.44043 -0.136719,2.25196 -0.03959,0.81154 -0.07427,1.68805 -0.105469,2.63867 -0.01915,0.58358 -0.03581,1.19372 -0.05273,1.83594 -0.01692,0.64222 -0.03343,1.31587 -0.04883,2.02148 -0.01539,0.7056 -0.03034,1.44307 -0.04492,2.2168 -0.01458,0.77373 -0.0285,1.5831 -0.04297,2.42969 l -0.0332,1.9414 -0.0332,1.94141 -0.0332,1.94141 -0.0332,1.9414 -0.0332,1.94141 -0.0332,1.9414 -0.0332,1.94141 -0.0332,1.94141 -0.457031,0.002 -0.457032,0 -0.457031,0.002 -0.457031,0 c -0.251454,5e-4 -0.586796,0.0105 -0.978516,0.0273 -0.39172,0.0168 -0.839758,0.0408 -1.314453,0.0703 -0.474696,0.0296 -0.976182,0.0648 -1.476562,0.10351 -0.50038,0.0387 -0.999976,0.0807 -1.46875,0.125 l -0.851563,0.0801 -0.853515,0.0801 -0.851563,0.082 -0.853516,0.0801 -0.002,-2.25977 -0.002,-2.25976 -0.002,-2.25977 -0.002,-2.25976 c -7.4e-4,-0.75947 -0.0051,-1.50578 -0.01367,-2.24024 -0.0086,-0.73445 -0.02254,-1.45639 -0.03906,-2.16601 -0.01652,-0.70963 -0.03605,-1.40683 -0.06055,-2.0918 -0.0245,-0.68496 -0.05339,-1.3571 -0.08594,-2.01758 -0.0381,-0.77319 -0.08163,-1.52963 -0.130859,-2.26953 -0.04923,-0.73991 -0.103613,-1.46496 -0.164063,-2.17187 -0.06045,-0.7069 -0.12744,-1.39613 -0.199218,-2.07032 -0.07178,-0.67419 -0.149212,-1.33285 -0.232422,-1.97461 -0.102791,-0.79279 -0.213581,-1.5609 -0.333985,-2.30468 -0.120404,-0.74378 -0.250463,-1.46291 -0.388672,-2.15821 -0.138209,-0.69531 -0.285202,-1.3663 -0.441406,-2.01367 -0.156205,-0.64737 -0.321702,-1.27112 -0.496094,-1.87109 -0.233883,-0.80464 -0.483001,-1.5666 -0.75,-2.28711 -0.266998,-0.72052 -0.550987,-1.39943 -0.851562,-2.03711 -0.300575,-0.63768 -0.618513,-1.23489 -0.953125,-1.79102 -0.334613,-0.55614 -0.685577,-1.07098 -1.054688,-1.54687 -0.475215,-0.61269 -0.980398,-1.16046 -1.513672,-1.64258 -0.533273,-0.48212 -1.095181,-0.89959 -1.6875,-1.25391 -0.592317,-0.35431 -1.21484,-0.645729 -1.867187,-0.874994 C 28.394689,99.479638 27.71336,99.314006 27,99.207031 c -0.323612,-0.04853 -0.688154,-0.07915 -1.070312,-0.0918 -0.382161,-0.01265 -0.782531,-0.0074 -1.181641,0.01367 -0.39911,0.02104 -0.797414,0.05684 -1.171875,0.109375 -0.374461,0.05253 -0.72499,0.121295 -1.033203,0.203125 -0.398712,0.105861 -0.816215,0.271853 -1.242188,0.488282 -0.425973,0.216417 -0.861663,0.482657 -1.298828,0.792977 -0.437165,0.31032 -0.874351,0.66322 -1.306641,1.05078 -0.432287,0.38755 -0.858185,0.8097 -1.269531,1.25781 -0.358002,0.38999 -0.706353,0.80056 -1.037109,1.22461 -0.330756,0.42406 -0.644582,0.86146 -0.9375,1.30859 -0.292917,0.44712 -0.564108,0.90407 -0.808594,1.36328 -0.244486,0.4592 -0.462974,0.92056 -0.648437,1.38086 -0.189059,0.46922 -0.363182,0.9152 -0.523438,1.36524 -0.160256,0.45004 -0.306275,0.90485 -0.439453,1.39062 -0.133179,0.48577 -0.253501,1.00366 -0.361328,1.58008 -0.107827,0.57642 -0.202908,1.21161 -0.28711,1.93358 -0.02839,0.36586 -0.05629,0.73669 -0.08203,1.13086 -0.02573,0.39419 -0.04859,0.81172 -0.06836,1.26758 -0.01978,0.45586 -0.03637,0.95105 -0.04687,1.50196 -0.01046,0.5509 -0.01577,1.15663 -0.01367,1.83593 0.0026,0.84878 0.02489,1.61191 0.06055,2.30469 0.03566,0.69278 0.08498,1.31522 0.142578,1.88672 0.0576,0.57149 0.123006,1.09124 0.191406,1.57617 0.0684,0.48492 0.13895,0.93607 0.207032,1.36914 0.102482,0.6519 0.20108,1.2281 0.304687,1.77539 0.103606,0.5473 0.213109,1.0649 0.341797,1.59571 0.128687,0.53082 0.2754,1.07528 0.453125,1.67773 0.177726,0.60246 0.385998,1.26318 0.636719,2.02539 0.272762,0.82922 0.554326,1.64076 0.84375,2.43359 0.289424,0.79284 0.587528,1.56725 0.892578,2.32227 0.305049,0.75502 0.617861,1.49126 0.9375,2.20703 0.319638,0.71578 0.645324,1.41084 0.978515,2.08594 0.401138,0.81277 0.811344,1.59614 1.230469,2.34766 0.419126,0.75153 0.847899,1.47041 1.283203,2.1582 0.435304,0.68778 0.878451,1.34329 1.328125,1.96484 0.449674,0.62155 0.904953,1.21085 1.367188,1.76367 0.617787,0.73885 1.246363,1.41452 1.882812,2.02539 0.636449,0.61086 1.280849,1.1559 1.931641,1.63282 0.650792,0.47693 1.307935,0.88563 1.96875,1.22265 0.660816,0.33702 1.325667,0.60181 1.992187,0.79297 0.588177,0.16874 1.255884,0.23559 1.970704,0.20899 0.714818,-0.0266 1.476317,-0.14568 2.25,-0.34961 0.773679,-0.20393 1.559457,-0.49203 2.324218,-0.85547 0.764762,-0.36344 1.509204,-0.80156 2.197266,-1.30664 0.343529,-0.25217 0.675868,-0.48753 0.982422,-0.69727 0.306553,-0.20973 0.587579,-0.39369 0.828125,-0.54297 0.240547,-0.14929 0.440429,-0.26513 0.585937,-0.33593 0.145508,-0.0712 0.236373,-0.098 0.257813,-0.0723 0.02144,0.0257 0.07112,0.16507 0.144531,0.39258 0.07341,0.2275 0.171333,0.54268 0.283203,0.92578 0.11187,0.38311 0.238166,0.83371 0.375,1.32617 0.136833,0.49246 0.283346,1.02841 0.431641,1.58399 0.17945,0.6723 0.369482,1.34053 0.568359,2.00585 0.198878,0.66534 0.407221,1.32686 0.625,1.98438 0.217778,0.65752 0.443536,1.31204 0.679688,1.96094 0.236151,0.64889 0.48233,1.29218 0.736328,1.93164 0.257999,0.64953 0.524917,1.29466 0.800781,1.93359 0.275865,0.63893 0.560338,1.27096 0.853516,1.89844 0.293178,0.62747 0.594358,1.25007 0.904296,1.86523 0.309942,0.61516 0.628929,1.22419 0.955079,1.82618 0.334738,0.61784 0.678073,1.22899 1.029297,1.83203 0.351224,0.60305 0.709059,1.19783 1.076171,1.78515 0.367111,0.58732 0.742597,1.16566 1.125,1.73633 0.382403,0.57067 0.772825,1.13246 1.169922,1.68555 0.412307,0.57427 0.832273,1.13907 1.259766,1.69336 0.427493,0.5543 0.862676,1.09953 1.304687,1.63281 0.44201,0.53328 0.889845,1.05519 1.345704,1.56641 0.455857,0.51123 0.91963,1.01187 1.388671,1.5 0.492564,0.51261 0.991702,1.01208 1.498047,1.49804 0.506345,0.48596 1.019711,0.95791 1.539063,1.41602 0.519353,0.4581 1.044586,0.90102 1.576172,1.33008 0.531587,0.42905 1.070235,0.84339 1.613281,1.24218 0.64352,0.47257 1.300335,0.94215 1.970703,1.40821 0.670367,0.46605 1.353358,0.92897 2.046875,1.38672 0.693517,0.45775 1.398359,0.91171 2.111328,1.35937 0.712968,0.44767 1.433389,0.88842 2.16211,1.32422 0.710104,0.42466 1.426841,0.84414 2.148437,1.25586 0.721597,0.41172 1.448067,0.81576 2.177734,1.21289 0.729666,0.39713 1.462951,0.78708 2.197266,1.16797 0.734316,0.38089 1.471488,0.75419 2.207031,1.11719 0.76953,0.37977 1.537646,0.74908 2.304688,1.10742 0.767041,0.35835 1.532336,0.70598 2.292968,1.04101 0.760634,0.33503 1.517271,0.65697 2.267579,0.9668 0.750309,0.30982 1.494404,0.60594 2.230468,0.88867 0.8502,0.32657 1.690061,0.63612 2.515625,0.92383 0.825564,0.28771 1.636752,0.55484 2.431641,0.80078 0.794889,0.24593 1.571902,0.47063 2.330078,0.67188 0.757544,0.20108 1.498017,0.37767 2.212887,0.53125 0.52404,0.11251 1.05212,0.21252 1.58008,0.29883 0.52858,0.0864 1.05725,0.1605 1.58203,0.2207 0.52478,0.0602 1.04536,0.10652 1.5586,0.14062 0.51323,0.0341 1.01971,0.0565 1.51367,0.0645 0.63541,0.0105 1.25095,-9.2e-4 1.83984,-0.0332 0.58889,-0.0323 1.14988,-0.0854 1.67578,-0.16015 0.5259,-0.0748 1.01643,-0.17194 1.46289,-0.28907 0.44645,-0.11712 0.84868,-0.25485 1.19922,-0.41406 0.40252,-0.18281 0.85221,-0.43916 1.33399,-0.75586 0.48178,-0.31671 0.99723,-0.6949 1.5332,-1.12109 0.53597,-0.42619 1.09119,-0.90084 1.65625,-1.41211 0.56507,-0.51128 1.13991,-1.0589 1.70898,-1.63086 0.47693,-0.47931 0.95055,-0.97429 1.41407,-1.48047 0.46352,-0.50617 0.91617,-1.02233 1.35156,-1.54101 0.43539,-0.51869 0.85359,-1.0398 1.24609,-1.55665 0.39249,-0.51684 0.75891,-1.03062 1.09375,-1.53124 0.36615,-0.54745 0.73741,-1.12308 1.11133,-1.72461 0.37391,-0.60154 0.75116,-1.22825 1.13086,-1.87891 0.3797,-0.65065 0.76102,-1.32473 1.14453,-2.01953 0.38351,-0.69481 0.76896,-1.41055 1.1543,-2.14453 0.33014,-0.62884 0.6601,-1.27158 0.99023,-1.92578 0.33013,-0.6542 0.66137,-1.31967 0.99024,-1.9961 0.32888,-0.67644 0.65604,-1.36305 0.98242,-2.05859 0.32638,-0.69554 0.65198,-1.39981 0.97461,-2.11133 0.30446,-0.67143 0.6062,-1.35024 0.90625,-2.0332 0.30005,-0.68295 0.59799,-1.37065 0.89258,-2.0625 0.29459,-0.69184 0.58495,-1.38784 0.87304,-2.08594 0.28808,-0.69811 0.57298,-1.39787 0.85352,-2.09961 0.28186,-0.70503 0.5608,-1.41116 0.83398,-2.11719 0.27318,-0.70604 0.54125,-1.41282 0.80469,-2.11718 0.26344,-0.70439 0.5208,-1.40738 0.77344,-2.10743 0.25263,-0.70006 0.49945,-1.39678 0.74023,-2.08984 0.25811,-0.74296 0.51069,-1.48114 0.75391,-2.21289 0.24322,-0.73175 0.47806,-1.45658 0.70508,-2.17383 0.22702,-0.71726 0.4448,-1.42748 0.65429,-2.12695 0.20951,-0.69948 0.41088,-1.388 0.60157,-2.06641 0.2279,-0.81079 0.44165,-1.60531 0.64062,-2.38086 0.19897,-0.77555 0.38296,-1.53288 0.55078,-2.26758 0.16781,-0.73471 0.3187,-1.44651 0.45313,-2.13476 0.13443,-0.68825 0.25276,-1.35209 0.35156,-1.98828 0.0565,-0.36351 0.11036,-0.8609 0.16406,-1.47657 0.0537,-0.61566 0.10761,-1.3509 0.15821,-2.1875 0.0506,-0.83659 0.0994,-1.77448 0.14648,-2.80078 0.0471,-1.0263 0.0915,-2.13944 0.13477,-3.32422 0.0266,-0.72862 0.0531,-1.48465 0.0781,-2.26367 0.025,-0.77902 0.0489,-1.58213 0.0723,-2.40429 0.0234,-0.82217 0.0467,-1.66345 0.0684,-2.52149 0.0217,-0.85804 0.0407,-1.73248 0.0605,-2.61914 0.0177,-0.79137 0.0365,-1.59364 0.0527,-2.40234 0.0162,-0.8087 0.0303,-1.62447 0.0449,-2.44532 0.0146,-0.82086 0.028,-1.64675 0.041,-2.47461 0.013,-0.82783 0.0258,-1.65663 0.0371,-2.48632 0.0113,-0.83311 0.0213,-1.66636 0.0312,-2.4961 0.01,-0.82974 0.0193,-1.65541 0.0273,-2.47656 0.008,-0.82114 0.0135,-1.63798 0.0195,-2.44531 0.006,-0.80732 0.0116,-1.60626 0.0156,-2.39453 0.005,-0.89358 0.008,-1.77284 0.01,-2.63477 0.002,-0.86193 0.003,-1.70664 0.002,-2.5293 0,-0.82266 -0.002,-1.62265 -0.006,-2.39843 -0.004,-0.77579 -0.01,-1.526756 -0.0156,-2.248045 -0.013,-1.459988 -0.0315,-2.800692 -0.0566,-3.990234 -0.0251,-1.189541 -0.0557,-2.228041 -0.0937,-3.083985 -0.038,-0.855944 -0.0831,-1.529084 -0.13477,-1.988281 -0.0517,-0.459197 -0.11163,-0.703825 -0.17773,-0.703125 z m -67.753908,8.824219 c 0.48182,-0.004 0.827297,0.09727 1.017579,0.292968 0.10148,0.116 0.32506,0.79009 0.6875,2.058598 0.297197,1.0366 0.594956,1.99398 0.660156,2.11718 0.06523,0.1305 0.253754,0.30558 0.427734,0.39258 0.26096,0.138 0.412319,0.16602 1.042969,0.16602 0.71764,0 0.754889,-0.007 0.943359,-0.20313 0.11598,-0.1088 0.658637,-0.97227 1.216797,-1.92187 1.18881,-2.015205 1.247777,-2.064312 1.972656,-1.912112 0.674151,0.1377 1.290577,0.47685 1.435547,0.78125 0.11599,0.246502 0.107533,0.341632 -0.117187,2.298832 -0.1305,1.1235 -0.2092,2.13153 -0.1875,2.24023 0.08699,0.3262 0.464152,0.68739 1.007812,0.96289 0.58716,0.2899 0.927441,0.31958 1.275391,0.10938 0.13048,-0.0798 0.890693,-0.6372 1.695313,-1.2461 0.804619,-0.6017 1.545556,-1.13197 1.654296,-1.16797 0.30445,-0.116 0.659383,-3.4e-4 1.101563,0.34766 0.50017,0.3914 0.810547,0.83334 0.810547,1.15234 0,0.1667 -0.288485,0.75567 -0.984375,2.00977 -0.54366,0.9713 -1.01541,1.89077 -1.03711,2.04297 -0.10148,0.5437 0.645007,1.61753 1.253907,1.79883 0.33345,0.0942 0.348196,0.0925 2.841796,-0.55274 0.855372,-0.2247 1.629797,-0.38333 1.716797,-0.36133 0.2827,0.0652 0.572769,0.38435 0.855469,0.90625 0.2972,0.58 0.355866,1.02898 0.160156,1.32618 -0.06524,0.1015 -0.78327,0.70389 -1.58789,1.34179 -0.81187,0.6379 -1.55033,1.24616 -1.644532,1.34766 -0.231938,0.2464 -0.29037,0.64585 -0.18164,1.18945 0.10873,0.5292 0.348415,0.9918 0.609375,1.1875 0.14498,0.1015 0.666375,0.20438 2.203125,0.42188 1.101827,0.1595 2.094398,0.32595 2.203128,0.37695 0.3262,0.1594 0.47881,0.52141 0.50781,1.22461 0.0362,0.7176 -0.0588,1.08721 -0.3125,1.25391 -0.0942,0.0652 -0.93348,0.32503 -1.861329,0.58593 -2.087667,0.5872 -2.234009,0.63939 -2.480469,0.90039 -0.362459,0.3769 -0.521032,1.5071 -0.289062,2 0.13773,0.29 0.283074,0.3922 1.914062,1.3418 2.109568,1.225 2.101558,1.22388 2.101568,1.76758 0,0.3117 -0.23983,1.09455 -0.43555,1.40625 -0.282714,0.4566 -0.404788,0.47162 -2.470705,0.23242 -2.26164,-0.2614 -2.436909,-0.26818 -2.755859,-0.0508 -0.2972,0.203 -0.672552,0.76183 -0.832032,1.24023 -0.0942,0.2827 -0.102309,0.40555 -0.03711,0.62305 0.04349,0.1595 0.579204,0.9354 1.246094,1.8125 0.6379,0.8409 1.211018,1.63708 1.261719,1.76758 0.14498,0.3407 0.02924,0.68256 -0.398438,1.19726 -0.41318,0.5001 -0.761701,0.73047 -1.087891,0.73047 -0.17398,0 -0.745694,-0.28127 -2.021484,-0.98437 -2.03693,-1.1381 -2.166756,-1.18228 -2.753906,-0.86328 -0.51467,0.2827 -1.001503,0.78234 -1.095703,1.12304 -0.07974,0.2827 -8.02e-4,0.64625 0.767578,3.53125 0.09429,0.3697 0.175781,0.76743 0.175781,0.89063 0,0.3045 -0.334459,0.65314 -0.943359,0.96484 -0.6524,0.3336 -1.042941,0.35558 -1.369141,0.0801 -0.11598,-0.1015 -0.754413,-0.86305 -1.414063,-1.68945 -1.34828,-1.6957 -1.464787,-1.79875 -2.117187,-1.71875 -0.78287,0.0942 -1.427848,0.44925 -1.580078,0.87695 -0.02899,0.0797 -0.181764,1.0377 -0.333985,2.125 -0.188469,1.312 -0.318737,2.04477 -0.398437,2.16797 -0.16672,0.2537 -0.565522,0.39759 -1.232422,0.43359 -0.65239,0.0435 -1.036139,-0.0655 -1.224609,-0.35547 -0.05799,-0.087 -0.355134,-1.02763 -0.652344,-2.08593 -0.30445,-1.0584 -0.609141,-2.00202 -0.681641,-2.10352 -0.21746,-0.2972 -0.616313,-0.44919 -1.283203,-0.49219 -0.71039,-0.0435 -0.963087,0.0363 -1.216797,0.37696 -0.09423,0.1232 -0.580471,0.92841 -1.08789,1.79101 -0.50742,0.8553 -1.000644,1.63678 -1.109375,1.73828 -0.15223,0.145 -0.253049,0.17797 -0.59375,0.16797 -0.521909,-0.007 -1.320509,-0.32584 -1.574219,-0.62304 -0.23197,-0.2754 -0.23197,-0.58074 0,-2.52344 0.2827,-2.3631 0.269761,-2.47102 -0.505859,-2.97852 -0.47843,-0.3184 -0.950316,-0.46539 -1.291016,-0.40039 -0.15222,0.029 -0.818102,0.4861 -1.919922,1.3125 -1.442521,1.0873 -1.718649,1.26953 -1.943359,1.26953 -0.340701,0 -0.630383,-0.15987 -1.101563,-0.60937 -0.43493,-0.4131 -0.595703,-0.66765 -0.595703,-0.96485 0,-0.1232 0.377428,-0.87671 0.986328,-1.97851 1.058331,-1.8847 1.152189,-2.14538 0.949219,-2.60938 -0.166721,-0.4059 -0.681612,-1.00126 -1.007812,-1.16797 -0.369691,-0.1885 -0.412065,-0.1799 -2.521485,0.3711 -2.09492,0.5436 -2.108743,0.54395 -2.376953,0.40625 -0.26821,-0.1377 -0.60953,-0.6103 -0.8125,-1.125 -0.166683,-0.4204 -0.182386,-0.71032 -0.06641,-0.97852 0.05074,-0.1015 0.813468,-0.75393 1.705078,-1.45703 1.8052,-1.4353 1.8922,-1.53654 1.8125,-2.18164 -0.06524,-0.5799 -0.305181,-1.15142 -0.587891,-1.39062 -0.2682,-0.2392 -0.233035,-0.23187 -2.828125,-0.60157 -0.94235,-0.1305 -1.665565,-0.26817 -1.759765,-0.32617 -0.24646,-0.1595 -0.377035,-0.54477 -0.427735,-1.21875 -0.04349,-0.6596 0.06356,-1.03672 0.353516,-1.23242 0.09423,-0.058 1.022566,-0.35514 2.066406,-0.65234 1.04383,-0.2972 1.98641,-0.60102 2.087891,-0.66602 0.326199,-0.2102 0.485797,-0.64619 0.529297,-1.37109 0.04349,-0.9423 0.05086,-0.93403 -2.007813,-2.14453 -0.9351,-0.5437 -1.776894,-1.07397 -1.871094,-1.16797 -0.24646,-0.2537 -0.282782,-0.59362 -0.101562,-1.19532 0.18847,-0.6307 0.406222,-0.9655 0.732422,-1.125 0.23921,-0.1083 0.333954,-0.1081 1.740234,0.0586 2.32688,0.2754 2.726238,0.29807 3.023438,0.13867 0.42043,-0.232 0.96289,-1.17424 0.96289,-1.68164 0,-0.2972 -0.144346,-0.5302 -1.347656,-2.125 -1.31204,-1.747 -1.398804,-1.92138 -1.152344,-2.39258 0.15948,-0.3117 0.803503,-1.00036 1.064453,-1.13086 0.10874,-0.0576 0.291661,-0.10156 0.400391,-0.10156 0.12323,0 0.883936,0.37794 1.978516,0.99414 2.152901,1.196 2.246078,1.22459 2.949218,0.74609 0.54366,-0.3624 0.877547,-0.73886 0.935547,-1.07226 0.03624,-0.1812 -0.09376,-0.79135 -0.470703,-2.27735 -0.46388,-1.8049 -0.515859,-2.05059 -0.443359,-2.27539 0.101491,-0.2972 0.377725,-0.52116 1.015625,-0.81836 0.500169,-0.2395 0.819987,-0.27698 1.117187,-0.14648 0.10149,0.0507 0.709756,0.74669 1.347656,1.55859 1.217801,1.5367 1.543769,1.87899 1.855469,1.95899 0.36969,0.0942 1.312248,-0.13856 1.710938,-0.41406 0.2972,-0.2174 0.398378,-0.60846 0.673828,-2.63086 0.14498,-1.036608 0.305281,-1.965423 0.363281,-2.074222 0.10149,-0.2029 0.49944,-0.414032 0.869141,-0.457032 0.19028,-0.025 0.366737,-0.03906 0.527343,-0.03906 z m 1.324219,9.185546 c -0.450723,0 -0.895018,0.0224 -1.333984,0.0664 -0.438965,0.0445 -0.871856,0.11026 -1.296875,0.19726 -0.42502,0.087 -0.843068,0.19507 -1.251953,0.32227 -0.408885,0.1271 -0.808656,0.27425 -1.199219,0.43945 -0.390563,0.1651 -0.772525,0.34783 -1.142578,0.54883 -0.370052,0.201 -0.728817,0.4197 -1.076172,0.6543 -0.347354,0.2346 -0.683391,0.48585 -1.005859,0.75195 -0.322468,0.2661 -0.630389,0.5465 -0.925782,0.8418 -0.295394,0.2954 -0.577619,0.60533 -0.84375,0.92773 -0.266131,0.3225 -0.517272,0.65856 -0.751953,1.00586 -0.23468,0.3473 -0.453255,0.70607 -0.654297,1.07617 -0.201041,0.37 -0.383614,0.75013 -0.548828,1.14063 -0.165215,0.3906 -0.312253,0.79032 -0.439453,1.19922 -0.1272,0.4089 -0.235264,0.82685 -0.322266,1.25195 -0.087,0.425 -0.152655,0.85797 -0.197265,1.29687 -0.04461,0.439 -0.06833,0.88524 -0.06836,1.33594 2.8e-5,0.4507 0.02375,0.89499 0.06836,1.33399 0.04461,0.4389 0.110265,0.87187 0.197265,1.29687 0.087,0.4251 0.195065,0.84305 0.322266,1.25195 0.1272,0.4089 0.274238,0.80862 0.439453,1.19922 0.165216,0.3905 0.347786,0.77063 0.548828,1.14063 0.201042,0.3701 0.419616,0.72887 0.654297,1.07617 0.23468,0.3473 0.485822,0.68336 0.751953,1.00586 0.266131,0.3224 0.548357,0.63233 0.84375,0.92773 0.295394,0.2953 0.603314,0.5757 0.925782,0.8418 0.322468,0.266 0.658505,0.51735 1.005859,0.75195 0.347354,0.2346 0.706119,0.4534 1.076172,0.6543 0.370052,0.201 0.752015,0.38373 1.142578,0.54883 0.390562,0.1652 0.790334,0.31235 1.199219,0.43945 0.408884,0.1271 0.826934,0.23527 1.251953,0.32227 0.425018,0.087 0.85791,0.15326 1.296875,0.19726 0.438964,0.044 0.883262,0.0664 1.333984,0.0664 0.450675,0 0.897028,-0.0214 1.335938,-0.0664 0.43892,-0.0446 0.869952,-0.11026 1.294922,-0.19726 0.42496,-0.087 0.843123,-0.19507 1.251953,-0.32227 0.40883,-0.1271 0.808718,-0.27425 1.199218,-0.43945 0.390512,-0.1651 0.772579,-0.34783 1.142579,-0.54883 0.37,-0.201 0.728862,-0.4197 1.076171,-0.6543 0.347302,-0.2346 0.681487,-0.48585 1.003907,-0.75195 0.32241,-0.2661 0.632384,-0.5465 0.927734,-0.8418 0.29534,-0.2954 0.57766,-0.60533 0.84375,-0.92773 0.26608,-0.3224 0.51536,-0.65856 0.75,-1.00586 0.23464,-0.3473 0.453297,-0.70617 0.654297,-1.07617 0.20101,-0.37 0.385591,-0.75013 0.550781,-1.14063 0.16518,-0.3905 0.312283,-0.79227 0.439453,-1.20117 0.12718,-0.4088 0.233313,-0.825 0.320313,-1.25 0.08698,-0.425 0.154619,-0.85797 0.199219,-1.29687 0.0446,-0.4389 0.06638,-0.88329 0.06641,-1.33399 -1e-4,-0.4507 -0.02181,-0.89704 -0.06641,-1.33594 -0.0446,-0.4389 -0.112219,-0.87187 -0.199219,-1.29687 -0.08698,-0.425 -0.193143,-0.8412 -0.320313,-1.25 -0.12718,-0.4089 -0.274273,-0.80872 -0.439453,-1.19922 -0.16518,-0.3905 -0.349771,-0.77258 -0.550781,-1.14258 -0.201,-0.37 -0.419657,-0.72887 -0.654297,-1.07617 -0.23464,-0.3473 -0.48391,-0.68346 -0.75,-1.00586 -0.26608,-0.3224 -0.5484,-0.63048 -0.84375,-0.92578 -0.29534,-0.2953 -0.605324,-0.57765 -0.927734,-0.84375 -0.32242,-0.2661 -0.656605,-0.51735 -1.003907,-0.75195 -0.3473,-0.2347 -0.706181,-0.45135 -1.076171,-0.65235 -0.37,-0.201 -0.752068,-0.38558 -1.142579,-0.55078 -0.390508,-0.1651 -0.790388,-0.31225 -1.199218,-0.43945 -0.40883,-0.1271 -0.826983,-0.23331 -1.251953,-0.32031 -0.42497,-0.087 -0.856002,-0.15422 -1.294922,-0.19922 -0.43891,-0.044 -0.885263,-0.0664 -1.335938,-0.0664 z m -57.8125,2.35547 c 0.428255,0.006 0.870981,0.0809 1.316407,0.2207 0.445425,0.13976 0.89347,0.34468 1.330078,0.60547 0.342967,0.20486 0.678741,0.44405 1.001953,0.7168 0.323211,0.27275 0.634922,0.57939 0.925781,0.91406 0.29086,0.33466 0.562684,0.69728 0.808594,1.08789 0.245911,0.39061 0.465932,0.80747 0.654297,1.24805 0.09876,0.23099 0.219275,0.60751 0.355468,1.08789 0.136194,0.48038 0.286475,1.06561 0.441407,1.7168 0.154932,0.65118 0.315731,1.36793 0.470703,2.11132 0.154971,0.7434 0.305093,1.51251 0.441406,2.26954 0.136313,0.757 0.300224,1.57171 0.478516,2.39453 0.178291,0.82281 0.37181,1.65434 0.568359,2.44726 0.19655,0.79292 0.39485,1.54752 0.585938,2.21485 0.191085,0.66732 0.373256,1.24732 0.535156,1.69336 0.253658,0.69881 0.449299,1.26198 0.589844,1.72851 0.140543,0.46652 0.226751,0.83709 0.263671,1.15234 0.03692,0.31526 0.02402,0.5753 -0.0332,0.82032 -0.05722,0.24501 -0.158918,0.47466 -0.300781,0.73047 -0.251789,0.45402 -0.429313,0.87854 -0.53125,1.28125 -0.10194,0.40272 -0.12802,0.7844 -0.07813,1.15039 0.0499,0.366 0.175172,0.71668 0.378906,1.06054 0.203733,0.34386 0.48615,0.67932 0.845703,1.01563 0.179997,0.16836 0.36374,0.35246 0.542969,0.54101 0.179229,0.18855 0.35443,0.3821 0.513672,0.56836 0.159242,0.18627 0.303792,0.36586 0.423828,0.52735 0.120037,0.16149 0.215734,0.30568 0.277344,0.41992 0.07343,0.13616 0.124104,0.2663 0.152344,0.39258 0.02824,0.12628 0.03238,0.24831 0.01563,0.36328 -0.01676,0.11497 -0.05565,0.22394 -0.117188,0.32617 -0.06154,0.10223 -0.145841,0.19706 -0.251953,0.28516 -0.20633,0.17123 -0.515073,0.20967 -0.882812,0.14257 -0.36774,-0.0671 -0.794266,-0.23922 -1.232422,-0.49218 -0.438157,-0.25297 -0.889061,-0.5864 -1.306641,-0.97266 -0.417581,-0.38627 -0.801411,-0.82594 -1.107422,-1.29297 -0.25892,-0.39516 -0.458458,-0.92278 -0.595703,-1.51172 -0.137243,-0.58894 -0.211849,-1.2394 -0.224609,-1.88086 -0.01276,-0.64146 0.03781,-1.27343 0.152343,-1.82617 0.114532,-0.55274 0.292474,-1.02488 0.53711,-1.34765 0.145981,-0.1926 0.255998,-0.36485 0.330078,-0.53321 0.07408,-0.16836 0.112434,-0.33367 0.115234,-0.51758 0.0028,-0.18392 -0.02972,-0.38573 -0.09766,-0.625 -0.06794,-0.23927 -0.170551,-0.51516 -0.308594,-0.84961 -0.119493,-0.2895 -0.247154,-0.63318 -0.380859,-1.02539 -0.133705,-0.39222 -0.27467,-0.83353 -0.419922,-1.31835 -0.145252,-0.48483 -0.295084,-1.01276 -0.449219,-1.58008 -0.154136,-0.56733 -0.312302,-1.17474 -0.472656,-1.81446 -0.108665,-0.43351 -0.21763,-0.88284 -0.328125,-1.3457 -0.110495,-0.46287 -0.222489,-0.93865 -0.333984,-1.42773 -0.111495,-0.48907 -0.222319,-0.98983 -0.333985,-1.50196 -0.111666,-0.51214 -0.222976,-1.03631 -0.333984,-1.56836 -0.247666,-1.18704 -0.541884,-2.22977 -0.873047,-3.11914 -0.331163,-0.88938 -0.700435,-1.62403 -1.103516,-2.19922 -0.40308,-0.5752 -0.839316,-0.98988 -1.302734,-1.23437 -0.463418,-0.24453 -0.954621,-0.31955 -1.466797,-0.2168 -0.742228,0.1489 -1.317253,0.25943 -1.767578,0.32813 -0.450324,0.0686 -0.775278,0.0953 -1.011719,0.0781 -0.236442,-0.0172 -0.385747,-0.0787 -0.486328,-0.1875 -0.100577,-0.1088 -0.152572,-0.26464 -0.195312,-0.4707 -0.0239,-0.11522 -0.01298,-0.25631 0.02539,-0.41211 0.03836,-0.15581 0.10357,-0.32671 0.19336,-0.50195 0.08979,-0.17524 0.203603,-0.35577 0.333984,-0.5293 0.130381,-0.17353 0.277365,-0.33956 0.4375,-0.49023 0.315954,-0.29727 0.673496,-0.51308 1.058594,-0.65235 0.385097,-0.13931 0.798307,-0.20131 1.226562,-0.19531 z m 57.8125,1.04687 c 0.333237,0 0.663742,0.0158 0.988281,0.0488 0.32454,0.033 0.642802,0.0822 0.957032,0.14649 0.31422,0.064 0.623481,0.14418 0.925781,0.23828 0.30229,0.094 0.597969,0.20212 0.886719,0.32422 0.28875,0.1221 0.57017,0.25765 0.84375,0.40625 0.27358,0.1486 0.540075,0.31087 0.796875,0.48437 0.2568,0.1735 0.503787,0.35994 0.742187,0.55664 0.2384,0.1968 0.467167,0.40475 0.685547,0.62305 0.21838,0.2184 0.426307,0.44715 0.623047,0.68555 0.19674,0.2384 0.383151,0.48538 0.556641,0.74218 0.17349,0.2568 0.335755,0.52328 0.484375,0.79688 0.14862,0.2736 0.28412,0.55495 0.40625,0.84375 0.12213,0.2887 0.230188,0.58442 0.324218,0.88672 0.094,0.3023 0.173982,0.61158 0.238282,0.92578 0.0643,0.3143 0.113524,0.63253 0.146484,0.95703 0.033,0.3245 0.04883,0.65498 0.04883,0.98828 0,0.3332 -0.01593,0.66183 -0.04883,0.98633 -0.033,0.3246 -0.08219,0.6447 -0.146484,0.95898 -0.0643,0.3142 -0.144262,0.62348 -0.238282,0.92578 -0.094,0.3023 -0.202088,0.59802 -0.324218,0.88672 -0.12213,0.2888 -0.25763,0.57015 -0.40625,0.84375 -0.14862,0.2736 -0.310885,0.53813 -0.484375,0.79493 -0.17349,0.2568 -0.359901,0.50574 -0.556641,0.74414 -0.19674,0.2384 -0.404667,0.46714 -0.623047,0.68554 -0.21838,0.2184 -0.447147,0.42625 -0.685547,0.62305 -0.2384,0.1967 -0.485387,0.38119 -0.742187,0.55469 -0.2568,0.1735 -0.523295,0.33577 -0.796875,0.48437 -0.27359,0.1486 -0.555,0.28415 -0.84375,0.40625 -0.28875,0.1222 -0.584419,0.23012 -0.886719,0.32422 -0.3023,0.094 -0.611561,0.17398 -0.925781,0.23828 -0.31423,0.064 -0.632492,0.11349 -0.957032,0.14649 -0.324539,0.033 -0.655044,0.0508 -0.988281,0.0508 -0.333237,0 -0.661786,-0.0178 -0.986328,-0.0508 -0.324541,-0.033 -0.644756,-0.0822 -0.958984,-0.14649 -0.314228,-0.064 -0.623484,-0.14428 -0.925781,-0.23828 -0.302298,-0.094 -0.59797,-0.20202 -0.886719,-0.32422 -0.288749,-0.1221 -0.570166,-0.25765 -0.84375,-0.40625 -0.273583,-0.1486 -0.538123,-0.31087 -0.794922,-0.48437 -0.2568,-0.1735 -0.505743,-0.35799 -0.744141,-0.55469 -0.238399,-0.1968 -0.467167,-0.40465 -0.685547,-0.62305 -0.21838,-0.2184 -0.426302,-0.44714 -0.623047,-0.68554 -0.196743,-0.2384 -0.38315,-0.48734 -0.55664,-0.74414 -0.17349,-0.2568 -0.333803,-0.52133 -0.482422,-0.79493 -0.148619,-0.2736 -0.284119,-0.55495 -0.40625,-0.84375 -0.12213,-0.2887 -0.230196,-0.58442 -0.324219,-0.88672 -0.09402,-0.30229 -0.173981,-0.61158 -0.238281,-0.92578 -0.0643,-0.31428 -0.113526,-0.63438 -0.146484,-0.95898 -0.03296,-0.3245 -0.05078,-0.65313 -0.05078,-0.98633 10e-7,-0.3333 0.01782,-0.66378 0.05078,-0.98828 0.03296,-0.3245 0.08218,-0.64273 0.146484,-0.95703 0.0643,-0.3142 0.144256,-0.62348 0.238281,-0.92578 0.09402,-0.3023 0.202088,-0.59802 0.324219,-0.88672 0.12213,-0.2888 0.257631,-0.57015 0.40625,-0.84375 0.148619,-0.2736 0.310884,-0.54008 0.484375,-0.79688 0.17349,-0.2568 0.357943,-0.50378 0.554687,-0.74218 0.196744,-0.2384 0.404667,-0.46715 0.623047,-0.68555 0.21838,-0.2183 0.447149,-0.42625 0.685547,-0.62305 0.238398,-0.1967 0.487341,-0.38314 0.744141,-0.55664 0.256799,-0.1735 0.521339,-0.33577 0.794922,-0.48437 0.273582,-0.1486 0.555002,-0.28415 0.84375,-0.40625 0.288749,-0.1221 0.584422,-0.23022 0.886719,-0.32422 0.302295,-0.094 0.611553,-0.17398 0.925781,-0.23828 0.314227,-0.064 0.634443,-0.11359 0.958984,-0.14649 0.32454,-0.033 0.653091,-0.0488 0.986328,-0.0488 z"
       transform="translate(1.1635727,877.6946)"
       id="path4209"
       inkscape:connector-curvature="0" />
  </g>
  <g
     inkscape:label="Cu.1"
     inkscape:groupmode="layer"
     id="g6087"
     transform="translate(-1.1635727,-877.69461)"
     style="display:inline">
    <path
       style="fill:#800000;stroke:none"
       d="m 79.111693,975.87841 c -0.160606,10e-4 -0.337063,0.0137 -0.527343,0.0391 -0.369701,0.0435 -0.767651,0.25406 -0.869141,0.45703 -0.058,0.10873 -0.218301,1.03764 -0.363281,2.07423 -0.27545,2.02243 -0.376628,2.4134 -0.673828,2.63086 -0.39869,0.27546 -1.341248,0.50829 -1.710938,0.41406 -0.3117,-0.0797 -0.637669,-0.42224 -1.855469,-1.95899 -0.6379,-0.81187 -1.246166,-1.50785 -1.347656,-1.55859 -0.2972,-0.13048 -0.617018,-0.0927 -1.117187,0.14648 -0.6379,0.29721 -0.914135,0.52116 -1.015626,0.81836 -0.0725,0.22472 -0.02052,0.47043 0.44336,2.2754 0.37694,1.486 0.506943,2.09611 0.470703,2.27734 -0.058,0.33344 -0.391887,0.70982 -0.935547,1.07226 -0.70314,0.47843 -0.796319,0.44997 -2.949219,-0.74609 -1.09458,-0.61615 -1.855285,-0.99414 -1.978515,-0.99414 -0.10873,0 -0.291651,0.0436 -0.400391,0.10156 -0.26095,0.13048 -0.904973,0.81916 -1.064453,1.13086 -0.24646,0.47117 -0.159696,0.64561 1.152344,2.39258 1.20331,1.59475 1.347656,1.82779 1.347656,2.125 0,0.50742 -0.542461,1.44968 -0.962891,1.68164 -0.2972,0.15947 -0.696557,0.13679 -3.023437,-0.13867 -1.40628,-0.16672 -1.501024,-0.16732 -1.740234,-0.0586 -0.3262,0.15948 -0.543952,0.49436 -0.732422,1.125 -0.18122,0.60167 -0.144898,0.94161 0.101562,1.19532 0.0942,0.0942 0.935994,0.62431 1.871094,1.16797 2.05867,1.21056 2.051302,1.20218 2.007812,2.14453 -0.0435,0.72489 -0.203097,1.16088 -0.529296,1.37109 -0.101481,0.0652 -1.044061,0.36883 -2.087891,0.66602 -1.04384,0.2972 -1.972176,0.59434 -2.066406,0.65234 -0.28996,0.1957 -0.397006,0.57282 -0.353516,1.23242 0.0507,0.67402 0.181275,1.05922 0.427735,1.21872 0.0942,0.058 0.817415,0.1956 1.759765,0.3261 2.59509,0.3697 2.559925,0.3624 2.828125,0.6016 0.28271,0.2392 0.522651,0.8107 0.587891,1.3906 0.0797,0.6451 -0.0073,0.7464 -1.8125,2.1817 -0.89161,0.7031 -1.654339,1.3555 -1.705079,1.457 -0.11598,0.2682 -0.100273,0.5581 0.06641,0.9785 0.20297,0.5147 0.54429,0.9873 0.8125,1.125 0.26821,0.1377 0.282033,0.1374 2.376953,-0.4062 2.10942,-0.551 2.151794,-0.5596 2.521484,-0.3711 0.3262,0.1667 0.841093,0.762 1.007813,1.1679 0.20297,0.464 0.109111,0.7247 -0.949219,2.6094 -0.6089,1.1018 -0.986328,1.8553 -0.986328,1.9785 0,0.2972 0.160773,0.5518 0.595703,0.9649 0.47118,0.4495 0.760862,0.6094 1.101563,0.6094 0.22471,0 0.500839,-0.1823 1.943359,-1.2696 1.10182,-0.8264 1.767702,-1.2835 1.919922,-1.3125 0.3407,-0.065 0.812585,0.082 1.291015,0.4004 0.77562,0.5075 0.78856,0.6154 0.50586,2.9785 -0.23197,1.9427 -0.23197,2.2481 0,2.5235 0.25371,0.2972 1.052309,0.6158 1.574218,0.623 0.340701,0.01 0.44152,-0.023 0.59375,-0.168 0.108731,-0.1015 0.601956,-0.8829 1.109376,-1.7382 0.507419,-0.8626 0.99366,-1.6678 1.08789,-1.791 0.25371,-0.3407 0.506407,-0.4205 1.216797,-0.377 0.66689,0.043 1.065743,0.195 1.283203,0.4922 0.0725,0.1015 0.377191,1.0451 0.681641,2.1035 0.29721,1.0583 0.594353,1.9989 0.652343,2.0859 0.18847,0.29 0.57222,0.399 1.22461,0.3555 0.6669,-0.036 1.065702,-0.1799 1.232422,-0.4336 0.0797,-0.1232 0.209967,-0.856 0.398437,-2.168 0.15222,-1.0873 0.304995,-2.0453 0.333985,-2.125 0.15223,-0.4277 0.797208,-0.7827 1.580078,-0.8769 0.6524,-0.08 0.768907,0.023 2.117187,1.7187 0.65965,0.8264 1.298083,1.588 1.414063,1.6895 0.3262,0.2755 0.71674,0.2536 1.36914,-0.08 0.6089,-0.3117 0.94336,-0.6603 0.94336,-0.9648 0,-0.1232 -0.08151,-0.521 -0.175782,-0.8907 -0.76838,-2.885 -0.847318,-3.2485 -0.767578,-3.5312 0.0942,-0.3407 0.581034,-0.8403 1.095704,-1.123 0.58715,-0.319 0.716976,-0.2749 2.753906,0.8632 1.27579,0.7031 1.847504,0.9844 2.021484,0.9844 0.32619,0 0.674711,-0.2304 1.087891,-0.7305 0.42768,-0.5147 0.543417,-0.8565 0.398437,-1.1972 -0.0507,-0.1305 -0.623819,-0.9267 -1.261718,-1.7676 -0.666891,-0.8771 -1.202604,-1.653 -1.246094,-1.8125 -0.0652,-0.2175 -0.05709,-0.3404 0.03711,-0.6231 0.15948,-0.4784 0.534831,-1.0372 0.832031,-1.2402 0.31895,-0.2174 0.49422,-0.2104 2.75586,0.051 2.06592,0.2392 2.18799,0.2242 2.4707,-0.2324 0.19572,-0.3117 0.43555,-1.0946 0.43555,-1.4063 0,-0.5437 0.008,-0.5426 -2.101563,-1.7676 -1.63099,-0.9496 -1.776332,-1.0518 -1.914062,-1.3418 -0.23197,-0.4929 -0.07339,-1.623 0.289062,-1.9999 0.24646,-0.261 0.392799,-0.31319 2.480463,-0.90039 0.92785,-0.2609 1.76709,-0.52073 1.86133,-0.58593 0.25371,-0.1667 0.34874,-0.53628 0.3125,-1.25391 -0.029,-0.70314 -0.18161,-1.06513 -0.50781,-1.22461 -0.10873,-0.0507 -1.1013,-0.21747 -2.203123,-0.37695 -1.53675,-0.21746 -2.058145,-0.3204 -2.203125,-0.42188 -0.26096,-0.19572 -0.500645,-0.65834 -0.609375,-1.1875 -0.10873,-0.54366 -0.05028,-0.94299 0.18164,-1.18945 0.0942,-0.10149 0.832662,-0.70976 1.644531,-1.34766 0.80462,-0.6379 1.522652,-1.24031 1.587892,-1.34179 0.19571,-0.29721 0.13704,-0.74627 -0.16016,-1.32618 -0.2827,-0.52192 -0.572766,-0.84101 -0.855466,-0.90625 -0.087,-0.0217 -0.861427,0.13662 -1.716797,0.36133 -2.4936,0.64515 -2.508347,0.64697 -2.841797,0.55274 -0.6089,-0.18122 -1.355386,-1.25516 -1.253906,-1.79883 0.0217,-0.15222 0.49345,-1.07163 1.03711,-2.04297 0.695889,-1.25405 0.984375,-1.84305 0.984374,-2.00977 0,-0.31895 -0.310376,-0.7609 -0.810546,-1.15234 -0.44218,-0.34794 -0.797113,-0.46364 -1.101563,-0.34766 -0.10874,0.0362 -0.849677,0.56632 -1.654297,1.16797 -0.80462,0.60891 -1.564832,1.16637 -1.695312,1.2461 -0.34795,0.21022 -0.688231,0.18057 -1.275391,-0.10938 -0.54366,-0.27545 -0.920822,-0.6367 -1.007812,-0.96289 -0.0217,-0.10874 0.05703,-1.11666 0.1875,-2.24023 0.22472,-1.95719 0.233177,-2.05237 0.117187,-2.29883 -0.14497,-0.30445 -0.761397,-0.64352 -1.435547,-0.78125 -0.72488,-0.15222 -0.783846,-0.10308 -1.972656,1.91211 -0.55816,0.9496 -1.100817,1.81314 -1.216797,1.92187 -0.18847,0.19572 -0.225719,0.20313 -0.943359,0.20313 -0.63065,0 -0.782009,-0.0283 -1.042969,-0.16602 -0.17398,-0.087 -0.362504,-0.2621 -0.427734,-0.39258 -0.0652,-0.12323 -0.362957,-1.0806 -0.660157,-2.11718 -0.36244,-1.26856 -0.58602,-1.94262 -0.6875,-2.0586 -0.190282,-0.19572 -0.535759,-0.29705 -1.017578,-0.29297 z m 1.324219,9.18555 c 0.450675,3e-5 0.896017,0.0229 1.334932,0.0675 0.438915,0.0446 0.871402,0.11093 1.296369,0.19791 0.424966,0.087 0.842412,0.19461 1.251243,0.32178 0.408831,0.12718 0.809047,0.27391 1.199556,0.43909 0.390508,0.16518 0.771308,0.34882 1.141307,0.54983 0.369998,0.201 0.729195,0.41937 1.076496,0.65401 0.347301,0.23464 0.682706,0.48555 1.005123,0.75163 0.322416,0.26609 0.631843,0.54735 0.927188,0.8427 0.295344,0.29534 0.576606,0.60477 0.842691,0.92718 0.266086,0.32242 0.516995,0.65783 0.751633,1.00513 0.234639,0.3473 0.453008,0.7065 0.654013,1.07649 0.201005,0.37 0.384646,0.7508 0.54983,1.14131 0.165184,0.39051 0.311911,0.79073 0.439086,1.19956 0.127176,0.40883 0.2348,0.82627 0.32178,1.25124 0.08698,0.42497 0.153315,0.85745 0.197912,1.29637 0.0446,0.43891 0.06745,0.88425 0.06748,1.33493 -2.8e-5,0.45067 -0.02289,0.89602 -0.06749,1.33493 -0.0446,0.43886 -0.110934,0.87135 -0.197914,1.29635 -0.08698,0.425 -0.194606,0.8424 -0.321782,1.2512 -0.127176,0.4089 -0.273903,0.8091 -0.439087,1.1996 -0.165185,0.3905 -0.348826,0.7713 -0.549832,1.1413 -0.201005,0.37 -0.419374,0.7292 -0.654013,1.0765 -0.234639,0.3473 -0.485548,0.6827 -0.751633,1.0051 -0.266086,0.3224 -0.547347,0.6318 -0.842692,0.9272 -0.295344,0.2953 -0.604771,0.5766 -0.927188,0.8427 -0.322416,0.2661 -0.657821,0.517 -1.005122,0.7516 -0.347301,0.2346 -0.706497,0.453 -1.076495,0.654 -0.369998,0.201 -0.750798,0.3847 -1.141306,0.5498 -0.390507,0.1652 -0.790723,0.312 -1.199554,0.4391 -0.408831,0.1272 -0.826276,0.2348 -1.251242,0.3218 -0.424965,0.087 -0.857452,0.1533 -1.296366,0.1979 -0.438914,0.045 -0.884255,0.067 -1.33493,0.067 -0.450722,0 -0.896113,-0.023 -1.335077,-0.067 -0.438965,-0.044 -0.871504,-0.1108 -1.296522,-0.1978 -0.425019,-0.087 -0.842518,-0.1945 -1.251402,-0.3216 -0.408885,-0.1271 -0.809156,-0.2738 -1.199718,-0.439 -0.390563,-0.1651 -0.771418,-0.3488 -1.14147,-0.5498 -0.370053,-0.2009 -0.729303,-0.4193 -1.076657,-0.6539 -0.347354,-0.2346 -0.682812,-0.4856 -1.00528,-0.7516 -0.322468,-0.2661 -0.631946,-0.5474 -0.92734,-0.8427 -0.295393,-0.2954 -0.576703,-0.6048 -0.842834,-0.9272 -0.266131,-0.3225 -0.517084,-0.6579 -0.751764,-1.0052 -0.234681,-0.3473 -0.453089,-0.7065 -0.654131,-1.0766 -0.201042,-0.37 -0.384717,-0.7508 -0.549933,-1.1413 -0.165215,-0.3906 -0.31197,-0.7908 -0.43917,-1.1997 -0.127201,-0.4089 -0.234847,-0.8263 -0.321844,-1.2514 -0.087,-0.425 -0.153347,-0.85749 -0.197954,-1.29641 -0.04461,-0.43896 -0.06747,-0.88435 -0.0675,-1.33507 2.7e-5,-0.45072 0.02289,-0.89611 0.0675,-1.33507 0.04461,-0.43896 0.110954,-0.87149 0.19795,-1.29649 0.087,-0.42501 0.194643,-0.84249 0.321843,-1.25136 0.1272,-0.40887 0.273954,-0.80911 0.439169,-1.19965 0.165214,-0.39054 0.34889,-0.77137 0.549931,-1.14139 0.201042,-0.37002 0.41945,-0.72924 0.65413,-1.07656 0.234681,-0.34732 0.485634,-0.68274 0.751765,-1.00517 0.266131,-0.32243 0.54744,-0.63186 0.842834,-0.92721 0.295393,-0.29535 0.604871,-0.57662 0.927339,-0.8427 0.322468,-0.26608 0.657927,-0.51698 1.005281,-0.75161 0.347355,-0.23463 0.706606,-0.45299 1.076658,-0.65397 0.370053,-0.20099 0.750908,-0.38461 1.141471,-0.54976 0.390563,-0.16516 0.790835,-0.31185 1.19972,-0.43899 0.408885,-0.12714 0.826384,-0.23472 1.251404,-0.32166 0.425019,-0.0869 0.857558,-0.15321 1.296523,-0.19775 0.438966,-0.0445 0.884357,-0.0673 1.33508,-0.0673 z"
       id="path8"
       inkscape:connector-curvature="0"
       sodipodi:nodetypes="ccccccccccccccscccsccccccccscccccccccsccccscscccccccccccccccccccccsccccsccccccccscccccccccccccccccccscccccccccccscccccccssssssssssssssscssssssssssssssscssssssssssssssscsssssssssssssssc" />
    <path
       style="fill:none;fill-opacity:1;stroke:#000000;stroke-width:1.41732287;stroke-linecap:round;stroke-linejoin:round;stroke-miterlimit:4;stroke-dasharray:none;stroke-opacity:1"
       d="m 90.089989,998.29265 c 10e-7,0.3332 -0.01688,0.6625 -0.04984,0.987 -0.03296,0.3246 -0.08199,0.64442 -0.146291,0.95875 -0.0643,0.3142 -0.143866,0.6228 -0.23789,0.9251 -0.09402,0.3023 -0.202504,0.5983 -0.324634,0.887 -0.12213,0.2888 -0.257909,0.5703 -0.406528,0.8439 -0.148619,0.2736 -0.310078,0.5392 -0.483568,0.796 -0.17349,0.2568 -0.359012,0.5048 -0.555755,0.7432 -0.196744,0.2384 -0.404711,0.4672 -0.623091,0.6856 -0.21838,0.2184 -0.447173,0.4263 -0.685572,0.6231 -0.238399,0.1967 -0.486402,0.3822 -0.743202,0.5557 -0.2568,0.1735 -0.522396,0.335 -0.795979,0.4836 -0.273583,0.1486 -0.555153,0.2844 -0.843903,0.4065 -0.288749,0.1222 -0.584676,0.2306 -0.886974,0.3247 -0.302297,0.094 -0.610965,0.1736 -0.925193,0.2379 -0.314228,0.064 -0.634018,0.1133 -0.958559,0.1463 -0.324542,0.033 -0.653836,0.05 -0.987073,0.05 -0.333237,0 -0.662531,-0.017 -0.987073,-0.05 -0.324541,-0.033 -0.644331,-0.082 -0.958559,-0.1463 -0.314228,-0.064 -0.622896,-0.1439 -0.925193,-0.2379 -0.302298,-0.094 -0.598226,-0.2025 -0.886975,-0.3247 -0.288749,-0.1221 -0.570319,-0.2579 -0.843903,-0.4065 -0.273583,-0.1486 -0.539179,-0.3101 -0.795978,-0.4836 -0.2568,-0.1735 -0.504804,-0.359 -0.743202,-0.5557 -0.238399,-0.1968 -0.467193,-0.4047 -0.685573,-0.6231 -0.21838,-0.2184 -0.426346,-0.4472 -0.62309,-0.6856 -0.196744,-0.2384 -0.382266,-0.4864 -0.555756,-0.7432 -0.17349,-0.2568 -0.334949,-0.5224 -0.483568,-0.796 -0.148619,-0.2736 -0.284397,-0.5551 -0.406528,-0.8439 -0.12213,-0.2887 -0.230611,-0.5847 -0.324634,-0.887 -0.09402,-0.3023 -0.17359,-0.6109 -0.23789,-0.9251 -0.0643,-0.31433 -0.113333,-0.63415 -0.146291,-0.95875 -0.03296,-0.3245 -0.04984,-0.6538 -0.04984,-0.987 10e-7,-0.3333 0.01689,-0.6626 0.04985,-0.9871 0.03296,-0.3245 0.08199,-0.6443 0.146295,-0.9586 0.0643,-0.3142 0.143868,-0.6228 0.237893,-0.9251 0.09402,-0.3023 0.202506,-0.5983 0.324637,-0.887 0.12213,-0.2888 0.25791,-0.5703 0.406529,-0.8439 0.148619,-0.2736 0.310078,-0.5392 0.483569,-0.796 0.17349,-0.2568 0.359011,-0.5048 0.555755,-0.7432 0.196744,-0.2384 0.40471,-0.4672 0.62309,-0.6856 0.21838,-0.2183 0.447173,-0.4263 0.685571,-0.6231 0.238398,-0.1967 0.486401,-0.3822 0.743201,-0.5557 0.256799,-0.1735 0.522394,-0.335 0.795977,-0.4836 0.273582,-0.1486 0.555152,-0.2844 0.8439,-0.4065 0.288749,-0.1221 0.584676,-0.2306 0.886973,-0.3246 0.302296,-0.094 0.610963,-0.1736 0.925191,-0.2379 0.314227,-0.064 0.634016,-0.1134 0.958557,-0.1463 0.32454,-0.033 0.653833,-0.05 0.98707,-0.05 0.333237,0 0.66253,0.017 0.98707,0.05 0.324541,0.033 0.64433,0.082 0.958557,0.1463 0.314228,0.064 0.622894,0.1438 0.925191,0.2379 0.302297,0.094 0.598224,0.2025 0.886972,0.3246 0.288749,0.1221 0.570318,0.2579 0.843901,0.4065 0.273583,0.1486 0.539178,0.3101 0.795977,0.4836 0.256799,0.1735 0.504802,0.359 0.7432,0.5557 0.238399,0.1968 0.467192,0.4048 0.685572,0.6231 0.218379,0.2184 0.426346,0.4472 0.623089,0.6856 0.196744,0.2384 0.382265,0.4864 0.555756,0.7432 0.17349,0.2568 0.334949,0.5224 0.483568,0.796 0.148619,0.2736 0.284399,0.5551 0.406529,0.8439 0.122131,0.2887 0.230613,0.5847 0.324637,0.887 0.09403,0.3023 0.173592,0.6109 0.237893,0.9251 0.0643,0.3143 0.113335,0.6341 0.146295,0.9586 0.03296,0.3245 0.04984,0.6538 0.04985,0.9871 z"
       id="path6130"
       inkscape:connector-curvature="0"
       sodipodi:nodetypes="sssssssssssssssssssssssssssssssssssssssssssssssssssssssssssssssss" />
  </g>
  <g
     style="display:none"
     transform="translate(-1.1635727,-877.69461)"
     id="g6145"
     inkscape:groupmode="layer"
     inkscape:label="Mask.Front">
    <path
       sodipodi:nodetypes="ccccccccccccccscccsccccccccscccccccccsccccscscccccccccccccccccccccsccccsccccccccscccccccccccccccccccscccccccccccscccccccssssssssssssssscssssssssssssssscssssssssssssssscsssssssssssssssc"
       inkscape:connector-curvature="0"
       id="path6147"
       d="m 79.111693,976.0508 c -0.160606,10e-4 -0.337063,0.0137 -0.527343,0.0391 -0.369701,0.0435 -0.767651,0.25406 -0.869141,0.45703 -0.058,0.10873 -0.218301,1.03764 -0.363281,2.07423 -0.27545,2.02243 -0.376628,2.4134 -0.673828,2.63086 -0.39869,0.27546 -1.341248,0.50829 -1.710938,0.41406 -0.3117,-0.0797 -0.637669,-0.42224 -1.855469,-1.95899 -0.6379,-0.81187 -1.246166,-1.50785 -1.347656,-1.55859 -0.2972,-0.13048 -0.617018,-0.0927 -1.117187,0.14648 -0.6379,0.29721 -0.914135,0.52116 -1.015626,0.81836 -0.0725,0.22472 -0.02052,0.47043 0.44336,2.2754 0.37694,1.486 0.506943,2.09611 0.470703,2.27734 -0.058,0.33344 -0.391887,0.70982 -0.935547,1.07226 -0.70314,0.47843 -0.796319,0.44997 -2.949219,-0.74609 -1.09458,-0.61615 -1.855285,-0.99414 -1.978515,-0.99414 -0.10873,0 -0.291651,0.0436 -0.400391,0.10156 -0.26095,0.13048 -0.904973,0.81916 -1.064453,1.13086 -0.24646,0.47117 -0.159696,0.64561 1.152344,2.39258 1.20331,1.59475 1.347656,1.82779 1.347656,2.125 0,0.50742 -0.542461,1.44968 -0.962891,1.68164 -0.2972,0.15947 -0.696557,0.13679 -3.023437,-0.13867 -1.40628,-0.16672 -1.501024,-0.16732 -1.740234,-0.0586 -0.3262,0.15948 -0.543952,0.49436 -0.732422,1.125 -0.18122,0.60167 -0.144898,0.94161 0.101562,1.19532 0.0942,0.0942 0.935994,0.62431 1.871094,1.16797 2.05867,1.21056 2.051302,1.20218 2.007812,2.14453 -0.0435,0.72489 -0.203097,1.16088 -0.529296,1.37109 -0.101481,0.0652 -1.044061,0.36883 -2.087891,0.66602 -1.04384,0.2972 -1.972176,0.59434 -2.066406,0.65234 -0.28996,0.1957 -0.397006,0.57282 -0.353516,1.23242 0.0507,0.67403 0.181275,1.05923 0.427735,1.21873 0.0942,0.058 0.817415,0.1956 1.759765,0.3261 2.59509,0.3697 2.559925,0.3624 2.828125,0.6016 0.28271,0.2392 0.522651,0.8107 0.587891,1.3906 0.0797,0.6451 -0.0073,0.7464 -1.8125,2.1817 -0.89161,0.7031 -1.654339,1.3555 -1.705079,1.457 -0.11598,0.2682 -0.100273,0.5581 0.06641,0.9785 0.20297,0.5147 0.54429,0.9873 0.8125,1.125 0.26821,0.1377 0.282033,0.1374 2.376953,-0.4062 2.10942,-0.551 2.151794,-0.5596 2.521484,-0.3711 0.3262,0.1667 0.841093,0.762 1.007813,1.1679 0.20297,0.464 0.109111,0.7247 -0.949219,2.6094 -0.6089,1.1018 -0.986328,1.8553 -0.986328,1.9785 0,0.2972 0.160773,0.5518 0.595703,0.9649 0.47118,0.4495 0.760862,0.6094 1.101563,0.6094 0.22471,0 0.500839,-0.1823 1.943359,-1.2696 1.10182,-0.8264 1.767702,-1.2835 1.919922,-1.3125 0.3407,-0.065 0.812585,0.082 1.291015,0.4004 0.77562,0.5075 0.78856,0.6154 0.50586,2.9785 -0.23197,1.9427 -0.23197,2.2481 0,2.5235 0.25371,0.2972 1.052309,0.6158 1.574218,0.623 0.340701,0.01 0.44152,-0.023 0.59375,-0.168 0.108731,-0.1015 0.601956,-0.8829 1.109376,-1.7382 0.507419,-0.8626 0.99366,-1.6678 1.08789,-1.791 0.25371,-0.3407 0.506407,-0.4205 1.216797,-0.377 0.66689,0.043 1.065743,0.195 1.283203,0.4922 0.0725,0.1015 0.377191,1.0451 0.681641,2.1035 0.29721,1.0583 0.594353,1.9989 0.652343,2.0859 0.18847,0.29 0.57222,0.399 1.22461,0.3555 0.6669,-0.036 1.065702,-0.1799 1.232422,-0.4336 0.0797,-0.1232 0.209967,-0.856 0.398437,-2.168 0.15222,-1.0873 0.304995,-2.0453 0.333985,-2.125 0.15223,-0.4277 0.797208,-0.7827 1.580078,-0.8769 0.6524,-0.08 0.768907,0.023 2.117187,1.7187 0.65965,0.8264 1.298083,1.588 1.414063,1.6895 0.3262,0.2755 0.71674,0.2536 1.36914,-0.08 0.6089,-0.3117 0.94336,-0.6603 0.94336,-0.9648 0,-0.1232 -0.08151,-0.521 -0.175782,-0.8907 -0.76838,-2.885 -0.847318,-3.2485 -0.767578,-3.5312 0.0942,-0.3407 0.581034,-0.8403 1.095704,-1.123 0.58715,-0.319 0.716976,-0.2749 2.753906,0.8632 1.27579,0.7031 1.847504,0.9844 2.021484,0.9844 0.32619,0 0.674711,-0.2304 1.087891,-0.7305 0.42768,-0.5147 0.543417,-0.8565 0.398437,-1.1972 -0.0507,-0.1305 -0.623819,-0.9267 -1.261718,-1.7676 -0.666891,-0.8771 -1.202604,-1.653 -1.246094,-1.8125 -0.0652,-0.2175 -0.05709,-0.3404 0.03711,-0.6231 0.15948,-0.4784 0.534831,-1.0372 0.832031,-1.2402 0.31895,-0.2174 0.49422,-0.2104 2.75586,0.051 2.06592,0.2392 2.18799,0.2242 2.4707,-0.2324 0.19572,-0.3117 0.43555,-1.0946 0.43555,-1.4063 0,-0.5437 0.008,-0.5426 -2.101563,-1.7676 -1.63099,-0.9496 -1.776332,-1.0518 -1.914062,-1.3418 -0.23197,-0.4929 -0.07339,-1.62301 0.289062,-1.99991 0.24646,-0.261 0.392799,-0.31319 2.480463,-0.90039 0.92785,-0.2609 1.76709,-0.52073 1.86133,-0.58593 0.25371,-0.1667 0.34874,-0.53628 0.3125,-1.25391 -0.029,-0.70314 -0.18161,-1.06513 -0.50781,-1.22461 -0.10873,-0.0507 -1.1013,-0.21747 -2.203123,-0.37695 -1.53675,-0.21746 -2.058145,-0.3204 -2.203125,-0.42188 -0.26096,-0.19572 -0.500645,-0.65834 -0.609375,-1.1875 -0.10873,-0.54366 -0.05028,-0.94299 0.18164,-1.18945 0.0942,-0.10149 0.832662,-0.70976 1.644531,-1.34766 0.80462,-0.6379 1.522652,-1.24031 1.587892,-1.34179 0.19571,-0.29721 0.13704,-0.74627 -0.16016,-1.32618 -0.2827,-0.52192 -0.572766,-0.84101 -0.855466,-0.90625 -0.087,-0.0217 -0.861427,0.13662 -1.716797,0.36133 -2.4936,0.64515 -2.508347,0.64697 -2.841797,0.55274 -0.6089,-0.18122 -1.355386,-1.25516 -1.253906,-1.79883 0.0217,-0.15222 0.49345,-1.07163 1.03711,-2.04297 0.695889,-1.25405 0.984375,-1.84305 0.984374,-2.00977 0,-0.31895 -0.310376,-0.7609 -0.810546,-1.15234 -0.44218,-0.34794 -0.797113,-0.46364 -1.101563,-0.34766 -0.10874,0.0362 -0.849677,0.56632 -1.654297,1.16797 -0.80462,0.60891 -1.564832,1.16637 -1.695312,1.2461 -0.34795,0.21022 -0.688231,0.18057 -1.275391,-0.10938 -0.54366,-0.27545 -0.920822,-0.6367 -1.007812,-0.96289 -0.0217,-0.10874 0.05703,-1.11666 0.1875,-2.24023 0.22472,-1.95719 0.233177,-2.05237 0.117187,-2.29883 -0.14497,-0.30445 -0.761397,-0.64352 -1.435547,-0.78125 -0.72488,-0.15222 -0.783846,-0.10308 -1.972656,1.91211 -0.55816,0.9496 -1.100817,1.81314 -1.216797,1.92187 -0.18847,0.19572 -0.225719,0.20313 -0.943359,0.20313 -0.63065,0 -0.782009,-0.0283 -1.042969,-0.16602 -0.17398,-0.087 -0.362504,-0.2621 -0.427734,-0.39258 -0.0652,-0.12323 -0.362957,-1.0806 -0.660157,-2.11718 -0.36244,-1.26856 -0.58602,-1.94262 -0.6875,-2.0586 -0.190282,-0.19572 -0.535759,-0.29705 -1.017578,-0.29297 z m 1.324219,9.18555 c 0.450675,3e-5 0.896017,0.0229 1.334932,0.0675 0.438915,0.0446 0.871402,0.11093 1.296369,0.19791 0.424966,0.087 0.842412,0.19461 1.251243,0.32178 0.408831,0.12718 0.809047,0.27391 1.199556,0.43909 0.390508,0.16518 0.771308,0.34882 1.141307,0.54983 0.369998,0.201 0.729195,0.41937 1.076496,0.65401 0.347301,0.23464 0.682706,0.48555 1.005123,0.75163 0.322416,0.26609 0.631843,0.54735 0.927188,0.8427 0.295344,0.29534 0.576606,0.60477 0.842691,0.92718 0.266086,0.32242 0.516995,0.65783 0.751633,1.00513 0.234639,0.3473 0.453008,0.7065 0.654013,1.07649 0.201005,0.37 0.384646,0.7508 0.54983,1.14131 0.165184,0.39051 0.311911,0.79073 0.439086,1.19956 0.127176,0.40883 0.2348,0.82627 0.32178,1.25124 0.08698,0.42497 0.153315,0.85745 0.197912,1.29637 0.0446,0.43891 0.06745,0.88425 0.06748,1.33493 -2.8e-5,0.45067 -0.02289,0.89602 -0.06749,1.33493 -0.0446,0.43886 -0.110934,0.87136 -0.197914,1.29636 -0.08698,0.425 -0.194606,0.8424 -0.321782,1.2512 -0.127176,0.4089 -0.273903,0.8091 -0.439087,1.1996 -0.165185,0.3905 -0.348826,0.7713 -0.549832,1.1413 -0.201005,0.37 -0.419374,0.7292 -0.654013,1.0765 -0.234639,0.3473 -0.485548,0.6827 -0.751633,1.0051 -0.266086,0.3224 -0.547347,0.6318 -0.842692,0.9272 -0.295344,0.2953 -0.604771,0.5766 -0.927188,0.8427 -0.322416,0.2661 -0.657821,0.517 -1.005122,0.7516 -0.347301,0.2346 -0.706497,0.453 -1.076495,0.654 -0.369998,0.201 -0.750798,0.3847 -1.141306,0.5498 -0.390507,0.1652 -0.790723,0.312 -1.199554,0.4391 -0.408831,0.1272 -0.826276,0.2348 -1.251242,0.3218 -0.424965,0.087 -0.857452,0.1533 -1.296366,0.1979 -0.438914,0.045 -0.884255,0.067 -1.33493,0.067 -0.450722,0 -0.896113,-0.023 -1.335077,-0.067 -0.438965,-0.044 -0.871504,-0.1108 -1.296522,-0.1978 -0.425019,-0.087 -0.842518,-0.1945 -1.251402,-0.3216 -0.408885,-0.1271 -0.809156,-0.2738 -1.199718,-0.439 -0.390563,-0.1651 -0.771418,-0.3488 -1.14147,-0.5498 -0.370053,-0.2009 -0.729303,-0.4193 -1.076657,-0.6539 -0.347354,-0.2346 -0.682812,-0.4856 -1.00528,-0.7516 -0.322468,-0.2661 -0.631946,-0.5474 -0.92734,-0.8427 -0.295393,-0.2954 -0.576703,-0.6048 -0.842834,-0.9272 -0.266131,-0.3225 -0.517084,-0.6579 -0.751764,-1.0052 -0.234681,-0.3473 -0.453089,-0.7065 -0.654131,-1.0766 -0.201042,-0.37 -0.384717,-0.7508 -0.549933,-1.1413 -0.165215,-0.3906 -0.31197,-0.7908 -0.43917,-1.1997 -0.127201,-0.4089 -0.234847,-0.8263 -0.321844,-1.2514 -0.087,-0.425 -0.153347,-0.8575 -0.197954,-1.29642 -0.04461,-0.43896 -0.06747,-0.88435 -0.0675,-1.33507 2.7e-5,-0.45072 0.02289,-0.89611 0.0675,-1.33507 0.04461,-0.43896 0.110954,-0.87149 0.19795,-1.29649 0.087,-0.42501 0.194643,-0.84249 0.321843,-1.25136 0.1272,-0.40887 0.273954,-0.80911 0.439169,-1.19965 0.165214,-0.39054 0.34889,-0.77137 0.549931,-1.14139 0.201042,-0.37002 0.41945,-0.72924 0.65413,-1.07656 0.234681,-0.34732 0.485634,-0.68274 0.751765,-1.00517 0.266131,-0.32243 0.54744,-0.63186 0.842834,-0.92721 0.295393,-0.29535 0.604871,-0.57662 0.927339,-0.8427 0.322468,-0.26608 0.657927,-0.51698 1.005281,-0.75161 0.347355,-0.23463 0.706606,-0.45299 1.076658,-0.65397 0.370053,-0.20099 0.750908,-0.38461 1.141471,-0.54976 0.390563,-0.16516 0.790835,-0.31185 1.19972,-0.43899 0.408885,-0.12714 0.826384,-0.23472 1.251404,-0.32166 0.425019,-0.0869 0.857558,-0.15321 1.296523,-0.19775 0.438966,-0.0445 0.884357,-0.0673 1.33508,-0.0673 z"
       style="fill:#800000;stroke:none" />
    <path
       sodipodi:nodetypes="sssssssssssssssssssssssssssssssssssssssssssssssssssssssssssssssss"
       inkscape:connector-curvature="0"
       id="path6149"
       d="m 90.089989,998.29265 c 10e-7,0.3332 -0.01688,0.6625 -0.04984,0.987 -0.03296,0.3246 -0.08199,0.64442 -0.146291,0.95875 -0.0643,0.3142 -0.143866,0.6228 -0.23789,0.9251 -0.09402,0.3023 -0.202504,0.5983 -0.324634,0.887 -0.12213,0.2888 -0.257909,0.5703 -0.406528,0.8439 -0.148619,0.2736 -0.310078,0.5392 -0.483568,0.796 -0.17349,0.2568 -0.359012,0.5048 -0.555755,0.7432 -0.196744,0.2384 -0.404711,0.4672 -0.623091,0.6856 -0.21838,0.2184 -0.447173,0.4263 -0.685572,0.6231 -0.238399,0.1967 -0.486402,0.3822 -0.743202,0.5557 -0.2568,0.1735 -0.522396,0.335 -0.795979,0.4836 -0.273583,0.1486 -0.555153,0.2844 -0.843903,0.4065 -0.288749,0.1222 -0.584676,0.2306 -0.886974,0.3247 -0.302297,0.094 -0.610965,0.1736 -0.925193,0.2379 -0.314228,0.064 -0.634018,0.1133 -0.958559,0.1463 -0.324542,0.033 -0.653836,0.05 -0.987073,0.05 -0.333237,0 -0.662531,-0.017 -0.987073,-0.05 -0.324541,-0.033 -0.644331,-0.082 -0.958559,-0.1463 -0.314228,-0.064 -0.622896,-0.1439 -0.925193,-0.2379 -0.302298,-0.094 -0.598226,-0.2025 -0.886975,-0.3247 -0.288749,-0.1221 -0.570319,-0.2579 -0.843903,-0.4065 -0.273583,-0.1486 -0.539179,-0.3101 -0.795978,-0.4836 -0.2568,-0.1735 -0.504804,-0.359 -0.743202,-0.5557 -0.238399,-0.1968 -0.467193,-0.4047 -0.685573,-0.6231 -0.21838,-0.2184 -0.426346,-0.4472 -0.62309,-0.6856 -0.196744,-0.2384 -0.382266,-0.4864 -0.555756,-0.7432 -0.17349,-0.2568 -0.334949,-0.5224 -0.483568,-0.796 -0.148619,-0.2736 -0.284397,-0.5551 -0.406528,-0.8439 -0.12213,-0.2887 -0.230611,-0.5847 -0.324634,-0.887 -0.09402,-0.3023 -0.17359,-0.6109 -0.23789,-0.9251 -0.0643,-0.31433 -0.113333,-0.63415 -0.146291,-0.95875 -0.03296,-0.3245 -0.04984,-0.6538 -0.04984,-0.987 10e-7,-0.3333 0.01689,-0.6626 0.04985,-0.9871 0.03296,-0.3245 0.08199,-0.6443 0.146295,-0.9586 0.0643,-0.3142 0.143868,-0.6228 0.237893,-0.9251 0.09402,-0.3023 0.202506,-0.5983 0.324637,-0.887 0.12213,-0.2888 0.25791,-0.5703 0.406529,-0.8439 0.148619,-0.2736 0.310078,-0.5392 0.483569,-0.796 0.17349,-0.2568 0.359011,-0.5048 0.555755,-0.7432 0.196744,-0.2384 0.40471,-0.4672 0.62309,-0.6856 0.21838,-0.2183 0.447173,-0.4263 0.685571,-0.6231 0.238398,-0.1967 0.486401,-0.3822 0.743201,-0.5557 0.256799,-0.1735 0.522394,-0.335 0.795977,-0.4836 0.273582,-0.1486 0.555152,-0.2844 0.8439,-0.4065 0.288749,-0.1221 0.584676,-0.2306 0.886973,-0.3246 0.302296,-0.094 0.610963,-0.1736 0.925191,-0.2379 0.314227,-0.064 0.634016,-0.1134 0.958557,-0.1463 0.32454,-0.033 0.653833,-0.05 0.98707,-0.05 0.333237,0 0.66253,0.017 0.98707,0.05 0.324541,0.033 0.64433,0.082 0.958557,0.1463 0.314228,0.064 0.622894,0.1438 0.925191,0.2379 0.302297,0.094 0.598224,0.2025 0.886972,0.3246 0.288749,0.1221 0.570318,0.2579 0.843901,0.4065 0.273583,0.1486 0.539178,0.3101 0.795977,0.4836 0.256799,0.1735 0.504802,0.359 0.7432,0.5557 0.238399,0.1968 0.467192,0.4048 0.685572,0.6231 0.218379,0.2184 0.426346,0.4472 0.623089,0.6856 0.196744,0.2384 0.382265,0.4864 0.555756,0.7432 0.17349,0.2568 0.334949,0.5224 0.483568,0.796 0.148619,0.2736 0.284399,0.5551 0.406529,0.8439 0.122131,0.2887 0.230613,0.5847 0.324637,0.887 0.09403,0.3023 0.173592,0.6109 0.237893,0.9251 0.0643,0.3143 0.113335,0.6341 0.146295,0.9586 0.03296,0.3245 0.04984,0.6538 0.04985,0.9871 z"
       style="fill:none;fill-opacity:1;stroke:#000000;stroke-width:1.41732287;stroke-linecap:round;stroke-linejoin:round;stroke-miterlimit:4;stroke-dasharray:none;stroke-opacity:1" />
  </g>
  <g
     inkscape:label="Mask"
     inkscape:groupmode="layer"
     id="g6171"
     transform="translate(-1.1635727,-877.69461)"
     style="display:none">
    <path
       style="fill:#e50000;fill-opacity:1;stroke:#000000;stroke-width:1.85012841;stroke-linecap:round;stroke-linejoin:round;stroke-miterlimit:4;stroke-dasharray:none;stroke-opacity:1"
       d="m 92.96136,998.21138 c 10e-7,0.43513 -0.02204,0.86519 -0.06508,1.28897 -0.04304,0.42385 -0.107066,0.84145 -0.191033,1.25195 -0.08397,0.4103 -0.187867,0.8132 -0.310648,1.208 -0.122775,0.3948 -0.264438,0.7813 -0.423921,1.1583 -0.159483,0.3771 -0.336789,0.7447 -0.530862,1.102 -0.194074,0.3572 -0.404914,0.7041 -0.631465,1.0394 -0.226551,0.3354 -0.468814,0.6593 -0.72573,0.9705 -0.256916,0.3113 -0.528489,0.6102 -0.81366,0.8953 -0.285169,0.2852 -0.583938,0.5567 -0.89525,0.8137 -0.311311,0.2569 -0.635165,0.4991 -0.970506,0.7257 -0.335341,0.2265 -0.682168,0.4374 -1.039424,0.6315 -0.357257,0.194 -0.724944,0.3714 -1.102007,0.5308 -0.377061,0.1595 -0.763495,0.3011 -1.158249,0.424 -0.394753,0.1227 -0.797825,0.2267 -1.208159,0.3107 -0.410333,0.084 -0.827928,0.1479 -1.251729,0.191 -0.423801,0.043 -0.853808,0.066 -1.288963,0.066 -0.435156,0 -0.865163,-0.022 -1.288964,-0.066 -0.4238,-0.043 -0.841397,-0.1071 -1.251729,-0.191 -0.410333,-0.083 -0.813405,-0.188 -1.208158,-0.3107 -0.394754,-0.1227 -0.78119,-0.2645 -1.158252,-0.424 -0.37706,-0.1594 -0.744747,-0.3368 -1.102005,-0.5308 -0.357257,-0.1941 -0.704084,-0.405 -1.039424,-0.6315 -0.33534,-0.2266 -0.659195,-0.4688 -0.970506,-0.7257 -0.311312,-0.257 -0.610081,-0.5285 -0.895252,-0.8137 -0.28517,-0.2851 -0.556741,-0.584 -0.813658,-0.8953 -0.256917,-0.3112 -0.49918,-0.6351 -0.725731,-0.9705 -0.226551,-0.3353 -0.437391,-0.6822 -0.631465,-1.0394 -0.194073,-0.3573 -0.371378,-0.7249 -0.530862,-1.102 -0.159482,-0.377 -0.301141,-0.7635 -0.423922,-1.1583 -0.122774,-0.3948 -0.226681,-0.7977 -0.310647,-1.208 -0.08396,-0.4105 -0.147995,-0.8281 -0.191033,-1.25195 -0.04304,-0.42378 -0.06508,-0.85384 -0.06508,-1.28897 10e-7,-0.43521 0.02206,-0.86518 0.0651,-1.28894 0.04304,-0.42375 0.107066,-0.84138 0.191038,-1.25182 0.08397,-0.41027 0.187869,-0.81326 0.310651,-1.20801 0.122776,-0.39476 0.264442,-0.78129 0.423926,-1.15828 0.159482,-0.37713 0.33679,-0.74473 0.530863,-1.10201 0.194074,-0.35728 0.404914,-0.70411 0.631466,-1.03945 0.226551,-0.33534 0.468813,-0.65919 0.72573,-0.97051 0.256917,-0.3113 0.528488,-0.61008 0.813658,-0.89528 0.285171,-0.28507 0.583939,-0.55669 0.895249,-0.81367 0.311311,-0.25686 0.635164,-0.4991 0.970505,-0.72566 0.33534,-0.22656 0.682165,-0.43746 1.039423,-0.63151 0.357255,-0.19405 0.724942,-0.37138 1.102001,-0.53082 0.377062,-0.15944 0.763496,-0.30113 1.158249,-0.42388 0.394752,-0.12275 0.797823,-0.22669 1.208156,-0.31066 0.410331,-0.0836 0.827926,-0.14809 1.251726,-0.19105 0.423799,-0.0431 0.853804,-0.0653 1.288959,-0.0653 0.435156,0 0.865162,0.0222 1.28896,0.0653 0.423801,0.0431 0.841395,0.10709 1.251727,0.19105 0.410333,0.0836 0.813402,0.18778 1.208155,0.31066 0.394753,0.12275 0.781188,0.26444 1.158248,0.42388 0.377061,0.15944 0.744746,0.33677 1.102003,0.53082 0.357257,0.19405 0.704083,0.40495 1.039422,0.63151 0.33534,0.22656 0.659193,0.4688 0.970503,0.72566 0.311312,0.25698 0.610081,0.5286 0.895251,0.81367 0.285169,0.2852 0.556742,0.58398 0.813657,0.89528 0.256918,0.31132 0.499179,0.63517 0.725731,0.97051 0.226551,0.33534 0.437391,0.68217 0.631465,1.03945 0.194073,0.35728 0.371381,0.72488 0.530863,1.10201 0.159484,0.37699 0.301145,0.76352 0.423926,1.15828 0.122788,0.39475 0.226684,0.79774 0.310651,1.20801 0.08396,0.41044 0.147998,0.82807 0.191038,1.25182 0.04304,0.42376 0.06508,0.85373 0.0651,1.28894 z"
       id="path6175"
       inkscape:connector-curvature="0"
       sodipodi:nodetypes="sssssssssssssssssssssssssssssssssssssssssssssssssssssssssssssssss" />
  </g>
  <g
     inkscape:groupmode="layer"
     id="layer2"
     inkscape:label="Led"
     style="display:none">
    <ellipse
       style="fill:#e50000;fill-opacity:1;stroke:#000000;stroke-width:1.86400795;stroke-linecap:round;stroke-linejoin:round;stroke-miterlimit:4;stroke-dasharray:none;stroke-opacity:1"
       id="path6180"
       cx="-60.061485"
       cy="50.221939"
       rx="13.241224"
       ry="16.784531" />
  </g>
  <g
     inkscape:label="Edge.Cuts.1"
     inkscape:groupmode="layer"
     id="g4149"
     transform="translate(-1.1635727,-877.69461)"
     style="display:none">
    <path
       sodipodi:nodetypes="cssssssscssscssssssssssscssscssscssssssssssssssssssscssssssssssssssscssssssssssssssssssssssscssscssscssscssssssssssscssssccccccccssscssssssssssssssscssscssscssssssssssscssscssssssscssscssscssscssscssssssscssscssscssscsssssssssssssssscccccccsssssssscssscssscssssssssssssssssssssssssssscsssccccccccsssscssssssssssssssscssscssscssssssssssscssscssscssscssscssssssscssscssscsssccccc"
       style="fill:none;fill-opacity:1;stroke:#e8b913;stroke-width:1;stroke-miterlimit:4;stroke-dasharray:none;stroke-opacity:1"
       d="m 103.6725,1089.8518 c -0.66488,-0.1441 -1.32156,-0.2927 -1.97103,-0.4463 -0.64948,-0.1536 -1.29175,-0.3121 -1.927821,-0.4759 -0.63607,-0.1638 -1.265939,-0.3329 -1.890607,-0.5077 -0.624667,-0.1747 -1.244132,-0.355 -1.859397,-0.5414 -0.632652,-0.1916 -1.260863,-0.3896 -1.885722,-0.5942 -0.624858,-0.2047 -1.246363,-0.416 -1.865601,-0.6345 -0.619238,-0.2184 -1.236209,-0.444 -1.852,-0.677 -0.615791,-0.2331 -1.230401,-0.4736 -1.844917,-0.722 -0.594736,-0.2404 -1.189386,-0.4881 -1.784934,-0.7436 -0.595548,-0.2555 -1.191995,-0.5186 -1.790327,-0.7899 -0.598332,-0.2712 -1.198548,-0.5506 -1.801635,-0.8383 -0.603087,-0.2877 -1.209044,-0.5838 -1.818857,-0.8887 -0.818162,-0.409 -1.603851,-0.8092 -2.358425,-1.2013 -0.754573,-0.3922 -1.478032,-0.7763 -2.171734,-1.1533 -0.693702,-0.3769 -1.357648,-0.7468 -1.993195,-1.1103 -0.635548,-0.3636 -1.242697,-0.7209 -1.822808,-1.0728 -0.832993,-0.5053 -1.610234,-0.9995 -2.335746,-1.4851 -0.725513,-0.4856 -1.399297,-0.9627 -2.025374,-1.4338 -0.626078,-0.4712 -1.204449,-0.9363 -1.739136,-1.3981 -0.534687,-0.4618 -1.02569,-0.9203 -1.477032,-1.3779 -0.27655,-0.2804 -0.572118,-0.5701 -0.869561,-0.8536 -0.297443,-0.2835 -0.59676,-0.5609 -0.880809,-0.8166 -0.284049,-0.2558 -0.552828,-0.4899 -0.789195,-0.687 -0.236367,-0.1971 -0.440322,-0.3572 -0.59472,-0.4648 -0.388369,-0.2707 -0.793417,-0.5825 -1.211348,-0.9311 -0.417932,-0.3486 -0.848747,-0.734 -1.288652,-1.152 -0.439905,-0.4181 -0.888899,-0.8687 -1.343189,-1.3477 -0.454289,-0.479 -0.913874,-0.9864 -1.37496,-1.518 -0.37035,-0.4269 -0.741669,-0.8694 -1.11199,-1.3253 -0.370321,-0.4559 -0.739644,-0.9252 -1.106003,-1.4057 -0.366358,-0.4804 -0.729753,-0.9721 -1.088217,-1.4728 -0.358464,-0.5007 -0.711998,-1.0103 -1.058636,-1.5268 -0.364151,-0.5426 -0.720237,-1.0855 -1.068129,-1.6287 -0.347891,-0.5431 -0.687588,-1.0863 -1.018961,-1.6294 -0.331373,-0.5431 -0.654422,-1.086 -0.969018,-1.6285 -0.314595,-0.5426 -0.620738,-1.0847 -0.918298,-1.6261 -0.317099,-0.577 -0.624454,-1.1532 -0.921907,-1.7282 -0.297453,-0.5751 -0.585004,-1.1491 -0.862496,-1.7216 -0.277492,-0.5725 -0.544924,-1.1436 -0.802139,-1.7129 -0.257216,-0.5693 -0.504214,-1.1368 -0.740838,-1.7023 -0.256607,-0.6132 -0.501018,-1.2239 -0.733031,-1.8318 -0.232014,-0.6078 -0.45163,-1.2128 -0.658648,-1.8144 -0.207018,-0.6016 -0.401437,-1.2 -0.583058,-1.7946 -0.181621,-0.5945 -0.350443,-1.1854 -0.506265,-1.7721 -0.132768,-0.4999 -0.240222,-0.8874 -0.333932,-1.1809 -0.09371,-0.2935 -0.173675,-0.493 -0.251466,-0.617 -0.07779,-0.124 -0.153408,-0.1725 -0.23842,-0.1638 -0.08501,0.01 -0.17942,0.074 -0.294794,0.1787 -0.07154,0.065 -0.191643,0.1507 -0.34739,0.2507 -0.155747,0.1 -0.347139,0.2139 -0.56126,0.3345 -0.21412,0.1207 -0.450969,0.248 -0.69763,0.3748 -0.246661,0.1267 -0.503134,0.2529 -0.756502,0.3712 -0.432423,0.202 -0.777292,0.356 -1.102984,0.4703 -0.325691,0.1144 -0.632205,0.1891 -0.987919,0.2326 -0.355714,0.043 -0.760628,0.056 -1.283119,0.045 -0.522491,-0.011 -1.162558,-0.044 -1.98858,-0.093 -0.990826,-0.058 -1.757372,-0.1109 -2.405359,-0.2024 -0.647988,-0.091 -1.177417,-0.2215 -1.694012,-0.4334 -0.516595,-0.2119 -1.020355,-0.5056 -1.617003,-0.9246 -0.596648,-0.4189 -1.286185,-0.9631 -2.174333,-1.6759 -0.378101,-0.3035 -0.742441,-0.6082 -1.094878,-0.9163 -0.352436,-0.3082 -0.692968,-0.6198 -1.023455,-0.937 -0.330486,-0.3171 -0.650927,-0.6399 -0.963179,-0.9704 -0.312252,-0.3304 -0.616316,-0.6686 -0.91405,-1.0167 -0.282718,-0.3305 -0.559726,-0.6699 -0.832616,-1.0201 -0.27289,-0.3502 -0.541662,-0.7111 -0.807908,-1.0846 -0.266246,-0.3736 -0.529965,-0.7597 -0.792751,-1.1602 -0.262785,-0.4005 -0.524636,-0.8155 -0.787145,-1.2467 -0.3371,-0.5538 -0.658214,-1.095 -0.964868,-1.6276 -0.306654,-0.5326 -0.598848,-1.0567 -0.878104,-1.5763 -0.279257,-0.5195 -0.545578,-1.0346 -0.800486,-1.5491 -0.254909,-0.5146 -0.498405,-1.0287 -0.732014,-1.5463 -0.235955,-0.5228 -0.461822,-1.0493 -0.679171,-1.5835 -0.21735,-0.5342 -0.426182,-1.0762 -0.628069,-1.6301 -0.201886,-0.5539 -0.396827,-1.1198 -0.586393,-1.7017 -0.189565,-0.5819 -0.373756,-1.1799 -0.554144,-1.7982 -0.149022,-0.5108 -0.295448,-1.0353 -0.440164,-1.576 -0.144716,-0.5407 -0.287721,-1.0976 -0.429901,-1.673 -0.14218,-0.5754 -0.283535,-1.1692 -0.42495,-1.7839 -0.141415,-0.6147 -0.282891,-1.2503 -0.425313,-1.909 -0.160772,-0.7436 -0.298448,-1.4844 -0.412954,-2.2262 -0.114506,-0.7417 -0.205843,-1.4844 -0.273939,-2.2318 -0.06809,-0.7474 -0.112949,-1.4996 -0.134488,-2.26016 -0.02154,-0.76058 -0.01977,-1.52963 0.0054,-2.31089 0.02245,-0.69716 0.06353,-1.40403 0.123279,-2.1233 0.05975,-0.71927 0.138176,-1.45093 0.235329,-2.19764 0.09715,-0.74672 0.213032,-1.50849 0.347691,-2.28798 0.134658,-0.77949 0.288095,-1.5767 0.460363,-2.3943 0.04866,-0.23097 0.07805,-0.41435 0.07163,-0.57373 -0.0064,-0.15938 -0.04865,-0.29475 -0.143209,-0.42972 -0.09456,-0.13496 -0.241461,-0.26951 -0.457224,-0.42722 -0.215762,-0.15772 -0.500389,-0.33861 -0.87041,-0.56626 -0.221525,-0.1363 -0.4974794,-0.32809 -0.80651,-0.55796 C 9.2977964,985.51086 8.9556892,985.24291 8.6018577,984.9543 8.2480261,984.66568 7.8824702,984.35641 7.5265421,984.04388 7.1706139,983.73136 6.8243136,983.41559 6.5089932,983.114 5.9945387,982.62193 5.5220377,982.11836 5.0910178,981.60523 4.6599979,981.0921 4.2704591,980.56941 3.9219292,980.03911 3.5733993,979.50882 3.2658783,978.97091 2.9988937,978.42734 2.7319092,977.88377 2.5054611,977.33453 2.3190773,976.78159 2.1085759,976.15709 1.949178,975.52786 1.840203,974.8967 c -0.1089749,-0.63116 -0.1675268,-1.26425 -0.1763361,-1.89646 -0.00881,-0.63221 0.032124,-1.26355 0.1221195,-1.8912 0.089995,-0.62765 0.2290532,-1.25162 0.4164927,-1.8691 0.1730873,-0.5702 0.387431,-1.13486 0.6424951,-1.69178 0.2550642,-0.55692 0.5508488,-1.10609 0.8868183,-1.64531 0.3359694,-0.53922 0.7121235,-1.06849 1.1279267,-1.58559 0.4158032,-0.5171 0.8712553,-1.02203 1.3658206,-1.51259 0.4140412,-0.41069 0.8554963,-0.8113 1.3240506,-1.20054 0.4685543,-0.38924 0.9642078,-0.76711 1.4866462,-1.13231 0.5224384,-0.36519 1.0716614,-0.71772 1.6473554,-1.05629 0.575693,-0.33856 1.177857,-0.66316 1.806177,-0.9725 0.342652,-0.1687 0.712787,-0.33915 1.103832,-0.50924 0.391045,-0.17009 0.803001,-0.33981 1.229294,-0.50703 0.426293,-0.16722 0.866924,-0.33194 1.31532,-0.49204 0.448395,-0.16009 0.904556,-0.31556 1.361908,-0.46428 0.466829,-0.15179 0.934899,-0.29655 1.39722,-0.43201 0.462322,-0.13545 0.918895,-0.2616 1.36273,-0.37619 0.443835,-0.11459 0.874931,-0.2176 1.286299,-0.30679 0.411367,-0.0892 0.803006,-0.16455 1.167926,-0.22382 l 0.293327,-0.0476 0.293327,-0.0476 0.293327,-0.0476 0.293327,-0.0476 0.01866,-1.4877 0.01866,-1.48769 0.01866,-1.4877 0.01866,-1.4877 c 0.01044,-0.83259 0.02805,-1.65824 0.05282,-2.47693 0.02477,-0.81869 0.0567,-1.63041 0.09577,-2.43514 0.03907,-0.80473 0.08529,-1.60247 0.138644,-2.39318 0.05335,-0.79072 0.113837,-1.57441 0.181443,-2.35105 0.07236,-0.8312 0.152868,-1.65433 0.241521,-2.46934 0.08865,-0.81501 0.185449,-1.62192 0.290371,-2.42067 0.104922,-0.79875 0.21797,-1.58936 0.339129,-2.37178 0.121159,-0.78242 0.25043,-1.55666 0.387796,-2.32268 0.14741,-0.82203 0.304144,-1.63459 0.470182,-2.43764 0.166038,-0.80306 0.34138,-1.5966 0.526009,-2.3806 0.184629,-0.78399 0.378543,-1.55843 0.581725,-2.32328 0.203181,-0.76484 0.41563,-1.52009 0.637327,-2.2657 0.237715,-0.79948 0.486062,-1.58788 0.74502,-2.36514 0.258958,-0.77725 0.528526,-1.54338 0.808681,-2.29831 0.280155,-0.75493 0.570897,-1.49866 0.872203,-2.23116 0.301306,-0.73249 0.613175,-1.45374 0.935586,-2.16369 0.343032,-0.75536 0.697997,-1.49793 1.064866,-2.22764 0.36687,-0.72971 0.745645,-1.44656 1.136297,-2.1505 0.390652,-0.70393 0.79318,-1.39494 1.207558,-2.07297 0.414378,-0.67802 0.840605,-1.34306 1.278652,-1.99505 0.457322,-0.68068 0.927528,-1.34713 1.410587,-1.99928 0.483059,-0.65215 0.978971,-1.29 1.487704,-1.91348 0.508733,-0.62348 1.030287,-1.23258 1.56463,-1.82724 0.534344,-0.59466 1.081477,-1.17487 1.641368,-1.74056 0.567321,-0.57319 1.147741,-1.13148 1.741227,-1.67478 0.593486,-0.5433 1.200038,-1.07161 1.819623,-1.58486 0.619585,-0.51325 1.252203,-1.01143 1.897821,-1.49448 0.645618,-0.48304 1.304236,-0.95094 1.975821,-1.40363 0.623785,-0.42046 1.251406,-0.82722 1.883845,-1.22059 0.63244,-0.39336 1.269697,-0.77333 1.912754,-1.14022 0.643057,-0.36689 1.291913,-0.7207 1.947551,-1.06174 0.655637,-0.34104 1.318056,-0.66931 1.988237,-0.98513 0.658293,-0.31021 1.324076,-0.60841 1.99828,-0.89488 0.674203,-0.28647 1.356826,-0.56122 2.048799,-0.82455 0.691974,-0.26332 1.393298,-0.51522 2.104902,-0.75599 0.711604,-0.24077 1.433488,-0.47041 2.166583,-0.68922 0.680363,-0.20307 1.370383,-0.39681 2.070802,-0.58145 0.700419,-0.18464 1.411238,-0.36019 2.133199,-0.52688 0.721962,-0.1667 1.455067,-0.32453 2.200058,-0.47375 0.744992,-0.14921 1.50187,-0.28981 2.271378,-0.42202 0.692584,-0.11899 1.395399,-0.2312 2.108988,-0.33678 0.713589,-0.10559 1.437951,-0.20456 2.173629,-0.29708 0.735678,-0.0925 1.482671,-0.17859 2.241522,-0.25839 0.758851,-0.0798 1.52956,-0.15333 2.312668,-0.22076 0.608314,-0.0524 1.208392,-0.0983 1.801802,-0.1378 0.59341,-0.0395 1.180152,-0.0724 1.761793,-0.0988 0.581642,-0.0264 1.158183,-0.0462 1.731192,-0.0594 0.57301,-0.0132 1.142487,-0.0197 1.709999,-0.0195 0.582836,2.1e-4 1.163601,0.007 1.743991,0.022 0.580391,0.0145 1.160408,0.0361 1.74175,0.065 0.581341,0.0289 1.164008,0.065 1.749698,0.10852 0.58569,0.0435 1.174403,0.0943 1.767837,0.15252 0.554751,0.0544 1.113627,0.11534 1.678017,0.1828 0.564389,0.0675 1.134293,0.14146 1.711099,0.22208 0.5768,0.0806 1.1605,0.16784 1.7525,0.26174 0.59199,0.0939 1.19227,0.19449 1.80223,0.30182 0.82118,0.1445 1.63388,0.30271 2.43785,0.47453 0.80397,0.17182 1.59922,0.35724 2.38547,0.55616 0.78626,0.19892 1.56353,0.41133 2.33156,0.63711 0.76802,0.22579 1.52681,0.46495 2.27609,0.71738 0.78672,0.26504 1.56296,0.5447 2.32843,0.83886 0.76548,0.29415 1.52018,0.60279 2.26381,0.9258 0.74363,0.323 1.4762,0.66036 2.19739,1.01195 0.7212,0.35159 1.43103,0.71741 2.1292,1.09732 0.72315,0.39351 1.43379,0.80214 2.13159,1.22574 0.69779,0.42361 1.38275,0.86219 2.05452,1.3156 0.67178,0.45342 1.33038,0.92166 1.97548,1.40458 0.6451,0.48293 1.27669,0.98054 1.89445,1.49268 0.58546,0.48537 1.25779,1.09436 1.94793,1.75442 0.69013,0.66007 1.39808,1.37122 2.05478,2.06093 0.65669,0.68971 1.26215,1.35798 1.7473,1.93228 0.48515,0.57431 0.85,1.05464 1.02549,1.36848 0.25945,0.46399 0.58548,0.98328 0.93215,1.498 0.34666,0.51472 0.71397,1.02488 1.05597,1.4706 0.34201,0.44572 0.65871,0.82701 0.90418,1.08399 0.24546,0.25699 0.41969,0.38968 0.47674,0.33819 0.0364,-0.0329 0.065,-0.0534 0.0855,-0.0625 0.0205,-0.009 0.0329,-0.007 0.037,0.007 0.004,0.0132 -1.5e-4,0.0371 -0.013,0.0709 -0.0128,0.0338 -0.0342,0.0776 -0.0644,0.1305 -0.0302,0.0529 -0.0213,0.16795 0.0206,0.33057 0.0419,0.16262 0.11683,0.37279 0.21859,0.61583 0.10176,0.24304 0.23037,0.51896 0.3797,0.81309 0.14933,0.29413 0.31938,0.60647 0.504,0.92235 0.31732,0.54291 0.63021,1.11211 0.93803,1.70559 0.30781,0.59349 0.61054,1.21126 0.90753,1.85131 0.29699,0.64005 0.58823,1.30237 0.87308,1.98495 0.28484,0.68259 0.56329,1.38543 0.83467,2.10653 0.23455,0.62322 0.46383,1.26008 0.6874,1.90927 0.22358,0.6492 0.44145,1.31072 0.65321,1.98329 0.21175,0.67256 0.41737,1.35616 0.61645,2.0495 0.19907,0.69334 0.3916,1.39641 0.57715,2.10793 0.1732,0.66416 0.34032,1.33568 0.50102,2.01349 0.1607,0.67781 0.31497,1.36192 0.46247,2.05128 0.1475,0.68935 0.28823,1.38394 0.42184,2.08272 0.13361,0.69879 0.26011,1.40175 0.37914,2.10785 0.13684,0.81176 0.26329,1.60085 0.38035,2.37824 0.11706,0.7774 0.22473,1.5431 0.32405,2.30808 0.0993,0.76498 0.19026,1.52924 0.27386,2.30375 0.0836,0.77451 0.15987,1.55927 0.22981,2.36526 0.0596,0.68715 0.11465,1.38972 0.16571,2.11452 0.0511,0.72481 0.0982,1.47184 0.14192,2.24789 0.0438,0.77606 0.0842,1.58114 0.1219,2.42205 0.0377,0.84091 0.0727,1.71764 0.10568,2.637 l 0.0559,1.55993 0.0559,1.55993 0.0559,1.55992 0.0559,1.55993 0.78726,0.0553 0.78726,0.0553 0.78726,0.0553 0.78726,0.0553 c 0.63142,0.0444 1.24594,0.0988 1.8435,0.16336 0.59756,0.0645 1.17816,0.13909 1.74176,0.22371 0.5636,0.0846 1.11019,0.17928 1.63972,0.28396 0.52953,0.10469 1.04201,0.21941 1.53737,0.34414 0.63343,0.1595 1.23889,0.33536 1.81625,0.52757 0.57737,0.19221 1.12665,0.40076 1.64774,0.62563 0.52109,0.22486 1.01398,0.46603 1.47857,0.72349 0.46459,0.25746 0.90087,0.53119 1.30875,0.82118 0.22285,0.15845 0.44569,0.30393 0.6577,0.43128 0.212,0.12735 0.41317,0.23656 0.59266,0.32244 0.17949,0.0859 0.33731,0.14845 0.46263,0.18251 0.12532,0.0341 0.21813,0.0396 0.26761,0.0115 0.0495,-0.0281 0.0898,-0.0473 0.12039,-0.058 0.0306,-0.0107 0.0513,-0.0128 0.0617,-0.007 0.0104,0.006 0.0104,0.0203 -7e-4,0.0423 -0.011,0.022 -0.0331,0.0519 -0.0668,0.0892 -0.0337,0.0373 -0.0349,0.10725 -0.008,0.20172 0.0267,0.0945 0.0813,0.21343 0.15914,0.34874 0.0778,0.13531 0.17879,0.28696 0.29827,0.44679 0.11948,0.15982 0.25746,0.32782 0.40924,0.49582 0.26665,0.29515 0.52398,0.62275 0.76995,0.97701 0.24597,0.35426 0.48057,0.73519 0.70176,1.137 0.22119,0.40181 0.42896,0.82451 0.62128,1.26231 0.19231,0.4378 0.36916,0.89071 0.52849,1.35294 0.15071,0.43719 0.28574,0.88273 0.40338,1.33172 0.11764,0.44898 0.21787,0.90142 0.29898,1.35241 0.0811,0.451 0.14307,0.90055 0.18416,1.34377 0.0411,0.44322 0.0613,0.88011 0.059,1.30577 -0.005,0.87921 -0.0429,1.73455 -0.11407,2.56611 -0.0712,0.83156 -0.17552,1.63935 -0.31311,2.42346 -0.13758,0.78412 -0.30842,1.54456 -0.51257,2.28143 -0.20415,0.73687 -0.44162,1.45017 -0.71248,2.14001 -0.2978,0.75846 -0.63597,1.48854 -1.0146,2.1904 -0.37863,0.70186 -0.79773,1.37548 -1.25738,2.02102 -0.45965,0.64553 -0.95986,1.26297 -1.50073,1.85246 -0.54086,0.58948 -1.12238,1.15101 -1.74466,1.68472 -0.56103,0.48118 -1.15518,0.93975 -1.78254,1.3758 -0.62735,0.43605 -1.2879,0.84959 -1.98172,1.24072 -0.69382,0.39113 -1.42091,0.75985 -2.18134,1.10625 -0.76043,0.3464 -1.55419,0.6705 -2.38137,0.97238 -0.36979,0.13496 -0.77095,0.27328 -1.1794,0.40777 -0.40846,0.13448 -0.82421,0.26511 -1.22318,0.38469 -0.39896,0.11958 -0.78115,0.2281 -1.12249,0.31834 -0.34133,0.0902 -0.6418,0.16221 -0.87735,0.20868 -0.23553,0.0465 -0.50279,0.10019 -0.78416,0.15745 -0.28136,0.0573 -0.57683,0.11808 -0.86879,0.17879 -0.29195,0.0607 -0.58039,0.12132 -0.8477,0.17816 -0.26731,0.0568 -0.51349,0.1099 -0.72091,0.15554 l -0.37713,0.083 -0.37714,0.083 -0.37714,0.083 -0.37713,0.083 0.012,1.28692 0.012,1.28691 0.012,1.28692 0.012,1.28692 c 0.006,0.6435 0.012,1.2869 0.0176,1.8901 0.006,0.6033 0.0109,1.1663 0.0154,1.6489 0.005,0.4826 0.008,0.8847 0.0109,1.1662 0.003,0.2815 0.004,0.4424 0.004,0.4424 0.008,0.8869 0.0155,1.7112 0.0209,2.483 0.005,0.7718 0.009,1.491 0.01,2.1675 9.5e-4,0.6766 -7e-4,1.3104 -0.006,1.9115 -0.005,0.6011 -0.0134,1.1695 -0.0258,1.715 -0.0165,0.7245 -0.0404,1.4087 -0.0732,2.0758 -0.0329,0.6672 -0.0748,1.3173 -0.12753,1.9736 -0.0528,0.6563 -0.11633,1.3188 -0.19252,2.0107 -0.0762,0.692 -0.165,1.4133 -0.26819,2.1873 -0.0718,0.5385 -0.15055,1.1024 -0.23689,1.6997 -0.0863,0.5973 -0.18022,1.2279 -0.28229,1.8996 -0.10207,0.6717 -0.21231,1.3845 -0.33132,2.1463 -0.11901,0.7618 -0.24678,1.5726 -0.38393,2.4401 -0.0437,0.2765 -0.11426,0.649 -0.20427,1.0852 -0.09,0.4362 -0.1995,0.9361 -0.32112,1.4678 -0.12162,0.5317 -0.25538,1.095 -0.39394,1.658 -0.13855,0.563 -0.2819,1.1255 -0.42271,1.6556 -0.1535,0.5779 -0.29935,1.1135 -0.44986,1.6436 -0.15051,0.5301 -0.30567,1.0546 -0.47779,1.6103 -0.17213,0.5557 -0.36121,1.1426 -0.57955,1.7974 -0.21834,0.6548 -0.46594,1.3775 -0.75511,2.2049 -0.15552,0.445 -0.32306,0.9203 -0.50454,1.4315 -0.18148,0.5112 -0.3769,1.0585 -0.58817,1.6474 -0.21127,0.5889 -0.43839,1.2195 -0.68327,1.8976 -0.24488,0.678 -0.50753,1.4034 -0.78986,2.182 -0.15818,0.4363 -0.32496,0.8772 -0.50386,1.3304 -0.17889,0.4532 -0.36992,0.9186 -0.57658,1.404 -0.20667,0.4853 -0.42899,0.9906 -0.67047,1.5234 -0.24149,0.5328 -0.50215,1.0931 -0.78551,1.6886 -0.19251,0.4046 -0.39549,0.8254 -0.61006,1.2648 -0.21456,0.4394 -0.4407,0.8975 -0.67953,1.3765 -0.23883,0.4791 -0.49035,0.9791 -0.75566,1.5026 -0.26531,0.5235 -0.54441,1.0704 -0.83841,1.6431 -0.1538,0.2996 -0.30697,0.6156 -0.45214,0.9302 -0.14517,0.3146 -0.28235,0.6278 -0.40418,0.9219 -0.12184,0.2941 -0.22833,0.569 -0.31213,0.8071 -0.0838,0.2381 -0.14489,0.4394 -0.17594,0.586 -0.031,0.1466 -0.0733,0.297 -0.123,0.4434 -0.0497,0.1463 -0.10694,0.2885 -0.16797,0.4188 -0.061,0.1303 -0.12588,0.2487 -0.19086,0.3472 -0.065,0.099 -0.13008,0.1773 -0.19164,0.2284 -0.0616,0.051 -0.14159,0.1538 -0.23348,0.2954 -0.0919,0.1416 -0.19566,0.3223 -0.30472,0.5295 -0.10906,0.2071 -0.22342,0.4408 -0.33648,0.6885 -0.11307,0.2477 -0.22484,0.5094 -0.32875,0.7726 -0.22025,0.558 -0.48953,1.1565 -0.80158,1.7848 -0.31205,0.6282 -0.66686,1.2862 -1.05817,1.963 -0.39131,0.6768 -0.81912,1.3726 -1.27715,2.0763 -0.45804,0.7037 -0.9463,1.4155 -1.45852,2.1245 -0.1998,0.2766 -0.42336,0.5901 -0.65633,0.9199 -0.23298,0.3298 -0.47538,0.6759 -0.71286,1.0177 -0.23749,0.3418 -0.47006,0.6792 -0.68339,0.9917 -0.21333,0.3125 -0.40742,0.6001 -0.56793,0.8421 -0.16051,0.242 -0.32157,0.473 -0.47527,0.6833 -0.1537,0.2104 -0.30004,0.4002 -0.43111,0.5597 -0.13107,0.1595 -0.24686,0.2888 -0.33948,0.3782 -0.0926,0.089 -0.16205,0.1389 -0.20039,0.1389 -0.0383,0 -0.1489,0.07 -0.31574,0.1976 -0.16684,0.1271 -0.38997,0.311 -0.6535,0.5379 -0.26352,0.2269 -0.56744,0.4968 -0.89585,0.7962 -0.32842,0.2993 -0.68132,0.628 -1.04281,0.9723 -0.45627,0.4346 -0.91209,0.843 -1.36782,1.2254 -0.45573,0.3824 -0.91139,0.7388 -1.36734,1.0694 -0.45596,0.3306 -0.91221,0.6353 -1.36914,0.9144 -0.45693,0.2791 -0.91454,0.5325 -1.37321,0.7604 -0.53641,0.2666 -1.07427,0.4982 -1.61417,0.6953 -0.53991,0.1971 -1.08188,0.3597 -1.6265,0.4879 -0.54462,0.1282 -1.09189,0.2221 -1.64244,0.282 -0.55054,0.06 -1.10435,0.086 -1.66203,0.078 -0.27972,0 -0.65044,-0.03 -1.08086,-0.074 -0.43043,-0.044 -0.92056,-0.1058 -1.43911,-0.1809 -0.51854,-0.075 -1.0655,-0.1635 -1.60958,-0.2605 -0.54408,-0.097 -1.08528,-0.2028 -1.59231,-0.3127 l -1e-5,0 0,0 -10e-6,-10e-5 0,0"
       id="path4151"
       inkscape:connector-curvature="0" />
  </g>
</svg>
