<?xml version="1.0" standalone="no"?>
<!DOCTYPE svg PUBLIC "-//W3C//DTD SVG 1.1//EN"
  "http://www.w3.org/Graphics/SVG/1.1/DTD/svg11.dtd">
<svg width="25.90399932861328mm" height="25.56999969482422mm" viewBox="-9.517999649047852 -17.059999465942383 25.90399932861328 25.56999969482422" xmlns="http://www.w3.org/2000/svg" version="1.1">
	<title>svgOutput</title>
	<desc>made with tinkercad</desc>
<path d="M -5.084000110626221 -9.486000061035156 L -5.079999923706055 -9.491999626159668 L -5.079761505126953 -9.493355751037598 L -5.058000087738037 -9.616999626159668 L -4.989999771118164 -10.005000114440918 L -5.031228065490723 -10.239999771118164 L -5.079999923706055 -10.517999649047852 L -5.15062952041626 -10.640483856201172 L -5.158999919891357 -10.654999732971191 L -5.341000080108643 -10.968999862670898 L -5.354000091552734 -10.980999946594238 L -5.665999889373779 -11.258000373840332 L -5.6710076332092285 -11.263999938964844 L -5.7769999504089355 -11.390999794006348 L -5.836999893188477 -11.553999900817871 L -5.836999893188477 -11.727999687194824 L -5.7769999504089355 -11.890999794006348 L -5.665999889373779 -12.02400016784668 L -5.572000026702881 -12.07800006866455 L -5.514999866485596 -12.111000061035156 L -5.514359951019287 -12.111112594604492 L -5.343999862670898 -12.140999794006348 L -5.172999858856201 -12.111000061035156 L -5.0229997634887695 -12.02400016784668 L -4.8460001945495605 -11.883999824523926 L -4.682000160217285 -11.753999710083008 L -4.191999912261963 -11.576000213623047 L -4.0960001945495605 -11.576000213623047 L -3.6710000038146973 -11.576000213623047 L -3.181999921798706 -11.753999710083008 L -2.7829999923706055 -12.08899974822998 L -2.6678359508514404 -12.288000106811523 L -2.523465394973755 -12.537467956542969 L -2.522050619125366 -12.539912223815918 L -2.522040605545044 -12.53993034362793 L -2.5220000743865967 -12.539999961853027 L -2.5211901664733887 -12.5448579788208 L -2.5043106079101562 -12.6427001953125 L -2.486999988555908 -12.743000030517578 L -2.480795383453369 -12.777971267700195 L -2.431999921798706 -13.053000450134277 L -2.456841230392456 -13.194595336914062 L -2.5220000743865967 -13.565999984741211 L -2.7290000915527344 -13.949000358581543 L -2.7860000133514404 -14.107000350952148 L -2.7880001068115234 -14.112000465393066 L -2.7880001068115234 -14.112544059753418 L -2.7880001068115234 -14.28600025177002 L -2.7799999713897705 -14.305999755859375 L -2.769300699234009 -14.336000442504883 L -2.7290000915527344 -14.449000358581543 L -2.617000102996826 -14.581999778747559 L -2.4670000076293945 -14.668999671936035 L -2.359999895095825 -14.687999725341797 L -2.2960000038146973 -14.699000358581543 L -2.125 -14.668999671936035 L -2.0480000972747803 -14.624635696411133 L -1.9739999771118164 -14.581999778747559 L -1.8630000352859497 -14.449000358581543 L -1.6339999437332153 -14.079000473022461 L -1.367371916770935 -13.85513973236084 L -1.2350000143051147 -13.744000434875488 L -0.8669999837875366 -13.609999656677246 L -0.7459999918937683 -13.565999984741211 L -0.22499999403953552 -13.565999984741211 L -0.21799999475479126 -13.567999839782715 L -0.2155919373035431 -13.568877220153809 L 0 -13.64743709564209 L 0.26499998569488525 -13.744000434875488 L 0.6639999747276306 -14.079000473022461 L 0.7670000195503235 -14.256999969482422 L 0.8094556927680969 -14.330556869506836 L 0.8125723004341125 -14.336000442504883 L 0.8445063233375549 -14.391772270202637 L 0.9044138193130493 -14.495793342590332 L 0.9240000247955322 -14.529999732971191 L 0.9241557717323303 -14.530878067016602 L 0.9520000219345093 -14.687846183776855 L 1.0149999856948853 -15.043000221252441 L 0.9520000219345093 -15.472999572753906 L 0.9520000219345093 -15.647000312805176 L 1.0010000467300415 -15.782999992370605 L 1.0110000371932983 -15.8100004196167 L 1.0240000486373901 -15.825437545776367 L 1.1230000257492065 -15.942999839782715 L 1.2599999904632568 -16.02199935913086 L 1.2730000019073486 -16.030000686645508 L 1.274255394935608 -16.03022003173828 L 1.444000005722046 -16.059999465942383 L 1.549133062362671 -16.041555404663086 L 1.6150000095367432 -16.030000686645508 L 1.7660000324249268 -15.942999839782715 L 1.8769999742507935 -15.8100004196167 L 1.9366121292114258 -15.648054122924805 L 1.937000036239624 -15.647000312805176 L 1.9730000495910645 -15.470999717712402 L 1.9776521921157837 -15.447739601135254 L 1.9993623495101929 -15.34177303314209 L 2.00781512260437 -15.29999828338623 L 2.0239999294281006 -15.220999717712402 L 2.0242109298706055 -15.220635414123535 L 2.0480000972747803 -15.179529190063477 L 2.2850000858306885 -14.770000457763672 L 2.684000015258789 -14.4350004196167 L 3.1740000247955322 -14.256999969482422 L 3.694000005722046 -14.256999969482422 L 4.0960001945495605 -14.403032302856445 L 4.183365821838379 -14.434769630432129 L 4.184000015258789 -14.4350004196167 L 4.341000080108643 -14.567000389099121 L 4.583000183105469 -14.770000457763672 L 4.652276992797852 -14.889801979064941 L 4.716000080108643 -15 L 4.793293476104736 -15.134503364562988 L 4.793777942657471 -15.134503364562988 L 4.7939019203186035 -15.134503364562988 L 4.843799591064453 -15.220999717712402 L 4.843999862670898 -15.220999717712402 L 4.844111442565918 -15.221546173095703 L 4.931000232696533 -15.647000312805176 L 4.991000175476074 -15.8100004196167 L 5.1020002365112305 -15.942999839782715 L 5.119999885559082 -15.952899932861328 L 5.122000217437744 -15.954000473022461 L 5.252999782562256 -16.030000686645508 L 5.263545513153076 -16.031850814819336 L 5.423999786376953 -16.059999465942383 L 5.59499979019165 -16.030000686645508 L 5.687326431274414 -15.976961135864258 L 5.689000129699707 -15.97599983215332 L 5.744999885559082 -15.942999839782715 L 5.85699987411499 -15.8100004196167 L 5.915999889373779 -15.647000312805176 L 5.915999889373779 -15.472999572753906 L 5.853000164031982 -15.043000221252441 L 5.943999767303467 -14.529999732971191 L 6.055840492248535 -14.336000442504883 L 6.144000053405762 -14.183076858520508 L 6.203999996185303 -14.079000473022461 L 6.603000164031982 -13.744000434875488 L 7.0929999351501465 -13.565999984741211 L 7.61299991607666 -13.565999984741211 L 7.613999843597412 -13.565999984741211 L 7.709760665893555 -13.600913047790527 L 7.710984706878662 -13.60135555267334 L 7.953126430511475 -13.689316749572754 L 8.102999687194824 -13.744000434875488 L 8.10383415222168 -13.74470043182373 L 8.192000389099121 -13.818724632263184 L 8.500223159790039 -14.077507972717285 L 8.500969886779785 -14.07813549041748 L 8.501999855041504 -14.079000473022461 L 8.633000373840332 -14.291000366210938 L 8.660911560058594 -14.336000442504883 L 8.730999946594238 -14.449000358581543 L 8.842000007629395 -14.581999778747559 L 8.968000411987305 -14.654000282287598 L 8.993000030517578 -14.668999671936035 L 8.994803428649902 -14.669316291809082 L 9.163999557495117 -14.699000358581543 L 9.335000038146973 -14.668999671936035 L 9.484999656677246 -14.581999778747559 L 9.597000122070312 -14.449000358581543 L 9.63790225982666 -14.336000442504883 L 9.656000137329102 -14.28600025177002 L 9.656000137329102 -14.112000465393066 L 9.597000122070312 -13.949000358581543 L 9.489999771118164 -13.75 L 9.390000343322754 -13.565999984741211 L 9.389484405517578 -13.563058853149414 L 9.325695037841797 -13.199462890625 L 9.300000190734863 -13.053000450134277 L 9.390000343322754 -12.539999961853027 L 9.535836219787598 -12.288000106811523 L 9.651000022888184 -12.08899974822998 L 10.050000190734863 -11.753999710083008 L 10.239999771118164 -11.68483829498291 L 10.538999557495117 -11.576000213623047 L 11.0600004196167 -11.576000213623047 L 11.548999786376953 -11.753999710083008 L 11.550000190734863 -11.753999710083008 L 11.890999794006348 -12.02400016784668 L 12.041000366210938 -12.111000061035156 L 12.211539268493652 -12.14091968536377 L 12.211999893188477 -12.140999794006348 L 12.234000205993652 -12.13700008392334 L 12.288000106811523 -12.12757682800293 L 12.383000373840332 -12.111000061035156 L 12.534000396728516 -12.02400016784668 L 12.645000457763672 -11.890999794006348 L 12.704999923706055 -11.727999687194824 L 12.704999923706055 -11.553999900817871 L 12.645000457763672 -11.390999794006348 L 12.534000396728516 -11.258000373840332 L 12.288000106811523 -11.039249420166016 L 12.208999633789062 -10.968999862670898 L 12.208572387695312 -10.96826171875 L 11.947999954223633 -10.517999649047852 L 11.8992280960083 -10.239999771118164 L 11.857999801635742 -10.005000114440918 L 11.947999954223633 -9.491999626159668 L 12.208999633789062 -9.039999961853027 L 12.288000106811523 -8.973869323730469 L 12.607999801635742 -8.706000328063965 L 13.097000122070312 -8.527000427246094 L 13.250100135803223 -8.527000427246094 L 13.613370895385742 -8.527000427246094 L 13.618000030517578 -8.527000427246094 L 13.842000007629395 -8.60200023651123 L 14.031000137329102 -8.663999557495117 L 14.20199966430664 -8.694000244140625 L 14.373000144958496 -8.663999557495117 L 14.52299976348877 -8.57699966430664 L 14.565105438232422 -8.527000427246094 L 14.635000228881836 -8.444000244140625 L 14.694000244140625 -8.281000137329102 L 14.694000244140625 -8.192000389099121 L 14.694000244140625 -8.107000350952148 L 14.635000228881836 -7.943999767303467 L 14.52299976348877 -7.810999870300293 L 14.375699043273926 -7.725565433502197 L 14.373000144958496 -7.723999977111816 L 14.187999725341797 -7.651000022888184 L 13.968999862670898 -7.564000129699707 L 13.569999694824219 -7.229000091552734 L 13.361000061035156 -6.867000102996826 L 13.3100004196167 -6.7779998779296875 L 13.218999862670898 -6.264999866485596 L 13.240283012390137 -6.144000053405762 L 13.307999610900879 -5.758999824523926 L 13.308774948120117 -5.756289005279541 L 13.3100004196167 -5.751999855041504 L 13.569999694824219 -5.301000118255615 L 13.968999862670898 -4.966000080108643 L 14.118000030517578 -4.9120001792907715 L 14.458999633789062 -4.788000106811523 L 14.460251808166504 -4.787962436676025 L 14.892999649047852 -4.775000095367432 L 15.064000129699707 -4.744999885559082 L 15.21500015258789 -4.6579999923706055 L 15.326000213623047 -4.525000095367432 L 15.347577095031738 -4.466381549835205 L 15.348215103149414 -4.464649200439453 L 15.38599967956543 -4.361999988555908 L 15.38599967956543 -4.188000202178955 L 15.352134704589844 -4.0960001945495605 L 15.347577095031738 -4.083618640899658 L 15.332573890686035 -4.042857646942139 L 15.326000213623047 -4.025000095367432 L 15.21500015258789 -3.8919999599456787 L 15.064000129699707 -3.805000066757202 L 14.12399959564209 -3.640000104904175 L 14.118000030517578 -3.638000011444092 L 13.968999862670898 -3.5840001106262207 L 13.64900016784668 -3.315000057220459 L 13.569999694824219 -3.249000072479248 L 13.569541931152344 -3.2482056617736816 L 13.3100004196167 -2.7980000972747803 L 13.220000267028809 -2.2920000553131104 L 13.218999862670898 -2.2850000858306885 L 13.261040687561035 -2.0480000972747803 L 13.3100004196167 -1.7719999551773071 L 13.569999694824219 -1.3209999799728394 L 13.681264877319336 -1.2272061109542847 L 13.690999984741211 -1.218999981880188 L 13.968999862670898 -0.9860000014305115 L 14.373000144958496 -0.8259999752044678 L 14.52299976348877 -0.7390000224113464 L 14.635000228881836 -0.6060000061988831 L 14.694000244140625 -0.4429999887943267 L 14.694000244140625 -0.3783561289310455 L 14.694000244140625 -0.2689999938011169 L 14.635000228881836 -0.10599999874830242 L 14.5649995803833 -0.02300000004470344 L 14.545680046081543 4.440892164675075e-17 L 14.52299976348877 0.02700000070035462 L 14.373000144958496 0.11400000005960469 L 14.20199966430664 0.143999993801117 L 14.031000137329102 0.11400000005960469 L 13.687335968017578 4.440892164675075e-17 L 13.620391845703125 -0.022206451743841126 L 13.618000030517578 -0.02300000004470344 L 13.097000122070312 -0.02300000004470344 L 13.033950805664062 4.440892164675075e-17 L 12.704999923706055 0.11999999731779103 L 12.607999801635742 0.15600000321865087 L 12.288000106811523 0.4238696694374085 L 12.208999633789062 0.4900000095367432 L 11.961999893188477 0.9179999828338623 L 11.95411205291748 0.9321985244750977 L 11.950956344604492 0.9369313716888428 L 11.948810577392578 0.940784215927124 L 11.947999954223633 0.9419999718666077 L 11.947691917419434 0.9437538385391235 L 11.857999801635742 1.4550000429153442 L 11.90999984741211 1.7519999742507935 L 11.947112083435059 1.9629544019699097 L 11.947999954223633 1.968000054359436 L 11.994131088256836 2.0480000972747803 L 12.027000427246094 2.1050000190734863 L 12.050263404846191 2.144684314727783 L 12.069462776184082 2.1780316829681396 L 12.089262962341309 2.21242094039917 L 12.168357849121094 2.348411798477173 L 12.208574295043945 2.4182612895965576 L 12.208999633789062 2.4189999103546143 L 12.288000106811523 2.4892492294311523 L 12.534000396728516 2.7079999446868896 L 12.645000457763672 2.8410000801086426 L 12.704999923706055 3.003999948501587 L 12.704999923706055 3.177999973297119 L 12.645000457763672 3.3410000801086426 L 12.534000396728516 3.4739999771118164 L 12.4399995803833 3.5280001163482666 L 12.383000373840332 3.561000108718872 L 12.382363319396973 3.561110258102417 L 12.288000106811523 3.5774667263031006 L 12.232999801635742 3.5869998931884766 L 12.211999893188477 3.5910000801086426 L 12.041000366210938 3.561000108718872 L 11.890999794006348 3.4739999771118164 L 11.642999649047852 3.2780001163482666 L 11.550000190734863 3.2039999961853027 L 11.0600004196167 3.0260000228881836 L 10.538999557495117 3.0260000228881836 L 10.239999771118164 3.134838342666626 L 10.051426887512207 3.2034807205200195 L 10.050000190734863 3.2039999961853027 L 9.854000091552734 3.36899995803833 L 9.736651420593262 3.4673829078674316 L 9.733688354492188 3.4697535037994385 L 9.652012825012207 3.53818941116333 L 9.651000022888184 3.5390000343322754 L 9.650957107543945 3.539074659347534 L 9.650784492492676 3.539372682571411 L 9.390000343322754 3.990000009536743 L 9.371403694152832 4.0960001945495605 L 9.300224304199219 4.5017194747924805 L 9.300000190734863 4.502999782562256 L 9.305522918701172 4.534909248352051 L 9.32699966430664 4.658999919891357 L 9.328368186950684 4.666184425354004 L 9.348552703857422 4.781131744384766 L 9.355796813964844 4.8212175369262695 L 9.390000343322754 5.015999794006348 L 9.446208953857422 5.119999885559082 L 9.597000122070312 5.39900016784668 L 9.656000137329102 5.561999797821045 L 9.656000137329102 5.736000061035156 L 9.64799976348877 5.75600004196167 L 9.597000122070312 5.89900016784668 L 9.585190773010254 5.913023948669434 L 9.484999656677246 6.0320000648498535 L 9.335000038146973 6.11899995803833 L 9.192500114440918 6.144000053405762 L 9.163999557495117 6.14900016784668 L 9.135499954223633 6.144000053405762 L 8.993000030517578 6.11899995803833 L 8.842000007629395 6.0320000648498535 L 8.730999946594238 5.89900016784668 L 8.612000465393066 5.706999778747559 L 8.501999855041504 5.5289998054504395 L 8.501326560974121 5.528434753417969 L 8.192000389099121 5.26872444152832 L 8.102999687194824 5.193999767303467 L 7.613999843597412 5.015999794006348 L 7.0929999351501465 5.015999794006348 L 6.604197025299072 5.193565368652344 L 6.603000164031982 5.193999767303467 L 6.445000171661377 5.327000141143799 L 6.203999996185303 5.5289998054504395 L 6.144000053405762 5.632689476013184 L 6.10099983215332 5.706999778747559 L 5.943999767303467 5.980000019073486 L 5.914908409118652 6.144000053405762 L 5.853000164031982 6.493000030517578 L 5.872000217437744 6.623000144958496 L 5.915999889373779 6.922999858856201 L 5.915999889373779 6.924052715301514 L 5.915999889373779 7.0970001220703125 L 5.85699987411499 7.260000228881836 L 5.8429999351501465 7.2769999504089355 L 5.744999885559082 7.39300012588501 L 5.687427520751953 7.426392078399658 L 5.59499979019165 7.480000019073486 L 5.425754547119141 7.509692192077637 L 5.423999786376953 7.510000228881836 L 5.316999912261963 7.491000175476074 L 5.252999782562256 7.480000019073486 L 5.119999885559082 7.4033708572387695 L 5.1020002365112305 7.39300012588501 L 4.991000175476074 7.260000228881836 L 4.931000232696533 7.0970001220703125 L 4.843999862670898 6.671000003814697 L 4.583000183105469 6.21999979019165 L 4.492480754852295 6.144000053405762 L 4.184000015258789 5.885000228881836 L 4.0960001945495605 5.85303258895874 L 3.694000005722046 5.706999778747559 L 3.1740000247955322 5.706999778747559 L 2.684000015258789 5.885000228881836 L 2.624000072479248 5.935999870300293 L 2.2850000858306885 6.21999979019165 L 2.280308723449707 6.228137493133545 L 2.0480000972747803 6.631103992462158 L 2.0250000953674316 6.671000003814697 L 2.0239999294281006 6.671000003814697 L 2.023451328277588 6.6736860275268555 L 1.937000036239624 7.0970001220703125 L 1.8779356479644775 7.257458209991455 L 1.8769999742507935 7.260000228881836 L 1.815999984741211 7.333000183105469 L 1.7957216501235962 7.357080459594727 L 1.7843149900436401 7.371021747589111 L 1.7703166007995605 7.38772439956665 L 1.7660000324249268 7.39300012588501 L 1.7657965421676636 7.393117427825928 L 1.7649776935577393 7.393589019775391 L 1.763444185256958 7.394472599029541 L 1.6150000095367432 7.480000019073486 L 1.552269697189331 7.4910054206848145 L 1.444000005722046 7.510000228881836 L 1.2730000019073486 7.480000019073486 L 1.1230000257492065 7.39300012588501 L 1.0240000486373901 7.275437355041504 L 1.0110000371932983 7.260000228881836 L 0.9520000219345093 7.0970001220703125 L 0.9520000219345093 6.922999858856201 L 0.984000027179718 6.699999809265137 L 1.0149999856948853 6.493000030517578 L 1.0142842531204224 6.488956928253174 L 0.9532153010368347 6.144000053405762 L 0.9409999847412109 6.074999809265137 L 0.9240000247955322 5.980000019073486 L 0.6646522283554077 5.5301313400268555 L 0.6639999747276306 5.5289998054504395 L 0.41600000858306885 5.321000099182129 L 0.26499998569488525 5.193999767303467 L 0 5.0977349281311035 L -0.22499999403953552 5.015999794006348 L -0.7459999918937683 5.015999794006348 L -0.9390000104904175 5.085999965667725 L -1.1729999780654907 5.171000003814697 L -1.2350000143051147 5.193999767303467 L -1.6339999437332153 5.5289998054504395 L -1.8630000352859497 5.89900016784668 L -1.9739999771118164 6.0320000648498535 L -2.0480000972747803 6.074285507202148 L -2.0999999046325684 6.104000091552734 L -2.125 6.11899995803833 L -2.1268038749694824 6.119316577911377 L -2.147789716720581 6.122998237609863 L -2.2960000038146973 6.14900016784668 L -2.4670000076293945 6.11899995803833 L -2.617000102996826 6.0320000648498535 L -2.6858928203582764 5.950189590454102 L -2.7290000915527344 5.89900016784668 L -2.7880001068115234 5.736000061035156 L -2.7880001068115234 5.561999797821045 L -2.730830430984497 5.404057502746582 L -2.7304458618164062 5.402994632720947 L -2.7290000915527344 5.39900016784668 L -2.712315082550049 5.369142532348633 L -2.687283754348755 5.322406768798828 L -2.621999979019165 5.199999809265137 L -2.5220000743865967 5.015999794006348 L -2.521085023880005 5.010784149169922 L -2.431999921798706 4.502999782562256 L -2.503403425216675 4.0960001945495605 L -2.5220000743865967 3.990000009536743 L -2.7789688110351562 3.5459659099578857 L -2.7829999923706055 3.5390000343322754 L -3.1489999294281006 3.2320001125335693 L -3.181999921798706 3.2039999961853027 L -3.6710000038146973 3.0260000228881836 L -4.0960001945495605 3.0260000228881836 L -4.191999912261963 3.0260000228881836 L -4.318594932556152 3.072000026702881 L -4.525000095367432 3.1470000743865967 L -4.681000232696533 3.2039999961853027 L -4.681867599487305 3.2039999961853027 L -4.682000160217285 3.2039999961853027 L -5.0229997634887695 3.4739999771118164 L -5.172999858856201 3.561000108718872 L -5.343999862670898 3.5910000801086426 L -5.366000175476074 3.5869998931884766 L -5.514999866485596 3.561000108718872 L -5.51776647567749 3.559406042098999 L -5.665999889373779 3.4739999771118164 L -5.7769999504089355 3.3410000801086426 L -5.814000129699707 3.239000082015991 L -5.8271965980529785 3.2039999961853027 L -5.836999893188477 3.177999973297119 L -5.836999893188477 3.072000026702881 L -5.836999893188477 3.0260000228881836 L -5.836999893188477 3.003999948501587 L -5.7769999504089355 2.8410000801086426 L -5.665999889373779 2.7079999446868896 L -5.341000080108643 2.4189999103546143 L -5.1262969970703125 2.0480000972747803 L -5.079999923706055 1.968000054359436 L -4.989999771118164 1.4550000429153442 L -5.079999923706055 0.9419999718666077 L -5.341000080108643 0.4900000095367432 L -5.622000217437744 0.25400000810623174 L -5.739999771118164 0.15600000321865087 L -6.166167736053467 4.440892164675075e-17 L -6.229000091552734 -0.02300000004470344 L -6.75 -0.02300000004470344 L -6.752392292022705 -0.022204756736755326 L -6.819196701049805 4.440892164675075e-17 L -7.1020002365112305 0.09399999678134922 L -7.163000106811523 0.11400000005960469 L -7.334000110626221 0.143999993801117 L -7.505000114440918 0.11400000005960469 L -7.52400016784668 0.10300000011920933 L -7.65500020980835 0.02700000070035462 L -7.677736759185791 4.440892164675075e-17 L -7.767000198364258 -0.10599999874830242 L -7.826000213623047 -0.2689999938011169 L -7.826000213623047 -0.4429999887943267 L -7.767000198364258 -0.6060000061988831 L -7.65500020980835 -0.7390000224113464 L -7.505000114440918 -0.8259999752044678 L -7.10099983215332 -0.9860000014305115 L -6.702000141143799 -1.3209999799728394 L -6.441999912261963 -1.7719999551773071 L -6.393041133880615 -2.0480000972747803 L -6.35099983215332 -2.2850000858306885 L -6.441999912261963 -2.7980000972747803 L -6.701821327209473 -3.248689651489258 L -6.702000141143799 -3.249000072479248 L -6.875999927520752 -3.3949999809265137 L -7.10099983215332 -3.5840001106262207 L -7.254230976104736 -3.639777421951294 L -7.589910507202148 -3.761967420578003 L -7.590000152587891 -3.76200008392334 L -7.591000080108643 -3.76200008392334 L -8.024999618530273 -3.7750000953674316 L -8.192000389099121 -3.804298162460327 L -8.196000099182129 -3.805000066757202 L -8.347000122070312 -3.8919999599456787 L -8.35982894897461 -3.907578468322754 L -8.369125366210938 -3.918673038482666 L -8.448187828063965 -4.013167381286621 L -8.458000183105469 -4.025000095367432 L -8.459188461303711 -4.028229236602783 L -8.517999649047852 -4.188000202178955 L -8.517999649047852 -4.361999988555908 L -8.479999542236328 -4.464000225067139 L -8.458000183105469 -4.525000095367432 L -8.456689834594727 -4.5265703201293945 L -8.347000122070312 -4.6579999923706055 L -8.196000099182129 -4.744999885559082 L -8.192000389099121 -4.745701789855957 L -8.024999618530273 -4.775000095367432 L -7.591000080108643 -4.788000106811523 L -7.571000099182129 -4.795000076293945 L -7.10099983215332 -4.966000080108643 L -6.7025651931762695 -5.300525188446045 L -6.702000141143799 -5.301000118255615 L -6.644000053405762 -5.4019999504089355 L -6.441999912261963 -5.751999855041504 L -6.416999816894531 -5.892000198364258 L -6.372245788574219 -6.144000053405762 L -6.3520002365112305 -6.257999897003174 L -6.3513054847717285 -6.262862682342529 L -6.35099983215332 -6.264999866485596 L -6.441999912261963 -6.7779998779296875 L -6.702000141143799 -7.229000091552734 L -6.764758586883545 -7.281442165374756 L -6.7734808921813965 -7.288730621337891 L -6.781744003295898 -7.295760154724121 L -6.918105125427246 -7.410710334777832 L -7.10099983215332 -7.564000129699707 L -7.104614734649658 -7.565431594848633 L -7.505000114440918 -7.723999977111816 L -7.65500020980835 -7.810999870300293 L -7.767000198364258 -7.943999767303467 L -7.826000213623047 -8.107000350952148 L -7.826000213623047 -8.168232917785645 L -7.826000213623047 -8.17164421081543 L -7.826000213623047 -8.192000389099121 L -7.826000213623047 -8.281000137329102 L -7.767000198364258 -8.444000244140625 L -7.697000026702881 -8.527000427246094 L -7.65500020980835 -8.57699966430664 L -7.654669761657715 -8.577191352844238 L -7.505000114440918 -8.663999557495117 L -7.334000110626221 -8.694000244140625 L -7.163000106811523 -8.663999557495117 L -6.75 -8.527000427246094 L -6.229000091552734 -8.527000427246094 L -6.144000053405762 -8.55800724029541 L -5.836999893188477 -8.670000076293945 L -5.739999771118164 -8.706000328063965 L -5.341000080108643 -9.039999961853027 L -5.084000110626221 -9.486000061035156 M -3.231800079345703 -8.630200386047363 L -3.262162446975708 -8.586825370788574 L -3.2695999145507812 -8.576199531555176 L -3.3359999656677246 -8.480999946594238 L -3.3496479988098145 -8.461015701293945 L -3.364000082015991 -8.4399995803833 L -3.5366361141204834 -8.192000389099121 L -3.561000108718872 -8.156999588012695 L -3.5899999141693115 -8.09000015258789 L -3.611999988555908 -8.038000106811523 L -3.740000009536743 -7.739999771118164 L -3.746799945831299 -7.724400043487549 L -3.9435999393463135 -7.265200138092041 L -4.0278000831604 -7.068999767303467 L -4.031799793243408 -7.060999870300293 L -4.0960001945495605 -6.910994052886963 L -4.198200225830078 -6.6722002029418945 L -4.198443412780762 -6.671530246734619 L -4.198533058166504 -6.671284198760986 L -4.198941230773926 -6.670161724090576 L -4.198999881744385 -6.670000076293945 L -4.19920015335083 -6.668900012969971 L -4.2006001472473145 -6.661200046539307 L -4.206035137176514 -6.6346821784973145 L -4.207200050354004 -6.629000186920166 L -4.218480110168457 -6.57427978515625 L -4.244800090789795 -6.446599960327148 L -4.248000144958496 -6.431000232696533 L -4.289000034332275 -6.23199987411499 L -4.307085990905762 -6.144000053405762 L -4.355999946594238 -5.906000137329102 L -4.361756801605225 -5.877216339111328 L -4.394378185272217 -5.71858549118042 L -4.422599792480469 -5.581200122833252 L -4.425989151000977 -5.564870357513428 L -4.438314437866211 -5.505485534667969 L -4.448999881744385 -5.453999996185303 L -4.463782787322998 -5.381565093994141 L -4.468999862670898 -5.355999946594238 L -4.469290733337402 -5.354763507843018 L -4.4730000495910645 -5.339000225067139 L -4.525000095367432 -5.084000110626221 L -4.525000095367432 -4.0960001945495605 L -4.525000095367432 -3.4660000801086426 L -4.448999881744385 -3.0959999561309814 L -4.442399978637695 -3.064199924468994 L -4.3837690353393555 -2.778461456298828 L -4.3429999351501465 -2.5799999237060547 L -4.339956283569336 -2.5651304721832275 L -4.329538345336914 -2.514230728149414 L -4.293004035949707 -2.336544990539551 L -4.286600112915039 -2.3053998947143555 L -4.271399974822998 -2.232599973678589 L -4.233468532562256 -2.0480000972747803 L -4.199399948120117 -1.882200002670288 L -4.198999881744385 -1.8799999952316284 L -4.198880195617676 -1.8796708583831787 L -4.198383808135986 -1.8783048391342163 L -4.195799827575684 -1.8711999654769897 L -4.154200077056885 -1.7740000486373901 L -4.153200149536133 -1.7719999551773071 L -4.0960001945495605 -1.6387144327163696 L -3.8164000511169434 -0.9872000217437744 L -3.767199993133545 -0.8723999857902527 L -3.740000009536743 -0.8100000023841858 L -3.7090001106262207 -0.7379999756813049 L -3.611999988555908 -0.5120000243186951 L -3.5899999141693115 -0.4600000083446502 L -3.5688555240631104 -0.41114923357963556 L -3.5612521171569824 -0.3935826122760772 L -3.561000108718872 -0.39300000667572016 L -3.364000082015991 -0.10999999940395351 L -3.327930450439453 -0.05855652317404743 L -3.302999973297119 -0.02300000004470344 L -3.2929999828338623 -0.008399999700486615 L -3.2871499061584473 4.440892164675075e-17 L -3.1682000160217285 0.1708000004291535 L -3.0058000087738037 0.4043999910354615 L -2.885999917984009 0.5763999819755554 L -2.8659555912017822 0.605555534362793 L -2.850800037384033 0.6276000142097473 L -2.764082193374634 0.752092719078064 L -2.6475377082824707 0.9194045662879944 L -2.6396000385284424 0.9308000206947327 L -2.635999917984009 0.9359999895095825 L -2.590399980545044 0.979200005531311 L -2.527400016784668 1.0390000343322754 L -2.512200117111206 1.0535999536514282 L -2.353423595428467 1.2046750783920288 L -2.0409998893737793 1.5019999742507935 L -1.9633231163024902 1.575523018836975 L -1.9324066638946533 1.6047861576080322 L -1.791200041770935 1.7386000156402588 L -1.7824000120162964 1.7474000453948975 L -1.4783999919891357 2.0362000465393066 L -1.4661216735839844 2.0480000972747803 L -1.4630000591278076 2.0510001182556152 L -1.3645528554916382 2.112687826156616 L -1.2300000190734863 2.197000026702881 L -1.184999942779541 2.2249999046325684 L -0.6385999917984009 2.565000057220459 L -0.45820000767707825 2.6774001121520996 L -0.4198000133037567 2.7014000415802 L -0.09179999679327011 2.905400037765503 L -0.08900000154972076 2.9070000648498535 L -1.2517776884626375e-15 2.940108060836792 L 0.16099999845027924 3 L 0.21220000088214874 3.0190000534057617 L 0.8217999935150146 3.2446000576019287 L 0.9909999966621399 3.3071999549865723 L 1.024999976158142 3.3197999000549316 L 1.2630000114440918 3.4079999923706055 L 1.4244472980499268 3.468299627304077 L 1.4281419515609741 3.469679594039917 L 1.4290000200271606 3.4700000286102295 L 1.513800024986267 3.482800006866455 L 1.6052000522613525 3.496799945831299 L 1.6203999519348145 3.499000072479248 L 2.388400077819824 3.6166000366210938 L 2.565200090408325 3.6438000202178955 L 2.62280011177063 3.652600049972534 L 2.9923999309539795 3.709399938583374 L 3.0290000438690186 3.7149999141693115 L 3.0306785106658936 3.7149147987365723 L 3.2260000705718994 3.7049999237060547 L 3.2943999767303467 3.7014000415802 L 3.3864262104034424 3.6967809200286865 L 3.614169120788574 3.685281753540039 L 3.8442676067352295 3.673492908477783 L 3.8761541843414307 3.6719183921813965 L 3.9149999618530273 3.6700000762939453 L 3.9271204471588135 3.6693074703216553 L 3.9608449935913086 3.6673803329467773 L 3.998831033706665 3.6656339168548584 L 4.0960001945495605 3.660655975341797 L 4.198599815368652 3.655400037765503 L 4.354599952697754 3.64739990234375 L 4.579646587371826 3.6362462043762207 L 4.629000186920166 3.6338000297546387 L 4.644999980926514 3.632999897003174 L 4.647477626800537 3.632380723953247 L 4.647938251495361 3.632265329360962 L 4.654600143432617 3.6305999755859375 L 4.756999969482422 3.6040000915527344 L 4.7587738037109375 3.60367751121521 L 4.759200096130371 3.603600025177002 L 5.585599899291992 3.38919997215271 L 5.745200157165527 3.3478000164031982 L 5.966000080108643 3.2909998893737793 L 6.144000053405762 3.2446911334991455 L 6.211390495300293 3.227158546447754 L 6.211999893188477 3.2269999980926514 L 6.360000133514404 3.1549999713897705 L 6.4274001121521 3.121799945831299 L 7.084199905395508 2.7994000911712646 L 7.276000022888184 2.705399990081787 L 7.283199787139893 2.702199935913086 L 7.501910209655762 2.5946826934814453 L 7.664000034332275 2.515000104904175 L 7.6649088859558105 2.514545440673828 L 7.665999889373779 2.5139999389648438 L 7.6996002197265625 2.4883999824523926 L 7.71773624420166 2.474414110183716 L 7.739799976348877 2.45740008354187 L 7.848173141479492 2.373325824737549 L 7.9182000160217285 2.319000005722046 L 7.931000232696533 2.309000015258789 L 7.962800025939941 2.28439998626709 L 8.02639102935791 2.2352066040039062 L 8.09000015258789 2.186000108718872 L 8.090399742126465 2.1856000423431396 L 8.192000389099121 2.1068599224090576 L 8.225218772888184 2.08111572265625 L 8.267911911010742 2.0480000972747803 L 8.322750091552734 2.0054640769958496 L 8.352999687194824 1.9819999933242798 L 8.359469413757324 1.9771040678024292 L 8.370976448059082 1.9683958292007446 L 8.433652877807617 1.9198098182678223 L 8.559000015258789 1.8229999542236328 L 8.718999862670898 1.6990000009536743 L 8.795000076293945 1.6399999856948853 L 8.946000099182129 1.5230000019073486 L 8.946577072143555 1.5223283767700195 L 8.994799613952637 1.4661999940872192 L 9.050101280212402 1.4017354249954224 L 9.063599586486816 1.3860000371932983 L 9.0649995803833 1.3844000101089478 L 9.304679870605469 1.1055200099945068 L 9.567899703979492 0.7992500066757202 L 9.57859992980957 0.7868000268936157 L 9.647199630737305 0.7067999839782715 L 9.650400161743164 0.7031999826431274 L 9.65150260925293 0.7017825841903687 L 9.652079582214355 0.7010400295257568 L 9.656000137329102 0.6959999799728394 L 9.691200256347656 0.6552000045776367 L 9.734399795532227 0.6050000190734863 L 9.97439956665039 0.3249999880790711 L 10 0.2949999868869782 L 10.041999816894531 0.21999999880790716 L 10.16331672668457 4.440892164675075e-17 L 10.175999641418457 -0.02300000004470344 L 10.22700023651123 -0.11299999803304668 L 10.234000205993652 -0.12579999864101404 L 10.471599578857422 -0.5537999868392944 L 10.569199562072754 -0.7296000123023987 L 10.569879531860352 -0.7308363914489746 L 10.639599800109863 -0.8575999736785889 L 10.778800010681152 -1.107200026512146 L 10.779913902282715 -1.1091809272766113 L 10.782435417175293 -1.113662600517273 L 10.78600025177002 -1.1200000047683716 L 10.786072731018066 -1.1202412843704224 L 10.804400444030762 -1.180799961090088 L 10.834799766540527 -1.2777999639511108 L 10.836600303649902 -1.2838000059127808 L 11.076275825500488 -2.0471720695495605 L 11.076536178588867 -2.0480000972747803 L 11.097146987915039 -2.1134774684906006 L 11.10099983215332 -2.125999927520752 L 11.16100025177002 -2.316999912261963 L 11.216632843017578 -2.4930765628814697 L 11.258000373840332 -2.624000072479248 L 11.265643119812012 -2.650113105773926 L 11.270000457763672 -2.6649999618530273 L 11.271599769592285 -2.677799940109253 L 11.273122787475586 -2.692753791809082 L 11.280400276184082 -2.76419997215271 L 11.30600357055664 -3.0169694423675537 L 11.315506935119629 -3.1107916831970215 L 11.317999839782715 -3.1354000568389893 L 11.319000244140625 -3.1449999809265137 L 11.319554328918457 -3.150174617767334 L 11.320199966430664 -3.1561999320983887 L 11.324384689331055 -3.1966922283172607 L 11.328924179077148 -3.2406227588653564 L 11.347399711608887 -3.4193999767303467 L 11.355199813842773 -3.4986000061035156 L 11.361309051513672 -3.560634136199951 L 11.368200302124023 -3.6305999755859375 L 11.388799667358398 -3.8338000774383545 L 11.390399932861328 -3.84660005569458 L 11.415770530700684 -4.0960001945495605 L 11.43280029296875 -4.263400077819824 L 11.433671951293945 -4.271829605102539 L 11.4339599609375 -4.274610996246338 L 11.434000015258789 -4.275000095367432 L 11.429200172424316 -4.321400165557861 L 11.418600082397461 -4.425600051879883 L 11.415471076965332 -4.456917762756348 L 11.373000144958496 -4.876999855041504 L 11.357555389404297 -5.030669689178467 L 11.335933685302734 -5.241482734680176 L 11.332968711853027 -5.270898342132568 L 11.330599784851074 -5.294400215148926 L 11.323800086975098 -5.360199928283691 L 11.319000244140625 -5.40500020980835 L 11.3149995803833 -5.443399906158447 L 11.3056001663208 -5.536200046539307 L 11.270400047302246 -5.881800174713135 L 11.270000457763672 -5.885000228881836 L 11.248000144958496 -5.955999851226807 L 11.188953399658203 -6.144000053405762 L 11.16100025177002 -6.232999801635742 L 11.15060043334961 -6.26639986038208 L 10.979399681091309 -6.811999797821045 L 10.931599617004395 -6.964000225067139 L 10.924400329589844 -6.98799991607666 L 10.868399620056152 -7.166399955749512 L 10.868000030517578 -7.168000221252441 L 10.847999572753906 -7.23199987411499 L 10.836199760437012 -7.269199848175049 L 10.790599822998047 -7.41480016708374 L 10.787370681762695 -7.425472259521484 L 10.786438941955566 -7.428549289703369 L 10.78600025177002 -7.429999828338623 L 10.757863998413086 -7.480019569396973 L 10.757200241088867 -7.481200218200684 L 10.722399711608887 -7.543600082397461 L 10.70479965209961 -7.5756001472473145 L 10.362588882446289 -8.192000389099121 L 10.314399719238281 -8.278800010681152 L 10.218000411987305 -8.452400207519531 L 10.216590881347656 -8.454976081848145 L 10.1899995803833 -8.503600120544434 L 10.008399963378906 -8.829999923706055 L 10 -8.845000267028809 L 9.897600173950195 -8.96500015258789 L 9.837599754333496 -9.03499984741211 L 9.830004692077637 -9.043935775756836 L 9.827400207519531 -9.04699993133545 L 9.796036720275879 -9.083491325378418 L 9.367400169372559 -9.582200050354004 L 9.23900032043457 -9.731599807739258 L 9.233400344848633 -9.73799991607666 L 8.958200454711914 -10.058799743652344 L 8.946000099182129 -10.072999954223633 L 8.928197860717773 -10.08680248260498 L 8.730607986450195 -10.239999771118164 L 8.718999862670898 -10.24899959564209 L 8.678999900817871 -10.279999732971191 L 8.192000389099121 -10.656706809997559 L 8.177399635314941 -10.668000221252441 L 8.015199661254883 -10.793600082397461 L 8.01360034942627 -10.79520034790039 L 7.6743998527526855 -11.057600021362305 L 7.667963981628418 -11.062503814697266 L 7.665999889373779 -11.064000129699707 L 7.6579999923706055 -11.067999839782715 L 7.56279993057251 -11.114800453186035 L 7.560999870300293 -11.115599632263184 L 6.793799877166748 -11.491600036621094 L 6.6296000480651855 -11.572199821472168 L 6.360000133514404 -11.704999923706055 L 6.25428581237793 -11.756428718566895 L 6.211999893188477 -11.777000427246094 L 6.168415069580078 -11.788338661193848 L 5.966000080108643 -11.840999603271484 L 5.910799980163574 -11.855199813842773 L 5.27239990234375 -12.02079963684082 L 5.065800189971924 -12.074399948120117 L 5.057000160217285 -12.076000213623047 L 4.64739990234375 -12.18239974975586 L 4.644999980926514 -12.182999610900879 L 4.580999851226807 -12.186200141906738 L 4.512400150299072 -12.189599990844727 L 4.473400115966797 -12.19159984588623 L 4.400722980499268 -12.19532299041748 L 4.363449573516846 -12.197232246398926 L 4.0960001945495605 -12.210810661315918 L 3.9149999618530273 -12.220000267028809 L 3.726651191711426 -12.229659080505371 L 3.558799982070923 -12.238200187683105 L 3.548499345779419 -12.238617897033691 L 3.4995999336242676 -12.240599632263184 L 3.2260000705718994 -12.255000114440918 L 3.0424487590789795 -12.264317512512207 L 3.0322279930114746 -12.264836311340332 L 3.0295732021331787 -12.264970779418945 L 3.0290000438690186 -12.265000343322754 L 2.8826000690460205 -12.242600440979004 L 2.7901999950408936 -12.228400230407715 L 2.7757999897003174 -12.226200103759766 L 2.6216554641723633 -12.202543258666992 L 2.246999979019165 -12.145000457763672 L 2.228235960006714 -12.14187240600586 L 2.0687415599823 -12.11747932434082 L 2.0480000972747803 -12.114296913146973 L 1.8766000270843506 -12.088000297546387 L 1.8652592897415161 -12.086359024047852 L 1.8157999515533447 -12.07919979095459 L 1.4501999616622925 -12.023200035095215 L 1.4290000200271606 -12.020000457763672 L 1.4273521900177002 -12.019384384155273 L 1.4259408712387085 -12.0188570022583 L 1.2630000114440918 -11.958000183105469 L 1.1950000524520874 -11.93280029296875 L 0.5181999802589417 -11.68239974975586 L 0.36579999327659607 -11.62600040435791 L 0.16099999845027924 -11.550000190734863 L 0 -11.490107536315918 L -0.08900000154972076 -11.456999778747559 L -0.10019999742507935 -11.450599670410156 L -0.18219999969005585 -11.3996000289917 L -0.19179999828338623 -11.393600463867188 L -0.9133999943733215 -10.944000244140625 L -1.0499999523162842 -10.859000205993652 L -1.2300000190734863 -10.746999740600586 L -1.2313448190689087 -10.7461576461792 L -1.4630000591278076 -10.60099983215332 L -1.4692587852478027 -10.59518814086914 L -1.4769999980926514 -10.588000297546387 L -1.527400016784668 -10.539199829101562 L -1.600600004196167 -10.469599723815918 L -1.6028000116348267 -10.467399597167969 L -1.6602444648742676 -10.412888526916504 L -1.8424367904663086 -10.239999771118164 L -2.166800022125244 -9.93220043182373 L -2.311800003051758 -9.794400215148926 L -2.3726000785827637 -9.736000061035156 L -2.6245999336242676 -9.496800422668457 L -2.63576340675354 -9.486224174499512 L -2.635999917984009 -9.486000061035156 L -2.636042356491089 -9.485939025878906 L -2.650399923324585 -9.465200424194336 L -2.703200101852417 -9.389399528503418 L -2.7119998931884766 -9.37660026550293 L -2.754002332687378 -9.316197395324707 L -2.760610342025757 -9.306694984436035 L -3.0329999923706055 -8.914999961853027 L -3.1149325370788574 -8.79713249206543 L -3.118593692779541 -8.791916847229004 L -3.191115379333496 -8.688607215881348 L -3.231800079345703 -8.630200386047363 z" fill="none" stroke="rgb(0,0,255)" stroke-width="0.01mm" />
</svg>