<?xml version="1.0" standalone="no"?>
<!DOCTYPE svg PUBLIC "-//W3C//DTD SVG 20010904//EN"
 "http://www.w3.org/TR/2001/REC-SVG-20010904/DTD/svg10.dtd">
<svg version="1.0" xmlns="http://www.w3.org/2000/svg"
 width="1280.000000pt" height="1154.000000pt" viewBox="0 0 1280.000000 1154.000000"
 preserveAspectRatio="xMidYMid meet">
<g transform="translate(0.000000,1154.000000) scale(0.100000,-0.100000)"
fill="#000000" stroke="none">
<path d="M7905 11526 c-127 -31 -127 -30 -140 -362 -12 -303 -10 -296 -86
-335 -60 -30 -179 -59 -244 -59 -78 0 -77 -1 -230 245 -64 105 -133 205 -151
223 -42 40 -86 42 -179 7 -82 -30 -121 -57 -141 -97 -19 -36 -17 -44 52 -343
48 -206 52 -249 28 -283 -20 -29 -119 -96 -197 -133 -66 -31 -109 -36 -143
-16 -12 7 -99 84 -194 172 -199 184 -213 195 -260 195 -65 0 -187 -87 -221
-158 -27 -54 -28 -51 116 -324 81 -152 115 -228 115 -251 0 -93 -218 -295
-293 -271 -12 4 -119 59 -237 122 -126 67 -231 117 -254 120 -55 7 -98 -19
-157 -97 -60 -81 -75 -127 -56 -173 8 -18 94 -118 191 -223 97 -104 179 -200
183 -213 17 -69 -109 -297 -182 -328 -32 -13 -50 -10 -295 45 -275 63 -298 64
-342 24 -28 -25 -64 -99 -84 -171 -16 -57 -16 -62 2 -98 16 -33 49 -58 239
-176 121 -75 228 -147 238 -159 24 -30 22 -106 -6 -209 -27 -97 -45 -136 -77
-165 -20 -18 -43 -21 -249 -28 -308 -11 -326 -13 -362 -45 -35 -33 -59 -118
-59 -209 0 -58 3 -66 33 -98 29 -31 55 -41 267 -106 129 -39 247 -77 261 -85
43 -22 59 -78 59 -209 0 -136 -15 -184 -63 -209 -18 -8 -131 -46 -252 -82
-251 -76 -269 -84 -290 -124 -27 -52 -14 -197 24 -268 24 -46 55 -52 333 -63
293 -11 294 -11 335 -85 27 -50 63 -185 63 -240 0 -77 -8 -85 -192 -200 -264
-165 -288 -182 -304 -220 -18 -44 -5 -102 44 -197 37 -73 68 -97 122 -97 16 0
139 25 271 56 156 35 252 53 270 49 16 -4 46 -26 69 -53 52 -59 130 -213 130
-258 0 -38 -3 -42 -205 -259 -72 -77 -141 -153 -153 -169 -33 -43 -29 -100 9
-162 59 -94 120 -144 175 -144 16 0 129 53 265 125 130 69 247 125 258 125 37
0 83 -30 159 -104 86 -83 114 -125 114 -169 0 -23 -37 -104 -121 -263 -150
-285 -151 -290 -61 -375 99 -95 179 -121 236 -77 16 12 88 76 159 142 72 66
153 142 182 168 46 42 57 48 97 48 52 0 180 -61 247 -118 76 -65 76 -66 13
-338 -30 -131 -55 -259 -55 -284 -1 -39 4 -49 38 -81 49 -46 142 -83 210 -83
70 -1 79 9 242 271 138 223 148 233 221 233 41 0 177 -37 236 -64 80 -37 82
-45 92 -346 6 -166 13 -264 22 -281 24 -52 102 -79 225 -80 71 -1 105 14 126
53 6 12 45 130 86 262 45 148 81 249 94 262 28 30 91 44 194 44 103 0 166 -14
193 -43 12 -13 49 -117 93 -257 80 -261 88 -283 125 -306 34 -23 195 -15 250
12 74 37 75 41 86 330 10 300 13 311 85 347 55 28 201 67 249 67 66 0 79 -15
216 -234 163 -262 171 -271 242 -270 42 0 71 9 132 40 88 44 116 75 116 127 0
19 -26 145 -57 280 -54 237 -56 247 -41 279 20 41 98 100 193 145 79 38 130
44 166 20 12 -9 105 -92 205 -186 197 -183 220 -197 283 -170 50 20 148 97
169 132 36 59 29 84 -99 327 -65 124 -121 235 -125 248 -12 36 27 101 107 181
74 75 129 111 169 111 12 0 125 -54 251 -121 125 -66 243 -123 261 -126 58 -9
119 39 188 146 35 57 38 115 6 157 -12 16 -79 90 -148 164 -227 245 -213 226
-207 277 11 104 149 303 209 303 14 0 133 -25 264 -55 132 -30 253 -55 271
-55 46 0 94 46 128 122 38 83 44 163 17 199 -11 14 -120 87 -242 164 -121 76
-226 147 -232 158 -6 13 -8 50 -5 96 10 121 61 256 107 281 10 5 132 14 271
20 140 6 266 13 281 16 46 9 75 49 92 124 29 125 15 205 -41 234 -16 8 -134
47 -263 86 -128 39 -241 77 -251 83 -39 24 -53 75 -53 197 -1 121 11 175 43
204 11 10 133 53 272 96 276 85 291 94 305 167 8 45 -10 173 -31 213 -31 61
-43 63 -341 75 -304 12 -296 10 -335 87 -29 56 -61 183 -61 244 -1 44 4 60 23
80 12 13 115 81 227 151 112 70 215 141 229 157 21 26 25 38 21 82 -6 67 -67
196 -104 221 -41 26 -82 22 -328 -36 -275 -64 -287 -64 -340 -8 -55 57 -136
216 -136 267 0 42 -2 39 245 305 124 133 135 149 135 198 0 42 -59 136 -118
190 -69 62 -87 58 -353 -83 -161 -85 -238 -120 -261 -120 -46 0 -110 42 -187
125 -69 75 -96 124 -86 163 3 14 58 122 122 241 140 261 146 286 87 351 -61
67 -148 120 -200 120 -50 0 -48 1 -254 -190 -198 -184 -206 -190 -244 -190
-42 0 -196 76 -252 124 -74 63 -74 62 -10 340 64 279 67 311 31 350 -62 67
-236 117 -289 83 -13 -9 -84 -112 -157 -229 -73 -117 -143 -223 -156 -235 -31
-32 -114 -31 -229 3 -105 30 -148 54 -163 92 -6 15 -15 144 -21 286 -12 301
-14 309 -94 339 -26 9 -81 20 -120 24 -84 7 -132 -10 -158 -55 -8 -15 -49
-135 -89 -267 -55 -178 -80 -246 -97 -262 -30 -27 -90 -38 -207 -37 -98 1
-153 14 -179 43 -10 11 -51 128 -91 261 -41 133 -82 254 -90 267 -33 50 -123
65 -230 39z"/>
<path d="M2815 6133 c-51 -6 -106 -35 -120 -63 -8 -15 -30 -143 -50 -286 -38
-279 -52 -333 -93 -363 -55 -38 -185 -70 -236 -57 -43 11 -88 58 -256 270 -88
112 -172 208 -186 215 -41 18 -85 13 -154 -20 -88 -41 -126 -72 -140 -113 -10
-31 -3 -65 61 -314 52 -205 70 -289 65 -314 -8 -46 -54 -98 -129 -148 -97 -66
-110 -62 -407 103 -151 85 -256 137 -273 137 -15 0 -40 -6 -55 -14 -36 -18
-125 -113 -147 -156 -34 -65 -22 -89 159 -330 166 -220 186 -252 186 -293 0
-70 -75 -200 -133 -232 -41 -22 -96 -19 -417 19 -194 23 -207 23 -240 8 -45
-22 -75 -68 -101 -155 -25 -83 -20 -130 14 -165 13 -13 129 -86 258 -161 284
-167 283 -166 277 -296 -6 -100 -28 -160 -73 -189 -14 -9 -144 -51 -288 -92
-144 -41 -272 -82 -285 -90 -40 -27 -55 -79 -49 -170 7 -93 25 -146 59 -168
13 -8 113 -27 243 -45 358 -51 353 -50 390 -83 39 -33 72 -112 81 -192 11 -89
-1 -103 -250 -301 -123 -97 -228 -187 -235 -201 -16 -37 -14 -77 9 -135 28
-71 75 -136 112 -155 37 -19 39 -19 328 56 291 76 297 77 348 51 45 -23 116
-105 139 -161 28 -64 15 -100 -131 -360 -84 -152 -136 -256 -136 -273 0 -41
22 -76 82 -133 65 -62 105 -84 152 -84 31 0 69 25 268 175 152 114 244 177
265 181 47 9 112 -11 178 -55 107 -70 109 -85 70 -411 -32 -268 -32 -310 0
-348 35 -41 145 -85 217 -86 47 -1 61 3 82 23 15 14 83 122 153 240 70 119
137 230 150 247 35 47 70 58 168 52 92 -6 147 -27 177 -68 10 -14 52 -144 94
-290 41 -146 82 -276 90 -288 26 -40 79 -55 169 -49 92 5 147 25 170 60 11 17
29 118 55 299 21 150 42 282 46 293 21 59 110 108 218 121 90 11 106 -3 292
-237 91 -114 179 -219 195 -233 45 -38 99 -35 189 11 84 43 130 91 130 133 0
17 -11 72 -24 123 -106 398 -117 448 -106 487 13 47 80 116 151 155 81 44 99
38 380 -119 176 -97 255 -136 279 -136 45 0 93 32 150 101 59 71 75 118 55
165 -7 18 -86 128 -174 244 -92 121 -166 228 -172 250 -9 30 -8 47 5 86 22 66
74 143 115 171 44 30 68 29 380 -7 285 -33 302 -31 341 32 27 43 60 151 60
194 0 75 1 75 -290 244 -225 131 -245 145 -264 185 -32 68 -10 224 40 276 34
36 54 43 342 124 128 36 244 72 257 81 35 23 48 74 43 173 -4 97 -25 147 -70
169 -15 7 -152 30 -304 52 -212 30 -284 44 -304 58 -36 27 -69 91 -84 164 -15
75 -7 130 25 164 13 14 115 98 227 186 111 88 210 171 219 185 27 41 19 103
-22 183 -39 72 -79 116 -118 125 -12 3 -119 -19 -237 -50 -344 -89 -346 -89
-392 -76 -84 25 -187 173 -173 248 3 21 68 148 143 282 96 173 136 254 136
277 0 44 -43 105 -112 159 -61 48 -110 64 -152 48 -15 -5 -117 -78 -228 -161
-111 -84 -216 -161 -234 -172 -48 -29 -95 -25 -176 15 -75 38 -127 88 -139
133 -3 15 8 154 26 309 31 270 32 283 16 317 -20 42 -105 89 -198 108 -100 21
-108 14 -272 -264 -77 -131 -152 -250 -168 -265 -26 -27 -31 -28 -130 -28 -87
0 -108 4 -144 23 -24 12 -50 36 -59 54 -9 17 -50 149 -91 292 -50 175 -81 268
-95 284 -35 36 -108 49 -213 35z"/>
</g>
</svg>
