G04 Layer_Color=16711935*
%FSLAX44Y44*%
%MOMM*%
G71*
G01*
G75*
%ADD15C,0.1500*%
%ADD23O,2.3000X0.6500*%
%ADD24R,1.2000X1.1000*%
%ADD25R,1.1000X1.2000*%
%ADD26C,1.9000*%
%ADD27R,1.9000X1.9000*%
%ADD28C,0.5000*%
D15*
X-95000Y320000D02*
Y326665D01*
X-91668Y329997D01*
X-88336Y326665D01*
Y320000D01*
Y324998D01*
X-95000D01*
X-85003Y320000D02*
Y329997D01*
X-78339Y320000D01*
Y329997D01*
X-75006D02*
X-68342D01*
X-71674D01*
Y320000D01*
X-65010Y329997D02*
X-58345D01*
Y328331D01*
X-65010Y321666D01*
Y320000D01*
X-55013Y324998D02*
X-48348D01*
X-45016Y329997D02*
X-38352D01*
X-41684D01*
Y320000D01*
X-35019Y324998D02*
X-28355D01*
X-25022Y320000D02*
Y329997D01*
X-21690Y326665D01*
X-18358Y329997D01*
Y320000D01*
X-8361D02*
X-15026D01*
X-8361Y326665D01*
Y328331D01*
X-10027Y329997D01*
X-13360D01*
X-15026Y328331D01*
X-31Y320000D02*
Y329997D01*
X-5029Y324998D01*
X1636D01*
X11632Y328331D02*
X9966Y329997D01*
X6634D01*
X4968Y328331D01*
Y326665D01*
X6634Y324998D01*
X9966D01*
X11632Y323332D01*
Y321666D01*
X9966Y320000D01*
X6634D01*
X4968Y321666D01*
X14965Y320000D02*
Y329997D01*
X19963D01*
X21629Y328331D01*
Y324998D01*
X19963Y323332D01*
X14965D01*
X18297D02*
X21629Y320000D01*
X34958D02*
Y329997D01*
X38290Y326665D01*
X41623Y329997D01*
Y320000D01*
X44955Y329997D02*
Y320000D01*
X49953D01*
X51619Y321666D01*
Y323332D01*
X49953Y324998D01*
X44955D01*
X49953D01*
X51619Y326665D01*
Y328331D01*
X49953Y329997D01*
X44955D01*
X54952Y320000D02*
X58284D01*
X56618D01*
Y329997D01*
X54952Y328331D01*
X69947Y320000D02*
X63282D01*
X69947Y326665D01*
Y328331D01*
X68281Y329997D01*
X64949D01*
X63282Y328331D01*
X79944Y329997D02*
X73279D01*
Y324998D01*
X76611Y326665D01*
X78278D01*
X79944Y324998D01*
Y321666D01*
X78278Y320000D01*
X74945D01*
X73279Y321666D01*
X89940Y329997D02*
X83276D01*
Y324998D01*
X86608Y326665D01*
X88274D01*
X89940Y324998D01*
Y321666D01*
X88274Y320000D01*
X84942D01*
X83276Y321666D01*
X93273Y324998D02*
X99937D01*
X103270Y320000D02*
Y326665D01*
X106602Y329997D01*
X109934Y326665D01*
Y320000D01*
Y324998D01*
X103270D01*
X123263D02*
X129928D01*
X143257Y329997D02*
X149921D01*
X146589D01*
Y320000D01*
X158252Y329997D02*
X154920D01*
X153253Y328331D01*
Y321666D01*
X154920Y320000D01*
X158252D01*
X159918Y321666D01*
Y328331D01*
X158252Y329997D01*
X163250Y320000D02*
Y329997D01*
X168249D01*
X169915Y328331D01*
Y324998D01*
X168249Y323332D01*
X163250D01*
X189908Y328331D02*
X188242Y329997D01*
X184910D01*
X183244Y328331D01*
Y326665D01*
X184910Y324998D01*
X188242D01*
X189908Y323332D01*
Y321666D01*
X188242Y320000D01*
X184910D01*
X183244Y321666D01*
X198239Y329997D02*
X194907D01*
X193241Y328331D01*
Y321666D01*
X194907Y320000D01*
X198239D01*
X199905Y321666D01*
Y328331D01*
X198239Y329997D01*
X203237D02*
Y320000D01*
X209902D01*
X213234Y329997D02*
Y320000D01*
X218232D01*
X219898Y321666D01*
Y328331D01*
X218232Y329997D01*
X213234D01*
X229895D02*
X223231D01*
Y320000D01*
X229895D01*
X223231Y324998D02*
X226563D01*
X233228Y320000D02*
Y329997D01*
X238226D01*
X239892Y328331D01*
Y324998D01*
X238226Y323332D01*
X233228D01*
X236560D02*
X239892Y320000D01*
X253221D02*
Y329997D01*
X256553Y326665D01*
X259886Y329997D01*
Y320000D01*
X263218D02*
Y326665D01*
X266550Y329997D01*
X269882Y326665D01*
Y320000D01*
Y324998D01*
X263218D01*
X279879Y328331D02*
X278213Y329997D01*
X274881D01*
X273215Y328331D01*
Y326665D01*
X274881Y324998D01*
X278213D01*
X279879Y323332D01*
Y321666D01*
X278213Y320000D01*
X274881D01*
X273215Y321666D01*
X283211Y329997D02*
Y320000D01*
Y323332D01*
X289876Y329997D01*
X284878Y324998D01*
X289876Y320000D01*
X303205Y324998D02*
X309870D01*
D23*
X51000Y96250D02*
D03*
Y83550D02*
D03*
Y70850D02*
D03*
Y58150D02*
D03*
X99000Y96250D02*
D03*
Y83550D02*
D03*
Y70850D02*
D03*
Y58150D02*
D03*
D24*
X13300Y87200D02*
D03*
X30300D02*
D03*
D25*
X31800Y70700D02*
D03*
Y53700D02*
D03*
D26*
X131800Y97600D02*
D03*
Y72200D02*
D03*
X113100Y150000D02*
D03*
X87700D02*
D03*
X62300D02*
D03*
D27*
X36900D02*
D03*
D28*
X75000Y207980D02*
D03*
X19300Y70700D02*
D03*
X78000Y96000D02*
D03*
X117500Y58500D02*
D03*
X80500Y71000D02*
D03*
M02*
