G04 Layer_Color=16776960*
%FSLAX44Y44*%
%MOMM*%
G71*
G01*
G75*
%ADD10O,2.2000X0.5500*%
%ADD11R,1.1000X1.0000*%
%ADD12R,1.0000X1.1000*%
%ADD15C,0.1500*%
D10*
X51000Y96250D02*
D03*
Y83550D02*
D03*
Y70850D02*
D03*
Y58150D02*
D03*
X99000Y96250D02*
D03*
Y83550D02*
D03*
Y70850D02*
D03*
Y58150D02*
D03*
D11*
X13300Y87200D02*
D03*
X30300D02*
D03*
D12*
X31800Y70700D02*
D03*
Y53700D02*
D03*
D15*
X-95000Y320000D02*
Y326665D01*
X-91668Y329997D01*
X-88336Y326665D01*
Y320000D01*
Y324998D01*
X-95000D01*
X-85003Y320000D02*
Y329997D01*
X-78339Y320000D01*
Y329997D01*
X-75006D02*
X-68342D01*
X-71674D01*
Y320000D01*
X-65010Y329997D02*
X-58345D01*
Y328331D01*
X-65010Y321666D01*
Y320000D01*
X-55013Y324998D02*
X-48348D01*
X-45016Y329997D02*
X-38352D01*
X-41684D01*
Y320000D01*
X-35019Y324998D02*
X-28355D01*
X-25022Y320000D02*
Y329997D01*
X-21690Y326665D01*
X-18358Y329997D01*
Y320000D01*
X-8361D02*
X-15026D01*
X-8361Y326665D01*
Y328331D01*
X-10027Y329997D01*
X-13360D01*
X-15026Y328331D01*
X-31Y320000D02*
Y329997D01*
X-5029Y324998D01*
X1636D01*
X11632Y328331D02*
X9966Y329997D01*
X6634D01*
X4968Y328331D01*
Y326665D01*
X6634Y324998D01*
X9966D01*
X11632Y323332D01*
Y321666D01*
X9966Y320000D01*
X6634D01*
X4968Y321666D01*
X14965Y320000D02*
Y329997D01*
X19963D01*
X21629Y328331D01*
Y324998D01*
X19963Y323332D01*
X14965D01*
X18297D02*
X21629Y320000D01*
X34958D02*
Y329997D01*
X38290Y326665D01*
X41623Y329997D01*
Y320000D01*
X44955Y329997D02*
Y320000D01*
X49953D01*
X51619Y321666D01*
Y323332D01*
X49953Y324998D01*
X44955D01*
X49953D01*
X51619Y326665D01*
Y328331D01*
X49953Y329997D01*
X44955D01*
X54952Y320000D02*
X58284D01*
X56618D01*
Y329997D01*
X54952Y328331D01*
X69947Y320000D02*
X63282D01*
X69947Y326665D01*
Y328331D01*
X68281Y329997D01*
X64949D01*
X63282Y328331D01*
X79944Y329997D02*
X73279D01*
Y324998D01*
X76611Y326665D01*
X78278D01*
X79944Y324998D01*
Y321666D01*
X78278Y320000D01*
X74945D01*
X73279Y321666D01*
X89940Y329997D02*
X83276D01*
Y324998D01*
X86608Y326665D01*
X88274D01*
X89940Y324998D01*
Y321666D01*
X88274Y320000D01*
X84942D01*
X83276Y321666D01*
X93273Y324998D02*
X99937D01*
X103270Y320000D02*
Y326665D01*
X106602Y329997D01*
X109934Y326665D01*
Y320000D01*
Y324998D01*
X103270D01*
X123263D02*
X129928D01*
X143257Y329997D02*
X149921D01*
X146589D01*
Y320000D01*
X158252Y329997D02*
X154920D01*
X153253Y328331D01*
Y321666D01*
X154920Y320000D01*
X158252D01*
X159918Y321666D01*
Y328331D01*
X158252Y329997D01*
X163250Y320000D02*
Y329997D01*
X168249D01*
X169915Y328331D01*
Y324998D01*
X168249Y323332D01*
X163250D01*
X183244Y320000D02*
Y329997D01*
X188242D01*
X189908Y328331D01*
Y324998D01*
X188242Y323332D01*
X183244D01*
X193241Y320000D02*
Y326665D01*
X196573Y329997D01*
X199905Y326665D01*
Y320000D01*
Y324998D01*
X193241D01*
X209902Y328331D02*
X208236Y329997D01*
X204903D01*
X203237Y328331D01*
Y326665D01*
X204903Y324998D01*
X208236D01*
X209902Y323332D01*
Y321666D01*
X208236Y320000D01*
X204903D01*
X203237Y321666D01*
X213234Y329997D02*
X219898D01*
X216566D01*
Y320000D01*
X229895Y329997D02*
X223231D01*
Y320000D01*
X229895D01*
X223231Y324998D02*
X226563D01*
X243224Y320000D02*
Y329997D01*
X246557Y326665D01*
X249889Y329997D01*
Y320000D01*
X253221D02*
Y326665D01*
X256553Y329997D01*
X259886Y326665D01*
Y320000D01*
Y324998D01*
X253221D01*
X269882Y328331D02*
X268216Y329997D01*
X264884D01*
X263218Y328331D01*
Y326665D01*
X264884Y324998D01*
X268216D01*
X269882Y323332D01*
Y321666D01*
X268216Y320000D01*
X264884D01*
X263218Y321666D01*
X273215Y329997D02*
Y320000D01*
Y323332D01*
X279879Y329997D01*
X274881Y324998D01*
X279879Y320000D01*
X293208Y324998D02*
X299873D01*
M02*
