G04 Layer_Color=65280*
%FSLAX44Y44*%
%MOMM*%
G71*
G01*
G75*
%ADD14C,0.2000*%
%ADD15C,0.1500*%
%ADD29C,0.0424*%
%ADD30C,0.0312*%
%ADD31C,0.0203*%
G36*
X108450Y222120D02*
X108450Y221544D01*
X107727Y221544D01*
X107727Y216587D01*
X108495Y216587D01*
Y216587D01*
X108495Y216026D01*
X106414Y216026D01*
Y216026D01*
X106414Y216587D01*
X107122Y216587D01*
Y216587D01*
X107122Y221544D01*
Y221544D01*
X107122Y222120D01*
X108450Y222120D01*
Y222120D01*
D02*
G37*
G36*
X105632Y220541D02*
X105632Y219966D01*
X104909Y219965D01*
X104909Y216587D01*
X105647Y216587D01*
Y216587D01*
X105647Y216026D01*
X103596Y216026D01*
Y216026D01*
X103596Y216587D01*
X104304Y216587D01*
Y216587D01*
X104304Y219965D01*
Y219966D01*
X104304Y220541D01*
X105632Y220541D01*
X105632Y220541D01*
D02*
G37*
G36*
X100778Y222193D02*
X100911Y222193D01*
X100955Y222179D01*
X101029D01*
X101073Y222164D01*
X101117Y222164D01*
X101147Y222149D01*
X101191Y222149D01*
X101221Y222134D01*
X101265Y222120D01*
X101294D01*
X101324Y222105D01*
X101368Y222090D01*
X101398Y222075D01*
X101427D01*
X101604Y221987D01*
X101634Y221957D01*
X101722Y221913D01*
X101737Y221884D01*
X101796Y221854D01*
X101855Y221795D01*
X101885Y221751D01*
X101929Y221721D01*
X101959Y221692D01*
X101978Y221662D01*
X101988Y221647D01*
X101988Y221647D01*
X101995Y221633D01*
X101995Y221633D01*
X102003Y221618D01*
X102003Y221618D01*
X102013Y221603D01*
X102022Y221588D01*
Y221588D01*
X102032Y221574D01*
X102032Y221574D01*
X102047Y221559D01*
X102047Y221559D01*
X102062Y221544D01*
X102062D01*
X102062Y221544D01*
X102067Y221529D01*
Y221529D01*
X102077Y221500D01*
X102077D01*
Y221500D01*
X102091Y221470D01*
X102101Y221456D01*
X102101Y221456D01*
X102121Y221426D01*
Y221426D01*
X102126Y221411D01*
X102136Y221382D01*
Y221382D01*
X102143Y221367D01*
X102150Y221352D01*
X102150Y221338D01*
Y221323D01*
Y221308D01*
X102155Y221293D01*
X102160Y221279D01*
X102165Y221264D01*
X102172Y221249D01*
X102180Y221234D01*
X102180Y221234D01*
X102195Y221190D01*
Y221146D01*
X102195Y221146D01*
X102199Y221131D01*
X102209Y221102D01*
Y221101D01*
Y221072D01*
Y221057D01*
X102217Y221042D01*
X102224Y221028D01*
Y220998D01*
Y220969D01*
Y220895D01*
X102239Y220851D01*
X102239Y220851D01*
Y220821D01*
Y220541D01*
X102962Y220541D01*
Y220541D01*
X102962Y219951D01*
X102239Y219951D01*
Y219951D01*
X102239Y216587D01*
X102962Y216587D01*
Y216587D01*
X102962Y216026D01*
X100896Y216026D01*
Y216026D01*
X100896Y216587D01*
X101634Y216587D01*
Y216587D01*
X101634Y219951D01*
X100896Y219951D01*
Y219951D01*
X100896Y220541D01*
X101634Y220541D01*
Y220541D01*
X101634Y220821D01*
X101619Y220851D01*
Y220851D01*
Y220895D01*
X101619Y220969D01*
X101604Y220998D01*
Y221028D01*
X101604Y221042D01*
X101597Y221057D01*
X101590Y221072D01*
Y221101D01*
X101590Y221102D01*
X101575Y221131D01*
Y221146D01*
X101575Y221146D01*
X101553Y221190D01*
X101531Y221234D01*
X101531Y221234D01*
X101516Y221249D01*
X101509Y221264D01*
X101501Y221279D01*
X101486Y221293D01*
X101479Y221308D01*
X101472Y221323D01*
X101457Y221338D01*
X101449Y221352D01*
X101442Y221367D01*
X101413Y221382D01*
Y221382D01*
X101398Y221411D01*
X101368Y221426D01*
X101368Y221426D01*
X101339Y221456D01*
X101324Y221456D01*
X101309Y221470D01*
X101280Y221500D01*
X101265Y221500D01*
X101236Y221529D01*
X101221Y221529D01*
X101206Y221544D01*
X101191Y221544D01*
X101177Y221559D01*
X101162Y221559D01*
X101132Y221574D01*
X101118Y221574D01*
X101103Y221588D01*
X101088Y221588D01*
X101059Y221603D01*
X101029D01*
X100999Y221618D01*
X100985D01*
Y221618D01*
X100970Y221633D01*
X100896Y221633D01*
X100882Y221647D01*
X100764Y221647D01*
X100763D01*
X100734Y221662D01*
Y221692D01*
Y221721D01*
Y221751D01*
Y221795D01*
X100734Y221854D01*
Y221884D01*
Y221913D01*
X100734Y221957D01*
Y221987D01*
Y222075D01*
Y222090D01*
Y222105D01*
Y222120D01*
Y222134D01*
Y222149D01*
Y222149D01*
Y222164D01*
Y222164D01*
Y222179D01*
Y222193D01*
Y222193D01*
X100734Y222208D01*
X100778Y222193D01*
D02*
G37*
G36*
X52178Y220644D02*
X52296Y220629D01*
X52414Y220600D01*
X52532Y220570D01*
X52650Y220541D01*
X52689Y220526D01*
X52768Y220497D01*
X52871Y220452D01*
X52975Y220393D01*
X53052Y220349D01*
X53130Y220305D01*
X53207Y220261D01*
X53285Y220216D01*
X53444Y220084D01*
X53462Y220069D01*
X53491Y220039D01*
X53506Y220025D01*
X53521Y220010D01*
X53580Y219951D01*
X53609Y219921D01*
X53639Y219892D01*
X53668Y219862D01*
X53712Y219818D01*
X53712D01*
X53786Y219729D01*
X53837Y219641D01*
X53845Y219626D01*
X53919Y219538D01*
X53927Y219523D01*
X53961Y219464D01*
X53995Y219405D01*
X54029Y219346D01*
X54037Y219331D01*
X54081Y219213D01*
X54119Y219125D01*
X54125Y219110D01*
X54170Y218992D01*
X54174Y218977D01*
X54199Y218888D01*
X54221Y218800D01*
X54229Y218770D01*
X54236Y218711D01*
X54247Y218623D01*
Y218623D01*
X54253Y218579D01*
X54258Y218534D01*
X54260Y218520D01*
X54265Y218475D01*
X54273Y218402D01*
Y218151D01*
X54260Y218047D01*
Y218047D01*
X54249Y217959D01*
X54240Y217885D01*
X54231Y217811D01*
X54229Y217797D01*
X54214Y217738D01*
X54192Y217649D01*
X54170Y217561D01*
X54148Y217502D01*
X54125Y217442D01*
X54081Y217339D01*
X54065Y217295D01*
X54043Y217236D01*
X54037Y217221D01*
X54003Y217162D01*
X53978Y217118D01*
X53968Y217103D01*
X53929Y217044D01*
X53919Y217029D01*
X53845Y216926D01*
X53845Y216926D01*
X53820Y216882D01*
X53795Y216838D01*
X53786Y216823D01*
X53749Y216779D01*
X53712Y216734D01*
X53683Y216705D01*
X53639Y216661D01*
X53550Y216572D01*
X53550Y216572D01*
X53532Y216557D01*
X53497Y216528D01*
X53479Y216513D01*
X53462Y216498D01*
X53373Y216410D01*
X53321Y216380D01*
X53270Y216351D01*
X53252Y216336D01*
X53181Y216277D01*
X53181D01*
X53104Y216233D01*
X53026Y216188D01*
X52975Y216159D01*
X52940Y216144D01*
X52871Y216115D01*
X52832Y216100D01*
X52753Y216070D01*
X52650Y216026D01*
X52473Y215982D01*
X52414Y215967D01*
X52178Y215938D01*
X52045Y215923D01*
X51735D01*
X51632Y215938D01*
X51455Y215967D01*
X51352Y215982D01*
X51219Y216026D01*
X51086Y216070D01*
X50998Y216100D01*
X50973Y216115D01*
X50924Y216144D01*
X50894Y216159D01*
X50835Y216188D01*
X50761Y216233D01*
X50673Y216277D01*
X50673D01*
X50599Y216336D01*
X50575Y216351D01*
X50525Y216380D01*
X50489Y216410D01*
X50378Y216498D01*
X50360Y216513D01*
X50341Y216528D01*
X50304Y216557D01*
Y216557D01*
X50281Y216587D01*
X50269Y216602D01*
X50245Y216631D01*
Y216631D01*
X50127Y216749D01*
X50112Y216764D01*
X50089Y216793D01*
X50065Y216823D01*
X50053Y216838D01*
X50036Y216867D01*
X50018Y216897D01*
X50009Y216911D01*
X49950Y216985D01*
X49928Y217029D01*
X49906Y217074D01*
X49879Y217118D01*
X49861Y217148D01*
X49854Y217162D01*
X49832Y217206D01*
X49810Y217251D01*
X49788Y217295D01*
X49743Y217383D01*
X49729Y217413D01*
X49719Y217443D01*
X49704Y217487D01*
X49689Y217531D01*
X49685Y217546D01*
X50363Y217546D01*
X50363Y217546D01*
X50363Y217531D01*
X50378Y217487D01*
X50407Y217443D01*
X50415Y217413D01*
X50422Y217383D01*
X50481Y217295D01*
X50496Y217251D01*
X50525Y217206D01*
X50570Y217162D01*
X50580Y217148D01*
X50599Y217118D01*
X50644Y217074D01*
X50673Y217029D01*
X50717Y216985D01*
X50791Y216911D01*
X50806Y216897D01*
X50850Y216867D01*
X50889Y216838D01*
X50909Y216823D01*
X50953Y216793D01*
X50993Y216764D01*
X51012Y216749D01*
X51248Y216631D01*
X51248Y216631D01*
X51322Y216602D01*
X51396Y216587D01*
X51455Y216557D01*
X51455Y216557D01*
X51603Y216528D01*
X51691Y216513D01*
X51765D01*
X51853Y216498D01*
X52016D01*
X52089Y216513D01*
X52178D01*
X52252Y216528D01*
X52340Y216557D01*
X52414Y216572D01*
X52414Y216572D01*
X52635Y216661D01*
X52709Y216705D01*
X52783Y216734D01*
X52857Y216779D01*
X52901Y216823D01*
X52916Y216838D01*
X52975Y216882D01*
X53048Y216926D01*
Y216926D01*
X53152Y217029D01*
X53166Y217044D01*
X53211Y217103D01*
X53225Y217118D01*
X53270Y217162D01*
X53305Y217221D01*
X53314Y217236D01*
X53358Y217295D01*
X53385Y217339D01*
X53447Y217442D01*
X53447D01*
X53476Y217502D01*
X53500Y217561D01*
X53535Y217649D01*
X53565Y217738D01*
X53577Y217797D01*
X53580Y217811D01*
X53609Y217885D01*
X53609Y217959D01*
X53624Y218047D01*
X49567Y218047D01*
Y218151D01*
X49566Y218402D01*
X49566Y218475D01*
X49581Y218520D01*
Y218534D01*
Y218579D01*
X49596Y218623D01*
X49596Y218667D01*
X49611Y218711D01*
X49611Y218770D01*
X49626Y218815D01*
X49655Y218903D01*
X49670Y218947D01*
Y218977D01*
X49670Y218992D01*
X49685Y219036D01*
X49704Y219065D01*
X49714Y219080D01*
X49734Y219139D01*
X49773Y219257D01*
X49802Y219301D01*
X49817Y219346D01*
X49832Y219361D01*
X49847Y219375D01*
X49861Y219420D01*
X49911Y219493D01*
X49950Y219552D01*
X49972Y219597D01*
X49980Y219611D01*
X50013Y219656D01*
X50024Y219670D01*
X50053Y219715D01*
X50098Y219774D01*
X50112Y219788D01*
X50142Y219818D01*
X50153Y219833D01*
X50186Y219877D01*
X50208Y219907D01*
X50230Y219936D01*
X50230Y219936D01*
X50270Y219965D01*
X50289Y219980D01*
X50304Y219995D01*
X50348Y220039D01*
X50363Y220054D01*
X50378Y220069D01*
X50393Y220084D01*
Y220084D01*
X50570Y220216D01*
X50629Y220261D01*
X50703Y220305D01*
X50761Y220349D01*
X50835Y220393D01*
X50983Y220452D01*
X51057Y220497D01*
X51130Y220526D01*
X51219Y220541D01*
X51293Y220570D01*
X51381Y220600D01*
X51558Y220629D01*
X51647Y220644D01*
X51735D01*
X51839Y220659D01*
X52060D01*
X52178Y220644D01*
D02*
G37*
G36*
X98034Y220526D02*
X98137Y220511D01*
X98255Y220497D01*
X98373Y220467D01*
X98442Y220438D01*
X98476Y220423D01*
X98595Y220393D01*
X98698Y220349D01*
X98775Y220305D01*
X98801Y220290D01*
X98904Y220246D01*
X98993Y220187D01*
Y220187D01*
X99075Y220128D01*
X99096Y220113D01*
X99185Y220054D01*
X99273Y219980D01*
X99288Y219965D01*
X99303Y219951D01*
X99332Y219921D01*
X99347Y219907D01*
X99376Y219877D01*
X99391Y219862D01*
X99436Y219818D01*
X99460Y219788D01*
X99485Y219759D01*
X99522Y219715D01*
X99558Y219670D01*
X99632Y219582D01*
X99657Y219552D01*
X99674Y219523D01*
X99699Y219479D01*
X99733Y219420D01*
X99767Y219361D01*
X99775Y219346D01*
X99819Y219242D01*
X99853Y219184D01*
X99878Y219139D01*
X99891Y219110D01*
X99916Y219051D01*
X99922Y219036D01*
X99937Y218977D01*
X99952Y218918D01*
X99956Y218903D01*
X99977Y218829D01*
X99981Y218815D01*
X99996Y218756D01*
X100015Y218682D01*
X100033Y218608D01*
X100041Y218579D01*
X100045Y218535D01*
X100045Y218534D01*
X100054Y218461D01*
X100055Y218446D01*
Y218018D01*
Y218018D01*
Y217974D01*
X100050Y217929D01*
X100041Y217856D01*
X100040D01*
X100018Y217767D01*
X100000Y217693D01*
X99952Y217502D01*
X99908Y217398D01*
X99844Y217251D01*
X99819Y217192D01*
X99785Y217133D01*
X99743Y217059D01*
X99701Y216985D01*
X99642Y216897D01*
X99642D01*
X99605Y216852D01*
X99568Y216808D01*
X99558Y216793D01*
X99529Y216749D01*
X99509Y216720D01*
X99465Y216675D01*
X99421Y216631D01*
X99362Y216572D01*
X99347Y216557D01*
X99312Y216528D01*
X99294Y216513D01*
X99276Y216498D01*
X99258Y216483D01*
X99241Y216469D01*
X99170Y216410D01*
X99117Y216366D01*
X99081Y216336D01*
X99056Y216321D01*
X98978Y216277D01*
X98890Y216218D01*
X98786Y216159D01*
X98752Y216144D01*
X98683Y216115D01*
X98565Y216070D01*
X98531Y216056D01*
X98462Y216026D01*
X98462D01*
X98344Y215997D01*
X98226Y215967D01*
X98122Y215952D01*
X97990Y215938D01*
X97872Y215923D01*
X97577D01*
X97488Y215938D01*
X97400Y215952D01*
X97326Y215967D01*
X97149Y215997D01*
X97075Y216026D01*
X97075D01*
X96986Y216056D01*
X96950Y216070D01*
X96839Y216115D01*
X96750Y216144D01*
X96726Y216159D01*
X96627Y216218D01*
X96529Y216277D01*
X96455Y216321D01*
X96435Y216336D01*
X96396Y216366D01*
X96322Y216410D01*
X96263Y216469D01*
X96245Y216483D01*
X96227Y216498D01*
X96190Y216528D01*
X96160Y216557D01*
X96145Y216572D01*
X96131Y216587D01*
X96101Y216616D01*
X96086Y216631D01*
X96057Y216661D01*
X96027Y216690D01*
X96013Y216705D01*
X95990Y216734D01*
X95968Y216764D01*
Y216764D01*
X95933Y216808D01*
X95909Y216838D01*
X95892Y216867D01*
X95865Y216911D01*
X95806Y216970D01*
X95771Y217029D01*
X95744Y217074D01*
X95717Y217118D01*
Y217118D01*
X95688Y217206D01*
Y217206D01*
X95653Y217265D01*
X95644Y217280D01*
X95634Y217310D01*
X95629Y217324D01*
X96278Y217325D01*
X96278Y217324D01*
X96293Y217310D01*
X96313Y217280D01*
X96322Y217265D01*
X96352Y217206D01*
Y217206D01*
X96411Y217118D01*
X96411Y217118D01*
X96455Y217074D01*
X96485Y217029D01*
X96544Y216970D01*
X96603Y216911D01*
X96647Y216867D01*
X96691Y216838D01*
X96735Y216808D01*
X96780Y216764D01*
X96780Y216764D01*
X96839Y216734D01*
X96883Y216705D01*
X96883D01*
X96927Y216690D01*
X96972Y216661D01*
X97031Y216631D01*
X97075Y216616D01*
X97134Y216587D01*
X97193Y216572D01*
X97237Y216557D01*
X97355Y216528D01*
X97473Y216498D01*
X97532D01*
X97591Y216483D01*
X97945D01*
X98019Y216498D01*
X98108Y216513D01*
X98181Y216528D01*
X98255Y216557D01*
X98344Y216572D01*
X98491Y216631D01*
X98550Y216675D01*
X98624Y216720D01*
X98698Y216749D01*
X98757Y216793D01*
X98772Y216808D01*
X98816Y216852D01*
X98890Y216897D01*
X98890D01*
X98978Y216985D01*
X99052Y217059D01*
X99096Y217133D01*
X99140Y217192D01*
X99185Y217251D01*
X99273Y217398D01*
X99315Y217502D01*
X99391Y217693D01*
X99406Y217767D01*
X99421Y217856D01*
X99436Y217929D01*
X99443Y217974D01*
X99450Y218018D01*
X95467Y218018D01*
X95467Y218446D01*
X95467Y218461D01*
X95485Y218534D01*
X95496Y218579D01*
X95499Y218608D01*
X95509Y218697D01*
X95511Y218711D01*
X95528Y218770D01*
X95540Y218815D01*
X95570Y218933D01*
X95592Y218992D01*
X95614Y219051D01*
X95620Y219065D01*
X95646Y219125D01*
X95677Y219198D01*
X95703Y219257D01*
X95770Y219375D01*
X95838Y219493D01*
X95863Y219538D01*
X95880Y219567D01*
X95899Y219597D01*
X95939Y219656D01*
X95963Y219685D01*
X96000Y219729D01*
X96013Y219744D01*
X96027Y219759D01*
X96072Y219803D01*
X96160Y219892D01*
X96175Y219907D01*
X96175D01*
X96210Y219936D01*
X96228Y219951D01*
X96246Y219965D01*
X96263Y219980D01*
X96352Y220054D01*
X96423Y220113D01*
X96440Y220128D01*
X96544Y220187D01*
Y220187D01*
X96632Y220246D01*
X96710Y220290D01*
X96735Y220305D01*
X96854Y220349D01*
X96957Y220393D01*
X97026Y220423D01*
X97060Y220438D01*
X97178Y220467D01*
X97296Y220497D01*
X97414Y220511D01*
X97532Y220526D01*
X97665Y220541D01*
X97901D01*
X98034Y220526D01*
D02*
G37*
G36*
X85257Y220541D02*
X85257Y217856D01*
Y217811D01*
Y217811D01*
X85242Y217752D01*
Y217679D01*
Y217634D01*
X85242Y217634D01*
X85231Y217590D01*
X85227Y217575D01*
Y217561D01*
Y217531D01*
X85224Y217516D01*
X85212Y217472D01*
Y217472D01*
Y217442D01*
Y217428D01*
X85205Y217398D01*
X85198Y217369D01*
X85198Y217369D01*
X85183Y217325D01*
X85183Y217325D01*
Y217295D01*
Y217265D01*
X85178Y217251D01*
X85139Y217133D01*
X85124Y217088D01*
X85094Y217000D01*
X85090Y216985D01*
X85080Y216956D01*
X85060Y216926D01*
X85050Y216911D01*
X85043Y216897D01*
X85035Y216882D01*
X85016Y216823D01*
X85011Y216808D01*
X85006Y216793D01*
X84991Y216779D01*
X84977Y216764D01*
X84977Y216764D01*
X84967Y216734D01*
X84962Y216720D01*
X84962Y216720D01*
X84932Y216690D01*
X84903Y216661D01*
X84888Y216616D01*
X84873Y216602D01*
X84858Y216587D01*
X84829Y216557D01*
X84829D01*
X84814Y216542D01*
X84807Y216528D01*
X84807D01*
X84799Y216513D01*
X84799Y216513D01*
X84799D01*
X84785Y216498D01*
Y216498D01*
X84770Y216483D01*
X84652Y216366D01*
X84608Y216336D01*
X84578Y216306D01*
X84467Y216233D01*
X84401Y216188D01*
X84357Y216174D01*
X84312Y216144D01*
X84312Y216144D01*
X84254Y216115D01*
X84254D01*
X84209Y216085D01*
X84209Y216085D01*
X84150Y216070D01*
X84150Y216070D01*
X84091Y216041D01*
X84091Y216041D01*
X84032Y216026D01*
X84032D01*
X83973Y215997D01*
X83973Y215997D01*
X83899Y215982D01*
X83840Y215967D01*
X83619Y215923D01*
X83545D01*
X83471Y215908D01*
X83221D01*
X83132Y215923D01*
X83058D01*
X82837Y215967D01*
X82778Y215982D01*
X82719Y215997D01*
X82719Y215997D01*
X82645Y216026D01*
X82645D01*
X82586Y216041D01*
Y216041D01*
X82542Y216070D01*
X82542Y216070D01*
X82483Y216085D01*
X82483Y216085D01*
X82439Y216115D01*
X82380Y216144D01*
X82380Y216144D01*
X82336Y216174D01*
X82313Y216188D01*
X82247Y216233D01*
X82173Y216306D01*
X82144Y216336D01*
X82114Y216366D01*
X81996Y216483D01*
Y216483D01*
X81989Y216498D01*
X81989D01*
X81981Y216513D01*
X81981Y216513D01*
X81967Y216528D01*
X81967Y216528D01*
X81952Y216542D01*
X81945Y216557D01*
X81937Y216572D01*
X81930Y216587D01*
Y216587D01*
X81922Y216602D01*
X81908Y216616D01*
X81893Y216645D01*
X81893Y216026D01*
X81288Y216026D01*
Y216026D01*
Y216645D01*
Y216675D01*
Y216705D01*
Y216749D01*
Y216779D01*
Y216793D01*
Y216823D01*
Y216838D01*
X81288Y216867D01*
Y216882D01*
Y216911D01*
Y216941D01*
Y216956D01*
Y216985D01*
Y217015D01*
Y217074D01*
Y217103D01*
Y217162D01*
Y217192D01*
Y217236D01*
X81288Y217265D01*
Y217354D01*
Y217383D01*
Y217472D01*
Y217531D01*
Y217575D01*
Y217693D01*
Y217738D01*
Y217811D01*
Y217929D01*
Y218003D01*
X81288Y220541D01*
X81922D01*
Y218003D01*
X81937Y217929D01*
Y217811D01*
X81952Y217738D01*
Y217693D01*
X81981Y217575D01*
Y217531D01*
X81996Y217472D01*
X82026Y217383D01*
X82040Y217354D01*
X82070Y217265D01*
X82085Y217236D01*
X82099Y217192D01*
X82129Y217162D01*
X82158Y217103D01*
X82188Y217074D01*
X82217Y217015D01*
X82247Y216985D01*
X82262Y216956D01*
X82291Y216941D01*
X82306Y216911D01*
X82335Y216882D01*
X82365Y216867D01*
X82380Y216838D01*
X82409Y216823D01*
X82424Y216793D01*
X82453Y216779D01*
X82468Y216749D01*
X82557Y216705D01*
X82571Y216675D01*
X82632Y216645D01*
X82690Y216616D01*
X82719Y216602D01*
X82749Y216587D01*
X82763Y216587D01*
X82793Y216572D01*
X82837Y216557D01*
X82867Y216542D01*
X82896D01*
X82926Y216528D01*
X82955Y216528D01*
X82985Y216513D01*
X83058Y216513D01*
X83059D01*
X83088Y216498D01*
X83191D01*
X83236Y216483D01*
X83383Y216483D01*
X83427Y216498D01*
X83545Y216498D01*
X83575Y216513D01*
X83619D01*
X83619Y216513D01*
X83649Y216528D01*
X83693D01*
X83722Y216542D01*
X83767Y216557D01*
X83796D01*
X83855Y216587D01*
X83899Y216602D01*
X83929Y216616D01*
X84017Y216661D01*
X84076Y216690D01*
X84106Y216720D01*
X84106Y216720D01*
X84135Y216734D01*
X84165Y216764D01*
X84165Y216764D01*
X84194Y216779D01*
X84202Y216793D01*
X84209Y216808D01*
X84239Y216823D01*
X84298Y216882D01*
X84312Y216897D01*
X84320Y216911D01*
X84327Y216926D01*
X84357Y216956D01*
X84372Y216985D01*
X84386Y217000D01*
X84431Y217088D01*
X84445Y217133D01*
X84504Y217251D01*
X84509Y217265D01*
X84519Y217295D01*
X84534Y217325D01*
Y217325D01*
Y217369D01*
Y217369D01*
X84549Y217398D01*
X84558Y217428D01*
X84563Y217442D01*
X84563Y217472D01*
Y217472D01*
X84578Y217516D01*
Y217531D01*
Y217561D01*
X84586Y217575D01*
X84593Y217590D01*
X84593Y217634D01*
Y217634D01*
X84608Y217679D01*
Y217752D01*
X84608Y217811D01*
Y217811D01*
X84622Y217856D01*
Y220541D01*
X85257Y220541D01*
X85257Y220541D01*
D02*
G37*
G36*
X93445Y217457D02*
X93519D01*
X93519Y217457D01*
X93563Y217442D01*
X93593D01*
X93593Y217442D01*
X93637Y217428D01*
X93681Y217413D01*
X93711Y217398D01*
X93740Y217383D01*
X93785Y217369D01*
X93785D01*
X93814Y217339D01*
X93814Y217339D01*
X93844Y217325D01*
X93844Y217325D01*
X93873Y217295D01*
X93873Y217295D01*
X93903Y217280D01*
X93903D01*
X93962Y217221D01*
X93991Y217192D01*
X94021Y217162D01*
X94036Y217133D01*
X94036Y217133D01*
X94065Y217103D01*
X94065Y217103D01*
X94080Y217059D01*
X94080Y217059D01*
X94095Y217029D01*
X94109Y217000D01*
X94109D01*
X94124Y216956D01*
X94124D01*
X94139Y216926D01*
X94154Y216882D01*
X94168Y216838D01*
X94168Y216838D01*
Y216808D01*
X94168Y216808D01*
X94183Y216764D01*
X94183Y216602D01*
X94168Y216557D01*
Y216557D01*
Y216513D01*
X94168Y216513D01*
X94153Y216483D01*
Y216483D01*
X94139Y216439D01*
X94139Y216439D01*
X94124Y216410D01*
X94124Y216410D01*
X94109Y216366D01*
X94109D01*
X94094Y216336D01*
Y216336D01*
X94080Y216292D01*
Y216292D01*
X94065Y216262D01*
X94036Y216233D01*
X94021Y216203D01*
X93991Y216174D01*
X93962Y216144D01*
X93903Y216085D01*
X93903Y216085D01*
X93873Y216070D01*
X93873Y216070D01*
X93844Y216041D01*
X93844Y216041D01*
X93814Y216026D01*
X93814D01*
X93785Y215997D01*
X93785Y215997D01*
X93741Y215982D01*
X93711Y215967D01*
X93681Y215952D01*
X93637Y215938D01*
X93593Y215923D01*
X93563D01*
X93563Y215923D01*
X93519Y215908D01*
X93475Y215908D01*
X93475Y215908D01*
X93445Y215893D01*
X93357Y215893D01*
X93357Y215893D01*
X93313Y215908D01*
X93268Y215908D01*
Y215908D01*
X93239Y215923D01*
X93195Y215923D01*
X93195D01*
X93165Y215938D01*
X93121Y215952D01*
X93091Y215967D01*
X93047Y215982D01*
X93018Y215997D01*
X93017Y215997D01*
X92973Y216026D01*
X92973D01*
X92944Y216041D01*
X92944Y216041D01*
X92914Y216070D01*
X92914Y216070D01*
X92885Y216085D01*
Y216085D01*
X92826Y216144D01*
X92811Y216174D01*
X92781Y216203D01*
X92752Y216233D01*
X92737Y216262D01*
X92722Y216292D01*
X92722Y216292D01*
X92693Y216336D01*
Y216336D01*
X92678Y216366D01*
X92663Y216410D01*
Y216410D01*
X92649Y216439D01*
Y216439D01*
X92634Y216483D01*
Y216483D01*
X92634Y216513D01*
X92634Y216513D01*
X92619Y216557D01*
Y216557D01*
Y216602D01*
Y216764D01*
Y216808D01*
Y216808D01*
X92634Y216838D01*
Y216838D01*
X92634Y216882D01*
X92649Y216926D01*
X92663Y216956D01*
X92678Y217000D01*
X92693Y217029D01*
X92722Y217059D01*
Y217059D01*
X92737Y217103D01*
Y217103D01*
X92752Y217133D01*
X92752Y217133D01*
X92781Y217162D01*
X92811Y217192D01*
X92826Y217221D01*
X92885Y217280D01*
X92914Y217295D01*
X92914Y217295D01*
X92944Y217325D01*
X92944Y217325D01*
X92973Y217339D01*
X92973Y217339D01*
X93018Y217369D01*
X93018D01*
X93047Y217383D01*
X93091Y217398D01*
X93121Y217413D01*
X93165Y217428D01*
X93195Y217442D01*
X93239Y217442D01*
X93268Y217457D01*
X93357Y217457D01*
X93357D01*
X93401Y217472D01*
X93445Y217457D01*
D02*
G37*
G36*
X13524Y115119D02*
X16049Y114377D01*
X17097Y113778D01*
X18443Y113329D01*
X20381Y111987D01*
X21571Y111244D01*
X24262Y108403D01*
X25900Y106018D01*
X27386Y102896D01*
X28279Y99021D01*
Y94248D01*
X27383Y90509D01*
X26189Y87830D01*
X24994Y86042D01*
X24697Y85448D01*
X22920Y83374D01*
X22176Y82928D01*
X20376Y81278D01*
X17237Y79484D01*
X13670Y78298D01*
X10702Y77968D01*
X9746Y78804D01*
X9625Y83766D01*
X11614Y84051D01*
X12522Y84050D01*
X14022Y84650D01*
X14485D01*
X15685Y85400D01*
X16002D01*
X16452Y85851D01*
X16752D01*
X17503Y86601D01*
X17809D01*
X18709Y87652D01*
X18864D01*
X19765Y88852D01*
X19927D01*
X20828Y90504D01*
X20994D01*
X21444Y91854D01*
X21601D01*
X22115Y93909D01*
X13374D01*
Y99359D01*
X22096D01*
X21926Y100722D01*
X20711Y103305D01*
X19651Y104667D01*
X19199Y105422D01*
X17224Y107093D01*
X15253Y108306D01*
X12221Y109368D01*
X9622Y109512D01*
Y114475D01*
X10553Y115339D01*
X13524Y115119D01*
D02*
G37*
G36*
X45493Y115119D02*
X48780Y114074D01*
X52047Y112289D01*
X53250Y111237D01*
X53845Y110939D01*
X56080Y108554D01*
X57720Y106168D01*
X59062Y103481D01*
X60099Y99767D01*
X60248Y94529D01*
X59950Y92753D01*
X58904Y89317D01*
X57712Y87088D01*
X56365Y85294D01*
X56071Y84707D01*
X55170Y83956D01*
X54894Y83403D01*
X54619D01*
X53081Y81865D01*
X50850Y80380D01*
X48461Y79188D01*
X44881Y78145D01*
X42527Y77942D01*
X41591Y78801D01*
Y83777D01*
X42080Y83899D01*
X43584D01*
X45536Y84500D01*
X46000D01*
X47351Y85250D01*
X47671D01*
X48121Y85701D01*
X48421D01*
X49022Y86301D01*
X49337D01*
X49637Y86751D01*
X49928D01*
X50828Y87802D01*
X50988D01*
X52188Y89603D01*
X52352D01*
X53402Y91854D01*
X53574D01*
X54025Y93955D01*
X54195D01*
X54350Y98445D01*
X54045Y99971D01*
X53136Y102393D01*
X51613Y104829D01*
X51164Y105129D01*
X50692Y105917D01*
X50373D01*
X49349Y106939D01*
X47224Y108306D01*
X44191Y109368D01*
X41591Y109512D01*
Y114475D01*
X42522Y115339D01*
X45493Y115119D01*
D02*
G37*
G36*
X60101Y220644D02*
X60234D01*
X60293Y220629D01*
X60293D01*
X60337Y220615D01*
X60396Y220615D01*
X60455Y220600D01*
X60514Y220585D01*
X60558Y220570D01*
X60558D01*
X60588Y220556D01*
X60617Y220541D01*
X60706Y220511D01*
X60728Y220497D01*
X60750Y220482D01*
X60794Y220467D01*
X60816Y220452D01*
X60839Y220438D01*
X60883Y220423D01*
X60905Y220408D01*
X60949Y220379D01*
X60971Y220364D01*
X60986Y220349D01*
X61001Y220334D01*
X61001Y220334D01*
X61045Y220320D01*
X61060Y220305D01*
X61075Y220290D01*
X61119Y220261D01*
X61149Y220231D01*
X61178Y220201D01*
X61207Y220172D01*
X61237Y220142D01*
X61266Y220113D01*
X61274Y220098D01*
X61281Y220084D01*
X61296Y220069D01*
X61296Y220069D01*
X61311Y220054D01*
X61318Y220039D01*
X61318Y220039D01*
X61325Y220025D01*
X61325Y220541D01*
X61975Y220541D01*
X61975Y220541D01*
Y220025D01*
Y220025D01*
Y220010D01*
Y220010D01*
Y219980D01*
Y219965D01*
Y219951D01*
Y219936D01*
Y219907D01*
Y219892D01*
Y219862D01*
Y219847D01*
Y219818D01*
Y219788D01*
Y219759D01*
Y219729D01*
X61975Y219597D01*
Y219567D01*
Y219538D01*
Y219508D01*
Y219464D01*
Y219434D01*
Y219405D01*
Y219361D01*
Y219331D01*
Y219287D01*
Y219257D01*
Y219213D01*
Y219184D01*
Y219051D01*
Y219006D01*
Y218977D01*
Y218933D01*
X61975Y218888D01*
Y218829D01*
Y218785D01*
X61975Y216012D01*
X61326Y216011D01*
Y216012D01*
X61325Y218785D01*
X61311Y218829D01*
Y218888D01*
X61296Y218933D01*
X61296Y218977D01*
X61281Y219006D01*
X61281Y219051D01*
X61237Y219184D01*
X61222Y219213D01*
X61207Y219257D01*
X61193Y219287D01*
X61178Y219331D01*
X61163Y219361D01*
X61149Y219405D01*
X61134Y219434D01*
X61104Y219464D01*
X61090Y219508D01*
X61075Y219538D01*
X61045Y219567D01*
X61031Y219597D01*
X60898Y219729D01*
X60853Y219759D01*
X60824Y219788D01*
X60780Y219818D01*
X60750Y219847D01*
X60706Y219862D01*
X60676Y219892D01*
X60632Y219907D01*
X60603Y219936D01*
X60558Y219951D01*
X60529Y219965D01*
X60485Y219980D01*
X60426Y220010D01*
X60381Y220010D01*
X60352Y220025D01*
X60322D01*
X60321Y220025D01*
X60293Y220039D01*
X60248Y220039D01*
X60219Y220054D01*
X60160D01*
X60145Y220069D01*
X59821Y220069D01*
X59821D01*
X59791Y220054D01*
X59732Y220054D01*
X59703Y220039D01*
X59673Y220039D01*
X59644Y220025D01*
X59614Y220025D01*
X59614D01*
X59570Y220010D01*
X59540D01*
X59511Y219995D01*
X59467Y219980D01*
X59437Y219965D01*
X59393Y219951D01*
X59393Y219951D01*
X59363Y219936D01*
X59319Y219907D01*
X59319D01*
X59289Y219892D01*
X59245Y219862D01*
X59245Y219862D01*
X59216Y219848D01*
X59194Y219833D01*
X59171Y219818D01*
X59142Y219788D01*
X59098Y219759D01*
X59039Y219700D01*
X59009Y219670D01*
X58980Y219656D01*
X58972Y219641D01*
X58965Y219626D01*
X58935Y219597D01*
X58921Y219567D01*
X58906Y219552D01*
X58891Y219538D01*
X58876Y219508D01*
X58867Y219493D01*
X58847Y219464D01*
X58840Y219449D01*
X58817Y219405D01*
X58812Y219390D01*
X58803Y219361D01*
X58788Y219346D01*
X58773Y219331D01*
X58758Y219301D01*
X58734Y219228D01*
X58729Y219213D01*
X58714Y219184D01*
X58714Y219184D01*
Y219139D01*
X58709Y219125D01*
X58685Y219051D01*
X58670Y219021D01*
Y218977D01*
X58660Y218947D01*
X58655Y218933D01*
X58655Y218888D01*
X58640Y218844D01*
X58640Y218829D01*
Y218785D01*
X58630Y218756D01*
X58625Y218741D01*
X58625Y218564D01*
Y218505D01*
Y216012D01*
X57976Y216011D01*
Y216012D01*
X57976Y218505D01*
X57991Y218564D01*
Y218741D01*
Y218756D01*
X57997Y218785D01*
X58006Y218829D01*
Y218844D01*
Y218888D01*
Y218933D01*
Y218947D01*
X58013Y218977D01*
X58024Y219021D01*
X58032Y219051D01*
X58050Y219125D01*
Y219139D01*
Y219184D01*
X58050Y219184D01*
X58060Y219213D01*
X58065Y219228D01*
X58083Y219301D01*
X58091Y219331D01*
X58094Y219346D01*
X58104Y219361D01*
X58124Y219390D01*
X58128Y219405D01*
X58139Y219449D01*
X58144Y219464D01*
X58153Y219493D01*
X58161Y219508D01*
X58176Y219538D01*
X58183Y219552D01*
X58188Y219567D01*
X58198Y219597D01*
X58217Y219626D01*
X58227Y219641D01*
X58231Y219656D01*
X58235Y219670D01*
X58242Y219700D01*
X58281Y219759D01*
X58301Y219788D01*
X58321Y219818D01*
X58330Y219833D01*
X58338Y219848D01*
X58345Y219862D01*
X58345Y219862D01*
X58365Y219892D01*
X58375Y219907D01*
X58404Y219936D01*
X58419Y219951D01*
Y219951D01*
X58429Y219965D01*
X58439Y219980D01*
X58449Y219995D01*
X58463Y220010D01*
X58478Y220025D01*
Y220025D01*
X58488Y220039D01*
Y220039D01*
X58498Y220054D01*
Y220054D01*
X58507Y220069D01*
X58530Y220084D01*
X58552Y220098D01*
X58562Y220113D01*
X58581Y220142D01*
X58625Y220172D01*
X58655Y220201D01*
X58699Y220231D01*
X58729Y220261D01*
X58758Y220290D01*
X58773Y220305D01*
X58795Y220320D01*
X58817Y220334D01*
X58817Y220334D01*
X58862Y220349D01*
X58884Y220364D01*
X58906Y220379D01*
X58935Y220408D01*
X58980Y220423D01*
X59002Y220438D01*
X59024Y220452D01*
X59068Y220467D01*
X59090Y220482D01*
X59112Y220497D01*
X59157Y220511D01*
X59245Y220541D01*
X59289Y220556D01*
X59348Y220570D01*
X59349D01*
X59393Y220585D01*
X59437Y220600D01*
X59496Y220615D01*
X59540D01*
X59540Y220615D01*
X59599Y220629D01*
X59644D01*
X59703Y220644D01*
X59806D01*
X59865Y220659D01*
X60042D01*
X60101Y220644D01*
D02*
G37*
G36*
X56353Y222120D02*
X56353Y220541D01*
X57283Y220541D01*
Y220541D01*
X57283Y219966D01*
X56354Y219965D01*
X56354Y219965D01*
X56353Y216012D01*
X55704Y216011D01*
Y216012D01*
X55704Y219965D01*
X54642Y219965D01*
Y219966D01*
X54642Y220541D01*
X55704Y220541D01*
Y220541D01*
X55704Y222120D01*
X56353Y222120D01*
X56353Y222120D01*
D02*
G37*
G36*
X44786Y222120D02*
X44786Y219818D01*
X44845Y219892D01*
X44869Y219921D01*
X44904Y219965D01*
X44904D01*
X44934Y219995D01*
X44963Y220025D01*
X45007Y220069D01*
X45022Y220084D01*
X45081Y220142D01*
X45136Y220187D01*
X45155Y220202D01*
X45234Y220261D01*
X45273Y220290D01*
X45322Y220320D01*
X45347Y220334D01*
X45406Y220364D01*
X45430Y220379D01*
X45480Y220408D01*
X45539Y220438D01*
X45612Y220467D01*
X45671Y220497D01*
X45730Y220511D01*
X45760Y220526D01*
X45789Y220541D01*
X45863Y220556D01*
X45922Y220570D01*
X46040Y220600D01*
X46084Y220615D01*
X46143Y220629D01*
X46203D01*
X46247Y220644D01*
X46335D01*
X46379Y220659D01*
X46660Y220659D01*
X46660Y220659D01*
X46793Y220644D01*
X46793D01*
X46926Y220629D01*
X46992Y220615D01*
X47058Y220600D01*
X47191Y220570D01*
X47235Y220556D01*
X47280Y220541D01*
X47324Y220526D01*
X47363Y220511D01*
X47403Y220497D01*
X47481Y220467D01*
X47560Y220438D01*
X47611Y220408D01*
X47663Y220379D01*
X47693Y220364D01*
X47752Y220334D01*
X47781Y220320D01*
X47833Y220290D01*
X47884Y220261D01*
X47967Y220202D01*
X47988Y220187D01*
X48041Y220142D01*
X48112Y220084D01*
X48129Y220069D01*
X48165Y220039D01*
X48180Y220025D01*
X48194Y220010D01*
X48253Y219951D01*
Y219951D01*
X48302Y219892D01*
X48339Y219848D01*
X48413Y219759D01*
X48462Y219700D01*
X48475Y219685D01*
X48506Y219641D01*
X48548Y219582D01*
X48588Y219523D01*
X48607Y219493D01*
X48624Y219464D01*
X48667Y219390D01*
X48698Y219316D01*
X48730Y219242D01*
X48755Y219184D01*
X48766Y219154D01*
X48794Y219080D01*
X48799Y219065D01*
X48831Y218992D01*
X48843Y218962D01*
X48865Y218888D01*
X48873Y218859D01*
X48880Y218800D01*
X48888Y218741D01*
X48917Y218638D01*
X48932Y218520D01*
Y218387D01*
Y218165D01*
X48922Y218077D01*
X48917Y218033D01*
X48912Y217988D01*
X48899Y217885D01*
X48888Y217797D01*
X48866Y217708D01*
X48847Y217634D01*
X48829Y217561D01*
X48823Y217546D01*
X48790Y217457D01*
X48740Y217325D01*
X48690Y217236D01*
X48647Y217162D01*
X48614Y217103D01*
X48572Y217029D01*
X48504Y216911D01*
Y216911D01*
X48455Y216852D01*
X48357Y216734D01*
X48298Y216675D01*
X48268Y216646D01*
X48256Y216631D01*
X48231Y216602D01*
X48207Y216572D01*
X48194Y216557D01*
X48194Y216557D01*
X48159Y216528D01*
X48141Y216513D01*
X48123Y216498D01*
X48106Y216483D01*
X48044Y216439D01*
X48003Y216410D01*
X47932Y216351D01*
X47914Y216336D01*
X47862Y216306D01*
X47811Y216277D01*
X47733Y216233D01*
X47604Y216159D01*
X47486Y216115D01*
X47417Y216085D01*
X47383Y216070D01*
X47304Y216041D01*
X47265Y216026D01*
X47147Y215997D01*
X47014Y215967D01*
X46896Y215938D01*
X46763Y215923D01*
X46645D01*
X46512Y215908D01*
X46453D01*
X46394Y215923D01*
X46291D01*
X46232Y215938D01*
X46173D01*
X46055Y215967D01*
X45937Y215997D01*
X45819Y216026D01*
X45760Y216041D01*
X45701Y216070D01*
X45642Y216085D01*
X45583Y216115D01*
X45494Y216159D01*
X45347Y216233D01*
X45288Y216277D01*
X45229Y216306D01*
X45199Y216336D01*
X45184Y216351D01*
X45106Y216410D01*
X45066Y216439D01*
X45022Y216483D01*
X45011Y216498D01*
X44989Y216528D01*
X44978Y216542D01*
X44958Y216557D01*
X44939Y216572D01*
X44919Y216587D01*
X44908Y216602D01*
X44875Y216646D01*
Y216646D01*
X44845Y216675D01*
X44830Y216690D01*
X44786Y216749D01*
X44786Y216026D01*
X44152Y216026D01*
Y216026D01*
Y216749D01*
Y216808D01*
Y216867D01*
Y216926D01*
Y216985D01*
Y217103D01*
Y217177D01*
Y217251D01*
Y217472D01*
Y217561D01*
Y217634D01*
Y217811D01*
Y217900D01*
Y217988D01*
Y218092D01*
Y218180D01*
Y218372D01*
Y218461D01*
Y218564D01*
Y218652D01*
Y218741D01*
Y218918D01*
Y218992D01*
Y219080D01*
Y219154D01*
Y219242D01*
Y219316D01*
Y219375D01*
Y219523D01*
Y219641D01*
Y219700D01*
Y219744D01*
Y219803D01*
Y219818D01*
Y222120D01*
X44786Y222120D01*
Y222120D01*
D02*
G37*
G36*
X65427Y220644D02*
X65560Y220629D01*
X65619Y220615D01*
X65737Y220585D01*
X65796Y220570D01*
X65796Y220570D01*
X65865Y220541D01*
X65899Y220526D01*
X66017Y220497D01*
X66052Y220482D01*
X66121Y220452D01*
X66180Y220423D01*
X66239Y220393D01*
X66265Y220379D01*
X66316Y220349D01*
X66342Y220334D01*
X66386Y220305D01*
X66431Y220275D01*
X66451Y220261D01*
X66513Y220216D01*
X66534Y220202D01*
X66622Y220142D01*
X66693Y220084D01*
X66711Y220069D01*
X66770Y220010D01*
X66799Y219980D01*
X66799Y219980D01*
X66870Y219921D01*
X66888Y219907D01*
X66900Y219892D01*
X66925Y219862D01*
X66999Y219774D01*
X67035Y219729D01*
X67099Y219641D01*
X67109Y219626D01*
X67134Y219582D01*
X67168Y219523D01*
Y219523D01*
X67207Y219464D01*
X67227Y219434D01*
X67278Y219346D01*
X67286Y219331D01*
X67308Y219272D01*
X67330Y219213D01*
X67337Y219198D01*
X67368Y219125D01*
X67375Y219110D01*
X67397Y219051D01*
X67419Y218992D01*
X67427Y218962D01*
X67449Y218888D01*
Y218888D01*
X67471Y218800D01*
X67493Y218711D01*
X67508Y218652D01*
X67511Y218623D01*
X67511Y218623D01*
Y218623D01*
X67516Y218579D01*
X67522Y218520D01*
X67522Y218520D01*
X67533Y218431D01*
X67537Y218402D01*
Y218372D01*
Y218151D01*
X67533Y218121D01*
X67528Y218077D01*
X67524Y218047D01*
Y218047D01*
X67513Y217959D01*
X67508Y217915D01*
X67485Y217811D01*
X67478Y217782D01*
X67463Y217723D01*
X67449Y217664D01*
X67444Y217649D01*
X67419Y217561D01*
X67397Y217502D01*
X67375Y217442D01*
X67368Y217428D01*
X67343Y217369D01*
X67330Y217339D01*
X67314Y217295D01*
X67292Y217236D01*
X67286Y217221D01*
X67252Y217162D01*
X67219Y217103D01*
X67168Y217015D01*
X67109Y216926D01*
X67077Y216882D01*
X67035Y216823D01*
Y216823D01*
X66962Y216734D01*
X66937Y216705D01*
X66900Y216661D01*
X66888Y216646D01*
X66835Y216602D01*
X66799Y216572D01*
X66770Y216542D01*
X66755Y216528D01*
X66740Y216513D01*
X66726Y216498D01*
X66711Y216483D01*
X66658Y216439D01*
X66622Y216410D01*
X66534Y216351D01*
X66492Y216321D01*
X66431Y216277D01*
X66353Y216233D01*
X66276Y216188D01*
X66224Y216159D01*
X66189Y216144D01*
X66086Y216100D01*
X66017Y216070D01*
X65899Y216026D01*
X65722Y215982D01*
X65663Y215967D01*
X65545Y215952D01*
X65486Y215938D01*
X65427Y215923D01*
X64985D01*
X64896Y215938D01*
X64793Y215952D01*
X64704Y215967D01*
X64616Y215982D01*
X64483Y216026D01*
X64350Y216070D01*
X64262Y216100D01*
X64173Y216144D01*
X64149Y216159D01*
X64099Y216188D01*
X64011Y216233D01*
X63937Y216277D01*
X63849Y216321D01*
X63812Y216351D01*
X63738Y216410D01*
X63701Y216439D01*
X63657Y216483D01*
X63642Y216498D01*
X63568Y216557D01*
X63568Y216557D01*
X63539Y216587D01*
X63524Y216602D01*
X63465Y216661D01*
X63435Y216690D01*
X63388Y216749D01*
X63353Y216793D01*
X63329Y216823D01*
X63294Y216867D01*
X63270Y216897D01*
X63258Y216911D01*
X63241Y216941D01*
X63214Y216985D01*
X63185Y217029D01*
X63155Y217074D01*
X63128Y217118D01*
X63111Y217148D01*
X63103Y217162D01*
X63022Y217325D01*
X63017Y217339D01*
X63003Y217383D01*
X62993Y217413D01*
X62985Y217428D01*
X62963Y217472D01*
X62948Y217502D01*
X62939Y217531D01*
X62934Y217546D01*
X63612Y217546D01*
X63612Y217546D01*
X63627Y217531D01*
X63635Y217502D01*
X63642Y217472D01*
X63657Y217428D01*
X63667Y217413D01*
X63686Y217383D01*
X63701Y217339D01*
X63711Y217325D01*
X63819Y217162D01*
X63834Y217148D01*
X63863Y217118D01*
X63893Y217074D01*
X63937Y217029D01*
X63966Y216985D01*
X64011Y216941D01*
X64050Y216911D01*
X64070Y216897D01*
X64114Y216867D01*
X64158Y216823D01*
X64217Y216793D01*
X64262Y216749D01*
X64380Y216690D01*
X64453Y216661D01*
X64571Y216602D01*
X64645Y216587D01*
X64719Y216557D01*
X64719Y216557D01*
X65014Y216498D01*
X65353D01*
X65427Y216513D01*
X65516Y216528D01*
X65589Y216542D01*
X65663Y216572D01*
X65752Y216602D01*
X65862Y216646D01*
X65899Y216661D01*
X65973Y216705D01*
X66032Y216734D01*
X66180Y216823D01*
X66180Y216823D01*
X66239Y216882D01*
X66298Y216926D01*
X66386Y217015D01*
X66475Y217103D01*
X66519Y217162D01*
X66566Y217221D01*
X66578Y217236D01*
X66622Y217295D01*
X66649Y217339D01*
X66666Y217369D01*
X66696Y217428D01*
X66705Y217442D01*
X66740Y217502D01*
X66764Y217561D01*
X66799Y217649D01*
X66802Y217664D01*
X66814Y217723D01*
X66834Y217782D01*
X66844Y217811D01*
X66864Y217915D01*
X66873Y217959D01*
Y218047D01*
X62831Y218047D01*
X62831Y218077D01*
X62816Y218121D01*
Y218151D01*
X62816Y218372D01*
X62823Y218402D01*
X62831Y218431D01*
Y218520D01*
Y218520D01*
X62845Y218579D01*
Y218623D01*
Y218623D01*
X62860Y218667D01*
Y218711D01*
Y218711D01*
X62875Y218756D01*
X62875Y218815D01*
Y218815D01*
X62904Y218903D01*
X62929Y218977D01*
X62958Y219065D01*
X62983Y219139D01*
X62993Y219169D01*
X63022Y219213D01*
Y219213D01*
X63052Y219301D01*
X63081Y219331D01*
X63091Y219361D01*
X63096Y219375D01*
X63126Y219420D01*
Y219420D01*
X63140Y219464D01*
X63150Y219479D01*
X63199Y219552D01*
X63229Y219611D01*
X63273Y219656D01*
X63273Y219656D01*
X63317Y219715D01*
X63347Y219774D01*
X63391Y219818D01*
X63402Y219833D01*
X63424Y219862D01*
X63435Y219877D01*
X63475Y219907D01*
X63494Y219921D01*
X63506Y219936D01*
X63528Y219965D01*
X63539Y219980D01*
X63539Y219980D01*
X63578Y220010D01*
X63598Y220025D01*
X63620Y220054D01*
X63631Y220069D01*
X63642Y220084D01*
X63642Y220084D01*
X63721Y220142D01*
X63799Y220202D01*
X63819Y220216D01*
X63893Y220261D01*
X63912Y220275D01*
X63952Y220305D01*
X64001Y220334D01*
X64026Y220349D01*
X64099Y220379D01*
X64119Y220393D01*
X64158Y220423D01*
X64232Y220452D01*
X64321Y220482D01*
X64358Y220497D01*
X64431Y220526D01*
X64468Y220541D01*
X64557Y220570D01*
X64557Y220570D01*
X64645Y220585D01*
X64719Y220615D01*
X64808Y220629D01*
X64911Y220644D01*
X64999D01*
X65088Y220659D01*
X65309D01*
X65427Y220644D01*
D02*
G37*
G36*
X105057Y222267D02*
X105057Y221367D01*
X104452Y221367D01*
Y221367D01*
X104452Y222267D01*
X105057Y222267D01*
X105057Y222267D01*
D02*
G37*
G36*
X73173Y220659D02*
X73217Y220644D01*
X73306D01*
X73335Y220630D01*
X73380Y220629D01*
X73380D01*
X73424Y220615D01*
X73468Y220615D01*
X73513Y220600D01*
X73557Y220585D01*
X73601Y220570D01*
X73630Y220556D01*
X73719Y220526D01*
X73808Y220497D01*
X73808D01*
X73822Y220482D01*
X73837Y220467D01*
X73881Y220452D01*
X73881D01*
X73926Y220423D01*
X73926Y220423D01*
X73955Y220408D01*
X73999Y220379D01*
X74014Y220364D01*
X74029Y220349D01*
X74058Y220334D01*
X74081Y220320D01*
X74103Y220305D01*
X74117Y220290D01*
X74162Y220246D01*
X74191Y220202D01*
X74250Y220143D01*
X74279Y220099D01*
X74280Y220541D01*
X74914Y220541D01*
X74914Y220541D01*
X74914Y220099D01*
Y220069D01*
Y220054D01*
Y220039D01*
Y220025D01*
Y220010D01*
Y219980D01*
Y219965D01*
Y219936D01*
Y219907D01*
Y219877D01*
Y219847D01*
Y219833D01*
Y219774D01*
Y219759D01*
Y219729D01*
Y219670D01*
Y219641D01*
Y219611D01*
Y219523D01*
Y219508D01*
Y219479D01*
Y219464D01*
Y219434D01*
Y219420D01*
Y219390D01*
Y219375D01*
Y219346D01*
Y219331D01*
Y219301D01*
Y219272D01*
Y219257D01*
Y219228D01*
Y219198D01*
Y219169D01*
Y219139D01*
Y219080D01*
Y219051D01*
Y218977D01*
Y218947D01*
Y218844D01*
Y218800D01*
X74914Y216012D01*
X74280Y216011D01*
Y216012D01*
X74280Y218800D01*
X74265Y218844D01*
X74265Y218947D01*
X74250Y218977D01*
X74250Y219051D01*
X74235Y219080D01*
Y219139D01*
X74221Y219169D01*
Y219198D01*
X74206Y219228D01*
Y219257D01*
X74191Y219272D01*
X74191Y219301D01*
X74176Y219331D01*
X74176Y219346D01*
X74162Y219375D01*
X74147Y219390D01*
X74147Y219420D01*
X74132Y219434D01*
X74117Y219464D01*
X74117Y219479D01*
X74103Y219508D01*
X74088Y219523D01*
X74044Y219611D01*
X74014Y219641D01*
X73999Y219670D01*
X73940Y219729D01*
X73926Y219759D01*
X73896Y219774D01*
X73837Y219833D01*
X73808Y219847D01*
X73778Y219877D01*
X73719Y219907D01*
X73689Y219936D01*
X73630Y219965D01*
X73586Y219980D01*
X73527Y220010D01*
X73483Y220025D01*
X73453D01*
X73409Y220039D01*
X73380Y220054D01*
X73291D01*
X73262Y220069D01*
X72937D01*
X72893Y220054D01*
X72819Y220054D01*
X72775Y220039D01*
X72745Y220025D01*
X72701Y220025D01*
X72642Y219995D01*
X72598Y219980D01*
X72539Y219951D01*
X72509Y219936D01*
X72465Y219907D01*
X72435Y219892D01*
X72406Y219877D01*
X72376Y219848D01*
X72347Y219833D01*
X72347Y219833D01*
Y219833D01*
X72332Y219803D01*
X72303Y219774D01*
X72273Y219759D01*
X72244Y219729D01*
X72229Y219700D01*
X72229Y219700D01*
X72199Y219670D01*
X72170Y219641D01*
X72170D01*
X72155Y219611D01*
X72140Y219582D01*
X72140Y219582D01*
X72111Y219552D01*
X72096Y219523D01*
X72096D01*
Y219508D01*
X72096Y219508D01*
X72081Y219479D01*
X72081Y219479D01*
X72067Y219464D01*
Y219464D01*
X72067Y219434D01*
X72066Y219434D01*
X72052Y219420D01*
X72052Y219420D01*
X72037Y219390D01*
X72037Y219390D01*
Y219375D01*
Y219375D01*
X72022Y219346D01*
X72022Y219346D01*
X72008Y219331D01*
Y219331D01*
X72008Y219302D01*
X72007Y219301D01*
X71993Y219272D01*
Y219272D01*
Y219257D01*
X71985Y219242D01*
X71978Y219228D01*
Y219228D01*
Y219198D01*
X71978Y219198D01*
X71963Y219169D01*
X71963Y219169D01*
Y219139D01*
X71963Y219139D01*
X71948Y219110D01*
X71948Y219080D01*
Y219051D01*
X71948Y219051D01*
X71934Y219021D01*
X71934Y218977D01*
Y218948D01*
X71934Y218947D01*
X71919Y218918D01*
Y218756D01*
Y218726D01*
Y216012D01*
X71285Y216011D01*
Y216012D01*
X71285Y218726D01*
X71270Y218756D01*
Y218918D01*
X71270Y218947D01*
Y218948D01*
X71255Y218977D01*
Y219021D01*
Y219051D01*
X71255Y219051D01*
X71240Y219080D01*
Y219110D01*
X71240Y219139D01*
Y219139D01*
X71226Y219169D01*
Y219169D01*
X71226Y219198D01*
Y219198D01*
X71211Y219228D01*
Y219228D01*
Y219242D01*
X71203Y219257D01*
X71196Y219272D01*
Y219272D01*
X71196Y219301D01*
X71196Y219302D01*
X71181Y219331D01*
X71181Y219331D01*
X71167Y219346D01*
Y219346D01*
X71167Y219375D01*
X71167Y219375D01*
X71152Y219390D01*
X71152Y219390D01*
X71137Y219420D01*
Y219420D01*
X71137Y219434D01*
X71137Y219434D01*
X71122Y219464D01*
X71122Y219464D01*
X71108Y219479D01*
Y219479D01*
Y219508D01*
X71108Y219508D01*
X71093Y219523D01*
X71078Y219552D01*
X71063Y219582D01*
X71063Y219582D01*
X71034Y219611D01*
X71019Y219641D01*
X70989Y219670D01*
X70975Y219700D01*
X70975Y219700D01*
X70945Y219729D01*
X70916Y219759D01*
X70901Y219774D01*
X70871Y219803D01*
X70842Y219833D01*
X70842Y219833D01*
X70841Y219833D01*
X70813Y219847D01*
X70783Y219877D01*
X70753Y219892D01*
X70724Y219907D01*
X70694Y219936D01*
X70665Y219951D01*
X70621Y219965D01*
X70562Y219995D01*
X70517Y220010D01*
X70517D01*
X70488Y220025D01*
X70444D01*
X70414Y220039D01*
X70370Y220054D01*
X70296D01*
X70267Y220069D01*
X69927D01*
X69898Y220054D01*
X69824Y220054D01*
X69780Y220039D01*
X69750Y220025D01*
X69706Y220025D01*
X69676Y220010D01*
X69632Y219995D01*
X69544Y219951D01*
X69499Y219936D01*
X69470Y219907D01*
X69411Y219877D01*
X69381Y219848D01*
X69352Y219833D01*
X69293Y219774D01*
X69219Y219700D01*
X69212Y219685D01*
X69204Y219670D01*
X69175Y219641D01*
X69160Y219611D01*
X69131Y219582D01*
X69101Y219523D01*
X69086Y219508D01*
X69086Y219479D01*
X69086Y219479D01*
X69071Y219464D01*
X69057Y219434D01*
X69057Y219420D01*
X69042Y219390D01*
X69027Y219375D01*
X69027Y219346D01*
X69012Y219331D01*
X68998Y219302D01*
Y219272D01*
X68983Y219243D01*
X68983Y219242D01*
Y219228D01*
X68968Y219198D01*
Y219139D01*
X68953Y219110D01*
Y219110D01*
Y219080D01*
X68939Y219051D01*
X68939Y218977D01*
X68939Y218977D01*
X68924Y218948D01*
X68924Y218844D01*
Y218726D01*
X68914Y218697D01*
X68909Y218682D01*
X68909Y216012D01*
X68275Y216011D01*
Y216012D01*
X68275Y218682D01*
Y218697D01*
X68278Y218726D01*
X68289Y218844D01*
Y218948D01*
Y218977D01*
Y218977D01*
X68298Y219051D01*
X68301Y219080D01*
X68304Y219110D01*
Y219110D01*
X68311Y219139D01*
X68324Y219198D01*
X68330Y219228D01*
X68334Y219242D01*
Y219243D01*
X68341Y219272D01*
X68348Y219302D01*
X68356Y219331D01*
X68360Y219346D01*
X68367Y219375D01*
X68371Y219390D01*
X68378Y219420D01*
X68382Y219434D01*
X68389Y219464D01*
X68393Y219479D01*
Y219479D01*
X68405Y219508D01*
X68412Y219523D01*
X68437Y219582D01*
X68450Y219611D01*
X68462Y219641D01*
X68475Y219670D01*
X68481Y219685D01*
X68489Y219700D01*
X68526Y219774D01*
X68565Y219833D01*
X68575Y219848D01*
X68594Y219877D01*
X68614Y219907D01*
X68634Y219936D01*
X68644Y219951D01*
X68679Y219995D01*
X68691Y220010D01*
X68703Y220025D01*
Y220025D01*
X68714Y220039D01*
X68726Y220054D01*
X68726Y220054D01*
X68738Y220069D01*
X68762Y220098D01*
X68835Y220157D01*
X68871Y220202D01*
X68894Y220231D01*
X68968Y220290D01*
Y220290D01*
X69017Y220320D01*
X69091Y220364D01*
X69140Y220393D01*
X69190Y220423D01*
X69278Y220467D01*
X69315Y220482D01*
X69352Y220497D01*
X69426Y220526D01*
X69426Y220526D01*
X69470Y220541D01*
X69514Y220556D01*
X69514Y220556D01*
X69588Y220585D01*
X69588Y220585D01*
X69662Y220600D01*
X69735Y220615D01*
X69809Y220629D01*
X69883Y220644D01*
X69957D01*
X70030Y220659D01*
X70178D01*
X70222Y220644D01*
X70311D01*
X70370Y220629D01*
X70414D01*
X70458Y220615D01*
X70517Y220600D01*
X70562Y220585D01*
X70562Y220585D01*
X70680Y220556D01*
X70680Y220556D01*
X70724Y220541D01*
X70783Y220526D01*
X70783Y220526D01*
X70842Y220497D01*
X70886Y220482D01*
X70916Y220467D01*
X71004Y220423D01*
X71048Y220393D01*
X71108Y220364D01*
X71152Y220320D01*
X71211Y220290D01*
X71211Y220290D01*
X71270Y220231D01*
X71299Y220202D01*
X71358Y220157D01*
X71417Y220098D01*
X71447Y220069D01*
X71447D01*
X71454Y220054D01*
X71462Y220039D01*
X71469Y220025D01*
X71476Y220010D01*
X71476D01*
X71487Y219995D01*
X71510Y219965D01*
X71521Y219951D01*
X71532Y219936D01*
X71554Y219907D01*
X71565Y219892D01*
X71572Y219877D01*
X71587Y219847D01*
X71594Y219833D01*
X71605Y219848D01*
X71628Y219877D01*
X71639Y219892D01*
X71646Y219907D01*
X71661Y219936D01*
X71668Y219951D01*
X71690Y219980D01*
X71701Y219995D01*
X71723Y220025D01*
X71724Y220025D01*
X71735Y220039D01*
X71746Y220054D01*
X71746Y220054D01*
X71757Y220069D01*
X71787Y220099D01*
X71831Y220143D01*
X71890Y220202D01*
X71934Y220246D01*
X71978Y220290D01*
X72008Y220305D01*
X72037Y220320D01*
X72052Y220334D01*
X72067Y220349D01*
X72081Y220364D01*
X72111Y220379D01*
X72170Y220408D01*
X72199Y220423D01*
X72199Y220423D01*
X72244Y220452D01*
X72244D01*
X72273Y220467D01*
X72303Y220482D01*
X72362Y220497D01*
X72362D01*
X72406Y220526D01*
X72524Y220556D01*
X72524D01*
X72568Y220570D01*
X72627Y220585D01*
X72671Y220600D01*
X72730Y220615D01*
X72730Y220615D01*
X72775Y220629D01*
X72834D01*
X72834Y220630D01*
X72878Y220644D01*
X72967D01*
X73011Y220659D01*
X73173Y220659D01*
X73173Y220659D01*
D02*
G37*
G36*
X88990D02*
X89137Y220644D01*
X89137D01*
X89270Y220629D01*
X89668Y220541D01*
X89786Y220497D01*
X89816Y220482D01*
X89875Y220452D01*
X89904Y220438D01*
X90008Y220393D01*
X90067Y220364D01*
X90126Y220334D01*
X90146Y220320D01*
X90229Y220261D01*
X90317Y220187D01*
X90317Y220187D01*
X90400Y220128D01*
X90421Y220113D01*
X90456Y220084D01*
X90474Y220069D01*
X90509Y220039D01*
X90539Y220010D01*
X90568Y219980D01*
X90583Y219965D01*
X90627Y219921D01*
X90657Y219892D01*
X90672Y219877D01*
X90745Y219788D01*
X90766Y219759D01*
X90809Y219700D01*
X90819Y219685D01*
X90844Y219656D01*
X90893Y219597D01*
Y219597D01*
X90935Y219523D01*
X90969Y219464D01*
X91011Y219390D01*
X91042Y219316D01*
X91106Y219169D01*
X91144Y219080D01*
X91144D01*
X91166Y218992D01*
X91173Y218962D01*
X91190Y218903D01*
X91203Y218859D01*
X91217Y218800D01*
X91232Y218741D01*
X91236Y218711D01*
X91247Y218638D01*
X91251Y218608D01*
X91262Y218520D01*
X91266Y218490D01*
X91277Y218416D01*
Y218387D01*
Y218180D01*
Y218165D01*
X91265Y218077D01*
X91262Y218047D01*
X91255Y217988D01*
X91247Y217915D01*
X91245Y217900D01*
X91232Y217797D01*
X91214Y217723D01*
X91203Y217679D01*
X91186Y217634D01*
X91159Y217561D01*
X91155Y217546D01*
X91136Y217472D01*
X91129Y217442D01*
X91104Y217383D01*
X91085Y217339D01*
X91033Y217236D01*
X91026Y217221D01*
X90992Y217162D01*
X90958Y217103D01*
X90916Y217029D01*
X90908Y217015D01*
X90849Y216926D01*
X90838Y216911D01*
X90806Y216867D01*
X90775Y216823D01*
X90763Y216808D01*
X90701Y216734D01*
X90642Y216675D01*
X90612Y216646D01*
X90568Y216602D01*
X90539Y216572D01*
X90524Y216557D01*
X90494Y216528D01*
X90480Y216513D01*
X90465Y216498D01*
X90450Y216483D01*
X90388Y216439D01*
X90347Y216410D01*
X90325Y216395D01*
X90258Y216351D01*
X90238Y216336D01*
X90176Y216292D01*
X90155Y216277D01*
X90129Y216262D01*
X89974Y216174D01*
X89949Y216159D01*
X89909Y216144D01*
X89831Y216115D01*
X89752Y216085D01*
X89712Y216070D01*
X89644Y216041D01*
X89609Y216026D01*
X89609D01*
X89476Y215997D01*
X89417Y215982D01*
X89359Y215967D01*
X89358D01*
X89240Y215952D01*
X89240D01*
X89108Y215938D01*
X89108D01*
X88990Y215923D01*
X88650D01*
X88606Y215938D01*
X88547D01*
X88503Y215952D01*
X88444D01*
X88385Y215967D01*
X88385D01*
X88340Y215982D01*
X88281Y215997D01*
X88163Y216026D01*
X88163D01*
X88090Y216041D01*
X88031Y216070D01*
X87972Y216085D01*
X87913Y216115D01*
X87839Y216144D01*
X87809Y216159D01*
X87780Y216174D01*
X87662Y216262D01*
X87625Y216277D01*
X87588Y216292D01*
X87529Y216336D01*
X87514Y216351D01*
X87470Y216395D01*
X87450Y216410D01*
X87411Y216439D01*
X87367Y216483D01*
X87352Y216498D01*
X87337Y216513D01*
X87322Y216528D01*
X87234Y216616D01*
Y216616D01*
X87216Y216646D01*
X87198Y216675D01*
X87190Y216690D01*
X87131Y216763D01*
X87131Y216026D01*
X86496Y216026D01*
Y216026D01*
X86496Y216763D01*
Y216764D01*
Y216823D01*
X86496Y216867D01*
Y216926D01*
Y216985D01*
Y217103D01*
Y217177D01*
Y217251D01*
Y217472D01*
Y217561D01*
Y217649D01*
Y217723D01*
Y217900D01*
Y218003D01*
Y218092D01*
Y218180D01*
Y218372D01*
Y218475D01*
X86496Y218564D01*
Y218652D01*
Y218741D01*
X86496Y219007D01*
Y219080D01*
Y219169D01*
Y219316D01*
Y219390D01*
Y219449D01*
Y219523D01*
Y219641D01*
Y219759D01*
Y219803D01*
Y219818D01*
X86496Y220541D01*
X87131D01*
Y219818D01*
X87154Y219848D01*
X87190Y219892D01*
X87223Y219936D01*
X87234Y219951D01*
X87246Y219965D01*
X87269Y219995D01*
X87293Y220025D01*
X87352Y220084D01*
Y220084D01*
X87391Y220113D01*
X87411Y220128D01*
X87470Y220187D01*
X87470Y220187D01*
X87568Y220261D01*
X87647Y220320D01*
X87672Y220334D01*
X87721Y220364D01*
X87780Y220393D01*
X87868Y220438D01*
X87898Y220452D01*
X87972Y220482D01*
X88001Y220497D01*
X88090Y220541D01*
X88444Y220629D01*
X88503D01*
X88547Y220644D01*
X88650D01*
X88694Y220659D01*
X88990Y220659D01*
X88990Y220659D01*
D02*
G37*
G36*
X88725Y258990D02*
X89049Y258976D01*
X89049D01*
X89358Y258961D01*
X89359D01*
X89514Y258946D01*
X89668Y258931D01*
X89772Y258916D01*
X89772Y258916D01*
X89875Y258902D01*
X90288Y258843D01*
X90288Y258843D01*
X90406Y258813D01*
X90583Y258769D01*
X90701Y258739D01*
X90760Y258725D01*
X90878Y258695D01*
X90878Y258695D01*
X90927Y258680D01*
X91026Y258651D01*
X91173Y258607D01*
X91220Y258592D01*
X91313Y258562D01*
X91454Y258518D01*
X91454Y258518D01*
X91489Y258503D01*
X91664Y258430D01*
X91699Y258415D01*
X91734Y258400D01*
X91814Y258371D01*
X91814Y258370D01*
X92014Y258297D01*
X92295Y258164D01*
X92560Y258031D01*
X92811Y257884D01*
X93313Y257559D01*
X93549Y257397D01*
X94021Y257013D01*
X94242Y256821D01*
X94655Y256408D01*
X95039Y255966D01*
X95216Y255730D01*
X95393Y255479D01*
X95555Y255243D01*
X95703Y254992D01*
X95850Y254726D01*
X95865Y254697D01*
X95880Y254667D01*
X95887Y254653D01*
X95895Y254638D01*
X95902Y254623D01*
X95909Y254608D01*
X95932Y254564D01*
X95939Y254549D01*
X95961Y254505D01*
Y254505D01*
X95983Y254461D01*
X95983Y254461D01*
X95990Y254446D01*
X95996Y254431D01*
X95996Y254431D01*
X96003Y254417D01*
X96003Y254416D01*
X96009Y254402D01*
X96009Y254402D01*
X96016Y254387D01*
X96029Y254357D01*
X96062Y254284D01*
X96101Y254195D01*
X96119Y254151D01*
X96187Y253989D01*
X96279Y253767D01*
X96383Y253517D01*
X96505Y253221D01*
X96640Y252897D01*
X96787Y252543D01*
X96953Y252144D01*
X97124Y251731D01*
X97308Y251289D01*
X97498Y250831D01*
X97694Y250359D01*
X97902Y249857D01*
X98111Y249356D01*
X98325Y248839D01*
X98546Y248308D01*
X98766Y247777D01*
X98987Y247246D01*
X99207Y246715D01*
X99428Y246184D01*
X99642Y245667D01*
X99857Y245151D01*
X100065Y244649D01*
X100267Y244162D01*
X100463Y243690D01*
X100647Y243248D01*
X100825Y242820D01*
X100996Y242407D01*
X101149Y242038D01*
X103955Y235280D01*
X103998Y235177D01*
X104041Y235074D01*
X104090Y234956D01*
X104133Y234853D01*
X104176Y234749D01*
X104225Y234631D01*
X104268Y234528D01*
X104311Y234425D01*
X104354Y234321D01*
X104403Y234203D01*
X104445Y234100D01*
X104488Y233997D01*
X104525Y233908D01*
X104568Y233805D01*
X104605Y233716D01*
X104703Y233480D01*
X104703Y233466D01*
X104717Y233466D01*
X104717Y233451D01*
X104718Y233421D01*
X104732Y233407D01*
Y233377D01*
Y233288D01*
Y233230D01*
Y233215D01*
X104718Y233185D01*
Y233171D01*
X104703Y233156D01*
Y233156D01*
X104703Y233126D01*
X104688Y233111D01*
X104681Y233097D01*
X104673Y233082D01*
Y233067D01*
X104658Y233052D01*
X104644Y233038D01*
X104629Y233008D01*
X104614Y232993D01*
X104585Y232964D01*
X104555Y232949D01*
X104541Y232934D01*
X104526Y232934D01*
X104511Y232920D01*
X104511Y232920D01*
X104481Y232905D01*
X104467Y232890D01*
X104437D01*
X104423Y232875D01*
X104393Y232875D01*
X104378Y232861D01*
X84490Y232861D01*
X84489Y232861D01*
X84357Y232875D01*
X84356Y232875D01*
X84239Y232890D01*
X84239D01*
X84180Y232905D01*
X84121Y232920D01*
X84121Y232920D01*
X84081Y232934D01*
X84081Y232934D01*
X84042Y232949D01*
X84003Y232964D01*
X84003D01*
X83899Y232993D01*
X83874Y233008D01*
X83822Y233038D01*
X83796Y233052D01*
X83766Y233067D01*
X83737Y233082D01*
X83708Y233097D01*
X83686Y233111D01*
X83663Y233126D01*
X83619Y233156D01*
Y233156D01*
X83604Y233171D01*
X83589Y233185D01*
X83560Y233215D01*
X83545Y233230D01*
X83471Y233288D01*
X83398Y233377D01*
X83374Y233407D01*
X83362Y233421D01*
X83339Y233451D01*
X83331Y233466D01*
X83331Y233466D01*
X83324Y233480D01*
X83206Y233716D01*
X83176Y233805D01*
X83162Y233908D01*
X83147Y233997D01*
X83132Y234100D01*
X83147Y234203D01*
X83162Y234321D01*
X83176Y234425D01*
X83206Y234528D01*
X83250Y234631D01*
X83294Y234749D01*
X83354Y234853D01*
X83427Y234956D01*
X83516Y235074D01*
X83604Y235177D01*
X83693Y235280D01*
X90922Y242038D01*
X91277Y242407D01*
X91586Y242820D01*
X91867Y243248D01*
X92118Y243690D01*
X92339Y244162D01*
X92516Y244649D01*
X92649Y245151D01*
X92767Y245667D01*
X92840Y246184D01*
X92870Y246715D01*
Y247246D01*
X92840Y247777D01*
X92781Y248308D01*
X92663Y248839D01*
X92531Y249356D01*
X92353Y249857D01*
X92132Y250359D01*
X91881Y250831D01*
X91601Y251289D01*
X91277Y251731D01*
X90908Y252144D01*
X90509Y252543D01*
X90081Y252897D01*
X89594Y253221D01*
X89093Y253517D01*
X88532Y253767D01*
X87942Y253989D01*
X87322Y254151D01*
X87101Y254195D01*
X86658Y254284D01*
X85950Y254357D01*
X85212Y254387D01*
X46630D01*
X46616Y254402D01*
X46571Y254402D01*
X46557Y254416D01*
X46542Y254417D01*
X46527Y254431D01*
X46512Y254431D01*
X46498Y254446D01*
X46483D01*
X46468Y254461D01*
X46453Y254461D01*
X46409Y254505D01*
X46394Y254505D01*
X46350Y254549D01*
X46350Y254564D01*
X46306Y254608D01*
Y254623D01*
X46291Y254638D01*
X46291Y254653D01*
X46276Y254667D01*
X46276Y254697D01*
X46264Y254726D01*
X46154Y254992D01*
X46051Y255243D01*
X45953Y255479D01*
X45849Y255730D01*
X45751Y255966D01*
X45568Y256408D01*
X45397Y256821D01*
X45318Y257013D01*
X45159Y257397D01*
X45092Y257559D01*
X44958Y257884D01*
X44897Y258031D01*
X44842Y258164D01*
X44787Y258297D01*
X44757Y258370D01*
X44742Y258371D01*
X44742Y258400D01*
X44742Y258415D01*
X44727Y258430D01*
X44727Y258503D01*
X44712Y258518D01*
Y258518D01*
X44712Y258562D01*
X44727Y258592D01*
Y258607D01*
Y258651D01*
X44742Y258680D01*
X44742Y258695D01*
Y258695D01*
X44757Y258725D01*
X44771Y258739D01*
X44771Y258769D01*
X44816Y258813D01*
X44830Y258843D01*
X44830Y258843D01*
X44889Y258902D01*
X44919Y258916D01*
X44934Y258916D01*
X44948Y258931D01*
X44963Y258946D01*
X44993Y258961D01*
X45007D01*
X45037Y258976D01*
X45081D01*
X45096Y258990D01*
X88724Y258990D01*
X88725Y258990D01*
D02*
G37*
G36*
X85463Y248456D02*
X85567Y248441D01*
X85567Y248441D01*
X85685Y248426D01*
X85685Y248426D01*
X85788Y248412D01*
X85840Y248397D01*
X85840Y248397D01*
X85943Y248367D01*
X85995Y248353D01*
X85995Y248353D01*
X86098Y248308D01*
X86164Y248264D01*
X86186Y248249D01*
X86216Y248235D01*
X86245Y248220D01*
X86275Y248205D01*
X86275Y248205D01*
X86310Y248176D01*
X86328Y248161D01*
X86346Y248146D01*
X86363Y248131D01*
X86385Y248116D01*
X86452Y248072D01*
X86481Y248043D01*
X86496Y248028D01*
X86555Y247969D01*
X86555Y247969D01*
X86599Y247925D01*
X86636Y247880D01*
X86636Y247880D01*
X86673Y247836D01*
X86673Y247836D01*
X86732Y247748D01*
X86821Y247570D01*
X86865Y247467D01*
X86924Y247261D01*
X86939Y247157D01*
Y246936D01*
X86924Y246833D01*
X86895Y246715D01*
X86865Y246611D01*
X86806Y246493D01*
X86747Y246390D01*
X86688Y246272D01*
X86599Y246169D01*
X86496Y246051D01*
X86393Y245948D01*
X79473Y239500D01*
X79458Y239485D01*
X79429Y239471D01*
X79399Y239426D01*
X79340Y239367D01*
X79267Y239308D01*
X79193Y239220D01*
X79016Y239013D01*
X78913Y238880D01*
X78794Y238748D01*
X78691Y238585D01*
X78558Y238423D01*
X78440Y238246D01*
X78322Y238054D01*
X78204Y237848D01*
X78071Y237641D01*
X77954Y237405D01*
X77850Y237169D01*
X77732Y236918D01*
X77629Y236667D01*
X77540Y236402D01*
X77452Y236121D01*
X77304Y235531D01*
X77245Y235221D01*
X77216Y234911D01*
X77186Y234587D01*
X77172Y234262D01*
X77186Y233923D01*
X77216Y233569D01*
X77260Y233215D01*
X77319Y232905D01*
X77393Y232595D01*
X77467Y232300D01*
X77644Y231739D01*
X77850Y231208D01*
X77968Y230943D01*
X78101Y230707D01*
X78234Y230456D01*
X78367Y230234D01*
X78499Y229998D01*
X78647Y229792D01*
X78809Y229585D01*
X78957Y229379D01*
X79281Y228995D01*
X79444Y228818D01*
X79621Y228656D01*
X79783Y228493D01*
X79960Y228346D01*
X80122Y228198D01*
X80299Y228065D01*
X80462Y227933D01*
X80639Y227815D01*
X80700Y227770D01*
X80760Y227726D01*
X80801Y227697D01*
X80826Y227682D01*
X80877Y227652D01*
X80953Y227608D01*
X80978Y227593D01*
X81025Y227564D01*
X81071Y227534D01*
X81140Y227490D01*
X81140Y227490D01*
X81303Y227402D01*
X81400Y227357D01*
X81465Y227328D01*
X81497Y227313D01*
X81562Y227283D01*
X81627Y227254D01*
X81627Y227254D01*
X81627Y227239D01*
X81657Y227239D01*
X81657Y227225D01*
X81671Y227225D01*
X81671Y227210D01*
X81671Y227195D01*
X81686Y227195D01*
X81686Y227180D01*
X81686Y227166D01*
X81686Y227136D01*
X81686Y227092D01*
X81672Y227092D01*
X81671Y227077D01*
X81657Y227077D01*
X81657Y227062D01*
X81642Y227062D01*
X81642Y227062D01*
X81642Y227048D01*
X81613Y227048D01*
X81613Y227033D01*
X73409Y227033D01*
X73409Y227033D01*
X73350Y227048D01*
X73306D01*
X73306Y227048D01*
X73262Y227062D01*
X73217Y227062D01*
X73217Y227062D01*
X73173Y227077D01*
X73173Y227077D01*
X73129Y227092D01*
X73128Y227092D01*
X72996Y227136D01*
X72967Y227166D01*
X72922Y227180D01*
X72900Y227195D01*
X72900Y227195D01*
X72878Y227210D01*
X72849Y227225D01*
X72848Y227225D01*
X72826Y227239D01*
X72826Y227239D01*
X72804Y227254D01*
X72804Y227254D01*
X72775Y227283D01*
X72730Y227313D01*
X72701Y227328D01*
X72671Y227357D01*
X72642Y227402D01*
X72553Y227490D01*
Y227490D01*
X72524Y227534D01*
X72494Y227564D01*
X72475Y227593D01*
X72465Y227608D01*
X72450Y227652D01*
X72435Y227682D01*
X72426Y227697D01*
X72406Y227726D01*
X72391Y227770D01*
X72373Y227815D01*
X72324Y227933D01*
X72269Y228065D01*
X72214Y228198D01*
X72153Y228346D01*
X72091Y228493D01*
X72024Y228656D01*
X71957Y228818D01*
X71883Y228995D01*
X71724Y229379D01*
X71638Y229585D01*
X71553Y229792D01*
X71467Y229998D01*
X71369Y230234D01*
X71278Y230456D01*
X71174Y230707D01*
X71076Y230943D01*
X70965Y231208D01*
X70745Y231739D01*
X70513Y232300D01*
X70390Y232595D01*
X70262Y232905D01*
X70133Y233215D01*
X69987Y233569D01*
X69840Y233923D01*
X69699Y234262D01*
X69564Y234587D01*
X69430Y234911D01*
X69301Y235221D01*
X69173Y235531D01*
X68928Y236121D01*
X68812Y236402D01*
X68702Y236667D01*
X68598Y236918D01*
X68494Y237169D01*
X68396Y237405D01*
X68298Y237641D01*
X68212Y237848D01*
X68127Y238054D01*
X68047Y238246D01*
X67973Y238423D01*
X67906Y238585D01*
X67839Y238748D01*
X67784Y238880D01*
X67729Y239013D01*
X67643Y239220D01*
X67606Y239308D01*
X67582Y239367D01*
X67557Y239426D01*
X67539Y239471D01*
X67533Y239485D01*
X67527Y239500D01*
X64853Y245948D01*
X64810Y246051D01*
X64761Y246169D01*
X64718Y246272D01*
X64669Y246390D01*
X64627Y246493D01*
X64578Y246611D01*
X64535Y246715D01*
X64486Y246833D01*
X64443Y246936D01*
X64351Y247157D01*
X64308Y247261D01*
X64223Y247467D01*
X64180Y247570D01*
X64106Y247748D01*
X64070Y247836D01*
Y247836D01*
X64070Y247880D01*
X64055Y247880D01*
X64055Y247925D01*
X64055Y247969D01*
X64040Y247969D01*
X64040Y248028D01*
X64055Y248043D01*
Y248072D01*
X64055Y248116D01*
X64062Y248131D01*
X64070Y248146D01*
X64070Y248161D01*
X64085Y248176D01*
X64099Y248205D01*
Y248205D01*
Y248220D01*
X64114Y248235D01*
X64121Y248249D01*
X64129Y248264D01*
X64173Y248308D01*
X64217Y248353D01*
X64217Y248353D01*
X64247Y248367D01*
X64276Y248397D01*
X64306Y248397D01*
X64321Y248412D01*
X64335Y248426D01*
X64365Y248426D01*
X64380Y248441D01*
X64453Y248441D01*
X64483Y248456D01*
X85463Y248456D01*
X85463Y248456D01*
D02*
G37*
G36*
X49513D02*
X56899Y248441D01*
X57047D01*
X57047Y248441D01*
X57091Y248426D01*
X57135Y248426D01*
X57135Y248426D01*
X57180Y248412D01*
X57239Y248397D01*
X57239D01*
X57239Y248397D01*
X57268Y248382D01*
X57312Y248367D01*
X57357Y248353D01*
X57445Y248323D01*
X57489Y248293D01*
X57519Y248279D01*
X57541Y248264D01*
X57563Y248249D01*
X57578Y248235D01*
X57593Y248220D01*
X57593Y248220D01*
X57637Y248205D01*
X57637Y248205D01*
X57667Y248175D01*
X57681Y248161D01*
X57696Y248146D01*
X57696Y248146D01*
X57740Y248116D01*
X57740Y248116D01*
X57755Y248102D01*
X57770Y248087D01*
X57799Y248043D01*
X57858Y247984D01*
X57888Y247939D01*
X57903Y247910D01*
X57912Y247895D01*
X57913Y247895D01*
X57932Y247866D01*
X57940Y247851D01*
X57947Y247836D01*
X57947Y247836D01*
X57976Y247792D01*
X58006Y247703D01*
X64537Y231946D01*
X64653Y231666D01*
X64763Y231400D01*
X64983Y230869D01*
X65087Y230618D01*
X65185Y230382D01*
X65289Y230131D01*
X65472Y229688D01*
X65564Y229467D01*
X65735Y229054D01*
X65894Y228671D01*
X65967Y228493D01*
X66102Y228169D01*
X66163Y228021D01*
X66218Y227889D01*
X66273Y227756D01*
X66298Y227697D01*
X66298Y227682D01*
X66312Y227682D01*
X66312Y227638D01*
X66327Y227638D01*
X66327Y227593D01*
X66342Y227593D01*
X66342Y227520D01*
X66342Y227431D01*
X66342Y227387D01*
X66327Y227372D01*
X66327Y227343D01*
X66327Y227343D01*
X66312Y227328D01*
X66312Y227313D01*
X66298Y227284D01*
X66283Y227269D01*
X66283Y227254D01*
X66283Y227254D01*
X66268Y227225D01*
X66239Y227195D01*
X66194Y227151D01*
X66165Y227136D01*
X66165D01*
X66121Y227092D01*
Y227092D01*
X66091Y227077D01*
X66076D01*
X66047Y227062D01*
X66032Y227062D01*
X66017Y227048D01*
X65958Y227048D01*
X65944Y227033D01*
X63140Y227033D01*
X63140Y227033D01*
X62816Y227048D01*
X62815Y227048D01*
X62491Y227062D01*
X62491Y227062D01*
X62336Y227077D01*
X62336D01*
X62181Y227092D01*
X62181Y227092D01*
X61857Y227136D01*
X61857D01*
X61779Y227151D01*
X61547Y227195D01*
X61399Y227225D01*
X61252Y227254D01*
X61252Y227254D01*
X61200Y227269D01*
X61148Y227284D01*
X61045Y227313D01*
X60993Y227328D01*
X60942Y227343D01*
X60942Y227343D01*
X60843Y227372D01*
X60794Y227387D01*
X60647Y227431D01*
X60367Y227520D01*
X60182Y227593D01*
X60182Y227593D01*
X60071Y227638D01*
X60071Y227638D01*
X59966Y227682D01*
X59966Y227682D01*
X59931Y227697D01*
X59791Y227756D01*
X59525Y227889D01*
X59245Y228021D01*
X58980Y228169D01*
X58478Y228493D01*
X58242Y228671D01*
X57770Y229054D01*
X57327Y229467D01*
X57121Y229688D01*
X56737Y230131D01*
X56560Y230382D01*
X56383Y230618D01*
X56221Y230869D01*
X55925Y231400D01*
X55793Y231666D01*
X55675Y231946D01*
X49149Y247703D01*
X49113Y247792D01*
X49094Y247836D01*
X49094Y247836D01*
X49080Y247851D01*
Y247866D01*
X49080Y247895D01*
X49065Y247895D01*
Y247910D01*
X49065Y247939D01*
X49065Y247984D01*
X49065Y248043D01*
X49065Y248087D01*
X49065Y248102D01*
X49079Y248116D01*
Y248116D01*
X49080Y248146D01*
X49080Y248146D01*
X49094Y248161D01*
X49094Y248175D01*
X49109Y248205D01*
Y248205D01*
X49124Y248220D01*
Y248220D01*
X49124Y248235D01*
X49131Y248249D01*
X49139Y248264D01*
X49153Y248279D01*
X49168Y248293D01*
X49198Y248323D01*
X49227Y248353D01*
X49257Y248367D01*
X49271Y248382D01*
X49286Y248397D01*
X49316Y248397D01*
X49330Y248412D01*
X49345Y248426D01*
X49375Y248426D01*
Y248426D01*
X49389Y248441D01*
X49463Y248441D01*
X49493Y248456D01*
X49507Y248456D01*
X49513Y248456D01*
D02*
G37*
G36*
X78322Y220659D02*
X78440Y220644D01*
X78544Y220629D01*
X78662Y220615D01*
X78868Y220556D01*
X78986Y220526D01*
X78986Y220526D01*
X79021Y220511D01*
X79227Y220423D01*
X79296Y220393D01*
X79296Y220393D01*
X79374Y220349D01*
X79425Y220320D01*
X79503Y220275D01*
X79556Y220231D01*
X79627Y220172D01*
X79680Y220128D01*
X79680D01*
X79742Y220084D01*
X79783Y220054D01*
X79812Y220025D01*
X79842Y219995D01*
X79872Y219965D01*
X79901Y219936D01*
X79945Y219892D01*
X80034Y219803D01*
X80071Y219759D01*
X80108Y219715D01*
X80116Y219700D01*
X80150Y219641D01*
X80167Y219611D01*
X80240Y219508D01*
X80266Y219464D01*
X80299Y219405D01*
X80307Y219390D01*
X80344Y219316D01*
X80358Y219287D01*
X80377Y219242D01*
X80403Y219184D01*
X80408Y219169D01*
X80441Y219080D01*
X80447Y219065D01*
X80467Y219007D01*
X80491Y218933D01*
X80521Y218815D01*
X80537Y218741D01*
X80550Y218682D01*
X80565Y218549D01*
X80572Y218475D01*
X80580Y218402D01*
Y218372D01*
Y218284D01*
Y218180D01*
Y218121D01*
X80576Y218092D01*
X80550Y217856D01*
X80543Y217826D01*
X80521Y217738D01*
X80491Y217605D01*
X80475Y217561D01*
X80447Y217487D01*
X80419Y217413D01*
X80403Y217369D01*
X80384Y217325D01*
X80358Y217265D01*
X80351Y217251D01*
X80322Y217192D01*
X80299Y217147D01*
X80282Y217118D01*
X80249Y217059D01*
X80240Y217044D01*
X80198Y216985D01*
X80167Y216941D01*
X80157Y216926D01*
X80127Y216882D01*
X80108Y216852D01*
X80083Y216823D01*
X80034Y216764D01*
X79960Y216690D01*
X79916Y216646D01*
X79886Y216616D01*
X79857Y216587D01*
X79827Y216557D01*
X79812Y216542D01*
X79783Y216513D01*
X79783Y216513D01*
X79762Y216498D01*
X79700Y216454D01*
X79680Y216439D01*
X79644Y216410D01*
X79591Y216366D01*
X79525Y216321D01*
X79503Y216306D01*
X79477Y216292D01*
X79399Y216247D01*
X79296Y216188D01*
X79193Y216144D01*
X79090Y216085D01*
X79038Y216070D01*
X78986Y216056D01*
X78986Y216056D01*
X78908Y216026D01*
X78868Y216011D01*
X78765Y215982D01*
X78662Y215967D01*
X78603Y215952D01*
X78544Y215938D01*
X78440Y215923D01*
X78042D01*
X77983Y215938D01*
X77924D01*
X77865Y215952D01*
X77806D01*
X77747Y215967D01*
X77688Y215982D01*
X77570Y216011D01*
X77496Y216026D01*
X77437Y216056D01*
Y216056D01*
X77378Y216070D01*
X77349Y216085D01*
X77231Y216144D01*
X77142Y216188D01*
X77024Y216247D01*
X76965Y216292D01*
X76943Y216306D01*
X76921Y216321D01*
X76862Y216366D01*
X76817Y216410D01*
X76778Y216439D01*
X76758Y216454D01*
X76725Y216498D01*
X76714Y216513D01*
X76685Y216542D01*
X76655Y216572D01*
X76626Y216602D01*
X76581Y216661D01*
X76552Y216720D01*
X76541Y216734D01*
X76508Y216778D01*
X76508Y216410D01*
X76508Y216366D01*
Y216366D01*
X76531Y216203D01*
X76539Y216144D01*
X76546Y216100D01*
X76554Y216041D01*
X76562Y215982D01*
X76567Y215952D01*
X76571Y215938D01*
X76626Y215775D01*
X76634Y215761D01*
X76661Y215716D01*
X76670Y215702D01*
X76699Y215628D01*
X76717Y215598D01*
X76753Y215539D01*
X76779Y215495D01*
X76832Y215406D01*
X76862Y215377D01*
X76891Y215347D01*
X76902Y215333D01*
X76935Y215288D01*
X76994Y215244D01*
X77024Y215215D01*
X77053Y215185D01*
X77093Y215156D01*
X77112Y215141D01*
X77162Y215111D01*
X77186Y215097D01*
X77245Y215067D01*
X77319Y215023D01*
X77378Y214993D01*
X77452Y214964D01*
X77452D01*
X77526Y214949D01*
X77585Y214920D01*
X77880Y214861D01*
X78027D01*
X78086Y214846D01*
X78190Y214861D01*
X78293D01*
X78381Y214875D01*
X78485Y214890D01*
X78558Y214905D01*
X78647Y214934D01*
X78721Y214964D01*
X78809Y214979D01*
X78858Y215008D01*
X78883Y215023D01*
X78942Y215052D01*
X79016Y215097D01*
X79075Y215126D01*
X79153Y215185D01*
X79193Y215215D01*
X79237Y215259D01*
X79276Y215288D01*
X79296Y215303D01*
X79385Y215392D01*
X79396Y215406D01*
X79429Y215451D01*
X79458Y215495D01*
X79488Y215525D01*
X79503Y215539D01*
X79581Y215657D01*
X79621Y215716D01*
X79636Y215761D01*
X79655Y215790D01*
X79665Y215805D01*
X79694Y215893D01*
X79724Y215923D01*
Y215938D01*
X79724Y215952D01*
X79739Y215982D01*
X80402Y215982D01*
X80403Y215982D01*
X80403Y215952D01*
X80403Y215938D01*
X80397Y215923D01*
X80385Y215893D01*
X80350Y215805D01*
X80344Y215790D01*
X80334Y215761D01*
X80319Y215716D01*
X80299Y215657D01*
X80247Y215539D01*
X80240Y215525D01*
X80226Y215495D01*
X80204Y215451D01*
X80181Y215406D01*
X80172Y215392D01*
X80117Y215303D01*
X80108Y215288D01*
X80086Y215259D01*
X80055Y215215D01*
X80034Y215185D01*
X79985Y215126D01*
X79960Y215097D01*
X79923Y215052D01*
X79899Y215023D01*
X79886Y215008D01*
X79857Y214979D01*
X79842Y214964D01*
X79812Y214934D01*
X79783Y214905D01*
X79768Y214890D01*
X79753Y214875D01*
X79739Y214861D01*
X79724Y214846D01*
Y214846D01*
X79706Y214831D01*
X79636Y214772D01*
X79569Y214728D01*
X79481Y214669D01*
X79370Y214595D01*
X79340Y214580D01*
X79281Y214551D01*
X79193Y214506D01*
X79089Y214462D01*
X78957Y214418D01*
X78912Y214403D01*
X78824Y214374D01*
X78824Y214374D01*
X78750Y214359D01*
X78706Y214344D01*
X78662Y214329D01*
X78662D01*
X78588Y214315D01*
X78499Y214300D01*
X78426D01*
X78367Y214285D01*
X78234D01*
X78234Y214285D01*
X78175Y214270D01*
X77998D01*
X77954Y214285D01*
X77821Y214285D01*
X77762Y214300D01*
X77717D01*
X77658Y214315D01*
X77599Y214329D01*
X77599D01*
X77526Y214344D01*
X77467Y214359D01*
X77393Y214374D01*
X77393Y214374D01*
X77319Y214403D01*
X77260Y214418D01*
X77149Y214462D01*
X77039Y214506D01*
X76965Y214551D01*
X76891Y214580D01*
X76866Y214595D01*
X76744Y214669D01*
X76670Y214728D01*
X76611Y214772D01*
X76537Y214831D01*
X76522Y214846D01*
Y214846D01*
X76508Y214861D01*
X76448Y214920D01*
X76419Y214949D01*
X76404Y214964D01*
X76381Y214993D01*
X76357Y215023D01*
X76322Y215067D01*
X76298Y215097D01*
X76286Y215111D01*
X76267Y215141D01*
X76257Y215156D01*
X76235Y215185D01*
X76213Y215215D01*
X76198Y215244D01*
X76176Y215288D01*
X76153Y215333D01*
X76144Y215347D01*
X76124Y215377D01*
X76109Y215406D01*
X76065Y215495D01*
X76050Y215539D01*
X76021Y215598D01*
X76013Y215628D01*
X75995Y215702D01*
X75991Y215716D01*
X75976Y215761D01*
X75973Y215775D01*
X75932Y215938D01*
X75927Y215952D01*
X75917Y215982D01*
X75917Y216041D01*
X75903Y216100D01*
Y216144D01*
X75888Y216203D01*
Y216366D01*
Y216366D01*
X75873Y216410D01*
Y216778D01*
Y216779D01*
Y216897D01*
Y217015D01*
Y217162D01*
Y217221D01*
Y217442D01*
Y217531D01*
Y217752D01*
Y217841D01*
Y218136D01*
Y218372D01*
Y218475D01*
Y218564D01*
Y218652D01*
Y218741D01*
Y219007D01*
Y219080D01*
Y219169D01*
Y219316D01*
Y219464D01*
Y219523D01*
Y219582D01*
Y219700D01*
Y219759D01*
Y219804D01*
Y220541D01*
X76508D01*
Y219804D01*
X76567Y219877D01*
X76581Y219892D01*
X76626Y219936D01*
Y219936D01*
X76643Y219965D01*
X76661Y219995D01*
X76670Y220010D01*
X76685Y220025D01*
X76744Y220084D01*
X76788Y220128D01*
X76847Y220172D01*
X76921Y220231D01*
X76980Y220275D01*
X77039Y220320D01*
X77098Y220349D01*
X77157Y220393D01*
X77157Y220393D01*
X77231Y220423D01*
X77408Y220511D01*
X77467Y220526D01*
Y220526D01*
X77526Y220556D01*
X77762Y220615D01*
X77821Y220629D01*
X77865D01*
X77924Y220644D01*
X77968D01*
X78012Y220659D01*
X78322Y220659D01*
X78322Y220659D01*
D02*
G37*
%LPC*%
G36*
X88931Y220084D02*
X88753D01*
X88753Y220084D01*
X88399Y220025D01*
X88311Y219995D01*
X88237Y219965D01*
X88193Y219951D01*
X88149Y219936D01*
X88075Y219892D01*
X87986Y219848D01*
X87938Y219818D01*
X87913Y219803D01*
X87853Y219759D01*
X87706Y219641D01*
X87588Y219523D01*
X87529Y219449D01*
X87470Y219390D01*
X87411Y219316D01*
X87322Y219169D01*
X87278Y219080D01*
X87249Y219007D01*
X87160Y218741D01*
X87145Y218652D01*
X87116Y218564D01*
Y218475D01*
X87101Y218372D01*
Y218180D01*
X87116Y218092D01*
Y218003D01*
X87131Y217900D01*
X87190Y217723D01*
X87204Y217649D01*
X87249Y217561D01*
X87278Y217472D01*
X87411Y217251D01*
X87470Y217177D01*
X87514Y217103D01*
X87632Y216985D01*
X87706Y216926D01*
X87765Y216867D01*
X87839Y216823D01*
X87913Y216764D01*
X87913Y216763D01*
X88035Y216690D01*
X88060Y216675D01*
X88149Y216646D01*
X88222Y216616D01*
X88222Y216616D01*
X88488Y216528D01*
X88576Y216513D01*
X88665D01*
X88753Y216498D01*
X88945D01*
X89049Y216513D01*
X89137D01*
X89226Y216528D01*
X89329Y216557D01*
X89417Y216572D01*
X89506Y216602D01*
X89580Y216646D01*
X89668Y216675D01*
X89767Y216734D01*
X89890Y216808D01*
X89908Y216823D01*
X89963Y216867D01*
X90037Y216911D01*
X90052Y216926D01*
X90140Y217015D01*
X90155Y217029D01*
X90214Y217103D01*
X90273Y217162D01*
X90320Y217221D01*
X90332Y217236D01*
X90394Y217339D01*
X90421Y217383D01*
X90450Y217442D01*
X90465Y217472D01*
X90494Y217546D01*
X90502Y217561D01*
X90539Y217634D01*
X90546Y217679D01*
X90554Y217723D01*
X90578Y217797D01*
X90612Y217900D01*
X90615Y217915D01*
X90627Y217988D01*
Y218047D01*
Y218077D01*
X90640Y218165D01*
X90642Y218180D01*
Y218387D01*
X90638Y218416D01*
X90627Y218490D01*
X90624Y218520D01*
X90612Y218608D01*
X90608Y218638D01*
X90598Y218711D01*
X90593Y218741D01*
X90583Y218800D01*
X90566Y218859D01*
X90554Y218903D01*
X90524Y218962D01*
X90509Y218992D01*
X90480Y219080D01*
X90435Y219169D01*
X90347Y219316D01*
X90288Y219390D01*
X90229Y219464D01*
X90170Y219523D01*
X90111Y219597D01*
X90111Y219597D01*
X90052Y219656D01*
X90003Y219685D01*
X89978Y219700D01*
X89904Y219759D01*
X89855Y219788D01*
X89708Y219877D01*
X89683Y219892D01*
X89609Y219921D01*
X89521Y219965D01*
X89447Y219980D01*
X89358Y220010D01*
X89285Y220039D01*
X89108Y220069D01*
X89019D01*
X88931Y220084D01*
D02*
G37*
G36*
X46512D02*
X46409Y220069D01*
X46321D01*
X46055Y220025D01*
X45967Y219995D01*
X45893Y219965D01*
X45893D01*
X45804Y219921D01*
X45730Y219892D01*
X45608Y219818D01*
X45583Y219803D01*
X45509Y219744D01*
X45435Y219700D01*
X45361Y219641D01*
X45244Y219523D01*
X45125Y219375D01*
X45081Y219316D01*
X45022Y219242D01*
X44978Y219154D01*
X44934Y219080D01*
X44904Y218992D01*
X44875Y218918D01*
X44816Y218741D01*
X44801Y218652D01*
X44771Y218564D01*
Y218461D01*
X44757Y218372D01*
Y218180D01*
X44771Y218092D01*
Y217988D01*
X44801Y217900D01*
X44816Y217811D01*
X44875Y217634D01*
X44904Y217561D01*
X44934Y217472D01*
X45066Y217251D01*
X45125Y217177D01*
X45170Y217103D01*
X45288Y216985D01*
X45361Y216926D01*
X45421Y216867D01*
X45494Y216808D01*
X45593Y216749D01*
X45691Y216690D01*
X45716Y216675D01*
X45804Y216646D01*
X45804Y216646D01*
X45878Y216602D01*
X45922Y216587D01*
X45967Y216572D01*
X46055Y216557D01*
X46099Y216542D01*
X46143Y216528D01*
X46321Y216498D01*
X46704D01*
X46793Y216513D01*
X46896Y216528D01*
X46985Y216557D01*
X46985Y216557D01*
X47073Y216572D01*
X47161Y216602D01*
X47235Y216631D01*
X47265Y216646D01*
X47324Y216675D01*
X47422Y216734D01*
X47619Y216852D01*
X47693Y216911D01*
Y216911D01*
X47811Y217029D01*
X47870Y217103D01*
X47929Y217162D01*
X47988Y217236D01*
X48041Y217325D01*
X48121Y217457D01*
X48150Y217546D01*
X48157Y217561D01*
X48194Y217634D01*
X48224Y217708D01*
X48239Y217797D01*
X48268Y217885D01*
X48283Y217988D01*
X48290Y218033D01*
X48298Y218077D01*
Y218165D01*
Y218387D01*
X48279Y218520D01*
X48262Y218638D01*
X48247Y218741D01*
X48239Y218800D01*
X48219Y218859D01*
X48209Y218888D01*
X48188Y218962D01*
X48180Y218992D01*
X48143Y219065D01*
X48135Y219080D01*
X48091Y219154D01*
X48076Y219184D01*
X48047Y219242D01*
X48003Y219316D01*
X47944Y219390D01*
X47899Y219464D01*
X47862Y219493D01*
X47825Y219523D01*
X47766Y219582D01*
X47707Y219641D01*
X47652Y219685D01*
X47634Y219700D01*
X47575Y219759D01*
X47427Y219848D01*
X47339Y219892D01*
X47191Y219951D01*
X47191Y219951D01*
X47014Y220010D01*
X46940Y220025D01*
X46852Y220039D01*
X46675Y220069D01*
X46601D01*
X46512Y220084D01*
D02*
G37*
G36*
X78308D02*
X78116D01*
X77762Y220025D01*
X77725Y220010D01*
X77688Y219995D01*
X77599Y219965D01*
X77526Y219936D01*
X77526Y219936D01*
X77437Y219892D01*
X77413Y219877D01*
X77290Y219804D01*
X77216Y219759D01*
X77142Y219700D01*
X77024Y219582D01*
X76950Y219523D01*
X76906Y219464D01*
X76788Y219316D01*
X76699Y219169D01*
X76655Y219080D01*
X76626Y219007D01*
X76537Y218741D01*
X76522Y218652D01*
X76493Y218564D01*
Y218475D01*
X76478Y218372D01*
Y218136D01*
X76537Y217841D01*
X76567Y217752D01*
X76655Y217531D01*
X76685Y217442D01*
X76817Y217221D01*
X76876Y217162D01*
X76994Y217015D01*
X77112Y216897D01*
X77260Y216779D01*
X77260Y216778D01*
X77334Y216734D01*
X77363Y216720D01*
X77481Y216661D01*
X77599Y216602D01*
X77688Y216572D01*
X77791Y216542D01*
X77998Y216513D01*
X78101Y216498D01*
X78308D01*
X78396Y216513D01*
X78485Y216513D01*
X78573Y216542D01*
X78662Y216557D01*
X78735Y216587D01*
X78824Y216616D01*
X78898Y216646D01*
X78986Y216690D01*
X79109Y216764D01*
X79208Y216823D01*
X79237Y216852D01*
X79267Y216882D01*
X79340Y216926D01*
X79355Y216941D01*
X79399Y216985D01*
X79447Y217044D01*
X79458Y217059D01*
X79517Y217118D01*
X79541Y217147D01*
X79576Y217192D01*
X79621Y217251D01*
X79633Y217265D01*
X79680Y217325D01*
X79702Y217369D01*
X79724Y217413D01*
X79753Y217487D01*
X79798Y217561D01*
X79812Y217605D01*
X79857Y217738D01*
X79886Y217826D01*
X79891Y217856D01*
X79931Y218092D01*
Y218121D01*
Y218180D01*
X79945Y218284D01*
X79931Y218372D01*
Y218402D01*
Y218475D01*
X79918Y218549D01*
X79896Y218682D01*
X79886Y218741D01*
X79862Y218815D01*
X79822Y218933D01*
X79798Y219007D01*
X79762Y219065D01*
X79753Y219080D01*
X79724Y219169D01*
X79715Y219184D01*
X79680Y219242D01*
X79644Y219287D01*
X79621Y219316D01*
X79576Y219390D01*
X79565Y219405D01*
X79517Y219464D01*
X79473Y219508D01*
X79370Y219611D01*
X79340Y219641D01*
X79267Y219700D01*
X79252Y219715D01*
X79208Y219759D01*
X79134Y219803D01*
X78986Y219892D01*
X78898Y219936D01*
X78824Y219965D01*
X78735Y219995D01*
X78662Y220025D01*
X78485Y220054D01*
X78308Y220084D01*
D02*
G37*
G36*
X65250D02*
X65117D01*
X65117Y220084D01*
X65044Y220069D01*
X64970D01*
X64911Y220054D01*
X64763Y220025D01*
X64763D01*
X64704Y220010D01*
X64630Y219980D01*
X64630Y219980D01*
X64557Y219965D01*
X64498Y219936D01*
X64461Y219921D01*
X64424Y219907D01*
X64384Y219877D01*
X64365Y219862D01*
X64291Y219833D01*
X64271Y219818D01*
X64212Y219774D01*
X64134Y219715D01*
X64055Y219656D01*
X64055Y219656D01*
X64011Y219611D01*
X63952Y219552D01*
X63878Y219479D01*
X63867Y219464D01*
X63834Y219420D01*
Y219420D01*
X63790Y219375D01*
X63775Y219361D01*
X63757Y219331D01*
X63739Y219301D01*
X63686Y219213D01*
X63686Y219213D01*
X63668Y219169D01*
X63657Y219139D01*
X63612Y219065D01*
X63583Y218977D01*
X63553Y218903D01*
X63524Y218815D01*
Y218815D01*
X63507Y218756D01*
X63494Y218711D01*
X63494Y218711D01*
X63487Y218667D01*
X63480Y218623D01*
X66873Y218623D01*
X66868Y218652D01*
X66858Y218711D01*
X66829Y218800D01*
X66814Y218888D01*
X66814Y218888D01*
X66785Y218962D01*
X66770Y218992D01*
X66740Y219051D01*
X66717Y219110D01*
X66711Y219125D01*
X66666Y219198D01*
X66661Y219213D01*
X66637Y219272D01*
X66590Y219331D01*
X66578Y219346D01*
X66512Y219434D01*
X66490Y219464D01*
X66431Y219523D01*
X66431Y219523D01*
X66386Y219582D01*
X66342Y219626D01*
X66327Y219641D01*
X66209Y219729D01*
X66209D01*
X66135Y219774D01*
X66017Y219862D01*
X65944Y219892D01*
X65914Y219907D01*
X65885Y219921D01*
X65737Y219980D01*
X65737Y219980D01*
X65678Y220010D01*
X65383Y220069D01*
X65324D01*
X65250Y220084D01*
D02*
G37*
G36*
X51986D02*
X51853D01*
X51853Y220084D01*
X51794Y220069D01*
X51720D01*
X51647Y220054D01*
X51588Y220039D01*
X51366Y219995D01*
X51337Y219980D01*
X51308Y219965D01*
X51234Y219936D01*
X51234Y219936D01*
X51175Y219907D01*
X51101Y219877D01*
X51042Y219833D01*
X51017Y219818D01*
X50968Y219788D01*
X50948Y219774D01*
X50870Y219715D01*
X50811Y219670D01*
X50791Y219656D01*
X50747Y219611D01*
X50732Y219597D01*
X50673Y219552D01*
X50629Y219493D01*
X50570Y219420D01*
X50536Y219375D01*
X50525Y219361D01*
X50517Y219346D01*
X50490Y219301D01*
X50464Y219257D01*
X50393Y219139D01*
X50369Y219080D01*
X50363Y219065D01*
X50348Y219036D01*
X50326Y218992D01*
X50319Y218977D01*
X50307Y218947D01*
X50289Y218903D01*
X50260Y218815D01*
X50254Y218770D01*
X50245Y218711D01*
X50230Y218667D01*
X50216Y218623D01*
X53624Y218623D01*
X53594Y218711D01*
X53584Y218770D01*
X53580Y218800D01*
X53550Y218888D01*
X53521Y218977D01*
X53515Y218992D01*
X53467Y219110D01*
X53462Y219125D01*
X53408Y219213D01*
X53338Y219331D01*
X53329Y219346D01*
X53285Y219405D01*
X53225Y219464D01*
X53181Y219523D01*
X53166Y219538D01*
X53078Y219626D01*
X53063Y219641D01*
X52945Y219729D01*
X52827Y219818D01*
X52827D01*
X52753Y219862D01*
X52694Y219892D01*
X52621Y219921D01*
X52561Y219951D01*
X52414Y220010D01*
X52340Y220025D01*
X52281Y220039D01*
X52134Y220069D01*
X52060D01*
X51986Y220084D01*
D02*
G37*
G36*
X97872Y219980D02*
X97709D01*
X97621Y219965D01*
X97547D01*
X97458Y219951D01*
X97385Y219936D01*
X97296Y219907D01*
X97296D01*
X97222Y219892D01*
X97001Y219803D01*
X96927Y219759D01*
X96898Y219744D01*
X96868Y219729D01*
X96795Y219685D01*
X96755Y219656D01*
X96677Y219597D01*
X96647Y219567D01*
X96617Y219538D01*
X96559Y219493D01*
X96440Y219375D01*
X96352Y219257D01*
X96308Y219198D01*
X96263Y219125D01*
X96234Y219065D01*
X96225Y219051D01*
X96190Y218992D01*
X96166Y218933D01*
X96119Y218815D01*
X96101Y218770D01*
X96089Y218711D01*
X96086Y218697D01*
X96057Y218608D01*
X96051Y218579D01*
X96042Y218534D01*
X99436Y218535D01*
Y218579D01*
Y218608D01*
X99406Y218682D01*
X99391Y218756D01*
X99368Y218815D01*
X99362Y218829D01*
X99347Y218903D01*
X99338Y218918D01*
X99303Y218977D01*
X99279Y219036D01*
X99273Y219051D01*
X99244Y219110D01*
X99226Y219139D01*
X99199Y219184D01*
X99155Y219242D01*
X99078Y219346D01*
X99067Y219361D01*
X99008Y219420D01*
X98963Y219479D01*
X98904Y219523D01*
X98875Y219552D01*
X98845Y219582D01*
X98727Y219670D01*
X98654Y219715D01*
X98595Y219759D01*
X98535Y219788D01*
X98462Y219818D01*
X98462D01*
X98388Y219862D01*
X98314Y219877D01*
X98240Y219907D01*
X98181Y219921D01*
X98093Y219951D01*
X98019Y219965D01*
X97945D01*
X97872Y219980D01*
D02*
G37*
%LPD*%
D14*
X118500Y124500D02*
Y134497D01*
X115168Y131165D01*
X111835Y134497D01*
Y124500D01*
X108503Y134497D02*
Y124500D01*
X103505D01*
X101839Y126166D01*
Y127832D01*
X103505Y129498D01*
X108503D01*
X103505D01*
X101839Y131165D01*
Y132831D01*
X103505Y134497D01*
X108503D01*
X98506Y124500D02*
X95174D01*
X96840D01*
Y134497D01*
X98506Y132831D01*
X83511Y124500D02*
X90176D01*
X83511Y131165D01*
Y132831D01*
X85177Y134497D01*
X88510D01*
X90176Y132831D01*
X73514Y134497D02*
X80179D01*
Y129498D01*
X76847Y131165D01*
X75181D01*
X73514Y129498D01*
Y126166D01*
X75181Y124500D01*
X78513D01*
X80179Y126166D01*
X63518Y134497D02*
X70182D01*
Y129498D01*
X66850Y131165D01*
X65184D01*
X63518Y129498D01*
Y126166D01*
X65184Y124500D01*
X68516D01*
X70182Y126166D01*
X60185Y129498D02*
X53521D01*
X50189Y124500D02*
Y131165D01*
X46856Y134497D01*
X43524Y131165D01*
Y124500D01*
Y129498D01*
X50189D01*
D15*
X295000Y320000D02*
Y326665D01*
X291668Y329997D01*
X288335Y326665D01*
Y320000D01*
Y324998D01*
X295000D01*
X285003Y320000D02*
Y329997D01*
X278339Y320000D01*
Y329997D01*
X275006D02*
X268342D01*
X271674D01*
Y320000D01*
X265010Y329997D02*
X258345D01*
Y328331D01*
X265010Y321666D01*
Y320000D01*
X255013Y324998D02*
X248348D01*
X245016Y329997D02*
X238352D01*
X241684D01*
Y320000D01*
X235019Y324998D02*
X228355D01*
X225023Y320000D02*
Y329997D01*
X221690Y326665D01*
X218358Y329997D01*
Y320000D01*
X208361D02*
X215026D01*
X208361Y326665D01*
Y328331D01*
X210027Y329997D01*
X213360D01*
X215026Y328331D01*
X200031Y320000D02*
Y329997D01*
X205029Y324998D01*
X198365D01*
X188368Y328331D02*
X190034Y329997D01*
X193366D01*
X195032Y328331D01*
Y326665D01*
X193366Y324998D01*
X190034D01*
X188368Y323332D01*
Y321666D01*
X190034Y320000D01*
X193366D01*
X195032Y321666D01*
X185035Y320000D02*
Y329997D01*
X180037D01*
X178371Y328331D01*
Y324998D01*
X180037Y323332D01*
X185035D01*
X181703D02*
X178371Y320000D01*
X165042D02*
Y329997D01*
X161710Y326665D01*
X158377Y329997D01*
Y320000D01*
X155045Y329997D02*
Y320000D01*
X150047D01*
X148381Y321666D01*
Y323332D01*
X150047Y324998D01*
X155045D01*
X150047D01*
X148381Y326665D01*
Y328331D01*
X150047Y329997D01*
X155045D01*
X145048Y320000D02*
X141716D01*
X143382D01*
Y329997D01*
X145048Y328331D01*
X130053Y320000D02*
X136718D01*
X130053Y326665D01*
Y328331D01*
X131719Y329997D01*
X135051D01*
X136718Y328331D01*
X120056Y329997D02*
X126721D01*
Y324998D01*
X123389Y326665D01*
X121722D01*
X120056Y324998D01*
Y321666D01*
X121722Y320000D01*
X125055D01*
X126721Y321666D01*
X110060Y329997D02*
X116724D01*
Y324998D01*
X113392Y326665D01*
X111726D01*
X110060Y324998D01*
Y321666D01*
X111726Y320000D01*
X115058D01*
X116724Y321666D01*
X106727Y324998D02*
X100063D01*
X96730Y320000D02*
Y326665D01*
X93398Y329997D01*
X90066Y326665D01*
Y320000D01*
Y324998D01*
X96730D01*
X76737D02*
X70072D01*
X56743Y329997D02*
Y320000D01*
X51745D01*
X50079Y321666D01*
Y323332D01*
X51745Y324998D01*
X56743D01*
X51745D01*
X50079Y326665D01*
Y328331D01*
X51745Y329997D01*
X56743D01*
X41748D02*
X45080D01*
X46747Y328331D01*
Y321666D01*
X45080Y320000D01*
X41748D01*
X40082Y321666D01*
Y328331D01*
X41748Y329997D01*
X36750D02*
X30085D01*
X33418D01*
Y320000D01*
X26753Y329997D02*
X20089D01*
X23421D01*
Y320000D01*
X11758Y329997D02*
X15090D01*
X16756Y328331D01*
Y321666D01*
X15090Y320000D01*
X11758D01*
X10092Y321666D01*
Y328331D01*
X11758Y329997D01*
X6759Y320000D02*
Y329997D01*
X3427Y326665D01*
X95Y329997D01*
Y320000D01*
X-18232Y329997D02*
X-14900D01*
X-13234Y328331D01*
Y321666D01*
X-14900Y320000D01*
X-18232D01*
X-19899Y321666D01*
Y328331D01*
X-18232Y329997D01*
X-23231D02*
Y323332D01*
X-26563Y320000D01*
X-29895Y323332D01*
Y329997D01*
X-39892D02*
X-33228D01*
Y320000D01*
X-39892D01*
X-33228Y324998D02*
X-36560D01*
X-43224Y320000D02*
Y329997D01*
X-48223D01*
X-49889Y328331D01*
Y324998D01*
X-48223Y323332D01*
X-43224D01*
X-46557D02*
X-49889Y320000D01*
X-53221Y329997D02*
Y320000D01*
X-59886D01*
X-63218D02*
Y326665D01*
X-66550Y329997D01*
X-69882Y326665D01*
Y320000D01*
Y324998D01*
X-63218D01*
X-73215Y329997D02*
Y328331D01*
X-76547Y324998D01*
X-79879Y328331D01*
Y329997D01*
X-76547Y324998D02*
Y320000D01*
X-93208Y324998D02*
X-99873D01*
D29*
X139429Y9395D02*
X139712D01*
X80377D02*
X80660D01*
X139429Y9112D02*
X139712D01*
X80377D02*
X80660D01*
X139429Y8830D02*
X139712D01*
X80377D02*
X80660D01*
X139429Y8547D02*
X139712D01*
X80377D02*
X80660D01*
X139429Y8265D02*
X139712D01*
X80377D02*
X80660D01*
X139429Y7982D02*
X139712D01*
X80377D02*
X80660D01*
X139429Y7700D02*
X139712D01*
X80377D02*
X80660D01*
X139429Y7417D02*
X139712D01*
X80377D02*
X80660D01*
X80377Y7135D02*
X139712D01*
X80377Y50082D02*
X139712D01*
X139429Y49799D02*
X139712D01*
X80377D02*
X80660D01*
X139429Y49517D02*
X139712D01*
X80377D02*
X80660D01*
X139429Y49234D02*
X139712D01*
X80377D02*
X80660D01*
X139429Y48951D02*
X139712D01*
X80377D02*
X80660D01*
X139429Y48669D02*
X139712D01*
X80377D02*
X80660D01*
X139429Y48386D02*
X139712D01*
X80377D02*
X80660D01*
X139429Y48104D02*
X139712D01*
X80377D02*
X80660D01*
X139429Y47821D02*
X139712D01*
X80377D02*
X80660D01*
X139429Y47539D02*
X139712D01*
X80377D02*
X80660D01*
X139429Y47256D02*
X139712D01*
X80377D02*
X80660D01*
X139429Y46974D02*
X139712D01*
X80377D02*
X80660D01*
X139429Y46691D02*
X139712D01*
X80377D02*
X80660D01*
X139429Y46409D02*
X139712D01*
X80377D02*
X80660D01*
X139429Y46126D02*
X139712D01*
X80377D02*
X80660D01*
X139429Y45843D02*
X139712D01*
X80377D02*
X80660D01*
X139429Y45561D02*
X139712D01*
X80377D02*
X80660D01*
X139429Y45278D02*
X139712D01*
X80377D02*
X80660D01*
X139429Y44996D02*
X139712D01*
X80377D02*
X80660D01*
X139429Y44713D02*
X139712D01*
X80377D02*
X80660D01*
X139429Y44431D02*
X139712D01*
X80377D02*
X80660D01*
X139429Y44148D02*
X139712D01*
X80377D02*
X80660D01*
X139429Y43866D02*
X139712D01*
X80377D02*
X80660D01*
X139429Y43583D02*
X139712D01*
X80377D02*
X80660D01*
X139429Y43300D02*
X139712D01*
X80377D02*
X80660D01*
X139429Y43018D02*
X139712D01*
X80377D02*
X80660D01*
X139429Y42735D02*
X139712D01*
X80377D02*
X80660D01*
X139429Y42453D02*
X139712D01*
X80377D02*
X80660D01*
X139429Y42170D02*
X139712D01*
X80377D02*
X80660D01*
X139429Y41888D02*
X139712D01*
X80377D02*
X80660D01*
X139429Y41605D02*
X139712D01*
X80377D02*
X80660D01*
X139429Y41323D02*
X139712D01*
X80377D02*
X80660D01*
X139429Y41040D02*
X139712D01*
X80377D02*
X80660D01*
X139429Y40757D02*
X139712D01*
X80377D02*
X80660D01*
X139429Y40475D02*
X139712D01*
X80377D02*
X80660D01*
X139429Y40192D02*
X139712D01*
X80377D02*
X80660D01*
X139429Y39910D02*
X139712D01*
X80377D02*
X80660D01*
X139429Y39627D02*
X139712D01*
X80377D02*
X80660D01*
X139429Y39345D02*
X139712D01*
X80377D02*
X80660D01*
X139429Y39062D02*
X139712D01*
X80377D02*
X80660D01*
X139429Y38780D02*
X139712D01*
X80377D02*
X80660D01*
X139429Y38497D02*
X139712D01*
X80377D02*
X80660D01*
X139429Y38215D02*
X139712D01*
X80377D02*
X80660D01*
X139429Y37932D02*
X139712D01*
X80377D02*
X80660D01*
X139429Y37650D02*
X139712D01*
X80377D02*
X80660D01*
X139429Y37367D02*
X139712D01*
X80377D02*
X80660D01*
X139429Y37084D02*
X139712D01*
X80377D02*
X80660D01*
X139429Y36802D02*
X139712D01*
X80377D02*
X80660D01*
X139429Y36519D02*
X139712D01*
X80377D02*
X80660D01*
X139429Y36237D02*
X139712D01*
X80377D02*
X80660D01*
X139429Y35954D02*
X139712D01*
X80377D02*
X80660D01*
X139429Y35672D02*
X139712D01*
X80377D02*
X80660D01*
X139429Y35389D02*
X139712D01*
X80377D02*
X80660D01*
X139429Y35107D02*
X139712D01*
X80377D02*
X80660D01*
X139429Y34824D02*
X139712D01*
X80377D02*
X80660D01*
X139429Y34541D02*
X139712D01*
X80377D02*
X80660D01*
X139429Y34259D02*
X139712D01*
X80377D02*
X80660D01*
X139429Y33976D02*
X139712D01*
X80377D02*
X80660D01*
X139429Y33694D02*
X139712D01*
X80377D02*
X80660D01*
X139429Y33411D02*
X139712D01*
X80377D02*
X80660D01*
X139429Y33129D02*
X139712D01*
X80377D02*
X80660D01*
X139429Y32846D02*
X139712D01*
X80377D02*
X80660D01*
X139429Y32564D02*
X139712D01*
X80377D02*
X80660D01*
X139429Y32281D02*
X139712D01*
X80377D02*
X80660D01*
X139429Y31999D02*
X139712D01*
X80377D02*
X80660D01*
X139429Y31716D02*
X139712D01*
X80377D02*
X80660D01*
X139429Y31433D02*
X139712D01*
X80377D02*
X80660D01*
X139429Y31151D02*
X139712D01*
X80377D02*
X80660D01*
X139429Y30868D02*
X139712D01*
X80377D02*
X80660D01*
X139429Y30586D02*
X139712D01*
X80377D02*
X80660D01*
X139429Y30303D02*
X139712D01*
X80377D02*
X80660D01*
X139429Y30021D02*
X139712D01*
X80377D02*
X80660D01*
X139429Y29738D02*
X139712D01*
X80377D02*
X80660D01*
X139429Y29456D02*
X139712D01*
X80377D02*
X80660D01*
X139429Y29173D02*
X139712D01*
X80377D02*
X80660D01*
X139429Y28891D02*
X139712D01*
X80377D02*
X80660D01*
X139429Y28608D02*
X139712D01*
X80377D02*
X80660D01*
X139429Y28326D02*
X139712D01*
X80377D02*
X80660D01*
X139429Y28043D02*
X139712D01*
X80377D02*
X80660D01*
X139429Y27760D02*
X139712D01*
X80377D02*
X80660D01*
X139429Y27478D02*
X139712D01*
X80377D02*
X80660D01*
X139429Y27195D02*
X139712D01*
X80377D02*
X80660D01*
X139429Y26913D02*
X139712D01*
X80377D02*
X80660D01*
X139429Y26630D02*
X139712D01*
X80377D02*
X80660D01*
X139429Y26348D02*
X139712D01*
X80377D02*
X80660D01*
X139429Y26065D02*
X139712D01*
X80377D02*
X80660D01*
X139429Y25782D02*
X139712D01*
X80377D02*
X80660D01*
X139429Y25500D02*
X139712D01*
X80377D02*
X80660D01*
X139429Y25217D02*
X139712D01*
X80377D02*
X80660D01*
X139429Y24935D02*
X139712D01*
X80377D02*
X80660D01*
X139429Y24652D02*
X139712D01*
X80377D02*
X80660D01*
X139429Y24370D02*
X139712D01*
X80377D02*
X80660D01*
X139429Y24087D02*
X139712D01*
X80377D02*
X80660D01*
X139429Y23805D02*
X139712D01*
X80377D02*
X80660D01*
X139429Y23522D02*
X139712D01*
X80377D02*
X80660D01*
X139429Y23240D02*
X139712D01*
X80377D02*
X80660D01*
X139429Y22957D02*
X139712D01*
X80377D02*
X80660D01*
X139429Y22675D02*
X139712D01*
X80377D02*
X80660D01*
X139429Y22392D02*
X139712D01*
X80377D02*
X80660D01*
X139429Y22109D02*
X139712D01*
X80377D02*
X80660D01*
X139429Y21827D02*
X139712D01*
X80377D02*
X80660D01*
X139429Y21544D02*
X139712D01*
X80377D02*
X80660D01*
X139429Y21262D02*
X139712D01*
X80377D02*
X80660D01*
X139429Y20979D02*
X139712D01*
X80377D02*
X80660D01*
X139429Y20697D02*
X139712D01*
X80377D02*
X80660D01*
X139429Y20414D02*
X139712D01*
X80377D02*
X80660D01*
X139429Y20132D02*
X139712D01*
X80377D02*
X80660D01*
X139429Y19849D02*
X139712D01*
X80377D02*
X80660D01*
X139429Y19567D02*
X139712D01*
X80377D02*
X80660D01*
X139429Y19284D02*
X139712D01*
X80377D02*
X80660D01*
X139429Y19001D02*
X139712D01*
X80377D02*
X80660D01*
X139429Y18719D02*
X139712D01*
X80377D02*
X80660D01*
X139429Y18436D02*
X139712D01*
X80377D02*
X80660D01*
X139429Y18154D02*
X139712D01*
X80377D02*
X80660D01*
X139429Y17871D02*
X139712D01*
X80377D02*
X80660D01*
X139429Y17589D02*
X139712D01*
X80377D02*
X80660D01*
X139429Y17306D02*
X139712D01*
X80377D02*
X80660D01*
X139429Y17024D02*
X139712D01*
X80377D02*
X80660D01*
X139429Y16741D02*
X139712D01*
X80377D02*
X80660D01*
X139429Y16458D02*
X139712D01*
X80377D02*
X80660D01*
X139429Y16176D02*
X139712D01*
X80377D02*
X80660D01*
X139429Y15893D02*
X139712D01*
X80377D02*
X80660D01*
X139429Y15611D02*
X139712D01*
X80377D02*
X80660D01*
X139429Y15328D02*
X139712D01*
X80377D02*
X80660D01*
X139429Y15046D02*
X139712D01*
X80377D02*
X80660D01*
X139429Y14763D02*
X139712D01*
X80377D02*
X80660D01*
X139429Y14481D02*
X139712D01*
X80377D02*
X80660D01*
X139429Y14198D02*
X139712D01*
X80377D02*
X80660D01*
X139429Y13916D02*
X139712D01*
X80377D02*
X80660D01*
X139429Y13633D02*
X139712D01*
X80377D02*
X80660D01*
X139429Y13350D02*
X139712D01*
X80377D02*
X80660D01*
X139429Y13068D02*
X139712D01*
X80377D02*
X80660D01*
X139429Y12785D02*
X139712D01*
X80377D02*
X80660D01*
X139429Y12503D02*
X139712D01*
X80377D02*
X80660D01*
X139429Y12220D02*
X139712D01*
X80377D02*
X80660D01*
X139429Y11938D02*
X139712D01*
X80377D02*
X80660D01*
X139429Y11655D02*
X139712D01*
X80377D02*
X80660D01*
X139429Y11373D02*
X139712D01*
X80377D02*
X80660D01*
X139429Y11090D02*
X139712D01*
X80377D02*
X80660D01*
X139429Y10807D02*
X139712D01*
X80377D02*
X80660D01*
X139429Y10525D02*
X139712D01*
X80377D02*
X80660D01*
X139429Y10242D02*
X139712D01*
X80377D02*
X80660D01*
X139429Y9960D02*
X139712D01*
X80377D02*
X80660D01*
X139429Y9677D02*
X139712D01*
X80377D02*
X80660D01*
D30*
X94222Y42453D02*
X97895D01*
X121629Y42170D02*
X128410D01*
X107219D02*
X110327D01*
X101568D02*
X104676D01*
X93657D02*
X98460D01*
X121064Y41888D02*
X128410D01*
X107219D02*
X110327D01*
X101568D02*
X104676D01*
X93374D02*
X99025D01*
X120781Y41605D02*
X128410D01*
X107219D02*
X110327D01*
X101568D02*
X104676D01*
X93092D02*
X99307D01*
X120499Y41323D02*
X128410D01*
X107219D02*
X110327D01*
X101568D02*
X104676D01*
X92809D02*
X99590D01*
X120499Y41040D02*
X128410D01*
X107219D02*
X110327D01*
X101568D02*
X104676D01*
X92809D02*
X99873D01*
X120216Y40757D02*
X128410D01*
X107219D02*
X110327D01*
X101568D02*
X104676D01*
X92527D02*
X99873D01*
X120216Y40475D02*
X128410D01*
X107219D02*
X110327D01*
X101568D02*
X104676D01*
X96482D02*
X99873D01*
X92527D02*
X95917D01*
X125302Y40192D02*
X128410D01*
X120216D02*
X123607D01*
X107219D02*
X110327D01*
X101568D02*
X104676D01*
X96765D02*
X99873D01*
X92527D02*
X95634D01*
X125302Y39910D02*
X128410D01*
X120216D02*
X123324D01*
X113435D02*
X116260D01*
X107219D02*
X110327D01*
X101568D02*
X104676D01*
X97047D02*
X100155D01*
X92527D02*
X95634D01*
X125302Y39627D02*
X128410D01*
X120216D02*
X123324D01*
X112870D02*
X117108D01*
X107219D02*
X110327D01*
X101568D02*
X104676D01*
X97047D02*
X100155D01*
X125302Y39345D02*
X128410D01*
X120216D02*
X123324D01*
X112587D02*
X117391D01*
X107219D02*
X110327D01*
X101568D02*
X104676D01*
X96200D02*
X99873D01*
X125302Y39062D02*
X128410D01*
X120216D02*
X123607D01*
X112305D02*
X117673D01*
X101568D02*
X110327D01*
X95069D02*
X99873D01*
X120216Y38780D02*
X128410D01*
X112022D02*
X117956D01*
X101568D02*
X110327D01*
X94222D02*
X99873D01*
X120499Y38497D02*
X128410D01*
X111740D02*
X118238D01*
X101568D02*
X110327D01*
X93657D02*
X99590D01*
X120499Y38215D02*
X128410D01*
X111740D02*
X118238D01*
X101568D02*
X110327D01*
X93092D02*
X99307D01*
X120781Y37932D02*
X128410D01*
X115413D02*
X118521D01*
X111457D02*
X114565D01*
X101568D02*
X110327D01*
X92809D02*
X99025D01*
X121064Y37650D02*
X128410D01*
X115695D02*
X118521D01*
X111457D02*
X114283D01*
X101568D02*
X110327D01*
X92527D02*
X98743D01*
X121629Y37367D02*
X128410D01*
X115695D02*
X118521D01*
X111457D02*
X114283D01*
X101568D02*
X110327D01*
X92527D02*
X98177D01*
X121346Y37084D02*
X128410D01*
X115695D02*
X118521D01*
X111457D02*
X114283D01*
X101568D02*
X110327D01*
X92244D02*
X97330D01*
X125302Y36802D02*
X128410D01*
X121064D02*
X124737D01*
X115978D02*
X118803D01*
X111457D02*
X114283D01*
X107219D02*
X110327D01*
X101568D02*
X104676D01*
X92244D02*
X96200D01*
X125302Y36519D02*
X128410D01*
X120781D02*
X124172D01*
X115978D02*
X118803D01*
X111457D02*
X114283D01*
X107219D02*
X110327D01*
X101568D02*
X104676D01*
X92244D02*
X95352D01*
X125302Y36237D02*
X128410D01*
X120781D02*
X124172D01*
X115978D02*
X118803D01*
X111457D02*
X114283D01*
X107219D02*
X110327D01*
X101568D02*
X104676D01*
X97330D02*
X100155D01*
X92244D02*
X95352D01*
X125302Y35954D02*
X128410D01*
X120499D02*
X123889D01*
X115695D02*
X118521D01*
X111457D02*
X114283D01*
X107219D02*
X110327D01*
X101568D02*
X104676D01*
X97047D02*
X100155D01*
X92244D02*
X95352D01*
X125302Y35672D02*
X128410D01*
X120499D02*
X123889D01*
X115695D02*
X118521D01*
X111457D02*
X114283D01*
X107219D02*
X110327D01*
X101568D02*
X104676D01*
X97047D02*
X100155D01*
X92244D02*
X95352D01*
X125302Y35389D02*
X128410D01*
X120216D02*
X123607D01*
X115695D02*
X118521D01*
X111457D02*
X114283D01*
X107219D02*
X110327D01*
X101568D02*
X104676D01*
X96765D02*
X100155D01*
X92244D02*
X95352D01*
X125302Y35107D02*
X128410D01*
X120216D02*
X123607D01*
X115413D02*
X118521D01*
X111457D02*
X114565D01*
X107219D02*
X110327D01*
X101568D02*
X104676D01*
X96482D02*
X100155D01*
X92244D02*
X95634D01*
X125302Y34824D02*
X128410D01*
X119934D02*
X123324D01*
X111740D02*
X118238D01*
X107219D02*
X110327D01*
X101568D02*
X104676D01*
X92527D02*
X99873D01*
X125302Y34541D02*
X128410D01*
X119934D02*
X123324D01*
X111740D02*
X118238D01*
X107219D02*
X110327D01*
X101568D02*
X104676D01*
X92527D02*
X99873D01*
X125302Y34259D02*
X128410D01*
X119651D02*
X123041D01*
X112022D02*
X117956D01*
X107219D02*
X110327D01*
X101568D02*
X104676D01*
X92809D02*
X99590D01*
X125302Y33976D02*
X128410D01*
X119651D02*
X123041D01*
X112305D02*
X117673D01*
X107219D02*
X110327D01*
X101568D02*
X104676D01*
X93092D02*
X99307D01*
X125302Y33694D02*
X128410D01*
X119368D02*
X122759D01*
X112587D02*
X117391D01*
X107219D02*
X110327D01*
X101568D02*
X104676D01*
X93374D02*
X99025D01*
X125302Y33411D02*
X128410D01*
X119368D02*
X122759D01*
X112870D02*
X117108D01*
X107219D02*
X110327D01*
X101568D02*
X104676D01*
X93657D02*
X98743D01*
X113435Y33129D02*
X116260D01*
X94222D02*
X97895D01*
X125302Y27195D02*
X127562D01*
X120781D02*
X123041D01*
X117391D02*
X119368D01*
X114848D02*
X116543D01*
X110892D02*
X114000D01*
X108632D02*
X110044D01*
X104958D02*
X106371D01*
X101285D02*
X103263D01*
X97895D02*
X99590D01*
X95634D02*
X97047D01*
X91114D02*
X95352D01*
X125019Y26913D02*
X128127D01*
X120499D02*
X123607D01*
X117391D02*
X119368D01*
X114848D02*
X116826D01*
X110610D02*
X114000D01*
X108632D02*
X110044D01*
X104958D02*
X106371D01*
X101285D02*
X103263D01*
X97895D02*
X99590D01*
X95634D02*
X97047D01*
X91114D02*
X95352D01*
X124737Y26630D02*
X128410D01*
X120216D02*
X123889D01*
X114848D02*
X119368D01*
X110610D02*
X114000D01*
X108632D02*
X110044D01*
X104958D02*
X106371D01*
X101285D02*
X103263D01*
X97612D02*
X99590D01*
X95634D02*
X97047D01*
X91114D02*
X95352D01*
X126997Y26348D02*
X128693D01*
X124737D02*
X126432D01*
X119934D02*
X124172D01*
X114848D02*
X119368D01*
X112587D02*
X114000D01*
X110610D02*
X112022D01*
X108632D02*
X110044D01*
X104958D02*
X106371D01*
X101003D02*
X103546D01*
X97612D02*
X99590D01*
X95634D02*
X97047D01*
X92527D02*
X93939D01*
X127280Y26065D02*
X128693D01*
X124737D02*
X126150D01*
X122759D02*
X124172D01*
X119934D02*
X121346D01*
X114848D02*
X119368D01*
X112587D02*
X114000D01*
X110610D02*
X112022D01*
X108632D02*
X110044D01*
X104958D02*
X106371D01*
X101003D02*
X103546D01*
X97330D02*
X99590D01*
X95634D02*
X97047D01*
X92527D02*
X93939D01*
X127280Y25782D02*
X128693D01*
X122759D02*
X124172D01*
X119934D02*
X121346D01*
X114848D02*
X119368D01*
X112587D02*
X114000D01*
X110610D02*
X112022D01*
X108632D02*
X110044D01*
X104958D02*
X106371D01*
X101003D02*
X103546D01*
X95634D02*
X99590D01*
X92527D02*
X93939D01*
X127562Y25500D02*
X128975D01*
X123041D02*
X124454D01*
X119934D02*
X121346D01*
X114848D02*
X119368D01*
X110610D02*
X114000D01*
X108632D02*
X110044D01*
X104958D02*
X106371D01*
X100720D02*
X103828D01*
X95634D02*
X99590D01*
X92527D02*
X93939D01*
X127562Y25217D02*
X128975D01*
X123041D02*
X124454D01*
X119934D02*
X121346D01*
X114848D02*
X119368D01*
X110610D02*
X114000D01*
X108632D02*
X110044D01*
X104958D02*
X106371D01*
X100720D02*
X103828D01*
X95634D02*
X99590D01*
X92527D02*
X93939D01*
X127562Y24935D02*
X128975D01*
X123041D02*
X124454D01*
X119934D02*
X121346D01*
X114848D02*
X119368D01*
X110892D02*
X114000D01*
X108632D02*
X110044D01*
X104958D02*
X106371D01*
X100720D02*
X103828D01*
X95634D02*
X99590D01*
X92527D02*
X93939D01*
X127280Y24652D02*
X128693D01*
X125019D02*
X126150D01*
X122759D02*
X124172D01*
X119934D02*
X121346D01*
X114848D02*
X119368D01*
X112587D02*
X114000D01*
X108632D02*
X110044D01*
X104958D02*
X106371D01*
X100438D02*
X104111D01*
X95634D02*
X99590D01*
X92527D02*
X93939D01*
X127280Y24370D02*
X128693D01*
X124737D02*
X126150D01*
X122759D02*
X124172D01*
X119934D02*
X121346D01*
X114848D02*
X119368D01*
X112587D02*
X114000D01*
X108632D02*
X110044D01*
X104958D02*
X106371D01*
X100438D02*
X104111D01*
X98177D02*
X99590D01*
X95634D02*
X97612D01*
X92527D02*
X93939D01*
X126997Y24087D02*
X128693D01*
X124737D02*
X126432D01*
X119934D02*
X124172D01*
X114848D02*
X119368D01*
X112587D02*
X114000D01*
X106936D02*
X110044D01*
X104958D02*
X106371D01*
X100438D02*
X104111D01*
X98177D02*
X99590D01*
X95634D02*
X97612D01*
X92527D02*
X93939D01*
X124737Y23805D02*
X128410D01*
X120216D02*
X123889D01*
X114848D02*
X119368D01*
X112587D02*
X114000D01*
X106936D02*
X110044D01*
X104958D02*
X106371D01*
X100155D02*
X104393D01*
X98177D02*
X99590D01*
X95634D02*
X97330D01*
X92527D02*
X93939D01*
X125019Y23522D02*
X128127D01*
X120499D02*
X123607D01*
X114848D02*
X119368D01*
X112587D02*
X114000D01*
X106936D02*
X110044D01*
X104958D02*
X106371D01*
X102981D02*
X104393D01*
X100155D02*
X101568D01*
X98177D02*
X99590D01*
X95634D02*
X97047D01*
X92527D02*
X93939D01*
X125584Y23240D02*
X127562D01*
X120781D02*
X123041D01*
X117956D02*
X119368D01*
X116543D02*
X117673D01*
X114848D02*
X116260D01*
X112587D02*
X114000D01*
X106936D02*
X110044D01*
X104958D02*
X106371D01*
X102981D02*
X104393D01*
X100155D02*
X101568D01*
X98177D02*
X99590D01*
X95634D02*
X97047D01*
X92527D02*
X93939D01*
X125867Y19001D02*
X127562D01*
X121911D02*
X123324D01*
X117673D02*
X119086D01*
X113152D02*
X114848D01*
X110610D02*
X111175D01*
X107784D02*
X109197D01*
X102981D02*
X105806D01*
X100720D02*
X101285D01*
X96482D02*
X100155D01*
X92527D02*
X94222D01*
X125584Y18719D02*
X128410D01*
X121629D02*
X123889D01*
X117391D02*
X119651D01*
X112870D02*
X115695D01*
X110610D02*
X111175D01*
X107501D02*
X110044D01*
X102981D02*
X105806D01*
X100720D02*
X101285D01*
X96482D02*
X100155D01*
X92244D02*
X94787D01*
X125302Y18436D02*
X128693D01*
X121346D02*
X124172D01*
X117108D02*
X119934D01*
X112587D02*
X115978D01*
X107219D02*
X111175D01*
X102981D02*
X105806D01*
X100720D02*
X101285D01*
X96482D02*
X100155D01*
X91961D02*
X95352D01*
X127280Y18154D02*
X128693D01*
X125302D02*
X126715D01*
X123041D02*
X124454D01*
X121064D02*
X122476D01*
X118803D02*
X120216D01*
X116826D02*
X118238D01*
X114565D02*
X115978D01*
X112587D02*
X114000D01*
X108914D02*
X111175D01*
X106936D02*
X108349D01*
X102981D02*
X105806D01*
X100720D02*
X101285D01*
X96482D02*
X100155D01*
X91679D02*
X95352D01*
X127562Y17871D02*
X128127D01*
X125302D02*
X126715D01*
X123041D02*
X124454D01*
X121064D02*
X122476D01*
X118803D02*
X120216D01*
X116826D02*
X118238D01*
X114848D02*
X115413D01*
X112587D02*
X114000D01*
X110892D02*
X111457D01*
X109197D02*
X110610D01*
X106936D02*
X108349D01*
X104676D02*
X105806D01*
X101003D02*
X101568D01*
X98743D02*
X100155D01*
X93939D02*
X95634D01*
X91679D02*
X93092D01*
X125302Y17589D02*
X126715D01*
X123324D02*
X124454D01*
X121064D02*
X122476D01*
X119086D02*
X120216D01*
X116826D02*
X118238D01*
X112587D02*
X114000D01*
X110892D02*
X111457D01*
X109197D02*
X110610D01*
X106936D02*
X108349D01*
X103263D02*
X105806D01*
X101003D02*
X101568D01*
X98743D02*
X100155D01*
X94222D02*
X95634D01*
X125302Y17306D02*
X126715D01*
X123324D02*
X124737D01*
X121064D02*
X122476D01*
X119086D02*
X120499D01*
X116826D02*
X118238D01*
X112587D02*
X114000D01*
X110892D02*
X111457D01*
X108914D02*
X110327D01*
X106936D02*
X108349D01*
X102981D02*
X105806D01*
X101003D02*
X101568D01*
X96765D02*
X100155D01*
X94222D02*
X95634D01*
X125584Y17024D02*
X126997D01*
X123324D02*
X124737D01*
X121064D02*
X122476D01*
X119086D02*
X120499D01*
X116826D02*
X118238D01*
X112870D02*
X114283D01*
X110892D02*
X111457D01*
X106936D02*
X110327D01*
X102698D02*
X105806D01*
X101003D02*
X101568D01*
X96765D02*
X100155D01*
X94504D02*
X95917D01*
X125867Y16741D02*
X127280D01*
X123324D02*
X124737D01*
X121064D02*
X122476D01*
X119086D02*
X120499D01*
X116826D02*
X118238D01*
X113152D02*
X114565D01*
X111175D02*
X111740D01*
X106936D02*
X110044D01*
X102698D02*
X104111D01*
X101285D02*
X101851D01*
X96765D02*
X100155D01*
X94504D02*
X95917D01*
X126150Y16458D02*
X127562D01*
X123324D02*
X124737D01*
X121064D02*
X122476D01*
X119086D02*
X120499D01*
X116826D02*
X118238D01*
X113435D02*
X114848D01*
X111175D02*
X111740D01*
X106936D02*
X109479D01*
X102698D02*
X104111D01*
X101285D02*
X101851D01*
X96765D02*
X100155D01*
X94504D02*
X95634D01*
X126432Y16176D02*
X128127D01*
X123324D02*
X124454D01*
X121064D02*
X122476D01*
X119086D02*
X120216D01*
X116826D02*
X118238D01*
X113717D02*
X115413D01*
X111175D02*
X111740D01*
X106936D02*
X108349D01*
X102698D02*
X104111D01*
X101285D02*
X101851D01*
X98743D02*
X100155D01*
X94222D02*
X95634D01*
X91679D02*
X93092D01*
X126997Y15893D02*
X128410D01*
X123041D02*
X124454D01*
X121064D02*
X122476D01*
X118803D02*
X120216D01*
X116826D02*
X118238D01*
X114283D02*
X115695D01*
X111175D02*
X111740D01*
X109197D02*
X109479D01*
X106936D02*
X108349D01*
X104958D02*
X105241D01*
X102698D02*
X104111D01*
X101285D02*
X101851D01*
X98743D02*
X100155D01*
X93939D02*
X95634D01*
X91679D02*
X93092D01*
X125302Y15611D02*
X128410D01*
X123041D02*
X124454D01*
X121064D02*
X122476D01*
X118803D02*
X120216D01*
X116826D02*
X118238D01*
X112587D02*
X115695D01*
X111457D02*
X112022D01*
X108914D02*
X110327D01*
X106936D02*
X108349D01*
X104676D02*
X106089D01*
X102698D02*
X104111D01*
X101568D02*
X102133D01*
X96482D02*
X100155D01*
X91679D02*
X95352D01*
X125302Y15328D02*
X128693D01*
X121346D02*
X124172D01*
X117108D02*
X119934D01*
X112587D02*
X115978D01*
X111457D02*
X112022D01*
X107219D02*
X110327D01*
X102981D02*
X105806D01*
X101568D02*
X102133D01*
X96482D02*
X100155D01*
X91961D02*
X95352D01*
X125302Y15046D02*
X128693D01*
X121629D02*
X123889D01*
X117391D02*
X119651D01*
X112587D02*
X115978D01*
X111457D02*
X112022D01*
X107501D02*
X110044D01*
X102981D02*
X105524D01*
X101568D02*
X102133D01*
X96482D02*
X100155D01*
X92244D02*
X94787D01*
X125302Y14763D02*
X128693D01*
X121911D02*
X123324D01*
X117673D02*
X119086D01*
X112587D02*
X115978D01*
X111457D02*
X112022D01*
X107784D02*
X109197D01*
X103546D02*
X104958D01*
X101568D02*
X102133D01*
X96482D02*
X100155D01*
X92527D02*
X94222D01*
D31*
X9852Y7003D02*
X73860D01*
X10055Y7206D02*
X73657Y7206D01*
X10462Y7409D02*
X73657D01*
X10665Y7613D02*
X73454D01*
X11071Y7816D02*
X73251D01*
X11478Y8019D02*
X73251D01*
X11681Y8222D02*
X73047D01*
X12087Y8425D02*
X73047D01*
X12291Y8629D02*
X72844Y8629D01*
X12697Y8832D02*
X72641D01*
X13103Y9035D02*
X72641D01*
X13307Y9238D02*
X72438D01*
X13713Y9441D02*
X72438D01*
X13916Y9645D02*
X72235D01*
X14323Y9848D02*
X72031D01*
X14729Y10051D02*
X72031D01*
X14932Y10254D02*
X71828D01*
X15339Y10457D02*
X71828D01*
X15542Y10661D02*
X71625D01*
X15948Y10864D02*
X71422D01*
X16355Y11067D02*
X71422D01*
X16558Y11270D02*
X71219D01*
X16964Y11473D02*
X71219D01*
X17167Y11677D02*
X71015D01*
X17574Y11880D02*
X50289Y11880D01*
X51305D02*
X70812D01*
X17980Y12083D02*
X49883D01*
X51508D02*
X70812D01*
X6804Y12286D02*
X7211D01*
X18183D02*
X49883D01*
X51508D02*
X70609D01*
X7007Y12489D02*
X7414D01*
X18590D02*
X49679D01*
X51508D02*
X51915Y12489D01*
X52931Y12489D02*
X70609D01*
X7007Y12693D02*
X7820D01*
X18793D02*
X49476D01*
X51508D02*
X51915D01*
X53134D02*
X70406D01*
X7211Y12896D02*
X8227D01*
X19199D02*
X49476D01*
X51508D02*
X51915D01*
X53337D02*
X70203D01*
X7211Y13099D02*
X8430D01*
X19606D02*
X49476D01*
X51508D02*
X51915D01*
X53540D02*
X70203D01*
X7414Y13302D02*
X8836D01*
X19809D02*
X45006D01*
X45209D02*
X49476D01*
X51508D02*
X51915D01*
X53540D02*
X69999D01*
X7414Y13505D02*
X9243Y13505D01*
X20215Y13505D02*
X43787D01*
X46022D02*
X49273D01*
X51508D02*
X51915D01*
X53743D02*
X69999D01*
X7617Y13709D02*
X9649D01*
X20419D02*
X43177D01*
X46225D02*
X49273D01*
X51508D02*
X51915D01*
X53743D02*
X69796D01*
X7617Y13912D02*
X9852Y13912D01*
X20825Y13912D02*
X42771D01*
X46225Y13912D02*
X49273Y13912D01*
X51508D02*
X51915Y13912D01*
X53743Y13912D02*
X69593D01*
X7820Y14115D02*
X10259D01*
X21231D02*
X42364D01*
X46225Y14115D02*
X49273Y14115D01*
X51711D02*
X52118D01*
X53743D02*
X69593D01*
X8023Y14318D02*
X10665D01*
X21435D02*
X42161D01*
X46225D02*
X49273D01*
X51711D02*
X52118D01*
X53743D02*
X69390D01*
X8023Y14521D02*
X10868D01*
X21841D02*
X41958D01*
X46225D02*
X46631D01*
X46835D02*
X49273D01*
X51711D02*
X52118D01*
X53947D02*
X69390D01*
X8227Y14725D02*
X11275D01*
X22044D02*
X41755D01*
X46022D02*
X46631D01*
X47038D02*
X49273D01*
X51711D02*
X52118D01*
X53947Y14725D02*
X69187Y14725D01*
X8227Y14928D02*
X11681D01*
X22451D02*
X40332D01*
X40942D02*
X41551D01*
X46022D02*
X46428D01*
X47038Y14928D02*
X49273Y14928D01*
X51711D02*
X52118D01*
X53947Y14928D02*
X68983Y14928D01*
X8430Y15131D02*
X12087D01*
X22857D02*
X39723D01*
X40942D02*
X41348D01*
X45819D02*
X46225D01*
X47038D02*
X49273D01*
X51915D02*
X52321D01*
X53947D02*
X68983D01*
X8430Y15334D02*
X12291D01*
X23060D02*
X39316Y15334D01*
X40739D02*
X41145Y15334D01*
X45615D02*
X46022D01*
X47038D02*
X49273D01*
X51915Y15334D02*
X52321Y15334D01*
X53947D02*
X68780D01*
X8633Y15537D02*
X12697Y15537D01*
X23467D02*
X39113D01*
X40535D02*
X41145D01*
X45412D02*
X46022D01*
X47038D02*
X49273D01*
X51915D02*
X52524D01*
X53947D02*
X68780D01*
X8633Y15741D02*
X13103D01*
X23873D02*
X38910D01*
X40332D02*
X41145D01*
X45209D02*
X45819D01*
X47241D02*
X49273D01*
X52118D02*
X52524D01*
X53947D02*
X68577D01*
X8836Y15944D02*
X13307D01*
X24076D02*
X38707D01*
X40129D02*
X40942D01*
X45006D02*
X45615D01*
X47241D02*
X49273D01*
X52118D02*
X52727D01*
X53947D02*
X68374D01*
X8836Y16147D02*
X13713D01*
X24483D02*
X38707D01*
X40129D02*
X41145D01*
X44599D02*
X45412D01*
X47241D02*
X49273D01*
X52321D02*
X52931D01*
X53947D02*
X68374D01*
X9039Y16350D02*
X14119D01*
X24686Y16350D02*
X38707D01*
X39926D02*
X41348D01*
X44396Y16350D02*
X45209D01*
X47241D02*
X49273D01*
X52321D02*
X68171D01*
X9039Y16553D02*
X14526D01*
X25092D02*
X38707D01*
X39723D02*
X41755D01*
X43990D02*
X44803D01*
X47241D02*
X49273D01*
X52524D02*
X68171D01*
X9243Y16757D02*
X14729D01*
X25499D02*
X38707D01*
X39519D02*
X40332D01*
X40942D02*
X42161Y16757D01*
X43380D02*
X44599Y16757D01*
X47241D02*
X49273D01*
X52727D02*
X53947D01*
X54353D02*
X67967D01*
X9446Y16960D02*
X15135D01*
X25702D02*
X38707D01*
X39316Y16960D02*
X40129Y16960D01*
X41145D02*
X44193D01*
X47241D02*
X49476D01*
X53134Y16960D02*
X53540Y16960D01*
X54556Y16960D02*
X67764Y16960D01*
X9446Y17163D02*
X15542D01*
X26108D02*
X38707D01*
X39316D02*
X39926D01*
X41755D02*
X43787D01*
X47241D02*
X49476D01*
X54556D02*
X67764D01*
X9649Y17366D02*
X15745D01*
X26311D02*
X38707Y17366D01*
X39113Y17366D02*
X39926Y17366D01*
X47241Y17366D02*
X49476D01*
X54556D02*
X67561D01*
X9649Y17569D02*
X16151D01*
X26718D02*
X39723D01*
X47038D02*
X49476D01*
X54759D02*
X67561D01*
X9852Y17773D02*
X16558D01*
X27124D02*
X39519D01*
X47038D02*
X49476D01*
X54759D02*
X67358D01*
X9852Y17976D02*
X16964D01*
X27327D02*
X38097D01*
X38707D02*
X39316D01*
X47038D02*
X47647D01*
X47851D02*
X49679D01*
X54963D02*
X67155D01*
X10055Y18179D02*
X17167Y18179D01*
X27734D02*
X37487D01*
X38503D02*
X39113D01*
X47038D02*
X47647Y18179D01*
X48054Y18179D02*
X49679D01*
X54963D02*
X67155Y18179D01*
X10055Y18382D02*
X17574Y18382D01*
X27937D02*
X37081D01*
X38300D02*
X39113D01*
X46835D02*
X47647Y18382D01*
X48257Y18382D02*
X49883D01*
X54963D02*
X66951D01*
X10259Y18585D02*
X17980D01*
X28343D02*
X36675D01*
X38300D02*
X38910D01*
X46835D02*
X47444D01*
X48257D02*
X49883D01*
X55166D02*
X66951D01*
X10259Y18789D02*
X18183D01*
X28750Y18789D02*
X36471Y18789D01*
X38097D02*
X38707Y18789D01*
X46835D02*
X47444Y18789D01*
X48460Y18789D02*
X50086Y18789D01*
X55166Y18789D02*
X66748Y18789D01*
X10462Y18992D02*
X18590D01*
X28953D02*
X36471D01*
X37894D02*
X38503D01*
X46631D02*
X47241D01*
X48663D02*
X50086D01*
X55166D02*
X66545D01*
X10665Y19195D02*
X18996D01*
X29359D02*
X36268D01*
X37691D02*
X38300D01*
X46631D02*
X47241D01*
X48663D02*
X50289D01*
X55166D02*
X66545D01*
X10665Y19398D02*
X19403D01*
X29563D02*
X36268D01*
X37487D02*
X38097D01*
X46428D02*
X47038D01*
X48867D02*
X50492D01*
X55369D02*
X66342D01*
X10868Y19601D02*
X19606D01*
X29969D02*
X36268D01*
X37487D02*
X38097D01*
X46428D02*
X47038D01*
X48867D02*
X50492D01*
X55369D02*
X66342D01*
X10868Y19805D02*
X20012D01*
X30375D02*
X36268D01*
X37284D02*
X37894Y19805D01*
X46225D02*
X46835Y19805D01*
X49070Y19805D02*
X50695Y19805D01*
X55369D02*
X66139D01*
X11071Y20008D02*
X20419D01*
X30579D02*
X36268D01*
X37081D02*
X37691D01*
X46225D02*
X46835D01*
X49070D02*
X50899D01*
X55572D02*
X65935D01*
X11071Y20211D02*
X20825D01*
X30985D02*
X36268D01*
X36878D02*
X37487D01*
X46022D02*
X46631D01*
X49273D02*
X50899D01*
X55572D02*
X65935D01*
X11275Y20414D02*
X21028D01*
X31188D02*
X36471D01*
X36675D02*
X37284D01*
X45819D02*
X46631D01*
X49273D02*
X50695D01*
X55572D02*
X65732D01*
X11275Y20617D02*
X21435D01*
X31595D02*
X36471D01*
X36675D02*
X37081D01*
X45615D02*
X46428D01*
X49476D02*
X50695D01*
X55775D02*
X65732D01*
X11478Y20821D02*
X21841D01*
X32001D02*
X36878D01*
X45412D02*
X46225D01*
X49476D02*
X50695D01*
X55775D02*
X65529D01*
X11478Y21024D02*
X22044D01*
X32204D02*
X36675D01*
X45209D02*
X46225D01*
X49476D02*
X50492D01*
X55775D02*
X65326D01*
X11681Y21227D02*
X22451Y21227D01*
X32611Y21227D02*
X36471Y21227D01*
X45006D02*
X46022Y21227D01*
X49273D02*
X50492Y21227D01*
X55775Y21227D02*
X65326D01*
X11681Y21430D02*
X22857D01*
X32814D02*
X36268D01*
X44803D02*
X45819D01*
X49273D02*
X50492D01*
X55979D02*
X65123D01*
X11884Y21633D02*
X23263Y21633D01*
X33220Y21633D02*
X36065D01*
X44599D02*
X45819D01*
X49273D02*
X50492D01*
X55979D02*
X65123Y21633D01*
X12087Y21837D02*
X23467Y21837D01*
X33627D02*
X35862Y21837D01*
X44396Y21837D02*
X45819D01*
X49273D02*
X50492D01*
X55979D02*
X64919D01*
X12087Y22040D02*
X23873D01*
X33830D02*
X35455D01*
X44193D02*
X46022D01*
X49273D02*
X50492D01*
X55979D02*
X64716D01*
X12291Y22243D02*
X24279D01*
X34236D02*
X35252Y22243D01*
X43990Y22243D02*
X46022D01*
X49273D02*
X50492Y22243D01*
X56182D02*
X64716Y22243D01*
X12291Y22446D02*
X24483D01*
X43583D02*
X46022D01*
X49273D02*
X50492D01*
X56182D02*
X64513D01*
X12494Y22649D02*
X24889D01*
X43380D02*
X44599D01*
X44803D02*
X46022D01*
X49273D02*
X50492D01*
X56182D02*
X64513D01*
X12494Y22853D02*
X25295D01*
X43177D02*
X44193D01*
X45006D02*
X46225D01*
X49273D02*
X50492D01*
X56182D02*
X64310D01*
X12697Y23056D02*
X25702D01*
X42974D02*
X43990D01*
X45006D02*
X46225D01*
X49273D02*
X50492D01*
X56182D02*
X64107D01*
X12697Y23259D02*
X25905D01*
X42771Y23259D02*
X43787Y23259D01*
X45209D02*
X46225D01*
X49273D02*
X50492D01*
X56385D02*
X64107D01*
X12900Y23462D02*
X26311D01*
X42567D02*
X43583D01*
X45209D02*
X46428D01*
X49476D02*
X50492D01*
X56385D02*
X63903D01*
X12900Y23665D02*
X26718D01*
X42364Y23665D02*
X43380Y23665D01*
X45412Y23665D02*
X46428D01*
X49476D02*
X50492Y23665D01*
X56385Y23665D02*
X63903D01*
X13103Y23869D02*
X26921D01*
X42161D02*
X43177D01*
X45412D02*
X46428D01*
X49476D02*
X50492D01*
X56385D02*
X63700D01*
X13307Y24072D02*
X27327D01*
X41958D02*
X42974D01*
X45412D02*
X46428D01*
X49476D02*
X50492D01*
X56385D02*
X63497D01*
X13307Y24275D02*
X27734D01*
X41755D02*
X42771D01*
X45615D02*
X46631D01*
X49476D02*
X50695D01*
X56588D02*
X63497D01*
X13510Y24478D02*
X28140Y24478D01*
X41551D02*
X42567D01*
X45615D02*
X46631D01*
X49476D02*
X50695D01*
X56588D02*
X63294D01*
X13510Y24681D02*
X28343Y24681D01*
X41551D02*
X42161D01*
X45819D02*
X46631D01*
X49476D02*
X50695D01*
X56588Y24681D02*
X63294Y24681D01*
X13713Y24885D02*
X28750D01*
X41348D02*
X41958D01*
X45819D02*
X46631D01*
X49679D02*
X50695D01*
X56588D02*
X63091D01*
X13713Y25088D02*
X29156D01*
X41145D02*
X42161Y25088D01*
X45819Y25088D02*
X46835D01*
X49679D02*
X50899D01*
X56588D02*
X62887Y25088D01*
X13916Y25291D02*
X29359D01*
X40942D02*
X42364D01*
X45819D02*
X46835D01*
X49679D02*
X50899D01*
X56588D02*
X62887D01*
X13916Y25494D02*
X29359D01*
X40739D02*
X42567D01*
X45819D02*
X46835D01*
X49679D02*
X51102D01*
X56588D02*
X62684D01*
X14119Y25697D02*
X29359D01*
X40739D02*
X42771D01*
X45819D02*
X46631D01*
X49883D02*
X51102D01*
X56791D02*
X62684D01*
X14119Y25901D02*
X29359D01*
X40535D02*
X42771Y25901D01*
X45819Y25901D02*
X46631D01*
X49883D02*
X51102D01*
X56791D02*
X62481D01*
X14323Y26104D02*
X29359D01*
X40739D02*
X42974D01*
X45819D02*
X46631D01*
X50086D02*
X51305Y26104D01*
X56791D02*
X62278D01*
X14323Y26307D02*
X29156D01*
X41348D02*
X42974D01*
X45615D02*
X46428D01*
X49883D02*
X51305D01*
X56791D02*
X62278D01*
X14526Y26510D02*
X28953D01*
X41755D02*
X42974D01*
X45615D02*
X46428D01*
X49679D02*
X51508D01*
X56791D02*
X62075D01*
X14729Y26713D02*
X28547D01*
X42364D02*
X43177D01*
X45412D02*
X46225Y26713D01*
X49679Y26713D02*
X51305D01*
X56791D02*
X62075D01*
X14729Y26917D02*
X28140D01*
X42771D02*
X43583D01*
X45412D02*
X46225D01*
X49476D02*
X51102D01*
X56791D02*
X61871D01*
X14932Y27120D02*
X27937Y27120D01*
X43177D02*
X43990Y27120D01*
X45209Y27120D02*
X46022D01*
X49273D02*
X50899D01*
X56791Y27120D02*
X61668Y27120D01*
X14932Y27323D02*
X27531D01*
X43583D02*
X44396D01*
X45006D02*
X45819D01*
X49070D02*
X50695D01*
X56791D02*
X61668D01*
X15135Y27526D02*
X27327D01*
X43787D02*
X44803D01*
X45006D02*
X45819D01*
X49070D02*
X50492D01*
X56791D02*
X61465D01*
X15135Y27729D02*
X27124D01*
X44193D02*
X45819D01*
X48867D02*
X50289D01*
X56791D02*
X61465D01*
X15339Y27933D02*
X26718Y27933D01*
X44599Y27933D02*
X46022D01*
X48663D02*
X50086D01*
X56791D02*
X61262D01*
X15339Y28136D02*
X26515D01*
X44803Y28136D02*
X46225D01*
X48663Y28136D02*
X49883D01*
X56588D02*
X61059D01*
X15542Y28339D02*
X26311D01*
X45209D02*
X46428D01*
X48460D02*
X49679D01*
X56588D02*
X61059D01*
X15542Y28542D02*
X26108Y28542D01*
X45412D02*
X46631Y28542D01*
X48460Y28542D02*
X49476Y28542D01*
X56588Y28542D02*
X60855D01*
X15745Y28745D02*
X25905D01*
X45819D02*
X46835D01*
X48257D02*
X49273D01*
X56385D02*
X60855D01*
X15948Y28949D02*
X25702D01*
X46022D02*
X47241D01*
X48257D02*
X49273D01*
X56385D02*
X60652D01*
X15948Y29152D02*
X25499D01*
X46225D02*
X47444D01*
X48257D02*
X49070D01*
X56385D02*
X60449D01*
X16151Y29355D02*
X25295Y29355D01*
X46428Y29355D02*
X47647Y29355D01*
X48054Y29355D02*
X48867D01*
X56182D02*
X60449D01*
X16151Y29558D02*
X25092D01*
X46835D02*
X47851D01*
X48054D02*
X48867D01*
X56182D02*
X60246Y29558D01*
X16355Y29761D02*
X24889D01*
X47038D02*
X48663D01*
X56182D02*
X60246D01*
X16355Y29965D02*
X24686D01*
X47241Y29965D02*
X48460Y29965D01*
X55979Y29965D02*
X60043D01*
X16558Y30168D02*
X24483D01*
X47444D02*
X48460D01*
X55979D02*
X59839D01*
X16558Y30371D02*
X24279D01*
X47647D02*
X48257D01*
X55775D02*
X59839D01*
X16761Y30574D02*
X24279D01*
X47851D02*
X48257D01*
X55775D02*
X59636D01*
X16761Y30777D02*
X24076D01*
X55775D02*
X59636D01*
X16964Y30981D02*
X23873D01*
X55572Y30981D02*
X59433D01*
X17167Y31184D02*
X23670D01*
X55572D02*
X59230D01*
X17167Y31387D02*
X23670D01*
X55369Y31387D02*
X59230Y31387D01*
X17371Y31590D02*
X23467D01*
X55369Y31590D02*
X59027Y31590D01*
X17371Y31793D02*
X23263D01*
X55166D02*
X59027D01*
X17574Y31997D02*
X23263D01*
X55166D02*
X58823Y31997D01*
X17574Y32200D02*
X23060D01*
X55166D02*
X58620D01*
X17777Y32403D02*
X23060D01*
X54963D02*
X58620Y32403D01*
X17777Y32606D02*
X22857D01*
X54963D02*
X58417D01*
X17980Y32809D02*
X22654D01*
X54759D02*
X58417D01*
X17980Y33013D02*
X22654D01*
X54759D02*
X58214Y33013D01*
X18183Y33216D02*
X22451D01*
X54556D02*
X58011D01*
X18183Y33419D02*
X22451Y33419D01*
X54556D02*
X58011Y33419D01*
X18387Y33622D02*
X22247Y33622D01*
X54353D02*
X57807D01*
X18590Y33825D02*
X22247D01*
X54353D02*
X57807D01*
X18590Y34029D02*
X22044D01*
X54150D02*
X57604D01*
X18793Y34232D02*
X21841Y34232D01*
X54353Y34232D02*
X57401D01*
X18793Y34435D02*
X21231D01*
X54759D02*
X57401D01*
X18996Y34638D02*
X20622D01*
X54963D02*
X57198D01*
X18996Y34841D02*
X20215D01*
X55369D02*
X57198D01*
X19199Y35045D02*
X19809Y35045D01*
X55572Y35045D02*
X56995D01*
X55979Y35248D02*
X56791D01*
X56385Y35451D02*
X56791D01*
X51102Y38702D02*
X51508D01*
X51102Y38905D02*
X51711D01*
X50899Y39109D02*
X52118D01*
X50695Y39312D02*
X52321D01*
X50492Y39515D02*
X52727D01*
X50289Y39718D02*
X52931D01*
X50086Y39921D02*
X53337D01*
X49883Y40125D02*
X53540D01*
X49476Y40328D02*
X53743D01*
X49273Y40531D02*
X53540D01*
X48867Y40734D02*
X53540D01*
X48663Y40937D02*
X53337D01*
X48257Y41141D02*
X53134Y41141D01*
X47851Y41344D02*
X53134D01*
X47444Y41547D02*
X52931D01*
X47038Y41750D02*
X52931D01*
X46428Y41953D02*
X52727D01*
X46022Y42157D02*
X52524D01*
X45209Y42360D02*
X52524D01*
X44599Y42563D02*
X52321D01*
X43583Y42766D02*
X52321D01*
X42364Y42969D02*
X52118D01*
X38910Y43173D02*
X51915Y43173D01*
X35862Y43376D02*
X51915D01*
X34236Y43579D02*
X51711D01*
X33017Y43782D02*
X51508D01*
X32001Y43985D02*
X51508D01*
X31188Y44189D02*
X51305D01*
X30579Y44392D02*
X51305D01*
X29969Y44595D02*
X51102D01*
X29359Y44798D02*
X50899D01*
X28953Y45001D02*
X50899D01*
X28547Y45205D02*
X50695D01*
X28140Y45408D02*
X50695D01*
X27734Y45611D02*
X50492D01*
X27531Y45814D02*
X50289D01*
X27327Y46017D02*
X50289D01*
X27124Y46221D02*
X50086D01*
X26921Y46424D02*
X49883D01*
X26718Y46627D02*
X49883D01*
X26515Y46830D02*
X49679D01*
X26515Y47033D02*
X49679Y47033D01*
X26311Y47237D02*
X49476D01*
X26311Y47440D02*
X49273D01*
X26108Y47643D02*
X49273D01*
X26108Y47846D02*
X49070D01*
X26108Y48049D02*
X49070Y48049D01*
X26108Y48253D02*
X48867D01*
X26108Y48456D02*
X48663D01*
X26108Y48659D02*
X48663D01*
X26108Y48862D02*
X48460D01*
X26311Y49065D02*
X48257D01*
X26311Y49269D02*
X48257D01*
X26515Y49472D02*
X48054D01*
X26515Y49675D02*
X48054D01*
X26718Y49878D02*
X47851D01*
X26718Y50081D02*
X47647D01*
X26921Y50285D02*
X47647Y50285D01*
X26921Y50488D02*
X47444D01*
X27124Y50691D02*
X47444D01*
X27327Y50894D02*
X47241Y50894D01*
X27327Y51097D02*
X47038D01*
X27531Y51301D02*
X47038D01*
X27531Y51504D02*
X46835D01*
X27734Y51707D02*
X46835D01*
X27734Y51910D02*
X46631D01*
X27937Y52113D02*
X46428D01*
X27937Y52317D02*
X46428D01*
X28140Y52520D02*
X46225D01*
X28140Y52723D02*
X46022D01*
X28343Y52926D02*
X46022D01*
X28343Y53129D02*
X45819D01*
X28547Y53333D02*
X45819D01*
X28547Y53536D02*
X45615D01*
X28750Y53739D02*
X45412D01*
X28750Y53942D02*
X45412Y53942D01*
X28953Y54145D02*
X45209D01*
X28953Y54349D02*
X45209D01*
X29156Y54552D02*
X45006D01*
X29156Y54755D02*
X44803D01*
X29359Y54958D02*
X44803D01*
X29359Y55161D02*
X44599D01*
X29563Y55365D02*
X44396D01*
X29563Y55568D02*
X44396D01*
X29766Y55771D02*
X44193D01*
X29766Y55974D02*
X44193D01*
X29969Y56177D02*
X43990D01*
X30172Y56381D02*
X43787D01*
X30172Y56584D02*
X43787D01*
X30375Y56787D02*
X43583Y56787D01*
X30375Y56990D02*
X43583D01*
X30579Y57193D02*
X43380Y57193D01*
X30579Y57397D02*
X43177D01*
X30782Y57600D02*
X43177D01*
X30782Y57803D02*
X42974D01*
X30985Y58006D02*
X42771Y58006D01*
X30985Y58209D02*
X42771D01*
X31188Y58413D02*
X42567D01*
X31188Y58616D02*
X42567D01*
X31391Y58819D02*
X42364D01*
X31391Y59022D02*
X42161D01*
X31595Y59225D02*
X42161Y59225D01*
X31595Y59429D02*
X41958Y59429D01*
X31798Y59632D02*
X41958D01*
X31798Y59835D02*
X41755D01*
X32001Y60038D02*
X41551D01*
X32001Y60241D02*
X41551D01*
X32204Y60445D02*
X41348D01*
X32204Y60648D02*
X41348Y60648D01*
X32407Y60851D02*
X41145D01*
X32407Y61054D02*
X40942D01*
X32611Y61257D02*
X40942D01*
X32611Y61461D02*
X40739D01*
X32814Y61664D02*
X40535Y61664D01*
X33017Y61867D02*
X40535D01*
X33017Y62070D02*
X40332Y62070D01*
X33220Y62273D02*
X40332D01*
X33220Y62477D02*
X40129D01*
X33423Y62680D02*
X39926D01*
X33423Y62883D02*
X39926D01*
X33627Y63086D02*
X39723D01*
X33627Y63289D02*
X39723D01*
X33830Y63493D02*
X39519D01*
X33830Y63696D02*
X39316D01*
X34033Y63899D02*
X39316D01*
X34033Y64102D02*
X39113D01*
X34236Y64305D02*
X38910D01*
X34236Y64509D02*
X38910D01*
X34439Y64712D02*
X38707D01*
X34439Y64915D02*
X38707Y64915D01*
X34643Y65118D02*
X38503Y65118D01*
X34643Y65321D02*
X38300D01*
X34846Y65525D02*
X38300D01*
X34846Y65728D02*
X38097D01*
X35049Y65931D02*
X38097D01*
X35049Y66134D02*
X37894D01*
X35252Y66337D02*
X37691D01*
X35252Y66541D02*
X37691D01*
X35455Y66744D02*
X37487D01*
X35455Y66947D02*
X37284D01*
X35659Y67150D02*
X37284D01*
X35862Y67353D02*
X37081D01*
X35862Y67557D02*
X37081D01*
X36065Y67760D02*
X36878D01*
X36065Y67963D02*
X36675D01*
X36268Y68166D02*
X36675D01*
X36268Y68369D02*
X36471Y68369D01*
M02*
