G04 Layer_Physical_Order=2*
G04 Layer_Color=65280*
%FSLAX44Y44*%
%MOMM*%
G71*
G01*
G75*
%ADD13C,0.5000*%
%ADD14C,0.2000*%
%ADD15C,0.1500*%
%ADD16C,1.8000*%
%ADD17R,1.8000X1.8000*%
%ADD18C,1.0000*%
D13*
X62300Y111700D02*
X78000Y96000D01*
X62300Y111700D02*
Y145000D01*
D14*
X74980Y201310D02*
Y207980D01*
X6000Y294010D02*
X144000D01*
Y169310D02*
Y294010D01*
X9999Y169290D02*
X144000Y169310D01*
X139999Y173310D02*
Y290010D01*
X14000Y173290D02*
X139999Y173310D01*
X136000Y177310D02*
Y286010D01*
X18000Y177290D02*
X136000Y177310D01*
X132000Y181310D02*
Y282010D01*
X22000Y181290D02*
X132000Y181310D01*
X128000Y185310D02*
Y278010D01*
X26000Y185290D02*
X128000Y185310D01*
X124000Y189310D02*
Y274010D01*
X29999Y189290D02*
X124000Y189310D01*
X119999Y193310D02*
Y270010D01*
X34000Y193290D02*
X119999Y193310D01*
X116000Y197310D02*
Y266010D01*
X38000Y197290D02*
X116000Y197310D01*
X112000Y201310D02*
Y262010D01*
X74999Y201290D02*
X112000Y201310D01*
X6000Y165290D02*
Y294010D01*
X9999Y169290D02*
Y290010D01*
X139999D01*
X14000Y173290D02*
Y286010D01*
X136000D01*
X18000Y177290D02*
Y282010D01*
X132000D01*
X22000Y181290D02*
X22029Y277950D01*
X128000Y278010D01*
X26000Y185290D02*
Y274010D01*
X124000D01*
X29999Y189290D02*
Y270010D01*
X119999D01*
X34000Y193290D02*
Y266010D01*
X116000D01*
X38000Y197290D02*
Y262010D01*
X112000D01*
X6000Y165290D02*
X19370D01*
Y70770D02*
Y165290D01*
X19300Y70700D02*
X19370Y70770D01*
X113100Y62900D02*
X117500Y58500D01*
X113100Y62900D02*
Y145000D01*
X87700Y86200D02*
Y145000D01*
X80500Y71000D02*
Y79000D01*
X87700Y86200D01*
D15*
X290000Y320000D02*
Y326665D01*
X286668Y329997D01*
X283335Y326665D01*
Y320000D01*
Y324998D01*
X290000D01*
X280003Y320000D02*
Y329997D01*
X273339Y320000D01*
Y329997D01*
X270006D02*
X263342D01*
X266674D01*
Y320000D01*
X260010Y329997D02*
X253345D01*
Y328331D01*
X260010Y321666D01*
Y320000D01*
X250013Y324998D02*
X243348D01*
X240016Y329997D02*
X233352D01*
X236684D01*
Y320000D01*
X230019Y324998D02*
X223355D01*
X220023Y320000D02*
Y329997D01*
X216690Y326665D01*
X213358Y329997D01*
Y320000D01*
X203361D02*
X210026D01*
X203361Y326665D01*
Y328331D01*
X205027Y329997D01*
X208360D01*
X210026Y328331D01*
X195031Y320000D02*
Y329997D01*
X200029Y324998D01*
X193365D01*
X183368Y328331D02*
X185034Y329997D01*
X188366D01*
X190032Y328331D01*
Y326665D01*
X188366Y324998D01*
X185034D01*
X183368Y323332D01*
Y321666D01*
X185034Y320000D01*
X188366D01*
X190032Y321666D01*
X180035Y320000D02*
Y329997D01*
X175037D01*
X173371Y328331D01*
Y324998D01*
X175037Y323332D01*
X180035D01*
X176703D02*
X173371Y320000D01*
X160042D02*
Y329997D01*
X156710Y326665D01*
X153377Y329997D01*
Y320000D01*
X150045Y329997D02*
Y320000D01*
X145047D01*
X143381Y321666D01*
Y323332D01*
X145047Y324998D01*
X150045D01*
X145047D01*
X143381Y326665D01*
Y328331D01*
X145047Y329997D01*
X150045D01*
X140048Y320000D02*
X136716D01*
X138382D01*
Y329997D01*
X140048Y328331D01*
X125053Y320000D02*
X131718D01*
X125053Y326665D01*
Y328331D01*
X126719Y329997D01*
X130051D01*
X131718Y328331D01*
X115056Y329997D02*
X121721D01*
Y324998D01*
X118389Y326665D01*
X116722D01*
X115056Y324998D01*
Y321666D01*
X116722Y320000D01*
X120055D01*
X121721Y321666D01*
X105060Y329997D02*
X111724D01*
Y324998D01*
X108392Y326665D01*
X106726D01*
X105060Y324998D01*
Y321666D01*
X106726Y320000D01*
X110058D01*
X111724Y321666D01*
X101727Y324998D02*
X95063D01*
X91731Y320000D02*
Y326665D01*
X88398Y329997D01*
X85066Y326665D01*
Y320000D01*
Y324998D01*
X91731D01*
X71737D02*
X65072D01*
X51743Y329997D02*
Y320000D01*
X46745D01*
X45079Y321666D01*
Y323332D01*
X46745Y324998D01*
X51743D01*
X46745D01*
X45079Y326665D01*
Y328331D01*
X46745Y329997D01*
X51743D01*
X36748D02*
X40080D01*
X41747Y328331D01*
Y321666D01*
X40080Y320000D01*
X36748D01*
X35082Y321666D01*
Y328331D01*
X36748Y329997D01*
X31750D02*
X25085D01*
X28418D01*
Y320000D01*
X21753Y329997D02*
X15089D01*
X18421D01*
Y320000D01*
X6758Y329997D02*
X10090D01*
X11756Y328331D01*
Y321666D01*
X10090Y320000D01*
X6758D01*
X5092Y321666D01*
Y328331D01*
X6758Y329997D01*
X1760Y320000D02*
Y329997D01*
X-1573Y326665D01*
X-4905Y329997D01*
Y320000D01*
X-18234Y329997D02*
Y320000D01*
X-24899D01*
X-28231D02*
Y326665D01*
X-31563Y329997D01*
X-34895Y326665D01*
Y320000D01*
Y324998D01*
X-28231D01*
X-38228Y329997D02*
Y328331D01*
X-41560Y324998D01*
X-44892Y328331D01*
Y329997D01*
X-41560Y324998D02*
Y320000D01*
X-54889Y329997D02*
X-48224D01*
Y320000D01*
X-54889D01*
X-48224Y324998D02*
X-51557D01*
X-58221Y320000D02*
Y329997D01*
X-63219D01*
X-64886Y328331D01*
Y324998D01*
X-63219Y323332D01*
X-58221D01*
X-61553D02*
X-64886Y320000D01*
X-78215Y324998D02*
X-84879D01*
D16*
X131800Y97600D02*
D03*
Y72200D02*
D03*
X113100Y150000D02*
D03*
X87700D02*
D03*
X62300D02*
D03*
D17*
X36900D02*
D03*
D18*
X75000Y207980D02*
D03*
X19300Y70700D02*
D03*
X78000Y96000D02*
D03*
X117500Y58500D02*
D03*
X80500Y71000D02*
D03*
M02*
