G04 #@! TF.GenerationSoftware,KiCad,Pcbnew,5.0.0-rc2-unknown-6090f90~65~ubuntu18.04.1*
G04 #@! TF.CreationDate,2018-05-28T20:14:59-06:00*
G04 #@! TF.ProjectId,wemos-01,77656D6F732D30312E6B696361645F70,rev?*
G04 #@! TF.SameCoordinates,Original*
G04 #@! TF.FileFunction,Copper,L2,Bot,Signal*
G04 #@! TF.FilePolarity,Positive*
%FSLAX46Y46*%
G04 Gerber Fmt 4.6, Leading zero omitted, Abs format (unit mm)*
G04 Created by KiCad (PCBNEW 5.0.0-rc2-unknown-6090f90~65~ubuntu18.04.1) date Mon May 28 20:14:59 2018*
%MOMM*%
%LPD*%
G01*
G04 APERTURE LIST*
G04 #@! TA.AperFunction,EtchedComponent*
%ADD10C,0.010000*%
G04 #@! TD*
G04 #@! TA.AperFunction,EtchedComponent*
%ADD11C,0.100000*%
G04 #@! TD*
G04 #@! TA.AperFunction,SMDPad,CuDef*
%ADD12R,1.524000X4.064000*%
G04 #@! TD*
G04 #@! TA.AperFunction,ComponentPad*
%ADD13R,1.800000X1.800000*%
G04 #@! TD*
G04 #@! TA.AperFunction,ComponentPad*
%ADD14O,1.800000X1.800000*%
G04 #@! TD*
G04 #@! TA.AperFunction,ComponentPad*
%ADD15C,1.700000*%
G04 #@! TD*
G04 #@! TA.AperFunction,ComponentPad*
%ADD16O,1.700000X1.700000*%
G04 #@! TD*
G04 #@! TA.AperFunction,ViaPad*
%ADD17C,0.685800*%
G04 #@! TD*
G04 #@! TA.AperFunction,Conductor*
%ADD18C,0.400000*%
G04 #@! TD*
G04 #@! TA.AperFunction,Conductor*
%ADD19C,0.254000*%
G04 #@! TD*
G04 APERTURE END LIST*
D10*
G04 #@! TO.C,GS\002A\002A\002A*
G36*
X135694250Y-111141113D02*
X135679291Y-111141309D01*
X135667640Y-111141718D01*
X135658538Y-111142373D01*
X135651225Y-111143307D01*
X135644940Y-111144551D01*
X135638923Y-111146141D01*
X135635635Y-111147118D01*
X135616263Y-111154920D01*
X135601966Y-111165361D01*
X135592350Y-111179073D01*
X135587023Y-111196690D01*
X135585591Y-111218847D01*
X135585904Y-111227222D01*
X135587199Y-111241670D01*
X135589509Y-111252070D01*
X135593441Y-111260715D01*
X135595707Y-111264353D01*
X135608869Y-111278556D01*
X135627089Y-111289279D01*
X135649974Y-111296293D01*
X135651875Y-111296665D01*
X135662479Y-111298736D01*
X135670231Y-111300386D01*
X135673399Y-111301240D01*
X135672249Y-111304162D01*
X135668473Y-111312119D01*
X135662377Y-111324514D01*
X135654269Y-111340751D01*
X135644454Y-111360232D01*
X135633240Y-111382360D01*
X135620933Y-111406539D01*
X135607840Y-111432171D01*
X135594268Y-111458659D01*
X135580523Y-111485407D01*
X135566912Y-111511818D01*
X135553742Y-111537294D01*
X135541319Y-111561239D01*
X135529951Y-111583056D01*
X135519943Y-111602148D01*
X135511604Y-111617918D01*
X135505238Y-111629768D01*
X135501153Y-111637103D01*
X135499679Y-111639350D01*
X135497798Y-111636630D01*
X135493187Y-111628795D01*
X135486113Y-111616325D01*
X135476841Y-111599703D01*
X135465639Y-111579411D01*
X135452772Y-111555931D01*
X135438506Y-111529747D01*
X135423108Y-111501339D01*
X135406844Y-111471191D01*
X135406354Y-111470281D01*
X135315371Y-111301212D01*
X135333491Y-111298860D01*
X135359579Y-111293269D01*
X135380576Y-111283963D01*
X135396432Y-111270998D01*
X135407098Y-111254428D01*
X135412524Y-111234311D01*
X135412660Y-111210700D01*
X135412596Y-111210071D01*
X135409557Y-111192772D01*
X135403880Y-111179231D01*
X135394456Y-111167045D01*
X135391298Y-111163843D01*
X135385691Y-111158618D01*
X135380135Y-111154330D01*
X135373953Y-111150881D01*
X135366468Y-111148169D01*
X135357001Y-111146094D01*
X135344874Y-111144556D01*
X135329412Y-111143455D01*
X135309935Y-111142689D01*
X135285765Y-111142160D01*
X135256227Y-111141766D01*
X135241113Y-111141608D01*
X135211450Y-111141328D01*
X135187384Y-111141166D01*
X135168164Y-111141154D01*
X135153035Y-111141323D01*
X135141247Y-111141703D01*
X135132048Y-111142328D01*
X135124684Y-111143226D01*
X135118403Y-111144431D01*
X135112454Y-111145973D01*
X135108577Y-111147120D01*
X135088593Y-111155421D01*
X135073998Y-111166704D01*
X135064402Y-111181319D01*
X135061490Y-111189499D01*
X135058849Y-111205390D01*
X135058623Y-111223484D01*
X135060639Y-111241279D01*
X135064724Y-111256270D01*
X135066373Y-111259937D01*
X135076174Y-111272978D01*
X135090612Y-111284335D01*
X135107996Y-111292878D01*
X135121123Y-111296599D01*
X135139306Y-111300176D01*
X135317803Y-111639292D01*
X135340526Y-111682472D01*
X135362409Y-111724083D01*
X135383275Y-111763779D01*
X135402941Y-111801217D01*
X135421228Y-111836053D01*
X135437955Y-111867941D01*
X135452942Y-111896539D01*
X135466008Y-111921502D01*
X135476973Y-111942486D01*
X135485657Y-111959145D01*
X135491879Y-111971137D01*
X135495458Y-111978117D01*
X135496300Y-111979858D01*
X135493386Y-111980767D01*
X135485656Y-111981876D01*
X135474634Y-111982978D01*
X135471694Y-111983216D01*
X135446380Y-111986588D01*
X135426401Y-111992522D01*
X135411170Y-112001294D01*
X135400097Y-112013182D01*
X135396922Y-112018453D01*
X135393339Y-112026473D01*
X135391203Y-112035276D01*
X135390188Y-112046818D01*
X135389961Y-112060037D01*
X135390162Y-112074451D01*
X135391064Y-112084540D01*
X135393069Y-112092320D01*
X135396582Y-112099809D01*
X135398641Y-112103417D01*
X135408008Y-112116082D01*
X135419946Y-112125565D01*
X135435978Y-112132927D01*
X135445283Y-112135934D01*
X135449437Y-112136968D01*
X135454651Y-112137853D01*
X135461409Y-112138599D01*
X135470197Y-112139217D01*
X135481499Y-112139719D01*
X135495801Y-112140114D01*
X135513589Y-112140414D01*
X135535346Y-112140629D01*
X135561558Y-112140770D01*
X135592710Y-112140848D01*
X135629288Y-112140873D01*
X135667533Y-112140860D01*
X135710158Y-112140810D01*
X135746879Y-112140714D01*
X135778139Y-112140563D01*
X135804384Y-112140349D01*
X135826059Y-112140061D01*
X135843608Y-112139690D01*
X135857477Y-112139227D01*
X135868111Y-112138662D01*
X135875954Y-112137987D01*
X135881452Y-112137190D01*
X135885049Y-112136264D01*
X135885054Y-112136262D01*
X135900387Y-112129138D01*
X135912383Y-112119220D01*
X135923125Y-112104776D01*
X135923338Y-112104435D01*
X135928404Y-112095379D01*
X135931457Y-112086817D01*
X135933106Y-112076391D01*
X135933890Y-112063466D01*
X135934160Y-112049583D01*
X135933391Y-112039777D01*
X135931214Y-112031813D01*
X135927296Y-112023525D01*
X135919956Y-112012894D01*
X135910612Y-112003233D01*
X135907219Y-112000585D01*
X135899427Y-111995644D01*
X135891239Y-111991661D01*
X135881892Y-111988537D01*
X135870620Y-111986172D01*
X135856659Y-111984466D01*
X135839244Y-111983321D01*
X135817611Y-111982637D01*
X135790994Y-111982314D01*
X135766147Y-111982250D01*
X135675378Y-111982250D01*
X135632670Y-111902265D01*
X135621721Y-111881659D01*
X135611854Y-111862898D01*
X135603440Y-111846703D01*
X135596850Y-111833793D01*
X135592454Y-111824889D01*
X135590623Y-111820713D01*
X135590598Y-111820509D01*
X135592112Y-111817490D01*
X135596331Y-111809224D01*
X135603049Y-111796111D01*
X135612062Y-111778548D01*
X135623165Y-111756933D01*
X135636153Y-111731665D01*
X135650822Y-111703141D01*
X135666967Y-111671760D01*
X135684383Y-111637921D01*
X135702865Y-111602021D01*
X135722210Y-111564459D01*
X135724520Y-111559975D01*
X135857807Y-111301212D01*
X135871523Y-111297580D01*
X135894313Y-111289745D01*
X135911496Y-111279493D01*
X135923541Y-111266244D01*
X135930919Y-111249420D01*
X135934101Y-111228441D01*
X135934311Y-111220250D01*
X135932657Y-111198293D01*
X135927294Y-111180885D01*
X135917623Y-111167039D01*
X135903046Y-111155767D01*
X135891548Y-111149761D01*
X135887107Y-111147803D01*
X135882683Y-111146223D01*
X135877557Y-111144972D01*
X135871009Y-111144003D01*
X135862320Y-111143268D01*
X135850769Y-111142719D01*
X135835637Y-111142309D01*
X135816204Y-111141989D01*
X135791750Y-111141712D01*
X135766583Y-111141476D01*
X135737136Y-111141230D01*
X135713278Y-111141097D01*
X135694250Y-111141113D01*
X135694250Y-111141113D01*
G37*
X135694250Y-111141113D02*
X135679291Y-111141309D01*
X135667640Y-111141718D01*
X135658538Y-111142373D01*
X135651225Y-111143307D01*
X135644940Y-111144551D01*
X135638923Y-111146141D01*
X135635635Y-111147118D01*
X135616263Y-111154920D01*
X135601966Y-111165361D01*
X135592350Y-111179073D01*
X135587023Y-111196690D01*
X135585591Y-111218847D01*
X135585904Y-111227222D01*
X135587199Y-111241670D01*
X135589509Y-111252070D01*
X135593441Y-111260715D01*
X135595707Y-111264353D01*
X135608869Y-111278556D01*
X135627089Y-111289279D01*
X135649974Y-111296293D01*
X135651875Y-111296665D01*
X135662479Y-111298736D01*
X135670231Y-111300386D01*
X135673399Y-111301240D01*
X135672249Y-111304162D01*
X135668473Y-111312119D01*
X135662377Y-111324514D01*
X135654269Y-111340751D01*
X135644454Y-111360232D01*
X135633240Y-111382360D01*
X135620933Y-111406539D01*
X135607840Y-111432171D01*
X135594268Y-111458659D01*
X135580523Y-111485407D01*
X135566912Y-111511818D01*
X135553742Y-111537294D01*
X135541319Y-111561239D01*
X135529951Y-111583056D01*
X135519943Y-111602148D01*
X135511604Y-111617918D01*
X135505238Y-111629768D01*
X135501153Y-111637103D01*
X135499679Y-111639350D01*
X135497798Y-111636630D01*
X135493187Y-111628795D01*
X135486113Y-111616325D01*
X135476841Y-111599703D01*
X135465639Y-111579411D01*
X135452772Y-111555931D01*
X135438506Y-111529747D01*
X135423108Y-111501339D01*
X135406844Y-111471191D01*
X135406354Y-111470281D01*
X135315371Y-111301212D01*
X135333491Y-111298860D01*
X135359579Y-111293269D01*
X135380576Y-111283963D01*
X135396432Y-111270998D01*
X135407098Y-111254428D01*
X135412524Y-111234311D01*
X135412660Y-111210700D01*
X135412596Y-111210071D01*
X135409557Y-111192772D01*
X135403880Y-111179231D01*
X135394456Y-111167045D01*
X135391298Y-111163843D01*
X135385691Y-111158618D01*
X135380135Y-111154330D01*
X135373953Y-111150881D01*
X135366468Y-111148169D01*
X135357001Y-111146094D01*
X135344874Y-111144556D01*
X135329412Y-111143455D01*
X135309935Y-111142689D01*
X135285765Y-111142160D01*
X135256227Y-111141766D01*
X135241113Y-111141608D01*
X135211450Y-111141328D01*
X135187384Y-111141166D01*
X135168164Y-111141154D01*
X135153035Y-111141323D01*
X135141247Y-111141703D01*
X135132048Y-111142328D01*
X135124684Y-111143226D01*
X135118403Y-111144431D01*
X135112454Y-111145973D01*
X135108577Y-111147120D01*
X135088593Y-111155421D01*
X135073998Y-111166704D01*
X135064402Y-111181319D01*
X135061490Y-111189499D01*
X135058849Y-111205390D01*
X135058623Y-111223484D01*
X135060639Y-111241279D01*
X135064724Y-111256270D01*
X135066373Y-111259937D01*
X135076174Y-111272978D01*
X135090612Y-111284335D01*
X135107996Y-111292878D01*
X135121123Y-111296599D01*
X135139306Y-111300176D01*
X135317803Y-111639292D01*
X135340526Y-111682472D01*
X135362409Y-111724083D01*
X135383275Y-111763779D01*
X135402941Y-111801217D01*
X135421228Y-111836053D01*
X135437955Y-111867941D01*
X135452942Y-111896539D01*
X135466008Y-111921502D01*
X135476973Y-111942486D01*
X135485657Y-111959145D01*
X135491879Y-111971137D01*
X135495458Y-111978117D01*
X135496300Y-111979858D01*
X135493386Y-111980767D01*
X135485656Y-111981876D01*
X135474634Y-111982978D01*
X135471694Y-111983216D01*
X135446380Y-111986588D01*
X135426401Y-111992522D01*
X135411170Y-112001294D01*
X135400097Y-112013182D01*
X135396922Y-112018453D01*
X135393339Y-112026473D01*
X135391203Y-112035276D01*
X135390188Y-112046818D01*
X135389961Y-112060037D01*
X135390162Y-112074451D01*
X135391064Y-112084540D01*
X135393069Y-112092320D01*
X135396582Y-112099809D01*
X135398641Y-112103417D01*
X135408008Y-112116082D01*
X135419946Y-112125565D01*
X135435978Y-112132927D01*
X135445283Y-112135934D01*
X135449437Y-112136968D01*
X135454651Y-112137853D01*
X135461409Y-112138599D01*
X135470197Y-112139217D01*
X135481499Y-112139719D01*
X135495801Y-112140114D01*
X135513589Y-112140414D01*
X135535346Y-112140629D01*
X135561558Y-112140770D01*
X135592710Y-112140848D01*
X135629288Y-112140873D01*
X135667533Y-112140860D01*
X135710158Y-112140810D01*
X135746879Y-112140714D01*
X135778139Y-112140563D01*
X135804384Y-112140349D01*
X135826059Y-112140061D01*
X135843608Y-112139690D01*
X135857477Y-112139227D01*
X135868111Y-112138662D01*
X135875954Y-112137987D01*
X135881452Y-112137190D01*
X135885049Y-112136264D01*
X135885054Y-112136262D01*
X135900387Y-112129138D01*
X135912383Y-112119220D01*
X135923125Y-112104776D01*
X135923338Y-112104435D01*
X135928404Y-112095379D01*
X135931457Y-112086817D01*
X135933106Y-112076391D01*
X135933890Y-112063466D01*
X135934160Y-112049583D01*
X135933391Y-112039777D01*
X135931214Y-112031813D01*
X135927296Y-112023525D01*
X135919956Y-112012894D01*
X135910612Y-112003233D01*
X135907219Y-112000585D01*
X135899427Y-111995644D01*
X135891239Y-111991661D01*
X135881892Y-111988537D01*
X135870620Y-111986172D01*
X135856659Y-111984466D01*
X135839244Y-111983321D01*
X135817611Y-111982637D01*
X135790994Y-111982314D01*
X135766147Y-111982250D01*
X135675378Y-111982250D01*
X135632670Y-111902265D01*
X135621721Y-111881659D01*
X135611854Y-111862898D01*
X135603440Y-111846703D01*
X135596850Y-111833793D01*
X135592454Y-111824889D01*
X135590623Y-111820713D01*
X135590598Y-111820509D01*
X135592112Y-111817490D01*
X135596331Y-111809224D01*
X135603049Y-111796111D01*
X135612062Y-111778548D01*
X135623165Y-111756933D01*
X135636153Y-111731665D01*
X135650822Y-111703141D01*
X135666967Y-111671760D01*
X135684383Y-111637921D01*
X135702865Y-111602021D01*
X135722210Y-111564459D01*
X135724520Y-111559975D01*
X135857807Y-111301212D01*
X135871523Y-111297580D01*
X135894313Y-111289745D01*
X135911496Y-111279493D01*
X135923541Y-111266244D01*
X135930919Y-111249420D01*
X135934101Y-111228441D01*
X135934311Y-111220250D01*
X135932657Y-111198293D01*
X135927294Y-111180885D01*
X135917623Y-111167039D01*
X135903046Y-111155767D01*
X135891548Y-111149761D01*
X135887107Y-111147803D01*
X135882683Y-111146223D01*
X135877557Y-111144972D01*
X135871009Y-111144003D01*
X135862320Y-111143268D01*
X135850769Y-111142719D01*
X135835637Y-111142309D01*
X135816204Y-111141989D01*
X135791750Y-111141712D01*
X135766583Y-111141476D01*
X135737136Y-111141230D01*
X135713278Y-111141097D01*
X135694250Y-111141113D01*
G36*
X132702466Y-111120660D02*
X132685432Y-111120945D01*
X132672101Y-111121554D01*
X132661150Y-111122605D01*
X132651255Y-111124219D01*
X132641093Y-111126514D01*
X132631797Y-111128944D01*
X132597204Y-111140379D01*
X132563598Y-111155439D01*
X132533354Y-111173029D01*
X132527675Y-111176925D01*
X132507038Y-111191529D01*
X132505194Y-111140875D01*
X132399116Y-111140875D01*
X132369729Y-111140979D01*
X132343114Y-111141282D01*
X132319961Y-111141762D01*
X132300963Y-111142401D01*
X132286811Y-111143180D01*
X132278197Y-111144079D01*
X132277319Y-111144246D01*
X132255957Y-111151648D01*
X132238766Y-111163507D01*
X132226189Y-111179295D01*
X132218666Y-111198483D01*
X132216574Y-111217075D01*
X132218154Y-111237860D01*
X132223262Y-111254593D01*
X132232402Y-111268804D01*
X132234226Y-111270895D01*
X132247023Y-111282228D01*
X132262515Y-111290364D01*
X132281750Y-111295683D01*
X132305775Y-111298570D01*
X132310857Y-111298869D01*
X132343525Y-111300536D01*
X132343528Y-111577099D01*
X132343550Y-111630492D01*
X132343625Y-111677947D01*
X132343766Y-111719873D01*
X132343990Y-111756681D01*
X132344310Y-111788784D01*
X132344741Y-111816591D01*
X132345298Y-111840513D01*
X132345996Y-111860962D01*
X132346849Y-111878348D01*
X132347872Y-111893082D01*
X132349079Y-111905575D01*
X132350486Y-111916238D01*
X132352107Y-111925482D01*
X132353956Y-111933717D01*
X132356048Y-111941355D01*
X132356597Y-111943174D01*
X132371456Y-111981047D01*
X132391699Y-112015917D01*
X132416932Y-112047414D01*
X132446760Y-112075170D01*
X132480789Y-112098814D01*
X132518625Y-112117978D01*
X132557838Y-112131725D01*
X132564291Y-112133473D01*
X132570525Y-112134916D01*
X132577215Y-112136089D01*
X132585037Y-112137026D01*
X132594667Y-112137759D01*
X132606778Y-112138324D01*
X132622047Y-112138753D01*
X132641148Y-112139080D01*
X132664758Y-112139339D01*
X132693549Y-112139564D01*
X132718175Y-112139725D01*
X132747634Y-112139841D01*
X132775373Y-112139817D01*
X132800677Y-112139662D01*
X132822827Y-112139387D01*
X132841108Y-112139002D01*
X132854802Y-112138517D01*
X132863192Y-112137942D01*
X132865069Y-112137652D01*
X132887200Y-112129639D01*
X132904641Y-112117692D01*
X132917127Y-112102059D01*
X132924394Y-112082986D01*
X132924589Y-112082074D01*
X132926983Y-112059178D01*
X132924650Y-112037890D01*
X132917857Y-112019308D01*
X132906866Y-112004533D01*
X132905688Y-112003434D01*
X132899419Y-111998288D01*
X132892628Y-111994037D01*
X132884666Y-111990596D01*
X132874889Y-111987884D01*
X132862649Y-111985816D01*
X132847302Y-111984310D01*
X132828200Y-111983281D01*
X132804697Y-111982646D01*
X132776148Y-111982322D01*
X132741906Y-111982226D01*
X132741361Y-111982226D01*
X132707419Y-111982140D01*
X132679103Y-111981854D01*
X132655692Y-111981301D01*
X132636465Y-111980413D01*
X132620700Y-111979124D01*
X132607676Y-111977367D01*
X132596669Y-111975074D01*
X132586960Y-111972178D01*
X132577826Y-111968611D01*
X132573321Y-111966589D01*
X132550564Y-111953346D01*
X132532724Y-111936734D01*
X132518871Y-111915860D01*
X132517387Y-111912936D01*
X132507038Y-111891930D01*
X132504938Y-111775290D01*
X132524649Y-111788675D01*
X132548580Y-111803131D01*
X132576304Y-111816949D01*
X132605283Y-111828972D01*
X132632562Y-111837924D01*
X132664038Y-111844460D01*
X132699351Y-111848053D01*
X132736726Y-111848732D01*
X132774388Y-111846527D01*
X132810562Y-111841466D01*
X132840413Y-111834485D01*
X132882940Y-111819021D01*
X132923004Y-111798181D01*
X132960084Y-111772493D01*
X132993660Y-111742488D01*
X133023214Y-111708695D01*
X133048225Y-111671643D01*
X133068173Y-111631861D01*
X133082540Y-111589880D01*
X133083275Y-111587060D01*
X133092740Y-111538106D01*
X133096239Y-111489127D01*
X133095973Y-111483775D01*
X132935046Y-111483775D01*
X132932142Y-111519612D01*
X132923492Y-111552789D01*
X132909022Y-111583503D01*
X132888654Y-111611953D01*
X132884261Y-111616954D01*
X132856770Y-111642816D01*
X132826282Y-111663214D01*
X132793295Y-111677986D01*
X132758305Y-111686971D01*
X132721808Y-111690008D01*
X132684300Y-111686936D01*
X132674385Y-111685105D01*
X132640390Y-111675076D01*
X132608812Y-111659813D01*
X132580278Y-111639909D01*
X132555415Y-111615957D01*
X132534850Y-111588549D01*
X132519210Y-111558279D01*
X132509985Y-111529607D01*
X132506305Y-111504339D01*
X132506006Y-111476443D01*
X132508946Y-111448575D01*
X132514982Y-111423388D01*
X132515832Y-111420888D01*
X132530281Y-111389068D01*
X132549799Y-111360332D01*
X132573670Y-111335136D01*
X132601182Y-111313937D01*
X132631622Y-111297192D01*
X132664274Y-111285358D01*
X132698427Y-111278892D01*
X132733366Y-111278250D01*
X132738032Y-111278628D01*
X132758146Y-111281031D01*
X132775291Y-111284536D01*
X132791900Y-111289833D01*
X132810405Y-111297616D01*
X132819091Y-111301679D01*
X132834278Y-111309409D01*
X132846642Y-111317102D01*
X132858310Y-111326292D01*
X132871408Y-111338511D01*
X132874752Y-111341817D01*
X132898030Y-111368171D01*
X132915325Y-111395252D01*
X132927004Y-111423923D01*
X132933434Y-111455046D01*
X132935046Y-111483775D01*
X133095973Y-111483775D01*
X133093825Y-111440724D01*
X133085552Y-111393499D01*
X133071473Y-111348051D01*
X133059483Y-111320262D01*
X133046394Y-111295145D01*
X133032588Y-111273162D01*
X133016791Y-111252610D01*
X132997726Y-111231784D01*
X132981016Y-111215433D01*
X132945871Y-111185996D01*
X132908324Y-111162064D01*
X132867658Y-111143257D01*
X132823156Y-111129192D01*
X132815202Y-111127256D01*
X132803618Y-111124781D01*
X132792325Y-111122983D01*
X132779983Y-111121762D01*
X132765251Y-111121021D01*
X132746788Y-111120660D01*
X132724525Y-111120579D01*
X132702466Y-111120660D01*
X132702466Y-111120660D01*
G37*
X132702466Y-111120660D02*
X132685432Y-111120945D01*
X132672101Y-111121554D01*
X132661150Y-111122605D01*
X132651255Y-111124219D01*
X132641093Y-111126514D01*
X132631797Y-111128944D01*
X132597204Y-111140379D01*
X132563598Y-111155439D01*
X132533354Y-111173029D01*
X132527675Y-111176925D01*
X132507038Y-111191529D01*
X132505194Y-111140875D01*
X132399116Y-111140875D01*
X132369729Y-111140979D01*
X132343114Y-111141282D01*
X132319961Y-111141762D01*
X132300963Y-111142401D01*
X132286811Y-111143180D01*
X132278197Y-111144079D01*
X132277319Y-111144246D01*
X132255957Y-111151648D01*
X132238766Y-111163507D01*
X132226189Y-111179295D01*
X132218666Y-111198483D01*
X132216574Y-111217075D01*
X132218154Y-111237860D01*
X132223262Y-111254593D01*
X132232402Y-111268804D01*
X132234226Y-111270895D01*
X132247023Y-111282228D01*
X132262515Y-111290364D01*
X132281750Y-111295683D01*
X132305775Y-111298570D01*
X132310857Y-111298869D01*
X132343525Y-111300536D01*
X132343528Y-111577099D01*
X132343550Y-111630492D01*
X132343625Y-111677947D01*
X132343766Y-111719873D01*
X132343990Y-111756681D01*
X132344310Y-111788784D01*
X132344741Y-111816591D01*
X132345298Y-111840513D01*
X132345996Y-111860962D01*
X132346849Y-111878348D01*
X132347872Y-111893082D01*
X132349079Y-111905575D01*
X132350486Y-111916238D01*
X132352107Y-111925482D01*
X132353956Y-111933717D01*
X132356048Y-111941355D01*
X132356597Y-111943174D01*
X132371456Y-111981047D01*
X132391699Y-112015917D01*
X132416932Y-112047414D01*
X132446760Y-112075170D01*
X132480789Y-112098814D01*
X132518625Y-112117978D01*
X132557838Y-112131725D01*
X132564291Y-112133473D01*
X132570525Y-112134916D01*
X132577215Y-112136089D01*
X132585037Y-112137026D01*
X132594667Y-112137759D01*
X132606778Y-112138324D01*
X132622047Y-112138753D01*
X132641148Y-112139080D01*
X132664758Y-112139339D01*
X132693549Y-112139564D01*
X132718175Y-112139725D01*
X132747634Y-112139841D01*
X132775373Y-112139817D01*
X132800677Y-112139662D01*
X132822827Y-112139387D01*
X132841108Y-112139002D01*
X132854802Y-112138517D01*
X132863192Y-112137942D01*
X132865069Y-112137652D01*
X132887200Y-112129639D01*
X132904641Y-112117692D01*
X132917127Y-112102059D01*
X132924394Y-112082986D01*
X132924589Y-112082074D01*
X132926983Y-112059178D01*
X132924650Y-112037890D01*
X132917857Y-112019308D01*
X132906866Y-112004533D01*
X132905688Y-112003434D01*
X132899419Y-111998288D01*
X132892628Y-111994037D01*
X132884666Y-111990596D01*
X132874889Y-111987884D01*
X132862649Y-111985816D01*
X132847302Y-111984310D01*
X132828200Y-111983281D01*
X132804697Y-111982646D01*
X132776148Y-111982322D01*
X132741906Y-111982226D01*
X132741361Y-111982226D01*
X132707419Y-111982140D01*
X132679103Y-111981854D01*
X132655692Y-111981301D01*
X132636465Y-111980413D01*
X132620700Y-111979124D01*
X132607676Y-111977367D01*
X132596669Y-111975074D01*
X132586960Y-111972178D01*
X132577826Y-111968611D01*
X132573321Y-111966589D01*
X132550564Y-111953346D01*
X132532724Y-111936734D01*
X132518871Y-111915860D01*
X132517387Y-111912936D01*
X132507038Y-111891930D01*
X132504938Y-111775290D01*
X132524649Y-111788675D01*
X132548580Y-111803131D01*
X132576304Y-111816949D01*
X132605283Y-111828972D01*
X132632562Y-111837924D01*
X132664038Y-111844460D01*
X132699351Y-111848053D01*
X132736726Y-111848732D01*
X132774388Y-111846527D01*
X132810562Y-111841466D01*
X132840413Y-111834485D01*
X132882940Y-111819021D01*
X132923004Y-111798181D01*
X132960084Y-111772493D01*
X132993660Y-111742488D01*
X133023214Y-111708695D01*
X133048225Y-111671643D01*
X133068173Y-111631861D01*
X133082540Y-111589880D01*
X133083275Y-111587060D01*
X133092740Y-111538106D01*
X133096239Y-111489127D01*
X133095973Y-111483775D01*
X132935046Y-111483775D01*
X132932142Y-111519612D01*
X132923492Y-111552789D01*
X132909022Y-111583503D01*
X132888654Y-111611953D01*
X132884261Y-111616954D01*
X132856770Y-111642816D01*
X132826282Y-111663214D01*
X132793295Y-111677986D01*
X132758305Y-111686971D01*
X132721808Y-111690008D01*
X132684300Y-111686936D01*
X132674385Y-111685105D01*
X132640390Y-111675076D01*
X132608812Y-111659813D01*
X132580278Y-111639909D01*
X132555415Y-111615957D01*
X132534850Y-111588549D01*
X132519210Y-111558279D01*
X132509985Y-111529607D01*
X132506305Y-111504339D01*
X132506006Y-111476443D01*
X132508946Y-111448575D01*
X132514982Y-111423388D01*
X132515832Y-111420888D01*
X132530281Y-111389068D01*
X132549799Y-111360332D01*
X132573670Y-111335136D01*
X132601182Y-111313937D01*
X132631622Y-111297192D01*
X132664274Y-111285358D01*
X132698427Y-111278892D01*
X132733366Y-111278250D01*
X132738032Y-111278628D01*
X132758146Y-111281031D01*
X132775291Y-111284536D01*
X132791900Y-111289833D01*
X132810405Y-111297616D01*
X132819091Y-111301679D01*
X132834278Y-111309409D01*
X132846642Y-111317102D01*
X132858310Y-111326292D01*
X132871408Y-111338511D01*
X132874752Y-111341817D01*
X132898030Y-111368171D01*
X132915325Y-111395252D01*
X132927004Y-111423923D01*
X132933434Y-111455046D01*
X132935046Y-111483775D01*
X133095973Y-111483775D01*
X133093825Y-111440724D01*
X133085552Y-111393499D01*
X133071473Y-111348051D01*
X133059483Y-111320262D01*
X133046394Y-111295145D01*
X133032588Y-111273162D01*
X133016791Y-111252610D01*
X132997726Y-111231784D01*
X132981016Y-111215433D01*
X132945871Y-111185996D01*
X132908324Y-111162064D01*
X132867658Y-111143257D01*
X132823156Y-111129192D01*
X132815202Y-111127256D01*
X132803618Y-111124781D01*
X132792325Y-111122983D01*
X132779983Y-111121762D01*
X132765251Y-111121021D01*
X132746788Y-111120660D01*
X132724525Y-111120579D01*
X132702466Y-111120660D01*
G36*
X136409884Y-111121384D02*
X136362811Y-111127283D01*
X136317582Y-111137483D01*
X136275176Y-111151904D01*
X136236576Y-111170462D01*
X136232663Y-111172718D01*
X136194234Y-111198249D01*
X136159048Y-111227595D01*
X136127801Y-111259997D01*
X136101187Y-111294699D01*
X136079901Y-111330945D01*
X136072275Y-111347486D01*
X136060737Y-111378800D01*
X136052198Y-111411397D01*
X136046448Y-111446499D01*
X136043278Y-111485327D01*
X136042456Y-111521081D01*
X136042400Y-111559975D01*
X136361828Y-111559975D01*
X136413944Y-111559979D01*
X136460072Y-111559996D01*
X136500572Y-111560032D01*
X136535805Y-111560093D01*
X136566133Y-111560186D01*
X136591917Y-111560317D01*
X136613518Y-111560492D01*
X136631298Y-111560718D01*
X136645616Y-111561001D01*
X136656836Y-111561347D01*
X136665317Y-111561763D01*
X136671421Y-111562255D01*
X136675509Y-111562829D01*
X136677942Y-111563491D01*
X136679082Y-111564249D01*
X136679289Y-111565107D01*
X136679174Y-111565531D01*
X136672496Y-111579203D01*
X136662311Y-111595052D01*
X136649966Y-111611159D01*
X136637229Y-111625189D01*
X136611802Y-111646167D01*
X136581554Y-111663372D01*
X136546825Y-111676727D01*
X136507959Y-111686153D01*
X136465296Y-111691574D01*
X136419179Y-111692913D01*
X136369950Y-111690091D01*
X136356706Y-111688669D01*
X136335965Y-111686020D01*
X136315825Y-111682943D01*
X136295033Y-111679189D01*
X136272337Y-111674512D01*
X136246483Y-111668662D01*
X136216219Y-111661390D01*
X136204325Y-111658456D01*
X136174700Y-111651452D01*
X136150278Y-111646560D01*
X136130268Y-111643795D01*
X136113882Y-111643171D01*
X136100328Y-111644705D01*
X136088817Y-111648409D01*
X136078558Y-111654300D01*
X136070331Y-111660947D01*
X136056379Y-111676442D01*
X136047986Y-111693322D01*
X136044442Y-111713167D01*
X136044226Y-111719242D01*
X136044464Y-111731597D01*
X136045994Y-111740271D01*
X136049528Y-111747904D01*
X136053647Y-111754143D01*
X136064306Y-111766692D01*
X136078153Y-111778173D01*
X136095791Y-111788897D01*
X136117823Y-111799176D01*
X136144853Y-111809320D01*
X136177484Y-111819640D01*
X136184825Y-111821778D01*
X136224396Y-111831649D01*
X136268301Y-111839885D01*
X136314665Y-111846163D01*
X136341817Y-111848769D01*
X136357393Y-111849740D01*
X136376934Y-111850511D01*
X136399094Y-111851072D01*
X136422527Y-111851415D01*
X136445888Y-111851531D01*
X136467831Y-111851410D01*
X136487011Y-111851045D01*
X136502080Y-111850425D01*
X136509125Y-111849873D01*
X136517117Y-111848732D01*
X136529291Y-111846660D01*
X136543611Y-111844013D01*
X136551106Y-111842552D01*
X136600358Y-111830004D01*
X136645675Y-111812627D01*
X136687502Y-111790187D01*
X136726285Y-111762450D01*
X136757018Y-111734708D01*
X136787311Y-111700967D01*
X136811718Y-111665688D01*
X136830543Y-111628217D01*
X136844087Y-111587903D01*
X136852654Y-111544092D01*
X136854931Y-111523462D01*
X136856328Y-111474106D01*
X136851816Y-111426855D01*
X136849571Y-111417100D01*
X136677119Y-111417100D01*
X136222687Y-111417100D01*
X136224806Y-111408368D01*
X136229653Y-111395890D01*
X136238265Y-111380973D01*
X136249550Y-111365264D01*
X136262411Y-111350412D01*
X136265208Y-111347557D01*
X136283702Y-111331775D01*
X136306178Y-111316722D01*
X136330307Y-111303826D01*
X136349035Y-111296095D01*
X136384927Y-111286426D01*
X136423591Y-111281283D01*
X136463392Y-111280649D01*
X136502697Y-111284505D01*
X136539871Y-111292835D01*
X136556138Y-111298289D01*
X136585353Y-111311735D01*
X136612047Y-111328822D01*
X136635358Y-111348766D01*
X136654424Y-111370780D01*
X136668383Y-111394079D01*
X136672691Y-111404550D01*
X136677119Y-111417100D01*
X136849571Y-111417100D01*
X136841468Y-111381893D01*
X136825358Y-111339405D01*
X136803559Y-111299576D01*
X136776146Y-111262593D01*
X136743191Y-111228639D01*
X136734694Y-111221157D01*
X136701335Y-111194885D01*
X136668100Y-111173583D01*
X136633131Y-111156187D01*
X136596982Y-111142435D01*
X136552349Y-111130313D01*
X136505633Y-111122818D01*
X136457818Y-111119869D01*
X136409884Y-111121384D01*
X136409884Y-111121384D01*
G37*
X136409884Y-111121384D02*
X136362811Y-111127283D01*
X136317582Y-111137483D01*
X136275176Y-111151904D01*
X136236576Y-111170462D01*
X136232663Y-111172718D01*
X136194234Y-111198249D01*
X136159048Y-111227595D01*
X136127801Y-111259997D01*
X136101187Y-111294699D01*
X136079901Y-111330945D01*
X136072275Y-111347486D01*
X136060737Y-111378800D01*
X136052198Y-111411397D01*
X136046448Y-111446499D01*
X136043278Y-111485327D01*
X136042456Y-111521081D01*
X136042400Y-111559975D01*
X136361828Y-111559975D01*
X136413944Y-111559979D01*
X136460072Y-111559996D01*
X136500572Y-111560032D01*
X136535805Y-111560093D01*
X136566133Y-111560186D01*
X136591917Y-111560317D01*
X136613518Y-111560492D01*
X136631298Y-111560718D01*
X136645616Y-111561001D01*
X136656836Y-111561347D01*
X136665317Y-111561763D01*
X136671421Y-111562255D01*
X136675509Y-111562829D01*
X136677942Y-111563491D01*
X136679082Y-111564249D01*
X136679289Y-111565107D01*
X136679174Y-111565531D01*
X136672496Y-111579203D01*
X136662311Y-111595052D01*
X136649966Y-111611159D01*
X136637229Y-111625189D01*
X136611802Y-111646167D01*
X136581554Y-111663372D01*
X136546825Y-111676727D01*
X136507959Y-111686153D01*
X136465296Y-111691574D01*
X136419179Y-111692913D01*
X136369950Y-111690091D01*
X136356706Y-111688669D01*
X136335965Y-111686020D01*
X136315825Y-111682943D01*
X136295033Y-111679189D01*
X136272337Y-111674512D01*
X136246483Y-111668662D01*
X136216219Y-111661390D01*
X136204325Y-111658456D01*
X136174700Y-111651452D01*
X136150278Y-111646560D01*
X136130268Y-111643795D01*
X136113882Y-111643171D01*
X136100328Y-111644705D01*
X136088817Y-111648409D01*
X136078558Y-111654300D01*
X136070331Y-111660947D01*
X136056379Y-111676442D01*
X136047986Y-111693322D01*
X136044442Y-111713167D01*
X136044226Y-111719242D01*
X136044464Y-111731597D01*
X136045994Y-111740271D01*
X136049528Y-111747904D01*
X136053647Y-111754143D01*
X136064306Y-111766692D01*
X136078153Y-111778173D01*
X136095791Y-111788897D01*
X136117823Y-111799176D01*
X136144853Y-111809320D01*
X136177484Y-111819640D01*
X136184825Y-111821778D01*
X136224396Y-111831649D01*
X136268301Y-111839885D01*
X136314665Y-111846163D01*
X136341817Y-111848769D01*
X136357393Y-111849740D01*
X136376934Y-111850511D01*
X136399094Y-111851072D01*
X136422527Y-111851415D01*
X136445888Y-111851531D01*
X136467831Y-111851410D01*
X136487011Y-111851045D01*
X136502080Y-111850425D01*
X136509125Y-111849873D01*
X136517117Y-111848732D01*
X136529291Y-111846660D01*
X136543611Y-111844013D01*
X136551106Y-111842552D01*
X136600358Y-111830004D01*
X136645675Y-111812627D01*
X136687502Y-111790187D01*
X136726285Y-111762450D01*
X136757018Y-111734708D01*
X136787311Y-111700967D01*
X136811718Y-111665688D01*
X136830543Y-111628217D01*
X136844087Y-111587903D01*
X136852654Y-111544092D01*
X136854931Y-111523462D01*
X136856328Y-111474106D01*
X136851816Y-111426855D01*
X136849571Y-111417100D01*
X136677119Y-111417100D01*
X136222687Y-111417100D01*
X136224806Y-111408368D01*
X136229653Y-111395890D01*
X136238265Y-111380973D01*
X136249550Y-111365264D01*
X136262411Y-111350412D01*
X136265208Y-111347557D01*
X136283702Y-111331775D01*
X136306178Y-111316722D01*
X136330307Y-111303826D01*
X136349035Y-111296095D01*
X136384927Y-111286426D01*
X136423591Y-111281283D01*
X136463392Y-111280649D01*
X136502697Y-111284505D01*
X136539871Y-111292835D01*
X136556138Y-111298289D01*
X136585353Y-111311735D01*
X136612047Y-111328822D01*
X136635358Y-111348766D01*
X136654424Y-111370780D01*
X136668383Y-111394079D01*
X136672691Y-111404550D01*
X136677119Y-111417100D01*
X136849571Y-111417100D01*
X136841468Y-111381893D01*
X136825358Y-111339405D01*
X136803559Y-111299576D01*
X136776146Y-111262593D01*
X136743191Y-111228639D01*
X136734694Y-111221157D01*
X136701335Y-111194885D01*
X136668100Y-111173583D01*
X136633131Y-111156187D01*
X136596982Y-111142435D01*
X136552349Y-111130313D01*
X136505633Y-111122818D01*
X136457818Y-111119869D01*
X136409884Y-111121384D01*
G36*
X133572144Y-111122179D02*
X133524474Y-111129327D01*
X133480884Y-111140989D01*
X133441543Y-111157131D01*
X133411353Y-111174493D01*
X133383653Y-111195876D01*
X133361286Y-111219846D01*
X133343473Y-111247268D01*
X133340218Y-111253587D01*
X133335743Y-111262854D01*
X133331921Y-111271548D01*
X133328699Y-111280240D01*
X133326027Y-111289499D01*
X133323852Y-111299896D01*
X133322125Y-111312003D01*
X133320794Y-111326390D01*
X133319807Y-111343627D01*
X133319114Y-111364284D01*
X133318663Y-111388933D01*
X133318403Y-111418145D01*
X133318283Y-111452488D01*
X133318251Y-111492535D01*
X133318250Y-111498341D01*
X133318250Y-111667925D01*
X133298196Y-111667925D01*
X133267704Y-111669827D01*
X133242210Y-111675520D01*
X133221751Y-111684983D01*
X133206362Y-111698196D01*
X133196076Y-111715136D01*
X133191490Y-111731706D01*
X133190205Y-111755668D01*
X133194289Y-111776901D01*
X133203475Y-111794939D01*
X133217498Y-111809314D01*
X133236092Y-111819559D01*
X133242777Y-111821834D01*
X133248427Y-111823186D01*
X133255766Y-111824274D01*
X133265470Y-111825122D01*
X133278215Y-111825756D01*
X133294676Y-111826203D01*
X133315528Y-111826488D01*
X133341447Y-111826636D01*
X133369627Y-111826675D01*
X133480175Y-111826675D01*
X133480175Y-111810800D01*
X133480480Y-111801741D01*
X133481259Y-111795993D01*
X133481869Y-111794925D01*
X133485427Y-111796244D01*
X133492730Y-111799628D01*
X133498537Y-111802502D01*
X133522723Y-111813233D01*
X133551500Y-111823525D01*
X133583112Y-111832867D01*
X133615800Y-111840746D01*
X133647808Y-111846651D01*
X133652510Y-111847345D01*
X133668170Y-111849022D01*
X133687751Y-111850293D01*
X133709743Y-111851141D01*
X133732636Y-111851552D01*
X133754920Y-111851509D01*
X133775086Y-111850998D01*
X133791621Y-111850002D01*
X133801106Y-111848866D01*
X133843812Y-111838891D01*
X133883535Y-111824055D01*
X133919696Y-111804650D01*
X133951718Y-111780970D01*
X133969793Y-111763683D01*
X133989936Y-111739917D01*
X134004573Y-111716626D01*
X134014267Y-111692412D01*
X134019579Y-111665878D01*
X134021076Y-111636175D01*
X134020984Y-111631945D01*
X133851650Y-111631945D01*
X133848599Y-111647023D01*
X133839643Y-111660504D01*
X133825085Y-111672142D01*
X133805225Y-111681695D01*
X133781800Y-111688599D01*
X133766963Y-111690765D01*
X133747606Y-111691860D01*
X133725460Y-111691925D01*
X133702258Y-111691004D01*
X133679730Y-111689139D01*
X133659609Y-111686373D01*
X133654800Y-111685475D01*
X133609630Y-111673747D01*
X133562537Y-111656309D01*
X133523038Y-111637978D01*
X133478588Y-111615537D01*
X133477697Y-111576643D01*
X133477545Y-111561774D01*
X133477781Y-111549526D01*
X133478354Y-111541114D01*
X133479216Y-111537752D01*
X133479284Y-111537737D01*
X133483336Y-111537262D01*
X133492102Y-111536000D01*
X133504027Y-111534180D01*
X133510338Y-111533187D01*
X133555390Y-111527105D01*
X133598386Y-111523411D01*
X133638568Y-111522107D01*
X133675177Y-111523194D01*
X133707453Y-111526673D01*
X133734639Y-111532545D01*
X133735645Y-111532840D01*
X133765857Y-111543537D01*
X133792252Y-111556388D01*
X133814376Y-111571004D01*
X133831776Y-111586999D01*
X133843998Y-111603985D01*
X133850588Y-111621573D01*
X133851650Y-111631945D01*
X134020984Y-111631945D01*
X134020702Y-111619122D01*
X134019520Y-111605853D01*
X134017124Y-111593814D01*
X134013106Y-111580452D01*
X134011410Y-111575476D01*
X133997801Y-111544337D01*
X133979104Y-111515246D01*
X133954779Y-111487408D01*
X133945438Y-111478372D01*
X133910030Y-111449295D01*
X133871312Y-111425060D01*
X133828928Y-111405507D01*
X133782523Y-111390476D01*
X133731742Y-111379806D01*
X133724269Y-111378652D01*
X133702402Y-111376377D01*
X133675720Y-111375134D01*
X133645666Y-111374869D01*
X133613681Y-111375530D01*
X133581208Y-111377061D01*
X133549688Y-111379411D01*
X133520563Y-111382524D01*
X133495276Y-111386348D01*
X133489959Y-111387362D01*
X133479509Y-111389452D01*
X133480636Y-111360703D01*
X133481354Y-111346637D01*
X133482503Y-111337101D01*
X133484566Y-111330276D01*
X133488030Y-111324343D01*
X133491537Y-111319758D01*
X133505884Y-111306093D01*
X133524757Y-111295441D01*
X133548446Y-111287715D01*
X133577242Y-111282827D01*
X133611436Y-111280692D01*
X133622687Y-111280574D01*
X133641246Y-111280750D01*
X133658119Y-111281377D01*
X133674501Y-111282608D01*
X133691585Y-111284597D01*
X133710563Y-111287497D01*
X133732630Y-111291459D01*
X133758978Y-111296636D01*
X133777038Y-111300328D01*
X133811070Y-111306871D01*
X133839527Y-111311267D01*
X133862803Y-111313542D01*
X133881290Y-111313720D01*
X133895380Y-111311826D01*
X133904495Y-111308444D01*
X133922433Y-111295213D01*
X133935586Y-111277946D01*
X133943679Y-111257080D01*
X133946003Y-111242872D01*
X133945803Y-111221221D01*
X133940759Y-111203128D01*
X133930592Y-111187739D01*
X133926704Y-111183717D01*
X133920492Y-111178246D01*
X133913781Y-111173734D01*
X133905279Y-111169584D01*
X133893696Y-111165197D01*
X133877738Y-111159975D01*
X133870659Y-111157770D01*
X133833665Y-111146914D01*
X133800092Y-111138431D01*
X133767761Y-111131909D01*
X133734496Y-111126937D01*
X133698119Y-111123103D01*
X133679052Y-111121556D01*
X133623726Y-111119578D01*
X133572144Y-111122179D01*
X133572144Y-111122179D01*
G37*
X133572144Y-111122179D02*
X133524474Y-111129327D01*
X133480884Y-111140989D01*
X133441543Y-111157131D01*
X133411353Y-111174493D01*
X133383653Y-111195876D01*
X133361286Y-111219846D01*
X133343473Y-111247268D01*
X133340218Y-111253587D01*
X133335743Y-111262854D01*
X133331921Y-111271548D01*
X133328699Y-111280240D01*
X133326027Y-111289499D01*
X133323852Y-111299896D01*
X133322125Y-111312003D01*
X133320794Y-111326390D01*
X133319807Y-111343627D01*
X133319114Y-111364284D01*
X133318663Y-111388933D01*
X133318403Y-111418145D01*
X133318283Y-111452488D01*
X133318251Y-111492535D01*
X133318250Y-111498341D01*
X133318250Y-111667925D01*
X133298196Y-111667925D01*
X133267704Y-111669827D01*
X133242210Y-111675520D01*
X133221751Y-111684983D01*
X133206362Y-111698196D01*
X133196076Y-111715136D01*
X133191490Y-111731706D01*
X133190205Y-111755668D01*
X133194289Y-111776901D01*
X133203475Y-111794939D01*
X133217498Y-111809314D01*
X133236092Y-111819559D01*
X133242777Y-111821834D01*
X133248427Y-111823186D01*
X133255766Y-111824274D01*
X133265470Y-111825122D01*
X133278215Y-111825756D01*
X133294676Y-111826203D01*
X133315528Y-111826488D01*
X133341447Y-111826636D01*
X133369627Y-111826675D01*
X133480175Y-111826675D01*
X133480175Y-111810800D01*
X133480480Y-111801741D01*
X133481259Y-111795993D01*
X133481869Y-111794925D01*
X133485427Y-111796244D01*
X133492730Y-111799628D01*
X133498537Y-111802502D01*
X133522723Y-111813233D01*
X133551500Y-111823525D01*
X133583112Y-111832867D01*
X133615800Y-111840746D01*
X133647808Y-111846651D01*
X133652510Y-111847345D01*
X133668170Y-111849022D01*
X133687751Y-111850293D01*
X133709743Y-111851141D01*
X133732636Y-111851552D01*
X133754920Y-111851509D01*
X133775086Y-111850998D01*
X133791621Y-111850002D01*
X133801106Y-111848866D01*
X133843812Y-111838891D01*
X133883535Y-111824055D01*
X133919696Y-111804650D01*
X133951718Y-111780970D01*
X133969793Y-111763683D01*
X133989936Y-111739917D01*
X134004573Y-111716626D01*
X134014267Y-111692412D01*
X134019579Y-111665878D01*
X134021076Y-111636175D01*
X134020984Y-111631945D01*
X133851650Y-111631945D01*
X133848599Y-111647023D01*
X133839643Y-111660504D01*
X133825085Y-111672142D01*
X133805225Y-111681695D01*
X133781800Y-111688599D01*
X133766963Y-111690765D01*
X133747606Y-111691860D01*
X133725460Y-111691925D01*
X133702258Y-111691004D01*
X133679730Y-111689139D01*
X133659609Y-111686373D01*
X133654800Y-111685475D01*
X133609630Y-111673747D01*
X133562537Y-111656309D01*
X133523038Y-111637978D01*
X133478588Y-111615537D01*
X133477697Y-111576643D01*
X133477545Y-111561774D01*
X133477781Y-111549526D01*
X133478354Y-111541114D01*
X133479216Y-111537752D01*
X133479284Y-111537737D01*
X133483336Y-111537262D01*
X133492102Y-111536000D01*
X133504027Y-111534180D01*
X133510338Y-111533187D01*
X133555390Y-111527105D01*
X133598386Y-111523411D01*
X133638568Y-111522107D01*
X133675177Y-111523194D01*
X133707453Y-111526673D01*
X133734639Y-111532545D01*
X133735645Y-111532840D01*
X133765857Y-111543537D01*
X133792252Y-111556388D01*
X133814376Y-111571004D01*
X133831776Y-111586999D01*
X133843998Y-111603985D01*
X133850588Y-111621573D01*
X133851650Y-111631945D01*
X134020984Y-111631945D01*
X134020702Y-111619122D01*
X134019520Y-111605853D01*
X134017124Y-111593814D01*
X134013106Y-111580452D01*
X134011410Y-111575476D01*
X133997801Y-111544337D01*
X133979104Y-111515246D01*
X133954779Y-111487408D01*
X133945438Y-111478372D01*
X133910030Y-111449295D01*
X133871312Y-111425060D01*
X133828928Y-111405507D01*
X133782523Y-111390476D01*
X133731742Y-111379806D01*
X133724269Y-111378652D01*
X133702402Y-111376377D01*
X133675720Y-111375134D01*
X133645666Y-111374869D01*
X133613681Y-111375530D01*
X133581208Y-111377061D01*
X133549688Y-111379411D01*
X133520563Y-111382524D01*
X133495276Y-111386348D01*
X133489959Y-111387362D01*
X133479509Y-111389452D01*
X133480636Y-111360703D01*
X133481354Y-111346637D01*
X133482503Y-111337101D01*
X133484566Y-111330276D01*
X133488030Y-111324343D01*
X133491537Y-111319758D01*
X133505884Y-111306093D01*
X133524757Y-111295441D01*
X133548446Y-111287715D01*
X133577242Y-111282827D01*
X133611436Y-111280692D01*
X133622687Y-111280574D01*
X133641246Y-111280750D01*
X133658119Y-111281377D01*
X133674501Y-111282608D01*
X133691585Y-111284597D01*
X133710563Y-111287497D01*
X133732630Y-111291459D01*
X133758978Y-111296636D01*
X133777038Y-111300328D01*
X133811070Y-111306871D01*
X133839527Y-111311267D01*
X133862803Y-111313542D01*
X133881290Y-111313720D01*
X133895380Y-111311826D01*
X133904495Y-111308444D01*
X133922433Y-111295213D01*
X133935586Y-111277946D01*
X133943679Y-111257080D01*
X133946003Y-111242872D01*
X133945803Y-111221221D01*
X133940759Y-111203128D01*
X133930592Y-111187739D01*
X133926704Y-111183717D01*
X133920492Y-111178246D01*
X133913781Y-111173734D01*
X133905279Y-111169584D01*
X133893696Y-111165197D01*
X133877738Y-111159975D01*
X133870659Y-111157770D01*
X133833665Y-111146914D01*
X133800092Y-111138431D01*
X133767761Y-111131909D01*
X133734496Y-111126937D01*
X133698119Y-111123103D01*
X133679052Y-111121556D01*
X133623726Y-111119578D01*
X133572144Y-111122179D01*
G36*
X131706142Y-111121379D02*
X131659046Y-111126803D01*
X131615820Y-111136133D01*
X131598988Y-111141228D01*
X131564997Y-111155027D01*
X131533816Y-111172688D01*
X131506231Y-111193581D01*
X131483026Y-111217079D01*
X131464987Y-111242554D01*
X131459605Y-111252715D01*
X131455346Y-111261722D01*
X131451710Y-111270047D01*
X131448648Y-111278261D01*
X131446110Y-111286933D01*
X131444048Y-111296635D01*
X131442411Y-111307937D01*
X131441150Y-111321409D01*
X131440216Y-111337622D01*
X131439559Y-111357147D01*
X131439130Y-111380554D01*
X131438878Y-111408413D01*
X131438755Y-111441295D01*
X131438711Y-111479771D01*
X131438706Y-111493615D01*
X131438650Y-111666968D01*
X131406107Y-111668850D01*
X131379064Y-111671687D01*
X131357325Y-111676948D01*
X131340202Y-111684953D01*
X131327007Y-111696022D01*
X131317211Y-111710177D01*
X131313308Y-111719056D01*
X131311112Y-111728785D01*
X131310221Y-111741577D01*
X131310139Y-111749205D01*
X131310399Y-111762815D01*
X131311520Y-111772359D01*
X131314030Y-111780109D01*
X131318460Y-111788343D01*
X131319737Y-111790432D01*
X131328021Y-111801518D01*
X131338286Y-111809963D01*
X131348035Y-111815513D01*
X131366746Y-111825087D01*
X131483661Y-111826027D01*
X131600575Y-111826967D01*
X131600575Y-111795005D01*
X131618832Y-111803348D01*
X131645465Y-111814360D01*
X131675814Y-111824986D01*
X131707262Y-111834377D01*
X131737100Y-111841666D01*
X131757521Y-111845117D01*
X131781973Y-111847859D01*
X131808966Y-111849848D01*
X131837008Y-111851042D01*
X131864606Y-111851396D01*
X131890269Y-111850866D01*
X131912504Y-111849409D01*
X131928426Y-111847256D01*
X131968266Y-111837251D01*
X132005246Y-111823045D01*
X132038867Y-111805029D01*
X132068629Y-111783591D01*
X132094032Y-111759122D01*
X132114577Y-111732011D01*
X132129765Y-111702647D01*
X132135655Y-111685672D01*
X132139029Y-111667572D01*
X132140281Y-111645682D01*
X132139891Y-111633683D01*
X131971981Y-111633683D01*
X131969001Y-111646425D01*
X131960390Y-111658693D01*
X131946863Y-111669927D01*
X131929139Y-111679573D01*
X131907935Y-111687072D01*
X131900925Y-111688838D01*
X131884022Y-111691315D01*
X131862617Y-111692322D01*
X131838364Y-111691936D01*
X131812921Y-111690231D01*
X131787944Y-111687282D01*
X131765090Y-111683163D01*
X131762500Y-111682578D01*
X131728875Y-111673668D01*
X131696979Y-111662706D01*
X131664559Y-111648843D01*
X131637088Y-111635278D01*
X131598988Y-111615535D01*
X131598099Y-111576985D01*
X131597211Y-111538434D01*
X131617231Y-111534948D01*
X131655182Y-111529260D01*
X131693356Y-111525262D01*
X131730693Y-111522974D01*
X131766135Y-111522412D01*
X131798625Y-111523595D01*
X131827104Y-111526539D01*
X131849813Y-111531073D01*
X131879238Y-111540732D01*
X131905593Y-111552897D01*
X131928326Y-111567104D01*
X131946883Y-111582888D01*
X131960712Y-111599785D01*
X131969258Y-111617329D01*
X131971981Y-111633683D01*
X132139891Y-111633683D01*
X132139516Y-111622160D01*
X132136841Y-111599161D01*
X132132361Y-111578843D01*
X132130072Y-111571908D01*
X132119279Y-111547052D01*
X132106073Y-111524837D01*
X132089177Y-111503316D01*
X132075238Y-111488402D01*
X132042400Y-111458726D01*
X132006937Y-111433860D01*
X131968231Y-111413495D01*
X131925659Y-111397322D01*
X131878604Y-111385032D01*
X131860990Y-111381596D01*
X131835661Y-111378190D01*
X131805602Y-111376024D01*
X131772302Y-111375065D01*
X131737254Y-111375280D01*
X131701947Y-111376634D01*
X131667871Y-111379095D01*
X131636519Y-111382629D01*
X131609379Y-111387203D01*
X131609307Y-111387218D01*
X131600575Y-111389029D01*
X131600575Y-111363219D01*
X131601251Y-111345961D01*
X131603744Y-111333129D01*
X131608756Y-111322897D01*
X131616989Y-111313438D01*
X131621169Y-111309614D01*
X131636470Y-111298978D01*
X131655513Y-111290889D01*
X131678855Y-111285218D01*
X131707051Y-111281832D01*
X131740656Y-111280603D01*
X131744524Y-111280593D01*
X131764138Y-111280883D01*
X131782934Y-111281836D01*
X131802100Y-111283608D01*
X131822829Y-111286352D01*
X131846310Y-111290224D01*
X131873734Y-111295377D01*
X131901232Y-111300921D01*
X131931062Y-111306852D01*
X131955549Y-111311127D01*
X131975486Y-111313719D01*
X131991669Y-111314601D01*
X132004891Y-111313743D01*
X132015948Y-111311120D01*
X132025632Y-111306703D01*
X132034739Y-111300464D01*
X132039979Y-111296080D01*
X132053270Y-111280485D01*
X132062067Y-111261884D01*
X132066212Y-111241662D01*
X132065545Y-111221201D01*
X132059908Y-111201886D01*
X132052266Y-111188910D01*
X132045565Y-111181888D01*
X132036136Y-111175388D01*
X132023183Y-111169040D01*
X132005907Y-111162479D01*
X131983513Y-111155335D01*
X131972310Y-111152050D01*
X131917592Y-111138286D01*
X131862834Y-111128314D01*
X131808818Y-111122157D01*
X131756327Y-111119838D01*
X131706142Y-111121379D01*
X131706142Y-111121379D01*
G37*
X131706142Y-111121379D02*
X131659046Y-111126803D01*
X131615820Y-111136133D01*
X131598988Y-111141228D01*
X131564997Y-111155027D01*
X131533816Y-111172688D01*
X131506231Y-111193581D01*
X131483026Y-111217079D01*
X131464987Y-111242554D01*
X131459605Y-111252715D01*
X131455346Y-111261722D01*
X131451710Y-111270047D01*
X131448648Y-111278261D01*
X131446110Y-111286933D01*
X131444048Y-111296635D01*
X131442411Y-111307937D01*
X131441150Y-111321409D01*
X131440216Y-111337622D01*
X131439559Y-111357147D01*
X131439130Y-111380554D01*
X131438878Y-111408413D01*
X131438755Y-111441295D01*
X131438711Y-111479771D01*
X131438706Y-111493615D01*
X131438650Y-111666968D01*
X131406107Y-111668850D01*
X131379064Y-111671687D01*
X131357325Y-111676948D01*
X131340202Y-111684953D01*
X131327007Y-111696022D01*
X131317211Y-111710177D01*
X131313308Y-111719056D01*
X131311112Y-111728785D01*
X131310221Y-111741577D01*
X131310139Y-111749205D01*
X131310399Y-111762815D01*
X131311520Y-111772359D01*
X131314030Y-111780109D01*
X131318460Y-111788343D01*
X131319737Y-111790432D01*
X131328021Y-111801518D01*
X131338286Y-111809963D01*
X131348035Y-111815513D01*
X131366746Y-111825087D01*
X131483661Y-111826027D01*
X131600575Y-111826967D01*
X131600575Y-111795005D01*
X131618832Y-111803348D01*
X131645465Y-111814360D01*
X131675814Y-111824986D01*
X131707262Y-111834377D01*
X131737100Y-111841666D01*
X131757521Y-111845117D01*
X131781973Y-111847859D01*
X131808966Y-111849848D01*
X131837008Y-111851042D01*
X131864606Y-111851396D01*
X131890269Y-111850866D01*
X131912504Y-111849409D01*
X131928426Y-111847256D01*
X131968266Y-111837251D01*
X132005246Y-111823045D01*
X132038867Y-111805029D01*
X132068629Y-111783591D01*
X132094032Y-111759122D01*
X132114577Y-111732011D01*
X132129765Y-111702647D01*
X132135655Y-111685672D01*
X132139029Y-111667572D01*
X132140281Y-111645682D01*
X132139891Y-111633683D01*
X131971981Y-111633683D01*
X131969001Y-111646425D01*
X131960390Y-111658693D01*
X131946863Y-111669927D01*
X131929139Y-111679573D01*
X131907935Y-111687072D01*
X131900925Y-111688838D01*
X131884022Y-111691315D01*
X131862617Y-111692322D01*
X131838364Y-111691936D01*
X131812921Y-111690231D01*
X131787944Y-111687282D01*
X131765090Y-111683163D01*
X131762500Y-111682578D01*
X131728875Y-111673668D01*
X131696979Y-111662706D01*
X131664559Y-111648843D01*
X131637088Y-111635278D01*
X131598988Y-111615535D01*
X131598099Y-111576985D01*
X131597211Y-111538434D01*
X131617231Y-111534948D01*
X131655182Y-111529260D01*
X131693356Y-111525262D01*
X131730693Y-111522974D01*
X131766135Y-111522412D01*
X131798625Y-111523595D01*
X131827104Y-111526539D01*
X131849813Y-111531073D01*
X131879238Y-111540732D01*
X131905593Y-111552897D01*
X131928326Y-111567104D01*
X131946883Y-111582888D01*
X131960712Y-111599785D01*
X131969258Y-111617329D01*
X131971981Y-111633683D01*
X132139891Y-111633683D01*
X132139516Y-111622160D01*
X132136841Y-111599161D01*
X132132361Y-111578843D01*
X132130072Y-111571908D01*
X132119279Y-111547052D01*
X132106073Y-111524837D01*
X132089177Y-111503316D01*
X132075238Y-111488402D01*
X132042400Y-111458726D01*
X132006937Y-111433860D01*
X131968231Y-111413495D01*
X131925659Y-111397322D01*
X131878604Y-111385032D01*
X131860990Y-111381596D01*
X131835661Y-111378190D01*
X131805602Y-111376024D01*
X131772302Y-111375065D01*
X131737254Y-111375280D01*
X131701947Y-111376634D01*
X131667871Y-111379095D01*
X131636519Y-111382629D01*
X131609379Y-111387203D01*
X131609307Y-111387218D01*
X131600575Y-111389029D01*
X131600575Y-111363219D01*
X131601251Y-111345961D01*
X131603744Y-111333129D01*
X131608756Y-111322897D01*
X131616989Y-111313438D01*
X131621169Y-111309614D01*
X131636470Y-111298978D01*
X131655513Y-111290889D01*
X131678855Y-111285218D01*
X131707051Y-111281832D01*
X131740656Y-111280603D01*
X131744524Y-111280593D01*
X131764138Y-111280883D01*
X131782934Y-111281836D01*
X131802100Y-111283608D01*
X131822829Y-111286352D01*
X131846310Y-111290224D01*
X131873734Y-111295377D01*
X131901232Y-111300921D01*
X131931062Y-111306852D01*
X131955549Y-111311127D01*
X131975486Y-111313719D01*
X131991669Y-111314601D01*
X132004891Y-111313743D01*
X132015948Y-111311120D01*
X132025632Y-111306703D01*
X132034739Y-111300464D01*
X132039979Y-111296080D01*
X132053270Y-111280485D01*
X132062067Y-111261884D01*
X132066212Y-111241662D01*
X132065545Y-111221201D01*
X132059908Y-111201886D01*
X132052266Y-111188910D01*
X132045565Y-111181888D01*
X132036136Y-111175388D01*
X132023183Y-111169040D01*
X132005907Y-111162479D01*
X131983513Y-111155335D01*
X131972310Y-111152050D01*
X131917592Y-111138286D01*
X131862834Y-111128314D01*
X131808818Y-111122157D01*
X131756327Y-111119838D01*
X131706142Y-111121379D01*
G36*
X137976093Y-110891705D02*
X137959806Y-110897438D01*
X137950319Y-110903668D01*
X137942943Y-110911961D01*
X137936288Y-110923396D01*
X137926763Y-110941967D01*
X137925772Y-111046280D01*
X137925535Y-111076119D01*
X137925464Y-111100332D01*
X137925582Y-111119642D01*
X137925912Y-111134770D01*
X137926478Y-111146440D01*
X137927303Y-111155374D01*
X137928410Y-111162295D01*
X137929657Y-111167364D01*
X137937615Y-111187773D01*
X137948388Y-111202817D01*
X137962588Y-111212946D01*
X137980830Y-111218605D01*
X138002150Y-111220250D01*
X138016042Y-111219671D01*
X138028563Y-111218137D01*
X138037265Y-111215951D01*
X138037434Y-111215881D01*
X138048557Y-111209143D01*
X138058357Y-111198474D01*
X138067178Y-111183273D01*
X138075367Y-111162941D01*
X138083271Y-111136878D01*
X138083516Y-111135968D01*
X138091338Y-111118699D01*
X138104750Y-111102873D01*
X138123115Y-111088690D01*
X138145795Y-111076352D01*
X138172152Y-111066061D01*
X138201550Y-111058017D01*
X138233351Y-111052422D01*
X138266917Y-111049477D01*
X138301610Y-111049384D01*
X138336795Y-111052343D01*
X138344834Y-111053468D01*
X138386635Y-111062655D01*
X138425127Y-111076950D01*
X138459992Y-111096056D01*
X138490912Y-111119677D01*
X138517568Y-111147517D01*
X138539642Y-111179277D01*
X138556816Y-111214663D01*
X138568772Y-111253376D01*
X138571044Y-111264256D01*
X138572827Y-111277560D01*
X138574253Y-111295898D01*
X138575320Y-111318128D01*
X138576029Y-111343109D01*
X138576380Y-111369700D01*
X138576372Y-111396759D01*
X138576007Y-111423145D01*
X138575284Y-111447716D01*
X138574203Y-111469331D01*
X138572763Y-111486849D01*
X138571036Y-111498792D01*
X138560542Y-111536609D01*
X138545526Y-111570143D01*
X138525917Y-111599455D01*
X138501642Y-111624602D01*
X138472630Y-111645643D01*
X138438807Y-111662638D01*
X138400103Y-111675646D01*
X138356445Y-111684725D01*
X138341184Y-111686839D01*
X138297209Y-111690049D01*
X138251528Y-111689329D01*
X138205810Y-111684863D01*
X138161728Y-111676839D01*
X138120951Y-111665441D01*
X138108532Y-111660981D01*
X138083925Y-111651588D01*
X138083925Y-111547902D01*
X138178382Y-111546493D01*
X138208581Y-111545968D01*
X138233210Y-111545312D01*
X138253047Y-111544416D01*
X138268871Y-111543173D01*
X138281462Y-111541474D01*
X138291598Y-111539210D01*
X138300059Y-111536273D01*
X138307624Y-111532554D01*
X138315072Y-111527946D01*
X138315981Y-111527337D01*
X138328733Y-111515063D01*
X138337758Y-111498500D01*
X138342742Y-111478714D01*
X138343371Y-111456769D01*
X138341243Y-111441601D01*
X138335333Y-111424383D01*
X138325127Y-111410763D01*
X138309908Y-111399956D01*
X138298238Y-111394561D01*
X138279188Y-111386937D01*
X138104563Y-111386937D01*
X138066399Y-111386952D01*
X138034039Y-111387006D01*
X138006937Y-111387116D01*
X137984548Y-111387298D01*
X137966326Y-111387567D01*
X137951726Y-111387940D01*
X137940201Y-111388432D01*
X137931206Y-111389060D01*
X137924195Y-111389840D01*
X137918622Y-111390787D01*
X137913943Y-111391917D01*
X137911696Y-111392578D01*
X137891083Y-111401765D01*
X137875327Y-111414933D01*
X137864638Y-111431803D01*
X137859229Y-111452095D01*
X137858570Y-111462769D01*
X137860763Y-111486377D01*
X137867709Y-111505916D01*
X137879668Y-111521806D01*
X137896902Y-111534468D01*
X137905925Y-111538991D01*
X137925175Y-111547631D01*
X137925175Y-111754067D01*
X137970419Y-111775749D01*
X138010386Y-111794152D01*
X138046798Y-111809222D01*
X138081147Y-111821481D01*
X138114923Y-111831453D01*
X138149617Y-111839659D01*
X138156950Y-111841166D01*
X138169770Y-111843021D01*
X138187689Y-111844616D01*
X138209460Y-111845925D01*
X138233837Y-111846923D01*
X138259574Y-111847583D01*
X138285424Y-111847881D01*
X138310140Y-111847791D01*
X138332476Y-111847287D01*
X138351186Y-111846343D01*
X138361738Y-111845374D01*
X138401872Y-111838972D01*
X138442506Y-111829536D01*
X138481867Y-111817591D01*
X138518182Y-111803665D01*
X138544300Y-111791211D01*
X138582697Y-111767292D01*
X138617534Y-111738389D01*
X138648516Y-111704966D01*
X138675347Y-111667485D01*
X138697729Y-111626410D01*
X138715366Y-111582205D01*
X138727961Y-111535333D01*
X138734458Y-111493969D01*
X138735743Y-111477693D01*
X138736726Y-111456430D01*
X138737407Y-111431535D01*
X138737784Y-111404364D01*
X138737855Y-111376272D01*
X138737619Y-111348616D01*
X138737076Y-111322750D01*
X138736224Y-111300030D01*
X138735061Y-111281812D01*
X138734661Y-111277522D01*
X138727428Y-111231572D01*
X138715482Y-111186492D01*
X138699377Y-111144287D01*
X138695442Y-111135819D01*
X138680115Y-111106100D01*
X138664221Y-111080132D01*
X138646405Y-111056017D01*
X138625309Y-111031857D01*
X138609401Y-111015435D01*
X138573999Y-110983109D01*
X138537593Y-110956277D01*
X138499131Y-110934371D01*
X138457562Y-110916821D01*
X138411835Y-110903059D01*
X138394086Y-110898908D01*
X138382359Y-110896515D01*
X138371300Y-110894722D01*
X138359690Y-110893446D01*
X138346310Y-110892603D01*
X138329940Y-110892112D01*
X138309361Y-110891888D01*
X138290300Y-110891846D01*
X138263238Y-110891982D01*
X138241367Y-110892437D01*
X138223533Y-110893276D01*
X138208583Y-110894562D01*
X138195363Y-110896359D01*
X138188912Y-110897494D01*
X138162803Y-110903313D01*
X138134885Y-110911053D01*
X138107775Y-110919917D01*
X138084090Y-110929110D01*
X138081845Y-110930090D01*
X138070119Y-110934641D01*
X138063617Y-110935616D01*
X138062261Y-110934593D01*
X138057855Y-110926616D01*
X138050086Y-110916803D01*
X138040707Y-110907075D01*
X138031471Y-110899355D01*
X138028215Y-110897264D01*
X138012716Y-110891602D01*
X137994541Y-110889751D01*
X137976093Y-110891705D01*
X137976093Y-110891705D01*
G37*
X137976093Y-110891705D02*
X137959806Y-110897438D01*
X137950319Y-110903668D01*
X137942943Y-110911961D01*
X137936288Y-110923396D01*
X137926763Y-110941967D01*
X137925772Y-111046280D01*
X137925535Y-111076119D01*
X137925464Y-111100332D01*
X137925582Y-111119642D01*
X137925912Y-111134770D01*
X137926478Y-111146440D01*
X137927303Y-111155374D01*
X137928410Y-111162295D01*
X137929657Y-111167364D01*
X137937615Y-111187773D01*
X137948388Y-111202817D01*
X137962588Y-111212946D01*
X137980830Y-111218605D01*
X138002150Y-111220250D01*
X138016042Y-111219671D01*
X138028563Y-111218137D01*
X138037265Y-111215951D01*
X138037434Y-111215881D01*
X138048557Y-111209143D01*
X138058357Y-111198474D01*
X138067178Y-111183273D01*
X138075367Y-111162941D01*
X138083271Y-111136878D01*
X138083516Y-111135968D01*
X138091338Y-111118699D01*
X138104750Y-111102873D01*
X138123115Y-111088690D01*
X138145795Y-111076352D01*
X138172152Y-111066061D01*
X138201550Y-111058017D01*
X138233351Y-111052422D01*
X138266917Y-111049477D01*
X138301610Y-111049384D01*
X138336795Y-111052343D01*
X138344834Y-111053468D01*
X138386635Y-111062655D01*
X138425127Y-111076950D01*
X138459992Y-111096056D01*
X138490912Y-111119677D01*
X138517568Y-111147517D01*
X138539642Y-111179277D01*
X138556816Y-111214663D01*
X138568772Y-111253376D01*
X138571044Y-111264256D01*
X138572827Y-111277560D01*
X138574253Y-111295898D01*
X138575320Y-111318128D01*
X138576029Y-111343109D01*
X138576380Y-111369700D01*
X138576372Y-111396759D01*
X138576007Y-111423145D01*
X138575284Y-111447716D01*
X138574203Y-111469331D01*
X138572763Y-111486849D01*
X138571036Y-111498792D01*
X138560542Y-111536609D01*
X138545526Y-111570143D01*
X138525917Y-111599455D01*
X138501642Y-111624602D01*
X138472630Y-111645643D01*
X138438807Y-111662638D01*
X138400103Y-111675646D01*
X138356445Y-111684725D01*
X138341184Y-111686839D01*
X138297209Y-111690049D01*
X138251528Y-111689329D01*
X138205810Y-111684863D01*
X138161728Y-111676839D01*
X138120951Y-111665441D01*
X138108532Y-111660981D01*
X138083925Y-111651588D01*
X138083925Y-111547902D01*
X138178382Y-111546493D01*
X138208581Y-111545968D01*
X138233210Y-111545312D01*
X138253047Y-111544416D01*
X138268871Y-111543173D01*
X138281462Y-111541474D01*
X138291598Y-111539210D01*
X138300059Y-111536273D01*
X138307624Y-111532554D01*
X138315072Y-111527946D01*
X138315981Y-111527337D01*
X138328733Y-111515063D01*
X138337758Y-111498500D01*
X138342742Y-111478714D01*
X138343371Y-111456769D01*
X138341243Y-111441601D01*
X138335333Y-111424383D01*
X138325127Y-111410763D01*
X138309908Y-111399956D01*
X138298238Y-111394561D01*
X138279188Y-111386937D01*
X138104563Y-111386937D01*
X138066399Y-111386952D01*
X138034039Y-111387006D01*
X138006937Y-111387116D01*
X137984548Y-111387298D01*
X137966326Y-111387567D01*
X137951726Y-111387940D01*
X137940201Y-111388432D01*
X137931206Y-111389060D01*
X137924195Y-111389840D01*
X137918622Y-111390787D01*
X137913943Y-111391917D01*
X137911696Y-111392578D01*
X137891083Y-111401765D01*
X137875327Y-111414933D01*
X137864638Y-111431803D01*
X137859229Y-111452095D01*
X137858570Y-111462769D01*
X137860763Y-111486377D01*
X137867709Y-111505916D01*
X137879668Y-111521806D01*
X137896902Y-111534468D01*
X137905925Y-111538991D01*
X137925175Y-111547631D01*
X137925175Y-111754067D01*
X137970419Y-111775749D01*
X138010386Y-111794152D01*
X138046798Y-111809222D01*
X138081147Y-111821481D01*
X138114923Y-111831453D01*
X138149617Y-111839659D01*
X138156950Y-111841166D01*
X138169770Y-111843021D01*
X138187689Y-111844616D01*
X138209460Y-111845925D01*
X138233837Y-111846923D01*
X138259574Y-111847583D01*
X138285424Y-111847881D01*
X138310140Y-111847791D01*
X138332476Y-111847287D01*
X138351186Y-111846343D01*
X138361738Y-111845374D01*
X138401872Y-111838972D01*
X138442506Y-111829536D01*
X138481867Y-111817591D01*
X138518182Y-111803665D01*
X138544300Y-111791211D01*
X138582697Y-111767292D01*
X138617534Y-111738389D01*
X138648516Y-111704966D01*
X138675347Y-111667485D01*
X138697729Y-111626410D01*
X138715366Y-111582205D01*
X138727961Y-111535333D01*
X138734458Y-111493969D01*
X138735743Y-111477693D01*
X138736726Y-111456430D01*
X138737407Y-111431535D01*
X138737784Y-111404364D01*
X138737855Y-111376272D01*
X138737619Y-111348616D01*
X138737076Y-111322750D01*
X138736224Y-111300030D01*
X138735061Y-111281812D01*
X138734661Y-111277522D01*
X138727428Y-111231572D01*
X138715482Y-111186492D01*
X138699377Y-111144287D01*
X138695442Y-111135819D01*
X138680115Y-111106100D01*
X138664221Y-111080132D01*
X138646405Y-111056017D01*
X138625309Y-111031857D01*
X138609401Y-111015435D01*
X138573999Y-110983109D01*
X138537593Y-110956277D01*
X138499131Y-110934371D01*
X138457562Y-110916821D01*
X138411835Y-110903059D01*
X138394086Y-110898908D01*
X138382359Y-110896515D01*
X138371300Y-110894722D01*
X138359690Y-110893446D01*
X138346310Y-110892603D01*
X138329940Y-110892112D01*
X138309361Y-110891888D01*
X138290300Y-110891846D01*
X138263238Y-110891982D01*
X138241367Y-110892437D01*
X138223533Y-110893276D01*
X138208583Y-110894562D01*
X138195363Y-110896359D01*
X138188912Y-110897494D01*
X138162803Y-110903313D01*
X138134885Y-110911053D01*
X138107775Y-110919917D01*
X138084090Y-110929110D01*
X138081845Y-110930090D01*
X138070119Y-110934641D01*
X138063617Y-110935616D01*
X138062261Y-110934593D01*
X138057855Y-110926616D01*
X138050086Y-110916803D01*
X138040707Y-110907075D01*
X138031471Y-110899355D01*
X138028215Y-110897264D01*
X138012716Y-110891602D01*
X137994541Y-110889751D01*
X137976093Y-110891705D01*
G36*
X137417406Y-110912637D02*
X137391736Y-110912904D01*
X137369815Y-110913347D01*
X137351125Y-110913990D01*
X137335145Y-110914858D01*
X137321355Y-110915974D01*
X137309236Y-110917362D01*
X137298267Y-110919047D01*
X137287928Y-110921053D01*
X137277700Y-110923403D01*
X137267063Y-110926122D01*
X137263939Y-110926954D01*
X137224392Y-110940276D01*
X137187136Y-110958222D01*
X137152861Y-110980244D01*
X137122257Y-111005796D01*
X137096013Y-111034329D01*
X137074820Y-111065297D01*
X137064789Y-111084876D01*
X137052920Y-111118161D01*
X137045633Y-111154128D01*
X137043201Y-111190790D01*
X137045547Y-111223821D01*
X137053587Y-111259401D01*
X137067138Y-111292700D01*
X137086434Y-111324147D01*
X137111708Y-111354175D01*
X137121886Y-111364310D01*
X137132565Y-111373889D01*
X137145432Y-111384474D01*
X137159425Y-111395303D01*
X137173484Y-111405612D01*
X137186550Y-111414637D01*
X137197561Y-111421616D01*
X137205457Y-111425784D01*
X137208435Y-111426625D01*
X137207582Y-111428686D01*
X137202892Y-111434319D01*
X137195107Y-111442696D01*
X137184970Y-111452988D01*
X137183481Y-111454459D01*
X137139558Y-111500791D01*
X137096780Y-111551870D01*
X137056443Y-111606092D01*
X137034575Y-111638506D01*
X137015538Y-111667825D01*
X136996488Y-111667930D01*
X136975732Y-111669296D01*
X136955239Y-111672867D01*
X136936893Y-111678190D01*
X136922579Y-111684810D01*
X136920288Y-111686304D01*
X136906183Y-111699228D01*
X136897029Y-111715123D01*
X136892478Y-111734741D01*
X136891809Y-111747300D01*
X136893902Y-111770429D01*
X136900557Y-111789249D01*
X136912035Y-111804117D01*
X136928594Y-111815392D01*
X136945884Y-111822130D01*
X136952817Y-111823675D01*
X136962551Y-111824860D01*
X136975809Y-111825717D01*
X136993310Y-111826283D01*
X137015778Y-111826590D01*
X137041264Y-111826675D01*
X137121543Y-111826675D01*
X137139370Y-111794911D01*
X137157902Y-111763470D01*
X137178684Y-111730981D01*
X137201202Y-111698070D01*
X137224940Y-111665366D01*
X137249385Y-111633494D01*
X137274022Y-111603081D01*
X137298336Y-111574753D01*
X137321813Y-111549139D01*
X137343938Y-111526863D01*
X137364198Y-111508553D01*
X137382077Y-111494835D01*
X137389634Y-111490081D01*
X137406063Y-111480659D01*
X137481469Y-111480629D01*
X137556875Y-111480600D01*
X137556875Y-111667925D01*
X137521157Y-111667980D01*
X137489974Y-111669151D01*
X137464233Y-111672688D01*
X137443408Y-111678781D01*
X137426976Y-111687623D01*
X137414412Y-111699403D01*
X137407725Y-111709340D01*
X137403302Y-111718676D01*
X137400881Y-111728213D01*
X137399944Y-111740457D01*
X137399867Y-111747300D01*
X137401994Y-111770286D01*
X137408465Y-111788852D01*
X137419428Y-111803344D01*
X137426503Y-111809075D01*
X137432209Y-111812917D01*
X137437702Y-111816155D01*
X137443557Y-111818840D01*
X137450350Y-111821024D01*
X137458657Y-111822757D01*
X137469054Y-111824091D01*
X137482116Y-111825077D01*
X137498419Y-111825767D01*
X137518539Y-111826210D01*
X137543052Y-111826460D01*
X137572532Y-111826566D01*
X137607556Y-111826580D01*
X137623261Y-111826571D01*
X137658911Y-111826531D01*
X137688794Y-111826450D01*
X137713496Y-111826308D01*
X137733600Y-111826085D01*
X137749690Y-111825760D01*
X137762351Y-111825314D01*
X137772167Y-111824725D01*
X137779722Y-111823975D01*
X137785599Y-111823043D01*
X137790384Y-111821909D01*
X137794316Y-111820672D01*
X137813884Y-111810968D01*
X137828694Y-111797198D01*
X137838570Y-111779693D01*
X137843335Y-111758783D01*
X137842814Y-111734799D01*
X137842239Y-111730772D01*
X137836234Y-111711381D01*
X137824995Y-111695427D01*
X137808689Y-111683011D01*
X137787485Y-111674233D01*
X137761552Y-111669195D01*
X137737267Y-111667925D01*
X137718800Y-111667925D01*
X137718800Y-111321850D01*
X137556875Y-111321850D01*
X137506869Y-111321822D01*
X137484935Y-111321583D01*
X137460739Y-111320952D01*
X137437017Y-111320019D01*
X137416504Y-111318877D01*
X137413907Y-111318696D01*
X137380126Y-111315283D01*
X137350865Y-111310059D01*
X137324456Y-111302625D01*
X137299227Y-111292585D01*
X137293979Y-111290134D01*
X137272150Y-111277724D01*
X137252296Y-111262676D01*
X137235723Y-111246161D01*
X137223736Y-111229353D01*
X137221499Y-111225012D01*
X137216039Y-111207876D01*
X137213889Y-111188361D01*
X137215103Y-111169000D01*
X137219733Y-111152327D01*
X137219978Y-111151779D01*
X137232258Y-111132041D01*
X137250071Y-111114048D01*
X137272714Y-111098347D01*
X137299487Y-111085483D01*
X137310564Y-111081462D01*
X137317509Y-111079187D01*
X137323776Y-111077349D01*
X137330131Y-111075893D01*
X137337343Y-111074764D01*
X137346180Y-111073906D01*
X137357409Y-111073266D01*
X137371797Y-111072787D01*
X137390114Y-111072416D01*
X137413126Y-111072096D01*
X137441601Y-111071774D01*
X137446544Y-111071720D01*
X137556875Y-111070522D01*
X137556875Y-111321850D01*
X137718800Y-111321850D01*
X137718800Y-111071948D01*
X137749757Y-111070146D01*
X137777947Y-111066902D01*
X137800708Y-111060625D01*
X137818308Y-111051087D01*
X137831015Y-111038058D01*
X137839098Y-111021309D01*
X137842825Y-111000612D01*
X137843155Y-110990428D01*
X137841508Y-110968327D01*
X137836405Y-110950937D01*
X137827315Y-110937336D01*
X137813708Y-110926597D01*
X137803419Y-110921262D01*
X137787063Y-110913862D01*
X137567988Y-110912845D01*
X137522118Y-110912650D01*
X137482077Y-110912534D01*
X137447347Y-110912522D01*
X137417406Y-110912637D01*
X137417406Y-110912637D01*
G37*
X137417406Y-110912637D02*
X137391736Y-110912904D01*
X137369815Y-110913347D01*
X137351125Y-110913990D01*
X137335145Y-110914858D01*
X137321355Y-110915974D01*
X137309236Y-110917362D01*
X137298267Y-110919047D01*
X137287928Y-110921053D01*
X137277700Y-110923403D01*
X137267063Y-110926122D01*
X137263939Y-110926954D01*
X137224392Y-110940276D01*
X137187136Y-110958222D01*
X137152861Y-110980244D01*
X137122257Y-111005796D01*
X137096013Y-111034329D01*
X137074820Y-111065297D01*
X137064789Y-111084876D01*
X137052920Y-111118161D01*
X137045633Y-111154128D01*
X137043201Y-111190790D01*
X137045547Y-111223821D01*
X137053587Y-111259401D01*
X137067138Y-111292700D01*
X137086434Y-111324147D01*
X137111708Y-111354175D01*
X137121886Y-111364310D01*
X137132565Y-111373889D01*
X137145432Y-111384474D01*
X137159425Y-111395303D01*
X137173484Y-111405612D01*
X137186550Y-111414637D01*
X137197561Y-111421616D01*
X137205457Y-111425784D01*
X137208435Y-111426625D01*
X137207582Y-111428686D01*
X137202892Y-111434319D01*
X137195107Y-111442696D01*
X137184970Y-111452988D01*
X137183481Y-111454459D01*
X137139558Y-111500791D01*
X137096780Y-111551870D01*
X137056443Y-111606092D01*
X137034575Y-111638506D01*
X137015538Y-111667825D01*
X136996488Y-111667930D01*
X136975732Y-111669296D01*
X136955239Y-111672867D01*
X136936893Y-111678190D01*
X136922579Y-111684810D01*
X136920288Y-111686304D01*
X136906183Y-111699228D01*
X136897029Y-111715123D01*
X136892478Y-111734741D01*
X136891809Y-111747300D01*
X136893902Y-111770429D01*
X136900557Y-111789249D01*
X136912035Y-111804117D01*
X136928594Y-111815392D01*
X136945884Y-111822130D01*
X136952817Y-111823675D01*
X136962551Y-111824860D01*
X136975809Y-111825717D01*
X136993310Y-111826283D01*
X137015778Y-111826590D01*
X137041264Y-111826675D01*
X137121543Y-111826675D01*
X137139370Y-111794911D01*
X137157902Y-111763470D01*
X137178684Y-111730981D01*
X137201202Y-111698070D01*
X137224940Y-111665366D01*
X137249385Y-111633494D01*
X137274022Y-111603081D01*
X137298336Y-111574753D01*
X137321813Y-111549139D01*
X137343938Y-111526863D01*
X137364198Y-111508553D01*
X137382077Y-111494835D01*
X137389634Y-111490081D01*
X137406063Y-111480659D01*
X137481469Y-111480629D01*
X137556875Y-111480600D01*
X137556875Y-111667925D01*
X137521157Y-111667980D01*
X137489974Y-111669151D01*
X137464233Y-111672688D01*
X137443408Y-111678781D01*
X137426976Y-111687623D01*
X137414412Y-111699403D01*
X137407725Y-111709340D01*
X137403302Y-111718676D01*
X137400881Y-111728213D01*
X137399944Y-111740457D01*
X137399867Y-111747300D01*
X137401994Y-111770286D01*
X137408465Y-111788852D01*
X137419428Y-111803344D01*
X137426503Y-111809075D01*
X137432209Y-111812917D01*
X137437702Y-111816155D01*
X137443557Y-111818840D01*
X137450350Y-111821024D01*
X137458657Y-111822757D01*
X137469054Y-111824091D01*
X137482116Y-111825077D01*
X137498419Y-111825767D01*
X137518539Y-111826210D01*
X137543052Y-111826460D01*
X137572532Y-111826566D01*
X137607556Y-111826580D01*
X137623261Y-111826571D01*
X137658911Y-111826531D01*
X137688794Y-111826450D01*
X137713496Y-111826308D01*
X137733600Y-111826085D01*
X137749690Y-111825760D01*
X137762351Y-111825314D01*
X137772167Y-111824725D01*
X137779722Y-111823975D01*
X137785599Y-111823043D01*
X137790384Y-111821909D01*
X137794316Y-111820672D01*
X137813884Y-111810968D01*
X137828694Y-111797198D01*
X137838570Y-111779693D01*
X137843335Y-111758783D01*
X137842814Y-111734799D01*
X137842239Y-111730772D01*
X137836234Y-111711381D01*
X137824995Y-111695427D01*
X137808689Y-111683011D01*
X137787485Y-111674233D01*
X137761552Y-111669195D01*
X137737267Y-111667925D01*
X137718800Y-111667925D01*
X137718800Y-111321850D01*
X137556875Y-111321850D01*
X137506869Y-111321822D01*
X137484935Y-111321583D01*
X137460739Y-111320952D01*
X137437017Y-111320019D01*
X137416504Y-111318877D01*
X137413907Y-111318696D01*
X137380126Y-111315283D01*
X137350865Y-111310059D01*
X137324456Y-111302625D01*
X137299227Y-111292585D01*
X137293979Y-111290134D01*
X137272150Y-111277724D01*
X137252296Y-111262676D01*
X137235723Y-111246161D01*
X137223736Y-111229353D01*
X137221499Y-111225012D01*
X137216039Y-111207876D01*
X137213889Y-111188361D01*
X137215103Y-111169000D01*
X137219733Y-111152327D01*
X137219978Y-111151779D01*
X137232258Y-111132041D01*
X137250071Y-111114048D01*
X137272714Y-111098347D01*
X137299487Y-111085483D01*
X137310564Y-111081462D01*
X137317509Y-111079187D01*
X137323776Y-111077349D01*
X137330131Y-111075893D01*
X137337343Y-111074764D01*
X137346180Y-111073906D01*
X137357409Y-111073266D01*
X137371797Y-111072787D01*
X137390114Y-111072416D01*
X137413126Y-111072096D01*
X137441601Y-111071774D01*
X137446544Y-111071720D01*
X137556875Y-111070522D01*
X137556875Y-111321850D01*
X137718800Y-111321850D01*
X137718800Y-111071948D01*
X137749757Y-111070146D01*
X137777947Y-111066902D01*
X137800708Y-111060625D01*
X137818308Y-111051087D01*
X137831015Y-111038058D01*
X137839098Y-111021309D01*
X137842825Y-111000612D01*
X137843155Y-110990428D01*
X137841508Y-110968327D01*
X137836405Y-110950937D01*
X137827315Y-110937336D01*
X137813708Y-110926597D01*
X137803419Y-110921262D01*
X137787063Y-110913862D01*
X137567988Y-110912845D01*
X137522118Y-110912650D01*
X137482077Y-110912534D01*
X137447347Y-110912522D01*
X137417406Y-110912637D01*
G36*
X134459334Y-111122975D02*
X134418717Y-111129693D01*
X134381799Y-111141111D01*
X134348118Y-111157402D01*
X134317211Y-111178739D01*
X134294183Y-111199547D01*
X134280551Y-111213934D01*
X134270251Y-111226719D01*
X134261608Y-111240208D01*
X134253586Y-111255412D01*
X134247981Y-111266964D01*
X134243202Y-111277628D01*
X134239185Y-111288011D01*
X134235862Y-111298721D01*
X134233167Y-111310365D01*
X134231036Y-111323550D01*
X134229402Y-111338883D01*
X134228199Y-111356973D01*
X134227361Y-111378427D01*
X134226822Y-111403851D01*
X134226517Y-111433854D01*
X134226378Y-111469042D01*
X134226342Y-111506383D01*
X134226300Y-111667104D01*
X134206457Y-111669329D01*
X134181607Y-111674180D01*
X134161906Y-111682683D01*
X134147198Y-111694999D01*
X134137325Y-111711291D01*
X134132131Y-111731721D01*
X134131190Y-111747300D01*
X134132881Y-111769033D01*
X134138202Y-111786302D01*
X134147528Y-111800093D01*
X134153207Y-111805492D01*
X134159076Y-111810370D01*
X134164421Y-111814363D01*
X134169925Y-111817559D01*
X134176269Y-111820048D01*
X134184137Y-111821917D01*
X134194210Y-111823255D01*
X134207172Y-111824151D01*
X134223704Y-111824694D01*
X134244488Y-111824971D01*
X134270208Y-111825073D01*
X134301545Y-111825087D01*
X134421563Y-111825087D01*
X134440613Y-111815562D01*
X134457518Y-111805145D01*
X134469076Y-111792911D01*
X134476103Y-111777609D01*
X134479417Y-111757987D01*
X134479567Y-111755867D01*
X134479118Y-111731619D01*
X134474207Y-111711716D01*
X134464593Y-111695866D01*
X134450034Y-111683777D01*
X134430290Y-111675159D01*
X134408756Y-111670265D01*
X134385050Y-111666493D01*
X134385050Y-111521826D01*
X134385084Y-111484545D01*
X134385220Y-111453025D01*
X134385516Y-111426677D01*
X134386026Y-111404912D01*
X134386807Y-111387142D01*
X134387914Y-111372778D01*
X134389402Y-111361230D01*
X134391327Y-111351911D01*
X134393745Y-111344230D01*
X134396711Y-111337600D01*
X134400281Y-111331431D01*
X134403486Y-111326612D01*
X134416082Y-111312759D01*
X134433136Y-111300309D01*
X134452757Y-111290544D01*
X134460857Y-111287691D01*
X134470842Y-111285210D01*
X134482770Y-111283549D01*
X134497975Y-111282592D01*
X134517787Y-111282226D01*
X134524750Y-111282214D01*
X134543544Y-111282338D01*
X134557534Y-111282787D01*
X134568265Y-111283747D01*
X134577284Y-111285406D01*
X134586134Y-111287950D01*
X134593572Y-111290545D01*
X134618233Y-111301644D01*
X134643595Y-111317411D01*
X134670315Y-111338289D01*
X134689334Y-111355386D01*
X134718425Y-111382771D01*
X134718425Y-111667925D01*
X134706309Y-111667925D01*
X134691001Y-111668977D01*
X134674093Y-111671773D01*
X134658197Y-111675765D01*
X134645922Y-111680410D01*
X134645501Y-111680623D01*
X134628461Y-111692473D01*
X134616495Y-111707963D01*
X134609502Y-111727280D01*
X134607370Y-111749579D01*
X134609354Y-111771296D01*
X134615517Y-111788681D01*
X134626413Y-111802616D01*
X134642595Y-111813980D01*
X134650203Y-111817788D01*
X134654279Y-111819602D01*
X134658314Y-111821091D01*
X134662954Y-111822291D01*
X134668849Y-111823238D01*
X134676648Y-111823966D01*
X134686998Y-111824513D01*
X134700548Y-111824913D01*
X134717948Y-111825202D01*
X134739844Y-111825416D01*
X134766887Y-111825591D01*
X134794625Y-111825737D01*
X134829312Y-111825860D01*
X134858154Y-111825839D01*
X134881657Y-111825661D01*
X134900327Y-111825315D01*
X134914667Y-111824788D01*
X134925184Y-111824067D01*
X134932381Y-111823141D01*
X134935913Y-111822302D01*
X134957181Y-111813532D01*
X134972852Y-111802343D01*
X134983443Y-111788028D01*
X134989471Y-111769880D01*
X134991455Y-111747192D01*
X134991458Y-111746404D01*
X134988760Y-111724291D01*
X134980745Y-111705437D01*
X134967603Y-111690168D01*
X134953275Y-111680623D01*
X134941222Y-111675962D01*
X134925430Y-111671929D01*
X134908512Y-111669069D01*
X134893078Y-111667927D01*
X134892467Y-111667925D01*
X134880350Y-111667925D01*
X134880350Y-111300917D01*
X134902736Y-111297078D01*
X134916127Y-111294178D01*
X134928872Y-111290416D01*
X134937354Y-111286999D01*
X134953664Y-111275320D01*
X134965603Y-111259629D01*
X134972860Y-111240796D01*
X134975124Y-111219691D01*
X134972086Y-111197183D01*
X134970925Y-111192958D01*
X134962602Y-111175620D01*
X134948753Y-111161216D01*
X134929563Y-111149768D01*
X134924850Y-111147706D01*
X134920152Y-111146062D01*
X134914694Y-111144781D01*
X134907701Y-111143805D01*
X134898400Y-111143079D01*
X134886016Y-111142544D01*
X134869776Y-111142146D01*
X134848903Y-111141826D01*
X134822626Y-111141529D01*
X134816057Y-111141461D01*
X134718425Y-111140461D01*
X134718425Y-111210887D01*
X134698513Y-111193995D01*
X134678406Y-111177685D01*
X134660105Y-111164697D01*
X134641306Y-111153514D01*
X134622412Y-111143908D01*
X134601069Y-111134703D01*
X134580218Y-111128117D01*
X134558179Y-111123820D01*
X134533270Y-111121484D01*
X134504113Y-111120782D01*
X134459334Y-111122975D01*
X134459334Y-111122975D01*
G37*
X134459334Y-111122975D02*
X134418717Y-111129693D01*
X134381799Y-111141111D01*
X134348118Y-111157402D01*
X134317211Y-111178739D01*
X134294183Y-111199547D01*
X134280551Y-111213934D01*
X134270251Y-111226719D01*
X134261608Y-111240208D01*
X134253586Y-111255412D01*
X134247981Y-111266964D01*
X134243202Y-111277628D01*
X134239185Y-111288011D01*
X134235862Y-111298721D01*
X134233167Y-111310365D01*
X134231036Y-111323550D01*
X134229402Y-111338883D01*
X134228199Y-111356973D01*
X134227361Y-111378427D01*
X134226822Y-111403851D01*
X134226517Y-111433854D01*
X134226378Y-111469042D01*
X134226342Y-111506383D01*
X134226300Y-111667104D01*
X134206457Y-111669329D01*
X134181607Y-111674180D01*
X134161906Y-111682683D01*
X134147198Y-111694999D01*
X134137325Y-111711291D01*
X134132131Y-111731721D01*
X134131190Y-111747300D01*
X134132881Y-111769033D01*
X134138202Y-111786302D01*
X134147528Y-111800093D01*
X134153207Y-111805492D01*
X134159076Y-111810370D01*
X134164421Y-111814363D01*
X134169925Y-111817559D01*
X134176269Y-111820048D01*
X134184137Y-111821917D01*
X134194210Y-111823255D01*
X134207172Y-111824151D01*
X134223704Y-111824694D01*
X134244488Y-111824971D01*
X134270208Y-111825073D01*
X134301545Y-111825087D01*
X134421563Y-111825087D01*
X134440613Y-111815562D01*
X134457518Y-111805145D01*
X134469076Y-111792911D01*
X134476103Y-111777609D01*
X134479417Y-111757987D01*
X134479567Y-111755867D01*
X134479118Y-111731619D01*
X134474207Y-111711716D01*
X134464593Y-111695866D01*
X134450034Y-111683777D01*
X134430290Y-111675159D01*
X134408756Y-111670265D01*
X134385050Y-111666493D01*
X134385050Y-111521826D01*
X134385084Y-111484545D01*
X134385220Y-111453025D01*
X134385516Y-111426677D01*
X134386026Y-111404912D01*
X134386807Y-111387142D01*
X134387914Y-111372778D01*
X134389402Y-111361230D01*
X134391327Y-111351911D01*
X134393745Y-111344230D01*
X134396711Y-111337600D01*
X134400281Y-111331431D01*
X134403486Y-111326612D01*
X134416082Y-111312759D01*
X134433136Y-111300309D01*
X134452757Y-111290544D01*
X134460857Y-111287691D01*
X134470842Y-111285210D01*
X134482770Y-111283549D01*
X134497975Y-111282592D01*
X134517787Y-111282226D01*
X134524750Y-111282214D01*
X134543544Y-111282338D01*
X134557534Y-111282787D01*
X134568265Y-111283747D01*
X134577284Y-111285406D01*
X134586134Y-111287950D01*
X134593572Y-111290545D01*
X134618233Y-111301644D01*
X134643595Y-111317411D01*
X134670315Y-111338289D01*
X134689334Y-111355386D01*
X134718425Y-111382771D01*
X134718425Y-111667925D01*
X134706309Y-111667925D01*
X134691001Y-111668977D01*
X134674093Y-111671773D01*
X134658197Y-111675765D01*
X134645922Y-111680410D01*
X134645501Y-111680623D01*
X134628461Y-111692473D01*
X134616495Y-111707963D01*
X134609502Y-111727280D01*
X134607370Y-111749579D01*
X134609354Y-111771296D01*
X134615517Y-111788681D01*
X134626413Y-111802616D01*
X134642595Y-111813980D01*
X134650203Y-111817788D01*
X134654279Y-111819602D01*
X134658314Y-111821091D01*
X134662954Y-111822291D01*
X134668849Y-111823238D01*
X134676648Y-111823966D01*
X134686998Y-111824513D01*
X134700548Y-111824913D01*
X134717948Y-111825202D01*
X134739844Y-111825416D01*
X134766887Y-111825591D01*
X134794625Y-111825737D01*
X134829312Y-111825860D01*
X134858154Y-111825839D01*
X134881657Y-111825661D01*
X134900327Y-111825315D01*
X134914667Y-111824788D01*
X134925184Y-111824067D01*
X134932381Y-111823141D01*
X134935913Y-111822302D01*
X134957181Y-111813532D01*
X134972852Y-111802343D01*
X134983443Y-111788028D01*
X134989471Y-111769880D01*
X134991455Y-111747192D01*
X134991458Y-111746404D01*
X134988760Y-111724291D01*
X134980745Y-111705437D01*
X134967603Y-111690168D01*
X134953275Y-111680623D01*
X134941222Y-111675962D01*
X134925430Y-111671929D01*
X134908512Y-111669069D01*
X134893078Y-111667927D01*
X134892467Y-111667925D01*
X134880350Y-111667925D01*
X134880350Y-111300917D01*
X134902736Y-111297078D01*
X134916127Y-111294178D01*
X134928872Y-111290416D01*
X134937354Y-111286999D01*
X134953664Y-111275320D01*
X134965603Y-111259629D01*
X134972860Y-111240796D01*
X134975124Y-111219691D01*
X134972086Y-111197183D01*
X134970925Y-111192958D01*
X134962602Y-111175620D01*
X134948753Y-111161216D01*
X134929563Y-111149768D01*
X134924850Y-111147706D01*
X134920152Y-111146062D01*
X134914694Y-111144781D01*
X134907701Y-111143805D01*
X134898400Y-111143079D01*
X134886016Y-111142544D01*
X134869776Y-111142146D01*
X134848903Y-111141826D01*
X134822626Y-111141529D01*
X134816057Y-111141461D01*
X134718425Y-111140461D01*
X134718425Y-111210887D01*
X134698513Y-111193995D01*
X134678406Y-111177685D01*
X134660105Y-111164697D01*
X134641306Y-111153514D01*
X134622412Y-111143908D01*
X134601069Y-111134703D01*
X134580218Y-111128117D01*
X134558179Y-111123820D01*
X134533270Y-111121484D01*
X134504113Y-111120782D01*
X134459334Y-111122975D01*
D11*
G04 #@! TO.C,svg2mod*
G36*
X127883485Y-84610293D02*
X127904975Y-84652111D01*
X127926465Y-84693929D01*
X127947955Y-84735747D01*
X127969445Y-84777565D01*
X127985054Y-84767764D01*
X128026364Y-84746202D01*
X128085098Y-84724639D01*
X128152980Y-84714838D01*
X128200062Y-84720356D01*
X128233422Y-84736328D01*
X128253279Y-84761884D01*
X128259849Y-84796151D01*
X128244458Y-84832198D01*
X128202930Y-84864977D01*
X128142235Y-84896450D01*
X128069344Y-84928576D01*
X127992459Y-84968434D01*
X127922980Y-85024409D01*
X127872668Y-85095195D01*
X127853283Y-85179485D01*
X127882215Y-85317717D01*
X127959281Y-85408904D01*
X128069888Y-85459144D01*
X128199445Y-85474535D01*
X128344320Y-85455296D01*
X128452387Y-85412969D01*
X128519942Y-85370643D01*
X128543283Y-85351404D01*
X128517147Y-85307262D01*
X128491011Y-85263121D01*
X128464874Y-85218980D01*
X128438738Y-85174838D01*
X128417901Y-85190810D01*
X128364394Y-85225949D01*
X128291721Y-85261088D01*
X128213384Y-85277060D01*
X128173091Y-85274991D01*
X128129748Y-85263992D01*
X128095117Y-85236876D01*
X128080960Y-85186454D01*
X128097912Y-85142930D01*
X128143397Y-85106593D01*
X128209355Y-85072434D01*
X128287728Y-85035444D01*
X128361999Y-84989633D01*
X128416667Y-84933803D01*
X128450427Y-84870132D01*
X128461970Y-84800798D01*
X128436088Y-84685326D01*
X128368170Y-84596644D01*
X128272808Y-84539761D01*
X128164596Y-84519687D01*
X128052065Y-84534824D01*
X127963056Y-84565861D01*
X127904540Y-84596462D01*
X127883485Y-84610293D01*
X127883485Y-84610293D01*
G37*
G36*
X128622273Y-85139990D02*
X128684746Y-85289911D01*
X128785771Y-85393222D01*
X128910753Y-85452973D01*
X129045101Y-85472212D01*
X129218690Y-85434750D01*
X129360480Y-85332818D01*
X129456096Y-85182098D01*
X129491162Y-84998273D01*
X129457402Y-84812487D01*
X129363965Y-84661985D01*
X129222611Y-84561142D01*
X129045101Y-84524333D01*
X128932751Y-84535260D01*
X128838043Y-84566442D01*
X128758582Y-84615484D01*
X128691970Y-84679990D01*
X128726238Y-84717742D01*
X128760505Y-84755495D01*
X128794773Y-84793247D01*
X128829041Y-84831000D01*
X128872093Y-84776585D01*
X128920808Y-84740684D01*
X128974751Y-84720900D01*
X129033485Y-84714838D01*
X129123692Y-84737272D01*
X129197563Y-84798475D01*
X129247477Y-84889298D01*
X129265808Y-85000596D01*
X129247477Y-85110187D01*
X129197563Y-85199523D01*
X129123692Y-85259672D01*
X129033485Y-85281707D01*
X128960122Y-85269800D01*
X128896124Y-85235242D01*
X128850857Y-85179775D01*
X128833687Y-85105141D01*
X128885960Y-85105141D01*
X128938233Y-85105141D01*
X128990505Y-85105141D01*
X129042778Y-85105141D01*
X129042778Y-85064485D01*
X129042778Y-85023828D01*
X129042778Y-84983172D01*
X129042778Y-84942515D01*
X128937071Y-84942515D01*
X128831364Y-84942515D01*
X128725657Y-84942515D01*
X128619950Y-84942515D01*
X128619950Y-84991884D01*
X128619950Y-85041252D01*
X128619950Y-85090621D01*
X128619950Y-85139990D01*
X128620531Y-85139990D01*
X128621112Y-85139990D01*
X128621692Y-85139990D01*
X128622273Y-85139990D01*
X128622273Y-85139990D01*
G37*
G36*
X130202071Y-85455949D02*
X130254344Y-85455949D01*
X130306616Y-85455949D01*
X130358889Y-85455949D01*
X130411162Y-85455949D01*
X130411162Y-85226530D01*
X130411162Y-84997111D01*
X130411162Y-84767692D01*
X130411162Y-84538273D01*
X130358889Y-84538273D01*
X130306616Y-84538273D01*
X130254344Y-84538273D01*
X130202071Y-84538273D01*
X130111465Y-84679990D01*
X130020859Y-84821707D01*
X129930253Y-84963424D01*
X129839647Y-85105141D01*
X129839066Y-85105141D01*
X129838485Y-85105141D01*
X129837904Y-85105141D01*
X129837323Y-85105141D01*
X129837323Y-84963424D01*
X129837323Y-84821707D01*
X129837323Y-84679990D01*
X129837323Y-84538273D01*
X129785051Y-84538273D01*
X129732778Y-84538273D01*
X129680505Y-84538273D01*
X129628233Y-84538273D01*
X129628233Y-84767692D01*
X129628233Y-84997111D01*
X129628233Y-85226530D01*
X129628233Y-85455949D01*
X129680505Y-85455949D01*
X129732778Y-85455949D01*
X129785051Y-85455949D01*
X129837323Y-85455949D01*
X129927930Y-85314232D01*
X130018536Y-85172515D01*
X130109142Y-85030798D01*
X130199748Y-84889081D01*
X130200328Y-84889081D01*
X130200909Y-84889081D01*
X130201490Y-84889081D01*
X130202071Y-84889081D01*
X130202071Y-85030798D01*
X130202071Y-85172515D01*
X130202071Y-85314232D01*
X130202071Y-85455949D01*
X130202071Y-85455949D01*
G37*
G36*
X130587727Y-85455949D02*
X130640000Y-85455949D01*
X130692273Y-85455949D01*
X130744546Y-85455949D01*
X130796818Y-85455949D01*
X130796818Y-85226530D01*
X130796818Y-84997111D01*
X130796818Y-84767692D01*
X130796818Y-84538273D01*
X130744546Y-84538273D01*
X130692273Y-84538273D01*
X130640000Y-84538273D01*
X130587727Y-84538273D01*
X130587727Y-84767692D01*
X130587727Y-84997111D01*
X130587727Y-85226530D01*
X130587727Y-85455949D01*
X130587727Y-85455949D01*
G37*
G36*
X131479848Y-85455949D02*
X131532121Y-85455949D01*
X131584394Y-85455949D01*
X131636667Y-85455949D01*
X131688939Y-85455949D01*
X131688939Y-85226530D01*
X131688939Y-84997111D01*
X131688939Y-84767692D01*
X131688939Y-84538273D01*
X131636667Y-84538273D01*
X131584394Y-84538273D01*
X131532121Y-84538273D01*
X131479848Y-84538273D01*
X131479848Y-84630040D01*
X131479848Y-84721808D01*
X131479848Y-84813576D01*
X131479848Y-84905343D01*
X131406086Y-84905343D01*
X131332323Y-84905343D01*
X131258561Y-84905343D01*
X131184798Y-84905343D01*
X131184798Y-84813576D01*
X131184798Y-84721808D01*
X131184798Y-84630040D01*
X131184798Y-84538273D01*
X131132525Y-84538273D01*
X131080253Y-84538273D01*
X131027980Y-84538273D01*
X130975707Y-84538273D01*
X130975707Y-84767692D01*
X130975707Y-84997111D01*
X130975707Y-85226530D01*
X130975707Y-85455949D01*
X131027980Y-85455949D01*
X131080253Y-85455949D01*
X131132525Y-85455949D01*
X131184798Y-85455949D01*
X131184798Y-85363601D01*
X131184798Y-85271252D01*
X131184798Y-85178904D01*
X131184798Y-85086555D01*
X131258561Y-85086555D01*
X131332323Y-85086555D01*
X131406086Y-85086555D01*
X131479848Y-85086555D01*
X131479848Y-85178904D01*
X131479848Y-85271252D01*
X131479848Y-85363601D01*
X131479848Y-85455949D01*
X131479848Y-85455949D01*
G37*
G36*
X132453283Y-84538273D02*
X132292399Y-84538273D01*
X132131515Y-84538273D01*
X131970631Y-84538273D01*
X131809747Y-84538273D01*
X131809747Y-84584156D01*
X131809747Y-84630040D01*
X131809747Y-84675924D01*
X131809747Y-84721808D01*
X131864343Y-84721808D01*
X131918939Y-84721808D01*
X131973535Y-84721808D01*
X132028131Y-84721808D01*
X132028131Y-84904762D01*
X132028131Y-85087717D01*
X132028131Y-85270671D01*
X132028131Y-85453626D01*
X132080404Y-85453626D01*
X132132677Y-85453626D01*
X132184949Y-85453626D01*
X132237222Y-85453626D01*
X132237222Y-85270671D01*
X132237222Y-85087717D01*
X132237222Y-84904762D01*
X132237222Y-84721808D01*
X132291818Y-84721808D01*
X132346414Y-84721808D01*
X132401010Y-84721808D01*
X132455606Y-84721808D01*
X132455025Y-84675924D01*
X132454444Y-84630040D01*
X132453863Y-84584156D01*
X132453283Y-84538273D01*
X132453283Y-84538273D01*
G37*
G36*
X132855202Y-84724131D02*
X132933611Y-84724131D01*
X133012020Y-84724131D01*
X133090429Y-84724131D01*
X133168838Y-84724131D01*
X133168838Y-84769434D01*
X133168838Y-84814737D01*
X133168838Y-84860040D01*
X133168838Y-84905343D01*
X133093333Y-84905343D01*
X133017828Y-84905343D01*
X132942323Y-84905343D01*
X132866818Y-84905343D01*
X132866818Y-84951227D01*
X132866818Y-84997111D01*
X132866818Y-85042995D01*
X132866818Y-85088879D01*
X132942323Y-85088879D01*
X133017828Y-85088879D01*
X133093333Y-85088879D01*
X133168838Y-85088879D01*
X133168838Y-85134762D01*
X133168838Y-85180646D01*
X133168838Y-85226530D01*
X133168838Y-85272414D01*
X133089848Y-85272414D01*
X133010858Y-85272414D01*
X132931868Y-85272414D01*
X132852879Y-85272414D01*
X132852879Y-85318298D01*
X132852879Y-85364182D01*
X132852879Y-85410065D01*
X132852879Y-85455949D01*
X132984722Y-85455949D01*
X133116565Y-85455949D01*
X133248409Y-85455949D01*
X133380252Y-85455949D01*
X133380252Y-85226530D01*
X133380252Y-84997111D01*
X133380252Y-84767692D01*
X133380252Y-84538273D01*
X133248990Y-84538273D01*
X133117727Y-84538273D01*
X132986464Y-84538273D01*
X132855202Y-84538273D01*
X132855202Y-84584737D01*
X132855202Y-84631202D01*
X132855202Y-84677667D01*
X132855202Y-84724131D01*
X132855202Y-84724131D01*
G37*
G36*
X134060959Y-85455949D02*
X134113232Y-85455949D01*
X134165505Y-85455949D01*
X134217777Y-85455949D01*
X134270050Y-85455949D01*
X134270050Y-85226530D01*
X134270050Y-84997111D01*
X134270050Y-84767692D01*
X134270050Y-84538273D01*
X134217777Y-84538273D01*
X134165505Y-84538273D01*
X134113232Y-84538273D01*
X134060959Y-84538273D01*
X134060959Y-84630040D01*
X134060959Y-84721808D01*
X134060959Y-84813576D01*
X134060959Y-84905343D01*
X133987197Y-84905343D01*
X133913434Y-84905343D01*
X133839671Y-84905343D01*
X133765909Y-84905343D01*
X133765909Y-84813576D01*
X133765909Y-84721808D01*
X133765909Y-84630040D01*
X133765909Y-84538273D01*
X133713636Y-84538273D01*
X133661363Y-84538273D01*
X133609091Y-84538273D01*
X133556818Y-84538273D01*
X133556818Y-84767692D01*
X133556818Y-84997111D01*
X133556818Y-85226530D01*
X133556818Y-85455949D01*
X133609091Y-85455949D01*
X133661363Y-85455949D01*
X133713636Y-85455949D01*
X133765909Y-85455949D01*
X133765909Y-85363601D01*
X133765909Y-85271252D01*
X133765909Y-85178904D01*
X133765909Y-85086555D01*
X133839671Y-85086555D01*
X133913434Y-85086555D01*
X133987197Y-85086555D01*
X134060959Y-85086555D01*
X134060959Y-85178904D01*
X134060959Y-85271252D01*
X134060959Y-85363601D01*
X134060959Y-85455949D01*
X134060959Y-85455949D01*
G37*
G36*
X135034393Y-84538273D02*
X134873510Y-84538273D01*
X134712626Y-84538273D01*
X134551742Y-84538273D01*
X134390858Y-84538273D01*
X134390858Y-84584156D01*
X134390858Y-84630040D01*
X134390858Y-84675924D01*
X134390858Y-84721808D01*
X134445454Y-84721808D01*
X134500050Y-84721808D01*
X134554646Y-84721808D01*
X134609242Y-84721808D01*
X134609242Y-84904762D01*
X134609242Y-85087717D01*
X134609242Y-85270671D01*
X134609242Y-85453626D01*
X134661515Y-85453626D01*
X134713787Y-85453626D01*
X134766060Y-85453626D01*
X134818333Y-85453626D01*
X134818333Y-85270671D01*
X134818333Y-85087717D01*
X134818333Y-84904762D01*
X134818333Y-84721808D01*
X134872929Y-84721808D01*
X134927525Y-84721808D01*
X134982121Y-84721808D01*
X135036717Y-84721808D01*
X135036136Y-84675924D01*
X135035555Y-84630040D01*
X135034974Y-84584156D01*
X135034393Y-84538273D01*
X135034393Y-84538273D01*
G37*
G36*
X128078637Y-86324838D02*
X128129748Y-86266176D01*
X128180859Y-86207515D01*
X128231970Y-86148853D01*
X128283081Y-86090192D01*
X128283081Y-86148853D01*
X128283081Y-86207515D01*
X128283081Y-86266176D01*
X128283081Y-86324838D01*
X128314445Y-86324838D01*
X128345809Y-86324838D01*
X128377172Y-86324838D01*
X128408536Y-86324838D01*
X128408536Y-86187187D01*
X128408536Y-86049535D01*
X128408536Y-85911884D01*
X128408536Y-85774232D01*
X128377172Y-85774232D01*
X128345809Y-85774232D01*
X128314445Y-85774232D01*
X128283081Y-85774232D01*
X128283081Y-85831151D01*
X128283081Y-85888070D01*
X128283081Y-85944990D01*
X128283081Y-86001909D01*
X128235455Y-85944990D01*
X128187829Y-85888070D01*
X128140202Y-85831151D01*
X128092576Y-85774232D01*
X128054243Y-85774232D01*
X128015910Y-85774232D01*
X127977576Y-85774232D01*
X127939243Y-85774232D01*
X127995581Y-85839283D01*
X128051920Y-85904333D01*
X128108258Y-85969384D01*
X128164596Y-86034434D01*
X128100708Y-86107035D01*
X128036819Y-86179636D01*
X127972930Y-86252237D01*
X127909041Y-86324838D01*
X127951440Y-86324838D01*
X127993839Y-86324838D01*
X128036238Y-86324838D01*
X128078637Y-86324838D01*
X128078637Y-86324838D01*
G37*
G36*
X129256515Y-85771909D02*
X129221812Y-85901828D01*
X129246061Y-85879649D01*
X129279022Y-85870973D01*
X129314596Y-85869485D01*
X129318081Y-85869485D01*
X129321566Y-85869485D01*
X129325051Y-85869485D01*
X129328536Y-85869485D01*
X129328536Y-85905495D01*
X129328536Y-85941505D01*
X129328536Y-85977515D01*
X129328536Y-86013525D01*
X129325051Y-86013525D01*
X129321566Y-86013525D01*
X129318081Y-86013525D01*
X129314596Y-86013525D01*
X129314596Y-86014687D01*
X129314596Y-86015848D01*
X129314596Y-86017010D01*
X129362803Y-86018752D01*
X129326249Y-86017264D01*
X129293397Y-86008588D01*
X129269693Y-85986408D01*
X129212374Y-85943828D01*
X129221812Y-85901828D01*
X129256515Y-85771909D01*
X129185076Y-85782327D01*
X129127576Y-85813437D01*
X129089243Y-85865020D01*
X129075303Y-85936858D01*
X129083616Y-85993233D01*
X129106957Y-86039371D01*
X129142931Y-86073747D01*
X129189142Y-86094838D01*
X129141515Y-86152338D01*
X129093889Y-86209838D01*
X129046263Y-86267338D01*
X128998637Y-86324838D01*
X129038132Y-86324838D01*
X129077627Y-86324838D01*
X129117122Y-86324838D01*
X129156616Y-86324838D01*
X129198435Y-86270242D01*
X129240253Y-86215646D01*
X129282071Y-86161050D01*
X129323889Y-86106454D01*
X129323889Y-86161050D01*
X129323889Y-86215646D01*
X129323889Y-86270242D01*
X129323889Y-86324838D01*
X129355253Y-86324838D01*
X129386616Y-86324838D01*
X129417980Y-86324838D01*
X129449344Y-86324838D01*
X129449344Y-86187187D01*
X129449344Y-86049535D01*
X129449344Y-85911884D01*
X129449344Y-85774232D01*
X129401137Y-85773651D01*
X129352930Y-85773070D01*
X129304723Y-85772490D01*
X129256515Y-85771909D01*
X129256515Y-85771909D01*
G37*
G36*
X130355404Y-85762616D02*
X130248826Y-85933954D01*
X130293076Y-85895766D01*
X130355404Y-85881101D01*
X130418712Y-85895113D01*
X130462854Y-85932212D01*
X130488700Y-85984993D01*
X130497121Y-86046050D01*
X130489353Y-86107108D01*
X130464596Y-86159889D01*
X130420672Y-86196988D01*
X130355404Y-86211000D01*
X130291116Y-86196988D01*
X130247083Y-86159889D01*
X130221782Y-86107108D01*
X130213687Y-86046050D01*
X130222436Y-85986953D01*
X130248826Y-85933954D01*
X130355404Y-85762616D01*
X130247156Y-85784687D01*
X130158510Y-85845091D01*
X130098614Y-85935116D01*
X130076616Y-86046050D01*
X130097634Y-86159308D01*
X130155897Y-86249914D01*
X130244216Y-86310027D01*
X130355404Y-86331808D01*
X130468553Y-86309701D01*
X130556654Y-86249043D01*
X130613828Y-86158328D01*
X130634192Y-86046050D01*
X130612194Y-85934136D01*
X130552298Y-85844219D01*
X130463652Y-85784360D01*
X130355404Y-85762616D01*
X130355404Y-85762616D01*
G37*
G36*
X131570455Y-86015848D02*
X131592525Y-86093096D01*
X131614596Y-86170343D01*
X131636667Y-86247591D01*
X131658737Y-86324838D01*
X131693586Y-86324838D01*
X131728434Y-86324838D01*
X131763283Y-86324838D01*
X131798131Y-86324838D01*
X131837045Y-86187187D01*
X131875960Y-86049535D01*
X131914874Y-85911884D01*
X131953788Y-85774232D01*
X131919520Y-85774232D01*
X131885252Y-85774232D01*
X131850985Y-85774232D01*
X131816717Y-85774232D01*
X131793485Y-85869485D01*
X131770252Y-85964737D01*
X131747020Y-86059990D01*
X131723788Y-86155242D01*
X131723207Y-86155242D01*
X131722626Y-86155242D01*
X131722045Y-86155242D01*
X131721465Y-86155242D01*
X131696490Y-86059990D01*
X131671515Y-85964737D01*
X131646540Y-85869485D01*
X131621566Y-85774232D01*
X131598333Y-85774232D01*
X131575101Y-85774232D01*
X131551869Y-85774232D01*
X131528636Y-85774232D01*
X131503662Y-85869485D01*
X131478687Y-85964737D01*
X131453712Y-86059990D01*
X131428737Y-86155242D01*
X131426414Y-86155242D01*
X131424091Y-86155242D01*
X131421768Y-86155242D01*
X131419444Y-86155242D01*
X131396212Y-86059990D01*
X131372980Y-85964737D01*
X131349747Y-85869485D01*
X131326515Y-85774232D01*
X131291667Y-85774232D01*
X131256818Y-85774232D01*
X131221970Y-85774232D01*
X131187121Y-85774232D01*
X131226035Y-85911884D01*
X131264950Y-86049535D01*
X131303864Y-86187187D01*
X131342778Y-86324838D01*
X131377626Y-86324838D01*
X131412475Y-86324838D01*
X131447323Y-86324838D01*
X131482172Y-86324838D01*
X131504242Y-86247591D01*
X131526313Y-86170343D01*
X131548384Y-86093096D01*
X131570455Y-86015848D01*
X131570455Y-86015848D01*
G37*
G36*
X132910959Y-85771909D02*
X132813964Y-85771909D01*
X132716970Y-85771909D01*
X132619975Y-85771909D01*
X132522980Y-85771909D01*
X132522980Y-85799788D01*
X132522980Y-85827666D01*
X132522980Y-85855545D01*
X132522980Y-85883424D01*
X132555505Y-85883424D01*
X132588030Y-85883424D01*
X132620555Y-85883424D01*
X132653081Y-85883424D01*
X132653081Y-85993197D01*
X132653081Y-86102969D01*
X132653081Y-86212742D01*
X132653081Y-86322515D01*
X132684444Y-86322515D01*
X132715808Y-86322515D01*
X132747172Y-86322515D01*
X132778535Y-86322515D01*
X132778535Y-86212742D01*
X132778535Y-86102969D01*
X132778535Y-85993197D01*
X132778535Y-85883424D01*
X132811060Y-85883424D01*
X132843586Y-85883424D01*
X132876111Y-85883424D01*
X132908636Y-85883424D01*
X132909217Y-85855545D01*
X132909798Y-85827666D01*
X132910379Y-85799788D01*
X132910959Y-85771909D01*
X132910959Y-85771909D01*
G37*
G36*
X133515000Y-85881101D02*
X133562626Y-85881101D01*
X133610252Y-85881101D01*
X133657878Y-85881101D01*
X133705505Y-85881101D01*
X133705505Y-85907818D01*
X133705505Y-85934535D01*
X133705505Y-85961252D01*
X133705505Y-85987969D01*
X133660202Y-85987969D01*
X133614899Y-85987969D01*
X133569596Y-85987969D01*
X133524293Y-85987969D01*
X133524293Y-86015848D01*
X133524293Y-86043727D01*
X133524293Y-86071606D01*
X133524293Y-86099484D01*
X133569596Y-86099484D01*
X133614899Y-86099484D01*
X133660202Y-86099484D01*
X133705505Y-86099484D01*
X133705505Y-86127363D01*
X133705505Y-86155242D01*
X133705505Y-86183121D01*
X133705505Y-86211000D01*
X133657878Y-86211000D01*
X133610252Y-86211000D01*
X133562626Y-86211000D01*
X133515000Y-86211000D01*
X133515000Y-86238878D01*
X133515000Y-86266757D01*
X133515000Y-86294636D01*
X133515000Y-86322515D01*
X133593990Y-86322515D01*
X133672979Y-86322515D01*
X133751969Y-86322515D01*
X133830959Y-86322515D01*
X133830959Y-86184863D01*
X133830959Y-86047212D01*
X133830959Y-85909560D01*
X133830959Y-85771909D01*
X133751969Y-85771909D01*
X133672979Y-85771909D01*
X133593990Y-85771909D01*
X133515000Y-85771909D01*
X133515000Y-85799207D01*
X133515000Y-85826505D01*
X133515000Y-85853803D01*
X133515000Y-85881101D01*
X133515000Y-85881101D01*
G37*
G36*
X134827626Y-86324838D02*
X134858989Y-86324838D01*
X134890353Y-86324838D01*
X134921717Y-86324838D01*
X134953080Y-86324838D01*
X134953080Y-86187187D01*
X134953080Y-86049535D01*
X134953080Y-85911884D01*
X134953080Y-85774232D01*
X134921717Y-85774232D01*
X134890353Y-85774232D01*
X134858989Y-85774232D01*
X134827626Y-85774232D01*
X134772449Y-85860192D01*
X134717272Y-85946151D01*
X134662096Y-86032111D01*
X134606919Y-86118070D01*
X134606919Y-86032111D01*
X134606919Y-85946151D01*
X134606919Y-85860192D01*
X134606919Y-85774232D01*
X134575555Y-85774232D01*
X134544191Y-85774232D01*
X134512828Y-85774232D01*
X134481464Y-85774232D01*
X134481464Y-85911884D01*
X134481464Y-86049535D01*
X134481464Y-86187187D01*
X134481464Y-86324838D01*
X134512828Y-86324838D01*
X134544191Y-86324838D01*
X134575555Y-86324838D01*
X134606919Y-86324838D01*
X134662096Y-86238878D01*
X134717272Y-86152919D01*
X134772449Y-86066959D01*
X134827626Y-85981000D01*
X134827626Y-86066959D01*
X134827626Y-86152919D01*
X134827626Y-86238878D01*
X134827626Y-86324838D01*
X134827626Y-86324838D01*
G37*
G36*
X128529344Y-83355748D02*
X128202603Y-81968851D01*
X128167210Y-82149990D01*
X128163616Y-82334614D01*
X128192475Y-82517061D01*
X128193165Y-82567409D01*
X128173599Y-82613184D01*
X128137916Y-82648069D01*
X128090253Y-82665748D01*
X128042772Y-82669741D01*
X127997905Y-82655874D01*
X127960878Y-82627196D01*
X127936920Y-82586758D01*
X127898187Y-82299947D01*
X127923271Y-82010306D01*
X128009775Y-81732426D01*
X128155303Y-81480899D01*
X128155304Y-81480900D01*
X128302902Y-81313808D01*
X128477071Y-81173942D01*
X128672150Y-81065005D01*
X128882475Y-80990697D01*
X128930827Y-80990516D01*
X128974824Y-81008412D01*
X129009236Y-81040683D01*
X129028839Y-81083627D01*
X129035990Y-81134520D01*
X129021579Y-81184106D01*
X128989308Y-81224110D01*
X128942879Y-81246253D01*
X128733716Y-81326731D01*
X128546768Y-81449245D01*
X128389442Y-81607915D01*
X128269142Y-81796859D01*
X128202603Y-81968851D01*
X128529344Y-83355748D01*
X128529344Y-82542616D01*
X128481173Y-82546537D01*
X128434963Y-82532162D01*
X128397029Y-82502105D01*
X128373687Y-82458980D01*
X128345954Y-82277514D01*
X128359167Y-82094523D01*
X128411585Y-81918937D01*
X128501465Y-81759687D01*
X128598859Y-81648898D01*
X128714331Y-81556404D01*
X128844178Y-81486562D01*
X128984697Y-81443728D01*
X129053741Y-81453565D01*
X129104925Y-81499776D01*
X129129101Y-81565588D01*
X129117122Y-81634233D01*
X129101295Y-81659861D01*
X129079369Y-81680697D01*
X129053087Y-81696306D01*
X129024192Y-81706253D01*
X128915109Y-81747599D01*
X128817134Y-81810508D01*
X128734405Y-81892148D01*
X128671061Y-81989687D01*
X128633163Y-82085448D01*
X128613561Y-82186000D01*
X128612254Y-82288295D01*
X128629243Y-82389283D01*
X128631276Y-82440031D01*
X128612399Y-82486859D01*
X128576970Y-82523232D01*
X128529344Y-82542616D01*
X128529344Y-83355748D01*
X128531740Y-83502910D01*
X128562450Y-83642667D01*
X128568214Y-83659464D01*
X128574398Y-83676091D01*
X128580999Y-83692544D01*
X128588015Y-83708815D01*
X128595442Y-83724899D01*
X128603278Y-83740790D01*
X128611521Y-83756482D01*
X128620168Y-83771969D01*
X128629216Y-83787245D01*
X128638664Y-83802304D01*
X128648508Y-83817140D01*
X128658746Y-83831747D01*
X128669375Y-83846119D01*
X128680394Y-83860251D01*
X128691798Y-83874135D01*
X128703586Y-83887768D01*
X128716633Y-83901938D01*
X128730066Y-83915697D01*
X128743879Y-83929043D01*
X128758064Y-83941973D01*
X128772613Y-83954485D01*
X128787519Y-83966575D01*
X128802773Y-83978241D01*
X128818368Y-83989482D01*
X128834297Y-84000293D01*
X128850552Y-84010673D01*
X128867125Y-84020619D01*
X128884009Y-84030129D01*
X128901195Y-84039200D01*
X128918677Y-84047829D01*
X128936446Y-84056014D01*
X128954495Y-84063752D01*
X128972817Y-84071042D01*
X128991403Y-84077879D01*
X129010246Y-84084262D01*
X129029338Y-84090188D01*
X129048672Y-84095655D01*
X129068239Y-84100660D01*
X129088034Y-84105200D01*
X129108046Y-84109273D01*
X129128270Y-84112877D01*
X129148697Y-84116008D01*
X129169320Y-84118665D01*
X129190131Y-84120844D01*
X129211122Y-84122544D01*
X129232286Y-84123761D01*
X129253615Y-84124492D01*
X129275101Y-84124738D01*
X129430685Y-84124738D01*
X129586269Y-84124738D01*
X129741853Y-84124738D01*
X129897437Y-84124738D01*
X130053021Y-84124738D01*
X130208605Y-84124738D01*
X130364189Y-84124738D01*
X130519773Y-84124738D01*
X130675357Y-84124738D01*
X130830941Y-84124738D01*
X130986525Y-84124738D01*
X131142109Y-84124738D01*
X131297693Y-84124738D01*
X131453277Y-84124738D01*
X131608860Y-84124738D01*
X131764444Y-84124738D01*
X131920028Y-84124738D01*
X132075612Y-84124738D01*
X132231196Y-84124738D01*
X132386780Y-84124738D01*
X132542364Y-84124738D01*
X132697948Y-84124738D01*
X132853532Y-84124738D01*
X133009116Y-84124738D01*
X133164700Y-84124738D01*
X133320284Y-84124738D01*
X133475868Y-84124738D01*
X133631452Y-84124738D01*
X133787036Y-84124738D01*
X133942620Y-84124738D01*
X134098204Y-84124738D01*
X134253787Y-84124738D01*
X134254006Y-84124738D01*
X134254223Y-84124738D01*
X134254441Y-84124738D01*
X134254660Y-84124738D01*
X134254878Y-84124738D01*
X134255097Y-84124738D01*
X134255314Y-84124738D01*
X134255532Y-84124738D01*
X134255751Y-84124738D01*
X134255969Y-84124738D01*
X134256187Y-84124738D01*
X134256405Y-84124738D01*
X134256623Y-84124738D01*
X134256841Y-84124738D01*
X134257060Y-84124738D01*
X134257278Y-84124738D01*
X134257495Y-84124738D01*
X134257714Y-84124738D01*
X134257932Y-84124738D01*
X134258151Y-84124738D01*
X134258369Y-84124738D01*
X134258586Y-84124738D01*
X134258805Y-84124738D01*
X134259023Y-84124738D01*
X134259241Y-84124738D01*
X134259460Y-84124738D01*
X134259677Y-84124738D01*
X134259895Y-84124738D01*
X134260114Y-84124738D01*
X134260332Y-84124738D01*
X134260550Y-84124738D01*
X134260768Y-84124738D01*
X134260837Y-84124738D01*
X134260907Y-84124738D01*
X134260977Y-84124738D01*
X134261046Y-84124738D01*
X134261116Y-84124738D01*
X134261186Y-84124738D01*
X134261256Y-84124738D01*
X134261325Y-84124738D01*
X134261395Y-84124738D01*
X134261465Y-84124738D01*
X134261534Y-84124738D01*
X134261604Y-84124738D01*
X134261674Y-84124738D01*
X134261743Y-84124738D01*
X134261813Y-84124738D01*
X134261883Y-84124738D01*
X134261952Y-84124738D01*
X134262022Y-84124738D01*
X134262092Y-84124738D01*
X134262162Y-84124738D01*
X134262231Y-84124738D01*
X134262301Y-84124738D01*
X134262371Y-84124738D01*
X134262440Y-84124738D01*
X134262510Y-84124738D01*
X134262580Y-84124738D01*
X134262649Y-84124738D01*
X134262719Y-84124738D01*
X134262789Y-84124738D01*
X134262859Y-84124738D01*
X134262928Y-84124738D01*
X134262998Y-84124738D01*
X134263143Y-84124738D01*
X134263288Y-84124738D01*
X134263434Y-84124738D01*
X134263579Y-84124738D01*
X134263724Y-84124738D01*
X134263869Y-84124738D01*
X134264014Y-84124738D01*
X134264160Y-84124738D01*
X134264305Y-84124738D01*
X134264450Y-84124738D01*
X134264595Y-84124738D01*
X134264740Y-84124738D01*
X134264886Y-84124738D01*
X134265031Y-84124738D01*
X134265176Y-84124738D01*
X134265321Y-84124738D01*
X134265466Y-84124738D01*
X134265612Y-84124738D01*
X134265757Y-84124738D01*
X134265902Y-84124738D01*
X134266047Y-84124738D01*
X134266192Y-84124738D01*
X134266338Y-84124738D01*
X134266483Y-84124738D01*
X134266628Y-84124738D01*
X134266773Y-84124738D01*
X134266918Y-84124738D01*
X134267064Y-84124738D01*
X134267209Y-84124738D01*
X134267354Y-84124738D01*
X134267499Y-84124738D01*
X134267727Y-84124738D01*
X134286641Y-84124296D01*
X134305479Y-84123407D01*
X134324237Y-84122075D01*
X134342905Y-84120300D01*
X134361479Y-84118087D01*
X134379950Y-84115437D01*
X134398312Y-84112354D01*
X134416559Y-84108838D01*
X134434683Y-84104895D01*
X134452678Y-84100525D01*
X134470537Y-84095731D01*
X134488252Y-84090516D01*
X134505818Y-84084882D01*
X134523228Y-84078833D01*
X134540474Y-84072370D01*
X134557550Y-84065496D01*
X134574449Y-84058213D01*
X134591164Y-84050525D01*
X134607689Y-84042434D01*
X134624016Y-84033941D01*
X134640139Y-84025051D01*
X134656052Y-84015765D01*
X134671746Y-84006086D01*
X134687215Y-83996017D01*
X134702454Y-83985559D01*
X134717454Y-83974716D01*
X134732209Y-83963490D01*
X134746712Y-83951884D01*
X134760956Y-83939900D01*
X134774936Y-83927541D01*
X134788642Y-83914810D01*
X134802070Y-83901707D01*
X134816023Y-83887619D01*
X134829566Y-83873239D01*
X134842696Y-83858574D01*
X134855414Y-83843631D01*
X134867716Y-83828417D01*
X134879601Y-83812940D01*
X134891068Y-83797207D01*
X134902114Y-83781226D01*
X134912739Y-83765002D01*
X134922940Y-83748544D01*
X134932715Y-83731859D01*
X134942063Y-83714955D01*
X134950983Y-83697837D01*
X134959472Y-83680514D01*
X134967528Y-83662993D01*
X134975151Y-83645280D01*
X135020309Y-83497573D01*
X135036717Y-83341808D01*
X135024524Y-83198417D01*
X134989272Y-83064146D01*
X134932947Y-82941146D01*
X134857537Y-82831568D01*
X134765030Y-82737564D01*
X134657413Y-82661283D01*
X134536673Y-82604876D01*
X134404798Y-82570495D01*
X134375725Y-82450781D01*
X134326425Y-82338499D01*
X134258883Y-82235419D01*
X134175088Y-82143311D01*
X134077027Y-82063944D01*
X133966687Y-81999089D01*
X133846056Y-81950514D01*
X133717121Y-81919990D01*
X133707329Y-81871456D01*
X133693671Y-81823576D01*
X133676201Y-81776567D01*
X133654974Y-81730647D01*
X133630045Y-81686033D01*
X133601468Y-81642945D01*
X133569296Y-81601599D01*
X133533586Y-81562212D01*
X133477265Y-81509540D01*
X133416698Y-81463185D01*
X133285000Y-81390293D01*
X133142847Y-81345281D01*
X132994596Y-81329889D01*
X132808411Y-81354937D01*
X132722002Y-81385021D01*
X132641174Y-81425723D01*
X132566772Y-81476226D01*
X132499638Y-81535713D01*
X132440618Y-81603368D01*
X132390555Y-81678374D01*
X132322737Y-81495229D01*
X132227421Y-81327493D01*
X132107384Y-81177944D01*
X131965404Y-81049359D01*
X131804257Y-80944514D01*
X131626720Y-80866187D01*
X131435571Y-80817154D01*
X131233586Y-80800192D01*
X131013246Y-80820493D01*
X130806002Y-80878964D01*
X130615584Y-80971957D01*
X130445720Y-81095824D01*
X130300141Y-81246915D01*
X130182578Y-81421584D01*
X130096759Y-81616182D01*
X130046414Y-81827061D01*
X129928864Y-81754129D01*
X129804290Y-81704474D01*
X129543435Y-81675760D01*
X129282579Y-81742444D01*
X129040455Y-81906051D01*
X129048586Y-81899081D01*
X129056718Y-81892111D01*
X129064849Y-81885142D01*
X129072980Y-81878172D01*
X128920409Y-82035861D01*
X128821200Y-82209233D01*
X128769472Y-82387831D01*
X128759344Y-82561202D01*
X128771505Y-82657398D01*
X128797387Y-82747061D01*
X128836773Y-82829753D01*
X128889445Y-82905040D01*
X128834377Y-82927656D01*
X128783447Y-82957023D01*
X128735567Y-82992924D01*
X128689647Y-83035141D01*
X128631965Y-83101644D01*
X128585392Y-83175116D01*
X128551451Y-83254687D01*
X128531667Y-83339485D01*
X128531632Y-83343006D01*
X128531378Y-83346745D01*
X128530688Y-83350919D01*
X128529345Y-83355748D01*
X128529345Y-83352154D01*
X128529345Y-83351392D01*
X128529345Y-83352807D01*
X128529345Y-83355748D01*
X128529344Y-83355748D01*
X128529344Y-83355748D01*
G37*
G04 #@! TD*
D12*
G04 #@! TO.P,A2,5*
G04 #@! TO.N,/GND*
X143129000Y-82448400D03*
G04 #@! TO.P,A2,4*
X148209000Y-82448400D03*
G04 #@! TD*
D13*
G04 #@! TO.P,P1,1*
G04 #@! TO.N,/+5V*
X151157671Y-105600707D03*
D14*
G04 #@! TO.P,P1,2*
G04 #@! TO.N,/GND*
X151157671Y-103060707D03*
G04 #@! TO.P,P1,3*
G04 #@! TO.N,/D4*
X151157671Y-100520707D03*
G04 #@! TO.P,P1,4*
G04 #@! TO.N,/D3*
X151157671Y-97980707D03*
G04 #@! TO.P,P1,5*
G04 #@! TO.N,/D2*
X151157671Y-95440707D03*
G04 #@! TO.P,P1,6*
G04 #@! TO.N,/D1*
X151157671Y-92900707D03*
G04 #@! TO.P,P1,7*
G04 #@! TO.N,/RX*
X151157671Y-90360707D03*
G04 #@! TO.P,P1,8*
G04 #@! TO.N,/TX*
X151157671Y-87820707D03*
G04 #@! TD*
D13*
G04 #@! TO.P,P2,1*
G04 #@! TO.N,/+3.3V*
X128297671Y-105600707D03*
D14*
G04 #@! TO.P,P2,2*
G04 #@! TO.N,/D8*
X128297671Y-103060707D03*
G04 #@! TO.P,P2,3*
G04 #@! TO.N,/D7*
X128297671Y-100520707D03*
G04 #@! TO.P,P2,4*
G04 #@! TO.N,/D6*
X128297671Y-97980707D03*
G04 #@! TO.P,P2,5*
G04 #@! TO.N,/D5*
X128297671Y-95440707D03*
G04 #@! TO.P,P2,6*
G04 #@! TO.N,/D0*
X128297671Y-92900707D03*
G04 #@! TO.P,P2,7*
G04 #@! TO.N,/A0*
X128297671Y-90360707D03*
G04 #@! TO.P,P2,8*
G04 #@! TO.N,/RST*
X128297671Y-87820707D03*
G04 #@! TD*
D15*
G04 #@! TO.P,J1,1*
G04 #@! TO.N,/G2*
X143560800Y-110896400D03*
D16*
G04 #@! TO.P,J1,2*
G04 #@! TO.N,/G3*
X146100800Y-110896400D03*
G04 #@! TO.P,J1,3*
G04 #@! TO.N,/G4*
X148640800Y-110896400D03*
G04 #@! TO.P,J1,4*
G04 #@! TO.N,/G5*
X151180800Y-110896400D03*
G04 #@! TD*
G04 #@! TO.P,J2,1*
G04 #@! TO.N,Net-(A2-Pad1)*
X145669000Y-84836000D03*
G04 #@! TD*
D17*
G04 #@! TO.N,/GND*
X138303000Y-82423000D03*
X132334000Y-103378000D03*
X141986000Y-106299000D03*
X139065000Y-89535000D03*
X144907000Y-109474000D03*
X150749000Y-82423000D03*
X150749000Y-84201000D03*
X148209000Y-85852000D03*
X148209000Y-87503000D03*
X149860000Y-85852000D03*
X140716000Y-83312000D03*
X140716000Y-81407000D03*
X142240000Y-85471000D03*
X140716000Y-84963000D03*
X148209000Y-89281000D03*
X146431000Y-89408000D03*
X144907000Y-89408000D03*
X132334000Y-89662000D03*
G04 #@! TO.N,/D2*
X134366000Y-87376000D03*
G04 #@! TO.N,/D1*
X136432456Y-87263544D03*
G04 #@! TO.N,/D7*
X136319000Y-103377000D03*
G04 #@! TO.N,/D6*
X134319000Y-103377000D03*
G04 #@! TO.N,/D5*
X138254999Y-103441001D03*
G04 #@! TO.N,/D0*
X140319000Y-103377000D03*
G04 #@! TO.N,/RST*
X142319000Y-103377000D03*
G04 #@! TO.N,/G2*
X132334000Y-87376000D03*
G04 #@! TO.N,/G4*
X141605000Y-95504008D03*
G04 #@! TD*
D18*
G04 #@! TO.N,/D2*
X134708899Y-87718899D02*
X134366000Y-87376000D01*
X134708899Y-88607899D02*
X134708899Y-87718899D01*
X148736011Y-93364011D02*
X139465011Y-93364011D01*
X139465011Y-93364011D02*
X134708899Y-88607899D01*
X151157671Y-95440707D02*
X150812707Y-95440707D01*
X150812707Y-95440707D02*
X148736011Y-93364011D01*
G04 #@! TO.N,/D1*
X136432456Y-89315456D02*
X136432456Y-87263544D01*
X139827000Y-92710000D02*
X136432456Y-89315456D01*
X151157671Y-92900707D02*
X150966964Y-92710000D01*
X150966964Y-92710000D02*
X139827000Y-92710000D01*
G04 #@! TO.N,/D7*
X128297671Y-100520707D02*
X129095707Y-100520707D01*
X129095707Y-100520707D02*
X130683000Y-102108000D01*
X130683000Y-104521000D02*
X131572000Y-105410000D01*
X136319000Y-104981000D02*
X136319000Y-103377000D01*
X130683000Y-102108000D02*
X130683000Y-104521000D01*
X131572000Y-105410000D02*
X135890000Y-105410000D01*
X135890000Y-105410000D02*
X136319000Y-104981000D01*
G04 #@! TO.N,/D6*
X134319000Y-100791000D02*
X134319000Y-103377000D01*
X128297671Y-97980707D02*
X131508707Y-97980707D01*
X131508707Y-97980707D02*
X134319000Y-100791000D01*
G04 #@! TO.N,/D5*
X138303000Y-103393000D02*
X138254999Y-103441001D01*
X138303000Y-100076000D02*
X138303000Y-103393000D01*
X128297671Y-95440707D02*
X133667707Y-95440707D01*
X133667707Y-95440707D02*
X138303000Y-100076000D01*
G04 #@! TO.N,/D0*
X128297671Y-92900707D02*
X130011964Y-94615000D01*
X140319000Y-101076000D02*
X140319000Y-103377000D01*
X133858000Y-94615000D02*
X140319000Y-101076000D01*
X130011964Y-94615000D02*
X133858000Y-94615000D01*
G04 #@! TO.N,/RST*
X128513001Y-87873001D02*
X128297671Y-87873001D01*
X142240000Y-103298000D02*
X142319000Y-103377000D01*
X142240000Y-101854000D02*
X142240000Y-103298000D01*
X134346990Y-93960990D02*
X142240000Y-101854000D01*
X128297671Y-87820707D02*
X129222707Y-87820707D01*
X129222707Y-87820707D02*
X129921000Y-88519000D01*
X129921000Y-93091000D02*
X130790990Y-93960990D01*
X129921000Y-88519000D02*
X129921000Y-93091000D01*
X130790990Y-93960990D02*
X134346990Y-93960990D01*
G04 #@! TO.N,/G2*
X132334000Y-87376000D02*
X132334000Y-87860933D01*
X132334000Y-87860933D02*
X143560800Y-99087733D01*
X143560800Y-99087733D02*
X143560800Y-109694319D01*
X143560800Y-109694319D02*
X143560800Y-110896400D01*
G04 #@! TO.N,/G4*
X148640800Y-102539808D02*
X141947899Y-95846907D01*
X148640800Y-110896400D02*
X148640800Y-102539808D01*
X141947899Y-95846907D02*
X141605000Y-95504008D01*
G04 #@! TD*
D19*
G04 #@! TO.N,/GND*
G36*
X139484000Y-101421868D02*
X139484001Y-102837492D01*
X139341100Y-103182484D01*
X139341100Y-103571516D01*
X139489977Y-103930936D01*
X139765064Y-104206023D01*
X140124484Y-104354900D01*
X140513516Y-104354900D01*
X140872936Y-104206023D01*
X141148023Y-103930936D01*
X141296900Y-103571516D01*
X141296900Y-103182484D01*
X141154000Y-102837494D01*
X141154000Y-101948868D01*
X141405000Y-102199868D01*
X141405001Y-103028214D01*
X141341100Y-103182484D01*
X141341100Y-103571516D01*
X141489977Y-103930936D01*
X141765064Y-104206023D01*
X142124484Y-104354900D01*
X142513516Y-104354900D01*
X142725800Y-104266969D01*
X142725801Y-109612078D01*
X142725800Y-109612083D01*
X142725800Y-109634916D01*
X142719615Y-109637478D01*
X142301878Y-110055215D01*
X142075800Y-110601015D01*
X142075800Y-111191785D01*
X142301878Y-111737585D01*
X142719615Y-112155322D01*
X143265415Y-112381400D01*
X143856185Y-112381400D01*
X144401985Y-112155322D01*
X144819722Y-111737585D01*
X144841591Y-111684789D01*
X145030175Y-111967025D01*
X145521382Y-112295239D01*
X145954544Y-112381400D01*
X146247056Y-112381400D01*
X146680218Y-112295239D01*
X147171425Y-111967025D01*
X147370800Y-111668639D01*
X147570175Y-111967025D01*
X148061382Y-112295239D01*
X148494544Y-112381400D01*
X148787056Y-112381400D01*
X149220218Y-112295239D01*
X149711425Y-111967025D01*
X149910800Y-111668639D01*
X150110175Y-111967025D01*
X150601382Y-112295239D01*
X151034544Y-112381400D01*
X151327056Y-112381400D01*
X151760218Y-112295239D01*
X151918600Y-112189411D01*
X151918600Y-113742400D01*
X144270800Y-113742400D01*
X144270800Y-113328526D01*
X144284709Y-113258600D01*
X144229605Y-112981572D01*
X144072681Y-112746719D01*
X143837828Y-112589795D01*
X143630726Y-112548600D01*
X143560800Y-112534691D01*
X143490875Y-112548600D01*
X136379904Y-112548600D01*
X136387366Y-112536342D01*
X136403082Y-112524659D01*
X136406800Y-112518440D01*
X136425932Y-112501146D01*
X136433124Y-112491475D01*
X136442710Y-112491523D01*
X136446064Y-112490873D01*
X136449417Y-112491521D01*
X136471360Y-112491400D01*
X136475673Y-112490517D01*
X136480008Y-112491294D01*
X136499188Y-112490929D01*
X136506214Y-112489392D01*
X136513321Y-112490504D01*
X136528390Y-112489884D01*
X136540106Y-112487048D01*
X136552073Y-112488469D01*
X136559118Y-112487917D01*
X136578975Y-112482324D01*
X136599579Y-112483449D01*
X136607571Y-112482308D01*
X136615791Y-112479417D01*
X136624500Y-112479659D01*
X136636674Y-112477587D01*
X136640995Y-112475936D01*
X136645622Y-112475999D01*
X136659942Y-112473352D01*
X136662889Y-112472178D01*
X136666061Y-112472190D01*
X136673556Y-112470729D01*
X136690657Y-112463722D01*
X136709112Y-112462741D01*
X136758364Y-112450193D01*
X136785242Y-112437348D01*
X136806676Y-112446807D01*
X136813609Y-112448352D01*
X136845331Y-112449079D01*
X136875476Y-112458985D01*
X136885210Y-112460170D01*
X136903524Y-112458790D01*
X136921267Y-112463527D01*
X136934526Y-112464384D01*
X136944914Y-112463007D01*
X136955122Y-112465383D01*
X136972622Y-112465949D01*
X136978622Y-112464956D01*
X136984566Y-112466223D01*
X137007034Y-112466530D01*
X137010345Y-112465918D01*
X137013644Y-112466586D01*
X137039129Y-112466671D01*
X137040196Y-112466463D01*
X137041264Y-112466675D01*
X137121543Y-112466675D01*
X137207416Y-112449594D01*
X137294700Y-112442805D01*
X137300995Y-112439605D01*
X137319648Y-112447536D01*
X137327955Y-112449269D01*
X137347139Y-112449448D01*
X137348427Y-112449898D01*
X137353550Y-112449609D01*
X137377209Y-112457553D01*
X137387605Y-112458887D01*
X137404534Y-112457721D01*
X137420880Y-112462275D01*
X137433942Y-112463261D01*
X137444608Y-112461964D01*
X137455053Y-112464505D01*
X137471357Y-112465195D01*
X137477884Y-112464181D01*
X137484331Y-112465612D01*
X137504451Y-112466055D01*
X137508243Y-112465387D01*
X137512012Y-112466177D01*
X137536525Y-112466427D01*
X137538641Y-112466028D01*
X137540751Y-112466456D01*
X137570231Y-112466562D01*
X137571254Y-112466362D01*
X137572276Y-112466566D01*
X137607300Y-112466580D01*
X137607611Y-112466518D01*
X137607923Y-112466580D01*
X137623628Y-112466571D01*
X137623803Y-112466536D01*
X137623979Y-112466571D01*
X137659629Y-112466531D01*
X137660137Y-112466429D01*
X137660646Y-112466529D01*
X137690529Y-112466448D01*
X137691502Y-112466252D01*
X137692473Y-112466439D01*
X137717175Y-112466297D01*
X137718880Y-112465948D01*
X137720595Y-112466269D01*
X137740698Y-112466046D01*
X137743605Y-112465434D01*
X137746525Y-112465954D01*
X137762614Y-112465629D01*
X137767391Y-112464578D01*
X137772221Y-112465363D01*
X137784882Y-112464917D01*
X137792713Y-112463071D01*
X137800685Y-112464165D01*
X137810501Y-112463576D01*
X137822768Y-112460362D01*
X137835390Y-112461595D01*
X137842945Y-112460845D01*
X137861053Y-112455337D01*
X137879963Y-112456076D01*
X137885840Y-112455144D01*
X137908764Y-112446682D01*
X137933185Y-112445794D01*
X137934957Y-112445374D01*
X137951425Y-112446872D01*
X137967612Y-112454269D01*
X138002305Y-112462475D01*
X138011919Y-112462820D01*
X138020783Y-112466558D01*
X138028116Y-112468065D01*
X138047255Y-112468186D01*
X138065299Y-112474570D01*
X138078120Y-112476425D01*
X138095921Y-112475487D01*
X138113027Y-112480501D01*
X138130946Y-112482096D01*
X138140240Y-112481092D01*
X138149278Y-112483462D01*
X138171049Y-112484771D01*
X138177223Y-112483924D01*
X138183280Y-112485389D01*
X138207657Y-112486387D01*
X138212573Y-112485617D01*
X138217430Y-112486713D01*
X138243167Y-112487373D01*
X138247700Y-112486592D01*
X138252197Y-112487540D01*
X138278047Y-112487838D01*
X138282902Y-112486930D01*
X138287754Y-112487877D01*
X138312470Y-112487787D01*
X138318510Y-112486563D01*
X138324578Y-112487628D01*
X138346914Y-112487124D01*
X138355760Y-112485156D01*
X138364726Y-112486474D01*
X138383436Y-112485530D01*
X138396409Y-112482262D01*
X138409712Y-112483661D01*
X138420263Y-112482692D01*
X138440969Y-112476560D01*
X138462553Y-112477384D01*
X138502687Y-112470982D01*
X138523964Y-112463106D01*
X138546640Y-112462384D01*
X138587274Y-112452948D01*
X138606914Y-112444071D01*
X138628359Y-112441956D01*
X138667720Y-112430011D01*
X138688166Y-112419079D01*
X138711021Y-112415160D01*
X138747337Y-112401233D01*
X138768916Y-112387628D01*
X138793643Y-112381351D01*
X138819761Y-112368897D01*
X138848795Y-112347222D01*
X138882694Y-112334432D01*
X138921091Y-112310513D01*
X138952943Y-112280633D01*
X138991347Y-112259841D01*
X139026184Y-112230938D01*
X139052754Y-112198207D01*
X139086897Y-112173473D01*
X139117879Y-112140050D01*
X139139206Y-112105355D01*
X139168919Y-112077499D01*
X139195750Y-112040018D01*
X139212031Y-112004039D01*
X139237330Y-111973713D01*
X139259712Y-111932638D01*
X139271187Y-111895876D01*
X139292163Y-111863578D01*
X139309800Y-111819373D01*
X139316692Y-111782191D01*
X139333441Y-111748288D01*
X139346036Y-111701416D01*
X139348316Y-111667009D01*
X139360210Y-111634640D01*
X139366707Y-111593276D01*
X139365695Y-111568349D01*
X139372473Y-111544341D01*
X139373758Y-111528064D01*
X139372515Y-111517537D01*
X139375060Y-111507249D01*
X139376043Y-111485986D01*
X139375125Y-111479918D01*
X139376487Y-111473931D01*
X139377168Y-111449036D01*
X139376429Y-111444706D01*
X139377345Y-111440414D01*
X139377722Y-111413243D01*
X139377051Y-111409608D01*
X139377782Y-111405982D01*
X139377853Y-111377890D01*
X139377159Y-111374353D01*
X139377832Y-111370811D01*
X139377596Y-111343155D01*
X139376770Y-111339180D01*
X139377478Y-111335184D01*
X139376935Y-111309318D01*
X139375776Y-111304071D01*
X139376626Y-111298767D01*
X139375774Y-111276047D01*
X139373794Y-111267732D01*
X139374924Y-111259257D01*
X139373761Y-111241039D01*
X139371316Y-111231852D01*
X139372297Y-111222396D01*
X139371897Y-111218106D01*
X139366052Y-111198472D01*
X139366876Y-111178005D01*
X139359643Y-111132055D01*
X139348159Y-111100836D01*
X139346075Y-111067633D01*
X139334129Y-111022553D01*
X139319134Y-110991933D01*
X139313427Y-110958322D01*
X139297322Y-110916117D01*
X139285172Y-110896776D01*
X139279773Y-110874583D01*
X139275838Y-110866114D01*
X139267945Y-110855319D01*
X139264252Y-110842467D01*
X139248925Y-110812747D01*
X139234170Y-110794218D01*
X139225985Y-110771995D01*
X139210091Y-110746027D01*
X139190975Y-110725325D01*
X139178976Y-110699834D01*
X139161161Y-110675719D01*
X139141637Y-110657958D01*
X139128489Y-110635071D01*
X139107393Y-110610912D01*
X139094097Y-110600664D01*
X139084994Y-110586560D01*
X139069086Y-110570138D01*
X139052735Y-110558833D01*
X139040951Y-110542820D01*
X139005549Y-110510494D01*
X138976542Y-110492962D01*
X138953707Y-110467918D01*
X138917300Y-110441085D01*
X138882981Y-110424979D01*
X138854334Y-110400152D01*
X138815872Y-110378246D01*
X138779654Y-110366188D01*
X138748057Y-110344764D01*
X138706488Y-110327214D01*
X138672575Y-110320229D01*
X138642004Y-110303974D01*
X138596277Y-110290212D01*
X138576068Y-110288266D01*
X138557581Y-110279875D01*
X138539831Y-110275724D01*
X138530580Y-110275415D01*
X138522047Y-110271831D01*
X138510320Y-110269438D01*
X138497139Y-110269373D01*
X138484785Y-110264764D01*
X138473726Y-110262971D01*
X138457089Y-110263564D01*
X138441218Y-110258553D01*
X138429608Y-110257277D01*
X138414547Y-110258589D01*
X138399934Y-110254713D01*
X138386553Y-110253869D01*
X138375934Y-110255294D01*
X138365497Y-110252891D01*
X138349127Y-110252400D01*
X138342993Y-110253430D01*
X138336906Y-110252150D01*
X138316327Y-110251926D01*
X138313545Y-110252448D01*
X138310771Y-110251890D01*
X138291710Y-110251848D01*
X138289398Y-110252302D01*
X138287083Y-110251854D01*
X138260022Y-110251990D01*
X138254988Y-110253018D01*
X138249927Y-110252120D01*
X138228055Y-110252575D01*
X138219725Y-110254413D01*
X138211292Y-110253144D01*
X138193457Y-110253983D01*
X138181216Y-110257022D01*
X138168683Y-110255631D01*
X138153733Y-110256917D01*
X138138359Y-110261374D01*
X138122381Y-110260394D01*
X138109160Y-110262191D01*
X138105467Y-110263462D01*
X138077560Y-110254895D01*
X138059385Y-110253044D01*
X138025094Y-110256307D01*
X138010793Y-110252646D01*
X137999231Y-110254300D01*
X137985558Y-110252179D01*
X137966266Y-110256875D01*
X137927130Y-110253311D01*
X137908682Y-110255265D01*
X137864716Y-110268956D01*
X137839965Y-110268758D01*
X137823298Y-110275506D01*
X137816202Y-110276181D01*
X137807653Y-110274193D01*
X137798813Y-110275658D01*
X137790034Y-110273869D01*
X137570959Y-110272852D01*
X137570833Y-110272876D01*
X137570708Y-110272851D01*
X137524839Y-110272656D01*
X137524405Y-110272740D01*
X137523972Y-110272653D01*
X137483931Y-110272537D01*
X137483115Y-110272697D01*
X137482298Y-110272534D01*
X137447568Y-110272522D01*
X137446228Y-110272788D01*
X137444889Y-110272527D01*
X137414948Y-110272642D01*
X137412851Y-110273067D01*
X137410749Y-110272672D01*
X137385080Y-110272939D01*
X137381951Y-110273595D01*
X137378804Y-110273035D01*
X137356884Y-110273478D01*
X137352373Y-110274471D01*
X137347810Y-110273725D01*
X137329120Y-110274368D01*
X137322819Y-110275848D01*
X137316413Y-110274932D01*
X137300433Y-110275800D01*
X137292081Y-110277938D01*
X137283520Y-110276944D01*
X137269730Y-110278060D01*
X137259319Y-110281021D01*
X137248531Y-110280131D01*
X137236412Y-110281519D01*
X137224530Y-110285330D01*
X137212063Y-110284782D01*
X137201093Y-110286467D01*
X137189111Y-110290824D01*
X137176366Y-110290764D01*
X137166027Y-110292770D01*
X137155734Y-110296977D01*
X137144614Y-110297305D01*
X137134387Y-110299655D01*
X137127137Y-110302912D01*
X137119201Y-110303340D01*
X137108564Y-110306059D01*
X137105617Y-110307470D01*
X137102356Y-110307679D01*
X137099232Y-110308511D01*
X137080417Y-110317754D01*
X137059627Y-110320442D01*
X137020079Y-110333764D01*
X136985386Y-110353687D01*
X136946650Y-110363683D01*
X136909394Y-110381629D01*
X136877883Y-110405348D01*
X136841184Y-110419783D01*
X136806909Y-110441805D01*
X136777977Y-110469716D01*
X136742682Y-110488967D01*
X136714716Y-110512316D01*
X136685882Y-110510328D01*
X136653732Y-110498394D01*
X136607016Y-110490899D01*
X136575511Y-110492074D01*
X136545030Y-110484032D01*
X136497215Y-110481083D01*
X136467342Y-110485133D01*
X136437600Y-110480188D01*
X136389666Y-110481703D01*
X136360334Y-110488507D01*
X136330304Y-110486351D01*
X136283231Y-110492250D01*
X136253421Y-110502162D01*
X136222015Y-110502962D01*
X136176786Y-110513162D01*
X136145485Y-110527071D01*
X136111526Y-110531561D01*
X136082919Y-110541289D01*
X136074798Y-110540089D01*
X136070996Y-110538197D01*
X136062663Y-110537620D01*
X136034421Y-110524471D01*
X136029296Y-110523220D01*
X135999411Y-110521933D01*
X135971246Y-110511867D01*
X135964699Y-110510898D01*
X135944441Y-110511900D01*
X135924954Y-110506281D01*
X135916265Y-110505546D01*
X135904345Y-110506886D01*
X135892704Y-110503990D01*
X135881153Y-110503441D01*
X135874583Y-110504426D01*
X135868104Y-110502954D01*
X135852971Y-110502544D01*
X135849559Y-110503127D01*
X135846175Y-110502396D01*
X135826741Y-110502076D01*
X135825093Y-110502376D01*
X135823453Y-110502030D01*
X135798999Y-110501753D01*
X135798374Y-110501870D01*
X135797751Y-110501740D01*
X135772584Y-110501504D01*
X135772256Y-110501566D01*
X135771929Y-110501498D01*
X135742482Y-110501252D01*
X135741590Y-110501422D01*
X135740703Y-110501240D01*
X135716846Y-110501107D01*
X135714793Y-110501504D01*
X135712740Y-110501097D01*
X135693712Y-110501113D01*
X135689793Y-110501896D01*
X135685865Y-110501168D01*
X135670906Y-110501364D01*
X135663904Y-110502852D01*
X135656838Y-110501703D01*
X135645187Y-110502112D01*
X135633557Y-110504853D01*
X135621703Y-110503369D01*
X135612601Y-110504024D01*
X135595328Y-110508771D01*
X135577457Y-110507530D01*
X135570144Y-110508464D01*
X135549126Y-110515508D01*
X135526960Y-110515487D01*
X135520675Y-110516731D01*
X135504456Y-110523431D01*
X135503492Y-110523010D01*
X135494025Y-110520934D01*
X135465028Y-110520371D01*
X135437524Y-110511180D01*
X135425397Y-110509642D01*
X135407570Y-110510895D01*
X135390331Y-110506172D01*
X135374869Y-110505071D01*
X135364614Y-110506362D01*
X135354563Y-110503949D01*
X135335086Y-110503183D01*
X135329480Y-110504071D01*
X135323939Y-110502842D01*
X135299769Y-110502313D01*
X135297025Y-110502797D01*
X135294301Y-110502217D01*
X135264763Y-110501823D01*
X135263838Y-110501994D01*
X135262917Y-110501801D01*
X135247803Y-110501643D01*
X135247477Y-110501704D01*
X135247154Y-110501637D01*
X135217491Y-110501357D01*
X135216624Y-110501521D01*
X135215759Y-110501343D01*
X135191692Y-110501180D01*
X135189736Y-110501555D01*
X135187784Y-110501166D01*
X135168564Y-110501154D01*
X135164793Y-110501902D01*
X135161015Y-110501194D01*
X135145886Y-110501363D01*
X135139178Y-110502775D01*
X135132414Y-110501655D01*
X135120627Y-110502035D01*
X135109348Y-110504659D01*
X135097864Y-110503175D01*
X135088665Y-110503800D01*
X135071898Y-110508336D01*
X135054578Y-110507034D01*
X135047213Y-110507932D01*
X135026210Y-110514838D01*
X135014165Y-110514756D01*
X135003160Y-110510925D01*
X134996167Y-110509949D01*
X134976484Y-110511086D01*
X134957505Y-110505746D01*
X134948204Y-110505020D01*
X134936993Y-110506354D01*
X134926023Y-110503675D01*
X134913639Y-110503140D01*
X134907628Y-110504068D01*
X134901696Y-110502736D01*
X134885456Y-110502338D01*
X134882510Y-110502849D01*
X134879586Y-110502221D01*
X134858714Y-110501901D01*
X134857421Y-110502138D01*
X134856137Y-110501867D01*
X134829859Y-110501570D01*
X134829555Y-110501627D01*
X134829250Y-110501563D01*
X134822682Y-110501495D01*
X134822645Y-110501502D01*
X134822612Y-110501495D01*
X134724980Y-110500495D01*
X134721700Y-110501113D01*
X134718425Y-110500461D01*
X134708682Y-110502399D01*
X134702694Y-110499945D01*
X134680655Y-110495648D01*
X134648627Y-110495769D01*
X134617937Y-110486616D01*
X134593028Y-110484280D01*
X134570640Y-110486591D01*
X134548674Y-110481669D01*
X134519518Y-110480967D01*
X134496209Y-110485023D01*
X134472808Y-110481548D01*
X134428028Y-110483741D01*
X134392007Y-110492758D01*
X134354898Y-110491554D01*
X134314281Y-110498272D01*
X134273240Y-110513732D01*
X134229615Y-110518268D01*
X134192697Y-110529686D01*
X134150058Y-110552775D01*
X134105858Y-110564258D01*
X134105704Y-110564232D01*
X134092740Y-110556936D01*
X134076782Y-110551714D01*
X134072159Y-110551157D01*
X134068068Y-110548931D01*
X134060990Y-110546726D01*
X134055637Y-110546159D01*
X134050870Y-110543666D01*
X134013876Y-110532810D01*
X134001589Y-110531712D01*
X133990448Y-110526415D01*
X133956876Y-110517932D01*
X133941165Y-110517128D01*
X133926647Y-110511068D01*
X133894316Y-110504546D01*
X133877858Y-110504502D01*
X133862369Y-110498940D01*
X133829104Y-110493968D01*
X133815032Y-110494644D01*
X133801578Y-110490462D01*
X133765201Y-110486628D01*
X133757405Y-110487342D01*
X133749876Y-110485199D01*
X133730808Y-110483652D01*
X133716213Y-110485344D01*
X133701918Y-110481965D01*
X133646592Y-110479987D01*
X133619077Y-110484445D01*
X133591496Y-110480390D01*
X133539913Y-110482991D01*
X133509039Y-110490767D01*
X133477239Y-110489255D01*
X133429569Y-110496403D01*
X133395353Y-110508707D01*
X133359067Y-110511071D01*
X133315477Y-110522733D01*
X133278451Y-110540975D01*
X133237941Y-110548892D01*
X133198600Y-110565034D01*
X133175376Y-110580440D01*
X133136304Y-110562370D01*
X133096455Y-110552752D01*
X133060529Y-110533010D01*
X133016026Y-110518945D01*
X132994317Y-110516552D01*
X132974513Y-110507347D01*
X132966559Y-110505411D01*
X132957370Y-110505021D01*
X132948924Y-110501382D01*
X132937340Y-110498907D01*
X132920263Y-110498665D01*
X132904247Y-110492742D01*
X132892954Y-110490944D01*
X132873737Y-110491683D01*
X132855333Y-110486092D01*
X132842991Y-110484871D01*
X132827362Y-110486403D01*
X132812134Y-110482570D01*
X132797402Y-110481829D01*
X132787520Y-110483283D01*
X132777763Y-110481143D01*
X132759299Y-110480782D01*
X132754196Y-110481694D01*
X132749116Y-110480664D01*
X132726854Y-110480583D01*
X132724515Y-110481039D01*
X132722175Y-110480583D01*
X132700116Y-110480664D01*
X132695944Y-110481510D01*
X132691759Y-110480750D01*
X132674726Y-110481035D01*
X132665529Y-110483025D01*
X132656225Y-110481612D01*
X132642894Y-110482221D01*
X132627123Y-110486114D01*
X132610959Y-110484481D01*
X132600008Y-110485532D01*
X132579509Y-110491695D01*
X132558120Y-110490953D01*
X132548224Y-110492567D01*
X132529866Y-110499436D01*
X132510267Y-110499941D01*
X132505692Y-110500974D01*
X132505194Y-110500875D01*
X132399116Y-110500875D01*
X132397984Y-110501100D01*
X132396851Y-110500879D01*
X132367464Y-110500983D01*
X132364959Y-110501491D01*
X132362444Y-110501020D01*
X132335828Y-110501323D01*
X132332848Y-110501951D01*
X132329849Y-110501419D01*
X132306696Y-110501899D01*
X132302591Y-110502804D01*
X132298447Y-110502124D01*
X132279449Y-110502763D01*
X132272677Y-110504348D01*
X132265787Y-110503368D01*
X132251635Y-110504147D01*
X132236222Y-110508105D01*
X132220378Y-110506637D01*
X132211764Y-110507536D01*
X132185794Y-110515579D01*
X132158610Y-110515351D01*
X132157732Y-110515518D01*
X132132540Y-110525706D01*
X132121808Y-110525865D01*
X132116169Y-110528299D01*
X132073717Y-110517621D01*
X132052247Y-110516545D01*
X132032257Y-110508642D01*
X131977499Y-110498670D01*
X131955894Y-110499020D01*
X131935315Y-110492432D01*
X131881299Y-110486275D01*
X131858897Y-110488135D01*
X131837065Y-110482781D01*
X131784574Y-110480462D01*
X131760606Y-110484138D01*
X131736685Y-110480139D01*
X131686499Y-110481681D01*
X131660013Y-110487800D01*
X131632918Y-110485582D01*
X131585822Y-110491006D01*
X131555676Y-110500696D01*
X131524016Y-110501210D01*
X131480790Y-110510540D01*
X131456619Y-110521015D01*
X131430402Y-110523581D01*
X131413570Y-110528676D01*
X131387394Y-110542647D01*
X131358254Y-110548230D01*
X131324263Y-110562029D01*
X131289311Y-110585028D01*
X131249580Y-110598150D01*
X131218399Y-110615811D01*
X131185952Y-110643796D01*
X131147402Y-110662507D01*
X131119818Y-110683400D01*
X131089125Y-110717959D01*
X131050853Y-110743880D01*
X131027647Y-110767379D01*
X130998786Y-110811164D01*
X130960714Y-110847227D01*
X130942675Y-110872702D01*
X130925708Y-110910716D01*
X130899424Y-110942991D01*
X130894042Y-110953152D01*
X130889814Y-110967282D01*
X130881027Y-110979132D01*
X130876768Y-110988139D01*
X130874405Y-110997578D01*
X130868845Y-111005564D01*
X130865209Y-111013889D01*
X130861395Y-111031317D01*
X130852022Y-111046497D01*
X130848960Y-111054711D01*
X130845226Y-111077779D01*
X130834413Y-111098495D01*
X130831875Y-111107167D01*
X130829722Y-111131470D01*
X130820093Y-111153883D01*
X130818031Y-111163585D01*
X130817753Y-111184849D01*
X130810658Y-111204894D01*
X130809020Y-111216196D01*
X130809881Y-111232575D01*
X130805196Y-111248293D01*
X130803935Y-111261765D01*
X130805132Y-111273339D01*
X130802209Y-111284601D01*
X130801275Y-111300814D01*
X130802352Y-111308522D01*
X130800578Y-111316099D01*
X130800014Y-111332870D01*
X130790945Y-111345973D01*
X130776707Y-111378819D01*
X130759359Y-111400429D01*
X130753296Y-111421219D01*
X130731318Y-111452632D01*
X130727415Y-111461511D01*
X130716047Y-111512879D01*
X130714286Y-111515626D01*
X130712584Y-111525127D01*
X130689014Y-111578142D01*
X130686818Y-111587871D01*
X130685559Y-111636947D01*
X130672659Y-111684315D01*
X130671768Y-111697107D01*
X130674180Y-111716030D01*
X130670258Y-111734698D01*
X130670176Y-111742325D01*
X130671968Y-111751870D01*
X130670256Y-111761429D01*
X130670516Y-111775039D01*
X130677279Y-111805941D01*
X130674769Y-111837474D01*
X130675890Y-111847018D01*
X130686547Y-111879916D01*
X130686230Y-111887770D01*
X130696257Y-111915040D01*
X130698938Y-111937882D01*
X130699481Y-111948175D01*
X130700363Y-111950024D01*
X130702656Y-111969552D01*
X130705166Y-111977302D01*
X130720971Y-112005586D01*
X130723902Y-112018980D01*
X130736058Y-112036441D01*
X130750423Y-112083337D01*
X130754853Y-112091571D01*
X130762841Y-112101251D01*
X130763228Y-112102532D01*
X130766796Y-112106891D01*
X130772405Y-112122145D01*
X130773682Y-112124234D01*
X130794092Y-112146362D01*
X130807061Y-112173529D01*
X130815345Y-112184615D01*
X130826737Y-112194866D01*
X130826976Y-112195293D01*
X130828908Y-112196819D01*
X130830889Y-112198601D01*
X130832913Y-112202644D01*
X130856736Y-112223282D01*
X130860667Y-112230329D01*
X130881056Y-112246459D01*
X130921413Y-112295755D01*
X130931678Y-112304200D01*
X130972663Y-112326170D01*
X131000974Y-112351645D01*
X131007629Y-112353999D01*
X131021655Y-112366150D01*
X131031403Y-112371700D01*
X131045148Y-112376273D01*
X131056508Y-112385260D01*
X131075219Y-112394834D01*
X131097730Y-112401224D01*
X131117083Y-112414382D01*
X131149912Y-112421187D01*
X131151765Y-112422180D01*
X131157427Y-112422745D01*
X131217146Y-112435123D01*
X131250437Y-112444573D01*
X131268349Y-112450533D01*
X131270809Y-112450357D01*
X131315443Y-112463027D01*
X131338686Y-112460316D01*
X131361601Y-112465066D01*
X131478516Y-112466006D01*
X131595430Y-112466946D01*
X131598004Y-112466456D01*
X131600575Y-112466967D01*
X131610280Y-112465037D01*
X131630457Y-112472718D01*
X131650878Y-112476170D01*
X131668961Y-112475647D01*
X131686200Y-112481131D01*
X131710651Y-112483873D01*
X131722999Y-112482825D01*
X131734942Y-112486129D01*
X131761934Y-112488118D01*
X131771942Y-112486883D01*
X131781740Y-112489269D01*
X131809782Y-112490463D01*
X131819341Y-112488981D01*
X131828799Y-112490989D01*
X131856397Y-112491343D01*
X131867099Y-112489357D01*
X131877821Y-112491260D01*
X131903483Y-112490730D01*
X131917694Y-112487597D01*
X131932117Y-112489496D01*
X131954352Y-112488039D01*
X131959769Y-112486588D01*
X131980949Y-112515943D01*
X132010777Y-112543699D01*
X132049768Y-112567770D01*
X132081574Y-112600755D01*
X132115603Y-112624399D01*
X132156504Y-112642219D01*
X132191606Y-112669755D01*
X132229443Y-112688919D01*
X132270337Y-112700346D01*
X132306893Y-112721939D01*
X132346106Y-112735687D01*
X132369419Y-112738992D01*
X132390504Y-112749462D01*
X132396958Y-112751210D01*
X132408980Y-112752031D01*
X132419965Y-112756987D01*
X132426199Y-112758430D01*
X132443686Y-112758974D01*
X132459996Y-112765299D01*
X132466686Y-112766472D01*
X132484321Y-112766070D01*
X132501093Y-112771546D01*
X132508915Y-112772483D01*
X132522927Y-112771400D01*
X132536463Y-112775180D01*
X132546093Y-112775913D01*
X132555572Y-112774766D01*
X132564842Y-112777064D01*
X132576953Y-112777629D01*
X132582920Y-112776729D01*
X132588804Y-112778072D01*
X132604073Y-112778501D01*
X132607600Y-112777902D01*
X132611092Y-112778659D01*
X132630193Y-112778986D01*
X132632167Y-112778628D01*
X132634128Y-112779041D01*
X132657737Y-112779300D01*
X132658749Y-112779110D01*
X132659757Y-112779319D01*
X132688548Y-112779544D01*
X132688957Y-112779466D01*
X132689365Y-112779550D01*
X132713991Y-112779711D01*
X132714823Y-112779551D01*
X132715655Y-112779720D01*
X132745114Y-112779836D01*
X132746651Y-112779537D01*
X132748188Y-112779841D01*
X132775927Y-112779817D01*
X132777609Y-112779481D01*
X132779293Y-112779805D01*
X132804597Y-112779650D01*
X132806605Y-112779238D01*
X132808622Y-112779613D01*
X132830773Y-112779338D01*
X132833530Y-112778754D01*
X132836302Y-112779245D01*
X132854583Y-112778860D01*
X132859147Y-112777852D01*
X132863761Y-112778601D01*
X132877455Y-112778116D01*
X132887909Y-112775649D01*
X132898561Y-112777019D01*
X132906951Y-112776444D01*
X132933467Y-112769254D01*
X132960914Y-112770437D01*
X132962790Y-112770147D01*
X133001410Y-112756065D01*
X133019291Y-112755859D01*
X133043776Y-112745385D01*
X133082953Y-112739422D01*
X133105084Y-112731409D01*
X133131143Y-112715656D01*
X133147964Y-112711095D01*
X133168742Y-112695053D01*
X133197397Y-112684605D01*
X133199605Y-112682580D01*
X133213803Y-112678066D01*
X133226846Y-112667069D01*
X133248880Y-112657643D01*
X133266320Y-112645696D01*
X133294393Y-112616967D01*
X133318785Y-112602222D01*
X133342735Y-112569673D01*
X133382462Y-112541448D01*
X133389905Y-112529586D01*
X133404715Y-112517099D01*
X133417201Y-112501466D01*
X133428395Y-112479838D01*
X133440847Y-112467095D01*
X133441015Y-112466675D01*
X133480175Y-112466675D01*
X133487407Y-112465237D01*
X133499689Y-112470125D01*
X133531697Y-112476030D01*
X133543365Y-112475868D01*
X133554358Y-112479792D01*
X133559061Y-112480486D01*
X133571998Y-112479841D01*
X133584363Y-112483707D01*
X133600024Y-112485384D01*
X133613574Y-112484166D01*
X133626715Y-112487678D01*
X133646296Y-112488949D01*
X133654773Y-112487827D01*
X133663091Y-112489818D01*
X133685083Y-112490666D01*
X133691704Y-112489612D01*
X133698255Y-112491038D01*
X133721148Y-112491449D01*
X133727519Y-112490300D01*
X133733871Y-112491551D01*
X133756155Y-112491508D01*
X133763624Y-112490007D01*
X133771132Y-112491304D01*
X133791298Y-112490793D01*
X133802348Y-112488303D01*
X133813567Y-112489840D01*
X133830102Y-112488844D01*
X133848629Y-112483984D01*
X133867729Y-112485461D01*
X133877214Y-112484325D01*
X133911077Y-112473270D01*
X133946675Y-112472091D01*
X133989381Y-112462116D01*
X134026983Y-112445061D01*
X134033648Y-112443978D01*
X134036224Y-112444590D01*
X134066827Y-112445719D01*
X134084812Y-112451874D01*
X134086443Y-112451771D01*
X134099866Y-112456345D01*
X134109938Y-112457683D01*
X134130346Y-112456369D01*
X134150075Y-112461731D01*
X134163037Y-112462627D01*
X134174705Y-112461133D01*
X134186162Y-112463806D01*
X134202694Y-112464349D01*
X134208962Y-112463315D01*
X134215175Y-112464637D01*
X134235959Y-112464914D01*
X134238959Y-112464359D01*
X134241950Y-112464966D01*
X134267670Y-112465068D01*
X134268796Y-112464849D01*
X134269922Y-112465073D01*
X134301259Y-112465087D01*
X134301402Y-112465059D01*
X134301545Y-112465087D01*
X134421563Y-112465087D01*
X134444117Y-112460601D01*
X134466932Y-112463477D01*
X134527506Y-112446889D01*
X134542295Y-112447433D01*
X134542774Y-112447255D01*
X134561443Y-112454189D01*
X134567338Y-112455136D01*
X134588790Y-112454341D01*
X134609367Y-112460468D01*
X134617166Y-112461196D01*
X134630186Y-112459847D01*
X134642871Y-112463074D01*
X134653221Y-112463621D01*
X134660725Y-112462536D01*
X134668113Y-112464234D01*
X134681663Y-112464634D01*
X134685808Y-112463936D01*
X134689920Y-112464825D01*
X134707319Y-112465114D01*
X134709513Y-112464715D01*
X134711693Y-112465171D01*
X134733589Y-112465385D01*
X134734646Y-112465186D01*
X134735703Y-112465403D01*
X134762746Y-112465578D01*
X134763134Y-112465503D01*
X134763518Y-112465582D01*
X134791256Y-112465728D01*
X134791806Y-112465622D01*
X134792356Y-112465733D01*
X134827042Y-112465856D01*
X134828410Y-112465589D01*
X134829778Y-112465860D01*
X134858620Y-112465839D01*
X134860808Y-112465402D01*
X134863001Y-112465821D01*
X134875478Y-112465727D01*
X134884083Y-112483983D01*
X134893450Y-112496648D01*
X134933783Y-112533301D01*
X134943189Y-112548600D01*
X134842325Y-112548600D01*
X134772400Y-112534691D01*
X134702474Y-112548600D01*
X134495372Y-112589795D01*
X134260519Y-112746719D01*
X134103595Y-112981572D01*
X134048491Y-113258600D01*
X134062400Y-113328526D01*
X134062400Y-113717000D01*
X129589600Y-113717000D01*
X129589600Y-107767981D01*
X129601405Y-107725757D01*
X129589600Y-107627924D01*
X129589600Y-107600674D01*
X129581241Y-107558651D01*
X129567568Y-107445336D01*
X129553858Y-107420984D01*
X129548405Y-107393572D01*
X129484991Y-107298666D01*
X129428995Y-107199209D01*
X129407008Y-107181957D01*
X129391481Y-107158719D01*
X129334829Y-107120865D01*
X129445436Y-107098864D01*
X129655480Y-106958516D01*
X129795828Y-106748472D01*
X129845111Y-106500707D01*
X129845111Y-104700707D01*
X129795828Y-104452942D01*
X129655480Y-104242898D01*
X129446975Y-104103578D01*
X129743609Y-103659634D01*
X129848000Y-103134823D01*
X129848001Y-104438762D01*
X129831643Y-104521000D01*
X129896448Y-104846800D01*
X129917106Y-104877717D01*
X130081000Y-105123001D01*
X130150718Y-105169585D01*
X130923414Y-105942282D01*
X130969999Y-106012001D01*
X131185516Y-106156005D01*
X131246199Y-106196552D01*
X131572000Y-106261358D01*
X131654237Y-106245000D01*
X135807767Y-106245000D01*
X135890000Y-106261357D01*
X135972233Y-106245000D01*
X135972237Y-106245000D01*
X136215801Y-106196552D01*
X136492001Y-106012001D01*
X136538587Y-105942280D01*
X136851280Y-105629587D01*
X136921001Y-105583001D01*
X137105552Y-105306801D01*
X137154000Y-105063237D01*
X137154000Y-105063236D01*
X137170358Y-104981000D01*
X137154000Y-104898763D01*
X137154000Y-103916506D01*
X137277099Y-103619320D01*
X137277099Y-103635517D01*
X137425976Y-103994937D01*
X137701063Y-104270024D01*
X138060483Y-104418901D01*
X138449515Y-104418901D01*
X138808935Y-104270024D01*
X139084022Y-103994937D01*
X139232899Y-103635517D01*
X139232899Y-103246485D01*
X139138000Y-103017379D01*
X139138000Y-101075868D01*
X139484000Y-101421868D01*
X139484000Y-101421868D01*
G37*
X139484000Y-101421868D02*
X139484001Y-102837492D01*
X139341100Y-103182484D01*
X139341100Y-103571516D01*
X139489977Y-103930936D01*
X139765064Y-104206023D01*
X140124484Y-104354900D01*
X140513516Y-104354900D01*
X140872936Y-104206023D01*
X141148023Y-103930936D01*
X141296900Y-103571516D01*
X141296900Y-103182484D01*
X141154000Y-102837494D01*
X141154000Y-101948868D01*
X141405000Y-102199868D01*
X141405001Y-103028214D01*
X141341100Y-103182484D01*
X141341100Y-103571516D01*
X141489977Y-103930936D01*
X141765064Y-104206023D01*
X142124484Y-104354900D01*
X142513516Y-104354900D01*
X142725800Y-104266969D01*
X142725801Y-109612078D01*
X142725800Y-109612083D01*
X142725800Y-109634916D01*
X142719615Y-109637478D01*
X142301878Y-110055215D01*
X142075800Y-110601015D01*
X142075800Y-111191785D01*
X142301878Y-111737585D01*
X142719615Y-112155322D01*
X143265415Y-112381400D01*
X143856185Y-112381400D01*
X144401985Y-112155322D01*
X144819722Y-111737585D01*
X144841591Y-111684789D01*
X145030175Y-111967025D01*
X145521382Y-112295239D01*
X145954544Y-112381400D01*
X146247056Y-112381400D01*
X146680218Y-112295239D01*
X147171425Y-111967025D01*
X147370800Y-111668639D01*
X147570175Y-111967025D01*
X148061382Y-112295239D01*
X148494544Y-112381400D01*
X148787056Y-112381400D01*
X149220218Y-112295239D01*
X149711425Y-111967025D01*
X149910800Y-111668639D01*
X150110175Y-111967025D01*
X150601382Y-112295239D01*
X151034544Y-112381400D01*
X151327056Y-112381400D01*
X151760218Y-112295239D01*
X151918600Y-112189411D01*
X151918600Y-113742400D01*
X144270800Y-113742400D01*
X144270800Y-113328526D01*
X144284709Y-113258600D01*
X144229605Y-112981572D01*
X144072681Y-112746719D01*
X143837828Y-112589795D01*
X143630726Y-112548600D01*
X143560800Y-112534691D01*
X143490875Y-112548600D01*
X136379904Y-112548600D01*
X136387366Y-112536342D01*
X136403082Y-112524659D01*
X136406800Y-112518440D01*
X136425932Y-112501146D01*
X136433124Y-112491475D01*
X136442710Y-112491523D01*
X136446064Y-112490873D01*
X136449417Y-112491521D01*
X136471360Y-112491400D01*
X136475673Y-112490517D01*
X136480008Y-112491294D01*
X136499188Y-112490929D01*
X136506214Y-112489392D01*
X136513321Y-112490504D01*
X136528390Y-112489884D01*
X136540106Y-112487048D01*
X136552073Y-112488469D01*
X136559118Y-112487917D01*
X136578975Y-112482324D01*
X136599579Y-112483449D01*
X136607571Y-112482308D01*
X136615791Y-112479417D01*
X136624500Y-112479659D01*
X136636674Y-112477587D01*
X136640995Y-112475936D01*
X136645622Y-112475999D01*
X136659942Y-112473352D01*
X136662889Y-112472178D01*
X136666061Y-112472190D01*
X136673556Y-112470729D01*
X136690657Y-112463722D01*
X136709112Y-112462741D01*
X136758364Y-112450193D01*
X136785242Y-112437348D01*
X136806676Y-112446807D01*
X136813609Y-112448352D01*
X136845331Y-112449079D01*
X136875476Y-112458985D01*
X136885210Y-112460170D01*
X136903524Y-112458790D01*
X136921267Y-112463527D01*
X136934526Y-112464384D01*
X136944914Y-112463007D01*
X136955122Y-112465383D01*
X136972622Y-112465949D01*
X136978622Y-112464956D01*
X136984566Y-112466223D01*
X137007034Y-112466530D01*
X137010345Y-112465918D01*
X137013644Y-112466586D01*
X137039129Y-112466671D01*
X137040196Y-112466463D01*
X137041264Y-112466675D01*
X137121543Y-112466675D01*
X137207416Y-112449594D01*
X137294700Y-112442805D01*
X137300995Y-112439605D01*
X137319648Y-112447536D01*
X137327955Y-112449269D01*
X137347139Y-112449448D01*
X137348427Y-112449898D01*
X137353550Y-112449609D01*
X137377209Y-112457553D01*
X137387605Y-112458887D01*
X137404534Y-112457721D01*
X137420880Y-112462275D01*
X137433942Y-112463261D01*
X137444608Y-112461964D01*
X137455053Y-112464505D01*
X137471357Y-112465195D01*
X137477884Y-112464181D01*
X137484331Y-112465612D01*
X137504451Y-112466055D01*
X137508243Y-112465387D01*
X137512012Y-112466177D01*
X137536525Y-112466427D01*
X137538641Y-112466028D01*
X137540751Y-112466456D01*
X137570231Y-112466562D01*
X137571254Y-112466362D01*
X137572276Y-112466566D01*
X137607300Y-112466580D01*
X137607611Y-112466518D01*
X137607923Y-112466580D01*
X137623628Y-112466571D01*
X137623803Y-112466536D01*
X137623979Y-112466571D01*
X137659629Y-112466531D01*
X137660137Y-112466429D01*
X137660646Y-112466529D01*
X137690529Y-112466448D01*
X137691502Y-112466252D01*
X137692473Y-112466439D01*
X137717175Y-112466297D01*
X137718880Y-112465948D01*
X137720595Y-112466269D01*
X137740698Y-112466046D01*
X137743605Y-112465434D01*
X137746525Y-112465954D01*
X137762614Y-112465629D01*
X137767391Y-112464578D01*
X137772221Y-112465363D01*
X137784882Y-112464917D01*
X137792713Y-112463071D01*
X137800685Y-112464165D01*
X137810501Y-112463576D01*
X137822768Y-112460362D01*
X137835390Y-112461595D01*
X137842945Y-112460845D01*
X137861053Y-112455337D01*
X137879963Y-112456076D01*
X137885840Y-112455144D01*
X137908764Y-112446682D01*
X137933185Y-112445794D01*
X137934957Y-112445374D01*
X137951425Y-112446872D01*
X137967612Y-112454269D01*
X138002305Y-112462475D01*
X138011919Y-112462820D01*
X138020783Y-112466558D01*
X138028116Y-112468065D01*
X138047255Y-112468186D01*
X138065299Y-112474570D01*
X138078120Y-112476425D01*
X138095921Y-112475487D01*
X138113027Y-112480501D01*
X138130946Y-112482096D01*
X138140240Y-112481092D01*
X138149278Y-112483462D01*
X138171049Y-112484771D01*
X138177223Y-112483924D01*
X138183280Y-112485389D01*
X138207657Y-112486387D01*
X138212573Y-112485617D01*
X138217430Y-112486713D01*
X138243167Y-112487373D01*
X138247700Y-112486592D01*
X138252197Y-112487540D01*
X138278047Y-112487838D01*
X138282902Y-112486930D01*
X138287754Y-112487877D01*
X138312470Y-112487787D01*
X138318510Y-112486563D01*
X138324578Y-112487628D01*
X138346914Y-112487124D01*
X138355760Y-112485156D01*
X138364726Y-112486474D01*
X138383436Y-112485530D01*
X138396409Y-112482262D01*
X138409712Y-112483661D01*
X138420263Y-112482692D01*
X138440969Y-112476560D01*
X138462553Y-112477384D01*
X138502687Y-112470982D01*
X138523964Y-112463106D01*
X138546640Y-112462384D01*
X138587274Y-112452948D01*
X138606914Y-112444071D01*
X138628359Y-112441956D01*
X138667720Y-112430011D01*
X138688166Y-112419079D01*
X138711021Y-112415160D01*
X138747337Y-112401233D01*
X138768916Y-112387628D01*
X138793643Y-112381351D01*
X138819761Y-112368897D01*
X138848795Y-112347222D01*
X138882694Y-112334432D01*
X138921091Y-112310513D01*
X138952943Y-112280633D01*
X138991347Y-112259841D01*
X139026184Y-112230938D01*
X139052754Y-112198207D01*
X139086897Y-112173473D01*
X139117879Y-112140050D01*
X139139206Y-112105355D01*
X139168919Y-112077499D01*
X139195750Y-112040018D01*
X139212031Y-112004039D01*
X139237330Y-111973713D01*
X139259712Y-111932638D01*
X139271187Y-111895876D01*
X139292163Y-111863578D01*
X139309800Y-111819373D01*
X139316692Y-111782191D01*
X139333441Y-111748288D01*
X139346036Y-111701416D01*
X139348316Y-111667009D01*
X139360210Y-111634640D01*
X139366707Y-111593276D01*
X139365695Y-111568349D01*
X139372473Y-111544341D01*
X139373758Y-111528064D01*
X139372515Y-111517537D01*
X139375060Y-111507249D01*
X139376043Y-111485986D01*
X139375125Y-111479918D01*
X139376487Y-111473931D01*
X139377168Y-111449036D01*
X139376429Y-111444706D01*
X139377345Y-111440414D01*
X139377722Y-111413243D01*
X139377051Y-111409608D01*
X139377782Y-111405982D01*
X139377853Y-111377890D01*
X139377159Y-111374353D01*
X139377832Y-111370811D01*
X139377596Y-111343155D01*
X139376770Y-111339180D01*
X139377478Y-111335184D01*
X139376935Y-111309318D01*
X139375776Y-111304071D01*
X139376626Y-111298767D01*
X139375774Y-111276047D01*
X139373794Y-111267732D01*
X139374924Y-111259257D01*
X139373761Y-111241039D01*
X139371316Y-111231852D01*
X139372297Y-111222396D01*
X139371897Y-111218106D01*
X139366052Y-111198472D01*
X139366876Y-111178005D01*
X139359643Y-111132055D01*
X139348159Y-111100836D01*
X139346075Y-111067633D01*
X139334129Y-111022553D01*
X139319134Y-110991933D01*
X139313427Y-110958322D01*
X139297322Y-110916117D01*
X139285172Y-110896776D01*
X139279773Y-110874583D01*
X139275838Y-110866114D01*
X139267945Y-110855319D01*
X139264252Y-110842467D01*
X139248925Y-110812747D01*
X139234170Y-110794218D01*
X139225985Y-110771995D01*
X139210091Y-110746027D01*
X139190975Y-110725325D01*
X139178976Y-110699834D01*
X139161161Y-110675719D01*
X139141637Y-110657958D01*
X139128489Y-110635071D01*
X139107393Y-110610912D01*
X139094097Y-110600664D01*
X139084994Y-110586560D01*
X139069086Y-110570138D01*
X139052735Y-110558833D01*
X139040951Y-110542820D01*
X139005549Y-110510494D01*
X138976542Y-110492962D01*
X138953707Y-110467918D01*
X138917300Y-110441085D01*
X138882981Y-110424979D01*
X138854334Y-110400152D01*
X138815872Y-110378246D01*
X138779654Y-110366188D01*
X138748057Y-110344764D01*
X138706488Y-110327214D01*
X138672575Y-110320229D01*
X138642004Y-110303974D01*
X138596277Y-110290212D01*
X138576068Y-110288266D01*
X138557581Y-110279875D01*
X138539831Y-110275724D01*
X138530580Y-110275415D01*
X138522047Y-110271831D01*
X138510320Y-110269438D01*
X138497139Y-110269373D01*
X138484785Y-110264764D01*
X138473726Y-110262971D01*
X138457089Y-110263564D01*
X138441218Y-110258553D01*
X138429608Y-110257277D01*
X138414547Y-110258589D01*
X138399934Y-110254713D01*
X138386553Y-110253869D01*
X138375934Y-110255294D01*
X138365497Y-110252891D01*
X138349127Y-110252400D01*
X138342993Y-110253430D01*
X138336906Y-110252150D01*
X138316327Y-110251926D01*
X138313545Y-110252448D01*
X138310771Y-110251890D01*
X138291710Y-110251848D01*
X138289398Y-110252302D01*
X138287083Y-110251854D01*
X138260022Y-110251990D01*
X138254988Y-110253018D01*
X138249927Y-110252120D01*
X138228055Y-110252575D01*
X138219725Y-110254413D01*
X138211292Y-110253144D01*
X138193457Y-110253983D01*
X138181216Y-110257022D01*
X138168683Y-110255631D01*
X138153733Y-110256917D01*
X138138359Y-110261374D01*
X138122381Y-110260394D01*
X138109160Y-110262191D01*
X138105467Y-110263462D01*
X138077560Y-110254895D01*
X138059385Y-110253044D01*
X138025094Y-110256307D01*
X138010793Y-110252646D01*
X137999231Y-110254300D01*
X137985558Y-110252179D01*
X137966266Y-110256875D01*
X137927130Y-110253311D01*
X137908682Y-110255265D01*
X137864716Y-110268956D01*
X137839965Y-110268758D01*
X137823298Y-110275506D01*
X137816202Y-110276181D01*
X137807653Y-110274193D01*
X137798813Y-110275658D01*
X137790034Y-110273869D01*
X137570959Y-110272852D01*
X137570833Y-110272876D01*
X137570708Y-110272851D01*
X137524839Y-110272656D01*
X137524405Y-110272740D01*
X137523972Y-110272653D01*
X137483931Y-110272537D01*
X137483115Y-110272697D01*
X137482298Y-110272534D01*
X137447568Y-110272522D01*
X137446228Y-110272788D01*
X137444889Y-110272527D01*
X137414948Y-110272642D01*
X137412851Y-110273067D01*
X137410749Y-110272672D01*
X137385080Y-110272939D01*
X137381951Y-110273595D01*
X137378804Y-110273035D01*
X137356884Y-110273478D01*
X137352373Y-110274471D01*
X137347810Y-110273725D01*
X137329120Y-110274368D01*
X137322819Y-110275848D01*
X137316413Y-110274932D01*
X137300433Y-110275800D01*
X137292081Y-110277938D01*
X137283520Y-110276944D01*
X137269730Y-110278060D01*
X137259319Y-110281021D01*
X137248531Y-110280131D01*
X137236412Y-110281519D01*
X137224530Y-110285330D01*
X137212063Y-110284782D01*
X137201093Y-110286467D01*
X137189111Y-110290824D01*
X137176366Y-110290764D01*
X137166027Y-110292770D01*
X137155734Y-110296977D01*
X137144614Y-110297305D01*
X137134387Y-110299655D01*
X137127137Y-110302912D01*
X137119201Y-110303340D01*
X137108564Y-110306059D01*
X137105617Y-110307470D01*
X137102356Y-110307679D01*
X137099232Y-110308511D01*
X137080417Y-110317754D01*
X137059627Y-110320442D01*
X137020079Y-110333764D01*
X136985386Y-110353687D01*
X136946650Y-110363683D01*
X136909394Y-110381629D01*
X136877883Y-110405348D01*
X136841184Y-110419783D01*
X136806909Y-110441805D01*
X136777977Y-110469716D01*
X136742682Y-110488967D01*
X136714716Y-110512316D01*
X136685882Y-110510328D01*
X136653732Y-110498394D01*
X136607016Y-110490899D01*
X136575511Y-110492074D01*
X136545030Y-110484032D01*
X136497215Y-110481083D01*
X136467342Y-110485133D01*
X136437600Y-110480188D01*
X136389666Y-110481703D01*
X136360334Y-110488507D01*
X136330304Y-110486351D01*
X136283231Y-110492250D01*
X136253421Y-110502162D01*
X136222015Y-110502962D01*
X136176786Y-110513162D01*
X136145485Y-110527071D01*
X136111526Y-110531561D01*
X136082919Y-110541289D01*
X136074798Y-110540089D01*
X136070996Y-110538197D01*
X136062663Y-110537620D01*
X136034421Y-110524471D01*
X136029296Y-110523220D01*
X135999411Y-110521933D01*
X135971246Y-110511867D01*
X135964699Y-110510898D01*
X135944441Y-110511900D01*
X135924954Y-110506281D01*
X135916265Y-110505546D01*
X135904345Y-110506886D01*
X135892704Y-110503990D01*
X135881153Y-110503441D01*
X135874583Y-110504426D01*
X135868104Y-110502954D01*
X135852971Y-110502544D01*
X135849559Y-110503127D01*
X135846175Y-110502396D01*
X135826741Y-110502076D01*
X135825093Y-110502376D01*
X135823453Y-110502030D01*
X135798999Y-110501753D01*
X135798374Y-110501870D01*
X135797751Y-110501740D01*
X135772584Y-110501504D01*
X135772256Y-110501566D01*
X135771929Y-110501498D01*
X135742482Y-110501252D01*
X135741590Y-110501422D01*
X135740703Y-110501240D01*
X135716846Y-110501107D01*
X135714793Y-110501504D01*
X135712740Y-110501097D01*
X135693712Y-110501113D01*
X135689793Y-110501896D01*
X135685865Y-110501168D01*
X135670906Y-110501364D01*
X135663904Y-110502852D01*
X135656838Y-110501703D01*
X135645187Y-110502112D01*
X135633557Y-110504853D01*
X135621703Y-110503369D01*
X135612601Y-110504024D01*
X135595328Y-110508771D01*
X135577457Y-110507530D01*
X135570144Y-110508464D01*
X135549126Y-110515508D01*
X135526960Y-110515487D01*
X135520675Y-110516731D01*
X135504456Y-110523431D01*
X135503492Y-110523010D01*
X135494025Y-110520934D01*
X135465028Y-110520371D01*
X135437524Y-110511180D01*
X135425397Y-110509642D01*
X135407570Y-110510895D01*
X135390331Y-110506172D01*
X135374869Y-110505071D01*
X135364614Y-110506362D01*
X135354563Y-110503949D01*
X135335086Y-110503183D01*
X135329480Y-110504071D01*
X135323939Y-110502842D01*
X135299769Y-110502313D01*
X135297025Y-110502797D01*
X135294301Y-110502217D01*
X135264763Y-110501823D01*
X135263838Y-110501994D01*
X135262917Y-110501801D01*
X135247803Y-110501643D01*
X135247477Y-110501704D01*
X135247154Y-110501637D01*
X135217491Y-110501357D01*
X135216624Y-110501521D01*
X135215759Y-110501343D01*
X135191692Y-110501180D01*
X135189736Y-110501555D01*
X135187784Y-110501166D01*
X135168564Y-110501154D01*
X135164793Y-110501902D01*
X135161015Y-110501194D01*
X135145886Y-110501363D01*
X135139178Y-110502775D01*
X135132414Y-110501655D01*
X135120627Y-110502035D01*
X135109348Y-110504659D01*
X135097864Y-110503175D01*
X135088665Y-110503800D01*
X135071898Y-110508336D01*
X135054578Y-110507034D01*
X135047213Y-110507932D01*
X135026210Y-110514838D01*
X135014165Y-110514756D01*
X135003160Y-110510925D01*
X134996167Y-110509949D01*
X134976484Y-110511086D01*
X134957505Y-110505746D01*
X134948204Y-110505020D01*
X134936993Y-110506354D01*
X134926023Y-110503675D01*
X134913639Y-110503140D01*
X134907628Y-110504068D01*
X134901696Y-110502736D01*
X134885456Y-110502338D01*
X134882510Y-110502849D01*
X134879586Y-110502221D01*
X134858714Y-110501901D01*
X134857421Y-110502138D01*
X134856137Y-110501867D01*
X134829859Y-110501570D01*
X134829555Y-110501627D01*
X134829250Y-110501563D01*
X134822682Y-110501495D01*
X134822645Y-110501502D01*
X134822612Y-110501495D01*
X134724980Y-110500495D01*
X134721700Y-110501113D01*
X134718425Y-110500461D01*
X134708682Y-110502399D01*
X134702694Y-110499945D01*
X134680655Y-110495648D01*
X134648627Y-110495769D01*
X134617937Y-110486616D01*
X134593028Y-110484280D01*
X134570640Y-110486591D01*
X134548674Y-110481669D01*
X134519518Y-110480967D01*
X134496209Y-110485023D01*
X134472808Y-110481548D01*
X134428028Y-110483741D01*
X134392007Y-110492758D01*
X134354898Y-110491554D01*
X134314281Y-110498272D01*
X134273240Y-110513732D01*
X134229615Y-110518268D01*
X134192697Y-110529686D01*
X134150058Y-110552775D01*
X134105858Y-110564258D01*
X134105704Y-110564232D01*
X134092740Y-110556936D01*
X134076782Y-110551714D01*
X134072159Y-110551157D01*
X134068068Y-110548931D01*
X134060990Y-110546726D01*
X134055637Y-110546159D01*
X134050870Y-110543666D01*
X134013876Y-110532810D01*
X134001589Y-110531712D01*
X133990448Y-110526415D01*
X133956876Y-110517932D01*
X133941165Y-110517128D01*
X133926647Y-110511068D01*
X133894316Y-110504546D01*
X133877858Y-110504502D01*
X133862369Y-110498940D01*
X133829104Y-110493968D01*
X133815032Y-110494644D01*
X133801578Y-110490462D01*
X133765201Y-110486628D01*
X133757405Y-110487342D01*
X133749876Y-110485199D01*
X133730808Y-110483652D01*
X133716213Y-110485344D01*
X133701918Y-110481965D01*
X133646592Y-110479987D01*
X133619077Y-110484445D01*
X133591496Y-110480390D01*
X133539913Y-110482991D01*
X133509039Y-110490767D01*
X133477239Y-110489255D01*
X133429569Y-110496403D01*
X133395353Y-110508707D01*
X133359067Y-110511071D01*
X133315477Y-110522733D01*
X133278451Y-110540975D01*
X133237941Y-110548892D01*
X133198600Y-110565034D01*
X133175376Y-110580440D01*
X133136304Y-110562370D01*
X133096455Y-110552752D01*
X133060529Y-110533010D01*
X133016026Y-110518945D01*
X132994317Y-110516552D01*
X132974513Y-110507347D01*
X132966559Y-110505411D01*
X132957370Y-110505021D01*
X132948924Y-110501382D01*
X132937340Y-110498907D01*
X132920263Y-110498665D01*
X132904247Y-110492742D01*
X132892954Y-110490944D01*
X132873737Y-110491683D01*
X132855333Y-110486092D01*
X132842991Y-110484871D01*
X132827362Y-110486403D01*
X132812134Y-110482570D01*
X132797402Y-110481829D01*
X132787520Y-110483283D01*
X132777763Y-110481143D01*
X132759299Y-110480782D01*
X132754196Y-110481694D01*
X132749116Y-110480664D01*
X132726854Y-110480583D01*
X132724515Y-110481039D01*
X132722175Y-110480583D01*
X132700116Y-110480664D01*
X132695944Y-110481510D01*
X132691759Y-110480750D01*
X132674726Y-110481035D01*
X132665529Y-110483025D01*
X132656225Y-110481612D01*
X132642894Y-110482221D01*
X132627123Y-110486114D01*
X132610959Y-110484481D01*
X132600008Y-110485532D01*
X132579509Y-110491695D01*
X132558120Y-110490953D01*
X132548224Y-110492567D01*
X132529866Y-110499436D01*
X132510267Y-110499941D01*
X132505692Y-110500974D01*
X132505194Y-110500875D01*
X132399116Y-110500875D01*
X132397984Y-110501100D01*
X132396851Y-110500879D01*
X132367464Y-110500983D01*
X132364959Y-110501491D01*
X132362444Y-110501020D01*
X132335828Y-110501323D01*
X132332848Y-110501951D01*
X132329849Y-110501419D01*
X132306696Y-110501899D01*
X132302591Y-110502804D01*
X132298447Y-110502124D01*
X132279449Y-110502763D01*
X132272677Y-110504348D01*
X132265787Y-110503368D01*
X132251635Y-110504147D01*
X132236222Y-110508105D01*
X132220378Y-110506637D01*
X132211764Y-110507536D01*
X132185794Y-110515579D01*
X132158610Y-110515351D01*
X132157732Y-110515518D01*
X132132540Y-110525706D01*
X132121808Y-110525865D01*
X132116169Y-110528299D01*
X132073717Y-110517621D01*
X132052247Y-110516545D01*
X132032257Y-110508642D01*
X131977499Y-110498670D01*
X131955894Y-110499020D01*
X131935315Y-110492432D01*
X131881299Y-110486275D01*
X131858897Y-110488135D01*
X131837065Y-110482781D01*
X131784574Y-110480462D01*
X131760606Y-110484138D01*
X131736685Y-110480139D01*
X131686499Y-110481681D01*
X131660013Y-110487800D01*
X131632918Y-110485582D01*
X131585822Y-110491006D01*
X131555676Y-110500696D01*
X131524016Y-110501210D01*
X131480790Y-110510540D01*
X131456619Y-110521015D01*
X131430402Y-110523581D01*
X131413570Y-110528676D01*
X131387394Y-110542647D01*
X131358254Y-110548230D01*
X131324263Y-110562029D01*
X131289311Y-110585028D01*
X131249580Y-110598150D01*
X131218399Y-110615811D01*
X131185952Y-110643796D01*
X131147402Y-110662507D01*
X131119818Y-110683400D01*
X131089125Y-110717959D01*
X131050853Y-110743880D01*
X131027647Y-110767379D01*
X130998786Y-110811164D01*
X130960714Y-110847227D01*
X130942675Y-110872702D01*
X130925708Y-110910716D01*
X130899424Y-110942991D01*
X130894042Y-110953152D01*
X130889814Y-110967282D01*
X130881027Y-110979132D01*
X130876768Y-110988139D01*
X130874405Y-110997578D01*
X130868845Y-111005564D01*
X130865209Y-111013889D01*
X130861395Y-111031317D01*
X130852022Y-111046497D01*
X130848960Y-111054711D01*
X130845226Y-111077779D01*
X130834413Y-111098495D01*
X130831875Y-111107167D01*
X130829722Y-111131470D01*
X130820093Y-111153883D01*
X130818031Y-111163585D01*
X130817753Y-111184849D01*
X130810658Y-111204894D01*
X130809020Y-111216196D01*
X130809881Y-111232575D01*
X130805196Y-111248293D01*
X130803935Y-111261765D01*
X130805132Y-111273339D01*
X130802209Y-111284601D01*
X130801275Y-111300814D01*
X130802352Y-111308522D01*
X130800578Y-111316099D01*
X130800014Y-111332870D01*
X130790945Y-111345973D01*
X130776707Y-111378819D01*
X130759359Y-111400429D01*
X130753296Y-111421219D01*
X130731318Y-111452632D01*
X130727415Y-111461511D01*
X130716047Y-111512879D01*
X130714286Y-111515626D01*
X130712584Y-111525127D01*
X130689014Y-111578142D01*
X130686818Y-111587871D01*
X130685559Y-111636947D01*
X130672659Y-111684315D01*
X130671768Y-111697107D01*
X130674180Y-111716030D01*
X130670258Y-111734698D01*
X130670176Y-111742325D01*
X130671968Y-111751870D01*
X130670256Y-111761429D01*
X130670516Y-111775039D01*
X130677279Y-111805941D01*
X130674769Y-111837474D01*
X130675890Y-111847018D01*
X130686547Y-111879916D01*
X130686230Y-111887770D01*
X130696257Y-111915040D01*
X130698938Y-111937882D01*
X130699481Y-111948175D01*
X130700363Y-111950024D01*
X130702656Y-111969552D01*
X130705166Y-111977302D01*
X130720971Y-112005586D01*
X130723902Y-112018980D01*
X130736058Y-112036441D01*
X130750423Y-112083337D01*
X130754853Y-112091571D01*
X130762841Y-112101251D01*
X130763228Y-112102532D01*
X130766796Y-112106891D01*
X130772405Y-112122145D01*
X130773682Y-112124234D01*
X130794092Y-112146362D01*
X130807061Y-112173529D01*
X130815345Y-112184615D01*
X130826737Y-112194866D01*
X130826976Y-112195293D01*
X130828908Y-112196819D01*
X130830889Y-112198601D01*
X130832913Y-112202644D01*
X130856736Y-112223282D01*
X130860667Y-112230329D01*
X130881056Y-112246459D01*
X130921413Y-112295755D01*
X130931678Y-112304200D01*
X130972663Y-112326170D01*
X131000974Y-112351645D01*
X131007629Y-112353999D01*
X131021655Y-112366150D01*
X131031403Y-112371700D01*
X131045148Y-112376273D01*
X131056508Y-112385260D01*
X131075219Y-112394834D01*
X131097730Y-112401224D01*
X131117083Y-112414382D01*
X131149912Y-112421187D01*
X131151765Y-112422180D01*
X131157427Y-112422745D01*
X131217146Y-112435123D01*
X131250437Y-112444573D01*
X131268349Y-112450533D01*
X131270809Y-112450357D01*
X131315443Y-112463027D01*
X131338686Y-112460316D01*
X131361601Y-112465066D01*
X131478516Y-112466006D01*
X131595430Y-112466946D01*
X131598004Y-112466456D01*
X131600575Y-112466967D01*
X131610280Y-112465037D01*
X131630457Y-112472718D01*
X131650878Y-112476170D01*
X131668961Y-112475647D01*
X131686200Y-112481131D01*
X131710651Y-112483873D01*
X131722999Y-112482825D01*
X131734942Y-112486129D01*
X131761934Y-112488118D01*
X131771942Y-112486883D01*
X131781740Y-112489269D01*
X131809782Y-112490463D01*
X131819341Y-112488981D01*
X131828799Y-112490989D01*
X131856397Y-112491343D01*
X131867099Y-112489357D01*
X131877821Y-112491260D01*
X131903483Y-112490730D01*
X131917694Y-112487597D01*
X131932117Y-112489496D01*
X131954352Y-112488039D01*
X131959769Y-112486588D01*
X131980949Y-112515943D01*
X132010777Y-112543699D01*
X132049768Y-112567770D01*
X132081574Y-112600755D01*
X132115603Y-112624399D01*
X132156504Y-112642219D01*
X132191606Y-112669755D01*
X132229443Y-112688919D01*
X132270337Y-112700346D01*
X132306893Y-112721939D01*
X132346106Y-112735687D01*
X132369419Y-112738992D01*
X132390504Y-112749462D01*
X132396958Y-112751210D01*
X132408980Y-112752031D01*
X132419965Y-112756987D01*
X132426199Y-112758430D01*
X132443686Y-112758974D01*
X132459996Y-112765299D01*
X132466686Y-112766472D01*
X132484321Y-112766070D01*
X132501093Y-112771546D01*
X132508915Y-112772483D01*
X132522927Y-112771400D01*
X132536463Y-112775180D01*
X132546093Y-112775913D01*
X132555572Y-112774766D01*
X132564842Y-112777064D01*
X132576953Y-112777629D01*
X132582920Y-112776729D01*
X132588804Y-112778072D01*
X132604073Y-112778501D01*
X132607600Y-112777902D01*
X132611092Y-112778659D01*
X132630193Y-112778986D01*
X132632167Y-112778628D01*
X132634128Y-112779041D01*
X132657737Y-112779300D01*
X132658749Y-112779110D01*
X132659757Y-112779319D01*
X132688548Y-112779544D01*
X132688957Y-112779466D01*
X132689365Y-112779550D01*
X132713991Y-112779711D01*
X132714823Y-112779551D01*
X132715655Y-112779720D01*
X132745114Y-112779836D01*
X132746651Y-112779537D01*
X132748188Y-112779841D01*
X132775927Y-112779817D01*
X132777609Y-112779481D01*
X132779293Y-112779805D01*
X132804597Y-112779650D01*
X132806605Y-112779238D01*
X132808622Y-112779613D01*
X132830773Y-112779338D01*
X132833530Y-112778754D01*
X132836302Y-112779245D01*
X132854583Y-112778860D01*
X132859147Y-112777852D01*
X132863761Y-112778601D01*
X132877455Y-112778116D01*
X132887909Y-112775649D01*
X132898561Y-112777019D01*
X132906951Y-112776444D01*
X132933467Y-112769254D01*
X132960914Y-112770437D01*
X132962790Y-112770147D01*
X133001410Y-112756065D01*
X133019291Y-112755859D01*
X133043776Y-112745385D01*
X133082953Y-112739422D01*
X133105084Y-112731409D01*
X133131143Y-112715656D01*
X133147964Y-112711095D01*
X133168742Y-112695053D01*
X133197397Y-112684605D01*
X133199605Y-112682580D01*
X133213803Y-112678066D01*
X133226846Y-112667069D01*
X133248880Y-112657643D01*
X133266320Y-112645696D01*
X133294393Y-112616967D01*
X133318785Y-112602222D01*
X133342735Y-112569673D01*
X133382462Y-112541448D01*
X133389905Y-112529586D01*
X133404715Y-112517099D01*
X133417201Y-112501466D01*
X133428395Y-112479838D01*
X133440847Y-112467095D01*
X133441015Y-112466675D01*
X133480175Y-112466675D01*
X133487407Y-112465237D01*
X133499689Y-112470125D01*
X133531697Y-112476030D01*
X133543365Y-112475868D01*
X133554358Y-112479792D01*
X133559061Y-112480486D01*
X133571998Y-112479841D01*
X133584363Y-112483707D01*
X133600024Y-112485384D01*
X133613574Y-112484166D01*
X133626715Y-112487678D01*
X133646296Y-112488949D01*
X133654773Y-112487827D01*
X133663091Y-112489818D01*
X133685083Y-112490666D01*
X133691704Y-112489612D01*
X133698255Y-112491038D01*
X133721148Y-112491449D01*
X133727519Y-112490300D01*
X133733871Y-112491551D01*
X133756155Y-112491508D01*
X133763624Y-112490007D01*
X133771132Y-112491304D01*
X133791298Y-112490793D01*
X133802348Y-112488303D01*
X133813567Y-112489840D01*
X133830102Y-112488844D01*
X133848629Y-112483984D01*
X133867729Y-112485461D01*
X133877214Y-112484325D01*
X133911077Y-112473270D01*
X133946675Y-112472091D01*
X133989381Y-112462116D01*
X134026983Y-112445061D01*
X134033648Y-112443978D01*
X134036224Y-112444590D01*
X134066827Y-112445719D01*
X134084812Y-112451874D01*
X134086443Y-112451771D01*
X134099866Y-112456345D01*
X134109938Y-112457683D01*
X134130346Y-112456369D01*
X134150075Y-112461731D01*
X134163037Y-112462627D01*
X134174705Y-112461133D01*
X134186162Y-112463806D01*
X134202694Y-112464349D01*
X134208962Y-112463315D01*
X134215175Y-112464637D01*
X134235959Y-112464914D01*
X134238959Y-112464359D01*
X134241950Y-112464966D01*
X134267670Y-112465068D01*
X134268796Y-112464849D01*
X134269922Y-112465073D01*
X134301259Y-112465087D01*
X134301402Y-112465059D01*
X134301545Y-112465087D01*
X134421563Y-112465087D01*
X134444117Y-112460601D01*
X134466932Y-112463477D01*
X134527506Y-112446889D01*
X134542295Y-112447433D01*
X134542774Y-112447255D01*
X134561443Y-112454189D01*
X134567338Y-112455136D01*
X134588790Y-112454341D01*
X134609367Y-112460468D01*
X134617166Y-112461196D01*
X134630186Y-112459847D01*
X134642871Y-112463074D01*
X134653221Y-112463621D01*
X134660725Y-112462536D01*
X134668113Y-112464234D01*
X134681663Y-112464634D01*
X134685808Y-112463936D01*
X134689920Y-112464825D01*
X134707319Y-112465114D01*
X134709513Y-112464715D01*
X134711693Y-112465171D01*
X134733589Y-112465385D01*
X134734646Y-112465186D01*
X134735703Y-112465403D01*
X134762746Y-112465578D01*
X134763134Y-112465503D01*
X134763518Y-112465582D01*
X134791256Y-112465728D01*
X134791806Y-112465622D01*
X134792356Y-112465733D01*
X134827042Y-112465856D01*
X134828410Y-112465589D01*
X134829778Y-112465860D01*
X134858620Y-112465839D01*
X134860808Y-112465402D01*
X134863001Y-112465821D01*
X134875478Y-112465727D01*
X134884083Y-112483983D01*
X134893450Y-112496648D01*
X134933783Y-112533301D01*
X134943189Y-112548600D01*
X134842325Y-112548600D01*
X134772400Y-112534691D01*
X134702474Y-112548600D01*
X134495372Y-112589795D01*
X134260519Y-112746719D01*
X134103595Y-112981572D01*
X134048491Y-113258600D01*
X134062400Y-113328526D01*
X134062400Y-113717000D01*
X129589600Y-113717000D01*
X129589600Y-107767981D01*
X129601405Y-107725757D01*
X129589600Y-107627924D01*
X129589600Y-107600674D01*
X129581241Y-107558651D01*
X129567568Y-107445336D01*
X129553858Y-107420984D01*
X129548405Y-107393572D01*
X129484991Y-107298666D01*
X129428995Y-107199209D01*
X129407008Y-107181957D01*
X129391481Y-107158719D01*
X129334829Y-107120865D01*
X129445436Y-107098864D01*
X129655480Y-106958516D01*
X129795828Y-106748472D01*
X129845111Y-106500707D01*
X129845111Y-104700707D01*
X129795828Y-104452942D01*
X129655480Y-104242898D01*
X129446975Y-104103578D01*
X129743609Y-103659634D01*
X129848000Y-103134823D01*
X129848001Y-104438762D01*
X129831643Y-104521000D01*
X129896448Y-104846800D01*
X129917106Y-104877717D01*
X130081000Y-105123001D01*
X130150718Y-105169585D01*
X130923414Y-105942282D01*
X130969999Y-106012001D01*
X131185516Y-106156005D01*
X131246199Y-106196552D01*
X131572000Y-106261358D01*
X131654237Y-106245000D01*
X135807767Y-106245000D01*
X135890000Y-106261357D01*
X135972233Y-106245000D01*
X135972237Y-106245000D01*
X136215801Y-106196552D01*
X136492001Y-106012001D01*
X136538587Y-105942280D01*
X136851280Y-105629587D01*
X136921001Y-105583001D01*
X137105552Y-105306801D01*
X137154000Y-105063237D01*
X137154000Y-105063236D01*
X137170358Y-104981000D01*
X137154000Y-104898763D01*
X137154000Y-103916506D01*
X137277099Y-103619320D01*
X137277099Y-103635517D01*
X137425976Y-103994937D01*
X137701063Y-104270024D01*
X138060483Y-104418901D01*
X138449515Y-104418901D01*
X138808935Y-104270024D01*
X139084022Y-103994937D01*
X139232899Y-103635517D01*
X139232899Y-103246485D01*
X139138000Y-103017379D01*
X139138000Y-101075868D01*
X139484000Y-101421868D01*
G36*
X147805801Y-102885678D02*
X147805800Y-109668335D01*
X147570175Y-109825775D01*
X147370800Y-110124161D01*
X147171425Y-109825775D01*
X146680218Y-109497561D01*
X146247056Y-109411400D01*
X145954544Y-109411400D01*
X145521382Y-109497561D01*
X145030175Y-109825775D01*
X144841591Y-110108011D01*
X144819722Y-110055215D01*
X144401985Y-109637478D01*
X144395800Y-109634916D01*
X144395800Y-99475676D01*
X147805801Y-102885678D01*
X147805801Y-102885678D01*
G37*
X147805801Y-102885678D02*
X147805800Y-109668335D01*
X147570175Y-109825775D01*
X147370800Y-110124161D01*
X147171425Y-109825775D01*
X146680218Y-109497561D01*
X146247056Y-109411400D01*
X145954544Y-109411400D01*
X145521382Y-109497561D01*
X145030175Y-109825775D01*
X144841591Y-110108011D01*
X144819722Y-110055215D01*
X144401985Y-109637478D01*
X144395800Y-109634916D01*
X144395800Y-99475676D01*
X147805801Y-102885678D01*
G36*
X149599109Y-95407977D02*
X149592599Y-95440707D01*
X149711733Y-96039634D01*
X150050998Y-96547380D01*
X150295434Y-96710707D01*
X150050998Y-96874034D01*
X149711733Y-97381780D01*
X149592599Y-97980707D01*
X149711733Y-98579634D01*
X150050998Y-99087380D01*
X150295434Y-99250707D01*
X150050998Y-99414034D01*
X149711733Y-99921780D01*
X149592599Y-100520707D01*
X149711733Y-101119634D01*
X150050998Y-101627380D01*
X150305039Y-101797125D01*
X150250095Y-101822741D01*
X149845431Y-102264290D01*
X149666635Y-102695967D01*
X149787293Y-102933707D01*
X151030671Y-102933707D01*
X151030671Y-102913707D01*
X151284671Y-102913707D01*
X151284671Y-102933707D01*
X151304671Y-102933707D01*
X151304671Y-103187707D01*
X151284671Y-103187707D01*
X151284671Y-103207707D01*
X151030671Y-103207707D01*
X151030671Y-103187707D01*
X149787293Y-103187707D01*
X149666635Y-103425447D01*
X149845431Y-103857124D01*
X150061035Y-104092380D01*
X150009906Y-104102550D01*
X149799862Y-104242898D01*
X149659514Y-104452942D01*
X149610231Y-104700707D01*
X149610231Y-106500707D01*
X149659514Y-106748472D01*
X149799862Y-106958516D01*
X150009906Y-107098864D01*
X150257671Y-107148147D01*
X151918600Y-107148147D01*
X151918600Y-109603389D01*
X151760218Y-109497561D01*
X151327056Y-109411400D01*
X151034544Y-109411400D01*
X150601382Y-109497561D01*
X150110175Y-109825775D01*
X149910800Y-110124161D01*
X149711425Y-109825775D01*
X149475800Y-109668335D01*
X149475800Y-102622040D01*
X149492157Y-102539807D01*
X149475800Y-102457574D01*
X149475800Y-102457571D01*
X149427352Y-102214007D01*
X149301572Y-102025764D01*
X149289384Y-102007523D01*
X149289383Y-102007522D01*
X149242801Y-101937807D01*
X149173086Y-101891225D01*
X142596485Y-95314626D01*
X142596483Y-95314623D01*
X142576924Y-95295064D01*
X142434023Y-94950072D01*
X142158936Y-94674985D01*
X141799516Y-94526108D01*
X141410484Y-94526108D01*
X141051064Y-94674985D01*
X140775977Y-94950072D01*
X140725608Y-95071673D01*
X139852946Y-94199011D01*
X148390144Y-94199011D01*
X149599109Y-95407977D01*
X149599109Y-95407977D01*
G37*
X149599109Y-95407977D02*
X149592599Y-95440707D01*
X149711733Y-96039634D01*
X150050998Y-96547380D01*
X150295434Y-96710707D01*
X150050998Y-96874034D01*
X149711733Y-97381780D01*
X149592599Y-97980707D01*
X149711733Y-98579634D01*
X150050998Y-99087380D01*
X150295434Y-99250707D01*
X150050998Y-99414034D01*
X149711733Y-99921780D01*
X149592599Y-100520707D01*
X149711733Y-101119634D01*
X150050998Y-101627380D01*
X150305039Y-101797125D01*
X150250095Y-101822741D01*
X149845431Y-102264290D01*
X149666635Y-102695967D01*
X149787293Y-102933707D01*
X151030671Y-102933707D01*
X151030671Y-102913707D01*
X151284671Y-102913707D01*
X151284671Y-102933707D01*
X151304671Y-102933707D01*
X151304671Y-103187707D01*
X151284671Y-103187707D01*
X151284671Y-103207707D01*
X151030671Y-103207707D01*
X151030671Y-103187707D01*
X149787293Y-103187707D01*
X149666635Y-103425447D01*
X149845431Y-103857124D01*
X150061035Y-104092380D01*
X150009906Y-104102550D01*
X149799862Y-104242898D01*
X149659514Y-104452942D01*
X149610231Y-104700707D01*
X149610231Y-106500707D01*
X149659514Y-106748472D01*
X149799862Y-106958516D01*
X150009906Y-107098864D01*
X150257671Y-107148147D01*
X151918600Y-107148147D01*
X151918600Y-109603389D01*
X151760218Y-109497561D01*
X151327056Y-109411400D01*
X151034544Y-109411400D01*
X150601382Y-109497561D01*
X150110175Y-109825775D01*
X149910800Y-110124161D01*
X149711425Y-109825775D01*
X149475800Y-109668335D01*
X149475800Y-102622040D01*
X149492157Y-102539807D01*
X149475800Y-102457574D01*
X149475800Y-102457571D01*
X149427352Y-102214007D01*
X149301572Y-102025764D01*
X149289384Y-102007523D01*
X149289383Y-102007522D01*
X149242801Y-101937807D01*
X149173086Y-101891225D01*
X142596485Y-95314626D01*
X142596483Y-95314623D01*
X142576924Y-95295064D01*
X142434023Y-94950072D01*
X142158936Y-94674985D01*
X141799516Y-94526108D01*
X141410484Y-94526108D01*
X141051064Y-94674985D01*
X140775977Y-94950072D01*
X140725608Y-95071673D01*
X139852946Y-94199011D01*
X148390144Y-94199011D01*
X149599109Y-95407977D01*
G36*
X137468000Y-100421868D02*
X137468001Y-102845040D01*
X137425976Y-102887065D01*
X137296900Y-103198681D01*
X137296900Y-103182484D01*
X137148023Y-102823064D01*
X136872936Y-102547977D01*
X136513516Y-102399100D01*
X136124484Y-102399100D01*
X135765064Y-102547977D01*
X135489977Y-102823064D01*
X135341100Y-103182484D01*
X135341100Y-103571516D01*
X135484001Y-103916508D01*
X135484000Y-104575000D01*
X131917868Y-104575000D01*
X131518000Y-104175133D01*
X131518000Y-102190232D01*
X131534357Y-102107999D01*
X131518000Y-102025764D01*
X131518000Y-102025763D01*
X131469552Y-101782199D01*
X131285001Y-101505999D01*
X131215286Y-101459417D01*
X129759988Y-100004120D01*
X129743609Y-99921780D01*
X129404344Y-99414034D01*
X129159908Y-99250707D01*
X129404344Y-99087380D01*
X129585870Y-98815707D01*
X131162840Y-98815707D01*
X133484000Y-101136869D01*
X133484001Y-102837492D01*
X133341100Y-103182484D01*
X133341100Y-103571516D01*
X133489977Y-103930936D01*
X133765064Y-104206023D01*
X134124484Y-104354900D01*
X134513516Y-104354900D01*
X134872936Y-104206023D01*
X135148023Y-103930936D01*
X135296900Y-103571516D01*
X135296900Y-103182484D01*
X135154000Y-102837494D01*
X135154000Y-100873232D01*
X135170357Y-100790999D01*
X135154000Y-100708764D01*
X135154000Y-100708763D01*
X135105552Y-100465199D01*
X134967584Y-100258715D01*
X134967583Y-100258714D01*
X134921001Y-100188999D01*
X134851286Y-100142417D01*
X132157294Y-97448427D01*
X132110708Y-97378706D01*
X131834508Y-97194155D01*
X131590944Y-97145707D01*
X131590940Y-97145707D01*
X131508707Y-97129350D01*
X131426474Y-97145707D01*
X129585870Y-97145707D01*
X129404344Y-96874034D01*
X129159908Y-96710707D01*
X129404344Y-96547380D01*
X129585870Y-96275707D01*
X133321840Y-96275707D01*
X137468000Y-100421868D01*
X137468000Y-100421868D01*
G37*
X137468000Y-100421868D02*
X137468001Y-102845040D01*
X137425976Y-102887065D01*
X137296900Y-103198681D01*
X137296900Y-103182484D01*
X137148023Y-102823064D01*
X136872936Y-102547977D01*
X136513516Y-102399100D01*
X136124484Y-102399100D01*
X135765064Y-102547977D01*
X135489977Y-102823064D01*
X135341100Y-103182484D01*
X135341100Y-103571516D01*
X135484001Y-103916508D01*
X135484000Y-104575000D01*
X131917868Y-104575000D01*
X131518000Y-104175133D01*
X131518000Y-102190232D01*
X131534357Y-102107999D01*
X131518000Y-102025764D01*
X131518000Y-102025763D01*
X131469552Y-101782199D01*
X131285001Y-101505999D01*
X131215286Y-101459417D01*
X129759988Y-100004120D01*
X129743609Y-99921780D01*
X129404344Y-99414034D01*
X129159908Y-99250707D01*
X129404344Y-99087380D01*
X129585870Y-98815707D01*
X131162840Y-98815707D01*
X133484000Y-101136869D01*
X133484001Y-102837492D01*
X133341100Y-103182484D01*
X133341100Y-103571516D01*
X133489977Y-103930936D01*
X133765064Y-104206023D01*
X134124484Y-104354900D01*
X134513516Y-104354900D01*
X134872936Y-104206023D01*
X135148023Y-103930936D01*
X135296900Y-103571516D01*
X135296900Y-103182484D01*
X135154000Y-102837494D01*
X135154000Y-100873232D01*
X135170357Y-100790999D01*
X135154000Y-100708764D01*
X135154000Y-100708763D01*
X135105552Y-100465199D01*
X134967584Y-100258715D01*
X134967583Y-100258714D01*
X134921001Y-100188999D01*
X134851286Y-100142417D01*
X132157294Y-97448427D01*
X132110708Y-97378706D01*
X131834508Y-97194155D01*
X131590944Y-97145707D01*
X131590940Y-97145707D01*
X131508707Y-97129350D01*
X131426474Y-97145707D01*
X129585870Y-97145707D01*
X129404344Y-96874034D01*
X129159908Y-96710707D01*
X129404344Y-96547380D01*
X129585870Y-96275707D01*
X133321840Y-96275707D01*
X137468000Y-100421868D01*
G36*
X130966393Y-86822379D02*
X131032848Y-86879066D01*
X131068559Y-86890645D01*
X131099774Y-86911502D01*
X131185445Y-86928543D01*
X131268534Y-86955483D01*
X131305958Y-86952514D01*
X131342778Y-86959838D01*
X131447909Y-86959838D01*
X131356100Y-87181484D01*
X131356100Y-87570516D01*
X131488415Y-87889953D01*
X131499000Y-87943166D01*
X131499000Y-87943170D01*
X131547448Y-88186734D01*
X131732000Y-88462934D01*
X131801718Y-88509518D01*
X142725800Y-99433601D01*
X142725800Y-101158932D01*
X134995577Y-93428710D01*
X134948991Y-93358989D01*
X134672791Y-93174438D01*
X134429227Y-93125990D01*
X134429223Y-93125990D01*
X134346990Y-93109633D01*
X134264757Y-93125990D01*
X131136858Y-93125990D01*
X130756000Y-92745133D01*
X130756000Y-88601232D01*
X130772357Y-88518999D01*
X130756000Y-88436764D01*
X130756000Y-88436763D01*
X130707552Y-88193199D01*
X130608327Y-88044698D01*
X130569584Y-87986715D01*
X130569583Y-87986714D01*
X130523001Y-87916999D01*
X130453285Y-87870417D01*
X129871294Y-87288426D01*
X129824708Y-87218706D01*
X129674487Y-87118331D01*
X129554596Y-86938902D01*
X129692348Y-86911502D01*
X129847273Y-86807984D01*
X129886921Y-86834970D01*
X129890332Y-86836417D01*
X129892964Y-86839034D01*
X130004293Y-86884769D01*
X130115005Y-86931742D01*
X130118714Y-86931774D01*
X130122144Y-86933183D01*
X130233332Y-86954964D01*
X130355255Y-86954610D01*
X130477168Y-86955024D01*
X130590316Y-86932917D01*
X130595494Y-86930793D01*
X130601093Y-86930715D01*
X130709943Y-86883842D01*
X130819542Y-86838881D01*
X130823513Y-86834936D01*
X130828656Y-86832722D01*
X130904116Y-86780767D01*
X130966393Y-86822379D01*
X130966393Y-86822379D01*
G37*
X130966393Y-86822379D02*
X131032848Y-86879066D01*
X131068559Y-86890645D01*
X131099774Y-86911502D01*
X131185445Y-86928543D01*
X131268534Y-86955483D01*
X131305958Y-86952514D01*
X131342778Y-86959838D01*
X131447909Y-86959838D01*
X131356100Y-87181484D01*
X131356100Y-87570516D01*
X131488415Y-87889953D01*
X131499000Y-87943166D01*
X131499000Y-87943170D01*
X131547448Y-88186734D01*
X131732000Y-88462934D01*
X131801718Y-88509518D01*
X142725800Y-99433601D01*
X142725800Y-101158932D01*
X134995577Y-93428710D01*
X134948991Y-93358989D01*
X134672791Y-93174438D01*
X134429227Y-93125990D01*
X134429223Y-93125990D01*
X134346990Y-93109633D01*
X134264757Y-93125990D01*
X131136858Y-93125990D01*
X130756000Y-92745133D01*
X130756000Y-88601232D01*
X130772357Y-88518999D01*
X130756000Y-88436764D01*
X130756000Y-88436763D01*
X130707552Y-88193199D01*
X130608327Y-88044698D01*
X130569584Y-87986715D01*
X130569583Y-87986714D01*
X130523001Y-87916999D01*
X130453285Y-87870417D01*
X129871294Y-87288426D01*
X129824708Y-87218706D01*
X129674487Y-87118331D01*
X129554596Y-86938902D01*
X129692348Y-86911502D01*
X129847273Y-86807984D01*
X129886921Y-86834970D01*
X129890332Y-86836417D01*
X129892964Y-86839034D01*
X130004293Y-86884769D01*
X130115005Y-86931742D01*
X130118714Y-86931774D01*
X130122144Y-86933183D01*
X130233332Y-86954964D01*
X130355255Y-86954610D01*
X130477168Y-86955024D01*
X130590316Y-86932917D01*
X130595494Y-86930793D01*
X130601093Y-86930715D01*
X130709943Y-86883842D01*
X130819542Y-86838881D01*
X130823513Y-86834936D01*
X130828656Y-86832722D01*
X130904116Y-86780767D01*
X130966393Y-86822379D01*
G36*
X141732000Y-82162650D02*
X141890750Y-82321400D01*
X143002000Y-82321400D01*
X143002000Y-82301400D01*
X143256000Y-82301400D01*
X143256000Y-82321400D01*
X144367250Y-82321400D01*
X144526000Y-82162650D01*
X144526000Y-80770800D01*
X146812000Y-80770800D01*
X146812000Y-82162650D01*
X146970750Y-82321400D01*
X148082000Y-82321400D01*
X148082000Y-82301400D01*
X148336000Y-82301400D01*
X148336000Y-82321400D01*
X149447250Y-82321400D01*
X149606000Y-82162650D01*
X149606000Y-80848190D01*
X149884745Y-80916460D01*
X150452435Y-81185554D01*
X150954418Y-81563301D01*
X151370194Y-82034271D01*
X151682774Y-82579224D01*
X151886409Y-83197195D01*
X151918601Y-83375566D01*
X151918601Y-86483016D01*
X151756598Y-86374769D01*
X151308853Y-86285707D01*
X151006489Y-86285707D01*
X150558744Y-86374769D01*
X150050998Y-86714034D01*
X149711733Y-87221780D01*
X149592599Y-87820707D01*
X149711733Y-88419634D01*
X150050998Y-88927380D01*
X150295434Y-89090707D01*
X150050998Y-89254034D01*
X149711733Y-89761780D01*
X149592599Y-90360707D01*
X149711733Y-90959634D01*
X150050998Y-91467380D01*
X150295434Y-91630707D01*
X150050998Y-91794034D01*
X149996898Y-91875000D01*
X140172868Y-91875000D01*
X137267456Y-88969589D01*
X137267456Y-87803050D01*
X137410356Y-87458060D01*
X137410356Y-87069028D01*
X137261479Y-86709608D01*
X136986392Y-86434521D01*
X136626972Y-86285644D01*
X136237940Y-86285644D01*
X135878520Y-86434521D01*
X135603433Y-86709608D01*
X135454556Y-87069028D01*
X135454556Y-87331894D01*
X135327337Y-87141498D01*
X135224269Y-86892669D01*
X135402093Y-86773851D01*
X135539744Y-86567842D01*
X135588080Y-86324838D01*
X135588080Y-85774232D01*
X135539744Y-85531228D01*
X135453333Y-85401905D01*
X135453333Y-85192468D01*
X135485730Y-85170821D01*
X135488004Y-85167417D01*
X135491379Y-85165100D01*
X135556755Y-85064525D01*
X135623381Y-84964812D01*
X135624179Y-84960798D01*
X135626411Y-84957365D01*
X135648320Y-84839432D01*
X135671717Y-84721808D01*
X135670918Y-84717793D01*
X135671666Y-84713768D01*
X135669923Y-84576116D01*
X135669342Y-84530233D01*
X135644457Y-84412912D01*
X135621057Y-84295269D01*
X135618782Y-84291865D01*
X135617933Y-84287860D01*
X135550038Y-84188981D01*
X135483406Y-84089260D01*
X135480002Y-84086986D01*
X135477685Y-84083611D01*
X135465453Y-84075660D01*
X135465495Y-84075547D01*
X135470837Y-84069533D01*
X135480612Y-84052847D01*
X135483235Y-84045279D01*
X135488405Y-84039159D01*
X135497754Y-84022254D01*
X135500185Y-84014633D01*
X135505194Y-84008397D01*
X135514115Y-83991278D01*
X135516353Y-83983612D01*
X135521197Y-83977266D01*
X135529686Y-83959943D01*
X135531730Y-83952239D01*
X135536409Y-83945785D01*
X135544465Y-83928264D01*
X135546309Y-83920548D01*
X135550806Y-83914014D01*
X135558429Y-83896300D01*
X135565761Y-83861910D01*
X135582405Y-83830934D01*
X135627563Y-83683227D01*
X135633684Y-83622439D01*
X135651815Y-83564095D01*
X135668223Y-83408330D01*
X135662704Y-83348108D01*
X135669434Y-83288006D01*
X135657241Y-83144615D01*
X135642020Y-83091916D01*
X135638709Y-83037166D01*
X135603457Y-82902896D01*
X135579341Y-82853365D01*
X135566617Y-82799764D01*
X135536571Y-82734150D01*
X141732000Y-82734150D01*
X141732000Y-84606710D01*
X141828673Y-84840099D01*
X142007302Y-85018727D01*
X142240691Y-85115400D01*
X142843250Y-85115400D01*
X143002000Y-84956650D01*
X143002000Y-82575400D01*
X143256000Y-82575400D01*
X143256000Y-84956650D01*
X143414750Y-85115400D01*
X144017309Y-85115400D01*
X144195779Y-85041475D01*
X144270161Y-85415418D01*
X144598375Y-85906625D01*
X145089582Y-86234839D01*
X145522744Y-86321000D01*
X145815256Y-86321000D01*
X146248418Y-86234839D01*
X146739625Y-85906625D01*
X147067839Y-85415418D01*
X147142221Y-85041475D01*
X147320691Y-85115400D01*
X147923250Y-85115400D01*
X148082000Y-84956650D01*
X148082000Y-82575400D01*
X148336000Y-82575400D01*
X148336000Y-84956650D01*
X148494750Y-85115400D01*
X149097309Y-85115400D01*
X149330698Y-85018727D01*
X149509327Y-84840099D01*
X149606000Y-84606710D01*
X149606000Y-82734150D01*
X149447250Y-82575400D01*
X148336000Y-82575400D01*
X148082000Y-82575400D01*
X146970750Y-82575400D01*
X146812000Y-82734150D01*
X146812000Y-83873692D01*
X146739625Y-83765375D01*
X146248418Y-83437161D01*
X145815256Y-83351000D01*
X145522744Y-83351000D01*
X145089582Y-83437161D01*
X144598375Y-83765375D01*
X144526000Y-83873692D01*
X144526000Y-82734150D01*
X144367250Y-82575400D01*
X143256000Y-82575400D01*
X143002000Y-82575400D01*
X141890750Y-82575400D01*
X141732000Y-82734150D01*
X135536571Y-82734150D01*
X135510292Y-82676764D01*
X135477904Y-82631946D01*
X135456046Y-82581157D01*
X135380636Y-82471579D01*
X135340712Y-82432734D01*
X135310139Y-82386173D01*
X135217632Y-82292169D01*
X135170999Y-82260465D01*
X135132239Y-82219507D01*
X135024622Y-82143226D01*
X134972341Y-82119862D01*
X134926186Y-82085969D01*
X134901818Y-82074585D01*
X134877435Y-82039704D01*
X134857562Y-81990478D01*
X134790020Y-81887398D01*
X134754633Y-81851368D01*
X134728591Y-81808103D01*
X134644796Y-81715995D01*
X134605685Y-81687101D01*
X134574581Y-81649722D01*
X134476520Y-81570355D01*
X134434363Y-81548189D01*
X134398798Y-81516506D01*
X134288457Y-81451650D01*
X134243616Y-81436038D01*
X134203878Y-81410051D01*
X134203057Y-81409720D01*
X134184377Y-81376289D01*
X134168515Y-81357681D01*
X134159236Y-81335060D01*
X134130659Y-81291973D01*
X134113525Y-81274721D01*
X134102624Y-81252987D01*
X134070452Y-81211641D01*
X134052165Y-81195821D01*
X134039730Y-81175082D01*
X134004020Y-81135695D01*
X133982756Y-81119930D01*
X133967323Y-81098427D01*
X133911002Y-81045754D01*
X133884104Y-81029056D01*
X133863201Y-81005280D01*
X133802634Y-80958925D01*
X133760258Y-80938093D01*
X133724199Y-80907606D01*
X133592501Y-80834714D01*
X133532174Y-80815445D01*
X133476689Y-80784917D01*
X133432106Y-80770800D01*
X141732000Y-80770800D01*
X141732000Y-82162650D01*
X141732000Y-82162650D01*
G37*
X141732000Y-82162650D02*
X141890750Y-82321400D01*
X143002000Y-82321400D01*
X143002000Y-82301400D01*
X143256000Y-82301400D01*
X143256000Y-82321400D01*
X144367250Y-82321400D01*
X144526000Y-82162650D01*
X144526000Y-80770800D01*
X146812000Y-80770800D01*
X146812000Y-82162650D01*
X146970750Y-82321400D01*
X148082000Y-82321400D01*
X148082000Y-82301400D01*
X148336000Y-82301400D01*
X148336000Y-82321400D01*
X149447250Y-82321400D01*
X149606000Y-82162650D01*
X149606000Y-80848190D01*
X149884745Y-80916460D01*
X150452435Y-81185554D01*
X150954418Y-81563301D01*
X151370194Y-82034271D01*
X151682774Y-82579224D01*
X151886409Y-83197195D01*
X151918601Y-83375566D01*
X151918601Y-86483016D01*
X151756598Y-86374769D01*
X151308853Y-86285707D01*
X151006489Y-86285707D01*
X150558744Y-86374769D01*
X150050998Y-86714034D01*
X149711733Y-87221780D01*
X149592599Y-87820707D01*
X149711733Y-88419634D01*
X150050998Y-88927380D01*
X150295434Y-89090707D01*
X150050998Y-89254034D01*
X149711733Y-89761780D01*
X149592599Y-90360707D01*
X149711733Y-90959634D01*
X150050998Y-91467380D01*
X150295434Y-91630707D01*
X150050998Y-91794034D01*
X149996898Y-91875000D01*
X140172868Y-91875000D01*
X137267456Y-88969589D01*
X137267456Y-87803050D01*
X137410356Y-87458060D01*
X137410356Y-87069028D01*
X137261479Y-86709608D01*
X136986392Y-86434521D01*
X136626972Y-86285644D01*
X136237940Y-86285644D01*
X135878520Y-86434521D01*
X135603433Y-86709608D01*
X135454556Y-87069028D01*
X135454556Y-87331894D01*
X135327337Y-87141498D01*
X135224269Y-86892669D01*
X135402093Y-86773851D01*
X135539744Y-86567842D01*
X135588080Y-86324838D01*
X135588080Y-85774232D01*
X135539744Y-85531228D01*
X135453333Y-85401905D01*
X135453333Y-85192468D01*
X135485730Y-85170821D01*
X135488004Y-85167417D01*
X135491379Y-85165100D01*
X135556755Y-85064525D01*
X135623381Y-84964812D01*
X135624179Y-84960798D01*
X135626411Y-84957365D01*
X135648320Y-84839432D01*
X135671717Y-84721808D01*
X135670918Y-84717793D01*
X135671666Y-84713768D01*
X135669923Y-84576116D01*
X135669342Y-84530233D01*
X135644457Y-84412912D01*
X135621057Y-84295269D01*
X135618782Y-84291865D01*
X135617933Y-84287860D01*
X135550038Y-84188981D01*
X135483406Y-84089260D01*
X135480002Y-84086986D01*
X135477685Y-84083611D01*
X135465453Y-84075660D01*
X135465495Y-84075547D01*
X135470837Y-84069533D01*
X135480612Y-84052847D01*
X135483235Y-84045279D01*
X135488405Y-84039159D01*
X135497754Y-84022254D01*
X135500185Y-84014633D01*
X135505194Y-84008397D01*
X135514115Y-83991278D01*
X135516353Y-83983612D01*
X135521197Y-83977266D01*
X135529686Y-83959943D01*
X135531730Y-83952239D01*
X135536409Y-83945785D01*
X135544465Y-83928264D01*
X135546309Y-83920548D01*
X135550806Y-83914014D01*
X135558429Y-83896300D01*
X135565761Y-83861910D01*
X135582405Y-83830934D01*
X135627563Y-83683227D01*
X135633684Y-83622439D01*
X135651815Y-83564095D01*
X135668223Y-83408330D01*
X135662704Y-83348108D01*
X135669434Y-83288006D01*
X135657241Y-83144615D01*
X135642020Y-83091916D01*
X135638709Y-83037166D01*
X135603457Y-82902896D01*
X135579341Y-82853365D01*
X135566617Y-82799764D01*
X135536571Y-82734150D01*
X141732000Y-82734150D01*
X141732000Y-84606710D01*
X141828673Y-84840099D01*
X142007302Y-85018727D01*
X142240691Y-85115400D01*
X142843250Y-85115400D01*
X143002000Y-84956650D01*
X143002000Y-82575400D01*
X143256000Y-82575400D01*
X143256000Y-84956650D01*
X143414750Y-85115400D01*
X144017309Y-85115400D01*
X144195779Y-85041475D01*
X144270161Y-85415418D01*
X144598375Y-85906625D01*
X145089582Y-86234839D01*
X145522744Y-86321000D01*
X145815256Y-86321000D01*
X146248418Y-86234839D01*
X146739625Y-85906625D01*
X147067839Y-85415418D01*
X147142221Y-85041475D01*
X147320691Y-85115400D01*
X147923250Y-85115400D01*
X148082000Y-84956650D01*
X148082000Y-82575400D01*
X148336000Y-82575400D01*
X148336000Y-84956650D01*
X148494750Y-85115400D01*
X149097309Y-85115400D01*
X149330698Y-85018727D01*
X149509327Y-84840099D01*
X149606000Y-84606710D01*
X149606000Y-82734150D01*
X149447250Y-82575400D01*
X148336000Y-82575400D01*
X148082000Y-82575400D01*
X146970750Y-82575400D01*
X146812000Y-82734150D01*
X146812000Y-83873692D01*
X146739625Y-83765375D01*
X146248418Y-83437161D01*
X145815256Y-83351000D01*
X145522744Y-83351000D01*
X145089582Y-83437161D01*
X144598375Y-83765375D01*
X144526000Y-83873692D01*
X144526000Y-82734150D01*
X144367250Y-82575400D01*
X143256000Y-82575400D01*
X143002000Y-82575400D01*
X141890750Y-82575400D01*
X141732000Y-82734150D01*
X135536571Y-82734150D01*
X135510292Y-82676764D01*
X135477904Y-82631946D01*
X135456046Y-82581157D01*
X135380636Y-82471579D01*
X135340712Y-82432734D01*
X135310139Y-82386173D01*
X135217632Y-82292169D01*
X135170999Y-82260465D01*
X135132239Y-82219507D01*
X135024622Y-82143226D01*
X134972341Y-82119862D01*
X134926186Y-82085969D01*
X134901818Y-82074585D01*
X134877435Y-82039704D01*
X134857562Y-81990478D01*
X134790020Y-81887398D01*
X134754633Y-81851368D01*
X134728591Y-81808103D01*
X134644796Y-81715995D01*
X134605685Y-81687101D01*
X134574581Y-81649722D01*
X134476520Y-81570355D01*
X134434363Y-81548189D01*
X134398798Y-81516506D01*
X134288457Y-81451650D01*
X134243616Y-81436038D01*
X134203878Y-81410051D01*
X134203057Y-81409720D01*
X134184377Y-81376289D01*
X134168515Y-81357681D01*
X134159236Y-81335060D01*
X134130659Y-81291973D01*
X134113525Y-81274721D01*
X134102624Y-81252987D01*
X134070452Y-81211641D01*
X134052165Y-81195821D01*
X134039730Y-81175082D01*
X134004020Y-81135695D01*
X133982756Y-81119930D01*
X133967323Y-81098427D01*
X133911002Y-81045754D01*
X133884104Y-81029056D01*
X133863201Y-81005280D01*
X133802634Y-80958925D01*
X133760258Y-80938093D01*
X133724199Y-80907606D01*
X133592501Y-80834714D01*
X133532174Y-80815445D01*
X133476689Y-80784917D01*
X133432106Y-80770800D01*
X141732000Y-80770800D01*
X141732000Y-82162650D01*
G04 #@! TD*
M02*
