G04 #@! TF.GenerationSoftware,KiCad,Pcbnew,5.0.0-rc2-unknown-6090f90~65~ubuntu18.04.1*
G04 #@! TF.CreationDate,2018-05-28T20:14:59-06:00*
G04 #@! TF.ProjectId,wemos-01,77656D6F732D30312E6B696361645F70,rev?*
G04 #@! TF.SameCoordinates,Original*
G04 #@! TF.FileFunction,Copper,L1,Top,Signal*
G04 #@! TF.FilePolarity,Positive*
%FSLAX46Y46*%
G04 Gerber Fmt 4.6, Leading zero omitted, Abs format (unit mm)*
G04 Created by KiCad (PCBNEW 5.0.0-rc2-unknown-6090f90~65~ubuntu18.04.1) date Mon May 28 20:14:59 2018*
%MOMM*%
%LPD*%
G01*
G04 APERTURE LIST*
G04 #@! TA.AperFunction,EtchedComponent*
%ADD10C,0.070004*%
G04 #@! TD*
G04 #@! TA.AperFunction,SMDPad,CuDef*
%ADD11R,1.016000X2.032000*%
G04 #@! TD*
G04 #@! TA.AperFunction,SMDPad,CuDef*
%ADD12R,1.524000X4.064000*%
G04 #@! TD*
G04 #@! TA.AperFunction,ComponentPad*
%ADD13R,1.800000X1.800000*%
G04 #@! TD*
G04 #@! TA.AperFunction,ComponentPad*
%ADD14O,1.800000X1.800000*%
G04 #@! TD*
G04 #@! TA.AperFunction,SMDPad,CuDef*
%ADD15R,1.400000X1.295000*%
G04 #@! TD*
G04 #@! TA.AperFunction,ComponentPad*
%ADD16C,1.700000*%
G04 #@! TD*
G04 #@! TA.AperFunction,ComponentPad*
%ADD17O,1.700000X1.700000*%
G04 #@! TD*
G04 #@! TA.AperFunction,SMDPad,CuDef*
%ADD18R,1.000000X2.000000*%
G04 #@! TD*
G04 #@! TA.AperFunction,ViaPad*
%ADD19C,0.685800*%
G04 #@! TD*
G04 #@! TA.AperFunction,Conductor*
%ADD20C,0.800000*%
G04 #@! TD*
G04 #@! TA.AperFunction,Conductor*
%ADD21C,1.016000*%
G04 #@! TD*
G04 #@! TA.AperFunction,Conductor*
%ADD22C,0.400000*%
G04 #@! TD*
G04 #@! TA.AperFunction,Conductor*
%ADD23C,0.254000*%
G04 #@! TD*
G04 APERTURE END LIST*
D10*
G04 #@! TO.C,svg2mod*
G36*
X140921079Y-109288060D02*
X140906969Y-109288100D01*
X140951528Y-109127820D01*
X140981288Y-109129820D01*
X141010218Y-109132820D01*
X141038308Y-109137820D01*
X141065568Y-109143820D01*
X141091998Y-109150820D01*
X141117598Y-109158820D01*
X141142368Y-109167820D01*
X141166308Y-109178520D01*
X141189408Y-109190520D01*
X141211688Y-109203720D01*
X141233128Y-109218220D01*
X141253738Y-109234020D01*
X141273518Y-109251020D01*
X141292468Y-109269320D01*
X141310588Y-109288820D01*
X141327738Y-109309420D01*
X141343778Y-109331020D01*
X141358708Y-109353620D01*
X141372538Y-109377220D01*
X141385238Y-109401720D01*
X141396858Y-109427220D01*
X141407378Y-109453720D01*
X141416778Y-109481120D01*
X141425078Y-109509520D01*
X141432278Y-109538920D01*
X141438378Y-109569220D01*
X141443378Y-109600520D01*
X141447278Y-109632820D01*
X141450078Y-109666020D01*
X141451778Y-109700220D01*
X141452339Y-109735420D01*
X141451778Y-109770520D01*
X141450078Y-109804620D01*
X141447278Y-109837720D01*
X141443378Y-109869920D01*
X141438378Y-109901120D01*
X141432278Y-109931420D01*
X141425078Y-109960720D01*
X141416778Y-109989120D01*
X141407378Y-110016520D01*
X141396868Y-110043020D01*
X141385248Y-110068520D01*
X141372528Y-110093120D01*
X141358698Y-110116720D01*
X141343768Y-110139420D01*
X141327728Y-110161120D01*
X141310578Y-110181920D01*
X141292458Y-110201420D01*
X141273508Y-110219720D01*
X141253728Y-110236720D01*
X141233118Y-110252420D01*
X141211658Y-110266920D01*
X141189388Y-110280120D01*
X141166288Y-110292120D01*
X141142358Y-110302820D01*
X141117608Y-110311820D01*
X141092008Y-110319820D01*
X141065568Y-110326820D01*
X141038298Y-110332820D01*
X141010178Y-110336820D01*
X140981258Y-110339820D01*
X140951518Y-110341820D01*
X140920938Y-110342450D01*
X140890228Y-110341870D01*
X140860348Y-110339870D01*
X140831308Y-110336870D01*
X140803118Y-110331870D01*
X140775768Y-110325870D01*
X140749248Y-110318870D01*
X140723568Y-110310870D01*
X140698728Y-110301870D01*
X140674728Y-110291170D01*
X140651568Y-110279170D01*
X140629248Y-110265970D01*
X140607768Y-110251470D01*
X140587128Y-110235670D01*
X140567328Y-110218670D01*
X140548368Y-110200470D01*
X140530248Y-110180970D01*
X140513228Y-110160270D01*
X140497308Y-110138570D01*
X140482488Y-110115870D01*
X140468768Y-110092170D01*
X140456158Y-110067570D01*
X140444628Y-110042070D01*
X140434188Y-110015570D01*
X140424888Y-109988170D01*
X140416688Y-109959770D01*
X140409588Y-109930470D01*
X140403588Y-109900170D01*
X140398688Y-109868870D01*
X140394888Y-109836670D01*
X140392088Y-109803570D01*
X140390388Y-109769470D01*
X140389835Y-109734370D01*
X140390380Y-109699270D01*
X140391980Y-109665070D01*
X140394680Y-109631870D01*
X140398580Y-109599570D01*
X140403580Y-109568270D01*
X140409580Y-109537970D01*
X140416680Y-109508570D01*
X140424880Y-109480170D01*
X140434180Y-109452770D01*
X140444610Y-109426270D01*
X140456140Y-109400770D01*
X140468770Y-109376270D01*
X140482490Y-109352770D01*
X140497320Y-109330170D01*
X140513250Y-109308570D01*
X140530270Y-109287870D01*
X140548390Y-109268370D01*
X140567350Y-109250070D01*
X140587150Y-109233070D01*
X140607780Y-109217370D01*
X140629280Y-109202870D01*
X140651600Y-109189670D01*
X140674750Y-109177670D01*
X140698740Y-109166970D01*
X140723560Y-109157970D01*
X140749240Y-109149970D01*
X140775760Y-109142970D01*
X140803120Y-109136970D01*
X140831340Y-109132970D01*
X140860370Y-109129970D01*
X140890230Y-109127970D01*
X140920940Y-109127340D01*
X140920938Y-109127240D01*
X140951528Y-109127820D01*
X140906969Y-109288100D01*
X140883849Y-109290100D01*
X140865979Y-109292100D01*
X140848609Y-109295100D01*
X140831739Y-109299100D01*
X140815369Y-109304100D01*
X140799499Y-109310100D01*
X140784129Y-109317100D01*
X140769269Y-109325100D01*
X140754909Y-109334100D01*
X140741039Y-109344100D01*
X140727669Y-109354900D01*
X140714809Y-109366600D01*
X140702449Y-109379200D01*
X140690589Y-109392800D01*
X140679229Y-109407300D01*
X140668469Y-109422500D01*
X140658399Y-109438400D01*
X140648999Y-109455000D01*
X140640299Y-109472300D01*
X140632299Y-109490300D01*
X140624999Y-109509000D01*
X140618399Y-109528400D01*
X140612499Y-109548500D01*
X140607299Y-109569300D01*
X140602799Y-109590800D01*
X140598999Y-109613000D01*
X140595899Y-109635800D01*
X140593499Y-109659300D01*
X140591699Y-109683500D01*
X140590599Y-109708400D01*
X140590246Y-109734000D01*
X140590585Y-109759600D01*
X140591585Y-109784500D01*
X140593285Y-109808800D01*
X140595685Y-109832400D01*
X140598785Y-109855300D01*
X140602585Y-109877500D01*
X140607085Y-109899000D01*
X140612185Y-109919800D01*
X140617985Y-109939900D01*
X140624485Y-109959400D01*
X140631685Y-109978200D01*
X140639585Y-109996300D01*
X140648185Y-110013700D01*
X140657485Y-110030400D01*
X140667385Y-110046400D01*
X140678015Y-110061700D01*
X140689375Y-110076100D01*
X140701245Y-110089600D01*
X140713625Y-110102100D01*
X140726515Y-110113700D01*
X140739915Y-110124400D01*
X140753825Y-110134400D01*
X140768245Y-110143400D01*
X140783165Y-110151400D01*
X140798615Y-110158400D01*
X140814555Y-110164400D01*
X140830995Y-110169400D01*
X140847945Y-110173400D01*
X140865415Y-110176400D01*
X140883395Y-110178400D01*
X140901885Y-110179400D01*
X140920885Y-110179790D01*
X140939625Y-110179260D01*
X140957875Y-110178260D01*
X140975635Y-110176260D01*
X140992905Y-110173260D01*
X141009755Y-110169260D01*
X141026025Y-110164260D01*
X141041775Y-110158260D01*
X141057045Y-110151260D01*
X141071845Y-110143260D01*
X141086155Y-110134260D01*
X141099975Y-110124260D01*
X141113305Y-110113460D01*
X141126135Y-110101760D01*
X141138475Y-110089160D01*
X141150325Y-110075560D01*
X141161685Y-110061060D01*
X141172445Y-110045760D01*
X141182515Y-110029760D01*
X141191915Y-110013060D01*
X141200615Y-109995660D01*
X141208615Y-109977660D01*
X141215915Y-109958960D01*
X141222515Y-109939560D01*
X141228415Y-109919460D01*
X141233615Y-109898760D01*
X141238115Y-109877360D01*
X141241915Y-109855260D01*
X141245015Y-109832460D01*
X141247415Y-109809060D01*
X141249215Y-109784860D01*
X141250315Y-109760060D01*
X141250671Y-109734560D01*
X141250316Y-109709160D01*
X141249216Y-109684460D01*
X141247416Y-109660460D01*
X141245016Y-109637060D01*
X141241916Y-109614360D01*
X141238116Y-109592360D01*
X141233616Y-109571060D01*
X141228416Y-109550360D01*
X141222516Y-109530360D01*
X141215916Y-109511060D01*
X141208616Y-109492360D01*
X141200616Y-109474360D01*
X141191916Y-109457060D01*
X141182516Y-109440360D01*
X141172456Y-109424360D01*
X141161706Y-109409060D01*
X141150346Y-109394360D01*
X141138496Y-109380660D01*
X141126156Y-109367960D01*
X141113326Y-109356160D01*
X141099996Y-109345260D01*
X141086176Y-109335260D01*
X141071866Y-109326260D01*
X141057056Y-109318260D01*
X141041756Y-109311260D01*
X141025966Y-109305260D01*
X141009686Y-109300260D01*
X140992916Y-109296260D01*
X140975656Y-109293260D01*
X140957896Y-109290260D01*
X140939636Y-109288260D01*
X140920886Y-109287730D01*
X140920885Y-109287730D01*
X140920884Y-109287730D01*
X140920883Y-109287730D01*
X140920901Y-109287980D01*
X140920919Y-109288230D01*
X140920938Y-109288480D01*
X140921079Y-109288060D01*
X140921079Y-109288060D01*
G37*
X140921079Y-109288060D02*
X140906969Y-109288100D01*
X140951528Y-109127820D01*
X140981288Y-109129820D01*
X141010218Y-109132820D01*
X141038308Y-109137820D01*
X141065568Y-109143820D01*
X141091998Y-109150820D01*
X141117598Y-109158820D01*
X141142368Y-109167820D01*
X141166308Y-109178520D01*
X141189408Y-109190520D01*
X141211688Y-109203720D01*
X141233128Y-109218220D01*
X141253738Y-109234020D01*
X141273518Y-109251020D01*
X141292468Y-109269320D01*
X141310588Y-109288820D01*
X141327738Y-109309420D01*
X141343778Y-109331020D01*
X141358708Y-109353620D01*
X141372538Y-109377220D01*
X141385238Y-109401720D01*
X141396858Y-109427220D01*
X141407378Y-109453720D01*
X141416778Y-109481120D01*
X141425078Y-109509520D01*
X141432278Y-109538920D01*
X141438378Y-109569220D01*
X141443378Y-109600520D01*
X141447278Y-109632820D01*
X141450078Y-109666020D01*
X141451778Y-109700220D01*
X141452339Y-109735420D01*
X141451778Y-109770520D01*
X141450078Y-109804620D01*
X141447278Y-109837720D01*
X141443378Y-109869920D01*
X141438378Y-109901120D01*
X141432278Y-109931420D01*
X141425078Y-109960720D01*
X141416778Y-109989120D01*
X141407378Y-110016520D01*
X141396868Y-110043020D01*
X141385248Y-110068520D01*
X141372528Y-110093120D01*
X141358698Y-110116720D01*
X141343768Y-110139420D01*
X141327728Y-110161120D01*
X141310578Y-110181920D01*
X141292458Y-110201420D01*
X141273508Y-110219720D01*
X141253728Y-110236720D01*
X141233118Y-110252420D01*
X141211658Y-110266920D01*
X141189388Y-110280120D01*
X141166288Y-110292120D01*
X141142358Y-110302820D01*
X141117608Y-110311820D01*
X141092008Y-110319820D01*
X141065568Y-110326820D01*
X141038298Y-110332820D01*
X141010178Y-110336820D01*
X140981258Y-110339820D01*
X140951518Y-110341820D01*
X140920938Y-110342450D01*
X140890228Y-110341870D01*
X140860348Y-110339870D01*
X140831308Y-110336870D01*
X140803118Y-110331870D01*
X140775768Y-110325870D01*
X140749248Y-110318870D01*
X140723568Y-110310870D01*
X140698728Y-110301870D01*
X140674728Y-110291170D01*
X140651568Y-110279170D01*
X140629248Y-110265970D01*
X140607768Y-110251470D01*
X140587128Y-110235670D01*
X140567328Y-110218670D01*
X140548368Y-110200470D01*
X140530248Y-110180970D01*
X140513228Y-110160270D01*
X140497308Y-110138570D01*
X140482488Y-110115870D01*
X140468768Y-110092170D01*
X140456158Y-110067570D01*
X140444628Y-110042070D01*
X140434188Y-110015570D01*
X140424888Y-109988170D01*
X140416688Y-109959770D01*
X140409588Y-109930470D01*
X140403588Y-109900170D01*
X140398688Y-109868870D01*
X140394888Y-109836670D01*
X140392088Y-109803570D01*
X140390388Y-109769470D01*
X140389835Y-109734370D01*
X140390380Y-109699270D01*
X140391980Y-109665070D01*
X140394680Y-109631870D01*
X140398580Y-109599570D01*
X140403580Y-109568270D01*
X140409580Y-109537970D01*
X140416680Y-109508570D01*
X140424880Y-109480170D01*
X140434180Y-109452770D01*
X140444610Y-109426270D01*
X140456140Y-109400770D01*
X140468770Y-109376270D01*
X140482490Y-109352770D01*
X140497320Y-109330170D01*
X140513250Y-109308570D01*
X140530270Y-109287870D01*
X140548390Y-109268370D01*
X140567350Y-109250070D01*
X140587150Y-109233070D01*
X140607780Y-109217370D01*
X140629280Y-109202870D01*
X140651600Y-109189670D01*
X140674750Y-109177670D01*
X140698740Y-109166970D01*
X140723560Y-109157970D01*
X140749240Y-109149970D01*
X140775760Y-109142970D01*
X140803120Y-109136970D01*
X140831340Y-109132970D01*
X140860370Y-109129970D01*
X140890230Y-109127970D01*
X140920940Y-109127340D01*
X140920938Y-109127240D01*
X140951528Y-109127820D01*
X140906969Y-109288100D01*
X140883849Y-109290100D01*
X140865979Y-109292100D01*
X140848609Y-109295100D01*
X140831739Y-109299100D01*
X140815369Y-109304100D01*
X140799499Y-109310100D01*
X140784129Y-109317100D01*
X140769269Y-109325100D01*
X140754909Y-109334100D01*
X140741039Y-109344100D01*
X140727669Y-109354900D01*
X140714809Y-109366600D01*
X140702449Y-109379200D01*
X140690589Y-109392800D01*
X140679229Y-109407300D01*
X140668469Y-109422500D01*
X140658399Y-109438400D01*
X140648999Y-109455000D01*
X140640299Y-109472300D01*
X140632299Y-109490300D01*
X140624999Y-109509000D01*
X140618399Y-109528400D01*
X140612499Y-109548500D01*
X140607299Y-109569300D01*
X140602799Y-109590800D01*
X140598999Y-109613000D01*
X140595899Y-109635800D01*
X140593499Y-109659300D01*
X140591699Y-109683500D01*
X140590599Y-109708400D01*
X140590246Y-109734000D01*
X140590585Y-109759600D01*
X140591585Y-109784500D01*
X140593285Y-109808800D01*
X140595685Y-109832400D01*
X140598785Y-109855300D01*
X140602585Y-109877500D01*
X140607085Y-109899000D01*
X140612185Y-109919800D01*
X140617985Y-109939900D01*
X140624485Y-109959400D01*
X140631685Y-109978200D01*
X140639585Y-109996300D01*
X140648185Y-110013700D01*
X140657485Y-110030400D01*
X140667385Y-110046400D01*
X140678015Y-110061700D01*
X140689375Y-110076100D01*
X140701245Y-110089600D01*
X140713625Y-110102100D01*
X140726515Y-110113700D01*
X140739915Y-110124400D01*
X140753825Y-110134400D01*
X140768245Y-110143400D01*
X140783165Y-110151400D01*
X140798615Y-110158400D01*
X140814555Y-110164400D01*
X140830995Y-110169400D01*
X140847945Y-110173400D01*
X140865415Y-110176400D01*
X140883395Y-110178400D01*
X140901885Y-110179400D01*
X140920885Y-110179790D01*
X140939625Y-110179260D01*
X140957875Y-110178260D01*
X140975635Y-110176260D01*
X140992905Y-110173260D01*
X141009755Y-110169260D01*
X141026025Y-110164260D01*
X141041775Y-110158260D01*
X141057045Y-110151260D01*
X141071845Y-110143260D01*
X141086155Y-110134260D01*
X141099975Y-110124260D01*
X141113305Y-110113460D01*
X141126135Y-110101760D01*
X141138475Y-110089160D01*
X141150325Y-110075560D01*
X141161685Y-110061060D01*
X141172445Y-110045760D01*
X141182515Y-110029760D01*
X141191915Y-110013060D01*
X141200615Y-109995660D01*
X141208615Y-109977660D01*
X141215915Y-109958960D01*
X141222515Y-109939560D01*
X141228415Y-109919460D01*
X141233615Y-109898760D01*
X141238115Y-109877360D01*
X141241915Y-109855260D01*
X141245015Y-109832460D01*
X141247415Y-109809060D01*
X141249215Y-109784860D01*
X141250315Y-109760060D01*
X141250671Y-109734560D01*
X141250316Y-109709160D01*
X141249216Y-109684460D01*
X141247416Y-109660460D01*
X141245016Y-109637060D01*
X141241916Y-109614360D01*
X141238116Y-109592360D01*
X141233616Y-109571060D01*
X141228416Y-109550360D01*
X141222516Y-109530360D01*
X141215916Y-109511060D01*
X141208616Y-109492360D01*
X141200616Y-109474360D01*
X141191916Y-109457060D01*
X141182516Y-109440360D01*
X141172456Y-109424360D01*
X141161706Y-109409060D01*
X141150346Y-109394360D01*
X141138496Y-109380660D01*
X141126156Y-109367960D01*
X141113326Y-109356160D01*
X141099996Y-109345260D01*
X141086176Y-109335260D01*
X141071866Y-109326260D01*
X141057056Y-109318260D01*
X141041756Y-109311260D01*
X141025966Y-109305260D01*
X141009686Y-109300260D01*
X140992916Y-109296260D01*
X140975656Y-109293260D01*
X140957896Y-109290260D01*
X140939636Y-109288260D01*
X140920886Y-109287730D01*
X140920885Y-109287730D01*
X140920884Y-109287730D01*
X140920883Y-109287730D01*
X140920901Y-109287980D01*
X140920919Y-109288230D01*
X140920938Y-109288480D01*
X140921079Y-109288060D01*
G36*
X139885483Y-109154730D02*
X139886281Y-108778280D01*
X139933821Y-108778280D01*
X139981361Y-108778280D01*
X140028901Y-108778280D01*
X140076441Y-108778280D01*
X140076441Y-108838480D01*
X140076441Y-108898680D01*
X140076441Y-108958880D01*
X140076441Y-109019080D01*
X140028901Y-109019080D01*
X139981361Y-109019080D01*
X139933821Y-109019080D01*
X139886281Y-109019080D01*
X139886281Y-108958880D01*
X139886281Y-108898680D01*
X139886281Y-108838480D01*
X139886281Y-108778280D01*
X139885483Y-109154730D01*
X139897373Y-109154730D01*
X139909253Y-109154730D01*
X139921133Y-109154730D01*
X139933023Y-109154730D01*
X139944903Y-109154730D01*
X139956783Y-109154730D01*
X139968663Y-109154730D01*
X139980553Y-109154730D01*
X139992433Y-109154730D01*
X140004313Y-109154730D01*
X140016203Y-109154730D01*
X140028083Y-109154730D01*
X140039963Y-109154730D01*
X140051853Y-109154730D01*
X140063733Y-109154730D01*
X140075613Y-109154730D01*
X140075613Y-109228330D01*
X140075613Y-109301930D01*
X140075613Y-109375530D01*
X140075613Y-109449130D01*
X140075613Y-109522730D01*
X140075613Y-109596330D01*
X140075613Y-109669930D01*
X140075613Y-109743530D01*
X140075613Y-109817130D01*
X140075613Y-109890730D01*
X140075613Y-109964330D01*
X140075613Y-110037930D01*
X140075613Y-110111530D01*
X140075613Y-110185130D01*
X140075613Y-110258730D01*
X140075613Y-110332330D01*
X140075277Y-110359530D01*
X140074277Y-110385730D01*
X140072577Y-110411030D01*
X140070277Y-110435330D01*
X140067277Y-110458730D01*
X140063677Y-110481130D01*
X140059377Y-110502530D01*
X140054377Y-110523030D01*
X140048777Y-110542630D01*
X140042477Y-110561230D01*
X140035577Y-110578930D01*
X140027977Y-110595630D01*
X140019677Y-110611330D01*
X140010777Y-110626130D01*
X140001177Y-110639930D01*
X139990907Y-110652830D01*
X139980037Y-110664830D01*
X139968357Y-110676030D01*
X139955877Y-110686530D01*
X139942587Y-110696530D01*
X139928487Y-110705530D01*
X139913577Y-110713530D01*
X139897867Y-110720530D01*
X139881347Y-110727530D01*
X139864057Y-110733530D01*
X139845917Y-110738530D01*
X139826957Y-110742530D01*
X139807187Y-110745530D01*
X139786637Y-110748530D01*
X139765267Y-110750530D01*
X139743097Y-110751530D01*
X139720117Y-110751890D01*
X139715617Y-110751890D01*
X139711117Y-110751890D01*
X139706617Y-110751890D01*
X139702117Y-110751890D01*
X139697617Y-110751890D01*
X139693117Y-110751890D01*
X139688617Y-110751890D01*
X139684117Y-110751890D01*
X139679617Y-110751890D01*
X139675117Y-110751890D01*
X139670617Y-110751890D01*
X139666117Y-110751890D01*
X139661617Y-110751890D01*
X139657117Y-110751890D01*
X139652617Y-110751890D01*
X139648117Y-110751890D01*
X139648117Y-110741790D01*
X139648117Y-110731690D01*
X139648117Y-110721590D01*
X139648117Y-110711490D01*
X139648117Y-110701390D01*
X139648117Y-110691290D01*
X139648117Y-110681190D01*
X139648117Y-110671090D01*
X139648117Y-110660990D01*
X139648117Y-110650890D01*
X139648117Y-110640790D01*
X139648117Y-110630690D01*
X139648117Y-110620590D01*
X139648117Y-110610490D01*
X139648117Y-110600390D01*
X139648117Y-110590290D01*
X139651317Y-110590290D01*
X139654517Y-110590290D01*
X139657717Y-110590290D01*
X139660917Y-110590290D01*
X139664117Y-110590290D01*
X139667317Y-110590290D01*
X139670517Y-110590290D01*
X139673717Y-110590290D01*
X139676917Y-110590290D01*
X139680117Y-110590290D01*
X139683317Y-110590290D01*
X139686517Y-110590290D01*
X139689717Y-110590290D01*
X139692917Y-110590290D01*
X139696117Y-110590290D01*
X139699317Y-110590290D01*
X139712617Y-110590100D01*
X139725367Y-110589540D01*
X139737577Y-110588600D01*
X139749247Y-110587600D01*
X139760377Y-110585600D01*
X139770967Y-110583600D01*
X139781017Y-110581600D01*
X139790517Y-110578600D01*
X139799517Y-110575600D01*
X139807917Y-110571600D01*
X139815817Y-110567600D01*
X139823117Y-110562600D01*
X139829717Y-110557600D01*
X139836017Y-110552600D01*
X139841817Y-110546600D01*
X139847017Y-110540600D01*
X139851717Y-110533600D01*
X139856217Y-110526600D01*
X139860417Y-110518600D01*
X139864217Y-110509600D01*
X139867717Y-110499600D01*
X139870917Y-110488700D01*
X139873817Y-110477000D01*
X139876417Y-110464400D01*
X139878717Y-110451000D01*
X139880717Y-110436700D01*
X139882417Y-110421600D01*
X139883817Y-110405700D01*
X139884917Y-110388900D01*
X139885696Y-110371300D01*
X139886157Y-110352800D01*
X139886309Y-110333400D01*
X139886309Y-110259800D01*
X139886310Y-110186200D01*
X139886310Y-110112600D01*
X139886311Y-110039000D01*
X139886312Y-109965400D01*
X139886312Y-109891800D01*
X139886313Y-109818200D01*
X139886314Y-109744600D01*
X139886315Y-109671000D01*
X139886315Y-109597400D01*
X139886316Y-109523800D01*
X139886317Y-109450200D01*
X139886305Y-109376400D01*
X139886293Y-109302700D01*
X139886281Y-109228900D01*
X139885483Y-109154730D01*
X139885483Y-109154730D01*
G37*
X139885483Y-109154730D02*
X139886281Y-108778280D01*
X139933821Y-108778280D01*
X139981361Y-108778280D01*
X140028901Y-108778280D01*
X140076441Y-108778280D01*
X140076441Y-108838480D01*
X140076441Y-108898680D01*
X140076441Y-108958880D01*
X140076441Y-109019080D01*
X140028901Y-109019080D01*
X139981361Y-109019080D01*
X139933821Y-109019080D01*
X139886281Y-109019080D01*
X139886281Y-108958880D01*
X139886281Y-108898680D01*
X139886281Y-108838480D01*
X139886281Y-108778280D01*
X139885483Y-109154730D01*
X139897373Y-109154730D01*
X139909253Y-109154730D01*
X139921133Y-109154730D01*
X139933023Y-109154730D01*
X139944903Y-109154730D01*
X139956783Y-109154730D01*
X139968663Y-109154730D01*
X139980553Y-109154730D01*
X139992433Y-109154730D01*
X140004313Y-109154730D01*
X140016203Y-109154730D01*
X140028083Y-109154730D01*
X140039963Y-109154730D01*
X140051853Y-109154730D01*
X140063733Y-109154730D01*
X140075613Y-109154730D01*
X140075613Y-109228330D01*
X140075613Y-109301930D01*
X140075613Y-109375530D01*
X140075613Y-109449130D01*
X140075613Y-109522730D01*
X140075613Y-109596330D01*
X140075613Y-109669930D01*
X140075613Y-109743530D01*
X140075613Y-109817130D01*
X140075613Y-109890730D01*
X140075613Y-109964330D01*
X140075613Y-110037930D01*
X140075613Y-110111530D01*
X140075613Y-110185130D01*
X140075613Y-110258730D01*
X140075613Y-110332330D01*
X140075277Y-110359530D01*
X140074277Y-110385730D01*
X140072577Y-110411030D01*
X140070277Y-110435330D01*
X140067277Y-110458730D01*
X140063677Y-110481130D01*
X140059377Y-110502530D01*
X140054377Y-110523030D01*
X140048777Y-110542630D01*
X140042477Y-110561230D01*
X140035577Y-110578930D01*
X140027977Y-110595630D01*
X140019677Y-110611330D01*
X140010777Y-110626130D01*
X140001177Y-110639930D01*
X139990907Y-110652830D01*
X139980037Y-110664830D01*
X139968357Y-110676030D01*
X139955877Y-110686530D01*
X139942587Y-110696530D01*
X139928487Y-110705530D01*
X139913577Y-110713530D01*
X139897867Y-110720530D01*
X139881347Y-110727530D01*
X139864057Y-110733530D01*
X139845917Y-110738530D01*
X139826957Y-110742530D01*
X139807187Y-110745530D01*
X139786637Y-110748530D01*
X139765267Y-110750530D01*
X139743097Y-110751530D01*
X139720117Y-110751890D01*
X139715617Y-110751890D01*
X139711117Y-110751890D01*
X139706617Y-110751890D01*
X139702117Y-110751890D01*
X139697617Y-110751890D01*
X139693117Y-110751890D01*
X139688617Y-110751890D01*
X139684117Y-110751890D01*
X139679617Y-110751890D01*
X139675117Y-110751890D01*
X139670617Y-110751890D01*
X139666117Y-110751890D01*
X139661617Y-110751890D01*
X139657117Y-110751890D01*
X139652617Y-110751890D01*
X139648117Y-110751890D01*
X139648117Y-110741790D01*
X139648117Y-110731690D01*
X139648117Y-110721590D01*
X139648117Y-110711490D01*
X139648117Y-110701390D01*
X139648117Y-110691290D01*
X139648117Y-110681190D01*
X139648117Y-110671090D01*
X139648117Y-110660990D01*
X139648117Y-110650890D01*
X139648117Y-110640790D01*
X139648117Y-110630690D01*
X139648117Y-110620590D01*
X139648117Y-110610490D01*
X139648117Y-110600390D01*
X139648117Y-110590290D01*
X139651317Y-110590290D01*
X139654517Y-110590290D01*
X139657717Y-110590290D01*
X139660917Y-110590290D01*
X139664117Y-110590290D01*
X139667317Y-110590290D01*
X139670517Y-110590290D01*
X139673717Y-110590290D01*
X139676917Y-110590290D01*
X139680117Y-110590290D01*
X139683317Y-110590290D01*
X139686517Y-110590290D01*
X139689717Y-110590290D01*
X139692917Y-110590290D01*
X139696117Y-110590290D01*
X139699317Y-110590290D01*
X139712617Y-110590100D01*
X139725367Y-110589540D01*
X139737577Y-110588600D01*
X139749247Y-110587600D01*
X139760377Y-110585600D01*
X139770967Y-110583600D01*
X139781017Y-110581600D01*
X139790517Y-110578600D01*
X139799517Y-110575600D01*
X139807917Y-110571600D01*
X139815817Y-110567600D01*
X139823117Y-110562600D01*
X139829717Y-110557600D01*
X139836017Y-110552600D01*
X139841817Y-110546600D01*
X139847017Y-110540600D01*
X139851717Y-110533600D01*
X139856217Y-110526600D01*
X139860417Y-110518600D01*
X139864217Y-110509600D01*
X139867717Y-110499600D01*
X139870917Y-110488700D01*
X139873817Y-110477000D01*
X139876417Y-110464400D01*
X139878717Y-110451000D01*
X139880717Y-110436700D01*
X139882417Y-110421600D01*
X139883817Y-110405700D01*
X139884917Y-110388900D01*
X139885696Y-110371300D01*
X139886157Y-110352800D01*
X139886309Y-110333400D01*
X139886309Y-110259800D01*
X139886310Y-110186200D01*
X139886310Y-110112600D01*
X139886311Y-110039000D01*
X139886312Y-109965400D01*
X139886312Y-109891800D01*
X139886313Y-109818200D01*
X139886314Y-109744600D01*
X139886315Y-109671000D01*
X139886315Y-109597400D01*
X139886316Y-109523800D01*
X139886317Y-109450200D01*
X139886305Y-109376400D01*
X139886293Y-109302700D01*
X139886281Y-109228900D01*
X139885483Y-109154730D01*
G36*
X138522259Y-109855460D02*
X138522259Y-109811660D01*
X138522259Y-109767860D01*
X138522259Y-109724060D01*
X138522259Y-109680260D01*
X138522259Y-109636460D01*
X138522259Y-109592660D01*
X138522259Y-109548860D01*
X138522259Y-109505060D01*
X138522259Y-109461260D01*
X138522259Y-109417460D01*
X138522259Y-109373660D01*
X138522259Y-109329860D01*
X138522259Y-109286060D01*
X138522259Y-109242260D01*
X138522259Y-109198460D01*
X138522259Y-109154660D01*
X138534139Y-109154660D01*
X138546019Y-109154660D01*
X138557909Y-109154660D01*
X138569789Y-109154660D01*
X138581669Y-109154660D01*
X138593559Y-109154660D01*
X138605439Y-109154660D01*
X138617319Y-109154660D01*
X138629199Y-109154660D01*
X138641089Y-109154660D01*
X138652969Y-109154660D01*
X138664849Y-109154660D01*
X138676739Y-109154660D01*
X138688619Y-109154660D01*
X138700499Y-109154660D01*
X138712379Y-109154660D01*
X138712379Y-109197960D01*
X138712379Y-109241260D01*
X138712379Y-109284560D01*
X138712379Y-109327860D01*
X138712379Y-109371160D01*
X138712379Y-109414560D01*
X138712379Y-109457860D01*
X138712379Y-109501160D01*
X138712379Y-109544460D01*
X138712379Y-109587760D01*
X138712379Y-109631060D01*
X138712379Y-109674360D01*
X138712379Y-109717660D01*
X138712379Y-109761060D01*
X138712379Y-109804360D01*
X138712379Y-109847660D01*
X138712624Y-109867860D01*
X138713366Y-109887460D01*
X138714566Y-109906460D01*
X138716366Y-109924760D01*
X138718666Y-109942460D01*
X138721466Y-109959460D01*
X138724666Y-109975860D01*
X138728366Y-109991660D01*
X138732566Y-110006760D01*
X138737366Y-110021260D01*
X138742666Y-110035060D01*
X138748466Y-110048260D01*
X138754766Y-110060860D01*
X138761566Y-110072760D01*
X138768766Y-110084060D01*
X138776466Y-110094660D01*
X138784766Y-110104660D01*
X138793566Y-110113660D01*
X138802866Y-110122660D01*
X138812666Y-110130660D01*
X138822926Y-110137660D01*
X138833686Y-110144660D01*
X138844946Y-110150660D01*
X138856706Y-110155660D01*
X138868996Y-110160660D01*
X138881756Y-110164660D01*
X138895006Y-110168660D01*
X138908766Y-110171660D01*
X138923006Y-110173660D01*
X138937776Y-110175660D01*
X138953056Y-110176590D01*
X138968836Y-110176890D01*
X138987836Y-110176510D01*
X139006326Y-110175510D01*
X139024306Y-110173510D01*
X139041776Y-110170510D01*
X139058736Y-110167510D01*
X139075186Y-110163510D01*
X139091126Y-110158510D01*
X139106566Y-110152510D01*
X139121466Y-110145510D01*
X139135886Y-110138510D01*
X139149806Y-110130510D01*
X139163216Y-110121510D01*
X139176106Y-110111510D01*
X139188486Y-110101110D01*
X139200356Y-110090010D01*
X139211716Y-110078110D01*
X139222606Y-110065510D01*
X139232796Y-110052410D01*
X139242296Y-110038710D01*
X139251096Y-110024410D01*
X139259196Y-110009610D01*
X139266596Y-109994310D01*
X139273296Y-109978410D01*
X139279296Y-109961910D01*
X139284596Y-109944910D01*
X139289196Y-109927310D01*
X139293096Y-109909210D01*
X139296296Y-109890510D01*
X139298796Y-109871310D01*
X139300496Y-109851510D01*
X139301496Y-109831110D01*
X139301844Y-109810210D01*
X139301844Y-109769210D01*
X139301844Y-109728210D01*
X139301844Y-109687210D01*
X139301844Y-109646210D01*
X139301844Y-109605210D01*
X139301844Y-109564210D01*
X139301844Y-109523210D01*
X139301844Y-109482210D01*
X139301844Y-109441210D01*
X139301844Y-109400210D01*
X139301844Y-109359210D01*
X139301844Y-109318210D01*
X139301844Y-109277210D01*
X139301844Y-109236210D01*
X139301844Y-109195210D01*
X139301844Y-109154210D01*
X139313724Y-109154210D01*
X139325614Y-109154210D01*
X139337494Y-109154210D01*
X139349374Y-109154210D01*
X139361254Y-109154210D01*
X139373144Y-109154210D01*
X139385024Y-109154210D01*
X139396904Y-109154210D01*
X139408794Y-109154210D01*
X139420674Y-109154210D01*
X139432554Y-109154210D01*
X139444434Y-109154210D01*
X139456324Y-109154210D01*
X139468204Y-109154210D01*
X139480084Y-109154210D01*
X139491974Y-109154210D01*
X139491974Y-109226610D01*
X139491974Y-109298910D01*
X139491974Y-109371210D01*
X139491974Y-109443610D01*
X139491974Y-109515910D01*
X139491974Y-109588210D01*
X139491974Y-109660610D01*
X139491974Y-109732910D01*
X139491974Y-109805310D01*
X139491974Y-109877610D01*
X139491974Y-109949910D01*
X139491974Y-110022310D01*
X139491974Y-110094610D01*
X139491974Y-110167010D01*
X139491974Y-110239310D01*
X139491974Y-110311610D01*
X139480084Y-110311610D01*
X139468204Y-110311610D01*
X139456324Y-110311610D01*
X139444434Y-110311610D01*
X139432554Y-110311610D01*
X139420674Y-110311610D01*
X139408794Y-110311610D01*
X139396904Y-110311610D01*
X139385024Y-110311610D01*
X139373144Y-110311610D01*
X139361254Y-110311610D01*
X139349374Y-110311610D01*
X139337494Y-110311610D01*
X139325614Y-110311610D01*
X139313724Y-110311610D01*
X139301844Y-110311610D01*
X139301844Y-110300510D01*
X139301844Y-110289410D01*
X139301844Y-110278310D01*
X139301844Y-110267210D01*
X139301844Y-110256110D01*
X139301844Y-110245010D01*
X139301844Y-110233910D01*
X139301844Y-110222810D01*
X139301844Y-110211710D01*
X139301844Y-110200610D01*
X139301844Y-110189510D01*
X139301844Y-110178410D01*
X139301844Y-110167310D01*
X139301844Y-110156210D01*
X139301844Y-110145110D01*
X139301844Y-110134010D01*
X139293144Y-110147010D01*
X139284244Y-110159610D01*
X139275144Y-110171710D01*
X139265844Y-110183410D01*
X139256444Y-110194710D01*
X139246844Y-110205610D01*
X139237044Y-110216010D01*
X139227044Y-110226010D01*
X139216874Y-110236010D01*
X139206524Y-110245010D01*
X139196004Y-110254010D01*
X139185304Y-110262010D01*
X139174414Y-110270010D01*
X139163364Y-110278010D01*
X139152144Y-110285010D01*
X139140744Y-110292010D01*
X139129254Y-110298010D01*
X139117534Y-110304010D01*
X139105584Y-110309010D01*
X139093394Y-110314010D01*
X139081014Y-110319010D01*
X139068354Y-110323010D01*
X139055444Y-110327010D01*
X139042304Y-110330010D01*
X139028964Y-110333010D01*
X139015364Y-110335010D01*
X139001524Y-110337010D01*
X138987454Y-110339010D01*
X138973154Y-110340010D01*
X138958624Y-110340950D01*
X138943864Y-110341510D01*
X138928864Y-110341700D01*
X138904304Y-110341150D01*
X138880494Y-110339150D01*
X138857434Y-110336150D01*
X138835124Y-110333150D01*
X138813564Y-110329150D01*
X138792764Y-110324150D01*
X138772714Y-110318150D01*
X138753414Y-110311150D01*
X138734874Y-110303150D01*
X138717074Y-110294150D01*
X138700014Y-110283950D01*
X138683714Y-110272850D01*
X138668144Y-110260750D01*
X138653354Y-110247650D01*
X138639324Y-110233550D01*
X138626044Y-110218550D01*
X138613524Y-110202550D01*
X138601814Y-110185750D01*
X138590914Y-110168050D01*
X138580824Y-110149350D01*
X138571524Y-110129850D01*
X138563024Y-110109450D01*
X138555324Y-110088150D01*
X138548424Y-110065950D01*
X138542324Y-110042850D01*
X138537124Y-110018850D01*
X138532724Y-109993950D01*
X138529124Y-109968050D01*
X138526324Y-109941350D01*
X138524324Y-109913750D01*
X138523124Y-109885250D01*
X138522713Y-109855850D01*
X138522713Y-109855860D01*
X138522712Y-109855860D01*
X138522712Y-109855870D01*
X138522711Y-109855880D01*
X138522711Y-109855890D01*
X138522710Y-109855890D01*
X138522710Y-109855900D01*
X138522710Y-109855910D01*
X138522709Y-109855910D01*
X138522709Y-109855920D01*
X138522732Y-109856170D01*
X138522756Y-109856420D01*
X138522779Y-109856670D01*
X138522259Y-109855460D01*
X138522259Y-109855460D01*
G37*
X138522259Y-109855460D02*
X138522259Y-109811660D01*
X138522259Y-109767860D01*
X138522259Y-109724060D01*
X138522259Y-109680260D01*
X138522259Y-109636460D01*
X138522259Y-109592660D01*
X138522259Y-109548860D01*
X138522259Y-109505060D01*
X138522259Y-109461260D01*
X138522259Y-109417460D01*
X138522259Y-109373660D01*
X138522259Y-109329860D01*
X138522259Y-109286060D01*
X138522259Y-109242260D01*
X138522259Y-109198460D01*
X138522259Y-109154660D01*
X138534139Y-109154660D01*
X138546019Y-109154660D01*
X138557909Y-109154660D01*
X138569789Y-109154660D01*
X138581669Y-109154660D01*
X138593559Y-109154660D01*
X138605439Y-109154660D01*
X138617319Y-109154660D01*
X138629199Y-109154660D01*
X138641089Y-109154660D01*
X138652969Y-109154660D01*
X138664849Y-109154660D01*
X138676739Y-109154660D01*
X138688619Y-109154660D01*
X138700499Y-109154660D01*
X138712379Y-109154660D01*
X138712379Y-109197960D01*
X138712379Y-109241260D01*
X138712379Y-109284560D01*
X138712379Y-109327860D01*
X138712379Y-109371160D01*
X138712379Y-109414560D01*
X138712379Y-109457860D01*
X138712379Y-109501160D01*
X138712379Y-109544460D01*
X138712379Y-109587760D01*
X138712379Y-109631060D01*
X138712379Y-109674360D01*
X138712379Y-109717660D01*
X138712379Y-109761060D01*
X138712379Y-109804360D01*
X138712379Y-109847660D01*
X138712624Y-109867860D01*
X138713366Y-109887460D01*
X138714566Y-109906460D01*
X138716366Y-109924760D01*
X138718666Y-109942460D01*
X138721466Y-109959460D01*
X138724666Y-109975860D01*
X138728366Y-109991660D01*
X138732566Y-110006760D01*
X138737366Y-110021260D01*
X138742666Y-110035060D01*
X138748466Y-110048260D01*
X138754766Y-110060860D01*
X138761566Y-110072760D01*
X138768766Y-110084060D01*
X138776466Y-110094660D01*
X138784766Y-110104660D01*
X138793566Y-110113660D01*
X138802866Y-110122660D01*
X138812666Y-110130660D01*
X138822926Y-110137660D01*
X138833686Y-110144660D01*
X138844946Y-110150660D01*
X138856706Y-110155660D01*
X138868996Y-110160660D01*
X138881756Y-110164660D01*
X138895006Y-110168660D01*
X138908766Y-110171660D01*
X138923006Y-110173660D01*
X138937776Y-110175660D01*
X138953056Y-110176590D01*
X138968836Y-110176890D01*
X138987836Y-110176510D01*
X139006326Y-110175510D01*
X139024306Y-110173510D01*
X139041776Y-110170510D01*
X139058736Y-110167510D01*
X139075186Y-110163510D01*
X139091126Y-110158510D01*
X139106566Y-110152510D01*
X139121466Y-110145510D01*
X139135886Y-110138510D01*
X139149806Y-110130510D01*
X139163216Y-110121510D01*
X139176106Y-110111510D01*
X139188486Y-110101110D01*
X139200356Y-110090010D01*
X139211716Y-110078110D01*
X139222606Y-110065510D01*
X139232796Y-110052410D01*
X139242296Y-110038710D01*
X139251096Y-110024410D01*
X139259196Y-110009610D01*
X139266596Y-109994310D01*
X139273296Y-109978410D01*
X139279296Y-109961910D01*
X139284596Y-109944910D01*
X139289196Y-109927310D01*
X139293096Y-109909210D01*
X139296296Y-109890510D01*
X139298796Y-109871310D01*
X139300496Y-109851510D01*
X139301496Y-109831110D01*
X139301844Y-109810210D01*
X139301844Y-109769210D01*
X139301844Y-109728210D01*
X139301844Y-109687210D01*
X139301844Y-109646210D01*
X139301844Y-109605210D01*
X139301844Y-109564210D01*
X139301844Y-109523210D01*
X139301844Y-109482210D01*
X139301844Y-109441210D01*
X139301844Y-109400210D01*
X139301844Y-109359210D01*
X139301844Y-109318210D01*
X139301844Y-109277210D01*
X139301844Y-109236210D01*
X139301844Y-109195210D01*
X139301844Y-109154210D01*
X139313724Y-109154210D01*
X139325614Y-109154210D01*
X139337494Y-109154210D01*
X139349374Y-109154210D01*
X139361254Y-109154210D01*
X139373144Y-109154210D01*
X139385024Y-109154210D01*
X139396904Y-109154210D01*
X139408794Y-109154210D01*
X139420674Y-109154210D01*
X139432554Y-109154210D01*
X139444434Y-109154210D01*
X139456324Y-109154210D01*
X139468204Y-109154210D01*
X139480084Y-109154210D01*
X139491974Y-109154210D01*
X139491974Y-109226610D01*
X139491974Y-109298910D01*
X139491974Y-109371210D01*
X139491974Y-109443610D01*
X139491974Y-109515910D01*
X139491974Y-109588210D01*
X139491974Y-109660610D01*
X139491974Y-109732910D01*
X139491974Y-109805310D01*
X139491974Y-109877610D01*
X139491974Y-109949910D01*
X139491974Y-110022310D01*
X139491974Y-110094610D01*
X139491974Y-110167010D01*
X139491974Y-110239310D01*
X139491974Y-110311610D01*
X139480084Y-110311610D01*
X139468204Y-110311610D01*
X139456324Y-110311610D01*
X139444434Y-110311610D01*
X139432554Y-110311610D01*
X139420674Y-110311610D01*
X139408794Y-110311610D01*
X139396904Y-110311610D01*
X139385024Y-110311610D01*
X139373144Y-110311610D01*
X139361254Y-110311610D01*
X139349374Y-110311610D01*
X139337494Y-110311610D01*
X139325614Y-110311610D01*
X139313724Y-110311610D01*
X139301844Y-110311610D01*
X139301844Y-110300510D01*
X139301844Y-110289410D01*
X139301844Y-110278310D01*
X139301844Y-110267210D01*
X139301844Y-110256110D01*
X139301844Y-110245010D01*
X139301844Y-110233910D01*
X139301844Y-110222810D01*
X139301844Y-110211710D01*
X139301844Y-110200610D01*
X139301844Y-110189510D01*
X139301844Y-110178410D01*
X139301844Y-110167310D01*
X139301844Y-110156210D01*
X139301844Y-110145110D01*
X139301844Y-110134010D01*
X139293144Y-110147010D01*
X139284244Y-110159610D01*
X139275144Y-110171710D01*
X139265844Y-110183410D01*
X139256444Y-110194710D01*
X139246844Y-110205610D01*
X139237044Y-110216010D01*
X139227044Y-110226010D01*
X139216874Y-110236010D01*
X139206524Y-110245010D01*
X139196004Y-110254010D01*
X139185304Y-110262010D01*
X139174414Y-110270010D01*
X139163364Y-110278010D01*
X139152144Y-110285010D01*
X139140744Y-110292010D01*
X139129254Y-110298010D01*
X139117534Y-110304010D01*
X139105584Y-110309010D01*
X139093394Y-110314010D01*
X139081014Y-110319010D01*
X139068354Y-110323010D01*
X139055444Y-110327010D01*
X139042304Y-110330010D01*
X139028964Y-110333010D01*
X139015364Y-110335010D01*
X139001524Y-110337010D01*
X138987454Y-110339010D01*
X138973154Y-110340010D01*
X138958624Y-110340950D01*
X138943864Y-110341510D01*
X138928864Y-110341700D01*
X138904304Y-110341150D01*
X138880494Y-110339150D01*
X138857434Y-110336150D01*
X138835124Y-110333150D01*
X138813564Y-110329150D01*
X138792764Y-110324150D01*
X138772714Y-110318150D01*
X138753414Y-110311150D01*
X138734874Y-110303150D01*
X138717074Y-110294150D01*
X138700014Y-110283950D01*
X138683714Y-110272850D01*
X138668144Y-110260750D01*
X138653354Y-110247650D01*
X138639324Y-110233550D01*
X138626044Y-110218550D01*
X138613524Y-110202550D01*
X138601814Y-110185750D01*
X138590914Y-110168050D01*
X138580824Y-110149350D01*
X138571524Y-110129850D01*
X138563024Y-110109450D01*
X138555324Y-110088150D01*
X138548424Y-110065950D01*
X138542324Y-110042850D01*
X138537124Y-110018850D01*
X138532724Y-109993950D01*
X138529124Y-109968050D01*
X138526324Y-109941350D01*
X138524324Y-109913750D01*
X138523124Y-109885250D01*
X138522713Y-109855850D01*
X138522713Y-109855860D01*
X138522712Y-109855860D01*
X138522712Y-109855870D01*
X138522711Y-109855880D01*
X138522711Y-109855890D01*
X138522710Y-109855890D01*
X138522710Y-109855900D01*
X138522710Y-109855910D01*
X138522709Y-109855910D01*
X138522709Y-109855920D01*
X138522732Y-109856170D01*
X138522756Y-109856420D01*
X138522779Y-109856670D01*
X138522259Y-109855460D01*
G36*
X137954852Y-108704110D02*
X137966737Y-108704110D01*
X137978622Y-108704110D01*
X137990507Y-108704110D01*
X138002392Y-108704110D01*
X138014277Y-108704110D01*
X138026162Y-108704110D01*
X138038047Y-108704110D01*
X138049932Y-108704110D01*
X138061817Y-108704110D01*
X138073702Y-108704110D01*
X138085587Y-108704110D01*
X138097472Y-108704110D01*
X138109357Y-108704110D01*
X138121242Y-108704110D01*
X138133127Y-108704110D01*
X138145012Y-108704110D01*
X138145012Y-108804620D01*
X138145012Y-108905130D01*
X138145012Y-109005640D01*
X138145012Y-109106150D01*
X138145012Y-109206660D01*
X138145012Y-109307170D01*
X138145012Y-109407680D01*
X138145012Y-109508190D01*
X138145012Y-109608700D01*
X138145012Y-109709210D01*
X138145012Y-109809730D01*
X138145012Y-109910240D01*
X138145012Y-110010750D01*
X138145012Y-110111260D01*
X138145012Y-110211770D01*
X138145012Y-110312280D01*
X138133127Y-110312280D01*
X138121242Y-110312280D01*
X138109357Y-110312280D01*
X138097472Y-110312280D01*
X138085587Y-110312280D01*
X138073702Y-110312280D01*
X138061817Y-110312280D01*
X138049932Y-110312280D01*
X138038047Y-110312280D01*
X138026162Y-110312280D01*
X138014277Y-110312280D01*
X138002392Y-110312280D01*
X137990507Y-110312280D01*
X137978622Y-110312280D01*
X137966737Y-110312280D01*
X137954852Y-110312280D01*
X137954852Y-110211770D01*
X137954852Y-110111260D01*
X137954852Y-110010750D01*
X137954852Y-109910240D01*
X137954852Y-109809730D01*
X137954852Y-109709210D01*
X137954852Y-109608700D01*
X137954852Y-109508190D01*
X137954852Y-109407680D01*
X137954852Y-109307170D01*
X137954852Y-109206660D01*
X137954852Y-109106150D01*
X137954852Y-109005640D01*
X137954852Y-108905130D01*
X137954852Y-108804620D01*
X137954852Y-108704110D01*
X137954852Y-108704110D01*
G37*
X137954852Y-108704110D02*
X137966737Y-108704110D01*
X137978622Y-108704110D01*
X137990507Y-108704110D01*
X138002392Y-108704110D01*
X138014277Y-108704110D01*
X138026162Y-108704110D01*
X138038047Y-108704110D01*
X138049932Y-108704110D01*
X138061817Y-108704110D01*
X138073702Y-108704110D01*
X138085587Y-108704110D01*
X138097472Y-108704110D01*
X138109357Y-108704110D01*
X138121242Y-108704110D01*
X138133127Y-108704110D01*
X138145012Y-108704110D01*
X138145012Y-108804620D01*
X138145012Y-108905130D01*
X138145012Y-109005640D01*
X138145012Y-109106150D01*
X138145012Y-109206660D01*
X138145012Y-109307170D01*
X138145012Y-109407680D01*
X138145012Y-109508190D01*
X138145012Y-109608700D01*
X138145012Y-109709210D01*
X138145012Y-109809730D01*
X138145012Y-109910240D01*
X138145012Y-110010750D01*
X138145012Y-110111260D01*
X138145012Y-110211770D01*
X138145012Y-110312280D01*
X138133127Y-110312280D01*
X138121242Y-110312280D01*
X138109357Y-110312280D01*
X138097472Y-110312280D01*
X138085587Y-110312280D01*
X138073702Y-110312280D01*
X138061817Y-110312280D01*
X138049932Y-110312280D01*
X138038047Y-110312280D01*
X138026162Y-110312280D01*
X138014277Y-110312280D01*
X138002392Y-110312280D01*
X137990507Y-110312280D01*
X137978622Y-110312280D01*
X137966737Y-110312280D01*
X137954852Y-110312280D01*
X137954852Y-110211770D01*
X137954852Y-110111260D01*
X137954852Y-110010750D01*
X137954852Y-109910240D01*
X137954852Y-109809730D01*
X137954852Y-109709210D01*
X137954852Y-109608700D01*
X137954852Y-109508190D01*
X137954852Y-109407680D01*
X137954852Y-109307170D01*
X137954852Y-109206660D01*
X137954852Y-109106150D01*
X137954852Y-109005640D01*
X137954852Y-108905130D01*
X137954852Y-108804620D01*
X137954852Y-108704110D01*
G36*
X137367808Y-109154730D02*
X137557976Y-109017210D01*
X137510434Y-109017210D01*
X137462892Y-109017210D01*
X137415350Y-109017210D01*
X137367808Y-109017210D01*
X137367808Y-108957010D01*
X137367808Y-108896810D01*
X137367808Y-108836610D01*
X137367808Y-108776410D01*
X137415350Y-108776410D01*
X137462892Y-108776410D01*
X137510434Y-108776410D01*
X137557976Y-108776410D01*
X137557976Y-108836610D01*
X137557976Y-108896810D01*
X137557976Y-108957010D01*
X137557976Y-109017210D01*
X137367808Y-109154730D01*
X137379693Y-109154730D01*
X137391578Y-109154730D01*
X137403463Y-109154730D01*
X137415348Y-109154730D01*
X137427233Y-109154730D01*
X137439118Y-109154730D01*
X137451003Y-109154730D01*
X137462888Y-109154730D01*
X137474773Y-109154730D01*
X137486658Y-109154730D01*
X137498543Y-109154730D01*
X137510428Y-109154730D01*
X137522313Y-109154730D01*
X137534198Y-109154730D01*
X137546083Y-109154730D01*
X137557968Y-109154730D01*
X137557968Y-109227030D01*
X137557968Y-109299430D01*
X137557968Y-109371730D01*
X137557968Y-109444030D01*
X137557968Y-109516430D01*
X137557968Y-109588730D01*
X137557968Y-109661030D01*
X137557968Y-109733430D01*
X137557968Y-109805730D01*
X137557968Y-109878030D01*
X137557968Y-109950430D01*
X137557968Y-110022730D01*
X137557968Y-110095130D01*
X137557968Y-110167430D01*
X137557968Y-110239730D01*
X137557968Y-110312130D01*
X137546083Y-110312130D01*
X137534198Y-110312130D01*
X137522313Y-110312130D01*
X137510428Y-110312130D01*
X137498543Y-110312130D01*
X137486658Y-110312130D01*
X137474773Y-110312130D01*
X137462888Y-110312130D01*
X137451003Y-110312130D01*
X137439118Y-110312130D01*
X137427233Y-110312130D01*
X137415348Y-110312130D01*
X137403463Y-110312130D01*
X137391578Y-110312130D01*
X137379693Y-110312130D01*
X137367808Y-110312130D01*
X137367808Y-110239730D01*
X137367808Y-110167430D01*
X137367808Y-110095130D01*
X137367808Y-110022730D01*
X137367808Y-109950430D01*
X137367808Y-109878030D01*
X137367808Y-109805730D01*
X137367808Y-109733430D01*
X137367808Y-109661030D01*
X137367808Y-109588730D01*
X137367808Y-109516430D01*
X137367808Y-109444030D01*
X137367808Y-109371730D01*
X137367808Y-109299430D01*
X137367808Y-109227030D01*
X137367808Y-109154730D01*
X137367808Y-109154730D01*
G37*
X137367808Y-109154730D02*
X137557976Y-109017210D01*
X137510434Y-109017210D01*
X137462892Y-109017210D01*
X137415350Y-109017210D01*
X137367808Y-109017210D01*
X137367808Y-108957010D01*
X137367808Y-108896810D01*
X137367808Y-108836610D01*
X137367808Y-108776410D01*
X137415350Y-108776410D01*
X137462892Y-108776410D01*
X137510434Y-108776410D01*
X137557976Y-108776410D01*
X137557976Y-108836610D01*
X137557976Y-108896810D01*
X137557976Y-108957010D01*
X137557976Y-109017210D01*
X137367808Y-109154730D01*
X137379693Y-109154730D01*
X137391578Y-109154730D01*
X137403463Y-109154730D01*
X137415348Y-109154730D01*
X137427233Y-109154730D01*
X137439118Y-109154730D01*
X137451003Y-109154730D01*
X137462888Y-109154730D01*
X137474773Y-109154730D01*
X137486658Y-109154730D01*
X137498543Y-109154730D01*
X137510428Y-109154730D01*
X137522313Y-109154730D01*
X137534198Y-109154730D01*
X137546083Y-109154730D01*
X137557968Y-109154730D01*
X137557968Y-109227030D01*
X137557968Y-109299430D01*
X137557968Y-109371730D01*
X137557968Y-109444030D01*
X137557968Y-109516430D01*
X137557968Y-109588730D01*
X137557968Y-109661030D01*
X137557968Y-109733430D01*
X137557968Y-109805730D01*
X137557968Y-109878030D01*
X137557968Y-109950430D01*
X137557968Y-110022730D01*
X137557968Y-110095130D01*
X137557968Y-110167430D01*
X137557968Y-110239730D01*
X137557968Y-110312130D01*
X137546083Y-110312130D01*
X137534198Y-110312130D01*
X137522313Y-110312130D01*
X137510428Y-110312130D01*
X137498543Y-110312130D01*
X137486658Y-110312130D01*
X137474773Y-110312130D01*
X137462888Y-110312130D01*
X137451003Y-110312130D01*
X137439118Y-110312130D01*
X137427233Y-110312130D01*
X137415348Y-110312130D01*
X137403463Y-110312130D01*
X137391578Y-110312130D01*
X137379693Y-110312130D01*
X137367808Y-110312130D01*
X137367808Y-110239730D01*
X137367808Y-110167430D01*
X137367808Y-110095130D01*
X137367808Y-110022730D01*
X137367808Y-109950430D01*
X137367808Y-109878030D01*
X137367808Y-109805730D01*
X137367808Y-109733430D01*
X137367808Y-109661030D01*
X137367808Y-109588730D01*
X137367808Y-109516430D01*
X137367808Y-109444030D01*
X137367808Y-109371730D01*
X137367808Y-109299430D01*
X137367808Y-109227030D01*
X137367808Y-109154730D01*
G36*
X135978745Y-109154730D02*
X135985045Y-109154730D01*
X135991345Y-109154730D01*
X135997645Y-109154730D01*
X136003945Y-109154730D01*
X136010245Y-109154730D01*
X136016545Y-109154730D01*
X136022845Y-109154730D01*
X136029145Y-109154730D01*
X136035445Y-109154730D01*
X136041745Y-109154730D01*
X136048045Y-109154730D01*
X136054345Y-109154730D01*
X136060645Y-109154730D01*
X136066945Y-109154730D01*
X136073245Y-109154730D01*
X136079545Y-109154730D01*
X136085845Y-109154730D01*
X136092145Y-109154730D01*
X136098445Y-109154730D01*
X136104745Y-109154730D01*
X136111045Y-109154730D01*
X136117345Y-109154730D01*
X136123645Y-109154730D01*
X136129945Y-109154730D01*
X136136245Y-109154730D01*
X136142545Y-109154730D01*
X136148845Y-109154730D01*
X136155145Y-109154730D01*
X136161445Y-109154730D01*
X136167745Y-109154730D01*
X136174045Y-109154730D01*
X136180345Y-109154730D01*
X136191649Y-109185130D01*
X136202953Y-109215530D01*
X136214257Y-109245930D01*
X136225561Y-109276330D01*
X136236865Y-109306730D01*
X136248169Y-109337130D01*
X136259473Y-109367530D01*
X136270777Y-109397930D01*
X136273607Y-109405930D01*
X136276437Y-109413930D01*
X136279267Y-109421930D01*
X136282097Y-109429930D01*
X136284927Y-109437930D01*
X136287757Y-109445930D01*
X136290587Y-109453930D01*
X136293417Y-109461930D01*
X136304721Y-109492330D01*
X136316025Y-109522730D01*
X136327329Y-109553130D01*
X136338633Y-109583530D01*
X136349937Y-109613930D01*
X136361241Y-109644330D01*
X136372545Y-109674730D01*
X136383849Y-109705130D01*
X136395153Y-109735530D01*
X136406457Y-109765930D01*
X136417761Y-109796330D01*
X136429065Y-109826730D01*
X136440369Y-109857130D01*
X136451673Y-109887530D01*
X136462977Y-109917930D01*
X136474281Y-109948330D01*
X136477111Y-109956330D01*
X136479941Y-109964330D01*
X136482771Y-109972330D01*
X136485601Y-109980330D01*
X136488431Y-109988330D01*
X136491261Y-109996330D01*
X136494091Y-110004330D01*
X136496921Y-110012330D01*
X136499751Y-110020330D01*
X136502581Y-110028330D01*
X136505411Y-110036330D01*
X136508241Y-110044330D01*
X136511071Y-110052330D01*
X136513901Y-110060330D01*
X136516731Y-110068330D01*
X136519561Y-110076330D01*
X136522391Y-110084330D01*
X136525221Y-110092330D01*
X136528051Y-110100330D01*
X136530881Y-110108330D01*
X136533711Y-110116330D01*
X136536541Y-110124330D01*
X136539371Y-110132330D01*
X136542201Y-110140330D01*
X136545031Y-110132330D01*
X136547861Y-110124330D01*
X136550691Y-110116330D01*
X136553521Y-110108330D01*
X136556351Y-110100330D01*
X136559181Y-110092330D01*
X136562011Y-110084330D01*
X136564841Y-110076330D01*
X136567671Y-110068330D01*
X136570501Y-110060330D01*
X136573331Y-110052330D01*
X136576161Y-110044330D01*
X136578991Y-110036330D01*
X136581821Y-110028330D01*
X136584651Y-110020330D01*
X136587481Y-110012330D01*
X136590311Y-110004330D01*
X136593141Y-109996330D01*
X136595971Y-109988330D01*
X136598801Y-109980330D01*
X136601631Y-109972330D01*
X136604461Y-109964330D01*
X136607291Y-109956330D01*
X136610121Y-109948330D01*
X136621425Y-109917930D01*
X136632729Y-109887530D01*
X136644033Y-109857130D01*
X136655337Y-109826730D01*
X136666641Y-109796330D01*
X136677945Y-109765930D01*
X136689249Y-109735530D01*
X136700553Y-109705130D01*
X136711857Y-109674730D01*
X136723161Y-109644330D01*
X136734465Y-109613930D01*
X136745769Y-109583530D01*
X136757073Y-109553130D01*
X136768377Y-109522730D01*
X136779681Y-109492330D01*
X136790985Y-109461930D01*
X136793815Y-109453930D01*
X136796645Y-109445930D01*
X136799475Y-109437930D01*
X136802305Y-109429930D01*
X136805135Y-109421930D01*
X136807965Y-109413930D01*
X136810795Y-109405930D01*
X136813625Y-109397930D01*
X136824929Y-109367530D01*
X136836233Y-109337130D01*
X136847537Y-109306730D01*
X136858841Y-109276330D01*
X136870145Y-109245930D01*
X136881449Y-109215530D01*
X136892753Y-109185130D01*
X136904057Y-109154730D01*
X136910357Y-109154730D01*
X136916657Y-109154730D01*
X136922957Y-109154730D01*
X136929257Y-109154730D01*
X136935557Y-109154730D01*
X136941857Y-109154730D01*
X136948157Y-109154730D01*
X136954457Y-109154730D01*
X136960757Y-109154730D01*
X136967057Y-109154730D01*
X136973357Y-109154730D01*
X136979657Y-109154730D01*
X136985957Y-109154730D01*
X136992257Y-109154730D01*
X136998557Y-109154730D01*
X137004857Y-109154730D01*
X137011157Y-109154730D01*
X137017457Y-109154730D01*
X137023757Y-109154730D01*
X137030057Y-109154730D01*
X137036357Y-109154730D01*
X137042657Y-109154730D01*
X137048957Y-109154730D01*
X137055257Y-109154730D01*
X137061557Y-109154730D01*
X137067857Y-109154730D01*
X137074157Y-109154730D01*
X137080457Y-109154730D01*
X137086757Y-109154730D01*
X137093057Y-109154730D01*
X137099357Y-109154730D01*
X137105657Y-109154730D01*
X137092092Y-109190930D01*
X137078527Y-109227130D01*
X137064962Y-109263330D01*
X137051397Y-109299530D01*
X137037832Y-109335730D01*
X137024267Y-109371930D01*
X137010702Y-109408130D01*
X136997137Y-109444330D01*
X136983572Y-109480530D01*
X136970007Y-109516730D01*
X136956442Y-109552930D01*
X136942877Y-109589130D01*
X136929312Y-109625330D01*
X136915747Y-109661530D01*
X136902182Y-109697730D01*
X136888617Y-109733930D01*
X136875052Y-109770130D01*
X136861487Y-109806330D01*
X136847922Y-109842530D01*
X136834357Y-109878730D01*
X136820792Y-109914930D01*
X136807227Y-109951130D01*
X136803837Y-109960130D01*
X136800447Y-109969130D01*
X136797057Y-109978130D01*
X136793667Y-109987130D01*
X136790277Y-109996130D01*
X136786887Y-110005130D01*
X136783497Y-110014130D01*
X136780107Y-110023130D01*
X136766542Y-110059330D01*
X136752977Y-110095530D01*
X136739412Y-110131730D01*
X136725847Y-110167930D01*
X136712282Y-110204130D01*
X136698717Y-110240330D01*
X136685152Y-110276530D01*
X136671587Y-110312730D01*
X136663517Y-110312730D01*
X136655447Y-110312730D01*
X136647377Y-110312730D01*
X136639307Y-110312730D01*
X136631237Y-110312730D01*
X136623167Y-110312730D01*
X136615097Y-110312730D01*
X136607027Y-110312730D01*
X136598957Y-110312730D01*
X136590887Y-110312730D01*
X136582817Y-110312730D01*
X136574747Y-110312730D01*
X136566677Y-110312730D01*
X136558607Y-110312730D01*
X136550537Y-110312730D01*
X136542467Y-110312730D01*
X136534397Y-110312730D01*
X136526327Y-110312730D01*
X136518257Y-110312730D01*
X136510187Y-110312730D01*
X136502117Y-110312730D01*
X136494047Y-110312730D01*
X136485977Y-110312730D01*
X136477907Y-110312730D01*
X136469837Y-110312730D01*
X136461767Y-110312730D01*
X136453697Y-110312730D01*
X136445627Y-110312730D01*
X136437557Y-110312730D01*
X136429487Y-110312730D01*
X136421417Y-110312730D01*
X136413347Y-110312730D01*
X136399782Y-110276530D01*
X136386217Y-110240330D01*
X136372652Y-110204130D01*
X136359087Y-110167930D01*
X136345522Y-110131730D01*
X136331957Y-110095530D01*
X136318392Y-110059330D01*
X136304827Y-110023130D01*
X136301437Y-110014130D01*
X136298047Y-110005130D01*
X136294657Y-109996130D01*
X136291267Y-109987130D01*
X136287877Y-109978130D01*
X136284487Y-109969130D01*
X136281097Y-109960130D01*
X136277707Y-109951130D01*
X136264142Y-109914930D01*
X136250577Y-109878730D01*
X136237012Y-109842530D01*
X136223447Y-109806330D01*
X136209882Y-109770130D01*
X136196317Y-109733930D01*
X136182752Y-109697730D01*
X136169187Y-109661530D01*
X136155622Y-109625330D01*
X136142057Y-109589130D01*
X136128492Y-109552930D01*
X136114927Y-109516730D01*
X136101362Y-109480530D01*
X136087797Y-109444330D01*
X136074232Y-109408130D01*
X136060667Y-109371930D01*
X136047102Y-109335730D01*
X136033537Y-109299530D01*
X136019972Y-109263330D01*
X136006407Y-109227130D01*
X135992842Y-109190930D01*
X135978745Y-109154730D01*
X135978745Y-109154730D01*
G37*
X135978745Y-109154730D02*
X135985045Y-109154730D01*
X135991345Y-109154730D01*
X135997645Y-109154730D01*
X136003945Y-109154730D01*
X136010245Y-109154730D01*
X136016545Y-109154730D01*
X136022845Y-109154730D01*
X136029145Y-109154730D01*
X136035445Y-109154730D01*
X136041745Y-109154730D01*
X136048045Y-109154730D01*
X136054345Y-109154730D01*
X136060645Y-109154730D01*
X136066945Y-109154730D01*
X136073245Y-109154730D01*
X136079545Y-109154730D01*
X136085845Y-109154730D01*
X136092145Y-109154730D01*
X136098445Y-109154730D01*
X136104745Y-109154730D01*
X136111045Y-109154730D01*
X136117345Y-109154730D01*
X136123645Y-109154730D01*
X136129945Y-109154730D01*
X136136245Y-109154730D01*
X136142545Y-109154730D01*
X136148845Y-109154730D01*
X136155145Y-109154730D01*
X136161445Y-109154730D01*
X136167745Y-109154730D01*
X136174045Y-109154730D01*
X136180345Y-109154730D01*
X136191649Y-109185130D01*
X136202953Y-109215530D01*
X136214257Y-109245930D01*
X136225561Y-109276330D01*
X136236865Y-109306730D01*
X136248169Y-109337130D01*
X136259473Y-109367530D01*
X136270777Y-109397930D01*
X136273607Y-109405930D01*
X136276437Y-109413930D01*
X136279267Y-109421930D01*
X136282097Y-109429930D01*
X136284927Y-109437930D01*
X136287757Y-109445930D01*
X136290587Y-109453930D01*
X136293417Y-109461930D01*
X136304721Y-109492330D01*
X136316025Y-109522730D01*
X136327329Y-109553130D01*
X136338633Y-109583530D01*
X136349937Y-109613930D01*
X136361241Y-109644330D01*
X136372545Y-109674730D01*
X136383849Y-109705130D01*
X136395153Y-109735530D01*
X136406457Y-109765930D01*
X136417761Y-109796330D01*
X136429065Y-109826730D01*
X136440369Y-109857130D01*
X136451673Y-109887530D01*
X136462977Y-109917930D01*
X136474281Y-109948330D01*
X136477111Y-109956330D01*
X136479941Y-109964330D01*
X136482771Y-109972330D01*
X136485601Y-109980330D01*
X136488431Y-109988330D01*
X136491261Y-109996330D01*
X136494091Y-110004330D01*
X136496921Y-110012330D01*
X136499751Y-110020330D01*
X136502581Y-110028330D01*
X136505411Y-110036330D01*
X136508241Y-110044330D01*
X136511071Y-110052330D01*
X136513901Y-110060330D01*
X136516731Y-110068330D01*
X136519561Y-110076330D01*
X136522391Y-110084330D01*
X136525221Y-110092330D01*
X136528051Y-110100330D01*
X136530881Y-110108330D01*
X136533711Y-110116330D01*
X136536541Y-110124330D01*
X136539371Y-110132330D01*
X136542201Y-110140330D01*
X136545031Y-110132330D01*
X136547861Y-110124330D01*
X136550691Y-110116330D01*
X136553521Y-110108330D01*
X136556351Y-110100330D01*
X136559181Y-110092330D01*
X136562011Y-110084330D01*
X136564841Y-110076330D01*
X136567671Y-110068330D01*
X136570501Y-110060330D01*
X136573331Y-110052330D01*
X136576161Y-110044330D01*
X136578991Y-110036330D01*
X136581821Y-110028330D01*
X136584651Y-110020330D01*
X136587481Y-110012330D01*
X136590311Y-110004330D01*
X136593141Y-109996330D01*
X136595971Y-109988330D01*
X136598801Y-109980330D01*
X136601631Y-109972330D01*
X136604461Y-109964330D01*
X136607291Y-109956330D01*
X136610121Y-109948330D01*
X136621425Y-109917930D01*
X136632729Y-109887530D01*
X136644033Y-109857130D01*
X136655337Y-109826730D01*
X136666641Y-109796330D01*
X136677945Y-109765930D01*
X136689249Y-109735530D01*
X136700553Y-109705130D01*
X136711857Y-109674730D01*
X136723161Y-109644330D01*
X136734465Y-109613930D01*
X136745769Y-109583530D01*
X136757073Y-109553130D01*
X136768377Y-109522730D01*
X136779681Y-109492330D01*
X136790985Y-109461930D01*
X136793815Y-109453930D01*
X136796645Y-109445930D01*
X136799475Y-109437930D01*
X136802305Y-109429930D01*
X136805135Y-109421930D01*
X136807965Y-109413930D01*
X136810795Y-109405930D01*
X136813625Y-109397930D01*
X136824929Y-109367530D01*
X136836233Y-109337130D01*
X136847537Y-109306730D01*
X136858841Y-109276330D01*
X136870145Y-109245930D01*
X136881449Y-109215530D01*
X136892753Y-109185130D01*
X136904057Y-109154730D01*
X136910357Y-109154730D01*
X136916657Y-109154730D01*
X136922957Y-109154730D01*
X136929257Y-109154730D01*
X136935557Y-109154730D01*
X136941857Y-109154730D01*
X136948157Y-109154730D01*
X136954457Y-109154730D01*
X136960757Y-109154730D01*
X136967057Y-109154730D01*
X136973357Y-109154730D01*
X136979657Y-109154730D01*
X136985957Y-109154730D01*
X136992257Y-109154730D01*
X136998557Y-109154730D01*
X137004857Y-109154730D01*
X137011157Y-109154730D01*
X137017457Y-109154730D01*
X137023757Y-109154730D01*
X137030057Y-109154730D01*
X137036357Y-109154730D01*
X137042657Y-109154730D01*
X137048957Y-109154730D01*
X137055257Y-109154730D01*
X137061557Y-109154730D01*
X137067857Y-109154730D01*
X137074157Y-109154730D01*
X137080457Y-109154730D01*
X137086757Y-109154730D01*
X137093057Y-109154730D01*
X137099357Y-109154730D01*
X137105657Y-109154730D01*
X137092092Y-109190930D01*
X137078527Y-109227130D01*
X137064962Y-109263330D01*
X137051397Y-109299530D01*
X137037832Y-109335730D01*
X137024267Y-109371930D01*
X137010702Y-109408130D01*
X136997137Y-109444330D01*
X136983572Y-109480530D01*
X136970007Y-109516730D01*
X136956442Y-109552930D01*
X136942877Y-109589130D01*
X136929312Y-109625330D01*
X136915747Y-109661530D01*
X136902182Y-109697730D01*
X136888617Y-109733930D01*
X136875052Y-109770130D01*
X136861487Y-109806330D01*
X136847922Y-109842530D01*
X136834357Y-109878730D01*
X136820792Y-109914930D01*
X136807227Y-109951130D01*
X136803837Y-109960130D01*
X136800447Y-109969130D01*
X136797057Y-109978130D01*
X136793667Y-109987130D01*
X136790277Y-109996130D01*
X136786887Y-110005130D01*
X136783497Y-110014130D01*
X136780107Y-110023130D01*
X136766542Y-110059330D01*
X136752977Y-110095530D01*
X136739412Y-110131730D01*
X136725847Y-110167930D01*
X136712282Y-110204130D01*
X136698717Y-110240330D01*
X136685152Y-110276530D01*
X136671587Y-110312730D01*
X136663517Y-110312730D01*
X136655447Y-110312730D01*
X136647377Y-110312730D01*
X136639307Y-110312730D01*
X136631237Y-110312730D01*
X136623167Y-110312730D01*
X136615097Y-110312730D01*
X136607027Y-110312730D01*
X136598957Y-110312730D01*
X136590887Y-110312730D01*
X136582817Y-110312730D01*
X136574747Y-110312730D01*
X136566677Y-110312730D01*
X136558607Y-110312730D01*
X136550537Y-110312730D01*
X136542467Y-110312730D01*
X136534397Y-110312730D01*
X136526327Y-110312730D01*
X136518257Y-110312730D01*
X136510187Y-110312730D01*
X136502117Y-110312730D01*
X136494047Y-110312730D01*
X136485977Y-110312730D01*
X136477907Y-110312730D01*
X136469837Y-110312730D01*
X136461767Y-110312730D01*
X136453697Y-110312730D01*
X136445627Y-110312730D01*
X136437557Y-110312730D01*
X136429487Y-110312730D01*
X136421417Y-110312730D01*
X136413347Y-110312730D01*
X136399782Y-110276530D01*
X136386217Y-110240330D01*
X136372652Y-110204130D01*
X136359087Y-110167930D01*
X136345522Y-110131730D01*
X136331957Y-110095530D01*
X136318392Y-110059330D01*
X136304827Y-110023130D01*
X136301437Y-110014130D01*
X136298047Y-110005130D01*
X136294657Y-109996130D01*
X136291267Y-109987130D01*
X136287877Y-109978130D01*
X136284487Y-109969130D01*
X136281097Y-109960130D01*
X136277707Y-109951130D01*
X136264142Y-109914930D01*
X136250577Y-109878730D01*
X136237012Y-109842530D01*
X136223447Y-109806330D01*
X136209882Y-109770130D01*
X136196317Y-109733930D01*
X136182752Y-109697730D01*
X136169187Y-109661530D01*
X136155622Y-109625330D01*
X136142057Y-109589130D01*
X136128492Y-109552930D01*
X136114927Y-109516730D01*
X136101362Y-109480530D01*
X136087797Y-109444330D01*
X136074232Y-109408130D01*
X136060667Y-109371930D01*
X136047102Y-109335730D01*
X136033537Y-109299530D01*
X136019972Y-109263330D01*
X136006407Y-109227130D01*
X135992842Y-109190930D01*
X135978745Y-109154730D01*
G36*
X135269744Y-109288060D02*
X134879082Y-109287160D01*
X134897160Y-109267560D01*
X134916123Y-109249260D01*
X134935944Y-109232260D01*
X134956596Y-109216560D01*
X134978094Y-109202060D01*
X135000410Y-109188860D01*
X135023556Y-109176860D01*
X135047547Y-109166160D01*
X135072369Y-109157160D01*
X135098047Y-109149160D01*
X135124572Y-109142160D01*
X135151933Y-109136160D01*
X135180152Y-109132160D01*
X135209185Y-109129160D01*
X135239048Y-109127160D01*
X135269755Y-109126530D01*
X135269753Y-109126530D01*
X135300343Y-109127110D01*
X135330102Y-109129110D01*
X135359029Y-109132110D01*
X135387124Y-109137110D01*
X135414380Y-109143110D01*
X135440812Y-109150110D01*
X135466416Y-109158110D01*
X135491187Y-109167110D01*
X135515124Y-109177810D01*
X135538229Y-109189810D01*
X135560502Y-109203010D01*
X135581944Y-109217510D01*
X135602554Y-109233310D01*
X135622332Y-109250310D01*
X135641279Y-109268510D01*
X135659394Y-109288010D01*
X135676561Y-109308610D01*
X135692598Y-109330210D01*
X135707520Y-109352810D01*
X135721340Y-109376410D01*
X135734043Y-109400910D01*
X135745660Y-109426410D01*
X135756179Y-109452910D01*
X135765589Y-109480310D01*
X135773889Y-109508710D01*
X135781079Y-109538110D01*
X135787159Y-109568410D01*
X135792139Y-109599710D01*
X135796009Y-109632010D01*
X135798779Y-109665210D01*
X135800439Y-109699410D01*
X135800992Y-109734610D01*
X135800439Y-109769710D01*
X135798779Y-109803810D01*
X135796009Y-109836910D01*
X135792139Y-109869110D01*
X135787159Y-109900310D01*
X135781079Y-109930610D01*
X135773889Y-109959910D01*
X135765589Y-109988310D01*
X135756189Y-110015710D01*
X135745680Y-110042210D01*
X135734062Y-110067710D01*
X135721339Y-110092310D01*
X135707512Y-110115910D01*
X135692578Y-110138610D01*
X135676538Y-110160310D01*
X135659392Y-110181110D01*
X135641319Y-110200710D01*
X135622368Y-110219010D01*
X135602567Y-110236010D01*
X135581943Y-110251710D01*
X135560481Y-110266210D01*
X135538210Y-110279410D01*
X135515116Y-110291410D01*
X135491186Y-110302110D01*
X135466432Y-110311110D01*
X135440830Y-110319110D01*
X135414390Y-110326110D01*
X135387122Y-110332110D01*
X135359004Y-110336110D01*
X135330080Y-110339110D01*
X135300334Y-110341110D01*
X135269752Y-110341740D01*
X135239037Y-110341160D01*
X135209162Y-110339160D01*
X135180126Y-110336160D01*
X135151930Y-110331160D01*
X135124581Y-110325160D01*
X135098064Y-110318160D01*
X135072383Y-110310160D01*
X135047543Y-110301160D01*
X135023546Y-110290460D01*
X135000389Y-110278460D01*
X134978071Y-110265260D01*
X134956593Y-110250760D01*
X134935955Y-110234960D01*
X134916156Y-110217960D01*
X134897197Y-110199760D01*
X134879078Y-110180260D01*
X134861974Y-110159560D01*
X134846061Y-110137860D01*
X134831282Y-110115160D01*
X134817583Y-110091460D01*
X134804972Y-110066860D01*
X134793440Y-110041360D01*
X134782998Y-110014860D01*
X134773658Y-109987460D01*
X134765418Y-109959060D01*
X134758278Y-109929760D01*
X134752238Y-109899460D01*
X134747298Y-109868160D01*
X134743458Y-109835960D01*
X134740718Y-109802860D01*
X134739068Y-109768760D01*
X134738519Y-109733660D01*
X134739068Y-109698560D01*
X134740718Y-109664360D01*
X134743458Y-109631160D01*
X134747298Y-109598860D01*
X134752238Y-109567560D01*
X134758278Y-109537260D01*
X134765418Y-109507860D01*
X134773658Y-109479460D01*
X134782998Y-109452060D01*
X134793430Y-109425560D01*
X134804959Y-109400060D01*
X134817587Y-109375560D01*
X134831313Y-109352060D01*
X134846138Y-109329460D01*
X134862061Y-109307860D01*
X134879082Y-109287160D01*
X135269744Y-109288060D01*
X135255654Y-109288420D01*
X135232505Y-109289420D01*
X135214636Y-109291420D01*
X135197268Y-109294420D01*
X135180400Y-109298420D01*
X135164033Y-109303420D01*
X135148167Y-109309420D01*
X135132802Y-109316420D01*
X135117937Y-109324420D01*
X135103572Y-109333420D01*
X135089708Y-109343420D01*
X135076345Y-109354220D01*
X135063482Y-109365920D01*
X135051120Y-109378520D01*
X135039258Y-109392120D01*
X135027897Y-109406620D01*
X135017134Y-109421820D01*
X135007065Y-109437720D01*
X134997695Y-109454320D01*
X134989015Y-109471620D01*
X134981025Y-109489620D01*
X134973735Y-109508320D01*
X134967135Y-109527720D01*
X134961235Y-109547820D01*
X134956025Y-109568620D01*
X134951515Y-109590120D01*
X134947695Y-109612320D01*
X134944575Y-109635120D01*
X134942145Y-109658620D01*
X134940405Y-109682820D01*
X134939365Y-109707720D01*
X134939017Y-109733320D01*
X134939360Y-109758920D01*
X134940390Y-109783820D01*
X134942110Y-109808120D01*
X134944510Y-109831720D01*
X134947600Y-109854620D01*
X134951370Y-109876820D01*
X134955830Y-109898320D01*
X134960980Y-109919120D01*
X134966810Y-109939220D01*
X134973330Y-109958720D01*
X134980540Y-109977520D01*
X134988430Y-109995620D01*
X134997030Y-110013020D01*
X135006290Y-110029720D01*
X135016230Y-110045720D01*
X135026862Y-110061020D01*
X135038227Y-110075420D01*
X135050100Y-110088920D01*
X135062482Y-110101420D01*
X135075373Y-110113020D01*
X135088773Y-110123720D01*
X135102681Y-110133720D01*
X135117098Y-110142720D01*
X135132024Y-110150720D01*
X135147475Y-110157720D01*
X135163416Y-110163720D01*
X135179858Y-110168720D01*
X135196813Y-110172720D01*
X135214282Y-110175720D01*
X135232260Y-110177720D01*
X135250746Y-110178720D01*
X135269741Y-110179110D01*
X135288486Y-110178580D01*
X135306738Y-110177580D01*
X135324498Y-110175580D01*
X135341765Y-110172580D01*
X135358621Y-110168580D01*
X135374894Y-110163580D01*
X135390639Y-110157580D01*
X135405909Y-110150580D01*
X135420714Y-110142580D01*
X135435026Y-110133580D01*
X135448845Y-110123580D01*
X135462172Y-110112780D01*
X135475006Y-110101080D01*
X135487348Y-110088480D01*
X135499197Y-110074880D01*
X135510554Y-110060380D01*
X135521317Y-110045080D01*
X135531386Y-110029080D01*
X135540756Y-110012380D01*
X135549436Y-109994980D01*
X135557426Y-109976980D01*
X135564716Y-109958280D01*
X135571316Y-109938880D01*
X135577216Y-109918780D01*
X135582426Y-109898080D01*
X135586936Y-109876680D01*
X135590756Y-109854580D01*
X135593886Y-109831780D01*
X135596316Y-109808380D01*
X135598056Y-109784180D01*
X135599106Y-109759380D01*
X135599456Y-109733880D01*
X135599109Y-109708480D01*
X135598069Y-109683780D01*
X135596329Y-109659780D01*
X135593899Y-109636380D01*
X135590769Y-109613680D01*
X135586949Y-109591680D01*
X135582439Y-109570380D01*
X135577229Y-109549680D01*
X135571329Y-109529680D01*
X135564729Y-109510380D01*
X135557439Y-109491680D01*
X135549449Y-109473680D01*
X135540749Y-109456380D01*
X135531379Y-109439680D01*
X135521319Y-109423680D01*
X135510562Y-109408380D01*
X135499205Y-109393680D01*
X135487356Y-109379980D01*
X135475014Y-109367280D01*
X135462180Y-109355480D01*
X135448853Y-109344580D01*
X135435034Y-109334580D01*
X135420722Y-109325580D01*
X135405917Y-109317580D01*
X135390620Y-109310580D01*
X135374830Y-109304580D01*
X135358548Y-109299580D01*
X135341774Y-109295580D01*
X135324515Y-109292580D01*
X135306754Y-109289580D01*
X135283749Y-109287580D01*
X135269749Y-109287020D01*
X135269750Y-109287270D01*
X135269752Y-109287520D01*
X135269753Y-109287770D01*
X135269744Y-109288060D01*
X135269744Y-109288060D01*
G37*
X135269744Y-109288060D02*
X134879082Y-109287160D01*
X134897160Y-109267560D01*
X134916123Y-109249260D01*
X134935944Y-109232260D01*
X134956596Y-109216560D01*
X134978094Y-109202060D01*
X135000410Y-109188860D01*
X135023556Y-109176860D01*
X135047547Y-109166160D01*
X135072369Y-109157160D01*
X135098047Y-109149160D01*
X135124572Y-109142160D01*
X135151933Y-109136160D01*
X135180152Y-109132160D01*
X135209185Y-109129160D01*
X135239048Y-109127160D01*
X135269755Y-109126530D01*
X135269753Y-109126530D01*
X135300343Y-109127110D01*
X135330102Y-109129110D01*
X135359029Y-109132110D01*
X135387124Y-109137110D01*
X135414380Y-109143110D01*
X135440812Y-109150110D01*
X135466416Y-109158110D01*
X135491187Y-109167110D01*
X135515124Y-109177810D01*
X135538229Y-109189810D01*
X135560502Y-109203010D01*
X135581944Y-109217510D01*
X135602554Y-109233310D01*
X135622332Y-109250310D01*
X135641279Y-109268510D01*
X135659394Y-109288010D01*
X135676561Y-109308610D01*
X135692598Y-109330210D01*
X135707520Y-109352810D01*
X135721340Y-109376410D01*
X135734043Y-109400910D01*
X135745660Y-109426410D01*
X135756179Y-109452910D01*
X135765589Y-109480310D01*
X135773889Y-109508710D01*
X135781079Y-109538110D01*
X135787159Y-109568410D01*
X135792139Y-109599710D01*
X135796009Y-109632010D01*
X135798779Y-109665210D01*
X135800439Y-109699410D01*
X135800992Y-109734610D01*
X135800439Y-109769710D01*
X135798779Y-109803810D01*
X135796009Y-109836910D01*
X135792139Y-109869110D01*
X135787159Y-109900310D01*
X135781079Y-109930610D01*
X135773889Y-109959910D01*
X135765589Y-109988310D01*
X135756189Y-110015710D01*
X135745680Y-110042210D01*
X135734062Y-110067710D01*
X135721339Y-110092310D01*
X135707512Y-110115910D01*
X135692578Y-110138610D01*
X135676538Y-110160310D01*
X135659392Y-110181110D01*
X135641319Y-110200710D01*
X135622368Y-110219010D01*
X135602567Y-110236010D01*
X135581943Y-110251710D01*
X135560481Y-110266210D01*
X135538210Y-110279410D01*
X135515116Y-110291410D01*
X135491186Y-110302110D01*
X135466432Y-110311110D01*
X135440830Y-110319110D01*
X135414390Y-110326110D01*
X135387122Y-110332110D01*
X135359004Y-110336110D01*
X135330080Y-110339110D01*
X135300334Y-110341110D01*
X135269752Y-110341740D01*
X135239037Y-110341160D01*
X135209162Y-110339160D01*
X135180126Y-110336160D01*
X135151930Y-110331160D01*
X135124581Y-110325160D01*
X135098064Y-110318160D01*
X135072383Y-110310160D01*
X135047543Y-110301160D01*
X135023546Y-110290460D01*
X135000389Y-110278460D01*
X134978071Y-110265260D01*
X134956593Y-110250760D01*
X134935955Y-110234960D01*
X134916156Y-110217960D01*
X134897197Y-110199760D01*
X134879078Y-110180260D01*
X134861974Y-110159560D01*
X134846061Y-110137860D01*
X134831282Y-110115160D01*
X134817583Y-110091460D01*
X134804972Y-110066860D01*
X134793440Y-110041360D01*
X134782998Y-110014860D01*
X134773658Y-109987460D01*
X134765418Y-109959060D01*
X134758278Y-109929760D01*
X134752238Y-109899460D01*
X134747298Y-109868160D01*
X134743458Y-109835960D01*
X134740718Y-109802860D01*
X134739068Y-109768760D01*
X134738519Y-109733660D01*
X134739068Y-109698560D01*
X134740718Y-109664360D01*
X134743458Y-109631160D01*
X134747298Y-109598860D01*
X134752238Y-109567560D01*
X134758278Y-109537260D01*
X134765418Y-109507860D01*
X134773658Y-109479460D01*
X134782998Y-109452060D01*
X134793430Y-109425560D01*
X134804959Y-109400060D01*
X134817587Y-109375560D01*
X134831313Y-109352060D01*
X134846138Y-109329460D01*
X134862061Y-109307860D01*
X134879082Y-109287160D01*
X135269744Y-109288060D01*
X135255654Y-109288420D01*
X135232505Y-109289420D01*
X135214636Y-109291420D01*
X135197268Y-109294420D01*
X135180400Y-109298420D01*
X135164033Y-109303420D01*
X135148167Y-109309420D01*
X135132802Y-109316420D01*
X135117937Y-109324420D01*
X135103572Y-109333420D01*
X135089708Y-109343420D01*
X135076345Y-109354220D01*
X135063482Y-109365920D01*
X135051120Y-109378520D01*
X135039258Y-109392120D01*
X135027897Y-109406620D01*
X135017134Y-109421820D01*
X135007065Y-109437720D01*
X134997695Y-109454320D01*
X134989015Y-109471620D01*
X134981025Y-109489620D01*
X134973735Y-109508320D01*
X134967135Y-109527720D01*
X134961235Y-109547820D01*
X134956025Y-109568620D01*
X134951515Y-109590120D01*
X134947695Y-109612320D01*
X134944575Y-109635120D01*
X134942145Y-109658620D01*
X134940405Y-109682820D01*
X134939365Y-109707720D01*
X134939017Y-109733320D01*
X134939360Y-109758920D01*
X134940390Y-109783820D01*
X134942110Y-109808120D01*
X134944510Y-109831720D01*
X134947600Y-109854620D01*
X134951370Y-109876820D01*
X134955830Y-109898320D01*
X134960980Y-109919120D01*
X134966810Y-109939220D01*
X134973330Y-109958720D01*
X134980540Y-109977520D01*
X134988430Y-109995620D01*
X134997030Y-110013020D01*
X135006290Y-110029720D01*
X135016230Y-110045720D01*
X135026862Y-110061020D01*
X135038227Y-110075420D01*
X135050100Y-110088920D01*
X135062482Y-110101420D01*
X135075373Y-110113020D01*
X135088773Y-110123720D01*
X135102681Y-110133720D01*
X135117098Y-110142720D01*
X135132024Y-110150720D01*
X135147475Y-110157720D01*
X135163416Y-110163720D01*
X135179858Y-110168720D01*
X135196813Y-110172720D01*
X135214282Y-110175720D01*
X135232260Y-110177720D01*
X135250746Y-110178720D01*
X135269741Y-110179110D01*
X135288486Y-110178580D01*
X135306738Y-110177580D01*
X135324498Y-110175580D01*
X135341765Y-110172580D01*
X135358621Y-110168580D01*
X135374894Y-110163580D01*
X135390639Y-110157580D01*
X135405909Y-110150580D01*
X135420714Y-110142580D01*
X135435026Y-110133580D01*
X135448845Y-110123580D01*
X135462172Y-110112780D01*
X135475006Y-110101080D01*
X135487348Y-110088480D01*
X135499197Y-110074880D01*
X135510554Y-110060380D01*
X135521317Y-110045080D01*
X135531386Y-110029080D01*
X135540756Y-110012380D01*
X135549436Y-109994980D01*
X135557426Y-109976980D01*
X135564716Y-109958280D01*
X135571316Y-109938880D01*
X135577216Y-109918780D01*
X135582426Y-109898080D01*
X135586936Y-109876680D01*
X135590756Y-109854580D01*
X135593886Y-109831780D01*
X135596316Y-109808380D01*
X135598056Y-109784180D01*
X135599106Y-109759380D01*
X135599456Y-109733880D01*
X135599109Y-109708480D01*
X135598069Y-109683780D01*
X135596329Y-109659780D01*
X135593899Y-109636380D01*
X135590769Y-109613680D01*
X135586949Y-109591680D01*
X135582439Y-109570380D01*
X135577229Y-109549680D01*
X135571329Y-109529680D01*
X135564729Y-109510380D01*
X135557439Y-109491680D01*
X135549449Y-109473680D01*
X135540749Y-109456380D01*
X135531379Y-109439680D01*
X135521319Y-109423680D01*
X135510562Y-109408380D01*
X135499205Y-109393680D01*
X135487356Y-109379980D01*
X135475014Y-109367280D01*
X135462180Y-109355480D01*
X135448853Y-109344580D01*
X135435034Y-109334580D01*
X135420722Y-109325580D01*
X135405917Y-109317580D01*
X135390620Y-109310580D01*
X135374830Y-109304580D01*
X135358548Y-109299580D01*
X135341774Y-109295580D01*
X135324515Y-109292580D01*
X135306754Y-109289580D01*
X135283749Y-109287580D01*
X135269749Y-109287020D01*
X135269750Y-109287270D01*
X135269752Y-109287520D01*
X135269753Y-109287770D01*
X135269744Y-109288060D01*
G36*
X133659507Y-109376940D02*
X133696908Y-109317040D01*
X133737797Y-109265540D01*
X133782174Y-109222440D01*
X133830039Y-109187740D01*
X133881845Y-109161040D01*
X133938043Y-109141940D01*
X133998634Y-109130540D01*
X134063617Y-109126540D01*
X134148883Y-109134540D01*
X134223814Y-109158340D01*
X134288410Y-109198040D01*
X134342670Y-109253640D01*
X134385626Y-109323440D01*
X134416309Y-109406640D01*
X134434719Y-109503240D01*
X134440859Y-109613310D01*
X134440859Y-109657010D01*
X134440859Y-109700710D01*
X134440859Y-109744410D01*
X134440859Y-109788110D01*
X134440859Y-109831810D01*
X134440859Y-109875510D01*
X134440859Y-109919210D01*
X134440859Y-109962910D01*
X134440859Y-110006610D01*
X134440859Y-110050310D01*
X134440859Y-110094010D01*
X134440859Y-110137710D01*
X134440859Y-110181410D01*
X134440859Y-110225110D01*
X134440859Y-110268810D01*
X134440859Y-110312510D01*
X134428909Y-110312510D01*
X134416959Y-110312510D01*
X134405009Y-110312510D01*
X134393059Y-110312510D01*
X134381109Y-110312510D01*
X134369159Y-110312510D01*
X134357209Y-110312510D01*
X134345259Y-110312510D01*
X134333309Y-110312510D01*
X134321359Y-110312510D01*
X134309409Y-110312510D01*
X134297459Y-110312510D01*
X134285509Y-110312510D01*
X134273559Y-110312510D01*
X134261609Y-110312510D01*
X134249659Y-110312510D01*
X134249659Y-110269210D01*
X134249659Y-110225910D01*
X134249659Y-110182610D01*
X134249659Y-110139310D01*
X134249659Y-110096010D01*
X134249659Y-110052710D01*
X134249659Y-110009410D01*
X134249659Y-109966110D01*
X134249659Y-109922810D01*
X134249659Y-109879510D01*
X134249659Y-109836210D01*
X134249659Y-109792910D01*
X134249659Y-109749610D01*
X134249659Y-109706310D01*
X134249659Y-109663010D01*
X134249659Y-109619710D01*
X134245979Y-109541910D01*
X134234933Y-109474810D01*
X134216523Y-109418410D01*
X134190749Y-109372710D01*
X134157418Y-109337410D01*
X134116335Y-109312210D01*
X134067501Y-109297110D01*
X134010915Y-109292110D01*
X133940893Y-109298110D01*
X133878623Y-109316510D01*
X133824104Y-109347210D01*
X133777337Y-109390210D01*
X133739807Y-109443810D01*
X133713000Y-109506310D01*
X133696916Y-109577710D01*
X133691556Y-109658010D01*
X133691556Y-109698910D01*
X133691556Y-109739810D01*
X133691556Y-109780710D01*
X133691556Y-109821610D01*
X133691556Y-109862510D01*
X133691556Y-109903410D01*
X133691556Y-109944310D01*
X133691556Y-109985210D01*
X133691556Y-110026110D01*
X133691556Y-110067010D01*
X133691556Y-110107910D01*
X133691556Y-110148810D01*
X133691556Y-110189710D01*
X133691556Y-110230610D01*
X133691556Y-110271510D01*
X133691556Y-110312410D01*
X133679606Y-110312410D01*
X133667656Y-110312410D01*
X133655706Y-110312410D01*
X133643756Y-110312410D01*
X133631806Y-110312410D01*
X133619856Y-110312410D01*
X133607906Y-110312410D01*
X133595956Y-110312410D01*
X133584006Y-110312410D01*
X133572056Y-110312410D01*
X133560106Y-110312410D01*
X133548156Y-110312410D01*
X133536206Y-110312410D01*
X133524256Y-110312410D01*
X133512306Y-110312410D01*
X133500356Y-110312410D01*
X133500356Y-110269110D01*
X133500356Y-110225810D01*
X133500356Y-110182510D01*
X133500356Y-110139210D01*
X133500356Y-110095910D01*
X133500356Y-110052610D01*
X133500356Y-110009310D01*
X133500356Y-109966010D01*
X133500356Y-109922710D01*
X133500356Y-109879410D01*
X133500356Y-109836110D01*
X133500356Y-109792810D01*
X133500356Y-109749510D01*
X133500356Y-109706210D01*
X133500356Y-109662910D01*
X133500356Y-109619610D01*
X133496676Y-109541410D01*
X133485630Y-109474110D01*
X133467220Y-109417810D01*
X133441446Y-109372510D01*
X133407986Y-109337210D01*
X133366516Y-109312010D01*
X133317036Y-109296910D01*
X133259546Y-109291910D01*
X133190429Y-109297910D01*
X133128805Y-109316510D01*
X133074674Y-109347510D01*
X133028036Y-109390910D01*
X132990506Y-109444410D01*
X132963699Y-109506710D01*
X132947615Y-109577810D01*
X132942255Y-109657610D01*
X132942255Y-109698510D01*
X132942255Y-109739410D01*
X132942255Y-109780310D01*
X132942255Y-109821210D01*
X132942255Y-109862110D01*
X132942255Y-109903010D01*
X132942255Y-109943910D01*
X132942255Y-109984810D01*
X132942255Y-110025710D01*
X132942255Y-110066610D01*
X132942255Y-110107510D01*
X132942255Y-110148410D01*
X132942255Y-110189310D01*
X132942255Y-110230210D01*
X132942255Y-110271110D01*
X132942255Y-110312010D01*
X132930305Y-110312010D01*
X132918355Y-110312010D01*
X132906405Y-110312010D01*
X132894455Y-110312010D01*
X132882505Y-110312010D01*
X132870555Y-110312010D01*
X132858605Y-110312010D01*
X132846655Y-110312010D01*
X132834705Y-110312010D01*
X132822755Y-110312010D01*
X132810805Y-110312010D01*
X132798855Y-110312010D01*
X132786905Y-110312010D01*
X132774955Y-110312010D01*
X132763005Y-110312010D01*
X132751055Y-110312010D01*
X132751055Y-110239610D01*
X132751055Y-110167310D01*
X132751055Y-110095010D01*
X132751055Y-110022610D01*
X132751055Y-109950310D01*
X132751055Y-109877910D01*
X132751055Y-109859810D01*
X132751055Y-109841710D01*
X132751055Y-109823610D01*
X132751055Y-109805510D01*
X132751055Y-109787410D01*
X132751055Y-109769310D01*
X132751055Y-109751210D01*
X132751055Y-109733110D01*
X132751055Y-109660710D01*
X132751055Y-109588410D01*
X132751055Y-109516010D01*
X132751055Y-109443710D01*
X132751055Y-109371410D01*
X132751055Y-109299010D01*
X132751055Y-109226710D01*
X132751055Y-109154410D01*
X132763005Y-109154410D01*
X132774955Y-109154410D01*
X132786905Y-109154410D01*
X132798855Y-109154410D01*
X132810805Y-109154410D01*
X132822755Y-109154410D01*
X132834705Y-109154410D01*
X132846655Y-109154410D01*
X132894456Y-109154410D01*
X132942257Y-109154410D01*
X132942257Y-109199410D01*
X132942257Y-109244410D01*
X132942257Y-109289310D01*
X132942257Y-109334310D01*
X132976428Y-109284610D01*
X133013829Y-109241810D01*
X133054460Y-109206010D01*
X133098321Y-109177210D01*
X133145928Y-109155010D01*
X133197798Y-109139210D01*
X133253932Y-109129210D01*
X133314329Y-109126210D01*
X133374984Y-109130210D01*
X133430859Y-109142210D01*
X133481954Y-109162210D01*
X133528269Y-109190210D01*
X133569804Y-109225910D01*
X133605525Y-109268810D01*
X133635433Y-109318910D01*
X133659527Y-109376210D01*
X133659527Y-109376220D01*
X133659527Y-109376230D01*
X133659507Y-109376940D01*
X133659507Y-109376940D01*
G37*
X133659507Y-109376940D02*
X133696908Y-109317040D01*
X133737797Y-109265540D01*
X133782174Y-109222440D01*
X133830039Y-109187740D01*
X133881845Y-109161040D01*
X133938043Y-109141940D01*
X133998634Y-109130540D01*
X134063617Y-109126540D01*
X134148883Y-109134540D01*
X134223814Y-109158340D01*
X134288410Y-109198040D01*
X134342670Y-109253640D01*
X134385626Y-109323440D01*
X134416309Y-109406640D01*
X134434719Y-109503240D01*
X134440859Y-109613310D01*
X134440859Y-109657010D01*
X134440859Y-109700710D01*
X134440859Y-109744410D01*
X134440859Y-109788110D01*
X134440859Y-109831810D01*
X134440859Y-109875510D01*
X134440859Y-109919210D01*
X134440859Y-109962910D01*
X134440859Y-110006610D01*
X134440859Y-110050310D01*
X134440859Y-110094010D01*
X134440859Y-110137710D01*
X134440859Y-110181410D01*
X134440859Y-110225110D01*
X134440859Y-110268810D01*
X134440859Y-110312510D01*
X134428909Y-110312510D01*
X134416959Y-110312510D01*
X134405009Y-110312510D01*
X134393059Y-110312510D01*
X134381109Y-110312510D01*
X134369159Y-110312510D01*
X134357209Y-110312510D01*
X134345259Y-110312510D01*
X134333309Y-110312510D01*
X134321359Y-110312510D01*
X134309409Y-110312510D01*
X134297459Y-110312510D01*
X134285509Y-110312510D01*
X134273559Y-110312510D01*
X134261609Y-110312510D01*
X134249659Y-110312510D01*
X134249659Y-110269210D01*
X134249659Y-110225910D01*
X134249659Y-110182610D01*
X134249659Y-110139310D01*
X134249659Y-110096010D01*
X134249659Y-110052710D01*
X134249659Y-110009410D01*
X134249659Y-109966110D01*
X134249659Y-109922810D01*
X134249659Y-109879510D01*
X134249659Y-109836210D01*
X134249659Y-109792910D01*
X134249659Y-109749610D01*
X134249659Y-109706310D01*
X134249659Y-109663010D01*
X134249659Y-109619710D01*
X134245979Y-109541910D01*
X134234933Y-109474810D01*
X134216523Y-109418410D01*
X134190749Y-109372710D01*
X134157418Y-109337410D01*
X134116335Y-109312210D01*
X134067501Y-109297110D01*
X134010915Y-109292110D01*
X133940893Y-109298110D01*
X133878623Y-109316510D01*
X133824104Y-109347210D01*
X133777337Y-109390210D01*
X133739807Y-109443810D01*
X133713000Y-109506310D01*
X133696916Y-109577710D01*
X133691556Y-109658010D01*
X133691556Y-109698910D01*
X133691556Y-109739810D01*
X133691556Y-109780710D01*
X133691556Y-109821610D01*
X133691556Y-109862510D01*
X133691556Y-109903410D01*
X133691556Y-109944310D01*
X133691556Y-109985210D01*
X133691556Y-110026110D01*
X133691556Y-110067010D01*
X133691556Y-110107910D01*
X133691556Y-110148810D01*
X133691556Y-110189710D01*
X133691556Y-110230610D01*
X133691556Y-110271510D01*
X133691556Y-110312410D01*
X133679606Y-110312410D01*
X133667656Y-110312410D01*
X133655706Y-110312410D01*
X133643756Y-110312410D01*
X133631806Y-110312410D01*
X133619856Y-110312410D01*
X133607906Y-110312410D01*
X133595956Y-110312410D01*
X133584006Y-110312410D01*
X133572056Y-110312410D01*
X133560106Y-110312410D01*
X133548156Y-110312410D01*
X133536206Y-110312410D01*
X133524256Y-110312410D01*
X133512306Y-110312410D01*
X133500356Y-110312410D01*
X133500356Y-110269110D01*
X133500356Y-110225810D01*
X133500356Y-110182510D01*
X133500356Y-110139210D01*
X133500356Y-110095910D01*
X133500356Y-110052610D01*
X133500356Y-110009310D01*
X133500356Y-109966010D01*
X133500356Y-109922710D01*
X133500356Y-109879410D01*
X133500356Y-109836110D01*
X133500356Y-109792810D01*
X133500356Y-109749510D01*
X133500356Y-109706210D01*
X133500356Y-109662910D01*
X133500356Y-109619610D01*
X133496676Y-109541410D01*
X133485630Y-109474110D01*
X133467220Y-109417810D01*
X133441446Y-109372510D01*
X133407986Y-109337210D01*
X133366516Y-109312010D01*
X133317036Y-109296910D01*
X133259546Y-109291910D01*
X133190429Y-109297910D01*
X133128805Y-109316510D01*
X133074674Y-109347510D01*
X133028036Y-109390910D01*
X132990506Y-109444410D01*
X132963699Y-109506710D01*
X132947615Y-109577810D01*
X132942255Y-109657610D01*
X132942255Y-109698510D01*
X132942255Y-109739410D01*
X132942255Y-109780310D01*
X132942255Y-109821210D01*
X132942255Y-109862110D01*
X132942255Y-109903010D01*
X132942255Y-109943910D01*
X132942255Y-109984810D01*
X132942255Y-110025710D01*
X132942255Y-110066610D01*
X132942255Y-110107510D01*
X132942255Y-110148410D01*
X132942255Y-110189310D01*
X132942255Y-110230210D01*
X132942255Y-110271110D01*
X132942255Y-110312010D01*
X132930305Y-110312010D01*
X132918355Y-110312010D01*
X132906405Y-110312010D01*
X132894455Y-110312010D01*
X132882505Y-110312010D01*
X132870555Y-110312010D01*
X132858605Y-110312010D01*
X132846655Y-110312010D01*
X132834705Y-110312010D01*
X132822755Y-110312010D01*
X132810805Y-110312010D01*
X132798855Y-110312010D01*
X132786905Y-110312010D01*
X132774955Y-110312010D01*
X132763005Y-110312010D01*
X132751055Y-110312010D01*
X132751055Y-110239610D01*
X132751055Y-110167310D01*
X132751055Y-110095010D01*
X132751055Y-110022610D01*
X132751055Y-109950310D01*
X132751055Y-109877910D01*
X132751055Y-109859810D01*
X132751055Y-109841710D01*
X132751055Y-109823610D01*
X132751055Y-109805510D01*
X132751055Y-109787410D01*
X132751055Y-109769310D01*
X132751055Y-109751210D01*
X132751055Y-109733110D01*
X132751055Y-109660710D01*
X132751055Y-109588410D01*
X132751055Y-109516010D01*
X132751055Y-109443710D01*
X132751055Y-109371410D01*
X132751055Y-109299010D01*
X132751055Y-109226710D01*
X132751055Y-109154410D01*
X132763005Y-109154410D01*
X132774955Y-109154410D01*
X132786905Y-109154410D01*
X132798855Y-109154410D01*
X132810805Y-109154410D01*
X132822755Y-109154410D01*
X132834705Y-109154410D01*
X132846655Y-109154410D01*
X132894456Y-109154410D01*
X132942257Y-109154410D01*
X132942257Y-109199410D01*
X132942257Y-109244410D01*
X132942257Y-109289310D01*
X132942257Y-109334310D01*
X132976428Y-109284610D01*
X133013829Y-109241810D01*
X133054460Y-109206010D01*
X133098321Y-109177210D01*
X133145928Y-109155010D01*
X133197798Y-109139210D01*
X133253932Y-109129210D01*
X133314329Y-109126210D01*
X133374984Y-109130210D01*
X133430859Y-109142210D01*
X133481954Y-109162210D01*
X133528269Y-109190210D01*
X133569804Y-109225910D01*
X133605525Y-109268810D01*
X133635433Y-109318910D01*
X133659527Y-109376210D01*
X133659527Y-109376220D01*
X133659527Y-109376230D01*
X133659507Y-109376940D01*
G36*
X131229681Y-109757280D02*
X131203850Y-110125910D01*
X131174911Y-110095810D01*
X131148992Y-110062310D01*
X131126529Y-110026410D01*
X131107506Y-109988110D01*
X131091970Y-109947310D01*
X131079874Y-109904110D01*
X131071234Y-109858510D01*
X131066054Y-109810410D01*
X131064324Y-109760010D01*
X131066074Y-109709510D01*
X131071304Y-109661510D01*
X131080024Y-109615910D01*
X131092233Y-109572710D01*
X131107930Y-109531910D01*
X131127115Y-109493610D01*
X131149804Y-109457710D01*
X131175949Y-109424210D01*
X131204871Y-109393910D01*
X131235829Y-109367710D01*
X131268821Y-109345510D01*
X131303848Y-109327310D01*
X131340910Y-109313210D01*
X131380006Y-109303110D01*
X131421109Y-109297110D01*
X131464303Y-109295110D01*
X131490513Y-109295670D01*
X131515915Y-109296670D01*
X131540539Y-109299670D01*
X131564297Y-109303670D01*
X131587277Y-109308670D01*
X131609449Y-109315670D01*
X131630779Y-109323670D01*
X131651371Y-109332670D01*
X131671218Y-109342670D01*
X131690451Y-109354170D01*
X131709071Y-109366870D01*
X131727077Y-109380870D01*
X131744506Y-109396170D01*
X131761247Y-109412570D01*
X131777412Y-109430370D01*
X131792963Y-109449370D01*
X131792963Y-109432470D01*
X131792963Y-109415470D01*
X131792963Y-109398570D01*
X131792963Y-109381670D01*
X131792963Y-109364770D01*
X131792963Y-109347870D01*
X131792963Y-109330870D01*
X131792963Y-109313970D01*
X131811437Y-109313970D01*
X131829911Y-109313970D01*
X131848385Y-109313970D01*
X131866859Y-109313970D01*
X131885333Y-109313970D01*
X131903807Y-109313970D01*
X131922281Y-109313970D01*
X131940756Y-109313970D01*
X131940756Y-109409070D01*
X131940756Y-109504170D01*
X131940756Y-109599270D01*
X131940756Y-109694370D01*
X131940756Y-109789470D01*
X131940756Y-109884570D01*
X131940756Y-109979670D01*
X131940756Y-110074770D01*
X131977446Y-110067770D01*
X132012070Y-110057670D01*
X132044614Y-110044570D01*
X132075115Y-110029070D01*
X132103553Y-110010470D01*
X132129892Y-109988970D01*
X132154180Y-109964570D01*
X132176401Y-109937370D01*
X132196506Y-109907370D01*
X132213931Y-109875270D01*
X132228675Y-109841070D01*
X132240738Y-109804770D01*
X132250118Y-109766370D01*
X132256818Y-109725870D01*
X132260838Y-109683270D01*
X132262178Y-109638570D01*
X132261661Y-109611170D01*
X132260111Y-109584070D01*
X132257521Y-109557470D01*
X132253911Y-109531270D01*
X132249261Y-109505570D01*
X132243571Y-109480170D01*
X132236851Y-109455270D01*
X132229101Y-109430770D01*
X132220561Y-109406670D01*
X132210951Y-109383070D01*
X132200277Y-109359870D01*
X132188536Y-109337170D01*
X132175730Y-109314870D01*
X132161858Y-109293070D01*
X132146921Y-109271670D01*
X132130917Y-109250770D01*
X132103302Y-109217870D01*
X132074202Y-109187070D01*
X132043616Y-109158170D01*
X132011544Y-109131370D01*
X131977987Y-109106570D01*
X131942944Y-109083670D01*
X131906415Y-109062770D01*
X131868401Y-109043970D01*
X131829466Y-109027070D01*
X131789659Y-109012370D01*
X131748980Y-108999970D01*
X131707429Y-108989770D01*
X131665006Y-108981770D01*
X131621711Y-108975770D01*
X131577544Y-108971770D01*
X131532505Y-108970770D01*
X131500886Y-108971290D01*
X131469589Y-108972290D01*
X131438621Y-108975290D01*
X131407965Y-108978290D01*
X131377592Y-108982290D01*
X131347633Y-108988290D01*
X131317998Y-108995290D01*
X131288593Y-109003290D01*
X131259671Y-109012290D01*
X131231297Y-109022290D01*
X131203460Y-109033190D01*
X131176197Y-109044990D01*
X131149499Y-109057890D01*
X131123293Y-109071890D01*
X131097616Y-109086890D01*
X131072585Y-109102890D01*
X131033117Y-109130290D01*
X130995846Y-109159690D01*
X130960771Y-109191190D01*
X130927892Y-109224790D01*
X130897209Y-109260390D01*
X130868722Y-109298190D01*
X130842449Y-109337990D01*
X130818338Y-109379890D01*
X130797022Y-109422990D01*
X130778547Y-109466990D01*
X130762927Y-109511890D01*
X130750125Y-109557690D01*
X130740175Y-109604390D01*
X130733065Y-109651990D01*
X130728805Y-109700490D01*
X130727385Y-109749890D01*
X130728306Y-109790690D01*
X130731066Y-109830790D01*
X130735666Y-109870190D01*
X130742116Y-109909090D01*
X130750396Y-109947290D01*
X130760523Y-109984790D01*
X130772489Y-110021690D01*
X130786297Y-110057890D01*
X130802107Y-110093290D01*
X130819564Y-110127590D01*
X130838668Y-110160790D01*
X130859419Y-110192990D01*
X130881817Y-110224090D01*
X130905863Y-110254190D01*
X130931556Y-110283190D01*
X130958896Y-110311090D01*
X130986559Y-110337190D01*
X131015288Y-110361590D01*
X131045101Y-110384390D01*
X131075943Y-110405690D01*
X131107852Y-110425290D01*
X131140862Y-110443290D01*
X131174905Y-110459690D01*
X131210044Y-110474390D01*
X131246007Y-110487590D01*
X131282585Y-110499290D01*
X131319766Y-110509290D01*
X131357580Y-110517290D01*
X131396012Y-110523290D01*
X131435030Y-110527290D01*
X131474656Y-110530290D01*
X131514935Y-110531290D01*
X131548186Y-110530560D01*
X131581275Y-110528560D01*
X131614201Y-110524560D01*
X131646969Y-110519560D01*
X131679574Y-110512560D01*
X131712017Y-110504560D01*
X131744372Y-110495560D01*
X131776419Y-110484760D01*
X131808378Y-110473160D01*
X131839658Y-110460060D01*
X131870246Y-110445860D01*
X131900183Y-110430460D01*
X131929429Y-110413760D01*
X131957996Y-110395860D01*
X131985885Y-110376760D01*
X132013096Y-110356460D01*
X132024723Y-110370860D01*
X132036350Y-110385160D01*
X132047977Y-110399460D01*
X132059605Y-110413860D01*
X132071232Y-110428160D01*
X132082859Y-110442560D01*
X132094487Y-110456860D01*
X132106114Y-110471160D01*
X132073445Y-110495460D01*
X132040033Y-110518360D01*
X132005895Y-110539760D01*
X131970980Y-110559560D01*
X131935339Y-110577960D01*
X131898956Y-110594860D01*
X131861830Y-110610260D01*
X131823961Y-110624160D01*
X131785898Y-110636760D01*
X131747674Y-110647660D01*
X131709260Y-110656660D01*
X131670741Y-110664660D01*
X131632062Y-110670660D01*
X131593162Y-110674660D01*
X131554133Y-110676660D01*
X131514937Y-110677370D01*
X131467475Y-110676500D01*
X131420692Y-110673500D01*
X131374587Y-110668500D01*
X131329160Y-110661500D01*
X131284397Y-110651500D01*
X131240341Y-110639800D01*
X131196897Y-110625900D01*
X131154235Y-110610000D01*
X131112442Y-110592200D01*
X131071811Y-110572500D01*
X131032343Y-110550800D01*
X130994038Y-110527300D01*
X130956879Y-110501800D01*
X130920916Y-110474300D01*
X130886099Y-110444900D01*
X130852445Y-110413600D01*
X130820357Y-110380700D01*
X130790240Y-110346500D01*
X130762093Y-110311000D01*
X130735915Y-110274300D01*
X130711708Y-110236300D01*
X130689471Y-110197100D01*
X130669204Y-110156600D01*
X130650908Y-110114900D01*
X130634679Y-110071900D01*
X130620613Y-110028100D01*
X130608701Y-109983500D01*
X130598971Y-109938200D01*
X130591401Y-109892100D01*
X130585991Y-109845200D01*
X130582741Y-109797500D01*
X130581661Y-109749100D01*
X130582761Y-109702400D01*
X130586051Y-109656100D01*
X130591541Y-109610500D01*
X130599231Y-109565400D01*
X130609121Y-109520800D01*
X130621193Y-109476800D01*
X130635469Y-109433300D01*
X130651940Y-109390400D01*
X130670433Y-109348400D01*
X130690826Y-109307700D01*
X130713079Y-109268300D01*
X130737206Y-109230200D01*
X130763206Y-109193400D01*
X130791079Y-109157800D01*
X130820825Y-109123600D01*
X130852445Y-109090600D01*
X130886422Y-109058700D01*
X130921691Y-109028900D01*
X130958270Y-109000900D01*
X130996105Y-108974900D01*
X131035250Y-108950800D01*
X131075687Y-108928700D01*
X131117416Y-108908500D01*
X131160436Y-108890200D01*
X131204426Y-108873700D01*
X131249061Y-108859400D01*
X131294363Y-108847300D01*
X131340270Y-108837300D01*
X131386851Y-108829300D01*
X131434063Y-108824300D01*
X131481932Y-108821300D01*
X131530440Y-108820390D01*
X131584717Y-108822390D01*
X131637992Y-108827390D01*
X131690266Y-108834390D01*
X131741539Y-108844390D01*
X131791740Y-108857190D01*
X131841081Y-108872490D01*
X131889339Y-108890790D01*
X131936618Y-108911790D01*
X131982691Y-108935390D01*
X132026858Y-108961390D01*
X132069103Y-108989790D01*
X132109476Y-109020490D01*
X132147926Y-109053590D01*
X132184471Y-109088990D01*
X132219110Y-109126790D01*
X132251844Y-109166990D01*
X132270641Y-109192590D01*
X132288276Y-109218690D01*
X132304748Y-109245390D01*
X132320057Y-109272590D01*
X132334203Y-109300390D01*
X132347187Y-109328690D01*
X132359022Y-109357590D01*
X132369666Y-109386990D01*
X132379356Y-109416890D01*
X132387756Y-109446990D01*
X132394856Y-109477390D01*
X132400666Y-109507990D01*
X132405186Y-109538890D01*
X132408416Y-109569990D01*
X132410356Y-109601390D01*
X132411001Y-109632990D01*
X132408431Y-109699090D01*
X132400731Y-109761690D01*
X132387894Y-109820690D01*
X132369919Y-109876090D01*
X132346810Y-109927890D01*
X132318566Y-109976090D01*
X132285180Y-110020690D01*
X132246671Y-110061690D01*
X132203634Y-110098590D01*
X132156689Y-110130790D01*
X132105836Y-110158290D01*
X132051075Y-110181090D01*
X131992418Y-110199190D01*
X131929829Y-110212490D01*
X131863362Y-110221490D01*
X131792951Y-110225490D01*
X131792951Y-110205590D01*
X131792951Y-110185690D01*
X131792951Y-110165790D01*
X131792951Y-110145890D01*
X131792951Y-110125990D01*
X131792950Y-110106090D01*
X131792948Y-110087090D01*
X131792960Y-110067960D01*
X131777166Y-110087260D01*
X131760791Y-110105160D01*
X131743834Y-110121760D01*
X131726297Y-110137160D01*
X131708141Y-110151260D01*
X131689478Y-110164060D01*
X131670213Y-110175560D01*
X131650333Y-110185760D01*
X131630018Y-110194760D01*
X131608863Y-110202760D01*
X131586834Y-110209760D01*
X131564034Y-110214760D01*
X131540333Y-110218760D01*
X131515846Y-110221760D01*
X131490492Y-110223760D01*
X131464299Y-110224010D01*
X131420891Y-110222010D01*
X131379550Y-110216010D01*
X131340276Y-110206010D01*
X131303069Y-110191910D01*
X131267915Y-110173910D01*
X131234856Y-110151910D01*
X131203850Y-110125910D01*
X131229681Y-109757280D01*
X131230831Y-109793180D01*
X131234271Y-109827280D01*
X131240001Y-109859280D01*
X131248031Y-109889380D01*
X131258352Y-109917480D01*
X131270963Y-109943580D01*
X131285868Y-109967780D01*
X131303067Y-109989880D01*
X131322268Y-110009580D01*
X131343181Y-110026480D01*
X131365823Y-110040880D01*
X131390142Y-110052680D01*
X131416190Y-110061680D01*
X131443950Y-110068680D01*
X131473390Y-110072680D01*
X131504605Y-110073680D01*
X131535530Y-110072680D01*
X131564743Y-110068680D01*
X131592312Y-110062680D01*
X131618034Y-110053680D01*
X131642125Y-110041780D01*
X131664478Y-110027180D01*
X131685132Y-110009980D01*
X131704075Y-109990080D01*
X131721274Y-109967980D01*
X131736179Y-109943880D01*
X131748791Y-109917880D01*
X131759111Y-109889880D01*
X131767141Y-109859980D01*
X131772871Y-109828080D01*
X131776311Y-109794280D01*
X131777461Y-109758580D01*
X131776301Y-109723380D01*
X131772811Y-109689980D01*
X131767001Y-109658480D01*
X131758861Y-109628880D01*
X131748396Y-109601180D01*
X131735607Y-109575280D01*
X131720492Y-109551280D01*
X131703051Y-109529180D01*
X131683640Y-109509080D01*
X131662614Y-109491680D01*
X131639973Y-109476980D01*
X131615718Y-109464980D01*
X131589861Y-109455980D01*
X131562362Y-109448980D01*
X131533233Y-109444980D01*
X131502546Y-109443980D01*
X131472073Y-109444980D01*
X131443183Y-109448980D01*
X131415807Y-109455980D01*
X131390150Y-109464980D01*
X131365994Y-109476880D01*
X131343447Y-109491480D01*
X131322470Y-109508680D01*
X131303075Y-109528580D01*
X131285876Y-109550680D01*
X131270971Y-109574780D01*
X131258359Y-109600780D01*
X131248039Y-109628580D01*
X131240009Y-109658380D01*
X131234279Y-109689980D01*
X131230839Y-109723580D01*
X131229689Y-109759080D01*
X131229689Y-109759090D01*
X131229689Y-109759100D01*
X131229689Y-109759110D01*
X131229687Y-109758940D01*
X131229681Y-109757280D01*
X131229681Y-109757280D01*
G37*
X131229681Y-109757280D02*
X131203850Y-110125910D01*
X131174911Y-110095810D01*
X131148992Y-110062310D01*
X131126529Y-110026410D01*
X131107506Y-109988110D01*
X131091970Y-109947310D01*
X131079874Y-109904110D01*
X131071234Y-109858510D01*
X131066054Y-109810410D01*
X131064324Y-109760010D01*
X131066074Y-109709510D01*
X131071304Y-109661510D01*
X131080024Y-109615910D01*
X131092233Y-109572710D01*
X131107930Y-109531910D01*
X131127115Y-109493610D01*
X131149804Y-109457710D01*
X131175949Y-109424210D01*
X131204871Y-109393910D01*
X131235829Y-109367710D01*
X131268821Y-109345510D01*
X131303848Y-109327310D01*
X131340910Y-109313210D01*
X131380006Y-109303110D01*
X131421109Y-109297110D01*
X131464303Y-109295110D01*
X131490513Y-109295670D01*
X131515915Y-109296670D01*
X131540539Y-109299670D01*
X131564297Y-109303670D01*
X131587277Y-109308670D01*
X131609449Y-109315670D01*
X131630779Y-109323670D01*
X131651371Y-109332670D01*
X131671218Y-109342670D01*
X131690451Y-109354170D01*
X131709071Y-109366870D01*
X131727077Y-109380870D01*
X131744506Y-109396170D01*
X131761247Y-109412570D01*
X131777412Y-109430370D01*
X131792963Y-109449370D01*
X131792963Y-109432470D01*
X131792963Y-109415470D01*
X131792963Y-109398570D01*
X131792963Y-109381670D01*
X131792963Y-109364770D01*
X131792963Y-109347870D01*
X131792963Y-109330870D01*
X131792963Y-109313970D01*
X131811437Y-109313970D01*
X131829911Y-109313970D01*
X131848385Y-109313970D01*
X131866859Y-109313970D01*
X131885333Y-109313970D01*
X131903807Y-109313970D01*
X131922281Y-109313970D01*
X131940756Y-109313970D01*
X131940756Y-109409070D01*
X131940756Y-109504170D01*
X131940756Y-109599270D01*
X131940756Y-109694370D01*
X131940756Y-109789470D01*
X131940756Y-109884570D01*
X131940756Y-109979670D01*
X131940756Y-110074770D01*
X131977446Y-110067770D01*
X132012070Y-110057670D01*
X132044614Y-110044570D01*
X132075115Y-110029070D01*
X132103553Y-110010470D01*
X132129892Y-109988970D01*
X132154180Y-109964570D01*
X132176401Y-109937370D01*
X132196506Y-109907370D01*
X132213931Y-109875270D01*
X132228675Y-109841070D01*
X132240738Y-109804770D01*
X132250118Y-109766370D01*
X132256818Y-109725870D01*
X132260838Y-109683270D01*
X132262178Y-109638570D01*
X132261661Y-109611170D01*
X132260111Y-109584070D01*
X132257521Y-109557470D01*
X132253911Y-109531270D01*
X132249261Y-109505570D01*
X132243571Y-109480170D01*
X132236851Y-109455270D01*
X132229101Y-109430770D01*
X132220561Y-109406670D01*
X132210951Y-109383070D01*
X132200277Y-109359870D01*
X132188536Y-109337170D01*
X132175730Y-109314870D01*
X132161858Y-109293070D01*
X132146921Y-109271670D01*
X132130917Y-109250770D01*
X132103302Y-109217870D01*
X132074202Y-109187070D01*
X132043616Y-109158170D01*
X132011544Y-109131370D01*
X131977987Y-109106570D01*
X131942944Y-109083670D01*
X131906415Y-109062770D01*
X131868401Y-109043970D01*
X131829466Y-109027070D01*
X131789659Y-109012370D01*
X131748980Y-108999970D01*
X131707429Y-108989770D01*
X131665006Y-108981770D01*
X131621711Y-108975770D01*
X131577544Y-108971770D01*
X131532505Y-108970770D01*
X131500886Y-108971290D01*
X131469589Y-108972290D01*
X131438621Y-108975290D01*
X131407965Y-108978290D01*
X131377592Y-108982290D01*
X131347633Y-108988290D01*
X131317998Y-108995290D01*
X131288593Y-109003290D01*
X131259671Y-109012290D01*
X131231297Y-109022290D01*
X131203460Y-109033190D01*
X131176197Y-109044990D01*
X131149499Y-109057890D01*
X131123293Y-109071890D01*
X131097616Y-109086890D01*
X131072585Y-109102890D01*
X131033117Y-109130290D01*
X130995846Y-109159690D01*
X130960771Y-109191190D01*
X130927892Y-109224790D01*
X130897209Y-109260390D01*
X130868722Y-109298190D01*
X130842449Y-109337990D01*
X130818338Y-109379890D01*
X130797022Y-109422990D01*
X130778547Y-109466990D01*
X130762927Y-109511890D01*
X130750125Y-109557690D01*
X130740175Y-109604390D01*
X130733065Y-109651990D01*
X130728805Y-109700490D01*
X130727385Y-109749890D01*
X130728306Y-109790690D01*
X130731066Y-109830790D01*
X130735666Y-109870190D01*
X130742116Y-109909090D01*
X130750396Y-109947290D01*
X130760523Y-109984790D01*
X130772489Y-110021690D01*
X130786297Y-110057890D01*
X130802107Y-110093290D01*
X130819564Y-110127590D01*
X130838668Y-110160790D01*
X130859419Y-110192990D01*
X130881817Y-110224090D01*
X130905863Y-110254190D01*
X130931556Y-110283190D01*
X130958896Y-110311090D01*
X130986559Y-110337190D01*
X131015288Y-110361590D01*
X131045101Y-110384390D01*
X131075943Y-110405690D01*
X131107852Y-110425290D01*
X131140862Y-110443290D01*
X131174905Y-110459690D01*
X131210044Y-110474390D01*
X131246007Y-110487590D01*
X131282585Y-110499290D01*
X131319766Y-110509290D01*
X131357580Y-110517290D01*
X131396012Y-110523290D01*
X131435030Y-110527290D01*
X131474656Y-110530290D01*
X131514935Y-110531290D01*
X131548186Y-110530560D01*
X131581275Y-110528560D01*
X131614201Y-110524560D01*
X131646969Y-110519560D01*
X131679574Y-110512560D01*
X131712017Y-110504560D01*
X131744372Y-110495560D01*
X131776419Y-110484760D01*
X131808378Y-110473160D01*
X131839658Y-110460060D01*
X131870246Y-110445860D01*
X131900183Y-110430460D01*
X131929429Y-110413760D01*
X131957996Y-110395860D01*
X131985885Y-110376760D01*
X132013096Y-110356460D01*
X132024723Y-110370860D01*
X132036350Y-110385160D01*
X132047977Y-110399460D01*
X132059605Y-110413860D01*
X132071232Y-110428160D01*
X132082859Y-110442560D01*
X132094487Y-110456860D01*
X132106114Y-110471160D01*
X132073445Y-110495460D01*
X132040033Y-110518360D01*
X132005895Y-110539760D01*
X131970980Y-110559560D01*
X131935339Y-110577960D01*
X131898956Y-110594860D01*
X131861830Y-110610260D01*
X131823961Y-110624160D01*
X131785898Y-110636760D01*
X131747674Y-110647660D01*
X131709260Y-110656660D01*
X131670741Y-110664660D01*
X131632062Y-110670660D01*
X131593162Y-110674660D01*
X131554133Y-110676660D01*
X131514937Y-110677370D01*
X131467475Y-110676500D01*
X131420692Y-110673500D01*
X131374587Y-110668500D01*
X131329160Y-110661500D01*
X131284397Y-110651500D01*
X131240341Y-110639800D01*
X131196897Y-110625900D01*
X131154235Y-110610000D01*
X131112442Y-110592200D01*
X131071811Y-110572500D01*
X131032343Y-110550800D01*
X130994038Y-110527300D01*
X130956879Y-110501800D01*
X130920916Y-110474300D01*
X130886099Y-110444900D01*
X130852445Y-110413600D01*
X130820357Y-110380700D01*
X130790240Y-110346500D01*
X130762093Y-110311000D01*
X130735915Y-110274300D01*
X130711708Y-110236300D01*
X130689471Y-110197100D01*
X130669204Y-110156600D01*
X130650908Y-110114900D01*
X130634679Y-110071900D01*
X130620613Y-110028100D01*
X130608701Y-109983500D01*
X130598971Y-109938200D01*
X130591401Y-109892100D01*
X130585991Y-109845200D01*
X130582741Y-109797500D01*
X130581661Y-109749100D01*
X130582761Y-109702400D01*
X130586051Y-109656100D01*
X130591541Y-109610500D01*
X130599231Y-109565400D01*
X130609121Y-109520800D01*
X130621193Y-109476800D01*
X130635469Y-109433300D01*
X130651940Y-109390400D01*
X130670433Y-109348400D01*
X130690826Y-109307700D01*
X130713079Y-109268300D01*
X130737206Y-109230200D01*
X130763206Y-109193400D01*
X130791079Y-109157800D01*
X130820825Y-109123600D01*
X130852445Y-109090600D01*
X130886422Y-109058700D01*
X130921691Y-109028900D01*
X130958270Y-109000900D01*
X130996105Y-108974900D01*
X131035250Y-108950800D01*
X131075687Y-108928700D01*
X131117416Y-108908500D01*
X131160436Y-108890200D01*
X131204426Y-108873700D01*
X131249061Y-108859400D01*
X131294363Y-108847300D01*
X131340270Y-108837300D01*
X131386851Y-108829300D01*
X131434063Y-108824300D01*
X131481932Y-108821300D01*
X131530440Y-108820390D01*
X131584717Y-108822390D01*
X131637992Y-108827390D01*
X131690266Y-108834390D01*
X131741539Y-108844390D01*
X131791740Y-108857190D01*
X131841081Y-108872490D01*
X131889339Y-108890790D01*
X131936618Y-108911790D01*
X131982691Y-108935390D01*
X132026858Y-108961390D01*
X132069103Y-108989790D01*
X132109476Y-109020490D01*
X132147926Y-109053590D01*
X132184471Y-109088990D01*
X132219110Y-109126790D01*
X132251844Y-109166990D01*
X132270641Y-109192590D01*
X132288276Y-109218690D01*
X132304748Y-109245390D01*
X132320057Y-109272590D01*
X132334203Y-109300390D01*
X132347187Y-109328690D01*
X132359022Y-109357590D01*
X132369666Y-109386990D01*
X132379356Y-109416890D01*
X132387756Y-109446990D01*
X132394856Y-109477390D01*
X132400666Y-109507990D01*
X132405186Y-109538890D01*
X132408416Y-109569990D01*
X132410356Y-109601390D01*
X132411001Y-109632990D01*
X132408431Y-109699090D01*
X132400731Y-109761690D01*
X132387894Y-109820690D01*
X132369919Y-109876090D01*
X132346810Y-109927890D01*
X132318566Y-109976090D01*
X132285180Y-110020690D01*
X132246671Y-110061690D01*
X132203634Y-110098590D01*
X132156689Y-110130790D01*
X132105836Y-110158290D01*
X132051075Y-110181090D01*
X131992418Y-110199190D01*
X131929829Y-110212490D01*
X131863362Y-110221490D01*
X131792951Y-110225490D01*
X131792951Y-110205590D01*
X131792951Y-110185690D01*
X131792951Y-110165790D01*
X131792951Y-110145890D01*
X131792951Y-110125990D01*
X131792950Y-110106090D01*
X131792948Y-110087090D01*
X131792960Y-110067960D01*
X131777166Y-110087260D01*
X131760791Y-110105160D01*
X131743834Y-110121760D01*
X131726297Y-110137160D01*
X131708141Y-110151260D01*
X131689478Y-110164060D01*
X131670213Y-110175560D01*
X131650333Y-110185760D01*
X131630018Y-110194760D01*
X131608863Y-110202760D01*
X131586834Y-110209760D01*
X131564034Y-110214760D01*
X131540333Y-110218760D01*
X131515846Y-110221760D01*
X131490492Y-110223760D01*
X131464299Y-110224010D01*
X131420891Y-110222010D01*
X131379550Y-110216010D01*
X131340276Y-110206010D01*
X131303069Y-110191910D01*
X131267915Y-110173910D01*
X131234856Y-110151910D01*
X131203850Y-110125910D01*
X131229681Y-109757280D01*
X131230831Y-109793180D01*
X131234271Y-109827280D01*
X131240001Y-109859280D01*
X131248031Y-109889380D01*
X131258352Y-109917480D01*
X131270963Y-109943580D01*
X131285868Y-109967780D01*
X131303067Y-109989880D01*
X131322268Y-110009580D01*
X131343181Y-110026480D01*
X131365823Y-110040880D01*
X131390142Y-110052680D01*
X131416190Y-110061680D01*
X131443950Y-110068680D01*
X131473390Y-110072680D01*
X131504605Y-110073680D01*
X131535530Y-110072680D01*
X131564743Y-110068680D01*
X131592312Y-110062680D01*
X131618034Y-110053680D01*
X131642125Y-110041780D01*
X131664478Y-110027180D01*
X131685132Y-110009980D01*
X131704075Y-109990080D01*
X131721274Y-109967980D01*
X131736179Y-109943880D01*
X131748791Y-109917880D01*
X131759111Y-109889880D01*
X131767141Y-109859980D01*
X131772871Y-109828080D01*
X131776311Y-109794280D01*
X131777461Y-109758580D01*
X131776301Y-109723380D01*
X131772811Y-109689980D01*
X131767001Y-109658480D01*
X131758861Y-109628880D01*
X131748396Y-109601180D01*
X131735607Y-109575280D01*
X131720492Y-109551280D01*
X131703051Y-109529180D01*
X131683640Y-109509080D01*
X131662614Y-109491680D01*
X131639973Y-109476980D01*
X131615718Y-109464980D01*
X131589861Y-109455980D01*
X131562362Y-109448980D01*
X131533233Y-109444980D01*
X131502546Y-109443980D01*
X131472073Y-109444980D01*
X131443183Y-109448980D01*
X131415807Y-109455980D01*
X131390150Y-109464980D01*
X131365994Y-109476880D01*
X131343447Y-109491480D01*
X131322470Y-109508680D01*
X131303075Y-109528580D01*
X131285876Y-109550680D01*
X131270971Y-109574780D01*
X131258359Y-109600780D01*
X131248039Y-109628580D01*
X131240009Y-109658380D01*
X131234279Y-109689980D01*
X131230839Y-109723580D01*
X131229689Y-109759080D01*
X131229689Y-109759090D01*
X131229689Y-109759100D01*
X131229689Y-109759110D01*
X131229687Y-109758940D01*
X131229681Y-109757280D01*
G04 #@! TD*
D11*
G04 #@! TO.P,A2,1*
G04 #@! TO.N,Net-(A2-Pad1)*
X145669000Y-83464400D03*
D12*
G04 #@! TO.P,A2,2*
G04 #@! TO.N,/GND*
X143129000Y-82448400D03*
G04 #@! TO.P,A2,3*
X148209000Y-82448400D03*
G04 #@! TD*
D13*
G04 #@! TO.P,P1,1*
G04 #@! TO.N,/+5V*
X151157671Y-105600707D03*
D14*
G04 #@! TO.P,P1,2*
G04 #@! TO.N,/GND*
X151157671Y-103060707D03*
G04 #@! TO.P,P1,3*
G04 #@! TO.N,/D4*
X151157671Y-100520707D03*
G04 #@! TO.P,P1,4*
G04 #@! TO.N,/D3*
X151157671Y-97980707D03*
G04 #@! TO.P,P1,5*
G04 #@! TO.N,/D2*
X151157671Y-95440707D03*
G04 #@! TO.P,P1,6*
G04 #@! TO.N,/D1*
X151157671Y-92900707D03*
G04 #@! TO.P,P1,7*
G04 #@! TO.N,/RX*
X151157671Y-90360707D03*
G04 #@! TO.P,P1,8*
G04 #@! TO.N,/TX*
X151157671Y-87820707D03*
G04 #@! TD*
D13*
G04 #@! TO.P,P2,1*
G04 #@! TO.N,/+3.3V*
X128297671Y-105600707D03*
D14*
G04 #@! TO.P,P2,2*
G04 #@! TO.N,/D8*
X128297671Y-103060707D03*
G04 #@! TO.P,P2,3*
G04 #@! TO.N,/D7*
X128297671Y-100520707D03*
G04 #@! TO.P,P2,4*
G04 #@! TO.N,/D6*
X128297671Y-97980707D03*
G04 #@! TO.P,P2,5*
G04 #@! TO.N,/D5*
X128297671Y-95440707D03*
G04 #@! TO.P,P2,6*
G04 #@! TO.N,/D0*
X128297671Y-92900707D03*
G04 #@! TO.P,P2,7*
G04 #@! TO.N,/A0*
X128297671Y-90360707D03*
G04 #@! TO.P,P2,8*
G04 #@! TO.N,/RST*
X128297671Y-87820707D03*
G04 #@! TD*
D15*
G04 #@! TO.P,C1,2*
G04 #@! TO.N,/GND*
X135001000Y-82471500D03*
G04 #@! TO.P,C1,1*
G04 #@! TO.N,/+3.3V*
X135001000Y-84406500D03*
G04 #@! TD*
G04 #@! TO.P,C2,1*
G04 #@! TO.N,/+3.3V*
X138303000Y-84406500D03*
G04 #@! TO.P,C2,2*
G04 #@! TO.N,/GND*
X138303000Y-82471500D03*
G04 #@! TD*
D16*
G04 #@! TO.P,J1,1*
G04 #@! TO.N,/G2*
X143560800Y-110896400D03*
D17*
G04 #@! TO.P,J1,2*
G04 #@! TO.N,/G3*
X146100800Y-110896400D03*
G04 #@! TO.P,J1,3*
G04 #@! TO.N,/G4*
X148640800Y-110896400D03*
G04 #@! TO.P,J1,4*
G04 #@! TO.N,/G5*
X151180800Y-110896400D03*
G04 #@! TD*
G04 #@! TO.P,J2,1*
G04 #@! TO.N,Net-(A2-Pad1)*
X145669000Y-84836000D03*
G04 #@! TD*
D18*
G04 #@! TO.P,U1,1*
G04 #@! TO.N,/GND*
X132319000Y-103377000D03*
G04 #@! TO.P,U1,2*
G04 #@! TO.N,/D6*
X134319000Y-103377000D03*
G04 #@! TO.P,U1,3*
G04 #@! TO.N,/D7*
X136319000Y-103377000D03*
G04 #@! TO.P,U1,4*
G04 #@! TO.N,/D5*
X138319000Y-103377000D03*
G04 #@! TO.P,U1,5*
G04 #@! TO.N,/D0*
X140319000Y-103377000D03*
G04 #@! TO.P,U1,6*
G04 #@! TO.N,/RST*
X142319000Y-103377000D03*
G04 #@! TO.P,U1,7*
G04 #@! TO.N,/G5*
X144319000Y-103377000D03*
G04 #@! TO.P,U1,8*
G04 #@! TO.N,/GND*
X146319000Y-103377000D03*
G04 #@! TO.P,U1,9*
G04 #@! TO.N,Net-(A2-Pad1)*
X146319000Y-87377000D03*
G04 #@! TO.P,U1,10*
G04 #@! TO.N,/GND*
X144319000Y-87377000D03*
G04 #@! TO.P,U1,11*
G04 #@! TO.N,/G3*
X142319000Y-87377000D03*
G04 #@! TO.P,U1,12*
G04 #@! TO.N,/G4*
X140319000Y-87377000D03*
G04 #@! TO.P,U1,13*
G04 #@! TO.N,/+3.3V*
X138319000Y-87377000D03*
G04 #@! TO.P,U1,14*
G04 #@! TO.N,/D1*
X136319000Y-87377000D03*
G04 #@! TO.P,U1,15*
G04 #@! TO.N,/D2*
X134319000Y-87377000D03*
G04 #@! TO.P,U1,16*
G04 #@! TO.N,/G2*
X132319000Y-87377000D03*
G04 #@! TD*
D19*
G04 #@! TO.N,/GND*
X138303000Y-82423000D03*
X132334000Y-103378000D03*
X141986000Y-106299000D03*
X139065000Y-89535000D03*
X144907000Y-109474000D03*
X150749000Y-82423000D03*
X150749000Y-84201000D03*
X148209000Y-85852000D03*
X148209000Y-87503000D03*
X149860000Y-85852000D03*
X140716000Y-83312000D03*
X140716000Y-81407000D03*
X142240000Y-85471000D03*
X140716000Y-84963000D03*
X148209000Y-89281000D03*
X146431000Y-89408000D03*
X144907000Y-89408000D03*
X132334000Y-89662000D03*
G04 #@! TO.N,/D2*
X134366000Y-87376000D03*
G04 #@! TO.N,/D1*
X136432456Y-87263544D03*
G04 #@! TO.N,/D7*
X136319000Y-103377000D03*
G04 #@! TO.N,/D6*
X134319000Y-103377000D03*
G04 #@! TO.N,/D5*
X138254999Y-103441001D03*
G04 #@! TO.N,/D0*
X140319000Y-103377000D03*
G04 #@! TO.N,/RST*
X142319000Y-103377000D03*
G04 #@! TO.N,/G2*
X132334000Y-87376000D03*
G04 #@! TO.N,/G4*
X141605000Y-95504008D03*
G04 #@! TD*
D20*
G04 #@! TO.N,/+3.3V*
X138303000Y-87361000D02*
X138319000Y-87377000D01*
X138303000Y-84406500D02*
X138303000Y-87361000D01*
X131493500Y-84406500D02*
X135001000Y-84406500D01*
X130683000Y-85217000D02*
X131493500Y-84406500D01*
X130683000Y-104915378D02*
X130683000Y-85217000D01*
X128297671Y-105600707D02*
X129997671Y-105600707D01*
X129997671Y-105600707D02*
X130683000Y-104915378D01*
X135001000Y-84406500D02*
X138303000Y-84406500D01*
D21*
G04 #@! TO.N,Net-(A2-Pad1)*
X146319000Y-85486000D02*
X145669000Y-84836000D01*
X146319000Y-87377000D02*
X146319000Y-85486000D01*
X145669000Y-83464400D02*
X145669000Y-84836000D01*
D22*
G04 #@! TO.N,/G3*
X142367000Y-87425000D02*
X142319000Y-87377000D01*
X142367000Y-94996000D02*
X142367000Y-87425000D01*
X143273001Y-95902001D02*
X142367000Y-94996000D01*
X143273001Y-104538001D02*
X143273001Y-95902001D01*
X146100800Y-110896400D02*
X146100800Y-107365800D01*
X146100800Y-107365800D02*
X143273001Y-104538001D01*
G04 #@! TO.N,/G4*
X141262101Y-95161109D02*
X141605000Y-95504008D01*
X141224000Y-95123008D02*
X141262101Y-95161109D01*
X141224000Y-90424000D02*
X141224000Y-95123008D01*
X140319000Y-87377000D02*
X140319000Y-89519000D01*
X140319000Y-89519000D02*
X141224000Y-90424000D01*
G04 #@! TO.N,/G5*
X144319000Y-103806000D02*
X144319000Y-103377000D01*
X151180800Y-110896400D02*
X151180800Y-110667800D01*
X151180800Y-110667800D02*
X144319000Y-103806000D01*
G04 #@! TD*
D23*
G04 #@! TO.N,/GND*
G36*
X139361191Y-88834809D02*
X139484001Y-88916868D01*
X139484001Y-89436762D01*
X139467643Y-89519000D01*
X139532448Y-89844800D01*
X139532449Y-89844801D01*
X139717000Y-90121001D01*
X139786718Y-90167585D01*
X140389000Y-90769868D01*
X140389001Y-95040770D01*
X140372643Y-95123008D01*
X140437448Y-95448808D01*
X140474331Y-95504007D01*
X140622000Y-95725009D01*
X140644220Y-95739856D01*
X140775977Y-96057944D01*
X141051064Y-96333031D01*
X141410484Y-96481908D01*
X141799516Y-96481908D01*
X142158936Y-96333031D01*
X142341050Y-96150917D01*
X142438002Y-96247870D01*
X142438001Y-101729560D01*
X141819000Y-101729560D01*
X141571235Y-101778843D01*
X141361191Y-101919191D01*
X141319000Y-101982334D01*
X141276809Y-101919191D01*
X141066765Y-101778843D01*
X140819000Y-101729560D01*
X139819000Y-101729560D01*
X139571235Y-101778843D01*
X139361191Y-101919191D01*
X139319000Y-101982334D01*
X139276809Y-101919191D01*
X139066765Y-101778843D01*
X138819000Y-101729560D01*
X137819000Y-101729560D01*
X137571235Y-101778843D01*
X137361191Y-101919191D01*
X137319000Y-101982334D01*
X137276809Y-101919191D01*
X137066765Y-101778843D01*
X136819000Y-101729560D01*
X135819000Y-101729560D01*
X135571235Y-101778843D01*
X135361191Y-101919191D01*
X135319000Y-101982334D01*
X135276809Y-101919191D01*
X135066765Y-101778843D01*
X134819000Y-101729560D01*
X133819000Y-101729560D01*
X133571235Y-101778843D01*
X133361191Y-101919191D01*
X133320345Y-101980320D01*
X133178699Y-101838673D01*
X132945310Y-101742000D01*
X132604750Y-101742000D01*
X132446000Y-101900750D01*
X132446000Y-103250000D01*
X132466000Y-103250000D01*
X132466000Y-103504000D01*
X132446000Y-103504000D01*
X132446000Y-104853250D01*
X132604750Y-105012000D01*
X132945310Y-105012000D01*
X133178699Y-104915327D01*
X133320345Y-104773680D01*
X133361191Y-104834809D01*
X133571235Y-104975157D01*
X133819000Y-105024440D01*
X134819000Y-105024440D01*
X135066765Y-104975157D01*
X135276809Y-104834809D01*
X135319000Y-104771666D01*
X135361191Y-104834809D01*
X135571235Y-104975157D01*
X135819000Y-105024440D01*
X136819000Y-105024440D01*
X137066765Y-104975157D01*
X137276809Y-104834809D01*
X137319000Y-104771666D01*
X137361191Y-104834809D01*
X137571235Y-104975157D01*
X137819000Y-105024440D01*
X138819000Y-105024440D01*
X139066765Y-104975157D01*
X139276809Y-104834809D01*
X139319000Y-104771666D01*
X139361191Y-104834809D01*
X139571235Y-104975157D01*
X139819000Y-105024440D01*
X140819000Y-105024440D01*
X141066765Y-104975157D01*
X141276809Y-104834809D01*
X141319000Y-104771666D01*
X141361191Y-104834809D01*
X141571235Y-104975157D01*
X141819000Y-105024440D01*
X142593784Y-105024440D01*
X142671000Y-105140002D01*
X142740721Y-105186588D01*
X145265801Y-107711669D01*
X145265800Y-109668335D01*
X145030175Y-109825775D01*
X144841591Y-110108011D01*
X144819722Y-110055215D01*
X144401985Y-109637478D01*
X143856185Y-109411400D01*
X143265415Y-109411400D01*
X142719615Y-109637478D01*
X142301878Y-110055215D01*
X142075800Y-110601015D01*
X142075800Y-111191785D01*
X142301878Y-111737585D01*
X142719615Y-112155322D01*
X143265415Y-112381400D01*
X143856185Y-112381400D01*
X144401985Y-112155322D01*
X144819722Y-111737585D01*
X144841591Y-111684789D01*
X145030175Y-111967025D01*
X145521382Y-112295239D01*
X145954544Y-112381400D01*
X146247056Y-112381400D01*
X146680218Y-112295239D01*
X147171425Y-111967025D01*
X147370800Y-111668639D01*
X147570175Y-111967025D01*
X148061382Y-112295239D01*
X148494544Y-112381400D01*
X148787056Y-112381400D01*
X149220218Y-112295239D01*
X149711425Y-111967025D01*
X149910800Y-111668639D01*
X150110175Y-111967025D01*
X150601382Y-112295239D01*
X151034544Y-112381400D01*
X151327056Y-112381400D01*
X151760218Y-112295239D01*
X151918600Y-112189411D01*
X151918600Y-113742400D01*
X144270800Y-113742400D01*
X144270800Y-113328526D01*
X144284709Y-113258600D01*
X144229605Y-112981572D01*
X144072681Y-112746719D01*
X143837828Y-112589795D01*
X143630726Y-112548600D01*
X143560800Y-112534691D01*
X143490875Y-112548600D01*
X134842325Y-112548600D01*
X134772400Y-112534691D01*
X134702474Y-112548600D01*
X134495372Y-112589795D01*
X134260519Y-112746719D01*
X134103595Y-112981572D01*
X134048491Y-113258600D01*
X134062400Y-113328526D01*
X134062400Y-113717000D01*
X129589600Y-113717000D01*
X129589600Y-109764047D01*
X129911826Y-109764047D01*
X129912906Y-109812447D01*
X129916279Y-109827624D01*
X129914289Y-109843044D01*
X129917539Y-109890745D01*
X129921699Y-109906112D01*
X129920403Y-109921977D01*
X129925813Y-109968877D01*
X129930800Y-109984383D01*
X129930253Y-110000666D01*
X129937823Y-110046765D01*
X129943656Y-110062305D01*
X129943909Y-110078901D01*
X129953639Y-110124201D01*
X129960304Y-110139623D01*
X129961389Y-110156387D01*
X129973301Y-110200987D01*
X129980769Y-110216161D01*
X129982699Y-110232961D01*
X129996765Y-110276761D01*
X130005043Y-110291662D01*
X130007836Y-110308482D01*
X130024066Y-110351482D01*
X130033513Y-110366644D01*
X130037363Y-110384095D01*
X130055659Y-110425794D01*
X130065495Y-110439873D01*
X130070037Y-110456435D01*
X130090304Y-110496935D01*
X130101148Y-110510898D01*
X130106705Y-110527686D01*
X130128942Y-110566886D01*
X130140317Y-110580057D01*
X130146623Y-110596274D01*
X130170830Y-110634274D01*
X130183143Y-110647137D01*
X130190457Y-110663374D01*
X130216635Y-110700074D01*
X130229209Y-110711902D01*
X130237089Y-110727262D01*
X130265236Y-110762762D01*
X130278611Y-110774121D01*
X130287414Y-110789296D01*
X130317531Y-110823496D01*
X130331279Y-110834001D01*
X130340712Y-110848507D01*
X130372800Y-110881407D01*
X130386455Y-110890780D01*
X130396151Y-110904211D01*
X130429806Y-110935511D01*
X130443674Y-110944067D01*
X130453835Y-110956809D01*
X130488653Y-110986209D01*
X130503060Y-110994171D01*
X130513934Y-111006529D01*
X130549896Y-111034029D01*
X130565578Y-111041730D01*
X130577776Y-111054234D01*
X130614935Y-111079734D01*
X130630914Y-111086586D01*
X130643674Y-111098393D01*
X130681979Y-111121893D01*
X130697155Y-111127500D01*
X130709541Y-111137913D01*
X130749009Y-111159613D01*
X130765615Y-111164866D01*
X130779505Y-111175377D01*
X130820136Y-111195077D01*
X130836197Y-111199265D01*
X130849903Y-111208622D01*
X130891696Y-111226422D01*
X130906973Y-111229619D01*
X130920250Y-111237816D01*
X130962912Y-111253717D01*
X130978719Y-111256274D01*
X130992724Y-111264035D01*
X131036168Y-111277935D01*
X131053083Y-111279860D01*
X131068369Y-111287356D01*
X131112425Y-111299056D01*
X131125937Y-111299911D01*
X131138320Y-111305384D01*
X131183083Y-111315384D01*
X131205785Y-111315916D01*
X131227121Y-111323686D01*
X131272548Y-111330686D01*
X131287793Y-111330023D01*
X131302350Y-111334596D01*
X131348455Y-111339596D01*
X131363357Y-111338276D01*
X131377816Y-111342129D01*
X131424599Y-111345129D01*
X131440010Y-111343078D01*
X131455196Y-111346389D01*
X131502658Y-111347259D01*
X131514864Y-111345063D01*
X131527071Y-111347262D01*
X131566267Y-111346552D01*
X131577274Y-111344154D01*
X131588422Y-111345784D01*
X131627450Y-111343784D01*
X131644344Y-111339514D01*
X131661695Y-111341148D01*
X131700595Y-111337148D01*
X131717303Y-111332001D01*
X131734766Y-111332743D01*
X131773446Y-111326743D01*
X131789691Y-111320809D01*
X131806986Y-111320663D01*
X131845505Y-111312663D01*
X131853460Y-111309289D01*
X131862096Y-111308997D01*
X131900510Y-111299997D01*
X131915260Y-111293295D01*
X131931408Y-111291977D01*
X131969632Y-111281077D01*
X131982310Y-111274571D01*
X131996452Y-111272818D01*
X132034515Y-111260218D01*
X132044025Y-111254823D01*
X132054828Y-111253130D01*
X132092696Y-111239230D01*
X132104722Y-111231888D01*
X132118540Y-111229132D01*
X132155666Y-111213732D01*
X132167443Y-111205854D01*
X132181210Y-111202507D01*
X132217592Y-111185608D01*
X132229051Y-111177232D01*
X132242692Y-111173306D01*
X132278333Y-111154906D01*
X132288791Y-111146570D01*
X132301487Y-111142370D01*
X132336401Y-111122571D01*
X132347747Y-111112775D01*
X132361757Y-111107444D01*
X132395895Y-111086044D01*
X132406020Y-111076492D01*
X132418813Y-111071015D01*
X132452225Y-111048116D01*
X132461425Y-111038696D01*
X132473318Y-111033051D01*
X132505988Y-111008751D01*
X132515825Y-110997866D01*
X132528793Y-110991011D01*
X132566634Y-110945328D01*
X132751055Y-110982012D01*
X132942255Y-110982012D01*
X133198654Y-110931011D01*
X133221006Y-110916076D01*
X133243957Y-110931411D01*
X133500356Y-110982412D01*
X133691556Y-110982412D01*
X133947955Y-110931411D01*
X133970533Y-110916325D01*
X133993260Y-110931511D01*
X134249659Y-110982512D01*
X134440859Y-110982512D01*
X134697258Y-110931511D01*
X134745911Y-110899002D01*
X134750694Y-110902387D01*
X134774691Y-110913087D01*
X134798456Y-110918478D01*
X134819308Y-110931090D01*
X134844147Y-110940090D01*
X134859486Y-110942428D01*
X134873113Y-110949843D01*
X134898793Y-110957843D01*
X134913641Y-110959417D01*
X134927054Y-110965970D01*
X134953571Y-110972970D01*
X134967874Y-110973854D01*
X134981006Y-110979598D01*
X135008355Y-110985598D01*
X135022118Y-110985868D01*
X135034944Y-110990870D01*
X135063140Y-110995870D01*
X135087750Y-110995357D01*
X135111268Y-111002614D01*
X135140304Y-111005614D01*
X135152539Y-111004468D01*
X135164408Y-111007666D01*
X135194284Y-111009666D01*
X135210455Y-111007560D01*
X135226387Y-111011043D01*
X135257102Y-111011623D01*
X135270325Y-111009251D01*
X135283551Y-111011600D01*
X135314133Y-111010970D01*
X135329587Y-111007564D01*
X135345281Y-111009603D01*
X135375027Y-111007603D01*
X135386929Y-111004392D01*
X135399202Y-111005537D01*
X135428126Y-111002537D01*
X135440468Y-110998723D01*
X135453367Y-110999434D01*
X135481485Y-110995434D01*
X135505575Y-110986976D01*
X135531104Y-110986459D01*
X135558371Y-110980459D01*
X135571530Y-110974694D01*
X135585865Y-110973797D01*
X135612306Y-110966797D01*
X135625762Y-110960211D01*
X135640661Y-110958618D01*
X135666263Y-110950618D01*
X135679955Y-110943152D01*
X135695368Y-110940785D01*
X135720122Y-110931785D01*
X135740937Y-110919164D01*
X135764674Y-110913753D01*
X135788604Y-110903053D01*
X135804881Y-110891511D01*
X135824043Y-110885941D01*
X135847138Y-110873940D01*
X135861937Y-110862081D01*
X135879824Y-110855780D01*
X135902095Y-110842580D01*
X135917045Y-110829164D01*
X135935563Y-110821382D01*
X135957024Y-110806883D01*
X135962229Y-110801624D01*
X136038928Y-110852873D01*
X136135950Y-110922610D01*
X136147275Y-110925268D01*
X136156948Y-110931731D01*
X136274133Y-110955041D01*
X136390457Y-110982341D01*
X136401938Y-110980463D01*
X136413347Y-110982732D01*
X136671587Y-110982732D01*
X136682996Y-110980463D01*
X136694477Y-110982341D01*
X136810801Y-110955041D01*
X136927986Y-110931731D01*
X136937659Y-110925268D01*
X136948984Y-110922610D01*
X137021090Y-110870782D01*
X137111409Y-110931131D01*
X137367808Y-110982132D01*
X137557968Y-110982132D01*
X137756033Y-110942734D01*
X137954852Y-110982282D01*
X138145012Y-110982282D01*
X138401411Y-110931281D01*
X138442486Y-110903835D01*
X138452435Y-110906608D01*
X138469426Y-110918325D01*
X138487966Y-110926325D01*
X138507703Y-110930553D01*
X138524970Y-110941004D01*
X138544269Y-110948004D01*
X138563468Y-110950937D01*
X138580631Y-110960028D01*
X138600681Y-110966028D01*
X138619240Y-110967786D01*
X138636167Y-110975595D01*
X138656967Y-110980595D01*
X138674786Y-110981300D01*
X138691345Y-110987910D01*
X138712905Y-110991910D01*
X138729825Y-110991692D01*
X138745833Y-110997175D01*
X138768143Y-111000176D01*
X138769609Y-111000084D01*
X138770998Y-111000553D01*
X138794058Y-111003553D01*
X138809519Y-111002516D01*
X138824412Y-111006801D01*
X138848223Y-111008801D01*
X138868947Y-111006459D01*
X138889304Y-111010984D01*
X138913863Y-111011534D01*
X138925617Y-111009468D01*
X138937350Y-111011648D01*
X138952350Y-111011458D01*
X138960768Y-111009672D01*
X138969266Y-111011030D01*
X138984026Y-111010470D01*
X138992868Y-111008360D01*
X139001879Y-111009554D01*
X139016408Y-111008614D01*
X139018126Y-111008155D01*
X139019893Y-111008380D01*
X139029007Y-111007743D01*
X139029116Y-111008289D01*
X139174354Y-111225653D01*
X139391718Y-111370891D01*
X139648117Y-111421892D01*
X139720117Y-111421892D01*
X139725356Y-111420850D01*
X139730612Y-111421810D01*
X139753592Y-111421450D01*
X139763386Y-111419342D01*
X139773287Y-111420851D01*
X139795458Y-111419851D01*
X139811383Y-111415930D01*
X139827699Y-111417617D01*
X139849069Y-111415617D01*
X139865891Y-111410603D01*
X139883422Y-111411505D01*
X139903972Y-111408505D01*
X139905785Y-111407861D01*
X139907706Y-111407949D01*
X139927475Y-111404949D01*
X139945788Y-111398327D01*
X139965263Y-111398102D01*
X139984223Y-111394102D01*
X140003280Y-111385949D01*
X140023953Y-111384445D01*
X140042093Y-111379445D01*
X140061833Y-111369534D01*
X140083712Y-111366503D01*
X140101002Y-111360503D01*
X140120556Y-111349036D01*
X140142748Y-111344435D01*
X140159268Y-111337435D01*
X140164448Y-111333913D01*
X140170559Y-111332528D01*
X140186269Y-111325528D01*
X140206569Y-111311172D01*
X140230351Y-111303917D01*
X140245261Y-111295917D01*
X140265067Y-111279610D01*
X140288972Y-111270290D01*
X140303072Y-111261289D01*
X140321908Y-111243226D01*
X140345426Y-111231903D01*
X140358716Y-111221903D01*
X140371033Y-111208123D01*
X140387221Y-111199214D01*
X140399702Y-111188713D01*
X140413484Y-111171494D01*
X140432079Y-111159626D01*
X140443759Y-111148426D01*
X140457434Y-111128861D01*
X140476603Y-111114636D01*
X140487473Y-111102636D01*
X140498580Y-111084094D01*
X140515080Y-111070137D01*
X140525350Y-111057237D01*
X140535396Y-111037752D01*
X140551185Y-111022544D01*
X140560785Y-111008744D01*
X140569798Y-110988090D01*
X140584956Y-110971414D01*
X140586492Y-110968859D01*
X140604776Y-110973685D01*
X140619073Y-110974569D01*
X140632198Y-110980309D01*
X140659548Y-110986309D01*
X140673297Y-110986579D01*
X140686107Y-110991575D01*
X140714297Y-110996575D01*
X140738922Y-110996063D01*
X140762459Y-111003325D01*
X140791500Y-111006325D01*
X140803736Y-111005179D01*
X140815602Y-111008376D01*
X140845482Y-111010376D01*
X140861647Y-111008271D01*
X140877576Y-111011753D01*
X140908286Y-111012333D01*
X140921511Y-111009961D01*
X140934738Y-111012310D01*
X140965318Y-111011680D01*
X140980777Y-111008273D01*
X140996474Y-111010312D01*
X141026214Y-111008312D01*
X141038115Y-111005101D01*
X141050389Y-111006246D01*
X141079309Y-111003246D01*
X141091643Y-110999435D01*
X141104534Y-111000145D01*
X141132654Y-110996145D01*
X141156743Y-110987687D01*
X141182270Y-110987171D01*
X141209539Y-110981171D01*
X141222703Y-110975404D01*
X141237043Y-110974507D01*
X141263484Y-110967507D01*
X141276949Y-110960917D01*
X141291853Y-110959323D01*
X141317453Y-110951323D01*
X141331153Y-110943852D01*
X141346577Y-110941483D01*
X141371327Y-110932483D01*
X141392127Y-110919870D01*
X141415846Y-110914463D01*
X141439776Y-110903763D01*
X141456026Y-110892240D01*
X141475152Y-110886683D01*
X141498252Y-110874683D01*
X141513086Y-110862798D01*
X141531013Y-110856483D01*
X141553283Y-110843283D01*
X141568237Y-110829862D01*
X141586764Y-110822076D01*
X141608223Y-110807577D01*
X141621793Y-110793866D01*
X141639121Y-110785396D01*
X141659732Y-110769696D01*
X141672991Y-110754684D01*
X141690436Y-110744843D01*
X141710216Y-110727842D01*
X141722363Y-110712335D01*
X141738933Y-110701677D01*
X141757883Y-110683376D01*
X141768364Y-110668268D01*
X141783270Y-110657497D01*
X141801390Y-110637998D01*
X141811945Y-110620874D01*
X141827522Y-110608150D01*
X141844672Y-110587350D01*
X141853197Y-110571489D01*
X141866517Y-110559377D01*
X141882558Y-110537677D01*
X141890486Y-110520844D01*
X141903547Y-110507592D01*
X141918477Y-110484891D01*
X141925084Y-110468607D01*
X141936755Y-110455471D01*
X141950585Y-110431871D01*
X141956470Y-110414897D01*
X141967676Y-110400855D01*
X141980396Y-110376255D01*
X141985073Y-110360042D01*
X141994933Y-110346345D01*
X142006553Y-110320845D01*
X142010448Y-110304301D01*
X142019676Y-110290028D01*
X142030186Y-110263528D01*
X142033072Y-110247777D01*
X142041123Y-110233936D01*
X142050523Y-110206536D01*
X142052622Y-110190982D01*
X142059878Y-110177068D01*
X142068178Y-110148668D01*
X142069474Y-110133972D01*
X142075723Y-110120606D01*
X142082923Y-110091305D01*
X142083565Y-110076934D01*
X142089102Y-110063652D01*
X142095202Y-110033352D01*
X142095233Y-110019823D01*
X142099939Y-110007139D01*
X142104939Y-109975939D01*
X142104450Y-109962889D01*
X142108519Y-109950481D01*
X142112419Y-109918281D01*
X142111487Y-109906016D01*
X142114896Y-109894195D01*
X142117696Y-109861095D01*
X142116381Y-109849396D01*
X142119249Y-109837980D01*
X142120949Y-109803881D01*
X142119267Y-109792485D01*
X142121694Y-109781227D01*
X142122255Y-109746128D01*
X142120305Y-109735437D01*
X142122256Y-109724743D01*
X142121695Y-109689543D01*
X142119276Y-109678317D01*
X142120954Y-109666957D01*
X142119254Y-109632757D01*
X142116396Y-109621374D01*
X142117710Y-109609714D01*
X142114910Y-109576514D01*
X142111516Y-109564732D01*
X142112449Y-109552506D01*
X142108549Y-109520205D01*
X142104498Y-109507837D01*
X142104992Y-109494831D01*
X142099992Y-109463531D01*
X142095234Y-109450686D01*
X142095202Y-109436988D01*
X142089102Y-109406688D01*
X142083668Y-109393653D01*
X142083049Y-109379548D01*
X142075849Y-109350147D01*
X142069498Y-109336534D01*
X142068178Y-109321572D01*
X142059878Y-109293172D01*
X142052622Y-109279258D01*
X142050523Y-109263704D01*
X142041123Y-109236304D01*
X142033016Y-109222367D01*
X142030105Y-109206509D01*
X142019585Y-109180009D01*
X142010413Y-109165832D01*
X142006543Y-109149395D01*
X141994923Y-109123895D01*
X141984863Y-109109919D01*
X141980072Y-109093377D01*
X141967372Y-109068877D01*
X141956366Y-109055115D01*
X141950595Y-109038469D01*
X141936765Y-109014869D01*
X141924639Y-109001221D01*
X141917739Y-108984313D01*
X141902809Y-108961713D01*
X141889678Y-108948443D01*
X141881686Y-108931573D01*
X141865646Y-108909973D01*
X141851662Y-108897314D01*
X141842653Y-108880741D01*
X141825503Y-108860141D01*
X141811113Y-108848500D01*
X141801400Y-108832742D01*
X141783280Y-108813243D01*
X141768374Y-108802472D01*
X141757893Y-108787364D01*
X141738943Y-108769063D01*
X141722373Y-108758405D01*
X141710226Y-108742898D01*
X141690446Y-108725897D01*
X141673903Y-108716565D01*
X141661372Y-108702289D01*
X141640762Y-108686490D01*
X141622663Y-108677574D01*
X141608474Y-108663226D01*
X141587034Y-108648726D01*
X141568317Y-108640850D01*
X141553200Y-108627289D01*
X141530920Y-108614089D01*
X141513052Y-108607799D01*
X141498272Y-108595957D01*
X141475172Y-108583957D01*
X141455994Y-108578385D01*
X141439701Y-108566835D01*
X141415761Y-108556135D01*
X141392008Y-108550724D01*
X141371173Y-108538097D01*
X141346403Y-108529097D01*
X141331064Y-108526745D01*
X141317443Y-108519317D01*
X141291843Y-108511317D01*
X141276970Y-108509726D01*
X141263534Y-108503149D01*
X141237104Y-108496149D01*
X141222757Y-108495250D01*
X141209589Y-108489480D01*
X141182330Y-108483480D01*
X141168556Y-108483200D01*
X141155723Y-108478186D01*
X141127632Y-108473186D01*
X141102929Y-108473685D01*
X141079326Y-108466392D01*
X141050396Y-108463392D01*
X141038120Y-108464537D01*
X141026214Y-108461326D01*
X140996454Y-108459326D01*
X140980222Y-108461436D01*
X140964229Y-108457938D01*
X140933639Y-108457358D01*
X140920590Y-108459697D01*
X140907541Y-108457372D01*
X140907039Y-108457482D01*
X140876488Y-108458109D01*
X140861089Y-108461502D01*
X140845454Y-108459466D01*
X140815594Y-108461466D01*
X140803732Y-108464663D01*
X140791498Y-108463517D01*
X140762468Y-108466517D01*
X140750165Y-108470314D01*
X140737311Y-108469599D01*
X140709091Y-108473599D01*
X140685060Y-108482023D01*
X140669019Y-108482336D01*
X140550204Y-108304517D01*
X140332840Y-108159279D01*
X140076441Y-108108278D01*
X139886281Y-108108278D01*
X139758851Y-108133626D01*
X139631195Y-108158737D01*
X139630593Y-108159138D01*
X139629882Y-108159279D01*
X139521733Y-108231542D01*
X139413523Y-108303514D01*
X139413120Y-108304115D01*
X139412518Y-108304517D01*
X139340328Y-108412557D01*
X139290751Y-108486415D01*
X139045445Y-108535209D01*
X139006775Y-108561048D01*
X138968778Y-108535659D01*
X138773792Y-108496874D01*
X138764013Y-108447711D01*
X138618775Y-108230347D01*
X138401411Y-108085109D01*
X138145012Y-108034108D01*
X137954852Y-108034108D01*
X137698453Y-108085109D01*
X137641664Y-108123055D01*
X137557976Y-108106408D01*
X137367808Y-108106408D01*
X137111409Y-108157409D01*
X136894045Y-108302647D01*
X136752199Y-108514934D01*
X136647658Y-108535729D01*
X136637273Y-108542668D01*
X136625119Y-108545553D01*
X136542201Y-108605472D01*
X136459283Y-108545553D01*
X136447129Y-108542668D01*
X136436744Y-108535729D01*
X136320381Y-108512583D01*
X136204929Y-108485179D01*
X136192596Y-108487165D01*
X136180345Y-108484728D01*
X135978745Y-108484728D01*
X135857419Y-108508861D01*
X135735617Y-108530397D01*
X135729482Y-108534310D01*
X135722346Y-108535729D01*
X135719910Y-108537357D01*
X135695213Y-108528384D01*
X135679864Y-108526031D01*
X135666233Y-108518598D01*
X135640628Y-108510598D01*
X135625766Y-108509009D01*
X135612336Y-108502435D01*
X135585904Y-108495436D01*
X135571574Y-108494539D01*
X135558422Y-108488775D01*
X135531166Y-108482775D01*
X135517370Y-108482495D01*
X135504518Y-108477473D01*
X135476423Y-108472473D01*
X135451738Y-108472972D01*
X135428144Y-108465682D01*
X135399217Y-108462682D01*
X135386936Y-108463828D01*
X135375029Y-108460616D01*
X135345270Y-108458616D01*
X135329037Y-108460726D01*
X135313044Y-108457228D01*
X135282454Y-108456648D01*
X135276092Y-108457789D01*
X135269755Y-108456528D01*
X135269753Y-108456528D01*
X135262895Y-108457892D01*
X135256011Y-108456669D01*
X135225305Y-108457299D01*
X135209909Y-108460691D01*
X135194277Y-108458656D01*
X135164414Y-108460656D01*
X135152554Y-108463852D01*
X135140320Y-108462706D01*
X135111287Y-108465706D01*
X135098979Y-108469504D01*
X135086120Y-108468789D01*
X135057901Y-108472789D01*
X135033873Y-108481212D01*
X135008418Y-108481709D01*
X134981057Y-108487709D01*
X134967920Y-108493453D01*
X134953610Y-108494337D01*
X134927085Y-108501337D01*
X134913638Y-108507905D01*
X134898755Y-108509484D01*
X134873077Y-108517484D01*
X134859389Y-108524933D01*
X134843987Y-108527284D01*
X134819165Y-108536283D01*
X134798356Y-108548875D01*
X134774639Y-108554258D01*
X134750648Y-108564958D01*
X134734352Y-108576490D01*
X134715176Y-108582045D01*
X134692030Y-108594046D01*
X134677211Y-108605898D01*
X134659306Y-108612188D01*
X134636990Y-108625388D01*
X134636685Y-108625662D01*
X134574631Y-108587525D01*
X134498106Y-108559180D01*
X134426639Y-108519775D01*
X134351707Y-108495975D01*
X134280310Y-108488003D01*
X134211470Y-108467468D01*
X134126204Y-108459468D01*
X134074229Y-108464830D01*
X134022453Y-108457804D01*
X133957470Y-108461804D01*
X133916804Y-108472527D01*
X133874749Y-108472091D01*
X133814158Y-108483491D01*
X133769820Y-108501320D01*
X133722442Y-108507575D01*
X133682420Y-108521177D01*
X133675074Y-108518302D01*
X133621501Y-108508733D01*
X133571544Y-108487145D01*
X133515669Y-108475145D01*
X133466535Y-108474398D01*
X133419073Y-108461660D01*
X133358418Y-108457660D01*
X133319710Y-108462740D01*
X133281090Y-108457033D01*
X133220693Y-108460033D01*
X133179198Y-108470451D01*
X133136425Y-108469593D01*
X133080290Y-108479593D01*
X133042713Y-108494282D01*
X133008859Y-108497656D01*
X132942257Y-108484408D01*
X132751055Y-108484408D01*
X132558255Y-108522758D01*
X132546594Y-108512720D01*
X132528668Y-108502589D01*
X132515022Y-108487165D01*
X132474648Y-108456465D01*
X132456861Y-108447790D01*
X132442907Y-108433757D01*
X132400662Y-108405357D01*
X132381914Y-108397529D01*
X132366751Y-108384003D01*
X132322584Y-108358003D01*
X132303768Y-108351438D01*
X132288146Y-108339068D01*
X132242072Y-108315468D01*
X132223972Y-108310321D01*
X132208592Y-108299472D01*
X132161313Y-108278472D01*
X132142904Y-108274323D01*
X132126904Y-108264319D01*
X132078646Y-108246019D01*
X132057958Y-108242551D01*
X132039519Y-108232548D01*
X131990178Y-108217248D01*
X131972924Y-108215441D01*
X131957277Y-108207960D01*
X131907077Y-108195160D01*
X131887726Y-108194127D01*
X131869796Y-108186779D01*
X131818523Y-108176779D01*
X131798314Y-108176854D01*
X131779192Y-108170316D01*
X131726918Y-108163316D01*
X131713493Y-108164166D01*
X131700598Y-108160319D01*
X131647323Y-108155319D01*
X131628146Y-108157297D01*
X131609389Y-108152842D01*
X131555112Y-108150842D01*
X131536463Y-108153842D01*
X131517874Y-108150506D01*
X131469365Y-108151416D01*
X131454800Y-108154598D01*
X131440025Y-108152610D01*
X131392155Y-108155610D01*
X131378041Y-108159348D01*
X131363501Y-108158024D01*
X131316289Y-108163024D01*
X131295357Y-108169542D01*
X131273443Y-108168966D01*
X131226862Y-108176966D01*
X131212764Y-108182376D01*
X131197667Y-108182650D01*
X131151759Y-108192650D01*
X131137256Y-108198968D01*
X131121469Y-108199990D01*
X131076167Y-108212090D01*
X131061207Y-108219453D01*
X131044643Y-108221344D01*
X131000008Y-108235644D01*
X130985500Y-108243691D01*
X130969126Y-108246375D01*
X130925136Y-108262875D01*
X130912606Y-108270647D01*
X130898171Y-108273661D01*
X130855151Y-108291962D01*
X130841492Y-108301277D01*
X130825489Y-108305440D01*
X130783760Y-108325640D01*
X130770376Y-108335755D01*
X130754368Y-108340774D01*
X130713931Y-108362874D01*
X130700457Y-108374143D01*
X130683990Y-108380257D01*
X130644845Y-108404357D01*
X130632330Y-108415974D01*
X130616644Y-108422712D01*
X130578809Y-108448711D01*
X130566652Y-108461189D01*
X130551022Y-108468874D01*
X130514443Y-108496874D01*
X130503619Y-108509187D01*
X130489272Y-108517122D01*
X130454003Y-108546922D01*
X130442917Y-108560833D01*
X130427824Y-108570243D01*
X130393847Y-108602143D01*
X130383399Y-108616760D01*
X130368675Y-108627060D01*
X130337055Y-108660060D01*
X130328246Y-108673874D01*
X130315288Y-108683901D01*
X130285542Y-108718101D01*
X130276835Y-108733326D01*
X130263537Y-108744760D01*
X130235663Y-108780361D01*
X130228123Y-108795281D01*
X130216001Y-108806788D01*
X130190001Y-108843588D01*
X130183011Y-108859293D01*
X130171155Y-108871746D01*
X130147028Y-108909846D01*
X130140865Y-108925824D01*
X130129695Y-108938806D01*
X130107442Y-108978207D01*
X130102169Y-108994237D01*
X130091811Y-109007560D01*
X130071418Y-109048260D01*
X130066939Y-109064560D01*
X130057240Y-109078405D01*
X130038747Y-109120405D01*
X130035197Y-109136399D01*
X130026455Y-109150252D01*
X130009984Y-109193152D01*
X130007134Y-109209729D01*
X129998873Y-109224379D01*
X129984597Y-109267879D01*
X129982577Y-109284528D01*
X129975068Y-109299527D01*
X129962996Y-109343527D01*
X129961794Y-109360333D01*
X129955008Y-109375752D01*
X129945118Y-109420351D01*
X129944751Y-109437118D01*
X129938761Y-109452783D01*
X129931071Y-109497883D01*
X129931529Y-109514561D01*
X129926343Y-109530414D01*
X129920853Y-109576014D01*
X129922123Y-109592581D01*
X129917734Y-109608610D01*
X129914444Y-109654911D01*
X129916460Y-109670899D01*
X129912945Y-109686623D01*
X129911845Y-109733323D01*
X129914527Y-109748687D01*
X129911826Y-109764047D01*
X129589600Y-109764047D01*
X129589600Y-107767981D01*
X129601405Y-107725757D01*
X129589600Y-107627924D01*
X129589600Y-107600674D01*
X129581241Y-107558651D01*
X129567568Y-107445336D01*
X129553858Y-107420984D01*
X129548405Y-107393572D01*
X129484991Y-107298666D01*
X129428995Y-107199209D01*
X129407008Y-107181957D01*
X129391481Y-107158719D01*
X129334829Y-107120865D01*
X129445436Y-107098864D01*
X129655480Y-106958516D01*
X129795828Y-106748472D01*
X129818258Y-106635707D01*
X129895737Y-106635707D01*
X129997671Y-106655983D01*
X130099605Y-106635707D01*
X130099606Y-106635707D01*
X130401508Y-106575655D01*
X130743864Y-106346900D01*
X130801608Y-106260481D01*
X131342776Y-105719313D01*
X131429193Y-105661571D01*
X131657948Y-105319215D01*
X131718000Y-105017313D01*
X131718000Y-105017312D01*
X131719057Y-105012000D01*
X132033250Y-105012000D01*
X132192000Y-104853250D01*
X132192000Y-103504000D01*
X132172000Y-103504000D01*
X132172000Y-103250000D01*
X132192000Y-103250000D01*
X132192000Y-101900750D01*
X132033250Y-101742000D01*
X131718000Y-101742000D01*
X131718000Y-89004350D01*
X131819000Y-89024440D01*
X132819000Y-89024440D01*
X133066765Y-88975157D01*
X133276809Y-88834809D01*
X133319000Y-88771666D01*
X133361191Y-88834809D01*
X133571235Y-88975157D01*
X133819000Y-89024440D01*
X134819000Y-89024440D01*
X135066765Y-88975157D01*
X135276809Y-88834809D01*
X135319000Y-88771666D01*
X135361191Y-88834809D01*
X135571235Y-88975157D01*
X135819000Y-89024440D01*
X136819000Y-89024440D01*
X137066765Y-88975157D01*
X137276809Y-88834809D01*
X137319000Y-88771666D01*
X137361191Y-88834809D01*
X137571235Y-88975157D01*
X137819000Y-89024440D01*
X138819000Y-89024440D01*
X139066765Y-88975157D01*
X139276809Y-88834809D01*
X139319000Y-88771666D01*
X139361191Y-88834809D01*
X139361191Y-88834809D01*
G37*
X139361191Y-88834809D02*
X139484001Y-88916868D01*
X139484001Y-89436762D01*
X139467643Y-89519000D01*
X139532448Y-89844800D01*
X139532449Y-89844801D01*
X139717000Y-90121001D01*
X139786718Y-90167585D01*
X140389000Y-90769868D01*
X140389001Y-95040770D01*
X140372643Y-95123008D01*
X140437448Y-95448808D01*
X140474331Y-95504007D01*
X140622000Y-95725009D01*
X140644220Y-95739856D01*
X140775977Y-96057944D01*
X141051064Y-96333031D01*
X141410484Y-96481908D01*
X141799516Y-96481908D01*
X142158936Y-96333031D01*
X142341050Y-96150917D01*
X142438002Y-96247870D01*
X142438001Y-101729560D01*
X141819000Y-101729560D01*
X141571235Y-101778843D01*
X141361191Y-101919191D01*
X141319000Y-101982334D01*
X141276809Y-101919191D01*
X141066765Y-101778843D01*
X140819000Y-101729560D01*
X139819000Y-101729560D01*
X139571235Y-101778843D01*
X139361191Y-101919191D01*
X139319000Y-101982334D01*
X139276809Y-101919191D01*
X139066765Y-101778843D01*
X138819000Y-101729560D01*
X137819000Y-101729560D01*
X137571235Y-101778843D01*
X137361191Y-101919191D01*
X137319000Y-101982334D01*
X137276809Y-101919191D01*
X137066765Y-101778843D01*
X136819000Y-101729560D01*
X135819000Y-101729560D01*
X135571235Y-101778843D01*
X135361191Y-101919191D01*
X135319000Y-101982334D01*
X135276809Y-101919191D01*
X135066765Y-101778843D01*
X134819000Y-101729560D01*
X133819000Y-101729560D01*
X133571235Y-101778843D01*
X133361191Y-101919191D01*
X133320345Y-101980320D01*
X133178699Y-101838673D01*
X132945310Y-101742000D01*
X132604750Y-101742000D01*
X132446000Y-101900750D01*
X132446000Y-103250000D01*
X132466000Y-103250000D01*
X132466000Y-103504000D01*
X132446000Y-103504000D01*
X132446000Y-104853250D01*
X132604750Y-105012000D01*
X132945310Y-105012000D01*
X133178699Y-104915327D01*
X133320345Y-104773680D01*
X133361191Y-104834809D01*
X133571235Y-104975157D01*
X133819000Y-105024440D01*
X134819000Y-105024440D01*
X135066765Y-104975157D01*
X135276809Y-104834809D01*
X135319000Y-104771666D01*
X135361191Y-104834809D01*
X135571235Y-104975157D01*
X135819000Y-105024440D01*
X136819000Y-105024440D01*
X137066765Y-104975157D01*
X137276809Y-104834809D01*
X137319000Y-104771666D01*
X137361191Y-104834809D01*
X137571235Y-104975157D01*
X137819000Y-105024440D01*
X138819000Y-105024440D01*
X139066765Y-104975157D01*
X139276809Y-104834809D01*
X139319000Y-104771666D01*
X139361191Y-104834809D01*
X139571235Y-104975157D01*
X139819000Y-105024440D01*
X140819000Y-105024440D01*
X141066765Y-104975157D01*
X141276809Y-104834809D01*
X141319000Y-104771666D01*
X141361191Y-104834809D01*
X141571235Y-104975157D01*
X141819000Y-105024440D01*
X142593784Y-105024440D01*
X142671000Y-105140002D01*
X142740721Y-105186588D01*
X145265801Y-107711669D01*
X145265800Y-109668335D01*
X145030175Y-109825775D01*
X144841591Y-110108011D01*
X144819722Y-110055215D01*
X144401985Y-109637478D01*
X143856185Y-109411400D01*
X143265415Y-109411400D01*
X142719615Y-109637478D01*
X142301878Y-110055215D01*
X142075800Y-110601015D01*
X142075800Y-111191785D01*
X142301878Y-111737585D01*
X142719615Y-112155322D01*
X143265415Y-112381400D01*
X143856185Y-112381400D01*
X144401985Y-112155322D01*
X144819722Y-111737585D01*
X144841591Y-111684789D01*
X145030175Y-111967025D01*
X145521382Y-112295239D01*
X145954544Y-112381400D01*
X146247056Y-112381400D01*
X146680218Y-112295239D01*
X147171425Y-111967025D01*
X147370800Y-111668639D01*
X147570175Y-111967025D01*
X148061382Y-112295239D01*
X148494544Y-112381400D01*
X148787056Y-112381400D01*
X149220218Y-112295239D01*
X149711425Y-111967025D01*
X149910800Y-111668639D01*
X150110175Y-111967025D01*
X150601382Y-112295239D01*
X151034544Y-112381400D01*
X151327056Y-112381400D01*
X151760218Y-112295239D01*
X151918600Y-112189411D01*
X151918600Y-113742400D01*
X144270800Y-113742400D01*
X144270800Y-113328526D01*
X144284709Y-113258600D01*
X144229605Y-112981572D01*
X144072681Y-112746719D01*
X143837828Y-112589795D01*
X143630726Y-112548600D01*
X143560800Y-112534691D01*
X143490875Y-112548600D01*
X134842325Y-112548600D01*
X134772400Y-112534691D01*
X134702474Y-112548600D01*
X134495372Y-112589795D01*
X134260519Y-112746719D01*
X134103595Y-112981572D01*
X134048491Y-113258600D01*
X134062400Y-113328526D01*
X134062400Y-113717000D01*
X129589600Y-113717000D01*
X129589600Y-109764047D01*
X129911826Y-109764047D01*
X129912906Y-109812447D01*
X129916279Y-109827624D01*
X129914289Y-109843044D01*
X129917539Y-109890745D01*
X129921699Y-109906112D01*
X129920403Y-109921977D01*
X129925813Y-109968877D01*
X129930800Y-109984383D01*
X129930253Y-110000666D01*
X129937823Y-110046765D01*
X129943656Y-110062305D01*
X129943909Y-110078901D01*
X129953639Y-110124201D01*
X129960304Y-110139623D01*
X129961389Y-110156387D01*
X129973301Y-110200987D01*
X129980769Y-110216161D01*
X129982699Y-110232961D01*
X129996765Y-110276761D01*
X130005043Y-110291662D01*
X130007836Y-110308482D01*
X130024066Y-110351482D01*
X130033513Y-110366644D01*
X130037363Y-110384095D01*
X130055659Y-110425794D01*
X130065495Y-110439873D01*
X130070037Y-110456435D01*
X130090304Y-110496935D01*
X130101148Y-110510898D01*
X130106705Y-110527686D01*
X130128942Y-110566886D01*
X130140317Y-110580057D01*
X130146623Y-110596274D01*
X130170830Y-110634274D01*
X130183143Y-110647137D01*
X130190457Y-110663374D01*
X130216635Y-110700074D01*
X130229209Y-110711902D01*
X130237089Y-110727262D01*
X130265236Y-110762762D01*
X130278611Y-110774121D01*
X130287414Y-110789296D01*
X130317531Y-110823496D01*
X130331279Y-110834001D01*
X130340712Y-110848507D01*
X130372800Y-110881407D01*
X130386455Y-110890780D01*
X130396151Y-110904211D01*
X130429806Y-110935511D01*
X130443674Y-110944067D01*
X130453835Y-110956809D01*
X130488653Y-110986209D01*
X130503060Y-110994171D01*
X130513934Y-111006529D01*
X130549896Y-111034029D01*
X130565578Y-111041730D01*
X130577776Y-111054234D01*
X130614935Y-111079734D01*
X130630914Y-111086586D01*
X130643674Y-111098393D01*
X130681979Y-111121893D01*
X130697155Y-111127500D01*
X130709541Y-111137913D01*
X130749009Y-111159613D01*
X130765615Y-111164866D01*
X130779505Y-111175377D01*
X130820136Y-111195077D01*
X130836197Y-111199265D01*
X130849903Y-111208622D01*
X130891696Y-111226422D01*
X130906973Y-111229619D01*
X130920250Y-111237816D01*
X130962912Y-111253717D01*
X130978719Y-111256274D01*
X130992724Y-111264035D01*
X131036168Y-111277935D01*
X131053083Y-111279860D01*
X131068369Y-111287356D01*
X131112425Y-111299056D01*
X131125937Y-111299911D01*
X131138320Y-111305384D01*
X131183083Y-111315384D01*
X131205785Y-111315916D01*
X131227121Y-111323686D01*
X131272548Y-111330686D01*
X131287793Y-111330023D01*
X131302350Y-111334596D01*
X131348455Y-111339596D01*
X131363357Y-111338276D01*
X131377816Y-111342129D01*
X131424599Y-111345129D01*
X131440010Y-111343078D01*
X131455196Y-111346389D01*
X131502658Y-111347259D01*
X131514864Y-111345063D01*
X131527071Y-111347262D01*
X131566267Y-111346552D01*
X131577274Y-111344154D01*
X131588422Y-111345784D01*
X131627450Y-111343784D01*
X131644344Y-111339514D01*
X131661695Y-111341148D01*
X131700595Y-111337148D01*
X131717303Y-111332001D01*
X131734766Y-111332743D01*
X131773446Y-111326743D01*
X131789691Y-111320809D01*
X131806986Y-111320663D01*
X131845505Y-111312663D01*
X131853460Y-111309289D01*
X131862096Y-111308997D01*
X131900510Y-111299997D01*
X131915260Y-111293295D01*
X131931408Y-111291977D01*
X131969632Y-111281077D01*
X131982310Y-111274571D01*
X131996452Y-111272818D01*
X132034515Y-111260218D01*
X132044025Y-111254823D01*
X132054828Y-111253130D01*
X132092696Y-111239230D01*
X132104722Y-111231888D01*
X132118540Y-111229132D01*
X132155666Y-111213732D01*
X132167443Y-111205854D01*
X132181210Y-111202507D01*
X132217592Y-111185608D01*
X132229051Y-111177232D01*
X132242692Y-111173306D01*
X132278333Y-111154906D01*
X132288791Y-111146570D01*
X132301487Y-111142370D01*
X132336401Y-111122571D01*
X132347747Y-111112775D01*
X132361757Y-111107444D01*
X132395895Y-111086044D01*
X132406020Y-111076492D01*
X132418813Y-111071015D01*
X132452225Y-111048116D01*
X132461425Y-111038696D01*
X132473318Y-111033051D01*
X132505988Y-111008751D01*
X132515825Y-110997866D01*
X132528793Y-110991011D01*
X132566634Y-110945328D01*
X132751055Y-110982012D01*
X132942255Y-110982012D01*
X133198654Y-110931011D01*
X133221006Y-110916076D01*
X133243957Y-110931411D01*
X133500356Y-110982412D01*
X133691556Y-110982412D01*
X133947955Y-110931411D01*
X133970533Y-110916325D01*
X133993260Y-110931511D01*
X134249659Y-110982512D01*
X134440859Y-110982512D01*
X134697258Y-110931511D01*
X134745911Y-110899002D01*
X134750694Y-110902387D01*
X134774691Y-110913087D01*
X134798456Y-110918478D01*
X134819308Y-110931090D01*
X134844147Y-110940090D01*
X134859486Y-110942428D01*
X134873113Y-110949843D01*
X134898793Y-110957843D01*
X134913641Y-110959417D01*
X134927054Y-110965970D01*
X134953571Y-110972970D01*
X134967874Y-110973854D01*
X134981006Y-110979598D01*
X135008355Y-110985598D01*
X135022118Y-110985868D01*
X135034944Y-110990870D01*
X135063140Y-110995870D01*
X135087750Y-110995357D01*
X135111268Y-111002614D01*
X135140304Y-111005614D01*
X135152539Y-111004468D01*
X135164408Y-111007666D01*
X135194284Y-111009666D01*
X135210455Y-111007560D01*
X135226387Y-111011043D01*
X135257102Y-111011623D01*
X135270325Y-111009251D01*
X135283551Y-111011600D01*
X135314133Y-111010970D01*
X135329587Y-111007564D01*
X135345281Y-111009603D01*
X135375027Y-111007603D01*
X135386929Y-111004392D01*
X135399202Y-111005537D01*
X135428126Y-111002537D01*
X135440468Y-110998723D01*
X135453367Y-110999434D01*
X135481485Y-110995434D01*
X135505575Y-110986976D01*
X135531104Y-110986459D01*
X135558371Y-110980459D01*
X135571530Y-110974694D01*
X135585865Y-110973797D01*
X135612306Y-110966797D01*
X135625762Y-110960211D01*
X135640661Y-110958618D01*
X135666263Y-110950618D01*
X135679955Y-110943152D01*
X135695368Y-110940785D01*
X135720122Y-110931785D01*
X135740937Y-110919164D01*
X135764674Y-110913753D01*
X135788604Y-110903053D01*
X135804881Y-110891511D01*
X135824043Y-110885941D01*
X135847138Y-110873940D01*
X135861937Y-110862081D01*
X135879824Y-110855780D01*
X135902095Y-110842580D01*
X135917045Y-110829164D01*
X135935563Y-110821382D01*
X135957024Y-110806883D01*
X135962229Y-110801624D01*
X136038928Y-110852873D01*
X136135950Y-110922610D01*
X136147275Y-110925268D01*
X136156948Y-110931731D01*
X136274133Y-110955041D01*
X136390457Y-110982341D01*
X136401938Y-110980463D01*
X136413347Y-110982732D01*
X136671587Y-110982732D01*
X136682996Y-110980463D01*
X136694477Y-110982341D01*
X136810801Y-110955041D01*
X136927986Y-110931731D01*
X136937659Y-110925268D01*
X136948984Y-110922610D01*
X137021090Y-110870782D01*
X137111409Y-110931131D01*
X137367808Y-110982132D01*
X137557968Y-110982132D01*
X137756033Y-110942734D01*
X137954852Y-110982282D01*
X138145012Y-110982282D01*
X138401411Y-110931281D01*
X138442486Y-110903835D01*
X138452435Y-110906608D01*
X138469426Y-110918325D01*
X138487966Y-110926325D01*
X138507703Y-110930553D01*
X138524970Y-110941004D01*
X138544269Y-110948004D01*
X138563468Y-110950937D01*
X138580631Y-110960028D01*
X138600681Y-110966028D01*
X138619240Y-110967786D01*
X138636167Y-110975595D01*
X138656967Y-110980595D01*
X138674786Y-110981300D01*
X138691345Y-110987910D01*
X138712905Y-110991910D01*
X138729825Y-110991692D01*
X138745833Y-110997175D01*
X138768143Y-111000176D01*
X138769609Y-111000084D01*
X138770998Y-111000553D01*
X138794058Y-111003553D01*
X138809519Y-111002516D01*
X138824412Y-111006801D01*
X138848223Y-111008801D01*
X138868947Y-111006459D01*
X138889304Y-111010984D01*
X138913863Y-111011534D01*
X138925617Y-111009468D01*
X138937350Y-111011648D01*
X138952350Y-111011458D01*
X138960768Y-111009672D01*
X138969266Y-111011030D01*
X138984026Y-111010470D01*
X138992868Y-111008360D01*
X139001879Y-111009554D01*
X139016408Y-111008614D01*
X139018126Y-111008155D01*
X139019893Y-111008380D01*
X139029007Y-111007743D01*
X139029116Y-111008289D01*
X139174354Y-111225653D01*
X139391718Y-111370891D01*
X139648117Y-111421892D01*
X139720117Y-111421892D01*
X139725356Y-111420850D01*
X139730612Y-111421810D01*
X139753592Y-111421450D01*
X139763386Y-111419342D01*
X139773287Y-111420851D01*
X139795458Y-111419851D01*
X139811383Y-111415930D01*
X139827699Y-111417617D01*
X139849069Y-111415617D01*
X139865891Y-111410603D01*
X139883422Y-111411505D01*
X139903972Y-111408505D01*
X139905785Y-111407861D01*
X139907706Y-111407949D01*
X139927475Y-111404949D01*
X139945788Y-111398327D01*
X139965263Y-111398102D01*
X139984223Y-111394102D01*
X140003280Y-111385949D01*
X140023953Y-111384445D01*
X140042093Y-111379445D01*
X140061833Y-111369534D01*
X140083712Y-111366503D01*
X140101002Y-111360503D01*
X140120556Y-111349036D01*
X140142748Y-111344435D01*
X140159268Y-111337435D01*
X140164448Y-111333913D01*
X140170559Y-111332528D01*
X140186269Y-111325528D01*
X140206569Y-111311172D01*
X140230351Y-111303917D01*
X140245261Y-111295917D01*
X140265067Y-111279610D01*
X140288972Y-111270290D01*
X140303072Y-111261289D01*
X140321908Y-111243226D01*
X140345426Y-111231903D01*
X140358716Y-111221903D01*
X140371033Y-111208123D01*
X140387221Y-111199214D01*
X140399702Y-111188713D01*
X140413484Y-111171494D01*
X140432079Y-111159626D01*
X140443759Y-111148426D01*
X140457434Y-111128861D01*
X140476603Y-111114636D01*
X140487473Y-111102636D01*
X140498580Y-111084094D01*
X140515080Y-111070137D01*
X140525350Y-111057237D01*
X140535396Y-111037752D01*
X140551185Y-111022544D01*
X140560785Y-111008744D01*
X140569798Y-110988090D01*
X140584956Y-110971414D01*
X140586492Y-110968859D01*
X140604776Y-110973685D01*
X140619073Y-110974569D01*
X140632198Y-110980309D01*
X140659548Y-110986309D01*
X140673297Y-110986579D01*
X140686107Y-110991575D01*
X140714297Y-110996575D01*
X140738922Y-110996063D01*
X140762459Y-111003325D01*
X140791500Y-111006325D01*
X140803736Y-111005179D01*
X140815602Y-111008376D01*
X140845482Y-111010376D01*
X140861647Y-111008271D01*
X140877576Y-111011753D01*
X140908286Y-111012333D01*
X140921511Y-111009961D01*
X140934738Y-111012310D01*
X140965318Y-111011680D01*
X140980777Y-111008273D01*
X140996474Y-111010312D01*
X141026214Y-111008312D01*
X141038115Y-111005101D01*
X141050389Y-111006246D01*
X141079309Y-111003246D01*
X141091643Y-110999435D01*
X141104534Y-111000145D01*
X141132654Y-110996145D01*
X141156743Y-110987687D01*
X141182270Y-110987171D01*
X141209539Y-110981171D01*
X141222703Y-110975404D01*
X141237043Y-110974507D01*
X141263484Y-110967507D01*
X141276949Y-110960917D01*
X141291853Y-110959323D01*
X141317453Y-110951323D01*
X141331153Y-110943852D01*
X141346577Y-110941483D01*
X141371327Y-110932483D01*
X141392127Y-110919870D01*
X141415846Y-110914463D01*
X141439776Y-110903763D01*
X141456026Y-110892240D01*
X141475152Y-110886683D01*
X141498252Y-110874683D01*
X141513086Y-110862798D01*
X141531013Y-110856483D01*
X141553283Y-110843283D01*
X141568237Y-110829862D01*
X141586764Y-110822076D01*
X141608223Y-110807577D01*
X141621793Y-110793866D01*
X141639121Y-110785396D01*
X141659732Y-110769696D01*
X141672991Y-110754684D01*
X141690436Y-110744843D01*
X141710216Y-110727842D01*
X141722363Y-110712335D01*
X141738933Y-110701677D01*
X141757883Y-110683376D01*
X141768364Y-110668268D01*
X141783270Y-110657497D01*
X141801390Y-110637998D01*
X141811945Y-110620874D01*
X141827522Y-110608150D01*
X141844672Y-110587350D01*
X141853197Y-110571489D01*
X141866517Y-110559377D01*
X141882558Y-110537677D01*
X141890486Y-110520844D01*
X141903547Y-110507592D01*
X141918477Y-110484891D01*
X141925084Y-110468607D01*
X141936755Y-110455471D01*
X141950585Y-110431871D01*
X141956470Y-110414897D01*
X141967676Y-110400855D01*
X141980396Y-110376255D01*
X141985073Y-110360042D01*
X141994933Y-110346345D01*
X142006553Y-110320845D01*
X142010448Y-110304301D01*
X142019676Y-110290028D01*
X142030186Y-110263528D01*
X142033072Y-110247777D01*
X142041123Y-110233936D01*
X142050523Y-110206536D01*
X142052622Y-110190982D01*
X142059878Y-110177068D01*
X142068178Y-110148668D01*
X142069474Y-110133972D01*
X142075723Y-110120606D01*
X142082923Y-110091305D01*
X142083565Y-110076934D01*
X142089102Y-110063652D01*
X142095202Y-110033352D01*
X142095233Y-110019823D01*
X142099939Y-110007139D01*
X142104939Y-109975939D01*
X142104450Y-109962889D01*
X142108519Y-109950481D01*
X142112419Y-109918281D01*
X142111487Y-109906016D01*
X142114896Y-109894195D01*
X142117696Y-109861095D01*
X142116381Y-109849396D01*
X142119249Y-109837980D01*
X142120949Y-109803881D01*
X142119267Y-109792485D01*
X142121694Y-109781227D01*
X142122255Y-109746128D01*
X142120305Y-109735437D01*
X142122256Y-109724743D01*
X142121695Y-109689543D01*
X142119276Y-109678317D01*
X142120954Y-109666957D01*
X142119254Y-109632757D01*
X142116396Y-109621374D01*
X142117710Y-109609714D01*
X142114910Y-109576514D01*
X142111516Y-109564732D01*
X142112449Y-109552506D01*
X142108549Y-109520205D01*
X142104498Y-109507837D01*
X142104992Y-109494831D01*
X142099992Y-109463531D01*
X142095234Y-109450686D01*
X142095202Y-109436988D01*
X142089102Y-109406688D01*
X142083668Y-109393653D01*
X142083049Y-109379548D01*
X142075849Y-109350147D01*
X142069498Y-109336534D01*
X142068178Y-109321572D01*
X142059878Y-109293172D01*
X142052622Y-109279258D01*
X142050523Y-109263704D01*
X142041123Y-109236304D01*
X142033016Y-109222367D01*
X142030105Y-109206509D01*
X142019585Y-109180009D01*
X142010413Y-109165832D01*
X142006543Y-109149395D01*
X141994923Y-109123895D01*
X141984863Y-109109919D01*
X141980072Y-109093377D01*
X141967372Y-109068877D01*
X141956366Y-109055115D01*
X141950595Y-109038469D01*
X141936765Y-109014869D01*
X141924639Y-109001221D01*
X141917739Y-108984313D01*
X141902809Y-108961713D01*
X141889678Y-108948443D01*
X141881686Y-108931573D01*
X141865646Y-108909973D01*
X141851662Y-108897314D01*
X141842653Y-108880741D01*
X141825503Y-108860141D01*
X141811113Y-108848500D01*
X141801400Y-108832742D01*
X141783280Y-108813243D01*
X141768374Y-108802472D01*
X141757893Y-108787364D01*
X141738943Y-108769063D01*
X141722373Y-108758405D01*
X141710226Y-108742898D01*
X141690446Y-108725897D01*
X141673903Y-108716565D01*
X141661372Y-108702289D01*
X141640762Y-108686490D01*
X141622663Y-108677574D01*
X141608474Y-108663226D01*
X141587034Y-108648726D01*
X141568317Y-108640850D01*
X141553200Y-108627289D01*
X141530920Y-108614089D01*
X141513052Y-108607799D01*
X141498272Y-108595957D01*
X141475172Y-108583957D01*
X141455994Y-108578385D01*
X141439701Y-108566835D01*
X141415761Y-108556135D01*
X141392008Y-108550724D01*
X141371173Y-108538097D01*
X141346403Y-108529097D01*
X141331064Y-108526745D01*
X141317443Y-108519317D01*
X141291843Y-108511317D01*
X141276970Y-108509726D01*
X141263534Y-108503149D01*
X141237104Y-108496149D01*
X141222757Y-108495250D01*
X141209589Y-108489480D01*
X141182330Y-108483480D01*
X141168556Y-108483200D01*
X141155723Y-108478186D01*
X141127632Y-108473186D01*
X141102929Y-108473685D01*
X141079326Y-108466392D01*
X141050396Y-108463392D01*
X141038120Y-108464537D01*
X141026214Y-108461326D01*
X140996454Y-108459326D01*
X140980222Y-108461436D01*
X140964229Y-108457938D01*
X140933639Y-108457358D01*
X140920590Y-108459697D01*
X140907541Y-108457372D01*
X140907039Y-108457482D01*
X140876488Y-108458109D01*
X140861089Y-108461502D01*
X140845454Y-108459466D01*
X140815594Y-108461466D01*
X140803732Y-108464663D01*
X140791498Y-108463517D01*
X140762468Y-108466517D01*
X140750165Y-108470314D01*
X140737311Y-108469599D01*
X140709091Y-108473599D01*
X140685060Y-108482023D01*
X140669019Y-108482336D01*
X140550204Y-108304517D01*
X140332840Y-108159279D01*
X140076441Y-108108278D01*
X139886281Y-108108278D01*
X139758851Y-108133626D01*
X139631195Y-108158737D01*
X139630593Y-108159138D01*
X139629882Y-108159279D01*
X139521733Y-108231542D01*
X139413523Y-108303514D01*
X139413120Y-108304115D01*
X139412518Y-108304517D01*
X139340328Y-108412557D01*
X139290751Y-108486415D01*
X139045445Y-108535209D01*
X139006775Y-108561048D01*
X138968778Y-108535659D01*
X138773792Y-108496874D01*
X138764013Y-108447711D01*
X138618775Y-108230347D01*
X138401411Y-108085109D01*
X138145012Y-108034108D01*
X137954852Y-108034108D01*
X137698453Y-108085109D01*
X137641664Y-108123055D01*
X137557976Y-108106408D01*
X137367808Y-108106408D01*
X137111409Y-108157409D01*
X136894045Y-108302647D01*
X136752199Y-108514934D01*
X136647658Y-108535729D01*
X136637273Y-108542668D01*
X136625119Y-108545553D01*
X136542201Y-108605472D01*
X136459283Y-108545553D01*
X136447129Y-108542668D01*
X136436744Y-108535729D01*
X136320381Y-108512583D01*
X136204929Y-108485179D01*
X136192596Y-108487165D01*
X136180345Y-108484728D01*
X135978745Y-108484728D01*
X135857419Y-108508861D01*
X135735617Y-108530397D01*
X135729482Y-108534310D01*
X135722346Y-108535729D01*
X135719910Y-108537357D01*
X135695213Y-108528384D01*
X135679864Y-108526031D01*
X135666233Y-108518598D01*
X135640628Y-108510598D01*
X135625766Y-108509009D01*
X135612336Y-108502435D01*
X135585904Y-108495436D01*
X135571574Y-108494539D01*
X135558422Y-108488775D01*
X135531166Y-108482775D01*
X135517370Y-108482495D01*
X135504518Y-108477473D01*
X135476423Y-108472473D01*
X135451738Y-108472972D01*
X135428144Y-108465682D01*
X135399217Y-108462682D01*
X135386936Y-108463828D01*
X135375029Y-108460616D01*
X135345270Y-108458616D01*
X135329037Y-108460726D01*
X135313044Y-108457228D01*
X135282454Y-108456648D01*
X135276092Y-108457789D01*
X135269755Y-108456528D01*
X135269753Y-108456528D01*
X135262895Y-108457892D01*
X135256011Y-108456669D01*
X135225305Y-108457299D01*
X135209909Y-108460691D01*
X135194277Y-108458656D01*
X135164414Y-108460656D01*
X135152554Y-108463852D01*
X135140320Y-108462706D01*
X135111287Y-108465706D01*
X135098979Y-108469504D01*
X135086120Y-108468789D01*
X135057901Y-108472789D01*
X135033873Y-108481212D01*
X135008418Y-108481709D01*
X134981057Y-108487709D01*
X134967920Y-108493453D01*
X134953610Y-108494337D01*
X134927085Y-108501337D01*
X134913638Y-108507905D01*
X134898755Y-108509484D01*
X134873077Y-108517484D01*
X134859389Y-108524933D01*
X134843987Y-108527284D01*
X134819165Y-108536283D01*
X134798356Y-108548875D01*
X134774639Y-108554258D01*
X134750648Y-108564958D01*
X134734352Y-108576490D01*
X134715176Y-108582045D01*
X134692030Y-108594046D01*
X134677211Y-108605898D01*
X134659306Y-108612188D01*
X134636990Y-108625388D01*
X134636685Y-108625662D01*
X134574631Y-108587525D01*
X134498106Y-108559180D01*
X134426639Y-108519775D01*
X134351707Y-108495975D01*
X134280310Y-108488003D01*
X134211470Y-108467468D01*
X134126204Y-108459468D01*
X134074229Y-108464830D01*
X134022453Y-108457804D01*
X133957470Y-108461804D01*
X133916804Y-108472527D01*
X133874749Y-108472091D01*
X133814158Y-108483491D01*
X133769820Y-108501320D01*
X133722442Y-108507575D01*
X133682420Y-108521177D01*
X133675074Y-108518302D01*
X133621501Y-108508733D01*
X133571544Y-108487145D01*
X133515669Y-108475145D01*
X133466535Y-108474398D01*
X133419073Y-108461660D01*
X133358418Y-108457660D01*
X133319710Y-108462740D01*
X133281090Y-108457033D01*
X133220693Y-108460033D01*
X133179198Y-108470451D01*
X133136425Y-108469593D01*
X133080290Y-108479593D01*
X133042713Y-108494282D01*
X133008859Y-108497656D01*
X132942257Y-108484408D01*
X132751055Y-108484408D01*
X132558255Y-108522758D01*
X132546594Y-108512720D01*
X132528668Y-108502589D01*
X132515022Y-108487165D01*
X132474648Y-108456465D01*
X132456861Y-108447790D01*
X132442907Y-108433757D01*
X132400662Y-108405357D01*
X132381914Y-108397529D01*
X132366751Y-108384003D01*
X132322584Y-108358003D01*
X132303768Y-108351438D01*
X132288146Y-108339068D01*
X132242072Y-108315468D01*
X132223972Y-108310321D01*
X132208592Y-108299472D01*
X132161313Y-108278472D01*
X132142904Y-108274323D01*
X132126904Y-108264319D01*
X132078646Y-108246019D01*
X132057958Y-108242551D01*
X132039519Y-108232548D01*
X131990178Y-108217248D01*
X131972924Y-108215441D01*
X131957277Y-108207960D01*
X131907077Y-108195160D01*
X131887726Y-108194127D01*
X131869796Y-108186779D01*
X131818523Y-108176779D01*
X131798314Y-108176854D01*
X131779192Y-108170316D01*
X131726918Y-108163316D01*
X131713493Y-108164166D01*
X131700598Y-108160319D01*
X131647323Y-108155319D01*
X131628146Y-108157297D01*
X131609389Y-108152842D01*
X131555112Y-108150842D01*
X131536463Y-108153842D01*
X131517874Y-108150506D01*
X131469365Y-108151416D01*
X131454800Y-108154598D01*
X131440025Y-108152610D01*
X131392155Y-108155610D01*
X131378041Y-108159348D01*
X131363501Y-108158024D01*
X131316289Y-108163024D01*
X131295357Y-108169542D01*
X131273443Y-108168966D01*
X131226862Y-108176966D01*
X131212764Y-108182376D01*
X131197667Y-108182650D01*
X131151759Y-108192650D01*
X131137256Y-108198968D01*
X131121469Y-108199990D01*
X131076167Y-108212090D01*
X131061207Y-108219453D01*
X131044643Y-108221344D01*
X131000008Y-108235644D01*
X130985500Y-108243691D01*
X130969126Y-108246375D01*
X130925136Y-108262875D01*
X130912606Y-108270647D01*
X130898171Y-108273661D01*
X130855151Y-108291962D01*
X130841492Y-108301277D01*
X130825489Y-108305440D01*
X130783760Y-108325640D01*
X130770376Y-108335755D01*
X130754368Y-108340774D01*
X130713931Y-108362874D01*
X130700457Y-108374143D01*
X130683990Y-108380257D01*
X130644845Y-108404357D01*
X130632330Y-108415974D01*
X130616644Y-108422712D01*
X130578809Y-108448711D01*
X130566652Y-108461189D01*
X130551022Y-108468874D01*
X130514443Y-108496874D01*
X130503619Y-108509187D01*
X130489272Y-108517122D01*
X130454003Y-108546922D01*
X130442917Y-108560833D01*
X130427824Y-108570243D01*
X130393847Y-108602143D01*
X130383399Y-108616760D01*
X130368675Y-108627060D01*
X130337055Y-108660060D01*
X130328246Y-108673874D01*
X130315288Y-108683901D01*
X130285542Y-108718101D01*
X130276835Y-108733326D01*
X130263537Y-108744760D01*
X130235663Y-108780361D01*
X130228123Y-108795281D01*
X130216001Y-108806788D01*
X130190001Y-108843588D01*
X130183011Y-108859293D01*
X130171155Y-108871746D01*
X130147028Y-108909846D01*
X130140865Y-108925824D01*
X130129695Y-108938806D01*
X130107442Y-108978207D01*
X130102169Y-108994237D01*
X130091811Y-109007560D01*
X130071418Y-109048260D01*
X130066939Y-109064560D01*
X130057240Y-109078405D01*
X130038747Y-109120405D01*
X130035197Y-109136399D01*
X130026455Y-109150252D01*
X130009984Y-109193152D01*
X130007134Y-109209729D01*
X129998873Y-109224379D01*
X129984597Y-109267879D01*
X129982577Y-109284528D01*
X129975068Y-109299527D01*
X129962996Y-109343527D01*
X129961794Y-109360333D01*
X129955008Y-109375752D01*
X129945118Y-109420351D01*
X129944751Y-109437118D01*
X129938761Y-109452783D01*
X129931071Y-109497883D01*
X129931529Y-109514561D01*
X129926343Y-109530414D01*
X129920853Y-109576014D01*
X129922123Y-109592581D01*
X129917734Y-109608610D01*
X129914444Y-109654911D01*
X129916460Y-109670899D01*
X129912945Y-109686623D01*
X129911845Y-109733323D01*
X129914527Y-109748687D01*
X129911826Y-109764047D01*
X129589600Y-109764047D01*
X129589600Y-107767981D01*
X129601405Y-107725757D01*
X129589600Y-107627924D01*
X129589600Y-107600674D01*
X129581241Y-107558651D01*
X129567568Y-107445336D01*
X129553858Y-107420984D01*
X129548405Y-107393572D01*
X129484991Y-107298666D01*
X129428995Y-107199209D01*
X129407008Y-107181957D01*
X129391481Y-107158719D01*
X129334829Y-107120865D01*
X129445436Y-107098864D01*
X129655480Y-106958516D01*
X129795828Y-106748472D01*
X129818258Y-106635707D01*
X129895737Y-106635707D01*
X129997671Y-106655983D01*
X130099605Y-106635707D01*
X130099606Y-106635707D01*
X130401508Y-106575655D01*
X130743864Y-106346900D01*
X130801608Y-106260481D01*
X131342776Y-105719313D01*
X131429193Y-105661571D01*
X131657948Y-105319215D01*
X131718000Y-105017313D01*
X131718000Y-105017312D01*
X131719057Y-105012000D01*
X132033250Y-105012000D01*
X132192000Y-104853250D01*
X132192000Y-103504000D01*
X132172000Y-103504000D01*
X132172000Y-103250000D01*
X132192000Y-103250000D01*
X132192000Y-101900750D01*
X132033250Y-101742000D01*
X131718000Y-101742000D01*
X131718000Y-89004350D01*
X131819000Y-89024440D01*
X132819000Y-89024440D01*
X133066765Y-88975157D01*
X133276809Y-88834809D01*
X133319000Y-88771666D01*
X133361191Y-88834809D01*
X133571235Y-88975157D01*
X133819000Y-89024440D01*
X134819000Y-89024440D01*
X135066765Y-88975157D01*
X135276809Y-88834809D01*
X135319000Y-88771666D01*
X135361191Y-88834809D01*
X135571235Y-88975157D01*
X135819000Y-89024440D01*
X136819000Y-89024440D01*
X137066765Y-88975157D01*
X137276809Y-88834809D01*
X137319000Y-88771666D01*
X137361191Y-88834809D01*
X137571235Y-88975157D01*
X137819000Y-89024440D01*
X138819000Y-89024440D01*
X139066765Y-88975157D01*
X139276809Y-88834809D01*
X139319000Y-88771666D01*
X139361191Y-88834809D01*
G36*
X141732000Y-82162650D02*
X141890750Y-82321400D01*
X143002000Y-82321400D01*
X143002000Y-82301400D01*
X143256000Y-82301400D01*
X143256000Y-82321400D01*
X143276000Y-82321400D01*
X143276000Y-82575400D01*
X143256000Y-82575400D01*
X143256000Y-84956650D01*
X143414750Y-85115400D01*
X144017309Y-85115400D01*
X144195779Y-85041475D01*
X144270161Y-85415418D01*
X144534989Y-85811761D01*
X144446000Y-85900750D01*
X144446000Y-87250000D01*
X144466000Y-87250000D01*
X144466000Y-87504000D01*
X144446000Y-87504000D01*
X144446000Y-88853250D01*
X144604750Y-89012000D01*
X144945310Y-89012000D01*
X145178699Y-88915327D01*
X145320345Y-88773680D01*
X145361191Y-88834809D01*
X145571235Y-88975157D01*
X145819000Y-89024440D01*
X146819000Y-89024440D01*
X147066765Y-88975157D01*
X147276809Y-88834809D01*
X147417157Y-88624765D01*
X147466440Y-88377000D01*
X147466440Y-86377000D01*
X147462000Y-86354678D01*
X147462000Y-85598571D01*
X147484392Y-85486000D01*
X147443809Y-85281976D01*
X147410675Y-85115400D01*
X147923250Y-85115400D01*
X148082000Y-84956650D01*
X148082000Y-82575400D01*
X148336000Y-82575400D01*
X148336000Y-84956650D01*
X148494750Y-85115400D01*
X149097309Y-85115400D01*
X149330698Y-85018727D01*
X149509327Y-84840099D01*
X149606000Y-84606710D01*
X149606000Y-82734150D01*
X149447250Y-82575400D01*
X148336000Y-82575400D01*
X148082000Y-82575400D01*
X148062000Y-82575400D01*
X148062000Y-82321400D01*
X148082000Y-82321400D01*
X148082000Y-82301400D01*
X148336000Y-82301400D01*
X148336000Y-82321400D01*
X149447250Y-82321400D01*
X149606000Y-82162650D01*
X149606000Y-80848190D01*
X149884745Y-80916460D01*
X150452435Y-81185554D01*
X150954418Y-81563301D01*
X151370194Y-82034271D01*
X151682774Y-82579224D01*
X151886409Y-83197195D01*
X151918601Y-83375566D01*
X151918601Y-86483016D01*
X151756598Y-86374769D01*
X151308853Y-86285707D01*
X151006489Y-86285707D01*
X150558744Y-86374769D01*
X150050998Y-86714034D01*
X149711733Y-87221780D01*
X149592599Y-87820707D01*
X149711733Y-88419634D01*
X150050998Y-88927380D01*
X150295434Y-89090707D01*
X150050998Y-89254034D01*
X149711733Y-89761780D01*
X149592599Y-90360707D01*
X149711733Y-90959634D01*
X150050998Y-91467380D01*
X150295434Y-91630707D01*
X150050998Y-91794034D01*
X149711733Y-92301780D01*
X149592599Y-92900707D01*
X149711733Y-93499634D01*
X150050998Y-94007380D01*
X150295434Y-94170707D01*
X150050998Y-94334034D01*
X149711733Y-94841780D01*
X149592599Y-95440707D01*
X149711733Y-96039634D01*
X150050998Y-96547380D01*
X150295434Y-96710707D01*
X150050998Y-96874034D01*
X149711733Y-97381780D01*
X149592599Y-97980707D01*
X149711733Y-98579634D01*
X150050998Y-99087380D01*
X150295434Y-99250707D01*
X150050998Y-99414034D01*
X149711733Y-99921780D01*
X149592599Y-100520707D01*
X149711733Y-101119634D01*
X150050998Y-101627380D01*
X150305039Y-101797125D01*
X150250095Y-101822741D01*
X149845431Y-102264290D01*
X149666635Y-102695967D01*
X149787293Y-102933707D01*
X151030671Y-102933707D01*
X151030671Y-102913707D01*
X151284671Y-102913707D01*
X151284671Y-102933707D01*
X151304671Y-102933707D01*
X151304671Y-103187707D01*
X151284671Y-103187707D01*
X151284671Y-103207707D01*
X151030671Y-103207707D01*
X151030671Y-103187707D01*
X149787293Y-103187707D01*
X149666635Y-103425447D01*
X149845431Y-103857124D01*
X150061035Y-104092380D01*
X150009906Y-104102550D01*
X149799862Y-104242898D01*
X149659514Y-104452942D01*
X149610231Y-104700707D01*
X149610231Y-106500707D01*
X149659514Y-106748472D01*
X149799862Y-106958516D01*
X150009906Y-107098864D01*
X150257671Y-107148147D01*
X151918600Y-107148147D01*
X151918600Y-109603389D01*
X151760218Y-109497561D01*
X151327056Y-109411400D01*
X151105268Y-109411400D01*
X146705867Y-105012000D01*
X146945310Y-105012000D01*
X147178699Y-104915327D01*
X147357327Y-104736698D01*
X147454000Y-104503309D01*
X147454000Y-103662750D01*
X147295250Y-103504000D01*
X146446000Y-103504000D01*
X146446000Y-103524000D01*
X146192000Y-103524000D01*
X146192000Y-103504000D01*
X146172000Y-103504000D01*
X146172000Y-103250000D01*
X146192000Y-103250000D01*
X146192000Y-101900750D01*
X146446000Y-101900750D01*
X146446000Y-103250000D01*
X147295250Y-103250000D01*
X147454000Y-103091250D01*
X147454000Y-102250691D01*
X147357327Y-102017302D01*
X147178699Y-101838673D01*
X146945310Y-101742000D01*
X146604750Y-101742000D01*
X146446000Y-101900750D01*
X146192000Y-101900750D01*
X146033250Y-101742000D01*
X145692690Y-101742000D01*
X145459301Y-101838673D01*
X145317655Y-101980320D01*
X145276809Y-101919191D01*
X145066765Y-101778843D01*
X144819000Y-101729560D01*
X144108001Y-101729560D01*
X144108001Y-95984238D01*
X144124359Y-95902001D01*
X144059553Y-95576200D01*
X144011315Y-95504007D01*
X143875002Y-95300000D01*
X143805283Y-95253415D01*
X143202000Y-94650133D01*
X143202000Y-88884795D01*
X143276809Y-88834809D01*
X143317655Y-88773680D01*
X143459301Y-88915327D01*
X143692690Y-89012000D01*
X144033250Y-89012000D01*
X144192000Y-88853250D01*
X144192000Y-87504000D01*
X144172000Y-87504000D01*
X144172000Y-87250000D01*
X144192000Y-87250000D01*
X144192000Y-85900750D01*
X144033250Y-85742000D01*
X143692690Y-85742000D01*
X143459301Y-85838673D01*
X143317655Y-85980320D01*
X143276809Y-85919191D01*
X143066765Y-85778843D01*
X142819000Y-85729560D01*
X141819000Y-85729560D01*
X141571235Y-85778843D01*
X141361191Y-85919191D01*
X141319000Y-85982334D01*
X141276809Y-85919191D01*
X141066765Y-85778843D01*
X140819000Y-85729560D01*
X139819000Y-85729560D01*
X139571235Y-85778843D01*
X139361191Y-85919191D01*
X139338000Y-85953899D01*
X139338000Y-85593868D01*
X139460809Y-85511809D01*
X139601157Y-85301765D01*
X139650440Y-85054000D01*
X139650440Y-83759000D01*
X139601157Y-83511235D01*
X139555903Y-83443508D01*
X139638000Y-83245309D01*
X139638000Y-82757250D01*
X139614900Y-82734150D01*
X141732000Y-82734150D01*
X141732000Y-84606710D01*
X141828673Y-84840099D01*
X142007302Y-85018727D01*
X142240691Y-85115400D01*
X142843250Y-85115400D01*
X143002000Y-84956650D01*
X143002000Y-82575400D01*
X141890750Y-82575400D01*
X141732000Y-82734150D01*
X139614900Y-82734150D01*
X139479250Y-82598500D01*
X138430000Y-82598500D01*
X138430000Y-82618500D01*
X138176000Y-82618500D01*
X138176000Y-82598500D01*
X137126750Y-82598500D01*
X136968000Y-82757250D01*
X136968000Y-83245309D01*
X137020270Y-83371500D01*
X136283730Y-83371500D01*
X136336000Y-83245309D01*
X136336000Y-82757250D01*
X136177250Y-82598500D01*
X135128000Y-82598500D01*
X135128000Y-82618500D01*
X134874000Y-82618500D01*
X134874000Y-82598500D01*
X133824750Y-82598500D01*
X133666000Y-82757250D01*
X133666000Y-83245309D01*
X133718270Y-83371500D01*
X131595434Y-83371500D01*
X131493499Y-83351224D01*
X131391565Y-83371500D01*
X131089663Y-83431552D01*
X130747307Y-83660307D01*
X130689565Y-83746724D01*
X130023225Y-84413065D01*
X129936808Y-84470807D01*
X129879066Y-84557224D01*
X129708052Y-84813164D01*
X129627724Y-85217000D01*
X129648001Y-85318939D01*
X129648001Y-87078692D01*
X129404344Y-86714034D01*
X128896598Y-86374769D01*
X128448853Y-86285707D01*
X128146489Y-86285707D01*
X127698744Y-86374769D01*
X127684600Y-86384220D01*
X127684600Y-83401969D01*
X127832805Y-82799164D01*
X128101978Y-82232614D01*
X128479577Y-81731753D01*
X128518230Y-81697691D01*
X133666000Y-81697691D01*
X133666000Y-82185750D01*
X133824750Y-82344500D01*
X134874000Y-82344500D01*
X134874000Y-81347750D01*
X135128000Y-81347750D01*
X135128000Y-82344500D01*
X136177250Y-82344500D01*
X136336000Y-82185750D01*
X136336000Y-81697691D01*
X136968000Y-81697691D01*
X136968000Y-82185750D01*
X137126750Y-82344500D01*
X138176000Y-82344500D01*
X138176000Y-81347750D01*
X138430000Y-81347750D01*
X138430000Y-82344500D01*
X139479250Y-82344500D01*
X139638000Y-82185750D01*
X139638000Y-81697691D01*
X139541327Y-81464302D01*
X139362699Y-81285673D01*
X139129310Y-81189000D01*
X138588750Y-81189000D01*
X138430000Y-81347750D01*
X138176000Y-81347750D01*
X138017250Y-81189000D01*
X137476690Y-81189000D01*
X137243301Y-81285673D01*
X137064673Y-81464302D01*
X136968000Y-81697691D01*
X136336000Y-81697691D01*
X136239327Y-81464302D01*
X136060699Y-81285673D01*
X135827310Y-81189000D01*
X135286750Y-81189000D01*
X135128000Y-81347750D01*
X134874000Y-81347750D01*
X134715250Y-81189000D01*
X134174690Y-81189000D01*
X133941301Y-81285673D01*
X133762673Y-81464302D01*
X133666000Y-81697691D01*
X128518230Y-81697691D01*
X128950169Y-81317056D01*
X129494546Y-81005449D01*
X130111802Y-80802659D01*
X130289089Y-80770800D01*
X141732000Y-80770800D01*
X141732000Y-82162650D01*
X141732000Y-82162650D01*
G37*
X141732000Y-82162650D02*
X141890750Y-82321400D01*
X143002000Y-82321400D01*
X143002000Y-82301400D01*
X143256000Y-82301400D01*
X143256000Y-82321400D01*
X143276000Y-82321400D01*
X143276000Y-82575400D01*
X143256000Y-82575400D01*
X143256000Y-84956650D01*
X143414750Y-85115400D01*
X144017309Y-85115400D01*
X144195779Y-85041475D01*
X144270161Y-85415418D01*
X144534989Y-85811761D01*
X144446000Y-85900750D01*
X144446000Y-87250000D01*
X144466000Y-87250000D01*
X144466000Y-87504000D01*
X144446000Y-87504000D01*
X144446000Y-88853250D01*
X144604750Y-89012000D01*
X144945310Y-89012000D01*
X145178699Y-88915327D01*
X145320345Y-88773680D01*
X145361191Y-88834809D01*
X145571235Y-88975157D01*
X145819000Y-89024440D01*
X146819000Y-89024440D01*
X147066765Y-88975157D01*
X147276809Y-88834809D01*
X147417157Y-88624765D01*
X147466440Y-88377000D01*
X147466440Y-86377000D01*
X147462000Y-86354678D01*
X147462000Y-85598571D01*
X147484392Y-85486000D01*
X147443809Y-85281976D01*
X147410675Y-85115400D01*
X147923250Y-85115400D01*
X148082000Y-84956650D01*
X148082000Y-82575400D01*
X148336000Y-82575400D01*
X148336000Y-84956650D01*
X148494750Y-85115400D01*
X149097309Y-85115400D01*
X149330698Y-85018727D01*
X149509327Y-84840099D01*
X149606000Y-84606710D01*
X149606000Y-82734150D01*
X149447250Y-82575400D01*
X148336000Y-82575400D01*
X148082000Y-82575400D01*
X148062000Y-82575400D01*
X148062000Y-82321400D01*
X148082000Y-82321400D01*
X148082000Y-82301400D01*
X148336000Y-82301400D01*
X148336000Y-82321400D01*
X149447250Y-82321400D01*
X149606000Y-82162650D01*
X149606000Y-80848190D01*
X149884745Y-80916460D01*
X150452435Y-81185554D01*
X150954418Y-81563301D01*
X151370194Y-82034271D01*
X151682774Y-82579224D01*
X151886409Y-83197195D01*
X151918601Y-83375566D01*
X151918601Y-86483016D01*
X151756598Y-86374769D01*
X151308853Y-86285707D01*
X151006489Y-86285707D01*
X150558744Y-86374769D01*
X150050998Y-86714034D01*
X149711733Y-87221780D01*
X149592599Y-87820707D01*
X149711733Y-88419634D01*
X150050998Y-88927380D01*
X150295434Y-89090707D01*
X150050998Y-89254034D01*
X149711733Y-89761780D01*
X149592599Y-90360707D01*
X149711733Y-90959634D01*
X150050998Y-91467380D01*
X150295434Y-91630707D01*
X150050998Y-91794034D01*
X149711733Y-92301780D01*
X149592599Y-92900707D01*
X149711733Y-93499634D01*
X150050998Y-94007380D01*
X150295434Y-94170707D01*
X150050998Y-94334034D01*
X149711733Y-94841780D01*
X149592599Y-95440707D01*
X149711733Y-96039634D01*
X150050998Y-96547380D01*
X150295434Y-96710707D01*
X150050998Y-96874034D01*
X149711733Y-97381780D01*
X149592599Y-97980707D01*
X149711733Y-98579634D01*
X150050998Y-99087380D01*
X150295434Y-99250707D01*
X150050998Y-99414034D01*
X149711733Y-99921780D01*
X149592599Y-100520707D01*
X149711733Y-101119634D01*
X150050998Y-101627380D01*
X150305039Y-101797125D01*
X150250095Y-101822741D01*
X149845431Y-102264290D01*
X149666635Y-102695967D01*
X149787293Y-102933707D01*
X151030671Y-102933707D01*
X151030671Y-102913707D01*
X151284671Y-102913707D01*
X151284671Y-102933707D01*
X151304671Y-102933707D01*
X151304671Y-103187707D01*
X151284671Y-103187707D01*
X151284671Y-103207707D01*
X151030671Y-103207707D01*
X151030671Y-103187707D01*
X149787293Y-103187707D01*
X149666635Y-103425447D01*
X149845431Y-103857124D01*
X150061035Y-104092380D01*
X150009906Y-104102550D01*
X149799862Y-104242898D01*
X149659514Y-104452942D01*
X149610231Y-104700707D01*
X149610231Y-106500707D01*
X149659514Y-106748472D01*
X149799862Y-106958516D01*
X150009906Y-107098864D01*
X150257671Y-107148147D01*
X151918600Y-107148147D01*
X151918600Y-109603389D01*
X151760218Y-109497561D01*
X151327056Y-109411400D01*
X151105268Y-109411400D01*
X146705867Y-105012000D01*
X146945310Y-105012000D01*
X147178699Y-104915327D01*
X147357327Y-104736698D01*
X147454000Y-104503309D01*
X147454000Y-103662750D01*
X147295250Y-103504000D01*
X146446000Y-103504000D01*
X146446000Y-103524000D01*
X146192000Y-103524000D01*
X146192000Y-103504000D01*
X146172000Y-103504000D01*
X146172000Y-103250000D01*
X146192000Y-103250000D01*
X146192000Y-101900750D01*
X146446000Y-101900750D01*
X146446000Y-103250000D01*
X147295250Y-103250000D01*
X147454000Y-103091250D01*
X147454000Y-102250691D01*
X147357327Y-102017302D01*
X147178699Y-101838673D01*
X146945310Y-101742000D01*
X146604750Y-101742000D01*
X146446000Y-101900750D01*
X146192000Y-101900750D01*
X146033250Y-101742000D01*
X145692690Y-101742000D01*
X145459301Y-101838673D01*
X145317655Y-101980320D01*
X145276809Y-101919191D01*
X145066765Y-101778843D01*
X144819000Y-101729560D01*
X144108001Y-101729560D01*
X144108001Y-95984238D01*
X144124359Y-95902001D01*
X144059553Y-95576200D01*
X144011315Y-95504007D01*
X143875002Y-95300000D01*
X143805283Y-95253415D01*
X143202000Y-94650133D01*
X143202000Y-88884795D01*
X143276809Y-88834809D01*
X143317655Y-88773680D01*
X143459301Y-88915327D01*
X143692690Y-89012000D01*
X144033250Y-89012000D01*
X144192000Y-88853250D01*
X144192000Y-87504000D01*
X144172000Y-87504000D01*
X144172000Y-87250000D01*
X144192000Y-87250000D01*
X144192000Y-85900750D01*
X144033250Y-85742000D01*
X143692690Y-85742000D01*
X143459301Y-85838673D01*
X143317655Y-85980320D01*
X143276809Y-85919191D01*
X143066765Y-85778843D01*
X142819000Y-85729560D01*
X141819000Y-85729560D01*
X141571235Y-85778843D01*
X141361191Y-85919191D01*
X141319000Y-85982334D01*
X141276809Y-85919191D01*
X141066765Y-85778843D01*
X140819000Y-85729560D01*
X139819000Y-85729560D01*
X139571235Y-85778843D01*
X139361191Y-85919191D01*
X139338000Y-85953899D01*
X139338000Y-85593868D01*
X139460809Y-85511809D01*
X139601157Y-85301765D01*
X139650440Y-85054000D01*
X139650440Y-83759000D01*
X139601157Y-83511235D01*
X139555903Y-83443508D01*
X139638000Y-83245309D01*
X139638000Y-82757250D01*
X139614900Y-82734150D01*
X141732000Y-82734150D01*
X141732000Y-84606710D01*
X141828673Y-84840099D01*
X142007302Y-85018727D01*
X142240691Y-85115400D01*
X142843250Y-85115400D01*
X143002000Y-84956650D01*
X143002000Y-82575400D01*
X141890750Y-82575400D01*
X141732000Y-82734150D01*
X139614900Y-82734150D01*
X139479250Y-82598500D01*
X138430000Y-82598500D01*
X138430000Y-82618500D01*
X138176000Y-82618500D01*
X138176000Y-82598500D01*
X137126750Y-82598500D01*
X136968000Y-82757250D01*
X136968000Y-83245309D01*
X137020270Y-83371500D01*
X136283730Y-83371500D01*
X136336000Y-83245309D01*
X136336000Y-82757250D01*
X136177250Y-82598500D01*
X135128000Y-82598500D01*
X135128000Y-82618500D01*
X134874000Y-82618500D01*
X134874000Y-82598500D01*
X133824750Y-82598500D01*
X133666000Y-82757250D01*
X133666000Y-83245309D01*
X133718270Y-83371500D01*
X131595434Y-83371500D01*
X131493499Y-83351224D01*
X131391565Y-83371500D01*
X131089663Y-83431552D01*
X130747307Y-83660307D01*
X130689565Y-83746724D01*
X130023225Y-84413065D01*
X129936808Y-84470807D01*
X129879066Y-84557224D01*
X129708052Y-84813164D01*
X129627724Y-85217000D01*
X129648001Y-85318939D01*
X129648001Y-87078692D01*
X129404344Y-86714034D01*
X128896598Y-86374769D01*
X128448853Y-86285707D01*
X128146489Y-86285707D01*
X127698744Y-86374769D01*
X127684600Y-86384220D01*
X127684600Y-83401969D01*
X127832805Y-82799164D01*
X128101978Y-82232614D01*
X128479577Y-81731753D01*
X128518230Y-81697691D01*
X133666000Y-81697691D01*
X133666000Y-82185750D01*
X133824750Y-82344500D01*
X134874000Y-82344500D01*
X134874000Y-81347750D01*
X135128000Y-81347750D01*
X135128000Y-82344500D01*
X136177250Y-82344500D01*
X136336000Y-82185750D01*
X136336000Y-81697691D01*
X136968000Y-81697691D01*
X136968000Y-82185750D01*
X137126750Y-82344500D01*
X138176000Y-82344500D01*
X138176000Y-81347750D01*
X138430000Y-81347750D01*
X138430000Y-82344500D01*
X139479250Y-82344500D01*
X139638000Y-82185750D01*
X139638000Y-81697691D01*
X139541327Y-81464302D01*
X139362699Y-81285673D01*
X139129310Y-81189000D01*
X138588750Y-81189000D01*
X138430000Y-81347750D01*
X138176000Y-81347750D01*
X138017250Y-81189000D01*
X137476690Y-81189000D01*
X137243301Y-81285673D01*
X137064673Y-81464302D01*
X136968000Y-81697691D01*
X136336000Y-81697691D01*
X136239327Y-81464302D01*
X136060699Y-81285673D01*
X135827310Y-81189000D01*
X135286750Y-81189000D01*
X135128000Y-81347750D01*
X134874000Y-81347750D01*
X134715250Y-81189000D01*
X134174690Y-81189000D01*
X133941301Y-81285673D01*
X133762673Y-81464302D01*
X133666000Y-81697691D01*
X128518230Y-81697691D01*
X128950169Y-81317056D01*
X129494546Y-81005449D01*
X130111802Y-80802659D01*
X130289089Y-80770800D01*
X141732000Y-80770800D01*
X141732000Y-82162650D01*
G04 #@! TD*
M02*
