G04 #@! TF.GenerationSoftware,KiCad,Pcbnew,5.1.5-52549c5~84~ubuntu18.04.1*
G04 #@! TF.CreationDate,2019-12-27T14:58:41-07:00*
G04 #@! TF.ProjectId,001,3030312e-6b69-4636-9164-5f7063625858,rev?*
G04 #@! TF.SameCoordinates,Original*
G04 #@! TF.FileFunction,Soldermask,Top*
G04 #@! TF.FilePolarity,Negative*
%FSLAX46Y46*%
G04 Gerber Fmt 4.6, Leading zero omitted, Abs format (unit mm)*
G04 Created by KiCad (PCBNEW 5.1.5-52549c5~84~ubuntu18.04.1) date 2019-12-27 14:58:41*
%MOMM*%
%LPD*%
G04 APERTURE LIST*
%ADD10C,0.100000*%
G04 APERTURE END LIST*
D10*
G36*
X139205562Y-90898181D02*
G01*
X139240481Y-90908774D01*
X139272663Y-90925976D01*
X139300873Y-90949127D01*
X139324024Y-90977337D01*
X139341226Y-91009519D01*
X139351819Y-91044438D01*
X139356000Y-91086895D01*
X139356000Y-92228105D01*
X139351819Y-92270562D01*
X139341226Y-92305481D01*
X139324024Y-92337663D01*
X139300873Y-92365873D01*
X139272663Y-92389024D01*
X139240481Y-92406226D01*
X139205562Y-92416819D01*
X139163105Y-92421000D01*
X137696895Y-92421000D01*
X137654438Y-92416819D01*
X137619519Y-92406226D01*
X137587337Y-92389024D01*
X137559127Y-92365873D01*
X137535976Y-92337663D01*
X137518774Y-92305481D01*
X137508181Y-92270562D01*
X137504000Y-92228105D01*
X137504000Y-91086895D01*
X137508181Y-91044438D01*
X137518774Y-91009519D01*
X137535976Y-90977337D01*
X137559127Y-90949127D01*
X137587337Y-90925976D01*
X137619519Y-90908774D01*
X137654438Y-90898181D01*
X137696895Y-90894000D01*
X139163105Y-90894000D01*
X139205562Y-90898181D01*
G37*
G36*
X136665562Y-90898181D02*
G01*
X136700481Y-90908774D01*
X136732663Y-90925976D01*
X136760873Y-90949127D01*
X136784024Y-90977337D01*
X136801226Y-91009519D01*
X136811819Y-91044438D01*
X136816000Y-91086895D01*
X136816000Y-92228105D01*
X136811819Y-92270562D01*
X136801226Y-92305481D01*
X136784024Y-92337663D01*
X136760873Y-92365873D01*
X136732663Y-92389024D01*
X136700481Y-92406226D01*
X136665562Y-92416819D01*
X136623105Y-92421000D01*
X135156895Y-92421000D01*
X135114438Y-92416819D01*
X135079519Y-92406226D01*
X135047337Y-92389024D01*
X135019127Y-92365873D01*
X134995976Y-92337663D01*
X134978774Y-92305481D01*
X134968181Y-92270562D01*
X134964000Y-92228105D01*
X134964000Y-91086895D01*
X134968181Y-91044438D01*
X134978774Y-91009519D01*
X134995976Y-90977337D01*
X135019127Y-90949127D01*
X135047337Y-90925976D01*
X135079519Y-90908774D01*
X135114438Y-90898181D01*
X135156895Y-90894000D01*
X136623105Y-90894000D01*
X136665562Y-90898181D01*
G37*
G36*
X145555562Y-90898181D02*
G01*
X145590481Y-90908774D01*
X145622663Y-90925976D01*
X145650873Y-90949127D01*
X145674024Y-90977337D01*
X145691226Y-91009519D01*
X145701819Y-91044438D01*
X145706000Y-91086895D01*
X145706000Y-92228105D01*
X145701819Y-92270562D01*
X145691226Y-92305481D01*
X145674024Y-92337663D01*
X145650873Y-92365873D01*
X145622663Y-92389024D01*
X145590481Y-92406226D01*
X145555562Y-92416819D01*
X145513105Y-92421000D01*
X144046895Y-92421000D01*
X144004438Y-92416819D01*
X143969519Y-92406226D01*
X143937337Y-92389024D01*
X143909127Y-92365873D01*
X143885976Y-92337663D01*
X143868774Y-92305481D01*
X143858181Y-92270562D01*
X143854000Y-92228105D01*
X143854000Y-91086895D01*
X143858181Y-91044438D01*
X143868774Y-91009519D01*
X143885976Y-90977337D01*
X143909127Y-90949127D01*
X143937337Y-90925976D01*
X143969519Y-90908774D01*
X144004438Y-90898181D01*
X144046895Y-90894000D01*
X145513105Y-90894000D01*
X145555562Y-90898181D01*
G37*
G36*
X143015562Y-90898181D02*
G01*
X143050481Y-90908774D01*
X143082663Y-90925976D01*
X143110873Y-90949127D01*
X143134024Y-90977337D01*
X143151226Y-91009519D01*
X143161819Y-91044438D01*
X143166000Y-91086895D01*
X143166000Y-92228105D01*
X143161819Y-92270562D01*
X143151226Y-92305481D01*
X143134024Y-92337663D01*
X143110873Y-92365873D01*
X143082663Y-92389024D01*
X143050481Y-92406226D01*
X143015562Y-92416819D01*
X142973105Y-92421000D01*
X141506895Y-92421000D01*
X141464438Y-92416819D01*
X141429519Y-92406226D01*
X141397337Y-92389024D01*
X141369127Y-92365873D01*
X141345976Y-92337663D01*
X141328774Y-92305481D01*
X141318181Y-92270562D01*
X141314000Y-92228105D01*
X141314000Y-91086895D01*
X141318181Y-91044438D01*
X141328774Y-91009519D01*
X141345976Y-90977337D01*
X141369127Y-90949127D01*
X141397337Y-90925976D01*
X141429519Y-90908774D01*
X141464438Y-90898181D01*
X141506895Y-90894000D01*
X142973105Y-90894000D01*
X143015562Y-90898181D01*
G37*
G36*
X149330518Y-88002337D02*
G01*
X149487812Y-88033624D01*
X149651784Y-88101544D01*
X149799354Y-88200147D01*
X149924853Y-88325646D01*
X150023456Y-88473216D01*
X150091376Y-88637188D01*
X150126000Y-88811259D01*
X150126000Y-88988741D01*
X150091376Y-89162812D01*
X150023456Y-89326784D01*
X149924853Y-89474354D01*
X149799354Y-89599853D01*
X149651784Y-89698456D01*
X149487812Y-89766376D01*
X149338512Y-89796073D01*
X149313742Y-89801000D01*
X149136258Y-89801000D01*
X149111488Y-89796073D01*
X148962188Y-89766376D01*
X148798216Y-89698456D01*
X148650646Y-89599853D01*
X148525147Y-89474354D01*
X148426544Y-89326784D01*
X148358624Y-89162812D01*
X148324000Y-88988741D01*
X148324000Y-88811259D01*
X148358624Y-88637188D01*
X148426544Y-88473216D01*
X148525147Y-88325646D01*
X148650646Y-88200147D01*
X148798216Y-88101544D01*
X148962188Y-88033624D01*
X149119482Y-88002337D01*
X149136258Y-87999000D01*
X149313742Y-87999000D01*
X149330518Y-88002337D01*
G37*
G36*
X131550518Y-88002337D02*
G01*
X131707812Y-88033624D01*
X131871784Y-88101544D01*
X132019354Y-88200147D01*
X132144853Y-88325646D01*
X132243456Y-88473216D01*
X132311376Y-88637188D01*
X132346000Y-88811259D01*
X132346000Y-88988741D01*
X132311376Y-89162812D01*
X132243456Y-89326784D01*
X132144853Y-89474354D01*
X132019354Y-89599853D01*
X131871784Y-89698456D01*
X131707812Y-89766376D01*
X131558512Y-89796073D01*
X131533742Y-89801000D01*
X131356258Y-89801000D01*
X131331488Y-89796073D01*
X131182188Y-89766376D01*
X131018216Y-89698456D01*
X130870646Y-89599853D01*
X130745147Y-89474354D01*
X130646544Y-89326784D01*
X130578624Y-89162812D01*
X130544000Y-88988741D01*
X130544000Y-88811259D01*
X130578624Y-88637188D01*
X130646544Y-88473216D01*
X130745147Y-88325646D01*
X130870646Y-88200147D01*
X131018216Y-88101544D01*
X131182188Y-88033624D01*
X131339482Y-88002337D01*
X131356258Y-87999000D01*
X131533742Y-87999000D01*
X131550518Y-88002337D01*
G37*
G36*
X143015562Y-87923181D02*
G01*
X143050481Y-87933774D01*
X143082663Y-87950976D01*
X143110873Y-87974127D01*
X143134024Y-88002337D01*
X143151226Y-88034519D01*
X143161819Y-88069438D01*
X143166000Y-88111895D01*
X143166000Y-89253105D01*
X143161819Y-89295562D01*
X143151226Y-89330481D01*
X143134024Y-89362663D01*
X143110873Y-89390873D01*
X143082663Y-89414024D01*
X143050481Y-89431226D01*
X143015562Y-89441819D01*
X142973105Y-89446000D01*
X141506895Y-89446000D01*
X141464438Y-89441819D01*
X141429519Y-89431226D01*
X141397337Y-89414024D01*
X141369127Y-89390873D01*
X141345976Y-89362663D01*
X141328774Y-89330481D01*
X141318181Y-89295562D01*
X141314000Y-89253105D01*
X141314000Y-88111895D01*
X141318181Y-88069438D01*
X141328774Y-88034519D01*
X141345976Y-88002337D01*
X141369127Y-87974127D01*
X141397337Y-87950976D01*
X141429519Y-87933774D01*
X141464438Y-87923181D01*
X141506895Y-87919000D01*
X142973105Y-87919000D01*
X143015562Y-87923181D01*
G37*
G36*
X136665562Y-87923181D02*
G01*
X136700481Y-87933774D01*
X136732663Y-87950976D01*
X136760873Y-87974127D01*
X136784024Y-88002337D01*
X136801226Y-88034519D01*
X136811819Y-88069438D01*
X136816000Y-88111895D01*
X136816000Y-89253105D01*
X136811819Y-89295562D01*
X136801226Y-89330481D01*
X136784024Y-89362663D01*
X136760873Y-89390873D01*
X136732663Y-89414024D01*
X136700481Y-89431226D01*
X136665562Y-89441819D01*
X136623105Y-89446000D01*
X135156895Y-89446000D01*
X135114438Y-89441819D01*
X135079519Y-89431226D01*
X135047337Y-89414024D01*
X135019127Y-89390873D01*
X134995976Y-89362663D01*
X134978774Y-89330481D01*
X134968181Y-89295562D01*
X134964000Y-89253105D01*
X134964000Y-88111895D01*
X134968181Y-88069438D01*
X134978774Y-88034519D01*
X134995976Y-88002337D01*
X135019127Y-87974127D01*
X135047337Y-87950976D01*
X135079519Y-87933774D01*
X135114438Y-87923181D01*
X135156895Y-87919000D01*
X136623105Y-87919000D01*
X136665562Y-87923181D01*
G37*
G36*
X145555562Y-87923181D02*
G01*
X145590481Y-87933774D01*
X145622663Y-87950976D01*
X145650873Y-87974127D01*
X145674024Y-88002337D01*
X145691226Y-88034519D01*
X145701819Y-88069438D01*
X145706000Y-88111895D01*
X145706000Y-89253105D01*
X145701819Y-89295562D01*
X145691226Y-89330481D01*
X145674024Y-89362663D01*
X145650873Y-89390873D01*
X145622663Y-89414024D01*
X145590481Y-89431226D01*
X145555562Y-89441819D01*
X145513105Y-89446000D01*
X144046895Y-89446000D01*
X144004438Y-89441819D01*
X143969519Y-89431226D01*
X143937337Y-89414024D01*
X143909127Y-89390873D01*
X143885976Y-89362663D01*
X143868774Y-89330481D01*
X143858181Y-89295562D01*
X143854000Y-89253105D01*
X143854000Y-88111895D01*
X143858181Y-88069438D01*
X143868774Y-88034519D01*
X143885976Y-88002337D01*
X143909127Y-87974127D01*
X143937337Y-87950976D01*
X143969519Y-87933774D01*
X144004438Y-87923181D01*
X144046895Y-87919000D01*
X145513105Y-87919000D01*
X145555562Y-87923181D01*
G37*
G36*
X139205562Y-87923181D02*
G01*
X139240481Y-87933774D01*
X139272663Y-87950976D01*
X139300873Y-87974127D01*
X139324024Y-88002337D01*
X139341226Y-88034519D01*
X139351819Y-88069438D01*
X139356000Y-88111895D01*
X139356000Y-89253105D01*
X139351819Y-89295562D01*
X139341226Y-89330481D01*
X139324024Y-89362663D01*
X139300873Y-89390873D01*
X139272663Y-89414024D01*
X139240481Y-89431226D01*
X139205562Y-89441819D01*
X139163105Y-89446000D01*
X137696895Y-89446000D01*
X137654438Y-89441819D01*
X137619519Y-89431226D01*
X137587337Y-89414024D01*
X137559127Y-89390873D01*
X137535976Y-89362663D01*
X137518774Y-89330481D01*
X137508181Y-89295562D01*
X137504000Y-89253105D01*
X137504000Y-88111895D01*
X137508181Y-88069438D01*
X137518774Y-88034519D01*
X137535976Y-88002337D01*
X137559127Y-87974127D01*
X137587337Y-87950976D01*
X137619519Y-87933774D01*
X137654438Y-87923181D01*
X137696895Y-87919000D01*
X139163105Y-87919000D01*
X139205562Y-87923181D01*
G37*
G36*
X131558512Y-85463927D02*
G01*
X131707812Y-85493624D01*
X131871784Y-85561544D01*
X132019354Y-85660147D01*
X132144853Y-85785646D01*
X132243456Y-85933216D01*
X132311376Y-86097188D01*
X132346000Y-86271259D01*
X132346000Y-86448741D01*
X132311376Y-86622812D01*
X132243456Y-86786784D01*
X132144853Y-86934354D01*
X132019354Y-87059853D01*
X131871784Y-87158456D01*
X131707812Y-87226376D01*
X131558512Y-87256073D01*
X131533742Y-87261000D01*
X131356258Y-87261000D01*
X131331488Y-87256073D01*
X131182188Y-87226376D01*
X131018216Y-87158456D01*
X130870646Y-87059853D01*
X130745147Y-86934354D01*
X130646544Y-86786784D01*
X130578624Y-86622812D01*
X130544000Y-86448741D01*
X130544000Y-86271259D01*
X130578624Y-86097188D01*
X130646544Y-85933216D01*
X130745147Y-85785646D01*
X130870646Y-85660147D01*
X131018216Y-85561544D01*
X131182188Y-85493624D01*
X131331488Y-85463927D01*
X131356258Y-85459000D01*
X131533742Y-85459000D01*
X131558512Y-85463927D01*
G37*
G36*
X149338512Y-85463927D02*
G01*
X149487812Y-85493624D01*
X149651784Y-85561544D01*
X149799354Y-85660147D01*
X149924853Y-85785646D01*
X150023456Y-85933216D01*
X150091376Y-86097188D01*
X150126000Y-86271259D01*
X150126000Y-86448741D01*
X150091376Y-86622812D01*
X150023456Y-86786784D01*
X149924853Y-86934354D01*
X149799354Y-87059853D01*
X149651784Y-87158456D01*
X149487812Y-87226376D01*
X149338512Y-87256073D01*
X149313742Y-87261000D01*
X149136258Y-87261000D01*
X149111488Y-87256073D01*
X148962188Y-87226376D01*
X148798216Y-87158456D01*
X148650646Y-87059853D01*
X148525147Y-86934354D01*
X148426544Y-86786784D01*
X148358624Y-86622812D01*
X148324000Y-86448741D01*
X148324000Y-86271259D01*
X148358624Y-86097188D01*
X148426544Y-85933216D01*
X148525147Y-85785646D01*
X148650646Y-85660147D01*
X148798216Y-85561544D01*
X148962188Y-85493624D01*
X149111488Y-85463927D01*
X149136258Y-85459000D01*
X149313742Y-85459000D01*
X149338512Y-85463927D01*
G37*
G36*
X131558512Y-82923927D02*
G01*
X131707812Y-82953624D01*
X131871784Y-83021544D01*
X132019354Y-83120147D01*
X132144853Y-83245646D01*
X132243456Y-83393216D01*
X132311376Y-83557188D01*
X132346000Y-83731259D01*
X132346000Y-83908741D01*
X132311376Y-84082812D01*
X132243456Y-84246784D01*
X132144853Y-84394354D01*
X132019354Y-84519853D01*
X131871784Y-84618456D01*
X131707812Y-84686376D01*
X131558512Y-84716073D01*
X131533742Y-84721000D01*
X131356258Y-84721000D01*
X131331488Y-84716073D01*
X131182188Y-84686376D01*
X131018216Y-84618456D01*
X130870646Y-84519853D01*
X130745147Y-84394354D01*
X130646544Y-84246784D01*
X130578624Y-84082812D01*
X130544000Y-83908741D01*
X130544000Y-83731259D01*
X130578624Y-83557188D01*
X130646544Y-83393216D01*
X130745147Y-83245646D01*
X130870646Y-83120147D01*
X131018216Y-83021544D01*
X131182188Y-82953624D01*
X131331488Y-82923927D01*
X131356258Y-82919000D01*
X131533742Y-82919000D01*
X131558512Y-82923927D01*
G37*
G36*
X149338512Y-82923927D02*
G01*
X149487812Y-82953624D01*
X149651784Y-83021544D01*
X149799354Y-83120147D01*
X149924853Y-83245646D01*
X150023456Y-83393216D01*
X150091376Y-83557188D01*
X150126000Y-83731259D01*
X150126000Y-83908741D01*
X150091376Y-84082812D01*
X150023456Y-84246784D01*
X149924853Y-84394354D01*
X149799354Y-84519853D01*
X149651784Y-84618456D01*
X149487812Y-84686376D01*
X149338512Y-84716073D01*
X149313742Y-84721000D01*
X149136258Y-84721000D01*
X149111488Y-84716073D01*
X148962188Y-84686376D01*
X148798216Y-84618456D01*
X148650646Y-84519853D01*
X148525147Y-84394354D01*
X148426544Y-84246784D01*
X148358624Y-84082812D01*
X148324000Y-83908741D01*
X148324000Y-83731259D01*
X148358624Y-83557188D01*
X148426544Y-83393216D01*
X148525147Y-83245646D01*
X148650646Y-83120147D01*
X148798216Y-83021544D01*
X148962188Y-82953624D01*
X149111488Y-82923927D01*
X149136258Y-82919000D01*
X149313742Y-82919000D01*
X149338512Y-82923927D01*
G37*
G36*
X137386000Y-84399600D02*
G01*
X135784000Y-84399600D01*
X135784000Y-83697600D01*
X137386000Y-83697600D01*
X137386000Y-84399600D01*
G37*
G36*
X144886000Y-84399600D02*
G01*
X143284000Y-84399600D01*
X143284000Y-83697600D01*
X144886000Y-83697600D01*
X144886000Y-84399600D01*
G37*
G36*
X144886000Y-83129600D02*
G01*
X143284000Y-83129600D01*
X143284000Y-82427600D01*
X144886000Y-82427600D01*
X144886000Y-83129600D01*
G37*
G36*
X137386000Y-83129600D02*
G01*
X135784000Y-83129600D01*
X135784000Y-82427600D01*
X137386000Y-82427600D01*
X137386000Y-83129600D01*
G37*
G36*
X149338512Y-80383927D02*
G01*
X149487812Y-80413624D01*
X149651784Y-80481544D01*
X149799354Y-80580147D01*
X149924853Y-80705646D01*
X150023456Y-80853216D01*
X150091376Y-81017188D01*
X150126000Y-81191259D01*
X150126000Y-81368741D01*
X150091376Y-81542812D01*
X150023456Y-81706784D01*
X149924853Y-81854354D01*
X149799354Y-81979853D01*
X149651784Y-82078456D01*
X149487812Y-82146376D01*
X149338512Y-82176073D01*
X149313742Y-82181000D01*
X149136258Y-82181000D01*
X149111488Y-82176073D01*
X148962188Y-82146376D01*
X148798216Y-82078456D01*
X148650646Y-81979853D01*
X148525147Y-81854354D01*
X148426544Y-81706784D01*
X148358624Y-81542812D01*
X148324000Y-81368741D01*
X148324000Y-81191259D01*
X148358624Y-81017188D01*
X148426544Y-80853216D01*
X148525147Y-80705646D01*
X148650646Y-80580147D01*
X148798216Y-80481544D01*
X148962188Y-80413624D01*
X149111488Y-80383927D01*
X149136258Y-80379000D01*
X149313742Y-80379000D01*
X149338512Y-80383927D01*
G37*
G36*
X131558512Y-80383927D02*
G01*
X131707812Y-80413624D01*
X131871784Y-80481544D01*
X132019354Y-80580147D01*
X132144853Y-80705646D01*
X132243456Y-80853216D01*
X132311376Y-81017188D01*
X132346000Y-81191259D01*
X132346000Y-81368741D01*
X132311376Y-81542812D01*
X132243456Y-81706784D01*
X132144853Y-81854354D01*
X132019354Y-81979853D01*
X131871784Y-82078456D01*
X131707812Y-82146376D01*
X131558512Y-82176073D01*
X131533742Y-82181000D01*
X131356258Y-82181000D01*
X131331488Y-82176073D01*
X131182188Y-82146376D01*
X131018216Y-82078456D01*
X130870646Y-81979853D01*
X130745147Y-81854354D01*
X130646544Y-81706784D01*
X130578624Y-81542812D01*
X130544000Y-81368741D01*
X130544000Y-81191259D01*
X130578624Y-81017188D01*
X130646544Y-80853216D01*
X130745147Y-80705646D01*
X130870646Y-80580147D01*
X131018216Y-80481544D01*
X131182188Y-80413624D01*
X131331488Y-80383927D01*
X131356258Y-80379000D01*
X131533742Y-80379000D01*
X131558512Y-80383927D01*
G37*
G36*
X137386000Y-81859600D02*
G01*
X135784000Y-81859600D01*
X135784000Y-81157600D01*
X137386000Y-81157600D01*
X137386000Y-81859600D01*
G37*
G36*
X144886000Y-81859600D02*
G01*
X143284000Y-81859600D01*
X143284000Y-81157600D01*
X144886000Y-81157600D01*
X144886000Y-81859600D01*
G37*
G36*
X137386000Y-80589600D02*
G01*
X135784000Y-80589600D01*
X135784000Y-79887600D01*
X137386000Y-79887600D01*
X137386000Y-80589600D01*
G37*
G36*
X144886000Y-80589600D02*
G01*
X143284000Y-80589600D01*
X143284000Y-79887600D01*
X144886000Y-79887600D01*
X144886000Y-80589600D01*
G37*
G36*
X139181162Y-76548181D02*
G01*
X139216081Y-76558774D01*
X139248263Y-76575976D01*
X139276473Y-76599127D01*
X139299624Y-76627337D01*
X139316826Y-76659519D01*
X139327419Y-76694438D01*
X139331600Y-76736895D01*
X139331600Y-78203105D01*
X139327419Y-78245562D01*
X139316826Y-78280481D01*
X139299624Y-78312663D01*
X139276473Y-78340873D01*
X139248263Y-78364024D01*
X139216081Y-78381226D01*
X139181162Y-78391819D01*
X139138705Y-78396000D01*
X137997495Y-78396000D01*
X137955038Y-78391819D01*
X137920119Y-78381226D01*
X137887937Y-78364024D01*
X137859727Y-78340873D01*
X137836576Y-78312663D01*
X137819374Y-78280481D01*
X137808781Y-78245562D01*
X137804600Y-78203105D01*
X137804600Y-76736895D01*
X137808781Y-76694438D01*
X137819374Y-76659519D01*
X137836576Y-76627337D01*
X137859727Y-76599127D01*
X137887937Y-76575976D01*
X137920119Y-76558774D01*
X137955038Y-76548181D01*
X137997495Y-76544000D01*
X139138705Y-76544000D01*
X139181162Y-76548181D01*
G37*
G36*
X142156162Y-76548181D02*
G01*
X142191081Y-76558774D01*
X142223263Y-76575976D01*
X142251473Y-76599127D01*
X142274624Y-76627337D01*
X142291826Y-76659519D01*
X142302419Y-76694438D01*
X142306600Y-76736895D01*
X142306600Y-78203105D01*
X142302419Y-78245562D01*
X142291826Y-78280481D01*
X142274624Y-78312663D01*
X142251473Y-78340873D01*
X142223263Y-78364024D01*
X142191081Y-78381226D01*
X142156162Y-78391819D01*
X142113705Y-78396000D01*
X140972495Y-78396000D01*
X140930038Y-78391819D01*
X140895119Y-78381226D01*
X140862937Y-78364024D01*
X140834727Y-78340873D01*
X140811576Y-78312663D01*
X140794374Y-78280481D01*
X140783781Y-78245562D01*
X140779600Y-78203105D01*
X140779600Y-76736895D01*
X140783781Y-76694438D01*
X140794374Y-76659519D01*
X140811576Y-76627337D01*
X140834727Y-76599127D01*
X140862937Y-76575976D01*
X140895119Y-76558774D01*
X140930038Y-76548181D01*
X140972495Y-76544000D01*
X142113705Y-76544000D01*
X142156162Y-76548181D01*
G37*
M02*
