G04 #@! TF.GenerationSoftware,KiCad,Pcbnew,5.1.5-52549c5~84~ubuntu18.04.1*
G04 #@! TF.CreationDate,2019-12-27T14:58:41-07:00*
G04 #@! TF.ProjectId,001,3030312e-6b69-4636-9164-5f7063625858,rev?*
G04 #@! TF.SameCoordinates,Original*
G04 #@! TF.FileFunction,Legend,Top*
G04 #@! TF.FilePolarity,Positive*
%FSLAX46Y46*%
G04 Gerber Fmt 4.6, Leading zero omitted, Abs format (unit mm)*
G04 Created by KiCad (PCBNEW 5.1.5-52549c5~84~ubuntu18.04.1) date 2019-12-27 14:58:41*
%MOMM*%
%LPD*%
G04 APERTURE LIST*
%ADD10C,0.200000*%
%ADD11C,0.120000*%
G04 APERTURE END LIST*
D10*
X146792904Y-89814266D02*
X145992904Y-89814266D01*
X146564333Y-89547600D01*
X145992904Y-89280933D01*
X146792904Y-89280933D01*
X145992904Y-88747600D02*
X145992904Y-88595219D01*
X146031000Y-88519028D01*
X146107190Y-88442838D01*
X146259571Y-88404742D01*
X146526238Y-88404742D01*
X146678619Y-88442838D01*
X146754809Y-88519028D01*
X146792904Y-88595219D01*
X146792904Y-88747600D01*
X146754809Y-88823790D01*
X146678619Y-88899980D01*
X146526238Y-88938076D01*
X146259571Y-88938076D01*
X146107190Y-88899980D01*
X146031000Y-88823790D01*
X145992904Y-88747600D01*
X146754809Y-88099980D02*
X146792904Y-87985695D01*
X146792904Y-87795219D01*
X146754809Y-87719028D01*
X146716714Y-87680933D01*
X146640523Y-87642838D01*
X146564333Y-87642838D01*
X146488142Y-87680933D01*
X146450047Y-87719028D01*
X146411952Y-87795219D01*
X146373857Y-87947600D01*
X146335761Y-88023790D01*
X146297666Y-88061885D01*
X146221476Y-88099980D01*
X146145285Y-88099980D01*
X146069095Y-88061885D01*
X146031000Y-88023790D01*
X145992904Y-87947600D01*
X145992904Y-87757123D01*
X146031000Y-87642838D01*
X146716704Y-87045695D02*
X145916704Y-87045695D01*
X146488133Y-86779028D01*
X145916704Y-86512361D01*
X146716704Y-86512361D01*
X146716704Y-86131409D02*
X145916704Y-86131409D01*
X146678609Y-85788552D02*
X146716704Y-85674266D01*
X146716704Y-85483790D01*
X146678609Y-85407600D01*
X146640514Y-85369504D01*
X146564323Y-85331409D01*
X146488133Y-85331409D01*
X146411942Y-85369504D01*
X146373847Y-85407600D01*
X146335752Y-85483790D01*
X146297657Y-85636171D01*
X146259561Y-85712361D01*
X146221466Y-85750457D01*
X146145276Y-85788552D01*
X146069085Y-85788552D01*
X145992895Y-85750457D01*
X145954800Y-85712361D01*
X145916704Y-85636171D01*
X145916704Y-85445695D01*
X145954800Y-85331409D01*
X146678609Y-84696171D02*
X146716704Y-84581885D01*
X146716704Y-84391409D01*
X146678609Y-84315219D01*
X146640514Y-84277123D01*
X146564323Y-84239028D01*
X146488133Y-84239028D01*
X146411942Y-84277123D01*
X146373847Y-84315219D01*
X146335752Y-84391409D01*
X146297657Y-84543790D01*
X146259561Y-84619980D01*
X146221466Y-84658076D01*
X146145276Y-84696171D01*
X146069085Y-84696171D01*
X145992895Y-84658076D01*
X145954800Y-84619980D01*
X145916704Y-84543790D01*
X145916704Y-84353314D01*
X145954800Y-84239028D01*
X146640514Y-83439028D02*
X146678609Y-83477123D01*
X146716704Y-83591409D01*
X146716704Y-83667600D01*
X146678609Y-83781885D01*
X146602419Y-83858076D01*
X146526228Y-83896171D01*
X146373847Y-83934266D01*
X146259561Y-83934266D01*
X146107180Y-83896171D01*
X146030990Y-83858076D01*
X145954800Y-83781885D01*
X145916704Y-83667600D01*
X145916704Y-83591409D01*
X145954800Y-83477123D01*
X145992895Y-83439028D01*
X146716704Y-83096171D02*
X145916704Y-83096171D01*
X146716704Y-82639028D02*
X146259561Y-82981885D01*
X145916704Y-82639028D02*
X146373847Y-83096171D01*
X133902495Y-83559704D02*
X134283447Y-83293038D01*
X133902495Y-83102561D02*
X134702495Y-83102561D01*
X134702495Y-83407323D01*
X134664400Y-83483514D01*
X134626304Y-83521609D01*
X134550114Y-83559704D01*
X134435828Y-83559704D01*
X134359638Y-83521609D01*
X134321542Y-83483514D01*
X134283447Y-83407323D01*
X134283447Y-83102561D01*
X133940590Y-83864466D02*
X133902495Y-83978752D01*
X133902495Y-84169228D01*
X133940590Y-84245419D01*
X133978685Y-84283514D01*
X134054876Y-84321609D01*
X134131066Y-84321609D01*
X134207257Y-84283514D01*
X134245352Y-84245419D01*
X134283447Y-84169228D01*
X134321542Y-84016847D01*
X134359638Y-83940657D01*
X134397733Y-83902561D01*
X134473923Y-83864466D01*
X134550114Y-83864466D01*
X134626304Y-83902561D01*
X134664400Y-83940657D01*
X134702495Y-84016847D01*
X134702495Y-84207323D01*
X134664400Y-84321609D01*
X134702495Y-84550180D02*
X134702495Y-85007323D01*
X133902495Y-84778752D02*
X134702495Y-84778752D01*
X147910504Y-89738076D02*
X147110504Y-89738076D01*
X147110504Y-89433314D01*
X147148600Y-89357123D01*
X147186695Y-89319028D01*
X147262885Y-89280933D01*
X147377171Y-89280933D01*
X147453361Y-89319028D01*
X147491457Y-89357123D01*
X147529552Y-89433314D01*
X147529552Y-89738076D01*
X147491457Y-88671409D02*
X147529552Y-88557123D01*
X147567647Y-88519028D01*
X147643838Y-88480933D01*
X147758123Y-88480933D01*
X147834314Y-88519028D01*
X147872409Y-88557123D01*
X147910504Y-88633314D01*
X147910504Y-88938076D01*
X147110504Y-88938076D01*
X147110504Y-88671409D01*
X147148600Y-88595219D01*
X147186695Y-88557123D01*
X147262885Y-88519028D01*
X147339076Y-88519028D01*
X147415266Y-88557123D01*
X147453361Y-88595219D01*
X147491457Y-88671409D01*
X147491457Y-88938076D01*
X147110504Y-87985695D02*
X147110504Y-87909504D01*
X147148600Y-87833314D01*
X147186695Y-87795219D01*
X147262885Y-87757123D01*
X147415266Y-87719028D01*
X147605742Y-87719028D01*
X147758123Y-87757123D01*
X147834314Y-87795219D01*
X147872409Y-87833314D01*
X147910504Y-87909504D01*
X147910504Y-87985695D01*
X147872409Y-88061885D01*
X147834314Y-88099980D01*
X147758123Y-88138076D01*
X147605742Y-88176171D01*
X147415266Y-88176171D01*
X147262885Y-88138076D01*
X147186695Y-88099980D01*
X147148600Y-88061885D01*
X147110504Y-87985695D01*
X147910504Y-84658076D02*
X147110504Y-84658076D01*
X147110504Y-84353314D01*
X147148600Y-84277123D01*
X147186695Y-84239028D01*
X147262885Y-84200933D01*
X147377171Y-84200933D01*
X147453361Y-84239028D01*
X147491457Y-84277123D01*
X147529552Y-84353314D01*
X147529552Y-84658076D01*
X147491457Y-83591409D02*
X147529552Y-83477123D01*
X147567647Y-83439028D01*
X147643838Y-83400933D01*
X147758123Y-83400933D01*
X147834314Y-83439028D01*
X147872409Y-83477123D01*
X147910504Y-83553314D01*
X147910504Y-83858076D01*
X147110504Y-83858076D01*
X147110504Y-83591409D01*
X147148600Y-83515219D01*
X147186695Y-83477123D01*
X147262885Y-83439028D01*
X147339076Y-83439028D01*
X147415266Y-83477123D01*
X147453361Y-83515219D01*
X147491457Y-83591409D01*
X147491457Y-83858076D01*
X147186695Y-83096171D02*
X147148600Y-83058076D01*
X147110504Y-82981885D01*
X147110504Y-82791409D01*
X147148600Y-82715219D01*
X147186695Y-82677123D01*
X147262885Y-82639028D01*
X147339076Y-82639028D01*
X147453361Y-82677123D01*
X147910504Y-83134266D01*
X147910504Y-82639028D01*
X147110504Y-82194266D02*
X147910504Y-81927600D01*
X147110504Y-81660933D01*
X147834314Y-80937123D02*
X147872409Y-80975219D01*
X147910504Y-81089504D01*
X147910504Y-81165695D01*
X147872409Y-81279980D01*
X147796219Y-81356171D01*
X147720028Y-81394266D01*
X147567647Y-81432361D01*
X147453361Y-81432361D01*
X147300980Y-81394266D01*
X147224790Y-81356171D01*
X147148600Y-81279980D01*
X147110504Y-81165695D01*
X147110504Y-81089504D01*
X147148600Y-80975219D01*
X147186695Y-80937123D01*
X147834314Y-80137123D02*
X147872409Y-80175219D01*
X147910504Y-80289504D01*
X147910504Y-80365695D01*
X147872409Y-80479980D01*
X147796219Y-80556171D01*
X147720028Y-80594266D01*
X147567647Y-80632361D01*
X147453361Y-80632361D01*
X147300980Y-80594266D01*
X147224790Y-80556171D01*
X147148600Y-80479980D01*
X147110504Y-80365695D01*
X147110504Y-80289504D01*
X147148600Y-80175219D01*
X147186695Y-80137123D01*
X147910504Y-87198076D02*
X147110504Y-87198076D01*
X147110504Y-86893314D01*
X147148600Y-86817123D01*
X147186695Y-86779028D01*
X147262885Y-86740933D01*
X147377171Y-86740933D01*
X147453361Y-86779028D01*
X147491457Y-86817123D01*
X147529552Y-86893314D01*
X147529552Y-87198076D01*
X147491457Y-86131409D02*
X147529552Y-86017123D01*
X147567647Y-85979028D01*
X147643838Y-85940933D01*
X147758123Y-85940933D01*
X147834314Y-85979028D01*
X147872409Y-86017123D01*
X147910504Y-86093314D01*
X147910504Y-86398076D01*
X147110504Y-86398076D01*
X147110504Y-86131409D01*
X147148600Y-86055219D01*
X147186695Y-86017123D01*
X147262885Y-85979028D01*
X147339076Y-85979028D01*
X147415266Y-86017123D01*
X147453361Y-86055219D01*
X147491457Y-86131409D01*
X147491457Y-86398076D01*
X147910504Y-85179028D02*
X147910504Y-85636171D01*
X147910504Y-85407600D02*
X147110504Y-85407600D01*
X147224790Y-85483790D01*
X147300980Y-85559980D01*
X147339076Y-85636171D01*
X132784895Y-82956523D02*
X133584895Y-82956523D01*
X133584895Y-83261285D01*
X133546800Y-83337476D01*
X133508704Y-83375571D01*
X133432514Y-83413666D01*
X133318228Y-83413666D01*
X133242038Y-83375571D01*
X133203942Y-83337476D01*
X133165847Y-83261285D01*
X133165847Y-82956523D01*
X133203942Y-84023190D02*
X133165847Y-84137476D01*
X133127752Y-84175571D01*
X133051561Y-84213666D01*
X132937276Y-84213666D01*
X132861085Y-84175571D01*
X132822990Y-84137476D01*
X132784895Y-84061285D01*
X132784895Y-83756523D01*
X133584895Y-83756523D01*
X133584895Y-84023190D01*
X133546800Y-84099380D01*
X133508704Y-84137476D01*
X133432514Y-84175571D01*
X133356323Y-84175571D01*
X133280133Y-84137476D01*
X133242038Y-84099380D01*
X133203942Y-84023190D01*
X133203942Y-83756523D01*
X133584895Y-84937476D02*
X133584895Y-84556523D01*
X133203942Y-84518428D01*
X133242038Y-84556523D01*
X133280133Y-84632714D01*
X133280133Y-84823190D01*
X133242038Y-84899380D01*
X133203942Y-84937476D01*
X133127752Y-84975571D01*
X132937276Y-84975571D01*
X132861085Y-84937476D01*
X132822990Y-84899380D01*
X132784895Y-84823190D01*
X132784895Y-84632714D01*
X132822990Y-84556523D01*
X132861085Y-84518428D01*
X132784895Y-85496523D02*
X133584895Y-85496523D01*
X133584895Y-85801285D01*
X133546800Y-85877476D01*
X133508704Y-85915571D01*
X133432514Y-85953666D01*
X133318228Y-85953666D01*
X133242038Y-85915571D01*
X133203942Y-85877476D01*
X133165847Y-85801285D01*
X133165847Y-85496523D01*
X133203942Y-86563190D02*
X133165847Y-86677476D01*
X133127752Y-86715571D01*
X133051561Y-86753666D01*
X132937276Y-86753666D01*
X132861085Y-86715571D01*
X132822990Y-86677476D01*
X132784895Y-86601285D01*
X132784895Y-86296523D01*
X133584895Y-86296523D01*
X133584895Y-86563190D01*
X133546800Y-86639380D01*
X133508704Y-86677476D01*
X133432514Y-86715571D01*
X133356323Y-86715571D01*
X133280133Y-86677476D01*
X133242038Y-86639380D01*
X133203942Y-86563190D01*
X133203942Y-86296523D01*
X133584895Y-87020333D02*
X133584895Y-87515571D01*
X133280133Y-87248904D01*
X133280133Y-87363190D01*
X133242038Y-87439380D01*
X133203942Y-87477476D01*
X133127752Y-87515571D01*
X132937276Y-87515571D01*
X132861085Y-87477476D01*
X132822990Y-87439380D01*
X132784895Y-87363190D01*
X132784895Y-87134619D01*
X132822990Y-87058428D01*
X132861085Y-87020333D01*
X133546800Y-80797476D02*
X133584895Y-80721285D01*
X133584895Y-80607000D01*
X133546800Y-80492714D01*
X133470609Y-80416523D01*
X133394419Y-80378428D01*
X133242038Y-80340333D01*
X133127752Y-80340333D01*
X132975371Y-80378428D01*
X132899180Y-80416523D01*
X132822990Y-80492714D01*
X132784895Y-80607000D01*
X132784895Y-80683190D01*
X132822990Y-80797476D01*
X132861085Y-80835571D01*
X133127752Y-80835571D01*
X133127752Y-80683190D01*
X132784895Y-81178428D02*
X133584895Y-81178428D01*
X132784895Y-81635571D01*
X133584895Y-81635571D01*
X132784895Y-82016523D02*
X133584895Y-82016523D01*
X133584895Y-82207000D01*
X133546800Y-82321285D01*
X133470609Y-82397476D01*
X133394419Y-82435571D01*
X133242038Y-82473666D01*
X133127752Y-82473666D01*
X132975371Y-82435571D01*
X132899180Y-82397476D01*
X132822990Y-82321285D01*
X132784895Y-82207000D01*
X132784895Y-82016523D01*
X132784895Y-88036523D02*
X133584895Y-88036523D01*
X133584895Y-88341285D01*
X133546800Y-88417476D01*
X133508704Y-88455571D01*
X133432514Y-88493666D01*
X133318228Y-88493666D01*
X133242038Y-88455571D01*
X133203942Y-88417476D01*
X133165847Y-88341285D01*
X133165847Y-88036523D01*
X133203942Y-89103190D02*
X133165847Y-89217476D01*
X133127752Y-89255571D01*
X133051561Y-89293666D01*
X132937276Y-89293666D01*
X132861085Y-89255571D01*
X132822990Y-89217476D01*
X132784895Y-89141285D01*
X132784895Y-88836523D01*
X133584895Y-88836523D01*
X133584895Y-89103190D01*
X133546800Y-89179380D01*
X133508704Y-89217476D01*
X133432514Y-89255571D01*
X133356323Y-89255571D01*
X133280133Y-89217476D01*
X133242038Y-89179380D01*
X133203942Y-89103190D01*
X133203942Y-88836523D01*
X133318228Y-89979380D02*
X132784895Y-89979380D01*
X133622990Y-89788904D02*
X133051561Y-89598428D01*
X133051561Y-90093666D01*
X135835000Y-79588600D02*
X137335000Y-79588600D01*
D11*
X139453536Y-76560000D02*
X140657664Y-76560000D01*
X139453536Y-78380000D02*
X140657664Y-78380000D01*
M02*
