<?xml version="1.0" encoding="UTF-8" standalone="no"?>
<!-- Created with Inkscape (http://www.inkscape.org/) -->

<svg
   xmlns:dc="http://purl.org/dc/elements/1.1/"
   xmlns:cc="http://creativecommons.org/ns#"
   xmlns:rdf="http://www.w3.org/1999/02/22-rdf-syntax-ns#"
   xmlns:svg="http://www.w3.org/2000/svg"
   xmlns="http://www.w3.org/2000/svg"
   xmlns:sodipodi="http://sodipodi.sourceforge.net/DTD/sodipodi-0.dtd"
   xmlns:inkscape="http://www.inkscape.org/namespaces/inkscape"
   version="1.1"
   width="205.80428"
   height="213.0887"
   id="svg3667"
   sodipodi:docname="dragon-head-silhouette.svg"
   inkscape:version="0.92.3 (2405546, 2018-03-11)">
  <sodipodi:namedview
     pagecolor="#ffffff"
     bordercolor="#666666"
     borderopacity="1"
     objecttolerance="10"
     gridtolerance="10"
     guidetolerance="10"
     inkscape:pageopacity="0"
     inkscape:pageshadow="2"
     inkscape:window-width="1485"
     inkscape:window-height="799"
     id="namedview1180"
     showgrid="false"
     inkscape:zoom="4.4300801"
     inkscape:cx="188.39203"
     inkscape:cy="140.42588"
     inkscape:window-x="64"
     inkscape:window-y="27"
     inkscape:window-maximized="0"
     inkscape:current-layer="svg3667" />
  <defs
     id="defs3669" />
  <metadata
     id="metadata3672">
    <rdf:RDF>
      <cc:Work
         rdf:about="">
        <dc:format>image/svg+xml</dc:format>
        <dc:type
           rdf:resource="http://purl.org/dc/dcmitype/StillImage" />
        <dc:title></dc:title>
      </cc:Work>
    </rdf:RDF>
  </metadata>
  <path
     inkscape:connector-curvature="0"
     style="fill:#501616"
     id="tongue"
     d="m 117.72662,89.8267 c 8.7023,8.4203 18.004,18.023 26.231,25.935 9.6352,9.2653 21.45,16.191 32.71,17.961 9.0435,1.4214 11.217,2.2052 17.614,9.4527 -3.1468,-10.714 -11.638,-11.029 -16.041,-12.604 6.5,-0.3154 12.999,0.3164 20.444,5.0432 -7.0247,-8.8227 -14.352,-7.9758 -21.703,-7.8802 -7.5945,0.0994 -18.876,-3.7891 -27.678,-12.919 -8.8925,-9.2251 -16.422,-16.486 -24.746,-29.33" />
  <path
     inkscape:connector-curvature="0"
     id="body"
     d="m 124.55762,85.4854 c 9.5378,2.709 18.637,8.2359 21.709,18.479 0.9635,-5.4972 0.007,-10.673 -2.8705,-15.531 5.005,-0.5105 13.01,7.907 20.574,20.833 0.0554,-4.6007 0.6395,-8.1068 -1.2599,-14.916 8.081,1.3458 12.718,5.5307 17.337,14.916 2.0351,-3.6572 3.0158,-8.0304 -0.4081,-12.97 9.3093,2.0245 11.583,9.7633 15.106,17.252 0.9645,-4.0625 1.7559,-7.5906 2.5273,-9.4584 2.0198,-0.0631 5.2621,3.2032 5.3175,12.682 l 0.002,4e-4 c 2.926,-6.4712 4.4841,-13.344 2.7482,-18.831 -2.275,-7.1911 -8.666,-12.4 -15.432,-15.729 -4.6971,-2.3113 -27.345,-9.6993 -24.959,-13.819 3.986,-6.8852 -3.8436,-10.526 -8.5111,-15.485 -12.45,-13.224 -16.952,-19.325 -29.53,-26.893 -12.132,-7.3 -28.517,-8.428 -37.74,-7.7885 24.599,3.4402 45.95,15.815 36.752,25.797 -5.0212,5.4504 -15.761,4.6952 -34.118,-1.8229 -19.364,-6.8756 -44.818,-19.039 -56.814,-42.201 5.3873,27.541 37.709,44.313 60.629,53.376 -10.882,2.8284 -17.291,4.6331 -29.81,11.024 -17.532,-4.4735 -36.4,-5.2287 -53.532,12.431 17.968,-8.8112 31.945,-9.6294 36.779,-2.9154 -8.0264,5.8691 -13.643,10.881 -18.54,17.829 -16.508,5.135 -25.713,10.399 -30.252,24.905 7.0467,-10.873 15.508,-15.748 23.171,-12.523 -3.0091,7.3373 -4.4238,15.419 -4.0759,24.496 -7.192,5.8882 -12.23,13.803 -13.435,32.683 4.1169,-15.513 9.7375,-21.526 14.769,-20.965 0.0975,0.5305 0.1969,1.0639 0.3049,1.6001 1.453,7.2236 3.6534,13.327 6.3796,18.955 -6.1654,6.3872 -9.6429,14.952 -7.6165,36.89 0.5659,-15.051 4.4305,-26.272 12.716,-28.239 4.0653,6.325 10.509,16.21 15.229,23.671 3.0377,4.8023 4.4935,12.153 4.1609,19.871 h 103.33 c 7.1738,-40.966 -50.848,-54.878 -65.993,-68.085 -6.8507,-5.9743 -12.012,-18.506 -9.812,-27.325 2.8007,-11.233 11.187,-21.623 21.338,-25.356 4.3062,3.7394 6.6758,5.4571 8.3505,10.903 5.1445,16.734 8.0494,24.752 31.392,38.389 6.5085,3.8015 13.2,1.6059 19.003,0.8077 -3.6362,-0.8631 -6.7925,-1.0065 -10.43,-1.8687 3.3523,-0.6701 5.9848,-3.7394 6.6969,-5.6091 -4.5901,2.7185 -10.139,2.2387 -16.65,-1.4376 3.3293,-0.7131 7.6594,-2.4471 10.13,-3.7872 -4.7832,0.2657 -11.838,-0.5544 -14.04,-2.8007 -1.8038,-1.8401 -3.8551,-4.6714 -4.5251,-7.1633 3.8053,2.3008 8.4451,0.2485 11.609,-0.008 -5.2688,-0.9692 -14.432,-5.6578 -16.72,-9.5951 -4.0902,-7.0342 -7.0467,-13.538 -7.8181,-20.326" />
  <path
     inkscape:connector-curvature="0"
     style="fill:#ffff00;fill-opacity:1;fill-rule:evenodd;stroke:none"
     id="nose"
     d="m 189.28125,86.78125 c -0.84058,-0.02724 -1.7682,0.08145 -2.5625,0.28125 1.1795,0.5056 1.7203,1.8127 4,3.625 2.406,1.9051 3.72885,0.97595 5.28125,2.03125 -0.4034,-2.8858 -2.98595,-4.699 -4.59375,-5.5 -0.5224,-0.26095 -1.28442,-0.410263 -2.125,-0.4375 z" />
  <path
     inkscape:connector-curvature="0"
     style="fill:#ffff00;fill-opacity:1;fill-rule:evenodd;stroke:none"
     id="eye"
     d="m 135.5,56.28125 c -1.69918,0.0053 -3.46005,0.201663 -5.15625,0.625 4.3737,1.4415 6.72395,5.0785 10.03125,7.625 3.5804,2.7567 6.21425,-0.58925 10.96875,3.09375 -3.1745,-6.1779 -3.9194,-7.61605 -8.5,-9.90625 -1.85862,-0.929 -4.51178,-1.446356 -7.34375,-1.4375 z" />
  <path
     d="m 220.37431,39.125804 c -1.69918,0.0053 -3.46005,0.201663 -5.15625,0.625 4.3737,1.4415 6.72395,5.0785 10.03125,7.625 3.5804,2.7567 6.21425,-0.58925 10.96875,3.09375 -3.1745,-6.1779 -3.9194,-7.61605 -8.5,-9.90625 -1.85862,-0.929 -4.51178,-1.446356 -7.34375,-1.4375 z"
     id="path1729"
     style="fill:#ffff00;fill-opacity:1;fill-rule:evenodd;stroke:none"
     inkscape:connector-curvature="0" />
</svg>
