G04 #@! TF.GenerationSoftware,KiCad,Pcbnew,5.0.2-bee76a0~70~ubuntu16.04.1*
G04 #@! TF.CreationDate,2018-12-26T17:34:20-07:00*
G04 #@! TF.ProjectId,01,30312e6b-6963-4616-945f-706362585858,rev?*
G04 #@! TF.SameCoordinates,Original*
G04 #@! TF.FileFunction,Other,Fab,Top*
%FSLAX46Y46*%
G04 Gerber Fmt 4.6, Leading zero omitted, Abs format (unit mm)*
G04 Created by KiCad (PCBNEW 5.0.2-bee76a0~70~ubuntu16.04.1) date Wed 26 Dec 2018 17:34:20 MST*
%MOMM*%
%LPD*%
G01*
G04 APERTURE LIST*
%ADD10C,0.100000*%
%ADD11C,0.150000*%
%ADD12C,0.080000*%
G04 APERTURE END LIST*
D10*
G04 #@! TO.C,REF\002A\002A*
X155940000Y-91405000D02*
X153940000Y-91405000D01*
X155940000Y-90205000D02*
X155940000Y-91405000D01*
X153940000Y-90205000D02*
X155940000Y-90205000D01*
X153940000Y-91405000D02*
X153940000Y-90205000D01*
G04 #@! TD*
G04 #@! TO.C,REF9\002A\002A*
D11*
X152201904Y-94940380D02*
X152201904Y-93940380D01*
X152582857Y-93940380D01*
X152678095Y-93988000D01*
X152725714Y-94035619D01*
X152773333Y-94130857D01*
X152773333Y-94273714D01*
X152725714Y-94368952D01*
X152678095Y-94416571D01*
X152582857Y-94464190D01*
X152201904Y-94464190D01*
X153630476Y-94940380D02*
X153630476Y-94416571D01*
X153582857Y-94321333D01*
X153487619Y-94273714D01*
X153297142Y-94273714D01*
X153201904Y-94321333D01*
X153630476Y-94892761D02*
X153535238Y-94940380D01*
X153297142Y-94940380D01*
X153201904Y-94892761D01*
X153154285Y-94797523D01*
X153154285Y-94702285D01*
X153201904Y-94607047D01*
X153297142Y-94559428D01*
X153535238Y-94559428D01*
X153630476Y-94511809D01*
X154535238Y-94940380D02*
X154535238Y-93940380D01*
X154535238Y-94892761D02*
X154440000Y-94940380D01*
X154249523Y-94940380D01*
X154154285Y-94892761D01*
X154106666Y-94845142D01*
X154059047Y-94749904D01*
X154059047Y-94464190D01*
X154106666Y-94368952D01*
X154154285Y-94321333D01*
X154249523Y-94273714D01*
X154440000Y-94273714D01*
X154535238Y-94321333D01*
X154773333Y-95035619D02*
X155535238Y-95035619D01*
X155773333Y-94940380D02*
X155773333Y-93940380D01*
X156154285Y-93940380D01*
X156249523Y-93988000D01*
X156297142Y-94035619D01*
X156344761Y-94130857D01*
X156344761Y-94273714D01*
X156297142Y-94368952D01*
X156249523Y-94416571D01*
X156154285Y-94464190D01*
X155773333Y-94464190D01*
X156773333Y-94940380D02*
X156773333Y-94273714D01*
X156773333Y-93940380D02*
X156725714Y-93988000D01*
X156773333Y-94035619D01*
X156820952Y-93988000D01*
X156773333Y-93940380D01*
X156773333Y-94035619D01*
X157249523Y-94273714D02*
X157249523Y-94940380D01*
X157249523Y-94368952D02*
X157297142Y-94321333D01*
X157392380Y-94273714D01*
X157535238Y-94273714D01*
X157630476Y-94321333D01*
X157678095Y-94416571D01*
X157678095Y-94940380D01*
G04 #@! TO.C,REF\002A\002A*
X152963809Y-92907380D02*
X152630476Y-92431190D01*
X152392380Y-92907380D02*
X152392380Y-91907380D01*
X152773333Y-91907380D01*
X152868571Y-91955000D01*
X152916190Y-92002619D01*
X152963809Y-92097857D01*
X152963809Y-92240714D01*
X152916190Y-92335952D01*
X152868571Y-92383571D01*
X152773333Y-92431190D01*
X152392380Y-92431190D01*
X153154285Y-93002619D02*
X153916190Y-93002619D01*
X154344761Y-91907380D02*
X154440000Y-91907380D01*
X154535238Y-91955000D01*
X154582857Y-92002619D01*
X154630476Y-92097857D01*
X154678095Y-92288333D01*
X154678095Y-92526428D01*
X154630476Y-92716904D01*
X154582857Y-92812142D01*
X154535238Y-92859761D01*
X154440000Y-92907380D01*
X154344761Y-92907380D01*
X154249523Y-92859761D01*
X154201904Y-92812142D01*
X154154285Y-92716904D01*
X154106666Y-92526428D01*
X154106666Y-92288333D01*
X154154285Y-92097857D01*
X154201904Y-92002619D01*
X154249523Y-91955000D01*
X154344761Y-91907380D01*
X155249523Y-92335952D02*
X155154285Y-92288333D01*
X155106666Y-92240714D01*
X155059047Y-92145476D01*
X155059047Y-92097857D01*
X155106666Y-92002619D01*
X155154285Y-91955000D01*
X155249523Y-91907380D01*
X155440000Y-91907380D01*
X155535238Y-91955000D01*
X155582857Y-92002619D01*
X155630476Y-92097857D01*
X155630476Y-92145476D01*
X155582857Y-92240714D01*
X155535238Y-92288333D01*
X155440000Y-92335952D01*
X155249523Y-92335952D01*
X155154285Y-92383571D01*
X155106666Y-92431190D01*
X155059047Y-92526428D01*
X155059047Y-92716904D01*
X155106666Y-92812142D01*
X155154285Y-92859761D01*
X155249523Y-92907380D01*
X155440000Y-92907380D01*
X155535238Y-92859761D01*
X155582857Y-92812142D01*
X155630476Y-92716904D01*
X155630476Y-92526428D01*
X155582857Y-92431190D01*
X155535238Y-92383571D01*
X155440000Y-92335952D01*
X156249523Y-91907380D02*
X156344761Y-91907380D01*
X156440000Y-91955000D01*
X156487619Y-92002619D01*
X156535238Y-92097857D01*
X156582857Y-92288333D01*
X156582857Y-92526428D01*
X156535238Y-92716904D01*
X156487619Y-92812142D01*
X156440000Y-92859761D01*
X156344761Y-92907380D01*
X156249523Y-92907380D01*
X156154285Y-92859761D01*
X156106666Y-92812142D01*
X156059047Y-92716904D01*
X156011428Y-92526428D01*
X156011428Y-92288333D01*
X156059047Y-92097857D01*
X156106666Y-92002619D01*
X156154285Y-91955000D01*
X156249523Y-91907380D01*
X157487619Y-91907380D02*
X157011428Y-91907380D01*
X156963809Y-92383571D01*
X157011428Y-92335952D01*
X157106666Y-92288333D01*
X157344761Y-92288333D01*
X157440000Y-92335952D01*
X157487619Y-92383571D01*
X157535238Y-92478809D01*
X157535238Y-92716904D01*
X157487619Y-92812142D01*
X157440000Y-92859761D01*
X157344761Y-92907380D01*
X157106666Y-92907380D01*
X157011428Y-92859761D01*
X156963809Y-92812142D01*
D12*
X154273333Y-91031190D02*
X154106666Y-90793095D01*
X153987619Y-91031190D02*
X153987619Y-90531190D01*
X154178095Y-90531190D01*
X154225714Y-90555000D01*
X154249523Y-90578809D01*
X154273333Y-90626428D01*
X154273333Y-90697857D01*
X154249523Y-90745476D01*
X154225714Y-90769285D01*
X154178095Y-90793095D01*
X153987619Y-90793095D01*
X154487619Y-90769285D02*
X154654285Y-90769285D01*
X154725714Y-91031190D02*
X154487619Y-91031190D01*
X154487619Y-90531190D01*
X154725714Y-90531190D01*
X155106666Y-90769285D02*
X154940000Y-90769285D01*
X154940000Y-91031190D02*
X154940000Y-90531190D01*
X155178095Y-90531190D01*
X155440000Y-90531190D02*
X155440000Y-90650238D01*
X155320952Y-90602619D02*
X155440000Y-90650238D01*
X155559047Y-90602619D01*
X155368571Y-90745476D02*
X155440000Y-90650238D01*
X155511428Y-90745476D01*
X155820952Y-90531190D02*
X155820952Y-90650238D01*
X155701904Y-90602619D02*
X155820952Y-90650238D01*
X155940000Y-90602619D01*
X155749523Y-90745476D02*
X155820952Y-90650238D01*
X155892380Y-90745476D01*
G04 #@! TD*
M02*
