<?xml version="1.0" encoding="UTF-8" standalone="no"?>
<!-- Created with Inkscape (http://www.inkscape.org/) -->

<svg
   xmlns:dc="http://purl.org/dc/elements/1.1/"
   xmlns:cc="http://creativecommons.org/ns#"
   xmlns:rdf="http://www.w3.org/1999/02/22-rdf-syntax-ns#"
   xmlns:svg="http://www.w3.org/2000/svg"
   xmlns="http://www.w3.org/2000/svg"
   xmlns:sodipodi="http://sodipodi.sourceforge.net/DTD/sodipodi-0.dtd"
   xmlns:inkscape="http://www.inkscape.org/namespaces/inkscape"
   width="99.801552mm"
   height="89.5158mm"
   viewBox="0 0 99.801552 89.515801"
   version="1.1"
   id="svg8"
   sodipodi:docname="Edge.svg"
   inkscape:version="0.92.4 (unknown)">
  <defs
     id="defs2" />
  <sodipodi:namedview
     id="base"
     pagecolor="#dfffff"
     bordercolor="#666666"
     borderopacity="1.0"
     inkscape:pageopacity="0"
     inkscape:pageshadow="2"
     inkscape:zoom="1.4"
     inkscape:cx="134.8175"
     inkscape:cy="198.48084"
     inkscape:document-units="mm"
     inkscape:current-layer="layer1"
     showgrid="false"
     showguides="false"
     borderlayer="false"
     fit-margin-top="0"
     fit-margin-left="0"
     fit-margin-right="0"
     fit-margin-bottom="0">
    <inkscape:grid
       originy="-4.4207204"
       originx="-0.27555853"
       enabled="true"
       visible="true"
       id="grid819"
       type="xygrid" />
  </sodipodi:namedview>
  <metadata
     id="metadata5">
    <rdf:RDF>
      <cc:Work
         rdf:about="">
        <dc:format>image/svg+xml</dc:format>
        <dc:type
           rdf:resource="http://purl.org/dc/dcmitype/StillImage" />
        <dc:title></dc:title>
      </cc:Work>
    </rdf:RDF>
  </metadata>
  <g
     transform="translate(-0.27555853,-203.06347)"
     id="g816"
     inkscape:groupmode="layer"
     inkscape:label="Edge.cut"
     style="display:inline">
    <path
       id="path814"
       d="m 74.083333,289.0625 c -0.354739,0.21284 -0.73208,0.39664 -1.129377,0.55427 -0.397298,0.15762 -0.814553,0.28908 -1.24912,0.39722 -0.434567,0.10815 -0.886447,0.19298 -1.352994,0.25738 -0.466547,0.0644 -0.947762,0.10837 -1.441,0.13476 -0.493237,0.0264 -0.998498,0.0352 -1.513137,0.0293 -0.514638,-0.006 -1.038655,-0.0265 -1.569406,-0.0589 -0.53075,-0.0324 -1.068234,-0.0767 -1.609807,-0.12988 -0.541573,-0.0532 -1.087234,-0.11539 -1.63434,-0.18367 -0.524603,-0.0655 -1.050535,-0.13654 -1.575462,-0.21069 -0.524928,-0.0742 -1.048852,-0.15138 -1.56944,-0.22916 -0.520588,-0.0778 -1.03784,-0.1561 -1.549425,-0.23245 -0.511586,-0.0763 -1.017504,-0.15071 -1.515423,-0.22057 -0.497919,-0.0699 -0.98784,-0.1352 -1.46743,-0.19351 -0.479589,-0.0583 -0.948849,-0.10959 -1.405446,-0.15129 -0.456598,-0.0417 -0.900533,-0.0738 -1.329474,-0.0939 -0.428942,-0.02 -0.84289,-0.028 -1.239512,-0.0213 -0.396622,0.007 -0.810068,0.0285 -1.238093,0.063 -0.428024,0.0345 -0.870627,0.0815 -1.325563,0.13856 -0.454936,0.057 -0.922206,0.12407 -1.399563,0.19848 -0.477357,0.0744 -0.964802,0.1562 -1.46009,0.24276 -0.495288,0.0866 -0.998418,0.17791 -1.507146,0.27142 -0.508728,0.0935 -1.023053,0.18919 -1.540731,0.28443 -0.517677,0.0952 -1.038707,0.19005 -1.560843,0.28182 -0.522136,0.0918 -1.04538,0.18049 -1.567484,0.26356 -0.5445,0.0866 -1.087761,0.16714 -1.627237,0.23854 -0.539477,0.0714 -1.075168,0.1337 -1.604528,0.18395 -0.52936,0.0503 -1.052388,0.0884 -1.566538,0.11163 -0.51415,0.0232 -1.019421,0.0314 -1.513267,0.0216 -0.493847,-0.01 -0.976268,-0.0375 -1.444717,-0.0862 -0.468449,-0.0487 -0.922927,-0.11826 -1.360885,-0.21173 -0.437959,-0.0935 -0.859399,-0.21081 -1.261774,-0.35498 -0.402375,-0.14417 -0.785684,-0.31518 -1.147381,-0.51597 -0.361697,-0.20079 -0.709543,-0.43568 -1.0447,-0.70093 -0.335157,-0.26526 -0.657624,-0.56089 -0.968564,-0.88316 -0.31094,-0.32228 -0.610352,-0.6712 -0.899397,-1.04304 -0.289046,-0.37184 -0.567725,-0.7666 -0.8372,-1.18056 -0.269475,-0.41396 -0.529745,-0.84712 -0.781972,-1.29575 -0.252228,-0.44863 -0.496412,-0.91273 -0.733715,-1.38858 -0.237302,-0.47586 -0.467724,-0.96345 -0.692425,-1.45908 -0.224702,-0.49562 -0.443683,-0.99927 -0.658107,-1.50721 -0.205604,-0.48706 -0.407018,-0.97806 -0.605264,-1.46974 -0.198247,-0.49168 -0.393326,-0.98402 -0.586263,-1.47375 -0.192937,-0.48974 -0.383731,-0.97685 -0.573406,-1.45807 -0.189675,-0.48122 -0.378231,-0.95654 -0.566693,-1.42268 -0.188462,-0.46614 -0.376828,-0.9231 -0.566125,-1.36759 -0.189296,-0.44449 -0.379522,-0.87652 -0.571701,-1.2928 -0.192179,-0.41628 -0.386312,-0.81681 -0.583422,-1.19831 -0.197111,-0.3815 -0.397199,-0.74396 -0.601288,-1.08411 -0.204089,-0.34015 -0.429752,-0.68727 -0.673609,-1.04072 -0.243858,-0.35345 -0.50591,-0.71322 -0.782777,-1.07869 -0.276867,-0.36546 -0.56855,-0.73662 -0.871668,-1.11282 -0.303119,-0.3762 -0.617673,-0.75744 -0.940285,-1.14309 -0.322611,-0.38565 -0.65328,-0.7757 -0.988626,-1.16952 -0.335346,-0.39381 -0.675369,-0.79139 -1.016691,-1.19209 -0.341323,-0.4007 -0.683943,-0.80452 -1.024483,-1.21082 -0.3405395,-0.4063 -0.6789984,-0.81508 -1.0119973,-1.2257 C 8.8790395,260.01394 8.5376958,259.58371 8.2061234,259.15221 7.874551,258.72071 7.55275,258.28794 7.2445533,257.85462 6.9363567,257.42131 6.6417643,256.98745 6.3646092,256.55378 6.0874542,256.1201 5.8277364,255.68662 5.5892889,255.25404 5.3508413,254.82146 5.133664,254.3898 4.94159,253.95977 c -0.1920741,-0.43002 -0.359045,-0.85841 -0.4970798,-1.28442 -0.1380347,-0.42602 -0.2471333,-0.84967 -0.3234628,-1.27022 -0.076329,-0.42056 -0.1198898,-0.83802 -0.1268481,-1.25165 -0.00696,-0.41363 0.022536,-0.83232 0.084677,-1.2552 0.062141,-0.42289 0.1569283,-0.84996 0.2805558,-1.28038 0.1236275,-0.43042 0.2760952,-0.86418 0.4535967,-1.30042 0.1775015,-0.43624 0.3800368,-0.87497 0.6037996,-1.31532 0.2237628,-0.44035 0.4687532,-0.88233 0.7311648,-1.32508 0.2624116,-0.44275 0.5422443,-0.88627 0.835692,-1.32971 0.2934477,-0.44344 0.6005103,-0.88679 0.9173815,-1.32919 0.3168712,-0.44241 0.643551,-0.88388 0.9762331,-1.32355 0.3189994,-0.42159 0.6435174,-0.84152 0.9701984,-1.25904 0.3266808,-0.41753 0.6555248,-0.83264 0.9831768,-1.2446 0.327651,-0.41195 0.65411,-0.82074 0.97602,-1.22562 0.32191,-0.40487 0.639272,-0.80582 0.948729,-1.20211 0.309458,-0.39628 0.611011,-0.78789 0.901305,-1.17407 0.290293,-0.38618 0.569327,-0.76693 0.833745,-1.1415 0.264418,-0.37458 0.514221,-0.74296 0.746052,-1.10442 0.231831,-0.36145 0.445691,-0.71596 0.638224,-1.06278 0.192533,-0.34682 0.380316,-0.71581 0.564483,-1.10372 0.184168,-0.38791 0.364719,-0.79475 0.542788,-1.21725 0.178068,-0.42251 0.353655,-0.86069 0.527894,-1.3113 0.174239,-0.45061 0.347129,-0.91364 0.519805,-1.38586 0.172677,-0.47221 0.345139,-0.95361 0.51852,-1.44093 0.173382,-0.48733 0.347684,-0.98059 0.524039,-1.47653 0.176355,-0.49595 0.354764,-0.99457 0.536361,-1.49264 0.181597,-0.49807 0.366381,-0.99557 0.555487,-1.48927 0.197217,-0.51487 0.399135,-1.02559 0.607039,-1.52849 0.207904,-0.5029 0.421794,-0.99798 0.642957,-1.48154 0.221163,-0.48356 0.449599,-0.95562 0.686594,-1.41248 0.236995,-0.45686 0.482548,-0.89852 0.737947,-1.32131 0.255399,-0.42279 0.520642,-0.82671 0.797018,-1.20806 0.276375,-0.38135 0.563881,-0.74015 0.863805,-1.0727 0.299924,-0.33255 0.612266,-0.63885 0.938311,-0.91523 0.326045,-0.27638 0.665794,-0.52284 1.020533,-0.73568 0.354739,-0.21284 0.73208,-0.39664 1.129377,-0.55427 0.397298,-0.15763 0.814553,-0.28908 1.24912,-0.39722 0.434568,-0.10815 0.886447,-0.19298 1.352994,-0.25738 0.466547,-0.0644 0.947762,-0.10837 1.441,-0.13476 0.493238,-0.0264 0.998498,-0.0352 1.513137,-0.0293 0.514639,0.006 1.038656,0.0265 1.569406,0.0589 0.530751,0.0324 1.068235,0.0767 1.609807,0.12988 0.541573,0.0532 1.087234,0.11539 1.63434,0.18367 0.524604,0.0655 1.050535,0.13654 1.575463,0.21069 0.524927,0.0742 1.048851,0.15138 1.569439,0.22916 0.520588,0.0778 1.03784,0.1561 1.549426,0.23245 0.511585,0.0763 1.017503,0.15071 1.515422,0.22057 0.497919,0.0699 0.98784,0.1352 1.46743,0.19351 0.47959,0.0583 0.948849,0.10959 1.405446,0.15129 0.456598,0.0417 0.900533,0.0738 1.329474,0.0939 0.428942,0.02 0.84289,0.028 1.239512,0.0213 0.396622,-0.007 0.810068,-0.0285 1.238093,-0.063 0.428024,-0.0345 0.870627,-0.0815 1.325563,-0.13856 0.454936,-0.057 0.922206,-0.12407 1.399563,-0.19848 0.477357,-0.0744 0.964802,-0.1562 1.46009,-0.24276 0.495288,-0.0866 0.998418,-0.17791 1.507146,-0.27142 0.508728,-0.0935 1.023053,-0.18919 1.540731,-0.28443 0.517677,-0.0952 1.038707,-0.19005 1.560843,-0.28182 0.522136,-0.0918 1.04538,-0.18049 1.567484,-0.26356 0.5445,-0.0866 1.087761,-0.16714 1.627237,-0.23854 0.539477,-0.0714 1.075168,-0.1337 1.604528,-0.18395 0.52936,-0.0503 1.052388,-0.0885 1.566538,-0.11163 0.51415,-0.0232 1.019421,-0.0314 1.513267,-0.0216 0.493847,0.01 0.976268,0.0375 1.444717,0.0862 0.468449,0.0487 0.922927,0.11826 1.360885,0.21173 0.437959,0.0935 0.859399,0.21081 1.261774,0.35498 0.402375,0.14417 0.785684,0.31518 1.147381,0.51597 0.361697,0.20079 0.709543,0.43568 1.0447,0.70093 0.335157,0.26526 0.657625,0.56089 0.968564,0.88316 0.31094,0.32228 0.610352,0.6712 0.899397,1.04304 0.289046,0.37184 0.567726,0.7666 0.8372,1.18056 0.269475,0.41396 0.529745,0.84712 0.781973,1.29575 0.252227,0.44863 0.496411,0.91273 0.733714,1.38858 0.237303,0.47586 0.467724,0.96345 0.692426,1.45908 0.224701,0.49562 0.443683,0.99927 0.658106,1.50721 0.205605,0.48706 0.407018,0.97806 0.605265,1.46974 0.198246,0.49168 0.393326,0.98402 0.586262,1.47375 0.192937,0.48974 0.383731,0.97685 0.573406,1.45807 0.189675,0.48122 0.378232,0.95654 0.566693,1.42268 0.188462,0.46614 0.376829,0.9231 0.566125,1.36759 0.189297,0.44449 0.379522,0.87652 0.571702,1.2928 0.192179,0.41628 0.386311,0.81681 0.583422,1.19831 0.19711,0.3815 0.397198,0.74396 0.601287,1.08411 0.204089,0.34015 0.429752,0.68727 0.673609,1.04072 0.243858,0.35345 0.50591,0.71322 0.782777,1.07869 0.276867,0.36546 0.56855,0.73662 0.871668,1.11282 0.303119,0.3762 0.617674,0.75744 0.940285,1.14309 0.322612,0.38565 0.65328,0.7757 0.988626,1.16952 0.335346,0.39381 0.67537,0.79139 1.016692,1.19209 0.341322,0.4007 0.683943,0.80452 1.024482,1.21082 0.34054,0.4063 0.678999,0.81508 1.011998,1.2257 0.347282,0.42823 0.688626,0.85846 1.020198,1.28996 0.331573,0.4315 0.653374,0.86427 0.96157,1.29759 0.308197,0.43331 0.602789,0.86717 0.879944,1.30084 0.277155,0.43368 0.536873,0.86716 0.775321,1.29974 0.238447,0.43258 0.455624,0.86424 0.647698,1.29427 0.192075,0.43002 0.359045,0.85841 0.49708,1.28442 0.138035,0.42602 0.247133,0.84967 0.323463,1.27022 0.07633,0.42056 0.11989,0.83802 0.126848,1.25165 0.007,0.41363 -0.02254,0.83232 -0.08468,1.2552 -0.06214,0.42289 -0.156928,0.84996 -0.280556,1.28038 -0.123628,0.43042 -0.276095,0.86418 -0.453597,1.30042 -0.177501,0.43624 -0.380036,0.87497 -0.603799,1.31532 -0.223763,0.44035 -0.468754,0.88233 -0.731165,1.32508 -0.262412,0.44275 -0.542245,0.88627 -0.835692,1.32971 -0.293448,0.44344 -0.600511,0.88679 -0.917382,1.32919 -0.316871,0.44241 -0.643551,0.88388 -0.976233,1.32355 -0.318999,0.42159 -0.643517,0.84152 -0.970198,1.25904 -0.326681,0.41753 -0.655525,0.83264 -0.983177,1.2446 -0.327651,0.41195 -0.65411,0.82074 -0.97602,1.22562 -0.32191,0.40487 -0.639272,0.80582 -0.948729,1.20211 -0.309458,0.39628 -0.611011,0.78789 -0.901305,1.17407 -0.290293,0.38618 -0.569327,0.76693 -0.833745,1.1415 -0.264418,0.37458 -0.514221,0.74296 -0.746052,1.10442 -0.231831,0.36145 -0.445691,0.71596 -0.638224,1.06278 -0.192533,0.34682 -0.380316,0.71581 -0.564483,1.10372 -0.184168,0.38791 -0.364719,0.79475 -0.542788,1.21725 -0.178068,0.42251 -0.353655,0.86069 -0.527894,1.3113 -0.174239,0.45061 -0.347129,0.91364 -0.519805,1.38586 -0.172677,0.47221 -0.345139,0.95361 -0.51852,1.44093 -0.173382,0.48733 -0.347684,0.98059 -0.524039,1.47653 -0.176355,0.49595 -0.354764,0.99457 -0.536361,1.49264 -0.181597,0.49807 -0.366381,0.99557 -0.555487,1.48927 -0.197217,0.51487 -0.399135,1.02559 -0.607039,1.52849 -0.207904,0.5029 -0.421794,0.99798 -0.642957,1.48154 -0.221163,0.48356 -0.449599,0.95562 -0.686594,1.41248 -0.236995,0.45686 -0.482548,0.89852 -0.737947,1.32131 -0.255399,0.42279 -0.520642,0.82671 -0.797018,1.20806 -0.276375,0.38135 -0.563881,0.74015 -0.863805,1.0727 -0.299924,0.33255 -0.612266,0.63885 -0.938311,0.91523 -0.326045,0.27638 -0.665794,0.52284 -1.020533,0.73568 v 0 0 0 0 0 0 0 0"
       style="fill:none;fill-opacity:1;stroke:#94e600;stroke-width:0.93687749;stroke-miterlimit:4;stroke-dasharray:none;stroke-opacity:1"
       transform="matrix(1.0673131,0.01153491,-0.01153491,1.0673131,-0.60186472,-18.919702)"
       inkscape:connector-curvature="0"
       sodipodi:nodetypes="cssssssssssssssscssssssssssssssssssssssssssssssssssssssssssssssssssssssssssssssssssssssssssssssssssssssssssssssscsssssssssssssssssssssssssssssssssssssssssssssssssssssssssssssssssssssssssssssssccccccccc" />
  </g>
  <g
     style="display:inline"
     inkscape:label="SilkS.edge.Front"
     inkscape:groupmode="layer"
     id="g832"
     transform="translate(-0.27555853,-203.06347)">
    <path
       style="fill:none;fill-opacity:1;stroke:#945400;stroke-width:2.022995;stroke-miterlimit:4;stroke-dasharray:none;stroke-opacity:1"
       d="m 67.694488,205.22297 c -0.588995,0.0602 -1.178343,0.12753 -1.767998,0.20026 -0.589656,0.0727 -1.17962,0.15083 -1.769846,0.23249 -0.590226,0.0817 -1.180716,0.16689 -1.771422,0.25386 -0.590707,0.087 -1.181631,0.1757 -1.772728,0.26437 -0.591096,0.0887 -1.182365,0.17727 -1.773762,0.26401 -0.591396,0.0867 -1.18292,0.1716 -1.774526,0.25279 -0.591605,0.0812 -1.183293,0.1587 -1.775018,0.23071 -0.591725,0.072 -1.183487,0.13854 -1.775241,0.19777 -0.591753,0.0592 -1.183499,0.11114 -1.775191,0.15395 -0.591692,0.0428 -1.183331,0.0765 -1.774871,0.0993 -0.59154,0.0228 -1.182982,0.0346 -1.77428,0.0337 -0.591299,-8.8e-4 -1.182453,-0.0145 -1.773419,-0.0426 -0.590966,-0.0282 -1.181743,-0.0708 -1.772286,-0.1299 -0.590543,-0.0591 -1.180852,-0.13446 -1.770882,-0.22803 -0.59003,-0.0936 -1.179781,-0.2053 -1.769208,-0.33701 -0.589426,-0.13171 -1.178529,-0.28339 -1.767262,-0.45686 -0.394438,-0.0828 -0.798898,-0.16279 -1.211189,-0.23819 -0.41229,-0.0754 -0.832411,-0.1462 -1.25817,-0.21049 -0.425758,-0.0643 -0.857155,-0.12209 -1.291998,-0.17151 -0.434843,-0.0494 -0.873131,-0.0905 -1.312673,-0.12127 -0.439542,-0.0308 -0.880337,-0.0513 -1.320194,-0.0597 -0.439857,-0.008 -0.878775,-0.005 -1.314562,0.013 -0.435787,0.0177 -0.868444,0.0495 -1.295777,0.0971 -0.427333,0.0476 -0.849343,0.11114 -1.263837,0.19243 -0.414495,0.0813 -0.821474,0.18033 -1.218745,0.29903 -0.397272,0.11869 -0.784836,0.25704 -1.160499,0.4169 -0.375664,0.15986 -0.739428,0.34125 -1.0891,0.54604 -0.349672,0.20479 -0.685252,0.43298 -1.004547,0.68645 -0.319296,0.25348 -0.622307,0.53223 -0.906841,0.83814 -0.284534,0.30591 -0.550592,0.63898 -0.795981,1.00108 -0.245389,0.36211 -0.470109,0.75325 -0.671968,1.17531 -0.201859,0.42206 -0.380857,0.87503 -0.534802,1.3608 -0.222691,0.53181 -0.441325,1.06638 -0.657221,1.60292 -0.215895,0.53654 -0.429051,1.07504 -0.640785,1.6147 -0.211735,0.53965 -0.422048,1.08046 -0.632256,1.62162 -0.210208,0.54116 -0.420312,1.08267 -0.63163,1.62371 -0.211317,0.54105 -0.423847,1.08164 -0.638908,1.62096 -0.215061,0.53932 -0.432653,1.07737 -0.654092,1.61335 -0.22144,0.53598 -0.446727,1.06988 -0.67718,1.60091 -0.230453,0.53102 -0.466071,1.05916 -0.708172,1.58361 -0.242101,0.52445 -0.490685,1.04521 -0.747069,1.56148 -0.256385,0.51626 -0.520569,1.02803 -0.793871,1.5345 -0.273302,0.50646 -0.555722,1.00762 -0.848576,1.50267 -0.292855,0.49505 -0.596145,0.98399 -0.911187,1.46601 -0.315043,0.48202 -0.641838,0.95712 -0.981702,1.42449 -0.339865,0.46738 -0.6928,0.92703 -1.060122,1.37814 -0.367322,0.45112 -0.749031,0.8937 -1.1464458,1.32694 -0.3974142,0.43324 -0.8105331,0.85714 -1.2406742,1.27089 -0.2718438,0.30474 -0.5458877,0.61906 -0.8194542,0.94204 -0.2735665,0.32298 -0.5466556,0.65462 -0.81659,0.99398 -0.2699343,0.33937 -0.5367139,0.68646 -0.7976613,1.04034 -0.2609473,0.35389 -0.5160625,0.71457 -0.7626681,1.08112 -0.2466055,0.36656 -0.4847015,0.73897 -0.7116104,1.11633 -0.2269089,0.37736 -0.4426308,0.75966 -0.6444882,1.14596 -0.2018574,0.3863 -0.3898504,0.77662 -0.5613016,1.17001 -0.1714511,0.39339 -0.3263604,0.78986 -0.4620504,1.18849 -0.13569,0.39862 -0.2521607,0.79939 -0.3467348,1.20138 -0.094574,0.40199 -0.1672514,0.80521 -0.2153546,1.20871 -0.048103,0.4035 -0.071632,0.8073 -0.06791,1.21045 0.00372,0.40316 0.034696,0.80568 0.095599,1.20663 0.060903,0.40094 0.1517346,0.80033 0.2751727,1.19721 0.1234381,0.39688 0.2794825,0.79127 0.4708107,1.18223 0.1913283,0.39096 0.4179402,0.77849 0.6825134,1.16167 0.2645731,0.38318 0.5671075,0.762 0.9102804,1.13553 0.3583315,0.45853 0.7206928,0.91647 1.0857518,1.37442 0.365059,0.45795 0.7328157,0.91591 1.1019381,1.37447 0.3691224,0.45856 0.7396104,0.91771 1.110132,1.37806 0.3705216,0.46034 0.7410767,0.92187 1.1103334,1.38518 0.3692567,0.4633 0.7372151,0.92838 1.1025431,1.39583 0.365327,0.46745 0.728024,0.93727 1.086759,1.41004 0.358734,0.47277 0.713506,0.9485 1.062983,1.42777 0.349477,0.47927 0.69366,0.96209 1.031215,1.44904 0.337556,0.48695 0.668485,0.97804 0.991455,1.47385 0.32297,0.49581 0.637981,0.99635 0.943701,1.5022 0.30572,0.50585 0.60215,1.01701 0.887956,1.53408 0.285807,0.51707 0.56099,1.04004 0.824218,1.5695 0.263229,0.52947 0.514502,1.06543 0.752488,1.60846 0.237986,0.54304 0.462686,1.09317 0.672765,1.65096 0.21008,0.5578 0.405541,1.12326 0.58505,1.69699 0.17951,0.57373 0.343068,1.15572 0.489343,1.74656 0.117882,0.3813 0.244879,0.76743 0.381232,1.1559 0.136354,0.38847 0.282065,0.77928 0.437373,1.16993 0.155308,0.39065 0.320215,0.78113 0.494961,1.16895 0.174747,0.38783 0.359333,0.77299 0.554,1.15298 0.194667,0.38 0.399415,0.75484 0.614485,1.12201 0.215071,0.36718 0.440464,0.72669 0.676422,1.07604 0.235957,0.34935 0.482479,0.68853 0.739805,1.01506 0.257327,0.32653 0.52546,0.64039 0.804639,0.93909 0.27918,0.2987 0.569407,0.58224 0.870922,0.84812 0.301515,0.26587 0.614318,0.51409 0.938652,0.74214 0.324333,0.22806 0.660197,0.43595 1.007832,0.62118 0.347635,0.18523 0.707041,0.34779 1.078461,0.4852 0.371419,0.13741 0.754851,0.24965 1.150538,0.33423 0.395687,0.0846 0.803628,0.1415 1.224065,0.16826 0.420437,0.0268 0.85337,0.0234 1.29904,-0.0127 0.445671,-0.0361 0.904078,-0.10479 1.375465,-0.20868 0.571271,-0.0743 1.143111,-0.15329 1.715451,-0.23549 0.572339,-0.0822 1.145178,-0.16759 1.718447,-0.25467 0.57327,-0.0871 1.146969,-0.17581 1.72103,-0.26471 0.574062,-0.0889 1.148484,-0.17795 1.723199,-0.26563 0.574715,-0.0877 1.149722,-0.17398 1.724953,-0.25739 0.575231,-0.0834 1.150685,-0.16393 1.726293,-0.24003 0.575608,-0.0761 1.151371,-0.14779 1.727219,-0.21353 0.575848,-0.0657 1.151782,-0.12555 1.727731,-0.17789 0.57595,-0.0523 1.151916,-0.0972 1.72783,-0.13311 0.575913,-0.0359 1.151774,-0.0628 1.727513,-0.0792 0.575739,-0.0164 1.151356,-0.0223 1.726782,-0.0162 0.575427,0.006 1.150663,0.0243 1.725639,0.056 0.574976,0.0317 1.149692,0.077 1.72408,0.13737 0.574387,0.0603 1.148446,0.13579 1.722107,0.22782 0.573661,0.092 1.146924,0.20067 1.71972,0.32742 0.572797,0.12676 1.145126,0.27164 1.71692,0.43616 0.394461,0.083 0.798927,0.16334 1.211208,0.23905 0.41228,0.0757 0.832377,0.14682 1.2581,0.21144 0.425723,0.0646 0.857073,0.12275 1.291862,0.17251 0.434788,0.0498 0.873015,0.0911 1.312492,0.12227 0.439476,0.0311 0.880203,0.052 1.319991,0.0607 0.439788,0.009 0.878637,0.005 1.314359,-0.0122 0.435722,-0.0175 0.868317,-0.0489 1.295596,-0.0964 0.427279,-0.0474 0.849243,-0.11073 1.263702,-0.19186 0.414459,-0.0811 0.821414,-0.18006 1.218676,-0.29868 0.397262,-0.11862 0.784832,-0.25692 1.16052,-0.4168 0.375688,-0.15988 0.739495,-0.34134 1.089232,-0.54626 0.349737,-0.20491 0.685404,-0.43329 1.004813,-0.68701 0.319409,-0.25372 0.622559,-0.53279 0.907263,-0.83909 0.284704,-0.3063 0.550961,-0.63983 0.796582,-1.00248 0.245622,-0.36264 0.470608,-0.75441 0.67277,-1.17718 0.202162,-0.42277 0.3815,-0.87654 0.535826,-1.3632 0.222466,-0.53189 0.440903,-1.06654 0.656625,-1.60314 0.215723,-0.5366 0.42873,-1.07515 0.640338,-1.61485 0.211607,-0.53969 0.421814,-1.08053 0.631935,-1.62171 0.210121,-0.54118 0.420156,-1.08269 0.631419,-1.62374 0.211264,-0.54105 0.423756,-1.08163 0.638791,-1.62094 0.215035,-0.53931 0.432612,-1.07735 0.654047,-1.61331 0.221435,-0.53595 0.446728,-1.06983 0.677192,-1.60083 0.230464,-0.53099 0.466099,-1.0591 0.708221,-1.58352 0.242122,-0.52442 0.490729,-1.04515 0.747138,-1.56138 0.256408,-0.51623 0.520617,-1.02797 0.79394,-1.5344 0.273324,-0.50643 0.555762,-1.00756 0.84863,-1.50259 0.292867,-0.49502 0.596164,-0.98394 0.911205,-1.46594 0.31504,-0.482 0.641824,-0.95709 0.981667,-1.42446 0.339842,-0.46736 0.692742,-0.92701 1.060015,-1.37814 0.367273,-0.45112 0.748918,-0.89372 1.14625,-1.32698 0.397332,-0.43327 0.810351,-0.8572 1.240371,-1.271 0.26957,-0.30389 0.541693,-0.6173 0.813659,-0.93931 0.271967,-0.32202 0.543778,-0.65263 0.812723,-0.99092 0.268946,-0.3383 0.535025,-0.68427 0.79553,-1.03701 0.260505,-0.35275 0.515435,-0.71225 0.762081,-1.07761 0.246645,-0.36535 0.485007,-0.73655 0.712374,-1.11268 0.227368,-0.37613 0.443742,-0.75719 0.646413,-1.14226 0.202671,-0.38507 0.391639,-0.77415 0.564195,-1.16632 0.172555,-0.39218 0.328698,-0.78745 0.465719,-1.18489 0.137022,-0.39745 0.254921,-0.79707 0.350989,-1.19794 0.09607,-0.40088 0.170306,-0.80302 0.220002,-1.20549 0.0497,-0.40248 0.07485,-0.80529 0.07276,-1.20753 -0.0021,-0.40224 -0.03144,-0.8039 -0.09074,-1.20407 -0.0593,-0.40016 -0.148567,-0.79883 -0.270498,-1.19509 -0.121932,-0.39625 -0.276533,-0.7901 -0.466511,-1.18061 -0.189979,-0.39051 -0.415336,-0.77769 -0.67878,-1.16062 -0.263444,-0.38293 -0.564976,-0.76161 -0.907305,-1.13513 -0.349068,-0.46041 -0.702755,-0.91855 -1.059679,-1.37517 -0.356924,-0.45663 -0.717085,-0.91174 -1.079102,-1.36609 -0.362018,-0.45435 -0.725891,-0.90794 -1.09024,-1.36152 -0.364348,-0.45358 -0.729172,-0.90716 -1.093089,-1.36148 -0.363917,-0.45432 -0.726928,-0.90938 -1.087652,-1.36595 -0.360724,-0.45656 -0.719161,-0.91462 -1.073929,-1.37494 -0.354768,-0.46031 -0.705867,-0.92288 -1.051917,-1.38845 -0.34605,-0.46557 -0.68705,-0.93415 -1.02162,-1.40648 -0.334569,-0.47233 -0.662708,-0.94843 -0.983034,-1.42903 -0.320327,-0.4806 -0.632842,-0.96572 -0.936163,-1.4561 -0.303322,-0.49038 -0.59745,-0.98602 -0.881005,-1.48769 -0.283554,-0.50166 -0.556534,-1.00934 -0.817558,-1.52379 -0.261024,-0.51445 -0.510093,-1.03567 -0.745826,-1.56442 -0.235732,-0.52874 -0.458128,-1.06501 -0.665806,-1.60956 -0.207678,-0.54455 -0.400638,-1.09737 -0.577499,-1.65923 -0.176861,-0.56185 -0.337624,-1.13274 -0.480906,-1.71341 -0.14015,-0.3689 -0.283041,-0.7451 -0.429714,-1.12593 -0.146673,-0.38083 -0.297127,-0.76629 -0.452401,-1.15371 -0.155274,-0.38743 -0.315369,-0.77682 -0.481323,-1.16552 -0.165954,-0.38869 -0.337767,-0.77668 -0.51648,-1.16131 -0.178712,-0.38463 -0.364323,-0.76589 -0.557872,-1.14112 -0.193549,-0.37523 -0.395037,-0.74443 -0.605501,-1.10492 -0.210465,-0.3605 -0.429906,-0.71231 -0.659364,-1.05274 -0.229459,-0.34044 -0.468933,-0.66952 -0.719464,-0.98456 -0.25053,-0.31505 -0.512116,-0.61606 -0.785797,-0.90038 -0.273681,-0.28432 -0.559457,-0.55194 -0.858367,-0.8002 -0.298911,-0.24827 -0.610955,-0.47717 -0.937173,-0.68404 -0.326218,-0.20687 -0.666609,-0.39172 -1.022213,-0.55187 -0.355604,-0.16015 -0.72642,-0.29561 -1.113489,-0.4037 -0.387068,-0.1081 -0.790389,-0.18884 -1.211,-0.23955 -0.420611,-0.0507 -0.858514,-0.0714 -1.314747,-0.0594 -0.456233,0.012 -0.930796,0.0567 -1.424729,0.13675 z"
       id="path830"
       inkscape:connector-curvature="0"
       sodipodi:nodetypes="cssssssssssssssscssssssssssssssscssssssssssssssscssssssssssssssscssssssssssssssscssssssssssssssscssssssssssssssscssssssssssssssscssssssssssssssscssssssssssssssscssssssssssssssscsssssssssssssssc" />
  </g>
  <g
     transform="translate(-0.27555853,-203.06347)"
     id="g838"
     inkscape:groupmode="layer"
     inkscape:label="SilkS.edge.Back"
     style="display:inline">
    <path
       sodipodi:nodetypes="cssssssssssssssscssssssssssssssscssssssssssssssscssssssssssssssscssssssssssssssscssssssssssssssscssssssssssssssscssssssssssssssscssssssssssssssscssssssssssssssscssssssssssssssscsssssssssssssssc"
       inkscape:connector-curvature="0"
       id="path836"
       d="m 31.842475,205.59687 c 0.590045,0.0488 1.18058,0.10478 1.771524,0.16621 0.590945,0.0613 1.182303,0.1281 1.773992,0.19839 0.591688,0.0703 1.183708,0.14414 1.775977,0.21974 0.592272,0.0756 1.184793,0.15293 1.777487,0.23021 0.592693,0.0773 1.185556,0.15449 1.778512,0.22984 0.592956,0.0753 1.186003,0.14881 1.779061,0.2186 0.593059,0.0698 1.186128,0.13591 1.779128,0.19652 0.593001,0.0606 1.185934,0.11575 1.778718,0.16358 0.592782,0.0479 1.185419,0.0883 1.777824,0.11977 0.592406,0.0315 1.184585,0.0537 1.776453,0.0652 0.591869,0.0114 1.183429,0.0119 1.7746,-4.6e-4 0.591173,-0.0122 1.181956,-0.0372 1.772271,-0.0767 0.590314,-0.0396 1.180163,-0.0935 1.769459,-0.16397 0.589297,-0.0705 1.178046,-0.15716 1.766168,-0.26206 0.588119,-0.10494 1.175612,-0.22796 1.762396,-0.37099 0.586783,-0.14302 1.172859,-0.30601 1.758146,-0.49077 0.392771,-0.0904 0.795617,-0.17813 1.206382,-0.26145 0.410763,-0.0833 0.829444,-0.16219 1.253887,-0.23466 0.424443,-0.0725 0.854648,-0.13855 1.288459,-0.19633 0.433813,-0.0578 0.871229,-0.10728 1.310097,-0.1465 0.438868,-0.0392 0.879188,-0.0683 1.318802,-0.0851 0.439621,-0.0164 0.878516,-0.0219 1.314569,-0.0123 0.436046,0.01 0.869236,0.0328 1.297405,0.0722 0.42817,0.0394 0.851324,0.0948 1.267305,0.16808 0.415983,0.0733 0.824792,0.16449 1.224272,0.27553 0.399483,0.11102 0.789637,0.24189 1.168306,0.39449 0.37867,0.1526 0.745856,0.32697 1.099403,0.52499 0.353548,0.19802 0.693456,0.41972 1.017568,0.66699 0.324113,0.24729 0.632431,0.52017 0.922797,0.82054 0.290368,0.30038 0.562784,0.62827 0.815094,0.98558 0.25231,0.35733 0.484514,0.74407 0.694456,1.16217 0.209941,0.4181 0.397621,0.86754 0.560883,1.35026 0.232881,0.52743 0.46176,1.05769 0.687937,1.58998 0.226178,0.53228 0.449655,1.06658 0.671732,1.60207 0.222079,0.53548 0.442757,1.07214 0.663338,1.60915 0.22058,0.53703 0.441063,1.07439 0.66275,1.61126 0.221688,0.53689 0.444579,1.07329 0.669976,1.60837 0.225397,0.53509 0.4533,1.06885 0.68501,1.60047 0.231711,0.53162 0.467228,1.06108 0.707855,1.58758 0.240626,0.5265 0.486361,1.05 0.738507,1.5697 0.252146,0.51969 0.510703,1.03557 0.776972,1.54682 0.26627,0.51123 0.540251,1.01782 0.823247,1.51893 0.282995,0.50111 0.575004,0.99675 0.877328,1.48607 0.302325,0.48933 0.614965,0.97234 0.939222,1.44821 0.324259,0.47587 0.660134,0.94459 1.008927,1.40534 0.348794,0.46076 0.710506,0.91353 1.086439,1.35749 0.375934,0.44397 0.766086,0.87913 1.171763,1.30464 0.405675,0.42551 0.826874,0.84138 1.264894,1.24678 0.277658,0.29946 0.557697,0.60844 0.837427,0.92611 0.279729,0.31766 0.559149,0.64398 0.835562,0.97808 0.276414,0.33411 0.549822,0.67601 0.817528,1.0248 0.267708,0.3488 0.529715,0.70451 0.783327,1.06625 0.253613,0.36175 0.498829,0.72951 0.732956,1.10243 0.234128,0.37292 0.457164,0.75101 0.666416,1.13336 0.209251,0.38233 0.404719,0.76897 0.583707,1.15899 0.178988,0.39002 0.341496,0.78343 0.48483,1.17937 0.143334,0.39594 0.267494,0.7944 0.369785,1.19449 0.102286,0.4001 0.182711,0.80185 0.238568,1.20435 0.05586,0.40249 0.08715,0.80577 0.09119,1.20891 0.004,0.40316 -0.01919,0.8062 -0.07237,1.20825 -0.05317,0.40204 -0.136308,0.8031 -0.252089,1.20228 -0.115779,0.39918 -0.264207,0.7965 -0.447979,1.19107 -0.18377,0.39458 -0.402885,0.78639 -0.660037,1.17459 -0.257152,0.3882 -0.552343,0.77277 -0.888265,1.15284 -0.349444,0.46533 -0.702928,0.93016 -1.05911,1.39505 -0.35618,0.46488 -0.715058,0.92984 -1.075291,1.39541 -0.360231,0.46558 -0.721816,0.93177 -1.083413,1.39916 -0.361597,0.46738 -0.723204,0.93596 -1.083479,1.40629 -0.360275,0.47032 -0.719217,0.94239 -1.075484,1.41678 -0.356266,0.47439 -0.709857,0.95111 -1.05943,1.43069 -0.349572,0.47958 -0.695126,0.96205 -1.035318,1.44796 -0.340191,0.48591 -0.675022,0.97525 -1.003146,1.46861 -0.328126,0.49335 -0.649545,0.99072 -0.962917,1.49265 -0.313371,0.50193 -0.618694,1.00844 -0.914625,1.52008 -0.295932,0.51163 -0.582473,1.0284 -0.858278,1.55087 -0.275806,0.52248 -0.540877,1.05065 -0.79387,1.58507 -0.252994,0.53444 -0.493909,1.07513 -0.721404,1.62264 -0.227494,0.54752 -0.441568,1.10187 -0.640877,1.6636 -0.19931,0.56174 -0.383856,1.13085 -0.552294,1.70793 -0.168439,0.57708 -0.32077,1.16211 -0.45565,1.75565 -0.110525,0.3835 -0.230069,0.772 -0.358924,1.16302 -0.128855,0.39103 -0.26702,0.78457 -0.414784,1.17813 -0.147763,0.39357 -0.305128,0.78715 -0.47238,1.17826 -0.167253,0.39112 -0.344394,0.77976 -0.531715,1.16342 -0.187321,0.38368 -0.384819,0.76239 -0.592785,1.13362 -0.207967,0.37126 -0.426401,0.73503 -0.655595,1.08886 -0.229192,0.35382 -0.469143,0.69769 -0.720139,1.0291 -0.250998,0.33143 -0.513042,0.65038 -0.786424,0.95441 -0.273381,0.30401 -0.558099,0.59308 -0.854443,0.86471 -0.296344,0.27162 -0.604314,0.52582 -0.9242,0.76007 -0.319886,0.23425 -0.651688,0.44857 -0.995695,0.64045 -0.344007,0.19188 -0.70022,0.36132 -1.068927,0.50585 -0.368707,0.14454 -0.749908,0.26413 -1.143895,0.35631 -0.393986,0.0922 -0.800756,0.15693 -1.220601,0.19177 -0.419844,0.0349 -0.852762,0.0398 -1.299045,0.0123 -0.446282,-0.0275 -0.905926,-0.0874 -1.379224,-0.18218 -0.572595,-0.0633 -1.145849,-0.13127 -1.719665,-0.20244 -0.573814,-0.0711 -1.14819,-0.14553 -1.723028,-0.22156 -0.574839,-0.076 -1.150139,-0.15372 -1.725804,-0.23155 -0.575666,-0.0779 -1.151695,-0.15583 -1.72799,-0.23243 -0.576296,-0.0767 -1.152857,-0.15183 -1.729586,-0.22416 -0.576729,-0.0724 -1.153626,-0.14176 -1.730591,-0.20677 -0.576967,-0.065 -1.154002,-0.12561 -1.731008,-0.18026 -0.577006,-0.0546 -1.153985,-0.10333 -1.730834,-0.14462 -0.57685,-0.0412 -1.153572,-0.075 -1.730071,-0.0999 -0.576496,-0.0249 -1.152769,-0.0406 -1.728716,-0.046 -0.575948,-0.005 -1.151575,2.9e-4 -1.726774,0.017 -0.575205,0.017 -1.149983,0.0464 -1.724243,0.0892 -0.574259,0.0428 -1.147997,0.0991 -1.721118,0.17052 -0.573121,0.0714 -1.14562,0.15785 -1.717405,0.2609 -0.571785,0.10302 -1.142851,0.22271 -1.713102,0.36045 -0.570253,0.13775 -1.139688,0.29362 -1.708211,0.46911 -0.392791,0.0906 -0.795637,0.17868 -1.206385,0.26231 -0.410747,0.0836 -0.829399,0.1628 -1.253799,0.23561 -0.424401,0.0727 -0.854553,0.13921 -1.288304,0.19732 -0.433749,0.0582 -0.871102,0.10789 -1.309897,0.1475 -0.438797,0.0396 -0.879039,0.0689 -1.318579,0.0861 -0.439533,0.0174 -0.878379,0.0219 -1.314351,0.013 -0.435975,-0.01 -0.869097,-0.0322 -1.29721,-0.0715 -0.428112,-0.0392 -0.851217,-0.0944 -1.267159,-0.16751 -0.415943,-0.0731 -0.824726,-0.16423 -1.224197,-0.27518 -0.39947,-0.11096 -0.78963,-0.24178 -1.168324,-0.3944 -0.378695,-0.15262 -0.745925,-0.32705 -1.09954,-0.5252 -0.353615,-0.19815 -0.693613,-0.42002 -1.017844,-0.66755 -0.324231,-0.24753 -0.632694,-0.52071 -0.923238,-0.82148 -0.290544,-0.30077 -0.563169,-0.62911 -0.815722,-0.98697 -0.252553,-0.35785 -0.485035,-0.74521 -0.695293,-1.16401 -0.210259,-0.41881 -0.398293,-0.86905 -0.561953,-1.35265 -0.232658,-0.52751 -0.461341,-1.05786 -0.687346,-1.5902 -0.226007,-0.53236 -0.449336,-1.06671 -0.671287,-1.60224 -0.221951,-0.53552 -0.442525,-1.07221 -0.663019,-1.60926 -0.220494,-0.53703 -0.440908,-1.07439 -0.66254,-1.61128 -0.221635,-0.53688 -0.444488,-1.07328 -0.669858,-1.60836 -0.225372,-0.53507 -0.45326,-1.06883 -0.684965,-1.60042 -0.231705,-0.53159 -0.467228,-1.06104 -0.707864,-1.58751 -0.240638,-0.52646 -0.48639,-1.04993 -0.738556,-1.5696 -0.252167,-0.51967 -0.510746,-1.03551 -0.777039,-1.54671 -0.266292,-0.5112 -0.540298,-1.01777 -0.823313,-1.51885 -0.283017,-0.50107 -0.575043,-0.99668 -0.877382,-1.48599 -0.302336,-0.48929 -0.614982,-0.97228 -0.939239,-1.44813 -0.324255,-0.47585 -0.660118,-0.94457 -1.00889,-1.40531 -0.34877,-0.46074 -0.710449,-0.91351 -1.086332,-1.35749 -0.375884,-0.44397 -0.765975,-0.87915 -1.171569,-1.30468 -0.4055894,-0.42545 -0.826688,-0.84135 -1.2645895,-1.2468 -0.2753666,-0.29865 -0.5534689,-0.60677 -0.8315797,-0.92349 -0.2781119,-0.31672 -0.5562332,-0.64205 -0.8316367,-0.9751 -0.2754048,-0.33306 -0.5480906,-0.67384 -0.8153338,-1.02151 -0.2672432,-0.34767 -0.5290424,-0.7022 -0.7826719,-1.06275 -0.2536283,-0.36053 -0.4990877,-0.72708 -0.7336489,-1.09877 -0.2345622,-0.37169 -0.4582273,-0.74852 -0.6682693,-1.12961 -0.2100417,-0.3811 -0.4064602,-0.76647 -0.5865292,-1.15525 -0.1800682,-0.38879 -0.3437869,-0.78098 -0.4884288,-1.17571 -0.1446431,-0.39474 -0.2702086,-0.79202 -0.373971,-1.19097 -0.1037648,-0.39895 -0.1857238,-0.7996 -0.2431537,-1.20103 -0.057434,-0.40145 -0.09033,-0.8037 -0.095978,-1.20591 -0.00564,-0.40221 0.015968,-0.80436 0.067559,-1.20559 0.05159,-0.40123 0.1331708,-0.80154 0.2474556,-1.20007 0.114286,-0.39852 0.2612812,-0.79527 0.443711,-1.18937 0.1824309,-0.39409 0.4002972,-0.78554 0.6563253,-1.17346 0.2560282,-0.38794 0.5502189,-0.77234 0.8852985,-1.15238 0.3401455,-0.46704 0.684953,-0.9319 1.0330261,-1.3953 0.3480729,-0.46341 0.6994114,-0.92537 1.0526201,-1.3866 0.3532099,-0.46123 0.708289,-0.92174 1.0638441,-1.38225 0.3555542,-0.4605 0.7115843,-0.92102 1.0666933,-1.38225 0.355109,-0.46124 0.709298,-0.9232 1.0611705,-1.38662 0.351873,-0.46342 0.701431,-0.92829 1.047278,-1.39535 0.345846,-0.46706 0.687981,-0.93629 1.02501,-1.40843 0.337028,-0.47215 0.668951,-0.9472 0.994372,-1.42587 0.325419,-0.47868 0.644339,-0.96101 0.955358,-1.44768 0.311022,-0.48667 0.614146,-0.97772 0.907976,-1.47384 0.293832,-0.49613 0.57837,-0.99734 0.852221,-1.50437 0.27385,-0.50702 0.537012,-1.01986 0.788091,-1.53923 0.251078,-0.51938 0.490073,-1.0453 0.71559,-1.57849 0.225516,-0.53317 0.437554,-1.07362 0.634717,-1.62207 0.197162,-0.54844 0.379451,-1.10488 0.54547,-1.67003 0.166018,-0.56515 0.315769,-1.13903 0.447852,-1.72235 0.133028,-0.37153 0.268654,-0.7504 0.407973,-1.13399 0.13932,-0.38357 0.28233,-0.77186 0.430122,-1.16219 0.147791,-0.39035 0.300365,-0.78274 0.45881,-1.17457 0.158445,-0.39181 0.322762,-0.78303 0.494042,-1.17103 0.17128,-0.388 0.349521,-0.77275 0.535815,-1.15164 0.186295,-0.37889 0.380642,-0.75189 0.584132,-1.11637 0.20349,-0.36448 0.416122,-0.72045 0.638989,-1.06522 0.222866,-0.3448 0.455964,-0.67843 0.700388,-0.99823 0.244422,-0.31981 0.500169,-0.62579 0.76833,-0.91533 0.26816,-0.28953 0.548734,-0.5626 0.842812,-0.81657 0.294079,-0.25397 0.601662,-0.48883 0.92384,-0.70194 0.322177,-0.2131 0.658949,-0.40447 1.011406,-0.57143 0.352457,-0.16696 0.720599,-0.30954 1.105516,-0.42505 0.384917,-0.11552 0.78661,-0.20401 1.206167,-0.2628 0.419558,-0.0588 0.856982,-0.0879 1.313361,-0.0847 0.45638,0.003 0.931715,0.0388 1.427096,0.10932 z"
       style="fill:none;fill-opacity:1;stroke:#945400;stroke-width:2.022995;stroke-miterlimit:4;stroke-dasharray:none;stroke-opacity:1" />
  </g>
  <g
     inkscape:groupmode="layer"
     id="layer1"
     inkscape:label="Star"
     style="display:inline">
    <path
       sodipodi:nodetypes="cssssssssssssssscccccccccccccccccccccccccccccccccssssssssssssssscccccccccccccccccccccccccccccccccssssssssssssssscssssssssssssssscssssssssssssssssssssssssssssssscssssssssssssssscssssssssssssssssssssssssssssssscssssssssssssssscssssssssssssssscssssssssssssssscccccccccccccccccccccccccccccccccsssssssssssssssccccccccccccccccccccccccccccccccc"
       id="path2"
       d="m 36.445973,31.344131 c 0.0045,0.0064 0.01638,0.02426 0.03539,0.05314 0.01901,0.02888 0.0451,0.06873 0.07791,0.118975 0.03281,0.05024 0.07233,0.110876 0.118183,0.181321 0.04585,0.07044 0.09804,0.150698 0.156192,0.240182 0.05815,0.08948 0.122255,0.188198 0.191943,0.295561 0.06969,0.107362 0.144959,0.223373 0.225435,0.347453 0.08048,0.124079 0.166157,0.256227 0.256667,0.395862 0.09051,0.139635 0.185849,0.286757 0.285641,0.440786 0.09979,0.154028 0.204035,0.314964 0.312355,0.482225 0.108319,0.167261 0.220715,0.340849 0.33681,0.520181 0.116095,0.179332 0.235889,0.36441 0.359006,0.554651 0.123117,0.190242 0.249557,0.385648 0.378944,0.585638 0.129386,0.19999 0.261719,0.404563 0.396621,0.613139 0.134902,0.208576 0.272375,0.421156 0.41204,0.637157 0.139666,0.216001 0.281525,0.435424 0.4252,0.657689 0.143676,0.222265 0.289168,0.447371 0.436101,0.674738 l 0.267177,0.41342 0.267177,0.413421 0.267178,0.41342 0.267177,0.41342 0.267177,0.413421 0.267177,0.41342 0.267177,0.41342 0.267177,0.41342 0.267178,0.413421 0.267177,0.41342 0.267177,0.41342 0.267177,0.413421 0.267177,0.41342 0.267178,0.41342 0.267177,0.413421 0.267177,0.41342 -0.267177,0.41342 -0.267177,0.413421 -0.267178,0.41342 -0.267177,0.41342 -0.267177,0.413421 -0.267177,0.41342 -0.267177,0.41342 -0.267178,0.41342 -0.267177,0.413421 -0.267177,0.41342 -0.267177,0.41342 -0.267177,0.413421 -0.267177,0.41342 -0.267178,0.41342 -0.267177,0.413421 -0.267177,0.41342 c -0.146933,0.227392 -0.292425,0.452523 -0.436101,0.674813 -0.143675,0.22229 -0.285534,0.441739 -0.4252,0.657765 -0.139665,0.216026 -0.277138,0.428629 -0.41204,0.637229 -0.134902,0.2086 -0.267235,0.413197 -0.396621,0.613209 -0.129386,0.200012 -0.255826,0.39544 -0.378944,0.585703 -0.123117,0.190262 -0.242911,0.375359 -0.359006,0.55471 -0.116095,0.179351 -0.22849,0.352955 -0.33681,0.520232 -0.10832,0.167278 -0.212563,0.328228 -0.312355,0.482269 -0.09979,0.154042 -0.19513,0.301175 -0.28564,0.440819 -0.09051,0.139644 -0.176192,0.271799 -0.256667,0.395884 -0.08048,0.124085 -0.155747,0.240099 -0.225435,0.347462 -0.06969,0.107364 -0.133795,0.206076 -0.191943,0.295556 -0.05815,0.08948 -0.110338,0.169728 -0.156193,0.240163 -0.04585,0.07043 -0.08537,0.131056 -0.118182,0.181284 -0.03281,0.05023 -0.05891,0.09006 -0.07791,0.118919 -0.01901,0.02886 -0.03093,0.04674 -0.03539,0.05307 l -0.0081,0.01152 -0.0081,0.01152 -0.0081,0.01152 -0.0081,0.01152 -0.0081,0.01152 -0.0081,0.01152 -0.0081,0.01152 -0.0081,0.01152 -0.0081,0.01152 -0.0081,0.01152 -0.0081,0.01152 -0.0081,0.01152 -0.0081,0.01152 -0.0081,0.01152 -0.0081,0.01152 -0.0081,0.01152 0.02199,-0.01411 0.02199,-0.01411 0.02199,-0.01411 0.02199,-0.01411 0.02199,-0.01411 0.02199,-0.01411 0.02199,-0.01411 0.02199,-0.01411 0.02199,-0.01411 0.02199,-0.01411 0.02199,-0.01411 0.02199,-0.01411 0.02199,-0.01411 0.02199,-0.01411 0.02199,-0.01411 0.02199,-0.01411 c 0.01209,-0.0078 0.0354,-0.02276 0.06934,-0.04464 0.03394,-0.02188 0.07853,-0.05065 0.133162,-0.08591 0.05464,-0.03526 0.119327,-0.07703 0.193491,-0.124919 0.07416,-0.04789 0.1578,-0.101907 0.250327,-0.161673 0.09253,-0.05977 0.193944,-0.125281 0.30367,-0.19617 0.109726,-0.07089 0.22776,-0.147151 0.353521,-0.22841 0.125761,-0.08126 0.259248,-0.167515 0.399879,-0.258393 0.140631,-0.09088 0.288406,-0.186375 0.442743,-0.286118 0.154337,-0.09974 0.315236,-0.203731 0.482116,-0.311587 0.166879,-0.107857 0.339738,-0.219582 0.517995,-0.334799 0.178256,-0.115218 0.361911,-0.233927 0.550381,-0.355754 0.18847,-0.121826 0.381756,-0.246768 0.579275,-0.374451 0.19752,-0.127682 0.399272,-0.258105 0.604676,-0.390891 0.205405,-0.132787 0.41446,-0.267937 0.626585,-0.405075 0.212125,-0.137139 0.427319,-0.276265 0.645,-0.417002 0.217681,-0.140738 0.437849,-0.283087 0.659922,-0.426671 0.257822,-0.166703 0.508753,-0.328804 0.752659,-0.486218 0.243906,-0.157413 0.480787,-0.310139 0.710508,-0.458094 0.229721,-0.147954 0.452283,-0.291137 0.66755,-0.429463 0.215268,-0.138325 0.423241,-0.271795 0.623786,-0.400322 0.200544,-0.128528 0.39366,-0.252115 0.579212,-0.370675 0.185553,-0.11856 0.363542,-0.232095 0.533834,-0.340518 0.170291,-0.108424 0.332885,-0.211736 0.487646,-0.309853 0.154761,-0.09812 0.30169,-0.191039 0.440652,-0.27868 0.138962,-0.08764 0.269957,-0.170003 0.392851,-0.246999 0.122894,-0.077 0.237686,-0.148627 0.344242,-0.214808 0.106556,-0.06618 0.204876,-0.126913 0.294826,-0.182111 0.08995,-0.0552 0.171529,-0.10486 0.244603,-0.148904 0.07307,-0.04404 0.137643,-0.08247 0.193572,-0.115189 0.05593,-0.03272 0.103219,-0.05974 0.141734,-0.08097 0.03852,-0.02123 0.06826,-0.03667 0.08909,-0.04623 0.02083,-0.0096 0.03276,-0.01326 0.03564,-0.011 0.0025,0.002 0.01643,0.01134 0.04126,0.02774 0.02483,0.0164 0.06055,0.03982 0.106599,0.06991 0.04605,0.03009 0.10242,0.06684 0.168555,0.109896 0.06613,0.04305 0.14203,0.0924 0.227123,0.147686 0.08509,0.05528 0.179384,0.1165 0.282307,0.183283 0.102923,0.06678 0.214479,0.139134 0.334103,0.216687 0.119625,0.07755 0.247318,0.160307 0.382515,0.247898 0.135197,0.08759 0.277898,0.180018 0.427539,0.276915 0.149641,0.0969 0.306222,0.198267 0.469178,0.30374 0.162957,0.105474 0.332288,0.215053 0.507431,0.328372 0.175143,0.113319 0.356097,0.230377 0.542298,0.35081 0.186201,0.120433 0.377648,0.24424 0.573778,0.371055 0.19613,0.126816 0.396942,0.25664 0.601873,0.389108 0.20493,0.132467 0.413979,0.267578 0.626581,0.404966 0.212602,0.137388 0.428758,0.277054 0.647904,0.418633 0.219145,0.141578 0.44128,0.285068 0.66584,0.430105 0.22456,0.145037 0.446915,0.288666 0.666489,0.430515 0.219575,0.141848 0.436369,0.281917 0.649809,0.419833 0.213439,0.137916 0.423523,0.273679 0.629677,0.406918 0.206153,0.133239 0.408376,0.263953 0.606094,0.39177 0.197718,0.127817 0.39093,0.252736 0.579062,0.374387 0.188132,0.12165 0.371183,0.240031 0.548578,0.35477 0.177395,0.11474 0.349135,0.225838 0.514644,0.332921 0.165509,0.107084 0.324787,0.210154 0.477259,0.308838 0.152472,0.09868 0.298139,0.192981 0.436424,0.282519 0.138285,0.08954 0.269189,0.17432 0.392137,0.253969 0.122949,0.07965 0.23794,0.154169 0.344401,0.223184 0.106461,0.06902 0.20439,0.132529 0.293213,0.190166 0.08882,0.05764 0.16854,0.109399 0.238576,0.154913 0.07003,0.04551 0.130389,0.08478 0.180486,0.117428 0.0501,0.03265 0.08994,0.05867 0.118947,0.07771 0.02901,0.01903 0.04719,0.03108 0.05396,0.03575 0.0068,0.0047 0.01334,0.0091 0.01969,0.01337 0.0064,0.0042 0.01249,0.0082 0.01841,0.01201 0.0059,0.0038 0.01161,0.0073 0.01706,0.01063 0.0055,0.0033 0.01068,0.0064 0.01565,0.0092 0.005,0.0028 0.0097,0.0054 0.01418,0.0078 0.0045,0.0024 0.0087,0.0045 0.01264,0.0064 0.0039,0.0019 0.0076,0.0035 0.01103,0.0049 0.0034,0.0014 0.0065,0.0025 0.0094,0.0034 0.0028,8.97e-4 0.0054,0.0015 0.0076,0.0019 0.0023,3.96e-4 0.0042,5.39e-4 0.0058,4.25e-4 0.0016,-1.13e-4 0.003,-4.82e-4 0.004,-0.0011 10e-4,-6.28e-4 0.0017,-0.0015 0.0021,-0.0027 3.58e-4,-0.0012 3.86e-4,-0.0026 7.2e-5,-0.0042 -3.15e-4,-0.0017 -9.71e-4,-0.0036 -0.002,-0.0058 -10e-4,-0.0022 -0.0024,-0.0047 -0.0041,-0.0075 -0.0017,-0.0028 -0.0038,-0.0058 -0.0063,-0.0091 -0.01805,-0.02423 -0.06779,-0.09801 -0.145211,-0.21508 -0.07742,-0.117069 -0.182501,-0.277423 -0.311221,-0.474786 -0.128719,-0.197363 -0.281074,-0.431736 -0.453031,-0.696844 -0.171956,-0.265108 -0.363515,-0.560952 -0.570642,-0.881256 -0.207128,-0.320305 -0.429824,-0.66507 -0.664055,-1.028022 -0.234232,-0.362951 -0.479999,-0.744089 -0.733269,-1.137139 -0.253269,-0.39305 -0.514041,-0.798012 -0.778282,-1.208611 -0.264241,-0.410599 -0.531952,-0.826836 -0.799098,-1.242435 -0.267147,-0.4156 -0.533729,-0.830562 -0.795715,-1.238613 -0.261985,-0.408051 -0.519373,-0.809191 -0.768131,-1.197144 -0.248758,-0.387954 -0.488886,-0.762721 -0.71635,-1.118028 -0.227464,-0.355307 -0.442264,-0.691153 -0.640368,-1.001265 -0.198104,-0.310111 -0.379512,-0.594488 -0.540189,-0.846855 -0.160678,-0.252367 -0.300626,-0.472725 -0.41581,-0.654799 -0.115185,-0.182074 -0.205607,-0.325863 -0.267232,-0.425095 -0.06163,-0.09923 -0.09446,-0.153905 -0.09446,-0.157745 0,-0.0038 0.0328,-0.05841 0.09438,-0.157513 0.06158,-0.09911 0.151932,-0.242724 0.267032,-0.42459 0.1151,-0.181867 0.254947,-0.401982 0.415512,-0.65408 0.160566,-0.252098 0.34185,-0.53618 0.539825,-0.845981 0.197975,-0.309801 0.41264,-0.64532 0.639967,-1.000294 0.227328,-0.354974 0.467318,-0.729402 0.715942,-1.117019 0.248624,-0.387617 0.505882,-0.788424 0.767746,-1.196156 0.261864,-0.407732 0.528334,-0.822389 0.795382,-1.237705 0.267048,-0.415317 0.534674,-0.831294 0.798849,-1.241666 0.264176,-0.410373 0.524901,-0.815141 0.778147,-1.208039 0.253247,-0.392899 0.499014,-0.773928 0.733276,-1.136824 0.234261,-0.362895 0.457015,-0.707657 0.664235,-1.02802 0.207219,-0.320363 0.398904,-0.616328 0.571026,-0.881629 0.172121,-0.265302 0.32468,-0.49994 0.453647,-0.69765 0.128968,-0.19771 0.234344,-0.358493 0.3121,-0.476082 0.07776,-0.11759 0.127894,-0.191987 0.146384,-0.216927 0.0024,-0.0033 0.0045,-0.0063 0.0062,-0.0091 0.0017,-0.0028 0.003,-0.0052 0.004,-0.0074 9.9e-4,-0.0022 0.0016,-0.0041 0.0019,-0.0058 2.98e-4,-0.0017 2.56e-4,-0.0031 -1.17e-4,-0.0042 -3.72e-4,-0.0011 -0.0011,-0.002 -0.0021,-0.0026 -0.001,-6.17e-4 -0.0024,-9.73e-4 -0.004,-0.0011 -0.0017,-1.01e-4 -0.0036,5.6e-5 -0.0059,4.65e-4 -0.0023,4.09e-4 -0.0048,0.0011 -0.0077,0.002 -0.0028,9.12e-4 -0.006,0.0021 -0.0094,0.0035 -0.0034,0.0014 -0.0071,0.0031 -0.01105,0.005 -0.004,0.0019 -0.0082,0.004 -0.01264,0.0064 -0.0045,0.0024 -0.0092,0.005 -0.01418,0.0078 -0.005,0.0029 -0.0102,0.0059 -0.01565,0.0093 -0.0055,0.0033 -0.01115,0.0069 -0.01706,0.01065 -0.0059,0.0038 -0.01205,0.0078 -0.01841,0.01202 -0.0064,0.0042 -0.01292,0.0087 -0.01969,0.01337 -0.0068,0.0047 -0.02477,0.01661 -0.05344,0.03543 -0.02867,0.01882 -0.06801,0.04451 -0.117442,0.07673 -0.04944,0.03222 -0.108971,0.07095 -0.17804,0.115829 -0.06907,0.04488 -0.147672,0.09592 -0.235241,0.152731 -0.08757,0.05682 -0.184105,0.119415 -0.289041,0.187432 -0.104935,0.06802 -0.218272,0.14145 -0.339441,0.219934 -0.12117,0.07848 -0.250173,0.162017 -0.386444,0.250235 -0.13627,0.08822 -0.279807,0.181118 -0.430045,0.278336 -0.150238,0.09722 -0.307177,0.198753 -0.470249,0.304239 -0.163073,0.105485 -0.332279,0.21492 -0.507053,0.327939 -0.174774,0.113019 -0.355115,0.229621 -0.540457,0.349441 -0.185342,0.119819 -0.375685,0.242855 -0.570462,0.368742 -0.194777,0.125886 -0.393989,0.254623 -0.597068,0.385843 -0.20308,0.13122 -0.410027,0.264924 -0.620275,0.400744 -0.210248,0.135821 -0.423798,0.273758 -0.640082,0.413446 -0.216284,0.139688 -0.435303,0.281126 -0.65649,0.423947 -0.221162,0.142821 -0.440114,0.28423 -0.656289,0.423861 -0.216176,0.139631 -0.429576,0.277484 -0.639636,0.413194 -0.21006,0.135711 -0.416781,0.269278 -0.619597,0.400337 -0.202816,0.13106 -0.401728,0.259611 -0.596171,0.385289 -0.194444,0.125678 -0.384419,0.248483 -0.569361,0.368049 -0.184941,0.119566 -0.364851,0.235894 -0.539162,0.348618 -0.174312,0.112725 -0.343027,0.221845 -0.50558,0.326997 -0.162553,0.105152 -0.318944,0.206335 -0.46861,0.303185 -0.149665,0.09685 -0.292605,0.189364 -0.428254,0.277181 -0.13565,0.08782 -0.264009,0.170933 -0.384513,0.248986 -0.120505,0.07805 -0.233155,0.151042 -0.337386,0.218602 -0.104231,0.06756 -0.200043,0.129689 -0.286872,0.186024 -0.08683,0.05634 -0.164674,0.106876 -0.232972,0.151258 -0.0683,0.04438 -0.127048,0.0826 -0.175687,0.114298 -0.04864,0.0317 -0.08717,0.05687 -0.115015,0.07515 -0.02785,0.01828 -0.04502,0.02967 -0.05096,0.03381 l -0.01073,0.0075 -0.01073,0.0075 -0.01073,0.0075 -0.01073,0.0075 -0.01073,0.0075 -0.01073,0.0075 -0.01074,0.0075 -0.01073,0.0075 -0.01073,0.0075 -0.01073,0.0075 -0.01073,0.0075 -0.01073,0.0075 -0.01074,0.0075 -0.01073,0.0075 -0.01073,0.0075 -0.01073,0.0075 L 49.534486,39.700994 49.130791,39.440046 48.727095,39.179097 48.323399,38.918149 47.919704,38.6572 47.516008,38.396252 47.112312,38.135303 46.708616,37.874355 46.304921,37.613406 45.901225,37.352457 45.497529,37.091509 45.093834,36.83056 44.690138,36.569612 44.286442,36.308663 43.882747,36.047715 43.479051,35.786766 C 43.257027,35.643231 43.036906,35.500931 42.81927,35.360243 42.601635,35.219555 42.386485,35.080478 42.174403,34.943389 41.962321,34.8063 41.753307,34.671198 41.547943,34.53846 41.342578,34.405722 41.140864,34.275347 40.943381,34.147712 40.745898,34.020077 40.552648,33.895181 40.364211,33.7734 40.175775,33.65162 39.992152,33.532955 39.813926,33.417781 39.6357,33.302607 39.46287,33.190924 39.296018,33.083108 c -0.166851,-0.107815 -0.327724,-0.211764 -0.482037,-0.311469 -0.154313,-0.09971 -0.302065,-0.195167 -0.442674,-0.28601 -0.14061,-0.09084 -0.274077,-0.177067 -0.399819,-0.258296 -0.125742,-0.08123 -0.24376,-0.157463 -0.35347,-0.228325 -0.109711,-0.07086 -0.211114,-0.136355 -0.303629,-0.1961 -0.09251,-0.05975 -0.17614,-0.113744 -0.250295,-0.161619 -0.07415,-0.04788 -0.138837,-0.08963 -0.193467,-0.124882 -0.05463,-0.03525 -0.09921,-0.06401 -0.133148,-0.08589 -0.03394,-0.02188 -0.05725,-0.03689 -0.06934,-0.04464 l -0.02199,-0.01411 -0.02199,-0.01411 -0.02199,-0.01411 -0.02199,-0.01411 -0.02199,-0.01411 -0.02199,-0.01411 -0.02199,-0.01411 -0.02199,-0.01411 -0.02199,-0.01411 -0.02199,-0.01411 -0.02199,-0.01411 -0.02199,-0.01411 -0.02199,-0.01411 -0.02199,-0.01411 -0.02199,-0.01411 -0.02199,-0.01411 0.0081,0.0115 0.0081,0.0115 0.0081,0.0115 0.0081,0.0115 0.0081,0.0115 0.0081,0.0115 0.0081,0.0115 0.0081,0.0115 0.0081,0.0115 0.0081,0.0115 0.0081,0.0115 0.0081,0.0115 0.0081,0.0115 0.0081,0.0115 0.0081,0.0115 0.0081,0.0115"
       inkscape:connector-curvature="0"
       style="fill:#04b4f4;fill-rule:evenodd;stroke:none;stroke-width:0.39392146" />
  </g>
  <g
     style="display:inline"
     inkscape:label="Picos"
     id="g874"
     inkscape:groupmode="layer">
    <path
       sodipodi:nodetypes="cssssssssssssssscssssssssssssssssssssssssssssssscsssssssssssssssccssssssssssssssssssssssssssssssscssssssssssssssscccccccccccccccccccccccccccccccccssssssssssssssscsssssssssssssssccssssssssssssssscssssssssssssssscssssssssssssssssssssssssssssssscsssssssssssssssccssssssssssssssscssssssssssssssscssssssssssssssssssssssssssssssscssssssssssssssscsssssssssssssssc"
       style="fill:#04b4f4;fill-rule:evenodd;stroke:none;stroke-width:0.39392146"
       inkscape:connector-curvature="0"
       d="m 49.845834,25.711879 c -0.0041,0.01059 -0.01605,0.05886 -0.03494,0.140078 -0.0189,0.08122 -0.0447,0.195375 -0.07641,0.337728 -0.03171,0.142353 -0.06931,0.3129 -0.111803,0.506894 -0.04249,0.193995 -0.08987,0.411437 -0.141123,0.647579 -0.05125,0.236141 -0.10638,0.490984 -0.16437,0.759779 -0.05799,0.268795 -0.118843,0.551543 -0.181545,0.843497 -0.0627,0.291953 -0.127256,0.593113 -0.192647,0.898732 -0.06539,0.305618 -0.131621,0.615695 -0.197677,0.925484 -0.06606,0.309788 -0.131937,0.619288 -0.196633,0.923753 -0.0647,0.304464 -0.128206,0.603893 -0.189517,0.893539 -0.06131,0.289646 -0.120426,0.569509 -0.176329,0.834843 -0.0559,0.265333 -0.108596,0.516136 -0.157067,0.747662 -0.04847,0.231527 -0.09272,0.443776 -0.131733,0.632001 -0.03901,0.188224 -0.07279,0.352425 -0.100327,0.487854 -0.02753,0.135429 -0.04882,0.242087 -0.06285,0.315226 -0.01403,0.07314 -0.0208,0.11276 -0.01929,0.114115 0.0086,0.0077 0.02437,0.01972 0.04634,0.03547 0.02197,0.01575 0.05017,0.03525 0.08368,0.05791 0.03351,0.02266 0.07233,0.0485 0.115552,0.07694 0.04322,0.02844 0.09085,0.05948 0.14196,0.09255 0.05111,0.03308 0.105719,0.06818 0.162904,0.104759 0.05719,0.03657 0.11695,0.07461 0.178384,0.11355 0.06143,0.03894 0.124537,0.07877 0.188399,0.11893 0.06386,0.04016 0.128481,0.08065 0.192949,0.120897 0.06447,0.04025 0.128783,0.08026 0.192036,0.119453 0.06325,0.0392 0.125442,0.07759 0.185657,0.114596 0.06021,0.03701 0.118457,0.07264 0.173814,0.106327 0.05536,0.03368 0.10783,0.06542 0.156507,0.09465 0.04868,0.02922 0.09356,0.05593 0.133734,0.07955 0.04018,0.02362 0.07565,0.04416 0.105498,0.06105 0.02985,0.01689 0.05409,0.03012 0.0718,0.03913 0.01771,0.009 0.02889,0.0138 0.03263,0.0138 0.0073,0 0.02215,-0.0052 0.04354,-0.015 0.02139,-0.0098 0.04933,-0.02416 0.08286,-0.04248 0.03353,-0.01832 0.07264,-0.04058 0.116375,-0.06616 0.04373,-0.02558 0.09208,-0.05447 0.144075,-0.08604 0.052,-0.03157 0.107641,-0.06583 0.165964,-0.102129 0.05832,-0.0363 0.119326,-0.07465 0.182039,-0.11442 0.06271,-0.03977 0.127137,-0.08095 0.192303,-0.122916 0.06517,-0.04197 0.131072,-0.08472 0.196753,-0.127617 0.06568,-0.0429 0.131133,-0.08595 0.195391,-0.128521 0.06426,-0.04257 0.127319,-0.08466 0.188217,-0.125631 0.0609,-0.04097 0.11963,-0.08083 0.17523,-0.118943 0.0556,-0.03811 0.108066,-0.07448 0.156431,-0.108461 0.04836,-0.03399 0.09263,-0.06559 0.13182,-0.09418 0.03919,-0.02859 0.07331,-0.05417 0.101395,-0.07611 0.02808,-0.02194 0.05012,-0.04023 0.06516,-0.05424 0.01504,-0.01401 0.02306,-0.02375 0.02311,-0.02857 2.19e-4,-0.01916 -0.008,-0.07523 -0.0235,-0.163504 -0.01554,-0.08827 -0.03844,-0.208751 -0.06766,-0.35671 -0.02922,-0.147959 -0.06477,-0.3234 -0.105597,-0.521605 -0.04083,-0.198205 -0.08694,-0.419175 -0.137304,-0.65819 -0.05036,-0.239015 -0.104969,-0.496076 -0.162785,-0.766464 -0.05782,-0.270389 -0.118842,-0.554104 -0.182039,-0.846429 -0.0632,-0.292324 -0.128564,-0.593258 -0.195065,-0.898082 -0.0665,-0.304823 -0.134134,-0.613538 -0.201863,-0.921425 -0.06773,-0.307886 -0.135554,-0.614945 -0.202436,-0.916458 -0.06688,-0.301512 -0.132821,-0.597478 -0.19678,-0.88318 -0.06396,-0.285701 -0.125937,-0.561138 -0.184898,-0.821592 -0.05896,-0.260454 -0.114902,-0.505925 -0.166788,-0.731694 -0.05189,-0.225769 -0.09972,-0.431837 -0.142452,-0.613485 -0.04274,-0.181648 -0.08038,-0.338876 -0.111887,-0.466966 -0.03151,-0.12809 -0.05689,-0.227042 -0.0751,-0.292137 -0.01821,-0.06509 -0.02925,-0.09633 -0.03208,-0.089 M 35.736352,43.654197 c -0.168697,0.03641 -0.335476,0.07248 -0.499919,0.108107 -0.164443,0.03563 -0.326549,0.07081 -0.4859,0.105468 -0.15935,0.03465 -0.315944,0.06877 -0.469364,0.102265 -0.153419,0.03349 -0.303663,0.06636 -0.450313,0.0985 -0.146649,0.03214 -0.289704,0.06357 -0.428745,0.09417 -0.139041,0.03061 -0.274069,0.0604 -0.404663,0.08928 -0.130594,0.02888 -0.256755,0.05686 -0.378064,0.08383 -0.121308,0.02697 -0.237764,0.05294 -0.348949,0.07781 -0.111184,0.02487 -0.217096,0.04865 -0.317318,0.07124 -0.100221,0.02259 -0.194752,0.04398 -0.283172,0.0641 -0.08842,0.02011 -0.170729,0.03894 -0.246509,0.05639 -0.07578,0.01745 -0.14503,0.03352 -0.207331,0.04812 -0.0623,0.0146 -0.117653,0.02773 -0.165637,0.0393 -0.04798,0.01156 -0.0886,0.02156 -0.121427,0.0299 -0.03283,0.0083 -0.05787,0.01502 -0.0747,0.01995 -0.01683,0.0049 -0.02546,0.0081 -0.02546,0.0094 0,0.0028 0.03896,0.01374 0.112018,0.0319 0.07306,0.01816 0.180213,0.0435 0.316605,0.07498 0.136393,0.03147 0.302021,0.06908 0.492025,0.111766 0.190003,0.04269 0.404381,0.09046 0.638271,0.142265 0.233891,0.05181 0.487295,0.107647 0.75535,0.166474 0.268055,0.05883 0.550762,0.120642 0.843258,0.184394 0.292496,0.06375 0.594781,0.129443 0.901994,0.196023 0.307214,0.06658 0.619355,0.134051 0.931562,0.201364 0.312208,0.06731 0.624481,0.134465 0.931959,0.200412 0.307478,0.06595 0.610161,0.130688 0.903186,0.193173 0.293025,0.06249 0.576393,0.122716 0.845242,0.179643 0.268849,0.05693 0.52318,0.11055 0.758129,0.159822 0.23495,0.04927 0.450519,0.09419 0.641845,0.133713 0.191327,0.03952 0.358411,0.07364 0.496391,0.101313 0.137981,0.02767 0.246857,0.0489 0.321767,0.06262 0.07491,0.01373 0.115856,0.01996 0.117973,0.01764 7.63e-4,-8.37e-4 0.0027,-0.0035 0.0059,-0.008 0.0031,-0.0045 0.0074,-0.01072 0.01277,-0.01864 0.0054,-0.0079 0.01183,-0.01753 0.01932,-0.02872 0.0075,-0.01119 0.016,-0.02396 0.02549,-0.03823 0.0095,-0.01427 0.01994,-0.03002 0.0313,-0.04718 0.01136,-0.01716 0.02363,-0.03571 0.03674,-0.05558 0.01311,-0.01986 0.02707,-0.04103 0.04181,-0.06341 0.01474,-0.02238 0.03027,-0.04597 0.04652,-0.07068 0.01625,-0.02471 0.03322,-0.05054 0.05086,-0.0774 0.01763,-0.02686 0.03593,-0.05474 0.05483,-0.08356 0.0189,-0.02882 0.0384,-0.05857 0.05843,-0.08916 0.02004,-0.03059 0.04062,-0.06202 0.06167,-0.0942 0.02106,-0.03218 0.04259,-0.0651 0.06454,-0.09868 0.02195,-0.03358 0.04432,-0.06781 0.06705,-0.102598 0.02273,-0.03479 0.04581,-0.07014 0.06918,-0.105959 0.02338,-0.03582 0.04705,-0.0721 0.07096,-0.108762 l 0.04343,-0.06665 0.04343,-0.06665 0.04343,-0.06665 0.04343,-0.06665 0.04343,-0.06665 0.04343,-0.06665 0.04343,-0.06665 0.04343,-0.06665 0.04343,-0.06665 0.04343,-0.06665 0.04343,-0.06665 0.04343,-0.06665 0.04343,-0.06665 0.04343,-0.06665 0.04343,-0.06665 0.04343,-0.06665 -0.044,-0.06768 -0.044,-0.06768 -0.044,-0.06768 -0.044,-0.06768 -0.044,-0.06768 -0.044,-0.06768 -0.044,-0.06768 -0.044,-0.06768 -0.044,-0.06768 -0.044,-0.06768 -0.044,-0.06768 -0.044,-0.06768 -0.044,-0.06768 -0.044,-0.06768 -0.044,-0.06768 -0.044,-0.06768 c -0.02563,-0.03946 -0.05096,-0.07822 -0.07596,-0.116202 -0.02499,-0.03798 -0.04964,-0.07519 -0.0739,-0.11155 -0.02426,-0.03636 -0.04812,-0.07189 -0.07154,-0.106501 -0.02342,-0.03462 -0.0464,-0.06832 -0.06889,-0.101056 -0.02249,-0.03273 -0.04448,-0.06449 -0.06594,-0.09522 -0.02146,-0.03072 -0.04237,-0.0604 -0.06269,-0.08898 -0.02032,-0.02858 -0.04006,-0.05605 -0.05915,-0.08234 -0.01909,-0.0263 -0.03755,-0.05142 -0.05531,-0.07531 -0.01776,-0.02389 -0.03484,-0.04654 -0.05117,-0.06788 -0.01634,-0.02135 -0.03193,-0.04139 -0.04674,-0.06006 -0.01481,-0.01867 -0.02883,-0.03597 -0.04201,-0.05184 -0.01318,-0.01587 -0.02553,-0.0303 -0.03698,-0.04322 -0.01146,-0.01293 -0.02203,-0.02435 -0.03166,-0.03421 -0.0096,-0.0099 -0.01833,-0.01814 -0.02604,-0.0248 -0.0077,-0.0067 -0.01444,-0.01167 -0.02013,-0.01499 -0.0057,-0.0033 -0.01035,-0.0049 -0.01392,-0.0048 -0.0034,1.88e-4 -0.01538,0.0022 -0.03553,0.006 -0.02014,0.0038 -0.04845,0.0094 -0.08449,0.01663 -0.03604,0.0072 -0.07981,0.01617 -0.130882,0.02668 -0.05107,0.01051 -0.109454,0.0226 -0.174709,0.03618 -0.06526,0.01358 -0.137388,0.02866 -0.215969,0.04514 -0.07858,0.01648 -0.163611,0.03437 -0.254663,0.05356 -0.09105,0.0192 -0.188123,0.03971 -0.290789,0.06144 -0.102666,0.02173 -0.210925,0.04469 -0.32435,0.06878 -0.113425,0.02409 -0.232015,0.04931 -0.355343,0.07557 -0.123329,0.02626 -0.251395,0.05356 -0.383771,0.08182 -0.132376,0.02825 -0.269062,0.05746 -0.409631,0.08752 -0.140568,0.03007 -0.285019,0.06099 -0.432924,0.09269 -0.147905,0.0317 -0.299265,0.06416 -0.453652,0.09731 -0.154386,0.03315 -0.311799,0.06697 -0.471811,0.101389 -0.160013,0.03442 -0.322624,0.06942 -0.487406,0.104926 -0.164783,0.03551 -0.331736,0.07151 -0.500433,0.107921 m 22.502768,-0.04259 c -0.02255,0.03523 -0.04488,0.07021 -0.06694,0.104847 -0.02206,0.03464 -0.04383,0.06892 -0.06527,0.102773 -0.02144,0.03385 -0.04255,0.06726 -0.06326,0.10013 -0.02071,0.03287 -0.04103,0.06521 -0.0609,0.09692 -0.01987,0.03171 -0.03928,0.06279 -0.05819,0.09314 -0.01891,0.03035 -0.0373,0.05998 -0.05513,0.08879 -0.01783,0.02881 -0.03509,0.0568 -0.05173,0.08387 -0.01664,0.02707 -0.03265,0.05323 -0.04799,0.07838 -0.01533,0.02515 -0.02998,0.04929 -0.04389,0.07232 -0.01391,0.02304 -0.02708,0.04497 -0.03945,0.0657 -0.01237,0.02073 -0.02395,0.04027 -0.03466,0.05851 -0.01072,0.01824 -0.02058,0.03518 -0.02953,0.05074 -0.0089,0.01556 -0.01698,0.02973 -0.02405,0.04241 -0.0071,0.01268 -0.01315,0.02389 -0.01822,0.03351 -0.0051,0.0096 -0.0091,0.01767 -0.01204,0.02404 -0.0029,0.0064 -0.0048,0.01107 -0.0055,0.014 -9.12e-4,0.0039 0.0028,0.015 0.0107,0.03253 0.0079,0.01753 0.01986,0.04147 0.03544,0.07093 0.01558,0.02946 0.03474,0.06444 0.05696,0.104077 0.02222,0.03963 0.04748,0.08392 0.07527,0.131976 0.02778,0.04806 0.05808,0.09989 0.09036,0.154628 0.03228,0.05474 0.06654,0.112371 0.102246,0.172032 0.03571,0.05966 0.07286,0.121348 0.110916,0.184186 0.03806,0.06284 0.07703,0.126827 0.116372,0.191093 0.03934,0.06427 0.07906,0.128807 0.118615,0.192751 0.03956,0.06394 0.07895,0.127289 0.117647,0.189161 0.0387,0.06187 0.0767,0.122271 0.113464,0.180322 0.03677,0.05805 0.0723,0.113754 0.106069,0.166235 0.03377,0.05248 0.06576,0.101738 0.09546,0.146899 0.0297,0.04516 0.05709,0.08623 0.08164,0.122316 0.02455,0.03609 0.04627,0.06721 0.06461,0.09248 0.01834,0.02527 0.0333,0.0447 0.04436,0.0574 0.0019,0.0022 0.04289,-0.0042 0.118091,-0.01808 0.0752,-0.01387 0.184606,-0.03524 0.323321,-0.06305 0.138715,-0.02781 0.306741,-0.06207 0.499181,-0.101725 0.192441,-0.03965 0.409296,-0.0847 0.645672,-0.134102 0.236376,-0.0494 0.492272,-0.10314 0.762794,-0.160179 0.270521,-0.05704 0.555668,-0.117377 0.850546,-0.17996 0.294877,-0.06258 0.599485,-0.127414 0.908929,-0.193442 0.309443,-0.06603 0.623723,-0.133253 0.937943,-0.200626 0.31422,-0.06737 0.628381,-0.134895 0.937587,-0.201514 0.309207,-0.06662 0.613459,-0.132336 0.907863,-0.196102 0.294404,-0.06377 0.578958,-0.12558 0.848769,-0.184393 0.269811,-0.05881 0.524877,-0.114625 0.760305,-0.166386 0.235429,-0.05176 0.451218,-0.09947 0.642474,-0.142082 0.191255,-0.04261 0.357977,-0.08012 0.495271,-0.111479 0.137293,-0.03136 0.245158,-0.05657 0.3187,-0.07458 0.07354,-0.01801 0.11276,-0.02882 0.11276,-0.03138 0,-0.0018 -0.03888,-0.01182 -0.11181,-0.02911 -0.07293,-0.01729 -0.179899,-0.04181 -0.316077,-0.07253 -0.136178,-0.03072 -0.301562,-0.06763 -0.491314,-0.109696 -0.189752,-0.04206 -0.403872,-0.08927 -0.637521,-0.140591 -0.233649,-0.05132 -0.486828,-0.106738 -0.754698,-0.165221 -0.26787,-0.05848 -0.550431,-0.120025 -0.842845,-0.183585 -0.292413,-0.06356 -0.59468,-0.129135 -0.901961,-0.195683 -0.307282,-0.06655 -0.619577,-0.134069 -0.932049,-0.201517 -0.312472,-0.06745 -0.62512,-0.134823 -0.933106,-0.201083 -0.307986,-0.06626 -0.61131,-0.131402 -0.905134,-0.194384 -0.293823,-0.06298 -0.578146,-0.123803 -0.84813,-0.18142 -0.269984,-0.05762 -0.52563,-0.112027 -0.762098,-0.162189 -0.236468,-0.05016 -0.453759,-0.09607 -0.647035,-0.136693 -0.193275,-0.04062 -0.362535,-0.07595 -0.502942,-0.104932 -0.140406,-0.02899 -0.251959,-0.05164 -0.329819,-0.0669 -0.07786,-0.01527 -0.122029,-0.02315 -0.127667,-0.02261 -0.0011,9.4e-5 -0.0034,0.002 -0.0068,0.0056 -0.0034,0.0036 -0.0078,0.0089 -0.01325,0.01589 -0.0055,0.007 -0.01194,0.01553 -0.01938,0.02565 -0.0074,0.01012 -0.01585,0.02177 -0.02517,0.03488 -0.0093,0.0131 -0.01953,0.02766 -0.0306,0.04358 -0.01107,0.01592 -0.02298,0.0332 -0.03568,0.05175 -0.0127,0.01855 -0.02619,0.03838 -0.0404,0.05939 -0.01422,0.02101 -0.02916,0.04321 -0.04478,0.06651 -0.01562,0.0233 -0.0319,0.04769 -0.0488,0.0731 -0.0169,0.02541 -0.0344,0.05182 -0.05247,0.07916 -0.01806,0.02734 -0.03667,0.0556 -0.05578,0.08469 -0.01911,0.02909 -0.03871,0.05902 -0.05875,0.08969 -0.02004,0.03067 -0.04051,0.06209 -0.06135,0.09417 -0.02085,0.03208 -0.04207,0.06481 -0.06361,0.09811 -0.02154,0.0333 -0.0434,0.06718 -0.06552,0.101533 -0.02212,0.03436 -0.04449,0.06919 -0.06707,0.104423 m -9.421028,9.451783 c -0.03274,0.02135 -0.06527,0.04254 -0.0975,0.06354 -0.03222,0.02099 -0.06414,0.04178 -0.09566,0.0623 -0.03152,0.02052 -0.06265,0.04079 -0.0933,0.06073 -0.03064,0.01994 -0.06081,0.03956 -0.0904,0.0588 -0.02959,0.01924 -0.05861,0.03811 -0.08697,0.05654 -0.02836,0.01843 -0.05606,0.03642 -0.08301,0.05392 -0.02695,0.0175 -0.05315,0.0345 -0.07851,0.05096 -0.02536,0.01646 -0.04989,0.03236 -0.07348,0.04765 -0.0236,0.0153 -0.04627,0.02998 -0.06793,0.044 -0.02166,0.01402 -0.0423,0.02737 -0.06184,0.04001 -0.01954,0.01263 -0.03797,0.02454 -0.05522,0.03566 -0.01724,0.01112 -0.03329,0.02147 -0.04806,0.03097 -0.01477,0.0095 -0.02826,0.01817 -0.04038,0.02594 -0.01212,0.0078 -0.02287,0.01464 -0.03216,0.02056 -0.0093,0.0059 -0.01712,0.01088 -0.02341,0.01483 -0.0063,0.004 -0.01102,0.0069 -0.01412,0.0088 -0.0053,0.0032 -0.0022,0.04471 0.0082,0.11984 0.01038,0.07513 0.0281,0.183851 0.05215,0.321391 0.02406,0.13754 0.05445,0.303898 0.0902,0.494302 0.03575,0.190405 0.07685,0.404855 0.12232,0.638578 0.04547,0.233722 0.0953,0.486718 0.148504,0.754213 0.05321,0.267496 0.109787,0.549491 0.168753,0.841213 0.05897,0.291722 0.12032,0.593171 0.183069,0.899574 0.06275,0.306402 0.126895,0.617759 0.191449,0.929297 0.06455,0.311537 0.129515,0.623255 0.193896,0.930382 0.06438,0.307126 0.128179,0.60966 0.190408,0.90283 0.06223,0.293169 0.122887,0.576973 0.180987,0.846639 0.0581,0.269666 0.113639,0.525194 0.16563,0.761812 0.05199,0.236617 0.100435,0.454323 0.14434,0.648345 0.04391,0.194023 0.08327,0.364361 0.117116,0.506242 0.03384,0.141882 0.06216,0.255306 0.08396,0.335501 0.0218,0.08019 0.03708,0.127159 0.04486,0.136121 0.0014,0.0016 0.0046,-0.0056 0.0097,-0.0213 0.005,-0.01566 0.01186,-0.03974 0.02036,-0.07181 0.0085,-0.03207 0.0187,-0.07214 0.03048,-0.119772 0.01178,-0.04763 0.02516,-0.102836 0.04003,-0.165182 0.01487,-0.06235 0.03123,-0.131835 0.049,-0.208042 0.01776,-0.07621 0.03693,-0.159134 0.0574,-0.248353 0.02047,-0.08922 0.04224,-0.184732 0.06522,-0.286113 0.02298,-0.101381 0.04717,-0.208631 0.07247,-0.321323 0.0253,-0.112693 0.05172,-0.230829 0.07916,-0.353984 0.02743,-0.123154 0.05589,-0.251327 0.08526,-0.384094 0.02937,-0.132766 0.05967,-0.270126 0.09079,-0.411654 0.03112,-0.141528 0.06307,-0.287224 0.09576,-0.436664 0.03268,-0.14944 0.06609,-0.302623 0.100143,-0.459125 0.03405,-0.156502 0.06873,-0.316322 0.103958,-0.479035 0.03523,-0.162713 0.07099,-0.32832 0.1072,-0.496395 0.03621,-0.168076 0.07286,-0.338619 0.109868,-0.511206 0.037,-0.172587 0.07354,-0.343255 0.109519,-0.511573 0.03598,-0.168318 0.0714,-0.334287 0.106174,-0.497474 0.03478,-0.163187 0.0689,-0.323594 0.102292,-0.480788 0.03339,-0.157195 0.06605,-0.311177 0.09787,-0.461516 0.03183,-0.15034 0.06283,-0.297036 0.09291,-0.439659 0.03009,-0.142622 0.05926,-0.28117 0.08742,-0.415214 0.02816,-0.134043 0.05532,-0.263581 0.08139,-0.388183 0.02606,-0.124602 0.05103,-0.244268 0.07481,-0.358567 0.02378,-0.114299 0.04638,-0.22323 0.0677,-0.326363 0.02132,-0.103134 0.04137,-0.200469 0.06006,-0.291575 0.01868,-0.09111 0.03601,-0.175982 0.05187,-0.254199 0.01587,-0.07822 0.03028,-0.149772 0.04315,-0.214237 0.01287,-0.06446 0.0242,-0.121838 0.03389,-0.171689 0.0097,-0.04985 0.01775,-0.09218 0.02409,-0.126555 0.0063,-0.03438 0.01095,-0.0608 0.01376,-0.07883 0.0028,-0.01804 0.0038,-0.02769 0.0029,-0.02853 -0.0099,-0.0091 -0.02684,-0.02236 -0.04979,-0.0392 -0.02295,-0.01684 -0.05195,-0.03726 -0.08612,-0.06072 -0.03417,-0.02346 -0.0735,-0.04995 -0.117116,-0.07892 -0.04361,-0.02897 -0.0915,-0.06042 -0.142768,-0.09379 -0.05127,-0.03337 -0.105928,-0.06867 -0.16308,-0.105339 -0.05715,-0.03667 -0.116798,-0.07471 -0.17805,-0.113564 -0.06125,-0.03886 -0.124108,-0.07853 -0.187679,-0.118467 -0.06357,-0.03994 -0.127858,-0.08014 -0.191969,-0.120045 -0.06411,-0.03991 -0.128046,-0.07953 -0.190915,-0.118301 -0.06287,-0.03877 -0.124674,-0.0767 -0.184522,-0.113232 -0.05985,-0.03653 -0.117741,-0.07166 -0.172788,-0.104839 -0.05505,-0.03318 -0.107247,-0.06441 -0.155712,-0.09312 -0.04847,-0.02872 -0.09319,-0.05493 -0.133295,-0.07809 -0.0401,-0.02315 -0.07558,-0.04324 -0.105538,-0.05972 -0.02996,-0.01648 -0.0544,-0.02934 -0.07244,-0.03804 -0.01804,-0.0087 -0.02967,-0.01322 -0.034,-0.01302 -0.0032,1.88e-4 -0.008,0.0015 -0.01442,0.0038 -0.0064,0.0023 -0.01431,0.0057 -0.0237,0.01 -0.0094,0.0043 -0.02023,0.0096 -0.03244,0.01586 -0.01221,0.0062 -0.02579,0.01339 -0.04065,0.02143 -0.01486,0.008 -0.031,0.01694 -0.04833,0.02667 -0.01733,0.0097 -0.03585,0.02028 -0.05547,0.0316 -0.01962,0.01132 -0.04034,0.02341 -0.06207,0.03621 -0.02173,0.0128 -0.04448,0.02632 -0.06814,0.0405 -0.02367,0.01418 -0.04826,0.02902 -0.07368,0.04446 -0.02542,0.01545 -0.05168,0.0315 -0.07868,0.04811 -0.027,0.01661 -0.05474,0.03377 -0.08314,0.05144 -0.0284,0.01767 -0.05745,0.03583 -0.08707,0.05445 -0.02962,0.01862 -0.05981,0.03768 -0.09047,0.05714 -0.03066,0.01946 -0.0618,0.03931 -0.09333,0.0595 -0.03153,0.02019 -0.06344,0.04073 -0.09565,0.06155 -0.03221,0.02082 -0.06472,0.04194 -0.09744,0.06328"
       id="path872" />
  </g>
  <g
     inkscape:groupmode="layer"
     id="g878"
     inkscape:label="Circulo"
     style="display:inline">
    <path
       style="fill:#04b4f4;fill-rule:evenodd;stroke:none;stroke-width:0.39392146"
       inkscape:connector-curvature="0"
       d="m 48.584097,19.347342 c -0.0051,4.32e-4 -0.0105,8.94e-4 -0.01623,0.0014 -0.0057,4.89e-4 -0.01179,10e-4 -0.01815,0.0015 -0.0064,5.43e-4 -0.01303,0.0011 -0.02,0.0017 -0.007,5.95e-4 -0.01422,0.0012 -0.02177,0.0019 -0.0075,6.46e-4 -0.01537,0.0013 -0.02347,0.002 -0.0081,6.94e-4 -0.01647,0.0014 -0.0251,0.0022 -0.0086,7.4e-4 -0.01752,0.0015 -0.02666,0.0023 -0.0091,7.84e-4 -0.01852,0.0016 -0.02815,0.0024 -0.0096,8.26e-4 -0.01948,0.0017 -0.02957,0.0025 -0.01008,8.66e-4 -0.02039,0.0018 -0.03091,0.0027 -0.01052,9.04e-4 -0.02125,0.0018 -0.03218,0.0028 -0.01093,9.4e-4 -0.02207,0.0019 -0.03339,0.0029 -0.01132,9.74e-4 -0.02283,0.002 -0.03452,0.003 -0.01169,0.001 -0.02355,0.002 -0.03558,0.0031 -0.01203,0.001 -0.02422,0.0021 -0.03657,0.0031 -0.01235,0.0011 -0.02484,0.0021 -0.03748,0.0032 -0.01264,0.0011 -0.02542,0.0022 -0.03833,0.0033 -0.01291,0.0011 -0.02595,0.0022 -0.0391,0.0034 -0.01316,0.0011 -0.02643,0.0023 -0.03981,0.0034 -0.01338,0.0012 -0.02686,0.0023 -0.04044,0.0035 -0.01358,0.0012 -0.02725,0.0023 -0.041,0.0035 -0.01375,0.0012 -0.02758,0.0024 -0.04149,0.0036 -0.0139,0.0012 -0.02788,0.0024 -0.04191,0.0036 -0.01403,0.0012 -0.02812,0.0024 -0.04225,0.0036 -0.01413,0.0012 -0.02831,0.0024 -0.04253,0.0037 -0.01421,0.0012 -0.02846,0.0025 -0.04273,0.0037 -0.01427,0.0012 -0.02856,0.0025 -0.04287,0.0037 -0.0143,0.0012 -0.02861,0.0025 -0.04293,0.0037 -0.01431,0.0012 -0.02862,0.0025 -0.04292,0.0037 -0.0143,0.0012 -0.02858,0.0025 -0.04283,0.0037 -0.01426,0.0012 -0.02849,0.0025 -0.04268,0.0037 -0.01419,0.0012 -0.02835,0.0024 -0.04246,0.0037 -0.517133,0.04476 -1.028636,0.105067 -1.534176,0.180385 -0.505539,0.07532 -1.005113,0.165644 -1.498388,0.27044 -0.493275,0.104796 -0.980251,0.224061 -1.460591,0.357257 -0.48034,0.133196 -0.954046,0.280322 -1.420781,0.440838 -0.466735,0.160516 -0.926499,0.334423 -1.378959,0.521181 -0.452459,0.186758 -0.897612,0.386366 -1.335125,0.598286 -0.437513,0.21192 -0.867385,0.436152 -1.289281,0.672155 -0.421896,0.236003 -0.835815,0.483778 -1.241424,0.742786 -0.405608,0.259007 -0.802905,0.529246 -1.191555,0.810179 -0.38865,0.280932 -0.768654,0.572557 -1.139676,0.874335 -0.371021,0.301778 -0.733061,0.613709 -1.085783,0.935253 -0.352723,0.321545 -0.696128,0.652703 -1.029881,0.992936 -0.333752,0.340232 -0.657852,0.689538 -0.971965,1.047379 -0.314112,0.35784 -0.618237,0.724215 -0.912038,1.098585 -0.293802,0.37437 -0.57728,0.756735 -0.8501,1.146555 -0.27282,0.38982 -0.534982,0.787096 -0.78615,1.191287 -0.251168,0.404191 -0.491342,0.815298 -0.720187,1.232781 -0.228846,0.417483 -0.446362,0.841343 -0.652215,1.271039 -0.205852,0.429696 -0.40004,0.865228 -0.582229,1.306058 -0.182189,0.440829 -0.352378,0.886956 -0.510232,1.33784 -0.157855,0.450884 -0.303374,0.906526 -0.436224,1.366385 -0.13285,0.45986 -0.253029,0.923938 -0.360203,1.391694 -0.107175,0.467755 -0.201344,0.93919 -0.282172,1.413763 -0.08083,0.474573 -0.148316,0.952285 -0.202128,1.432596 -0.05381,0.480311 -0.09395,0.963221 -0.120072,1.448191 -0.02613,0.484971 -0.03824,0.972 -0.03601,1.46055 0.0022,0.48855 0.01881,0.97862 0.05007,1.469671 0.03126,0.49105 0.0772,0.983081 0.138163,1.475553 0.06096,0.492473 0.136937,0.985386 0.228266,1.4782 0.09133,0.492815 0.19801,0.985531 0.320379,1.477609 0.122369,0.492078 0.260425,0.983517 0.414504,1.473779 0.15408,0.490263 0.324182,0.979347 0.510642,1.466714 0.205615,0.537444 0.426421,1.062762 0.661666,1.575792 0.235245,0.51303 0.484928,1.013772 0.748296,1.502062 0.263369,0.48829 0.540422,0.964129 0.830407,1.427354 0.289985,0.463225 0.592901,0.913836 0.907996,1.351671 0.315095,0.437834 0.642367,0.862892 0.981065,1.27501 0.338698,0.412119 0.688821,0.811298 1.049615,1.197374 0.360794,0.386077 0.73226,0.759052 1.113643,1.118762 0.381384,0.35971 0.772686,0.706155 1.173153,1.039173 0.400466,0.333017 0.810098,0.652607 1.22814,0.958607 0.418043,0.306 0.844497,0.598409 1.278609,0.877066 0.434112,0.278656 0.875882,0.543559 1.324557,0.794547 0.448674,0.250988 0.904253,0.48806 1.365984,0.711053 0.46173,0.222994 0.929612,0.431909 1.402891,0.626583 0.47328,0.194674 0.951957,0.375106 1.435279,0.541135 0.483322,0.166029 0.971288,0.317654 1.463145,0.454712 0.491858,0.137058 0.987606,0.25955 1.486492,0.367312 0.498886,0.107762 1.00091,0.200795 1.505318,0.278936 0.504409,0.07814 1.011201,0.14139 1.519625,0.189584 0.508423,0.04819 1.018478,0.08133 1.52941,0.09925 0.510932,0.01792 1.022741,0.02063 1.534675,0.0079 0.511934,-0.01268 1.023992,-0.04073 1.535421,-0.08433 0.511429,-0.0436 1.022229,-0.102742 1.531646,-0.17759 0.509417,-0.07485 1.017451,-0.165401 1.52335,-0.271823 0.505899,-0.106423 1.009662,-0.228713 1.510535,-0.367035 0.500873,-0.138322 0.998858,-0.292675 1.493199,-0.463221 0.494341,-0.170547 0.98504,-0.357288 1.471343,-0.560385 0.486303,-0.203097 0.968209,-0.422551 1.444966,-0.658524 0.476758,-0.235973 0.948365,-0.488466 1.41407,-0.75764 0.465705,-0.269175 0.925508,-0.555031 1.378654,-0.857733 0.453146,-0.302701 0.899635,-0.622247 1.338716,-0.958801 0.43908,-0.336553 0.87075,-0.690114 1.294258,-1.060846 0.423508,-0.370731 0.838853,-0.758633 1.245281,-1.163867 0.364857,-0.363762 0.716179,-0.734971 1.054028,-1.113075 0.337849,-0.378104 0.662225,-0.763102 0.97319,-1.154442 0.310966,-0.39134 0.608521,-0.789022 0.892729,-1.192493 0.284208,-0.403471 0.555068,-0.812731 0.812643,-1.227228 0.257576,-0.414496 0.501866,-0.834229 0.732935,-1.258646 0.231068,-0.424417 0.448915,-0.853517 0.653601,-1.286749 0.204687,-0.433231 0.396215,-0.870594 0.574645,-1.311535 0.178431,-0.440941 0.343765,-0.88546 0.496065,-1.333005 0.1523,-0.447545 0.291565,-0.898116 0.41786,-1.351159 0.126295,-0.453044 0.239618,-0.908561 0.340032,-1.365998 0.100415,-0.457436 0.187921,-0.916794 0.262581,-1.377518 0.07466,-0.460725 0.136474,-0.922818 0.185505,-1.385725 0.04903,-0.462907 0.08528,-0.92663 0.108806,-1.390614 0.02353,-0.463985 0.03433,-0.928231 0.03248,-1.392188 -0.0019,-0.463956 -0.01636,-0.927622 -0.04346,-1.390444 -0.0271,-0.462823 -0.0668,-0.924802 -0.119035,-1.385386 -0.05223,-0.460583 -0.116995,-0.919771 -0.194229,-1.37701 -0.07723,-0.45724 -0.166937,-0.91253 -0.269047,-1.36532 -0.102075,-0.452817 -0.216593,-0.903105 -0.343454,-1.35034 -0.126862,-0.447234 -0.266067,-0.891414 -0.417555,-1.331988 -0.151487,-0.440574 -0.315256,-0.877541 -0.491244,-1.310349 -0.175988,-0.432808 -0.364195,-0.861456 -0.564558,-1.285393 -0.200363,-0.423936 -0.412882,-0.843161 -0.637494,-1.257121 -0.224613,-0.41396 -0.461319,-0.822655 -0.710056,-1.225533 -0.248736,-0.402877 -0.509504,-0.799938 -0.782239,-1.190628 -0.272736,-0.390691 -0.55744,-0.775011 -0.854049,-1.152409 -0.296609,-0.377397 -0.605123,-0.747872 -0.92548,-1.110871 -0.320357,-0.363 -0.652557,-0.718524 -0.996536,-1.06602 -0.34398,-0.347495 -0.69974,-0.686963 -1.067216,-1.01785 -0.367477,-0.330887 -0.746671,-0.653193 -1.13752,-0.966365 -0.390848,-0.313173 -0.793351,-0.617212 -1.207446,-0.911565 -0.414095,-0.294353 -0.839782,-0.579019 -1.276998,-0.853447 -0.131717,-0.08266 -0.265165,-0.164249 -0.400243,-0.244735 -0.135078,-0.08049 -0.271788,-0.159872 -0.410031,-0.238132 -0.138243,-0.07826 -0.278018,-0.155394 -0.419229,-0.231376 -0.141211,-0.07598 -0.283857,-0.150814 -0.427839,-0.224469 -0.143982,-0.07365 -0.289301,-0.146133 -0.435859,-0.21741 -0.146557,-0.07128 -0.294353,-0.141351 -0.443289,-0.210198 -0.148936,-0.06885 -0.299012,-0.136467 -0.45013,-0.202834 -0.151119,-0.06637 -0.303279,-0.131483 -0.456383,-0.19532 -0.153104,-0.06384 -0.307151,-0.126395 -0.462044,-0.187651 -0.154893,-0.06126 -0.310632,-0.121208 -0.467118,-0.179832 -0.156486,-0.05862 -0.313719,-0.115918 -0.471601,-0.17186 -0.157883,-0.05594 -0.316414,-0.110528 -0.475496,-0.163736 -0.159082,-0.05321 -0.318715,-0.105036 -0.478801,-0.15546 -0.160085,-0.05042 -0.320624,-0.09944 -0.481516,-0.147033 -0.160893,-0.04759 -0.32214,-0.09375 -0.483643,-0.138452 -0.161503,-0.0447 -0.323262,-0.08795 -0.485179,-0.129721 -0.161917,-0.04177 -0.323992,-0.08206 -0.486127,-0.120837 -0.162135,-0.03878 -0.324329,-0.07606 -0.486485,-0.1118 -0.162156,-0.03574 -0.324273,-0.06996 -0.486254,-0.102613 -0.16198,-0.03266 -0.323824,-0.06376 -0.485433,-0.09327 -0.161608,-0.02952 -0.322982,-0.05745 -0.484023,-0.08378 -0.16104,-0.02633 -0.321748,-0.05105 -0.482023,-0.07414 -0.160276,-0.02309 -0.320121,-0.04454 -0.479435,-0.06434 -0.159315,-0.0198 -0.3181,-0.03794 -0.476257,-0.05439 -0.158157,-0.01646 -0.315687,-0.03123 -0.47249,-0.04429 -0.156803,-0.01306 -0.31288,-0.02442 -0.468132,-0.03404 -0.155253,-0.0096 -0.309681,-0.01751 -0.463187,-0.02363 -0.153505,-0.0061 -0.306088,-0.01049 -0.457651,-0.01308 -0.151562,-0.0026 -0.302103,-0.0034 -0.451526,-0.0024 -0.149422,10e-4 -0.297725,0.0038 -0.444811,0.0085 -0.147086,0.0047 -0.292955,0.01115 -0.437508,0.01951 -0.144553,0.0084 -0.287791,0.01857 -0.429615,0.03067 m 3.90573,3.605958 c 0.563246,0.0665 1.116495,0.152377 1.659437,0.256757 0.542941,0.10438 1.075574,0.227261 1.597588,0.367767 0.522014,0.140505 1.033409,0.298634 1.533873,0.473508 0.500465,0.174875 0.989999,0.366496 1.468292,0.573984 0.478292,0.207488 0.945344,0.430845 1.400842,0.669191 0.455499,0.238346 0.899445,0.491682 1.331528,0.759131 0.432083,0.267448 0.852301,0.549009 1.260345,0.843803 0.408045,0.294795 0.803914,0.602824 1.187297,0.923209 0.383383,0.320385 0.754281,0.653127 1.112381,0.997346 0.3581,0.34422 0.703403,0.699919 1.035598,1.066218 0.332195,0.366298 0.651282,0.743198 0.95695,1.12982 0.305667,0.386622 0.597915,0.782966 0.876433,1.188156 0.278518,0.405189 0.543305,0.819223 0.79405,1.241224 0.250746,0.422001 0.48745,0.851968 0.709801,1.289025 0.222352,0.437056 0.43035,0.881202 0.623685,1.331559 0.193335,0.450356 0.372005,0.906924 0.535701,1.368825 0.163696,0.4619 0.312417,0.929134 0.445852,1.400823 0.133435,0.471689 0.251584,0.947834 0.354135,1.427555 0.102551,0.479722 0.189506,0.963021 0.260552,1.44902 0.07105,0.485998 0.126183,0.974696 0.165101,1.465215 0.03892,0.49052 0.06162,0.982861 0.06778,1.476146 0.0062,0.493284 -0.0042,0.987512 -0.0314,1.481807 -0.0272,0.494294 -0.07125,0.988653 -0.13245,1.482201 -0.0612,0.493548 -0.139551,0.986283 -0.235367,1.477329 -0.09582,0.491045 -0.209096,0.980401 -0.340152,1.467188 -0.131055,0.486788 -0.279885,0.971007 -0.446802,1.451781 -0.166916,0.480774 -0.351919,0.958102 -0.555319,1.431106 -0.203401,0.473004 -0.425198,0.941685 -0.665705,1.405164 -0.240506,0.463478 -0.499721,0.921756 -0.777955,1.373953 -0.278234,0.452198 -0.575488,0.898316 -0.892073,1.337477 -0.316585,0.439161 -0.652501,0.871364 -1.008058,1.295732 -0.355558,0.424368 -0.730757,0.840901 -1.12591,1.24872 -0.359515,0.371049 -0.727421,0.72589 -1.102999,1.06469 -0.375578,0.3388 -0.758827,0.66156 -1.149026,0.96845 -0.3902,0.30689 -0.787351,0.597909 -1.190732,0.873227 -0.403382,0.275318 -0.812994,0.534935 -1.228116,0.779021 -0.415122,0.244085 -0.835755,0.472638 -1.261177,0.685829 -0.425422,0.213191 -0.855634,0.411019 -1.289916,0.593654 -0.434282,0.182636 -0.872633,0.350078 -1.314334,0.502496 -0.4417,0.152419 -0.88675,0.289814 -1.334429,0.412354 -0.447678,0.12254 -0.897986,0.230226 -1.350202,0.323227 -0.452216,0.093 -0.906341,0.171317 -1.361653,0.235118 -0.455313,0.0638 -0.911814,0.113085 -1.368783,0.148023 -0.456968,0.03494 -0.914405,0.05553 -1.371589,0.06195 -0.457184,0.0064 -0.914116,-0.0013 -1.370075,-0.02312 -0.455958,-0.02177 -0.910944,-0.05755 -1.364237,-0.107161 -0.453293,-0.04962 -0.904892,-0.113069 -1.354078,-0.190192 -0.449186,-0.07712 -0.895959,-0.167913 -1.339598,-0.272204 -0.443638,-0.10429 -0.884143,-0.222081 -1.320794,-0.353201 -0.43665,-0.13112 -0.869447,-0.275571 -1.297668,-0.433182 -0.428222,-0.157611 -0.851869,-0.328384 -1.270222,-0.512147 -0.418352,-0.183764 -0.83141,-0.380519 -1.238452,-0.590096 -0.407042,-0.209577 -0.808069,-0.431976 -1.202361,-0.667027 -0.394291,-0.235052 -0.781847,-0.482757 -1.161947,-0.742945 -0.3801,-0.260188 -0.752744,-0.532859 -1.117212,-0.817844 C 35.93179,61.75796 35.575498,61.460661 35.228103,61.151217 34.880708,60.841773 34.54221,60.520184 34.213329,60.186621 33.884448,59.853057 33.565183,59.507518 33.256256,59.150173 32.947329,58.792828 32.648739,58.423677 32.361207,58.04289 32.073675,57.662102 31.7972,57.269678 31.532504,56.865787 c -0.264697,-0.403891 -0.517616,-0.81925 -0.758036,-1.245906 -0.24042,-0.426656 -0.468342,-0.86461 -0.683046,-1.313693 -0.214703,-0.449082 -0.416188,-0.909293 -0.603733,-1.380463 -0.187546,-0.471171 -0.361153,-0.9533 -0.5201,-1.446219 -0.152669,-0.473457 -0.288291,-0.947006 -0.407299,-1.420123 -0.119008,-0.473117 -0.221402,-0.945802 -0.307615,-1.417529 -0.08621,-0.471726 -0.156245,-0.942495 -0.210529,-1.411781 -0.05428,-0.469287 -0.09282,-0.93709 -0.116041,-1.402885 -0.02322,-0.465795 -0.03113,-0.929581 -0.02415,-1.390835 0.007,-0.461253 0.02883,-0.919973 0.06514,-1.375634 0.03631,-0.455662 0.08706,-0.908264 0.151832,-1.357283 0.06477,-0.449019 0.143557,-0.894454 0.235926,-1.33578 0.09237,-0.441326 0.198321,-0.878543 0.317423,-1.311126 0.119102,-0.432583 0.251353,-0.860531 0.39632,-1.28332 0.144968,-0.422789 0.302653,-0.840418 0.47262,-1.252363 0.169968,-0.411945 0.35222,-0.818205 0.546322,-1.218255 0.194102,-0.40005 0.400054,-0.79389 0.617424,-1.180995 0.21737,-0.387105 0.446157,-0.767474 0.685929,-1.140584 0.239771,-0.373109 0.490527,-0.738958 0.751835,-1.097021 0.261307,-0.358064 0.533166,-0.708342 0.815143,-1.050309 0.281977,-0.341967 0.574072,-0.675623 0.875853,-1.000443 0.30178,-0.32482 0.613246,-0.640804 0.933964,-0.947427 0.320718,-0.306623 0.650688,-0.603884 0.989477,-0.891259 0.338789,-0.287375 0.686398,-0.564864 1.042392,-0.831941 0.355994,-0.267077 0.720375,-0.523742 1.092708,-0.76947 0.372334,-0.245728 0.75262,-0.48052 1.140427,-0.703849 0.387806,-0.223329 0.783133,-0.435196 1.185546,-0.635076 0.402414,-0.199879 0.811914,-0.387772 1.228068,-0.563151 0.416154,-0.17538 0.838962,-0.338247 1.267991,-0.488077 0.429029,-0.149829 0.864279,-0.28662 1.305316,-0.409849 0.441038,-0.123228 0.887863,-0.232894 1.340043,-0.328471 0.45218,-0.09558 0.909715,-0.177066 1.372171,-0.243942 0.462456,-0.06687 0.929834,-0.119137 1.401701,-0.156261 0.471866,-0.03712 0.948221,-0.05911 1.428632,-0.06543 0.480411,-0.0063 0.964877,0.003 1.452966,0.02855 0.488089,0.02553 0.9798,0.06725 1.474701,0.12569"
       id="path876"
       sodipodi:nodetypes="cssssssssssssssssssssssssssssssscssssssssssssssssssssssssssssssscssssssssssssssssssssssssssssssscssssssssssssssssssssssssssssssscsssssssssssssssssssssssssssssssccssssssssssssssssssssssssssssssscssssssssssssssssssssssssssssssscsssssssssssssssssssssssssssssssc" />
  </g>
  <g
     inkscape:groupmode="layer"
     id="layer2"
     inkscape:label="images"
     style="display:none">
    <g
       id="g1673"
       transform="matrix(0.16179592,0,0,0.16179592,8.8306639,-80.644077)">
      <path
         inkscape:connector-curvature="0"
         id="path847"
         d="m 388.9649,198.11577 c -2.14132,-2.14133 -2.397,-3.99501 -2.397,-17.37828 0,-20.87482 -1.53269,-19.77528 27.56554,-19.77528 29.09823,0 27.56554,-1.09954 27.56554,19.77528 0,20.87482 1.53269,19.77528 -27.56554,19.77528 -21.17353,0 -22.93975,-0.16821 -25.16854,-2.397 z m 27.32584,-6.23221 c 0.79101,-0.79101 1.4382,-3.29335 1.4382,-5.56076 0,-2.26741 0.75453,-4.72134 1.67674,-5.45318 3.34837,-2.65721 3.44745,-6.50267 0.24993,-9.70019 -3.80461,-3.80461 -7.21658,-3.82776 -10.96991,-0.0744 -3.56862,3.56862 -3.70787,5.88014 -0.54477,9.04324 1.42852,1.42852 2.397,3.99501 2.397,6.35206 0,3.57075 1.71617,6.83146 3.59551,6.83146 0.3955,0 1.36629,-0.64719 2.1573,-1.4382 z"
         style="fill:#1f1f22;fill-opacity:1;stroke:none;stroke-width:9.0595417;stroke-miterlimit:4;stroke-dasharray:none;stroke-opacity:1" />
      <path
         inkscape:connector-curvature="0"
         id="path849"
         d="m 401.68147,151.07463 c 0,-6.79756 0.65014,-8.92753 3.60422,-11.808 1.63377,-1.59307 2.8671,-2.37939 4.48622,-2.86021 6.35044,-1.88588 13.04727,0.65603 15.47734,5.87472 0.898,1.92851 1.00096,2.74578 1.00467,7.97505 l 0.004,5.82635 h -2.33054 -2.33054 l -6.5e-4,-5.19075 c -5.1e-4,-4.09609 -0.1569,-5.50172 -0.74154,-6.66537 -2.01934,-4.01925 -8.32541,-5.08411 -11.83897,-1.99916 -2.25936,1.98375 -2.67327,3.37242 -2.67327,8.96872 v 4.88656 h -2.33054 -2.33054 z"
         style="fill:#1f1f22;fill-opacity:1;stroke:none;stroke-width:3.20303178;stroke-miterlimit:4;stroke-dasharray:none;stroke-opacity:1" />
    </g>
    <path
       style="fill:#1f1f22;fill-opacity:1;stroke:none;stroke-width:0.87477893;stroke-miterlimit:4;stroke-dasharray:none;stroke-opacity:1"
       d="m 19.272729,33.641601 c -1.304915,-1.621732 -2.248821,-2.908032 -2.457965,-3.349566 -1.070175,-2.25931 -0.312459,-4.998507 1.766763,-6.386959 2.227829,-1.487687 4.983483,-1.150111 6.773147,0.829736 1.391277,1.539128 1.697092,3.870897 0.751256,5.72822 -0.185284,0.363842 -0.890281,1.338527 -1.566658,2.165966 -0.676376,0.827441 -1.624462,1.986148 -2.106856,2.574903 -0.482393,0.588756 -0.914018,1.070467 -0.959166,1.070467 -0.04515,0 -1.035383,-1.184747 -2.200521,-2.632767 z m 3.182924,-3.60251 c 1.336063,-0.606887 1.732072,-2.363186 0.78629,-3.487186 -0.595678,-0.707923 -1.700807,-1.00532 -2.548364,-0.685776 -0.441856,0.166586 -1.070653,0.779409 -1.265388,1.233239 -0.20473,0.47713 -0.20473,1.324057 0,1.801188 0.204868,0.477447 0.865219,1.106213 1.297632,1.235561 0.555598,0.166195 1.234135,0.128138 1.72983,-0.09703 z"
       id="path851"
       inkscape:connector-curvature="0" />
    <path
       style="fill:#1f1f22;fill-opacity:1;stroke:none;stroke-width:1.06561983;stroke-miterlimit:4;stroke-dasharray:none;stroke-opacity:1"
       d="m 43.601427,14.756058 c -0.79905,-0.543831 -1.042043,-0.998743 -1.094259,-2.048613 -0.05449,-1.095609 0.165621,-1.569731 1.037471,-2.234724 0.463495,-0.353523 0.649938,-0.404001 1.492217,-0.404001 h 0.962538 V 9.2352663 c 0,-1.056165 0.433599,-1.8521135 1.262849,-2.3181781 0.699379,-0.3930715 1.743559,-0.4314629 2.406798,-0.088484 0.244618,0.1264949 0.458064,0.2094541 0.474325,0.1843522 0.01626,-0.025086 0.140688,-0.2231191 0.276507,-0.4400424 0.794555,-1.2690533 2.861916,-1.2537165 3.717876,0.02758 0.176005,0.263455 0.320001,0.6586486 0.320001,0.878211 0,0.3193573 0.105742,0.4531763 0.528651,0.6690163 0.873341,0.445737 1.44497,1.308935 1.44497,2.1820177 0,0.405103 0.08127,0.534432 0.485834,0.773132 0.554624,0.327238 1.064862,1.216448 1.064862,1.855786 0,0.621567 -0.500243,1.516019 -1.027736,1.837651 -0.431072,0.262836 -0.746606,0.275912 -6.669668,0.276415 -6.215804,5.81e-4 -6.217297,3.87e-4 -6.683236,-0.316665 z"
       id="path853"
       inkscape:connector-curvature="0" />
    <g
       transform="matrix(0.13600533,0,0,0.13600533,-9.3343474,-12.13572)"
       id="g1669">
      <path
         inkscape:connector-curvature="0"
         id="path855"
         d="m 637.70567,340.93667 c 0.0111,-3.13379 3.76619,-7.94123 7.04913,-9.0247 l 1.42142,-0.46911 v -9.26074 c 0,-8.79052 -0.0417,-9.27398 -0.82137,-9.52144 -1.25233,-0.39747 -3.31843,-2.97426 -3.87542,-4.83333 -0.91108,-3.04089 0.45553,-6.42741 3.3924,-8.40657 1.6839,-1.13478 5.32342,-1.32089 7.15178,-0.36571 3.17377,1.65806 4.91773,5.4896 3.95745,8.69471 -0.57685,1.92535 -2.62646,4.50712 -3.89866,4.9109 -0.77958,0.24743 -0.82137,0.73066 -0.82137,9.49673 v 9.23604 l 1.87337,0.71544 c 3.28131,1.25315 6.60132,5.63279 6.60132,8.70824 v 1.28481 h -11.0171 -11.01709 l 0.004,-1.16527 z"
         style="fill:#1f1f22;fill-opacity:1;stroke:none;stroke-width:3.20303178;stroke-miterlimit:4;stroke-dasharray:none;stroke-opacity:1" />
      <path
         inkscape:connector-curvature="0"
         id="path857"
         d="m 631.18177,323.8352 c -13.62085,-11.98955 -10.53222,-34.73535 5.80376,-42.74098 4.96512,-2.43321 8.10435,-3.12535 13.00401,-2.86716 6.95683,0.3666 12.17321,2.70758 17.18434,7.7119 5.25397,5.24684 7.82285,11.24038 7.81001,18.22184 -0.0123,6.68415 -2.44191,12.98435 -6.87157,17.81855 -3.69764,4.03532 -3.76883,4.05122 -5.84254,1.30461 l -1.73886,-2.30311 1.90958,-1.76019 c 2.37421,-2.18847 4.22407,-5.03377 5.39452,-8.2974 1.25712,-3.50533 1.25712,-9.56203 0,-13.06736 -5.22547,-14.5705 -23.88883,-18.35918 -34.16051,-6.9346 -6.26259,6.9655 -6.81381,17.75622 -1.29033,25.25934 0.99917,1.35727 2.44766,2.96159 3.21887,3.56516 1.36462,1.06797 1.38299,1.12391 0.68513,2.08681 -0.3944,0.54418 -1.14347,1.60677 -1.66461,2.36131 -0.52113,0.75454 -1.06368,1.37425 -1.20566,1.37713 -0.14198,0.003 -1.14824,-0.77824 -2.23614,-1.73585 z"
         style="fill:#1f1f22;fill-opacity:1;stroke:none;stroke-width:3.20303178;stroke-miterlimit:4;stroke-dasharray:none;stroke-opacity:1" />
      <path
         inkscape:connector-curvature="0"
         id="path859"
         d="m 626.55471,337.44141 c -3.66782,-2.45319 -9.19964,-8.14334 -11.23929,-11.56099 -1.87815,-3.14703 -4.10121,-8.35045 -5.0178,-11.74495 -1.16893,-4.32899 -1.05503,-14.799 0.20975,-19.27991 3.11572,-11.03861 10.58224,-20.16756 20.62628,-25.21876 6.29288,-3.16474 9.66604,-3.93485 17.37311,-3.96642 7.58949,-0.0311 11.7512,0.83419 17.25505,3.58752 4.93405,2.4683 8.12251,4.84648 12.00887,8.95707 4.01204,4.24354 7.2205,9.76282 8.9345,15.36938 1.08231,3.54028 1.16588,4.34508 1.16588,11.22896 0,6.86186 -0.0857,7.69358 -1.14764,11.14277 -2.01644,6.54923 -5.19771,11.95102 -9.76392,16.57912 -2.41651,2.44927 -8.43024,7.02433 -9.23318,7.02433 -0.3485,0 -3.08385,-5.08848 -2.8276,-5.26009 7.96415,-5.33347 12.1561,-10.22361 15.12953,-17.64939 1.49337,-3.72953 2.15777,-7.40477 2.16219,-11.96053 0.005,-5.23003 -0.99298,-9.23468 -3.65459,-14.66394 -2.11649,-4.3173 -2.78521,-5.24736 -6.30007,-8.76223 -3.44048,-3.44048 -4.48125,-4.19922 -8.32209,-6.06703 -5.1561,-2.50742 -8.15347,-3.35716 -13.07639,-3.70708 -13.08798,-0.93029 -26.14299,6.70513 -31.98214,18.70524 -2.42083,4.97507 -3.34743,9.03241 -3.33862,14.61883 0.008,5.34516 0.60731,8.24719 2.78416,13.49151 2.33331,5.62126 7.91962,12.05172 13.01945,14.98681 l 1.62551,0.93553 -1.31475,2.66619 c -0.72312,1.4664 -1.44854,2.66618 -1.61205,2.66618 -0.16351,0 -1.72238,-0.95315 -3.46415,-2.11812 z"
         style="fill:#1f1f22;fill-opacity:1;stroke:none;stroke-width:3.20303178;stroke-miterlimit:4;stroke-dasharray:none;stroke-opacity:1" />
    </g>
    <path
       style="fill:#1f1f22;fill-opacity:1;stroke:none;stroke-width:0.63104236;stroke-miterlimit:4;stroke-dasharray:none;stroke-opacity:1"
       d="m 46.99669,82.553705 c -0.145677,-0.145675 -0.146649,-10.591087 -10e-4,-10.736739 0.07429,-0.07428 0.89383,-0.100182 3.170713,-0.100182 h 3.070534 l 0.04551,0.187835 c 0.02503,0.103306 0.03513,2.554536 0.02245,5.447175 l -0.02304,5.259344 -3.091997,0.02188 c -2.3352,0.01652 -3.116761,-0.0028 -3.193173,-0.07931 z m 3.805765,-0.501887 c 0.0551,-0.0551 0.100171,-0.310552 0.100171,-0.567677 0,-0.257122 -0.04509,-0.512577 -0.100171,-0.567673 -0.0551,-0.0551 -0.291771,-0.100182 -0.525938,-0.100182 -0.234162,0 -0.470834,0.04509 -0.525933,0.100182 -0.0551,0.0551 -0.100183,0.310551 -0.100183,0.567673 0,0.257125 0.04509,0.512577 0.100183,0.567677 0.129986,0.129982 0.921886,0.129982 1.051871,0 z m 2.053064,-1.868469 c 0.02787,-0.07263 0.05068,-1.755619 0.05068,-3.739977 0,-2.694859 -0.02535,-3.633281 -0.100182,-3.708108 -0.07364,-0.07364 -0.790165,-0.100182 -2.704221,-0.100182 -2.297538,0 -2.61001,0.01554 -2.654716,0.13205 -0.06618,0.172459 -0.06618,7.243754 0,7.416211 0.04474,0.11658 0.361541,0.132052 2.70422,0.132052 2.342679,0 2.659486,-0.01546 2.704222,-0.132052 z m -1.884471,-8.028278 c 0.02616,-0.184156 0.01023,-0.187835 -0.816567,-0.187835 -0.69616,0 -0.852185,0.02333 -0.894526,0.133647 -0.08488,0.221199 0.143376,0.285603 0.933082,0.263269 0.708127,-0.02004 0.752867,-0.03205 0.778011,-0.209081 z"
       id="path861"
       inkscape:connector-curvature="0" />
    <g
       id="g1685"
       transform="matrix(0.26591528,0,0,0.26591528,-106.43337,-108.98776)">
      <path
         inkscape:connector-curvature="0"
         id="path863"
         d="m 482.45687,661.6811 c -0.34354,-0.24063 -0.79439,-0.84737 -1.00189,-1.34831 -0.48295,-1.16595 -9e-4,-2.45728 1.24971,-3.3478 0.70164,-0.49961 0.85769,-0.81101 0.7844,-1.56526 l -0.0915,-0.94158 -5.39326,-0.14981 c -2.96629,-0.0824 -5.60364,-0.28464 -5.86078,-0.44944 -1.35564,-0.8688 -1.48195,-1.51163 -1.44077,-7.33258 l 0.0393,-5.55131 6.71441,-6.57711 6.71441,-6.57711 6.57965,6.57456 6.57966,6.57455 v 5.93378 c 0,7.91966 0.47835,7.40466 -6.87777,7.40466 h -5.40688 v 1.06804 c 0,0.81887 0.2097,1.24448 0.89888,1.82438 0.77069,0.6485 0.89887,0.9631 0.89887,2.2061 0,1.20931 -0.13093,1.55274 -0.78947,2.07075 -0.92907,0.7308 -2.68748,0.82051 -3.59695,0.18349 z"
         style="fill:#1f1f22;fill-opacity:1;stroke:none;stroke-width:2.26488543;stroke-miterlimit:4;stroke-dasharray:none;stroke-opacity:1" />
      <path
         inkscape:connector-curvature="0"
         id="path865"
         d="m 466.76839,637.54932 c -0.38507,-0.38507 -0.59925,-0.99876 -0.59925,-1.71699 0,-1.06445 0.40377,-1.52151 8.47028,-9.58801 7.83101,-7.83102 8.54855,-8.47028 9.50735,-8.47028 0.95933,0 1.68631,0.64925 9.69979,8.66272 8.4759,8.47591 8.6585,8.68388 8.46662,9.64327 -0.29515,1.47578 -0.98585,2.06854 -2.41032,2.06854 -1.20264,0 -1.37071,-0.14163 -7.66892,-6.46197 -3.54163,-3.55408 -6.79906,-6.65295 -7.23872,-6.88637 -0.64717,-0.34358 -0.93401,-0.35404 -1.50629,-0.0549 -0.3888,0.20324 -3.64703,3.3021 -7.24053,6.88637 -6.28423,6.2681 -6.57842,6.51686 -7.70719,6.51686 -0.77407,0 -1.37757,-0.204 -1.77282,-0.59925 z"
         style="fill:#1f1f22;fill-opacity:1;stroke:none;stroke-width:2.26488543;stroke-miterlimit:4;stroke-dasharray:none;stroke-opacity:1" />
      <path
         inkscape:connector-curvature="0"
         id="path867"
         d="m 488.18568,660.75504 c 0,-0.0627 0.0325,-0.11402 0.0723,-0.11402 0.13344,0 0.26083,-0.3335 0.30043,-0.78651 l 0.0393,-0.44944 h 6.19228 c 3.40575,0 6.21488,0.0226 6.24252,0.0503 0.0276,0.0276 0.0682,0.24855 0.0902,0.4909 0.0358,0.39446 0.0201,0.46376 -0.14987,0.66135 l -0.18983,0.22071 -6.29864,0.0204 c -5.5985,0.0181 -6.29864,0.008 -6.29864,-0.0936 z"
         style="fill:#1f1f22;fill-opacity:1;stroke:none;stroke-width:0.56622136;stroke-miterlimit:4;stroke-dasharray:none;stroke-opacity:1" />
      <path
         inkscape:connector-curvature="0"
         id="path869"
         d="m 467.60979,660.8119 c -0.17712,-0.0222 -0.24485,-0.0723 -0.26217,-0.19401 -0.0129,-0.0903 -0.0992,-0.19741 -0.1919,-0.23808 -0.23001,-0.10091 -0.2403,-0.52989 -0.0144,-0.60157 0.0848,-0.0269 0.18505,-0.1303 0.22287,-0.22977 l 0.0688,-0.18086 h 6.21908 6.21908 l 0.005,0.16854 c 0.003,0.0927 0.0291,0.41208 0.0589,0.70974 0.0428,0.42659 0.0326,0.54952 -0.0482,0.58052 -0.11716,0.045 -11.91256,0.031 -12.27661,-0.0145 z"
         style="fill:#1f1f22;fill-opacity:1;stroke:none;stroke-width:0.56622136;stroke-miterlimit:4;stroke-dasharray:none;stroke-opacity:1" />
    </g>
    <g
       id="g1689"
       transform="matrix(0.18805683,0,0,0.18805683,11.799176,-44.178471)">
      <path
         inkscape:connector-curvature="0"
         id="path871"
         d="m 346.51206,554.05049 c -2.8802,-3.65286 -5.32145,-6.87334 -5.42501,-7.1566 -0.10355,-0.28327 1.10993,-0.59793 2.69663,-0.69925 l 2.88491,-0.18422 0.29963,-6.89139 0.29962,-6.89138 4.4,-0.17719 c 2.72806,-0.10985 4.7205,0.0888 5.24345,0.52282 0.6305,0.52326 0.84345,2.34571 0.84345,7.21838 v 6.51838 h 2.69663 c 1.48314,0 2.69662,0.16538 2.69662,0.3675 0,0.4472 -10.79134,14.01453 -11.14704,14.01453 -0.13869,0 -2.60869,-2.98871 -5.48889,-6.64158 z"
         style="fill:#1f1f22;fill-opacity:1;stroke:none;stroke-width:4.52977085;stroke-miterlimit:4;stroke-dasharray:none;stroke-opacity:1" />
      <path
         inkscape:connector-curvature="0"
         id="path873"
         d="m 333.05659,572.13994 c -0.10257,-0.1236 -0.27712,-0.22472 -0.38788,-0.22472 -0.26167,0 -1.26006,-0.9984 -1.26006,-1.26006 0,-0.11076 -0.10112,-0.28531 -0.22472,-0.38788 -0.19165,-0.15906 -0.22472,-0.93268 -0.22472,-5.25718 0,-5.78935 -0.0111,-5.73183 1.32719,-6.87898 l 0.69529,-0.59599 1.36742,-9.7e-4 c 1.03362,-7.3e-4 1.41295,0.0539 1.55392,0.22375 0.10258,0.1236 0.24566,0.22472 0.31797,0.22472 0.16228,0 0.54807,0.39458 0.99289,1.01548 0.32034,0.44714 0.33708,0.60761 0.33708,3.22978 0,2.14231 0.0455,2.79702 0.20354,2.92818 0.14861,0.12333 4.02049,0.15861 14.34457,0.1307 l 14.14103,-0.0382 0.10595,-2.75265 c 0.0832,-2.16052 0.15567,-2.8076 0.33708,-3.00805 0.12712,-0.14047 0.23113,-0.30066 0.23113,-0.35596 0,-0.14843 0.57756,-0.69982 0.73303,-0.69982 0.0736,0 0.17259,-0.10112 0.22002,-0.22472 0.0474,-0.12359 0.24401,-0.22472 0.43684,-0.22472 0.19283,0 0.48146,-0.099 0.6414,-0.21995 0.37397,-0.28286 1.25634,-0.28286 1.6303,0 0.15995,0.12097 0.40203,0.21995 0.53797,0.21995 0.33287,0 1.5992,1.21325 1.78993,1.7149 0.0927,0.24372 0.15283,2.34275 0.15283,5.33144 0,4.66037 -0.0166,4.96127 -0.30377,5.51225 -0.33153,0.63606 -0.87207,1.15385 -1.62987,1.56126 -0.45697,0.24569 -1.66358,0.26218 -19.18375,0.26218 -16.436,0 -18.71865,-0.0272 -18.88261,-0.22472 z"
         style="fill:#1f1f22;fill-opacity:1;stroke:none;stroke-width:1.13244271;stroke-miterlimit:4;stroke-dasharray:none;stroke-opacity:1" />
    </g>
    <g
       id="g1679"
       transform="matrix(0.26458333,0,0,0.26458333,-37.369363,-111.0149)">
      <path
         inkscape:connector-curvature="0"
         id="path875"
         d="m 246.96041,231.73618 v -25.91895 h 2.69663 2.69663 v 22.62172 22.62172 h 29.52324 29.52325 l -0.085,3.22098 -0.085,3.22097 -32.13483,0.0763 -32.13483,0.0763 z"
         style="fill:#1f1f22;fill-opacity:1;stroke:none;stroke-width:2.26488543;stroke-miterlimit:4;stroke-dasharray:none;stroke-opacity:1" />
      <path
         inkscape:connector-curvature="0"
         id="path877"
         d="m 260.90998,241.70562 c -0.70271,-1.00327 -0.70271,-25.53007 0,-26.53333 0.44624,-0.6371 0.65822,-0.66592 4.89738,-0.66592 3.91212,0 4.48902,0.0642 4.92683,0.54793 0.44525,0.49199 0.49588,1.86405 0.49588,13.43671 0,12.10591 -0.0333,12.91889 -0.54794,13.38465 -0.45724,0.4138 -1.27269,0.49588 -4.92683,0.49588 -4.18536,0 -4.3995,-0.0294 -4.84532,-0.66592 z"
         style="fill:#1f1f22;fill-opacity:1;stroke:none;stroke-width:2.26488543;stroke-miterlimit:4;stroke-dasharray:none;stroke-opacity:1" />
      <path
         inkscape:connector-curvature="0"
         id="path879"
         d="m 278.84878,241.31702 c -0.37513,-0.8978 -0.42851,-3.8987 -0.35925,-20.1934 0.078,-18.33808 0.10525,-19.16527 0.65215,-19.76946 0.52914,-0.58456 0.88096,-0.63056 4.82247,-0.63056 3.73845,0 4.31156,0.0661 4.74757,0.54793 0.45088,0.49822 0.49588,2.34292 0.49588,20.3281 0,18.78217 -0.0276,19.80517 -0.54794,20.27603 -0.45763,0.41415 -1.27494,0.49588 -4.95911,0.49588 h -4.41117 z"
         style="fill:#1f1f22;fill-opacity:1;stroke:none;stroke-width:2.26488543;stroke-miterlimit:4;stroke-dasharray:none;stroke-opacity:1" />
      <path
         inkscape:connector-curvature="0"
         id="path881"
         d="m 296.85574,241.48754 c -0.38618,-0.74679 -0.45713,-2.64729 -0.45713,-12.24424 0,-14.21249 -0.54305,-12.93918 5.51838,-12.93918 3.76237,0 4.33599,0.0659 4.77226,0.54794 0.44403,0.49064 0.49588,1.80158 0.49588,12.53783 0,11.23509 -0.0345,12.02111 -0.54794,12.48577 -0.45736,0.4139 -1.27334,0.49588 -4.93613,0.49588 h -4.38818 z"
         style="fill:#1f1f22;fill-opacity:1;stroke:none;stroke-width:2.26488543;stroke-miterlimit:4;stroke-dasharray:none;stroke-opacity:1" />
    </g>
  </g>
</svg>
