<?xml version="1.0" encoding="UTF-8" standalone="no"?>
<svg
   xmlns:dc="http://purl.org/dc/elements/1.1/"
   xmlns:cc="http://creativecommons.org/ns#"
   xmlns:rdf="http://www.w3.org/1999/02/22-rdf-syntax-ns#"
   xmlns:svg="http://www.w3.org/2000/svg"
   xmlns="http://www.w3.org/2000/svg"
   xmlns:sodipodi="http://sodipodi.sourceforge.net/DTD/sodipodi-0.dtd"
   xmlns:inkscape="http://www.inkscape.org/namespaces/inkscape"
   id="svg"
   version="1.1"
   width="400"
   height="133.33333333333334"
   viewBox="0 0 400 133.33333333333334"
   sodipodi:docname="image2vector.svg"
   inkscape:version="0.92.4 (unknown)">
  <metadata
     id="metadata13">
    <rdf:RDF>
      <cc:Work
         rdf:about="">
        <dc:format>image/svg+xml</dc:format>
        <dc:type
           rdf:resource="http://purl.org/dc/dcmitype/StillImage" />
        <dc:title></dc:title>
      </cc:Work>
    </rdf:RDF>
  </metadata>
  <defs
     id="defs11" />
  <sodipodi:namedview
     pagecolor="#ffffff"
     bordercolor="#666666"
     borderopacity="1"
     objecttolerance="10"
     gridtolerance="10"
     guidetolerance="10"
     inkscape:pageopacity="0"
     inkscape:pageshadow="2"
     inkscape:window-width="640"
     inkscape:window-height="480"
     id="namedview9"
     showgrid="false"
     inkscape:zoom="1.64375"
     inkscape:cx="130.16643"
     inkscape:cy="162.55583"
     inkscape:current-layer="svg" />
  <path
     style="fill:#040404;fill-rule:evenodd;stroke:none"
     inkscape:connector-curvature="0"
     d="m 337.5,59.25 v 29.583 h 2.083 2.084 V 59.25 29.667 H 339.583 337.5 V 59.25 M 155,60.408 v 28.425 h 2.167 2.166 V 78.25 67.667 h 7.007 c 10.132,0 13.079,-0.454 17.577,-2.707 12.867,-6.443 13.17,-24.428 0.514,-30.544 -4.569,-2.208 -5.274,-2.299 -18.389,-2.372 L 155,31.983 v 28.425 m 110.167,-3.185 c 0,25.789 -0.071,24.182 1.18,26.739 2.447,5.005 10.412,7.112 16.575,4.386 l 0.745,-0.329 v -1.926 c 0,-1.06 -0.019,-1.926 -0.042,-1.926 -0.023,0 -0.77,0.26 -1.66,0.578 -5.526,1.976 -10.618,0.513 -12.111,-3.478 -0.624,-1.669 -0.687,-3.214 -0.687,-16.888 V 51.167 h 7.333 7.333 V 49.25 47.333 H 276.5 269.167 V 40.75 34.167 h -2 -2 V 57.223 M 288,37.5 v 3.333 h 2.083 2.084 V 37.5 34.167 H 290.083 288 V 37.5 M 177.543,36.477 c 7.688,1.719 11.649,6.198 11.64,13.161 -0.011,7.709 -5.76,12.985 -15.1,13.857 -1.008,0.094 -4.739,0.171 -8.291,0.172 h -6.459 V 49.821 35.975 l 8.292,0.069 c 7.771,0.065 8.394,0.092 9.918,0.433 m 32.29,10.363 c -3.341,0.409 -11.333,2.827 -11.333,3.429 0,0.159 1.365,3.328 1.486,3.449 0.074,0.075 0.876,-0.198 1.782,-0.604 5.663,-2.542 11.767,-3.226 16.513,-1.85 5.319,1.541 8.035,5.252 8.337,11.387 l 0.102,2.068 -0.485,-0.103 c -6.23,-1.324 -7.727,-1.503 -12.652,-1.514 -12.068,-0.027 -18.743,4.778 -18.748,13.496 -0.009,13.537 21.007,18.137 30.812,6.744 l 1.02,-1.184 v 3.338 3.337 h 2.006 2.006 l -0.051,-14.708 -0.05,-14.708 -0.436,-1.586 C 227.902,49.687 220.28,45.562 209.833,46.84 m 25.834,21.243 v 20.75 h 2.073 2.072 l 0.066,-10.125 c 0.072,-11.069 0.054,-10.845 1.129,-14.078 2.507,-7.541 10.253,-13.297 17.894,-13.297 h 1.266 v -2.005 -2.006 l -0.792,0.083 c -0.435,0.046 -1.317,0.127 -1.958,0.181 -6.904,0.579 -13.724,4.597 -16.988,10.011 l -0.595,0.986 v -5.625 l -0.001,-5.625 h -2.083 -2.083 v 20.75 m 52.333,0 v 20.75 h 2.083 2.084 V 68.083 47.333 H 290.083 288 v 20.75 m 26.196,-20.571 c -14.28,1.854 -22.411,18.139 -15.572,31.189 6.587,12.569 22.996,14.831 33.263,4.585 1.714,-1.711 1.711,-1.455 0.037,-2.927 l -1.325,-1.166 -1.482,1.41 c -5.398,5.137 -11.938,6.663 -17.95,4.188 -15.629,-6.433 -13.423,-30.516 3.058,-33.397 5.073,-0.886 10.001,0.852 14.507,5.118 l 1.45,1.372 0.59,-0.567 c 0.325,-0.312 0.97,-1.002 1.434,-1.534 l 0.842,-0.967 -0.566,-0.588 c -4.944,-5.14 -11.598,-7.584 -18.286,-6.716 M 362.368,47.5 c -18.903,2.666 -23.152,31.329 -5.939,40.061 7.882,3.999 17.513,2.483 24.197,-3.808 1.816,-1.71 1.794,-1.61 0.589,-2.67 -1.866,-1.641 -1.495,-1.63 -3.233,-0.094 -11.087,9.796 -26.313,4.351 -28.047,-10.031 l -0.095,-0.791 h 16.747 16.746 v -2.234 c 0,-12.898 -9.404,-22.064 -20.965,-20.433 m 6.382,4.162 c 5.57,1.773 9.443,7.022 10.18,13.796 l 0.113,1.042 h -14.601 -14.6 l 0.092,-0.542 c 1.221,-7.147 4.448,-11.768 9.687,-13.873 2.555,-1.026 6.639,-1.216 9.129,-0.423 M 219.917,67.237 c 0.916,0.146 2.81,0.5 4.208,0.788 l 2.542,0.524 v 3.107 c 0,3.405 -0.147,4.307 -0.996,6.132 -4.919,10.569 -24.341,10.739 -26.334,0.23 -1.024,-5.396 2.596,-9.672 9.25,-10.925 1.764,-0.333 8.891,-0.242 11.33,0.144"
     id="path0" />
  <path
     style="fill:#6c6c74;fill-rule:evenodd;stroke:none"
     inkscape:connector-curvature="0"
     d="m 189,19.25 v 9.083 h 1.083 1.084 V 19.25 10.167 H 190.083 189 v 9.083 m 51,0 v 9.083 h 0.987 0.988 l 0.056,-4.208 c 0.078,-5.747 0.794,-7.118 3.719,-7.118 2.866,0 3.417,1.127 3.417,6.988 v 4.338 h 1.083 1.083 v -4.381 c 0,-4.783 -0.126,-5.728 -0.928,-6.939 -1.577,-2.384 -5.714,-2.606 -7.735,-0.415 L 242,17.326 v -3.58 -3.579 h -1 -1 v 9.083 m 27.333,0 v 9.083 h 0.988 0.987 l 0.057,-4.208 c 0.048,-3.601 0.099,-4.304 0.355,-4.875 1.277,-2.858 5.202,-3.06 6.464,-0.333 0.275,0.594 0.309,1.139 0.312,5.041 l 0.004,4.375 h 1.083 1.084 v -4.381 c 0,-4.783 -0.127,-5.728 -0.928,-6.939 -1.574,-2.378 -5.721,-2.6 -7.735,-0.415 l -0.671,0.728 v -3.58 -3.579 h -1 -1 v 9.083 m -83.166,-7.667 v 1.084 h 1.166 1.167 V 11.583 10.5 h -1.167 -1.166 v 1.083 m 42.833,0 v 1.084 h 1.167 1.166 V 11.583 10.5 H 228.167 227 v 1.083 m -72,7.989 v 8.761 l 4.125,-10e-4 c 5.495,-0.002 6.968,-0.274 8.507,-1.576 2.428,-2.053 1.395,-6.675 -1.641,-7.341 l -0.49,-0.108 0.785,-0.528 c 2.711,-1.826 2.249,-5.96 -0.823,-7.379 L 164.417,10.917 159.708,10.863 155,10.81 v 8.762 m 39.333,-6.155 v 1.916 h -0.916 -0.917 v 0.917 0.917 h 0.909 0.909 l 0.049,4.541 c 0.059,5.382 0.102,5.547 1.642,6.347 0.818,0.425 1.031,0.464 2.158,0.396 1.959,-0.117 2.166,-0.249 2.166,-1.381 0,-0.829 -0.034,-0.925 -0.291,-0.819 -3.047,1.259 -3.709,0.335 -3.709,-5.179 v -3.905 h 2 2 V 16.25 15.333 h -2 -2 V 13.417 11.5 h -1 -1 v 1.917 m 38.167,0 v 1.916 h -0.917 -0.916 v 0.917 0.917 h 0.916 0.917 l 0.004,4.458 c 0.004,4.935 0.097,5.455 1.102,6.16 1.072,0.753 3.237,0.936 4.436,0.376 0.557,-0.261 0.739,-2.138 0.187,-1.926 -1.58,0.606 -2.861,0.436 -3.403,-0.452 -0.298,-0.49 -0.325,-0.861 -0.325,-4.575 L 234.5,17.167 h 2 2 V 16.25 15.333 h -2 -2 V 13.417 11.5 h -1 -1 v 1.917 m 27.333,0 v 1.916 H 258.917 258 v 0.917 0.917 h 0.909 0.909 l 0.05,4.637 0.049,4.638 0.443,0.67 c 0.791,1.194 3.419,1.766 5.015,1.09 0.576,-0.243 0.741,-2.18 0.167,-1.958 -1.614,0.624 -2.927,0.403 -3.417,-0.577 -0.253,-0.506 -0.291,-1.107 -0.291,-4.542 l -10e-4,-3.958 h 2 2 V 16.25 15.333 h -2 -2 V 13.417 11.5 h -1 -1 v 1.917 m -95.71,-0.34 c 2.608,1.075 2.258,4.475 -0.54,5.239 -0.366,0.1 -1.998,0.183 -3.625,0.183 L 157,18.5 v -2.938 -2.938 l 3.208,0.08 c 2.536,0.064 3.357,0.143 3.915,0.373 m 120.985,2.093 c -4.23,0.735 -6.433,5.943 -4.289,10.138 1.817,3.554 7.197,4.335 10.281,1.492 0.804,-0.741 0.796,-0.829 -0.129,-1.487 l -0.475,-0.338 -0.651,0.516 c -2.72,2.154 -6.409,1.34 -7.424,-1.636 -0.436,-1.28 -0.803,-1.188 4.769,-1.188 h 5.023 l -0.088,-1.459 c -0.249,-4.136 -3.224,-6.697 -7.017,-6.038 M 170.5,19.886 c 0,5.076 0.098,5.727 1.047,6.973 1.621,2.124 5.649,2.237 7.56,0.211 l 0.56,-0.594 v 0.929 0.928 h 1.083 1.083 v -6.5 -6.5 h -1.083 -1.083 v 4.231 4.231 l -0.466,0.892 c -1.515,2.899 -5.846,2.45 -6.516,-0.676 -0.106,-0.491 -0.185,-2.539 -0.185,-4.769 v -3.909 h -1 -1 v 4.553 m 13.833,1.947 v 6.5 h 1 1 v -6.5 -6.5 h -1 -1 v 6.5 M 206.5,15.489 c 0,0.085 0.985,3.01 2.189,6.5 l 2.189,6.344 h 0.943 0.943 l 1.658,-4.849 c 1.548,-4.526 1.671,-4.817 1.853,-4.375 0.107,0.261 0.858,2.443 1.668,4.848 l 1.474,4.374 0.936,0.001 0.936,10e-4 1.376,-3.958 c 0.757,-2.177 1.778,-5.105 2.268,-6.508 l 0.892,-2.549 -1.116,0.049 -1.116,0.05 -1.613,4.916 c -1.37,4.178 -1.636,4.854 -1.769,4.5 -0.086,-0.229 -0.853,-2.46 -1.704,-4.958 l -1.548,-4.542 h -0.858 -0.857 l -1.664,5.017 -1.663,5.016 -1.647,-5.016 -1.646,-5.017 h -1.062 c -0.584,0 -1.062,0.07 -1.062,0.156 m 20.667,6.344 v 6.5 h 1 1 v -6.5 -6.5 h -1 -1 v 6.5 m 60.609,-4.612 c 1.048,0.541 1.896,1.734 2.202,3.098 L 290.131,21 h -4.001 -4 l 0.115,-0.617 c 0.494,-2.631 3.374,-4.278 5.531,-3.162 M 165.25,21 c 2.418,1.21 2.025,4.293 -0.65,5.088 -0.61,0.181 -1.715,0.245 -4.214,0.245 H 157 v -2.928 -2.928 l 3.708,0.053 c 3.569,0.051 3.74,0.069 4.542,0.47 m 118.917,84.167 V 117 h 1.333 1.333 V 105.167 93.333 h -1.333 -1.333 v 11.834 m 37.104,-11.589 c -1.888,0.673 -2.821,2.261 -2.913,4.962 l -0.062,1.793 H 317.148 316 v 1.167 1.167 h 1.167 1.166 v 7.166 7.167 h 1.25 1.25 v -7.167 -7.166 h 2.667 2.667 v -1.167 -1.167 h -2.667 -2.667 v -0.825 c 0,-3.335 1.786,-4.612 5.015,-3.587 0.316,0.101 0.331,0.041 0.285,-1.109 -0.046,-1.135 -0.077,-1.222 -0.466,-1.33 -0.759,-0.21 -3.719,-0.145 -4.396,0.096 m -56.104,12.089 V 117 h 1.333 1.333 v -3.892 -3.893 l 3.625,-0.095 c 3.992,-0.104 5.465,-0.362 7.085,-1.241 4.905,-2.662 4.836,-10.186 -0.114,-12.538 -1.809,-0.859 -3.05,-1.008 -8.422,-1.008 h -4.84 v 11.334 m 42.166,-8 v 2.5 H 306.167 305 v 1.25 1.25 h 1.155 1.155 l 0.066,5.625 c 0.073,6.27 0.109,6.504 1.15,7.633 1.207,1.31 4.025,1.787 6.016,1.02 l 0.791,-0.306 v -1.153 c 0,-1.255 -0.013,-1.269 -0.891,-0.903 -0.946,0.396 -2.609,0.329 -3.292,-0.131 -1.041,-0.7 -1.061,-0.822 -1.117,-6.577 l -0.051,-5.208 h 2.676 2.675 v -1.25 -1.25 H 312.667 310 v -2.5 -2.5 h -1.333 -1.334 v 2.5 m -31.089,-0.366 c 4.105,1.511 4.294,6.874 0.304,8.639 -1.237,0.546 -2.654,0.719 -5.923,0.723 l -2.792,0.004 v -4.933 -4.933 l 3.709,0.067 c 3.305,0.059 3.816,0.106 4.702,0.433 m 56.52,2.709 c -5.32,0.891 -8.491,6.437 -6.686,11.693 2.463,7.169 12.905,7.664 16.172,0.767 3.115,-6.578 -2.282,-13.667 -9.486,-12.46 M 362.537,100 c -1.091,0.231 -2.332,0.985 -3.14,1.909 l -0.73,0.835 v -1.289 -1.288 H 357.333 356 v 8.416 8.417 h 1.323 1.323 l 0.052,-5.458 c 0.057,-5.994 0.082,-6.15 1.229,-7.654 1.61,-2.111 5.22,-2.04 6.671,0.131 0.793,1.188 0.902,2.133 0.902,7.842 V 117 h 1.333 1.334 l 0.001,-5.375 c 0,-3.144 0.071,-5.629 0.171,-5.988 0.886,-3.191 4.937,-4.41 7.184,-2.161 1.249,1.25 1.31,1.625 1.31,8.054 V 117 h 1.334 1.333 l -0.002,-5.875 c -0.002,-6.207 -0.059,-6.782 -0.813,-8.257 -1.814,-3.548 -7.162,-4.085 -10.225,-1.027 l -1.123,1.121 -0.342,-0.553 c -1.158,-1.873 -3.993,-2.931 -6.458,-2.409 m -67.787,0.094 c -0.183,0.042 -0.746,0.159 -1.25,0.26 -1.032,0.208 -3,0.952 -3,1.134 0,0.221 0.543,1.761 0.672,1.903 0.069,0.078 0.678,-0.049 1.352,-0.281 5.064,-1.742 8.144,-0.507 8.732,3.502 l 0.102,0.696 -0.97,-0.272 c -1.636,-0.459 -6.314,-0.398 -7.758,0.101 -4.681,1.617 -4.969,7.478 -0.471,9.592 2.788,1.31 7.746,0.293 8.988,-1.843 0.136,-0.233 0.177,-0.024 0.181,0.906 l 0.005,1.208 h 1.26 1.259 l -0.058,-6.042 c -0.072,-7.508 -0.257,-8.223 -2.524,-9.748 -1.353,-0.91 -4.813,-1.502 -6.52,-1.116 m 57.459,0.149 c -1.499,0.469 -3.286,1.979 -4.052,3.424 l -0.309,0.583 -0.007,-2.042 -0.008,-2.041 h -1.333 -1.333 v 8.416 8.417 h 1.333 1.333 l 0.003,-3.792 c 0.006,-7.12 1.618,-10.002 5.784,-10.336 l 1.047,-0.084 V 101.394 100 l -0.875,0.011 c -0.482,0.006 -1.194,0.111 -1.583,0.232 m -16.955,2.105 c 7.29,1.348 6.543,12.569 -0.837,12.569 -7.906,0 -8.208,-11.922 -0.323,-12.732 0.098,-0.01 0.62,0.063 1.16,0.163 m -35.993,6.494 c 0.544,0.097 1.242,0.255 1.551,0.353 l 0.563,0.178 -0.077,1.188 c -0.329,5.129 -9.029,6.672 -9.589,1.7 -0.309,-2.738 2.985,-4.229 7.552,-3.419"
     id="path1" />
  <path
     style="fill:#04b4f4;fill-rule:evenodd;stroke:none"
     inkscape:connector-curvature="0"
     d="m 68.266164,0.8802649 c -0.413,0.035 -1.687,0.145 -2.833,0.244 -42.009,3.636 -69.3849996,47.6910001 -54.238,87.2820051 16.703,43.659 72.897,55.797 105.912996,22.878 29.639,-29.550004 24.092,-78.459005 -11.425,-100.752005 C 94.983164,3.8172649 79.787164,-0.1027351 68.266164,0.8802649 m 9.915,9.1540001 c 45.754996,5.402 65.522996,61.181001 33.422996,94.310005 -29.204996,30.142 -80.223996,18.148 -93.135996,-21.894004 -12.402,-38.461001 19.51,-77.1630011 59.713,-72.416001 m -6.639,7.082 c -0.165,0.43 -5.479,25.353 -5.418,25.408 0.35,0.313 5.336,3.426 5.488,3.426 0.297,0 5.483,-3.387 5.485,-3.583 0.009,-0.778 -5.44,-25.549 -5.555,-25.251 m -34.15,14.282 c 0.181,0.258 5.213,8.024 11.181,17.259 l 10.852,16.792001 -10.852,16.792 c -5.968,9.236004 -11,17.003004 -11.181,17.260004 l -0.329,0.468 0.893,-0.573 c 0.491,-0.315 8.273,-5.344 17.293,-11.176 10.472,-6.771004 16.466,-10.551004 16.583,-10.459004 0.101,0.08 7.646,4.966 16.767,10.857004 9.121,5.891 16.808996,10.867 17.083996,11.057 0.275,0.19 0.418,0.235 0.318,0.101 -0.733,-0.984 -22.067996,-34.175004 -22.067996,-34.331004 0,-0.155 21.317996,-33.309001 22.068996,-34.322001 0.099,-0.134 -0.044,-0.088 -0.319,0.102 -0.275,0.19 -7.849996,5.092 -16.833996,10.893 -8.983,5.801 -16.529,10.684 -16.77,10.852 l -0.436,0.305 -16.397,-10.599 c -9.018,-5.83 -16.799,-10.857 -17.29,-11.172 l -0.893,-0.573 0.329,0.467 m -1.668,31.266001 c -6.852,1.479 -12.458,2.733 -12.458,2.787 0,0.112 25.319,5.571 25.405,5.477 0.031,-0.034 0.85,-1.28 1.821,-2.769 l 1.764,-2.707 -1.787,-2.749 c -1.041,-1.603 -1.891,-2.745 -2.036,-2.739 -0.138,0.006 -5.857,1.221 -12.709,2.7 m 57.125,-0.108 c -0.916,1.431 -1.689,2.699 -1.718,2.818 -0.037,0.157 2.953,5.041 3.402,5.557 0.077,0.088 25.563996,-5.377 25.563996,-5.481 0,-0.072 -25.268996,-5.526 -25.497996,-5.504 -0.046,0.005 -0.833,1.179 -1.75,2.61 m -23.916,23.994004 c -1.33,0.867 -2.519,1.638 -2.645,1.714 -0.214,0.129 4.979,25.19 5.295,25.554 0.056,0.065 1.332,-5.617 2.835,-12.627 1.503,-7.01 2.702,-12.773 2.665,-12.807 -0.404,-0.37 -5.322,-3.431004 -5.498,-3.423004 -0.13,0.007 -1.323,0.722 -2.652,1.589004"
     id="path2" />
  <path
     style="fill:#38b4f8;fill-rule:evenodd;stroke:none"
     inkscape:connector-curvature="0"
     d=""
     id="path4" />
</svg>
