G04 #@! TF.GenerationSoftware,KiCad,Pcbnew,5.1.5-52549c5~84~ubuntu18.04.1*
G04 #@! TF.CreationDate,2020-01-02T13:17:24-07:00*
G04 #@! TF.ProjectId,wemos-01,77656d6f-732d-4303-912e-6b696361645f,rev?*
G04 #@! TF.SameCoordinates,Original*
G04 #@! TF.FileFunction,Copper,L1,Top*
G04 #@! TF.FilePolarity,Positive*
%FSLAX46Y46*%
G04 Gerber Fmt 4.6, Leading zero omitted, Abs format (unit mm)*
G04 Created by KiCad (PCBNEW 5.1.5-52549c5~84~ubuntu18.04.1) date 2020-01-02 13:17:24*
%MOMM*%
%LPD*%
G04 APERTURE LIST*
%ADD10C,0.010000*%
%ADD11R,1.000000X2.000000*%
%ADD12R,1.524000X4.064000*%
%ADD13R,1.016000X2.032000*%
%ADD14R,1.400000X1.295000*%
%ADD15O,1.700000X1.700000*%
%ADD16C,1.700000*%
%ADD17O,1.800000X1.800000*%
%ADD18R,1.800000X1.800000*%
%ADD19C,0.685800*%
%ADD20C,0.800000*%
%ADD21C,0.800000*%
%ADD22C,1.016000*%
%ADD23C,0.400000*%
%ADD24C,0.254000*%
G04 APERTURE END LIST*
D10*
G36*
X135828828Y-110608866D02*
G01*
X135872237Y-110637494D01*
X135885099Y-110647874D01*
X135930408Y-110682302D01*
X135963185Y-110700706D01*
X135967867Y-110701666D01*
X135990254Y-110718132D01*
X136020128Y-110758405D01*
X136023955Y-110764723D01*
X136047062Y-110815326D01*
X136048768Y-110865418D01*
X136038286Y-110912890D01*
X136020444Y-110965566D01*
X136003229Y-110995446D01*
X135998428Y-110998000D01*
X135988197Y-111017439D01*
X135975167Y-111069437D01*
X135961521Y-111144514D01*
X135955774Y-111183208D01*
X135915135Y-111394668D01*
X135857215Y-111568975D01*
X135782273Y-111705549D01*
X135690570Y-111803814D01*
X135669519Y-111819315D01*
X135595366Y-111858632D01*
X135528578Y-111865173D01*
X135461270Y-111837228D01*
X135385558Y-111773086D01*
X135366656Y-111753593D01*
X135311819Y-111691480D01*
X135268611Y-111634939D01*
X135246078Y-111595849D01*
X135245743Y-111594843D01*
X135228798Y-111558630D01*
X135216532Y-111548496D01*
X135196375Y-111566270D01*
X135167481Y-111610938D01*
X135136554Y-111669979D01*
X135110299Y-111730870D01*
X135097619Y-111770583D01*
X135066546Y-111840303D01*
X135017484Y-111889881D01*
X134962832Y-111908166D01*
X134917481Y-111893095D01*
X134890330Y-111871125D01*
X134846398Y-111808030D01*
X134806375Y-111728802D01*
X134777819Y-111650533D01*
X134768167Y-111594806D01*
X134777238Y-111558108D01*
X134802730Y-111489657D01*
X134842065Y-111395529D01*
X134892660Y-111281800D01*
X134951936Y-111154546D01*
X134979834Y-111096390D01*
X135040341Y-110970482D01*
X135094105Y-110856922D01*
X135138515Y-110761362D01*
X135170960Y-110689456D01*
X135188830Y-110646856D01*
X135191500Y-110638010D01*
X135203304Y-110619272D01*
X135241235Y-110624648D01*
X135309075Y-110654735D01*
X135314052Y-110657273D01*
X135415040Y-110724828D01*
X135475640Y-110804075D01*
X135496601Y-110896713D01*
X135478671Y-111004436D01*
X135473690Y-111019166D01*
X135461619Y-111071473D01*
X135452978Y-111144115D01*
X135447951Y-111226519D01*
X135446719Y-111308112D01*
X135449467Y-111378323D01*
X135456377Y-111426579D01*
X135466367Y-111442500D01*
X135499623Y-111423284D01*
X135538245Y-111371379D01*
X135578319Y-111295401D01*
X135615928Y-111203963D01*
X135647155Y-111105680D01*
X135668085Y-111009166D01*
X135670292Y-110993900D01*
X135683802Y-110921874D01*
X135705326Y-110838435D01*
X135731358Y-110754090D01*
X135758391Y-110679343D01*
X135782917Y-110624699D01*
X135801428Y-110600665D01*
X135801597Y-110600606D01*
X135828828Y-110608866D01*
G37*
X135828828Y-110608866D02*
X135872237Y-110637494D01*
X135885099Y-110647874D01*
X135930408Y-110682302D01*
X135963185Y-110700706D01*
X135967867Y-110701666D01*
X135990254Y-110718132D01*
X136020128Y-110758405D01*
X136023955Y-110764723D01*
X136047062Y-110815326D01*
X136048768Y-110865418D01*
X136038286Y-110912890D01*
X136020444Y-110965566D01*
X136003229Y-110995446D01*
X135998428Y-110998000D01*
X135988197Y-111017439D01*
X135975167Y-111069437D01*
X135961521Y-111144514D01*
X135955774Y-111183208D01*
X135915135Y-111394668D01*
X135857215Y-111568975D01*
X135782273Y-111705549D01*
X135690570Y-111803814D01*
X135669519Y-111819315D01*
X135595366Y-111858632D01*
X135528578Y-111865173D01*
X135461270Y-111837228D01*
X135385558Y-111773086D01*
X135366656Y-111753593D01*
X135311819Y-111691480D01*
X135268611Y-111634939D01*
X135246078Y-111595849D01*
X135245743Y-111594843D01*
X135228798Y-111558630D01*
X135216532Y-111548496D01*
X135196375Y-111566270D01*
X135167481Y-111610938D01*
X135136554Y-111669979D01*
X135110299Y-111730870D01*
X135097619Y-111770583D01*
X135066546Y-111840303D01*
X135017484Y-111889881D01*
X134962832Y-111908166D01*
X134917481Y-111893095D01*
X134890330Y-111871125D01*
X134846398Y-111808030D01*
X134806375Y-111728802D01*
X134777819Y-111650533D01*
X134768167Y-111594806D01*
X134777238Y-111558108D01*
X134802730Y-111489657D01*
X134842065Y-111395529D01*
X134892660Y-111281800D01*
X134951936Y-111154546D01*
X134979834Y-111096390D01*
X135040341Y-110970482D01*
X135094105Y-110856922D01*
X135138515Y-110761362D01*
X135170960Y-110689456D01*
X135188830Y-110646856D01*
X135191500Y-110638010D01*
X135203304Y-110619272D01*
X135241235Y-110624648D01*
X135309075Y-110654735D01*
X135314052Y-110657273D01*
X135415040Y-110724828D01*
X135475640Y-110804075D01*
X135496601Y-110896713D01*
X135478671Y-111004436D01*
X135473690Y-111019166D01*
X135461619Y-111071473D01*
X135452978Y-111144115D01*
X135447951Y-111226519D01*
X135446719Y-111308112D01*
X135449467Y-111378323D01*
X135456377Y-111426579D01*
X135466367Y-111442500D01*
X135499623Y-111423284D01*
X135538245Y-111371379D01*
X135578319Y-111295401D01*
X135615928Y-111203963D01*
X135647155Y-111105680D01*
X135668085Y-111009166D01*
X135670292Y-110993900D01*
X135683802Y-110921874D01*
X135705326Y-110838435D01*
X135731358Y-110754090D01*
X135758391Y-110679343D01*
X135782917Y-110624699D01*
X135801428Y-110600665D01*
X135801597Y-110600606D01*
X135828828Y-110608866D01*
G36*
X138161160Y-110629137D02*
G01*
X138215347Y-110659348D01*
X138269264Y-110698333D01*
X138309923Y-110736791D01*
X138324456Y-110763634D01*
X138330112Y-110811498D01*
X138336871Y-110842106D01*
X138337881Y-110864528D01*
X138324110Y-110887044D01*
X138289650Y-110914437D01*
X138228591Y-110951489D01*
X138144264Y-110997992D01*
X137921460Y-111134433D01*
X137737096Y-111282529D01*
X137592912Y-111438690D01*
X137498365Y-111558916D01*
X137620224Y-111569500D01*
X137687740Y-111573182D01*
X137736355Y-111571761D01*
X137752667Y-111567328D01*
X137778106Y-111557429D01*
X137831339Y-111546262D01*
X137869084Y-111540531D01*
X137954342Y-111525980D01*
X138040163Y-111506483D01*
X138064270Y-111499774D01*
X138153624Y-111473059D01*
X138122479Y-111413026D01*
X138100420Y-111362356D01*
X138091334Y-111325427D01*
X138075770Y-111294498D01*
X138067132Y-111289793D01*
X138053491Y-111269505D01*
X138068819Y-111234747D01*
X138106810Y-111194456D01*
X138160034Y-111158168D01*
X138231653Y-111119599D01*
X138390420Y-111206735D01*
X138470731Y-111253837D01*
X138542034Y-111300997D01*
X138591582Y-111339647D01*
X138599117Y-111347019D01*
X138639047Y-111382982D01*
X138669755Y-111399720D01*
X138671815Y-111399879D01*
X138689354Y-111381557D01*
X138715842Y-111336666D01*
X139087595Y-111336666D01*
X139169816Y-111336666D01*
X139231628Y-111333682D01*
X139278140Y-111326332D01*
X139283411Y-111324627D01*
X139300668Y-111302234D01*
X139299230Y-111252577D01*
X139278682Y-111171467D01*
X139263616Y-111125138D01*
X139246802Y-111114867D01*
X139215239Y-111141515D01*
X139168212Y-111205839D01*
X139129218Y-111267875D01*
X139087595Y-111336666D01*
X138715842Y-111336666D01*
X138718350Y-111332416D01*
X138754192Y-111260798D01*
X138779250Y-111205518D01*
X138843628Y-111064133D01*
X138897960Y-110959497D01*
X138944742Y-110887922D01*
X138986469Y-110845724D01*
X139025638Y-110829217D01*
X139034412Y-110828666D01*
X139092482Y-110810054D01*
X139159139Y-110758193D01*
X139227023Y-110679048D01*
X139237715Y-110663950D01*
X139260459Y-110635861D01*
X139285990Y-110625824D01*
X139328582Y-110631575D01*
X139371987Y-110642656D01*
X139448869Y-110671617D01*
X139497670Y-110715178D01*
X139526596Y-110783507D01*
X139539174Y-110849833D01*
X139550850Y-110920455D01*
X139568151Y-111011831D01*
X139586131Y-111098541D01*
X139606052Y-111180321D01*
X139624008Y-111227864D01*
X139643642Y-111248891D01*
X139658582Y-111252000D01*
X139704170Y-111262752D01*
X139759494Y-111289261D01*
X139810498Y-111322902D01*
X139843128Y-111355052D01*
X139848167Y-111368314D01*
X139833352Y-111397780D01*
X139795913Y-111440459D01*
X139774366Y-111460579D01*
X139729099Y-111504436D01*
X139710061Y-111541759D01*
X139709722Y-111591560D01*
X139712731Y-111616230D01*
X139705717Y-111714551D01*
X139660148Y-111803801D01*
X139579710Y-111877679D01*
X139548930Y-111896120D01*
X139494357Y-111921285D01*
X139452537Y-111924327D01*
X139405606Y-111908970D01*
X139361493Y-111882687D01*
X139347580Y-111856446D01*
X139348219Y-111854213D01*
X139341944Y-111821471D01*
X139317573Y-111790458D01*
X139283074Y-111751570D01*
X139285829Y-111723306D01*
X139327605Y-111695623D01*
X139334875Y-111692078D01*
X139378731Y-111661326D01*
X139393518Y-111631344D01*
X139378598Y-111611895D01*
X139340167Y-111611286D01*
X139289871Y-111616915D01*
X139216310Y-111620796D01*
X139161000Y-111621869D01*
X139087629Y-111619964D01*
X139044772Y-111611140D01*
X139020754Y-111591933D01*
X139012384Y-111577805D01*
X138990046Y-111551022D01*
X138965811Y-111559674D01*
X138937917Y-111605758D01*
X138904600Y-111691269D01*
X138899825Y-111705250D01*
X138871228Y-111777942D01*
X138840086Y-111839271D01*
X138821591Y-111865825D01*
X138768184Y-111899748D01*
X138704591Y-111906367D01*
X138643360Y-111889249D01*
X138597040Y-111851961D01*
X138578178Y-111798070D01*
X138578167Y-111796624D01*
X138566535Y-111759017D01*
X138556943Y-111749381D01*
X138547247Y-111721160D01*
X138556561Y-111697320D01*
X138567294Y-111673948D01*
X138559053Y-111669615D01*
X138524052Y-111684210D01*
X138498410Y-111696482D01*
X138442058Y-111718851D01*
X138354605Y-111747915D01*
X138246180Y-111780767D01*
X138126915Y-111814502D01*
X138006937Y-111846216D01*
X137896377Y-111873002D01*
X137841010Y-111885042D01*
X137670252Y-111908077D01*
X137528553Y-111900692D01*
X137414993Y-111862355D01*
X137328651Y-111792533D01*
X137268605Y-111690695D01*
X137233935Y-111556307D01*
X137230748Y-111532321D01*
X137218247Y-111426770D01*
X137152082Y-111470680D01*
X137110388Y-111503234D01*
X137093103Y-111537978D01*
X137092390Y-111593040D01*
X137093410Y-111606429D01*
X137092037Y-111680629D01*
X137079209Y-111748943D01*
X137074740Y-111761433D01*
X137027436Y-111833251D01*
X136959103Y-111886215D01*
X136881550Y-111914531D01*
X136806585Y-111912402D01*
X136784292Y-111903964D01*
X136747715Y-111873023D01*
X136736667Y-111844712D01*
X136721912Y-111804112D01*
X136694833Y-111771035D01*
X136665680Y-111731601D01*
X136675123Y-111705138D01*
X136716005Y-111696500D01*
X136750679Y-111682868D01*
X136780336Y-111652166D01*
X136792782Y-111619682D01*
X136787779Y-111606501D01*
X136762103Y-111603793D01*
X136712252Y-111610818D01*
X136698565Y-111613796D01*
X136582056Y-111632062D01*
X136486962Y-111629135D01*
X136419794Y-111605574D01*
X136400200Y-111588126D01*
X136363864Y-111543253D01*
X136328815Y-111596745D01*
X136301684Y-111651130D01*
X136276148Y-111722572D01*
X136269525Y-111746508D01*
X136232179Y-111833719D01*
X136174545Y-111887806D01*
X136100713Y-111905267D01*
X136085254Y-111904163D01*
X136032947Y-111880763D01*
X135984844Y-111832091D01*
X135951342Y-111772578D01*
X135942834Y-111716657D01*
X135944545Y-111708808D01*
X135951041Y-111689795D01*
X135963115Y-111659721D01*
X135982537Y-111614653D01*
X136011079Y-111550662D01*
X136050510Y-111463816D01*
X136102601Y-111350185D01*
X136108831Y-111336666D01*
X136479958Y-111336666D01*
X136575313Y-111336666D01*
X136635390Y-111332570D01*
X136675717Y-111322237D01*
X136683079Y-111316585D01*
X136685640Y-111285611D01*
X136677928Y-111230116D01*
X136671026Y-111199349D01*
X136654940Y-111142135D01*
X136641085Y-111119419D01*
X136623068Y-111124253D01*
X136611128Y-111134261D01*
X136578957Y-111172369D01*
X136540704Y-111229539D01*
X136527826Y-111251497D01*
X136479958Y-111336666D01*
X136108831Y-111336666D01*
X136169123Y-111205838D01*
X136247100Y-111037106D01*
X136295554Y-110939749D01*
X136336670Y-110876692D01*
X136375782Y-110841842D01*
X136418225Y-110829108D01*
X136429621Y-110828666D01*
X136480050Y-110809337D01*
X136546138Y-110751184D01*
X136571919Y-110722885D01*
X136664453Y-110617104D01*
X136779935Y-110654094D01*
X136845312Y-110676545D01*
X136881664Y-110698346D01*
X136900341Y-110731567D01*
X136912696Y-110788280D01*
X136914235Y-110796916D01*
X136940999Y-110944833D01*
X136962648Y-111056201D01*
X136980802Y-111136264D01*
X136997083Y-111190268D01*
X137013111Y-111223456D01*
X137030508Y-111241074D01*
X137050894Y-111248366D01*
X137053907Y-111248837D01*
X137109455Y-111266679D01*
X137162990Y-111296462D01*
X137211898Y-111326840D01*
X137246577Y-111330459D01*
X137277998Y-111303530D01*
X137316427Y-111243471D01*
X137356581Y-111187657D01*
X137418470Y-111116089D01*
X137491636Y-111040498D01*
X137528654Y-111005346D01*
X137600846Y-110943861D01*
X137688891Y-110876275D01*
X137785245Y-110807545D01*
X137882366Y-110742627D01*
X137972707Y-110686478D01*
X138048727Y-110644056D01*
X138102880Y-110620316D01*
X138119691Y-110617000D01*
X138161160Y-110629137D01*
G37*
X138161160Y-110629137D02*
X138215347Y-110659348D01*
X138269264Y-110698333D01*
X138309923Y-110736791D01*
X138324456Y-110763634D01*
X138330112Y-110811498D01*
X138336871Y-110842106D01*
X138337881Y-110864528D01*
X138324110Y-110887044D01*
X138289650Y-110914437D01*
X138228591Y-110951489D01*
X138144264Y-110997992D01*
X137921460Y-111134433D01*
X137737096Y-111282529D01*
X137592912Y-111438690D01*
X137498365Y-111558916D01*
X137620224Y-111569500D01*
X137687740Y-111573182D01*
X137736355Y-111571761D01*
X137752667Y-111567328D01*
X137778106Y-111557429D01*
X137831339Y-111546262D01*
X137869084Y-111540531D01*
X137954342Y-111525980D01*
X138040163Y-111506483D01*
X138064270Y-111499774D01*
X138153624Y-111473059D01*
X138122479Y-111413026D01*
X138100420Y-111362356D01*
X138091334Y-111325427D01*
X138075770Y-111294498D01*
X138067132Y-111289793D01*
X138053491Y-111269505D01*
X138068819Y-111234747D01*
X138106810Y-111194456D01*
X138160034Y-111158168D01*
X138231653Y-111119599D01*
X138390420Y-111206735D01*
X138470731Y-111253837D01*
X138542034Y-111300997D01*
X138591582Y-111339647D01*
X138599117Y-111347019D01*
X138639047Y-111382982D01*
X138669755Y-111399720D01*
X138671815Y-111399879D01*
X138689354Y-111381557D01*
X138715842Y-111336666D01*
X139087595Y-111336666D01*
X139169816Y-111336666D01*
X139231628Y-111333682D01*
X139278140Y-111326332D01*
X139283411Y-111324627D01*
X139300668Y-111302234D01*
X139299230Y-111252577D01*
X139278682Y-111171467D01*
X139263616Y-111125138D01*
X139246802Y-111114867D01*
X139215239Y-111141515D01*
X139168212Y-111205839D01*
X139129218Y-111267875D01*
X139087595Y-111336666D01*
X138715842Y-111336666D01*
X138718350Y-111332416D01*
X138754192Y-111260798D01*
X138779250Y-111205518D01*
X138843628Y-111064133D01*
X138897960Y-110959497D01*
X138944742Y-110887922D01*
X138986469Y-110845724D01*
X139025638Y-110829217D01*
X139034412Y-110828666D01*
X139092482Y-110810054D01*
X139159139Y-110758193D01*
X139227023Y-110679048D01*
X139237715Y-110663950D01*
X139260459Y-110635861D01*
X139285990Y-110625824D01*
X139328582Y-110631575D01*
X139371987Y-110642656D01*
X139448869Y-110671617D01*
X139497670Y-110715178D01*
X139526596Y-110783507D01*
X139539174Y-110849833D01*
X139550850Y-110920455D01*
X139568151Y-111011831D01*
X139586131Y-111098541D01*
X139606052Y-111180321D01*
X139624008Y-111227864D01*
X139643642Y-111248891D01*
X139658582Y-111252000D01*
X139704170Y-111262752D01*
X139759494Y-111289261D01*
X139810498Y-111322902D01*
X139843128Y-111355052D01*
X139848167Y-111368314D01*
X139833352Y-111397780D01*
X139795913Y-111440459D01*
X139774366Y-111460579D01*
X139729099Y-111504436D01*
X139710061Y-111541759D01*
X139709722Y-111591560D01*
X139712731Y-111616230D01*
X139705717Y-111714551D01*
X139660148Y-111803801D01*
X139579710Y-111877679D01*
X139548930Y-111896120D01*
X139494357Y-111921285D01*
X139452537Y-111924327D01*
X139405606Y-111908970D01*
X139361493Y-111882687D01*
X139347580Y-111856446D01*
X139348219Y-111854213D01*
X139341944Y-111821471D01*
X139317573Y-111790458D01*
X139283074Y-111751570D01*
X139285829Y-111723306D01*
X139327605Y-111695623D01*
X139334875Y-111692078D01*
X139378731Y-111661326D01*
X139393518Y-111631344D01*
X139378598Y-111611895D01*
X139340167Y-111611286D01*
X139289871Y-111616915D01*
X139216310Y-111620796D01*
X139161000Y-111621869D01*
X139087629Y-111619964D01*
X139044772Y-111611140D01*
X139020754Y-111591933D01*
X139012384Y-111577805D01*
X138990046Y-111551022D01*
X138965811Y-111559674D01*
X138937917Y-111605758D01*
X138904600Y-111691269D01*
X138899825Y-111705250D01*
X138871228Y-111777942D01*
X138840086Y-111839271D01*
X138821591Y-111865825D01*
X138768184Y-111899748D01*
X138704591Y-111906367D01*
X138643360Y-111889249D01*
X138597040Y-111851961D01*
X138578178Y-111798070D01*
X138578167Y-111796624D01*
X138566535Y-111759017D01*
X138556943Y-111749381D01*
X138547247Y-111721160D01*
X138556561Y-111697320D01*
X138567294Y-111673948D01*
X138559053Y-111669615D01*
X138524052Y-111684210D01*
X138498410Y-111696482D01*
X138442058Y-111718851D01*
X138354605Y-111747915D01*
X138246180Y-111780767D01*
X138126915Y-111814502D01*
X138006937Y-111846216D01*
X137896377Y-111873002D01*
X137841010Y-111885042D01*
X137670252Y-111908077D01*
X137528553Y-111900692D01*
X137414993Y-111862355D01*
X137328651Y-111792533D01*
X137268605Y-111690695D01*
X137233935Y-111556307D01*
X137230748Y-111532321D01*
X137218247Y-111426770D01*
X137152082Y-111470680D01*
X137110388Y-111503234D01*
X137093103Y-111537978D01*
X137092390Y-111593040D01*
X137093410Y-111606429D01*
X137092037Y-111680629D01*
X137079209Y-111748943D01*
X137074740Y-111761433D01*
X137027436Y-111833251D01*
X136959103Y-111886215D01*
X136881550Y-111914531D01*
X136806585Y-111912402D01*
X136784292Y-111903964D01*
X136747715Y-111873023D01*
X136736667Y-111844712D01*
X136721912Y-111804112D01*
X136694833Y-111771035D01*
X136665680Y-111731601D01*
X136675123Y-111705138D01*
X136716005Y-111696500D01*
X136750679Y-111682868D01*
X136780336Y-111652166D01*
X136792782Y-111619682D01*
X136787779Y-111606501D01*
X136762103Y-111603793D01*
X136712252Y-111610818D01*
X136698565Y-111613796D01*
X136582056Y-111632062D01*
X136486962Y-111629135D01*
X136419794Y-111605574D01*
X136400200Y-111588126D01*
X136363864Y-111543253D01*
X136328815Y-111596745D01*
X136301684Y-111651130D01*
X136276148Y-111722572D01*
X136269525Y-111746508D01*
X136232179Y-111833719D01*
X136174545Y-111887806D01*
X136100713Y-111905267D01*
X136085254Y-111904163D01*
X136032947Y-111880763D01*
X135984844Y-111832091D01*
X135951342Y-111772578D01*
X135942834Y-111716657D01*
X135944545Y-111708808D01*
X135951041Y-111689795D01*
X135963115Y-111659721D01*
X135982537Y-111614653D01*
X136011079Y-111550662D01*
X136050510Y-111463816D01*
X136102601Y-111350185D01*
X136108831Y-111336666D01*
X136479958Y-111336666D01*
X136575313Y-111336666D01*
X136635390Y-111332570D01*
X136675717Y-111322237D01*
X136683079Y-111316585D01*
X136685640Y-111285611D01*
X136677928Y-111230116D01*
X136671026Y-111199349D01*
X136654940Y-111142135D01*
X136641085Y-111119419D01*
X136623068Y-111124253D01*
X136611128Y-111134261D01*
X136578957Y-111172369D01*
X136540704Y-111229539D01*
X136527826Y-111251497D01*
X136479958Y-111336666D01*
X136108831Y-111336666D01*
X136169123Y-111205838D01*
X136247100Y-111037106D01*
X136295554Y-110939749D01*
X136336670Y-110876692D01*
X136375782Y-110841842D01*
X136418225Y-110829108D01*
X136429621Y-110828666D01*
X136480050Y-110809337D01*
X136546138Y-110751184D01*
X136571919Y-110722885D01*
X136664453Y-110617104D01*
X136779935Y-110654094D01*
X136845312Y-110676545D01*
X136881664Y-110698346D01*
X136900341Y-110731567D01*
X136912696Y-110788280D01*
X136914235Y-110796916D01*
X136940999Y-110944833D01*
X136962648Y-111056201D01*
X136980802Y-111136264D01*
X136997083Y-111190268D01*
X137013111Y-111223456D01*
X137030508Y-111241074D01*
X137050894Y-111248366D01*
X137053907Y-111248837D01*
X137109455Y-111266679D01*
X137162990Y-111296462D01*
X137211898Y-111326840D01*
X137246577Y-111330459D01*
X137277998Y-111303530D01*
X137316427Y-111243471D01*
X137356581Y-111187657D01*
X137418470Y-111116089D01*
X137491636Y-111040498D01*
X137528654Y-111005346D01*
X137600846Y-110943861D01*
X137688891Y-110876275D01*
X137785245Y-110807545D01*
X137882366Y-110742627D01*
X137972707Y-110686478D01*
X138048727Y-110644056D01*
X138102880Y-110620316D01*
X138119691Y-110617000D01*
X138161160Y-110629137D01*
G36*
X134892473Y-110609410D02*
G01*
X134943289Y-110643936D01*
X134970986Y-110667450D01*
X135014119Y-110712687D01*
X135034378Y-110754156D01*
X135029894Y-110798764D01*
X134998799Y-110853420D01*
X134939224Y-110925030D01*
X134885804Y-110982406D01*
X134795452Y-111089928D01*
X134692430Y-111235353D01*
X134578061Y-111416630D01*
X134453667Y-111631708D01*
X134377741Y-111770583D01*
X134316332Y-111875768D01*
X134265727Y-111942613D01*
X134226672Y-111970174D01*
X134219080Y-111970838D01*
X134193351Y-111962599D01*
X134146928Y-111943720D01*
X134143237Y-111942119D01*
X134084022Y-111897739D01*
X134041290Y-111832077D01*
X134027334Y-111771735D01*
X134036567Y-111741891D01*
X134061501Y-111683902D01*
X134097983Y-111607014D01*
X134129047Y-111545190D01*
X134230760Y-111347250D01*
X134183552Y-111277684D01*
X134152069Y-111219295D01*
X134124880Y-111140577D01*
X134100299Y-111035056D01*
X134076639Y-110896259D01*
X134067173Y-110830817D01*
X134056891Y-110748923D01*
X134054846Y-110697394D01*
X134062117Y-110664870D01*
X134079786Y-110639993D01*
X134085919Y-110633673D01*
X134111714Y-110610730D01*
X134135980Y-110604713D01*
X134172598Y-110616276D01*
X134223283Y-110640165D01*
X134282230Y-110672806D01*
X134322829Y-110709296D01*
X134351397Y-110759843D01*
X134374248Y-110834651D01*
X134391152Y-110911429D01*
X134418917Y-111047108D01*
X134493459Y-110940510D01*
X134586153Y-110817151D01*
X134674310Y-110717379D01*
X134753888Y-110645034D01*
X134820845Y-110603954D01*
X134856365Y-110595833D01*
X134892473Y-110609410D01*
G37*
X134892473Y-110609410D02*
X134943289Y-110643936D01*
X134970986Y-110667450D01*
X135014119Y-110712687D01*
X135034378Y-110754156D01*
X135029894Y-110798764D01*
X134998799Y-110853420D01*
X134939224Y-110925030D01*
X134885804Y-110982406D01*
X134795452Y-111089928D01*
X134692430Y-111235353D01*
X134578061Y-111416630D01*
X134453667Y-111631708D01*
X134377741Y-111770583D01*
X134316332Y-111875768D01*
X134265727Y-111942613D01*
X134226672Y-111970174D01*
X134219080Y-111970838D01*
X134193351Y-111962599D01*
X134146928Y-111943720D01*
X134143237Y-111942119D01*
X134084022Y-111897739D01*
X134041290Y-111832077D01*
X134027334Y-111771735D01*
X134036567Y-111741891D01*
X134061501Y-111683902D01*
X134097983Y-111607014D01*
X134129047Y-111545190D01*
X134230760Y-111347250D01*
X134183552Y-111277684D01*
X134152069Y-111219295D01*
X134124880Y-111140577D01*
X134100299Y-111035056D01*
X134076639Y-110896259D01*
X134067173Y-110830817D01*
X134056891Y-110748923D01*
X134054846Y-110697394D01*
X134062117Y-110664870D01*
X134079786Y-110639993D01*
X134085919Y-110633673D01*
X134111714Y-110610730D01*
X134135980Y-110604713D01*
X134172598Y-110616276D01*
X134223283Y-110640165D01*
X134282230Y-110672806D01*
X134322829Y-110709296D01*
X134351397Y-110759843D01*
X134374248Y-110834651D01*
X134391152Y-110911429D01*
X134418917Y-111047108D01*
X134493459Y-110940510D01*
X134586153Y-110817151D01*
X134674310Y-110717379D01*
X134753888Y-110645034D01*
X134820845Y-110603954D01*
X134856365Y-110595833D01*
X134892473Y-110609410D01*
G36*
X132371254Y-110361171D02*
G01*
X132454592Y-110414287D01*
X132537258Y-110493836D01*
X132613896Y-110592471D01*
X132679150Y-110702845D01*
X132727663Y-110817612D01*
X132754076Y-110929426D01*
X132757334Y-110979153D01*
X132754515Y-111044002D01*
X132740966Y-111090116D01*
X132709044Y-111134341D01*
X132667375Y-111177470D01*
X132608386Y-111228562D01*
X132539688Y-111270882D01*
X132449089Y-111311190D01*
X132379165Y-111337212D01*
X132289652Y-111369771D01*
X132234679Y-111392529D01*
X132208610Y-111409039D01*
X132205813Y-111422855D01*
X132220415Y-111437350D01*
X132317900Y-111496605D01*
X132438044Y-111542804D01*
X132590201Y-111579493D01*
X132600769Y-111581510D01*
X132689234Y-111599442D01*
X132764697Y-111617031D01*
X132815268Y-111631415D01*
X132826125Y-111635761D01*
X132850484Y-111642417D01*
X132861040Y-111623196D01*
X132863167Y-111576516D01*
X132874170Y-111511390D01*
X132904949Y-111420793D01*
X132947834Y-111323587D01*
X132992745Y-111228018D01*
X133019438Y-111162175D01*
X133029838Y-111118552D01*
X133025872Y-111089642D01*
X133012639Y-111071024D01*
X132998668Y-111039740D01*
X132984839Y-110981953D01*
X132978440Y-110941884D01*
X132971844Y-110876095D01*
X132976583Y-110837853D01*
X132996211Y-110813095D01*
X133014176Y-110800430D01*
X133064488Y-110777591D01*
X133147548Y-110750578D01*
X133254259Y-110721618D01*
X133375522Y-110692937D01*
X133502238Y-110666761D01*
X133625309Y-110645317D01*
X133680731Y-110637317D01*
X133772199Y-110625761D01*
X133831698Y-110621001D01*
X133869164Y-110623847D01*
X133894537Y-110635106D01*
X133917752Y-110655587D01*
X133918856Y-110656688D01*
X133957528Y-110688920D01*
X133985000Y-110701666D01*
X134000002Y-110720024D01*
X134006167Y-110763630D01*
X133986154Y-110830512D01*
X133926451Y-110883725D01*
X133827556Y-110922897D01*
X133777339Y-110934510D01*
X133689180Y-110953903D01*
X133600054Y-110976704D01*
X133561667Y-110987899D01*
X133489908Y-111008911D01*
X133424852Y-111025728D01*
X133408209Y-111029391D01*
X133363335Y-111049682D01*
X133350000Y-111075406D01*
X133355189Y-111092699D01*
X133376438Y-111101150D01*
X133422273Y-111101870D01*
X133501220Y-111095967D01*
X133505195Y-111095609D01*
X133660390Y-111081545D01*
X133738028Y-111154768D01*
X133783061Y-111203350D01*
X133811077Y-111245340D01*
X133815667Y-111260733D01*
X133798531Y-111287975D01*
X133754064Y-111325352D01*
X133704542Y-111357206D01*
X133639870Y-111391069D01*
X133582590Y-111410404D01*
X133515842Y-111419122D01*
X133429064Y-111421134D01*
X133346084Y-111421944D01*
X133294384Y-111426589D01*
X133262911Y-111438766D01*
X133240613Y-111462172D01*
X133222768Y-111490125D01*
X133195512Y-111538623D01*
X133181319Y-111571285D01*
X133180746Y-111574791D01*
X133200198Y-111585667D01*
X133253193Y-111590140D01*
X133331480Y-111588530D01*
X133426806Y-111581160D01*
X133530919Y-111568351D01*
X133590596Y-111558816D01*
X133773238Y-111526966D01*
X133846338Y-111604467D01*
X133890796Y-111658382D01*
X133903401Y-111700809D01*
X133883235Y-111743849D01*
X133831684Y-111797452D01*
X133771563Y-111833056D01*
X133673512Y-111864902D01*
X133541844Y-111891958D01*
X133380875Y-111913191D01*
X133326269Y-111918380D01*
X133169331Y-111921301D01*
X133046315Y-111899630D01*
X132956580Y-111853220D01*
X132929738Y-111827554D01*
X132897481Y-111792343D01*
X132886147Y-111788024D01*
X132889519Y-111813001D01*
X132890520Y-111817465D01*
X132882177Y-111874369D01*
X132851418Y-111918007D01*
X132784878Y-111958746D01*
X132687765Y-111970677D01*
X132560518Y-111953807D01*
X132408084Y-111909715D01*
X132225972Y-111839347D01*
X132077406Y-111766692D01*
X131970620Y-111696500D01*
X132863167Y-111696500D01*
X132870911Y-111713922D01*
X132877278Y-111710611D01*
X132879811Y-111685491D01*
X132877278Y-111682388D01*
X132864694Y-111685294D01*
X132863167Y-111696500D01*
X131970620Y-111696500D01*
X131966510Y-111693799D01*
X131956018Y-111685207D01*
X131913960Y-111651202D01*
X131894876Y-111643388D01*
X131889703Y-111660277D01*
X131889500Y-111674294D01*
X131880062Y-111721218D01*
X131856531Y-111782949D01*
X131847649Y-111801388D01*
X131795590Y-111869085D01*
X131730587Y-111901704D01*
X131660355Y-111896500D01*
X131627258Y-111879897D01*
X131584741Y-111830817D01*
X131552953Y-111753883D01*
X131535856Y-111663029D01*
X131537414Y-111572192D01*
X131538227Y-111566797D01*
X131552231Y-111479220D01*
X131477163Y-111545131D01*
X131428695Y-111585379D01*
X131380921Y-111618070D01*
X131326044Y-111646556D01*
X131256265Y-111674186D01*
X131163785Y-111704312D01*
X131040805Y-111740286D01*
X130988843Y-111754954D01*
X130742858Y-111819202D01*
X130531396Y-111864202D01*
X130355115Y-111889871D01*
X130214671Y-111896131D01*
X130110723Y-111882900D01*
X130069167Y-111867194D01*
X129961959Y-111788152D01*
X129881104Y-111679152D01*
X129829474Y-111545462D01*
X129809944Y-111392350D01*
X129809938Y-111391945D01*
X129827186Y-111286740D01*
X129879336Y-111168820D01*
X129962574Y-111042604D01*
X130073090Y-110912507D01*
X130207071Y-110782948D01*
X130360707Y-110658344D01*
X130530186Y-110543111D01*
X130556000Y-110527351D01*
X130639283Y-110476410D01*
X130713882Y-110429304D01*
X130768848Y-110393014D01*
X130786396Y-110380460D01*
X130833293Y-110355284D01*
X130883523Y-110342892D01*
X130922806Y-110345092D01*
X130937000Y-110361414D01*
X130953971Y-110382205D01*
X130997132Y-110413069D01*
X131026638Y-110430441D01*
X131084522Y-110467812D01*
X131114837Y-110506938D01*
X131129905Y-110563741D01*
X131129933Y-110563911D01*
X131136656Y-110622889D01*
X131136337Y-110664671D01*
X131134948Y-110670453D01*
X131113120Y-110689504D01*
X131062372Y-110720857D01*
X130992123Y-110758867D01*
X130962862Y-110773592D01*
X130863488Y-110825708D01*
X130757001Y-110886380D01*
X130665665Y-110942901D01*
X130661834Y-110945431D01*
X130574338Y-111011181D01*
X130472994Y-111099299D01*
X130368932Y-111198964D01*
X130273280Y-111299353D01*
X130197168Y-111389647D01*
X130177715Y-111416129D01*
X130148869Y-111461459D01*
X130144669Y-111484992D01*
X130163162Y-111497863D01*
X130163363Y-111497941D01*
X130212900Y-111504648D01*
X130295074Y-111502023D01*
X130401438Y-111490950D01*
X130523546Y-111472311D01*
X130621809Y-111453083D01*
X131550834Y-111453083D01*
X131561417Y-111463666D01*
X131572000Y-111453083D01*
X131561417Y-111442500D01*
X131550834Y-111453083D01*
X130621809Y-111453083D01*
X130652952Y-111446989D01*
X130654850Y-111446575D01*
X130764708Y-111422009D01*
X130838424Y-111402388D01*
X130881258Y-111383818D01*
X130898471Y-111362409D01*
X130895320Y-111334267D01*
X130877066Y-111295499D01*
X130871946Y-111285904D01*
X130847425Y-111229850D01*
X130837924Y-111186283D01*
X130839224Y-111176866D01*
X130835505Y-111147298D01*
X130826170Y-111140973D01*
X130810128Y-111120083D01*
X130826490Y-111083969D01*
X130871161Y-111038857D01*
X130914163Y-111007176D01*
X130999248Y-110950869D01*
X131160061Y-111032643D01*
X131258136Y-111088733D01*
X131362148Y-111157947D01*
X131449961Y-111225532D01*
X131451729Y-111227049D01*
X131517435Y-111281793D01*
X131558383Y-111310357D01*
X131580366Y-111315863D01*
X131589178Y-111301433D01*
X131589231Y-111301132D01*
X131600215Y-111244020D01*
X131616941Y-111164674D01*
X131637206Y-111072690D01*
X131645865Y-111034598D01*
X132061121Y-111034598D01*
X132064545Y-111055909D01*
X132100504Y-111054967D01*
X132171332Y-111033810D01*
X132245731Y-111007017D01*
X132329595Y-110971836D01*
X132374453Y-110939790D01*
X132382722Y-110905285D01*
X132356822Y-110862726D01*
X132322990Y-110828265D01*
X132290957Y-110802426D01*
X132263159Y-110796409D01*
X132231909Y-110813996D01*
X132189521Y-110858972D01*
X132142532Y-110917081D01*
X132087895Y-110989001D01*
X132061121Y-111034598D01*
X131645865Y-111034598D01*
X131658809Y-110977660D01*
X131679549Y-110889179D01*
X131697225Y-110816840D01*
X131709635Y-110770238D01*
X131713767Y-110758397D01*
X131740673Y-110747848D01*
X131785957Y-110748851D01*
X131820376Y-110750484D01*
X131851548Y-110740587D01*
X131885844Y-110713772D01*
X131929634Y-110664649D01*
X131989290Y-110587831D01*
X132011773Y-110557857D01*
X132099591Y-110454629D01*
X132184047Y-110382918D01*
X132260734Y-110346111D01*
X132292603Y-110341833D01*
X132371254Y-110361171D01*
G37*
X132371254Y-110361171D02*
X132454592Y-110414287D01*
X132537258Y-110493836D01*
X132613896Y-110592471D01*
X132679150Y-110702845D01*
X132727663Y-110817612D01*
X132754076Y-110929426D01*
X132757334Y-110979153D01*
X132754515Y-111044002D01*
X132740966Y-111090116D01*
X132709044Y-111134341D01*
X132667375Y-111177470D01*
X132608386Y-111228562D01*
X132539688Y-111270882D01*
X132449089Y-111311190D01*
X132379165Y-111337212D01*
X132289652Y-111369771D01*
X132234679Y-111392529D01*
X132208610Y-111409039D01*
X132205813Y-111422855D01*
X132220415Y-111437350D01*
X132317900Y-111496605D01*
X132438044Y-111542804D01*
X132590201Y-111579493D01*
X132600769Y-111581510D01*
X132689234Y-111599442D01*
X132764697Y-111617031D01*
X132815268Y-111631415D01*
X132826125Y-111635761D01*
X132850484Y-111642417D01*
X132861040Y-111623196D01*
X132863167Y-111576516D01*
X132874170Y-111511390D01*
X132904949Y-111420793D01*
X132947834Y-111323587D01*
X132992745Y-111228018D01*
X133019438Y-111162175D01*
X133029838Y-111118552D01*
X133025872Y-111089642D01*
X133012639Y-111071024D01*
X132998668Y-111039740D01*
X132984839Y-110981953D01*
X132978440Y-110941884D01*
X132971844Y-110876095D01*
X132976583Y-110837853D01*
X132996211Y-110813095D01*
X133014176Y-110800430D01*
X133064488Y-110777591D01*
X133147548Y-110750578D01*
X133254259Y-110721618D01*
X133375522Y-110692937D01*
X133502238Y-110666761D01*
X133625309Y-110645317D01*
X133680731Y-110637317D01*
X133772199Y-110625761D01*
X133831698Y-110621001D01*
X133869164Y-110623847D01*
X133894537Y-110635106D01*
X133917752Y-110655587D01*
X133918856Y-110656688D01*
X133957528Y-110688920D01*
X133985000Y-110701666D01*
X134000002Y-110720024D01*
X134006167Y-110763630D01*
X133986154Y-110830512D01*
X133926451Y-110883725D01*
X133827556Y-110922897D01*
X133777339Y-110934510D01*
X133689180Y-110953903D01*
X133600054Y-110976704D01*
X133561667Y-110987899D01*
X133489908Y-111008911D01*
X133424852Y-111025728D01*
X133408209Y-111029391D01*
X133363335Y-111049682D01*
X133350000Y-111075406D01*
X133355189Y-111092699D01*
X133376438Y-111101150D01*
X133422273Y-111101870D01*
X133501220Y-111095967D01*
X133505195Y-111095609D01*
X133660390Y-111081545D01*
X133738028Y-111154768D01*
X133783061Y-111203350D01*
X133811077Y-111245340D01*
X133815667Y-111260733D01*
X133798531Y-111287975D01*
X133754064Y-111325352D01*
X133704542Y-111357206D01*
X133639870Y-111391069D01*
X133582590Y-111410404D01*
X133515842Y-111419122D01*
X133429064Y-111421134D01*
X133346084Y-111421944D01*
X133294384Y-111426589D01*
X133262911Y-111438766D01*
X133240613Y-111462172D01*
X133222768Y-111490125D01*
X133195512Y-111538623D01*
X133181319Y-111571285D01*
X133180746Y-111574791D01*
X133200198Y-111585667D01*
X133253193Y-111590140D01*
X133331480Y-111588530D01*
X133426806Y-111581160D01*
X133530919Y-111568351D01*
X133590596Y-111558816D01*
X133773238Y-111526966D01*
X133846338Y-111604467D01*
X133890796Y-111658382D01*
X133903401Y-111700809D01*
X133883235Y-111743849D01*
X133831684Y-111797452D01*
X133771563Y-111833056D01*
X133673512Y-111864902D01*
X133541844Y-111891958D01*
X133380875Y-111913191D01*
X133326269Y-111918380D01*
X133169331Y-111921301D01*
X133046315Y-111899630D01*
X132956580Y-111853220D01*
X132929738Y-111827554D01*
X132897481Y-111792343D01*
X132886147Y-111788024D01*
X132889519Y-111813001D01*
X132890520Y-111817465D01*
X132882177Y-111874369D01*
X132851418Y-111918007D01*
X132784878Y-111958746D01*
X132687765Y-111970677D01*
X132560518Y-111953807D01*
X132408084Y-111909715D01*
X132225972Y-111839347D01*
X132077406Y-111766692D01*
X131970620Y-111696500D01*
X132863167Y-111696500D01*
X132870911Y-111713922D01*
X132877278Y-111710611D01*
X132879811Y-111685491D01*
X132877278Y-111682388D01*
X132864694Y-111685294D01*
X132863167Y-111696500D01*
X131970620Y-111696500D01*
X131966510Y-111693799D01*
X131956018Y-111685207D01*
X131913960Y-111651202D01*
X131894876Y-111643388D01*
X131889703Y-111660277D01*
X131889500Y-111674294D01*
X131880062Y-111721218D01*
X131856531Y-111782949D01*
X131847649Y-111801388D01*
X131795590Y-111869085D01*
X131730587Y-111901704D01*
X131660355Y-111896500D01*
X131627258Y-111879897D01*
X131584741Y-111830817D01*
X131552953Y-111753883D01*
X131535856Y-111663029D01*
X131537414Y-111572192D01*
X131538227Y-111566797D01*
X131552231Y-111479220D01*
X131477163Y-111545131D01*
X131428695Y-111585379D01*
X131380921Y-111618070D01*
X131326044Y-111646556D01*
X131256265Y-111674186D01*
X131163785Y-111704312D01*
X131040805Y-111740286D01*
X130988843Y-111754954D01*
X130742858Y-111819202D01*
X130531396Y-111864202D01*
X130355115Y-111889871D01*
X130214671Y-111896131D01*
X130110723Y-111882900D01*
X130069167Y-111867194D01*
X129961959Y-111788152D01*
X129881104Y-111679152D01*
X129829474Y-111545462D01*
X129809944Y-111392350D01*
X129809938Y-111391945D01*
X129827186Y-111286740D01*
X129879336Y-111168820D01*
X129962574Y-111042604D01*
X130073090Y-110912507D01*
X130207071Y-110782948D01*
X130360707Y-110658344D01*
X130530186Y-110543111D01*
X130556000Y-110527351D01*
X130639283Y-110476410D01*
X130713882Y-110429304D01*
X130768848Y-110393014D01*
X130786396Y-110380460D01*
X130833293Y-110355284D01*
X130883523Y-110342892D01*
X130922806Y-110345092D01*
X130937000Y-110361414D01*
X130953971Y-110382205D01*
X130997132Y-110413069D01*
X131026638Y-110430441D01*
X131084522Y-110467812D01*
X131114837Y-110506938D01*
X131129905Y-110563741D01*
X131129933Y-110563911D01*
X131136656Y-110622889D01*
X131136337Y-110664671D01*
X131134948Y-110670453D01*
X131113120Y-110689504D01*
X131062372Y-110720857D01*
X130992123Y-110758867D01*
X130962862Y-110773592D01*
X130863488Y-110825708D01*
X130757001Y-110886380D01*
X130665665Y-110942901D01*
X130661834Y-110945431D01*
X130574338Y-111011181D01*
X130472994Y-111099299D01*
X130368932Y-111198964D01*
X130273280Y-111299353D01*
X130197168Y-111389647D01*
X130177715Y-111416129D01*
X130148869Y-111461459D01*
X130144669Y-111484992D01*
X130163162Y-111497863D01*
X130163363Y-111497941D01*
X130212900Y-111504648D01*
X130295074Y-111502023D01*
X130401438Y-111490950D01*
X130523546Y-111472311D01*
X130621809Y-111453083D01*
X131550834Y-111453083D01*
X131561417Y-111463666D01*
X131572000Y-111453083D01*
X131561417Y-111442500D01*
X131550834Y-111453083D01*
X130621809Y-111453083D01*
X130652952Y-111446989D01*
X130654850Y-111446575D01*
X130764708Y-111422009D01*
X130838424Y-111402388D01*
X130881258Y-111383818D01*
X130898471Y-111362409D01*
X130895320Y-111334267D01*
X130877066Y-111295499D01*
X130871946Y-111285904D01*
X130847425Y-111229850D01*
X130837924Y-111186283D01*
X130839224Y-111176866D01*
X130835505Y-111147298D01*
X130826170Y-111140973D01*
X130810128Y-111120083D01*
X130826490Y-111083969D01*
X130871161Y-111038857D01*
X130914163Y-111007176D01*
X130999248Y-110950869D01*
X131160061Y-111032643D01*
X131258136Y-111088733D01*
X131362148Y-111157947D01*
X131449961Y-111225532D01*
X131451729Y-111227049D01*
X131517435Y-111281793D01*
X131558383Y-111310357D01*
X131580366Y-111315863D01*
X131589178Y-111301433D01*
X131589231Y-111301132D01*
X131600215Y-111244020D01*
X131616941Y-111164674D01*
X131637206Y-111072690D01*
X131645865Y-111034598D01*
X132061121Y-111034598D01*
X132064545Y-111055909D01*
X132100504Y-111054967D01*
X132171332Y-111033810D01*
X132245731Y-111007017D01*
X132329595Y-110971836D01*
X132374453Y-110939790D01*
X132382722Y-110905285D01*
X132356822Y-110862726D01*
X132322990Y-110828265D01*
X132290957Y-110802426D01*
X132263159Y-110796409D01*
X132231909Y-110813996D01*
X132189521Y-110858972D01*
X132142532Y-110917081D01*
X132087895Y-110989001D01*
X132061121Y-111034598D01*
X131645865Y-111034598D01*
X131658809Y-110977660D01*
X131679549Y-110889179D01*
X131697225Y-110816840D01*
X131709635Y-110770238D01*
X131713767Y-110758397D01*
X131740673Y-110747848D01*
X131785957Y-110748851D01*
X131820376Y-110750484D01*
X131851548Y-110740587D01*
X131885844Y-110713772D01*
X131929634Y-110664649D01*
X131989290Y-110587831D01*
X132011773Y-110557857D01*
X132099591Y-110454629D01*
X132184047Y-110382918D01*
X132260734Y-110346111D01*
X132292603Y-110341833D01*
X132371254Y-110361171D01*
D11*
X132750800Y-103351600D03*
X134750800Y-103351600D03*
X136750800Y-103351600D03*
X138750800Y-103351600D03*
X140750800Y-103351600D03*
X142750800Y-103351600D03*
X144750800Y-103351600D03*
X146750800Y-103351600D03*
X146750800Y-87351600D03*
X144750800Y-87351600D03*
X142750800Y-87351600D03*
X140750800Y-87351600D03*
X138750800Y-87351600D03*
X136750800Y-87351600D03*
X134750800Y-87351600D03*
X132750800Y-87351600D03*
D12*
X148209000Y-82448400D03*
X143129000Y-82448400D03*
D13*
X145669000Y-83464400D03*
D14*
X135280400Y-84152500D03*
X135280400Y-82217500D03*
X138658600Y-82293700D03*
X138658600Y-84228700D03*
D15*
X151180800Y-110896400D03*
X148640800Y-110896400D03*
X146100800Y-110896400D03*
D16*
X143560800Y-110896400D03*
D15*
X145669000Y-84836000D03*
D17*
X151157671Y-87820707D03*
X151157671Y-90360707D03*
X151157671Y-92900707D03*
X151157671Y-95440707D03*
X151157671Y-97980707D03*
X151157671Y-100520707D03*
X151157671Y-103060707D03*
D18*
X151157671Y-105600707D03*
X128297671Y-105600707D03*
D17*
X128297671Y-103060707D03*
X128297671Y-100520707D03*
X128297671Y-97980707D03*
X128297671Y-95440707D03*
X128297671Y-92900707D03*
X128297671Y-90360707D03*
X128297671Y-87820707D03*
D19*
X149860000Y-85852000D03*
X142240000Y-85471000D03*
X138684000Y-82423000D03*
X132715000Y-103378000D03*
X150749000Y-82423000D03*
X150749000Y-84201000D03*
X148209000Y-85852000D03*
X148209000Y-87503000D03*
X140716000Y-83312000D03*
X140716000Y-81407000D03*
X140716000Y-84963000D03*
X148209000Y-89281000D03*
X146431000Y-89408000D03*
X144907000Y-89408000D03*
D20*
X136906000Y-85471000D03*
D19*
X142821660Y-103383080D03*
X132715000Y-87376000D03*
D20*
X143675100Y-108064300D03*
D19*
X141986000Y-97663000D03*
X136779000Y-87263544D03*
X134721600Y-89484200D03*
X136779000Y-103377000D03*
X134747000Y-103377000D03*
X138811000Y-103441001D03*
D20*
X140741401Y-101396800D03*
D21*
X138582400Y-84152500D02*
X138658600Y-84228700D01*
X135280400Y-84152500D02*
X138582400Y-84152500D01*
X138658600Y-87259400D02*
X138750800Y-87351600D01*
X138658600Y-84228700D02*
X138658600Y-87259400D01*
X131747500Y-84152500D02*
X135280400Y-84152500D01*
X130556000Y-85344000D02*
X131747500Y-84152500D01*
X130556000Y-105042378D02*
X130556000Y-85344000D01*
X128297671Y-105600707D02*
X129997671Y-105600707D01*
X129997671Y-105600707D02*
X130556000Y-105042378D01*
D22*
X146319000Y-85486000D02*
X145669000Y-84836000D01*
X146319000Y-87377000D02*
X146319000Y-85486000D01*
X145669000Y-83464400D02*
X145669000Y-84836000D01*
D23*
X143659860Y-110797340D02*
X143560800Y-110896400D01*
X143675100Y-108064300D02*
X143659860Y-108079540D01*
X143659860Y-108079540D02*
X143659860Y-110797340D01*
X142750800Y-95501200D02*
X142750800Y-87351600D01*
X142748000Y-95504000D02*
X142750800Y-95501200D01*
X143764000Y-96520000D02*
X142748000Y-95504000D01*
X143764000Y-105029000D02*
X143764000Y-96520000D01*
X146100800Y-110896400D02*
X146100800Y-107365800D01*
X146100800Y-107365800D02*
X143764000Y-105029000D01*
X140750800Y-89188800D02*
X140750800Y-87351600D01*
X142113000Y-90551000D02*
X140750800Y-89188800D01*
X141986000Y-97663000D02*
X142113000Y-97536000D01*
X142113000Y-97536000D02*
X142113000Y-90551000D01*
X144970000Y-104457000D02*
X144970000Y-103377000D01*
X151180800Y-110896400D02*
X151180800Y-110667800D01*
X151180800Y-110667800D02*
X144970000Y-104457000D01*
X134721600Y-87380800D02*
X134750800Y-87351600D01*
X134721600Y-89484200D02*
X134721600Y-87380800D01*
X140614400Y-103215200D02*
X140750800Y-103351600D01*
X140741401Y-103342201D02*
X140750800Y-103351600D01*
X140741401Y-101396800D02*
X140741401Y-103342201D01*
D24*
G36*
X134129215Y-85251185D02*
G01*
X134225906Y-85330537D01*
X134336220Y-85389502D01*
X134455918Y-85425812D01*
X134580400Y-85438072D01*
X135980400Y-85438072D01*
X136104882Y-85425812D01*
X136224580Y-85389502D01*
X136334894Y-85330537D01*
X136431585Y-85251185D01*
X136483850Y-85187500D01*
X137404975Y-85187500D01*
X137428063Y-85230694D01*
X137507415Y-85327385D01*
X137604106Y-85406737D01*
X137623600Y-85417157D01*
X137623601Y-85836087D01*
X137605294Y-85821063D01*
X137494980Y-85762098D01*
X137375282Y-85725788D01*
X137250800Y-85713528D01*
X136250800Y-85713528D01*
X136126318Y-85725788D01*
X136006620Y-85762098D01*
X135896306Y-85821063D01*
X135799615Y-85900415D01*
X135750800Y-85959896D01*
X135701985Y-85900415D01*
X135605294Y-85821063D01*
X135494980Y-85762098D01*
X135375282Y-85725788D01*
X135250800Y-85713528D01*
X134250800Y-85713528D01*
X134126318Y-85725788D01*
X134006620Y-85762098D01*
X133896306Y-85821063D01*
X133799615Y-85900415D01*
X133750800Y-85959896D01*
X133701985Y-85900415D01*
X133605294Y-85821063D01*
X133494980Y-85762098D01*
X133375282Y-85725788D01*
X133250800Y-85713528D01*
X132250800Y-85713528D01*
X132126318Y-85725788D01*
X132006620Y-85762098D01*
X131896306Y-85821063D01*
X131799615Y-85900415D01*
X131720263Y-85997106D01*
X131661298Y-86107420D01*
X131624988Y-86227118D01*
X131612728Y-86351600D01*
X131612728Y-88351600D01*
X131624988Y-88476082D01*
X131661298Y-88595780D01*
X131720263Y-88706094D01*
X131799615Y-88802785D01*
X131896306Y-88882137D01*
X132006620Y-88941102D01*
X132126318Y-88977412D01*
X132250800Y-88989672D01*
X133250800Y-88989672D01*
X133375282Y-88977412D01*
X133494980Y-88941102D01*
X133605294Y-88882137D01*
X133701985Y-88802785D01*
X133750800Y-88743304D01*
X133799615Y-88802785D01*
X133886600Y-88874172D01*
X133886600Y-88973691D01*
X133854996Y-89020990D01*
X133781280Y-89198957D01*
X133743700Y-89387885D01*
X133743700Y-89580515D01*
X133781280Y-89769443D01*
X133854996Y-89947410D01*
X133962015Y-90107575D01*
X134098225Y-90243785D01*
X134258390Y-90350804D01*
X134436357Y-90424520D01*
X134625285Y-90462100D01*
X134817915Y-90462100D01*
X135006843Y-90424520D01*
X135184810Y-90350804D01*
X135344975Y-90243785D01*
X135481185Y-90107575D01*
X135588204Y-89947410D01*
X135661920Y-89769443D01*
X135699500Y-89580515D01*
X135699500Y-89387885D01*
X135661920Y-89198957D01*
X135588204Y-89020990D01*
X135556600Y-88973691D01*
X135556600Y-88908165D01*
X135605294Y-88882137D01*
X135701985Y-88802785D01*
X135750800Y-88743304D01*
X135799615Y-88802785D01*
X135896306Y-88882137D01*
X136006620Y-88941102D01*
X136126318Y-88977412D01*
X136250800Y-88989672D01*
X137250800Y-88989672D01*
X137375282Y-88977412D01*
X137494980Y-88941102D01*
X137605294Y-88882137D01*
X137701985Y-88802785D01*
X137750800Y-88743304D01*
X137799615Y-88802785D01*
X137896306Y-88882137D01*
X138006620Y-88941102D01*
X138126318Y-88977412D01*
X138250800Y-88989672D01*
X139250800Y-88989672D01*
X139375282Y-88977412D01*
X139494980Y-88941102D01*
X139605294Y-88882137D01*
X139701985Y-88802785D01*
X139750800Y-88743304D01*
X139799615Y-88802785D01*
X139896306Y-88882137D01*
X139915800Y-88892557D01*
X139915800Y-89147781D01*
X139911760Y-89188800D01*
X139915800Y-89229818D01*
X139927882Y-89352488D01*
X139975628Y-89509886D01*
X140053164Y-89654945D01*
X140157509Y-89782091D01*
X140189378Y-89808246D01*
X141278001Y-90896870D01*
X141278000Y-96988040D01*
X141226415Y-97039625D01*
X141119396Y-97199790D01*
X141045680Y-97377757D01*
X141008100Y-97566685D01*
X141008100Y-97759315D01*
X141045680Y-97948243D01*
X141119396Y-98126210D01*
X141226415Y-98286375D01*
X141362625Y-98422585D01*
X141522790Y-98529604D01*
X141700757Y-98603320D01*
X141889685Y-98640900D01*
X142082315Y-98640900D01*
X142271243Y-98603320D01*
X142449210Y-98529604D01*
X142609375Y-98422585D01*
X142745585Y-98286375D01*
X142852604Y-98126210D01*
X142926320Y-97948243D01*
X142929001Y-97934766D01*
X142929000Y-101713528D01*
X142250800Y-101713528D01*
X142126318Y-101725788D01*
X142006620Y-101762098D01*
X141896306Y-101821063D01*
X141799615Y-101900415D01*
X141750800Y-101959896D01*
X141701985Y-101900415D01*
X141665481Y-101870457D01*
X141736627Y-101698698D01*
X141776401Y-101498739D01*
X141776401Y-101294861D01*
X141736627Y-101094902D01*
X141658606Y-100906544D01*
X141545338Y-100737026D01*
X141401175Y-100592863D01*
X141231657Y-100479595D01*
X141043299Y-100401574D01*
X140843340Y-100361800D01*
X140639462Y-100361800D01*
X140439503Y-100401574D01*
X140251145Y-100479595D01*
X140081627Y-100592863D01*
X139937464Y-100737026D01*
X139824196Y-100906544D01*
X139746175Y-101094902D01*
X139706401Y-101294861D01*
X139706401Y-101498739D01*
X139746175Y-101698698D01*
X139822090Y-101881971D01*
X139799615Y-101900415D01*
X139750800Y-101959896D01*
X139701985Y-101900415D01*
X139605294Y-101821063D01*
X139494980Y-101762098D01*
X139375282Y-101725788D01*
X139250800Y-101713528D01*
X138250800Y-101713528D01*
X138126318Y-101725788D01*
X138006620Y-101762098D01*
X137896306Y-101821063D01*
X137799615Y-101900415D01*
X137750800Y-101959896D01*
X137701985Y-101900415D01*
X137605294Y-101821063D01*
X137494980Y-101762098D01*
X137375282Y-101725788D01*
X137250800Y-101713528D01*
X136250800Y-101713528D01*
X136126318Y-101725788D01*
X136006620Y-101762098D01*
X135896306Y-101821063D01*
X135799615Y-101900415D01*
X135750800Y-101959896D01*
X135701985Y-101900415D01*
X135605294Y-101821063D01*
X135494980Y-101762098D01*
X135375282Y-101725788D01*
X135250800Y-101713528D01*
X134250800Y-101713528D01*
X134126318Y-101725788D01*
X134006620Y-101762098D01*
X133896306Y-101821063D01*
X133799615Y-101900415D01*
X133750800Y-101959896D01*
X133701985Y-101900415D01*
X133605294Y-101821063D01*
X133494980Y-101762098D01*
X133375282Y-101725788D01*
X133250800Y-101713528D01*
X133036550Y-101716600D01*
X132877800Y-101875350D01*
X132877800Y-103224600D01*
X132897800Y-103224600D01*
X132897800Y-103478600D01*
X132877800Y-103478600D01*
X132877800Y-104827850D01*
X133036550Y-104986600D01*
X133250800Y-104989672D01*
X133375282Y-104977412D01*
X133494980Y-104941102D01*
X133605294Y-104882137D01*
X133701985Y-104802785D01*
X133750800Y-104743304D01*
X133799615Y-104802785D01*
X133896306Y-104882137D01*
X134006620Y-104941102D01*
X134126318Y-104977412D01*
X134250800Y-104989672D01*
X135250800Y-104989672D01*
X135375282Y-104977412D01*
X135494980Y-104941102D01*
X135605294Y-104882137D01*
X135701985Y-104802785D01*
X135750800Y-104743304D01*
X135799615Y-104802785D01*
X135896306Y-104882137D01*
X136006620Y-104941102D01*
X136126318Y-104977412D01*
X136250800Y-104989672D01*
X137250800Y-104989672D01*
X137375282Y-104977412D01*
X137494980Y-104941102D01*
X137605294Y-104882137D01*
X137701985Y-104802785D01*
X137750800Y-104743304D01*
X137799615Y-104802785D01*
X137896306Y-104882137D01*
X138006620Y-104941102D01*
X138126318Y-104977412D01*
X138250800Y-104989672D01*
X139250800Y-104989672D01*
X139375282Y-104977412D01*
X139494980Y-104941102D01*
X139605294Y-104882137D01*
X139701985Y-104802785D01*
X139750800Y-104743304D01*
X139799615Y-104802785D01*
X139896306Y-104882137D01*
X140006620Y-104941102D01*
X140126318Y-104977412D01*
X140250800Y-104989672D01*
X141250800Y-104989672D01*
X141375282Y-104977412D01*
X141494980Y-104941102D01*
X141605294Y-104882137D01*
X141701985Y-104802785D01*
X141750800Y-104743304D01*
X141799615Y-104802785D01*
X141896306Y-104882137D01*
X142006620Y-104941102D01*
X142126318Y-104977412D01*
X142250800Y-104989672D01*
X142928834Y-104989672D01*
X142924960Y-105029000D01*
X142929000Y-105070018D01*
X142941082Y-105192688D01*
X142988828Y-105350086D01*
X143066364Y-105495145D01*
X143170709Y-105622291D01*
X143202579Y-105648446D01*
X145265801Y-107711669D01*
X145265800Y-109668335D01*
X145154168Y-109742925D01*
X144947325Y-109949768D01*
X144830800Y-110124160D01*
X144714275Y-109949768D01*
X144507432Y-109742925D01*
X144494860Y-109734525D01*
X144494860Y-108700393D01*
X144592305Y-108554556D01*
X144670326Y-108366198D01*
X144710100Y-108166239D01*
X144710100Y-107962361D01*
X144670326Y-107762402D01*
X144592305Y-107574044D01*
X144479037Y-107404526D01*
X144334874Y-107260363D01*
X144165356Y-107147095D01*
X143976998Y-107069074D01*
X143777039Y-107029300D01*
X143573161Y-107029300D01*
X143373202Y-107069074D01*
X143184844Y-107147095D01*
X143015326Y-107260363D01*
X142871163Y-107404526D01*
X142757895Y-107574044D01*
X142679874Y-107762402D01*
X142640100Y-107962361D01*
X142640100Y-108166239D01*
X142679874Y-108366198D01*
X142757895Y-108554556D01*
X142824860Y-108654777D01*
X142824861Y-109602145D01*
X142614168Y-109742925D01*
X142407325Y-109949768D01*
X142244810Y-110192989D01*
X142132868Y-110463242D01*
X142075800Y-110750140D01*
X142075800Y-111042660D01*
X142132868Y-111329558D01*
X142244810Y-111599811D01*
X142407325Y-111843032D01*
X142614168Y-112049875D01*
X142857389Y-112212390D01*
X143127642Y-112324332D01*
X143414540Y-112381400D01*
X143707060Y-112381400D01*
X143993958Y-112324332D01*
X144264211Y-112212390D01*
X144507432Y-112049875D01*
X144714275Y-111843032D01*
X144830800Y-111668640D01*
X144947325Y-111843032D01*
X145154168Y-112049875D01*
X145397389Y-112212390D01*
X145667642Y-112324332D01*
X145954540Y-112381400D01*
X146247060Y-112381400D01*
X146533958Y-112324332D01*
X146804211Y-112212390D01*
X147047432Y-112049875D01*
X147254275Y-111843032D01*
X147370800Y-111668640D01*
X147487325Y-111843032D01*
X147694168Y-112049875D01*
X147937389Y-112212390D01*
X148207642Y-112324332D01*
X148494540Y-112381400D01*
X148787060Y-112381400D01*
X149073958Y-112324332D01*
X149344211Y-112212390D01*
X149587432Y-112049875D01*
X149794275Y-111843032D01*
X149910800Y-111668640D01*
X150027325Y-111843032D01*
X150234168Y-112049875D01*
X150477389Y-112212390D01*
X150747642Y-112324332D01*
X151034540Y-112381400D01*
X151327060Y-112381400D01*
X151613958Y-112324332D01*
X151884211Y-112212390D01*
X151918600Y-112189412D01*
X151918600Y-113742400D01*
X144270800Y-113742400D01*
X144270800Y-113293477D01*
X144274235Y-113258600D01*
X144260527Y-113119416D01*
X144219928Y-112985580D01*
X144154000Y-112862237D01*
X144065275Y-112754125D01*
X143957163Y-112665400D01*
X143833820Y-112599472D01*
X143699984Y-112558873D01*
X143606673Y-112549683D01*
X143560800Y-112545165D01*
X143525923Y-112548600D01*
X139610894Y-112548600D01*
X139635665Y-112545490D01*
X139649512Y-112540896D01*
X139663886Y-112538423D01*
X139708666Y-112521269D01*
X139754216Y-112506156D01*
X139762356Y-112502470D01*
X139816930Y-112477305D01*
X139842839Y-112462131D01*
X139870156Y-112449667D01*
X139877853Y-112445128D01*
X139908633Y-112426687D01*
X139957134Y-112390763D01*
X140006006Y-112355039D01*
X140008886Y-112352431D01*
X140009004Y-112352343D01*
X140009105Y-112352232D01*
X140012629Y-112349040D01*
X140093067Y-112275162D01*
X140124292Y-112240280D01*
X140157185Y-112206980D01*
X140165868Y-112193835D01*
X140176376Y-112182097D01*
X140200223Y-112141830D01*
X140226031Y-112102761D01*
X140230150Y-112094831D01*
X140275718Y-112005581D01*
X140298061Y-111948708D01*
X140320676Y-111891822D01*
X140320913Y-111890541D01*
X140321391Y-111889324D01*
X140332264Y-111829181D01*
X140340108Y-111786778D01*
X140359190Y-111757498D01*
X140387284Y-111718341D01*
X140393232Y-111705265D01*
X140401078Y-111693225D01*
X140405147Y-111685269D01*
X140419963Y-111655803D01*
X140423788Y-111645885D01*
X140429167Y-111636716D01*
X140446238Y-111587683D01*
X140464913Y-111539265D01*
X140466738Y-111528798D01*
X140470235Y-111518754D01*
X140477461Y-111467308D01*
X140486371Y-111416216D01*
X140486129Y-111405595D01*
X140487608Y-111395062D01*
X140484706Y-111343232D01*
X140483522Y-111291342D01*
X140481219Y-111280961D01*
X140480625Y-111270351D01*
X140471536Y-111234964D01*
X140471318Y-111232665D01*
X140468656Y-111223749D01*
X140467713Y-111220079D01*
X140456471Y-111169401D01*
X140452198Y-111159670D01*
X140449553Y-111149372D01*
X140446437Y-111140997D01*
X140441398Y-111127735D01*
X140437860Y-111120609D01*
X140435582Y-111112980D01*
X140412446Y-111069146D01*
X140406250Y-111055035D01*
X140402964Y-111050326D01*
X140385851Y-111015859D01*
X140380992Y-111009550D01*
X140377279Y-111002516D01*
X140342929Y-110960133D01*
X140309632Y-110916904D01*
X140303647Y-110911665D01*
X140298633Y-110905479D01*
X140292311Y-110899163D01*
X140259681Y-110867013D01*
X140214712Y-110830630D01*
X140179888Y-110801608D01*
X140170602Y-110745438D01*
X140169805Y-110742459D01*
X140169571Y-110739380D01*
X140167967Y-110730589D01*
X140155389Y-110664263D01*
X140155062Y-110663146D01*
X140154954Y-110661996D01*
X140137490Y-110603205D01*
X140120252Y-110544401D01*
X140119718Y-110543378D01*
X140119387Y-110542262D01*
X140115960Y-110534008D01*
X140087035Y-110465680D01*
X140081407Y-110455334D01*
X140077485Y-110444226D01*
X140051607Y-110400551D01*
X140027349Y-110355957D01*
X140019817Y-110346899D01*
X140013813Y-110336766D01*
X139979943Y-110298946D01*
X139947488Y-110259916D01*
X139938344Y-110252497D01*
X139930484Y-110243720D01*
X139923859Y-110237723D01*
X139875057Y-110194162D01*
X139834009Y-110164171D01*
X139794068Y-110132695D01*
X139783647Y-110127376D01*
X139774202Y-110120475D01*
X139728111Y-110099028D01*
X139682818Y-110075909D01*
X139674477Y-110072701D01*
X139597595Y-110043740D01*
X139567804Y-110035735D01*
X139538940Y-110024815D01*
X139530297Y-110022545D01*
X139486892Y-110011464D01*
X139454683Y-110006523D01*
X139423069Y-109998588D01*
X139414222Y-109997331D01*
X139371629Y-109991580D01*
X139338405Y-109990368D01*
X139305409Y-109986118D01*
X139276125Y-109988095D01*
X139246806Y-109987025D01*
X139213966Y-109992291D01*
X139180786Y-109994531D01*
X139152452Y-110002155D01*
X139123475Y-110006802D01*
X139092285Y-110018345D01*
X139060171Y-110026987D01*
X139051832Y-110030198D01*
X139026301Y-110040235D01*
X139008318Y-110049422D01*
X139006335Y-110050156D01*
X139003603Y-110051831D01*
X138994758Y-110056350D01*
X138961947Y-110069741D01*
X138939258Y-110084703D01*
X138915069Y-110097061D01*
X138887254Y-110118998D01*
X138857673Y-110138505D01*
X138838325Y-110157586D01*
X138816994Y-110174409D01*
X138793971Y-110201328D01*
X138768740Y-110226211D01*
X138763068Y-110233117D01*
X138748020Y-110251702D01*
X138737923Y-110255957D01*
X138734747Y-110257678D01*
X138709052Y-110233375D01*
X138679319Y-110210306D01*
X138651467Y-110184990D01*
X138644262Y-110179704D01*
X138590345Y-110140719D01*
X138561737Y-110124023D01*
X138534777Y-110104763D01*
X138527003Y-110100357D01*
X138472815Y-110070146D01*
X138468561Y-110068293D01*
X138464709Y-110065703D01*
X138411330Y-110043359D01*
X138358305Y-110020258D01*
X138353773Y-110019267D01*
X138349491Y-110017474D01*
X138340932Y-110014904D01*
X138299463Y-110002767D01*
X138275984Y-109998325D01*
X138253209Y-109991082D01*
X138214760Y-109986741D01*
X138176734Y-109979547D01*
X138152831Y-109979750D01*
X138129091Y-109977070D01*
X138090532Y-109980279D01*
X138051832Y-109980608D01*
X138028435Y-109985448D01*
X138004615Y-109987430D01*
X137995836Y-109989099D01*
X137979025Y-109992415D01*
X137976263Y-109993247D01*
X137973402Y-109993551D01*
X137941894Y-110003347D01*
X137929515Y-110005908D01*
X137917930Y-110010799D01*
X137916521Y-110011237D01*
X137859424Y-110028430D01*
X137856880Y-110029780D01*
X137854128Y-110030636D01*
X137845919Y-110034167D01*
X137791766Y-110057907D01*
X137768882Y-110070734D01*
X137744690Y-110080885D01*
X137736857Y-110085185D01*
X137660836Y-110127607D01*
X137652096Y-110133673D01*
X137642490Y-110138247D01*
X137634868Y-110142911D01*
X137544527Y-110199060D01*
X137539643Y-110202803D01*
X137534175Y-110205632D01*
X137526711Y-110210547D01*
X137429590Y-110275465D01*
X137425513Y-110278809D01*
X137420901Y-110281376D01*
X137413590Y-110286515D01*
X137385458Y-110306582D01*
X137383042Y-110303847D01*
X137367998Y-110282318D01*
X137341795Y-110257142D01*
X137317749Y-110229914D01*
X137296873Y-110213980D01*
X137277929Y-110195779D01*
X137247342Y-110176176D01*
X137218460Y-110154132D01*
X137210828Y-110149483D01*
X137174476Y-110127682D01*
X137123960Y-110103747D01*
X137061610Y-110074203D01*
X137053178Y-110071242D01*
X136987801Y-110048791D01*
X136985664Y-110048284D01*
X136983654Y-110047382D01*
X136975163Y-110044598D01*
X136859681Y-110007607D01*
X136806296Y-109996103D01*
X136753285Y-109983300D01*
X136745352Y-109982970D01*
X136737577Y-109981295D01*
X136683002Y-109980380D01*
X136628487Y-109978115D01*
X136620631Y-109979334D01*
X136612689Y-109979201D01*
X136558974Y-109988903D01*
X136505058Y-109997271D01*
X136497598Y-109999989D01*
X136489772Y-110001403D01*
X136438956Y-110021358D01*
X136387701Y-110040035D01*
X136380906Y-110044154D01*
X136373508Y-110047059D01*
X136327541Y-110076501D01*
X136280885Y-110104781D01*
X136275021Y-110110139D01*
X136268327Y-110114427D01*
X136255229Y-110127004D01*
X136252206Y-110125018D01*
X136232013Y-110108191D01*
X136224588Y-110103220D01*
X136181179Y-110074592D01*
X136158760Y-110062769D01*
X136137875Y-110048430D01*
X136103654Y-110033710D01*
X136070694Y-110016329D01*
X136046414Y-110009089D01*
X136023134Y-109999075D01*
X136014601Y-109996421D01*
X135987370Y-109988161D01*
X135979718Y-109986636D01*
X135973574Y-109984252D01*
X135971712Y-109983924D01*
X135968916Y-109982864D01*
X135916735Y-109974080D01*
X135864874Y-109963742D01*
X135857241Y-109963732D01*
X135850567Y-109962555D01*
X135848521Y-109962598D01*
X135845743Y-109962130D01*
X135792850Y-109963649D01*
X135739968Y-109963581D01*
X135732669Y-109965016D01*
X135725688Y-109965162D01*
X135723510Y-109965641D01*
X135720888Y-109965716D01*
X135669323Y-109977473D01*
X135617410Y-109987682D01*
X135610703Y-109990436D01*
X135603694Y-109991977D01*
X135601489Y-109992940D01*
X135599108Y-109993483D01*
X135590651Y-109996370D01*
X135590482Y-109996429D01*
X135546336Y-110016869D01*
X135501867Y-110035131D01*
X135496977Y-110038371D01*
X135480248Y-110032833D01*
X135460829Y-110023501D01*
X135421081Y-110013246D01*
X135382124Y-110000349D01*
X135360754Y-109997681D01*
X135339884Y-109992296D01*
X135331045Y-109990981D01*
X135293114Y-109985605D01*
X135242623Y-109983430D01*
X135192234Y-109979368D01*
X135180312Y-109980745D01*
X135168324Y-109980229D01*
X135118386Y-109987900D01*
X135069537Y-109993544D01*
X135026300Y-109981954D01*
X134971038Y-109966189D01*
X134965914Y-109965766D01*
X134960968Y-109964440D01*
X134903775Y-109960634D01*
X134846555Y-109955909D01*
X134841458Y-109956488D01*
X134836338Y-109956147D01*
X134779468Y-109963526D01*
X134722447Y-109970000D01*
X134713722Y-109971932D01*
X134678201Y-109980053D01*
X134642957Y-109991831D01*
X134606889Y-110000777D01*
X134583861Y-110011579D01*
X134559735Y-110019641D01*
X134527453Y-110038038D01*
X134493806Y-110053821D01*
X134487926Y-110057373D01*
X134445456Y-110037356D01*
X134409105Y-110024386D01*
X134373816Y-110008730D01*
X134365313Y-110005980D01*
X134328695Y-109994417D01*
X134283638Y-109984902D01*
X134239118Y-109973078D01*
X134222636Y-109972020D01*
X134206485Y-109968609D01*
X134160439Y-109968026D01*
X134114468Y-109965075D01*
X134098096Y-109967238D01*
X134081588Y-109967029D01*
X134036304Y-109975401D01*
X134033477Y-109975775D01*
X134030935Y-109975848D01*
X134028201Y-109976472D01*
X133990639Y-109981434D01*
X133981950Y-109983525D01*
X133957684Y-109989542D01*
X133952558Y-109991360D01*
X133926546Y-109986424D01*
X133917640Y-109985686D01*
X133880174Y-109982840D01*
X133834886Y-109983833D01*
X133789573Y-109982388D01*
X133780660Y-109983039D01*
X133721161Y-109987799D01*
X133711086Y-109989607D01*
X133700853Y-109989750D01*
X133691979Y-109990808D01*
X133600512Y-110002364D01*
X133599345Y-110002629D01*
X133598149Y-110002667D01*
X133589296Y-110003882D01*
X133533875Y-110011882D01*
X133529135Y-110013047D01*
X133524264Y-110013344D01*
X133515450Y-110014816D01*
X133392379Y-110036260D01*
X133387043Y-110037738D01*
X133381529Y-110038247D01*
X133372765Y-110039994D01*
X133246049Y-110066170D01*
X133241577Y-110067561D01*
X133236925Y-110068124D01*
X133228214Y-110070120D01*
X133106951Y-110098802D01*
X133101244Y-110100757D01*
X133095275Y-110101679D01*
X133086635Y-110103959D01*
X133052093Y-110113333D01*
X133042637Y-110101163D01*
X133014015Y-110070945D01*
X132987425Y-110038918D01*
X132981029Y-110032677D01*
X132898363Y-109953128D01*
X132852002Y-109916515D01*
X132806076Y-109879442D01*
X132800433Y-109875790D01*
X132800338Y-109875715D01*
X132800238Y-109875664D01*
X132798574Y-109874587D01*
X132715236Y-109821470D01*
X132681861Y-109804529D01*
X132649935Y-109785032D01*
X132626310Y-109776333D01*
X132603856Y-109764936D01*
X132567843Y-109754805D01*
X132532723Y-109741874D01*
X132524060Y-109739681D01*
X132445409Y-109720343D01*
X132393184Y-109712805D01*
X132341196Y-109703681D01*
X132331442Y-109703893D01*
X132321784Y-109702499D01*
X132269095Y-109705248D01*
X132216320Y-109706395D01*
X132207455Y-109707522D01*
X132175586Y-109711800D01*
X132142978Y-109719476D01*
X132109816Y-109724160D01*
X132082334Y-109733751D01*
X132054003Y-109740420D01*
X132023521Y-109754276D01*
X131991886Y-109765317D01*
X131983803Y-109769128D01*
X131907116Y-109805935D01*
X131894209Y-109813764D01*
X131880293Y-109819595D01*
X131840916Y-109846089D01*
X131800320Y-109870713D01*
X131789182Y-109880897D01*
X131776661Y-109889322D01*
X131769809Y-109895058D01*
X131685353Y-109966770D01*
X131652454Y-110000759D01*
X131617960Y-110033164D01*
X131612123Y-110039930D01*
X131585779Y-110070898D01*
X131562115Y-110045847D01*
X131535860Y-110014058D01*
X131519325Y-110000549D01*
X131504663Y-109985028D01*
X131471075Y-109961131D01*
X131439131Y-109935033D01*
X131431657Y-109930134D01*
X131373773Y-109892763D01*
X131368932Y-109890270D01*
X131359329Y-109881251D01*
X131314969Y-109839318D01*
X131314105Y-109838774D01*
X131313348Y-109838063D01*
X131260814Y-109805229D01*
X131209262Y-109772779D01*
X131208308Y-109772413D01*
X131207428Y-109771863D01*
X131149926Y-109750014D01*
X131092644Y-109728038D01*
X131091624Y-109727862D01*
X131090666Y-109727498D01*
X131030166Y-109717259D01*
X130969556Y-109706802D01*
X130968529Y-109706827D01*
X130967511Y-109706655D01*
X130958593Y-109706093D01*
X130919309Y-109703893D01*
X130891017Y-109705076D01*
X130862767Y-109703229D01*
X130828773Y-109707679D01*
X130794512Y-109709112D01*
X130766995Y-109715767D01*
X130738919Y-109719442D01*
X130730228Y-109721522D01*
X130679998Y-109733914D01*
X130667476Y-109738338D01*
X130654432Y-109740786D01*
X130608699Y-109759104D01*
X130562226Y-109775523D01*
X130550806Y-109782293D01*
X130538482Y-109787229D01*
X130530580Y-109791401D01*
X130483683Y-109816576D01*
X130453274Y-109836955D01*
X130421320Y-109854799D01*
X130414016Y-109859947D01*
X130406198Y-109865540D01*
X130366704Y-109891615D01*
X130301460Y-109932814D01*
X130222199Y-109981295D01*
X130196693Y-109996867D01*
X130187709Y-110003638D01*
X130177759Y-110008887D01*
X130170334Y-110013860D01*
X130000856Y-110129093D01*
X129983539Y-110143528D01*
X129964546Y-110155694D01*
X129957566Y-110161275D01*
X129803931Y-110285879D01*
X129787234Y-110302370D01*
X129768646Y-110316704D01*
X129762179Y-110322871D01*
X129628198Y-110452430D01*
X129610768Y-110472939D01*
X129591159Y-110491386D01*
X129589600Y-110493195D01*
X129589600Y-107732682D01*
X129590961Y-107724959D01*
X129589600Y-107662830D01*
X129589600Y-107635723D01*
X129588836Y-107627969D01*
X129587898Y-107585135D01*
X129581997Y-107558531D01*
X129579327Y-107531416D01*
X129566892Y-107490425D01*
X129557615Y-107448595D01*
X129546637Y-107423652D01*
X129538728Y-107397580D01*
X129518533Y-107359798D01*
X129501275Y-107320586D01*
X129485645Y-107298268D01*
X129472800Y-107274237D01*
X129445622Y-107241120D01*
X129421046Y-107206029D01*
X129401361Y-107187188D01*
X129384075Y-107166125D01*
X129350962Y-107138950D01*
X129334167Y-107122875D01*
X129441851Y-107090209D01*
X129552165Y-107031244D01*
X129648856Y-106951892D01*
X129728208Y-106855201D01*
X129787173Y-106744887D01*
X129820292Y-106635707D01*
X129946843Y-106635707D01*
X129997671Y-106640713D01*
X130048499Y-106635707D01*
X130048509Y-106635707D01*
X130200566Y-106620731D01*
X130395664Y-106561548D01*
X130575468Y-106465441D01*
X130733067Y-106336103D01*
X130765478Y-106296610D01*
X131251903Y-105810185D01*
X131291396Y-105777774D01*
X131420734Y-105620175D01*
X131516841Y-105440371D01*
X131576024Y-105245273D01*
X131591000Y-105093216D01*
X131591000Y-105093207D01*
X131596006Y-105042379D01*
X131591000Y-104991551D01*
X131591000Y-104351600D01*
X131612728Y-104351600D01*
X131624988Y-104476082D01*
X131661298Y-104595780D01*
X131720263Y-104706094D01*
X131799615Y-104802785D01*
X131896306Y-104882137D01*
X132006620Y-104941102D01*
X132126318Y-104977412D01*
X132250800Y-104989672D01*
X132465050Y-104986600D01*
X132623800Y-104827850D01*
X132623800Y-103478600D01*
X131774550Y-103478600D01*
X131615800Y-103637350D01*
X131612728Y-104351600D01*
X131591000Y-104351600D01*
X131591000Y-102351600D01*
X131612728Y-102351600D01*
X131615800Y-103065850D01*
X131774550Y-103224600D01*
X132623800Y-103224600D01*
X132623800Y-101875350D01*
X132465050Y-101716600D01*
X132250800Y-101713528D01*
X132126318Y-101725788D01*
X132006620Y-101762098D01*
X131896306Y-101821063D01*
X131799615Y-101900415D01*
X131720263Y-101997106D01*
X131661298Y-102107420D01*
X131624988Y-102227118D01*
X131612728Y-102351600D01*
X131591000Y-102351600D01*
X131591000Y-85772710D01*
X132176211Y-85187500D01*
X134076950Y-85187500D01*
X134129215Y-85251185D01*
G37*
X134129215Y-85251185D02*
X134225906Y-85330537D01*
X134336220Y-85389502D01*
X134455918Y-85425812D01*
X134580400Y-85438072D01*
X135980400Y-85438072D01*
X136104882Y-85425812D01*
X136224580Y-85389502D01*
X136334894Y-85330537D01*
X136431585Y-85251185D01*
X136483850Y-85187500D01*
X137404975Y-85187500D01*
X137428063Y-85230694D01*
X137507415Y-85327385D01*
X137604106Y-85406737D01*
X137623600Y-85417157D01*
X137623601Y-85836087D01*
X137605294Y-85821063D01*
X137494980Y-85762098D01*
X137375282Y-85725788D01*
X137250800Y-85713528D01*
X136250800Y-85713528D01*
X136126318Y-85725788D01*
X136006620Y-85762098D01*
X135896306Y-85821063D01*
X135799615Y-85900415D01*
X135750800Y-85959896D01*
X135701985Y-85900415D01*
X135605294Y-85821063D01*
X135494980Y-85762098D01*
X135375282Y-85725788D01*
X135250800Y-85713528D01*
X134250800Y-85713528D01*
X134126318Y-85725788D01*
X134006620Y-85762098D01*
X133896306Y-85821063D01*
X133799615Y-85900415D01*
X133750800Y-85959896D01*
X133701985Y-85900415D01*
X133605294Y-85821063D01*
X133494980Y-85762098D01*
X133375282Y-85725788D01*
X133250800Y-85713528D01*
X132250800Y-85713528D01*
X132126318Y-85725788D01*
X132006620Y-85762098D01*
X131896306Y-85821063D01*
X131799615Y-85900415D01*
X131720263Y-85997106D01*
X131661298Y-86107420D01*
X131624988Y-86227118D01*
X131612728Y-86351600D01*
X131612728Y-88351600D01*
X131624988Y-88476082D01*
X131661298Y-88595780D01*
X131720263Y-88706094D01*
X131799615Y-88802785D01*
X131896306Y-88882137D01*
X132006620Y-88941102D01*
X132126318Y-88977412D01*
X132250800Y-88989672D01*
X133250800Y-88989672D01*
X133375282Y-88977412D01*
X133494980Y-88941102D01*
X133605294Y-88882137D01*
X133701985Y-88802785D01*
X133750800Y-88743304D01*
X133799615Y-88802785D01*
X133886600Y-88874172D01*
X133886600Y-88973691D01*
X133854996Y-89020990D01*
X133781280Y-89198957D01*
X133743700Y-89387885D01*
X133743700Y-89580515D01*
X133781280Y-89769443D01*
X133854996Y-89947410D01*
X133962015Y-90107575D01*
X134098225Y-90243785D01*
X134258390Y-90350804D01*
X134436357Y-90424520D01*
X134625285Y-90462100D01*
X134817915Y-90462100D01*
X135006843Y-90424520D01*
X135184810Y-90350804D01*
X135344975Y-90243785D01*
X135481185Y-90107575D01*
X135588204Y-89947410D01*
X135661920Y-89769443D01*
X135699500Y-89580515D01*
X135699500Y-89387885D01*
X135661920Y-89198957D01*
X135588204Y-89020990D01*
X135556600Y-88973691D01*
X135556600Y-88908165D01*
X135605294Y-88882137D01*
X135701985Y-88802785D01*
X135750800Y-88743304D01*
X135799615Y-88802785D01*
X135896306Y-88882137D01*
X136006620Y-88941102D01*
X136126318Y-88977412D01*
X136250800Y-88989672D01*
X137250800Y-88989672D01*
X137375282Y-88977412D01*
X137494980Y-88941102D01*
X137605294Y-88882137D01*
X137701985Y-88802785D01*
X137750800Y-88743304D01*
X137799615Y-88802785D01*
X137896306Y-88882137D01*
X138006620Y-88941102D01*
X138126318Y-88977412D01*
X138250800Y-88989672D01*
X139250800Y-88989672D01*
X139375282Y-88977412D01*
X139494980Y-88941102D01*
X139605294Y-88882137D01*
X139701985Y-88802785D01*
X139750800Y-88743304D01*
X139799615Y-88802785D01*
X139896306Y-88882137D01*
X139915800Y-88892557D01*
X139915800Y-89147781D01*
X139911760Y-89188800D01*
X139915800Y-89229818D01*
X139927882Y-89352488D01*
X139975628Y-89509886D01*
X140053164Y-89654945D01*
X140157509Y-89782091D01*
X140189378Y-89808246D01*
X141278001Y-90896870D01*
X141278000Y-96988040D01*
X141226415Y-97039625D01*
X141119396Y-97199790D01*
X141045680Y-97377757D01*
X141008100Y-97566685D01*
X141008100Y-97759315D01*
X141045680Y-97948243D01*
X141119396Y-98126210D01*
X141226415Y-98286375D01*
X141362625Y-98422585D01*
X141522790Y-98529604D01*
X141700757Y-98603320D01*
X141889685Y-98640900D01*
X142082315Y-98640900D01*
X142271243Y-98603320D01*
X142449210Y-98529604D01*
X142609375Y-98422585D01*
X142745585Y-98286375D01*
X142852604Y-98126210D01*
X142926320Y-97948243D01*
X142929001Y-97934766D01*
X142929000Y-101713528D01*
X142250800Y-101713528D01*
X142126318Y-101725788D01*
X142006620Y-101762098D01*
X141896306Y-101821063D01*
X141799615Y-101900415D01*
X141750800Y-101959896D01*
X141701985Y-101900415D01*
X141665481Y-101870457D01*
X141736627Y-101698698D01*
X141776401Y-101498739D01*
X141776401Y-101294861D01*
X141736627Y-101094902D01*
X141658606Y-100906544D01*
X141545338Y-100737026D01*
X141401175Y-100592863D01*
X141231657Y-100479595D01*
X141043299Y-100401574D01*
X140843340Y-100361800D01*
X140639462Y-100361800D01*
X140439503Y-100401574D01*
X140251145Y-100479595D01*
X140081627Y-100592863D01*
X139937464Y-100737026D01*
X139824196Y-100906544D01*
X139746175Y-101094902D01*
X139706401Y-101294861D01*
X139706401Y-101498739D01*
X139746175Y-101698698D01*
X139822090Y-101881971D01*
X139799615Y-101900415D01*
X139750800Y-101959896D01*
X139701985Y-101900415D01*
X139605294Y-101821063D01*
X139494980Y-101762098D01*
X139375282Y-101725788D01*
X139250800Y-101713528D01*
X138250800Y-101713528D01*
X138126318Y-101725788D01*
X138006620Y-101762098D01*
X137896306Y-101821063D01*
X137799615Y-101900415D01*
X137750800Y-101959896D01*
X137701985Y-101900415D01*
X137605294Y-101821063D01*
X137494980Y-101762098D01*
X137375282Y-101725788D01*
X137250800Y-101713528D01*
X136250800Y-101713528D01*
X136126318Y-101725788D01*
X136006620Y-101762098D01*
X135896306Y-101821063D01*
X135799615Y-101900415D01*
X135750800Y-101959896D01*
X135701985Y-101900415D01*
X135605294Y-101821063D01*
X135494980Y-101762098D01*
X135375282Y-101725788D01*
X135250800Y-101713528D01*
X134250800Y-101713528D01*
X134126318Y-101725788D01*
X134006620Y-101762098D01*
X133896306Y-101821063D01*
X133799615Y-101900415D01*
X133750800Y-101959896D01*
X133701985Y-101900415D01*
X133605294Y-101821063D01*
X133494980Y-101762098D01*
X133375282Y-101725788D01*
X133250800Y-101713528D01*
X133036550Y-101716600D01*
X132877800Y-101875350D01*
X132877800Y-103224600D01*
X132897800Y-103224600D01*
X132897800Y-103478600D01*
X132877800Y-103478600D01*
X132877800Y-104827850D01*
X133036550Y-104986600D01*
X133250800Y-104989672D01*
X133375282Y-104977412D01*
X133494980Y-104941102D01*
X133605294Y-104882137D01*
X133701985Y-104802785D01*
X133750800Y-104743304D01*
X133799615Y-104802785D01*
X133896306Y-104882137D01*
X134006620Y-104941102D01*
X134126318Y-104977412D01*
X134250800Y-104989672D01*
X135250800Y-104989672D01*
X135375282Y-104977412D01*
X135494980Y-104941102D01*
X135605294Y-104882137D01*
X135701985Y-104802785D01*
X135750800Y-104743304D01*
X135799615Y-104802785D01*
X135896306Y-104882137D01*
X136006620Y-104941102D01*
X136126318Y-104977412D01*
X136250800Y-104989672D01*
X137250800Y-104989672D01*
X137375282Y-104977412D01*
X137494980Y-104941102D01*
X137605294Y-104882137D01*
X137701985Y-104802785D01*
X137750800Y-104743304D01*
X137799615Y-104802785D01*
X137896306Y-104882137D01*
X138006620Y-104941102D01*
X138126318Y-104977412D01*
X138250800Y-104989672D01*
X139250800Y-104989672D01*
X139375282Y-104977412D01*
X139494980Y-104941102D01*
X139605294Y-104882137D01*
X139701985Y-104802785D01*
X139750800Y-104743304D01*
X139799615Y-104802785D01*
X139896306Y-104882137D01*
X140006620Y-104941102D01*
X140126318Y-104977412D01*
X140250800Y-104989672D01*
X141250800Y-104989672D01*
X141375282Y-104977412D01*
X141494980Y-104941102D01*
X141605294Y-104882137D01*
X141701985Y-104802785D01*
X141750800Y-104743304D01*
X141799615Y-104802785D01*
X141896306Y-104882137D01*
X142006620Y-104941102D01*
X142126318Y-104977412D01*
X142250800Y-104989672D01*
X142928834Y-104989672D01*
X142924960Y-105029000D01*
X142929000Y-105070018D01*
X142941082Y-105192688D01*
X142988828Y-105350086D01*
X143066364Y-105495145D01*
X143170709Y-105622291D01*
X143202579Y-105648446D01*
X145265801Y-107711669D01*
X145265800Y-109668335D01*
X145154168Y-109742925D01*
X144947325Y-109949768D01*
X144830800Y-110124160D01*
X144714275Y-109949768D01*
X144507432Y-109742925D01*
X144494860Y-109734525D01*
X144494860Y-108700393D01*
X144592305Y-108554556D01*
X144670326Y-108366198D01*
X144710100Y-108166239D01*
X144710100Y-107962361D01*
X144670326Y-107762402D01*
X144592305Y-107574044D01*
X144479037Y-107404526D01*
X144334874Y-107260363D01*
X144165356Y-107147095D01*
X143976998Y-107069074D01*
X143777039Y-107029300D01*
X143573161Y-107029300D01*
X143373202Y-107069074D01*
X143184844Y-107147095D01*
X143015326Y-107260363D01*
X142871163Y-107404526D01*
X142757895Y-107574044D01*
X142679874Y-107762402D01*
X142640100Y-107962361D01*
X142640100Y-108166239D01*
X142679874Y-108366198D01*
X142757895Y-108554556D01*
X142824860Y-108654777D01*
X142824861Y-109602145D01*
X142614168Y-109742925D01*
X142407325Y-109949768D01*
X142244810Y-110192989D01*
X142132868Y-110463242D01*
X142075800Y-110750140D01*
X142075800Y-111042660D01*
X142132868Y-111329558D01*
X142244810Y-111599811D01*
X142407325Y-111843032D01*
X142614168Y-112049875D01*
X142857389Y-112212390D01*
X143127642Y-112324332D01*
X143414540Y-112381400D01*
X143707060Y-112381400D01*
X143993958Y-112324332D01*
X144264211Y-112212390D01*
X144507432Y-112049875D01*
X144714275Y-111843032D01*
X144830800Y-111668640D01*
X144947325Y-111843032D01*
X145154168Y-112049875D01*
X145397389Y-112212390D01*
X145667642Y-112324332D01*
X145954540Y-112381400D01*
X146247060Y-112381400D01*
X146533958Y-112324332D01*
X146804211Y-112212390D01*
X147047432Y-112049875D01*
X147254275Y-111843032D01*
X147370800Y-111668640D01*
X147487325Y-111843032D01*
X147694168Y-112049875D01*
X147937389Y-112212390D01*
X148207642Y-112324332D01*
X148494540Y-112381400D01*
X148787060Y-112381400D01*
X149073958Y-112324332D01*
X149344211Y-112212390D01*
X149587432Y-112049875D01*
X149794275Y-111843032D01*
X149910800Y-111668640D01*
X150027325Y-111843032D01*
X150234168Y-112049875D01*
X150477389Y-112212390D01*
X150747642Y-112324332D01*
X151034540Y-112381400D01*
X151327060Y-112381400D01*
X151613958Y-112324332D01*
X151884211Y-112212390D01*
X151918600Y-112189412D01*
X151918600Y-113742400D01*
X144270800Y-113742400D01*
X144270800Y-113293477D01*
X144274235Y-113258600D01*
X144260527Y-113119416D01*
X144219928Y-112985580D01*
X144154000Y-112862237D01*
X144065275Y-112754125D01*
X143957163Y-112665400D01*
X143833820Y-112599472D01*
X143699984Y-112558873D01*
X143606673Y-112549683D01*
X143560800Y-112545165D01*
X143525923Y-112548600D01*
X139610894Y-112548600D01*
X139635665Y-112545490D01*
X139649512Y-112540896D01*
X139663886Y-112538423D01*
X139708666Y-112521269D01*
X139754216Y-112506156D01*
X139762356Y-112502470D01*
X139816930Y-112477305D01*
X139842839Y-112462131D01*
X139870156Y-112449667D01*
X139877853Y-112445128D01*
X139908633Y-112426687D01*
X139957134Y-112390763D01*
X140006006Y-112355039D01*
X140008886Y-112352431D01*
X140009004Y-112352343D01*
X140009105Y-112352232D01*
X140012629Y-112349040D01*
X140093067Y-112275162D01*
X140124292Y-112240280D01*
X140157185Y-112206980D01*
X140165868Y-112193835D01*
X140176376Y-112182097D01*
X140200223Y-112141830D01*
X140226031Y-112102761D01*
X140230150Y-112094831D01*
X140275718Y-112005581D01*
X140298061Y-111948708D01*
X140320676Y-111891822D01*
X140320913Y-111890541D01*
X140321391Y-111889324D01*
X140332264Y-111829181D01*
X140340108Y-111786778D01*
X140359190Y-111757498D01*
X140387284Y-111718341D01*
X140393232Y-111705265D01*
X140401078Y-111693225D01*
X140405147Y-111685269D01*
X140419963Y-111655803D01*
X140423788Y-111645885D01*
X140429167Y-111636716D01*
X140446238Y-111587683D01*
X140464913Y-111539265D01*
X140466738Y-111528798D01*
X140470235Y-111518754D01*
X140477461Y-111467308D01*
X140486371Y-111416216D01*
X140486129Y-111405595D01*
X140487608Y-111395062D01*
X140484706Y-111343232D01*
X140483522Y-111291342D01*
X140481219Y-111280961D01*
X140480625Y-111270351D01*
X140471536Y-111234964D01*
X140471318Y-111232665D01*
X140468656Y-111223749D01*
X140467713Y-111220079D01*
X140456471Y-111169401D01*
X140452198Y-111159670D01*
X140449553Y-111149372D01*
X140446437Y-111140997D01*
X140441398Y-111127735D01*
X140437860Y-111120609D01*
X140435582Y-111112980D01*
X140412446Y-111069146D01*
X140406250Y-111055035D01*
X140402964Y-111050326D01*
X140385851Y-111015859D01*
X140380992Y-111009550D01*
X140377279Y-111002516D01*
X140342929Y-110960133D01*
X140309632Y-110916904D01*
X140303647Y-110911665D01*
X140298633Y-110905479D01*
X140292311Y-110899163D01*
X140259681Y-110867013D01*
X140214712Y-110830630D01*
X140179888Y-110801608D01*
X140170602Y-110745438D01*
X140169805Y-110742459D01*
X140169571Y-110739380D01*
X140167967Y-110730589D01*
X140155389Y-110664263D01*
X140155062Y-110663146D01*
X140154954Y-110661996D01*
X140137490Y-110603205D01*
X140120252Y-110544401D01*
X140119718Y-110543378D01*
X140119387Y-110542262D01*
X140115960Y-110534008D01*
X140087035Y-110465680D01*
X140081407Y-110455334D01*
X140077485Y-110444226D01*
X140051607Y-110400551D01*
X140027349Y-110355957D01*
X140019817Y-110346899D01*
X140013813Y-110336766D01*
X139979943Y-110298946D01*
X139947488Y-110259916D01*
X139938344Y-110252497D01*
X139930484Y-110243720D01*
X139923859Y-110237723D01*
X139875057Y-110194162D01*
X139834009Y-110164171D01*
X139794068Y-110132695D01*
X139783647Y-110127376D01*
X139774202Y-110120475D01*
X139728111Y-110099028D01*
X139682818Y-110075909D01*
X139674477Y-110072701D01*
X139597595Y-110043740D01*
X139567804Y-110035735D01*
X139538940Y-110024815D01*
X139530297Y-110022545D01*
X139486892Y-110011464D01*
X139454683Y-110006523D01*
X139423069Y-109998588D01*
X139414222Y-109997331D01*
X139371629Y-109991580D01*
X139338405Y-109990368D01*
X139305409Y-109986118D01*
X139276125Y-109988095D01*
X139246806Y-109987025D01*
X139213966Y-109992291D01*
X139180786Y-109994531D01*
X139152452Y-110002155D01*
X139123475Y-110006802D01*
X139092285Y-110018345D01*
X139060171Y-110026987D01*
X139051832Y-110030198D01*
X139026301Y-110040235D01*
X139008318Y-110049422D01*
X139006335Y-110050156D01*
X139003603Y-110051831D01*
X138994758Y-110056350D01*
X138961947Y-110069741D01*
X138939258Y-110084703D01*
X138915069Y-110097061D01*
X138887254Y-110118998D01*
X138857673Y-110138505D01*
X138838325Y-110157586D01*
X138816994Y-110174409D01*
X138793971Y-110201328D01*
X138768740Y-110226211D01*
X138763068Y-110233117D01*
X138748020Y-110251702D01*
X138737923Y-110255957D01*
X138734747Y-110257678D01*
X138709052Y-110233375D01*
X138679319Y-110210306D01*
X138651467Y-110184990D01*
X138644262Y-110179704D01*
X138590345Y-110140719D01*
X138561737Y-110124023D01*
X138534777Y-110104763D01*
X138527003Y-110100357D01*
X138472815Y-110070146D01*
X138468561Y-110068293D01*
X138464709Y-110065703D01*
X138411330Y-110043359D01*
X138358305Y-110020258D01*
X138353773Y-110019267D01*
X138349491Y-110017474D01*
X138340932Y-110014904D01*
X138299463Y-110002767D01*
X138275984Y-109998325D01*
X138253209Y-109991082D01*
X138214760Y-109986741D01*
X138176734Y-109979547D01*
X138152831Y-109979750D01*
X138129091Y-109977070D01*
X138090532Y-109980279D01*
X138051832Y-109980608D01*
X138028435Y-109985448D01*
X138004615Y-109987430D01*
X137995836Y-109989099D01*
X137979025Y-109992415D01*
X137976263Y-109993247D01*
X137973402Y-109993551D01*
X137941894Y-110003347D01*
X137929515Y-110005908D01*
X137917930Y-110010799D01*
X137916521Y-110011237D01*
X137859424Y-110028430D01*
X137856880Y-110029780D01*
X137854128Y-110030636D01*
X137845919Y-110034167D01*
X137791766Y-110057907D01*
X137768882Y-110070734D01*
X137744690Y-110080885D01*
X137736857Y-110085185D01*
X137660836Y-110127607D01*
X137652096Y-110133673D01*
X137642490Y-110138247D01*
X137634868Y-110142911D01*
X137544527Y-110199060D01*
X137539643Y-110202803D01*
X137534175Y-110205632D01*
X137526711Y-110210547D01*
X137429590Y-110275465D01*
X137425513Y-110278809D01*
X137420901Y-110281376D01*
X137413590Y-110286515D01*
X137385458Y-110306582D01*
X137383042Y-110303847D01*
X137367998Y-110282318D01*
X137341795Y-110257142D01*
X137317749Y-110229914D01*
X137296873Y-110213980D01*
X137277929Y-110195779D01*
X137247342Y-110176176D01*
X137218460Y-110154132D01*
X137210828Y-110149483D01*
X137174476Y-110127682D01*
X137123960Y-110103747D01*
X137061610Y-110074203D01*
X137053178Y-110071242D01*
X136987801Y-110048791D01*
X136985664Y-110048284D01*
X136983654Y-110047382D01*
X136975163Y-110044598D01*
X136859681Y-110007607D01*
X136806296Y-109996103D01*
X136753285Y-109983300D01*
X136745352Y-109982970D01*
X136737577Y-109981295D01*
X136683002Y-109980380D01*
X136628487Y-109978115D01*
X136620631Y-109979334D01*
X136612689Y-109979201D01*
X136558974Y-109988903D01*
X136505058Y-109997271D01*
X136497598Y-109999989D01*
X136489772Y-110001403D01*
X136438956Y-110021358D01*
X136387701Y-110040035D01*
X136380906Y-110044154D01*
X136373508Y-110047059D01*
X136327541Y-110076501D01*
X136280885Y-110104781D01*
X136275021Y-110110139D01*
X136268327Y-110114427D01*
X136255229Y-110127004D01*
X136252206Y-110125018D01*
X136232013Y-110108191D01*
X136224588Y-110103220D01*
X136181179Y-110074592D01*
X136158760Y-110062769D01*
X136137875Y-110048430D01*
X136103654Y-110033710D01*
X136070694Y-110016329D01*
X136046414Y-110009089D01*
X136023134Y-109999075D01*
X136014601Y-109996421D01*
X135987370Y-109988161D01*
X135979718Y-109986636D01*
X135973574Y-109984252D01*
X135971712Y-109983924D01*
X135968916Y-109982864D01*
X135916735Y-109974080D01*
X135864874Y-109963742D01*
X135857241Y-109963732D01*
X135850567Y-109962555D01*
X135848521Y-109962598D01*
X135845743Y-109962130D01*
X135792850Y-109963649D01*
X135739968Y-109963581D01*
X135732669Y-109965016D01*
X135725688Y-109965162D01*
X135723510Y-109965641D01*
X135720888Y-109965716D01*
X135669323Y-109977473D01*
X135617410Y-109987682D01*
X135610703Y-109990436D01*
X135603694Y-109991977D01*
X135601489Y-109992940D01*
X135599108Y-109993483D01*
X135590651Y-109996370D01*
X135590482Y-109996429D01*
X135546336Y-110016869D01*
X135501867Y-110035131D01*
X135496977Y-110038371D01*
X135480248Y-110032833D01*
X135460829Y-110023501D01*
X135421081Y-110013246D01*
X135382124Y-110000349D01*
X135360754Y-109997681D01*
X135339884Y-109992296D01*
X135331045Y-109990981D01*
X135293114Y-109985605D01*
X135242623Y-109983430D01*
X135192234Y-109979368D01*
X135180312Y-109980745D01*
X135168324Y-109980229D01*
X135118386Y-109987900D01*
X135069537Y-109993544D01*
X135026300Y-109981954D01*
X134971038Y-109966189D01*
X134965914Y-109965766D01*
X134960968Y-109964440D01*
X134903775Y-109960634D01*
X134846555Y-109955909D01*
X134841458Y-109956488D01*
X134836338Y-109956147D01*
X134779468Y-109963526D01*
X134722447Y-109970000D01*
X134713722Y-109971932D01*
X134678201Y-109980053D01*
X134642957Y-109991831D01*
X134606889Y-110000777D01*
X134583861Y-110011579D01*
X134559735Y-110019641D01*
X134527453Y-110038038D01*
X134493806Y-110053821D01*
X134487926Y-110057373D01*
X134445456Y-110037356D01*
X134409105Y-110024386D01*
X134373816Y-110008730D01*
X134365313Y-110005980D01*
X134328695Y-109994417D01*
X134283638Y-109984902D01*
X134239118Y-109973078D01*
X134222636Y-109972020D01*
X134206485Y-109968609D01*
X134160439Y-109968026D01*
X134114468Y-109965075D01*
X134098096Y-109967238D01*
X134081588Y-109967029D01*
X134036304Y-109975401D01*
X134033477Y-109975775D01*
X134030935Y-109975848D01*
X134028201Y-109976472D01*
X133990639Y-109981434D01*
X133981950Y-109983525D01*
X133957684Y-109989542D01*
X133952558Y-109991360D01*
X133926546Y-109986424D01*
X133917640Y-109985686D01*
X133880174Y-109982840D01*
X133834886Y-109983833D01*
X133789573Y-109982388D01*
X133780660Y-109983039D01*
X133721161Y-109987799D01*
X133711086Y-109989607D01*
X133700853Y-109989750D01*
X133691979Y-109990808D01*
X133600512Y-110002364D01*
X133599345Y-110002629D01*
X133598149Y-110002667D01*
X133589296Y-110003882D01*
X133533875Y-110011882D01*
X133529135Y-110013047D01*
X133524264Y-110013344D01*
X133515450Y-110014816D01*
X133392379Y-110036260D01*
X133387043Y-110037738D01*
X133381529Y-110038247D01*
X133372765Y-110039994D01*
X133246049Y-110066170D01*
X133241577Y-110067561D01*
X133236925Y-110068124D01*
X133228214Y-110070120D01*
X133106951Y-110098802D01*
X133101244Y-110100757D01*
X133095275Y-110101679D01*
X133086635Y-110103959D01*
X133052093Y-110113333D01*
X133042637Y-110101163D01*
X133014015Y-110070945D01*
X132987425Y-110038918D01*
X132981029Y-110032677D01*
X132898363Y-109953128D01*
X132852002Y-109916515D01*
X132806076Y-109879442D01*
X132800433Y-109875790D01*
X132800338Y-109875715D01*
X132800238Y-109875664D01*
X132798574Y-109874587D01*
X132715236Y-109821470D01*
X132681861Y-109804529D01*
X132649935Y-109785032D01*
X132626310Y-109776333D01*
X132603856Y-109764936D01*
X132567843Y-109754805D01*
X132532723Y-109741874D01*
X132524060Y-109739681D01*
X132445409Y-109720343D01*
X132393184Y-109712805D01*
X132341196Y-109703681D01*
X132331442Y-109703893D01*
X132321784Y-109702499D01*
X132269095Y-109705248D01*
X132216320Y-109706395D01*
X132207455Y-109707522D01*
X132175586Y-109711800D01*
X132142978Y-109719476D01*
X132109816Y-109724160D01*
X132082334Y-109733751D01*
X132054003Y-109740420D01*
X132023521Y-109754276D01*
X131991886Y-109765317D01*
X131983803Y-109769128D01*
X131907116Y-109805935D01*
X131894209Y-109813764D01*
X131880293Y-109819595D01*
X131840916Y-109846089D01*
X131800320Y-109870713D01*
X131789182Y-109880897D01*
X131776661Y-109889322D01*
X131769809Y-109895058D01*
X131685353Y-109966770D01*
X131652454Y-110000759D01*
X131617960Y-110033164D01*
X131612123Y-110039930D01*
X131585779Y-110070898D01*
X131562115Y-110045847D01*
X131535860Y-110014058D01*
X131519325Y-110000549D01*
X131504663Y-109985028D01*
X131471075Y-109961131D01*
X131439131Y-109935033D01*
X131431657Y-109930134D01*
X131373773Y-109892763D01*
X131368932Y-109890270D01*
X131359329Y-109881251D01*
X131314969Y-109839318D01*
X131314105Y-109838774D01*
X131313348Y-109838063D01*
X131260814Y-109805229D01*
X131209262Y-109772779D01*
X131208308Y-109772413D01*
X131207428Y-109771863D01*
X131149926Y-109750014D01*
X131092644Y-109728038D01*
X131091624Y-109727862D01*
X131090666Y-109727498D01*
X131030166Y-109717259D01*
X130969556Y-109706802D01*
X130968529Y-109706827D01*
X130967511Y-109706655D01*
X130958593Y-109706093D01*
X130919309Y-109703893D01*
X130891017Y-109705076D01*
X130862767Y-109703229D01*
X130828773Y-109707679D01*
X130794512Y-109709112D01*
X130766995Y-109715767D01*
X130738919Y-109719442D01*
X130730228Y-109721522D01*
X130679998Y-109733914D01*
X130667476Y-109738338D01*
X130654432Y-109740786D01*
X130608699Y-109759104D01*
X130562226Y-109775523D01*
X130550806Y-109782293D01*
X130538482Y-109787229D01*
X130530580Y-109791401D01*
X130483683Y-109816576D01*
X130453274Y-109836955D01*
X130421320Y-109854799D01*
X130414016Y-109859947D01*
X130406198Y-109865540D01*
X130366704Y-109891615D01*
X130301460Y-109932814D01*
X130222199Y-109981295D01*
X130196693Y-109996867D01*
X130187709Y-110003638D01*
X130177759Y-110008887D01*
X130170334Y-110013860D01*
X130000856Y-110129093D01*
X129983539Y-110143528D01*
X129964546Y-110155694D01*
X129957566Y-110161275D01*
X129803931Y-110285879D01*
X129787234Y-110302370D01*
X129768646Y-110316704D01*
X129762179Y-110322871D01*
X129628198Y-110452430D01*
X129610768Y-110472939D01*
X129591159Y-110491386D01*
X129589600Y-110493195D01*
X129589600Y-107732682D01*
X129590961Y-107724959D01*
X129589600Y-107662830D01*
X129589600Y-107635723D01*
X129588836Y-107627969D01*
X129587898Y-107585135D01*
X129581997Y-107558531D01*
X129579327Y-107531416D01*
X129566892Y-107490425D01*
X129557615Y-107448595D01*
X129546637Y-107423652D01*
X129538728Y-107397580D01*
X129518533Y-107359798D01*
X129501275Y-107320586D01*
X129485645Y-107298268D01*
X129472800Y-107274237D01*
X129445622Y-107241120D01*
X129421046Y-107206029D01*
X129401361Y-107187188D01*
X129384075Y-107166125D01*
X129350962Y-107138950D01*
X129334167Y-107122875D01*
X129441851Y-107090209D01*
X129552165Y-107031244D01*
X129648856Y-106951892D01*
X129728208Y-106855201D01*
X129787173Y-106744887D01*
X129820292Y-106635707D01*
X129946843Y-106635707D01*
X129997671Y-106640713D01*
X130048499Y-106635707D01*
X130048509Y-106635707D01*
X130200566Y-106620731D01*
X130395664Y-106561548D01*
X130575468Y-106465441D01*
X130733067Y-106336103D01*
X130765478Y-106296610D01*
X131251903Y-105810185D01*
X131291396Y-105777774D01*
X131420734Y-105620175D01*
X131516841Y-105440371D01*
X131576024Y-105245273D01*
X131591000Y-105093216D01*
X131591000Y-105093207D01*
X131596006Y-105042379D01*
X131591000Y-104991551D01*
X131591000Y-104351600D01*
X131612728Y-104351600D01*
X131624988Y-104476082D01*
X131661298Y-104595780D01*
X131720263Y-104706094D01*
X131799615Y-104802785D01*
X131896306Y-104882137D01*
X132006620Y-104941102D01*
X132126318Y-104977412D01*
X132250800Y-104989672D01*
X132465050Y-104986600D01*
X132623800Y-104827850D01*
X132623800Y-103478600D01*
X131774550Y-103478600D01*
X131615800Y-103637350D01*
X131612728Y-104351600D01*
X131591000Y-104351600D01*
X131591000Y-102351600D01*
X131612728Y-102351600D01*
X131615800Y-103065850D01*
X131774550Y-103224600D01*
X132623800Y-103224600D01*
X132623800Y-101875350D01*
X132465050Y-101716600D01*
X132250800Y-101713528D01*
X132126318Y-101725788D01*
X132006620Y-101762098D01*
X131896306Y-101821063D01*
X131799615Y-101900415D01*
X131720263Y-101997106D01*
X131661298Y-102107420D01*
X131624988Y-102227118D01*
X131612728Y-102351600D01*
X131591000Y-102351600D01*
X131591000Y-85772710D01*
X132176211Y-85187500D01*
X134076950Y-85187500D01*
X134129215Y-85251185D01*
G36*
X149864358Y-80909032D02*
G01*
X150415266Y-81163142D01*
X150906329Y-81519420D01*
X151318837Y-81964293D01*
X151637078Y-82480813D01*
X151853715Y-83062146D01*
X151918601Y-83383066D01*
X151918601Y-86483016D01*
X151884766Y-86460408D01*
X151605414Y-86344696D01*
X151308855Y-86285707D01*
X151006487Y-86285707D01*
X150709928Y-86344696D01*
X150430576Y-86460408D01*
X150179166Y-86628395D01*
X149965359Y-86842202D01*
X149797372Y-87093612D01*
X149681660Y-87372964D01*
X149622671Y-87669523D01*
X149622671Y-87971891D01*
X149681660Y-88268450D01*
X149797372Y-88547802D01*
X149965359Y-88799212D01*
X150179166Y-89013019D01*
X150295434Y-89090707D01*
X150179166Y-89168395D01*
X149965359Y-89382202D01*
X149797372Y-89633612D01*
X149681660Y-89912964D01*
X149622671Y-90209523D01*
X149622671Y-90511891D01*
X149681660Y-90808450D01*
X149797372Y-91087802D01*
X149965359Y-91339212D01*
X150179166Y-91553019D01*
X150295434Y-91630707D01*
X150179166Y-91708395D01*
X149965359Y-91922202D01*
X149797372Y-92173612D01*
X149681660Y-92452964D01*
X149622671Y-92749523D01*
X149622671Y-93051891D01*
X149681660Y-93348450D01*
X149797372Y-93627802D01*
X149965359Y-93879212D01*
X150179166Y-94093019D01*
X150295434Y-94170707D01*
X150179166Y-94248395D01*
X149965359Y-94462202D01*
X149797372Y-94713612D01*
X149681660Y-94992964D01*
X149622671Y-95289523D01*
X149622671Y-95591891D01*
X149681660Y-95888450D01*
X149797372Y-96167802D01*
X149965359Y-96419212D01*
X150179166Y-96633019D01*
X150295434Y-96710707D01*
X150179166Y-96788395D01*
X149965359Y-97002202D01*
X149797372Y-97253612D01*
X149681660Y-97532964D01*
X149622671Y-97829523D01*
X149622671Y-98131891D01*
X149681660Y-98428450D01*
X149797372Y-98707802D01*
X149965359Y-98959212D01*
X150179166Y-99173019D01*
X150295434Y-99250707D01*
X150179166Y-99328395D01*
X149965359Y-99542202D01*
X149797372Y-99793612D01*
X149681660Y-100072964D01*
X149622671Y-100369523D01*
X149622671Y-100671891D01*
X149681660Y-100968450D01*
X149797372Y-101247802D01*
X149965359Y-101499212D01*
X150179166Y-101713019D01*
X150299564Y-101793466D01*
X150250098Y-101822745D01*
X150026022Y-102023591D01*
X149845435Y-102264293D01*
X149715277Y-102535600D01*
X149666635Y-102695967D01*
X149787293Y-102933707D01*
X151030671Y-102933707D01*
X151030671Y-102913707D01*
X151284671Y-102913707D01*
X151284671Y-102933707D01*
X151304671Y-102933707D01*
X151304671Y-103187707D01*
X151284671Y-103187707D01*
X151284671Y-103207707D01*
X151030671Y-103207707D01*
X151030671Y-103187707D01*
X149787293Y-103187707D01*
X149666635Y-103425447D01*
X149715277Y-103585814D01*
X149845435Y-103857121D01*
X150026022Y-104097823D01*
X150034008Y-104104981D01*
X150013491Y-104111205D01*
X149903177Y-104170170D01*
X149806486Y-104249522D01*
X149727134Y-104346213D01*
X149668169Y-104456527D01*
X149631859Y-104576225D01*
X149619599Y-104700707D01*
X149619599Y-106500707D01*
X149631859Y-106625189D01*
X149668169Y-106744887D01*
X149727134Y-106855201D01*
X149806486Y-106951892D01*
X149903177Y-107031244D01*
X150013491Y-107090209D01*
X150133189Y-107126519D01*
X150257671Y-107138779D01*
X151918600Y-107138779D01*
X151918600Y-109603388D01*
X151884211Y-109580410D01*
X151613958Y-109468468D01*
X151327060Y-109411400D01*
X151105269Y-109411400D01*
X146572759Y-104878891D01*
X146623800Y-104827850D01*
X146623800Y-103478600D01*
X146877800Y-103478600D01*
X146877800Y-104827850D01*
X147036550Y-104986600D01*
X147250800Y-104989672D01*
X147375282Y-104977412D01*
X147494980Y-104941102D01*
X147605294Y-104882137D01*
X147701985Y-104802785D01*
X147781337Y-104706094D01*
X147840302Y-104595780D01*
X147876612Y-104476082D01*
X147888872Y-104351600D01*
X147885800Y-103637350D01*
X147727050Y-103478600D01*
X146877800Y-103478600D01*
X146623800Y-103478600D01*
X146603800Y-103478600D01*
X146603800Y-103224600D01*
X146623800Y-103224600D01*
X146623800Y-101875350D01*
X146877800Y-101875350D01*
X146877800Y-103224600D01*
X147727050Y-103224600D01*
X147885800Y-103065850D01*
X147888872Y-102351600D01*
X147876612Y-102227118D01*
X147840302Y-102107420D01*
X147781337Y-101997106D01*
X147701985Y-101900415D01*
X147605294Y-101821063D01*
X147494980Y-101762098D01*
X147375282Y-101725788D01*
X147250800Y-101713528D01*
X147036550Y-101716600D01*
X146877800Y-101875350D01*
X146623800Y-101875350D01*
X146465050Y-101716600D01*
X146250800Y-101713528D01*
X146126318Y-101725788D01*
X146006620Y-101762098D01*
X145896306Y-101821063D01*
X145799615Y-101900415D01*
X145750800Y-101959896D01*
X145701985Y-101900415D01*
X145605294Y-101821063D01*
X145494980Y-101762098D01*
X145375282Y-101725788D01*
X145250800Y-101713528D01*
X144599000Y-101713528D01*
X144599000Y-96561018D01*
X144603040Y-96520000D01*
X144586918Y-96356311D01*
X144539172Y-96198913D01*
X144461636Y-96053854D01*
X144357291Y-95926709D01*
X144325426Y-95900558D01*
X143585800Y-95160933D01*
X143585800Y-88892557D01*
X143605294Y-88882137D01*
X143701985Y-88802785D01*
X143750800Y-88743304D01*
X143799615Y-88802785D01*
X143896306Y-88882137D01*
X144006620Y-88941102D01*
X144126318Y-88977412D01*
X144250800Y-88989672D01*
X144465050Y-88986600D01*
X144623800Y-88827850D01*
X144623800Y-87478600D01*
X144603800Y-87478600D01*
X144603800Y-87224600D01*
X144623800Y-87224600D01*
X144623800Y-87204600D01*
X144877800Y-87204600D01*
X144877800Y-87224600D01*
X144897800Y-87224600D01*
X144897800Y-87478600D01*
X144877800Y-87478600D01*
X144877800Y-88827850D01*
X145036550Y-88986600D01*
X145250800Y-88989672D01*
X145375282Y-88977412D01*
X145494980Y-88941102D01*
X145605294Y-88882137D01*
X145701985Y-88802785D01*
X145750800Y-88743304D01*
X145799615Y-88802785D01*
X145896306Y-88882137D01*
X146006620Y-88941102D01*
X146126318Y-88977412D01*
X146250800Y-88989672D01*
X147250800Y-88989672D01*
X147375282Y-88977412D01*
X147494980Y-88941102D01*
X147605294Y-88882137D01*
X147701985Y-88802785D01*
X147781337Y-88706094D01*
X147840302Y-88595780D01*
X147876612Y-88476082D01*
X147888872Y-88351600D01*
X147888872Y-86351600D01*
X147876612Y-86227118D01*
X147840302Y-86107420D01*
X147781337Y-85997106D01*
X147701985Y-85900415D01*
X147605294Y-85821063D01*
X147494980Y-85762098D01*
X147462000Y-85752094D01*
X147462000Y-85542139D01*
X147467529Y-85486000D01*
X147462000Y-85429861D01*
X147462000Y-85429854D01*
X147445461Y-85261933D01*
X147400555Y-85113898D01*
X147447000Y-85118472D01*
X147923250Y-85115400D01*
X148082000Y-84956650D01*
X148082000Y-82575400D01*
X148336000Y-82575400D01*
X148336000Y-84956650D01*
X148494750Y-85115400D01*
X148971000Y-85118472D01*
X149095482Y-85106212D01*
X149215180Y-85069902D01*
X149325494Y-85010937D01*
X149422185Y-84931585D01*
X149501537Y-84834894D01*
X149560502Y-84724580D01*
X149596812Y-84604882D01*
X149609072Y-84480400D01*
X149606000Y-82734150D01*
X149447250Y-82575400D01*
X148336000Y-82575400D01*
X148082000Y-82575400D01*
X148062000Y-82575400D01*
X148062000Y-82321400D01*
X148082000Y-82321400D01*
X148082000Y-82301400D01*
X148336000Y-82301400D01*
X148336000Y-82321400D01*
X149447250Y-82321400D01*
X149606000Y-82162650D01*
X149608314Y-80847270D01*
X149864358Y-80909032D01*
G37*
X149864358Y-80909032D02*
X150415266Y-81163142D01*
X150906329Y-81519420D01*
X151318837Y-81964293D01*
X151637078Y-82480813D01*
X151853715Y-83062146D01*
X151918601Y-83383066D01*
X151918601Y-86483016D01*
X151884766Y-86460408D01*
X151605414Y-86344696D01*
X151308855Y-86285707D01*
X151006487Y-86285707D01*
X150709928Y-86344696D01*
X150430576Y-86460408D01*
X150179166Y-86628395D01*
X149965359Y-86842202D01*
X149797372Y-87093612D01*
X149681660Y-87372964D01*
X149622671Y-87669523D01*
X149622671Y-87971891D01*
X149681660Y-88268450D01*
X149797372Y-88547802D01*
X149965359Y-88799212D01*
X150179166Y-89013019D01*
X150295434Y-89090707D01*
X150179166Y-89168395D01*
X149965359Y-89382202D01*
X149797372Y-89633612D01*
X149681660Y-89912964D01*
X149622671Y-90209523D01*
X149622671Y-90511891D01*
X149681660Y-90808450D01*
X149797372Y-91087802D01*
X149965359Y-91339212D01*
X150179166Y-91553019D01*
X150295434Y-91630707D01*
X150179166Y-91708395D01*
X149965359Y-91922202D01*
X149797372Y-92173612D01*
X149681660Y-92452964D01*
X149622671Y-92749523D01*
X149622671Y-93051891D01*
X149681660Y-93348450D01*
X149797372Y-93627802D01*
X149965359Y-93879212D01*
X150179166Y-94093019D01*
X150295434Y-94170707D01*
X150179166Y-94248395D01*
X149965359Y-94462202D01*
X149797372Y-94713612D01*
X149681660Y-94992964D01*
X149622671Y-95289523D01*
X149622671Y-95591891D01*
X149681660Y-95888450D01*
X149797372Y-96167802D01*
X149965359Y-96419212D01*
X150179166Y-96633019D01*
X150295434Y-96710707D01*
X150179166Y-96788395D01*
X149965359Y-97002202D01*
X149797372Y-97253612D01*
X149681660Y-97532964D01*
X149622671Y-97829523D01*
X149622671Y-98131891D01*
X149681660Y-98428450D01*
X149797372Y-98707802D01*
X149965359Y-98959212D01*
X150179166Y-99173019D01*
X150295434Y-99250707D01*
X150179166Y-99328395D01*
X149965359Y-99542202D01*
X149797372Y-99793612D01*
X149681660Y-100072964D01*
X149622671Y-100369523D01*
X149622671Y-100671891D01*
X149681660Y-100968450D01*
X149797372Y-101247802D01*
X149965359Y-101499212D01*
X150179166Y-101713019D01*
X150299564Y-101793466D01*
X150250098Y-101822745D01*
X150026022Y-102023591D01*
X149845435Y-102264293D01*
X149715277Y-102535600D01*
X149666635Y-102695967D01*
X149787293Y-102933707D01*
X151030671Y-102933707D01*
X151030671Y-102913707D01*
X151284671Y-102913707D01*
X151284671Y-102933707D01*
X151304671Y-102933707D01*
X151304671Y-103187707D01*
X151284671Y-103187707D01*
X151284671Y-103207707D01*
X151030671Y-103207707D01*
X151030671Y-103187707D01*
X149787293Y-103187707D01*
X149666635Y-103425447D01*
X149715277Y-103585814D01*
X149845435Y-103857121D01*
X150026022Y-104097823D01*
X150034008Y-104104981D01*
X150013491Y-104111205D01*
X149903177Y-104170170D01*
X149806486Y-104249522D01*
X149727134Y-104346213D01*
X149668169Y-104456527D01*
X149631859Y-104576225D01*
X149619599Y-104700707D01*
X149619599Y-106500707D01*
X149631859Y-106625189D01*
X149668169Y-106744887D01*
X149727134Y-106855201D01*
X149806486Y-106951892D01*
X149903177Y-107031244D01*
X150013491Y-107090209D01*
X150133189Y-107126519D01*
X150257671Y-107138779D01*
X151918600Y-107138779D01*
X151918600Y-109603388D01*
X151884211Y-109580410D01*
X151613958Y-109468468D01*
X151327060Y-109411400D01*
X151105269Y-109411400D01*
X146572759Y-104878891D01*
X146623800Y-104827850D01*
X146623800Y-103478600D01*
X146877800Y-103478600D01*
X146877800Y-104827850D01*
X147036550Y-104986600D01*
X147250800Y-104989672D01*
X147375282Y-104977412D01*
X147494980Y-104941102D01*
X147605294Y-104882137D01*
X147701985Y-104802785D01*
X147781337Y-104706094D01*
X147840302Y-104595780D01*
X147876612Y-104476082D01*
X147888872Y-104351600D01*
X147885800Y-103637350D01*
X147727050Y-103478600D01*
X146877800Y-103478600D01*
X146623800Y-103478600D01*
X146603800Y-103478600D01*
X146603800Y-103224600D01*
X146623800Y-103224600D01*
X146623800Y-101875350D01*
X146877800Y-101875350D01*
X146877800Y-103224600D01*
X147727050Y-103224600D01*
X147885800Y-103065850D01*
X147888872Y-102351600D01*
X147876612Y-102227118D01*
X147840302Y-102107420D01*
X147781337Y-101997106D01*
X147701985Y-101900415D01*
X147605294Y-101821063D01*
X147494980Y-101762098D01*
X147375282Y-101725788D01*
X147250800Y-101713528D01*
X147036550Y-101716600D01*
X146877800Y-101875350D01*
X146623800Y-101875350D01*
X146465050Y-101716600D01*
X146250800Y-101713528D01*
X146126318Y-101725788D01*
X146006620Y-101762098D01*
X145896306Y-101821063D01*
X145799615Y-101900415D01*
X145750800Y-101959896D01*
X145701985Y-101900415D01*
X145605294Y-101821063D01*
X145494980Y-101762098D01*
X145375282Y-101725788D01*
X145250800Y-101713528D01*
X144599000Y-101713528D01*
X144599000Y-96561018D01*
X144603040Y-96520000D01*
X144586918Y-96356311D01*
X144539172Y-96198913D01*
X144461636Y-96053854D01*
X144357291Y-95926709D01*
X144325426Y-95900558D01*
X143585800Y-95160933D01*
X143585800Y-88892557D01*
X143605294Y-88882137D01*
X143701985Y-88802785D01*
X143750800Y-88743304D01*
X143799615Y-88802785D01*
X143896306Y-88882137D01*
X144006620Y-88941102D01*
X144126318Y-88977412D01*
X144250800Y-88989672D01*
X144465050Y-88986600D01*
X144623800Y-88827850D01*
X144623800Y-87478600D01*
X144603800Y-87478600D01*
X144603800Y-87224600D01*
X144623800Y-87224600D01*
X144623800Y-87204600D01*
X144877800Y-87204600D01*
X144877800Y-87224600D01*
X144897800Y-87224600D01*
X144897800Y-87478600D01*
X144877800Y-87478600D01*
X144877800Y-88827850D01*
X145036550Y-88986600D01*
X145250800Y-88989672D01*
X145375282Y-88977412D01*
X145494980Y-88941102D01*
X145605294Y-88882137D01*
X145701985Y-88802785D01*
X145750800Y-88743304D01*
X145799615Y-88802785D01*
X145896306Y-88882137D01*
X146006620Y-88941102D01*
X146126318Y-88977412D01*
X146250800Y-88989672D01*
X147250800Y-88989672D01*
X147375282Y-88977412D01*
X147494980Y-88941102D01*
X147605294Y-88882137D01*
X147701985Y-88802785D01*
X147781337Y-88706094D01*
X147840302Y-88595780D01*
X147876612Y-88476082D01*
X147888872Y-88351600D01*
X147888872Y-86351600D01*
X147876612Y-86227118D01*
X147840302Y-86107420D01*
X147781337Y-85997106D01*
X147701985Y-85900415D01*
X147605294Y-85821063D01*
X147494980Y-85762098D01*
X147462000Y-85752094D01*
X147462000Y-85542139D01*
X147467529Y-85486000D01*
X147462000Y-85429861D01*
X147462000Y-85429854D01*
X147445461Y-85261933D01*
X147400555Y-85113898D01*
X147447000Y-85118472D01*
X147923250Y-85115400D01*
X148082000Y-84956650D01*
X148082000Y-82575400D01*
X148336000Y-82575400D01*
X148336000Y-84956650D01*
X148494750Y-85115400D01*
X148971000Y-85118472D01*
X149095482Y-85106212D01*
X149215180Y-85069902D01*
X149325494Y-85010937D01*
X149422185Y-84931585D01*
X149501537Y-84834894D01*
X149560502Y-84724580D01*
X149596812Y-84604882D01*
X149609072Y-84480400D01*
X149606000Y-82734150D01*
X149447250Y-82575400D01*
X148336000Y-82575400D01*
X148082000Y-82575400D01*
X148062000Y-82575400D01*
X148062000Y-82321400D01*
X148082000Y-82321400D01*
X148082000Y-82301400D01*
X148336000Y-82301400D01*
X148336000Y-82321400D01*
X149447250Y-82321400D01*
X149606000Y-82162650D01*
X149608314Y-80847270D01*
X149864358Y-80909032D01*
G36*
X141732000Y-82162650D02*
G01*
X141890750Y-82321400D01*
X143002000Y-82321400D01*
X143002000Y-82301400D01*
X143256000Y-82301400D01*
X143256000Y-82321400D01*
X143276000Y-82321400D01*
X143276000Y-82575400D01*
X143256000Y-82575400D01*
X143256000Y-84956650D01*
X143414750Y-85115400D01*
X143891000Y-85118472D01*
X144015482Y-85106212D01*
X144135180Y-85069902D01*
X144195066Y-85037892D01*
X144241068Y-85269158D01*
X144353010Y-85539411D01*
X144484198Y-85735748D01*
X144465050Y-85716600D01*
X144250800Y-85713528D01*
X144126318Y-85725788D01*
X144006620Y-85762098D01*
X143896306Y-85821063D01*
X143799615Y-85900415D01*
X143750800Y-85959896D01*
X143701985Y-85900415D01*
X143605294Y-85821063D01*
X143494980Y-85762098D01*
X143375282Y-85725788D01*
X143250800Y-85713528D01*
X142250800Y-85713528D01*
X142126318Y-85725788D01*
X142006620Y-85762098D01*
X141896306Y-85821063D01*
X141799615Y-85900415D01*
X141750800Y-85959896D01*
X141701985Y-85900415D01*
X141605294Y-85821063D01*
X141494980Y-85762098D01*
X141375282Y-85725788D01*
X141250800Y-85713528D01*
X140250800Y-85713528D01*
X140126318Y-85725788D01*
X140006620Y-85762098D01*
X139896306Y-85821063D01*
X139799615Y-85900415D01*
X139750800Y-85959896D01*
X139701985Y-85900415D01*
X139693600Y-85893534D01*
X139693600Y-85417157D01*
X139713094Y-85406737D01*
X139809785Y-85327385D01*
X139889137Y-85230694D01*
X139948102Y-85120380D01*
X139984412Y-85000682D01*
X139996672Y-84876200D01*
X139996672Y-84480400D01*
X141728928Y-84480400D01*
X141741188Y-84604882D01*
X141777498Y-84724580D01*
X141836463Y-84834894D01*
X141915815Y-84931585D01*
X142012506Y-85010937D01*
X142122820Y-85069902D01*
X142242518Y-85106212D01*
X142367000Y-85118472D01*
X142843250Y-85115400D01*
X143002000Y-84956650D01*
X143002000Y-82575400D01*
X141890750Y-82575400D01*
X141732000Y-82734150D01*
X141728928Y-84480400D01*
X139996672Y-84480400D01*
X139996672Y-83581200D01*
X139984412Y-83456718D01*
X139948102Y-83337020D01*
X139907575Y-83261200D01*
X139948102Y-83185380D01*
X139984412Y-83065682D01*
X139996672Y-82941200D01*
X139993600Y-82579450D01*
X139834850Y-82420700D01*
X138785600Y-82420700D01*
X138785600Y-82440700D01*
X138531600Y-82440700D01*
X138531600Y-82420700D01*
X137482350Y-82420700D01*
X137323600Y-82579450D01*
X137320528Y-82941200D01*
X137332788Y-83065682D01*
X137348507Y-83117500D01*
X136565455Y-83117500D01*
X136569902Y-83109180D01*
X136606212Y-82989482D01*
X136618472Y-82865000D01*
X136615400Y-82503250D01*
X136456650Y-82344500D01*
X135407400Y-82344500D01*
X135407400Y-82364500D01*
X135153400Y-82364500D01*
X135153400Y-82344500D01*
X134104150Y-82344500D01*
X133945400Y-82503250D01*
X133942328Y-82865000D01*
X133954588Y-82989482D01*
X133990898Y-83109180D01*
X133995345Y-83117500D01*
X131798327Y-83117500D01*
X131747499Y-83112494D01*
X131696671Y-83117500D01*
X131696662Y-83117500D01*
X131544605Y-83132476D01*
X131349507Y-83191659D01*
X131169703Y-83287766D01*
X131012104Y-83417104D01*
X130979697Y-83456592D01*
X129860092Y-84576198D01*
X129820605Y-84608604D01*
X129788198Y-84648092D01*
X129788197Y-84648093D01*
X129691266Y-84766203D01*
X129595160Y-84946007D01*
X129535977Y-85141105D01*
X129515994Y-85344000D01*
X129521001Y-85394838D01*
X129521001Y-86888624D01*
X129489983Y-86842202D01*
X129276176Y-86628395D01*
X129024766Y-86460408D01*
X128745414Y-86344696D01*
X128448855Y-86285707D01*
X128146487Y-86285707D01*
X127849928Y-86344696D01*
X127684600Y-86413177D01*
X127684600Y-83400820D01*
X127825368Y-82819520D01*
X128079568Y-82269699D01*
X128435717Y-81779732D01*
X128662307Y-81570000D01*
X133942328Y-81570000D01*
X133945400Y-81931750D01*
X134104150Y-82090500D01*
X135153400Y-82090500D01*
X135153400Y-81093750D01*
X135407400Y-81093750D01*
X135407400Y-82090500D01*
X136456650Y-82090500D01*
X136615400Y-81931750D01*
X136617824Y-81646200D01*
X137320528Y-81646200D01*
X137323600Y-82007950D01*
X137482350Y-82166700D01*
X138531600Y-82166700D01*
X138531600Y-81169950D01*
X138785600Y-81169950D01*
X138785600Y-82166700D01*
X139834850Y-82166700D01*
X139993600Y-82007950D01*
X139996672Y-81646200D01*
X139984412Y-81521718D01*
X139948102Y-81402020D01*
X139889137Y-81291706D01*
X139809785Y-81195015D01*
X139713094Y-81115663D01*
X139602780Y-81056698D01*
X139483082Y-81020388D01*
X139358600Y-81008128D01*
X138944350Y-81011200D01*
X138785600Y-81169950D01*
X138531600Y-81169950D01*
X138372850Y-81011200D01*
X137958600Y-81008128D01*
X137834118Y-81020388D01*
X137714420Y-81056698D01*
X137604106Y-81115663D01*
X137507415Y-81195015D01*
X137428063Y-81291706D01*
X137369098Y-81402020D01*
X137332788Y-81521718D01*
X137320528Y-81646200D01*
X136617824Y-81646200D01*
X136618472Y-81570000D01*
X136606212Y-81445518D01*
X136569902Y-81325820D01*
X136510937Y-81215506D01*
X136431585Y-81118815D01*
X136334894Y-81039463D01*
X136224580Y-80980498D01*
X136104882Y-80944188D01*
X135980400Y-80931928D01*
X135566150Y-80935000D01*
X135407400Y-81093750D01*
X135153400Y-81093750D01*
X134994650Y-80935000D01*
X134580400Y-80931928D01*
X134455918Y-80944188D01*
X134336220Y-80980498D01*
X134225906Y-81039463D01*
X134129215Y-81118815D01*
X134049863Y-81215506D01*
X133990898Y-81325820D01*
X133954588Y-81445518D01*
X133942328Y-81570000D01*
X128662307Y-81570000D01*
X128880254Y-81368269D01*
X129396250Y-81050985D01*
X129976913Y-80835184D01*
X130296589Y-80770800D01*
X141729551Y-80770800D01*
X141732000Y-82162650D01*
G37*
X141732000Y-82162650D02*
X141890750Y-82321400D01*
X143002000Y-82321400D01*
X143002000Y-82301400D01*
X143256000Y-82301400D01*
X143256000Y-82321400D01*
X143276000Y-82321400D01*
X143276000Y-82575400D01*
X143256000Y-82575400D01*
X143256000Y-84956650D01*
X143414750Y-85115400D01*
X143891000Y-85118472D01*
X144015482Y-85106212D01*
X144135180Y-85069902D01*
X144195066Y-85037892D01*
X144241068Y-85269158D01*
X144353010Y-85539411D01*
X144484198Y-85735748D01*
X144465050Y-85716600D01*
X144250800Y-85713528D01*
X144126318Y-85725788D01*
X144006620Y-85762098D01*
X143896306Y-85821063D01*
X143799615Y-85900415D01*
X143750800Y-85959896D01*
X143701985Y-85900415D01*
X143605294Y-85821063D01*
X143494980Y-85762098D01*
X143375282Y-85725788D01*
X143250800Y-85713528D01*
X142250800Y-85713528D01*
X142126318Y-85725788D01*
X142006620Y-85762098D01*
X141896306Y-85821063D01*
X141799615Y-85900415D01*
X141750800Y-85959896D01*
X141701985Y-85900415D01*
X141605294Y-85821063D01*
X141494980Y-85762098D01*
X141375282Y-85725788D01*
X141250800Y-85713528D01*
X140250800Y-85713528D01*
X140126318Y-85725788D01*
X140006620Y-85762098D01*
X139896306Y-85821063D01*
X139799615Y-85900415D01*
X139750800Y-85959896D01*
X139701985Y-85900415D01*
X139693600Y-85893534D01*
X139693600Y-85417157D01*
X139713094Y-85406737D01*
X139809785Y-85327385D01*
X139889137Y-85230694D01*
X139948102Y-85120380D01*
X139984412Y-85000682D01*
X139996672Y-84876200D01*
X139996672Y-84480400D01*
X141728928Y-84480400D01*
X141741188Y-84604882D01*
X141777498Y-84724580D01*
X141836463Y-84834894D01*
X141915815Y-84931585D01*
X142012506Y-85010937D01*
X142122820Y-85069902D01*
X142242518Y-85106212D01*
X142367000Y-85118472D01*
X142843250Y-85115400D01*
X143002000Y-84956650D01*
X143002000Y-82575400D01*
X141890750Y-82575400D01*
X141732000Y-82734150D01*
X141728928Y-84480400D01*
X139996672Y-84480400D01*
X139996672Y-83581200D01*
X139984412Y-83456718D01*
X139948102Y-83337020D01*
X139907575Y-83261200D01*
X139948102Y-83185380D01*
X139984412Y-83065682D01*
X139996672Y-82941200D01*
X139993600Y-82579450D01*
X139834850Y-82420700D01*
X138785600Y-82420700D01*
X138785600Y-82440700D01*
X138531600Y-82440700D01*
X138531600Y-82420700D01*
X137482350Y-82420700D01*
X137323600Y-82579450D01*
X137320528Y-82941200D01*
X137332788Y-83065682D01*
X137348507Y-83117500D01*
X136565455Y-83117500D01*
X136569902Y-83109180D01*
X136606212Y-82989482D01*
X136618472Y-82865000D01*
X136615400Y-82503250D01*
X136456650Y-82344500D01*
X135407400Y-82344500D01*
X135407400Y-82364500D01*
X135153400Y-82364500D01*
X135153400Y-82344500D01*
X134104150Y-82344500D01*
X133945400Y-82503250D01*
X133942328Y-82865000D01*
X133954588Y-82989482D01*
X133990898Y-83109180D01*
X133995345Y-83117500D01*
X131798327Y-83117500D01*
X131747499Y-83112494D01*
X131696671Y-83117500D01*
X131696662Y-83117500D01*
X131544605Y-83132476D01*
X131349507Y-83191659D01*
X131169703Y-83287766D01*
X131012104Y-83417104D01*
X130979697Y-83456592D01*
X129860092Y-84576198D01*
X129820605Y-84608604D01*
X129788198Y-84648092D01*
X129788197Y-84648093D01*
X129691266Y-84766203D01*
X129595160Y-84946007D01*
X129535977Y-85141105D01*
X129515994Y-85344000D01*
X129521001Y-85394838D01*
X129521001Y-86888624D01*
X129489983Y-86842202D01*
X129276176Y-86628395D01*
X129024766Y-86460408D01*
X128745414Y-86344696D01*
X128448855Y-86285707D01*
X128146487Y-86285707D01*
X127849928Y-86344696D01*
X127684600Y-86413177D01*
X127684600Y-83400820D01*
X127825368Y-82819520D01*
X128079568Y-82269699D01*
X128435717Y-81779732D01*
X128662307Y-81570000D01*
X133942328Y-81570000D01*
X133945400Y-81931750D01*
X134104150Y-82090500D01*
X135153400Y-82090500D01*
X135153400Y-81093750D01*
X135407400Y-81093750D01*
X135407400Y-82090500D01*
X136456650Y-82090500D01*
X136615400Y-81931750D01*
X136617824Y-81646200D01*
X137320528Y-81646200D01*
X137323600Y-82007950D01*
X137482350Y-82166700D01*
X138531600Y-82166700D01*
X138531600Y-81169950D01*
X138785600Y-81169950D01*
X138785600Y-82166700D01*
X139834850Y-82166700D01*
X139993600Y-82007950D01*
X139996672Y-81646200D01*
X139984412Y-81521718D01*
X139948102Y-81402020D01*
X139889137Y-81291706D01*
X139809785Y-81195015D01*
X139713094Y-81115663D01*
X139602780Y-81056698D01*
X139483082Y-81020388D01*
X139358600Y-81008128D01*
X138944350Y-81011200D01*
X138785600Y-81169950D01*
X138531600Y-81169950D01*
X138372850Y-81011200D01*
X137958600Y-81008128D01*
X137834118Y-81020388D01*
X137714420Y-81056698D01*
X137604106Y-81115663D01*
X137507415Y-81195015D01*
X137428063Y-81291706D01*
X137369098Y-81402020D01*
X137332788Y-81521718D01*
X137320528Y-81646200D01*
X136617824Y-81646200D01*
X136618472Y-81570000D01*
X136606212Y-81445518D01*
X136569902Y-81325820D01*
X136510937Y-81215506D01*
X136431585Y-81118815D01*
X136334894Y-81039463D01*
X136224580Y-80980498D01*
X136104882Y-80944188D01*
X135980400Y-80931928D01*
X135566150Y-80935000D01*
X135407400Y-81093750D01*
X135153400Y-81093750D01*
X134994650Y-80935000D01*
X134580400Y-80931928D01*
X134455918Y-80944188D01*
X134336220Y-80980498D01*
X134225906Y-81039463D01*
X134129215Y-81118815D01*
X134049863Y-81215506D01*
X133990898Y-81325820D01*
X133954588Y-81445518D01*
X133942328Y-81570000D01*
X128662307Y-81570000D01*
X128880254Y-81368269D01*
X129396250Y-81050985D01*
X129976913Y-80835184D01*
X130296589Y-80770800D01*
X141729551Y-80770800D01*
X141732000Y-82162650D01*
M02*
