G04 #@! TF.GenerationSoftware,KiCad,Pcbnew,5.1.5-52549c5~84~ubuntu18.04.1*
G04 #@! TF.CreationDate,2020-01-02T13:17:24-07:00*
G04 #@! TF.ProjectId,wemos-01,77656d6f-732d-4303-912e-6b696361645f,rev?*
G04 #@! TF.SameCoordinates,Original*
G04 #@! TF.FileFunction,Copper,L2,Bot*
G04 #@! TF.FilePolarity,Positive*
%FSLAX46Y46*%
G04 Gerber Fmt 4.6, Leading zero omitted, Abs format (unit mm)*
G04 Created by KiCad (PCBNEW 5.1.5-52549c5~84~ubuntu18.04.1) date 2020-01-02 13:17:24*
%MOMM*%
%LPD*%
G04 APERTURE LIST*
%ADD10C,0.100000*%
%ADD11C,0.010000*%
%ADD12R,1.524000X4.064000*%
%ADD13O,1.700000X1.700000*%
%ADD14C,1.700000*%
%ADD15O,1.800000X1.800000*%
%ADD16R,1.800000X1.800000*%
%ADD17C,0.685800*%
%ADD18C,0.800000*%
%ADD19C,0.400000*%
%ADD20C,0.254000*%
G04 APERTURE END LIST*
D10*
G36*
X127883485Y-84483293D02*
G01*
X127904975Y-84525111D01*
X127926465Y-84566929D01*
X127947955Y-84608747D01*
X127969445Y-84650565D01*
X127985054Y-84640764D01*
X128026364Y-84619202D01*
X128085098Y-84597639D01*
X128152980Y-84587838D01*
X128200062Y-84593356D01*
X128233422Y-84609328D01*
X128253279Y-84634884D01*
X128259849Y-84669151D01*
X128244458Y-84705198D01*
X128202930Y-84737977D01*
X128142235Y-84769450D01*
X128069344Y-84801576D01*
X127992459Y-84841434D01*
X127922980Y-84897409D01*
X127872668Y-84968195D01*
X127853283Y-85052485D01*
X127882215Y-85190717D01*
X127959281Y-85281904D01*
X128069888Y-85332144D01*
X128199445Y-85347535D01*
X128344320Y-85328296D01*
X128452387Y-85285969D01*
X128519942Y-85243643D01*
X128543283Y-85224404D01*
X128517147Y-85180262D01*
X128491011Y-85136121D01*
X128464874Y-85091980D01*
X128438738Y-85047838D01*
X128417901Y-85063810D01*
X128364394Y-85098949D01*
X128291721Y-85134088D01*
X128213384Y-85150060D01*
X128173091Y-85147991D01*
X128129748Y-85136992D01*
X128095117Y-85109876D01*
X128080960Y-85059454D01*
X128097912Y-85015930D01*
X128143397Y-84979593D01*
X128209355Y-84945434D01*
X128287728Y-84908444D01*
X128361999Y-84862633D01*
X128416667Y-84806803D01*
X128450427Y-84743132D01*
X128461970Y-84673798D01*
X128436088Y-84558326D01*
X128368170Y-84469644D01*
X128272808Y-84412761D01*
X128164596Y-84392687D01*
X128052065Y-84407824D01*
X127963056Y-84438861D01*
X127904540Y-84469462D01*
X127883485Y-84483293D01*
G37*
G36*
X128622273Y-85012990D02*
G01*
X128684746Y-85162911D01*
X128785771Y-85266222D01*
X128910753Y-85325973D01*
X129045101Y-85345212D01*
X129218690Y-85307750D01*
X129360480Y-85205818D01*
X129456096Y-85055098D01*
X129491162Y-84871273D01*
X129457402Y-84685487D01*
X129363965Y-84534985D01*
X129222611Y-84434142D01*
X129045101Y-84397333D01*
X128932751Y-84408260D01*
X128838043Y-84439442D01*
X128758582Y-84488484D01*
X128691970Y-84552990D01*
X128726238Y-84590742D01*
X128760505Y-84628495D01*
X128794773Y-84666247D01*
X128829041Y-84704000D01*
X128872093Y-84649585D01*
X128920808Y-84613684D01*
X128974751Y-84593900D01*
X129033485Y-84587838D01*
X129123692Y-84610272D01*
X129197563Y-84671475D01*
X129247477Y-84762298D01*
X129265808Y-84873596D01*
X129247477Y-84983187D01*
X129197563Y-85072523D01*
X129123692Y-85132672D01*
X129033485Y-85154707D01*
X128960122Y-85142800D01*
X128896124Y-85108242D01*
X128850857Y-85052775D01*
X128833687Y-84978141D01*
X128885960Y-84978141D01*
X128938233Y-84978141D01*
X128990505Y-84978141D01*
X129042778Y-84978141D01*
X129042778Y-84937485D01*
X129042778Y-84896828D01*
X129042778Y-84856172D01*
X129042778Y-84815515D01*
X128937071Y-84815515D01*
X128831364Y-84815515D01*
X128725657Y-84815515D01*
X128619950Y-84815515D01*
X128619950Y-84864884D01*
X128619950Y-84914252D01*
X128619950Y-84963621D01*
X128619950Y-85012990D01*
X128620531Y-85012990D01*
X128621112Y-85012990D01*
X128621692Y-85012990D01*
X128622273Y-85012990D01*
G37*
G36*
X130202071Y-85328949D02*
G01*
X130254344Y-85328949D01*
X130306616Y-85328949D01*
X130358889Y-85328949D01*
X130411162Y-85328949D01*
X130411162Y-85099530D01*
X130411162Y-84870111D01*
X130411162Y-84640692D01*
X130411162Y-84411273D01*
X130358889Y-84411273D01*
X130306616Y-84411273D01*
X130254344Y-84411273D01*
X130202071Y-84411273D01*
X130111465Y-84552990D01*
X130020859Y-84694707D01*
X129930253Y-84836424D01*
X129839647Y-84978141D01*
X129839066Y-84978141D01*
X129838485Y-84978141D01*
X129837904Y-84978141D01*
X129837323Y-84978141D01*
X129837323Y-84836424D01*
X129837323Y-84694707D01*
X129837323Y-84552990D01*
X129837323Y-84411273D01*
X129785051Y-84411273D01*
X129732778Y-84411273D01*
X129680505Y-84411273D01*
X129628233Y-84411273D01*
X129628233Y-84640692D01*
X129628233Y-84870111D01*
X129628233Y-85099530D01*
X129628233Y-85328949D01*
X129680505Y-85328949D01*
X129732778Y-85328949D01*
X129785051Y-85328949D01*
X129837323Y-85328949D01*
X129927930Y-85187232D01*
X130018536Y-85045515D01*
X130109142Y-84903798D01*
X130199748Y-84762081D01*
X130200328Y-84762081D01*
X130200909Y-84762081D01*
X130201490Y-84762081D01*
X130202071Y-84762081D01*
X130202071Y-84903798D01*
X130202071Y-85045515D01*
X130202071Y-85187232D01*
X130202071Y-85328949D01*
G37*
G36*
X130587727Y-85328949D02*
G01*
X130640000Y-85328949D01*
X130692273Y-85328949D01*
X130744546Y-85328949D01*
X130796818Y-85328949D01*
X130796818Y-85099530D01*
X130796818Y-84870111D01*
X130796818Y-84640692D01*
X130796818Y-84411273D01*
X130744546Y-84411273D01*
X130692273Y-84411273D01*
X130640000Y-84411273D01*
X130587727Y-84411273D01*
X130587727Y-84640692D01*
X130587727Y-84870111D01*
X130587727Y-85099530D01*
X130587727Y-85328949D01*
G37*
G36*
X131479848Y-85328949D02*
G01*
X131532121Y-85328949D01*
X131584394Y-85328949D01*
X131636667Y-85328949D01*
X131688939Y-85328949D01*
X131688939Y-85099530D01*
X131688939Y-84870111D01*
X131688939Y-84640692D01*
X131688939Y-84411273D01*
X131636667Y-84411273D01*
X131584394Y-84411273D01*
X131532121Y-84411273D01*
X131479848Y-84411273D01*
X131479848Y-84503040D01*
X131479848Y-84594808D01*
X131479848Y-84686576D01*
X131479848Y-84778343D01*
X131406086Y-84778343D01*
X131332323Y-84778343D01*
X131258561Y-84778343D01*
X131184798Y-84778343D01*
X131184798Y-84686576D01*
X131184798Y-84594808D01*
X131184798Y-84503040D01*
X131184798Y-84411273D01*
X131132525Y-84411273D01*
X131080253Y-84411273D01*
X131027980Y-84411273D01*
X130975707Y-84411273D01*
X130975707Y-84640692D01*
X130975707Y-84870111D01*
X130975707Y-85099530D01*
X130975707Y-85328949D01*
X131027980Y-85328949D01*
X131080253Y-85328949D01*
X131132525Y-85328949D01*
X131184798Y-85328949D01*
X131184798Y-85236601D01*
X131184798Y-85144252D01*
X131184798Y-85051904D01*
X131184798Y-84959555D01*
X131258561Y-84959555D01*
X131332323Y-84959555D01*
X131406086Y-84959555D01*
X131479848Y-84959555D01*
X131479848Y-85051904D01*
X131479848Y-85144252D01*
X131479848Y-85236601D01*
X131479848Y-85328949D01*
G37*
G36*
X132453283Y-84411273D02*
G01*
X132292399Y-84411273D01*
X132131515Y-84411273D01*
X131970631Y-84411273D01*
X131809747Y-84411273D01*
X131809747Y-84457156D01*
X131809747Y-84503040D01*
X131809747Y-84548924D01*
X131809747Y-84594808D01*
X131864343Y-84594808D01*
X131918939Y-84594808D01*
X131973535Y-84594808D01*
X132028131Y-84594808D01*
X132028131Y-84777762D01*
X132028131Y-84960717D01*
X132028131Y-85143671D01*
X132028131Y-85326626D01*
X132080404Y-85326626D01*
X132132677Y-85326626D01*
X132184949Y-85326626D01*
X132237222Y-85326626D01*
X132237222Y-85143671D01*
X132237222Y-84960717D01*
X132237222Y-84777762D01*
X132237222Y-84594808D01*
X132291818Y-84594808D01*
X132346414Y-84594808D01*
X132401010Y-84594808D01*
X132455606Y-84594808D01*
X132455025Y-84548924D01*
X132454444Y-84503040D01*
X132453863Y-84457156D01*
X132453283Y-84411273D01*
G37*
G36*
X132855202Y-84597131D02*
G01*
X132933611Y-84597131D01*
X133012020Y-84597131D01*
X133090429Y-84597131D01*
X133168838Y-84597131D01*
X133168838Y-84642434D01*
X133168838Y-84687737D01*
X133168838Y-84733040D01*
X133168838Y-84778343D01*
X133093333Y-84778343D01*
X133017828Y-84778343D01*
X132942323Y-84778343D01*
X132866818Y-84778343D01*
X132866818Y-84824227D01*
X132866818Y-84870111D01*
X132866818Y-84915995D01*
X132866818Y-84961879D01*
X132942323Y-84961879D01*
X133017828Y-84961879D01*
X133093333Y-84961879D01*
X133168838Y-84961879D01*
X133168838Y-85007762D01*
X133168838Y-85053646D01*
X133168838Y-85099530D01*
X133168838Y-85145414D01*
X133089848Y-85145414D01*
X133010858Y-85145414D01*
X132931868Y-85145414D01*
X132852879Y-85145414D01*
X132852879Y-85191298D01*
X132852879Y-85237182D01*
X132852879Y-85283065D01*
X132852879Y-85328949D01*
X132984722Y-85328949D01*
X133116565Y-85328949D01*
X133248409Y-85328949D01*
X133380252Y-85328949D01*
X133380252Y-85099530D01*
X133380252Y-84870111D01*
X133380252Y-84640692D01*
X133380252Y-84411273D01*
X133248990Y-84411273D01*
X133117727Y-84411273D01*
X132986464Y-84411273D01*
X132855202Y-84411273D01*
X132855202Y-84457737D01*
X132855202Y-84504202D01*
X132855202Y-84550667D01*
X132855202Y-84597131D01*
G37*
G36*
X134060959Y-85328949D02*
G01*
X134113232Y-85328949D01*
X134165505Y-85328949D01*
X134217777Y-85328949D01*
X134270050Y-85328949D01*
X134270050Y-85099530D01*
X134270050Y-84870111D01*
X134270050Y-84640692D01*
X134270050Y-84411273D01*
X134217777Y-84411273D01*
X134165505Y-84411273D01*
X134113232Y-84411273D01*
X134060959Y-84411273D01*
X134060959Y-84503040D01*
X134060959Y-84594808D01*
X134060959Y-84686576D01*
X134060959Y-84778343D01*
X133987197Y-84778343D01*
X133913434Y-84778343D01*
X133839671Y-84778343D01*
X133765909Y-84778343D01*
X133765909Y-84686576D01*
X133765909Y-84594808D01*
X133765909Y-84503040D01*
X133765909Y-84411273D01*
X133713636Y-84411273D01*
X133661363Y-84411273D01*
X133609091Y-84411273D01*
X133556818Y-84411273D01*
X133556818Y-84640692D01*
X133556818Y-84870111D01*
X133556818Y-85099530D01*
X133556818Y-85328949D01*
X133609091Y-85328949D01*
X133661363Y-85328949D01*
X133713636Y-85328949D01*
X133765909Y-85328949D01*
X133765909Y-85236601D01*
X133765909Y-85144252D01*
X133765909Y-85051904D01*
X133765909Y-84959555D01*
X133839671Y-84959555D01*
X133913434Y-84959555D01*
X133987197Y-84959555D01*
X134060959Y-84959555D01*
X134060959Y-85051904D01*
X134060959Y-85144252D01*
X134060959Y-85236601D01*
X134060959Y-85328949D01*
G37*
G36*
X135034393Y-84411273D02*
G01*
X134873510Y-84411273D01*
X134712626Y-84411273D01*
X134551742Y-84411273D01*
X134390858Y-84411273D01*
X134390858Y-84457156D01*
X134390858Y-84503040D01*
X134390858Y-84548924D01*
X134390858Y-84594808D01*
X134445454Y-84594808D01*
X134500050Y-84594808D01*
X134554646Y-84594808D01*
X134609242Y-84594808D01*
X134609242Y-84777762D01*
X134609242Y-84960717D01*
X134609242Y-85143671D01*
X134609242Y-85326626D01*
X134661515Y-85326626D01*
X134713787Y-85326626D01*
X134766060Y-85326626D01*
X134818333Y-85326626D01*
X134818333Y-85143671D01*
X134818333Y-84960717D01*
X134818333Y-84777762D01*
X134818333Y-84594808D01*
X134872929Y-84594808D01*
X134927525Y-84594808D01*
X134982121Y-84594808D01*
X135036717Y-84594808D01*
X135036136Y-84548924D01*
X135035555Y-84503040D01*
X135034974Y-84457156D01*
X135034393Y-84411273D01*
G37*
G36*
X128078637Y-86197838D02*
G01*
X128129748Y-86139176D01*
X128180859Y-86080515D01*
X128231970Y-86021853D01*
X128283081Y-85963192D01*
X128283081Y-86021853D01*
X128283081Y-86080515D01*
X128283081Y-86139176D01*
X128283081Y-86197838D01*
X128314445Y-86197838D01*
X128345809Y-86197838D01*
X128377172Y-86197838D01*
X128408536Y-86197838D01*
X128408536Y-86060187D01*
X128408536Y-85922535D01*
X128408536Y-85784884D01*
X128408536Y-85647232D01*
X128377172Y-85647232D01*
X128345809Y-85647232D01*
X128314445Y-85647232D01*
X128283081Y-85647232D01*
X128283081Y-85704151D01*
X128283081Y-85761070D01*
X128283081Y-85817990D01*
X128283081Y-85874909D01*
X128235455Y-85817990D01*
X128187829Y-85761070D01*
X128140202Y-85704151D01*
X128092576Y-85647232D01*
X128054243Y-85647232D01*
X128015910Y-85647232D01*
X127977576Y-85647232D01*
X127939243Y-85647232D01*
X127995581Y-85712283D01*
X128051920Y-85777333D01*
X128108258Y-85842384D01*
X128164596Y-85907434D01*
X128100708Y-85980035D01*
X128036819Y-86052636D01*
X127972930Y-86125237D01*
X127909041Y-86197838D01*
X127951440Y-86197838D01*
X127993839Y-86197838D01*
X128036238Y-86197838D01*
X128078637Y-86197838D01*
G37*
G36*
X129256515Y-85644909D02*
G01*
X129221812Y-85774828D01*
X129246061Y-85752649D01*
X129279022Y-85743973D01*
X129314596Y-85742485D01*
X129318081Y-85742485D01*
X129321566Y-85742485D01*
X129325051Y-85742485D01*
X129328536Y-85742485D01*
X129328536Y-85778495D01*
X129328536Y-85814505D01*
X129328536Y-85850515D01*
X129328536Y-85886525D01*
X129325051Y-85886525D01*
X129321566Y-85886525D01*
X129318081Y-85886525D01*
X129314596Y-85886525D01*
X129314596Y-85887687D01*
X129314596Y-85888848D01*
X129314596Y-85890010D01*
X129362803Y-85891752D01*
X129326249Y-85890264D01*
X129293397Y-85881588D01*
X129269693Y-85859408D01*
X129212374Y-85816828D01*
X129221812Y-85774828D01*
X129256515Y-85644909D01*
X129185076Y-85655327D01*
X129127576Y-85686437D01*
X129089243Y-85738020D01*
X129075303Y-85809858D01*
X129083616Y-85866233D01*
X129106957Y-85912371D01*
X129142931Y-85946747D01*
X129189142Y-85967838D01*
X129141515Y-86025338D01*
X129093889Y-86082838D01*
X129046263Y-86140338D01*
X128998637Y-86197838D01*
X129038132Y-86197838D01*
X129077627Y-86197838D01*
X129117122Y-86197838D01*
X129156616Y-86197838D01*
X129198435Y-86143242D01*
X129240253Y-86088646D01*
X129282071Y-86034050D01*
X129323889Y-85979454D01*
X129323889Y-86034050D01*
X129323889Y-86088646D01*
X129323889Y-86143242D01*
X129323889Y-86197838D01*
X129355253Y-86197838D01*
X129386616Y-86197838D01*
X129417980Y-86197838D01*
X129449344Y-86197838D01*
X129449344Y-86060187D01*
X129449344Y-85922535D01*
X129449344Y-85784884D01*
X129449344Y-85647232D01*
X129401137Y-85646651D01*
X129352930Y-85646070D01*
X129304723Y-85645490D01*
X129256515Y-85644909D01*
G37*
G36*
X130355404Y-85635616D02*
G01*
X130248826Y-85806954D01*
X130293076Y-85768766D01*
X130355404Y-85754101D01*
X130418712Y-85768113D01*
X130462854Y-85805212D01*
X130488700Y-85857993D01*
X130497121Y-85919050D01*
X130489353Y-85980108D01*
X130464596Y-86032889D01*
X130420672Y-86069988D01*
X130355404Y-86084000D01*
X130291116Y-86069988D01*
X130247083Y-86032889D01*
X130221782Y-85980108D01*
X130213687Y-85919050D01*
X130222436Y-85859953D01*
X130248826Y-85806954D01*
X130355404Y-85635616D01*
X130247156Y-85657687D01*
X130158510Y-85718091D01*
X130098614Y-85808116D01*
X130076616Y-85919050D01*
X130097634Y-86032308D01*
X130155897Y-86122914D01*
X130244216Y-86183027D01*
X130355404Y-86204808D01*
X130468553Y-86182701D01*
X130556654Y-86122043D01*
X130613828Y-86031328D01*
X130634192Y-85919050D01*
X130612194Y-85807136D01*
X130552298Y-85717219D01*
X130463652Y-85657360D01*
X130355404Y-85635616D01*
G37*
G36*
X131570455Y-85888848D02*
G01*
X131592525Y-85966096D01*
X131614596Y-86043343D01*
X131636667Y-86120591D01*
X131658737Y-86197838D01*
X131693586Y-86197838D01*
X131728434Y-86197838D01*
X131763283Y-86197838D01*
X131798131Y-86197838D01*
X131837045Y-86060187D01*
X131875960Y-85922535D01*
X131914874Y-85784884D01*
X131953788Y-85647232D01*
X131919520Y-85647232D01*
X131885252Y-85647232D01*
X131850985Y-85647232D01*
X131816717Y-85647232D01*
X131793485Y-85742485D01*
X131770252Y-85837737D01*
X131747020Y-85932990D01*
X131723788Y-86028242D01*
X131723207Y-86028242D01*
X131722626Y-86028242D01*
X131722045Y-86028242D01*
X131721465Y-86028242D01*
X131696490Y-85932990D01*
X131671515Y-85837737D01*
X131646540Y-85742485D01*
X131621566Y-85647232D01*
X131598333Y-85647232D01*
X131575101Y-85647232D01*
X131551869Y-85647232D01*
X131528636Y-85647232D01*
X131503662Y-85742485D01*
X131478687Y-85837737D01*
X131453712Y-85932990D01*
X131428737Y-86028242D01*
X131426414Y-86028242D01*
X131424091Y-86028242D01*
X131421768Y-86028242D01*
X131419444Y-86028242D01*
X131396212Y-85932990D01*
X131372980Y-85837737D01*
X131349747Y-85742485D01*
X131326515Y-85647232D01*
X131291667Y-85647232D01*
X131256818Y-85647232D01*
X131221970Y-85647232D01*
X131187121Y-85647232D01*
X131226035Y-85784884D01*
X131264950Y-85922535D01*
X131303864Y-86060187D01*
X131342778Y-86197838D01*
X131377626Y-86197838D01*
X131412475Y-86197838D01*
X131447323Y-86197838D01*
X131482172Y-86197838D01*
X131504242Y-86120591D01*
X131526313Y-86043343D01*
X131548384Y-85966096D01*
X131570455Y-85888848D01*
G37*
G36*
X132910959Y-85644909D02*
G01*
X132813964Y-85644909D01*
X132716970Y-85644909D01*
X132619975Y-85644909D01*
X132522980Y-85644909D01*
X132522980Y-85672788D01*
X132522980Y-85700666D01*
X132522980Y-85728545D01*
X132522980Y-85756424D01*
X132555505Y-85756424D01*
X132588030Y-85756424D01*
X132620555Y-85756424D01*
X132653081Y-85756424D01*
X132653081Y-85866197D01*
X132653081Y-85975969D01*
X132653081Y-86085742D01*
X132653081Y-86195515D01*
X132684444Y-86195515D01*
X132715808Y-86195515D01*
X132747172Y-86195515D01*
X132778535Y-86195515D01*
X132778535Y-86085742D01*
X132778535Y-85975969D01*
X132778535Y-85866197D01*
X132778535Y-85756424D01*
X132811060Y-85756424D01*
X132843586Y-85756424D01*
X132876111Y-85756424D01*
X132908636Y-85756424D01*
X132909217Y-85728545D01*
X132909798Y-85700666D01*
X132910379Y-85672788D01*
X132910959Y-85644909D01*
G37*
G36*
X133515000Y-85754101D02*
G01*
X133562626Y-85754101D01*
X133610252Y-85754101D01*
X133657878Y-85754101D01*
X133705505Y-85754101D01*
X133705505Y-85780818D01*
X133705505Y-85807535D01*
X133705505Y-85834252D01*
X133705505Y-85860969D01*
X133660202Y-85860969D01*
X133614899Y-85860969D01*
X133569596Y-85860969D01*
X133524293Y-85860969D01*
X133524293Y-85888848D01*
X133524293Y-85916727D01*
X133524293Y-85944606D01*
X133524293Y-85972484D01*
X133569596Y-85972484D01*
X133614899Y-85972484D01*
X133660202Y-85972484D01*
X133705505Y-85972484D01*
X133705505Y-86000363D01*
X133705505Y-86028242D01*
X133705505Y-86056121D01*
X133705505Y-86084000D01*
X133657878Y-86084000D01*
X133610252Y-86084000D01*
X133562626Y-86084000D01*
X133515000Y-86084000D01*
X133515000Y-86111878D01*
X133515000Y-86139757D01*
X133515000Y-86167636D01*
X133515000Y-86195515D01*
X133593990Y-86195515D01*
X133672979Y-86195515D01*
X133751969Y-86195515D01*
X133830959Y-86195515D01*
X133830959Y-86057863D01*
X133830959Y-85920212D01*
X133830959Y-85782560D01*
X133830959Y-85644909D01*
X133751969Y-85644909D01*
X133672979Y-85644909D01*
X133593990Y-85644909D01*
X133515000Y-85644909D01*
X133515000Y-85672207D01*
X133515000Y-85699505D01*
X133515000Y-85726803D01*
X133515000Y-85754101D01*
G37*
G36*
X134827626Y-86197838D02*
G01*
X134858989Y-86197838D01*
X134890353Y-86197838D01*
X134921717Y-86197838D01*
X134953080Y-86197838D01*
X134953080Y-86060187D01*
X134953080Y-85922535D01*
X134953080Y-85784884D01*
X134953080Y-85647232D01*
X134921717Y-85647232D01*
X134890353Y-85647232D01*
X134858989Y-85647232D01*
X134827626Y-85647232D01*
X134772449Y-85733192D01*
X134717272Y-85819151D01*
X134662096Y-85905111D01*
X134606919Y-85991070D01*
X134606919Y-85905111D01*
X134606919Y-85819151D01*
X134606919Y-85733192D01*
X134606919Y-85647232D01*
X134575555Y-85647232D01*
X134544191Y-85647232D01*
X134512828Y-85647232D01*
X134481464Y-85647232D01*
X134481464Y-85784884D01*
X134481464Y-85922535D01*
X134481464Y-86060187D01*
X134481464Y-86197838D01*
X134512828Y-86197838D01*
X134544191Y-86197838D01*
X134575555Y-86197838D01*
X134606919Y-86197838D01*
X134662096Y-86111878D01*
X134717272Y-86025919D01*
X134772449Y-85939959D01*
X134827626Y-85854000D01*
X134827626Y-85939959D01*
X134827626Y-86025919D01*
X134827626Y-86111878D01*
X134827626Y-86197838D01*
G37*
G36*
X128529344Y-83228748D02*
G01*
X128202603Y-81841851D01*
X128167210Y-82022990D01*
X128163616Y-82207614D01*
X128192475Y-82390061D01*
X128193165Y-82440409D01*
X128173599Y-82486184D01*
X128137916Y-82521069D01*
X128090253Y-82538748D01*
X128042772Y-82542741D01*
X127997905Y-82528874D01*
X127960878Y-82500196D01*
X127936920Y-82459758D01*
X127898187Y-82172947D01*
X127923271Y-81883306D01*
X128009775Y-81605426D01*
X128155303Y-81353899D01*
X128155304Y-81353900D01*
X128302902Y-81186808D01*
X128477071Y-81046942D01*
X128672150Y-80938005D01*
X128882475Y-80863697D01*
X128930827Y-80863516D01*
X128974824Y-80881412D01*
X129009236Y-80913683D01*
X129028839Y-80956627D01*
X129035990Y-81007520D01*
X129021579Y-81057106D01*
X128989308Y-81097110D01*
X128942879Y-81119253D01*
X128733716Y-81199731D01*
X128546768Y-81322245D01*
X128389442Y-81480915D01*
X128269142Y-81669859D01*
X128202603Y-81841851D01*
X128529344Y-83228748D01*
X128529344Y-82415616D01*
X128481173Y-82419537D01*
X128434963Y-82405162D01*
X128397029Y-82375105D01*
X128373687Y-82331980D01*
X128345954Y-82150514D01*
X128359167Y-81967523D01*
X128411585Y-81791937D01*
X128501465Y-81632687D01*
X128598859Y-81521898D01*
X128714331Y-81429404D01*
X128844178Y-81359562D01*
X128984697Y-81316728D01*
X129053741Y-81326565D01*
X129104925Y-81372776D01*
X129129101Y-81438588D01*
X129117122Y-81507233D01*
X129101295Y-81532861D01*
X129079369Y-81553697D01*
X129053087Y-81569306D01*
X129024192Y-81579253D01*
X128915109Y-81620599D01*
X128817134Y-81683508D01*
X128734405Y-81765148D01*
X128671061Y-81862687D01*
X128633163Y-81958448D01*
X128613561Y-82059000D01*
X128612254Y-82161295D01*
X128629243Y-82262283D01*
X128631276Y-82313031D01*
X128612399Y-82359859D01*
X128576970Y-82396232D01*
X128529344Y-82415616D01*
X128529344Y-83228748D01*
X128531740Y-83375910D01*
X128562450Y-83515667D01*
X128568214Y-83532464D01*
X128574398Y-83549091D01*
X128580999Y-83565544D01*
X128588015Y-83581815D01*
X128595442Y-83597899D01*
X128603278Y-83613790D01*
X128611521Y-83629482D01*
X128620168Y-83644969D01*
X128629216Y-83660245D01*
X128638664Y-83675304D01*
X128648508Y-83690140D01*
X128658746Y-83704747D01*
X128669375Y-83719119D01*
X128680394Y-83733251D01*
X128691798Y-83747135D01*
X128703586Y-83760768D01*
X128716633Y-83774938D01*
X128730066Y-83788697D01*
X128743879Y-83802043D01*
X128758064Y-83814973D01*
X128772613Y-83827485D01*
X128787519Y-83839575D01*
X128802773Y-83851241D01*
X128818368Y-83862482D01*
X128834297Y-83873293D01*
X128850552Y-83883673D01*
X128867125Y-83893619D01*
X128884009Y-83903129D01*
X128901195Y-83912200D01*
X128918677Y-83920829D01*
X128936446Y-83929014D01*
X128954495Y-83936752D01*
X128972817Y-83944042D01*
X128991403Y-83950879D01*
X129010246Y-83957262D01*
X129029338Y-83963188D01*
X129048672Y-83968655D01*
X129068239Y-83973660D01*
X129088034Y-83978200D01*
X129108046Y-83982273D01*
X129128270Y-83985877D01*
X129148697Y-83989008D01*
X129169320Y-83991665D01*
X129190131Y-83993844D01*
X129211122Y-83995544D01*
X129232286Y-83996761D01*
X129253615Y-83997492D01*
X129275101Y-83997738D01*
X129430685Y-83997738D01*
X129586269Y-83997738D01*
X129741853Y-83997738D01*
X129897437Y-83997738D01*
X130053021Y-83997738D01*
X130208605Y-83997738D01*
X130364189Y-83997738D01*
X130519773Y-83997738D01*
X130675357Y-83997738D01*
X130830941Y-83997738D01*
X130986525Y-83997738D01*
X131142109Y-83997738D01*
X131297693Y-83997738D01*
X131453277Y-83997738D01*
X131608860Y-83997738D01*
X131764444Y-83997738D01*
X131920028Y-83997738D01*
X132075612Y-83997738D01*
X132231196Y-83997738D01*
X132386780Y-83997738D01*
X132542364Y-83997738D01*
X132697948Y-83997738D01*
X132853532Y-83997738D01*
X133009116Y-83997738D01*
X133164700Y-83997738D01*
X133320284Y-83997738D01*
X133475868Y-83997738D01*
X133631452Y-83997738D01*
X133787036Y-83997738D01*
X133942620Y-83997738D01*
X134098204Y-83997738D01*
X134253787Y-83997738D01*
X134254006Y-83997738D01*
X134254223Y-83997738D01*
X134254441Y-83997738D01*
X134254660Y-83997738D01*
X134254878Y-83997738D01*
X134255097Y-83997738D01*
X134255314Y-83997738D01*
X134255532Y-83997738D01*
X134255751Y-83997738D01*
X134255969Y-83997738D01*
X134256187Y-83997738D01*
X134256405Y-83997738D01*
X134256623Y-83997738D01*
X134256841Y-83997738D01*
X134257060Y-83997738D01*
X134257278Y-83997738D01*
X134257495Y-83997738D01*
X134257714Y-83997738D01*
X134257932Y-83997738D01*
X134258151Y-83997738D01*
X134258369Y-83997738D01*
X134258586Y-83997738D01*
X134258805Y-83997738D01*
X134259023Y-83997738D01*
X134259241Y-83997738D01*
X134259460Y-83997738D01*
X134259677Y-83997738D01*
X134259895Y-83997738D01*
X134260114Y-83997738D01*
X134260332Y-83997738D01*
X134260550Y-83997738D01*
X134260768Y-83997738D01*
X134260837Y-83997738D01*
X134260907Y-83997738D01*
X134260977Y-83997738D01*
X134261046Y-83997738D01*
X134261116Y-83997738D01*
X134261186Y-83997738D01*
X134261256Y-83997738D01*
X134261325Y-83997738D01*
X134261395Y-83997738D01*
X134261465Y-83997738D01*
X134261534Y-83997738D01*
X134261604Y-83997738D01*
X134261674Y-83997738D01*
X134261743Y-83997738D01*
X134261813Y-83997738D01*
X134261883Y-83997738D01*
X134261952Y-83997738D01*
X134262022Y-83997738D01*
X134262092Y-83997738D01*
X134262162Y-83997738D01*
X134262231Y-83997738D01*
X134262301Y-83997738D01*
X134262371Y-83997738D01*
X134262440Y-83997738D01*
X134262510Y-83997738D01*
X134262580Y-83997738D01*
X134262649Y-83997738D01*
X134262719Y-83997738D01*
X134262789Y-83997738D01*
X134262859Y-83997738D01*
X134262928Y-83997738D01*
X134262998Y-83997738D01*
X134263143Y-83997738D01*
X134263288Y-83997738D01*
X134263434Y-83997738D01*
X134263579Y-83997738D01*
X134263724Y-83997738D01*
X134263869Y-83997738D01*
X134264014Y-83997738D01*
X134264160Y-83997738D01*
X134264305Y-83997738D01*
X134264450Y-83997738D01*
X134264595Y-83997738D01*
X134264740Y-83997738D01*
X134264886Y-83997738D01*
X134265031Y-83997738D01*
X134265176Y-83997738D01*
X134265321Y-83997738D01*
X134265466Y-83997738D01*
X134265612Y-83997738D01*
X134265757Y-83997738D01*
X134265902Y-83997738D01*
X134266047Y-83997738D01*
X134266192Y-83997738D01*
X134266338Y-83997738D01*
X134266483Y-83997738D01*
X134266628Y-83997738D01*
X134266773Y-83997738D01*
X134266918Y-83997738D01*
X134267064Y-83997738D01*
X134267209Y-83997738D01*
X134267354Y-83997738D01*
X134267499Y-83997738D01*
X134267727Y-83997738D01*
X134286641Y-83997296D01*
X134305479Y-83996407D01*
X134324237Y-83995075D01*
X134342905Y-83993300D01*
X134361479Y-83991087D01*
X134379950Y-83988437D01*
X134398312Y-83985354D01*
X134416559Y-83981838D01*
X134434683Y-83977895D01*
X134452678Y-83973525D01*
X134470537Y-83968731D01*
X134488252Y-83963516D01*
X134505818Y-83957882D01*
X134523228Y-83951833D01*
X134540474Y-83945370D01*
X134557550Y-83938496D01*
X134574449Y-83931213D01*
X134591164Y-83923525D01*
X134607689Y-83915434D01*
X134624016Y-83906941D01*
X134640139Y-83898051D01*
X134656052Y-83888765D01*
X134671746Y-83879086D01*
X134687215Y-83869017D01*
X134702454Y-83858559D01*
X134717454Y-83847716D01*
X134732209Y-83836490D01*
X134746712Y-83824884D01*
X134760956Y-83812900D01*
X134774936Y-83800541D01*
X134788642Y-83787810D01*
X134802070Y-83774707D01*
X134816023Y-83760619D01*
X134829566Y-83746239D01*
X134842696Y-83731574D01*
X134855414Y-83716631D01*
X134867716Y-83701417D01*
X134879601Y-83685940D01*
X134891068Y-83670207D01*
X134902114Y-83654226D01*
X134912739Y-83638002D01*
X134922940Y-83621544D01*
X134932715Y-83604859D01*
X134942063Y-83587955D01*
X134950983Y-83570837D01*
X134959472Y-83553514D01*
X134967528Y-83535993D01*
X134975151Y-83518280D01*
X135020309Y-83370573D01*
X135036717Y-83214808D01*
X135024524Y-83071417D01*
X134989272Y-82937146D01*
X134932947Y-82814146D01*
X134857537Y-82704568D01*
X134765030Y-82610564D01*
X134657413Y-82534283D01*
X134536673Y-82477876D01*
X134404798Y-82443495D01*
X134375725Y-82323781D01*
X134326425Y-82211499D01*
X134258883Y-82108419D01*
X134175088Y-82016311D01*
X134077027Y-81936944D01*
X133966687Y-81872089D01*
X133846056Y-81823514D01*
X133717121Y-81792990D01*
X133707329Y-81744456D01*
X133693671Y-81696576D01*
X133676201Y-81649567D01*
X133654974Y-81603647D01*
X133630045Y-81559033D01*
X133601468Y-81515945D01*
X133569296Y-81474599D01*
X133533586Y-81435212D01*
X133477265Y-81382540D01*
X133416698Y-81336185D01*
X133285000Y-81263293D01*
X133142847Y-81218281D01*
X132994596Y-81202889D01*
X132808411Y-81227937D01*
X132722002Y-81258021D01*
X132641174Y-81298723D01*
X132566772Y-81349226D01*
X132499638Y-81408713D01*
X132440618Y-81476368D01*
X132390555Y-81551374D01*
X132322737Y-81368229D01*
X132227421Y-81200493D01*
X132107384Y-81050944D01*
X131965404Y-80922359D01*
X131804257Y-80817514D01*
X131626720Y-80739187D01*
X131435571Y-80690154D01*
X131233586Y-80673192D01*
X131013246Y-80693493D01*
X130806002Y-80751964D01*
X130615584Y-80844957D01*
X130445720Y-80968824D01*
X130300141Y-81119915D01*
X130182578Y-81294584D01*
X130096759Y-81489182D01*
X130046414Y-81700061D01*
X129928864Y-81627129D01*
X129804290Y-81577474D01*
X129543435Y-81548760D01*
X129282579Y-81615444D01*
X129040455Y-81779051D01*
X129048586Y-81772081D01*
X129056718Y-81765111D01*
X129064849Y-81758142D01*
X129072980Y-81751172D01*
X128920409Y-81908861D01*
X128821200Y-82082233D01*
X128769472Y-82260831D01*
X128759344Y-82434202D01*
X128771505Y-82530398D01*
X128797387Y-82620061D01*
X128836773Y-82702753D01*
X128889445Y-82778040D01*
X128834377Y-82800656D01*
X128783447Y-82830023D01*
X128735567Y-82865924D01*
X128689647Y-82908141D01*
X128631965Y-82974644D01*
X128585392Y-83048116D01*
X128551451Y-83127687D01*
X128531667Y-83212485D01*
X128531632Y-83216006D01*
X128531378Y-83219745D01*
X128530688Y-83223919D01*
X128529345Y-83228748D01*
X128529345Y-83225154D01*
X128529345Y-83224392D01*
X128529345Y-83225807D01*
X128529345Y-83228748D01*
X128529344Y-83228748D01*
G37*
D11*
G36*
X137376746Y-110361171D02*
G01*
X137293408Y-110414287D01*
X137210742Y-110493836D01*
X137134104Y-110592471D01*
X137068850Y-110702845D01*
X137020337Y-110817612D01*
X136993924Y-110929426D01*
X136990666Y-110979153D01*
X136993485Y-111044002D01*
X137007034Y-111090116D01*
X137038956Y-111134341D01*
X137080625Y-111177470D01*
X137139614Y-111228562D01*
X137208312Y-111270882D01*
X137298911Y-111311190D01*
X137368835Y-111337212D01*
X137458348Y-111369771D01*
X137513321Y-111392529D01*
X137539390Y-111409039D01*
X137542187Y-111422855D01*
X137527585Y-111437350D01*
X137430100Y-111496605D01*
X137309956Y-111542804D01*
X137157799Y-111579493D01*
X137147231Y-111581510D01*
X137058766Y-111599442D01*
X136983303Y-111617031D01*
X136932732Y-111631415D01*
X136921875Y-111635761D01*
X136897516Y-111642417D01*
X136886960Y-111623196D01*
X136884833Y-111576516D01*
X136873830Y-111511390D01*
X136843051Y-111420793D01*
X136800166Y-111323587D01*
X136755255Y-111228018D01*
X136728562Y-111162175D01*
X136718162Y-111118552D01*
X136722128Y-111089642D01*
X136735361Y-111071024D01*
X136749332Y-111039740D01*
X136763161Y-110981953D01*
X136769560Y-110941884D01*
X136776156Y-110876095D01*
X136771417Y-110837853D01*
X136751789Y-110813095D01*
X136733824Y-110800430D01*
X136683512Y-110777591D01*
X136600452Y-110750578D01*
X136493741Y-110721618D01*
X136372478Y-110692937D01*
X136245762Y-110666761D01*
X136122691Y-110645317D01*
X136067269Y-110637317D01*
X135975801Y-110625761D01*
X135916302Y-110621001D01*
X135878836Y-110623847D01*
X135853463Y-110635106D01*
X135830248Y-110655587D01*
X135829144Y-110656688D01*
X135790472Y-110688920D01*
X135763000Y-110701666D01*
X135747998Y-110720024D01*
X135741833Y-110763630D01*
X135761846Y-110830512D01*
X135821549Y-110883725D01*
X135920444Y-110922897D01*
X135970661Y-110934510D01*
X136058820Y-110953903D01*
X136147946Y-110976704D01*
X136186333Y-110987899D01*
X136258092Y-111008911D01*
X136323148Y-111025728D01*
X136339791Y-111029391D01*
X136384665Y-111049682D01*
X136398000Y-111075406D01*
X136392811Y-111092699D01*
X136371562Y-111101150D01*
X136325727Y-111101870D01*
X136246780Y-111095967D01*
X136242805Y-111095609D01*
X136087610Y-111081545D01*
X136009972Y-111154768D01*
X135964939Y-111203350D01*
X135936923Y-111245340D01*
X135932333Y-111260733D01*
X135949469Y-111287975D01*
X135993936Y-111325352D01*
X136043458Y-111357206D01*
X136108130Y-111391069D01*
X136165410Y-111410404D01*
X136232158Y-111419122D01*
X136318936Y-111421134D01*
X136401916Y-111421944D01*
X136453616Y-111426589D01*
X136485089Y-111438766D01*
X136507387Y-111462172D01*
X136525232Y-111490125D01*
X136552488Y-111538623D01*
X136566681Y-111571285D01*
X136567254Y-111574791D01*
X136547802Y-111585667D01*
X136494807Y-111590140D01*
X136416520Y-111588530D01*
X136321194Y-111581160D01*
X136217081Y-111568351D01*
X136157404Y-111558816D01*
X135974762Y-111526966D01*
X135901662Y-111604467D01*
X135857204Y-111658382D01*
X135844599Y-111700809D01*
X135864765Y-111743849D01*
X135916316Y-111797452D01*
X135976437Y-111833056D01*
X136074488Y-111864902D01*
X136206156Y-111891958D01*
X136367125Y-111913191D01*
X136421731Y-111918380D01*
X136578669Y-111921301D01*
X136701685Y-111899630D01*
X136791420Y-111853220D01*
X136818262Y-111827554D01*
X136850519Y-111792343D01*
X136861853Y-111788024D01*
X136858481Y-111813001D01*
X136857480Y-111817465D01*
X136865823Y-111874369D01*
X136896582Y-111918007D01*
X136963122Y-111958746D01*
X137060235Y-111970677D01*
X137187482Y-111953807D01*
X137339916Y-111909715D01*
X137522028Y-111839347D01*
X137670594Y-111766692D01*
X137777380Y-111696500D01*
X136884833Y-111696500D01*
X136877089Y-111713922D01*
X136870722Y-111710611D01*
X136868189Y-111685491D01*
X136870722Y-111682388D01*
X136883306Y-111685294D01*
X136884833Y-111696500D01*
X137777380Y-111696500D01*
X137781490Y-111693799D01*
X137791982Y-111685207D01*
X137834040Y-111651202D01*
X137853124Y-111643388D01*
X137858297Y-111660277D01*
X137858500Y-111674294D01*
X137867938Y-111721218D01*
X137891469Y-111782949D01*
X137900351Y-111801388D01*
X137952410Y-111869085D01*
X138017413Y-111901704D01*
X138087645Y-111896500D01*
X138120742Y-111879897D01*
X138163259Y-111830817D01*
X138195047Y-111753883D01*
X138212144Y-111663029D01*
X138210586Y-111572192D01*
X138209773Y-111566797D01*
X138195769Y-111479220D01*
X138270837Y-111545131D01*
X138319305Y-111585379D01*
X138367079Y-111618070D01*
X138421956Y-111646556D01*
X138491735Y-111674186D01*
X138584215Y-111704312D01*
X138707195Y-111740286D01*
X138759157Y-111754954D01*
X139005142Y-111819202D01*
X139216604Y-111864202D01*
X139392885Y-111889871D01*
X139533329Y-111896131D01*
X139637277Y-111882900D01*
X139678833Y-111867194D01*
X139786041Y-111788152D01*
X139866896Y-111679152D01*
X139918526Y-111545462D01*
X139938056Y-111392350D01*
X139938062Y-111391945D01*
X139920814Y-111286740D01*
X139868664Y-111168820D01*
X139785426Y-111042604D01*
X139674910Y-110912507D01*
X139540929Y-110782948D01*
X139387293Y-110658344D01*
X139217814Y-110543111D01*
X139192000Y-110527351D01*
X139108717Y-110476410D01*
X139034118Y-110429304D01*
X138979152Y-110393014D01*
X138961604Y-110380460D01*
X138914707Y-110355284D01*
X138864477Y-110342892D01*
X138825194Y-110345092D01*
X138811000Y-110361414D01*
X138794029Y-110382205D01*
X138750868Y-110413069D01*
X138721362Y-110430441D01*
X138663478Y-110467812D01*
X138633163Y-110506938D01*
X138618095Y-110563741D01*
X138618067Y-110563911D01*
X138611344Y-110622889D01*
X138611663Y-110664671D01*
X138613052Y-110670453D01*
X138634880Y-110689504D01*
X138685628Y-110720857D01*
X138755877Y-110758867D01*
X138785138Y-110773592D01*
X138884512Y-110825708D01*
X138990999Y-110886380D01*
X139082335Y-110942901D01*
X139086166Y-110945431D01*
X139173662Y-111011181D01*
X139275006Y-111099299D01*
X139379068Y-111198964D01*
X139474720Y-111299353D01*
X139550832Y-111389647D01*
X139570285Y-111416129D01*
X139599131Y-111461459D01*
X139603331Y-111484992D01*
X139584838Y-111497863D01*
X139584637Y-111497941D01*
X139535100Y-111504648D01*
X139452926Y-111502023D01*
X139346562Y-111490950D01*
X139224454Y-111472311D01*
X139126191Y-111453083D01*
X138197166Y-111453083D01*
X138186583Y-111463666D01*
X138176000Y-111453083D01*
X138186583Y-111442500D01*
X138197166Y-111453083D01*
X139126191Y-111453083D01*
X139095048Y-111446989D01*
X139093150Y-111446575D01*
X138983292Y-111422009D01*
X138909576Y-111402388D01*
X138866742Y-111383818D01*
X138849529Y-111362409D01*
X138852680Y-111334267D01*
X138870934Y-111295499D01*
X138876054Y-111285904D01*
X138900575Y-111229850D01*
X138910076Y-111186283D01*
X138908776Y-111176866D01*
X138912495Y-111147298D01*
X138921830Y-111140973D01*
X138937872Y-111120083D01*
X138921510Y-111083969D01*
X138876839Y-111038857D01*
X138833837Y-111007176D01*
X138748752Y-110950869D01*
X138587939Y-111032643D01*
X138489864Y-111088733D01*
X138385852Y-111157947D01*
X138298039Y-111225532D01*
X138296271Y-111227049D01*
X138230565Y-111281793D01*
X138189617Y-111310357D01*
X138167634Y-111315863D01*
X138158822Y-111301433D01*
X138158769Y-111301132D01*
X138147785Y-111244020D01*
X138131059Y-111164674D01*
X138110794Y-111072690D01*
X138102135Y-111034598D01*
X137686879Y-111034598D01*
X137683455Y-111055909D01*
X137647496Y-111054967D01*
X137576668Y-111033810D01*
X137502269Y-111007017D01*
X137418405Y-110971836D01*
X137373547Y-110939790D01*
X137365278Y-110905285D01*
X137391178Y-110862726D01*
X137425010Y-110828265D01*
X137457043Y-110802426D01*
X137484841Y-110796409D01*
X137516091Y-110813996D01*
X137558479Y-110858972D01*
X137605468Y-110917081D01*
X137660105Y-110989001D01*
X137686879Y-111034598D01*
X138102135Y-111034598D01*
X138089191Y-110977660D01*
X138068451Y-110889179D01*
X138050775Y-110816840D01*
X138038365Y-110770238D01*
X138034233Y-110758397D01*
X138007327Y-110747848D01*
X137962043Y-110748851D01*
X137927624Y-110750484D01*
X137896452Y-110740587D01*
X137862156Y-110713772D01*
X137818366Y-110664649D01*
X137758710Y-110587831D01*
X137736227Y-110557857D01*
X137648409Y-110454629D01*
X137563953Y-110382918D01*
X137487266Y-110346111D01*
X137455397Y-110341833D01*
X137376746Y-110361171D01*
G37*
X137376746Y-110361171D02*
X137293408Y-110414287D01*
X137210742Y-110493836D01*
X137134104Y-110592471D01*
X137068850Y-110702845D01*
X137020337Y-110817612D01*
X136993924Y-110929426D01*
X136990666Y-110979153D01*
X136993485Y-111044002D01*
X137007034Y-111090116D01*
X137038956Y-111134341D01*
X137080625Y-111177470D01*
X137139614Y-111228562D01*
X137208312Y-111270882D01*
X137298911Y-111311190D01*
X137368835Y-111337212D01*
X137458348Y-111369771D01*
X137513321Y-111392529D01*
X137539390Y-111409039D01*
X137542187Y-111422855D01*
X137527585Y-111437350D01*
X137430100Y-111496605D01*
X137309956Y-111542804D01*
X137157799Y-111579493D01*
X137147231Y-111581510D01*
X137058766Y-111599442D01*
X136983303Y-111617031D01*
X136932732Y-111631415D01*
X136921875Y-111635761D01*
X136897516Y-111642417D01*
X136886960Y-111623196D01*
X136884833Y-111576516D01*
X136873830Y-111511390D01*
X136843051Y-111420793D01*
X136800166Y-111323587D01*
X136755255Y-111228018D01*
X136728562Y-111162175D01*
X136718162Y-111118552D01*
X136722128Y-111089642D01*
X136735361Y-111071024D01*
X136749332Y-111039740D01*
X136763161Y-110981953D01*
X136769560Y-110941884D01*
X136776156Y-110876095D01*
X136771417Y-110837853D01*
X136751789Y-110813095D01*
X136733824Y-110800430D01*
X136683512Y-110777591D01*
X136600452Y-110750578D01*
X136493741Y-110721618D01*
X136372478Y-110692937D01*
X136245762Y-110666761D01*
X136122691Y-110645317D01*
X136067269Y-110637317D01*
X135975801Y-110625761D01*
X135916302Y-110621001D01*
X135878836Y-110623847D01*
X135853463Y-110635106D01*
X135830248Y-110655587D01*
X135829144Y-110656688D01*
X135790472Y-110688920D01*
X135763000Y-110701666D01*
X135747998Y-110720024D01*
X135741833Y-110763630D01*
X135761846Y-110830512D01*
X135821549Y-110883725D01*
X135920444Y-110922897D01*
X135970661Y-110934510D01*
X136058820Y-110953903D01*
X136147946Y-110976704D01*
X136186333Y-110987899D01*
X136258092Y-111008911D01*
X136323148Y-111025728D01*
X136339791Y-111029391D01*
X136384665Y-111049682D01*
X136398000Y-111075406D01*
X136392811Y-111092699D01*
X136371562Y-111101150D01*
X136325727Y-111101870D01*
X136246780Y-111095967D01*
X136242805Y-111095609D01*
X136087610Y-111081545D01*
X136009972Y-111154768D01*
X135964939Y-111203350D01*
X135936923Y-111245340D01*
X135932333Y-111260733D01*
X135949469Y-111287975D01*
X135993936Y-111325352D01*
X136043458Y-111357206D01*
X136108130Y-111391069D01*
X136165410Y-111410404D01*
X136232158Y-111419122D01*
X136318936Y-111421134D01*
X136401916Y-111421944D01*
X136453616Y-111426589D01*
X136485089Y-111438766D01*
X136507387Y-111462172D01*
X136525232Y-111490125D01*
X136552488Y-111538623D01*
X136566681Y-111571285D01*
X136567254Y-111574791D01*
X136547802Y-111585667D01*
X136494807Y-111590140D01*
X136416520Y-111588530D01*
X136321194Y-111581160D01*
X136217081Y-111568351D01*
X136157404Y-111558816D01*
X135974762Y-111526966D01*
X135901662Y-111604467D01*
X135857204Y-111658382D01*
X135844599Y-111700809D01*
X135864765Y-111743849D01*
X135916316Y-111797452D01*
X135976437Y-111833056D01*
X136074488Y-111864902D01*
X136206156Y-111891958D01*
X136367125Y-111913191D01*
X136421731Y-111918380D01*
X136578669Y-111921301D01*
X136701685Y-111899630D01*
X136791420Y-111853220D01*
X136818262Y-111827554D01*
X136850519Y-111792343D01*
X136861853Y-111788024D01*
X136858481Y-111813001D01*
X136857480Y-111817465D01*
X136865823Y-111874369D01*
X136896582Y-111918007D01*
X136963122Y-111958746D01*
X137060235Y-111970677D01*
X137187482Y-111953807D01*
X137339916Y-111909715D01*
X137522028Y-111839347D01*
X137670594Y-111766692D01*
X137777380Y-111696500D01*
X136884833Y-111696500D01*
X136877089Y-111713922D01*
X136870722Y-111710611D01*
X136868189Y-111685491D01*
X136870722Y-111682388D01*
X136883306Y-111685294D01*
X136884833Y-111696500D01*
X137777380Y-111696500D01*
X137781490Y-111693799D01*
X137791982Y-111685207D01*
X137834040Y-111651202D01*
X137853124Y-111643388D01*
X137858297Y-111660277D01*
X137858500Y-111674294D01*
X137867938Y-111721218D01*
X137891469Y-111782949D01*
X137900351Y-111801388D01*
X137952410Y-111869085D01*
X138017413Y-111901704D01*
X138087645Y-111896500D01*
X138120742Y-111879897D01*
X138163259Y-111830817D01*
X138195047Y-111753883D01*
X138212144Y-111663029D01*
X138210586Y-111572192D01*
X138209773Y-111566797D01*
X138195769Y-111479220D01*
X138270837Y-111545131D01*
X138319305Y-111585379D01*
X138367079Y-111618070D01*
X138421956Y-111646556D01*
X138491735Y-111674186D01*
X138584215Y-111704312D01*
X138707195Y-111740286D01*
X138759157Y-111754954D01*
X139005142Y-111819202D01*
X139216604Y-111864202D01*
X139392885Y-111889871D01*
X139533329Y-111896131D01*
X139637277Y-111882900D01*
X139678833Y-111867194D01*
X139786041Y-111788152D01*
X139866896Y-111679152D01*
X139918526Y-111545462D01*
X139938056Y-111392350D01*
X139938062Y-111391945D01*
X139920814Y-111286740D01*
X139868664Y-111168820D01*
X139785426Y-111042604D01*
X139674910Y-110912507D01*
X139540929Y-110782948D01*
X139387293Y-110658344D01*
X139217814Y-110543111D01*
X139192000Y-110527351D01*
X139108717Y-110476410D01*
X139034118Y-110429304D01*
X138979152Y-110393014D01*
X138961604Y-110380460D01*
X138914707Y-110355284D01*
X138864477Y-110342892D01*
X138825194Y-110345092D01*
X138811000Y-110361414D01*
X138794029Y-110382205D01*
X138750868Y-110413069D01*
X138721362Y-110430441D01*
X138663478Y-110467812D01*
X138633163Y-110506938D01*
X138618095Y-110563741D01*
X138618067Y-110563911D01*
X138611344Y-110622889D01*
X138611663Y-110664671D01*
X138613052Y-110670453D01*
X138634880Y-110689504D01*
X138685628Y-110720857D01*
X138755877Y-110758867D01*
X138785138Y-110773592D01*
X138884512Y-110825708D01*
X138990999Y-110886380D01*
X139082335Y-110942901D01*
X139086166Y-110945431D01*
X139173662Y-111011181D01*
X139275006Y-111099299D01*
X139379068Y-111198964D01*
X139474720Y-111299353D01*
X139550832Y-111389647D01*
X139570285Y-111416129D01*
X139599131Y-111461459D01*
X139603331Y-111484992D01*
X139584838Y-111497863D01*
X139584637Y-111497941D01*
X139535100Y-111504648D01*
X139452926Y-111502023D01*
X139346562Y-111490950D01*
X139224454Y-111472311D01*
X139126191Y-111453083D01*
X138197166Y-111453083D01*
X138186583Y-111463666D01*
X138176000Y-111453083D01*
X138186583Y-111442500D01*
X138197166Y-111453083D01*
X139126191Y-111453083D01*
X139095048Y-111446989D01*
X139093150Y-111446575D01*
X138983292Y-111422009D01*
X138909576Y-111402388D01*
X138866742Y-111383818D01*
X138849529Y-111362409D01*
X138852680Y-111334267D01*
X138870934Y-111295499D01*
X138876054Y-111285904D01*
X138900575Y-111229850D01*
X138910076Y-111186283D01*
X138908776Y-111176866D01*
X138912495Y-111147298D01*
X138921830Y-111140973D01*
X138937872Y-111120083D01*
X138921510Y-111083969D01*
X138876839Y-111038857D01*
X138833837Y-111007176D01*
X138748752Y-110950869D01*
X138587939Y-111032643D01*
X138489864Y-111088733D01*
X138385852Y-111157947D01*
X138298039Y-111225532D01*
X138296271Y-111227049D01*
X138230565Y-111281793D01*
X138189617Y-111310357D01*
X138167634Y-111315863D01*
X138158822Y-111301433D01*
X138158769Y-111301132D01*
X138147785Y-111244020D01*
X138131059Y-111164674D01*
X138110794Y-111072690D01*
X138102135Y-111034598D01*
X137686879Y-111034598D01*
X137683455Y-111055909D01*
X137647496Y-111054967D01*
X137576668Y-111033810D01*
X137502269Y-111007017D01*
X137418405Y-110971836D01*
X137373547Y-110939790D01*
X137365278Y-110905285D01*
X137391178Y-110862726D01*
X137425010Y-110828265D01*
X137457043Y-110802426D01*
X137484841Y-110796409D01*
X137516091Y-110813996D01*
X137558479Y-110858972D01*
X137605468Y-110917081D01*
X137660105Y-110989001D01*
X137686879Y-111034598D01*
X138102135Y-111034598D01*
X138089191Y-110977660D01*
X138068451Y-110889179D01*
X138050775Y-110816840D01*
X138038365Y-110770238D01*
X138034233Y-110758397D01*
X138007327Y-110747848D01*
X137962043Y-110748851D01*
X137927624Y-110750484D01*
X137896452Y-110740587D01*
X137862156Y-110713772D01*
X137818366Y-110664649D01*
X137758710Y-110587831D01*
X137736227Y-110557857D01*
X137648409Y-110454629D01*
X137563953Y-110382918D01*
X137487266Y-110346111D01*
X137455397Y-110341833D01*
X137376746Y-110361171D01*
G36*
X134855527Y-110609410D02*
G01*
X134804711Y-110643936D01*
X134777014Y-110667450D01*
X134733881Y-110712687D01*
X134713622Y-110754156D01*
X134718106Y-110798764D01*
X134749201Y-110853420D01*
X134808776Y-110925030D01*
X134862196Y-110982406D01*
X134952548Y-111089928D01*
X135055570Y-111235353D01*
X135169939Y-111416630D01*
X135294333Y-111631708D01*
X135370259Y-111770583D01*
X135431668Y-111875768D01*
X135482273Y-111942613D01*
X135521328Y-111970174D01*
X135528920Y-111970838D01*
X135554649Y-111962599D01*
X135601072Y-111943720D01*
X135604763Y-111942119D01*
X135663978Y-111897739D01*
X135706710Y-111832077D01*
X135720666Y-111771735D01*
X135711433Y-111741891D01*
X135686499Y-111683902D01*
X135650017Y-111607014D01*
X135618953Y-111545190D01*
X135517240Y-111347250D01*
X135564448Y-111277684D01*
X135595931Y-111219295D01*
X135623120Y-111140577D01*
X135647701Y-111035056D01*
X135671361Y-110896259D01*
X135680827Y-110830817D01*
X135691109Y-110748923D01*
X135693154Y-110697394D01*
X135685883Y-110664870D01*
X135668214Y-110639993D01*
X135662081Y-110633673D01*
X135636286Y-110610730D01*
X135612020Y-110604713D01*
X135575402Y-110616276D01*
X135524717Y-110640165D01*
X135465770Y-110672806D01*
X135425171Y-110709296D01*
X135396603Y-110759843D01*
X135373752Y-110834651D01*
X135356848Y-110911429D01*
X135329083Y-111047108D01*
X135254541Y-110940510D01*
X135161847Y-110817151D01*
X135073690Y-110717379D01*
X134994112Y-110645034D01*
X134927155Y-110603954D01*
X134891635Y-110595833D01*
X134855527Y-110609410D01*
G37*
X134855527Y-110609410D02*
X134804711Y-110643936D01*
X134777014Y-110667450D01*
X134733881Y-110712687D01*
X134713622Y-110754156D01*
X134718106Y-110798764D01*
X134749201Y-110853420D01*
X134808776Y-110925030D01*
X134862196Y-110982406D01*
X134952548Y-111089928D01*
X135055570Y-111235353D01*
X135169939Y-111416630D01*
X135294333Y-111631708D01*
X135370259Y-111770583D01*
X135431668Y-111875768D01*
X135482273Y-111942613D01*
X135521328Y-111970174D01*
X135528920Y-111970838D01*
X135554649Y-111962599D01*
X135601072Y-111943720D01*
X135604763Y-111942119D01*
X135663978Y-111897739D01*
X135706710Y-111832077D01*
X135720666Y-111771735D01*
X135711433Y-111741891D01*
X135686499Y-111683902D01*
X135650017Y-111607014D01*
X135618953Y-111545190D01*
X135517240Y-111347250D01*
X135564448Y-111277684D01*
X135595931Y-111219295D01*
X135623120Y-111140577D01*
X135647701Y-111035056D01*
X135671361Y-110896259D01*
X135680827Y-110830817D01*
X135691109Y-110748923D01*
X135693154Y-110697394D01*
X135685883Y-110664870D01*
X135668214Y-110639993D01*
X135662081Y-110633673D01*
X135636286Y-110610730D01*
X135612020Y-110604713D01*
X135575402Y-110616276D01*
X135524717Y-110640165D01*
X135465770Y-110672806D01*
X135425171Y-110709296D01*
X135396603Y-110759843D01*
X135373752Y-110834651D01*
X135356848Y-110911429D01*
X135329083Y-111047108D01*
X135254541Y-110940510D01*
X135161847Y-110817151D01*
X135073690Y-110717379D01*
X134994112Y-110645034D01*
X134927155Y-110603954D01*
X134891635Y-110595833D01*
X134855527Y-110609410D01*
G36*
X131586840Y-110629137D02*
G01*
X131532653Y-110659348D01*
X131478736Y-110698333D01*
X131438077Y-110736791D01*
X131423544Y-110763634D01*
X131417888Y-110811498D01*
X131411129Y-110842106D01*
X131410119Y-110864528D01*
X131423890Y-110887044D01*
X131458350Y-110914437D01*
X131519409Y-110951489D01*
X131603736Y-110997992D01*
X131826540Y-111134433D01*
X132010904Y-111282529D01*
X132155088Y-111438690D01*
X132249635Y-111558916D01*
X132127776Y-111569500D01*
X132060260Y-111573182D01*
X132011645Y-111571761D01*
X131995333Y-111567328D01*
X131969894Y-111557429D01*
X131916661Y-111546262D01*
X131878916Y-111540531D01*
X131793658Y-111525980D01*
X131707837Y-111506483D01*
X131683730Y-111499774D01*
X131594376Y-111473059D01*
X131625521Y-111413026D01*
X131647580Y-111362356D01*
X131656666Y-111325427D01*
X131672230Y-111294498D01*
X131680868Y-111289793D01*
X131694509Y-111269505D01*
X131679181Y-111234747D01*
X131641190Y-111194456D01*
X131587966Y-111158168D01*
X131516347Y-111119599D01*
X131357580Y-111206735D01*
X131277269Y-111253837D01*
X131205966Y-111300997D01*
X131156418Y-111339647D01*
X131148883Y-111347019D01*
X131108953Y-111382982D01*
X131078245Y-111399720D01*
X131076185Y-111399879D01*
X131058646Y-111381557D01*
X131032158Y-111336666D01*
X130660405Y-111336666D01*
X130578184Y-111336666D01*
X130516372Y-111333682D01*
X130469860Y-111326332D01*
X130464589Y-111324627D01*
X130447332Y-111302234D01*
X130448770Y-111252577D01*
X130469318Y-111171467D01*
X130484384Y-111125138D01*
X130501198Y-111114867D01*
X130532761Y-111141515D01*
X130579788Y-111205839D01*
X130618782Y-111267875D01*
X130660405Y-111336666D01*
X131032158Y-111336666D01*
X131029650Y-111332416D01*
X130993808Y-111260798D01*
X130968750Y-111205518D01*
X130904372Y-111064133D01*
X130850040Y-110959497D01*
X130803258Y-110887922D01*
X130761531Y-110845724D01*
X130722362Y-110829217D01*
X130713588Y-110828666D01*
X130655518Y-110810054D01*
X130588861Y-110758193D01*
X130520977Y-110679048D01*
X130510285Y-110663950D01*
X130487541Y-110635861D01*
X130462010Y-110625824D01*
X130419418Y-110631575D01*
X130376013Y-110642656D01*
X130299131Y-110671617D01*
X130250330Y-110715178D01*
X130221404Y-110783507D01*
X130208826Y-110849833D01*
X130197150Y-110920455D01*
X130179849Y-111011831D01*
X130161869Y-111098541D01*
X130141948Y-111180321D01*
X130123992Y-111227864D01*
X130104358Y-111248891D01*
X130089418Y-111252000D01*
X130043830Y-111262752D01*
X129988506Y-111289261D01*
X129937502Y-111322902D01*
X129904872Y-111355052D01*
X129899833Y-111368314D01*
X129914648Y-111397780D01*
X129952087Y-111440459D01*
X129973634Y-111460579D01*
X130018901Y-111504436D01*
X130037939Y-111541759D01*
X130038278Y-111591560D01*
X130035269Y-111616230D01*
X130042283Y-111714551D01*
X130087852Y-111803801D01*
X130168290Y-111877679D01*
X130199070Y-111896120D01*
X130253643Y-111921285D01*
X130295463Y-111924327D01*
X130342394Y-111908970D01*
X130386507Y-111882687D01*
X130400420Y-111856446D01*
X130399781Y-111854213D01*
X130406056Y-111821471D01*
X130430427Y-111790458D01*
X130464926Y-111751570D01*
X130462171Y-111723306D01*
X130420395Y-111695623D01*
X130413125Y-111692078D01*
X130369269Y-111661326D01*
X130354482Y-111631344D01*
X130369402Y-111611895D01*
X130407833Y-111611286D01*
X130458129Y-111616915D01*
X130531690Y-111620796D01*
X130587000Y-111621869D01*
X130660371Y-111619964D01*
X130703228Y-111611140D01*
X130727246Y-111591933D01*
X130735616Y-111577805D01*
X130757954Y-111551022D01*
X130782189Y-111559674D01*
X130810083Y-111605758D01*
X130843400Y-111691269D01*
X130848175Y-111705250D01*
X130876772Y-111777942D01*
X130907914Y-111839271D01*
X130926409Y-111865825D01*
X130979816Y-111899748D01*
X131043409Y-111906367D01*
X131104640Y-111889249D01*
X131150960Y-111851961D01*
X131169822Y-111798070D01*
X131169833Y-111796624D01*
X131181465Y-111759017D01*
X131191057Y-111749381D01*
X131200753Y-111721160D01*
X131191439Y-111697320D01*
X131180706Y-111673948D01*
X131188947Y-111669615D01*
X131223948Y-111684210D01*
X131249590Y-111696482D01*
X131305942Y-111718851D01*
X131393395Y-111747915D01*
X131501820Y-111780767D01*
X131621085Y-111814502D01*
X131741063Y-111846216D01*
X131851623Y-111873002D01*
X131906990Y-111885042D01*
X132077748Y-111908077D01*
X132219447Y-111900692D01*
X132333007Y-111862355D01*
X132419349Y-111792533D01*
X132479395Y-111690695D01*
X132514065Y-111556307D01*
X132517252Y-111532321D01*
X132529753Y-111426770D01*
X132595918Y-111470680D01*
X132637612Y-111503234D01*
X132654897Y-111537978D01*
X132655610Y-111593040D01*
X132654590Y-111606429D01*
X132655963Y-111680629D01*
X132668791Y-111748943D01*
X132673260Y-111761433D01*
X132720564Y-111833251D01*
X132788897Y-111886215D01*
X132866450Y-111914531D01*
X132941415Y-111912402D01*
X132963708Y-111903964D01*
X133000285Y-111873023D01*
X133011333Y-111844712D01*
X133026088Y-111804112D01*
X133053167Y-111771035D01*
X133082320Y-111731601D01*
X133072877Y-111705138D01*
X133031995Y-111696500D01*
X132997321Y-111682868D01*
X132967664Y-111652166D01*
X132955218Y-111619682D01*
X132960221Y-111606501D01*
X132985897Y-111603793D01*
X133035748Y-111610818D01*
X133049435Y-111613796D01*
X133165944Y-111632062D01*
X133261038Y-111629135D01*
X133328206Y-111605574D01*
X133347800Y-111588126D01*
X133384136Y-111543253D01*
X133419185Y-111596745D01*
X133446316Y-111651130D01*
X133471852Y-111722572D01*
X133478475Y-111746508D01*
X133515821Y-111833719D01*
X133573455Y-111887806D01*
X133647287Y-111905267D01*
X133662746Y-111904163D01*
X133715053Y-111880763D01*
X133763156Y-111832091D01*
X133796658Y-111772578D01*
X133805166Y-111716657D01*
X133803455Y-111708808D01*
X133796959Y-111689795D01*
X133784885Y-111659721D01*
X133765463Y-111614653D01*
X133736921Y-111550662D01*
X133697490Y-111463816D01*
X133645399Y-111350185D01*
X133639169Y-111336666D01*
X133268042Y-111336666D01*
X133172687Y-111336666D01*
X133112610Y-111332570D01*
X133072283Y-111322237D01*
X133064921Y-111316585D01*
X133062360Y-111285611D01*
X133070072Y-111230116D01*
X133076974Y-111199349D01*
X133093060Y-111142135D01*
X133106915Y-111119419D01*
X133124932Y-111124253D01*
X133136872Y-111134261D01*
X133169043Y-111172369D01*
X133207296Y-111229539D01*
X133220174Y-111251497D01*
X133268042Y-111336666D01*
X133639169Y-111336666D01*
X133578877Y-111205838D01*
X133500900Y-111037106D01*
X133452446Y-110939749D01*
X133411330Y-110876692D01*
X133372218Y-110841842D01*
X133329775Y-110829108D01*
X133318379Y-110828666D01*
X133267950Y-110809337D01*
X133201862Y-110751184D01*
X133176081Y-110722885D01*
X133083547Y-110617104D01*
X132968065Y-110654094D01*
X132902688Y-110676545D01*
X132866336Y-110698346D01*
X132847659Y-110731567D01*
X132835304Y-110788280D01*
X132833765Y-110796916D01*
X132807001Y-110944833D01*
X132785352Y-111056201D01*
X132767198Y-111136264D01*
X132750917Y-111190268D01*
X132734889Y-111223456D01*
X132717492Y-111241074D01*
X132697106Y-111248366D01*
X132694093Y-111248837D01*
X132638545Y-111266679D01*
X132585010Y-111296462D01*
X132536102Y-111326840D01*
X132501423Y-111330459D01*
X132470002Y-111303530D01*
X132431573Y-111243471D01*
X132391419Y-111187657D01*
X132329530Y-111116089D01*
X132256364Y-111040498D01*
X132219346Y-111005346D01*
X132147154Y-110943861D01*
X132059109Y-110876275D01*
X131962755Y-110807545D01*
X131865634Y-110742627D01*
X131775293Y-110686478D01*
X131699273Y-110644056D01*
X131645120Y-110620316D01*
X131628309Y-110617000D01*
X131586840Y-110629137D01*
G37*
X131586840Y-110629137D02*
X131532653Y-110659348D01*
X131478736Y-110698333D01*
X131438077Y-110736791D01*
X131423544Y-110763634D01*
X131417888Y-110811498D01*
X131411129Y-110842106D01*
X131410119Y-110864528D01*
X131423890Y-110887044D01*
X131458350Y-110914437D01*
X131519409Y-110951489D01*
X131603736Y-110997992D01*
X131826540Y-111134433D01*
X132010904Y-111282529D01*
X132155088Y-111438690D01*
X132249635Y-111558916D01*
X132127776Y-111569500D01*
X132060260Y-111573182D01*
X132011645Y-111571761D01*
X131995333Y-111567328D01*
X131969894Y-111557429D01*
X131916661Y-111546262D01*
X131878916Y-111540531D01*
X131793658Y-111525980D01*
X131707837Y-111506483D01*
X131683730Y-111499774D01*
X131594376Y-111473059D01*
X131625521Y-111413026D01*
X131647580Y-111362356D01*
X131656666Y-111325427D01*
X131672230Y-111294498D01*
X131680868Y-111289793D01*
X131694509Y-111269505D01*
X131679181Y-111234747D01*
X131641190Y-111194456D01*
X131587966Y-111158168D01*
X131516347Y-111119599D01*
X131357580Y-111206735D01*
X131277269Y-111253837D01*
X131205966Y-111300997D01*
X131156418Y-111339647D01*
X131148883Y-111347019D01*
X131108953Y-111382982D01*
X131078245Y-111399720D01*
X131076185Y-111399879D01*
X131058646Y-111381557D01*
X131032158Y-111336666D01*
X130660405Y-111336666D01*
X130578184Y-111336666D01*
X130516372Y-111333682D01*
X130469860Y-111326332D01*
X130464589Y-111324627D01*
X130447332Y-111302234D01*
X130448770Y-111252577D01*
X130469318Y-111171467D01*
X130484384Y-111125138D01*
X130501198Y-111114867D01*
X130532761Y-111141515D01*
X130579788Y-111205839D01*
X130618782Y-111267875D01*
X130660405Y-111336666D01*
X131032158Y-111336666D01*
X131029650Y-111332416D01*
X130993808Y-111260798D01*
X130968750Y-111205518D01*
X130904372Y-111064133D01*
X130850040Y-110959497D01*
X130803258Y-110887922D01*
X130761531Y-110845724D01*
X130722362Y-110829217D01*
X130713588Y-110828666D01*
X130655518Y-110810054D01*
X130588861Y-110758193D01*
X130520977Y-110679048D01*
X130510285Y-110663950D01*
X130487541Y-110635861D01*
X130462010Y-110625824D01*
X130419418Y-110631575D01*
X130376013Y-110642656D01*
X130299131Y-110671617D01*
X130250330Y-110715178D01*
X130221404Y-110783507D01*
X130208826Y-110849833D01*
X130197150Y-110920455D01*
X130179849Y-111011831D01*
X130161869Y-111098541D01*
X130141948Y-111180321D01*
X130123992Y-111227864D01*
X130104358Y-111248891D01*
X130089418Y-111252000D01*
X130043830Y-111262752D01*
X129988506Y-111289261D01*
X129937502Y-111322902D01*
X129904872Y-111355052D01*
X129899833Y-111368314D01*
X129914648Y-111397780D01*
X129952087Y-111440459D01*
X129973634Y-111460579D01*
X130018901Y-111504436D01*
X130037939Y-111541759D01*
X130038278Y-111591560D01*
X130035269Y-111616230D01*
X130042283Y-111714551D01*
X130087852Y-111803801D01*
X130168290Y-111877679D01*
X130199070Y-111896120D01*
X130253643Y-111921285D01*
X130295463Y-111924327D01*
X130342394Y-111908970D01*
X130386507Y-111882687D01*
X130400420Y-111856446D01*
X130399781Y-111854213D01*
X130406056Y-111821471D01*
X130430427Y-111790458D01*
X130464926Y-111751570D01*
X130462171Y-111723306D01*
X130420395Y-111695623D01*
X130413125Y-111692078D01*
X130369269Y-111661326D01*
X130354482Y-111631344D01*
X130369402Y-111611895D01*
X130407833Y-111611286D01*
X130458129Y-111616915D01*
X130531690Y-111620796D01*
X130587000Y-111621869D01*
X130660371Y-111619964D01*
X130703228Y-111611140D01*
X130727246Y-111591933D01*
X130735616Y-111577805D01*
X130757954Y-111551022D01*
X130782189Y-111559674D01*
X130810083Y-111605758D01*
X130843400Y-111691269D01*
X130848175Y-111705250D01*
X130876772Y-111777942D01*
X130907914Y-111839271D01*
X130926409Y-111865825D01*
X130979816Y-111899748D01*
X131043409Y-111906367D01*
X131104640Y-111889249D01*
X131150960Y-111851961D01*
X131169822Y-111798070D01*
X131169833Y-111796624D01*
X131181465Y-111759017D01*
X131191057Y-111749381D01*
X131200753Y-111721160D01*
X131191439Y-111697320D01*
X131180706Y-111673948D01*
X131188947Y-111669615D01*
X131223948Y-111684210D01*
X131249590Y-111696482D01*
X131305942Y-111718851D01*
X131393395Y-111747915D01*
X131501820Y-111780767D01*
X131621085Y-111814502D01*
X131741063Y-111846216D01*
X131851623Y-111873002D01*
X131906990Y-111885042D01*
X132077748Y-111908077D01*
X132219447Y-111900692D01*
X132333007Y-111862355D01*
X132419349Y-111792533D01*
X132479395Y-111690695D01*
X132514065Y-111556307D01*
X132517252Y-111532321D01*
X132529753Y-111426770D01*
X132595918Y-111470680D01*
X132637612Y-111503234D01*
X132654897Y-111537978D01*
X132655610Y-111593040D01*
X132654590Y-111606429D01*
X132655963Y-111680629D01*
X132668791Y-111748943D01*
X132673260Y-111761433D01*
X132720564Y-111833251D01*
X132788897Y-111886215D01*
X132866450Y-111914531D01*
X132941415Y-111912402D01*
X132963708Y-111903964D01*
X133000285Y-111873023D01*
X133011333Y-111844712D01*
X133026088Y-111804112D01*
X133053167Y-111771035D01*
X133082320Y-111731601D01*
X133072877Y-111705138D01*
X133031995Y-111696500D01*
X132997321Y-111682868D01*
X132967664Y-111652166D01*
X132955218Y-111619682D01*
X132960221Y-111606501D01*
X132985897Y-111603793D01*
X133035748Y-111610818D01*
X133049435Y-111613796D01*
X133165944Y-111632062D01*
X133261038Y-111629135D01*
X133328206Y-111605574D01*
X133347800Y-111588126D01*
X133384136Y-111543253D01*
X133419185Y-111596745D01*
X133446316Y-111651130D01*
X133471852Y-111722572D01*
X133478475Y-111746508D01*
X133515821Y-111833719D01*
X133573455Y-111887806D01*
X133647287Y-111905267D01*
X133662746Y-111904163D01*
X133715053Y-111880763D01*
X133763156Y-111832091D01*
X133796658Y-111772578D01*
X133805166Y-111716657D01*
X133803455Y-111708808D01*
X133796959Y-111689795D01*
X133784885Y-111659721D01*
X133765463Y-111614653D01*
X133736921Y-111550662D01*
X133697490Y-111463816D01*
X133645399Y-111350185D01*
X133639169Y-111336666D01*
X133268042Y-111336666D01*
X133172687Y-111336666D01*
X133112610Y-111332570D01*
X133072283Y-111322237D01*
X133064921Y-111316585D01*
X133062360Y-111285611D01*
X133070072Y-111230116D01*
X133076974Y-111199349D01*
X133093060Y-111142135D01*
X133106915Y-111119419D01*
X133124932Y-111124253D01*
X133136872Y-111134261D01*
X133169043Y-111172369D01*
X133207296Y-111229539D01*
X133220174Y-111251497D01*
X133268042Y-111336666D01*
X133639169Y-111336666D01*
X133578877Y-111205838D01*
X133500900Y-111037106D01*
X133452446Y-110939749D01*
X133411330Y-110876692D01*
X133372218Y-110841842D01*
X133329775Y-110829108D01*
X133318379Y-110828666D01*
X133267950Y-110809337D01*
X133201862Y-110751184D01*
X133176081Y-110722885D01*
X133083547Y-110617104D01*
X132968065Y-110654094D01*
X132902688Y-110676545D01*
X132866336Y-110698346D01*
X132847659Y-110731567D01*
X132835304Y-110788280D01*
X132833765Y-110796916D01*
X132807001Y-110944833D01*
X132785352Y-111056201D01*
X132767198Y-111136264D01*
X132750917Y-111190268D01*
X132734889Y-111223456D01*
X132717492Y-111241074D01*
X132697106Y-111248366D01*
X132694093Y-111248837D01*
X132638545Y-111266679D01*
X132585010Y-111296462D01*
X132536102Y-111326840D01*
X132501423Y-111330459D01*
X132470002Y-111303530D01*
X132431573Y-111243471D01*
X132391419Y-111187657D01*
X132329530Y-111116089D01*
X132256364Y-111040498D01*
X132219346Y-111005346D01*
X132147154Y-110943861D01*
X132059109Y-110876275D01*
X131962755Y-110807545D01*
X131865634Y-110742627D01*
X131775293Y-110686478D01*
X131699273Y-110644056D01*
X131645120Y-110620316D01*
X131628309Y-110617000D01*
X131586840Y-110629137D01*
G36*
X133919172Y-110608866D02*
G01*
X133875763Y-110637494D01*
X133862901Y-110647874D01*
X133817592Y-110682302D01*
X133784815Y-110700706D01*
X133780133Y-110701666D01*
X133757746Y-110718132D01*
X133727872Y-110758405D01*
X133724045Y-110764723D01*
X133700938Y-110815326D01*
X133699232Y-110865418D01*
X133709714Y-110912890D01*
X133727556Y-110965566D01*
X133744771Y-110995446D01*
X133749572Y-110998000D01*
X133759803Y-111017439D01*
X133772833Y-111069437D01*
X133786479Y-111144514D01*
X133792226Y-111183208D01*
X133832865Y-111394668D01*
X133890785Y-111568975D01*
X133965727Y-111705549D01*
X134057430Y-111803814D01*
X134078481Y-111819315D01*
X134152634Y-111858632D01*
X134219422Y-111865173D01*
X134286730Y-111837228D01*
X134362442Y-111773086D01*
X134381344Y-111753593D01*
X134436181Y-111691480D01*
X134479389Y-111634939D01*
X134501922Y-111595849D01*
X134502257Y-111594843D01*
X134519202Y-111558630D01*
X134531468Y-111548496D01*
X134551625Y-111566270D01*
X134580519Y-111610938D01*
X134611446Y-111669979D01*
X134637701Y-111730870D01*
X134650381Y-111770583D01*
X134681454Y-111840303D01*
X134730516Y-111889881D01*
X134785168Y-111908166D01*
X134830519Y-111893095D01*
X134857670Y-111871125D01*
X134901602Y-111808030D01*
X134941625Y-111728802D01*
X134970181Y-111650533D01*
X134979833Y-111594806D01*
X134970762Y-111558108D01*
X134945270Y-111489657D01*
X134905935Y-111395529D01*
X134855340Y-111281800D01*
X134796064Y-111154546D01*
X134768166Y-111096390D01*
X134707659Y-110970482D01*
X134653895Y-110856922D01*
X134609485Y-110761362D01*
X134577040Y-110689456D01*
X134559170Y-110646856D01*
X134556500Y-110638010D01*
X134544696Y-110619272D01*
X134506765Y-110624648D01*
X134438925Y-110654735D01*
X134433948Y-110657273D01*
X134332960Y-110724828D01*
X134272360Y-110804075D01*
X134251399Y-110896713D01*
X134269329Y-111004436D01*
X134274310Y-111019166D01*
X134286381Y-111071473D01*
X134295022Y-111144115D01*
X134300049Y-111226519D01*
X134301281Y-111308112D01*
X134298533Y-111378323D01*
X134291623Y-111426579D01*
X134281633Y-111442500D01*
X134248377Y-111423284D01*
X134209755Y-111371379D01*
X134169681Y-111295401D01*
X134132072Y-111203963D01*
X134100845Y-111105680D01*
X134079915Y-111009166D01*
X134077708Y-110993900D01*
X134064198Y-110921874D01*
X134042674Y-110838435D01*
X134016642Y-110754090D01*
X133989609Y-110679343D01*
X133965083Y-110624699D01*
X133946572Y-110600665D01*
X133946403Y-110600606D01*
X133919172Y-110608866D01*
G37*
X133919172Y-110608866D02*
X133875763Y-110637494D01*
X133862901Y-110647874D01*
X133817592Y-110682302D01*
X133784815Y-110700706D01*
X133780133Y-110701666D01*
X133757746Y-110718132D01*
X133727872Y-110758405D01*
X133724045Y-110764723D01*
X133700938Y-110815326D01*
X133699232Y-110865418D01*
X133709714Y-110912890D01*
X133727556Y-110965566D01*
X133744771Y-110995446D01*
X133749572Y-110998000D01*
X133759803Y-111017439D01*
X133772833Y-111069437D01*
X133786479Y-111144514D01*
X133792226Y-111183208D01*
X133832865Y-111394668D01*
X133890785Y-111568975D01*
X133965727Y-111705549D01*
X134057430Y-111803814D01*
X134078481Y-111819315D01*
X134152634Y-111858632D01*
X134219422Y-111865173D01*
X134286730Y-111837228D01*
X134362442Y-111773086D01*
X134381344Y-111753593D01*
X134436181Y-111691480D01*
X134479389Y-111634939D01*
X134501922Y-111595849D01*
X134502257Y-111594843D01*
X134519202Y-111558630D01*
X134531468Y-111548496D01*
X134551625Y-111566270D01*
X134580519Y-111610938D01*
X134611446Y-111669979D01*
X134637701Y-111730870D01*
X134650381Y-111770583D01*
X134681454Y-111840303D01*
X134730516Y-111889881D01*
X134785168Y-111908166D01*
X134830519Y-111893095D01*
X134857670Y-111871125D01*
X134901602Y-111808030D01*
X134941625Y-111728802D01*
X134970181Y-111650533D01*
X134979833Y-111594806D01*
X134970762Y-111558108D01*
X134945270Y-111489657D01*
X134905935Y-111395529D01*
X134855340Y-111281800D01*
X134796064Y-111154546D01*
X134768166Y-111096390D01*
X134707659Y-110970482D01*
X134653895Y-110856922D01*
X134609485Y-110761362D01*
X134577040Y-110689456D01*
X134559170Y-110646856D01*
X134556500Y-110638010D01*
X134544696Y-110619272D01*
X134506765Y-110624648D01*
X134438925Y-110654735D01*
X134433948Y-110657273D01*
X134332960Y-110724828D01*
X134272360Y-110804075D01*
X134251399Y-110896713D01*
X134269329Y-111004436D01*
X134274310Y-111019166D01*
X134286381Y-111071473D01*
X134295022Y-111144115D01*
X134300049Y-111226519D01*
X134301281Y-111308112D01*
X134298533Y-111378323D01*
X134291623Y-111426579D01*
X134281633Y-111442500D01*
X134248377Y-111423284D01*
X134209755Y-111371379D01*
X134169681Y-111295401D01*
X134132072Y-111203963D01*
X134100845Y-111105680D01*
X134079915Y-111009166D01*
X134077708Y-110993900D01*
X134064198Y-110921874D01*
X134042674Y-110838435D01*
X134016642Y-110754090D01*
X133989609Y-110679343D01*
X133965083Y-110624699D01*
X133946572Y-110600665D01*
X133946403Y-110600606D01*
X133919172Y-110608866D01*
D12*
X148209000Y-82448400D03*
X143129000Y-82448400D03*
D13*
X151180800Y-110896400D03*
X148640800Y-110896400D03*
X146100800Y-110896400D03*
D14*
X143560800Y-110896400D03*
D13*
X145669000Y-84836000D03*
D15*
X151157671Y-87820707D03*
X151157671Y-90360707D03*
X151157671Y-92900707D03*
X151157671Y-95440707D03*
X151157671Y-97980707D03*
X151157671Y-100520707D03*
X151157671Y-103060707D03*
D16*
X151157671Y-105600707D03*
X128297671Y-105600707D03*
D15*
X128297671Y-103060707D03*
X128297671Y-100520707D03*
X128297671Y-97980707D03*
X128297671Y-95440707D03*
X128297671Y-92900707D03*
X128297671Y-90360707D03*
X128297671Y-87820707D03*
D17*
X149860000Y-85852000D03*
X142240000Y-85471000D03*
X138684000Y-82423000D03*
X132715000Y-103378000D03*
X150749000Y-82423000D03*
X150749000Y-84201000D03*
X148209000Y-85852000D03*
X148209000Y-87503000D03*
X140716000Y-83312000D03*
X140716000Y-81407000D03*
X140716000Y-84963000D03*
X148209000Y-89281000D03*
X146431000Y-89408000D03*
X144907000Y-89408000D03*
D18*
X136906000Y-85471000D03*
D17*
X142821660Y-103383080D03*
X132715000Y-87376000D03*
D18*
X143675100Y-108064300D03*
D17*
X141986000Y-97663000D03*
X136779000Y-87263544D03*
X134721600Y-89484200D03*
X136779000Y-103377000D03*
X134747000Y-103377000D03*
X138811000Y-103441001D03*
D18*
X140741401Y-101396800D03*
D19*
X128513001Y-87873001D02*
X128297671Y-87873001D01*
X142748000Y-103348800D02*
X142750800Y-103351600D01*
X128360964Y-87884000D02*
X130218272Y-87884000D01*
X128297671Y-87820707D02*
X128360964Y-87884000D01*
X130218272Y-87884000D02*
X142821660Y-100487388D01*
X142821660Y-100487388D02*
X142821660Y-103383080D01*
X143659860Y-108049060D02*
X143675100Y-108064300D01*
X143659860Y-100477046D02*
X143659860Y-108049060D01*
X132750800Y-87351600D02*
X132750800Y-89567986D01*
X132750800Y-89567986D02*
X143659860Y-100477046D01*
X144272000Y-104653080D02*
X144272000Y-100203000D01*
X148640800Y-110896400D02*
X148640800Y-109021880D01*
X144272000Y-100203000D02*
X141947899Y-97878899D01*
X148640800Y-109021880D02*
X144272000Y-104653080D01*
X151157671Y-92900707D02*
X138112707Y-92900707D01*
X138112707Y-92900707D02*
X136750800Y-91538800D01*
X136750800Y-91538800D02*
X136750800Y-87351600D01*
X134750800Y-89513400D02*
X134721600Y-89484200D01*
X134750800Y-90554800D02*
X134750800Y-89513400D01*
X137696718Y-93500718D02*
X134750800Y-90554800D01*
X151157671Y-95440707D02*
X149217682Y-93500718D01*
X149217682Y-93500718D02*
X137696718Y-93500718D01*
X129095707Y-100520707D02*
X130683000Y-102108000D01*
X136750800Y-104676200D02*
X136750800Y-103351600D01*
X128297671Y-100520707D02*
X129095707Y-100520707D01*
X130683000Y-102108000D02*
X130683000Y-104521000D01*
X130683000Y-104521000D02*
X131572000Y-105410000D01*
X131572000Y-105410000D02*
X136017000Y-105410000D01*
X136017000Y-105410000D02*
X136750800Y-104676200D01*
X134750800Y-101222800D02*
X134750800Y-103351600D01*
X128297671Y-97980707D02*
X131508707Y-97980707D01*
X131508707Y-97980707D02*
X134750800Y-101222800D01*
X138811000Y-102514400D02*
X138811000Y-103441001D01*
X128297671Y-95440707D02*
X131737307Y-95440707D01*
X131737307Y-95440707D02*
X138811000Y-102514400D01*
X128297671Y-92900707D02*
X132245308Y-92900707D01*
X140341402Y-100996801D02*
X140741401Y-101396800D01*
X132245308Y-92900707D02*
X140341402Y-100996801D01*
D20*
G36*
X141986660Y-100833256D02*
G01*
X141986661Y-102872570D01*
X141955056Y-102919870D01*
X141881340Y-103097837D01*
X141843760Y-103286765D01*
X141843760Y-103479395D01*
X141881340Y-103668323D01*
X141955056Y-103846290D01*
X142062075Y-104006455D01*
X142198285Y-104142665D01*
X142358450Y-104249684D01*
X142536417Y-104323400D01*
X142725345Y-104360980D01*
X142824861Y-104360980D01*
X142824861Y-107473822D01*
X142757895Y-107574044D01*
X142679874Y-107762402D01*
X142640100Y-107962361D01*
X142640100Y-108166239D01*
X142679874Y-108366198D01*
X142757895Y-108554556D01*
X142871163Y-108724074D01*
X143015326Y-108868237D01*
X143184844Y-108981505D01*
X143373202Y-109059526D01*
X143573161Y-109099300D01*
X143777039Y-109099300D01*
X143976998Y-109059526D01*
X144165356Y-108981505D01*
X144334874Y-108868237D01*
X144479037Y-108724074D01*
X144592305Y-108554556D01*
X144670326Y-108366198D01*
X144710100Y-108166239D01*
X144710100Y-107962361D01*
X144670326Y-107762402D01*
X144592305Y-107574044D01*
X144494860Y-107428207D01*
X144494860Y-106056807D01*
X147805801Y-109367749D01*
X147805801Y-109668334D01*
X147694168Y-109742925D01*
X147487325Y-109949768D01*
X147370800Y-110124160D01*
X147254275Y-109949768D01*
X147047432Y-109742925D01*
X146804211Y-109580410D01*
X146533958Y-109468468D01*
X146247060Y-109411400D01*
X145954540Y-109411400D01*
X145667642Y-109468468D01*
X145397389Y-109580410D01*
X145154168Y-109742925D01*
X144947325Y-109949768D01*
X144830800Y-110124160D01*
X144714275Y-109949768D01*
X144507432Y-109742925D01*
X144264211Y-109580410D01*
X143993958Y-109468468D01*
X143707060Y-109411400D01*
X143414540Y-109411400D01*
X143127642Y-109468468D01*
X142857389Y-109580410D01*
X142614168Y-109742925D01*
X142407325Y-109949768D01*
X142244810Y-110192989D01*
X142132868Y-110463242D01*
X142075800Y-110750140D01*
X142075800Y-111042660D01*
X142132868Y-111329558D01*
X142244810Y-111599811D01*
X142407325Y-111843032D01*
X142614168Y-112049875D01*
X142857389Y-112212390D01*
X143127642Y-112324332D01*
X143414540Y-112381400D01*
X143707060Y-112381400D01*
X143993958Y-112324332D01*
X144264211Y-112212390D01*
X144507432Y-112049875D01*
X144714275Y-111843032D01*
X144830800Y-111668640D01*
X144947325Y-111843032D01*
X145154168Y-112049875D01*
X145397389Y-112212390D01*
X145667642Y-112324332D01*
X145954540Y-112381400D01*
X146247060Y-112381400D01*
X146533958Y-112324332D01*
X146804211Y-112212390D01*
X147047432Y-112049875D01*
X147254275Y-111843032D01*
X147370800Y-111668640D01*
X147487325Y-111843032D01*
X147694168Y-112049875D01*
X147937389Y-112212390D01*
X148207642Y-112324332D01*
X148494540Y-112381400D01*
X148787060Y-112381400D01*
X149073958Y-112324332D01*
X149344211Y-112212390D01*
X149587432Y-112049875D01*
X149794275Y-111843032D01*
X149910800Y-111668640D01*
X150027325Y-111843032D01*
X150234168Y-112049875D01*
X150477389Y-112212390D01*
X150747642Y-112324332D01*
X151034540Y-112381400D01*
X151327060Y-112381400D01*
X151613958Y-112324332D01*
X151884211Y-112212390D01*
X151918600Y-112189412D01*
X151918600Y-113742400D01*
X144270800Y-113742400D01*
X144270800Y-113293477D01*
X144274235Y-113258600D01*
X144260527Y-113119416D01*
X144219928Y-112985580D01*
X144154000Y-112862237D01*
X144065275Y-112754125D01*
X143957163Y-112665400D01*
X143833820Y-112599472D01*
X143699984Y-112558873D01*
X143560800Y-112545165D01*
X143525923Y-112548600D01*
X137434471Y-112548600D01*
X137517748Y-112524512D01*
X137539536Y-112515827D01*
X137562232Y-112509862D01*
X137570590Y-112506699D01*
X137697986Y-112457473D01*
X137730369Y-112473723D01*
X137770416Y-112489134D01*
X137809448Y-112506973D01*
X137828584Y-112511518D01*
X137846942Y-112518583D01*
X137889225Y-112525923D01*
X137930973Y-112535839D01*
X137950630Y-112536581D01*
X137970008Y-112539945D01*
X138012898Y-112538933D01*
X138055789Y-112540553D01*
X138064706Y-112539954D01*
X138134938Y-112534750D01*
X138192116Y-112524835D01*
X138249407Y-112515719D01*
X138253598Y-112514174D01*
X138258008Y-112513409D01*
X138312139Y-112492589D01*
X138366600Y-112472508D01*
X138374615Y-112468556D01*
X138407712Y-112451953D01*
X138457035Y-112420844D01*
X138506780Y-112390362D01*
X138509838Y-112387540D01*
X138513360Y-112385319D01*
X138541620Y-112358557D01*
X138585291Y-112370885D01*
X138587088Y-112371207D01*
X138588793Y-112371863D01*
X138597423Y-112374181D01*
X138843408Y-112438429D01*
X138853504Y-112440035D01*
X138863203Y-112443264D01*
X138871930Y-112445185D01*
X139083392Y-112490185D01*
X139099686Y-112492017D01*
X139115550Y-112496174D01*
X139124384Y-112497523D01*
X139300664Y-112523192D01*
X139328215Y-112524484D01*
X139355462Y-112528776D01*
X139364387Y-112529236D01*
X139504830Y-112535496D01*
X139555005Y-112532825D01*
X139605267Y-112532076D01*
X139614139Y-112531009D01*
X139718088Y-112517778D01*
X139726016Y-112515969D01*
X139734128Y-112515529D01*
X139786838Y-112502090D01*
X139839864Y-112489990D01*
X139847281Y-112486679D01*
X139855162Y-112484670D01*
X139863542Y-112481568D01*
X139905098Y-112465862D01*
X139923638Y-112456697D01*
X139943225Y-112450029D01*
X139979519Y-112429075D01*
X140017071Y-112410512D01*
X140033476Y-112397922D01*
X140051396Y-112387576D01*
X140058626Y-112382323D01*
X140165834Y-112303281D01*
X140186746Y-112284451D01*
X140209552Y-112267983D01*
X140233043Y-112242763D01*
X140258656Y-112219701D01*
X140275505Y-112197178D01*
X140294686Y-112176586D01*
X140300060Y-112169445D01*
X140380915Y-112060445D01*
X140390856Y-112043880D01*
X140402937Y-112028808D01*
X140422927Y-111990434D01*
X140445185Y-111953343D01*
X140451716Y-111935171D01*
X140460644Y-111918032D01*
X140463921Y-111909718D01*
X140515551Y-111776029D01*
X140518321Y-111766050D01*
X140522672Y-111756664D01*
X140535003Y-111705963D01*
X140548965Y-111655674D01*
X140549744Y-111645355D01*
X140552190Y-111635297D01*
X140553382Y-111626440D01*
X140572912Y-111473328D01*
X140573671Y-111447275D01*
X140577357Y-111421975D01*
X140577074Y-111416404D01*
X140577791Y-111410765D01*
X140577986Y-111401830D01*
X140577992Y-111401425D01*
X140575782Y-111374835D01*
X140576550Y-111348475D01*
X140572348Y-111323447D01*
X140571015Y-111297230D01*
X140569631Y-111288402D01*
X140552382Y-111183197D01*
X140548712Y-111169413D01*
X140547157Y-111155235D01*
X140532666Y-111109155D01*
X140520242Y-111062496D01*
X140513968Y-111049695D01*
X140509687Y-111036082D01*
X140506129Y-111027885D01*
X140453979Y-110909965D01*
X140429971Y-110867457D01*
X140407807Y-110823965D01*
X140402940Y-110816471D01*
X140319702Y-110690255D01*
X140298093Y-110663574D01*
X140278928Y-110635105D01*
X140273190Y-110628254D01*
X140162674Y-110498157D01*
X140143332Y-110479445D01*
X140126183Y-110458686D01*
X140119802Y-110452430D01*
X139985821Y-110322871D01*
X139967441Y-110308283D01*
X139950970Y-110291555D01*
X139944069Y-110285878D01*
X139790433Y-110161275D01*
X139771622Y-110148851D01*
X139754499Y-110134168D01*
X139747144Y-110129092D01*
X139577665Y-110013860D01*
X139567792Y-110008474D01*
X139558902Y-110001577D01*
X139551308Y-109996868D01*
X139525947Y-109981384D01*
X139446540Y-109932814D01*
X139381327Y-109891635D01*
X139341793Y-109865534D01*
X139333984Y-109859947D01*
X139302282Y-109841659D01*
X139272161Y-109820857D01*
X139264317Y-109816576D01*
X139217420Y-109791400D01*
X139205161Y-109786290D01*
X139193842Y-109779365D01*
X139147625Y-109762307D01*
X139102129Y-109743342D01*
X139089117Y-109740712D01*
X139076663Y-109736115D01*
X139068002Y-109733914D01*
X139017772Y-109721522D01*
X138989750Y-109717455D01*
X138962328Y-109710417D01*
X138928095Y-109708506D01*
X138894161Y-109703581D01*
X138865887Y-109705034D01*
X138837617Y-109703456D01*
X138828691Y-109703893D01*
X138789408Y-109706093D01*
X138788390Y-109706251D01*
X138787360Y-109706211D01*
X138726604Y-109715822D01*
X138665974Y-109725214D01*
X138665008Y-109725566D01*
X138663988Y-109725727D01*
X138606078Y-109747021D01*
X138548604Y-109767946D01*
X138547728Y-109768477D01*
X138546756Y-109768834D01*
X138494256Y-109800867D01*
X138441770Y-109832660D01*
X138441007Y-109833357D01*
X138440130Y-109833892D01*
X138394910Y-109875458D01*
X138379939Y-109889131D01*
X138374227Y-109892763D01*
X138316343Y-109930134D01*
X138284043Y-109955778D01*
X138250118Y-109979209D01*
X138235242Y-109994523D01*
X138218519Y-110007800D01*
X138191821Y-110039222D01*
X138163087Y-110068802D01*
X138161815Y-110070420D01*
X138135877Y-110039931D01*
X138101851Y-110007060D01*
X138069419Y-109972601D01*
X138062647Y-109966770D01*
X137978191Y-109895059D01*
X137965790Y-109886461D01*
X137954794Y-109876121D01*
X137914545Y-109850932D01*
X137875543Y-109823891D01*
X137861711Y-109817867D01*
X137848914Y-109809858D01*
X137840884Y-109805935D01*
X137764197Y-109769128D01*
X137732726Y-109757649D01*
X137702433Y-109743365D01*
X137674200Y-109736302D01*
X137646853Y-109726327D01*
X137613756Y-109721180D01*
X137581262Y-109713051D01*
X137572414Y-109711801D01*
X137540545Y-109707522D01*
X137487788Y-109705638D01*
X137435144Y-109702154D01*
X137425472Y-109703412D01*
X137415718Y-109703064D01*
X137363631Y-109711458D01*
X137311282Y-109718269D01*
X137302590Y-109720343D01*
X137223940Y-109739681D01*
X137188650Y-109752118D01*
X137152491Y-109761747D01*
X137129885Y-109772827D01*
X137106135Y-109781197D01*
X137073932Y-109800252D01*
X137040334Y-109816720D01*
X137032765Y-109821470D01*
X136949426Y-109874586D01*
X136902918Y-109911068D01*
X136856120Y-109946976D01*
X136851246Y-109951602D01*
X136851149Y-109951678D01*
X136851075Y-109951765D01*
X136849638Y-109953128D01*
X136766971Y-110032677D01*
X136739937Y-110064329D01*
X136710894Y-110094145D01*
X136705363Y-110101163D01*
X136695906Y-110113334D01*
X136661366Y-110103960D01*
X136655416Y-110102955D01*
X136649731Y-110100919D01*
X136641049Y-110098802D01*
X136519786Y-110070121D01*
X136515150Y-110069494D01*
X136510689Y-110068038D01*
X136501950Y-110066170D01*
X136375235Y-110039994D01*
X136369731Y-110039409D01*
X136364413Y-110037855D01*
X136355621Y-110036260D01*
X136232550Y-110014816D01*
X136227684Y-110014452D01*
X136222961Y-110013220D01*
X136214125Y-110011882D01*
X136158703Y-110003882D01*
X136157510Y-110003828D01*
X136156346Y-110003546D01*
X136147488Y-110002364D01*
X136056020Y-109990808D01*
X136045787Y-109990522D01*
X136035741Y-109988574D01*
X136026839Y-109987799D01*
X135967340Y-109983039D01*
X135922032Y-109983851D01*
X135876741Y-109982224D01*
X135867826Y-109982840D01*
X135830360Y-109985686D01*
X135797663Y-109991418D01*
X135790316Y-109989542D01*
X135766050Y-109983525D01*
X135732295Y-109978585D01*
X135725921Y-109977037D01*
X135720150Y-109976790D01*
X135675309Y-109967850D01*
X135658794Y-109967828D01*
X135642460Y-109965438D01*
X135596459Y-109967747D01*
X135550403Y-109967687D01*
X135534205Y-109970872D01*
X135517711Y-109971700D01*
X135473033Y-109982900D01*
X135427844Y-109991786D01*
X135419304Y-109994417D01*
X135382687Y-110005980D01*
X135347190Y-110021139D01*
X135310654Y-110033602D01*
X135302544Y-110037356D01*
X135259856Y-110057476D01*
X135228427Y-110042194D01*
X135196398Y-110023344D01*
X135172385Y-110014945D01*
X135149511Y-110003823D01*
X135113578Y-109994376D01*
X135078496Y-109982105D01*
X135069799Y-109980053D01*
X135034279Y-109971932D01*
X134977400Y-109964668D01*
X134920591Y-109956488D01*
X134915464Y-109956757D01*
X134910379Y-109956108D01*
X134853169Y-109960030D01*
X134795857Y-109963041D01*
X134790883Y-109964300D01*
X134785765Y-109964651D01*
X134730372Y-109979619D01*
X134674771Y-109993695D01*
X134674433Y-109993819D01*
X134638439Y-109989150D01*
X134588595Y-109980780D01*
X134576601Y-109981129D01*
X134564699Y-109979585D01*
X134514273Y-109982942D01*
X134463742Y-109984412D01*
X134454886Y-109985605D01*
X134416955Y-109990981D01*
X134396016Y-109996073D01*
X134374605Y-109998443D01*
X134335474Y-110010794D01*
X134295585Y-110020493D01*
X134276036Y-110029554D01*
X134255492Y-110036038D01*
X134250887Y-110038042D01*
X134209869Y-110020525D01*
X134165935Y-109999432D01*
X134157518Y-109996429D01*
X134157349Y-109996370D01*
X134154996Y-109995799D01*
X134152785Y-109994796D01*
X134145777Y-109993153D01*
X134139130Y-109990314D01*
X134087357Y-109979379D01*
X134035968Y-109966904D01*
X134033354Y-109966792D01*
X134031177Y-109966282D01*
X134024195Y-109966039D01*
X134016920Y-109964502D01*
X133964007Y-109963832D01*
X133911176Y-109961577D01*
X133908410Y-109962003D01*
X133906347Y-109961931D01*
X133899642Y-109963017D01*
X133892023Y-109962921D01*
X133840015Y-109972536D01*
X133787725Y-109980588D01*
X133784928Y-109981604D01*
X133783049Y-109981908D01*
X133776857Y-109984211D01*
X133769199Y-109985627D01*
X133760630Y-109988162D01*
X133733399Y-109996421D01*
X133709978Y-110006110D01*
X133685602Y-110013010D01*
X133652410Y-110029925D01*
X133617979Y-110044169D01*
X133596894Y-110058217D01*
X133574315Y-110069724D01*
X133566821Y-110074592D01*
X133523412Y-110103220D01*
X133502991Y-110119760D01*
X133492908Y-110126184D01*
X133486653Y-110120007D01*
X133480018Y-110115626D01*
X133474230Y-110110186D01*
X133428000Y-110081274D01*
X133382423Y-110051176D01*
X133375059Y-110048165D01*
X133368329Y-110043956D01*
X133317362Y-110024573D01*
X133266808Y-110003902D01*
X133259005Y-110002380D01*
X133251580Y-109999556D01*
X133197802Y-109990440D01*
X133144213Y-109979985D01*
X133136261Y-109980007D01*
X133128431Y-109978680D01*
X133073887Y-109980183D01*
X133019307Y-109980337D01*
X133011517Y-109981902D01*
X133003572Y-109982121D01*
X132950375Y-109994186D01*
X132896849Y-110004940D01*
X132888320Y-110007607D01*
X132772837Y-110044597D01*
X132770818Y-110045469D01*
X132768671Y-110045947D01*
X132760199Y-110048791D01*
X132694822Y-110071242D01*
X132648071Y-110092600D01*
X132581219Y-110123139D01*
X132573524Y-110127682D01*
X132537172Y-110149483D01*
X132507990Y-110171117D01*
X132477126Y-110190295D01*
X132457930Y-110208231D01*
X132436833Y-110223871D01*
X132412408Y-110250763D01*
X132385858Y-110275569D01*
X132370512Y-110296890D01*
X132362036Y-110306221D01*
X132334410Y-110286515D01*
X132329840Y-110283887D01*
X132325805Y-110280482D01*
X132318410Y-110275465D01*
X132221289Y-110210547D01*
X132215866Y-110207644D01*
X132211030Y-110203830D01*
X132203473Y-110199060D01*
X132113132Y-110142911D01*
X132103592Y-110138204D01*
X132094937Y-110132016D01*
X132087164Y-110127607D01*
X132011144Y-110085185D01*
X131987097Y-110074698D01*
X131964393Y-110061551D01*
X131956234Y-110057906D01*
X131902081Y-110034167D01*
X131899342Y-110033273D01*
X131896816Y-110031887D01*
X131839971Y-110013900D01*
X131836288Y-110012698D01*
X131826999Y-110008623D01*
X131817045Y-110006419D01*
X131783336Y-109995419D01*
X131780478Y-109995075D01*
X131777730Y-109994205D01*
X131768975Y-109992415D01*
X131752164Y-109989099D01*
X131728382Y-109986784D01*
X131705047Y-109981617D01*
X131666359Y-109980748D01*
X131627845Y-109977000D01*
X131604062Y-109979349D01*
X131580172Y-109978813D01*
X131542051Y-109985475D01*
X131503544Y-109989279D01*
X131480676Y-109996201D01*
X131457131Y-110000316D01*
X131448538Y-110002767D01*
X131407068Y-110014904D01*
X131402760Y-110016637D01*
X131398216Y-110017565D01*
X131344876Y-110039922D01*
X131291187Y-110061520D01*
X131287301Y-110064055D01*
X131283020Y-110065849D01*
X131275185Y-110070146D01*
X131220998Y-110100357D01*
X131193776Y-110119235D01*
X131164933Y-110135533D01*
X131157655Y-110140718D01*
X131103738Y-110179704D01*
X131075544Y-110204621D01*
X131045482Y-110227279D01*
X131038948Y-110233375D01*
X131013513Y-110257433D01*
X131010841Y-110256286D01*
X131010792Y-110256259D01*
X131010745Y-110256244D01*
X131010076Y-110255957D01*
X130999980Y-110251702D01*
X130984932Y-110233118D01*
X130960059Y-110207894D01*
X130937406Y-110180645D01*
X130916305Y-110163521D01*
X130897232Y-110144178D01*
X130867931Y-110124263D01*
X130840419Y-110101936D01*
X130816397Y-110089237D01*
X130793928Y-110073966D01*
X130761324Y-110060124D01*
X130729993Y-110043562D01*
X130721699Y-110040235D01*
X130696168Y-110030198D01*
X130680038Y-110025615D01*
X130678954Y-110025155D01*
X130676930Y-110024732D01*
X130664184Y-110021111D01*
X130633152Y-110009130D01*
X130604236Y-110004078D01*
X130576018Y-109996061D01*
X130542878Y-109993359D01*
X130510109Y-109987634D01*
X130480768Y-109988294D01*
X130451525Y-109985910D01*
X130418489Y-109989696D01*
X130385235Y-109990445D01*
X130376371Y-109991580D01*
X130333779Y-109997331D01*
X130302063Y-110004822D01*
X130269781Y-110009314D01*
X130261108Y-110011464D01*
X130217703Y-110022545D01*
X130188703Y-110033055D01*
X130158789Y-110040647D01*
X130150405Y-110043740D01*
X130073523Y-110072701D01*
X130027931Y-110095175D01*
X129981524Y-110115986D01*
X129971981Y-110122756D01*
X129961489Y-110127928D01*
X129921138Y-110158825D01*
X129879650Y-110188257D01*
X129872943Y-110194162D01*
X129824142Y-110237723D01*
X129816166Y-110246383D01*
X129806911Y-110253680D01*
X129773902Y-110292269D01*
X129739520Y-110329597D01*
X129733375Y-110339646D01*
X129725718Y-110348597D01*
X129700838Y-110392851D01*
X129674355Y-110436157D01*
X129670279Y-110447206D01*
X129664506Y-110457475D01*
X129660965Y-110465680D01*
X129632039Y-110534009D01*
X129631692Y-110535120D01*
X129631144Y-110536136D01*
X129613097Y-110594658D01*
X129594803Y-110653235D01*
X129594679Y-110654386D01*
X129594337Y-110655495D01*
X129592611Y-110664263D01*
X129589600Y-110680141D01*
X129589600Y-107732682D01*
X129590961Y-107724959D01*
X129589600Y-107662830D01*
X129589600Y-107635723D01*
X129588836Y-107627969D01*
X129587898Y-107585135D01*
X129581997Y-107558531D01*
X129579327Y-107531416D01*
X129566892Y-107490425D01*
X129557615Y-107448595D01*
X129546637Y-107423652D01*
X129538728Y-107397580D01*
X129518533Y-107359798D01*
X129501275Y-107320586D01*
X129485645Y-107298268D01*
X129472800Y-107274237D01*
X129445622Y-107241120D01*
X129421046Y-107206029D01*
X129401361Y-107187188D01*
X129384075Y-107166125D01*
X129350962Y-107138950D01*
X129334167Y-107122875D01*
X129441851Y-107090209D01*
X129552165Y-107031244D01*
X129648856Y-106951892D01*
X129728208Y-106855201D01*
X129787173Y-106744887D01*
X129823483Y-106625189D01*
X129835743Y-106500707D01*
X129835743Y-104700707D01*
X129823483Y-104576225D01*
X129787173Y-104456527D01*
X129728208Y-104346213D01*
X129648856Y-104249522D01*
X129552165Y-104170170D01*
X129441851Y-104111205D01*
X129423544Y-104105651D01*
X129489983Y-104039212D01*
X129657970Y-103787802D01*
X129773682Y-103508450D01*
X129832671Y-103211891D01*
X129832671Y-102909523D01*
X129773682Y-102612964D01*
X129657970Y-102333612D01*
X129517467Y-102123335D01*
X129848000Y-102453868D01*
X129848001Y-104479972D01*
X129843960Y-104521000D01*
X129860082Y-104684688D01*
X129907828Y-104842086D01*
X129985364Y-104987145D01*
X129985365Y-104987146D01*
X130089710Y-105114291D01*
X130121574Y-105140441D01*
X130952563Y-105971432D01*
X130978709Y-106003291D01*
X131010568Y-106029437D01*
X131010570Y-106029439D01*
X131105854Y-106107636D01*
X131250913Y-106185172D01*
X131408311Y-106232918D01*
X131572000Y-106249040D01*
X131613018Y-106245000D01*
X135975982Y-106245000D01*
X136017000Y-106249040D01*
X136058018Y-106245000D01*
X136058019Y-106245000D01*
X136180689Y-106232918D01*
X136338087Y-106185172D01*
X136483146Y-106107636D01*
X136610291Y-106003291D01*
X136636445Y-105971422D01*
X137312233Y-105295636D01*
X137344091Y-105269491D01*
X137389214Y-105214509D01*
X137448436Y-105142346D01*
X137525972Y-104997287D01*
X137573718Y-104839889D01*
X137589840Y-104676200D01*
X137585800Y-104635182D01*
X137585800Y-103929713D01*
X137645604Y-103840210D01*
X137719320Y-103662243D01*
X137756900Y-103473315D01*
X137756900Y-103280685D01*
X137719320Y-103091757D01*
X137645604Y-102913790D01*
X137538585Y-102753625D01*
X137402375Y-102617415D01*
X137242210Y-102510396D01*
X137064243Y-102436680D01*
X136875315Y-102399100D01*
X136682685Y-102399100D01*
X136493757Y-102436680D01*
X136315790Y-102510396D01*
X136155625Y-102617415D01*
X136019415Y-102753625D01*
X135912396Y-102913790D01*
X135838680Y-103091757D01*
X135801100Y-103280685D01*
X135801100Y-103473315D01*
X135838680Y-103662243D01*
X135912396Y-103840210D01*
X135915801Y-103845305D01*
X135915800Y-104330331D01*
X135671132Y-104575000D01*
X131917868Y-104575000D01*
X131518000Y-104175132D01*
X131518000Y-102149007D01*
X131522039Y-102107999D01*
X131518000Y-102066991D01*
X131518000Y-102066981D01*
X131505918Y-101944311D01*
X131458172Y-101786913D01*
X131380636Y-101641854D01*
X131276291Y-101514709D01*
X131244428Y-101488560D01*
X129734685Y-99978818D01*
X129657970Y-99793612D01*
X129489983Y-99542202D01*
X129276176Y-99328395D01*
X129159908Y-99250707D01*
X129276176Y-99173019D01*
X129489983Y-98959212D01*
X129585870Y-98815707D01*
X131162840Y-98815707D01*
X133915800Y-101568669D01*
X133915801Y-102860803D01*
X133880396Y-102913790D01*
X133806680Y-103091757D01*
X133769100Y-103280685D01*
X133769100Y-103473315D01*
X133806680Y-103662243D01*
X133880396Y-103840210D01*
X133987415Y-104000375D01*
X134123625Y-104136585D01*
X134283790Y-104243604D01*
X134461757Y-104317320D01*
X134650685Y-104354900D01*
X134843315Y-104354900D01*
X135032243Y-104317320D01*
X135210210Y-104243604D01*
X135370375Y-104136585D01*
X135506585Y-104000375D01*
X135613604Y-103840210D01*
X135687320Y-103662243D01*
X135724900Y-103473315D01*
X135724900Y-103280685D01*
X135687320Y-103091757D01*
X135613604Y-102913790D01*
X135585800Y-102872178D01*
X135585800Y-101263818D01*
X135589840Y-101222800D01*
X135573718Y-101059111D01*
X135525972Y-100901713D01*
X135448436Y-100756654D01*
X135370239Y-100661370D01*
X135370237Y-100661368D01*
X135344091Y-100629509D01*
X135312233Y-100603364D01*
X132128153Y-97419286D01*
X132101998Y-97387416D01*
X131974853Y-97283071D01*
X131829794Y-97205535D01*
X131672396Y-97157789D01*
X131549726Y-97145707D01*
X131549725Y-97145707D01*
X131508707Y-97141667D01*
X131467689Y-97145707D01*
X129585870Y-97145707D01*
X129489983Y-97002202D01*
X129276176Y-96788395D01*
X129159908Y-96710707D01*
X129276176Y-96633019D01*
X129489983Y-96419212D01*
X129585870Y-96275707D01*
X131391440Y-96275707D01*
X137976000Y-102860269D01*
X137976000Y-102930492D01*
X137944396Y-102977791D01*
X137870680Y-103155758D01*
X137833100Y-103344686D01*
X137833100Y-103537316D01*
X137870680Y-103726244D01*
X137944396Y-103904211D01*
X138051415Y-104064376D01*
X138187625Y-104200586D01*
X138347790Y-104307605D01*
X138525757Y-104381321D01*
X138714685Y-104418901D01*
X138907315Y-104418901D01*
X139096243Y-104381321D01*
X139274210Y-104307605D01*
X139434375Y-104200586D01*
X139570585Y-104064376D01*
X139677604Y-103904211D01*
X139751320Y-103726244D01*
X139788900Y-103537316D01*
X139788900Y-103344686D01*
X139751320Y-103155758D01*
X139677604Y-102977791D01*
X139646000Y-102930492D01*
X139646000Y-102555418D01*
X139650040Y-102514400D01*
X139646000Y-102473381D01*
X139633918Y-102350711D01*
X139586172Y-102193313D01*
X139508636Y-102048254D01*
X139404291Y-101921109D01*
X139372433Y-101894964D01*
X132356753Y-94879286D01*
X132330598Y-94847416D01*
X132203453Y-94743071D01*
X132058394Y-94665535D01*
X131900996Y-94617789D01*
X131778326Y-94605707D01*
X131778325Y-94605707D01*
X131737307Y-94601667D01*
X131696289Y-94605707D01*
X129585870Y-94605707D01*
X129489983Y-94462202D01*
X129276176Y-94248395D01*
X129159908Y-94170707D01*
X129276176Y-94093019D01*
X129489983Y-93879212D01*
X129585870Y-93735707D01*
X131899441Y-93735707D01*
X139717309Y-101553577D01*
X139746175Y-101698698D01*
X139824196Y-101887056D01*
X139937464Y-102056574D01*
X140081627Y-102200737D01*
X140251145Y-102314005D01*
X140439503Y-102392026D01*
X140639462Y-102431800D01*
X140843340Y-102431800D01*
X141043299Y-102392026D01*
X141231657Y-102314005D01*
X141401175Y-102200737D01*
X141545338Y-102056574D01*
X141658606Y-101887056D01*
X141736627Y-101698698D01*
X141776401Y-101498739D01*
X141776401Y-101294861D01*
X141736627Y-101094902D01*
X141658606Y-100906544D01*
X141545338Y-100737026D01*
X141401175Y-100592863D01*
X141231657Y-100479595D01*
X141043299Y-100401574D01*
X140898178Y-100372708D01*
X132864754Y-92339286D01*
X132838599Y-92307416D01*
X132711454Y-92203071D01*
X132566395Y-92125535D01*
X132408997Y-92077789D01*
X132286327Y-92065707D01*
X132286326Y-92065707D01*
X132245308Y-92061667D01*
X132204290Y-92065707D01*
X129585870Y-92065707D01*
X129489983Y-91922202D01*
X129276176Y-91708395D01*
X129159908Y-91630707D01*
X129276176Y-91553019D01*
X129489983Y-91339212D01*
X129657970Y-91087802D01*
X129773682Y-90808450D01*
X129832671Y-90511891D01*
X129832671Y-90209523D01*
X129773682Y-89912964D01*
X129657970Y-89633612D01*
X129489983Y-89382202D01*
X129276176Y-89168395D01*
X129159908Y-89090707D01*
X129276176Y-89013019D01*
X129489983Y-88799212D01*
X129543579Y-88719000D01*
X129872405Y-88719000D01*
X141986660Y-100833256D01*
G37*
X141986660Y-100833256D02*
X141986661Y-102872570D01*
X141955056Y-102919870D01*
X141881340Y-103097837D01*
X141843760Y-103286765D01*
X141843760Y-103479395D01*
X141881340Y-103668323D01*
X141955056Y-103846290D01*
X142062075Y-104006455D01*
X142198285Y-104142665D01*
X142358450Y-104249684D01*
X142536417Y-104323400D01*
X142725345Y-104360980D01*
X142824861Y-104360980D01*
X142824861Y-107473822D01*
X142757895Y-107574044D01*
X142679874Y-107762402D01*
X142640100Y-107962361D01*
X142640100Y-108166239D01*
X142679874Y-108366198D01*
X142757895Y-108554556D01*
X142871163Y-108724074D01*
X143015326Y-108868237D01*
X143184844Y-108981505D01*
X143373202Y-109059526D01*
X143573161Y-109099300D01*
X143777039Y-109099300D01*
X143976998Y-109059526D01*
X144165356Y-108981505D01*
X144334874Y-108868237D01*
X144479037Y-108724074D01*
X144592305Y-108554556D01*
X144670326Y-108366198D01*
X144710100Y-108166239D01*
X144710100Y-107962361D01*
X144670326Y-107762402D01*
X144592305Y-107574044D01*
X144494860Y-107428207D01*
X144494860Y-106056807D01*
X147805801Y-109367749D01*
X147805801Y-109668334D01*
X147694168Y-109742925D01*
X147487325Y-109949768D01*
X147370800Y-110124160D01*
X147254275Y-109949768D01*
X147047432Y-109742925D01*
X146804211Y-109580410D01*
X146533958Y-109468468D01*
X146247060Y-109411400D01*
X145954540Y-109411400D01*
X145667642Y-109468468D01*
X145397389Y-109580410D01*
X145154168Y-109742925D01*
X144947325Y-109949768D01*
X144830800Y-110124160D01*
X144714275Y-109949768D01*
X144507432Y-109742925D01*
X144264211Y-109580410D01*
X143993958Y-109468468D01*
X143707060Y-109411400D01*
X143414540Y-109411400D01*
X143127642Y-109468468D01*
X142857389Y-109580410D01*
X142614168Y-109742925D01*
X142407325Y-109949768D01*
X142244810Y-110192989D01*
X142132868Y-110463242D01*
X142075800Y-110750140D01*
X142075800Y-111042660D01*
X142132868Y-111329558D01*
X142244810Y-111599811D01*
X142407325Y-111843032D01*
X142614168Y-112049875D01*
X142857389Y-112212390D01*
X143127642Y-112324332D01*
X143414540Y-112381400D01*
X143707060Y-112381400D01*
X143993958Y-112324332D01*
X144264211Y-112212390D01*
X144507432Y-112049875D01*
X144714275Y-111843032D01*
X144830800Y-111668640D01*
X144947325Y-111843032D01*
X145154168Y-112049875D01*
X145397389Y-112212390D01*
X145667642Y-112324332D01*
X145954540Y-112381400D01*
X146247060Y-112381400D01*
X146533958Y-112324332D01*
X146804211Y-112212390D01*
X147047432Y-112049875D01*
X147254275Y-111843032D01*
X147370800Y-111668640D01*
X147487325Y-111843032D01*
X147694168Y-112049875D01*
X147937389Y-112212390D01*
X148207642Y-112324332D01*
X148494540Y-112381400D01*
X148787060Y-112381400D01*
X149073958Y-112324332D01*
X149344211Y-112212390D01*
X149587432Y-112049875D01*
X149794275Y-111843032D01*
X149910800Y-111668640D01*
X150027325Y-111843032D01*
X150234168Y-112049875D01*
X150477389Y-112212390D01*
X150747642Y-112324332D01*
X151034540Y-112381400D01*
X151327060Y-112381400D01*
X151613958Y-112324332D01*
X151884211Y-112212390D01*
X151918600Y-112189412D01*
X151918600Y-113742400D01*
X144270800Y-113742400D01*
X144270800Y-113293477D01*
X144274235Y-113258600D01*
X144260527Y-113119416D01*
X144219928Y-112985580D01*
X144154000Y-112862237D01*
X144065275Y-112754125D01*
X143957163Y-112665400D01*
X143833820Y-112599472D01*
X143699984Y-112558873D01*
X143560800Y-112545165D01*
X143525923Y-112548600D01*
X137434471Y-112548600D01*
X137517748Y-112524512D01*
X137539536Y-112515827D01*
X137562232Y-112509862D01*
X137570590Y-112506699D01*
X137697986Y-112457473D01*
X137730369Y-112473723D01*
X137770416Y-112489134D01*
X137809448Y-112506973D01*
X137828584Y-112511518D01*
X137846942Y-112518583D01*
X137889225Y-112525923D01*
X137930973Y-112535839D01*
X137950630Y-112536581D01*
X137970008Y-112539945D01*
X138012898Y-112538933D01*
X138055789Y-112540553D01*
X138064706Y-112539954D01*
X138134938Y-112534750D01*
X138192116Y-112524835D01*
X138249407Y-112515719D01*
X138253598Y-112514174D01*
X138258008Y-112513409D01*
X138312139Y-112492589D01*
X138366600Y-112472508D01*
X138374615Y-112468556D01*
X138407712Y-112451953D01*
X138457035Y-112420844D01*
X138506780Y-112390362D01*
X138509838Y-112387540D01*
X138513360Y-112385319D01*
X138541620Y-112358557D01*
X138585291Y-112370885D01*
X138587088Y-112371207D01*
X138588793Y-112371863D01*
X138597423Y-112374181D01*
X138843408Y-112438429D01*
X138853504Y-112440035D01*
X138863203Y-112443264D01*
X138871930Y-112445185D01*
X139083392Y-112490185D01*
X139099686Y-112492017D01*
X139115550Y-112496174D01*
X139124384Y-112497523D01*
X139300664Y-112523192D01*
X139328215Y-112524484D01*
X139355462Y-112528776D01*
X139364387Y-112529236D01*
X139504830Y-112535496D01*
X139555005Y-112532825D01*
X139605267Y-112532076D01*
X139614139Y-112531009D01*
X139718088Y-112517778D01*
X139726016Y-112515969D01*
X139734128Y-112515529D01*
X139786838Y-112502090D01*
X139839864Y-112489990D01*
X139847281Y-112486679D01*
X139855162Y-112484670D01*
X139863542Y-112481568D01*
X139905098Y-112465862D01*
X139923638Y-112456697D01*
X139943225Y-112450029D01*
X139979519Y-112429075D01*
X140017071Y-112410512D01*
X140033476Y-112397922D01*
X140051396Y-112387576D01*
X140058626Y-112382323D01*
X140165834Y-112303281D01*
X140186746Y-112284451D01*
X140209552Y-112267983D01*
X140233043Y-112242763D01*
X140258656Y-112219701D01*
X140275505Y-112197178D01*
X140294686Y-112176586D01*
X140300060Y-112169445D01*
X140380915Y-112060445D01*
X140390856Y-112043880D01*
X140402937Y-112028808D01*
X140422927Y-111990434D01*
X140445185Y-111953343D01*
X140451716Y-111935171D01*
X140460644Y-111918032D01*
X140463921Y-111909718D01*
X140515551Y-111776029D01*
X140518321Y-111766050D01*
X140522672Y-111756664D01*
X140535003Y-111705963D01*
X140548965Y-111655674D01*
X140549744Y-111645355D01*
X140552190Y-111635297D01*
X140553382Y-111626440D01*
X140572912Y-111473328D01*
X140573671Y-111447275D01*
X140577357Y-111421975D01*
X140577074Y-111416404D01*
X140577791Y-111410765D01*
X140577986Y-111401830D01*
X140577992Y-111401425D01*
X140575782Y-111374835D01*
X140576550Y-111348475D01*
X140572348Y-111323447D01*
X140571015Y-111297230D01*
X140569631Y-111288402D01*
X140552382Y-111183197D01*
X140548712Y-111169413D01*
X140547157Y-111155235D01*
X140532666Y-111109155D01*
X140520242Y-111062496D01*
X140513968Y-111049695D01*
X140509687Y-111036082D01*
X140506129Y-111027885D01*
X140453979Y-110909965D01*
X140429971Y-110867457D01*
X140407807Y-110823965D01*
X140402940Y-110816471D01*
X140319702Y-110690255D01*
X140298093Y-110663574D01*
X140278928Y-110635105D01*
X140273190Y-110628254D01*
X140162674Y-110498157D01*
X140143332Y-110479445D01*
X140126183Y-110458686D01*
X140119802Y-110452430D01*
X139985821Y-110322871D01*
X139967441Y-110308283D01*
X139950970Y-110291555D01*
X139944069Y-110285878D01*
X139790433Y-110161275D01*
X139771622Y-110148851D01*
X139754499Y-110134168D01*
X139747144Y-110129092D01*
X139577665Y-110013860D01*
X139567792Y-110008474D01*
X139558902Y-110001577D01*
X139551308Y-109996868D01*
X139525947Y-109981384D01*
X139446540Y-109932814D01*
X139381327Y-109891635D01*
X139341793Y-109865534D01*
X139333984Y-109859947D01*
X139302282Y-109841659D01*
X139272161Y-109820857D01*
X139264317Y-109816576D01*
X139217420Y-109791400D01*
X139205161Y-109786290D01*
X139193842Y-109779365D01*
X139147625Y-109762307D01*
X139102129Y-109743342D01*
X139089117Y-109740712D01*
X139076663Y-109736115D01*
X139068002Y-109733914D01*
X139017772Y-109721522D01*
X138989750Y-109717455D01*
X138962328Y-109710417D01*
X138928095Y-109708506D01*
X138894161Y-109703581D01*
X138865887Y-109705034D01*
X138837617Y-109703456D01*
X138828691Y-109703893D01*
X138789408Y-109706093D01*
X138788390Y-109706251D01*
X138787360Y-109706211D01*
X138726604Y-109715822D01*
X138665974Y-109725214D01*
X138665008Y-109725566D01*
X138663988Y-109725727D01*
X138606078Y-109747021D01*
X138548604Y-109767946D01*
X138547728Y-109768477D01*
X138546756Y-109768834D01*
X138494256Y-109800867D01*
X138441770Y-109832660D01*
X138441007Y-109833357D01*
X138440130Y-109833892D01*
X138394910Y-109875458D01*
X138379939Y-109889131D01*
X138374227Y-109892763D01*
X138316343Y-109930134D01*
X138284043Y-109955778D01*
X138250118Y-109979209D01*
X138235242Y-109994523D01*
X138218519Y-110007800D01*
X138191821Y-110039222D01*
X138163087Y-110068802D01*
X138161815Y-110070420D01*
X138135877Y-110039931D01*
X138101851Y-110007060D01*
X138069419Y-109972601D01*
X138062647Y-109966770D01*
X137978191Y-109895059D01*
X137965790Y-109886461D01*
X137954794Y-109876121D01*
X137914545Y-109850932D01*
X137875543Y-109823891D01*
X137861711Y-109817867D01*
X137848914Y-109809858D01*
X137840884Y-109805935D01*
X137764197Y-109769128D01*
X137732726Y-109757649D01*
X137702433Y-109743365D01*
X137674200Y-109736302D01*
X137646853Y-109726327D01*
X137613756Y-109721180D01*
X137581262Y-109713051D01*
X137572414Y-109711801D01*
X137540545Y-109707522D01*
X137487788Y-109705638D01*
X137435144Y-109702154D01*
X137425472Y-109703412D01*
X137415718Y-109703064D01*
X137363631Y-109711458D01*
X137311282Y-109718269D01*
X137302590Y-109720343D01*
X137223940Y-109739681D01*
X137188650Y-109752118D01*
X137152491Y-109761747D01*
X137129885Y-109772827D01*
X137106135Y-109781197D01*
X137073932Y-109800252D01*
X137040334Y-109816720D01*
X137032765Y-109821470D01*
X136949426Y-109874586D01*
X136902918Y-109911068D01*
X136856120Y-109946976D01*
X136851246Y-109951602D01*
X136851149Y-109951678D01*
X136851075Y-109951765D01*
X136849638Y-109953128D01*
X136766971Y-110032677D01*
X136739937Y-110064329D01*
X136710894Y-110094145D01*
X136705363Y-110101163D01*
X136695906Y-110113334D01*
X136661366Y-110103960D01*
X136655416Y-110102955D01*
X136649731Y-110100919D01*
X136641049Y-110098802D01*
X136519786Y-110070121D01*
X136515150Y-110069494D01*
X136510689Y-110068038D01*
X136501950Y-110066170D01*
X136375235Y-110039994D01*
X136369731Y-110039409D01*
X136364413Y-110037855D01*
X136355621Y-110036260D01*
X136232550Y-110014816D01*
X136227684Y-110014452D01*
X136222961Y-110013220D01*
X136214125Y-110011882D01*
X136158703Y-110003882D01*
X136157510Y-110003828D01*
X136156346Y-110003546D01*
X136147488Y-110002364D01*
X136056020Y-109990808D01*
X136045787Y-109990522D01*
X136035741Y-109988574D01*
X136026839Y-109987799D01*
X135967340Y-109983039D01*
X135922032Y-109983851D01*
X135876741Y-109982224D01*
X135867826Y-109982840D01*
X135830360Y-109985686D01*
X135797663Y-109991418D01*
X135790316Y-109989542D01*
X135766050Y-109983525D01*
X135732295Y-109978585D01*
X135725921Y-109977037D01*
X135720150Y-109976790D01*
X135675309Y-109967850D01*
X135658794Y-109967828D01*
X135642460Y-109965438D01*
X135596459Y-109967747D01*
X135550403Y-109967687D01*
X135534205Y-109970872D01*
X135517711Y-109971700D01*
X135473033Y-109982900D01*
X135427844Y-109991786D01*
X135419304Y-109994417D01*
X135382687Y-110005980D01*
X135347190Y-110021139D01*
X135310654Y-110033602D01*
X135302544Y-110037356D01*
X135259856Y-110057476D01*
X135228427Y-110042194D01*
X135196398Y-110023344D01*
X135172385Y-110014945D01*
X135149511Y-110003823D01*
X135113578Y-109994376D01*
X135078496Y-109982105D01*
X135069799Y-109980053D01*
X135034279Y-109971932D01*
X134977400Y-109964668D01*
X134920591Y-109956488D01*
X134915464Y-109956757D01*
X134910379Y-109956108D01*
X134853169Y-109960030D01*
X134795857Y-109963041D01*
X134790883Y-109964300D01*
X134785765Y-109964651D01*
X134730372Y-109979619D01*
X134674771Y-109993695D01*
X134674433Y-109993819D01*
X134638439Y-109989150D01*
X134588595Y-109980780D01*
X134576601Y-109981129D01*
X134564699Y-109979585D01*
X134514273Y-109982942D01*
X134463742Y-109984412D01*
X134454886Y-109985605D01*
X134416955Y-109990981D01*
X134396016Y-109996073D01*
X134374605Y-109998443D01*
X134335474Y-110010794D01*
X134295585Y-110020493D01*
X134276036Y-110029554D01*
X134255492Y-110036038D01*
X134250887Y-110038042D01*
X134209869Y-110020525D01*
X134165935Y-109999432D01*
X134157518Y-109996429D01*
X134157349Y-109996370D01*
X134154996Y-109995799D01*
X134152785Y-109994796D01*
X134145777Y-109993153D01*
X134139130Y-109990314D01*
X134087357Y-109979379D01*
X134035968Y-109966904D01*
X134033354Y-109966792D01*
X134031177Y-109966282D01*
X134024195Y-109966039D01*
X134016920Y-109964502D01*
X133964007Y-109963832D01*
X133911176Y-109961577D01*
X133908410Y-109962003D01*
X133906347Y-109961931D01*
X133899642Y-109963017D01*
X133892023Y-109962921D01*
X133840015Y-109972536D01*
X133787725Y-109980588D01*
X133784928Y-109981604D01*
X133783049Y-109981908D01*
X133776857Y-109984211D01*
X133769199Y-109985627D01*
X133760630Y-109988162D01*
X133733399Y-109996421D01*
X133709978Y-110006110D01*
X133685602Y-110013010D01*
X133652410Y-110029925D01*
X133617979Y-110044169D01*
X133596894Y-110058217D01*
X133574315Y-110069724D01*
X133566821Y-110074592D01*
X133523412Y-110103220D01*
X133502991Y-110119760D01*
X133492908Y-110126184D01*
X133486653Y-110120007D01*
X133480018Y-110115626D01*
X133474230Y-110110186D01*
X133428000Y-110081274D01*
X133382423Y-110051176D01*
X133375059Y-110048165D01*
X133368329Y-110043956D01*
X133317362Y-110024573D01*
X133266808Y-110003902D01*
X133259005Y-110002380D01*
X133251580Y-109999556D01*
X133197802Y-109990440D01*
X133144213Y-109979985D01*
X133136261Y-109980007D01*
X133128431Y-109978680D01*
X133073887Y-109980183D01*
X133019307Y-109980337D01*
X133011517Y-109981902D01*
X133003572Y-109982121D01*
X132950375Y-109994186D01*
X132896849Y-110004940D01*
X132888320Y-110007607D01*
X132772837Y-110044597D01*
X132770818Y-110045469D01*
X132768671Y-110045947D01*
X132760199Y-110048791D01*
X132694822Y-110071242D01*
X132648071Y-110092600D01*
X132581219Y-110123139D01*
X132573524Y-110127682D01*
X132537172Y-110149483D01*
X132507990Y-110171117D01*
X132477126Y-110190295D01*
X132457930Y-110208231D01*
X132436833Y-110223871D01*
X132412408Y-110250763D01*
X132385858Y-110275569D01*
X132370512Y-110296890D01*
X132362036Y-110306221D01*
X132334410Y-110286515D01*
X132329840Y-110283887D01*
X132325805Y-110280482D01*
X132318410Y-110275465D01*
X132221289Y-110210547D01*
X132215866Y-110207644D01*
X132211030Y-110203830D01*
X132203473Y-110199060D01*
X132113132Y-110142911D01*
X132103592Y-110138204D01*
X132094937Y-110132016D01*
X132087164Y-110127607D01*
X132011144Y-110085185D01*
X131987097Y-110074698D01*
X131964393Y-110061551D01*
X131956234Y-110057906D01*
X131902081Y-110034167D01*
X131899342Y-110033273D01*
X131896816Y-110031887D01*
X131839971Y-110013900D01*
X131836288Y-110012698D01*
X131826999Y-110008623D01*
X131817045Y-110006419D01*
X131783336Y-109995419D01*
X131780478Y-109995075D01*
X131777730Y-109994205D01*
X131768975Y-109992415D01*
X131752164Y-109989099D01*
X131728382Y-109986784D01*
X131705047Y-109981617D01*
X131666359Y-109980748D01*
X131627845Y-109977000D01*
X131604062Y-109979349D01*
X131580172Y-109978813D01*
X131542051Y-109985475D01*
X131503544Y-109989279D01*
X131480676Y-109996201D01*
X131457131Y-110000316D01*
X131448538Y-110002767D01*
X131407068Y-110014904D01*
X131402760Y-110016637D01*
X131398216Y-110017565D01*
X131344876Y-110039922D01*
X131291187Y-110061520D01*
X131287301Y-110064055D01*
X131283020Y-110065849D01*
X131275185Y-110070146D01*
X131220998Y-110100357D01*
X131193776Y-110119235D01*
X131164933Y-110135533D01*
X131157655Y-110140718D01*
X131103738Y-110179704D01*
X131075544Y-110204621D01*
X131045482Y-110227279D01*
X131038948Y-110233375D01*
X131013513Y-110257433D01*
X131010841Y-110256286D01*
X131010792Y-110256259D01*
X131010745Y-110256244D01*
X131010076Y-110255957D01*
X130999980Y-110251702D01*
X130984932Y-110233118D01*
X130960059Y-110207894D01*
X130937406Y-110180645D01*
X130916305Y-110163521D01*
X130897232Y-110144178D01*
X130867931Y-110124263D01*
X130840419Y-110101936D01*
X130816397Y-110089237D01*
X130793928Y-110073966D01*
X130761324Y-110060124D01*
X130729993Y-110043562D01*
X130721699Y-110040235D01*
X130696168Y-110030198D01*
X130680038Y-110025615D01*
X130678954Y-110025155D01*
X130676930Y-110024732D01*
X130664184Y-110021111D01*
X130633152Y-110009130D01*
X130604236Y-110004078D01*
X130576018Y-109996061D01*
X130542878Y-109993359D01*
X130510109Y-109987634D01*
X130480768Y-109988294D01*
X130451525Y-109985910D01*
X130418489Y-109989696D01*
X130385235Y-109990445D01*
X130376371Y-109991580D01*
X130333779Y-109997331D01*
X130302063Y-110004822D01*
X130269781Y-110009314D01*
X130261108Y-110011464D01*
X130217703Y-110022545D01*
X130188703Y-110033055D01*
X130158789Y-110040647D01*
X130150405Y-110043740D01*
X130073523Y-110072701D01*
X130027931Y-110095175D01*
X129981524Y-110115986D01*
X129971981Y-110122756D01*
X129961489Y-110127928D01*
X129921138Y-110158825D01*
X129879650Y-110188257D01*
X129872943Y-110194162D01*
X129824142Y-110237723D01*
X129816166Y-110246383D01*
X129806911Y-110253680D01*
X129773902Y-110292269D01*
X129739520Y-110329597D01*
X129733375Y-110339646D01*
X129725718Y-110348597D01*
X129700838Y-110392851D01*
X129674355Y-110436157D01*
X129670279Y-110447206D01*
X129664506Y-110457475D01*
X129660965Y-110465680D01*
X129632039Y-110534009D01*
X129631692Y-110535120D01*
X129631144Y-110536136D01*
X129613097Y-110594658D01*
X129594803Y-110653235D01*
X129594679Y-110654386D01*
X129594337Y-110655495D01*
X129592611Y-110664263D01*
X129589600Y-110680141D01*
X129589600Y-107732682D01*
X129590961Y-107724959D01*
X129589600Y-107662830D01*
X129589600Y-107635723D01*
X129588836Y-107627969D01*
X129587898Y-107585135D01*
X129581997Y-107558531D01*
X129579327Y-107531416D01*
X129566892Y-107490425D01*
X129557615Y-107448595D01*
X129546637Y-107423652D01*
X129538728Y-107397580D01*
X129518533Y-107359798D01*
X129501275Y-107320586D01*
X129485645Y-107298268D01*
X129472800Y-107274237D01*
X129445622Y-107241120D01*
X129421046Y-107206029D01*
X129401361Y-107187188D01*
X129384075Y-107166125D01*
X129350962Y-107138950D01*
X129334167Y-107122875D01*
X129441851Y-107090209D01*
X129552165Y-107031244D01*
X129648856Y-106951892D01*
X129728208Y-106855201D01*
X129787173Y-106744887D01*
X129823483Y-106625189D01*
X129835743Y-106500707D01*
X129835743Y-104700707D01*
X129823483Y-104576225D01*
X129787173Y-104456527D01*
X129728208Y-104346213D01*
X129648856Y-104249522D01*
X129552165Y-104170170D01*
X129441851Y-104111205D01*
X129423544Y-104105651D01*
X129489983Y-104039212D01*
X129657970Y-103787802D01*
X129773682Y-103508450D01*
X129832671Y-103211891D01*
X129832671Y-102909523D01*
X129773682Y-102612964D01*
X129657970Y-102333612D01*
X129517467Y-102123335D01*
X129848000Y-102453868D01*
X129848001Y-104479972D01*
X129843960Y-104521000D01*
X129860082Y-104684688D01*
X129907828Y-104842086D01*
X129985364Y-104987145D01*
X129985365Y-104987146D01*
X130089710Y-105114291D01*
X130121574Y-105140441D01*
X130952563Y-105971432D01*
X130978709Y-106003291D01*
X131010568Y-106029437D01*
X131010570Y-106029439D01*
X131105854Y-106107636D01*
X131250913Y-106185172D01*
X131408311Y-106232918D01*
X131572000Y-106249040D01*
X131613018Y-106245000D01*
X135975982Y-106245000D01*
X136017000Y-106249040D01*
X136058018Y-106245000D01*
X136058019Y-106245000D01*
X136180689Y-106232918D01*
X136338087Y-106185172D01*
X136483146Y-106107636D01*
X136610291Y-106003291D01*
X136636445Y-105971422D01*
X137312233Y-105295636D01*
X137344091Y-105269491D01*
X137389214Y-105214509D01*
X137448436Y-105142346D01*
X137525972Y-104997287D01*
X137573718Y-104839889D01*
X137589840Y-104676200D01*
X137585800Y-104635182D01*
X137585800Y-103929713D01*
X137645604Y-103840210D01*
X137719320Y-103662243D01*
X137756900Y-103473315D01*
X137756900Y-103280685D01*
X137719320Y-103091757D01*
X137645604Y-102913790D01*
X137538585Y-102753625D01*
X137402375Y-102617415D01*
X137242210Y-102510396D01*
X137064243Y-102436680D01*
X136875315Y-102399100D01*
X136682685Y-102399100D01*
X136493757Y-102436680D01*
X136315790Y-102510396D01*
X136155625Y-102617415D01*
X136019415Y-102753625D01*
X135912396Y-102913790D01*
X135838680Y-103091757D01*
X135801100Y-103280685D01*
X135801100Y-103473315D01*
X135838680Y-103662243D01*
X135912396Y-103840210D01*
X135915801Y-103845305D01*
X135915800Y-104330331D01*
X135671132Y-104575000D01*
X131917868Y-104575000D01*
X131518000Y-104175132D01*
X131518000Y-102149007D01*
X131522039Y-102107999D01*
X131518000Y-102066991D01*
X131518000Y-102066981D01*
X131505918Y-101944311D01*
X131458172Y-101786913D01*
X131380636Y-101641854D01*
X131276291Y-101514709D01*
X131244428Y-101488560D01*
X129734685Y-99978818D01*
X129657970Y-99793612D01*
X129489983Y-99542202D01*
X129276176Y-99328395D01*
X129159908Y-99250707D01*
X129276176Y-99173019D01*
X129489983Y-98959212D01*
X129585870Y-98815707D01*
X131162840Y-98815707D01*
X133915800Y-101568669D01*
X133915801Y-102860803D01*
X133880396Y-102913790D01*
X133806680Y-103091757D01*
X133769100Y-103280685D01*
X133769100Y-103473315D01*
X133806680Y-103662243D01*
X133880396Y-103840210D01*
X133987415Y-104000375D01*
X134123625Y-104136585D01*
X134283790Y-104243604D01*
X134461757Y-104317320D01*
X134650685Y-104354900D01*
X134843315Y-104354900D01*
X135032243Y-104317320D01*
X135210210Y-104243604D01*
X135370375Y-104136585D01*
X135506585Y-104000375D01*
X135613604Y-103840210D01*
X135687320Y-103662243D01*
X135724900Y-103473315D01*
X135724900Y-103280685D01*
X135687320Y-103091757D01*
X135613604Y-102913790D01*
X135585800Y-102872178D01*
X135585800Y-101263818D01*
X135589840Y-101222800D01*
X135573718Y-101059111D01*
X135525972Y-100901713D01*
X135448436Y-100756654D01*
X135370239Y-100661370D01*
X135370237Y-100661368D01*
X135344091Y-100629509D01*
X135312233Y-100603364D01*
X132128153Y-97419286D01*
X132101998Y-97387416D01*
X131974853Y-97283071D01*
X131829794Y-97205535D01*
X131672396Y-97157789D01*
X131549726Y-97145707D01*
X131549725Y-97145707D01*
X131508707Y-97141667D01*
X131467689Y-97145707D01*
X129585870Y-97145707D01*
X129489983Y-97002202D01*
X129276176Y-96788395D01*
X129159908Y-96710707D01*
X129276176Y-96633019D01*
X129489983Y-96419212D01*
X129585870Y-96275707D01*
X131391440Y-96275707D01*
X137976000Y-102860269D01*
X137976000Y-102930492D01*
X137944396Y-102977791D01*
X137870680Y-103155758D01*
X137833100Y-103344686D01*
X137833100Y-103537316D01*
X137870680Y-103726244D01*
X137944396Y-103904211D01*
X138051415Y-104064376D01*
X138187625Y-104200586D01*
X138347790Y-104307605D01*
X138525757Y-104381321D01*
X138714685Y-104418901D01*
X138907315Y-104418901D01*
X139096243Y-104381321D01*
X139274210Y-104307605D01*
X139434375Y-104200586D01*
X139570585Y-104064376D01*
X139677604Y-103904211D01*
X139751320Y-103726244D01*
X139788900Y-103537316D01*
X139788900Y-103344686D01*
X139751320Y-103155758D01*
X139677604Y-102977791D01*
X139646000Y-102930492D01*
X139646000Y-102555418D01*
X139650040Y-102514400D01*
X139646000Y-102473381D01*
X139633918Y-102350711D01*
X139586172Y-102193313D01*
X139508636Y-102048254D01*
X139404291Y-101921109D01*
X139372433Y-101894964D01*
X132356753Y-94879286D01*
X132330598Y-94847416D01*
X132203453Y-94743071D01*
X132058394Y-94665535D01*
X131900996Y-94617789D01*
X131778326Y-94605707D01*
X131778325Y-94605707D01*
X131737307Y-94601667D01*
X131696289Y-94605707D01*
X129585870Y-94605707D01*
X129489983Y-94462202D01*
X129276176Y-94248395D01*
X129159908Y-94170707D01*
X129276176Y-94093019D01*
X129489983Y-93879212D01*
X129585870Y-93735707D01*
X131899441Y-93735707D01*
X139717309Y-101553577D01*
X139746175Y-101698698D01*
X139824196Y-101887056D01*
X139937464Y-102056574D01*
X140081627Y-102200737D01*
X140251145Y-102314005D01*
X140439503Y-102392026D01*
X140639462Y-102431800D01*
X140843340Y-102431800D01*
X141043299Y-102392026D01*
X141231657Y-102314005D01*
X141401175Y-102200737D01*
X141545338Y-102056574D01*
X141658606Y-101887056D01*
X141736627Y-101698698D01*
X141776401Y-101498739D01*
X141776401Y-101294861D01*
X141736627Y-101094902D01*
X141658606Y-100906544D01*
X141545338Y-100737026D01*
X141401175Y-100592863D01*
X141231657Y-100479595D01*
X141043299Y-100401574D01*
X140898178Y-100372708D01*
X132864754Y-92339286D01*
X132838599Y-92307416D01*
X132711454Y-92203071D01*
X132566395Y-92125535D01*
X132408997Y-92077789D01*
X132286327Y-92065707D01*
X132286326Y-92065707D01*
X132245308Y-92061667D01*
X132204290Y-92065707D01*
X129585870Y-92065707D01*
X129489983Y-91922202D01*
X129276176Y-91708395D01*
X129159908Y-91630707D01*
X129276176Y-91553019D01*
X129489983Y-91339212D01*
X129657970Y-91087802D01*
X129773682Y-90808450D01*
X129832671Y-90511891D01*
X129832671Y-90209523D01*
X129773682Y-89912964D01*
X129657970Y-89633612D01*
X129489983Y-89382202D01*
X129276176Y-89168395D01*
X129159908Y-89090707D01*
X129276176Y-89013019D01*
X129489983Y-88799212D01*
X129543579Y-88719000D01*
X129872405Y-88719000D01*
X141986660Y-100833256D01*
G36*
X149656342Y-95120246D02*
G01*
X149622671Y-95289523D01*
X149622671Y-95591891D01*
X149681660Y-95888450D01*
X149797372Y-96167802D01*
X149965359Y-96419212D01*
X150179166Y-96633019D01*
X150295434Y-96710707D01*
X150179166Y-96788395D01*
X149965359Y-97002202D01*
X149797372Y-97253612D01*
X149681660Y-97532964D01*
X149622671Y-97829523D01*
X149622671Y-98131891D01*
X149681660Y-98428450D01*
X149797372Y-98707802D01*
X149965359Y-98959212D01*
X150179166Y-99173019D01*
X150295434Y-99250707D01*
X150179166Y-99328395D01*
X149965359Y-99542202D01*
X149797372Y-99793612D01*
X149681660Y-100072964D01*
X149622671Y-100369523D01*
X149622671Y-100671891D01*
X149681660Y-100968450D01*
X149797372Y-101247802D01*
X149965359Y-101499212D01*
X150179166Y-101713019D01*
X150299564Y-101793466D01*
X150250098Y-101822745D01*
X150026022Y-102023591D01*
X149845435Y-102264293D01*
X149715277Y-102535600D01*
X149666635Y-102695967D01*
X149787293Y-102933707D01*
X151030671Y-102933707D01*
X151030671Y-102913707D01*
X151284671Y-102913707D01*
X151284671Y-102933707D01*
X151304671Y-102933707D01*
X151304671Y-103187707D01*
X151284671Y-103187707D01*
X151284671Y-103207707D01*
X151030671Y-103207707D01*
X151030671Y-103187707D01*
X149787293Y-103187707D01*
X149666635Y-103425447D01*
X149715277Y-103585814D01*
X149845435Y-103857121D01*
X150026022Y-104097823D01*
X150034008Y-104104981D01*
X150013491Y-104111205D01*
X149903177Y-104170170D01*
X149806486Y-104249522D01*
X149727134Y-104346213D01*
X149668169Y-104456527D01*
X149631859Y-104576225D01*
X149619599Y-104700707D01*
X149619599Y-106500707D01*
X149631859Y-106625189D01*
X149668169Y-106744887D01*
X149727134Y-106855201D01*
X149806486Y-106951892D01*
X149903177Y-107031244D01*
X150013491Y-107090209D01*
X150133189Y-107126519D01*
X150257671Y-107138779D01*
X151918600Y-107138779D01*
X151918600Y-109603388D01*
X151884211Y-109580410D01*
X151613958Y-109468468D01*
X151327060Y-109411400D01*
X151034540Y-109411400D01*
X150747642Y-109468468D01*
X150477389Y-109580410D01*
X150234168Y-109742925D01*
X150027325Y-109949768D01*
X149910800Y-110124160D01*
X149794275Y-109949768D01*
X149587432Y-109742925D01*
X149475800Y-109668335D01*
X149475800Y-109062895D01*
X149479840Y-109021879D01*
X149475800Y-108980861D01*
X149463718Y-108858191D01*
X149415972Y-108700793D01*
X149338436Y-108555734D01*
X149234091Y-108428589D01*
X149202227Y-108402439D01*
X145107000Y-104307213D01*
X145107000Y-100244018D01*
X145111040Y-100202999D01*
X145094918Y-100039311D01*
X145047172Y-99881913D01*
X144969636Y-99736854D01*
X144949416Y-99712216D01*
X144865291Y-99609709D01*
X144833427Y-99583559D01*
X142963900Y-97714033D01*
X142963900Y-97566685D01*
X142926320Y-97377757D01*
X142852604Y-97199790D01*
X142745585Y-97039625D01*
X142609375Y-96903415D01*
X142449210Y-96796396D01*
X142271243Y-96722680D01*
X142082315Y-96685100D01*
X141889685Y-96685100D01*
X141700757Y-96722680D01*
X141522790Y-96796396D01*
X141362625Y-96903415D01*
X141314861Y-96951179D01*
X138699400Y-94335718D01*
X148871815Y-94335718D01*
X149656342Y-95120246D01*
G37*
X149656342Y-95120246D02*
X149622671Y-95289523D01*
X149622671Y-95591891D01*
X149681660Y-95888450D01*
X149797372Y-96167802D01*
X149965359Y-96419212D01*
X150179166Y-96633019D01*
X150295434Y-96710707D01*
X150179166Y-96788395D01*
X149965359Y-97002202D01*
X149797372Y-97253612D01*
X149681660Y-97532964D01*
X149622671Y-97829523D01*
X149622671Y-98131891D01*
X149681660Y-98428450D01*
X149797372Y-98707802D01*
X149965359Y-98959212D01*
X150179166Y-99173019D01*
X150295434Y-99250707D01*
X150179166Y-99328395D01*
X149965359Y-99542202D01*
X149797372Y-99793612D01*
X149681660Y-100072964D01*
X149622671Y-100369523D01*
X149622671Y-100671891D01*
X149681660Y-100968450D01*
X149797372Y-101247802D01*
X149965359Y-101499212D01*
X150179166Y-101713019D01*
X150299564Y-101793466D01*
X150250098Y-101822745D01*
X150026022Y-102023591D01*
X149845435Y-102264293D01*
X149715277Y-102535600D01*
X149666635Y-102695967D01*
X149787293Y-102933707D01*
X151030671Y-102933707D01*
X151030671Y-102913707D01*
X151284671Y-102913707D01*
X151284671Y-102933707D01*
X151304671Y-102933707D01*
X151304671Y-103187707D01*
X151284671Y-103187707D01*
X151284671Y-103207707D01*
X151030671Y-103207707D01*
X151030671Y-103187707D01*
X149787293Y-103187707D01*
X149666635Y-103425447D01*
X149715277Y-103585814D01*
X149845435Y-103857121D01*
X150026022Y-104097823D01*
X150034008Y-104104981D01*
X150013491Y-104111205D01*
X149903177Y-104170170D01*
X149806486Y-104249522D01*
X149727134Y-104346213D01*
X149668169Y-104456527D01*
X149631859Y-104576225D01*
X149619599Y-104700707D01*
X149619599Y-106500707D01*
X149631859Y-106625189D01*
X149668169Y-106744887D01*
X149727134Y-106855201D01*
X149806486Y-106951892D01*
X149903177Y-107031244D01*
X150013491Y-107090209D01*
X150133189Y-107126519D01*
X150257671Y-107138779D01*
X151918600Y-107138779D01*
X151918600Y-109603388D01*
X151884211Y-109580410D01*
X151613958Y-109468468D01*
X151327060Y-109411400D01*
X151034540Y-109411400D01*
X150747642Y-109468468D01*
X150477389Y-109580410D01*
X150234168Y-109742925D01*
X150027325Y-109949768D01*
X149910800Y-110124160D01*
X149794275Y-109949768D01*
X149587432Y-109742925D01*
X149475800Y-109668335D01*
X149475800Y-109062895D01*
X149479840Y-109021879D01*
X149475800Y-108980861D01*
X149463718Y-108858191D01*
X149415972Y-108700793D01*
X149338436Y-108555734D01*
X149234091Y-108428589D01*
X149202227Y-108402439D01*
X145107000Y-104307213D01*
X145107000Y-100244018D01*
X145111040Y-100202999D01*
X145094918Y-100039311D01*
X145047172Y-99881913D01*
X144969636Y-99736854D01*
X144949416Y-99712216D01*
X144865291Y-99609709D01*
X144833427Y-99583559D01*
X142963900Y-97714033D01*
X142963900Y-97566685D01*
X142926320Y-97377757D01*
X142852604Y-97199790D01*
X142745585Y-97039625D01*
X142609375Y-96903415D01*
X142449210Y-96796396D01*
X142271243Y-96722680D01*
X142082315Y-96685100D01*
X141889685Y-96685100D01*
X141700757Y-96722680D01*
X141522790Y-96796396D01*
X141362625Y-96903415D01*
X141314861Y-96951179D01*
X138699400Y-94335718D01*
X148871815Y-94335718D01*
X149656342Y-95120246D01*
G36*
X141732000Y-82162650D02*
G01*
X141890750Y-82321400D01*
X143002000Y-82321400D01*
X143002000Y-82301400D01*
X143256000Y-82301400D01*
X143256000Y-82321400D01*
X144367250Y-82321400D01*
X144526000Y-82162650D01*
X144528449Y-80770800D01*
X146809551Y-80770800D01*
X146812000Y-82162650D01*
X146970750Y-82321400D01*
X148082000Y-82321400D01*
X148082000Y-82301400D01*
X148336000Y-82301400D01*
X148336000Y-82321400D01*
X149447250Y-82321400D01*
X149606000Y-82162650D01*
X149608314Y-80847270D01*
X149864358Y-80909032D01*
X150415266Y-81163142D01*
X150906329Y-81519420D01*
X151318837Y-81964293D01*
X151637078Y-82480813D01*
X151853715Y-83062146D01*
X151918601Y-83383066D01*
X151918601Y-86483016D01*
X151884766Y-86460408D01*
X151605414Y-86344696D01*
X151308855Y-86285707D01*
X151006487Y-86285707D01*
X150709928Y-86344696D01*
X150430576Y-86460408D01*
X150179166Y-86628395D01*
X149965359Y-86842202D01*
X149797372Y-87093612D01*
X149681660Y-87372964D01*
X149622671Y-87669523D01*
X149622671Y-87971891D01*
X149681660Y-88268450D01*
X149797372Y-88547802D01*
X149965359Y-88799212D01*
X150179166Y-89013019D01*
X150295434Y-89090707D01*
X150179166Y-89168395D01*
X149965359Y-89382202D01*
X149797372Y-89633612D01*
X149681660Y-89912964D01*
X149622671Y-90209523D01*
X149622671Y-90511891D01*
X149681660Y-90808450D01*
X149797372Y-91087802D01*
X149965359Y-91339212D01*
X150179166Y-91553019D01*
X150295434Y-91630707D01*
X150179166Y-91708395D01*
X149965359Y-91922202D01*
X149869472Y-92065707D01*
X138458575Y-92065707D01*
X137585800Y-91192933D01*
X137585800Y-87816257D01*
X137645604Y-87726754D01*
X137719320Y-87548787D01*
X137756900Y-87359859D01*
X137756900Y-87167229D01*
X137719320Y-86978301D01*
X137645604Y-86800334D01*
X137538585Y-86640169D01*
X137402375Y-86503959D01*
X137242210Y-86396940D01*
X137064243Y-86323224D01*
X136875315Y-86285644D01*
X136682685Y-86285644D01*
X136493757Y-86323224D01*
X136315790Y-86396940D01*
X136155625Y-86503959D01*
X136019415Y-86640169D01*
X135912396Y-86800334D01*
X135838680Y-86978301D01*
X135801100Y-87167229D01*
X135801100Y-87359859D01*
X135838680Y-87548787D01*
X135912396Y-87726754D01*
X135915801Y-87731850D01*
X135915800Y-90538933D01*
X135585800Y-90208933D01*
X135585800Y-89951008D01*
X135588204Y-89947410D01*
X135661920Y-89769443D01*
X135699500Y-89580515D01*
X135699500Y-89387885D01*
X135661920Y-89198957D01*
X135588204Y-89020990D01*
X135481185Y-88860825D01*
X135344975Y-88724615D01*
X135184810Y-88617596D01*
X135006843Y-88543880D01*
X134817915Y-88506300D01*
X134625285Y-88506300D01*
X134436357Y-88543880D01*
X134258390Y-88617596D01*
X134098225Y-88724615D01*
X133962015Y-88860825D01*
X133854996Y-89020990D01*
X133781280Y-89198957D01*
X133745005Y-89381324D01*
X133585800Y-89222119D01*
X133585800Y-87829080D01*
X133655320Y-87661243D01*
X133692900Y-87472315D01*
X133692900Y-87279685D01*
X133655320Y-87090757D01*
X133581604Y-86912790D01*
X133526630Y-86830515D01*
X133830959Y-86830515D01*
X133890464Y-86824681D01*
X133949946Y-86819267D01*
X133952077Y-86818640D01*
X133954298Y-86818422D01*
X134011580Y-86801127D01*
X134068834Y-86784277D01*
X134070806Y-86783246D01*
X134072939Y-86782602D01*
X134125740Y-86754527D01*
X134154508Y-86739487D01*
X134178925Y-86752689D01*
X134231311Y-86781489D01*
X134233435Y-86782163D01*
X134235392Y-86783221D01*
X134292414Y-86800872D01*
X134349440Y-86818962D01*
X134351656Y-86819211D01*
X134353780Y-86819868D01*
X134413207Y-86826114D01*
X134472598Y-86832776D01*
X134476868Y-86832806D01*
X134477031Y-86832823D01*
X134477194Y-86832808D01*
X134481464Y-86832838D01*
X134606919Y-86832838D01*
X134609713Y-86832564D01*
X134612504Y-86832813D01*
X134671267Y-86826529D01*
X134718890Y-86821860D01*
X134759369Y-86826114D01*
X134818760Y-86832776D01*
X134823030Y-86832806D01*
X134823193Y-86832823D01*
X134823356Y-86832808D01*
X134827626Y-86832838D01*
X134953080Y-86832838D01*
X135012585Y-86827004D01*
X135072067Y-86821590D01*
X135074198Y-86820963D01*
X135076419Y-86820745D01*
X135133701Y-86803450D01*
X135190955Y-86786600D01*
X135192927Y-86785569D01*
X135195060Y-86784925D01*
X135247861Y-86756850D01*
X135300783Y-86729183D01*
X135302517Y-86727789D01*
X135304484Y-86726743D01*
X135350817Y-86688955D01*
X135397366Y-86651528D01*
X135398797Y-86649823D01*
X135400523Y-86648415D01*
X135438619Y-86602365D01*
X135477027Y-86556592D01*
X135478100Y-86554640D01*
X135479519Y-86552925D01*
X135507931Y-86500377D01*
X135536731Y-86447991D01*
X135537405Y-86445867D01*
X135538463Y-86443910D01*
X135556114Y-86386887D01*
X135574204Y-86329862D01*
X135574453Y-86327643D01*
X135575110Y-86325522D01*
X135581356Y-86266095D01*
X135588018Y-86206704D01*
X135588048Y-86202434D01*
X135588065Y-86202271D01*
X135588050Y-86202108D01*
X135588080Y-86197838D01*
X135588080Y-85647232D01*
X135582246Y-85587727D01*
X135576832Y-85528245D01*
X135576205Y-85526114D01*
X135575987Y-85523893D01*
X135558666Y-85466522D01*
X135541842Y-85409357D01*
X135540811Y-85407385D01*
X135540167Y-85405252D01*
X135512092Y-85352451D01*
X135484425Y-85299529D01*
X135483031Y-85297795D01*
X135481985Y-85295828D01*
X135453333Y-85260697D01*
X135453333Y-85070527D01*
X135484160Y-85045385D01*
X135485313Y-85043991D01*
X135486712Y-85042837D01*
X135524841Y-84996210D01*
X135563156Y-84949895D01*
X135564017Y-84948303D01*
X135565164Y-84946900D01*
X135593475Y-84893821D01*
X135622100Y-84840880D01*
X135622636Y-84839148D01*
X135623488Y-84837551D01*
X135640968Y-84779926D01*
X135658747Y-84722492D01*
X135658936Y-84720695D01*
X135659463Y-84718957D01*
X135665421Y-84658996D01*
X135671702Y-84599241D01*
X135671537Y-84597432D01*
X135671716Y-84595634D01*
X135671666Y-84586768D01*
X135670320Y-84480400D01*
X141728928Y-84480400D01*
X141741188Y-84604882D01*
X141777498Y-84724580D01*
X141836463Y-84834894D01*
X141915815Y-84931585D01*
X142012506Y-85010937D01*
X142122820Y-85069902D01*
X142242518Y-85106212D01*
X142367000Y-85118472D01*
X142843250Y-85115400D01*
X143002000Y-84956650D01*
X143002000Y-82575400D01*
X143256000Y-82575400D01*
X143256000Y-84956650D01*
X143414750Y-85115400D01*
X143891000Y-85118472D01*
X144015482Y-85106212D01*
X144135180Y-85069902D01*
X144195066Y-85037892D01*
X144241068Y-85269158D01*
X144353010Y-85539411D01*
X144515525Y-85782632D01*
X144722368Y-85989475D01*
X144965589Y-86151990D01*
X145235842Y-86263932D01*
X145522740Y-86321000D01*
X145815260Y-86321000D01*
X146102158Y-86263932D01*
X146372411Y-86151990D01*
X146615632Y-85989475D01*
X146822475Y-85782632D01*
X146984990Y-85539411D01*
X147096932Y-85269158D01*
X147142934Y-85037892D01*
X147202820Y-85069902D01*
X147322518Y-85106212D01*
X147447000Y-85118472D01*
X147923250Y-85115400D01*
X148082000Y-84956650D01*
X148082000Y-82575400D01*
X148336000Y-82575400D01*
X148336000Y-84956650D01*
X148494750Y-85115400D01*
X148971000Y-85118472D01*
X149095482Y-85106212D01*
X149215180Y-85069902D01*
X149325494Y-85010937D01*
X149422185Y-84931585D01*
X149501537Y-84834894D01*
X149560502Y-84724580D01*
X149596812Y-84604882D01*
X149609072Y-84480400D01*
X149606000Y-82734150D01*
X149447250Y-82575400D01*
X148336000Y-82575400D01*
X148082000Y-82575400D01*
X146970750Y-82575400D01*
X146812000Y-82734150D01*
X146809990Y-83876883D01*
X146615632Y-83682525D01*
X146372411Y-83520010D01*
X146102158Y-83408068D01*
X145815260Y-83351000D01*
X145522740Y-83351000D01*
X145235842Y-83408068D01*
X144965589Y-83520010D01*
X144722368Y-83682525D01*
X144528010Y-83876883D01*
X144526000Y-82734150D01*
X144367250Y-82575400D01*
X143256000Y-82575400D01*
X143002000Y-82575400D01*
X141890750Y-82575400D01*
X141732000Y-82734150D01*
X141728928Y-84480400D01*
X135670320Y-84480400D01*
X135669923Y-84449116D01*
X135669342Y-84403233D01*
X135663199Y-84347815D01*
X135658145Y-84292286D01*
X135656378Y-84286282D01*
X135655688Y-84280057D01*
X135638894Y-84226875D01*
X135623155Y-84173398D01*
X135620255Y-84167850D01*
X135618369Y-84161879D01*
X135591565Y-84112973D01*
X135565738Y-84063570D01*
X135561816Y-84058692D01*
X135558806Y-84053200D01*
X135523010Y-84010427D01*
X135488083Y-83966987D01*
X135483289Y-83962964D01*
X135479269Y-83958161D01*
X135467285Y-83948500D01*
X135470837Y-83942533D01*
X135480612Y-83925847D01*
X135482059Y-83922710D01*
X135484061Y-83919887D01*
X135488405Y-83912159D01*
X135497754Y-83895254D01*
X135499121Y-83892086D01*
X135501042Y-83889230D01*
X135505194Y-83881397D01*
X135514115Y-83864278D01*
X135515398Y-83861091D01*
X135517240Y-83858200D01*
X135521197Y-83850266D01*
X135529686Y-83832943D01*
X135530883Y-83829742D01*
X135532649Y-83826814D01*
X135536409Y-83818785D01*
X135544465Y-83801264D01*
X135545570Y-83798071D01*
X135547245Y-83795133D01*
X135550806Y-83787014D01*
X135558429Y-83769300D01*
X135567670Y-83740319D01*
X135579754Y-83712394D01*
X135582405Y-83703934D01*
X135627563Y-83556227D01*
X135638703Y-83500980D01*
X135650825Y-83445905D01*
X135651815Y-83437095D01*
X135668223Y-83281330D01*
X135668625Y-83225587D01*
X135670123Y-83169845D01*
X135669434Y-83161006D01*
X135657241Y-83017615D01*
X135648141Y-82968326D01*
X135640900Y-82918757D01*
X135638709Y-82910166D01*
X135603457Y-82775896D01*
X135585981Y-82728678D01*
X135570252Y-82680851D01*
X135566617Y-82672764D01*
X135510292Y-82549764D01*
X135484855Y-82506066D01*
X135461021Y-82461496D01*
X135456046Y-82454157D01*
X135380636Y-82344579D01*
X135347779Y-82305608D01*
X135316313Y-82265536D01*
X135310139Y-82259173D01*
X135217632Y-82165169D01*
X135177978Y-82132060D01*
X135139436Y-82097685D01*
X135132239Y-82092507D01*
X135024622Y-82016226D01*
X134979010Y-81990178D01*
X134934193Y-81962778D01*
X134926186Y-81958969D01*
X134903429Y-81948337D01*
X134884190Y-81914061D01*
X134862369Y-81870927D01*
X134857562Y-81863478D01*
X134790020Y-81760398D01*
X134761327Y-81724755D01*
X134734512Y-81687703D01*
X134728591Y-81681103D01*
X134644796Y-81588995D01*
X134612246Y-81559577D01*
X134581434Y-81528348D01*
X134574581Y-81522722D01*
X134476520Y-81443355D01*
X134440719Y-81419761D01*
X134406410Y-81394052D01*
X134398798Y-81389506D01*
X134288457Y-81324650D01*
X134249688Y-81306698D01*
X134212079Y-81286420D01*
X134203878Y-81283051D01*
X134203057Y-81282720D01*
X134184377Y-81249289D01*
X134173102Y-81233063D01*
X134164085Y-81215483D01*
X134159236Y-81208060D01*
X134130659Y-81164973D01*
X134118271Y-81149758D01*
X134108020Y-81133022D01*
X134102624Y-81125987D01*
X134070452Y-81084641D01*
X134057039Y-81070500D01*
X134045639Y-81054692D01*
X134039730Y-81048082D01*
X134004020Y-81008695D01*
X133987895Y-80994072D01*
X133973756Y-80977528D01*
X133967323Y-80971427D01*
X133911002Y-80918754D01*
X133889632Y-80902367D01*
X133870204Y-80883717D01*
X133863201Y-80878280D01*
X133802634Y-80831925D01*
X133766563Y-80809535D01*
X133731926Y-80784953D01*
X133724199Y-80780606D01*
X133706482Y-80770800D01*
X141729551Y-80770800D01*
X141732000Y-82162650D01*
G37*
X141732000Y-82162650D02*
X141890750Y-82321400D01*
X143002000Y-82321400D01*
X143002000Y-82301400D01*
X143256000Y-82301400D01*
X143256000Y-82321400D01*
X144367250Y-82321400D01*
X144526000Y-82162650D01*
X144528449Y-80770800D01*
X146809551Y-80770800D01*
X146812000Y-82162650D01*
X146970750Y-82321400D01*
X148082000Y-82321400D01*
X148082000Y-82301400D01*
X148336000Y-82301400D01*
X148336000Y-82321400D01*
X149447250Y-82321400D01*
X149606000Y-82162650D01*
X149608314Y-80847270D01*
X149864358Y-80909032D01*
X150415266Y-81163142D01*
X150906329Y-81519420D01*
X151318837Y-81964293D01*
X151637078Y-82480813D01*
X151853715Y-83062146D01*
X151918601Y-83383066D01*
X151918601Y-86483016D01*
X151884766Y-86460408D01*
X151605414Y-86344696D01*
X151308855Y-86285707D01*
X151006487Y-86285707D01*
X150709928Y-86344696D01*
X150430576Y-86460408D01*
X150179166Y-86628395D01*
X149965359Y-86842202D01*
X149797372Y-87093612D01*
X149681660Y-87372964D01*
X149622671Y-87669523D01*
X149622671Y-87971891D01*
X149681660Y-88268450D01*
X149797372Y-88547802D01*
X149965359Y-88799212D01*
X150179166Y-89013019D01*
X150295434Y-89090707D01*
X150179166Y-89168395D01*
X149965359Y-89382202D01*
X149797372Y-89633612D01*
X149681660Y-89912964D01*
X149622671Y-90209523D01*
X149622671Y-90511891D01*
X149681660Y-90808450D01*
X149797372Y-91087802D01*
X149965359Y-91339212D01*
X150179166Y-91553019D01*
X150295434Y-91630707D01*
X150179166Y-91708395D01*
X149965359Y-91922202D01*
X149869472Y-92065707D01*
X138458575Y-92065707D01*
X137585800Y-91192933D01*
X137585800Y-87816257D01*
X137645604Y-87726754D01*
X137719320Y-87548787D01*
X137756900Y-87359859D01*
X137756900Y-87167229D01*
X137719320Y-86978301D01*
X137645604Y-86800334D01*
X137538585Y-86640169D01*
X137402375Y-86503959D01*
X137242210Y-86396940D01*
X137064243Y-86323224D01*
X136875315Y-86285644D01*
X136682685Y-86285644D01*
X136493757Y-86323224D01*
X136315790Y-86396940D01*
X136155625Y-86503959D01*
X136019415Y-86640169D01*
X135912396Y-86800334D01*
X135838680Y-86978301D01*
X135801100Y-87167229D01*
X135801100Y-87359859D01*
X135838680Y-87548787D01*
X135912396Y-87726754D01*
X135915801Y-87731850D01*
X135915800Y-90538933D01*
X135585800Y-90208933D01*
X135585800Y-89951008D01*
X135588204Y-89947410D01*
X135661920Y-89769443D01*
X135699500Y-89580515D01*
X135699500Y-89387885D01*
X135661920Y-89198957D01*
X135588204Y-89020990D01*
X135481185Y-88860825D01*
X135344975Y-88724615D01*
X135184810Y-88617596D01*
X135006843Y-88543880D01*
X134817915Y-88506300D01*
X134625285Y-88506300D01*
X134436357Y-88543880D01*
X134258390Y-88617596D01*
X134098225Y-88724615D01*
X133962015Y-88860825D01*
X133854996Y-89020990D01*
X133781280Y-89198957D01*
X133745005Y-89381324D01*
X133585800Y-89222119D01*
X133585800Y-87829080D01*
X133655320Y-87661243D01*
X133692900Y-87472315D01*
X133692900Y-87279685D01*
X133655320Y-87090757D01*
X133581604Y-86912790D01*
X133526630Y-86830515D01*
X133830959Y-86830515D01*
X133890464Y-86824681D01*
X133949946Y-86819267D01*
X133952077Y-86818640D01*
X133954298Y-86818422D01*
X134011580Y-86801127D01*
X134068834Y-86784277D01*
X134070806Y-86783246D01*
X134072939Y-86782602D01*
X134125740Y-86754527D01*
X134154508Y-86739487D01*
X134178925Y-86752689D01*
X134231311Y-86781489D01*
X134233435Y-86782163D01*
X134235392Y-86783221D01*
X134292414Y-86800872D01*
X134349440Y-86818962D01*
X134351656Y-86819211D01*
X134353780Y-86819868D01*
X134413207Y-86826114D01*
X134472598Y-86832776D01*
X134476868Y-86832806D01*
X134477031Y-86832823D01*
X134477194Y-86832808D01*
X134481464Y-86832838D01*
X134606919Y-86832838D01*
X134609713Y-86832564D01*
X134612504Y-86832813D01*
X134671267Y-86826529D01*
X134718890Y-86821860D01*
X134759369Y-86826114D01*
X134818760Y-86832776D01*
X134823030Y-86832806D01*
X134823193Y-86832823D01*
X134823356Y-86832808D01*
X134827626Y-86832838D01*
X134953080Y-86832838D01*
X135012585Y-86827004D01*
X135072067Y-86821590D01*
X135074198Y-86820963D01*
X135076419Y-86820745D01*
X135133701Y-86803450D01*
X135190955Y-86786600D01*
X135192927Y-86785569D01*
X135195060Y-86784925D01*
X135247861Y-86756850D01*
X135300783Y-86729183D01*
X135302517Y-86727789D01*
X135304484Y-86726743D01*
X135350817Y-86688955D01*
X135397366Y-86651528D01*
X135398797Y-86649823D01*
X135400523Y-86648415D01*
X135438619Y-86602365D01*
X135477027Y-86556592D01*
X135478100Y-86554640D01*
X135479519Y-86552925D01*
X135507931Y-86500377D01*
X135536731Y-86447991D01*
X135537405Y-86445867D01*
X135538463Y-86443910D01*
X135556114Y-86386887D01*
X135574204Y-86329862D01*
X135574453Y-86327643D01*
X135575110Y-86325522D01*
X135581356Y-86266095D01*
X135588018Y-86206704D01*
X135588048Y-86202434D01*
X135588065Y-86202271D01*
X135588050Y-86202108D01*
X135588080Y-86197838D01*
X135588080Y-85647232D01*
X135582246Y-85587727D01*
X135576832Y-85528245D01*
X135576205Y-85526114D01*
X135575987Y-85523893D01*
X135558666Y-85466522D01*
X135541842Y-85409357D01*
X135540811Y-85407385D01*
X135540167Y-85405252D01*
X135512092Y-85352451D01*
X135484425Y-85299529D01*
X135483031Y-85297795D01*
X135481985Y-85295828D01*
X135453333Y-85260697D01*
X135453333Y-85070527D01*
X135484160Y-85045385D01*
X135485313Y-85043991D01*
X135486712Y-85042837D01*
X135524841Y-84996210D01*
X135563156Y-84949895D01*
X135564017Y-84948303D01*
X135565164Y-84946900D01*
X135593475Y-84893821D01*
X135622100Y-84840880D01*
X135622636Y-84839148D01*
X135623488Y-84837551D01*
X135640968Y-84779926D01*
X135658747Y-84722492D01*
X135658936Y-84720695D01*
X135659463Y-84718957D01*
X135665421Y-84658996D01*
X135671702Y-84599241D01*
X135671537Y-84597432D01*
X135671716Y-84595634D01*
X135671666Y-84586768D01*
X135670320Y-84480400D01*
X141728928Y-84480400D01*
X141741188Y-84604882D01*
X141777498Y-84724580D01*
X141836463Y-84834894D01*
X141915815Y-84931585D01*
X142012506Y-85010937D01*
X142122820Y-85069902D01*
X142242518Y-85106212D01*
X142367000Y-85118472D01*
X142843250Y-85115400D01*
X143002000Y-84956650D01*
X143002000Y-82575400D01*
X143256000Y-82575400D01*
X143256000Y-84956650D01*
X143414750Y-85115400D01*
X143891000Y-85118472D01*
X144015482Y-85106212D01*
X144135180Y-85069902D01*
X144195066Y-85037892D01*
X144241068Y-85269158D01*
X144353010Y-85539411D01*
X144515525Y-85782632D01*
X144722368Y-85989475D01*
X144965589Y-86151990D01*
X145235842Y-86263932D01*
X145522740Y-86321000D01*
X145815260Y-86321000D01*
X146102158Y-86263932D01*
X146372411Y-86151990D01*
X146615632Y-85989475D01*
X146822475Y-85782632D01*
X146984990Y-85539411D01*
X147096932Y-85269158D01*
X147142934Y-85037892D01*
X147202820Y-85069902D01*
X147322518Y-85106212D01*
X147447000Y-85118472D01*
X147923250Y-85115400D01*
X148082000Y-84956650D01*
X148082000Y-82575400D01*
X148336000Y-82575400D01*
X148336000Y-84956650D01*
X148494750Y-85115400D01*
X148971000Y-85118472D01*
X149095482Y-85106212D01*
X149215180Y-85069902D01*
X149325494Y-85010937D01*
X149422185Y-84931585D01*
X149501537Y-84834894D01*
X149560502Y-84724580D01*
X149596812Y-84604882D01*
X149609072Y-84480400D01*
X149606000Y-82734150D01*
X149447250Y-82575400D01*
X148336000Y-82575400D01*
X148082000Y-82575400D01*
X146970750Y-82575400D01*
X146812000Y-82734150D01*
X146809990Y-83876883D01*
X146615632Y-83682525D01*
X146372411Y-83520010D01*
X146102158Y-83408068D01*
X145815260Y-83351000D01*
X145522740Y-83351000D01*
X145235842Y-83408068D01*
X144965589Y-83520010D01*
X144722368Y-83682525D01*
X144528010Y-83876883D01*
X144526000Y-82734150D01*
X144367250Y-82575400D01*
X143256000Y-82575400D01*
X143002000Y-82575400D01*
X141890750Y-82575400D01*
X141732000Y-82734150D01*
X141728928Y-84480400D01*
X135670320Y-84480400D01*
X135669923Y-84449116D01*
X135669342Y-84403233D01*
X135663199Y-84347815D01*
X135658145Y-84292286D01*
X135656378Y-84286282D01*
X135655688Y-84280057D01*
X135638894Y-84226875D01*
X135623155Y-84173398D01*
X135620255Y-84167850D01*
X135618369Y-84161879D01*
X135591565Y-84112973D01*
X135565738Y-84063570D01*
X135561816Y-84058692D01*
X135558806Y-84053200D01*
X135523010Y-84010427D01*
X135488083Y-83966987D01*
X135483289Y-83962964D01*
X135479269Y-83958161D01*
X135467285Y-83948500D01*
X135470837Y-83942533D01*
X135480612Y-83925847D01*
X135482059Y-83922710D01*
X135484061Y-83919887D01*
X135488405Y-83912159D01*
X135497754Y-83895254D01*
X135499121Y-83892086D01*
X135501042Y-83889230D01*
X135505194Y-83881397D01*
X135514115Y-83864278D01*
X135515398Y-83861091D01*
X135517240Y-83858200D01*
X135521197Y-83850266D01*
X135529686Y-83832943D01*
X135530883Y-83829742D01*
X135532649Y-83826814D01*
X135536409Y-83818785D01*
X135544465Y-83801264D01*
X135545570Y-83798071D01*
X135547245Y-83795133D01*
X135550806Y-83787014D01*
X135558429Y-83769300D01*
X135567670Y-83740319D01*
X135579754Y-83712394D01*
X135582405Y-83703934D01*
X135627563Y-83556227D01*
X135638703Y-83500980D01*
X135650825Y-83445905D01*
X135651815Y-83437095D01*
X135668223Y-83281330D01*
X135668625Y-83225587D01*
X135670123Y-83169845D01*
X135669434Y-83161006D01*
X135657241Y-83017615D01*
X135648141Y-82968326D01*
X135640900Y-82918757D01*
X135638709Y-82910166D01*
X135603457Y-82775896D01*
X135585981Y-82728678D01*
X135570252Y-82680851D01*
X135566617Y-82672764D01*
X135510292Y-82549764D01*
X135484855Y-82506066D01*
X135461021Y-82461496D01*
X135456046Y-82454157D01*
X135380636Y-82344579D01*
X135347779Y-82305608D01*
X135316313Y-82265536D01*
X135310139Y-82259173D01*
X135217632Y-82165169D01*
X135177978Y-82132060D01*
X135139436Y-82097685D01*
X135132239Y-82092507D01*
X135024622Y-82016226D01*
X134979010Y-81990178D01*
X134934193Y-81962778D01*
X134926186Y-81958969D01*
X134903429Y-81948337D01*
X134884190Y-81914061D01*
X134862369Y-81870927D01*
X134857562Y-81863478D01*
X134790020Y-81760398D01*
X134761327Y-81724755D01*
X134734512Y-81687703D01*
X134728591Y-81681103D01*
X134644796Y-81588995D01*
X134612246Y-81559577D01*
X134581434Y-81528348D01*
X134574581Y-81522722D01*
X134476520Y-81443355D01*
X134440719Y-81419761D01*
X134406410Y-81394052D01*
X134398798Y-81389506D01*
X134288457Y-81324650D01*
X134249688Y-81306698D01*
X134212079Y-81286420D01*
X134203878Y-81283051D01*
X134203057Y-81282720D01*
X134184377Y-81249289D01*
X134173102Y-81233063D01*
X134164085Y-81215483D01*
X134159236Y-81208060D01*
X134130659Y-81164973D01*
X134118271Y-81149758D01*
X134108020Y-81133022D01*
X134102624Y-81125987D01*
X134070452Y-81084641D01*
X134057039Y-81070500D01*
X134045639Y-81054692D01*
X134039730Y-81048082D01*
X134004020Y-81008695D01*
X133987895Y-80994072D01*
X133973756Y-80977528D01*
X133967323Y-80971427D01*
X133911002Y-80918754D01*
X133889632Y-80902367D01*
X133870204Y-80883717D01*
X133863201Y-80878280D01*
X133802634Y-80831925D01*
X133766563Y-80809535D01*
X133731926Y-80784953D01*
X133724199Y-80780606D01*
X133706482Y-80770800D01*
X141729551Y-80770800D01*
X141732000Y-82162650D01*
M02*
