G04 #@! TF.GenerationSoftware,KiCad,Pcbnew,5.1.5-52549c5~84~ubuntu18.04.1*
G04 #@! TF.CreationDate,2020-01-02T13:17:24-07:00*
G04 #@! TF.ProjectId,wemos-01,77656d6f-732d-4303-912e-6b696361645f,rev?*
G04 #@! TF.SameCoordinates,Original*
G04 #@! TF.FileFunction,Legend,Bot*
G04 #@! TF.FilePolarity,Positive*
%FSLAX46Y46*%
G04 Gerber Fmt 4.6, Leading zero omitted, Abs format (unit mm)*
G04 Created by KiCad (PCBNEW 5.1.5-52549c5~84~ubuntu18.04.1) date 2020-01-02 13:17:24*
%MOMM*%
%LPD*%
G04 APERTURE LIST*
%ADD10C,0.250000*%
%ADD11C,0.010000*%
G04 APERTURE END LIST*
D10*
X137866047Y-107781380D02*
X137866047Y-106781380D01*
X137627952Y-106781380D01*
X137485095Y-106829000D01*
X137389857Y-106924238D01*
X137342238Y-107019476D01*
X137294619Y-107209952D01*
X137294619Y-107352809D01*
X137342238Y-107543285D01*
X137389857Y-107638523D01*
X137485095Y-107733761D01*
X137627952Y-107781380D01*
X137866047Y-107781380D01*
X136485095Y-107733761D02*
X136580333Y-107781380D01*
X136770809Y-107781380D01*
X136866047Y-107733761D01*
X136913666Y-107638523D01*
X136913666Y-107257571D01*
X136866047Y-107162333D01*
X136770809Y-107114714D01*
X136580333Y-107114714D01*
X136485095Y-107162333D01*
X136437476Y-107257571D01*
X136437476Y-107352809D01*
X136913666Y-107448047D01*
X136056523Y-107733761D02*
X135961285Y-107781380D01*
X135770809Y-107781380D01*
X135675571Y-107733761D01*
X135627952Y-107638523D01*
X135627952Y-107590904D01*
X135675571Y-107495666D01*
X135770809Y-107448047D01*
X135913666Y-107448047D01*
X136008904Y-107400428D01*
X136056523Y-107305190D01*
X136056523Y-107257571D01*
X136008904Y-107162333D01*
X135913666Y-107114714D01*
X135770809Y-107114714D01*
X135675571Y-107162333D01*
X135199380Y-107781380D02*
X135199380Y-107114714D01*
X135199380Y-106781380D02*
X135247000Y-106829000D01*
X135199380Y-106876619D01*
X135151761Y-106829000D01*
X135199380Y-106781380D01*
X135199380Y-106876619D01*
X134294619Y-107114714D02*
X134294619Y-107924238D01*
X134342238Y-108019476D01*
X134389857Y-108067095D01*
X134485095Y-108114714D01*
X134627952Y-108114714D01*
X134723190Y-108067095D01*
X134294619Y-107733761D02*
X134389857Y-107781380D01*
X134580333Y-107781380D01*
X134675571Y-107733761D01*
X134723190Y-107686142D01*
X134770809Y-107590904D01*
X134770809Y-107305190D01*
X134723190Y-107209952D01*
X134675571Y-107162333D01*
X134580333Y-107114714D01*
X134389857Y-107114714D01*
X134294619Y-107162333D01*
X133818428Y-107114714D02*
X133818428Y-107781380D01*
X133818428Y-107209952D02*
X133770809Y-107162333D01*
X133675571Y-107114714D01*
X133532714Y-107114714D01*
X133437476Y-107162333D01*
X133389857Y-107257571D01*
X133389857Y-107781380D01*
X132532714Y-107733761D02*
X132627952Y-107781380D01*
X132818428Y-107781380D01*
X132913666Y-107733761D01*
X132961285Y-107638523D01*
X132961285Y-107257571D01*
X132913666Y-107162333D01*
X132818428Y-107114714D01*
X132627952Y-107114714D01*
X132532714Y-107162333D01*
X132485095Y-107257571D01*
X132485095Y-107352809D01*
X132961285Y-107448047D01*
X131627952Y-107781380D02*
X131627952Y-106781380D01*
X131627952Y-107733761D02*
X131723190Y-107781380D01*
X131913666Y-107781380D01*
X132008904Y-107733761D01*
X132056523Y-107686142D01*
X132104142Y-107590904D01*
X132104142Y-107305190D01*
X132056523Y-107209952D01*
X132008904Y-107162333D01*
X131913666Y-107114714D01*
X131723190Y-107114714D01*
X131627952Y-107162333D01*
X135342238Y-109531380D02*
X135342238Y-108531380D01*
X135342238Y-108912333D02*
X135247000Y-108864714D01*
X135056523Y-108864714D01*
X134961285Y-108912333D01*
X134913666Y-108959952D01*
X134866047Y-109055190D01*
X134866047Y-109340904D01*
X134913666Y-109436142D01*
X134961285Y-109483761D01*
X135056523Y-109531380D01*
X135247000Y-109531380D01*
X135342238Y-109483761D01*
X134532714Y-108864714D02*
X134294619Y-109531380D01*
X134056523Y-108864714D02*
X134294619Y-109531380D01*
X134389857Y-109769476D01*
X134437476Y-109817095D01*
X134532714Y-109864714D01*
D11*
G36*
X139560122Y-88870776D02*
G01*
X139454388Y-88871355D01*
X139377868Y-88872922D01*
X139325628Y-88875972D01*
X139292737Y-88880996D01*
X139274263Y-88888489D01*
X139265273Y-88898944D01*
X139260837Y-88912853D01*
X139260406Y-88914654D01*
X139253667Y-88947145D01*
X139241192Y-89011252D01*
X139224281Y-89100151D01*
X139204229Y-89207019D01*
X139182336Y-89325033D01*
X139181571Y-89329178D01*
X139159641Y-89444831D01*
X139139123Y-89547014D01*
X139121341Y-89629598D01*
X139107619Y-89686456D01*
X139099282Y-89711458D01*
X139098884Y-89711901D01*
X139074323Y-89724110D01*
X139023685Y-89744456D01*
X138957905Y-89768545D01*
X138957539Y-89768674D01*
X138874683Y-89799818D01*
X138777000Y-89839491D01*
X138684923Y-89879381D01*
X138680566Y-89881353D01*
X138530593Y-89949420D01*
X138198502Y-89722639D01*
X138096626Y-89653504D01*
X138004343Y-89591697D01*
X137926997Y-89540733D01*
X137869936Y-89504127D01*
X137838505Y-89485394D01*
X137835521Y-89484004D01*
X137812679Y-89490190D01*
X137770018Y-89520035D01*
X137705872Y-89574947D01*
X137618579Y-89656334D01*
X137529465Y-89742922D01*
X137443559Y-89828247D01*
X137366673Y-89906108D01*
X137303436Y-89971697D01*
X137258477Y-90020205D01*
X137236424Y-90046825D01*
X137235604Y-90048195D01*
X137233166Y-90066463D01*
X137242350Y-90096295D01*
X137265426Y-90141721D01*
X137304663Y-90206770D01*
X137362330Y-90295470D01*
X137439205Y-90409657D01*
X137507430Y-90510162D01*
X137568418Y-90600303D01*
X137618644Y-90674849D01*
X137654584Y-90728565D01*
X137672713Y-90756218D01*
X137673854Y-90758095D01*
X137671641Y-90784590D01*
X137654862Y-90836086D01*
X137626858Y-90902851D01*
X137616878Y-90924172D01*
X137573328Y-91019159D01*
X137526866Y-91126937D01*
X137489123Y-91220192D01*
X137461927Y-91289406D01*
X137440325Y-91342006D01*
X137427842Y-91369497D01*
X137426291Y-91371616D01*
X137403332Y-91375124D01*
X137349214Y-91384738D01*
X137271132Y-91399089D01*
X137176281Y-91416807D01*
X137071857Y-91436525D01*
X136965056Y-91456874D01*
X136863074Y-91476486D01*
X136773106Y-91493991D01*
X136702347Y-91508022D01*
X136657994Y-91517209D01*
X136647115Y-91519807D01*
X136635878Y-91526218D01*
X136627395Y-91540697D01*
X136621286Y-91568133D01*
X136617168Y-91613411D01*
X136614659Y-91681420D01*
X136613379Y-91777047D01*
X136612946Y-91905180D01*
X136612923Y-91957701D01*
X136612923Y-92384845D01*
X136715500Y-92405091D01*
X136772569Y-92416070D01*
X136857731Y-92432095D01*
X136960628Y-92451233D01*
X137070904Y-92471551D01*
X137101385Y-92477132D01*
X137203145Y-92496917D01*
X137291795Y-92516373D01*
X137359892Y-92533697D01*
X137399996Y-92547088D01*
X137406677Y-92551079D01*
X137423081Y-92579342D01*
X137446601Y-92634109D01*
X137472684Y-92704588D01*
X137477858Y-92719769D01*
X137512044Y-92813896D01*
X137554477Y-92920101D01*
X137596003Y-93015473D01*
X137596208Y-93015916D01*
X137665360Y-93165525D01*
X137210488Y-93834617D01*
X137502500Y-94127116D01*
X137590820Y-94214170D01*
X137671375Y-94290909D01*
X137739640Y-94353237D01*
X137791092Y-94397056D01*
X137821206Y-94418270D01*
X137825526Y-94419616D01*
X137850889Y-94409016D01*
X137902642Y-94379547D01*
X137975132Y-94334705D01*
X138062706Y-94277984D01*
X138157388Y-94214462D01*
X138253484Y-94149668D01*
X138339163Y-94093287D01*
X138408984Y-94048788D01*
X138457506Y-94019639D01*
X138479218Y-94009308D01*
X138505707Y-94018050D01*
X138555938Y-94041087D01*
X138619549Y-94073631D01*
X138626292Y-94077249D01*
X138711954Y-94120210D01*
X138770694Y-94141279D01*
X138807228Y-94141503D01*
X138826269Y-94121928D01*
X138826380Y-94121654D01*
X138835898Y-94098472D01*
X138858597Y-94043441D01*
X138892718Y-93960822D01*
X138936500Y-93854872D01*
X138988184Y-93729852D01*
X139046008Y-93590020D01*
X139102009Y-93454637D01*
X139163553Y-93305234D01*
X139220061Y-93166832D01*
X139269839Y-93043673D01*
X139311194Y-92940002D01*
X139342432Y-92860059D01*
X139361859Y-92808088D01*
X139367846Y-92788692D01*
X139352832Y-92766443D01*
X139313561Y-92730982D01*
X139261193Y-92691887D01*
X139112059Y-92568245D01*
X138995489Y-92426522D01*
X138912882Y-92269704D01*
X138865634Y-92100775D01*
X138855143Y-91922722D01*
X138862769Y-91840539D01*
X138904318Y-91670031D01*
X138975877Y-91519459D01*
X139073005Y-91390309D01*
X139191266Y-91284064D01*
X139326220Y-91202210D01*
X139473429Y-91146232D01*
X139628456Y-91117615D01*
X139786861Y-91117844D01*
X139944206Y-91148405D01*
X140096054Y-91210782D01*
X140237965Y-91306460D01*
X140297197Y-91360572D01*
X140410797Y-91499520D01*
X140489894Y-91651361D01*
X140535014Y-91811667D01*
X140546684Y-91976012D01*
X140525431Y-92139971D01*
X140471780Y-92299118D01*
X140386260Y-92449025D01*
X140269395Y-92585267D01*
X140138807Y-92691887D01*
X140084412Y-92732642D01*
X140045986Y-92767718D01*
X140032154Y-92788726D01*
X140039397Y-92811635D01*
X140059995Y-92866365D01*
X140092254Y-92948672D01*
X140134479Y-93054315D01*
X140184977Y-93179050D01*
X140242052Y-93318636D01*
X140298146Y-93454670D01*
X140360033Y-93604201D01*
X140417356Y-93742767D01*
X140468356Y-93866107D01*
X140511273Y-93969964D01*
X140544347Y-94050080D01*
X140565819Y-94102195D01*
X140573775Y-94121654D01*
X140592571Y-94141423D01*
X140628926Y-94141365D01*
X140687521Y-94120441D01*
X140773032Y-94077613D01*
X140773708Y-94077249D01*
X140838093Y-94044012D01*
X140890139Y-94019802D01*
X140919488Y-94009404D01*
X140920783Y-94009308D01*
X140942876Y-94019855D01*
X140991652Y-94049184D01*
X141061669Y-94093827D01*
X141147486Y-94150314D01*
X141242612Y-94214462D01*
X141339460Y-94279411D01*
X141426747Y-94335896D01*
X141498819Y-94380421D01*
X141550023Y-94409490D01*
X141574474Y-94419616D01*
X141596990Y-94406307D01*
X141642258Y-94369112D01*
X141705756Y-94312128D01*
X141782961Y-94239449D01*
X141869349Y-94155171D01*
X141897601Y-94127016D01*
X142189713Y-93834416D01*
X141967369Y-93508104D01*
X141899798Y-93407897D01*
X141840493Y-93317963D01*
X141792783Y-93243510D01*
X141759993Y-93189751D01*
X141745452Y-93161894D01*
X141745026Y-93159912D01*
X141752692Y-93133655D01*
X141773311Y-93080837D01*
X141803315Y-93010310D01*
X141824375Y-92963093D01*
X141863752Y-92872694D01*
X141900835Y-92781366D01*
X141929585Y-92704200D01*
X141937395Y-92680692D01*
X141959583Y-92617916D01*
X141981273Y-92569411D01*
X141993187Y-92551079D01*
X142019477Y-92539859D01*
X142076858Y-92523954D01*
X142157882Y-92505167D01*
X142255105Y-92485299D01*
X142298615Y-92477132D01*
X142409104Y-92456829D01*
X142515084Y-92437170D01*
X142606199Y-92420088D01*
X142672092Y-92407518D01*
X142684500Y-92405091D01*
X142787077Y-92384845D01*
X142787077Y-91957701D01*
X142786847Y-91817246D01*
X142785901Y-91710979D01*
X142783859Y-91634013D01*
X142780338Y-91581460D01*
X142774957Y-91548433D01*
X142767334Y-91530045D01*
X142757088Y-91521408D01*
X142752885Y-91519807D01*
X142727530Y-91514127D01*
X142671516Y-91502795D01*
X142592036Y-91487179D01*
X142496288Y-91468647D01*
X142391467Y-91448569D01*
X142284768Y-91428312D01*
X142183387Y-91409246D01*
X142094521Y-91392739D01*
X142025363Y-91380159D01*
X141983111Y-91372875D01*
X141973710Y-91371616D01*
X141965193Y-91354763D01*
X141946340Y-91309870D01*
X141920676Y-91245430D01*
X141910877Y-91220192D01*
X141871352Y-91122686D01*
X141824808Y-91014959D01*
X141783123Y-90924172D01*
X141752450Y-90854753D01*
X141732044Y-90797710D01*
X141725232Y-90762777D01*
X141726318Y-90758095D01*
X141740715Y-90735991D01*
X141773588Y-90686831D01*
X141821410Y-90615848D01*
X141880652Y-90528278D01*
X141947785Y-90429357D01*
X141961059Y-90409830D01*
X142038954Y-90294140D01*
X142096213Y-90206044D01*
X142135119Y-90141486D01*
X142157956Y-90096411D01*
X142167006Y-90066763D01*
X142164552Y-90048485D01*
X142164489Y-90048369D01*
X142145173Y-90024361D01*
X142102449Y-89977947D01*
X142040949Y-89913937D01*
X141965302Y-89837145D01*
X141880139Y-89752382D01*
X141870535Y-89742922D01*
X141763210Y-89638989D01*
X141680385Y-89562675D01*
X141620395Y-89512571D01*
X141581577Y-89487270D01*
X141564480Y-89484004D01*
X141539527Y-89498250D01*
X141487745Y-89531156D01*
X141414480Y-89579208D01*
X141325080Y-89638890D01*
X141224889Y-89706688D01*
X141201499Y-89722639D01*
X140869407Y-89949420D01*
X140719435Y-89881353D01*
X140628230Y-89841685D01*
X140530331Y-89801791D01*
X140446169Y-89769983D01*
X140442462Y-89768674D01*
X140376631Y-89744576D01*
X140325884Y-89724200D01*
X140301158Y-89711936D01*
X140301116Y-89711901D01*
X140293271Y-89689734D01*
X140279934Y-89635217D01*
X140262430Y-89554480D01*
X140242083Y-89453650D01*
X140220218Y-89338856D01*
X140218429Y-89329178D01*
X140196496Y-89210904D01*
X140176360Y-89103542D01*
X140159320Y-89013917D01*
X140146672Y-88948851D01*
X140139716Y-88915168D01*
X140139594Y-88914654D01*
X140135361Y-88900325D01*
X140127129Y-88889507D01*
X140109967Y-88881706D01*
X140078942Y-88876429D01*
X140029122Y-88873182D01*
X139955576Y-88871472D01*
X139853371Y-88870807D01*
X139717575Y-88870693D01*
X139700000Y-88870692D01*
X139560122Y-88870776D01*
G37*
X139560122Y-88870776D02*
X139454388Y-88871355D01*
X139377868Y-88872922D01*
X139325628Y-88875972D01*
X139292737Y-88880996D01*
X139274263Y-88888489D01*
X139265273Y-88898944D01*
X139260837Y-88912853D01*
X139260406Y-88914654D01*
X139253667Y-88947145D01*
X139241192Y-89011252D01*
X139224281Y-89100151D01*
X139204229Y-89207019D01*
X139182336Y-89325033D01*
X139181571Y-89329178D01*
X139159641Y-89444831D01*
X139139123Y-89547014D01*
X139121341Y-89629598D01*
X139107619Y-89686456D01*
X139099282Y-89711458D01*
X139098884Y-89711901D01*
X139074323Y-89724110D01*
X139023685Y-89744456D01*
X138957905Y-89768545D01*
X138957539Y-89768674D01*
X138874683Y-89799818D01*
X138777000Y-89839491D01*
X138684923Y-89879381D01*
X138680566Y-89881353D01*
X138530593Y-89949420D01*
X138198502Y-89722639D01*
X138096626Y-89653504D01*
X138004343Y-89591697D01*
X137926997Y-89540733D01*
X137869936Y-89504127D01*
X137838505Y-89485394D01*
X137835521Y-89484004D01*
X137812679Y-89490190D01*
X137770018Y-89520035D01*
X137705872Y-89574947D01*
X137618579Y-89656334D01*
X137529465Y-89742922D01*
X137443559Y-89828247D01*
X137366673Y-89906108D01*
X137303436Y-89971697D01*
X137258477Y-90020205D01*
X137236424Y-90046825D01*
X137235604Y-90048195D01*
X137233166Y-90066463D01*
X137242350Y-90096295D01*
X137265426Y-90141721D01*
X137304663Y-90206770D01*
X137362330Y-90295470D01*
X137439205Y-90409657D01*
X137507430Y-90510162D01*
X137568418Y-90600303D01*
X137618644Y-90674849D01*
X137654584Y-90728565D01*
X137672713Y-90756218D01*
X137673854Y-90758095D01*
X137671641Y-90784590D01*
X137654862Y-90836086D01*
X137626858Y-90902851D01*
X137616878Y-90924172D01*
X137573328Y-91019159D01*
X137526866Y-91126937D01*
X137489123Y-91220192D01*
X137461927Y-91289406D01*
X137440325Y-91342006D01*
X137427842Y-91369497D01*
X137426291Y-91371616D01*
X137403332Y-91375124D01*
X137349214Y-91384738D01*
X137271132Y-91399089D01*
X137176281Y-91416807D01*
X137071857Y-91436525D01*
X136965056Y-91456874D01*
X136863074Y-91476486D01*
X136773106Y-91493991D01*
X136702347Y-91508022D01*
X136657994Y-91517209D01*
X136647115Y-91519807D01*
X136635878Y-91526218D01*
X136627395Y-91540697D01*
X136621286Y-91568133D01*
X136617168Y-91613411D01*
X136614659Y-91681420D01*
X136613379Y-91777047D01*
X136612946Y-91905180D01*
X136612923Y-91957701D01*
X136612923Y-92384845D01*
X136715500Y-92405091D01*
X136772569Y-92416070D01*
X136857731Y-92432095D01*
X136960628Y-92451233D01*
X137070904Y-92471551D01*
X137101385Y-92477132D01*
X137203145Y-92496917D01*
X137291795Y-92516373D01*
X137359892Y-92533697D01*
X137399996Y-92547088D01*
X137406677Y-92551079D01*
X137423081Y-92579342D01*
X137446601Y-92634109D01*
X137472684Y-92704588D01*
X137477858Y-92719769D01*
X137512044Y-92813896D01*
X137554477Y-92920101D01*
X137596003Y-93015473D01*
X137596208Y-93015916D01*
X137665360Y-93165525D01*
X137210488Y-93834617D01*
X137502500Y-94127116D01*
X137590820Y-94214170D01*
X137671375Y-94290909D01*
X137739640Y-94353237D01*
X137791092Y-94397056D01*
X137821206Y-94418270D01*
X137825526Y-94419616D01*
X137850889Y-94409016D01*
X137902642Y-94379547D01*
X137975132Y-94334705D01*
X138062706Y-94277984D01*
X138157388Y-94214462D01*
X138253484Y-94149668D01*
X138339163Y-94093287D01*
X138408984Y-94048788D01*
X138457506Y-94019639D01*
X138479218Y-94009308D01*
X138505707Y-94018050D01*
X138555938Y-94041087D01*
X138619549Y-94073631D01*
X138626292Y-94077249D01*
X138711954Y-94120210D01*
X138770694Y-94141279D01*
X138807228Y-94141503D01*
X138826269Y-94121928D01*
X138826380Y-94121654D01*
X138835898Y-94098472D01*
X138858597Y-94043441D01*
X138892718Y-93960822D01*
X138936500Y-93854872D01*
X138988184Y-93729852D01*
X139046008Y-93590020D01*
X139102009Y-93454637D01*
X139163553Y-93305234D01*
X139220061Y-93166832D01*
X139269839Y-93043673D01*
X139311194Y-92940002D01*
X139342432Y-92860059D01*
X139361859Y-92808088D01*
X139367846Y-92788692D01*
X139352832Y-92766443D01*
X139313561Y-92730982D01*
X139261193Y-92691887D01*
X139112059Y-92568245D01*
X138995489Y-92426522D01*
X138912882Y-92269704D01*
X138865634Y-92100775D01*
X138855143Y-91922722D01*
X138862769Y-91840539D01*
X138904318Y-91670031D01*
X138975877Y-91519459D01*
X139073005Y-91390309D01*
X139191266Y-91284064D01*
X139326220Y-91202210D01*
X139473429Y-91146232D01*
X139628456Y-91117615D01*
X139786861Y-91117844D01*
X139944206Y-91148405D01*
X140096054Y-91210782D01*
X140237965Y-91306460D01*
X140297197Y-91360572D01*
X140410797Y-91499520D01*
X140489894Y-91651361D01*
X140535014Y-91811667D01*
X140546684Y-91976012D01*
X140525431Y-92139971D01*
X140471780Y-92299118D01*
X140386260Y-92449025D01*
X140269395Y-92585267D01*
X140138807Y-92691887D01*
X140084412Y-92732642D01*
X140045986Y-92767718D01*
X140032154Y-92788726D01*
X140039397Y-92811635D01*
X140059995Y-92866365D01*
X140092254Y-92948672D01*
X140134479Y-93054315D01*
X140184977Y-93179050D01*
X140242052Y-93318636D01*
X140298146Y-93454670D01*
X140360033Y-93604201D01*
X140417356Y-93742767D01*
X140468356Y-93866107D01*
X140511273Y-93969964D01*
X140544347Y-94050080D01*
X140565819Y-94102195D01*
X140573775Y-94121654D01*
X140592571Y-94141423D01*
X140628926Y-94141365D01*
X140687521Y-94120441D01*
X140773032Y-94077613D01*
X140773708Y-94077249D01*
X140838093Y-94044012D01*
X140890139Y-94019802D01*
X140919488Y-94009404D01*
X140920783Y-94009308D01*
X140942876Y-94019855D01*
X140991652Y-94049184D01*
X141061669Y-94093827D01*
X141147486Y-94150314D01*
X141242612Y-94214462D01*
X141339460Y-94279411D01*
X141426747Y-94335896D01*
X141498819Y-94380421D01*
X141550023Y-94409490D01*
X141574474Y-94419616D01*
X141596990Y-94406307D01*
X141642258Y-94369112D01*
X141705756Y-94312128D01*
X141782961Y-94239449D01*
X141869349Y-94155171D01*
X141897601Y-94127016D01*
X142189713Y-93834416D01*
X141967369Y-93508104D01*
X141899798Y-93407897D01*
X141840493Y-93317963D01*
X141792783Y-93243510D01*
X141759993Y-93189751D01*
X141745452Y-93161894D01*
X141745026Y-93159912D01*
X141752692Y-93133655D01*
X141773311Y-93080837D01*
X141803315Y-93010310D01*
X141824375Y-92963093D01*
X141863752Y-92872694D01*
X141900835Y-92781366D01*
X141929585Y-92704200D01*
X141937395Y-92680692D01*
X141959583Y-92617916D01*
X141981273Y-92569411D01*
X141993187Y-92551079D01*
X142019477Y-92539859D01*
X142076858Y-92523954D01*
X142157882Y-92505167D01*
X142255105Y-92485299D01*
X142298615Y-92477132D01*
X142409104Y-92456829D01*
X142515084Y-92437170D01*
X142606199Y-92420088D01*
X142672092Y-92407518D01*
X142684500Y-92405091D01*
X142787077Y-92384845D01*
X142787077Y-91957701D01*
X142786847Y-91817246D01*
X142785901Y-91710979D01*
X142783859Y-91634013D01*
X142780338Y-91581460D01*
X142774957Y-91548433D01*
X142767334Y-91530045D01*
X142757088Y-91521408D01*
X142752885Y-91519807D01*
X142727530Y-91514127D01*
X142671516Y-91502795D01*
X142592036Y-91487179D01*
X142496288Y-91468647D01*
X142391467Y-91448569D01*
X142284768Y-91428312D01*
X142183387Y-91409246D01*
X142094521Y-91392739D01*
X142025363Y-91380159D01*
X141983111Y-91372875D01*
X141973710Y-91371616D01*
X141965193Y-91354763D01*
X141946340Y-91309870D01*
X141920676Y-91245430D01*
X141910877Y-91220192D01*
X141871352Y-91122686D01*
X141824808Y-91014959D01*
X141783123Y-90924172D01*
X141752450Y-90854753D01*
X141732044Y-90797710D01*
X141725232Y-90762777D01*
X141726318Y-90758095D01*
X141740715Y-90735991D01*
X141773588Y-90686831D01*
X141821410Y-90615848D01*
X141880652Y-90528278D01*
X141947785Y-90429357D01*
X141961059Y-90409830D01*
X142038954Y-90294140D01*
X142096213Y-90206044D01*
X142135119Y-90141486D01*
X142157956Y-90096411D01*
X142167006Y-90066763D01*
X142164552Y-90048485D01*
X142164489Y-90048369D01*
X142145173Y-90024361D01*
X142102449Y-89977947D01*
X142040949Y-89913937D01*
X141965302Y-89837145D01*
X141880139Y-89752382D01*
X141870535Y-89742922D01*
X141763210Y-89638989D01*
X141680385Y-89562675D01*
X141620395Y-89512571D01*
X141581577Y-89487270D01*
X141564480Y-89484004D01*
X141539527Y-89498250D01*
X141487745Y-89531156D01*
X141414480Y-89579208D01*
X141325080Y-89638890D01*
X141224889Y-89706688D01*
X141201499Y-89722639D01*
X140869407Y-89949420D01*
X140719435Y-89881353D01*
X140628230Y-89841685D01*
X140530331Y-89801791D01*
X140446169Y-89769983D01*
X140442462Y-89768674D01*
X140376631Y-89744576D01*
X140325884Y-89724200D01*
X140301158Y-89711936D01*
X140301116Y-89711901D01*
X140293271Y-89689734D01*
X140279934Y-89635217D01*
X140262430Y-89554480D01*
X140242083Y-89453650D01*
X140220218Y-89338856D01*
X140218429Y-89329178D01*
X140196496Y-89210904D01*
X140176360Y-89103542D01*
X140159320Y-89013917D01*
X140146672Y-88948851D01*
X140139716Y-88915168D01*
X140139594Y-88914654D01*
X140135361Y-88900325D01*
X140127129Y-88889507D01*
X140109967Y-88881706D01*
X140078942Y-88876429D01*
X140029122Y-88873182D01*
X139955576Y-88871472D01*
X139853371Y-88870807D01*
X139717575Y-88870693D01*
X139700000Y-88870692D01*
X139560122Y-88870776D01*
G36*
X135454776Y-95230838D02*
G01*
X135377472Y-95281361D01*
X135340186Y-95326590D01*
X135310647Y-95408663D01*
X135308301Y-95473607D01*
X135313615Y-95560445D01*
X135513885Y-95648103D01*
X135611261Y-95692887D01*
X135674887Y-95728913D01*
X135707971Y-95760117D01*
X135713720Y-95790436D01*
X135695342Y-95823805D01*
X135675077Y-95845923D01*
X135616111Y-95881393D01*
X135551976Y-95883879D01*
X135493074Y-95856235D01*
X135449803Y-95801320D01*
X135442064Y-95781928D01*
X135404994Y-95721364D01*
X135362346Y-95695552D01*
X135303846Y-95673471D01*
X135303846Y-95757184D01*
X135309018Y-95814150D01*
X135329277Y-95862189D01*
X135371738Y-95917346D01*
X135378049Y-95924514D01*
X135425280Y-95973585D01*
X135465879Y-95999920D01*
X135516672Y-96012035D01*
X135558780Y-96016003D01*
X135634098Y-96016991D01*
X135687714Y-96004466D01*
X135721162Y-95985869D01*
X135773732Y-95944975D01*
X135810121Y-95900748D01*
X135833150Y-95845126D01*
X135845641Y-95770047D01*
X135850413Y-95667449D01*
X135850794Y-95615376D01*
X135849499Y-95552948D01*
X135731529Y-95552948D01*
X135730161Y-95586438D01*
X135726751Y-95591923D01*
X135704247Y-95584472D01*
X135655818Y-95564753D01*
X135591092Y-95536718D01*
X135577557Y-95530692D01*
X135495756Y-95489096D01*
X135450688Y-95452538D01*
X135440783Y-95418296D01*
X135464474Y-95383648D01*
X135484040Y-95368339D01*
X135554640Y-95337721D01*
X135620720Y-95342780D01*
X135676041Y-95380151D01*
X135714364Y-95446473D01*
X135726651Y-95499116D01*
X135731529Y-95552948D01*
X135849499Y-95552948D01*
X135848270Y-95493720D01*
X135838968Y-95403710D01*
X135820540Y-95338167D01*
X135790640Y-95289912D01*
X135746920Y-95251767D01*
X135727859Y-95239440D01*
X135641274Y-95207336D01*
X135546478Y-95205316D01*
X135454776Y-95230838D01*
G37*
X135454776Y-95230838D02*
X135377472Y-95281361D01*
X135340186Y-95326590D01*
X135310647Y-95408663D01*
X135308301Y-95473607D01*
X135313615Y-95560445D01*
X135513885Y-95648103D01*
X135611261Y-95692887D01*
X135674887Y-95728913D01*
X135707971Y-95760117D01*
X135713720Y-95790436D01*
X135695342Y-95823805D01*
X135675077Y-95845923D01*
X135616111Y-95881393D01*
X135551976Y-95883879D01*
X135493074Y-95856235D01*
X135449803Y-95801320D01*
X135442064Y-95781928D01*
X135404994Y-95721364D01*
X135362346Y-95695552D01*
X135303846Y-95673471D01*
X135303846Y-95757184D01*
X135309018Y-95814150D01*
X135329277Y-95862189D01*
X135371738Y-95917346D01*
X135378049Y-95924514D01*
X135425280Y-95973585D01*
X135465879Y-95999920D01*
X135516672Y-96012035D01*
X135558780Y-96016003D01*
X135634098Y-96016991D01*
X135687714Y-96004466D01*
X135721162Y-95985869D01*
X135773732Y-95944975D01*
X135810121Y-95900748D01*
X135833150Y-95845126D01*
X135845641Y-95770047D01*
X135850413Y-95667449D01*
X135850794Y-95615376D01*
X135849499Y-95552948D01*
X135731529Y-95552948D01*
X135730161Y-95586438D01*
X135726751Y-95591923D01*
X135704247Y-95584472D01*
X135655818Y-95564753D01*
X135591092Y-95536718D01*
X135577557Y-95530692D01*
X135495756Y-95489096D01*
X135450688Y-95452538D01*
X135440783Y-95418296D01*
X135464474Y-95383648D01*
X135484040Y-95368339D01*
X135554640Y-95337721D01*
X135620720Y-95342780D01*
X135676041Y-95380151D01*
X135714364Y-95446473D01*
X135726651Y-95499116D01*
X135731529Y-95552948D01*
X135849499Y-95552948D01*
X135848270Y-95493720D01*
X135838968Y-95403710D01*
X135820540Y-95338167D01*
X135790640Y-95289912D01*
X135746920Y-95251767D01*
X135727859Y-95239440D01*
X135641274Y-95207336D01*
X135546478Y-95205316D01*
X135454776Y-95230838D01*
G36*
X136129193Y-95219782D02*
G01*
X136105839Y-95229988D01*
X136050098Y-95274134D01*
X136002431Y-95337967D01*
X135972952Y-95406087D01*
X135968154Y-95439670D01*
X135984240Y-95486556D01*
X136019525Y-95511365D01*
X136057356Y-95526387D01*
X136074679Y-95529155D01*
X136083114Y-95509066D01*
X136099770Y-95465351D01*
X136107077Y-95445598D01*
X136148052Y-95377271D01*
X136207378Y-95343191D01*
X136283448Y-95344239D01*
X136289082Y-95345581D01*
X136329695Y-95364836D01*
X136359552Y-95402375D01*
X136379945Y-95462809D01*
X136392164Y-95550751D01*
X136397500Y-95670813D01*
X136398000Y-95734698D01*
X136398248Y-95835403D01*
X136399874Y-95904054D01*
X136404199Y-95947673D01*
X136412546Y-95973282D01*
X136426235Y-95987903D01*
X136446589Y-95998558D01*
X136447766Y-95999095D01*
X136486962Y-96015667D01*
X136506381Y-96021769D01*
X136509365Y-96003319D01*
X136511919Y-95952323D01*
X136513860Y-95875308D01*
X136515003Y-95778805D01*
X136515231Y-95708184D01*
X136514068Y-95571525D01*
X136509521Y-95467851D01*
X136500001Y-95391108D01*
X136483919Y-95335246D01*
X136459687Y-95294212D01*
X136425714Y-95261954D01*
X136392167Y-95239440D01*
X136311501Y-95209476D01*
X136217619Y-95202718D01*
X136129193Y-95219782D01*
G37*
X136129193Y-95219782D02*
X136105839Y-95229988D01*
X136050098Y-95274134D01*
X136002431Y-95337967D01*
X135972952Y-95406087D01*
X135968154Y-95439670D01*
X135984240Y-95486556D01*
X136019525Y-95511365D01*
X136057356Y-95526387D01*
X136074679Y-95529155D01*
X136083114Y-95509066D01*
X136099770Y-95465351D01*
X136107077Y-95445598D01*
X136148052Y-95377271D01*
X136207378Y-95343191D01*
X136283448Y-95344239D01*
X136289082Y-95345581D01*
X136329695Y-95364836D01*
X136359552Y-95402375D01*
X136379945Y-95462809D01*
X136392164Y-95550751D01*
X136397500Y-95670813D01*
X136398000Y-95734698D01*
X136398248Y-95835403D01*
X136399874Y-95904054D01*
X136404199Y-95947673D01*
X136412546Y-95973282D01*
X136426235Y-95987903D01*
X136446589Y-95998558D01*
X136447766Y-95999095D01*
X136486962Y-96015667D01*
X136506381Y-96021769D01*
X136509365Y-96003319D01*
X136511919Y-95952323D01*
X136513860Y-95875308D01*
X136515003Y-95778805D01*
X136515231Y-95708184D01*
X136514068Y-95571525D01*
X136509521Y-95467851D01*
X136500001Y-95391108D01*
X136483919Y-95335246D01*
X136459687Y-95294212D01*
X136425714Y-95261954D01*
X136392167Y-95239440D01*
X136311501Y-95209476D01*
X136217619Y-95202718D01*
X136129193Y-95219782D01*
G36*
X136812667Y-95216528D02*
G01*
X136756410Y-95242117D01*
X136712253Y-95273124D01*
X136679899Y-95307795D01*
X136657562Y-95352520D01*
X136643454Y-95413692D01*
X136635789Y-95497701D01*
X136632780Y-95610940D01*
X136632462Y-95685509D01*
X136632462Y-95976420D01*
X136682227Y-95999095D01*
X136721424Y-96015667D01*
X136740843Y-96021769D01*
X136744558Y-96003610D01*
X136747505Y-95954648D01*
X136749309Y-95883153D01*
X136749692Y-95826385D01*
X136751339Y-95744371D01*
X136755778Y-95679309D01*
X136762260Y-95639467D01*
X136767410Y-95631000D01*
X136802023Y-95639646D01*
X136856360Y-95661823D01*
X136919278Y-95691886D01*
X136979632Y-95724192D01*
X137026279Y-95753098D01*
X137048074Y-95772961D01*
X137048161Y-95773175D01*
X137046286Y-95809935D01*
X137029475Y-95845026D01*
X136999961Y-95873528D01*
X136956884Y-95883061D01*
X136920068Y-95881950D01*
X136867926Y-95881133D01*
X136840556Y-95893349D01*
X136824118Y-95925624D01*
X136822045Y-95931710D01*
X136814919Y-95977739D01*
X136833976Y-96005687D01*
X136883647Y-96019007D01*
X136937303Y-96021470D01*
X137033858Y-96003210D01*
X137083841Y-95977131D01*
X137145571Y-95915868D01*
X137178310Y-95840670D01*
X137181247Y-95761211D01*
X137153576Y-95687167D01*
X137111953Y-95640769D01*
X137070396Y-95614793D01*
X137005078Y-95581907D01*
X136928962Y-95548557D01*
X136916274Y-95543461D01*
X136832667Y-95506565D01*
X136784470Y-95474046D01*
X136768970Y-95441718D01*
X136783450Y-95405394D01*
X136808308Y-95377000D01*
X136867061Y-95342039D01*
X136931707Y-95339417D01*
X136990992Y-95366358D01*
X137033661Y-95420088D01*
X137039261Y-95433950D01*
X137071867Y-95484936D01*
X137119470Y-95522787D01*
X137179539Y-95553850D01*
X137179539Y-95465768D01*
X137176003Y-95411951D01*
X137160844Y-95369534D01*
X137127232Y-95324279D01*
X137094965Y-95289420D01*
X137044791Y-95240062D01*
X137005807Y-95213547D01*
X136963936Y-95202911D01*
X136916540Y-95201154D01*
X136812667Y-95216528D01*
G37*
X136812667Y-95216528D02*
X136756410Y-95242117D01*
X136712253Y-95273124D01*
X136679899Y-95307795D01*
X136657562Y-95352520D01*
X136643454Y-95413692D01*
X136635789Y-95497701D01*
X136632780Y-95610940D01*
X136632462Y-95685509D01*
X136632462Y-95976420D01*
X136682227Y-95999095D01*
X136721424Y-96015667D01*
X136740843Y-96021769D01*
X136744558Y-96003610D01*
X136747505Y-95954648D01*
X136749309Y-95883153D01*
X136749692Y-95826385D01*
X136751339Y-95744371D01*
X136755778Y-95679309D01*
X136762260Y-95639467D01*
X136767410Y-95631000D01*
X136802023Y-95639646D01*
X136856360Y-95661823D01*
X136919278Y-95691886D01*
X136979632Y-95724192D01*
X137026279Y-95753098D01*
X137048074Y-95772961D01*
X137048161Y-95773175D01*
X137046286Y-95809935D01*
X137029475Y-95845026D01*
X136999961Y-95873528D01*
X136956884Y-95883061D01*
X136920068Y-95881950D01*
X136867926Y-95881133D01*
X136840556Y-95893349D01*
X136824118Y-95925624D01*
X136822045Y-95931710D01*
X136814919Y-95977739D01*
X136833976Y-96005687D01*
X136883647Y-96019007D01*
X136937303Y-96021470D01*
X137033858Y-96003210D01*
X137083841Y-95977131D01*
X137145571Y-95915868D01*
X137178310Y-95840670D01*
X137181247Y-95761211D01*
X137153576Y-95687167D01*
X137111953Y-95640769D01*
X137070396Y-95614793D01*
X137005078Y-95581907D01*
X136928962Y-95548557D01*
X136916274Y-95543461D01*
X136832667Y-95506565D01*
X136784470Y-95474046D01*
X136768970Y-95441718D01*
X136783450Y-95405394D01*
X136808308Y-95377000D01*
X136867061Y-95342039D01*
X136931707Y-95339417D01*
X136990992Y-95366358D01*
X137033661Y-95420088D01*
X137039261Y-95433950D01*
X137071867Y-95484936D01*
X137119470Y-95522787D01*
X137179539Y-95553850D01*
X137179539Y-95465768D01*
X137176003Y-95411951D01*
X137160844Y-95369534D01*
X137127232Y-95324279D01*
X137094965Y-95289420D01*
X137044791Y-95240062D01*
X137005807Y-95213547D01*
X136963936Y-95202911D01*
X136916540Y-95201154D01*
X136812667Y-95216528D01*
G36*
X137304071Y-95219662D02*
G01*
X137301089Y-95271068D01*
X137298753Y-95349192D01*
X137297251Y-95447857D01*
X137296769Y-95551343D01*
X137296769Y-95901533D01*
X137358599Y-95963363D01*
X137401207Y-96001462D01*
X137438610Y-96016895D01*
X137489730Y-96015918D01*
X137510022Y-96013433D01*
X137573446Y-96006200D01*
X137625905Y-96002055D01*
X137638692Y-96001672D01*
X137681801Y-96004176D01*
X137743456Y-96010462D01*
X137767362Y-96013433D01*
X137826078Y-96018028D01*
X137865536Y-96008046D01*
X137904662Y-95977228D01*
X137918785Y-95963363D01*
X137980615Y-95901533D01*
X137980615Y-95246503D01*
X137930850Y-95223829D01*
X137887998Y-95207034D01*
X137862927Y-95201154D01*
X137856499Y-95219736D01*
X137850491Y-95271655D01*
X137845303Y-95351172D01*
X137841336Y-95452546D01*
X137839423Y-95538192D01*
X137834077Y-95875231D01*
X137787440Y-95881825D01*
X137745024Y-95877214D01*
X137724240Y-95862287D01*
X137718430Y-95834377D01*
X137713470Y-95774925D01*
X137709754Y-95691466D01*
X137707676Y-95591532D01*
X137707376Y-95540104D01*
X137707077Y-95244054D01*
X137645546Y-95222604D01*
X137601996Y-95208020D01*
X137578306Y-95201219D01*
X137577623Y-95201154D01*
X137575246Y-95219642D01*
X137572634Y-95270906D01*
X137570005Y-95348649D01*
X137567579Y-95446574D01*
X137565885Y-95538192D01*
X137560539Y-95875231D01*
X137443308Y-95875231D01*
X137437928Y-95567746D01*
X137432549Y-95260261D01*
X137375399Y-95230707D01*
X137333203Y-95210413D01*
X137308230Y-95201204D01*
X137307509Y-95201154D01*
X137304071Y-95219662D01*
G37*
X137304071Y-95219662D02*
X137301089Y-95271068D01*
X137298753Y-95349192D01*
X137297251Y-95447857D01*
X137296769Y-95551343D01*
X137296769Y-95901533D01*
X137358599Y-95963363D01*
X137401207Y-96001462D01*
X137438610Y-96016895D01*
X137489730Y-96015918D01*
X137510022Y-96013433D01*
X137573446Y-96006200D01*
X137625905Y-96002055D01*
X137638692Y-96001672D01*
X137681801Y-96004176D01*
X137743456Y-96010462D01*
X137767362Y-96013433D01*
X137826078Y-96018028D01*
X137865536Y-96008046D01*
X137904662Y-95977228D01*
X137918785Y-95963363D01*
X137980615Y-95901533D01*
X137980615Y-95246503D01*
X137930850Y-95223829D01*
X137887998Y-95207034D01*
X137862927Y-95201154D01*
X137856499Y-95219736D01*
X137850491Y-95271655D01*
X137845303Y-95351172D01*
X137841336Y-95452546D01*
X137839423Y-95538192D01*
X137834077Y-95875231D01*
X137787440Y-95881825D01*
X137745024Y-95877214D01*
X137724240Y-95862287D01*
X137718430Y-95834377D01*
X137713470Y-95774925D01*
X137709754Y-95691466D01*
X137707676Y-95591532D01*
X137707376Y-95540104D01*
X137707077Y-95244054D01*
X137645546Y-95222604D01*
X137601996Y-95208020D01*
X137578306Y-95201219D01*
X137577623Y-95201154D01*
X137575246Y-95219642D01*
X137572634Y-95270906D01*
X137570005Y-95348649D01*
X137567579Y-95446574D01*
X137565885Y-95538192D01*
X137560539Y-95875231D01*
X137443308Y-95875231D01*
X137437928Y-95567746D01*
X137432549Y-95260261D01*
X137375399Y-95230707D01*
X137333203Y-95210413D01*
X137308230Y-95201204D01*
X137307509Y-95201154D01*
X137304071Y-95219662D01*
G36*
X138097919Y-95363289D02*
G01*
X138098167Y-95509320D01*
X138099128Y-95621655D01*
X138101206Y-95705678D01*
X138104807Y-95766769D01*
X138110335Y-95810309D01*
X138118196Y-95841679D01*
X138128793Y-95866262D01*
X138136818Y-95880294D01*
X138203272Y-95956388D01*
X138287530Y-96004084D01*
X138380751Y-96021199D01*
X138474100Y-96005546D01*
X138529688Y-95977418D01*
X138588043Y-95928760D01*
X138627814Y-95869333D01*
X138651810Y-95791507D01*
X138662839Y-95687652D01*
X138664401Y-95611462D01*
X138664191Y-95605986D01*
X138527692Y-95605986D01*
X138526859Y-95693355D01*
X138523039Y-95751192D01*
X138514254Y-95789029D01*
X138498526Y-95816398D01*
X138479734Y-95837042D01*
X138416625Y-95876890D01*
X138348863Y-95880295D01*
X138284821Y-95847025D01*
X138279836Y-95842517D01*
X138258561Y-95819067D01*
X138245221Y-95791166D01*
X138237999Y-95749641D01*
X138235077Y-95685316D01*
X138234615Y-95614200D01*
X138235617Y-95524858D01*
X138239762Y-95465258D01*
X138248764Y-95426089D01*
X138264333Y-95398040D01*
X138277098Y-95383144D01*
X138336400Y-95345575D01*
X138404699Y-95341057D01*
X138469890Y-95369753D01*
X138482472Y-95380406D01*
X138503889Y-95404063D01*
X138517256Y-95432251D01*
X138524434Y-95474245D01*
X138527281Y-95539319D01*
X138527692Y-95605986D01*
X138664191Y-95605986D01*
X138659678Y-95488765D01*
X138643638Y-95396577D01*
X138613472Y-95327269D01*
X138566371Y-95273211D01*
X138529688Y-95245505D01*
X138463010Y-95215572D01*
X138385728Y-95201678D01*
X138313890Y-95205397D01*
X138273692Y-95220400D01*
X138257918Y-95224670D01*
X138247450Y-95208750D01*
X138240144Y-95166089D01*
X138234615Y-95101106D01*
X138228563Y-95028732D01*
X138220156Y-94985187D01*
X138204859Y-94960287D01*
X138178136Y-94943845D01*
X138161346Y-94936564D01*
X138097846Y-94909963D01*
X138097919Y-95363289D01*
G37*
X138097919Y-95363289D02*
X138098167Y-95509320D01*
X138099128Y-95621655D01*
X138101206Y-95705678D01*
X138104807Y-95766769D01*
X138110335Y-95810309D01*
X138118196Y-95841679D01*
X138128793Y-95866262D01*
X138136818Y-95880294D01*
X138203272Y-95956388D01*
X138287530Y-96004084D01*
X138380751Y-96021199D01*
X138474100Y-96005546D01*
X138529688Y-95977418D01*
X138588043Y-95928760D01*
X138627814Y-95869333D01*
X138651810Y-95791507D01*
X138662839Y-95687652D01*
X138664401Y-95611462D01*
X138664191Y-95605986D01*
X138527692Y-95605986D01*
X138526859Y-95693355D01*
X138523039Y-95751192D01*
X138514254Y-95789029D01*
X138498526Y-95816398D01*
X138479734Y-95837042D01*
X138416625Y-95876890D01*
X138348863Y-95880295D01*
X138284821Y-95847025D01*
X138279836Y-95842517D01*
X138258561Y-95819067D01*
X138245221Y-95791166D01*
X138237999Y-95749641D01*
X138235077Y-95685316D01*
X138234615Y-95614200D01*
X138235617Y-95524858D01*
X138239762Y-95465258D01*
X138248764Y-95426089D01*
X138264333Y-95398040D01*
X138277098Y-95383144D01*
X138336400Y-95345575D01*
X138404699Y-95341057D01*
X138469890Y-95369753D01*
X138482472Y-95380406D01*
X138503889Y-95404063D01*
X138517256Y-95432251D01*
X138524434Y-95474245D01*
X138527281Y-95539319D01*
X138527692Y-95605986D01*
X138664191Y-95605986D01*
X138659678Y-95488765D01*
X138643638Y-95396577D01*
X138613472Y-95327269D01*
X138566371Y-95273211D01*
X138529688Y-95245505D01*
X138463010Y-95215572D01*
X138385728Y-95201678D01*
X138313890Y-95205397D01*
X138273692Y-95220400D01*
X138257918Y-95224670D01*
X138247450Y-95208750D01*
X138240144Y-95166089D01*
X138234615Y-95101106D01*
X138228563Y-95028732D01*
X138220156Y-94985187D01*
X138204859Y-94960287D01*
X138178136Y-94943845D01*
X138161346Y-94936564D01*
X138097846Y-94909963D01*
X138097919Y-95363289D01*
G36*
X138986638Y-95207670D02*
G01*
X138897883Y-95240421D01*
X138825978Y-95298350D01*
X138797856Y-95339128D01*
X138767198Y-95413954D01*
X138767835Y-95468058D01*
X138800013Y-95504446D01*
X138811919Y-95510633D01*
X138863325Y-95529925D01*
X138889578Y-95524982D01*
X138898470Y-95492587D01*
X138898923Y-95474692D01*
X138915203Y-95408859D01*
X138957635Y-95362807D01*
X139016612Y-95340564D01*
X139082525Y-95346161D01*
X139136105Y-95375229D01*
X139154202Y-95391810D01*
X139167029Y-95411925D01*
X139175694Y-95442332D01*
X139181304Y-95489788D01*
X139184965Y-95561050D01*
X139187785Y-95662875D01*
X139188516Y-95695115D01*
X139191180Y-95805410D01*
X139194208Y-95883036D01*
X139198750Y-95934396D01*
X139205954Y-95965890D01*
X139216967Y-95983920D01*
X139232940Y-95994888D01*
X139243166Y-95999733D01*
X139286594Y-96016301D01*
X139312158Y-96021769D01*
X139320605Y-96003507D01*
X139325761Y-95948296D01*
X139327654Y-95855499D01*
X139326311Y-95724478D01*
X139325893Y-95704269D01*
X139322942Y-95584733D01*
X139319452Y-95497449D01*
X139314486Y-95435591D01*
X139307107Y-95392336D01*
X139296376Y-95360860D01*
X139281355Y-95334339D01*
X139273498Y-95322975D01*
X139228447Y-95272692D01*
X139178060Y-95233581D01*
X139171892Y-95230167D01*
X139081542Y-95203212D01*
X138986638Y-95207670D01*
G37*
X138986638Y-95207670D02*
X138897883Y-95240421D01*
X138825978Y-95298350D01*
X138797856Y-95339128D01*
X138767198Y-95413954D01*
X138767835Y-95468058D01*
X138800013Y-95504446D01*
X138811919Y-95510633D01*
X138863325Y-95529925D01*
X138889578Y-95524982D01*
X138898470Y-95492587D01*
X138898923Y-95474692D01*
X138915203Y-95408859D01*
X138957635Y-95362807D01*
X139016612Y-95340564D01*
X139082525Y-95346161D01*
X139136105Y-95375229D01*
X139154202Y-95391810D01*
X139167029Y-95411925D01*
X139175694Y-95442332D01*
X139181304Y-95489788D01*
X139184965Y-95561050D01*
X139187785Y-95662875D01*
X139188516Y-95695115D01*
X139191180Y-95805410D01*
X139194208Y-95883036D01*
X139198750Y-95934396D01*
X139205954Y-95965890D01*
X139216967Y-95983920D01*
X139232940Y-95994888D01*
X139243166Y-95999733D01*
X139286594Y-96016301D01*
X139312158Y-96021769D01*
X139320605Y-96003507D01*
X139325761Y-95948296D01*
X139327654Y-95855499D01*
X139326311Y-95724478D01*
X139325893Y-95704269D01*
X139322942Y-95584733D01*
X139319452Y-95497449D01*
X139314486Y-95435591D01*
X139307107Y-95392336D01*
X139296376Y-95360860D01*
X139281355Y-95334339D01*
X139273498Y-95322975D01*
X139228447Y-95272692D01*
X139178060Y-95233581D01*
X139171892Y-95230167D01*
X139081542Y-95203212D01*
X138986638Y-95207670D01*
G36*
X139646499Y-95209303D02*
G01*
X139569940Y-95237733D01*
X139569064Y-95238279D01*
X139521715Y-95273127D01*
X139486759Y-95313852D01*
X139462175Y-95366925D01*
X139445938Y-95438814D01*
X139436025Y-95535992D01*
X139430414Y-95664928D01*
X139429923Y-95683298D01*
X139422859Y-95960287D01*
X139482305Y-95991028D01*
X139525319Y-96011802D01*
X139551290Y-96021646D01*
X139552491Y-96021769D01*
X139556986Y-96003606D01*
X139560556Y-95954612D01*
X139562752Y-95883031D01*
X139563231Y-95825068D01*
X139563242Y-95731170D01*
X139567534Y-95672203D01*
X139582497Y-95644079D01*
X139614518Y-95642706D01*
X139669986Y-95663998D01*
X139753731Y-95703136D01*
X139815311Y-95735643D01*
X139846983Y-95763845D01*
X139856294Y-95794582D01*
X139856308Y-95796104D01*
X139840943Y-95849054D01*
X139795453Y-95877660D01*
X139725834Y-95881803D01*
X139675687Y-95881084D01*
X139649246Y-95895527D01*
X139632757Y-95930218D01*
X139623267Y-95974416D01*
X139636943Y-95999493D01*
X139642093Y-96003082D01*
X139690575Y-96017496D01*
X139758469Y-96019537D01*
X139828388Y-96009983D01*
X139877932Y-95992522D01*
X139946430Y-95934364D01*
X139985366Y-95853408D01*
X139993077Y-95790160D01*
X139987193Y-95733111D01*
X139965899Y-95686542D01*
X139923735Y-95645181D01*
X139855241Y-95603755D01*
X139754956Y-95556993D01*
X139748846Y-95554350D01*
X139658510Y-95512617D01*
X139602765Y-95478391D01*
X139578871Y-95447635D01*
X139584087Y-95416311D01*
X139615672Y-95380383D01*
X139625117Y-95372116D01*
X139688383Y-95340058D01*
X139753936Y-95341407D01*
X139811028Y-95372838D01*
X139848907Y-95431024D01*
X139852426Y-95442446D01*
X139886700Y-95497837D01*
X139930191Y-95524518D01*
X139993077Y-95550960D01*
X139993077Y-95482548D01*
X139973948Y-95383110D01*
X139917169Y-95291902D01*
X139887622Y-95261389D01*
X139820458Y-95222228D01*
X139735044Y-95204500D01*
X139646499Y-95209303D01*
G37*
X139646499Y-95209303D02*
X139569940Y-95237733D01*
X139569064Y-95238279D01*
X139521715Y-95273127D01*
X139486759Y-95313852D01*
X139462175Y-95366925D01*
X139445938Y-95438814D01*
X139436025Y-95535992D01*
X139430414Y-95664928D01*
X139429923Y-95683298D01*
X139422859Y-95960287D01*
X139482305Y-95991028D01*
X139525319Y-96011802D01*
X139551290Y-96021646D01*
X139552491Y-96021769D01*
X139556986Y-96003606D01*
X139560556Y-95954612D01*
X139562752Y-95883031D01*
X139563231Y-95825068D01*
X139563242Y-95731170D01*
X139567534Y-95672203D01*
X139582497Y-95644079D01*
X139614518Y-95642706D01*
X139669986Y-95663998D01*
X139753731Y-95703136D01*
X139815311Y-95735643D01*
X139846983Y-95763845D01*
X139856294Y-95794582D01*
X139856308Y-95796104D01*
X139840943Y-95849054D01*
X139795453Y-95877660D01*
X139725834Y-95881803D01*
X139675687Y-95881084D01*
X139649246Y-95895527D01*
X139632757Y-95930218D01*
X139623267Y-95974416D01*
X139636943Y-95999493D01*
X139642093Y-96003082D01*
X139690575Y-96017496D01*
X139758469Y-96019537D01*
X139828388Y-96009983D01*
X139877932Y-95992522D01*
X139946430Y-95934364D01*
X139985366Y-95853408D01*
X139993077Y-95790160D01*
X139987193Y-95733111D01*
X139965899Y-95686542D01*
X139923735Y-95645181D01*
X139855241Y-95603755D01*
X139754956Y-95556993D01*
X139748846Y-95554350D01*
X139658510Y-95512617D01*
X139602765Y-95478391D01*
X139578871Y-95447635D01*
X139584087Y-95416311D01*
X139615672Y-95380383D01*
X139625117Y-95372116D01*
X139688383Y-95340058D01*
X139753936Y-95341407D01*
X139811028Y-95372838D01*
X139848907Y-95431024D01*
X139852426Y-95442446D01*
X139886700Y-95497837D01*
X139930191Y-95524518D01*
X139993077Y-95550960D01*
X139993077Y-95482548D01*
X139973948Y-95383110D01*
X139917169Y-95291902D01*
X139887622Y-95261389D01*
X139820458Y-95222228D01*
X139735044Y-95204500D01*
X139646499Y-95209303D01*
G36*
X140540154Y-95075120D02*
G01*
X140534428Y-95154980D01*
X140527851Y-95202039D01*
X140518738Y-95222566D01*
X140505402Y-95222829D01*
X140501077Y-95220378D01*
X140443556Y-95202636D01*
X140368732Y-95203672D01*
X140292661Y-95221910D01*
X140245082Y-95245505D01*
X140196298Y-95283198D01*
X140160636Y-95325855D01*
X140136155Y-95380057D01*
X140120913Y-95452384D01*
X140112970Y-95549419D01*
X140110384Y-95677742D01*
X140110338Y-95702358D01*
X140110308Y-95978870D01*
X140171839Y-96000320D01*
X140215541Y-96014912D01*
X140239518Y-96021706D01*
X140240223Y-96021769D01*
X140242585Y-96003345D01*
X140244594Y-95952526D01*
X140246099Y-95875993D01*
X140246947Y-95780430D01*
X140247077Y-95722329D01*
X140247349Y-95607771D01*
X140248748Y-95525667D01*
X140252151Y-95469393D01*
X140258433Y-95432326D01*
X140268471Y-95407844D01*
X140283139Y-95389325D01*
X140292298Y-95380406D01*
X140355211Y-95344466D01*
X140423864Y-95341775D01*
X140486152Y-95372170D01*
X140497671Y-95383144D01*
X140514567Y-95403779D01*
X140526286Y-95428256D01*
X140533767Y-95463647D01*
X140537946Y-95517026D01*
X140539763Y-95595466D01*
X140540154Y-95703617D01*
X140540154Y-95978870D01*
X140601685Y-96000320D01*
X140645387Y-96014912D01*
X140669364Y-96021706D01*
X140670070Y-96021769D01*
X140671874Y-96003069D01*
X140673500Y-95950322D01*
X140674883Y-95868557D01*
X140675958Y-95762805D01*
X140676660Y-95638094D01*
X140676923Y-95499455D01*
X140676923Y-94964806D01*
X140549923Y-94911236D01*
X140540154Y-95075120D01*
G37*
X140540154Y-95075120D02*
X140534428Y-95154980D01*
X140527851Y-95202039D01*
X140518738Y-95222566D01*
X140505402Y-95222829D01*
X140501077Y-95220378D01*
X140443556Y-95202636D01*
X140368732Y-95203672D01*
X140292661Y-95221910D01*
X140245082Y-95245505D01*
X140196298Y-95283198D01*
X140160636Y-95325855D01*
X140136155Y-95380057D01*
X140120913Y-95452384D01*
X140112970Y-95549419D01*
X140110384Y-95677742D01*
X140110338Y-95702358D01*
X140110308Y-95978870D01*
X140171839Y-96000320D01*
X140215541Y-96014912D01*
X140239518Y-96021706D01*
X140240223Y-96021769D01*
X140242585Y-96003345D01*
X140244594Y-95952526D01*
X140246099Y-95875993D01*
X140246947Y-95780430D01*
X140247077Y-95722329D01*
X140247349Y-95607771D01*
X140248748Y-95525667D01*
X140252151Y-95469393D01*
X140258433Y-95432326D01*
X140268471Y-95407844D01*
X140283139Y-95389325D01*
X140292298Y-95380406D01*
X140355211Y-95344466D01*
X140423864Y-95341775D01*
X140486152Y-95372170D01*
X140497671Y-95383144D01*
X140514567Y-95403779D01*
X140526286Y-95428256D01*
X140533767Y-95463647D01*
X140537946Y-95517026D01*
X140539763Y-95595466D01*
X140540154Y-95703617D01*
X140540154Y-95978870D01*
X140601685Y-96000320D01*
X140645387Y-96014912D01*
X140669364Y-96021706D01*
X140670070Y-96021769D01*
X140671874Y-96003069D01*
X140673500Y-95950322D01*
X140674883Y-95868557D01*
X140675958Y-95762805D01*
X140676660Y-95638094D01*
X140676923Y-95499455D01*
X140676923Y-94964806D01*
X140549923Y-94911236D01*
X140540154Y-95075120D01*
G36*
X142165746Y-95182745D02*
G01*
X142088714Y-95234567D01*
X142029184Y-95309412D01*
X141993622Y-95404654D01*
X141986429Y-95474756D01*
X141987246Y-95504009D01*
X141994086Y-95526407D01*
X142012888Y-95546474D01*
X142049592Y-95568733D01*
X142110138Y-95597709D01*
X142200466Y-95637927D01*
X142200923Y-95638129D01*
X142284067Y-95676210D01*
X142352247Y-95710025D01*
X142398495Y-95735933D01*
X142415842Y-95750295D01*
X142415846Y-95750411D01*
X142400557Y-95781685D01*
X142364804Y-95816157D01*
X142323758Y-95840990D01*
X142302963Y-95845923D01*
X142246230Y-95828862D01*
X142197373Y-95786133D01*
X142173535Y-95739155D01*
X142150603Y-95704522D01*
X142105682Y-95665081D01*
X142052877Y-95631009D01*
X142006290Y-95612480D01*
X141996548Y-95611462D01*
X141985582Y-95628215D01*
X141984921Y-95671039D01*
X141992980Y-95728781D01*
X142008173Y-95790289D01*
X142028914Y-95844409D01*
X142029962Y-95846510D01*
X142092379Y-95933660D01*
X142173274Y-95992939D01*
X142265144Y-96022034D01*
X142360487Y-96018634D01*
X142451802Y-95980428D01*
X142455862Y-95977741D01*
X142527694Y-95912642D01*
X142574927Y-95827705D01*
X142601066Y-95716021D01*
X142604574Y-95684643D01*
X142610787Y-95536536D01*
X142603339Y-95467468D01*
X142415846Y-95467468D01*
X142413410Y-95510552D01*
X142400086Y-95523126D01*
X142366868Y-95513719D01*
X142314506Y-95491483D01*
X142255976Y-95463610D01*
X142254521Y-95462872D01*
X142204911Y-95436777D01*
X142185000Y-95419363D01*
X142189910Y-95401107D01*
X142210584Y-95377120D01*
X142263181Y-95342406D01*
X142319823Y-95339856D01*
X142370631Y-95365119D01*
X142405724Y-95413847D01*
X142415846Y-95467468D01*
X142603339Y-95467468D01*
X142598008Y-95418036D01*
X142565222Y-95324055D01*
X142519579Y-95258215D01*
X142437198Y-95191681D01*
X142346454Y-95158676D01*
X142253815Y-95156573D01*
X142165746Y-95182745D01*
G37*
X142165746Y-95182745D02*
X142088714Y-95234567D01*
X142029184Y-95309412D01*
X141993622Y-95404654D01*
X141986429Y-95474756D01*
X141987246Y-95504009D01*
X141994086Y-95526407D01*
X142012888Y-95546474D01*
X142049592Y-95568733D01*
X142110138Y-95597709D01*
X142200466Y-95637927D01*
X142200923Y-95638129D01*
X142284067Y-95676210D01*
X142352247Y-95710025D01*
X142398495Y-95735933D01*
X142415842Y-95750295D01*
X142415846Y-95750411D01*
X142400557Y-95781685D01*
X142364804Y-95816157D01*
X142323758Y-95840990D01*
X142302963Y-95845923D01*
X142246230Y-95828862D01*
X142197373Y-95786133D01*
X142173535Y-95739155D01*
X142150603Y-95704522D01*
X142105682Y-95665081D01*
X142052877Y-95631009D01*
X142006290Y-95612480D01*
X141996548Y-95611462D01*
X141985582Y-95628215D01*
X141984921Y-95671039D01*
X141992980Y-95728781D01*
X142008173Y-95790289D01*
X142028914Y-95844409D01*
X142029962Y-95846510D01*
X142092379Y-95933660D01*
X142173274Y-95992939D01*
X142265144Y-96022034D01*
X142360487Y-96018634D01*
X142451802Y-95980428D01*
X142455862Y-95977741D01*
X142527694Y-95912642D01*
X142574927Y-95827705D01*
X142601066Y-95716021D01*
X142604574Y-95684643D01*
X142610787Y-95536536D01*
X142603339Y-95467468D01*
X142415846Y-95467468D01*
X142413410Y-95510552D01*
X142400086Y-95523126D01*
X142366868Y-95513719D01*
X142314506Y-95491483D01*
X142255976Y-95463610D01*
X142254521Y-95462872D01*
X142204911Y-95436777D01*
X142185000Y-95419363D01*
X142189910Y-95401107D01*
X142210584Y-95377120D01*
X142263181Y-95342406D01*
X142319823Y-95339856D01*
X142370631Y-95365119D01*
X142405724Y-95413847D01*
X142415846Y-95467468D01*
X142603339Y-95467468D01*
X142598008Y-95418036D01*
X142565222Y-95324055D01*
X142519579Y-95258215D01*
X142437198Y-95191681D01*
X142346454Y-95158676D01*
X142253815Y-95156573D01*
X142165746Y-95182745D01*
G36*
X143683114Y-95170256D02*
G01*
X143591536Y-95218409D01*
X143523951Y-95295905D01*
X143499943Y-95345727D01*
X143481262Y-95420533D01*
X143471699Y-95515052D01*
X143470792Y-95618210D01*
X143478079Y-95718935D01*
X143493097Y-95806153D01*
X143515385Y-95868791D01*
X143522235Y-95879579D01*
X143603368Y-95960105D01*
X143699734Y-96008336D01*
X143804299Y-96022450D01*
X143910032Y-96000629D01*
X143939457Y-95987547D01*
X143996759Y-95947231D01*
X144047050Y-95893775D01*
X144051803Y-95886995D01*
X144071122Y-95854321D01*
X144083892Y-95819394D01*
X144091436Y-95773414D01*
X144095076Y-95707584D01*
X144096135Y-95613105D01*
X144096154Y-95591923D01*
X144096106Y-95585182D01*
X143900769Y-95585182D01*
X143899632Y-95674349D01*
X143895159Y-95733520D01*
X143885754Y-95771741D01*
X143869824Y-95798053D01*
X143861692Y-95806846D01*
X143814942Y-95840261D01*
X143769553Y-95838737D01*
X143723660Y-95809752D01*
X143696288Y-95778809D01*
X143680077Y-95733643D01*
X143670974Y-95662420D01*
X143670349Y-95654114D01*
X143668796Y-95525037D01*
X143685035Y-95429172D01*
X143718848Y-95367107D01*
X143770016Y-95339432D01*
X143788280Y-95337923D01*
X143836240Y-95345513D01*
X143869047Y-95371808D01*
X143889105Y-95422095D01*
X143898822Y-95501664D01*
X143900769Y-95585182D01*
X144096106Y-95585182D01*
X144095426Y-95491249D01*
X144092371Y-95420906D01*
X144085678Y-95372163D01*
X144074040Y-95336288D01*
X144056147Y-95304548D01*
X144052192Y-95298648D01*
X143985733Y-95219104D01*
X143913315Y-95172929D01*
X143825151Y-95154599D01*
X143795213Y-95153703D01*
X143683114Y-95170256D01*
G37*
X143683114Y-95170256D02*
X143591536Y-95218409D01*
X143523951Y-95295905D01*
X143499943Y-95345727D01*
X143481262Y-95420533D01*
X143471699Y-95515052D01*
X143470792Y-95618210D01*
X143478079Y-95718935D01*
X143493097Y-95806153D01*
X143515385Y-95868791D01*
X143522235Y-95879579D01*
X143603368Y-95960105D01*
X143699734Y-96008336D01*
X143804299Y-96022450D01*
X143910032Y-96000629D01*
X143939457Y-95987547D01*
X143996759Y-95947231D01*
X144047050Y-95893775D01*
X144051803Y-95886995D01*
X144071122Y-95854321D01*
X144083892Y-95819394D01*
X144091436Y-95773414D01*
X144095076Y-95707584D01*
X144096135Y-95613105D01*
X144096154Y-95591923D01*
X144096106Y-95585182D01*
X143900769Y-95585182D01*
X143899632Y-95674349D01*
X143895159Y-95733520D01*
X143885754Y-95771741D01*
X143869824Y-95798053D01*
X143861692Y-95806846D01*
X143814942Y-95840261D01*
X143769553Y-95838737D01*
X143723660Y-95809752D01*
X143696288Y-95778809D01*
X143680077Y-95733643D01*
X143670974Y-95662420D01*
X143670349Y-95654114D01*
X143668796Y-95525037D01*
X143685035Y-95429172D01*
X143718848Y-95367107D01*
X143770016Y-95339432D01*
X143788280Y-95337923D01*
X143836240Y-95345513D01*
X143869047Y-95371808D01*
X143889105Y-95422095D01*
X143898822Y-95501664D01*
X143900769Y-95585182D01*
X144096106Y-95585182D01*
X144095426Y-95491249D01*
X144092371Y-95420906D01*
X144085678Y-95372163D01*
X144074040Y-95336288D01*
X144056147Y-95304548D01*
X144052192Y-95298648D01*
X143985733Y-95219104D01*
X143913315Y-95172929D01*
X143825151Y-95154599D01*
X143795213Y-95153703D01*
X143683114Y-95170256D01*
G36*
X141428336Y-95178089D02*
G01*
X141365633Y-95214358D01*
X141322039Y-95250358D01*
X141290155Y-95288075D01*
X141268190Y-95334199D01*
X141254351Y-95395421D01*
X141246847Y-95478431D01*
X141243883Y-95589919D01*
X141243539Y-95670062D01*
X141243539Y-95965065D01*
X141409615Y-96039515D01*
X141419385Y-95716402D01*
X141423421Y-95595729D01*
X141427656Y-95508141D01*
X141432903Y-95447650D01*
X141439975Y-95408268D01*
X141449689Y-95384007D01*
X141462856Y-95368880D01*
X141467081Y-95365606D01*
X141531091Y-95340034D01*
X141595792Y-95350153D01*
X141634308Y-95377000D01*
X141649975Y-95396024D01*
X141660820Y-95420988D01*
X141667712Y-95458834D01*
X141671521Y-95516502D01*
X141673117Y-95600935D01*
X141673385Y-95688928D01*
X141673437Y-95799323D01*
X141675328Y-95877463D01*
X141681655Y-95930165D01*
X141695017Y-95964242D01*
X141718015Y-95986511D01*
X141753246Y-96003787D01*
X141800303Y-96021738D01*
X141851697Y-96041278D01*
X141845579Y-95694485D01*
X141843116Y-95569468D01*
X141840233Y-95477082D01*
X141836102Y-95410881D01*
X141829893Y-95364420D01*
X141820774Y-95331256D01*
X141807917Y-95304944D01*
X141792416Y-95281729D01*
X141717629Y-95207569D01*
X141626372Y-95164684D01*
X141527117Y-95154412D01*
X141428336Y-95178089D01*
G37*
X141428336Y-95178089D02*
X141365633Y-95214358D01*
X141322039Y-95250358D01*
X141290155Y-95288075D01*
X141268190Y-95334199D01*
X141254351Y-95395421D01*
X141246847Y-95478431D01*
X141243883Y-95589919D01*
X141243539Y-95670062D01*
X141243539Y-95965065D01*
X141409615Y-96039515D01*
X141419385Y-95716402D01*
X141423421Y-95595729D01*
X141427656Y-95508141D01*
X141432903Y-95447650D01*
X141439975Y-95408268D01*
X141449689Y-95384007D01*
X141462856Y-95368880D01*
X141467081Y-95365606D01*
X141531091Y-95340034D01*
X141595792Y-95350153D01*
X141634308Y-95377000D01*
X141649975Y-95396024D01*
X141660820Y-95420988D01*
X141667712Y-95458834D01*
X141671521Y-95516502D01*
X141673117Y-95600935D01*
X141673385Y-95688928D01*
X141673437Y-95799323D01*
X141675328Y-95877463D01*
X141681655Y-95930165D01*
X141695017Y-95964242D01*
X141718015Y-95986511D01*
X141753246Y-96003787D01*
X141800303Y-96021738D01*
X141851697Y-96041278D01*
X141845579Y-95694485D01*
X141843116Y-95569468D01*
X141840233Y-95477082D01*
X141836102Y-95410881D01*
X141829893Y-95364420D01*
X141820774Y-95331256D01*
X141807917Y-95304944D01*
X141792416Y-95281729D01*
X141717629Y-95207569D01*
X141626372Y-95164684D01*
X141527117Y-95154412D01*
X141428336Y-95178089D01*
G36*
X142931114Y-95167505D02*
G01*
X142856461Y-95204727D01*
X142790569Y-95273261D01*
X142772423Y-95298648D01*
X142752655Y-95331866D01*
X142739828Y-95367945D01*
X142732490Y-95416098D01*
X142729187Y-95485536D01*
X142728462Y-95577206D01*
X142731737Y-95702830D01*
X142743123Y-95797154D01*
X142764959Y-95867523D01*
X142799581Y-95921286D01*
X142849330Y-95965788D01*
X142852986Y-95968423D01*
X142902015Y-95995377D01*
X142961055Y-96008712D01*
X143036141Y-96012000D01*
X143158205Y-96012000D01*
X143158256Y-96130497D01*
X143159392Y-96196492D01*
X143166314Y-96235202D01*
X143184402Y-96258419D01*
X143219038Y-96277933D01*
X143227355Y-96281920D01*
X143266280Y-96300603D01*
X143296417Y-96312403D01*
X143318826Y-96313422D01*
X143334567Y-96299761D01*
X143344698Y-96267522D01*
X143350277Y-96212804D01*
X143352365Y-96131711D01*
X143352019Y-96020344D01*
X143350300Y-95874802D01*
X143349763Y-95831269D01*
X143347828Y-95681205D01*
X143346096Y-95583042D01*
X143158308Y-95583042D01*
X143157252Y-95666364D01*
X143152562Y-95720880D01*
X143141949Y-95756837D01*
X143123128Y-95784482D01*
X143110350Y-95797965D01*
X143058110Y-95837417D01*
X143011858Y-95840628D01*
X142964133Y-95808049D01*
X142962923Y-95806846D01*
X142943506Y-95781668D01*
X142931693Y-95747447D01*
X142925735Y-95694748D01*
X142923880Y-95614131D01*
X142923846Y-95596271D01*
X142928330Y-95485175D01*
X142942926Y-95408161D01*
X142969350Y-95361147D01*
X143009317Y-95340050D01*
X143032416Y-95337923D01*
X143087238Y-95347900D01*
X143124842Y-95380752D01*
X143147477Y-95440857D01*
X143157394Y-95532598D01*
X143158308Y-95583042D01*
X143346096Y-95583042D01*
X143345778Y-95565060D01*
X143343127Y-95477679D01*
X143339394Y-95413905D01*
X143334093Y-95368582D01*
X143326742Y-95336555D01*
X143316857Y-95312668D01*
X143303954Y-95291764D01*
X143298421Y-95283898D01*
X143225031Y-95209595D01*
X143132240Y-95167467D01*
X143024904Y-95155722D01*
X142931114Y-95167505D01*
G37*
X142931114Y-95167505D02*
X142856461Y-95204727D01*
X142790569Y-95273261D01*
X142772423Y-95298648D01*
X142752655Y-95331866D01*
X142739828Y-95367945D01*
X142732490Y-95416098D01*
X142729187Y-95485536D01*
X142728462Y-95577206D01*
X142731737Y-95702830D01*
X142743123Y-95797154D01*
X142764959Y-95867523D01*
X142799581Y-95921286D01*
X142849330Y-95965788D01*
X142852986Y-95968423D01*
X142902015Y-95995377D01*
X142961055Y-96008712D01*
X143036141Y-96012000D01*
X143158205Y-96012000D01*
X143158256Y-96130497D01*
X143159392Y-96196492D01*
X143166314Y-96235202D01*
X143184402Y-96258419D01*
X143219038Y-96277933D01*
X143227355Y-96281920D01*
X143266280Y-96300603D01*
X143296417Y-96312403D01*
X143318826Y-96313422D01*
X143334567Y-96299761D01*
X143344698Y-96267522D01*
X143350277Y-96212804D01*
X143352365Y-96131711D01*
X143352019Y-96020344D01*
X143350300Y-95874802D01*
X143349763Y-95831269D01*
X143347828Y-95681205D01*
X143346096Y-95583042D01*
X143158308Y-95583042D01*
X143157252Y-95666364D01*
X143152562Y-95720880D01*
X143141949Y-95756837D01*
X143123128Y-95784482D01*
X143110350Y-95797965D01*
X143058110Y-95837417D01*
X143011858Y-95840628D01*
X142964133Y-95808049D01*
X142962923Y-95806846D01*
X142943506Y-95781668D01*
X142931693Y-95747447D01*
X142925735Y-95694748D01*
X142923880Y-95614131D01*
X142923846Y-95596271D01*
X142928330Y-95485175D01*
X142942926Y-95408161D01*
X142969350Y-95361147D01*
X143009317Y-95340050D01*
X143032416Y-95337923D01*
X143087238Y-95347900D01*
X143124842Y-95380752D01*
X143147477Y-95440857D01*
X143157394Y-95532598D01*
X143158308Y-95583042D01*
X143346096Y-95583042D01*
X143345778Y-95565060D01*
X143343127Y-95477679D01*
X143339394Y-95413905D01*
X143334093Y-95368582D01*
X143326742Y-95336555D01*
X143316857Y-95312668D01*
X143303954Y-95291764D01*
X143298421Y-95283898D01*
X143225031Y-95209595D01*
X143132240Y-95167467D01*
X143024904Y-95155722D01*
X142931114Y-95167505D01*
G36*
X141846043Y-96213571D02*
G01*
X141749768Y-96237809D01*
X141663184Y-96280641D01*
X141588373Y-96340419D01*
X141527418Y-96415494D01*
X141482399Y-96504220D01*
X141456136Y-96600530D01*
X141450286Y-96697795D01*
X141465140Y-96791654D01*
X141498840Y-96879511D01*
X141549528Y-96958770D01*
X141615345Y-97026836D01*
X141694434Y-97081112D01*
X141784934Y-97119002D01*
X141836200Y-97131426D01*
X141880698Y-97138947D01*
X141914999Y-97141919D01*
X141947960Y-97140094D01*
X141988434Y-97133225D01*
X142021531Y-97126250D01*
X142114947Y-97094741D01*
X142198619Y-97043617D01*
X142270665Y-96974429D01*
X142329200Y-96888728D01*
X142343148Y-96861489D01*
X142359586Y-96825122D01*
X142369894Y-96794582D01*
X142375460Y-96762450D01*
X142377669Y-96721307D01*
X142377948Y-96675222D01*
X142373861Y-96590865D01*
X142360446Y-96521586D01*
X142335256Y-96460961D01*
X142295846Y-96402567D01*
X142257298Y-96358302D01*
X142185406Y-96292484D01*
X142110313Y-96247053D01*
X142027562Y-96219850D01*
X141949928Y-96209576D01*
X141846043Y-96213571D01*
G37*
X141846043Y-96213571D02*
X141749768Y-96237809D01*
X141663184Y-96280641D01*
X141588373Y-96340419D01*
X141527418Y-96415494D01*
X141482399Y-96504220D01*
X141456136Y-96600530D01*
X141450286Y-96697795D01*
X141465140Y-96791654D01*
X141498840Y-96879511D01*
X141549528Y-96958770D01*
X141615345Y-97026836D01*
X141694434Y-97081112D01*
X141784934Y-97119002D01*
X141836200Y-97131426D01*
X141880698Y-97138947D01*
X141914999Y-97141919D01*
X141947960Y-97140094D01*
X141988434Y-97133225D01*
X142021531Y-97126250D01*
X142114947Y-97094741D01*
X142198619Y-97043617D01*
X142270665Y-96974429D01*
X142329200Y-96888728D01*
X142343148Y-96861489D01*
X142359586Y-96825122D01*
X142369894Y-96794582D01*
X142375460Y-96762450D01*
X142377669Y-96721307D01*
X142377948Y-96675222D01*
X142373861Y-96590865D01*
X142360446Y-96521586D01*
X142335256Y-96460961D01*
X142295846Y-96402567D01*
X142257298Y-96358302D01*
X142185406Y-96292484D01*
X142110313Y-96247053D01*
X142027562Y-96219850D01*
X141949928Y-96209576D01*
X141846043Y-96213571D01*
G36*
X133386493Y-98659245D02*
G01*
X133386474Y-98893662D01*
X133386448Y-99106603D01*
X133386375Y-99299168D01*
X133386218Y-99472459D01*
X133385936Y-99627576D01*
X133385491Y-99765620D01*
X133384844Y-99887692D01*
X133383955Y-99994894D01*
X133382787Y-100088326D01*
X133381299Y-100169090D01*
X133379454Y-100238286D01*
X133377211Y-100297015D01*
X133374531Y-100346379D01*
X133371377Y-100387478D01*
X133367708Y-100421413D01*
X133363487Y-100449286D01*
X133358673Y-100472198D01*
X133353227Y-100491249D01*
X133347112Y-100507540D01*
X133340288Y-100522173D01*
X133332715Y-100536249D01*
X133324355Y-100550868D01*
X133319161Y-100559974D01*
X133284896Y-100620689D01*
X134143045Y-100620689D01*
X134143045Y-100524733D01*
X134143776Y-100481370D01*
X134145728Y-100448205D01*
X134148537Y-100430424D01*
X134149779Y-100428778D01*
X134161201Y-100435662D01*
X134183916Y-100453505D01*
X134206615Y-100472879D01*
X134261200Y-100513614D01*
X134330679Y-100554617D01*
X134407730Y-100592123D01*
X134485035Y-100622364D01*
X134515887Y-100632012D01*
X134584384Y-100646578D01*
X134667236Y-100656539D01*
X134756629Y-100661583D01*
X134844752Y-100661396D01*
X134923793Y-100655666D01*
X134961489Y-100649858D01*
X135099586Y-100611797D01*
X135226887Y-100554073D01*
X135342708Y-100477211D01*
X135446363Y-100381739D01*
X135537167Y-100268179D01*
X135603969Y-100157381D01*
X135658836Y-100040625D01*
X135700837Y-99921276D01*
X135730833Y-99795283D01*
X135749689Y-99658594D01*
X135758268Y-99507158D01*
X135758994Y-99429711D01*
X135756900Y-99372934D01*
X134927783Y-99372934D01*
X134927576Y-99466002D01*
X134924663Y-99553692D01*
X134919000Y-99630772D01*
X134910545Y-99692009D01*
X134907962Y-99704350D01*
X134876160Y-99811633D01*
X134834502Y-99898658D01*
X134782637Y-99965642D01*
X134720219Y-100012805D01*
X134646900Y-100040365D01*
X134562331Y-100048541D01*
X134466165Y-100037551D01*
X134402689Y-100021829D01*
X134353546Y-100003639D01*
X134299417Y-99977791D01*
X134258756Y-99954089D01*
X134188200Y-99907721D01*
X134188200Y-98757530D01*
X134255608Y-98713962D01*
X134334133Y-98673040D01*
X134418319Y-98646389D01*
X134503443Y-98634465D01*
X134584784Y-98637722D01*
X134657620Y-98656615D01*
X134689574Y-98672184D01*
X134747499Y-98715181D01*
X134796456Y-98771953D01*
X134837610Y-98844575D01*
X134872126Y-98935121D01*
X134901167Y-99045666D01*
X134902448Y-99051533D01*
X134912619Y-99113788D01*
X134920261Y-99191594D01*
X134925330Y-99279720D01*
X134927783Y-99372934D01*
X135756900Y-99372934D01*
X135751143Y-99216895D01*
X135729198Y-99021059D01*
X135693214Y-98842332D01*
X135643241Y-98680845D01*
X135579332Y-98536726D01*
X135501538Y-98410106D01*
X135409911Y-98301115D01*
X135304503Y-98209883D01*
X135259338Y-98178932D01*
X135158389Y-98122785D01*
X135055099Y-98083174D01*
X134945011Y-98059014D01*
X134823670Y-98049219D01*
X134731164Y-98050265D01*
X134601510Y-98061231D01*
X134488916Y-98083046D01*
X134390125Y-98116714D01*
X134301879Y-98163236D01*
X134253014Y-98197448D01*
X134223647Y-98219362D01*
X134201957Y-98234333D01*
X134193747Y-98238733D01*
X134192132Y-98227904D01*
X134190841Y-98197251D01*
X134189862Y-98149526D01*
X134189183Y-98087479D01*
X134188790Y-98013862D01*
X134188670Y-97931427D01*
X134188812Y-97842925D01*
X134189203Y-97751107D01*
X134189829Y-97658724D01*
X134190680Y-97568528D01*
X134191740Y-97483271D01*
X134192999Y-97405703D01*
X134194444Y-97338576D01*
X134196062Y-97284641D01*
X134197839Y-97246650D01*
X134198331Y-97239667D01*
X134205908Y-97169251D01*
X134217469Y-97114102D01*
X134235208Y-97066981D01*
X134261318Y-97020647D01*
X134267585Y-97011067D01*
X134292017Y-96974378D01*
X133386689Y-96974378D01*
X133386493Y-98659245D01*
G37*
X133386493Y-98659245D02*
X133386474Y-98893662D01*
X133386448Y-99106603D01*
X133386375Y-99299168D01*
X133386218Y-99472459D01*
X133385936Y-99627576D01*
X133385491Y-99765620D01*
X133384844Y-99887692D01*
X133383955Y-99994894D01*
X133382787Y-100088326D01*
X133381299Y-100169090D01*
X133379454Y-100238286D01*
X133377211Y-100297015D01*
X133374531Y-100346379D01*
X133371377Y-100387478D01*
X133367708Y-100421413D01*
X133363487Y-100449286D01*
X133358673Y-100472198D01*
X133353227Y-100491249D01*
X133347112Y-100507540D01*
X133340288Y-100522173D01*
X133332715Y-100536249D01*
X133324355Y-100550868D01*
X133319161Y-100559974D01*
X133284896Y-100620689D01*
X134143045Y-100620689D01*
X134143045Y-100524733D01*
X134143776Y-100481370D01*
X134145728Y-100448205D01*
X134148537Y-100430424D01*
X134149779Y-100428778D01*
X134161201Y-100435662D01*
X134183916Y-100453505D01*
X134206615Y-100472879D01*
X134261200Y-100513614D01*
X134330679Y-100554617D01*
X134407730Y-100592123D01*
X134485035Y-100622364D01*
X134515887Y-100632012D01*
X134584384Y-100646578D01*
X134667236Y-100656539D01*
X134756629Y-100661583D01*
X134844752Y-100661396D01*
X134923793Y-100655666D01*
X134961489Y-100649858D01*
X135099586Y-100611797D01*
X135226887Y-100554073D01*
X135342708Y-100477211D01*
X135446363Y-100381739D01*
X135537167Y-100268179D01*
X135603969Y-100157381D01*
X135658836Y-100040625D01*
X135700837Y-99921276D01*
X135730833Y-99795283D01*
X135749689Y-99658594D01*
X135758268Y-99507158D01*
X135758994Y-99429711D01*
X135756900Y-99372934D01*
X134927783Y-99372934D01*
X134927576Y-99466002D01*
X134924663Y-99553692D01*
X134919000Y-99630772D01*
X134910545Y-99692009D01*
X134907962Y-99704350D01*
X134876160Y-99811633D01*
X134834502Y-99898658D01*
X134782637Y-99965642D01*
X134720219Y-100012805D01*
X134646900Y-100040365D01*
X134562331Y-100048541D01*
X134466165Y-100037551D01*
X134402689Y-100021829D01*
X134353546Y-100003639D01*
X134299417Y-99977791D01*
X134258756Y-99954089D01*
X134188200Y-99907721D01*
X134188200Y-98757530D01*
X134255608Y-98713962D01*
X134334133Y-98673040D01*
X134418319Y-98646389D01*
X134503443Y-98634465D01*
X134584784Y-98637722D01*
X134657620Y-98656615D01*
X134689574Y-98672184D01*
X134747499Y-98715181D01*
X134796456Y-98771953D01*
X134837610Y-98844575D01*
X134872126Y-98935121D01*
X134901167Y-99045666D01*
X134902448Y-99051533D01*
X134912619Y-99113788D01*
X134920261Y-99191594D01*
X134925330Y-99279720D01*
X134927783Y-99372934D01*
X135756900Y-99372934D01*
X135751143Y-99216895D01*
X135729198Y-99021059D01*
X135693214Y-98842332D01*
X135643241Y-98680845D01*
X135579332Y-98536726D01*
X135501538Y-98410106D01*
X135409911Y-98301115D01*
X135304503Y-98209883D01*
X135259338Y-98178932D01*
X135158389Y-98122785D01*
X135055099Y-98083174D01*
X134945011Y-98059014D01*
X134823670Y-98049219D01*
X134731164Y-98050265D01*
X134601510Y-98061231D01*
X134488916Y-98083046D01*
X134390125Y-98116714D01*
X134301879Y-98163236D01*
X134253014Y-98197448D01*
X134223647Y-98219362D01*
X134201957Y-98234333D01*
X134193747Y-98238733D01*
X134192132Y-98227904D01*
X134190841Y-98197251D01*
X134189862Y-98149526D01*
X134189183Y-98087479D01*
X134188790Y-98013862D01*
X134188670Y-97931427D01*
X134188812Y-97842925D01*
X134189203Y-97751107D01*
X134189829Y-97658724D01*
X134190680Y-97568528D01*
X134191740Y-97483271D01*
X134192999Y-97405703D01*
X134194444Y-97338576D01*
X134196062Y-97284641D01*
X134197839Y-97246650D01*
X134198331Y-97239667D01*
X134205908Y-97169251D01*
X134217469Y-97114102D01*
X134235208Y-97066981D01*
X134261318Y-97020647D01*
X134267585Y-97011067D01*
X134292017Y-96974378D01*
X133386689Y-96974378D01*
X133386493Y-98659245D01*
G36*
X136899426Y-98053552D02*
G01*
X136747508Y-98073567D01*
X136612244Y-98107202D01*
X136492761Y-98154725D01*
X136388185Y-98216405D01*
X136310576Y-98279965D01*
X136241735Y-98354099D01*
X136187994Y-98433871D01*
X136145090Y-98526091D01*
X136129616Y-98569161D01*
X136116756Y-98608142D01*
X136105554Y-98644289D01*
X136095880Y-98679434D01*
X136087604Y-98715410D01*
X136080597Y-98754050D01*
X136074728Y-98797185D01*
X136069869Y-98846649D01*
X136065890Y-98904273D01*
X136062660Y-98971891D01*
X136060051Y-99051334D01*
X136057933Y-99144436D01*
X136056176Y-99253027D01*
X136054651Y-99378942D01*
X136053228Y-99524012D01*
X136051975Y-99666778D01*
X136050649Y-99822968D01*
X136049444Y-99958239D01*
X136048234Y-100074246D01*
X136046894Y-100172645D01*
X136045300Y-100255093D01*
X136043325Y-100323246D01*
X136040844Y-100378760D01*
X136037731Y-100423292D01*
X136033862Y-100458498D01*
X136029111Y-100486034D01*
X136023352Y-100507556D01*
X136016461Y-100524722D01*
X136008311Y-100539186D01*
X135998777Y-100552606D01*
X135987734Y-100566638D01*
X135983434Y-100572071D01*
X135967614Y-100594910D01*
X135960578Y-100610463D01*
X135960556Y-100610922D01*
X135971433Y-100613121D01*
X136002418Y-100615147D01*
X136051043Y-100616942D01*
X136114837Y-100618451D01*
X136191331Y-100619616D01*
X136278056Y-100620380D01*
X136372543Y-100620686D01*
X136383450Y-100620689D01*
X136806343Y-100620689D01*
X136809605Y-100524622D01*
X136812867Y-100428556D01*
X136874956Y-100479543D01*
X136972286Y-100547057D01*
X137082187Y-100601749D01*
X137168651Y-100631978D01*
X137237722Y-100646666D01*
X137321075Y-100656659D01*
X137410841Y-100661646D01*
X137499155Y-100661313D01*
X137578149Y-100655351D01*
X137614378Y-100649638D01*
X137754397Y-100611776D01*
X137880822Y-100556932D01*
X137992740Y-100485924D01*
X138089238Y-100399568D01*
X138169400Y-100298679D01*
X138232313Y-100184076D01*
X138276688Y-100057984D01*
X138289022Y-100001401D01*
X138296632Y-99939202D01*
X138300261Y-99864363D01*
X138300755Y-99830467D01*
X138300690Y-99827282D01*
X137540752Y-99827282D01*
X137531459Y-99902333D01*
X137503272Y-99966160D01*
X137454803Y-100021798D01*
X137449746Y-100026211D01*
X137401452Y-100061037D01*
X137349743Y-100083620D01*
X137289011Y-100095540D01*
X137213648Y-100098383D01*
X137195541Y-100097978D01*
X137141722Y-100095325D01*
X137101692Y-100089909D01*
X137066676Y-100079745D01*
X137027897Y-100062850D01*
X137017255Y-100057672D01*
X136956604Y-100021844D01*
X136909785Y-99979212D01*
X136897048Y-99963973D01*
X136852378Y-99907462D01*
X136852378Y-99711586D01*
X136852914Y-99632939D01*
X136854604Y-99574988D01*
X136857572Y-99535875D01*
X136861943Y-99513741D01*
X136866028Y-99507274D01*
X136881953Y-99504111D01*
X136915736Y-99501488D01*
X136962660Y-99499655D01*
X137018007Y-99498857D01*
X137026894Y-99498842D01*
X137147670Y-99504096D01*
X137250340Y-99520263D01*
X137336894Y-99547961D01*
X137409319Y-99587808D01*
X137464249Y-99634758D01*
X137508796Y-99692645D01*
X137533520Y-99755693D01*
X137540752Y-99827282D01*
X138300690Y-99827282D01*
X138298822Y-99736712D01*
X138290478Y-99657812D01*
X138274232Y-99586590D01*
X138248595Y-99515864D01*
X138224599Y-99463493D01*
X138165980Y-99368196D01*
X138087883Y-99280170D01*
X137992685Y-99201017D01*
X137882762Y-99132340D01*
X137760490Y-99075741D01*
X137628245Y-99032821D01*
X137563578Y-99017882D01*
X137427396Y-98995777D01*
X137278951Y-98981194D01*
X137127495Y-98974813D01*
X137000936Y-98976445D01*
X136839050Y-98983224D01*
X136846470Y-98924245D01*
X136865762Y-98825092D01*
X136896896Y-98744372D01*
X136940731Y-98681466D01*
X136998129Y-98635756D01*
X137069952Y-98606622D01*
X137157059Y-98593447D01*
X137260314Y-98595611D01*
X137298289Y-98599612D01*
X137439480Y-98624780D01*
X137576293Y-98665814D01*
X137670822Y-98703815D01*
X137715982Y-98723190D01*
X137754415Y-98738760D01*
X137780766Y-98748405D01*
X137788454Y-98750452D01*
X137798198Y-98741374D01*
X137814917Y-98712405D01*
X137838768Y-98663217D01*
X137869907Y-98593484D01*
X137908493Y-98502879D01*
X137915090Y-98487089D01*
X137945147Y-98414772D01*
X137972126Y-98349425D01*
X137994864Y-98293906D01*
X138012194Y-98251072D01*
X138022952Y-98223781D01*
X138026059Y-98214942D01*
X138016060Y-98210187D01*
X137989783Y-98204910D01*
X137961511Y-98201231D01*
X137931354Y-98196474D01*
X137883567Y-98187028D01*
X137822388Y-98173820D01*
X137752054Y-98157776D01*
X137676806Y-98139820D01*
X137648245Y-98132797D01*
X137543184Y-98107209D01*
X137455520Y-98087147D01*
X137380932Y-98071969D01*
X137315097Y-98061035D01*
X137253693Y-98053704D01*
X137192398Y-98049335D01*
X137126890Y-98047287D01*
X137068872Y-98046889D01*
X136899426Y-98053552D01*
G37*
X136899426Y-98053552D02*
X136747508Y-98073567D01*
X136612244Y-98107202D01*
X136492761Y-98154725D01*
X136388185Y-98216405D01*
X136310576Y-98279965D01*
X136241735Y-98354099D01*
X136187994Y-98433871D01*
X136145090Y-98526091D01*
X136129616Y-98569161D01*
X136116756Y-98608142D01*
X136105554Y-98644289D01*
X136095880Y-98679434D01*
X136087604Y-98715410D01*
X136080597Y-98754050D01*
X136074728Y-98797185D01*
X136069869Y-98846649D01*
X136065890Y-98904273D01*
X136062660Y-98971891D01*
X136060051Y-99051334D01*
X136057933Y-99144436D01*
X136056176Y-99253027D01*
X136054651Y-99378942D01*
X136053228Y-99524012D01*
X136051975Y-99666778D01*
X136050649Y-99822968D01*
X136049444Y-99958239D01*
X136048234Y-100074246D01*
X136046894Y-100172645D01*
X136045300Y-100255093D01*
X136043325Y-100323246D01*
X136040844Y-100378760D01*
X136037731Y-100423292D01*
X136033862Y-100458498D01*
X136029111Y-100486034D01*
X136023352Y-100507556D01*
X136016461Y-100524722D01*
X136008311Y-100539186D01*
X135998777Y-100552606D01*
X135987734Y-100566638D01*
X135983434Y-100572071D01*
X135967614Y-100594910D01*
X135960578Y-100610463D01*
X135960556Y-100610922D01*
X135971433Y-100613121D01*
X136002418Y-100615147D01*
X136051043Y-100616942D01*
X136114837Y-100618451D01*
X136191331Y-100619616D01*
X136278056Y-100620380D01*
X136372543Y-100620686D01*
X136383450Y-100620689D01*
X136806343Y-100620689D01*
X136809605Y-100524622D01*
X136812867Y-100428556D01*
X136874956Y-100479543D01*
X136972286Y-100547057D01*
X137082187Y-100601749D01*
X137168651Y-100631978D01*
X137237722Y-100646666D01*
X137321075Y-100656659D01*
X137410841Y-100661646D01*
X137499155Y-100661313D01*
X137578149Y-100655351D01*
X137614378Y-100649638D01*
X137754397Y-100611776D01*
X137880822Y-100556932D01*
X137992740Y-100485924D01*
X138089238Y-100399568D01*
X138169400Y-100298679D01*
X138232313Y-100184076D01*
X138276688Y-100057984D01*
X138289022Y-100001401D01*
X138296632Y-99939202D01*
X138300261Y-99864363D01*
X138300755Y-99830467D01*
X138300690Y-99827282D01*
X137540752Y-99827282D01*
X137531459Y-99902333D01*
X137503272Y-99966160D01*
X137454803Y-100021798D01*
X137449746Y-100026211D01*
X137401452Y-100061037D01*
X137349743Y-100083620D01*
X137289011Y-100095540D01*
X137213648Y-100098383D01*
X137195541Y-100097978D01*
X137141722Y-100095325D01*
X137101692Y-100089909D01*
X137066676Y-100079745D01*
X137027897Y-100062850D01*
X137017255Y-100057672D01*
X136956604Y-100021844D01*
X136909785Y-99979212D01*
X136897048Y-99963973D01*
X136852378Y-99907462D01*
X136852378Y-99711586D01*
X136852914Y-99632939D01*
X136854604Y-99574988D01*
X136857572Y-99535875D01*
X136861943Y-99513741D01*
X136866028Y-99507274D01*
X136881953Y-99504111D01*
X136915736Y-99501488D01*
X136962660Y-99499655D01*
X137018007Y-99498857D01*
X137026894Y-99498842D01*
X137147670Y-99504096D01*
X137250340Y-99520263D01*
X137336894Y-99547961D01*
X137409319Y-99587808D01*
X137464249Y-99634758D01*
X137508796Y-99692645D01*
X137533520Y-99755693D01*
X137540752Y-99827282D01*
X138300690Y-99827282D01*
X138298822Y-99736712D01*
X138290478Y-99657812D01*
X138274232Y-99586590D01*
X138248595Y-99515864D01*
X138224599Y-99463493D01*
X138165980Y-99368196D01*
X138087883Y-99280170D01*
X137992685Y-99201017D01*
X137882762Y-99132340D01*
X137760490Y-99075741D01*
X137628245Y-99032821D01*
X137563578Y-99017882D01*
X137427396Y-98995777D01*
X137278951Y-98981194D01*
X137127495Y-98974813D01*
X137000936Y-98976445D01*
X136839050Y-98983224D01*
X136846470Y-98924245D01*
X136865762Y-98825092D01*
X136896896Y-98744372D01*
X136940731Y-98681466D01*
X136998129Y-98635756D01*
X137069952Y-98606622D01*
X137157059Y-98593447D01*
X137260314Y-98595611D01*
X137298289Y-98599612D01*
X137439480Y-98624780D01*
X137576293Y-98665814D01*
X137670822Y-98703815D01*
X137715982Y-98723190D01*
X137754415Y-98738760D01*
X137780766Y-98748405D01*
X137788454Y-98750452D01*
X137798198Y-98741374D01*
X137814917Y-98712405D01*
X137838768Y-98663217D01*
X137869907Y-98593484D01*
X137908493Y-98502879D01*
X137915090Y-98487089D01*
X137945147Y-98414772D01*
X137972126Y-98349425D01*
X137994864Y-98293906D01*
X138012194Y-98251072D01*
X138022952Y-98223781D01*
X138026059Y-98214942D01*
X138016060Y-98210187D01*
X137989783Y-98204910D01*
X137961511Y-98201231D01*
X137931354Y-98196474D01*
X137883567Y-98187028D01*
X137822388Y-98173820D01*
X137752054Y-98157776D01*
X137676806Y-98139820D01*
X137648245Y-98132797D01*
X137543184Y-98107209D01*
X137455520Y-98087147D01*
X137380932Y-98071969D01*
X137315097Y-98061035D01*
X137253693Y-98053704D01*
X137192398Y-98049335D01*
X137126890Y-98047287D01*
X137068872Y-98046889D01*
X136899426Y-98053552D01*
G36*
X139244571Y-97136071D02*
G01*
X139084430Y-97157245D01*
X138920490Y-97197385D01*
X138750687Y-97256889D01*
X138572957Y-97336154D01*
X138561690Y-97341699D01*
X138503995Y-97369725D01*
X138452448Y-97393802D01*
X138410809Y-97412249D01*
X138382838Y-97423386D01*
X138373267Y-97425933D01*
X138354050Y-97430941D01*
X138349439Y-97435147D01*
X138354542Y-97445580D01*
X138370582Y-97471868D01*
X138395712Y-97511257D01*
X138428086Y-97560991D01*
X138465857Y-97618315D01*
X138507178Y-97680476D01*
X138550202Y-97744718D01*
X138593083Y-97808285D01*
X138633974Y-97868425D01*
X138671029Y-97922380D01*
X138702400Y-97967397D01*
X138726241Y-98000721D01*
X138740706Y-98019597D01*
X138742691Y-98021787D01*
X138752809Y-98017138D01*
X138775150Y-97999962D01*
X138805720Y-97973440D01*
X138821464Y-97958964D01*
X138917953Y-97883682D01*
X139024664Y-97828241D01*
X139140168Y-97793141D01*
X139263038Y-97778880D01*
X139332439Y-97780051D01*
X139453577Y-97797212D01*
X139562795Y-97833094D01*
X139660418Y-97887959D01*
X139746772Y-97962070D01*
X139822185Y-98055688D01*
X139886982Y-98169076D01*
X139924399Y-98255667D01*
X139968252Y-98391366D01*
X140000572Y-98538850D01*
X140021443Y-98694314D01*
X140030949Y-98853956D01*
X140029173Y-99013973D01*
X140016197Y-99170561D01*
X139992106Y-99319918D01*
X139956982Y-99458240D01*
X139910908Y-99581724D01*
X139894627Y-99615978D01*
X139826380Y-99730064D01*
X139745921Y-99826557D01*
X139654430Y-99904670D01*
X139553089Y-99963617D01*
X139443080Y-100002612D01*
X139325585Y-100020868D01*
X139284117Y-100022211D01*
X139162559Y-100011290D01*
X139042122Y-99978474D01*
X138924334Y-99924439D01*
X138810723Y-99849865D01*
X138719315Y-99771539D01*
X138672785Y-99727008D01*
X138491517Y-100024271D01*
X138446420Y-100098433D01*
X138405181Y-100166646D01*
X138369265Y-100226459D01*
X138340134Y-100275420D01*
X138319250Y-100311079D01*
X138308076Y-100330984D01*
X138306625Y-100334079D01*
X138314854Y-100343718D01*
X138340433Y-100360999D01*
X138380127Y-100384283D01*
X138430703Y-100411934D01*
X138488926Y-100442315D01*
X138551563Y-100473790D01*
X138615379Y-100504722D01*
X138677140Y-100533473D01*
X138733612Y-100558408D01*
X138781562Y-100577889D01*
X138805014Y-100586318D01*
X138938779Y-100624133D01*
X139076673Y-100649136D01*
X139224378Y-100662140D01*
X139351167Y-100664468D01*
X139419122Y-100663373D01*
X139484723Y-100661275D01*
X139542153Y-100658434D01*
X139585597Y-100655106D01*
X139599702Y-100653422D01*
X139738716Y-100624587D01*
X139880243Y-100579468D01*
X140017725Y-100520750D01*
X140144606Y-100451120D01*
X140222111Y-100398441D01*
X140349519Y-100290239D01*
X140467822Y-100163671D01*
X140574828Y-100021866D01*
X140668348Y-99867951D01*
X140746190Y-99705053D01*
X140790044Y-99587756D01*
X140840292Y-99404128D01*
X140873791Y-99209581D01*
X140890551Y-99008325D01*
X140890584Y-98804568D01*
X140873899Y-98602521D01*
X140840507Y-98406392D01*
X140790420Y-98220391D01*
X140786603Y-98208803D01*
X140723719Y-98046750D01*
X140646972Y-97898832D01*
X140553758Y-97760865D01*
X140441473Y-97628661D01*
X140397608Y-97583399D01*
X140261466Y-97459457D01*
X140121509Y-97356915D01*
X139975589Y-97274656D01*
X139821558Y-97211564D01*
X139657268Y-97166523D01*
X139561711Y-97149033D01*
X139402977Y-97133466D01*
X139244571Y-97136071D01*
G37*
X139244571Y-97136071D02*
X139084430Y-97157245D01*
X138920490Y-97197385D01*
X138750687Y-97256889D01*
X138572957Y-97336154D01*
X138561690Y-97341699D01*
X138503995Y-97369725D01*
X138452448Y-97393802D01*
X138410809Y-97412249D01*
X138382838Y-97423386D01*
X138373267Y-97425933D01*
X138354050Y-97430941D01*
X138349439Y-97435147D01*
X138354542Y-97445580D01*
X138370582Y-97471868D01*
X138395712Y-97511257D01*
X138428086Y-97560991D01*
X138465857Y-97618315D01*
X138507178Y-97680476D01*
X138550202Y-97744718D01*
X138593083Y-97808285D01*
X138633974Y-97868425D01*
X138671029Y-97922380D01*
X138702400Y-97967397D01*
X138726241Y-98000721D01*
X138740706Y-98019597D01*
X138742691Y-98021787D01*
X138752809Y-98017138D01*
X138775150Y-97999962D01*
X138805720Y-97973440D01*
X138821464Y-97958964D01*
X138917953Y-97883682D01*
X139024664Y-97828241D01*
X139140168Y-97793141D01*
X139263038Y-97778880D01*
X139332439Y-97780051D01*
X139453577Y-97797212D01*
X139562795Y-97833094D01*
X139660418Y-97887959D01*
X139746772Y-97962070D01*
X139822185Y-98055688D01*
X139886982Y-98169076D01*
X139924399Y-98255667D01*
X139968252Y-98391366D01*
X140000572Y-98538850D01*
X140021443Y-98694314D01*
X140030949Y-98853956D01*
X140029173Y-99013973D01*
X140016197Y-99170561D01*
X139992106Y-99319918D01*
X139956982Y-99458240D01*
X139910908Y-99581724D01*
X139894627Y-99615978D01*
X139826380Y-99730064D01*
X139745921Y-99826557D01*
X139654430Y-99904670D01*
X139553089Y-99963617D01*
X139443080Y-100002612D01*
X139325585Y-100020868D01*
X139284117Y-100022211D01*
X139162559Y-100011290D01*
X139042122Y-99978474D01*
X138924334Y-99924439D01*
X138810723Y-99849865D01*
X138719315Y-99771539D01*
X138672785Y-99727008D01*
X138491517Y-100024271D01*
X138446420Y-100098433D01*
X138405181Y-100166646D01*
X138369265Y-100226459D01*
X138340134Y-100275420D01*
X138319250Y-100311079D01*
X138308076Y-100330984D01*
X138306625Y-100334079D01*
X138314854Y-100343718D01*
X138340433Y-100360999D01*
X138380127Y-100384283D01*
X138430703Y-100411934D01*
X138488926Y-100442315D01*
X138551563Y-100473790D01*
X138615379Y-100504722D01*
X138677140Y-100533473D01*
X138733612Y-100558408D01*
X138781562Y-100577889D01*
X138805014Y-100586318D01*
X138938779Y-100624133D01*
X139076673Y-100649136D01*
X139224378Y-100662140D01*
X139351167Y-100664468D01*
X139419122Y-100663373D01*
X139484723Y-100661275D01*
X139542153Y-100658434D01*
X139585597Y-100655106D01*
X139599702Y-100653422D01*
X139738716Y-100624587D01*
X139880243Y-100579468D01*
X140017725Y-100520750D01*
X140144606Y-100451120D01*
X140222111Y-100398441D01*
X140349519Y-100290239D01*
X140467822Y-100163671D01*
X140574828Y-100021866D01*
X140668348Y-99867951D01*
X140746190Y-99705053D01*
X140790044Y-99587756D01*
X140840292Y-99404128D01*
X140873791Y-99209581D01*
X140890551Y-99008325D01*
X140890584Y-98804568D01*
X140873899Y-98602521D01*
X140840507Y-98406392D01*
X140790420Y-98220391D01*
X140786603Y-98208803D01*
X140723719Y-98046750D01*
X140646972Y-97898832D01*
X140553758Y-97760865D01*
X140441473Y-97628661D01*
X140397608Y-97583399D01*
X140261466Y-97459457D01*
X140121509Y-97356915D01*
X139975589Y-97274656D01*
X139821558Y-97211564D01*
X139657268Y-97166523D01*
X139561711Y-97149033D01*
X139402977Y-97133466D01*
X139244571Y-97136071D01*
G36*
X142519400Y-96676054D02*
G01*
X142508535Y-96789993D01*
X142476918Y-96897616D01*
X142426015Y-96996615D01*
X142357293Y-97084684D01*
X142272219Y-97159516D01*
X142175232Y-97217384D01*
X142068964Y-97257005D01*
X141961950Y-97275573D01*
X141856300Y-97274434D01*
X141754125Y-97254930D01*
X141657534Y-97218406D01*
X141568638Y-97166205D01*
X141489546Y-97099673D01*
X141422369Y-97020152D01*
X141369217Y-96928987D01*
X141332199Y-96827523D01*
X141313427Y-96717102D01*
X141311489Y-96667206D01*
X141311489Y-96579267D01*
X141259560Y-96579267D01*
X141223253Y-96582111D01*
X141196355Y-96593911D01*
X141169249Y-96617649D01*
X141130867Y-96656031D01*
X141130867Y-98847602D01*
X141130876Y-99109739D01*
X141130908Y-99350241D01*
X141130972Y-99570048D01*
X141131076Y-99770101D01*
X141131227Y-99951344D01*
X141131434Y-100114716D01*
X141131706Y-100261160D01*
X141132050Y-100391617D01*
X141132474Y-100507029D01*
X141132987Y-100608338D01*
X141133597Y-100696484D01*
X141134312Y-100772410D01*
X141135140Y-100837057D01*
X141136089Y-100891367D01*
X141137167Y-100936280D01*
X141138383Y-100972740D01*
X141139745Y-101001687D01*
X141141261Y-101024063D01*
X141142938Y-101040809D01*
X141144786Y-101052868D01*
X141146813Y-101061180D01*
X141149025Y-101066687D01*
X141150108Y-101068537D01*
X141154271Y-101075549D01*
X141157805Y-101081996D01*
X141161635Y-101087900D01*
X141166682Y-101093286D01*
X141173871Y-101098178D01*
X141184123Y-101102598D01*
X141198364Y-101106572D01*
X141217514Y-101110121D01*
X141242499Y-101113270D01*
X141274240Y-101116042D01*
X141313662Y-101118461D01*
X141361686Y-101120551D01*
X141419237Y-101122335D01*
X141487237Y-101123837D01*
X141566610Y-101125080D01*
X141658279Y-101126089D01*
X141763166Y-101126885D01*
X141882196Y-101127494D01*
X142016290Y-101127939D01*
X142166373Y-101128243D01*
X142333367Y-101128430D01*
X142518196Y-101128524D01*
X142721783Y-101128548D01*
X142945050Y-101128525D01*
X143188922Y-101128480D01*
X143454321Y-101128437D01*
X143492704Y-101128432D01*
X143759682Y-101128389D01*
X144005002Y-101128318D01*
X144229583Y-101128213D01*
X144434345Y-101128066D01*
X144620206Y-101127869D01*
X144788088Y-101127616D01*
X144938908Y-101127300D01*
X145073587Y-101126913D01*
X145193044Y-101126447D01*
X145298199Y-101125897D01*
X145389971Y-101125253D01*
X145469279Y-101124511D01*
X145537043Y-101123661D01*
X145594182Y-101122697D01*
X145641617Y-101121611D01*
X145680266Y-101120397D01*
X145711049Y-101119047D01*
X145734885Y-101117555D01*
X145752694Y-101115911D01*
X145765395Y-101114111D01*
X145773908Y-101112145D01*
X145778266Y-101110477D01*
X145786728Y-101106906D01*
X145794497Y-101104270D01*
X145801602Y-101101634D01*
X145808073Y-101098062D01*
X145813939Y-101092621D01*
X145819229Y-101084375D01*
X145823974Y-101072390D01*
X145828202Y-101055731D01*
X145831943Y-101033463D01*
X145835227Y-101004652D01*
X145838083Y-100968363D01*
X145840540Y-100923661D01*
X145842629Y-100869611D01*
X145844378Y-100805279D01*
X145845817Y-100729730D01*
X145846976Y-100642030D01*
X145847883Y-100541243D01*
X145848569Y-100426434D01*
X145849063Y-100296670D01*
X145849395Y-100151015D01*
X145849593Y-99988535D01*
X145849687Y-99808295D01*
X145849708Y-99609360D01*
X145849685Y-99390796D01*
X145849646Y-99151668D01*
X145849622Y-98891040D01*
X145849622Y-98848889D01*
X145849636Y-98585992D01*
X145849661Y-98344732D01*
X145849671Y-98124165D01*
X145849642Y-97923352D01*
X145849548Y-97741349D01*
X145849362Y-97577216D01*
X145849059Y-97430011D01*
X145848614Y-97298792D01*
X145848034Y-97188867D01*
X145545197Y-97188867D01*
X145505407Y-97246711D01*
X145494236Y-97262479D01*
X145484166Y-97276441D01*
X145475138Y-97289784D01*
X145467097Y-97303693D01*
X145459986Y-97319356D01*
X145453747Y-97337958D01*
X145448325Y-97360686D01*
X145443662Y-97388727D01*
X145439701Y-97423267D01*
X145436385Y-97465492D01*
X145433659Y-97516589D01*
X145431464Y-97577744D01*
X145429745Y-97650144D01*
X145428444Y-97734975D01*
X145427505Y-97833422D01*
X145426870Y-97946674D01*
X145426484Y-98075916D01*
X145426288Y-98222334D01*
X145426227Y-98387116D01*
X145426243Y-98571447D01*
X145426280Y-98776513D01*
X145426289Y-98899133D01*
X145426265Y-99116082D01*
X145426231Y-99311642D01*
X145426243Y-99486999D01*
X145426358Y-99643341D01*
X145426630Y-99781857D01*
X145427118Y-99903734D01*
X145427876Y-100010160D01*
X145428962Y-100102322D01*
X145430431Y-100181409D01*
X145432340Y-100248608D01*
X145434744Y-100305107D01*
X145437701Y-100352093D01*
X145441266Y-100390755D01*
X145445495Y-100422280D01*
X145450446Y-100447855D01*
X145456173Y-100468670D01*
X145462733Y-100485911D01*
X145470183Y-100500765D01*
X145478579Y-100514422D01*
X145487976Y-100528069D01*
X145498432Y-100542893D01*
X145504523Y-100551783D01*
X145543296Y-100609400D01*
X145011732Y-100609400D01*
X144888483Y-100609365D01*
X144785987Y-100609215D01*
X144702420Y-100608878D01*
X144635956Y-100608286D01*
X144584771Y-100607367D01*
X144547041Y-100606051D01*
X144520940Y-100604269D01*
X144504644Y-100601951D01*
X144496328Y-100599026D01*
X144494168Y-100595424D01*
X144496339Y-100591075D01*
X144497535Y-100589645D01*
X144522685Y-100552573D01*
X144548583Y-100499772D01*
X144572192Y-100437770D01*
X144580461Y-100411357D01*
X144585078Y-100393416D01*
X144588979Y-100372355D01*
X144592248Y-100346089D01*
X144594966Y-100312532D01*
X144597215Y-100269599D01*
X144599077Y-100215204D01*
X144600636Y-100147262D01*
X144601972Y-100063688D01*
X144603169Y-99962395D01*
X144604308Y-99841300D01*
X144604685Y-99796600D01*
X144605702Y-99671449D01*
X144606460Y-99567082D01*
X144606903Y-99481707D01*
X144606970Y-99413533D01*
X144606605Y-99360765D01*
X144605748Y-99321614D01*
X144604341Y-99294285D01*
X144602325Y-99276986D01*
X144599643Y-99267926D01*
X144596236Y-99265312D01*
X144592044Y-99267351D01*
X144587571Y-99271667D01*
X144577216Y-99284602D01*
X144555158Y-99313676D01*
X144522957Y-99356759D01*
X144482174Y-99411718D01*
X144434370Y-99476423D01*
X144381105Y-99548742D01*
X144323940Y-99626544D01*
X144264437Y-99707698D01*
X144204155Y-99790072D01*
X144144655Y-99871536D01*
X144087498Y-99949957D01*
X144034245Y-100023204D01*
X143986457Y-100089147D01*
X143945693Y-100145654D01*
X143913516Y-100190593D01*
X143891485Y-100221834D01*
X143886917Y-100228466D01*
X143863996Y-100265369D01*
X143837188Y-100313359D01*
X143811789Y-100362897D01*
X143808568Y-100369577D01*
X143786890Y-100417772D01*
X143774304Y-100455334D01*
X143768574Y-100491160D01*
X143767456Y-100533200D01*
X143768090Y-100609400D01*
X142613651Y-100609400D01*
X142704815Y-100515669D01*
X142751612Y-100465775D01*
X142801899Y-100409295D01*
X142847944Y-100355026D01*
X142868369Y-100329673D01*
X142898807Y-100290128D01*
X142938862Y-100236916D01*
X142987361Y-100171667D01*
X143043135Y-100096011D01*
X143105011Y-100011577D01*
X143171819Y-99919994D01*
X143242387Y-99822892D01*
X143315545Y-99721901D01*
X143390121Y-99618650D01*
X143464944Y-99514768D01*
X143538843Y-99411885D01*
X143610646Y-99311631D01*
X143679184Y-99215636D01*
X143743284Y-99125527D01*
X143801775Y-99042936D01*
X143853486Y-98969492D01*
X143897247Y-98906824D01*
X143931885Y-98856561D01*
X143956230Y-98820334D01*
X143969111Y-98799771D01*
X143970869Y-98795668D01*
X143962910Y-98784342D01*
X143942115Y-98757162D01*
X143909847Y-98715829D01*
X143867470Y-98662044D01*
X143816347Y-98597506D01*
X143757841Y-98523918D01*
X143693314Y-98442978D01*
X143624131Y-98356388D01*
X143551653Y-98265848D01*
X143477246Y-98173060D01*
X143417517Y-98098702D01*
X142406511Y-98098702D01*
X142400602Y-98111659D01*
X142386272Y-98133908D01*
X142385225Y-98135391D01*
X142366438Y-98165544D01*
X142346791Y-98202375D01*
X142342892Y-98210511D01*
X142339356Y-98218940D01*
X142336230Y-98229059D01*
X142333486Y-98242260D01*
X142331092Y-98259938D01*
X142329019Y-98283484D01*
X142327235Y-98314293D01*
X142325712Y-98353757D01*
X142324419Y-98403269D01*
X142323326Y-98464223D01*
X142322403Y-98538011D01*
X142321619Y-98626028D01*
X142320945Y-98729665D01*
X142320350Y-98850316D01*
X142319805Y-98989374D01*
X142319279Y-99148232D01*
X142318745Y-99327089D01*
X142318206Y-99512207D01*
X142317772Y-99676145D01*
X142317509Y-99820303D01*
X142317484Y-99946079D01*
X142317765Y-100054871D01*
X142318419Y-100148077D01*
X142319514Y-100227097D01*
X142321118Y-100293328D01*
X142323297Y-100348170D01*
X142326119Y-100393021D01*
X142329651Y-100429278D01*
X142333961Y-100458341D01*
X142339117Y-100481609D01*
X142345185Y-100500479D01*
X142352233Y-100516351D01*
X142360329Y-100530622D01*
X142369540Y-100544691D01*
X142378040Y-100557158D01*
X142395176Y-100583452D01*
X142405322Y-100601037D01*
X142406511Y-100604257D01*
X142395604Y-100605334D01*
X142364411Y-100606335D01*
X142315223Y-100607235D01*
X142250333Y-100608010D01*
X142172030Y-100608637D01*
X142082607Y-100609091D01*
X141984356Y-100609349D01*
X141915445Y-100609400D01*
X141810452Y-100609180D01*
X141713610Y-100608548D01*
X141627107Y-100607549D01*
X141553132Y-100606227D01*
X141493874Y-100604626D01*
X141451520Y-100602791D01*
X141428260Y-100600765D01*
X141424378Y-100599493D01*
X141432076Y-100584591D01*
X141440074Y-100576560D01*
X141453246Y-100559434D01*
X141470485Y-100529183D01*
X141482407Y-100504622D01*
X141509045Y-100445711D01*
X141512120Y-99268845D01*
X141515195Y-98091978D01*
X141960853Y-98091978D01*
X142058670Y-98092142D01*
X142149064Y-98092611D01*
X142229630Y-98093347D01*
X142297962Y-98094316D01*
X142351656Y-98095480D01*
X142388305Y-98096803D01*
X142405504Y-98098249D01*
X142406511Y-98098702D01*
X143417517Y-98098702D01*
X143402270Y-98079722D01*
X143328090Y-97987537D01*
X143256069Y-97898204D01*
X143187569Y-97813424D01*
X143123955Y-97734898D01*
X143066588Y-97664326D01*
X143016833Y-97603409D01*
X142976052Y-97553847D01*
X142958888Y-97533178D01*
X142872596Y-97432516D01*
X142795997Y-97349259D01*
X142727183Y-97281438D01*
X142664248Y-97227089D01*
X142654867Y-97219722D01*
X142615356Y-97189117D01*
X143747116Y-97188867D01*
X143741827Y-97236844D01*
X143745130Y-97294188D01*
X143766661Y-97362463D01*
X143806635Y-97442212D01*
X143851943Y-97514495D01*
X143868161Y-97537140D01*
X143896214Y-97574696D01*
X143934430Y-97625021D01*
X143981137Y-97685973D01*
X144034661Y-97755411D01*
X144093331Y-97831194D01*
X144155475Y-97911180D01*
X144219421Y-97993228D01*
X144283495Y-98075196D01*
X144346027Y-98154943D01*
X144405343Y-98230327D01*
X144459771Y-98299207D01*
X144507639Y-98359442D01*
X144547275Y-98408889D01*
X144577006Y-98445408D01*
X144595161Y-98466858D01*
X144598220Y-98470156D01*
X144601079Y-98462149D01*
X144603293Y-98431855D01*
X144604857Y-98379556D01*
X144605767Y-98305531D01*
X144606020Y-98210063D01*
X144605613Y-98093434D01*
X144604704Y-97973445D01*
X144603382Y-97841333D01*
X144601857Y-97729594D01*
X144599881Y-97636025D01*
X144597206Y-97558419D01*
X144593582Y-97494574D01*
X144588761Y-97442283D01*
X144582494Y-97399344D01*
X144574532Y-97363551D01*
X144564627Y-97332700D01*
X144552531Y-97304586D01*
X144537993Y-97277005D01*
X144523311Y-97251966D01*
X144485314Y-97188867D01*
X145545197Y-97188867D01*
X145848034Y-97188867D01*
X145848001Y-97182617D01*
X145847195Y-97080544D01*
X145846170Y-96991633D01*
X145844900Y-96914941D01*
X145843360Y-96849527D01*
X145841524Y-96794449D01*
X145839367Y-96748765D01*
X145836863Y-96711534D01*
X145833987Y-96681813D01*
X145830713Y-96658662D01*
X145827015Y-96641139D01*
X145822869Y-96628301D01*
X145818247Y-96619208D01*
X145813126Y-96612918D01*
X145807478Y-96608488D01*
X145801279Y-96604978D01*
X145794504Y-96601445D01*
X145788508Y-96597876D01*
X145783275Y-96595300D01*
X145775099Y-96592972D01*
X145762886Y-96590878D01*
X145745541Y-96589007D01*
X145721969Y-96587347D01*
X145691077Y-96585884D01*
X145651768Y-96584608D01*
X145602950Y-96583504D01*
X145543527Y-96582561D01*
X145472404Y-96581767D01*
X145388488Y-96581109D01*
X145290683Y-96580575D01*
X145177894Y-96580153D01*
X145049029Y-96579829D01*
X144902991Y-96579592D01*
X144738686Y-96579430D01*
X144555020Y-96579330D01*
X144350897Y-96579280D01*
X144139753Y-96579267D01*
X142519400Y-96579267D01*
X142519400Y-96676054D01*
G37*
X142519400Y-96676054D02*
X142508535Y-96789993D01*
X142476918Y-96897616D01*
X142426015Y-96996615D01*
X142357293Y-97084684D01*
X142272219Y-97159516D01*
X142175232Y-97217384D01*
X142068964Y-97257005D01*
X141961950Y-97275573D01*
X141856300Y-97274434D01*
X141754125Y-97254930D01*
X141657534Y-97218406D01*
X141568638Y-97166205D01*
X141489546Y-97099673D01*
X141422369Y-97020152D01*
X141369217Y-96928987D01*
X141332199Y-96827523D01*
X141313427Y-96717102D01*
X141311489Y-96667206D01*
X141311489Y-96579267D01*
X141259560Y-96579267D01*
X141223253Y-96582111D01*
X141196355Y-96593911D01*
X141169249Y-96617649D01*
X141130867Y-96656031D01*
X141130867Y-98847602D01*
X141130876Y-99109739D01*
X141130908Y-99350241D01*
X141130972Y-99570048D01*
X141131076Y-99770101D01*
X141131227Y-99951344D01*
X141131434Y-100114716D01*
X141131706Y-100261160D01*
X141132050Y-100391617D01*
X141132474Y-100507029D01*
X141132987Y-100608338D01*
X141133597Y-100696484D01*
X141134312Y-100772410D01*
X141135140Y-100837057D01*
X141136089Y-100891367D01*
X141137167Y-100936280D01*
X141138383Y-100972740D01*
X141139745Y-101001687D01*
X141141261Y-101024063D01*
X141142938Y-101040809D01*
X141144786Y-101052868D01*
X141146813Y-101061180D01*
X141149025Y-101066687D01*
X141150108Y-101068537D01*
X141154271Y-101075549D01*
X141157805Y-101081996D01*
X141161635Y-101087900D01*
X141166682Y-101093286D01*
X141173871Y-101098178D01*
X141184123Y-101102598D01*
X141198364Y-101106572D01*
X141217514Y-101110121D01*
X141242499Y-101113270D01*
X141274240Y-101116042D01*
X141313662Y-101118461D01*
X141361686Y-101120551D01*
X141419237Y-101122335D01*
X141487237Y-101123837D01*
X141566610Y-101125080D01*
X141658279Y-101126089D01*
X141763166Y-101126885D01*
X141882196Y-101127494D01*
X142016290Y-101127939D01*
X142166373Y-101128243D01*
X142333367Y-101128430D01*
X142518196Y-101128524D01*
X142721783Y-101128548D01*
X142945050Y-101128525D01*
X143188922Y-101128480D01*
X143454321Y-101128437D01*
X143492704Y-101128432D01*
X143759682Y-101128389D01*
X144005002Y-101128318D01*
X144229583Y-101128213D01*
X144434345Y-101128066D01*
X144620206Y-101127869D01*
X144788088Y-101127616D01*
X144938908Y-101127300D01*
X145073587Y-101126913D01*
X145193044Y-101126447D01*
X145298199Y-101125897D01*
X145389971Y-101125253D01*
X145469279Y-101124511D01*
X145537043Y-101123661D01*
X145594182Y-101122697D01*
X145641617Y-101121611D01*
X145680266Y-101120397D01*
X145711049Y-101119047D01*
X145734885Y-101117555D01*
X145752694Y-101115911D01*
X145765395Y-101114111D01*
X145773908Y-101112145D01*
X145778266Y-101110477D01*
X145786728Y-101106906D01*
X145794497Y-101104270D01*
X145801602Y-101101634D01*
X145808073Y-101098062D01*
X145813939Y-101092621D01*
X145819229Y-101084375D01*
X145823974Y-101072390D01*
X145828202Y-101055731D01*
X145831943Y-101033463D01*
X145835227Y-101004652D01*
X145838083Y-100968363D01*
X145840540Y-100923661D01*
X145842629Y-100869611D01*
X145844378Y-100805279D01*
X145845817Y-100729730D01*
X145846976Y-100642030D01*
X145847883Y-100541243D01*
X145848569Y-100426434D01*
X145849063Y-100296670D01*
X145849395Y-100151015D01*
X145849593Y-99988535D01*
X145849687Y-99808295D01*
X145849708Y-99609360D01*
X145849685Y-99390796D01*
X145849646Y-99151668D01*
X145849622Y-98891040D01*
X145849622Y-98848889D01*
X145849636Y-98585992D01*
X145849661Y-98344732D01*
X145849671Y-98124165D01*
X145849642Y-97923352D01*
X145849548Y-97741349D01*
X145849362Y-97577216D01*
X145849059Y-97430011D01*
X145848614Y-97298792D01*
X145848034Y-97188867D01*
X145545197Y-97188867D01*
X145505407Y-97246711D01*
X145494236Y-97262479D01*
X145484166Y-97276441D01*
X145475138Y-97289784D01*
X145467097Y-97303693D01*
X145459986Y-97319356D01*
X145453747Y-97337958D01*
X145448325Y-97360686D01*
X145443662Y-97388727D01*
X145439701Y-97423267D01*
X145436385Y-97465492D01*
X145433659Y-97516589D01*
X145431464Y-97577744D01*
X145429745Y-97650144D01*
X145428444Y-97734975D01*
X145427505Y-97833422D01*
X145426870Y-97946674D01*
X145426484Y-98075916D01*
X145426288Y-98222334D01*
X145426227Y-98387116D01*
X145426243Y-98571447D01*
X145426280Y-98776513D01*
X145426289Y-98899133D01*
X145426265Y-99116082D01*
X145426231Y-99311642D01*
X145426243Y-99486999D01*
X145426358Y-99643341D01*
X145426630Y-99781857D01*
X145427118Y-99903734D01*
X145427876Y-100010160D01*
X145428962Y-100102322D01*
X145430431Y-100181409D01*
X145432340Y-100248608D01*
X145434744Y-100305107D01*
X145437701Y-100352093D01*
X145441266Y-100390755D01*
X145445495Y-100422280D01*
X145450446Y-100447855D01*
X145456173Y-100468670D01*
X145462733Y-100485911D01*
X145470183Y-100500765D01*
X145478579Y-100514422D01*
X145487976Y-100528069D01*
X145498432Y-100542893D01*
X145504523Y-100551783D01*
X145543296Y-100609400D01*
X145011732Y-100609400D01*
X144888483Y-100609365D01*
X144785987Y-100609215D01*
X144702420Y-100608878D01*
X144635956Y-100608286D01*
X144584771Y-100607367D01*
X144547041Y-100606051D01*
X144520940Y-100604269D01*
X144504644Y-100601951D01*
X144496328Y-100599026D01*
X144494168Y-100595424D01*
X144496339Y-100591075D01*
X144497535Y-100589645D01*
X144522685Y-100552573D01*
X144548583Y-100499772D01*
X144572192Y-100437770D01*
X144580461Y-100411357D01*
X144585078Y-100393416D01*
X144588979Y-100372355D01*
X144592248Y-100346089D01*
X144594966Y-100312532D01*
X144597215Y-100269599D01*
X144599077Y-100215204D01*
X144600636Y-100147262D01*
X144601972Y-100063688D01*
X144603169Y-99962395D01*
X144604308Y-99841300D01*
X144604685Y-99796600D01*
X144605702Y-99671449D01*
X144606460Y-99567082D01*
X144606903Y-99481707D01*
X144606970Y-99413533D01*
X144606605Y-99360765D01*
X144605748Y-99321614D01*
X144604341Y-99294285D01*
X144602325Y-99276986D01*
X144599643Y-99267926D01*
X144596236Y-99265312D01*
X144592044Y-99267351D01*
X144587571Y-99271667D01*
X144577216Y-99284602D01*
X144555158Y-99313676D01*
X144522957Y-99356759D01*
X144482174Y-99411718D01*
X144434370Y-99476423D01*
X144381105Y-99548742D01*
X144323940Y-99626544D01*
X144264437Y-99707698D01*
X144204155Y-99790072D01*
X144144655Y-99871536D01*
X144087498Y-99949957D01*
X144034245Y-100023204D01*
X143986457Y-100089147D01*
X143945693Y-100145654D01*
X143913516Y-100190593D01*
X143891485Y-100221834D01*
X143886917Y-100228466D01*
X143863996Y-100265369D01*
X143837188Y-100313359D01*
X143811789Y-100362897D01*
X143808568Y-100369577D01*
X143786890Y-100417772D01*
X143774304Y-100455334D01*
X143768574Y-100491160D01*
X143767456Y-100533200D01*
X143768090Y-100609400D01*
X142613651Y-100609400D01*
X142704815Y-100515669D01*
X142751612Y-100465775D01*
X142801899Y-100409295D01*
X142847944Y-100355026D01*
X142868369Y-100329673D01*
X142898807Y-100290128D01*
X142938862Y-100236916D01*
X142987361Y-100171667D01*
X143043135Y-100096011D01*
X143105011Y-100011577D01*
X143171819Y-99919994D01*
X143242387Y-99822892D01*
X143315545Y-99721901D01*
X143390121Y-99618650D01*
X143464944Y-99514768D01*
X143538843Y-99411885D01*
X143610646Y-99311631D01*
X143679184Y-99215636D01*
X143743284Y-99125527D01*
X143801775Y-99042936D01*
X143853486Y-98969492D01*
X143897247Y-98906824D01*
X143931885Y-98856561D01*
X143956230Y-98820334D01*
X143969111Y-98799771D01*
X143970869Y-98795668D01*
X143962910Y-98784342D01*
X143942115Y-98757162D01*
X143909847Y-98715829D01*
X143867470Y-98662044D01*
X143816347Y-98597506D01*
X143757841Y-98523918D01*
X143693314Y-98442978D01*
X143624131Y-98356388D01*
X143551653Y-98265848D01*
X143477246Y-98173060D01*
X143417517Y-98098702D01*
X142406511Y-98098702D01*
X142400602Y-98111659D01*
X142386272Y-98133908D01*
X142385225Y-98135391D01*
X142366438Y-98165544D01*
X142346791Y-98202375D01*
X142342892Y-98210511D01*
X142339356Y-98218940D01*
X142336230Y-98229059D01*
X142333486Y-98242260D01*
X142331092Y-98259938D01*
X142329019Y-98283484D01*
X142327235Y-98314293D01*
X142325712Y-98353757D01*
X142324419Y-98403269D01*
X142323326Y-98464223D01*
X142322403Y-98538011D01*
X142321619Y-98626028D01*
X142320945Y-98729665D01*
X142320350Y-98850316D01*
X142319805Y-98989374D01*
X142319279Y-99148232D01*
X142318745Y-99327089D01*
X142318206Y-99512207D01*
X142317772Y-99676145D01*
X142317509Y-99820303D01*
X142317484Y-99946079D01*
X142317765Y-100054871D01*
X142318419Y-100148077D01*
X142319514Y-100227097D01*
X142321118Y-100293328D01*
X142323297Y-100348170D01*
X142326119Y-100393021D01*
X142329651Y-100429278D01*
X142333961Y-100458341D01*
X142339117Y-100481609D01*
X142345185Y-100500479D01*
X142352233Y-100516351D01*
X142360329Y-100530622D01*
X142369540Y-100544691D01*
X142378040Y-100557158D01*
X142395176Y-100583452D01*
X142405322Y-100601037D01*
X142406511Y-100604257D01*
X142395604Y-100605334D01*
X142364411Y-100606335D01*
X142315223Y-100607235D01*
X142250333Y-100608010D01*
X142172030Y-100608637D01*
X142082607Y-100609091D01*
X141984356Y-100609349D01*
X141915445Y-100609400D01*
X141810452Y-100609180D01*
X141713610Y-100608548D01*
X141627107Y-100607549D01*
X141553132Y-100606227D01*
X141493874Y-100604626D01*
X141451520Y-100602791D01*
X141428260Y-100600765D01*
X141424378Y-100599493D01*
X141432076Y-100584591D01*
X141440074Y-100576560D01*
X141453246Y-100559434D01*
X141470485Y-100529183D01*
X141482407Y-100504622D01*
X141509045Y-100445711D01*
X141512120Y-99268845D01*
X141515195Y-98091978D01*
X141960853Y-98091978D01*
X142058670Y-98092142D01*
X142149064Y-98092611D01*
X142229630Y-98093347D01*
X142297962Y-98094316D01*
X142351656Y-98095480D01*
X142388305Y-98096803D01*
X142405504Y-98098249D01*
X142406511Y-98098702D01*
X143417517Y-98098702D01*
X143402270Y-98079722D01*
X143328090Y-97987537D01*
X143256069Y-97898204D01*
X143187569Y-97813424D01*
X143123955Y-97734898D01*
X143066588Y-97664326D01*
X143016833Y-97603409D01*
X142976052Y-97553847D01*
X142958888Y-97533178D01*
X142872596Y-97432516D01*
X142795997Y-97349259D01*
X142727183Y-97281438D01*
X142664248Y-97227089D01*
X142654867Y-97219722D01*
X142615356Y-97189117D01*
X143747116Y-97188867D01*
X143741827Y-97236844D01*
X143745130Y-97294188D01*
X143766661Y-97362463D01*
X143806635Y-97442212D01*
X143851943Y-97514495D01*
X143868161Y-97537140D01*
X143896214Y-97574696D01*
X143934430Y-97625021D01*
X143981137Y-97685973D01*
X144034661Y-97755411D01*
X144093331Y-97831194D01*
X144155475Y-97911180D01*
X144219421Y-97993228D01*
X144283495Y-98075196D01*
X144346027Y-98154943D01*
X144405343Y-98230327D01*
X144459771Y-98299207D01*
X144507639Y-98359442D01*
X144547275Y-98408889D01*
X144577006Y-98445408D01*
X144595161Y-98466858D01*
X144598220Y-98470156D01*
X144601079Y-98462149D01*
X144603293Y-98431855D01*
X144604857Y-98379556D01*
X144605767Y-98305531D01*
X144606020Y-98210063D01*
X144605613Y-98093434D01*
X144604704Y-97973445D01*
X144603382Y-97841333D01*
X144601857Y-97729594D01*
X144599881Y-97636025D01*
X144597206Y-97558419D01*
X144593582Y-97494574D01*
X144588761Y-97442283D01*
X144582494Y-97399344D01*
X144574532Y-97363551D01*
X144564627Y-97332700D01*
X144552531Y-97304586D01*
X144537993Y-97277005D01*
X144523311Y-97251966D01*
X144485314Y-97188867D01*
X145545197Y-97188867D01*
X145848034Y-97188867D01*
X145848001Y-97182617D01*
X145847195Y-97080544D01*
X145846170Y-96991633D01*
X145844900Y-96914941D01*
X145843360Y-96849527D01*
X145841524Y-96794449D01*
X145839367Y-96748765D01*
X145836863Y-96711534D01*
X145833987Y-96681813D01*
X145830713Y-96658662D01*
X145827015Y-96641139D01*
X145822869Y-96628301D01*
X145818247Y-96619208D01*
X145813126Y-96612918D01*
X145807478Y-96608488D01*
X145801279Y-96604978D01*
X145794504Y-96601445D01*
X145788508Y-96597876D01*
X145783275Y-96595300D01*
X145775099Y-96592972D01*
X145762886Y-96590878D01*
X145745541Y-96589007D01*
X145721969Y-96587347D01*
X145691077Y-96585884D01*
X145651768Y-96584608D01*
X145602950Y-96583504D01*
X145543527Y-96582561D01*
X145472404Y-96581767D01*
X145388488Y-96581109D01*
X145290683Y-96580575D01*
X145177894Y-96580153D01*
X145049029Y-96579829D01*
X144902991Y-96579592D01*
X144738686Y-96579430D01*
X144555020Y-96579330D01*
X144350897Y-96579280D01*
X144139753Y-96579267D01*
X142519400Y-96579267D01*
X142519400Y-96676054D01*
G36*
X133344177Y-101461533D02*
G01*
X133312798Y-101483776D01*
X133285089Y-101511485D01*
X133285089Y-101820920D01*
X133285162Y-101912799D01*
X133285505Y-101984840D01*
X133286308Y-102039780D01*
X133287759Y-102080360D01*
X133290048Y-102109317D01*
X133293364Y-102129391D01*
X133297895Y-102143321D01*
X133303831Y-102153845D01*
X133308486Y-102160100D01*
X133339217Y-102184673D01*
X133374504Y-102187341D01*
X133406755Y-102172271D01*
X133417412Y-102163374D01*
X133424536Y-102151557D01*
X133428833Y-102132526D01*
X133431009Y-102101992D01*
X133431772Y-102055662D01*
X133431845Y-102019871D01*
X133431845Y-101885045D01*
X133928556Y-101885045D01*
X133928556Y-102007700D01*
X133929069Y-102063787D01*
X133931124Y-102102333D01*
X133935492Y-102128361D01*
X133942944Y-102146897D01*
X133951953Y-102160100D01*
X133982856Y-102184604D01*
X134017804Y-102187506D01*
X134051262Y-102170089D01*
X134060396Y-102160959D01*
X134066848Y-102148855D01*
X134071103Y-102130001D01*
X134073648Y-102100620D01*
X134074971Y-102056937D01*
X134075557Y-101995175D01*
X134075625Y-101981000D01*
X134076109Y-101864631D01*
X134076359Y-101768727D01*
X134076277Y-101691177D01*
X134075769Y-101629869D01*
X134074738Y-101582690D01*
X134073087Y-101547530D01*
X134070721Y-101522276D01*
X134067543Y-101504817D01*
X134063456Y-101493041D01*
X134058366Y-101484835D01*
X134052734Y-101478645D01*
X134020872Y-101458844D01*
X133987643Y-101461533D01*
X133956265Y-101483776D01*
X133943567Y-101498126D01*
X133935474Y-101513978D01*
X133930958Y-101536554D01*
X133928994Y-101571078D01*
X133928556Y-101622776D01*
X133928556Y-101738289D01*
X133431845Y-101738289D01*
X133431845Y-101619756D01*
X133431338Y-101565148D01*
X133429302Y-101528275D01*
X133424965Y-101504307D01*
X133417553Y-101488415D01*
X133409267Y-101478645D01*
X133377406Y-101458844D01*
X133344177Y-101461533D01*
G37*
X133344177Y-101461533D02*
X133312798Y-101483776D01*
X133285089Y-101511485D01*
X133285089Y-101820920D01*
X133285162Y-101912799D01*
X133285505Y-101984840D01*
X133286308Y-102039780D01*
X133287759Y-102080360D01*
X133290048Y-102109317D01*
X133293364Y-102129391D01*
X133297895Y-102143321D01*
X133303831Y-102153845D01*
X133308486Y-102160100D01*
X133339217Y-102184673D01*
X133374504Y-102187341D01*
X133406755Y-102172271D01*
X133417412Y-102163374D01*
X133424536Y-102151557D01*
X133428833Y-102132526D01*
X133431009Y-102101992D01*
X133431772Y-102055662D01*
X133431845Y-102019871D01*
X133431845Y-101885045D01*
X133928556Y-101885045D01*
X133928556Y-102007700D01*
X133929069Y-102063787D01*
X133931124Y-102102333D01*
X133935492Y-102128361D01*
X133942944Y-102146897D01*
X133951953Y-102160100D01*
X133982856Y-102184604D01*
X134017804Y-102187506D01*
X134051262Y-102170089D01*
X134060396Y-102160959D01*
X134066848Y-102148855D01*
X134071103Y-102130001D01*
X134073648Y-102100620D01*
X134074971Y-102056937D01*
X134075557Y-101995175D01*
X134075625Y-101981000D01*
X134076109Y-101864631D01*
X134076359Y-101768727D01*
X134076277Y-101691177D01*
X134075769Y-101629869D01*
X134074738Y-101582690D01*
X134073087Y-101547530D01*
X134070721Y-101522276D01*
X134067543Y-101504817D01*
X134063456Y-101493041D01*
X134058366Y-101484835D01*
X134052734Y-101478645D01*
X134020872Y-101458844D01*
X133987643Y-101461533D01*
X133956265Y-101483776D01*
X133943567Y-101498126D01*
X133935474Y-101513978D01*
X133930958Y-101536554D01*
X133928994Y-101571078D01*
X133928556Y-101622776D01*
X133928556Y-101738289D01*
X133431845Y-101738289D01*
X133431845Y-101619756D01*
X133431338Y-101565148D01*
X133429302Y-101528275D01*
X133424965Y-101504307D01*
X133417553Y-101488415D01*
X133409267Y-101478645D01*
X133377406Y-101458844D01*
X133344177Y-101461533D01*
G36*
X134609935Y-101456163D02*
G01*
X134531228Y-101456542D01*
X134470137Y-101457333D01*
X134424183Y-101458670D01*
X134390886Y-101460683D01*
X134367764Y-101463506D01*
X134352338Y-101467269D01*
X134342129Y-101472105D01*
X134337187Y-101475822D01*
X134311543Y-101508358D01*
X134308441Y-101542138D01*
X134324289Y-101572826D01*
X134334652Y-101585089D01*
X134345804Y-101593450D01*
X134361965Y-101598657D01*
X134387358Y-101601457D01*
X134426202Y-101602596D01*
X134482720Y-101602821D01*
X134493820Y-101602822D01*
X134639756Y-101602822D01*
X134639756Y-101873756D01*
X134639852Y-101959154D01*
X134640289Y-102024864D01*
X134641288Y-102073774D01*
X134643072Y-102108773D01*
X134645863Y-102132749D01*
X134649883Y-102148593D01*
X134655355Y-102159191D01*
X134662334Y-102167267D01*
X134695266Y-102187112D01*
X134729646Y-102185548D01*
X134760824Y-102162906D01*
X134763114Y-102160100D01*
X134770571Y-102149492D01*
X134776253Y-102137081D01*
X134780399Y-102119850D01*
X134783250Y-102094784D01*
X134785046Y-102058867D01*
X134786028Y-102009083D01*
X134786436Y-101942417D01*
X134786511Y-101866589D01*
X134786511Y-101602822D01*
X134925873Y-101602822D01*
X134985678Y-101602418D01*
X135027082Y-101600840D01*
X135054252Y-101597547D01*
X135071354Y-101591992D01*
X135082557Y-101583631D01*
X135083917Y-101582178D01*
X135100275Y-101548939D01*
X135098828Y-101511362D01*
X135080022Y-101478645D01*
X135072750Y-101472298D01*
X135063373Y-101467266D01*
X135049391Y-101463396D01*
X135028304Y-101460537D01*
X134997611Y-101458535D01*
X134954811Y-101457239D01*
X134897405Y-101456498D01*
X134822890Y-101456158D01*
X134728767Y-101456068D01*
X134708740Y-101456067D01*
X134609935Y-101456163D01*
G37*
X134609935Y-101456163D02*
X134531228Y-101456542D01*
X134470137Y-101457333D01*
X134424183Y-101458670D01*
X134390886Y-101460683D01*
X134367764Y-101463506D01*
X134352338Y-101467269D01*
X134342129Y-101472105D01*
X134337187Y-101475822D01*
X134311543Y-101508358D01*
X134308441Y-101542138D01*
X134324289Y-101572826D01*
X134334652Y-101585089D01*
X134345804Y-101593450D01*
X134361965Y-101598657D01*
X134387358Y-101601457D01*
X134426202Y-101602596D01*
X134482720Y-101602821D01*
X134493820Y-101602822D01*
X134639756Y-101602822D01*
X134639756Y-101873756D01*
X134639852Y-101959154D01*
X134640289Y-102024864D01*
X134641288Y-102073774D01*
X134643072Y-102108773D01*
X134645863Y-102132749D01*
X134649883Y-102148593D01*
X134655355Y-102159191D01*
X134662334Y-102167267D01*
X134695266Y-102187112D01*
X134729646Y-102185548D01*
X134760824Y-102162906D01*
X134763114Y-102160100D01*
X134770571Y-102149492D01*
X134776253Y-102137081D01*
X134780399Y-102119850D01*
X134783250Y-102094784D01*
X134785046Y-102058867D01*
X134786028Y-102009083D01*
X134786436Y-101942417D01*
X134786511Y-101866589D01*
X134786511Y-101602822D01*
X134925873Y-101602822D01*
X134985678Y-101602418D01*
X135027082Y-101600840D01*
X135054252Y-101597547D01*
X135071354Y-101591992D01*
X135082557Y-101583631D01*
X135083917Y-101582178D01*
X135100275Y-101548939D01*
X135098828Y-101511362D01*
X135080022Y-101478645D01*
X135072750Y-101472298D01*
X135063373Y-101467266D01*
X135049391Y-101463396D01*
X135028304Y-101460537D01*
X134997611Y-101458535D01*
X134954811Y-101457239D01*
X134897405Y-101456498D01*
X134822890Y-101456158D01*
X134728767Y-101456068D01*
X134708740Y-101456067D01*
X134609935Y-101456163D01*
G36*
X135384386Y-101462877D02*
G01*
X135360673Y-101477647D01*
X135334022Y-101499227D01*
X135334022Y-101820773D01*
X135334107Y-101914830D01*
X135334471Y-101988932D01*
X135335276Y-102045704D01*
X135336687Y-102087768D01*
X135338867Y-102117748D01*
X135341979Y-102138267D01*
X135346186Y-102151949D01*
X135351652Y-102161416D01*
X135355528Y-102166082D01*
X135386966Y-102186575D01*
X135422767Y-102185739D01*
X135454127Y-102168264D01*
X135480778Y-102146684D01*
X135480778Y-101499227D01*
X135454127Y-101477647D01*
X135428406Y-101461949D01*
X135407400Y-101456067D01*
X135384386Y-101462877D01*
G37*
X135384386Y-101462877D02*
X135360673Y-101477647D01*
X135334022Y-101499227D01*
X135334022Y-101820773D01*
X135334107Y-101914830D01*
X135334471Y-101988932D01*
X135335276Y-102045704D01*
X135336687Y-102087768D01*
X135338867Y-102117748D01*
X135341979Y-102138267D01*
X135346186Y-102151949D01*
X135351652Y-102161416D01*
X135355528Y-102166082D01*
X135386966Y-102186575D01*
X135422767Y-102185739D01*
X135454127Y-102168264D01*
X135480778Y-102146684D01*
X135480778Y-101499227D01*
X135454127Y-101477647D01*
X135428406Y-101461949D01*
X135407400Y-101456067D01*
X135384386Y-101462877D01*
G36*
X135828335Y-101458034D02*
G01*
X135808745Y-101465035D01*
X135807990Y-101465377D01*
X135781387Y-101485678D01*
X135766730Y-101506561D01*
X135763862Y-101516352D01*
X135764004Y-101529361D01*
X135768039Y-101547895D01*
X135776854Y-101574257D01*
X135791331Y-101610752D01*
X135812355Y-101659687D01*
X135840812Y-101723365D01*
X135877585Y-101804093D01*
X135897825Y-101848216D01*
X135934375Y-101926985D01*
X135968685Y-101999423D01*
X135999448Y-102062880D01*
X136025352Y-102114708D01*
X136045090Y-102152259D01*
X136057350Y-102172884D01*
X136059776Y-102175733D01*
X136090817Y-102188302D01*
X136125879Y-102186619D01*
X136154000Y-102171332D01*
X136155146Y-102170089D01*
X136166332Y-102153154D01*
X136185096Y-102120170D01*
X136209125Y-102075380D01*
X136236103Y-102023032D01*
X136245799Y-102003742D01*
X136318986Y-101857150D01*
X136398760Y-102016393D01*
X136427233Y-102071415D01*
X136453650Y-102119132D01*
X136475852Y-102155893D01*
X136491681Y-102178044D01*
X136497046Y-102182741D01*
X136538743Y-102189102D01*
X136573151Y-102175733D01*
X136583272Y-102161446D01*
X136600786Y-102129692D01*
X136624265Y-102083597D01*
X136652280Y-102026285D01*
X136683401Y-101960880D01*
X136716201Y-101890507D01*
X136749250Y-101818291D01*
X136781119Y-101747355D01*
X136810381Y-101680825D01*
X136835605Y-101621826D01*
X136855364Y-101573481D01*
X136868228Y-101538915D01*
X136872769Y-101521253D01*
X136872723Y-101520613D01*
X136861674Y-101498388D01*
X136839590Y-101475753D01*
X136838290Y-101474768D01*
X136811147Y-101459425D01*
X136786042Y-101459574D01*
X136776632Y-101462466D01*
X136765166Y-101468718D01*
X136752990Y-101481014D01*
X136738643Y-101501908D01*
X136720664Y-101533949D01*
X136697593Y-101579688D01*
X136667970Y-101641677D01*
X136641255Y-101698898D01*
X136610520Y-101765226D01*
X136582979Y-101824874D01*
X136560062Y-101874725D01*
X136543202Y-101911664D01*
X136533827Y-101932573D01*
X136532460Y-101935845D01*
X136526311Y-101930497D01*
X136512178Y-101908109D01*
X136491943Y-101871946D01*
X136467485Y-101825277D01*
X136457752Y-101806022D01*
X136424783Y-101741004D01*
X136399357Y-101693654D01*
X136379388Y-101661219D01*
X136362790Y-101640946D01*
X136347476Y-101630082D01*
X136331360Y-101625875D01*
X136320857Y-101625400D01*
X136302330Y-101627042D01*
X136286096Y-101633831D01*
X136269965Y-101648566D01*
X136251749Y-101674044D01*
X136229261Y-101713061D01*
X136200311Y-101768414D01*
X136184338Y-101799903D01*
X136158430Y-101850087D01*
X136135833Y-101891704D01*
X136118542Y-101921242D01*
X136108550Y-101935189D01*
X136107191Y-101935770D01*
X136100739Y-101924793D01*
X136086292Y-101896290D01*
X136065297Y-101853244D01*
X136039203Y-101798638D01*
X136009454Y-101735454D01*
X135994820Y-101704071D01*
X135956750Y-101623078D01*
X135926095Y-101560756D01*
X135901263Y-101515071D01*
X135880663Y-101483989D01*
X135862702Y-101465478D01*
X135845790Y-101457504D01*
X135828335Y-101458034D01*
G37*
X135828335Y-101458034D02*
X135808745Y-101465035D01*
X135807990Y-101465377D01*
X135781387Y-101485678D01*
X135766730Y-101506561D01*
X135763862Y-101516352D01*
X135764004Y-101529361D01*
X135768039Y-101547895D01*
X135776854Y-101574257D01*
X135791331Y-101610752D01*
X135812355Y-101659687D01*
X135840812Y-101723365D01*
X135877585Y-101804093D01*
X135897825Y-101848216D01*
X135934375Y-101926985D01*
X135968685Y-101999423D01*
X135999448Y-102062880D01*
X136025352Y-102114708D01*
X136045090Y-102152259D01*
X136057350Y-102172884D01*
X136059776Y-102175733D01*
X136090817Y-102188302D01*
X136125879Y-102186619D01*
X136154000Y-102171332D01*
X136155146Y-102170089D01*
X136166332Y-102153154D01*
X136185096Y-102120170D01*
X136209125Y-102075380D01*
X136236103Y-102023032D01*
X136245799Y-102003742D01*
X136318986Y-101857150D01*
X136398760Y-102016393D01*
X136427233Y-102071415D01*
X136453650Y-102119132D01*
X136475852Y-102155893D01*
X136491681Y-102178044D01*
X136497046Y-102182741D01*
X136538743Y-102189102D01*
X136573151Y-102175733D01*
X136583272Y-102161446D01*
X136600786Y-102129692D01*
X136624265Y-102083597D01*
X136652280Y-102026285D01*
X136683401Y-101960880D01*
X136716201Y-101890507D01*
X136749250Y-101818291D01*
X136781119Y-101747355D01*
X136810381Y-101680825D01*
X136835605Y-101621826D01*
X136855364Y-101573481D01*
X136868228Y-101538915D01*
X136872769Y-101521253D01*
X136872723Y-101520613D01*
X136861674Y-101498388D01*
X136839590Y-101475753D01*
X136838290Y-101474768D01*
X136811147Y-101459425D01*
X136786042Y-101459574D01*
X136776632Y-101462466D01*
X136765166Y-101468718D01*
X136752990Y-101481014D01*
X136738643Y-101501908D01*
X136720664Y-101533949D01*
X136697593Y-101579688D01*
X136667970Y-101641677D01*
X136641255Y-101698898D01*
X136610520Y-101765226D01*
X136582979Y-101824874D01*
X136560062Y-101874725D01*
X136543202Y-101911664D01*
X136533827Y-101932573D01*
X136532460Y-101935845D01*
X136526311Y-101930497D01*
X136512178Y-101908109D01*
X136491943Y-101871946D01*
X136467485Y-101825277D01*
X136457752Y-101806022D01*
X136424783Y-101741004D01*
X136399357Y-101693654D01*
X136379388Y-101661219D01*
X136362790Y-101640946D01*
X136347476Y-101630082D01*
X136331360Y-101625875D01*
X136320857Y-101625400D01*
X136302330Y-101627042D01*
X136286096Y-101633831D01*
X136269965Y-101648566D01*
X136251749Y-101674044D01*
X136229261Y-101713061D01*
X136200311Y-101768414D01*
X136184338Y-101799903D01*
X136158430Y-101850087D01*
X136135833Y-101891704D01*
X136118542Y-101921242D01*
X136108550Y-101935189D01*
X136107191Y-101935770D01*
X136100739Y-101924793D01*
X136086292Y-101896290D01*
X136065297Y-101853244D01*
X136039203Y-101798638D01*
X136009454Y-101735454D01*
X135994820Y-101704071D01*
X135956750Y-101623078D01*
X135926095Y-101560756D01*
X135901263Y-101515071D01*
X135880663Y-101483989D01*
X135862702Y-101465478D01*
X135845790Y-101457504D01*
X135828335Y-101458034D01*
G36*
X138554691Y-101456275D02*
G01*
X138425712Y-101460636D01*
X138316009Y-101473861D01*
X138223774Y-101496741D01*
X138147198Y-101530070D01*
X138084473Y-101574638D01*
X138033788Y-101631236D01*
X137993337Y-101700658D01*
X137992541Y-101702351D01*
X137968399Y-101764483D01*
X137959797Y-101819509D01*
X137966769Y-101874887D01*
X137989346Y-101938073D01*
X137993628Y-101947689D01*
X138022828Y-102003966D01*
X138055644Y-102047451D01*
X138097998Y-102084417D01*
X138155810Y-102121135D01*
X138159169Y-102123052D01*
X138209496Y-102147227D01*
X138266379Y-102165282D01*
X138333473Y-102177839D01*
X138414435Y-102185522D01*
X138512918Y-102188953D01*
X138547714Y-102189251D01*
X138713406Y-102189845D01*
X138736803Y-102160100D01*
X138743743Y-102150319D01*
X138749158Y-102138897D01*
X138753235Y-102123095D01*
X138756163Y-102100175D01*
X138758133Y-102067396D01*
X138758775Y-102043089D01*
X138602156Y-102043089D01*
X138508274Y-102043089D01*
X138453336Y-102041483D01*
X138396940Y-102037255D01*
X138350655Y-102031292D01*
X138347861Y-102030790D01*
X138265652Y-102008736D01*
X138201886Y-101975600D01*
X138154548Y-101929847D01*
X138121618Y-101869939D01*
X138115892Y-101854061D01*
X138110279Y-101829333D01*
X138112709Y-101804902D01*
X138124533Y-101772400D01*
X138131660Y-101756434D01*
X138155000Y-101714006D01*
X138183120Y-101684240D01*
X138214060Y-101663511D01*
X138276034Y-101636537D01*
X138355349Y-101616998D01*
X138447747Y-101605746D01*
X138514667Y-101603270D01*
X138602156Y-101602822D01*
X138602156Y-102043089D01*
X138758775Y-102043089D01*
X138759332Y-102022021D01*
X138759950Y-101961311D01*
X138760175Y-101882526D01*
X138760200Y-101820920D01*
X138760200Y-101511485D01*
X138732491Y-101483776D01*
X138720194Y-101472544D01*
X138706897Y-101464853D01*
X138688328Y-101460040D01*
X138660214Y-101457446D01*
X138618283Y-101456410D01*
X138558263Y-101456270D01*
X138554691Y-101456275D01*
G37*
X138554691Y-101456275D02*
X138425712Y-101460636D01*
X138316009Y-101473861D01*
X138223774Y-101496741D01*
X138147198Y-101530070D01*
X138084473Y-101574638D01*
X138033788Y-101631236D01*
X137993337Y-101700658D01*
X137992541Y-101702351D01*
X137968399Y-101764483D01*
X137959797Y-101819509D01*
X137966769Y-101874887D01*
X137989346Y-101938073D01*
X137993628Y-101947689D01*
X138022828Y-102003966D01*
X138055644Y-102047451D01*
X138097998Y-102084417D01*
X138155810Y-102121135D01*
X138159169Y-102123052D01*
X138209496Y-102147227D01*
X138266379Y-102165282D01*
X138333473Y-102177839D01*
X138414435Y-102185522D01*
X138512918Y-102188953D01*
X138547714Y-102189251D01*
X138713406Y-102189845D01*
X138736803Y-102160100D01*
X138743743Y-102150319D01*
X138749158Y-102138897D01*
X138753235Y-102123095D01*
X138756163Y-102100175D01*
X138758133Y-102067396D01*
X138758775Y-102043089D01*
X138602156Y-102043089D01*
X138508274Y-102043089D01*
X138453336Y-102041483D01*
X138396940Y-102037255D01*
X138350655Y-102031292D01*
X138347861Y-102030790D01*
X138265652Y-102008736D01*
X138201886Y-101975600D01*
X138154548Y-101929847D01*
X138121618Y-101869939D01*
X138115892Y-101854061D01*
X138110279Y-101829333D01*
X138112709Y-101804902D01*
X138124533Y-101772400D01*
X138131660Y-101756434D01*
X138155000Y-101714006D01*
X138183120Y-101684240D01*
X138214060Y-101663511D01*
X138276034Y-101636537D01*
X138355349Y-101616998D01*
X138447747Y-101605746D01*
X138514667Y-101603270D01*
X138602156Y-101602822D01*
X138602156Y-102043089D01*
X138758775Y-102043089D01*
X138759332Y-102022021D01*
X138759950Y-101961311D01*
X138760175Y-101882526D01*
X138760200Y-101820920D01*
X138760200Y-101511485D01*
X138732491Y-101483776D01*
X138720194Y-101472544D01*
X138706897Y-101464853D01*
X138688328Y-101460040D01*
X138660214Y-101457446D01*
X138618283Y-101456410D01*
X138558263Y-101456270D01*
X138554691Y-101456275D01*
G36*
X139342657Y-101456260D02*
G01*
X139266299Y-101457174D01*
X139207783Y-101459311D01*
X139164745Y-101463175D01*
X139134817Y-101469267D01*
X139115632Y-101478090D01*
X139104824Y-101490146D01*
X139100027Y-101505939D01*
X139098873Y-101525970D01*
X139098867Y-101528335D01*
X139099869Y-101550992D01*
X139104604Y-101568503D01*
X139115667Y-101581574D01*
X139135652Y-101590913D01*
X139167154Y-101597227D01*
X139212768Y-101601222D01*
X139275087Y-101603606D01*
X139356707Y-101605086D01*
X139381723Y-101605414D01*
X139623800Y-101608467D01*
X139627186Y-101673378D01*
X139630571Y-101738289D01*
X139462424Y-101738289D01*
X139396734Y-101738531D01*
X139349828Y-101739556D01*
X139317917Y-101741811D01*
X139297209Y-101745742D01*
X139283916Y-101751798D01*
X139274245Y-101760424D01*
X139274183Y-101760493D01*
X139256644Y-101794112D01*
X139257278Y-101830448D01*
X139275686Y-101861423D01*
X139279329Y-101864607D01*
X139292259Y-101872812D01*
X139309976Y-101878521D01*
X139336430Y-101882162D01*
X139375568Y-101884167D01*
X139431338Y-101884964D01*
X139467006Y-101885045D01*
X139629445Y-101885045D01*
X139629445Y-102043089D01*
X139382839Y-102043089D01*
X139301420Y-102043231D01*
X139239590Y-102043814D01*
X139194363Y-102045068D01*
X139162752Y-102047227D01*
X139141769Y-102050523D01*
X139128427Y-102055189D01*
X139119739Y-102061457D01*
X139117550Y-102063733D01*
X139101386Y-102095280D01*
X139100203Y-102131168D01*
X139113464Y-102162285D01*
X139123957Y-102172271D01*
X139134871Y-102177769D01*
X139151783Y-102182022D01*
X139177367Y-102185180D01*
X139214299Y-102187392D01*
X139265254Y-102188806D01*
X139332906Y-102189572D01*
X139419931Y-102189838D01*
X139439606Y-102189845D01*
X139528089Y-102189787D01*
X139596773Y-102189467D01*
X139648436Y-102188667D01*
X139685855Y-102187167D01*
X139711810Y-102184749D01*
X139729078Y-102181194D01*
X139740438Y-102176282D01*
X139748668Y-102169795D01*
X139753183Y-102165138D01*
X139759979Y-102156889D01*
X139765288Y-102146669D01*
X139769294Y-102131800D01*
X139772179Y-102109602D01*
X139774126Y-102077393D01*
X139775319Y-102032496D01*
X139775939Y-101972228D01*
X139776171Y-101893911D01*
X139776200Y-101827994D01*
X139776129Y-101735628D01*
X139775792Y-101663117D01*
X139775002Y-101607737D01*
X139773574Y-101566765D01*
X139771321Y-101537478D01*
X139768057Y-101517153D01*
X139763596Y-101503066D01*
X139757752Y-101492495D01*
X139752803Y-101485811D01*
X139729406Y-101456067D01*
X139439226Y-101456067D01*
X139342657Y-101456260D01*
G37*
X139342657Y-101456260D02*
X139266299Y-101457174D01*
X139207783Y-101459311D01*
X139164745Y-101463175D01*
X139134817Y-101469267D01*
X139115632Y-101478090D01*
X139104824Y-101490146D01*
X139100027Y-101505939D01*
X139098873Y-101525970D01*
X139098867Y-101528335D01*
X139099869Y-101550992D01*
X139104604Y-101568503D01*
X139115667Y-101581574D01*
X139135652Y-101590913D01*
X139167154Y-101597227D01*
X139212768Y-101601222D01*
X139275087Y-101603606D01*
X139356707Y-101605086D01*
X139381723Y-101605414D01*
X139623800Y-101608467D01*
X139627186Y-101673378D01*
X139630571Y-101738289D01*
X139462424Y-101738289D01*
X139396734Y-101738531D01*
X139349828Y-101739556D01*
X139317917Y-101741811D01*
X139297209Y-101745742D01*
X139283916Y-101751798D01*
X139274245Y-101760424D01*
X139274183Y-101760493D01*
X139256644Y-101794112D01*
X139257278Y-101830448D01*
X139275686Y-101861423D01*
X139279329Y-101864607D01*
X139292259Y-101872812D01*
X139309976Y-101878521D01*
X139336430Y-101882162D01*
X139375568Y-101884167D01*
X139431338Y-101884964D01*
X139467006Y-101885045D01*
X139629445Y-101885045D01*
X139629445Y-102043089D01*
X139382839Y-102043089D01*
X139301420Y-102043231D01*
X139239590Y-102043814D01*
X139194363Y-102045068D01*
X139162752Y-102047227D01*
X139141769Y-102050523D01*
X139128427Y-102055189D01*
X139119739Y-102061457D01*
X139117550Y-102063733D01*
X139101386Y-102095280D01*
X139100203Y-102131168D01*
X139113464Y-102162285D01*
X139123957Y-102172271D01*
X139134871Y-102177769D01*
X139151783Y-102182022D01*
X139177367Y-102185180D01*
X139214299Y-102187392D01*
X139265254Y-102188806D01*
X139332906Y-102189572D01*
X139419931Y-102189838D01*
X139439606Y-102189845D01*
X139528089Y-102189787D01*
X139596773Y-102189467D01*
X139648436Y-102188667D01*
X139685855Y-102187167D01*
X139711810Y-102184749D01*
X139729078Y-102181194D01*
X139740438Y-102176282D01*
X139748668Y-102169795D01*
X139753183Y-102165138D01*
X139759979Y-102156889D01*
X139765288Y-102146669D01*
X139769294Y-102131800D01*
X139772179Y-102109602D01*
X139774126Y-102077393D01*
X139775319Y-102032496D01*
X139775939Y-101972228D01*
X139776171Y-101893911D01*
X139776200Y-101827994D01*
X139776129Y-101735628D01*
X139775792Y-101663117D01*
X139775002Y-101607737D01*
X139773574Y-101566765D01*
X139771321Y-101537478D01*
X139768057Y-101517153D01*
X139763596Y-101503066D01*
X139757752Y-101492495D01*
X139752803Y-101485811D01*
X139729406Y-101456067D01*
X139439226Y-101456067D01*
X139342657Y-101456260D01*
G36*
X140873114Y-101460448D02*
G01*
X140849548Y-101474273D01*
X140818735Y-101496881D01*
X140779078Y-101529338D01*
X140728980Y-101572708D01*
X140666843Y-101628058D01*
X140591072Y-101696451D01*
X140504334Y-101775084D01*
X140323711Y-101938878D01*
X140318067Y-101719029D01*
X140316029Y-101643351D01*
X140314063Y-101586994D01*
X140311734Y-101546706D01*
X140308606Y-101519235D01*
X140304245Y-101501329D01*
X140298216Y-101489737D01*
X140290084Y-101481208D01*
X140285772Y-101477623D01*
X140251241Y-101458670D01*
X140218383Y-101461441D01*
X140192318Y-101477633D01*
X140165667Y-101499199D01*
X140162352Y-101814151D01*
X140161435Y-101906779D01*
X140160968Y-101979544D01*
X140161113Y-102035161D01*
X140162032Y-102076342D01*
X140163887Y-102105803D01*
X140166839Y-102126255D01*
X140171050Y-102140413D01*
X140176682Y-102150991D01*
X140182927Y-102159474D01*
X140196439Y-102175207D01*
X140209883Y-102185636D01*
X140225124Y-102189639D01*
X140244026Y-102186094D01*
X140268455Y-102173879D01*
X140300273Y-102151871D01*
X140341348Y-102118949D01*
X140393542Y-102073991D01*
X140458722Y-102015875D01*
X140532556Y-101949099D01*
X140797845Y-101708458D01*
X140803489Y-101927589D01*
X140805531Y-102003128D01*
X140807502Y-102059354D01*
X140809839Y-102099524D01*
X140812981Y-102126896D01*
X140817364Y-102144728D01*
X140823424Y-102156279D01*
X140831600Y-102164807D01*
X140835784Y-102168282D01*
X140872765Y-102187372D01*
X140907708Y-102184493D01*
X140938136Y-102160100D01*
X140945097Y-102150286D01*
X140950523Y-102138826D01*
X140954603Y-102122968D01*
X140957529Y-102099963D01*
X140959492Y-102067062D01*
X140960683Y-102021516D01*
X140961292Y-101960573D01*
X140961511Y-101881486D01*
X140961534Y-101822956D01*
X140961460Y-101731407D01*
X140961113Y-101659687D01*
X140960301Y-101605045D01*
X140958833Y-101564732D01*
X140956519Y-101535998D01*
X140953167Y-101516093D01*
X140948588Y-101502268D01*
X140942589Y-101491772D01*
X140938136Y-101485811D01*
X140926850Y-101471691D01*
X140916301Y-101461029D01*
X140904893Y-101454892D01*
X140891030Y-101454343D01*
X140873114Y-101460448D01*
G37*
X140873114Y-101460448D02*
X140849548Y-101474273D01*
X140818735Y-101496881D01*
X140779078Y-101529338D01*
X140728980Y-101572708D01*
X140666843Y-101628058D01*
X140591072Y-101696451D01*
X140504334Y-101775084D01*
X140323711Y-101938878D01*
X140318067Y-101719029D01*
X140316029Y-101643351D01*
X140314063Y-101586994D01*
X140311734Y-101546706D01*
X140308606Y-101519235D01*
X140304245Y-101501329D01*
X140298216Y-101489737D01*
X140290084Y-101481208D01*
X140285772Y-101477623D01*
X140251241Y-101458670D01*
X140218383Y-101461441D01*
X140192318Y-101477633D01*
X140165667Y-101499199D01*
X140162352Y-101814151D01*
X140161435Y-101906779D01*
X140160968Y-101979544D01*
X140161113Y-102035161D01*
X140162032Y-102076342D01*
X140163887Y-102105803D01*
X140166839Y-102126255D01*
X140171050Y-102140413D01*
X140176682Y-102150991D01*
X140182927Y-102159474D01*
X140196439Y-102175207D01*
X140209883Y-102185636D01*
X140225124Y-102189639D01*
X140244026Y-102186094D01*
X140268455Y-102173879D01*
X140300273Y-102151871D01*
X140341348Y-102118949D01*
X140393542Y-102073991D01*
X140458722Y-102015875D01*
X140532556Y-101949099D01*
X140797845Y-101708458D01*
X140803489Y-101927589D01*
X140805531Y-102003128D01*
X140807502Y-102059354D01*
X140809839Y-102099524D01*
X140812981Y-102126896D01*
X140817364Y-102144728D01*
X140823424Y-102156279D01*
X140831600Y-102164807D01*
X140835784Y-102168282D01*
X140872765Y-102187372D01*
X140907708Y-102184493D01*
X140938136Y-102160100D01*
X140945097Y-102150286D01*
X140950523Y-102138826D01*
X140954603Y-102122968D01*
X140957529Y-102099963D01*
X140959492Y-102067062D01*
X140960683Y-102021516D01*
X140961292Y-101960573D01*
X140961511Y-101881486D01*
X140961534Y-101822956D01*
X140961460Y-101731407D01*
X140961113Y-101659687D01*
X140960301Y-101605045D01*
X140958833Y-101564732D01*
X140956519Y-101535998D01*
X140953167Y-101516093D01*
X140948588Y-101502268D01*
X140942589Y-101491772D01*
X140938136Y-101485811D01*
X140926850Y-101471691D01*
X140916301Y-101461029D01*
X140904893Y-101454892D01*
X140891030Y-101454343D01*
X140873114Y-101460448D01*
G36*
X141523081Y-101461599D02*
G01*
X141454565Y-101473095D01*
X141401943Y-101490967D01*
X141367708Y-101514499D01*
X141358379Y-101527924D01*
X141348893Y-101559148D01*
X141355277Y-101587395D01*
X141375430Y-101614182D01*
X141406745Y-101626713D01*
X141452183Y-101625696D01*
X141487326Y-101618906D01*
X141565419Y-101605971D01*
X141645226Y-101604742D01*
X141734555Y-101615241D01*
X141759229Y-101619690D01*
X141842291Y-101643108D01*
X141907273Y-101677945D01*
X141953461Y-101723604D01*
X141980145Y-101779494D01*
X141985663Y-101808388D01*
X141982051Y-101867012D01*
X141958729Y-101918879D01*
X141917824Y-101962978D01*
X141861459Y-101998299D01*
X141791760Y-102023829D01*
X141710852Y-102038559D01*
X141620860Y-102041478D01*
X141523910Y-102031575D01*
X141518436Y-102030641D01*
X141479875Y-102023459D01*
X141458494Y-102016521D01*
X141449227Y-102006227D01*
X141447006Y-101988976D01*
X141446956Y-101979841D01*
X141446956Y-101941489D01*
X141515431Y-101941489D01*
X141575900Y-101937347D01*
X141617165Y-101924147D01*
X141641175Y-101900730D01*
X141649877Y-101865936D01*
X141649983Y-101861394D01*
X141644892Y-101831654D01*
X141627433Y-101810419D01*
X141594939Y-101796366D01*
X141544743Y-101788173D01*
X141496123Y-101785161D01*
X141425456Y-101783433D01*
X141374198Y-101786070D01*
X141339239Y-101795800D01*
X141317470Y-101815353D01*
X141305780Y-101847456D01*
X141301060Y-101894838D01*
X141300200Y-101957071D01*
X141301609Y-102026535D01*
X141305848Y-102073786D01*
X141312936Y-102099012D01*
X141314311Y-102100988D01*
X141353228Y-102132508D01*
X141410286Y-102157470D01*
X141481869Y-102175340D01*
X141564358Y-102185586D01*
X141654139Y-102187673D01*
X141747592Y-102181068D01*
X141802556Y-102172956D01*
X141888766Y-102148554D01*
X141968892Y-102108662D01*
X142035977Y-102056887D01*
X142046173Y-102046539D01*
X142079302Y-102003035D01*
X142109194Y-101949118D01*
X142132357Y-101892592D01*
X142145298Y-101841259D01*
X142146858Y-101821544D01*
X142140218Y-101780419D01*
X142122568Y-101729252D01*
X142097297Y-101675394D01*
X142067789Y-101626195D01*
X142041719Y-101593334D01*
X141980765Y-101544452D01*
X141901969Y-101505545D01*
X141808157Y-101477494D01*
X141702150Y-101461179D01*
X141605000Y-101457192D01*
X141523081Y-101461599D01*
G37*
X141523081Y-101461599D02*
X141454565Y-101473095D01*
X141401943Y-101490967D01*
X141367708Y-101514499D01*
X141358379Y-101527924D01*
X141348893Y-101559148D01*
X141355277Y-101587395D01*
X141375430Y-101614182D01*
X141406745Y-101626713D01*
X141452183Y-101625696D01*
X141487326Y-101618906D01*
X141565419Y-101605971D01*
X141645226Y-101604742D01*
X141734555Y-101615241D01*
X141759229Y-101619690D01*
X141842291Y-101643108D01*
X141907273Y-101677945D01*
X141953461Y-101723604D01*
X141980145Y-101779494D01*
X141985663Y-101808388D01*
X141982051Y-101867012D01*
X141958729Y-101918879D01*
X141917824Y-101962978D01*
X141861459Y-101998299D01*
X141791760Y-102023829D01*
X141710852Y-102038559D01*
X141620860Y-102041478D01*
X141523910Y-102031575D01*
X141518436Y-102030641D01*
X141479875Y-102023459D01*
X141458494Y-102016521D01*
X141449227Y-102006227D01*
X141447006Y-101988976D01*
X141446956Y-101979841D01*
X141446956Y-101941489D01*
X141515431Y-101941489D01*
X141575900Y-101937347D01*
X141617165Y-101924147D01*
X141641175Y-101900730D01*
X141649877Y-101865936D01*
X141649983Y-101861394D01*
X141644892Y-101831654D01*
X141627433Y-101810419D01*
X141594939Y-101796366D01*
X141544743Y-101788173D01*
X141496123Y-101785161D01*
X141425456Y-101783433D01*
X141374198Y-101786070D01*
X141339239Y-101795800D01*
X141317470Y-101815353D01*
X141305780Y-101847456D01*
X141301060Y-101894838D01*
X141300200Y-101957071D01*
X141301609Y-102026535D01*
X141305848Y-102073786D01*
X141312936Y-102099012D01*
X141314311Y-102100988D01*
X141353228Y-102132508D01*
X141410286Y-102157470D01*
X141481869Y-102175340D01*
X141564358Y-102185586D01*
X141654139Y-102187673D01*
X141747592Y-102181068D01*
X141802556Y-102172956D01*
X141888766Y-102148554D01*
X141968892Y-102108662D01*
X142035977Y-102056887D01*
X142046173Y-102046539D01*
X142079302Y-102003035D01*
X142109194Y-101949118D01*
X142132357Y-101892592D01*
X142145298Y-101841259D01*
X142146858Y-101821544D01*
X142140218Y-101780419D01*
X142122568Y-101729252D01*
X142097297Y-101675394D01*
X142067789Y-101626195D01*
X142041719Y-101593334D01*
X141980765Y-101544452D01*
X141901969Y-101505545D01*
X141808157Y-101477494D01*
X141702150Y-101461179D01*
X141605000Y-101457192D01*
X141523081Y-101461599D01*
G36*
X142496822Y-101478645D02*
G01*
X142490242Y-101486218D01*
X142485079Y-101495987D01*
X142481164Y-101510571D01*
X142478324Y-101532585D01*
X142476387Y-101564648D01*
X142475183Y-101609375D01*
X142474539Y-101669385D01*
X142474284Y-101747294D01*
X142474245Y-101822956D01*
X142474314Y-101916802D01*
X142474638Y-101990689D01*
X142475386Y-102047232D01*
X142476732Y-102089049D01*
X142478846Y-102118757D01*
X142481900Y-102138973D01*
X142486066Y-102152314D01*
X142491516Y-102161398D01*
X142496822Y-102167267D01*
X142529826Y-102186947D01*
X142564991Y-102185181D01*
X142596455Y-102163717D01*
X142603684Y-102155337D01*
X142609334Y-102145614D01*
X142613599Y-102131861D01*
X142616673Y-102111389D01*
X142618752Y-102081512D01*
X142620030Y-102039541D01*
X142620701Y-101982789D01*
X142620959Y-101908567D01*
X142621000Y-101824537D01*
X142621000Y-101511485D01*
X142593291Y-101483776D01*
X142559137Y-101460463D01*
X142526006Y-101459623D01*
X142496822Y-101478645D01*
G37*
X142496822Y-101478645D02*
X142490242Y-101486218D01*
X142485079Y-101495987D01*
X142481164Y-101510571D01*
X142478324Y-101532585D01*
X142476387Y-101564648D01*
X142475183Y-101609375D01*
X142474539Y-101669385D01*
X142474284Y-101747294D01*
X142474245Y-101822956D01*
X142474314Y-101916802D01*
X142474638Y-101990689D01*
X142475386Y-102047232D01*
X142476732Y-102089049D01*
X142478846Y-102118757D01*
X142481900Y-102138973D01*
X142486066Y-102152314D01*
X142491516Y-102161398D01*
X142496822Y-102167267D01*
X142529826Y-102186947D01*
X142564991Y-102185181D01*
X142596455Y-102163717D01*
X142603684Y-102155337D01*
X142609334Y-102145614D01*
X142613599Y-102131861D01*
X142616673Y-102111389D01*
X142618752Y-102081512D01*
X142620030Y-102039541D01*
X142620701Y-101982789D01*
X142620959Y-101908567D01*
X142621000Y-101824537D01*
X142621000Y-101511485D01*
X142593291Y-101483776D01*
X142559137Y-101460463D01*
X142526006Y-101459623D01*
X142496822Y-101478645D01*
G36*
X143264703Y-101457351D02*
G01*
X143189888Y-101462581D01*
X143120306Y-101470750D01*
X143060002Y-101481550D01*
X143013020Y-101494673D01*
X142983406Y-101509813D01*
X142978860Y-101514269D01*
X142963054Y-101548850D01*
X142967847Y-101584351D01*
X142992364Y-101614725D01*
X142993534Y-101615596D01*
X143007954Y-101624954D01*
X143023008Y-101629876D01*
X143044005Y-101630473D01*
X143076257Y-101626861D01*
X143125073Y-101619154D01*
X143129000Y-101618505D01*
X143201739Y-101609569D01*
X143280217Y-101605161D01*
X143358927Y-101605119D01*
X143432361Y-101609279D01*
X143495011Y-101617479D01*
X143541370Y-101629557D01*
X143544416Y-101630771D01*
X143578048Y-101649615D01*
X143589864Y-101668685D01*
X143580614Y-101687439D01*
X143551047Y-101705337D01*
X143501911Y-101721837D01*
X143433957Y-101736396D01*
X143388645Y-101743406D01*
X143294456Y-101756889D01*
X143219544Y-101769214D01*
X143160717Y-101781449D01*
X143114785Y-101794661D01*
X143078555Y-101809917D01*
X143048838Y-101828285D01*
X143022442Y-101850831D01*
X143001230Y-101872971D01*
X142976065Y-101903819D01*
X142963681Y-101930345D01*
X142959808Y-101963026D01*
X142959667Y-101974995D01*
X142962576Y-102014712D01*
X142974202Y-102044259D01*
X142994323Y-102070486D01*
X143035216Y-102110576D01*
X143080817Y-102141149D01*
X143134513Y-102163203D01*
X143199692Y-102177735D01*
X143279744Y-102185741D01*
X143378057Y-102188218D01*
X143394289Y-102188177D01*
X143459849Y-102186818D01*
X143524866Y-102183730D01*
X143582252Y-102179356D01*
X143624922Y-102174140D01*
X143628372Y-102173541D01*
X143670796Y-102163491D01*
X143706780Y-102150796D01*
X143727150Y-102139190D01*
X143746107Y-102108572D01*
X143747427Y-102072918D01*
X143731085Y-102041144D01*
X143727429Y-102037551D01*
X143712315Y-102026876D01*
X143693415Y-102022276D01*
X143664162Y-102023059D01*
X143628651Y-102027127D01*
X143588970Y-102030762D01*
X143533345Y-102033828D01*
X143468406Y-102036053D01*
X143400785Y-102037164D01*
X143383000Y-102037237D01*
X143315128Y-102036964D01*
X143265454Y-102035646D01*
X143229610Y-102032827D01*
X143203224Y-102028050D01*
X143181926Y-102020857D01*
X143169126Y-102014867D01*
X143141000Y-101998233D01*
X143123068Y-101983168D01*
X143120447Y-101978897D01*
X143125976Y-101961263D01*
X143152260Y-101944192D01*
X143197478Y-101928458D01*
X143259808Y-101914838D01*
X143278171Y-101911804D01*
X143374090Y-101896738D01*
X143450641Y-101884146D01*
X143510780Y-101873111D01*
X143557460Y-101862720D01*
X143593637Y-101852056D01*
X143622265Y-101840205D01*
X143646298Y-101826251D01*
X143668692Y-101809281D01*
X143692402Y-101788378D01*
X143700380Y-101781049D01*
X143728353Y-101753699D01*
X143743160Y-101732029D01*
X143748952Y-101707232D01*
X143749889Y-101675983D01*
X143739575Y-101614705D01*
X143708752Y-101562640D01*
X143657595Y-101519958D01*
X143586283Y-101486825D01*
X143535400Y-101471964D01*
X143480100Y-101462366D01*
X143413853Y-101456936D01*
X143340706Y-101455367D01*
X143264703Y-101457351D01*
G37*
X143264703Y-101457351D02*
X143189888Y-101462581D01*
X143120306Y-101470750D01*
X143060002Y-101481550D01*
X143013020Y-101494673D01*
X142983406Y-101509813D01*
X142978860Y-101514269D01*
X142963054Y-101548850D01*
X142967847Y-101584351D01*
X142992364Y-101614725D01*
X142993534Y-101615596D01*
X143007954Y-101624954D01*
X143023008Y-101629876D01*
X143044005Y-101630473D01*
X143076257Y-101626861D01*
X143125073Y-101619154D01*
X143129000Y-101618505D01*
X143201739Y-101609569D01*
X143280217Y-101605161D01*
X143358927Y-101605119D01*
X143432361Y-101609279D01*
X143495011Y-101617479D01*
X143541370Y-101629557D01*
X143544416Y-101630771D01*
X143578048Y-101649615D01*
X143589864Y-101668685D01*
X143580614Y-101687439D01*
X143551047Y-101705337D01*
X143501911Y-101721837D01*
X143433957Y-101736396D01*
X143388645Y-101743406D01*
X143294456Y-101756889D01*
X143219544Y-101769214D01*
X143160717Y-101781449D01*
X143114785Y-101794661D01*
X143078555Y-101809917D01*
X143048838Y-101828285D01*
X143022442Y-101850831D01*
X143001230Y-101872971D01*
X142976065Y-101903819D01*
X142963681Y-101930345D01*
X142959808Y-101963026D01*
X142959667Y-101974995D01*
X142962576Y-102014712D01*
X142974202Y-102044259D01*
X142994323Y-102070486D01*
X143035216Y-102110576D01*
X143080817Y-102141149D01*
X143134513Y-102163203D01*
X143199692Y-102177735D01*
X143279744Y-102185741D01*
X143378057Y-102188218D01*
X143394289Y-102188177D01*
X143459849Y-102186818D01*
X143524866Y-102183730D01*
X143582252Y-102179356D01*
X143624922Y-102174140D01*
X143628372Y-102173541D01*
X143670796Y-102163491D01*
X143706780Y-102150796D01*
X143727150Y-102139190D01*
X143746107Y-102108572D01*
X143747427Y-102072918D01*
X143731085Y-102041144D01*
X143727429Y-102037551D01*
X143712315Y-102026876D01*
X143693415Y-102022276D01*
X143664162Y-102023059D01*
X143628651Y-102027127D01*
X143588970Y-102030762D01*
X143533345Y-102033828D01*
X143468406Y-102036053D01*
X143400785Y-102037164D01*
X143383000Y-102037237D01*
X143315128Y-102036964D01*
X143265454Y-102035646D01*
X143229610Y-102032827D01*
X143203224Y-102028050D01*
X143181926Y-102020857D01*
X143169126Y-102014867D01*
X143141000Y-101998233D01*
X143123068Y-101983168D01*
X143120447Y-101978897D01*
X143125976Y-101961263D01*
X143152260Y-101944192D01*
X143197478Y-101928458D01*
X143259808Y-101914838D01*
X143278171Y-101911804D01*
X143374090Y-101896738D01*
X143450641Y-101884146D01*
X143510780Y-101873111D01*
X143557460Y-101862720D01*
X143593637Y-101852056D01*
X143622265Y-101840205D01*
X143646298Y-101826251D01*
X143668692Y-101809281D01*
X143692402Y-101788378D01*
X143700380Y-101781049D01*
X143728353Y-101753699D01*
X143743160Y-101732029D01*
X143748952Y-101707232D01*
X143749889Y-101675983D01*
X143739575Y-101614705D01*
X143708752Y-101562640D01*
X143657595Y-101519958D01*
X143586283Y-101486825D01*
X143535400Y-101471964D01*
X143480100Y-101462366D01*
X143413853Y-101456936D01*
X143340706Y-101455367D01*
X143264703Y-101457351D01*
G36*
X144285794Y-101456146D02*
G01*
X144216386Y-101456518D01*
X144163997Y-101457385D01*
X144125847Y-101458946D01*
X144099159Y-101461403D01*
X144081153Y-101464957D01*
X144069049Y-101469810D01*
X144060069Y-101476161D01*
X144056818Y-101479084D01*
X144037043Y-101510142D01*
X144033482Y-101545828D01*
X144046491Y-101577510D01*
X144052506Y-101583913D01*
X144062235Y-101590121D01*
X144077901Y-101594910D01*
X144102408Y-101598514D01*
X144138661Y-101601164D01*
X144189565Y-101603095D01*
X144258026Y-101604539D01*
X144320617Y-101605418D01*
X144568334Y-101608467D01*
X144571719Y-101673378D01*
X144575105Y-101738289D01*
X144406958Y-101738289D01*
X144333959Y-101738919D01*
X144280517Y-101741553D01*
X144243628Y-101747309D01*
X144220288Y-101757304D01*
X144207494Y-101772656D01*
X144202242Y-101794482D01*
X144201445Y-101814738D01*
X144203923Y-101839592D01*
X144213277Y-101857906D01*
X144232383Y-101870637D01*
X144264118Y-101878741D01*
X144311359Y-101883176D01*
X144376983Y-101884899D01*
X144412801Y-101885045D01*
X144573978Y-101885045D01*
X144573978Y-102043089D01*
X144325622Y-102043089D01*
X144244213Y-102043202D01*
X144182342Y-102043712D01*
X144136968Y-102044870D01*
X144105054Y-102046930D01*
X144083559Y-102050146D01*
X144069443Y-102054772D01*
X144059668Y-102061059D01*
X144054689Y-102065667D01*
X144037610Y-102092560D01*
X144032111Y-102116467D01*
X144039963Y-102145667D01*
X144054689Y-102167267D01*
X144062546Y-102174066D01*
X144072688Y-102179346D01*
X144087844Y-102183298D01*
X144110741Y-102186113D01*
X144144109Y-102187982D01*
X144190675Y-102189098D01*
X144253167Y-102189651D01*
X144334314Y-102189833D01*
X144376422Y-102189845D01*
X144466598Y-102189765D01*
X144536924Y-102189398D01*
X144590129Y-102188552D01*
X144628940Y-102187036D01*
X144656087Y-102184659D01*
X144674298Y-102181229D01*
X144686300Y-102176554D01*
X144694822Y-102170444D01*
X144698156Y-102167267D01*
X144704755Y-102159670D01*
X144709927Y-102149870D01*
X144713846Y-102135239D01*
X144716684Y-102113152D01*
X144718615Y-102080982D01*
X144719812Y-102036103D01*
X144720448Y-101975889D01*
X144720697Y-101897713D01*
X144720734Y-101824923D01*
X144720700Y-101731707D01*
X144720465Y-101658431D01*
X144719830Y-101602458D01*
X144718594Y-101561151D01*
X144716556Y-101531872D01*
X144713517Y-101511984D01*
X144709277Y-101498850D01*
X144703635Y-101489832D01*
X144696391Y-101482293D01*
X144694606Y-101480612D01*
X144685945Y-101473172D01*
X144675882Y-101467409D01*
X144661625Y-101463112D01*
X144640383Y-101460064D01*
X144609364Y-101458051D01*
X144565777Y-101456860D01*
X144506831Y-101456275D01*
X144429734Y-101456083D01*
X144375001Y-101456067D01*
X144285794Y-101456146D01*
G37*
X144285794Y-101456146D02*
X144216386Y-101456518D01*
X144163997Y-101457385D01*
X144125847Y-101458946D01*
X144099159Y-101461403D01*
X144081153Y-101464957D01*
X144069049Y-101469810D01*
X144060069Y-101476161D01*
X144056818Y-101479084D01*
X144037043Y-101510142D01*
X144033482Y-101545828D01*
X144046491Y-101577510D01*
X144052506Y-101583913D01*
X144062235Y-101590121D01*
X144077901Y-101594910D01*
X144102408Y-101598514D01*
X144138661Y-101601164D01*
X144189565Y-101603095D01*
X144258026Y-101604539D01*
X144320617Y-101605418D01*
X144568334Y-101608467D01*
X144571719Y-101673378D01*
X144575105Y-101738289D01*
X144406958Y-101738289D01*
X144333959Y-101738919D01*
X144280517Y-101741553D01*
X144243628Y-101747309D01*
X144220288Y-101757304D01*
X144207494Y-101772656D01*
X144202242Y-101794482D01*
X144201445Y-101814738D01*
X144203923Y-101839592D01*
X144213277Y-101857906D01*
X144232383Y-101870637D01*
X144264118Y-101878741D01*
X144311359Y-101883176D01*
X144376983Y-101884899D01*
X144412801Y-101885045D01*
X144573978Y-101885045D01*
X144573978Y-102043089D01*
X144325622Y-102043089D01*
X144244213Y-102043202D01*
X144182342Y-102043712D01*
X144136968Y-102044870D01*
X144105054Y-102046930D01*
X144083559Y-102050146D01*
X144069443Y-102054772D01*
X144059668Y-102061059D01*
X144054689Y-102065667D01*
X144037610Y-102092560D01*
X144032111Y-102116467D01*
X144039963Y-102145667D01*
X144054689Y-102167267D01*
X144062546Y-102174066D01*
X144072688Y-102179346D01*
X144087844Y-102183298D01*
X144110741Y-102186113D01*
X144144109Y-102187982D01*
X144190675Y-102189098D01*
X144253167Y-102189651D01*
X144334314Y-102189833D01*
X144376422Y-102189845D01*
X144466598Y-102189765D01*
X144536924Y-102189398D01*
X144590129Y-102188552D01*
X144628940Y-102187036D01*
X144656087Y-102184659D01*
X144674298Y-102181229D01*
X144686300Y-102176554D01*
X144694822Y-102170444D01*
X144698156Y-102167267D01*
X144704755Y-102159670D01*
X144709927Y-102149870D01*
X144713846Y-102135239D01*
X144716684Y-102113152D01*
X144718615Y-102080982D01*
X144719812Y-102036103D01*
X144720448Y-101975889D01*
X144720697Y-101897713D01*
X144720734Y-101824923D01*
X144720700Y-101731707D01*
X144720465Y-101658431D01*
X144719830Y-101602458D01*
X144718594Y-101561151D01*
X144716556Y-101531872D01*
X144713517Y-101511984D01*
X144709277Y-101498850D01*
X144703635Y-101489832D01*
X144696391Y-101482293D01*
X144694606Y-101480612D01*
X144685945Y-101473172D01*
X144675882Y-101467409D01*
X144661625Y-101463112D01*
X144640383Y-101460064D01*
X144609364Y-101458051D01*
X144565777Y-101456860D01*
X144506831Y-101456275D01*
X144429734Y-101456083D01*
X144375001Y-101456067D01*
X144285794Y-101456146D01*
G36*
X145694371Y-101456066D02*
G01*
X145654889Y-101456467D01*
X145539200Y-101459259D01*
X145442311Y-101467550D01*
X145360919Y-101482232D01*
X145291723Y-101504193D01*
X145231420Y-101534322D01*
X145176708Y-101573510D01*
X145157167Y-101590532D01*
X145124750Y-101630363D01*
X145095520Y-101684413D01*
X145072991Y-101744323D01*
X145060679Y-101801739D01*
X145059400Y-101822956D01*
X145067417Y-101881769D01*
X145088899Y-101946013D01*
X145119999Y-102006821D01*
X145156866Y-102055330D01*
X145162854Y-102061182D01*
X145213579Y-102102321D01*
X145269125Y-102134435D01*
X145332696Y-102158365D01*
X145407494Y-102174953D01*
X145496722Y-102185041D01*
X145603582Y-102189469D01*
X145652528Y-102189845D01*
X145714762Y-102189545D01*
X145758528Y-102188292D01*
X145787931Y-102185554D01*
X145807079Y-102180801D01*
X145820077Y-102173501D01*
X145827045Y-102167267D01*
X145833626Y-102159694D01*
X145838788Y-102149924D01*
X145842703Y-102135340D01*
X145845543Y-102113326D01*
X145847480Y-102081264D01*
X145848684Y-102036536D01*
X145849328Y-101976526D01*
X145849583Y-101898617D01*
X145849622Y-101822956D01*
X145849870Y-101722041D01*
X145849817Y-101641427D01*
X145848857Y-101602822D01*
X145702867Y-101602822D01*
X145702867Y-102043089D01*
X145609734Y-102043004D01*
X145553693Y-102041396D01*
X145494999Y-102037256D01*
X145446028Y-102031464D01*
X145444538Y-102031226D01*
X145365392Y-102012090D01*
X145304002Y-101982287D01*
X145257305Y-101939878D01*
X145227635Y-101893961D01*
X145209353Y-101843026D01*
X145210771Y-101795200D01*
X145231988Y-101743933D01*
X145273489Y-101690899D01*
X145330998Y-101651600D01*
X145405750Y-101625331D01*
X145455708Y-101616035D01*
X145512416Y-101609507D01*
X145572519Y-101604782D01*
X145623639Y-101602817D01*
X145626667Y-101602808D01*
X145702867Y-101602822D01*
X145848857Y-101602822D01*
X145848260Y-101578851D01*
X145843998Y-101532055D01*
X145835830Y-101498778D01*
X145822556Y-101476759D01*
X145802974Y-101463739D01*
X145775883Y-101457457D01*
X145740082Y-101455653D01*
X145694371Y-101456066D01*
G37*
X145694371Y-101456066D02*
X145654889Y-101456467D01*
X145539200Y-101459259D01*
X145442311Y-101467550D01*
X145360919Y-101482232D01*
X145291723Y-101504193D01*
X145231420Y-101534322D01*
X145176708Y-101573510D01*
X145157167Y-101590532D01*
X145124750Y-101630363D01*
X145095520Y-101684413D01*
X145072991Y-101744323D01*
X145060679Y-101801739D01*
X145059400Y-101822956D01*
X145067417Y-101881769D01*
X145088899Y-101946013D01*
X145119999Y-102006821D01*
X145156866Y-102055330D01*
X145162854Y-102061182D01*
X145213579Y-102102321D01*
X145269125Y-102134435D01*
X145332696Y-102158365D01*
X145407494Y-102174953D01*
X145496722Y-102185041D01*
X145603582Y-102189469D01*
X145652528Y-102189845D01*
X145714762Y-102189545D01*
X145758528Y-102188292D01*
X145787931Y-102185554D01*
X145807079Y-102180801D01*
X145820077Y-102173501D01*
X145827045Y-102167267D01*
X145833626Y-102159694D01*
X145838788Y-102149924D01*
X145842703Y-102135340D01*
X145845543Y-102113326D01*
X145847480Y-102081264D01*
X145848684Y-102036536D01*
X145849328Y-101976526D01*
X145849583Y-101898617D01*
X145849622Y-101822956D01*
X145849870Y-101722041D01*
X145849817Y-101641427D01*
X145848857Y-101602822D01*
X145702867Y-101602822D01*
X145702867Y-102043089D01*
X145609734Y-102043004D01*
X145553693Y-102041396D01*
X145494999Y-102037256D01*
X145446028Y-102031464D01*
X145444538Y-102031226D01*
X145365392Y-102012090D01*
X145304002Y-101982287D01*
X145257305Y-101939878D01*
X145227635Y-101893961D01*
X145209353Y-101843026D01*
X145210771Y-101795200D01*
X145231988Y-101743933D01*
X145273489Y-101690899D01*
X145330998Y-101651600D01*
X145405750Y-101625331D01*
X145455708Y-101616035D01*
X145512416Y-101609507D01*
X145572519Y-101604782D01*
X145623639Y-101602817D01*
X145626667Y-101602808D01*
X145702867Y-101602822D01*
X145848857Y-101602822D01*
X145848260Y-101578851D01*
X145843998Y-101532055D01*
X145835830Y-101498778D01*
X145822556Y-101476759D01*
X145802974Y-101463739D01*
X145775883Y-101457457D01*
X145740082Y-101455653D01*
X145694371Y-101456066D01*
M02*
