G04 #@! TF.GenerationSoftware,KiCad,Pcbnew,5.1.5-52549c5~84~ubuntu18.04.1*
G04 #@! TF.CreationDate,2020-01-02T13:17:24-07:00*
G04 #@! TF.ProjectId,wemos-01,77656d6f-732d-4303-912e-6b696361645f,rev?*
G04 #@! TF.SameCoordinates,Original*
G04 #@! TF.FileFunction,Soldermask,Top*
G04 #@! TF.FilePolarity,Negative*
%FSLAX46Y46*%
G04 Gerber Fmt 4.6, Leading zero omitted, Abs format (unit mm)*
G04 Created by KiCad (PCBNEW 5.1.5-52549c5~84~ubuntu18.04.1) date 2020-01-02 13:17:24*
%MOMM*%
%LPD*%
G04 APERTURE LIST*
%ADD10C,0.010000*%
%ADD11C,0.100000*%
G04 APERTURE END LIST*
D10*
G36*
X135828828Y-110608866D02*
G01*
X135872237Y-110637494D01*
X135885099Y-110647874D01*
X135930408Y-110682302D01*
X135963185Y-110700706D01*
X135967867Y-110701666D01*
X135990254Y-110718132D01*
X136020128Y-110758405D01*
X136023955Y-110764723D01*
X136047062Y-110815326D01*
X136048768Y-110865418D01*
X136038286Y-110912890D01*
X136020444Y-110965566D01*
X136003229Y-110995446D01*
X135998428Y-110998000D01*
X135988197Y-111017439D01*
X135975167Y-111069437D01*
X135961521Y-111144514D01*
X135955774Y-111183208D01*
X135915135Y-111394668D01*
X135857215Y-111568975D01*
X135782273Y-111705549D01*
X135690570Y-111803814D01*
X135669519Y-111819315D01*
X135595366Y-111858632D01*
X135528578Y-111865173D01*
X135461270Y-111837228D01*
X135385558Y-111773086D01*
X135366656Y-111753593D01*
X135311819Y-111691480D01*
X135268611Y-111634939D01*
X135246078Y-111595849D01*
X135245743Y-111594843D01*
X135228798Y-111558630D01*
X135216532Y-111548496D01*
X135196375Y-111566270D01*
X135167481Y-111610938D01*
X135136554Y-111669979D01*
X135110299Y-111730870D01*
X135097619Y-111770583D01*
X135066546Y-111840303D01*
X135017484Y-111889881D01*
X134962832Y-111908166D01*
X134917481Y-111893095D01*
X134890330Y-111871125D01*
X134846398Y-111808030D01*
X134806375Y-111728802D01*
X134777819Y-111650533D01*
X134768167Y-111594806D01*
X134777238Y-111558108D01*
X134802730Y-111489657D01*
X134842065Y-111395529D01*
X134892660Y-111281800D01*
X134951936Y-111154546D01*
X134979834Y-111096390D01*
X135040341Y-110970482D01*
X135094105Y-110856922D01*
X135138515Y-110761362D01*
X135170960Y-110689456D01*
X135188830Y-110646856D01*
X135191500Y-110638010D01*
X135203304Y-110619272D01*
X135241235Y-110624648D01*
X135309075Y-110654735D01*
X135314052Y-110657273D01*
X135415040Y-110724828D01*
X135475640Y-110804075D01*
X135496601Y-110896713D01*
X135478671Y-111004436D01*
X135473690Y-111019166D01*
X135461619Y-111071473D01*
X135452978Y-111144115D01*
X135447951Y-111226519D01*
X135446719Y-111308112D01*
X135449467Y-111378323D01*
X135456377Y-111426579D01*
X135466367Y-111442500D01*
X135499623Y-111423284D01*
X135538245Y-111371379D01*
X135578319Y-111295401D01*
X135615928Y-111203963D01*
X135647155Y-111105680D01*
X135668085Y-111009166D01*
X135670292Y-110993900D01*
X135683802Y-110921874D01*
X135705326Y-110838435D01*
X135731358Y-110754090D01*
X135758391Y-110679343D01*
X135782917Y-110624699D01*
X135801428Y-110600665D01*
X135801597Y-110600606D01*
X135828828Y-110608866D01*
G37*
X135828828Y-110608866D02*
X135872237Y-110637494D01*
X135885099Y-110647874D01*
X135930408Y-110682302D01*
X135963185Y-110700706D01*
X135967867Y-110701666D01*
X135990254Y-110718132D01*
X136020128Y-110758405D01*
X136023955Y-110764723D01*
X136047062Y-110815326D01*
X136048768Y-110865418D01*
X136038286Y-110912890D01*
X136020444Y-110965566D01*
X136003229Y-110995446D01*
X135998428Y-110998000D01*
X135988197Y-111017439D01*
X135975167Y-111069437D01*
X135961521Y-111144514D01*
X135955774Y-111183208D01*
X135915135Y-111394668D01*
X135857215Y-111568975D01*
X135782273Y-111705549D01*
X135690570Y-111803814D01*
X135669519Y-111819315D01*
X135595366Y-111858632D01*
X135528578Y-111865173D01*
X135461270Y-111837228D01*
X135385558Y-111773086D01*
X135366656Y-111753593D01*
X135311819Y-111691480D01*
X135268611Y-111634939D01*
X135246078Y-111595849D01*
X135245743Y-111594843D01*
X135228798Y-111558630D01*
X135216532Y-111548496D01*
X135196375Y-111566270D01*
X135167481Y-111610938D01*
X135136554Y-111669979D01*
X135110299Y-111730870D01*
X135097619Y-111770583D01*
X135066546Y-111840303D01*
X135017484Y-111889881D01*
X134962832Y-111908166D01*
X134917481Y-111893095D01*
X134890330Y-111871125D01*
X134846398Y-111808030D01*
X134806375Y-111728802D01*
X134777819Y-111650533D01*
X134768167Y-111594806D01*
X134777238Y-111558108D01*
X134802730Y-111489657D01*
X134842065Y-111395529D01*
X134892660Y-111281800D01*
X134951936Y-111154546D01*
X134979834Y-111096390D01*
X135040341Y-110970482D01*
X135094105Y-110856922D01*
X135138515Y-110761362D01*
X135170960Y-110689456D01*
X135188830Y-110646856D01*
X135191500Y-110638010D01*
X135203304Y-110619272D01*
X135241235Y-110624648D01*
X135309075Y-110654735D01*
X135314052Y-110657273D01*
X135415040Y-110724828D01*
X135475640Y-110804075D01*
X135496601Y-110896713D01*
X135478671Y-111004436D01*
X135473690Y-111019166D01*
X135461619Y-111071473D01*
X135452978Y-111144115D01*
X135447951Y-111226519D01*
X135446719Y-111308112D01*
X135449467Y-111378323D01*
X135456377Y-111426579D01*
X135466367Y-111442500D01*
X135499623Y-111423284D01*
X135538245Y-111371379D01*
X135578319Y-111295401D01*
X135615928Y-111203963D01*
X135647155Y-111105680D01*
X135668085Y-111009166D01*
X135670292Y-110993900D01*
X135683802Y-110921874D01*
X135705326Y-110838435D01*
X135731358Y-110754090D01*
X135758391Y-110679343D01*
X135782917Y-110624699D01*
X135801428Y-110600665D01*
X135801597Y-110600606D01*
X135828828Y-110608866D01*
G36*
X138161160Y-110629137D02*
G01*
X138215347Y-110659348D01*
X138269264Y-110698333D01*
X138309923Y-110736791D01*
X138324456Y-110763634D01*
X138330112Y-110811498D01*
X138336871Y-110842106D01*
X138337881Y-110864528D01*
X138324110Y-110887044D01*
X138289650Y-110914437D01*
X138228591Y-110951489D01*
X138144264Y-110997992D01*
X137921460Y-111134433D01*
X137737096Y-111282529D01*
X137592912Y-111438690D01*
X137498365Y-111558916D01*
X137620224Y-111569500D01*
X137687740Y-111573182D01*
X137736355Y-111571761D01*
X137752667Y-111567328D01*
X137778106Y-111557429D01*
X137831339Y-111546262D01*
X137869084Y-111540531D01*
X137954342Y-111525980D01*
X138040163Y-111506483D01*
X138064270Y-111499774D01*
X138153624Y-111473059D01*
X138122479Y-111413026D01*
X138100420Y-111362356D01*
X138091334Y-111325427D01*
X138075770Y-111294498D01*
X138067132Y-111289793D01*
X138053491Y-111269505D01*
X138068819Y-111234747D01*
X138106810Y-111194456D01*
X138160034Y-111158168D01*
X138231653Y-111119599D01*
X138390420Y-111206735D01*
X138470731Y-111253837D01*
X138542034Y-111300997D01*
X138591582Y-111339647D01*
X138599117Y-111347019D01*
X138639047Y-111382982D01*
X138669755Y-111399720D01*
X138671815Y-111399879D01*
X138689354Y-111381557D01*
X138715842Y-111336666D01*
X139087595Y-111336666D01*
X139169816Y-111336666D01*
X139231628Y-111333682D01*
X139278140Y-111326332D01*
X139283411Y-111324627D01*
X139300668Y-111302234D01*
X139299230Y-111252577D01*
X139278682Y-111171467D01*
X139263616Y-111125138D01*
X139246802Y-111114867D01*
X139215239Y-111141515D01*
X139168212Y-111205839D01*
X139129218Y-111267875D01*
X139087595Y-111336666D01*
X138715842Y-111336666D01*
X138718350Y-111332416D01*
X138754192Y-111260798D01*
X138779250Y-111205518D01*
X138843628Y-111064133D01*
X138897960Y-110959497D01*
X138944742Y-110887922D01*
X138986469Y-110845724D01*
X139025638Y-110829217D01*
X139034412Y-110828666D01*
X139092482Y-110810054D01*
X139159139Y-110758193D01*
X139227023Y-110679048D01*
X139237715Y-110663950D01*
X139260459Y-110635861D01*
X139285990Y-110625824D01*
X139328582Y-110631575D01*
X139371987Y-110642656D01*
X139448869Y-110671617D01*
X139497670Y-110715178D01*
X139526596Y-110783507D01*
X139539174Y-110849833D01*
X139550850Y-110920455D01*
X139568151Y-111011831D01*
X139586131Y-111098541D01*
X139606052Y-111180321D01*
X139624008Y-111227864D01*
X139643642Y-111248891D01*
X139658582Y-111252000D01*
X139704170Y-111262752D01*
X139759494Y-111289261D01*
X139810498Y-111322902D01*
X139843128Y-111355052D01*
X139848167Y-111368314D01*
X139833352Y-111397780D01*
X139795913Y-111440459D01*
X139774366Y-111460579D01*
X139729099Y-111504436D01*
X139710061Y-111541759D01*
X139709722Y-111591560D01*
X139712731Y-111616230D01*
X139705717Y-111714551D01*
X139660148Y-111803801D01*
X139579710Y-111877679D01*
X139548930Y-111896120D01*
X139494357Y-111921285D01*
X139452537Y-111924327D01*
X139405606Y-111908970D01*
X139361493Y-111882687D01*
X139347580Y-111856446D01*
X139348219Y-111854213D01*
X139341944Y-111821471D01*
X139317573Y-111790458D01*
X139283074Y-111751570D01*
X139285829Y-111723306D01*
X139327605Y-111695623D01*
X139334875Y-111692078D01*
X139378731Y-111661326D01*
X139393518Y-111631344D01*
X139378598Y-111611895D01*
X139340167Y-111611286D01*
X139289871Y-111616915D01*
X139216310Y-111620796D01*
X139161000Y-111621869D01*
X139087629Y-111619964D01*
X139044772Y-111611140D01*
X139020754Y-111591933D01*
X139012384Y-111577805D01*
X138990046Y-111551022D01*
X138965811Y-111559674D01*
X138937917Y-111605758D01*
X138904600Y-111691269D01*
X138899825Y-111705250D01*
X138871228Y-111777942D01*
X138840086Y-111839271D01*
X138821591Y-111865825D01*
X138768184Y-111899748D01*
X138704591Y-111906367D01*
X138643360Y-111889249D01*
X138597040Y-111851961D01*
X138578178Y-111798070D01*
X138578167Y-111796624D01*
X138566535Y-111759017D01*
X138556943Y-111749381D01*
X138547247Y-111721160D01*
X138556561Y-111697320D01*
X138567294Y-111673948D01*
X138559053Y-111669615D01*
X138524052Y-111684210D01*
X138498410Y-111696482D01*
X138442058Y-111718851D01*
X138354605Y-111747915D01*
X138246180Y-111780767D01*
X138126915Y-111814502D01*
X138006937Y-111846216D01*
X137896377Y-111873002D01*
X137841010Y-111885042D01*
X137670252Y-111908077D01*
X137528553Y-111900692D01*
X137414993Y-111862355D01*
X137328651Y-111792533D01*
X137268605Y-111690695D01*
X137233935Y-111556307D01*
X137230748Y-111532321D01*
X137218247Y-111426770D01*
X137152082Y-111470680D01*
X137110388Y-111503234D01*
X137093103Y-111537978D01*
X137092390Y-111593040D01*
X137093410Y-111606429D01*
X137092037Y-111680629D01*
X137079209Y-111748943D01*
X137074740Y-111761433D01*
X137027436Y-111833251D01*
X136959103Y-111886215D01*
X136881550Y-111914531D01*
X136806585Y-111912402D01*
X136784292Y-111903964D01*
X136747715Y-111873023D01*
X136736667Y-111844712D01*
X136721912Y-111804112D01*
X136694833Y-111771035D01*
X136665680Y-111731601D01*
X136675123Y-111705138D01*
X136716005Y-111696500D01*
X136750679Y-111682868D01*
X136780336Y-111652166D01*
X136792782Y-111619682D01*
X136787779Y-111606501D01*
X136762103Y-111603793D01*
X136712252Y-111610818D01*
X136698565Y-111613796D01*
X136582056Y-111632062D01*
X136486962Y-111629135D01*
X136419794Y-111605574D01*
X136400200Y-111588126D01*
X136363864Y-111543253D01*
X136328815Y-111596745D01*
X136301684Y-111651130D01*
X136276148Y-111722572D01*
X136269525Y-111746508D01*
X136232179Y-111833719D01*
X136174545Y-111887806D01*
X136100713Y-111905267D01*
X136085254Y-111904163D01*
X136032947Y-111880763D01*
X135984844Y-111832091D01*
X135951342Y-111772578D01*
X135942834Y-111716657D01*
X135944545Y-111708808D01*
X135951041Y-111689795D01*
X135963115Y-111659721D01*
X135982537Y-111614653D01*
X136011079Y-111550662D01*
X136050510Y-111463816D01*
X136102601Y-111350185D01*
X136108831Y-111336666D01*
X136479958Y-111336666D01*
X136575313Y-111336666D01*
X136635390Y-111332570D01*
X136675717Y-111322237D01*
X136683079Y-111316585D01*
X136685640Y-111285611D01*
X136677928Y-111230116D01*
X136671026Y-111199349D01*
X136654940Y-111142135D01*
X136641085Y-111119419D01*
X136623068Y-111124253D01*
X136611128Y-111134261D01*
X136578957Y-111172369D01*
X136540704Y-111229539D01*
X136527826Y-111251497D01*
X136479958Y-111336666D01*
X136108831Y-111336666D01*
X136169123Y-111205838D01*
X136247100Y-111037106D01*
X136295554Y-110939749D01*
X136336670Y-110876692D01*
X136375782Y-110841842D01*
X136418225Y-110829108D01*
X136429621Y-110828666D01*
X136480050Y-110809337D01*
X136546138Y-110751184D01*
X136571919Y-110722885D01*
X136664453Y-110617104D01*
X136779935Y-110654094D01*
X136845312Y-110676545D01*
X136881664Y-110698346D01*
X136900341Y-110731567D01*
X136912696Y-110788280D01*
X136914235Y-110796916D01*
X136940999Y-110944833D01*
X136962648Y-111056201D01*
X136980802Y-111136264D01*
X136997083Y-111190268D01*
X137013111Y-111223456D01*
X137030508Y-111241074D01*
X137050894Y-111248366D01*
X137053907Y-111248837D01*
X137109455Y-111266679D01*
X137162990Y-111296462D01*
X137211898Y-111326840D01*
X137246577Y-111330459D01*
X137277998Y-111303530D01*
X137316427Y-111243471D01*
X137356581Y-111187657D01*
X137418470Y-111116089D01*
X137491636Y-111040498D01*
X137528654Y-111005346D01*
X137600846Y-110943861D01*
X137688891Y-110876275D01*
X137785245Y-110807545D01*
X137882366Y-110742627D01*
X137972707Y-110686478D01*
X138048727Y-110644056D01*
X138102880Y-110620316D01*
X138119691Y-110617000D01*
X138161160Y-110629137D01*
G37*
X138161160Y-110629137D02*
X138215347Y-110659348D01*
X138269264Y-110698333D01*
X138309923Y-110736791D01*
X138324456Y-110763634D01*
X138330112Y-110811498D01*
X138336871Y-110842106D01*
X138337881Y-110864528D01*
X138324110Y-110887044D01*
X138289650Y-110914437D01*
X138228591Y-110951489D01*
X138144264Y-110997992D01*
X137921460Y-111134433D01*
X137737096Y-111282529D01*
X137592912Y-111438690D01*
X137498365Y-111558916D01*
X137620224Y-111569500D01*
X137687740Y-111573182D01*
X137736355Y-111571761D01*
X137752667Y-111567328D01*
X137778106Y-111557429D01*
X137831339Y-111546262D01*
X137869084Y-111540531D01*
X137954342Y-111525980D01*
X138040163Y-111506483D01*
X138064270Y-111499774D01*
X138153624Y-111473059D01*
X138122479Y-111413026D01*
X138100420Y-111362356D01*
X138091334Y-111325427D01*
X138075770Y-111294498D01*
X138067132Y-111289793D01*
X138053491Y-111269505D01*
X138068819Y-111234747D01*
X138106810Y-111194456D01*
X138160034Y-111158168D01*
X138231653Y-111119599D01*
X138390420Y-111206735D01*
X138470731Y-111253837D01*
X138542034Y-111300997D01*
X138591582Y-111339647D01*
X138599117Y-111347019D01*
X138639047Y-111382982D01*
X138669755Y-111399720D01*
X138671815Y-111399879D01*
X138689354Y-111381557D01*
X138715842Y-111336666D01*
X139087595Y-111336666D01*
X139169816Y-111336666D01*
X139231628Y-111333682D01*
X139278140Y-111326332D01*
X139283411Y-111324627D01*
X139300668Y-111302234D01*
X139299230Y-111252577D01*
X139278682Y-111171467D01*
X139263616Y-111125138D01*
X139246802Y-111114867D01*
X139215239Y-111141515D01*
X139168212Y-111205839D01*
X139129218Y-111267875D01*
X139087595Y-111336666D01*
X138715842Y-111336666D01*
X138718350Y-111332416D01*
X138754192Y-111260798D01*
X138779250Y-111205518D01*
X138843628Y-111064133D01*
X138897960Y-110959497D01*
X138944742Y-110887922D01*
X138986469Y-110845724D01*
X139025638Y-110829217D01*
X139034412Y-110828666D01*
X139092482Y-110810054D01*
X139159139Y-110758193D01*
X139227023Y-110679048D01*
X139237715Y-110663950D01*
X139260459Y-110635861D01*
X139285990Y-110625824D01*
X139328582Y-110631575D01*
X139371987Y-110642656D01*
X139448869Y-110671617D01*
X139497670Y-110715178D01*
X139526596Y-110783507D01*
X139539174Y-110849833D01*
X139550850Y-110920455D01*
X139568151Y-111011831D01*
X139586131Y-111098541D01*
X139606052Y-111180321D01*
X139624008Y-111227864D01*
X139643642Y-111248891D01*
X139658582Y-111252000D01*
X139704170Y-111262752D01*
X139759494Y-111289261D01*
X139810498Y-111322902D01*
X139843128Y-111355052D01*
X139848167Y-111368314D01*
X139833352Y-111397780D01*
X139795913Y-111440459D01*
X139774366Y-111460579D01*
X139729099Y-111504436D01*
X139710061Y-111541759D01*
X139709722Y-111591560D01*
X139712731Y-111616230D01*
X139705717Y-111714551D01*
X139660148Y-111803801D01*
X139579710Y-111877679D01*
X139548930Y-111896120D01*
X139494357Y-111921285D01*
X139452537Y-111924327D01*
X139405606Y-111908970D01*
X139361493Y-111882687D01*
X139347580Y-111856446D01*
X139348219Y-111854213D01*
X139341944Y-111821471D01*
X139317573Y-111790458D01*
X139283074Y-111751570D01*
X139285829Y-111723306D01*
X139327605Y-111695623D01*
X139334875Y-111692078D01*
X139378731Y-111661326D01*
X139393518Y-111631344D01*
X139378598Y-111611895D01*
X139340167Y-111611286D01*
X139289871Y-111616915D01*
X139216310Y-111620796D01*
X139161000Y-111621869D01*
X139087629Y-111619964D01*
X139044772Y-111611140D01*
X139020754Y-111591933D01*
X139012384Y-111577805D01*
X138990046Y-111551022D01*
X138965811Y-111559674D01*
X138937917Y-111605758D01*
X138904600Y-111691269D01*
X138899825Y-111705250D01*
X138871228Y-111777942D01*
X138840086Y-111839271D01*
X138821591Y-111865825D01*
X138768184Y-111899748D01*
X138704591Y-111906367D01*
X138643360Y-111889249D01*
X138597040Y-111851961D01*
X138578178Y-111798070D01*
X138578167Y-111796624D01*
X138566535Y-111759017D01*
X138556943Y-111749381D01*
X138547247Y-111721160D01*
X138556561Y-111697320D01*
X138567294Y-111673948D01*
X138559053Y-111669615D01*
X138524052Y-111684210D01*
X138498410Y-111696482D01*
X138442058Y-111718851D01*
X138354605Y-111747915D01*
X138246180Y-111780767D01*
X138126915Y-111814502D01*
X138006937Y-111846216D01*
X137896377Y-111873002D01*
X137841010Y-111885042D01*
X137670252Y-111908077D01*
X137528553Y-111900692D01*
X137414993Y-111862355D01*
X137328651Y-111792533D01*
X137268605Y-111690695D01*
X137233935Y-111556307D01*
X137230748Y-111532321D01*
X137218247Y-111426770D01*
X137152082Y-111470680D01*
X137110388Y-111503234D01*
X137093103Y-111537978D01*
X137092390Y-111593040D01*
X137093410Y-111606429D01*
X137092037Y-111680629D01*
X137079209Y-111748943D01*
X137074740Y-111761433D01*
X137027436Y-111833251D01*
X136959103Y-111886215D01*
X136881550Y-111914531D01*
X136806585Y-111912402D01*
X136784292Y-111903964D01*
X136747715Y-111873023D01*
X136736667Y-111844712D01*
X136721912Y-111804112D01*
X136694833Y-111771035D01*
X136665680Y-111731601D01*
X136675123Y-111705138D01*
X136716005Y-111696500D01*
X136750679Y-111682868D01*
X136780336Y-111652166D01*
X136792782Y-111619682D01*
X136787779Y-111606501D01*
X136762103Y-111603793D01*
X136712252Y-111610818D01*
X136698565Y-111613796D01*
X136582056Y-111632062D01*
X136486962Y-111629135D01*
X136419794Y-111605574D01*
X136400200Y-111588126D01*
X136363864Y-111543253D01*
X136328815Y-111596745D01*
X136301684Y-111651130D01*
X136276148Y-111722572D01*
X136269525Y-111746508D01*
X136232179Y-111833719D01*
X136174545Y-111887806D01*
X136100713Y-111905267D01*
X136085254Y-111904163D01*
X136032947Y-111880763D01*
X135984844Y-111832091D01*
X135951342Y-111772578D01*
X135942834Y-111716657D01*
X135944545Y-111708808D01*
X135951041Y-111689795D01*
X135963115Y-111659721D01*
X135982537Y-111614653D01*
X136011079Y-111550662D01*
X136050510Y-111463816D01*
X136102601Y-111350185D01*
X136108831Y-111336666D01*
X136479958Y-111336666D01*
X136575313Y-111336666D01*
X136635390Y-111332570D01*
X136675717Y-111322237D01*
X136683079Y-111316585D01*
X136685640Y-111285611D01*
X136677928Y-111230116D01*
X136671026Y-111199349D01*
X136654940Y-111142135D01*
X136641085Y-111119419D01*
X136623068Y-111124253D01*
X136611128Y-111134261D01*
X136578957Y-111172369D01*
X136540704Y-111229539D01*
X136527826Y-111251497D01*
X136479958Y-111336666D01*
X136108831Y-111336666D01*
X136169123Y-111205838D01*
X136247100Y-111037106D01*
X136295554Y-110939749D01*
X136336670Y-110876692D01*
X136375782Y-110841842D01*
X136418225Y-110829108D01*
X136429621Y-110828666D01*
X136480050Y-110809337D01*
X136546138Y-110751184D01*
X136571919Y-110722885D01*
X136664453Y-110617104D01*
X136779935Y-110654094D01*
X136845312Y-110676545D01*
X136881664Y-110698346D01*
X136900341Y-110731567D01*
X136912696Y-110788280D01*
X136914235Y-110796916D01*
X136940999Y-110944833D01*
X136962648Y-111056201D01*
X136980802Y-111136264D01*
X136997083Y-111190268D01*
X137013111Y-111223456D01*
X137030508Y-111241074D01*
X137050894Y-111248366D01*
X137053907Y-111248837D01*
X137109455Y-111266679D01*
X137162990Y-111296462D01*
X137211898Y-111326840D01*
X137246577Y-111330459D01*
X137277998Y-111303530D01*
X137316427Y-111243471D01*
X137356581Y-111187657D01*
X137418470Y-111116089D01*
X137491636Y-111040498D01*
X137528654Y-111005346D01*
X137600846Y-110943861D01*
X137688891Y-110876275D01*
X137785245Y-110807545D01*
X137882366Y-110742627D01*
X137972707Y-110686478D01*
X138048727Y-110644056D01*
X138102880Y-110620316D01*
X138119691Y-110617000D01*
X138161160Y-110629137D01*
G36*
X134892473Y-110609410D02*
G01*
X134943289Y-110643936D01*
X134970986Y-110667450D01*
X135014119Y-110712687D01*
X135034378Y-110754156D01*
X135029894Y-110798764D01*
X134998799Y-110853420D01*
X134939224Y-110925030D01*
X134885804Y-110982406D01*
X134795452Y-111089928D01*
X134692430Y-111235353D01*
X134578061Y-111416630D01*
X134453667Y-111631708D01*
X134377741Y-111770583D01*
X134316332Y-111875768D01*
X134265727Y-111942613D01*
X134226672Y-111970174D01*
X134219080Y-111970838D01*
X134193351Y-111962599D01*
X134146928Y-111943720D01*
X134143237Y-111942119D01*
X134084022Y-111897739D01*
X134041290Y-111832077D01*
X134027334Y-111771735D01*
X134036567Y-111741891D01*
X134061501Y-111683902D01*
X134097983Y-111607014D01*
X134129047Y-111545190D01*
X134230760Y-111347250D01*
X134183552Y-111277684D01*
X134152069Y-111219295D01*
X134124880Y-111140577D01*
X134100299Y-111035056D01*
X134076639Y-110896259D01*
X134067173Y-110830817D01*
X134056891Y-110748923D01*
X134054846Y-110697394D01*
X134062117Y-110664870D01*
X134079786Y-110639993D01*
X134085919Y-110633673D01*
X134111714Y-110610730D01*
X134135980Y-110604713D01*
X134172598Y-110616276D01*
X134223283Y-110640165D01*
X134282230Y-110672806D01*
X134322829Y-110709296D01*
X134351397Y-110759843D01*
X134374248Y-110834651D01*
X134391152Y-110911429D01*
X134418917Y-111047108D01*
X134493459Y-110940510D01*
X134586153Y-110817151D01*
X134674310Y-110717379D01*
X134753888Y-110645034D01*
X134820845Y-110603954D01*
X134856365Y-110595833D01*
X134892473Y-110609410D01*
G37*
X134892473Y-110609410D02*
X134943289Y-110643936D01*
X134970986Y-110667450D01*
X135014119Y-110712687D01*
X135034378Y-110754156D01*
X135029894Y-110798764D01*
X134998799Y-110853420D01*
X134939224Y-110925030D01*
X134885804Y-110982406D01*
X134795452Y-111089928D01*
X134692430Y-111235353D01*
X134578061Y-111416630D01*
X134453667Y-111631708D01*
X134377741Y-111770583D01*
X134316332Y-111875768D01*
X134265727Y-111942613D01*
X134226672Y-111970174D01*
X134219080Y-111970838D01*
X134193351Y-111962599D01*
X134146928Y-111943720D01*
X134143237Y-111942119D01*
X134084022Y-111897739D01*
X134041290Y-111832077D01*
X134027334Y-111771735D01*
X134036567Y-111741891D01*
X134061501Y-111683902D01*
X134097983Y-111607014D01*
X134129047Y-111545190D01*
X134230760Y-111347250D01*
X134183552Y-111277684D01*
X134152069Y-111219295D01*
X134124880Y-111140577D01*
X134100299Y-111035056D01*
X134076639Y-110896259D01*
X134067173Y-110830817D01*
X134056891Y-110748923D01*
X134054846Y-110697394D01*
X134062117Y-110664870D01*
X134079786Y-110639993D01*
X134085919Y-110633673D01*
X134111714Y-110610730D01*
X134135980Y-110604713D01*
X134172598Y-110616276D01*
X134223283Y-110640165D01*
X134282230Y-110672806D01*
X134322829Y-110709296D01*
X134351397Y-110759843D01*
X134374248Y-110834651D01*
X134391152Y-110911429D01*
X134418917Y-111047108D01*
X134493459Y-110940510D01*
X134586153Y-110817151D01*
X134674310Y-110717379D01*
X134753888Y-110645034D01*
X134820845Y-110603954D01*
X134856365Y-110595833D01*
X134892473Y-110609410D01*
G36*
X132371254Y-110361171D02*
G01*
X132454592Y-110414287D01*
X132537258Y-110493836D01*
X132613896Y-110592471D01*
X132679150Y-110702845D01*
X132727663Y-110817612D01*
X132754076Y-110929426D01*
X132757334Y-110979153D01*
X132754515Y-111044002D01*
X132740966Y-111090116D01*
X132709044Y-111134341D01*
X132667375Y-111177470D01*
X132608386Y-111228562D01*
X132539688Y-111270882D01*
X132449089Y-111311190D01*
X132379165Y-111337212D01*
X132289652Y-111369771D01*
X132234679Y-111392529D01*
X132208610Y-111409039D01*
X132205813Y-111422855D01*
X132220415Y-111437350D01*
X132317900Y-111496605D01*
X132438044Y-111542804D01*
X132590201Y-111579493D01*
X132600769Y-111581510D01*
X132689234Y-111599442D01*
X132764697Y-111617031D01*
X132815268Y-111631415D01*
X132826125Y-111635761D01*
X132850484Y-111642417D01*
X132861040Y-111623196D01*
X132863167Y-111576516D01*
X132874170Y-111511390D01*
X132904949Y-111420793D01*
X132947834Y-111323587D01*
X132992745Y-111228018D01*
X133019438Y-111162175D01*
X133029838Y-111118552D01*
X133025872Y-111089642D01*
X133012639Y-111071024D01*
X132998668Y-111039740D01*
X132984839Y-110981953D01*
X132978440Y-110941884D01*
X132971844Y-110876095D01*
X132976583Y-110837853D01*
X132996211Y-110813095D01*
X133014176Y-110800430D01*
X133064488Y-110777591D01*
X133147548Y-110750578D01*
X133254259Y-110721618D01*
X133375522Y-110692937D01*
X133502238Y-110666761D01*
X133625309Y-110645317D01*
X133680731Y-110637317D01*
X133772199Y-110625761D01*
X133831698Y-110621001D01*
X133869164Y-110623847D01*
X133894537Y-110635106D01*
X133917752Y-110655587D01*
X133918856Y-110656688D01*
X133957528Y-110688920D01*
X133985000Y-110701666D01*
X134000002Y-110720024D01*
X134006167Y-110763630D01*
X133986154Y-110830512D01*
X133926451Y-110883725D01*
X133827556Y-110922897D01*
X133777339Y-110934510D01*
X133689180Y-110953903D01*
X133600054Y-110976704D01*
X133561667Y-110987899D01*
X133489908Y-111008911D01*
X133424852Y-111025728D01*
X133408209Y-111029391D01*
X133363335Y-111049682D01*
X133350000Y-111075406D01*
X133355189Y-111092699D01*
X133376438Y-111101150D01*
X133422273Y-111101870D01*
X133501220Y-111095967D01*
X133505195Y-111095609D01*
X133660390Y-111081545D01*
X133738028Y-111154768D01*
X133783061Y-111203350D01*
X133811077Y-111245340D01*
X133815667Y-111260733D01*
X133798531Y-111287975D01*
X133754064Y-111325352D01*
X133704542Y-111357206D01*
X133639870Y-111391069D01*
X133582590Y-111410404D01*
X133515842Y-111419122D01*
X133429064Y-111421134D01*
X133346084Y-111421944D01*
X133294384Y-111426589D01*
X133262911Y-111438766D01*
X133240613Y-111462172D01*
X133222768Y-111490125D01*
X133195512Y-111538623D01*
X133181319Y-111571285D01*
X133180746Y-111574791D01*
X133200198Y-111585667D01*
X133253193Y-111590140D01*
X133331480Y-111588530D01*
X133426806Y-111581160D01*
X133530919Y-111568351D01*
X133590596Y-111558816D01*
X133773238Y-111526966D01*
X133846338Y-111604467D01*
X133890796Y-111658382D01*
X133903401Y-111700809D01*
X133883235Y-111743849D01*
X133831684Y-111797452D01*
X133771563Y-111833056D01*
X133673512Y-111864902D01*
X133541844Y-111891958D01*
X133380875Y-111913191D01*
X133326269Y-111918380D01*
X133169331Y-111921301D01*
X133046315Y-111899630D01*
X132956580Y-111853220D01*
X132929738Y-111827554D01*
X132897481Y-111792343D01*
X132886147Y-111788024D01*
X132889519Y-111813001D01*
X132890520Y-111817465D01*
X132882177Y-111874369D01*
X132851418Y-111918007D01*
X132784878Y-111958746D01*
X132687765Y-111970677D01*
X132560518Y-111953807D01*
X132408084Y-111909715D01*
X132225972Y-111839347D01*
X132077406Y-111766692D01*
X131970620Y-111696500D01*
X132863167Y-111696500D01*
X132870911Y-111713922D01*
X132877278Y-111710611D01*
X132879811Y-111685491D01*
X132877278Y-111682388D01*
X132864694Y-111685294D01*
X132863167Y-111696500D01*
X131970620Y-111696500D01*
X131966510Y-111693799D01*
X131956018Y-111685207D01*
X131913960Y-111651202D01*
X131894876Y-111643388D01*
X131889703Y-111660277D01*
X131889500Y-111674294D01*
X131880062Y-111721218D01*
X131856531Y-111782949D01*
X131847649Y-111801388D01*
X131795590Y-111869085D01*
X131730587Y-111901704D01*
X131660355Y-111896500D01*
X131627258Y-111879897D01*
X131584741Y-111830817D01*
X131552953Y-111753883D01*
X131535856Y-111663029D01*
X131537414Y-111572192D01*
X131538227Y-111566797D01*
X131552231Y-111479220D01*
X131477163Y-111545131D01*
X131428695Y-111585379D01*
X131380921Y-111618070D01*
X131326044Y-111646556D01*
X131256265Y-111674186D01*
X131163785Y-111704312D01*
X131040805Y-111740286D01*
X130988843Y-111754954D01*
X130742858Y-111819202D01*
X130531396Y-111864202D01*
X130355115Y-111889871D01*
X130214671Y-111896131D01*
X130110723Y-111882900D01*
X130069167Y-111867194D01*
X129961959Y-111788152D01*
X129881104Y-111679152D01*
X129829474Y-111545462D01*
X129809944Y-111392350D01*
X129809938Y-111391945D01*
X129827186Y-111286740D01*
X129879336Y-111168820D01*
X129962574Y-111042604D01*
X130073090Y-110912507D01*
X130207071Y-110782948D01*
X130360707Y-110658344D01*
X130530186Y-110543111D01*
X130556000Y-110527351D01*
X130639283Y-110476410D01*
X130713882Y-110429304D01*
X130768848Y-110393014D01*
X130786396Y-110380460D01*
X130833293Y-110355284D01*
X130883523Y-110342892D01*
X130922806Y-110345092D01*
X130937000Y-110361414D01*
X130953971Y-110382205D01*
X130997132Y-110413069D01*
X131026638Y-110430441D01*
X131084522Y-110467812D01*
X131114837Y-110506938D01*
X131129905Y-110563741D01*
X131129933Y-110563911D01*
X131136656Y-110622889D01*
X131136337Y-110664671D01*
X131134948Y-110670453D01*
X131113120Y-110689504D01*
X131062372Y-110720857D01*
X130992123Y-110758867D01*
X130962862Y-110773592D01*
X130863488Y-110825708D01*
X130757001Y-110886380D01*
X130665665Y-110942901D01*
X130661834Y-110945431D01*
X130574338Y-111011181D01*
X130472994Y-111099299D01*
X130368932Y-111198964D01*
X130273280Y-111299353D01*
X130197168Y-111389647D01*
X130177715Y-111416129D01*
X130148869Y-111461459D01*
X130144669Y-111484992D01*
X130163162Y-111497863D01*
X130163363Y-111497941D01*
X130212900Y-111504648D01*
X130295074Y-111502023D01*
X130401438Y-111490950D01*
X130523546Y-111472311D01*
X130621809Y-111453083D01*
X131550834Y-111453083D01*
X131561417Y-111463666D01*
X131572000Y-111453083D01*
X131561417Y-111442500D01*
X131550834Y-111453083D01*
X130621809Y-111453083D01*
X130652952Y-111446989D01*
X130654850Y-111446575D01*
X130764708Y-111422009D01*
X130838424Y-111402388D01*
X130881258Y-111383818D01*
X130898471Y-111362409D01*
X130895320Y-111334267D01*
X130877066Y-111295499D01*
X130871946Y-111285904D01*
X130847425Y-111229850D01*
X130837924Y-111186283D01*
X130839224Y-111176866D01*
X130835505Y-111147298D01*
X130826170Y-111140973D01*
X130810128Y-111120083D01*
X130826490Y-111083969D01*
X130871161Y-111038857D01*
X130914163Y-111007176D01*
X130999248Y-110950869D01*
X131160061Y-111032643D01*
X131258136Y-111088733D01*
X131362148Y-111157947D01*
X131449961Y-111225532D01*
X131451729Y-111227049D01*
X131517435Y-111281793D01*
X131558383Y-111310357D01*
X131580366Y-111315863D01*
X131589178Y-111301433D01*
X131589231Y-111301132D01*
X131600215Y-111244020D01*
X131616941Y-111164674D01*
X131637206Y-111072690D01*
X131645865Y-111034598D01*
X132061121Y-111034598D01*
X132064545Y-111055909D01*
X132100504Y-111054967D01*
X132171332Y-111033810D01*
X132245731Y-111007017D01*
X132329595Y-110971836D01*
X132374453Y-110939790D01*
X132382722Y-110905285D01*
X132356822Y-110862726D01*
X132322990Y-110828265D01*
X132290957Y-110802426D01*
X132263159Y-110796409D01*
X132231909Y-110813996D01*
X132189521Y-110858972D01*
X132142532Y-110917081D01*
X132087895Y-110989001D01*
X132061121Y-111034598D01*
X131645865Y-111034598D01*
X131658809Y-110977660D01*
X131679549Y-110889179D01*
X131697225Y-110816840D01*
X131709635Y-110770238D01*
X131713767Y-110758397D01*
X131740673Y-110747848D01*
X131785957Y-110748851D01*
X131820376Y-110750484D01*
X131851548Y-110740587D01*
X131885844Y-110713772D01*
X131929634Y-110664649D01*
X131989290Y-110587831D01*
X132011773Y-110557857D01*
X132099591Y-110454629D01*
X132184047Y-110382918D01*
X132260734Y-110346111D01*
X132292603Y-110341833D01*
X132371254Y-110361171D01*
G37*
X132371254Y-110361171D02*
X132454592Y-110414287D01*
X132537258Y-110493836D01*
X132613896Y-110592471D01*
X132679150Y-110702845D01*
X132727663Y-110817612D01*
X132754076Y-110929426D01*
X132757334Y-110979153D01*
X132754515Y-111044002D01*
X132740966Y-111090116D01*
X132709044Y-111134341D01*
X132667375Y-111177470D01*
X132608386Y-111228562D01*
X132539688Y-111270882D01*
X132449089Y-111311190D01*
X132379165Y-111337212D01*
X132289652Y-111369771D01*
X132234679Y-111392529D01*
X132208610Y-111409039D01*
X132205813Y-111422855D01*
X132220415Y-111437350D01*
X132317900Y-111496605D01*
X132438044Y-111542804D01*
X132590201Y-111579493D01*
X132600769Y-111581510D01*
X132689234Y-111599442D01*
X132764697Y-111617031D01*
X132815268Y-111631415D01*
X132826125Y-111635761D01*
X132850484Y-111642417D01*
X132861040Y-111623196D01*
X132863167Y-111576516D01*
X132874170Y-111511390D01*
X132904949Y-111420793D01*
X132947834Y-111323587D01*
X132992745Y-111228018D01*
X133019438Y-111162175D01*
X133029838Y-111118552D01*
X133025872Y-111089642D01*
X133012639Y-111071024D01*
X132998668Y-111039740D01*
X132984839Y-110981953D01*
X132978440Y-110941884D01*
X132971844Y-110876095D01*
X132976583Y-110837853D01*
X132996211Y-110813095D01*
X133014176Y-110800430D01*
X133064488Y-110777591D01*
X133147548Y-110750578D01*
X133254259Y-110721618D01*
X133375522Y-110692937D01*
X133502238Y-110666761D01*
X133625309Y-110645317D01*
X133680731Y-110637317D01*
X133772199Y-110625761D01*
X133831698Y-110621001D01*
X133869164Y-110623847D01*
X133894537Y-110635106D01*
X133917752Y-110655587D01*
X133918856Y-110656688D01*
X133957528Y-110688920D01*
X133985000Y-110701666D01*
X134000002Y-110720024D01*
X134006167Y-110763630D01*
X133986154Y-110830512D01*
X133926451Y-110883725D01*
X133827556Y-110922897D01*
X133777339Y-110934510D01*
X133689180Y-110953903D01*
X133600054Y-110976704D01*
X133561667Y-110987899D01*
X133489908Y-111008911D01*
X133424852Y-111025728D01*
X133408209Y-111029391D01*
X133363335Y-111049682D01*
X133350000Y-111075406D01*
X133355189Y-111092699D01*
X133376438Y-111101150D01*
X133422273Y-111101870D01*
X133501220Y-111095967D01*
X133505195Y-111095609D01*
X133660390Y-111081545D01*
X133738028Y-111154768D01*
X133783061Y-111203350D01*
X133811077Y-111245340D01*
X133815667Y-111260733D01*
X133798531Y-111287975D01*
X133754064Y-111325352D01*
X133704542Y-111357206D01*
X133639870Y-111391069D01*
X133582590Y-111410404D01*
X133515842Y-111419122D01*
X133429064Y-111421134D01*
X133346084Y-111421944D01*
X133294384Y-111426589D01*
X133262911Y-111438766D01*
X133240613Y-111462172D01*
X133222768Y-111490125D01*
X133195512Y-111538623D01*
X133181319Y-111571285D01*
X133180746Y-111574791D01*
X133200198Y-111585667D01*
X133253193Y-111590140D01*
X133331480Y-111588530D01*
X133426806Y-111581160D01*
X133530919Y-111568351D01*
X133590596Y-111558816D01*
X133773238Y-111526966D01*
X133846338Y-111604467D01*
X133890796Y-111658382D01*
X133903401Y-111700809D01*
X133883235Y-111743849D01*
X133831684Y-111797452D01*
X133771563Y-111833056D01*
X133673512Y-111864902D01*
X133541844Y-111891958D01*
X133380875Y-111913191D01*
X133326269Y-111918380D01*
X133169331Y-111921301D01*
X133046315Y-111899630D01*
X132956580Y-111853220D01*
X132929738Y-111827554D01*
X132897481Y-111792343D01*
X132886147Y-111788024D01*
X132889519Y-111813001D01*
X132890520Y-111817465D01*
X132882177Y-111874369D01*
X132851418Y-111918007D01*
X132784878Y-111958746D01*
X132687765Y-111970677D01*
X132560518Y-111953807D01*
X132408084Y-111909715D01*
X132225972Y-111839347D01*
X132077406Y-111766692D01*
X131970620Y-111696500D01*
X132863167Y-111696500D01*
X132870911Y-111713922D01*
X132877278Y-111710611D01*
X132879811Y-111685491D01*
X132877278Y-111682388D01*
X132864694Y-111685294D01*
X132863167Y-111696500D01*
X131970620Y-111696500D01*
X131966510Y-111693799D01*
X131956018Y-111685207D01*
X131913960Y-111651202D01*
X131894876Y-111643388D01*
X131889703Y-111660277D01*
X131889500Y-111674294D01*
X131880062Y-111721218D01*
X131856531Y-111782949D01*
X131847649Y-111801388D01*
X131795590Y-111869085D01*
X131730587Y-111901704D01*
X131660355Y-111896500D01*
X131627258Y-111879897D01*
X131584741Y-111830817D01*
X131552953Y-111753883D01*
X131535856Y-111663029D01*
X131537414Y-111572192D01*
X131538227Y-111566797D01*
X131552231Y-111479220D01*
X131477163Y-111545131D01*
X131428695Y-111585379D01*
X131380921Y-111618070D01*
X131326044Y-111646556D01*
X131256265Y-111674186D01*
X131163785Y-111704312D01*
X131040805Y-111740286D01*
X130988843Y-111754954D01*
X130742858Y-111819202D01*
X130531396Y-111864202D01*
X130355115Y-111889871D01*
X130214671Y-111896131D01*
X130110723Y-111882900D01*
X130069167Y-111867194D01*
X129961959Y-111788152D01*
X129881104Y-111679152D01*
X129829474Y-111545462D01*
X129809944Y-111392350D01*
X129809938Y-111391945D01*
X129827186Y-111286740D01*
X129879336Y-111168820D01*
X129962574Y-111042604D01*
X130073090Y-110912507D01*
X130207071Y-110782948D01*
X130360707Y-110658344D01*
X130530186Y-110543111D01*
X130556000Y-110527351D01*
X130639283Y-110476410D01*
X130713882Y-110429304D01*
X130768848Y-110393014D01*
X130786396Y-110380460D01*
X130833293Y-110355284D01*
X130883523Y-110342892D01*
X130922806Y-110345092D01*
X130937000Y-110361414D01*
X130953971Y-110382205D01*
X130997132Y-110413069D01*
X131026638Y-110430441D01*
X131084522Y-110467812D01*
X131114837Y-110506938D01*
X131129905Y-110563741D01*
X131129933Y-110563911D01*
X131136656Y-110622889D01*
X131136337Y-110664671D01*
X131134948Y-110670453D01*
X131113120Y-110689504D01*
X131062372Y-110720857D01*
X130992123Y-110758867D01*
X130962862Y-110773592D01*
X130863488Y-110825708D01*
X130757001Y-110886380D01*
X130665665Y-110942901D01*
X130661834Y-110945431D01*
X130574338Y-111011181D01*
X130472994Y-111099299D01*
X130368932Y-111198964D01*
X130273280Y-111299353D01*
X130197168Y-111389647D01*
X130177715Y-111416129D01*
X130148869Y-111461459D01*
X130144669Y-111484992D01*
X130163162Y-111497863D01*
X130163363Y-111497941D01*
X130212900Y-111504648D01*
X130295074Y-111502023D01*
X130401438Y-111490950D01*
X130523546Y-111472311D01*
X130621809Y-111453083D01*
X131550834Y-111453083D01*
X131561417Y-111463666D01*
X131572000Y-111453083D01*
X131561417Y-111442500D01*
X131550834Y-111453083D01*
X130621809Y-111453083D01*
X130652952Y-111446989D01*
X130654850Y-111446575D01*
X130764708Y-111422009D01*
X130838424Y-111402388D01*
X130881258Y-111383818D01*
X130898471Y-111362409D01*
X130895320Y-111334267D01*
X130877066Y-111295499D01*
X130871946Y-111285904D01*
X130847425Y-111229850D01*
X130837924Y-111186283D01*
X130839224Y-111176866D01*
X130835505Y-111147298D01*
X130826170Y-111140973D01*
X130810128Y-111120083D01*
X130826490Y-111083969D01*
X130871161Y-111038857D01*
X130914163Y-111007176D01*
X130999248Y-110950869D01*
X131160061Y-111032643D01*
X131258136Y-111088733D01*
X131362148Y-111157947D01*
X131449961Y-111225532D01*
X131451729Y-111227049D01*
X131517435Y-111281793D01*
X131558383Y-111310357D01*
X131580366Y-111315863D01*
X131589178Y-111301433D01*
X131589231Y-111301132D01*
X131600215Y-111244020D01*
X131616941Y-111164674D01*
X131637206Y-111072690D01*
X131645865Y-111034598D01*
X132061121Y-111034598D01*
X132064545Y-111055909D01*
X132100504Y-111054967D01*
X132171332Y-111033810D01*
X132245731Y-111007017D01*
X132329595Y-110971836D01*
X132374453Y-110939790D01*
X132382722Y-110905285D01*
X132356822Y-110862726D01*
X132322990Y-110828265D01*
X132290957Y-110802426D01*
X132263159Y-110796409D01*
X132231909Y-110813996D01*
X132189521Y-110858972D01*
X132142532Y-110917081D01*
X132087895Y-110989001D01*
X132061121Y-111034598D01*
X131645865Y-111034598D01*
X131658809Y-110977660D01*
X131679549Y-110889179D01*
X131697225Y-110816840D01*
X131709635Y-110770238D01*
X131713767Y-110758397D01*
X131740673Y-110747848D01*
X131785957Y-110748851D01*
X131820376Y-110750484D01*
X131851548Y-110740587D01*
X131885844Y-110713772D01*
X131929634Y-110664649D01*
X131989290Y-110587831D01*
X132011773Y-110557857D01*
X132099591Y-110454629D01*
X132184047Y-110382918D01*
X132260734Y-110346111D01*
X132292603Y-110341833D01*
X132371254Y-110361171D01*
D11*
G36*
X146607200Y-81305400D02*
G01*
X146607200Y-83642200D01*
X147521600Y-83642200D01*
X147521600Y-81305400D01*
X146607200Y-81305400D01*
G37*
G36*
X143816400Y-81305400D02*
G01*
X143816400Y-83642200D01*
X144730800Y-83642200D01*
X144730800Y-81305400D01*
X143816400Y-81305400D01*
G37*
G36*
X151294312Y-110000327D02*
G01*
X151443612Y-110030024D01*
X151607584Y-110097944D01*
X151755154Y-110196547D01*
X151880653Y-110322046D01*
X151979256Y-110469616D01*
X152047176Y-110633588D01*
X152081800Y-110807659D01*
X152081800Y-110985141D01*
X152047176Y-111159212D01*
X151979256Y-111323184D01*
X151880653Y-111470754D01*
X151755154Y-111596253D01*
X151607584Y-111694856D01*
X151443612Y-111762776D01*
X151294312Y-111792473D01*
X151269542Y-111797400D01*
X151092058Y-111797400D01*
X151067288Y-111792473D01*
X150917988Y-111762776D01*
X150754016Y-111694856D01*
X150606446Y-111596253D01*
X150480947Y-111470754D01*
X150382344Y-111323184D01*
X150314424Y-111159212D01*
X150279800Y-110985141D01*
X150279800Y-110807659D01*
X150314424Y-110633588D01*
X150382344Y-110469616D01*
X150480947Y-110322046D01*
X150606446Y-110196547D01*
X150754016Y-110097944D01*
X150917988Y-110030024D01*
X151067288Y-110000327D01*
X151092058Y-109995400D01*
X151269542Y-109995400D01*
X151294312Y-110000327D01*
G37*
G36*
X148754312Y-110000327D02*
G01*
X148903612Y-110030024D01*
X149067584Y-110097944D01*
X149215154Y-110196547D01*
X149340653Y-110322046D01*
X149439256Y-110469616D01*
X149507176Y-110633588D01*
X149541800Y-110807659D01*
X149541800Y-110985141D01*
X149507176Y-111159212D01*
X149439256Y-111323184D01*
X149340653Y-111470754D01*
X149215154Y-111596253D01*
X149067584Y-111694856D01*
X148903612Y-111762776D01*
X148754312Y-111792473D01*
X148729542Y-111797400D01*
X148552058Y-111797400D01*
X148527288Y-111792473D01*
X148377988Y-111762776D01*
X148214016Y-111694856D01*
X148066446Y-111596253D01*
X147940947Y-111470754D01*
X147842344Y-111323184D01*
X147774424Y-111159212D01*
X147739800Y-110985141D01*
X147739800Y-110807659D01*
X147774424Y-110633588D01*
X147842344Y-110469616D01*
X147940947Y-110322046D01*
X148066446Y-110196547D01*
X148214016Y-110097944D01*
X148377988Y-110030024D01*
X148527288Y-110000327D01*
X148552058Y-109995400D01*
X148729542Y-109995400D01*
X148754312Y-110000327D01*
G37*
G36*
X143674312Y-110000327D02*
G01*
X143823612Y-110030024D01*
X143987584Y-110097944D01*
X144135154Y-110196547D01*
X144260653Y-110322046D01*
X144359256Y-110469616D01*
X144427176Y-110633588D01*
X144461800Y-110807659D01*
X144461800Y-110985141D01*
X144427176Y-111159212D01*
X144359256Y-111323184D01*
X144260653Y-111470754D01*
X144135154Y-111596253D01*
X143987584Y-111694856D01*
X143823612Y-111762776D01*
X143674312Y-111792473D01*
X143649542Y-111797400D01*
X143472058Y-111797400D01*
X143447288Y-111792473D01*
X143297988Y-111762776D01*
X143134016Y-111694856D01*
X142986446Y-111596253D01*
X142860947Y-111470754D01*
X142762344Y-111323184D01*
X142694424Y-111159212D01*
X142659800Y-110985141D01*
X142659800Y-110807659D01*
X142694424Y-110633588D01*
X142762344Y-110469616D01*
X142860947Y-110322046D01*
X142986446Y-110196547D01*
X143134016Y-110097944D01*
X143297988Y-110030024D01*
X143447288Y-110000327D01*
X143472058Y-109995400D01*
X143649542Y-109995400D01*
X143674312Y-110000327D01*
G37*
G36*
X146214312Y-110000327D02*
G01*
X146363612Y-110030024D01*
X146527584Y-110097944D01*
X146675154Y-110196547D01*
X146800653Y-110322046D01*
X146899256Y-110469616D01*
X146967176Y-110633588D01*
X147001800Y-110807659D01*
X147001800Y-110985141D01*
X146967176Y-111159212D01*
X146899256Y-111323184D01*
X146800653Y-111470754D01*
X146675154Y-111596253D01*
X146527584Y-111694856D01*
X146363612Y-111762776D01*
X146214312Y-111792473D01*
X146189542Y-111797400D01*
X146012058Y-111797400D01*
X145987288Y-111792473D01*
X145837988Y-111762776D01*
X145674016Y-111694856D01*
X145526446Y-111596253D01*
X145400947Y-111470754D01*
X145302344Y-111323184D01*
X145234424Y-111159212D01*
X145199800Y-110985141D01*
X145199800Y-110807659D01*
X145234424Y-110633588D01*
X145302344Y-110469616D01*
X145400947Y-110322046D01*
X145526446Y-110196547D01*
X145674016Y-110097944D01*
X145837988Y-110030024D01*
X145987288Y-110000327D01*
X146012058Y-109995400D01*
X146189542Y-109995400D01*
X146214312Y-110000327D01*
G37*
G36*
X129248671Y-106551707D02*
G01*
X127346671Y-106551707D01*
X127346671Y-104649707D01*
X129248671Y-104649707D01*
X129248671Y-106551707D01*
G37*
G36*
X152108671Y-106551707D02*
G01*
X150206671Y-106551707D01*
X150206671Y-104649707D01*
X152108671Y-104649707D01*
X152108671Y-106551707D01*
G37*
G36*
X137301800Y-104402600D02*
G01*
X136199800Y-104402600D01*
X136199800Y-102300600D01*
X137301800Y-102300600D01*
X137301800Y-104402600D01*
G37*
G36*
X135301800Y-104402600D02*
G01*
X134199800Y-104402600D01*
X134199800Y-102300600D01*
X135301800Y-102300600D01*
X135301800Y-104402600D01*
G37*
G36*
X139301800Y-104402600D02*
G01*
X138199800Y-104402600D01*
X138199800Y-102300600D01*
X139301800Y-102300600D01*
X139301800Y-104402600D01*
G37*
G36*
X141301800Y-104402600D02*
G01*
X140199800Y-104402600D01*
X140199800Y-102300600D01*
X141301800Y-102300600D01*
X141301800Y-104402600D01*
G37*
G36*
X143301800Y-104402600D02*
G01*
X142199800Y-104402600D01*
X142199800Y-102300600D01*
X143301800Y-102300600D01*
X143301800Y-104402600D01*
G37*
G36*
X145301800Y-104402600D02*
G01*
X144199800Y-104402600D01*
X144199800Y-102300600D01*
X145301800Y-102300600D01*
X145301800Y-104402600D01*
G37*
G36*
X147301800Y-104402600D02*
G01*
X146199800Y-104402600D01*
X146199800Y-102300600D01*
X147301800Y-102300600D01*
X147301800Y-104402600D01*
G37*
G36*
X133301800Y-104402600D02*
G01*
X132199800Y-104402600D01*
X132199800Y-102300600D01*
X133301800Y-102300600D01*
X133301800Y-104402600D01*
G37*
G36*
X151435066Y-102146253D02*
G01*
X151608137Y-102217941D01*
X151608138Y-102217942D01*
X151763898Y-102322017D01*
X151896361Y-102454480D01*
X151896362Y-102454482D01*
X152000437Y-102610241D01*
X152072125Y-102783312D01*
X152108671Y-102967040D01*
X152108671Y-103154374D01*
X152072125Y-103338102D01*
X152000437Y-103511173D01*
X152000436Y-103511174D01*
X151896361Y-103666934D01*
X151763898Y-103799397D01*
X151685489Y-103851788D01*
X151608137Y-103903473D01*
X151435066Y-103975161D01*
X151251338Y-104011707D01*
X151064004Y-104011707D01*
X150880276Y-103975161D01*
X150707205Y-103903473D01*
X150629853Y-103851788D01*
X150551444Y-103799397D01*
X150418981Y-103666934D01*
X150314906Y-103511174D01*
X150314905Y-103511173D01*
X150243217Y-103338102D01*
X150206671Y-103154374D01*
X150206671Y-102967040D01*
X150243217Y-102783312D01*
X150314905Y-102610241D01*
X150418980Y-102454482D01*
X150418981Y-102454480D01*
X150551444Y-102322017D01*
X150707204Y-102217942D01*
X150707205Y-102217941D01*
X150880276Y-102146253D01*
X151064004Y-102109707D01*
X151251338Y-102109707D01*
X151435066Y-102146253D01*
G37*
G36*
X128575066Y-102146253D02*
G01*
X128748137Y-102217941D01*
X128748138Y-102217942D01*
X128903898Y-102322017D01*
X129036361Y-102454480D01*
X129036362Y-102454482D01*
X129140437Y-102610241D01*
X129212125Y-102783312D01*
X129248671Y-102967040D01*
X129248671Y-103154374D01*
X129212125Y-103338102D01*
X129140437Y-103511173D01*
X129140436Y-103511174D01*
X129036361Y-103666934D01*
X128903898Y-103799397D01*
X128825489Y-103851788D01*
X128748137Y-103903473D01*
X128575066Y-103975161D01*
X128391338Y-104011707D01*
X128204004Y-104011707D01*
X128020276Y-103975161D01*
X127847205Y-103903473D01*
X127769853Y-103851788D01*
X127691444Y-103799397D01*
X127558981Y-103666934D01*
X127454906Y-103511174D01*
X127454905Y-103511173D01*
X127383217Y-103338102D01*
X127346671Y-103154374D01*
X127346671Y-102967040D01*
X127383217Y-102783312D01*
X127454905Y-102610241D01*
X127558980Y-102454482D01*
X127558981Y-102454480D01*
X127691444Y-102322017D01*
X127847204Y-102217942D01*
X127847205Y-102217941D01*
X128020276Y-102146253D01*
X128204004Y-102109707D01*
X128391338Y-102109707D01*
X128575066Y-102146253D01*
G37*
G36*
X151435066Y-99606253D02*
G01*
X151608137Y-99677941D01*
X151608138Y-99677942D01*
X151763898Y-99782017D01*
X151896361Y-99914480D01*
X151896362Y-99914482D01*
X152000437Y-100070241D01*
X152072125Y-100243312D01*
X152108671Y-100427040D01*
X152108671Y-100614374D01*
X152072125Y-100798102D01*
X152000437Y-100971173D01*
X152000436Y-100971174D01*
X151896361Y-101126934D01*
X151763898Y-101259397D01*
X151685489Y-101311788D01*
X151608137Y-101363473D01*
X151435066Y-101435161D01*
X151251338Y-101471707D01*
X151064004Y-101471707D01*
X150880276Y-101435161D01*
X150707205Y-101363473D01*
X150629853Y-101311788D01*
X150551444Y-101259397D01*
X150418981Y-101126934D01*
X150314906Y-100971174D01*
X150314905Y-100971173D01*
X150243217Y-100798102D01*
X150206671Y-100614374D01*
X150206671Y-100427040D01*
X150243217Y-100243312D01*
X150314905Y-100070241D01*
X150418980Y-99914482D01*
X150418981Y-99914480D01*
X150551444Y-99782017D01*
X150707204Y-99677942D01*
X150707205Y-99677941D01*
X150880276Y-99606253D01*
X151064004Y-99569707D01*
X151251338Y-99569707D01*
X151435066Y-99606253D01*
G37*
G36*
X128575066Y-99606253D02*
G01*
X128748137Y-99677941D01*
X128748138Y-99677942D01*
X128903898Y-99782017D01*
X129036361Y-99914480D01*
X129036362Y-99914482D01*
X129140437Y-100070241D01*
X129212125Y-100243312D01*
X129248671Y-100427040D01*
X129248671Y-100614374D01*
X129212125Y-100798102D01*
X129140437Y-100971173D01*
X129140436Y-100971174D01*
X129036361Y-101126934D01*
X128903898Y-101259397D01*
X128825489Y-101311788D01*
X128748137Y-101363473D01*
X128575066Y-101435161D01*
X128391338Y-101471707D01*
X128204004Y-101471707D01*
X128020276Y-101435161D01*
X127847205Y-101363473D01*
X127769853Y-101311788D01*
X127691444Y-101259397D01*
X127558981Y-101126934D01*
X127454906Y-100971174D01*
X127454905Y-100971173D01*
X127383217Y-100798102D01*
X127346671Y-100614374D01*
X127346671Y-100427040D01*
X127383217Y-100243312D01*
X127454905Y-100070241D01*
X127558980Y-99914482D01*
X127558981Y-99914480D01*
X127691444Y-99782017D01*
X127847204Y-99677942D01*
X127847205Y-99677941D01*
X128020276Y-99606253D01*
X128204004Y-99569707D01*
X128391338Y-99569707D01*
X128575066Y-99606253D01*
G37*
G36*
X151435066Y-97066253D02*
G01*
X151608137Y-97137941D01*
X151608138Y-97137942D01*
X151763898Y-97242017D01*
X151896361Y-97374480D01*
X151896362Y-97374482D01*
X152000437Y-97530241D01*
X152072125Y-97703312D01*
X152108671Y-97887040D01*
X152108671Y-98074374D01*
X152072125Y-98258102D01*
X152000437Y-98431173D01*
X152000436Y-98431174D01*
X151896361Y-98586934D01*
X151763898Y-98719397D01*
X151685489Y-98771788D01*
X151608137Y-98823473D01*
X151435066Y-98895161D01*
X151251338Y-98931707D01*
X151064004Y-98931707D01*
X150880276Y-98895161D01*
X150707205Y-98823473D01*
X150629853Y-98771788D01*
X150551444Y-98719397D01*
X150418981Y-98586934D01*
X150314906Y-98431174D01*
X150314905Y-98431173D01*
X150243217Y-98258102D01*
X150206671Y-98074374D01*
X150206671Y-97887040D01*
X150243217Y-97703312D01*
X150314905Y-97530241D01*
X150418980Y-97374482D01*
X150418981Y-97374480D01*
X150551444Y-97242017D01*
X150707204Y-97137942D01*
X150707205Y-97137941D01*
X150880276Y-97066253D01*
X151064004Y-97029707D01*
X151251338Y-97029707D01*
X151435066Y-97066253D01*
G37*
G36*
X128575066Y-97066253D02*
G01*
X128748137Y-97137941D01*
X128748138Y-97137942D01*
X128903898Y-97242017D01*
X129036361Y-97374480D01*
X129036362Y-97374482D01*
X129140437Y-97530241D01*
X129212125Y-97703312D01*
X129248671Y-97887040D01*
X129248671Y-98074374D01*
X129212125Y-98258102D01*
X129140437Y-98431173D01*
X129140436Y-98431174D01*
X129036361Y-98586934D01*
X128903898Y-98719397D01*
X128825489Y-98771788D01*
X128748137Y-98823473D01*
X128575066Y-98895161D01*
X128391338Y-98931707D01*
X128204004Y-98931707D01*
X128020276Y-98895161D01*
X127847205Y-98823473D01*
X127769853Y-98771788D01*
X127691444Y-98719397D01*
X127558981Y-98586934D01*
X127454906Y-98431174D01*
X127454905Y-98431173D01*
X127383217Y-98258102D01*
X127346671Y-98074374D01*
X127346671Y-97887040D01*
X127383217Y-97703312D01*
X127454905Y-97530241D01*
X127558980Y-97374482D01*
X127558981Y-97374480D01*
X127691444Y-97242017D01*
X127847204Y-97137942D01*
X127847205Y-97137941D01*
X128020276Y-97066253D01*
X128204004Y-97029707D01*
X128391338Y-97029707D01*
X128575066Y-97066253D01*
G37*
G36*
X128575066Y-94526253D02*
G01*
X128748137Y-94597941D01*
X128748138Y-94597942D01*
X128903898Y-94702017D01*
X129036361Y-94834480D01*
X129036362Y-94834482D01*
X129140437Y-94990241D01*
X129212125Y-95163312D01*
X129248671Y-95347040D01*
X129248671Y-95534374D01*
X129212125Y-95718102D01*
X129140437Y-95891173D01*
X129140436Y-95891174D01*
X129036361Y-96046934D01*
X128903898Y-96179397D01*
X128825489Y-96231788D01*
X128748137Y-96283473D01*
X128575066Y-96355161D01*
X128391338Y-96391707D01*
X128204004Y-96391707D01*
X128020276Y-96355161D01*
X127847205Y-96283473D01*
X127769853Y-96231788D01*
X127691444Y-96179397D01*
X127558981Y-96046934D01*
X127454906Y-95891174D01*
X127454905Y-95891173D01*
X127383217Y-95718102D01*
X127346671Y-95534374D01*
X127346671Y-95347040D01*
X127383217Y-95163312D01*
X127454905Y-94990241D01*
X127558980Y-94834482D01*
X127558981Y-94834480D01*
X127691444Y-94702017D01*
X127847204Y-94597942D01*
X127847205Y-94597941D01*
X128020276Y-94526253D01*
X128204004Y-94489707D01*
X128391338Y-94489707D01*
X128575066Y-94526253D01*
G37*
G36*
X151435066Y-94526253D02*
G01*
X151608137Y-94597941D01*
X151608138Y-94597942D01*
X151763898Y-94702017D01*
X151896361Y-94834480D01*
X151896362Y-94834482D01*
X152000437Y-94990241D01*
X152072125Y-95163312D01*
X152108671Y-95347040D01*
X152108671Y-95534374D01*
X152072125Y-95718102D01*
X152000437Y-95891173D01*
X152000436Y-95891174D01*
X151896361Y-96046934D01*
X151763898Y-96179397D01*
X151685489Y-96231788D01*
X151608137Y-96283473D01*
X151435066Y-96355161D01*
X151251338Y-96391707D01*
X151064004Y-96391707D01*
X150880276Y-96355161D01*
X150707205Y-96283473D01*
X150629853Y-96231788D01*
X150551444Y-96179397D01*
X150418981Y-96046934D01*
X150314906Y-95891174D01*
X150314905Y-95891173D01*
X150243217Y-95718102D01*
X150206671Y-95534374D01*
X150206671Y-95347040D01*
X150243217Y-95163312D01*
X150314905Y-94990241D01*
X150418980Y-94834482D01*
X150418981Y-94834480D01*
X150551444Y-94702017D01*
X150707204Y-94597942D01*
X150707205Y-94597941D01*
X150880276Y-94526253D01*
X151064004Y-94489707D01*
X151251338Y-94489707D01*
X151435066Y-94526253D01*
G37*
G36*
X151435066Y-91986253D02*
G01*
X151608137Y-92057941D01*
X151608138Y-92057942D01*
X151763898Y-92162017D01*
X151896361Y-92294480D01*
X151896362Y-92294482D01*
X152000437Y-92450241D01*
X152072125Y-92623312D01*
X152108671Y-92807040D01*
X152108671Y-92994374D01*
X152072125Y-93178102D01*
X152000437Y-93351173D01*
X152000436Y-93351174D01*
X151896361Y-93506934D01*
X151763898Y-93639397D01*
X151685489Y-93691788D01*
X151608137Y-93743473D01*
X151435066Y-93815161D01*
X151251338Y-93851707D01*
X151064004Y-93851707D01*
X150880276Y-93815161D01*
X150707205Y-93743473D01*
X150629853Y-93691788D01*
X150551444Y-93639397D01*
X150418981Y-93506934D01*
X150314906Y-93351174D01*
X150314905Y-93351173D01*
X150243217Y-93178102D01*
X150206671Y-92994374D01*
X150206671Y-92807040D01*
X150243217Y-92623312D01*
X150314905Y-92450241D01*
X150418980Y-92294482D01*
X150418981Y-92294480D01*
X150551444Y-92162017D01*
X150707204Y-92057942D01*
X150707205Y-92057941D01*
X150880276Y-91986253D01*
X151064004Y-91949707D01*
X151251338Y-91949707D01*
X151435066Y-91986253D01*
G37*
G36*
X128575066Y-91986253D02*
G01*
X128748137Y-92057941D01*
X128748138Y-92057942D01*
X128903898Y-92162017D01*
X129036361Y-92294480D01*
X129036362Y-92294482D01*
X129140437Y-92450241D01*
X129212125Y-92623312D01*
X129248671Y-92807040D01*
X129248671Y-92994374D01*
X129212125Y-93178102D01*
X129140437Y-93351173D01*
X129140436Y-93351174D01*
X129036361Y-93506934D01*
X128903898Y-93639397D01*
X128825489Y-93691788D01*
X128748137Y-93743473D01*
X128575066Y-93815161D01*
X128391338Y-93851707D01*
X128204004Y-93851707D01*
X128020276Y-93815161D01*
X127847205Y-93743473D01*
X127769853Y-93691788D01*
X127691444Y-93639397D01*
X127558981Y-93506934D01*
X127454906Y-93351174D01*
X127454905Y-93351173D01*
X127383217Y-93178102D01*
X127346671Y-92994374D01*
X127346671Y-92807040D01*
X127383217Y-92623312D01*
X127454905Y-92450241D01*
X127558980Y-92294482D01*
X127558981Y-92294480D01*
X127691444Y-92162017D01*
X127847204Y-92057942D01*
X127847205Y-92057941D01*
X128020276Y-91986253D01*
X128204004Y-91949707D01*
X128391338Y-91949707D01*
X128575066Y-91986253D01*
G37*
G36*
X151435066Y-89446253D02*
G01*
X151608137Y-89517941D01*
X151608138Y-89517942D01*
X151763898Y-89622017D01*
X151896361Y-89754480D01*
X151896362Y-89754482D01*
X152000437Y-89910241D01*
X152072125Y-90083312D01*
X152108671Y-90267040D01*
X152108671Y-90454374D01*
X152072125Y-90638102D01*
X152000437Y-90811173D01*
X152000436Y-90811174D01*
X151896361Y-90966934D01*
X151763898Y-91099397D01*
X151685489Y-91151788D01*
X151608137Y-91203473D01*
X151435066Y-91275161D01*
X151251338Y-91311707D01*
X151064004Y-91311707D01*
X150880276Y-91275161D01*
X150707205Y-91203473D01*
X150629853Y-91151788D01*
X150551444Y-91099397D01*
X150418981Y-90966934D01*
X150314906Y-90811174D01*
X150314905Y-90811173D01*
X150243217Y-90638102D01*
X150206671Y-90454374D01*
X150206671Y-90267040D01*
X150243217Y-90083312D01*
X150314905Y-89910241D01*
X150418980Y-89754482D01*
X150418981Y-89754480D01*
X150551444Y-89622017D01*
X150707204Y-89517942D01*
X150707205Y-89517941D01*
X150880276Y-89446253D01*
X151064004Y-89409707D01*
X151251338Y-89409707D01*
X151435066Y-89446253D01*
G37*
G36*
X128575066Y-89446253D02*
G01*
X128748137Y-89517941D01*
X128748138Y-89517942D01*
X128903898Y-89622017D01*
X129036361Y-89754480D01*
X129036362Y-89754482D01*
X129140437Y-89910241D01*
X129212125Y-90083312D01*
X129248671Y-90267040D01*
X129248671Y-90454374D01*
X129212125Y-90638102D01*
X129140437Y-90811173D01*
X129140436Y-90811174D01*
X129036361Y-90966934D01*
X128903898Y-91099397D01*
X128825489Y-91151788D01*
X128748137Y-91203473D01*
X128575066Y-91275161D01*
X128391338Y-91311707D01*
X128204004Y-91311707D01*
X128020276Y-91275161D01*
X127847205Y-91203473D01*
X127769853Y-91151788D01*
X127691444Y-91099397D01*
X127558981Y-90966934D01*
X127454906Y-90811174D01*
X127454905Y-90811173D01*
X127383217Y-90638102D01*
X127346671Y-90454374D01*
X127346671Y-90267040D01*
X127383217Y-90083312D01*
X127454905Y-89910241D01*
X127558980Y-89754482D01*
X127558981Y-89754480D01*
X127691444Y-89622017D01*
X127847204Y-89517942D01*
X127847205Y-89517941D01*
X128020276Y-89446253D01*
X128204004Y-89409707D01*
X128391338Y-89409707D01*
X128575066Y-89446253D01*
G37*
G36*
X151435066Y-86906253D02*
G01*
X151608137Y-86977941D01*
X151608138Y-86977942D01*
X151763898Y-87082017D01*
X151896361Y-87214480D01*
X151896362Y-87214482D01*
X152000437Y-87370241D01*
X152072125Y-87543312D01*
X152108671Y-87727040D01*
X152108671Y-87914374D01*
X152072125Y-88098102D01*
X152000437Y-88271173D01*
X152000436Y-88271174D01*
X151896361Y-88426934D01*
X151763898Y-88559397D01*
X151685489Y-88611788D01*
X151608137Y-88663473D01*
X151435066Y-88735161D01*
X151251338Y-88771707D01*
X151064004Y-88771707D01*
X150880276Y-88735161D01*
X150707205Y-88663473D01*
X150629853Y-88611788D01*
X150551444Y-88559397D01*
X150418981Y-88426934D01*
X150314906Y-88271174D01*
X150314905Y-88271173D01*
X150243217Y-88098102D01*
X150206671Y-87914374D01*
X150206671Y-87727040D01*
X150243217Y-87543312D01*
X150314905Y-87370241D01*
X150418980Y-87214482D01*
X150418981Y-87214480D01*
X150551444Y-87082017D01*
X150707204Y-86977942D01*
X150707205Y-86977941D01*
X150880276Y-86906253D01*
X151064004Y-86869707D01*
X151251338Y-86869707D01*
X151435066Y-86906253D01*
G37*
G36*
X128575066Y-86906253D02*
G01*
X128748137Y-86977941D01*
X128748138Y-86977942D01*
X128903898Y-87082017D01*
X129036361Y-87214480D01*
X129036362Y-87214482D01*
X129140437Y-87370241D01*
X129212125Y-87543312D01*
X129248671Y-87727040D01*
X129248671Y-87914374D01*
X129212125Y-88098102D01*
X129140437Y-88271173D01*
X129140436Y-88271174D01*
X129036361Y-88426934D01*
X128903898Y-88559397D01*
X128825489Y-88611788D01*
X128748137Y-88663473D01*
X128575066Y-88735161D01*
X128391338Y-88771707D01*
X128204004Y-88771707D01*
X128020276Y-88735161D01*
X127847205Y-88663473D01*
X127769853Y-88611788D01*
X127691444Y-88559397D01*
X127558981Y-88426934D01*
X127454906Y-88271174D01*
X127454905Y-88271173D01*
X127383217Y-88098102D01*
X127346671Y-87914374D01*
X127346671Y-87727040D01*
X127383217Y-87543312D01*
X127454905Y-87370241D01*
X127558980Y-87214482D01*
X127558981Y-87214480D01*
X127691444Y-87082017D01*
X127847204Y-86977942D01*
X127847205Y-86977941D01*
X128020276Y-86906253D01*
X128204004Y-86869707D01*
X128391338Y-86869707D01*
X128575066Y-86906253D01*
G37*
G36*
X141301800Y-88402600D02*
G01*
X140199800Y-88402600D01*
X140199800Y-86300600D01*
X141301800Y-86300600D01*
X141301800Y-88402600D01*
G37*
G36*
X133301800Y-88402600D02*
G01*
X132199800Y-88402600D01*
X132199800Y-86300600D01*
X133301800Y-86300600D01*
X133301800Y-88402600D01*
G37*
G36*
X135301800Y-88402600D02*
G01*
X134199800Y-88402600D01*
X134199800Y-86300600D01*
X135301800Y-86300600D01*
X135301800Y-88402600D01*
G37*
G36*
X137301800Y-88402600D02*
G01*
X136199800Y-88402600D01*
X136199800Y-86300600D01*
X137301800Y-86300600D01*
X137301800Y-88402600D01*
G37*
G36*
X143301800Y-88402600D02*
G01*
X142199800Y-88402600D01*
X142199800Y-86300600D01*
X143301800Y-86300600D01*
X143301800Y-88402600D01*
G37*
G36*
X145301800Y-88402600D02*
G01*
X144199800Y-88402600D01*
X144199800Y-86300600D01*
X145301800Y-86300600D01*
X145301800Y-88402600D01*
G37*
G36*
X147301800Y-88402600D02*
G01*
X146199800Y-88402600D01*
X146199800Y-86300600D01*
X147301800Y-86300600D01*
X147301800Y-88402600D01*
G37*
G36*
X139301800Y-88402600D02*
G01*
X138199800Y-88402600D01*
X138199800Y-86300600D01*
X139301800Y-86300600D01*
X139301800Y-88402600D01*
G37*
G36*
X146228000Y-84069018D02*
G01*
X146230402Y-84093404D01*
X146237515Y-84116853D01*
X146249066Y-84138464D01*
X146264602Y-84157395D01*
X146368853Y-84261646D01*
X146467456Y-84409216D01*
X146535376Y-84573188D01*
X146570000Y-84747259D01*
X146570000Y-84924741D01*
X146535376Y-85098812D01*
X146467456Y-85262784D01*
X146368853Y-85410354D01*
X146243354Y-85535853D01*
X146095784Y-85634456D01*
X145931812Y-85702376D01*
X145782512Y-85732073D01*
X145757742Y-85737000D01*
X145580258Y-85737000D01*
X145555488Y-85732073D01*
X145406188Y-85702376D01*
X145242216Y-85634456D01*
X145094646Y-85535853D01*
X144969147Y-85410354D01*
X144870544Y-85262784D01*
X144802624Y-85098812D01*
X144768000Y-84924741D01*
X144768000Y-84747259D01*
X144802624Y-84573188D01*
X144870544Y-84409216D01*
X144969147Y-84261646D01*
X145073398Y-84157395D01*
X145088934Y-84138464D01*
X145100485Y-84116853D01*
X145107598Y-84093404D01*
X145110000Y-84069018D01*
X145110000Y-82397400D01*
X146228000Y-82397400D01*
X146228000Y-84069018D01*
G37*
G36*
X139409600Y-84927200D02*
G01*
X137907600Y-84927200D01*
X137907600Y-83530200D01*
X139409600Y-83530200D01*
X139409600Y-84927200D01*
G37*
G36*
X136031400Y-84851000D02*
G01*
X134529400Y-84851000D01*
X134529400Y-83454000D01*
X136031400Y-83454000D01*
X136031400Y-84851000D01*
G37*
G36*
X143942000Y-84531400D02*
G01*
X142316000Y-84531400D01*
X142316000Y-80365400D01*
X143942000Y-80365400D01*
X143942000Y-84531400D01*
G37*
G36*
X149022000Y-84531400D02*
G01*
X147396000Y-84531400D01*
X147396000Y-80365400D01*
X149022000Y-80365400D01*
X149022000Y-84531400D01*
G37*
G36*
X139409600Y-82992200D02*
G01*
X137907600Y-82992200D01*
X137907600Y-81595200D01*
X139409600Y-81595200D01*
X139409600Y-82992200D01*
G37*
G36*
X136031400Y-82916000D02*
G01*
X134529400Y-82916000D01*
X134529400Y-81519000D01*
X136031400Y-81519000D01*
X136031400Y-82916000D01*
G37*
M02*
