M48
; DRILL file {KiCad 5.1.5-52549c5~84~ubuntu18.04.1} date jue 02 ene 2020 13:17:17 MST
; FORMAT={-:-/ absolute / inch / decimal}
; #@! TF.CreationDate,2020-01-02T13:17:17-07:00
; #@! TF.GenerationSoftware,Kicad,Pcbnew,5.1.5-52549c5~84~ubuntu18.04.1
; #@! TF.FileFunction,Plated,1,2,PTH
FMAT,2
INCH
T1C0.0130
T2C0.0157
T3C0.0394
T4C0.0400
%
G90
G05
T1
X5.225Y-3.44
X5.225Y-4.07
X5.304Y-3.523
X5.305Y-4.07
X5.385Y-3.4356
X5.385Y-4.07
X5.46Y-3.245
X5.465Y-4.0725
X5.54Y-3.205
X5.54Y-3.28
X5.54Y-3.345
X5.59Y-3.845
X5.6Y-3.365
X5.6229Y-4.0702
X5.705Y-3.52
X5.765Y-3.52
X5.835Y-3.38
X5.835Y-3.445
X5.835Y-3.515
X5.9Y-3.38
X5.935Y-3.245
X5.935Y-3.315
T2
X5.39Y-3.365
X5.541Y-3.992
X5.6565Y-4.2545
T3
X5.735Y-3.34
X5.652Y-4.366
X5.752Y-4.366
X5.852Y-4.366
X5.952Y-4.366
T4
X5.0511Y-3.4575
X5.0511Y-3.5575
X5.0511Y-3.6575
X5.0511Y-3.7575
X5.0511Y-3.8575
X5.0511Y-3.9575
X5.0511Y-4.0575
X5.0511Y-4.1575
X5.9511Y-3.4575
X5.9511Y-3.5575
X5.9511Y-3.6575
X5.9511Y-3.7575
X5.9511Y-3.8575
X5.9511Y-3.9575
X5.9511Y-4.0575
X5.9511Y-4.1575
T0
M30
