G04 #@! TF.GenerationSoftware,KiCad,Pcbnew,5.1.5-52549c5~84~ubuntu18.04.1*
G04 #@! TF.CreationDate,2020-01-02T13:17:24-07:00*
G04 #@! TF.ProjectId,wemos-01,77656d6f-732d-4303-912e-6b696361645f,rev?*
G04 #@! TF.SameCoordinates,Original*
G04 #@! TF.FileFunction,Soldermask,Bot*
G04 #@! TF.FilePolarity,Negative*
%FSLAX46Y46*%
G04 Gerber Fmt 4.6, Leading zero omitted, Abs format (unit mm)*
G04 Created by KiCad (PCBNEW 5.1.5-52549c5~84~ubuntu18.04.1) date 2020-01-02 13:17:24*
%MOMM*%
%LPD*%
G04 APERTURE LIST*
%ADD10C,0.100000*%
%ADD11C,0.010000*%
G04 APERTURE END LIST*
D10*
G36*
X127883485Y-84483293D02*
G01*
X127904975Y-84525111D01*
X127926465Y-84566929D01*
X127947955Y-84608747D01*
X127969445Y-84650565D01*
X127985054Y-84640764D01*
X128026364Y-84619202D01*
X128085098Y-84597639D01*
X128152980Y-84587838D01*
X128200062Y-84593356D01*
X128233422Y-84609328D01*
X128253279Y-84634884D01*
X128259849Y-84669151D01*
X128244458Y-84705198D01*
X128202930Y-84737977D01*
X128142235Y-84769450D01*
X128069344Y-84801576D01*
X127992459Y-84841434D01*
X127922980Y-84897409D01*
X127872668Y-84968195D01*
X127853283Y-85052485D01*
X127882215Y-85190717D01*
X127959281Y-85281904D01*
X128069888Y-85332144D01*
X128199445Y-85347535D01*
X128344320Y-85328296D01*
X128452387Y-85285969D01*
X128519942Y-85243643D01*
X128543283Y-85224404D01*
X128517147Y-85180262D01*
X128491011Y-85136121D01*
X128464874Y-85091980D01*
X128438738Y-85047838D01*
X128417901Y-85063810D01*
X128364394Y-85098949D01*
X128291721Y-85134088D01*
X128213384Y-85150060D01*
X128173091Y-85147991D01*
X128129748Y-85136992D01*
X128095117Y-85109876D01*
X128080960Y-85059454D01*
X128097912Y-85015930D01*
X128143397Y-84979593D01*
X128209355Y-84945434D01*
X128287728Y-84908444D01*
X128361999Y-84862633D01*
X128416667Y-84806803D01*
X128450427Y-84743132D01*
X128461970Y-84673798D01*
X128436088Y-84558326D01*
X128368170Y-84469644D01*
X128272808Y-84412761D01*
X128164596Y-84392687D01*
X128052065Y-84407824D01*
X127963056Y-84438861D01*
X127904540Y-84469462D01*
X127883485Y-84483293D01*
G37*
G36*
X128622273Y-85012990D02*
G01*
X128684746Y-85162911D01*
X128785771Y-85266222D01*
X128910753Y-85325973D01*
X129045101Y-85345212D01*
X129218690Y-85307750D01*
X129360480Y-85205818D01*
X129456096Y-85055098D01*
X129491162Y-84871273D01*
X129457402Y-84685487D01*
X129363965Y-84534985D01*
X129222611Y-84434142D01*
X129045101Y-84397333D01*
X128932751Y-84408260D01*
X128838043Y-84439442D01*
X128758582Y-84488484D01*
X128691970Y-84552990D01*
X128726238Y-84590742D01*
X128760505Y-84628495D01*
X128794773Y-84666247D01*
X128829041Y-84704000D01*
X128872093Y-84649585D01*
X128920808Y-84613684D01*
X128974751Y-84593900D01*
X129033485Y-84587838D01*
X129123692Y-84610272D01*
X129197563Y-84671475D01*
X129247477Y-84762298D01*
X129265808Y-84873596D01*
X129247477Y-84983187D01*
X129197563Y-85072523D01*
X129123692Y-85132672D01*
X129033485Y-85154707D01*
X128960122Y-85142800D01*
X128896124Y-85108242D01*
X128850857Y-85052775D01*
X128833687Y-84978141D01*
X128885960Y-84978141D01*
X128938233Y-84978141D01*
X128990505Y-84978141D01*
X129042778Y-84978141D01*
X129042778Y-84937485D01*
X129042778Y-84896828D01*
X129042778Y-84856172D01*
X129042778Y-84815515D01*
X128937071Y-84815515D01*
X128831364Y-84815515D01*
X128725657Y-84815515D01*
X128619950Y-84815515D01*
X128619950Y-84864884D01*
X128619950Y-84914252D01*
X128619950Y-84963621D01*
X128619950Y-85012990D01*
X128620531Y-85012990D01*
X128621112Y-85012990D01*
X128621692Y-85012990D01*
X128622273Y-85012990D01*
G37*
G36*
X130202071Y-85328949D02*
G01*
X130254344Y-85328949D01*
X130306616Y-85328949D01*
X130358889Y-85328949D01*
X130411162Y-85328949D01*
X130411162Y-85099530D01*
X130411162Y-84870111D01*
X130411162Y-84640692D01*
X130411162Y-84411273D01*
X130358889Y-84411273D01*
X130306616Y-84411273D01*
X130254344Y-84411273D01*
X130202071Y-84411273D01*
X130111465Y-84552990D01*
X130020859Y-84694707D01*
X129930253Y-84836424D01*
X129839647Y-84978141D01*
X129839066Y-84978141D01*
X129838485Y-84978141D01*
X129837904Y-84978141D01*
X129837323Y-84978141D01*
X129837323Y-84836424D01*
X129837323Y-84694707D01*
X129837323Y-84552990D01*
X129837323Y-84411273D01*
X129785051Y-84411273D01*
X129732778Y-84411273D01*
X129680505Y-84411273D01*
X129628233Y-84411273D01*
X129628233Y-84640692D01*
X129628233Y-84870111D01*
X129628233Y-85099530D01*
X129628233Y-85328949D01*
X129680505Y-85328949D01*
X129732778Y-85328949D01*
X129785051Y-85328949D01*
X129837323Y-85328949D01*
X129927930Y-85187232D01*
X130018536Y-85045515D01*
X130109142Y-84903798D01*
X130199748Y-84762081D01*
X130200328Y-84762081D01*
X130200909Y-84762081D01*
X130201490Y-84762081D01*
X130202071Y-84762081D01*
X130202071Y-84903798D01*
X130202071Y-85045515D01*
X130202071Y-85187232D01*
X130202071Y-85328949D01*
G37*
G36*
X130587727Y-85328949D02*
G01*
X130640000Y-85328949D01*
X130692273Y-85328949D01*
X130744546Y-85328949D01*
X130796818Y-85328949D01*
X130796818Y-85099530D01*
X130796818Y-84870111D01*
X130796818Y-84640692D01*
X130796818Y-84411273D01*
X130744546Y-84411273D01*
X130692273Y-84411273D01*
X130640000Y-84411273D01*
X130587727Y-84411273D01*
X130587727Y-84640692D01*
X130587727Y-84870111D01*
X130587727Y-85099530D01*
X130587727Y-85328949D01*
G37*
G36*
X131479848Y-85328949D02*
G01*
X131532121Y-85328949D01*
X131584394Y-85328949D01*
X131636667Y-85328949D01*
X131688939Y-85328949D01*
X131688939Y-85099530D01*
X131688939Y-84870111D01*
X131688939Y-84640692D01*
X131688939Y-84411273D01*
X131636667Y-84411273D01*
X131584394Y-84411273D01*
X131532121Y-84411273D01*
X131479848Y-84411273D01*
X131479848Y-84503040D01*
X131479848Y-84594808D01*
X131479848Y-84686576D01*
X131479848Y-84778343D01*
X131406086Y-84778343D01*
X131332323Y-84778343D01*
X131258561Y-84778343D01*
X131184798Y-84778343D01*
X131184798Y-84686576D01*
X131184798Y-84594808D01*
X131184798Y-84503040D01*
X131184798Y-84411273D01*
X131132525Y-84411273D01*
X131080253Y-84411273D01*
X131027980Y-84411273D01*
X130975707Y-84411273D01*
X130975707Y-84640692D01*
X130975707Y-84870111D01*
X130975707Y-85099530D01*
X130975707Y-85328949D01*
X131027980Y-85328949D01*
X131080253Y-85328949D01*
X131132525Y-85328949D01*
X131184798Y-85328949D01*
X131184798Y-85236601D01*
X131184798Y-85144252D01*
X131184798Y-85051904D01*
X131184798Y-84959555D01*
X131258561Y-84959555D01*
X131332323Y-84959555D01*
X131406086Y-84959555D01*
X131479848Y-84959555D01*
X131479848Y-85051904D01*
X131479848Y-85144252D01*
X131479848Y-85236601D01*
X131479848Y-85328949D01*
G37*
G36*
X132453283Y-84411273D02*
G01*
X132292399Y-84411273D01*
X132131515Y-84411273D01*
X131970631Y-84411273D01*
X131809747Y-84411273D01*
X131809747Y-84457156D01*
X131809747Y-84503040D01*
X131809747Y-84548924D01*
X131809747Y-84594808D01*
X131864343Y-84594808D01*
X131918939Y-84594808D01*
X131973535Y-84594808D01*
X132028131Y-84594808D01*
X132028131Y-84777762D01*
X132028131Y-84960717D01*
X132028131Y-85143671D01*
X132028131Y-85326626D01*
X132080404Y-85326626D01*
X132132677Y-85326626D01*
X132184949Y-85326626D01*
X132237222Y-85326626D01*
X132237222Y-85143671D01*
X132237222Y-84960717D01*
X132237222Y-84777762D01*
X132237222Y-84594808D01*
X132291818Y-84594808D01*
X132346414Y-84594808D01*
X132401010Y-84594808D01*
X132455606Y-84594808D01*
X132455025Y-84548924D01*
X132454444Y-84503040D01*
X132453863Y-84457156D01*
X132453283Y-84411273D01*
G37*
G36*
X132855202Y-84597131D02*
G01*
X132933611Y-84597131D01*
X133012020Y-84597131D01*
X133090429Y-84597131D01*
X133168838Y-84597131D01*
X133168838Y-84642434D01*
X133168838Y-84687737D01*
X133168838Y-84733040D01*
X133168838Y-84778343D01*
X133093333Y-84778343D01*
X133017828Y-84778343D01*
X132942323Y-84778343D01*
X132866818Y-84778343D01*
X132866818Y-84824227D01*
X132866818Y-84870111D01*
X132866818Y-84915995D01*
X132866818Y-84961879D01*
X132942323Y-84961879D01*
X133017828Y-84961879D01*
X133093333Y-84961879D01*
X133168838Y-84961879D01*
X133168838Y-85007762D01*
X133168838Y-85053646D01*
X133168838Y-85099530D01*
X133168838Y-85145414D01*
X133089848Y-85145414D01*
X133010858Y-85145414D01*
X132931868Y-85145414D01*
X132852879Y-85145414D01*
X132852879Y-85191298D01*
X132852879Y-85237182D01*
X132852879Y-85283065D01*
X132852879Y-85328949D01*
X132984722Y-85328949D01*
X133116565Y-85328949D01*
X133248409Y-85328949D01*
X133380252Y-85328949D01*
X133380252Y-85099530D01*
X133380252Y-84870111D01*
X133380252Y-84640692D01*
X133380252Y-84411273D01*
X133248990Y-84411273D01*
X133117727Y-84411273D01*
X132986464Y-84411273D01*
X132855202Y-84411273D01*
X132855202Y-84457737D01*
X132855202Y-84504202D01*
X132855202Y-84550667D01*
X132855202Y-84597131D01*
G37*
G36*
X134060959Y-85328949D02*
G01*
X134113232Y-85328949D01*
X134165505Y-85328949D01*
X134217777Y-85328949D01*
X134270050Y-85328949D01*
X134270050Y-85099530D01*
X134270050Y-84870111D01*
X134270050Y-84640692D01*
X134270050Y-84411273D01*
X134217777Y-84411273D01*
X134165505Y-84411273D01*
X134113232Y-84411273D01*
X134060959Y-84411273D01*
X134060959Y-84503040D01*
X134060959Y-84594808D01*
X134060959Y-84686576D01*
X134060959Y-84778343D01*
X133987197Y-84778343D01*
X133913434Y-84778343D01*
X133839671Y-84778343D01*
X133765909Y-84778343D01*
X133765909Y-84686576D01*
X133765909Y-84594808D01*
X133765909Y-84503040D01*
X133765909Y-84411273D01*
X133713636Y-84411273D01*
X133661363Y-84411273D01*
X133609091Y-84411273D01*
X133556818Y-84411273D01*
X133556818Y-84640692D01*
X133556818Y-84870111D01*
X133556818Y-85099530D01*
X133556818Y-85328949D01*
X133609091Y-85328949D01*
X133661363Y-85328949D01*
X133713636Y-85328949D01*
X133765909Y-85328949D01*
X133765909Y-85236601D01*
X133765909Y-85144252D01*
X133765909Y-85051904D01*
X133765909Y-84959555D01*
X133839671Y-84959555D01*
X133913434Y-84959555D01*
X133987197Y-84959555D01*
X134060959Y-84959555D01*
X134060959Y-85051904D01*
X134060959Y-85144252D01*
X134060959Y-85236601D01*
X134060959Y-85328949D01*
G37*
G36*
X135034393Y-84411273D02*
G01*
X134873510Y-84411273D01*
X134712626Y-84411273D01*
X134551742Y-84411273D01*
X134390858Y-84411273D01*
X134390858Y-84457156D01*
X134390858Y-84503040D01*
X134390858Y-84548924D01*
X134390858Y-84594808D01*
X134445454Y-84594808D01*
X134500050Y-84594808D01*
X134554646Y-84594808D01*
X134609242Y-84594808D01*
X134609242Y-84777762D01*
X134609242Y-84960717D01*
X134609242Y-85143671D01*
X134609242Y-85326626D01*
X134661515Y-85326626D01*
X134713787Y-85326626D01*
X134766060Y-85326626D01*
X134818333Y-85326626D01*
X134818333Y-85143671D01*
X134818333Y-84960717D01*
X134818333Y-84777762D01*
X134818333Y-84594808D01*
X134872929Y-84594808D01*
X134927525Y-84594808D01*
X134982121Y-84594808D01*
X135036717Y-84594808D01*
X135036136Y-84548924D01*
X135035555Y-84503040D01*
X135034974Y-84457156D01*
X135034393Y-84411273D01*
G37*
G36*
X128078637Y-86197838D02*
G01*
X128129748Y-86139176D01*
X128180859Y-86080515D01*
X128231970Y-86021853D01*
X128283081Y-85963192D01*
X128283081Y-86021853D01*
X128283081Y-86080515D01*
X128283081Y-86139176D01*
X128283081Y-86197838D01*
X128314445Y-86197838D01*
X128345809Y-86197838D01*
X128377172Y-86197838D01*
X128408536Y-86197838D01*
X128408536Y-86060187D01*
X128408536Y-85922535D01*
X128408536Y-85784884D01*
X128408536Y-85647232D01*
X128377172Y-85647232D01*
X128345809Y-85647232D01*
X128314445Y-85647232D01*
X128283081Y-85647232D01*
X128283081Y-85704151D01*
X128283081Y-85761070D01*
X128283081Y-85817990D01*
X128283081Y-85874909D01*
X128235455Y-85817990D01*
X128187829Y-85761070D01*
X128140202Y-85704151D01*
X128092576Y-85647232D01*
X128054243Y-85647232D01*
X128015910Y-85647232D01*
X127977576Y-85647232D01*
X127939243Y-85647232D01*
X127995581Y-85712283D01*
X128051920Y-85777333D01*
X128108258Y-85842384D01*
X128164596Y-85907434D01*
X128100708Y-85980035D01*
X128036819Y-86052636D01*
X127972930Y-86125237D01*
X127909041Y-86197838D01*
X127951440Y-86197838D01*
X127993839Y-86197838D01*
X128036238Y-86197838D01*
X128078637Y-86197838D01*
G37*
G36*
X129256515Y-85644909D02*
G01*
X129221812Y-85774828D01*
X129246061Y-85752649D01*
X129279022Y-85743973D01*
X129314596Y-85742485D01*
X129318081Y-85742485D01*
X129321566Y-85742485D01*
X129325051Y-85742485D01*
X129328536Y-85742485D01*
X129328536Y-85778495D01*
X129328536Y-85814505D01*
X129328536Y-85850515D01*
X129328536Y-85886525D01*
X129325051Y-85886525D01*
X129321566Y-85886525D01*
X129318081Y-85886525D01*
X129314596Y-85886525D01*
X129314596Y-85887687D01*
X129314596Y-85888848D01*
X129314596Y-85890010D01*
X129362803Y-85891752D01*
X129326249Y-85890264D01*
X129293397Y-85881588D01*
X129269693Y-85859408D01*
X129212374Y-85816828D01*
X129221812Y-85774828D01*
X129256515Y-85644909D01*
X129185076Y-85655327D01*
X129127576Y-85686437D01*
X129089243Y-85738020D01*
X129075303Y-85809858D01*
X129083616Y-85866233D01*
X129106957Y-85912371D01*
X129142931Y-85946747D01*
X129189142Y-85967838D01*
X129141515Y-86025338D01*
X129093889Y-86082838D01*
X129046263Y-86140338D01*
X128998637Y-86197838D01*
X129038132Y-86197838D01*
X129077627Y-86197838D01*
X129117122Y-86197838D01*
X129156616Y-86197838D01*
X129198435Y-86143242D01*
X129240253Y-86088646D01*
X129282071Y-86034050D01*
X129323889Y-85979454D01*
X129323889Y-86034050D01*
X129323889Y-86088646D01*
X129323889Y-86143242D01*
X129323889Y-86197838D01*
X129355253Y-86197838D01*
X129386616Y-86197838D01*
X129417980Y-86197838D01*
X129449344Y-86197838D01*
X129449344Y-86060187D01*
X129449344Y-85922535D01*
X129449344Y-85784884D01*
X129449344Y-85647232D01*
X129401137Y-85646651D01*
X129352930Y-85646070D01*
X129304723Y-85645490D01*
X129256515Y-85644909D01*
G37*
G36*
X130355404Y-85635616D02*
G01*
X130248826Y-85806954D01*
X130293076Y-85768766D01*
X130355404Y-85754101D01*
X130418712Y-85768113D01*
X130462854Y-85805212D01*
X130488700Y-85857993D01*
X130497121Y-85919050D01*
X130489353Y-85980108D01*
X130464596Y-86032889D01*
X130420672Y-86069988D01*
X130355404Y-86084000D01*
X130291116Y-86069988D01*
X130247083Y-86032889D01*
X130221782Y-85980108D01*
X130213687Y-85919050D01*
X130222436Y-85859953D01*
X130248826Y-85806954D01*
X130355404Y-85635616D01*
X130247156Y-85657687D01*
X130158510Y-85718091D01*
X130098614Y-85808116D01*
X130076616Y-85919050D01*
X130097634Y-86032308D01*
X130155897Y-86122914D01*
X130244216Y-86183027D01*
X130355404Y-86204808D01*
X130468553Y-86182701D01*
X130556654Y-86122043D01*
X130613828Y-86031328D01*
X130634192Y-85919050D01*
X130612194Y-85807136D01*
X130552298Y-85717219D01*
X130463652Y-85657360D01*
X130355404Y-85635616D01*
G37*
G36*
X131570455Y-85888848D02*
G01*
X131592525Y-85966096D01*
X131614596Y-86043343D01*
X131636667Y-86120591D01*
X131658737Y-86197838D01*
X131693586Y-86197838D01*
X131728434Y-86197838D01*
X131763283Y-86197838D01*
X131798131Y-86197838D01*
X131837045Y-86060187D01*
X131875960Y-85922535D01*
X131914874Y-85784884D01*
X131953788Y-85647232D01*
X131919520Y-85647232D01*
X131885252Y-85647232D01*
X131850985Y-85647232D01*
X131816717Y-85647232D01*
X131793485Y-85742485D01*
X131770252Y-85837737D01*
X131747020Y-85932990D01*
X131723788Y-86028242D01*
X131723207Y-86028242D01*
X131722626Y-86028242D01*
X131722045Y-86028242D01*
X131721465Y-86028242D01*
X131696490Y-85932990D01*
X131671515Y-85837737D01*
X131646540Y-85742485D01*
X131621566Y-85647232D01*
X131598333Y-85647232D01*
X131575101Y-85647232D01*
X131551869Y-85647232D01*
X131528636Y-85647232D01*
X131503662Y-85742485D01*
X131478687Y-85837737D01*
X131453712Y-85932990D01*
X131428737Y-86028242D01*
X131426414Y-86028242D01*
X131424091Y-86028242D01*
X131421768Y-86028242D01*
X131419444Y-86028242D01*
X131396212Y-85932990D01*
X131372980Y-85837737D01*
X131349747Y-85742485D01*
X131326515Y-85647232D01*
X131291667Y-85647232D01*
X131256818Y-85647232D01*
X131221970Y-85647232D01*
X131187121Y-85647232D01*
X131226035Y-85784884D01*
X131264950Y-85922535D01*
X131303864Y-86060187D01*
X131342778Y-86197838D01*
X131377626Y-86197838D01*
X131412475Y-86197838D01*
X131447323Y-86197838D01*
X131482172Y-86197838D01*
X131504242Y-86120591D01*
X131526313Y-86043343D01*
X131548384Y-85966096D01*
X131570455Y-85888848D01*
G37*
G36*
X132910959Y-85644909D02*
G01*
X132813964Y-85644909D01*
X132716970Y-85644909D01*
X132619975Y-85644909D01*
X132522980Y-85644909D01*
X132522980Y-85672788D01*
X132522980Y-85700666D01*
X132522980Y-85728545D01*
X132522980Y-85756424D01*
X132555505Y-85756424D01*
X132588030Y-85756424D01*
X132620555Y-85756424D01*
X132653081Y-85756424D01*
X132653081Y-85866197D01*
X132653081Y-85975969D01*
X132653081Y-86085742D01*
X132653081Y-86195515D01*
X132684444Y-86195515D01*
X132715808Y-86195515D01*
X132747172Y-86195515D01*
X132778535Y-86195515D01*
X132778535Y-86085742D01*
X132778535Y-85975969D01*
X132778535Y-85866197D01*
X132778535Y-85756424D01*
X132811060Y-85756424D01*
X132843586Y-85756424D01*
X132876111Y-85756424D01*
X132908636Y-85756424D01*
X132909217Y-85728545D01*
X132909798Y-85700666D01*
X132910379Y-85672788D01*
X132910959Y-85644909D01*
G37*
G36*
X133515000Y-85754101D02*
G01*
X133562626Y-85754101D01*
X133610252Y-85754101D01*
X133657878Y-85754101D01*
X133705505Y-85754101D01*
X133705505Y-85780818D01*
X133705505Y-85807535D01*
X133705505Y-85834252D01*
X133705505Y-85860969D01*
X133660202Y-85860969D01*
X133614899Y-85860969D01*
X133569596Y-85860969D01*
X133524293Y-85860969D01*
X133524293Y-85888848D01*
X133524293Y-85916727D01*
X133524293Y-85944606D01*
X133524293Y-85972484D01*
X133569596Y-85972484D01*
X133614899Y-85972484D01*
X133660202Y-85972484D01*
X133705505Y-85972484D01*
X133705505Y-86000363D01*
X133705505Y-86028242D01*
X133705505Y-86056121D01*
X133705505Y-86084000D01*
X133657878Y-86084000D01*
X133610252Y-86084000D01*
X133562626Y-86084000D01*
X133515000Y-86084000D01*
X133515000Y-86111878D01*
X133515000Y-86139757D01*
X133515000Y-86167636D01*
X133515000Y-86195515D01*
X133593990Y-86195515D01*
X133672979Y-86195515D01*
X133751969Y-86195515D01*
X133830959Y-86195515D01*
X133830959Y-86057863D01*
X133830959Y-85920212D01*
X133830959Y-85782560D01*
X133830959Y-85644909D01*
X133751969Y-85644909D01*
X133672979Y-85644909D01*
X133593990Y-85644909D01*
X133515000Y-85644909D01*
X133515000Y-85672207D01*
X133515000Y-85699505D01*
X133515000Y-85726803D01*
X133515000Y-85754101D01*
G37*
G36*
X134827626Y-86197838D02*
G01*
X134858989Y-86197838D01*
X134890353Y-86197838D01*
X134921717Y-86197838D01*
X134953080Y-86197838D01*
X134953080Y-86060187D01*
X134953080Y-85922535D01*
X134953080Y-85784884D01*
X134953080Y-85647232D01*
X134921717Y-85647232D01*
X134890353Y-85647232D01*
X134858989Y-85647232D01*
X134827626Y-85647232D01*
X134772449Y-85733192D01*
X134717272Y-85819151D01*
X134662096Y-85905111D01*
X134606919Y-85991070D01*
X134606919Y-85905111D01*
X134606919Y-85819151D01*
X134606919Y-85733192D01*
X134606919Y-85647232D01*
X134575555Y-85647232D01*
X134544191Y-85647232D01*
X134512828Y-85647232D01*
X134481464Y-85647232D01*
X134481464Y-85784884D01*
X134481464Y-85922535D01*
X134481464Y-86060187D01*
X134481464Y-86197838D01*
X134512828Y-86197838D01*
X134544191Y-86197838D01*
X134575555Y-86197838D01*
X134606919Y-86197838D01*
X134662096Y-86111878D01*
X134717272Y-86025919D01*
X134772449Y-85939959D01*
X134827626Y-85854000D01*
X134827626Y-85939959D01*
X134827626Y-86025919D01*
X134827626Y-86111878D01*
X134827626Y-86197838D01*
G37*
G36*
X128529344Y-83228748D02*
G01*
X128202603Y-81841851D01*
X128167210Y-82022990D01*
X128163616Y-82207614D01*
X128192475Y-82390061D01*
X128193165Y-82440409D01*
X128173599Y-82486184D01*
X128137916Y-82521069D01*
X128090253Y-82538748D01*
X128042772Y-82542741D01*
X127997905Y-82528874D01*
X127960878Y-82500196D01*
X127936920Y-82459758D01*
X127898187Y-82172947D01*
X127923271Y-81883306D01*
X128009775Y-81605426D01*
X128155303Y-81353899D01*
X128155304Y-81353900D01*
X128302902Y-81186808D01*
X128477071Y-81046942D01*
X128672150Y-80938005D01*
X128882475Y-80863697D01*
X128930827Y-80863516D01*
X128974824Y-80881412D01*
X129009236Y-80913683D01*
X129028839Y-80956627D01*
X129035990Y-81007520D01*
X129021579Y-81057106D01*
X128989308Y-81097110D01*
X128942879Y-81119253D01*
X128733716Y-81199731D01*
X128546768Y-81322245D01*
X128389442Y-81480915D01*
X128269142Y-81669859D01*
X128202603Y-81841851D01*
X128529344Y-83228748D01*
X128529344Y-82415616D01*
X128481173Y-82419537D01*
X128434963Y-82405162D01*
X128397029Y-82375105D01*
X128373687Y-82331980D01*
X128345954Y-82150514D01*
X128359167Y-81967523D01*
X128411585Y-81791937D01*
X128501465Y-81632687D01*
X128598859Y-81521898D01*
X128714331Y-81429404D01*
X128844178Y-81359562D01*
X128984697Y-81316728D01*
X129053741Y-81326565D01*
X129104925Y-81372776D01*
X129129101Y-81438588D01*
X129117122Y-81507233D01*
X129101295Y-81532861D01*
X129079369Y-81553697D01*
X129053087Y-81569306D01*
X129024192Y-81579253D01*
X128915109Y-81620599D01*
X128817134Y-81683508D01*
X128734405Y-81765148D01*
X128671061Y-81862687D01*
X128633163Y-81958448D01*
X128613561Y-82059000D01*
X128612254Y-82161295D01*
X128629243Y-82262283D01*
X128631276Y-82313031D01*
X128612399Y-82359859D01*
X128576970Y-82396232D01*
X128529344Y-82415616D01*
X128529344Y-83228748D01*
X128531740Y-83375910D01*
X128562450Y-83515667D01*
X128568214Y-83532464D01*
X128574398Y-83549091D01*
X128580999Y-83565544D01*
X128588015Y-83581815D01*
X128595442Y-83597899D01*
X128603278Y-83613790D01*
X128611521Y-83629482D01*
X128620168Y-83644969D01*
X128629216Y-83660245D01*
X128638664Y-83675304D01*
X128648508Y-83690140D01*
X128658746Y-83704747D01*
X128669375Y-83719119D01*
X128680394Y-83733251D01*
X128691798Y-83747135D01*
X128703586Y-83760768D01*
X128716633Y-83774938D01*
X128730066Y-83788697D01*
X128743879Y-83802043D01*
X128758064Y-83814973D01*
X128772613Y-83827485D01*
X128787519Y-83839575D01*
X128802773Y-83851241D01*
X128818368Y-83862482D01*
X128834297Y-83873293D01*
X128850552Y-83883673D01*
X128867125Y-83893619D01*
X128884009Y-83903129D01*
X128901195Y-83912200D01*
X128918677Y-83920829D01*
X128936446Y-83929014D01*
X128954495Y-83936752D01*
X128972817Y-83944042D01*
X128991403Y-83950879D01*
X129010246Y-83957262D01*
X129029338Y-83963188D01*
X129048672Y-83968655D01*
X129068239Y-83973660D01*
X129088034Y-83978200D01*
X129108046Y-83982273D01*
X129128270Y-83985877D01*
X129148697Y-83989008D01*
X129169320Y-83991665D01*
X129190131Y-83993844D01*
X129211122Y-83995544D01*
X129232286Y-83996761D01*
X129253615Y-83997492D01*
X129275101Y-83997738D01*
X129430685Y-83997738D01*
X129586269Y-83997738D01*
X129741853Y-83997738D01*
X129897437Y-83997738D01*
X130053021Y-83997738D01*
X130208605Y-83997738D01*
X130364189Y-83997738D01*
X130519773Y-83997738D01*
X130675357Y-83997738D01*
X130830941Y-83997738D01*
X130986525Y-83997738D01*
X131142109Y-83997738D01*
X131297693Y-83997738D01*
X131453277Y-83997738D01*
X131608860Y-83997738D01*
X131764444Y-83997738D01*
X131920028Y-83997738D01*
X132075612Y-83997738D01*
X132231196Y-83997738D01*
X132386780Y-83997738D01*
X132542364Y-83997738D01*
X132697948Y-83997738D01*
X132853532Y-83997738D01*
X133009116Y-83997738D01*
X133164700Y-83997738D01*
X133320284Y-83997738D01*
X133475868Y-83997738D01*
X133631452Y-83997738D01*
X133787036Y-83997738D01*
X133942620Y-83997738D01*
X134098204Y-83997738D01*
X134253787Y-83997738D01*
X134254006Y-83997738D01*
X134254223Y-83997738D01*
X134254441Y-83997738D01*
X134254660Y-83997738D01*
X134254878Y-83997738D01*
X134255097Y-83997738D01*
X134255314Y-83997738D01*
X134255532Y-83997738D01*
X134255751Y-83997738D01*
X134255969Y-83997738D01*
X134256187Y-83997738D01*
X134256405Y-83997738D01*
X134256623Y-83997738D01*
X134256841Y-83997738D01*
X134257060Y-83997738D01*
X134257278Y-83997738D01*
X134257495Y-83997738D01*
X134257714Y-83997738D01*
X134257932Y-83997738D01*
X134258151Y-83997738D01*
X134258369Y-83997738D01*
X134258586Y-83997738D01*
X134258805Y-83997738D01*
X134259023Y-83997738D01*
X134259241Y-83997738D01*
X134259460Y-83997738D01*
X134259677Y-83997738D01*
X134259895Y-83997738D01*
X134260114Y-83997738D01*
X134260332Y-83997738D01*
X134260550Y-83997738D01*
X134260768Y-83997738D01*
X134260837Y-83997738D01*
X134260907Y-83997738D01*
X134260977Y-83997738D01*
X134261046Y-83997738D01*
X134261116Y-83997738D01*
X134261186Y-83997738D01*
X134261256Y-83997738D01*
X134261325Y-83997738D01*
X134261395Y-83997738D01*
X134261465Y-83997738D01*
X134261534Y-83997738D01*
X134261604Y-83997738D01*
X134261674Y-83997738D01*
X134261743Y-83997738D01*
X134261813Y-83997738D01*
X134261883Y-83997738D01*
X134261952Y-83997738D01*
X134262022Y-83997738D01*
X134262092Y-83997738D01*
X134262162Y-83997738D01*
X134262231Y-83997738D01*
X134262301Y-83997738D01*
X134262371Y-83997738D01*
X134262440Y-83997738D01*
X134262510Y-83997738D01*
X134262580Y-83997738D01*
X134262649Y-83997738D01*
X134262719Y-83997738D01*
X134262789Y-83997738D01*
X134262859Y-83997738D01*
X134262928Y-83997738D01*
X134262998Y-83997738D01*
X134263143Y-83997738D01*
X134263288Y-83997738D01*
X134263434Y-83997738D01*
X134263579Y-83997738D01*
X134263724Y-83997738D01*
X134263869Y-83997738D01*
X134264014Y-83997738D01*
X134264160Y-83997738D01*
X134264305Y-83997738D01*
X134264450Y-83997738D01*
X134264595Y-83997738D01*
X134264740Y-83997738D01*
X134264886Y-83997738D01*
X134265031Y-83997738D01*
X134265176Y-83997738D01*
X134265321Y-83997738D01*
X134265466Y-83997738D01*
X134265612Y-83997738D01*
X134265757Y-83997738D01*
X134265902Y-83997738D01*
X134266047Y-83997738D01*
X134266192Y-83997738D01*
X134266338Y-83997738D01*
X134266483Y-83997738D01*
X134266628Y-83997738D01*
X134266773Y-83997738D01*
X134266918Y-83997738D01*
X134267064Y-83997738D01*
X134267209Y-83997738D01*
X134267354Y-83997738D01*
X134267499Y-83997738D01*
X134267727Y-83997738D01*
X134286641Y-83997296D01*
X134305479Y-83996407D01*
X134324237Y-83995075D01*
X134342905Y-83993300D01*
X134361479Y-83991087D01*
X134379950Y-83988437D01*
X134398312Y-83985354D01*
X134416559Y-83981838D01*
X134434683Y-83977895D01*
X134452678Y-83973525D01*
X134470537Y-83968731D01*
X134488252Y-83963516D01*
X134505818Y-83957882D01*
X134523228Y-83951833D01*
X134540474Y-83945370D01*
X134557550Y-83938496D01*
X134574449Y-83931213D01*
X134591164Y-83923525D01*
X134607689Y-83915434D01*
X134624016Y-83906941D01*
X134640139Y-83898051D01*
X134656052Y-83888765D01*
X134671746Y-83879086D01*
X134687215Y-83869017D01*
X134702454Y-83858559D01*
X134717454Y-83847716D01*
X134732209Y-83836490D01*
X134746712Y-83824884D01*
X134760956Y-83812900D01*
X134774936Y-83800541D01*
X134788642Y-83787810D01*
X134802070Y-83774707D01*
X134816023Y-83760619D01*
X134829566Y-83746239D01*
X134842696Y-83731574D01*
X134855414Y-83716631D01*
X134867716Y-83701417D01*
X134879601Y-83685940D01*
X134891068Y-83670207D01*
X134902114Y-83654226D01*
X134912739Y-83638002D01*
X134922940Y-83621544D01*
X134932715Y-83604859D01*
X134942063Y-83587955D01*
X134950983Y-83570837D01*
X134959472Y-83553514D01*
X134967528Y-83535993D01*
X134975151Y-83518280D01*
X135020309Y-83370573D01*
X135036717Y-83214808D01*
X135024524Y-83071417D01*
X134989272Y-82937146D01*
X134932947Y-82814146D01*
X134857537Y-82704568D01*
X134765030Y-82610564D01*
X134657413Y-82534283D01*
X134536673Y-82477876D01*
X134404798Y-82443495D01*
X134375725Y-82323781D01*
X134326425Y-82211499D01*
X134258883Y-82108419D01*
X134175088Y-82016311D01*
X134077027Y-81936944D01*
X133966687Y-81872089D01*
X133846056Y-81823514D01*
X133717121Y-81792990D01*
X133707329Y-81744456D01*
X133693671Y-81696576D01*
X133676201Y-81649567D01*
X133654974Y-81603647D01*
X133630045Y-81559033D01*
X133601468Y-81515945D01*
X133569296Y-81474599D01*
X133533586Y-81435212D01*
X133477265Y-81382540D01*
X133416698Y-81336185D01*
X133285000Y-81263293D01*
X133142847Y-81218281D01*
X132994596Y-81202889D01*
X132808411Y-81227937D01*
X132722002Y-81258021D01*
X132641174Y-81298723D01*
X132566772Y-81349226D01*
X132499638Y-81408713D01*
X132440618Y-81476368D01*
X132390555Y-81551374D01*
X132322737Y-81368229D01*
X132227421Y-81200493D01*
X132107384Y-81050944D01*
X131965404Y-80922359D01*
X131804257Y-80817514D01*
X131626720Y-80739187D01*
X131435571Y-80690154D01*
X131233586Y-80673192D01*
X131013246Y-80693493D01*
X130806002Y-80751964D01*
X130615584Y-80844957D01*
X130445720Y-80968824D01*
X130300141Y-81119915D01*
X130182578Y-81294584D01*
X130096759Y-81489182D01*
X130046414Y-81700061D01*
X129928864Y-81627129D01*
X129804290Y-81577474D01*
X129543435Y-81548760D01*
X129282579Y-81615444D01*
X129040455Y-81779051D01*
X129048586Y-81772081D01*
X129056718Y-81765111D01*
X129064849Y-81758142D01*
X129072980Y-81751172D01*
X128920409Y-81908861D01*
X128821200Y-82082233D01*
X128769472Y-82260831D01*
X128759344Y-82434202D01*
X128771505Y-82530398D01*
X128797387Y-82620061D01*
X128836773Y-82702753D01*
X128889445Y-82778040D01*
X128834377Y-82800656D01*
X128783447Y-82830023D01*
X128735567Y-82865924D01*
X128689647Y-82908141D01*
X128631965Y-82974644D01*
X128585392Y-83048116D01*
X128551451Y-83127687D01*
X128531667Y-83212485D01*
X128531632Y-83216006D01*
X128531378Y-83219745D01*
X128530688Y-83223919D01*
X128529345Y-83228748D01*
X128529345Y-83225154D01*
X128529345Y-83224392D01*
X128529345Y-83225807D01*
X128529345Y-83228748D01*
X128529344Y-83228748D01*
G37*
D11*
G36*
X137376746Y-110361171D02*
G01*
X137293408Y-110414287D01*
X137210742Y-110493836D01*
X137134104Y-110592471D01*
X137068850Y-110702845D01*
X137020337Y-110817612D01*
X136993924Y-110929426D01*
X136990666Y-110979153D01*
X136993485Y-111044002D01*
X137007034Y-111090116D01*
X137038956Y-111134341D01*
X137080625Y-111177470D01*
X137139614Y-111228562D01*
X137208312Y-111270882D01*
X137298911Y-111311190D01*
X137368835Y-111337212D01*
X137458348Y-111369771D01*
X137513321Y-111392529D01*
X137539390Y-111409039D01*
X137542187Y-111422855D01*
X137527585Y-111437350D01*
X137430100Y-111496605D01*
X137309956Y-111542804D01*
X137157799Y-111579493D01*
X137147231Y-111581510D01*
X137058766Y-111599442D01*
X136983303Y-111617031D01*
X136932732Y-111631415D01*
X136921875Y-111635761D01*
X136897516Y-111642417D01*
X136886960Y-111623196D01*
X136884833Y-111576516D01*
X136873830Y-111511390D01*
X136843051Y-111420793D01*
X136800166Y-111323587D01*
X136755255Y-111228018D01*
X136728562Y-111162175D01*
X136718162Y-111118552D01*
X136722128Y-111089642D01*
X136735361Y-111071024D01*
X136749332Y-111039740D01*
X136763161Y-110981953D01*
X136769560Y-110941884D01*
X136776156Y-110876095D01*
X136771417Y-110837853D01*
X136751789Y-110813095D01*
X136733824Y-110800430D01*
X136683512Y-110777591D01*
X136600452Y-110750578D01*
X136493741Y-110721618D01*
X136372478Y-110692937D01*
X136245762Y-110666761D01*
X136122691Y-110645317D01*
X136067269Y-110637317D01*
X135975801Y-110625761D01*
X135916302Y-110621001D01*
X135878836Y-110623847D01*
X135853463Y-110635106D01*
X135830248Y-110655587D01*
X135829144Y-110656688D01*
X135790472Y-110688920D01*
X135763000Y-110701666D01*
X135747998Y-110720024D01*
X135741833Y-110763630D01*
X135761846Y-110830512D01*
X135821549Y-110883725D01*
X135920444Y-110922897D01*
X135970661Y-110934510D01*
X136058820Y-110953903D01*
X136147946Y-110976704D01*
X136186333Y-110987899D01*
X136258092Y-111008911D01*
X136323148Y-111025728D01*
X136339791Y-111029391D01*
X136384665Y-111049682D01*
X136398000Y-111075406D01*
X136392811Y-111092699D01*
X136371562Y-111101150D01*
X136325727Y-111101870D01*
X136246780Y-111095967D01*
X136242805Y-111095609D01*
X136087610Y-111081545D01*
X136009972Y-111154768D01*
X135964939Y-111203350D01*
X135936923Y-111245340D01*
X135932333Y-111260733D01*
X135949469Y-111287975D01*
X135993936Y-111325352D01*
X136043458Y-111357206D01*
X136108130Y-111391069D01*
X136165410Y-111410404D01*
X136232158Y-111419122D01*
X136318936Y-111421134D01*
X136401916Y-111421944D01*
X136453616Y-111426589D01*
X136485089Y-111438766D01*
X136507387Y-111462172D01*
X136525232Y-111490125D01*
X136552488Y-111538623D01*
X136566681Y-111571285D01*
X136567254Y-111574791D01*
X136547802Y-111585667D01*
X136494807Y-111590140D01*
X136416520Y-111588530D01*
X136321194Y-111581160D01*
X136217081Y-111568351D01*
X136157404Y-111558816D01*
X135974762Y-111526966D01*
X135901662Y-111604467D01*
X135857204Y-111658382D01*
X135844599Y-111700809D01*
X135864765Y-111743849D01*
X135916316Y-111797452D01*
X135976437Y-111833056D01*
X136074488Y-111864902D01*
X136206156Y-111891958D01*
X136367125Y-111913191D01*
X136421731Y-111918380D01*
X136578669Y-111921301D01*
X136701685Y-111899630D01*
X136791420Y-111853220D01*
X136818262Y-111827554D01*
X136850519Y-111792343D01*
X136861853Y-111788024D01*
X136858481Y-111813001D01*
X136857480Y-111817465D01*
X136865823Y-111874369D01*
X136896582Y-111918007D01*
X136963122Y-111958746D01*
X137060235Y-111970677D01*
X137187482Y-111953807D01*
X137339916Y-111909715D01*
X137522028Y-111839347D01*
X137670594Y-111766692D01*
X137777380Y-111696500D01*
X136884833Y-111696500D01*
X136877089Y-111713922D01*
X136870722Y-111710611D01*
X136868189Y-111685491D01*
X136870722Y-111682388D01*
X136883306Y-111685294D01*
X136884833Y-111696500D01*
X137777380Y-111696500D01*
X137781490Y-111693799D01*
X137791982Y-111685207D01*
X137834040Y-111651202D01*
X137853124Y-111643388D01*
X137858297Y-111660277D01*
X137858500Y-111674294D01*
X137867938Y-111721218D01*
X137891469Y-111782949D01*
X137900351Y-111801388D01*
X137952410Y-111869085D01*
X138017413Y-111901704D01*
X138087645Y-111896500D01*
X138120742Y-111879897D01*
X138163259Y-111830817D01*
X138195047Y-111753883D01*
X138212144Y-111663029D01*
X138210586Y-111572192D01*
X138209773Y-111566797D01*
X138195769Y-111479220D01*
X138270837Y-111545131D01*
X138319305Y-111585379D01*
X138367079Y-111618070D01*
X138421956Y-111646556D01*
X138491735Y-111674186D01*
X138584215Y-111704312D01*
X138707195Y-111740286D01*
X138759157Y-111754954D01*
X139005142Y-111819202D01*
X139216604Y-111864202D01*
X139392885Y-111889871D01*
X139533329Y-111896131D01*
X139637277Y-111882900D01*
X139678833Y-111867194D01*
X139786041Y-111788152D01*
X139866896Y-111679152D01*
X139918526Y-111545462D01*
X139938056Y-111392350D01*
X139938062Y-111391945D01*
X139920814Y-111286740D01*
X139868664Y-111168820D01*
X139785426Y-111042604D01*
X139674910Y-110912507D01*
X139540929Y-110782948D01*
X139387293Y-110658344D01*
X139217814Y-110543111D01*
X139192000Y-110527351D01*
X139108717Y-110476410D01*
X139034118Y-110429304D01*
X138979152Y-110393014D01*
X138961604Y-110380460D01*
X138914707Y-110355284D01*
X138864477Y-110342892D01*
X138825194Y-110345092D01*
X138811000Y-110361414D01*
X138794029Y-110382205D01*
X138750868Y-110413069D01*
X138721362Y-110430441D01*
X138663478Y-110467812D01*
X138633163Y-110506938D01*
X138618095Y-110563741D01*
X138618067Y-110563911D01*
X138611344Y-110622889D01*
X138611663Y-110664671D01*
X138613052Y-110670453D01*
X138634880Y-110689504D01*
X138685628Y-110720857D01*
X138755877Y-110758867D01*
X138785138Y-110773592D01*
X138884512Y-110825708D01*
X138990999Y-110886380D01*
X139082335Y-110942901D01*
X139086166Y-110945431D01*
X139173662Y-111011181D01*
X139275006Y-111099299D01*
X139379068Y-111198964D01*
X139474720Y-111299353D01*
X139550832Y-111389647D01*
X139570285Y-111416129D01*
X139599131Y-111461459D01*
X139603331Y-111484992D01*
X139584838Y-111497863D01*
X139584637Y-111497941D01*
X139535100Y-111504648D01*
X139452926Y-111502023D01*
X139346562Y-111490950D01*
X139224454Y-111472311D01*
X139126191Y-111453083D01*
X138197166Y-111453083D01*
X138186583Y-111463666D01*
X138176000Y-111453083D01*
X138186583Y-111442500D01*
X138197166Y-111453083D01*
X139126191Y-111453083D01*
X139095048Y-111446989D01*
X139093150Y-111446575D01*
X138983292Y-111422009D01*
X138909576Y-111402388D01*
X138866742Y-111383818D01*
X138849529Y-111362409D01*
X138852680Y-111334267D01*
X138870934Y-111295499D01*
X138876054Y-111285904D01*
X138900575Y-111229850D01*
X138910076Y-111186283D01*
X138908776Y-111176866D01*
X138912495Y-111147298D01*
X138921830Y-111140973D01*
X138937872Y-111120083D01*
X138921510Y-111083969D01*
X138876839Y-111038857D01*
X138833837Y-111007176D01*
X138748752Y-110950869D01*
X138587939Y-111032643D01*
X138489864Y-111088733D01*
X138385852Y-111157947D01*
X138298039Y-111225532D01*
X138296271Y-111227049D01*
X138230565Y-111281793D01*
X138189617Y-111310357D01*
X138167634Y-111315863D01*
X138158822Y-111301433D01*
X138158769Y-111301132D01*
X138147785Y-111244020D01*
X138131059Y-111164674D01*
X138110794Y-111072690D01*
X138102135Y-111034598D01*
X137686879Y-111034598D01*
X137683455Y-111055909D01*
X137647496Y-111054967D01*
X137576668Y-111033810D01*
X137502269Y-111007017D01*
X137418405Y-110971836D01*
X137373547Y-110939790D01*
X137365278Y-110905285D01*
X137391178Y-110862726D01*
X137425010Y-110828265D01*
X137457043Y-110802426D01*
X137484841Y-110796409D01*
X137516091Y-110813996D01*
X137558479Y-110858972D01*
X137605468Y-110917081D01*
X137660105Y-110989001D01*
X137686879Y-111034598D01*
X138102135Y-111034598D01*
X138089191Y-110977660D01*
X138068451Y-110889179D01*
X138050775Y-110816840D01*
X138038365Y-110770238D01*
X138034233Y-110758397D01*
X138007327Y-110747848D01*
X137962043Y-110748851D01*
X137927624Y-110750484D01*
X137896452Y-110740587D01*
X137862156Y-110713772D01*
X137818366Y-110664649D01*
X137758710Y-110587831D01*
X137736227Y-110557857D01*
X137648409Y-110454629D01*
X137563953Y-110382918D01*
X137487266Y-110346111D01*
X137455397Y-110341833D01*
X137376746Y-110361171D01*
G37*
X137376746Y-110361171D02*
X137293408Y-110414287D01*
X137210742Y-110493836D01*
X137134104Y-110592471D01*
X137068850Y-110702845D01*
X137020337Y-110817612D01*
X136993924Y-110929426D01*
X136990666Y-110979153D01*
X136993485Y-111044002D01*
X137007034Y-111090116D01*
X137038956Y-111134341D01*
X137080625Y-111177470D01*
X137139614Y-111228562D01*
X137208312Y-111270882D01*
X137298911Y-111311190D01*
X137368835Y-111337212D01*
X137458348Y-111369771D01*
X137513321Y-111392529D01*
X137539390Y-111409039D01*
X137542187Y-111422855D01*
X137527585Y-111437350D01*
X137430100Y-111496605D01*
X137309956Y-111542804D01*
X137157799Y-111579493D01*
X137147231Y-111581510D01*
X137058766Y-111599442D01*
X136983303Y-111617031D01*
X136932732Y-111631415D01*
X136921875Y-111635761D01*
X136897516Y-111642417D01*
X136886960Y-111623196D01*
X136884833Y-111576516D01*
X136873830Y-111511390D01*
X136843051Y-111420793D01*
X136800166Y-111323587D01*
X136755255Y-111228018D01*
X136728562Y-111162175D01*
X136718162Y-111118552D01*
X136722128Y-111089642D01*
X136735361Y-111071024D01*
X136749332Y-111039740D01*
X136763161Y-110981953D01*
X136769560Y-110941884D01*
X136776156Y-110876095D01*
X136771417Y-110837853D01*
X136751789Y-110813095D01*
X136733824Y-110800430D01*
X136683512Y-110777591D01*
X136600452Y-110750578D01*
X136493741Y-110721618D01*
X136372478Y-110692937D01*
X136245762Y-110666761D01*
X136122691Y-110645317D01*
X136067269Y-110637317D01*
X135975801Y-110625761D01*
X135916302Y-110621001D01*
X135878836Y-110623847D01*
X135853463Y-110635106D01*
X135830248Y-110655587D01*
X135829144Y-110656688D01*
X135790472Y-110688920D01*
X135763000Y-110701666D01*
X135747998Y-110720024D01*
X135741833Y-110763630D01*
X135761846Y-110830512D01*
X135821549Y-110883725D01*
X135920444Y-110922897D01*
X135970661Y-110934510D01*
X136058820Y-110953903D01*
X136147946Y-110976704D01*
X136186333Y-110987899D01*
X136258092Y-111008911D01*
X136323148Y-111025728D01*
X136339791Y-111029391D01*
X136384665Y-111049682D01*
X136398000Y-111075406D01*
X136392811Y-111092699D01*
X136371562Y-111101150D01*
X136325727Y-111101870D01*
X136246780Y-111095967D01*
X136242805Y-111095609D01*
X136087610Y-111081545D01*
X136009972Y-111154768D01*
X135964939Y-111203350D01*
X135936923Y-111245340D01*
X135932333Y-111260733D01*
X135949469Y-111287975D01*
X135993936Y-111325352D01*
X136043458Y-111357206D01*
X136108130Y-111391069D01*
X136165410Y-111410404D01*
X136232158Y-111419122D01*
X136318936Y-111421134D01*
X136401916Y-111421944D01*
X136453616Y-111426589D01*
X136485089Y-111438766D01*
X136507387Y-111462172D01*
X136525232Y-111490125D01*
X136552488Y-111538623D01*
X136566681Y-111571285D01*
X136567254Y-111574791D01*
X136547802Y-111585667D01*
X136494807Y-111590140D01*
X136416520Y-111588530D01*
X136321194Y-111581160D01*
X136217081Y-111568351D01*
X136157404Y-111558816D01*
X135974762Y-111526966D01*
X135901662Y-111604467D01*
X135857204Y-111658382D01*
X135844599Y-111700809D01*
X135864765Y-111743849D01*
X135916316Y-111797452D01*
X135976437Y-111833056D01*
X136074488Y-111864902D01*
X136206156Y-111891958D01*
X136367125Y-111913191D01*
X136421731Y-111918380D01*
X136578669Y-111921301D01*
X136701685Y-111899630D01*
X136791420Y-111853220D01*
X136818262Y-111827554D01*
X136850519Y-111792343D01*
X136861853Y-111788024D01*
X136858481Y-111813001D01*
X136857480Y-111817465D01*
X136865823Y-111874369D01*
X136896582Y-111918007D01*
X136963122Y-111958746D01*
X137060235Y-111970677D01*
X137187482Y-111953807D01*
X137339916Y-111909715D01*
X137522028Y-111839347D01*
X137670594Y-111766692D01*
X137777380Y-111696500D01*
X136884833Y-111696500D01*
X136877089Y-111713922D01*
X136870722Y-111710611D01*
X136868189Y-111685491D01*
X136870722Y-111682388D01*
X136883306Y-111685294D01*
X136884833Y-111696500D01*
X137777380Y-111696500D01*
X137781490Y-111693799D01*
X137791982Y-111685207D01*
X137834040Y-111651202D01*
X137853124Y-111643388D01*
X137858297Y-111660277D01*
X137858500Y-111674294D01*
X137867938Y-111721218D01*
X137891469Y-111782949D01*
X137900351Y-111801388D01*
X137952410Y-111869085D01*
X138017413Y-111901704D01*
X138087645Y-111896500D01*
X138120742Y-111879897D01*
X138163259Y-111830817D01*
X138195047Y-111753883D01*
X138212144Y-111663029D01*
X138210586Y-111572192D01*
X138209773Y-111566797D01*
X138195769Y-111479220D01*
X138270837Y-111545131D01*
X138319305Y-111585379D01*
X138367079Y-111618070D01*
X138421956Y-111646556D01*
X138491735Y-111674186D01*
X138584215Y-111704312D01*
X138707195Y-111740286D01*
X138759157Y-111754954D01*
X139005142Y-111819202D01*
X139216604Y-111864202D01*
X139392885Y-111889871D01*
X139533329Y-111896131D01*
X139637277Y-111882900D01*
X139678833Y-111867194D01*
X139786041Y-111788152D01*
X139866896Y-111679152D01*
X139918526Y-111545462D01*
X139938056Y-111392350D01*
X139938062Y-111391945D01*
X139920814Y-111286740D01*
X139868664Y-111168820D01*
X139785426Y-111042604D01*
X139674910Y-110912507D01*
X139540929Y-110782948D01*
X139387293Y-110658344D01*
X139217814Y-110543111D01*
X139192000Y-110527351D01*
X139108717Y-110476410D01*
X139034118Y-110429304D01*
X138979152Y-110393014D01*
X138961604Y-110380460D01*
X138914707Y-110355284D01*
X138864477Y-110342892D01*
X138825194Y-110345092D01*
X138811000Y-110361414D01*
X138794029Y-110382205D01*
X138750868Y-110413069D01*
X138721362Y-110430441D01*
X138663478Y-110467812D01*
X138633163Y-110506938D01*
X138618095Y-110563741D01*
X138618067Y-110563911D01*
X138611344Y-110622889D01*
X138611663Y-110664671D01*
X138613052Y-110670453D01*
X138634880Y-110689504D01*
X138685628Y-110720857D01*
X138755877Y-110758867D01*
X138785138Y-110773592D01*
X138884512Y-110825708D01*
X138990999Y-110886380D01*
X139082335Y-110942901D01*
X139086166Y-110945431D01*
X139173662Y-111011181D01*
X139275006Y-111099299D01*
X139379068Y-111198964D01*
X139474720Y-111299353D01*
X139550832Y-111389647D01*
X139570285Y-111416129D01*
X139599131Y-111461459D01*
X139603331Y-111484992D01*
X139584838Y-111497863D01*
X139584637Y-111497941D01*
X139535100Y-111504648D01*
X139452926Y-111502023D01*
X139346562Y-111490950D01*
X139224454Y-111472311D01*
X139126191Y-111453083D01*
X138197166Y-111453083D01*
X138186583Y-111463666D01*
X138176000Y-111453083D01*
X138186583Y-111442500D01*
X138197166Y-111453083D01*
X139126191Y-111453083D01*
X139095048Y-111446989D01*
X139093150Y-111446575D01*
X138983292Y-111422009D01*
X138909576Y-111402388D01*
X138866742Y-111383818D01*
X138849529Y-111362409D01*
X138852680Y-111334267D01*
X138870934Y-111295499D01*
X138876054Y-111285904D01*
X138900575Y-111229850D01*
X138910076Y-111186283D01*
X138908776Y-111176866D01*
X138912495Y-111147298D01*
X138921830Y-111140973D01*
X138937872Y-111120083D01*
X138921510Y-111083969D01*
X138876839Y-111038857D01*
X138833837Y-111007176D01*
X138748752Y-110950869D01*
X138587939Y-111032643D01*
X138489864Y-111088733D01*
X138385852Y-111157947D01*
X138298039Y-111225532D01*
X138296271Y-111227049D01*
X138230565Y-111281793D01*
X138189617Y-111310357D01*
X138167634Y-111315863D01*
X138158822Y-111301433D01*
X138158769Y-111301132D01*
X138147785Y-111244020D01*
X138131059Y-111164674D01*
X138110794Y-111072690D01*
X138102135Y-111034598D01*
X137686879Y-111034598D01*
X137683455Y-111055909D01*
X137647496Y-111054967D01*
X137576668Y-111033810D01*
X137502269Y-111007017D01*
X137418405Y-110971836D01*
X137373547Y-110939790D01*
X137365278Y-110905285D01*
X137391178Y-110862726D01*
X137425010Y-110828265D01*
X137457043Y-110802426D01*
X137484841Y-110796409D01*
X137516091Y-110813996D01*
X137558479Y-110858972D01*
X137605468Y-110917081D01*
X137660105Y-110989001D01*
X137686879Y-111034598D01*
X138102135Y-111034598D01*
X138089191Y-110977660D01*
X138068451Y-110889179D01*
X138050775Y-110816840D01*
X138038365Y-110770238D01*
X138034233Y-110758397D01*
X138007327Y-110747848D01*
X137962043Y-110748851D01*
X137927624Y-110750484D01*
X137896452Y-110740587D01*
X137862156Y-110713772D01*
X137818366Y-110664649D01*
X137758710Y-110587831D01*
X137736227Y-110557857D01*
X137648409Y-110454629D01*
X137563953Y-110382918D01*
X137487266Y-110346111D01*
X137455397Y-110341833D01*
X137376746Y-110361171D01*
G36*
X134855527Y-110609410D02*
G01*
X134804711Y-110643936D01*
X134777014Y-110667450D01*
X134733881Y-110712687D01*
X134713622Y-110754156D01*
X134718106Y-110798764D01*
X134749201Y-110853420D01*
X134808776Y-110925030D01*
X134862196Y-110982406D01*
X134952548Y-111089928D01*
X135055570Y-111235353D01*
X135169939Y-111416630D01*
X135294333Y-111631708D01*
X135370259Y-111770583D01*
X135431668Y-111875768D01*
X135482273Y-111942613D01*
X135521328Y-111970174D01*
X135528920Y-111970838D01*
X135554649Y-111962599D01*
X135601072Y-111943720D01*
X135604763Y-111942119D01*
X135663978Y-111897739D01*
X135706710Y-111832077D01*
X135720666Y-111771735D01*
X135711433Y-111741891D01*
X135686499Y-111683902D01*
X135650017Y-111607014D01*
X135618953Y-111545190D01*
X135517240Y-111347250D01*
X135564448Y-111277684D01*
X135595931Y-111219295D01*
X135623120Y-111140577D01*
X135647701Y-111035056D01*
X135671361Y-110896259D01*
X135680827Y-110830817D01*
X135691109Y-110748923D01*
X135693154Y-110697394D01*
X135685883Y-110664870D01*
X135668214Y-110639993D01*
X135662081Y-110633673D01*
X135636286Y-110610730D01*
X135612020Y-110604713D01*
X135575402Y-110616276D01*
X135524717Y-110640165D01*
X135465770Y-110672806D01*
X135425171Y-110709296D01*
X135396603Y-110759843D01*
X135373752Y-110834651D01*
X135356848Y-110911429D01*
X135329083Y-111047108D01*
X135254541Y-110940510D01*
X135161847Y-110817151D01*
X135073690Y-110717379D01*
X134994112Y-110645034D01*
X134927155Y-110603954D01*
X134891635Y-110595833D01*
X134855527Y-110609410D01*
G37*
X134855527Y-110609410D02*
X134804711Y-110643936D01*
X134777014Y-110667450D01*
X134733881Y-110712687D01*
X134713622Y-110754156D01*
X134718106Y-110798764D01*
X134749201Y-110853420D01*
X134808776Y-110925030D01*
X134862196Y-110982406D01*
X134952548Y-111089928D01*
X135055570Y-111235353D01*
X135169939Y-111416630D01*
X135294333Y-111631708D01*
X135370259Y-111770583D01*
X135431668Y-111875768D01*
X135482273Y-111942613D01*
X135521328Y-111970174D01*
X135528920Y-111970838D01*
X135554649Y-111962599D01*
X135601072Y-111943720D01*
X135604763Y-111942119D01*
X135663978Y-111897739D01*
X135706710Y-111832077D01*
X135720666Y-111771735D01*
X135711433Y-111741891D01*
X135686499Y-111683902D01*
X135650017Y-111607014D01*
X135618953Y-111545190D01*
X135517240Y-111347250D01*
X135564448Y-111277684D01*
X135595931Y-111219295D01*
X135623120Y-111140577D01*
X135647701Y-111035056D01*
X135671361Y-110896259D01*
X135680827Y-110830817D01*
X135691109Y-110748923D01*
X135693154Y-110697394D01*
X135685883Y-110664870D01*
X135668214Y-110639993D01*
X135662081Y-110633673D01*
X135636286Y-110610730D01*
X135612020Y-110604713D01*
X135575402Y-110616276D01*
X135524717Y-110640165D01*
X135465770Y-110672806D01*
X135425171Y-110709296D01*
X135396603Y-110759843D01*
X135373752Y-110834651D01*
X135356848Y-110911429D01*
X135329083Y-111047108D01*
X135254541Y-110940510D01*
X135161847Y-110817151D01*
X135073690Y-110717379D01*
X134994112Y-110645034D01*
X134927155Y-110603954D01*
X134891635Y-110595833D01*
X134855527Y-110609410D01*
G36*
X131586840Y-110629137D02*
G01*
X131532653Y-110659348D01*
X131478736Y-110698333D01*
X131438077Y-110736791D01*
X131423544Y-110763634D01*
X131417888Y-110811498D01*
X131411129Y-110842106D01*
X131410119Y-110864528D01*
X131423890Y-110887044D01*
X131458350Y-110914437D01*
X131519409Y-110951489D01*
X131603736Y-110997992D01*
X131826540Y-111134433D01*
X132010904Y-111282529D01*
X132155088Y-111438690D01*
X132249635Y-111558916D01*
X132127776Y-111569500D01*
X132060260Y-111573182D01*
X132011645Y-111571761D01*
X131995333Y-111567328D01*
X131969894Y-111557429D01*
X131916661Y-111546262D01*
X131878916Y-111540531D01*
X131793658Y-111525980D01*
X131707837Y-111506483D01*
X131683730Y-111499774D01*
X131594376Y-111473059D01*
X131625521Y-111413026D01*
X131647580Y-111362356D01*
X131656666Y-111325427D01*
X131672230Y-111294498D01*
X131680868Y-111289793D01*
X131694509Y-111269505D01*
X131679181Y-111234747D01*
X131641190Y-111194456D01*
X131587966Y-111158168D01*
X131516347Y-111119599D01*
X131357580Y-111206735D01*
X131277269Y-111253837D01*
X131205966Y-111300997D01*
X131156418Y-111339647D01*
X131148883Y-111347019D01*
X131108953Y-111382982D01*
X131078245Y-111399720D01*
X131076185Y-111399879D01*
X131058646Y-111381557D01*
X131032158Y-111336666D01*
X130660405Y-111336666D01*
X130578184Y-111336666D01*
X130516372Y-111333682D01*
X130469860Y-111326332D01*
X130464589Y-111324627D01*
X130447332Y-111302234D01*
X130448770Y-111252577D01*
X130469318Y-111171467D01*
X130484384Y-111125138D01*
X130501198Y-111114867D01*
X130532761Y-111141515D01*
X130579788Y-111205839D01*
X130618782Y-111267875D01*
X130660405Y-111336666D01*
X131032158Y-111336666D01*
X131029650Y-111332416D01*
X130993808Y-111260798D01*
X130968750Y-111205518D01*
X130904372Y-111064133D01*
X130850040Y-110959497D01*
X130803258Y-110887922D01*
X130761531Y-110845724D01*
X130722362Y-110829217D01*
X130713588Y-110828666D01*
X130655518Y-110810054D01*
X130588861Y-110758193D01*
X130520977Y-110679048D01*
X130510285Y-110663950D01*
X130487541Y-110635861D01*
X130462010Y-110625824D01*
X130419418Y-110631575D01*
X130376013Y-110642656D01*
X130299131Y-110671617D01*
X130250330Y-110715178D01*
X130221404Y-110783507D01*
X130208826Y-110849833D01*
X130197150Y-110920455D01*
X130179849Y-111011831D01*
X130161869Y-111098541D01*
X130141948Y-111180321D01*
X130123992Y-111227864D01*
X130104358Y-111248891D01*
X130089418Y-111252000D01*
X130043830Y-111262752D01*
X129988506Y-111289261D01*
X129937502Y-111322902D01*
X129904872Y-111355052D01*
X129899833Y-111368314D01*
X129914648Y-111397780D01*
X129952087Y-111440459D01*
X129973634Y-111460579D01*
X130018901Y-111504436D01*
X130037939Y-111541759D01*
X130038278Y-111591560D01*
X130035269Y-111616230D01*
X130042283Y-111714551D01*
X130087852Y-111803801D01*
X130168290Y-111877679D01*
X130199070Y-111896120D01*
X130253643Y-111921285D01*
X130295463Y-111924327D01*
X130342394Y-111908970D01*
X130386507Y-111882687D01*
X130400420Y-111856446D01*
X130399781Y-111854213D01*
X130406056Y-111821471D01*
X130430427Y-111790458D01*
X130464926Y-111751570D01*
X130462171Y-111723306D01*
X130420395Y-111695623D01*
X130413125Y-111692078D01*
X130369269Y-111661326D01*
X130354482Y-111631344D01*
X130369402Y-111611895D01*
X130407833Y-111611286D01*
X130458129Y-111616915D01*
X130531690Y-111620796D01*
X130587000Y-111621869D01*
X130660371Y-111619964D01*
X130703228Y-111611140D01*
X130727246Y-111591933D01*
X130735616Y-111577805D01*
X130757954Y-111551022D01*
X130782189Y-111559674D01*
X130810083Y-111605758D01*
X130843400Y-111691269D01*
X130848175Y-111705250D01*
X130876772Y-111777942D01*
X130907914Y-111839271D01*
X130926409Y-111865825D01*
X130979816Y-111899748D01*
X131043409Y-111906367D01*
X131104640Y-111889249D01*
X131150960Y-111851961D01*
X131169822Y-111798070D01*
X131169833Y-111796624D01*
X131181465Y-111759017D01*
X131191057Y-111749381D01*
X131200753Y-111721160D01*
X131191439Y-111697320D01*
X131180706Y-111673948D01*
X131188947Y-111669615D01*
X131223948Y-111684210D01*
X131249590Y-111696482D01*
X131305942Y-111718851D01*
X131393395Y-111747915D01*
X131501820Y-111780767D01*
X131621085Y-111814502D01*
X131741063Y-111846216D01*
X131851623Y-111873002D01*
X131906990Y-111885042D01*
X132077748Y-111908077D01*
X132219447Y-111900692D01*
X132333007Y-111862355D01*
X132419349Y-111792533D01*
X132479395Y-111690695D01*
X132514065Y-111556307D01*
X132517252Y-111532321D01*
X132529753Y-111426770D01*
X132595918Y-111470680D01*
X132637612Y-111503234D01*
X132654897Y-111537978D01*
X132655610Y-111593040D01*
X132654590Y-111606429D01*
X132655963Y-111680629D01*
X132668791Y-111748943D01*
X132673260Y-111761433D01*
X132720564Y-111833251D01*
X132788897Y-111886215D01*
X132866450Y-111914531D01*
X132941415Y-111912402D01*
X132963708Y-111903964D01*
X133000285Y-111873023D01*
X133011333Y-111844712D01*
X133026088Y-111804112D01*
X133053167Y-111771035D01*
X133082320Y-111731601D01*
X133072877Y-111705138D01*
X133031995Y-111696500D01*
X132997321Y-111682868D01*
X132967664Y-111652166D01*
X132955218Y-111619682D01*
X132960221Y-111606501D01*
X132985897Y-111603793D01*
X133035748Y-111610818D01*
X133049435Y-111613796D01*
X133165944Y-111632062D01*
X133261038Y-111629135D01*
X133328206Y-111605574D01*
X133347800Y-111588126D01*
X133384136Y-111543253D01*
X133419185Y-111596745D01*
X133446316Y-111651130D01*
X133471852Y-111722572D01*
X133478475Y-111746508D01*
X133515821Y-111833719D01*
X133573455Y-111887806D01*
X133647287Y-111905267D01*
X133662746Y-111904163D01*
X133715053Y-111880763D01*
X133763156Y-111832091D01*
X133796658Y-111772578D01*
X133805166Y-111716657D01*
X133803455Y-111708808D01*
X133796959Y-111689795D01*
X133784885Y-111659721D01*
X133765463Y-111614653D01*
X133736921Y-111550662D01*
X133697490Y-111463816D01*
X133645399Y-111350185D01*
X133639169Y-111336666D01*
X133268042Y-111336666D01*
X133172687Y-111336666D01*
X133112610Y-111332570D01*
X133072283Y-111322237D01*
X133064921Y-111316585D01*
X133062360Y-111285611D01*
X133070072Y-111230116D01*
X133076974Y-111199349D01*
X133093060Y-111142135D01*
X133106915Y-111119419D01*
X133124932Y-111124253D01*
X133136872Y-111134261D01*
X133169043Y-111172369D01*
X133207296Y-111229539D01*
X133220174Y-111251497D01*
X133268042Y-111336666D01*
X133639169Y-111336666D01*
X133578877Y-111205838D01*
X133500900Y-111037106D01*
X133452446Y-110939749D01*
X133411330Y-110876692D01*
X133372218Y-110841842D01*
X133329775Y-110829108D01*
X133318379Y-110828666D01*
X133267950Y-110809337D01*
X133201862Y-110751184D01*
X133176081Y-110722885D01*
X133083547Y-110617104D01*
X132968065Y-110654094D01*
X132902688Y-110676545D01*
X132866336Y-110698346D01*
X132847659Y-110731567D01*
X132835304Y-110788280D01*
X132833765Y-110796916D01*
X132807001Y-110944833D01*
X132785352Y-111056201D01*
X132767198Y-111136264D01*
X132750917Y-111190268D01*
X132734889Y-111223456D01*
X132717492Y-111241074D01*
X132697106Y-111248366D01*
X132694093Y-111248837D01*
X132638545Y-111266679D01*
X132585010Y-111296462D01*
X132536102Y-111326840D01*
X132501423Y-111330459D01*
X132470002Y-111303530D01*
X132431573Y-111243471D01*
X132391419Y-111187657D01*
X132329530Y-111116089D01*
X132256364Y-111040498D01*
X132219346Y-111005346D01*
X132147154Y-110943861D01*
X132059109Y-110876275D01*
X131962755Y-110807545D01*
X131865634Y-110742627D01*
X131775293Y-110686478D01*
X131699273Y-110644056D01*
X131645120Y-110620316D01*
X131628309Y-110617000D01*
X131586840Y-110629137D01*
G37*
X131586840Y-110629137D02*
X131532653Y-110659348D01*
X131478736Y-110698333D01*
X131438077Y-110736791D01*
X131423544Y-110763634D01*
X131417888Y-110811498D01*
X131411129Y-110842106D01*
X131410119Y-110864528D01*
X131423890Y-110887044D01*
X131458350Y-110914437D01*
X131519409Y-110951489D01*
X131603736Y-110997992D01*
X131826540Y-111134433D01*
X132010904Y-111282529D01*
X132155088Y-111438690D01*
X132249635Y-111558916D01*
X132127776Y-111569500D01*
X132060260Y-111573182D01*
X132011645Y-111571761D01*
X131995333Y-111567328D01*
X131969894Y-111557429D01*
X131916661Y-111546262D01*
X131878916Y-111540531D01*
X131793658Y-111525980D01*
X131707837Y-111506483D01*
X131683730Y-111499774D01*
X131594376Y-111473059D01*
X131625521Y-111413026D01*
X131647580Y-111362356D01*
X131656666Y-111325427D01*
X131672230Y-111294498D01*
X131680868Y-111289793D01*
X131694509Y-111269505D01*
X131679181Y-111234747D01*
X131641190Y-111194456D01*
X131587966Y-111158168D01*
X131516347Y-111119599D01*
X131357580Y-111206735D01*
X131277269Y-111253837D01*
X131205966Y-111300997D01*
X131156418Y-111339647D01*
X131148883Y-111347019D01*
X131108953Y-111382982D01*
X131078245Y-111399720D01*
X131076185Y-111399879D01*
X131058646Y-111381557D01*
X131032158Y-111336666D01*
X130660405Y-111336666D01*
X130578184Y-111336666D01*
X130516372Y-111333682D01*
X130469860Y-111326332D01*
X130464589Y-111324627D01*
X130447332Y-111302234D01*
X130448770Y-111252577D01*
X130469318Y-111171467D01*
X130484384Y-111125138D01*
X130501198Y-111114867D01*
X130532761Y-111141515D01*
X130579788Y-111205839D01*
X130618782Y-111267875D01*
X130660405Y-111336666D01*
X131032158Y-111336666D01*
X131029650Y-111332416D01*
X130993808Y-111260798D01*
X130968750Y-111205518D01*
X130904372Y-111064133D01*
X130850040Y-110959497D01*
X130803258Y-110887922D01*
X130761531Y-110845724D01*
X130722362Y-110829217D01*
X130713588Y-110828666D01*
X130655518Y-110810054D01*
X130588861Y-110758193D01*
X130520977Y-110679048D01*
X130510285Y-110663950D01*
X130487541Y-110635861D01*
X130462010Y-110625824D01*
X130419418Y-110631575D01*
X130376013Y-110642656D01*
X130299131Y-110671617D01*
X130250330Y-110715178D01*
X130221404Y-110783507D01*
X130208826Y-110849833D01*
X130197150Y-110920455D01*
X130179849Y-111011831D01*
X130161869Y-111098541D01*
X130141948Y-111180321D01*
X130123992Y-111227864D01*
X130104358Y-111248891D01*
X130089418Y-111252000D01*
X130043830Y-111262752D01*
X129988506Y-111289261D01*
X129937502Y-111322902D01*
X129904872Y-111355052D01*
X129899833Y-111368314D01*
X129914648Y-111397780D01*
X129952087Y-111440459D01*
X129973634Y-111460579D01*
X130018901Y-111504436D01*
X130037939Y-111541759D01*
X130038278Y-111591560D01*
X130035269Y-111616230D01*
X130042283Y-111714551D01*
X130087852Y-111803801D01*
X130168290Y-111877679D01*
X130199070Y-111896120D01*
X130253643Y-111921285D01*
X130295463Y-111924327D01*
X130342394Y-111908970D01*
X130386507Y-111882687D01*
X130400420Y-111856446D01*
X130399781Y-111854213D01*
X130406056Y-111821471D01*
X130430427Y-111790458D01*
X130464926Y-111751570D01*
X130462171Y-111723306D01*
X130420395Y-111695623D01*
X130413125Y-111692078D01*
X130369269Y-111661326D01*
X130354482Y-111631344D01*
X130369402Y-111611895D01*
X130407833Y-111611286D01*
X130458129Y-111616915D01*
X130531690Y-111620796D01*
X130587000Y-111621869D01*
X130660371Y-111619964D01*
X130703228Y-111611140D01*
X130727246Y-111591933D01*
X130735616Y-111577805D01*
X130757954Y-111551022D01*
X130782189Y-111559674D01*
X130810083Y-111605758D01*
X130843400Y-111691269D01*
X130848175Y-111705250D01*
X130876772Y-111777942D01*
X130907914Y-111839271D01*
X130926409Y-111865825D01*
X130979816Y-111899748D01*
X131043409Y-111906367D01*
X131104640Y-111889249D01*
X131150960Y-111851961D01*
X131169822Y-111798070D01*
X131169833Y-111796624D01*
X131181465Y-111759017D01*
X131191057Y-111749381D01*
X131200753Y-111721160D01*
X131191439Y-111697320D01*
X131180706Y-111673948D01*
X131188947Y-111669615D01*
X131223948Y-111684210D01*
X131249590Y-111696482D01*
X131305942Y-111718851D01*
X131393395Y-111747915D01*
X131501820Y-111780767D01*
X131621085Y-111814502D01*
X131741063Y-111846216D01*
X131851623Y-111873002D01*
X131906990Y-111885042D01*
X132077748Y-111908077D01*
X132219447Y-111900692D01*
X132333007Y-111862355D01*
X132419349Y-111792533D01*
X132479395Y-111690695D01*
X132514065Y-111556307D01*
X132517252Y-111532321D01*
X132529753Y-111426770D01*
X132595918Y-111470680D01*
X132637612Y-111503234D01*
X132654897Y-111537978D01*
X132655610Y-111593040D01*
X132654590Y-111606429D01*
X132655963Y-111680629D01*
X132668791Y-111748943D01*
X132673260Y-111761433D01*
X132720564Y-111833251D01*
X132788897Y-111886215D01*
X132866450Y-111914531D01*
X132941415Y-111912402D01*
X132963708Y-111903964D01*
X133000285Y-111873023D01*
X133011333Y-111844712D01*
X133026088Y-111804112D01*
X133053167Y-111771035D01*
X133082320Y-111731601D01*
X133072877Y-111705138D01*
X133031995Y-111696500D01*
X132997321Y-111682868D01*
X132967664Y-111652166D01*
X132955218Y-111619682D01*
X132960221Y-111606501D01*
X132985897Y-111603793D01*
X133035748Y-111610818D01*
X133049435Y-111613796D01*
X133165944Y-111632062D01*
X133261038Y-111629135D01*
X133328206Y-111605574D01*
X133347800Y-111588126D01*
X133384136Y-111543253D01*
X133419185Y-111596745D01*
X133446316Y-111651130D01*
X133471852Y-111722572D01*
X133478475Y-111746508D01*
X133515821Y-111833719D01*
X133573455Y-111887806D01*
X133647287Y-111905267D01*
X133662746Y-111904163D01*
X133715053Y-111880763D01*
X133763156Y-111832091D01*
X133796658Y-111772578D01*
X133805166Y-111716657D01*
X133803455Y-111708808D01*
X133796959Y-111689795D01*
X133784885Y-111659721D01*
X133765463Y-111614653D01*
X133736921Y-111550662D01*
X133697490Y-111463816D01*
X133645399Y-111350185D01*
X133639169Y-111336666D01*
X133268042Y-111336666D01*
X133172687Y-111336666D01*
X133112610Y-111332570D01*
X133072283Y-111322237D01*
X133064921Y-111316585D01*
X133062360Y-111285611D01*
X133070072Y-111230116D01*
X133076974Y-111199349D01*
X133093060Y-111142135D01*
X133106915Y-111119419D01*
X133124932Y-111124253D01*
X133136872Y-111134261D01*
X133169043Y-111172369D01*
X133207296Y-111229539D01*
X133220174Y-111251497D01*
X133268042Y-111336666D01*
X133639169Y-111336666D01*
X133578877Y-111205838D01*
X133500900Y-111037106D01*
X133452446Y-110939749D01*
X133411330Y-110876692D01*
X133372218Y-110841842D01*
X133329775Y-110829108D01*
X133318379Y-110828666D01*
X133267950Y-110809337D01*
X133201862Y-110751184D01*
X133176081Y-110722885D01*
X133083547Y-110617104D01*
X132968065Y-110654094D01*
X132902688Y-110676545D01*
X132866336Y-110698346D01*
X132847659Y-110731567D01*
X132835304Y-110788280D01*
X132833765Y-110796916D01*
X132807001Y-110944833D01*
X132785352Y-111056201D01*
X132767198Y-111136264D01*
X132750917Y-111190268D01*
X132734889Y-111223456D01*
X132717492Y-111241074D01*
X132697106Y-111248366D01*
X132694093Y-111248837D01*
X132638545Y-111266679D01*
X132585010Y-111296462D01*
X132536102Y-111326840D01*
X132501423Y-111330459D01*
X132470002Y-111303530D01*
X132431573Y-111243471D01*
X132391419Y-111187657D01*
X132329530Y-111116089D01*
X132256364Y-111040498D01*
X132219346Y-111005346D01*
X132147154Y-110943861D01*
X132059109Y-110876275D01*
X131962755Y-110807545D01*
X131865634Y-110742627D01*
X131775293Y-110686478D01*
X131699273Y-110644056D01*
X131645120Y-110620316D01*
X131628309Y-110617000D01*
X131586840Y-110629137D01*
G36*
X133919172Y-110608866D02*
G01*
X133875763Y-110637494D01*
X133862901Y-110647874D01*
X133817592Y-110682302D01*
X133784815Y-110700706D01*
X133780133Y-110701666D01*
X133757746Y-110718132D01*
X133727872Y-110758405D01*
X133724045Y-110764723D01*
X133700938Y-110815326D01*
X133699232Y-110865418D01*
X133709714Y-110912890D01*
X133727556Y-110965566D01*
X133744771Y-110995446D01*
X133749572Y-110998000D01*
X133759803Y-111017439D01*
X133772833Y-111069437D01*
X133786479Y-111144514D01*
X133792226Y-111183208D01*
X133832865Y-111394668D01*
X133890785Y-111568975D01*
X133965727Y-111705549D01*
X134057430Y-111803814D01*
X134078481Y-111819315D01*
X134152634Y-111858632D01*
X134219422Y-111865173D01*
X134286730Y-111837228D01*
X134362442Y-111773086D01*
X134381344Y-111753593D01*
X134436181Y-111691480D01*
X134479389Y-111634939D01*
X134501922Y-111595849D01*
X134502257Y-111594843D01*
X134519202Y-111558630D01*
X134531468Y-111548496D01*
X134551625Y-111566270D01*
X134580519Y-111610938D01*
X134611446Y-111669979D01*
X134637701Y-111730870D01*
X134650381Y-111770583D01*
X134681454Y-111840303D01*
X134730516Y-111889881D01*
X134785168Y-111908166D01*
X134830519Y-111893095D01*
X134857670Y-111871125D01*
X134901602Y-111808030D01*
X134941625Y-111728802D01*
X134970181Y-111650533D01*
X134979833Y-111594806D01*
X134970762Y-111558108D01*
X134945270Y-111489657D01*
X134905935Y-111395529D01*
X134855340Y-111281800D01*
X134796064Y-111154546D01*
X134768166Y-111096390D01*
X134707659Y-110970482D01*
X134653895Y-110856922D01*
X134609485Y-110761362D01*
X134577040Y-110689456D01*
X134559170Y-110646856D01*
X134556500Y-110638010D01*
X134544696Y-110619272D01*
X134506765Y-110624648D01*
X134438925Y-110654735D01*
X134433948Y-110657273D01*
X134332960Y-110724828D01*
X134272360Y-110804075D01*
X134251399Y-110896713D01*
X134269329Y-111004436D01*
X134274310Y-111019166D01*
X134286381Y-111071473D01*
X134295022Y-111144115D01*
X134300049Y-111226519D01*
X134301281Y-111308112D01*
X134298533Y-111378323D01*
X134291623Y-111426579D01*
X134281633Y-111442500D01*
X134248377Y-111423284D01*
X134209755Y-111371379D01*
X134169681Y-111295401D01*
X134132072Y-111203963D01*
X134100845Y-111105680D01*
X134079915Y-111009166D01*
X134077708Y-110993900D01*
X134064198Y-110921874D01*
X134042674Y-110838435D01*
X134016642Y-110754090D01*
X133989609Y-110679343D01*
X133965083Y-110624699D01*
X133946572Y-110600665D01*
X133946403Y-110600606D01*
X133919172Y-110608866D01*
G37*
X133919172Y-110608866D02*
X133875763Y-110637494D01*
X133862901Y-110647874D01*
X133817592Y-110682302D01*
X133784815Y-110700706D01*
X133780133Y-110701666D01*
X133757746Y-110718132D01*
X133727872Y-110758405D01*
X133724045Y-110764723D01*
X133700938Y-110815326D01*
X133699232Y-110865418D01*
X133709714Y-110912890D01*
X133727556Y-110965566D01*
X133744771Y-110995446D01*
X133749572Y-110998000D01*
X133759803Y-111017439D01*
X133772833Y-111069437D01*
X133786479Y-111144514D01*
X133792226Y-111183208D01*
X133832865Y-111394668D01*
X133890785Y-111568975D01*
X133965727Y-111705549D01*
X134057430Y-111803814D01*
X134078481Y-111819315D01*
X134152634Y-111858632D01*
X134219422Y-111865173D01*
X134286730Y-111837228D01*
X134362442Y-111773086D01*
X134381344Y-111753593D01*
X134436181Y-111691480D01*
X134479389Y-111634939D01*
X134501922Y-111595849D01*
X134502257Y-111594843D01*
X134519202Y-111558630D01*
X134531468Y-111548496D01*
X134551625Y-111566270D01*
X134580519Y-111610938D01*
X134611446Y-111669979D01*
X134637701Y-111730870D01*
X134650381Y-111770583D01*
X134681454Y-111840303D01*
X134730516Y-111889881D01*
X134785168Y-111908166D01*
X134830519Y-111893095D01*
X134857670Y-111871125D01*
X134901602Y-111808030D01*
X134941625Y-111728802D01*
X134970181Y-111650533D01*
X134979833Y-111594806D01*
X134970762Y-111558108D01*
X134945270Y-111489657D01*
X134905935Y-111395529D01*
X134855340Y-111281800D01*
X134796064Y-111154546D01*
X134768166Y-111096390D01*
X134707659Y-110970482D01*
X134653895Y-110856922D01*
X134609485Y-110761362D01*
X134577040Y-110689456D01*
X134559170Y-110646856D01*
X134556500Y-110638010D01*
X134544696Y-110619272D01*
X134506765Y-110624648D01*
X134438925Y-110654735D01*
X134433948Y-110657273D01*
X134332960Y-110724828D01*
X134272360Y-110804075D01*
X134251399Y-110896713D01*
X134269329Y-111004436D01*
X134274310Y-111019166D01*
X134286381Y-111071473D01*
X134295022Y-111144115D01*
X134300049Y-111226519D01*
X134301281Y-111308112D01*
X134298533Y-111378323D01*
X134291623Y-111426579D01*
X134281633Y-111442500D01*
X134248377Y-111423284D01*
X134209755Y-111371379D01*
X134169681Y-111295401D01*
X134132072Y-111203963D01*
X134100845Y-111105680D01*
X134079915Y-111009166D01*
X134077708Y-110993900D01*
X134064198Y-110921874D01*
X134042674Y-110838435D01*
X134016642Y-110754090D01*
X133989609Y-110679343D01*
X133965083Y-110624699D01*
X133946572Y-110600665D01*
X133946403Y-110600606D01*
X133919172Y-110608866D01*
D10*
G36*
X143674312Y-110000327D02*
G01*
X143823612Y-110030024D01*
X143987584Y-110097944D01*
X144135154Y-110196547D01*
X144260653Y-110322046D01*
X144359256Y-110469616D01*
X144427176Y-110633588D01*
X144461800Y-110807659D01*
X144461800Y-110985141D01*
X144427176Y-111159212D01*
X144359256Y-111323184D01*
X144260653Y-111470754D01*
X144135154Y-111596253D01*
X143987584Y-111694856D01*
X143823612Y-111762776D01*
X143674312Y-111792473D01*
X143649542Y-111797400D01*
X143472058Y-111797400D01*
X143447288Y-111792473D01*
X143297988Y-111762776D01*
X143134016Y-111694856D01*
X142986446Y-111596253D01*
X142860947Y-111470754D01*
X142762344Y-111323184D01*
X142694424Y-111159212D01*
X142659800Y-110985141D01*
X142659800Y-110807659D01*
X142694424Y-110633588D01*
X142762344Y-110469616D01*
X142860947Y-110322046D01*
X142986446Y-110196547D01*
X143134016Y-110097944D01*
X143297988Y-110030024D01*
X143447288Y-110000327D01*
X143472058Y-109995400D01*
X143649542Y-109995400D01*
X143674312Y-110000327D01*
G37*
G36*
X146214312Y-110000327D02*
G01*
X146363612Y-110030024D01*
X146527584Y-110097944D01*
X146675154Y-110196547D01*
X146800653Y-110322046D01*
X146899256Y-110469616D01*
X146967176Y-110633588D01*
X147001800Y-110807659D01*
X147001800Y-110985141D01*
X146967176Y-111159212D01*
X146899256Y-111323184D01*
X146800653Y-111470754D01*
X146675154Y-111596253D01*
X146527584Y-111694856D01*
X146363612Y-111762776D01*
X146214312Y-111792473D01*
X146189542Y-111797400D01*
X146012058Y-111797400D01*
X145987288Y-111792473D01*
X145837988Y-111762776D01*
X145674016Y-111694856D01*
X145526446Y-111596253D01*
X145400947Y-111470754D01*
X145302344Y-111323184D01*
X145234424Y-111159212D01*
X145199800Y-110985141D01*
X145199800Y-110807659D01*
X145234424Y-110633588D01*
X145302344Y-110469616D01*
X145400947Y-110322046D01*
X145526446Y-110196547D01*
X145674016Y-110097944D01*
X145837988Y-110030024D01*
X145987288Y-110000327D01*
X146012058Y-109995400D01*
X146189542Y-109995400D01*
X146214312Y-110000327D01*
G37*
G36*
X151294312Y-110000327D02*
G01*
X151443612Y-110030024D01*
X151607584Y-110097944D01*
X151755154Y-110196547D01*
X151880653Y-110322046D01*
X151979256Y-110469616D01*
X152047176Y-110633588D01*
X152081800Y-110807659D01*
X152081800Y-110985141D01*
X152047176Y-111159212D01*
X151979256Y-111323184D01*
X151880653Y-111470754D01*
X151755154Y-111596253D01*
X151607584Y-111694856D01*
X151443612Y-111762776D01*
X151294312Y-111792473D01*
X151269542Y-111797400D01*
X151092058Y-111797400D01*
X151067288Y-111792473D01*
X150917988Y-111762776D01*
X150754016Y-111694856D01*
X150606446Y-111596253D01*
X150480947Y-111470754D01*
X150382344Y-111323184D01*
X150314424Y-111159212D01*
X150279800Y-110985141D01*
X150279800Y-110807659D01*
X150314424Y-110633588D01*
X150382344Y-110469616D01*
X150480947Y-110322046D01*
X150606446Y-110196547D01*
X150754016Y-110097944D01*
X150917988Y-110030024D01*
X151067288Y-110000327D01*
X151092058Y-109995400D01*
X151269542Y-109995400D01*
X151294312Y-110000327D01*
G37*
G36*
X148754312Y-110000327D02*
G01*
X148903612Y-110030024D01*
X149067584Y-110097944D01*
X149215154Y-110196547D01*
X149340653Y-110322046D01*
X149439256Y-110469616D01*
X149507176Y-110633588D01*
X149541800Y-110807659D01*
X149541800Y-110985141D01*
X149507176Y-111159212D01*
X149439256Y-111323184D01*
X149340653Y-111470754D01*
X149215154Y-111596253D01*
X149067584Y-111694856D01*
X148903612Y-111762776D01*
X148754312Y-111792473D01*
X148729542Y-111797400D01*
X148552058Y-111797400D01*
X148527288Y-111792473D01*
X148377988Y-111762776D01*
X148214016Y-111694856D01*
X148066446Y-111596253D01*
X147940947Y-111470754D01*
X147842344Y-111323184D01*
X147774424Y-111159212D01*
X147739800Y-110985141D01*
X147739800Y-110807659D01*
X147774424Y-110633588D01*
X147842344Y-110469616D01*
X147940947Y-110322046D01*
X148066446Y-110196547D01*
X148214016Y-110097944D01*
X148377988Y-110030024D01*
X148527288Y-110000327D01*
X148552058Y-109995400D01*
X148729542Y-109995400D01*
X148754312Y-110000327D01*
G37*
G36*
X152108671Y-106551707D02*
G01*
X150206671Y-106551707D01*
X150206671Y-104649707D01*
X152108671Y-104649707D01*
X152108671Y-106551707D01*
G37*
G36*
X129248671Y-106551707D02*
G01*
X127346671Y-106551707D01*
X127346671Y-104649707D01*
X129248671Y-104649707D01*
X129248671Y-106551707D01*
G37*
G36*
X128575066Y-102146253D02*
G01*
X128748137Y-102217941D01*
X128748138Y-102217942D01*
X128903898Y-102322017D01*
X129036361Y-102454480D01*
X129036362Y-102454482D01*
X129140437Y-102610241D01*
X129212125Y-102783312D01*
X129248671Y-102967040D01*
X129248671Y-103154374D01*
X129212125Y-103338102D01*
X129140437Y-103511173D01*
X129140436Y-103511174D01*
X129036361Y-103666934D01*
X128903898Y-103799397D01*
X128825489Y-103851788D01*
X128748137Y-103903473D01*
X128575066Y-103975161D01*
X128391338Y-104011707D01*
X128204004Y-104011707D01*
X128020276Y-103975161D01*
X127847205Y-103903473D01*
X127769853Y-103851788D01*
X127691444Y-103799397D01*
X127558981Y-103666934D01*
X127454906Y-103511174D01*
X127454905Y-103511173D01*
X127383217Y-103338102D01*
X127346671Y-103154374D01*
X127346671Y-102967040D01*
X127383217Y-102783312D01*
X127454905Y-102610241D01*
X127558980Y-102454482D01*
X127558981Y-102454480D01*
X127691444Y-102322017D01*
X127847204Y-102217942D01*
X127847205Y-102217941D01*
X128020276Y-102146253D01*
X128204004Y-102109707D01*
X128391338Y-102109707D01*
X128575066Y-102146253D01*
G37*
G36*
X151435066Y-102146253D02*
G01*
X151608137Y-102217941D01*
X151608138Y-102217942D01*
X151763898Y-102322017D01*
X151896361Y-102454480D01*
X151896362Y-102454482D01*
X152000437Y-102610241D01*
X152072125Y-102783312D01*
X152108671Y-102967040D01*
X152108671Y-103154374D01*
X152072125Y-103338102D01*
X152000437Y-103511173D01*
X152000436Y-103511174D01*
X151896361Y-103666934D01*
X151763898Y-103799397D01*
X151685489Y-103851788D01*
X151608137Y-103903473D01*
X151435066Y-103975161D01*
X151251338Y-104011707D01*
X151064004Y-104011707D01*
X150880276Y-103975161D01*
X150707205Y-103903473D01*
X150629853Y-103851788D01*
X150551444Y-103799397D01*
X150418981Y-103666934D01*
X150314906Y-103511174D01*
X150314905Y-103511173D01*
X150243217Y-103338102D01*
X150206671Y-103154374D01*
X150206671Y-102967040D01*
X150243217Y-102783312D01*
X150314905Y-102610241D01*
X150418980Y-102454482D01*
X150418981Y-102454480D01*
X150551444Y-102322017D01*
X150707204Y-102217942D01*
X150707205Y-102217941D01*
X150880276Y-102146253D01*
X151064004Y-102109707D01*
X151251338Y-102109707D01*
X151435066Y-102146253D01*
G37*
G36*
X151435066Y-99606253D02*
G01*
X151608137Y-99677941D01*
X151608138Y-99677942D01*
X151763898Y-99782017D01*
X151896361Y-99914480D01*
X151896362Y-99914482D01*
X152000437Y-100070241D01*
X152072125Y-100243312D01*
X152108671Y-100427040D01*
X152108671Y-100614374D01*
X152072125Y-100798102D01*
X152000437Y-100971173D01*
X152000436Y-100971174D01*
X151896361Y-101126934D01*
X151763898Y-101259397D01*
X151685489Y-101311788D01*
X151608137Y-101363473D01*
X151435066Y-101435161D01*
X151251338Y-101471707D01*
X151064004Y-101471707D01*
X150880276Y-101435161D01*
X150707205Y-101363473D01*
X150629853Y-101311788D01*
X150551444Y-101259397D01*
X150418981Y-101126934D01*
X150314906Y-100971174D01*
X150314905Y-100971173D01*
X150243217Y-100798102D01*
X150206671Y-100614374D01*
X150206671Y-100427040D01*
X150243217Y-100243312D01*
X150314905Y-100070241D01*
X150418980Y-99914482D01*
X150418981Y-99914480D01*
X150551444Y-99782017D01*
X150707204Y-99677942D01*
X150707205Y-99677941D01*
X150880276Y-99606253D01*
X151064004Y-99569707D01*
X151251338Y-99569707D01*
X151435066Y-99606253D01*
G37*
G36*
X128575066Y-99606253D02*
G01*
X128748137Y-99677941D01*
X128748138Y-99677942D01*
X128903898Y-99782017D01*
X129036361Y-99914480D01*
X129036362Y-99914482D01*
X129140437Y-100070241D01*
X129212125Y-100243312D01*
X129248671Y-100427040D01*
X129248671Y-100614374D01*
X129212125Y-100798102D01*
X129140437Y-100971173D01*
X129140436Y-100971174D01*
X129036361Y-101126934D01*
X128903898Y-101259397D01*
X128825489Y-101311788D01*
X128748137Y-101363473D01*
X128575066Y-101435161D01*
X128391338Y-101471707D01*
X128204004Y-101471707D01*
X128020276Y-101435161D01*
X127847205Y-101363473D01*
X127769853Y-101311788D01*
X127691444Y-101259397D01*
X127558981Y-101126934D01*
X127454906Y-100971174D01*
X127454905Y-100971173D01*
X127383217Y-100798102D01*
X127346671Y-100614374D01*
X127346671Y-100427040D01*
X127383217Y-100243312D01*
X127454905Y-100070241D01*
X127558980Y-99914482D01*
X127558981Y-99914480D01*
X127691444Y-99782017D01*
X127847204Y-99677942D01*
X127847205Y-99677941D01*
X128020276Y-99606253D01*
X128204004Y-99569707D01*
X128391338Y-99569707D01*
X128575066Y-99606253D01*
G37*
G36*
X151435066Y-97066253D02*
G01*
X151608137Y-97137941D01*
X151608138Y-97137942D01*
X151763898Y-97242017D01*
X151896361Y-97374480D01*
X151896362Y-97374482D01*
X152000437Y-97530241D01*
X152072125Y-97703312D01*
X152108671Y-97887040D01*
X152108671Y-98074374D01*
X152072125Y-98258102D01*
X152000437Y-98431173D01*
X152000436Y-98431174D01*
X151896361Y-98586934D01*
X151763898Y-98719397D01*
X151685489Y-98771788D01*
X151608137Y-98823473D01*
X151435066Y-98895161D01*
X151251338Y-98931707D01*
X151064004Y-98931707D01*
X150880276Y-98895161D01*
X150707205Y-98823473D01*
X150629853Y-98771788D01*
X150551444Y-98719397D01*
X150418981Y-98586934D01*
X150314906Y-98431174D01*
X150314905Y-98431173D01*
X150243217Y-98258102D01*
X150206671Y-98074374D01*
X150206671Y-97887040D01*
X150243217Y-97703312D01*
X150314905Y-97530241D01*
X150418980Y-97374482D01*
X150418981Y-97374480D01*
X150551444Y-97242017D01*
X150707204Y-97137942D01*
X150707205Y-97137941D01*
X150880276Y-97066253D01*
X151064004Y-97029707D01*
X151251338Y-97029707D01*
X151435066Y-97066253D01*
G37*
G36*
X128575066Y-97066253D02*
G01*
X128748137Y-97137941D01*
X128748138Y-97137942D01*
X128903898Y-97242017D01*
X129036361Y-97374480D01*
X129036362Y-97374482D01*
X129140437Y-97530241D01*
X129212125Y-97703312D01*
X129248671Y-97887040D01*
X129248671Y-98074374D01*
X129212125Y-98258102D01*
X129140437Y-98431173D01*
X129140436Y-98431174D01*
X129036361Y-98586934D01*
X128903898Y-98719397D01*
X128825489Y-98771788D01*
X128748137Y-98823473D01*
X128575066Y-98895161D01*
X128391338Y-98931707D01*
X128204004Y-98931707D01*
X128020276Y-98895161D01*
X127847205Y-98823473D01*
X127769853Y-98771788D01*
X127691444Y-98719397D01*
X127558981Y-98586934D01*
X127454906Y-98431174D01*
X127454905Y-98431173D01*
X127383217Y-98258102D01*
X127346671Y-98074374D01*
X127346671Y-97887040D01*
X127383217Y-97703312D01*
X127454905Y-97530241D01*
X127558980Y-97374482D01*
X127558981Y-97374480D01*
X127691444Y-97242017D01*
X127847204Y-97137942D01*
X127847205Y-97137941D01*
X128020276Y-97066253D01*
X128204004Y-97029707D01*
X128391338Y-97029707D01*
X128575066Y-97066253D01*
G37*
G36*
X128575066Y-94526253D02*
G01*
X128748137Y-94597941D01*
X128748138Y-94597942D01*
X128903898Y-94702017D01*
X129036361Y-94834480D01*
X129036362Y-94834482D01*
X129140437Y-94990241D01*
X129212125Y-95163312D01*
X129248671Y-95347040D01*
X129248671Y-95534374D01*
X129212125Y-95718102D01*
X129140437Y-95891173D01*
X129140436Y-95891174D01*
X129036361Y-96046934D01*
X128903898Y-96179397D01*
X128825489Y-96231788D01*
X128748137Y-96283473D01*
X128575066Y-96355161D01*
X128391338Y-96391707D01*
X128204004Y-96391707D01*
X128020276Y-96355161D01*
X127847205Y-96283473D01*
X127769853Y-96231788D01*
X127691444Y-96179397D01*
X127558981Y-96046934D01*
X127454906Y-95891174D01*
X127454905Y-95891173D01*
X127383217Y-95718102D01*
X127346671Y-95534374D01*
X127346671Y-95347040D01*
X127383217Y-95163312D01*
X127454905Y-94990241D01*
X127558980Y-94834482D01*
X127558981Y-94834480D01*
X127691444Y-94702017D01*
X127847204Y-94597942D01*
X127847205Y-94597941D01*
X128020276Y-94526253D01*
X128204004Y-94489707D01*
X128391338Y-94489707D01*
X128575066Y-94526253D01*
G37*
G36*
X151435066Y-94526253D02*
G01*
X151608137Y-94597941D01*
X151608138Y-94597942D01*
X151763898Y-94702017D01*
X151896361Y-94834480D01*
X151896362Y-94834482D01*
X152000437Y-94990241D01*
X152072125Y-95163312D01*
X152108671Y-95347040D01*
X152108671Y-95534374D01*
X152072125Y-95718102D01*
X152000437Y-95891173D01*
X152000436Y-95891174D01*
X151896361Y-96046934D01*
X151763898Y-96179397D01*
X151685489Y-96231788D01*
X151608137Y-96283473D01*
X151435066Y-96355161D01*
X151251338Y-96391707D01*
X151064004Y-96391707D01*
X150880276Y-96355161D01*
X150707205Y-96283473D01*
X150629853Y-96231788D01*
X150551444Y-96179397D01*
X150418981Y-96046934D01*
X150314906Y-95891174D01*
X150314905Y-95891173D01*
X150243217Y-95718102D01*
X150206671Y-95534374D01*
X150206671Y-95347040D01*
X150243217Y-95163312D01*
X150314905Y-94990241D01*
X150418980Y-94834482D01*
X150418981Y-94834480D01*
X150551444Y-94702017D01*
X150707204Y-94597942D01*
X150707205Y-94597941D01*
X150880276Y-94526253D01*
X151064004Y-94489707D01*
X151251338Y-94489707D01*
X151435066Y-94526253D01*
G37*
G36*
X128575066Y-91986253D02*
G01*
X128748137Y-92057941D01*
X128748138Y-92057942D01*
X128903898Y-92162017D01*
X129036361Y-92294480D01*
X129036362Y-92294482D01*
X129140437Y-92450241D01*
X129212125Y-92623312D01*
X129248671Y-92807040D01*
X129248671Y-92994374D01*
X129212125Y-93178102D01*
X129140437Y-93351173D01*
X129140436Y-93351174D01*
X129036361Y-93506934D01*
X128903898Y-93639397D01*
X128825489Y-93691788D01*
X128748137Y-93743473D01*
X128575066Y-93815161D01*
X128391338Y-93851707D01*
X128204004Y-93851707D01*
X128020276Y-93815161D01*
X127847205Y-93743473D01*
X127769853Y-93691788D01*
X127691444Y-93639397D01*
X127558981Y-93506934D01*
X127454906Y-93351174D01*
X127454905Y-93351173D01*
X127383217Y-93178102D01*
X127346671Y-92994374D01*
X127346671Y-92807040D01*
X127383217Y-92623312D01*
X127454905Y-92450241D01*
X127558980Y-92294482D01*
X127558981Y-92294480D01*
X127691444Y-92162017D01*
X127847204Y-92057942D01*
X127847205Y-92057941D01*
X128020276Y-91986253D01*
X128204004Y-91949707D01*
X128391338Y-91949707D01*
X128575066Y-91986253D01*
G37*
G36*
X151435066Y-91986253D02*
G01*
X151608137Y-92057941D01*
X151608138Y-92057942D01*
X151763898Y-92162017D01*
X151896361Y-92294480D01*
X151896362Y-92294482D01*
X152000437Y-92450241D01*
X152072125Y-92623312D01*
X152108671Y-92807040D01*
X152108671Y-92994374D01*
X152072125Y-93178102D01*
X152000437Y-93351173D01*
X152000436Y-93351174D01*
X151896361Y-93506934D01*
X151763898Y-93639397D01*
X151685489Y-93691788D01*
X151608137Y-93743473D01*
X151435066Y-93815161D01*
X151251338Y-93851707D01*
X151064004Y-93851707D01*
X150880276Y-93815161D01*
X150707205Y-93743473D01*
X150629853Y-93691788D01*
X150551444Y-93639397D01*
X150418981Y-93506934D01*
X150314906Y-93351174D01*
X150314905Y-93351173D01*
X150243217Y-93178102D01*
X150206671Y-92994374D01*
X150206671Y-92807040D01*
X150243217Y-92623312D01*
X150314905Y-92450241D01*
X150418980Y-92294482D01*
X150418981Y-92294480D01*
X150551444Y-92162017D01*
X150707204Y-92057942D01*
X150707205Y-92057941D01*
X150880276Y-91986253D01*
X151064004Y-91949707D01*
X151251338Y-91949707D01*
X151435066Y-91986253D01*
G37*
G36*
X128575066Y-89446253D02*
G01*
X128748137Y-89517941D01*
X128748138Y-89517942D01*
X128903898Y-89622017D01*
X129036361Y-89754480D01*
X129036362Y-89754482D01*
X129140437Y-89910241D01*
X129212125Y-90083312D01*
X129248671Y-90267040D01*
X129248671Y-90454374D01*
X129212125Y-90638102D01*
X129140437Y-90811173D01*
X129140436Y-90811174D01*
X129036361Y-90966934D01*
X128903898Y-91099397D01*
X128825489Y-91151788D01*
X128748137Y-91203473D01*
X128575066Y-91275161D01*
X128391338Y-91311707D01*
X128204004Y-91311707D01*
X128020276Y-91275161D01*
X127847205Y-91203473D01*
X127769853Y-91151788D01*
X127691444Y-91099397D01*
X127558981Y-90966934D01*
X127454906Y-90811174D01*
X127454905Y-90811173D01*
X127383217Y-90638102D01*
X127346671Y-90454374D01*
X127346671Y-90267040D01*
X127383217Y-90083312D01*
X127454905Y-89910241D01*
X127558980Y-89754482D01*
X127558981Y-89754480D01*
X127691444Y-89622017D01*
X127847204Y-89517942D01*
X127847205Y-89517941D01*
X128020276Y-89446253D01*
X128204004Y-89409707D01*
X128391338Y-89409707D01*
X128575066Y-89446253D01*
G37*
G36*
X151435066Y-89446253D02*
G01*
X151608137Y-89517941D01*
X151608138Y-89517942D01*
X151763898Y-89622017D01*
X151896361Y-89754480D01*
X151896362Y-89754482D01*
X152000437Y-89910241D01*
X152072125Y-90083312D01*
X152108671Y-90267040D01*
X152108671Y-90454374D01*
X152072125Y-90638102D01*
X152000437Y-90811173D01*
X152000436Y-90811174D01*
X151896361Y-90966934D01*
X151763898Y-91099397D01*
X151685489Y-91151788D01*
X151608137Y-91203473D01*
X151435066Y-91275161D01*
X151251338Y-91311707D01*
X151064004Y-91311707D01*
X150880276Y-91275161D01*
X150707205Y-91203473D01*
X150629853Y-91151788D01*
X150551444Y-91099397D01*
X150418981Y-90966934D01*
X150314906Y-90811174D01*
X150314905Y-90811173D01*
X150243217Y-90638102D01*
X150206671Y-90454374D01*
X150206671Y-90267040D01*
X150243217Y-90083312D01*
X150314905Y-89910241D01*
X150418980Y-89754482D01*
X150418981Y-89754480D01*
X150551444Y-89622017D01*
X150707204Y-89517942D01*
X150707205Y-89517941D01*
X150880276Y-89446253D01*
X151064004Y-89409707D01*
X151251338Y-89409707D01*
X151435066Y-89446253D01*
G37*
G36*
X128575066Y-86906253D02*
G01*
X128748137Y-86977941D01*
X128748138Y-86977942D01*
X128903898Y-87082017D01*
X129036361Y-87214480D01*
X129036362Y-87214482D01*
X129140437Y-87370241D01*
X129212125Y-87543312D01*
X129248671Y-87727040D01*
X129248671Y-87914374D01*
X129212125Y-88098102D01*
X129140437Y-88271173D01*
X129140436Y-88271174D01*
X129036361Y-88426934D01*
X128903898Y-88559397D01*
X128825489Y-88611788D01*
X128748137Y-88663473D01*
X128575066Y-88735161D01*
X128391338Y-88771707D01*
X128204004Y-88771707D01*
X128020276Y-88735161D01*
X127847205Y-88663473D01*
X127769853Y-88611788D01*
X127691444Y-88559397D01*
X127558981Y-88426934D01*
X127454906Y-88271174D01*
X127454905Y-88271173D01*
X127383217Y-88098102D01*
X127346671Y-87914374D01*
X127346671Y-87727040D01*
X127383217Y-87543312D01*
X127454905Y-87370241D01*
X127558980Y-87214482D01*
X127558981Y-87214480D01*
X127691444Y-87082017D01*
X127847204Y-86977942D01*
X127847205Y-86977941D01*
X128020276Y-86906253D01*
X128204004Y-86869707D01*
X128391338Y-86869707D01*
X128575066Y-86906253D01*
G37*
G36*
X151435066Y-86906253D02*
G01*
X151608137Y-86977941D01*
X151608138Y-86977942D01*
X151763898Y-87082017D01*
X151896361Y-87214480D01*
X151896362Y-87214482D01*
X152000437Y-87370241D01*
X152072125Y-87543312D01*
X152108671Y-87727040D01*
X152108671Y-87914374D01*
X152072125Y-88098102D01*
X152000437Y-88271173D01*
X152000436Y-88271174D01*
X151896361Y-88426934D01*
X151763898Y-88559397D01*
X151685489Y-88611788D01*
X151608137Y-88663473D01*
X151435066Y-88735161D01*
X151251338Y-88771707D01*
X151064004Y-88771707D01*
X150880276Y-88735161D01*
X150707205Y-88663473D01*
X150629853Y-88611788D01*
X150551444Y-88559397D01*
X150418981Y-88426934D01*
X150314906Y-88271174D01*
X150314905Y-88271173D01*
X150243217Y-88098102D01*
X150206671Y-87914374D01*
X150206671Y-87727040D01*
X150243217Y-87543312D01*
X150314905Y-87370241D01*
X150418980Y-87214482D01*
X150418981Y-87214480D01*
X150551444Y-87082017D01*
X150707204Y-86977942D01*
X150707205Y-86977941D01*
X150880276Y-86906253D01*
X151064004Y-86869707D01*
X151251338Y-86869707D01*
X151435066Y-86906253D01*
G37*
G36*
X145782512Y-83939927D02*
G01*
X145931812Y-83969624D01*
X146095784Y-84037544D01*
X146243354Y-84136147D01*
X146368853Y-84261646D01*
X146467456Y-84409216D01*
X146535376Y-84573188D01*
X146570000Y-84747259D01*
X146570000Y-84924741D01*
X146535376Y-85098812D01*
X146467456Y-85262784D01*
X146368853Y-85410354D01*
X146243354Y-85535853D01*
X146095784Y-85634456D01*
X145931812Y-85702376D01*
X145782512Y-85732073D01*
X145757742Y-85737000D01*
X145580258Y-85737000D01*
X145555488Y-85732073D01*
X145406188Y-85702376D01*
X145242216Y-85634456D01*
X145094646Y-85535853D01*
X144969147Y-85410354D01*
X144870544Y-85262784D01*
X144802624Y-85098812D01*
X144768000Y-84924741D01*
X144768000Y-84747259D01*
X144802624Y-84573188D01*
X144870544Y-84409216D01*
X144969147Y-84261646D01*
X145094646Y-84136147D01*
X145242216Y-84037544D01*
X145406188Y-83969624D01*
X145555488Y-83939927D01*
X145580258Y-83935000D01*
X145757742Y-83935000D01*
X145782512Y-83939927D01*
G37*
G36*
X143942000Y-84531400D02*
G01*
X142316000Y-84531400D01*
X142316000Y-80365400D01*
X143942000Y-80365400D01*
X143942000Y-84531400D01*
G37*
G36*
X149022000Y-84531400D02*
G01*
X147396000Y-84531400D01*
X147396000Y-80365400D01*
X149022000Y-80365400D01*
X149022000Y-84531400D01*
G37*
M02*
