G04 #@! TF.GenerationSoftware,KiCad,Pcbnew,6.0.0-rc1-unknown-0769b04~66~ubuntu16.04.1*
G04 #@! TF.CreationDate,2018-12-11T15:13:33-07:00
G04 #@! TF.ProjectId,ws2812b_reverse,77733238-3132-4625-9f72-657665727365,rev?*
G04 #@! TF.SameCoordinates,Original*
G04 #@! TF.FileFunction,Legend,Bot*
G04 #@! TF.FilePolarity,Positive*
%FSLAX46Y46*%
G04 Gerber Fmt 4.6, Leading zero omitted, Abs format (unit mm)*
G04 Created by KiCad (PCBNEW 6.0.0-rc1-unknown-0769b04~66~ubuntu16.04.1) date Tue 11 Dec 2018 03:13:33 PM MST*
%MOMM*%
%LPD*%
G04 APERTURE LIST*
%ADD10C,0.200000*%
%ADD11C,0.120000*%
%ADD12C,0.150000*%
G04 APERTURE END LIST*
D10*
X141551780Y-104631066D02*
X140535780Y-104292400D01*
X141551780Y-103953733D01*
X140632542Y-103034495D02*
X140584161Y-103082876D01*
X140535780Y-103228019D01*
X140535780Y-103324780D01*
X140584161Y-103469923D01*
X140680923Y-103566685D01*
X140777685Y-103615066D01*
X140971209Y-103663447D01*
X141116352Y-103663447D01*
X141309876Y-103615066D01*
X141406638Y-103566685D01*
X141503400Y-103469923D01*
X141551780Y-103324780D01*
X141551780Y-103228019D01*
X141503400Y-103082876D01*
X141455019Y-103034495D01*
X140632542Y-102018495D02*
X140584161Y-102066876D01*
X140535780Y-102212019D01*
X140535780Y-102308780D01*
X140584161Y-102453923D01*
X140680923Y-102550685D01*
X140777685Y-102599066D01*
X140971209Y-102647447D01*
X141116352Y-102647447D01*
X141309876Y-102599066D01*
X141406638Y-102550685D01*
X141503400Y-102453923D01*
X141551780Y-102308780D01*
X141551780Y-102212019D01*
X141503400Y-102066876D01*
X141455019Y-102018495D01*
X146784180Y-103376790D02*
X147800180Y-103376790D01*
X146784180Y-102892980D02*
X147800180Y-102892980D01*
X146784180Y-102312409D01*
X147800180Y-102312409D01*
X141399380Y-112242600D02*
X141399380Y-112049076D01*
X141351000Y-111952314D01*
X141254238Y-111855552D01*
X141060714Y-111807171D01*
X140722047Y-111807171D01*
X140528523Y-111855552D01*
X140431761Y-111952314D01*
X140383380Y-112049076D01*
X140383380Y-112242600D01*
X140431761Y-112339361D01*
X140528523Y-112436123D01*
X140722047Y-112484504D01*
X141060714Y-112484504D01*
X141254238Y-112436123D01*
X141351000Y-112339361D01*
X141399380Y-112242600D01*
X141399380Y-111371742D02*
X140576904Y-111371742D01*
X140480142Y-111323361D01*
X140431761Y-111274980D01*
X140383380Y-111178219D01*
X140383380Y-110984695D01*
X140431761Y-110887933D01*
X140480142Y-110839552D01*
X140576904Y-110791171D01*
X141399380Y-110791171D01*
X141399380Y-110452504D02*
X141399380Y-109871933D01*
X140383380Y-110162219D02*
X141399380Y-110162219D01*
X147802600Y-112026095D02*
X147850980Y-112122857D01*
X147850980Y-112268000D01*
X147802600Y-112413142D01*
X147705838Y-112509904D01*
X147609076Y-112558285D01*
X147415552Y-112606666D01*
X147270409Y-112606666D01*
X147076885Y-112558285D01*
X146980123Y-112509904D01*
X146883361Y-112413142D01*
X146834980Y-112268000D01*
X146834980Y-112171238D01*
X146883361Y-112026095D01*
X146931742Y-111977714D01*
X147270409Y-111977714D01*
X147270409Y-112171238D01*
X146834980Y-111542285D02*
X147850980Y-111542285D01*
X146834980Y-110961714D01*
X147850980Y-110961714D01*
X146834980Y-110477904D02*
X147850980Y-110477904D01*
X147850980Y-110236000D01*
X147802600Y-110090857D01*
X147705838Y-109994095D01*
X147609076Y-109945714D01*
X147415552Y-109897333D01*
X147270409Y-109897333D01*
X147076885Y-109945714D01*
X146980123Y-109994095D01*
X146883361Y-110090857D01*
X146834980Y-110236000D01*
X146834980Y-110477904D01*
D11*
X144280000Y-108225000D02*
X145280000Y-108225000D01*
X144280000Y-106405000D02*
X145280000Y-106405000D01*
D12*
X144946666Y-109522142D02*
X144994285Y-109569761D01*
X145137142Y-109617380D01*
X145232380Y-109617380D01*
X145375238Y-109569761D01*
X145470476Y-109474523D01*
X145518095Y-109379285D01*
X145565714Y-109188809D01*
X145565714Y-109045952D01*
X145518095Y-108855476D01*
X145470476Y-108760238D01*
X145375238Y-108665000D01*
X145232380Y-108617380D01*
X145137142Y-108617380D01*
X144994285Y-108665000D01*
X144946666Y-108712619D01*
X143994285Y-109617380D02*
X144565714Y-109617380D01*
X144280000Y-109617380D02*
X144280000Y-108617380D01*
X144375238Y-108760238D01*
X144470476Y-108855476D01*
X144565714Y-108903095D01*
M02*
