<?xml version="1.0" encoding="UTF-8" standalone="no"?>
<!-- Created with Inkscape (http://www.inkscape.org/) -->

<svg
   xmlns:dc="http://purl.org/dc/elements/1.1/"
   xmlns:cc="http://creativecommons.org/ns#"
   xmlns:rdf="http://www.w3.org/1999/02/22-rdf-syntax-ns#"
   xmlns:svg="http://www.w3.org/2000/svg"
   xmlns="http://www.w3.org/2000/svg"
   xmlns:sodipodi="http://sodipodi.sourceforge.net/DTD/sodipodi-0.dtd"
   xmlns:inkscape="http://www.inkscape.org/namespaces/inkscape"
   version="1.1"
   id="svg2"
   xml:space="preserve"
   width="100.0mm"
   height="100.0mm"
   viewBox="0 0 100.0 100.0"
   sodipodi:docname="TOS_Insignia_100mm_001.svg"
   inkscape:version="0.92.4 (unknown)"><metadata
     id="metadata8"><rdf:RDF><cc:Work
         rdf:about=""><dc:format>image/svg+xml</dc:format><dc:type
           rdf:resource="http://purl.org/dc/dcmitype/StillImage" /><dc:title></dc:title></cc:Work></rdf:RDF></metadata><defs
     id="defs6" /><sodipodi:namedview
     pagecolor="#ffffff"
     bordercolor="#666666"
     borderopacity="1"
     objecttolerance="10"
     gridtolerance="10"
     guidetolerance="10"
     inkscape:pageopacity="0"
     inkscape:pageshadow="2"
     inkscape:window-width="1920"
     inkscape:window-height="957"
     id="namedview4"
     showgrid="true"
     inkscape:zoom="4.3285665"
     inkscape:cx="226.56599"
     inkscape:cy="124.31101"
     inkscape:window-x="0"
     inkscape:window-y="31"
     inkscape:window-maximized="1"
     inkscape:current-layer="g863"
     borderlayer="true"
     inkscape:document-units="mm"
     inkscape:snap-bbox="true"
     inkscape:snap-global="false"><inkscape:grid
       spacingx="2.54"
       spacingy="2.54"
       empspacing="1"
       type="xygrid"
       units="mm"
       id="grid835" /><inkscape:grid
       id="grid1081"
       units="mm"
       type="xygrid"
       empspacing="1"
       spacingy="2.54"
       spacingx="2.54" /></sodipodi:namedview><g
     id="g10"
     inkscape:groupmode="layer"
     inkscape:label="ink_ext_XXXXXX"
     transform="matrix(1.3333333,0,0,-1.3333333,0,382.66667)"
     style="display:none"><g
       id="g12"
       transform="matrix(0.01285597,0,0,0.01285597,-29.598787,249.43061)"><path
         d="M 986.883,2542.77 C 1430.83,1937.6 1659.87,1184.02 1680.3,417.719 c -127.8,248.945 -265.74,487.98 -411.72,699.591 -47.35,73.47 -71.72,63.21 -174.33,1.22 C 758.008,893.41 525.004,582.691 293.172,259.234 347.055,1047.13 492.313,1929.09 986.883,2542.77"
         style="fill:#231f20;fill-opacity:1;fill-rule:evenodd;stroke:none"
         id="path14"
         inkscape:connector-curvature="0" /><path
         d="M 986.883,2542.77 C 1430.83,1937.6 1659.87,1184.02 1680.3,417.719 c -127.8,248.945 -265.74,487.98 -411.72,699.591 -47.35,73.47 -71.72,63.21 -174.33,1.22 C 758.008,893.41 525.004,582.691 293.172,259.234 347.055,1047.13 492.313,1929.09 986.883,2542.77 Z"
         style="fill:none;stroke:#231f20;stroke-width:39.26729965;stroke-linecap:butt;stroke-linejoin:round;stroke-miterlimit:2.61313009;stroke-dasharray:none;stroke-opacity:1"
         id="path16"
         inkscape:connector-curvature="0" /><path
         d="M 986.137,2441.2 C 1300.76,2010.87 1520.75,1415.34 1584.53,726.707 c -81.86,152.453 -197.17,344.873 -308.9,478.653 -43.01,48.18 -79.33,80.33 -198.12,15.88 C 836.836,1086.98 564.348,791.055 359.16,506.328 436.891,1287.67 643.551,2053.4 986.137,2441.2"
         style="fill:#fff200;fill-opacity:1;fill-rule:evenodd;stroke:none"
         id="path18"
         inkscape:connector-curvature="0" /><path
         d="M 986.137,2441.2 C 1300.76,2010.87 1520.75,1415.34 1584.53,726.707 c -81.86,152.453 -197.17,344.873 -308.9,478.653 -43.01,48.18 -79.33,80.33 -198.12,15.88 C 836.836,1086.98 564.348,791.055 359.16,506.328 436.891,1287.67 643.551,2053.4 986.137,2441.2 Z"
         style="fill:none;stroke:#231f20;stroke-width:2.16000009;stroke-linecap:butt;stroke-linejoin:miter;stroke-miterlimit:2.61313009;stroke-dasharray:none;stroke-opacity:1"
         id="path20"
         inkscape:connector-curvature="0" /><path
         d="m 983.379,2330.91 79.011,-695.96 233.41,-56.05 -214.38,-71.86 23.24,-165.88 -126.281,151.04 -119.156,-152.53 18.957,167.53 -210.367,71.69 224.937,55.99 90.629,696.03"
         style="fill:#231f20;fill-opacity:1;fill-rule:evenodd;stroke:none"
         id="path22"
         inkscape:connector-curvature="0" /><path
         d="m 983.379,2330.91 79.011,-695.96 233.41,-56.05 -214.38,-71.86 23.24,-165.88 -126.281,151.04 -119.156,-152.53 18.957,167.53 -210.367,71.69 224.937,55.99 z"
         style="fill:none;stroke:#231f20;stroke-width:2.16000009;stroke-linecap:butt;stroke-linejoin:miter;stroke-miterlimit:2.61313009;stroke-dasharray:none;stroke-opacity:1"
         id="path24"
         inkscape:connector-curvature="0" /><path
         d="M 6.46875,2862.28 H 2008 V 5.39844 H 6.46875 Z"
         style="fill:none;stroke:#ffffff;stroke-width:2.16000009;stroke-linecap:butt;stroke-linejoin:miter;stroke-miterlimit:2.61313009;stroke-dasharray:none;stroke-opacity:1"
         id="path26"
         inkscape:connector-curvature="0" /></g><g
       style="display:inline"
       id="g12-3-9"
       transform="matrix(0.0157245,0,0,0.0157245,-64.319907,243.62862)"><path
         d="M 986.883,2542.77 C 1430.83,1937.6 1659.87,1184.02 1680.3,417.719 c -127.8,248.945 -265.74,487.98 -411.72,699.591 -47.35,73.47 -71.72,63.21 -174.33,1.22 C 758.008,893.41 525.004,582.691 293.172,259.234 347.055,1047.13 492.313,1929.09 986.883,2542.77"
         style="fill:#231f20;fill-opacity:1;fill-rule:evenodd;stroke:none"
         id="path14-6-1"
         inkscape:connector-curvature="0" /><path
         d="M 986.883,2542.77 C 1430.83,1937.6 1659.87,1184.02 1680.3,417.719 c -127.8,248.945 -265.74,487.98 -411.72,699.591 -47.35,73.47 -71.72,63.21 -174.33,1.22 C 758.008,893.41 525.004,582.691 293.172,259.234 347.055,1047.13 492.313,1929.09 986.883,2542.77 Z"
         style="fill:none;stroke:#231f20;stroke-width:39.26729965;stroke-linecap:butt;stroke-linejoin:round;stroke-miterlimit:2.61313009;stroke-dasharray:none;stroke-opacity:1"
         id="path16-7-2"
         inkscape:connector-curvature="0" /><path
         d="M 986.137,2441.2 C 1300.76,2010.87 1520.75,1415.34 1584.53,726.707 c -81.86,152.453 -197.17,344.873 -308.9,478.653 -43.01,48.18 -79.33,80.33 -198.12,15.88 C 836.836,1086.98 564.348,791.055 359.16,506.328 436.891,1287.67 643.551,2053.4 986.137,2441.2"
         style="fill:#fff200;fill-opacity:1;fill-rule:evenodd;stroke:none"
         id="path18-5-7"
         inkscape:connector-curvature="0" /><path
         d="M 986.137,2441.2 C 1300.76,2010.87 1520.75,1415.34 1584.53,726.707 c -81.86,152.453 -197.17,344.873 -308.9,478.653 -43.01,48.18 -79.33,80.33 -198.12,15.88 C 836.836,1086.98 564.348,791.055 359.16,506.328 436.891,1287.67 643.551,2053.4 986.137,2441.2 Z"
         style="fill:none;stroke:#231f20;stroke-width:2.16000009;stroke-linecap:butt;stroke-linejoin:miter;stroke-miterlimit:2.61313009;stroke-dasharray:none;stroke-opacity:1"
         id="path20-3-0"
         inkscape:connector-curvature="0" /><path
         d="m 983.379,2330.91 79.011,-695.96 233.41,-56.05 -214.38,-71.86 23.24,-165.88 -126.281,151.04 -119.156,-152.53 18.957,167.53 -210.367,71.69 224.937,55.99 90.629,696.03"
         style="fill:#231f20;fill-opacity:1;fill-rule:evenodd;stroke:none"
         id="path22-5-9"
         inkscape:connector-curvature="0" /><path
         d="m 983.379,2330.91 79.011,-695.96 233.41,-56.05 -214.38,-71.86 23.24,-165.88 -126.281,151.04 -119.156,-152.53 18.957,167.53 -210.367,71.69 224.937,55.99 z"
         style="fill:none;stroke:#231f20;stroke-width:2.16000009;stroke-linecap:butt;stroke-linejoin:miter;stroke-miterlimit:2.61313009;stroke-dasharray:none;stroke-opacity:1"
         id="path24-6-3"
         inkscape:connector-curvature="0" /><path
         d="M 6.46875,2862.28 H 2008 V 5.39844 H 6.46875 Z"
         style="fill:none;stroke:#ffffff;stroke-width:2.16000009;stroke-linecap:butt;stroke-linejoin:miter;stroke-miterlimit:2.61313009;stroke-dasharray:none;stroke-opacity:1"
         id="path26-2-6"
         inkscape:connector-curvature="0" /></g></g><g
     id="g849"
     sodipodi:insensitive="true"
     inkscape:groupmode="layer"
     inkscape:label="[fixed] BG"
     style="display:none"><rect
       id="rect847"
       style="fill:#ffffff;fill-opacity:1;stroke:none"
       height="50"
       width="50"
       y="0"
       x="0" /></g><g
     id="g851"
     inkscape:groupmode="layer"
     inkscape:label="Edge.Cuts"
     style="display:none"><path
       inkscape:connector-curvature="0"
       id="path16-7-2-7"
       style="fill:none;stroke:#231f20;stroke-width:1.65765369;stroke-linecap:butt;stroke-linejoin:round;stroke-miterlimit:2.61313009;stroke-dasharray:none;stroke-opacity:1"
       d="m 48.157213,2.3933261 c 0.292829,0.3991721 0.583443,0.7998738 0.871843,1.2020832 0.2884,0.4022094 0.574586,0.8059265 0.85856,1.2111294 0.283973,0.405203 0.565734,0.8118918 0.845282,1.2200446 0.279549,0.4081528 0.556886,0.8177696 0.832012,1.2288286 0.275126,0.411059 0.548041,0.8235601 0.818746,1.2374815 0.270705,0.4139215 0.539201,0.8292632 0.805488,1.2460034 0.266286,0.4167402 0.530364,0.8348792 0.792234,1.2543942 0.26187,0.419515 0.521532,0.840407 0.778988,1.262654 0.257455,0.422246 0.512704,0.845848 0.765747,1.270782 0.253043,0.424934 0.50388,0.851201 0.752512,1.278779 0.248633,0.427579 0.49506,0.856468 0.739284,1.286646 0.244224,0.430179 0.486244,0.861646 0.726062,1.294381 0.239817,0.432735 0.477432,0.866738 0.712845,1.301986 0.235413,0.435247 0.468624,0.871741 0.699634,1.309458 0.231011,0.437717 0.459821,0.876657 0.686431,1.3168 0.22661,0.440142 0.451021,0.881486 0.673233,1.324011 0.222211,0.442524 0.442224,0.886228 0.66004,1.33109 0.217815,0.444862 0.433433,0.890883 0.646854,1.338039 0.213422,0.447157 0.424646,0.89545 0.633675,1.344857 0.209029,0.449407 0.415862,0.899928 0.620501,1.351543 0.204639,0.451614 0.407083,0.90432 0.607333,1.358098 0.200251,0.453777 0.398307,0.908625 0.594172,1.364522 0.195864,0.455897 0.389536,0.912843 0.581016,1.370815 0.19148,0.457973 0.380768,0.916973 0.567866,1.376978 0.187098,0.460004 0.372006,0.921014 0.554724,1.383008 0.182717,0.461993 0.363246,0.924969 0.541585,1.388907 0.17834,0.463938 0.354492,0.928838 0.528455,1.394677 0.173964,0.465839 0.34574,0.932618 0.51533,1.400314 0.16959,0.467696 0.336993,0.93631 0.502211,1.40582 0.165217,0.46951 0.32825,0.939916 0.489097,1.411196 0.160848,0.47128 0.319511,0.943434 0.475991,1.41644 0.15648,0.473006 0.310776,0.946864 0.46289,1.421553 0.152114,0.474688 0.302046,0.950207 0.449796,1.426535 0.14775,0.476327 0.293318,0.953463 0.436706,1.431386 0.143389,0.477922 0.284596,0.956631 0.423625,1.436105 0.139028,0.479474 0.275877,0.959713 0.410548,1.440695 0.13467,0.480981 0.267162,0.962706 0.397477,1.445151 0.130315,0.482446 0.258452,0.965613 0.384413,1.449479 0.125962,0.483866 0.249746,0.968431 0.371356,1.453674 0.121609,0.485242 0.241043,0.971162 0.358303,1.457738 0.117259,0.486575 0.232345,0.973806 0.345257,1.461671 0.112912,0.487864 0.22365,0.976363 0.332217,1.465473 0.108566,0.48911 0.21496,0.978832 0.319183,1.469144 0.104223,0.490312 0.206274,0.981214 0.306155,1.472684 0.09988,0.49147 0.197592,0.983508 0.293134,1.476093 0.09554,0.492584 0.188914,0.985715 0.280118,1.47937 0.0912,0.493655 0.18024,0.987835 0.267109,1.482517 0.08687,0.494682 0.17157,0.989867 0.254105,1.485532 0.08254,0.495666 0.162905,0.991812 0.241108,1.488417 0.0782,0.496605 0.154243,0.993669 0.228117,1.49117 0.07387,0.497501 0.145585,0.995439 0.215132,1.493792 0.06955,0.498353 0.13693,0.997121 0.202152,1.496283 0.06522,0.499161 0.128281,0.998716 0.18918,1.498642 0.0609,0.499927 0.119635,1.000225 0.176212,1.500872 0.05658,0.500648 0.110994,1.001645 0.163252,1.502969 0.05226,0.501325 0.102356,1.002978 0.150297,1.504936 0.04794,0.501959 0.09372,1.004223 0.137348,1.506772 0.04363,0.502548 0.08509,1.005381 0.124406,1.508475 0.03931,0.503095 0.07647,1.006452 0.111469,1.51005 0.035,0.503597 0.06785,1.007435 0.09854,1.511491 0.03069,0.504056 0.05923,1.008331 0.08561,1.512802 0.02639,0.504471 0.05062,1.009139 0.0727,1.513982 0.02208,0.504843 0.04201,1.009861 0.05978,1.515031 0.01778,0.505171 0.0334,1.010494 0.04688,1.515949 -0.07264,-0.03685 -0.147041,-0.0749 -0.223141,-0.114113 -0.0761,-0.03921 -0.153897,-0.07958 -0.233324,-0.121071 -0.07943,-0.04149 -0.160486,-0.08409 -0.243107,-0.127768 -0.08262,-0.04368 -0.166807,-0.08843 -0.252488,-0.134204 -0.08568,-0.04578 -0.172859,-0.09258 -0.261466,-0.140377 -0.08861,-0.04779 -0.178643,-0.09657 -0.270042,-0.146289 -0.0914,-0.04972 -0.18416,-0.10038 -0.278216,-0.151938 -0.09406,-0.05156 -0.189408,-0.104016 -0.285988,-0.157327 -0.09658,-0.05331 -0.194389,-0.107477 -0.293359,-0.162453 -0.09897,-0.05498 -0.199101,-0.110763 -0.300327,-0.167317 -0.101226,-0.05655 -0.203546,-0.113875 -0.306893,-0.17192 -0.103348,-0.05805 -0.207722,-0.116813 -0.313058,-0.176261 -0.105335,-0.05945 -0.21163,-0.119576 -0.318819,-0.18034 -0.107189,-0.06076 -0.215271,-0.122165 -0.32418,-0.184158 -0.108908,-0.06199 -0.218643,-0.124578 -0.329137,-0.187713 -0.110495,-0.06313 -0.221748,-0.126817 -0.333694,-0.191006 -0.111946,-0.06419 -0.224584,-0.128883 -0.337848,-0.194039 -0.113264,-0.06516 -0.227153,-0.130773 -0.3416,-0.196809 -0.114447,-0.06603 -0.229453,-0.132489 -0.34495,-0.199317 -0.115497,-0.06683 -0.231485,-0.134031 -0.347898,-0.201564 -0.116413,-0.06753 -0.23325,-0.135397 -0.350444,-0.203548 -0.117195,-0.06815 -0.234746,-0.13659 -0.352588,-0.205272 -0.117842,-0.06868 -0.235975,-0.137608 -0.35433,-0.206733 -0.118356,-0.06912 -0.236935,-0.138451 -0.35567,-0.207932 -0.118736,-0.06948 -0.237627,-0.13912 -0.356608,-0.20887 -0.118981,-0.06975 -0.238052,-0.139614 -0.357144,-0.209546 -0.119093,-0.06993 -0.238208,-0.139934 -0.357278,-0.20996 -0.119071,-0.07003 -0.238096,-0.140079 -0.35701,-0.210112 -0.118914,-0.07003 -0.237716,-0.14005 -0.35634,-0.210003 -0.118623,-0.06995 -0.237068,-0.139846 -0.355267,-0.209632 -0.118199,-0.06979 -0.236153,-0.139467 -0.353794,-0.208998 -0.117641,-0.06953 -0.234969,-0.138914 -0.351917,-0.208104 -0.116948,-0.06919 -0.233517,-0.138186 -0.349639,-0.206947 -0.116122,-0.06876 -0.231797,-0.137284 -0.346959,-0.205528 -0.115162,-0.06824 -0.229809,-0.136208 -0.343877,-0.203848 -0.114067,-0.06764 -0.227553,-0.134957 -0.340392,-0.201907 -0.112839,-0.06695 -0.22503,-0.133531 -0.336506,-0.199702 -0.111477,-0.06617 -0.222238,-0.131931 -0.332218,-0.197237 -0.10998,-0.06531 -0.219178,-0.130157 -0.327528,-0.19451 -0.108349,-0.06435 -0.21585,-0.128207 -0.322435,-0.19152 -0.106585,-0.06331 -0.212255,-0.126084 -0.316941,-0.188269 -0.104687,-0.06219 -0.208391,-0.123786 -0.311045,-0.184757 -0.102654,-0.06097 -0.204259,-0.121313 -0.304747,-0.180982 -0.100487,-0.05967 -0.199858,-0.118666 -0.298046,-0.176946 -0.09819,-0.05828 -0.195191,-0.115844 -0.290943,-0.172648 -0.09575,-0.0568 -0.190255,-0.112847 -0.28344,-0.168087 -0.09318,-0.05524 -0.185051,-0.109677 -0.275533,-0.163266 -0.09048,-0.05359 -0.179579,-0.106332 -0.267224,-0.158183 -0.08765,-0.05185 -0.173839,-0.102812 -0.258514,-0.152838 -0.08467,-0.05002 -0.167831,-0.09912 -0.249402,-0.14723 -0.08157,-0.04811 -0.161555,-0.09525 -0.239887,-0.141361 -0.07833,-0.04611 -0.155011,-0.09121 -0.229971,-0.135231 -0.07496,-0.04403 -0.148199,-0.08699 -0.219652,-0.128839 -0.07145,-0.04185 -0.141119,-0.08259 -0.208931,-0.122184 -0.06781,-0.03959 -0.133771,-0.07803 -0.197809,-0.115268 -0.06404,-0.03724 -0.126155,-0.07329 -0.186285,-0.108091 -0.06013,-0.03481 -0.118271,-0.06837 -0.174358,-0.100651 -0.05609,-0.03228 -0.110119,-0.06328 -0.162029,-0.09295 -0.05191,-0.02967 -0.101699,-0.05801 -0.149299,-0.08499 -0.0476,-0.02697 -0.09301,-0.05257 -0.136166,-0.07676 -0.04315,-0.02419 -0.08405,-0.04696 -0.122631,-0.06827 -0.03858,-0.02131 -0.07483,-0.04117 -0.108695,-0.05953 -0.03386,-0.01835 -0.06534,-0.03521 -0.09436,-0.05052 -0.02902,-0.01531 -0.05558,-0.02907 -0.07961,-0.04124 -0.0242,-0.01066 -0.04867,-0.02128 -0.07342,-0.03184 -0.02475,-0.01056 -0.04977,-0.02106 -0.07506,-0.0315 -0.02529,-0.01044 -0.05085,-0.02082 -0.07668,-0.03113 -0.02583,-0.01031 -0.05192,-0.02056 -0.07828,-0.03073 -0.02636,-0.01017 -0.05299,-0.02027 -0.07988,-0.0303 -0.02689,-0.01002 -0.05404,-0.01997 -0.08145,-0.02983 -0.02741,-0.0099 -0.05508,-0.01964 -0.08301,-0.02934 -0.02793,-0.0097 -0.05611,-0.0193 -0.08455,-0.02881 -0.02844,-0.0095 -0.05714,-0.01893 -0.08608,-0.02826 -0.02895,-0.0093 -0.05815,-0.01855 -0.0876,-0.02767 -0.02945,-0.0091 -0.05915,-0.01814 -0.0891,-0.02705 -0.02995,-0.0089 -0.06014,-0.01771 -0.09058,-0.0264 -0.03044,-0.0087 -0.06112,-0.01726 -0.09205,-0.02572 -0.03092,-0.0085 -0.06209,-0.01679 -0.0935,-0.025 -0.03141,-0.0082 -0.06305,-0.0163 -0.09493,-0.02426 -0.03188,-0.008 -0.064,-0.01579 -0.09636,-0.02348 -0.03235,-0.0077 -0.06494,-0.01525 -0.09776,-0.02267 -0.03282,-0.0074 -0.06587,-0.0147 -0.09915,-0.02183 -0.03328,-0.0071 -0.06679,-0.01412 -0.10053,-0.02096 -0.03374,-0.0068 -0.0677,-0.01353 -0.10189,-0.02006 -0.03419,-0.0065 -0.0686,-0.01291 -0.103236,-0.01913 -0.03463,-0.0062 -0.06949,-0.01227 -0.104565,-0.01816 -0.03507,-0.0059 -0.07037,-0.01162 -0.105879,-0.01717 -0.03551,-0.0056 -0.07124,-0.01094 -0.107179,-0.01614 -0.03594,-0.0052 -0.0721,-0.01024 -0.108463,-0.01508 -0.03637,-0.0048 -0.07294,-0.0095 -0.109731,-0.014 -0.03679,-0.0045 -0.07378,-0.0088 -0.110984,-0.01287 -0.0372,-0.0041 -0.07461,-0.008 -0.112222,-0.01172 -0.03761,-0.0037 -0.07543,-0.0072 -0.113445,-0.01054 -0.03802,-0.0033 -0.07623,-0.0064 -0.114652,-0.0093 -0.03842,-0.0029 -0.07703,-0.0056 -0.115844,-0.0081 -0.03881,-0.0025 -0.07782,-0.0048 -0.11702,-0.0068 -0.0392,-0.002 -0.0786,-0.0039 -0.118182,-0.0055 -0.03958,-0.0016 -0.07936,-0.003 -0.119327,-0.0042 -0.03996,-0.0012 -0.08012,-0.0021 -0.120458,-0.0028 -0.04034,-6.94e-4 -0.08086,-0.0012 -0.121574,-0.0014 -0.04071,-2.22e-4 -0.0816,-2.05e-4 -0.122673,5.7e-5 -0.04107,2.61e-4 -0.08233,7.67e-4 -0.123758,0.0015 -0.04143,7.55e-4 -0.08304,0.0018 -0.124828,0.003 -0.04179,0.0013 -0.08375,0.0028 -0.125881,0.0045 -0.04213,0.0018 -0.08444,0.0038 -0.12692,0.0061 -0.04248,0.0023 -0.08513,0.0049 -0.127944,0.0077 -0.04282,0.0028 -0.0858,0.0059 -0.128951,0.0093 -0.04315,0.0034 -0.08647,0.007 -0.129944,0.01097 -0.04348,0.0039 -0.08712,0.0082 -0.130922,0.01266 -0.0438,0.0045 -0.08776,0.0093 -0.131884,0.01437 -0.04412,0.0051 -0.0884,0.01045 -0.13283,0.01612 -0.04443,0.0057 -0.08902,0.01163 -0.133762,0.0179 -0.04474,0.0063 -0.08963,0.01284 -0.134678,0.01971 -0.04504,0.0069 -0.09024,0.01406 -0.135579,0.02155 -0.04534,0.0075 -0.09083,0.0153 -0.136464,0.02342 -0.04563,0.0081 -0.09141,0.01656 -0.137334,0.02533 -0.04592,0.0088 -0.09199,0.01785 -0.13819,0.02726 -0.0462,0.0094 -0.09255,0.01915 -0.139028,0.02923 -0.04648,0.01008 -0.0931,0.02048 -0.139853,0.03123 -0.04675,0.01075 -0.09364,0.02183 -0.140662,0.03326 -0.04702,0.01143 -0.09417,0.0232 -0.141455,0.03532 -0.04728,0.01212 -0.09469,0.02459 -0.142234,0.03741 -0.04754,0.01282 -0.0952,0.026 -0.142996,0.03953 -0.04779,0.01354 -0.09571,0.02743 -0.143744,0.04169 -0.04804,0.01426 -0.0962,0.02888 -0.144476,0.04387 -0.04828,0.01499 -0.09668,0.03036 -0.145193,0.04609 -0.04852,0.01574 -0.09715,0.03185 -0.145895,0.04834 -0.04875,0.01649 -0.09761,0.03336 -0.146581,0.05062 -0.166933,0.07434 -0.333409,0.148982 -0.499455,0.223922 -0.166045,0.07494 -0.331659,0.150179 -0.496868,0.225713 -0.165209,0.07553 -0.330013,0.151363 -0.494436,0.227484 -0.164424,0.07612 -0.328468,0.152534 -0.492157,0.229237 -0.163689,0.0767 -0.327024,0.153694 -0.490031,0.230971 -0.163006,0.07728 -0.325683,0.154841 -0.488057,0.232687 -0.162374,0.07785 -0.324445,0.155975 -0.486238,0.234384 -0.161793,0.07841 -0.323308,0.157098 -0.484571,0.236063 -0.161263,0.07896 -0.322273,0.158207 -0.483057,0.237723 -0.160784,0.07952 -0.321342,0.159305 -0.481698,0.239365 -0.160356,0.08006 -0.320511,0.16039 -0.48049,0.240987 -0.159979,0.0806 -0.319783,0.161463 -0.479436,0.242593 -0.159654,0.08113 -0.319157,0.162523 -0.478536,0.244178 -0.159379,0.08165 -0.318633,0.163571 -0.477788,0.245746 -0.159156,0.08217 -0.318212,0.164606 -0.477194,0.247294 -0.158983,0.08269 -0.317892,0.16563 -0.476753,0.248825 -0.158861,0.08319 -0.317675,0.166641 -0.476465,0.250336 -0.158791,0.0837 -0.317559,0.16764 -0.476331,0.25183 -0.158771,0.08419 -0.317545,0.168626 -0.476349,0.253305 -0.158803,0.08468 -0.317634,0.169599 -0.47652,0.25476 -0.158886,0.08516 -0.317826,0.170561 -0.476845,0.256198 -0.15902,0.08564 -0.318119,0.171511 -0.477324,0.257618 -0.159205,0.08611 -0.318514,0.172447 -0.477955,0.259017 -0.15944,0.08657 -0.319012,0.173372 -0.478739,0.2604 -0.159728,0.08703 -0.319611,0.174283 -0.479677,0.261763 -0.160066,0.08748 -0.320313,0.175183 -0.480768,0.263108 -0.160454,0.08792 -0.321117,0.17607 -0.482012,0.264434 -0.160895,0.08836 -0.322022,0.176945 -0.483409,0.265742 -0.161386,0.0888 -0.323031,0.177807 -0.484959,0.267031 -0.161929,0.08922 -0.324141,0.178658 -0.486663,0.268301 -0.162522,0.08964 -0.325354,0.179496 -0.48852,0.269554 -0.163167,0.09006 -0.326668,0.180321 -0.49053,0.270787 -0.163862,0.09047 -0.328085,0.181135 -0.492693,0.272003 -0.164609,0.09087 -0.329604,0.181935 -0.49501,0.273198 -0.165406,0.09126 -0.331224,0.182724 -0.497479,0.274377 -0.166255,0.09165 -0.332947,0.183499 -0.500102,0.275536 -0.167155,0.09204 -0.334773,0.184263 -0.502878,0.276677 -0.168106,0.09241 -0.3367,0.185014 -0.505808,0.277799 -0.169107,0.09278 -0.338728,0.185753 -0.508889,0.278902 -0.170161,0.09315 -0.340861,0.18648 -0.512125,0.279988 -0.171265,0.09351 -0.343094,0.187194 -0.515514,0.281055 -0.17242,0.09386 -0.34543,0.187896 -0.519056,0.282102 -0.173626,0.09421 -0.347868,0.188586 -0.522751,0.283133 -0.174883,0.09455 -0.350408,0.189262 -0.526599,0.284143 -0.176192,0.09488 -0.35305,0.189927 -0.530601,0.285135 -0.177551,0.09521 -0.355795,0.190579 -0.534756,0.286109 -0.178961,0.09553 -0.358641,0.19122 -0.539064,0.287065 -0.180423,0.09584 -0.361589,0.191847 -0.543524,0.288002 -0.181936,0.09615 -0.36464,0.192462 -0.548139,0.288919 -0.183499,0.09646 -0.367793,0.193065 -0.552907,0.28982 -0.185114,0.09675 -0.371048,0.193655 -0.557827,0.2907 -0.18678,0.09704 -0.374405,0.194234 -0.562901,0.291563 -0.188497,0.09733 -0.377864,0.194799 -0.568129,0.292407 -0.190264,0.09761 -0.381425,0.195353 -0.573508,0.293233 -0.192083,0.09788 -0.385089,0.195894 -0.579042,0.294039 -0.193953,0.09815 -0.388854,0.196423 -0.584729,0.294828 -0.195874,0.0984 -0.392722,0.196939 -0.590568,0.295598 -0.197847,0.09866 -0.396692,0.197443 -0.596562,0.296349 -0.19987,0.09891 -0.400764,0.197934 -0.602708,0.297081 -0.201944,0.09915 -0.404938,0.198414 -0.609007,0.297796 -0.20407,0.09938 -0.409214,0.198881 -0.61546,0.298492 -0.206246,0.09961 -0.413593,0.199335 -0.622066,0.299169 -0.208473,0.09983 -0.418073,0.199777 -0.628825,0.299827 -0.210752,0.10005 -0.422656,0.200207 -0.635737,0.300467 0.03554,-0.519699 0.07203,-1.040367 0.109491,-1.561946 0.03747,-0.52158 0.07592,-1.04407 0.115391,-1.567413 0.03947,-0.523344 0.07997,-1.04754 0.121539,-1.57253 0.04157,-0.52499 0.0842,-1.050775 0.127938,-1.577296 0.04374,-0.526521 0.08859,-1.053777 0.134585,-1.581712 0.046,-0.527935 0.09314,-1.056547 0.141481,-1.585778 0.04834,-0.529232 0.09787,-1.059083 0.148627,-1.589495 0.05076,-0.530412 0.102755,-1.061385 0.156022,-1.59286 0.05327,-0.531476 0.10781,-1.063454 0.163667,-1.595877 0.05586,-0.532422 0.11303,-1.065289 0.17156,-1.598542 0.05853,-0.533253 0.118417,-1.066892 0.179702,-1.600858 0.06129,-0.533966 0.12397,-1.06826 0.188095,-1.602823 0.06412,-0.534563 0.129689,-1.069396 0.196735,-1.604439 0.06705,-0.535044 0.135575,-1.070298 0.205626,-1.605705 0.07005,-0.535406 0.141626,-1.070966 0.214765,-1.606619 0.07314,-0.535654 0.147844,-1.071401 0.224154,-1.607185 0.07631,-0.535783 0.154228,-1.071603 0.233793,-1.6074 0.07956,-0.535797 0.160777,-1.071571 0.243679,-1.607264 0.0829,-0.535694 0.167493,-1.071307 0.253816,-1.60678 0.08632,-0.535474 0.174375,-1.070808 0.264201,-1.605945 0.08983,-0.535136 0.181424,-1.070075 0.274836,-1.604759 0.09341,-0.534683 0.188639,-1.06911 0.285721,-1.603223 0.09708,-0.534113 0.196019,-1.067912 0.296854,-1.601338 0.100834,-0.533427 0.203566,-1.06648 0.308236,-1.599103 0.10467,-0.532622 0.211279,-1.064814 0.319868,-1.596517 0.108589,-0.531702 0.219158,-1.062915 0.331749,-1.59358 0.112591,-0.530666 0.227204,-1.060784 0.34388,-1.590295 0.116675,-0.529512 0.235414,-1.058418 0.356258,-1.586659 0.120844,-0.528241 0.243793,-1.055818 0.368888,-1.582673 0.125095,-0.526854 0.252336,-1.052986 0.381765,-1.578336 0.129429,-0.525351 0.261046,-1.04992 0.394892,-1.57365 0.133847,-0.52373 0.269923,-1.046621 0.408269,-1.568614 0.138347,-0.521993 0.278965,-1.043088 0.421895,-1.563227 0.14293,-0.520139 0.288172,-1.039322 0.435769,-1.55749 0.147596,-0.518169 0.297547,-1.035323 0.449893,-1.551404 0.152346,-0.516081 0.307087,-1.031089 0.464266,-1.544967 0.157179,-0.513877 0.316795,-1.026623 0.478889,-1.538179 0.162094,-0.511557 0.326667,-1.021924 0.49376,-1.531043 0.167094,-0.509119 0.336707,-1.01699 0.508882,-1.523555 0.172175,-0.506565 0.346911,-1.011824 0.524251,-1.515719 0.17734,-0.503894 0.357283,-1.006424 0.539871,-1.50753 0.182588,-0.501107 0.367821,-1.000791 0.55574,-1.498994 0.187918,-0.498202 0.378524,-0.994924 0.571857,-1.490105 0.193333,-0.495182 0.389394,-0.988824 0.588224,-1.480868 0.19883,-0.492045 0.40043,-0.982491 0.60484,-1.471281 0.204411,-0.488789 0.411632,-0.975923 0.621706,-1.461342 0.210074,-0.485419 0.423,-0.969123 0.638821,-1.451054 0.21582,-0.481931 0.434534,-0.96209 0.656184,-1.440416 0.22165,-0.478327 0.446235,-0.954823 0.673798,-1.429428 0.227562,-0.474606 0.458102,-0.947322 0.69166,-1.41809 0.233558,-0.470768 0.470134,-0.939588 0.709771,-1.406401 0.239637,-0.466814 0.482334,-0.931621 0.728132,-1.394363 0.245799,-0.462742 0.494699,-0.92342 0.746743,-1.381974 0.252043,-0.458555 0.50723,-0.914986 0.765601,-1.369236 0.258372,-0.45425 0.519928,-0.906318 0.78471,-1.356146 0.264783,-0.449829 0.532792,-0.897418 0.804068,-1.342708 0.271277,-0.445291 0.545821,-0.888283 0.823675,-1.328919 0.277853,-0.440635 0.559016,-0.878915 0.84353,-1.3147792 0.284514,-0.4358644 0.572379,-0.869314 0.863636,-1.3002903 0.291258,-0.4309763 0.585907,-0.8594794 0.883991,-1.2854509 0.298084,-0.4259716 0.599601,-0.8494115 0.904595,-1.2702616 0.304993,-0.42085 0.613461,-0.8391101 0.925447,-1.254722 0.311986,-0.4156118 0.627489,-0.8285754 0.94655,-1.2388323 0.319061,-0.4102569 0.641681,-0.8178073 0.967901,-1.2225926 v 0 -10e-8 0 0 -1e-7 0 0 -10e-8 0 0 0 -1e-7 0 0 -10e-8 0 0 -10e-8 0 0 -1e-7 0 0 -10e-8 0 0 0 -10e-8 0 0 -1e-7 0 0 -10e-8 0 0 -10e-8 0 0 -1e-7 0 0 0 -10e-8 0 0 -1e-7 0 0 -10e-8 0 0 -10e-8 0 0 -1e-7 0 0 0 -10e-8 0 0 -10e-8 z"
       sodipodi:nodetypes="cssssssssssssssssssssssssssssssssssssssssssssssssssssssssssssssscssssssssssssssssssssssssssssssssssssssssssssssssssssssssssssssscssssssssssssssssssssssssssssssssssssssssssssssssssssssssssssssscssssssssssssssssssssssssssssssssssssssssssssssssssssssssssssssscsssssssssssssssssssssssssssssssssssssssssssssssssssssssssssssssccccccccccccccccccccccccccccccccccccccccccccccccccccccccccccccccc" /></g><g
     id="g853"
     inkscape:groupmode="layer"
     inkscape:label="B.Cu-disabled"
     style="display:none" /><g
     id="g857"
     inkscape:groupmode="layer"
     inkscape:label="B.Silk-disabled"
     style="display:none" /><g
     style="display:none"
     inkscape:label="B.Mask"
     inkscape:groupmode="layer"
     id="g1028"><path
       style="fill:#000000;fill-opacity:1;stroke:#000000;stroke-width:1.01848316;stroke-miterlimit:4;stroke-dasharray:none;stroke-opacity:1"
       d="m 163.13613,184.27349 c 0,-0.0528 0.01,-0.18801 0.0277,-0.39695 0.0182,-0.20894 0.045,-0.49161 0.0795,-0.83936 0.0345,-0.34776 0.0767,-0.7606 0.12569,-1.22987 0.049,-0.46927 0.10472,-0.99498 0.1663,-1.56846 0.0616,-0.57348 0.12901,-1.19475 0.20134,-1.85514 0.0723,-0.66039 0.14958,-1.35991 0.23081,-2.08991 0.0812,-0.73 0.16644,-1.49048 0.2547,-2.27278 0.0883,-0.7823 0.17957,-1.58642 0.27301,-2.40372 0.0934,-0.8173 0.18349,-1.61694 0.26934,-2.39071 0.0859,-0.77376 0.16751,-1.52166 0.24416,-2.23546 0.0767,-0.7138 0.1483,-1.39351 0.21415,-2.03092 0.0658,-0.6374 0.12588,-1.2325 0.1793,-1.77708 0.0534,-0.54458 0.10022,-1.03864 0.13961,-1.47396 0.0394,-0.43532 0.0714,-0.8119 0.0951,-1.12153 0.0237,-0.30963 0.0393,-0.55231 0.0457,-0.71982 0.006,-0.16751 0.004,-0.25985 -0.008,-0.26881 -0.0124,-0.009 -0.13466,-0.0547 -0.35598,-0.13367 -0.22132,-0.0789 -0.54169,-0.19097 -0.95027,-0.33247 -0.40859,-0.1415 -0.90539,-0.31244 -1.47957,-0.50915 -0.57419,-0.1967 -1.22575,-0.41916 -1.94386,-0.66368 -0.71812,-0.24453 -1.50278,-0.51112 -2.34316,-0.79609 -0.84038,-0.28498 -1.73647,-0.58833 -2.67745,-0.90637 -0.94097,-0.31804 -1.92683,-0.65078 -2.94673,-0.99451 -1.01991,-0.34374 -2.07386,-0.69847 -3.15103,-1.06052 -1.07717,-0.36205 -2.1275,-0.71822 -3.14052,-1.06469 -1.01302,-0.34646 -1.98873,-0.68323 -2.91664,-1.00645 -0.9279,-0.32323 -1.80802,-0.63293 -2.62985,-0.92526 -0.82183,-0.29234 -1.58538,-0.56731 -2.28018,-0.82109 -0.69479,-0.25378 -1.32082,-0.48638 -1.86761,-0.69395 -0.54679,-0.20757 -1.01434,-0.39012 -1.39216,-0.54383 -0.37783,-0.1537 -0.66593,-0.27856 -0.85382,-0.37074 -0.18789,-0.0922 -0.27558,-0.15169 -0.25258,-0.17469 0.023,-0.023 0.16236,-0.0745 0.4065,-0.15131 0.24413,-0.0769 0.59303,-0.17913 1.03511,-0.30376 0.44208,-0.12463 0.97733,-0.27161 1.59417,-0.43792 0.61684,-0.1663 1.31526,-0.35192 2.08368,-0.55381 0.76842,-0.20189 1.60682,-0.42004 2.50363,-0.65142 0.89681,-0.23139 1.85201,-0.47599 2.85403,-0.73078 1.00201,-0.25478 2.05083,-0.51974 3.13486,-0.79184 1.08404,-0.27209 2.20329,-0.55132 3.34616,-0.83463 l 2.07795,-0.51511 2.07795,-0.51512 2.07795,-0.51511 2.07794,-0.51511 2.07795,-0.51512 2.07795,-0.51511 2.07795,-0.51512 2.07795,-0.51511 0.91039,-3.9048 0.91039,-3.9048 0.91038,-3.9048 0.91039,-3.9048 0.91039,-3.90481 0.91038,-3.9048 0.91039,-3.9048 0.91039,-3.9048 c 0.50071,-2.14764 0.99137,-4.24779 1.46685,-6.27897 0.47549,-2.03118 0.93581,-3.993379 1.37585,-5.865127 0.44005,-1.871748 0.85982,-3.653041 1.25421,-5.322394 0.39439,-1.669354 0.76339,-3.226769 1.10191,-4.650763 0.33852,-1.423994 0.64655,-2.714567 0.91899,-3.850236 0.27243,-1.135669 0.50928,-2.116434 0.70541,-2.920812 0.19614,-0.804379 0.35158,-1.432371 0.4612,-1.862494 0.10963,-0.430123 0.17345,-0.662376 0.18635,-0.675278 0.0129,-0.0129 0.0658,0.195201 0.1547,0.602979 0.0889,0.407777 0.21374,1.01523 0.37051,1.801028 0.15677,0.785797 0.34546,1.74994 0.56203,2.871098 0.21657,1.121158 0.461,2.399332 0.72927,3.813191 0.26826,1.413859 0.56035,2.963403 0.87222,4.627304 0.31187,1.6639 0.64352,3.442156 0.99091,5.313438 0.34738,1.871282 0.71049,3.835586 1.08529,5.871596 0.3748,2.036 0.76128,4.1437 1.1554,6.30177 l 0.71658,3.92376 0.71659,3.92376 0.71658,3.92376 0.71658,3.92376 0.71659,3.92376 0.71658,3.92376 0.71659,3.92376 0.71658,3.92376 1.97776,0.47474 1.97777,0.47473 1.97776,0.47474 1.97777,0.47474 1.97777,0.47473 1.97776,0.47474 1.97777,0.47473 1.97776,0.47474 c 1.08777,0.26111 2.16503,0.52001 3.21958,0.77374 1.05455,0.25373 2.08639,0.5023 3.08333,0.74274 0.99693,0.24045 1.95896,0.47277 2.87389,0.69401 0.91492,0.22123 1.78274,0.43139 2.59126,0.6275 0.80852,0.19611 1.55774,0.37819 2.23545,0.54326 0.67772,0.16507 1.28394,0.31314 1.80646,0.44126 0.52253,0.12811 0.96135,0.23626 1.30428,0.3215 0.34294,0.0852 0.58997,0.14756 0.72892,0.18401 0.22109,0.058 0.38737,0.12048 0.48184,0.19483 0.0945,0.0743 0.11712,0.16055 0.051,0.26596 -0.0662,0.10542 -0.22118,0.23004 -0.48203,0.38124 -0.26084,0.1512 -0.62752,0.32896 -1.11705,0.54065 -0.48954,0.21169 -1.10192,0.4573 -1.85416,0.7442 -0.75225,0.2869 -1.64435,0.61507 -2.69333,0.99189 -1.04898,0.37681 -2.25483,0.80226 -3.63456,1.28371 -1.37974,0.48145 -2.93336,1.01889 -4.67787,1.61968 -1.09638,0.37758 -2.17052,0.74928 -3.21127,1.11109 -1.04075,0.36182 -2.0481,0.71374 -3.01089,1.05176 -0.9628,0.33802 -1.88104,0.66213 -2.74355,0.96831 -0.86252,0.30618 -1.66932,0.59444 -2.40923,0.86076 -0.73992,0.26631 -1.41295,0.51068 -2.00793,0.7291 -0.59499,0.21841 -1.11193,0.41086 -1.53966,0.57333 -0.42774,0.16247 -0.76626,0.29497 -1.00442,0.39346 -0.23815,0.0985 -0.37594,0.163 -0.40219,0.18949 -0.0263,0.0265 -0.0401,0.13687 -0.0425,0.32267 -0.002,0.18581 0.007,0.44703 0.0265,0.77519 0.0197,0.32816 0.0501,0.72326 0.0902,1.17682 0.0401,0.45356 0.0899,0.96559 0.14858,1.52759 0.0587,0.56201 0.12617,1.174 0.20163,1.82749 0.0755,0.65349 0.1589,1.34849 0.2494,2.07651 0.0905,0.72802 0.18808,1.48907 0.29184,2.27466 0.10377,0.7856 0.21372,1.59574 0.32898,2.42195 0.11526,0.82621 0.2279,1.63572 0.33677,2.42012 0.10888,0.7844 0.21399,1.54368 0.31419,2.26943 0.10019,0.72575 0.19548,1.41797 0.28471,2.06823 0.0892,0.65027 0.17239,1.25859 0.24836,1.81654 0.076,0.55795 0.14473,1.06554 0.20514,1.51434 0.0604,0.44879 0.11248,0.83881 0.15504,1.16162 0.0426,0.32282 0.0756,0.57843 0.0981,0.75842 0.0224,0.17999 0.0342,0.28436 0.0342,0.3047 0,0.0203 -0.0665,-0.0396 -0.19293,-0.17226 -0.12647,-0.13266 -0.31294,-0.33804 -0.55294,-0.60858 -0.24001,-0.27053 -0.53356,-0.60623 -0.87419,-0.99954 -0.34063,-0.3933 -0.72834,-0.84421 -1.15666,-1.34516 -0.42832,-0.50095 -0.89726,-1.05195 -1.40036,-1.64544 -0.5031,-0.59349 -1.04035,-1.22946 -1.60529,-1.90037 -0.56494,-0.67091 -1.15758,-1.37675 -1.77145,-2.10996 -0.61387,-0.73321 -1.24897,-1.4938 -1.89884,-2.2742 -0.64987,-0.7804 -1.28838,-1.54402 -1.90872,-2.283 -0.62035,-0.73897 -1.22254,-1.45332 -1.79978,-2.13517 -0.57724,-0.68185 -1.12953,-1.33121 -1.65007,-1.94023 -0.52054,-0.60902 -1.00934,-1.1777 -1.4596,-1.69818 -0.45027,-0.52049 -0.86199,-0.99278 -1.22839,-1.40902 -0.3664,-0.41625 -0.68747,-0.77645 -0.95641,-1.07275 -0.26895,-0.2963 -0.48577,-0.5287 -0.64368,-0.68936 -0.15791,-0.16065 -0.2569,-0.24955 -0.29019,-0.25885 -0.0333,-0.009 -0.088,0.011 -0.16156,0.0581 -0.0736,0.0471 -0.1661,0.12103 -0.27502,0.21901 -0.10893,0.098 -0.23428,0.22002 -0.37358,0.36335 -0.13929,0.14334 -0.29253,0.30797 -0.45722,0.49112 -0.16469,0.18316 -0.34083,0.38485 -0.52595,0.60231 -0.18512,0.21746 -0.37921,0.45068 -0.57979,0.69691 -0.20058,0.24623 -0.40764,0.50546 -0.61871,0.77494 -0.21107,0.26947 -0.42614,0.54919 -0.64273,0.83638 -0.9239,1.22508 -1.84655,2.43749 -2.75382,3.61986 -0.90727,1.18238 -1.79917,2.33472 -2.66157,3.43967 -0.86239,1.10494 -1.6953,2.16249 -2.48458,3.15527 -0.78928,0.99278 -1.53494,1.92079 -2.22285,2.76667 -0.68792,0.84588 -1.31809,1.60964 -1.8764,2.27389 -0.5583,0.66425 -1.04474,1.22901 -1.44519,1.6769 -0.40045,0.4479 -0.71491,0.77892 -0.92926,0.97572 -0.21434,0.1968 -0.32858,0.25938 -0.32858,0.17035 z"
       id="path940"
       inkscape:connector-curvature="0"
       transform="scale(0.26458333)"
       sodipodi:nodetypes="sssssssscssssssscssssssscsssssssssssssssccccccccccccccccsssssssscssssssssccccccccccccccccssssssscssssssscssssssssssssssscssssssssssssssscssssssscssssssssssssssss" /></g><g
     style="display:none"
     inkscape:label="F.Cu"
     inkscape:groupmode="layer"
     id="g1121"><path
       style="display:inline;fill:#000000;fill-opacity:1;fill-rule:evenodd;stroke:#000000;stroke-width:0.15955128;stroke-opacity:1"
       d="m 181.89258,25.251953 c -3.41625,3.867124 -6.76063,8.081775 -10.0318,12.615841 -3.27117,4.534067 -6.46914,9.387548 -9.59256,14.532334 -3.12342,5.144786 -6.17231,10.580876 -9.14532,16.280159 -2.97301,5.699283 -5.87015,11.661759 -8.69009,17.859317 -2.81993,6.197558 -5.56266,12.630197 -8.22685,19.269806 -2.6642,6.63961 -5.24985,13.48619 -7.75564,20.51163 -2.50578,7.02544 -4.9317,14.22974 -7.27641,21.58479 -2.34471,7.35505 -4.60822,14.86084 -6.7892,22.48928 -2.18098,7.62843 -4.27942,15.3795 -6.29399,23.2251 -2.01457,7.84559 -3.94528,15.78571 -5.79078,23.79225 -1.8455,8.00653 -3.605809,16.07949 -5.279581,24.19074 -1.673772,8.11125 -3.26101,16.26081 -4.760384,24.42056 -1.499374,8.15975 -2.910882,16.32969 -4.233192,24.48171 -1.322311,8.15203 -2.555423,16.28613 -3.698005,24.3742 -1.142582,8.08808 -2.194634,16.13012 -3.154822,24.09802 -0.960189,7.9679 -1.828514,15.86166 -2.603644,23.65317 2.824197,-1.67989 5.644664,-3.34902 8.457776,-5.00498 2.813111,-1.65595 5.618867,-3.29874 8.41364,-4.92595 2.794774,-1.62722 5.578562,-3.23886 8.347752,-4.83252 2.76918,-1.59367 5.52375,-3.16936 8.26009,-4.72467 2.73634,-1.55532 5.45445,-3.09025 8.15069,-4.60241 2.69625,-1.51216 5.37063,-3.00154 8.01952,-4.46573 2.6489,-1.4642 5.27231,-2.90321 7.8666,-4.31465 2.5943,-1.41143 5.15948,-2.79527 7.69192,-4.14913 2.53244,-1.35386 5.03214,-2.67774 7.49547,-3.96923 2.46333,-1.29148 4.8903,-2.55058 7.27727,-3.77489 2.38698,-1.2243 4.73396,-2.41382 7.03732,-3.56614 2.30336,-1.15233 4.5631,-2.26746 6.7756,-3.34299 2.2125,-1.07554 4.37775,-2.11147 6.49213,-3.10542 2.11438,-0.99394 4.17789,-1.94588 6.1869,-2.85343 2.00901,-0.90754 3.96352,-1.77069 5.85991,-2.58703 1.89639,-0.81634 3.73465,-1.58588 5.51116,-2.30622 0.58457,-0.2848 1.19119,-0.55076 1.81944,-0.79632 0.62824,-0.24556 1.27811,-0.47071 1.94917,-0.67387 0.67105,-0.20316 1.3633,-0.38434 2.07631,-0.54196 0.71301,-0.15762 1.44678,-0.29167 2.20088,-0.40059 0.7541,-0.10891 1.52853,-0.19269 2.32285,-0.24976 0.79433,-0.0571 1.60855,-0.0874 2.44224,-0.0895 0.83369,-0.002 1.68685,0.0242 2.55904,0.0803 0.87219,0.0561 1.76342,0.14207 2.67325,0.25948 0.90983,0.11741 1.83827,0.26626 2.78488,0.44814 0.94661,0.18187 1.91139,0.39677 2.89392,0.64626 0.98252,0.24949 1.98279,0.53358 3.00037,0.85384 1.01758,0.32026 2.05247,0.6767 3.10424,1.07088 1.05177,0.39419 2.12042,0.82612 3.20552,1.29738 1.08509,0.47126 2.18664,0.98185 3.30421,1.53334 1.11756,0.55149 2.25114,1.14388 3.40031,1.77875 1.14917,0.63487 2.31393,1.31222 3.49384,2.03363 1.08461,0.62707 2.13492,1.23746 3.15593,1.83402 1.02101,0.59657 2.01273,1.17931 2.98015,1.7511 0.96743,0.57178 1.91057,1.1326 2.83442,1.68532 0.92386,0.55272 1.82843,1.09734 2.71874,1.63672 0.8903,0.53938 1.76633,1.07352 2.6331,1.60528 0.86677,0.53176 1.72427,1.06114 2.57751,1.59101 0.85325,0.52986 1.70224,1.0602 2.55198,1.59388 0.84974,0.53368 1.70024,1.07071 2.55649,1.61393 0.85626,0.54323 1.71827,1.09265 2.59105,1.65114 0.87278,0.55849 1.75633,1.12604 2.65566,1.70552 0.89933,0.57947 1.81443,1.17086 2.75032,1.77704 0.93589,0.60618 1.89256,1.22714 2.87502,1.86575 0.98247,0.6386 1.99073,1.29485 3.02978,1.9716 1.03906,0.67675 2.10892,1.37401 3.21459,2.09463 1.10567,0.72062 2.24714,1.4646 3.42944,2.23481 1.18229,0.77021 2.4054,1.56664 3.67434,2.39216 -0.63601,-6.86702 -1.40261,-13.82272 -2.29324,-20.84596 -0.89062,-7.02324 -1.90528,-14.11401 -3.03742,-21.25118 -1.13215,-7.13716 -2.38177,-14.32072 -3.74232,-21.52952 -1.36055,-7.2088 -2.83203,-14.44284 -4.40788,-21.68097 -1.57586,-7.23814 -3.25609,-14.48037 -5.03414,-21.70555 -1.77806,-7.22518 -3.65394,-14.43331 -5.62109,-21.60324 -1.96716,-7.16993 -4.02558,-14.30166 -6.16873,-21.37404 -2.14314,-7.07239 -4.37101,-14.08543 -6.67704,-21.01797 -2.30604,-6.93255 -4.69024,-13.7846 -7.14606,-20.53501 -2.45583,-6.75041 -4.98326,-13.39918 -7.57576,-19.92516 -2.59251,-6.52598 -5.25007,-12.92918 -7.96615,-19.18844 -2.71608,-6.259261 -5.49067,-12.374586 -8.31722,-18.324829 -2.82656,-5.950243 -5.70507,-11.735404 -8.62899,-17.334336 -2.92392,-5.598932 -5.89325,-11.011635 -8.90144,-16.216961 -3.00819,-5.205326 -6.05523,-10.203276 -9.13458,-14.972701 -3.07935,-4.769426 -6.191,-9.310329 -9.32841,-13.60156 z m 1.0293,49.289063 0.74329,4.067017 0.74328,4.067016 0.74329,4.067017 0.74328,4.067016 0.74329,4.067017 0.74328,4.067016 0.74329,4.067015 0.74329,4.06702 0.74328,4.06701 0.74329,4.06702 0.74328,4.06702 0.74329,4.06701 0.74328,4.06702 0.74329,4.06702 0.74328,4.06701 0.74329,4.06702 2.32752,0.55884 2.32751,0.55884 2.32752,0.55883 2.32751,0.55884 2.32752,0.55884 2.32751,0.55884 2.32752,0.55884 2.32751,0.55884 2.32752,0.55883 2.32751,0.55884 2.32752,0.55884 2.32751,0.55884 2.32752,0.55884 2.32751,0.55883 2.32752,0.55884 2.32751,0.55884 -2.13782,0.71667 -2.13781,0.71668 -2.13782,0.71667 -2.13782,0.71668 -2.13782,0.71667 -2.13781,0.71668 -2.13782,0.71667 -2.13782,0.71667 -2.13782,0.71668 -2.13781,0.71667 -2.13782,0.71668 -2.13782,0.71667 -2.13782,0.71668 -2.13781,0.71667 -2.13782,0.71668 -2.13782,0.71667 0.23181,1.65405 0.23181,1.65406 0.23181,1.65405 0.23181,1.65405 0.23182,1.65406 0.23181,1.65405 0.23181,1.65405 0.23181,1.65406 0.23181,1.65405 0.23181,1.65405 0.23181,1.65405 0.23182,1.65406 0.23181,1.65405 0.23181,1.65405 0.23181,1.65406 0.23181,1.65405 -1.25928,-1.5061 -1.25927,-1.50611 -1.25928,-1.5061 -1.25928,-1.5061 -1.25927,-1.50611 -1.25928,-1.5061 -1.25928,-1.50611 -1.25927,-1.5061 -1.25928,-1.5061 -1.25928,-1.50611 -1.25928,-1.5061 -1.25927,-1.5061 -1.25928,-1.50611 -1.25928,-1.5061 -1.25927,-1.50611 -1.25928,-1.5061 -1.18823,1.521 -1.18823,1.52099 -1.18824,1.521 -1.18823,1.521 -1.18823,1.52099 -1.18823,1.521 -1.18824,1.52099 -1.18823,1.521 -1.18823,1.521 -1.18823,1.52099 -1.18824,1.521 -1.18823,1.521 -1.18823,1.52099 -1.18823,1.521 -1.18824,1.52099 -1.18823,1.521 0.18909,-1.67053 0.18908,-1.67053 0.18909,-1.67054 0.18909,-1.67053 0.18908,-1.67053 0.18909,-1.67053 0.18909,-1.67054 0.18909,-1.67053 0.18908,-1.67053 0.18909,-1.67053 0.18909,-1.67054 0.18908,-1.67053 0.18909,-1.67053 0.18909,-1.67053 0.18908,-1.67054 0.18909,-1.67053 -2.09778,-0.71497 -2.09778,-0.71496 -2.09777,-0.71497 -2.09778,-0.71496 -2.09778,-0.71497 -2.09778,-0.71496 -2.09778,-0.71497 -2.09777,-0.71496 -2.09778,-0.71497 -2.09778,-0.71497 -2.09778,-0.71496 -2.09778,-0.71497 -2.09778,-0.71496 -2.09777,-0.71497 -2.09778,-0.71496 -2.09778,-0.71497 2.24304,-0.55835 2.24304,-0.55835 2.24305,-0.55835 2.24304,-0.55835 2.24304,-0.55835 2.24304,-0.55835 2.24304,-0.55835 2.24304,-0.55834 2.24305,-0.55835 2.24304,-0.55835 2.24304,-0.55835 2.24304,-0.55835 2.24304,-0.55835 2.24305,-0.55835 2.24304,-0.55835 2.24304,-0.55835 0.94836,-4.06763 0.94837,-4.06762 0.94836,-4.06763 0.94837,-4.06763 0.94836,-4.06763 0.94837,-4.06762 0.94836,-4.06763 0.94836,-4.06763 0.94837,-4.06762 0.94836,-4.067631 0.94837,-4.067627 0.94836,-4.067627 0.94837,-4.067628 0.94836,-4.067627 0.94837,-4.067627 z"
       id="path18-5-7-5"
       transform="scale(0.26458333)"
       inkscape:connector-curvature="0"
       sodipodi:nodetypes="cssssssssssssssscssssssssssssssscssssssssssssssscssssssssssssssscssssssssssssssscccccccccccccccccccccccccccccccccccccccccccccccccccccccccccccccccccccccccccccccccccccccccccccccccccccccccccccccccccccccccccccccccccccccccccccccccccccccccccccccccc" /></g><g
     id="g950"
     inkscape:groupmode="layer"
     inkscape:label="F.Mask"
     style="display:none"><path
       sodipodi:nodetypes="cssssssssssssssssssssssssssssscssssssssssssssscssssssssssssssscssssssssssssssscsssssssssssssssssssssssssssssc"
       inkscape:connector-curvature="0"
       transform="scale(0.26458333)"
       id="path948"
       d="m 181.89258,25.251953 c -1.70812,1.933562 -3.39828,3.954006 -5.0703,6.057817 -1.67203,2.103812 -3.32591,4.290991 -4.9615,6.558024 -1.63559,2.267033 -3.25287,4.61392 -4.85169,7.037147 -1.59881,2.423227 -3.17916,4.922794 -4.74087,7.495187 -1.56171,2.572393 -3.10479,5.217612 -4.62906,7.932143 -1.52428,2.714531 -3.02976,5.498375 -4.51626,8.348016 -1.4865,2.849641 -2.95404,5.765081 -4.40245,8.742805 -1.4484,2.977725 -2.87767,6.017733 -4.28764,9.116512 -1.40997,3.098777 -2.80063,6.256326 -4.17183,9.469132 -1.3712,3.212807 -2.72292,6.480874 -4.05502,9.800674 -1.3321,3.31981 -2.64456,6.69135 -3.93722,10.11113 -1.29266,3.41978 -2.56553,6.88778 -3.81842,10.4005 -1.25289,3.51272 -2.48582,7.07015 -3.69861,10.66879 -1.21279,3.59864 -2.40544,7.23848 -3.5778,10.916 -1.17235,3.67753 -2.32441,7.39274 -3.456,11.14212 -1.13159,3.74938 -2.24271,7.53294 -3.3332,11.34716 -1.09049,3.81422 -2.16034,7.65909 -3.2094,11.53111 -1.04905,3.87202 -2.0773,7.77119 -3.08459,11.69399 -1.00728,3.9228 -1.9936,7.86922 -2.95879,11.83577 -0.96519,3.96655 -1.90924,7.95321 -2.83199,11.95648 -0.92275,4.00327 -1.8242,8.02314 -2.704188,12.0561 -0.879986,4.03296 -1.738507,8.07902 -2.575393,12.13464 -0.836886,4.05563 -1.652138,8.12083 -2.445591,12.19209 -0.793453,4.07127 -1.565106,8.1486 -2.314793,12.22847 -0.749687,4.07988 -1.477407,8.1623 -2.182995,12.24375 -0.705587,4.08146 -1.389042,8.16195 -2.050197,12.23796 -1.322312,8.15203 -2.555423,16.28613 -3.698005,24.3742 -1.142582,8.08808 -2.194633,16.13012 -3.154822,24.09802 -0.480094,3.98395 -0.937223,7.94937 -1.371219,11.89273 -0.433996,3.94337 -0.84486,7.86469 -1.232425,11.76044 2.824197,-1.67989 5.644664,-3.34902 8.457776,-5.00498 2.813111,-1.65595 5.618867,-3.29874 8.41364,-4.92595 2.794774,-1.62722 5.578562,-3.23886 8.347752,-4.83252 2.76918,-1.59367 5.52375,-3.16936 8.26009,-4.72467 2.73634,-1.55532 5.45445,-3.09025 8.15069,-4.60241 2.69625,-1.51216 5.37063,-3.00154 8.01952,-4.46573 2.6489,-1.4642 5.27231,-2.90321 7.8666,-4.31465 2.5943,-1.41143 5.15948,-2.79527 7.69192,-4.14913 2.53244,-1.35386 5.03214,-2.67774 7.49547,-3.96923 2.46333,-1.29148 4.8903,-2.55058 7.27727,-3.77489 2.38698,-1.2243 4.73396,-2.41382 7.03732,-3.56614 2.30336,-1.15233 4.5631,-2.26746 6.7756,-3.34299 2.2125,-1.07554 4.37775,-2.11147 6.49213,-3.10542 2.11438,-0.99394 4.17789,-1.94588 6.1869,-2.85343 2.00901,-0.90754 3.96352,-1.77069 5.85991,-2.58703 1.89639,-0.81634 3.73465,-1.58588 5.51116,-2.30622 0.58457,-0.2848 1.19119,-0.55076 1.81944,-0.79632 0.62824,-0.24556 1.27811,-0.47071 1.94917,-0.67387 0.67105,-0.20316 1.3633,-0.38434 2.07631,-0.54196 0.71301,-0.15762 1.44678,-0.29167 2.20088,-0.40059 0.7541,-0.10891 1.52853,-0.19269 2.32285,-0.24976 0.79433,-0.0571 1.60855,-0.0874 2.44224,-0.0895 0.83369,-0.002 1.68685,0.0242 2.55904,0.0803 0.87219,0.0561 1.76342,0.14207 2.67325,0.25948 0.90983,0.11741 1.83827,0.26626 2.78488,0.44814 0.94661,0.18187 1.91139,0.39677 2.89392,0.64626 0.98252,0.24949 1.98279,0.53358 3.00037,0.85384 1.01758,0.32026 2.05247,0.6767 3.10424,1.07088 1.05177,0.39419 2.12042,0.82612 3.20552,1.29738 1.08509,0.47126 2.18664,0.98185 3.30421,1.53334 1.11756,0.55149 2.25114,1.14388 3.40031,1.77875 1.14917,0.63487 2.31393,1.31222 3.49384,2.03363 1.08461,0.62707 2.13492,1.23746 3.15593,1.83402 1.02101,0.59657 2.01273,1.17931 2.98015,1.7511 0.96743,0.57178 1.91057,1.1326 2.83442,1.68532 0.92386,0.55272 1.82843,1.09734 2.71874,1.63672 0.8903,0.53938 1.76633,1.07352 2.6331,1.60528 0.86677,0.53176 1.72427,1.06114 2.57751,1.59101 0.85325,0.52986 1.70224,1.0602 2.55198,1.59388 0.84974,0.53368 1.70024,1.07071 2.55649,1.61393 0.85626,0.54323 1.71827,1.09265 2.59105,1.65114 0.87278,0.55849 1.75633,1.12604 2.65566,1.70552 0.89933,0.57947 1.81443,1.17086 2.75032,1.77704 0.93589,0.60618 1.89256,1.22714 2.87502,1.86575 0.98247,0.6386 1.99073,1.29485 3.02978,1.9716 1.03906,0.67675 2.10892,1.37401 3.21459,2.09463 1.10567,0.72062 2.24714,1.4646 3.42944,2.23481 1.18229,0.77021 2.4054,1.56664 3.67434,2.39216 -0.318,-3.43351 -0.66866,-6.88919 -1.05114,-10.3644 -0.38248,-3.47521 -0.79678,-6.96994 -1.2421,-10.48156 -0.44531,-3.51162 -0.92163,-7.04012 -1.42814,-10.58287 -0.50651,-3.54274 -1.04321,-7.09973 -1.60928,-10.66831 -1.13214,-7.13716 -2.38177,-14.32072 -3.74232,-21.52952 -1.36055,-7.2088 -2.83202,-14.44284 -4.40788,-21.68097 -0.78793,-3.61907 -1.60195,-7.23916 -2.44125,-10.85763 -0.83929,-3.61848 -1.70386,-7.23533 -2.59289,-10.84792 -0.88903,-3.61259 -1.80251,-7.22092 -2.73963,-10.82234 -0.93713,-3.60142 -1.89788,-7.19593 -2.88146,-10.7809 -0.98358,-3.58497 -1.98997,-7.16038 -3.01837,-10.7236 -1.02839,-3.56322 -2.07878,-7.11425 -3.15036,-10.65044 -1.07158,-3.53619 -2.16433,-7.05755 -3.27744,-10.56143 -1.11311,-3.50387 -2.24658,-6.99027 -3.3996,-10.45654 -1.15302,-3.46628 -2.32558,-6.91243 -3.51686,-10.33581 -1.19128,-3.42338 -2.40129,-6.824 -3.6292,-10.1992 -1.22791,-3.37521 -2.47373,-6.725 -3.73663,-10.04674 -1.2629,-3.32174 -2.54288,-6.61543 -3.83913,-9.87842 -1.29625,-3.26299 -2.60877,-6.49529 -3.93673,-9.69424 -1.32797,-3.19896 -2.67138,-6.36457 -4.02942,-9.4942 -1.35804,-3.12963 -2.73071,-6.223277 -4.11718,-9.278296 -1.38648,-3.055019 -2.78676,-6.071411 -4.20004,-9.046533 -1.41328,-2.975123 -2.83954,-5.908974 -4.27798,-8.798911 -1.43844,-2.889937 -2.88905,-5.735959 -4.35101,-8.535425 -1.46196,-2.799466 -2.93527,-5.552375 -4.41912,-8.256083 -1.48384,-2.703708 -2.97822,-5.358215 -4.48232,-7.960878 -1.50409,-2.602663 -3.0179,-5.153482 -4.5406,-7.649813 -1.52271,-2.496332 -3.0543,-4.938176 -4.59398,-7.322888 -1.53968,-2.384713 -3.08743,-4.712295 -4.64243,-6.980103 -1.55501,-2.267808 -3.11727,-4.475841 -4.68598,-6.621457 z"
       style="display:inline;fill:#000000;fill-opacity:1;fill-rule:evenodd;stroke:#000000;stroke-width:0.15955128;stroke-opacity:1" /></g><g
     id="g863"
     inkscape:groupmode="layer"
     inkscape:label="F.Silk"
     style="display:inline"><path
       style="fill:#000000;fill-opacity:1;stroke:#000000;stroke-width:1.01848316;stroke-miterlimit:4;stroke-dasharray:none;stroke-opacity:1"
       d="m 75.55718,364.74708 c 0,-0.45318 0.01472,-1.03043 0.04304,-1.72025 0.02832,-0.68983 0.07025,-1.49222 0.124668,-2.39569 0.05442,-0.90348 0.121337,-1.90802 0.199638,-3.00214 0.0783,-1.09412 0.167986,-2.27782 0.267946,-3.53959 0.09996,-1.26178 0.210193,-2.60162 0.329591,-4.00805 0.119398,-1.40643 0.247959,-2.87944 0.384574,-4.40752 0.136616,-1.52809 0.281284,-3.11125 0.432896,-4.73799 0.151612,-1.62675 0.310167,-3.29707 0.474556,-4.99948 0.164388,-1.7024 0.334608,-3.43689 0.509552,-5.19196 0.174943,-1.75507 0.354609,-3.53072 0.537887,-5.31546 0.183278,-1.78474 0.370169,-3.57856 0.559561,-5.36996 0.189392,-1.79141 0.381286,-3.5804 0.574571,-5.35548 0.193285,-1.77508 0.387962,-3.53624 0.58292,-5.27199 0.194958,-1.73575 0.390197,-3.44609 0.584607,-5.11952 0.194409,-1.67343 0.38799,-3.30994 0.579631,-4.89805 0.191641,-1.58811 0.381343,-3.1278 0.567994,-4.60759 0.935211,-7.41443 1.932758,-14.71459 2.99309,-21.90179 1.060333,-7.1872 2.183452,-14.26144 3.369807,-21.22402 1.186356,-6.96259 2.435948,-13.81351 3.749229,-20.55408 1.31328,-6.74057 2.690248,-13.37078 4.131355,-19.89194 1.441107,-6.52116 2.946352,-12.93327 4.516187,-19.23764 1.56983,-6.30436 3.20426,-12.50097 4.90372,-18.59114 1.69947,-6.09017 3.46397,-12.07389 5.29397,-17.95247 1.83,-5.87858 3.72549,-11.65202 5.68692,-17.32162 1.96143,-5.66961 3.9888,-11.23537 6.08257,-16.6986 2.09376,-5.46322 4.25392,-10.82391 6.48092,-16.08337 2.22701,-5.25946 4.52085,-10.417693 6.88199,-15.475992 2.36115,-5.058299 4.78958,-10.016669 7.28576,-14.876414 2.49619,-4.859745 5.06011,-9.620865 7.69224,-14.284662 2.63212,-4.663797 5.33244,-9.230272 8.10141,-13.700728 2.76897,-4.470456 5.60659,-8.844894 8.5133,-13.124615 2.90672,-4.279722 5.88253,-8.464728 8.92789,-12.556321 0.23024,-0.309342 0.45052,-0.60371 0.66135,-0.88362 0.21084,-0.27991 0.41223,-0.545362 0.60471,-0.796872 0.19247,-0.251511 0.37603,-0.489079 0.55119,-0.713221 0.17517,-0.224143 0.34194,-0.43486 0.50084,-0.632667 0.15889,-0.197807 0.30992,-0.382704 0.4536,-0.555208 0.14368,-0.172504 0.28002,-0.332615 0.40953,-0.480847 0.12951,-0.148233 0.2522,-0.284589 0.36859,-0.409583 0.11639,-0.124994 0.22648,-0.238627 0.3308,-0.341415 0.10431,-0.102787 0.20285,-0.194729 0.29614,-0.276343 0.0933,-0.08161 0.18133,-0.152897 0.26464,-0.214368 0.0833,-0.06147 0.16189,-0.113129 0.23627,-0.15549 0.0744,-0.04236 0.14455,-0.07543 0.21104,-0.09971 0.0665,-0.02428 0.12931,-0.03979 0.18896,-0.04702 0.0597,-0.0072 0.11616,-0.0062 0.17003,0.0026 0.0539,0.0088 0.1051,0.0253 0.15423,0.04906 0.0491,0.02376 0.0961,0.05475 0.14157,0.09245 0.0813,0.0675 0.20364,0.199579 0.36322,0.390704 0.15957,0.191125 0.35642,0.441299 0.58684,0.744999 0.23041,0.303701 0.49441,0.660927 0.78827,1.066156 0.29387,0.405229 0.61761,0.858461 0.96754,1.354173 0.34992,0.495712 0.72602,1.033904 1.1246,1.609053 0.39858,0.575149 0.81964,1.187254 1.25949,1.830794 0.43984,0.643539 0.89847,1.318512 1.37219,2.019396 0.47371,0.700884 0.96252,1.427678 1.46271,2.17486 0.50019,0.747183 1.01177,1.514752 1.53104,2.297187 0.51927,0.782434 1.04624,1.579733 1.57719,2.386373 0.53096,0.806641 1.06591,1.622623 1.60116,2.442423 0.53525,0.8198 1.0708,1.643419 1.60295,2.465333 0.53214,0.821914 1.06089,1.642123 1.58254,2.455105 0.52164,0.812982 1.03619,1.618735 1.53995,2.411739 0.50375,0.793003 0.99671,1.573255 1.47518,2.335233 0.47847,0.761979 0.94244,1.505683 1.38823,2.225591 2.88152,4.65342 5.6974,9.370211 8.4467,14.147446 2.7493,4.777235 5.43201,9.614914 8.0472,14.510109 2.61518,4.895195 5.16284,9.847906 7.64202,14.855206 2.47918,5.0073 4.88989,10.069188 7.23117,15.182736 2.34129,5.11355 4.61315,10.27876 6.81464,15.4927 2.2015,5.21395 4.33263,10.47662 6.39244,15.78511 2.05982,5.30848 4.04832,10.66277 5.96456,16.05994 1.91624,5.39717 3.76023,10.83722 5.53101,16.31721 1.77077,5.48 3.46835,10.99995 5.09177,16.55692 1.62342,5.55698 3.17269,11.15097 4.64686,16.77906 1.47418,5.6281 2.87325,11.29028 4.19629,16.98364 1.32303,5.69336 2.57002,11.41788 3.74002,17.17065 1.17001,5.75276 2.26302,11.53377 3.2781,17.34009 1.01507,5.80632 1.95222,11.63795 2.81048,17.49197 0.85826,5.85402 1.63764,11.73042 2.33719,17.62628 0.69956,5.89587 1.31929,11.81119 1.85824,17.74304 0.0778,0.85606 0.15564,1.7424 0.23318,2.65198 0.0775,0.90958 0.15473,1.84241 0.23119,2.79146 0.0765,0.94905 0.15216,1.91432 0.22671,2.88878 0.0745,0.97446 0.14794,1.95811 0.21975,2.94393 0.0718,0.98581 0.14205,1.97379 0.2103,2.9569 0.0682,0.98312 0.13451,1.96137 0.19836,2.92773 0.0639,0.96635 0.1253,1.92082 0.18393,2.85637 0.0586,0.93554 0.11443,1.85217 0.16701,2.74285 0.0526,0.89068 0.10191,1.75541 0.1476,2.58716 0.0457,0.83176 0.0877,1.63054 0.1257,2.38931 0.038,0.75878 0.0719,1.47755 0.10131,2.14929 0.0294,0.67174 0.0544,1.29645 0.0745,1.8671 0.0201,0.57065 0.0352,1.08725 0.0451,1.54275 0.01,0.4555 0.0144,0.84992 0.0132,1.17622 -0.001,0.32631 -0.008,0.5845 -0.0211,0.76754 -0.013,0.18305 -0.0322,0.29095 -0.0579,0.31668 -0.0265,0.0265 -0.0718,0.0398 -0.14071,0.0371 -0.069,-0.003 -0.16163,-0.0214 -0.28302,-0.059 -0.12138,-0.0376 -0.27146,-0.094 -0.45524,-0.17208 -0.18377,-0.0781 -0.40123,-0.17784 -0.65737,-0.30208 -0.25614,-0.12424 -0.55095,-0.27297 -0.88942,-0.44901 -0.33847,-0.17604 -0.7206,-0.37938 -1.15138,-0.61286 -0.43077,-0.23348 -0.91019,-0.49709 -1.44324,-0.79365 -0.53305,-0.29657 -1.11973,-0.62609 -1.76503,-0.99138 -0.64529,-0.36529 -1.3492,-0.76636 -2.11671,-1.20603 -0.76751,-0.43967 -1.59862,-0.91793 -2.49832,-1.43762 -0.8997,-0.51968 -1.86798,-1.08079 -2.90983,-1.68613 -1.04185,-0.60535 -2.15728,-1.25494 -3.35126,-1.9516 -1.19398,-0.69665 -2.46651,-1.44037 -3.82259,-2.23397 -1.35608,-0.7936 -2.7957,-1.63709 -4.32384,-2.53329 -1.52815,-0.8962 -3.14482,-1.84511 -4.85501,-2.84955 -1.71018,-1.00443 -3.51388,-2.0644 -5.41607,-3.18272 -0.91474,-0.53778 -1.825,-1.07152 -2.72823,-1.59979 -0.90323,-0.52826 -1.79942,-1.05104 -2.68601,-1.5669 -0.8866,-0.51586 -1.7636,-1.02481 -2.62844,-1.5254 -0.86484,-0.50059 -1.71752,-0.99282 -2.55548,-1.47526 -0.83796,-0.48245 -1.6612,-0.9551 -2.46716,-1.41652 -0.80596,-0.46142 -1.59463,-0.91161 -2.36346,-1.34913 -0.76884,-0.43752 -1.51783,-0.86238 -2.24441,-1.27313 -0.72658,-0.41075 -1.43076,-0.8074 -2.10997,-1.18851 -0.67921,-0.3811 -1.33345,-0.74667 -1.96017,-1.09525 -0.62671,-0.34859 -1.2259,-0.68019 -1.795,-0.99338 -0.56909,-0.31319 -1.1081,-0.60796 -1.61445,-0.88288 -0.50635,-0.27492 -0.98005,-0.52998 -1.41854,-0.76376 -0.43849,-0.23377 -0.84176,-0.44625 -1.20726,-0.636 -0.36549,-0.18976 -0.69322,-0.35678 -0.9806,-0.49964 -0.28739,-0.14286 -0.53443,-0.26155 -0.73858,-0.35464 -0.20415,-0.0931 -0.3654,-0.16058 -0.48119,-0.20102 -0.34527,-0.1206 -0.70913,-0.23442 -1.08957,-0.3414 -0.38044,-0.10699 -0.77745,-0.20715 -1.18899,-0.30044 -0.41155,-0.0933 -0.83763,-0.17973 -1.27622,-0.25926 -0.43859,-0.0795 -0.88969,-0.15215 -1.35126,-0.21784 -0.46158,-0.0657 -0.93362,-0.12443 -1.41412,-0.1762 -0.48049,-0.0518 -0.96943,-0.0966 -1.46478,-0.13433 -0.49535,-0.0378 -0.99711,-0.0685 -1.50326,-0.0922 -0.50614,-0.0237 -1.01667,-0.0403 -1.52955,-0.0499 -0.51287,-0.01 -1.0281,-0.012 -1.54365,-0.007 -0.51555,0.005 -1.03141,0.0165 -1.54556,0.0354 -0.51416,0.0189 -1.0266,0.0451 -1.5353,0.0784 -0.50869,0.0333 -1.01365,0.0739 -1.51283,0.12165 -0.49917,0.0478 -0.99258,0.1028 -1.47818,0.1651 -0.48559,0.0623 -0.96339,0.13189 -1.43134,0.20879 -0.46795,0.0769 -0.92607,0.16113 -1.37232,0.25271 -0.44624,0.0916 -0.88062,0.19051 -1.3011,0.29684 -0.48163,0.12179 -1.00896,0.27351 -1.5835,0.4559 -0.57455,0.18239 -1.1963,0.39545 -1.86676,0.63992 -0.67046,0.24447 -1.38963,0.52036 -2.15901,0.8284 -0.76938,0.30804 -1.58897,0.64823 -2.46027,1.02132 -0.87129,0.3731 -1.7943,0.77909 -2.77052,1.21872 -0.97621,0.43963 -2.00564,0.9129 -3.08978,1.42056 -1.08414,0.50766 -2.22298,1.0497 -3.41804,1.62687 -1.19506,0.57716 -2.44632,1.18946 -3.7553,1.83762 -1.30898,0.64817 -2.67567,1.3322 -4.10157,2.05285 -1.4259,0.72065 -2.91101,1.47791 -4.45683,2.27252 -1.54582,0.79462 -3.15235,1.62659 -4.8211,2.49666 -1.66874,0.87006 -3.3997,1.77823 -5.19437,2.72524 -1.79466,0.94701 -3.65304,1.93286 -5.57663,2.95829 -1.92359,1.02544 -3.9124,2.09046 -5.96791,3.1958 -2.05552,1.10535 -4.17774,2.25102 -6.36818,3.43776 -2.19044,1.18674 -4.44909,2.41455 -6.77746,3.68418 -1.96823,1.07325 -3.89201,2.12087 -5.77053,3.14246 -1.87853,1.02158 -3.71181,2.01713 -5.49906,2.98621 -1.78725,0.96909 -3.52845,1.91172 -5.22283,2.82747 -1.69439,0.91575 -3.34194,1.80463 -4.94187,2.66621 -1.59994,0.86159 -3.15226,1.69588 -4.65616,2.50246 -1.50391,0.80659 -2.95941,1.58546 -4.36571,2.33621 -1.4063,0.75074 -2.7634,1.47336 -4.07051,2.16744 -1.30711,0.69407 -2.564232,1.35961 -3.770572,1.99618 -1.20634,0.63657 -2.361899,1.24418 -3.465888,1.82241 -1.103988,0.57823 -2.156405,1.12708 -3.15646,1.64614 -1.000056,0.51906 -1.947749,1.00832 -2.84229,1.46737 -0.894541,0.45905 -1.73593,0.88789 -2.523375,1.28609 -0.787446,0.39821 -1.520948,0.76579 -2.199717,1.10232 -0.678769,0.33653 -1.302804,0.64201 -1.871315,0.91603 -0.568511,0.27402 -1.081498,0.51657 -1.53817,0.72724 -0.456672,0.21068 -0.857029,0.38947 -1.20028,0.53596 l -0.2,0.0854 -0.2,0.0854 -0.2,0.0854 -0.2,0.0854 -0.2,0.0854 -0.2,0.0854 -0.2,0.0854 -0.2,0.0854 -0.2,0.0854 -0.2,0.0854 -0.2,0.0854 -0.2,0.0854 -0.2,0.0854 -0.2,0.0854 -0.2,0.0853 -0.2,0.0854 v -0.16439 -0.16438 -0.16439 -0.16439 -0.16438 -0.16439 -0.16439 -0.16438 -0.16439 -0.16439 -0.16439 -0.16438 -0.16439 -0.16439 -0.16438 z m 8.016799,-4.61641 c 3.039085,-1.76253 5.982329,-3.46605 8.83529,-5.11357 2.85296,-1.64752 5.615638,-3.23904 8.293591,-4.77758 2.67795,-1.53855 5.27118,-3.02412 7.78525,-4.45973 2.51406,-1.43561 4.94895,-2.82127 7.31024,-4.15999 2.36129,-1.33873 4.64897,-2.63051 6.8686,-3.87839 2.21964,-1.24787 4.37122,-2.45183 6.46031,-3.6149 2.08909,-1.16306 4.11569,-2.28524 6.08536,-3.36954 1.96967,-1.0843 3.8824,-2.13072 5.74376,-3.1423 1.86136,-1.01158 3.67135,-1.9883 5.43552,-2.93319 1.76417,-0.9449 3.48253,-1.85796 5.16063,-2.74221 1.6781,-0.88425 3.31594,-1.73969 4.91908,-2.56935 1.60314,-0.82965 3.17158,-1.63351 4.71088,-2.4146 1.53931,-0.7811 3.04947,-1.53942 4.53605,-2.278 1.48658,-0.73858 2.94957,-1.45741 4.39455,-2.15951 1.44497,-0.7021 2.87192,-1.38748 4.28641,-2.05914 1.41448,-0.67167 2.8165,-1.32963 4.21161,-1.97691 1.40729,-0.65293 2.72242,-1.26368 3.95375,-1.83497 1.23132,-0.57129 2.37885,-1.10313 3.45092,-1.59824 1.07208,-0.49511 2.06872,-0.95348 2.99826,-1.37785 0.92955,-0.42437 1.79202,-0.81473 2.59576,-1.1738 0.80374,-0.35908 1.54875,-0.68687 2.2434,-0.9861 0.69465,-0.29923 1.33893,-0.56989 1.94121,-0.81473 0.60227,-0.24483 1.16254,-0.46382 1.68917,-0.6597 0.52662,-0.19588 1.0196,-0.36865 1.48729,-0.52103 0.46769,-0.15237 0.91009,-0.28436 1.33557,-0.39868 0.40503,-0.11647 0.81,-0.22445 1.21509,-0.32425 0.40508,-0.0998 0.81029,-0.19139 1.21582,-0.27509 0.40553,-0.0837 0.81137,-0.15948 1.21773,-0.22764 0.40635,-0.0682 0.81322,-0.12871 1.22079,-0.18192 0.40757,-0.0532 0.81584,-0.0991 1.22501,-0.13791 0.40917,-0.0388 0.81924,-0.0706 1.2304,-0.0956 0.41116,-0.025 0.82341,-0.0433 1.23695,-0.055 0.41354,-0.0118 0.82836,-0.0171 1.24466,-0.0162 0.44115,0.0159 0.85381,0.0355 1.24213,0.0583 0.38832,0.0228 0.7523,0.0488 1.09609,0.0777 0.3438,0.0288 0.66742,0.0605 0.97502,0.0944 0.3076,0.034 0.59917,0.0703 0.87889,0.10861 0.27972,0.0383 0.54757,0.0785 0.80773,0.12022 0.26015,0.0417 0.51261,0.0849 0.76152,0.12924 0.24892,0.0443 0.49429,0.0897 0.74028,0.13566 0.24599,0.046 0.4926,0.0926 0.74399,0.13951 0.23772,0.0287 0.46934,0.0601 0.69656,0.0943 0.22722,0.0342 0.45003,0.0713 0.67012,0.11133 0.22009,0.0401 0.43746,0.0832 0.6538,0.12956 0.21633,0.0464 0.43163,0.096 0.64758,0.14903 0.21596,0.053 0.43256,0.10955 0.6515,0.16971 0.21894,0.0602 0.44021,0.12396 0.66551,0.19162 0.2253,0.0677 0.45463,0.13918 0.68966,0.21476 0.23503,0.0756 0.47577,0.15522 0.72391,0.23912 0.58198,0.19678 1.18076,0.4114 1.79837,0.64498 0.6176,0.23358 1.25403,0.48613 1.91128,0.75878 0.65725,0.27266 1.33533,0.56543 2.03625,0.87944 0.70092,0.31401 1.42468,0.64927 2.17329,1.00691 0.74861,0.35764 1.52207,0.73767 2.32239,1.14123 0.80033,0.40355 1.62751,0.83063 2.48357,1.28238 0.85605,0.45174 1.74098,0.92815 2.65679,1.43036 0.91581,0.50221 1.8625,1.03022 2.84209,1.58518 0.97959,0.55496 1.99207,1.13686 3.03946,1.74684 1.04738,0.60998 2.12967,1.24804 3.24888,1.91533 1.1192,0.66728 2.27532,1.36378 3.47037,2.09065 1.19505,0.72686 2.42902,1.48409 3.70393,2.27281 1.27491,0.78872 2.59076,1.60894 3.94955,2.4618 1.3588,0.85287 2.76054,1.73836 4.20724,2.65764 1.4467,0.91928 2.93836,1.87233 4.47699,2.8603 1.53863,0.98797 3.12422,2.01086 4.7588,3.0698 0.45973,0.29783 0.91528,0.59228 1.36545,0.8826 0.45017,0.29032 0.89496,0.57652 1.33319,0.85785 0.43822,0.28133 0.86987,0.5578 1.29376,0.82866 0.42389,0.27086 0.84002,0.53612 1.24719,0.79503 0.40716,0.25891 0.80538,0.51148 1.19344,0.75695 0.38806,0.24548 0.76597,0.48387 1.13254,0.71444 0.36656,0.23057 0.72179,0.4533 1.06447,0.66748 0.34269,0.21417 0.67284,0.41977 0.98926,0.61607 0.31642,0.1963 0.61911,0.38329 0.90687,0.56023 0.28776,0.17695 0.5606,0.34384 0.81733,0.49995 0.25672,0.15611 0.49732,0.30143 0.72062,0.43522 0.22329,0.13379 0.42928,0.25606 0.61676,0.36605 0.18748,0.11 0.35645,0.20772 0.50573,0.29244 0.14928,0.0847 0.27886,0.15642 0.38755,0.21438 0.10869,0.058 0.19649,0.10217 0.2622,0.13189 0.0657,0.0297 0.10935,0.0449 0.1297,0.0449 0.0204,0 0.0399,-0.005 0.0586,-0.0148 0.0187,-0.01 0.0365,-0.0244 0.0535,-0.0436 0.017,-0.0191 0.0331,-0.0428 0.0483,-0.0708 0.0152,-0.028 0.0295,-0.0603 0.043,-0.0966 0.0134,-0.0364 0.0259,-0.0768 0.0375,-0.12097 0.0116,-0.0442 0.0222,-0.0922 0.0319,-0.14382 0.01,-0.0516 0.0184,-0.10674 0.0262,-0.16521 0.008,-0.0585 0.0145,-0.12026 0.0203,-0.18513 0.006,-0.0649 0.0106,-0.13282 0.0143,-0.20359 0.004,-0.0708 0.007,-0.14438 0.008,-0.22057 0.002,-0.0762 0.002,-0.15498 0.002,-0.2361 -4e-4,-0.0811 -0.002,-0.16458 -0.004,-0.25014 -0.003,-0.0856 -0.006,-0.17321 -0.0109,-0.26272 -0.005,-0.0895 -0.0106,-0.18087 -0.0176,-0.27384 -0.007,-0.093 -0.0151,-0.18755 -0.0243,-0.28349 -0.009,-0.0959 -0.0197,-0.19324 -0.0312,-0.29166 -0.27117,-2.30582 -0.53786,-4.54408 -0.80114,-6.72118 -0.26327,-2.17711 -0.52312,-4.29306 -0.78059,-6.35427 -0.25747,-2.06122 -0.51257,-4.06769 -0.76633,-6.02583 -0.25376,-1.95814 -0.50618,-3.86796 -0.75832,-5.73586 -0.25214,-1.86789 -0.50399,-3.69387 -0.7566,-5.48435 -0.25261,-1.79047 -0.50598,-3.54544 -0.76115,-5.27132 -0.25517,-1.72587 -0.51214,-3.42266 -0.77196,-5.09676 -0.25982,-1.6741 -0.52249,-3.32551 -0.78905,-4.96066 -0.26656,-1.63515 -0.53701,-3.25403 -0.8124,-4.86304 -0.2754,-1.60902 -0.55573,-3.20818 -0.84204,-4.80389 -0.28631,-1.59572 -0.57861,-3.18798 -0.87794,-4.78321 -0.29932,-1.59523 -0.60568,-3.19343 -0.92011,-4.801 -0.31443,-1.60757 -0.63693,-3.22452 -0.96855,-4.85725 -0.33162,-1.63274 -0.67236,-3.28126 -1.02327,-4.95198 -0.3509,-1.67073 -0.71197,-3.36365 -1.08425,-5.08518 -0.37228,-1.72154 -0.75577,-3.47168 -1.15151,-5.25685 -1.08229,-4.88215 -2.20794,-9.75325 -3.37494,-14.60801 -1.16701,-4.85476 -2.37537,-9.69317 -3.62308,-14.50994 -1.24771,-4.81678 -2.53479,-9.61192 -3.85921,-14.38012 -1.32443,-4.7682 -2.68622,-9.50947 -4.08337,-14.21851 -1.39714,-4.70904 -2.82965,-9.38585 -4.29552,-14.02514 -1.46587,-4.63929 -2.9651,-9.24106 -4.49569,-13.8 -1.53059,-4.55895 -3.09254,-9.07507 -4.68386,-13.54309 -1.59132,-4.46801 -3.212,-8.88791 -4.86005,-13.2544 -1.64805,-4.36649 -3.32346,-8.67958 -5.02424,-12.93395 -1.70079,-4.25438 -3.42693,-8.45006 -5.17645,-12.58173 -1.74952,-4.13168 -3.5224,-8.19936 -5.31666,-12.197742 -1.79426,-3.998384 -3.60988,-7.927474 -5.44488,-11.781975 -1.835,-3.854502 -3.68937,-7.634414 -5.56112,-11.334443 -1.87174,-3.700029 -3.76086,-7.320174 -5.66535,-10.85514 -1.90449,-3.534967 -3.82436,-6.984754 -5.7576,-10.344068 -1.93324,-3.359314 -3.87986,-6.628154 -5.83786,-9.801225 -0.35815,-0.580409 -0.72047,-1.163099 -1.08521,-1.745516 -0.36474,-0.582417 -0.73189,-1.164563 -1.09969,-1.743884 -0.3678,-0.579321 -0.73626,-1.155818 -1.10362,-1.726938 -0.36736,-0.571121 -0.73362,-1.136865 -1.09701,-1.69468 -0.3634,-0.557815 -0.72393,-1.107701 -1.07985,-1.647106 -0.35591,-0.539406 -0.70721,-1.06833 -1.05213,-1.584221 -0.34493,-0.515891 -0.68347,-1.018749 -1.01388,-1.506021 -0.33042,-0.487272 -0.65269,-0.958959 -0.96508,-1.412508 -0.31239,-0.453548 -0.61488,-0.88896 -0.90572,-1.303681 -0.29085,-0.414721 -0.57004,-0.808752 -0.83583,-1.17954 -0.26579,-0.370789 -0.51817,-0.718335 -0.75538,-1.040087 -0.23721,-0.321752 -0.45926,-0.617709 -0.66439,-0.88532 -0.20512,-0.26761 -0.39332,-0.506874 -0.56284,-0.715239 -0.16952,-0.208364 -0.32036,-0.38583 -0.45076,-0.529844 -0.1304,-0.144014 -0.24036,-0.254577 -0.32812,-0.329137 -0.0878,-0.07456 -0.15333,-0.113115 -0.19494,-0.113115 -0.10468,0 -0.24772,0.06159 -0.42585,0.180284 -0.17813,0.118694 -0.39135,0.29449 -0.63638,0.5229 -0.24504,0.22841 -0.52189,0.509435 -0.82728,0.838586 -0.3054,0.32915 -0.63934,0.706427 -0.99855,1.127342 -0.35921,0.420915 -0.74369,0.885468 -1.15017,1.38917 -0.40649,0.503702 -0.83497,1.046554 -1.28218,1.624068 -0.44721,0.577513 -0.91315,1.189688 -1.39454,1.832036 -0.48139,0.642348 -0.97824,1.31487 -1.48727,2.013076 -0.50903,0.698206 -1.03025,1.422098 -1.56037,2.167186 -0.53013,0.745088 -1.06917,1.511373 -1.61384,2.294366 -0.54468,0.782993 -1.09499,1.582695 -1.64768,2.394617 -0.55268,0.811922 -1.10773,1.636065 -1.66187,2.467939 -0.55414,0.831875 -1.10738,1.671482 -1.65644,2.514332 -0.54906,0.842851 -1.09394,1.688945 -1.63137,2.533795 -0.53743,0.84485 -1.06742,1.688455 -1.58668,2.526328 -0.51926,0.837873 -1.0278,1.670013 -1.52234,2.491933 -2.18976,3.639329 -4.36016,7.466718 -6.50858,11.472938 -2.14842,4.006219 -4.27487,8.191269 -6.37672,12.54592 -2.10186,4.354651 -4.17913,8.878902 -6.22921,13.563525 -2.05007,4.684623 -4.07295,9.529619 -6.06602,14.525749 -1.99307,4.99614 -3.95634,10.14342 -5.88719,15.43261 -1.93085,5.28919 -3.82929,10.72029 -5.6927,16.28408 -1.8634,5.56378 -3.69179,11.26025 -5.48254,17.08017 -1.79074,5.81992 -3.54386,11.76329 -5.25673,17.82089 -1.71286,6.0576 -3.38549,12.22942 -5.01525,18.50623 -1.62977,6.27682 -3.21668,12.65863 -4.75813,19.1362 -1.54145,6.47758 -3.03743,13.05091 -4.48534,19.71079 -1.447909,6.65987 -2.847743,13.40628 -4.196893,20.22999 -1.349149,6.82372 -2.647615,13.72473 -3.892786,20.69383 -1.245171,6.96909 -2.437049,14.00626 -3.573022,21.10228 -1.135973,7.09602 -2.216043,14.25088 -3.237599,21.45536 -1.021555,7.20448 -1.984597,14.45858 -2.886516,21.75306 -0.180604,1.46068 -0.351419,2.84536 -0.512816,4.15782 -0.161397,1.31246 -0.313377,2.55271 -0.456311,3.72455 -0.142934,1.17184 -0.276822,2.27526 -0.402037,3.31405 -0.125214,1.0388 -0.241755,2.01298 -0.349994,2.92633 -0.108239,0.91335 -0.208177,1.76588 -0.300184,2.56137 -0.09201,0.7955 -0.176085,1.53396 -0.252605,2.21919 -0.07652,0.68522 -0.145482,1.31721 -0.207258,1.89976 -0.06178,0.58255 -0.116367,1.11566 -0.164143,1.60312 -0.04778,0.48746 -0.08874,0.92928 -0.123259,1.32924 -0.03452,0.39996 -0.0626,0.75808 -0.08461,1.07813 -0.02201,0.32006 -0.03795,0.60206 -0.04819,0.8498 -0.01024,0.24774 -0.01478,0.46121 -0.014,0.64422 7.84e-4,0.18301 0.0069,0.33556 0.01796,0.46143 0.01106,0.12588 0.02708,0.22508 0.04768,0.3014 0.0206,0.0763 0.04578,0.12978 0.07518,0.16415 0.02939,0.0344 0.063,0.0496 0.10044,0.0496 0.01689,0 0.04141,-0.005 0.07313,-0.0134 0.03172,-0.009 0.07064,-0.022 0.116345,-0.0393 0.0457,-0.0172 0.09818,-0.0386 0.157024,-0.0638 0.05884,-0.0252 0.124039,-0.0543 0.195174,-0.087 0.07113,-0.0327 0.148205,-0.0691 0.23079,-0.10895 0.08258,-0.0398 0.170684,-0.0831 0.263875,-0.12953 0.09319,-0.0465 0.191475,-0.0961 0.294429,-0.1488 0.102954,-0.0527 0.210578,-0.10832 0.322451,-0.16674 0.111873,-0.0584 0.227994,-0.11962 0.347942,-0.18336 0.119947,-0.0637 0.243721,-0.13004 0.3709,-0.19866 0.127179,-0.0686 0.257762,-0.13957 0.391328,-0.21263 0.133566,-0.0731 0.270114,-0.14823 0.409223,-0.22529 0.139109,-0.0771 0.280779,-0.15601 0.424587,-0.23662 0.143809,-0.0806 0.289756,-0.1629 0.43742,-0.24664 0.147664,-0.0837 0.297045,-0.16891 0.447721,-0.25531 0.150676,-0.0864 0.302646,-0.17405 0.45549,-0.26269 z"
       id="path938"
       inkscape:connector-curvature="0"
       transform="scale(0.26458333)"
       sodipodi:nodetypes="sssssssssssssssssssssssssssssssssssssssssssssssscssssssssssssssssssssssssssssssssssssssssssssssscssssssssssssssssssssssssssssssscssssssssssssssscsssssssssssssssssssssssssssssssccccccccccccccccccccccccccccccccscsssssssssssssssssssssssscssssssscssssssscssssssssssssssssssssssssssssssssssssssssssssssssssssssssssssssssssssssssssssssssssssssssssssssssssssssssssssssssssssssssssssssssssssssssssssssssssssssssssssssssssssssssc" /></g><g
     id="g865"
     inkscape:groupmode="layer"
     inkscape:label="Drill"
     style="display:inline" /></svg>