G04 #@! TF.GenerationSoftware,KiCad,Pcbnew,5.1.4-e60b266~84~ubuntu18.04.1*
G04 #@! TF.CreationDate,2019-11-05T13:07:08-07:00*
G04 #@! TF.ProjectId,001,3030312e-6b69-4636-9164-5f7063625858,rev?*
G04 #@! TF.SameCoordinates,Original*
G04 #@! TF.FileFunction,Copper,L2,Bot*
G04 #@! TF.FilePolarity,Positive*
%FSLAX46Y46*%
G04 Gerber Fmt 4.6, Leading zero omitted, Abs format (unit mm)*
G04 Created by KiCad (PCBNEW 5.1.4-e60b266~84~ubuntu18.04.1) date 2019-11-05 13:07:08*
%MOMM*%
%LPD*%
G04 APERTURE LIST*
%ADD10C,0.100000*%
%ADD11R,5.500000X5.500000*%
%ADD12R,4.000000X4.000000*%
%ADD13C,1.425000*%
%ADD14C,5.000000*%
%ADD15C,1.000000*%
%ADD16C,0.254000*%
G04 APERTURE END LIST*
D10*
G36*
X143422623Y-119070496D02*
G01*
X143916839Y-118765681D01*
X143823819Y-118758781D01*
X143729079Y-118743280D01*
X143754919Y-118636483D01*
X143784199Y-118524516D01*
X143794539Y-118541746D01*
X143861719Y-118622707D01*
X143915119Y-118707117D01*
X143935789Y-118738127D01*
X143954739Y-118769137D01*
X143935789Y-118767437D01*
X143916839Y-118765737D01*
X143916839Y-118765681D01*
X143422623Y-119070496D01*
X143453633Y-119130786D01*
X143500143Y-119184186D01*
X143558713Y-119222086D01*
X143627613Y-119239316D01*
X143658623Y-119227256D01*
X143674123Y-119216926D01*
X143684463Y-119211726D01*
X143691363Y-119206526D01*
X143712033Y-119197926D01*
X143705133Y-119175536D01*
X143706833Y-119154866D01*
X143727503Y-119132476D01*
X143737843Y-119122135D01*
X143746443Y-119111806D01*
X143775723Y-119079076D01*
X143729213Y-119067016D01*
X143672363Y-119036006D01*
X143660303Y-118972266D01*
X143718873Y-118970566D01*
X143765383Y-118982626D01*
X143829113Y-118998126D01*
X143898013Y-119003326D01*
X143923853Y-119003326D01*
X143949693Y-118999926D01*
X143966913Y-118996526D01*
X143973813Y-118975856D01*
X143980713Y-118968956D01*
X143999663Y-118946566D01*
X144003063Y-118908666D01*
X144013393Y-118877655D01*
X144028893Y-118920716D01*
X144035793Y-118937946D01*
X144053023Y-118941346D01*
X144058223Y-118949946D01*
X144059923Y-118958546D01*
X144068523Y-118987826D01*
X144075423Y-118994726D01*
X144082323Y-118999926D01*
X144090923Y-119030936D01*
X144101263Y-119060216D01*
X144116763Y-119105006D01*
X144120163Y-119146346D01*
X144127063Y-119165296D01*
X144146013Y-119182526D01*
X144166683Y-119192856D01*
X144177023Y-119199756D01*
X144185623Y-119203156D01*
X144190823Y-119222106D01*
X144211493Y-119225506D01*
X144239053Y-119230706D01*
X144256283Y-119232406D01*
X144273513Y-119230706D01*
X144302793Y-119206586D01*
X144326913Y-119187636D01*
X144344133Y-119156626D01*
X144347533Y-119137675D01*
X144350933Y-119120446D01*
X144356133Y-119110116D01*
X144378523Y-119089446D01*
X144359573Y-119073946D01*
X144357873Y-119044666D01*
X144285523Y-118875857D01*
X144204563Y-118710492D01*
X144178723Y-118655372D01*
X144151163Y-118600251D01*
X144152863Y-118588191D01*
X144149463Y-118572691D01*
X144118453Y-118521011D01*
X144094333Y-118472781D01*
X144066773Y-118415941D01*
X144028873Y-118359102D01*
X144001313Y-118347041D01*
X143989253Y-118343641D01*
X143973753Y-118340241D01*
X143947913Y-118343641D01*
X143863513Y-118281631D01*
X143789443Y-118183441D01*
X143772213Y-118159331D01*
X143749823Y-118173111D01*
X143725703Y-118183441D01*
X143692973Y-118192041D01*
X143634403Y-118207541D01*
X143589613Y-118233381D01*
X143577553Y-118274721D01*
X143572353Y-118302281D01*
X143563753Y-118360851D01*
X143556853Y-118426311D01*
X143543073Y-118484881D01*
X143531013Y-118541721D01*
X143513783Y-118622682D01*
X143491393Y-118695032D01*
X143474163Y-118696732D01*
X143456943Y-118691532D01*
X143434553Y-118688132D01*
X143415603Y-118686432D01*
X143408703Y-118703662D01*
X143391473Y-118720892D01*
X143358743Y-118731232D01*
X143339793Y-118746732D01*
X143326013Y-118757072D01*
X143300173Y-118767402D01*
X143313953Y-118793242D01*
X143363903Y-118853532D01*
X143434523Y-118900042D01*
X143432823Y-118920712D01*
X143427623Y-118939662D01*
X143419023Y-118999952D01*
X143419023Y-119063682D01*
X143422623Y-119070496D01*
X143422623Y-119070496D01*
G37*
G36*
X144350924Y-118916824D02*
G01*
X144459445Y-119032235D01*
X144607584Y-119099415D01*
X144778116Y-119145925D01*
X144948649Y-119199325D01*
X144991709Y-119201025D01*
X145026159Y-119206225D01*
X145057169Y-119211425D01*
X145091619Y-119214825D01*
X145100219Y-119218225D01*
X145105419Y-119225125D01*
X145158819Y-119230325D01*
X145196719Y-119230325D01*
X145239779Y-119235525D01*
X145277679Y-119240725D01*
X145480940Y-119149425D01*
X145561900Y-118911713D01*
X145565300Y-118901383D01*
X145572200Y-118896183D01*
X145568800Y-118866903D01*
X145567100Y-118835893D01*
X145465470Y-118660193D01*
X145329389Y-118515498D01*
X145308719Y-118494828D01*
X145293219Y-118474158D01*
X145274269Y-118456928D01*
X145248429Y-118444868D01*
X145162299Y-118369078D01*
X145057224Y-118303618D01*
X144948704Y-118239888D01*
X144848794Y-118167538D01*
X144821234Y-118172738D01*
X144802284Y-118172738D01*
X144769554Y-118208908D01*
X144726494Y-118231298D01*
X144685154Y-118257138D01*
X144655874Y-118298478D01*
X144666214Y-118307078D01*
X144661014Y-118322578D01*
X144659314Y-118338078D01*
X144671374Y-118344978D01*
X144661044Y-118355318D01*
X144650704Y-118363918D01*
X144655904Y-118377698D01*
X144655904Y-118394928D01*
X144733424Y-118437988D01*
X144821274Y-118482778D01*
X144916014Y-118532728D01*
X145010754Y-118593018D01*
X145105494Y-118670539D01*
X145198514Y-118758389D01*
X145282924Y-118854849D01*
X145350104Y-118951309D01*
X145343204Y-118965089D01*
X145334604Y-118977149D01*
X145232974Y-118977149D01*
X145136514Y-118982349D01*
X145129614Y-118972009D01*
X145121014Y-118961669D01*
X144938424Y-118930659D01*
X144766169Y-118884149D01*
X144792009Y-118875549D01*
X144812679Y-118866949D01*
X144812679Y-118853169D01*
X144795449Y-118839389D01*
X144835069Y-118804939D01*
X144852299Y-118749819D01*
X144841969Y-118729149D01*
X144852299Y-118710199D01*
X144860899Y-118710199D01*
X144864299Y-118715399D01*
X144865999Y-118722299D01*
X144874599Y-118720599D01*
X144867699Y-118694759D01*
X144857359Y-118670649D01*
X144738504Y-118591408D01*
X144691994Y-118622419D01*
X144635154Y-118655149D01*
X144573144Y-118687879D01*
X144512854Y-118718889D01*
X144469794Y-118746449D01*
X144433624Y-118782619D01*
X144399174Y-118817069D01*
X144356114Y-118846349D01*
X144354414Y-118882519D01*
X144351014Y-118916969D01*
X144350924Y-118916824D01*
X144350924Y-118916824D01*
G37*
G36*
X145687622Y-119082189D02*
G01*
X146185438Y-118784188D01*
X146092418Y-118777288D01*
X145997678Y-118761788D01*
X146023518Y-118654990D01*
X146052798Y-118543023D01*
X146063128Y-118560253D01*
X146130308Y-118641214D01*
X146183708Y-118725624D01*
X146204378Y-118756634D01*
X146223328Y-118787644D01*
X146204378Y-118785944D01*
X146185428Y-118784244D01*
X146185438Y-118784188D01*
X145687622Y-119082189D01*
X145718632Y-119142479D01*
X145765142Y-119195879D01*
X145823712Y-119233779D01*
X145892612Y-119251009D01*
X145923622Y-119238949D01*
X145939122Y-119228619D01*
X145949462Y-119223419D01*
X145956362Y-119218219D01*
X145977032Y-119209619D01*
X145970132Y-119187229D01*
X145971832Y-119166559D01*
X145992502Y-119144169D01*
X146002842Y-119133829D01*
X146011442Y-119123498D01*
X146040722Y-119090769D01*
X145994212Y-119078709D01*
X145937362Y-119047699D01*
X145925302Y-118983959D01*
X145983872Y-118982259D01*
X146030382Y-118994319D01*
X146094112Y-119009819D01*
X146163012Y-119015019D01*
X146188852Y-119015019D01*
X146214692Y-119011619D01*
X146231912Y-119008219D01*
X146238812Y-118987549D01*
X146245712Y-118980649D01*
X146264662Y-118958259D01*
X146268062Y-118920359D01*
X146278392Y-118889349D01*
X146293892Y-118932409D01*
X146300792Y-118949639D01*
X146318022Y-118953039D01*
X146323222Y-118961639D01*
X146324922Y-118970239D01*
X146333522Y-118999519D01*
X146340422Y-119006419D01*
X146347322Y-119011619D01*
X146355922Y-119042629D01*
X146366262Y-119071909D01*
X146381762Y-119116699D01*
X146385162Y-119158039D01*
X146392062Y-119176989D01*
X146411012Y-119194219D01*
X146431682Y-119204549D01*
X146442022Y-119211449D01*
X146450622Y-119214849D01*
X146455822Y-119233799D01*
X146476492Y-119237199D01*
X146504052Y-119242399D01*
X146521282Y-119244099D01*
X146538512Y-119242399D01*
X146567792Y-119218279D01*
X146591912Y-119199329D01*
X146609132Y-119168319D01*
X146612532Y-119149369D01*
X146615932Y-119132139D01*
X146621132Y-119121809D01*
X146643522Y-119101139D01*
X146624572Y-119085639D01*
X146622872Y-119056359D01*
X146550522Y-118887550D01*
X146469562Y-118722185D01*
X146443722Y-118667065D01*
X146416162Y-118611944D01*
X146417862Y-118599884D01*
X146414462Y-118584384D01*
X146383452Y-118532704D01*
X146359332Y-118484474D01*
X146331772Y-118427634D01*
X146293872Y-118370794D01*
X146266312Y-118358735D01*
X146254252Y-118355334D01*
X146238752Y-118351934D01*
X146212912Y-118355334D01*
X146128512Y-118293324D01*
X146054442Y-118195134D01*
X146037212Y-118171024D01*
X146014822Y-118184804D01*
X145990702Y-118195134D01*
X145957972Y-118203734D01*
X145899402Y-118219234D01*
X145854612Y-118245074D01*
X145842552Y-118286414D01*
X145837352Y-118313974D01*
X145828752Y-118372544D01*
X145821852Y-118438004D01*
X145808072Y-118496574D01*
X145796012Y-118553414D01*
X145778792Y-118634375D01*
X145756402Y-118706725D01*
X145739172Y-118708425D01*
X145721952Y-118703225D01*
X145699562Y-118699825D01*
X145680612Y-118698125D01*
X145673712Y-118715355D01*
X145656482Y-118732585D01*
X145623752Y-118742925D01*
X145604802Y-118758425D01*
X145591022Y-118768765D01*
X145565182Y-118779095D01*
X145578962Y-118804935D01*
X145628912Y-118865225D01*
X145699532Y-118911735D01*
X145697832Y-118932405D01*
X145692632Y-118951355D01*
X145684032Y-119011645D01*
X145684032Y-119075375D01*
X145687622Y-119082189D01*
X145687622Y-119082189D01*
G37*
G36*
X147241360Y-118913379D02*
G01*
X147263750Y-118932329D01*
X147277530Y-118961609D01*
X147289590Y-118990889D01*
X147306820Y-119002949D01*
X147317150Y-119027069D01*
X147330930Y-119049459D01*
X147341260Y-119073579D01*
X147337860Y-119102859D01*
X147355080Y-119132139D01*
X147363680Y-119168309D01*
X147377460Y-119197589D01*
X147415360Y-119207929D01*
X147417060Y-119216529D01*
X147411860Y-119228589D01*
X147441140Y-119230289D01*
X147463530Y-119238889D01*
X147518650Y-119202719D01*
X147556550Y-119145879D01*
X147585830Y-119080419D01*
X147609950Y-119023579D01*
X147608250Y-118987409D01*
X147620310Y-118956399D01*
X147598970Y-118911239D01*
X147577140Y-118865319D01*
X147554830Y-118818649D01*
X147532030Y-118771229D01*
X147508750Y-118723049D01*
X147484980Y-118674119D01*
X147460730Y-118624429D01*
X147435990Y-118573988D01*
X147411170Y-118523248D01*
X147386680Y-118472678D01*
X147362510Y-118422268D01*
X147338660Y-118372018D01*
X147315140Y-118321928D01*
X147291940Y-118271998D01*
X147269060Y-118222228D01*
X147246510Y-118172628D01*
X147169000Y-118208798D01*
X147098380Y-118253588D01*
X147043260Y-118313878D01*
X147013980Y-118387948D01*
X147022580Y-118396548D01*
X147029480Y-118398248D01*
X147022580Y-118410308D01*
X147022580Y-118417208D01*
X147022580Y-118427548D01*
X147017380Y-118443048D01*
X147027710Y-118444748D01*
X147038050Y-118444748D01*
X147034650Y-118475758D01*
X147041550Y-118498148D01*
X147050150Y-118518818D01*
X147048450Y-118546378D01*
X147057050Y-118549778D01*
X147060450Y-118554979D01*
X147065650Y-118560178D01*
X147072550Y-118560178D01*
X147069150Y-118635969D01*
X147072550Y-118713479D01*
X147070850Y-118794439D01*
X147058790Y-118880569D01*
X146960610Y-118787549D01*
X146900320Y-118660080D01*
X146864150Y-118508495D01*
X146838310Y-118343130D01*
X146814190Y-118305230D01*
X146798690Y-118258720D01*
X146784910Y-118208770D01*
X146767680Y-118162260D01*
X146724620Y-118179490D01*
X146690170Y-118207050D01*
X146657440Y-118234610D01*
X146614380Y-118250110D01*
X146576480Y-118306950D01*
X146554090Y-118365520D01*
X146567870Y-118396530D01*
X146576470Y-118430980D01*
X146590250Y-118463710D01*
X146614370Y-118487830D01*
X146628150Y-118570510D01*
X146643650Y-118642861D01*
X146655710Y-118718651D01*
X146659110Y-118803051D01*
X146688390Y-118887451D01*
X146712510Y-118968411D01*
X146755570Y-119021811D01*
X146788300Y-119083821D01*
X146796900Y-119087221D01*
X146808960Y-119082021D01*
X146808960Y-119092361D01*
X146814160Y-119099261D01*
X146817560Y-119106161D01*
X146814160Y-119119941D01*
X146857220Y-119149221D01*
X146898560Y-119183671D01*
X146950240Y-119204341D01*
X147027750Y-119192281D01*
X147153496Y-119073425D01*
X147241346Y-118913228D01*
X147241360Y-118913379D01*
X147241360Y-118913379D01*
G37*
G36*
X147749512Y-118775575D02*
G01*
X147770182Y-118801415D01*
X147787412Y-118830695D01*
X147806362Y-118866865D01*
X147832202Y-118897875D01*
X147849432Y-118939215D01*
X147876992Y-118971945D01*
X147957952Y-119121807D01*
X147968292Y-119152817D01*
X147983792Y-119180377D01*
X147990692Y-119192437D01*
X147995892Y-119201037D01*
X147999292Y-119218267D01*
X148018242Y-119242387D01*
X148037192Y-119261337D01*
X148049252Y-119275117D01*
X148075092Y-119285447D01*
X148228398Y-119151089D01*
X148226698Y-119133859D01*
X148221498Y-119116639D01*
X148214598Y-119095969D01*
X148199098Y-119047739D01*
X148169818Y-119004679D01*
X148154318Y-118966779D01*
X148112978Y-118885819D01*
X148075078Y-118820359D01*
X148052688Y-118782459D01*
X148094028Y-118732509D01*
X148133648Y-118649829D01*
X148157768Y-118579208D01*
X148162968Y-118541308D01*
X148169868Y-118508578D01*
X148178468Y-118470678D01*
X148181868Y-118431058D01*
X148192198Y-118406938D01*
X148188798Y-118389708D01*
X148187098Y-118358698D01*
X148195698Y-118317358D01*
X148204298Y-118279458D01*
X148205998Y-118238118D01*
X148195658Y-118200218D01*
X148162928Y-118167488D01*
X148133648Y-118165788D01*
X148104368Y-118183018D01*
X148075088Y-118198518D01*
X148038918Y-118215748D01*
X148002748Y-118238138D01*
X147990688Y-118262258D01*
X147968298Y-118281208D01*
X147968298Y-118300158D01*
X147966598Y-118319108D01*
X147959698Y-118346668D01*
X147952798Y-118367339D01*
X147947598Y-118413848D01*
X147937268Y-118453468D01*
X147926938Y-118493088D01*
X147925238Y-118537878D01*
X147908008Y-118525818D01*
X147901108Y-118520618D01*
X147894208Y-118515418D01*
X147792578Y-118377614D01*
X147795978Y-118360384D01*
X147759808Y-118325934D01*
X147733968Y-118300094D01*
X147711578Y-118274254D01*
X147692628Y-118260474D01*
X147535876Y-118153676D01*
X147511756Y-118150276D01*
X147504856Y-118172666D01*
X147477296Y-118207116D01*
X147430786Y-118236396D01*
X147415286Y-118246736D01*
X147406686Y-118272576D01*
X147408386Y-118288076D01*
X147401486Y-118305306D01*
X147435936Y-118365596D01*
X147473836Y-118400046D01*
X147503116Y-118425886D01*
X147522066Y-118453446D01*
X147534126Y-118467226D01*
X147580636Y-118522346D01*
X147585836Y-118543016D01*
X147606506Y-118543016D01*
X147615106Y-118549916D01*
X147632336Y-118579196D01*
X147649556Y-118601586D01*
X147658156Y-118610187D01*
X147663356Y-118623967D01*
X147668556Y-118637747D01*
X147696116Y-118672197D01*
X147708176Y-118696317D01*
X147721956Y-118723877D01*
X147740906Y-118749717D01*
X147749512Y-118775575D01*
X147749512Y-118775575D01*
G37*
G36*
X148259386Y-118257087D02*
G01*
X148259386Y-118276037D01*
X148261086Y-118286367D01*
X148261086Y-118298427D01*
X148257686Y-118315657D01*
X148342096Y-118396617D01*
X148443726Y-118427627D01*
X148557414Y-118446577D01*
X148671102Y-118491367D01*
X148712442Y-118491367D01*
X148764122Y-118496567D01*
X148789962Y-118512067D01*
X148820972Y-118520667D01*
X148815772Y-118553398D01*
X148810572Y-118579237D01*
X148677935Y-118577537D01*
X148533241Y-118568937D01*
X148534941Y-118580997D01*
X148536641Y-118589597D01*
X148512521Y-118611987D01*
X148488401Y-118636108D01*
X148464281Y-118656778D01*
X148433271Y-118661978D01*
X148424671Y-118692988D01*
X148428071Y-118725718D01*
X148483191Y-118765338D01*
X148541761Y-118799788D01*
X148605491Y-118825628D01*
X148679561Y-118832528D01*
X148693341Y-118832528D01*
X148703681Y-118827328D01*
X148743301Y-118832528D01*
X148781201Y-118837728D01*
X148827711Y-118830828D01*
X148874221Y-118823928D01*
X148924171Y-118901438D01*
X148963791Y-118989288D01*
X148867331Y-118996188D01*
X148793261Y-118990988D01*
X148722641Y-118982388D01*
X148631341Y-118978988D01*
X148550381Y-118954868D01*
X148462531Y-118934198D01*
X148438411Y-118953148D01*
X148419461Y-118977268D01*
X148398791Y-118996218D01*
X148372951Y-119003118D01*
X148364351Y-119020348D01*
X148359151Y-119037568D01*
X148353951Y-119053068D01*
X148338451Y-119056468D01*
X148398741Y-119144318D01*
X148474531Y-119189108D01*
X148570991Y-119213218D01*
X148686402Y-119233888D01*
X148712242Y-119232188D01*
X148736362Y-119228788D01*
X148831102Y-119244288D01*
X148943068Y-119249488D01*
X149051588Y-119233988D01*
X149135988Y-119189198D01*
X149154938Y-119161638D01*
X149177328Y-119135798D01*
X149184228Y-119085848D01*
X149194558Y-119029008D01*
X149203158Y-118968718D01*
X149199758Y-118915318D01*
X149179088Y-118868808D01*
X149167028Y-118824018D01*
X149156688Y-118815418D01*
X149142908Y-118808518D01*
X149120518Y-118749948D01*
X149096398Y-118696548D01*
X149070558Y-118644868D01*
X149044718Y-118584577D01*
X149080888Y-118536347D01*
X149096388Y-118482947D01*
X149104988Y-118427827D01*
X149117048Y-118369257D01*
X149075708Y-118327917D01*
X149020588Y-118300357D01*
X148956848Y-118283127D01*
X148884498Y-118267627D01*
X148762197Y-118233177D01*
X148655399Y-118214227D01*
X148545156Y-118198727D01*
X148415965Y-118178057D01*
X148386685Y-118193557D01*
X148371185Y-118184957D01*
X148362585Y-118174627D01*
X148319525Y-118224577D01*
X148259235Y-118257307D01*
X148259386Y-118257087D01*
X148259386Y-118257087D01*
G37*
G36*
X150312664Y-119078743D02*
G01*
X149889093Y-118469105D01*
X149918373Y-118548345D01*
X149766789Y-118508725D01*
X149616927Y-118446715D01*
X149661717Y-118345085D01*
X149737507Y-118291685D01*
X149737513Y-118291685D01*
X149787463Y-118351975D01*
X149842583Y-118407095D01*
X149889093Y-118469105D01*
X150312664Y-119078743D01*
X150328164Y-119066683D01*
X150343664Y-119037403D01*
X150324714Y-119037403D01*
X150331614Y-118968503D01*
X150316114Y-118906493D01*
X150302334Y-118847923D01*
X150307534Y-118787633D01*
X150295474Y-118784233D01*
X150288574Y-118760113D01*
X150286874Y-118729103D01*
X150288574Y-118701543D01*
X150254124Y-118591299D01*
X150230004Y-118479334D01*
X150207614Y-118370813D01*
X150173164Y-118270903D01*
X150123214Y-118277803D01*
X150087044Y-118300193D01*
X149992304Y-118200283D01*
X149909624Y-118086595D01*
X149813164Y-117986685D01*
X149680527Y-117935005D01*
X149587507Y-117998735D01*
X149503097Y-118081415D01*
X149477257Y-118100365D01*
X149449697Y-118117595D01*
X149449697Y-118143435D01*
X149410077Y-118196835D01*
X149380797Y-118260565D01*
X149354957Y-118327745D01*
X149327397Y-118391475D01*
X149330797Y-118410425D01*
X149327397Y-118425925D01*
X149322197Y-118443145D01*
X149320497Y-118465535D01*
X149380787Y-118613674D01*
X149508256Y-118704975D01*
X149666730Y-118765265D01*
X149820037Y-118818665D01*
X149813137Y-118825565D01*
X149807937Y-118835895D01*
X149728697Y-118885845D01*
X149675297Y-118918575D01*
X149620177Y-118939245D01*
X149535767Y-118959915D01*
X149453087Y-118980585D01*
X149397967Y-118992645D01*
X149346287Y-118999545D01*
X149272217Y-119008145D01*
X149241207Y-119052935D01*
X149223977Y-119104615D01*
X149222277Y-119154565D01*
X149236057Y-119190735D01*
X149227457Y-119197635D01*
X149210237Y-119197635D01*
X149230907Y-119218305D01*
X149248137Y-119242425D01*
X149268807Y-119264815D01*
X149296367Y-119276875D01*
X149454842Y-119278575D01*
X149701166Y-119199335D01*
X149821744Y-119149385D01*
X149902704Y-119106325D01*
X149966434Y-119059815D01*
X150033614Y-118999525D01*
X150040514Y-119006425D01*
X150045714Y-119013325D01*
X150073274Y-119125289D01*
X150124954Y-119213140D01*
X150162854Y-119218340D01*
X150185244Y-119237290D01*
X150211084Y-119235590D01*
X150226584Y-119226990D01*
X150242084Y-119216650D01*
X150269644Y-119213250D01*
X150279984Y-119183970D01*
X150307544Y-119170190D01*
X150304144Y-119144350D01*
X150309344Y-119123679D01*
X150316244Y-119103010D01*
X150312844Y-119078890D01*
X150312664Y-119078743D01*
X150312664Y-119078743D01*
G37*
G36*
X151847799Y-118810371D02*
G01*
X151842599Y-118775921D01*
X151840899Y-118736301D01*
X151720320Y-118526149D01*
X151556678Y-118353894D01*
X151532568Y-118329774D01*
X151513618Y-118303934D01*
X151491228Y-118283264D01*
X151460218Y-118269484D01*
X151356866Y-118178184D01*
X151231120Y-118098944D01*
X151100206Y-118021434D01*
X150979628Y-117935304D01*
X150950348Y-117943904D01*
X150926228Y-117942204D01*
X150886608Y-117988714D01*
X150834928Y-118014554D01*
X150784978Y-118045564D01*
X150748808Y-118093794D01*
X150760868Y-118102394D01*
X150755668Y-118121344D01*
X150752268Y-118140294D01*
X150767768Y-118148894D01*
X150755708Y-118160954D01*
X150743648Y-118173014D01*
X150748848Y-118190234D01*
X150748848Y-118209184D01*
X150841868Y-118262584D01*
X150948666Y-118314264D01*
X151062354Y-118374554D01*
X151176042Y-118446904D01*
X151291453Y-118538204D01*
X151401696Y-118645003D01*
X151501606Y-118760414D01*
X151580846Y-118875825D01*
X151572246Y-118891325D01*
X151561916Y-118906825D01*
X151439615Y-118906825D01*
X151325927Y-118913725D01*
X151317327Y-118899945D01*
X151306987Y-118887885D01*
X151088223Y-118849985D01*
X150881517Y-118794865D01*
X150936637Y-118775915D01*
X150936637Y-118758685D01*
X150917687Y-118741465D01*
X150964197Y-118700125D01*
X150984867Y-118632945D01*
X150972807Y-118608834D01*
X150984867Y-118586444D01*
X150995207Y-118586444D01*
X150998607Y-118593344D01*
X151002007Y-118600244D01*
X151010607Y-118600244D01*
X151002007Y-118569234D01*
X150991667Y-118539954D01*
X150848696Y-118445214D01*
X150793576Y-118481384D01*
X150724676Y-118519284D01*
X150650606Y-118558904D01*
X150579986Y-118596804D01*
X150526586Y-118631255D01*
X150483526Y-118672595D01*
X150442186Y-118713935D01*
X150392236Y-118748384D01*
X150388836Y-118793175D01*
X150385436Y-118834515D01*
X150464676Y-118934425D01*
X150569751Y-119003325D01*
X150692052Y-119053275D01*
X150826411Y-119091175D01*
X150965937Y-119129075D01*
X151102018Y-119173865D01*
X151151968Y-119175565D01*
X151191588Y-119180765D01*
X151229488Y-119187665D01*
X151270828Y-119192865D01*
X151282888Y-119196265D01*
X151289788Y-119204865D01*
X151351798Y-119210065D01*
X151398308Y-119210065D01*
X151448258Y-119216965D01*
X151496488Y-119222165D01*
X151739367Y-119111922D01*
X151835827Y-118827701D01*
X151839227Y-118817371D01*
X151847827Y-118810471D01*
X151847799Y-118810371D01*
X151847799Y-118810371D01*
G37*
D11*
X135155000Y-103378000D03*
X160755000Y-103378000D03*
D12*
X147955000Y-103378000D03*
D10*
G36*
X141160422Y-84389089D02*
G01*
X141184763Y-84392159D01*
X141208686Y-84397600D01*
X141231961Y-84405359D01*
X141254362Y-84415362D01*
X141275676Y-84427513D01*
X141295696Y-84441695D01*
X141314229Y-84457770D01*
X141331098Y-84475585D01*
X141346139Y-84494967D01*
X142063109Y-85518907D01*
X142076178Y-85539670D01*
X142087149Y-85561614D01*
X142095916Y-85584528D01*
X142102395Y-85608191D01*
X142106523Y-85632375D01*
X142108262Y-85656847D01*
X142107593Y-85681372D01*
X142104523Y-85705713D01*
X142099082Y-85729636D01*
X142091323Y-85752911D01*
X142081320Y-85775312D01*
X142069169Y-85796626D01*
X142054987Y-85816646D01*
X142038912Y-85835179D01*
X142021097Y-85852048D01*
X142001715Y-85867089D01*
X141243999Y-86397647D01*
X141223236Y-86410716D01*
X141201292Y-86421687D01*
X141178378Y-86430454D01*
X141154715Y-86436933D01*
X141130531Y-86441061D01*
X141106059Y-86442800D01*
X141081534Y-86442131D01*
X141057193Y-86439061D01*
X141033270Y-86433620D01*
X141009995Y-86425861D01*
X140987594Y-86415858D01*
X140966280Y-86403707D01*
X140946260Y-86389525D01*
X140927727Y-86373450D01*
X140910858Y-86355635D01*
X140895817Y-86336253D01*
X140178847Y-85312313D01*
X140165778Y-85291550D01*
X140154807Y-85269606D01*
X140146040Y-85246692D01*
X140139561Y-85223029D01*
X140135433Y-85198845D01*
X140133694Y-85174373D01*
X140134363Y-85149848D01*
X140137433Y-85125507D01*
X140142874Y-85101584D01*
X140150633Y-85078309D01*
X140160636Y-85055908D01*
X140172787Y-85034594D01*
X140186969Y-85014574D01*
X140203044Y-84996041D01*
X140220859Y-84979172D01*
X140240241Y-84964131D01*
X140997957Y-84433573D01*
X141018720Y-84420504D01*
X141040664Y-84409533D01*
X141063578Y-84400766D01*
X141087241Y-84394287D01*
X141111425Y-84390159D01*
X141135897Y-84388420D01*
X141160422Y-84389089D01*
X141160422Y-84389089D01*
G37*
D13*
X141120978Y-85415610D03*
D10*
G36*
X138723444Y-86095479D02*
G01*
X138747785Y-86098549D01*
X138771708Y-86103990D01*
X138794983Y-86111749D01*
X138817384Y-86121752D01*
X138838698Y-86133903D01*
X138858718Y-86148085D01*
X138877251Y-86164160D01*
X138894120Y-86181975D01*
X138909161Y-86201357D01*
X139626131Y-87225297D01*
X139639200Y-87246060D01*
X139650171Y-87268004D01*
X139658938Y-87290918D01*
X139665417Y-87314581D01*
X139669545Y-87338765D01*
X139671284Y-87363237D01*
X139670615Y-87387762D01*
X139667545Y-87412103D01*
X139662104Y-87436026D01*
X139654345Y-87459301D01*
X139644342Y-87481702D01*
X139632191Y-87503016D01*
X139618009Y-87523036D01*
X139601934Y-87541569D01*
X139584119Y-87558438D01*
X139564737Y-87573479D01*
X138807021Y-88104037D01*
X138786258Y-88117106D01*
X138764314Y-88128077D01*
X138741400Y-88136844D01*
X138717737Y-88143323D01*
X138693553Y-88147451D01*
X138669081Y-88149190D01*
X138644556Y-88148521D01*
X138620215Y-88145451D01*
X138596292Y-88140010D01*
X138573017Y-88132251D01*
X138550616Y-88122248D01*
X138529302Y-88110097D01*
X138509282Y-88095915D01*
X138490749Y-88079840D01*
X138473880Y-88062025D01*
X138458839Y-88042643D01*
X137741869Y-87018703D01*
X137728800Y-86997940D01*
X137717829Y-86975996D01*
X137709062Y-86953082D01*
X137702583Y-86929419D01*
X137698455Y-86905235D01*
X137696716Y-86880763D01*
X137697385Y-86856238D01*
X137700455Y-86831897D01*
X137705896Y-86807974D01*
X137713655Y-86784699D01*
X137723658Y-86762298D01*
X137735809Y-86740984D01*
X137749991Y-86720964D01*
X137766066Y-86702431D01*
X137783881Y-86685562D01*
X137803263Y-86670521D01*
X138560979Y-86139963D01*
X138581742Y-86126894D01*
X138603686Y-86115923D01*
X138626600Y-86107156D01*
X138650263Y-86100677D01*
X138674447Y-86096549D01*
X138698919Y-86094810D01*
X138723444Y-86095479D01*
X138723444Y-86095479D01*
G37*
D13*
X138684000Y-87122000D03*
D10*
G36*
X135180004Y-91328204D02*
G01*
X135204273Y-91331804D01*
X135228071Y-91337765D01*
X135251171Y-91346030D01*
X135273349Y-91356520D01*
X135294393Y-91369133D01*
X135314098Y-91383747D01*
X135332277Y-91400223D01*
X135348753Y-91418402D01*
X135363367Y-91438107D01*
X135375980Y-91459151D01*
X135386470Y-91481329D01*
X135394735Y-91504429D01*
X135400696Y-91528227D01*
X135404296Y-91552496D01*
X135405500Y-91577000D01*
X135405500Y-92827000D01*
X135404296Y-92851504D01*
X135400696Y-92875773D01*
X135394735Y-92899571D01*
X135386470Y-92922671D01*
X135375980Y-92944849D01*
X135363367Y-92965893D01*
X135348753Y-92985598D01*
X135332277Y-93003777D01*
X135314098Y-93020253D01*
X135294393Y-93034867D01*
X135273349Y-93047480D01*
X135251171Y-93057970D01*
X135228071Y-93066235D01*
X135204273Y-93072196D01*
X135180004Y-93075796D01*
X135155500Y-93077000D01*
X134230500Y-93077000D01*
X134205996Y-93075796D01*
X134181727Y-93072196D01*
X134157929Y-93066235D01*
X134134829Y-93057970D01*
X134112651Y-93047480D01*
X134091607Y-93034867D01*
X134071902Y-93020253D01*
X134053723Y-93003777D01*
X134037247Y-92985598D01*
X134022633Y-92965893D01*
X134010020Y-92944849D01*
X133999530Y-92922671D01*
X133991265Y-92899571D01*
X133985304Y-92875773D01*
X133981704Y-92851504D01*
X133980500Y-92827000D01*
X133980500Y-91577000D01*
X133981704Y-91552496D01*
X133985304Y-91528227D01*
X133991265Y-91504429D01*
X133999530Y-91481329D01*
X134010020Y-91459151D01*
X134022633Y-91438107D01*
X134037247Y-91418402D01*
X134053723Y-91400223D01*
X134071902Y-91383747D01*
X134091607Y-91369133D01*
X134112651Y-91356520D01*
X134134829Y-91346030D01*
X134157929Y-91337765D01*
X134181727Y-91331804D01*
X134205996Y-91328204D01*
X134230500Y-91327000D01*
X135155500Y-91327000D01*
X135180004Y-91328204D01*
X135180004Y-91328204D01*
G37*
D13*
X134693000Y-92202000D03*
D10*
G36*
X138155004Y-91328204D02*
G01*
X138179273Y-91331804D01*
X138203071Y-91337765D01*
X138226171Y-91346030D01*
X138248349Y-91356520D01*
X138269393Y-91369133D01*
X138289098Y-91383747D01*
X138307277Y-91400223D01*
X138323753Y-91418402D01*
X138338367Y-91438107D01*
X138350980Y-91459151D01*
X138361470Y-91481329D01*
X138369735Y-91504429D01*
X138375696Y-91528227D01*
X138379296Y-91552496D01*
X138380500Y-91577000D01*
X138380500Y-92827000D01*
X138379296Y-92851504D01*
X138375696Y-92875773D01*
X138369735Y-92899571D01*
X138361470Y-92922671D01*
X138350980Y-92944849D01*
X138338367Y-92965893D01*
X138323753Y-92985598D01*
X138307277Y-93003777D01*
X138289098Y-93020253D01*
X138269393Y-93034867D01*
X138248349Y-93047480D01*
X138226171Y-93057970D01*
X138203071Y-93066235D01*
X138179273Y-93072196D01*
X138155004Y-93075796D01*
X138130500Y-93077000D01*
X137205500Y-93077000D01*
X137180996Y-93075796D01*
X137156727Y-93072196D01*
X137132929Y-93066235D01*
X137109829Y-93057970D01*
X137087651Y-93047480D01*
X137066607Y-93034867D01*
X137046902Y-93020253D01*
X137028723Y-93003777D01*
X137012247Y-92985598D01*
X136997633Y-92965893D01*
X136985020Y-92944849D01*
X136974530Y-92922671D01*
X136966265Y-92899571D01*
X136960304Y-92875773D01*
X136956704Y-92851504D01*
X136955500Y-92827000D01*
X136955500Y-91577000D01*
X136956704Y-91552496D01*
X136960304Y-91528227D01*
X136966265Y-91504429D01*
X136974530Y-91481329D01*
X136985020Y-91459151D01*
X136997633Y-91438107D01*
X137012247Y-91418402D01*
X137028723Y-91400223D01*
X137046902Y-91383747D01*
X137066607Y-91369133D01*
X137087651Y-91356520D01*
X137109829Y-91346030D01*
X137132929Y-91337765D01*
X137156727Y-91331804D01*
X137180996Y-91328204D01*
X137205500Y-91327000D01*
X138130500Y-91327000D01*
X138155004Y-91328204D01*
X138155004Y-91328204D01*
G37*
D13*
X137668000Y-92202000D03*
D14*
X147828000Y-88138000D03*
D15*
X158750000Y-110744000D02*
X160755000Y-108739000D01*
X137501000Y-110744000D02*
X158750000Y-110744000D01*
X135155000Y-108398000D02*
X137501000Y-110744000D01*
X160755000Y-108739000D02*
X160755000Y-103378000D01*
X135155000Y-108398000D02*
X135155000Y-103378000D01*
X134620000Y-92275000D02*
X134693000Y-92202000D01*
X135155000Y-103378000D02*
X134620000Y-102843000D01*
X134620000Y-102843000D02*
X134620000Y-92275000D01*
X139192000Y-87630000D02*
X138684000Y-87122000D01*
X139192000Y-89703000D02*
X139192000Y-87630000D01*
X137668000Y-92202000D02*
X137668000Y-91227000D01*
X137668000Y-91227000D02*
X139192000Y-89703000D01*
D16*
G36*
X144038311Y-82362700D02*
G01*
X144053779Y-82413024D01*
X144060866Y-82426167D01*
X144065866Y-82440236D01*
X144092829Y-82485442D01*
X144117821Y-82531790D01*
X144148821Y-82569282D01*
X144163482Y-82589140D01*
X144201179Y-82641195D01*
X144228293Y-82666337D01*
X144253064Y-82693786D01*
X144277644Y-82712098D01*
X144300122Y-82732941D01*
X144331621Y-82752311D01*
X144361270Y-82774399D01*
X144388949Y-82787564D01*
X144415062Y-82803621D01*
X144449736Y-82816474D01*
X144483124Y-82832354D01*
X144512834Y-82839864D01*
X144541583Y-82850521D01*
X144578104Y-82856363D01*
X144613942Y-82865422D01*
X144644555Y-82866992D01*
X144674822Y-82871834D01*
X144711763Y-82870440D01*
X144748696Y-82872335D01*
X144779028Y-82867903D01*
X144809657Y-82866747D01*
X144845625Y-82858170D01*
X144882212Y-82852824D01*
X144911096Y-82842559D01*
X144940911Y-82835450D01*
X144974516Y-82820021D01*
X145009355Y-82807640D01*
X145035678Y-82791940D01*
X145063537Y-82779149D01*
X145093488Y-82757460D01*
X145125240Y-82738521D01*
X145172917Y-82695496D01*
X145329213Y-82557040D01*
X145330656Y-82555984D01*
X145338395Y-82549056D01*
X145337717Y-82551598D01*
X145328753Y-82573513D01*
X145320371Y-82616646D01*
X145309051Y-82659095D01*
X145307531Y-82682719D01*
X145303013Y-82705968D01*
X145303207Y-82749904D01*
X145300385Y-82793748D01*
X145303504Y-82817219D01*
X145303608Y-82840900D01*
X145312371Y-82883958D01*
X145318157Y-82927506D01*
X145325795Y-82949920D01*
X145330517Y-82973122D01*
X145347508Y-83013636D01*
X145361681Y-83055227D01*
X145373544Y-83075719D01*
X145382702Y-83097555D01*
X145407271Y-83133976D01*
X145412346Y-83142742D01*
X145426100Y-83161888D01*
X145433051Y-83172191D01*
X145449160Y-83199646D01*
X145492654Y-83248545D01*
X145535894Y-83297733D01*
X145554621Y-83312068D01*
X145577091Y-83331284D01*
X145592224Y-83345259D01*
X145602670Y-83353158D01*
X145612618Y-83361666D01*
X145620429Y-83367117D01*
X145621748Y-83368476D01*
X145635149Y-83377720D01*
X145672881Y-83406254D01*
X145684731Y-83411995D01*
X145701791Y-83423901D01*
X145703430Y-83424820D01*
X145704988Y-83425895D01*
X145732960Y-83441382D01*
X145789989Y-83473368D01*
X145790292Y-83473467D01*
X145796110Y-83476790D01*
X145800281Y-83478657D01*
X145804280Y-83480871D01*
X145830940Y-83492379D01*
X145865707Y-83507940D01*
X145889479Y-83519196D01*
X145896389Y-83521672D01*
X145903092Y-83524672D01*
X145928041Y-83533013D01*
X145963031Y-83545551D01*
X145986902Y-83554743D01*
X145994678Y-83556890D01*
X146002269Y-83559610D01*
X146027083Y-83565837D01*
X146064643Y-83576208D01*
X146090148Y-83583818D01*
X146097073Y-83585162D01*
X146103858Y-83587036D01*
X146130048Y-83591565D01*
X146172768Y-83599859D01*
X146213147Y-83608180D01*
X146246805Y-83616108D01*
X146277019Y-83624121D01*
X146282059Y-83625627D01*
X146286132Y-83628492D01*
X146318871Y-83642984D01*
X146350140Y-83660438D01*
X146412423Y-83680578D01*
X146450220Y-83693043D01*
X146481135Y-83703332D01*
X146482045Y-83703538D01*
X146482929Y-83703830D01*
X146514673Y-83710941D01*
X146562868Y-83721876D01*
X146576283Y-83725742D01*
X146595645Y-83729313D01*
X146614861Y-83733673D01*
X146628723Y-83735414D01*
X146676622Y-83744248D01*
X146684579Y-83746336D01*
X146709693Y-83750348D01*
X146734710Y-83754962D01*
X146742908Y-83755654D01*
X146803271Y-83765297D01*
X146808946Y-83766683D01*
X146836501Y-83770605D01*
X146863955Y-83774991D01*
X146869780Y-83775342D01*
X146943732Y-83785869D01*
X146948352Y-83786930D01*
X146977019Y-83790607D01*
X147005653Y-83794683D01*
X147010393Y-83794888D01*
X147096270Y-83805903D01*
X147100368Y-83806792D01*
X147129593Y-83810178D01*
X147158845Y-83813930D01*
X147163046Y-83814054D01*
X147258366Y-83825097D01*
X147262391Y-83825919D01*
X147291735Y-83828963D01*
X147321120Y-83832367D01*
X147325238Y-83832438D01*
X147456267Y-83846028D01*
X147629521Y-83864231D01*
X147814052Y-83884222D01*
X148003993Y-83905329D01*
X148193943Y-83926935D01*
X148377840Y-83948362D01*
X148549456Y-83968872D01*
X148702715Y-83987772D01*
X148809811Y-84001566D01*
X148818905Y-84003402D01*
X148843149Y-84005860D01*
X148867341Y-84008976D01*
X148876621Y-84009254D01*
X148970938Y-84018816D01*
X148979681Y-84020347D01*
X149004389Y-84022208D01*
X149029051Y-84024708D01*
X149037930Y-84024733D01*
X149143070Y-84032651D01*
X149150296Y-84033758D01*
X149176617Y-84035177D01*
X149202883Y-84037155D01*
X149210186Y-84036987D01*
X149320917Y-84042957D01*
X149327514Y-84043837D01*
X149354494Y-84044767D01*
X149381462Y-84046221D01*
X149388114Y-84045926D01*
X149500897Y-84049814D01*
X149507438Y-84050559D01*
X149534489Y-84050972D01*
X149561559Y-84051905D01*
X149568136Y-84051485D01*
X149596453Y-84051918D01*
X149596679Y-84057060D01*
X149596578Y-84061300D01*
X149596819Y-84062681D01*
X149597748Y-84116970D01*
X149599706Y-84126002D01*
X149600111Y-84135233D01*
X149613984Y-84191869D01*
X149626333Y-84248840D01*
X149630014Y-84257313D01*
X149632213Y-84266292D01*
X149656866Y-84319129D01*
X149680094Y-84372600D01*
X149685360Y-84380196D01*
X149689267Y-84388570D01*
X149723748Y-84435573D01*
X149756968Y-84483494D01*
X149763615Y-84489917D01*
X149769080Y-84497367D01*
X149812074Y-84536746D01*
X149853999Y-84577260D01*
X149861768Y-84582261D01*
X149868583Y-84588503D01*
X149918431Y-84618735D01*
X149939028Y-84631994D01*
X149947201Y-84636185D01*
X149983956Y-84658476D01*
X150007089Y-84666890D01*
X150074629Y-84701518D01*
X150110279Y-84723310D01*
X150166103Y-84743835D01*
X150221474Y-84765668D01*
X150262598Y-84773119D01*
X150496743Y-84833944D01*
X150521326Y-84840951D01*
X150529261Y-84842391D01*
X150537076Y-84844421D01*
X150562345Y-84848394D01*
X150922738Y-84913792D01*
X150936004Y-84917009D01*
X150955817Y-84919795D01*
X150975507Y-84923368D01*
X150989116Y-84924477D01*
X151437234Y-84987489D01*
X151446215Y-84989414D01*
X151470534Y-84992172D01*
X151494771Y-84995580D01*
X151503949Y-84995961D01*
X152032596Y-85055913D01*
X152039669Y-85057274D01*
X152066042Y-85059706D01*
X152092313Y-85062685D01*
X152099503Y-85062791D01*
X152695248Y-85117722D01*
X152701471Y-85118801D01*
X152728732Y-85120809D01*
X152755962Y-85123320D01*
X152762280Y-85123281D01*
X153409506Y-85170960D01*
X153415205Y-85171850D01*
X153443043Y-85173431D01*
X153470861Y-85175480D01*
X153476630Y-85175338D01*
X153992780Y-85204646D01*
X153994025Y-85204836D01*
X154026426Y-85206557D01*
X154058711Y-85208390D01*
X154059965Y-85208338D01*
X154068062Y-85208768D01*
X154042719Y-85230119D01*
X154030749Y-85245093D01*
X154016794Y-85258243D01*
X153988708Y-85297687D01*
X153979579Y-85309108D01*
X153969187Y-85325103D01*
X153944808Y-85359342D01*
X153935855Y-85370364D01*
X153918813Y-85402639D01*
X153917347Y-85404895D01*
X153903117Y-85432364D01*
X153872850Y-85489684D01*
X153872075Y-85492285D01*
X153870832Y-85494685D01*
X153852836Y-85556886D01*
X153834335Y-85619004D01*
X153834083Y-85621698D01*
X153833330Y-85624302D01*
X153827813Y-85688830D01*
X153824931Y-85719689D01*
X153824945Y-85722383D01*
X153821836Y-85758744D01*
X153823587Y-85774443D01*
X153821981Y-85791178D01*
X153825467Y-85825679D01*
X153825471Y-85826557D01*
X153828828Y-85858955D01*
X153835544Y-85925428D01*
X153835802Y-85926270D01*
X153835892Y-85927142D01*
X153855460Y-85990493D01*
X153865141Y-86022123D01*
X153865481Y-86022937D01*
X153875713Y-86056065D01*
X153891250Y-86084783D01*
X153897192Y-86098953D01*
X153910060Y-86129799D01*
X153910364Y-86130365D01*
X153910614Y-86130960D01*
X153926487Y-86160346D01*
X153953810Y-86211156D01*
X153962949Y-86228599D01*
X153963451Y-86229832D01*
X153966589Y-86234590D01*
X153967895Y-86237008D01*
X153980841Y-86256201D01*
X153999838Y-86285005D01*
X154017568Y-86312019D01*
X154017905Y-86312660D01*
X154018829Y-86313802D01*
X154019124Y-86314249D01*
X154024322Y-86320661D01*
X154024444Y-86320842D01*
X154024569Y-86320966D01*
X154039948Y-86339938D01*
X154079568Y-86389034D01*
X154080113Y-86389861D01*
X154080785Y-86390541D01*
X154081722Y-86391703D01*
X154082859Y-86392652D01*
X154092088Y-86401993D01*
X154125164Y-86435501D01*
X154150993Y-86461684D01*
X154151076Y-86461753D01*
X154151151Y-86461829D01*
X154151471Y-86462095D01*
X154152369Y-86463004D01*
X154154867Y-86466006D01*
X154203214Y-86505137D01*
X154228724Y-86526365D01*
X154230902Y-86527548D01*
X154233469Y-86529626D01*
X154238477Y-86532923D01*
X154246894Y-86540693D01*
X154283954Y-86563367D01*
X154309855Y-86580918D01*
X154315004Y-86583090D01*
X154323445Y-86587528D01*
X154333153Y-86593468D01*
X154349181Y-86601228D01*
X154370810Y-86615171D01*
X154391748Y-86623443D01*
X154402859Y-86629285D01*
X154413845Y-86632536D01*
X154417021Y-86634074D01*
X154425327Y-86637132D01*
X154442776Y-86652749D01*
X154490599Y-86681008D01*
X154551099Y-86719657D01*
X154604214Y-86754453D01*
X154639230Y-86768586D01*
X154672885Y-86785694D01*
X154733953Y-86802855D01*
X154811541Y-86825623D01*
X154817368Y-86828531D01*
X154876193Y-86844595D01*
X154902304Y-86852257D01*
X154908667Y-86853463D01*
X154914919Y-86855170D01*
X154941750Y-86859731D01*
X155001658Y-86871083D01*
X155008174Y-86871024D01*
X155140442Y-86893510D01*
X155161570Y-86897873D01*
X155173593Y-86899146D01*
X155185506Y-86901171D01*
X155207015Y-86902684D01*
X155442351Y-86927597D01*
X155455720Y-86929811D01*
X155475795Y-86931137D01*
X155495792Y-86933254D01*
X155509337Y-86933353D01*
X155794004Y-86952157D01*
X155803301Y-86953437D01*
X155827552Y-86954374D01*
X155851780Y-86955974D01*
X155861162Y-86955672D01*
X156199374Y-86968733D01*
X156206300Y-86969543D01*
X156232934Y-86970029D01*
X156259628Y-86971060D01*
X156266608Y-86970644D01*
X156659519Y-86977815D01*
X156664919Y-86978360D01*
X156693209Y-86978430D01*
X156721393Y-86978944D01*
X156726783Y-86978512D01*
X157176589Y-86979619D01*
X157547023Y-86981719D01*
X157848415Y-86986984D01*
X158091759Y-86995967D01*
X158287387Y-87008947D01*
X158447225Y-87026048D01*
X158586205Y-87047805D01*
X158676320Y-87066517D01*
X158668948Y-87071079D01*
X158650062Y-87085505D01*
X158393540Y-87270010D01*
X158372243Y-87284603D01*
X158366254Y-87289636D01*
X158359899Y-87294207D01*
X158340513Y-87311268D01*
X158161562Y-87461657D01*
X158160356Y-87462326D01*
X158109996Y-87504992D01*
X158085214Y-87525819D01*
X158084253Y-87526803D01*
X158083201Y-87527694D01*
X158060602Y-87551012D01*
X158014549Y-87598153D01*
X158013798Y-87599306D01*
X157905439Y-87711114D01*
X157883435Y-87729176D01*
X157858603Y-87759441D01*
X157854886Y-87763276D01*
X157837255Y-87785459D01*
X157819292Y-87807352D01*
X157816327Y-87811791D01*
X157791967Y-87842440D01*
X157778942Y-87867753D01*
X157701671Y-87983424D01*
X157671934Y-88023312D01*
X157649784Y-88069844D01*
X157625494Y-88115299D01*
X157620837Y-88130656D01*
X157613940Y-88145146D01*
X157601292Y-88195112D01*
X157586339Y-88244426D01*
X157581468Y-88293938D01*
X157571650Y-88359013D01*
X157563198Y-88392837D01*
X157559978Y-88459170D01*
X157556554Y-88525504D01*
X157556707Y-88526555D01*
X157556656Y-88527611D01*
X157566435Y-88593269D01*
X157576022Y-88659025D01*
X157587684Y-88691877D01*
X157595319Y-88722281D01*
X157607429Y-88777769D01*
X157625217Y-88818559D01*
X157640233Y-88860450D01*
X157652128Y-88880270D01*
X157661366Y-88901453D01*
X157686769Y-88937988D01*
X157709670Y-88976146D01*
X157747821Y-89018190D01*
X157772448Y-89047089D01*
X157797935Y-89081725D01*
X157840963Y-89121018D01*
X157882938Y-89161466D01*
X157890734Y-89166469D01*
X157897574Y-89172715D01*
X157947454Y-89202867D01*
X157996500Y-89234340D01*
X158036530Y-89250059D01*
X158083444Y-89272463D01*
X158127911Y-89296463D01*
X158176417Y-89311392D01*
X158224143Y-89328671D01*
X158274104Y-89336274D01*
X158329845Y-89347596D01*
X158338920Y-89351101D01*
X158395853Y-89361004D01*
X158419391Y-89365785D01*
X158429019Y-89366773D01*
X158438547Y-89368430D01*
X158462478Y-89370205D01*
X158519986Y-89376105D01*
X158529676Y-89375190D01*
X158642005Y-89383523D01*
X158664068Y-89385904D01*
X158675537Y-89386011D01*
X158686971Y-89386859D01*
X158709149Y-89386324D01*
X158917374Y-89388262D01*
X158929121Y-89389123D01*
X158950997Y-89388575D01*
X158972878Y-89388779D01*
X158984610Y-89387734D01*
X159244738Y-89381221D01*
X159250840Y-89381559D01*
X159278341Y-89380380D01*
X159305891Y-89379690D01*
X159311963Y-89378938D01*
X159745506Y-89360348D01*
X160312704Y-89355732D01*
X160796550Y-89379480D01*
X161204791Y-89430681D01*
X161483585Y-89493571D01*
X161406100Y-89510239D01*
X161377287Y-89516064D01*
X161373223Y-89517311D01*
X161369080Y-89518202D01*
X161341145Y-89527152D01*
X161168305Y-89580177D01*
X161164008Y-89580668D01*
X161103906Y-89599933D01*
X161075783Y-89608561D01*
X161071809Y-89610222D01*
X161067712Y-89611535D01*
X161040743Y-89623205D01*
X160982479Y-89647553D01*
X160978889Y-89649968D01*
X160882110Y-89691844D01*
X160859516Y-89698346D01*
X160820335Y-89718574D01*
X160810895Y-89722658D01*
X160790448Y-89734002D01*
X160769661Y-89744734D01*
X160761024Y-89750328D01*
X160722470Y-89771719D01*
X160704534Y-89786915D01*
X160653576Y-89819920D01*
X160652642Y-89820294D01*
X160597134Y-89856475D01*
X160569558Y-89874336D01*
X160568769Y-89874964D01*
X160539603Y-89893976D01*
X160516138Y-89916913D01*
X160490479Y-89937363D01*
X160468011Y-89963956D01*
X160467288Y-89964662D01*
X160446115Y-89989871D01*
X160403395Y-90040432D01*
X160402909Y-90041312D01*
X160394541Y-90051274D01*
X160381010Y-90063344D01*
X160351240Y-90102828D01*
X160341175Y-90114811D01*
X160330984Y-90129693D01*
X160299776Y-90171084D01*
X160292935Y-90185256D01*
X160284040Y-90198246D01*
X160263653Y-90245921D01*
X160241121Y-90292602D01*
X160237176Y-90307840D01*
X160230987Y-90322312D01*
X160220297Y-90373029D01*
X160215774Y-90390497D01*
X160213354Y-90405969D01*
X160203157Y-90454345D01*
X160202951Y-90472472D01*
X160200817Y-90486115D01*
X160190698Y-90533320D01*
X160189913Y-90586330D01*
X160186893Y-90639253D01*
X160188916Y-90653674D01*
X160188700Y-90668238D01*
X160198272Y-90720381D01*
X160205635Y-90772878D01*
X160219776Y-90813409D01*
X160226674Y-90848063D01*
X160250538Y-90905655D01*
X160273547Y-90963615D01*
X160276351Y-90967949D01*
X160278327Y-90972718D01*
X160312987Y-91024576D01*
X160346843Y-91076906D01*
X160371519Y-91102324D01*
X160386154Y-91119692D01*
X160404717Y-91142305D01*
X160407835Y-91145422D01*
X160432470Y-91174658D01*
X160455441Y-91193016D01*
X160476231Y-91213801D01*
X160508012Y-91235031D01*
X160511465Y-91237790D01*
X160536041Y-91253754D01*
X160556235Y-91267243D01*
X160575035Y-91282878D01*
X160610625Y-91302201D01*
X160616239Y-91305847D01*
X160640204Y-91318259D01*
X160663905Y-91331127D01*
X160670068Y-91333727D01*
X160706032Y-91352354D01*
X160732078Y-91359887D01*
X160767564Y-91374858D01*
X160797583Y-91387614D01*
X160798431Y-91387880D01*
X160799247Y-91388224D01*
X160830376Y-91397889D01*
X160916967Y-91425021D01*
X160933607Y-91431098D01*
X160949062Y-91435077D01*
X160964279Y-91439845D01*
X160981611Y-91443457D01*
X161078705Y-91468455D01*
X161087868Y-91471512D01*
X161111291Y-91476844D01*
X161134524Y-91482826D01*
X161144059Y-91484304D01*
X161266092Y-91512086D01*
X161271059Y-91513660D01*
X161298929Y-91519562D01*
X161326634Y-91525869D01*
X161331791Y-91526520D01*
X161549555Y-91572634D01*
X161890498Y-91678803D01*
X162224887Y-91823024D01*
X162553776Y-92005192D01*
X162871480Y-92222504D01*
X163172502Y-92471693D01*
X163402923Y-92700723D01*
X163396269Y-92702354D01*
X163369519Y-92708397D01*
X163363574Y-92710369D01*
X163357486Y-92711862D01*
X163331602Y-92720977D01*
X163273541Y-92740241D01*
X163268065Y-92743352D01*
X163252387Y-92748873D01*
X163221358Y-92756299D01*
X163188924Y-92771222D01*
X163187128Y-92771855D01*
X163158261Y-92785331D01*
X163129493Y-92798568D01*
X163127859Y-92799524D01*
X163095499Y-92814631D01*
X163074959Y-92829705D01*
X163069801Y-92831650D01*
X163020523Y-92862329D01*
X162999581Y-92874583D01*
X162991956Y-92880114D01*
X162983956Y-92885095D01*
X162964706Y-92899882D01*
X162946538Y-92913062D01*
X162934565Y-92919774D01*
X162919306Y-92932817D01*
X162917728Y-92933962D01*
X162916823Y-92934940D01*
X162896896Y-92951973D01*
X162884390Y-92961580D01*
X162871313Y-92973841D01*
X162857697Y-92985480D01*
X162846779Y-92996845D01*
X162810621Y-93030747D01*
X162806876Y-93035979D01*
X162793540Y-93047490D01*
X162753087Y-93099359D01*
X162712335Y-93151097D01*
X162698668Y-93177948D01*
X162679435Y-93203141D01*
X162651303Y-93260542D01*
X162622578Y-93317654D01*
X162616097Y-93341100D01*
X162610326Y-93351810D01*
X162596516Y-93396783D01*
X162591884Y-93409184D01*
X162586643Y-93428937D01*
X162580643Y-93448478D01*
X162578016Y-93461455D01*
X162565952Y-93506925D01*
X162564720Y-93526467D01*
X162560505Y-93547949D01*
X162554220Y-93578994D01*
X162554010Y-93581056D01*
X162553611Y-93583089D01*
X162550588Y-93614635D01*
X162543967Y-93679596D01*
X162544164Y-93681663D01*
X162543920Y-93684205D01*
X162541157Y-93704873D01*
X162540712Y-93717671D01*
X162539491Y-93730416D01*
X162539546Y-93751261D01*
X162537316Y-93815468D01*
X162536204Y-93826483D01*
X162536149Y-93849051D01*
X162535365Y-93871635D01*
X162536068Y-93882698D01*
X162535794Y-93995870D01*
X162535210Y-94022913D01*
X162535713Y-94029468D01*
X162535697Y-94036048D01*
X162538285Y-94062992D01*
X162546363Y-94168278D01*
X162545889Y-94172698D01*
X162551519Y-94235468D01*
X162553758Y-94264654D01*
X162554527Y-94269008D01*
X162554922Y-94273415D01*
X162560386Y-94302196D01*
X162571340Y-94364237D01*
X162572951Y-94368378D01*
X162581238Y-94412026D01*
X162581412Y-94421422D01*
X162593803Y-94478206D01*
X162598344Y-94502124D01*
X162600979Y-94511090D01*
X162602971Y-94520220D01*
X162610469Y-94543388D01*
X162626854Y-94599145D01*
X162631210Y-94607468D01*
X162645628Y-94652016D01*
X162647309Y-94663182D01*
X162666364Y-94716081D01*
X162673283Y-94737459D01*
X162677775Y-94747759D01*
X162681579Y-94758321D01*
X162691219Y-94778591D01*
X162713703Y-94830152D01*
X162720151Y-94839426D01*
X162740722Y-94882680D01*
X162743222Y-94891565D01*
X162769654Y-94943517D01*
X162780181Y-94965651D01*
X162784916Y-94973513D01*
X162789078Y-94981693D01*
X162802278Y-95002340D01*
X162832353Y-95052276D01*
X162838567Y-95059103D01*
X162864207Y-95099209D01*
X162865725Y-95102963D01*
X162900501Y-95155980D01*
X162916485Y-95180981D01*
X162918977Y-95184146D01*
X162921189Y-95187518D01*
X162939829Y-95210628D01*
X162979043Y-95260431D01*
X162982121Y-95263063D01*
X163054702Y-95353050D01*
X163073832Y-95377156D01*
X163075707Y-95379093D01*
X163077410Y-95381205D01*
X163099123Y-95403290D01*
X163228832Y-95537322D01*
X163245193Y-95555185D01*
X163252211Y-95561480D01*
X163258770Y-95568257D01*
X163277247Y-95583934D01*
X163415133Y-95707605D01*
X163417718Y-95710366D01*
X163440180Y-95730070D01*
X163462413Y-95750011D01*
X163465461Y-95752247D01*
X163564149Y-95838818D01*
X163566868Y-95841656D01*
X163589452Y-95861014D01*
X163611786Y-95880606D01*
X163614977Y-95882893D01*
X163686565Y-95944256D01*
X163693469Y-95951066D01*
X163712090Y-95966135D01*
X163730287Y-95981733D01*
X163738237Y-95987295D01*
X163798869Y-96036361D01*
X163811053Y-96047284D01*
X163825023Y-96057527D01*
X163838470Y-96068409D01*
X163852122Y-96077396D01*
X163910995Y-96120562D01*
X163925823Y-96132441D01*
X163938102Y-96140437D01*
X163949922Y-96149104D01*
X163966276Y-96158785D01*
X164026301Y-96197875D01*
X164038236Y-96206619D01*
X164054484Y-96216229D01*
X164070293Y-96226524D01*
X164083416Y-96233340D01*
X164147732Y-96271379D01*
X164153850Y-96275660D01*
X164176692Y-96288508D01*
X164199228Y-96301836D01*
X164205990Y-96304986D01*
X164285086Y-96349473D01*
X164286613Y-96350529D01*
X164314359Y-96365937D01*
X164342116Y-96381549D01*
X164343822Y-96382299D01*
X164561171Y-96503000D01*
X164959290Y-96742138D01*
X165326901Y-96983898D01*
X165657547Y-97222560D01*
X165942294Y-97450259D01*
X165980154Y-97484485D01*
X165897659Y-97483706D01*
X165871988Y-97482868D01*
X165864065Y-97483388D01*
X165856119Y-97483313D01*
X165830510Y-97485591D01*
X165732709Y-97492012D01*
X165731508Y-97491858D01*
X165665618Y-97496416D01*
X165633025Y-97498556D01*
X165631827Y-97498754D01*
X165630626Y-97498837D01*
X165598521Y-97504257D01*
X165533255Y-97515040D01*
X165532126Y-97515465D01*
X165493312Y-97522017D01*
X165466150Y-97523372D01*
X165426970Y-97533217D01*
X165420447Y-97534318D01*
X165394286Y-97541429D01*
X165368077Y-97548015D01*
X165361869Y-97550242D01*
X165322865Y-97560844D01*
X165298511Y-97572964D01*
X165255663Y-97588331D01*
X165214870Y-97599667D01*
X165162274Y-97626213D01*
X165108984Y-97651465D01*
X165102082Y-97656592D01*
X165094410Y-97660464D01*
X165047984Y-97696776D01*
X165000664Y-97731925D01*
X164972251Y-97763321D01*
X164944925Y-97789394D01*
X164904765Y-97824695D01*
X164875696Y-97862670D01*
X164844502Y-97898911D01*
X164834772Y-97916130D01*
X164822746Y-97931840D01*
X164801641Y-97974761D01*
X164778120Y-98016386D01*
X164761405Y-98067166D01*
X164739432Y-98125754D01*
X164719988Y-98169896D01*
X164708488Y-98221674D01*
X164694814Y-98272941D01*
X164691715Y-98321085D01*
X164685620Y-98371464D01*
X164681127Y-98387861D01*
X164677536Y-98438288D01*
X164675520Y-98454955D01*
X164675144Y-98471873D01*
X164673944Y-98488728D01*
X164674398Y-98505486D01*
X164673275Y-98556052D01*
X164676221Y-98572799D01*
X164676983Y-98600924D01*
X164676654Y-98602919D01*
X164678810Y-98668365D01*
X164679666Y-98699980D01*
X164679917Y-98701970D01*
X164679983Y-98703987D01*
X164684143Y-98735536D01*
X164692299Y-98800311D01*
X164692936Y-98802224D01*
X164705176Y-98895052D01*
X164708426Y-98923086D01*
X164709566Y-98928341D01*
X164710270Y-98933682D01*
X164716695Y-98961213D01*
X164751964Y-99123824D01*
X164756576Y-99148124D01*
X164759090Y-99156682D01*
X164760980Y-99165395D01*
X164768566Y-99188935D01*
X164817510Y-99355527D01*
X164823526Y-99378446D01*
X164826988Y-99387787D01*
X164829795Y-99397343D01*
X164838667Y-99419305D01*
X164901331Y-99588407D01*
X164909082Y-99611254D01*
X164913018Y-99619944D01*
X164916329Y-99628880D01*
X164926880Y-99650552D01*
X164993659Y-99798005D01*
X164999749Y-99813453D01*
X165007528Y-99828628D01*
X165014564Y-99844164D01*
X165022866Y-99858549D01*
X165091326Y-99992100D01*
X165094916Y-100000537D01*
X165106661Y-100022015D01*
X165117837Y-100043816D01*
X165122803Y-100051532D01*
X165202000Y-100196354D01*
X165204799Y-100202585D01*
X165218150Y-100225885D01*
X165231014Y-100249409D01*
X165234857Y-100255043D01*
X165320587Y-100404662D01*
X165323220Y-100410252D01*
X165337299Y-100433828D01*
X165350966Y-100457680D01*
X165354553Y-100462720D01*
X165440839Y-100607210D01*
X165443860Y-100613308D01*
X165458073Y-100636069D01*
X165471847Y-100659135D01*
X165475896Y-100664613D01*
X165556842Y-100794246D01*
X165561202Y-100802476D01*
X165574651Y-100822766D01*
X165587547Y-100843419D01*
X165593232Y-100850799D01*
X165665142Y-100959289D01*
X165673926Y-100974035D01*
X165683704Y-100987294D01*
X165692820Y-101001047D01*
X165703674Y-101014373D01*
X165735908Y-101058082D01*
X165742699Y-101071076D01*
X165775879Y-101112282D01*
X165787217Y-101127656D01*
X165796978Y-101138484D01*
X165806121Y-101149839D01*
X165819502Y-101163471D01*
X165854924Y-101202767D01*
X165864086Y-101209600D01*
X165886844Y-101235916D01*
X165927733Y-101284366D01*
X165979788Y-101346957D01*
X166040467Y-101420678D01*
X166107693Y-101503027D01*
X166179533Y-101591690D01*
X166254958Y-101685433D01*
X166309550Y-101753362D01*
X166309618Y-101753467D01*
X166329883Y-101778664D01*
X166351630Y-101805724D01*
X166351717Y-101805813D01*
X166382495Y-101844082D01*
X166382529Y-101844134D01*
X166404231Y-101871109D01*
X166424632Y-101896475D01*
X166424670Y-101896514D01*
X166450798Y-101928989D01*
X166450853Y-101929074D01*
X166470976Y-101954070D01*
X166492912Y-101981336D01*
X166492988Y-101981414D01*
X166512615Y-102005794D01*
X166512642Y-102005835D01*
X166533096Y-102031235D01*
X166554782Y-102058173D01*
X166554818Y-102058210D01*
X166566222Y-102072371D01*
X166566357Y-102072577D01*
X166587784Y-102099148D01*
X166608279Y-102124598D01*
X166608444Y-102124766D01*
X166609762Y-102126400D01*
X166609824Y-102126495D01*
X166629502Y-102150879D01*
X166642006Y-102166384D01*
X166642661Y-102167374D01*
X166646122Y-102171631D01*
X166648523Y-102176199D01*
X166686315Y-102265812D01*
X166700454Y-102304064D01*
X166656992Y-102307679D01*
X166654650Y-102308351D01*
X166354415Y-102335463D01*
X166334914Y-102334493D01*
X166287372Y-102341517D01*
X166273171Y-102342799D01*
X166254096Y-102346433D01*
X166234877Y-102349272D01*
X166221037Y-102352730D01*
X166173834Y-102361722D01*
X166155737Y-102369046D01*
X165885512Y-102436567D01*
X165851135Y-102441744D01*
X165788718Y-102464233D01*
X165725933Y-102486657D01*
X165696100Y-102504515D01*
X165456751Y-102618367D01*
X165406455Y-102640048D01*
X165368156Y-102666438D01*
X165328319Y-102690436D01*
X165287822Y-102727304D01*
X165134718Y-102856660D01*
X165127971Y-102860593D01*
X165083257Y-102900139D01*
X165063454Y-102916870D01*
X165058042Y-102922439D01*
X165026896Y-102949985D01*
X165011126Y-102970717D01*
X164992979Y-102989390D01*
X164970382Y-103024279D01*
X164965673Y-103030469D01*
X164952059Y-103052569D01*
X164919626Y-103102643D01*
X164916742Y-103109897D01*
X164841894Y-103231395D01*
X164830876Y-103244508D01*
X164806586Y-103288710D01*
X164797850Y-103302891D01*
X164790376Y-103318209D01*
X164765893Y-103362762D01*
X164760847Y-103378726D01*
X164753506Y-103393772D01*
X164740552Y-103442941D01*
X164735418Y-103459184D01*
X164731982Y-103475468D01*
X164719129Y-103524253D01*
X164718080Y-103541353D01*
X164688010Y-103683866D01*
X164685292Y-103690607D01*
X164674094Y-103749816D01*
X164668635Y-103775690D01*
X164667844Y-103782866D01*
X164660218Y-103823190D01*
X164660469Y-103849777D01*
X164657556Y-103876204D01*
X164661104Y-103917082D01*
X164661172Y-103924308D01*
X164664015Y-103950626D01*
X164669223Y-104010631D01*
X164671251Y-104017607D01*
X164693295Y-104221662D01*
X164695855Y-104270231D01*
X164708835Y-104321272D01*
X164719593Y-104372812D01*
X164738625Y-104417559D01*
X164796716Y-104578100D01*
X164801215Y-104598938D01*
X164819619Y-104641398D01*
X164823864Y-104653128D01*
X164833000Y-104672266D01*
X164841432Y-104691720D01*
X164847490Y-104702623D01*
X164867426Y-104744386D01*
X164880186Y-104761463D01*
X164888777Y-104776924D01*
X164897670Y-104794575D01*
X164905100Y-104806299D01*
X164911848Y-104818443D01*
X164923104Y-104834707D01*
X164960297Y-104893396D01*
X164965688Y-104903276D01*
X164978296Y-104921797D01*
X164990292Y-104940726D01*
X164997221Y-104949598D01*
X165042871Y-105016658D01*
X165046717Y-105023344D01*
X165061794Y-105044456D01*
X165076396Y-105065906D01*
X165081341Y-105071826D01*
X165136668Y-105149299D01*
X165139796Y-105154520D01*
X165156205Y-105176655D01*
X165172236Y-105199103D01*
X165176246Y-105203690D01*
X165240293Y-105290089D01*
X165243117Y-105294640D01*
X165260335Y-105317124D01*
X165277181Y-105339850D01*
X165280773Y-105343815D01*
X165351781Y-105436544D01*
X165354548Y-105440859D01*
X165372243Y-105463266D01*
X165389579Y-105485905D01*
X165393075Y-105489645D01*
X165469112Y-105585929D01*
X165472188Y-105590559D01*
X165489952Y-105612318D01*
X165507370Y-105634375D01*
X165511228Y-105638381D01*
X165641832Y-105798363D01*
X165823626Y-106027564D01*
X165856346Y-106071639D01*
X165744713Y-106069724D01*
X165723731Y-106068590D01*
X165711111Y-106069148D01*
X165698471Y-106068931D01*
X165677517Y-106070633D01*
X165439495Y-106081153D01*
X165424725Y-106079535D01*
X165372240Y-106084126D01*
X165353339Y-106084961D01*
X165338700Y-106087059D01*
X165323987Y-106088346D01*
X165305410Y-106091830D01*
X165253238Y-106099308D01*
X165239224Y-106104245D01*
X165066892Y-106136569D01*
X165011182Y-106145163D01*
X164968982Y-106160539D01*
X164925864Y-106173106D01*
X164875865Y-106199132D01*
X164744446Y-106262224D01*
X164714451Y-106272961D01*
X164683796Y-106291341D01*
X164682035Y-106292186D01*
X164654832Y-106308706D01*
X164598725Y-106342346D01*
X164597275Y-106343661D01*
X164595603Y-106344676D01*
X164547302Y-106388966D01*
X164523807Y-106410267D01*
X164522503Y-106411706D01*
X164496151Y-106435870D01*
X164477316Y-106461577D01*
X164409198Y-106536754D01*
X164388480Y-106554856D01*
X164364005Y-106586631D01*
X164359780Y-106591294D01*
X164343491Y-106613263D01*
X164306141Y-106661754D01*
X164303326Y-106667437D01*
X164299553Y-106672525D01*
X164273416Y-106727807D01*
X164261249Y-106752366D01*
X164259020Y-106758255D01*
X164241878Y-106794512D01*
X164235197Y-106821198D01*
X164184486Y-106955186D01*
X164164439Y-107000954D01*
X164153419Y-107051060D01*
X164140046Y-107100605D01*
X164136685Y-107150470D01*
X164115327Y-107330161D01*
X164112188Y-107340997D01*
X164107377Y-107397042D01*
X164104725Y-107419357D01*
X164104499Y-107430574D01*
X164103540Y-107441749D01*
X164103822Y-107464216D01*
X164102690Y-107520458D01*
X164104668Y-107531564D01*
X164107909Y-107789745D01*
X164107411Y-107811090D01*
X164108331Y-107823351D01*
X164108485Y-107835654D01*
X164110846Y-107856886D01*
X164131251Y-108128965D01*
X164131362Y-108140314D01*
X164133763Y-108162468D01*
X164135433Y-108184730D01*
X164137390Y-108195929D01*
X164145560Y-108271300D01*
X164145867Y-108280013D01*
X164149188Y-108304768D01*
X164151874Y-108329546D01*
X164153655Y-108338063D01*
X164163861Y-108414132D01*
X164164321Y-108422026D01*
X164168329Y-108447436D01*
X164171755Y-108472975D01*
X164173572Y-108480683D01*
X164185438Y-108555914D01*
X164186037Y-108563379D01*
X164190678Y-108589135D01*
X164194755Y-108614988D01*
X164196641Y-108622235D01*
X164209693Y-108694676D01*
X164210566Y-108703003D01*
X164215655Y-108727768D01*
X164220139Y-108752656D01*
X164222425Y-108760713D01*
X164236386Y-108828653D01*
X164237708Y-108838503D01*
X164243156Y-108861601D01*
X164247931Y-108884838D01*
X164250875Y-108894326D01*
X164265446Y-108956101D01*
X164267626Y-108968738D01*
X164273162Y-108988818D01*
X164277947Y-109009103D01*
X164282103Y-109021244D01*
X164298333Y-109080109D01*
X164303319Y-109101057D01*
X164307271Y-109112524D01*
X164310493Y-109124212D01*
X164318220Y-109144301D01*
X164336839Y-109198334D01*
X164369183Y-109348426D01*
X164396660Y-109565611D01*
X164410642Y-109771411D01*
X164334073Y-109736886D01*
X164304460Y-109719898D01*
X164240945Y-109698535D01*
X164177211Y-109677029D01*
X164176879Y-109676986D01*
X164176567Y-109676881D01*
X164109919Y-109668295D01*
X164043401Y-109659661D01*
X164043073Y-109659683D01*
X164042739Y-109659640D01*
X163975149Y-109664259D01*
X163908773Y-109668730D01*
X163875814Y-109677626D01*
X163850109Y-109681943D01*
X163833275Y-109682261D01*
X163783706Y-109693097D01*
X163767009Y-109695901D01*
X163750855Y-109700278D01*
X163701456Y-109711076D01*
X163685841Y-109717892D01*
X163669405Y-109722345D01*
X163624128Y-109744830D01*
X163577790Y-109765056D01*
X163563811Y-109774783D01*
X163548553Y-109782360D01*
X163508522Y-109813255D01*
X163467032Y-109842124D01*
X163455218Y-109854392D01*
X163441732Y-109864800D01*
X163408513Y-109902892D01*
X163396888Y-109914964D01*
X163386382Y-109928270D01*
X163353047Y-109966495D01*
X163344670Y-109981098D01*
X163318526Y-110014209D01*
X163298527Y-110034330D01*
X163276827Y-110067020D01*
X163273456Y-110071290D01*
X163258192Y-110095094D01*
X163223903Y-110146750D01*
X163221827Y-110151805D01*
X163218871Y-110156415D01*
X163196209Y-110214186D01*
X163185488Y-110240292D01*
X163183926Y-110245499D01*
X163169596Y-110282029D01*
X163164587Y-110309953D01*
X163130795Y-110422577D01*
X163121762Y-110442581D01*
X163111453Y-110487042D01*
X163108049Y-110498389D01*
X163103853Y-110519823D01*
X163098922Y-110541091D01*
X163097391Y-110552833D01*
X163088622Y-110597628D01*
X163088689Y-110619578D01*
X163057863Y-110856001D01*
X163053887Y-110882254D01*
X163053518Y-110889323D01*
X163052601Y-110896357D01*
X163051765Y-110922921D01*
X163032905Y-111284301D01*
X163031386Y-111298063D01*
X163031153Y-111317882D01*
X163030120Y-111337671D01*
X163030757Y-111351499D01*
X163024525Y-111880966D01*
X163009029Y-112490773D01*
X162980995Y-113013955D01*
X162940122Y-113457746D01*
X162909515Y-113669648D01*
X162905118Y-113663201D01*
X162900372Y-113657529D01*
X162896075Y-113651510D01*
X162878768Y-113631707D01*
X162840229Y-113585643D01*
X162834438Y-113580981D01*
X162754168Y-113489132D01*
X162747129Y-113477912D01*
X162709864Y-113438437D01*
X162696357Y-113422982D01*
X162686752Y-113413955D01*
X162677712Y-113404379D01*
X162662241Y-113390919D01*
X162622670Y-113353729D01*
X162611432Y-113346714D01*
X162519973Y-113267142D01*
X162502739Y-113248007D01*
X162469194Y-113222964D01*
X162463122Y-113217681D01*
X162442253Y-113202850D01*
X162421707Y-113187512D01*
X162414807Y-113183347D01*
X162380693Y-113159104D01*
X162357200Y-113148571D01*
X162243084Y-113079683D01*
X162202567Y-113052141D01*
X162154409Y-113031743D01*
X162107211Y-113009238D01*
X162059733Y-112997186D01*
X161969031Y-112968882D01*
X161957858Y-112963310D01*
X161904752Y-112948824D01*
X161884438Y-112942485D01*
X161872272Y-112939964D01*
X161827681Y-112927801D01*
X161806355Y-112926307D01*
X161785418Y-112921969D01*
X161739186Y-112921601D01*
X161726805Y-112920734D01*
X161705557Y-112921334D01*
X161650490Y-112920896D01*
X161638221Y-112923235D01*
X161602997Y-112924230D01*
X161564442Y-112922071D01*
X161502401Y-112930841D01*
X161440228Y-112938742D01*
X161414024Y-112947506D01*
X161397069Y-112949433D01*
X161355966Y-112962578D01*
X161346878Y-112964788D01*
X161323921Y-112972825D01*
X161300751Y-112980235D01*
X161292165Y-112983943D01*
X161251435Y-112998203D01*
X161244148Y-113002503D01*
X161235613Y-113004997D01*
X161197953Y-113024633D01*
X161190003Y-113028067D01*
X161168129Y-113040184D01*
X161145947Y-113051750D01*
X161138696Y-113056489D01*
X161101545Y-113077068D01*
X161096888Y-113081008D01*
X161095203Y-113081792D01*
X161055391Y-113110925D01*
X161042404Y-113119412D01*
X161028258Y-113130780D01*
X161013596Y-113141510D01*
X161002024Y-113151864D01*
X160963582Y-113182759D01*
X160953995Y-113194200D01*
X160936656Y-113210354D01*
X160916697Y-113228212D01*
X160912030Y-113233296D01*
X160906976Y-113238004D01*
X160889255Y-113258103D01*
X160848309Y-113302703D01*
X160844702Y-113308634D01*
X160839744Y-113314257D01*
X160819906Y-113336232D01*
X160817513Y-113339472D01*
X160814852Y-113342490D01*
X160797562Y-113366484D01*
X160757815Y-113420296D01*
X160744888Y-113436481D01*
X160737827Y-113447359D01*
X160730136Y-113457771D01*
X160719537Y-113475533D01*
X160683953Y-113530348D01*
X160675644Y-113541674D01*
X160665659Y-113558529D01*
X160654977Y-113574985D01*
X160648512Y-113587476D01*
X160603920Y-113662753D01*
X160595974Y-113674585D01*
X160586792Y-113691666D01*
X160576897Y-113708371D01*
X160570864Y-113721299D01*
X160516880Y-113821732D01*
X160503130Y-113846364D01*
X160500951Y-113851366D01*
X160498373Y-113856161D01*
X160487538Y-113882148D01*
X160435284Y-114002069D01*
X160422170Y-114031978D01*
X160421929Y-114032718D01*
X160421619Y-114033429D01*
X160411570Y-114064504D01*
X160366367Y-114203212D01*
X160357614Y-114228302D01*
X160355950Y-114235178D01*
X160353759Y-114241900D01*
X160348044Y-114267840D01*
X160309075Y-114428833D01*
X160304282Y-114445125D01*
X160301166Y-114461509D01*
X160297242Y-114477720D01*
X160294884Y-114494540D01*
X160256955Y-114693965D01*
X160254552Y-114703044D01*
X160250675Y-114726982D01*
X160246139Y-114750833D01*
X160245296Y-114760197D01*
X160203177Y-115020275D01*
X160202057Y-115024747D01*
X160197792Y-115053521D01*
X160193154Y-115082162D01*
X160192867Y-115086751D01*
X160142024Y-115429800D01*
X160141599Y-115431536D01*
X160137100Y-115463022D01*
X160132421Y-115494593D01*
X160132333Y-115496383D01*
X160082381Y-115845976D01*
X160058249Y-115995168D01*
X160031177Y-116143296D01*
X160001992Y-116286452D01*
X159972074Y-116419013D01*
X159943014Y-116534639D01*
X159917912Y-116622794D01*
X159876349Y-116534520D01*
X159866257Y-116511613D01*
X159862039Y-116504127D01*
X159858374Y-116496344D01*
X159845524Y-116474821D01*
X159775799Y-116351088D01*
X159760827Y-116324031D01*
X159759324Y-116321850D01*
X159758020Y-116319537D01*
X159740238Y-116294166D01*
X159697599Y-116232319D01*
X159692829Y-116222179D01*
X159659365Y-116176860D01*
X159646571Y-116158303D01*
X159639380Y-116149796D01*
X159632760Y-116140831D01*
X159617651Y-116124091D01*
X159581289Y-116081075D01*
X159572525Y-116074093D01*
X159551550Y-116050854D01*
X159523581Y-116015476D01*
X159480799Y-115979039D01*
X159439246Y-115941220D01*
X159400614Y-115917956D01*
X159362959Y-115891789D01*
X159320896Y-115859816D01*
X159277364Y-115838594D01*
X159235057Y-115814978D01*
X159216826Y-115809082D01*
X159199607Y-115800688D01*
X159152762Y-115788364D01*
X159106671Y-115773459D01*
X159074792Y-115769730D01*
X159070255Y-115768196D01*
X159013337Y-115760768D01*
X158989988Y-115757022D01*
X158979944Y-115756410D01*
X158936456Y-115750734D01*
X158912763Y-115752314D01*
X158889053Y-115750868D01*
X158845586Y-115756792D01*
X158801822Y-115759710D01*
X158778888Y-115765883D01*
X158755356Y-115769090D01*
X158713882Y-115783379D01*
X158704175Y-115785992D01*
X158688731Y-115791825D01*
X158666204Y-115797144D01*
X158642423Y-115807999D01*
X158627782Y-115813044D01*
X158619044Y-115818142D01*
X158615801Y-115819367D01*
X158595166Y-115829572D01*
X158574212Y-115839137D01*
X158565001Y-115844489D01*
X158525157Y-115864194D01*
X158508048Y-115877352D01*
X158493314Y-115885507D01*
X158487403Y-115889583D01*
X158481199Y-115893188D01*
X158459743Y-115908655D01*
X158436401Y-115924750D01*
X158421785Y-115933825D01*
X158408723Y-115943834D01*
X158395173Y-115953177D01*
X158382035Y-115964284D01*
X158362682Y-115979114D01*
X158352285Y-115986108D01*
X158335984Y-115999572D01*
X158319210Y-116012425D01*
X158310063Y-116020981D01*
X158290189Y-116037396D01*
X158281734Y-116043464D01*
X158264273Y-116058800D01*
X158246340Y-116073612D01*
X158238998Y-116081001D01*
X158217153Y-116100187D01*
X158209603Y-116105929D01*
X158191887Y-116122379D01*
X158173723Y-116138333D01*
X158167244Y-116145261D01*
X158143148Y-116167635D01*
X158135600Y-116173720D01*
X158118516Y-116190507D01*
X158100949Y-116206819D01*
X158094520Y-116214086D01*
X158040897Y-116266778D01*
X158019191Y-116287679D01*
X158016937Y-116290322D01*
X158014461Y-116292755D01*
X157995152Y-116315867D01*
X157898298Y-116429440D01*
X157879978Y-116450183D01*
X157876500Y-116455001D01*
X157872641Y-116459526D01*
X157856826Y-116482254D01*
X157759394Y-116617220D01*
X157746500Y-116633757D01*
X157739721Y-116644472D01*
X157732295Y-116654759D01*
X157721741Y-116672893D01*
X157622380Y-116829947D01*
X157613302Y-116842758D01*
X157604402Y-116858363D01*
X157594800Y-116873541D01*
X157587748Y-116887566D01*
X157482440Y-117072218D01*
X157476057Y-117081904D01*
X157465783Y-117101425D01*
X157454853Y-117120590D01*
X157450121Y-117131183D01*
X157335557Y-117348857D01*
X157331029Y-117356116D01*
X157319907Y-117378591D01*
X157308208Y-117400820D01*
X157304979Y-117408758D01*
X157178351Y-117664653D01*
X157175115Y-117670060D01*
X157163432Y-117694802D01*
X157151300Y-117719319D01*
X157149073Y-117725212D01*
X157007956Y-118024069D01*
X157005716Y-118027924D01*
X156993618Y-118054433D01*
X156981133Y-118080874D01*
X156979628Y-118085088D01*
X156851099Y-118366723D01*
X156843616Y-118380858D01*
X156826314Y-118345672D01*
X156791587Y-118300309D01*
X156776253Y-118278978D01*
X156767505Y-118262243D01*
X156736969Y-118224329D01*
X156728267Y-118212224D01*
X156715849Y-118198107D01*
X156682867Y-118157156D01*
X156671373Y-118147545D01*
X156661478Y-118136296D01*
X156619714Y-118104348D01*
X156605291Y-118092288D01*
X156592973Y-118083893D01*
X156554306Y-118054314D01*
X156549145Y-118051778D01*
X156547778Y-118050493D01*
X156502176Y-118022010D01*
X156485654Y-118010749D01*
X156473625Y-118004176D01*
X156433335Y-117979011D01*
X156414549Y-117971898D01*
X156396914Y-117962262D01*
X156351572Y-117948051D01*
X156338765Y-117943202D01*
X156319478Y-117937993D01*
X156268156Y-117921908D01*
X156254457Y-117920432D01*
X156246713Y-117918340D01*
X156202651Y-117903495D01*
X156148310Y-117896467D01*
X156094269Y-117887435D01*
X156047799Y-117888864D01*
X156014156Y-117887839D01*
X155981094Y-117883518D01*
X155946897Y-117885791D01*
X155946432Y-117885777D01*
X155913372Y-117888020D01*
X155880195Y-117890225D01*
X155879735Y-117890301D01*
X155845541Y-117892621D01*
X155813352Y-117901325D01*
X155793992Y-117904540D01*
X155745141Y-117909991D01*
X155695443Y-117925772D01*
X155645097Y-117939312D01*
X155601035Y-117961092D01*
X155571831Y-117973634D01*
X155532969Y-117986886D01*
X155480860Y-118017066D01*
X155428120Y-118046141D01*
X155396718Y-118072599D01*
X155383528Y-118082079D01*
X155366550Y-118090969D01*
X155328867Y-118121363D01*
X155316987Y-118129900D01*
X155302662Y-118142497D01*
X155287838Y-118154454D01*
X155277420Y-118164696D01*
X155241051Y-118196680D01*
X155229405Y-118211901D01*
X155182519Y-118257996D01*
X155159089Y-118280928D01*
X155158599Y-118281513D01*
X155158051Y-118282051D01*
X155137153Y-118307078D01*
X155052397Y-118408118D01*
X155039298Y-118422481D01*
X155030799Y-118433867D01*
X155021661Y-118444760D01*
X155010681Y-118460817D01*
X154921720Y-118579988D01*
X154914514Y-118588422D01*
X154901621Y-118606913D01*
X154888109Y-118625014D01*
X154882371Y-118634520D01*
X154779042Y-118782710D01*
X154775283Y-118787266D01*
X154759803Y-118810301D01*
X154743933Y-118833062D01*
X154741047Y-118838213D01*
X154624502Y-119011645D01*
X154555272Y-119113809D01*
X154500971Y-119190266D01*
X154450707Y-119255783D01*
X154391083Y-119327233D01*
X154309246Y-119419078D01*
X154195636Y-119541651D01*
X154042889Y-119703361D01*
X153869821Y-119885418D01*
X153719344Y-120030693D01*
X153707356Y-120041266D01*
X153702543Y-120000425D01*
X153701836Y-119987813D01*
X153698607Y-119967030D01*
X153696146Y-119946147D01*
X153693446Y-119933811D01*
X153686465Y-119888879D01*
X153684038Y-119868184D01*
X153681303Y-119855656D01*
X153679335Y-119842988D01*
X153675368Y-119827599D01*
X153674838Y-119817348D01*
X153661064Y-119762943D01*
X153656296Y-119741099D01*
X153652802Y-119730305D01*
X153650020Y-119719318D01*
X153642444Y-119698310D01*
X153625607Y-119646304D01*
X153624732Y-119641945D01*
X153605176Y-119594975D01*
X153599380Y-119578904D01*
X153592243Y-119563911D01*
X153572868Y-119517377D01*
X153563298Y-119503111D01*
X153555914Y-119487600D01*
X153525784Y-119447188D01*
X153516534Y-119433399D01*
X153505671Y-119420212D01*
X153475261Y-119379424D01*
X153462864Y-119368245D01*
X153449993Y-119352619D01*
X153444741Y-119343513D01*
X153407140Y-119300597D01*
X153392388Y-119282688D01*
X153384990Y-119275317D01*
X153355820Y-119242024D01*
X153337298Y-119227798D01*
X153320753Y-119211313D01*
X153283908Y-119186791D01*
X153248808Y-119159832D01*
X153227865Y-119149492D01*
X153208424Y-119136553D01*
X153167508Y-119119692D01*
X153158134Y-119115064D01*
X153136383Y-119106866D01*
X153083668Y-119085143D01*
X153073358Y-119083112D01*
X153025471Y-119065063D01*
X152975680Y-119044039D01*
X152929432Y-119034510D01*
X152883809Y-119022263D01*
X152863475Y-119020921D01*
X152843523Y-119016810D01*
X152796299Y-119016487D01*
X152749170Y-119013376D01*
X152695570Y-119020407D01*
X152567298Y-119032155D01*
X152505491Y-119036828D01*
X152467669Y-119047369D01*
X152431421Y-119054322D01*
X152432618Y-119051072D01*
X152449100Y-119014667D01*
X152450492Y-119008714D01*
X152452905Y-119003099D01*
X152456525Y-118986153D01*
X152462249Y-118970610D01*
X152468271Y-118932662D01*
X152477311Y-118893990D01*
X152477520Y-118887876D01*
X152478796Y-118881903D01*
X152479054Y-118864705D01*
X152481671Y-118848212D01*
X152480197Y-118809556D01*
X152481545Y-118770132D01*
X152480562Y-118764094D01*
X152480654Y-118757987D01*
X152477590Y-118741192D01*
X152476948Y-118724371D01*
X152475686Y-118715595D01*
X152475558Y-118714749D01*
X152475315Y-118709080D01*
X152472056Y-118686059D01*
X152471632Y-118662810D01*
X152463391Y-118624840D01*
X152457946Y-118586372D01*
X152450275Y-118564416D01*
X152445345Y-118541700D01*
X152429891Y-118506066D01*
X152417073Y-118469376D01*
X152405283Y-118449327D01*
X152396035Y-118428002D01*
X152391677Y-118420281D01*
X152271098Y-118210129D01*
X152265663Y-118202495D01*
X152261566Y-118194068D01*
X152229784Y-118152093D01*
X152199227Y-118109167D01*
X152192408Y-118102729D01*
X152186756Y-118095264D01*
X152180695Y-118088793D01*
X152017053Y-117916538D01*
X152014286Y-117914144D01*
X152012008Y-117911289D01*
X152005784Y-117904974D01*
X151995199Y-117894385D01*
X151987881Y-117886215D01*
X151950824Y-117843417D01*
X151944352Y-117837358D01*
X151921962Y-117816688D01*
X151892117Y-117794106D01*
X151864105Y-117769271D01*
X151842811Y-117756798D01*
X151823134Y-117741910D01*
X151820909Y-117740829D01*
X151777273Y-117702282D01*
X151739387Y-117674900D01*
X151702874Y-117645734D01*
X151695407Y-117640955D01*
X151569660Y-117561714D01*
X151565731Y-117559745D01*
X151562230Y-117557104D01*
X151554632Y-117552533D01*
X151447144Y-117488893D01*
X151348722Y-117418589D01*
X151318422Y-117401138D01*
X151289725Y-117381170D01*
X151264861Y-117370291D01*
X151241329Y-117356738D01*
X151208206Y-117345502D01*
X151176187Y-117331492D01*
X151149682Y-117325649D01*
X151123968Y-117316926D01*
X151089306Y-117312339D01*
X151055163Y-117304812D01*
X151028020Y-117304228D01*
X151001109Y-117300667D01*
X150966222Y-117302900D01*
X150931261Y-117302148D01*
X150904518Y-117306848D01*
X150877431Y-117308582D01*
X150867530Y-117311209D01*
X150864732Y-117311681D01*
X150846989Y-117312167D01*
X150803735Y-117321969D01*
X150760020Y-117329342D01*
X150743431Y-117335635D01*
X150726123Y-117339557D01*
X150685604Y-117357570D01*
X150644146Y-117373297D01*
X150629092Y-117382694D01*
X150612879Y-117389902D01*
X150576636Y-117415439D01*
X150539017Y-117438922D01*
X150526074Y-117451065D01*
X150511571Y-117461284D01*
X150496162Y-117477448D01*
X150450052Y-117506074D01*
X150409175Y-117537364D01*
X150367277Y-117567284D01*
X150360032Y-117574981D01*
X150351642Y-117581403D01*
X150329171Y-117606921D01*
X150269995Y-117545629D01*
X150263564Y-117540154D01*
X150258144Y-117533675D01*
X150216439Y-117500038D01*
X150175627Y-117465296D01*
X150168251Y-117461173D01*
X150161679Y-117455872D01*
X150114245Y-117430982D01*
X150067452Y-117404823D01*
X150059416Y-117402211D01*
X150051940Y-117398288D01*
X150043701Y-117395011D01*
X149911064Y-117343331D01*
X149857189Y-117328200D01*
X149803693Y-117312065D01*
X149797629Y-117311472D01*
X149791750Y-117309821D01*
X149735960Y-117305442D01*
X149680351Y-117300005D01*
X149674284Y-117300602D01*
X149668199Y-117300124D01*
X149612629Y-117306664D01*
X149557015Y-117312133D01*
X149551179Y-117313897D01*
X149545118Y-117314610D01*
X149491914Y-117331807D01*
X149438384Y-117347985D01*
X149432996Y-117350852D01*
X149427195Y-117352727D01*
X149378341Y-117379932D01*
X149328977Y-117406198D01*
X149321627Y-117411158D01*
X149228608Y-117474887D01*
X149189629Y-117507612D01*
X149149544Y-117538938D01*
X149143167Y-117545097D01*
X149097302Y-117590022D01*
X149058832Y-117620954D01*
X149024550Y-117647366D01*
X148934365Y-117621963D01*
X148907771Y-117617211D01*
X148881856Y-117609553D01*
X148873137Y-117607943D01*
X148766339Y-117588993D01*
X148759356Y-117588448D01*
X148752580Y-117586708D01*
X148743809Y-117585412D01*
X148639531Y-117570751D01*
X148516286Y-117551032D01*
X148501951Y-117550158D01*
X148487899Y-117547144D01*
X148452278Y-117546582D01*
X148446165Y-117545152D01*
X148434270Y-117544744D01*
X148422583Y-117542468D01*
X148372429Y-117542624D01*
X148322308Y-117540906D01*
X148310557Y-117542817D01*
X148298653Y-117542854D01*
X148288087Y-117544980D01*
X148248329Y-117540942D01*
X148208581Y-117534131D01*
X148199734Y-117533556D01*
X148170454Y-117531856D01*
X148111812Y-117534187D01*
X148053237Y-117535900D01*
X148049974Y-117536646D01*
X148046622Y-117536779D01*
X147989562Y-117550454D01*
X147932422Y-117563514D01*
X147929362Y-117564881D01*
X147926104Y-117565662D01*
X147872784Y-117590161D01*
X147846657Y-117601835D01*
X147824314Y-117591119D01*
X147784677Y-117569447D01*
X147768547Y-117564371D01*
X147753305Y-117557061D01*
X147709558Y-117545809D01*
X147666461Y-117532248D01*
X147649655Y-117530402D01*
X147633281Y-117526191D01*
X147624510Y-117524892D01*
X147600391Y-117521492D01*
X147590968Y-117521093D01*
X147581745Y-117519145D01*
X147529150Y-117518477D01*
X147476571Y-117516251D01*
X147467251Y-117517690D01*
X147457825Y-117517570D01*
X147406106Y-117527130D01*
X147354092Y-117535160D01*
X147345226Y-117538383D01*
X147335958Y-117540096D01*
X147324959Y-117544467D01*
X147289075Y-117542093D01*
X147228244Y-117537891D01*
X147227319Y-117538009D01*
X147226386Y-117537947D01*
X147165818Y-117545831D01*
X147105304Y-117553527D01*
X147104418Y-117553822D01*
X147103492Y-117553943D01*
X147045755Y-117573392D01*
X147023056Y-117580964D01*
X146970664Y-117563747D01*
X146917775Y-117545254D01*
X146911821Y-117544410D01*
X146906111Y-117542533D01*
X146850526Y-117535716D01*
X146795073Y-117527851D01*
X146789071Y-117528179D01*
X146783102Y-117527447D01*
X146727217Y-117531559D01*
X146671327Y-117534613D01*
X146665507Y-117536099D01*
X146659506Y-117536541D01*
X146605501Y-117551426D01*
X146551252Y-117565281D01*
X146545825Y-117567873D01*
X146540030Y-117569470D01*
X146531776Y-117572706D01*
X146488716Y-117589936D01*
X146464821Y-117602326D01*
X146439701Y-117611999D01*
X146409943Y-117630782D01*
X146386985Y-117642686D01*
X146374170Y-117632800D01*
X146340130Y-117615867D01*
X146307478Y-117596410D01*
X146284784Y-117588334D01*
X146263211Y-117577602D01*
X146226530Y-117567602D01*
X146190721Y-117554859D01*
X146166889Y-117551344D01*
X146143643Y-117545007D01*
X146105729Y-117542323D01*
X146068117Y-117536776D01*
X146044049Y-117537958D01*
X146020022Y-117536257D01*
X145982308Y-117540989D01*
X145944336Y-117542853D01*
X145920959Y-117548686D01*
X145897056Y-117551685D01*
X145860980Y-117563652D01*
X145824092Y-117572856D01*
X145802292Y-117583119D01*
X145779429Y-117590703D01*
X145768114Y-117597118D01*
X145736948Y-117605366D01*
X145720507Y-117611488D01*
X145703373Y-117615249D01*
X145662553Y-117633067D01*
X145620807Y-117648611D01*
X145605868Y-117657810D01*
X145589792Y-117664827D01*
X145582082Y-117669204D01*
X145537292Y-117695044D01*
X145495164Y-117725184D01*
X145452101Y-117753943D01*
X145444842Y-117761186D01*
X145436500Y-117767154D01*
X145421918Y-117782672D01*
X145392991Y-117764651D01*
X145389510Y-117762929D01*
X145386401Y-117760601D01*
X145378787Y-117756058D01*
X145296502Y-117707735D01*
X145221232Y-117653228D01*
X145216448Y-117650431D01*
X145212243Y-117646838D01*
X145163056Y-117619218D01*
X145114243Y-117590682D01*
X145109005Y-117588867D01*
X145104184Y-117586160D01*
X145050553Y-117568615D01*
X144997142Y-117550109D01*
X144991656Y-117549347D01*
X144986396Y-117547626D01*
X144930338Y-117540827D01*
X144874391Y-117533054D01*
X144868864Y-117533372D01*
X144863367Y-117532705D01*
X144807045Y-117536925D01*
X144780759Y-117538436D01*
X144777262Y-117538232D01*
X144772231Y-117538926D01*
X144750665Y-117540166D01*
X144745304Y-117541551D01*
X144739784Y-117541965D01*
X144731060Y-117543548D01*
X144718114Y-117545991D01*
X144678945Y-117549831D01*
X144666922Y-117553461D01*
X144654496Y-117555176D01*
X144607716Y-117571336D01*
X144560304Y-117585651D01*
X144549222Y-117591544D01*
X144537358Y-117595642D01*
X144494590Y-117620592D01*
X144450880Y-117643833D01*
X144441155Y-117651764D01*
X144430312Y-117658090D01*
X144393424Y-117690678D01*
X144389921Y-117692834D01*
X144348581Y-117718674D01*
X144301734Y-117754761D01*
X144276093Y-117774147D01*
X144274137Y-117773291D01*
X144263833Y-117761500D01*
X144241055Y-117731064D01*
X144223149Y-117714947D01*
X144207295Y-117696806D01*
X144177195Y-117673585D01*
X144148942Y-117648155D01*
X144128247Y-117635824D01*
X144109171Y-117621107D01*
X144075131Y-117604174D01*
X144042479Y-117584717D01*
X144019785Y-117576641D01*
X143998212Y-117565909D01*
X143961531Y-117555909D01*
X143925722Y-117543166D01*
X143901890Y-117539651D01*
X143878644Y-117533314D01*
X143840730Y-117530630D01*
X143803118Y-117525083D01*
X143779050Y-117526265D01*
X143755023Y-117524564D01*
X143717309Y-117529296D01*
X143679337Y-117531160D01*
X143655960Y-117536993D01*
X143632057Y-117539992D01*
X143595981Y-117551959D01*
X143559093Y-117561163D01*
X143537293Y-117571426D01*
X143514430Y-117579010D01*
X143503115Y-117585425D01*
X143471949Y-117593673D01*
X143455508Y-117599795D01*
X143438374Y-117603556D01*
X143397554Y-117621374D01*
X143355808Y-117636918D01*
X143340869Y-117646117D01*
X143324793Y-117653134D01*
X143317083Y-117657511D01*
X143272293Y-117683351D01*
X143230162Y-117713493D01*
X143187102Y-117742250D01*
X143179843Y-117749493D01*
X143171501Y-117755461D01*
X143136024Y-117793215D01*
X143099373Y-117829785D01*
X143093661Y-117838297D01*
X143086635Y-117845774D01*
X143059174Y-117889690D01*
X143030317Y-117932692D01*
X143026364Y-117942158D01*
X143020928Y-117950852D01*
X143002526Y-117999249D01*
X142982565Y-118047053D01*
X142980023Y-118055547D01*
X142967963Y-118096887D01*
X142963056Y-118122945D01*
X142955268Y-118148286D01*
X142953563Y-118156987D01*
X142948363Y-118184547D01*
X142947608Y-118193030D01*
X142945439Y-118201268D01*
X142944090Y-118210031D01*
X142938602Y-118247408D01*
X142928930Y-118255126D01*
X142901674Y-118273010D01*
X142880619Y-118293679D01*
X142857553Y-118312086D01*
X142836503Y-118336987D01*
X142813235Y-118359828D01*
X142796595Y-118384194D01*
X142777544Y-118406730D01*
X142761729Y-118435249D01*
X142743344Y-118462171D01*
X142731754Y-118489303D01*
X142717443Y-118515111D01*
X142707471Y-118546153D01*
X142694662Y-118576139D01*
X142688561Y-118605014D01*
X142679538Y-118633102D01*
X142675786Y-118665484D01*
X142669044Y-118697392D01*
X142668668Y-118726902D01*
X142665272Y-118756209D01*
X142667881Y-118788710D01*
X142667466Y-118821313D01*
X142672828Y-118850328D01*
X142675189Y-118879741D01*
X142684061Y-118911115D01*
X142689986Y-118943179D01*
X142700881Y-118970598D01*
X142708911Y-118998995D01*
X142723712Y-119028055D01*
X142735750Y-119058351D01*
X142739867Y-119066203D01*
X142753647Y-119092043D01*
X142764924Y-119108971D01*
X142765156Y-119109427D01*
X142765623Y-119110020D01*
X142786655Y-119141593D01*
X142792508Y-119150523D01*
X142792572Y-119150876D01*
X142796116Y-119187021D01*
X142802115Y-119206889D01*
X142713746Y-119184977D01*
X142393081Y-119094681D01*
X142153528Y-119015049D01*
X142028574Y-118962162D01*
X142005791Y-118952347D01*
X141997446Y-118948029D01*
X141974915Y-118939046D01*
X141952627Y-118929445D01*
X141943671Y-118926590D01*
X141943125Y-118926372D01*
X141935881Y-118922837D01*
X141911891Y-118913920D01*
X141888107Y-118904438D01*
X141880692Y-118902296D01*
X141871823Y-118898287D01*
X141849524Y-118890739D01*
X141827444Y-118882532D01*
X141817715Y-118879968D01*
X141806618Y-118875414D01*
X141785921Y-118869210D01*
X141765452Y-118862281D01*
X141753710Y-118859554D01*
X141753364Y-118859450D01*
X141739002Y-118854290D01*
X141721157Y-118849795D01*
X141703529Y-118844511D01*
X141688551Y-118841583D01*
X141682569Y-118840076D01*
X141659687Y-118833607D01*
X141651748Y-118832184D01*
X141637879Y-118827415D01*
X141585484Y-118820306D01*
X141566669Y-118816934D01*
X141557869Y-118816236D01*
X141538294Y-118809728D01*
X141504455Y-118797490D01*
X141466510Y-118782710D01*
X141427718Y-118766603D01*
X141299262Y-118709340D01*
X141028943Y-118587794D01*
X140794564Y-118481833D01*
X140595144Y-118390961D01*
X140428795Y-118314339D01*
X140293729Y-118251159D01*
X140188875Y-118200990D01*
X140114713Y-118164256D01*
X139968938Y-118087246D01*
X139697148Y-117942443D01*
X139484393Y-117827541D01*
X139314955Y-117733428D01*
X139170821Y-117649797D01*
X139031768Y-117564967D01*
X138877673Y-117466958D01*
X138690314Y-117344801D01*
X138441312Y-117180934D01*
X138194039Y-117016206D01*
X137985610Y-116873978D01*
X137805759Y-116746793D01*
X137643028Y-116626354D01*
X137485384Y-116503817D01*
X137320732Y-116369982D01*
X137137753Y-116216089D01*
X136963046Y-116066014D01*
X136837060Y-115952113D01*
X136698542Y-115820897D01*
X136552544Y-115678053D01*
X136405490Y-115529530D01*
X136262433Y-115380457D01*
X136128745Y-115236369D01*
X136010561Y-115103788D01*
X135870693Y-114937800D01*
X135868055Y-114934069D01*
X135849036Y-114912099D01*
X135830281Y-114889842D01*
X135827003Y-114886648D01*
X135601333Y-114625967D01*
X135596568Y-114619549D01*
X135579328Y-114600548D01*
X135562525Y-114581138D01*
X135556722Y-114575633D01*
X135333657Y-114329781D01*
X135328163Y-114322769D01*
X135311053Y-114304868D01*
X135294424Y-114286540D01*
X135287824Y-114280565D01*
X135065373Y-114047826D01*
X135059315Y-114040520D01*
X135042146Y-114023525D01*
X135025442Y-114006048D01*
X135018238Y-113999858D01*
X134793058Y-113776954D01*
X134786676Y-113769685D01*
X134769161Y-113753299D01*
X134752111Y-113736421D01*
X134744601Y-113730322D01*
X134513412Y-113514030D01*
X134507000Y-113507119D01*
X134488827Y-113491029D01*
X134471144Y-113474486D01*
X134463677Y-113468763D01*
X134223178Y-113255837D01*
X134217058Y-113249569D01*
X134197994Y-113233540D01*
X134179353Y-113217036D01*
X134172259Y-113211902D01*
X133918892Y-112998869D01*
X133913107Y-112993217D01*
X133893120Y-112977200D01*
X133873563Y-112960756D01*
X133866908Y-112956194D01*
X133477453Y-112644089D01*
X132970196Y-112230225D01*
X132578503Y-111892431D01*
X132286664Y-111614693D01*
X132076413Y-111381162D01*
X131922930Y-111170242D01*
X131798462Y-110950565D01*
X131748202Y-110837839D01*
X131749616Y-110836424D01*
X131766216Y-110823824D01*
X131797239Y-110788820D01*
X131806396Y-110779666D01*
X131819538Y-110763658D01*
X131855713Y-110722841D01*
X131857769Y-110719323D01*
X131872088Y-110704860D01*
X131908348Y-110650003D01*
X131944817Y-110595445D01*
X131945502Y-110593791D01*
X131946492Y-110592294D01*
X131971357Y-110531407D01*
X131996478Y-110470793D01*
X131996828Y-110469037D01*
X131997506Y-110467376D01*
X132010012Y-110402825D01*
X132022828Y-110338458D01*
X132022834Y-110308509D01*
X132026027Y-110295475D01*
X132028248Y-110244950D01*
X132029811Y-110228227D01*
X132029727Y-110211318D01*
X132031953Y-110160672D01*
X132029390Y-110143989D01*
X132029306Y-110127106D01*
X132019166Y-110077427D01*
X132016600Y-110060722D01*
X132012436Y-110044456D01*
X132002321Y-109994898D01*
X131995741Y-109979234D01*
X131993426Y-109970190D01*
X131990642Y-109947313D01*
X131976734Y-109904982D01*
X131974069Y-109894570D01*
X131966237Y-109873033D01*
X131959078Y-109851242D01*
X131954735Y-109841401D01*
X131939511Y-109799535D01*
X131927563Y-109779832D01*
X131889189Y-109692880D01*
X131878170Y-109666822D01*
X131875622Y-109662139D01*
X131873470Y-109657262D01*
X131859566Y-109632626D01*
X131780328Y-109486972D01*
X131774177Y-109473975D01*
X131764256Y-109457430D01*
X131755040Y-109440490D01*
X131746967Y-109428598D01*
X131655751Y-109276483D01*
X131601421Y-109185832D01*
X131551735Y-109101521D01*
X131507894Y-109025739D01*
X131471578Y-108961500D01*
X131449189Y-108920604D01*
X131446350Y-108912966D01*
X131441405Y-108895747D01*
X131439638Y-108892320D01*
X131439510Y-108891848D01*
X131431391Y-108870506D01*
X131423947Y-108848914D01*
X131421751Y-108844127D01*
X131421256Y-108842433D01*
X131411102Y-108817179D01*
X131401421Y-108791732D01*
X131400338Y-108789555D01*
X131400068Y-108788676D01*
X131388891Y-108761935D01*
X131378080Y-108735047D01*
X131376707Y-108732413D01*
X131376089Y-108730473D01*
X131364245Y-108702971D01*
X131352682Y-108675308D01*
X131350931Y-108672057D01*
X131350538Y-108671144D01*
X131349482Y-108667940D01*
X131337206Y-108640189D01*
X131325250Y-108612427D01*
X131323625Y-108609486D01*
X131321627Y-108604969D01*
X131320500Y-108601663D01*
X131308012Y-108574192D01*
X131295815Y-108546618D01*
X131294097Y-108543580D01*
X131261429Y-108471715D01*
X131182342Y-108270203D01*
X131111584Y-108052715D01*
X131048060Y-107814411D01*
X130992154Y-107554406D01*
X130944236Y-107272101D01*
X130904579Y-106966880D01*
X130873411Y-106638395D01*
X130849782Y-106267677D01*
X130836239Y-105741370D01*
X130835533Y-105114447D01*
X130846805Y-104426487D01*
X130868911Y-103715810D01*
X130900608Y-103019882D01*
X130940531Y-102376740D01*
X130986960Y-101826340D01*
X131034258Y-101434790D01*
X131034451Y-101433910D01*
X131038271Y-101401571D01*
X131042219Y-101368887D01*
X131042239Y-101367977D01*
X131075127Y-101089546D01*
X131076627Y-101081871D01*
X131079072Y-101056153D01*
X131082103Y-101030491D01*
X131082255Y-101022670D01*
X131104625Y-100787342D01*
X131106560Y-100775105D01*
X131107805Y-100753896D01*
X131109819Y-100732708D01*
X131109777Y-100720301D01*
X131115194Y-100628000D01*
X131766928Y-100628000D01*
X131766928Y-106128000D01*
X131779188Y-106252482D01*
X131815498Y-106372180D01*
X131874463Y-106482494D01*
X131953815Y-106579185D01*
X132050506Y-106658537D01*
X132160820Y-106717502D01*
X132280518Y-106753812D01*
X132405000Y-106766072D01*
X134020000Y-106766072D01*
X134020000Y-108342248D01*
X134014509Y-108398000D01*
X134023435Y-108488627D01*
X134036423Y-108620498D01*
X134101324Y-108834446D01*
X134206716Y-109031623D01*
X134348551Y-109204449D01*
X134391865Y-109239996D01*
X136659009Y-111507141D01*
X136694551Y-111550449D01*
X136867377Y-111692284D01*
X137055762Y-111792977D01*
X137064553Y-111797676D01*
X137278501Y-111862577D01*
X137500999Y-111884491D01*
X137556751Y-111879000D01*
X158694249Y-111879000D01*
X158750000Y-111884491D01*
X158805751Y-111879000D01*
X158805752Y-111879000D01*
X158972499Y-111862577D01*
X159186447Y-111797676D01*
X159383623Y-111692284D01*
X159556449Y-111550449D01*
X159591996Y-111507135D01*
X161518141Y-109580991D01*
X161561449Y-109545449D01*
X161703284Y-109372623D01*
X161808676Y-109175447D01*
X161861084Y-109002682D01*
X161873577Y-108961500D01*
X161877121Y-108925520D01*
X161890000Y-108794752D01*
X161890000Y-108794745D01*
X161895490Y-108739001D01*
X161890000Y-108683257D01*
X161890000Y-106766072D01*
X163505000Y-106766072D01*
X163629482Y-106753812D01*
X163749180Y-106717502D01*
X163859494Y-106658537D01*
X163956185Y-106579185D01*
X164035537Y-106482494D01*
X164094502Y-106372180D01*
X164130812Y-106252482D01*
X164143072Y-106128000D01*
X164143072Y-100628000D01*
X164130812Y-100503518D01*
X164094502Y-100383820D01*
X164035537Y-100273506D01*
X163956185Y-100176815D01*
X163859494Y-100097463D01*
X163749180Y-100038498D01*
X163629482Y-100002188D01*
X163505000Y-99989928D01*
X158005000Y-99989928D01*
X157880518Y-100002188D01*
X157760820Y-100038498D01*
X157650506Y-100097463D01*
X157553815Y-100176815D01*
X157474463Y-100273506D01*
X157415498Y-100383820D01*
X157379188Y-100503518D01*
X157366928Y-100628000D01*
X157366928Y-106128000D01*
X157379188Y-106252482D01*
X157415498Y-106372180D01*
X157474463Y-106482494D01*
X157553815Y-106579185D01*
X157650506Y-106658537D01*
X157760820Y-106717502D01*
X157880518Y-106753812D01*
X158005000Y-106766072D01*
X159620000Y-106766072D01*
X159620000Y-108268868D01*
X158279869Y-109609000D01*
X137971132Y-109609000D01*
X136290000Y-107927869D01*
X136290000Y-106766072D01*
X137905000Y-106766072D01*
X138029482Y-106753812D01*
X138149180Y-106717502D01*
X138259494Y-106658537D01*
X138356185Y-106579185D01*
X138435537Y-106482494D01*
X138494502Y-106372180D01*
X138530812Y-106252482D01*
X138543072Y-106128000D01*
X138543072Y-105378000D01*
X145316928Y-105378000D01*
X145329188Y-105502482D01*
X145365498Y-105622180D01*
X145424463Y-105732494D01*
X145503815Y-105829185D01*
X145600506Y-105908537D01*
X145710820Y-105967502D01*
X145830518Y-106003812D01*
X145955000Y-106016072D01*
X147669250Y-106013000D01*
X147828000Y-105854250D01*
X147828000Y-103505000D01*
X148082000Y-103505000D01*
X148082000Y-105854250D01*
X148240750Y-106013000D01*
X149955000Y-106016072D01*
X150079482Y-106003812D01*
X150199180Y-105967502D01*
X150309494Y-105908537D01*
X150406185Y-105829185D01*
X150485537Y-105732494D01*
X150544502Y-105622180D01*
X150580812Y-105502482D01*
X150593072Y-105378000D01*
X150590000Y-103663750D01*
X150431250Y-103505000D01*
X148082000Y-103505000D01*
X147828000Y-103505000D01*
X145478750Y-103505000D01*
X145320000Y-103663750D01*
X145316928Y-105378000D01*
X138543072Y-105378000D01*
X138543072Y-101378000D01*
X145316928Y-101378000D01*
X145320000Y-103092250D01*
X145478750Y-103251000D01*
X147828000Y-103251000D01*
X147828000Y-100901750D01*
X148082000Y-100901750D01*
X148082000Y-103251000D01*
X150431250Y-103251000D01*
X150590000Y-103092250D01*
X150593072Y-101378000D01*
X150580812Y-101253518D01*
X150544502Y-101133820D01*
X150485537Y-101023506D01*
X150406185Y-100926815D01*
X150309494Y-100847463D01*
X150199180Y-100788498D01*
X150079482Y-100752188D01*
X149955000Y-100739928D01*
X148240750Y-100743000D01*
X148082000Y-100901750D01*
X147828000Y-100901750D01*
X147669250Y-100743000D01*
X145955000Y-100739928D01*
X145830518Y-100752188D01*
X145710820Y-100788498D01*
X145600506Y-100847463D01*
X145503815Y-100926815D01*
X145424463Y-101023506D01*
X145365498Y-101133820D01*
X145329188Y-101253518D01*
X145316928Y-101378000D01*
X138543072Y-101378000D01*
X138543072Y-100628000D01*
X138530812Y-100503518D01*
X138494502Y-100383820D01*
X138435537Y-100273506D01*
X138356185Y-100176815D01*
X138259494Y-100097463D01*
X138149180Y-100038498D01*
X138029482Y-100002188D01*
X137905000Y-99989928D01*
X135755000Y-99989928D01*
X135755000Y-93478320D01*
X135783462Y-93454962D01*
X135893905Y-93320386D01*
X135975972Y-93166850D01*
X136026508Y-93000254D01*
X136043572Y-92827000D01*
X136043572Y-91577000D01*
X136026508Y-91403746D01*
X135975972Y-91237150D01*
X135893905Y-91083614D01*
X135783462Y-90949038D01*
X135648886Y-90838595D01*
X135495350Y-90756528D01*
X135328754Y-90705992D01*
X135155500Y-90688928D01*
X134230500Y-90688928D01*
X134057246Y-90705992D01*
X133890650Y-90756528D01*
X133737114Y-90838595D01*
X133602538Y-90949038D01*
X133492095Y-91083614D01*
X133410028Y-91237150D01*
X133359492Y-91403746D01*
X133342428Y-91577000D01*
X133342428Y-92827000D01*
X133359492Y-93000254D01*
X133410028Y-93166850D01*
X133485001Y-93307114D01*
X133485000Y-99989928D01*
X132405000Y-99989928D01*
X132280518Y-100002188D01*
X132160820Y-100038498D01*
X132050506Y-100097463D01*
X131953815Y-100176815D01*
X131874463Y-100273506D01*
X131815498Y-100383820D01*
X131779188Y-100503518D01*
X131766928Y-100628000D01*
X131115194Y-100628000D01*
X131121493Y-100520681D01*
X131123404Y-100502028D01*
X131123462Y-100487132D01*
X131124336Y-100472247D01*
X131123594Y-100453497D01*
X131124281Y-100278173D01*
X131124928Y-100251519D01*
X131124413Y-100244559D01*
X131124440Y-100237582D01*
X131121931Y-100211045D01*
X131115009Y-100117559D01*
X131115144Y-100116431D01*
X131110040Y-100050443D01*
X131107627Y-100017861D01*
X131107433Y-100016743D01*
X131107345Y-100015610D01*
X131101645Y-99983445D01*
X131090311Y-99918232D01*
X131089902Y-99917172D01*
X131086677Y-99898975D01*
X131086697Y-99892852D01*
X131074924Y-99832648D01*
X131070105Y-99805453D01*
X131068458Y-99799584D01*
X131067290Y-99793610D01*
X131059367Y-99767184D01*
X131042786Y-99708091D01*
X131040012Y-99702629D01*
X131037282Y-99693523D01*
X131036921Y-99690094D01*
X131017901Y-99628880D01*
X131009233Y-99599969D01*
X131007933Y-99596802D01*
X131006915Y-99593525D01*
X130995127Y-99565600D01*
X130970838Y-99506419D01*
X130968934Y-99503550D01*
X130957750Y-99477055D01*
X130946771Y-99445262D01*
X130936594Y-99403788D01*
X130924854Y-99333840D01*
X130913594Y-99231970D01*
X130904194Y-99096326D01*
X130897298Y-98925367D01*
X130893062Y-98717342D01*
X130891277Y-98445865D01*
X130900282Y-98128914D01*
X130921978Y-97834986D01*
X130956393Y-97559605D01*
X131003579Y-97299591D01*
X131063796Y-97051486D01*
X131137617Y-96811543D01*
X131223931Y-96581363D01*
X131312032Y-96391039D01*
X131363829Y-96295509D01*
X131364452Y-96294583D01*
X131379842Y-96265978D01*
X131395372Y-96237336D01*
X131395807Y-96236304D01*
X131448336Y-96138668D01*
X131508099Y-96027997D01*
X131561522Y-95930961D01*
X131611003Y-95844261D01*
X131659545Y-95763414D01*
X131710615Y-95683266D01*
X131779757Y-95581129D01*
X131879339Y-95444711D01*
X131978659Y-95318706D01*
X132072089Y-95209033D01*
X132151474Y-95123815D01*
X132172508Y-95103794D01*
X132209069Y-95091558D01*
X132231000Y-95079021D01*
X132254308Y-95069270D01*
X132289444Y-95045613D01*
X132326213Y-95024594D01*
X132345278Y-95008019D01*
X132366234Y-94993909D01*
X132396074Y-94963857D01*
X132428043Y-94936063D01*
X132443512Y-94916082D01*
X132461308Y-94898159D01*
X132484711Y-94862864D01*
X132510643Y-94829367D01*
X132521916Y-94806753D01*
X132535875Y-94785701D01*
X132551944Y-94746517D01*
X132570842Y-94708607D01*
X132586331Y-94651776D01*
X132628725Y-94510219D01*
X132639035Y-94486676D01*
X132648032Y-94445752D01*
X132650356Y-94437992D01*
X132655256Y-94412894D01*
X132660748Y-94387912D01*
X132661704Y-94379866D01*
X132669732Y-94338743D01*
X132669641Y-94313043D01*
X132701579Y-94044164D01*
X132704772Y-94023960D01*
X132705545Y-94010777D01*
X132707102Y-93997668D01*
X132707512Y-93977223D01*
X132730251Y-93589377D01*
X132731395Y-93580709D01*
X132732218Y-93555817D01*
X132733677Y-93530937D01*
X132733330Y-93522195D01*
X132747936Y-93080631D01*
X132748317Y-93077526D01*
X132749048Y-93047002D01*
X132750057Y-93016503D01*
X132749854Y-93013383D01*
X132761968Y-92507668D01*
X132776027Y-91967875D01*
X132795957Y-91459763D01*
X132826144Y-91013987D01*
X132864044Y-90653658D01*
X132910098Y-90389539D01*
X132957683Y-90232219D01*
X132980258Y-90190380D01*
X133054787Y-90178136D01*
X133196416Y-90179947D01*
X133212902Y-90180983D01*
X133230010Y-90180377D01*
X133247155Y-90180596D01*
X133263636Y-90179185D01*
X133300758Y-90177870D01*
X133314391Y-90178183D01*
X133334351Y-90176679D01*
X133354368Y-90175970D01*
X133367890Y-90174153D01*
X133398435Y-90171852D01*
X133412174Y-90171617D01*
X133431975Y-90169325D01*
X133451843Y-90167828D01*
X133465372Y-90165459D01*
X133494026Y-90162141D01*
X133511163Y-90160989D01*
X133527438Y-90158274D01*
X133543812Y-90156378D01*
X133560586Y-90152743D01*
X133589149Y-90147977D01*
X133609698Y-90145341D01*
X133622314Y-90142444D01*
X133635077Y-90140314D01*
X133655073Y-90134920D01*
X133691048Y-90126657D01*
X133722752Y-90119433D01*
X133723300Y-90119250D01*
X133723875Y-90119118D01*
X133751705Y-90109774D01*
X133775466Y-90105049D01*
X133815494Y-90088472D01*
X133824534Y-90085454D01*
X133846587Y-90075595D01*
X133868894Y-90066357D01*
X133877297Y-90061866D01*
X133916852Y-90044183D01*
X133923025Y-90039806D01*
X133935632Y-90034342D01*
X133946076Y-90027114D01*
X133965855Y-90024887D01*
X134028715Y-90004855D01*
X134150363Y-89966685D01*
X134176672Y-89958951D01*
X134182438Y-89956621D01*
X134188371Y-89954759D01*
X134213591Y-89944030D01*
X134386965Y-89873959D01*
X134398309Y-89870190D01*
X134418140Y-89861359D01*
X134438266Y-89853225D01*
X134448856Y-89847681D01*
X134655385Y-89755713D01*
X134662561Y-89753150D01*
X134686088Y-89742040D01*
X134709886Y-89731443D01*
X134716518Y-89727671D01*
X134950008Y-89617416D01*
X134955909Y-89615185D01*
X134980417Y-89603056D01*
X135005150Y-89591377D01*
X135010564Y-89588136D01*
X135255783Y-89466779D01*
X135261739Y-89464399D01*
X135285893Y-89451877D01*
X135310333Y-89439782D01*
X135315787Y-89436380D01*
X135555958Y-89311872D01*
X135563221Y-89308775D01*
X135585845Y-89296379D01*
X135608700Y-89284530D01*
X135615307Y-89280235D01*
X135833974Y-89160418D01*
X135843979Y-89155765D01*
X135863453Y-89144265D01*
X135883301Y-89133389D01*
X135892417Y-89127160D01*
X136010634Y-89057347D01*
X136010734Y-89057300D01*
X136038674Y-89040788D01*
X136068474Y-89023189D01*
X136068569Y-89023120D01*
X136100038Y-89004521D01*
X136161501Y-88969000D01*
X136224852Y-88933126D01*
X136287737Y-88898183D01*
X136347451Y-88865691D01*
X136401291Y-88837095D01*
X136445239Y-88814503D01*
X136534177Y-88771063D01*
X136563187Y-88757043D01*
X136564406Y-88756298D01*
X136565672Y-88755680D01*
X136592816Y-88738944D01*
X136727223Y-88656838D01*
X136730588Y-88655562D01*
X136784702Y-88621726D01*
X136810427Y-88606011D01*
X136813289Y-88603851D01*
X136816329Y-88601950D01*
X136840175Y-88583558D01*
X136891140Y-88545091D01*
X136893538Y-88542400D01*
X136971208Y-88482495D01*
X136972185Y-88482006D01*
X137024514Y-88441380D01*
X137050403Y-88421413D01*
X137051198Y-88420665D01*
X137052062Y-88419994D01*
X137075868Y-88397443D01*
X137124037Y-88352103D01*
X137124671Y-88351214D01*
X137246404Y-88235900D01*
X137269954Y-88213755D01*
X137270781Y-88212808D01*
X137271689Y-88211948D01*
X137292757Y-88187649D01*
X137449709Y-88007961D01*
X137469852Y-87985346D01*
X137471808Y-87982660D01*
X137473992Y-87980160D01*
X137491575Y-87955520D01*
X137556487Y-87866394D01*
X137936161Y-88408626D01*
X138049513Y-88540760D01*
X138057001Y-88546636D01*
X138057000Y-89232868D01*
X136904860Y-90385009D01*
X136861552Y-90420551D01*
X136719717Y-90593377D01*
X136614324Y-90790553D01*
X136559627Y-90970862D01*
X136467095Y-91083614D01*
X136385028Y-91237150D01*
X136334492Y-91403746D01*
X136317428Y-91577000D01*
X136317428Y-92827000D01*
X136334492Y-93000254D01*
X136385028Y-93166850D01*
X136467095Y-93320386D01*
X136577538Y-93454962D01*
X136712114Y-93565405D01*
X136865650Y-93647472D01*
X137032246Y-93698008D01*
X137205500Y-93715072D01*
X138130500Y-93715072D01*
X138303754Y-93698008D01*
X138470350Y-93647472D01*
X138623886Y-93565405D01*
X138758462Y-93454962D01*
X138868905Y-93320386D01*
X138950972Y-93166850D01*
X139001508Y-93000254D01*
X139018572Y-92827000D01*
X139018572Y-91577000D01*
X139010015Y-91490117D01*
X139955140Y-90544991D01*
X139998449Y-90509449D01*
X140140284Y-90336623D01*
X140245676Y-90139447D01*
X140310577Y-89925499D01*
X140327000Y-89758752D01*
X140327000Y-89758743D01*
X140332490Y-89703001D01*
X140327000Y-89647259D01*
X140327000Y-87829229D01*
X144693000Y-87829229D01*
X144693000Y-88446771D01*
X144813476Y-89052446D01*
X145049799Y-89622979D01*
X145392886Y-90136446D01*
X145829554Y-90573114D01*
X146343021Y-90916201D01*
X146913554Y-91152524D01*
X147519229Y-91273000D01*
X148136771Y-91273000D01*
X148742446Y-91152524D01*
X149312979Y-90916201D01*
X149826446Y-90573114D01*
X150263114Y-90136446D01*
X150606201Y-89622979D01*
X150842524Y-89052446D01*
X150963000Y-88446771D01*
X150963000Y-87829229D01*
X150842524Y-87223554D01*
X150606201Y-86653021D01*
X150263114Y-86139554D01*
X149826446Y-85702886D01*
X149312979Y-85359799D01*
X148742446Y-85123476D01*
X148136771Y-85003000D01*
X147519229Y-85003000D01*
X146913554Y-85123476D01*
X146343021Y-85359799D01*
X145829554Y-85702886D01*
X145392886Y-86139554D01*
X145049799Y-86653021D01*
X144813476Y-87223554D01*
X144693000Y-87829229D01*
X140327000Y-87829229D01*
X140327000Y-87685741D01*
X140332490Y-87629999D01*
X140327000Y-87574257D01*
X140327000Y-87574248D01*
X140325146Y-87555419D01*
X140963948Y-87172138D01*
X141053131Y-87178961D01*
X141177315Y-87163989D01*
X141296193Y-87125076D01*
X141405195Y-87063719D01*
X141753006Y-86816429D01*
X141791991Y-86595333D01*
X141089790Y-85592487D01*
X141073407Y-85603959D01*
X140963362Y-85446798D01*
X141297855Y-85446798D01*
X142000055Y-86449645D01*
X142221151Y-86488630D01*
X142572486Y-86246373D01*
X142667424Y-86164930D01*
X142744648Y-86066531D01*
X142801191Y-85954956D01*
X142834881Y-85834495D01*
X142844423Y-85709776D01*
X142829451Y-85585591D01*
X142790538Y-85466713D01*
X142729181Y-85357712D01*
X142388685Y-84876788D01*
X142167589Y-84837803D01*
X141297855Y-85446798D01*
X140963362Y-85446798D01*
X140927718Y-85395893D01*
X140944101Y-85384422D01*
X140932629Y-85368039D01*
X141140695Y-85222350D01*
X141152166Y-85238733D01*
X142021901Y-84629739D01*
X142060886Y-84408643D01*
X141785645Y-84011165D01*
X141788133Y-84009526D01*
X141792322Y-84006133D01*
X141904665Y-83929554D01*
X141920882Y-83919481D01*
X141932461Y-83910606D01*
X141944502Y-83902398D01*
X141959131Y-83890164D01*
X141996908Y-83861208D01*
X142004842Y-83855218D01*
X142012490Y-83849904D01*
X142029543Y-83838696D01*
X142052129Y-83824498D01*
X142077845Y-83808937D01*
X142104637Y-83793327D01*
X142109795Y-83790438D01*
X142112693Y-83789139D01*
X142139165Y-83773992D01*
X142165747Y-83759107D01*
X142168350Y-83757293D01*
X142228754Y-83722731D01*
X142237387Y-83718566D01*
X142257933Y-83706035D01*
X142278832Y-83694077D01*
X142286649Y-83688521D01*
X142480295Y-83570417D01*
X142488234Y-83566329D01*
X142508995Y-83552913D01*
X142530115Y-83540032D01*
X142537251Y-83534654D01*
X142713800Y-83420566D01*
X142722181Y-83415950D01*
X142742030Y-83402323D01*
X142762272Y-83389243D01*
X142769767Y-83383282D01*
X142931437Y-83272295D01*
X142940211Y-83267117D01*
X142959147Y-83253272D01*
X142978506Y-83239982D01*
X142986307Y-83233414D01*
X143134186Y-83125293D01*
X143143295Y-83119524D01*
X143161337Y-83105442D01*
X143179805Y-83091939D01*
X143187840Y-83084755D01*
X143322969Y-82979284D01*
X143332301Y-82972934D01*
X143349475Y-82958595D01*
X143367115Y-82944827D01*
X143375290Y-82937042D01*
X143498641Y-82834057D01*
X143508067Y-82827162D01*
X143524437Y-82812520D01*
X143541317Y-82798427D01*
X143549514Y-82790090D01*
X143661988Y-82689489D01*
X143671362Y-82682119D01*
X143687059Y-82667065D01*
X143703258Y-82652576D01*
X143711319Y-82643798D01*
X143813830Y-82545486D01*
X143823006Y-82537737D01*
X143838110Y-82522201D01*
X143853733Y-82507218D01*
X143861537Y-82498104D01*
X143954887Y-82402085D01*
X143963649Y-82394152D01*
X143978329Y-82377972D01*
X143993555Y-82362311D01*
X144000923Y-82353071D01*
X144025330Y-82326171D01*
X144038311Y-82362700D01*
X144038311Y-82362700D01*
G37*
X144038311Y-82362700D02*
X144053779Y-82413024D01*
X144060866Y-82426167D01*
X144065866Y-82440236D01*
X144092829Y-82485442D01*
X144117821Y-82531790D01*
X144148821Y-82569282D01*
X144163482Y-82589140D01*
X144201179Y-82641195D01*
X144228293Y-82666337D01*
X144253064Y-82693786D01*
X144277644Y-82712098D01*
X144300122Y-82732941D01*
X144331621Y-82752311D01*
X144361270Y-82774399D01*
X144388949Y-82787564D01*
X144415062Y-82803621D01*
X144449736Y-82816474D01*
X144483124Y-82832354D01*
X144512834Y-82839864D01*
X144541583Y-82850521D01*
X144578104Y-82856363D01*
X144613942Y-82865422D01*
X144644555Y-82866992D01*
X144674822Y-82871834D01*
X144711763Y-82870440D01*
X144748696Y-82872335D01*
X144779028Y-82867903D01*
X144809657Y-82866747D01*
X144845625Y-82858170D01*
X144882212Y-82852824D01*
X144911096Y-82842559D01*
X144940911Y-82835450D01*
X144974516Y-82820021D01*
X145009355Y-82807640D01*
X145035678Y-82791940D01*
X145063537Y-82779149D01*
X145093488Y-82757460D01*
X145125240Y-82738521D01*
X145172917Y-82695496D01*
X145329213Y-82557040D01*
X145330656Y-82555984D01*
X145338395Y-82549056D01*
X145337717Y-82551598D01*
X145328753Y-82573513D01*
X145320371Y-82616646D01*
X145309051Y-82659095D01*
X145307531Y-82682719D01*
X145303013Y-82705968D01*
X145303207Y-82749904D01*
X145300385Y-82793748D01*
X145303504Y-82817219D01*
X145303608Y-82840900D01*
X145312371Y-82883958D01*
X145318157Y-82927506D01*
X145325795Y-82949920D01*
X145330517Y-82973122D01*
X145347508Y-83013636D01*
X145361681Y-83055227D01*
X145373544Y-83075719D01*
X145382702Y-83097555D01*
X145407271Y-83133976D01*
X145412346Y-83142742D01*
X145426100Y-83161888D01*
X145433051Y-83172191D01*
X145449160Y-83199646D01*
X145492654Y-83248545D01*
X145535894Y-83297733D01*
X145554621Y-83312068D01*
X145577091Y-83331284D01*
X145592224Y-83345259D01*
X145602670Y-83353158D01*
X145612618Y-83361666D01*
X145620429Y-83367117D01*
X145621748Y-83368476D01*
X145635149Y-83377720D01*
X145672881Y-83406254D01*
X145684731Y-83411995D01*
X145701791Y-83423901D01*
X145703430Y-83424820D01*
X145704988Y-83425895D01*
X145732960Y-83441382D01*
X145789989Y-83473368D01*
X145790292Y-83473467D01*
X145796110Y-83476790D01*
X145800281Y-83478657D01*
X145804280Y-83480871D01*
X145830940Y-83492379D01*
X145865707Y-83507940D01*
X145889479Y-83519196D01*
X145896389Y-83521672D01*
X145903092Y-83524672D01*
X145928041Y-83533013D01*
X145963031Y-83545551D01*
X145986902Y-83554743D01*
X145994678Y-83556890D01*
X146002269Y-83559610D01*
X146027083Y-83565837D01*
X146064643Y-83576208D01*
X146090148Y-83583818D01*
X146097073Y-83585162D01*
X146103858Y-83587036D01*
X146130048Y-83591565D01*
X146172768Y-83599859D01*
X146213147Y-83608180D01*
X146246805Y-83616108D01*
X146277019Y-83624121D01*
X146282059Y-83625627D01*
X146286132Y-83628492D01*
X146318871Y-83642984D01*
X146350140Y-83660438D01*
X146412423Y-83680578D01*
X146450220Y-83693043D01*
X146481135Y-83703332D01*
X146482045Y-83703538D01*
X146482929Y-83703830D01*
X146514673Y-83710941D01*
X146562868Y-83721876D01*
X146576283Y-83725742D01*
X146595645Y-83729313D01*
X146614861Y-83733673D01*
X146628723Y-83735414D01*
X146676622Y-83744248D01*
X146684579Y-83746336D01*
X146709693Y-83750348D01*
X146734710Y-83754962D01*
X146742908Y-83755654D01*
X146803271Y-83765297D01*
X146808946Y-83766683D01*
X146836501Y-83770605D01*
X146863955Y-83774991D01*
X146869780Y-83775342D01*
X146943732Y-83785869D01*
X146948352Y-83786930D01*
X146977019Y-83790607D01*
X147005653Y-83794683D01*
X147010393Y-83794888D01*
X147096270Y-83805903D01*
X147100368Y-83806792D01*
X147129593Y-83810178D01*
X147158845Y-83813930D01*
X147163046Y-83814054D01*
X147258366Y-83825097D01*
X147262391Y-83825919D01*
X147291735Y-83828963D01*
X147321120Y-83832367D01*
X147325238Y-83832438D01*
X147456267Y-83846028D01*
X147629521Y-83864231D01*
X147814052Y-83884222D01*
X148003993Y-83905329D01*
X148193943Y-83926935D01*
X148377840Y-83948362D01*
X148549456Y-83968872D01*
X148702715Y-83987772D01*
X148809811Y-84001566D01*
X148818905Y-84003402D01*
X148843149Y-84005860D01*
X148867341Y-84008976D01*
X148876621Y-84009254D01*
X148970938Y-84018816D01*
X148979681Y-84020347D01*
X149004389Y-84022208D01*
X149029051Y-84024708D01*
X149037930Y-84024733D01*
X149143070Y-84032651D01*
X149150296Y-84033758D01*
X149176617Y-84035177D01*
X149202883Y-84037155D01*
X149210186Y-84036987D01*
X149320917Y-84042957D01*
X149327514Y-84043837D01*
X149354494Y-84044767D01*
X149381462Y-84046221D01*
X149388114Y-84045926D01*
X149500897Y-84049814D01*
X149507438Y-84050559D01*
X149534489Y-84050972D01*
X149561559Y-84051905D01*
X149568136Y-84051485D01*
X149596453Y-84051918D01*
X149596679Y-84057060D01*
X149596578Y-84061300D01*
X149596819Y-84062681D01*
X149597748Y-84116970D01*
X149599706Y-84126002D01*
X149600111Y-84135233D01*
X149613984Y-84191869D01*
X149626333Y-84248840D01*
X149630014Y-84257313D01*
X149632213Y-84266292D01*
X149656866Y-84319129D01*
X149680094Y-84372600D01*
X149685360Y-84380196D01*
X149689267Y-84388570D01*
X149723748Y-84435573D01*
X149756968Y-84483494D01*
X149763615Y-84489917D01*
X149769080Y-84497367D01*
X149812074Y-84536746D01*
X149853999Y-84577260D01*
X149861768Y-84582261D01*
X149868583Y-84588503D01*
X149918431Y-84618735D01*
X149939028Y-84631994D01*
X149947201Y-84636185D01*
X149983956Y-84658476D01*
X150007089Y-84666890D01*
X150074629Y-84701518D01*
X150110279Y-84723310D01*
X150166103Y-84743835D01*
X150221474Y-84765668D01*
X150262598Y-84773119D01*
X150496743Y-84833944D01*
X150521326Y-84840951D01*
X150529261Y-84842391D01*
X150537076Y-84844421D01*
X150562345Y-84848394D01*
X150922738Y-84913792D01*
X150936004Y-84917009D01*
X150955817Y-84919795D01*
X150975507Y-84923368D01*
X150989116Y-84924477D01*
X151437234Y-84987489D01*
X151446215Y-84989414D01*
X151470534Y-84992172D01*
X151494771Y-84995580D01*
X151503949Y-84995961D01*
X152032596Y-85055913D01*
X152039669Y-85057274D01*
X152066042Y-85059706D01*
X152092313Y-85062685D01*
X152099503Y-85062791D01*
X152695248Y-85117722D01*
X152701471Y-85118801D01*
X152728732Y-85120809D01*
X152755962Y-85123320D01*
X152762280Y-85123281D01*
X153409506Y-85170960D01*
X153415205Y-85171850D01*
X153443043Y-85173431D01*
X153470861Y-85175480D01*
X153476630Y-85175338D01*
X153992780Y-85204646D01*
X153994025Y-85204836D01*
X154026426Y-85206557D01*
X154058711Y-85208390D01*
X154059965Y-85208338D01*
X154068062Y-85208768D01*
X154042719Y-85230119D01*
X154030749Y-85245093D01*
X154016794Y-85258243D01*
X153988708Y-85297687D01*
X153979579Y-85309108D01*
X153969187Y-85325103D01*
X153944808Y-85359342D01*
X153935855Y-85370364D01*
X153918813Y-85402639D01*
X153917347Y-85404895D01*
X153903117Y-85432364D01*
X153872850Y-85489684D01*
X153872075Y-85492285D01*
X153870832Y-85494685D01*
X153852836Y-85556886D01*
X153834335Y-85619004D01*
X153834083Y-85621698D01*
X153833330Y-85624302D01*
X153827813Y-85688830D01*
X153824931Y-85719689D01*
X153824945Y-85722383D01*
X153821836Y-85758744D01*
X153823587Y-85774443D01*
X153821981Y-85791178D01*
X153825467Y-85825679D01*
X153825471Y-85826557D01*
X153828828Y-85858955D01*
X153835544Y-85925428D01*
X153835802Y-85926270D01*
X153835892Y-85927142D01*
X153855460Y-85990493D01*
X153865141Y-86022123D01*
X153865481Y-86022937D01*
X153875713Y-86056065D01*
X153891250Y-86084783D01*
X153897192Y-86098953D01*
X153910060Y-86129799D01*
X153910364Y-86130365D01*
X153910614Y-86130960D01*
X153926487Y-86160346D01*
X153953810Y-86211156D01*
X153962949Y-86228599D01*
X153963451Y-86229832D01*
X153966589Y-86234590D01*
X153967895Y-86237008D01*
X153980841Y-86256201D01*
X153999838Y-86285005D01*
X154017568Y-86312019D01*
X154017905Y-86312660D01*
X154018829Y-86313802D01*
X154019124Y-86314249D01*
X154024322Y-86320661D01*
X154024444Y-86320842D01*
X154024569Y-86320966D01*
X154039948Y-86339938D01*
X154079568Y-86389034D01*
X154080113Y-86389861D01*
X154080785Y-86390541D01*
X154081722Y-86391703D01*
X154082859Y-86392652D01*
X154092088Y-86401993D01*
X154125164Y-86435501D01*
X154150993Y-86461684D01*
X154151076Y-86461753D01*
X154151151Y-86461829D01*
X154151471Y-86462095D01*
X154152369Y-86463004D01*
X154154867Y-86466006D01*
X154203214Y-86505137D01*
X154228724Y-86526365D01*
X154230902Y-86527548D01*
X154233469Y-86529626D01*
X154238477Y-86532923D01*
X154246894Y-86540693D01*
X154283954Y-86563367D01*
X154309855Y-86580918D01*
X154315004Y-86583090D01*
X154323445Y-86587528D01*
X154333153Y-86593468D01*
X154349181Y-86601228D01*
X154370810Y-86615171D01*
X154391748Y-86623443D01*
X154402859Y-86629285D01*
X154413845Y-86632536D01*
X154417021Y-86634074D01*
X154425327Y-86637132D01*
X154442776Y-86652749D01*
X154490599Y-86681008D01*
X154551099Y-86719657D01*
X154604214Y-86754453D01*
X154639230Y-86768586D01*
X154672885Y-86785694D01*
X154733953Y-86802855D01*
X154811541Y-86825623D01*
X154817368Y-86828531D01*
X154876193Y-86844595D01*
X154902304Y-86852257D01*
X154908667Y-86853463D01*
X154914919Y-86855170D01*
X154941750Y-86859731D01*
X155001658Y-86871083D01*
X155008174Y-86871024D01*
X155140442Y-86893510D01*
X155161570Y-86897873D01*
X155173593Y-86899146D01*
X155185506Y-86901171D01*
X155207015Y-86902684D01*
X155442351Y-86927597D01*
X155455720Y-86929811D01*
X155475795Y-86931137D01*
X155495792Y-86933254D01*
X155509337Y-86933353D01*
X155794004Y-86952157D01*
X155803301Y-86953437D01*
X155827552Y-86954374D01*
X155851780Y-86955974D01*
X155861162Y-86955672D01*
X156199374Y-86968733D01*
X156206300Y-86969543D01*
X156232934Y-86970029D01*
X156259628Y-86971060D01*
X156266608Y-86970644D01*
X156659519Y-86977815D01*
X156664919Y-86978360D01*
X156693209Y-86978430D01*
X156721393Y-86978944D01*
X156726783Y-86978512D01*
X157176589Y-86979619D01*
X157547023Y-86981719D01*
X157848415Y-86986984D01*
X158091759Y-86995967D01*
X158287387Y-87008947D01*
X158447225Y-87026048D01*
X158586205Y-87047805D01*
X158676320Y-87066517D01*
X158668948Y-87071079D01*
X158650062Y-87085505D01*
X158393540Y-87270010D01*
X158372243Y-87284603D01*
X158366254Y-87289636D01*
X158359899Y-87294207D01*
X158340513Y-87311268D01*
X158161562Y-87461657D01*
X158160356Y-87462326D01*
X158109996Y-87504992D01*
X158085214Y-87525819D01*
X158084253Y-87526803D01*
X158083201Y-87527694D01*
X158060602Y-87551012D01*
X158014549Y-87598153D01*
X158013798Y-87599306D01*
X157905439Y-87711114D01*
X157883435Y-87729176D01*
X157858603Y-87759441D01*
X157854886Y-87763276D01*
X157837255Y-87785459D01*
X157819292Y-87807352D01*
X157816327Y-87811791D01*
X157791967Y-87842440D01*
X157778942Y-87867753D01*
X157701671Y-87983424D01*
X157671934Y-88023312D01*
X157649784Y-88069844D01*
X157625494Y-88115299D01*
X157620837Y-88130656D01*
X157613940Y-88145146D01*
X157601292Y-88195112D01*
X157586339Y-88244426D01*
X157581468Y-88293938D01*
X157571650Y-88359013D01*
X157563198Y-88392837D01*
X157559978Y-88459170D01*
X157556554Y-88525504D01*
X157556707Y-88526555D01*
X157556656Y-88527611D01*
X157566435Y-88593269D01*
X157576022Y-88659025D01*
X157587684Y-88691877D01*
X157595319Y-88722281D01*
X157607429Y-88777769D01*
X157625217Y-88818559D01*
X157640233Y-88860450D01*
X157652128Y-88880270D01*
X157661366Y-88901453D01*
X157686769Y-88937988D01*
X157709670Y-88976146D01*
X157747821Y-89018190D01*
X157772448Y-89047089D01*
X157797935Y-89081725D01*
X157840963Y-89121018D01*
X157882938Y-89161466D01*
X157890734Y-89166469D01*
X157897574Y-89172715D01*
X157947454Y-89202867D01*
X157996500Y-89234340D01*
X158036530Y-89250059D01*
X158083444Y-89272463D01*
X158127911Y-89296463D01*
X158176417Y-89311392D01*
X158224143Y-89328671D01*
X158274104Y-89336274D01*
X158329845Y-89347596D01*
X158338920Y-89351101D01*
X158395853Y-89361004D01*
X158419391Y-89365785D01*
X158429019Y-89366773D01*
X158438547Y-89368430D01*
X158462478Y-89370205D01*
X158519986Y-89376105D01*
X158529676Y-89375190D01*
X158642005Y-89383523D01*
X158664068Y-89385904D01*
X158675537Y-89386011D01*
X158686971Y-89386859D01*
X158709149Y-89386324D01*
X158917374Y-89388262D01*
X158929121Y-89389123D01*
X158950997Y-89388575D01*
X158972878Y-89388779D01*
X158984610Y-89387734D01*
X159244738Y-89381221D01*
X159250840Y-89381559D01*
X159278341Y-89380380D01*
X159305891Y-89379690D01*
X159311963Y-89378938D01*
X159745506Y-89360348D01*
X160312704Y-89355732D01*
X160796550Y-89379480D01*
X161204791Y-89430681D01*
X161483585Y-89493571D01*
X161406100Y-89510239D01*
X161377287Y-89516064D01*
X161373223Y-89517311D01*
X161369080Y-89518202D01*
X161341145Y-89527152D01*
X161168305Y-89580177D01*
X161164008Y-89580668D01*
X161103906Y-89599933D01*
X161075783Y-89608561D01*
X161071809Y-89610222D01*
X161067712Y-89611535D01*
X161040743Y-89623205D01*
X160982479Y-89647553D01*
X160978889Y-89649968D01*
X160882110Y-89691844D01*
X160859516Y-89698346D01*
X160820335Y-89718574D01*
X160810895Y-89722658D01*
X160790448Y-89734002D01*
X160769661Y-89744734D01*
X160761024Y-89750328D01*
X160722470Y-89771719D01*
X160704534Y-89786915D01*
X160653576Y-89819920D01*
X160652642Y-89820294D01*
X160597134Y-89856475D01*
X160569558Y-89874336D01*
X160568769Y-89874964D01*
X160539603Y-89893976D01*
X160516138Y-89916913D01*
X160490479Y-89937363D01*
X160468011Y-89963956D01*
X160467288Y-89964662D01*
X160446115Y-89989871D01*
X160403395Y-90040432D01*
X160402909Y-90041312D01*
X160394541Y-90051274D01*
X160381010Y-90063344D01*
X160351240Y-90102828D01*
X160341175Y-90114811D01*
X160330984Y-90129693D01*
X160299776Y-90171084D01*
X160292935Y-90185256D01*
X160284040Y-90198246D01*
X160263653Y-90245921D01*
X160241121Y-90292602D01*
X160237176Y-90307840D01*
X160230987Y-90322312D01*
X160220297Y-90373029D01*
X160215774Y-90390497D01*
X160213354Y-90405969D01*
X160203157Y-90454345D01*
X160202951Y-90472472D01*
X160200817Y-90486115D01*
X160190698Y-90533320D01*
X160189913Y-90586330D01*
X160186893Y-90639253D01*
X160188916Y-90653674D01*
X160188700Y-90668238D01*
X160198272Y-90720381D01*
X160205635Y-90772878D01*
X160219776Y-90813409D01*
X160226674Y-90848063D01*
X160250538Y-90905655D01*
X160273547Y-90963615D01*
X160276351Y-90967949D01*
X160278327Y-90972718D01*
X160312987Y-91024576D01*
X160346843Y-91076906D01*
X160371519Y-91102324D01*
X160386154Y-91119692D01*
X160404717Y-91142305D01*
X160407835Y-91145422D01*
X160432470Y-91174658D01*
X160455441Y-91193016D01*
X160476231Y-91213801D01*
X160508012Y-91235031D01*
X160511465Y-91237790D01*
X160536041Y-91253754D01*
X160556235Y-91267243D01*
X160575035Y-91282878D01*
X160610625Y-91302201D01*
X160616239Y-91305847D01*
X160640204Y-91318259D01*
X160663905Y-91331127D01*
X160670068Y-91333727D01*
X160706032Y-91352354D01*
X160732078Y-91359887D01*
X160767564Y-91374858D01*
X160797583Y-91387614D01*
X160798431Y-91387880D01*
X160799247Y-91388224D01*
X160830376Y-91397889D01*
X160916967Y-91425021D01*
X160933607Y-91431098D01*
X160949062Y-91435077D01*
X160964279Y-91439845D01*
X160981611Y-91443457D01*
X161078705Y-91468455D01*
X161087868Y-91471512D01*
X161111291Y-91476844D01*
X161134524Y-91482826D01*
X161144059Y-91484304D01*
X161266092Y-91512086D01*
X161271059Y-91513660D01*
X161298929Y-91519562D01*
X161326634Y-91525869D01*
X161331791Y-91526520D01*
X161549555Y-91572634D01*
X161890498Y-91678803D01*
X162224887Y-91823024D01*
X162553776Y-92005192D01*
X162871480Y-92222504D01*
X163172502Y-92471693D01*
X163402923Y-92700723D01*
X163396269Y-92702354D01*
X163369519Y-92708397D01*
X163363574Y-92710369D01*
X163357486Y-92711862D01*
X163331602Y-92720977D01*
X163273541Y-92740241D01*
X163268065Y-92743352D01*
X163252387Y-92748873D01*
X163221358Y-92756299D01*
X163188924Y-92771222D01*
X163187128Y-92771855D01*
X163158261Y-92785331D01*
X163129493Y-92798568D01*
X163127859Y-92799524D01*
X163095499Y-92814631D01*
X163074959Y-92829705D01*
X163069801Y-92831650D01*
X163020523Y-92862329D01*
X162999581Y-92874583D01*
X162991956Y-92880114D01*
X162983956Y-92885095D01*
X162964706Y-92899882D01*
X162946538Y-92913062D01*
X162934565Y-92919774D01*
X162919306Y-92932817D01*
X162917728Y-92933962D01*
X162916823Y-92934940D01*
X162896896Y-92951973D01*
X162884390Y-92961580D01*
X162871313Y-92973841D01*
X162857697Y-92985480D01*
X162846779Y-92996845D01*
X162810621Y-93030747D01*
X162806876Y-93035979D01*
X162793540Y-93047490D01*
X162753087Y-93099359D01*
X162712335Y-93151097D01*
X162698668Y-93177948D01*
X162679435Y-93203141D01*
X162651303Y-93260542D01*
X162622578Y-93317654D01*
X162616097Y-93341100D01*
X162610326Y-93351810D01*
X162596516Y-93396783D01*
X162591884Y-93409184D01*
X162586643Y-93428937D01*
X162580643Y-93448478D01*
X162578016Y-93461455D01*
X162565952Y-93506925D01*
X162564720Y-93526467D01*
X162560505Y-93547949D01*
X162554220Y-93578994D01*
X162554010Y-93581056D01*
X162553611Y-93583089D01*
X162550588Y-93614635D01*
X162543967Y-93679596D01*
X162544164Y-93681663D01*
X162543920Y-93684205D01*
X162541157Y-93704873D01*
X162540712Y-93717671D01*
X162539491Y-93730416D01*
X162539546Y-93751261D01*
X162537316Y-93815468D01*
X162536204Y-93826483D01*
X162536149Y-93849051D01*
X162535365Y-93871635D01*
X162536068Y-93882698D01*
X162535794Y-93995870D01*
X162535210Y-94022913D01*
X162535713Y-94029468D01*
X162535697Y-94036048D01*
X162538285Y-94062992D01*
X162546363Y-94168278D01*
X162545889Y-94172698D01*
X162551519Y-94235468D01*
X162553758Y-94264654D01*
X162554527Y-94269008D01*
X162554922Y-94273415D01*
X162560386Y-94302196D01*
X162571340Y-94364237D01*
X162572951Y-94368378D01*
X162581238Y-94412026D01*
X162581412Y-94421422D01*
X162593803Y-94478206D01*
X162598344Y-94502124D01*
X162600979Y-94511090D01*
X162602971Y-94520220D01*
X162610469Y-94543388D01*
X162626854Y-94599145D01*
X162631210Y-94607468D01*
X162645628Y-94652016D01*
X162647309Y-94663182D01*
X162666364Y-94716081D01*
X162673283Y-94737459D01*
X162677775Y-94747759D01*
X162681579Y-94758321D01*
X162691219Y-94778591D01*
X162713703Y-94830152D01*
X162720151Y-94839426D01*
X162740722Y-94882680D01*
X162743222Y-94891565D01*
X162769654Y-94943517D01*
X162780181Y-94965651D01*
X162784916Y-94973513D01*
X162789078Y-94981693D01*
X162802278Y-95002340D01*
X162832353Y-95052276D01*
X162838567Y-95059103D01*
X162864207Y-95099209D01*
X162865725Y-95102963D01*
X162900501Y-95155980D01*
X162916485Y-95180981D01*
X162918977Y-95184146D01*
X162921189Y-95187518D01*
X162939829Y-95210628D01*
X162979043Y-95260431D01*
X162982121Y-95263063D01*
X163054702Y-95353050D01*
X163073832Y-95377156D01*
X163075707Y-95379093D01*
X163077410Y-95381205D01*
X163099123Y-95403290D01*
X163228832Y-95537322D01*
X163245193Y-95555185D01*
X163252211Y-95561480D01*
X163258770Y-95568257D01*
X163277247Y-95583934D01*
X163415133Y-95707605D01*
X163417718Y-95710366D01*
X163440180Y-95730070D01*
X163462413Y-95750011D01*
X163465461Y-95752247D01*
X163564149Y-95838818D01*
X163566868Y-95841656D01*
X163589452Y-95861014D01*
X163611786Y-95880606D01*
X163614977Y-95882893D01*
X163686565Y-95944256D01*
X163693469Y-95951066D01*
X163712090Y-95966135D01*
X163730287Y-95981733D01*
X163738237Y-95987295D01*
X163798869Y-96036361D01*
X163811053Y-96047284D01*
X163825023Y-96057527D01*
X163838470Y-96068409D01*
X163852122Y-96077396D01*
X163910995Y-96120562D01*
X163925823Y-96132441D01*
X163938102Y-96140437D01*
X163949922Y-96149104D01*
X163966276Y-96158785D01*
X164026301Y-96197875D01*
X164038236Y-96206619D01*
X164054484Y-96216229D01*
X164070293Y-96226524D01*
X164083416Y-96233340D01*
X164147732Y-96271379D01*
X164153850Y-96275660D01*
X164176692Y-96288508D01*
X164199228Y-96301836D01*
X164205990Y-96304986D01*
X164285086Y-96349473D01*
X164286613Y-96350529D01*
X164314359Y-96365937D01*
X164342116Y-96381549D01*
X164343822Y-96382299D01*
X164561171Y-96503000D01*
X164959290Y-96742138D01*
X165326901Y-96983898D01*
X165657547Y-97222560D01*
X165942294Y-97450259D01*
X165980154Y-97484485D01*
X165897659Y-97483706D01*
X165871988Y-97482868D01*
X165864065Y-97483388D01*
X165856119Y-97483313D01*
X165830510Y-97485591D01*
X165732709Y-97492012D01*
X165731508Y-97491858D01*
X165665618Y-97496416D01*
X165633025Y-97498556D01*
X165631827Y-97498754D01*
X165630626Y-97498837D01*
X165598521Y-97504257D01*
X165533255Y-97515040D01*
X165532126Y-97515465D01*
X165493312Y-97522017D01*
X165466150Y-97523372D01*
X165426970Y-97533217D01*
X165420447Y-97534318D01*
X165394286Y-97541429D01*
X165368077Y-97548015D01*
X165361869Y-97550242D01*
X165322865Y-97560844D01*
X165298511Y-97572964D01*
X165255663Y-97588331D01*
X165214870Y-97599667D01*
X165162274Y-97626213D01*
X165108984Y-97651465D01*
X165102082Y-97656592D01*
X165094410Y-97660464D01*
X165047984Y-97696776D01*
X165000664Y-97731925D01*
X164972251Y-97763321D01*
X164944925Y-97789394D01*
X164904765Y-97824695D01*
X164875696Y-97862670D01*
X164844502Y-97898911D01*
X164834772Y-97916130D01*
X164822746Y-97931840D01*
X164801641Y-97974761D01*
X164778120Y-98016386D01*
X164761405Y-98067166D01*
X164739432Y-98125754D01*
X164719988Y-98169896D01*
X164708488Y-98221674D01*
X164694814Y-98272941D01*
X164691715Y-98321085D01*
X164685620Y-98371464D01*
X164681127Y-98387861D01*
X164677536Y-98438288D01*
X164675520Y-98454955D01*
X164675144Y-98471873D01*
X164673944Y-98488728D01*
X164674398Y-98505486D01*
X164673275Y-98556052D01*
X164676221Y-98572799D01*
X164676983Y-98600924D01*
X164676654Y-98602919D01*
X164678810Y-98668365D01*
X164679666Y-98699980D01*
X164679917Y-98701970D01*
X164679983Y-98703987D01*
X164684143Y-98735536D01*
X164692299Y-98800311D01*
X164692936Y-98802224D01*
X164705176Y-98895052D01*
X164708426Y-98923086D01*
X164709566Y-98928341D01*
X164710270Y-98933682D01*
X164716695Y-98961213D01*
X164751964Y-99123824D01*
X164756576Y-99148124D01*
X164759090Y-99156682D01*
X164760980Y-99165395D01*
X164768566Y-99188935D01*
X164817510Y-99355527D01*
X164823526Y-99378446D01*
X164826988Y-99387787D01*
X164829795Y-99397343D01*
X164838667Y-99419305D01*
X164901331Y-99588407D01*
X164909082Y-99611254D01*
X164913018Y-99619944D01*
X164916329Y-99628880D01*
X164926880Y-99650552D01*
X164993659Y-99798005D01*
X164999749Y-99813453D01*
X165007528Y-99828628D01*
X165014564Y-99844164D01*
X165022866Y-99858549D01*
X165091326Y-99992100D01*
X165094916Y-100000537D01*
X165106661Y-100022015D01*
X165117837Y-100043816D01*
X165122803Y-100051532D01*
X165202000Y-100196354D01*
X165204799Y-100202585D01*
X165218150Y-100225885D01*
X165231014Y-100249409D01*
X165234857Y-100255043D01*
X165320587Y-100404662D01*
X165323220Y-100410252D01*
X165337299Y-100433828D01*
X165350966Y-100457680D01*
X165354553Y-100462720D01*
X165440839Y-100607210D01*
X165443860Y-100613308D01*
X165458073Y-100636069D01*
X165471847Y-100659135D01*
X165475896Y-100664613D01*
X165556842Y-100794246D01*
X165561202Y-100802476D01*
X165574651Y-100822766D01*
X165587547Y-100843419D01*
X165593232Y-100850799D01*
X165665142Y-100959289D01*
X165673926Y-100974035D01*
X165683704Y-100987294D01*
X165692820Y-101001047D01*
X165703674Y-101014373D01*
X165735908Y-101058082D01*
X165742699Y-101071076D01*
X165775879Y-101112282D01*
X165787217Y-101127656D01*
X165796978Y-101138484D01*
X165806121Y-101149839D01*
X165819502Y-101163471D01*
X165854924Y-101202767D01*
X165864086Y-101209600D01*
X165886844Y-101235916D01*
X165927733Y-101284366D01*
X165979788Y-101346957D01*
X166040467Y-101420678D01*
X166107693Y-101503027D01*
X166179533Y-101591690D01*
X166254958Y-101685433D01*
X166309550Y-101753362D01*
X166309618Y-101753467D01*
X166329883Y-101778664D01*
X166351630Y-101805724D01*
X166351717Y-101805813D01*
X166382495Y-101844082D01*
X166382529Y-101844134D01*
X166404231Y-101871109D01*
X166424632Y-101896475D01*
X166424670Y-101896514D01*
X166450798Y-101928989D01*
X166450853Y-101929074D01*
X166470976Y-101954070D01*
X166492912Y-101981336D01*
X166492988Y-101981414D01*
X166512615Y-102005794D01*
X166512642Y-102005835D01*
X166533096Y-102031235D01*
X166554782Y-102058173D01*
X166554818Y-102058210D01*
X166566222Y-102072371D01*
X166566357Y-102072577D01*
X166587784Y-102099148D01*
X166608279Y-102124598D01*
X166608444Y-102124766D01*
X166609762Y-102126400D01*
X166609824Y-102126495D01*
X166629502Y-102150879D01*
X166642006Y-102166384D01*
X166642661Y-102167374D01*
X166646122Y-102171631D01*
X166648523Y-102176199D01*
X166686315Y-102265812D01*
X166700454Y-102304064D01*
X166656992Y-102307679D01*
X166654650Y-102308351D01*
X166354415Y-102335463D01*
X166334914Y-102334493D01*
X166287372Y-102341517D01*
X166273171Y-102342799D01*
X166254096Y-102346433D01*
X166234877Y-102349272D01*
X166221037Y-102352730D01*
X166173834Y-102361722D01*
X166155737Y-102369046D01*
X165885512Y-102436567D01*
X165851135Y-102441744D01*
X165788718Y-102464233D01*
X165725933Y-102486657D01*
X165696100Y-102504515D01*
X165456751Y-102618367D01*
X165406455Y-102640048D01*
X165368156Y-102666438D01*
X165328319Y-102690436D01*
X165287822Y-102727304D01*
X165134718Y-102856660D01*
X165127971Y-102860593D01*
X165083257Y-102900139D01*
X165063454Y-102916870D01*
X165058042Y-102922439D01*
X165026896Y-102949985D01*
X165011126Y-102970717D01*
X164992979Y-102989390D01*
X164970382Y-103024279D01*
X164965673Y-103030469D01*
X164952059Y-103052569D01*
X164919626Y-103102643D01*
X164916742Y-103109897D01*
X164841894Y-103231395D01*
X164830876Y-103244508D01*
X164806586Y-103288710D01*
X164797850Y-103302891D01*
X164790376Y-103318209D01*
X164765893Y-103362762D01*
X164760847Y-103378726D01*
X164753506Y-103393772D01*
X164740552Y-103442941D01*
X164735418Y-103459184D01*
X164731982Y-103475468D01*
X164719129Y-103524253D01*
X164718080Y-103541353D01*
X164688010Y-103683866D01*
X164685292Y-103690607D01*
X164674094Y-103749816D01*
X164668635Y-103775690D01*
X164667844Y-103782866D01*
X164660218Y-103823190D01*
X164660469Y-103849777D01*
X164657556Y-103876204D01*
X164661104Y-103917082D01*
X164661172Y-103924308D01*
X164664015Y-103950626D01*
X164669223Y-104010631D01*
X164671251Y-104017607D01*
X164693295Y-104221662D01*
X164695855Y-104270231D01*
X164708835Y-104321272D01*
X164719593Y-104372812D01*
X164738625Y-104417559D01*
X164796716Y-104578100D01*
X164801215Y-104598938D01*
X164819619Y-104641398D01*
X164823864Y-104653128D01*
X164833000Y-104672266D01*
X164841432Y-104691720D01*
X164847490Y-104702623D01*
X164867426Y-104744386D01*
X164880186Y-104761463D01*
X164888777Y-104776924D01*
X164897670Y-104794575D01*
X164905100Y-104806299D01*
X164911848Y-104818443D01*
X164923104Y-104834707D01*
X164960297Y-104893396D01*
X164965688Y-104903276D01*
X164978296Y-104921797D01*
X164990292Y-104940726D01*
X164997221Y-104949598D01*
X165042871Y-105016658D01*
X165046717Y-105023344D01*
X165061794Y-105044456D01*
X165076396Y-105065906D01*
X165081341Y-105071826D01*
X165136668Y-105149299D01*
X165139796Y-105154520D01*
X165156205Y-105176655D01*
X165172236Y-105199103D01*
X165176246Y-105203690D01*
X165240293Y-105290089D01*
X165243117Y-105294640D01*
X165260335Y-105317124D01*
X165277181Y-105339850D01*
X165280773Y-105343815D01*
X165351781Y-105436544D01*
X165354548Y-105440859D01*
X165372243Y-105463266D01*
X165389579Y-105485905D01*
X165393075Y-105489645D01*
X165469112Y-105585929D01*
X165472188Y-105590559D01*
X165489952Y-105612318D01*
X165507370Y-105634375D01*
X165511228Y-105638381D01*
X165641832Y-105798363D01*
X165823626Y-106027564D01*
X165856346Y-106071639D01*
X165744713Y-106069724D01*
X165723731Y-106068590D01*
X165711111Y-106069148D01*
X165698471Y-106068931D01*
X165677517Y-106070633D01*
X165439495Y-106081153D01*
X165424725Y-106079535D01*
X165372240Y-106084126D01*
X165353339Y-106084961D01*
X165338700Y-106087059D01*
X165323987Y-106088346D01*
X165305410Y-106091830D01*
X165253238Y-106099308D01*
X165239224Y-106104245D01*
X165066892Y-106136569D01*
X165011182Y-106145163D01*
X164968982Y-106160539D01*
X164925864Y-106173106D01*
X164875865Y-106199132D01*
X164744446Y-106262224D01*
X164714451Y-106272961D01*
X164683796Y-106291341D01*
X164682035Y-106292186D01*
X164654832Y-106308706D01*
X164598725Y-106342346D01*
X164597275Y-106343661D01*
X164595603Y-106344676D01*
X164547302Y-106388966D01*
X164523807Y-106410267D01*
X164522503Y-106411706D01*
X164496151Y-106435870D01*
X164477316Y-106461577D01*
X164409198Y-106536754D01*
X164388480Y-106554856D01*
X164364005Y-106586631D01*
X164359780Y-106591294D01*
X164343491Y-106613263D01*
X164306141Y-106661754D01*
X164303326Y-106667437D01*
X164299553Y-106672525D01*
X164273416Y-106727807D01*
X164261249Y-106752366D01*
X164259020Y-106758255D01*
X164241878Y-106794512D01*
X164235197Y-106821198D01*
X164184486Y-106955186D01*
X164164439Y-107000954D01*
X164153419Y-107051060D01*
X164140046Y-107100605D01*
X164136685Y-107150470D01*
X164115327Y-107330161D01*
X164112188Y-107340997D01*
X164107377Y-107397042D01*
X164104725Y-107419357D01*
X164104499Y-107430574D01*
X164103540Y-107441749D01*
X164103822Y-107464216D01*
X164102690Y-107520458D01*
X164104668Y-107531564D01*
X164107909Y-107789745D01*
X164107411Y-107811090D01*
X164108331Y-107823351D01*
X164108485Y-107835654D01*
X164110846Y-107856886D01*
X164131251Y-108128965D01*
X164131362Y-108140314D01*
X164133763Y-108162468D01*
X164135433Y-108184730D01*
X164137390Y-108195929D01*
X164145560Y-108271300D01*
X164145867Y-108280013D01*
X164149188Y-108304768D01*
X164151874Y-108329546D01*
X164153655Y-108338063D01*
X164163861Y-108414132D01*
X164164321Y-108422026D01*
X164168329Y-108447436D01*
X164171755Y-108472975D01*
X164173572Y-108480683D01*
X164185438Y-108555914D01*
X164186037Y-108563379D01*
X164190678Y-108589135D01*
X164194755Y-108614988D01*
X164196641Y-108622235D01*
X164209693Y-108694676D01*
X164210566Y-108703003D01*
X164215655Y-108727768D01*
X164220139Y-108752656D01*
X164222425Y-108760713D01*
X164236386Y-108828653D01*
X164237708Y-108838503D01*
X164243156Y-108861601D01*
X164247931Y-108884838D01*
X164250875Y-108894326D01*
X164265446Y-108956101D01*
X164267626Y-108968738D01*
X164273162Y-108988818D01*
X164277947Y-109009103D01*
X164282103Y-109021244D01*
X164298333Y-109080109D01*
X164303319Y-109101057D01*
X164307271Y-109112524D01*
X164310493Y-109124212D01*
X164318220Y-109144301D01*
X164336839Y-109198334D01*
X164369183Y-109348426D01*
X164396660Y-109565611D01*
X164410642Y-109771411D01*
X164334073Y-109736886D01*
X164304460Y-109719898D01*
X164240945Y-109698535D01*
X164177211Y-109677029D01*
X164176879Y-109676986D01*
X164176567Y-109676881D01*
X164109919Y-109668295D01*
X164043401Y-109659661D01*
X164043073Y-109659683D01*
X164042739Y-109659640D01*
X163975149Y-109664259D01*
X163908773Y-109668730D01*
X163875814Y-109677626D01*
X163850109Y-109681943D01*
X163833275Y-109682261D01*
X163783706Y-109693097D01*
X163767009Y-109695901D01*
X163750855Y-109700278D01*
X163701456Y-109711076D01*
X163685841Y-109717892D01*
X163669405Y-109722345D01*
X163624128Y-109744830D01*
X163577790Y-109765056D01*
X163563811Y-109774783D01*
X163548553Y-109782360D01*
X163508522Y-109813255D01*
X163467032Y-109842124D01*
X163455218Y-109854392D01*
X163441732Y-109864800D01*
X163408513Y-109902892D01*
X163396888Y-109914964D01*
X163386382Y-109928270D01*
X163353047Y-109966495D01*
X163344670Y-109981098D01*
X163318526Y-110014209D01*
X163298527Y-110034330D01*
X163276827Y-110067020D01*
X163273456Y-110071290D01*
X163258192Y-110095094D01*
X163223903Y-110146750D01*
X163221827Y-110151805D01*
X163218871Y-110156415D01*
X163196209Y-110214186D01*
X163185488Y-110240292D01*
X163183926Y-110245499D01*
X163169596Y-110282029D01*
X163164587Y-110309953D01*
X163130795Y-110422577D01*
X163121762Y-110442581D01*
X163111453Y-110487042D01*
X163108049Y-110498389D01*
X163103853Y-110519823D01*
X163098922Y-110541091D01*
X163097391Y-110552833D01*
X163088622Y-110597628D01*
X163088689Y-110619578D01*
X163057863Y-110856001D01*
X163053887Y-110882254D01*
X163053518Y-110889323D01*
X163052601Y-110896357D01*
X163051765Y-110922921D01*
X163032905Y-111284301D01*
X163031386Y-111298063D01*
X163031153Y-111317882D01*
X163030120Y-111337671D01*
X163030757Y-111351499D01*
X163024525Y-111880966D01*
X163009029Y-112490773D01*
X162980995Y-113013955D01*
X162940122Y-113457746D01*
X162909515Y-113669648D01*
X162905118Y-113663201D01*
X162900372Y-113657529D01*
X162896075Y-113651510D01*
X162878768Y-113631707D01*
X162840229Y-113585643D01*
X162834438Y-113580981D01*
X162754168Y-113489132D01*
X162747129Y-113477912D01*
X162709864Y-113438437D01*
X162696357Y-113422982D01*
X162686752Y-113413955D01*
X162677712Y-113404379D01*
X162662241Y-113390919D01*
X162622670Y-113353729D01*
X162611432Y-113346714D01*
X162519973Y-113267142D01*
X162502739Y-113248007D01*
X162469194Y-113222964D01*
X162463122Y-113217681D01*
X162442253Y-113202850D01*
X162421707Y-113187512D01*
X162414807Y-113183347D01*
X162380693Y-113159104D01*
X162357200Y-113148571D01*
X162243084Y-113079683D01*
X162202567Y-113052141D01*
X162154409Y-113031743D01*
X162107211Y-113009238D01*
X162059733Y-112997186D01*
X161969031Y-112968882D01*
X161957858Y-112963310D01*
X161904752Y-112948824D01*
X161884438Y-112942485D01*
X161872272Y-112939964D01*
X161827681Y-112927801D01*
X161806355Y-112926307D01*
X161785418Y-112921969D01*
X161739186Y-112921601D01*
X161726805Y-112920734D01*
X161705557Y-112921334D01*
X161650490Y-112920896D01*
X161638221Y-112923235D01*
X161602997Y-112924230D01*
X161564442Y-112922071D01*
X161502401Y-112930841D01*
X161440228Y-112938742D01*
X161414024Y-112947506D01*
X161397069Y-112949433D01*
X161355966Y-112962578D01*
X161346878Y-112964788D01*
X161323921Y-112972825D01*
X161300751Y-112980235D01*
X161292165Y-112983943D01*
X161251435Y-112998203D01*
X161244148Y-113002503D01*
X161235613Y-113004997D01*
X161197953Y-113024633D01*
X161190003Y-113028067D01*
X161168129Y-113040184D01*
X161145947Y-113051750D01*
X161138696Y-113056489D01*
X161101545Y-113077068D01*
X161096888Y-113081008D01*
X161095203Y-113081792D01*
X161055391Y-113110925D01*
X161042404Y-113119412D01*
X161028258Y-113130780D01*
X161013596Y-113141510D01*
X161002024Y-113151864D01*
X160963582Y-113182759D01*
X160953995Y-113194200D01*
X160936656Y-113210354D01*
X160916697Y-113228212D01*
X160912030Y-113233296D01*
X160906976Y-113238004D01*
X160889255Y-113258103D01*
X160848309Y-113302703D01*
X160844702Y-113308634D01*
X160839744Y-113314257D01*
X160819906Y-113336232D01*
X160817513Y-113339472D01*
X160814852Y-113342490D01*
X160797562Y-113366484D01*
X160757815Y-113420296D01*
X160744888Y-113436481D01*
X160737827Y-113447359D01*
X160730136Y-113457771D01*
X160719537Y-113475533D01*
X160683953Y-113530348D01*
X160675644Y-113541674D01*
X160665659Y-113558529D01*
X160654977Y-113574985D01*
X160648512Y-113587476D01*
X160603920Y-113662753D01*
X160595974Y-113674585D01*
X160586792Y-113691666D01*
X160576897Y-113708371D01*
X160570864Y-113721299D01*
X160516880Y-113821732D01*
X160503130Y-113846364D01*
X160500951Y-113851366D01*
X160498373Y-113856161D01*
X160487538Y-113882148D01*
X160435284Y-114002069D01*
X160422170Y-114031978D01*
X160421929Y-114032718D01*
X160421619Y-114033429D01*
X160411570Y-114064504D01*
X160366367Y-114203212D01*
X160357614Y-114228302D01*
X160355950Y-114235178D01*
X160353759Y-114241900D01*
X160348044Y-114267840D01*
X160309075Y-114428833D01*
X160304282Y-114445125D01*
X160301166Y-114461509D01*
X160297242Y-114477720D01*
X160294884Y-114494540D01*
X160256955Y-114693965D01*
X160254552Y-114703044D01*
X160250675Y-114726982D01*
X160246139Y-114750833D01*
X160245296Y-114760197D01*
X160203177Y-115020275D01*
X160202057Y-115024747D01*
X160197792Y-115053521D01*
X160193154Y-115082162D01*
X160192867Y-115086751D01*
X160142024Y-115429800D01*
X160141599Y-115431536D01*
X160137100Y-115463022D01*
X160132421Y-115494593D01*
X160132333Y-115496383D01*
X160082381Y-115845976D01*
X160058249Y-115995168D01*
X160031177Y-116143296D01*
X160001992Y-116286452D01*
X159972074Y-116419013D01*
X159943014Y-116534639D01*
X159917912Y-116622794D01*
X159876349Y-116534520D01*
X159866257Y-116511613D01*
X159862039Y-116504127D01*
X159858374Y-116496344D01*
X159845524Y-116474821D01*
X159775799Y-116351088D01*
X159760827Y-116324031D01*
X159759324Y-116321850D01*
X159758020Y-116319537D01*
X159740238Y-116294166D01*
X159697599Y-116232319D01*
X159692829Y-116222179D01*
X159659365Y-116176860D01*
X159646571Y-116158303D01*
X159639380Y-116149796D01*
X159632760Y-116140831D01*
X159617651Y-116124091D01*
X159581289Y-116081075D01*
X159572525Y-116074093D01*
X159551550Y-116050854D01*
X159523581Y-116015476D01*
X159480799Y-115979039D01*
X159439246Y-115941220D01*
X159400614Y-115917956D01*
X159362959Y-115891789D01*
X159320896Y-115859816D01*
X159277364Y-115838594D01*
X159235057Y-115814978D01*
X159216826Y-115809082D01*
X159199607Y-115800688D01*
X159152762Y-115788364D01*
X159106671Y-115773459D01*
X159074792Y-115769730D01*
X159070255Y-115768196D01*
X159013337Y-115760768D01*
X158989988Y-115757022D01*
X158979944Y-115756410D01*
X158936456Y-115750734D01*
X158912763Y-115752314D01*
X158889053Y-115750868D01*
X158845586Y-115756792D01*
X158801822Y-115759710D01*
X158778888Y-115765883D01*
X158755356Y-115769090D01*
X158713882Y-115783379D01*
X158704175Y-115785992D01*
X158688731Y-115791825D01*
X158666204Y-115797144D01*
X158642423Y-115807999D01*
X158627782Y-115813044D01*
X158619044Y-115818142D01*
X158615801Y-115819367D01*
X158595166Y-115829572D01*
X158574212Y-115839137D01*
X158565001Y-115844489D01*
X158525157Y-115864194D01*
X158508048Y-115877352D01*
X158493314Y-115885507D01*
X158487403Y-115889583D01*
X158481199Y-115893188D01*
X158459743Y-115908655D01*
X158436401Y-115924750D01*
X158421785Y-115933825D01*
X158408723Y-115943834D01*
X158395173Y-115953177D01*
X158382035Y-115964284D01*
X158362682Y-115979114D01*
X158352285Y-115986108D01*
X158335984Y-115999572D01*
X158319210Y-116012425D01*
X158310063Y-116020981D01*
X158290189Y-116037396D01*
X158281734Y-116043464D01*
X158264273Y-116058800D01*
X158246340Y-116073612D01*
X158238998Y-116081001D01*
X158217153Y-116100187D01*
X158209603Y-116105929D01*
X158191887Y-116122379D01*
X158173723Y-116138333D01*
X158167244Y-116145261D01*
X158143148Y-116167635D01*
X158135600Y-116173720D01*
X158118516Y-116190507D01*
X158100949Y-116206819D01*
X158094520Y-116214086D01*
X158040897Y-116266778D01*
X158019191Y-116287679D01*
X158016937Y-116290322D01*
X158014461Y-116292755D01*
X157995152Y-116315867D01*
X157898298Y-116429440D01*
X157879978Y-116450183D01*
X157876500Y-116455001D01*
X157872641Y-116459526D01*
X157856826Y-116482254D01*
X157759394Y-116617220D01*
X157746500Y-116633757D01*
X157739721Y-116644472D01*
X157732295Y-116654759D01*
X157721741Y-116672893D01*
X157622380Y-116829947D01*
X157613302Y-116842758D01*
X157604402Y-116858363D01*
X157594800Y-116873541D01*
X157587748Y-116887566D01*
X157482440Y-117072218D01*
X157476057Y-117081904D01*
X157465783Y-117101425D01*
X157454853Y-117120590D01*
X157450121Y-117131183D01*
X157335557Y-117348857D01*
X157331029Y-117356116D01*
X157319907Y-117378591D01*
X157308208Y-117400820D01*
X157304979Y-117408758D01*
X157178351Y-117664653D01*
X157175115Y-117670060D01*
X157163432Y-117694802D01*
X157151300Y-117719319D01*
X157149073Y-117725212D01*
X157007956Y-118024069D01*
X157005716Y-118027924D01*
X156993618Y-118054433D01*
X156981133Y-118080874D01*
X156979628Y-118085088D01*
X156851099Y-118366723D01*
X156843616Y-118380858D01*
X156826314Y-118345672D01*
X156791587Y-118300309D01*
X156776253Y-118278978D01*
X156767505Y-118262243D01*
X156736969Y-118224329D01*
X156728267Y-118212224D01*
X156715849Y-118198107D01*
X156682867Y-118157156D01*
X156671373Y-118147545D01*
X156661478Y-118136296D01*
X156619714Y-118104348D01*
X156605291Y-118092288D01*
X156592973Y-118083893D01*
X156554306Y-118054314D01*
X156549145Y-118051778D01*
X156547778Y-118050493D01*
X156502176Y-118022010D01*
X156485654Y-118010749D01*
X156473625Y-118004176D01*
X156433335Y-117979011D01*
X156414549Y-117971898D01*
X156396914Y-117962262D01*
X156351572Y-117948051D01*
X156338765Y-117943202D01*
X156319478Y-117937993D01*
X156268156Y-117921908D01*
X156254457Y-117920432D01*
X156246713Y-117918340D01*
X156202651Y-117903495D01*
X156148310Y-117896467D01*
X156094269Y-117887435D01*
X156047799Y-117888864D01*
X156014156Y-117887839D01*
X155981094Y-117883518D01*
X155946897Y-117885791D01*
X155946432Y-117885777D01*
X155913372Y-117888020D01*
X155880195Y-117890225D01*
X155879735Y-117890301D01*
X155845541Y-117892621D01*
X155813352Y-117901325D01*
X155793992Y-117904540D01*
X155745141Y-117909991D01*
X155695443Y-117925772D01*
X155645097Y-117939312D01*
X155601035Y-117961092D01*
X155571831Y-117973634D01*
X155532969Y-117986886D01*
X155480860Y-118017066D01*
X155428120Y-118046141D01*
X155396718Y-118072599D01*
X155383528Y-118082079D01*
X155366550Y-118090969D01*
X155328867Y-118121363D01*
X155316987Y-118129900D01*
X155302662Y-118142497D01*
X155287838Y-118154454D01*
X155277420Y-118164696D01*
X155241051Y-118196680D01*
X155229405Y-118211901D01*
X155182519Y-118257996D01*
X155159089Y-118280928D01*
X155158599Y-118281513D01*
X155158051Y-118282051D01*
X155137153Y-118307078D01*
X155052397Y-118408118D01*
X155039298Y-118422481D01*
X155030799Y-118433867D01*
X155021661Y-118444760D01*
X155010681Y-118460817D01*
X154921720Y-118579988D01*
X154914514Y-118588422D01*
X154901621Y-118606913D01*
X154888109Y-118625014D01*
X154882371Y-118634520D01*
X154779042Y-118782710D01*
X154775283Y-118787266D01*
X154759803Y-118810301D01*
X154743933Y-118833062D01*
X154741047Y-118838213D01*
X154624502Y-119011645D01*
X154555272Y-119113809D01*
X154500971Y-119190266D01*
X154450707Y-119255783D01*
X154391083Y-119327233D01*
X154309246Y-119419078D01*
X154195636Y-119541651D01*
X154042889Y-119703361D01*
X153869821Y-119885418D01*
X153719344Y-120030693D01*
X153707356Y-120041266D01*
X153702543Y-120000425D01*
X153701836Y-119987813D01*
X153698607Y-119967030D01*
X153696146Y-119946147D01*
X153693446Y-119933811D01*
X153686465Y-119888879D01*
X153684038Y-119868184D01*
X153681303Y-119855656D01*
X153679335Y-119842988D01*
X153675368Y-119827599D01*
X153674838Y-119817348D01*
X153661064Y-119762943D01*
X153656296Y-119741099D01*
X153652802Y-119730305D01*
X153650020Y-119719318D01*
X153642444Y-119698310D01*
X153625607Y-119646304D01*
X153624732Y-119641945D01*
X153605176Y-119594975D01*
X153599380Y-119578904D01*
X153592243Y-119563911D01*
X153572868Y-119517377D01*
X153563298Y-119503111D01*
X153555914Y-119487600D01*
X153525784Y-119447188D01*
X153516534Y-119433399D01*
X153505671Y-119420212D01*
X153475261Y-119379424D01*
X153462864Y-119368245D01*
X153449993Y-119352619D01*
X153444741Y-119343513D01*
X153407140Y-119300597D01*
X153392388Y-119282688D01*
X153384990Y-119275317D01*
X153355820Y-119242024D01*
X153337298Y-119227798D01*
X153320753Y-119211313D01*
X153283908Y-119186791D01*
X153248808Y-119159832D01*
X153227865Y-119149492D01*
X153208424Y-119136553D01*
X153167508Y-119119692D01*
X153158134Y-119115064D01*
X153136383Y-119106866D01*
X153083668Y-119085143D01*
X153073358Y-119083112D01*
X153025471Y-119065063D01*
X152975680Y-119044039D01*
X152929432Y-119034510D01*
X152883809Y-119022263D01*
X152863475Y-119020921D01*
X152843523Y-119016810D01*
X152796299Y-119016487D01*
X152749170Y-119013376D01*
X152695570Y-119020407D01*
X152567298Y-119032155D01*
X152505491Y-119036828D01*
X152467669Y-119047369D01*
X152431421Y-119054322D01*
X152432618Y-119051072D01*
X152449100Y-119014667D01*
X152450492Y-119008714D01*
X152452905Y-119003099D01*
X152456525Y-118986153D01*
X152462249Y-118970610D01*
X152468271Y-118932662D01*
X152477311Y-118893990D01*
X152477520Y-118887876D01*
X152478796Y-118881903D01*
X152479054Y-118864705D01*
X152481671Y-118848212D01*
X152480197Y-118809556D01*
X152481545Y-118770132D01*
X152480562Y-118764094D01*
X152480654Y-118757987D01*
X152477590Y-118741192D01*
X152476948Y-118724371D01*
X152475686Y-118715595D01*
X152475558Y-118714749D01*
X152475315Y-118709080D01*
X152472056Y-118686059D01*
X152471632Y-118662810D01*
X152463391Y-118624840D01*
X152457946Y-118586372D01*
X152450275Y-118564416D01*
X152445345Y-118541700D01*
X152429891Y-118506066D01*
X152417073Y-118469376D01*
X152405283Y-118449327D01*
X152396035Y-118428002D01*
X152391677Y-118420281D01*
X152271098Y-118210129D01*
X152265663Y-118202495D01*
X152261566Y-118194068D01*
X152229784Y-118152093D01*
X152199227Y-118109167D01*
X152192408Y-118102729D01*
X152186756Y-118095264D01*
X152180695Y-118088793D01*
X152017053Y-117916538D01*
X152014286Y-117914144D01*
X152012008Y-117911289D01*
X152005784Y-117904974D01*
X151995199Y-117894385D01*
X151987881Y-117886215D01*
X151950824Y-117843417D01*
X151944352Y-117837358D01*
X151921962Y-117816688D01*
X151892117Y-117794106D01*
X151864105Y-117769271D01*
X151842811Y-117756798D01*
X151823134Y-117741910D01*
X151820909Y-117740829D01*
X151777273Y-117702282D01*
X151739387Y-117674900D01*
X151702874Y-117645734D01*
X151695407Y-117640955D01*
X151569660Y-117561714D01*
X151565731Y-117559745D01*
X151562230Y-117557104D01*
X151554632Y-117552533D01*
X151447144Y-117488893D01*
X151348722Y-117418589D01*
X151318422Y-117401138D01*
X151289725Y-117381170D01*
X151264861Y-117370291D01*
X151241329Y-117356738D01*
X151208206Y-117345502D01*
X151176187Y-117331492D01*
X151149682Y-117325649D01*
X151123968Y-117316926D01*
X151089306Y-117312339D01*
X151055163Y-117304812D01*
X151028020Y-117304228D01*
X151001109Y-117300667D01*
X150966222Y-117302900D01*
X150931261Y-117302148D01*
X150904518Y-117306848D01*
X150877431Y-117308582D01*
X150867530Y-117311209D01*
X150864732Y-117311681D01*
X150846989Y-117312167D01*
X150803735Y-117321969D01*
X150760020Y-117329342D01*
X150743431Y-117335635D01*
X150726123Y-117339557D01*
X150685604Y-117357570D01*
X150644146Y-117373297D01*
X150629092Y-117382694D01*
X150612879Y-117389902D01*
X150576636Y-117415439D01*
X150539017Y-117438922D01*
X150526074Y-117451065D01*
X150511571Y-117461284D01*
X150496162Y-117477448D01*
X150450052Y-117506074D01*
X150409175Y-117537364D01*
X150367277Y-117567284D01*
X150360032Y-117574981D01*
X150351642Y-117581403D01*
X150329171Y-117606921D01*
X150269995Y-117545629D01*
X150263564Y-117540154D01*
X150258144Y-117533675D01*
X150216439Y-117500038D01*
X150175627Y-117465296D01*
X150168251Y-117461173D01*
X150161679Y-117455872D01*
X150114245Y-117430982D01*
X150067452Y-117404823D01*
X150059416Y-117402211D01*
X150051940Y-117398288D01*
X150043701Y-117395011D01*
X149911064Y-117343331D01*
X149857189Y-117328200D01*
X149803693Y-117312065D01*
X149797629Y-117311472D01*
X149791750Y-117309821D01*
X149735960Y-117305442D01*
X149680351Y-117300005D01*
X149674284Y-117300602D01*
X149668199Y-117300124D01*
X149612629Y-117306664D01*
X149557015Y-117312133D01*
X149551179Y-117313897D01*
X149545118Y-117314610D01*
X149491914Y-117331807D01*
X149438384Y-117347985D01*
X149432996Y-117350852D01*
X149427195Y-117352727D01*
X149378341Y-117379932D01*
X149328977Y-117406198D01*
X149321627Y-117411158D01*
X149228608Y-117474887D01*
X149189629Y-117507612D01*
X149149544Y-117538938D01*
X149143167Y-117545097D01*
X149097302Y-117590022D01*
X149058832Y-117620954D01*
X149024550Y-117647366D01*
X148934365Y-117621963D01*
X148907771Y-117617211D01*
X148881856Y-117609553D01*
X148873137Y-117607943D01*
X148766339Y-117588993D01*
X148759356Y-117588448D01*
X148752580Y-117586708D01*
X148743809Y-117585412D01*
X148639531Y-117570751D01*
X148516286Y-117551032D01*
X148501951Y-117550158D01*
X148487899Y-117547144D01*
X148452278Y-117546582D01*
X148446165Y-117545152D01*
X148434270Y-117544744D01*
X148422583Y-117542468D01*
X148372429Y-117542624D01*
X148322308Y-117540906D01*
X148310557Y-117542817D01*
X148298653Y-117542854D01*
X148288087Y-117544980D01*
X148248329Y-117540942D01*
X148208581Y-117534131D01*
X148199734Y-117533556D01*
X148170454Y-117531856D01*
X148111812Y-117534187D01*
X148053237Y-117535900D01*
X148049974Y-117536646D01*
X148046622Y-117536779D01*
X147989562Y-117550454D01*
X147932422Y-117563514D01*
X147929362Y-117564881D01*
X147926104Y-117565662D01*
X147872784Y-117590161D01*
X147846657Y-117601835D01*
X147824314Y-117591119D01*
X147784677Y-117569447D01*
X147768547Y-117564371D01*
X147753305Y-117557061D01*
X147709558Y-117545809D01*
X147666461Y-117532248D01*
X147649655Y-117530402D01*
X147633281Y-117526191D01*
X147624510Y-117524892D01*
X147600391Y-117521492D01*
X147590968Y-117521093D01*
X147581745Y-117519145D01*
X147529150Y-117518477D01*
X147476571Y-117516251D01*
X147467251Y-117517690D01*
X147457825Y-117517570D01*
X147406106Y-117527130D01*
X147354092Y-117535160D01*
X147345226Y-117538383D01*
X147335958Y-117540096D01*
X147324959Y-117544467D01*
X147289075Y-117542093D01*
X147228244Y-117537891D01*
X147227319Y-117538009D01*
X147226386Y-117537947D01*
X147165818Y-117545831D01*
X147105304Y-117553527D01*
X147104418Y-117553822D01*
X147103492Y-117553943D01*
X147045755Y-117573392D01*
X147023056Y-117580964D01*
X146970664Y-117563747D01*
X146917775Y-117545254D01*
X146911821Y-117544410D01*
X146906111Y-117542533D01*
X146850526Y-117535716D01*
X146795073Y-117527851D01*
X146789071Y-117528179D01*
X146783102Y-117527447D01*
X146727217Y-117531559D01*
X146671327Y-117534613D01*
X146665507Y-117536099D01*
X146659506Y-117536541D01*
X146605501Y-117551426D01*
X146551252Y-117565281D01*
X146545825Y-117567873D01*
X146540030Y-117569470D01*
X146531776Y-117572706D01*
X146488716Y-117589936D01*
X146464821Y-117602326D01*
X146439701Y-117611999D01*
X146409943Y-117630782D01*
X146386985Y-117642686D01*
X146374170Y-117632800D01*
X146340130Y-117615867D01*
X146307478Y-117596410D01*
X146284784Y-117588334D01*
X146263211Y-117577602D01*
X146226530Y-117567602D01*
X146190721Y-117554859D01*
X146166889Y-117551344D01*
X146143643Y-117545007D01*
X146105729Y-117542323D01*
X146068117Y-117536776D01*
X146044049Y-117537958D01*
X146020022Y-117536257D01*
X145982308Y-117540989D01*
X145944336Y-117542853D01*
X145920959Y-117548686D01*
X145897056Y-117551685D01*
X145860980Y-117563652D01*
X145824092Y-117572856D01*
X145802292Y-117583119D01*
X145779429Y-117590703D01*
X145768114Y-117597118D01*
X145736948Y-117605366D01*
X145720507Y-117611488D01*
X145703373Y-117615249D01*
X145662553Y-117633067D01*
X145620807Y-117648611D01*
X145605868Y-117657810D01*
X145589792Y-117664827D01*
X145582082Y-117669204D01*
X145537292Y-117695044D01*
X145495164Y-117725184D01*
X145452101Y-117753943D01*
X145444842Y-117761186D01*
X145436500Y-117767154D01*
X145421918Y-117782672D01*
X145392991Y-117764651D01*
X145389510Y-117762929D01*
X145386401Y-117760601D01*
X145378787Y-117756058D01*
X145296502Y-117707735D01*
X145221232Y-117653228D01*
X145216448Y-117650431D01*
X145212243Y-117646838D01*
X145163056Y-117619218D01*
X145114243Y-117590682D01*
X145109005Y-117588867D01*
X145104184Y-117586160D01*
X145050553Y-117568615D01*
X144997142Y-117550109D01*
X144991656Y-117549347D01*
X144986396Y-117547626D01*
X144930338Y-117540827D01*
X144874391Y-117533054D01*
X144868864Y-117533372D01*
X144863367Y-117532705D01*
X144807045Y-117536925D01*
X144780759Y-117538436D01*
X144777262Y-117538232D01*
X144772231Y-117538926D01*
X144750665Y-117540166D01*
X144745304Y-117541551D01*
X144739784Y-117541965D01*
X144731060Y-117543548D01*
X144718114Y-117545991D01*
X144678945Y-117549831D01*
X144666922Y-117553461D01*
X144654496Y-117555176D01*
X144607716Y-117571336D01*
X144560304Y-117585651D01*
X144549222Y-117591544D01*
X144537358Y-117595642D01*
X144494590Y-117620592D01*
X144450880Y-117643833D01*
X144441155Y-117651764D01*
X144430312Y-117658090D01*
X144393424Y-117690678D01*
X144389921Y-117692834D01*
X144348581Y-117718674D01*
X144301734Y-117754761D01*
X144276093Y-117774147D01*
X144274137Y-117773291D01*
X144263833Y-117761500D01*
X144241055Y-117731064D01*
X144223149Y-117714947D01*
X144207295Y-117696806D01*
X144177195Y-117673585D01*
X144148942Y-117648155D01*
X144128247Y-117635824D01*
X144109171Y-117621107D01*
X144075131Y-117604174D01*
X144042479Y-117584717D01*
X144019785Y-117576641D01*
X143998212Y-117565909D01*
X143961531Y-117555909D01*
X143925722Y-117543166D01*
X143901890Y-117539651D01*
X143878644Y-117533314D01*
X143840730Y-117530630D01*
X143803118Y-117525083D01*
X143779050Y-117526265D01*
X143755023Y-117524564D01*
X143717309Y-117529296D01*
X143679337Y-117531160D01*
X143655960Y-117536993D01*
X143632057Y-117539992D01*
X143595981Y-117551959D01*
X143559093Y-117561163D01*
X143537293Y-117571426D01*
X143514430Y-117579010D01*
X143503115Y-117585425D01*
X143471949Y-117593673D01*
X143455508Y-117599795D01*
X143438374Y-117603556D01*
X143397554Y-117621374D01*
X143355808Y-117636918D01*
X143340869Y-117646117D01*
X143324793Y-117653134D01*
X143317083Y-117657511D01*
X143272293Y-117683351D01*
X143230162Y-117713493D01*
X143187102Y-117742250D01*
X143179843Y-117749493D01*
X143171501Y-117755461D01*
X143136024Y-117793215D01*
X143099373Y-117829785D01*
X143093661Y-117838297D01*
X143086635Y-117845774D01*
X143059174Y-117889690D01*
X143030317Y-117932692D01*
X143026364Y-117942158D01*
X143020928Y-117950852D01*
X143002526Y-117999249D01*
X142982565Y-118047053D01*
X142980023Y-118055547D01*
X142967963Y-118096887D01*
X142963056Y-118122945D01*
X142955268Y-118148286D01*
X142953563Y-118156987D01*
X142948363Y-118184547D01*
X142947608Y-118193030D01*
X142945439Y-118201268D01*
X142944090Y-118210031D01*
X142938602Y-118247408D01*
X142928930Y-118255126D01*
X142901674Y-118273010D01*
X142880619Y-118293679D01*
X142857553Y-118312086D01*
X142836503Y-118336987D01*
X142813235Y-118359828D01*
X142796595Y-118384194D01*
X142777544Y-118406730D01*
X142761729Y-118435249D01*
X142743344Y-118462171D01*
X142731754Y-118489303D01*
X142717443Y-118515111D01*
X142707471Y-118546153D01*
X142694662Y-118576139D01*
X142688561Y-118605014D01*
X142679538Y-118633102D01*
X142675786Y-118665484D01*
X142669044Y-118697392D01*
X142668668Y-118726902D01*
X142665272Y-118756209D01*
X142667881Y-118788710D01*
X142667466Y-118821313D01*
X142672828Y-118850328D01*
X142675189Y-118879741D01*
X142684061Y-118911115D01*
X142689986Y-118943179D01*
X142700881Y-118970598D01*
X142708911Y-118998995D01*
X142723712Y-119028055D01*
X142735750Y-119058351D01*
X142739867Y-119066203D01*
X142753647Y-119092043D01*
X142764924Y-119108971D01*
X142765156Y-119109427D01*
X142765623Y-119110020D01*
X142786655Y-119141593D01*
X142792508Y-119150523D01*
X142792572Y-119150876D01*
X142796116Y-119187021D01*
X142802115Y-119206889D01*
X142713746Y-119184977D01*
X142393081Y-119094681D01*
X142153528Y-119015049D01*
X142028574Y-118962162D01*
X142005791Y-118952347D01*
X141997446Y-118948029D01*
X141974915Y-118939046D01*
X141952627Y-118929445D01*
X141943671Y-118926590D01*
X141943125Y-118926372D01*
X141935881Y-118922837D01*
X141911891Y-118913920D01*
X141888107Y-118904438D01*
X141880692Y-118902296D01*
X141871823Y-118898287D01*
X141849524Y-118890739D01*
X141827444Y-118882532D01*
X141817715Y-118879968D01*
X141806618Y-118875414D01*
X141785921Y-118869210D01*
X141765452Y-118862281D01*
X141753710Y-118859554D01*
X141753364Y-118859450D01*
X141739002Y-118854290D01*
X141721157Y-118849795D01*
X141703529Y-118844511D01*
X141688551Y-118841583D01*
X141682569Y-118840076D01*
X141659687Y-118833607D01*
X141651748Y-118832184D01*
X141637879Y-118827415D01*
X141585484Y-118820306D01*
X141566669Y-118816934D01*
X141557869Y-118816236D01*
X141538294Y-118809728D01*
X141504455Y-118797490D01*
X141466510Y-118782710D01*
X141427718Y-118766603D01*
X141299262Y-118709340D01*
X141028943Y-118587794D01*
X140794564Y-118481833D01*
X140595144Y-118390961D01*
X140428795Y-118314339D01*
X140293729Y-118251159D01*
X140188875Y-118200990D01*
X140114713Y-118164256D01*
X139968938Y-118087246D01*
X139697148Y-117942443D01*
X139484393Y-117827541D01*
X139314955Y-117733428D01*
X139170821Y-117649797D01*
X139031768Y-117564967D01*
X138877673Y-117466958D01*
X138690314Y-117344801D01*
X138441312Y-117180934D01*
X138194039Y-117016206D01*
X137985610Y-116873978D01*
X137805759Y-116746793D01*
X137643028Y-116626354D01*
X137485384Y-116503817D01*
X137320732Y-116369982D01*
X137137753Y-116216089D01*
X136963046Y-116066014D01*
X136837060Y-115952113D01*
X136698542Y-115820897D01*
X136552544Y-115678053D01*
X136405490Y-115529530D01*
X136262433Y-115380457D01*
X136128745Y-115236369D01*
X136010561Y-115103788D01*
X135870693Y-114937800D01*
X135868055Y-114934069D01*
X135849036Y-114912099D01*
X135830281Y-114889842D01*
X135827003Y-114886648D01*
X135601333Y-114625967D01*
X135596568Y-114619549D01*
X135579328Y-114600548D01*
X135562525Y-114581138D01*
X135556722Y-114575633D01*
X135333657Y-114329781D01*
X135328163Y-114322769D01*
X135311053Y-114304868D01*
X135294424Y-114286540D01*
X135287824Y-114280565D01*
X135065373Y-114047826D01*
X135059315Y-114040520D01*
X135042146Y-114023525D01*
X135025442Y-114006048D01*
X135018238Y-113999858D01*
X134793058Y-113776954D01*
X134786676Y-113769685D01*
X134769161Y-113753299D01*
X134752111Y-113736421D01*
X134744601Y-113730322D01*
X134513412Y-113514030D01*
X134507000Y-113507119D01*
X134488827Y-113491029D01*
X134471144Y-113474486D01*
X134463677Y-113468763D01*
X134223178Y-113255837D01*
X134217058Y-113249569D01*
X134197994Y-113233540D01*
X134179353Y-113217036D01*
X134172259Y-113211902D01*
X133918892Y-112998869D01*
X133913107Y-112993217D01*
X133893120Y-112977200D01*
X133873563Y-112960756D01*
X133866908Y-112956194D01*
X133477453Y-112644089D01*
X132970196Y-112230225D01*
X132578503Y-111892431D01*
X132286664Y-111614693D01*
X132076413Y-111381162D01*
X131922930Y-111170242D01*
X131798462Y-110950565D01*
X131748202Y-110837839D01*
X131749616Y-110836424D01*
X131766216Y-110823824D01*
X131797239Y-110788820D01*
X131806396Y-110779666D01*
X131819538Y-110763658D01*
X131855713Y-110722841D01*
X131857769Y-110719323D01*
X131872088Y-110704860D01*
X131908348Y-110650003D01*
X131944817Y-110595445D01*
X131945502Y-110593791D01*
X131946492Y-110592294D01*
X131971357Y-110531407D01*
X131996478Y-110470793D01*
X131996828Y-110469037D01*
X131997506Y-110467376D01*
X132010012Y-110402825D01*
X132022828Y-110338458D01*
X132022834Y-110308509D01*
X132026027Y-110295475D01*
X132028248Y-110244950D01*
X132029811Y-110228227D01*
X132029727Y-110211318D01*
X132031953Y-110160672D01*
X132029390Y-110143989D01*
X132029306Y-110127106D01*
X132019166Y-110077427D01*
X132016600Y-110060722D01*
X132012436Y-110044456D01*
X132002321Y-109994898D01*
X131995741Y-109979234D01*
X131993426Y-109970190D01*
X131990642Y-109947313D01*
X131976734Y-109904982D01*
X131974069Y-109894570D01*
X131966237Y-109873033D01*
X131959078Y-109851242D01*
X131954735Y-109841401D01*
X131939511Y-109799535D01*
X131927563Y-109779832D01*
X131889189Y-109692880D01*
X131878170Y-109666822D01*
X131875622Y-109662139D01*
X131873470Y-109657262D01*
X131859566Y-109632626D01*
X131780328Y-109486972D01*
X131774177Y-109473975D01*
X131764256Y-109457430D01*
X131755040Y-109440490D01*
X131746967Y-109428598D01*
X131655751Y-109276483D01*
X131601421Y-109185832D01*
X131551735Y-109101521D01*
X131507894Y-109025739D01*
X131471578Y-108961500D01*
X131449189Y-108920604D01*
X131446350Y-108912966D01*
X131441405Y-108895747D01*
X131439638Y-108892320D01*
X131439510Y-108891848D01*
X131431391Y-108870506D01*
X131423947Y-108848914D01*
X131421751Y-108844127D01*
X131421256Y-108842433D01*
X131411102Y-108817179D01*
X131401421Y-108791732D01*
X131400338Y-108789555D01*
X131400068Y-108788676D01*
X131388891Y-108761935D01*
X131378080Y-108735047D01*
X131376707Y-108732413D01*
X131376089Y-108730473D01*
X131364245Y-108702971D01*
X131352682Y-108675308D01*
X131350931Y-108672057D01*
X131350538Y-108671144D01*
X131349482Y-108667940D01*
X131337206Y-108640189D01*
X131325250Y-108612427D01*
X131323625Y-108609486D01*
X131321627Y-108604969D01*
X131320500Y-108601663D01*
X131308012Y-108574192D01*
X131295815Y-108546618D01*
X131294097Y-108543580D01*
X131261429Y-108471715D01*
X131182342Y-108270203D01*
X131111584Y-108052715D01*
X131048060Y-107814411D01*
X130992154Y-107554406D01*
X130944236Y-107272101D01*
X130904579Y-106966880D01*
X130873411Y-106638395D01*
X130849782Y-106267677D01*
X130836239Y-105741370D01*
X130835533Y-105114447D01*
X130846805Y-104426487D01*
X130868911Y-103715810D01*
X130900608Y-103019882D01*
X130940531Y-102376740D01*
X130986960Y-101826340D01*
X131034258Y-101434790D01*
X131034451Y-101433910D01*
X131038271Y-101401571D01*
X131042219Y-101368887D01*
X131042239Y-101367977D01*
X131075127Y-101089546D01*
X131076627Y-101081871D01*
X131079072Y-101056153D01*
X131082103Y-101030491D01*
X131082255Y-101022670D01*
X131104625Y-100787342D01*
X131106560Y-100775105D01*
X131107805Y-100753896D01*
X131109819Y-100732708D01*
X131109777Y-100720301D01*
X131115194Y-100628000D01*
X131766928Y-100628000D01*
X131766928Y-106128000D01*
X131779188Y-106252482D01*
X131815498Y-106372180D01*
X131874463Y-106482494D01*
X131953815Y-106579185D01*
X132050506Y-106658537D01*
X132160820Y-106717502D01*
X132280518Y-106753812D01*
X132405000Y-106766072D01*
X134020000Y-106766072D01*
X134020000Y-108342248D01*
X134014509Y-108398000D01*
X134023435Y-108488627D01*
X134036423Y-108620498D01*
X134101324Y-108834446D01*
X134206716Y-109031623D01*
X134348551Y-109204449D01*
X134391865Y-109239996D01*
X136659009Y-111507141D01*
X136694551Y-111550449D01*
X136867377Y-111692284D01*
X137055762Y-111792977D01*
X137064553Y-111797676D01*
X137278501Y-111862577D01*
X137500999Y-111884491D01*
X137556751Y-111879000D01*
X158694249Y-111879000D01*
X158750000Y-111884491D01*
X158805751Y-111879000D01*
X158805752Y-111879000D01*
X158972499Y-111862577D01*
X159186447Y-111797676D01*
X159383623Y-111692284D01*
X159556449Y-111550449D01*
X159591996Y-111507135D01*
X161518141Y-109580991D01*
X161561449Y-109545449D01*
X161703284Y-109372623D01*
X161808676Y-109175447D01*
X161861084Y-109002682D01*
X161873577Y-108961500D01*
X161877121Y-108925520D01*
X161890000Y-108794752D01*
X161890000Y-108794745D01*
X161895490Y-108739001D01*
X161890000Y-108683257D01*
X161890000Y-106766072D01*
X163505000Y-106766072D01*
X163629482Y-106753812D01*
X163749180Y-106717502D01*
X163859494Y-106658537D01*
X163956185Y-106579185D01*
X164035537Y-106482494D01*
X164094502Y-106372180D01*
X164130812Y-106252482D01*
X164143072Y-106128000D01*
X164143072Y-100628000D01*
X164130812Y-100503518D01*
X164094502Y-100383820D01*
X164035537Y-100273506D01*
X163956185Y-100176815D01*
X163859494Y-100097463D01*
X163749180Y-100038498D01*
X163629482Y-100002188D01*
X163505000Y-99989928D01*
X158005000Y-99989928D01*
X157880518Y-100002188D01*
X157760820Y-100038498D01*
X157650506Y-100097463D01*
X157553815Y-100176815D01*
X157474463Y-100273506D01*
X157415498Y-100383820D01*
X157379188Y-100503518D01*
X157366928Y-100628000D01*
X157366928Y-106128000D01*
X157379188Y-106252482D01*
X157415498Y-106372180D01*
X157474463Y-106482494D01*
X157553815Y-106579185D01*
X157650506Y-106658537D01*
X157760820Y-106717502D01*
X157880518Y-106753812D01*
X158005000Y-106766072D01*
X159620000Y-106766072D01*
X159620000Y-108268868D01*
X158279869Y-109609000D01*
X137971132Y-109609000D01*
X136290000Y-107927869D01*
X136290000Y-106766072D01*
X137905000Y-106766072D01*
X138029482Y-106753812D01*
X138149180Y-106717502D01*
X138259494Y-106658537D01*
X138356185Y-106579185D01*
X138435537Y-106482494D01*
X138494502Y-106372180D01*
X138530812Y-106252482D01*
X138543072Y-106128000D01*
X138543072Y-105378000D01*
X145316928Y-105378000D01*
X145329188Y-105502482D01*
X145365498Y-105622180D01*
X145424463Y-105732494D01*
X145503815Y-105829185D01*
X145600506Y-105908537D01*
X145710820Y-105967502D01*
X145830518Y-106003812D01*
X145955000Y-106016072D01*
X147669250Y-106013000D01*
X147828000Y-105854250D01*
X147828000Y-103505000D01*
X148082000Y-103505000D01*
X148082000Y-105854250D01*
X148240750Y-106013000D01*
X149955000Y-106016072D01*
X150079482Y-106003812D01*
X150199180Y-105967502D01*
X150309494Y-105908537D01*
X150406185Y-105829185D01*
X150485537Y-105732494D01*
X150544502Y-105622180D01*
X150580812Y-105502482D01*
X150593072Y-105378000D01*
X150590000Y-103663750D01*
X150431250Y-103505000D01*
X148082000Y-103505000D01*
X147828000Y-103505000D01*
X145478750Y-103505000D01*
X145320000Y-103663750D01*
X145316928Y-105378000D01*
X138543072Y-105378000D01*
X138543072Y-101378000D01*
X145316928Y-101378000D01*
X145320000Y-103092250D01*
X145478750Y-103251000D01*
X147828000Y-103251000D01*
X147828000Y-100901750D01*
X148082000Y-100901750D01*
X148082000Y-103251000D01*
X150431250Y-103251000D01*
X150590000Y-103092250D01*
X150593072Y-101378000D01*
X150580812Y-101253518D01*
X150544502Y-101133820D01*
X150485537Y-101023506D01*
X150406185Y-100926815D01*
X150309494Y-100847463D01*
X150199180Y-100788498D01*
X150079482Y-100752188D01*
X149955000Y-100739928D01*
X148240750Y-100743000D01*
X148082000Y-100901750D01*
X147828000Y-100901750D01*
X147669250Y-100743000D01*
X145955000Y-100739928D01*
X145830518Y-100752188D01*
X145710820Y-100788498D01*
X145600506Y-100847463D01*
X145503815Y-100926815D01*
X145424463Y-101023506D01*
X145365498Y-101133820D01*
X145329188Y-101253518D01*
X145316928Y-101378000D01*
X138543072Y-101378000D01*
X138543072Y-100628000D01*
X138530812Y-100503518D01*
X138494502Y-100383820D01*
X138435537Y-100273506D01*
X138356185Y-100176815D01*
X138259494Y-100097463D01*
X138149180Y-100038498D01*
X138029482Y-100002188D01*
X137905000Y-99989928D01*
X135755000Y-99989928D01*
X135755000Y-93478320D01*
X135783462Y-93454962D01*
X135893905Y-93320386D01*
X135975972Y-93166850D01*
X136026508Y-93000254D01*
X136043572Y-92827000D01*
X136043572Y-91577000D01*
X136026508Y-91403746D01*
X135975972Y-91237150D01*
X135893905Y-91083614D01*
X135783462Y-90949038D01*
X135648886Y-90838595D01*
X135495350Y-90756528D01*
X135328754Y-90705992D01*
X135155500Y-90688928D01*
X134230500Y-90688928D01*
X134057246Y-90705992D01*
X133890650Y-90756528D01*
X133737114Y-90838595D01*
X133602538Y-90949038D01*
X133492095Y-91083614D01*
X133410028Y-91237150D01*
X133359492Y-91403746D01*
X133342428Y-91577000D01*
X133342428Y-92827000D01*
X133359492Y-93000254D01*
X133410028Y-93166850D01*
X133485001Y-93307114D01*
X133485000Y-99989928D01*
X132405000Y-99989928D01*
X132280518Y-100002188D01*
X132160820Y-100038498D01*
X132050506Y-100097463D01*
X131953815Y-100176815D01*
X131874463Y-100273506D01*
X131815498Y-100383820D01*
X131779188Y-100503518D01*
X131766928Y-100628000D01*
X131115194Y-100628000D01*
X131121493Y-100520681D01*
X131123404Y-100502028D01*
X131123462Y-100487132D01*
X131124336Y-100472247D01*
X131123594Y-100453497D01*
X131124281Y-100278173D01*
X131124928Y-100251519D01*
X131124413Y-100244559D01*
X131124440Y-100237582D01*
X131121931Y-100211045D01*
X131115009Y-100117559D01*
X131115144Y-100116431D01*
X131110040Y-100050443D01*
X131107627Y-100017861D01*
X131107433Y-100016743D01*
X131107345Y-100015610D01*
X131101645Y-99983445D01*
X131090311Y-99918232D01*
X131089902Y-99917172D01*
X131086677Y-99898975D01*
X131086697Y-99892852D01*
X131074924Y-99832648D01*
X131070105Y-99805453D01*
X131068458Y-99799584D01*
X131067290Y-99793610D01*
X131059367Y-99767184D01*
X131042786Y-99708091D01*
X131040012Y-99702629D01*
X131037282Y-99693523D01*
X131036921Y-99690094D01*
X131017901Y-99628880D01*
X131009233Y-99599969D01*
X131007933Y-99596802D01*
X131006915Y-99593525D01*
X130995127Y-99565600D01*
X130970838Y-99506419D01*
X130968934Y-99503550D01*
X130957750Y-99477055D01*
X130946771Y-99445262D01*
X130936594Y-99403788D01*
X130924854Y-99333840D01*
X130913594Y-99231970D01*
X130904194Y-99096326D01*
X130897298Y-98925367D01*
X130893062Y-98717342D01*
X130891277Y-98445865D01*
X130900282Y-98128914D01*
X130921978Y-97834986D01*
X130956393Y-97559605D01*
X131003579Y-97299591D01*
X131063796Y-97051486D01*
X131137617Y-96811543D01*
X131223931Y-96581363D01*
X131312032Y-96391039D01*
X131363829Y-96295509D01*
X131364452Y-96294583D01*
X131379842Y-96265978D01*
X131395372Y-96237336D01*
X131395807Y-96236304D01*
X131448336Y-96138668D01*
X131508099Y-96027997D01*
X131561522Y-95930961D01*
X131611003Y-95844261D01*
X131659545Y-95763414D01*
X131710615Y-95683266D01*
X131779757Y-95581129D01*
X131879339Y-95444711D01*
X131978659Y-95318706D01*
X132072089Y-95209033D01*
X132151474Y-95123815D01*
X132172508Y-95103794D01*
X132209069Y-95091558D01*
X132231000Y-95079021D01*
X132254308Y-95069270D01*
X132289444Y-95045613D01*
X132326213Y-95024594D01*
X132345278Y-95008019D01*
X132366234Y-94993909D01*
X132396074Y-94963857D01*
X132428043Y-94936063D01*
X132443512Y-94916082D01*
X132461308Y-94898159D01*
X132484711Y-94862864D01*
X132510643Y-94829367D01*
X132521916Y-94806753D01*
X132535875Y-94785701D01*
X132551944Y-94746517D01*
X132570842Y-94708607D01*
X132586331Y-94651776D01*
X132628725Y-94510219D01*
X132639035Y-94486676D01*
X132648032Y-94445752D01*
X132650356Y-94437992D01*
X132655256Y-94412894D01*
X132660748Y-94387912D01*
X132661704Y-94379866D01*
X132669732Y-94338743D01*
X132669641Y-94313043D01*
X132701579Y-94044164D01*
X132704772Y-94023960D01*
X132705545Y-94010777D01*
X132707102Y-93997668D01*
X132707512Y-93977223D01*
X132730251Y-93589377D01*
X132731395Y-93580709D01*
X132732218Y-93555817D01*
X132733677Y-93530937D01*
X132733330Y-93522195D01*
X132747936Y-93080631D01*
X132748317Y-93077526D01*
X132749048Y-93047002D01*
X132750057Y-93016503D01*
X132749854Y-93013383D01*
X132761968Y-92507668D01*
X132776027Y-91967875D01*
X132795957Y-91459763D01*
X132826144Y-91013987D01*
X132864044Y-90653658D01*
X132910098Y-90389539D01*
X132957683Y-90232219D01*
X132980258Y-90190380D01*
X133054787Y-90178136D01*
X133196416Y-90179947D01*
X133212902Y-90180983D01*
X133230010Y-90180377D01*
X133247155Y-90180596D01*
X133263636Y-90179185D01*
X133300758Y-90177870D01*
X133314391Y-90178183D01*
X133334351Y-90176679D01*
X133354368Y-90175970D01*
X133367890Y-90174153D01*
X133398435Y-90171852D01*
X133412174Y-90171617D01*
X133431975Y-90169325D01*
X133451843Y-90167828D01*
X133465372Y-90165459D01*
X133494026Y-90162141D01*
X133511163Y-90160989D01*
X133527438Y-90158274D01*
X133543812Y-90156378D01*
X133560586Y-90152743D01*
X133589149Y-90147977D01*
X133609698Y-90145341D01*
X133622314Y-90142444D01*
X133635077Y-90140314D01*
X133655073Y-90134920D01*
X133691048Y-90126657D01*
X133722752Y-90119433D01*
X133723300Y-90119250D01*
X133723875Y-90119118D01*
X133751705Y-90109774D01*
X133775466Y-90105049D01*
X133815494Y-90088472D01*
X133824534Y-90085454D01*
X133846587Y-90075595D01*
X133868894Y-90066357D01*
X133877297Y-90061866D01*
X133916852Y-90044183D01*
X133923025Y-90039806D01*
X133935632Y-90034342D01*
X133946076Y-90027114D01*
X133965855Y-90024887D01*
X134028715Y-90004855D01*
X134150363Y-89966685D01*
X134176672Y-89958951D01*
X134182438Y-89956621D01*
X134188371Y-89954759D01*
X134213591Y-89944030D01*
X134386965Y-89873959D01*
X134398309Y-89870190D01*
X134418140Y-89861359D01*
X134438266Y-89853225D01*
X134448856Y-89847681D01*
X134655385Y-89755713D01*
X134662561Y-89753150D01*
X134686088Y-89742040D01*
X134709886Y-89731443D01*
X134716518Y-89727671D01*
X134950008Y-89617416D01*
X134955909Y-89615185D01*
X134980417Y-89603056D01*
X135005150Y-89591377D01*
X135010564Y-89588136D01*
X135255783Y-89466779D01*
X135261739Y-89464399D01*
X135285893Y-89451877D01*
X135310333Y-89439782D01*
X135315787Y-89436380D01*
X135555958Y-89311872D01*
X135563221Y-89308775D01*
X135585845Y-89296379D01*
X135608700Y-89284530D01*
X135615307Y-89280235D01*
X135833974Y-89160418D01*
X135843979Y-89155765D01*
X135863453Y-89144265D01*
X135883301Y-89133389D01*
X135892417Y-89127160D01*
X136010634Y-89057347D01*
X136010734Y-89057300D01*
X136038674Y-89040788D01*
X136068474Y-89023189D01*
X136068569Y-89023120D01*
X136100038Y-89004521D01*
X136161501Y-88969000D01*
X136224852Y-88933126D01*
X136287737Y-88898183D01*
X136347451Y-88865691D01*
X136401291Y-88837095D01*
X136445239Y-88814503D01*
X136534177Y-88771063D01*
X136563187Y-88757043D01*
X136564406Y-88756298D01*
X136565672Y-88755680D01*
X136592816Y-88738944D01*
X136727223Y-88656838D01*
X136730588Y-88655562D01*
X136784702Y-88621726D01*
X136810427Y-88606011D01*
X136813289Y-88603851D01*
X136816329Y-88601950D01*
X136840175Y-88583558D01*
X136891140Y-88545091D01*
X136893538Y-88542400D01*
X136971208Y-88482495D01*
X136972185Y-88482006D01*
X137024514Y-88441380D01*
X137050403Y-88421413D01*
X137051198Y-88420665D01*
X137052062Y-88419994D01*
X137075868Y-88397443D01*
X137124037Y-88352103D01*
X137124671Y-88351214D01*
X137246404Y-88235900D01*
X137269954Y-88213755D01*
X137270781Y-88212808D01*
X137271689Y-88211948D01*
X137292757Y-88187649D01*
X137449709Y-88007961D01*
X137469852Y-87985346D01*
X137471808Y-87982660D01*
X137473992Y-87980160D01*
X137491575Y-87955520D01*
X137556487Y-87866394D01*
X137936161Y-88408626D01*
X138049513Y-88540760D01*
X138057001Y-88546636D01*
X138057000Y-89232868D01*
X136904860Y-90385009D01*
X136861552Y-90420551D01*
X136719717Y-90593377D01*
X136614324Y-90790553D01*
X136559627Y-90970862D01*
X136467095Y-91083614D01*
X136385028Y-91237150D01*
X136334492Y-91403746D01*
X136317428Y-91577000D01*
X136317428Y-92827000D01*
X136334492Y-93000254D01*
X136385028Y-93166850D01*
X136467095Y-93320386D01*
X136577538Y-93454962D01*
X136712114Y-93565405D01*
X136865650Y-93647472D01*
X137032246Y-93698008D01*
X137205500Y-93715072D01*
X138130500Y-93715072D01*
X138303754Y-93698008D01*
X138470350Y-93647472D01*
X138623886Y-93565405D01*
X138758462Y-93454962D01*
X138868905Y-93320386D01*
X138950972Y-93166850D01*
X139001508Y-93000254D01*
X139018572Y-92827000D01*
X139018572Y-91577000D01*
X139010015Y-91490117D01*
X139955140Y-90544991D01*
X139998449Y-90509449D01*
X140140284Y-90336623D01*
X140245676Y-90139447D01*
X140310577Y-89925499D01*
X140327000Y-89758752D01*
X140327000Y-89758743D01*
X140332490Y-89703001D01*
X140327000Y-89647259D01*
X140327000Y-87829229D01*
X144693000Y-87829229D01*
X144693000Y-88446771D01*
X144813476Y-89052446D01*
X145049799Y-89622979D01*
X145392886Y-90136446D01*
X145829554Y-90573114D01*
X146343021Y-90916201D01*
X146913554Y-91152524D01*
X147519229Y-91273000D01*
X148136771Y-91273000D01*
X148742446Y-91152524D01*
X149312979Y-90916201D01*
X149826446Y-90573114D01*
X150263114Y-90136446D01*
X150606201Y-89622979D01*
X150842524Y-89052446D01*
X150963000Y-88446771D01*
X150963000Y-87829229D01*
X150842524Y-87223554D01*
X150606201Y-86653021D01*
X150263114Y-86139554D01*
X149826446Y-85702886D01*
X149312979Y-85359799D01*
X148742446Y-85123476D01*
X148136771Y-85003000D01*
X147519229Y-85003000D01*
X146913554Y-85123476D01*
X146343021Y-85359799D01*
X145829554Y-85702886D01*
X145392886Y-86139554D01*
X145049799Y-86653021D01*
X144813476Y-87223554D01*
X144693000Y-87829229D01*
X140327000Y-87829229D01*
X140327000Y-87685741D01*
X140332490Y-87629999D01*
X140327000Y-87574257D01*
X140327000Y-87574248D01*
X140325146Y-87555419D01*
X140963948Y-87172138D01*
X141053131Y-87178961D01*
X141177315Y-87163989D01*
X141296193Y-87125076D01*
X141405195Y-87063719D01*
X141753006Y-86816429D01*
X141791991Y-86595333D01*
X141089790Y-85592487D01*
X141073407Y-85603959D01*
X140963362Y-85446798D01*
X141297855Y-85446798D01*
X142000055Y-86449645D01*
X142221151Y-86488630D01*
X142572486Y-86246373D01*
X142667424Y-86164930D01*
X142744648Y-86066531D01*
X142801191Y-85954956D01*
X142834881Y-85834495D01*
X142844423Y-85709776D01*
X142829451Y-85585591D01*
X142790538Y-85466713D01*
X142729181Y-85357712D01*
X142388685Y-84876788D01*
X142167589Y-84837803D01*
X141297855Y-85446798D01*
X140963362Y-85446798D01*
X140927718Y-85395893D01*
X140944101Y-85384422D01*
X140932629Y-85368039D01*
X141140695Y-85222350D01*
X141152166Y-85238733D01*
X142021901Y-84629739D01*
X142060886Y-84408643D01*
X141785645Y-84011165D01*
X141788133Y-84009526D01*
X141792322Y-84006133D01*
X141904665Y-83929554D01*
X141920882Y-83919481D01*
X141932461Y-83910606D01*
X141944502Y-83902398D01*
X141959131Y-83890164D01*
X141996908Y-83861208D01*
X142004842Y-83855218D01*
X142012490Y-83849904D01*
X142029543Y-83838696D01*
X142052129Y-83824498D01*
X142077845Y-83808937D01*
X142104637Y-83793327D01*
X142109795Y-83790438D01*
X142112693Y-83789139D01*
X142139165Y-83773992D01*
X142165747Y-83759107D01*
X142168350Y-83757293D01*
X142228754Y-83722731D01*
X142237387Y-83718566D01*
X142257933Y-83706035D01*
X142278832Y-83694077D01*
X142286649Y-83688521D01*
X142480295Y-83570417D01*
X142488234Y-83566329D01*
X142508995Y-83552913D01*
X142530115Y-83540032D01*
X142537251Y-83534654D01*
X142713800Y-83420566D01*
X142722181Y-83415950D01*
X142742030Y-83402323D01*
X142762272Y-83389243D01*
X142769767Y-83383282D01*
X142931437Y-83272295D01*
X142940211Y-83267117D01*
X142959147Y-83253272D01*
X142978506Y-83239982D01*
X142986307Y-83233414D01*
X143134186Y-83125293D01*
X143143295Y-83119524D01*
X143161337Y-83105442D01*
X143179805Y-83091939D01*
X143187840Y-83084755D01*
X143322969Y-82979284D01*
X143332301Y-82972934D01*
X143349475Y-82958595D01*
X143367115Y-82944827D01*
X143375290Y-82937042D01*
X143498641Y-82834057D01*
X143508067Y-82827162D01*
X143524437Y-82812520D01*
X143541317Y-82798427D01*
X143549514Y-82790090D01*
X143661988Y-82689489D01*
X143671362Y-82682119D01*
X143687059Y-82667065D01*
X143703258Y-82652576D01*
X143711319Y-82643798D01*
X143813830Y-82545486D01*
X143823006Y-82537737D01*
X143838110Y-82522201D01*
X143853733Y-82507218D01*
X143861537Y-82498104D01*
X143954887Y-82402085D01*
X143963649Y-82394152D01*
X143978329Y-82377972D01*
X143993555Y-82362311D01*
X144000923Y-82353071D01*
X144025330Y-82326171D01*
X144038311Y-82362700D01*
M02*
