G04 #@! TF.GenerationSoftware,KiCad,Pcbnew,5.1.4-e60b266~84~ubuntu18.04.1*
G04 #@! TF.CreationDate,2019-11-05T13:07:08-07:00*
G04 #@! TF.ProjectId,001,3030312e-6b69-4636-9164-5f7063625858,rev?*
G04 #@! TF.SameCoordinates,Original*
G04 #@! TF.FileFunction,Paste,Bot*
G04 #@! TF.FilePolarity,Positive*
%FSLAX46Y46*%
G04 Gerber Fmt 4.6, Leading zero omitted, Abs format (unit mm)*
G04 Created by KiCad (PCBNEW 5.1.4-e60b266~84~ubuntu18.04.1) date 2019-11-05 13:07:08*
%MOMM*%
%LPD*%
G04 APERTURE LIST*
%ADD10R,5.347600X5.347600*%
%ADD11R,3.847600X3.847600*%
%ADD12C,0.100000*%
%ADD13C,1.272600*%
G04 APERTURE END LIST*
D10*
X135155000Y-103378000D03*
X160755000Y-103378000D03*
D11*
X147955000Y-103378000D03*
D12*
G36*
X141146235Y-84484637D02*
G01*
X141167973Y-84487378D01*
X141189338Y-84492237D01*
X141210123Y-84499166D01*
X141230129Y-84508100D01*
X141249163Y-84518951D01*
X141267042Y-84531616D01*
X141283593Y-84545972D01*
X141298658Y-84561881D01*
X141312090Y-84579191D01*
X141972319Y-85522096D01*
X141983991Y-85540638D01*
X141993788Y-85560236D01*
X142001618Y-85580699D01*
X142007404Y-85601831D01*
X142011091Y-85623429D01*
X142012643Y-85645284D01*
X142012045Y-85667185D01*
X142009304Y-85688923D01*
X142004445Y-85710288D01*
X141997516Y-85731073D01*
X141988582Y-85751079D01*
X141977731Y-85770113D01*
X141965066Y-85787992D01*
X141950710Y-85804543D01*
X141934801Y-85819608D01*
X141917491Y-85833040D01*
X141240810Y-86306857D01*
X141222268Y-86318529D01*
X141202670Y-86328326D01*
X141182207Y-86336156D01*
X141161075Y-86341942D01*
X141139477Y-86345629D01*
X141117622Y-86347181D01*
X141095721Y-86346583D01*
X141073983Y-86343842D01*
X141052618Y-86338983D01*
X141031833Y-86332054D01*
X141011827Y-86323120D01*
X140992793Y-86312269D01*
X140974914Y-86299604D01*
X140958363Y-86285248D01*
X140943298Y-86269339D01*
X140929866Y-86252029D01*
X140269637Y-85309124D01*
X140257965Y-85290582D01*
X140248168Y-85270984D01*
X140240338Y-85250521D01*
X140234552Y-85229389D01*
X140230865Y-85207791D01*
X140229313Y-85185936D01*
X140229911Y-85164035D01*
X140232652Y-85142297D01*
X140237511Y-85120932D01*
X140244440Y-85100147D01*
X140253374Y-85080141D01*
X140264225Y-85061107D01*
X140276890Y-85043228D01*
X140291246Y-85026677D01*
X140307155Y-85011612D01*
X140324465Y-84998180D01*
X141001146Y-84524363D01*
X141019688Y-84512691D01*
X141039286Y-84502894D01*
X141059749Y-84495064D01*
X141080881Y-84489278D01*
X141102479Y-84485591D01*
X141124334Y-84484039D01*
X141146235Y-84484637D01*
X141146235Y-84484637D01*
G37*
D13*
X141120978Y-85415610D03*
D12*
G36*
X138709257Y-86191027D02*
G01*
X138730995Y-86193768D01*
X138752360Y-86198627D01*
X138773145Y-86205556D01*
X138793151Y-86214490D01*
X138812185Y-86225341D01*
X138830064Y-86238006D01*
X138846615Y-86252362D01*
X138861680Y-86268271D01*
X138875112Y-86285581D01*
X139535341Y-87228486D01*
X139547013Y-87247028D01*
X139556810Y-87266626D01*
X139564640Y-87287089D01*
X139570426Y-87308221D01*
X139574113Y-87329819D01*
X139575665Y-87351674D01*
X139575067Y-87373575D01*
X139572326Y-87395313D01*
X139567467Y-87416678D01*
X139560538Y-87437463D01*
X139551604Y-87457469D01*
X139540753Y-87476503D01*
X139528088Y-87494382D01*
X139513732Y-87510933D01*
X139497823Y-87525998D01*
X139480513Y-87539430D01*
X138803832Y-88013247D01*
X138785290Y-88024919D01*
X138765692Y-88034716D01*
X138745229Y-88042546D01*
X138724097Y-88048332D01*
X138702499Y-88052019D01*
X138680644Y-88053571D01*
X138658743Y-88052973D01*
X138637005Y-88050232D01*
X138615640Y-88045373D01*
X138594855Y-88038444D01*
X138574849Y-88029510D01*
X138555815Y-88018659D01*
X138537936Y-88005994D01*
X138521385Y-87991638D01*
X138506320Y-87975729D01*
X138492888Y-87958419D01*
X137832659Y-87015514D01*
X137820987Y-86996972D01*
X137811190Y-86977374D01*
X137803360Y-86956911D01*
X137797574Y-86935779D01*
X137793887Y-86914181D01*
X137792335Y-86892326D01*
X137792933Y-86870425D01*
X137795674Y-86848687D01*
X137800533Y-86827322D01*
X137807462Y-86806537D01*
X137816396Y-86786531D01*
X137827247Y-86767497D01*
X137839912Y-86749618D01*
X137854268Y-86733067D01*
X137870177Y-86718002D01*
X137887487Y-86704570D01*
X138564168Y-86230753D01*
X138582710Y-86219081D01*
X138602308Y-86209284D01*
X138622771Y-86201454D01*
X138643903Y-86195668D01*
X138665501Y-86191981D01*
X138687356Y-86190429D01*
X138709257Y-86191027D01*
X138709257Y-86191027D01*
G37*
D13*
X138684000Y-87122000D03*
D12*
G36*
X135127921Y-91404275D02*
G01*
X135149593Y-91407490D01*
X135170847Y-91412814D01*
X135191476Y-91420195D01*
X135211282Y-91429563D01*
X135230075Y-91440827D01*
X135247674Y-91453878D01*
X135263908Y-91468592D01*
X135278622Y-91484826D01*
X135291673Y-91502425D01*
X135302937Y-91521218D01*
X135312305Y-91541024D01*
X135319686Y-91561653D01*
X135325010Y-91582907D01*
X135328225Y-91604579D01*
X135329300Y-91626463D01*
X135329300Y-92777537D01*
X135328225Y-92799421D01*
X135325010Y-92821093D01*
X135319686Y-92842347D01*
X135312305Y-92862976D01*
X135302937Y-92882782D01*
X135291673Y-92901575D01*
X135278622Y-92919174D01*
X135263908Y-92935408D01*
X135247674Y-92950122D01*
X135230075Y-92963173D01*
X135211282Y-92974437D01*
X135191476Y-92983805D01*
X135170847Y-92991186D01*
X135149593Y-92996510D01*
X135127921Y-92999725D01*
X135106037Y-93000800D01*
X134279963Y-93000800D01*
X134258079Y-92999725D01*
X134236407Y-92996510D01*
X134215153Y-92991186D01*
X134194524Y-92983805D01*
X134174718Y-92974437D01*
X134155925Y-92963173D01*
X134138326Y-92950122D01*
X134122092Y-92935408D01*
X134107378Y-92919174D01*
X134094327Y-92901575D01*
X134083063Y-92882782D01*
X134073695Y-92862976D01*
X134066314Y-92842347D01*
X134060990Y-92821093D01*
X134057775Y-92799421D01*
X134056700Y-92777537D01*
X134056700Y-91626463D01*
X134057775Y-91604579D01*
X134060990Y-91582907D01*
X134066314Y-91561653D01*
X134073695Y-91541024D01*
X134083063Y-91521218D01*
X134094327Y-91502425D01*
X134107378Y-91484826D01*
X134122092Y-91468592D01*
X134138326Y-91453878D01*
X134155925Y-91440827D01*
X134174718Y-91429563D01*
X134194524Y-91420195D01*
X134215153Y-91412814D01*
X134236407Y-91407490D01*
X134258079Y-91404275D01*
X134279963Y-91403200D01*
X135106037Y-91403200D01*
X135127921Y-91404275D01*
X135127921Y-91404275D01*
G37*
D13*
X134693000Y-92202000D03*
D12*
G36*
X138102921Y-91404275D02*
G01*
X138124593Y-91407490D01*
X138145847Y-91412814D01*
X138166476Y-91420195D01*
X138186282Y-91429563D01*
X138205075Y-91440827D01*
X138222674Y-91453878D01*
X138238908Y-91468592D01*
X138253622Y-91484826D01*
X138266673Y-91502425D01*
X138277937Y-91521218D01*
X138287305Y-91541024D01*
X138294686Y-91561653D01*
X138300010Y-91582907D01*
X138303225Y-91604579D01*
X138304300Y-91626463D01*
X138304300Y-92777537D01*
X138303225Y-92799421D01*
X138300010Y-92821093D01*
X138294686Y-92842347D01*
X138287305Y-92862976D01*
X138277937Y-92882782D01*
X138266673Y-92901575D01*
X138253622Y-92919174D01*
X138238908Y-92935408D01*
X138222674Y-92950122D01*
X138205075Y-92963173D01*
X138186282Y-92974437D01*
X138166476Y-92983805D01*
X138145847Y-92991186D01*
X138124593Y-92996510D01*
X138102921Y-92999725D01*
X138081037Y-93000800D01*
X137254963Y-93000800D01*
X137233079Y-92999725D01*
X137211407Y-92996510D01*
X137190153Y-92991186D01*
X137169524Y-92983805D01*
X137149718Y-92974437D01*
X137130925Y-92963173D01*
X137113326Y-92950122D01*
X137097092Y-92935408D01*
X137082378Y-92919174D01*
X137069327Y-92901575D01*
X137058063Y-92882782D01*
X137048695Y-92862976D01*
X137041314Y-92842347D01*
X137035990Y-92821093D01*
X137032775Y-92799421D01*
X137031700Y-92777537D01*
X137031700Y-91626463D01*
X137032775Y-91604579D01*
X137035990Y-91582907D01*
X137041314Y-91561653D01*
X137048695Y-91541024D01*
X137058063Y-91521218D01*
X137069327Y-91502425D01*
X137082378Y-91484826D01*
X137097092Y-91468592D01*
X137113326Y-91453878D01*
X137130925Y-91440827D01*
X137149718Y-91429563D01*
X137169524Y-91420195D01*
X137190153Y-91412814D01*
X137211407Y-91407490D01*
X137233079Y-91404275D01*
X137254963Y-91403200D01*
X138081037Y-91403200D01*
X138102921Y-91404275D01*
X138102921Y-91404275D01*
G37*
D13*
X137668000Y-92202000D03*
M02*
