G04 #@! TF.GenerationSoftware,KiCad,Pcbnew,5.1.4-e60b266~84~ubuntu18.04.1*
G04 #@! TF.CreationDate,2019-09-14T19:57:04-06:00*
G04 #@! TF.ProjectId,001,3030312e-6b69-4636-9164-5f7063625858,1*
G04 #@! TF.SameCoordinates,Original*
G04 #@! TF.FileFunction,Paste,Bot*
G04 #@! TF.FilePolarity,Positive*
%FSLAX46Y46*%
G04 Gerber Fmt 4.6, Leading zero omitted, Abs format (unit mm)*
G04 Created by KiCad (PCBNEW 5.1.4-e60b266~84~ubuntu18.04.1) date 2019-09-14 19:57:04*
%MOMM*%
%LPD*%
G04 APERTURE LIST*
%ADD10R,3.960000X3.960000*%
%ADD11R,2.540000X3.170000*%
%ADD12C,0.152400*%
%ADD13C,1.150000*%
%ADD14C,5.000000*%
G04 APERTURE END LIST*
D10*
X124561600Y-98526600D03*
D11*
X116941600Y-98526600D03*
X132181600Y-98526600D03*
D12*
G36*
X139372705Y-61429604D02*
G01*
X139396973Y-61433204D01*
X139420772Y-61439165D01*
X139443871Y-61447430D01*
X139466050Y-61457920D01*
X139487093Y-61470532D01*
X139506799Y-61485147D01*
X139524977Y-61501623D01*
X139541453Y-61519801D01*
X139556068Y-61539507D01*
X139568680Y-61560550D01*
X139579170Y-61582729D01*
X139587435Y-61605828D01*
X139593396Y-61629627D01*
X139596996Y-61653895D01*
X139598200Y-61678399D01*
X139598200Y-62578401D01*
X139596996Y-62602905D01*
X139593396Y-62627173D01*
X139587435Y-62650972D01*
X139579170Y-62674071D01*
X139568680Y-62696250D01*
X139556068Y-62717293D01*
X139541453Y-62736999D01*
X139524977Y-62755177D01*
X139506799Y-62771653D01*
X139487093Y-62786268D01*
X139466050Y-62798880D01*
X139443871Y-62809370D01*
X139420772Y-62817635D01*
X139396973Y-62823596D01*
X139372705Y-62827196D01*
X139348201Y-62828400D01*
X138698199Y-62828400D01*
X138673695Y-62827196D01*
X138649427Y-62823596D01*
X138625628Y-62817635D01*
X138602529Y-62809370D01*
X138580350Y-62798880D01*
X138559307Y-62786268D01*
X138539601Y-62771653D01*
X138521423Y-62755177D01*
X138504947Y-62736999D01*
X138490332Y-62717293D01*
X138477720Y-62696250D01*
X138467230Y-62674071D01*
X138458965Y-62650972D01*
X138453004Y-62627173D01*
X138449404Y-62602905D01*
X138448200Y-62578401D01*
X138448200Y-61678399D01*
X138449404Y-61653895D01*
X138453004Y-61629627D01*
X138458965Y-61605828D01*
X138467230Y-61582729D01*
X138477720Y-61560550D01*
X138490332Y-61539507D01*
X138504947Y-61519801D01*
X138521423Y-61501623D01*
X138539601Y-61485147D01*
X138559307Y-61470532D01*
X138580350Y-61457920D01*
X138602529Y-61447430D01*
X138625628Y-61439165D01*
X138649427Y-61433204D01*
X138673695Y-61429604D01*
X138698199Y-61428400D01*
X139348201Y-61428400D01*
X139372705Y-61429604D01*
X139372705Y-61429604D01*
G37*
D13*
X139023200Y-62128400D03*
D12*
G36*
X137322705Y-61429604D02*
G01*
X137346973Y-61433204D01*
X137370772Y-61439165D01*
X137393871Y-61447430D01*
X137416050Y-61457920D01*
X137437093Y-61470532D01*
X137456799Y-61485147D01*
X137474977Y-61501623D01*
X137491453Y-61519801D01*
X137506068Y-61539507D01*
X137518680Y-61560550D01*
X137529170Y-61582729D01*
X137537435Y-61605828D01*
X137543396Y-61629627D01*
X137546996Y-61653895D01*
X137548200Y-61678399D01*
X137548200Y-62578401D01*
X137546996Y-62602905D01*
X137543396Y-62627173D01*
X137537435Y-62650972D01*
X137529170Y-62674071D01*
X137518680Y-62696250D01*
X137506068Y-62717293D01*
X137491453Y-62736999D01*
X137474977Y-62755177D01*
X137456799Y-62771653D01*
X137437093Y-62786268D01*
X137416050Y-62798880D01*
X137393871Y-62809370D01*
X137370772Y-62817635D01*
X137346973Y-62823596D01*
X137322705Y-62827196D01*
X137298201Y-62828400D01*
X136648199Y-62828400D01*
X136623695Y-62827196D01*
X136599427Y-62823596D01*
X136575628Y-62817635D01*
X136552529Y-62809370D01*
X136530350Y-62798880D01*
X136509307Y-62786268D01*
X136489601Y-62771653D01*
X136471423Y-62755177D01*
X136454947Y-62736999D01*
X136440332Y-62717293D01*
X136427720Y-62696250D01*
X136417230Y-62674071D01*
X136408965Y-62650972D01*
X136403004Y-62627173D01*
X136399404Y-62602905D01*
X136398200Y-62578401D01*
X136398200Y-61678399D01*
X136399404Y-61653895D01*
X136403004Y-61629627D01*
X136408965Y-61605828D01*
X136417230Y-61582729D01*
X136427720Y-61560550D01*
X136440332Y-61539507D01*
X136454947Y-61519801D01*
X136471423Y-61501623D01*
X136489601Y-61485147D01*
X136509307Y-61470532D01*
X136530350Y-61457920D01*
X136552529Y-61447430D01*
X136575628Y-61439165D01*
X136599427Y-61433204D01*
X136623695Y-61429604D01*
X136648199Y-61428400D01*
X137298201Y-61428400D01*
X137322705Y-61429604D01*
X137322705Y-61429604D01*
G37*
D13*
X136973200Y-62128400D03*
D12*
G36*
X137525905Y-77965004D02*
G01*
X137550173Y-77968604D01*
X137573972Y-77974565D01*
X137597071Y-77982830D01*
X137619250Y-77993320D01*
X137640293Y-78005932D01*
X137659999Y-78020547D01*
X137678177Y-78037023D01*
X137694653Y-78055201D01*
X137709268Y-78074907D01*
X137721880Y-78095950D01*
X137732370Y-78118129D01*
X137740635Y-78141228D01*
X137746596Y-78165027D01*
X137750196Y-78189295D01*
X137751400Y-78213799D01*
X137751400Y-79113801D01*
X137750196Y-79138305D01*
X137746596Y-79162573D01*
X137740635Y-79186372D01*
X137732370Y-79209471D01*
X137721880Y-79231650D01*
X137709268Y-79252693D01*
X137694653Y-79272399D01*
X137678177Y-79290577D01*
X137659999Y-79307053D01*
X137640293Y-79321668D01*
X137619250Y-79334280D01*
X137597071Y-79344770D01*
X137573972Y-79353035D01*
X137550173Y-79358996D01*
X137525905Y-79362596D01*
X137501401Y-79363800D01*
X136851399Y-79363800D01*
X136826895Y-79362596D01*
X136802627Y-79358996D01*
X136778828Y-79353035D01*
X136755729Y-79344770D01*
X136733550Y-79334280D01*
X136712507Y-79321668D01*
X136692801Y-79307053D01*
X136674623Y-79290577D01*
X136658147Y-79272399D01*
X136643532Y-79252693D01*
X136630920Y-79231650D01*
X136620430Y-79209471D01*
X136612165Y-79186372D01*
X136606204Y-79162573D01*
X136602604Y-79138305D01*
X136601400Y-79113801D01*
X136601400Y-78213799D01*
X136602604Y-78189295D01*
X136606204Y-78165027D01*
X136612165Y-78141228D01*
X136620430Y-78118129D01*
X136630920Y-78095950D01*
X136643532Y-78074907D01*
X136658147Y-78055201D01*
X136674623Y-78037023D01*
X136692801Y-78020547D01*
X136712507Y-78005932D01*
X136733550Y-77993320D01*
X136755729Y-77982830D01*
X136778828Y-77974565D01*
X136802627Y-77968604D01*
X136826895Y-77965004D01*
X136851399Y-77963800D01*
X137501401Y-77963800D01*
X137525905Y-77965004D01*
X137525905Y-77965004D01*
G37*
D13*
X137176400Y-78663800D03*
D12*
G36*
X139575905Y-77965004D02*
G01*
X139600173Y-77968604D01*
X139623972Y-77974565D01*
X139647071Y-77982830D01*
X139669250Y-77993320D01*
X139690293Y-78005932D01*
X139709999Y-78020547D01*
X139728177Y-78037023D01*
X139744653Y-78055201D01*
X139759268Y-78074907D01*
X139771880Y-78095950D01*
X139782370Y-78118129D01*
X139790635Y-78141228D01*
X139796596Y-78165027D01*
X139800196Y-78189295D01*
X139801400Y-78213799D01*
X139801400Y-79113801D01*
X139800196Y-79138305D01*
X139796596Y-79162573D01*
X139790635Y-79186372D01*
X139782370Y-79209471D01*
X139771880Y-79231650D01*
X139759268Y-79252693D01*
X139744653Y-79272399D01*
X139728177Y-79290577D01*
X139709999Y-79307053D01*
X139690293Y-79321668D01*
X139669250Y-79334280D01*
X139647071Y-79344770D01*
X139623972Y-79353035D01*
X139600173Y-79358996D01*
X139575905Y-79362596D01*
X139551401Y-79363800D01*
X138901399Y-79363800D01*
X138876895Y-79362596D01*
X138852627Y-79358996D01*
X138828828Y-79353035D01*
X138805729Y-79344770D01*
X138783550Y-79334280D01*
X138762507Y-79321668D01*
X138742801Y-79307053D01*
X138724623Y-79290577D01*
X138708147Y-79272399D01*
X138693532Y-79252693D01*
X138680920Y-79231650D01*
X138670430Y-79209471D01*
X138662165Y-79186372D01*
X138656204Y-79162573D01*
X138652604Y-79138305D01*
X138651400Y-79113801D01*
X138651400Y-78213799D01*
X138652604Y-78189295D01*
X138656204Y-78165027D01*
X138662165Y-78141228D01*
X138670430Y-78118129D01*
X138680920Y-78095950D01*
X138693532Y-78074907D01*
X138708147Y-78055201D01*
X138724623Y-78037023D01*
X138742801Y-78020547D01*
X138762507Y-78005932D01*
X138783550Y-77993320D01*
X138805729Y-77982830D01*
X138828828Y-77974565D01*
X138852627Y-77968604D01*
X138876895Y-77965004D01*
X138901399Y-77963800D01*
X139551401Y-77963800D01*
X139575905Y-77965004D01*
X139575905Y-77965004D01*
G37*
D13*
X139226400Y-78663800D03*
D14*
X138074400Y-48488600D03*
M02*
