G04 #@! TF.GenerationSoftware,KiCad,Pcbnew,5.1.4-e60b266~84~ubuntu18.04.1*
G04 #@! TF.CreationDate,2019-09-14T19:57:04-06:00*
G04 #@! TF.ProjectId,001,3030312e-6b69-4636-9164-5f7063625858,1*
G04 #@! TF.SameCoordinates,Original*
G04 #@! TF.FileFunction,Legend,Top*
G04 #@! TF.FilePolarity,Positive*
%FSLAX46Y46*%
G04 Gerber Fmt 4.6, Leading zero omitted, Abs format (unit mm)*
G04 Created by KiCad (PCBNEW 5.1.4-e60b266~84~ubuntu18.04.1) date 2019-09-14 19:57:04*
%MOMM*%
%LPD*%
G04 APERTURE LIST*
%ADD10C,0.010000*%
G04 APERTURE END LIST*
D10*
G36*
X138346958Y-39200321D02*
G01*
X138393287Y-39217368D01*
X138396674Y-39219800D01*
X138421970Y-39247766D01*
X138469427Y-39308356D01*
X138537386Y-39399197D01*
X138624190Y-39517916D01*
X138728182Y-39662140D01*
X138847703Y-39829496D01*
X138981096Y-40017611D01*
X139126702Y-40224112D01*
X139282865Y-40446625D01*
X139447926Y-40682778D01*
X139620228Y-40930198D01*
X139798113Y-41186512D01*
X139979922Y-41449346D01*
X140163999Y-41716328D01*
X140348685Y-41985084D01*
X140532323Y-42253242D01*
X140713255Y-42518429D01*
X140889823Y-42778271D01*
X141060369Y-43030395D01*
X141106351Y-43098592D01*
X142241623Y-44813467D01*
X143362099Y-46565761D01*
X144466291Y-48352708D01*
X145552711Y-50171538D01*
X146619870Y-52019485D01*
X147666280Y-53893780D01*
X148690452Y-55791656D01*
X149690899Y-57710345D01*
X150666132Y-59647079D01*
X151614662Y-61599091D01*
X152535001Y-63563612D01*
X153425660Y-65537875D01*
X154285152Y-67519112D01*
X154457876Y-67927092D01*
X155379398Y-70164883D01*
X156268371Y-72428995D01*
X157124506Y-74718340D01*
X157947517Y-77031830D01*
X158737116Y-79368377D01*
X159493014Y-81726892D01*
X160214926Y-84106288D01*
X160902562Y-86505477D01*
X161555636Y-88923370D01*
X162173859Y-91358878D01*
X162756946Y-93810915D01*
X163304607Y-96278392D01*
X163816555Y-98760220D01*
X164292503Y-101255312D01*
X164732163Y-103762580D01*
X165135247Y-106280935D01*
X165501469Y-108809289D01*
X165740262Y-110620259D01*
X165868527Y-111656236D01*
X165988599Y-112671941D01*
X166101122Y-113674089D01*
X166206737Y-114669396D01*
X166306089Y-115664578D01*
X166399819Y-116666352D01*
X166488571Y-117681434D01*
X166572986Y-118716539D01*
X166653709Y-119778384D01*
X166731382Y-120873685D01*
X166755189Y-121224759D01*
X166793161Y-121798068D01*
X166827319Y-122329492D01*
X166857675Y-122819305D01*
X166884241Y-123267782D01*
X166907028Y-123675198D01*
X166926049Y-124041826D01*
X166941315Y-124367943D01*
X166952839Y-124653822D01*
X166960632Y-124899739D01*
X166964707Y-125105967D01*
X166965076Y-125272782D01*
X166961749Y-125400458D01*
X166954740Y-125489270D01*
X166944061Y-125539492D01*
X166943089Y-125541763D01*
X166919565Y-125577261D01*
X166882417Y-125592741D01*
X166830362Y-125595676D01*
X166755765Y-125586118D01*
X166703898Y-125553599D01*
X166698600Y-125548051D01*
X166665524Y-125503935D01*
X166613577Y-125423570D01*
X166543475Y-125308240D01*
X166455931Y-125159225D01*
X166351659Y-124977809D01*
X166231373Y-124765273D01*
X166095788Y-124522901D01*
X165945618Y-124251974D01*
X165781577Y-123953775D01*
X165604379Y-123629585D01*
X165414737Y-123280688D01*
X165213368Y-122908366D01*
X165000983Y-122513901D01*
X164797754Y-122134926D01*
X164040127Y-120728933D01*
X163273910Y-119325459D01*
X162500452Y-117926757D01*
X161721099Y-116535079D01*
X160937202Y-115152677D01*
X160150107Y-113781804D01*
X159361163Y-112424711D01*
X158571719Y-111083651D01*
X157783122Y-109760877D01*
X156996721Y-108458639D01*
X156213865Y-107179192D01*
X155435901Y-105924787D01*
X154664178Y-104697676D01*
X153900044Y-103500112D01*
X153144847Y-102334346D01*
X152399935Y-101202632D01*
X151666658Y-100107221D01*
X151201930Y-99423092D01*
X150937029Y-99036588D01*
X150693479Y-98683901D01*
X150469750Y-98363230D01*
X150264312Y-98072778D01*
X150075633Y-97810743D01*
X149902184Y-97575326D01*
X149742434Y-97364728D01*
X149594852Y-97177149D01*
X149457909Y-97010789D01*
X149330073Y-96863848D01*
X149209814Y-96734527D01*
X149095602Y-96621027D01*
X148985906Y-96521547D01*
X148879195Y-96434287D01*
X148773940Y-96357449D01*
X148668610Y-96289233D01*
X148561675Y-96227838D01*
X148451603Y-96171465D01*
X148426409Y-96159366D01*
X148230343Y-96071284D01*
X148056678Y-96005729D01*
X147893889Y-95959908D01*
X147730453Y-95931026D01*
X147554844Y-95916290D01*
X147409653Y-95912845D01*
X147249864Y-95914685D01*
X147107137Y-95922891D01*
X146968849Y-95939149D01*
X146822379Y-95965148D01*
X146655106Y-96002577D01*
X146556248Y-96026981D01*
X146273443Y-96107491D01*
X145971807Y-96211150D01*
X145650412Y-96338477D01*
X145308332Y-96489992D01*
X144944638Y-96666214D01*
X144558403Y-96867662D01*
X144148700Y-97094857D01*
X143714602Y-97348317D01*
X143255180Y-97628562D01*
X142769508Y-97936112D01*
X142256659Y-98271485D01*
X141715705Y-98635201D01*
X141145718Y-99027779D01*
X140932653Y-99176683D01*
X139572468Y-100152036D01*
X138227152Y-101159714D01*
X136894995Y-102201137D01*
X135574288Y-103277727D01*
X134263320Y-104390906D01*
X132960382Y-105542095D01*
X131663764Y-106732716D01*
X130412856Y-107924321D01*
X129535276Y-108785249D01*
X128654984Y-109669115D01*
X127771154Y-110576885D01*
X126882959Y-111509525D01*
X125989574Y-112467999D01*
X125090171Y-113453273D01*
X124183926Y-114466313D01*
X123270010Y-115508084D01*
X122347599Y-116579552D01*
X121415866Y-117681681D01*
X120473984Y-118815438D01*
X119521128Y-119981787D01*
X118556471Y-121181695D01*
X117579187Y-122416126D01*
X116588450Y-123686047D01*
X115583433Y-124992422D01*
X114563310Y-126336217D01*
X113903173Y-127214926D01*
X113712891Y-127469220D01*
X113545354Y-127693234D01*
X113397961Y-127890595D01*
X113268112Y-128064931D01*
X113153204Y-128219869D01*
X113050638Y-128359035D01*
X112957811Y-128486056D01*
X112872124Y-128604561D01*
X112790975Y-128718176D01*
X112711763Y-128830528D01*
X112631887Y-128945244D01*
X112548747Y-129065952D01*
X112459740Y-129196278D01*
X112362267Y-129339851D01*
X112253726Y-129500296D01*
X112131517Y-129681241D01*
X112081765Y-129754926D01*
X111891868Y-130035711D01*
X111723235Y-130283926D01*
X111573824Y-130502342D01*
X111441594Y-130693730D01*
X111324503Y-130860860D01*
X111220510Y-131006504D01*
X111127574Y-131133433D01*
X111043654Y-131244418D01*
X110966708Y-131342229D01*
X110894694Y-131429638D01*
X110825571Y-131509415D01*
X110757299Y-131584331D01*
X110687835Y-131657158D01*
X110657832Y-131687769D01*
X110509100Y-131830166D01*
X110375765Y-131939364D01*
X110252633Y-132019153D01*
X110134511Y-132073321D01*
X110124570Y-132076854D01*
X110011676Y-132106828D01*
X109913553Y-132109441D01*
X109812999Y-132085076D01*
X109809710Y-132083913D01*
X109706764Y-132029257D01*
X109620451Y-131943228D01*
X109548984Y-131823115D01*
X109490573Y-131666210D01*
X109461885Y-131556901D01*
X109451365Y-131504127D01*
X109443143Y-131443614D01*
X109436983Y-131369872D01*
X109432653Y-131277409D01*
X109429919Y-131160734D01*
X109428547Y-131014356D01*
X109428302Y-130832784D01*
X109428413Y-130770926D01*
X109429852Y-130577449D01*
X109433507Y-130390509D01*
X109439769Y-130206542D01*
X109449030Y-130021985D01*
X109461683Y-129833275D01*
X109478120Y-129636848D01*
X109498732Y-129429142D01*
X109523911Y-129206593D01*
X109554050Y-128965639D01*
X109589541Y-128702716D01*
X109630775Y-128414261D01*
X109678145Y-128096712D01*
X109732042Y-127746504D01*
X109792859Y-127360075D01*
X109827795Y-127140842D01*
X109876508Y-126836107D01*
X109919182Y-126568241D01*
X109956455Y-126332310D01*
X109988963Y-126123380D01*
X110017342Y-125936517D01*
X110042230Y-125766785D01*
X110064261Y-125609252D01*
X110084073Y-125458983D01*
X110102302Y-125311042D01*
X110119585Y-125160497D01*
X110136558Y-125002412D01*
X110153856Y-124831853D01*
X110172118Y-124643886D01*
X110191979Y-124433577D01*
X110214076Y-124195991D01*
X110230479Y-124018759D01*
X110259244Y-123721357D01*
X111914960Y-123721357D01*
X111915802Y-123753735D01*
X111919099Y-123770895D01*
X111923877Y-123775342D01*
X111939452Y-123759477D01*
X111977568Y-123714875D01*
X112034533Y-123646029D01*
X112106659Y-123557429D01*
X112190255Y-123453566D01*
X112258635Y-123367884D01*
X112427003Y-123154737D01*
X112618965Y-122909056D01*
X112834716Y-122630584D01*
X113074453Y-122319066D01*
X113338372Y-121974247D01*
X113626670Y-121595870D01*
X113939543Y-121183679D01*
X114156807Y-120896676D01*
X115341817Y-119347103D01*
X116522787Y-117837708D01*
X117701264Y-116366706D01*
X118878793Y-114932310D01*
X120056917Y-113532736D01*
X121237182Y-112166198D01*
X122421133Y-110830910D01*
X123610315Y-109525088D01*
X124806272Y-108246944D01*
X126010549Y-106994694D01*
X127224692Y-105766553D01*
X127389318Y-105602626D01*
X128430630Y-104580201D01*
X129458192Y-103596620D01*
X130473027Y-102651055D01*
X131476153Y-101742677D01*
X132468591Y-100870657D01*
X133451361Y-100034166D01*
X134425484Y-99232375D01*
X135391979Y-98464455D01*
X136351867Y-97729577D01*
X137306167Y-97026913D01*
X138255901Y-96355633D01*
X139202089Y-95714908D01*
X140145750Y-95103910D01*
X140847986Y-94667397D01*
X141382373Y-94347024D01*
X141889070Y-94055668D01*
X142370303Y-93792394D01*
X142828300Y-93556268D01*
X143265286Y-93346354D01*
X143683489Y-93161718D01*
X144085136Y-93001426D01*
X144472453Y-92864542D01*
X144847666Y-92750132D01*
X145213003Y-92657261D01*
X145570689Y-92584995D01*
X145922953Y-92532398D01*
X145938570Y-92530496D01*
X146069549Y-92518806D01*
X146230143Y-92510902D01*
X146410286Y-92506706D01*
X146599912Y-92506142D01*
X146788954Y-92509132D01*
X146967348Y-92515599D01*
X147125028Y-92525465D01*
X147251927Y-92538654D01*
X147266199Y-92540692D01*
X147506839Y-92583322D01*
X147738668Y-92639139D01*
X147963895Y-92709798D01*
X148184728Y-92796953D01*
X148403378Y-92902261D01*
X148622051Y-93027376D01*
X148842959Y-93173952D01*
X149068308Y-93343645D01*
X149300309Y-93538110D01*
X149541170Y-93759002D01*
X149793099Y-94007976D01*
X150058307Y-94286687D01*
X150339001Y-94596789D01*
X150637390Y-94939939D01*
X150927467Y-95283881D01*
X151321088Y-95764787D01*
X151731374Y-96282250D01*
X152157134Y-96834447D01*
X152597175Y-97419552D01*
X153050304Y-98035741D01*
X153515331Y-98681190D01*
X153991062Y-99354072D01*
X154476306Y-100052565D01*
X154969871Y-100774842D01*
X155470565Y-101519080D01*
X155977196Y-102283453D01*
X156488571Y-103066137D01*
X157003499Y-103865307D01*
X157520787Y-104679139D01*
X158039243Y-105505808D01*
X158557676Y-106343488D01*
X159074894Y-107190356D01*
X159589704Y-108044586D01*
X160100914Y-108904354D01*
X160607332Y-109767835D01*
X161107766Y-110633205D01*
X161601025Y-111498638D01*
X162085916Y-112362311D01*
X162094149Y-112377092D01*
X162280763Y-112711517D01*
X162453728Y-113020166D01*
X162612411Y-113301939D01*
X162756177Y-113555739D01*
X162884393Y-113780467D01*
X162996426Y-113975024D01*
X163091640Y-114138312D01*
X163169402Y-114269233D01*
X163229079Y-114366688D01*
X163270036Y-114429578D01*
X163291639Y-114456805D01*
X163294667Y-114457541D01*
X163293744Y-114435538D01*
X163288108Y-114379110D01*
X163278596Y-114295799D01*
X163266046Y-114193146D01*
X163259870Y-114144509D01*
X163252019Y-114080521D01*
X163239887Y-113977768D01*
X163223848Y-113839559D01*
X163204278Y-113669206D01*
X163181551Y-113470018D01*
X163156044Y-113245306D01*
X163128131Y-112998380D01*
X163098188Y-112732552D01*
X163066589Y-112451131D01*
X163033711Y-112157428D01*
X162999928Y-111854754D01*
X162977957Y-111657426D01*
X162917071Y-111112186D01*
X162859889Y-110604846D01*
X162805888Y-110131185D01*
X162754544Y-109686982D01*
X162705332Y-109268015D01*
X162657727Y-108870063D01*
X162611205Y-108488905D01*
X162565242Y-108120320D01*
X162519314Y-107760085D01*
X162472895Y-107403980D01*
X162425462Y-107047784D01*
X162376491Y-106687275D01*
X162325455Y-106318232D01*
X162271832Y-105936434D01*
X162235116Y-105677842D01*
X161872239Y-103263430D01*
X161471873Y-100847856D01*
X161034743Y-98434393D01*
X160561573Y-96026312D01*
X160053090Y-93626887D01*
X159510016Y-91239390D01*
X158933077Y-88867092D01*
X158322998Y-86513267D01*
X157680502Y-84181187D01*
X157006316Y-81874124D01*
X156846657Y-81346759D01*
X156774836Y-81111260D01*
X156709922Y-80898910D01*
X156650322Y-80704661D01*
X156594444Y-80523466D01*
X156540693Y-80350275D01*
X156487478Y-80180042D01*
X156433205Y-80007719D01*
X156376281Y-79828257D01*
X156315112Y-79636610D01*
X156248107Y-79427730D01*
X156173671Y-79196568D01*
X156090212Y-78938076D01*
X155996136Y-78647208D01*
X155938156Y-78468092D01*
X155307354Y-76566821D01*
X154644515Y-74659837D01*
X153952139Y-72753594D01*
X153232723Y-70854545D01*
X152488766Y-68969146D01*
X151722765Y-67103848D01*
X150937220Y-65265108D01*
X150134628Y-63459377D01*
X150092097Y-63365676D01*
X149452061Y-61979319D01*
X148792356Y-60593718D01*
X148116163Y-59215113D01*
X147426665Y-57849745D01*
X146727042Y-56503854D01*
X146020476Y-55183681D01*
X145310149Y-53895466D01*
X144842139Y-53068092D01*
X144529193Y-52522981D01*
X144223909Y-51996330D01*
X143924304Y-51485029D01*
X143628395Y-50985965D01*
X143334200Y-50496027D01*
X143039735Y-50012104D01*
X142743019Y-49531084D01*
X142442069Y-49049855D01*
X142134902Y-48565306D01*
X141819535Y-48074326D01*
X141493986Y-47573803D01*
X141156273Y-47060626D01*
X140804412Y-46531683D01*
X140436422Y-45983862D01*
X140050319Y-45414053D01*
X139644120Y-44819143D01*
X139215844Y-44196021D01*
X138869144Y-43694116D01*
X138730026Y-43494236D01*
X138609755Y-43327485D01*
X138504477Y-43193780D01*
X138410338Y-43093042D01*
X138323486Y-43025191D01*
X138240066Y-42990146D01*
X138156227Y-42987828D01*
X138068115Y-43018155D01*
X137971877Y-43081048D01*
X137863659Y-43176427D01*
X137739608Y-43304210D01*
X137595872Y-43464319D01*
X137428596Y-43656672D01*
X137422270Y-43663984D01*
X137207143Y-43917587D01*
X136972282Y-44203464D01*
X136720365Y-44517976D01*
X136454069Y-44857481D01*
X136176071Y-45218340D01*
X135889049Y-45596912D01*
X135595678Y-45989557D01*
X135298638Y-46392635D01*
X135000605Y-46802506D01*
X134704256Y-47215528D01*
X134412268Y-47628063D01*
X134127319Y-48036469D01*
X133852086Y-48437107D01*
X133589246Y-48826335D01*
X133341476Y-49200515D01*
X133270650Y-49309035D01*
X132544650Y-50446650D01*
X131836306Y-51599968D01*
X131143300Y-52773105D01*
X130463315Y-53970178D01*
X129794031Y-55195304D01*
X129133133Y-56452598D01*
X128478300Y-57746178D01*
X128186274Y-58338592D01*
X127442102Y-59894242D01*
X126711383Y-61489846D01*
X125994190Y-63125195D01*
X125290598Y-64800081D01*
X124600680Y-66514293D01*
X123924512Y-68267622D01*
X123262168Y-70059859D01*
X122613721Y-71890794D01*
X121979246Y-73760219D01*
X121358817Y-75667924D01*
X120752509Y-77613699D01*
X120160395Y-79597335D01*
X119582550Y-81618623D01*
X119019049Y-83677354D01*
X118508693Y-85622426D01*
X118460738Y-85809487D01*
X118415815Y-85985702D01*
X118375089Y-86146432D01*
X118339724Y-86287041D01*
X118310882Y-86402892D01*
X118289728Y-86489347D01*
X118277426Y-86541768D01*
X118274960Y-86553759D01*
X118267755Y-86587283D01*
X118251480Y-86657342D01*
X118227232Y-86759380D01*
X118196110Y-86888839D01*
X118159212Y-87041162D01*
X118117637Y-87211789D01*
X118072485Y-87396165D01*
X118042816Y-87516842D01*
X117420697Y-90104648D01*
X116831487Y-92680891D01*
X116276216Y-95241012D01*
X116000983Y-96565592D01*
X115808959Y-97511230D01*
X115622940Y-98442513D01*
X115442573Y-99361737D01*
X115267505Y-100271196D01*
X115097385Y-101173185D01*
X114931861Y-102069998D01*
X114770580Y-102963929D01*
X114613190Y-103857275D01*
X114459339Y-104752328D01*
X114308674Y-105651384D01*
X114160844Y-106556738D01*
X114015496Y-107470684D01*
X113872278Y-108395516D01*
X113730839Y-109333529D01*
X113590824Y-110287019D01*
X113451884Y-111258279D01*
X113313665Y-112249604D01*
X113175814Y-113263288D01*
X113037981Y-114301628D01*
X112899812Y-115366916D01*
X112760956Y-116461448D01*
X112621061Y-117587518D01*
X112479773Y-118747421D01*
X112336742Y-119943451D01*
X112191614Y-121177904D01*
X112093415Y-122024293D01*
X112056739Y-122342921D01*
X112024877Y-122621955D01*
X111997593Y-122863833D01*
X111974651Y-123070992D01*
X111955815Y-123245871D01*
X111940848Y-123390905D01*
X111929515Y-123508534D01*
X111921580Y-123601193D01*
X111916807Y-123671322D01*
X111914960Y-123721357D01*
X110259244Y-123721357D01*
X110494652Y-121287476D01*
X110778385Y-118593260D01*
X111081756Y-115935590D01*
X111404845Y-113313949D01*
X111747731Y-110727817D01*
X112110494Y-108176675D01*
X112493211Y-105660004D01*
X112895964Y-103177286D01*
X113318830Y-100728002D01*
X113761889Y-98311632D01*
X114225221Y-95927658D01*
X114708904Y-93575560D01*
X115213017Y-91254821D01*
X115267945Y-91009342D01*
X115329528Y-90736360D01*
X115395623Y-90446053D01*
X115465300Y-90142345D01*
X115537631Y-89829157D01*
X115611687Y-89510413D01*
X115686539Y-89190035D01*
X115761257Y-88871947D01*
X115834914Y-88560070D01*
X115906581Y-88258327D01*
X115975327Y-87970642D01*
X116040226Y-87700936D01*
X116100347Y-87453132D01*
X116154763Y-87231154D01*
X116202543Y-87038923D01*
X116242760Y-86880363D01*
X116272863Y-86765426D01*
X116293011Y-86689414D01*
X116321932Y-86579002D01*
X116357910Y-86440799D01*
X116399230Y-86281418D01*
X116444179Y-86107471D01*
X116491040Y-85925570D01*
X116528136Y-85781176D01*
X116882944Y-84415580D01*
X117236976Y-83088000D01*
X117591483Y-81794166D01*
X117947716Y-80529809D01*
X118306927Y-79290660D01*
X118670367Y-78072448D01*
X119039288Y-76870905D01*
X119414941Y-75681762D01*
X119798578Y-74500749D01*
X120101903Y-73589176D01*
X120799047Y-71561993D01*
X121515023Y-69572066D01*
X122250221Y-67618545D01*
X123005031Y-65700581D01*
X123779843Y-63817323D01*
X124575047Y-61967923D01*
X125391034Y-60151530D01*
X126228192Y-58367296D01*
X127086913Y-56614370D01*
X127967586Y-54891902D01*
X128870601Y-53199044D01*
X129796348Y-51534946D01*
X130745218Y-49898757D01*
X131714283Y-48295009D01*
X132015896Y-47810390D01*
X132333653Y-47308276D01*
X132664994Y-46792404D01*
X133007361Y-46266512D01*
X133358195Y-45734336D01*
X133714937Y-45199612D01*
X134075029Y-44666079D01*
X134435911Y-44137473D01*
X134795025Y-43617531D01*
X135149812Y-43109989D01*
X135497713Y-42618586D01*
X135836169Y-42147056D01*
X136162621Y-41699139D01*
X136474511Y-41278570D01*
X136769279Y-40889086D01*
X136914189Y-40701051D01*
X136991864Y-40600308D01*
X137059755Y-40511029D01*
X137113876Y-40438555D01*
X137150243Y-40388228D01*
X137164872Y-40365391D01*
X137164986Y-40364850D01*
X137178005Y-40342742D01*
X137214296Y-40293484D01*
X137269709Y-40222179D01*
X137340096Y-40133930D01*
X137421308Y-40033839D01*
X137509195Y-39927009D01*
X137599609Y-39818543D01*
X137688400Y-39713543D01*
X137771420Y-39617112D01*
X137793902Y-39591389D01*
X137915290Y-39456585D01*
X138015980Y-39353252D01*
X138099758Y-39278325D01*
X138170411Y-39228742D01*
X138231725Y-39201438D01*
X138285818Y-39193342D01*
X138346958Y-39200321D01*
X138346958Y-39200321D01*
G37*
X138346958Y-39200321D02*
X138393287Y-39217368D01*
X138396674Y-39219800D01*
X138421970Y-39247766D01*
X138469427Y-39308356D01*
X138537386Y-39399197D01*
X138624190Y-39517916D01*
X138728182Y-39662140D01*
X138847703Y-39829496D01*
X138981096Y-40017611D01*
X139126702Y-40224112D01*
X139282865Y-40446625D01*
X139447926Y-40682778D01*
X139620228Y-40930198D01*
X139798113Y-41186512D01*
X139979922Y-41449346D01*
X140163999Y-41716328D01*
X140348685Y-41985084D01*
X140532323Y-42253242D01*
X140713255Y-42518429D01*
X140889823Y-42778271D01*
X141060369Y-43030395D01*
X141106351Y-43098592D01*
X142241623Y-44813467D01*
X143362099Y-46565761D01*
X144466291Y-48352708D01*
X145552711Y-50171538D01*
X146619870Y-52019485D01*
X147666280Y-53893780D01*
X148690452Y-55791656D01*
X149690899Y-57710345D01*
X150666132Y-59647079D01*
X151614662Y-61599091D01*
X152535001Y-63563612D01*
X153425660Y-65537875D01*
X154285152Y-67519112D01*
X154457876Y-67927092D01*
X155379398Y-70164883D01*
X156268371Y-72428995D01*
X157124506Y-74718340D01*
X157947517Y-77031830D01*
X158737116Y-79368377D01*
X159493014Y-81726892D01*
X160214926Y-84106288D01*
X160902562Y-86505477D01*
X161555636Y-88923370D01*
X162173859Y-91358878D01*
X162756946Y-93810915D01*
X163304607Y-96278392D01*
X163816555Y-98760220D01*
X164292503Y-101255312D01*
X164732163Y-103762580D01*
X165135247Y-106280935D01*
X165501469Y-108809289D01*
X165740262Y-110620259D01*
X165868527Y-111656236D01*
X165988599Y-112671941D01*
X166101122Y-113674089D01*
X166206737Y-114669396D01*
X166306089Y-115664578D01*
X166399819Y-116666352D01*
X166488571Y-117681434D01*
X166572986Y-118716539D01*
X166653709Y-119778384D01*
X166731382Y-120873685D01*
X166755189Y-121224759D01*
X166793161Y-121798068D01*
X166827319Y-122329492D01*
X166857675Y-122819305D01*
X166884241Y-123267782D01*
X166907028Y-123675198D01*
X166926049Y-124041826D01*
X166941315Y-124367943D01*
X166952839Y-124653822D01*
X166960632Y-124899739D01*
X166964707Y-125105967D01*
X166965076Y-125272782D01*
X166961749Y-125400458D01*
X166954740Y-125489270D01*
X166944061Y-125539492D01*
X166943089Y-125541763D01*
X166919565Y-125577261D01*
X166882417Y-125592741D01*
X166830362Y-125595676D01*
X166755765Y-125586118D01*
X166703898Y-125553599D01*
X166698600Y-125548051D01*
X166665524Y-125503935D01*
X166613577Y-125423570D01*
X166543475Y-125308240D01*
X166455931Y-125159225D01*
X166351659Y-124977809D01*
X166231373Y-124765273D01*
X166095788Y-124522901D01*
X165945618Y-124251974D01*
X165781577Y-123953775D01*
X165604379Y-123629585D01*
X165414737Y-123280688D01*
X165213368Y-122908366D01*
X165000983Y-122513901D01*
X164797754Y-122134926D01*
X164040127Y-120728933D01*
X163273910Y-119325459D01*
X162500452Y-117926757D01*
X161721099Y-116535079D01*
X160937202Y-115152677D01*
X160150107Y-113781804D01*
X159361163Y-112424711D01*
X158571719Y-111083651D01*
X157783122Y-109760877D01*
X156996721Y-108458639D01*
X156213865Y-107179192D01*
X155435901Y-105924787D01*
X154664178Y-104697676D01*
X153900044Y-103500112D01*
X153144847Y-102334346D01*
X152399935Y-101202632D01*
X151666658Y-100107221D01*
X151201930Y-99423092D01*
X150937029Y-99036588D01*
X150693479Y-98683901D01*
X150469750Y-98363230D01*
X150264312Y-98072778D01*
X150075633Y-97810743D01*
X149902184Y-97575326D01*
X149742434Y-97364728D01*
X149594852Y-97177149D01*
X149457909Y-97010789D01*
X149330073Y-96863848D01*
X149209814Y-96734527D01*
X149095602Y-96621027D01*
X148985906Y-96521547D01*
X148879195Y-96434287D01*
X148773940Y-96357449D01*
X148668610Y-96289233D01*
X148561675Y-96227838D01*
X148451603Y-96171465D01*
X148426409Y-96159366D01*
X148230343Y-96071284D01*
X148056678Y-96005729D01*
X147893889Y-95959908D01*
X147730453Y-95931026D01*
X147554844Y-95916290D01*
X147409653Y-95912845D01*
X147249864Y-95914685D01*
X147107137Y-95922891D01*
X146968849Y-95939149D01*
X146822379Y-95965148D01*
X146655106Y-96002577D01*
X146556248Y-96026981D01*
X146273443Y-96107491D01*
X145971807Y-96211150D01*
X145650412Y-96338477D01*
X145308332Y-96489992D01*
X144944638Y-96666214D01*
X144558403Y-96867662D01*
X144148700Y-97094857D01*
X143714602Y-97348317D01*
X143255180Y-97628562D01*
X142769508Y-97936112D01*
X142256659Y-98271485D01*
X141715705Y-98635201D01*
X141145718Y-99027779D01*
X140932653Y-99176683D01*
X139572468Y-100152036D01*
X138227152Y-101159714D01*
X136894995Y-102201137D01*
X135574288Y-103277727D01*
X134263320Y-104390906D01*
X132960382Y-105542095D01*
X131663764Y-106732716D01*
X130412856Y-107924321D01*
X129535276Y-108785249D01*
X128654984Y-109669115D01*
X127771154Y-110576885D01*
X126882959Y-111509525D01*
X125989574Y-112467999D01*
X125090171Y-113453273D01*
X124183926Y-114466313D01*
X123270010Y-115508084D01*
X122347599Y-116579552D01*
X121415866Y-117681681D01*
X120473984Y-118815438D01*
X119521128Y-119981787D01*
X118556471Y-121181695D01*
X117579187Y-122416126D01*
X116588450Y-123686047D01*
X115583433Y-124992422D01*
X114563310Y-126336217D01*
X113903173Y-127214926D01*
X113712891Y-127469220D01*
X113545354Y-127693234D01*
X113397961Y-127890595D01*
X113268112Y-128064931D01*
X113153204Y-128219869D01*
X113050638Y-128359035D01*
X112957811Y-128486056D01*
X112872124Y-128604561D01*
X112790975Y-128718176D01*
X112711763Y-128830528D01*
X112631887Y-128945244D01*
X112548747Y-129065952D01*
X112459740Y-129196278D01*
X112362267Y-129339851D01*
X112253726Y-129500296D01*
X112131517Y-129681241D01*
X112081765Y-129754926D01*
X111891868Y-130035711D01*
X111723235Y-130283926D01*
X111573824Y-130502342D01*
X111441594Y-130693730D01*
X111324503Y-130860860D01*
X111220510Y-131006504D01*
X111127574Y-131133433D01*
X111043654Y-131244418D01*
X110966708Y-131342229D01*
X110894694Y-131429638D01*
X110825571Y-131509415D01*
X110757299Y-131584331D01*
X110687835Y-131657158D01*
X110657832Y-131687769D01*
X110509100Y-131830166D01*
X110375765Y-131939364D01*
X110252633Y-132019153D01*
X110134511Y-132073321D01*
X110124570Y-132076854D01*
X110011676Y-132106828D01*
X109913553Y-132109441D01*
X109812999Y-132085076D01*
X109809710Y-132083913D01*
X109706764Y-132029257D01*
X109620451Y-131943228D01*
X109548984Y-131823115D01*
X109490573Y-131666210D01*
X109461885Y-131556901D01*
X109451365Y-131504127D01*
X109443143Y-131443614D01*
X109436983Y-131369872D01*
X109432653Y-131277409D01*
X109429919Y-131160734D01*
X109428547Y-131014356D01*
X109428302Y-130832784D01*
X109428413Y-130770926D01*
X109429852Y-130577449D01*
X109433507Y-130390509D01*
X109439769Y-130206542D01*
X109449030Y-130021985D01*
X109461683Y-129833275D01*
X109478120Y-129636848D01*
X109498732Y-129429142D01*
X109523911Y-129206593D01*
X109554050Y-128965639D01*
X109589541Y-128702716D01*
X109630775Y-128414261D01*
X109678145Y-128096712D01*
X109732042Y-127746504D01*
X109792859Y-127360075D01*
X109827795Y-127140842D01*
X109876508Y-126836107D01*
X109919182Y-126568241D01*
X109956455Y-126332310D01*
X109988963Y-126123380D01*
X110017342Y-125936517D01*
X110042230Y-125766785D01*
X110064261Y-125609252D01*
X110084073Y-125458983D01*
X110102302Y-125311042D01*
X110119585Y-125160497D01*
X110136558Y-125002412D01*
X110153856Y-124831853D01*
X110172118Y-124643886D01*
X110191979Y-124433577D01*
X110214076Y-124195991D01*
X110230479Y-124018759D01*
X110259244Y-123721357D01*
X111914960Y-123721357D01*
X111915802Y-123753735D01*
X111919099Y-123770895D01*
X111923877Y-123775342D01*
X111939452Y-123759477D01*
X111977568Y-123714875D01*
X112034533Y-123646029D01*
X112106659Y-123557429D01*
X112190255Y-123453566D01*
X112258635Y-123367884D01*
X112427003Y-123154737D01*
X112618965Y-122909056D01*
X112834716Y-122630584D01*
X113074453Y-122319066D01*
X113338372Y-121974247D01*
X113626670Y-121595870D01*
X113939543Y-121183679D01*
X114156807Y-120896676D01*
X115341817Y-119347103D01*
X116522787Y-117837708D01*
X117701264Y-116366706D01*
X118878793Y-114932310D01*
X120056917Y-113532736D01*
X121237182Y-112166198D01*
X122421133Y-110830910D01*
X123610315Y-109525088D01*
X124806272Y-108246944D01*
X126010549Y-106994694D01*
X127224692Y-105766553D01*
X127389318Y-105602626D01*
X128430630Y-104580201D01*
X129458192Y-103596620D01*
X130473027Y-102651055D01*
X131476153Y-101742677D01*
X132468591Y-100870657D01*
X133451361Y-100034166D01*
X134425484Y-99232375D01*
X135391979Y-98464455D01*
X136351867Y-97729577D01*
X137306167Y-97026913D01*
X138255901Y-96355633D01*
X139202089Y-95714908D01*
X140145750Y-95103910D01*
X140847986Y-94667397D01*
X141382373Y-94347024D01*
X141889070Y-94055668D01*
X142370303Y-93792394D01*
X142828300Y-93556268D01*
X143265286Y-93346354D01*
X143683489Y-93161718D01*
X144085136Y-93001426D01*
X144472453Y-92864542D01*
X144847666Y-92750132D01*
X145213003Y-92657261D01*
X145570689Y-92584995D01*
X145922953Y-92532398D01*
X145938570Y-92530496D01*
X146069549Y-92518806D01*
X146230143Y-92510902D01*
X146410286Y-92506706D01*
X146599912Y-92506142D01*
X146788954Y-92509132D01*
X146967348Y-92515599D01*
X147125028Y-92525465D01*
X147251927Y-92538654D01*
X147266199Y-92540692D01*
X147506839Y-92583322D01*
X147738668Y-92639139D01*
X147963895Y-92709798D01*
X148184728Y-92796953D01*
X148403378Y-92902261D01*
X148622051Y-93027376D01*
X148842959Y-93173952D01*
X149068308Y-93343645D01*
X149300309Y-93538110D01*
X149541170Y-93759002D01*
X149793099Y-94007976D01*
X150058307Y-94286687D01*
X150339001Y-94596789D01*
X150637390Y-94939939D01*
X150927467Y-95283881D01*
X151321088Y-95764787D01*
X151731374Y-96282250D01*
X152157134Y-96834447D01*
X152597175Y-97419552D01*
X153050304Y-98035741D01*
X153515331Y-98681190D01*
X153991062Y-99354072D01*
X154476306Y-100052565D01*
X154969871Y-100774842D01*
X155470565Y-101519080D01*
X155977196Y-102283453D01*
X156488571Y-103066137D01*
X157003499Y-103865307D01*
X157520787Y-104679139D01*
X158039243Y-105505808D01*
X158557676Y-106343488D01*
X159074894Y-107190356D01*
X159589704Y-108044586D01*
X160100914Y-108904354D01*
X160607332Y-109767835D01*
X161107766Y-110633205D01*
X161601025Y-111498638D01*
X162085916Y-112362311D01*
X162094149Y-112377092D01*
X162280763Y-112711517D01*
X162453728Y-113020166D01*
X162612411Y-113301939D01*
X162756177Y-113555739D01*
X162884393Y-113780467D01*
X162996426Y-113975024D01*
X163091640Y-114138312D01*
X163169402Y-114269233D01*
X163229079Y-114366688D01*
X163270036Y-114429578D01*
X163291639Y-114456805D01*
X163294667Y-114457541D01*
X163293744Y-114435538D01*
X163288108Y-114379110D01*
X163278596Y-114295799D01*
X163266046Y-114193146D01*
X163259870Y-114144509D01*
X163252019Y-114080521D01*
X163239887Y-113977768D01*
X163223848Y-113839559D01*
X163204278Y-113669206D01*
X163181551Y-113470018D01*
X163156044Y-113245306D01*
X163128131Y-112998380D01*
X163098188Y-112732552D01*
X163066589Y-112451131D01*
X163033711Y-112157428D01*
X162999928Y-111854754D01*
X162977957Y-111657426D01*
X162917071Y-111112186D01*
X162859889Y-110604846D01*
X162805888Y-110131185D01*
X162754544Y-109686982D01*
X162705332Y-109268015D01*
X162657727Y-108870063D01*
X162611205Y-108488905D01*
X162565242Y-108120320D01*
X162519314Y-107760085D01*
X162472895Y-107403980D01*
X162425462Y-107047784D01*
X162376491Y-106687275D01*
X162325455Y-106318232D01*
X162271832Y-105936434D01*
X162235116Y-105677842D01*
X161872239Y-103263430D01*
X161471873Y-100847856D01*
X161034743Y-98434393D01*
X160561573Y-96026312D01*
X160053090Y-93626887D01*
X159510016Y-91239390D01*
X158933077Y-88867092D01*
X158322998Y-86513267D01*
X157680502Y-84181187D01*
X157006316Y-81874124D01*
X156846657Y-81346759D01*
X156774836Y-81111260D01*
X156709922Y-80898910D01*
X156650322Y-80704661D01*
X156594444Y-80523466D01*
X156540693Y-80350275D01*
X156487478Y-80180042D01*
X156433205Y-80007719D01*
X156376281Y-79828257D01*
X156315112Y-79636610D01*
X156248107Y-79427730D01*
X156173671Y-79196568D01*
X156090212Y-78938076D01*
X155996136Y-78647208D01*
X155938156Y-78468092D01*
X155307354Y-76566821D01*
X154644515Y-74659837D01*
X153952139Y-72753594D01*
X153232723Y-70854545D01*
X152488766Y-68969146D01*
X151722765Y-67103848D01*
X150937220Y-65265108D01*
X150134628Y-63459377D01*
X150092097Y-63365676D01*
X149452061Y-61979319D01*
X148792356Y-60593718D01*
X148116163Y-59215113D01*
X147426665Y-57849745D01*
X146727042Y-56503854D01*
X146020476Y-55183681D01*
X145310149Y-53895466D01*
X144842139Y-53068092D01*
X144529193Y-52522981D01*
X144223909Y-51996330D01*
X143924304Y-51485029D01*
X143628395Y-50985965D01*
X143334200Y-50496027D01*
X143039735Y-50012104D01*
X142743019Y-49531084D01*
X142442069Y-49049855D01*
X142134902Y-48565306D01*
X141819535Y-48074326D01*
X141493986Y-47573803D01*
X141156273Y-47060626D01*
X140804412Y-46531683D01*
X140436422Y-45983862D01*
X140050319Y-45414053D01*
X139644120Y-44819143D01*
X139215844Y-44196021D01*
X138869144Y-43694116D01*
X138730026Y-43494236D01*
X138609755Y-43327485D01*
X138504477Y-43193780D01*
X138410338Y-43093042D01*
X138323486Y-43025191D01*
X138240066Y-42990146D01*
X138156227Y-42987828D01*
X138068115Y-43018155D01*
X137971877Y-43081048D01*
X137863659Y-43176427D01*
X137739608Y-43304210D01*
X137595872Y-43464319D01*
X137428596Y-43656672D01*
X137422270Y-43663984D01*
X137207143Y-43917587D01*
X136972282Y-44203464D01*
X136720365Y-44517976D01*
X136454069Y-44857481D01*
X136176071Y-45218340D01*
X135889049Y-45596912D01*
X135595678Y-45989557D01*
X135298638Y-46392635D01*
X135000605Y-46802506D01*
X134704256Y-47215528D01*
X134412268Y-47628063D01*
X134127319Y-48036469D01*
X133852086Y-48437107D01*
X133589246Y-48826335D01*
X133341476Y-49200515D01*
X133270650Y-49309035D01*
X132544650Y-50446650D01*
X131836306Y-51599968D01*
X131143300Y-52773105D01*
X130463315Y-53970178D01*
X129794031Y-55195304D01*
X129133133Y-56452598D01*
X128478300Y-57746178D01*
X128186274Y-58338592D01*
X127442102Y-59894242D01*
X126711383Y-61489846D01*
X125994190Y-63125195D01*
X125290598Y-64800081D01*
X124600680Y-66514293D01*
X123924512Y-68267622D01*
X123262168Y-70059859D01*
X122613721Y-71890794D01*
X121979246Y-73760219D01*
X121358817Y-75667924D01*
X120752509Y-77613699D01*
X120160395Y-79597335D01*
X119582550Y-81618623D01*
X119019049Y-83677354D01*
X118508693Y-85622426D01*
X118460738Y-85809487D01*
X118415815Y-85985702D01*
X118375089Y-86146432D01*
X118339724Y-86287041D01*
X118310882Y-86402892D01*
X118289728Y-86489347D01*
X118277426Y-86541768D01*
X118274960Y-86553759D01*
X118267755Y-86587283D01*
X118251480Y-86657342D01*
X118227232Y-86759380D01*
X118196110Y-86888839D01*
X118159212Y-87041162D01*
X118117637Y-87211789D01*
X118072485Y-87396165D01*
X118042816Y-87516842D01*
X117420697Y-90104648D01*
X116831487Y-92680891D01*
X116276216Y-95241012D01*
X116000983Y-96565592D01*
X115808959Y-97511230D01*
X115622940Y-98442513D01*
X115442573Y-99361737D01*
X115267505Y-100271196D01*
X115097385Y-101173185D01*
X114931861Y-102069998D01*
X114770580Y-102963929D01*
X114613190Y-103857275D01*
X114459339Y-104752328D01*
X114308674Y-105651384D01*
X114160844Y-106556738D01*
X114015496Y-107470684D01*
X113872278Y-108395516D01*
X113730839Y-109333529D01*
X113590824Y-110287019D01*
X113451884Y-111258279D01*
X113313665Y-112249604D01*
X113175814Y-113263288D01*
X113037981Y-114301628D01*
X112899812Y-115366916D01*
X112760956Y-116461448D01*
X112621061Y-117587518D01*
X112479773Y-118747421D01*
X112336742Y-119943451D01*
X112191614Y-121177904D01*
X112093415Y-122024293D01*
X112056739Y-122342921D01*
X112024877Y-122621955D01*
X111997593Y-122863833D01*
X111974651Y-123070992D01*
X111955815Y-123245871D01*
X111940848Y-123390905D01*
X111929515Y-123508534D01*
X111921580Y-123601193D01*
X111916807Y-123671322D01*
X111914960Y-123721357D01*
X110259244Y-123721357D01*
X110494652Y-121287476D01*
X110778385Y-118593260D01*
X111081756Y-115935590D01*
X111404845Y-113313949D01*
X111747731Y-110727817D01*
X112110494Y-108176675D01*
X112493211Y-105660004D01*
X112895964Y-103177286D01*
X113318830Y-100728002D01*
X113761889Y-98311632D01*
X114225221Y-95927658D01*
X114708904Y-93575560D01*
X115213017Y-91254821D01*
X115267945Y-91009342D01*
X115329528Y-90736360D01*
X115395623Y-90446053D01*
X115465300Y-90142345D01*
X115537631Y-89829157D01*
X115611687Y-89510413D01*
X115686539Y-89190035D01*
X115761257Y-88871947D01*
X115834914Y-88560070D01*
X115906581Y-88258327D01*
X115975327Y-87970642D01*
X116040226Y-87700936D01*
X116100347Y-87453132D01*
X116154763Y-87231154D01*
X116202543Y-87038923D01*
X116242760Y-86880363D01*
X116272863Y-86765426D01*
X116293011Y-86689414D01*
X116321932Y-86579002D01*
X116357910Y-86440799D01*
X116399230Y-86281418D01*
X116444179Y-86107471D01*
X116491040Y-85925570D01*
X116528136Y-85781176D01*
X116882944Y-84415580D01*
X117236976Y-83088000D01*
X117591483Y-81794166D01*
X117947716Y-80529809D01*
X118306927Y-79290660D01*
X118670367Y-78072448D01*
X119039288Y-76870905D01*
X119414941Y-75681762D01*
X119798578Y-74500749D01*
X120101903Y-73589176D01*
X120799047Y-71561993D01*
X121515023Y-69572066D01*
X122250221Y-67618545D01*
X123005031Y-65700581D01*
X123779843Y-63817323D01*
X124575047Y-61967923D01*
X125391034Y-60151530D01*
X126228192Y-58367296D01*
X127086913Y-56614370D01*
X127967586Y-54891902D01*
X128870601Y-53199044D01*
X129796348Y-51534946D01*
X130745218Y-49898757D01*
X131714283Y-48295009D01*
X132015896Y-47810390D01*
X132333653Y-47308276D01*
X132664994Y-46792404D01*
X133007361Y-46266512D01*
X133358195Y-45734336D01*
X133714937Y-45199612D01*
X134075029Y-44666079D01*
X134435911Y-44137473D01*
X134795025Y-43617531D01*
X135149812Y-43109989D01*
X135497713Y-42618586D01*
X135836169Y-42147056D01*
X136162621Y-41699139D01*
X136474511Y-41278570D01*
X136769279Y-40889086D01*
X136914189Y-40701051D01*
X136991864Y-40600308D01*
X137059755Y-40511029D01*
X137113876Y-40438555D01*
X137150243Y-40388228D01*
X137164872Y-40365391D01*
X137164986Y-40364850D01*
X137178005Y-40342742D01*
X137214296Y-40293484D01*
X137269709Y-40222179D01*
X137340096Y-40133930D01*
X137421308Y-40033839D01*
X137509195Y-39927009D01*
X137599609Y-39818543D01*
X137688400Y-39713543D01*
X137771420Y-39617112D01*
X137793902Y-39591389D01*
X137915290Y-39456585D01*
X138015980Y-39353252D01*
X138099758Y-39278325D01*
X138170411Y-39228742D01*
X138231725Y-39201438D01*
X138285818Y-39193342D01*
X138346958Y-39200321D01*
%LPC*%
G36*
X138237331Y-42049516D02*
G01*
X138276110Y-42096624D01*
X138335167Y-42172809D01*
X138412487Y-42275277D01*
X138506055Y-42401238D01*
X138613855Y-42547901D01*
X138733873Y-42712473D01*
X138864094Y-42892163D01*
X139002502Y-43084180D01*
X139147083Y-43285732D01*
X139295821Y-43494028D01*
X139446701Y-43706276D01*
X139597708Y-43919684D01*
X139746828Y-44131462D01*
X139892045Y-44338818D01*
X140031343Y-44538960D01*
X140089255Y-44622592D01*
X141237312Y-46316044D01*
X142357539Y-48034818D01*
X143450624Y-49780135D01*
X144517257Y-51553215D01*
X145558127Y-53355280D01*
X146573924Y-55187550D01*
X147565336Y-57051245D01*
X148533054Y-58947586D01*
X149477766Y-60877794D01*
X150400162Y-62843090D01*
X150494212Y-63048176D01*
X151426896Y-65133734D01*
X152329890Y-67248847D01*
X153202925Y-69392627D01*
X154045729Y-71564185D01*
X154858031Y-73762635D01*
X155639559Y-75987088D01*
X156390044Y-78236657D01*
X157109212Y-80510455D01*
X157796795Y-82807593D01*
X158452519Y-85127184D01*
X159076115Y-87468340D01*
X159667311Y-89830174D01*
X160225836Y-92211798D01*
X160751419Y-94612324D01*
X161243789Y-97030865D01*
X161702675Y-99466532D01*
X161823899Y-100144527D01*
X162081457Y-101642388D01*
X162328901Y-103162775D01*
X162565224Y-104698271D01*
X162789416Y-106241455D01*
X163000468Y-107784909D01*
X163197372Y-109321214D01*
X163379119Y-110842950D01*
X163544700Y-112342698D01*
X163693105Y-113813040D01*
X163717579Y-114070426D01*
X163732302Y-114225547D01*
X163746252Y-114370299D01*
X163758797Y-114498275D01*
X163769301Y-114603071D01*
X163777132Y-114678281D01*
X163781550Y-114716738D01*
X163791694Y-114791550D01*
X163410186Y-114905192D01*
X163278027Y-114943288D01*
X163166819Y-114972811D01*
X163081661Y-114992553D01*
X163027651Y-115001311D01*
X163010398Y-114999713D01*
X162996238Y-114977087D01*
X162964508Y-114921720D01*
X162917719Y-114838144D01*
X162858380Y-114730887D01*
X162789000Y-114604477D01*
X162712092Y-114463444D01*
X162659621Y-114366759D01*
X161990009Y-113141797D01*
X161316694Y-111932282D01*
X160640586Y-110739621D01*
X159962592Y-109565223D01*
X159283624Y-108410494D01*
X158604590Y-107276843D01*
X157926398Y-106165678D01*
X157249960Y-105078407D01*
X156576183Y-104016437D01*
X155905978Y-102981176D01*
X155240252Y-101974032D01*
X154579916Y-100996414D01*
X153925879Y-100049728D01*
X153279050Y-99135383D01*
X152640339Y-98254787D01*
X152010654Y-97409347D01*
X151390905Y-96600472D01*
X150782001Y-95829568D01*
X150322609Y-95264558D01*
X150008055Y-94892314D01*
X149708073Y-94557467D01*
X149420602Y-94258482D01*
X149143584Y-93993827D01*
X148874961Y-93761966D01*
X148612673Y-93561368D01*
X148354661Y-93390497D01*
X148098866Y-93247820D01*
X147843230Y-93131803D01*
X147585693Y-93040913D01*
X147324197Y-92973616D01*
X147219794Y-92953274D01*
X147004591Y-92925024D01*
X146761943Y-92910474D01*
X146504457Y-92909616D01*
X146244740Y-92922441D01*
X145995399Y-92948941D01*
X145959736Y-92954085D01*
X145530826Y-93034181D01*
X145078541Y-93149563D01*
X144602889Y-93300227D01*
X144103879Y-93486169D01*
X143581519Y-93707387D01*
X143035818Y-93963877D01*
X142466783Y-94255636D01*
X141874425Y-94582660D01*
X141814650Y-94616875D01*
X140913713Y-95149962D01*
X139999099Y-95722334D01*
X139071427Y-96333428D01*
X138131311Y-96982681D01*
X137179370Y-97669532D01*
X136216219Y-98393417D01*
X135242476Y-99153773D01*
X134258757Y-99950038D01*
X133265679Y-100781650D01*
X132263858Y-101648046D01*
X131253912Y-102548663D01*
X130236457Y-103482938D01*
X129212109Y-104450309D01*
X128181486Y-105450213D01*
X127145205Y-106482087D01*
X126103881Y-107545370D01*
X125058132Y-108639498D01*
X124008575Y-109763908D01*
X122955826Y-110918039D01*
X121900501Y-112101326D01*
X120843218Y-113313209D01*
X119784594Y-114553123D01*
X119203376Y-115245176D01*
X118147463Y-116523359D01*
X117105182Y-117812708D01*
X116072587Y-119118314D01*
X115045734Y-120445272D01*
X114020677Y-121798672D01*
X112993471Y-123183609D01*
X112062420Y-124463259D01*
X111901264Y-124686666D01*
X111763077Y-124878063D01*
X111646103Y-125039805D01*
X111548588Y-125174245D01*
X111468776Y-125283738D01*
X111404913Y-125370638D01*
X111355242Y-125437299D01*
X111318010Y-125486074D01*
X111291460Y-125519318D01*
X111273839Y-125539385D01*
X111263390Y-125548629D01*
X111258359Y-125549404D01*
X111256990Y-125544063D01*
X111256986Y-125543552D01*
X111259123Y-125515276D01*
X111265303Y-125448303D01*
X111275174Y-125346039D01*
X111288389Y-125211892D01*
X111304598Y-125049269D01*
X111323451Y-124861578D01*
X111344599Y-124652224D01*
X111367694Y-124424617D01*
X111392385Y-124182162D01*
X111418323Y-123928268D01*
X111445160Y-123666341D01*
X111472545Y-123399789D01*
X111500130Y-123132019D01*
X111527565Y-122866438D01*
X111554501Y-122606454D01*
X111580588Y-122355473D01*
X111605477Y-122116903D01*
X111628820Y-121894152D01*
X111650266Y-121690626D01*
X111669467Y-121509732D01*
X111686072Y-121354879D01*
X111692143Y-121298842D01*
X111993987Y-118636870D01*
X112318771Y-115990392D01*
X112666178Y-113361263D01*
X113035892Y-110751338D01*
X113427593Y-108162473D01*
X113840966Y-105596521D01*
X114275692Y-103055338D01*
X114731455Y-100540777D01*
X115207936Y-98054695D01*
X115704820Y-95598946D01*
X116221787Y-93175384D01*
X116758522Y-90785864D01*
X117314706Y-88432242D01*
X117318539Y-88416426D01*
X117360287Y-88244397D01*
X117399434Y-88083627D01*
X117436806Y-87930889D01*
X117473228Y-87782959D01*
X117509525Y-87636613D01*
X117546522Y-87488625D01*
X117585044Y-87335770D01*
X117625917Y-87174825D01*
X117669964Y-87002564D01*
X117718012Y-86815762D01*
X117770885Y-86611195D01*
X117829408Y-86385638D01*
X117894407Y-86135866D01*
X117966707Y-85858655D01*
X118047132Y-85550779D01*
X118136508Y-85209014D01*
X118235660Y-84830135D01*
X118255434Y-84754592D01*
X118830334Y-82607675D01*
X119420842Y-80499527D01*
X120026940Y-78430203D01*
X120648608Y-76399757D01*
X121285828Y-74408243D01*
X121938580Y-72455715D01*
X122606846Y-70542228D01*
X123290606Y-68667834D01*
X123989841Y-66832589D01*
X124704532Y-65036547D01*
X125434660Y-63279761D01*
X126180205Y-61562286D01*
X126941150Y-59884176D01*
X127303116Y-59111176D01*
X127494111Y-58711151D01*
X127701492Y-58283539D01*
X127921612Y-57835556D01*
X128150823Y-57374417D01*
X128385477Y-56907338D01*
X128621927Y-56441535D01*
X128856525Y-55984223D01*
X129085625Y-55542619D01*
X129305578Y-55123937D01*
X129512737Y-54735394D01*
X129550024Y-54666176D01*
X130221141Y-53447049D01*
X130904631Y-52253658D01*
X131599310Y-51087793D01*
X132303989Y-49951247D01*
X133017484Y-48845811D01*
X133738608Y-47773276D01*
X134466175Y-46735435D01*
X135198998Y-45734079D01*
X135935891Y-44771000D01*
X136675668Y-43847990D01*
X136861737Y-43622729D01*
X136949248Y-43516884D01*
X137026865Y-43421945D01*
X137090736Y-43342713D01*
X137137006Y-43283989D01*
X137161824Y-43250572D01*
X137164986Y-43244899D01*
X137178434Y-43225001D01*
X137216276Y-43177783D01*
X137274763Y-43107544D01*
X137350142Y-43018586D01*
X137438664Y-42915208D01*
X137536576Y-42801713D01*
X137640130Y-42682399D01*
X137745572Y-42561569D01*
X137849153Y-42443523D01*
X137947122Y-42332561D01*
X138035728Y-42232985D01*
X138111219Y-42149094D01*
X138169845Y-42085190D01*
X138207856Y-42045573D01*
X138220846Y-42034275D01*
X138237331Y-42049516D01*
X138237331Y-42049516D01*
G37*
X138237331Y-42049516D02*
X138276110Y-42096624D01*
X138335167Y-42172809D01*
X138412487Y-42275277D01*
X138506055Y-42401238D01*
X138613855Y-42547901D01*
X138733873Y-42712473D01*
X138864094Y-42892163D01*
X139002502Y-43084180D01*
X139147083Y-43285732D01*
X139295821Y-43494028D01*
X139446701Y-43706276D01*
X139597708Y-43919684D01*
X139746828Y-44131462D01*
X139892045Y-44338818D01*
X140031343Y-44538960D01*
X140089255Y-44622592D01*
X141237312Y-46316044D01*
X142357539Y-48034818D01*
X143450624Y-49780135D01*
X144517257Y-51553215D01*
X145558127Y-53355280D01*
X146573924Y-55187550D01*
X147565336Y-57051245D01*
X148533054Y-58947586D01*
X149477766Y-60877794D01*
X150400162Y-62843090D01*
X150494212Y-63048176D01*
X151426896Y-65133734D01*
X152329890Y-67248847D01*
X153202925Y-69392627D01*
X154045729Y-71564185D01*
X154858031Y-73762635D01*
X155639559Y-75987088D01*
X156390044Y-78236657D01*
X157109212Y-80510455D01*
X157796795Y-82807593D01*
X158452519Y-85127184D01*
X159076115Y-87468340D01*
X159667311Y-89830174D01*
X160225836Y-92211798D01*
X160751419Y-94612324D01*
X161243789Y-97030865D01*
X161702675Y-99466532D01*
X161823899Y-100144527D01*
X162081457Y-101642388D01*
X162328901Y-103162775D01*
X162565224Y-104698271D01*
X162789416Y-106241455D01*
X163000468Y-107784909D01*
X163197372Y-109321214D01*
X163379119Y-110842950D01*
X163544700Y-112342698D01*
X163693105Y-113813040D01*
X163717579Y-114070426D01*
X163732302Y-114225547D01*
X163746252Y-114370299D01*
X163758797Y-114498275D01*
X163769301Y-114603071D01*
X163777132Y-114678281D01*
X163781550Y-114716738D01*
X163791694Y-114791550D01*
X163410186Y-114905192D01*
X163278027Y-114943288D01*
X163166819Y-114972811D01*
X163081661Y-114992553D01*
X163027651Y-115001311D01*
X163010398Y-114999713D01*
X162996238Y-114977087D01*
X162964508Y-114921720D01*
X162917719Y-114838144D01*
X162858380Y-114730887D01*
X162789000Y-114604477D01*
X162712092Y-114463444D01*
X162659621Y-114366759D01*
X161990009Y-113141797D01*
X161316694Y-111932282D01*
X160640586Y-110739621D01*
X159962592Y-109565223D01*
X159283624Y-108410494D01*
X158604590Y-107276843D01*
X157926398Y-106165678D01*
X157249960Y-105078407D01*
X156576183Y-104016437D01*
X155905978Y-102981176D01*
X155240252Y-101974032D01*
X154579916Y-100996414D01*
X153925879Y-100049728D01*
X153279050Y-99135383D01*
X152640339Y-98254787D01*
X152010654Y-97409347D01*
X151390905Y-96600472D01*
X150782001Y-95829568D01*
X150322609Y-95264558D01*
X150008055Y-94892314D01*
X149708073Y-94557467D01*
X149420602Y-94258482D01*
X149143584Y-93993827D01*
X148874961Y-93761966D01*
X148612673Y-93561368D01*
X148354661Y-93390497D01*
X148098866Y-93247820D01*
X147843230Y-93131803D01*
X147585693Y-93040913D01*
X147324197Y-92973616D01*
X147219794Y-92953274D01*
X147004591Y-92925024D01*
X146761943Y-92910474D01*
X146504457Y-92909616D01*
X146244740Y-92922441D01*
X145995399Y-92948941D01*
X145959736Y-92954085D01*
X145530826Y-93034181D01*
X145078541Y-93149563D01*
X144602889Y-93300227D01*
X144103879Y-93486169D01*
X143581519Y-93707387D01*
X143035818Y-93963877D01*
X142466783Y-94255636D01*
X141874425Y-94582660D01*
X141814650Y-94616875D01*
X140913713Y-95149962D01*
X139999099Y-95722334D01*
X139071427Y-96333428D01*
X138131311Y-96982681D01*
X137179370Y-97669532D01*
X136216219Y-98393417D01*
X135242476Y-99153773D01*
X134258757Y-99950038D01*
X133265679Y-100781650D01*
X132263858Y-101648046D01*
X131253912Y-102548663D01*
X130236457Y-103482938D01*
X129212109Y-104450309D01*
X128181486Y-105450213D01*
X127145205Y-106482087D01*
X126103881Y-107545370D01*
X125058132Y-108639498D01*
X124008575Y-109763908D01*
X122955826Y-110918039D01*
X121900501Y-112101326D01*
X120843218Y-113313209D01*
X119784594Y-114553123D01*
X119203376Y-115245176D01*
X118147463Y-116523359D01*
X117105182Y-117812708D01*
X116072587Y-119118314D01*
X115045734Y-120445272D01*
X114020677Y-121798672D01*
X112993471Y-123183609D01*
X112062420Y-124463259D01*
X111901264Y-124686666D01*
X111763077Y-124878063D01*
X111646103Y-125039805D01*
X111548588Y-125174245D01*
X111468776Y-125283738D01*
X111404913Y-125370638D01*
X111355242Y-125437299D01*
X111318010Y-125486074D01*
X111291460Y-125519318D01*
X111273839Y-125539385D01*
X111263390Y-125548629D01*
X111258359Y-125549404D01*
X111256990Y-125544063D01*
X111256986Y-125543552D01*
X111259123Y-125515276D01*
X111265303Y-125448303D01*
X111275174Y-125346039D01*
X111288389Y-125211892D01*
X111304598Y-125049269D01*
X111323451Y-124861578D01*
X111344599Y-124652224D01*
X111367694Y-124424617D01*
X111392385Y-124182162D01*
X111418323Y-123928268D01*
X111445160Y-123666341D01*
X111472545Y-123399789D01*
X111500130Y-123132019D01*
X111527565Y-122866438D01*
X111554501Y-122606454D01*
X111580588Y-122355473D01*
X111605477Y-122116903D01*
X111628820Y-121894152D01*
X111650266Y-121690626D01*
X111669467Y-121509732D01*
X111686072Y-121354879D01*
X111692143Y-121298842D01*
X111993987Y-118636870D01*
X112318771Y-115990392D01*
X112666178Y-113361263D01*
X113035892Y-110751338D01*
X113427593Y-108162473D01*
X113840966Y-105596521D01*
X114275692Y-103055338D01*
X114731455Y-100540777D01*
X115207936Y-98054695D01*
X115704820Y-95598946D01*
X116221787Y-93175384D01*
X116758522Y-90785864D01*
X117314706Y-88432242D01*
X117318539Y-88416426D01*
X117360287Y-88244397D01*
X117399434Y-88083627D01*
X117436806Y-87930889D01*
X117473228Y-87782959D01*
X117509525Y-87636613D01*
X117546522Y-87488625D01*
X117585044Y-87335770D01*
X117625917Y-87174825D01*
X117669964Y-87002564D01*
X117718012Y-86815762D01*
X117770885Y-86611195D01*
X117829408Y-86385638D01*
X117894407Y-86135866D01*
X117966707Y-85858655D01*
X118047132Y-85550779D01*
X118136508Y-85209014D01*
X118235660Y-84830135D01*
X118255434Y-84754592D01*
X118830334Y-82607675D01*
X119420842Y-80499527D01*
X120026940Y-78430203D01*
X120648608Y-76399757D01*
X121285828Y-74408243D01*
X121938580Y-72455715D01*
X122606846Y-70542228D01*
X123290606Y-68667834D01*
X123989841Y-66832589D01*
X124704532Y-65036547D01*
X125434660Y-63279761D01*
X126180205Y-61562286D01*
X126941150Y-59884176D01*
X127303116Y-59111176D01*
X127494111Y-58711151D01*
X127701492Y-58283539D01*
X127921612Y-57835556D01*
X128150823Y-57374417D01*
X128385477Y-56907338D01*
X128621927Y-56441535D01*
X128856525Y-55984223D01*
X129085625Y-55542619D01*
X129305578Y-55123937D01*
X129512737Y-54735394D01*
X129550024Y-54666176D01*
X130221141Y-53447049D01*
X130904631Y-52253658D01*
X131599310Y-51087793D01*
X132303989Y-49951247D01*
X133017484Y-48845811D01*
X133738608Y-47773276D01*
X134466175Y-46735435D01*
X135198998Y-45734079D01*
X135935891Y-44771000D01*
X136675668Y-43847990D01*
X136861737Y-43622729D01*
X136949248Y-43516884D01*
X137026865Y-43421945D01*
X137090736Y-43342713D01*
X137137006Y-43283989D01*
X137161824Y-43250572D01*
X137164986Y-43244899D01*
X137178434Y-43225001D01*
X137216276Y-43177783D01*
X137274763Y-43107544D01*
X137350142Y-43018586D01*
X137438664Y-42915208D01*
X137536576Y-42801713D01*
X137640130Y-42682399D01*
X137745572Y-42561569D01*
X137849153Y-42443523D01*
X137947122Y-42332561D01*
X138035728Y-42232985D01*
X138111219Y-42149094D01*
X138169845Y-42085190D01*
X138207856Y-42045573D01*
X138220846Y-42034275D01*
X138237331Y-42049516D01*
M02*
