G04 #@! TF.GenerationSoftware,KiCad,Pcbnew,5.1.4-e60b266~84~ubuntu18.04.1*
G04 #@! TF.CreationDate,2019-09-14T19:57:04-06:00*
G04 #@! TF.ProjectId,001,3030312e-6b69-4636-9164-5f7063625858,1*
G04 #@! TF.SameCoordinates,Original*
G04 #@! TF.FileFunction,Copper,L2,Bot*
G04 #@! TF.FilePolarity,Positive*
%FSLAX46Y46*%
G04 Gerber Fmt 4.6, Leading zero omitted, Abs format (unit mm)*
G04 Created by KiCad (PCBNEW 5.1.4-e60b266~84~ubuntu18.04.1) date 2019-09-14 19:57:04*
%MOMM*%
%LPD*%
G04 APERTURE LIST*
%ADD10C,0.152400*%
%ADD11R,3.960000X3.960000*%
%ADD12R,2.540000X3.170000*%
%ADD13C,1.150000*%
%ADD14C,5.000000*%
%ADD15C,0.762000*%
G04 APERTURE END LIST*
D10*
G36*
X151068023Y-94305496D02*
G01*
X151562239Y-94000681D01*
X151469219Y-93993781D01*
X151374479Y-93978280D01*
X151400319Y-93871483D01*
X151429599Y-93759516D01*
X151439939Y-93776746D01*
X151507119Y-93857707D01*
X151560519Y-93942117D01*
X151581189Y-93973127D01*
X151600139Y-94004137D01*
X151581189Y-94002437D01*
X151562239Y-94000737D01*
X151562239Y-94000681D01*
X151068023Y-94305496D01*
X151099033Y-94365786D01*
X151145543Y-94419186D01*
X151204113Y-94457086D01*
X151273013Y-94474316D01*
X151304023Y-94462256D01*
X151319523Y-94451926D01*
X151329863Y-94446726D01*
X151336763Y-94441526D01*
X151357433Y-94432926D01*
X151350533Y-94410536D01*
X151352233Y-94389866D01*
X151372903Y-94367476D01*
X151383243Y-94357135D01*
X151391843Y-94346806D01*
X151421123Y-94314076D01*
X151374613Y-94302016D01*
X151317763Y-94271006D01*
X151305703Y-94207266D01*
X151364273Y-94205566D01*
X151410783Y-94217626D01*
X151474513Y-94233126D01*
X151543413Y-94238326D01*
X151569253Y-94238326D01*
X151595093Y-94234926D01*
X151612313Y-94231526D01*
X151619213Y-94210856D01*
X151626113Y-94203956D01*
X151645063Y-94181566D01*
X151648463Y-94143666D01*
X151658793Y-94112655D01*
X151674293Y-94155716D01*
X151681193Y-94172946D01*
X151698423Y-94176346D01*
X151703623Y-94184946D01*
X151705323Y-94193546D01*
X151713923Y-94222826D01*
X151720823Y-94229726D01*
X151727723Y-94234926D01*
X151736323Y-94265936D01*
X151746663Y-94295216D01*
X151762163Y-94340006D01*
X151765563Y-94381346D01*
X151772463Y-94400296D01*
X151791413Y-94417526D01*
X151812083Y-94427856D01*
X151822423Y-94434756D01*
X151831023Y-94438156D01*
X151836223Y-94457106D01*
X151856893Y-94460506D01*
X151884453Y-94465706D01*
X151901683Y-94467406D01*
X151918913Y-94465706D01*
X151948193Y-94441586D01*
X151972313Y-94422636D01*
X151989533Y-94391626D01*
X151992933Y-94372675D01*
X151996333Y-94355446D01*
X152001533Y-94345116D01*
X152023923Y-94324446D01*
X152004973Y-94308946D01*
X152003273Y-94279666D01*
X151930923Y-94110857D01*
X151849963Y-93945492D01*
X151824123Y-93890372D01*
X151796563Y-93835251D01*
X151798263Y-93823191D01*
X151794863Y-93807691D01*
X151763853Y-93756011D01*
X151739733Y-93707781D01*
X151712173Y-93650941D01*
X151674273Y-93594102D01*
X151646713Y-93582041D01*
X151634653Y-93578641D01*
X151619153Y-93575241D01*
X151593313Y-93578641D01*
X151508913Y-93516631D01*
X151434843Y-93418441D01*
X151417613Y-93394331D01*
X151395223Y-93408111D01*
X151371103Y-93418441D01*
X151338373Y-93427041D01*
X151279803Y-93442541D01*
X151235013Y-93468381D01*
X151222953Y-93509721D01*
X151217753Y-93537281D01*
X151209153Y-93595851D01*
X151202253Y-93661311D01*
X151188473Y-93719881D01*
X151176413Y-93776721D01*
X151159183Y-93857682D01*
X151136793Y-93930032D01*
X151119563Y-93931732D01*
X151102343Y-93926532D01*
X151079953Y-93923132D01*
X151061003Y-93921432D01*
X151054103Y-93938662D01*
X151036873Y-93955892D01*
X151004143Y-93966232D01*
X150985193Y-93981732D01*
X150971413Y-93992072D01*
X150945573Y-94002402D01*
X150959353Y-94028242D01*
X151009303Y-94088532D01*
X151079923Y-94135042D01*
X151078223Y-94155712D01*
X151073023Y-94174662D01*
X151064423Y-94234952D01*
X151064423Y-94298682D01*
X151068023Y-94305496D01*
X151068023Y-94305496D01*
G37*
G36*
X151996324Y-94151824D02*
G01*
X152104845Y-94267235D01*
X152252984Y-94334415D01*
X152423516Y-94380925D01*
X152594049Y-94434325D01*
X152637109Y-94436025D01*
X152671559Y-94441225D01*
X152702569Y-94446425D01*
X152737019Y-94449825D01*
X152745619Y-94453225D01*
X152750819Y-94460125D01*
X152804219Y-94465325D01*
X152842119Y-94465325D01*
X152885179Y-94470525D01*
X152923079Y-94475725D01*
X153126340Y-94384425D01*
X153207300Y-94146713D01*
X153210700Y-94136383D01*
X153217600Y-94131183D01*
X153214200Y-94101903D01*
X153212500Y-94070893D01*
X153110870Y-93895193D01*
X152974789Y-93750498D01*
X152954119Y-93729828D01*
X152938619Y-93709158D01*
X152919669Y-93691928D01*
X152893829Y-93679868D01*
X152807699Y-93604078D01*
X152702624Y-93538618D01*
X152594104Y-93474888D01*
X152494194Y-93402538D01*
X152466634Y-93407738D01*
X152447684Y-93407738D01*
X152414954Y-93443908D01*
X152371894Y-93466298D01*
X152330554Y-93492138D01*
X152301274Y-93533478D01*
X152311614Y-93542078D01*
X152306414Y-93557578D01*
X152304714Y-93573078D01*
X152316774Y-93579978D01*
X152306444Y-93590318D01*
X152296104Y-93598918D01*
X152301304Y-93612698D01*
X152301304Y-93629928D01*
X152378824Y-93672988D01*
X152466674Y-93717778D01*
X152561414Y-93767728D01*
X152656154Y-93828018D01*
X152750894Y-93905539D01*
X152843914Y-93993389D01*
X152928324Y-94089849D01*
X152995504Y-94186309D01*
X152988604Y-94200089D01*
X152980004Y-94212149D01*
X152878374Y-94212149D01*
X152781914Y-94217349D01*
X152775014Y-94207009D01*
X152766414Y-94196669D01*
X152583824Y-94165659D01*
X152411569Y-94119149D01*
X152437409Y-94110549D01*
X152458079Y-94101949D01*
X152458079Y-94088169D01*
X152440849Y-94074389D01*
X152480469Y-94039939D01*
X152497699Y-93984819D01*
X152487369Y-93964149D01*
X152497699Y-93945199D01*
X152506299Y-93945199D01*
X152509699Y-93950399D01*
X152511399Y-93957299D01*
X152519999Y-93955599D01*
X152513099Y-93929759D01*
X152502759Y-93905649D01*
X152383904Y-93826408D01*
X152337394Y-93857419D01*
X152280554Y-93890149D01*
X152218544Y-93922879D01*
X152158254Y-93953889D01*
X152115194Y-93981449D01*
X152079024Y-94017619D01*
X152044574Y-94052069D01*
X152001514Y-94081349D01*
X151999814Y-94117519D01*
X151996414Y-94151969D01*
X151996324Y-94151824D01*
X151996324Y-94151824D01*
G37*
G36*
X153333022Y-94317189D02*
G01*
X153830838Y-94019188D01*
X153737818Y-94012288D01*
X153643078Y-93996788D01*
X153668918Y-93889990D01*
X153698198Y-93778023D01*
X153708528Y-93795253D01*
X153775708Y-93876214D01*
X153829108Y-93960624D01*
X153849778Y-93991634D01*
X153868728Y-94022644D01*
X153849778Y-94020944D01*
X153830828Y-94019244D01*
X153830838Y-94019188D01*
X153333022Y-94317189D01*
X153364032Y-94377479D01*
X153410542Y-94430879D01*
X153469112Y-94468779D01*
X153538012Y-94486009D01*
X153569022Y-94473949D01*
X153584522Y-94463619D01*
X153594862Y-94458419D01*
X153601762Y-94453219D01*
X153622432Y-94444619D01*
X153615532Y-94422229D01*
X153617232Y-94401559D01*
X153637902Y-94379169D01*
X153648242Y-94368829D01*
X153656842Y-94358498D01*
X153686122Y-94325769D01*
X153639612Y-94313709D01*
X153582762Y-94282699D01*
X153570702Y-94218959D01*
X153629272Y-94217259D01*
X153675782Y-94229319D01*
X153739512Y-94244819D01*
X153808412Y-94250019D01*
X153834252Y-94250019D01*
X153860092Y-94246619D01*
X153877312Y-94243219D01*
X153884212Y-94222549D01*
X153891112Y-94215649D01*
X153910062Y-94193259D01*
X153913462Y-94155359D01*
X153923792Y-94124349D01*
X153939292Y-94167409D01*
X153946192Y-94184639D01*
X153963422Y-94188039D01*
X153968622Y-94196639D01*
X153970322Y-94205239D01*
X153978922Y-94234519D01*
X153985822Y-94241419D01*
X153992722Y-94246619D01*
X154001322Y-94277629D01*
X154011662Y-94306909D01*
X154027162Y-94351699D01*
X154030562Y-94393039D01*
X154037462Y-94411989D01*
X154056412Y-94429219D01*
X154077082Y-94439549D01*
X154087422Y-94446449D01*
X154096022Y-94449849D01*
X154101222Y-94468799D01*
X154121892Y-94472199D01*
X154149452Y-94477399D01*
X154166682Y-94479099D01*
X154183912Y-94477399D01*
X154213192Y-94453279D01*
X154237312Y-94434329D01*
X154254532Y-94403319D01*
X154257932Y-94384369D01*
X154261332Y-94367139D01*
X154266532Y-94356809D01*
X154288922Y-94336139D01*
X154269972Y-94320639D01*
X154268272Y-94291359D01*
X154195922Y-94122550D01*
X154114962Y-93957185D01*
X154089122Y-93902065D01*
X154061562Y-93846944D01*
X154063262Y-93834884D01*
X154059862Y-93819384D01*
X154028852Y-93767704D01*
X154004732Y-93719474D01*
X153977172Y-93662634D01*
X153939272Y-93605794D01*
X153911712Y-93593735D01*
X153899652Y-93590334D01*
X153884152Y-93586934D01*
X153858312Y-93590334D01*
X153773912Y-93528324D01*
X153699842Y-93430134D01*
X153682612Y-93406024D01*
X153660222Y-93419804D01*
X153636102Y-93430134D01*
X153603372Y-93438734D01*
X153544802Y-93454234D01*
X153500012Y-93480074D01*
X153487952Y-93521414D01*
X153482752Y-93548974D01*
X153474152Y-93607544D01*
X153467252Y-93673004D01*
X153453472Y-93731574D01*
X153441412Y-93788414D01*
X153424192Y-93869375D01*
X153401802Y-93941725D01*
X153384572Y-93943425D01*
X153367352Y-93938225D01*
X153344962Y-93934825D01*
X153326012Y-93933125D01*
X153319112Y-93950355D01*
X153301882Y-93967585D01*
X153269152Y-93977925D01*
X153250202Y-93993425D01*
X153236422Y-94003765D01*
X153210582Y-94014095D01*
X153224362Y-94039935D01*
X153274312Y-94100225D01*
X153344932Y-94146735D01*
X153343232Y-94167405D01*
X153338032Y-94186355D01*
X153329432Y-94246645D01*
X153329432Y-94310375D01*
X153333022Y-94317189D01*
X153333022Y-94317189D01*
G37*
G36*
X154886760Y-94148379D02*
G01*
X154909150Y-94167329D01*
X154922930Y-94196609D01*
X154934990Y-94225889D01*
X154952220Y-94237949D01*
X154962550Y-94262069D01*
X154976330Y-94284459D01*
X154986660Y-94308579D01*
X154983260Y-94337859D01*
X155000480Y-94367139D01*
X155009080Y-94403309D01*
X155022860Y-94432589D01*
X155060760Y-94442929D01*
X155062460Y-94451529D01*
X155057260Y-94463589D01*
X155086540Y-94465289D01*
X155108930Y-94473889D01*
X155164050Y-94437719D01*
X155201950Y-94380879D01*
X155231230Y-94315419D01*
X155255350Y-94258579D01*
X155253650Y-94222409D01*
X155265710Y-94191399D01*
X155244370Y-94146239D01*
X155222540Y-94100319D01*
X155200230Y-94053649D01*
X155177430Y-94006229D01*
X155154150Y-93958049D01*
X155130380Y-93909119D01*
X155106130Y-93859429D01*
X155081390Y-93808988D01*
X155056570Y-93758248D01*
X155032080Y-93707678D01*
X155007910Y-93657268D01*
X154984060Y-93607018D01*
X154960540Y-93556928D01*
X154937340Y-93506998D01*
X154914460Y-93457228D01*
X154891910Y-93407628D01*
X154814400Y-93443798D01*
X154743780Y-93488588D01*
X154688660Y-93548878D01*
X154659380Y-93622948D01*
X154667980Y-93631548D01*
X154674880Y-93633248D01*
X154667980Y-93645308D01*
X154667980Y-93652208D01*
X154667980Y-93662548D01*
X154662780Y-93678048D01*
X154673110Y-93679748D01*
X154683450Y-93679748D01*
X154680050Y-93710758D01*
X154686950Y-93733148D01*
X154695550Y-93753818D01*
X154693850Y-93781378D01*
X154702450Y-93784778D01*
X154705850Y-93789979D01*
X154711050Y-93795178D01*
X154717950Y-93795178D01*
X154714550Y-93870969D01*
X154717950Y-93948479D01*
X154716250Y-94029439D01*
X154704190Y-94115569D01*
X154606010Y-94022549D01*
X154545720Y-93895080D01*
X154509550Y-93743495D01*
X154483710Y-93578130D01*
X154459590Y-93540230D01*
X154444090Y-93493720D01*
X154430310Y-93443770D01*
X154413080Y-93397260D01*
X154370020Y-93414490D01*
X154335570Y-93442050D01*
X154302840Y-93469610D01*
X154259780Y-93485110D01*
X154221880Y-93541950D01*
X154199490Y-93600520D01*
X154213270Y-93631530D01*
X154221870Y-93665980D01*
X154235650Y-93698710D01*
X154259770Y-93722830D01*
X154273550Y-93805510D01*
X154289050Y-93877861D01*
X154301110Y-93953651D01*
X154304510Y-94038051D01*
X154333790Y-94122451D01*
X154357910Y-94203411D01*
X154400970Y-94256811D01*
X154433700Y-94318821D01*
X154442300Y-94322221D01*
X154454360Y-94317021D01*
X154454360Y-94327361D01*
X154459560Y-94334261D01*
X154462960Y-94341161D01*
X154459560Y-94354941D01*
X154502620Y-94384221D01*
X154543960Y-94418671D01*
X154595640Y-94439341D01*
X154673150Y-94427281D01*
X154798896Y-94308425D01*
X154886746Y-94148228D01*
X154886760Y-94148379D01*
X154886760Y-94148379D01*
G37*
G36*
X155394912Y-94010575D02*
G01*
X155415582Y-94036415D01*
X155432812Y-94065695D01*
X155451762Y-94101865D01*
X155477602Y-94132875D01*
X155494832Y-94174215D01*
X155522392Y-94206945D01*
X155603352Y-94356807D01*
X155613692Y-94387817D01*
X155629192Y-94415377D01*
X155636092Y-94427437D01*
X155641292Y-94436037D01*
X155644692Y-94453267D01*
X155663642Y-94477387D01*
X155682592Y-94496337D01*
X155694652Y-94510117D01*
X155720492Y-94520447D01*
X155873798Y-94386089D01*
X155872098Y-94368859D01*
X155866898Y-94351639D01*
X155859998Y-94330969D01*
X155844498Y-94282739D01*
X155815218Y-94239679D01*
X155799718Y-94201779D01*
X155758378Y-94120819D01*
X155720478Y-94055359D01*
X155698088Y-94017459D01*
X155739428Y-93967509D01*
X155779048Y-93884829D01*
X155803168Y-93814208D01*
X155808368Y-93776308D01*
X155815268Y-93743578D01*
X155823868Y-93705678D01*
X155827268Y-93666058D01*
X155837598Y-93641938D01*
X155834198Y-93624708D01*
X155832498Y-93593698D01*
X155841098Y-93552358D01*
X155849698Y-93514458D01*
X155851398Y-93473118D01*
X155841058Y-93435218D01*
X155808328Y-93402488D01*
X155779048Y-93400788D01*
X155749768Y-93418018D01*
X155720488Y-93433518D01*
X155684318Y-93450748D01*
X155648148Y-93473138D01*
X155636088Y-93497258D01*
X155613698Y-93516208D01*
X155613698Y-93535158D01*
X155611998Y-93554108D01*
X155605098Y-93581668D01*
X155598198Y-93602339D01*
X155592998Y-93648848D01*
X155582668Y-93688468D01*
X155572338Y-93728088D01*
X155570638Y-93772878D01*
X155553408Y-93760818D01*
X155546508Y-93755618D01*
X155539608Y-93750418D01*
X155437978Y-93612614D01*
X155441378Y-93595384D01*
X155405208Y-93560934D01*
X155379368Y-93535094D01*
X155356978Y-93509254D01*
X155338028Y-93495474D01*
X155181276Y-93388676D01*
X155157156Y-93385276D01*
X155150256Y-93407666D01*
X155122696Y-93442116D01*
X155076186Y-93471396D01*
X155060686Y-93481736D01*
X155052086Y-93507576D01*
X155053786Y-93523076D01*
X155046886Y-93540306D01*
X155081336Y-93600596D01*
X155119236Y-93635046D01*
X155148516Y-93660886D01*
X155167466Y-93688446D01*
X155179526Y-93702226D01*
X155226036Y-93757346D01*
X155231236Y-93778016D01*
X155251906Y-93778016D01*
X155260506Y-93784916D01*
X155277736Y-93814196D01*
X155294956Y-93836586D01*
X155303556Y-93845187D01*
X155308756Y-93858967D01*
X155313956Y-93872747D01*
X155341516Y-93907197D01*
X155353576Y-93931317D01*
X155367356Y-93958877D01*
X155386306Y-93984717D01*
X155394912Y-94010575D01*
X155394912Y-94010575D01*
G37*
G36*
X155904786Y-93492087D02*
G01*
X155904786Y-93511037D01*
X155906486Y-93521367D01*
X155906486Y-93533427D01*
X155903086Y-93550657D01*
X155987496Y-93631617D01*
X156089126Y-93662627D01*
X156202814Y-93681577D01*
X156316502Y-93726367D01*
X156357842Y-93726367D01*
X156409522Y-93731567D01*
X156435362Y-93747067D01*
X156466372Y-93755667D01*
X156461172Y-93788398D01*
X156455972Y-93814237D01*
X156323335Y-93812537D01*
X156178641Y-93803937D01*
X156180341Y-93815997D01*
X156182041Y-93824597D01*
X156157921Y-93846987D01*
X156133801Y-93871108D01*
X156109681Y-93891778D01*
X156078671Y-93896978D01*
X156070071Y-93927988D01*
X156073471Y-93960718D01*
X156128591Y-94000338D01*
X156187161Y-94034788D01*
X156250891Y-94060628D01*
X156324961Y-94067528D01*
X156338741Y-94067528D01*
X156349081Y-94062328D01*
X156388701Y-94067528D01*
X156426601Y-94072728D01*
X156473111Y-94065828D01*
X156519621Y-94058928D01*
X156569571Y-94136438D01*
X156609191Y-94224288D01*
X156512731Y-94231188D01*
X156438661Y-94225988D01*
X156368041Y-94217388D01*
X156276741Y-94213988D01*
X156195781Y-94189868D01*
X156107931Y-94169198D01*
X156083811Y-94188148D01*
X156064861Y-94212268D01*
X156044191Y-94231218D01*
X156018351Y-94238118D01*
X156009751Y-94255348D01*
X156004551Y-94272568D01*
X155999351Y-94288068D01*
X155983851Y-94291468D01*
X156044141Y-94379318D01*
X156119931Y-94424108D01*
X156216391Y-94448218D01*
X156331802Y-94468888D01*
X156357642Y-94467188D01*
X156381762Y-94463788D01*
X156476502Y-94479288D01*
X156588468Y-94484488D01*
X156696988Y-94468988D01*
X156781388Y-94424198D01*
X156800338Y-94396638D01*
X156822728Y-94370798D01*
X156829628Y-94320848D01*
X156839958Y-94264008D01*
X156848558Y-94203718D01*
X156845158Y-94150318D01*
X156824488Y-94103808D01*
X156812428Y-94059018D01*
X156802088Y-94050418D01*
X156788308Y-94043518D01*
X156765918Y-93984948D01*
X156741798Y-93931548D01*
X156715958Y-93879868D01*
X156690118Y-93819577D01*
X156726288Y-93771347D01*
X156741788Y-93717947D01*
X156750388Y-93662827D01*
X156762448Y-93604257D01*
X156721108Y-93562917D01*
X156665988Y-93535357D01*
X156602248Y-93518127D01*
X156529898Y-93502627D01*
X156407597Y-93468177D01*
X156300799Y-93449227D01*
X156190556Y-93433727D01*
X156061365Y-93413057D01*
X156032085Y-93428557D01*
X156016585Y-93419957D01*
X156007985Y-93409627D01*
X155964925Y-93459577D01*
X155904635Y-93492307D01*
X155904786Y-93492087D01*
X155904786Y-93492087D01*
G37*
G36*
X157958064Y-94313743D02*
G01*
X157534493Y-93704105D01*
X157563773Y-93783345D01*
X157412189Y-93743725D01*
X157262327Y-93681715D01*
X157307117Y-93580085D01*
X157382907Y-93526685D01*
X157382913Y-93526685D01*
X157432863Y-93586975D01*
X157487983Y-93642095D01*
X157534493Y-93704105D01*
X157958064Y-94313743D01*
X157973564Y-94301683D01*
X157989064Y-94272403D01*
X157970114Y-94272403D01*
X157977014Y-94203503D01*
X157961514Y-94141493D01*
X157947734Y-94082923D01*
X157952934Y-94022633D01*
X157940874Y-94019233D01*
X157933974Y-93995113D01*
X157932274Y-93964103D01*
X157933974Y-93936543D01*
X157899524Y-93826299D01*
X157875404Y-93714334D01*
X157853014Y-93605813D01*
X157818564Y-93505903D01*
X157768614Y-93512803D01*
X157732444Y-93535193D01*
X157637704Y-93435283D01*
X157555024Y-93321595D01*
X157458564Y-93221685D01*
X157325927Y-93170005D01*
X157232907Y-93233735D01*
X157148497Y-93316415D01*
X157122657Y-93335365D01*
X157095097Y-93352595D01*
X157095097Y-93378435D01*
X157055477Y-93431835D01*
X157026197Y-93495565D01*
X157000357Y-93562745D01*
X156972797Y-93626475D01*
X156976197Y-93645425D01*
X156972797Y-93660925D01*
X156967597Y-93678145D01*
X156965897Y-93700535D01*
X157026187Y-93848674D01*
X157153656Y-93939975D01*
X157312130Y-94000265D01*
X157465437Y-94053665D01*
X157458537Y-94060565D01*
X157453337Y-94070895D01*
X157374097Y-94120845D01*
X157320697Y-94153575D01*
X157265577Y-94174245D01*
X157181167Y-94194915D01*
X157098487Y-94215585D01*
X157043367Y-94227645D01*
X156991687Y-94234545D01*
X156917617Y-94243145D01*
X156886607Y-94287935D01*
X156869377Y-94339615D01*
X156867677Y-94389565D01*
X156881457Y-94425735D01*
X156872857Y-94432635D01*
X156855637Y-94432635D01*
X156876307Y-94453305D01*
X156893537Y-94477425D01*
X156914207Y-94499815D01*
X156941767Y-94511875D01*
X157100242Y-94513575D01*
X157346566Y-94434335D01*
X157467144Y-94384385D01*
X157548104Y-94341325D01*
X157611834Y-94294815D01*
X157679014Y-94234525D01*
X157685914Y-94241425D01*
X157691114Y-94248325D01*
X157718674Y-94360289D01*
X157770354Y-94448140D01*
X157808254Y-94453340D01*
X157830644Y-94472290D01*
X157856484Y-94470590D01*
X157871984Y-94461990D01*
X157887484Y-94451650D01*
X157915044Y-94448250D01*
X157925384Y-94418970D01*
X157952944Y-94405190D01*
X157949544Y-94379350D01*
X157954744Y-94358679D01*
X157961644Y-94338010D01*
X157958244Y-94313890D01*
X157958064Y-94313743D01*
X157958064Y-94313743D01*
G37*
G36*
X159493199Y-94045371D02*
G01*
X159487999Y-94010921D01*
X159486299Y-93971301D01*
X159365720Y-93761149D01*
X159202078Y-93588894D01*
X159177968Y-93564774D01*
X159159018Y-93538934D01*
X159136628Y-93518264D01*
X159105618Y-93504484D01*
X159002266Y-93413184D01*
X158876520Y-93333944D01*
X158745606Y-93256434D01*
X158625028Y-93170304D01*
X158595748Y-93178904D01*
X158571628Y-93177204D01*
X158532008Y-93223714D01*
X158480328Y-93249554D01*
X158430378Y-93280564D01*
X158394208Y-93328794D01*
X158406268Y-93337394D01*
X158401068Y-93356344D01*
X158397668Y-93375294D01*
X158413168Y-93383894D01*
X158401108Y-93395954D01*
X158389048Y-93408014D01*
X158394248Y-93425234D01*
X158394248Y-93444184D01*
X158487268Y-93497584D01*
X158594066Y-93549264D01*
X158707754Y-93609554D01*
X158821442Y-93681904D01*
X158936853Y-93773204D01*
X159047096Y-93880003D01*
X159147006Y-93995414D01*
X159226246Y-94110825D01*
X159217646Y-94126325D01*
X159207316Y-94141825D01*
X159085015Y-94141825D01*
X158971327Y-94148725D01*
X158962727Y-94134945D01*
X158952387Y-94122885D01*
X158733623Y-94084985D01*
X158526917Y-94029865D01*
X158582037Y-94010915D01*
X158582037Y-93993685D01*
X158563087Y-93976465D01*
X158609597Y-93935125D01*
X158630267Y-93867945D01*
X158618207Y-93843834D01*
X158630267Y-93821444D01*
X158640607Y-93821444D01*
X158644007Y-93828344D01*
X158647407Y-93835244D01*
X158656007Y-93835244D01*
X158647407Y-93804234D01*
X158637067Y-93774954D01*
X158494096Y-93680214D01*
X158438976Y-93716384D01*
X158370076Y-93754284D01*
X158296006Y-93793904D01*
X158225386Y-93831804D01*
X158171986Y-93866255D01*
X158128926Y-93907595D01*
X158087586Y-93948935D01*
X158037636Y-93983384D01*
X158034236Y-94028175D01*
X158030836Y-94069515D01*
X158110076Y-94169425D01*
X158215151Y-94238325D01*
X158337452Y-94288275D01*
X158471811Y-94326175D01*
X158611337Y-94364075D01*
X158747418Y-94408865D01*
X158797368Y-94410565D01*
X158836988Y-94415765D01*
X158874888Y-94422665D01*
X158916228Y-94427865D01*
X158928288Y-94431265D01*
X158935188Y-94439865D01*
X158997198Y-94445065D01*
X159043708Y-94445065D01*
X159093658Y-94451965D01*
X159141888Y-94457165D01*
X159384767Y-94346922D01*
X159481227Y-94062701D01*
X159484627Y-94052371D01*
X159493227Y-94045471D01*
X159493199Y-94045371D01*
X159493199Y-94045371D01*
G37*
D11*
X124561600Y-98526600D03*
D12*
X116941600Y-98526600D03*
X132181600Y-98526600D03*
D10*
G36*
X139372705Y-61429604D02*
G01*
X139396973Y-61433204D01*
X139420772Y-61439165D01*
X139443871Y-61447430D01*
X139466050Y-61457920D01*
X139487093Y-61470532D01*
X139506799Y-61485147D01*
X139524977Y-61501623D01*
X139541453Y-61519801D01*
X139556068Y-61539507D01*
X139568680Y-61560550D01*
X139579170Y-61582729D01*
X139587435Y-61605828D01*
X139593396Y-61629627D01*
X139596996Y-61653895D01*
X139598200Y-61678399D01*
X139598200Y-62578401D01*
X139596996Y-62602905D01*
X139593396Y-62627173D01*
X139587435Y-62650972D01*
X139579170Y-62674071D01*
X139568680Y-62696250D01*
X139556068Y-62717293D01*
X139541453Y-62736999D01*
X139524977Y-62755177D01*
X139506799Y-62771653D01*
X139487093Y-62786268D01*
X139466050Y-62798880D01*
X139443871Y-62809370D01*
X139420772Y-62817635D01*
X139396973Y-62823596D01*
X139372705Y-62827196D01*
X139348201Y-62828400D01*
X138698199Y-62828400D01*
X138673695Y-62827196D01*
X138649427Y-62823596D01*
X138625628Y-62817635D01*
X138602529Y-62809370D01*
X138580350Y-62798880D01*
X138559307Y-62786268D01*
X138539601Y-62771653D01*
X138521423Y-62755177D01*
X138504947Y-62736999D01*
X138490332Y-62717293D01*
X138477720Y-62696250D01*
X138467230Y-62674071D01*
X138458965Y-62650972D01*
X138453004Y-62627173D01*
X138449404Y-62602905D01*
X138448200Y-62578401D01*
X138448200Y-61678399D01*
X138449404Y-61653895D01*
X138453004Y-61629627D01*
X138458965Y-61605828D01*
X138467230Y-61582729D01*
X138477720Y-61560550D01*
X138490332Y-61539507D01*
X138504947Y-61519801D01*
X138521423Y-61501623D01*
X138539601Y-61485147D01*
X138559307Y-61470532D01*
X138580350Y-61457920D01*
X138602529Y-61447430D01*
X138625628Y-61439165D01*
X138649427Y-61433204D01*
X138673695Y-61429604D01*
X138698199Y-61428400D01*
X139348201Y-61428400D01*
X139372705Y-61429604D01*
X139372705Y-61429604D01*
G37*
D13*
X139023200Y-62128400D03*
D10*
G36*
X137322705Y-61429604D02*
G01*
X137346973Y-61433204D01*
X137370772Y-61439165D01*
X137393871Y-61447430D01*
X137416050Y-61457920D01*
X137437093Y-61470532D01*
X137456799Y-61485147D01*
X137474977Y-61501623D01*
X137491453Y-61519801D01*
X137506068Y-61539507D01*
X137518680Y-61560550D01*
X137529170Y-61582729D01*
X137537435Y-61605828D01*
X137543396Y-61629627D01*
X137546996Y-61653895D01*
X137548200Y-61678399D01*
X137548200Y-62578401D01*
X137546996Y-62602905D01*
X137543396Y-62627173D01*
X137537435Y-62650972D01*
X137529170Y-62674071D01*
X137518680Y-62696250D01*
X137506068Y-62717293D01*
X137491453Y-62736999D01*
X137474977Y-62755177D01*
X137456799Y-62771653D01*
X137437093Y-62786268D01*
X137416050Y-62798880D01*
X137393871Y-62809370D01*
X137370772Y-62817635D01*
X137346973Y-62823596D01*
X137322705Y-62827196D01*
X137298201Y-62828400D01*
X136648199Y-62828400D01*
X136623695Y-62827196D01*
X136599427Y-62823596D01*
X136575628Y-62817635D01*
X136552529Y-62809370D01*
X136530350Y-62798880D01*
X136509307Y-62786268D01*
X136489601Y-62771653D01*
X136471423Y-62755177D01*
X136454947Y-62736999D01*
X136440332Y-62717293D01*
X136427720Y-62696250D01*
X136417230Y-62674071D01*
X136408965Y-62650972D01*
X136403004Y-62627173D01*
X136399404Y-62602905D01*
X136398200Y-62578401D01*
X136398200Y-61678399D01*
X136399404Y-61653895D01*
X136403004Y-61629627D01*
X136408965Y-61605828D01*
X136417230Y-61582729D01*
X136427720Y-61560550D01*
X136440332Y-61539507D01*
X136454947Y-61519801D01*
X136471423Y-61501623D01*
X136489601Y-61485147D01*
X136509307Y-61470532D01*
X136530350Y-61457920D01*
X136552529Y-61447430D01*
X136575628Y-61439165D01*
X136599427Y-61433204D01*
X136623695Y-61429604D01*
X136648199Y-61428400D01*
X137298201Y-61428400D01*
X137322705Y-61429604D01*
X137322705Y-61429604D01*
G37*
D13*
X136973200Y-62128400D03*
D10*
G36*
X137525905Y-77965004D02*
G01*
X137550173Y-77968604D01*
X137573972Y-77974565D01*
X137597071Y-77982830D01*
X137619250Y-77993320D01*
X137640293Y-78005932D01*
X137659999Y-78020547D01*
X137678177Y-78037023D01*
X137694653Y-78055201D01*
X137709268Y-78074907D01*
X137721880Y-78095950D01*
X137732370Y-78118129D01*
X137740635Y-78141228D01*
X137746596Y-78165027D01*
X137750196Y-78189295D01*
X137751400Y-78213799D01*
X137751400Y-79113801D01*
X137750196Y-79138305D01*
X137746596Y-79162573D01*
X137740635Y-79186372D01*
X137732370Y-79209471D01*
X137721880Y-79231650D01*
X137709268Y-79252693D01*
X137694653Y-79272399D01*
X137678177Y-79290577D01*
X137659999Y-79307053D01*
X137640293Y-79321668D01*
X137619250Y-79334280D01*
X137597071Y-79344770D01*
X137573972Y-79353035D01*
X137550173Y-79358996D01*
X137525905Y-79362596D01*
X137501401Y-79363800D01*
X136851399Y-79363800D01*
X136826895Y-79362596D01*
X136802627Y-79358996D01*
X136778828Y-79353035D01*
X136755729Y-79344770D01*
X136733550Y-79334280D01*
X136712507Y-79321668D01*
X136692801Y-79307053D01*
X136674623Y-79290577D01*
X136658147Y-79272399D01*
X136643532Y-79252693D01*
X136630920Y-79231650D01*
X136620430Y-79209471D01*
X136612165Y-79186372D01*
X136606204Y-79162573D01*
X136602604Y-79138305D01*
X136601400Y-79113801D01*
X136601400Y-78213799D01*
X136602604Y-78189295D01*
X136606204Y-78165027D01*
X136612165Y-78141228D01*
X136620430Y-78118129D01*
X136630920Y-78095950D01*
X136643532Y-78074907D01*
X136658147Y-78055201D01*
X136674623Y-78037023D01*
X136692801Y-78020547D01*
X136712507Y-78005932D01*
X136733550Y-77993320D01*
X136755729Y-77982830D01*
X136778828Y-77974565D01*
X136802627Y-77968604D01*
X136826895Y-77965004D01*
X136851399Y-77963800D01*
X137501401Y-77963800D01*
X137525905Y-77965004D01*
X137525905Y-77965004D01*
G37*
D13*
X137176400Y-78663800D03*
D10*
G36*
X139575905Y-77965004D02*
G01*
X139600173Y-77968604D01*
X139623972Y-77974565D01*
X139647071Y-77982830D01*
X139669250Y-77993320D01*
X139690293Y-78005932D01*
X139709999Y-78020547D01*
X139728177Y-78037023D01*
X139744653Y-78055201D01*
X139759268Y-78074907D01*
X139771880Y-78095950D01*
X139782370Y-78118129D01*
X139790635Y-78141228D01*
X139796596Y-78165027D01*
X139800196Y-78189295D01*
X139801400Y-78213799D01*
X139801400Y-79113801D01*
X139800196Y-79138305D01*
X139796596Y-79162573D01*
X139790635Y-79186372D01*
X139782370Y-79209471D01*
X139771880Y-79231650D01*
X139759268Y-79252693D01*
X139744653Y-79272399D01*
X139728177Y-79290577D01*
X139709999Y-79307053D01*
X139690293Y-79321668D01*
X139669250Y-79334280D01*
X139647071Y-79344770D01*
X139623972Y-79353035D01*
X139600173Y-79358996D01*
X139575905Y-79362596D01*
X139551401Y-79363800D01*
X138901399Y-79363800D01*
X138876895Y-79362596D01*
X138852627Y-79358996D01*
X138828828Y-79353035D01*
X138805729Y-79344770D01*
X138783550Y-79334280D01*
X138762507Y-79321668D01*
X138742801Y-79307053D01*
X138724623Y-79290577D01*
X138708147Y-79272399D01*
X138693532Y-79252693D01*
X138680920Y-79231650D01*
X138670430Y-79209471D01*
X138662165Y-79186372D01*
X138656204Y-79162573D01*
X138652604Y-79138305D01*
X138651400Y-79113801D01*
X138651400Y-78213799D01*
X138652604Y-78189295D01*
X138656204Y-78165027D01*
X138662165Y-78141228D01*
X138670430Y-78118129D01*
X138680920Y-78095950D01*
X138693532Y-78074907D01*
X138708147Y-78055201D01*
X138724623Y-78037023D01*
X138742801Y-78020547D01*
X138762507Y-78005932D01*
X138783550Y-77993320D01*
X138805729Y-77982830D01*
X138828828Y-77974565D01*
X138852627Y-77968604D01*
X138876895Y-77965004D01*
X138901399Y-77963800D01*
X139551401Y-77963800D01*
X139575905Y-77965004D01*
X139575905Y-77965004D01*
G37*
D13*
X139226400Y-78663800D03*
D14*
X138074400Y-48488600D03*
D15*
X137176400Y-90788600D02*
X137176400Y-78663800D01*
X132181600Y-98526600D02*
X132181600Y-95783400D01*
X132181600Y-95783400D02*
X137176400Y-90788600D01*
X132181600Y-102768400D02*
X132181600Y-98526600D01*
X128905000Y-106045000D02*
X132181600Y-102768400D01*
X120650000Y-106045000D02*
X128905000Y-106045000D01*
X116941600Y-98526600D02*
X116941600Y-102336600D01*
X116941600Y-102336600D02*
X120650000Y-106045000D01*
X124561600Y-71653400D02*
X124561600Y-98526600D01*
X136973200Y-62128400D02*
X134086600Y-62128400D01*
X134086600Y-62128400D02*
X124561600Y-71653400D01*
X140893800Y-63119000D02*
X139903200Y-62128400D01*
X140893800Y-77671400D02*
X140893800Y-63119000D01*
X139226400Y-78663800D02*
X139901400Y-78663800D01*
X139903200Y-62128400D02*
X139023200Y-62128400D01*
X139901400Y-78663800D02*
X140893800Y-77671400D01*
M02*
