<?xml version="1.0" encoding="iso-8859-1"?>
<!-- Generator: Adobe Illustrator 19.2.0, SVG Export Plug-In . SVG Version: 6.00 Build 0)  -->
<svg xmlns="http://www.w3.org/2000/svg" xmlns:xlink="http://www.w3.org/1999/xlink" version="1.1" id="Layer_1" x="0px" y="0px" viewBox="0 0 40 40" style="enable-background:new 0 0 40 40;" xml:space="preserve">
<g>
	<path style="fill:#DFF0FE;" d="M31,24.5c-1.93,0-3.5-1.57-3.5-3.5s1.57-3.5,3.5-3.5c2.519,0,3.5,0.607,3.5,2.167   C34.5,21.777,32.803,24.5,31,24.5z"/>
	<g>
		<path style="fill:#4788C7;" d="M31,18c2.771,0,3,0.788,3,1.667C34,21.479,32.488,24,31,24c-1.654,0-3-1.346-3-3S29.346,18,31,18     M31,17c-2.209,0-4,1.791-4,4s1.791,4,4,4s4-3.124,4-5.333S33.209,17,31,17L31,17z"/>
	</g>
</g>
<g>
	<path style="fill:#DFF0FE;" d="M9,24.5c-1.803,0-3.5-2.723-3.5-4.833C5.5,18.107,6.481,17.5,9,17.5c1.93,0,3.5,1.57,3.5,3.5   S10.93,24.5,9,24.5z"/>
	<g>
		<path style="fill:#4788C7;" d="M9,18c1.654,0,3,1.346,3,3s-1.346,3-3,3c-1.488,0-3-2.521-3-4.333C6,18.788,6.229,18,9,18 M9,17    c-2.209,0-4,0.458-4,2.667S6.791,25,9,25s4-1.791,4-4S11.209,17,9,17L9,17z"/>
	</g>
</g>
<g>
	<g>
		<path style="fill:#FFFFFF;" d="M20,37.5c-5.589,0-11.5-7.118-11.5-10.946V13.5h23v13.054C31.5,30.382,25.589,37.5,20,37.5z"/>
	</g>
	<g>
		<path style="fill:#4788C7;" d="M31,14v12.554C31,30.207,25.346,37,20,37S9,30.207,9,26.554V14H31 M32,13H8v13.554    C8,30.733,14.109,38,20,38s12-7.267,12-11.446V13L32,13z"/>
	</g>
</g>
<g>
	<path style="fill:#98CCFD;" d="M24,23.5c-0.692,0-1.357-0.421-1.735-1.1l-1.074-3.244l-0.028-0.047   c-0.229-0.38-0.648-0.617-1.096-0.617c-0.452,0-0.843,0.243-1.047,0.65c-0.641,1.191-1.297,3.262-1.324,3.35   C17.441,23.054,16.721,23.5,16,23.5h-4.071c-0.758,0-1.387-0.464-1.603-1.182L8.5,17.901V17.5h23v0.4l-1.81,4.37   c-0.232,0.766-0.861,1.229-1.619,1.229H24z"/>
	<g>
		<path style="fill:#4788C7;" d="M30.918,18l-1.689,4.079l-0.019,0.047l-0.015,0.048C29.044,22.676,28.603,23,28.071,23H24    c-0.488,0-0.962-0.293-1.255-0.771l-1.062-3.179l-0.035-0.104l-0.056-0.094c-0.291-0.484-0.803-0.801-1.364-0.852H30.918     M19.905,18c-0.576,0.053-1.066,0.386-1.319,0.893c-0.614,1.139-1.227,3.008-1.348,3.385C17.03,22.692,16.507,23,16,23h-4.071    c-0.532,0-0.973-0.324-1.123-0.825l-0.015-0.048l-0.019-0.047L9.082,18H19.905 M32,17H8v1l1.848,4.462    C10.119,23.367,10.933,24,11.929,24H16c0.905,0,1.81-0.543,2.171-1.357c0,0,0.662-2.1,1.296-3.276    c0.13-0.259,0.362-0.374,0.6-0.374c0.26,0,0.525,0.138,0.667,0.374l1.095,3.276C22.281,23.457,23.095,24,24,24h4.071    c0.995,0,1.81-0.633,2.081-1.538L32,18V17L32,17z"/>
	</g>
</g>
<rect x="15" y="30" style="fill:#4788C7;" width="10" height="1"/>
<g>
	<path style="fill:#B6DCFE;" d="M22.8,27h-5.6c-2.31,0-4.2,1.8-4.2,4v2.667c0,0,0,5.333,5.6,5.333h2.8c5.542,0,5.6-5.333,5.6-5.333   V31C27,28.8,25.11,27,22.8,27z M24,34l-3,1v-4h-2v4l-3-1v-3c0-0.736,0.227-1,1-1h6c0.773,0,1,0.264,1,1V34z"/>
</g>
<g>
	<path style="fill:#4788C7;" d="M31,14v12.554c0,2.194-2.105,5.573-4.897,7.86l-0.239,0.196l-0.087,0.297   C25.176,36.959,23.703,38,21.4,38h-2.8c-2.334,0-3.812-1.043-4.393-3.1l-0.085-0.302L13.88,34.4C11.098,32.114,9,28.741,9,26.554   V14H31 M32,13H8v13.554c0,2.51,2.209,6.124,5.245,8.618C13.69,36.75,14.959,39,18.6,39h2.8c3.592,0,4.875-2.236,5.337-3.813   C29.782,32.693,32,29.069,32,26.554V13L32,13z"/>
</g>
<rect x="8" y="11" style="fill:#4788C7;" width="24" height="1"/>
<g>
	<path style="fill:#98CCFD;" d="M20,15.429c-15.46,0-18.173-3.079-18.5-3.558V11.5h6.952l1-10h21.096l1,10H38.5v0.383   C38.227,12.301,35.661,15.429,20,15.429z"/>
	<g>
		<path style="fill:#4788C7;" d="M30.095,2l0.91,9.1l0.09,0.9H32h5.686c-1.113,0.888-5.048,2.929-17.686,2.929    C7.456,14.929,3.475,12.898,2.329,12H8h0.905l0.09-0.9L9.905,2H20.01H30.095 M31,1c0,0-7.1,0-10.99,0S9,1,9,1L8,11H1v1    c0,0,1.442,3.929,19,3.929C37.643,15.929,39,12,39,12v-1h-7L31,1L31,1z"/>
	</g>
</g>
<polygon style="fill:#DFF0FE;" points="9.005,11 30.995,11 30.595,7 9.405,7 "/>
</svg>
