<?xml version="1.0" encoding="UTF-8" standalone="no"?>
<!-- Created with Inkscape (http://www.inkscape.org/) -->

<svg
   xmlns:dc="http://purl.org/dc/elements/1.1/"
   xmlns:cc="http://creativecommons.org/ns#"
   xmlns:rdf="http://www.w3.org/1999/02/22-rdf-syntax-ns#"
   xmlns:svg="http://www.w3.org/2000/svg"
   xmlns="http://www.w3.org/2000/svg"
   xmlns:sodipodi="http://sodipodi.sourceforge.net/DTD/sodipodi-0.dtd"
   xmlns:inkscape="http://www.inkscape.org/namespaces/inkscape"
   width="52.685829mm"
   height="40.527267mm"
   viewBox="0 0 186.68208 143.60055"
   id="svg2"
   version="1.1"
   inkscape:version="0.91 r13725"
   sodipodi:docname="Base.svg">
  <defs
     id="defs4" />
  <sodipodi:namedview
     id="base"
     pagecolor="#ffffff"
     bordercolor="#666666"
     borderopacity="1.0"
     inkscape:pageopacity="0.0"
     inkscape:pageshadow="2"
     inkscape:zoom="0.98994949"
     inkscape:cx="27.700508"
     inkscape:cy="61.779698"
     inkscape:document-units="mm"
     inkscape:current-layer="layer3"
     showgrid="false"
     fit-margin-top="0"
     fit-margin-left="0"
     fit-margin-right="0"
     fit-margin-bottom="0"
     inkscape:window-width="1372"
     inkscape:window-height="984"
     inkscape:window-x="542"
     inkscape:window-y="35"
     inkscape:window-maximized="0" />
  <metadata
     id="metadata7">
    <rdf:RDF>
      <cc:Work
         rdf:about="">
        <dc:format>image/svg+xml</dc:format>
        <dc:type
           rdf:resource="http://purl.org/dc/dcmitype/StillImage" />
        <dc:title></dc:title>
      </cc:Work>
    </rdf:RDF>
  </metadata>
  <g
     inkscape:label="Base"
     inkscape:groupmode="layer"
     id="layer1"
     transform="translate(4.5854926,-889.78819)">
    <path
       inkscape:connector-curvature="0"
       id="path4206"
       d="m -130.37778,1615.4127 c -16.27596,-2.3204 -22.09963,-4.1314 -34.49964,-10.729 -1.87405,-0.9971 -7.34885,-3.3618 -12.16622,-5.2549 -19.14641,-7.5239 -35.80036,-20.6336 -41.15478,-32.3963 -0.95971,-2.1083 -2.10079,-4.4989 -2.53574,-5.3125 -0.43495,-0.8135 -0.79081,-3.9434 -0.79081,-6.9553 0,-5.4477 0.0206,-5.4942 3.95621,-8.9585 2.17592,-1.9154 5.53005,-3.9028 7.45363,-4.4167 1.92357,-0.5138 5.10668,-1.4951 7.07358,-2.1805 3.9645,-1.3817 3.88953,-1.1628 4.88195,-14.2539 1.42027,-18.7349 13.9381,-36.7459 32.04724,-46.1105 1.53046,-0.7914 5.40037,-2.1644 8.5998,-3.051 10.94973,-3.0343 37.86845,-1.7297 50.50872,2.448 20.351785,6.7263 37.474855,27.1832 42.212445,50.4309 0.98899,4.853 2.15407,9.4887 2.58906,10.3015 0.43501,0.8128 3.38579,3.1077 6.55731,5.0998 7.56758,4.7532 9.79354,6.6616 14.47857,12.4129 4.32821,5.3134 5.24879,8.4003 5.3043,17.7864 0.0299,5.0512 -0.37008,6.7444 -2.61591,11.074 -5.05532,9.7458 -13.7665,16.772 -27.28988,22.011 -14.6589,5.6789 -20.63726,6.8667 -41.414525,8.2286 -14.48961,0.9498 -15.35928,0.9432 -23.19531,-0.174 z m 0.79267,-25.7758 c 11.05538,-5.7169 10.96354,-22.2306 -0.15357,-27.6123 -13.13565,-6.3588 -25.72883,5.661 -20.70101,19.7586 1.41478,3.9669 3.16101,5.9784 6.709,7.7282 3.42261,1.6879 10.99437,1.7551 14.14558,0.1255 z m -11.66101,-5.8446 c -6.03395,-3.3511 -6.48724,-12.4766 -0.79223,-15.9491 3.44202,-2.0987 6.25137,-2.0977 9.69764,0 4.05406,2.4719 5.68433,5.4264 5.08274,9.2113 -1.00383,6.3155 -8.36284,9.8583 -13.98815,6.7342 z"
       style="fill:#b4b4b4" />
    <path
       inkscape:connector-curvature="0"
       id="path4204"
       d="m 654.08483,766.4705 c -6.44597,-0.5722 -21.30039,-3.94557 -24.26491,-5.51047 -1.63286,-0.862 -3.39426,-1.5673 -3.91423,-1.5673 -0.51997,0 -1.6195,-0.7448 -2.4434,-1.6552 -0.8239,-0.9104 -3.66245,-2.4208 -6.30788,-3.3565 -14.87975,-5.2627 -17.70687,-6.6706 -30.50092,-15.1893 -10.43567,-6.94835 -15.06651,-11.96754 -20.29293,-21.9945 -2.43071,-4.66337 -2.99701,-6.69084 -2.99701,-10.73004 0,-7.36551 3.60095,-10.77818 15.00796,-14.22323 3.33499,-1.00721 6.44532,-2.31475 6.91186,-2.90567 0.46653,-0.5909 1.07549,-4.90767 1.35323,-9.5928 0.81632,-13.77008 4.4143,-22.76986 13.70194,-34.2732 4.37393,-5.41741 7.16195,-7.90634 12.64201,-11.28587 3.86681,-2.38464 9.13887,-4.91351 11.71569,-5.6197 2.57683,-0.7062 5.38286,-1.67062 6.23562,-2.14317 2.12567,-1.17789 21.20494,-0.85564 32.09731,0.54213 16.88555,2.16685 25.27638,6.14463 37.13799,17.60575 6.72466,6.49761 8.37528,8.69878 12.48235,16.64577 4.50253,8.71217 6.13128,13.458 8.25908,24.06527 0.51691,2.57682 1.21787,5.09207 1.55768,5.58943 0.3398,0.49736 4.16217,3.31739 8.49414,6.26673 7.21257,4.91055 12.16903,9.74871 15.84211,15.46398 0.89316,1.38973 1.60646,4.9871 1.95081,9.83831 0.59225,8.3437 -0.48292,12.18305 -5.40975,19.31811 -2.44517,3.5411 -10.86028,10.5486 -15.57435,12.9691 -5.62108,2.8863 -17.4075,7.2028 -24.2488,8.8806 -11.45779,2.80987 -34.79845,4.16107 -49.4356,2.86177 z m 3.0912,-26.28377 c 3.70998,-2.3735 6.71238,-8.11842 6.68628,-12.79402 -0.0263,-4.71246 -2.6446,-9.9378 -6.42405,-12.82055 -2.84876,-2.17286 -3.91728,-2.45664 -9.25002,-2.45664 -4.95287,0 -6.5269,0.35497 -8.81699,1.98838 -5.30803,3.786 -7.45701,11.37721 -5.32508,18.81087 2.56281,8.93596 14.60876,12.72316 23.12986,7.27196 z m -15.10219,-6.68998 c -3.2627,-3.2627 -3.8424,-7.28449 -1.65867,-11.50738 3.17966,-6.14876 12.74235,-5.10904 16.30085,1.77238 2.91301,5.63314 -1.72327,12.63128 -8.36824,12.63128 -2.70549,0 -3.95406,-0.5763 -6.27394,-2.89628 z"
       style="fill:#9f9f9f" />
    <path
       inkscape:connector-curvature="0"
       id="path4202"
       d="m 468.69169,1243.6168 c -4.21663,-0.6295 -9.7749,-1.6107 -12.35173,-2.1804 -4.80582,-1.0625 -14.85776,-5.3386 -15.68106,-6.6707 -0.25324,-0.4098 -3.63269,-1.9724 -7.5099,-3.4725 -14.16365,-5.4802 -18.50546,-7.6543 -28.26213,-14.1519 -11.32151,-7.5399 -19.88334,-16.7001 -21.45237,-22.9515 -0.2861,-1.14 -1.05757,-2.5186 -1.71437,-3.0637 -0.81501,-0.6764 -1.17872,-2.7837 -1.14546,-6.6368 l 0.0487,-5.6456 4.34133,-3.5871 c 3.1582,-2.6095 5.64053,-3.8556 9.10859,-4.5723 2.62199,-0.5418 5.76277,-1.6911 6.97951,-2.5539 2.06688,-1.4657 2.246,-2.1449 2.72583,-10.335 0.82089,-14.0118 4.36792,-22.935 13.72228,-34.521 4.37394,-5.4174 7.16195,-7.9063 12.64202,-11.2858 3.8668,-2.3847 9.13887,-4.9135 11.71569,-5.6197 2.57682,-0.7062 5.38285,-1.6706 6.23561,-2.1432 2.12567,-1.1779 21.20494,-0.8556 32.09732,0.5421 16.91785,2.171 25.27197,6.1404 37.21889,17.684 7.27256,7.0271 8.19442,8.3138 12.94219,18.0638 3.04799,6.2593 5.52042,12.6766 6.12381,15.8945 2.2683,12.0969 2.57302,12.598 11.06934,18.2 9.57124,6.3109 16.95621,14.8894 17.94431,20.8445 1.47249,8.8745 0.95553,12.444 -2.84199,19.6225 -5.30858,10.035 -12.96983,15.8589 -28.67838,21.8003 -10.4282,3.9443 -15.9499,5.2387 -26.94512,6.3165 -14.99529,1.4699 -30.19724,1.6376 -38.33293,0.4229 z m 5.04537,-24.6529 c 9.97582,-5.8463 10.27299,-20.4783 0.55532,-27.3425 -3.08565,-2.1796 -4.39939,-2.5556 -8.93069,-2.5556 -6.79845,0 -11.33198,2.7328 -14.13317,8.5192 -1.62642,3.3598 -1.82216,4.7296 -1.31654,9.2136 0.65923,5.8462 3.05064,9.8082 7.59146,12.577 3.97851,2.426 11.72676,2.2295 16.23362,-0.4117 z m -10.15643,-5.3763 c -2.56245,-0.6166 -6.2391,-4.4381 -6.82166,-7.0904 -0.64197,-2.9229 1.40537,-8.0358 3.71209,-9.2703 2.39854,-1.2837 5.73661,-1.1474 8.63714,0.3525 7.07284,3.6575 6.78982,12.3819 -0.50048,15.428 -1.56352,0.6533 -2.95091,1.1434 -3.08309,1.089 -0.13217,-0.054 -1.00697,-0.2833 -1.944,-0.5088 z"
       style="fill:#909090" />
    <path
       inkscape:connector-curvature="0"
       id="path4200"
       d="m 497.9371,944.9535 c -11.4578,-1.6177 -20.18614,-3.70127 -25.28606,-6.03617 -2.89726,-1.3265 -5.47494,-2.747 -5.72818,-3.1568 -0.25323,-0.4098 -3.63268,-1.9724 -7.50989,-3.4725 -14.17607,-5.4849 -18.50912,-7.6567 -28.34198,-14.2052 -11.28313,-7.51423 -16.37812,-13.00671 -21.29356,-22.95481 -4.09454,-8.28671 -4.16003,-13.41663 -0.21903,-17.1566 3.46941,-3.29243 7.16311,-5.17059 13.29996,-6.76271 2.64094,-0.68515 5.26186,-1.70703 5.82427,-2.27084 0.56242,-0.56381 1.23867,-3.70842 1.50277,-6.98801 0.70928,-8.80747 1.27615,-12.30296 2.76292,-17.03686 5.79321,-18.4457 22.12377,-34.49999 38.63485,-37.98124 2.54757,-0.53713 5.11587,-1.36607 5.70735,-1.84206 1.26368,-1.01697 19.28749,-0.3598 29.59094,1.07892 16.62115,2.3209 24.81298,6.39575 36.69416,18.25272 7.43034,7.4152 9.15949,9.71015 12.87241,17.08429 4.09615,8.13528 6.28166,14.96609 7.51804,23.49771 0.31127,2.14793 0.81944,4.2948 1.12924,4.77084 0.30982,0.47603 3.91922,3.06749 8.02089,5.75879 7.92681,5.20118 15.3422,12.6319 17.41872,17.45475 0.69315,1.60988 1.47066,5.70898 1.72781,9.10906 0.44592,5.89618 0.31735,6.48191 -2.78096,12.66865 -3.46727,6.9235 -9.27173,13.0458 -16.24026,17.1296 -4.98139,2.9193 -17.11834,7.6577 -25.04568,9.7781 -10.81724,2.89337 -39.66412,4.77617 -50.25873,3.28037 z m 2.06392,-24.99477 c 9.97583,-5.84626 10.273,-20.47827 0.55533,-27.34253 -3.08565,-2.1796 -4.3994,-2.55552 -8.9307,-2.55552 -6.79844,0 -11.33197,2.73273 -14.13316,8.51921 -1.62643,3.35974 -1.82217,4.72957 -1.31655,9.21354 0.65924,5.84623 3.05064,9.8082 7.59146,12.577 3.97851,2.426 11.72677,2.2295 16.23362,-0.4117 z m -10.15643,-5.3763 c -2.56244,-0.61655 -6.23909,-4.43805 -6.82165,-7.09042 -0.64197,-2.92291 1.40536,-8.03574 3.71209,-9.27023 2.39854,-1.28369 5.7366,-1.14747 8.63714,0.35246 7.07284,3.65754 6.78982,12.38191 -0.50049,15.42803 -1.56352,0.65326 -2.9509,1.14336 -3.08308,1.08896 -0.13218,-0.054 -1.00698,-0.2833 -1.94401,-0.5088 z"
       style="fill:#727272" />
    <path
       inkscape:connector-curvature="0"
       id="path4198"
       d="m 164.16084,1374.8068 c -11.70693,-1.2374 -24.19277,-5.0936 -32.79595,-10.129 -1.17129,-0.6856 -4.81291,-2.2445 -8.09251,-3.4642 -10.16623,-3.781 -14.99602,-6.2777 -24.915288,-12.8798 -10.848951,-7.2209 -19.600161,-16.6208 -21.123164,-22.6889 -0.297116,-1.1838 -1.272394,-2.815 -2.167285,-3.6249 -1.236762,-1.1192 -1.62339,-2.6158 -1.611719,-6.2385 0.01436,-4.4579 0.220968,-4.9362 3.194411,-7.3964 4.152218,-3.4354 5.88756,-4.3184 12.500844,-6.361 7.468412,-2.3068 8.137861,-3.1295 8.155784,-10.0231 0.03559,-13.6892 5.923097,-28.3208 15.708907,-39.0397 6.71659,-7.3571 16.70041,-13.5931 24.31292,-15.1861 1.6398,-0.3432 4.22655,-1.2018 5.74835,-1.9081 5.21297,-2.4196 32.66351,0.2546 44.9363,4.3776 8.71994,2.9294 13.90812,6.3845 22.75633,15.1546 5.82392,5.7725 7.92183,8.6155 11.49648,15.5795 4.09928,7.986 5.45364,12.1103 8.11218,24.7034 l 1.079,5.1111 6.81474,4.471 c 12.09685,7.9365 17.87737,14.443 19.69562,22.1693 1.73191,7.3594 1.4667,9.4749 -2.11689,16.8853 -2.54033,5.253 -4.5172,7.9155 -8.66303,11.6673 -8.83237,7.9928 -25.49746,14.9517 -42.13757,17.5955 -6.22093,0.9884 -34.97643,1.85 -40.88846,1.2251 z m 2.35937,-23.9045 c 3.44123,-1.7345 7.26385,-7.4854 7.93053,-11.9312 2.69791,-17.9909 -22.10912,-26.5645 -30.31607,-10.4775 -4.4189,8.6618 0.0629,20.9273 8.60628,23.5535 3.49854,1.0754 10.53401,0.4909 13.77926,-1.1448 z m -13.92478,-8.7291 c -2.01236,-2.0124 -2.49,-3.2234 -2.49,-6.3131 0,-3.2539 0.40516,-4.164 2.72137,-6.113 3.37448,-2.8394 7.42072,-2.4805 11.03129,0.9787 3.1158,2.9851 3.63088,4.7689 2.42881,8.4111 -1.98198,6.0055 -9.1358,7.5919 -13.69147,3.0363 z"
       style="fill:#666666" />
    <path
       inkscape:connector-curvature="0"
       id="path4196"
       d="m -59.082872,1363.6951 c -11.706929,-1.2374 -24.192772,-5.0936 -32.795953,-10.129 -1.171284,-0.6856 -4.812912,-2.2445 -8.092508,-3.4642 -10.166227,-3.781 -14.996017,-6.2777 -24.915287,-12.8798 -10.69105,-7.1158 -19.13845,-16.1107 -21.06237,-22.4276 -0.35398,-1.1622 -1.31095,-2.8798 -2.1266,-3.8168 -1.06789,-1.2268 -1.45189,-3.0399 -1.37186,-6.4775 0.0966,-4.1469 0.44402,-5.0725 2.64572,-7.0477 3.44945,-3.0946 6.30445,-4.5622 12.7462,-6.5518 7.42773,-2.2942 8.09987,-3.1232 8.11778,-10.0113 0.0356,-13.6892 5.9231,-28.3209 15.70891,-39.0398 7.26239,-7.9549 15.090142,-12.6597 26.172727,-15.7308 10.875489,-3.0138 35.357218,-1.5008 48.824838,3.0173 8.71746,2.9246 13.90574,6.379 22.75633,15.1515 5.8239205,5.7725 7.9218305,8.6155 11.49648047,15.5795 4.09928003,7.986 5.45364003,12.1104 8.11218003,24.7034 l 1.079,5.1111 6.8147395,4.471 c 12.09685,7.9365 17.87737,14.443 19.69562,22.1693 1.73191,7.3595 1.4667,9.475 -2.11689,16.8853 -2.54033,5.253 -4.5172,7.9155 -8.66303,11.6673 -8.83237,7.9928 -25.4974595,14.9517 -42.13757,17.5955 -6.22093,0.9884 -34.97643,1.85 -40.888457,1.2251 z m 2.359366,-23.9045 c 3.441231,-1.7345 7.263851,-7.4854 7.930531,-11.9311 2.69791,-17.991 -22.109118,-26.5645 -30.31607,-10.4776 -4.418893,8.6618 0.06287,20.9273 8.606287,23.5535 3.498534,1.0754 10.534003,0.4909 13.779252,-1.1448 z m -13.924772,-8.7291 c -2.012361,-2.0124 -2.490003,-3.2234 -2.490003,-6.3131 0,-3.2539 0.405161,-4.164 2.721364,-6.113 3.374489,-2.8394 7.420729,-2.4805 11.031291,0.9787 3.115801,2.9851 3.630881,4.7689 2.428817,8.4112 -1.981983,6.0054 -9.1358,7.5918 -13.691469,3.0362 z m 60.9722935,-7.03 c 1.40554,-0.4864 3.70552,-1.3759 5.11106,-1.9766 1.40554,-0.6008 3.99562997,-1.7048 5.75576,-2.4535 1.76014,-0.7486 3.9267,-2.5556 4.81459,-4.0156 1.62423,-2.6709 3.16373,-9.8985 2.2937,-10.7686 -0.25702,-0.257 -1.99348,0.9115 -3.85881,2.5967 -5.57588,5.0375 -13.32548,8.2535 -28.2722705,11.7328 -4.39557,1.0232 -8.28207,2.1171 -8.63665,2.4311 -0.3546,0.3139 0.88642,1.3483 2.75781,2.2987 2.8231,1.4336 4.60112,1.6693 10.44091,1.3836 3.8711,-0.1893 8.18836,-0.7422 9.5939005,-1.2286 z"
       style="fill:#5d5d5d" />
    <path
       inkscape:connector-curvature="0"
       id="path4194"
       d="m 368.47927,1349.544 c -7.70358,-0.9303 -22.02352,-4.1593 -24.69083,-5.5675 -1.63286,-0.8621 -3.39426,-1.5674 -3.91423,-1.5674 -0.51997,0 -1.62675,-0.7528 -2.4595,-1.673 -0.83276,-0.9202 -3.28798,-2.3 -5.45605,-3.0662 -13.47403,-4.7616 -20.35506,-8.147 -31.08771,-15.2946 -10.43529,-6.9497 -15.19148,-11.8023 -19.38065,-19.7734 -1.42053,-2.703 -3.0726,-5.4895 -3.67126,-6.1923 -0.63665,-0.7473 -1.04334,-3.2594 -0.97973,-6.0516 0.0945,-4.1479 0.44108,-5.0722 2.64333,-7.0496 3.24132,-2.9105 7.68849,-5.2598 11.47892,-6.0639 3.48145,-0.7385 7.82318,-2.8134 8.71835,-4.1665 0.34421,-0.5202 0.63836,-3.4375 0.65367,-6.4829 0.0683,-13.5809 5.98974,-28.2274 15.72196,-38.8876 7.26238,-7.9549 15.09014,-12.6597 26.17272,-15.7309 10.87549,-3.0137 35.35722,-1.5007 48.82484,3.0174 8.69849,2.9182 13.87912,6.3618 22.79422,15.1515 6.39466,6.3047 7.67315,8.1226 11.93539,16.9716 2.73473,5.6777 5.20919,12.2267 5.79349,15.3332 2.42038,12.8686 2.32063,12.6835 9.3501,17.3484 8.51158,5.6484 9.88283,6.8201 14.73484,12.59 3.05105,3.6283 4.43134,6.1806 5.29367,9.7885 1.78744,7.4785 1.50431,9.6664 -2.21147,17.0904 -6.47267,12.9319 -18.74156,20.9612 -41.28311,27.0173 -8.37592,2.2504 -39.94201,4.3507 -48.98096,3.2591 z m 0.25526,-22.9967 c 7.24971,-3.6711 10.7488,-11.0746 9.02752,-19.1006 -2.90735,-13.5565 -20.96446,-18.2094 -29.12857,-7.5057 -3.43749,4.5068 -4.20582,7.3752 -3.57496,13.3467 0.46122,4.3656 1.07559,5.9561 3.26306,8.4475 1.48217,1.6881 3.84485,3.7705 5.25041,4.6278 3.27584,1.9977 11.38671,2.0963 15.16254,0.1843 z m -9.30671,-7.7252 c -2.6635,-0.5226 -5.43007,-3.8649 -5.97408,-7.2173 -0.64023,-3.9452 2.87327,-8.3805 6.63882,-8.3805 9.35807,0 12.82413,11.5065 4.51221,14.9795 -1.58704,0.663 -2.99367,1.1533 -3.12585,1.0896 -0.13217,-0.064 -1.05517,-0.2759 -2.0511,-0.4713 z m 57.18057,-8.9327 c 1.40554,-0.4864 3.70552,-1.3759 5.11106,-1.9767 1.40554,-0.6007 3.99563,-1.7047 5.75576,-2.4534 1.76014,-0.7486 3.9267,-2.5557 4.81459,-4.0157 1.62423,-2.6708 3.16373,-9.8985 2.2937,-10.7685 -0.25702,-0.257 -1.99348,0.9115 -3.85881,2.5967 -5.57588,5.0375 -13.32548,8.2535 -28.27227,11.7327 -4.39557,1.0232 -8.28207,2.1172 -8.63665,2.4311 -0.3546,0.3139 0.88642,1.3483 2.75781,2.2987 2.8231,1.4337 4.60112,1.6694 10.44091,1.3837 3.8711,-0.1893 8.18836,-0.7423 9.5939,-1.2286 z"
       style="fill:#575757" />
    <path
       inkscape:connector-curvature="0"
       id="path4192"
       d="m -115.3838,1012.153 c -7.70358,-0.9303 -22.02352,-4.1592 -24.69083,-5.5674 -1.63286,-0.8621 -3.39426,-1.5674 -3.91423,-1.5674 -0.51997,0 -1.62674,-0.7528 -2.4595,-1.673 -0.83276,-0.9202 -3.28798,-2.3 -5.45605,-3.0662 -13.47403,-4.76164 -20.35506,-8.14704 -31.08771,-15.29464 -11.01873,-7.3383 -15.42335,-12.0188 -20.25553,-21.52453 -2.56073,-5.03738 -3.28335,-7.43366 -3.28335,-10.88789 0,-4.03852 0.28218,-4.68391 3.20066,-7.32059 3.39961,-3.07133 5.27203,-3.95468 13.41028,-6.3265 2.81108,-0.81926 5.27212,-1.61794 5.46898,-1.77482 0.19686,-0.15688 0.63853,-4.21675 0.9815,-9.02192 0.75606,-10.5927 2.45524,-16.83906 6.95256,-25.55822 5.4085,-10.4857 17.39987,-21.56608 27.70962,-25.60451 5.2584,-2.05976 17.30114,-3.98544 24.80379,-3.96622 7.99829,0.0205 22.78211,1.97495 29.06403,3.84232 9.70873,2.88604 20.98192,10.7424 28.68772,19.99266 5.56622,6.68184 12.59122,20.90307 13.98101,28.30281 2.39933,12.7748 2.30996,12.60946 9.33408,17.27078 8.51118,5.64818 9.88291,6.82019 14.73309,12.588 4.65155,5.53161 7.0427,12.90573 6.11944,18.87183 -0.89399,5.77699 -6.19382,14.6256 -11.79683,19.696 -9.56006,8.65144 -28.54253,15.85054 -46.15125,17.50294 -10.11575,0.9493 -31.13759,1.5954 -35.35148,1.0865 z m 0.25526,-22.99664 c 7.24971,-3.6711 10.7488,-11.07456 9.02752,-19.10056 -2.90735,-13.55658 -20.96445,-18.20945 -29.12857,-7.50574 -3.43749,4.50678 -4.20582,7.37524 -3.57496,13.34673 0.46122,4.36559 1.07559,5.95607 3.26306,8.44747 1.48217,1.6881 3.84485,3.7705 5.25041,4.6278 3.27584,1.9977 11.38671,2.0963 15.16254,0.1843 z m -9.30671,-7.72525 c -2.6635,-0.52256 -5.43007,-3.86485 -5.97408,-7.21723 -0.64023,-3.94519 2.87328,-8.38049 6.63882,-8.38049 9.35807,0 12.82413,11.50642 4.51221,14.97942 -1.58704,0.66307 -2.99367,1.15335 -3.12585,1.08965 -0.13217,-0.064 -1.05517,-0.27591 -2.0511,-0.47135 z m 61.60756,-7.90197 c 8.5877,-2.8059 9.91263,-3.59566 11.50187,-6.85584 1.6664,-3.4185 3.38883,-13.08409 2.66688,-14.96546 -0.36479,-0.95063 -1.23258,-0.40269 -3.43238,2.16727 -4.94032,5.77167 -21.51883,12.3645 -35.47774,14.10853 -6.38812,0.79814 -6.91994,1.27082 -5.06763,4.50373 0.84172,1.46912 2.1054,2.83275 2.80817,3.03038 0.70277,0.19756 5.76155,0.25698 11.24173,0.13207 7.52042,-0.17153 11.38516,-0.69156 15.7591,-2.12068 z m -85.77799,-8.84383 c 0,-0.16294 -4.42107,-1.93457 -9.8246,-3.937 -13.52764,-5.01303 -20.31933,-9.58926 -24.8379,-16.73573 -0.98227,-1.55354 -1.01621,-1.55038 -1.06162,0.0988 -0.12123,4.40287 6.23045,10.53531 15.27344,14.74625 8.97206,4.1779 20.45068,7.44886 20.45068,5.82764 z"
       style="fill:#4a4a4a" />
    <path
       inkscape:connector-curvature="0"
       id="path4190"
       d="m 197.31328,738.65834 c -10.63866,-1.47157 -20.75548,-3.78277 -22.79374,-5.20717 -0.92415,-0.6458 -2.22962,-1.1742 -2.90105,-1.1742 -0.67143,0 -2.50382,-0.9786 -4.07199,-2.1747 -1.56817,-1.1961 -4.096,-2.5757 -5.61739,-3.0656 -17.25697,-5.558 -35.51582,-16.3694 -43.57292,-25.80031 -5.57264,-6.52287 -10.72974,-16.9146 -10.72974,-21.62082 0,-3.22702 0.42896,-4.1147 3.19441,-6.61043 3.19121,-2.87998 6.97001,-4.64323 13.44284,-6.27264 6.01444,-1.51403 6.30329,-2.01447 7.22463,-12.51685 1.44702,-16.49477 5.98062,-26.54727 17.02658,-37.7536 6.65907,-6.75575 14.78109,-11.59896 22.99976,-13.71493 5.9991,-1.54451 23.31837,-1.95597 33.22187,-0.78926 15.67816,1.84703 24.92313,5.77436 35.6439,15.14181 11.06269,9.66621 18.74892,23.41396 21.76949,38.93742 l 1.82329,9.37027 6.79794,4.48591 c 8.0877,5.33702 14.99761,11.82871 17.94612,16.85996 1.83675,3.13419 2.14057,4.69153 2.14057,10.97254 0,6.61828 -0.26419,7.81556 -2.75616,12.49103 -2.54702,4.7787 -6.54336,9.3019 -11.81035,13.3674 -4.76862,3.681 -18.05935,9.253 -28.96266,12.1424 -11.11249,2.94487 -38.37014,4.54267 -50.0154,2.93177 z m 2.72564,-22.49557 c 3.81272,-2.1432 7.91675,-8.03003 8.55217,-12.26737 1.55012,-10.33694 -6.83764,-20.10123 -17.31338,-20.15474 -8.01795,-0.041 -16.35567,7.68806 -16.35567,15.16165 0,7.37791 1.08945,10.65736 4.75974,14.32766 1.99783,1.9978 4.90665,3.9842 6.46404,4.4141 3.76033,1.038 10.73392,0.2945 13.8931,-1.4813 z m -12.93635,-9.01776 c -2.50472,-1.75438 -3.94804,-6.37505 -2.87385,-9.20038 1.2327,-3.24225 4.62419,-5.17545 7.92227,-4.51585 3.47667,0.69537 7.47449,4.49595 7.47449,7.1058 0,2.64112 -2.13135,6.69391 -3.87145,7.36169 -2.44761,0.93921 -6.77436,0.56351 -8.65146,-0.75126 z m 27.85608,7.29356 c 0,-1.005 -1.66139,-2.0802 -2.27158,-1.47 -0.61019,0.6102 0.46496,2.2715 1.47001,2.2715 0.44087,0 0.80157,-0.3607 0.80157,-0.8015 z m 2.67412,-9.44885 c -2.17321,-1.81048 -4.37781,-2.21139 -4.37781,-0.7961 0,0.94997 3.03894,2.40417 5.11106,2.44574 0.87598,0.0177 0.64543,-0.50109 -0.73325,-1.64964 z m 33.10328,-4.14691 c 2.57683,-0.98276 5.30427,-1.78703 6.06098,-1.78724 2.6103,0 5.8132,-3.45623 7.04334,-7.59857 1.74321,-5.87002 2.66687,-15.40164 1.49248,-15.40164 -0.51417,0 -1.17155,0.94306 -1.46083,2.09569 -0.60157,2.39683 -6.38765,7.43413 -10.66715,9.28671 -1.5921,0.68921 -4.23639,1.82841 -5.87619,2.53155 -3.14288,1.34765 -12.35826,3.86917 -16.1014,4.40562 -1.21727,0.17453 -4.02433,0.67262 -6.23791,1.10692 -2.21359,0.43438 -4.94779,0.61326 -6.07602,0.39758 -1.12822,-0.21562 -2.34488,0.0829 -2.70369,0.66348 -0.47471,0.76809 -0.0553,0.94139 1.53989,0.6365 1.80745,-0.34558 2.45914,0.0765 3.71258,2.4039 0.83617,1.55267 2.11076,2.98853 2.83243,3.1908 0.72167,0.20219 5.91208,0.25248 11.53424,0.11162 7.86366,-0.19701 11.30308,-0.66832 14.90725,-2.04292 z m -83.87709,-9.40667 c -0.23336,-0.37753 -1.29376,-0.68774 -2.35646,-0.68928 -1.0627,-10e-4 -3.4655,-0.68072 -5.33956,-1.50931 -1.87405,-0.8286 -3.97131,-1.62043 -4.66057,-1.75965 -2.71027,-0.54743 -11.95036,-4.84296 -11.95036,-5.55548 0,-0.4158 -0.54305,-0.756 -1.20678,-0.756 -0.66373,0 -1.33456,-0.30337 -1.49073,-0.67416 -0.15617,-0.37079 -1.74403,-1.77517 -3.52857,-3.12085 -1.78454,-1.34568 -3.85881,-3.62979 -4.60949,-5.07578 -1.67866,-3.23354 -2.55192,-1.47277 -1.05813,2.13355 2.22024,5.36015 12.95503,12.09045 25.52318,16.00205 7.98337,2.48467 11.81487,2.8453 10.67747,1.00491 z m 13.17413,-10.64537 c 0,-0.20661 -0.38333,-0.61255 -0.85184,-0.90211 -0.46851,-0.28956 -0.85184,-0.12051 -0.85184,0.37565 0,0.49616 0.38333,0.90211 0.85184,0.90211 0.46851,0 0.85184,-0.16904 0.85184,-0.37565 z m 17.03686,-0.85184 c 0,-0.20661 -0.38333,-0.61256 -0.85184,-0.90212 -0.46851,-0.28955 -0.85184,-0.12051 -0.85184,0.37565 0,0.49616 0.38333,0.90212 0.85184,0.90212 0.46851,0 0.85184,-0.16904 0.85184,-0.37565 z m -10.22211,-3.03172 c -0.50148,-0.93703 -1.10345,-1.70369 -1.33771,-1.70369 -0.23426,0 -0.0156,0.76666 0.48586,1.70369 0.50149,0.93702 1.10345,1.70368 1.33771,1.70368 0.23426,0 0.0156,-0.76666 -0.48586,-1.70368 z"
       style="fill:#444444" />
    <path
       inkscape:connector-curvature="0"
       id="path4188"
       d="m 411.46562,786.13551 c -10.63866,-1.47157 -20.75548,-3.78277 -22.79374,-5.20717 -0.92415,-0.6458 -2.22962,-1.1742 -2.90105,-1.1742 -0.67143,0 -2.50382,-0.9786 -4.07199,-2.1747 -1.56817,-1.1961 -4.096,-2.5757 -5.61739,-3.0656 -12.40912,-3.9967 -23.40187,-9.6657 -35.75768,-18.44046 -8.64481,-6.13926 -17.47781,-19.85622 -18.35272,-28.50028 -0.37967,-3.75112 -0.1965,-4.24638 2.4673,-6.67125 3.54573,-3.22768 8.18966,-5.39276 14.54746,-6.78225 2.90869,-0.6357 5.06371,-1.60426 5.37514,-2.4158 0.28591,-0.74508 0.87809,-5.43715 1.31595,-10.42685 1.40786,-16.04337 6.04468,-26.23318 16.99035,-37.33776 10.85363,-11.01121 22.57795,-15.38457 41.15711,-15.35227 17.37127,0.0302 31.8657,3.09465 41.04572,8.67802 5.91875,3.59983 14.44259,11.20716 18.33507,16.36362 6.00098,7.94963 11.087,19.55517 13.09712,29.88567 l 1.82329,9.37027 6.79794,4.48591 c 8.0877,5.33702 14.99761,11.82871 17.94612,16.85996 1.83675,3.13419 2.14057,4.69153 2.14057,10.97254 0,6.61828 -0.26419,7.81556 -2.75616,12.49103 -2.54702,4.7787 -6.54336,9.3019 -11.81035,13.3674 -4.76862,3.681 -18.05935,9.253 -28.96266,12.1424 -11.11249,2.94487 -38.37014,4.54267 -50.0154,2.93177 z m 2.72564,-22.49557 c 3.81272,-2.1432 7.91675,-8.03003 8.55217,-12.26737 1.55012,-10.33694 -6.83764,-20.10123 -17.31338,-20.15474 -8.01795,-0.041 -16.35567,7.68806 -16.35567,15.16165 0,7.37791 1.08945,10.65736 4.75974,14.32766 1.99783,1.9978 4.90665,3.9842 6.46404,4.4141 3.76033,1.038 10.73392,0.2945 13.8931,-1.4813 z m -12.93635,-9.01776 c -2.50472,-1.75438 -3.94804,-6.37505 -2.87385,-9.20038 1.2327,-3.24225 4.62419,-5.17545 7.92227,-4.51585 3.47667,0.69537 7.47449,4.49595 7.47449,7.1058 0,2.64112 -2.13135,6.69391 -3.87145,7.36169 -2.44761,0.93921 -6.77436,0.56351 -8.65146,-0.75126 z m 27.85608,7.29356 c 0,-1.005 -1.66139,-2.0802 -2.27158,-1.47 -0.61019,0.6102 0.46496,2.2715 1.47001,2.2715 0.44087,0 0.80157,-0.3607 0.80157,-0.8015 z m 27.75298,-5.6114 c 6.93384,-1.76564 15.28246,-6.10036 18.24274,-9.47195 1.35652,-1.54497 2.90667,-4.25704 3.44478,-6.02676 1.39476,-4.58701 2.11631,-17.2731 0.98246,-17.2731 -0.4957,0 -1.12281,0.69803 -1.39359,1.55118 -2.27308,7.16187 -19.24308,14.73433 -38.74448,17.28884 -8.53858,1.1185 -10.76341,1.74573 -7.94232,2.23925 1.05415,0.18441 1.91664,0.8145 1.91664,1.40023 0,1.23933 -3.84312,4.77945 -5.18852,4.77945 -1.98106,0 -0.0491,2.16436 2.70127,3.02629 1.60225,0.50211 4.63816,1.76652 6.74647,2.80977 4.31505,2.1354 9.95145,2.0406 19.23455,-0.3232 z m -76.43519,-16.88217 c 0.1015,-0.39668 -3.37416,-1.96466 -7.72369,-3.48439 -4.34953,-1.51973 -10.09023,-3.79999 -12.75711,-5.06724 -5.80709,-2.75942 -12.83072,-8.85944 -14.30837,-12.42679 -1.7014,-4.10755 -2.79923,-3.12328 -2.11292,1.89437 0.80939,5.91748 1.48746,7.54433 4.64188,11.13703 1.65346,1.88318 4.24325,3.54923 6.87682,4.42396 2.32349,0.77174 6.04307,2.38158 8.26575,3.57744 5.24076,2.8196 12.73225,3.79663 15.1723,1.97873 0.96844,-0.72147 1.84384,-1.63635 1.94534,-2.03311 z m 13.75665,-11.15423 c 0,-0.20661 -0.38333,-0.61255 -0.85184,-0.90211 -0.46851,-0.28956 -0.85184,-0.12051 -0.85184,0.37565 0,0.49616 0.38333,0.90211 0.85184,0.90211 0.46851,0 0.85184,-0.16904 0.85184,-0.37565 z m 17.03686,-0.85184 c 0,-0.20661 -0.38333,-0.61256 -0.85184,-0.90212 -0.46851,-0.28955 -0.85184,-0.12051 -0.85184,0.37565 0,0.49616 0.38333,0.90212 0.85184,0.90212 0.46851,0 0.85184,-0.16904 0.85184,-0.37565 z m -10.22211,-3.03172 c -0.50148,-0.93703 -1.10345,-1.70369 -1.33771,-1.70369 -0.23426,0 -0.0156,0.76666 0.48586,1.70369 0.50149,0.93702 1.10345,1.70368 1.33771,1.70368 0.23426,0 0.0156,-0.76666 -0.48586,-1.70368 z"
       style="fill:#2f2f2f" />
    <path
       inkscape:connector-curvature="0"
       id="path4186"
       d="m 439.50656,1084.618 c -12.97824,-1.4932 -24.81106,-4.8514 -29.92492,-8.4928 -1.30857,-0.9318 -4.40652,-2.4049 -6.88434,-3.2735 -15.52795,-5.4434 -29.74088,-13.7557 -38.64178,-22.5994 -6.00945,-5.9708 -8.88052,-10.5681 -11.9653,-19.1591 -1.96269,-5.466 -2.08592,-6.4281 -1.06717,-8.3317 1.69984,-3.1762 5.60966,-5.8162 11.57782,-7.8176 7.72942,-2.5922 7.5992,-2.6602 8.28802,4.3302 1.22117,12.393 6.18555,20.1962 16.24467,25.5339 6.51787,3.4586 21.51569,4.7178 24.15298,2.0279 1.28393,-1.3096 1.21294,-1.5551 -0.9556,-3.3052 -2.96351,-2.3917 -2.93655,-2.8385 0.21296,-3.5303 1.40555,-0.3087 2.55553,-0.8824 2.55553,-1.2749 0,-0.3926 -4.27326,-2.1377 -9.49614,-3.878 -18.22582,-6.0731 -27.13097,-11.9423 -29.41596,-19.3875 -1.12474,-3.6647 0.0452,-19.38223 1.97102,-26.47851 4.87286,-17.95603 19.59635,-33.59912 36.08924,-38.34333 11.69829,-3.36503 32.15427,-3.19061 45.99951,0.39222 11.19697,2.89752 16.44375,6.12659 26.87328,16.53881 8.09143,8.07801 9.89871,10.40982 12.89352,16.63556 4.06222,8.44471 5.02041,11.50221 6.64995,21.21955 0.66078,3.9402 1.6997,7.4861 2.30874,7.8796 0.60902,0.3936 3.79063,2.3359 7.07022,4.3162 7.35833,4.4431 15.2495,12.1283 17.46424,17.0084 2.61905,5.7709 2.32036,14.2847 -0.72715,20.7264 -5.82662,12.3163 -24.57697,23.5393 -46.12567,27.6086 -12.73316,2.4045 -32.37292,3.1243 -45.14767,1.6545 z m 2.96897,-21.972 c 3.81329,-2.1448 7.91681,-8.0314 8.55217,-12.2683 1.56299,-10.4227 -6.86186,-20.1277 -17.48404,-20.1407 -4.7194,-0.01 -9.50165,2.5752 -13.12258,7.0823 -2.49992,3.1118 -2.63227,3.6535 -2.55474,10.457 0.0756,6.6342 0.27337,7.4121 2.62253,10.3146 1.39743,1.7265 4.19428,4.0136 6.21523,5.0823 3.05831,1.6172 4.47547,1.8559 8.45142,1.4231 2.62733,-0.286 5.92134,-1.1636 7.32001,-1.9503 z m -12.93635,-9.0187 c -2.50472,-1.7543 -3.94804,-6.375 -2.87385,-9.2003 1.25705,-3.3064 4.58576,-5.1525 8.10099,-4.4931 3.26023,0.6117 7.29577,4.7131 7.29577,7.4149 0,2.3565 -2.22591,6.3983 -3.87145,7.0298 -2.44761,0.9392 -6.77436,0.5635 -8.65146,-0.7513 z m 29.00821,8.3628 c 0.32132,-0.3214 3.69565,-0.7027 7.49851,-0.8475 7.5956,-0.289 19.3206,-2.7843 25.10308,-5.3421 12.85337,-5.6857 17.26514,-11.7178 18.00031,-24.6116 0.28023,-4.9148 0.0814,-8.1486 -0.57653,-9.378 -1.22461,-2.2882 -2.31469,-1.7618 -3.0222,1.4594 -1.61265,7.3424 -17.04592,14.3714 -38.56647,17.5649 -4.79918,0.7122 -8.91996,1.2948 -9.15731,1.2948 -0.23733,0 -0.43152,0.3834 -0.43152,0.8519 0,0.4685 0.55237,0.8518 1.22749,0.8518 2.39274,0 2.19934,1.65 -0.34779,2.9671 -3.34632,1.7305 -3.3064,4.0687 0.11099,6.5021 l 2.69438,1.9185 -3.32648,0.9334 c -2.02158,0.5672 -3.44027,1.5242 -3.61657,2.4396 -0.50853,2.6407 2.69697,5.1088 4.41011,3.3957 z m -42.89243,-30.0821 c -1.66822,-1.0781 -2.7959,-1.0781 -2.12961,0 0.28956,0.4685 1.17468,0.8459 1.96692,0.8388 1.24137,-0.011 1.26386,-0.1272 0.16269,-0.8388 z m 6.81475,-4.5809 c 0,-0.1769 -0.58377,-0.8061 -1.29727,-1.3982 -1.08469,-0.9002 -1.20934,-0.8475 -0.7607,0.3216 0.4582,1.1941 2.05797,2.031 2.05797,1.0766 z m 17.03685,-0.9058 c 0,-0.2067 -0.38333,-0.6126 -0.85184,-0.9022 -0.46851,-0.2895 -0.85184,-0.1205 -0.85184,0.3757 0,0.4961 0.38333,0.9021 0.85184,0.9021 0.46851,0 0.85184,-0.169 0.85184,-0.3756 z m -10.22211,-3.0318 c -0.50148,-0.937 -1.10345,-1.7037 -1.33771,-1.7037 -0.23426,0 -0.0156,0.7667 0.48587,1.7037 0.50148,0.9371 1.10345,1.7037 1.3377,1.7037 0.23426,0 0.0156,-0.7666 -0.48586,-1.7037 z"
       style="fill:#191919" />
    <path
       inkscape:connector-curvature="0"
       id="path4184"
       d="m 88.073999,1028.4439 c -13.053919,-1.2901 -23.671609,-3.9514 -32.370029,-8.1131 -3.2796,-1.5691 -7.87955,-3.6371 -10.22212,-4.5956 -25.04179,-10.2463 -39.4853404,-22.22096 -46.04495036,-38.17446 -2.73645004,-6.65529 -2.67477004,-9.62319 0.2584,-12.43207 2.51526996,-2.40869 8.33613996,-5.21928 12.70021036,-6.13225 l 2.69107,-0.56297 0.61005,6.65246 c 0.91509,9.9788 3.12906,15.14919 8.93595,20.86853 5.1703,5.09232 14.71964,10.51127 22.69901,12.88089 2.41581,0.71739 5.38564,1.95517 6.59961,2.75057 1.81524,1.1894 2.44068,1.2525 3.52183,0.3552 1.80816,-1.5007 1.20718,-4.47165 -1.11018,-5.48834 -2.44515,-1.07271 -2.41018,-1.62123 0.21296,-3.33997 2.46345,-1.61414 2.71385,-3.55785 0.73942,-5.73952 -1.30169,-1.43839 -1.24305,-1.59213 0.92108,-2.41494 1.2712,-0.4833 2.16293,-1.32376 1.98163,-1.86765 -0.18131,-0.54395 -4.71659,-2.44397 -10.0784,-4.22232 -12.89566,-4.27709 -22.6717,-9.29569 -26.06348,-13.37989 -3.84103,-4.62514 -4.56091,-8.09188 -3.65926,-17.62202 1.68704,-17.83164 6.16782,-28.02641 17.02627,-38.73853 12.2928,-12.12715 20.19581,-14.94018 41.70658,-14.84519 7.730474,0.0341 15.972059,0.51227 18.314619,1.06252 10.043131,2.35903 16.185271,4.38148 17.098231,5.63002 0.53806,0.73585 1.75832,1.3379 2.71169,1.3379 1.62254,0 19.81153,16.61871 19.804,18.09429 -0.001,0.34733 1.33842,2.38917 2.97822,4.53743 1.6398,2.14825 2.98381,4.35571 2.9867,4.90546 0.003,0.54976 0.60551,2.14955 1.33917,3.55509 2.47309,4.73788 4.5918,12.19269 5.1392,18.08249 0.53661,5.77373 0.59209,5.88102 4.05791,7.84776 12.92779,7.33613 21.34329,15.14054 23.55618,21.84567 1.48426,4.49736 0.71157,13.68302 -1.53448,18.24188 -6.02661,12.23236 -26.11696,23.93216 -47.51667,27.67196 -9.02733,1.5776 -30.386441,2.2979 -39.990421,1.3487 z m 1.0016,-21.8356 c 5.20548,-3.0318 8.35744,-9.73568 7.67702,-16.32833 -1.48572,-14.39526 -18.922349,-20.86985 -29.035039,-10.78131 -4.22825,4.21816 -5.73627,8.71364 -4.92151,14.6713 0.88415,6.46504 3.81664,11.01724 8.75741,13.59444 3.15576,1.6461 4.54461,1.871 8.853934,1.434 3.078075,-0.3121 6.525943,-1.3424 8.668185,-2.5901 z M 74.56067,997.17751 c -3.76546,-3.76549 -2.79069,-10.57096 1.76202,-12.30191 3.038928,-1.15537 7.45435,0.42994 9.603465,3.44813 5.015274,7.0433 -5.21022,15.00897 -11.365485,8.85378 z m 51.42034,8.13119 c 7.58579,-1.9252 14.91958,-5.2193 21.17925,-9.51315 5.55272,-3.8089 8.05583,-9.81814 8.42413,-20.22389 0.29728,-8.39894 -0.72247,-12.35172 -3.1865,-12.35172 -0.68781,0 -1.46217,1.19541 -1.77954,2.74715 -0.30902,1.51093 -1.18176,3.69327 -1.93944,4.84963 -1.47938,2.25782 -10.15249,7.39221 -15.03132,8.89838 -9.4054,2.90359 -12.40292,3.58595 -21.29607,4.84764 -10.61563,1.50612 -12.487327,2.32069 -9.83326,4.27938 1.64253,1.21221 1.63946,1.24901 -0.21296,2.54654 -2.15653,1.51048 -2.400227,3.58959 -0.69423,5.92269 1.05145,1.43791 0.98012,1.72338 -0.63133,2.52677 -2.065757,1.02978 -2.656627,2.99078 -1.858927,6.16898 l 0.54964,2.19 9.534937,-0.5255 c 5.24423,-0.289 12.79325,-1.3523 16.77562,-2.3629 z m 31.85573,-9.79563 c 0.8418,-2.19366 -0.44638,-3.36948 -1.74534,-1.59301 -0.63126,0.86329 -1.14774,1.87971 -1.14774,2.25868 0,1.25677 2.3641,0.71282 2.89308,-0.66567 z M 98.722043,979.40496 c -0.583254,-0.70277 -1.396854,-1.27777 -1.807994,-1.27777 -0.41115,0 -0.74754,0.575 -0.74754,1.27777 0,0.73444 0.76878,1.27776 1.80799,1.27776 1.510524,0 1.633524,-0.21023 0.747544,-1.27776 z M 63.29357,977.39992 c 0.43437,-0.70283 -2.99492,-2.6801 -4.64823,-2.6801 -1.19649,0 -0.98802,2.34243 0.25304,2.84321 1.73186,0.69882 3.9125,0.6179 4.39519,-0.16311 z m 29.465569,-3.53194 c 0,-0.46852 -0.575,-0.85185 -1.27777,-0.85185 -0.70277,0 -1.27776,0.38333 -1.27776,0.85185 0,0.46851 0.57499,0.85184 1.27776,0.85184 0.70277,0 1.27777,-0.38333 1.27777,-0.85184 z M 67.97127,970.79666 c -1.92521,-2.04929 -4.17479,-2.72271 -4.17479,-1.24972 0,1.22504 4.3591,4.35985 5.27524,3.79364 0.44868,-0.27729 -0.0465,-1.42206 -1.10045,-2.54392 z m 31.602613,1.36763 c 0,-0.46851 -0.38333,-0.85184 -0.85184,-0.85184 -0.46851,0 -0.851844,0.38333 -0.851844,0.85184 0,0.46852 0.383334,0.85184 0.851844,0.85184 0.46851,0 0.85184,-0.38332 0.85184,-0.85184 z M 85.448109,971.4263 c 0.250859,-0.4059 -0.301509,-1.42364 -1.227488,-2.26164 -1.623272,-1.46903 -1.6836,-1.46294 -1.6836,0.1701 0,2.51496 1.834717,3.83315 2.911088,2.09154 z m -8.873989,-1.43392 c 0,-1.18591 -2.68911,-5.49467 -3.42925,-5.49467 -1.09577,0 -1.04789,1.14523 0.15861,3.7932 0.84351,1.8513 3.27064,3.11395 3.27064,1.70147 z M 139.0667,932.5536 c -0.26969,-0.70277 -0.83265,-1.27777 -1.25104,-1.27777 -0.41838,0 -0.7607,0.575 -0.7607,1.27777 0,0.70277 0.56296,1.27776 1.25103,1.27776 0.76205,0 1.05938,-0.49942 0.76071,-1.27776 z M 52.2966,902.31317 c 0.28955,-0.46851 0.12051,-0.85184 -0.37565,-0.85184 -0.49617,0 -0.90212,0.38333 -0.90212,0.85184 0,0.46852 0.16904,0.85185 0.37565,0.85185 0.20661,0 0.61256,-0.38333 0.90212,-0.85185 z m 55.36979,-1.70368 c -0.28956,-0.46852 -1.07885,-0.85185 -1.75397,-0.85185 -0.67511,0 -1.22748,0.38333 -1.22748,0.85185 0,0.46851 0.78928,0.85184 1.75395,0.85184 0.96469,0 1.51705,-0.38333 1.2275,-0.85184 z m -11.499881,-2.98145 c 0,-0.70277 -0.57499,-1.27777 -1.27776,-1.27777 -0.70277,0 -1.27777,0.575 -1.27777,1.27777 0,0.70277 0.575,1.27776 1.27777,1.27776 0.70277,0 1.27776,-0.57499 1.27776,-1.27776 z"
       style="fill:#151515" />
    <path
       inkscape:connector-curvature="0"
       id="path4180"
       d="m 49.112753,1174.7256 c -12.564649,-1.1675 -28.034972,-5.1595 -31.554314,-8.1422 -0.722639,-0.6124 -6.486281,-3.1891 -12.8080943,-5.7258 -17.0318677,-6.8344 -29.2124697,-15.1526 -36.9912067,-25.2616 -2.106872,-2.7381 -3.830677,-5.201 -3.830677,-5.4731 0,-0.2722 -0.958324,-2.4813 -2.129608,-4.9093 -2.435603,-5.0487 -2.568258,-6.4257 -0.839186,-8.7108 0.942088,-1.2451 1.003726,-1.914 0.259044,-2.8113 -0.748122,-0.9014 -0.672544,-1.4821 0.322412,-2.477 1.075985,-1.076 1.906198,-1.1363 4.824921,-0.3504 3.264528,0.8791 3.525317,1.1659 3.525317,3.8768 0,2.7311 0.136026,2.8758 2.026583,2.1571 3.319292,-1.262 5.020523,-0.529 6.115999,2.6352 2.513184,7.2592 5.879721,11.9895 11.643212,16.3602 3.7048477,2.8095 13.5781547,7.6465 19.3989807,9.5039 2.5768243,0.8222 5.2903133,2.0206 6.0299753,2.6632 1.741752,1.5131 3.719813,1.486 5.010021,-0.068 1.561521,-1.8815 0.716342,-4.1542 -2.035315,-5.4731 l -2.474365,-1.1859 2.170814,-1.1374 c 3.109495,-1.6292 3.606312,-3.6543 1.457657,-5.9414 l -1.815176,-1.9322 2.429977,-0.2779 c 1.765101,-0.202 2.504457,-0.8024 2.702184,-2.1947 0.149714,-1.0541 -0.04195,-1.9481 -0.425921,-1.9867 -4.944529,-0.4961 -20.1952183,-5.5885 -26.8779963,-8.9749 -5.035331,-2.5517 -10.5238967,-7.397 -12.3256337,-10.8811 -1.727597,-3.3409 -1.030687,-18.3714 0.995166,-21.4632 0.718856,-1.0972 1.307011,-3.7333 1.307011,-5.8581 0,-2.1248 0.336392,-3.8632 0.747539,-3.8632 0.961785,0 2.759202,2.1556 2.588845,3.1047 -0.07192,0.4007 -0.08537,1.7827 -0.02989,3.0711 0.09836,2.2841 0.228587,2.3426 5.2119367,2.3426 2.839476,0 5.111057,-0.3786 5.111057,-0.8518 0,-0.4733 2.271582,-0.8519 5.111058,-0.8519 2.839476,0 5.111057,0.3786 5.111057,0.8519 0,0.5205 3.9752683,0.8518 10.2221153,0.8518 8.51843,0 10.222115,0.213 10.222115,1.2778 0,1.0293 1.32509,1.2777 6.814744,1.2777 6.701167,0 6.814743,0.035 6.814743,2.1296 0,1.9167 0.340737,2.1296 3.407372,2.1296 2.46088,0 3.407377,0.355 3.407377,1.2778 0,0.9228 0.94649,1.2778 3.40737,1.2778 3.06663,0 3.40737,0.2129 3.40737,2.1296 0,1.6744 0.43287,2.1296 2.02531,2.1296 1.11391,0 2.5025,0.575 3.08575,1.2778 0.58324,0.7027 2.32849,1.2777 3.87834,1.2777 2.27372,0 2.87047,-0.3701 3.09011,-1.9166 0.42037,-2.96 5.07027,-3.1248 7.32401,-0.2596 0.9415,1.1969 2.26065,2.1762 2.93146,2.1762 2.44442,0 4.92399,3.7811 4.92399,7.5085 l 0,3.5655 3.40737,0 c 2.46088,0 3.40737,0.3549 3.40737,1.2777 0,0.9229 0.94649,1.2778 3.40737,1.2778 2.79439,0 3.40737,0.2948 3.40737,1.6386 0,1.3918 0.56722,1.6167 3.764527,1.493 4.47222,-0.1731 5.82086,0.7962 3.48462,2.5045 -0.95587,0.699 -1.81343,0.8749 -1.97034,0.4041 -0.3968,-1.1904 -2.72328,-0.121 -2.72328,1.2517 0,2.4951 -15.197487,7.0583 -29.790437,8.945 -3.96914,0.5131 -7.51493,1.1173 -7.87955,1.3427 -1.29378,0.7995 -0.6355,2.6166 1.25371,3.4605 l 1.91664,0.8561 -1.87307,0.5954 c -2.5381,0.8067 -3.328,3.6372 -1.56016,5.5906 1.31673,1.455 1.26296,1.6955 -0.85167,3.8101 -1.34183,1.3419 -2.05334,2.7882 -1.75459,3.5667 0.27638,0.7203 0.50252,1.8122 0.50252,2.4265 0,1.8906 2.23727,2.1381 11.44477,1.2656 7.6569,-0.7255 20.99007,-3.5213 26.46224,-5.5487 1.19443,-0.4426 1.44906,-0.3582 0.85184,0.2823 -1.15659,1.2404 -13.13324,5.9683 -20.41224,8.058 -4.13132,1.1859 -7.29862,2.8166 -10.43844,5.3743 -3.70231,3.0159 -5.3785,3.7806 -9.3833,4.281 -6.03584,0.7541 -4.54096,1.4455 6.34133,2.9326 10.08345,1.3779 32.19088,0.6673 38.074277,-1.224 5.55861,-1.7868 7.76396,-1.6088 3.48496,0.2812 -12.395177,5.4752 -36.249887,7.9572 -57.499395,5.9827 z m 1.24286,-20.7022 c 7.92001,-4.258 11.03233,-16.0749 6.41303,-24.3492 -1.1654,-2.0874 -3.78108,-4.9624 -5.81262,-6.3888 -3.282782,-2.3048 -4.37263,-2.5933 -9.796197,-2.5933 -7.278842,0 -10.912729,1.8398 -14.72013,7.4528 -2.238483,3.3 -2.449171,4.2422 -2.37582,10.6249 0.07117,6.1929 0.35352,7.3977 2.438874,10.4068 1.440248,2.0783 4.036428,4.2394 6.668711,5.5511 3.644378,1.8161 5.044313,2.0676 9.061008,1.6283 2.612875,-0.2857 6.268286,-1.3354 8.123144,-2.3326 z m -13.774109,-10.9705 c -2.377955,-2.598 -3.013375,-5.0828 -1.988877,-7.7774 1.752282,-4.6089 7.699377,-5.0161 11.611278,-0.7951 2.522469,2.7218 2.613369,5.2929 0.291492,8.2447 -2.337661,2.9719 -7.342402,3.1373 -9.913893,0.3278 z m -41.1348553,5.4152 c 0,-0.8635 -2.594531,-2.0398 -3.188673,-1.4456 -0.214114,0.214 -0.136626,0.7981 0.172196,1.2978 0.679607,1.0996 3.016477,1.2141 3.016477,0.1478 z m -10.2221147,-6.0751 c 0,-0.4801 -1.054156,-1.3056 -2.342568,-1.8346 -4.074283,-1.6725 -4.816425,-1.5121 -2.691511,0.5818 2.10859,2.0779 5.034079,2.8059 5.034079,1.2528 z m -11.49988,-6.7937 c 0.289558,-0.4685 -0.09377,-0.8518 -0.851843,-0.8518 -0.758071,0 -1.1414,0.3833 -0.851843,0.8518 0.289558,0.4685 0.672887,0.8519 0.851843,0.8519 0.178956,0 0.562285,-0.3834 0.851843,-0.8519 z m 91.107109,-8.6551 c 3.15984,-1.4397 2.65886,-2.4188 -1.23768,-2.4188 -3.75032,0 -4.53762,-1.5984 -2.10907,-4.2819 2.79123,-3.0843 -0.76703,-5.5507 -4.2296,-2.9317 -0.90945,0.6879 -2.75837,1.2507 -4.10871,1.2507 -1.82113,0 -2.38406,0.3614 -2.17976,1.3994 0.50785,2.5804 2.96224,3.3905 4.91592,1.6224 2.21978,-2.0089 3.38216,-1.0386 1.39126,1.1613 -3.37782,3.7324 2.01066,6.726 7.55764,4.1986 z m -38.701684,-2.8653 c 1.25053,-1.5068 1.324393,-1.4289 -2.633093,-2.7767 -4.269523,-1.4541 -5.902421,-1.3054 -5.902421,0.5375 0,2.9543 6.522003,4.6653 8.535514,2.2392 z m 5.775447,-3.9831 c 1.537709,-1.5377 1.3187,-1.948 -2.424549,-4.5421 -2.97515,-2.0617 -3.611991,-2.2233 -4.654331,-1.1806 -1.386737,1.3872 -0.961048,2.2257 2.466031,4.8576 2.836633,2.1785 3.226344,2.2516 4.612849,0.8651 z m 16.063969,-2.0026 c 0.293622,-0.7652 -0.335772,-2.2181 -1.495666,-3.4528 -1.867547,-1.9879 -2.075924,-2.0315 -3.089226,-0.6457 -1.402797,1.9185 -1.36938,2.4596 0.252018,4.081 1.707272,1.7073 3.681384,1.7153 4.332874,0.017 z m -8.89418,-0.5107 c 0.179659,-0.539 -0.40345,-2.4556 -1.295797,-4.2592 -1.207368,-2.4403 -2.144505,-3.2793 -3.663036,-3.2793 -2.694453,0 -2.647164,2.0254 0.132371,5.6696 2.196366,2.8796 4.227421,3.666 4.826463,1.8689 z m 14.994788,-4.77 c 0.21906,-1.5424 -0.13735,-1.9166 -1.82551,-1.9166 -1.91386,0 -3.13184,1.3742 -3.13184,3.5336 0,0.4613 1.05416,0.7175 2.34257,0.5692 1.67729,-0.193 2.41987,-0.8138 2.61478,-2.1862 z m -10.213792,-2.2167 c 0.216726,-1.1254 -0.132844,-1.4749 -1.258197,-1.2582 -0.857065,0.165 -1.69335,1.0013 -1.858407,1.8584 -0.216723,1.1254 0.132845,1.4749 1.258198,1.2582 0.857065,-0.1651 1.693353,-1.0013 1.858406,-1.8584 z m 91.468189,24.3646 c 0.33177,-1.9759 1.7548,-2.9281 2.52166,-1.6872 0.65207,1.055 -0.67531,3.178 -1.98708,3.178 -0.43169,0 -0.67225,-0.6708 -0.53458,-1.4908 z m -4.8628,-5.3304 c -0.76627,-2.4143 -5.42977,-7.6602 -6.8098,-7.6602 -0.60411,0 -1.32265,-0.5844 -1.59674,-1.2986 -0.34027,-0.8868 -1.14469,-1.1365 -2.53583,-0.7874 -1.93494,0.4857 -2.05725,0.2731 -2.43027,-4.225 -0.23455,-2.8286 -0.98783,-5.394 -1.87,-6.3688 -0.93396,-1.032 -1.15274,-1.8329 -0.59492,-2.1776 0.78865,-0.4875 2.11356,0.092 7.91767,3.4657 0.90848,0.528 2.22181,1.7738 2.91852,2.7685 0.6967,0.9947 1.73564,1.8085 2.30874,1.8085 1.16185,0 5.45583,4.3407 7.68104,7.7646 1.06006,1.6311 1.24089,2.7716 0.6753,4.2592 -0.42483,1.1174 -0.80643,2.4149 -0.84799,2.8834 -0.0416,0.4685 -1.01291,0.97 -2.15854,1.1144 -1.50846,0.1901 -2.24134,-0.2365 -2.65718,-1.5467 z m -23.26392,-11.9726 c 0.20498,-0.6149 0.8758,-1.2858 1.49073,-1.4907 0.63888,-0.213 0.95832,0.1065 0.74536,0.7453 -0.20497,0.615 -0.8758,1.2858 -1.49072,1.4908 -0.63889,0.2129 -0.95833,-0.1065 -0.74537,-0.7454 z m -136.745496,-7.782 c -0.535109,-2.0462 0.701581,-4.0906 2.474558,-4.0906 1.726262,0 2.171773,1.3398 1.250912,3.7618 -1.023372,2.6917 -3.060543,2.8715 -3.72547,0.3288 z"
       style="fill:#0c0c0c" />
    <path
       inkscape:connector-curvature="0"
       id="path4178"
       d="m 266.43039,1155.1855 c -11.26554,-1.1963 -23.86092,-4.1251 -31.39835,-7.3009 -15.74973,-6.6362 -17.57405,-7.4627 -18.87384,-8.551 -0.73966,-0.6193 -1.97972,-1.126 -2.75569,-1.126 -1.75314,0 -9.95488,-4.973 -9.95488,-6.036 0,-0.988 1.45583,-1.0171 2.059,-0.041 0.25073,0.4057 1.44292,0.5489 2.64931,0.3183 2.31451,-0.4425 6.75226,2.7404 5.85194,4.1972 -0.25366,0.4104 0.62064,0.6679 1.9429,0.5723 1.32226,-0.096 3.17076,0.2276 4.10779,0.7184 0.93703,0.4909 2.17829,0.7223 2.75835,0.5141 0.58007,-0.2081 3.26338,0.6398 5.96291,1.8843 2.69952,1.2444 6.24988,2.8506 7.88968,3.5693 1.63979,0.7188 3.64707,1.6477 4.46061,2.0643 0.81354,0.4166 2.53853,0.7578 3.8333,0.7584 1.29476,7e-4 6.23428,0.9412 10.97669,2.0902 4.74241,1.149 11.06734,2.275 14.0554,2.5022 2.98807,0.2273 9.84113,0.8382 15.22904,1.3577 5.3879,0.5195 12.28783,0.7154 15.33317,0.4353 7.95096,-0.7313 4.67703,0.8621 -4.1817,2.0352 -7.98754,1.0578 -20.19589,1.0732 -29.94563,0.038 z m -9.38605,-8.93 c -11.90023,-2.1549 -31.6938,-9.7357 -33.40777,-12.795 -0.37466,-0.6687 -1.07005,-1.2158 -1.54531,-1.2158 -1.82155,0 -10.54306,-4.4767 -11.56557,-5.9366 -0.59042,-0.8429 -2.41409,-1.7841 -4.05261,-2.0915 -1.63852,-0.3073 -3.27705,-1.0318 -3.64117,-1.6098 -0.36413,-0.5781 -1.7162,-1.7215 -3.00461,-2.541 -1.52402,-0.9692 -2.34257,-2.2272 -2.34257,-3.5999 0,-1.6827 -0.43121,-2.11 -2.12961,-2.11 -2.41771,0 -2.71647,-0.995 -0.857,-2.8545 1.12891,-1.1289 1.5945,-0.96 4.1234,1.4959 6.57553,6.3857 16.36288,12.1054 24.84442,14.5189 2.81108,0.8 5.99622,2.0231 7.07808,2.7182 2.89018,1.8569 5.4251,1.1577 6.39378,-1.7633 0.7308,-2.2037 0.55087,-2.7165 -1.53731,-4.3815 -2.35439,-1.8773 -2.35684,-1.8902 -0.54798,-2.8583 1.87674,-1.0043 2.68096,-6.0235 0.96515,-6.0235 -0.46851,0 -0.85184,-0.3833 -0.85184,-0.8519 0,-0.4685 0.56151,-0.8518 1.24779,-0.8518 1.46935,0 3.31895,-3.0724 2.57462,-4.2768 -0.28357,-0.4588 -1.54712,-0.8401 -2.80788,-0.8473 -1.26076,-0.01 -2.8473,-0.3641 -3.52563,-0.7933 -1.92761,-1.2195 2.80004,-2.1103 4.98729,-0.9398 1.22503,0.6556 2.28482,0.6857 3.38649,0.096 2.0008,-1.0708 2.98127,-3.4333 1.57658,-3.7989 -0.57774,-0.1503 -2.53452,-0.7525 -4.3484,-1.3381 -3.10825,-1.0034 -3.41451,-0.939 -5.32402,1.1203 -1.11433,1.2018 -2.02606,2.5851 -2.02606,3.0741 0,1.2171 -0.65059,1.134 -5.549,-0.7089 -8.34415,-3.1392 -9.10273,-3.5549 -9.54003,-5.2271 -0.24356,-0.9314 -0.80409,-1.6934 -1.24561,-1.6934 -0.44152,0 -0.56585,0.3833 -0.27629,0.8518 0.88973,1.4396 -2.76953,0.9421 -4.29569,-0.5841 -1.34667,-1.3466 -1.32397,-1.4773 0.36508,-2.1021 0.99055,-0.3665 1.801,-1.0619 1.801,-1.5456 0,-1.1268 -2.28895,-1.1479 -2.98145,-0.027 -0.84701,1.3705 -4.68514,1.0216 -4.68514,-0.4259 0,-0.7028 0.3713,-1.2777 0.82511,-1.2777 0.45381,0 0.5964,-0.596 0.31688,-1.3245 -0.2863,-0.7461 -1.29758,-1.2225 -2.31584,-1.0911 -2.352,0.3037 -3.94406,-0.7276 -3.91011,-2.5328 0.0253,-1.347 0.0976,-1.3477 1.11383,-0.011 0.74494,0.9798 1.47321,1.1848 2.31548,0.6519 1.77133,-1.1207 2.5065,-0.9816 2.5065,0.4743 0,1.6316 4.52243,1.7356 5.8512,0.1345 0.52182,-0.6287 0.77682,-1.3151 0.56667,-1.5252 -0.21015,-0.2102 0.81782,-0.4735 2.28438,-0.5853 1.46656,-0.1117 2.96155,0.2743 3.3222,0.8578 0.8471,1.3707 -0.71819,3.2478 -2.70821,3.2478 -2.03713,0 -2.76508,1.2763 -1.38244,2.4238 0.79467,0.6595 1.76559,0.568 3.49537,-0.3294 2.72425,-1.4134 8.16321,-1.6737 8.16321,-0.3907 0,0.4732 2.27159,0.8518 5.11106,0.8518 4.8839,0 5.11106,-0.095 5.11106,-2.1296 0,-1.9167 0.34074,-2.1296 3.40737,-2.1296 1.87406,0 3.40737,-0.3833 3.40737,-0.8519 0,-0.4685 0.575,-0.8518 1.27777,-0.8518 0.70277,0 1.27776,0.2875 1.27776,0.6389 0,0.3514 0.96536,0.6389 2.14524,0.6389 1.97044,0 2.0225,-0.092 0.63888,-1.1269 -1.2704,-0.9503 -0.30545,-1.0397 6.16023,-0.5708 4.94988,0.3589 7.99379,0.9738 8.58996,1.7351 0.63915,0.8162 1.9,1.0206 4.09625,0.6642 2.89093,-0.4691 3.46926,-0.2064 6.5082,2.9562 l 3.33534,3.4711 -2.78975,1.7242 c -1.68705,1.0426 -3.5302,1.5305 -4.66309,1.2342 -1.5681,-0.41 -1.87334,-0.136 -1.87334,1.6817 0,2.541 2.79331,3.8564 4.7466,2.2354 1.63323,-1.3555 2.62277,-0.366 1.26731,1.2673 -1.2501,1.5063 -0.50169,4.3914 1.32054,5.0906 1.89513,0.7272 8.9154,-1.2255 9.45427,-2.6298 0.69887,-1.8212 -0.31083,-2.3238 -4.20674,-2.0939 -3.43223,0.2025 -3.50591,0.1538 -2.10641,-1.3927 0.79762,-0.8813 1.45022,-2.6932 1.45022,-4.0264 l 0,-2.424 1.97155,1.8522 c 1.08436,1.0187 2.42601,1.8521 2.98145,1.8521 0.55544,0 1.0099,0.5135 1.0099,1.1411 0,1.475 3.02462,2.8286 7.9815,3.572 4.01348,0.6018 4.97204,1.892 2.76602,3.7228 -0.90862,0.7541 -1.29241,0.6805 -1.67695,-0.3216 -0.27426,-0.7147 -0.94096,-1.2995 -1.48155,-1.2995 -0.70121,0 -0.67409,0.3721 0.0947,1.2983 1.68868,2.0348 0.34266,2.535 -6.82147,2.535 -3.66433,0 -6.46897,0.313 -6.23254,0.6956 0.23643,0.3825 -0.27424,1.2104 -1.13484,1.8397 -1.51598,1.1085 -1.51452,1.1996 0.0468,2.9247 0.88629,0.9794 1.176,1.7806 0.6438,1.7806 -1.35429,0 -2.17247,3.8378 -1.19179,5.5902 0.59548,1.064 0.38752,1.8806 -0.77498,3.0432 -0.87391,0.8738 -1.58889,2.6621 -1.58889,3.9739 0,1.3119 -0.45361,2.8389 -1.00801,3.3932 -0.55442,0.5545 -0.80264,1.2135 -0.55161,1.4645 0.47451,0.4745 6.61765,1.1381 11.78173,1.2727 l 2.98145,0.078 -3.40737,1.2275 c -1.87406,0.6752 -3.93841,1.2333 -4.58746,1.2404 -1.28481,0.014 -4.66601,3.3327 -5.43374,5.3334 -0.93013,2.4239 -7.80803,2.8209 -17.73309,1.0237 z m 14.55072,-8.0479 c 0,-0.4686 -0.38332,-0.8519 -0.85184,-0.8519 -0.46851,0 -0.85184,0.3833 -0.85184,0.8519 0,0.4685 0.38333,0.8518 0.85184,0.8518 0.46852,0 0.85184,-0.3833 0.85184,-0.8518 z m -5.9629,-2.5657 c 10.48497,-5.3183 12.3676,-21.1821 3.46795,-29.2224 -9.22153,-8.3311 -22.7357,-5.7518 -28.36642,5.414 -2.23488,4.4317 -2.30479,4.9345 -1.47597,10.615 1.02199,7.0044 3.57067,10.7606 9.4046,13.8605 3.24576,1.7247 4.47265,1.9214 8.87734,1.4232 2.81108,-0.3179 6.45271,-1.2585 8.0925,-2.0903 z m -13.35406,-11.2768 c -2.45184,-2.7238 -2.88856,-4.4786 -1.85356,-7.4476 1.74631,-5.0094 7.00983,-5.4134 11.36087,-0.8719 1.89824,1.9813 2.23938,2.9243 1.75704,4.8567 -0.92709,3.7143 -2.912,5.3795 -6.41225,5.3795 -2.16359,0 -3.65834,-0.5905 -4.8521,-1.9167 z m 30.81684,-21.0831 c -0.28956,-0.4685 -1.17468,-0.846 -1.96693,-0.8388 -1.24136,0.011 -1.26384,0.1272 -0.16268,0.8388 1.66823,1.0781 2.7959,1.0781 2.12961,0 z m -35.84707,-1.3689 c 2.19531,-0.8424 1.53399,-3.1813 -1.47959,-5.2329 -2.91797,-1.9864 -6.44825,-2.5499 -6.67102,-1.0648 -0.0703,0.4685 -0.16611,1.2194 -0.21296,1.6687 -0.0868,0.8325 5.27744,5.1461 6.39946,5.1461 0.33917,0 1.22302,-0.2327 1.96411,-0.5171 z m 17.10325,-2.88 c 0.30791,-0.9701 1.69675,-1.9937 3.25182,-2.3967 2.11607,-0.5483 2.71436,-1.1608 2.71436,-2.7788 0,-2.9496 -3.79254,-2.9106 -5.27062,0.054 -1.48364,2.9759 -3.07855,2.6533 -4.21144,-0.8518 -1.07029,-3.3115 -3.34906,-3.9807 -4.90643,-1.4409 -0.74694,1.2182 -0.63264,1.7727 0.54604,2.6495 0.8199,0.6098 1.49073,1.8523 1.49073,2.7612 0,3.609 5.3438,5.2856 6.38554,2.0034 z m -9.42421,0.082 c 0.52443,-0.8485 -2.6645,-8.5559 -3.60298,-8.7081 -4.67467,-0.758 -4.85395,-0.6759 -5.07274,2.3216 -0.15736,2.156 0.18301,3.0817 1.27777,3.475 0.82075,0.2949 2.17803,1.2415 3.01618,2.1035 1.63199,1.6785 3.61752,2.0446 4.38177,0.808 z m -56.59034,29.6717 c 0,-0.4962 0.38333,-0.6653 0.85185,-0.3757 0.46851,0.2895 0.85184,0.6955 0.85184,0.9021 0,0.2066 -0.38333,0.3756 -0.85184,0.3756 -0.46852,0 -0.85185,-0.4059 -0.85185,-0.902 z m -7.68367,-6.3592 c -1.64608,-1.9833 -0.47154,-2.3571 1.29013,-0.4105 0.85059,0.9399 1.15073,1.7089 0.66697,1.7089 -0.48376,0 -1.36445,-0.5843 -1.9571,-1.2984 z m -11.35355,-17.1524 c -1.85763,-2.4895 -1.60471,-3.164 0.58583,-1.5622 0.86033,0.6291 1.43472,1.7127 1.27642,2.408 -0.21336,0.9371 -0.69509,0.7184 -1.86225,-0.8458 z m 154.03395,-12.2798 c -0.77309,-2.4358 0.12732,-3.044 1.99887,-1.3503 0.85967,0.778 2.01201,1.4145 2.56075,1.4145 0.54875,0 0.99773,0.3833 0.99773,0.8518 0,0.4686 -1.12416,0.8519 -2.49812,0.8519 -1.78023,0 -2.65938,-0.5081 -3.05923,-1.7679 z"
       style="fill:#070707" />
  </g>
  <g
     inkscape:groupmode="layer"
     id="layer3"
     inkscape:label="Mask">
    <path
       style="fill:none;fill-rule:evenodd;stroke:#000000;stroke-width:1px;stroke-linecap:butt;stroke-linejoin:miter;stroke-opacity:1"
       d="m 22.223356,59.757886 -1.010153,3.282996 -1.26269,5.808377 0.757614,6.060915 1.262691,9.091373 5.303301,9.596449 7.323606,5.808378 13.637059,7.828676 9.848987,3.53554 2.272844,1.51523 1.515228,-3.03046 -4.798224,-3.03046 4.04061,-4.54569 -2.272843,-6.313447 3.788072,-1.767767 L 51.51778,89.304848 34.850263,81.981242 22.98097,67.586568 Z"
       id="path4243"
       inkscape:connector-curvature="0" />
    <path
       style="fill:none;fill-rule:evenodd;stroke:#000000;stroke-width:1px;stroke-linecap:butt;stroke-linejoin:miter;stroke-opacity:1"
       d="m 157.77735,75.345845 0.19005,3.429629 -0.17285,5.941529 -2.19452,5.700242 -3.41434,8.519958 -7.4577,8.037387 -8.50658,3.87434 -15.12073,4.31521 -10.41049,1.06036 -2.57079,0.92346 -0.74106,-3.30612 5.38669,-1.78613 -2.82737,-5.38478 3.72599,-5.58054 -3.25106,-2.627757 11.81844,-1.491683 17.94045,-3.09541 14.98575,-11.113683 z"
       id="path4243-3"
       inkscape:connector-curvature="0" />
  </g>
  <g
     inkscape:groupmode="layer"
     id="layer2"
     inkscape:label="Edge.Cuts"
     transform="translate(4.5854926,-14.591325)">
    <path
       inkscape:connector-curvature="0"
       id="path4208"
       d="m 89.191302,157.12855 c -11.73592,-1.5733 -23.541925,-4.1468 -26.638974,-5.8067 -1.732661,-0.9287 -3.575721,-1.6885 -4.095691,-1.6885 -0.51997,0 -1.60751,-0.7316 -2.41677,-1.6258 -0.80925,-0.8942 -2.68948,-2.072 -4.17828,-2.6171 -1.48879,-0.5452 -4.81521,-1.7625 -7.39204,-2.7052 -13.75102,-5.0305 -32.32172,-16.5923 -38.4842396,-23.9597 -5.44828996,-6.51352 -8.36712,-11.10802 -8.36712,-13.17055 0,-1.00132 -0.38333,-2.0575 -0.85184,-2.34706 -0.46851,-0.28955 -0.85184,-3.246787 -0.85184,-6.571637 0,-5.17226 0.31464,-6.4577 2.17895,-8.90195 2.53524004,-3.32386 6.68381,-5.5971 12.8708296,-7.05266 2.42097,-0.56957 4.95765,-1.675764 5.637081,-2.458224 0.811839,-0.93496 1.407409,-4.34283 1.737319,-9.94109 0.79593,-13.50575 4.62225,-22.74047 14.5423,-35.09744 3.48003,-4.33492 6.7147,-7.23541 11.02525,-9.886189 13.16321,-8.09474 16.3501,-8.7137 41.054375,-7.97369 16.766938,0.50225 18.395378,0.69634 25.365218,3.02324 9.61203,3.209 16.53887,7.783979 24.98768,16.503669 5.81281,5.99916 7.50299,8.46787 11.59106,16.93005 3.05449,6.32271 5.27866,12.33217 6.14786,16.61093 2.26743,11.161594 2.58734,11.762634 8.17459,15.357814 8.09928,5.21155 10.69169,7.39939 14.92374,12.59466 4.60315,5.650857 5.41731,8.407877 5.44516,18.439297 0.018,6.48233 -0.27748,7.91353 -2.58889,12.53903 -3.51356,7.0313 -11.39245,14.4797 -19.11278,18.0685 -16.22683,7.5431 -28.20423,10.4514 -47.27728,11.4798 -4.91939,0.2652 -10.86099,0.6113 -13.203558,0.7691 -2.34257,0.1577 -6.94251,-0.073 -10.22211,-0.5126 z"
       style="fill:none;stroke:#e9cc08;stroke-width:1;stroke-miterlimit:4;stroke-dasharray:none;stroke-opacity:1"
       sodipodi:nodetypes="ccsscssscsssssssssssssssssscc" />
  </g>
</svg>
