G04 #@! TF.GenerationSoftware,KiCad,Pcbnew,5.0.0-fee4fd1~65~ubuntu16.04.1*
G04 #@! TF.CreationDate,2018-07-25T18:48:16-06:00*
G04 #@! TF.ProjectId,UPA_Shield_001,5550415F536869656C645F3030312E6B,rev?*
G04 #@! TF.SameCoordinates,Original*
G04 #@! TF.FileFunction,Soldermask,Top*
G04 #@! TF.FilePolarity,Negative*
%FSLAX46Y46*%
G04 Gerber Fmt 4.6, Leading zero omitted, Abs format (unit mm)*
G04 Created by KiCad (PCBNEW 5.0.0-fee4fd1~65~ubuntu16.04.1) date Wed Jul 25 18:48:16 2018*
%MOMM*%
%LPD*%
G01*
G04 APERTURE LIST*
%ADD10C,0.100000*%
%ADD11O,2.100000X2.100000*%
%ADD12R,2.100000X2.100000*%
%ADD13R,2.000000X2.000000*%
%ADD14O,2.000000X2.000000*%
%ADD15R,0.950000X2.150000*%
%ADD16R,0.700000X2.000000*%
%ADD17R,2.400000X2.000000*%
%ADD18R,2.400000X2.100000*%
G04 APERTURE END LIST*
D10*
G04 #@! TO.C,svg2mod*
G36*
X112056580Y-98213131D02*
X112222375Y-98214429D01*
X112218069Y-98289764D01*
X112205148Y-98356001D01*
X112183618Y-98413141D01*
X112153473Y-98461184D01*
X112115415Y-98499054D01*
X112070145Y-98526102D01*
X112017661Y-98542332D01*
X111957964Y-98547743D01*
X111898079Y-98542332D01*
X111845460Y-98526102D01*
X111800108Y-98499054D01*
X111762024Y-98461184D01*
X111731879Y-98413141D01*
X111710349Y-98356001D01*
X111697428Y-98289764D01*
X111693122Y-98214429D01*
X111697428Y-98138933D01*
X111710349Y-98072642D01*
X111731879Y-98015556D01*
X111762024Y-97967675D01*
X111800108Y-97929617D01*
X111845460Y-97902433D01*
X111898079Y-97886124D01*
X111957964Y-97880688D01*
X112017661Y-97886124D01*
X112070145Y-97902433D01*
X112115415Y-97929617D01*
X112153473Y-97967675D01*
X112183618Y-98015556D01*
X112205148Y-98072642D01*
X112218069Y-98138933D01*
X112222375Y-98214429D01*
X112056580Y-98213131D01*
X112055141Y-98157310D01*
X112050862Y-98110424D01*
X112043730Y-98072474D01*
X112033745Y-98043460D01*
X112020611Y-98021794D01*
X112003601Y-98006317D01*
X111982717Y-97997032D01*
X111957955Y-97993936D01*
X111933167Y-97997032D01*
X111912201Y-98006317D01*
X111895056Y-98021794D01*
X111881732Y-98043460D01*
X111871747Y-98072474D01*
X111864615Y-98110424D01*
X111860337Y-98157310D01*
X111858897Y-98213131D01*
X111860337Y-98269571D01*
X111864615Y-98317022D01*
X111871747Y-98355483D01*
X111881732Y-98384955D01*
X111895056Y-98406810D01*
X111912201Y-98422420D01*
X111933167Y-98431787D01*
X111957955Y-98434908D01*
X111982556Y-98431787D01*
X112003387Y-98422420D01*
X112020450Y-98406810D01*
X112033745Y-98384955D01*
X112043730Y-98355483D01*
X112050862Y-98317022D01*
X112055141Y-98269571D01*
X112056580Y-98213131D01*
X112056580Y-98213131D01*
G37*
G36*
X111141046Y-98420698D02*
X111177650Y-98420698D01*
X111214254Y-98420698D01*
X111250858Y-98420698D01*
X111287462Y-98420698D01*
X111287462Y-98316807D01*
X111287462Y-98212916D01*
X111287462Y-98109024D01*
X111287462Y-98005133D01*
X111249889Y-98012886D01*
X111212316Y-98020639D01*
X111174743Y-98028388D01*
X111137170Y-98036141D01*
X111137170Y-98007936D01*
X111137170Y-97979731D01*
X111137170Y-97951525D01*
X111137170Y-97923320D01*
X111174528Y-97915567D01*
X111211886Y-97907815D01*
X111249243Y-97900065D01*
X111286601Y-97892312D01*
X111326004Y-97892312D01*
X111365408Y-97892312D01*
X111404811Y-97892312D01*
X111444214Y-97892312D01*
X111444214Y-98024410D01*
X111444214Y-98156508D01*
X111444214Y-98288606D01*
X111444214Y-98420704D01*
X111480818Y-98420704D01*
X111517422Y-98420704D01*
X111554027Y-98420704D01*
X111590631Y-98420704D01*
X111590631Y-98449341D01*
X111590631Y-98477978D01*
X111590631Y-98506616D01*
X111590631Y-98535253D01*
X111478235Y-98535253D01*
X111365838Y-98535253D01*
X111253442Y-98535253D01*
X111141046Y-98535253D01*
X111141046Y-98506616D01*
X111141046Y-98477978D01*
X111141046Y-98449341D01*
X111141046Y-98420698D01*
X111141046Y-98420698D01*
G37*
G36*
X110830126Y-98213131D02*
X110995921Y-98214429D01*
X110991614Y-98289764D01*
X110978694Y-98356001D01*
X110957163Y-98413141D01*
X110927019Y-98461184D01*
X110888961Y-98499054D01*
X110843691Y-98526102D01*
X110791207Y-98542332D01*
X110731510Y-98547743D01*
X110671625Y-98542332D01*
X110619006Y-98526102D01*
X110573655Y-98499054D01*
X110535570Y-98461184D01*
X110505425Y-98413141D01*
X110483895Y-98356001D01*
X110470974Y-98289764D01*
X110466668Y-98214429D01*
X110470974Y-98138933D01*
X110483895Y-98072642D01*
X110505425Y-98015556D01*
X110535570Y-97967675D01*
X110573655Y-97929617D01*
X110619006Y-97902433D01*
X110671625Y-97886124D01*
X110731510Y-97880688D01*
X110791207Y-97886124D01*
X110843691Y-97902433D01*
X110888961Y-97929617D01*
X110927019Y-97967675D01*
X110957163Y-98015556D01*
X110978694Y-98072642D01*
X110991614Y-98138933D01*
X110995921Y-98214429D01*
X110830126Y-98213131D01*
X110828687Y-98157310D01*
X110824408Y-98110424D01*
X110817276Y-98072474D01*
X110807291Y-98043460D01*
X110794157Y-98021794D01*
X110777147Y-98006317D01*
X110756263Y-97997032D01*
X110731501Y-97993936D01*
X110706713Y-97997032D01*
X110685747Y-98006317D01*
X110668602Y-98021794D01*
X110655278Y-98043460D01*
X110645293Y-98072474D01*
X110638161Y-98110424D01*
X110633883Y-98157310D01*
X110632443Y-98213131D01*
X110633883Y-98269571D01*
X110638161Y-98317022D01*
X110645293Y-98355483D01*
X110655278Y-98384955D01*
X110668602Y-98406810D01*
X110685747Y-98422420D01*
X110706713Y-98431787D01*
X110731501Y-98434908D01*
X110756102Y-98431787D01*
X110776933Y-98422420D01*
X110793996Y-98406810D01*
X110807291Y-98384955D01*
X110817276Y-98355483D01*
X110824408Y-98317022D01*
X110828687Y-98269571D01*
X110830126Y-98213131D01*
X110830126Y-98213131D01*
G37*
G36*
X109914592Y-98420698D02*
X109951196Y-98420698D01*
X109987800Y-98420698D01*
X110024404Y-98420698D01*
X110061008Y-98420698D01*
X110061008Y-98316807D01*
X110061008Y-98212916D01*
X110061008Y-98109024D01*
X110061008Y-98005133D01*
X110023435Y-98012886D01*
X109985862Y-98020639D01*
X109948289Y-98028388D01*
X109910716Y-98036141D01*
X109910716Y-98007936D01*
X109910716Y-97979731D01*
X109910716Y-97951525D01*
X109910716Y-97923320D01*
X109948074Y-97915567D01*
X109985432Y-97907815D01*
X110022789Y-97900065D01*
X110060147Y-97892312D01*
X110099551Y-97892312D01*
X110138954Y-97892312D01*
X110178357Y-97892312D01*
X110217760Y-97892312D01*
X110217760Y-98024410D01*
X110217760Y-98156508D01*
X110217760Y-98288606D01*
X110217760Y-98420704D01*
X110254364Y-98420704D01*
X110290968Y-98420704D01*
X110327573Y-98420704D01*
X110364177Y-98420704D01*
X110364177Y-98449341D01*
X110364177Y-98477978D01*
X110364177Y-98506616D01*
X110364177Y-98535253D01*
X110251781Y-98535253D01*
X110139384Y-98535253D01*
X110026988Y-98535253D01*
X109914592Y-98535253D01*
X109914592Y-98506616D01*
X109914592Y-98477978D01*
X109914592Y-98449341D01*
X109914592Y-98420698D01*
X109914592Y-98420698D01*
G37*
G36*
X109603672Y-98213131D02*
X109769467Y-98214429D01*
X109765160Y-98289764D01*
X109752240Y-98356001D01*
X109730709Y-98413141D01*
X109700565Y-98461184D01*
X109662507Y-98499054D01*
X109617237Y-98526102D01*
X109564753Y-98542332D01*
X109505056Y-98547743D01*
X109445170Y-98542332D01*
X109392552Y-98526102D01*
X109347201Y-98499054D01*
X109309116Y-98461184D01*
X109278971Y-98413141D01*
X109257441Y-98356001D01*
X109244520Y-98289764D01*
X109240214Y-98214429D01*
X109244520Y-98138933D01*
X109257441Y-98072642D01*
X109278971Y-98015556D01*
X109309116Y-97967675D01*
X109347201Y-97929617D01*
X109392552Y-97902433D01*
X109445170Y-97886124D01*
X109505056Y-97880688D01*
X109564753Y-97886124D01*
X109617237Y-97902433D01*
X109662507Y-97929617D01*
X109700565Y-97967675D01*
X109730709Y-98015556D01*
X109752240Y-98072642D01*
X109765160Y-98138933D01*
X109769467Y-98214429D01*
X109603672Y-98213131D01*
X109602233Y-98157310D01*
X109597954Y-98110424D01*
X109590822Y-98072474D01*
X109580837Y-98043460D01*
X109567703Y-98021794D01*
X109550693Y-98006317D01*
X109529809Y-97997032D01*
X109505047Y-97993936D01*
X109480259Y-97997032D01*
X109459293Y-98006317D01*
X109442148Y-98021794D01*
X109428824Y-98043460D01*
X109418839Y-98072474D01*
X109411707Y-98110424D01*
X109407429Y-98157310D01*
X109405989Y-98213131D01*
X109407429Y-98269571D01*
X109411707Y-98317022D01*
X109418839Y-98355483D01*
X109428824Y-98384955D01*
X109442148Y-98406810D01*
X109459293Y-98422420D01*
X109480259Y-98431787D01*
X109505047Y-98434908D01*
X109529648Y-98431787D01*
X109550479Y-98422420D01*
X109567542Y-98406810D01*
X109580837Y-98384955D01*
X109590822Y-98355483D01*
X109597954Y-98317022D01*
X109602233Y-98269571D01*
X109603672Y-98213131D01*
X109603672Y-98213131D01*
G37*
G36*
X108688138Y-98420698D02*
X108724742Y-98420698D01*
X108761346Y-98420698D01*
X108797950Y-98420698D01*
X108834554Y-98420698D01*
X108834554Y-98316807D01*
X108834554Y-98212916D01*
X108834554Y-98109024D01*
X108834554Y-98005133D01*
X108796981Y-98012886D01*
X108759408Y-98020639D01*
X108721835Y-98028388D01*
X108684262Y-98036141D01*
X108684262Y-98007936D01*
X108684262Y-97979731D01*
X108684262Y-97951525D01*
X108684262Y-97923320D01*
X108721620Y-97915567D01*
X108758978Y-97907815D01*
X108796335Y-97900065D01*
X108833693Y-97892312D01*
X108873096Y-97892312D01*
X108912500Y-97892312D01*
X108951903Y-97892312D01*
X108991306Y-97892312D01*
X108991306Y-98024410D01*
X108991306Y-98156508D01*
X108991306Y-98288606D01*
X108991306Y-98420704D01*
X109027910Y-98420704D01*
X109064515Y-98420704D01*
X109101119Y-98420704D01*
X109137723Y-98420704D01*
X109137723Y-98449341D01*
X109137723Y-98477978D01*
X109137723Y-98506616D01*
X109137723Y-98535253D01*
X109025327Y-98535253D01*
X108912930Y-98535253D01*
X108800534Y-98535253D01*
X108688138Y-98535253D01*
X108688138Y-98506616D01*
X108688138Y-98477978D01*
X108688138Y-98449341D01*
X108688138Y-98420698D01*
X108688138Y-98420698D01*
G37*
G36*
X108377218Y-98213131D02*
X108543013Y-98214429D01*
X108538706Y-98289764D01*
X108525786Y-98356001D01*
X108504256Y-98413141D01*
X108474111Y-98461184D01*
X108436053Y-98499054D01*
X108390783Y-98526102D01*
X108338299Y-98542332D01*
X108278602Y-98547743D01*
X108218716Y-98542332D01*
X108166098Y-98526102D01*
X108120747Y-98499054D01*
X108082662Y-98461184D01*
X108052517Y-98413141D01*
X108030987Y-98356001D01*
X108018066Y-98289764D01*
X108013760Y-98214429D01*
X108018066Y-98138933D01*
X108030987Y-98072642D01*
X108052517Y-98015556D01*
X108082662Y-97967675D01*
X108120747Y-97929617D01*
X108166098Y-97902433D01*
X108218716Y-97886124D01*
X108278602Y-97880688D01*
X108338299Y-97886124D01*
X108390783Y-97902433D01*
X108436053Y-97929617D01*
X108474111Y-97967675D01*
X108504256Y-98015556D01*
X108525786Y-98072642D01*
X108538706Y-98138933D01*
X108543013Y-98214429D01*
X108377218Y-98213131D01*
X108375779Y-98157310D01*
X108371500Y-98110424D01*
X108364368Y-98072474D01*
X108354383Y-98043460D01*
X108341249Y-98021794D01*
X108324239Y-98006317D01*
X108303355Y-97997032D01*
X108278593Y-97993936D01*
X108253805Y-97997032D01*
X108232839Y-98006317D01*
X108215694Y-98021794D01*
X108202370Y-98043460D01*
X108192385Y-98072474D01*
X108185253Y-98110424D01*
X108180975Y-98157310D01*
X108179535Y-98213131D01*
X108180975Y-98269571D01*
X108185253Y-98317022D01*
X108192385Y-98355483D01*
X108202370Y-98384955D01*
X108215694Y-98406810D01*
X108232839Y-98422420D01*
X108253805Y-98431787D01*
X108278593Y-98434908D01*
X108303194Y-98431787D01*
X108324025Y-98422420D01*
X108341088Y-98406810D01*
X108354383Y-98384955D01*
X108364368Y-98355483D01*
X108371500Y-98317022D01*
X108375779Y-98269571D01*
X108377218Y-98213131D01*
X108377218Y-98213131D01*
G37*
G36*
X107461684Y-98420698D02*
X107498288Y-98420698D01*
X107534892Y-98420698D01*
X107571496Y-98420698D01*
X107608100Y-98420698D01*
X107608100Y-98316807D01*
X107608100Y-98212916D01*
X107608100Y-98109024D01*
X107608100Y-98005133D01*
X107570527Y-98012886D01*
X107532954Y-98020639D01*
X107495381Y-98028388D01*
X107457808Y-98036141D01*
X107457808Y-98007936D01*
X107457808Y-97979731D01*
X107457808Y-97951525D01*
X107457808Y-97923320D01*
X107495166Y-97915567D01*
X107532523Y-97907815D01*
X107569881Y-97900065D01*
X107607239Y-97892312D01*
X107646642Y-97892312D01*
X107686046Y-97892312D01*
X107725449Y-97892312D01*
X107764852Y-97892312D01*
X107764852Y-98024410D01*
X107764852Y-98156508D01*
X107764852Y-98288606D01*
X107764852Y-98420704D01*
X107801456Y-98420704D01*
X107838060Y-98420704D01*
X107874665Y-98420704D01*
X107911269Y-98420704D01*
X107911269Y-98449341D01*
X107911269Y-98477978D01*
X107911269Y-98506616D01*
X107911269Y-98535253D01*
X107798872Y-98535253D01*
X107686476Y-98535253D01*
X107574080Y-98535253D01*
X107461684Y-98535253D01*
X107461684Y-98506616D01*
X107461684Y-98477978D01*
X107461684Y-98449341D01*
X107461684Y-98420698D01*
X107461684Y-98420698D01*
G37*
G36*
X107150764Y-98213131D02*
X107316559Y-98214429D01*
X107312252Y-98289764D01*
X107299332Y-98356001D01*
X107277802Y-98413141D01*
X107247657Y-98461184D01*
X107209599Y-98499054D01*
X107164329Y-98526102D01*
X107111845Y-98542332D01*
X107052148Y-98547743D01*
X106992262Y-98542332D01*
X106939644Y-98526102D01*
X106894293Y-98499054D01*
X106856208Y-98461184D01*
X106826063Y-98413141D01*
X106804533Y-98356001D01*
X106791613Y-98289764D01*
X106787306Y-98214429D01*
X106791613Y-98138933D01*
X106804533Y-98072642D01*
X106826063Y-98015556D01*
X106856208Y-97967675D01*
X106894293Y-97929617D01*
X106939644Y-97902433D01*
X106992262Y-97886124D01*
X107052148Y-97880688D01*
X107111845Y-97886124D01*
X107164329Y-97902433D01*
X107209599Y-97929617D01*
X107247657Y-97967675D01*
X107277802Y-98015556D01*
X107299332Y-98072642D01*
X107312252Y-98138933D01*
X107316559Y-98214429D01*
X107150764Y-98213131D01*
X107149325Y-98157310D01*
X107145046Y-98110424D01*
X107137914Y-98072474D01*
X107127929Y-98043460D01*
X107114795Y-98021794D01*
X107097785Y-98006317D01*
X107076901Y-97997032D01*
X107052139Y-97993936D01*
X107027351Y-97997032D01*
X107006385Y-98006317D01*
X106989240Y-98021794D01*
X106975916Y-98043460D01*
X106965931Y-98072474D01*
X106958799Y-98110424D01*
X106954521Y-98157310D01*
X106953081Y-98213131D01*
X106954521Y-98269571D01*
X106958799Y-98317022D01*
X106965931Y-98355483D01*
X106975916Y-98384955D01*
X106989240Y-98406810D01*
X107006385Y-98422420D01*
X107027351Y-98431787D01*
X107052139Y-98434908D01*
X107076740Y-98431787D01*
X107097571Y-98422420D01*
X107114634Y-98406810D01*
X107127929Y-98384955D01*
X107137914Y-98355483D01*
X107145046Y-98317022D01*
X107149325Y-98269571D01*
X107150764Y-98213131D01*
X107150764Y-98213131D01*
G37*
G36*
X106235230Y-98420698D02*
X106271834Y-98420698D01*
X106308438Y-98420698D01*
X106345042Y-98420698D01*
X106381646Y-98420698D01*
X106381646Y-98316807D01*
X106381646Y-98212916D01*
X106381646Y-98109024D01*
X106381646Y-98005133D01*
X106344073Y-98012886D01*
X106306500Y-98020639D01*
X106268927Y-98028388D01*
X106231354Y-98036141D01*
X106231354Y-98007936D01*
X106231354Y-97979731D01*
X106231354Y-97951525D01*
X106231354Y-97923320D01*
X106268712Y-97915567D01*
X106306069Y-97907815D01*
X106343427Y-97900065D01*
X106380785Y-97892312D01*
X106420188Y-97892312D01*
X106459592Y-97892312D01*
X106498995Y-97892312D01*
X106538398Y-97892312D01*
X106538398Y-98024410D01*
X106538398Y-98156508D01*
X106538398Y-98288606D01*
X106538398Y-98420704D01*
X106575002Y-98420704D01*
X106611606Y-98420704D01*
X106648211Y-98420704D01*
X106684815Y-98420704D01*
X106684815Y-98449341D01*
X106684815Y-98477978D01*
X106684815Y-98506616D01*
X106684815Y-98535253D01*
X106572418Y-98535253D01*
X106460022Y-98535253D01*
X106347626Y-98535253D01*
X106235230Y-98535253D01*
X106235230Y-98506616D01*
X106235230Y-98477978D01*
X106235230Y-98449341D01*
X106235230Y-98420698D01*
X106235230Y-98420698D01*
G37*
G36*
X105924310Y-98213131D02*
X106090105Y-98214429D01*
X106085798Y-98289764D01*
X106072878Y-98356001D01*
X106051348Y-98413141D01*
X106021203Y-98461184D01*
X105983145Y-98499054D01*
X105937875Y-98526102D01*
X105885391Y-98542332D01*
X105825694Y-98547743D01*
X105765808Y-98542332D01*
X105713190Y-98526102D01*
X105667838Y-98499054D01*
X105629754Y-98461184D01*
X105599609Y-98413141D01*
X105578079Y-98356001D01*
X105565159Y-98289764D01*
X105560852Y-98214429D01*
X105565159Y-98138933D01*
X105578079Y-98072642D01*
X105599609Y-98015556D01*
X105629754Y-97967675D01*
X105667838Y-97929617D01*
X105713190Y-97902433D01*
X105765808Y-97886124D01*
X105825694Y-97880688D01*
X105885391Y-97886124D01*
X105937875Y-97902433D01*
X105983145Y-97929617D01*
X106021203Y-97967675D01*
X106051348Y-98015556D01*
X106072878Y-98072642D01*
X106085798Y-98138933D01*
X106090105Y-98214429D01*
X105924310Y-98213131D01*
X105922871Y-98157310D01*
X105918592Y-98110424D01*
X105911460Y-98072474D01*
X105901475Y-98043460D01*
X105888341Y-98021794D01*
X105871331Y-98006317D01*
X105850447Y-97997032D01*
X105825685Y-97993936D01*
X105800897Y-97997032D01*
X105779931Y-98006317D01*
X105762786Y-98021794D01*
X105749462Y-98043460D01*
X105739477Y-98072474D01*
X105732345Y-98110424D01*
X105728067Y-98157310D01*
X105726627Y-98213131D01*
X105728067Y-98269571D01*
X105732345Y-98317022D01*
X105739477Y-98355483D01*
X105749462Y-98384955D01*
X105762786Y-98406810D01*
X105779931Y-98422420D01*
X105800897Y-98431787D01*
X105825685Y-98434908D01*
X105850286Y-98431787D01*
X105871117Y-98422420D01*
X105888180Y-98406810D01*
X105901475Y-98384955D01*
X105911460Y-98355483D01*
X105918592Y-98317022D01*
X105922871Y-98269571D01*
X105924310Y-98213131D01*
X105924310Y-98213131D01*
G37*
G36*
X105008776Y-98420698D02*
X105045380Y-98420698D01*
X105081984Y-98420698D01*
X105118588Y-98420698D01*
X105155192Y-98420698D01*
X105155192Y-98316807D01*
X105155192Y-98212916D01*
X105155192Y-98109024D01*
X105155192Y-98005133D01*
X105117619Y-98012886D01*
X105080046Y-98020639D01*
X105042473Y-98028388D01*
X105004900Y-98036141D01*
X105004900Y-98007936D01*
X105004900Y-97979731D01*
X105004900Y-97951525D01*
X105004900Y-97923320D01*
X105042258Y-97915567D01*
X105079616Y-97907815D01*
X105116973Y-97900065D01*
X105154331Y-97892312D01*
X105193734Y-97892312D01*
X105233138Y-97892312D01*
X105272541Y-97892312D01*
X105311944Y-97892312D01*
X105311944Y-98024410D01*
X105311944Y-98156508D01*
X105311944Y-98288606D01*
X105311944Y-98420704D01*
X105348548Y-98420704D01*
X105385152Y-98420704D01*
X105421757Y-98420704D01*
X105458361Y-98420704D01*
X105458361Y-98449341D01*
X105458361Y-98477978D01*
X105458361Y-98506616D01*
X105458361Y-98535253D01*
X105345964Y-98535253D01*
X105233568Y-98535253D01*
X105121172Y-98535253D01*
X105008776Y-98535253D01*
X105008776Y-98506616D01*
X105008776Y-98477978D01*
X105008776Y-98449341D01*
X105008776Y-98420698D01*
X105008776Y-98420698D01*
G37*
G36*
X111754273Y-97318267D02*
X111790877Y-97318267D01*
X111827481Y-97318267D01*
X111864085Y-97318267D01*
X111900689Y-97318267D01*
X111900689Y-97214376D01*
X111900689Y-97110485D01*
X111900689Y-97006594D01*
X111900689Y-96902703D01*
X111863116Y-96910455D01*
X111825543Y-96918208D01*
X111787970Y-96925958D01*
X111750397Y-96933711D01*
X111750397Y-96905505D01*
X111750397Y-96877300D01*
X111750397Y-96849095D01*
X111750397Y-96820889D01*
X111787755Y-96813137D01*
X111825113Y-96805384D01*
X111862470Y-96797634D01*
X111899828Y-96789882D01*
X111939231Y-96789882D01*
X111978635Y-96789882D01*
X112018038Y-96789882D01*
X112057441Y-96789882D01*
X112057441Y-96921979D01*
X112057441Y-97054077D01*
X112057441Y-97186175D01*
X112057441Y-97318273D01*
X112094045Y-97318273D01*
X112130650Y-97318273D01*
X112167254Y-97318273D01*
X112203858Y-97318273D01*
X112203858Y-97346910D01*
X112203858Y-97375548D01*
X112203858Y-97404185D01*
X112203858Y-97432823D01*
X112091462Y-97432823D01*
X111979065Y-97432823D01*
X111866669Y-97432823D01*
X111754273Y-97432823D01*
X111754273Y-97404185D01*
X111754273Y-97375548D01*
X111754273Y-97346910D01*
X111754273Y-97318267D01*
X111754273Y-97318267D01*
G37*
G36*
X111443353Y-97110701D02*
X111609148Y-97111999D01*
X111604841Y-97187333D01*
X111591921Y-97253571D01*
X111570391Y-97310711D01*
X111540246Y-97358754D01*
X111502188Y-97396623D01*
X111456918Y-97423671D01*
X111404434Y-97439902D01*
X111344737Y-97445312D01*
X111284851Y-97439902D01*
X111232233Y-97423671D01*
X111186881Y-97396623D01*
X111148797Y-97358754D01*
X111118652Y-97310711D01*
X111097122Y-97253571D01*
X111084202Y-97187333D01*
X111079895Y-97111999D01*
X111084202Y-97036503D01*
X111097122Y-96970211D01*
X111118652Y-96913125D01*
X111148797Y-96865244D01*
X111186881Y-96827186D01*
X111232233Y-96800003D01*
X111284851Y-96783693D01*
X111344737Y-96778257D01*
X111404434Y-96783693D01*
X111456918Y-96800003D01*
X111502188Y-96827186D01*
X111540246Y-96865244D01*
X111570391Y-96913125D01*
X111591921Y-96970211D01*
X111604841Y-97036503D01*
X111609148Y-97111999D01*
X111443353Y-97110701D01*
X111441914Y-97054879D01*
X111437635Y-97007993D01*
X111430503Y-96970044D01*
X111420518Y-96941029D01*
X111407384Y-96919363D01*
X111390374Y-96903886D01*
X111369490Y-96894601D01*
X111344728Y-96891505D01*
X111319940Y-96894601D01*
X111298974Y-96903886D01*
X111281829Y-96919363D01*
X111268505Y-96941029D01*
X111258520Y-96970044D01*
X111251388Y-97007993D01*
X111247110Y-97054879D01*
X111245671Y-97110701D01*
X111247110Y-97167141D01*
X111251388Y-97214592D01*
X111258520Y-97253053D01*
X111268505Y-97282525D01*
X111281829Y-97304380D01*
X111298974Y-97319990D01*
X111319940Y-97329356D01*
X111344728Y-97332478D01*
X111369329Y-97329356D01*
X111390160Y-97319990D01*
X111407223Y-97304380D01*
X111420518Y-97282525D01*
X111430503Y-97253053D01*
X111437635Y-97214592D01*
X111441914Y-97167141D01*
X111443353Y-97110701D01*
X111443353Y-97110701D01*
G37*
G36*
X110527819Y-97318267D02*
X110564423Y-97318267D01*
X110601027Y-97318267D01*
X110637631Y-97318267D01*
X110674235Y-97318267D01*
X110674235Y-97214376D01*
X110674235Y-97110485D01*
X110674235Y-97006594D01*
X110674235Y-96902703D01*
X110636662Y-96910455D01*
X110599089Y-96918208D01*
X110561516Y-96925958D01*
X110523943Y-96933711D01*
X110523943Y-96905505D01*
X110523943Y-96877300D01*
X110523943Y-96849095D01*
X110523943Y-96820889D01*
X110561301Y-96813137D01*
X110598659Y-96805384D01*
X110636016Y-96797634D01*
X110673374Y-96789882D01*
X110712777Y-96789882D01*
X110752181Y-96789882D01*
X110791584Y-96789882D01*
X110830987Y-96789882D01*
X110830987Y-96921979D01*
X110830987Y-97054077D01*
X110830987Y-97186175D01*
X110830987Y-97318273D01*
X110867591Y-97318273D01*
X110904196Y-97318273D01*
X110940800Y-97318273D01*
X110977404Y-97318273D01*
X110977404Y-97346910D01*
X110977404Y-97375548D01*
X110977404Y-97404185D01*
X110977404Y-97432823D01*
X110865008Y-97432823D01*
X110752611Y-97432823D01*
X110640215Y-97432823D01*
X110527819Y-97432823D01*
X110527819Y-97404185D01*
X110527819Y-97375548D01*
X110527819Y-97346910D01*
X110527819Y-97318267D01*
X110527819Y-97318267D01*
G37*
G36*
X110216899Y-97110701D02*
X110382694Y-97111999D01*
X110378387Y-97187333D01*
X110365467Y-97253571D01*
X110343937Y-97310711D01*
X110313792Y-97358754D01*
X110275735Y-97396623D01*
X110230464Y-97423671D01*
X110177980Y-97439902D01*
X110118283Y-97445312D01*
X110058397Y-97439902D01*
X110005779Y-97423671D01*
X109960427Y-97396623D01*
X109922343Y-97358754D01*
X109892198Y-97310711D01*
X109870668Y-97253571D01*
X109857748Y-97187333D01*
X109853441Y-97111999D01*
X109857748Y-97036503D01*
X109870668Y-96970211D01*
X109892198Y-96913125D01*
X109922343Y-96865244D01*
X109960427Y-96827186D01*
X110005779Y-96800003D01*
X110058397Y-96783693D01*
X110118283Y-96778257D01*
X110177980Y-96783693D01*
X110230464Y-96800003D01*
X110275735Y-96827186D01*
X110313792Y-96865244D01*
X110343937Y-96913125D01*
X110365467Y-96970211D01*
X110378387Y-97036503D01*
X110382694Y-97111999D01*
X110216899Y-97110701D01*
X110215460Y-97054879D01*
X110211181Y-97007993D01*
X110204050Y-96970044D01*
X110194064Y-96941029D01*
X110180930Y-96919363D01*
X110163920Y-96903886D01*
X110143036Y-96894601D01*
X110118274Y-96891505D01*
X110093486Y-96894601D01*
X110072520Y-96903886D01*
X110055375Y-96919363D01*
X110042051Y-96941029D01*
X110032066Y-96970044D01*
X110024934Y-97007993D01*
X110020656Y-97054879D01*
X110019217Y-97110701D01*
X110020656Y-97167141D01*
X110024934Y-97214592D01*
X110032066Y-97253053D01*
X110042051Y-97282525D01*
X110055375Y-97304380D01*
X110072520Y-97319990D01*
X110093486Y-97329356D01*
X110118274Y-97332478D01*
X110142875Y-97329356D01*
X110163706Y-97319990D01*
X110180769Y-97304380D01*
X110194064Y-97282525D01*
X110204050Y-97253053D01*
X110211181Y-97214592D01*
X110215460Y-97167141D01*
X110216899Y-97110701D01*
X110216899Y-97110701D01*
G37*
G36*
X109301365Y-97318267D02*
X109337969Y-97318267D01*
X109374573Y-97318267D01*
X109411177Y-97318267D01*
X109447781Y-97318267D01*
X109447781Y-97214376D01*
X109447781Y-97110485D01*
X109447781Y-97006594D01*
X109447781Y-96902703D01*
X109410208Y-96910455D01*
X109372635Y-96918208D01*
X109335062Y-96925958D01*
X109297489Y-96933711D01*
X109297489Y-96905505D01*
X109297489Y-96877300D01*
X109297489Y-96849095D01*
X109297489Y-96820889D01*
X109334847Y-96813137D01*
X109372205Y-96805384D01*
X109409562Y-96797634D01*
X109446920Y-96789882D01*
X109486323Y-96789882D01*
X109525727Y-96789882D01*
X109565130Y-96789882D01*
X109604533Y-96789882D01*
X109604533Y-96921979D01*
X109604533Y-97054077D01*
X109604533Y-97186175D01*
X109604533Y-97318273D01*
X109641138Y-97318273D01*
X109677742Y-97318273D01*
X109714346Y-97318273D01*
X109750950Y-97318273D01*
X109750950Y-97346910D01*
X109750950Y-97375548D01*
X109750950Y-97404185D01*
X109750950Y-97432823D01*
X109638554Y-97432823D01*
X109526157Y-97432823D01*
X109413761Y-97432823D01*
X109301365Y-97432823D01*
X109301365Y-97404185D01*
X109301365Y-97375548D01*
X109301365Y-97346910D01*
X109301365Y-97318267D01*
X109301365Y-97318267D01*
G37*
G36*
X108990445Y-97110701D02*
X109156240Y-97111999D01*
X109151934Y-97187333D01*
X109139013Y-97253571D01*
X109117483Y-97310711D01*
X109087338Y-97358754D01*
X109049281Y-97396623D01*
X109004010Y-97423671D01*
X108951526Y-97439902D01*
X108891829Y-97445312D01*
X108831943Y-97439902D01*
X108779325Y-97423671D01*
X108733973Y-97396623D01*
X108695889Y-97358754D01*
X108665744Y-97310711D01*
X108644214Y-97253571D01*
X108631294Y-97187333D01*
X108626987Y-97111999D01*
X108631294Y-97036503D01*
X108644214Y-96970211D01*
X108665744Y-96913125D01*
X108695889Y-96865244D01*
X108733973Y-96827186D01*
X108779325Y-96800003D01*
X108831943Y-96783693D01*
X108891829Y-96778257D01*
X108951526Y-96783693D01*
X109004010Y-96800003D01*
X109049281Y-96827186D01*
X109087338Y-96865244D01*
X109117483Y-96913125D01*
X109139013Y-96970211D01*
X109151934Y-97036503D01*
X109156240Y-97111999D01*
X108990445Y-97110701D01*
X108989005Y-97054879D01*
X108984727Y-97007993D01*
X108977595Y-96970044D01*
X108967610Y-96941029D01*
X108954476Y-96919363D01*
X108937466Y-96903886D01*
X108916582Y-96894601D01*
X108891819Y-96891505D01*
X108867032Y-96894601D01*
X108846066Y-96903886D01*
X108828921Y-96919363D01*
X108815597Y-96941029D01*
X108805612Y-96970044D01*
X108798480Y-97007993D01*
X108794202Y-97054879D01*
X108792762Y-97110701D01*
X108794202Y-97167141D01*
X108798480Y-97214592D01*
X108805612Y-97253053D01*
X108815597Y-97282525D01*
X108828921Y-97304380D01*
X108846066Y-97319990D01*
X108867032Y-97329356D01*
X108891819Y-97332478D01*
X108916421Y-97329356D01*
X108937252Y-97319990D01*
X108954315Y-97304380D01*
X108967610Y-97282525D01*
X108977595Y-97253053D01*
X108984727Y-97214592D01*
X108989005Y-97167141D01*
X108990445Y-97110701D01*
X108990445Y-97110701D01*
G37*
G36*
X108074911Y-97318267D02*
X108111515Y-97318267D01*
X108148119Y-97318267D01*
X108184723Y-97318267D01*
X108221327Y-97318267D01*
X108221327Y-97214376D01*
X108221327Y-97110485D01*
X108221327Y-97006594D01*
X108221327Y-96902703D01*
X108183754Y-96910455D01*
X108146181Y-96918208D01*
X108108608Y-96925958D01*
X108071035Y-96933711D01*
X108071035Y-96905505D01*
X108071035Y-96877300D01*
X108071035Y-96849095D01*
X108071035Y-96820889D01*
X108108393Y-96813137D01*
X108145751Y-96805384D01*
X108183108Y-96797634D01*
X108220466Y-96789882D01*
X108259869Y-96789882D01*
X108299273Y-96789882D01*
X108338676Y-96789882D01*
X108378079Y-96789882D01*
X108378079Y-96921979D01*
X108378079Y-97054077D01*
X108378079Y-97186175D01*
X108378079Y-97318273D01*
X108414684Y-97318273D01*
X108451287Y-97318273D01*
X108487892Y-97318273D01*
X108524496Y-97318273D01*
X108524496Y-97346910D01*
X108524496Y-97375548D01*
X108524496Y-97404185D01*
X108524496Y-97432823D01*
X108412100Y-97432823D01*
X108299703Y-97432823D01*
X108187307Y-97432823D01*
X108074911Y-97432823D01*
X108074911Y-97404185D01*
X108074911Y-97375548D01*
X108074911Y-97346910D01*
X108074911Y-97318267D01*
X108074911Y-97318267D01*
G37*
G36*
X107763991Y-97110701D02*
X107929786Y-97111999D01*
X107925480Y-97187333D01*
X107912559Y-97253571D01*
X107891029Y-97310711D01*
X107860884Y-97358754D01*
X107822826Y-97396623D01*
X107777556Y-97423671D01*
X107725072Y-97439902D01*
X107665375Y-97445312D01*
X107605489Y-97439902D01*
X107552871Y-97423671D01*
X107507519Y-97396623D01*
X107469435Y-97358754D01*
X107439290Y-97310711D01*
X107417759Y-97253571D01*
X107404839Y-97187333D01*
X107400533Y-97111999D01*
X107404839Y-97036503D01*
X107417759Y-96970212D01*
X107439290Y-96913125D01*
X107469435Y-96865244D01*
X107507519Y-96827186D01*
X107552871Y-96800003D01*
X107605489Y-96783693D01*
X107665375Y-96778257D01*
X107725072Y-96783693D01*
X107777556Y-96800003D01*
X107822826Y-96827186D01*
X107860884Y-96865244D01*
X107891029Y-96913125D01*
X107912559Y-96970212D01*
X107925480Y-97036503D01*
X107929786Y-97111999D01*
X107763991Y-97110701D01*
X107762552Y-97054879D01*
X107758273Y-97007993D01*
X107751141Y-96970044D01*
X107741156Y-96941029D01*
X107728022Y-96919363D01*
X107711012Y-96903886D01*
X107690128Y-96894601D01*
X107665365Y-96891505D01*
X107640578Y-96894601D01*
X107619612Y-96903886D01*
X107602467Y-96919363D01*
X107589143Y-96941029D01*
X107579158Y-96970044D01*
X107572026Y-97007993D01*
X107567748Y-97054879D01*
X107566308Y-97110701D01*
X107567748Y-97167141D01*
X107572026Y-97214592D01*
X107579158Y-97253053D01*
X107589143Y-97282525D01*
X107602467Y-97304380D01*
X107619612Y-97319990D01*
X107640578Y-97329356D01*
X107665365Y-97332478D01*
X107689967Y-97329356D01*
X107710798Y-97319990D01*
X107727861Y-97304380D01*
X107741156Y-97282525D01*
X107751141Y-97253053D01*
X107758273Y-97214592D01*
X107762552Y-97167141D01*
X107763991Y-97110701D01*
X107763991Y-97110701D01*
G37*
G36*
X106848457Y-97318267D02*
X106885061Y-97318267D01*
X106921665Y-97318267D01*
X106958269Y-97318267D01*
X106994873Y-97318267D01*
X106994873Y-97214376D01*
X106994873Y-97110485D01*
X106994873Y-97006594D01*
X106994873Y-96902703D01*
X106957300Y-96910455D01*
X106919727Y-96918208D01*
X106882154Y-96925958D01*
X106844581Y-96933711D01*
X106844581Y-96905505D01*
X106844581Y-96877300D01*
X106844581Y-96849095D01*
X106844581Y-96820889D01*
X106881939Y-96813137D01*
X106919297Y-96805384D01*
X106956654Y-96797634D01*
X106994012Y-96789882D01*
X107033415Y-96789882D01*
X107072819Y-96789882D01*
X107112222Y-96789882D01*
X107151625Y-96789882D01*
X107151625Y-96921979D01*
X107151625Y-97054077D01*
X107151625Y-97186175D01*
X107151625Y-97318273D01*
X107188229Y-97318273D01*
X107224834Y-97318273D01*
X107261437Y-97318273D01*
X107298042Y-97318273D01*
X107298042Y-97346910D01*
X107298042Y-97375548D01*
X107298042Y-97404185D01*
X107298042Y-97432823D01*
X107185646Y-97432823D01*
X107073249Y-97432823D01*
X106960853Y-97432823D01*
X106848457Y-97432823D01*
X106848457Y-97404185D01*
X106848457Y-97375548D01*
X106848457Y-97346910D01*
X106848457Y-97318267D01*
X106848457Y-97318267D01*
G37*
G36*
X106537537Y-97110701D02*
X106703332Y-97111999D01*
X106699026Y-97187333D01*
X106686105Y-97253571D01*
X106664575Y-97310711D01*
X106634430Y-97358754D01*
X106596372Y-97396623D01*
X106551102Y-97423671D01*
X106498618Y-97439902D01*
X106438921Y-97445312D01*
X106379036Y-97439902D01*
X106326417Y-97423671D01*
X106281065Y-97396623D01*
X106242981Y-97358754D01*
X106212836Y-97310711D01*
X106191306Y-97253571D01*
X106178385Y-97187333D01*
X106174079Y-97111999D01*
X106178385Y-97036503D01*
X106191306Y-96970212D01*
X106212836Y-96913125D01*
X106242981Y-96865244D01*
X106281065Y-96827186D01*
X106326417Y-96800003D01*
X106379036Y-96783693D01*
X106438921Y-96778257D01*
X106498618Y-96783693D01*
X106551102Y-96800003D01*
X106596372Y-96827186D01*
X106634430Y-96865244D01*
X106664575Y-96913125D01*
X106686105Y-96970212D01*
X106699026Y-97036503D01*
X106703332Y-97111999D01*
X106537537Y-97110701D01*
X106536098Y-97054879D01*
X106531819Y-97007993D01*
X106524687Y-96970044D01*
X106514702Y-96941029D01*
X106501568Y-96919363D01*
X106484558Y-96903886D01*
X106463674Y-96894601D01*
X106438911Y-96891505D01*
X106414124Y-96894601D01*
X106393158Y-96903886D01*
X106376013Y-96919363D01*
X106362689Y-96941029D01*
X106352704Y-96970044D01*
X106345572Y-97007993D01*
X106341294Y-97054879D01*
X106339854Y-97110701D01*
X106341294Y-97167141D01*
X106345572Y-97214592D01*
X106352704Y-97253053D01*
X106362689Y-97282525D01*
X106376013Y-97304380D01*
X106393158Y-97319990D01*
X106414124Y-97329356D01*
X106438911Y-97332478D01*
X106463513Y-97329356D01*
X106484344Y-97319990D01*
X106501407Y-97304380D01*
X106514702Y-97282525D01*
X106524687Y-97253053D01*
X106531819Y-97214592D01*
X106536098Y-97167141D01*
X106537537Y-97110701D01*
X106537537Y-97110701D01*
G37*
G36*
X105622003Y-97318267D02*
X105658607Y-97318267D01*
X105695211Y-97318267D01*
X105731815Y-97318267D01*
X105768419Y-97318267D01*
X105768419Y-97214376D01*
X105768419Y-97110485D01*
X105768419Y-97006594D01*
X105768419Y-96902703D01*
X105730846Y-96910455D01*
X105693273Y-96918208D01*
X105655700Y-96925958D01*
X105618127Y-96933711D01*
X105618127Y-96905505D01*
X105618127Y-96877300D01*
X105618127Y-96849095D01*
X105618127Y-96820889D01*
X105655485Y-96813137D01*
X105692843Y-96805384D01*
X105730200Y-96797634D01*
X105767558Y-96789882D01*
X105806961Y-96789882D01*
X105846365Y-96789882D01*
X105885768Y-96789882D01*
X105925171Y-96789882D01*
X105925171Y-96921979D01*
X105925171Y-97054077D01*
X105925171Y-97186175D01*
X105925171Y-97318273D01*
X105961775Y-97318273D01*
X105998380Y-97318273D01*
X106034983Y-97318273D01*
X106071588Y-97318273D01*
X106071588Y-97346910D01*
X106071588Y-97375548D01*
X106071588Y-97404185D01*
X106071588Y-97432823D01*
X105959192Y-97432823D01*
X105846795Y-97432823D01*
X105734399Y-97432823D01*
X105622003Y-97432823D01*
X105622003Y-97404185D01*
X105622003Y-97375548D01*
X105622003Y-97346910D01*
X105622003Y-97318267D01*
X105622003Y-97318267D01*
G37*
G36*
X105311083Y-97110701D02*
X105476878Y-97111999D01*
X105472571Y-97187333D01*
X105459651Y-97253571D01*
X105438120Y-97310711D01*
X105407976Y-97358754D01*
X105369918Y-97396623D01*
X105324648Y-97423671D01*
X105272164Y-97439902D01*
X105212467Y-97445312D01*
X105152581Y-97439902D01*
X105099963Y-97423671D01*
X105054611Y-97396623D01*
X105016527Y-97358754D01*
X104986382Y-97310711D01*
X104964852Y-97253571D01*
X104951931Y-97187333D01*
X104947625Y-97111999D01*
X104951931Y-97036503D01*
X104964852Y-96970212D01*
X104986382Y-96913125D01*
X105016527Y-96865244D01*
X105054611Y-96827186D01*
X105099963Y-96800003D01*
X105152581Y-96783693D01*
X105212467Y-96778257D01*
X105272164Y-96783693D01*
X105324648Y-96800003D01*
X105369918Y-96827186D01*
X105407976Y-96865244D01*
X105438120Y-96913125D01*
X105459651Y-96970212D01*
X105472571Y-97036503D01*
X105476878Y-97111999D01*
X105311083Y-97110701D01*
X105309644Y-97054879D01*
X105305365Y-97007993D01*
X105298233Y-96970044D01*
X105288248Y-96941029D01*
X105275114Y-96919363D01*
X105258104Y-96903886D01*
X105237220Y-96894601D01*
X105212458Y-96891505D01*
X105187670Y-96894601D01*
X105166704Y-96903886D01*
X105149559Y-96919363D01*
X105136235Y-96941029D01*
X105126250Y-96970044D01*
X105119118Y-97007993D01*
X105114840Y-97054879D01*
X105113400Y-97110701D01*
X105114840Y-97167141D01*
X105119118Y-97214592D01*
X105126250Y-97253053D01*
X105136235Y-97282525D01*
X105149559Y-97304380D01*
X105166704Y-97319990D01*
X105187670Y-97329356D01*
X105212458Y-97332478D01*
X105237059Y-97329356D01*
X105257890Y-97319990D01*
X105274953Y-97304380D01*
X105288248Y-97282525D01*
X105298233Y-97253053D01*
X105305365Y-97214592D01*
X105309644Y-97167141D01*
X105311083Y-97110701D01*
X105311083Y-97110701D01*
G37*
G36*
X101456974Y-100561893D02*
X101323733Y-100560115D01*
X101206153Y-100558449D01*
X101103102Y-100556813D01*
X101013449Y-100555119D01*
X100936064Y-100553341D01*
X100869814Y-100551366D01*
X100813571Y-100549164D01*
X100766200Y-100546624D01*
X100755612Y-100545947D01*
X100745488Y-100545241D01*
X100735814Y-100544508D01*
X100726571Y-100543746D01*
X100717743Y-100542955D01*
X100709310Y-100542137D01*
X100701256Y-100541262D01*
X100693559Y-100540359D01*
X100686207Y-100539428D01*
X100679180Y-100538468D01*
X100672458Y-100537480D01*
X100666026Y-100536436D01*
X100659865Y-100535364D01*
X100653961Y-100534263D01*
X100648291Y-100533106D01*
X100642841Y-100531921D01*
X100637592Y-100530679D01*
X100632526Y-100529409D01*
X100627627Y-100528082D01*
X100622874Y-100526728D01*
X100618254Y-100525317D01*
X100613747Y-100523849D01*
X100609333Y-100522353D01*
X100604998Y-100520801D01*
X100600722Y-100519192D01*
X100596489Y-100517527D01*
X100592281Y-100515806D01*
X100588079Y-100514028D01*
X100583865Y-100512193D01*
X100579623Y-100510302D01*
X100575336Y-100508355D01*
X100570985Y-100506351D01*
X100529718Y-100485450D01*
X100489845Y-100461602D01*
X100451493Y-100434980D01*
X100414787Y-100405762D01*
X100379853Y-100374122D01*
X100346818Y-100340237D01*
X100315806Y-100304283D01*
X100286945Y-100266435D01*
X100260360Y-100226869D01*
X100236176Y-100185761D01*
X100214521Y-100143288D01*
X100195519Y-100099624D01*
X100179297Y-100054945D01*
X100165982Y-100009428D01*
X100155698Y-99963248D01*
X100148572Y-99916582D01*
X100148294Y-99914183D01*
X100148021Y-99911812D01*
X100147755Y-99909498D01*
X100147493Y-99907212D01*
X100147238Y-99904954D01*
X100146989Y-99902724D01*
X100146746Y-99900523D01*
X100146509Y-99898350D01*
X100146279Y-99896205D01*
X100146055Y-99894088D01*
X100145838Y-99892000D01*
X100145627Y-99889940D01*
X100145424Y-99887908D01*
X100145228Y-99885904D01*
X100145039Y-99883900D01*
X100144858Y-99881925D01*
X100142967Y-99853717D01*
X100143207Y-99830597D01*
X100145888Y-99811143D01*
X100151352Y-99793928D01*
X100159904Y-99777528D01*
X100171861Y-99760518D01*
X100187542Y-99741477D01*
X100194092Y-99733854D01*
X100200642Y-99726231D01*
X100207193Y-99718608D01*
X100213743Y-99710986D01*
X100220294Y-99703363D01*
X100226844Y-99695740D01*
X100233394Y-99688117D01*
X100239945Y-99680494D01*
X100275124Y-99679648D01*
X100310304Y-99678801D01*
X100345483Y-99677954D01*
X100380662Y-99677108D01*
X100415842Y-99676261D01*
X100451021Y-99675414D01*
X100486200Y-99674568D01*
X100521380Y-99673721D01*
X100556559Y-99672874D01*
X100591739Y-99672028D01*
X100626918Y-99671181D01*
X100662098Y-99670334D01*
X100697277Y-99669488D01*
X100732456Y-99668641D01*
X100767636Y-99667794D01*
X100776430Y-99667583D01*
X100785224Y-99667371D01*
X100794018Y-99667159D01*
X100802812Y-99666948D01*
X100802988Y-99590354D01*
X100803165Y-99513760D01*
X100803341Y-99437166D01*
X100803518Y-99360572D01*
X100803694Y-99283978D01*
X100803870Y-99207384D01*
X100804047Y-99130791D01*
X100804223Y-99054197D01*
X100804400Y-98977603D01*
X100804576Y-98901009D01*
X100804752Y-98824415D01*
X100804929Y-98747821D01*
X100805105Y-98671227D01*
X100805282Y-98594633D01*
X100805458Y-98518040D01*
X100805634Y-98441446D01*
X100805811Y-98364852D01*
X100805987Y-98288258D01*
X100806163Y-98211664D01*
X100806340Y-98135070D01*
X100806516Y-98058476D01*
X100806693Y-97981882D01*
X100806869Y-97905288D01*
X100807045Y-97828695D01*
X100807222Y-97752101D01*
X100807398Y-97675507D01*
X100807575Y-97598913D01*
X100807751Y-97522319D01*
X100807927Y-97445725D01*
X100808104Y-97369131D01*
X100808280Y-97292538D01*
X100808368Y-97254241D01*
X100808457Y-97215944D01*
X100808696Y-97112634D01*
X100808933Y-97012232D01*
X100809169Y-96914696D01*
X100809402Y-96819982D01*
X100809635Y-96728050D01*
X100809869Y-96638857D01*
X100810106Y-96552359D01*
X100810347Y-96468516D01*
X100810592Y-96387284D01*
X100810840Y-96308622D01*
X100811092Y-96232486D01*
X100811349Y-96158835D01*
X100811611Y-96087626D01*
X100811879Y-96018817D01*
X100812154Y-95952366D01*
X100812436Y-95888230D01*
X100812718Y-95826367D01*
X100813029Y-95766735D01*
X100813339Y-95709291D01*
X100813649Y-95653992D01*
X100813988Y-95600798D01*
X100814327Y-95549665D01*
X100814694Y-95500550D01*
X100815061Y-95453412D01*
X100815427Y-95408208D01*
X100815823Y-95364897D01*
X100816669Y-95283780D01*
X100817572Y-95209723D01*
X100818560Y-95142387D01*
X100819633Y-95081433D01*
X100820761Y-95026523D01*
X100821975Y-94977318D01*
X100823301Y-94933479D01*
X100824713Y-94894668D01*
X100826237Y-94860546D01*
X100827873Y-94830774D01*
X100829623Y-94805014D01*
X100831486Y-94782928D01*
X100833490Y-94764175D01*
X100835606Y-94748418D01*
X100837864Y-94735319D01*
X100848357Y-94702717D01*
X100866504Y-94672823D01*
X100886895Y-94644708D01*
X100909278Y-94618604D01*
X100933393Y-94594743D01*
X100958991Y-94573357D01*
X100985816Y-94554677D01*
X101013612Y-94538936D01*
X101042124Y-94526365D01*
X101108550Y-94520376D01*
X101116088Y-94520035D01*
X101124038Y-94519696D01*
X101132400Y-94519360D01*
X101141180Y-94519027D01*
X101150378Y-94518700D01*
X101159996Y-94518375D01*
X101170037Y-94518054D01*
X101180505Y-94517735D01*
X101191399Y-94517422D01*
X101202724Y-94517111D01*
X101214482Y-94516803D01*
X101226674Y-94516499D01*
X101239303Y-94516200D01*
X101252370Y-94515903D01*
X101265880Y-94515610D01*
X101279833Y-94515319D01*
X101294232Y-94515031D01*
X101309077Y-94514749D01*
X101324373Y-94514469D01*
X101340121Y-94514192D01*
X101356324Y-94513919D01*
X101372983Y-94513649D01*
X101390103Y-94513383D01*
X101407685Y-94513119D01*
X101425731Y-94512860D01*
X101444242Y-94512603D01*
X101463221Y-94512349D01*
X101482672Y-94512099D01*
X101502594Y-94511852D01*
X101522993Y-94511608D01*
X101543869Y-94511368D01*
X101565225Y-94511130D01*
X101587063Y-94510896D01*
X101609384Y-94510665D01*
X101632190Y-94510437D01*
X101655488Y-94510213D01*
X101679276Y-94509991D01*
X101703556Y-94509772D01*
X101728332Y-94509557D01*
X101753605Y-94509345D01*
X101779378Y-94509135D01*
X101805653Y-94508929D01*
X101832433Y-94508726D01*
X101859721Y-94508526D01*
X101887517Y-94508329D01*
X101915824Y-94508134D01*
X101944645Y-94507943D01*
X101973982Y-94507755D01*
X102003836Y-94507569D01*
X102034212Y-94507387D01*
X102065109Y-94507207D01*
X102096531Y-94507031D01*
X102128481Y-94506857D01*
X102160960Y-94506686D01*
X102193970Y-94506518D01*
X102227514Y-94506353D01*
X102261595Y-94506190D01*
X102296214Y-94506031D01*
X102331373Y-94505874D01*
X102367075Y-94505720D01*
X102403323Y-94505569D01*
X102440117Y-94505421D01*
X102477462Y-94505276D01*
X102515358Y-94505133D01*
X102553809Y-94504993D01*
X102592816Y-94504856D01*
X102632382Y-94504721D01*
X102672508Y-94504589D01*
X102713198Y-94504459D01*
X102754454Y-94504333D01*
X102796277Y-94504208D01*
X102838670Y-94504087D01*
X102881636Y-94503968D01*
X102925175Y-94503851D01*
X102969292Y-94503737D01*
X103013988Y-94503626D01*
X103059265Y-94503517D01*
X103105126Y-94503410D01*
X103151572Y-94503307D01*
X103198606Y-94503205D01*
X103246231Y-94503107D01*
X103294449Y-94503010D01*
X103343261Y-94502917D01*
X103392670Y-94502825D01*
X103442679Y-94502736D01*
X103493289Y-94502650D01*
X103544504Y-94502566D01*
X103596324Y-94502485D01*
X103648753Y-94502406D01*
X103701792Y-94502329D01*
X103755445Y-94502255D01*
X103809712Y-94502183D01*
X103864598Y-94502113D01*
X103920102Y-94502046D01*
X103976229Y-94501981D01*
X104032980Y-94501918D01*
X104090357Y-94501858D01*
X104148363Y-94501800D01*
X104207000Y-94501744D01*
X104266271Y-94501690D01*
X104326176Y-94501639D01*
X104386720Y-94501589D01*
X104447904Y-94501542D01*
X104509730Y-94501497D01*
X104572200Y-94501453D01*
X104635318Y-94501412D01*
X104699084Y-94501373D01*
X104763502Y-94501336D01*
X104828573Y-94501302D01*
X104894300Y-94501269D01*
X104960686Y-94501238D01*
X105027731Y-94501210D01*
X105058383Y-94501198D01*
X105089035Y-94501185D01*
X105119687Y-94501173D01*
X105150339Y-94501160D01*
X105180991Y-94501148D01*
X105211643Y-94501135D01*
X105242295Y-94501123D01*
X105272947Y-94501111D01*
X105303598Y-94501098D01*
X105334250Y-94501086D01*
X105364902Y-94501073D01*
X105395554Y-94501061D01*
X105426206Y-94501048D01*
X105456858Y-94501036D01*
X105487510Y-94501024D01*
X105518162Y-94501011D01*
X105548814Y-94500999D01*
X105579466Y-94500986D01*
X105610117Y-94500974D01*
X105640769Y-94500961D01*
X105671421Y-94500949D01*
X105702073Y-94500936D01*
X105732725Y-94500924D01*
X105763377Y-94500912D01*
X105794029Y-94500899D01*
X105824681Y-94500887D01*
X105855333Y-94500874D01*
X105885985Y-94500862D01*
X105916637Y-94500849D01*
X105947289Y-94500837D01*
X105977940Y-94500825D01*
X106008592Y-94500812D01*
X106039244Y-94500800D01*
X106069896Y-94500787D01*
X106100548Y-94500775D01*
X106131200Y-94500762D01*
X106161852Y-94500750D01*
X106192504Y-94500738D01*
X106223156Y-94500725D01*
X106253808Y-94500713D01*
X106284459Y-94500700D01*
X106315111Y-94500688D01*
X106345763Y-94500675D01*
X106376415Y-94500663D01*
X106407067Y-94500650D01*
X106437719Y-94500638D01*
X106468371Y-94500626D01*
X106499023Y-94500613D01*
X106529675Y-94500601D01*
X106560327Y-94500588D01*
X106590979Y-94500576D01*
X106621630Y-94500563D01*
X106652283Y-94500551D01*
X106682934Y-94500539D01*
X106713586Y-94500526D01*
X106744238Y-94500514D01*
X106774890Y-94500501D01*
X106805542Y-94500489D01*
X106836194Y-94500476D01*
X106866846Y-94500464D01*
X106897498Y-94500452D01*
X106928150Y-94500439D01*
X106958802Y-94500427D01*
X106989453Y-94500414D01*
X107020105Y-94500402D01*
X107050757Y-94500389D01*
X107081409Y-94500377D01*
X107112061Y-94500364D01*
X107142713Y-94500352D01*
X107173365Y-94500340D01*
X107204017Y-94500327D01*
X107234669Y-94500315D01*
X107265321Y-94500302D01*
X107295972Y-94500290D01*
X107326624Y-94500277D01*
X107357276Y-94500265D01*
X107387928Y-94500253D01*
X107418580Y-94500240D01*
X107449232Y-94500228D01*
X107479884Y-94500215D01*
X107510536Y-94500203D01*
X107541188Y-94500190D01*
X107571840Y-94500178D01*
X107602491Y-94500165D01*
X107633144Y-94500153D01*
X107663796Y-94500141D01*
X107694447Y-94500128D01*
X107725099Y-94500116D01*
X107755751Y-94500103D01*
X107786403Y-94500091D01*
X107817055Y-94500078D01*
X107847707Y-94500066D01*
X107878359Y-94500054D01*
X107909011Y-94500041D01*
X107939663Y-94500029D01*
X107970315Y-94500016D01*
X108000966Y-94500004D01*
X108031618Y-94499991D01*
X108062270Y-94499979D01*
X108092922Y-94499967D01*
X108123574Y-94499954D01*
X108154226Y-94499942D01*
X108184878Y-94499929D01*
X108215530Y-94499917D01*
X108246182Y-94499904D01*
X108276834Y-94499892D01*
X108307485Y-94499879D01*
X108338137Y-94499867D01*
X108368789Y-94499855D01*
X108399441Y-94499842D01*
X108430093Y-94499830D01*
X108460745Y-94499817D01*
X108491397Y-94499805D01*
X108522049Y-94499792D01*
X108552701Y-94499780D01*
X108583353Y-94499768D01*
X108614005Y-94499755D01*
X108644657Y-94499743D01*
X108675308Y-94499730D01*
X108705960Y-94499718D01*
X108736612Y-94499705D01*
X108767264Y-94499693D01*
X108797916Y-94499680D01*
X108828568Y-94499668D01*
X108859220Y-94499656D01*
X108889872Y-94499643D01*
X108920524Y-94499631D01*
X108951176Y-94499618D01*
X108962820Y-94506442D01*
X108974465Y-94513267D01*
X108986109Y-94520091D01*
X108997754Y-94526915D01*
X109009398Y-94533739D01*
X109021043Y-94540563D01*
X109032687Y-94547387D01*
X109044332Y-94554211D01*
X109067299Y-94568628D01*
X109088409Y-94583898D01*
X109107750Y-94600114D01*
X109125408Y-94617367D01*
X109141470Y-94635751D01*
X109156024Y-94655357D01*
X109169158Y-94676279D01*
X109180961Y-94698609D01*
X109194920Y-94730394D01*
X109205520Y-94767588D01*
X109209705Y-94791536D01*
X109213225Y-94820823D01*
X109216134Y-94856777D01*
X109218505Y-94900726D01*
X109220368Y-94954002D01*
X109221807Y-95017931D01*
X109222851Y-95093842D01*
X109223585Y-95183065D01*
X109224065Y-95286929D01*
X109224326Y-95406761D01*
X109224441Y-95543891D01*
X109224474Y-95699647D01*
X109224475Y-95756600D01*
X109224476Y-95813552D01*
X109224479Y-95927456D01*
X109224481Y-96041360D01*
X109224484Y-96155264D01*
X109224487Y-96269169D01*
X109224489Y-96383073D01*
X109224492Y-96496977D01*
X109224494Y-96610881D01*
X109192732Y-96609188D01*
X109160969Y-96607494D01*
X109129207Y-96605801D01*
X109097444Y-96604108D01*
X109065682Y-96602414D01*
X109033919Y-96600721D01*
X109002157Y-96599028D01*
X108970394Y-96597334D01*
X108917975Y-96594569D01*
X108866413Y-96591916D01*
X108817027Y-96589432D01*
X108771135Y-96587174D01*
X108730056Y-96585227D01*
X108695109Y-96583647D01*
X108667613Y-96582489D01*
X108648884Y-96581812D01*
X108640460Y-96581565D01*
X108632036Y-96581318D01*
X108623611Y-96581071D01*
X108615187Y-96580824D01*
X108606763Y-96580577D01*
X108598338Y-96580330D01*
X108589914Y-96580084D01*
X108581490Y-96579837D01*
X108581490Y-96489088D01*
X108581490Y-96398339D01*
X108581490Y-96307591D01*
X108581490Y-96216842D01*
X108581490Y-96126094D01*
X108581490Y-96035345D01*
X108581490Y-95944597D01*
X108581490Y-95853848D01*
X108581490Y-95763100D01*
X108581490Y-95672351D01*
X108581490Y-95581603D01*
X108581490Y-95490854D01*
X108581490Y-95400106D01*
X108581490Y-95309357D01*
X108581490Y-95218609D01*
X108581490Y-95127860D01*
X108525830Y-95127942D01*
X108470170Y-95128024D01*
X108414510Y-95128106D01*
X108358850Y-95128188D01*
X108303190Y-95128269D01*
X108247530Y-95128351D01*
X108191870Y-95128433D01*
X108136210Y-95128515D01*
X108080550Y-95128597D01*
X108024890Y-95128679D01*
X107969230Y-95128760D01*
X107913570Y-95128842D01*
X107857910Y-95128924D01*
X107802250Y-95129006D01*
X107746590Y-95129088D01*
X107690930Y-95129170D01*
X107635270Y-95129252D01*
X107579610Y-95129333D01*
X107523950Y-95129415D01*
X107468290Y-95129497D01*
X107412630Y-95129579D01*
X107356970Y-95129661D01*
X107301310Y-95129743D01*
X107245650Y-95129824D01*
X107189990Y-95129906D01*
X107134330Y-95129988D01*
X107078670Y-95130070D01*
X107023010Y-95130152D01*
X106967350Y-95130234D01*
X106911690Y-95130316D01*
X106856030Y-95130397D01*
X106800370Y-95130479D01*
X106744711Y-95130561D01*
X106689050Y-95130643D01*
X106633391Y-95130725D01*
X106577730Y-95130807D01*
X106522071Y-95130888D01*
X106466411Y-95130970D01*
X106410751Y-95131052D01*
X106355091Y-95131134D01*
X106299431Y-95131216D01*
X106243771Y-95131298D01*
X106188111Y-95131379D01*
X106132451Y-95131461D01*
X106076791Y-95131543D01*
X106021131Y-95131625D01*
X105965471Y-95131707D01*
X105909811Y-95131789D01*
X105854151Y-95131871D01*
X105798491Y-95131952D01*
X105742831Y-95132034D01*
X105687171Y-95132116D01*
X105631511Y-95132198D01*
X105575851Y-95132280D01*
X105520191Y-95132362D01*
X105464531Y-95132443D01*
X105408871Y-95132525D01*
X105353211Y-95132607D01*
X105297551Y-95132689D01*
X105241891Y-95132771D01*
X105186231Y-95132853D01*
X105130571Y-95132935D01*
X105074911Y-95133016D01*
X105019251Y-95133098D01*
X104963591Y-95133180D01*
X104907931Y-95133262D01*
X104852271Y-95133344D01*
X104796611Y-95133426D01*
X104740951Y-95133507D01*
X104685292Y-95133589D01*
X104629631Y-95133671D01*
X104573972Y-95133753D01*
X104518312Y-95133835D01*
X104462652Y-95133917D01*
X104406992Y-95133999D01*
X104351332Y-95134080D01*
X104295672Y-95134162D01*
X104240012Y-95134244D01*
X104184352Y-95134326D01*
X104128692Y-95134408D01*
X104073032Y-95134490D01*
X104017372Y-95134571D01*
X103961712Y-95134653D01*
X103906052Y-95134735D01*
X103850392Y-95134817D01*
X103794732Y-95134899D01*
X103739072Y-95134981D01*
X103683412Y-95135062D01*
X103627752Y-95135144D01*
X103572092Y-95135226D01*
X103516432Y-95135308D01*
X103460772Y-95135390D01*
X103405112Y-95135472D01*
X103349452Y-95135554D01*
X103293792Y-95135635D01*
X103238132Y-95135717D01*
X103182472Y-95135799D01*
X103126812Y-95135881D01*
X103071152Y-95135963D01*
X103015492Y-95136045D01*
X102959833Y-95136126D01*
X102904172Y-95136208D01*
X102848513Y-95136290D01*
X102792853Y-95136372D01*
X102737193Y-95136454D01*
X102681533Y-95136536D01*
X102625873Y-95136618D01*
X102570213Y-95136699D01*
X102514553Y-95136781D01*
X102458893Y-95136863D01*
X102403233Y-95136945D01*
X102347573Y-95137027D01*
X102291913Y-95137109D01*
X102236253Y-95137190D01*
X102180593Y-95137272D01*
X102124933Y-95137354D01*
X102069273Y-95137436D01*
X102013613Y-95137518D01*
X101957953Y-95137600D01*
X101902293Y-95137682D01*
X101846633Y-95137763D01*
X101790973Y-95137845D01*
X101735313Y-95137927D01*
X101679653Y-95138009D01*
X101623993Y-95138091D01*
X101568333Y-95138173D01*
X101512673Y-95138254D01*
X101457013Y-95138336D01*
X101456932Y-95171797D01*
X101456851Y-95205258D01*
X101456770Y-95238719D01*
X101456689Y-95272179D01*
X101456608Y-95305640D01*
X101456527Y-95339101D01*
X101456445Y-95372562D01*
X101456364Y-95406023D01*
X101456283Y-95439483D01*
X101456202Y-95472944D01*
X101456121Y-95506405D01*
X101456040Y-95539866D01*
X101455958Y-95573327D01*
X101455877Y-95606787D01*
X101455796Y-95640248D01*
X101455715Y-95673709D01*
X101455634Y-95707170D01*
X101455553Y-95740631D01*
X101455472Y-95774092D01*
X101455391Y-95807552D01*
X101455309Y-95841013D01*
X101455228Y-95874474D01*
X101455147Y-95907935D01*
X101455066Y-95941395D01*
X101454985Y-95974856D01*
X101454904Y-96008317D01*
X101454822Y-96041778D01*
X101454741Y-96075239D01*
X101454660Y-96108699D01*
X101454579Y-96142160D01*
X101454498Y-96175621D01*
X101454417Y-96209082D01*
X101454336Y-96242543D01*
X101454255Y-96276003D01*
X101454173Y-96309464D01*
X101454092Y-96342925D01*
X101454011Y-96376386D01*
X101453930Y-96409846D01*
X101453849Y-96443307D01*
X101453768Y-96476768D01*
X101453687Y-96510229D01*
X101453606Y-96543690D01*
X101453524Y-96577151D01*
X101453443Y-96610611D01*
X101453362Y-96644072D01*
X101453281Y-96677533D01*
X101453200Y-96710994D01*
X101453119Y-96744455D01*
X101453037Y-96777915D01*
X101452956Y-96811376D01*
X101452875Y-96844837D01*
X101452794Y-96878298D01*
X101452713Y-96911758D01*
X101452632Y-96945219D01*
X101452551Y-96978680D01*
X101452470Y-97012141D01*
X101452388Y-97045602D01*
X101452307Y-97079063D01*
X101452226Y-97112523D01*
X101452145Y-97145984D01*
X101452064Y-97179445D01*
X101451983Y-97212906D01*
X101451901Y-97246366D01*
X101451820Y-97279827D01*
X101451739Y-97313288D01*
X101451658Y-97346749D01*
X101451577Y-97380210D01*
X101451496Y-97413670D01*
X101451415Y-97447131D01*
X101451334Y-97480592D01*
X101451252Y-97514053D01*
X101451171Y-97547514D01*
X101451090Y-97580975D01*
X101451009Y-97614435D01*
X101450928Y-97647896D01*
X101450847Y-97681357D01*
X101450766Y-97714818D01*
X101450685Y-97748278D01*
X101450603Y-97781739D01*
X101450522Y-97815200D01*
X101450441Y-97848661D01*
X101450360Y-97882122D01*
X101450279Y-97915583D01*
X101450198Y-97949043D01*
X101450116Y-97982504D01*
X101450035Y-98015965D01*
X101449954Y-98049426D01*
X101449873Y-98082886D01*
X101449792Y-98116347D01*
X101449711Y-98149808D01*
X101449630Y-98183269D01*
X101449549Y-98216730D01*
X101449467Y-98250191D01*
X101449386Y-98283651D01*
X101449305Y-98317112D01*
X101449224Y-98350573D01*
X101449143Y-98384034D01*
X101449062Y-98417495D01*
X101448980Y-98450956D01*
X101448899Y-98484416D01*
X101448818Y-98517877D01*
X101448737Y-98551338D01*
X101448656Y-98584799D01*
X101448575Y-98618259D01*
X101448494Y-98651720D01*
X101448413Y-98685181D01*
X101448331Y-98718642D01*
X101448250Y-98752102D01*
X101448169Y-98785563D01*
X101448088Y-98819024D01*
X101448007Y-98852485D01*
X101447926Y-98885946D01*
X101447845Y-98919407D01*
X101447764Y-98952867D01*
X101447682Y-98986328D01*
X101447601Y-99019789D01*
X101447520Y-99053250D01*
X101447439Y-99086711D01*
X101447358Y-99120171D01*
X101447277Y-99153632D01*
X101447196Y-99187093D01*
X101447114Y-99220554D01*
X101447033Y-99254015D01*
X101446952Y-99287476D01*
X101446871Y-99320936D01*
X101446790Y-99354397D01*
X101446709Y-99387858D01*
X101446628Y-99421319D01*
X101502370Y-99421319D01*
X101558112Y-99421319D01*
X101613855Y-99421319D01*
X101669598Y-99421319D01*
X101725340Y-99421319D01*
X101781083Y-99421319D01*
X101836825Y-99421319D01*
X101892567Y-99421319D01*
X101948310Y-99421319D01*
X102004053Y-99421319D01*
X102059795Y-99421319D01*
X102115537Y-99421319D01*
X102171280Y-99421319D01*
X102227023Y-99421319D01*
X102282765Y-99421319D01*
X102338508Y-99421319D01*
X102394250Y-99421319D01*
X102449993Y-99421319D01*
X102505735Y-99421319D01*
X102561478Y-99421319D01*
X102617220Y-99421319D01*
X102672962Y-99421319D01*
X102728705Y-99421319D01*
X102784448Y-99421319D01*
X102840190Y-99421319D01*
X102895933Y-99421319D01*
X102951675Y-99421319D01*
X103007417Y-99421319D01*
X103063160Y-99421319D01*
X103118903Y-99421319D01*
X103174645Y-99421319D01*
X103230388Y-99421319D01*
X103286130Y-99421319D01*
X103341873Y-99421319D01*
X103397615Y-99421319D01*
X103453358Y-99421319D01*
X103509100Y-99421319D01*
X103564843Y-99421319D01*
X103620585Y-99421319D01*
X103676328Y-99421319D01*
X103732070Y-99421319D01*
X103787813Y-99421319D01*
X103843555Y-99421319D01*
X103899298Y-99421319D01*
X103955040Y-99421319D01*
X104010783Y-99421319D01*
X104066525Y-99421319D01*
X104122268Y-99421319D01*
X104178010Y-99421319D01*
X104233753Y-99421319D01*
X104289495Y-99421319D01*
X104345238Y-99421319D01*
X104400980Y-99421319D01*
X104456723Y-99421319D01*
X104512465Y-99421319D01*
X104568208Y-99421319D01*
X104623950Y-99421319D01*
X104679693Y-99421319D01*
X104735435Y-99421319D01*
X104791178Y-99421319D01*
X104846920Y-99421319D01*
X104902663Y-99421319D01*
X104958405Y-99421319D01*
X105014148Y-99421319D01*
X105069890Y-99421319D01*
X105125633Y-99421319D01*
X105181375Y-99421319D01*
X105237118Y-99421319D01*
X105292860Y-99421319D01*
X105348603Y-99421319D01*
X105404345Y-99421319D01*
X105460088Y-99421319D01*
X105515830Y-99421319D01*
X105571573Y-99421319D01*
X105627315Y-99421319D01*
X105683058Y-99421319D01*
X105738800Y-99421319D01*
X105794543Y-99421319D01*
X105850285Y-99421319D01*
X105906028Y-99421319D01*
X105961771Y-99421319D01*
X106017513Y-99421319D01*
X106073255Y-99421319D01*
X106128998Y-99421319D01*
X106184741Y-99421319D01*
X106240483Y-99421319D01*
X106296225Y-99421319D01*
X106351968Y-99421319D01*
X106407710Y-99421319D01*
X106463453Y-99421319D01*
X106519195Y-99421319D01*
X106574938Y-99421319D01*
X106630680Y-99421319D01*
X106686423Y-99421319D01*
X106742165Y-99421319D01*
X106797908Y-99421319D01*
X106853650Y-99421319D01*
X106909393Y-99421319D01*
X106965135Y-99421319D01*
X107020878Y-99421319D01*
X107076620Y-99421319D01*
X107132363Y-99421319D01*
X107188105Y-99421319D01*
X107243848Y-99421319D01*
X107299591Y-99421319D01*
X107355333Y-99421319D01*
X107411075Y-99421319D01*
X107466818Y-99421319D01*
X107522560Y-99421319D01*
X107578303Y-99421319D01*
X107634045Y-99421319D01*
X107689788Y-99421319D01*
X107745530Y-99421319D01*
X107801273Y-99421319D01*
X107857016Y-99421319D01*
X107912758Y-99421319D01*
X107968500Y-99421319D01*
X108024243Y-99421319D01*
X108079986Y-99421319D01*
X108135728Y-99421319D01*
X108191471Y-99421319D01*
X108247213Y-99421319D01*
X108302955Y-99421319D01*
X108358698Y-99421319D01*
X108414441Y-99421319D01*
X108470183Y-99421319D01*
X108525925Y-99421319D01*
X108581668Y-99421319D01*
X108581668Y-99383726D01*
X108581668Y-99346133D01*
X108581668Y-99308540D01*
X108581668Y-99270947D01*
X108581668Y-99233355D01*
X108581668Y-99195762D01*
X108581668Y-99158169D01*
X108581668Y-99120576D01*
X108581668Y-99082984D01*
X108581668Y-99045391D01*
X108581668Y-99007798D01*
X108581668Y-98970205D01*
X108581668Y-98932612D01*
X108581668Y-98895020D01*
X108581668Y-98857427D01*
X108581668Y-98819834D01*
X108621853Y-98819834D01*
X108662039Y-98819834D01*
X108702224Y-98819834D01*
X108742409Y-98819834D01*
X108782595Y-98819834D01*
X108822780Y-98819834D01*
X108862965Y-98819834D01*
X108903151Y-98819834D01*
X108943336Y-98819834D01*
X108983521Y-98819834D01*
X109023707Y-98819834D01*
X109063892Y-98819834D01*
X109104078Y-98819834D01*
X109144263Y-98819834D01*
X109184448Y-98819834D01*
X109224634Y-98819834D01*
X109224634Y-98872983D01*
X109224634Y-98926131D01*
X109224634Y-98979279D01*
X109224634Y-99032428D01*
X109224634Y-99085576D01*
X109224634Y-99138725D01*
X109224634Y-99191873D01*
X109224634Y-99245021D01*
X109224634Y-99298170D01*
X109224634Y-99351318D01*
X109224634Y-99404467D01*
X109224634Y-99457615D01*
X109224634Y-99510763D01*
X109224634Y-99563912D01*
X109224634Y-99617060D01*
X109224634Y-99670208D01*
X109256654Y-99670208D01*
X109288675Y-99670208D01*
X109320696Y-99670208D01*
X109352716Y-99670208D01*
X109384737Y-99670208D01*
X109416758Y-99670208D01*
X109448779Y-99670208D01*
X109480799Y-99670208D01*
X109533636Y-99670688D01*
X109585593Y-99672071D01*
X109635343Y-99674244D01*
X109681558Y-99677126D01*
X109722911Y-99680614D01*
X109758072Y-99684613D01*
X109785716Y-99689024D01*
X109804512Y-99693754D01*
X109836587Y-99708418D01*
X109863138Y-99728166D01*
X109884192Y-99753063D01*
X109899774Y-99783180D01*
X109909914Y-99818586D01*
X109914638Y-99859351D01*
X109913961Y-99905544D01*
X109907935Y-99957235D01*
X109504626Y-100499811D01*
X109432514Y-100529879D01*
X109317966Y-100546781D01*
X109081562Y-100556555D01*
X108643882Y-100565236D01*
X108348710Y-100569757D01*
X108104653Y-100572015D01*
X107937061Y-100571880D01*
X107871286Y-100569228D01*
X107855730Y-100375766D01*
X107847230Y-100210914D01*
X107802033Y-100128100D01*
X107741587Y-100076268D01*
X107658691Y-100064285D01*
X107575795Y-100076268D01*
X107515349Y-100128099D01*
X107470130Y-100211057D01*
X107461652Y-100376989D01*
X107461652Y-100562065D01*
X107420170Y-100562065D01*
X107378689Y-100562065D01*
X107337207Y-100562065D01*
X107295725Y-100562065D01*
X107254244Y-100562065D01*
X107212762Y-100562065D01*
X107171280Y-100562065D01*
X107129799Y-100562065D01*
X107129799Y-100405843D01*
X107118309Y-100249131D01*
X107081876Y-100143204D01*
X107017552Y-100083206D01*
X106922391Y-100064286D01*
X106827229Y-100083206D01*
X106762905Y-100143204D01*
X106726472Y-100249131D01*
X106714982Y-100405843D01*
X106714982Y-100562065D01*
X106672204Y-100562432D01*
X106629426Y-100562799D01*
X106586648Y-100563166D01*
X106543871Y-100563533D01*
X106348545Y-100564859D01*
X106098046Y-100565988D01*
X105800694Y-100566919D01*
X105464809Y-100567653D01*
X105098712Y-100568189D01*
X104710723Y-100568528D01*
X104309161Y-100568689D01*
X103902347Y-100568663D01*
X103498601Y-100568451D01*
X103106244Y-100568056D01*
X102733595Y-100567491D01*
X102388975Y-100566729D01*
X102080703Y-100565798D01*
X101817100Y-100564697D01*
X101606486Y-100563427D01*
X101457182Y-100561988D01*
X101457182Y-100561989D01*
X101457182Y-100561990D01*
X101457182Y-100561991D01*
X101457182Y-100561992D01*
X101457182Y-100561993D01*
X101457183Y-100561994D01*
X101457183Y-100561995D01*
X101457183Y-100561996D01*
X101457183Y-100561997D01*
X101457184Y-100561998D01*
X101456974Y-100561893D01*
X101456974Y-100561893D01*
G37*
G36*
X178426371Y-101929158D02*
X178758193Y-98859768D01*
X178758193Y-98969858D01*
X178758193Y-99079949D01*
X178758193Y-99190039D01*
X178758193Y-99300130D01*
X178835726Y-99720404D01*
X179115330Y-99980923D01*
X179667513Y-100115146D01*
X180562782Y-100156533D01*
X180867276Y-100158254D01*
X181171770Y-100159976D01*
X181476263Y-100161697D01*
X181780757Y-100163419D01*
X181644326Y-100000469D01*
X181507896Y-99837519D01*
X181371465Y-99674569D01*
X181235035Y-99511568D01*
X181098606Y-99348618D01*
X180962177Y-99185668D01*
X180825748Y-99022718D01*
X180689319Y-98859768D01*
X180447928Y-98859768D01*
X180206537Y-98859768D01*
X179965147Y-98859768D01*
X179723756Y-98859768D01*
X179482365Y-98859768D01*
X179240974Y-98859768D01*
X178999584Y-98859768D01*
X178758193Y-98859768D01*
X178426371Y-101929158D01*
X182651565Y-99825993D01*
X182828150Y-100024663D01*
X182927914Y-100123198D01*
X183041430Y-100197542D01*
X183205035Y-100251102D01*
X183455064Y-100287284D01*
X183827854Y-100309495D01*
X184359743Y-100321142D01*
X185087066Y-100325633D01*
X186046161Y-100326366D01*
X186986817Y-100325407D01*
X187706277Y-100320564D01*
X188238549Y-100308849D01*
X188617644Y-100287281D01*
X188877571Y-100252885D01*
X189052339Y-100202678D01*
X189175959Y-100133682D01*
X189282440Y-100042918D01*
X189282440Y-100042926D01*
X189584506Y-99687023D01*
X189332291Y-99499401D01*
X188912344Y-99451887D01*
X188250648Y-99426272D01*
X187312807Y-99415833D01*
X186064429Y-99413857D01*
X184826646Y-99415466D01*
X183898971Y-99424839D01*
X183245385Y-99448768D01*
X182829870Y-99494051D01*
X182616407Y-99567484D01*
X182568978Y-99675866D01*
X182651565Y-99825993D01*
X178426371Y-101929158D01*
X178309263Y-96686756D01*
X178389366Y-97173600D01*
X178718378Y-97541683D01*
X179071381Y-97633996D01*
X179638362Y-97677720D01*
X180275474Y-97668708D01*
X180838868Y-97602814D01*
X180838868Y-97602813D01*
X181271811Y-97389515D01*
X181259235Y-97042260D01*
X180824369Y-96601938D01*
X179990444Y-96109442D01*
X179562474Y-95909779D01*
X179273114Y-95812476D01*
X179058311Y-95804108D01*
X178854010Y-95871249D01*
X178467625Y-96209767D01*
X178309263Y-96686756D01*
X178426371Y-101929158D01*
X178281308Y-101756276D01*
X178181878Y-101569965D01*
X178124700Y-101361705D01*
X190357839Y-100163411D01*
X190220437Y-100326361D01*
X190516834Y-100326361D01*
X190813231Y-100326361D01*
X191109628Y-100326361D01*
X191406025Y-100326361D01*
X191976055Y-100315233D01*
X192397806Y-100279142D01*
X192700391Y-100214027D01*
X192912925Y-100115825D01*
X192912924Y-100115826D01*
X193063013Y-99994261D01*
X193162365Y-99853685D01*
X193217324Y-99681231D01*
X193234235Y-99464026D01*
X193234235Y-99353710D01*
X193234235Y-99243393D01*
X193234235Y-99133077D01*
X193234235Y-99022760D01*
X192994912Y-99022760D01*
X192755588Y-99022760D01*
X192516264Y-99022760D01*
X192276940Y-99022760D01*
X192037617Y-99022760D01*
X191798293Y-99022760D01*
X191558970Y-99022760D01*
X191319646Y-99022760D01*
X191182245Y-99185710D01*
X191044844Y-99348660D01*
X190907443Y-99511610D01*
X190770042Y-99674560D01*
X190632641Y-99837510D01*
X190495240Y-100000461D01*
X190357839Y-100163411D01*
X178124700Y-101361705D01*
X178106393Y-101122975D01*
X178084771Y-100889522D01*
X178025898Y-100613305D01*
X177938766Y-100328854D01*
X177832364Y-100070698D01*
X177688496Y-99720196D01*
X177612449Y-99332909D01*
X182214553Y-97149159D01*
X182147555Y-97301917D01*
X182204852Y-97611708D01*
X182351947Y-97953996D01*
X182551649Y-98259326D01*
X182659605Y-98376428D01*
X182766766Y-98458246D01*
X183111929Y-98517249D01*
X183833499Y-98559889D01*
X184806412Y-98586037D01*
X185905604Y-98595565D01*
X187006010Y-98588340D01*
X187982565Y-98564233D01*
X188710205Y-98523113D01*
X189063865Y-98464851D01*
X189063865Y-98464847D01*
X189063865Y-98464843D01*
X189063865Y-98464840D01*
X189063865Y-98464837D01*
X189063865Y-98464833D01*
X189063865Y-98464830D01*
X189063865Y-98464826D01*
X189063865Y-98464823D01*
X189289882Y-98269060D01*
X189497533Y-97965098D01*
X189649494Y-97620272D01*
X189708441Y-97301918D01*
X189641444Y-97149130D01*
X189214746Y-97069620D01*
X188760708Y-97049868D01*
X188089785Y-97039462D01*
X187159655Y-97035412D01*
X185927998Y-97034735D01*
X184696344Y-97035412D01*
X183766215Y-97039471D01*
X183095291Y-97049885D01*
X182641253Y-97069646D01*
X182214553Y-97149159D01*
X177612449Y-99332909D01*
X187343916Y-94427517D01*
X188051875Y-94427517D01*
X188759834Y-94427517D01*
X189467793Y-94427517D01*
X190175752Y-94427517D01*
X190883711Y-94427517D01*
X191591670Y-94427517D01*
X191478042Y-94312247D01*
X191364414Y-94196975D01*
X191137159Y-93966432D01*
X190909904Y-93735889D01*
X190682649Y-93505345D01*
X190301916Y-93132615D01*
X189937245Y-92799456D01*
X189773864Y-92659078D01*
X189630016Y-92542226D01*
X189510873Y-92453447D01*
X189421609Y-92397285D01*
X189293325Y-92347362D01*
X189106179Y-92306620D01*
X188845540Y-92274281D01*
X188496783Y-92249567D01*
X188045278Y-92231700D01*
X187476397Y-92219900D01*
X186775513Y-92213392D01*
X185927998Y-92211388D01*
X185080485Y-92213392D01*
X184379602Y-92219897D01*
X183810722Y-92231694D01*
X183359217Y-92249559D01*
X183010460Y-92274270D01*
X182749822Y-92306609D01*
X182562676Y-92347354D01*
X182434394Y-92397283D01*
X182345128Y-92453446D01*
X182225984Y-92542225D01*
X182082136Y-92659076D01*
X181918756Y-92799455D01*
X181554087Y-93132615D01*
X181173354Y-93505344D01*
X180946098Y-93735888D01*
X180718841Y-93966431D01*
X180491584Y-94196974D01*
X180377956Y-94312246D01*
X180264327Y-94427517D01*
X180972286Y-94427517D01*
X181680245Y-94427517D01*
X182388204Y-94427517D01*
X183096163Y-94427517D01*
X183804122Y-94427517D01*
X184512081Y-94427517D01*
X185220039Y-94427517D01*
X185927998Y-94427517D01*
X186635957Y-94427517D01*
X187343916Y-94427517D01*
X177612449Y-99332909D01*
X177590285Y-98774639D01*
X177608064Y-97911187D01*
X177673624Y-96799529D01*
X177827823Y-96028816D01*
X178132832Y-95411051D01*
X192797689Y-95804099D01*
X192582887Y-95812469D01*
X192293526Y-95909772D01*
X191865554Y-96109433D01*
X191062833Y-96587647D01*
X190610352Y-97033123D01*
X190545659Y-97387765D01*
X190906301Y-97593476D01*
X191473211Y-97654442D01*
X192144261Y-97664878D01*
X192747909Y-97628301D01*
X193112614Y-97548226D01*
X193112614Y-97548229D01*
X193112614Y-97548231D01*
X193112614Y-97548234D01*
X193112614Y-97548236D01*
X193457395Y-97186577D01*
X193548054Y-96698141D01*
X193393336Y-96215504D01*
X193001987Y-95871238D01*
X192797689Y-95804099D01*
X178132832Y-95411051D01*
X178650829Y-94758239D01*
X178780272Y-94611184D01*
X178909715Y-94464129D01*
X179039158Y-94317074D01*
X179168602Y-94170020D01*
X179091101Y-94134708D01*
X179013600Y-94099396D01*
X178936100Y-94064085D01*
X178858599Y-94028773D01*
X178443902Y-93722574D01*
X178289914Y-93352781D01*
X178401362Y-92999725D01*
X178782973Y-92743741D01*
X179215450Y-92627056D01*
X179552100Y-92618352D01*
X179811982Y-92720620D01*
X180014152Y-92936847D01*
X180068923Y-93020440D01*
X180123695Y-93104033D01*
X180178466Y-93187626D01*
X180233238Y-93271218D01*
X180431789Y-93074977D01*
X180630341Y-92878736D01*
X180729617Y-92780615D01*
X180828892Y-92682495D01*
X180928168Y-92584374D01*
X181027444Y-92486253D01*
X181429366Y-92097585D01*
X181779911Y-91804591D01*
X182134861Y-91593754D01*
X182549994Y-91451559D01*
X183081092Y-91364489D01*
X183783938Y-91319030D01*
X184714313Y-91301665D01*
X185927998Y-91298871D01*
X187141684Y-91301665D01*
X188072060Y-91319030D01*
X188774906Y-91364490D01*
X189306005Y-91451560D01*
X189721139Y-91593756D01*
X190076087Y-91804593D01*
X190828553Y-92486252D01*
X191027106Y-92682494D01*
X191225660Y-92878735D01*
X191424213Y-93074976D01*
X191622766Y-93271217D01*
X191677537Y-93187624D01*
X191732309Y-93104032D01*
X191787080Y-93020439D01*
X191841851Y-92936846D01*
X192044020Y-92720618D01*
X192303902Y-92618350D01*
X192640550Y-92627054D01*
X193073024Y-92743740D01*
X193454637Y-92999726D01*
X193566085Y-93352781D01*
X193412096Y-93722574D01*
X192997398Y-94028772D01*
X192919897Y-94064084D01*
X192842397Y-94099395D01*
X192764896Y-94134707D01*
X192687396Y-94170019D01*
X192816839Y-94317073D01*
X192946282Y-94464128D01*
X193075726Y-94611183D01*
X193205169Y-94758238D01*
X193723165Y-95411050D01*
X194028174Y-96028815D01*
X194182373Y-96799528D01*
X194247934Y-97911186D01*
X194265714Y-98774638D01*
X194243554Y-99332909D01*
X194167508Y-99720196D01*
X194023634Y-100070696D01*
X193917236Y-100328853D01*
X193830103Y-100613304D01*
X193771229Y-100889520D01*
X193749605Y-101122974D01*
X193665194Y-101616620D01*
X193411447Y-101968438D01*
X192987600Y-102179062D01*
X192392887Y-102249129D01*
X191784254Y-102209889D01*
X191347005Y-102085640D01*
X191060490Y-101866587D01*
X190904064Y-101542937D01*
X190891048Y-101492704D01*
X190878032Y-101442470D01*
X190865016Y-101392236D01*
X190852000Y-101342003D01*
X190838984Y-101291769D01*
X190825968Y-101241536D01*
X190812952Y-101191302D01*
X190799936Y-101141069D01*
X190190944Y-101141069D01*
X189581952Y-101141069D01*
X188972960Y-101141069D01*
X188363969Y-101141069D01*
X187754977Y-101141069D01*
X187145985Y-101141069D01*
X186536993Y-101141069D01*
X185928002Y-101141069D01*
X185319011Y-101141069D01*
X184710020Y-101141069D01*
X184101029Y-101141069D01*
X183492038Y-101141069D01*
X182883047Y-101141069D01*
X182274056Y-101141069D01*
X181665065Y-101141069D01*
X181056074Y-101141069D01*
X181043058Y-101191302D01*
X181030042Y-101241536D01*
X181004007Y-101342003D01*
X180977972Y-101442470D01*
X180951937Y-101542937D01*
X180795513Y-101866587D01*
X180509001Y-102085640D01*
X180071753Y-102209889D01*
X179463120Y-102249129D01*
X179090264Y-102235997D01*
X178822842Y-102187450D01*
X178616375Y-102089748D01*
X178426371Y-101929158D01*
X178426371Y-101929158D01*
G37*
G04 #@! TD*
D11*
G04 #@! TO.C,J1*
X157480000Y-66040000D03*
X157480000Y-68580000D03*
X154940000Y-66040000D03*
X154940000Y-68580000D03*
X152400000Y-66040000D03*
X152400000Y-68580000D03*
X149860000Y-66040000D03*
X149860000Y-68580000D03*
X147320000Y-66040000D03*
X147320000Y-68580000D03*
X144780000Y-66040000D03*
X144780000Y-68580000D03*
X142240000Y-66040000D03*
X142240000Y-68580000D03*
X139700000Y-66040000D03*
X139700000Y-68580000D03*
X137160000Y-66040000D03*
X137160000Y-68580000D03*
X134620000Y-66040000D03*
X134620000Y-68580000D03*
X132080000Y-66040000D03*
X132080000Y-68580000D03*
X129540000Y-66040000D03*
D12*
X129540000Y-68580000D03*
G04 #@! TD*
G04 #@! TO.C,J2*
X168910000Y-66675000D03*
D11*
X171450000Y-66675000D03*
X168910000Y-69215000D03*
X171450000Y-69215000D03*
X168910000Y-71755000D03*
X171450000Y-71755000D03*
X168910000Y-74295000D03*
X171450000Y-74295000D03*
G04 #@! TD*
D12*
G04 #@! TO.C,J3*
X168910000Y-87630000D03*
D11*
X171450000Y-87630000D03*
X168910000Y-90170000D03*
X171450000Y-90170000D03*
X168910000Y-92710000D03*
X171450000Y-92710000D03*
X168910000Y-95250000D03*
X171450000Y-95250000D03*
G04 #@! TD*
G04 #@! TO.C,J4*
X171450000Y-113665000D03*
X168910000Y-113665000D03*
X171450000Y-111125000D03*
X168910000Y-111125000D03*
X171450000Y-108585000D03*
X168910000Y-108585000D03*
X171450000Y-106045000D03*
D12*
X168910000Y-106045000D03*
G04 #@! TD*
G04 #@! TO.C,J6*
X116586000Y-79502000D03*
D11*
X119126000Y-79502000D03*
X121666000Y-79502000D03*
G04 #@! TD*
D12*
G04 #@! TO.C,J11*
X117856000Y-90805000D03*
D11*
X120396000Y-90805000D03*
X117856000Y-93345000D03*
X120396000Y-93345000D03*
X117856000Y-95885000D03*
X120396000Y-95885000D03*
G04 #@! TD*
D13*
G04 #@! TO.C,U1*
X129540000Y-75565000D03*
D14*
X137160000Y-83185000D03*
X129540000Y-78105000D03*
X137160000Y-80645000D03*
X129540000Y-80645000D03*
X137160000Y-78105000D03*
X129540000Y-83185000D03*
X137160000Y-75565000D03*
G04 #@! TD*
D15*
G04 #@! TO.C,U2*
X131445000Y-97045000D03*
X132715000Y-97045000D03*
X133985000Y-97045000D03*
X135255000Y-97045000D03*
X135255000Y-89645000D03*
X133985000Y-89645000D03*
X132715000Y-89645000D03*
X131445000Y-89645000D03*
G04 #@! TD*
D14*
G04 #@! TO.C,U4*
X150495000Y-75565000D03*
X142875000Y-83185000D03*
X150495000Y-78105000D03*
X142875000Y-80645000D03*
X150495000Y-80645000D03*
X142875000Y-78105000D03*
X150495000Y-83185000D03*
D13*
X142875000Y-75565000D03*
G04 #@! TD*
D15*
G04 #@! TO.C,U5*
X145288000Y-89645000D03*
X146558000Y-89645000D03*
X147828000Y-89645000D03*
X149098000Y-89645000D03*
X149098000Y-97045000D03*
X147828000Y-97045000D03*
X146558000Y-97045000D03*
X145288000Y-97045000D03*
G04 #@! TD*
D16*
G04 #@! TO.C,U6*
X146345000Y-103075000D03*
X146995000Y-103075000D03*
X147645000Y-103075000D03*
X148295000Y-103075000D03*
X148295000Y-106475000D03*
X147645000Y-106475000D03*
X146995000Y-106475000D03*
X146345000Y-106475000D03*
G04 #@! TD*
D13*
G04 #@! TO.C,U7*
X156210000Y-75565000D03*
D14*
X163830000Y-83185000D03*
X156210000Y-78105000D03*
X163830000Y-80645000D03*
X156210000Y-80645000D03*
X163830000Y-78105000D03*
X156210000Y-83185000D03*
X163830000Y-75565000D03*
G04 #@! TD*
D15*
G04 #@! TO.C,U8*
X157988000Y-97045000D03*
X159258000Y-97045000D03*
X160528000Y-97045000D03*
X161798000Y-97045000D03*
X161798000Y-89645000D03*
X160528000Y-89645000D03*
X159258000Y-89645000D03*
X157988000Y-89645000D03*
G04 #@! TD*
D16*
G04 #@! TO.C,U9*
X159045000Y-106475000D03*
X159695000Y-106475000D03*
X160345000Y-106475000D03*
X160995000Y-106475000D03*
X160995000Y-103075000D03*
X160345000Y-103075000D03*
X159695000Y-103075000D03*
X159045000Y-103075000D03*
G04 #@! TD*
G04 #@! TO.C,U3*
X132375000Y-106475000D03*
X133025000Y-106475000D03*
X133675000Y-106475000D03*
X134325000Y-106475000D03*
X134325000Y-103075000D03*
X133675000Y-103075000D03*
X133025000Y-103075000D03*
X132375000Y-103075000D03*
G04 #@! TD*
D17*
G04 #@! TO.C,C1*
X121126000Y-85217000D03*
X117126000Y-85217000D03*
G04 #@! TD*
D18*
G04 #@! TO.C,D1*
X117226001Y-103251000D03*
X121226001Y-103251000D03*
G04 #@! TD*
G04 #@! TO.C,R1*
X117126000Y-100076000D03*
X121126000Y-100076000D03*
G04 #@! TD*
M02*
