G04 #@! TF.GenerationSoftware,KiCad,Pcbnew,5.0.0-fee4fd1~65~ubuntu16.04.1*
G04 #@! TF.CreationDate,2018-07-25T18:48:16-06:00*
G04 #@! TF.ProjectId,UPA_Shield_001,5550415F536869656C645F3030312E6B,rev?*
G04 #@! TF.SameCoordinates,Original*
G04 #@! TF.FileFunction,Legend,Top*
G04 #@! TF.FilePolarity,Positive*
%FSLAX46Y46*%
G04 Gerber Fmt 4.6, Leading zero omitted, Abs format (unit mm)*
G04 Created by KiCad (PCBNEW 5.0.0-fee4fd1~65~ubuntu16.04.1) date Wed Jul 25 18:48:16 2018*
%MOMM*%
%LPD*%
G01*
G04 APERTURE LIST*
%ADD10C,0.250000*%
%ADD11C,0.500000*%
%ADD12C,0.120000*%
%ADD13C,0.150000*%
G04 APERTURE END LIST*
D10*
X124237714Y-79954380D02*
X123666285Y-79954380D01*
X123952000Y-79954380D02*
X123952000Y-78954380D01*
X123856761Y-79097238D01*
X123761523Y-79192476D01*
X123666285Y-79240095D01*
X112085619Y-96464380D02*
X111752285Y-95988190D01*
X111514190Y-96464380D02*
X111514190Y-95464380D01*
X111895142Y-95464380D01*
X111990380Y-95512000D01*
X112038000Y-95559619D01*
X112085619Y-95654857D01*
X112085619Y-95797714D01*
X112038000Y-95892952D01*
X111990380Y-95940571D01*
X111895142Y-95988190D01*
X111514190Y-95988190D01*
X112514190Y-95940571D02*
X112847523Y-95940571D01*
X112990380Y-96464380D02*
X112514190Y-96464380D01*
X112514190Y-95464380D01*
X112990380Y-95464380D01*
X113371333Y-96416761D02*
X113514190Y-96464380D01*
X113752285Y-96464380D01*
X113847523Y-96416761D01*
X113895142Y-96369142D01*
X113942761Y-96273904D01*
X113942761Y-96178666D01*
X113895142Y-96083428D01*
X113847523Y-96035809D01*
X113752285Y-95988190D01*
X113561809Y-95940571D01*
X113466571Y-95892952D01*
X113418952Y-95845333D01*
X113371333Y-95750095D01*
X113371333Y-95654857D01*
X113418952Y-95559619D01*
X113466571Y-95512000D01*
X113561809Y-95464380D01*
X113799904Y-95464380D01*
X113942761Y-95512000D01*
X114371333Y-95940571D02*
X114704666Y-95940571D01*
X114847523Y-96464380D02*
X114371333Y-96464380D01*
X114371333Y-95464380D01*
X114847523Y-95464380D01*
X115133238Y-95464380D02*
X115704666Y-95464380D01*
X115418952Y-96464380D02*
X115418952Y-95464380D01*
X113093666Y-92797380D02*
X113427000Y-93797380D01*
X113760333Y-92797380D01*
X114665095Y-93702142D02*
X114617476Y-93749761D01*
X114474619Y-93797380D01*
X114379380Y-93797380D01*
X114236523Y-93749761D01*
X114141285Y-93654523D01*
X114093666Y-93559285D01*
X114046047Y-93368809D01*
X114046047Y-93225952D01*
X114093666Y-93035476D01*
X114141285Y-92940238D01*
X114236523Y-92845000D01*
X114379380Y-92797380D01*
X114474619Y-92797380D01*
X114617476Y-92845000D01*
X114665095Y-92892619D01*
X115665095Y-93702142D02*
X115617476Y-93749761D01*
X115474619Y-93797380D01*
X115379380Y-93797380D01*
X115236523Y-93749761D01*
X115141285Y-93654523D01*
X115093666Y-93559285D01*
X115046047Y-93368809D01*
X115046047Y-93225952D01*
X115093666Y-93035476D01*
X115141285Y-92940238D01*
X115236523Y-92845000D01*
X115379380Y-92797380D01*
X115474619Y-92797380D01*
X115617476Y-92845000D01*
X115665095Y-92892619D01*
X123094904Y-95813571D02*
X123237761Y-95861190D01*
X123285380Y-95908809D01*
X123333000Y-96004047D01*
X123333000Y-96146904D01*
X123285380Y-96242142D01*
X123237761Y-96289761D01*
X123142523Y-96337380D01*
X122761571Y-96337380D01*
X122761571Y-95337380D01*
X123094904Y-95337380D01*
X123190142Y-95385000D01*
X123237761Y-95432619D01*
X123285380Y-95527857D01*
X123285380Y-95623095D01*
X123237761Y-95718333D01*
X123190142Y-95765952D01*
X123094904Y-95813571D01*
X122761571Y-95813571D01*
X123761571Y-96337380D02*
X123761571Y-95337380D01*
X123856809Y-95956428D02*
X124142523Y-96337380D01*
X124142523Y-95670714D02*
X123761571Y-96051666D01*
X124999666Y-95670714D02*
X124999666Y-96480238D01*
X124952047Y-96575476D01*
X124904428Y-96623095D01*
X124809190Y-96670714D01*
X124666333Y-96670714D01*
X124571095Y-96623095D01*
X124999666Y-96289761D02*
X124904428Y-96337380D01*
X124713952Y-96337380D01*
X124618714Y-96289761D01*
X124571095Y-96242142D01*
X124523476Y-96146904D01*
X124523476Y-95861190D01*
X124571095Y-95765952D01*
X124618714Y-95718333D01*
X124713952Y-95670714D01*
X124904428Y-95670714D01*
X124999666Y-95718333D01*
X125904428Y-96337380D02*
X125904428Y-95337380D01*
X125904428Y-96289761D02*
X125809190Y-96337380D01*
X125618714Y-96337380D01*
X125523476Y-96289761D01*
X125475857Y-96242142D01*
X125428238Y-96146904D01*
X125428238Y-95861190D01*
X125475857Y-95765952D01*
X125523476Y-95718333D01*
X125618714Y-95670714D01*
X125809190Y-95670714D01*
X125904428Y-95718333D01*
X122539285Y-92797380D02*
X122872619Y-93797380D01*
X123205952Y-92797380D01*
X123491666Y-93749761D02*
X123634523Y-93797380D01*
X123872619Y-93797380D01*
X123967857Y-93749761D01*
X124015476Y-93702142D01*
X124063095Y-93606904D01*
X124063095Y-93511666D01*
X124015476Y-93416428D01*
X123967857Y-93368809D01*
X123872619Y-93321190D01*
X123682142Y-93273571D01*
X123586904Y-93225952D01*
X123539285Y-93178333D01*
X123491666Y-93083095D01*
X123491666Y-92987857D01*
X123539285Y-92892619D01*
X123586904Y-92845000D01*
X123682142Y-92797380D01*
X123920238Y-92797380D01*
X124063095Y-92845000D01*
X124444047Y-93749761D02*
X124586904Y-93797380D01*
X124825000Y-93797380D01*
X124920238Y-93749761D01*
X124967857Y-93702142D01*
X125015476Y-93606904D01*
X125015476Y-93511666D01*
X124967857Y-93416428D01*
X124920238Y-93368809D01*
X124825000Y-93321190D01*
X124634523Y-93273571D01*
X124539285Y-93225952D01*
X124491666Y-93178333D01*
X124444047Y-93083095D01*
X124444047Y-92987857D01*
X124491666Y-92892619D01*
X124539285Y-92845000D01*
X124634523Y-92797380D01*
X124872619Y-92797380D01*
X125015476Y-92845000D01*
X122586952Y-90733571D02*
X122920285Y-90733571D01*
X123063142Y-91257380D02*
X122586952Y-91257380D01*
X122586952Y-90257380D01*
X123063142Y-90257380D01*
X123396476Y-91257380D02*
X123920285Y-90590714D01*
X123396476Y-90590714D02*
X123920285Y-91257380D01*
X124158380Y-90590714D02*
X124539333Y-90590714D01*
X124301238Y-90257380D02*
X124301238Y-91114523D01*
X124348857Y-91209761D01*
X124444095Y-91257380D01*
X124539333Y-91257380D01*
X125301238Y-91257380D02*
X125301238Y-90733571D01*
X125253619Y-90638333D01*
X125158380Y-90590714D01*
X124967904Y-90590714D01*
X124872666Y-90638333D01*
X125301238Y-91209761D02*
X125206000Y-91257380D01*
X124967904Y-91257380D01*
X124872666Y-91209761D01*
X124825047Y-91114523D01*
X124825047Y-91019285D01*
X124872666Y-90924047D01*
X124967904Y-90876428D01*
X125206000Y-90876428D01*
X125301238Y-90828809D01*
X125920285Y-91257380D02*
X125825047Y-91209761D01*
X125777428Y-91114523D01*
X125777428Y-90257380D01*
X174148714Y-114244380D02*
X173577285Y-114244380D01*
X173863000Y-114244380D02*
X173863000Y-113244380D01*
X173767761Y-113387238D01*
X173672523Y-113482476D01*
X173577285Y-113530095D01*
X174148714Y-95702380D02*
X173577285Y-95702380D01*
X173863000Y-95702380D02*
X173863000Y-94702380D01*
X173767761Y-94845238D01*
X173672523Y-94940476D01*
X173577285Y-94988095D01*
X174275714Y-74874380D02*
X173704285Y-74874380D01*
X173990000Y-74874380D02*
X173990000Y-73874380D01*
X173894761Y-74017238D01*
X173799523Y-74112476D01*
X173704285Y-74160095D01*
X158273714Y-99639380D02*
X157702285Y-99639380D01*
X157988000Y-99639380D02*
X157988000Y-98639380D01*
X157892761Y-98782238D01*
X157797523Y-98877476D01*
X157702285Y-98925095D01*
X159416714Y-108783380D02*
X158845285Y-108783380D01*
X159131000Y-108783380D02*
X159131000Y-107783380D01*
X159035761Y-107926238D01*
X158940523Y-108021476D01*
X158845285Y-108069095D01*
X146716714Y-108910380D02*
X146145285Y-108910380D01*
X146431000Y-108910380D02*
X146431000Y-107910380D01*
X146335761Y-108053238D01*
X146240523Y-108148476D01*
X146145285Y-108196095D01*
X145573714Y-99639380D02*
X145002285Y-99639380D01*
X145288000Y-99639380D02*
X145288000Y-98639380D01*
X145192761Y-98782238D01*
X145097523Y-98877476D01*
X145002285Y-98925095D01*
X132619714Y-108783380D02*
X132048285Y-108783380D01*
X132334000Y-108783380D02*
X132334000Y-107783380D01*
X132238761Y-107926238D01*
X132143523Y-108021476D01*
X132048285Y-108069095D01*
X131730714Y-99639380D02*
X131159285Y-99639380D01*
X131445000Y-99639380D02*
X131445000Y-98639380D01*
X131349761Y-98782238D01*
X131254523Y-98877476D01*
X131159285Y-98925095D01*
X154082714Y-76017380D02*
X153511285Y-76017380D01*
X153797000Y-76017380D02*
X153797000Y-75017380D01*
X153701761Y-75160238D01*
X153606523Y-75255476D01*
X153511285Y-75303095D01*
X140620714Y-76017380D02*
X140049285Y-76017380D01*
X140335000Y-76017380D02*
X140335000Y-75017380D01*
X140239761Y-75160238D01*
X140144523Y-75255476D01*
X140049285Y-75303095D01*
X127412714Y-76017380D02*
X126841285Y-76017380D01*
X127127000Y-76017380D02*
X127127000Y-75017380D01*
X127031761Y-75160238D01*
X126936523Y-75255476D01*
X126841285Y-75303095D01*
X115030761Y-76366714D02*
X115268857Y-77033380D01*
X115506952Y-76366714D01*
X117173619Y-77033380D02*
X116602190Y-77033380D01*
X116887904Y-77033380D02*
X116887904Y-76033380D01*
X116792666Y-76176238D01*
X116697428Y-76271476D01*
X116602190Y-76319095D01*
X117602190Y-76938142D02*
X117649809Y-76985761D01*
X117602190Y-77033380D01*
X117554571Y-76985761D01*
X117602190Y-76938142D01*
X117602190Y-77033380D01*
X118268857Y-76033380D02*
X118364095Y-76033380D01*
X118459333Y-76081000D01*
X118506952Y-76128619D01*
X118554571Y-76223857D01*
X118602190Y-76414333D01*
X118602190Y-76652428D01*
X118554571Y-76842904D01*
X118506952Y-76938142D01*
X118459333Y-76985761D01*
X118364095Y-77033380D01*
X118268857Y-77033380D01*
X118173619Y-76985761D01*
X118126000Y-76938142D01*
X118078380Y-76842904D01*
X118030761Y-76652428D01*
X118030761Y-76414333D01*
X118078380Y-76223857D01*
X118126000Y-76128619D01*
X118173619Y-76081000D01*
X118268857Y-76033380D01*
X119745047Y-76128619D02*
X119792666Y-76081000D01*
X119887904Y-76033380D01*
X120126000Y-76033380D01*
X120221238Y-76081000D01*
X120268857Y-76128619D01*
X120316476Y-76223857D01*
X120316476Y-76319095D01*
X120268857Y-76461952D01*
X119697428Y-77033380D01*
X120316476Y-77033380D01*
X120935523Y-76033380D02*
X121030761Y-76033380D01*
X121126000Y-76081000D01*
X121173619Y-76128619D01*
X121221238Y-76223857D01*
X121268857Y-76414333D01*
X121268857Y-76652428D01*
X121221238Y-76842904D01*
X121173619Y-76938142D01*
X121126000Y-76985761D01*
X121030761Y-77033380D01*
X120935523Y-77033380D01*
X120840285Y-76985761D01*
X120792666Y-76938142D01*
X120745047Y-76842904D01*
X120697428Y-76652428D01*
X120697428Y-76414333D01*
X120745047Y-76223857D01*
X120792666Y-76128619D01*
X120840285Y-76081000D01*
X120935523Y-76033380D01*
X122221238Y-77033380D02*
X121649809Y-77033380D01*
X121935523Y-77033380D02*
X121935523Y-76033380D01*
X121840285Y-76176238D01*
X121745047Y-76271476D01*
X121649809Y-76319095D01*
X122792666Y-76461952D02*
X122697428Y-76414333D01*
X122649809Y-76366714D01*
X122602190Y-76271476D01*
X122602190Y-76223857D01*
X122649809Y-76128619D01*
X122697428Y-76081000D01*
X122792666Y-76033380D01*
X122983142Y-76033380D01*
X123078380Y-76081000D01*
X123126000Y-76128619D01*
X123173619Y-76223857D01*
X123173619Y-76271476D01*
X123126000Y-76366714D01*
X123078380Y-76414333D01*
X122983142Y-76461952D01*
X122792666Y-76461952D01*
X122697428Y-76509571D01*
X122649809Y-76557190D01*
X122602190Y-76652428D01*
X122602190Y-76842904D01*
X122649809Y-76938142D01*
X122697428Y-76985761D01*
X122792666Y-77033380D01*
X122983142Y-77033380D01*
X123078380Y-76985761D01*
X123126000Y-76938142D01*
X123173619Y-76842904D01*
X123173619Y-76652428D01*
X123126000Y-76557190D01*
X123078380Y-76509571D01*
X122983142Y-76461952D01*
D11*
X112506904Y-72564761D02*
X112506904Y-74183809D01*
X112602142Y-74374285D01*
X112697380Y-74469523D01*
X112887857Y-74564761D01*
X113268809Y-74564761D01*
X113459285Y-74469523D01*
X113554523Y-74374285D01*
X113649761Y-74183809D01*
X113649761Y-72564761D01*
X114602142Y-74564761D02*
X114602142Y-72564761D01*
X115364047Y-72564761D01*
X115554523Y-72660000D01*
X115649761Y-72755238D01*
X115745000Y-72945714D01*
X115745000Y-73231428D01*
X115649761Y-73421904D01*
X115554523Y-73517142D01*
X115364047Y-73612380D01*
X114602142Y-73612380D01*
X116506904Y-73993333D02*
X117459285Y-73993333D01*
X116316428Y-74564761D02*
X116983095Y-72564761D01*
X117649761Y-74564761D01*
X119840238Y-74564761D02*
X119840238Y-72564761D01*
X120602142Y-72564761D01*
X120792619Y-72660000D01*
X120887857Y-72755238D01*
X120983095Y-72945714D01*
X120983095Y-73231428D01*
X120887857Y-73421904D01*
X120792619Y-73517142D01*
X120602142Y-73612380D01*
X119840238Y-73612380D01*
X122983095Y-74564761D02*
X122316428Y-73612380D01*
X121840238Y-74564761D02*
X121840238Y-72564761D01*
X122602142Y-72564761D01*
X122792619Y-72660000D01*
X122887857Y-72755238D01*
X122983095Y-72945714D01*
X122983095Y-73231428D01*
X122887857Y-73421904D01*
X122792619Y-73517142D01*
X122602142Y-73612380D01*
X121840238Y-73612380D01*
X124221190Y-72564761D02*
X124602142Y-72564761D01*
X124792619Y-72660000D01*
X124983095Y-72850476D01*
X125078333Y-73231428D01*
X125078333Y-73898095D01*
X124983095Y-74279047D01*
X124792619Y-74469523D01*
X124602142Y-74564761D01*
X124221190Y-74564761D01*
X124030714Y-74469523D01*
X123840238Y-74279047D01*
X123745000Y-73898095D01*
X123745000Y-73231428D01*
X123840238Y-72850476D01*
X124030714Y-72660000D01*
X124221190Y-72564761D01*
D12*
G04 #@! TO.C,J1*
X128210000Y-69910000D02*
X128210000Y-68580000D01*
X129540000Y-69910000D02*
X128210000Y-69910000D01*
X128210000Y-67310000D02*
X128210000Y-64710000D01*
X130810000Y-67310000D02*
X128210000Y-67310000D01*
X130810000Y-69910000D02*
X130810000Y-67310000D01*
X128210000Y-64710000D02*
X158810000Y-64710000D01*
X130810000Y-69910000D02*
X158810000Y-69910000D01*
X158810000Y-69910000D02*
X158810000Y-64710000D01*
G04 #@! TO.C,J2*
X167580000Y-75625000D02*
X172780000Y-75625000D01*
X167580000Y-67945000D02*
X167580000Y-75625000D01*
X172780000Y-65345000D02*
X172780000Y-75625000D01*
X167580000Y-67945000D02*
X170180000Y-67945000D01*
X170180000Y-67945000D02*
X170180000Y-65345000D01*
X170180000Y-65345000D02*
X172780000Y-65345000D01*
X167580000Y-66675000D02*
X167580000Y-65345000D01*
X167580000Y-65345000D02*
X168910000Y-65345000D01*
G04 #@! TO.C,J3*
X167580000Y-96580000D02*
X172780000Y-96580000D01*
X167580000Y-88900000D02*
X167580000Y-96580000D01*
X172780000Y-86300000D02*
X172780000Y-96580000D01*
X167580000Y-88900000D02*
X170180000Y-88900000D01*
X170180000Y-88900000D02*
X170180000Y-86300000D01*
X170180000Y-86300000D02*
X172780000Y-86300000D01*
X167580000Y-87630000D02*
X167580000Y-86300000D01*
X167580000Y-86300000D02*
X168910000Y-86300000D01*
G04 #@! TO.C,J4*
X167580000Y-104715000D02*
X168910000Y-104715000D01*
X167580000Y-106045000D02*
X167580000Y-104715000D01*
X170180000Y-104715000D02*
X172780000Y-104715000D01*
X170180000Y-107315000D02*
X170180000Y-104715000D01*
X167580000Y-107315000D02*
X170180000Y-107315000D01*
X172780000Y-104715000D02*
X172780000Y-114995000D01*
X167580000Y-107315000D02*
X167580000Y-114995000D01*
X167580000Y-114995000D02*
X172780000Y-114995000D01*
G04 #@! TO.C,J6*
X122996000Y-80832000D02*
X122996000Y-78172000D01*
X117856000Y-80832000D02*
X122996000Y-80832000D01*
X117856000Y-78172000D02*
X122996000Y-78172000D01*
X117856000Y-80832000D02*
X117856000Y-78172000D01*
X116586000Y-80832000D02*
X115256000Y-80832000D01*
X115256000Y-80832000D02*
X115256000Y-79502000D01*
G04 #@! TO.C,J11*
X116526000Y-97215000D02*
X121726000Y-97215000D01*
X116526000Y-92075000D02*
X116526000Y-97215000D01*
X121726000Y-89475000D02*
X121726000Y-97215000D01*
X116526000Y-92075000D02*
X119126000Y-92075000D01*
X119126000Y-92075000D02*
X119126000Y-89475000D01*
X119126000Y-89475000D02*
X121726000Y-89475000D01*
X116526000Y-90805000D02*
X116526000Y-89475000D01*
X116526000Y-89475000D02*
X117856000Y-89475000D01*
G04 #@! TO.C,U1*
X134350000Y-74235000D02*
G75*
G02X132350000Y-74235000I-1000000J0D01*
G01*
X132350000Y-74235000D02*
X130700000Y-74235000D01*
X130700000Y-74235000D02*
X130700000Y-84515000D01*
X130700000Y-84515000D02*
X136000000Y-84515000D01*
X136000000Y-84515000D02*
X136000000Y-74235000D01*
X136000000Y-74235000D02*
X134350000Y-74235000D01*
X128210000Y-74175000D02*
X128210000Y-84575000D01*
X128210000Y-84575000D02*
X138490000Y-84575000D01*
X138490000Y-84575000D02*
X138490000Y-74175000D01*
X138490000Y-74175000D02*
X128210000Y-74175000D01*
D13*
G04 #@! TO.C,U2*
X130145000Y-96095000D02*
X130800000Y-96095000D01*
X130145000Y-90595000D02*
X130895000Y-90595000D01*
X136555000Y-90595000D02*
X135805000Y-90595000D01*
X136555000Y-96095000D02*
X135805000Y-96095000D01*
X130145000Y-96095000D02*
X130145000Y-90595000D01*
X136555000Y-96095000D02*
X136555000Y-90595000D01*
X130800000Y-96095000D02*
X130800000Y-97845000D01*
D12*
G04 #@! TO.C,U4*
X151825000Y-74175000D02*
X141545000Y-74175000D01*
X151825000Y-84575000D02*
X151825000Y-74175000D01*
X141545000Y-84575000D02*
X151825000Y-84575000D01*
X141545000Y-74175000D02*
X141545000Y-84575000D01*
X149335000Y-74235000D02*
X147685000Y-74235000D01*
X149335000Y-84515000D02*
X149335000Y-74235000D01*
X144035000Y-84515000D02*
X149335000Y-84515000D01*
X144035000Y-74235000D02*
X144035000Y-84515000D01*
X145685000Y-74235000D02*
X144035000Y-74235000D01*
X147685000Y-74235000D02*
G75*
G02X145685000Y-74235000I-1000000J0D01*
G01*
D13*
G04 #@! TO.C,U5*
X144643000Y-96095000D02*
X144643000Y-97845000D01*
X150398000Y-96095000D02*
X150398000Y-90595000D01*
X143988000Y-96095000D02*
X143988000Y-90595000D01*
X150398000Y-96095000D02*
X149648000Y-96095000D01*
X150398000Y-90595000D02*
X149648000Y-90595000D01*
X143988000Y-90595000D02*
X144738000Y-90595000D01*
X143988000Y-96095000D02*
X144643000Y-96095000D01*
D12*
G04 #@! TO.C,U6*
X145820000Y-103275000D02*
X145820000Y-107275000D01*
X148820000Y-103275000D02*
X148820000Y-106275000D01*
G04 #@! TO.C,U7*
X161020000Y-74235000D02*
G75*
G02X159020000Y-74235000I-1000000J0D01*
G01*
X159020000Y-74235000D02*
X157370000Y-74235000D01*
X157370000Y-74235000D02*
X157370000Y-84515000D01*
X157370000Y-84515000D02*
X162670000Y-84515000D01*
X162670000Y-84515000D02*
X162670000Y-74235000D01*
X162670000Y-74235000D02*
X161020000Y-74235000D01*
X154880000Y-74175000D02*
X154880000Y-84575000D01*
X154880000Y-84575000D02*
X165160000Y-84575000D01*
X165160000Y-84575000D02*
X165160000Y-74175000D01*
X165160000Y-74175000D02*
X154880000Y-74175000D01*
D13*
G04 #@! TO.C,U8*
X156688000Y-96095000D02*
X157343000Y-96095000D01*
X156688000Y-90595000D02*
X157438000Y-90595000D01*
X163098000Y-90595000D02*
X162348000Y-90595000D01*
X163098000Y-96095000D02*
X162348000Y-96095000D01*
X156688000Y-96095000D02*
X156688000Y-90595000D01*
X163098000Y-96095000D02*
X163098000Y-90595000D01*
X157343000Y-96095000D02*
X157343000Y-97845000D01*
D12*
G04 #@! TO.C,U9*
X161520000Y-103275000D02*
X161520000Y-106275000D01*
X158520000Y-103275000D02*
X158520000Y-107275000D01*
G04 #@! TO.C,U3*
X134850000Y-103275000D02*
X134850000Y-106275000D01*
X131850000Y-103275000D02*
X131850000Y-107275000D01*
G04 #@! TO.C,C1*
X118126000Y-86237000D02*
X120126000Y-86237000D01*
X120126000Y-84197000D02*
X118126000Y-84197000D01*
G04 #@! TO.C,D1*
X122326001Y-104201000D02*
X117626001Y-104201000D01*
X122326001Y-102301000D02*
X117626001Y-102301000D01*
X122326001Y-104201000D02*
X122326001Y-102301000D01*
G04 #@! TO.C,R1*
X120126000Y-101146000D02*
X118126000Y-101146000D01*
X118126000Y-99006000D02*
X120126000Y-99006000D01*
G04 #@! TO.C,*
D13*
G04 #@! TO.C,J2*
X168195904Y-76795380D02*
X168814952Y-76795380D01*
X168481619Y-77176333D01*
X168624476Y-77176333D01*
X168719714Y-77223952D01*
X168767333Y-77271571D01*
X168814952Y-77366809D01*
X168814952Y-77604904D01*
X168767333Y-77700142D01*
X168719714Y-77747761D01*
X168624476Y-77795380D01*
X168338761Y-77795380D01*
X168243523Y-77747761D01*
X168195904Y-77700142D01*
X169719714Y-76795380D02*
X169243523Y-76795380D01*
X169195904Y-77271571D01*
X169243523Y-77223952D01*
X169338761Y-77176333D01*
X169576857Y-77176333D01*
X169672095Y-77223952D01*
X169719714Y-77271571D01*
X169767333Y-77366809D01*
X169767333Y-77604904D01*
X169719714Y-77700142D01*
X169672095Y-77747761D01*
X169576857Y-77795380D01*
X169338761Y-77795380D01*
X169243523Y-77747761D01*
X169195904Y-77700142D01*
X170386380Y-76795380D02*
X170481619Y-76795380D01*
X170576857Y-76843000D01*
X170624476Y-76890619D01*
X170672095Y-76985857D01*
X170719714Y-77176333D01*
X170719714Y-77414428D01*
X170672095Y-77604904D01*
X170624476Y-77700142D01*
X170576857Y-77747761D01*
X170481619Y-77795380D01*
X170386380Y-77795380D01*
X170291142Y-77747761D01*
X170243523Y-77700142D01*
X170195904Y-77604904D01*
X170148285Y-77414428D01*
X170148285Y-77176333D01*
X170195904Y-76985857D01*
X170243523Y-76890619D01*
X170291142Y-76843000D01*
X170386380Y-76795380D01*
X171291142Y-77223952D02*
X171195904Y-77176333D01*
X171148285Y-77128714D01*
X171100666Y-77033476D01*
X171100666Y-76985857D01*
X171148285Y-76890619D01*
X171195904Y-76843000D01*
X171291142Y-76795380D01*
X171481619Y-76795380D01*
X171576857Y-76843000D01*
X171624476Y-76890619D01*
X171672095Y-76985857D01*
X171672095Y-77033476D01*
X171624476Y-77128714D01*
X171576857Y-77176333D01*
X171481619Y-77223952D01*
X171291142Y-77223952D01*
X171195904Y-77271571D01*
X171148285Y-77319190D01*
X171100666Y-77414428D01*
X171100666Y-77604904D01*
X171148285Y-77700142D01*
X171195904Y-77747761D01*
X171291142Y-77795380D01*
X171481619Y-77795380D01*
X171576857Y-77747761D01*
X171624476Y-77700142D01*
X171672095Y-77604904D01*
X171672095Y-77414428D01*
X171624476Y-77319190D01*
X171576857Y-77271571D01*
X171481619Y-77223952D01*
X172291142Y-76795380D02*
X172386380Y-76795380D01*
X172481619Y-76843000D01*
X172529238Y-76890619D01*
X172576857Y-76985857D01*
X172624476Y-77176333D01*
X172624476Y-77414428D01*
X172576857Y-77604904D01*
X172529238Y-77700142D01*
X172481619Y-77747761D01*
X172386380Y-77795380D01*
X172291142Y-77795380D01*
X172195904Y-77747761D01*
X172148285Y-77700142D01*
X172100666Y-77604904D01*
X172053047Y-77414428D01*
X172053047Y-77176333D01*
X172100666Y-76985857D01*
X172148285Y-76890619D01*
X172195904Y-76843000D01*
X172291142Y-76795380D01*
G04 #@! TO.C,J3*
X168402238Y-98623380D02*
X168592714Y-98623380D01*
X168687952Y-98575761D01*
X168735571Y-98528142D01*
X168830809Y-98385285D01*
X168878428Y-98194809D01*
X168878428Y-97813857D01*
X168830809Y-97718619D01*
X168783190Y-97671000D01*
X168687952Y-97623380D01*
X168497476Y-97623380D01*
X168402238Y-97671000D01*
X168354619Y-97718619D01*
X168307000Y-97813857D01*
X168307000Y-98051952D01*
X168354619Y-98147190D01*
X168402238Y-98194809D01*
X168497476Y-98242428D01*
X168687952Y-98242428D01*
X168783190Y-98194809D01*
X168830809Y-98147190D01*
X168878428Y-98051952D01*
X169211761Y-97623380D02*
X169830809Y-97623380D01*
X169497476Y-98004333D01*
X169640333Y-98004333D01*
X169735571Y-98051952D01*
X169783190Y-98099571D01*
X169830809Y-98194809D01*
X169830809Y-98432904D01*
X169783190Y-98528142D01*
X169735571Y-98575761D01*
X169640333Y-98623380D01*
X169354619Y-98623380D01*
X169259380Y-98575761D01*
X169211761Y-98528142D01*
X170687952Y-98575761D02*
X170592714Y-98623380D01*
X170402238Y-98623380D01*
X170307000Y-98575761D01*
X170259380Y-98528142D01*
X170211761Y-98432904D01*
X170211761Y-98147190D01*
X170259380Y-98051952D01*
X170307000Y-98004333D01*
X170402238Y-97956714D01*
X170592714Y-97956714D01*
X170687952Y-98004333D01*
X171021285Y-98623380D02*
X171545095Y-97956714D01*
X171021285Y-97956714D02*
X171545095Y-98623380D01*
X171830809Y-98623380D02*
X172354619Y-97956714D01*
X171830809Y-97956714D02*
X172354619Y-98623380D01*
G04 #@! TO.C,J4*
X168307000Y-116133619D02*
X168354619Y-116086000D01*
X168449857Y-116038380D01*
X168687952Y-116038380D01*
X168783190Y-116086000D01*
X168830809Y-116133619D01*
X168878428Y-116228857D01*
X168878428Y-116324095D01*
X168830809Y-116466952D01*
X168259380Y-117038380D01*
X168878428Y-117038380D01*
X169735571Y-116371714D02*
X169735571Y-117038380D01*
X169497476Y-115990761D02*
X169259380Y-116705047D01*
X169878428Y-116705047D01*
X170687952Y-116990761D02*
X170592714Y-117038380D01*
X170402238Y-117038380D01*
X170307000Y-116990761D01*
X170259380Y-116943142D01*
X170211761Y-116847904D01*
X170211761Y-116562190D01*
X170259380Y-116466952D01*
X170307000Y-116419333D01*
X170402238Y-116371714D01*
X170592714Y-116371714D01*
X170687952Y-116419333D01*
X171021285Y-117038380D02*
X171545095Y-116371714D01*
X171021285Y-116371714D02*
X171545095Y-117038380D01*
X171830809Y-117038380D02*
X172354619Y-116371714D01*
X171830809Y-116371714D02*
X172354619Y-117038380D01*
G04 #@! TO.C,U1*
X131373809Y-86431380D02*
X131564285Y-86431380D01*
X131659523Y-86383761D01*
X131707142Y-86336142D01*
X131802380Y-86193285D01*
X131850000Y-86002809D01*
X131850000Y-85621857D01*
X131802380Y-85526619D01*
X131754761Y-85479000D01*
X131659523Y-85431380D01*
X131469047Y-85431380D01*
X131373809Y-85479000D01*
X131326190Y-85526619D01*
X131278571Y-85621857D01*
X131278571Y-85859952D01*
X131326190Y-85955190D01*
X131373809Y-86002809D01*
X131469047Y-86050428D01*
X131659523Y-86050428D01*
X131754761Y-86002809D01*
X131802380Y-85955190D01*
X131850000Y-85859952D01*
X132183333Y-85431380D02*
X132802380Y-85431380D01*
X132469047Y-85812333D01*
X132611904Y-85812333D01*
X132707142Y-85859952D01*
X132754761Y-85907571D01*
X132802380Y-86002809D01*
X132802380Y-86240904D01*
X132754761Y-86336142D01*
X132707142Y-86383761D01*
X132611904Y-86431380D01*
X132326190Y-86431380D01*
X132230952Y-86383761D01*
X132183333Y-86336142D01*
X133802380Y-86336142D02*
X133754761Y-86383761D01*
X133611904Y-86431380D01*
X133516666Y-86431380D01*
X133373809Y-86383761D01*
X133278571Y-86288523D01*
X133230952Y-86193285D01*
X133183333Y-86002809D01*
X133183333Y-85859952D01*
X133230952Y-85669476D01*
X133278571Y-85574238D01*
X133373809Y-85479000D01*
X133516666Y-85431380D01*
X133611904Y-85431380D01*
X133754761Y-85479000D01*
X133802380Y-85526619D01*
X134135714Y-86431380D02*
X134659523Y-85764714D01*
X134135714Y-85764714D02*
X134659523Y-86431380D01*
X134945238Y-86431380D02*
X135469047Y-85764714D01*
X134945238Y-85764714D02*
X135469047Y-86431380D01*
G04 #@! TO.C,U4*
X144613571Y-85399619D02*
X144661190Y-85352000D01*
X144756428Y-85304380D01*
X144994523Y-85304380D01*
X145089761Y-85352000D01*
X145137380Y-85399619D01*
X145185000Y-85494857D01*
X145185000Y-85590095D01*
X145137380Y-85732952D01*
X144565952Y-86304380D01*
X145185000Y-86304380D01*
X146042142Y-85637714D02*
X146042142Y-86304380D01*
X145804047Y-85256761D02*
X145565952Y-85971047D01*
X146185000Y-85971047D01*
X147137380Y-86209142D02*
X147089761Y-86256761D01*
X146946904Y-86304380D01*
X146851666Y-86304380D01*
X146708809Y-86256761D01*
X146613571Y-86161523D01*
X146565952Y-86066285D01*
X146518333Y-85875809D01*
X146518333Y-85732952D01*
X146565952Y-85542476D01*
X146613571Y-85447238D01*
X146708809Y-85352000D01*
X146851666Y-85304380D01*
X146946904Y-85304380D01*
X147089761Y-85352000D01*
X147137380Y-85399619D01*
X147470714Y-86304380D02*
X147994523Y-85637714D01*
X147470714Y-85637714D02*
X147994523Y-86304380D01*
X148280238Y-86304380D02*
X148804047Y-85637714D01*
X148280238Y-85637714D02*
X148804047Y-86304380D01*
G04 #@! TO.C,U7*
X157305714Y-86304380D02*
X157305714Y-85304380D01*
X157639047Y-86018666D01*
X157972380Y-85304380D01*
X157972380Y-86304380D01*
X158353333Y-85304380D02*
X158972380Y-85304380D01*
X158639047Y-85685333D01*
X158781904Y-85685333D01*
X158877142Y-85732952D01*
X158924761Y-85780571D01*
X158972380Y-85875809D01*
X158972380Y-86113904D01*
X158924761Y-86209142D01*
X158877142Y-86256761D01*
X158781904Y-86304380D01*
X158496190Y-86304380D01*
X158400952Y-86256761D01*
X158353333Y-86209142D01*
X159877142Y-85304380D02*
X159400952Y-85304380D01*
X159353333Y-85780571D01*
X159400952Y-85732952D01*
X159496190Y-85685333D01*
X159734285Y-85685333D01*
X159829523Y-85732952D01*
X159877142Y-85780571D01*
X159924761Y-85875809D01*
X159924761Y-86113904D01*
X159877142Y-86209142D01*
X159829523Y-86256761D01*
X159734285Y-86304380D01*
X159496190Y-86304380D01*
X159400952Y-86256761D01*
X159353333Y-86209142D01*
X160543809Y-85304380D02*
X160639047Y-85304380D01*
X160734285Y-85352000D01*
X160781904Y-85399619D01*
X160829523Y-85494857D01*
X160877142Y-85685333D01*
X160877142Y-85923428D01*
X160829523Y-86113904D01*
X160781904Y-86209142D01*
X160734285Y-86256761D01*
X160639047Y-86304380D01*
X160543809Y-86304380D01*
X160448571Y-86256761D01*
X160400952Y-86209142D01*
X160353333Y-86113904D01*
X160305714Y-85923428D01*
X160305714Y-85685333D01*
X160353333Y-85494857D01*
X160400952Y-85399619D01*
X160448571Y-85352000D01*
X160543809Y-85304380D01*
X161448571Y-85732952D02*
X161353333Y-85685333D01*
X161305714Y-85637714D01*
X161258095Y-85542476D01*
X161258095Y-85494857D01*
X161305714Y-85399619D01*
X161353333Y-85352000D01*
X161448571Y-85304380D01*
X161639047Y-85304380D01*
X161734285Y-85352000D01*
X161781904Y-85399619D01*
X161829523Y-85494857D01*
X161829523Y-85542476D01*
X161781904Y-85637714D01*
X161734285Y-85685333D01*
X161639047Y-85732952D01*
X161448571Y-85732952D01*
X161353333Y-85780571D01*
X161305714Y-85828190D01*
X161258095Y-85923428D01*
X161258095Y-86113904D01*
X161305714Y-86209142D01*
X161353333Y-86256761D01*
X161448571Y-86304380D01*
X161639047Y-86304380D01*
X161734285Y-86256761D01*
X161781904Y-86209142D01*
X161829523Y-86113904D01*
X161829523Y-85923428D01*
X161781904Y-85828190D01*
X161734285Y-85780571D01*
X161639047Y-85732952D01*
X162448571Y-85304380D02*
X162543809Y-85304380D01*
X162639047Y-85352000D01*
X162686666Y-85399619D01*
X162734285Y-85494857D01*
X162781904Y-85685333D01*
X162781904Y-85923428D01*
X162734285Y-86113904D01*
X162686666Y-86209142D01*
X162639047Y-86256761D01*
X162543809Y-86304380D01*
X162448571Y-86304380D01*
X162353333Y-86256761D01*
X162305714Y-86209142D01*
X162258095Y-86113904D01*
X162210476Y-85923428D01*
X162210476Y-85685333D01*
X162258095Y-85494857D01*
X162305714Y-85399619D01*
X162353333Y-85352000D01*
X162448571Y-85304380D01*
G04 #@! TO.C,C1*
X118959333Y-83824142D02*
X118911714Y-83871761D01*
X118768857Y-83919380D01*
X118673619Y-83919380D01*
X118530761Y-83871761D01*
X118435523Y-83776523D01*
X118387904Y-83681285D01*
X118340285Y-83490809D01*
X118340285Y-83347952D01*
X118387904Y-83157476D01*
X118435523Y-83062238D01*
X118530761Y-82967000D01*
X118673619Y-82919380D01*
X118768857Y-82919380D01*
X118911714Y-82967000D01*
X118959333Y-83014619D01*
X119911714Y-83919380D02*
X119340285Y-83919380D01*
X119626000Y-83919380D02*
X119626000Y-82919380D01*
X119530761Y-83062238D01*
X119435523Y-83157476D01*
X119340285Y-83205095D01*
G04 #@! TO.C,D1*
X123032906Y-103703380D02*
X123032906Y-102703380D01*
X123271002Y-102703380D01*
X123413859Y-102751000D01*
X123509097Y-102846238D01*
X123556716Y-102941476D01*
X123604335Y-103131952D01*
X123604335Y-103274809D01*
X123556716Y-103465285D01*
X123509097Y-103560523D01*
X123413859Y-103655761D01*
X123271002Y-103703380D01*
X123032906Y-103703380D01*
X124556716Y-103703380D02*
X123985287Y-103703380D01*
X124271002Y-103703380D02*
X124271002Y-102703380D01*
X124175763Y-102846238D01*
X124080525Y-102941476D01*
X123985287Y-102989095D01*
G04 #@! TO.C,R1*
X123404333Y-100528380D02*
X123071000Y-100052190D01*
X122832904Y-100528380D02*
X122832904Y-99528380D01*
X123213857Y-99528380D01*
X123309095Y-99576000D01*
X123356714Y-99623619D01*
X123404333Y-99718857D01*
X123404333Y-99861714D01*
X123356714Y-99956952D01*
X123309095Y-100004571D01*
X123213857Y-100052190D01*
X122832904Y-100052190D01*
X124356714Y-100528380D02*
X123785285Y-100528380D01*
X124071000Y-100528380D02*
X124071000Y-99528380D01*
X123975761Y-99671238D01*
X123880523Y-99766476D01*
X123785285Y-99814095D01*
G04 #@! TD*
M02*
