G04 #@! TF.GenerationSoftware,KiCad,Pcbnew,5.0.0-fee4fd1~65~ubuntu16.04.1*
G04 #@! TF.CreationDate,2018-07-25T18:48:16-06:00*
G04 #@! TF.ProjectId,UPA_Shield_001,5550415F536869656C645F3030312E6B,rev?*
G04 #@! TF.SameCoordinates,Original*
G04 #@! TF.FileFunction,Soldermask,Bot*
G04 #@! TF.FilePolarity,Negative*
%FSLAX46Y46*%
G04 Gerber Fmt 4.6, Leading zero omitted, Abs format (unit mm)*
G04 Created by KiCad (PCBNEW 5.0.0-fee4fd1~65~ubuntu16.04.1) date Wed Jul 25 18:48:16 2018*
%MOMM*%
%LPD*%
G01*
G04 APERTURE LIST*
%ADD10O,2.100000X2.100000*%
%ADD11R,2.100000X2.100000*%
%ADD12R,2.000000X2.000000*%
%ADD13O,2.000000X2.000000*%
G04 APERTURE END LIST*
D10*
G04 #@! TO.C,J1*
X157480000Y-66040000D03*
X157480000Y-68580000D03*
X154940000Y-66040000D03*
X154940000Y-68580000D03*
X152400000Y-66040000D03*
X152400000Y-68580000D03*
X149860000Y-66040000D03*
X149860000Y-68580000D03*
X147320000Y-66040000D03*
X147320000Y-68580000D03*
X144780000Y-66040000D03*
X144780000Y-68580000D03*
X142240000Y-66040000D03*
X142240000Y-68580000D03*
X139700000Y-66040000D03*
X139700000Y-68580000D03*
X137160000Y-66040000D03*
X137160000Y-68580000D03*
X134620000Y-66040000D03*
X134620000Y-68580000D03*
X132080000Y-66040000D03*
X132080000Y-68580000D03*
X129540000Y-66040000D03*
D11*
X129540000Y-68580000D03*
G04 #@! TD*
G04 #@! TO.C,J2*
X168910000Y-66675000D03*
D10*
X171450000Y-66675000D03*
X168910000Y-69215000D03*
X171450000Y-69215000D03*
X168910000Y-71755000D03*
X171450000Y-71755000D03*
X168910000Y-74295000D03*
X171450000Y-74295000D03*
G04 #@! TD*
D11*
G04 #@! TO.C,J3*
X168910000Y-87630000D03*
D10*
X171450000Y-87630000D03*
X168910000Y-90170000D03*
X171450000Y-90170000D03*
X168910000Y-92710000D03*
X171450000Y-92710000D03*
X168910000Y-95250000D03*
X171450000Y-95250000D03*
G04 #@! TD*
G04 #@! TO.C,J4*
X171450000Y-113665000D03*
X168910000Y-113665000D03*
X171450000Y-111125000D03*
X168910000Y-111125000D03*
X171450000Y-108585000D03*
X168910000Y-108585000D03*
X171450000Y-106045000D03*
D11*
X168910000Y-106045000D03*
G04 #@! TD*
G04 #@! TO.C,J6*
X116586000Y-79502000D03*
D10*
X119126000Y-79502000D03*
X121666000Y-79502000D03*
G04 #@! TD*
D11*
G04 #@! TO.C,J11*
X117856000Y-90805000D03*
D10*
X120396000Y-90805000D03*
X117856000Y-93345000D03*
X120396000Y-93345000D03*
X117856000Y-95885000D03*
X120396000Y-95885000D03*
G04 #@! TD*
D12*
G04 #@! TO.C,U1*
X129540000Y-75565000D03*
D13*
X137160000Y-83185000D03*
X129540000Y-78105000D03*
X137160000Y-80645000D03*
X129540000Y-80645000D03*
X137160000Y-78105000D03*
X129540000Y-83185000D03*
X137160000Y-75565000D03*
G04 #@! TD*
G04 #@! TO.C,U4*
X150495000Y-75565000D03*
X142875000Y-83185000D03*
X150495000Y-78105000D03*
X142875000Y-80645000D03*
X150495000Y-80645000D03*
X142875000Y-78105000D03*
X150495000Y-83185000D03*
D12*
X142875000Y-75565000D03*
G04 #@! TD*
G04 #@! TO.C,U7*
X156210000Y-75565000D03*
D13*
X163830000Y-83185000D03*
X156210000Y-78105000D03*
X163830000Y-80645000D03*
X156210000Y-80645000D03*
X163830000Y-78105000D03*
X156210000Y-83185000D03*
X163830000Y-75565000D03*
G04 #@! TD*
M02*
