M48
INCH,TZ
T1C0.0130
T2C0.0315
T3C0.0394
%
G90
G05
T1
X46100Y-39400
X47600Y-29550
X48500Y-37250
X49100Y-34200
X49350Y-32250
X51250Y-34150
X51287Y-43010
X51650Y-42050
X51800Y-42650
X51900Y-30750
X54950Y-30900
X55150Y-28100
X56800Y-43100
X56900Y-32600
X57200Y-31000
X57300Y-42700
X57900Y-28300
X57950Y-29950
X59450Y-43100
X59900Y-28450
X60150Y-27802
X60150Y-31300
X60150Y-33100
X60250Y-28750
X60835Y-33993
X61500Y-33950
X61772Y-43082
X61993Y-34300
X62250Y-42700
X62584Y-32250
X62650Y-29900
X62800Y-31800
X63241Y-43883
X63724Y-30276
X63750Y-32750
X63908Y-43833
X64300Y-25950
X64636Y-43181
X64650Y-43850
X65050Y-39500
X65150Y-36100
X65150Y-44250
X65314Y-30102
X65940Y-30094
X66800Y-39500
X68506Y-33275
T2
X51000Y-29750
X51000Y-30750
X51000Y-31750
X51000Y-32750
X54000Y-29750
X54000Y-30750
X54000Y-31750
X54000Y-32750
X61500Y-29750
X61500Y-30750
X61500Y-31750
X61500Y-32750
X64500Y-29750
X64500Y-30750
X64500Y-31750
X64500Y-32750
X56250Y-29750
X56250Y-30750
X56250Y-31750
X56250Y-32750
X59250Y-29750
X59250Y-30750
X59250Y-31750
X59250Y-32750
T3
X66500Y-41750
X66500Y-42750
X66500Y-43750
X66500Y-44750
X67500Y-41750
X67500Y-42750
X67500Y-43750
X67500Y-44750
X45900Y-31300
X46900Y-31300
X47900Y-31300
X51000Y-26000
X51000Y-27000
X52000Y-26000
X52000Y-27000
X53000Y-26000
X53000Y-27000
X54000Y-26000
X54000Y-27000
X55000Y-26000
X55000Y-27000
X56000Y-26000
X56000Y-27000
X57000Y-26000
X57000Y-27000
X58000Y-26000
X58000Y-27000
X59000Y-26000
X59000Y-27000
X60000Y-26000
X60000Y-27000
X61000Y-26000
X61000Y-27000
X62000Y-26000
X62000Y-27000
X66500Y-34500
X66500Y-35500
X66500Y-36500
X66500Y-37500
X67500Y-34500
X67500Y-35500
X67500Y-36500
X67500Y-37500
X66500Y-26250
X66500Y-27250
X66500Y-28250
X66500Y-29250
X67500Y-26250
X67500Y-27250
X67500Y-28250
X67500Y-29250
X46400Y-35750
X46400Y-36750
X46400Y-37750
X47400Y-35750
X47400Y-36750
X47400Y-37750
T0
M30
