G04 #@! TF.GenerationSoftware,KiCad,Pcbnew,5.0.0-fee4fd1~65~ubuntu16.04.1*
G04 #@! TF.CreationDate,2018-07-25T18:48:16-06:00*
G04 #@! TF.ProjectId,UPA_Shield_001,5550415F536869656C645F3030312E6B,rev?*
G04 #@! TF.SameCoordinates,Original*
G04 #@! TF.FileFunction,Paste,Top*
G04 #@! TF.FilePolarity,Positive*
%FSLAX46Y46*%
G04 Gerber Fmt 4.6, Leading zero omitted, Abs format (unit mm)*
G04 Created by KiCad (PCBNEW 5.0.0-fee4fd1~65~ubuntu16.04.1) date Wed Jul 25 18:48:16 2018*
%MOMM*%
%LPD*%
G01*
G04 APERTURE LIST*
%ADD10R,0.550000X1.750000*%
%ADD11R,0.300000X1.600000*%
%ADD12R,2.000000X1.600000*%
%ADD13R,2.000000X1.700000*%
G04 APERTURE END LIST*
D10*
G04 #@! TO.C,U2*
X131445000Y-97045000D03*
X132715000Y-97045000D03*
X133985000Y-97045000D03*
X135255000Y-97045000D03*
X135255000Y-89645000D03*
X133985000Y-89645000D03*
X132715000Y-89645000D03*
X131445000Y-89645000D03*
G04 #@! TD*
G04 #@! TO.C,U5*
X145288000Y-89645000D03*
X146558000Y-89645000D03*
X147828000Y-89645000D03*
X149098000Y-89645000D03*
X149098000Y-97045000D03*
X147828000Y-97045000D03*
X146558000Y-97045000D03*
X145288000Y-97045000D03*
G04 #@! TD*
D11*
G04 #@! TO.C,U6*
X146345000Y-103075000D03*
X146995000Y-103075000D03*
X147645000Y-103075000D03*
X148295000Y-103075000D03*
X148295000Y-106475000D03*
X147645000Y-106475000D03*
X146995000Y-106475000D03*
X146345000Y-106475000D03*
G04 #@! TD*
D10*
G04 #@! TO.C,U8*
X157988000Y-97045000D03*
X159258000Y-97045000D03*
X160528000Y-97045000D03*
X161798000Y-97045000D03*
X161798000Y-89645000D03*
X160528000Y-89645000D03*
X159258000Y-89645000D03*
X157988000Y-89645000D03*
G04 #@! TD*
D11*
G04 #@! TO.C,U9*
X159045000Y-106475000D03*
X159695000Y-106475000D03*
X160345000Y-106475000D03*
X160995000Y-106475000D03*
X160995000Y-103075000D03*
X160345000Y-103075000D03*
X159695000Y-103075000D03*
X159045000Y-103075000D03*
G04 #@! TD*
G04 #@! TO.C,U3*
X132375000Y-106475000D03*
X133025000Y-106475000D03*
X133675000Y-106475000D03*
X134325000Y-106475000D03*
X134325000Y-103075000D03*
X133675000Y-103075000D03*
X133025000Y-103075000D03*
X132375000Y-103075000D03*
G04 #@! TD*
D12*
G04 #@! TO.C,C1*
X121126000Y-85217000D03*
X117126000Y-85217000D03*
G04 #@! TD*
D13*
G04 #@! TO.C,D1*
X117226001Y-103251000D03*
X121226001Y-103251000D03*
G04 #@! TD*
G04 #@! TO.C,R1*
X117126000Y-100076000D03*
X121126000Y-100076000D03*
G04 #@! TD*
M02*
