G04 #@! TF.GenerationSoftware,KiCad,Pcbnew,5.1.5-52549c5~84~ubuntu18.04.1*
G04 #@! TF.CreationDate,2019-12-24T12:24:14-07:00*
G04 #@! TF.ProjectId,001,3030312e-6b69-4636-9164-5f7063625858,rev?*
G04 #@! TF.SameCoordinates,Original*
G04 #@! TF.FileFunction,Soldermask,Bot*
G04 #@! TF.FilePolarity,Negative*
%FSLAX46Y46*%
G04 Gerber Fmt 4.6, Leading zero omitted, Abs format (unit mm)*
G04 Created by KiCad (PCBNEW 5.1.5-52549c5~84~ubuntu18.04.1) date 2019-12-24 12:24:14*
%MOMM*%
%LPD*%
G04 APERTURE LIST*
%ADD10C,0.010000*%
%ADD11C,0.100000*%
G04 APERTURE END LIST*
D10*
G36*
X156677367Y-105745332D02*
G01*
X156672498Y-105760184D01*
X156667643Y-105766316D01*
X156626202Y-105788127D01*
X156591466Y-105788208D01*
X156537996Y-105791133D01*
X156478020Y-105811425D01*
X156476234Y-105812335D01*
X156420507Y-105835148D01*
X156374687Y-105844296D01*
X156372976Y-105844250D01*
X156365835Y-105836117D01*
X156393348Y-105816948D01*
X156419550Y-105804093D01*
X156498117Y-105775223D01*
X156583720Y-105753053D01*
X156598985Y-105750286D01*
X156655272Y-105742595D01*
X156677367Y-105745332D01*
G37*
X156677367Y-105745332D02*
X156672498Y-105760184D01*
X156667643Y-105766316D01*
X156626202Y-105788127D01*
X156591466Y-105788208D01*
X156537996Y-105791133D01*
X156478020Y-105811425D01*
X156476234Y-105812335D01*
X156420507Y-105835148D01*
X156374687Y-105844296D01*
X156372976Y-105844250D01*
X156365835Y-105836117D01*
X156393348Y-105816948D01*
X156419550Y-105804093D01*
X156498117Y-105775223D01*
X156583720Y-105753053D01*
X156598985Y-105750286D01*
X156655272Y-105742595D01*
X156677367Y-105745332D01*
G36*
X153110075Y-110132573D02*
G01*
X153212001Y-110162241D01*
X153293598Y-110206277D01*
X153340182Y-110254416D01*
X153378718Y-110349767D01*
X153395063Y-110462889D01*
X153390046Y-110580586D01*
X153364496Y-110689663D01*
X153319240Y-110776924D01*
X153306408Y-110792222D01*
X153271294Y-110843422D01*
X153255237Y-110893101D01*
X153255134Y-110896313D01*
X153243071Y-110940222D01*
X153212493Y-111002879D01*
X153171818Y-111070372D01*
X153129462Y-111128788D01*
X153093844Y-111164213D01*
X153092573Y-111165019D01*
X153071927Y-111193471D01*
X153047655Y-111248990D01*
X153032030Y-111296255D01*
X152998744Y-111410754D01*
X153089897Y-111509259D01*
X153173040Y-111582868D01*
X153273937Y-111648089D01*
X153379570Y-111698205D01*
X153476920Y-111726501D01*
X153518513Y-111730367D01*
X153579402Y-111739142D01*
X153607164Y-111761729D01*
X153629453Y-111781641D01*
X153660013Y-111772312D01*
X153687261Y-111741890D01*
X153699613Y-111698524D01*
X153699634Y-111696679D01*
X153680069Y-111640136D01*
X153622975Y-111572114D01*
X153530750Y-111495198D01*
X153478567Y-111458467D01*
X153388347Y-111392197D01*
X153332033Y-111338825D01*
X153309966Y-111300360D01*
X153322484Y-111278812D01*
X153369929Y-111276190D01*
X153450685Y-111293931D01*
X153506254Y-111312135D01*
X153557322Y-111334989D01*
X153612898Y-111367901D01*
X153681992Y-111416281D01*
X153773615Y-111485538D01*
X153786877Y-111495760D01*
X153855060Y-111572564D01*
X153897126Y-111670326D01*
X153909989Y-111775789D01*
X153890561Y-111875699D01*
X153880531Y-111897804D01*
X153832023Y-111950815D01*
X153751360Y-111995444D01*
X153648281Y-112029390D01*
X153532525Y-112050356D01*
X153413831Y-112056041D01*
X153301939Y-112044146D01*
X153280893Y-112039370D01*
X153110187Y-111981463D01*
X152944991Y-111897757D01*
X152799120Y-111796027D01*
X152722085Y-111724843D01*
X152661974Y-111659670D01*
X152624889Y-111610702D01*
X152603857Y-111564276D01*
X152591902Y-111506732D01*
X152585813Y-111457926D01*
X152578416Y-111378978D01*
X152574958Y-111312147D01*
X152575921Y-111275284D01*
X152590813Y-111221351D01*
X152623774Y-111134909D01*
X152672787Y-111020714D01*
X152735836Y-110883520D01*
X152788583Y-110773598D01*
X152832773Y-110680873D01*
X152856403Y-110622771D01*
X152858432Y-110596352D01*
X152837817Y-110598675D01*
X152793516Y-110626797D01*
X152748313Y-110659916D01*
X152684384Y-110700656D01*
X152632219Y-110710980D01*
X152575194Y-110691876D01*
X152540759Y-110672265D01*
X152488168Y-110630797D01*
X152475825Y-110589940D01*
X152502608Y-110541331D01*
X152520513Y-110521462D01*
X152562140Y-110474790D01*
X152613810Y-110412478D01*
X152640643Y-110378548D01*
X152728648Y-110279172D01*
X152821027Y-110199639D01*
X152910071Y-110145471D01*
X152988072Y-110122190D01*
X152999192Y-110121700D01*
X153110075Y-110132573D01*
G37*
X153110075Y-110132573D02*
X153212001Y-110162241D01*
X153293598Y-110206277D01*
X153340182Y-110254416D01*
X153378718Y-110349767D01*
X153395063Y-110462889D01*
X153390046Y-110580586D01*
X153364496Y-110689663D01*
X153319240Y-110776924D01*
X153306408Y-110792222D01*
X153271294Y-110843422D01*
X153255237Y-110893101D01*
X153255134Y-110896313D01*
X153243071Y-110940222D01*
X153212493Y-111002879D01*
X153171818Y-111070372D01*
X153129462Y-111128788D01*
X153093844Y-111164213D01*
X153092573Y-111165019D01*
X153071927Y-111193471D01*
X153047655Y-111248990D01*
X153032030Y-111296255D01*
X152998744Y-111410754D01*
X153089897Y-111509259D01*
X153173040Y-111582868D01*
X153273937Y-111648089D01*
X153379570Y-111698205D01*
X153476920Y-111726501D01*
X153518513Y-111730367D01*
X153579402Y-111739142D01*
X153607164Y-111761729D01*
X153629453Y-111781641D01*
X153660013Y-111772312D01*
X153687261Y-111741890D01*
X153699613Y-111698524D01*
X153699634Y-111696679D01*
X153680069Y-111640136D01*
X153622975Y-111572114D01*
X153530750Y-111495198D01*
X153478567Y-111458467D01*
X153388347Y-111392197D01*
X153332033Y-111338825D01*
X153309966Y-111300360D01*
X153322484Y-111278812D01*
X153369929Y-111276190D01*
X153450685Y-111293931D01*
X153506254Y-111312135D01*
X153557322Y-111334989D01*
X153612898Y-111367901D01*
X153681992Y-111416281D01*
X153773615Y-111485538D01*
X153786877Y-111495760D01*
X153855060Y-111572564D01*
X153897126Y-111670326D01*
X153909989Y-111775789D01*
X153890561Y-111875699D01*
X153880531Y-111897804D01*
X153832023Y-111950815D01*
X153751360Y-111995444D01*
X153648281Y-112029390D01*
X153532525Y-112050356D01*
X153413831Y-112056041D01*
X153301939Y-112044146D01*
X153280893Y-112039370D01*
X153110187Y-111981463D01*
X152944991Y-111897757D01*
X152799120Y-111796027D01*
X152722085Y-111724843D01*
X152661974Y-111659670D01*
X152624889Y-111610702D01*
X152603857Y-111564276D01*
X152591902Y-111506732D01*
X152585813Y-111457926D01*
X152578416Y-111378978D01*
X152574958Y-111312147D01*
X152575921Y-111275284D01*
X152590813Y-111221351D01*
X152623774Y-111134909D01*
X152672787Y-111020714D01*
X152735836Y-110883520D01*
X152788583Y-110773598D01*
X152832773Y-110680873D01*
X152856403Y-110622771D01*
X152858432Y-110596352D01*
X152837817Y-110598675D01*
X152793516Y-110626797D01*
X152748313Y-110659916D01*
X152684384Y-110700656D01*
X152632219Y-110710980D01*
X152575194Y-110691876D01*
X152540759Y-110672265D01*
X152488168Y-110630797D01*
X152475825Y-110589940D01*
X152502608Y-110541331D01*
X152520513Y-110521462D01*
X152562140Y-110474790D01*
X152613810Y-110412478D01*
X152640643Y-110378548D01*
X152728648Y-110279172D01*
X152821027Y-110199639D01*
X152910071Y-110145471D01*
X152988072Y-110122190D01*
X152999192Y-110121700D01*
X153110075Y-110132573D01*
G36*
X156815086Y-109204303D02*
G01*
X156854138Y-109229849D01*
X156904857Y-109260442D01*
X156947159Y-109274867D01*
X156950405Y-109275034D01*
X157003405Y-109290400D01*
X157071151Y-109330910D01*
X157142545Y-109388179D01*
X157206488Y-109453821D01*
X157233282Y-109488733D01*
X157270730Y-109552658D01*
X157312938Y-109639348D01*
X157355591Y-109737964D01*
X157394373Y-109837667D01*
X157424970Y-109927618D01*
X157443066Y-109996977D01*
X157446134Y-110023367D01*
X157461356Y-110075469D01*
X157487264Y-110110028D01*
X157519925Y-110156445D01*
X157557813Y-110238890D01*
X157598704Y-110351717D01*
X157640374Y-110489280D01*
X157648937Y-110520490D01*
X157677237Y-110605367D01*
X157713754Y-110690034D01*
X157730409Y-110721573D01*
X157759946Y-110781050D01*
X157796312Y-110866539D01*
X157833565Y-110963691D01*
X157850169Y-111010700D01*
X157888037Y-111111504D01*
X157930933Y-111210424D01*
X157971782Y-111291618D01*
X157987264Y-111317617D01*
X158043033Y-111428996D01*
X158070018Y-111532206D01*
X158090476Y-111619506D01*
X158128869Y-111682373D01*
X158143499Y-111697530D01*
X158183553Y-111732661D01*
X158208696Y-111740242D01*
X158232999Y-111723585D01*
X158237089Y-111719554D01*
X158255157Y-111701478D01*
X158265420Y-111684973D01*
X158267677Y-111660915D01*
X158261726Y-111620177D01*
X158247366Y-111553634D01*
X158231929Y-111485601D01*
X158183003Y-111326211D01*
X158118628Y-111198169D01*
X158076843Y-111128856D01*
X158043529Y-111066399D01*
X158028048Y-111030185D01*
X157995630Y-110948757D01*
X157944190Y-110846142D01*
X157880387Y-110734805D01*
X157879810Y-110733903D01*
X158377467Y-110733903D01*
X158391023Y-110775753D01*
X158410199Y-110791756D01*
X158437343Y-110817161D01*
X158472170Y-110868221D01*
X158507074Y-110931117D01*
X158534452Y-110992027D01*
X158546700Y-111037130D01*
X158546800Y-111040032D01*
X158562373Y-111065918D01*
X158602377Y-111107776D01*
X158656743Y-111157046D01*
X158715403Y-111205169D01*
X158768286Y-111243586D01*
X158805323Y-111263737D01*
X158811384Y-111264938D01*
X158837576Y-111276091D01*
X158889647Y-111305442D01*
X158958308Y-111347629D01*
X158991300Y-111368823D01*
X159062298Y-111413730D01*
X159118778Y-111446999D01*
X159152374Y-111463816D01*
X159157883Y-111464664D01*
X159159627Y-111441041D01*
X159153619Y-111392995D01*
X159152177Y-111385010D01*
X159130576Y-111323445D01*
X159097350Y-111275486D01*
X159096720Y-111274909D01*
X159065130Y-111237200D01*
X159054800Y-111210492D01*
X159039670Y-111184713D01*
X158998779Y-111138117D01*
X158938879Y-111076998D01*
X158866720Y-111007652D01*
X158789052Y-110936374D01*
X158712626Y-110869461D01*
X158644192Y-110813208D01*
X158590501Y-110773911D01*
X158579101Y-110766845D01*
X158513263Y-110732821D01*
X158451561Y-110707633D01*
X158435675Y-110702937D01*
X158393837Y-110697342D01*
X158378813Y-110714206D01*
X158377467Y-110733903D01*
X157879810Y-110733903D01*
X157819886Y-110640380D01*
X157770084Y-110560424D01*
X157741684Y-110493594D01*
X157727763Y-110421556D01*
X157724799Y-110388578D01*
X157715765Y-110263679D01*
X157905032Y-110274471D01*
X157995905Y-110282101D01*
X158075057Y-110293147D01*
X158129623Y-110305653D01*
X158141192Y-110310358D01*
X158181521Y-110323565D01*
X158221536Y-110310635D01*
X158245734Y-110294854D01*
X158311726Y-110255593D01*
X158376114Y-110237391D01*
X158454464Y-110237541D01*
X158522958Y-110246631D01*
X158641835Y-110276341D01*
X158766809Y-110325380D01*
X158887104Y-110387838D01*
X158991945Y-110457803D01*
X159070556Y-110529365D01*
X159094126Y-110559938D01*
X159142645Y-110616844D01*
X159205367Y-110670185D01*
X159219550Y-110679723D01*
X159284336Y-110731647D01*
X159353225Y-110804192D01*
X159416744Y-110885346D01*
X159465417Y-110963094D01*
X159488938Y-111021284D01*
X159502155Y-111071754D01*
X159524323Y-111147590D01*
X159551082Y-111233969D01*
X159556318Y-111250325D01*
X159598226Y-111428830D01*
X159602857Y-111593819D01*
X159569824Y-111752546D01*
X159523461Y-111865076D01*
X159463564Y-111965742D01*
X159397934Y-112040111D01*
X159332390Y-112082458D01*
X159294723Y-112090121D01*
X159256525Y-112073951D01*
X159194424Y-112026566D01*
X159110847Y-111949899D01*
X159078668Y-111918202D01*
X159027204Y-111871368D01*
X158953541Y-111810084D01*
X158869984Y-111744430D01*
X158828861Y-111713500D01*
X158655838Y-111585547D01*
X158667757Y-111658992D01*
X158668275Y-111721873D01*
X158646652Y-111792874D01*
X158623138Y-111842527D01*
X158578457Y-111926053D01*
X158542749Y-111981048D01*
X158507665Y-112017609D01*
X158464859Y-112045834D01*
X158447310Y-112055197D01*
X158354280Y-112085812D01*
X158252670Y-112082597D01*
X158169011Y-112059583D01*
X158108744Y-112043632D01*
X158073595Y-112045520D01*
X158069850Y-112049000D01*
X158037256Y-112067440D01*
X157987368Y-112056711D01*
X157927558Y-112022047D01*
X157865200Y-111968683D01*
X157807667Y-111901853D01*
X157765221Y-111832741D01*
X157740578Y-111798517D01*
X157691342Y-111741850D01*
X157623651Y-111669411D01*
X157543644Y-111587870D01*
X157502951Y-111547731D01*
X157268626Y-111319097D01*
X157235024Y-111395260D01*
X157207279Y-111452469D01*
X157182137Y-111495472D01*
X157178548Y-111500353D01*
X157160098Y-111539958D01*
X157145124Y-111598706D01*
X157143787Y-111606794D01*
X157124967Y-111667207D01*
X157088940Y-111741457D01*
X157057432Y-111792563D01*
X157015640Y-111856584D01*
X156983627Y-111911588D01*
X156970658Y-111939592D01*
X156944785Y-111971054D01*
X156894000Y-112004913D01*
X156868868Y-112017087D01*
X156805475Y-112047771D01*
X156753981Y-112078203D01*
X156742284Y-112086921D01*
X156711355Y-112104979D01*
X156672079Y-112105689D01*
X156615284Y-112091701D01*
X156538920Y-112063596D01*
X156457272Y-112025344D01*
X156434371Y-112012774D01*
X156343358Y-111960180D01*
X156259685Y-112035773D01*
X156208399Y-112078383D01*
X156167490Y-112105798D01*
X156152488Y-112111367D01*
X156126079Y-112098329D01*
X156077988Y-112063898D01*
X156017910Y-112015099D01*
X156008700Y-112007179D01*
X155956313Y-111964302D01*
X155904453Y-111929116D01*
X155844322Y-111897330D01*
X155767118Y-111864654D01*
X155664044Y-111826795D01*
X155577194Y-111796758D01*
X155450560Y-111753438D01*
X155358470Y-111721204D01*
X155295423Y-111697414D01*
X155255918Y-111679425D01*
X155234454Y-111664591D01*
X155225531Y-111650272D01*
X155223648Y-111633822D01*
X155223634Y-111626861D01*
X155206559Y-111589686D01*
X155173047Y-111562280D01*
X155124110Y-111523450D01*
X155097246Y-111488094D01*
X155065656Y-111452368D01*
X155009902Y-111408498D01*
X154958535Y-111375791D01*
X154845038Y-111310602D01*
X154866600Y-111367026D01*
X154882808Y-111420390D01*
X154900501Y-111494671D01*
X154909538Y-111539867D01*
X154928020Y-111620307D01*
X154951246Y-111695297D01*
X154963568Y-111725705D01*
X154983436Y-111774627D01*
X154982322Y-111805004D01*
X154961761Y-111833205D01*
X154934339Y-111879032D01*
X154927300Y-111910474D01*
X154919263Y-111951085D01*
X154899047Y-112008466D01*
X154872491Y-112069594D01*
X154845438Y-112121451D01*
X154823729Y-112151017D01*
X154818182Y-112153700D01*
X154795339Y-112137890D01*
X154769635Y-112105410D01*
X154746784Y-112060232D01*
X154718645Y-111990432D01*
X154694313Y-111920202D01*
X154631278Y-111752385D01*
X154550850Y-111583681D01*
X154459629Y-111425937D01*
X154364218Y-111290997D01*
X154307032Y-111225206D01*
X154226960Y-111142334D01*
X154166735Y-111081698D01*
X154117117Y-111034776D01*
X154068868Y-110993046D01*
X154012746Y-110947988D01*
X153972172Y-110916369D01*
X153853127Y-110824052D01*
X153868895Y-110890918D01*
X153884315Y-110947079D01*
X153908157Y-111024258D01*
X153929483Y-111088671D01*
X153957378Y-111192707D01*
X153963159Y-111273547D01*
X153947265Y-111326820D01*
X153910134Y-111348158D01*
X153903363Y-111348350D01*
X153810002Y-111325932D01*
X153726760Y-111265700D01*
X153656708Y-111171582D01*
X153602920Y-111047506D01*
X153573080Y-110926034D01*
X153554883Y-110834798D01*
X153533235Y-110743403D01*
X153518435Y-110690359D01*
X153499664Y-110619117D01*
X154059467Y-110619117D01*
X154070050Y-110629700D01*
X154080634Y-110619117D01*
X154070050Y-110608534D01*
X154059467Y-110619117D01*
X153499664Y-110619117D01*
X153495250Y-110602365D01*
X153490476Y-110534022D01*
X153504356Y-110466741D01*
X153522015Y-110418462D01*
X153546913Y-110364812D01*
X153574347Y-110340253D01*
X153619780Y-110333566D01*
X153639275Y-110333367D01*
X153745961Y-110352465D01*
X153856903Y-110406353D01*
X153962210Y-110489921D01*
X153982703Y-110510784D01*
X154028511Y-110558999D01*
X154049308Y-110577808D01*
X154049061Y-110568668D01*
X154031738Y-110533034D01*
X154029087Y-110527811D01*
X154000187Y-110440402D01*
X154005436Y-110365285D01*
X154043678Y-110309112D01*
X154070050Y-110292404D01*
X154148901Y-110268706D01*
X154242957Y-110260882D01*
X154335983Y-110268430D01*
X154411742Y-110290847D01*
X154433259Y-110303630D01*
X154474414Y-110337934D01*
X154502423Y-110374598D01*
X154524903Y-110426829D01*
X154548014Y-110502700D01*
X154569723Y-110567306D01*
X154592580Y-110617694D01*
X154600375Y-110629700D01*
X154622801Y-110669771D01*
X154646818Y-110729659D01*
X154652240Y-110746117D01*
X154679405Y-110824044D01*
X154711505Y-110904767D01*
X154716150Y-110915450D01*
X154742945Y-110979436D01*
X154763467Y-111034254D01*
X154766974Y-111045194D01*
X154791198Y-111077993D01*
X154842432Y-111122987D01*
X154910135Y-111172822D01*
X154983770Y-111220144D01*
X155052797Y-111257599D01*
X155096634Y-111275226D01*
X155145059Y-111293132D01*
X155170717Y-111306807D01*
X155208566Y-111324829D01*
X155279273Y-111349690D01*
X155374356Y-111379108D01*
X155485332Y-111410805D01*
X155603719Y-111442499D01*
X155721037Y-111471910D01*
X155828802Y-111496757D01*
X155918533Y-111514761D01*
X155975050Y-111523055D01*
X156018526Y-111523018D01*
X156037920Y-111503323D01*
X156045401Y-111457563D01*
X156046520Y-111391507D01*
X156039706Y-111335855D01*
X156030818Y-111311224D01*
X156013266Y-111296232D01*
X155977904Y-111288344D01*
X155915591Y-111285024D01*
X155852939Y-111284081D01*
X155749654Y-111280569D01*
X155643032Y-111273026D01*
X155555328Y-111263049D01*
X155551717Y-111262496D01*
X155475984Y-111250709D01*
X155412234Y-111240821D01*
X155382384Y-111236219D01*
X155270963Y-111199349D01*
X155156077Y-111121827D01*
X155124335Y-111093895D01*
X155065071Y-111043242D01*
X155010000Y-111002702D01*
X154982851Y-110986882D01*
X154922179Y-110937962D01*
X154874144Y-110858500D01*
X154841444Y-110759103D01*
X154833019Y-110696639D01*
X155348687Y-110696639D01*
X155363215Y-110724096D01*
X155400129Y-110753679D01*
X155424717Y-110765919D01*
X155472589Y-110791224D01*
X155497702Y-110814845D01*
X155498800Y-110819120D01*
X155516907Y-110835841D01*
X155551717Y-110841367D01*
X155591512Y-110847511D01*
X155604634Y-110859299D01*
X155622299Y-110881573D01*
X155663734Y-110905146D01*
X155711594Y-110921226D01*
X155731634Y-110923698D01*
X155734261Y-110911597D01*
X155709817Y-110879491D01*
X155668134Y-110838562D01*
X155566540Y-110759230D01*
X155461521Y-110705610D01*
X155398259Y-110683726D01*
X155359413Y-110680213D01*
X155348687Y-110696639D01*
X154833019Y-110696639D01*
X154826778Y-110650380D01*
X154832845Y-110542938D01*
X154851795Y-110471729D01*
X154902088Y-110380552D01*
X154970799Y-110310786D01*
X155049720Y-110266816D01*
X155130647Y-110253025D01*
X155205375Y-110273799D01*
X155213191Y-110278596D01*
X155254481Y-110300447D01*
X155290223Y-110298428D01*
X155328463Y-110280969D01*
X155395821Y-110257762D01*
X155464113Y-110248700D01*
X155583054Y-110263895D01*
X155711356Y-110305515D01*
X155838423Y-110367612D01*
X155953656Y-110444239D01*
X156046459Y-110529447D01*
X156100739Y-110605998D01*
X156143812Y-110663552D01*
X156202279Y-110713598D01*
X156210266Y-110718577D01*
X156277783Y-110779789D01*
X156339837Y-110877574D01*
X156394417Y-111006312D01*
X156439512Y-111160385D01*
X156473109Y-111334174D01*
X156492087Y-111505958D01*
X156499705Y-111592013D01*
X156509757Y-111646978D01*
X156525973Y-111682072D01*
X156552081Y-111708520D01*
X156561909Y-111716080D01*
X156602826Y-111743569D01*
X156629058Y-111745664D01*
X156659050Y-111723323D01*
X156661355Y-111721243D01*
X156688989Y-111682120D01*
X156720563Y-111616636D01*
X156747905Y-111542870D01*
X156777794Y-111455528D01*
X156810203Y-111370600D01*
X156833668Y-111316226D01*
X156859122Y-111252981D01*
X156873467Y-111198377D01*
X156874634Y-111185312D01*
X156882219Y-111131534D01*
X156896620Y-111082626D01*
X156907510Y-111031449D01*
X156897868Y-111011978D01*
X156846317Y-110974724D01*
X156775842Y-110916785D01*
X156697290Y-110847572D01*
X156621513Y-110776492D01*
X156588884Y-110744037D01*
X156522261Y-110678764D01*
X156438466Y-110600394D01*
X156352719Y-110523082D01*
X156329115Y-110502407D01*
X156238060Y-110416158D01*
X156179357Y-110344334D01*
X156154491Y-110289165D01*
X156163737Y-110254041D01*
X156197498Y-110240601D01*
X156259571Y-110230748D01*
X156336024Y-110225298D01*
X156412927Y-110225067D01*
X156476349Y-110230873D01*
X156493606Y-110234713D01*
X156543410Y-110258443D01*
X156604802Y-110300614D01*
X156667857Y-110352555D01*
X156722649Y-110405593D01*
X156759253Y-110451054D01*
X156768800Y-110475181D01*
X156785351Y-110501458D01*
X156827397Y-110537711D01*
X156855299Y-110556773D01*
X156918094Y-110602626D01*
X156990564Y-110664431D01*
X157040507Y-110712292D01*
X157111098Y-110782501D01*
X157193057Y-110861210D01*
X157253263Y-110917245D01*
X157310970Y-110968553D01*
X157343430Y-110992842D01*
X157355651Y-110992705D01*
X157352638Y-110970736D01*
X157351962Y-110968367D01*
X157333378Y-110916629D01*
X157300380Y-110836492D01*
X157257228Y-110737551D01*
X157208178Y-110629401D01*
X157157489Y-110521637D01*
X157117142Y-110439200D01*
X157076791Y-110350131D01*
X157033715Y-110241717D01*
X156996379Y-110135438D01*
X156992013Y-110121700D01*
X156957297Y-110021099D01*
X156911257Y-109901826D01*
X156861467Y-109783093D01*
X156837618Y-109730117D01*
X156790237Y-109623313D01*
X156759529Y-109539889D01*
X156741515Y-109466271D01*
X156732218Y-109388885D01*
X156730665Y-109365211D01*
X156729929Y-109269307D01*
X156742399Y-109212007D01*
X156770107Y-109191082D01*
X156815086Y-109204303D01*
G37*
X156815086Y-109204303D02*
X156854138Y-109229849D01*
X156904857Y-109260442D01*
X156947159Y-109274867D01*
X156950405Y-109275034D01*
X157003405Y-109290400D01*
X157071151Y-109330910D01*
X157142545Y-109388179D01*
X157206488Y-109453821D01*
X157233282Y-109488733D01*
X157270730Y-109552658D01*
X157312938Y-109639348D01*
X157355591Y-109737964D01*
X157394373Y-109837667D01*
X157424970Y-109927618D01*
X157443066Y-109996977D01*
X157446134Y-110023367D01*
X157461356Y-110075469D01*
X157487264Y-110110028D01*
X157519925Y-110156445D01*
X157557813Y-110238890D01*
X157598704Y-110351717D01*
X157640374Y-110489280D01*
X157648937Y-110520490D01*
X157677237Y-110605367D01*
X157713754Y-110690034D01*
X157730409Y-110721573D01*
X157759946Y-110781050D01*
X157796312Y-110866539D01*
X157833565Y-110963691D01*
X157850169Y-111010700D01*
X157888037Y-111111504D01*
X157930933Y-111210424D01*
X157971782Y-111291618D01*
X157987264Y-111317617D01*
X158043033Y-111428996D01*
X158070018Y-111532206D01*
X158090476Y-111619506D01*
X158128869Y-111682373D01*
X158143499Y-111697530D01*
X158183553Y-111732661D01*
X158208696Y-111740242D01*
X158232999Y-111723585D01*
X158237089Y-111719554D01*
X158255157Y-111701478D01*
X158265420Y-111684973D01*
X158267677Y-111660915D01*
X158261726Y-111620177D01*
X158247366Y-111553634D01*
X158231929Y-111485601D01*
X158183003Y-111326211D01*
X158118628Y-111198169D01*
X158076843Y-111128856D01*
X158043529Y-111066399D01*
X158028048Y-111030185D01*
X157995630Y-110948757D01*
X157944190Y-110846142D01*
X157880387Y-110734805D01*
X157879810Y-110733903D01*
X158377467Y-110733903D01*
X158391023Y-110775753D01*
X158410199Y-110791756D01*
X158437343Y-110817161D01*
X158472170Y-110868221D01*
X158507074Y-110931117D01*
X158534452Y-110992027D01*
X158546700Y-111037130D01*
X158546800Y-111040032D01*
X158562373Y-111065918D01*
X158602377Y-111107776D01*
X158656743Y-111157046D01*
X158715403Y-111205169D01*
X158768286Y-111243586D01*
X158805323Y-111263737D01*
X158811384Y-111264938D01*
X158837576Y-111276091D01*
X158889647Y-111305442D01*
X158958308Y-111347629D01*
X158991300Y-111368823D01*
X159062298Y-111413730D01*
X159118778Y-111446999D01*
X159152374Y-111463816D01*
X159157883Y-111464664D01*
X159159627Y-111441041D01*
X159153619Y-111392995D01*
X159152177Y-111385010D01*
X159130576Y-111323445D01*
X159097350Y-111275486D01*
X159096720Y-111274909D01*
X159065130Y-111237200D01*
X159054800Y-111210492D01*
X159039670Y-111184713D01*
X158998779Y-111138117D01*
X158938879Y-111076998D01*
X158866720Y-111007652D01*
X158789052Y-110936374D01*
X158712626Y-110869461D01*
X158644192Y-110813208D01*
X158590501Y-110773911D01*
X158579101Y-110766845D01*
X158513263Y-110732821D01*
X158451561Y-110707633D01*
X158435675Y-110702937D01*
X158393837Y-110697342D01*
X158378813Y-110714206D01*
X158377467Y-110733903D01*
X157879810Y-110733903D01*
X157819886Y-110640380D01*
X157770084Y-110560424D01*
X157741684Y-110493594D01*
X157727763Y-110421556D01*
X157724799Y-110388578D01*
X157715765Y-110263679D01*
X157905032Y-110274471D01*
X157995905Y-110282101D01*
X158075057Y-110293147D01*
X158129623Y-110305653D01*
X158141192Y-110310358D01*
X158181521Y-110323565D01*
X158221536Y-110310635D01*
X158245734Y-110294854D01*
X158311726Y-110255593D01*
X158376114Y-110237391D01*
X158454464Y-110237541D01*
X158522958Y-110246631D01*
X158641835Y-110276341D01*
X158766809Y-110325380D01*
X158887104Y-110387838D01*
X158991945Y-110457803D01*
X159070556Y-110529365D01*
X159094126Y-110559938D01*
X159142645Y-110616844D01*
X159205367Y-110670185D01*
X159219550Y-110679723D01*
X159284336Y-110731647D01*
X159353225Y-110804192D01*
X159416744Y-110885346D01*
X159465417Y-110963094D01*
X159488938Y-111021284D01*
X159502155Y-111071754D01*
X159524323Y-111147590D01*
X159551082Y-111233969D01*
X159556318Y-111250325D01*
X159598226Y-111428830D01*
X159602857Y-111593819D01*
X159569824Y-111752546D01*
X159523461Y-111865076D01*
X159463564Y-111965742D01*
X159397934Y-112040111D01*
X159332390Y-112082458D01*
X159294723Y-112090121D01*
X159256525Y-112073951D01*
X159194424Y-112026566D01*
X159110847Y-111949899D01*
X159078668Y-111918202D01*
X159027204Y-111871368D01*
X158953541Y-111810084D01*
X158869984Y-111744430D01*
X158828861Y-111713500D01*
X158655838Y-111585547D01*
X158667757Y-111658992D01*
X158668275Y-111721873D01*
X158646652Y-111792874D01*
X158623138Y-111842527D01*
X158578457Y-111926053D01*
X158542749Y-111981048D01*
X158507665Y-112017609D01*
X158464859Y-112045834D01*
X158447310Y-112055197D01*
X158354280Y-112085812D01*
X158252670Y-112082597D01*
X158169011Y-112059583D01*
X158108744Y-112043632D01*
X158073595Y-112045520D01*
X158069850Y-112049000D01*
X158037256Y-112067440D01*
X157987368Y-112056711D01*
X157927558Y-112022047D01*
X157865200Y-111968683D01*
X157807667Y-111901853D01*
X157765221Y-111832741D01*
X157740578Y-111798517D01*
X157691342Y-111741850D01*
X157623651Y-111669411D01*
X157543644Y-111587870D01*
X157502951Y-111547731D01*
X157268626Y-111319097D01*
X157235024Y-111395260D01*
X157207279Y-111452469D01*
X157182137Y-111495472D01*
X157178548Y-111500353D01*
X157160098Y-111539958D01*
X157145124Y-111598706D01*
X157143787Y-111606794D01*
X157124967Y-111667207D01*
X157088940Y-111741457D01*
X157057432Y-111792563D01*
X157015640Y-111856584D01*
X156983627Y-111911588D01*
X156970658Y-111939592D01*
X156944785Y-111971054D01*
X156894000Y-112004913D01*
X156868868Y-112017087D01*
X156805475Y-112047771D01*
X156753981Y-112078203D01*
X156742284Y-112086921D01*
X156711355Y-112104979D01*
X156672079Y-112105689D01*
X156615284Y-112091701D01*
X156538920Y-112063596D01*
X156457272Y-112025344D01*
X156434371Y-112012774D01*
X156343358Y-111960180D01*
X156259685Y-112035773D01*
X156208399Y-112078383D01*
X156167490Y-112105798D01*
X156152488Y-112111367D01*
X156126079Y-112098329D01*
X156077988Y-112063898D01*
X156017910Y-112015099D01*
X156008700Y-112007179D01*
X155956313Y-111964302D01*
X155904453Y-111929116D01*
X155844322Y-111897330D01*
X155767118Y-111864654D01*
X155664044Y-111826795D01*
X155577194Y-111796758D01*
X155450560Y-111753438D01*
X155358470Y-111721204D01*
X155295423Y-111697414D01*
X155255918Y-111679425D01*
X155234454Y-111664591D01*
X155225531Y-111650272D01*
X155223648Y-111633822D01*
X155223634Y-111626861D01*
X155206559Y-111589686D01*
X155173047Y-111562280D01*
X155124110Y-111523450D01*
X155097246Y-111488094D01*
X155065656Y-111452368D01*
X155009902Y-111408498D01*
X154958535Y-111375791D01*
X154845038Y-111310602D01*
X154866600Y-111367026D01*
X154882808Y-111420390D01*
X154900501Y-111494671D01*
X154909538Y-111539867D01*
X154928020Y-111620307D01*
X154951246Y-111695297D01*
X154963568Y-111725705D01*
X154983436Y-111774627D01*
X154982322Y-111805004D01*
X154961761Y-111833205D01*
X154934339Y-111879032D01*
X154927300Y-111910474D01*
X154919263Y-111951085D01*
X154899047Y-112008466D01*
X154872491Y-112069594D01*
X154845438Y-112121451D01*
X154823729Y-112151017D01*
X154818182Y-112153700D01*
X154795339Y-112137890D01*
X154769635Y-112105410D01*
X154746784Y-112060232D01*
X154718645Y-111990432D01*
X154694313Y-111920202D01*
X154631278Y-111752385D01*
X154550850Y-111583681D01*
X154459629Y-111425937D01*
X154364218Y-111290997D01*
X154307032Y-111225206D01*
X154226960Y-111142334D01*
X154166735Y-111081698D01*
X154117117Y-111034776D01*
X154068868Y-110993046D01*
X154012746Y-110947988D01*
X153972172Y-110916369D01*
X153853127Y-110824052D01*
X153868895Y-110890918D01*
X153884315Y-110947079D01*
X153908157Y-111024258D01*
X153929483Y-111088671D01*
X153957378Y-111192707D01*
X153963159Y-111273547D01*
X153947265Y-111326820D01*
X153910134Y-111348158D01*
X153903363Y-111348350D01*
X153810002Y-111325932D01*
X153726760Y-111265700D01*
X153656708Y-111171582D01*
X153602920Y-111047506D01*
X153573080Y-110926034D01*
X153554883Y-110834798D01*
X153533235Y-110743403D01*
X153518435Y-110690359D01*
X153499664Y-110619117D01*
X154059467Y-110619117D01*
X154070050Y-110629700D01*
X154080634Y-110619117D01*
X154070050Y-110608534D01*
X154059467Y-110619117D01*
X153499664Y-110619117D01*
X153495250Y-110602365D01*
X153490476Y-110534022D01*
X153504356Y-110466741D01*
X153522015Y-110418462D01*
X153546913Y-110364812D01*
X153574347Y-110340253D01*
X153619780Y-110333566D01*
X153639275Y-110333367D01*
X153745961Y-110352465D01*
X153856903Y-110406353D01*
X153962210Y-110489921D01*
X153982703Y-110510784D01*
X154028511Y-110558999D01*
X154049308Y-110577808D01*
X154049061Y-110568668D01*
X154031738Y-110533034D01*
X154029087Y-110527811D01*
X154000187Y-110440402D01*
X154005436Y-110365285D01*
X154043678Y-110309112D01*
X154070050Y-110292404D01*
X154148901Y-110268706D01*
X154242957Y-110260882D01*
X154335983Y-110268430D01*
X154411742Y-110290847D01*
X154433259Y-110303630D01*
X154474414Y-110337934D01*
X154502423Y-110374598D01*
X154524903Y-110426829D01*
X154548014Y-110502700D01*
X154569723Y-110567306D01*
X154592580Y-110617694D01*
X154600375Y-110629700D01*
X154622801Y-110669771D01*
X154646818Y-110729659D01*
X154652240Y-110746117D01*
X154679405Y-110824044D01*
X154711505Y-110904767D01*
X154716150Y-110915450D01*
X154742945Y-110979436D01*
X154763467Y-111034254D01*
X154766974Y-111045194D01*
X154791198Y-111077993D01*
X154842432Y-111122987D01*
X154910135Y-111172822D01*
X154983770Y-111220144D01*
X155052797Y-111257599D01*
X155096634Y-111275226D01*
X155145059Y-111293132D01*
X155170717Y-111306807D01*
X155208566Y-111324829D01*
X155279273Y-111349690D01*
X155374356Y-111379108D01*
X155485332Y-111410805D01*
X155603719Y-111442499D01*
X155721037Y-111471910D01*
X155828802Y-111496757D01*
X155918533Y-111514761D01*
X155975050Y-111523055D01*
X156018526Y-111523018D01*
X156037920Y-111503323D01*
X156045401Y-111457563D01*
X156046520Y-111391507D01*
X156039706Y-111335855D01*
X156030818Y-111311224D01*
X156013266Y-111296232D01*
X155977904Y-111288344D01*
X155915591Y-111285024D01*
X155852939Y-111284081D01*
X155749654Y-111280569D01*
X155643032Y-111273026D01*
X155555328Y-111263049D01*
X155551717Y-111262496D01*
X155475984Y-111250709D01*
X155412234Y-111240821D01*
X155382384Y-111236219D01*
X155270963Y-111199349D01*
X155156077Y-111121827D01*
X155124335Y-111093895D01*
X155065071Y-111043242D01*
X155010000Y-111002702D01*
X154982851Y-110986882D01*
X154922179Y-110937962D01*
X154874144Y-110858500D01*
X154841444Y-110759103D01*
X154833019Y-110696639D01*
X155348687Y-110696639D01*
X155363215Y-110724096D01*
X155400129Y-110753679D01*
X155424717Y-110765919D01*
X155472589Y-110791224D01*
X155497702Y-110814845D01*
X155498800Y-110819120D01*
X155516907Y-110835841D01*
X155551717Y-110841367D01*
X155591512Y-110847511D01*
X155604634Y-110859299D01*
X155622299Y-110881573D01*
X155663734Y-110905146D01*
X155711594Y-110921226D01*
X155731634Y-110923698D01*
X155734261Y-110911597D01*
X155709817Y-110879491D01*
X155668134Y-110838562D01*
X155566540Y-110759230D01*
X155461521Y-110705610D01*
X155398259Y-110683726D01*
X155359413Y-110680213D01*
X155348687Y-110696639D01*
X154833019Y-110696639D01*
X154826778Y-110650380D01*
X154832845Y-110542938D01*
X154851795Y-110471729D01*
X154902088Y-110380552D01*
X154970799Y-110310786D01*
X155049720Y-110266816D01*
X155130647Y-110253025D01*
X155205375Y-110273799D01*
X155213191Y-110278596D01*
X155254481Y-110300447D01*
X155290223Y-110298428D01*
X155328463Y-110280969D01*
X155395821Y-110257762D01*
X155464113Y-110248700D01*
X155583054Y-110263895D01*
X155711356Y-110305515D01*
X155838423Y-110367612D01*
X155953656Y-110444239D01*
X156046459Y-110529447D01*
X156100739Y-110605998D01*
X156143812Y-110663552D01*
X156202279Y-110713598D01*
X156210266Y-110718577D01*
X156277783Y-110779789D01*
X156339837Y-110877574D01*
X156394417Y-111006312D01*
X156439512Y-111160385D01*
X156473109Y-111334174D01*
X156492087Y-111505958D01*
X156499705Y-111592013D01*
X156509757Y-111646978D01*
X156525973Y-111682072D01*
X156552081Y-111708520D01*
X156561909Y-111716080D01*
X156602826Y-111743569D01*
X156629058Y-111745664D01*
X156659050Y-111723323D01*
X156661355Y-111721243D01*
X156688989Y-111682120D01*
X156720563Y-111616636D01*
X156747905Y-111542870D01*
X156777794Y-111455528D01*
X156810203Y-111370600D01*
X156833668Y-111316226D01*
X156859122Y-111252981D01*
X156873467Y-111198377D01*
X156874634Y-111185312D01*
X156882219Y-111131534D01*
X156896620Y-111082626D01*
X156907510Y-111031449D01*
X156897868Y-111011978D01*
X156846317Y-110974724D01*
X156775842Y-110916785D01*
X156697290Y-110847572D01*
X156621513Y-110776492D01*
X156588884Y-110744037D01*
X156522261Y-110678764D01*
X156438466Y-110600394D01*
X156352719Y-110523082D01*
X156329115Y-110502407D01*
X156238060Y-110416158D01*
X156179357Y-110344334D01*
X156154491Y-110289165D01*
X156163737Y-110254041D01*
X156197498Y-110240601D01*
X156259571Y-110230748D01*
X156336024Y-110225298D01*
X156412927Y-110225067D01*
X156476349Y-110230873D01*
X156493606Y-110234713D01*
X156543410Y-110258443D01*
X156604802Y-110300614D01*
X156667857Y-110352555D01*
X156722649Y-110405593D01*
X156759253Y-110451054D01*
X156768800Y-110475181D01*
X156785351Y-110501458D01*
X156827397Y-110537711D01*
X156855299Y-110556773D01*
X156918094Y-110602626D01*
X156990564Y-110664431D01*
X157040507Y-110712292D01*
X157111098Y-110782501D01*
X157193057Y-110861210D01*
X157253263Y-110917245D01*
X157310970Y-110968553D01*
X157343430Y-110992842D01*
X157355651Y-110992705D01*
X157352638Y-110970736D01*
X157351962Y-110968367D01*
X157333378Y-110916629D01*
X157300380Y-110836492D01*
X157257228Y-110737551D01*
X157208178Y-110629401D01*
X157157489Y-110521637D01*
X157117142Y-110439200D01*
X157076791Y-110350131D01*
X157033715Y-110241717D01*
X156996379Y-110135438D01*
X156992013Y-110121700D01*
X156957297Y-110021099D01*
X156911257Y-109901826D01*
X156861467Y-109783093D01*
X156837618Y-109730117D01*
X156790237Y-109623313D01*
X156759529Y-109539889D01*
X156741515Y-109466271D01*
X156732218Y-109388885D01*
X156730665Y-109365211D01*
X156729929Y-109269307D01*
X156742399Y-109212007D01*
X156770107Y-109191082D01*
X156815086Y-109204303D01*
G36*
X161016669Y-109268642D02*
G01*
X161071505Y-109305561D01*
X161123758Y-109353510D01*
X161160946Y-109401379D01*
X161171467Y-109431695D01*
X161180558Y-109470058D01*
X161203778Y-109529182D01*
X161221457Y-109566779D01*
X161258237Y-109648229D01*
X161294694Y-109741319D01*
X161309084Y-109783034D01*
X161339071Y-109864459D01*
X161379723Y-109960687D01*
X161417108Y-110040334D01*
X161459743Y-110136352D01*
X161499273Y-110243221D01*
X161522888Y-110322123D01*
X161549575Y-110408415D01*
X161583075Y-110489950D01*
X161610453Y-110539907D01*
X161673132Y-110641632D01*
X161723972Y-110742273D01*
X161759133Y-110832625D01*
X161774774Y-110903486D01*
X161773625Y-110931003D01*
X161770850Y-110975797D01*
X161783885Y-110989534D01*
X161802674Y-111007293D01*
X161830414Y-111052374D01*
X161861136Y-111112481D01*
X161888876Y-111175316D01*
X161907664Y-111228584D01*
X161912300Y-111254159D01*
X161927121Y-111288871D01*
X161944050Y-111307034D01*
X161967535Y-111346551D01*
X161975800Y-111394292D01*
X161981305Y-111437757D01*
X161994076Y-111455200D01*
X162013371Y-111473830D01*
X162040742Y-111523164D01*
X162072062Y-111593370D01*
X162103203Y-111674618D01*
X162130039Y-111757074D01*
X162145134Y-111815034D01*
X162162720Y-111883699D01*
X162187514Y-111960118D01*
X162222669Y-112052841D01*
X162271335Y-112170422D01*
X162305093Y-112248992D01*
X162352684Y-112361029D01*
X162386176Y-112447112D01*
X162409558Y-112519558D01*
X162426822Y-112590686D01*
X162441485Y-112670002D01*
X162454846Y-112753843D01*
X162459823Y-112806125D01*
X162455846Y-112836895D01*
X162442342Y-112856201D01*
X162430347Y-112865793D01*
X162387878Y-112889667D01*
X162346802Y-112889383D01*
X162289480Y-112864675D01*
X162287458Y-112863623D01*
X162233308Y-112825872D01*
X162179886Y-112774835D01*
X162175403Y-112769634D01*
X162130558Y-112724870D01*
X162088719Y-112696158D01*
X162082656Y-112693775D01*
X162051387Y-112668375D01*
X162015133Y-112617361D01*
X161996032Y-112581518D01*
X161923050Y-112420629D01*
X161844715Y-112236796D01*
X161768208Y-112047510D01*
X161700707Y-111870264D01*
X161677062Y-111804450D01*
X161642711Y-111708679D01*
X161611461Y-111625181D01*
X161586988Y-111563559D01*
X161573866Y-111534862D01*
X161555619Y-111488513D01*
X161552467Y-111466789D01*
X161542910Y-111421535D01*
X161519522Y-111366968D01*
X161490231Y-111317772D01*
X161462963Y-111288629D01*
X161454798Y-111285867D01*
X161436903Y-111267386D01*
X161414108Y-111220523D01*
X161391029Y-111158145D01*
X161372281Y-111093119D01*
X161362480Y-111038313D01*
X161361967Y-111027043D01*
X161350355Y-110994339D01*
X161320366Y-110941242D01*
X161290477Y-110896433D01*
X161218988Y-110795882D01*
X161206047Y-111003833D01*
X161199918Y-111117748D01*
X161194082Y-111252975D01*
X161189394Y-111388493D01*
X161187578Y-111457215D01*
X161182995Y-111580021D01*
X161173969Y-111666617D01*
X161157928Y-111723086D01*
X161132302Y-111755511D01*
X161094517Y-111769974D01*
X161054190Y-111772700D01*
X160975200Y-111765979D01*
X160931382Y-111744021D01*
X160917477Y-111704133D01*
X160917467Y-111702702D01*
X160910953Y-111673703D01*
X160896315Y-111679552D01*
X160848217Y-111699839D01*
X160783062Y-111688281D01*
X160708141Y-111647658D01*
X160669147Y-111613950D01*
X160959800Y-111613950D01*
X160970384Y-111624534D01*
X160980967Y-111613950D01*
X160970384Y-111603367D01*
X160959800Y-111613950D01*
X160669147Y-111613950D01*
X160630747Y-111580756D01*
X160626887Y-111576712D01*
X160562519Y-111509174D01*
X160498072Y-111442390D01*
X160456190Y-111399627D01*
X160407925Y-111341962D01*
X160371478Y-111282717D01*
X160364462Y-111266136D01*
X160335005Y-111216698D01*
X160296723Y-111188424D01*
X160237018Y-111157744D01*
X160185552Y-111111679D01*
X160152555Y-111061664D01*
X160147441Y-111021520D01*
X160152263Y-110993608D01*
X160137247Y-111000748D01*
X160135171Y-111002683D01*
X160128389Y-111023106D01*
X160136311Y-111062465D01*
X160160789Y-111126313D01*
X160203674Y-111220202D01*
X160216921Y-111247843D01*
X160262876Y-111348489D01*
X160303624Y-111447493D01*
X160334029Y-111531822D01*
X160347078Y-111578162D01*
X160365167Y-111641664D01*
X160396462Y-111731046D01*
X160436356Y-111833788D01*
X160474616Y-111924627D01*
X160530521Y-112060100D01*
X160564740Y-112164455D01*
X160577867Y-112242572D01*
X160570494Y-112299329D01*
X160543216Y-112339606D01*
X160526628Y-112352349D01*
X160473328Y-112379877D01*
X160427615Y-112380383D01*
X160376384Y-112351568D01*
X160337424Y-112319139D01*
X160284554Y-112264861D01*
X160262308Y-112224974D01*
X160271437Y-112203479D01*
X160312693Y-112204372D01*
X160315990Y-112205171D01*
X160352545Y-112209359D01*
X160358524Y-112199227D01*
X160330501Y-112179604D01*
X160292463Y-112166027D01*
X160245851Y-112146346D01*
X160182224Y-112109787D01*
X160134792Y-112077950D01*
X160065749Y-112020894D01*
X160023234Y-111963178D01*
X159999229Y-111903926D01*
X159963987Y-111797987D01*
X159922900Y-111681216D01*
X159879829Y-111563924D01*
X159838633Y-111456416D01*
X159803173Y-111369002D01*
X159778301Y-111313934D01*
X159747753Y-111243858D01*
X159725041Y-111174992D01*
X159722436Y-111164090D01*
X159697154Y-111103048D01*
X159654314Y-111042412D01*
X159646378Y-111034034D01*
X159590058Y-110949704D01*
X159571042Y-110884408D01*
X159543819Y-110801336D01*
X159494840Y-110720946D01*
X159491059Y-110716275D01*
X159446259Y-110651755D01*
X159394818Y-110560960D01*
X159339543Y-110450806D01*
X159283240Y-110328206D01*
X159228716Y-110200074D01*
X159178777Y-110073325D01*
X159136230Y-109954872D01*
X159103882Y-109851630D01*
X159084539Y-109770513D01*
X159081009Y-109718434D01*
X159082909Y-109710807D01*
X159112475Y-109682211D01*
X159134842Y-109677200D01*
X159173796Y-109662697D01*
X159221585Y-109626719D01*
X159233076Y-109615413D01*
X159307062Y-109556406D01*
X159376865Y-109539006D01*
X159443971Y-109562868D01*
X159447833Y-109565526D01*
X159486163Y-109606168D01*
X159533047Y-109675560D01*
X159582351Y-109762745D01*
X159627944Y-109856770D01*
X159663693Y-109946678D01*
X159667351Y-109957659D01*
X159687935Y-110009293D01*
X159715060Y-110031739D01*
X159765082Y-110036988D01*
X159775620Y-110037034D01*
X159837121Y-110043651D01*
X159876385Y-110069623D01*
X159895179Y-110095242D01*
X159929091Y-110141227D01*
X159958671Y-110170098D01*
X159958690Y-110170110D01*
X159984694Y-110195987D01*
X160023633Y-110244999D01*
X160053256Y-110286527D01*
X160110809Y-110365293D01*
X160176321Y-110446242D01*
X160243271Y-110522313D01*
X160305138Y-110586445D01*
X160355404Y-110631578D01*
X160387547Y-110650651D01*
X160389694Y-110650855D01*
X160419331Y-110667948D01*
X160455333Y-110711034D01*
X160469742Y-110734321D01*
X160508673Y-110788748D01*
X160550365Y-110825689D01*
X160563598Y-110831871D01*
X160606026Y-110854499D01*
X160661154Y-110896202D01*
X160689925Y-110922046D01*
X160769300Y-110998125D01*
X160773178Y-110808621D01*
X160775064Y-110691581D01*
X160774733Y-110609910D01*
X160771608Y-110556675D01*
X160765116Y-110524942D01*
X160754681Y-110507781D01*
X160747787Y-110502486D01*
X160734873Y-110470557D01*
X160736487Y-110401316D01*
X160739276Y-110377747D01*
X160744078Y-110297703D01*
X160736992Y-110235233D01*
X160731964Y-110220969D01*
X160713730Y-110161839D01*
X160697803Y-110073207D01*
X160685329Y-109967890D01*
X160677459Y-109858703D01*
X160675340Y-109758465D01*
X160680122Y-109679990D01*
X160682271Y-109666617D01*
X160692140Y-109593475D01*
X160694207Y-109529216D01*
X160692013Y-109507811D01*
X160691324Y-109440446D01*
X160711500Y-109381832D01*
X160746521Y-109344911D01*
X160770729Y-109338534D01*
X160818954Y-109325767D01*
X160869358Y-109296200D01*
X160922705Y-109265861D01*
X160971731Y-109253867D01*
X161016669Y-109268642D01*
G37*
X161016669Y-109268642D02*
X161071505Y-109305561D01*
X161123758Y-109353510D01*
X161160946Y-109401379D01*
X161171467Y-109431695D01*
X161180558Y-109470058D01*
X161203778Y-109529182D01*
X161221457Y-109566779D01*
X161258237Y-109648229D01*
X161294694Y-109741319D01*
X161309084Y-109783034D01*
X161339071Y-109864459D01*
X161379723Y-109960687D01*
X161417108Y-110040334D01*
X161459743Y-110136352D01*
X161499273Y-110243221D01*
X161522888Y-110322123D01*
X161549575Y-110408415D01*
X161583075Y-110489950D01*
X161610453Y-110539907D01*
X161673132Y-110641632D01*
X161723972Y-110742273D01*
X161759133Y-110832625D01*
X161774774Y-110903486D01*
X161773625Y-110931003D01*
X161770850Y-110975797D01*
X161783885Y-110989534D01*
X161802674Y-111007293D01*
X161830414Y-111052374D01*
X161861136Y-111112481D01*
X161888876Y-111175316D01*
X161907664Y-111228584D01*
X161912300Y-111254159D01*
X161927121Y-111288871D01*
X161944050Y-111307034D01*
X161967535Y-111346551D01*
X161975800Y-111394292D01*
X161981305Y-111437757D01*
X161994076Y-111455200D01*
X162013371Y-111473830D01*
X162040742Y-111523164D01*
X162072062Y-111593370D01*
X162103203Y-111674618D01*
X162130039Y-111757074D01*
X162145134Y-111815034D01*
X162162720Y-111883699D01*
X162187514Y-111960118D01*
X162222669Y-112052841D01*
X162271335Y-112170422D01*
X162305093Y-112248992D01*
X162352684Y-112361029D01*
X162386176Y-112447112D01*
X162409558Y-112519558D01*
X162426822Y-112590686D01*
X162441485Y-112670002D01*
X162454846Y-112753843D01*
X162459823Y-112806125D01*
X162455846Y-112836895D01*
X162442342Y-112856201D01*
X162430347Y-112865793D01*
X162387878Y-112889667D01*
X162346802Y-112889383D01*
X162289480Y-112864675D01*
X162287458Y-112863623D01*
X162233308Y-112825872D01*
X162179886Y-112774835D01*
X162175403Y-112769634D01*
X162130558Y-112724870D01*
X162088719Y-112696158D01*
X162082656Y-112693775D01*
X162051387Y-112668375D01*
X162015133Y-112617361D01*
X161996032Y-112581518D01*
X161923050Y-112420629D01*
X161844715Y-112236796D01*
X161768208Y-112047510D01*
X161700707Y-111870264D01*
X161677062Y-111804450D01*
X161642711Y-111708679D01*
X161611461Y-111625181D01*
X161586988Y-111563559D01*
X161573866Y-111534862D01*
X161555619Y-111488513D01*
X161552467Y-111466789D01*
X161542910Y-111421535D01*
X161519522Y-111366968D01*
X161490231Y-111317772D01*
X161462963Y-111288629D01*
X161454798Y-111285867D01*
X161436903Y-111267386D01*
X161414108Y-111220523D01*
X161391029Y-111158145D01*
X161372281Y-111093119D01*
X161362480Y-111038313D01*
X161361967Y-111027043D01*
X161350355Y-110994339D01*
X161320366Y-110941242D01*
X161290477Y-110896433D01*
X161218988Y-110795882D01*
X161206047Y-111003833D01*
X161199918Y-111117748D01*
X161194082Y-111252975D01*
X161189394Y-111388493D01*
X161187578Y-111457215D01*
X161182995Y-111580021D01*
X161173969Y-111666617D01*
X161157928Y-111723086D01*
X161132302Y-111755511D01*
X161094517Y-111769974D01*
X161054190Y-111772700D01*
X160975200Y-111765979D01*
X160931382Y-111744021D01*
X160917477Y-111704133D01*
X160917467Y-111702702D01*
X160910953Y-111673703D01*
X160896315Y-111679552D01*
X160848217Y-111699839D01*
X160783062Y-111688281D01*
X160708141Y-111647658D01*
X160669147Y-111613950D01*
X160959800Y-111613950D01*
X160970384Y-111624534D01*
X160980967Y-111613950D01*
X160970384Y-111603367D01*
X160959800Y-111613950D01*
X160669147Y-111613950D01*
X160630747Y-111580756D01*
X160626887Y-111576712D01*
X160562519Y-111509174D01*
X160498072Y-111442390D01*
X160456190Y-111399627D01*
X160407925Y-111341962D01*
X160371478Y-111282717D01*
X160364462Y-111266136D01*
X160335005Y-111216698D01*
X160296723Y-111188424D01*
X160237018Y-111157744D01*
X160185552Y-111111679D01*
X160152555Y-111061664D01*
X160147441Y-111021520D01*
X160152263Y-110993608D01*
X160137247Y-111000748D01*
X160135171Y-111002683D01*
X160128389Y-111023106D01*
X160136311Y-111062465D01*
X160160789Y-111126313D01*
X160203674Y-111220202D01*
X160216921Y-111247843D01*
X160262876Y-111348489D01*
X160303624Y-111447493D01*
X160334029Y-111531822D01*
X160347078Y-111578162D01*
X160365167Y-111641664D01*
X160396462Y-111731046D01*
X160436356Y-111833788D01*
X160474616Y-111924627D01*
X160530521Y-112060100D01*
X160564740Y-112164455D01*
X160577867Y-112242572D01*
X160570494Y-112299329D01*
X160543216Y-112339606D01*
X160526628Y-112352349D01*
X160473328Y-112379877D01*
X160427615Y-112380383D01*
X160376384Y-112351568D01*
X160337424Y-112319139D01*
X160284554Y-112264861D01*
X160262308Y-112224974D01*
X160271437Y-112203479D01*
X160312693Y-112204372D01*
X160315990Y-112205171D01*
X160352545Y-112209359D01*
X160358524Y-112199227D01*
X160330501Y-112179604D01*
X160292463Y-112166027D01*
X160245851Y-112146346D01*
X160182224Y-112109787D01*
X160134792Y-112077950D01*
X160065749Y-112020894D01*
X160023234Y-111963178D01*
X159999229Y-111903926D01*
X159963987Y-111797987D01*
X159922900Y-111681216D01*
X159879829Y-111563924D01*
X159838633Y-111456416D01*
X159803173Y-111369002D01*
X159778301Y-111313934D01*
X159747753Y-111243858D01*
X159725041Y-111174992D01*
X159722436Y-111164090D01*
X159697154Y-111103048D01*
X159654314Y-111042412D01*
X159646378Y-111034034D01*
X159590058Y-110949704D01*
X159571042Y-110884408D01*
X159543819Y-110801336D01*
X159494840Y-110720946D01*
X159491059Y-110716275D01*
X159446259Y-110651755D01*
X159394818Y-110560960D01*
X159339543Y-110450806D01*
X159283240Y-110328206D01*
X159228716Y-110200074D01*
X159178777Y-110073325D01*
X159136230Y-109954872D01*
X159103882Y-109851630D01*
X159084539Y-109770513D01*
X159081009Y-109718434D01*
X159082909Y-109710807D01*
X159112475Y-109682211D01*
X159134842Y-109677200D01*
X159173796Y-109662697D01*
X159221585Y-109626719D01*
X159233076Y-109615413D01*
X159307062Y-109556406D01*
X159376865Y-109539006D01*
X159443971Y-109562868D01*
X159447833Y-109565526D01*
X159486163Y-109606168D01*
X159533047Y-109675560D01*
X159582351Y-109762745D01*
X159627944Y-109856770D01*
X159663693Y-109946678D01*
X159667351Y-109957659D01*
X159687935Y-110009293D01*
X159715060Y-110031739D01*
X159765082Y-110036988D01*
X159775620Y-110037034D01*
X159837121Y-110043651D01*
X159876385Y-110069623D01*
X159895179Y-110095242D01*
X159929091Y-110141227D01*
X159958671Y-110170098D01*
X159958690Y-110170110D01*
X159984694Y-110195987D01*
X160023633Y-110244999D01*
X160053256Y-110286527D01*
X160110809Y-110365293D01*
X160176321Y-110446242D01*
X160243271Y-110522313D01*
X160305138Y-110586445D01*
X160355404Y-110631578D01*
X160387547Y-110650651D01*
X160389694Y-110650855D01*
X160419331Y-110667948D01*
X160455333Y-110711034D01*
X160469742Y-110734321D01*
X160508673Y-110788748D01*
X160550365Y-110825689D01*
X160563598Y-110831871D01*
X160606026Y-110854499D01*
X160661154Y-110896202D01*
X160689925Y-110922046D01*
X160769300Y-110998125D01*
X160773178Y-110808621D01*
X160775064Y-110691581D01*
X160774733Y-110609910D01*
X160771608Y-110556675D01*
X160765116Y-110524942D01*
X160754681Y-110507781D01*
X160747787Y-110502486D01*
X160734873Y-110470557D01*
X160736487Y-110401316D01*
X160739276Y-110377747D01*
X160744078Y-110297703D01*
X160736992Y-110235233D01*
X160731964Y-110220969D01*
X160713730Y-110161839D01*
X160697803Y-110073207D01*
X160685329Y-109967890D01*
X160677459Y-109858703D01*
X160675340Y-109758465D01*
X160680122Y-109679990D01*
X160682271Y-109666617D01*
X160692140Y-109593475D01*
X160694207Y-109529216D01*
X160692013Y-109507811D01*
X160691324Y-109440446D01*
X160711500Y-109381832D01*
X160746521Y-109344911D01*
X160770729Y-109338534D01*
X160818954Y-109325767D01*
X160869358Y-109296200D01*
X160922705Y-109265861D01*
X160971731Y-109253867D01*
X161016669Y-109268642D01*
D11*
G36*
X164200171Y-100907601D02*
G01*
X164165721Y-100912801D01*
X164126101Y-100914501D01*
X163915949Y-101035080D01*
X163743694Y-101198722D01*
X163719574Y-101222832D01*
X163693734Y-101241782D01*
X163673064Y-101264172D01*
X163659284Y-101295182D01*
X163567984Y-101398534D01*
X163488744Y-101524280D01*
X163411234Y-101655194D01*
X163325104Y-101775772D01*
X163333704Y-101805052D01*
X163332004Y-101829172D01*
X163378514Y-101868792D01*
X163404354Y-101920472D01*
X163435364Y-101970422D01*
X163483594Y-102006592D01*
X163492194Y-101994532D01*
X163511144Y-101999732D01*
X163530094Y-102003132D01*
X163538694Y-101987632D01*
X163550754Y-101999692D01*
X163562814Y-102011752D01*
X163580034Y-102006552D01*
X163598984Y-102006552D01*
X163652384Y-101913532D01*
X163704064Y-101806734D01*
X163764354Y-101693046D01*
X163836704Y-101579358D01*
X163928004Y-101463947D01*
X164034803Y-101353704D01*
X164150214Y-101253794D01*
X164265625Y-101174554D01*
X164281125Y-101183154D01*
X164296625Y-101193484D01*
X164296625Y-101315785D01*
X164303525Y-101429473D01*
X164289745Y-101438073D01*
X164277685Y-101448413D01*
X164239785Y-101667177D01*
X164184665Y-101873883D01*
X164165715Y-101818763D01*
X164148485Y-101818763D01*
X164131265Y-101837713D01*
X164089925Y-101791203D01*
X164022745Y-101770533D01*
X163998634Y-101782593D01*
X163976244Y-101770533D01*
X163976244Y-101760193D01*
X163983144Y-101756793D01*
X163990044Y-101753393D01*
X163990044Y-101744793D01*
X163959034Y-101753393D01*
X163929754Y-101763733D01*
X163835014Y-101906704D01*
X163871184Y-101961824D01*
X163909084Y-102030724D01*
X163948704Y-102104794D01*
X163986604Y-102175414D01*
X164021055Y-102228814D01*
X164062395Y-102271874D01*
X164103735Y-102313214D01*
X164138184Y-102363164D01*
X164182975Y-102366564D01*
X164224315Y-102369964D01*
X164324225Y-102290724D01*
X164393125Y-102185649D01*
X164443075Y-102063348D01*
X164480975Y-101928989D01*
X164518875Y-101789463D01*
X164563665Y-101653382D01*
X164565365Y-101603432D01*
X164570565Y-101563812D01*
X164577465Y-101525912D01*
X164582665Y-101484572D01*
X164586065Y-101472512D01*
X164594665Y-101465612D01*
X164599865Y-101403602D01*
X164599865Y-101357092D01*
X164606765Y-101307142D01*
X164611965Y-101258912D01*
X164501722Y-101016033D01*
X164217501Y-100919573D01*
X164207171Y-100916173D01*
X164200271Y-100907573D01*
X164200171Y-100907601D01*
G37*
G36*
X164468543Y-102442736D02*
G01*
X163858905Y-102866307D01*
X163938145Y-102837027D01*
X163898525Y-102988611D01*
X163836515Y-103138473D01*
X163734885Y-103093683D01*
X163681485Y-103017893D01*
X163681485Y-103017887D01*
X163741775Y-102967937D01*
X163796895Y-102912817D01*
X163858905Y-102866307D01*
X164468543Y-102442736D01*
X164456483Y-102427236D01*
X164427203Y-102411736D01*
X164427203Y-102430686D01*
X164358303Y-102423786D01*
X164296293Y-102439286D01*
X164237723Y-102453066D01*
X164177433Y-102447866D01*
X164174033Y-102459926D01*
X164149913Y-102466826D01*
X164118903Y-102468526D01*
X164091343Y-102466826D01*
X163981099Y-102501276D01*
X163869134Y-102525396D01*
X163760613Y-102547786D01*
X163660703Y-102582236D01*
X163667603Y-102632186D01*
X163689993Y-102668356D01*
X163590083Y-102763096D01*
X163476395Y-102845776D01*
X163376485Y-102942236D01*
X163324805Y-103074873D01*
X163388535Y-103167893D01*
X163471215Y-103252303D01*
X163490165Y-103278143D01*
X163507395Y-103305703D01*
X163533235Y-103305703D01*
X163586635Y-103345323D01*
X163650365Y-103374603D01*
X163717545Y-103400443D01*
X163781275Y-103428003D01*
X163800225Y-103424603D01*
X163815725Y-103428003D01*
X163832945Y-103433203D01*
X163855335Y-103434903D01*
X164003474Y-103374613D01*
X164094775Y-103247144D01*
X164155065Y-103088670D01*
X164208465Y-102935363D01*
X164215365Y-102942263D01*
X164225695Y-102947463D01*
X164275645Y-103026703D01*
X164308375Y-103080103D01*
X164329045Y-103135223D01*
X164349715Y-103219633D01*
X164370385Y-103302313D01*
X164382445Y-103357433D01*
X164389345Y-103409113D01*
X164397945Y-103483183D01*
X164442735Y-103514193D01*
X164494415Y-103531423D01*
X164544365Y-103533123D01*
X164580535Y-103519343D01*
X164587435Y-103527943D01*
X164587435Y-103545163D01*
X164608105Y-103524493D01*
X164632225Y-103507263D01*
X164654615Y-103486593D01*
X164666675Y-103459033D01*
X164668375Y-103300558D01*
X164589135Y-103054234D01*
X164539185Y-102933656D01*
X164496125Y-102852696D01*
X164449615Y-102788966D01*
X164389325Y-102721786D01*
X164396225Y-102714886D01*
X164403125Y-102709686D01*
X164515089Y-102682126D01*
X164602940Y-102630446D01*
X164608140Y-102592546D01*
X164627090Y-102570156D01*
X164625390Y-102544316D01*
X164616790Y-102528816D01*
X164606450Y-102513316D01*
X164603050Y-102485756D01*
X164573770Y-102475416D01*
X164559990Y-102447856D01*
X164534150Y-102451256D01*
X164513479Y-102446056D01*
X164492810Y-102439156D01*
X164468690Y-102442556D01*
X164468543Y-102442736D01*
G37*
G36*
X163646887Y-104496014D02*
G01*
X163665837Y-104496014D01*
X163676167Y-104494314D01*
X163688227Y-104494314D01*
X163705457Y-104497714D01*
X163786417Y-104413304D01*
X163817427Y-104311674D01*
X163836377Y-104197986D01*
X163881167Y-104084298D01*
X163881167Y-104042958D01*
X163886367Y-103991278D01*
X163901867Y-103965438D01*
X163910467Y-103934428D01*
X163943198Y-103939628D01*
X163969037Y-103944828D01*
X163967337Y-104077465D01*
X163958737Y-104222159D01*
X163970797Y-104220459D01*
X163979397Y-104218759D01*
X164001787Y-104242879D01*
X164025908Y-104266999D01*
X164046578Y-104291119D01*
X164051778Y-104322129D01*
X164082788Y-104330729D01*
X164115518Y-104327329D01*
X164155138Y-104272209D01*
X164189588Y-104213639D01*
X164215428Y-104149909D01*
X164222328Y-104075839D01*
X164222328Y-104062059D01*
X164217128Y-104051719D01*
X164222328Y-104012099D01*
X164227528Y-103974199D01*
X164220628Y-103927689D01*
X164213728Y-103881179D01*
X164291238Y-103831229D01*
X164379088Y-103791609D01*
X164385988Y-103888069D01*
X164380788Y-103962139D01*
X164372188Y-104032759D01*
X164368788Y-104124059D01*
X164344668Y-104205019D01*
X164323998Y-104292869D01*
X164342948Y-104316989D01*
X164367068Y-104335939D01*
X164386018Y-104356609D01*
X164392918Y-104382449D01*
X164410148Y-104391049D01*
X164427368Y-104396249D01*
X164442868Y-104401449D01*
X164446268Y-104416949D01*
X164534118Y-104356659D01*
X164578908Y-104280869D01*
X164603018Y-104184409D01*
X164623688Y-104068998D01*
X164621988Y-104043158D01*
X164618588Y-104019038D01*
X164634088Y-103924298D01*
X164639288Y-103812332D01*
X164623788Y-103703812D01*
X164578998Y-103619412D01*
X164551438Y-103600462D01*
X164525598Y-103578072D01*
X164475648Y-103571172D01*
X164418808Y-103560842D01*
X164358518Y-103552242D01*
X164305118Y-103555642D01*
X164258608Y-103576312D01*
X164213818Y-103588372D01*
X164205218Y-103598712D01*
X164198318Y-103612492D01*
X164139748Y-103634882D01*
X164086348Y-103659002D01*
X164034668Y-103684842D01*
X163974377Y-103710682D01*
X163926147Y-103674512D01*
X163872747Y-103659012D01*
X163817627Y-103650412D01*
X163759057Y-103638352D01*
X163717717Y-103679692D01*
X163690157Y-103734812D01*
X163672927Y-103798552D01*
X163657427Y-103870902D01*
X163622977Y-103993203D01*
X163604027Y-104100001D01*
X163588527Y-104210244D01*
X163567857Y-104339435D01*
X163583357Y-104368715D01*
X163574757Y-104384215D01*
X163564427Y-104392815D01*
X163614377Y-104435875D01*
X163647107Y-104496165D01*
X163646887Y-104496014D01*
G37*
G36*
X164165375Y-105005888D02*
G01*
X164191215Y-104985218D01*
X164220495Y-104967988D01*
X164256665Y-104949038D01*
X164287675Y-104923198D01*
X164329015Y-104905968D01*
X164361745Y-104878408D01*
X164511607Y-104797448D01*
X164542617Y-104787108D01*
X164570177Y-104771608D01*
X164582237Y-104764708D01*
X164590837Y-104759508D01*
X164608067Y-104756108D01*
X164632187Y-104737158D01*
X164651137Y-104718208D01*
X164664917Y-104706148D01*
X164675247Y-104680308D01*
X164540889Y-104527002D01*
X164523659Y-104528702D01*
X164506439Y-104533902D01*
X164485769Y-104540802D01*
X164437539Y-104556302D01*
X164394479Y-104585582D01*
X164356579Y-104601082D01*
X164275619Y-104642422D01*
X164210159Y-104680322D01*
X164172259Y-104702712D01*
X164122309Y-104661372D01*
X164039629Y-104621752D01*
X163969008Y-104597632D01*
X163931108Y-104592432D01*
X163898378Y-104585532D01*
X163860478Y-104576932D01*
X163820858Y-104573532D01*
X163796738Y-104563202D01*
X163779508Y-104566602D01*
X163748498Y-104568302D01*
X163707158Y-104559702D01*
X163669258Y-104551102D01*
X163627918Y-104549402D01*
X163590018Y-104559742D01*
X163557288Y-104592472D01*
X163555588Y-104621752D01*
X163572818Y-104651032D01*
X163588318Y-104680312D01*
X163605548Y-104716482D01*
X163627938Y-104752652D01*
X163652058Y-104764712D01*
X163671008Y-104787102D01*
X163689958Y-104787102D01*
X163708908Y-104788802D01*
X163736468Y-104795702D01*
X163757139Y-104802602D01*
X163803648Y-104807802D01*
X163843268Y-104818132D01*
X163882888Y-104828462D01*
X163927678Y-104830162D01*
X163915618Y-104847392D01*
X163910418Y-104854292D01*
X163905218Y-104861192D01*
X163767414Y-104962822D01*
X163750184Y-104959422D01*
X163715734Y-104995592D01*
X163689894Y-105021432D01*
X163664054Y-105043822D01*
X163650274Y-105062772D01*
X163543476Y-105219524D01*
X163540076Y-105243644D01*
X163562466Y-105250544D01*
X163596916Y-105278104D01*
X163626196Y-105324614D01*
X163636536Y-105340114D01*
X163662376Y-105348714D01*
X163677876Y-105347014D01*
X163695106Y-105353914D01*
X163755396Y-105319464D01*
X163789846Y-105281564D01*
X163815686Y-105252284D01*
X163843246Y-105233334D01*
X163857026Y-105221274D01*
X163912146Y-105174764D01*
X163932816Y-105169564D01*
X163932816Y-105148894D01*
X163939716Y-105140294D01*
X163968996Y-105123064D01*
X163991386Y-105105844D01*
X163999987Y-105097244D01*
X164013767Y-105092044D01*
X164027547Y-105086844D01*
X164061997Y-105059284D01*
X164086117Y-105047224D01*
X164113677Y-105033444D01*
X164139517Y-105014494D01*
X164165375Y-105005888D01*
G37*
G36*
X164303179Y-105514040D02*
G01*
X164322129Y-105491650D01*
X164351409Y-105477870D01*
X164380689Y-105465810D01*
X164392749Y-105448580D01*
X164416869Y-105438250D01*
X164439259Y-105424470D01*
X164463379Y-105414140D01*
X164492659Y-105417540D01*
X164521939Y-105400320D01*
X164558109Y-105391720D01*
X164587389Y-105377940D01*
X164597729Y-105340040D01*
X164606329Y-105338340D01*
X164618389Y-105343540D01*
X164620089Y-105314260D01*
X164628689Y-105291870D01*
X164592519Y-105236750D01*
X164535679Y-105198850D01*
X164470219Y-105169570D01*
X164413379Y-105145450D01*
X164377209Y-105147150D01*
X164346199Y-105135090D01*
X164301039Y-105156430D01*
X164255119Y-105178260D01*
X164208449Y-105200570D01*
X164161029Y-105223370D01*
X164112849Y-105246650D01*
X164063919Y-105270420D01*
X164014229Y-105294670D01*
X163963788Y-105319410D01*
X163913048Y-105344230D01*
X163862478Y-105368720D01*
X163812068Y-105392890D01*
X163761818Y-105416740D01*
X163711728Y-105440260D01*
X163661798Y-105463460D01*
X163612028Y-105486340D01*
X163562428Y-105508890D01*
X163598598Y-105586400D01*
X163643388Y-105657020D01*
X163703678Y-105712140D01*
X163777748Y-105741420D01*
X163786348Y-105732820D01*
X163788048Y-105725920D01*
X163800108Y-105732820D01*
X163807008Y-105732820D01*
X163817348Y-105732820D01*
X163832848Y-105738020D01*
X163834548Y-105727690D01*
X163834548Y-105717350D01*
X163865558Y-105720750D01*
X163887948Y-105713850D01*
X163908618Y-105705250D01*
X163936178Y-105706950D01*
X163939578Y-105698350D01*
X163944779Y-105694950D01*
X163949978Y-105689750D01*
X163949978Y-105682850D01*
X164025769Y-105686250D01*
X164103279Y-105682850D01*
X164184239Y-105684550D01*
X164270369Y-105696610D01*
X164177349Y-105794790D01*
X164049880Y-105855080D01*
X163898295Y-105891250D01*
X163732930Y-105917090D01*
X163695030Y-105941210D01*
X163648520Y-105956710D01*
X163598570Y-105970490D01*
X163552060Y-105987720D01*
X163569290Y-106030780D01*
X163596850Y-106065230D01*
X163624410Y-106097960D01*
X163639910Y-106141020D01*
X163696750Y-106178920D01*
X163755320Y-106201310D01*
X163786330Y-106187530D01*
X163820780Y-106178930D01*
X163853510Y-106165150D01*
X163877630Y-106141030D01*
X163960310Y-106127250D01*
X164032661Y-106111750D01*
X164108451Y-106099690D01*
X164192851Y-106096290D01*
X164277251Y-106067010D01*
X164358211Y-106042890D01*
X164411611Y-105999830D01*
X164473621Y-105967100D01*
X164477021Y-105958500D01*
X164471821Y-105946440D01*
X164482161Y-105946440D01*
X164489061Y-105941240D01*
X164495961Y-105937840D01*
X164509741Y-105941240D01*
X164539021Y-105898180D01*
X164573471Y-105856840D01*
X164594141Y-105805160D01*
X164582081Y-105727650D01*
X164463225Y-105601904D01*
X164303028Y-105514054D01*
X164303179Y-105514040D01*
G37*
G36*
X164471989Y-107067778D02*
G01*
X164173988Y-106569962D01*
X164167088Y-106662982D01*
X164151588Y-106757722D01*
X164044790Y-106731882D01*
X163932823Y-106702602D01*
X163950053Y-106692272D01*
X164031014Y-106625092D01*
X164115424Y-106571692D01*
X164146434Y-106551022D01*
X164177444Y-106532072D01*
X164175744Y-106551022D01*
X164174044Y-106569972D01*
X164173988Y-106569962D01*
X164471989Y-107067778D01*
X164532279Y-107036768D01*
X164585679Y-106990258D01*
X164623579Y-106931688D01*
X164640809Y-106862788D01*
X164628749Y-106831778D01*
X164618419Y-106816278D01*
X164613219Y-106805938D01*
X164608019Y-106799038D01*
X164599419Y-106778368D01*
X164577029Y-106785268D01*
X164556359Y-106783568D01*
X164533969Y-106762898D01*
X164523629Y-106752558D01*
X164513298Y-106743958D01*
X164480569Y-106714678D01*
X164468509Y-106761188D01*
X164437499Y-106818038D01*
X164373759Y-106830098D01*
X164372059Y-106771528D01*
X164384119Y-106725018D01*
X164399619Y-106661288D01*
X164404819Y-106592388D01*
X164404819Y-106566548D01*
X164401419Y-106540708D01*
X164398019Y-106523488D01*
X164377349Y-106516588D01*
X164370449Y-106509688D01*
X164348059Y-106490738D01*
X164310159Y-106487338D01*
X164279149Y-106477008D01*
X164322209Y-106461508D01*
X164339439Y-106454608D01*
X164342839Y-106437378D01*
X164351439Y-106432178D01*
X164360039Y-106430478D01*
X164389319Y-106421878D01*
X164396219Y-106414978D01*
X164401419Y-106408078D01*
X164432429Y-106399478D01*
X164461709Y-106389138D01*
X164506499Y-106373638D01*
X164547839Y-106370238D01*
X164566789Y-106363338D01*
X164584019Y-106344388D01*
X164594349Y-106323718D01*
X164601249Y-106313378D01*
X164604649Y-106304778D01*
X164623599Y-106299578D01*
X164626999Y-106278908D01*
X164632199Y-106251348D01*
X164633899Y-106234118D01*
X164632199Y-106216888D01*
X164608079Y-106187608D01*
X164589129Y-106163488D01*
X164558119Y-106146268D01*
X164539169Y-106142868D01*
X164521939Y-106139468D01*
X164511609Y-106134268D01*
X164490939Y-106111878D01*
X164475439Y-106130828D01*
X164446159Y-106132528D01*
X164277350Y-106204878D01*
X164111985Y-106285838D01*
X164056865Y-106311678D01*
X164001744Y-106339238D01*
X163989684Y-106337538D01*
X163974184Y-106340938D01*
X163922504Y-106371948D01*
X163874274Y-106396068D01*
X163817434Y-106423628D01*
X163760594Y-106461528D01*
X163748535Y-106489088D01*
X163745134Y-106501148D01*
X163741734Y-106516648D01*
X163745134Y-106542488D01*
X163683124Y-106626888D01*
X163584934Y-106700958D01*
X163560824Y-106718188D01*
X163574604Y-106740578D01*
X163584934Y-106764698D01*
X163593534Y-106797428D01*
X163609034Y-106855998D01*
X163634874Y-106900788D01*
X163676214Y-106912848D01*
X163703774Y-106918048D01*
X163762344Y-106926648D01*
X163827804Y-106933548D01*
X163886374Y-106947328D01*
X163943214Y-106959388D01*
X164024175Y-106976608D01*
X164096525Y-106998998D01*
X164098225Y-107016228D01*
X164093025Y-107033448D01*
X164089625Y-107055838D01*
X164087925Y-107074788D01*
X164105155Y-107081688D01*
X164122385Y-107098918D01*
X164132725Y-107131648D01*
X164148225Y-107150598D01*
X164158565Y-107164378D01*
X164168895Y-107190218D01*
X164194735Y-107176438D01*
X164255025Y-107126488D01*
X164301535Y-107055868D01*
X164322205Y-107057568D01*
X164341155Y-107062768D01*
X164401445Y-107071368D01*
X164465175Y-107071368D01*
X164471989Y-107067778D01*
G37*
G36*
X164306624Y-108404476D02*
G01*
X164422035Y-108295955D01*
X164489215Y-108147816D01*
X164535725Y-107977284D01*
X164589125Y-107806751D01*
X164590825Y-107763691D01*
X164596025Y-107729241D01*
X164601225Y-107698231D01*
X164604625Y-107663781D01*
X164608025Y-107655181D01*
X164614925Y-107649981D01*
X164620125Y-107596581D01*
X164620125Y-107558681D01*
X164625325Y-107515621D01*
X164630525Y-107477721D01*
X164539225Y-107274460D01*
X164301513Y-107193500D01*
X164291183Y-107190100D01*
X164285983Y-107183200D01*
X164256703Y-107186600D01*
X164225693Y-107188300D01*
X164049993Y-107289930D01*
X163905298Y-107426011D01*
X163884628Y-107446681D01*
X163863958Y-107462181D01*
X163846728Y-107481131D01*
X163834668Y-107506971D01*
X163758878Y-107593101D01*
X163693418Y-107698176D01*
X163629688Y-107806696D01*
X163557338Y-107906606D01*
X163562538Y-107934166D01*
X163562538Y-107953116D01*
X163598708Y-107985846D01*
X163621098Y-108028906D01*
X163646938Y-108070246D01*
X163688278Y-108099526D01*
X163696878Y-108089186D01*
X163712378Y-108094386D01*
X163727878Y-108096086D01*
X163734778Y-108084026D01*
X163745118Y-108094356D01*
X163753718Y-108104696D01*
X163767498Y-108099496D01*
X163784728Y-108099496D01*
X163827788Y-108021976D01*
X163872578Y-107934126D01*
X163922528Y-107839386D01*
X163982818Y-107744646D01*
X164060339Y-107649906D01*
X164148189Y-107556886D01*
X164244649Y-107472476D01*
X164341109Y-107405296D01*
X164354889Y-107412196D01*
X164366949Y-107420796D01*
X164366949Y-107522426D01*
X164372149Y-107618886D01*
X164361809Y-107625786D01*
X164351469Y-107634386D01*
X164320459Y-107816976D01*
X164273949Y-107989231D01*
X164265349Y-107963391D01*
X164256749Y-107942721D01*
X164242969Y-107942721D01*
X164229189Y-107959951D01*
X164194739Y-107920331D01*
X164139619Y-107903101D01*
X164118949Y-107913431D01*
X164099999Y-107903101D01*
X164099999Y-107894501D01*
X164105199Y-107891101D01*
X164112099Y-107889401D01*
X164110399Y-107880801D01*
X164084559Y-107887701D01*
X164060449Y-107898041D01*
X163981208Y-108016896D01*
X164012219Y-108063406D01*
X164044949Y-108120246D01*
X164077679Y-108182256D01*
X164108689Y-108242546D01*
X164136249Y-108285606D01*
X164172419Y-108321776D01*
X164206869Y-108356226D01*
X164236149Y-108399286D01*
X164272319Y-108400986D01*
X164306769Y-108404386D01*
X164306624Y-108404476D01*
G37*
G36*
X164460296Y-109332777D02*
G01*
X164155481Y-108838561D01*
X164148581Y-108931581D01*
X164133080Y-109026321D01*
X164026283Y-109000481D01*
X163914316Y-108971201D01*
X163931546Y-108960861D01*
X164012507Y-108893681D01*
X164096917Y-108840281D01*
X164127927Y-108819611D01*
X164158937Y-108800661D01*
X164157237Y-108819611D01*
X164155537Y-108838561D01*
X164155481Y-108838561D01*
X164460296Y-109332777D01*
X164520586Y-109301767D01*
X164573986Y-109255257D01*
X164611886Y-109196687D01*
X164629116Y-109127787D01*
X164617056Y-109096777D01*
X164606726Y-109081277D01*
X164601526Y-109070937D01*
X164596326Y-109064037D01*
X164587726Y-109043367D01*
X164565336Y-109050267D01*
X164544666Y-109048567D01*
X164522276Y-109027897D01*
X164511935Y-109017557D01*
X164501606Y-109008957D01*
X164468876Y-108979677D01*
X164456816Y-109026187D01*
X164425806Y-109083037D01*
X164362066Y-109095097D01*
X164360366Y-109036527D01*
X164372426Y-108990017D01*
X164387926Y-108926287D01*
X164393126Y-108857387D01*
X164393126Y-108831547D01*
X164389726Y-108805707D01*
X164386326Y-108788487D01*
X164365656Y-108781587D01*
X164358756Y-108774687D01*
X164336366Y-108755737D01*
X164298466Y-108752337D01*
X164267455Y-108742007D01*
X164310516Y-108726507D01*
X164327746Y-108719607D01*
X164331146Y-108702377D01*
X164339746Y-108697177D01*
X164348346Y-108695477D01*
X164377626Y-108686877D01*
X164384526Y-108679977D01*
X164389726Y-108673077D01*
X164420736Y-108664477D01*
X164450016Y-108654137D01*
X164494806Y-108638637D01*
X164536146Y-108635237D01*
X164555096Y-108628337D01*
X164572326Y-108609387D01*
X164582656Y-108588717D01*
X164589556Y-108578377D01*
X164592956Y-108569777D01*
X164611906Y-108564577D01*
X164615306Y-108543907D01*
X164620506Y-108516347D01*
X164622206Y-108499117D01*
X164620506Y-108481887D01*
X164596386Y-108452607D01*
X164577436Y-108428487D01*
X164546426Y-108411267D01*
X164527475Y-108407867D01*
X164510246Y-108404467D01*
X164499916Y-108399267D01*
X164479246Y-108376877D01*
X164463746Y-108395827D01*
X164434466Y-108397527D01*
X164265657Y-108469877D01*
X164100292Y-108550837D01*
X164045172Y-108576677D01*
X163990051Y-108604237D01*
X163977991Y-108602537D01*
X163962491Y-108605937D01*
X163910811Y-108636947D01*
X163862581Y-108661067D01*
X163805741Y-108688627D01*
X163748902Y-108726527D01*
X163736841Y-108754087D01*
X163733441Y-108766147D01*
X163730041Y-108781647D01*
X163733441Y-108807487D01*
X163671431Y-108891887D01*
X163573241Y-108965957D01*
X163549131Y-108983187D01*
X163562911Y-109005577D01*
X163573241Y-109029697D01*
X163581841Y-109062427D01*
X163597341Y-109120997D01*
X163623181Y-109165787D01*
X163664521Y-109177847D01*
X163692081Y-109183047D01*
X163750651Y-109191647D01*
X163816111Y-109198547D01*
X163874681Y-109212327D01*
X163931521Y-109224387D01*
X164012482Y-109241617D01*
X164084832Y-109264007D01*
X164086532Y-109281237D01*
X164081332Y-109298457D01*
X164077932Y-109320847D01*
X164076232Y-109339797D01*
X164093462Y-109346697D01*
X164110692Y-109363927D01*
X164121032Y-109396657D01*
X164136532Y-109415607D01*
X164146872Y-109429387D01*
X164157202Y-109455227D01*
X164183042Y-109441447D01*
X164243332Y-109391497D01*
X164289842Y-109320877D01*
X164310512Y-109322577D01*
X164329462Y-109327777D01*
X164389752Y-109336377D01*
X164453482Y-109336377D01*
X164460296Y-109332777D01*
G37*
G36*
X148703512Y-112133927D02*
G01*
X148852812Y-112163624D01*
X149016784Y-112231544D01*
X149164354Y-112330147D01*
X149289853Y-112455646D01*
X149388456Y-112603216D01*
X149456376Y-112767188D01*
X149491000Y-112941259D01*
X149491000Y-113118741D01*
X149456376Y-113292812D01*
X149388456Y-113456784D01*
X149289853Y-113604354D01*
X149164354Y-113729853D01*
X149016784Y-113828456D01*
X148852812Y-113896376D01*
X148703512Y-113926073D01*
X148678742Y-113931000D01*
X148501258Y-113931000D01*
X148476488Y-113926073D01*
X148327188Y-113896376D01*
X148163216Y-113828456D01*
X148015646Y-113729853D01*
X147890147Y-113604354D01*
X147791544Y-113456784D01*
X147723624Y-113292812D01*
X147689000Y-113118741D01*
X147689000Y-112941259D01*
X147723624Y-112767188D01*
X147791544Y-112603216D01*
X147890147Y-112455646D01*
X148015646Y-112330147D01*
X148163216Y-112231544D01*
X148327188Y-112163624D01*
X148476488Y-112133927D01*
X148501258Y-112129000D01*
X148678742Y-112129000D01*
X148703512Y-112133927D01*
G37*
G36*
X166483512Y-112133927D02*
G01*
X166632812Y-112163624D01*
X166796784Y-112231544D01*
X166944354Y-112330147D01*
X167069853Y-112455646D01*
X167168456Y-112603216D01*
X167236376Y-112767188D01*
X167271000Y-112941259D01*
X167271000Y-113118741D01*
X167236376Y-113292812D01*
X167168456Y-113456784D01*
X167069853Y-113604354D01*
X166944354Y-113729853D01*
X166796784Y-113828456D01*
X166632812Y-113896376D01*
X166483512Y-113926073D01*
X166458742Y-113931000D01*
X166281258Y-113931000D01*
X166256488Y-113926073D01*
X166107188Y-113896376D01*
X165943216Y-113828456D01*
X165795646Y-113729853D01*
X165670147Y-113604354D01*
X165571544Y-113456784D01*
X165503624Y-113292812D01*
X165469000Y-113118741D01*
X165469000Y-112941259D01*
X165503624Y-112767188D01*
X165571544Y-112603216D01*
X165670147Y-112455646D01*
X165795646Y-112330147D01*
X165943216Y-112231544D01*
X166107188Y-112163624D01*
X166256488Y-112133927D01*
X166281258Y-112129000D01*
X166458742Y-112129000D01*
X166483512Y-112133927D01*
G37*
G36*
X148703512Y-109593927D02*
G01*
X148852812Y-109623624D01*
X149016784Y-109691544D01*
X149164354Y-109790147D01*
X149289853Y-109915646D01*
X149388456Y-110063216D01*
X149456376Y-110227188D01*
X149491000Y-110401259D01*
X149491000Y-110578741D01*
X149456376Y-110752812D01*
X149388456Y-110916784D01*
X149289853Y-111064354D01*
X149164354Y-111189853D01*
X149016784Y-111288456D01*
X148852812Y-111356376D01*
X148703512Y-111386073D01*
X148678742Y-111391000D01*
X148501258Y-111391000D01*
X148476488Y-111386073D01*
X148327188Y-111356376D01*
X148163216Y-111288456D01*
X148015646Y-111189853D01*
X147890147Y-111064354D01*
X147791544Y-110916784D01*
X147723624Y-110752812D01*
X147689000Y-110578741D01*
X147689000Y-110401259D01*
X147723624Y-110227188D01*
X147791544Y-110063216D01*
X147890147Y-109915646D01*
X148015646Y-109790147D01*
X148163216Y-109691544D01*
X148327188Y-109623624D01*
X148476488Y-109593927D01*
X148501258Y-109589000D01*
X148678742Y-109589000D01*
X148703512Y-109593927D01*
G37*
G36*
X166483512Y-109593927D02*
G01*
X166632812Y-109623624D01*
X166796784Y-109691544D01*
X166944354Y-109790147D01*
X167069853Y-109915646D01*
X167168456Y-110063216D01*
X167236376Y-110227188D01*
X167271000Y-110401259D01*
X167271000Y-110578741D01*
X167236376Y-110752812D01*
X167168456Y-110916784D01*
X167069853Y-111064354D01*
X166944354Y-111189853D01*
X166796784Y-111288456D01*
X166632812Y-111356376D01*
X166483512Y-111386073D01*
X166458742Y-111391000D01*
X166281258Y-111391000D01*
X166256488Y-111386073D01*
X166107188Y-111356376D01*
X165943216Y-111288456D01*
X165795646Y-111189853D01*
X165670147Y-111064354D01*
X165571544Y-110916784D01*
X165503624Y-110752812D01*
X165469000Y-110578741D01*
X165469000Y-110401259D01*
X165503624Y-110227188D01*
X165571544Y-110063216D01*
X165670147Y-109915646D01*
X165795646Y-109790147D01*
X165943216Y-109691544D01*
X166107188Y-109623624D01*
X166256488Y-109593927D01*
X166281258Y-109589000D01*
X166458742Y-109589000D01*
X166483512Y-109593927D01*
G37*
G36*
X166483512Y-107053927D02*
G01*
X166632812Y-107083624D01*
X166796784Y-107151544D01*
X166944354Y-107250147D01*
X167069853Y-107375646D01*
X167168456Y-107523216D01*
X167236376Y-107687188D01*
X167271000Y-107861259D01*
X167271000Y-108038741D01*
X167236376Y-108212812D01*
X167168456Y-108376784D01*
X167069853Y-108524354D01*
X166944354Y-108649853D01*
X166796784Y-108748456D01*
X166632812Y-108816376D01*
X166483512Y-108846073D01*
X166458742Y-108851000D01*
X166281258Y-108851000D01*
X166256488Y-108846073D01*
X166107188Y-108816376D01*
X165943216Y-108748456D01*
X165795646Y-108649853D01*
X165670147Y-108524354D01*
X165571544Y-108376784D01*
X165503624Y-108212812D01*
X165469000Y-108038741D01*
X165469000Y-107861259D01*
X165503624Y-107687188D01*
X165571544Y-107523216D01*
X165670147Y-107375646D01*
X165795646Y-107250147D01*
X165943216Y-107151544D01*
X166107188Y-107083624D01*
X166256488Y-107053927D01*
X166281258Y-107049000D01*
X166458742Y-107049000D01*
X166483512Y-107053927D01*
G37*
G36*
X148703512Y-107053927D02*
G01*
X148852812Y-107083624D01*
X149016784Y-107151544D01*
X149164354Y-107250147D01*
X149289853Y-107375646D01*
X149388456Y-107523216D01*
X149456376Y-107687188D01*
X149491000Y-107861259D01*
X149491000Y-108038741D01*
X149456376Y-108212812D01*
X149388456Y-108376784D01*
X149289853Y-108524354D01*
X149164354Y-108649853D01*
X149016784Y-108748456D01*
X148852812Y-108816376D01*
X148703512Y-108846073D01*
X148678742Y-108851000D01*
X148501258Y-108851000D01*
X148476488Y-108846073D01*
X148327188Y-108816376D01*
X148163216Y-108748456D01*
X148015646Y-108649853D01*
X147890147Y-108524354D01*
X147791544Y-108376784D01*
X147723624Y-108212812D01*
X147689000Y-108038741D01*
X147689000Y-107861259D01*
X147723624Y-107687188D01*
X147791544Y-107523216D01*
X147890147Y-107375646D01*
X148015646Y-107250147D01*
X148163216Y-107151544D01*
X148327188Y-107083624D01*
X148476488Y-107053927D01*
X148501258Y-107049000D01*
X148678742Y-107049000D01*
X148703512Y-107053927D01*
G37*
G36*
X148703512Y-104513927D02*
G01*
X148852812Y-104543624D01*
X149016784Y-104611544D01*
X149164354Y-104710147D01*
X149289853Y-104835646D01*
X149388456Y-104983216D01*
X149456376Y-105147188D01*
X149491000Y-105321259D01*
X149491000Y-105498741D01*
X149456376Y-105672812D01*
X149388456Y-105836784D01*
X149289853Y-105984354D01*
X149164354Y-106109853D01*
X149016784Y-106208456D01*
X148852812Y-106276376D01*
X148703512Y-106306073D01*
X148678742Y-106311000D01*
X148501258Y-106311000D01*
X148476488Y-106306073D01*
X148327188Y-106276376D01*
X148163216Y-106208456D01*
X148015646Y-106109853D01*
X147890147Y-105984354D01*
X147791544Y-105836784D01*
X147723624Y-105672812D01*
X147689000Y-105498741D01*
X147689000Y-105321259D01*
X147723624Y-105147188D01*
X147791544Y-104983216D01*
X147890147Y-104835646D01*
X148015646Y-104710147D01*
X148163216Y-104611544D01*
X148327188Y-104543624D01*
X148476488Y-104513927D01*
X148501258Y-104509000D01*
X148678742Y-104509000D01*
X148703512Y-104513927D01*
G37*
G36*
X166483512Y-104513927D02*
G01*
X166632812Y-104543624D01*
X166796784Y-104611544D01*
X166944354Y-104710147D01*
X167069853Y-104835646D01*
X167168456Y-104983216D01*
X167236376Y-105147188D01*
X167271000Y-105321259D01*
X167271000Y-105498741D01*
X167236376Y-105672812D01*
X167168456Y-105836784D01*
X167069853Y-105984354D01*
X166944354Y-106109853D01*
X166796784Y-106208456D01*
X166632812Y-106276376D01*
X166483512Y-106306073D01*
X166458742Y-106311000D01*
X166281258Y-106311000D01*
X166256488Y-106306073D01*
X166107188Y-106276376D01*
X165943216Y-106208456D01*
X165795646Y-106109853D01*
X165670147Y-105984354D01*
X165571544Y-105836784D01*
X165503624Y-105672812D01*
X165469000Y-105498741D01*
X165469000Y-105321259D01*
X165503624Y-105147188D01*
X165571544Y-104983216D01*
X165670147Y-104835646D01*
X165795646Y-104710147D01*
X165943216Y-104611544D01*
X166107188Y-104543624D01*
X166256488Y-104513927D01*
X166281258Y-104509000D01*
X166458742Y-104509000D01*
X166483512Y-104513927D01*
G37*
G36*
X148703512Y-101973927D02*
G01*
X148852812Y-102003624D01*
X149016784Y-102071544D01*
X149164354Y-102170147D01*
X149289853Y-102295646D01*
X149388456Y-102443216D01*
X149456376Y-102607188D01*
X149491000Y-102781259D01*
X149491000Y-102958741D01*
X149456376Y-103132812D01*
X149388456Y-103296784D01*
X149289853Y-103444354D01*
X149164354Y-103569853D01*
X149016784Y-103668456D01*
X148852812Y-103736376D01*
X148703512Y-103766073D01*
X148678742Y-103771000D01*
X148501258Y-103771000D01*
X148476488Y-103766073D01*
X148327188Y-103736376D01*
X148163216Y-103668456D01*
X148015646Y-103569853D01*
X147890147Y-103444354D01*
X147791544Y-103296784D01*
X147723624Y-103132812D01*
X147689000Y-102958741D01*
X147689000Y-102781259D01*
X147723624Y-102607188D01*
X147791544Y-102443216D01*
X147890147Y-102295646D01*
X148015646Y-102170147D01*
X148163216Y-102071544D01*
X148327188Y-102003624D01*
X148476488Y-101973927D01*
X148501258Y-101969000D01*
X148678742Y-101969000D01*
X148703512Y-101973927D01*
G37*
G36*
X166483512Y-101973927D02*
G01*
X166632812Y-102003624D01*
X166796784Y-102071544D01*
X166944354Y-102170147D01*
X167069853Y-102295646D01*
X167168456Y-102443216D01*
X167236376Y-102607188D01*
X167271000Y-102781259D01*
X167271000Y-102958741D01*
X167236376Y-103132812D01*
X167168456Y-103296784D01*
X167069853Y-103444354D01*
X166944354Y-103569853D01*
X166796784Y-103668456D01*
X166632812Y-103736376D01*
X166483512Y-103766073D01*
X166458742Y-103771000D01*
X166281258Y-103771000D01*
X166256488Y-103766073D01*
X166107188Y-103736376D01*
X165943216Y-103668456D01*
X165795646Y-103569853D01*
X165670147Y-103444354D01*
X165571544Y-103296784D01*
X165503624Y-103132812D01*
X165469000Y-102958741D01*
X165469000Y-102781259D01*
X165503624Y-102607188D01*
X165571544Y-102443216D01*
X165670147Y-102295646D01*
X165795646Y-102170147D01*
X165943216Y-102071544D01*
X166107188Y-102003624D01*
X166256488Y-101973927D01*
X166281258Y-101969000D01*
X166458742Y-101969000D01*
X166483512Y-101973927D01*
G37*
G36*
X148703512Y-99433927D02*
G01*
X148852812Y-99463624D01*
X149016784Y-99531544D01*
X149164354Y-99630147D01*
X149289853Y-99755646D01*
X149388456Y-99903216D01*
X149456376Y-100067188D01*
X149491000Y-100241259D01*
X149491000Y-100418741D01*
X149456376Y-100592812D01*
X149388456Y-100756784D01*
X149289853Y-100904354D01*
X149164354Y-101029853D01*
X149016784Y-101128456D01*
X148852812Y-101196376D01*
X148703512Y-101226073D01*
X148678742Y-101231000D01*
X148501258Y-101231000D01*
X148476488Y-101226073D01*
X148327188Y-101196376D01*
X148163216Y-101128456D01*
X148015646Y-101029853D01*
X147890147Y-100904354D01*
X147791544Y-100756784D01*
X147723624Y-100592812D01*
X147689000Y-100418741D01*
X147689000Y-100241259D01*
X147723624Y-100067188D01*
X147791544Y-99903216D01*
X147890147Y-99755646D01*
X148015646Y-99630147D01*
X148163216Y-99531544D01*
X148327188Y-99463624D01*
X148476488Y-99433927D01*
X148501258Y-99429000D01*
X148678742Y-99429000D01*
X148703512Y-99433927D01*
G37*
G36*
X166483512Y-99433927D02*
G01*
X166632812Y-99463624D01*
X166796784Y-99531544D01*
X166944354Y-99630147D01*
X167069853Y-99755646D01*
X167168456Y-99903216D01*
X167236376Y-100067188D01*
X167271000Y-100241259D01*
X167271000Y-100418741D01*
X167236376Y-100592812D01*
X167168456Y-100756784D01*
X167069853Y-100904354D01*
X166944354Y-101029853D01*
X166796784Y-101128456D01*
X166632812Y-101196376D01*
X166483512Y-101226073D01*
X166458742Y-101231000D01*
X166281258Y-101231000D01*
X166256488Y-101226073D01*
X166107188Y-101196376D01*
X165943216Y-101128456D01*
X165795646Y-101029853D01*
X165670147Y-100904354D01*
X165571544Y-100756784D01*
X165503624Y-100592812D01*
X165469000Y-100418741D01*
X165469000Y-100241259D01*
X165503624Y-100067188D01*
X165571544Y-99903216D01*
X165670147Y-99755646D01*
X165795646Y-99630147D01*
X165943216Y-99531544D01*
X166107188Y-99463624D01*
X166256488Y-99433927D01*
X166281258Y-99429000D01*
X166458742Y-99429000D01*
X166483512Y-99433927D01*
G37*
G36*
X166483512Y-96893927D02*
G01*
X166632812Y-96923624D01*
X166796784Y-96991544D01*
X166944354Y-97090147D01*
X167069853Y-97215646D01*
X167168456Y-97363216D01*
X167236376Y-97527188D01*
X167271000Y-97701259D01*
X167271000Y-97878741D01*
X167236376Y-98052812D01*
X167168456Y-98216784D01*
X167069853Y-98364354D01*
X166944354Y-98489853D01*
X166796784Y-98588456D01*
X166632812Y-98656376D01*
X166483512Y-98686073D01*
X166458742Y-98691000D01*
X166281258Y-98691000D01*
X166256488Y-98686073D01*
X166107188Y-98656376D01*
X165943216Y-98588456D01*
X165795646Y-98489853D01*
X165670147Y-98364354D01*
X165571544Y-98216784D01*
X165503624Y-98052812D01*
X165469000Y-97878741D01*
X165469000Y-97701259D01*
X165503624Y-97527188D01*
X165571544Y-97363216D01*
X165670147Y-97215646D01*
X165795646Y-97090147D01*
X165943216Y-96991544D01*
X166107188Y-96923624D01*
X166256488Y-96893927D01*
X166281258Y-96889000D01*
X166458742Y-96889000D01*
X166483512Y-96893927D01*
G37*
G36*
X148703512Y-96893927D02*
G01*
X148852812Y-96923624D01*
X149016784Y-96991544D01*
X149164354Y-97090147D01*
X149289853Y-97215646D01*
X149388456Y-97363216D01*
X149456376Y-97527188D01*
X149491000Y-97701259D01*
X149491000Y-97878741D01*
X149456376Y-98052812D01*
X149388456Y-98216784D01*
X149289853Y-98364354D01*
X149164354Y-98489853D01*
X149016784Y-98588456D01*
X148852812Y-98656376D01*
X148703512Y-98686073D01*
X148678742Y-98691000D01*
X148501258Y-98691000D01*
X148476488Y-98686073D01*
X148327188Y-98656376D01*
X148163216Y-98588456D01*
X148015646Y-98489853D01*
X147890147Y-98364354D01*
X147791544Y-98216784D01*
X147723624Y-98052812D01*
X147689000Y-97878741D01*
X147689000Y-97701259D01*
X147723624Y-97527188D01*
X147791544Y-97363216D01*
X147890147Y-97215646D01*
X148015646Y-97090147D01*
X148163216Y-96991544D01*
X148327188Y-96923624D01*
X148476488Y-96893927D01*
X148501258Y-96889000D01*
X148678742Y-96889000D01*
X148703512Y-96893927D01*
G37*
M02*
