G04 #@! TF.GenerationSoftware,KiCad,Pcbnew,5.1.5-52549c5~84~ubuntu18.04.1*
G04 #@! TF.CreationDate,2019-12-24T12:24:14-07:00*
G04 #@! TF.ProjectId,001,3030312e-6b69-4636-9164-5f7063625858,rev?*
G04 #@! TF.SameCoordinates,Original*
G04 #@! TF.FileFunction,Copper,L1,Top*
G04 #@! TF.FilePolarity,Positive*
%FSLAX46Y46*%
G04 Gerber Fmt 4.6, Leading zero omitted, Abs format (unit mm)*
G04 Created by KiCad (PCBNEW 5.1.5-52549c5~84~ubuntu18.04.1) date 2019-12-24 12:24:14*
%MOMM*%
%LPD*%
G04 APERTURE LIST*
%ADD10C,0.010000*%
%ADD11C,0.100000*%
%ADD12O,1.700000X1.700000*%
%ADD13C,1.700000*%
%ADD14R,1.525000X0.700000*%
G04 APERTURE END LIST*
D10*
G36*
X158741649Y-97687009D02*
G01*
X158917279Y-97752851D01*
X159074136Y-97850801D01*
X159128128Y-97897039D01*
X159231189Y-98009904D01*
X159293699Y-98118498D01*
X159316928Y-98225105D01*
X159317140Y-98236832D01*
X159314876Y-98277310D01*
X159308523Y-98354066D01*
X159298638Y-98461298D01*
X159285781Y-98593208D01*
X159270510Y-98743995D01*
X159253383Y-98907859D01*
X159244552Y-98990526D01*
X159172090Y-99664002D01*
X159233647Y-100355776D01*
X159252784Y-100572636D01*
X159268047Y-100751473D01*
X159279541Y-100896410D01*
X159287372Y-101011569D01*
X159291649Y-101101074D01*
X159292476Y-101169045D01*
X159289960Y-101219608D01*
X159284209Y-101256883D01*
X159275328Y-101284994D01*
X159263425Y-101308063D01*
X159258457Y-101315872D01*
X159181532Y-101398574D01*
X159070414Y-101471527D01*
X158932486Y-101532953D01*
X158775131Y-101581074D01*
X158605732Y-101614112D01*
X158431671Y-101630289D01*
X158260333Y-101627827D01*
X158099098Y-101604948D01*
X158078152Y-101600111D01*
X157950145Y-101557080D01*
X157839382Y-101496818D01*
X157756494Y-101425570D01*
X157735878Y-101398962D01*
X157719949Y-101373543D01*
X157707376Y-101346744D01*
X157698266Y-101314492D01*
X157692724Y-101272713D01*
X157690858Y-101217332D01*
X157692774Y-101144275D01*
X157698577Y-101049470D01*
X157708376Y-100928841D01*
X157722275Y-100778315D01*
X157740382Y-100593819D01*
X157762702Y-100372270D01*
X157837970Y-99629384D01*
X157758567Y-98897138D01*
X157737477Y-98701830D01*
X157720794Y-98543932D01*
X157708269Y-98418779D01*
X157699658Y-98321704D01*
X157694713Y-98248041D01*
X157693186Y-98193123D01*
X157694832Y-98152285D01*
X157699403Y-98120860D01*
X157706652Y-98094182D01*
X157714879Y-98071375D01*
X157785868Y-97939359D01*
X157889566Y-97832170D01*
X157998055Y-97762229D01*
X158175446Y-97690887D01*
X158363398Y-97655152D01*
X158554577Y-97654151D01*
X158741649Y-97687009D01*
G37*
X158741649Y-97687009D02*
X158917279Y-97752851D01*
X159074136Y-97850801D01*
X159128128Y-97897039D01*
X159231189Y-98009904D01*
X159293699Y-98118498D01*
X159316928Y-98225105D01*
X159317140Y-98236832D01*
X159314876Y-98277310D01*
X159308523Y-98354066D01*
X159298638Y-98461298D01*
X159285781Y-98593208D01*
X159270510Y-98743995D01*
X159253383Y-98907859D01*
X159244552Y-98990526D01*
X159172090Y-99664002D01*
X159233647Y-100355776D01*
X159252784Y-100572636D01*
X159268047Y-100751473D01*
X159279541Y-100896410D01*
X159287372Y-101011569D01*
X159291649Y-101101074D01*
X159292476Y-101169045D01*
X159289960Y-101219608D01*
X159284209Y-101256883D01*
X159275328Y-101284994D01*
X159263425Y-101308063D01*
X159258457Y-101315872D01*
X159181532Y-101398574D01*
X159070414Y-101471527D01*
X158932486Y-101532953D01*
X158775131Y-101581074D01*
X158605732Y-101614112D01*
X158431671Y-101630289D01*
X158260333Y-101627827D01*
X158099098Y-101604948D01*
X158078152Y-101600111D01*
X157950145Y-101557080D01*
X157839382Y-101496818D01*
X157756494Y-101425570D01*
X157735878Y-101398962D01*
X157719949Y-101373543D01*
X157707376Y-101346744D01*
X157698266Y-101314492D01*
X157692724Y-101272713D01*
X157690858Y-101217332D01*
X157692774Y-101144275D01*
X157698577Y-101049470D01*
X157708376Y-100928841D01*
X157722275Y-100778315D01*
X157740382Y-100593819D01*
X157762702Y-100372270D01*
X157837970Y-99629384D01*
X157758567Y-98897138D01*
X157737477Y-98701830D01*
X157720794Y-98543932D01*
X157708269Y-98418779D01*
X157699658Y-98321704D01*
X157694713Y-98248041D01*
X157693186Y-98193123D01*
X157694832Y-98152285D01*
X157699403Y-98120860D01*
X157706652Y-98094182D01*
X157714879Y-98071375D01*
X157785868Y-97939359D01*
X157889566Y-97832170D01*
X157998055Y-97762229D01*
X158175446Y-97690887D01*
X158363398Y-97655152D01*
X158554577Y-97654151D01*
X158741649Y-97687009D01*
G36*
X156552173Y-97697566D02*
G01*
X156722768Y-97746504D01*
X156787283Y-97773928D01*
X156921963Y-97850700D01*
X157035765Y-97942832D01*
X157123559Y-98044375D01*
X157180213Y-98149380D01*
X157200597Y-98251896D01*
X157200600Y-98253184D01*
X157198370Y-98295249D01*
X157192050Y-98373540D01*
X157182198Y-98482208D01*
X157169369Y-98615402D01*
X157154119Y-98767270D01*
X157137006Y-98931963D01*
X157128027Y-99016332D01*
X157055453Y-99692884D01*
X157117104Y-100391384D01*
X157135808Y-100604626D01*
X157150772Y-100779939D01*
X157162132Y-100921549D01*
X157170028Y-101033681D01*
X157174594Y-101120563D01*
X157175969Y-101186419D01*
X157174289Y-101235476D01*
X157169691Y-101271960D01*
X157162313Y-101300097D01*
X157152292Y-101324113D01*
X157147656Y-101333353D01*
X157091679Y-101403215D01*
X156999164Y-101471896D01*
X156875833Y-101535732D01*
X156763853Y-101579147D01*
X156682433Y-101604570D01*
X156606249Y-101621946D01*
X156522563Y-101633122D01*
X156418638Y-101639949D01*
X156322184Y-101643261D01*
X156179517Y-101644928D01*
X156069778Y-101640803D01*
X155983880Y-101630303D01*
X155930600Y-101618165D01*
X155784902Y-101562666D01*
X155676657Y-101488109D01*
X155606081Y-101394725D01*
X155573389Y-101282740D01*
X155570936Y-101238050D01*
X155573081Y-101192023D01*
X155579169Y-101109650D01*
X155588684Y-100996687D01*
X155601110Y-100858887D01*
X155615934Y-100702002D01*
X155632640Y-100531787D01*
X155645775Y-100401967D01*
X155720602Y-99671717D01*
X155641659Y-98928602D01*
X155620838Y-98731927D01*
X155604313Y-98572702D01*
X155591854Y-98446288D01*
X155583228Y-98348046D01*
X155578206Y-98273334D01*
X155576556Y-98217515D01*
X155578046Y-98175947D01*
X155582446Y-98143992D01*
X155589523Y-98117009D01*
X155599048Y-98090358D01*
X155599785Y-98088424D01*
X155668636Y-97964944D01*
X155769721Y-97861408D01*
X155897142Y-97779377D01*
X156044997Y-97720415D01*
X156207387Y-97686085D01*
X156378412Y-97677947D01*
X156552173Y-97697566D01*
G37*
X156552173Y-97697566D02*
X156722768Y-97746504D01*
X156787283Y-97773928D01*
X156921963Y-97850700D01*
X157035765Y-97942832D01*
X157123559Y-98044375D01*
X157180213Y-98149380D01*
X157200597Y-98251896D01*
X157200600Y-98253184D01*
X157198370Y-98295249D01*
X157192050Y-98373540D01*
X157182198Y-98482208D01*
X157169369Y-98615402D01*
X157154119Y-98767270D01*
X157137006Y-98931963D01*
X157128027Y-99016332D01*
X157055453Y-99692884D01*
X157117104Y-100391384D01*
X157135808Y-100604626D01*
X157150772Y-100779939D01*
X157162132Y-100921549D01*
X157170028Y-101033681D01*
X157174594Y-101120563D01*
X157175969Y-101186419D01*
X157174289Y-101235476D01*
X157169691Y-101271960D01*
X157162313Y-101300097D01*
X157152292Y-101324113D01*
X157147656Y-101333353D01*
X157091679Y-101403215D01*
X156999164Y-101471896D01*
X156875833Y-101535732D01*
X156763853Y-101579147D01*
X156682433Y-101604570D01*
X156606249Y-101621946D01*
X156522563Y-101633122D01*
X156418638Y-101639949D01*
X156322184Y-101643261D01*
X156179517Y-101644928D01*
X156069778Y-101640803D01*
X155983880Y-101630303D01*
X155930600Y-101618165D01*
X155784902Y-101562666D01*
X155676657Y-101488109D01*
X155606081Y-101394725D01*
X155573389Y-101282740D01*
X155570936Y-101238050D01*
X155573081Y-101192023D01*
X155579169Y-101109650D01*
X155588684Y-100996687D01*
X155601110Y-100858887D01*
X155615934Y-100702002D01*
X155632640Y-100531787D01*
X155645775Y-100401967D01*
X155720602Y-99671717D01*
X155641659Y-98928602D01*
X155620838Y-98731927D01*
X155604313Y-98572702D01*
X155591854Y-98446288D01*
X155583228Y-98348046D01*
X155578206Y-98273334D01*
X155576556Y-98217515D01*
X155578046Y-98175947D01*
X155582446Y-98143992D01*
X155589523Y-98117009D01*
X155599048Y-98090358D01*
X155599785Y-98088424D01*
X155668636Y-97964944D01*
X155769721Y-97861408D01*
X155897142Y-97779377D01*
X156044997Y-97720415D01*
X156207387Y-97686085D01*
X156378412Y-97677947D01*
X156552173Y-97697566D01*
G36*
X166453652Y-96980934D02*
G01*
X166623657Y-97017383D01*
X166777516Y-97090268D01*
X166918849Y-97199836D01*
X167028410Y-97326012D01*
X167100815Y-97467135D01*
X167138839Y-97629271D01*
X167144601Y-97693171D01*
X167139305Y-97870480D01*
X167100135Y-98036238D01*
X167024459Y-98198913D01*
X166953032Y-98308985D01*
X166841459Y-98464796D01*
X166651238Y-98530349D01*
X166302966Y-98672047D01*
X165958370Y-98855785D01*
X165617684Y-99081408D01*
X165281141Y-99348763D01*
X164968015Y-99638745D01*
X164678515Y-99925717D01*
X164496699Y-100296134D01*
X164439351Y-100413697D01*
X164385799Y-100525320D01*
X164334160Y-100635340D01*
X164282552Y-100748098D01*
X164229091Y-100867934D01*
X164171896Y-100999186D01*
X164109083Y-101146195D01*
X164038770Y-101313299D01*
X163959074Y-101504840D01*
X163868113Y-101725155D01*
X163764004Y-101978586D01*
X163716170Y-102095300D01*
X163567609Y-102457257D01*
X163433183Y-102782924D01*
X163311411Y-103075357D01*
X163200810Y-103337613D01*
X163099900Y-103572750D01*
X163007200Y-103783826D01*
X162921229Y-103973896D01*
X162840506Y-104146020D01*
X162763549Y-104303253D01*
X162688877Y-104448653D01*
X162615010Y-104585278D01*
X162540465Y-104716183D01*
X162463763Y-104844428D01*
X162383422Y-104973069D01*
X162297960Y-105105163D01*
X162205897Y-105243767D01*
X162152362Y-105323217D01*
X161970025Y-105580769D01*
X161799028Y-105797551D01*
X161639376Y-105973557D01*
X161524674Y-106080867D01*
X161446241Y-106146090D01*
X161376062Y-106198092D01*
X161307280Y-106239244D01*
X161233039Y-106271920D01*
X161146481Y-106298493D01*
X161040751Y-106321335D01*
X160908991Y-106342820D01*
X160744346Y-106365321D01*
X160678234Y-106373805D01*
X160531592Y-106392648D01*
X160391100Y-106411069D01*
X160264933Y-106427968D01*
X160161268Y-106442245D01*
X160088282Y-106452799D01*
X160070079Y-106455639D01*
X159966112Y-106470490D01*
X159892043Y-106474555D01*
X159836582Y-106466841D01*
X159788442Y-106446358D01*
X159759605Y-106428356D01*
X159705039Y-106379419D01*
X159652058Y-106313046D01*
X159634966Y-106285481D01*
X159607784Y-106230127D01*
X159591850Y-106175302D01*
X159584450Y-106106714D01*
X159582865Y-106011134D01*
X159592848Y-105867129D01*
X159623468Y-105753797D01*
X159677393Y-105663477D01*
X159719367Y-105619550D01*
X159733814Y-105606966D01*
X159749350Y-105596945D01*
X159770358Y-105589369D01*
X159801219Y-105584121D01*
X159846318Y-105581081D01*
X159910036Y-105580131D01*
X159996757Y-105581153D01*
X160110863Y-105584028D01*
X160256737Y-105588638D01*
X160438761Y-105594864D01*
X160523767Y-105597819D01*
X161000017Y-105614380D01*
X161128553Y-105519232D01*
X161232053Y-105430271D01*
X161351287Y-105305671D01*
X161484026Y-105148125D01*
X161628042Y-104960327D01*
X161781108Y-104744970D01*
X161837197Y-104662408D01*
X161932245Y-104518418D01*
X162016774Y-104383858D01*
X162092532Y-104254254D01*
X162161267Y-104125136D01*
X162224729Y-103992032D01*
X162284664Y-103850470D01*
X162342822Y-103695978D01*
X162400950Y-103524085D01*
X162460797Y-103330320D01*
X162524110Y-103110210D01*
X162592638Y-102859285D01*
X162668130Y-102573072D01*
X162696007Y-102465717D01*
X162795423Y-102083489D01*
X162886044Y-101739518D01*
X162968892Y-101430881D01*
X163044989Y-101154656D01*
X163115356Y-100907920D01*
X163181016Y-100687751D01*
X163242989Y-100491226D01*
X163302298Y-100315422D01*
X163359964Y-100157417D01*
X163417009Y-100014289D01*
X163474455Y-99883114D01*
X163533323Y-99760970D01*
X163594635Y-99644935D01*
X163659412Y-99532086D01*
X163728678Y-99419501D01*
X163798723Y-99311403D01*
X164002509Y-99021510D01*
X164238348Y-98720317D01*
X164507702Y-98406133D01*
X164812032Y-98077264D01*
X165152798Y-97732018D01*
X165214568Y-97671467D01*
X165378723Y-97512039D01*
X165517233Y-97380016D01*
X165634205Y-97272684D01*
X165733742Y-97187331D01*
X165819952Y-97121244D01*
X165896938Y-97071710D01*
X165968808Y-97036016D01*
X166039665Y-97011450D01*
X166113617Y-96995298D01*
X166194767Y-96984848D01*
X166262264Y-96979161D01*
X166453652Y-96980934D01*
G37*
X166453652Y-96980934D02*
X166623657Y-97017383D01*
X166777516Y-97090268D01*
X166918849Y-97199836D01*
X167028410Y-97326012D01*
X167100815Y-97467135D01*
X167138839Y-97629271D01*
X167144601Y-97693171D01*
X167139305Y-97870480D01*
X167100135Y-98036238D01*
X167024459Y-98198913D01*
X166953032Y-98308985D01*
X166841459Y-98464796D01*
X166651238Y-98530349D01*
X166302966Y-98672047D01*
X165958370Y-98855785D01*
X165617684Y-99081408D01*
X165281141Y-99348763D01*
X164968015Y-99638745D01*
X164678515Y-99925717D01*
X164496699Y-100296134D01*
X164439351Y-100413697D01*
X164385799Y-100525320D01*
X164334160Y-100635340D01*
X164282552Y-100748098D01*
X164229091Y-100867934D01*
X164171896Y-100999186D01*
X164109083Y-101146195D01*
X164038770Y-101313299D01*
X163959074Y-101504840D01*
X163868113Y-101725155D01*
X163764004Y-101978586D01*
X163716170Y-102095300D01*
X163567609Y-102457257D01*
X163433183Y-102782924D01*
X163311411Y-103075357D01*
X163200810Y-103337613D01*
X163099900Y-103572750D01*
X163007200Y-103783826D01*
X162921229Y-103973896D01*
X162840506Y-104146020D01*
X162763549Y-104303253D01*
X162688877Y-104448653D01*
X162615010Y-104585278D01*
X162540465Y-104716183D01*
X162463763Y-104844428D01*
X162383422Y-104973069D01*
X162297960Y-105105163D01*
X162205897Y-105243767D01*
X162152362Y-105323217D01*
X161970025Y-105580769D01*
X161799028Y-105797551D01*
X161639376Y-105973557D01*
X161524674Y-106080867D01*
X161446241Y-106146090D01*
X161376062Y-106198092D01*
X161307280Y-106239244D01*
X161233039Y-106271920D01*
X161146481Y-106298493D01*
X161040751Y-106321335D01*
X160908991Y-106342820D01*
X160744346Y-106365321D01*
X160678234Y-106373805D01*
X160531592Y-106392648D01*
X160391100Y-106411069D01*
X160264933Y-106427968D01*
X160161268Y-106442245D01*
X160088282Y-106452799D01*
X160070079Y-106455639D01*
X159966112Y-106470490D01*
X159892043Y-106474555D01*
X159836582Y-106466841D01*
X159788442Y-106446358D01*
X159759605Y-106428356D01*
X159705039Y-106379419D01*
X159652058Y-106313046D01*
X159634966Y-106285481D01*
X159607784Y-106230127D01*
X159591850Y-106175302D01*
X159584450Y-106106714D01*
X159582865Y-106011134D01*
X159592848Y-105867129D01*
X159623468Y-105753797D01*
X159677393Y-105663477D01*
X159719367Y-105619550D01*
X159733814Y-105606966D01*
X159749350Y-105596945D01*
X159770358Y-105589369D01*
X159801219Y-105584121D01*
X159846318Y-105581081D01*
X159910036Y-105580131D01*
X159996757Y-105581153D01*
X160110863Y-105584028D01*
X160256737Y-105588638D01*
X160438761Y-105594864D01*
X160523767Y-105597819D01*
X161000017Y-105614380D01*
X161128553Y-105519232D01*
X161232053Y-105430271D01*
X161351287Y-105305671D01*
X161484026Y-105148125D01*
X161628042Y-104960327D01*
X161781108Y-104744970D01*
X161837197Y-104662408D01*
X161932245Y-104518418D01*
X162016774Y-104383858D01*
X162092532Y-104254254D01*
X162161267Y-104125136D01*
X162224729Y-103992032D01*
X162284664Y-103850470D01*
X162342822Y-103695978D01*
X162400950Y-103524085D01*
X162460797Y-103330320D01*
X162524110Y-103110210D01*
X162592638Y-102859285D01*
X162668130Y-102573072D01*
X162696007Y-102465717D01*
X162795423Y-102083489D01*
X162886044Y-101739518D01*
X162968892Y-101430881D01*
X163044989Y-101154656D01*
X163115356Y-100907920D01*
X163181016Y-100687751D01*
X163242989Y-100491226D01*
X163302298Y-100315422D01*
X163359964Y-100157417D01*
X163417009Y-100014289D01*
X163474455Y-99883114D01*
X163533323Y-99760970D01*
X163594635Y-99644935D01*
X163659412Y-99532086D01*
X163728678Y-99419501D01*
X163798723Y-99311403D01*
X164002509Y-99021510D01*
X164238348Y-98720317D01*
X164507702Y-98406133D01*
X164812032Y-98077264D01*
X165152798Y-97732018D01*
X165214568Y-97671467D01*
X165378723Y-97512039D01*
X165517233Y-97380016D01*
X165634205Y-97272684D01*
X165733742Y-97187331D01*
X165819952Y-97121244D01*
X165896938Y-97071710D01*
X165968808Y-97036016D01*
X166039665Y-97011450D01*
X166113617Y-96995298D01*
X166194767Y-96984848D01*
X166262264Y-96979161D01*
X166453652Y-96980934D01*
G36*
X148693037Y-97027511D02*
G01*
X148923181Y-97069180D01*
X149173862Y-97135185D01*
X149439587Y-97223563D01*
X149714864Y-97332355D01*
X149994199Y-97459599D01*
X150272101Y-97603333D01*
X150480184Y-97723127D01*
X150610661Y-97806504D01*
X150726543Y-97892149D01*
X150832075Y-97985098D01*
X150931501Y-98090392D01*
X151029067Y-98213066D01*
X151129017Y-98358160D01*
X151235597Y-98530711D01*
X151353049Y-98735757D01*
X151390778Y-98803884D01*
X151486437Y-98976369D01*
X151566927Y-99118050D01*
X151636489Y-99235738D01*
X151699369Y-99336247D01*
X151759809Y-99426392D01*
X151822054Y-99512985D01*
X151880430Y-99590024D01*
X151966814Y-99694480D01*
X152063808Y-99799551D01*
X152163804Y-99898014D01*
X152259191Y-99982649D01*
X152342359Y-100046234D01*
X152392480Y-100075927D01*
X152477719Y-100098934D01*
X152597338Y-100104950D01*
X152747099Y-100094331D01*
X152922766Y-100067433D01*
X153120102Y-100024614D01*
X153178934Y-100009749D01*
X153363234Y-99965703D01*
X153515305Y-99938747D01*
X153641513Y-99928578D01*
X153748221Y-99934887D01*
X153841794Y-99957370D01*
X153888017Y-99975639D01*
X154009998Y-100046685D01*
X154104268Y-100141066D01*
X154179040Y-100267220D01*
X154185402Y-100281108D01*
X154206302Y-100332320D01*
X154222587Y-100385410D01*
X154234107Y-100444356D01*
X154240711Y-100513138D01*
X154242247Y-100595734D01*
X154238565Y-100696125D01*
X154229514Y-100818288D01*
X154214944Y-100966204D01*
X154194703Y-101143852D01*
X154168640Y-101355211D01*
X154136605Y-101604259D01*
X154134677Y-101619050D01*
X154109484Y-101811007D01*
X154086674Y-101980144D01*
X154065181Y-102131521D01*
X154043938Y-102270194D01*
X154021878Y-102401224D01*
X153997934Y-102529667D01*
X153971039Y-102660584D01*
X153940127Y-102799031D01*
X153904130Y-102950069D01*
X153861981Y-103118754D01*
X153812615Y-103310146D01*
X153754963Y-103529303D01*
X153687959Y-103781283D01*
X153643612Y-103947384D01*
X153606743Y-104086260D01*
X153579397Y-104194174D01*
X153560093Y-104281045D01*
X153547349Y-104356787D01*
X153539683Y-104431317D01*
X153535613Y-104514553D01*
X153533657Y-104616410D01*
X153532905Y-104688217D01*
X153532772Y-104837102D01*
X153536862Y-104952450D01*
X153547055Y-105042990D01*
X153565228Y-105117453D01*
X153593259Y-105184569D01*
X153633027Y-105253069D01*
X153664579Y-105300323D01*
X153726675Y-105386524D01*
X153783914Y-105452598D01*
X153842881Y-105500684D01*
X153910161Y-105532916D01*
X153992340Y-105551430D01*
X154096005Y-105558363D01*
X154227739Y-105555851D01*
X154394130Y-105546030D01*
X154417184Y-105544430D01*
X154570790Y-105533819D01*
X154687923Y-105526599D01*
X154774339Y-105523172D01*
X154835791Y-105523941D01*
X154878034Y-105529307D01*
X154906823Y-105539674D01*
X154927913Y-105555442D01*
X154947059Y-105577016D01*
X154950897Y-105581737D01*
X154998288Y-105667282D01*
X155027176Y-105777568D01*
X155038678Y-105903977D01*
X155033910Y-106037890D01*
X155013990Y-106170691D01*
X154980033Y-106293761D01*
X154933156Y-106398483D01*
X154874476Y-106476240D01*
X154830875Y-106508063D01*
X154786804Y-106529282D01*
X154762882Y-106537823D01*
X154762193Y-106537719D01*
X154739590Y-106533536D01*
X154687247Y-106525268D01*
X154628850Y-106516531D01*
X154560205Y-106507466D01*
X154461497Y-106495724D01*
X154344801Y-106482684D01*
X154222194Y-106469726D01*
X154194934Y-106466953D01*
X153990396Y-106440855D01*
X153817681Y-106405316D01*
X153666678Y-106356713D01*
X153527277Y-106291422D01*
X153389368Y-106205820D01*
X153313594Y-106151105D01*
X153222012Y-106077108D01*
X153150798Y-106004850D01*
X153089959Y-105921915D01*
X153029498Y-105815886D01*
X153004869Y-105767609D01*
X152915866Y-105560723D01*
X152836538Y-105315369D01*
X152766591Y-105030515D01*
X152714548Y-104758088D01*
X152695836Y-104646609D01*
X152679708Y-104545312D01*
X152665973Y-104450097D01*
X152654439Y-104356864D01*
X152644914Y-104261515D01*
X152637208Y-104159948D01*
X152631127Y-104048065D01*
X152626482Y-103921766D01*
X152623080Y-103776951D01*
X152620730Y-103609520D01*
X152619241Y-103415374D01*
X152618420Y-103190412D01*
X152618077Y-102930536D01*
X152618017Y-102691785D01*
X152618017Y-101309186D01*
X152395767Y-101219183D01*
X152259420Y-101162826D01*
X152154185Y-101115779D01*
X152071349Y-101073003D01*
X152002197Y-101029460D01*
X151938014Y-100980110D01*
X151870086Y-100919913D01*
X151856741Y-100907493D01*
X151744008Y-100790562D01*
X151640678Y-100657843D01*
X151543718Y-100504048D01*
X151450095Y-100323887D01*
X151356775Y-100112073D01*
X151265739Y-99876981D01*
X151222972Y-99765919D01*
X151177780Y-99657262D01*
X151135621Y-99563658D01*
X151102680Y-99499027D01*
X150986168Y-99323027D01*
X150840511Y-99146339D01*
X150676166Y-98979690D01*
X150503592Y-98833807D01*
X150355346Y-98732400D01*
X150205413Y-98652739D01*
X150051036Y-98593271D01*
X149885497Y-98552894D01*
X149702078Y-98530505D01*
X149494062Y-98525003D01*
X149254729Y-98535287D01*
X149185313Y-98540510D01*
X148951496Y-98556816D01*
X148740377Y-98566262D01*
X148555975Y-98568846D01*
X148402306Y-98564568D01*
X148283386Y-98553428D01*
X148219523Y-98540600D01*
X148104739Y-98488280D01*
X147997071Y-98401620D01*
X147904994Y-98288591D01*
X147853595Y-98196410D01*
X147827080Y-98135889D01*
X147809486Y-98083513D01*
X147799003Y-98027893D01*
X147793819Y-97957634D01*
X147792124Y-97861347D01*
X147792017Y-97809050D01*
X147792674Y-97698996D01*
X147795925Y-97619845D01*
X147803689Y-97560171D01*
X147817884Y-97508549D01*
X147840430Y-97453555D01*
X147858098Y-97415591D01*
X147948098Y-97264795D01*
X148059713Y-97148879D01*
X148196021Y-97064663D01*
X148199295Y-97063154D01*
X148270700Y-97034670D01*
X148339914Y-97018792D01*
X148423935Y-97012526D01*
X148488921Y-97012138D01*
X148693037Y-97027511D01*
G37*
X148693037Y-97027511D02*
X148923181Y-97069180D01*
X149173862Y-97135185D01*
X149439587Y-97223563D01*
X149714864Y-97332355D01*
X149994199Y-97459599D01*
X150272101Y-97603333D01*
X150480184Y-97723127D01*
X150610661Y-97806504D01*
X150726543Y-97892149D01*
X150832075Y-97985098D01*
X150931501Y-98090392D01*
X151029067Y-98213066D01*
X151129017Y-98358160D01*
X151235597Y-98530711D01*
X151353049Y-98735757D01*
X151390778Y-98803884D01*
X151486437Y-98976369D01*
X151566927Y-99118050D01*
X151636489Y-99235738D01*
X151699369Y-99336247D01*
X151759809Y-99426392D01*
X151822054Y-99512985D01*
X151880430Y-99590024D01*
X151966814Y-99694480D01*
X152063808Y-99799551D01*
X152163804Y-99898014D01*
X152259191Y-99982649D01*
X152342359Y-100046234D01*
X152392480Y-100075927D01*
X152477719Y-100098934D01*
X152597338Y-100104950D01*
X152747099Y-100094331D01*
X152922766Y-100067433D01*
X153120102Y-100024614D01*
X153178934Y-100009749D01*
X153363234Y-99965703D01*
X153515305Y-99938747D01*
X153641513Y-99928578D01*
X153748221Y-99934887D01*
X153841794Y-99957370D01*
X153888017Y-99975639D01*
X154009998Y-100046685D01*
X154104268Y-100141066D01*
X154179040Y-100267220D01*
X154185402Y-100281108D01*
X154206302Y-100332320D01*
X154222587Y-100385410D01*
X154234107Y-100444356D01*
X154240711Y-100513138D01*
X154242247Y-100595734D01*
X154238565Y-100696125D01*
X154229514Y-100818288D01*
X154214944Y-100966204D01*
X154194703Y-101143852D01*
X154168640Y-101355211D01*
X154136605Y-101604259D01*
X154134677Y-101619050D01*
X154109484Y-101811007D01*
X154086674Y-101980144D01*
X154065181Y-102131521D01*
X154043938Y-102270194D01*
X154021878Y-102401224D01*
X153997934Y-102529667D01*
X153971039Y-102660584D01*
X153940127Y-102799031D01*
X153904130Y-102950069D01*
X153861981Y-103118754D01*
X153812615Y-103310146D01*
X153754963Y-103529303D01*
X153687959Y-103781283D01*
X153643612Y-103947384D01*
X153606743Y-104086260D01*
X153579397Y-104194174D01*
X153560093Y-104281045D01*
X153547349Y-104356787D01*
X153539683Y-104431317D01*
X153535613Y-104514553D01*
X153533657Y-104616410D01*
X153532905Y-104688217D01*
X153532772Y-104837102D01*
X153536862Y-104952450D01*
X153547055Y-105042990D01*
X153565228Y-105117453D01*
X153593259Y-105184569D01*
X153633027Y-105253069D01*
X153664579Y-105300323D01*
X153726675Y-105386524D01*
X153783914Y-105452598D01*
X153842881Y-105500684D01*
X153910161Y-105532916D01*
X153992340Y-105551430D01*
X154096005Y-105558363D01*
X154227739Y-105555851D01*
X154394130Y-105546030D01*
X154417184Y-105544430D01*
X154570790Y-105533819D01*
X154687923Y-105526599D01*
X154774339Y-105523172D01*
X154835791Y-105523941D01*
X154878034Y-105529307D01*
X154906823Y-105539674D01*
X154927913Y-105555442D01*
X154947059Y-105577016D01*
X154950897Y-105581737D01*
X154998288Y-105667282D01*
X155027176Y-105777568D01*
X155038678Y-105903977D01*
X155033910Y-106037890D01*
X155013990Y-106170691D01*
X154980033Y-106293761D01*
X154933156Y-106398483D01*
X154874476Y-106476240D01*
X154830875Y-106508063D01*
X154786804Y-106529282D01*
X154762882Y-106537823D01*
X154762193Y-106537719D01*
X154739590Y-106533536D01*
X154687247Y-106525268D01*
X154628850Y-106516531D01*
X154560205Y-106507466D01*
X154461497Y-106495724D01*
X154344801Y-106482684D01*
X154222194Y-106469726D01*
X154194934Y-106466953D01*
X153990396Y-106440855D01*
X153817681Y-106405316D01*
X153666678Y-106356713D01*
X153527277Y-106291422D01*
X153389368Y-106205820D01*
X153313594Y-106151105D01*
X153222012Y-106077108D01*
X153150798Y-106004850D01*
X153089959Y-105921915D01*
X153029498Y-105815886D01*
X153004869Y-105767609D01*
X152915866Y-105560723D01*
X152836538Y-105315369D01*
X152766591Y-105030515D01*
X152714548Y-104758088D01*
X152695836Y-104646609D01*
X152679708Y-104545312D01*
X152665973Y-104450097D01*
X152654439Y-104356864D01*
X152644914Y-104261515D01*
X152637208Y-104159948D01*
X152631127Y-104048065D01*
X152626482Y-103921766D01*
X152623080Y-103776951D01*
X152620730Y-103609520D01*
X152619241Y-103415374D01*
X152618420Y-103190412D01*
X152618077Y-102930536D01*
X152618017Y-102691785D01*
X152618017Y-101309186D01*
X152395767Y-101219183D01*
X152259420Y-101162826D01*
X152154185Y-101115779D01*
X152071349Y-101073003D01*
X152002197Y-101029460D01*
X151938014Y-100980110D01*
X151870086Y-100919913D01*
X151856741Y-100907493D01*
X151744008Y-100790562D01*
X151640678Y-100657843D01*
X151543718Y-100504048D01*
X151450095Y-100323887D01*
X151356775Y-100112073D01*
X151265739Y-99876981D01*
X151222972Y-99765919D01*
X151177780Y-99657262D01*
X151135621Y-99563658D01*
X151102680Y-99499027D01*
X150986168Y-99323027D01*
X150840511Y-99146339D01*
X150676166Y-98979690D01*
X150503592Y-98833807D01*
X150355346Y-98732400D01*
X150205413Y-98652739D01*
X150051036Y-98593271D01*
X149885497Y-98552894D01*
X149702078Y-98530505D01*
X149494062Y-98525003D01*
X149254729Y-98535287D01*
X149185313Y-98540510D01*
X148951496Y-98556816D01*
X148740377Y-98566262D01*
X148555975Y-98568846D01*
X148402306Y-98564568D01*
X148283386Y-98553428D01*
X148219523Y-98540600D01*
X148104739Y-98488280D01*
X147997071Y-98401620D01*
X147904994Y-98288591D01*
X147853595Y-98196410D01*
X147827080Y-98135889D01*
X147809486Y-98083513D01*
X147799003Y-98027893D01*
X147793819Y-97957634D01*
X147792124Y-97861347D01*
X147792017Y-97809050D01*
X147792674Y-97698996D01*
X147795925Y-97619845D01*
X147803689Y-97560171D01*
X147817884Y-97508549D01*
X147840430Y-97453555D01*
X147858098Y-97415591D01*
X147948098Y-97264795D01*
X148059713Y-97148879D01*
X148196021Y-97064663D01*
X148199295Y-97063154D01*
X148270700Y-97034670D01*
X148339914Y-97018792D01*
X148423935Y-97012526D01*
X148488921Y-97012138D01*
X148693037Y-97027511D01*
G36*
X166597736Y-99562221D02*
G01*
X166718639Y-99586193D01*
X166750083Y-99596598D01*
X166878124Y-99665871D01*
X166979824Y-99765920D01*
X167054400Y-99893774D01*
X167101069Y-100046462D01*
X167119049Y-100221012D01*
X167107556Y-100414453D01*
X167065807Y-100623812D01*
X167042304Y-100705456D01*
X167001703Y-100835884D01*
X166816027Y-100940189D01*
X166557647Y-101090407D01*
X166309335Y-101244623D01*
X166076838Y-101398880D01*
X165865902Y-101549221D01*
X165682274Y-101691691D01*
X165531701Y-101822332D01*
X165523172Y-101830342D01*
X165455098Y-101897077D01*
X165389793Y-101966938D01*
X165325583Y-102042760D01*
X165260793Y-102127376D01*
X165193751Y-102223619D01*
X165122781Y-102334325D01*
X165046211Y-102462327D01*
X164962364Y-102610458D01*
X164869569Y-102781553D01*
X164766150Y-102978446D01*
X164650434Y-103203970D01*
X164520747Y-103460959D01*
X164375414Y-103752247D01*
X164310106Y-103883884D01*
X164162289Y-104181569D01*
X164029954Y-104445049D01*
X163909977Y-104678148D01*
X163799238Y-104884688D01*
X163694613Y-105068490D01*
X163592981Y-105233378D01*
X163491219Y-105383173D01*
X163386206Y-105521697D01*
X163274818Y-105652775D01*
X163153935Y-105780226D01*
X163020433Y-105907875D01*
X162871190Y-106039543D01*
X162703085Y-106179053D01*
X162512994Y-106330226D01*
X162297797Y-106496887D01*
X162054371Y-106682855D01*
X161973684Y-106744267D01*
X161901638Y-106801251D01*
X161807142Y-106879159D01*
X161699105Y-106970475D01*
X161586435Y-107067684D01*
X161495823Y-107147422D01*
X161344366Y-107281747D01*
X161218660Y-107390756D01*
X161112723Y-107477153D01*
X161020573Y-107543641D01*
X160936227Y-107592924D01*
X160853704Y-107627706D01*
X160767022Y-107650690D01*
X160670197Y-107664580D01*
X160557248Y-107672080D01*
X160422193Y-107675893D01*
X160322684Y-107677626D01*
X160177433Y-107679785D01*
X160068149Y-107680433D01*
X159988478Y-107679110D01*
X159932064Y-107675354D01*
X159892555Y-107668706D01*
X159863596Y-107658705D01*
X159838833Y-107644890D01*
X159834796Y-107642269D01*
X159751169Y-107562166D01*
X159694418Y-107449695D01*
X159664789Y-107305398D01*
X159661468Y-107261002D01*
X159663807Y-107133714D01*
X159687645Y-107036165D01*
X159736064Y-106959974D01*
X159789797Y-106912221D01*
X159811004Y-106898310D01*
X159835583Y-106887660D01*
X159869189Y-106879814D01*
X159917474Y-106874310D01*
X159986094Y-106870689D01*
X160080701Y-106868491D01*
X160206949Y-106867256D01*
X160350714Y-106866593D01*
X160515754Y-106865610D01*
X160645408Y-106863662D01*
X160746620Y-106860265D01*
X160826333Y-106854935D01*
X160891493Y-106847188D01*
X160949043Y-106836541D01*
X161005927Y-106822509D01*
X161013638Y-106820410D01*
X161162436Y-106771410D01*
X161304349Y-106709680D01*
X161426767Y-106641272D01*
X161501809Y-106586136D01*
X161537548Y-106557452D01*
X161602111Y-106507892D01*
X161690102Y-106441506D01*
X161796127Y-106362344D01*
X161914792Y-106274455D01*
X162026600Y-106192220D01*
X162178445Y-106080638D01*
X162300844Y-105989702D01*
X162398655Y-105915253D01*
X162476736Y-105853133D01*
X162539947Y-105799182D01*
X162593147Y-105749243D01*
X162641193Y-105699157D01*
X162688944Y-105644764D01*
X162741259Y-105581906D01*
X162745107Y-105577217D01*
X162907221Y-105363526D01*
X163074660Y-105112222D01*
X163245223Y-104827351D01*
X163416706Y-104512958D01*
X163586906Y-104173089D01*
X163753621Y-103811789D01*
X163914647Y-103433105D01*
X163920710Y-103418217D01*
X163982683Y-103265815D01*
X164050919Y-103098076D01*
X164119489Y-102929572D01*
X164182464Y-102774875D01*
X164222169Y-102677384D01*
X164305421Y-102479270D01*
X164395680Y-102275493D01*
X164489315Y-102073537D01*
X164582695Y-101880883D01*
X164672191Y-101705013D01*
X164754171Y-101553409D01*
X164825004Y-101433553D01*
X164828174Y-101428550D01*
X164865003Y-101366538D01*
X164917668Y-101272020D01*
X164983284Y-101150460D01*
X165058965Y-101007322D01*
X165141827Y-100848070D01*
X165228985Y-100678167D01*
X165317553Y-100503078D01*
X165331110Y-100476050D01*
X165415083Y-100309429D01*
X165494072Y-100154593D01*
X165565905Y-100015665D01*
X165628407Y-99896764D01*
X165679404Y-99802012D01*
X165716723Y-99735530D01*
X165738191Y-99701439D01*
X165741535Y-99697934D01*
X165786091Y-99679144D01*
X165859485Y-99654446D01*
X165949314Y-99627493D01*
X166043175Y-99601936D01*
X166128666Y-99581428D01*
X166156854Y-99575627D01*
X166303141Y-99556454D01*
X166454669Y-99552146D01*
X166597736Y-99562221D01*
G37*
X166597736Y-99562221D02*
X166718639Y-99586193D01*
X166750083Y-99596598D01*
X166878124Y-99665871D01*
X166979824Y-99765920D01*
X167054400Y-99893774D01*
X167101069Y-100046462D01*
X167119049Y-100221012D01*
X167107556Y-100414453D01*
X167065807Y-100623812D01*
X167042304Y-100705456D01*
X167001703Y-100835884D01*
X166816027Y-100940189D01*
X166557647Y-101090407D01*
X166309335Y-101244623D01*
X166076838Y-101398880D01*
X165865902Y-101549221D01*
X165682274Y-101691691D01*
X165531701Y-101822332D01*
X165523172Y-101830342D01*
X165455098Y-101897077D01*
X165389793Y-101966938D01*
X165325583Y-102042760D01*
X165260793Y-102127376D01*
X165193751Y-102223619D01*
X165122781Y-102334325D01*
X165046211Y-102462327D01*
X164962364Y-102610458D01*
X164869569Y-102781553D01*
X164766150Y-102978446D01*
X164650434Y-103203970D01*
X164520747Y-103460959D01*
X164375414Y-103752247D01*
X164310106Y-103883884D01*
X164162289Y-104181569D01*
X164029954Y-104445049D01*
X163909977Y-104678148D01*
X163799238Y-104884688D01*
X163694613Y-105068490D01*
X163592981Y-105233378D01*
X163491219Y-105383173D01*
X163386206Y-105521697D01*
X163274818Y-105652775D01*
X163153935Y-105780226D01*
X163020433Y-105907875D01*
X162871190Y-106039543D01*
X162703085Y-106179053D01*
X162512994Y-106330226D01*
X162297797Y-106496887D01*
X162054371Y-106682855D01*
X161973684Y-106744267D01*
X161901638Y-106801251D01*
X161807142Y-106879159D01*
X161699105Y-106970475D01*
X161586435Y-107067684D01*
X161495823Y-107147422D01*
X161344366Y-107281747D01*
X161218660Y-107390756D01*
X161112723Y-107477153D01*
X161020573Y-107543641D01*
X160936227Y-107592924D01*
X160853704Y-107627706D01*
X160767022Y-107650690D01*
X160670197Y-107664580D01*
X160557248Y-107672080D01*
X160422193Y-107675893D01*
X160322684Y-107677626D01*
X160177433Y-107679785D01*
X160068149Y-107680433D01*
X159988478Y-107679110D01*
X159932064Y-107675354D01*
X159892555Y-107668706D01*
X159863596Y-107658705D01*
X159838833Y-107644890D01*
X159834796Y-107642269D01*
X159751169Y-107562166D01*
X159694418Y-107449695D01*
X159664789Y-107305398D01*
X159661468Y-107261002D01*
X159663807Y-107133714D01*
X159687645Y-107036165D01*
X159736064Y-106959974D01*
X159789797Y-106912221D01*
X159811004Y-106898310D01*
X159835583Y-106887660D01*
X159869189Y-106879814D01*
X159917474Y-106874310D01*
X159986094Y-106870689D01*
X160080701Y-106868491D01*
X160206949Y-106867256D01*
X160350714Y-106866593D01*
X160515754Y-106865610D01*
X160645408Y-106863662D01*
X160746620Y-106860265D01*
X160826333Y-106854935D01*
X160891493Y-106847188D01*
X160949043Y-106836541D01*
X161005927Y-106822509D01*
X161013638Y-106820410D01*
X161162436Y-106771410D01*
X161304349Y-106709680D01*
X161426767Y-106641272D01*
X161501809Y-106586136D01*
X161537548Y-106557452D01*
X161602111Y-106507892D01*
X161690102Y-106441506D01*
X161796127Y-106362344D01*
X161914792Y-106274455D01*
X162026600Y-106192220D01*
X162178445Y-106080638D01*
X162300844Y-105989702D01*
X162398655Y-105915253D01*
X162476736Y-105853133D01*
X162539947Y-105799182D01*
X162593147Y-105749243D01*
X162641193Y-105699157D01*
X162688944Y-105644764D01*
X162741259Y-105581906D01*
X162745107Y-105577217D01*
X162907221Y-105363526D01*
X163074660Y-105112222D01*
X163245223Y-104827351D01*
X163416706Y-104512958D01*
X163586906Y-104173089D01*
X163753621Y-103811789D01*
X163914647Y-103433105D01*
X163920710Y-103418217D01*
X163982683Y-103265815D01*
X164050919Y-103098076D01*
X164119489Y-102929572D01*
X164182464Y-102774875D01*
X164222169Y-102677384D01*
X164305421Y-102479270D01*
X164395680Y-102275493D01*
X164489315Y-102073537D01*
X164582695Y-101880883D01*
X164672191Y-101705013D01*
X164754171Y-101553409D01*
X164825004Y-101433553D01*
X164828174Y-101428550D01*
X164865003Y-101366538D01*
X164917668Y-101272020D01*
X164983284Y-101150460D01*
X165058965Y-101007322D01*
X165141827Y-100848070D01*
X165228985Y-100678167D01*
X165317553Y-100503078D01*
X165331110Y-100476050D01*
X165415083Y-100309429D01*
X165494072Y-100154593D01*
X165565905Y-100015665D01*
X165628407Y-99896764D01*
X165679404Y-99802012D01*
X165716723Y-99735530D01*
X165738191Y-99701439D01*
X165741535Y-99697934D01*
X165786091Y-99679144D01*
X165859485Y-99654446D01*
X165949314Y-99627493D01*
X166043175Y-99601936D01*
X166128666Y-99581428D01*
X166156854Y-99575627D01*
X166303141Y-99556454D01*
X166454669Y-99552146D01*
X166597736Y-99562221D01*
G36*
X148732698Y-99501198D02*
G01*
X148884341Y-99520540D01*
X149020903Y-99552365D01*
X149095584Y-99579267D01*
X149199318Y-99642468D01*
X149311368Y-99746032D01*
X149430806Y-99889011D01*
X149517198Y-100010384D01*
X149573577Y-100090973D01*
X149630072Y-100163615D01*
X149691913Y-100233348D01*
X149764333Y-100305211D01*
X149852561Y-100384244D01*
X149961829Y-100475486D01*
X150097368Y-100583976D01*
X150180128Y-100649006D01*
X150429919Y-100846129D01*
X150647977Y-101022306D01*
X150837354Y-101180719D01*
X151001100Y-101324549D01*
X151142269Y-101456978D01*
X151263912Y-101581185D01*
X151369081Y-101700352D01*
X151460828Y-101817661D01*
X151542205Y-101936293D01*
X151616263Y-102059428D01*
X151686055Y-102190248D01*
X151715263Y-102249139D01*
X151785914Y-102400609D01*
X151848597Y-102549879D01*
X151904628Y-102702097D01*
X151955321Y-102862409D01*
X152001993Y-103035962D01*
X152045958Y-103227903D01*
X152088532Y-103443379D01*
X152131031Y-103687538D01*
X152174769Y-103965526D01*
X152203365Y-104159050D01*
X152241588Y-104414613D01*
X152277501Y-104635331D01*
X152312676Y-104828511D01*
X152348683Y-105001464D01*
X152387095Y-105161497D01*
X152429482Y-105315921D01*
X152477416Y-105472045D01*
X152501436Y-105545467D01*
X152601814Y-105826787D01*
X152705791Y-106078968D01*
X152812133Y-106299885D01*
X152919609Y-106487410D01*
X153026986Y-106639417D01*
X153133031Y-106753778D01*
X153236511Y-106828366D01*
X153248447Y-106834421D01*
X153326751Y-106865569D01*
X153416603Y-106892065D01*
X153448934Y-106899154D01*
X153527651Y-106907158D01*
X153640157Y-106909073D01*
X153778420Y-106905400D01*
X153934411Y-106896642D01*
X154100100Y-106883300D01*
X154267459Y-106865878D01*
X154428457Y-106844876D01*
X154504381Y-106833138D01*
X154636795Y-106812747D01*
X154735012Y-106802723D01*
X154806317Y-106805000D01*
X154857996Y-106821509D01*
X154897336Y-106854181D01*
X154931622Y-106904948D01*
X154956934Y-106953118D01*
X154980359Y-107004233D01*
X154995669Y-107052855D01*
X155004522Y-107110005D01*
X155008577Y-107186703D01*
X155009493Y-107293972D01*
X155009483Y-107302300D01*
X155008254Y-107413251D01*
X155003972Y-107492298D01*
X154995154Y-107549842D01*
X154980316Y-107596285D01*
X154962141Y-107634276D01*
X154926730Y-107695838D01*
X154891163Y-107739765D01*
X154848656Y-107767544D01*
X154792425Y-107780666D01*
X154715688Y-107780620D01*
X154611659Y-107768894D01*
X154473555Y-107746977D01*
X154459517Y-107744606D01*
X154340245Y-107725687D01*
X154198539Y-107705158D01*
X154054071Y-107685785D01*
X153951517Y-107673185D01*
X153745815Y-107644567D01*
X153568972Y-107608518D01*
X153407688Y-107561450D01*
X153248664Y-107499774D01*
X153159969Y-107459567D01*
X153049982Y-107403843D01*
X152963432Y-107349089D01*
X152883439Y-107283366D01*
X152810073Y-107212074D01*
X152693470Y-107080833D01*
X152571217Y-106920738D01*
X152450989Y-106743117D01*
X152340463Y-106559297D01*
X152248843Y-106383820D01*
X152158240Y-106185286D01*
X152078462Y-105990438D01*
X152007860Y-105793171D01*
X151944787Y-105587379D01*
X151887594Y-105366955D01*
X151834634Y-105125793D01*
X151784257Y-104857786D01*
X151734816Y-104556829D01*
X151708344Y-104381300D01*
X151656605Y-104042560D01*
X151606267Y-103742214D01*
X151556254Y-103476394D01*
X151505489Y-103241232D01*
X151452898Y-103032863D01*
X151397403Y-102847417D01*
X151337929Y-102681029D01*
X151273400Y-102529831D01*
X151202740Y-102389954D01*
X151124872Y-102257533D01*
X151111631Y-102236715D01*
X151036380Y-102127161D01*
X150957521Y-102029795D01*
X150870941Y-101942195D01*
X150772525Y-101861943D01*
X150658159Y-101786620D01*
X150523729Y-101713804D01*
X150365120Y-101641078D01*
X150178218Y-101566021D01*
X149958909Y-101486213D01*
X149703078Y-101399236D01*
X149667651Y-101387516D01*
X149236119Y-101245129D01*
X148873901Y-101225885D01*
X148745086Y-101218060D01*
X148622568Y-101208839D01*
X148516222Y-101199096D01*
X148435925Y-101189702D01*
X148402578Y-101184237D01*
X148262013Y-101134655D01*
X148133267Y-101049606D01*
X148019838Y-100935135D01*
X147925227Y-100797283D01*
X147852933Y-100642094D01*
X147806455Y-100475610D01*
X147789294Y-100303873D01*
X147802197Y-100147597D01*
X147849127Y-99974214D01*
X147922893Y-99819223D01*
X148019280Y-99688978D01*
X148134074Y-99589835D01*
X148195457Y-99554684D01*
X148297352Y-99521084D01*
X148428196Y-99501170D01*
X148576980Y-99494642D01*
X148732698Y-99501198D01*
G37*
X148732698Y-99501198D02*
X148884341Y-99520540D01*
X149020903Y-99552365D01*
X149095584Y-99579267D01*
X149199318Y-99642468D01*
X149311368Y-99746032D01*
X149430806Y-99889011D01*
X149517198Y-100010384D01*
X149573577Y-100090973D01*
X149630072Y-100163615D01*
X149691913Y-100233348D01*
X149764333Y-100305211D01*
X149852561Y-100384244D01*
X149961829Y-100475486D01*
X150097368Y-100583976D01*
X150180128Y-100649006D01*
X150429919Y-100846129D01*
X150647977Y-101022306D01*
X150837354Y-101180719D01*
X151001100Y-101324549D01*
X151142269Y-101456978D01*
X151263912Y-101581185D01*
X151369081Y-101700352D01*
X151460828Y-101817661D01*
X151542205Y-101936293D01*
X151616263Y-102059428D01*
X151686055Y-102190248D01*
X151715263Y-102249139D01*
X151785914Y-102400609D01*
X151848597Y-102549879D01*
X151904628Y-102702097D01*
X151955321Y-102862409D01*
X152001993Y-103035962D01*
X152045958Y-103227903D01*
X152088532Y-103443379D01*
X152131031Y-103687538D01*
X152174769Y-103965526D01*
X152203365Y-104159050D01*
X152241588Y-104414613D01*
X152277501Y-104635331D01*
X152312676Y-104828511D01*
X152348683Y-105001464D01*
X152387095Y-105161497D01*
X152429482Y-105315921D01*
X152477416Y-105472045D01*
X152501436Y-105545467D01*
X152601814Y-105826787D01*
X152705791Y-106078968D01*
X152812133Y-106299885D01*
X152919609Y-106487410D01*
X153026986Y-106639417D01*
X153133031Y-106753778D01*
X153236511Y-106828366D01*
X153248447Y-106834421D01*
X153326751Y-106865569D01*
X153416603Y-106892065D01*
X153448934Y-106899154D01*
X153527651Y-106907158D01*
X153640157Y-106909073D01*
X153778420Y-106905400D01*
X153934411Y-106896642D01*
X154100100Y-106883300D01*
X154267459Y-106865878D01*
X154428457Y-106844876D01*
X154504381Y-106833138D01*
X154636795Y-106812747D01*
X154735012Y-106802723D01*
X154806317Y-106805000D01*
X154857996Y-106821509D01*
X154897336Y-106854181D01*
X154931622Y-106904948D01*
X154956934Y-106953118D01*
X154980359Y-107004233D01*
X154995669Y-107052855D01*
X155004522Y-107110005D01*
X155008577Y-107186703D01*
X155009493Y-107293972D01*
X155009483Y-107302300D01*
X155008254Y-107413251D01*
X155003972Y-107492298D01*
X154995154Y-107549842D01*
X154980316Y-107596285D01*
X154962141Y-107634276D01*
X154926730Y-107695838D01*
X154891163Y-107739765D01*
X154848656Y-107767544D01*
X154792425Y-107780666D01*
X154715688Y-107780620D01*
X154611659Y-107768894D01*
X154473555Y-107746977D01*
X154459517Y-107744606D01*
X154340245Y-107725687D01*
X154198539Y-107705158D01*
X154054071Y-107685785D01*
X153951517Y-107673185D01*
X153745815Y-107644567D01*
X153568972Y-107608518D01*
X153407688Y-107561450D01*
X153248664Y-107499774D01*
X153159969Y-107459567D01*
X153049982Y-107403843D01*
X152963432Y-107349089D01*
X152883439Y-107283366D01*
X152810073Y-107212074D01*
X152693470Y-107080833D01*
X152571217Y-106920738D01*
X152450989Y-106743117D01*
X152340463Y-106559297D01*
X152248843Y-106383820D01*
X152158240Y-106185286D01*
X152078462Y-105990438D01*
X152007860Y-105793171D01*
X151944787Y-105587379D01*
X151887594Y-105366955D01*
X151834634Y-105125793D01*
X151784257Y-104857786D01*
X151734816Y-104556829D01*
X151708344Y-104381300D01*
X151656605Y-104042560D01*
X151606267Y-103742214D01*
X151556254Y-103476394D01*
X151505489Y-103241232D01*
X151452898Y-103032863D01*
X151397403Y-102847417D01*
X151337929Y-102681029D01*
X151273400Y-102529831D01*
X151202740Y-102389954D01*
X151124872Y-102257533D01*
X151111631Y-102236715D01*
X151036380Y-102127161D01*
X150957521Y-102029795D01*
X150870941Y-101942195D01*
X150772525Y-101861943D01*
X150658159Y-101786620D01*
X150523729Y-101713804D01*
X150365120Y-101641078D01*
X150178218Y-101566021D01*
X149958909Y-101486213D01*
X149703078Y-101399236D01*
X149667651Y-101387516D01*
X149236119Y-101245129D01*
X148873901Y-101225885D01*
X148745086Y-101218060D01*
X148622568Y-101208839D01*
X148516222Y-101199096D01*
X148435925Y-101189702D01*
X148402578Y-101184237D01*
X148262013Y-101134655D01*
X148133267Y-101049606D01*
X148019838Y-100935135D01*
X147925227Y-100797283D01*
X147852933Y-100642094D01*
X147806455Y-100475610D01*
X147789294Y-100303873D01*
X147802197Y-100147597D01*
X147849127Y-99974214D01*
X147922893Y-99819223D01*
X148019280Y-99688978D01*
X148134074Y-99589835D01*
X148195457Y-99554684D01*
X148297352Y-99521084D01*
X148428196Y-99501170D01*
X148576980Y-99494642D01*
X148732698Y-99501198D01*
G36*
X161718755Y-100114737D02*
G01*
X161827067Y-100178180D01*
X161918724Y-100277100D01*
X161992109Y-100407403D01*
X162045602Y-100564992D01*
X162077587Y-100745772D01*
X162086445Y-100945649D01*
X162082767Y-101036034D01*
X162057913Y-101255258D01*
X162014293Y-101437174D01*
X161951650Y-101582549D01*
X161869732Y-101692145D01*
X161861223Y-101700452D01*
X161835259Y-101723122D01*
X161807201Y-101740412D01*
X161769864Y-101754055D01*
X161716067Y-101765788D01*
X161638627Y-101777343D01*
X161530360Y-101790457D01*
X161451826Y-101799325D01*
X161308256Y-101817355D01*
X161153981Y-101840061D01*
X161005041Y-101864883D01*
X160877475Y-101889260D01*
X160846138Y-101896021D01*
X160737141Y-101921037D01*
X160661731Y-101940833D01*
X160612016Y-101958654D01*
X160580104Y-101977745D01*
X160558105Y-102001352D01*
X160546156Y-102019398D01*
X160515911Y-102087102D01*
X160488084Y-102189057D01*
X160462355Y-102327100D01*
X160438402Y-102503068D01*
X160415907Y-102718797D01*
X160407386Y-102814967D01*
X160386706Y-103040626D01*
X160365595Y-103231376D01*
X160342911Y-103394634D01*
X160317513Y-103537820D01*
X160288257Y-103668351D01*
X160259698Y-103774227D01*
X160220851Y-103899583D01*
X160180385Y-104005904D01*
X160133944Y-104097366D01*
X160077172Y-104178147D01*
X160005714Y-104252423D01*
X159915214Y-104324372D01*
X159801317Y-104398171D01*
X159659666Y-104477997D01*
X159485907Y-104568027D01*
X159373367Y-104624254D01*
X159162322Y-104730047D01*
X158986246Y-104821644D01*
X158841393Y-104901971D01*
X158724014Y-104973953D01*
X158630364Y-105040517D01*
X158556695Y-105104588D01*
X158499260Y-105169092D01*
X158454312Y-105236955D01*
X158418105Y-105311103D01*
X158386890Y-105394461D01*
X158386857Y-105394559D01*
X158358493Y-105491479D01*
X158336609Y-105597409D01*
X158320918Y-105717410D01*
X158311132Y-105856540D01*
X158306964Y-106019857D01*
X158308126Y-106212421D01*
X158314330Y-106439290D01*
X158319647Y-106577145D01*
X158329630Y-106803352D01*
X158339412Y-106992698D01*
X158349537Y-107150649D01*
X158360550Y-107282671D01*
X158372993Y-107394229D01*
X158387410Y-107490789D01*
X158404346Y-107577818D01*
X158424343Y-107660781D01*
X158429271Y-107679264D01*
X158488305Y-107856387D01*
X158560140Y-107996557D01*
X158646834Y-108103764D01*
X158648992Y-108105848D01*
X158694895Y-108145632D01*
X158739525Y-108169952D01*
X158797680Y-108184524D01*
X158878423Y-108194497D01*
X158935142Y-108198070D01*
X159028240Y-108201391D01*
X159151765Y-108204357D01*
X159299764Y-108206865D01*
X159466284Y-108208815D01*
X159645372Y-108210102D01*
X159814684Y-108210612D01*
X160018191Y-108210721D01*
X160184133Y-108210453D01*
X160317278Y-108209567D01*
X160422391Y-108207823D01*
X160504241Y-108204978D01*
X160567596Y-108200794D01*
X160617223Y-108195028D01*
X160657890Y-108187440D01*
X160694363Y-108177790D01*
X160731411Y-108165836D01*
X160736657Y-108164053D01*
X160908454Y-108089585D01*
X161089550Y-107982242D01*
X161272079Y-107847846D01*
X161448175Y-107692218D01*
X161609974Y-107521180D01*
X161618227Y-107511530D01*
X161677006Y-107443141D01*
X161728804Y-107387545D01*
X161778681Y-107343503D01*
X161831696Y-107309778D01*
X161892910Y-107285133D01*
X161967383Y-107268329D01*
X162060174Y-107258129D01*
X162176344Y-107253294D01*
X162320952Y-107252587D01*
X162499059Y-107254771D01*
X162656487Y-107257539D01*
X163064124Y-107264918D01*
X163182661Y-107193651D01*
X163250233Y-107145853D01*
X163332132Y-107077397D01*
X163415080Y-106999715D01*
X163452358Y-106961455D01*
X163547583Y-106852675D01*
X163636245Y-106734715D01*
X163720547Y-106603177D01*
X163802695Y-106453663D01*
X163884893Y-106281774D01*
X163969344Y-106083111D01*
X164058255Y-105853277D01*
X164153829Y-105587873D01*
X164183276Y-105503134D01*
X164265988Y-105264593D01*
X164337582Y-105060975D01*
X164400111Y-104886969D01*
X164455627Y-104737264D01*
X164506185Y-104606551D01*
X164553836Y-104489518D01*
X164600633Y-104380856D01*
X164648630Y-104275255D01*
X164698802Y-104169634D01*
X164757681Y-104045296D01*
X164826584Y-103895775D01*
X164899222Y-103734953D01*
X164969309Y-103576713D01*
X165015109Y-103471134D01*
X165115954Y-103241122D01*
X165206775Y-103045495D01*
X165290632Y-102878374D01*
X165370582Y-102733883D01*
X165449684Y-102606145D01*
X165513566Y-102513239D01*
X165607148Y-102392055D01*
X165697741Y-102297483D01*
X165798987Y-102217439D01*
X165924527Y-102139837D01*
X165953017Y-102123951D01*
X166033497Y-102081786D01*
X166095811Y-102057288D01*
X166157730Y-102045750D01*
X166237027Y-102042466D01*
X166261031Y-102042384D01*
X166347519Y-102044616D01*
X166415047Y-102054197D01*
X166481073Y-102075452D01*
X166563053Y-102112707D01*
X166581593Y-102121813D01*
X166730074Y-102213462D01*
X166859750Y-102329291D01*
X166967485Y-102463166D01*
X167050142Y-102608951D01*
X167104584Y-102760509D01*
X167127674Y-102911705D01*
X167116277Y-103056404D01*
X167095603Y-103127245D01*
X167044633Y-103221698D01*
X166958788Y-103330974D01*
X166841480Y-103451835D01*
X166696121Y-103581046D01*
X166526124Y-103715370D01*
X166334902Y-103851569D01*
X166324743Y-103858438D01*
X166075553Y-104028575D01*
X165856303Y-104184165D01*
X165664285Y-104329372D01*
X165496792Y-104468361D01*
X165351115Y-104605296D01*
X165224547Y-104744342D01*
X165114379Y-104889663D01*
X165017904Y-105045424D01*
X164932413Y-105215789D01*
X164855198Y-105404923D01*
X164783552Y-105616990D01*
X164714767Y-105856154D01*
X164646134Y-106126581D01*
X164574945Y-106432435D01*
X164535227Y-106610446D01*
X164476124Y-106864571D01*
X164417718Y-107089345D01*
X164360884Y-107281894D01*
X164306497Y-107439342D01*
X164255432Y-107558812D01*
X164234760Y-107597711D01*
X164175829Y-107690706D01*
X164095535Y-107804934D01*
X164001421Y-107930698D01*
X163901029Y-108058299D01*
X163801901Y-108178042D01*
X163711580Y-108280230D01*
X163670043Y-108323770D01*
X163555552Y-108429312D01*
X163447418Y-108509708D01*
X163389064Y-108543059D01*
X163264850Y-108604050D01*
X162100684Y-108604992D01*
X161645600Y-108724030D01*
X161464487Y-108770770D01*
X161304914Y-108809943D01*
X161160917Y-108842116D01*
X161026531Y-108867853D01*
X160895792Y-108887721D01*
X160762735Y-108902284D01*
X160621395Y-108912110D01*
X160465807Y-108917763D01*
X160290008Y-108919809D01*
X160088033Y-108918814D01*
X159853916Y-108915344D01*
X159666517Y-108911720D01*
X159478105Y-108907749D01*
X159326605Y-108904064D01*
X159206601Y-108900228D01*
X159112678Y-108895806D01*
X159039419Y-108890360D01*
X158981409Y-108883455D01*
X158933233Y-108874654D01*
X158889475Y-108863521D01*
X158844719Y-108849620D01*
X158828367Y-108844204D01*
X158648448Y-108768598D01*
X158487606Y-108667448D01*
X158345241Y-108539295D01*
X158220756Y-108382676D01*
X158113552Y-108196131D01*
X158023030Y-107978198D01*
X157948592Y-107727418D01*
X157889639Y-107442329D01*
X157845572Y-107121470D01*
X157815794Y-106763380D01*
X157799705Y-106366598D01*
X157798963Y-106331684D01*
X157795790Y-106104034D01*
X157796472Y-105912416D01*
X157801530Y-105750660D01*
X157811484Y-105612597D01*
X157826853Y-105492055D01*
X157848158Y-105382866D01*
X157875920Y-105278860D01*
X157892021Y-105227967D01*
X157955008Y-105066816D01*
X158033520Y-104922921D01*
X158131769Y-104792195D01*
X158253962Y-104670551D01*
X158404308Y-104553904D01*
X158587017Y-104438168D01*
X158806297Y-104319256D01*
X158851600Y-104296387D01*
X159062255Y-104186644D01*
X159237323Y-104083327D01*
X159379743Y-103981274D01*
X159492449Y-103875323D01*
X159578378Y-103760311D01*
X159640466Y-103631076D01*
X159681650Y-103482454D01*
X159704866Y-103309285D01*
X159713050Y-103106404D01*
X159709139Y-102868649D01*
X159706219Y-102793800D01*
X159696363Y-102536879D01*
X159690772Y-102317273D01*
X159689890Y-102130138D01*
X159694161Y-101970629D01*
X159704029Y-101833901D01*
X159719937Y-101715108D01*
X159742330Y-101609407D01*
X159771650Y-101511951D01*
X159808342Y-101417897D01*
X159838255Y-101352314D01*
X159869771Y-101291078D01*
X159905093Y-101234108D01*
X159949543Y-101174900D01*
X160008446Y-101106951D01*
X160087123Y-101023757D01*
X160190898Y-100918814D01*
X160202635Y-100907099D01*
X160392623Y-100726743D01*
X160572661Y-100577122D01*
X160753044Y-100451793D01*
X160944068Y-100344312D01*
X161156027Y-100248235D01*
X161399219Y-100157121D01*
X161403196Y-100155746D01*
X161625267Y-100079034D01*
X161718755Y-100114737D01*
G37*
X161718755Y-100114737D02*
X161827067Y-100178180D01*
X161918724Y-100277100D01*
X161992109Y-100407403D01*
X162045602Y-100564992D01*
X162077587Y-100745772D01*
X162086445Y-100945649D01*
X162082767Y-101036034D01*
X162057913Y-101255258D01*
X162014293Y-101437174D01*
X161951650Y-101582549D01*
X161869732Y-101692145D01*
X161861223Y-101700452D01*
X161835259Y-101723122D01*
X161807201Y-101740412D01*
X161769864Y-101754055D01*
X161716067Y-101765788D01*
X161638627Y-101777343D01*
X161530360Y-101790457D01*
X161451826Y-101799325D01*
X161308256Y-101817355D01*
X161153981Y-101840061D01*
X161005041Y-101864883D01*
X160877475Y-101889260D01*
X160846138Y-101896021D01*
X160737141Y-101921037D01*
X160661731Y-101940833D01*
X160612016Y-101958654D01*
X160580104Y-101977745D01*
X160558105Y-102001352D01*
X160546156Y-102019398D01*
X160515911Y-102087102D01*
X160488084Y-102189057D01*
X160462355Y-102327100D01*
X160438402Y-102503068D01*
X160415907Y-102718797D01*
X160407386Y-102814967D01*
X160386706Y-103040626D01*
X160365595Y-103231376D01*
X160342911Y-103394634D01*
X160317513Y-103537820D01*
X160288257Y-103668351D01*
X160259698Y-103774227D01*
X160220851Y-103899583D01*
X160180385Y-104005904D01*
X160133944Y-104097366D01*
X160077172Y-104178147D01*
X160005714Y-104252423D01*
X159915214Y-104324372D01*
X159801317Y-104398171D01*
X159659666Y-104477997D01*
X159485907Y-104568027D01*
X159373367Y-104624254D01*
X159162322Y-104730047D01*
X158986246Y-104821644D01*
X158841393Y-104901971D01*
X158724014Y-104973953D01*
X158630364Y-105040517D01*
X158556695Y-105104588D01*
X158499260Y-105169092D01*
X158454312Y-105236955D01*
X158418105Y-105311103D01*
X158386890Y-105394461D01*
X158386857Y-105394559D01*
X158358493Y-105491479D01*
X158336609Y-105597409D01*
X158320918Y-105717410D01*
X158311132Y-105856540D01*
X158306964Y-106019857D01*
X158308126Y-106212421D01*
X158314330Y-106439290D01*
X158319647Y-106577145D01*
X158329630Y-106803352D01*
X158339412Y-106992698D01*
X158349537Y-107150649D01*
X158360550Y-107282671D01*
X158372993Y-107394229D01*
X158387410Y-107490789D01*
X158404346Y-107577818D01*
X158424343Y-107660781D01*
X158429271Y-107679264D01*
X158488305Y-107856387D01*
X158560140Y-107996557D01*
X158646834Y-108103764D01*
X158648992Y-108105848D01*
X158694895Y-108145632D01*
X158739525Y-108169952D01*
X158797680Y-108184524D01*
X158878423Y-108194497D01*
X158935142Y-108198070D01*
X159028240Y-108201391D01*
X159151765Y-108204357D01*
X159299764Y-108206865D01*
X159466284Y-108208815D01*
X159645372Y-108210102D01*
X159814684Y-108210612D01*
X160018191Y-108210721D01*
X160184133Y-108210453D01*
X160317278Y-108209567D01*
X160422391Y-108207823D01*
X160504241Y-108204978D01*
X160567596Y-108200794D01*
X160617223Y-108195028D01*
X160657890Y-108187440D01*
X160694363Y-108177790D01*
X160731411Y-108165836D01*
X160736657Y-108164053D01*
X160908454Y-108089585D01*
X161089550Y-107982242D01*
X161272079Y-107847846D01*
X161448175Y-107692218D01*
X161609974Y-107521180D01*
X161618227Y-107511530D01*
X161677006Y-107443141D01*
X161728804Y-107387545D01*
X161778681Y-107343503D01*
X161831696Y-107309778D01*
X161892910Y-107285133D01*
X161967383Y-107268329D01*
X162060174Y-107258129D01*
X162176344Y-107253294D01*
X162320952Y-107252587D01*
X162499059Y-107254771D01*
X162656487Y-107257539D01*
X163064124Y-107264918D01*
X163182661Y-107193651D01*
X163250233Y-107145853D01*
X163332132Y-107077397D01*
X163415080Y-106999715D01*
X163452358Y-106961455D01*
X163547583Y-106852675D01*
X163636245Y-106734715D01*
X163720547Y-106603177D01*
X163802695Y-106453663D01*
X163884893Y-106281774D01*
X163969344Y-106083111D01*
X164058255Y-105853277D01*
X164153829Y-105587873D01*
X164183276Y-105503134D01*
X164265988Y-105264593D01*
X164337582Y-105060975D01*
X164400111Y-104886969D01*
X164455627Y-104737264D01*
X164506185Y-104606551D01*
X164553836Y-104489518D01*
X164600633Y-104380856D01*
X164648630Y-104275255D01*
X164698802Y-104169634D01*
X164757681Y-104045296D01*
X164826584Y-103895775D01*
X164899222Y-103734953D01*
X164969309Y-103576713D01*
X165015109Y-103471134D01*
X165115954Y-103241122D01*
X165206775Y-103045495D01*
X165290632Y-102878374D01*
X165370582Y-102733883D01*
X165449684Y-102606145D01*
X165513566Y-102513239D01*
X165607148Y-102392055D01*
X165697741Y-102297483D01*
X165798987Y-102217439D01*
X165924527Y-102139837D01*
X165953017Y-102123951D01*
X166033497Y-102081786D01*
X166095811Y-102057288D01*
X166157730Y-102045750D01*
X166237027Y-102042466D01*
X166261031Y-102042384D01*
X166347519Y-102044616D01*
X166415047Y-102054197D01*
X166481073Y-102075452D01*
X166563053Y-102112707D01*
X166581593Y-102121813D01*
X166730074Y-102213462D01*
X166859750Y-102329291D01*
X166967485Y-102463166D01*
X167050142Y-102608951D01*
X167104584Y-102760509D01*
X167127674Y-102911705D01*
X167116277Y-103056404D01*
X167095603Y-103127245D01*
X167044633Y-103221698D01*
X166958788Y-103330974D01*
X166841480Y-103451835D01*
X166696121Y-103581046D01*
X166526124Y-103715370D01*
X166334902Y-103851569D01*
X166324743Y-103858438D01*
X166075553Y-104028575D01*
X165856303Y-104184165D01*
X165664285Y-104329372D01*
X165496792Y-104468361D01*
X165351115Y-104605296D01*
X165224547Y-104744342D01*
X165114379Y-104889663D01*
X165017904Y-105045424D01*
X164932413Y-105215789D01*
X164855198Y-105404923D01*
X164783552Y-105616990D01*
X164714767Y-105856154D01*
X164646134Y-106126581D01*
X164574945Y-106432435D01*
X164535227Y-106610446D01*
X164476124Y-106864571D01*
X164417718Y-107089345D01*
X164360884Y-107281894D01*
X164306497Y-107439342D01*
X164255432Y-107558812D01*
X164234760Y-107597711D01*
X164175829Y-107690706D01*
X164095535Y-107804934D01*
X164001421Y-107930698D01*
X163901029Y-108058299D01*
X163801901Y-108178042D01*
X163711580Y-108280230D01*
X163670043Y-108323770D01*
X163555552Y-108429312D01*
X163447418Y-108509708D01*
X163389064Y-108543059D01*
X163264850Y-108604050D01*
X162100684Y-108604992D01*
X161645600Y-108724030D01*
X161464487Y-108770770D01*
X161304914Y-108809943D01*
X161160917Y-108842116D01*
X161026531Y-108867853D01*
X160895792Y-108887721D01*
X160762735Y-108902284D01*
X160621395Y-108912110D01*
X160465807Y-108917763D01*
X160290008Y-108919809D01*
X160088033Y-108918814D01*
X159853916Y-108915344D01*
X159666517Y-108911720D01*
X159478105Y-108907749D01*
X159326605Y-108904064D01*
X159206601Y-108900228D01*
X159112678Y-108895806D01*
X159039419Y-108890360D01*
X158981409Y-108883455D01*
X158933233Y-108874654D01*
X158889475Y-108863521D01*
X158844719Y-108849620D01*
X158828367Y-108844204D01*
X158648448Y-108768598D01*
X158487606Y-108667448D01*
X158345241Y-108539295D01*
X158220756Y-108382676D01*
X158113552Y-108196131D01*
X158023030Y-107978198D01*
X157948592Y-107727418D01*
X157889639Y-107442329D01*
X157845572Y-107121470D01*
X157815794Y-106763380D01*
X157799705Y-106366598D01*
X157798963Y-106331684D01*
X157795790Y-106104034D01*
X157796472Y-105912416D01*
X157801530Y-105750660D01*
X157811484Y-105612597D01*
X157826853Y-105492055D01*
X157848158Y-105382866D01*
X157875920Y-105278860D01*
X157892021Y-105227967D01*
X157955008Y-105066816D01*
X158033520Y-104922921D01*
X158131769Y-104792195D01*
X158253962Y-104670551D01*
X158404308Y-104553904D01*
X158587017Y-104438168D01*
X158806297Y-104319256D01*
X158851600Y-104296387D01*
X159062255Y-104186644D01*
X159237323Y-104083327D01*
X159379743Y-103981274D01*
X159492449Y-103875323D01*
X159578378Y-103760311D01*
X159640466Y-103631076D01*
X159681650Y-103482454D01*
X159704866Y-103309285D01*
X159713050Y-103106404D01*
X159709139Y-102868649D01*
X159706219Y-102793800D01*
X159696363Y-102536879D01*
X159690772Y-102317273D01*
X159689890Y-102130138D01*
X159694161Y-101970629D01*
X159704029Y-101833901D01*
X159719937Y-101715108D01*
X159742330Y-101609407D01*
X159771650Y-101511951D01*
X159808342Y-101417897D01*
X159838255Y-101352314D01*
X159869771Y-101291078D01*
X159905093Y-101234108D01*
X159949543Y-101174900D01*
X160008446Y-101106951D01*
X160087123Y-101023757D01*
X160190898Y-100918814D01*
X160202635Y-100907099D01*
X160392623Y-100726743D01*
X160572661Y-100577122D01*
X160753044Y-100451793D01*
X160944068Y-100344312D01*
X161156027Y-100248235D01*
X161399219Y-100157121D01*
X161403196Y-100155746D01*
X161625267Y-100079034D01*
X161718755Y-100114737D01*
G36*
X148812949Y-102073380D02*
G01*
X148860934Y-102084290D01*
X149041398Y-102144847D01*
X149238097Y-102235255D01*
X149443283Y-102350478D01*
X149649208Y-102485482D01*
X149848126Y-102635231D01*
X150032288Y-102794690D01*
X150175702Y-102938733D01*
X150315270Y-103106011D01*
X150453436Y-103303125D01*
X150591076Y-103531839D01*
X150729069Y-103793916D01*
X150868289Y-104091119D01*
X151009615Y-104425211D01*
X151153924Y-104797953D01*
X151293244Y-105185634D01*
X151387327Y-105454955D01*
X151469806Y-105688384D01*
X151542354Y-105890227D01*
X151606643Y-106064788D01*
X151664345Y-106216374D01*
X151717133Y-106349291D01*
X151766677Y-106467844D01*
X151814651Y-106576339D01*
X151862727Y-106679081D01*
X151912459Y-106780145D01*
X152045469Y-107023425D01*
X152191722Y-107252650D01*
X152347063Y-107462765D01*
X152507337Y-107648711D01*
X152668391Y-107805434D01*
X152826071Y-107927875D01*
X152886346Y-107965587D01*
X153011983Y-108022373D01*
X153172515Y-108069372D01*
X153361512Y-108105988D01*
X153572547Y-108131624D01*
X153799190Y-108145682D01*
X154035012Y-108147567D01*
X154273585Y-108136681D01*
X154491899Y-108114624D01*
X154630253Y-108096943D01*
X154733259Y-108085394D01*
X154807519Y-108080451D01*
X154859640Y-108082593D01*
X154896226Y-108092294D01*
X154923881Y-108110030D01*
X154949211Y-108136278D01*
X154959381Y-108148320D01*
X155014455Y-108244213D01*
X155048307Y-108371655D01*
X155059742Y-108524900D01*
X155056304Y-108614634D01*
X155033953Y-108778126D01*
X154993973Y-108907776D01*
X154937174Y-109001289D01*
X154911085Y-109027093D01*
X154879304Y-109050634D01*
X154844705Y-109066485D01*
X154800444Y-109074920D01*
X154739676Y-109076215D01*
X154655554Y-109070642D01*
X154541234Y-109058477D01*
X154438350Y-109046033D01*
X154330403Y-109032669D01*
X154195599Y-109015990D01*
X154049097Y-108997871D01*
X153906052Y-108980188D01*
X153866850Y-108975343D01*
X153660688Y-108945236D01*
X153479557Y-108907233D01*
X153313770Y-108857543D01*
X153153641Y-108792379D01*
X152989480Y-108707952D01*
X152811602Y-108600471D01*
X152670934Y-108507590D01*
X152476087Y-108369155D01*
X152299671Y-108229076D01*
X152139140Y-108083543D01*
X151991943Y-107928748D01*
X151855534Y-107760880D01*
X151727365Y-107576132D01*
X151604887Y-107370694D01*
X151485552Y-107140756D01*
X151366812Y-106882511D01*
X151246119Y-106592148D01*
X151120925Y-106265860D01*
X151059902Y-106099279D01*
X150923555Y-105737045D01*
X150790078Y-105413526D01*
X150657515Y-105125377D01*
X150523905Y-104869256D01*
X150387291Y-104641821D01*
X150245714Y-104439727D01*
X150097215Y-104259633D01*
X149939837Y-104098195D01*
X149830193Y-104000277D01*
X149738028Y-103924847D01*
X149654827Y-103864503D01*
X149573993Y-103817318D01*
X149488932Y-103781360D01*
X149393048Y-103754702D01*
X149279745Y-103735414D01*
X149142427Y-103721566D01*
X148974499Y-103711230D01*
X148818600Y-103704388D01*
X148646347Y-103697073D01*
X148510087Y-103689812D01*
X148403490Y-103681755D01*
X148320227Y-103672048D01*
X148253967Y-103659842D01*
X148198381Y-103644285D01*
X148147137Y-103624526D01*
X148114610Y-103609715D01*
X148011640Y-103537989D01*
X147929111Y-103432498D01*
X147869057Y-103297598D01*
X147833511Y-103137645D01*
X147824080Y-102987362D01*
X147840026Y-102780303D01*
X147885564Y-102590586D01*
X147958483Y-102422637D01*
X148056571Y-102280884D01*
X148177620Y-102169754D01*
X148256340Y-102121656D01*
X148371535Y-102080381D01*
X148511622Y-102058025D01*
X148663220Y-102055415D01*
X148812949Y-102073380D01*
G37*
X148812949Y-102073380D02*
X148860934Y-102084290D01*
X149041398Y-102144847D01*
X149238097Y-102235255D01*
X149443283Y-102350478D01*
X149649208Y-102485482D01*
X149848126Y-102635231D01*
X150032288Y-102794690D01*
X150175702Y-102938733D01*
X150315270Y-103106011D01*
X150453436Y-103303125D01*
X150591076Y-103531839D01*
X150729069Y-103793916D01*
X150868289Y-104091119D01*
X151009615Y-104425211D01*
X151153924Y-104797953D01*
X151293244Y-105185634D01*
X151387327Y-105454955D01*
X151469806Y-105688384D01*
X151542354Y-105890227D01*
X151606643Y-106064788D01*
X151664345Y-106216374D01*
X151717133Y-106349291D01*
X151766677Y-106467844D01*
X151814651Y-106576339D01*
X151862727Y-106679081D01*
X151912459Y-106780145D01*
X152045469Y-107023425D01*
X152191722Y-107252650D01*
X152347063Y-107462765D01*
X152507337Y-107648711D01*
X152668391Y-107805434D01*
X152826071Y-107927875D01*
X152886346Y-107965587D01*
X153011983Y-108022373D01*
X153172515Y-108069372D01*
X153361512Y-108105988D01*
X153572547Y-108131624D01*
X153799190Y-108145682D01*
X154035012Y-108147567D01*
X154273585Y-108136681D01*
X154491899Y-108114624D01*
X154630253Y-108096943D01*
X154733259Y-108085394D01*
X154807519Y-108080451D01*
X154859640Y-108082593D01*
X154896226Y-108092294D01*
X154923881Y-108110030D01*
X154949211Y-108136278D01*
X154959381Y-108148320D01*
X155014455Y-108244213D01*
X155048307Y-108371655D01*
X155059742Y-108524900D01*
X155056304Y-108614634D01*
X155033953Y-108778126D01*
X154993973Y-108907776D01*
X154937174Y-109001289D01*
X154911085Y-109027093D01*
X154879304Y-109050634D01*
X154844705Y-109066485D01*
X154800444Y-109074920D01*
X154739676Y-109076215D01*
X154655554Y-109070642D01*
X154541234Y-109058477D01*
X154438350Y-109046033D01*
X154330403Y-109032669D01*
X154195599Y-109015990D01*
X154049097Y-108997871D01*
X153906052Y-108980188D01*
X153866850Y-108975343D01*
X153660688Y-108945236D01*
X153479557Y-108907233D01*
X153313770Y-108857543D01*
X153153641Y-108792379D01*
X152989480Y-108707952D01*
X152811602Y-108600471D01*
X152670934Y-108507590D01*
X152476087Y-108369155D01*
X152299671Y-108229076D01*
X152139140Y-108083543D01*
X151991943Y-107928748D01*
X151855534Y-107760880D01*
X151727365Y-107576132D01*
X151604887Y-107370694D01*
X151485552Y-107140756D01*
X151366812Y-106882511D01*
X151246119Y-106592148D01*
X151120925Y-106265860D01*
X151059902Y-106099279D01*
X150923555Y-105737045D01*
X150790078Y-105413526D01*
X150657515Y-105125377D01*
X150523905Y-104869256D01*
X150387291Y-104641821D01*
X150245714Y-104439727D01*
X150097215Y-104259633D01*
X149939837Y-104098195D01*
X149830193Y-104000277D01*
X149738028Y-103924847D01*
X149654827Y-103864503D01*
X149573993Y-103817318D01*
X149488932Y-103781360D01*
X149393048Y-103754702D01*
X149279745Y-103735414D01*
X149142427Y-103721566D01*
X148974499Y-103711230D01*
X148818600Y-103704388D01*
X148646347Y-103697073D01*
X148510087Y-103689812D01*
X148403490Y-103681755D01*
X148320227Y-103672048D01*
X148253967Y-103659842D01*
X148198381Y-103644285D01*
X148147137Y-103624526D01*
X148114610Y-103609715D01*
X148011640Y-103537989D01*
X147929111Y-103432498D01*
X147869057Y-103297598D01*
X147833511Y-103137645D01*
X147824080Y-102987362D01*
X147840026Y-102780303D01*
X147885564Y-102590586D01*
X147958483Y-102422637D01*
X148056571Y-102280884D01*
X148177620Y-102169754D01*
X148256340Y-102121656D01*
X148371535Y-102080381D01*
X148511622Y-102058025D01*
X148663220Y-102055415D01*
X148812949Y-102073380D01*
G36*
X148596350Y-104604311D02*
G01*
X148733256Y-104607994D01*
X148832668Y-104618333D01*
X148898973Y-104635798D01*
X148902286Y-104637211D01*
X148933014Y-104658078D01*
X148990922Y-104704446D01*
X149072252Y-104772919D01*
X149173249Y-104860098D01*
X149290155Y-104962589D01*
X149419215Y-105076993D01*
X149556671Y-105199914D01*
X149698767Y-105327956D01*
X149841747Y-105457722D01*
X149981853Y-105585815D01*
X150115330Y-105708838D01*
X150238421Y-105823394D01*
X150347368Y-105926087D01*
X150438417Y-106013521D01*
X150507809Y-106082297D01*
X150550505Y-106127550D01*
X150625921Y-106220471D01*
X150716588Y-106343483D01*
X150817697Y-106489398D01*
X150924434Y-106651032D01*
X151031989Y-106821197D01*
X151135550Y-106992707D01*
X151174090Y-107058884D01*
X151241163Y-107175321D01*
X151321358Y-107314469D01*
X151406630Y-107462377D01*
X151488939Y-107605092D01*
X151527952Y-107672717D01*
X151600219Y-107795709D01*
X151675388Y-107919753D01*
X151747071Y-108034566D01*
X151808879Y-108129868D01*
X151842607Y-108179124D01*
X152053951Y-108442407D01*
X152300548Y-108689096D01*
X152576981Y-108914345D01*
X152877832Y-109113306D01*
X152903767Y-109128507D01*
X153088592Y-109219992D01*
X153295036Y-109291483D01*
X153526451Y-109343547D01*
X153786186Y-109376747D01*
X154077595Y-109391650D01*
X154404028Y-109388821D01*
X154439854Y-109387542D01*
X154822359Y-109372993D01*
X154887755Y-109428021D01*
X154952119Y-109505968D01*
X154994653Y-109614437D01*
X155016159Y-109756073D01*
X155019282Y-109861946D01*
X155008075Y-110023388D01*
X154976487Y-110148686D01*
X154924147Y-110239002D01*
X154887465Y-110273382D01*
X154823727Y-110302492D01*
X154726589Y-110318782D01*
X154593921Y-110322391D01*
X154423589Y-110313459D01*
X154359679Y-110307870D01*
X154125285Y-110277582D01*
X153880079Y-110229353D01*
X153617880Y-110161608D01*
X153332502Y-110072768D01*
X153055927Y-109975388D01*
X152814826Y-109872178D01*
X152590415Y-109744690D01*
X152374585Y-109587565D01*
X152159226Y-109395439D01*
X152119363Y-109356204D01*
X152012684Y-109246982D01*
X151913783Y-109139080D01*
X151817256Y-109025791D01*
X151717700Y-108900410D01*
X151609713Y-108756230D01*
X151487891Y-108586546D01*
X151411033Y-108477050D01*
X151330856Y-108363694D01*
X151247437Y-108248455D01*
X151168545Y-108141888D01*
X151101949Y-108054550D01*
X151076154Y-108021967D01*
X151017863Y-107954085D01*
X150934153Y-107862537D01*
X150830390Y-107752717D01*
X150711939Y-107630018D01*
X150584164Y-107499835D01*
X150452431Y-107367562D01*
X150322105Y-107238592D01*
X150198551Y-107118319D01*
X150087134Y-107012137D01*
X149993219Y-106925440D01*
X149932806Y-106872482D01*
X149753519Y-106739829D01*
X149542658Y-106617971D01*
X149297836Y-106505852D01*
X149016668Y-106402419D01*
X148696768Y-106306615D01*
X148587406Y-106277801D01*
X148433211Y-106236804D01*
X148312710Y-106200058D01*
X148218052Y-106163690D01*
X148141385Y-106123830D01*
X148074856Y-106076605D01*
X148010614Y-106018143D01*
X147965145Y-105970978D01*
X147872219Y-105854998D01*
X147809694Y-105733909D01*
X147770104Y-105592201D01*
X147762737Y-105550631D01*
X147753448Y-105366528D01*
X147783531Y-105189558D01*
X147850121Y-105025176D01*
X147950353Y-104878839D01*
X148081362Y-104756000D01*
X148225873Y-104668782D01*
X148290379Y-104639668D01*
X148344617Y-104620830D01*
X148401064Y-104610095D01*
X148472195Y-104605293D01*
X148570488Y-104604252D01*
X148596350Y-104604311D01*
G37*
X148596350Y-104604311D02*
X148733256Y-104607994D01*
X148832668Y-104618333D01*
X148898973Y-104635798D01*
X148902286Y-104637211D01*
X148933014Y-104658078D01*
X148990922Y-104704446D01*
X149072252Y-104772919D01*
X149173249Y-104860098D01*
X149290155Y-104962589D01*
X149419215Y-105076993D01*
X149556671Y-105199914D01*
X149698767Y-105327956D01*
X149841747Y-105457722D01*
X149981853Y-105585815D01*
X150115330Y-105708838D01*
X150238421Y-105823394D01*
X150347368Y-105926087D01*
X150438417Y-106013521D01*
X150507809Y-106082297D01*
X150550505Y-106127550D01*
X150625921Y-106220471D01*
X150716588Y-106343483D01*
X150817697Y-106489398D01*
X150924434Y-106651032D01*
X151031989Y-106821197D01*
X151135550Y-106992707D01*
X151174090Y-107058884D01*
X151241163Y-107175321D01*
X151321358Y-107314469D01*
X151406630Y-107462377D01*
X151488939Y-107605092D01*
X151527952Y-107672717D01*
X151600219Y-107795709D01*
X151675388Y-107919753D01*
X151747071Y-108034566D01*
X151808879Y-108129868D01*
X151842607Y-108179124D01*
X152053951Y-108442407D01*
X152300548Y-108689096D01*
X152576981Y-108914345D01*
X152877832Y-109113306D01*
X152903767Y-109128507D01*
X153088592Y-109219992D01*
X153295036Y-109291483D01*
X153526451Y-109343547D01*
X153786186Y-109376747D01*
X154077595Y-109391650D01*
X154404028Y-109388821D01*
X154439854Y-109387542D01*
X154822359Y-109372993D01*
X154887755Y-109428021D01*
X154952119Y-109505968D01*
X154994653Y-109614437D01*
X155016159Y-109756073D01*
X155019282Y-109861946D01*
X155008075Y-110023388D01*
X154976487Y-110148686D01*
X154924147Y-110239002D01*
X154887465Y-110273382D01*
X154823727Y-110302492D01*
X154726589Y-110318782D01*
X154593921Y-110322391D01*
X154423589Y-110313459D01*
X154359679Y-110307870D01*
X154125285Y-110277582D01*
X153880079Y-110229353D01*
X153617880Y-110161608D01*
X153332502Y-110072768D01*
X153055927Y-109975388D01*
X152814826Y-109872178D01*
X152590415Y-109744690D01*
X152374585Y-109587565D01*
X152159226Y-109395439D01*
X152119363Y-109356204D01*
X152012684Y-109246982D01*
X151913783Y-109139080D01*
X151817256Y-109025791D01*
X151717700Y-108900410D01*
X151609713Y-108756230D01*
X151487891Y-108586546D01*
X151411033Y-108477050D01*
X151330856Y-108363694D01*
X151247437Y-108248455D01*
X151168545Y-108141888D01*
X151101949Y-108054550D01*
X151076154Y-108021967D01*
X151017863Y-107954085D01*
X150934153Y-107862537D01*
X150830390Y-107752717D01*
X150711939Y-107630018D01*
X150584164Y-107499835D01*
X150452431Y-107367562D01*
X150322105Y-107238592D01*
X150198551Y-107118319D01*
X150087134Y-107012137D01*
X149993219Y-106925440D01*
X149932806Y-106872482D01*
X149753519Y-106739829D01*
X149542658Y-106617971D01*
X149297836Y-106505852D01*
X149016668Y-106402419D01*
X148696768Y-106306615D01*
X148587406Y-106277801D01*
X148433211Y-106236804D01*
X148312710Y-106200058D01*
X148218052Y-106163690D01*
X148141385Y-106123830D01*
X148074856Y-106076605D01*
X148010614Y-106018143D01*
X147965145Y-105970978D01*
X147872219Y-105854998D01*
X147809694Y-105733909D01*
X147770104Y-105592201D01*
X147762737Y-105550631D01*
X147753448Y-105366528D01*
X147783531Y-105189558D01*
X147850121Y-105025176D01*
X147950353Y-104878839D01*
X148081362Y-104756000D01*
X148225873Y-104668782D01*
X148290379Y-104639668D01*
X148344617Y-104620830D01*
X148401064Y-104610095D01*
X148472195Y-104605293D01*
X148570488Y-104604252D01*
X148596350Y-104604311D01*
G36*
X158039263Y-95781585D02*
G01*
X158403627Y-95795288D01*
X158750886Y-95818418D01*
X158771229Y-95820127D01*
X159181304Y-95862232D01*
X159555243Y-95916318D01*
X159897878Y-95983708D01*
X160214041Y-96065722D01*
X160508566Y-96163682D01*
X160786284Y-96278910D01*
X161052028Y-96412727D01*
X161157836Y-96472798D01*
X161369089Y-96612072D01*
X161544862Y-96763313D01*
X161691679Y-96933232D01*
X161816067Y-97128539D01*
X161840843Y-97175139D01*
X161985201Y-97475752D01*
X162101962Y-97762957D01*
X162189959Y-98033196D01*
X162248026Y-98282910D01*
X162274444Y-98498529D01*
X162275354Y-98657128D01*
X162255200Y-98783518D01*
X162210797Y-98883862D01*
X162138962Y-98964321D01*
X162036509Y-99031060D01*
X161986909Y-99054994D01*
X161833982Y-99107147D01*
X161668105Y-99135161D01*
X161496338Y-99140377D01*
X161325737Y-99124136D01*
X161163360Y-99087777D01*
X161016263Y-99032641D01*
X160891505Y-98960068D01*
X160796143Y-98871400D01*
X160762240Y-98822403D01*
X160734009Y-98756037D01*
X160718709Y-98673794D01*
X160716468Y-98570584D01*
X160727410Y-98441319D01*
X160751659Y-98280910D01*
X160779159Y-98134569D01*
X160806671Y-97989458D01*
X160824816Y-97873558D01*
X160834875Y-97775105D01*
X160838128Y-97682339D01*
X160836737Y-97605592D01*
X160831620Y-97504426D01*
X160822354Y-97429683D01*
X160805154Y-97365457D01*
X160776240Y-97295840D01*
X160750258Y-97241958D01*
X160650875Y-97084538D01*
X160518069Y-96940761D01*
X160360400Y-96818853D01*
X160238692Y-96750390D01*
X160074622Y-96683460D01*
X159879662Y-96626026D01*
X159651565Y-96577672D01*
X159388083Y-96537979D01*
X159086967Y-96506532D01*
X158819850Y-96487174D01*
X158663532Y-96479649D01*
X158476048Y-96473793D01*
X158265545Y-96469608D01*
X158040173Y-96467093D01*
X157808083Y-96466249D01*
X157577422Y-96467074D01*
X157356340Y-96469569D01*
X157152987Y-96473733D01*
X156975511Y-96479568D01*
X156832063Y-96487071D01*
X156830184Y-96487199D01*
X156402141Y-96526406D01*
X156010910Y-96583642D01*
X155654740Y-96659468D01*
X155331882Y-96754447D01*
X155040585Y-96869140D01*
X154779099Y-97004108D01*
X154545673Y-97159913D01*
X154423008Y-97259565D01*
X154360063Y-97318973D01*
X154293734Y-97388883D01*
X154230869Y-97461106D01*
X154178321Y-97527453D01*
X154142939Y-97579737D01*
X154131433Y-97608081D01*
X154148256Y-97627234D01*
X154191578Y-97658531D01*
X154231975Y-97683391D01*
X154338257Y-97751829D01*
X154461469Y-97842183D01*
X154593338Y-97947325D01*
X154725596Y-98060125D01*
X154849971Y-98173455D01*
X154958193Y-98280185D01*
X155041992Y-98373187D01*
X155062788Y-98399533D01*
X155156181Y-98550896D01*
X155225503Y-98726251D01*
X155271008Y-98927706D01*
X155292950Y-99157374D01*
X155291584Y-99417365D01*
X155267164Y-99709790D01*
X155242703Y-99893967D01*
X155201274Y-100219074D01*
X155177134Y-100527611D01*
X155171361Y-100823345D01*
X155185033Y-101110044D01*
X155219229Y-101391478D01*
X155275025Y-101671414D01*
X155353500Y-101953621D01*
X155455731Y-102241868D01*
X155582797Y-102539922D01*
X155735775Y-102851552D01*
X155915742Y-103180526D01*
X156123778Y-103530613D01*
X156360959Y-103905581D01*
X156412911Y-103985302D01*
X156535471Y-104206423D01*
X156633523Y-104458584D01*
X156688529Y-104656467D01*
X156708675Y-104744679D01*
X156726132Y-104831253D01*
X156741044Y-104919683D01*
X156753556Y-105013460D01*
X156763812Y-105116078D01*
X156771956Y-105231029D01*
X156778134Y-105361807D01*
X156782489Y-105511903D01*
X156785167Y-105684811D01*
X156786310Y-105884023D01*
X156786065Y-106113032D01*
X156784575Y-106375332D01*
X156781985Y-106674414D01*
X156780011Y-106868384D01*
X156778034Y-107087329D01*
X156777557Y-107269216D01*
X156779167Y-107419310D01*
X156783454Y-107542875D01*
X156791005Y-107645178D01*
X156802408Y-107731484D01*
X156818251Y-107807056D01*
X156839122Y-107877162D01*
X156865610Y-107947065D01*
X156898301Y-108022031D01*
X156912254Y-108052467D01*
X157003297Y-108227538D01*
X157110173Y-108388589D01*
X157241204Y-108547136D01*
X157357335Y-108668353D01*
X157594495Y-108877592D01*
X157856808Y-109061192D01*
X158136983Y-109215230D01*
X158427725Y-109335784D01*
X158721743Y-109418934D01*
X158772282Y-109429212D01*
X158868640Y-109443244D01*
X159001520Y-109456060D01*
X159165120Y-109467456D01*
X159353642Y-109477230D01*
X159561285Y-109485180D01*
X159782248Y-109491103D01*
X160010732Y-109494795D01*
X160240937Y-109496055D01*
X160467063Y-109494679D01*
X160588801Y-109492701D01*
X160823003Y-109489153D01*
X161019886Y-109489342D01*
X161184358Y-109494060D01*
X161321330Y-109504095D01*
X161435712Y-109520238D01*
X161532415Y-109543280D01*
X161616350Y-109574011D01*
X161692425Y-109613220D01*
X161765551Y-109661697D01*
X161799889Y-109687590D01*
X161986566Y-109830859D01*
X162146171Y-109948774D01*
X162283174Y-110044216D01*
X162402047Y-110120065D01*
X162507260Y-110179203D01*
X162603282Y-110224510D01*
X162677218Y-110252988D01*
X162735329Y-110268981D01*
X162774793Y-110265548D01*
X162801669Y-110251373D01*
X162838066Y-110238747D01*
X162907916Y-110227464D01*
X163013713Y-110217259D01*
X163157948Y-110207865D01*
X163256752Y-110202845D01*
X163429167Y-110193470D01*
X163565766Y-110182424D01*
X163673063Y-110168210D01*
X163757576Y-110149331D01*
X163825820Y-110124289D01*
X163884312Y-110091587D01*
X163939566Y-110049727D01*
X163945682Y-110044538D01*
X164032405Y-109949125D01*
X164104930Y-109822427D01*
X164164092Y-109662105D01*
X164210731Y-109465823D01*
X164245683Y-109231242D01*
X164249530Y-109196717D01*
X164288635Y-108938982D01*
X164354095Y-108648204D01*
X164445889Y-108324449D01*
X164563994Y-107967786D01*
X164708388Y-107578281D01*
X164879050Y-107156002D01*
X165016019Y-106836634D01*
X165098112Y-106647451D01*
X165165390Y-106486978D01*
X165221148Y-106345660D01*
X165268677Y-106213943D01*
X165311273Y-106082271D01*
X165352228Y-105941090D01*
X165394836Y-105780845D01*
X165435549Y-105619550D01*
X165493900Y-105397972D01*
X165550353Y-105213999D01*
X165607410Y-105063134D01*
X165667573Y-104940878D01*
X165733344Y-104842733D01*
X165807226Y-104764200D01*
X165891720Y-104700782D01*
X165971170Y-104656663D01*
X166139015Y-104597260D01*
X166314477Y-104578491D01*
X166493714Y-104600236D01*
X166672883Y-104662377D01*
X166708141Y-104679525D01*
X166812099Y-104747408D01*
X166917279Y-104841131D01*
X167010321Y-104947156D01*
X167077865Y-105051948D01*
X167080040Y-105056316D01*
X167108434Y-105119339D01*
X167125851Y-105176341D01*
X167134857Y-105241415D01*
X167138013Y-105328654D01*
X167138210Y-105376134D01*
X167129807Y-105536764D01*
X167101917Y-105668914D01*
X167050144Y-105783657D01*
X166970093Y-105892065D01*
X166907127Y-105958217D01*
X166807090Y-106047375D01*
X166685032Y-106142495D01*
X166553105Y-106235157D01*
X166423458Y-106316943D01*
X166308244Y-106379435D01*
X166281100Y-106391946D01*
X166104223Y-106482917D01*
X165924644Y-106599470D01*
X165752364Y-106733556D01*
X165597383Y-106877129D01*
X165469701Y-107022139D01*
X165429498Y-107077295D01*
X165299683Y-107295411D01*
X165179982Y-107554157D01*
X165070579Y-107853012D01*
X164971658Y-108191453D01*
X164883402Y-108568959D01*
X164855130Y-108709884D01*
X164830023Y-108840174D01*
X164802783Y-108981526D01*
X164776996Y-109115338D01*
X164759272Y-109207300D01*
X164661462Y-109609490D01*
X164521916Y-110017494D01*
X164340567Y-110431510D01*
X164333736Y-110445550D01*
X164223989Y-110659885D01*
X164118814Y-110841786D01*
X164012501Y-110999886D01*
X163899338Y-111142817D01*
X163800602Y-111251455D01*
X163673251Y-111373479D01*
X163555789Y-111461768D01*
X163440585Y-111521125D01*
X163320011Y-111556356D01*
X163314730Y-111557376D01*
X163250877Y-111565276D01*
X163152580Y-111572209D01*
X163027723Y-111578063D01*
X162884185Y-111582723D01*
X162729848Y-111586077D01*
X162572594Y-111588010D01*
X162420304Y-111588411D01*
X162280861Y-111587164D01*
X162162144Y-111584158D01*
X162072037Y-111579278D01*
X162037488Y-111575749D01*
X161960339Y-111562306D01*
X161898964Y-111545969D01*
X161866389Y-111530223D01*
X161866077Y-111529890D01*
X161852393Y-111497972D01*
X161836436Y-111435583D01*
X161821000Y-111354279D01*
X161816306Y-111323967D01*
X161766225Y-111077067D01*
X161692062Y-110851039D01*
X161596017Y-110650016D01*
X161480292Y-110478132D01*
X161347085Y-110339523D01*
X161256264Y-110271839D01*
X161108508Y-110198849D01*
X160932417Y-110148791D01*
X160735987Y-110122874D01*
X160527220Y-110122308D01*
X160373586Y-110138303D01*
X160262045Y-110150995D01*
X160129176Y-110158429D01*
X159971192Y-110160566D01*
X159784306Y-110157371D01*
X159564730Y-110148806D01*
X159308677Y-110134836D01*
X159179684Y-110126720D01*
X158923636Y-110108931D01*
X158703813Y-110090700D01*
X158514114Y-110070787D01*
X158348439Y-110047946D01*
X158200685Y-110020936D01*
X158064752Y-109988514D01*
X157934540Y-109949436D01*
X157803948Y-109902459D01*
X157666873Y-109846341D01*
X157549850Y-109794663D01*
X157360598Y-109689347D01*
X157172721Y-109547483D01*
X156990866Y-109374731D01*
X156819678Y-109176752D01*
X156663806Y-108959204D01*
X156527895Y-108727746D01*
X156416592Y-108488040D01*
X156367466Y-108354491D01*
X156318415Y-108194241D01*
X156283504Y-108046228D01*
X156261124Y-107898310D01*
X156249667Y-107738343D01*
X156247525Y-107554183D01*
X156249151Y-107461050D01*
X156254502Y-107175729D01*
X156255490Y-106926085D01*
X156251634Y-106705638D01*
X156242456Y-106507912D01*
X156227476Y-106326428D01*
X156206213Y-106154706D01*
X156178189Y-105986270D01*
X156142923Y-105814641D01*
X156119852Y-105714800D01*
X156071614Y-105525686D01*
X156015627Y-105331307D01*
X155950122Y-105126698D01*
X155873328Y-104906895D01*
X155783478Y-104666934D01*
X155678799Y-104401848D01*
X155557525Y-104106675D01*
X155486111Y-103936800D01*
X155345583Y-103600274D01*
X155223031Y-103296578D01*
X155116910Y-103020979D01*
X155025675Y-102768745D01*
X154947782Y-102535141D01*
X154881685Y-102315435D01*
X154825838Y-102104893D01*
X154778698Y-101898783D01*
X154738719Y-101692370D01*
X154722614Y-101597884D01*
X154693599Y-101378163D01*
X154672939Y-101131569D01*
X154661275Y-100872855D01*
X154659251Y-100616772D01*
X154667509Y-100378074D01*
X154668668Y-100359634D01*
X154681937Y-100134115D01*
X154688983Y-99946238D01*
X154688795Y-99791637D01*
X154680360Y-99665940D01*
X154662668Y-99564781D01*
X154634706Y-99483790D01*
X154595464Y-99418600D01*
X154543931Y-99364841D01*
X154479094Y-99318144D01*
X154419718Y-99284385D01*
X154311350Y-99227217D01*
X153159404Y-99238027D01*
X153086510Y-99165133D01*
X153018629Y-99072553D01*
X152962789Y-98946474D01*
X152920782Y-98794471D01*
X152894397Y-98624119D01*
X152885424Y-98442993D01*
X152889264Y-98330461D01*
X152911031Y-98045111D01*
X152936011Y-97797802D01*
X152965239Y-97584300D01*
X152999752Y-97400368D01*
X153040584Y-97241770D01*
X153088773Y-97104270D01*
X153145352Y-96983633D01*
X153211359Y-96875624D01*
X153261521Y-96808028D01*
X153389357Y-96672054D01*
X153552099Y-96538452D01*
X153742383Y-96411843D01*
X153952840Y-96296850D01*
X154176105Y-96198095D01*
X154311683Y-96149043D01*
X154538965Y-96083045D01*
X154803349Y-96022474D01*
X155099906Y-95967695D01*
X155423709Y-95919072D01*
X155769829Y-95876967D01*
X156133339Y-95841745D01*
X156509311Y-95813768D01*
X156892818Y-95793400D01*
X157278930Y-95781004D01*
X157662721Y-95776945D01*
X158039263Y-95781585D01*
G37*
X158039263Y-95781585D02*
X158403627Y-95795288D01*
X158750886Y-95818418D01*
X158771229Y-95820127D01*
X159181304Y-95862232D01*
X159555243Y-95916318D01*
X159897878Y-95983708D01*
X160214041Y-96065722D01*
X160508566Y-96163682D01*
X160786284Y-96278910D01*
X161052028Y-96412727D01*
X161157836Y-96472798D01*
X161369089Y-96612072D01*
X161544862Y-96763313D01*
X161691679Y-96933232D01*
X161816067Y-97128539D01*
X161840843Y-97175139D01*
X161985201Y-97475752D01*
X162101962Y-97762957D01*
X162189959Y-98033196D01*
X162248026Y-98282910D01*
X162274444Y-98498529D01*
X162275354Y-98657128D01*
X162255200Y-98783518D01*
X162210797Y-98883862D01*
X162138962Y-98964321D01*
X162036509Y-99031060D01*
X161986909Y-99054994D01*
X161833982Y-99107147D01*
X161668105Y-99135161D01*
X161496338Y-99140377D01*
X161325737Y-99124136D01*
X161163360Y-99087777D01*
X161016263Y-99032641D01*
X160891505Y-98960068D01*
X160796143Y-98871400D01*
X160762240Y-98822403D01*
X160734009Y-98756037D01*
X160718709Y-98673794D01*
X160716468Y-98570584D01*
X160727410Y-98441319D01*
X160751659Y-98280910D01*
X160779159Y-98134569D01*
X160806671Y-97989458D01*
X160824816Y-97873558D01*
X160834875Y-97775105D01*
X160838128Y-97682339D01*
X160836737Y-97605592D01*
X160831620Y-97504426D01*
X160822354Y-97429683D01*
X160805154Y-97365457D01*
X160776240Y-97295840D01*
X160750258Y-97241958D01*
X160650875Y-97084538D01*
X160518069Y-96940761D01*
X160360400Y-96818853D01*
X160238692Y-96750390D01*
X160074622Y-96683460D01*
X159879662Y-96626026D01*
X159651565Y-96577672D01*
X159388083Y-96537979D01*
X159086967Y-96506532D01*
X158819850Y-96487174D01*
X158663532Y-96479649D01*
X158476048Y-96473793D01*
X158265545Y-96469608D01*
X158040173Y-96467093D01*
X157808083Y-96466249D01*
X157577422Y-96467074D01*
X157356340Y-96469569D01*
X157152987Y-96473733D01*
X156975511Y-96479568D01*
X156832063Y-96487071D01*
X156830184Y-96487199D01*
X156402141Y-96526406D01*
X156010910Y-96583642D01*
X155654740Y-96659468D01*
X155331882Y-96754447D01*
X155040585Y-96869140D01*
X154779099Y-97004108D01*
X154545673Y-97159913D01*
X154423008Y-97259565D01*
X154360063Y-97318973D01*
X154293734Y-97388883D01*
X154230869Y-97461106D01*
X154178321Y-97527453D01*
X154142939Y-97579737D01*
X154131433Y-97608081D01*
X154148256Y-97627234D01*
X154191578Y-97658531D01*
X154231975Y-97683391D01*
X154338257Y-97751829D01*
X154461469Y-97842183D01*
X154593338Y-97947325D01*
X154725596Y-98060125D01*
X154849971Y-98173455D01*
X154958193Y-98280185D01*
X155041992Y-98373187D01*
X155062788Y-98399533D01*
X155156181Y-98550896D01*
X155225503Y-98726251D01*
X155271008Y-98927706D01*
X155292950Y-99157374D01*
X155291584Y-99417365D01*
X155267164Y-99709790D01*
X155242703Y-99893967D01*
X155201274Y-100219074D01*
X155177134Y-100527611D01*
X155171361Y-100823345D01*
X155185033Y-101110044D01*
X155219229Y-101391478D01*
X155275025Y-101671414D01*
X155353500Y-101953621D01*
X155455731Y-102241868D01*
X155582797Y-102539922D01*
X155735775Y-102851552D01*
X155915742Y-103180526D01*
X156123778Y-103530613D01*
X156360959Y-103905581D01*
X156412911Y-103985302D01*
X156535471Y-104206423D01*
X156633523Y-104458584D01*
X156688529Y-104656467D01*
X156708675Y-104744679D01*
X156726132Y-104831253D01*
X156741044Y-104919683D01*
X156753556Y-105013460D01*
X156763812Y-105116078D01*
X156771956Y-105231029D01*
X156778134Y-105361807D01*
X156782489Y-105511903D01*
X156785167Y-105684811D01*
X156786310Y-105884023D01*
X156786065Y-106113032D01*
X156784575Y-106375332D01*
X156781985Y-106674414D01*
X156780011Y-106868384D01*
X156778034Y-107087329D01*
X156777557Y-107269216D01*
X156779167Y-107419310D01*
X156783454Y-107542875D01*
X156791005Y-107645178D01*
X156802408Y-107731484D01*
X156818251Y-107807056D01*
X156839122Y-107877162D01*
X156865610Y-107947065D01*
X156898301Y-108022031D01*
X156912254Y-108052467D01*
X157003297Y-108227538D01*
X157110173Y-108388589D01*
X157241204Y-108547136D01*
X157357335Y-108668353D01*
X157594495Y-108877592D01*
X157856808Y-109061192D01*
X158136983Y-109215230D01*
X158427725Y-109335784D01*
X158721743Y-109418934D01*
X158772282Y-109429212D01*
X158868640Y-109443244D01*
X159001520Y-109456060D01*
X159165120Y-109467456D01*
X159353642Y-109477230D01*
X159561285Y-109485180D01*
X159782248Y-109491103D01*
X160010732Y-109494795D01*
X160240937Y-109496055D01*
X160467063Y-109494679D01*
X160588801Y-109492701D01*
X160823003Y-109489153D01*
X161019886Y-109489342D01*
X161184358Y-109494060D01*
X161321330Y-109504095D01*
X161435712Y-109520238D01*
X161532415Y-109543280D01*
X161616350Y-109574011D01*
X161692425Y-109613220D01*
X161765551Y-109661697D01*
X161799889Y-109687590D01*
X161986566Y-109830859D01*
X162146171Y-109948774D01*
X162283174Y-110044216D01*
X162402047Y-110120065D01*
X162507260Y-110179203D01*
X162603282Y-110224510D01*
X162677218Y-110252988D01*
X162735329Y-110268981D01*
X162774793Y-110265548D01*
X162801669Y-110251373D01*
X162838066Y-110238747D01*
X162907916Y-110227464D01*
X163013713Y-110217259D01*
X163157948Y-110207865D01*
X163256752Y-110202845D01*
X163429167Y-110193470D01*
X163565766Y-110182424D01*
X163673063Y-110168210D01*
X163757576Y-110149331D01*
X163825820Y-110124289D01*
X163884312Y-110091587D01*
X163939566Y-110049727D01*
X163945682Y-110044538D01*
X164032405Y-109949125D01*
X164104930Y-109822427D01*
X164164092Y-109662105D01*
X164210731Y-109465823D01*
X164245683Y-109231242D01*
X164249530Y-109196717D01*
X164288635Y-108938982D01*
X164354095Y-108648204D01*
X164445889Y-108324449D01*
X164563994Y-107967786D01*
X164708388Y-107578281D01*
X164879050Y-107156002D01*
X165016019Y-106836634D01*
X165098112Y-106647451D01*
X165165390Y-106486978D01*
X165221148Y-106345660D01*
X165268677Y-106213943D01*
X165311273Y-106082271D01*
X165352228Y-105941090D01*
X165394836Y-105780845D01*
X165435549Y-105619550D01*
X165493900Y-105397972D01*
X165550353Y-105213999D01*
X165607410Y-105063134D01*
X165667573Y-104940878D01*
X165733344Y-104842733D01*
X165807226Y-104764200D01*
X165891720Y-104700782D01*
X165971170Y-104656663D01*
X166139015Y-104597260D01*
X166314477Y-104578491D01*
X166493714Y-104600236D01*
X166672883Y-104662377D01*
X166708141Y-104679525D01*
X166812099Y-104747408D01*
X166917279Y-104841131D01*
X167010321Y-104947156D01*
X167077865Y-105051948D01*
X167080040Y-105056316D01*
X167108434Y-105119339D01*
X167125851Y-105176341D01*
X167134857Y-105241415D01*
X167138013Y-105328654D01*
X167138210Y-105376134D01*
X167129807Y-105536764D01*
X167101917Y-105668914D01*
X167050144Y-105783657D01*
X166970093Y-105892065D01*
X166907127Y-105958217D01*
X166807090Y-106047375D01*
X166685032Y-106142495D01*
X166553105Y-106235157D01*
X166423458Y-106316943D01*
X166308244Y-106379435D01*
X166281100Y-106391946D01*
X166104223Y-106482917D01*
X165924644Y-106599470D01*
X165752364Y-106733556D01*
X165597383Y-106877129D01*
X165469701Y-107022139D01*
X165429498Y-107077295D01*
X165299683Y-107295411D01*
X165179982Y-107554157D01*
X165070579Y-107853012D01*
X164971658Y-108191453D01*
X164883402Y-108568959D01*
X164855130Y-108709884D01*
X164830023Y-108840174D01*
X164802783Y-108981526D01*
X164776996Y-109115338D01*
X164759272Y-109207300D01*
X164661462Y-109609490D01*
X164521916Y-110017494D01*
X164340567Y-110431510D01*
X164333736Y-110445550D01*
X164223989Y-110659885D01*
X164118814Y-110841786D01*
X164012501Y-110999886D01*
X163899338Y-111142817D01*
X163800602Y-111251455D01*
X163673251Y-111373479D01*
X163555789Y-111461768D01*
X163440585Y-111521125D01*
X163320011Y-111556356D01*
X163314730Y-111557376D01*
X163250877Y-111565276D01*
X163152580Y-111572209D01*
X163027723Y-111578063D01*
X162884185Y-111582723D01*
X162729848Y-111586077D01*
X162572594Y-111588010D01*
X162420304Y-111588411D01*
X162280861Y-111587164D01*
X162162144Y-111584158D01*
X162072037Y-111579278D01*
X162037488Y-111575749D01*
X161960339Y-111562306D01*
X161898964Y-111545969D01*
X161866389Y-111530223D01*
X161866077Y-111529890D01*
X161852393Y-111497972D01*
X161836436Y-111435583D01*
X161821000Y-111354279D01*
X161816306Y-111323967D01*
X161766225Y-111077067D01*
X161692062Y-110851039D01*
X161596017Y-110650016D01*
X161480292Y-110478132D01*
X161347085Y-110339523D01*
X161256264Y-110271839D01*
X161108508Y-110198849D01*
X160932417Y-110148791D01*
X160735987Y-110122874D01*
X160527220Y-110122308D01*
X160373586Y-110138303D01*
X160262045Y-110150995D01*
X160129176Y-110158429D01*
X159971192Y-110160566D01*
X159784306Y-110157371D01*
X159564730Y-110148806D01*
X159308677Y-110134836D01*
X159179684Y-110126720D01*
X158923636Y-110108931D01*
X158703813Y-110090700D01*
X158514114Y-110070787D01*
X158348439Y-110047946D01*
X158200685Y-110020936D01*
X158064752Y-109988514D01*
X157934540Y-109949436D01*
X157803948Y-109902459D01*
X157666873Y-109846341D01*
X157549850Y-109794663D01*
X157360598Y-109689347D01*
X157172721Y-109547483D01*
X156990866Y-109374731D01*
X156819678Y-109176752D01*
X156663806Y-108959204D01*
X156527895Y-108727746D01*
X156416592Y-108488040D01*
X156367466Y-108354491D01*
X156318415Y-108194241D01*
X156283504Y-108046228D01*
X156261124Y-107898310D01*
X156249667Y-107738343D01*
X156247525Y-107554183D01*
X156249151Y-107461050D01*
X156254502Y-107175729D01*
X156255490Y-106926085D01*
X156251634Y-106705638D01*
X156242456Y-106507912D01*
X156227476Y-106326428D01*
X156206213Y-106154706D01*
X156178189Y-105986270D01*
X156142923Y-105814641D01*
X156119852Y-105714800D01*
X156071614Y-105525686D01*
X156015627Y-105331307D01*
X155950122Y-105126698D01*
X155873328Y-104906895D01*
X155783478Y-104666934D01*
X155678799Y-104401848D01*
X155557525Y-104106675D01*
X155486111Y-103936800D01*
X155345583Y-103600274D01*
X155223031Y-103296578D01*
X155116910Y-103020979D01*
X155025675Y-102768745D01*
X154947782Y-102535141D01*
X154881685Y-102315435D01*
X154825838Y-102104893D01*
X154778698Y-101898783D01*
X154738719Y-101692370D01*
X154722614Y-101597884D01*
X154693599Y-101378163D01*
X154672939Y-101131569D01*
X154661275Y-100872855D01*
X154659251Y-100616772D01*
X154667509Y-100378074D01*
X154668668Y-100359634D01*
X154681937Y-100134115D01*
X154688983Y-99946238D01*
X154688795Y-99791637D01*
X154680360Y-99665940D01*
X154662668Y-99564781D01*
X154634706Y-99483790D01*
X154595464Y-99418600D01*
X154543931Y-99364841D01*
X154479094Y-99318144D01*
X154419718Y-99284385D01*
X154311350Y-99227217D01*
X153159404Y-99238027D01*
X153086510Y-99165133D01*
X153018629Y-99072553D01*
X152962789Y-98946474D01*
X152920782Y-98794471D01*
X152894397Y-98624119D01*
X152885424Y-98442993D01*
X152889264Y-98330461D01*
X152911031Y-98045111D01*
X152936011Y-97797802D01*
X152965239Y-97584300D01*
X152999752Y-97400368D01*
X153040584Y-97241770D01*
X153088773Y-97104270D01*
X153145352Y-96983633D01*
X153211359Y-96875624D01*
X153261521Y-96808028D01*
X153389357Y-96672054D01*
X153552099Y-96538452D01*
X153742383Y-96411843D01*
X153952840Y-96296850D01*
X154176105Y-96198095D01*
X154311683Y-96149043D01*
X154538965Y-96083045D01*
X154803349Y-96022474D01*
X155099906Y-95967695D01*
X155423709Y-95919072D01*
X155769829Y-95876967D01*
X156133339Y-95841745D01*
X156509311Y-95813768D01*
X156892818Y-95793400D01*
X157278930Y-95781004D01*
X157662721Y-95776945D01*
X158039263Y-95781585D01*
G36*
X148678975Y-107134637D02*
G01*
X148821200Y-107165538D01*
X148983543Y-107213468D01*
X149158270Y-107275474D01*
X149337648Y-107348605D01*
X149513945Y-107429909D01*
X149679428Y-107516433D01*
X149826363Y-107605226D01*
X149826973Y-107605628D01*
X149907790Y-107663573D01*
X149992584Y-107734250D01*
X150083543Y-107820201D01*
X150182854Y-107923969D01*
X150292706Y-108048095D01*
X150415285Y-108195122D01*
X150552781Y-108367592D01*
X150707379Y-108568048D01*
X150881268Y-108799032D01*
X151050376Y-109027384D01*
X151198871Y-109228320D01*
X151326283Y-109398444D01*
X151435998Y-109541486D01*
X151531403Y-109661179D01*
X151615884Y-109761255D01*
X151692826Y-109845445D01*
X151765616Y-109917483D01*
X151837640Y-109981098D01*
X151912284Y-110040025D01*
X151992934Y-110097995D01*
X152067684Y-110148602D01*
X152189260Y-110224146D01*
X152330418Y-110303433D01*
X152479695Y-110380707D01*
X152625627Y-110450215D01*
X152756752Y-110506202D01*
X152840267Y-110536431D01*
X152936541Y-110566224D01*
X153021541Y-110589356D01*
X153102558Y-110606532D01*
X153186883Y-110618459D01*
X153281807Y-110625844D01*
X153394620Y-110629392D01*
X153532613Y-110629811D01*
X153703078Y-110627807D01*
X153771600Y-110626666D01*
X153933452Y-110623959D01*
X154094733Y-110621455D01*
X154246362Y-110619281D01*
X154379257Y-110617564D01*
X154484333Y-110616430D01*
X154530077Y-110616083D01*
X154748804Y-110614884D01*
X154809803Y-110683189D01*
X154877104Y-110789771D01*
X154918251Y-110929297D01*
X154933139Y-111101344D01*
X154931493Y-111184150D01*
X154914601Y-111340138D01*
X154880262Y-111457966D01*
X154828279Y-111538137D01*
X154777719Y-111573796D01*
X154735535Y-111583022D01*
X154660848Y-111589923D01*
X154563435Y-111594330D01*
X154453070Y-111596071D01*
X154339530Y-111594975D01*
X154232590Y-111590871D01*
X154152600Y-111584729D01*
X153891562Y-111550945D01*
X153616295Y-111503049D01*
X153350738Y-111445240D01*
X153335380Y-111441485D01*
X153196933Y-111405841D01*
X153048240Y-111364885D01*
X152896865Y-111320959D01*
X152750372Y-111276408D01*
X152616327Y-111233575D01*
X152502293Y-111194802D01*
X152415835Y-111162432D01*
X152372651Y-111143263D01*
X152194131Y-111036930D01*
X152002240Y-110895507D01*
X151801081Y-110722461D01*
X151594752Y-110521264D01*
X151437274Y-110351956D01*
X151216729Y-110109974D01*
X151013761Y-109898107D01*
X150822636Y-109711130D01*
X150637624Y-109543817D01*
X150452993Y-109390944D01*
X150263010Y-109247286D01*
X150101351Y-109134148D01*
X149935448Y-109034619D01*
X149758214Y-108955302D01*
X149559824Y-108892517D01*
X149330454Y-108842583D01*
X149316017Y-108840008D01*
X149169659Y-108816950D01*
X149009552Y-108796351D01*
X148848966Y-108779573D01*
X148701170Y-108767973D01*
X148579436Y-108762912D01*
X148562585Y-108762800D01*
X148398271Y-108742443D01*
X148243047Y-108684369D01*
X148102806Y-108593074D01*
X147983442Y-108473052D01*
X147890850Y-108328801D01*
X147845031Y-108215529D01*
X147807093Y-108028582D01*
X147809487Y-107842942D01*
X147850757Y-107664172D01*
X147929448Y-107497835D01*
X148044104Y-107349495D01*
X148081024Y-107313265D01*
X148210972Y-107213716D01*
X148348196Y-107152487D01*
X148502620Y-107125686D01*
X148564600Y-107123717D01*
X148678975Y-107134637D01*
G37*
X148678975Y-107134637D02*
X148821200Y-107165538D01*
X148983543Y-107213468D01*
X149158270Y-107275474D01*
X149337648Y-107348605D01*
X149513945Y-107429909D01*
X149679428Y-107516433D01*
X149826363Y-107605226D01*
X149826973Y-107605628D01*
X149907790Y-107663573D01*
X149992584Y-107734250D01*
X150083543Y-107820201D01*
X150182854Y-107923969D01*
X150292706Y-108048095D01*
X150415285Y-108195122D01*
X150552781Y-108367592D01*
X150707379Y-108568048D01*
X150881268Y-108799032D01*
X151050376Y-109027384D01*
X151198871Y-109228320D01*
X151326283Y-109398444D01*
X151435998Y-109541486D01*
X151531403Y-109661179D01*
X151615884Y-109761255D01*
X151692826Y-109845445D01*
X151765616Y-109917483D01*
X151837640Y-109981098D01*
X151912284Y-110040025D01*
X151992934Y-110097995D01*
X152067684Y-110148602D01*
X152189260Y-110224146D01*
X152330418Y-110303433D01*
X152479695Y-110380707D01*
X152625627Y-110450215D01*
X152756752Y-110506202D01*
X152840267Y-110536431D01*
X152936541Y-110566224D01*
X153021541Y-110589356D01*
X153102558Y-110606532D01*
X153186883Y-110618459D01*
X153281807Y-110625844D01*
X153394620Y-110629392D01*
X153532613Y-110629811D01*
X153703078Y-110627807D01*
X153771600Y-110626666D01*
X153933452Y-110623959D01*
X154094733Y-110621455D01*
X154246362Y-110619281D01*
X154379257Y-110617564D01*
X154484333Y-110616430D01*
X154530077Y-110616083D01*
X154748804Y-110614884D01*
X154809803Y-110683189D01*
X154877104Y-110789771D01*
X154918251Y-110929297D01*
X154933139Y-111101344D01*
X154931493Y-111184150D01*
X154914601Y-111340138D01*
X154880262Y-111457966D01*
X154828279Y-111538137D01*
X154777719Y-111573796D01*
X154735535Y-111583022D01*
X154660848Y-111589923D01*
X154563435Y-111594330D01*
X154453070Y-111596071D01*
X154339530Y-111594975D01*
X154232590Y-111590871D01*
X154152600Y-111584729D01*
X153891562Y-111550945D01*
X153616295Y-111503049D01*
X153350738Y-111445240D01*
X153335380Y-111441485D01*
X153196933Y-111405841D01*
X153048240Y-111364885D01*
X152896865Y-111320959D01*
X152750372Y-111276408D01*
X152616327Y-111233575D01*
X152502293Y-111194802D01*
X152415835Y-111162432D01*
X152372651Y-111143263D01*
X152194131Y-111036930D01*
X152002240Y-110895507D01*
X151801081Y-110722461D01*
X151594752Y-110521264D01*
X151437274Y-110351956D01*
X151216729Y-110109974D01*
X151013761Y-109898107D01*
X150822636Y-109711130D01*
X150637624Y-109543817D01*
X150452993Y-109390944D01*
X150263010Y-109247286D01*
X150101351Y-109134148D01*
X149935448Y-109034619D01*
X149758214Y-108955302D01*
X149559824Y-108892517D01*
X149330454Y-108842583D01*
X149316017Y-108840008D01*
X149169659Y-108816950D01*
X149009552Y-108796351D01*
X148848966Y-108779573D01*
X148701170Y-108767973D01*
X148579436Y-108762912D01*
X148562585Y-108762800D01*
X148398271Y-108742443D01*
X148243047Y-108684369D01*
X148102806Y-108593074D01*
X147983442Y-108473052D01*
X147890850Y-108328801D01*
X147845031Y-108215529D01*
X147807093Y-108028582D01*
X147809487Y-107842942D01*
X147850757Y-107664172D01*
X147929448Y-107497835D01*
X148044104Y-107349495D01*
X148081024Y-107313265D01*
X148210972Y-107213716D01*
X148348196Y-107152487D01*
X148502620Y-107125686D01*
X148564600Y-107123717D01*
X148678975Y-107134637D01*
G36*
X166510597Y-107128658D02*
G01*
X166671852Y-107175642D01*
X166821831Y-107247370D01*
X166946717Y-107338459D01*
X166956039Y-107347216D01*
X167069605Y-107482638D01*
X167143967Y-107631213D01*
X167179234Y-107790377D01*
X167175510Y-107957567D01*
X167132902Y-108130220D01*
X167051515Y-108305774D01*
X166931457Y-108481666D01*
X166907916Y-108510568D01*
X166791744Y-108649919D01*
X166548289Y-108727961D01*
X166313971Y-108811970D01*
X166114322Y-108902332D01*
X165951801Y-108997772D01*
X165828868Y-109097012D01*
X165819983Y-109105930D01*
X165699798Y-109239301D01*
X165594658Y-109379929D01*
X165501405Y-109534041D01*
X165416884Y-109707866D01*
X165337937Y-109907632D01*
X165261409Y-110139567D01*
X165213928Y-110301772D01*
X165157997Y-110495662D01*
X165107798Y-110657042D01*
X165059750Y-110794700D01*
X165010275Y-110917424D01*
X164955794Y-111034003D01*
X164892729Y-111153223D01*
X164817499Y-111283872D01*
X164806255Y-111302800D01*
X164663771Y-111536051D01*
X164535480Y-111733017D01*
X164419175Y-111896438D01*
X164312648Y-112029057D01*
X164213691Y-112133614D01*
X164120096Y-112212852D01*
X164029657Y-112269512D01*
X164026423Y-112271170D01*
X163903867Y-112323049D01*
X163751205Y-112371126D01*
X163580666Y-112411931D01*
X163444767Y-112436227D01*
X163341699Y-112448100D01*
X163216464Y-112456875D01*
X163081374Y-112462262D01*
X162948741Y-112463970D01*
X162830879Y-112461711D01*
X162740098Y-112455194D01*
X162725100Y-112453178D01*
X162305012Y-112370632D01*
X161907724Y-112254047D01*
X161534469Y-112103904D01*
X161186479Y-111920681D01*
X160937273Y-111757897D01*
X160805100Y-111670710D01*
X160683800Y-111607753D01*
X160572156Y-111565301D01*
X160492367Y-111540453D01*
X160428180Y-111524872D01*
X160366340Y-111517215D01*
X160293591Y-111516136D01*
X160196679Y-111520290D01*
X160153265Y-111522812D01*
X160048403Y-111528713D01*
X159977038Y-111530798D01*
X159930424Y-111527980D01*
X159899811Y-111519170D01*
X159876453Y-111503278D01*
X159858496Y-111486120D01*
X159804275Y-111405751D01*
X159766693Y-111296413D01*
X159745617Y-111168009D01*
X159740913Y-111030438D01*
X159752448Y-110893602D01*
X159780089Y-110767401D01*
X159823701Y-110661737D01*
X159870471Y-110598173D01*
X159902793Y-110567549D01*
X159931741Y-110549852D01*
X159968905Y-110542725D01*
X160025878Y-110543811D01*
X160106741Y-110550120D01*
X160280007Y-110566944D01*
X160441110Y-110586878D01*
X160583556Y-110608846D01*
X160700849Y-110631772D01*
X160786496Y-110654580D01*
X160821660Y-110668596D01*
X160864297Y-110694260D01*
X160907461Y-110729761D01*
X160954715Y-110779535D01*
X161009622Y-110848014D01*
X161075748Y-110939635D01*
X161156654Y-111058831D01*
X161252233Y-111204388D01*
X161365651Y-111373609D01*
X161466732Y-111510301D01*
X161561997Y-111619837D01*
X161657961Y-111707591D01*
X161761143Y-111778937D01*
X161878059Y-111839250D01*
X162015228Y-111893903D01*
X162139055Y-111935607D01*
X162393524Y-112003103D01*
X162650794Y-112045311D01*
X162905636Y-112062783D01*
X163152819Y-112056070D01*
X163387115Y-112025727D01*
X163603294Y-111972303D01*
X163796127Y-111896352D01*
X163960384Y-111798427D01*
X164036857Y-111735208D01*
X164113723Y-111655314D01*
X164189831Y-111558737D01*
X164268644Y-111440130D01*
X164353628Y-111294150D01*
X164448248Y-111115449D01*
X164482746Y-111047254D01*
X164555033Y-110899880D01*
X164620244Y-110759290D01*
X164680020Y-110620528D01*
X164736001Y-110478639D01*
X164789830Y-110328667D01*
X164843147Y-110165659D01*
X164897593Y-109984658D01*
X164954809Y-109780710D01*
X165016437Y-109548859D01*
X165084117Y-109284151D01*
X165137694Y-109069717D01*
X165184110Y-108884803D01*
X165230821Y-108702776D01*
X165276069Y-108530203D01*
X165318095Y-108373649D01*
X165355141Y-108239680D01*
X165385447Y-108134863D01*
X165404164Y-108074884D01*
X165478365Y-107870270D01*
X165557613Y-107685309D01*
X165639551Y-107524069D01*
X165721821Y-107390620D01*
X165802064Y-107289029D01*
X165877922Y-107223365D01*
X165906616Y-107208024D01*
X165979312Y-107182893D01*
X166075879Y-107157274D01*
X166180440Y-107134600D01*
X166277117Y-107118300D01*
X166350032Y-107111808D01*
X166351879Y-107111800D01*
X166510597Y-107128658D01*
G37*
X166510597Y-107128658D02*
X166671852Y-107175642D01*
X166821831Y-107247370D01*
X166946717Y-107338459D01*
X166956039Y-107347216D01*
X167069605Y-107482638D01*
X167143967Y-107631213D01*
X167179234Y-107790377D01*
X167175510Y-107957567D01*
X167132902Y-108130220D01*
X167051515Y-108305774D01*
X166931457Y-108481666D01*
X166907916Y-108510568D01*
X166791744Y-108649919D01*
X166548289Y-108727961D01*
X166313971Y-108811970D01*
X166114322Y-108902332D01*
X165951801Y-108997772D01*
X165828868Y-109097012D01*
X165819983Y-109105930D01*
X165699798Y-109239301D01*
X165594658Y-109379929D01*
X165501405Y-109534041D01*
X165416884Y-109707866D01*
X165337937Y-109907632D01*
X165261409Y-110139567D01*
X165213928Y-110301772D01*
X165157997Y-110495662D01*
X165107798Y-110657042D01*
X165059750Y-110794700D01*
X165010275Y-110917424D01*
X164955794Y-111034003D01*
X164892729Y-111153223D01*
X164817499Y-111283872D01*
X164806255Y-111302800D01*
X164663771Y-111536051D01*
X164535480Y-111733017D01*
X164419175Y-111896438D01*
X164312648Y-112029057D01*
X164213691Y-112133614D01*
X164120096Y-112212852D01*
X164029657Y-112269512D01*
X164026423Y-112271170D01*
X163903867Y-112323049D01*
X163751205Y-112371126D01*
X163580666Y-112411931D01*
X163444767Y-112436227D01*
X163341699Y-112448100D01*
X163216464Y-112456875D01*
X163081374Y-112462262D01*
X162948741Y-112463970D01*
X162830879Y-112461711D01*
X162740098Y-112455194D01*
X162725100Y-112453178D01*
X162305012Y-112370632D01*
X161907724Y-112254047D01*
X161534469Y-112103904D01*
X161186479Y-111920681D01*
X160937273Y-111757897D01*
X160805100Y-111670710D01*
X160683800Y-111607753D01*
X160572156Y-111565301D01*
X160492367Y-111540453D01*
X160428180Y-111524872D01*
X160366340Y-111517215D01*
X160293591Y-111516136D01*
X160196679Y-111520290D01*
X160153265Y-111522812D01*
X160048403Y-111528713D01*
X159977038Y-111530798D01*
X159930424Y-111527980D01*
X159899811Y-111519170D01*
X159876453Y-111503278D01*
X159858496Y-111486120D01*
X159804275Y-111405751D01*
X159766693Y-111296413D01*
X159745617Y-111168009D01*
X159740913Y-111030438D01*
X159752448Y-110893602D01*
X159780089Y-110767401D01*
X159823701Y-110661737D01*
X159870471Y-110598173D01*
X159902793Y-110567549D01*
X159931741Y-110549852D01*
X159968905Y-110542725D01*
X160025878Y-110543811D01*
X160106741Y-110550120D01*
X160280007Y-110566944D01*
X160441110Y-110586878D01*
X160583556Y-110608846D01*
X160700849Y-110631772D01*
X160786496Y-110654580D01*
X160821660Y-110668596D01*
X160864297Y-110694260D01*
X160907461Y-110729761D01*
X160954715Y-110779535D01*
X161009622Y-110848014D01*
X161075748Y-110939635D01*
X161156654Y-111058831D01*
X161252233Y-111204388D01*
X161365651Y-111373609D01*
X161466732Y-111510301D01*
X161561997Y-111619837D01*
X161657961Y-111707591D01*
X161761143Y-111778937D01*
X161878059Y-111839250D01*
X162015228Y-111893903D01*
X162139055Y-111935607D01*
X162393524Y-112003103D01*
X162650794Y-112045311D01*
X162905636Y-112062783D01*
X163152819Y-112056070D01*
X163387115Y-112025727D01*
X163603294Y-111972303D01*
X163796127Y-111896352D01*
X163960384Y-111798427D01*
X164036857Y-111735208D01*
X164113723Y-111655314D01*
X164189831Y-111558737D01*
X164268644Y-111440130D01*
X164353628Y-111294150D01*
X164448248Y-111115449D01*
X164482746Y-111047254D01*
X164555033Y-110899880D01*
X164620244Y-110759290D01*
X164680020Y-110620528D01*
X164736001Y-110478639D01*
X164789830Y-110328667D01*
X164843147Y-110165659D01*
X164897593Y-109984658D01*
X164954809Y-109780710D01*
X165016437Y-109548859D01*
X165084117Y-109284151D01*
X165137694Y-109069717D01*
X165184110Y-108884803D01*
X165230821Y-108702776D01*
X165276069Y-108530203D01*
X165318095Y-108373649D01*
X165355141Y-108239680D01*
X165385447Y-108134863D01*
X165404164Y-108074884D01*
X165478365Y-107870270D01*
X165557613Y-107685309D01*
X165639551Y-107524069D01*
X165721821Y-107390620D01*
X165802064Y-107289029D01*
X165877922Y-107223365D01*
X165906616Y-107208024D01*
X165979312Y-107182893D01*
X166075879Y-107157274D01*
X166180440Y-107134600D01*
X166277117Y-107118300D01*
X166350032Y-107111808D01*
X166351879Y-107111800D01*
X166510597Y-107128658D01*
G36*
X148709941Y-109676540D02*
G01*
X148861581Y-109716968D01*
X149040475Y-109779497D01*
X149249349Y-109864945D01*
X149418393Y-109940454D01*
X149547846Y-109998061D01*
X149696480Y-110061284D01*
X149843622Y-110121458D01*
X149941761Y-110159830D01*
X150050965Y-110202137D01*
X150151196Y-110243169D01*
X150246673Y-110285335D01*
X150341616Y-110331044D01*
X150440242Y-110382704D01*
X150546772Y-110442725D01*
X150665424Y-110513516D01*
X150800418Y-110597487D01*
X150955972Y-110697046D01*
X151136306Y-110814602D01*
X151345638Y-110952565D01*
X151443267Y-111017206D01*
X151684708Y-111176602D01*
X151894818Y-111313804D01*
X152077029Y-111430777D01*
X152234772Y-111529488D01*
X152371477Y-111611901D01*
X152490576Y-111679984D01*
X152595499Y-111735703D01*
X152689678Y-111781023D01*
X152776544Y-111817911D01*
X152859527Y-111848334D01*
X152935517Y-111872338D01*
X153182161Y-111930867D01*
X153462463Y-111971720D01*
X153771463Y-111994562D01*
X154104199Y-111999059D01*
X154455712Y-111984876D01*
X154527940Y-111979760D01*
X154893878Y-111952005D01*
X154948421Y-112003111D01*
X155014402Y-112091643D01*
X155057472Y-112205061D01*
X155077232Y-112332403D01*
X155073283Y-112462705D01*
X155045229Y-112585003D01*
X154992671Y-112688334D01*
X154974142Y-112711657D01*
X154931274Y-112755382D01*
X154891497Y-112776381D01*
X154836404Y-112782112D01*
X154801282Y-112781685D01*
X154719064Y-112777497D01*
X154620299Y-112769580D01*
X154551065Y-112762421D01*
X154486925Y-112756350D01*
X154389285Y-112748898D01*
X154266936Y-112740652D01*
X154128665Y-112732195D01*
X153983261Y-112724114D01*
X153947815Y-112722271D01*
X153705253Y-112708603D01*
X153498000Y-112693827D01*
X153319035Y-112676933D01*
X153161334Y-112656910D01*
X153017874Y-112632748D01*
X152881633Y-112603435D01*
X152745587Y-112567961D01*
X152622765Y-112531562D01*
X152491824Y-112489464D01*
X152365163Y-112445122D01*
X152238122Y-112396377D01*
X152106047Y-112341072D01*
X151964278Y-112277049D01*
X151808159Y-112202151D01*
X151633032Y-112114219D01*
X151434240Y-112011095D01*
X151207127Y-111890622D01*
X151005670Y-111782331D01*
X150773014Y-111658100D01*
X150572457Y-111554214D01*
X150399994Y-111468913D01*
X150251619Y-111400439D01*
X150123327Y-111347032D01*
X150011113Y-111306934D01*
X149910971Y-111278386D01*
X149818896Y-111259628D01*
X149813434Y-111258759D01*
X149721406Y-111249555D01*
X149597009Y-111244500D01*
X149449974Y-111243311D01*
X149290032Y-111245708D01*
X149126917Y-111251409D01*
X148970358Y-111260134D01*
X148830088Y-111271601D01*
X148715839Y-111285530D01*
X148681017Y-111291458D01*
X148572315Y-111308880D01*
X148486902Y-111311938D01*
X148408049Y-111298591D01*
X148319027Y-111266797D01*
X148257684Y-111239803D01*
X148099540Y-111146451D01*
X147971340Y-111027510D01*
X147874042Y-110888246D01*
X147808603Y-110733922D01*
X147775979Y-110569803D01*
X147777128Y-110401153D01*
X147813006Y-110233235D01*
X147884571Y-110071315D01*
X147992779Y-109920655D01*
X148013706Y-109897789D01*
X148141632Y-109789464D01*
X148289818Y-109709205D01*
X148446129Y-109663268D01*
X148477521Y-109658724D01*
X148582830Y-109657397D01*
X148709941Y-109676540D01*
G37*
X148709941Y-109676540D02*
X148861581Y-109716968D01*
X149040475Y-109779497D01*
X149249349Y-109864945D01*
X149418393Y-109940454D01*
X149547846Y-109998061D01*
X149696480Y-110061284D01*
X149843622Y-110121458D01*
X149941761Y-110159830D01*
X150050965Y-110202137D01*
X150151196Y-110243169D01*
X150246673Y-110285335D01*
X150341616Y-110331044D01*
X150440242Y-110382704D01*
X150546772Y-110442725D01*
X150665424Y-110513516D01*
X150800418Y-110597487D01*
X150955972Y-110697046D01*
X151136306Y-110814602D01*
X151345638Y-110952565D01*
X151443267Y-111017206D01*
X151684708Y-111176602D01*
X151894818Y-111313804D01*
X152077029Y-111430777D01*
X152234772Y-111529488D01*
X152371477Y-111611901D01*
X152490576Y-111679984D01*
X152595499Y-111735703D01*
X152689678Y-111781023D01*
X152776544Y-111817911D01*
X152859527Y-111848334D01*
X152935517Y-111872338D01*
X153182161Y-111930867D01*
X153462463Y-111971720D01*
X153771463Y-111994562D01*
X154104199Y-111999059D01*
X154455712Y-111984876D01*
X154527940Y-111979760D01*
X154893878Y-111952005D01*
X154948421Y-112003111D01*
X155014402Y-112091643D01*
X155057472Y-112205061D01*
X155077232Y-112332403D01*
X155073283Y-112462705D01*
X155045229Y-112585003D01*
X154992671Y-112688334D01*
X154974142Y-112711657D01*
X154931274Y-112755382D01*
X154891497Y-112776381D01*
X154836404Y-112782112D01*
X154801282Y-112781685D01*
X154719064Y-112777497D01*
X154620299Y-112769580D01*
X154551065Y-112762421D01*
X154486925Y-112756350D01*
X154389285Y-112748898D01*
X154266936Y-112740652D01*
X154128665Y-112732195D01*
X153983261Y-112724114D01*
X153947815Y-112722271D01*
X153705253Y-112708603D01*
X153498000Y-112693827D01*
X153319035Y-112676933D01*
X153161334Y-112656910D01*
X153017874Y-112632748D01*
X152881633Y-112603435D01*
X152745587Y-112567961D01*
X152622765Y-112531562D01*
X152491824Y-112489464D01*
X152365163Y-112445122D01*
X152238122Y-112396377D01*
X152106047Y-112341072D01*
X151964278Y-112277049D01*
X151808159Y-112202151D01*
X151633032Y-112114219D01*
X151434240Y-112011095D01*
X151207127Y-111890622D01*
X151005670Y-111782331D01*
X150773014Y-111658100D01*
X150572457Y-111554214D01*
X150399994Y-111468913D01*
X150251619Y-111400439D01*
X150123327Y-111347032D01*
X150011113Y-111306934D01*
X149910971Y-111278386D01*
X149818896Y-111259628D01*
X149813434Y-111258759D01*
X149721406Y-111249555D01*
X149597009Y-111244500D01*
X149449974Y-111243311D01*
X149290032Y-111245708D01*
X149126917Y-111251409D01*
X148970358Y-111260134D01*
X148830088Y-111271601D01*
X148715839Y-111285530D01*
X148681017Y-111291458D01*
X148572315Y-111308880D01*
X148486902Y-111311938D01*
X148408049Y-111298591D01*
X148319027Y-111266797D01*
X148257684Y-111239803D01*
X148099540Y-111146451D01*
X147971340Y-111027510D01*
X147874042Y-110888246D01*
X147808603Y-110733922D01*
X147775979Y-110569803D01*
X147777128Y-110401153D01*
X147813006Y-110233235D01*
X147884571Y-110071315D01*
X147992779Y-109920655D01*
X148013706Y-109897789D01*
X148141632Y-109789464D01*
X148289818Y-109709205D01*
X148446129Y-109663268D01*
X148477521Y-109658724D01*
X148582830Y-109657397D01*
X148709941Y-109676540D01*
G36*
X166485561Y-109670438D02*
G01*
X166654097Y-109727039D01*
X166793662Y-109807190D01*
X166919051Y-109914264D01*
X167027445Y-110047887D01*
X167109248Y-110194960D01*
X167140560Y-110280686D01*
X167163039Y-110402514D01*
X167166387Y-110535040D01*
X167151492Y-110662581D01*
X167119245Y-110769456D01*
X167111957Y-110784724D01*
X167053840Y-110878601D01*
X166967133Y-110988559D01*
X166850719Y-111115690D01*
X166703478Y-111261087D01*
X166524293Y-111425844D01*
X166312044Y-111611051D01*
X166065614Y-111817804D01*
X165995790Y-111875235D01*
X165859415Y-111988863D01*
X165735171Y-112096939D01*
X165616144Y-112206107D01*
X165495422Y-112323010D01*
X165366088Y-112454293D01*
X165221231Y-112606598D01*
X165106102Y-112730130D01*
X164947118Y-112895458D01*
X164807218Y-113027102D01*
X164683462Y-113127531D01*
X164572914Y-113199215D01*
X164512497Y-113229111D01*
X164433801Y-113253516D01*
X164318921Y-113275861D01*
X164173967Y-113295900D01*
X164005049Y-113313387D01*
X163818277Y-113328076D01*
X163619761Y-113339720D01*
X163415612Y-113348074D01*
X163211940Y-113352893D01*
X163014855Y-113353929D01*
X162830467Y-113350937D01*
X162664887Y-113343671D01*
X162524223Y-113331884D01*
X162414588Y-113315332D01*
X162407600Y-113313851D01*
X162335275Y-113296472D01*
X162230805Y-113269128D01*
X162102564Y-113234126D01*
X161958924Y-113193771D01*
X161808258Y-113150369D01*
X161725028Y-113125915D01*
X161450167Y-113046305D01*
X161209899Y-112980831D01*
X160999246Y-112928591D01*
X160813228Y-112888680D01*
X160646868Y-112860196D01*
X160495185Y-112842238D01*
X160353202Y-112833901D01*
X160215939Y-112834284D01*
X160137541Y-112838080D01*
X159910065Y-112852585D01*
X159846727Y-112784781D01*
X159787956Y-112697932D01*
X159747010Y-112588387D01*
X159723788Y-112465175D01*
X159718188Y-112337325D01*
X159730108Y-112213864D01*
X159759447Y-112103823D01*
X159806102Y-112016229D01*
X159855920Y-111968323D01*
X159886171Y-111952594D01*
X159924613Y-111943047D01*
X159980040Y-111938960D01*
X160061245Y-111939613D01*
X160159318Y-111943457D01*
X160285253Y-111951812D01*
X160405368Y-111965967D01*
X160524588Y-111987575D01*
X160647837Y-112018285D01*
X160780043Y-112059748D01*
X160926129Y-112113615D01*
X161091021Y-112181536D01*
X161279644Y-112265163D01*
X161496924Y-112366144D01*
X161677350Y-112452195D01*
X161877151Y-112546837D01*
X162045521Y-112623189D01*
X162188109Y-112683385D01*
X162310566Y-112729556D01*
X162418541Y-112763836D01*
X162517685Y-112788360D01*
X162611721Y-112804981D01*
X162697284Y-112813414D01*
X162815794Y-112819634D01*
X162957921Y-112823640D01*
X163114336Y-112825429D01*
X163275709Y-112824999D01*
X163432712Y-112822347D01*
X163576016Y-112817472D01*
X163696290Y-112810372D01*
X163751684Y-112805248D01*
X164018806Y-112758345D01*
X164257631Y-112680123D01*
X164468606Y-112570343D01*
X164652179Y-112428763D01*
X164808797Y-112255142D01*
X164831343Y-112224432D01*
X164868526Y-112171245D01*
X164901809Y-112120153D01*
X164932681Y-112067249D01*
X164962629Y-112008628D01*
X164993143Y-111940384D01*
X165025710Y-111858613D01*
X165061818Y-111759408D01*
X165102958Y-111638863D01*
X165150615Y-111493074D01*
X165206280Y-111318135D01*
X165271441Y-111110139D01*
X165339869Y-110890050D01*
X165409387Y-110677116D01*
X165482839Y-110472202D01*
X165556997Y-110283493D01*
X165628635Y-110119178D01*
X165694523Y-109987442D01*
X165698708Y-109979884D01*
X165782471Y-109865946D01*
X165894393Y-109776930D01*
X166038474Y-109710084D01*
X166132589Y-109681848D01*
X166312356Y-109655494D01*
X166485561Y-109670438D01*
G37*
X166485561Y-109670438D02*
X166654097Y-109727039D01*
X166793662Y-109807190D01*
X166919051Y-109914264D01*
X167027445Y-110047887D01*
X167109248Y-110194960D01*
X167140560Y-110280686D01*
X167163039Y-110402514D01*
X167166387Y-110535040D01*
X167151492Y-110662581D01*
X167119245Y-110769456D01*
X167111957Y-110784724D01*
X167053840Y-110878601D01*
X166967133Y-110988559D01*
X166850719Y-111115690D01*
X166703478Y-111261087D01*
X166524293Y-111425844D01*
X166312044Y-111611051D01*
X166065614Y-111817804D01*
X165995790Y-111875235D01*
X165859415Y-111988863D01*
X165735171Y-112096939D01*
X165616144Y-112206107D01*
X165495422Y-112323010D01*
X165366088Y-112454293D01*
X165221231Y-112606598D01*
X165106102Y-112730130D01*
X164947118Y-112895458D01*
X164807218Y-113027102D01*
X164683462Y-113127531D01*
X164572914Y-113199215D01*
X164512497Y-113229111D01*
X164433801Y-113253516D01*
X164318921Y-113275861D01*
X164173967Y-113295900D01*
X164005049Y-113313387D01*
X163818277Y-113328076D01*
X163619761Y-113339720D01*
X163415612Y-113348074D01*
X163211940Y-113352893D01*
X163014855Y-113353929D01*
X162830467Y-113350937D01*
X162664887Y-113343671D01*
X162524223Y-113331884D01*
X162414588Y-113315332D01*
X162407600Y-113313851D01*
X162335275Y-113296472D01*
X162230805Y-113269128D01*
X162102564Y-113234126D01*
X161958924Y-113193771D01*
X161808258Y-113150369D01*
X161725028Y-113125915D01*
X161450167Y-113046305D01*
X161209899Y-112980831D01*
X160999246Y-112928591D01*
X160813228Y-112888680D01*
X160646868Y-112860196D01*
X160495185Y-112842238D01*
X160353202Y-112833901D01*
X160215939Y-112834284D01*
X160137541Y-112838080D01*
X159910065Y-112852585D01*
X159846727Y-112784781D01*
X159787956Y-112697932D01*
X159747010Y-112588387D01*
X159723788Y-112465175D01*
X159718188Y-112337325D01*
X159730108Y-112213864D01*
X159759447Y-112103823D01*
X159806102Y-112016229D01*
X159855920Y-111968323D01*
X159886171Y-111952594D01*
X159924613Y-111943047D01*
X159980040Y-111938960D01*
X160061245Y-111939613D01*
X160159318Y-111943457D01*
X160285253Y-111951812D01*
X160405368Y-111965967D01*
X160524588Y-111987575D01*
X160647837Y-112018285D01*
X160780043Y-112059748D01*
X160926129Y-112113615D01*
X161091021Y-112181536D01*
X161279644Y-112265163D01*
X161496924Y-112366144D01*
X161677350Y-112452195D01*
X161877151Y-112546837D01*
X162045521Y-112623189D01*
X162188109Y-112683385D01*
X162310566Y-112729556D01*
X162418541Y-112763836D01*
X162517685Y-112788360D01*
X162611721Y-112804981D01*
X162697284Y-112813414D01*
X162815794Y-112819634D01*
X162957921Y-112823640D01*
X163114336Y-112825429D01*
X163275709Y-112824999D01*
X163432712Y-112822347D01*
X163576016Y-112817472D01*
X163696290Y-112810372D01*
X163751684Y-112805248D01*
X164018806Y-112758345D01*
X164257631Y-112680123D01*
X164468606Y-112570343D01*
X164652179Y-112428763D01*
X164808797Y-112255142D01*
X164831343Y-112224432D01*
X164868526Y-112171245D01*
X164901809Y-112120153D01*
X164932681Y-112067249D01*
X164962629Y-112008628D01*
X164993143Y-111940384D01*
X165025710Y-111858613D01*
X165061818Y-111759408D01*
X165102958Y-111638863D01*
X165150615Y-111493074D01*
X165206280Y-111318135D01*
X165271441Y-111110139D01*
X165339869Y-110890050D01*
X165409387Y-110677116D01*
X165482839Y-110472202D01*
X165556997Y-110283493D01*
X165628635Y-110119178D01*
X165694523Y-109987442D01*
X165698708Y-109979884D01*
X165782471Y-109865946D01*
X165894393Y-109776930D01*
X166038474Y-109710084D01*
X166132589Y-109681848D01*
X166312356Y-109655494D01*
X166485561Y-109670438D01*
G36*
X148511684Y-112202991D02*
G01*
X148615972Y-112204898D01*
X148707180Y-112211506D01*
X148792750Y-112225036D01*
X148880125Y-112247707D01*
X148976749Y-112281739D01*
X149090065Y-112329350D01*
X149227515Y-112392761D01*
X149357516Y-112455223D01*
X149520325Y-112533176D01*
X149654518Y-112594505D01*
X149768858Y-112642458D01*
X149872110Y-112680282D01*
X149973036Y-112711225D01*
X150080399Y-112738534D01*
X150183850Y-112761439D01*
X150271081Y-112781752D01*
X150388432Y-112811762D01*
X150525571Y-112848683D01*
X150672167Y-112889729D01*
X150817889Y-112932113D01*
X150829434Y-112935548D01*
X151089115Y-113011986D01*
X151312793Y-113075642D01*
X151504480Y-113127540D01*
X151668191Y-113168705D01*
X151807940Y-113200159D01*
X151927742Y-113222929D01*
X151997841Y-113233698D01*
X152075444Y-113240959D01*
X152189979Y-113247005D01*
X152336065Y-113251841D01*
X152508316Y-113255471D01*
X152701351Y-113257901D01*
X152909786Y-113259136D01*
X153128238Y-113259181D01*
X153351323Y-113258041D01*
X153573660Y-113255721D01*
X153789864Y-113252226D01*
X153994553Y-113247562D01*
X154182343Y-113241733D01*
X154347851Y-113234744D01*
X154410297Y-113231415D01*
X154564116Y-113222913D01*
X154681632Y-113217433D01*
X154768774Y-113215041D01*
X154831470Y-113215804D01*
X154875647Y-113219788D01*
X154907233Y-113227060D01*
X154931318Y-113237250D01*
X154999614Y-113296346D01*
X155047461Y-113392254D01*
X155074719Y-113524638D01*
X155079919Y-113589562D01*
X155078066Y-113742093D01*
X155054218Y-113863364D01*
X155006805Y-113959194D01*
X154967737Y-114005563D01*
X154929044Y-114041735D01*
X154894489Y-114062457D01*
X154850654Y-114071743D01*
X154784119Y-114073609D01*
X154742092Y-114073080D01*
X154681368Y-114071181D01*
X154585200Y-114067049D01*
X154460396Y-114061030D01*
X154313768Y-114053466D01*
X154152125Y-114044703D01*
X153982277Y-114035084D01*
X153930350Y-114032060D01*
X153549544Y-114008887D01*
X153202744Y-113985904D01*
X152881635Y-113962462D01*
X152577899Y-113937914D01*
X152283217Y-113911612D01*
X151989272Y-113882909D01*
X151908934Y-113874662D01*
X151604614Y-113845387D01*
X151299953Y-113820894D01*
X150985045Y-113800563D01*
X150649980Y-113783769D01*
X150284852Y-113769893D01*
X150194434Y-113767013D01*
X150052513Y-113762993D01*
X149936604Y-113761075D01*
X149836751Y-113761850D01*
X149743001Y-113765907D01*
X149645399Y-113773836D01*
X149533989Y-113786225D01*
X149398818Y-113803665D01*
X149263100Y-113822171D01*
X149110283Y-113842253D01*
X148959993Y-113860239D01*
X148821113Y-113875199D01*
X148702519Y-113886200D01*
X148613093Y-113892313D01*
X148585767Y-113893207D01*
X148491084Y-113892793D01*
X148422537Y-113886256D01*
X148364026Y-113870386D01*
X148299454Y-113841974D01*
X148279844Y-113832217D01*
X148114236Y-113727795D01*
X147975661Y-113597619D01*
X147867018Y-113446968D01*
X147791200Y-113281126D01*
X147751105Y-113105373D01*
X147749629Y-112924992D01*
X147756092Y-112876994D01*
X147804191Y-112697027D01*
X147883807Y-112534881D01*
X147990795Y-112396717D01*
X148121008Y-112288699D01*
X148172167Y-112258698D01*
X148223739Y-112233462D01*
X148271188Y-112217143D01*
X148325920Y-112207869D01*
X148399341Y-112203769D01*
X148502856Y-112202971D01*
X148511684Y-112202991D01*
G37*
X148511684Y-112202991D02*
X148615972Y-112204898D01*
X148707180Y-112211506D01*
X148792750Y-112225036D01*
X148880125Y-112247707D01*
X148976749Y-112281739D01*
X149090065Y-112329350D01*
X149227515Y-112392761D01*
X149357516Y-112455223D01*
X149520325Y-112533176D01*
X149654518Y-112594505D01*
X149768858Y-112642458D01*
X149872110Y-112680282D01*
X149973036Y-112711225D01*
X150080399Y-112738534D01*
X150183850Y-112761439D01*
X150271081Y-112781752D01*
X150388432Y-112811762D01*
X150525571Y-112848683D01*
X150672167Y-112889729D01*
X150817889Y-112932113D01*
X150829434Y-112935548D01*
X151089115Y-113011986D01*
X151312793Y-113075642D01*
X151504480Y-113127540D01*
X151668191Y-113168705D01*
X151807940Y-113200159D01*
X151927742Y-113222929D01*
X151997841Y-113233698D01*
X152075444Y-113240959D01*
X152189979Y-113247005D01*
X152336065Y-113251841D01*
X152508316Y-113255471D01*
X152701351Y-113257901D01*
X152909786Y-113259136D01*
X153128238Y-113259181D01*
X153351323Y-113258041D01*
X153573660Y-113255721D01*
X153789864Y-113252226D01*
X153994553Y-113247562D01*
X154182343Y-113241733D01*
X154347851Y-113234744D01*
X154410297Y-113231415D01*
X154564116Y-113222913D01*
X154681632Y-113217433D01*
X154768774Y-113215041D01*
X154831470Y-113215804D01*
X154875647Y-113219788D01*
X154907233Y-113227060D01*
X154931318Y-113237250D01*
X154999614Y-113296346D01*
X155047461Y-113392254D01*
X155074719Y-113524638D01*
X155079919Y-113589562D01*
X155078066Y-113742093D01*
X155054218Y-113863364D01*
X155006805Y-113959194D01*
X154967737Y-114005563D01*
X154929044Y-114041735D01*
X154894489Y-114062457D01*
X154850654Y-114071743D01*
X154784119Y-114073609D01*
X154742092Y-114073080D01*
X154681368Y-114071181D01*
X154585200Y-114067049D01*
X154460396Y-114061030D01*
X154313768Y-114053466D01*
X154152125Y-114044703D01*
X153982277Y-114035084D01*
X153930350Y-114032060D01*
X153549544Y-114008887D01*
X153202744Y-113985904D01*
X152881635Y-113962462D01*
X152577899Y-113937914D01*
X152283217Y-113911612D01*
X151989272Y-113882909D01*
X151908934Y-113874662D01*
X151604614Y-113845387D01*
X151299953Y-113820894D01*
X150985045Y-113800563D01*
X150649980Y-113783769D01*
X150284852Y-113769893D01*
X150194434Y-113767013D01*
X150052513Y-113762993D01*
X149936604Y-113761075D01*
X149836751Y-113761850D01*
X149743001Y-113765907D01*
X149645399Y-113773836D01*
X149533989Y-113786225D01*
X149398818Y-113803665D01*
X149263100Y-113822171D01*
X149110283Y-113842253D01*
X148959993Y-113860239D01*
X148821113Y-113875199D01*
X148702519Y-113886200D01*
X148613093Y-113892313D01*
X148585767Y-113893207D01*
X148491084Y-113892793D01*
X148422537Y-113886256D01*
X148364026Y-113870386D01*
X148299454Y-113841974D01*
X148279844Y-113832217D01*
X148114236Y-113727795D01*
X147975661Y-113597619D01*
X147867018Y-113446968D01*
X147791200Y-113281126D01*
X147751105Y-113105373D01*
X147749629Y-112924992D01*
X147756092Y-112876994D01*
X147804191Y-112697027D01*
X147883807Y-112534881D01*
X147990795Y-112396717D01*
X148121008Y-112288699D01*
X148172167Y-112258698D01*
X148223739Y-112233462D01*
X148271188Y-112217143D01*
X148325920Y-112207869D01*
X148399341Y-112203769D01*
X148502856Y-112202971D01*
X148511684Y-112202991D01*
G36*
X166467183Y-112203373D02*
G01*
X166547469Y-112206890D01*
X166606642Y-112214715D01*
X166655305Y-112228384D01*
X166704059Y-112249434D01*
X166715017Y-112254795D01*
X166857951Y-112348656D01*
X166976688Y-112474607D01*
X167067541Y-112627705D01*
X167126823Y-112803010D01*
X167128089Y-112808622D01*
X167144899Y-112943516D01*
X167142963Y-113096014D01*
X167123641Y-113247232D01*
X167088294Y-113378281D01*
X167086752Y-113382354D01*
X167037389Y-113479704D01*
X166966623Y-113579845D01*
X166884601Y-113670933D01*
X166801471Y-113741121D01*
X166756756Y-113767580D01*
X166686094Y-113794710D01*
X166579398Y-113827164D01*
X166442461Y-113863732D01*
X166281076Y-113903207D01*
X166101034Y-113944379D01*
X165908129Y-113986040D01*
X165708152Y-114026981D01*
X165506898Y-114065993D01*
X165310158Y-114101868D01*
X165123724Y-114133397D01*
X164953390Y-114159371D01*
X164804948Y-114178582D01*
X164767684Y-114182626D01*
X164712649Y-114186181D01*
X164619591Y-114189705D01*
X164492819Y-114193160D01*
X164336644Y-114196513D01*
X164155376Y-114199726D01*
X163953324Y-114202766D01*
X163734799Y-114205595D01*
X163504110Y-114208178D01*
X163265567Y-114210480D01*
X163023481Y-114212466D01*
X162782161Y-114214098D01*
X162545917Y-114215343D01*
X162319060Y-114216164D01*
X162105898Y-114216525D01*
X161910743Y-114216391D01*
X161737905Y-114215726D01*
X161591692Y-114214496D01*
X161476415Y-114212663D01*
X161402184Y-114210448D01*
X161271802Y-114204582D01*
X161124005Y-114197364D01*
X160964637Y-114189133D01*
X160799547Y-114180230D01*
X160634581Y-114170997D01*
X160475585Y-114161773D01*
X160328406Y-114152898D01*
X160198892Y-114144714D01*
X160092889Y-114137561D01*
X160016243Y-114131779D01*
X159974802Y-114127709D01*
X159971117Y-114127103D01*
X159905164Y-114095670D01*
X159842478Y-114035724D01*
X159795151Y-113960156D01*
X159782517Y-113926013D01*
X159761026Y-113795153D01*
X159763826Y-113651344D01*
X159788741Y-113508302D01*
X159833593Y-113379743D01*
X159882440Y-113296444D01*
X159924492Y-113247701D01*
X159969387Y-113215608D01*
X160025705Y-113198195D01*
X160102026Y-113193494D01*
X160206930Y-113199537D01*
X160275506Y-113206259D01*
X160554267Y-113244029D01*
X160846371Y-113300383D01*
X161157391Y-113376671D01*
X161492899Y-113474244D01*
X161814379Y-113579318D01*
X161962515Y-113628215D01*
X162083800Y-113663758D01*
X162190446Y-113688911D01*
X162294666Y-113706640D01*
X162382860Y-113717297D01*
X162479145Y-113724239D01*
X162610191Y-113729132D01*
X162768477Y-113732069D01*
X162946485Y-113733145D01*
X163136697Y-113732454D01*
X163331592Y-113730090D01*
X163523652Y-113726149D01*
X163705358Y-113720724D01*
X163869191Y-113713911D01*
X164007632Y-113705803D01*
X164113162Y-113696495D01*
X164122100Y-113695443D01*
X164310647Y-113669050D01*
X164483807Y-113638025D01*
X164634945Y-113603877D01*
X164757428Y-113568117D01*
X164844619Y-113532252D01*
X164848422Y-113530218D01*
X164941990Y-113468270D01*
X165041228Y-113380185D01*
X165148776Y-113263018D01*
X165267273Y-113113824D01*
X165399355Y-112929658D01*
X165440682Y-112869134D01*
X165562897Y-112693161D01*
X165669094Y-112551162D01*
X165762598Y-112439455D01*
X165846732Y-112354358D01*
X165924821Y-112292187D01*
X166000190Y-112249262D01*
X166000301Y-112249211D01*
X166051301Y-112228605D01*
X166104318Y-112215031D01*
X166169914Y-112207102D01*
X166258653Y-112203430D01*
X166355184Y-112202625D01*
X166467183Y-112203373D01*
G37*
X166467183Y-112203373D02*
X166547469Y-112206890D01*
X166606642Y-112214715D01*
X166655305Y-112228384D01*
X166704059Y-112249434D01*
X166715017Y-112254795D01*
X166857951Y-112348656D01*
X166976688Y-112474607D01*
X167067541Y-112627705D01*
X167126823Y-112803010D01*
X167128089Y-112808622D01*
X167144899Y-112943516D01*
X167142963Y-113096014D01*
X167123641Y-113247232D01*
X167088294Y-113378281D01*
X167086752Y-113382354D01*
X167037389Y-113479704D01*
X166966623Y-113579845D01*
X166884601Y-113670933D01*
X166801471Y-113741121D01*
X166756756Y-113767580D01*
X166686094Y-113794710D01*
X166579398Y-113827164D01*
X166442461Y-113863732D01*
X166281076Y-113903207D01*
X166101034Y-113944379D01*
X165908129Y-113986040D01*
X165708152Y-114026981D01*
X165506898Y-114065993D01*
X165310158Y-114101868D01*
X165123724Y-114133397D01*
X164953390Y-114159371D01*
X164804948Y-114178582D01*
X164767684Y-114182626D01*
X164712649Y-114186181D01*
X164619591Y-114189705D01*
X164492819Y-114193160D01*
X164336644Y-114196513D01*
X164155376Y-114199726D01*
X163953324Y-114202766D01*
X163734799Y-114205595D01*
X163504110Y-114208178D01*
X163265567Y-114210480D01*
X163023481Y-114212466D01*
X162782161Y-114214098D01*
X162545917Y-114215343D01*
X162319060Y-114216164D01*
X162105898Y-114216525D01*
X161910743Y-114216391D01*
X161737905Y-114215726D01*
X161591692Y-114214496D01*
X161476415Y-114212663D01*
X161402184Y-114210448D01*
X161271802Y-114204582D01*
X161124005Y-114197364D01*
X160964637Y-114189133D01*
X160799547Y-114180230D01*
X160634581Y-114170997D01*
X160475585Y-114161773D01*
X160328406Y-114152898D01*
X160198892Y-114144714D01*
X160092889Y-114137561D01*
X160016243Y-114131779D01*
X159974802Y-114127709D01*
X159971117Y-114127103D01*
X159905164Y-114095670D01*
X159842478Y-114035724D01*
X159795151Y-113960156D01*
X159782517Y-113926013D01*
X159761026Y-113795153D01*
X159763826Y-113651344D01*
X159788741Y-113508302D01*
X159833593Y-113379743D01*
X159882440Y-113296444D01*
X159924492Y-113247701D01*
X159969387Y-113215608D01*
X160025705Y-113198195D01*
X160102026Y-113193494D01*
X160206930Y-113199537D01*
X160275506Y-113206259D01*
X160554267Y-113244029D01*
X160846371Y-113300383D01*
X161157391Y-113376671D01*
X161492899Y-113474244D01*
X161814379Y-113579318D01*
X161962515Y-113628215D01*
X162083800Y-113663758D01*
X162190446Y-113688911D01*
X162294666Y-113706640D01*
X162382860Y-113717297D01*
X162479145Y-113724239D01*
X162610191Y-113729132D01*
X162768477Y-113732069D01*
X162946485Y-113733145D01*
X163136697Y-113732454D01*
X163331592Y-113730090D01*
X163523652Y-113726149D01*
X163705358Y-113720724D01*
X163869191Y-113713911D01*
X164007632Y-113705803D01*
X164113162Y-113696495D01*
X164122100Y-113695443D01*
X164310647Y-113669050D01*
X164483807Y-113638025D01*
X164634945Y-113603877D01*
X164757428Y-113568117D01*
X164844619Y-113532252D01*
X164848422Y-113530218D01*
X164941990Y-113468270D01*
X165041228Y-113380185D01*
X165148776Y-113263018D01*
X165267273Y-113113824D01*
X165399355Y-112929658D01*
X165440682Y-112869134D01*
X165562897Y-112693161D01*
X165669094Y-112551162D01*
X165762598Y-112439455D01*
X165846732Y-112354358D01*
X165924821Y-112292187D01*
X166000190Y-112249262D01*
X166000301Y-112249211D01*
X166051301Y-112228605D01*
X166104318Y-112215031D01*
X166169914Y-112207102D01*
X166258653Y-112203430D01*
X166355184Y-112202625D01*
X166467183Y-112203373D01*
G04 #@! TA.AperFunction,SMDPad,CuDef*
D11*
G36*
X163260304Y-107224404D02*
G01*
X163284573Y-107228004D01*
X163308371Y-107233965D01*
X163331471Y-107242230D01*
X163353649Y-107252720D01*
X163374693Y-107265333D01*
X163394398Y-107279947D01*
X163412577Y-107296423D01*
X163429053Y-107314602D01*
X163443667Y-107334307D01*
X163456280Y-107355351D01*
X163466770Y-107377529D01*
X163475035Y-107400629D01*
X163480996Y-107424427D01*
X163484596Y-107448696D01*
X163485800Y-107473200D01*
X163485800Y-108398200D01*
X163484596Y-108422704D01*
X163480996Y-108446973D01*
X163475035Y-108470771D01*
X163466770Y-108493871D01*
X163456280Y-108516049D01*
X163443667Y-108537093D01*
X163429053Y-108556798D01*
X163412577Y-108574977D01*
X163394398Y-108591453D01*
X163374693Y-108606067D01*
X163353649Y-108618680D01*
X163331471Y-108629170D01*
X163308371Y-108637435D01*
X163284573Y-108643396D01*
X163260304Y-108646996D01*
X163235800Y-108648200D01*
X161985800Y-108648200D01*
X161961296Y-108646996D01*
X161937027Y-108643396D01*
X161913229Y-108637435D01*
X161890129Y-108629170D01*
X161867951Y-108618680D01*
X161846907Y-108606067D01*
X161827202Y-108591453D01*
X161809023Y-108574977D01*
X161792547Y-108556798D01*
X161777933Y-108537093D01*
X161765320Y-108516049D01*
X161754830Y-108493871D01*
X161746565Y-108470771D01*
X161740604Y-108446973D01*
X161737004Y-108422704D01*
X161735800Y-108398200D01*
X161735800Y-107473200D01*
X161737004Y-107448696D01*
X161740604Y-107424427D01*
X161746565Y-107400629D01*
X161754830Y-107377529D01*
X161765320Y-107355351D01*
X161777933Y-107334307D01*
X161792547Y-107314602D01*
X161809023Y-107296423D01*
X161827202Y-107279947D01*
X161846907Y-107265333D01*
X161867951Y-107252720D01*
X161890129Y-107242230D01*
X161913229Y-107233965D01*
X161937027Y-107228004D01*
X161961296Y-107224404D01*
X161985800Y-107223200D01*
X163235800Y-107223200D01*
X163260304Y-107224404D01*
G37*
G04 #@! TD.AperFunction*
G04 #@! TA.AperFunction,SMDPad,CuDef*
G36*
X163260304Y-110199404D02*
G01*
X163284573Y-110203004D01*
X163308371Y-110208965D01*
X163331471Y-110217230D01*
X163353649Y-110227720D01*
X163374693Y-110240333D01*
X163394398Y-110254947D01*
X163412577Y-110271423D01*
X163429053Y-110289602D01*
X163443667Y-110309307D01*
X163456280Y-110330351D01*
X163466770Y-110352529D01*
X163475035Y-110375629D01*
X163480996Y-110399427D01*
X163484596Y-110423696D01*
X163485800Y-110448200D01*
X163485800Y-111373200D01*
X163484596Y-111397704D01*
X163480996Y-111421973D01*
X163475035Y-111445771D01*
X163466770Y-111468871D01*
X163456280Y-111491049D01*
X163443667Y-111512093D01*
X163429053Y-111531798D01*
X163412577Y-111549977D01*
X163394398Y-111566453D01*
X163374693Y-111581067D01*
X163353649Y-111593680D01*
X163331471Y-111604170D01*
X163308371Y-111612435D01*
X163284573Y-111618396D01*
X163260304Y-111621996D01*
X163235800Y-111623200D01*
X161985800Y-111623200D01*
X161961296Y-111621996D01*
X161937027Y-111618396D01*
X161913229Y-111612435D01*
X161890129Y-111604170D01*
X161867951Y-111593680D01*
X161846907Y-111581067D01*
X161827202Y-111566453D01*
X161809023Y-111549977D01*
X161792547Y-111531798D01*
X161777933Y-111512093D01*
X161765320Y-111491049D01*
X161754830Y-111468871D01*
X161746565Y-111445771D01*
X161740604Y-111421973D01*
X161737004Y-111397704D01*
X161735800Y-111373200D01*
X161735800Y-110448200D01*
X161737004Y-110423696D01*
X161740604Y-110399427D01*
X161746565Y-110375629D01*
X161754830Y-110352529D01*
X161765320Y-110330351D01*
X161777933Y-110309307D01*
X161792547Y-110289602D01*
X161809023Y-110271423D01*
X161827202Y-110254947D01*
X161846907Y-110240333D01*
X161867951Y-110227720D01*
X161890129Y-110217230D01*
X161913229Y-110208965D01*
X161937027Y-110203004D01*
X161961296Y-110199404D01*
X161985800Y-110198200D01*
X163235800Y-110198200D01*
X163260304Y-110199404D01*
G37*
G04 #@! TD.AperFunction*
D12*
X148590000Y-113030000D03*
X148590000Y-110490000D03*
X148590000Y-107950000D03*
X148590000Y-105410000D03*
X148590000Y-102870000D03*
X148590000Y-100330000D03*
D13*
X148590000Y-97790000D03*
G04 #@! TA.AperFunction,SMDPad,CuDef*
D11*
G36*
X159019504Y-100091204D02*
G01*
X159043773Y-100094804D01*
X159067571Y-100100765D01*
X159090671Y-100109030D01*
X159112849Y-100119520D01*
X159133893Y-100132133D01*
X159153598Y-100146747D01*
X159171777Y-100163223D01*
X159188253Y-100181402D01*
X159202867Y-100201107D01*
X159215480Y-100222151D01*
X159225970Y-100244329D01*
X159234235Y-100267429D01*
X159240196Y-100291227D01*
X159243796Y-100315496D01*
X159245000Y-100340000D01*
X159245000Y-101590000D01*
X159243796Y-101614504D01*
X159240196Y-101638773D01*
X159234235Y-101662571D01*
X159225970Y-101685671D01*
X159215480Y-101707849D01*
X159202867Y-101728893D01*
X159188253Y-101748598D01*
X159171777Y-101766777D01*
X159153598Y-101783253D01*
X159133893Y-101797867D01*
X159112849Y-101810480D01*
X159090671Y-101820970D01*
X159067571Y-101829235D01*
X159043773Y-101835196D01*
X159019504Y-101838796D01*
X158995000Y-101840000D01*
X158070000Y-101840000D01*
X158045496Y-101838796D01*
X158021227Y-101835196D01*
X157997429Y-101829235D01*
X157974329Y-101820970D01*
X157952151Y-101810480D01*
X157931107Y-101797867D01*
X157911402Y-101783253D01*
X157893223Y-101766777D01*
X157876747Y-101748598D01*
X157862133Y-101728893D01*
X157849520Y-101707849D01*
X157839030Y-101685671D01*
X157830765Y-101662571D01*
X157824804Y-101638773D01*
X157821204Y-101614504D01*
X157820000Y-101590000D01*
X157820000Y-100340000D01*
X157821204Y-100315496D01*
X157824804Y-100291227D01*
X157830765Y-100267429D01*
X157839030Y-100244329D01*
X157849520Y-100222151D01*
X157862133Y-100201107D01*
X157876747Y-100181402D01*
X157893223Y-100163223D01*
X157911402Y-100146747D01*
X157931107Y-100132133D01*
X157952151Y-100119520D01*
X157974329Y-100109030D01*
X157997429Y-100100765D01*
X158021227Y-100094804D01*
X158045496Y-100091204D01*
X158070000Y-100090000D01*
X158995000Y-100090000D01*
X159019504Y-100091204D01*
G37*
G04 #@! TD.AperFunction*
G04 #@! TA.AperFunction,SMDPad,CuDef*
G36*
X161994504Y-100091204D02*
G01*
X162018773Y-100094804D01*
X162042571Y-100100765D01*
X162065671Y-100109030D01*
X162087849Y-100119520D01*
X162108893Y-100132133D01*
X162128598Y-100146747D01*
X162146777Y-100163223D01*
X162163253Y-100181402D01*
X162177867Y-100201107D01*
X162190480Y-100222151D01*
X162200970Y-100244329D01*
X162209235Y-100267429D01*
X162215196Y-100291227D01*
X162218796Y-100315496D01*
X162220000Y-100340000D01*
X162220000Y-101590000D01*
X162218796Y-101614504D01*
X162215196Y-101638773D01*
X162209235Y-101662571D01*
X162200970Y-101685671D01*
X162190480Y-101707849D01*
X162177867Y-101728893D01*
X162163253Y-101748598D01*
X162146777Y-101766777D01*
X162128598Y-101783253D01*
X162108893Y-101797867D01*
X162087849Y-101810480D01*
X162065671Y-101820970D01*
X162042571Y-101829235D01*
X162018773Y-101835196D01*
X161994504Y-101838796D01*
X161970000Y-101840000D01*
X161045000Y-101840000D01*
X161020496Y-101838796D01*
X160996227Y-101835196D01*
X160972429Y-101829235D01*
X160949329Y-101820970D01*
X160927151Y-101810480D01*
X160906107Y-101797867D01*
X160886402Y-101783253D01*
X160868223Y-101766777D01*
X160851747Y-101748598D01*
X160837133Y-101728893D01*
X160824520Y-101707849D01*
X160814030Y-101685671D01*
X160805765Y-101662571D01*
X160799804Y-101638773D01*
X160796204Y-101614504D01*
X160795000Y-101590000D01*
X160795000Y-100340000D01*
X160796204Y-100315496D01*
X160799804Y-100291227D01*
X160805765Y-100267429D01*
X160814030Y-100244329D01*
X160824520Y-100222151D01*
X160837133Y-100201107D01*
X160851747Y-100181402D01*
X160868223Y-100163223D01*
X160886402Y-100146747D01*
X160906107Y-100132133D01*
X160927151Y-100119520D01*
X160949329Y-100109030D01*
X160972429Y-100100765D01*
X160996227Y-100094804D01*
X161020496Y-100091204D01*
X161045000Y-100090000D01*
X161970000Y-100090000D01*
X161994504Y-100091204D01*
G37*
G04 #@! TD.AperFunction*
G04 #@! TA.AperFunction,SMDPad,CuDef*
G36*
X156914504Y-97551204D02*
G01*
X156938773Y-97554804D01*
X156962571Y-97560765D01*
X156985671Y-97569030D01*
X157007849Y-97579520D01*
X157028893Y-97592133D01*
X157048598Y-97606747D01*
X157066777Y-97623223D01*
X157083253Y-97641402D01*
X157097867Y-97661107D01*
X157110480Y-97682151D01*
X157120970Y-97704329D01*
X157129235Y-97727429D01*
X157135196Y-97751227D01*
X157138796Y-97775496D01*
X157140000Y-97800000D01*
X157140000Y-99050000D01*
X157138796Y-99074504D01*
X157135196Y-99098773D01*
X157129235Y-99122571D01*
X157120970Y-99145671D01*
X157110480Y-99167849D01*
X157097867Y-99188893D01*
X157083253Y-99208598D01*
X157066777Y-99226777D01*
X157048598Y-99243253D01*
X157028893Y-99257867D01*
X157007849Y-99270480D01*
X156985671Y-99280970D01*
X156962571Y-99289235D01*
X156938773Y-99295196D01*
X156914504Y-99298796D01*
X156890000Y-99300000D01*
X155965000Y-99300000D01*
X155940496Y-99298796D01*
X155916227Y-99295196D01*
X155892429Y-99289235D01*
X155869329Y-99280970D01*
X155847151Y-99270480D01*
X155826107Y-99257867D01*
X155806402Y-99243253D01*
X155788223Y-99226777D01*
X155771747Y-99208598D01*
X155757133Y-99188893D01*
X155744520Y-99167849D01*
X155734030Y-99145671D01*
X155725765Y-99122571D01*
X155719804Y-99098773D01*
X155716204Y-99074504D01*
X155715000Y-99050000D01*
X155715000Y-97800000D01*
X155716204Y-97775496D01*
X155719804Y-97751227D01*
X155725765Y-97727429D01*
X155734030Y-97704329D01*
X155744520Y-97682151D01*
X155757133Y-97661107D01*
X155771747Y-97641402D01*
X155788223Y-97623223D01*
X155806402Y-97606747D01*
X155826107Y-97592133D01*
X155847151Y-97579520D01*
X155869329Y-97569030D01*
X155892429Y-97560765D01*
X155916227Y-97554804D01*
X155940496Y-97551204D01*
X155965000Y-97550000D01*
X156890000Y-97550000D01*
X156914504Y-97551204D01*
G37*
G04 #@! TD.AperFunction*
G04 #@! TA.AperFunction,SMDPad,CuDef*
G36*
X153939504Y-97551204D02*
G01*
X153963773Y-97554804D01*
X153987571Y-97560765D01*
X154010671Y-97569030D01*
X154032849Y-97579520D01*
X154053893Y-97592133D01*
X154073598Y-97606747D01*
X154091777Y-97623223D01*
X154108253Y-97641402D01*
X154122867Y-97661107D01*
X154135480Y-97682151D01*
X154145970Y-97704329D01*
X154154235Y-97727429D01*
X154160196Y-97751227D01*
X154163796Y-97775496D01*
X154165000Y-97800000D01*
X154165000Y-99050000D01*
X154163796Y-99074504D01*
X154160196Y-99098773D01*
X154154235Y-99122571D01*
X154145970Y-99145671D01*
X154135480Y-99167849D01*
X154122867Y-99188893D01*
X154108253Y-99208598D01*
X154091777Y-99226777D01*
X154073598Y-99243253D01*
X154053893Y-99257867D01*
X154032849Y-99270480D01*
X154010671Y-99280970D01*
X153987571Y-99289235D01*
X153963773Y-99295196D01*
X153939504Y-99298796D01*
X153915000Y-99300000D01*
X152990000Y-99300000D01*
X152965496Y-99298796D01*
X152941227Y-99295196D01*
X152917429Y-99289235D01*
X152894329Y-99280970D01*
X152872151Y-99270480D01*
X152851107Y-99257867D01*
X152831402Y-99243253D01*
X152813223Y-99226777D01*
X152796747Y-99208598D01*
X152782133Y-99188893D01*
X152769520Y-99167849D01*
X152759030Y-99145671D01*
X152750765Y-99122571D01*
X152744804Y-99098773D01*
X152741204Y-99074504D01*
X152740000Y-99050000D01*
X152740000Y-97800000D01*
X152741204Y-97775496D01*
X152744804Y-97751227D01*
X152750765Y-97727429D01*
X152759030Y-97704329D01*
X152769520Y-97682151D01*
X152782133Y-97661107D01*
X152796747Y-97641402D01*
X152813223Y-97623223D01*
X152831402Y-97606747D01*
X152851107Y-97592133D01*
X152872151Y-97579520D01*
X152894329Y-97569030D01*
X152917429Y-97560765D01*
X152941227Y-97554804D01*
X152965496Y-97551204D01*
X152990000Y-97550000D01*
X153915000Y-97550000D01*
X153939504Y-97551204D01*
G37*
G04 #@! TD.AperFunction*
G04 #@! TA.AperFunction,SMDPad,CuDef*
G36*
X156914504Y-100091204D02*
G01*
X156938773Y-100094804D01*
X156962571Y-100100765D01*
X156985671Y-100109030D01*
X157007849Y-100119520D01*
X157028893Y-100132133D01*
X157048598Y-100146747D01*
X157066777Y-100163223D01*
X157083253Y-100181402D01*
X157097867Y-100201107D01*
X157110480Y-100222151D01*
X157120970Y-100244329D01*
X157129235Y-100267429D01*
X157135196Y-100291227D01*
X157138796Y-100315496D01*
X157140000Y-100340000D01*
X157140000Y-101590000D01*
X157138796Y-101614504D01*
X157135196Y-101638773D01*
X157129235Y-101662571D01*
X157120970Y-101685671D01*
X157110480Y-101707849D01*
X157097867Y-101728893D01*
X157083253Y-101748598D01*
X157066777Y-101766777D01*
X157048598Y-101783253D01*
X157028893Y-101797867D01*
X157007849Y-101810480D01*
X156985671Y-101820970D01*
X156962571Y-101829235D01*
X156938773Y-101835196D01*
X156914504Y-101838796D01*
X156890000Y-101840000D01*
X155965000Y-101840000D01*
X155940496Y-101838796D01*
X155916227Y-101835196D01*
X155892429Y-101829235D01*
X155869329Y-101820970D01*
X155847151Y-101810480D01*
X155826107Y-101797867D01*
X155806402Y-101783253D01*
X155788223Y-101766777D01*
X155771747Y-101748598D01*
X155757133Y-101728893D01*
X155744520Y-101707849D01*
X155734030Y-101685671D01*
X155725765Y-101662571D01*
X155719804Y-101638773D01*
X155716204Y-101614504D01*
X155715000Y-101590000D01*
X155715000Y-100340000D01*
X155716204Y-100315496D01*
X155719804Y-100291227D01*
X155725765Y-100267429D01*
X155734030Y-100244329D01*
X155744520Y-100222151D01*
X155757133Y-100201107D01*
X155771747Y-100181402D01*
X155788223Y-100163223D01*
X155806402Y-100146747D01*
X155826107Y-100132133D01*
X155847151Y-100119520D01*
X155869329Y-100109030D01*
X155892429Y-100100765D01*
X155916227Y-100094804D01*
X155940496Y-100091204D01*
X155965000Y-100090000D01*
X156890000Y-100090000D01*
X156914504Y-100091204D01*
G37*
G04 #@! TD.AperFunction*
G04 #@! TA.AperFunction,SMDPad,CuDef*
G36*
X153939504Y-100091204D02*
G01*
X153963773Y-100094804D01*
X153987571Y-100100765D01*
X154010671Y-100109030D01*
X154032849Y-100119520D01*
X154053893Y-100132133D01*
X154073598Y-100146747D01*
X154091777Y-100163223D01*
X154108253Y-100181402D01*
X154122867Y-100201107D01*
X154135480Y-100222151D01*
X154145970Y-100244329D01*
X154154235Y-100267429D01*
X154160196Y-100291227D01*
X154163796Y-100315496D01*
X154165000Y-100340000D01*
X154165000Y-101590000D01*
X154163796Y-101614504D01*
X154160196Y-101638773D01*
X154154235Y-101662571D01*
X154145970Y-101685671D01*
X154135480Y-101707849D01*
X154122867Y-101728893D01*
X154108253Y-101748598D01*
X154091777Y-101766777D01*
X154073598Y-101783253D01*
X154053893Y-101797867D01*
X154032849Y-101810480D01*
X154010671Y-101820970D01*
X153987571Y-101829235D01*
X153963773Y-101835196D01*
X153939504Y-101838796D01*
X153915000Y-101840000D01*
X152990000Y-101840000D01*
X152965496Y-101838796D01*
X152941227Y-101835196D01*
X152917429Y-101829235D01*
X152894329Y-101820970D01*
X152872151Y-101810480D01*
X152851107Y-101797867D01*
X152831402Y-101783253D01*
X152813223Y-101766777D01*
X152796747Y-101748598D01*
X152782133Y-101728893D01*
X152769520Y-101707849D01*
X152759030Y-101685671D01*
X152750765Y-101662571D01*
X152744804Y-101638773D01*
X152741204Y-101614504D01*
X152740000Y-101590000D01*
X152740000Y-100340000D01*
X152741204Y-100315496D01*
X152744804Y-100291227D01*
X152750765Y-100267429D01*
X152759030Y-100244329D01*
X152769520Y-100222151D01*
X152782133Y-100201107D01*
X152796747Y-100181402D01*
X152813223Y-100163223D01*
X152831402Y-100146747D01*
X152851107Y-100132133D01*
X152872151Y-100119520D01*
X152894329Y-100109030D01*
X152917429Y-100100765D01*
X152941227Y-100094804D01*
X152965496Y-100091204D01*
X152990000Y-100090000D01*
X153915000Y-100090000D01*
X153939504Y-100091204D01*
G37*
G04 #@! TD.AperFunction*
G04 #@! TA.AperFunction,SMDPad,CuDef*
G36*
X159019504Y-97551204D02*
G01*
X159043773Y-97554804D01*
X159067571Y-97560765D01*
X159090671Y-97569030D01*
X159112849Y-97579520D01*
X159133893Y-97592133D01*
X159153598Y-97606747D01*
X159171777Y-97623223D01*
X159188253Y-97641402D01*
X159202867Y-97661107D01*
X159215480Y-97682151D01*
X159225970Y-97704329D01*
X159234235Y-97727429D01*
X159240196Y-97751227D01*
X159243796Y-97775496D01*
X159245000Y-97800000D01*
X159245000Y-99050000D01*
X159243796Y-99074504D01*
X159240196Y-99098773D01*
X159234235Y-99122571D01*
X159225970Y-99145671D01*
X159215480Y-99167849D01*
X159202867Y-99188893D01*
X159188253Y-99208598D01*
X159171777Y-99226777D01*
X159153598Y-99243253D01*
X159133893Y-99257867D01*
X159112849Y-99270480D01*
X159090671Y-99280970D01*
X159067571Y-99289235D01*
X159043773Y-99295196D01*
X159019504Y-99298796D01*
X158995000Y-99300000D01*
X158070000Y-99300000D01*
X158045496Y-99298796D01*
X158021227Y-99295196D01*
X157997429Y-99289235D01*
X157974329Y-99280970D01*
X157952151Y-99270480D01*
X157931107Y-99257867D01*
X157911402Y-99243253D01*
X157893223Y-99226777D01*
X157876747Y-99208598D01*
X157862133Y-99188893D01*
X157849520Y-99167849D01*
X157839030Y-99145671D01*
X157830765Y-99122571D01*
X157824804Y-99098773D01*
X157821204Y-99074504D01*
X157820000Y-99050000D01*
X157820000Y-97800000D01*
X157821204Y-97775496D01*
X157824804Y-97751227D01*
X157830765Y-97727429D01*
X157839030Y-97704329D01*
X157849520Y-97682151D01*
X157862133Y-97661107D01*
X157876747Y-97641402D01*
X157893223Y-97623223D01*
X157911402Y-97606747D01*
X157931107Y-97592133D01*
X157952151Y-97579520D01*
X157974329Y-97569030D01*
X157997429Y-97560765D01*
X158021227Y-97554804D01*
X158045496Y-97551204D01*
X158070000Y-97550000D01*
X158995000Y-97550000D01*
X159019504Y-97551204D01*
G37*
G04 #@! TD.AperFunction*
G04 #@! TA.AperFunction,SMDPad,CuDef*
G36*
X161994504Y-97551204D02*
G01*
X162018773Y-97554804D01*
X162042571Y-97560765D01*
X162065671Y-97569030D01*
X162087849Y-97579520D01*
X162108893Y-97592133D01*
X162128598Y-97606747D01*
X162146777Y-97623223D01*
X162163253Y-97641402D01*
X162177867Y-97661107D01*
X162190480Y-97682151D01*
X162200970Y-97704329D01*
X162209235Y-97727429D01*
X162215196Y-97751227D01*
X162218796Y-97775496D01*
X162220000Y-97800000D01*
X162220000Y-99050000D01*
X162218796Y-99074504D01*
X162215196Y-99098773D01*
X162209235Y-99122571D01*
X162200970Y-99145671D01*
X162190480Y-99167849D01*
X162177867Y-99188893D01*
X162163253Y-99208598D01*
X162146777Y-99226777D01*
X162128598Y-99243253D01*
X162108893Y-99257867D01*
X162087849Y-99270480D01*
X162065671Y-99280970D01*
X162042571Y-99289235D01*
X162018773Y-99295196D01*
X161994504Y-99298796D01*
X161970000Y-99300000D01*
X161045000Y-99300000D01*
X161020496Y-99298796D01*
X160996227Y-99295196D01*
X160972429Y-99289235D01*
X160949329Y-99280970D01*
X160927151Y-99270480D01*
X160906107Y-99257867D01*
X160886402Y-99243253D01*
X160868223Y-99226777D01*
X160851747Y-99208598D01*
X160837133Y-99188893D01*
X160824520Y-99167849D01*
X160814030Y-99145671D01*
X160805765Y-99122571D01*
X160799804Y-99098773D01*
X160796204Y-99074504D01*
X160795000Y-99050000D01*
X160795000Y-97800000D01*
X160796204Y-97775496D01*
X160799804Y-97751227D01*
X160805765Y-97727429D01*
X160814030Y-97704329D01*
X160824520Y-97682151D01*
X160837133Y-97661107D01*
X160851747Y-97641402D01*
X160868223Y-97623223D01*
X160886402Y-97606747D01*
X160906107Y-97592133D01*
X160927151Y-97579520D01*
X160949329Y-97569030D01*
X160972429Y-97560765D01*
X160996227Y-97554804D01*
X161020496Y-97551204D01*
X161045000Y-97550000D01*
X161970000Y-97550000D01*
X161994504Y-97551204D01*
G37*
G04 #@! TD.AperFunction*
D14*
X160090400Y-106019600D03*
X160090400Y-107289600D03*
X160090400Y-108559600D03*
X160090400Y-109829600D03*
X160090400Y-111099600D03*
X160090400Y-112369600D03*
X160090400Y-113639600D03*
X154666400Y-113639600D03*
X154666400Y-112369600D03*
X154666400Y-111099600D03*
X154666400Y-109829600D03*
X154666400Y-108559600D03*
X154666400Y-107289600D03*
X154666400Y-106019600D03*
D12*
X166370000Y-113030000D03*
X166370000Y-110490000D03*
X166370000Y-107950000D03*
X166370000Y-105410000D03*
X166370000Y-102870000D03*
X166370000Y-100330000D03*
D13*
X166370000Y-97790000D03*
M02*
