<?xml version="1.0" encoding="UTF-8" standalone="no"?>
<!-- Created with Inkscape (http://www.inkscape.org/) -->

<svg
   xmlns:dc="http://purl.org/dc/elements/1.1/"
   xmlns:cc="http://creativecommons.org/ns#"
   xmlns:rdf="http://www.w3.org/1999/02/22-rdf-syntax-ns#"
   xmlns:svg="http://www.w3.org/2000/svg"
   xmlns="http://www.w3.org/2000/svg"
   xmlns:sodipodi="http://sodipodi.sourceforge.net/DTD/sodipodi-0.dtd"
   xmlns:inkscape="http://www.inkscape.org/namespaces/inkscape"
   version="1.1"
   id="svg2"
   xml:space="preserve"
   width="50.0mm"
   height="50.0mm"
   viewBox="0 0 50.0 50.0"
   sodipodi:docname="Star_Trek_Original_Series_Insignia.svg"
   inkscape:version="0.92.4 (unknown)"><metadata
     id="metadata8"><rdf:RDF><cc:Work
         rdf:about=""><dc:format>image/svg+xml</dc:format><dc:type
           rdf:resource="http://purl.org/dc/dcmitype/StillImage" /><dc:title></dc:title></cc:Work></rdf:RDF></metadata><defs
     id="defs6" /><sodipodi:namedview
     pagecolor="#ffffff"
     bordercolor="#666666"
     borderopacity="1"
     objecttolerance="10"
     gridtolerance="10"
     guidetolerance="10"
     inkscape:pageopacity="0"
     inkscape:pageshadow="2"
     inkscape:window-width="1726"
     inkscape:window-height="951"
     id="namedview4"
     showgrid="true"
     inkscape:zoom="2.3092548"
     inkscape:cx="15.071732"
     inkscape:cy="76.585872"
     inkscape:window-x="0"
     inkscape:window-y="31"
     inkscape:window-maximized="0"
     inkscape:current-layer="g1038"
     borderlayer="true"
     inkscape:document-units="mm"
     inkscape:snap-bbox="true"
     inkscape:snap-global="false"><inkscape:grid
       id="grid835"
       units="mm"
       type="xygrid"
       empspacing="1"
       spacingy="2.54"
       spacingx="2.54" /></sodipodi:namedview><g
     id="g10"
     inkscape:groupmode="layer"
     inkscape:label="ink_ext_XXXXXX"
     transform="matrix(1.3333333,0,0,-1.3333333,0,382.66667)"
     style="display:none"><g
       id="g12"
       transform="matrix(0.01285597,0,0,0.01285597,-29.598787,249.43061)"><path
         d="M 986.883,2542.77 C 1430.83,1937.6 1659.87,1184.02 1680.3,417.719 c -127.8,248.945 -265.74,487.98 -411.72,699.591 -47.35,73.47 -71.72,63.21 -174.33,1.22 C 758.008,893.41 525.004,582.691 293.172,259.234 347.055,1047.13 492.313,1929.09 986.883,2542.77"
         style="fill:#231f20;fill-opacity:1;fill-rule:evenodd;stroke:none"
         id="path14"
         inkscape:connector-curvature="0" /><path
         d="M 986.883,2542.77 C 1430.83,1937.6 1659.87,1184.02 1680.3,417.719 c -127.8,248.945 -265.74,487.98 -411.72,699.591 -47.35,73.47 -71.72,63.21 -174.33,1.22 C 758.008,893.41 525.004,582.691 293.172,259.234 347.055,1047.13 492.313,1929.09 986.883,2542.77 Z"
         style="fill:none;stroke:#231f20;stroke-width:39.26729965;stroke-linecap:butt;stroke-linejoin:round;stroke-miterlimit:2.61313009;stroke-dasharray:none;stroke-opacity:1"
         id="path16"
         inkscape:connector-curvature="0" /><path
         d="M 986.137,2441.2 C 1300.76,2010.87 1520.75,1415.34 1584.53,726.707 c -81.86,152.453 -197.17,344.873 -308.9,478.653 -43.01,48.18 -79.33,80.33 -198.12,15.88 C 836.836,1086.98 564.348,791.055 359.16,506.328 436.891,1287.67 643.551,2053.4 986.137,2441.2"
         style="fill:#fff200;fill-opacity:1;fill-rule:evenodd;stroke:none"
         id="path18"
         inkscape:connector-curvature="0" /><path
         d="M 986.137,2441.2 C 1300.76,2010.87 1520.75,1415.34 1584.53,726.707 c -81.86,152.453 -197.17,344.873 -308.9,478.653 -43.01,48.18 -79.33,80.33 -198.12,15.88 C 836.836,1086.98 564.348,791.055 359.16,506.328 436.891,1287.67 643.551,2053.4 986.137,2441.2 Z"
         style="fill:none;stroke:#231f20;stroke-width:2.16000009;stroke-linecap:butt;stroke-linejoin:miter;stroke-miterlimit:2.61313009;stroke-dasharray:none;stroke-opacity:1"
         id="path20"
         inkscape:connector-curvature="0" /><path
         d="m 983.379,2330.91 79.011,-695.96 233.41,-56.05 -214.38,-71.86 23.24,-165.88 -126.281,151.04 -119.156,-152.53 18.957,167.53 -210.367,71.69 224.937,55.99 90.629,696.03"
         style="fill:#231f20;fill-opacity:1;fill-rule:evenodd;stroke:none"
         id="path22"
         inkscape:connector-curvature="0" /><path
         d="m 983.379,2330.91 79.011,-695.96 233.41,-56.05 -214.38,-71.86 23.24,-165.88 -126.281,151.04 -119.156,-152.53 18.957,167.53 -210.367,71.69 224.937,55.99 z"
         style="fill:none;stroke:#231f20;stroke-width:2.16000009;stroke-linecap:butt;stroke-linejoin:miter;stroke-miterlimit:2.61313009;stroke-dasharray:none;stroke-opacity:1"
         id="path24"
         inkscape:connector-curvature="0" /><path
         d="M 6.46875,2862.28 H 2008 V 5.39844 H 6.46875 Z"
         style="fill:none;stroke:#ffffff;stroke-width:2.16000009;stroke-linecap:butt;stroke-linejoin:miter;stroke-miterlimit:2.61313009;stroke-dasharray:none;stroke-opacity:1"
         id="path26"
         inkscape:connector-curvature="0" /></g><g
       style="display:inline"
       id="g12-3-9"
       transform="matrix(0.0157245,0,0,0.0157245,-35.978853,245.76757)"><path
         d="M 986.883,2542.77 C 1430.83,1937.6 1659.87,1184.02 1680.3,417.719 c -127.8,248.945 -265.74,487.98 -411.72,699.591 -47.35,73.47 -71.72,63.21 -174.33,1.22 C 758.008,893.41 525.004,582.691 293.172,259.234 347.055,1047.13 492.313,1929.09 986.883,2542.77"
         style="fill:#231f20;fill-opacity:1;fill-rule:evenodd;stroke:none"
         id="path14-6-1"
         inkscape:connector-curvature="0" /><path
         d="M 986.883,2542.77 C 1430.83,1937.6 1659.87,1184.02 1680.3,417.719 c -127.8,248.945 -265.74,487.98 -411.72,699.591 -47.35,73.47 -71.72,63.21 -174.33,1.22 C 758.008,893.41 525.004,582.691 293.172,259.234 347.055,1047.13 492.313,1929.09 986.883,2542.77 Z"
         style="fill:none;stroke:#231f20;stroke-width:39.26729965;stroke-linecap:butt;stroke-linejoin:round;stroke-miterlimit:2.61313009;stroke-dasharray:none;stroke-opacity:1"
         id="path16-7-2"
         inkscape:connector-curvature="0" /><path
         d="M 986.137,2441.2 C 1300.76,2010.87 1520.75,1415.34 1584.53,726.707 c -81.86,152.453 -197.17,344.873 -308.9,478.653 -43.01,48.18 -79.33,80.33 -198.12,15.88 C 836.836,1086.98 564.348,791.055 359.16,506.328 436.891,1287.67 643.551,2053.4 986.137,2441.2"
         style="fill:#fff200;fill-opacity:1;fill-rule:evenodd;stroke:none"
         id="path18-5-7"
         inkscape:connector-curvature="0" /><path
         d="M 986.137,2441.2 C 1300.76,2010.87 1520.75,1415.34 1584.53,726.707 c -81.86,152.453 -197.17,344.873 -308.9,478.653 -43.01,48.18 -79.33,80.33 -198.12,15.88 C 836.836,1086.98 564.348,791.055 359.16,506.328 436.891,1287.67 643.551,2053.4 986.137,2441.2 Z"
         style="fill:none;stroke:#231f20;stroke-width:2.16000009;stroke-linecap:butt;stroke-linejoin:miter;stroke-miterlimit:2.61313009;stroke-dasharray:none;stroke-opacity:1"
         id="path20-3-0"
         inkscape:connector-curvature="0" /><path
         d="m 983.379,2330.91 79.011,-695.96 233.41,-56.05 -214.38,-71.86 23.24,-165.88 -126.281,151.04 -119.156,-152.53 18.957,167.53 -210.367,71.69 224.937,55.99 90.629,696.03"
         style="fill:#231f20;fill-opacity:1;fill-rule:evenodd;stroke:none"
         id="path22-5-9"
         inkscape:connector-curvature="0" /><path
         d="m 983.379,2330.91 79.011,-695.96 233.41,-56.05 -214.38,-71.86 23.24,-165.88 -126.281,151.04 -119.156,-152.53 18.957,167.53 -210.367,71.69 224.937,55.99 z"
         style="fill:none;stroke:#231f20;stroke-width:2.16000009;stroke-linecap:butt;stroke-linejoin:miter;stroke-miterlimit:2.61313009;stroke-dasharray:none;stroke-opacity:1"
         id="path24-6-3"
         inkscape:connector-curvature="0" /><path
         d="M 6.46875,2862.28 H 2008 V 5.39844 H 6.46875 Z"
         style="fill:none;stroke:#ffffff;stroke-width:2.16000009;stroke-linecap:butt;stroke-linejoin:miter;stroke-miterlimit:2.61313009;stroke-dasharray:none;stroke-opacity:1"
         id="path26-2-6"
         inkscape:connector-curvature="0" /></g></g><g
     id="g849"
     sodipodi:insensitive="true"
     inkscape:groupmode="layer"
     inkscape:label="[fixed] BG"
     style="display:none"><rect
       id="rect847"
       style="fill:#ffffff;fill-opacity:1;stroke:none"
       height="50"
       width="50"
       y="0"
       x="0" /></g><g
     id="g851"
     inkscape:groupmode="layer"
     inkscape:label="Edge.Cuts"
     style="display:inline"><path
       inkscape:connector-curvature="0"
       id="path14-6"
       style="fill:none;fill-opacity:1;fill-rule:evenodd;stroke:#000000;stroke-width:0.40000001;stroke-miterlimit:4;stroke-dasharray:none;stroke-opacity:1"
       d="m 25.395967,1.2494922 c 0.290869,0.3964998 0.577337,0.7960383 0.859409,1.1985285 0.282072,0.4024903 0.559749,0.8079324 0.833033,1.2162394 0.273284,0.4083071 0.542176,0.8194792 0.80668,1.2334295 0.264504,0.4139503 0.52462,0.8306787 0.780352,1.2500985 0.255732,0.4194198 0.507079,0.841531 0.754047,1.2662468 0.246968,0.4247157 0.489556,0.852036 0.727768,1.281874 0.238212,0.429838 0.472048,0.8621937 0.701512,1.2969804 0.229464,0.4347867 0.454556,0.8720037 0.67528,1.3115657 0.220725,0.439562 0.437081,0.881468 0.649073,1.325631 0.211993,0.444163 0.419621,0.890583 0.62289,1.339174 0.203269,0.44859 0.402177,0.899352 0.59673,1.352196 0.194554,0.452845 0.384751,0.907774 0.570596,1.364699 0.185846,0.456925 0.367339,0.915847 0.544485,1.37668 0.177146,0.460832 0.349944,0.923574 0.518398,1.388139 0.168455,0.464565 0.332566,0.930954 0.492336,1.399079 0.159771,0.468125 0.315203,0.937986 0.466298,1.409497 0.151096,0.47151 0.297856,0.944671 0.440284,1.419394 0.142428,0.474723 0.280525,0.951008 0.414294,1.42877 0.133769,0.477762 0.26321,0.956999 0.388328,1.437626 0.125118,0.480627 0.245912,0.962643 0.362387,1.445961 0.116474,0.483318 0.22863,0.967938 0.336469,1.453774 0.10784,0.485836 0.211364,0.972887 0.310576,1.461067 0.09921,0.488179 0.194114,0.977488 0.284707,1.467838 0.09059,0.490351 0.17688,0.981743 0.258863,1.47409 0.08198,0.492347 0.159662,0.985649 0.233041,1.47982 0.07338,0.49417 0.142461,0.989208 0.207246,1.485028 0.06479,0.49582 0.125274,0.992421 0.181473,1.489717 0.0562,0.497296 0.108105,0.995286 0.155724,1.493885 0.04762,0.498598 0.09095,0.997803 0.130001,1.49753 0.03905,0.499727 0.07381,0.999974 0.104301,1.500656 0.03049,0.500682 0.05669,1.001798 0.07863,1.503261 0.02193,0.501463 0.03959,1.003273 0.05297,1.505344 -0.08373,-0.163106 -0.167674,-0.326008 -0.25182,-0.488697 -0.08415,-0.162689 -0.1685,-0.325163 -0.253058,-0.487412 -0.08456,-0.162249 -0.169321,-0.324273 -0.254288,-0.486061 -0.08497,-0.161787 -0.170137,-0.323338 -0.255509,-0.484641 -0.08537,-0.161303 -0.170947,-0.322358 -0.256722,-0.483155 -0.08578,-0.160796 -0.171752,-0.321334 -0.257928,-0.481601 -0.08618,-0.160268 -0.172552,-0.320265 -0.259125,-0.479981 -0.08657,-0.159716 -0.173346,-0.31915 -0.260315,-0.478292 -0.08697,-0.159142 -0.174134,-0.317992 -0.261495,-0.476537 -0.08736,-0.158546 -0.174918,-0.316788 -0.262669,-0.474715 -0.08775,-0.157927 -0.175696,-0.315539 -0.263834,-0.472825 -0.08814,-0.157286 -0.176468,-0.314245 -0.264991,-0.470868 -0.08852,-0.156622 -0.177235,-0.312907 -0.266139,-0.468843 -0.0889,-0.155937 -0.177998,-0.311524 -0.267281,-0.466752 -0.08928,-0.155228 -0.178754,-0.310096 -0.268413,-0.464594 -0.08966,-0.154497 -0.179506,-0.308623 -0.269538,-0.462367 -0.09003,-0.153744 -0.180251,-0.307106 -0.270655,-0.460074 -0.0904,-0.152969 -0.180992,-0.305544 -0.271763,-0.457714 -0.09077,-0.15217 -0.181727,-0.303936 -0.272864,-0.455286 -0.09114,-0.15135 -0.182457,-0.302284 -0.273957,-0.452791 -0.0915,-0.150507 -0.18318,-0.300587 -0.27504,-0.450229 -0.09186,-0.149642 -0.1839,-0.298846 -0.276118,-0.4476 -0.09222,-0.148754 -0.184613,-0.297059 -0.277185,-0.444903 -0.09257,-0.147844 -0.185322,-0.295228 -0.278246,-0.442139 -0.09292,-0.146912 -0.186024,-0.293352 -0.279298,-0.439308 -0.09327,-0.145957 -0.186722,-0.291431 -0.280342,-0.43641 -0.09362,-0.14498 -0.187414,-0.289465 -0.281378,-0.433444 -0.09396,-0.14398 -0.188101,-0.287454 -0.282407,-0.430412 -0.0943,-0.142957 -0.188781,-0.285398 -0.283426,-0.427311 -0.09464,-0.141913 -0.189457,-0.283298 -0.284438,-0.424144 -0.09498,-0.140846 -0.190128,-0.281153 -0.285441,-0.42091 -0.09531,-0.139757 -0.190794,-0.278963 -0.286438,-0.417608 -0.03102,-0.04814 -0.06158,-0.09456 -0.09172,-0.139287 -0.03015,-0.04473 -0.05989,-0.08776 -0.08929,-0.129124 -0.0294,-0.04136 -0.05846,-0.08105 -0.08724,-0.119084 -0.02878,-0.03804 -0.05729,-0.07442 -0.08559,-0.109167 -0.0283,-0.03475 -0.05638,-0.06787 -0.08432,-0.09937 -0.02794,-0.0315 -0.05573,-0.0614 -0.08344,-0.0897 -0.02771,-0.0283 -0.05534,-0.05501 -0.08295,-0.08015 -0.02761,-0.02514 -0.0552,-0.04871 -0.08284,-0.07072 -0.02764,-0.02202 -0.05533,-0.04249 -0.08313,-0.06142 -0.0278,-0.01894 -0.05571,-0.03634 -0.0838,-0.05224 -0.02809,-0.0159 -0.05636,-0.03028 -0.08486,-0.04318 -0.02851,-0.0129 -0.05726,-0.02431 -0.08632,-0.03425 -0.02906,-0.0099 -0.05842,-0.01841 -0.08816,-0.02544 -0.02973,-0.007 -0.05984,-0.0126 -0.09038,-0.01675 -0.03054,-0.0041 -0.06152,-0.0069 -0.093,-0.0082 -0.03148,-0.0013 -0.06346,-0.0012 -0.09601,2.61e-4 -0.03255,0.0015 -0.06566,0.0043 -0.0994,0.0086 -0.03374,0.0042 -0.06812,0.0098 -0.103184,0.01678 -0.03507,0.0069 -0.07083,0.01524 -0.107356,0.02485 -0.03652,0.0096 -0.07381,0.02056 -0.111915,0.03281 -0.03811,0.01225 -0.07704,0.0258 -0.116865,0.04063 -0.03982,0.01484 -0.08053,0.03096 -0.122201,0.04834 -0.04167,0.01738 -0.08429,0.03603 -0.127927,0.05592 -0.04364,0.01989 -0.0883,0.04103 -0.134041,0.06339 -0.04574,0.02236 -0.09257,0.04594 -0.140545,0.07072 -0.04798,0.02478 -0.0971,0.05077 -0.147436,0.07794 -0.05034,0.02717 -0.101887,0.05552 -0.154716,0.08503 -0.05283,0.02951 -0.106935,0.06019 -0.162385,0.092 -0.05545,0.03181 -0.112241,0.06477 -0.170442,0.09885 -0.0582,0.03408 -0.117807,0.06927 -0.178887,0.105568 -0.06108,0.0363 -0.123633,0.07369 -0.187723,0.11217 -0.06409,0.03848 -0.129716,0.07803 -0.196945,0.118647 -0.220302,0.147496 -0.438489,0.296744 -0.654629,0.447699 -0.216139,0.150954 -0.43023,0.303614 -0.642338,0.457934 -0.212107,0.15432 -0.422232,0.310299 -0.630439,0.467891 -0.208207,0.157592 -0.414496,0.316796 -0.618932,0.477567 -0.204436,0.160771 -0.40702,0.323108 -0.607817,0.486964 -0.200796,0.163857 -0.399806,0.329233 -0.597093,0.496081 -0.197288,0.166849 -0.392853,0.335171 -0.586762,0.504919 -0.193909,0.169748 -0.386161,0.340922 -0.576822,0.513476 -0.190661,0.172554 -0.379731,0.346487 -0.567274,0.521754 -0.187544,0.175267 -0.373562,0.351866 -0.558119,0.529752 -0.184556,0.177886 -0.367653,0.357059 -0.549354,0.537471 -0.1817,0.180412 -0.362006,0.362064 -0.540981,0.54491 -0.178975,0.182845 -0.356621,0.366883 -0.533001,0.552068 -0.17638,0.185185 -0.351496,0.371517 -0.525412,0.558948 -0.173916,0.187432 -0.346633,0.375963 -0.518215,0.565548 -0.171583,0.189585 -0.342031,0.380223 -0.511411,0.571868 -0.169379,0.191645 -0.337689,0.384296 -0.504996,0.577908 -0.167307,0.193611 -0.333611,0.388183 -0.498976,0.583668 -0.165365,0.195485 -0.329792,0.391884 -0.493346,0.589149 -0.163554,0.197266 -0.326235,0.395398 -0.488108,0.594351 -0.161873,0.198952 -0.322939,0.398725 -0.483262,0.599271 -0.160323,0.200547 -0.319904,0.401867 -0.478808,0.603914 -0.158904,0.202047 -0.317131,0.404821 -0.474746,0.608275 -0.157615,0.203454 -0.314618,0.407589 -0.471075,0.612358 -0.156457,0.204768 -0.312367,0.41017 -0.467797,0.61616 -0.155429,0.205989 -0.310377,0.412566 -0.46491,0.619683 -0.154532,0.207117 -0.308649,0.414774 -0.462415,0.622926 -0.153766,0.208151 -0.307181,0.416797 -0.460311,0.625889 -0.153131,0.209093 -0.305976,0.418633 -0.458601,0.628573 -0.152625,0.209941 -0.30503,0.420282 -0.457281,0.630978 -0.152251,0.210695 -0.304347,0.421744 -0.456353,0.633101 -0.152007,0.211357 -0.303925,0.423021 -0.455818,0.634946 0.0353,-0.51622 0.07248,-1.034365 0.111688,-1.554205 0.03921,-0.519839 0.08046,-1.041373 0.123904,-1.564369 0.04345,-0.522996 0.0891,-1.047454 0.137109,-1.573143 0.04801,-0.525688 0.09839,-1.052607 0.151305,-1.580525 0.05291,-0.527917 0.108353,-1.056833 0.166491,-1.586516 0.05814,-0.529683 0.118972,-1.060133 0.182667,-1.591117 0.0637,-0.530985 0.130251,-1.062504 0.199834,-1.594326 0.06958,-0.531823 0.142191,-1.063948 0.21799,-1.596145 0.0758,-0.532197 0.154791,-1.064465 0.237138,-1.596572 0.08235,-0.532107 0.16805,-1.064054 0.257275,-1.595608 0.08922,-0.531554 0.18197,-1.062716 0.278402,-1.593253 0.09643,-0.530537 0.19655,-1.060451 0.300519,-1.589507 0.10397,-0.529057 0.211791,-1.057258 0.323628,-1.584371 0.111837,-0.527113 0.227691,-1.053138 0.347725,-1.577843 0.120035,-0.524705 0.244252,-1.04809 0.372814,-1.569923 0.128563,-0.521834 0.261472,-1.042116 0.398892,-1.560614 0.137421,-0.518498 0.279353,-1.035213 0.425961,-1.549913 0.146609,-0.514699 0.297894,-1.027383 0.45402,-1.53782 0.156127,-0.510437 0.317094,-1.018627 0.483069,-1.524338 0.165974,-0.505711 0.336956,-1.008942 0.513108,-1.509463 0.176153,-0.500521 0.357477,-0.998331 0.544138,-1.493199 0.186661,-0.494867 0.378658,-0.986792 0.576158,-1.475542 0.197499,-0.48875 0.4005,-0.974325 0.609167,-1.456495 0.208668,-0.482169 0.423002,-0.960932 0.643168,-1.436056 0.220166,-0.475125 0.446164,-0.946611 0.678158,-1.414227 C 19.817944,9.9534002 20.055936,9.4896539 20.300089,9.0300095 20.544242,8.5703651 20.794557,8.1148226 21.051198,7.6636138 21.30784,7.2124051 21.570809,6.76553 21.840269,6.3232206 22.10973,5.8809111 22.385682,5.4431672 22.668291,5.0102208 22.9509,4.5772743 23.240167,4.1491252 23.536255,3.7260054 23.832343,3.3028856 24.135253,2.884795 24.44515,2.4719655 24.755047,2.0591361 25.071931,1.6515677 25.395967,1.2494922"
       sodipodi:nodetypes="cssssssssssssssssssssssssssssssscssssssssssssssssssssssssssssssscssssssssssssssssssssssssssssssscssssssssssssssssssssssssssssssscsssssssssssssssssssssssssssssssc" /></g><g
     id="g853"
     inkscape:groupmode="layer"
     inkscape:label="B.Cu-disabled"
     style="display:none" /><g
     id="g857"
     inkscape:groupmode="layer"
     inkscape:label="B.Silk-disabled"
     style="display:none" /><g
     style="display:inline"
     inkscape:label="B.Mask"
     inkscape:groupmode="layer"
     id="g1028"><path
       sodipodi:nodetypes="ccccccccccccccccccccccccccccccccccccccccccccccccccccccccccccccccccccccccccccccccccccccccccccccccccccccccccccccccccccccccccccccccccccccccccccccccccccccccccccccccccccccccccccccccccccccccccccccccccccc"
       d="m 25.322502,5.6913489 0.05177,0.4559843 0.05177,0.4559843 0.05177,0.4559843 0.05177,0.4559842 0.05177,0.4559843 0.05177,0.4559843 0.05177,0.4559843 0.05177,0.4559843 0.05177,0.4559844 0.05177,0.4559844 0.05177,0.455984 0.05177,0.455984 0.05177,0.455985 0.05177,0.455984 0.05177,0.455984 0.05177,0.455984 0.05177,0.455984 0.05177,0.455985 0.05177,0.455984 0.05177,0.455985 0.05177,0.455984 0.05177,0.455984 0.05177,0.455984 0.05177,0.455985 0.05177,0.455984 0.05177,0.455984 0.05177,0.455985 0.05177,0.455984 0.05177,0.455984 0.05177,0.455984 0.05177,0.455985 0.05177,0.455984 0.152928,0.03673 0.152927,0.03673 0.152927,0.03673 0.152927,0.03673 0.305855,0.07345 0.305855,0.07345 0.305854,0.07345 0.305855,0.07345 0.305854,0.07345 0.305855,0.07345 0.305854,0.07345 0.305855,0.07345 0.305855,0.07345 0.305854,0.07345 0.305855,0.07345 0.305855,0.07345 0.305854,0.07345 0.305855,0.07345 -0.280918,0.09416 -0.280918,0.09416 -0.280919,0.09416 -0.280918,0.09416 -0.280918,0.09416 -0.280918,0.09416 -0.280918,0.09416 -0.280918,0.09416 -0.280918,0.09416 -0.280919,0.09416 -0.280918,0.09416 -0.280918,0.09416 -0.280918,0.09416 -0.280919,0.09416 -0.280918,0.09416 -0.280918,0.09416 0.03045,0.217365 0.03045,0.217365 0.03045,0.217365 0.03045,0.217365 0.03045,0.217365 0.03045,0.217365 0.03045,0.217365 0.03046,0.217365 0.03045,0.217365 0.03045,0.217365 0.03045,0.217365 0.03045,0.217365 0.03045,0.217365 0.03045,0.217365 0.03045,0.217365 0.03045,0.217365 L 27.69986,26.244547 27.534384,26.046628 27.368909,25.848709 27.203433,25.65079 27.037958,25.452871 26.872482,25.254952 26.707007,25.057033 26.541531,24.859114 26.376056,24.661195 26.21058,24.463276 26.045105,24.265357 25.879629,24.067438 25.714154,23.869519 25.548678,23.6716 l -0.165475,-0.197919 -0.165476,-0.197919 -0.156139,0.199871 -0.156139,0.199872 -0.156139,0.199871 -0.156139,0.199872 -0.156139,0.199871 -0.156139,0.199872 -0.156139,0.199871 -0.156139,0.199872 -0.156139,0.199871 -0.156139,0.199872 -0.156139,0.199871 -0.156139,0.199872 -0.156139,0.199871 -0.156139,0.199872 -0.156139,0.199871 -0.156139,0.199872 0.02484,-0.219527 0.02484,-0.219527 0.02484,-0.219527 0.02484,-0.219527 0.02484,-0.219528 0.02484,-0.219527 0.02484,-0.219527 0.02484,-0.219527 0.02484,-0.219527 0.02484,-0.219527 0.02484,-0.219527 0.02484,-0.219527 0.02484,-0.219528 0.02484,-0.219527 0.02484,-0.219527 0.02484,-0.219527 -0.275659,-0.09394 -0.27566,-0.09394 -0.27566,-0.09394 -0.27566,-0.09394 -0.275659,-0.09394 -0.27566,-0.09394 -0.275659,-0.09394 -0.27566,-0.09394 -0.275659,-0.09394 -0.27566,-0.09394 -0.27566,-0.09394 -0.27566,-0.09394 -0.275659,-0.09394 -0.27566,-0.09394 -0.275659,-0.09394 -0.27566,-0.09394 0.294752,-0.07337 0.294752,-0.07337 0.294752,-0.07337 0.294751,-0.07337 0.294752,-0.07337 0.294752,-0.07337 0.294752,-0.07337 0.294751,-0.07337 0.294752,-0.07337 0.294752,-0.07337 0.294752,-0.07337 0.294752,-0.07337 0.294752,-0.07337 0.294751,-0.07337 0.147376,-0.03668 0.147376,-0.03669 0.147376,-0.03668 0.147376,-0.03668 0.05938,-0.45603 0.05938,-0.45603 0.05938,-0.456031 0.05938,-0.45603 0.05938,-0.45603 0.05938,-0.45603 0.05938,-0.45603 0.05938,-0.45603 0.05938,-0.456031 0.05938,-0.45603 0.05938,-0.45603 0.05938,-0.45603 0.05938,-0.45603 0.05938,-0.45603 0.05938,-0.456031 0.05938,-0.45603 0.05938,-0.45603 0.05938,-0.45603 0.05938,-0.45603 0.05938,-0.45603 0.05938,-0.456031 0.05938,-0.45603 0.05938,-0.4560299 0.05938,-0.4560299 0.05938,-0.4560302 0.05938,-0.4560301 0.05938,-0.4560302 0.05938,-0.4560302 0.05938,-0.4560302 0.05938,-0.4560301 0.05938,-0.4560302 0.05938,-0.4560301"
       style="fill:#000000;fill-opacity:1;fill-rule:evenodd;stroke:none;stroke-width:0.020966"
       id="path1026"
       inkscape:connector-curvature="0" /></g><g
     id="g1038"
     inkscape:groupmode="layer"
     inkscape:label="F.Mask"
     style="display:inline"><path
       inkscape:connector-curvature="0"
       id="path1036"
       style="fill:#000000;fill-opacity:1;fill-rule:evenodd;stroke:none;stroke-width:0.020966"
       d="m 25.322502,5.6913489 0.05177,0.4559843 0.05177,0.4559843 0.05177,0.4559843 0.05177,0.4559842 0.05177,0.4559843 0.05177,0.4559843 0.05177,0.4559843 0.05177,0.4559843 0.05177,0.4559844 0.05177,0.4559844 0.05177,0.455984 0.05177,0.455984 0.05177,0.455985 0.05177,0.455984 0.05177,0.455984 0.05177,0.455984 0.05177,0.455984 0.05177,0.455985 0.05177,0.455984 0.05177,0.455985 0.05177,0.455984 0.05177,0.455984 0.05177,0.455984 0.05177,0.455985 0.05177,0.455984 0.05177,0.455984 0.05177,0.455985 0.05177,0.455984 0.05177,0.455984 0.05177,0.455984 0.05177,0.455985 0.05177,0.455984 0.152928,0.03673 0.152927,0.03673 0.152927,0.03673 0.152927,0.03673 0.305855,0.07345 0.305855,0.07345 0.305854,0.07345 0.305855,0.07345 0.305854,0.07345 0.305855,0.07345 0.305854,0.07345 0.305855,0.07345 0.305855,0.07345 0.305854,0.07345 0.305855,0.07345 0.305855,0.07345 0.305854,0.07345 0.305855,0.07345 -0.280918,0.09416 -0.280918,0.09416 -0.280919,0.09416 -0.280918,0.09416 -0.280918,0.09416 -0.280918,0.09416 -0.280918,0.09416 -0.280918,0.09416 -0.280918,0.09416 -0.280919,0.09416 -0.280918,0.09416 -0.280918,0.09416 -0.280918,0.09416 -0.280919,0.09416 -0.280918,0.09416 -0.280918,0.09416 0.03045,0.217365 0.03045,0.217365 0.03045,0.217365 0.03045,0.217365 0.03045,0.217365 0.03045,0.217365 0.03045,0.217365 0.03046,0.217365 0.03045,0.217365 0.03045,0.217365 0.03045,0.217365 0.03045,0.217365 0.03045,0.217365 0.03045,0.217365 0.03045,0.217365 0.03045,0.217365 L 27.69986,26.244547 27.534384,26.046628 27.368909,25.848709 27.203433,25.65079 27.037958,25.452871 26.872482,25.254952 26.707007,25.057033 26.541531,24.859114 26.376056,24.661195 26.21058,24.463276 26.045105,24.265357 25.879629,24.067438 25.714154,23.869519 25.548678,23.6716 l -0.165475,-0.197919 -0.165476,-0.197919 -0.156139,0.199871 -0.156139,0.199872 -0.156139,0.199871 -0.156139,0.199872 -0.156139,0.199871 -0.156139,0.199872 -0.156139,0.199871 -0.156139,0.199872 -0.156139,0.199871 -0.156139,0.199872 -0.156139,0.199871 -0.156139,0.199872 -0.156139,0.199871 -0.156139,0.199872 -0.156139,0.199871 -0.156139,0.199872 0.02484,-0.219527 0.02484,-0.219527 0.02484,-0.219527 0.02484,-0.219527 0.02484,-0.219528 0.02484,-0.219527 0.02484,-0.219527 0.02484,-0.219527 0.02484,-0.219527 0.02484,-0.219527 0.02484,-0.219527 0.02484,-0.219527 0.02484,-0.219528 0.02484,-0.219527 0.02484,-0.219527 0.02484,-0.219527 -0.275659,-0.09394 -0.27566,-0.09394 -0.27566,-0.09394 -0.27566,-0.09394 -0.275659,-0.09394 -0.27566,-0.09394 -0.275659,-0.09394 -0.27566,-0.09394 -0.275659,-0.09394 -0.27566,-0.09394 -0.27566,-0.09394 -0.27566,-0.09394 -0.275659,-0.09394 -0.27566,-0.09394 -0.275659,-0.09394 -0.27566,-0.09394 0.294752,-0.07337 0.294752,-0.07337 0.294752,-0.07337 0.294751,-0.07337 0.294752,-0.07337 0.294752,-0.07337 0.294752,-0.07337 0.294751,-0.07337 0.294752,-0.07337 0.294752,-0.07337 0.294752,-0.07337 0.294752,-0.07337 0.294752,-0.07337 0.294751,-0.07337 0.147376,-0.03668 0.147376,-0.03669 0.147376,-0.03668 0.147376,-0.03668 0.05938,-0.45603 0.05938,-0.45603 0.05938,-0.456031 0.05938,-0.45603 0.05938,-0.45603 0.05938,-0.45603 0.05938,-0.45603 0.05938,-0.45603 0.05938,-0.456031 0.05938,-0.45603 0.05938,-0.45603 0.05938,-0.45603 0.05938,-0.45603 0.05938,-0.45603 0.05938,-0.456031 0.05938,-0.45603 0.05938,-0.45603 0.05938,-0.45603 0.05938,-0.45603 0.05938,-0.45603 0.05938,-0.456031 0.05938,-0.45603 0.05938,-0.4560299 0.05938,-0.4560299 0.05938,-0.4560302 0.05938,-0.4560301 0.05938,-0.4560302 0.05938,-0.4560302 0.05938,-0.4560302 0.05938,-0.4560301 0.05938,-0.4560302 0.05938,-0.4560301"
       sodipodi:nodetypes="ccccccccccccccccccccccccccccccccccccccccccccccccccccccccccccccccccccccccccccccccccccccccccccccccccccccccccccccccccccccccccccccccccccccccccccccccccccccccccccccccccccccccccccccccccccccccccccccccccccc" /></g><g
     id="g859"
     inkscape:groupmode="layer"
     inkscape:label="F.Cu"
     style="display:inline"><path
       style="fill:#000000;fill-opacity:1;fill-rule:evenodd;stroke:#000000;stroke-width:1.51181102;stroke-miterlimit:4;stroke-dasharray:none;stroke-opacity:1"
       d="m 95.925781,12.771484 c -0.424172,0.480155 -0.846709,0.96627 -1.265625,1.460938 -0.418915,0.494668 -0.834381,0.996897 -1.248047,1.505859 -0.413661,0.508962 -0.824006,1.025791 -1.232421,1.548828 -0.408412,0.523038 -0.815581,1.05295 -1.21875,1.589844 -0.40317,0.536894 -0.803241,1.080329 -1.201172,1.630859 -0.397928,0.550532 -0.792854,1.107926 -1.185547,1.671876 -0.392693,0.563948 -0.78246,1.133788 -1.169922,1.710937 -0.387462,0.577148 -0.772062,1.161824 -1.154297,1.751953 -0.382231,0.590128 -0.761664,1.186173 -1.138672,1.789063 -0.377008,0.602889 -0.753208,1.212693 -1.125,1.828125 -0.371792,0.615431 -0.740845,1.23748 -1.107422,1.865234 -0.366576,0.627755 -0.730436,1.260532 -1.091797,1.900391 -0.361364,0.639858 -0.720027,1.285756 -1.076171,1.9375 -0.356161,0.651743 -0.70958,1.309247 -1.060547,1.972656 -0.35096,0.663409 -0.699171,1.332955 -1.044922,2.007812 -0.172865,0.337429 -0.344035,0.677345 -0.515625,1.017579 -0.171583,0.340248 -0.343404,0.680407 -0.513672,1.023437 -0.340566,0.686083 -0.678315,1.37908 -1.013672,2.076172 -0.335376,0.697096 -0.667867,1.399539 -0.998047,2.107422 -0.330191,0.707883 -0.65742,1.420221 -0.982422,2.138672 -0.325013,0.718454 -0.648926,1.443068 -0.96875,2.171875 -0.319835,0.728802 -0.636526,1.462232 -0.951172,2.201172 -0.31466,0.738935 -0.626041,1.483568 -0.935547,2.232421 -0.309494,0.74885 -0.617547,1.501222 -0.921874,2.259766 -0.304328,0.758547 -0.60511,1.522997 -0.904297,2.291016 -0.299169,0.768019 -0.596616,1.541084 -0.890625,2.318359 -0.294014,0.777275 -0.584178,1.557438 -0.873047,2.34375 -0.288862,0.786316 -0.575646,1.577914 -0.859375,2.373047 -0.283714,0.795129 -0.565161,1.594706 -0.84375,2.398437 -0.27857,0.803732 -0.554676,1.611718 -0.828125,2.423828 -0.273434,0.812111 -0.544192,1.628948 -0.8125,2.449219 -0.268298,0.820275 -0.533707,1.644441 -0.796875,2.472657 -0.263169,0.828215 -0.523222,1.660156 -0.78125,2.496093 -0.258044,0.835937 -0.514652,1.676092 -0.767578,2.519531 -0.252919,0.843444 -0.502215,1.69029 -0.75,2.541016 -0.247801,0.850726 -0.493645,1.70471 -0.736328,2.5625 -0.242688,0.857794 -0.483123,1.719346 -0.720704,2.583984 -0.237581,0.864639 -0.472599,1.732248 -0.705078,2.603516 -0.232475,0.871264 -0.462076,1.745369 -0.689453,2.623047 -0.227372,0.877674 -0.451554,1.758713 -0.673828,2.642578 -0.222278,0.883865 -0.442985,1.77032 -0.660156,2.660156 -0.217187,0.889837 -0.432424,1.784101 -0.644531,2.679691 -0.2121,0.89559 -0.421902,1.79224 -0.628907,2.69336 -0.207012,0.90111 -0.411341,1.80645 -0.613281,2.71289 -0.201936,0.90643 -0.400818,1.81503 -0.597656,2.72656 -0.196861,0.91153 -0.390258,1.82578 -0.582032,2.74219 -0.191777,0.9164 -0.38165,1.8348 -0.568359,2.75586 -0.186712,0.92106 -0.37109,1.84403 -0.552734,2.76953 -0.181659,0.92549 -0.360492,1.85349 -0.53711,2.7832 -0.176617,0.92972 -0.349931,1.86121 -0.521484,2.79492 -0.171557,0.93372 -0.341324,1.86915 -0.507813,2.80664 -0.166503,0.9375 -0.330726,1.87731 -0.492187,2.81836 -0.161465,0.94106 -0.320166,1.88373 -0.476563,2.82813 -0.1564,0.9444 -0.309567,1.89037 -0.460937,2.83789 -0.151385,0.94752 -0.300922,1.89723 -0.447266,2.84765 -0.146347,0.95043 -0.290324,1.90236 -0.43164,2.85547 -0.141321,0.95311 -0.279726,1.90771 -0.416016,2.86328 -0.136271,0.95558 -0.271081,1.91132 -0.402344,2.86915 -0.131266,0.95782 -0.258529,1.9171 -0.384765,2.87695 -0.126236,0.95985 -0.2518,1.92115 -0.373047,2.88281 -0.121247,0.96166 -0.239248,1.92347 -0.355469,2.88672 -0.11622,0.96325 -0.230565,1.92796 -0.341797,2.89258 -0.111231,0.96462 -0.219929,1.92876 -0.326172,2.89453 -0.212454,1.93155 -0.41493,3.86595 -0.607421,5.80078 0.508108,-0.70507 1.022732,-1.4108 1.541015,-2.11719 0.518283,-0.70638 1.040378,-1.41423 1.568359,-2.12109 0.527978,-0.70686 1.060457,-1.41263 1.597657,-2.11914 0.537195,-0.70651 1.079062,-1.41383 1.625,-2.11914 0.545934,-0.70532 1.096194,-1.41 1.65039,-2.11328 0.554193,-0.70329 1.113807,-1.40505 1.675782,-2.10547 0.56197,-0.70042 1.12604,-1.39899 1.695312,-2.09571 0.569276,-0.69671 1.142656,-1.3918 1.71875,-2.08398 0.576095,-0.69218 1.155845,-1.38155 1.738281,-2.06836 0.582433,-0.68681 1.167561,-1.37019 1.75586,-2.05078 0.588298,-0.6806 1.179757,-1.3577 1.773437,-2.03125 0.593681,-0.67355 1.19048,-1.3441 1.789063,-2.00977 0.598582,-0.66567 1.199729,-1.32742 1.802734,-1.98437 0.603009,-0.65695 1.207499,-1.30963 1.814453,-1.95703 0.606951,-0.6474 1.215756,-1.28877 1.826172,-1.92578 0.610417,-0.63701 1.222535,-1.26875 1.835938,-1.89453 0.613402,-0.62579 1.227842,-1.24566 1.84375,-1.85938 0.615908,-0.61372 1.233624,-1.22144 1.851562,-1.82227 0.617938,-0.60082 1.235985,-1.19415 1.855469,-1.78125 0.619483,-0.58708 1.238822,-1.16771 1.859375,-1.74023 0.620553,-0.57252 1.242138,-1.1382 1.863281,-1.69531 0.621139,-0.55712 1.242029,-1.10561 1.863281,-1.64649 0.621249,-0.54087 1.2424,-1.07386 1.863282,-1.59765 0.620882,-0.5238 1.241296,-1.03905 1.861328,-1.54492 0.620031,-0.50588 1.240674,-1.00311 1.859375,-1.49024 0.618705,-0.48713 1.236621,-0.9641 1.853515,-1.43164 0.616895,-0.46754 1.233049,-0.92398 1.847657,-1.37109 0.614607,-0.44713 1.228002,-0.88469 1.839843,-1.31055 0.611842,-0.42586 1.221484,-0.84037 1.830079,-1.24414 0.608594,-0.40377 1.215444,-0.7969 1.820312,-1.17774 0.60487,-0.38083 1.20793,-0.75033 1.80859,-1.10742 0.60067,-0.35707 1.19894,-0.70072 1.79493,-1.0332 0.29416,-0.15961 0.58166,-0.3122 0.86328,-0.45703 0.28161,-0.14483 0.55669,-0.2836 0.82617,-0.41406 0.26949,-0.13047 0.53321,-0.25266 0.79101,-0.36915 0.25781,-0.11648 0.51128,-0.22716 0.75782,-0.33007 0.24655,-0.10292 0.48692,-0.19934 0.72265,-0.28907 0.23574,-0.0897 0.46607,-0.17113 0.69141,-0.24804 0.22534,-0.0769 0.44476,-0.14841 0.66016,-0.21289 0.21537,-0.0645 0.42698,-0.12332 0.63281,-0.17578 0.20585,-0.0525 0.40675,-0.0979 0.60351,-0.13868 0.19675,-0.0408 0.39006,-0.076 0.57813,-0.10547 0.18808,-0.0296 0.37095,-0.0534 0.55078,-0.0723 0.17986,-0.0188 0.3553,-0.0327 0.52734,-0.041 0.17206,-0.008 0.34119,-0.0116 0.50586,-0.01 0.16468,0.002 0.32471,0.008 0.48243,0.0195 0.15773,0.0116 0.31362,0.028 0.46484,0.0488 0.1512,0.0208 0.29822,0.0463 0.44336,0.0762 0.14514,0.0297 0.28823,0.0633 0.42773,0.10156 0.1395,0.0382 0.27591,0.0806 0.41016,0.12695 0.13428,0.0464 0.26504,0.0982 0.39453,0.15235 0.12949,0.0541 0.25767,0.11233 0.38281,0.17383 0.12514,0.0615 0.24793,0.12491 0.36914,0.19336 0.12121,0.0684 0.23969,0.14177 0.35743,0.21679 0.11769,0.075 0.23493,0.15319 0.3496,0.23438 0.11464,0.0812 0.22782,0.16495 0.33985,0.25195 0.11202,0.087 0.2222,0.17712 0.33203,0.26953 0.10979,0.0924 0.21811,0.18581 0.32617,0.28321 0.10806,0.0974 0.21553,0.19873 0.32227,0.30078 0.10673,0.10204 0.21253,0.20622 0.31836,0.3125 0.10579,0.10628 0.21302,0.21412 0.31836,0.32422 0.10533,0.11013 0.20915,0.22236 0.31445,0.33593 0.1053,0.11358 0.21073,0.22907 0.31641,0.34571 0.10567,0.11659 0.21185,0.23419 0.31835,0.35351 0.27668,0.33128 0.55293,0.66769 0.83008,1.00781 0.27714,0.34012 0.55462,0.68278 0.83203,1.03125 0.27743,0.34848 0.55646,0.70223 0.83399,1.0586 0.27753,0.35635 0.55457,0.7163 0.83203,1.08008 0.27746,0.36376 0.5548,0.73086 0.83203,1.10156 0.27721,0.37069 0.5533,0.74589 0.83008,1.12305 0.27678,0.37714 0.55391,0.75554 0.83008,1.13867 0.27617,0.38312 0.55275,0.76958 0.82812,1.1582 0.27538,0.38862 0.54983,0.78018 0.82422,1.17383 0.27441,0.39364 0.54901,0.78931 0.82227,1.1875 0.27326,0.39819 0.54447,0.79892 0.8164,1.20117 0.27194,0.40226 0.54403,0.80705 0.81446,1.21289 0.27043,0.40585 0.53983,0.81369 0.80859,1.22266 0.26875,0.40896 0.53586,0.81887 0.80273,1.23047 0.26688,0.4116 0.534,0.82452 0.79883,1.23828 0.26484,0.41376 0.52842,0.82869 0.79102,1.24414 0.26261,0.41544 0.52298,0.83139 0.7832,1.24805 0.26022,0.41665 0.51969,0.83261 0.77734,1.25 0.25764,0.41738 0.51464,0.83627 0.76954,1.2539 0.25487,0.41763 0.50782,0.83455 0.75976,1.25195 0.25194,0.41742 0.50315,0.83525 0.75195,1.25196 0.24883,0.41671 0.49472,0.83252 0.74024,1.24804 0.24552,0.41553 0.49038,0.83027 0.73242,1.24415 0.24205,0.41387 0.48233,0.82653 0.7207,1.23828 0.2384,0.41174 0.47443,0.82328 0.70899,1.23242 0.23456,0.40913 0.46671,0.8166 0.69726,1.22265 0.23055,0.40605 0.45919,0.81041 0.68555,1.21289 0.22636,0.40249 0.45186,0.80273 0.67383,1.20118 0.22198,0.39845 0.44077,0.79552 0.6582,1.18945 0.21744,0.39393 0.43182,0.78489 0.64453,1.17383 0.10636,0.19447 0.21322,0.3889 0.31836,0.58203 0.10511,0.19313 0.2086,0.38444 0.3125,0.57617 0.2078,0.38347 0.41449,0.76504 0.61719,1.14258 -0.15794,-1.70526 -0.32778,-3.40307 -0.50977,-5.09375 -0.091,-0.84534 -0.18625,-1.68962 -0.2832,-2.53125 -0.0969,-0.84163 -0.19599,-1.68166 -0.29883,-2.51953 -0.10284,-0.83787 -0.20962,-1.67374 -0.31836,-2.50781 -0.10873,-0.83408 -0.21942,-1.66587 -0.33398,-2.4961 -0.11456,-0.83023 -0.23314,-1.65802 -0.35352,-2.48437 -0.12037,-0.82635 -0.24301,-1.6522 -0.36914,-2.47461 -0.12613,-0.82242 -0.25485,-1.64249 -0.38672,-2.46094 -0.13184,-0.81845 -0.26676,-1.63479 -0.40429,-2.44922 -0.13756,-0.81443 -0.27867,-1.62713 -0.42188,-2.4375 -0.1432,-0.81036 -0.2887,-1.61756 -0.4375,-2.42383 -0.1488,-0.80626 -0.30068,-1.61195 -0.45508,-2.41406 -0.1544,-0.80212 -0.31075,-1.60051 -0.4707,-2.39844 -0.15994,-0.79792 -0.32285,-1.59498 -0.48828,-2.38867 -0.16544,-0.79369 -0.333,-1.58559 -0.50391,-2.375 -0.1709,-0.78941 -0.34513,-1.57624 -0.52148,-2.36133 -0.17633,-0.78509 -0.35539,-1.56692 -0.53711,-2.34765 -0.18175,-0.78073 -0.36565,-1.55962 -0.55273,-2.33594 -0.18709,-0.77632 -0.3779,-1.5504 -0.57032,-2.322266 -0.19241,-0.771863 -0.38631,-1.541221 -0.58398,-2.308594 -0.19769,-0.767369 -0.39864,-1.534045 -0.60156,-2.296875 -0.20293,-0.76283 -0.40905,-1.523001 -0.61719,-2.28125 -0.20814,-0.758249 -0.41754,-1.513955 -0.63086,-2.267578 -0.21331,-0.753619 -0.43002,-1.504955 -0.64844,-2.253906 -0.21844,-0.748948 -0.43859,-1.496 -0.66211,-2.240235 -0.22353,-0.744238 -0.4511,-1.485129 -0.67969,-2.224609 -0.22858,-0.73948 -0.45974,-1.476262 -0.69335,-2.210938 -0.23362,-0.734679 -0.46843,-1.467431 -0.70704,-2.197265 -0.23859,-0.729831 -0.48105,-1.456693 -0.72461,-2.181641 -0.24353,-0.724947 -0.48786,-1.447957 -0.73632,-2.167969 -0.24845,-0.720015 -0.50061,-1.437302 -0.75391,-2.152343 -0.25332,-0.715038 -0.50944,-1.428654 -0.76758,-2.138672 -0.25815,-0.710022 -0.51831,-1.416137 -0.78125,-2.121094 -0.26295,-0.704957 -0.52722,-1.407571 -0.79492,-2.107422 -0.26771,-0.699851 -0.53812,-1.397097 -0.81055,-2.091797 -0.27243,-0.6947 -0.5471,-1.386661 -0.82421,-2.076172 -0.27712,-0.689506 -0.55613,-1.376274 -0.8379,-2.060546 -0.28176,-0.684273 -0.56714,-1.365934 -0.85351,-2.044922 -0.28638,-0.678993 -0.57429,-1.35563 -0.86524,-2.029297 -0.29094,-0.673667 -0.58537,-1.345372 -0.88085,-2.013672 -0.29549,-0.668296 -0.5926,-1.333206 -0.89258,-1.996094 -0.29999,-0.662887 -0.60181,-1.323035 -0.90625,-1.980469 -0.30445,-0.657433 -0.61106,-1.312909 -0.91993,-1.964843 -0.30887,-0.651935 -0.62034,-1.300876 -0.93359,-1.947266 -0.31326,-0.646394 -0.62768,-1.290833 -0.94531,-1.931641 -0.31761,-0.640803 -0.63904,-1.278882 -0.96094,-1.914062 -0.32192,-0.635176 -0.64449,-1.266978 -0.9707,-1.896484 -0.32621,-0.629503 -0.65589,-1.255118 -0.98633,-1.878907 -0.33044,-0.623788 -0.66145,-1.245252 -0.99609,-1.863281 -0.33465,-0.618028 -0.67293,-1.233478 -1.01172,-1.845703 -0.33881,-0.612225 -0.67857,-1.221747 -1.02149,-1.828125 -0.34293,-0.606378 -0.68812,-1.210059 -1.03515,-1.810547 -0.34702,-0.600487 -0.6958,-1.196463 -1.04688,-1.791016 -0.35107,-0.594553 -0.70546,-1.186815 -1.06054,-1.77539 -0.35509,-0.588575 -0.71126,-1.175259 -1.07032,-1.757813 -0.35906,-0.582553 -0.72096,-1.161792 -1.08398,-1.738281 -0.36301,-0.576489 -0.72684,-1.150323 -1.09375,-1.720703 -0.36691,-0.57038 -0.73665,-1.136944 -1.10742,-1.701172 -0.37078,-0.564228 -0.74256,-1.125562 -1.11719,-1.683594 -0.37461,-0.558032 -0.752462,-1.11227 -1.130861,-1.664062 -0.378398,-0.551793 -0.758473,-1.100975 -1.140625,-1.646485 -0.382151,-0.545509 -0.766473,-1.08777 -1.152343,-1.626953 -0.385867,-0.539183 -0.772558,-1.074609 -1.16211,-1.607422 z m -0.21875,8.738282 0.195313,1.724609 0.195312,1.722656 0.197266,1.72461 0.195312,1.722656 0.195313,1.722656 0.195312,1.724609 0.195313,1.722657 0.195312,1.722656 0.197266,1.724609 0.195312,1.722657 0.195313,1.724609 0.195313,1.722656 0.195312,1.722656 0.197266,1.72461 0.195312,1.722656 0.195313,1.72461 0.195312,1.722656 0.195313,1.722656 0.195312,1.724609 0.197266,1.722657 0.195312,1.722656 0.195314,1.724609 0.19531,1.722657 0.19531,1.724609 0.19727,1.722656 0.19531,1.722656 0.19531,1.72461 0.19532,1.722656 0.19531,1.724609 0.19531,1.722657 0.19727,1.722656 0.19531,1.724609 0.57813,0.138672 0.57812,0.138672 0.57812,0.138672 0.57813,0.138672 1.1543,0.277344 1.15625,0.277343 1.15625,0.277344 1.15625,0.279297 1.15625,0.277344 1.15625,0.277343 1.15625,0.277344 1.15429,0.277344 1.15625,0.277344 1.15625,0.277343 1.15625,0.277344 1.15625,0.279297 1.15625,0.277344 1.15625,0.277343 -1.0625,0.355469 -1.0625,0.355469 -1.06054,0.357422 -1.0625,0.355469 -1.06055,0.355468 -1.0625,0.355469 -1.0625,0.355469 -1.06055,0.357422 -1.0625,0.355469 -1.06054,0.355468 -1.0625,0.355469 -1.0625,0.355469 -1.06055,0.357422 -1.0625,0.355468 -1.06055,0.355469 -1.0625,0.355469 0.11524,0.822266 0.11523,0.822265 0.11524,0.820313 0.11523,0.822265 0.11523,0.820313 0.11329,0.822265 0.11523,0.822266 0.11523,0.820313 0.11524,0.822265 0.11523,0.822266 0.11524,0.820312 0.11523,0.822266 0.11524,0.820312 0.11523,0.822266 0.11523,0.822266 0.11524,0.820312 -0.625,-0.748047 -0.62695,-0.748047 -0.625,-0.748047 -0.625,-0.748046 -0.625,-0.748047 -0.62696,-0.748047 -0.625,-0.748047 -0.625,-0.748047 -0.624997,-0.748047 -0.625,-0.748047 -0.626953,-0.748046 -0.625,-0.748047 -0.625,-0.748047 -0.625,-0.748047 -0.626953,-0.748047 -0.625,-0.748047 -0.589844,0.755859 -0.589844,0.75586 -0.589843,0.755859 -0.589844,0.753907 -0.589844,0.755859 -0.591797,0.755859 -0.589843,0.75586 -0.589844,0.755859 L 90,94.769531 l -0.589844,0.75586 -0.589844,0.755859 -0.589843,0.755859 -0.591797,0.753907 -0.589844,0.755859 -0.589844,0.755859 -0.589843,0.755856 0.09375,-0.830074 0.09375,-0.830078 0.09375,-0.830079 0.09375,-0.828125 0.09375,-0.830078 0.09375,-0.830078 0.09375,-0.830078 0.09375,-0.830078 0.0957,-0.830078 0.09375,-0.828125 0.09375,-0.830078 0.09375,-0.830079 0.09375,-0.830078 0.09375,-0.830078 0.09375,-0.828125 0.09375,-0.830078 L 86.330075,86.427734 85.287106,86.072266 84.246091,85.716797 83.203122,85.363281 82.162106,85.007812 81.119138,84.652344 80.078122,84.296875 79.037106,83.941406 77.994138,83.587891 76.953122,83.232422 75.910153,82.876953 74.869138,82.521484 73.826169,82.167969 72.785153,81.8125 71.744138,81.457031 70.701169,81.101562 71.81445,80.824219 72.929685,80.546875 74.042966,80.269531 75.1582,79.992188 76.271481,79.714844 77.384766,79.4375 78.5,79.160156 l 1.113281,-0.277344 1.113281,-0.277343 1.115235,-0.277344 1.113281,-0.277344 1.115234,-0.277343 1.113282,-0.277344 1.113281,-0.277344 0.558594,-0.136719 0.55664,-0.138672 0.556641,-0.138671 0.556641,-0.138672 0.224609,-1.72461 0.224609,-1.722656 0.22461,-1.724609 0.224609,-1.722657 0.22461,-1.724609 0.224609,-1.722656 0.222656,-1.72461 0.224609,-1.722656 0.22461,-1.724609 0.224609,-1.722656 0.22461,-1.72461 0.224609,-1.722656 0.224609,-1.72461 0.22461,-1.722656 0.224609,-1.724609 0.22461,-1.722656 0.224609,-1.722657 0.222656,-1.724609 0.224609,-1.722656 0.22461,-1.72461 0.224609,-1.722656 0.22461,-1.724609 0.224609,-1.722656 0.224609,-1.72461 0.22461,-1.722656 0.224609,-1.72461 0.22461,-1.722656 0.224609,-1.724609 0.222656,-1.722656 0.224609,-1.72461 0.22461,-1.722656 z"
       transform="scale(0.26458333)"
       id="path18-5"
       inkscape:connector-curvature="0" /></g><g
     id="g863"
     inkscape:groupmode="layer"
     inkscape:label="F.Silk"
     style="display:inline"><path
       style="fill:#000000;fill-opacity:1;stroke:#000000;stroke-width:0.45940915;stroke-miterlimit:2.61313009;stroke-dasharray:none;stroke-opacity:1"
       d="m 42.196869,181.14214 c 0.0029,-0.0261 0.006,-0.0546 0.0092,-0.0854 0.0033,-0.0308 0.0067,-0.0639 0.0103,-0.0993 0.0036,-0.0354 0.0074,-0.073 0.01134,-0.1127 0.0039,-0.0397 0.0081,-0.0816 0.01234,-0.12563 0.0043,-0.044 0.0087,-0.09 0.0133,-0.13809 0.0046,-0.0481 0.0093,-0.0981 0.01422,-0.15009 0.0049,-0.052 0.0099,-0.10588 0.0151,-0.16162 0.0052,-0.0557 0.01049,-0.11333 0.01593,-0.17268 0.0054,-0.0593 0.01103,-0.12047 0.01673,-0.18327 0.0057,-0.0628 0.01154,-0.1273 0.01749,-0.1934 0.006,-0.0661 0.01202,-0.13382 0.0182,-0.20306 0.0062,-0.0693 0.01248,-0.14003 0.01888,-0.21226 0.0064,-0.0722 0.01291,-0.14591 0.01952,-0.22097 0.0066,-0.0751 0.01331,-0.1515 0.02011,-0.22924 0.0068,-0.0777 0.01369,-0.15677 0.02067,-0.23702 0.007,-0.0803 0.01404,-0.16173 0.02118,-0.24435 0.0071,-0.0826 0.01436,-0.16638 0.02165,-0.2512 0.0073,-0.0848 0.01466,-0.17071 0.02209,-0.25759 0.0074,-0.0869 0.01493,-0.17474 0.02248,-0.26351 0.0076,-0.0888 0.01517,-0.17845 0.02283,-0.26896 0.0077,-0.0905 0.01538,-0.18186 0.02315,-0.27395 0.0078,-0.0921 0.01557,-0.18494 0.02342,-0.27847 0.0078,-0.0935 0.01573,-0.18772 0.02365,-0.28251 0.0079,-0.0948 0.01587,-0.19019 0.02384,-0.28611 0.008,-0.0959 0.01597,-0.19234 0.02399,-0.28921 0.008,-0.0969 0.01605,-0.19419 0.0241,-0.29187 0.008,-0.0977 0.01611,-0.19572 0.02417,-0.29404 0.0081,-0.0983 0.01613,-0.19694 0.0242,-0.29576 0.0081,-0.0988 0.01613,-0.19785 0.02419,-0.29701 0.0081,-0.0992 0.01611,-0.19844 0.02414,-0.29778 0.008,-0.0993 0.01605,-0.19873 0.02405,-0.2981 0.008,-0.0994 0.01597,-0.1987 0.02392,-0.29794 0.168105,-2.09958 0.345063,-4.18334 0.530886,-6.25132 0.185824,-2.06798 0.380515,-4.12019 0.584088,-6.15667 0.203572,-2.03648 0.416026,-4.05724 0.637378,-6.06234 0.221351,-2.00509 0.451599,-3.99451 0.690759,-5.96832 0.239159,-1.97381 0.487231,-3.932 0.74423,-5.87463 0.256999,-1.94263 0.522924,-3.8697 0.797792,-5.78126 0.274867,-1.91156 0.558677,-3.8076 0.851443,-5.6882 0.292767,-1.88059 0.59449,-3.74572 0.905186,-5.59545 0.310695,-1.84973 0.630362,-3.68406 0.959017,-5.50304 0.328654,-1.81898 0.666296,-3.6226 1.01294,-5.41093 0.346643,-1.78833 0.702289,-3.56136 1.066952,-5.31915 0.364662,-1.75779 0.738342,-3.50033 1.121054,-5.22768 0.382712,-1.72735 0.774457,-3.43951 1.175248,-5.136537 0.400791,-1.697022 0.81063,-3.378905 1.229531,-5.045704 0.4189,-1.666799 0.846863,-3.318512 1.283903,-4.955193 0.437041,-1.636681 0.883158,-3.25833 1.338368,-4.865 0.455209,-1.60667 0.919511,-3.198361 1.392921,-4.775125 0.473409,-1.576765 0.955926,-3.138604 1.447564,-4.685569 0.491639,-1.546966 0.992401,-3.079059 1.502299,-4.596331 0.509899,-1.517273 1.028935,-3.019726 1.557123,-4.507411 0.528189,-1.487686 1.065529,-2.960605 1.612038,-4.41881 0.546508,-1.458205 1.102184,-2.901696 1.667042,-4.330527 0.564858,-1.42883 1.138898,-2.843 1.722137,-4.242562 0.583238,-1.399562 1.175673,-2.784516 1.777321,-4.154915 0.601648,-1.3704 1.212509,-2.726244 1.832597,-4.067587 0.620089,-1.341344 1.249404,-2.668185 1.887963,-3.980578 0.638558,-1.312393 1.286359,-2.610337 1.943418,-3.893886 0.657059,-1.283549 1.323375,-2.552702 1.998964,-3.807513 0.675589,-1.254811 1.36045,-2.495279 2.0546,-3.721458 0.694149,-1.226179 1.397586,-2.438069 2.110326,-3.635722 0.712739,-1.197653 1.434782,-2.38107 2.166142,-3.550303 0.73136,-1.169234 1.472038,-2.324284 2.222049,-3.465204 0.130106,-0.197917 0.261045,-0.396217 0.392648,-0.594671 0.131603,-0.198454 0.263869,-0.397063 0.39663,-0.5956 0.132761,-0.198537 0.266016,-0.397 0.399596,-0.595164 0.133579,-0.198164 0.267484,-0.396028 0.401543,-0.593365 0.134059,-0.197337 0.268273,-0.394146 0.402472,-0.590201 0.134199,-0.196054 0.268384,-0.391354 0.402384,-0.585672 0.134,-0.194317 0.267816,-0.387653 0.401278,-0.579779 0.133461,-0.192126 0.266569,-0.383042 0.399153,-0.572522 0.132584,-0.18948 0.264645,-0.377522 0.396012,-0.563901 0.131367,-0.186378 0.262041,-0.371093 0.391852,-0.553915 0.129811,-0.182823 0.25876,-0.363753 0.386675,-0.542565 0.127916,-0.178812 0.254799,-0.355505 0.380479,-0.529851 0.125681,-0.174346 0.25016,-0.346346 0.373267,-0.515772 0.123107,-0.169426 0.244842,-0.336278 0.365035,-0.500329 0.120194,-0.164051 0.238846,-0.325301 0.355787,-0.483522 0.116941,-0.158221 0.23217,-0.313413 0.34552,-0.46535 0.113349,-0.151936 0.224817,-0.300617 0.334235,-0.4458139 0.109418,-0.1451972 0.216786,-0.2869109 0.321933,-0.4249139 0.105148,-0.138003 0.208076,-0.2722953 0.308614,-0.4026494 0.100538,-0.130354 0.198686,-0.25677 0.294275,-0.3790204 0.09559,-0.1222504 0.188619,-0.2403352 0.27892,-0.3540272 0.0903,-0.1136919 0.177872,-0.2229909 0.262546,-0.3276696 0.08467,-0.1046787 0.166448,-0.2047371 0.245154,-0.2999478 0.07871,-0.095211 0.154345,-0.1855737 0.226746,-0.2708617 0.0724,-0.085288 0.141563,-0.1655007 0.207319,-0.2404111 0.06576,-0.07491 0.128103,-0.1445183 0.186873,-0.2085963 0.05877,-0.064078 0.113965,-0.1226262 0.165412,-0.1754172 0.05145,-0.052791 0.09915,-0.099825 0.14293,-0.1408737 0.04378,-0.041049 0.08365,-0.076114 0.119433,-0.104966 0.03578,-0.028852 0.06748,-0.051493 0.09492,-0.067694 0.02744,-0.016201 0.05062,-0.025963 0.06938,-0.029057 0.01876,-0.00309 0.03309,4.771e-4 0.04283,0.010943 0.0042,0.00454 0.0098,0.011066 0.01673,0.019529 0.0069,0.00846 0.01517,0.018864 0.02471,0.031148 0.0095,0.012285 0.02038,0.026454 0.03247,0.042457 0.01209,0.016002 0.02544,0.033838 0.04001,0.053454 0.01457,0.019616 0.03036,0.041014 0.04734,0.064141 0.01698,0.023127 0.03513,0.047983 0.05444,0.074518 0.01931,0.026534 0.03976,0.054746 0.06133,0.084583 0.02157,0.029838 0.04424,0.061301 0.068,0.094339 0.02375,0.033037 0.04858,0.067649 0.07445,0.1037829 0.02587,0.036134 0.05277,0.07379 0.08068,0.1129167 0.02791,0.039127 0.05682,0.079724 0.08669,0.1217398 0.02987,0.042016 0.06071,0.085451 0.09248,0.1302524 0.03177,0.044802 0.06447,0.09097 0.09806,0.1384543 0.03359,0.047484 0.06808,0.096283 0.103416,0.1463455 0.03534,0.050063 0.07154,0.1013886 0.108555,0.1539262 0.03702,0.052538 0.07485,0.1062869 0.113475,0.1611961 0.03862,0.054909 0.07802,0.1109783 0.118177,0.1681555 0.04015,0.057177 0.08105,0.1154625 0.12266,0.1748042 0.04161,0.059342 0.08393,0.1197396 0.126924,0.1811422 0.043,0.061402 0.08666,0.1238097 0.130971,0.1871696 0.04431,0.06336 0.08925,0.1276727 0.134798,0.1928864 0.04555,0.065214 0.09169,0.1313286 0.138407,0.1982926 0.04671,0.066964 0.09399,0.1347773 0.141798,0.2033881 0.04781,0.068611 0.09614,0.1380189 0.144971,0.2081729 0.04883,0.070154 0.09815,0.1410536 0.147924,0.2126471 0.04978,0.071594 0.100007,0.1438811 0.150659,0.2168108 0.05065,0.07293 0.101722,0.1465019 0.153176,0.2206639 0.05145,0.07416 0.10329,0.148915 0.155474,0.224206 0.05218,0.07529 0.104713,0.151121 0.157554,0.227437 0.05284,0.07632 0.105991,0.153121 0.159415,0.230359 0.05342,0.07724 0.107122,0.154912 0.161058,0.232969 0.05393,0.07806 0.108108,0.156497 0.162482,0.235269 0.356551,0.516538 0.711907,1.03571 1.066017,1.557444 0.35411,0.521734 0.70699,1.046029 1.05859,1.572812 0.35159,0.526783 0.70191,1.056054 1.05092,1.58774 0.349,0.531686 0.69669,1.065787 1.04303,1.602229 0.34633,0.536443 0.69131,1.075227 1.03489,1.616279 0.34359,0.541053 0.68578,1.084373 1.02654,1.629889 0.34076,0.545516 0.68009,1.093227 1.01794,1.64306 0.33786,0.549833 0.67425,1.101788 1.00912,1.655792 0.33488,0.554003 0.66824,1.110056 1.00006,1.668083 0.33182,0.558028 0.66208,1.118031 0.99076,1.679937 0.32868,0.561905 0.65578,1.125713 0.98125,1.691349 0.32546,0.565637 0.6493,1.133102 0.97148,1.702324 0.32218,0.569221 0.64269,1.140198 0.96149,1.712858 0.31881,0.57266 0.63592,1.147002 0.95128,1.722953 0.31536,0.575952 0.62898,1.153512 0.94081,1.732609 0.31184,0.579097 0.6219,1.15973 0.93013,1.741826 0.30824,0.582095 0.61465,1.165654 0.91921,1.750602 0.30456,0.584948 0.60726,1.171286 0.90806,1.75894 0.3008,0.587654 0.5997,1.176625 0.89667,1.766838 0.29696,0.590214 0.59199,1.181671 0.88505,1.774297 0.29305,0.592627 0.58413,1.186424 0.8732,1.781317 0.28906,0.594893 0.57611,1.190883 0.86111,1.787897 0.285,0.597013 0.56795,1.19505 0.8488,1.794037 0.28086,0.598987 0.55962,1.198924 0.83625,1.799739 0.27664,0.600814 0.55114,1.202505 0.82347,1.805 0.27234,0.602495 0.5425,1.205794 0.81046,1.809823 0.26795,0.604029 0.5337,1.208789 0.7972,1.814206 0.26351,0.605418 0.52476,1.211492 0.78373,1.81815 0.25897,0.606659 0.51566,1.213901 0.77002,1.821655 0.25436,0.607753 0.50639,1.216017 0.75607,1.824719 0.24967,0.608702 0.49698,1.217841 0.74189,1.827345 0.24491,0.609504 0.48741,1.219372 0.72748,1.829531 0.32856,0.835087 0.65354,1.672851 0.97491,2.513228 0.32137,0.840377 0.63914,1.683368 0.95329,2.528908 0.31415,0.84554 0.62468,1.693629 0.93158,2.544205 0.30689,0.850575 0.61016,1.703636 0.90978,2.559119 0.29961,0.855483 0.59558,1.713389 0.88789,2.573652 0.2923,0.860263 0.58095,1.722884 0.86591,2.5878 0.28497,0.864915 0.56625,1.732125 0.84385,2.601566 0.2776,0.869441 0.5515,1.741112 0.82169,2.614949 0.2702,0.873838 0.53669,1.749843 0.79946,2.62795 0.26276,0.878108 0.52181,1.758318 0.77711,2.640568 0.25531,0.88225 0.50688,1.766538 0.7547,2.652802 0.24782,0.886265 0.49189,1.774504 0.73219,2.664655 0.2403,0.890151 0.47683,1.782214 0.70959,2.676122 0.23275,0.89391 0.46172,1.78967 0.6869,2.68721 0.22517,0.89754 0.44655,1.79687 0.66412,2.69792 0.21757,0.90104 0.43133,1.80381 0.64126,2.70823 0.20993,0.90442 0.41604,1.8105 0.61831,2.71817 0.20226,0.90768 0.40069,1.81694 0.59526,2.72773 0.19457,0.9108 0.38528,1.82312 0.57213,2.7369 0.18684,0.91379 0.36982,1.82904 0.54891,2.74569 0.17909,0.91666 0.35429,1.83471 0.5256,2.7541 0.1713,0.91939 0.33871,1.84012 0.5022,2.76212 0.16349,0.92201 0.32307,1.84528 0.47871,2.76977 0.15565,0.92448 0.30737,1.85018 0.45514,2.77702 0.14777,0.92684 0.2916,1.85483 0.43147,2.78389 0.13987,0.92907 0.27578,1.85923 0.40772,2.79039 0.13194,0.93117 0.2599,1.86336 0.38388,2.7965 0.12397,0.93315 0.24396,1.86724 0.35994,2.80223 0.11598,0.93499 0.22796,1.87087 0.33592,2.80757 0.10796,0.93671 0.21191,1.87424 0.31182,2.81254 0.0999,0.93829 0.19578,1.87735 0.28761,2.81711 0.0918,0.93976 0.17961,1.88022 0.26333,2.82131 0.0167,0.18723 0.0334,0.37808 0.0502,0.57215 0.0168,0.19408 0.0336,0.39137 0.0504,0.59149 0.0168,0.20011 0.0337,0.40304 0.0505,0.60838 0.0168,0.20535 0.0337,0.4131 0.0505,0.62286 0.0168,0.20976 0.0336,0.42153 0.0503,0.6349 0.0167,0.21337 0.0334,0.42834 0.0499,0.64451 0.0166,0.21617 0.0331,0.43354 0.0494,0.6517 0.0164,0.21816 0.0327,0.43711 0.0488,0.65645 0.0161,0.21934 0.0322,0.43907 0.048,0.65878 0.0159,0.21971 0.0315,0.4394 0.0471,0.65867 0.0155,0.21927 0.0308,0.43812 0.046,0.65614 0.0151,0.21802 0.03,0.43521 0.0447,0.65117 0.0147,0.21597 0.0291,0.43069 0.0433,0.64379 0.0142,0.21309 0.0281,0.42455 0.0418,0.63396 0.0136,0.20941 0.027,0.41679 0.0401,0.62171 0.013,0.20493 0.0258,0.4074 0.0382,0.60703 0.0124,0.19963 0.0245,0.3964 0.0362,0.58992 0.0117,0.19352 0.0231,0.38378 0.034,0.57038 0.011,0.18661 0.0216,0.36955 0.0317,0.54842 0.0102,0.17887 0.0199,0.35368 0.0293,0.52402 0.009,0.17033 0.0182,0.3362 0.0267,0.49718 0.008,0.16099 0.0164,0.31711 0.0239,0.46794 0.007,0.15083 0.0145,0.29638 0.021,0.43625 0.006,0.13986 0.0125,0.27404 0.0179,0.40213 0.005,0.12809 0.0104,0.25008 0.0147,0.36559 0.004,0.1155 0.008,0.2245 0.0114,0.32661 0.003,0.10211 0.006,0.19731 0.008,0.28521 0.002,0.0879 0.003,0.1685 0.004,0.24138 7.6e-4,0.0729 8.9e-4,0.13806 3.6e-4,0.19512 -5.3e-4,0.0571 -0.002,0.106 -0.004,0.14643 -0.002,0.0404 -0.004,0.0723 -0.008,0.0953 -0.003,0.023 -0.007,0.037 -0.012,0.0418 -0.002,0.002 -0.005,7.3e-4 -0.01,-0.003 -0.005,-0.004 -0.0109,-0.0104 -0.0186,-0.0197 -0.008,-0.009 -0.0167,-0.0213 -0.0271,-0.0359 -0.0104,-0.0146 -0.0222,-0.0319 -0.0354,-0.0517 -0.0132,-0.0198 -0.0277,-0.0422 -0.0435,-0.0671 -0.0158,-0.0249 -0.0329,-0.0523 -0.0513,-0.0821 -0.0184,-0.0298 -0.0381,-0.0621 -0.059,-0.0967 -0.0209,-0.0346 -0.043,-0.0716 -0.0664,-0.11088 -0.0233,-0.0393 -0.0479,-0.0809 -0.0735,-0.12466 -0.0257,-0.0438 -0.0525,-0.0898 -0.0805,-0.13802 -0.028,-0.0482 -0.0571,-0.0986 -0.0872,-0.15099 -0.0302,-0.0524 -0.0614,-0.10699 -0.0937,-0.16355 -0.0323,-0.0566 -0.0656,-0.11515 -0.1,-0.1757 -0.0343,-0.0606 -0.0697,-0.12305 -0.10603,-0.18745 -0.0363,-0.0644 -0.0736,-0.13068 -0.11184,-0.19879 -0.0382,-0.0681 -0.0774,-0.13804 -0.11744,-0.20972 -0.0401,-0.0717 -0.081,-0.14513 -0.1228,-0.22026 -0.0418,-0.0751 -0.0845,-0.15194 -0.12793,-0.23038 -0.0435,-0.0784 -0.0878,-0.15849 -0.13285,-0.2401 -0.0451,-0.0816 -0.0909,-0.16477 -0.13753,-0.24941 -0.0466,-0.0847 -0.0939,-0.17078 -0.14198,-0.25833 -0.048,-0.0875 -0.0968,-0.17651 -0.14622,-0.26682 -0.0494,-0.0903 -0.0995,-0.18198 -0.15022,-0.27492 -0.0507,-0.093 -0.10206,-0.18718 -0.15399,-0.28262 -0.0519,-0.0954 -0.10447,-0.19209 -0.15755,-0.2899 -0.0531,-0.0978 -0.10672,-0.19675 -0.16087,-0.29678 -0.0542,-0.10002 -0.10882,-0.20113 -0.16397,-0.30325 -0.0551,-0.10212 -0.11077,-0.20525 -0.16684,-0.30932 -0.0561,-0.10408 -0.11258,-0.2091 -0.16949,-0.31499 -0.0569,-0.1059 -0.11422,-0.21267 -0.1719,-0.32025 -0.0577,-0.10758 -0.11572,-0.21597 -0.17409,-0.3251 -0.0584,-0.10912 -0.11707,-0.219 -0.17606,-0.32954 -0.25584,-0.47945 -0.51298,-0.95945 -0.77134,-1.43985 -0.25836,-0.4804 -0.51793,-0.96121 -0.77862,-1.44227 -0.2607,-0.48107 -0.52253,-0.96239 -0.78539,-1.44383 -0.26286,-0.48144 -0.52677,-0.96299 -0.79162,-1.44451 -0.26486,-0.48152 -0.53067,-0.963 -0.79734,-1.44431 -0.26668,-0.48131 -0.53422,-0.96244 -0.80253,-1.44325 -0.26832,-0.4808 -0.53742,-0.96129 -0.80721,-1.4413 -0.26978,-0.48001 -0.54026,-0.95956 -0.81135,-1.43849 -0.27108,-0.47893 -0.54277,-0.95724 -0.81497,-1.4348 -0.2722,-0.47755 -0.54493,-0.95435 -0.81808,-1.43024 -0.27315,-0.47589 -0.54673,-0.95087 -0.82065,-1.4248 -0.27392,-0.47393 -0.54819,-0.94681 -0.82271,-1.4185 -0.27452,-0.47168 -0.5493,-0.94217 -0.82425,-1.41131 -0.27494,-0.46914 -0.55006,-0.93694 -0.82525,-1.40326 -0.2752,-0.46631 -0.55047,-0.93113 -0.82574,-1.39432 -0.27528,-0.46319 -0.55054,-0.92475 -0.82571,-1.38453 -0.27517,-0.45978 -0.55025,-0.91777 -0.82515,-1.37385 -0.2749,-0.45607 -0.54962,-0.91022 -0.82407,-1.3623 -0.27445,-0.45207 -0.54864,-0.90208 -0.82247,-1.34987 -0.27383,-0.44779 -0.5473,-0.89337 -0.82034,-1.33658 -0.27303,-0.44321 -0.54563,-0.88406 -0.81769,-1.32241 -0.27206,-0.43834 -0.5436,-0.87418 -0.81452,-1.30736 -0.27092,-0.43319 -0.54122,-0.86372 -0.81082,-1.29145 -0.26961,-0.42773 -0.5385,-0.85267 -0.80661,-1.27466 -0.26811,-0.42199 -0.53543,-0.84103 -0.80187,-1.25699 -0.26644,-0.41596 -0.53201,-0.82882 -0.79661,-1.23845 -0.26459,-0.40964 -0.52823,-0.81603 -0.79081,-1.21905 -0.26259,-0.40301 -0.52412,-0.80265 -0.78452,-1.19876 -0.26039,-0.3961 -0.51965,-0.78869 -0.77768,-1.17759 -0.25803,-0.38891 -0.51483,-0.77415 -0.77032,-1.15557 -0.25549,-0.38142 -0.50967,-0.75903 -0.76245,-1.13267 -0.25278,-0.37364 -0.50416,-0.74331 -0.75405,-1.10888 -0.10743,-0.15716 -0.21206,-0.31003 -0.31402,-0.45875 -0.10195,-0.14872 -0.20124,-0.29329 -0.29797,-0.43385 -0.0967,-0.14055 -0.19091,-0.2771 -0.28266,-0.40977 -0.0918,-0.13266 -0.18108,-0.26146 -0.26809,-0.38651 -0.087,-0.12505 -0.17172,-0.24635 -0.25425,-0.36406 -0.0825,-0.1177 -0.16286,-0.23181 -0.24113,-0.34244 -0.0783,-0.11063 -0.15449,-0.21779 -0.22877,-0.32163 -0.0743,-0.10383 -0.1466,-0.20433 -0.21712,-0.30164 -0.0705,-0.0973 -0.13921,-0.19141 -0.20621,-0.28246 -0.067,-0.091 -0.13231,-0.17905 -0.19604,-0.26411 -0.0637,-0.0851 -0.12589,-0.16722 -0.1866,-0.24658 -0.0607,-0.0794 -0.11997,-0.15593 -0.1779,-0.22985 -0.0579,-0.0739 -0.11453,-0.1452 -0.16992,-0.21396 -0.0554,-0.0688 -0.10958,-0.135 -0.16268,-0.19887 -0.0531,-0.0639 -0.10513,-0.12536 -0.15618,-0.1846 -0.0511,-0.0593 -0.10116,-0.11626 -0.15041,-0.17116 -0.0493,-0.0549 -0.0977,-0.1077 -0.14537,-0.15853 -0.0477,-0.0508 -0.0947,-0.0997 -0.14107,-0.14671 -0.0464,-0.047 -0.0922,-0.0922 -0.13749,-0.13572 -0.0453,-0.0435 -0.0902,-0.0853 -0.13467,-0.12555 -0.0445,-0.0402 -0.0886,-0.0789 -0.13255,-0.11618 -0.0439,-0.0373 -0.0876,-0.0731 -0.13119,-0.10764 -0.0436,-0.0346 -0.0871,-0.0678 -0.13056,-0.0999 -0.0435,-0.0321 -0.087,-0.0631 -0.13065,-0.093 -0.0437,-0.0299 -0.0874,-0.0589 -0.13148,-0.0869 -0.044,-0.0281 -0.0884,-0.0552 -0.13306,-0.0817 -0.0447,-0.0264 -0.0898,-0.0521 -0.13535,-0.0772 -0.0456,-0.0251 -0.0917,-0.0496 -0.13838,-0.0736 -0.0467,-0.024 -0.0941,-0.0476 -0.14215,-0.0708 -0.0481,-0.0232 -0.0969,-0.0461 -0.14666,-0.0688 -0.0497,-0.0227 -0.1003,-0.0452 -0.15188,-0.0676 -0.0516,-0.0224 -0.10416,-0.0448 -0.15786,-0.0672 -0.0798,-0.0333 -0.16076,-0.064 -0.24309,-0.092 -0.0823,-0.028 -0.16599,-0.0534 -0.25105,-0.076 -0.0851,-0.0226 -0.17153,-0.0426 -0.2595,-0.0597 -0.088,-0.0172 -0.17741,-0.0316 -0.26843,-0.0433 -0.091,-0.0117 -0.18362,-0.0206 -0.27787,-0.0266 -0.0942,-0.006 -0.19015,-0.009 -0.28778,-0.01 -0.0976,-4.2e-4 -0.19701,0.002 -0.2982,0.007 -0.1012,0.005 -0.2042,0.0135 -0.30911,0.0246 -0.10491,0.0111 -0.21172,0.0251 -0.32051,0.0421 -0.10879,0.017 -0.21956,0.0369 -0.33239,0.0598 -0.11284,0.0229 -0.22773,0.0488 -0.34478,0.0778 -0.11704,0.0289 -0.23623,0.0609 -0.35764,0.0959 -0.12142,0.035 -0.24506,0.0731 -0.37102,0.11426 -0.12595,0.0412 -0.25421,0.0854 -0.38486,0.13281 -0.13066,0.0474 -0.2637,0.0979 -0.39922,0.15159 -0.13551,0.0537 -0.27351,0.11052 -0.41405,0.17056 -0.14055,0.06 -0.28365,0.12327 -0.42939,0.18974 -0.14573,0.0665 -0.29411,0.13617 -0.4452,0.20914 -0.1511,0.073 -0.30491,0.14921 -0.46152,0.22875 -0.15662,0.0795 -0.31603,0.16238 -0.47833,0.24856 -0.1623,0.0862 -0.32748,0.1757 -0.49562,0.26859 -0.16815,0.0929 -0.33926,0.18915 -0.51342,0.28883 -0.17415,0.0997 -0.35136,0.20275 -0.53169,0.30927 -0.18033,0.10652 -0.36379,0.21648 -0.55047,0.32993 -0.18667,0.11344 -0.37655,0.23036 -0.56973,0.35079 -0.19317,0.12043 -0.38964,0.24438 -0.58948,0.37187 -0.19985,0.12749 -0.40306,0.25853 -0.60974,0.39316 -0.20667,0.13462 -0.4168,0.27283 -0.63047,0.41465 -0.21367,0.14182 -0.43087,0.28727 -0.6517,0.43636 -0.22083,0.1491 -0.44528,0.30184 -0.67343,0.45828 -0.22815,0.15643 -0.46,0.31656 -0.69564,0.4804 -0.23563,0.16385 -0.47505,0.33141 -0.71834,0.50274 -0.57459,0.40463 -1.147265,0.81382 -1.718259,1.2278 -0.570993,0.41399 -1.140302,0.83277 -1.708149,1.25659 -0.567848,0.42382 -1.134234,0.85268 -1.699382,1.28681 -0.565148,0.43413 -1.129058,0.87354 -1.691953,1.31846 -0.562895,0.44492 -1.124775,0.89536 -1.685863,1.35155 -0.561089,0.45619 -1.121386,0.91813 -1.681114,1.38607 -0.559728,0.46794 -1.118888,0.94187 -1.677702,1.42204 -0.558815,0.48016 -1.117284,0.96656 -1.675631,1.45943 -0.558347,0.49287 -1.116572,0.99221 -1.674898,1.49826 -0.558326,0.50606 -1.116753,1.01882 -1.675505,1.53853 -0.558751,0.51972 -1.117827,1.04638 -1.67745,1.58024 -0.559624,0.53385 -1.119794,1.0749 -1.680736,1.62337 -0.560942,0.54848 -1.122654,1.10438 -1.68536,1.66795 -0.562707,0.56357 -1.126407,1.13481 -1.691324,1.71396 -0.564917,0.57914 -1.131052,1.1662 -1.698627,1.7614 -0.567574,0.5952 -1.13659,1.19855 -1.707268,1.81028 -0.570679,0.61174 -1.143021,1.23186 -1.71725,1.8606 -0.574229,0.62875 -1.150345,1.26612 -1.728571,1.91235 -0.578225,0.64624 -1.158561,1.30134 -1.74123,1.96554 -0.582669,0.66421 -1.167671,1.33751 -1.755229,2.02016 -0.587559,0.68266 -1.177673,1.37465 -1.770568,2.07623 -0.592894,0.70157 -1.188568,1.41273 -1.787244,2.13371 -0.598677,0.72098 -1.200356,1.45178 -1.805262,2.19265 -0.604905,0.74086 -1.213036,1.49178 -1.824617,2.25301 -0.611581,0.76122 -1.22661,1.53274 -1.845312,2.31481 -0.618703,0.78206 -1.241077,1.57466 -1.867347,2.37804 -0.62627,0.80339 -1.256436,1.61755 -1.89072,2.44272 -0.634285,0.82518 -1.272688,1.66138 -1.915433,2.50883 -0.642746,0.84746 -1.289833,1.70617 -1.941486,2.57637 -0.651652,0.87021 -1.30787,1.75191 -1.968876,2.64535 -0.661006,0.89344 -1.3268,1.79862 -1.997607,2.71577 -0.670806,0.91715 -1.346623,1.84627 -2.027676,2.78761 l -0.0646,0.0893 -0.0646,0.0893 -0.0646,0.0893 -0.0646,0.0893 -0.0646,0.0893 -0.0646,0.0893 -0.0646,0.0893 -0.0646,0.0893 -0.0646,0.0893 -0.0646,0.0893 -0.0646,0.0893 -0.0646,0.0893 -0.0646,0.0893 -0.0646,0.0893 -0.0646,0.0893 -0.0646,0.0893 -0.0646,0.0893 -0.0646,0.0893 -0.0646,0.0893 -0.0646,0.0893 -0.0646,0.0893 -0.0646,0.0893 -0.0646,0.0893 -0.0646,0.0893 -0.0646,0.0893 -0.0646,0.0893 -0.0646,0.0893 -0.0646,0.0893 -0.0646,0.0893 -0.0646,0.0893 -0.0646,0.0893 -0.0646,0.0893 0.0053,-0.0475 0.0053,-0.0475 0.0053,-0.0475 0.0053,-0.0475 0.0053,-0.0475 0.0053,-0.0475 0.0053,-0.0475 0.0053,-0.0475 0.0053,-0.0475 0.0053,-0.0475 0.0053,-0.0475 0.0053,-0.0475 0.0053,-0.0475 0.0053,-0.0475 0.0053,-0.0475 0.0053,-0.0475 0.0053,-0.0475 0.0053,-0.0475 0.0053,-0.0475 0.0053,-0.0475 0.0053,-0.0475 0.0053,-0.0475 0.0053,-0.0475 0.0053,-0.0475 0.0053,-0.0475 0.0053,-0.0475 0.0053,-0.0475 0.0053,-0.0475 0.0053,-0.0475 0.0053,-0.0475 0.0053,-0.0475 z m 8.425441,-20.6042 c 0.484398,-0.64459 0.970329,-1.28586 1.457664,-1.9237 0.487335,-0.63783 0.976074,-1.27223 1.466087,-1.90305 0.490012,-0.63082 0.9813,-1.25808 1.473732,-1.88163 0.492432,-0.62355 0.986008,-1.24339 1.4806,-1.85941 0.494593,-0.61601 0.9902,-1.22819 1.486694,-1.83641 0.496493,-0.60822 0.993872,-1.21248 1.492008,-1.81264 0.498136,-0.60016 0.997028,-1.19622 1.496548,-1.78806 0.499519,-0.59185 0.999666,-1.17946 1.50031,-1.76272 0.500644,-0.58326 1.001785,-1.16217 1.503295,-1.73659 0.50151,-0.57441 1.003388,-1.14435 1.505504,-1.70966 0.502117,-0.56532 1.004472,-1.12601 1.506937,-1.68196 0.502464,-0.55595 1.005038,-1.10715 1.507592,-1.65348 0.502553,-0.54632 1.005087,-1.08777 1.507471,-1.6242 0.502383,-0.53644 1.004618,-1.06787 1.506573,-1.59415 0.501955,-0.52629 1.003631,-1.04743 1.504898,-1.56331 0.501268,-0.51588 1.002127,-1.02648 1.502448,-1.53169 0.500321,-0.5052 1.000104,-1.005 1.49922,-1.49927 0.499115,-0.49427 0.997564,-0.98301 1.495215,-1.46609 0.497651,-0.48307 0.994506,-0.96049 1.490434,-1.43211 0.495928,-0.47162 0.99093,-0.93744 1.484877,-1.39734 0.493946,-0.45991 0.986836,-0.91388 1.478542,-1.36181 0.491705,-0.44792 0.982225,-0.88979 1.471431,-1.32547 0.489205,-0.43568 0.977096,-0.86518 1.463543,-1.28836 0.486446,-0.42318 0.971449,-0.84004 1.454878,-1.25046 0.483429,-0.41041 0.965285,-0.81438 1.445438,-1.21178 0.480152,-0.39739 0.958602,-0.7882 1.435219,-1.17231 0.476618,-0.3841 0.951403,-0.7615 1.424226,-1.13206 0.472823,-0.37056 0.943684,-0.73428 1.412454,-1.09103 0.46877,-0.35675 0.935448,-0.70653 1.399906,-1.0492 0.464458,-0.34268 0.926695,-0.67826 1.386582,-1.00661 0.459887,-0.32835 0.917424,-0.64946 1.372481,-0.96322 0.455057,-0.31375 0.907635,-0.62014 1.357603,-0.91904 0.216974,-0.14413 0.430803,-0.28537 0.641575,-0.42376 0.210773,-0.13839 0.418489,-0.27393 0.623238,-0.40666 0.20475,-0.13273 0.406533,-0.26265 0.605439,-0.38981 0.198905,-0.12715 0.394934,-0.25153 0.588178,-0.37318 0.19324,-0.12165 0.38369,-0.24058 0.57145,-0.35681 0.18776,-0.11623 0.37282,-0.22977 0.55527,-0.34066 0.18245,-0.11089 0.36229,-0.21914 0.53962,-0.32477 0.17732,-0.10563 0.35213,-0.20865 0.5245,-0.3091 0.17238,-0.10045 0.34233,-0.19833 0.50994,-0.29367 0.16761,-0.0953 0.33288,-0.18817 0.4959,-0.2785 0.16302,-0.0903 0.3238,-0.17816 0.48241,-0.26354 0.15861,-0.0854 0.31506,-0.16832 0.46945,-0.24884 0.15438,-0.0805 0.30669,-0.15863 0.45702,-0.23437 0.15033,-0.0757 0.29868,-0.14911 0.44514,-0.22014 0.14646,-0.071 0.29103,-0.13974 0.4338,-0.20616 0.14277,-0.0664 0.28374,-0.13053 0.42299,-0.1924 0.13926,-0.0619 0.2768,-0.12148 0.41273,-0.17889 0.13592,-0.0574 0.27022,-0.11259 0.40299,-0.16561 0.13276,-0.053 0.264,-0.10387 0.39379,-0.15258 0.1298,-0.0487 0.25815,-0.0953 0.38514,-0.13979 0.127,-0.0445 0.25265,-0.0869 0.37703,-0.12723 0.12438,-0.0403 0.2475,-0.0786 0.36944,-0.11491 0.12195,-0.0363 0.24272,-0.0705 0.3624,-0.10284 0.11969,-0.0323 0.23829,-0.0626 0.3559,-0.091 0.11761,-0.0284 0.23423,-0.0548 0.34993,-0.0794 0.11571,-0.0246 0.23052,-0.0472 0.34451,-0.068 0.11399,-0.0208 0.22716,-0.0398 0.33961,-0.0569 0.11245,-0.0172 0.22418,-0.0325 0.33526,-0.046 0.11109,-0.0136 0.22154,-0.0253 0.33145,-0.0354 0.10991,-0.01 0.21927,-0.0184 0.32817,-0.025 0.1089,-0.007 0.21735,-0.0115 0.32543,-0.0148 0.10808,-0.003 0.21579,-0.005 0.32323,-0.005 0.0786,0 0.15614,7.4e-4 0.23279,0.002 0.0767,0.002 0.15236,0.004 0.2272,0.007 0.0748,0.003 0.14879,0.007 0.22192,0.0117 0.0731,0.005 0.14544,0.0102 0.21698,0.0166 0.0715,0.006 0.1423,0.0136 0.21236,0.0218 0.07,0.008 0.13938,0.0171 0.20805,0.0271 0.0687,0.01 0.13669,0.0207 0.20409,0.0325 0.0674,0.0118 0.1342,0.0245 0.20044,0.0381 0.0662,0.0137 0.13193,0.0283 0.19711,0.0439 0.0652,0.0156 0.12988,0.0322 0.19412,0.0498 0.0642,0.0176 0.12803,0.0363 0.19144,0.0559 0.0634,0.0197 0.12641,0.0404 0.18909,0.0622 0.0627,0.0218 0.12501,0.0447 0.18706,0.0687 0.0621,0.024 0.12383,0.0491 0.18537,0.0753 0.0615,0.0262 0.12285,0.0536 0.18398,0.082 0.0611,0.0285 0.1221,0.0581 0.18294,0.089 0.0608,0.0308 0.12155,0.0628 0.1822,0.0961 0.0607,0.0332 0.12124,0.0677 0.18181,0.10332 0.0606,0.0357 0.12113,0.0726 0.18172,0.11075 0.0606,0.0382 0.12124,0.0776 0.18198,0.11833 0.0607,0.0407 0.12156,0.0828 0.18254,0.12609 0.061,0.0434 0.1221,0.088 0.18343,0.13401 0.0613,0.046 0.12287,0.0934 0.18466,0.1421 0.0618,0.0487 0.12384,0.0988 0.1862,0.15034 0.0624,0.0515 0.12503,0.10441 0.18807,0.15875 0.063,0.0543 0.12644,0.1101 0.19026,0.16732 0.0638,0.0572 0.12807,0.11591 0.19278,0.17607 0.0647,0.0602 0.12991,0.12181 0.19563,0.18497 0.0657,0.0632 0.13196,0.12783 0.19879,0.19404 0.0668,0.0662 0.13423,0.13396 0.20228,0.20328 0.068,0.0693 0.13672,0.1402 0.20609,0.21267 0.0694,0.0725 0.13944,0.14655 0.21024,0.22224 0.16434,0.17568 0.33324,0.36042 0.50647,0.55388 0.17324,0.19346 0.35081,0.39565 0.5325,0.60624 0.18169,0.2106 0.3675,0.42959 0.55721,0.65666 0.18972,0.22708 0.38334,0.46223 0.58064,0.70513 0.19731,0.24291 0.39831,0.49357 0.60277,0.75166 0.20447,0.25809 0.41241,0.5236 0.62361,0.79623 0.21119,0.27262 0.42564,0.55235 0.64314,0.83886 0.21749,0.28651 0.43802,0.5798 0.66137,0.87954 0.22336,0.29975 0.44954,0.60595 0.67832,0.91828 0.22879,0.31234 0.46018,0.6308 0.69396,0.95507 0.23379,0.32428 0.46996,0.65436 0.70832,0.98992 0.23835,0.33556 0.47887,0.67661 0.72136,1.02281 0.24248,0.3462 0.48693,0.69757 0.73311,1.05376 0.24619,0.3562 0.49412,0.71723 0.74357,1.08277 0.24946,0.36554 0.50044,0.73559 0.75274,1.10982 0.25229,0.37424 0.50589,0.75266 0.76059,1.13494 0.2547,0.38228 0.51049,0.76842 0.76716,1.1581 0.25667,0.38967 0.51422,0.78289 0.77243,1.17931 0.25821,0.39643 0.51709,0.79607 0.7764,1.19859 0.25932,0.40253 0.51909,0.80794 0.77908,1.21591 0.26,0.40798 0.52022,0.81852 0.78046,1.23129 0.26024,0.41278 0.52049,0.8278 0.78054,1.24473 0.26004,0.41693 0.51989,0.83577 0.77932,1.2562 0.25942,0.42044 0.51843,0.84246 0.77681,1.26575 0.25837,0.42329 0.51611,0.84784 0.773,1.27333 0.25688,0.4255 0.51292,0.85193 0.76789,1.27898 0.25497,0.42706 0.50887,0.85472 0.76149,1.28268 0.25262,0.42796 0.50395,0.85622 0.75379,1.28444 0.24984,0.42822 0.49817,0.8564 0.74479,1.28423 0.24662,0.42783 0.49153,0.85531 0.7345,1.2821 0.24298,0.42679 0.48402,0.8529 0.72291,1.27801 0.23889,0.4251 0.47564,0.8492 0.71002,1.27197 0.0867,0.15642 0.17094,0.30823 0.25271,0.45551 0.0818,0.14727 0.16112,0.29002 0.23808,0.42832 0.077,0.1383 0.15155,0.27215 0.22383,0.40165 0.0723,0.12949 0.14225,0.25463 0.20998,0.37549 0.0677,0.12086 0.13321,0.23745 0.19651,0.34985 0.0633,0.11241 0.12442,0.22062 0.18343,0.32473 0.059,0.10411 0.11591,0.20412 0.17075,0.30011 0.0549,0.096 0.10764,0.18798 0.15845,0.27602 0.0508,0.0881 0.0996,0.17217 0.14655,0.25244 0.0469,0.0803 0.0919,0.1567 0.13504,0.22937 0.0431,0.0727 0.0844,0.14158 0.12391,0.20682 0.0395,0.0652 0.0772,0.12681 0.11317,0.18479 0.036,0.058 0.0702,0.11237 0.10283,0.16326 0.0326,0.0509 0.0635,0.0983 0.0929,0.14226 0.0294,0.044 0.0571,0.0845 0.0833,0.12177 0.0262,0.0372 0.0509,0.0711 0.0741,0.10179 0.0232,0.0307 0.045,0.0581 0.0654,0.0823 0.0204,0.0243 0.0393,0.0454 0.057,0.0634 0.0176,0.018 0.0339,0.033 0.049,0.045 0.015,0.012 0.0288,0.021 0.0413,0.027 0.0126,0.006 0.0239,0.009 0.0341,0.01 0.0102,3.7e-4 0.0193,-0.002 0.0273,-0.007 0.008,-0.005 0.0149,-0.0131 0.0209,-0.0236 0.006,-0.0105 0.0108,-0.0237 0.0148,-0.0395 0.004,-0.0157 0.007,-0.034 0.009,-0.0548 0.002,-0.0208 0.003,-0.044 0.004,-0.0696 4.6e-4,-0.0256 1e-4,-0.0536 -10e-4,-0.0839 -0.001,-0.0303 -0.003,-0.0629 -0.006,-0.0977 -0.003,-0.0348 -0.006,-0.0719 -0.01,-0.11101 -0.004,-0.0392 -0.008,-0.0804 -0.0133,-0.12378 -0.005,-0.0433 -0.0106,-0.0887 -0.0166,-0.13602 -0.006,-0.0473 -0.0126,-0.0966 -0.0195,-0.14776 -0.003,-0.0209 -0.006,-0.0436 -0.009,-0.0681 -0.003,-0.0245 -0.007,-0.0507 -0.0102,-0.0786 -0.004,-0.0279 -0.007,-0.0575 -0.0113,-0.0888 -0.004,-0.0313 -0.008,-0.0642 -0.0123,-0.0986 -0.004,-0.0345 -0.009,-0.0705 -0.0133,-0.10809 -0.005,-0.0376 -0.009,-0.0767 -0.0142,-0.11719 -0.005,-0.0405 -0.01,-0.0825 -0.0151,-0.12594 -0.005,-0.0434 -0.0105,-0.0882 -0.016,-0.13432 -0.005,-0.0461 -0.0111,-0.0936 -0.0168,-0.14234 -0.006,-0.0488 -0.0116,-0.0988 -0.0176,-0.15001 -0.006,-0.0512 -0.0121,-0.1037 -0.0183,-0.15731 -0.006,-0.0536 -0.0126,-0.10839 -0.019,-0.16426 -0.006,-0.0559 -0.013,-0.11283 -0.0197,-0.17083 -0.007,-0.058 -0.0134,-0.11704 -0.0203,-0.17706 -0.007,-0.06 -0.0138,-0.12101 -0.0209,-0.18292 -0.007,-0.0619 -0.0142,-0.12474 -0.0214,-0.18842 -0.007,-0.0637 -0.0145,-0.12823 -0.0219,-0.19357 -0.007,-0.0653 -0.0148,-0.13147 -0.0224,-0.19834 -0.008,-0.0669 -0.0151,-0.13448 -0.0228,-0.20277 -0.008,-0.0683 -0.0154,-0.13724 -0.0231,-0.20682 -0.008,-0.0696 -0.0156,-0.13977 -0.0235,-0.21053 -0.008,-0.0708 -0.0158,-0.14206 -0.0238,-0.21386 -0.008,-0.0718 -0.016,-0.14411 -0.024,-0.21685 -0.008,-0.0727 -0.0161,-0.14591 -0.0242,-0.21946 -0.008,-0.0736 -0.0162,-0.14748 -0.0244,-0.22173 -0.008,-0.0742 -0.0163,-0.1488 -0.0245,-0.22362 -0.008,-0.0748 -0.0164,-0.14989 -0.0246,-0.22516 -0.008,-0.0753 -0.0164,-0.15073 -0.0246,-0.22634 -0.008,-0.0756 -0.0165,-0.15134 -0.0247,-0.22715 -0.008,-0.0758 -0.0164,-0.15171 -0.0246,-0.22762 -0.008,-0.0759 -0.0164,-0.15183 -0.0246,-0.22771 -0.008,-0.0759 -0.0163,-0.15172 -0.0244,-0.22745 -0.15674,-1.46233 -0.32392,-2.92299 -0.50144,-4.38166 -0.17751,-1.45867 -0.36536,-2.91534 -0.56343,-4.36971 -0.19808,-1.45437 -0.40637,-2.90643 -0.62478,-4.35586 -0.21841,-1.44943 -0.44693,-2.89623 -0.68545,-4.34009 -0.23852,-1.44386 -0.48704,-2.88478 -0.74545,-4.32243 -0.25842,-1.43766 -0.52672,-2.87205 -0.8048,-4.30286 -0.27809,-1.43081 -0.56595,-2.85804 -0.86348,-4.28138 -0.29754,-1.42333 -0.60474,-2.84277 -0.9215,-4.25799 -0.31676,-1.41522 -0.64308,-2.82623 -0.97885,-4.23271 -0.33577,-1.40647 -0.68098,-2.80841 -1.03553,-4.205502 -0.35456,-1.39709 -0.71845,-2.789331 -1.09156,-4.176403 -0.37312,-1.387072 -0.75546,-2.768976 -1.14692,-4.145395 -0.39146,-1.376418 -0.79203,-2.74735 -1.20161,-4.112479 -0.40958,-1.365129 -0.82816,-2.724454 -1.25564,-4.077659 -0.42748,-1.353204 -0.86385,-2.700287 -1.30901,-4.040931 -0.44515,-1.340644 -0.89909,-2.674849 -1.36171,-4.002298 -0.46261,-1.327448 -0.9339,-2.648141 -1.41374,-3.961758 -0.47985,-1.313618 -0.96826,-2.620162 -1.46512,-3.919314 -0.49687,-1.299151 -1.00218,-2.590911 -1.51583,-3.874961 -0.51366,-1.284051 -1.03565,-2.560391 -1.56588,-3.828705 -0.53022,-1.268313 -1.06867,-2.528599 -1.61525,-3.78054 -0.54657,-1.251941 -1.10127,-2.495537 -1.66397,-3.730471 -0.5627,-1.234933 -1.13341,-2.461204 -1.71202,-3.678495 -0.57861,-1.217291 -1.16511,-2.425601 -1.75941,-3.624613 -0.59429,-1.199012 -1.19637,-2.388727 -1.80613,-3.568825 -0.60976,-1.180099 -1.22719,-2.350582 -1.85219,-3.511132 -0.625,-1.160549 -1.25757,-2.311166 -1.89759,-3.451531 -0.64002,-1.140365 -1.28749,-2.270479 -1.94231,-3.390025 -0.65482,-1.119545 -1.31699,-2.228522 -1.98639,-3.326613 -0.6694,-1.09809 -1.34603,-2.185294 -2.02978,-3.261294 -0.68376,-1.076 -1.37463,-2.140796 -2.07252,-3.19407 -0.69789,-1.053275 -1.402797,-2.095027 -2.114601,-3.12494 L 99.18029,17.115663 99.079902,16.97041 98.979513,16.825157 98.879124,16.679904 98.778735,16.534651 98.678347,16.389398 98.577958,16.244145 98.477569,16.098892 98.37718,15.953638 98.276792,15.808385 98.176403,15.663132 98.076014,15.517879 97.975625,15.372626 97.875237,15.227373 97.774848,15.08212 97.674459,14.936867 97.57407,14.791614 97.473682,14.646361 97.373293,14.501108 97.272904,14.355855 97.172515,14.210602 97.072127,14.065349 96.971738,13.920096 96.871349,13.774842 96.77096,13.629589 96.670572,13.484336 96.570183,13.339083 96.469794,13.19383 l -0.100389,-0.145253 -0.100388,-0.145253 -0.100389,-0.145253 -0.100389,-0.145253 -0.02319,0.02178 -0.02318,0.02178 -0.02318,0.02178 -0.02318,0.02178 -0.02318,0.02178 -0.02318,0.02178 -0.02318,0.02178 -0.02318,0.02178 -0.02318,0.02178 -0.02319,0.02178 -0.02318,0.02178 -0.02318,0.02178 -0.02318,0.02178 -0.02318,0.02178 -0.02318,0.02178 -0.02318,0.02178 -0.02318,0.02178 -0.02319,0.02178 -0.02318,0.02178 -0.02318,0.02178 -0.02318,0.02178 -0.02318,0.02178 -0.02318,0.02178 -0.02318,0.02178 -0.02319,0.02178 -0.02318,0.02178 -0.02318,0.02178 -0.02318,0.02178 -0.02318,0.02178 -0.02318,0.02178 -0.02318,0.02178 -0.02318,0.02178 c -0.04366,0.04102 -0.09041,0.08668 -0.140107,0.136787 -0.04969,0.05011 -0.102329,0.104661 -0.157754,0.163459 -0.05543,0.0588 -0.113642,0.121841 -0.174498,0.188928 -0.06086,0.06709 -0.124352,0.138218 -0.190336,0.213193 -0.06599,0.07497 -0.134459,0.153793 -0.20527,0.236254 -0.07081,0.08246 -0.143962,0.168566 -0.2193,0.258113 -0.07534,0.08955 -0.152862,0.182537 -0.232423,0.278769 -0.07956,0.09623 -0.16116,0.195705 -0.244644,0.29822 -0.08348,0.102515 -0.168854,0.208072 -0.255959,0.316469 -0.0871,0.108397 -0.175945,0.219636 -0.266369,0.333514 -0.09042,0.113879 -0.182433,0.230398 -0.275875,0.349357 -0.09344,0.118958 -0.188318,0.240357 -0.284477,0.363995 -0.09616,0.123637 -0.193599,0.249514 -0.292173,0.37743 -0.09857,0.127916 -0.198278,0.25787 -0.298965,0.389663 -0.100686,0.131792 -0.202354,0.265423 -0.304852,0.400691 -0.102498,0.135268 -0.205826,0.272174 -0.309834,0.410517 -0.104008,0.138343 -0.208696,0.278123 -0.313913,0.419139 -0.105216,0.141016 -0.210962,0.283269 -0.317086,0.426558 -0.106123,0.143289 -0.212625,0.287613 -0.319354,0.432773 -0.106729,0.14516 -0.213685,0.291156 -0.320718,0.437786 -0.107033,0.146631 -0.214143,0.293896 -0.321178,0.441595 -0.107035,0.147699 -0.213996,0.295833 -0.320732,0.4442 -0.106736,0.148368 -0.213247,0.296969 -0.319382,0.445603 -0.106135,0.148635 -0.211895,0.297302 -0.317128,0.445802 -0.105232,0.1485 -0.209939,0.296833 -0.313968,0.444798 -0.104029,0.147965 -0.20738,0.295562 -0.309904,0.44259 -0.102523,0.147028 -0.204219,0.293488 -0.304935,0.439179 -0.100716,0.145691 -0.200454,0.290613 -0.299062,0.434565 -0.09861,0.143953 -0.196086,0.286935 -0.292284,0.428748 -0.0962,0.141813 -0.191115,0.282455 -0.284601,0.421727 -0.09349,0.139272 -0.185541,0.277173 -0.276014,0.413503 -0.09047,0.136329 -0.179364,0.271088 -0.266522,0.404075 -0.449925,0.686501 -0.896807,1.382241 -1.340636,2.087196 -0.443829,0.704955 -0.884606,1.419124 -1.322322,2.142482 -0.437715,0.723357 -0.872369,1.455903 -1.303951,2.197612 -0.431583,0.741708 -0.860095,1.492579 -1.285526,2.252587 -0.425432,0.760007 -0.847783,1.529152 -1.267045,2.307407 -0.419261,0.778256 -0.835434,1.565622 -1.248507,2.362073 -0.413073,0.796451 -0.823048,1.601988 -1.229915,2.416583 -0.406867,0.814596 -0.810625,1.638251 -1.211267,2.470939 -0.400641,0.832688 -0.798165,1.67441 -1.192562,2.525139 -0.394398,0.850729 -0.785669,1.710466 -1.173804,2.579184 -0.388135,0.868719 -0.773134,1.746419 -1.154988,2.633075 -0.381854,0.886657 -0.760563,1.782269 -1.136117,2.686811 -0.375555,0.904542 -0.747955,1.818015 -1.117192,2.740391 -0.369236,0.922377 -0.735309,1.853658 -1.098209,2.793817 -0.3629,0.940159 -0.722627,1.889197 -1.079171,2.847087 -0.356545,0.957891 -0.709908,1.924633 -1.060079,2.900203 -0.350171,0.97557 -0.697151,1.959966 -1.040929,2.953164 -0.343779,0.993197 -0.684357,1.995196 -1.021726,3.005969 -0.337368,1.010774 -0.671526,2.030322 -1.002465,3.05862 -0.330938,1.028298 -0.658658,2.065345 -0.983149,3.111116 -0.324491,1.045771 -0.645753,2.100265 -0.963778,3.163457 -0.318024,1.063192 -0.632811,2.135081 -0.944351,3.215642 -0.31154,1.080561 -0.619832,2.169794 -0.924868,3.267674 -0.305036,1.097879 -0.606816,2.204404 -0.905331,3.319549 -0.298514,1.115145 -0.593762,2.23891 -0.885736,3.37127 -0.291974,1.132359 -0.580672,2.273313 -0.866087,3.422836 -0.285414,1.149522 -0.567545,2.307613 -0.846382,3.474239 -0.278837,1.16664 -0.55438,2.34181 -0.826621,3.52551 -0.272241,1.18369 -0.541179,2.3759 -0.806805,3.5766 -0.265626,1.2007 -0.52794,2.40989 -0.786933,3.62755 -0.258992,1.21766 -0.514664,2.44378 -0.767005,3.67834 -0.252341,1.23456 -0.501351,2.47757 -0.747022,3.72898 -0.08594,0.43776 -0.170893,0.87343 -0.254913,1.30734 -0.08402,0.43391 -0.167104,0.86606 -0.249303,1.2968 -0.0822,0.43073 -0.163513,0.86004 -0.24399,1.28826 -0.08048,0.42823 -0.160118,0.85537 -0.238971,1.28175 -0.07885,0.42638 -0.156919,0.85202 -0.234247,1.27723 -0.07733,0.42522 -0.153917,0.85001 -0.229818,1.27473 -0.0759,0.42471 -0.151112,0.84934 -0.225684,1.27423 -0.07457,0.42488 -0.148503,0.85002 -0.221844,1.27574 -0.07334,0.42572 -0.146092,0.85203 -0.218301,1.27926 -0.07221,0.42723 -0.143876,0.85538 -0.215051,1.28479 -0.07117,0.42941 -0.141857,0.86007 -0.212096,1.29233 -0.07024,0.43226 -0.140035,0.8661 -0.209437,1.30187 -0.0694,0.43578 -0.13841,0.87347 -0.207072,1.31343 -0.06866,0.43996 -0.136981,0.88218 -0.205003,1.32699 -0.06802,0.44482 -0.135748,0.89223 -0.203228,1.34257 -0.06748,0.45034 -0.134713,0.90361 -0.201748,1.36014 -0.06704,0.45654 -0.133874,0.91633 -0.200563,1.37973 -0.06669,0.4634 -0.133231,0.9304 -0.199674,1.40133 -0.06644,0.47093 -0.132785,0.9458 -0.199078,1.42494 -0.06629,0.47913 -0.132536,0.96254 -0.198778,1.45055 -0.06624,0.488 -0.132483,0.98062 -0.198773,1.47817 -0.06629,0.49755 -0.132627,1.00004 -0.199062,1.5078 -0.06644,0.50776 -0.132968,1.0208 -0.199647,1.53944 -0.06668,0.51865 -0.133506,1.0429 -0.200527,1.5731 -0.06702,0.53019 -0.134239,1.06633 -0.201702,1.60874 -0.06746,0.54242 -0.135169,1.09111 -0.20317,1.64642 -0.068,0.5553 -0.136297,1.11722 -0.204935,1.68608 -0.06864,0.56887 -0.137621,1.14468 -0.206995,1.72777 -0.06937,0.5831 -0.13914,1.17347 -0.209348,1.77147 -0.07021,0.59799 -0.140858,1.2036 -0.211998,1.81716 -0.07114,0.61356 -0.142771,1.23507 -0.214941,1.86486 -0.07217,0.6298 -0.144882,1.26789 -0.218181,1.91459 -0.0022,0.0196 -0.0043,0.0391 -0.0064,0.0584 -0.002,0.0193 -0.0039,0.0385 -0.0058,0.0576 -0.0018,0.0191 -0.0035,0.038 -0.0052,0.0568 -0.0016,0.0188 -0.0032,0.0374 -0.0046,0.0558 -0.0014,0.0184 -0.0028,0.0367 -0.004,0.0548 -0.0012,0.0181 -0.0024,0.036 -0.0034,0.0537 -10e-4,0.0177 -0.002,0.0353 -0.0029,0.0526 -8.56e-4,0.0173 -0.0016,0.0345 -0.0023,0.0514 -6.67e-4,0.0169 -0.0012,0.0336 -0.0017,0.0501 -4.79e-4,0.0165 -8.65e-4,0.0327 -0.0012,0.0488 -2.93e-4,0.016 -4.94e-4,0.0318 -6.03e-4,0.0473 -1.09e-4,0.0155 -1.26e-4,0.0308 -5.1e-5,0.0458 7.4e-5,0.015 2.39e-4,0.0298 4.95e-4,0.0443 2.55e-4,0.0145 6.01e-4,0.0287 10e-4,0.0426 4.36e-4,0.0139 9.61e-4,0.0275 0.0016,0.0409 6.14e-4,0.0133 0.0013,0.0264 0.0021,0.0391 7.91e-4,0.0127 0.0017,0.0251 0.0026,0.0372 9.67e-4,0.0121 0.002,0.0239 0.0032,0.0353 0.0011,0.0114 0.0024,0.0225 0.0037,0.0333 0.0013,0.0108 0.0027,0.0212 0.0042,0.0312 0.0015,0.0101 0.0031,0.0197 0.0047,0.0291 0.0017,0.009 0.0034,0.0183 0.0052,0.0268 0.0018,0.009 0.0037,0.0168 0.0057,0.0246 0.002,0.008 0.0041,0.0152 0.0062,0.0222 0.0022,0.007 0.0044,0.0136 0.0067,0.0197 0.0023,0.006 0.0047,0.0119 0.0072,0.0172 0.0025,0.005 0.005,0.0102 0.0077,0.0146 0.0026,0.004 0.0054,0.008 0.0082,0.012 0.0028,0.004 0.0057,0.007 0.0086,0.009 0.003,0.003 0.006,0.005 0.0091,0.006 0.0031,0.002 0.0063,0.003 0.0096,0.004 0.0033,7.1e-4 0.0066,9.3e-4 0.01003,6.5e-4 0.0034,-2.8e-4 0.0086,-0.003 0.01563,-0.008 0.007,-0.005 0.01573,-0.0125 0.0262,-0.0223 0.01046,-0.01 0.02264,-0.0218 0.03648,-0.0362 0.01384,-0.0143 0.02935,-0.0309 0.04648,-0.0496 0.01713,-0.0188 0.03588,-0.0397 0.0562,-0.0628 0.02032,-0.0231 0.04222,-0.0483 0.06565,-0.0756 0.02343,-0.0273 0.04838,-0.0566 0.07481,-0.088 0.02643,-0.0314 0.05435,-0.0648 0.0837,-0.10011 0.02935,-0.0353 0.06013,-0.0726 0.09231,-0.11183 0.03217,-0.0392 0.06573,-0.0803 0.100636,-0.12321 0.0349,-0.0429 0.07115,-0.0877 0.108684,-0.13422 0.03754,-0.0465 0.07637,-0.0949 0.116455,-0.14488 0.04008,-0.05 0.08141,-0.10178 0.123946,-0.15519 0.04253,-0.0534 0.08627,-0.10847 0.131158,-0.16513 0.04489,-0.0567 0.09094,-0.11493 0.138091,-0.17473 0.04715,-0.0598 0.09542,-0.12115 0.144745,-0.18397 0.04933,-0.0628 0.09971,-0.12713 0.15112,-0.19286 0.0514,-0.0657 0.103826,-0.13287 0.157216,-0.20138 0.05339,-0.0685 0.10775,-0.13838 0.163033,-0.20955 0.05528,-0.0712 0.111488,-0.14365 0.16857,-0.21737 0.05708,-0.0737 0.115041,-0.14868 0.17383,-0.22483 0.05879,-0.0761 0.118407,-0.15348 0.178809,-0.23194 0.0604,-0.0785 0.121587,-0.15804 0.18351,-0.23869 0.06192,-0.0806 0.124581,-0.16237 0.187931,-0.24509 0.06335,-0.0827 0.12739,-0.16645 0.192074,-0.25112 0.06468,-0.0847 0.130011,-0.1703 0.195937,-0.25682 0.06593,-0.0865 0.132448,-0.17391 0.199521,-0.26214 0.06707,-0.0882 0.134699,-0.17728 0.202827,-0.26711 0.06813,-0.0898 0.136763,-0.18042 0.205854,-0.27173 0.06909,-0.0913 0.13864,-0.18333 0.2086,-0.276 0.06996,-0.0927 0.140333,-0.18599 0.211069,-0.2799 0.07074,-0.0939 0.141838,-0.18842 0.213258,-0.28346 v 0 0 0 h 10e-7 v 0 0 0 0 0 0 0 h 1e-6 v 0 0 0 0 0 0 0 h 10e-7 v 0 0 0 0 0 0 0 h 10e-7 v 0 0 0 z"
       id="path1032"
       inkscape:connector-curvature="0"
       transform="scale(0.26458333)"
       sodipodi:nodetypes="cssssssssssssssssssssssssssssssssssssssssssssssssssssssssssssssssssssssssssssssssssssssssssssssscssssssssssssssssssssssssssssssssssssssssssssssssssssssssssssssssssssssssssssssssssssssssssssssssssssssssssssssssssssssssssssssssssssssssssssssssssssssssssssssscssssssssssssssssssssssssssssssssssssssssssssssssssssssssssssssscsssssssssssssssssssssssssssssssssssssssssssssssssssssssssssssssccccccccccccccccccccccccccccccccccccccccccccccccccccccccccccccccccssssssssssssssssssssssssssssssssssssssssssssssssssssssssssssssssssssssssssssssssssssssssssssssscssssssssssssssssssssssssssssssssssssssssssssssssssssssssssssssscssssssssssssssssssssssssssssssscssssssssssssssssssssssssssssssssccccccccccccccccccccccccccccccccccccccccccccccccccccccccccccccccssssssssssssssssssssssssssssssssssssssssssssssssssssssssssssssssssssssssssssssssssssssssssssssscssssssssssssssssssssssssssssssscsssssssssssssssssssssssssssssssccccccccccccccccccccccccccccccccc" /></g><g
     id="g865"
     inkscape:groupmode="layer"
     inkscape:label="Drill" /></svg>