<?xml version="1.0" encoding="UTF-8" standalone="no"?>
<svg
   xmlns:dc="http://purl.org/dc/elements/1.1/"
   xmlns:cc="http://creativecommons.org/ns#"
   xmlns:rdf="http://www.w3.org/1999/02/22-rdf-syntax-ns#"
   xmlns:svg="http://www.w3.org/2000/svg"
   xmlns="http://www.w3.org/2000/svg"
   xmlns:sodipodi="http://sodipodi.sourceforge.net/DTD/sodipodi-0.dtd"
   xmlns:inkscape="http://www.inkscape.org/namespaces/inkscape"
   version="1.1"
   width="20.372368mm"
   height="17.830589mm"
   viewBox="0 0 8020.6167 7019.9172"
   id="svg334"
   sodipodi:docname="001-F_Cu.svg"
   inkscape:version="0.92.3 (2405546, 2018-03-11)">
  <metadata
     id="metadata340">
    <rdf:RDF>
      <cc:Work
         rdf:about="">
        <dc:format>image/svg+xml</dc:format>
        <dc:type
           rdf:resource="http://purl.org/dc/dcmitype/StillImage" />
        <dc:title>SVG Picture created as 001-F_Cu.svg date 2019/12/24 13:46:32 </dc:title>
      </cc:Work>
    </rdf:RDF>
  </metadata>
  <defs
     id="defs338" />
  <sodipodi:namedview
     pagecolor="#ffffff"
     bordercolor="#666666"
     borderopacity="1"
     objecttolerance="10"
     gridtolerance="10"
     guidetolerance="10"
     inkscape:pageopacity="0"
     inkscape:pageshadow="2"
     inkscape:window-width="1920"
     inkscape:window-height="1015"
     id="namedview336"
     showgrid="false"
     fit-margin-top="0"
     fit-margin-left="0"
     fit-margin-right="0"
     fit-margin-bottom="0"
     units="mm"
     inkscape:document-units="mm"
     inkscape:zoom="4.4135248"
     inkscape:cx="52.013906"
     inkscape:cy="30.382245"
     inkscape:window-x="0"
     inkscape:window-y="41"
     inkscape:window-maximized="1"
     inkscape:current-layer="svg334" />
  <title
     id="title2">SVG Picture created as 001-F_Cu.svg date 2019/12/24 13:46:32 </title>
  <desc
     id="desc4">Picture generated by PCBNEW </desc>
  <g
     style="fill:#000000;fill-opacity:1;stroke:#000000;stroke-linecap:round;stroke-linejoin:round;stroke-opacity:1"
     id="g6"
     transform="translate(-1309.1565,-1538.1565)" />
  <g
     style="fill:#000000;fill-opacity:0;stroke:#000000;stroke-width:-0.0003937;stroke-linecap:round;stroke-linejoin:round;stroke-opacity:1"
     id="g240"
     transform="translate(-1309.1565,-1538.1565)">
    <g
       id="g8" />
    <g
       style="fill:#840000;fill-opacity:0;stroke:#840000;stroke-width:-0.0003937;stroke-linecap:round;stroke-linejoin:round;stroke-opacity:1"
       id="g10" />
    <g
       style="fill:#840000;fill-opacity:0;stroke:#840000;stroke-width:0;stroke-linecap:round;stroke-linejoin:round;stroke-opacity:1"
       id="g12" />
    <g
       style="fill:#840000;fill-opacity:1;stroke:#840000;stroke-width:0;stroke-linecap:round;stroke-linejoin:round;stroke-opacity:1"
       id="g18">
      <path
         style="fill:#840000;fill-opacity:1;fill-rule:evenodd;stroke:#840000;stroke-width:0;stroke-linecap:round;stroke-linejoin:round;stroke-opacity:1"
         d="m 7325.64,6182.56 9.55,1.42 9.37,2.34 9.1,3.26 8.73,4.13 8.28,4.96 7.76,5.76 7.16,6.48 6.49,7.16 5.75,7.76 4.96,8.28 4.13,8.74 3.26,9.09 2.35,9.37 1.41,9.55 0.48,9.65 v 364.18 l -0.48,9.64 -1.41,9.56 -2.35,9.37 -3.26,9.09 -4.13,8.73 -4.96,8.29 -5.75,7.76 -6.49,7.15 -7.16,6.49 -7.76,5.75 -8.28,4.97 -8.73,4.13 -9.1,3.25 -9.37,2.35 -9.55,1.42 -9.65,0.47 h -492.12 l -9.65,-0.47 -9.56,-1.42 -9.37,-2.35 -9.09,-3.25 -8.73,-4.13 -8.29,-4.97 -7.75,-5.75 -7.16,-6.49 -6.49,-7.15 -5.75,-7.76 -4.97,-8.29 -4.13,-8.73 -3.25,-9.09 -2.35,-9.37 -1.42,-9.56 -0.47,-9.64 v -364.18 l 0.47,-9.65 1.42,-9.55 2.35,-9.37 3.25,-9.09 4.13,-8.74 4.97,-8.28 5.75,-7.76 6.49,-7.16 7.16,-6.48 7.75,-5.76 8.29,-4.96 8.73,-4.13 9.09,-3.26 9.37,-2.34 9.56,-1.42 9.65,-0.47 h 492.12 z"
         id="path14"
         inkscape:connector-curvature="0" />
      <path
         style="fill:#840000;fill-opacity:1;fill-rule:evenodd;stroke:#840000;stroke-width:0;stroke-linecap:round;stroke-linejoin:round;stroke-opacity:1"
         d="m 7325.64,7353.82 9.55,1.42 9.37,2.34 9.1,3.26 8.73,4.13 8.28,4.96 7.76,5.76 7.16,6.48 6.49,7.16 5.75,7.76 4.96,8.28 4.13,8.74 3.26,9.09 2.35,9.37 1.41,9.55 0.48,9.65 v 364.17 l -0.48,9.65 -1.41,9.56 -2.35,9.37 -3.26,9.09 -4.13,8.73 -4.96,8.29 -5.75,7.76 -6.49,7.15 -7.16,6.49 -7.76,5.75 -8.28,4.97 -8.73,4.13 -9.1,3.25 -9.37,2.35 -9.55,1.42 -9.65,0.47 h -492.12 l -9.65,-0.47 -9.56,-1.42 -9.37,-2.35 -9.09,-3.25 -8.73,-4.13 -8.29,-4.97 -7.75,-5.75 -7.16,-6.49 -6.49,-7.15 -5.75,-7.76 -4.97,-8.29 -4.13,-8.73 -3.25,-9.09 -2.35,-9.37 -1.42,-9.56 -0.47,-9.65 v -364.17 l 0.47,-9.65 1.42,-9.55 2.35,-9.37 3.25,-9.09 4.13,-8.74 4.97,-8.28 5.75,-7.76 6.49,-7.16 7.16,-6.48 7.75,-5.76 8.29,-4.96 8.73,-4.13 9.09,-3.26 9.37,-2.34 9.56,-1.42 9.65,-0.47 h 492.12 z"
         id="path16"
         inkscape:connector-curvature="0" />
    </g>
    <g
       id="g20" />
    <g
       style="fill:#840000;fill-opacity:1;stroke:#840000;stroke-width:0;stroke-linecap:round;stroke-linejoin:round;stroke-opacity:1"
       id="g26">
      <path
         style="fill:#840000;fill-opacity:1;fill-rule:evenodd;stroke:#840000;stroke-width:0;stroke-linecap:round;stroke-linejoin:round;stroke-opacity:1"
         d="m 4825.64,7353.82 9.55,1.42 9.37,2.34 9.1,3.26 8.73,4.13 8.28,4.96 7.76,5.76 7.16,6.48 6.49,7.16 5.75,7.76 4.96,8.28 4.13,8.74 3.26,9.09 2.35,9.37 1.41,9.55 0.48,9.65 v 364.17 l -0.48,9.65 -1.41,9.56 -2.35,9.37 -3.26,9.09 -4.13,8.73 -4.96,8.29 -5.75,7.76 -6.49,7.15 -7.16,6.49 -7.76,5.75 -8.28,4.97 -8.73,4.13 -9.1,3.25 -9.37,2.35 -9.55,1.42 -9.65,0.47 h -492.12 l -9.65,-0.47 -9.56,-1.42 -9.37,-2.35 -9.09,-3.25 -8.73,-4.13 -8.29,-4.97 -7.75,-5.75 -7.16,-6.49 -6.49,-7.15 -5.75,-7.76 -4.97,-8.29 -4.13,-8.73 -3.25,-9.09 -2.35,-9.37 -1.42,-9.56 -0.47,-9.65 v -364.17 l 0.47,-9.65 1.42,-9.55 2.35,-9.37 3.25,-9.09 4.13,-8.74 4.97,-8.28 5.75,-7.76 6.49,-7.16 7.16,-6.48 7.75,-5.76 8.29,-4.96 8.73,-4.13 9.09,-3.26 9.37,-2.34 9.56,-1.42 9.65,-0.47 h 492.12 z"
         id="path22"
         inkscape:connector-curvature="0" />
      <path
         style="fill:#840000;fill-opacity:1;fill-rule:evenodd;stroke:#840000;stroke-width:0;stroke-linecap:round;stroke-linejoin:round;stroke-opacity:1"
         d="m 4825.64,6182.56 9.55,1.42 9.37,2.34 9.1,3.26 8.73,4.13 8.28,4.96 7.76,5.76 7.16,6.48 6.49,7.16 5.75,7.76 4.96,8.28 4.13,8.74 3.26,9.09 2.35,9.37 1.41,9.55 0.48,9.65 v 364.18 l -0.48,9.64 -1.41,9.56 -2.35,9.37 -3.26,9.09 -4.13,8.73 -4.96,8.29 -5.75,7.76 -6.49,7.15 -7.16,6.49 -7.76,5.75 -8.28,4.97 -8.73,4.13 -9.1,3.25 -9.37,2.35 -9.55,1.42 -9.65,0.47 h -492.12 l -9.65,-0.47 -9.56,-1.42 -9.37,-2.35 -9.09,-3.25 -8.73,-4.13 -8.29,-4.97 -7.75,-5.75 -7.16,-6.49 -6.49,-7.15 -5.75,-7.76 -4.97,-8.29 -4.13,-8.73 -3.25,-9.09 -2.35,-9.37 -1.42,-9.56 -0.47,-9.64 v -364.18 l 0.47,-9.65 1.42,-9.55 2.35,-9.37 3.25,-9.09 4.13,-8.74 4.97,-8.28 5.75,-7.76 6.49,-7.16 7.16,-6.48 7.75,-5.76 8.29,-4.96 8.73,-4.13 9.09,-3.26 9.37,-2.34 9.56,-1.42 9.65,-0.47 h 492.12 z"
         id="path24"
         inkscape:connector-curvature="0" />
    </g>
    <g
       id="g28" />
    <g
       style="fill:#840000;fill-opacity:1;stroke:#840000;stroke-width:0;stroke-linecap:round;stroke-linejoin:round;stroke-opacity:1"
       id="g34">
      <path
         style="fill:#840000;fill-opacity:1;fill-rule:evenodd;stroke:#840000;stroke-width:0;stroke-linecap:round;stroke-linejoin:round;stroke-opacity:1"
         d="m 6325.64,7353.82 9.55,1.42 9.37,2.34 9.1,3.26 8.73,4.13 8.28,4.96 7.76,5.76 7.16,6.48 6.49,7.16 5.75,7.76 4.96,8.28 4.13,8.74 3.26,9.09 2.35,9.37 1.41,9.55 0.48,9.65 v 364.17 l -0.48,9.65 -1.41,9.56 -2.35,9.37 -3.26,9.09 -4.13,8.73 -4.96,8.29 -5.75,7.76 -6.49,7.15 -7.16,6.49 -7.76,5.75 -8.28,4.97 -8.73,4.13 -9.1,3.25 -9.37,2.35 -9.55,1.42 -9.65,0.47 h -492.12 l -9.65,-0.47 -9.56,-1.42 -9.37,-2.35 -9.09,-3.25 -8.73,-4.13 -8.29,-4.97 -7.75,-5.75 -7.16,-6.49 -6.49,-7.15 -5.75,-7.76 -4.97,-8.29 -4.13,-8.73 -3.25,-9.09 -2.35,-9.37 -1.42,-9.56 -0.47,-9.65 v -364.17 l 0.47,-9.65 1.42,-9.55 2.35,-9.37 3.25,-9.09 4.13,-8.74 4.97,-8.28 5.75,-7.76 6.49,-7.16 7.16,-6.48 7.75,-5.76 8.29,-4.96 8.73,-4.13 9.09,-3.26 9.37,-2.34 9.56,-1.42 9.65,-0.47 h 492.12 z"
         id="path30"
         inkscape:connector-curvature="0" />
      <path
         style="fill:#840000;fill-opacity:1;fill-rule:evenodd;stroke:#840000;stroke-width:0;stroke-linecap:round;stroke-linejoin:round;stroke-opacity:1"
         d="m 6325.64,6182.56 9.55,1.42 9.37,2.34 9.1,3.26 8.73,4.13 8.28,4.96 7.76,5.76 7.16,6.48 6.49,7.16 5.75,7.76 4.96,8.28 4.13,8.74 3.26,9.09 2.35,9.37 1.41,9.55 0.48,9.65 v 364.18 l -0.48,9.64 -1.41,9.56 -2.35,9.37 -3.26,9.09 -4.13,8.73 -4.96,8.29 -5.75,7.76 -6.49,7.15 -7.16,6.49 -7.76,5.75 -8.28,4.97 -8.73,4.13 -9.1,3.25 -9.37,2.35 -9.55,1.42 -9.65,0.47 h -492.12 l -9.65,-0.47 -9.56,-1.42 -9.37,-2.35 -9.09,-3.25 -8.73,-4.13 -8.29,-4.97 -7.75,-5.75 -7.16,-6.49 -6.49,-7.15 -5.75,-7.76 -4.97,-8.29 -4.13,-8.73 -3.25,-9.09 -2.35,-9.37 -1.42,-9.56 -0.47,-9.64 v -364.18 l 0.47,-9.65 1.42,-9.55 2.35,-9.37 3.25,-9.09 4.13,-8.74 4.97,-8.28 5.75,-7.76 6.49,-7.16 7.16,-6.48 7.75,-5.76 8.29,-4.96 8.73,-4.13 9.09,-3.26 9.37,-2.34 9.56,-1.42 9.65,-0.47 h 492.12 z"
         id="path32"
         inkscape:connector-curvature="0" />
    </g>
    <g
       id="g36" />
    <g
       style="fill:#840000;fill-opacity:1;stroke:#840000;stroke-width:0;stroke-linecap:round;stroke-linejoin:round;stroke-opacity:1"
       id="g54">
      <path
         style="fill:#840000;fill-opacity:1;fill-rule:evenodd;stroke:#840000;stroke-width:0;stroke-linecap:round;stroke-linejoin:round;stroke-opacity:1"
         d="m 7091.58,3256.34 h -590.55 v -236.22 h 590.55 z"
         id="path38"
         inkscape:connector-curvature="0" />
      <path
         style="fill:#840000;fill-opacity:1;fill-rule:evenodd;stroke:#840000;stroke-width:0;stroke-linecap:round;stroke-linejoin:round;stroke-opacity:1"
         d="m 7091.58,3756.34 h -590.55 v -236.22 h 590.55 z"
         id="path40"
         inkscape:connector-curvature="0" />
      <path
         style="fill:#840000;fill-opacity:1;fill-rule:evenodd;stroke:#840000;stroke-width:0;stroke-linecap:round;stroke-linejoin:round;stroke-opacity:1"
         d="m 7091.58,4256.34 h -590.55 v -236.22 h 590.55 z"
         id="path42"
         inkscape:connector-curvature="0" />
      <path
         style="fill:#840000;fill-opacity:1;fill-rule:evenodd;stroke:#840000;stroke-width:0;stroke-linecap:round;stroke-linejoin:round;stroke-opacity:1"
         d="m 7091.58,4756.34 h -590.55 v -236.22 h 590.55 z"
         id="path44"
         inkscape:connector-curvature="0" />
      <path
         style="fill:#840000;fill-opacity:1;fill-rule:evenodd;stroke:#840000;stroke-width:0;stroke-linecap:round;stroke-linejoin:round;stroke-opacity:1"
         d="m 4138.83,4756.34 h -590.55 v -236.22 h 590.55 z"
         id="path46"
         inkscape:connector-curvature="0" />
      <path
         style="fill:#840000;fill-opacity:1;fill-rule:evenodd;stroke:#840000;stroke-width:0;stroke-linecap:round;stroke-linejoin:round;stroke-opacity:1"
         d="m 4138.83,4256.34 h -590.55 v -236.22 h 590.55 z"
         id="path48"
         inkscape:connector-curvature="0" />
      <path
         style="fill:#840000;fill-opacity:1;fill-rule:evenodd;stroke:#840000;stroke-width:0;stroke-linecap:round;stroke-linejoin:round;stroke-opacity:1"
         d="m 4138.83,3756.34 h -590.55 v -236.22 h 590.55 z"
         id="path50"
         inkscape:connector-curvature="0" />
      <path
         style="fill:#840000;fill-opacity:1;fill-rule:evenodd;stroke:#840000;stroke-width:0;stroke-linecap:round;stroke-linejoin:round;stroke-opacity:1"
         d="m 4138.83,3256.34 h -590.55 v -236.22 h 590.55 z"
         id="path52"
         inkscape:connector-curvature="0" />
    </g>
    <g
       id="g56" />
    <g
       style="fill:#840000;fill-opacity:1;stroke:#840000;stroke-width:0;stroke-linecap:round;stroke-linejoin:round;stroke-opacity:1"
       id="g62">
      <path
         style="fill:#840000;fill-opacity:1;fill-rule:evenodd;stroke:#840000;stroke-width:0;stroke-linecap:round;stroke-linejoin:round;stroke-opacity:1"
         d="m 3825.64,7353.82 9.55,1.42 9.37,2.34 9.1,3.26 8.73,4.13 8.28,4.96 7.76,5.76 7.16,6.48 6.49,7.16 5.75,7.76 4.96,8.28 4.13,8.74 3.26,9.09 2.35,9.37 1.41,9.55 0.48,9.65 v 364.17 l -0.48,9.65 -1.41,9.56 -2.35,9.37 -3.26,9.09 -4.13,8.73 -4.96,8.29 -5.75,7.76 -6.49,7.15 -7.16,6.49 -7.76,5.75 -8.28,4.97 -8.73,4.13 -9.1,3.25 -9.37,2.35 -9.55,1.42 -9.65,0.47 h -492.12 l -9.65,-0.47 -9.56,-1.42 -9.37,-2.35 -9.09,-3.25 -8.73,-4.13 -8.29,-4.97 -7.75,-5.75 -7.16,-6.49 -6.49,-7.15 -5.75,-7.76 -4.97,-8.29 -4.13,-8.73 -3.25,-9.09 -2.35,-9.37 -1.42,-9.56 -0.47,-9.65 v -364.17 l 0.47,-9.65 1.42,-9.55 2.35,-9.37 3.25,-9.09 4.13,-8.74 4.97,-8.28 5.75,-7.76 6.49,-7.16 7.16,-6.48 7.75,-5.76 8.29,-4.96 8.73,-4.13 9.09,-3.26 9.37,-2.34 9.56,-1.42 9.65,-0.47 h 492.12 z"
         id="path58"
         inkscape:connector-curvature="0" />
      <path
         style="fill:#840000;fill-opacity:1;fill-rule:evenodd;stroke:#840000;stroke-width:0;stroke-linecap:round;stroke-linejoin:round;stroke-opacity:1"
         d="m 3825.64,6182.56 9.55,1.42 9.37,2.34 9.1,3.26 8.73,4.13 8.28,4.96 7.76,5.76 7.16,6.48 6.49,7.16 5.75,7.76 4.96,8.28 4.13,8.74 3.26,9.09 2.35,9.37 1.41,9.55 0.48,9.65 v 364.18 l -0.48,9.64 -1.41,9.56 -2.35,9.37 -3.26,9.09 -4.13,8.73 -4.96,8.29 -5.75,7.76 -6.49,7.15 -7.16,6.49 -7.76,5.75 -8.28,4.97 -8.73,4.13 -9.1,3.25 -9.37,2.35 -9.55,1.42 -9.65,0.47 h -492.12 l -9.65,-0.47 -9.56,-1.42 -9.37,-2.35 -9.09,-3.25 -8.73,-4.13 -8.29,-4.97 -7.75,-5.75 -7.16,-6.49 -6.49,-7.15 -5.75,-7.76 -4.97,-8.29 -4.13,-8.73 -3.25,-9.09 -2.35,-9.37 -1.42,-9.56 -0.47,-9.64 v -364.18 l 0.47,-9.65 1.42,-9.55 2.35,-9.37 3.25,-9.09 4.13,-8.74 4.97,-8.28 5.75,-7.76 6.49,-7.16 7.16,-6.48 7.75,-5.76 8.29,-4.96 8.73,-4.13 9.09,-3.26 9.37,-2.34 9.56,-1.42 9.65,-0.47 h 492.12 z"
         id="path60"
         inkscape:connector-curvature="0" />
    </g>
    <g
       id="g64" />
    <g
       style="fill:#840000;fill-opacity:1;stroke:#840000;stroke-width:0;stroke-linecap:round;stroke-linejoin:round;stroke-opacity:1"
       id="g70">
      <path
         style="fill:#840000;fill-opacity:1;fill-rule:evenodd;stroke:#840000;stroke-width:0;stroke-linecap:round;stroke-linejoin:round;stroke-opacity:1"
         d="m 4816.03,1704.21 9.56,1.42 9.37,2.35 9.09,3.25 8.73,4.13 8.29,4.97 7.76,5.75 7.15,6.49 6.49,7.16 5.75,7.75 4.97,8.29 4.13,8.73 3.25,9.09 2.35,9.37 1.42,9.56 0.47,9.65 v 492.12 l -0.47,9.65 -1.42,9.55 -2.35,9.37 -3.25,9.1 -4.13,8.73 -4.97,8.28 -5.75,7.76 -6.49,7.16 -7.15,6.49 -7.76,5.75 -8.29,4.96 -8.73,4.13 -9.09,3.26 -9.37,2.35 -9.56,1.41 -9.64,0.48 h -364.18 l -9.65,-0.48 -9.55,-1.41 -9.37,-2.35 -9.09,-3.26 -8.74,-4.13 -8.28,-4.96 -7.76,-5.75 -7.16,-6.49 -6.48,-7.16 -5.76,-7.76 -4.96,-8.28 -4.13,-8.73 -3.25,-9.1 -2.35,-9.37 -1.42,-9.55 -0.47,-9.65 v -492.12 l 0.47,-9.65 1.42,-9.56 2.35,-9.37 3.25,-9.09 4.13,-8.73 4.96,-8.29 5.76,-7.75 6.48,-7.16 7.16,-6.49 7.76,-5.75 8.28,-4.97 8.74,-4.13 9.09,-3.25 9.37,-2.35 9.55,-1.42 9.65,-0.47 h 364.18 z"
         id="path66"
         inkscape:connector-curvature="0" />
      <path
         style="fill:#840000;fill-opacity:1;fill-rule:evenodd;stroke:#840000;stroke-width:0;stroke-linecap:round;stroke-linejoin:round;stroke-opacity:1"
         d="m 5987.29,1704.21 9.56,1.42 9.37,2.35 9.09,3.25 8.73,4.13 8.29,4.97 7.76,5.75 7.15,6.49 6.49,7.16 5.75,7.75 4.97,8.29 4.13,8.73 3.25,9.09 2.35,9.37 1.42,9.56 0.47,9.65 v 492.12 l -0.47,9.65 -1.42,9.55 -2.35,9.37 -3.25,9.1 -4.13,8.73 -4.97,8.28 -5.75,7.76 -6.49,7.16 -7.15,6.49 -7.76,5.75 -8.29,4.96 -8.73,4.13 -9.09,3.26 -9.37,2.35 -9.56,1.41 -9.64,0.48 h -364.18 l -9.65,-0.48 -9.55,-1.41 -9.37,-2.35 -9.09,-3.26 -8.74,-4.13 -8.28,-4.96 -7.76,-5.75 -7.16,-6.49 -6.48,-7.16 -5.76,-7.76 -4.96,-8.28 -4.13,-8.73 -3.25,-9.1 -2.35,-9.37 -1.42,-9.55 -0.47,-9.65 v -492.12 l 0.47,-9.65 1.42,-9.56 2.35,-9.37 3.25,-9.09 4.13,-8.73 4.96,-8.29 5.76,-7.75 6.48,-7.16 7.16,-6.49 7.76,-5.75 8.28,-4.97 8.74,-4.13 9.09,-3.25 9.37,-2.35 9.55,-1.42 9.65,-0.47 h 364.18 z"
         id="path68"
         inkscape:connector-curvature="0" />
    </g>
    <g
       id="g72" />
    <g
       style="fill:#848400;fill-opacity:1;stroke:#848400;stroke-width:0;stroke-linecap:round;stroke-linejoin:round;stroke-opacity:1"
       id="g74" />
    <g
       style="fill:#848400;fill-opacity:1;stroke:#848400;stroke-width:669.29101562;stroke-linecap:round;stroke-linejoin:round;stroke-opacity:1"
       id="g76" />
    <g
       style="fill:#848400;fill-opacity:0;stroke:#848400;stroke-width:669.29101562;stroke-linecap:round;stroke-linejoin:round;stroke-opacity:1"
       id="g84">
      <path
         d="m 1819,6548 v 0"
         id="path78"
         inkscape:connector-curvature="0" />
      <path
         d="m 1819,5548 v 0"
         id="path80"
         inkscape:connector-curvature="0" />
      <path
         d="m 1819,4548 v 0"
         id="path82"
         inkscape:connector-curvature="0" />
    </g>
    <g
       style="fill:#848400;fill-opacity:1;stroke:#848400;stroke-width:0;stroke-linecap:round;stroke-linejoin:round;stroke-opacity:1"
       id="g88">
      <circle
         cx="1819.9301"
         cy="3548.23"
         r="334.646"
         id="circle86" />
    </g>
    <g
       style="fill:#848400;fill-opacity:1;stroke:#848400;stroke-width:39.37009811;stroke-linecap:round;stroke-linejoin:round;stroke-opacity:1"
       id="g90" />
    <g
       id="g92" />
    <g
       style="fill:#848400;fill-opacity:1;stroke:#848400;stroke-width:39.37009811;stroke-linecap:round;stroke-linejoin:round;stroke-opacity:1"
       id="g94" />
    <g
       style="fill:#848400;fill-opacity:1;stroke:#848400;stroke-width:0;stroke-linecap:round;stroke-linejoin:round;stroke-opacity:1"
       id="g98">
      <circle
         cx="8819.9297"
         cy="3548.23"
         r="334.646"
         id="circle96" />
    </g>
    <g
       style="fill:#848400;fill-opacity:1;stroke:#848400;stroke-width:39.37009811;stroke-linecap:round;stroke-linejoin:round;stroke-opacity:1"
       id="g100" />
    <g
       style="fill:#848400;fill-opacity:1;stroke:#848400;stroke-width:669.29101562;stroke-linecap:round;stroke-linejoin:round;stroke-opacity:1"
       id="g102" />
    <g
       style="fill:#848400;fill-opacity:0;stroke:#848400;stroke-width:669.29101562;stroke-linecap:round;stroke-linejoin:round;stroke-opacity:1"
       id="g110">
      <path
         d="m 8819,4548 v 0"
         id="path104"
         inkscape:connector-curvature="0" />
      <path
         d="m 8819,5548 v 0"
         id="path106"
         inkscape:connector-curvature="0" />
      <path
         d="m 8819,6548 v 0"
         id="path108"
         inkscape:connector-curvature="0" />
    </g>
    <g
       id="g112" />
    <g
       id="g114" />
    <g
       style="fill:#840000;fill-opacity:0;stroke:#840000;stroke-width:669.29101562;stroke-linecap:round;stroke-linejoin:round;stroke-opacity:1"
       id="g116" />
    <g
       style="fill:#840000;fill-opacity:0;stroke:#840000;stroke-width:240;stroke-linecap:round;stroke-linejoin:round;stroke-opacity:1"
       id="g236">
      <path
         d="m 3229,3138 h 614"
         id="path118"
         inkscape:connector-curvature="0" />
      <path
         d="M 1819,4548 3229,3138"
         id="path120"
         inkscape:connector-curvature="0" />
      <path
         d="m 3308,3638 h 535"
         id="path122"
         inkscape:connector-curvature="0" />
      <path
         d="m 2353,4593 955,-955"
         id="path124"
         inkscape:connector-curvature="0" />
      <path
         d="m 1819,5548 534,-534"
         id="path126"
         inkscape:connector-curvature="0" />
      <path
         d="M 2353,5014 V 4593"
         id="path128"
         inkscape:connector-curvature="0" />
      <path
         d="m 3308,4138 h 535"
         id="path130"
         inkscape:connector-curvature="0" />
      <path
         d="m 2672,4774 636,-636"
         id="path132"
         inkscape:connector-curvature="0" />
      <path
         d="m 1819,6548 853,-852"
         id="path134"
         inkscape:connector-curvature="0" />
      <path
         d="M 2672,5696 V 4774"
         id="path136"
         inkscape:connector-curvature="0" />
      <path
         d="m 3569,7914 384,384"
         id="path138"
         inkscape:connector-curvature="0" />
      <path
         d="m 3569,7633 v 281"
         id="path140"
         inkscape:connector-curvature="0" />
      <path
         d="M 7069,7914 V 7633"
         id="path142"
         inkscape:connector-curvature="0" />
      <path
         d="m 6686,8298 383,-384"
         id="path144"
         inkscape:connector-curvature="0" />
      <path
         d="M 3953,8298 H 6686"
         id="path146"
         inkscape:connector-curvature="0" />
      <path
         d="M 1819,3548 V 2798"
         id="path148"
         inkscape:connector-curvature="0" />
      <path
         d="M 2569,2048 H 4624"
         id="path150"
         inkscape:connector-curvature="0" />
      <path
         d="m 1819,2798 750,-750"
         id="path152"
         inkscape:connector-curvature="0" />
      <path
         d="m 4624,2392 195,196"
         id="path154"
         inkscape:connector-curvature="0" />
      <path
         d="m 4624,2048 v 344"
         id="path156"
         inkscape:connector-curvature="0" />
      <path
         d="M 4819,2588 V 4298"
         id="path158"
         inkscape:connector-curvature="0" />
      <path
         d="M 4479,4638 H 3843"
         id="path160"
         inkscape:connector-curvature="0" />
      <path
         d="m 4819,4298 -340,340"
         id="path162"
         inkscape:connector-curvature="0" />
      <path
         d="m 3065,7633 h 504"
         id="path164"
         inkscape:connector-curvature="0" />
      <path
         d="m 2819,7388 246,245"
         id="path166"
         inkscape:connector-curvature="0" />
      <path
         d="M 2819,6019 V 7388"
         id="path168"
         inkscape:connector-curvature="0" />
      <path
         d="m 3843,4638 v 358"
         id="path170"
         inkscape:connector-curvature="0" />
      <path
         d="M 3843,4996 2819,6019"
         id="path172"
         inkscape:connector-curvature="0" />
      <path
         d="M 7159,4638 H 6796"
         id="path174"
         inkscape:connector-curvature="0" />
      <path
         d="M 7569,5048 7159,4638"
         id="path176"
         inkscape:connector-curvature="0" />
      <path
         d="M 7569,5771 V 5048"
         id="path178"
         inkscape:connector-curvature="0" />
      <path
         d="M 8819,6548 H 8346"
         id="path180"
         inkscape:connector-curvature="0" />
      <path
         d="M 8346,6548 7569,5771"
         id="path182"
         inkscape:connector-curvature="0" />
      <path
         d="M 6069,6462 V 4798"
         id="path184"
         inkscape:connector-curvature="0" />
      <path
         d="m 6229,4638 h 567"
         id="path186"
         inkscape:connector-curvature="0" />
      <path
         d="m 6069,4798 160,-160"
         id="path188"
         inkscape:connector-curvature="0" />
      <path
         d="M 7409,4138 H 6796"
         id="path190"
         inkscape:connector-curvature="0" />
      <path
         d="M 8819,5548 7409,4138"
         id="path192"
         inkscape:connector-curvature="0" />
      <path
         d="M 7331,3638 H 6796"
         id="path194"
         inkscape:connector-curvature="0" />
      <path
         d="M 7436,3638 H 7331"
         id="path196"
         inkscape:connector-curvature="0" />
      <path
         d="M 8346,4548 7436,3638"
         id="path198"
         inkscape:connector-curvature="0" />
      <path
         d="M 8819,4548 H 8346"
         id="path200"
         inkscape:connector-curvature="0" />
      <path
         d="M 3569,6462 H 4569"
         id="path202"
         inkscape:connector-curvature="0" />
      <path
         d="M 8819,3548 V 2798"
         id="path204"
         inkscape:connector-curvature="0" />
      <path
         d="M 8069,2048 H 5795"
         id="path206"
         inkscape:connector-curvature="0" />
      <path
         d="M 8819,2798 8069,2048"
         id="path208"
         inkscape:connector-curvature="0" />
      <path
         d="m 5795,2048 v 725"
         id="path210"
         inkscape:connector-curvature="0" />
      <path
         d="m 6159,3138 h 637"
         id="path212"
         inkscape:connector-curvature="0" />
      <path
         d="m 5795,2773 24,25"
         id="path214"
         inkscape:connector-curvature="0" />
      <path
         d="m 5819,2798 340,340"
         id="path216"
         inkscape:connector-curvature="0" />
      <path
         d="m 5526,3091 293,-293"
         id="path218"
         inkscape:connector-curvature="0" />
      <path
         d="m 4569,7633 h 415"
         id="path220"
         inkscape:connector-curvature="0" />
      <path
         d="M 5526,7091 V 3091"
         id="path222"
         inkscape:connector-curvature="0" />
      <path
         d="m 4984,7633 542,-542"
         id="path224"
         inkscape:connector-curvature="0" />
      <path
         d="m 6430,6993 -361,360"
         id="path226"
         inkscape:connector-curvature="0" />
      <path
         d="M 6819,6993 H 6430"
         id="path228"
         inkscape:connector-curvature="0" />
      <path
         d="m 6069,7353 v 280"
         id="path230"
         inkscape:connector-curvature="0" />
      <path
         d="m 7069,6462 v 281"
         id="path232"
         inkscape:connector-curvature="0" />
      <path
         d="m 7069,6743 -250,250"
         id="path234"
         inkscape:connector-curvature="0" />
    </g>
    <g
       id="g238" />
  </g>
  <g
     style="fill:#ffffff;fill-opacity:0;stroke:#ffffff;stroke-width:240;stroke-linecap:round;stroke-linejoin:round;stroke-opacity:1"
     id="g242"
     transform="translate(-1309.1565,-1538.1565)" />
  <g
     style="fill:#ffffff;fill-opacity:1;stroke:#ffffff;stroke-width:0;stroke-linecap:round;stroke-linejoin:round;stroke-opacity:1"
     id="g246"
     transform="translate(-1309.1565,-1538.1565)">
    <circle
       cx="1819.9301"
       cy="6548.23"
       r="196.85001"
       id="circle244" />
  </g>
  <g
     style="fill:#ffffff;fill-opacity:1;stroke:#ffffff;stroke-width:39.37009811;stroke-linecap:round;stroke-linejoin:round;stroke-opacity:1"
     id="g248"
     transform="translate(-1309.1565,-1538.1565)" />
  <g
     style="fill:#ffffff;fill-opacity:1;stroke:#ffffff;stroke-width:0;stroke-linecap:round;stroke-linejoin:round;stroke-opacity:1"
     id="g252"
     transform="translate(-1309.1565,-1538.1565)">
    <circle
       cx="1819.9301"
       cy="5548.23"
       r="196.85001"
       id="circle250" />
  </g>
  <g
     style="fill:#ffffff;fill-opacity:1;stroke:#ffffff;stroke-width:39.37009811;stroke-linecap:round;stroke-linejoin:round;stroke-opacity:1"
     id="g254"
     transform="translate(-1309.1565,-1538.1565)" />
  <g
     style="fill:#ffffff;fill-opacity:1;stroke:#ffffff;stroke-width:0;stroke-linecap:round;stroke-linejoin:round;stroke-opacity:1"
     id="g258"
     transform="translate(-1309.1565,-1538.1565)">
    <circle
       cx="1819.9301"
       cy="4548.23"
       r="196.85001"
       id="circle256" />
  </g>
  <g
     style="fill:#ffffff;fill-opacity:1;stroke:#ffffff;stroke-width:39.37009811;stroke-linecap:round;stroke-linejoin:round;stroke-opacity:1"
     id="g260"
     transform="translate(-1309.1565,-1538.1565)" />
  <g
     style="fill:#ffffff;fill-opacity:1;stroke:#ffffff;stroke-width:0;stroke-linecap:round;stroke-linejoin:round;stroke-opacity:1"
     id="g264"
     transform="translate(-1309.1565,-1538.1565)">
    <circle
       cx="1819.9301"
       cy="3548.23"
       r="196.85001"
       id="circle262" />
  </g>
  <g
     style="fill:#ffffff;fill-opacity:1;stroke:#ffffff;stroke-width:39.37009811;stroke-linecap:round;stroke-linejoin:round;stroke-opacity:1"
     id="g266"
     transform="translate(-1309.1565,-1538.1565)" />
  <g
     style="fill:#ffffff;fill-opacity:1;stroke:#ffffff;stroke-width:0;stroke-linecap:round;stroke-linejoin:round;stroke-opacity:1"
     id="g270"
     transform="translate(-1309.1565,-1538.1565)">
    <circle
       cx="8819.9297"
       cy="3548.23"
       r="196.85001"
       id="circle268" />
  </g>
  <g
     style="fill:#ffffff;fill-opacity:1;stroke:#ffffff;stroke-width:39.37009811;stroke-linecap:round;stroke-linejoin:round;stroke-opacity:1"
     id="g272"
     transform="translate(-1309.1565,-1538.1565)" />
  <g
     style="fill:#ffffff;fill-opacity:1;stroke:#ffffff;stroke-width:0;stroke-linecap:round;stroke-linejoin:round;stroke-opacity:1"
     id="g276"
     transform="translate(-1309.1565,-1538.1565)">
    <circle
       cx="8819.9297"
       cy="4548.23"
       r="196.85001"
       id="circle274" />
  </g>
  <g
     style="fill:#ffffff;fill-opacity:1;stroke:#ffffff;stroke-width:39.37009811;stroke-linecap:round;stroke-linejoin:round;stroke-opacity:1"
     id="g278"
     transform="translate(-1309.1565,-1538.1565)" />
  <g
     style="fill:#ffffff;fill-opacity:1;stroke:#ffffff;stroke-width:0;stroke-linecap:round;stroke-linejoin:round;stroke-opacity:1"
     id="g282"
     transform="translate(-1309.1565,-1538.1565)">
    <circle
       cx="8819.9297"
       cy="5548.23"
       r="196.85001"
       id="circle280" />
  </g>
  <g
     style="fill:#ffffff;fill-opacity:1;stroke:#ffffff;stroke-width:39.37009811;stroke-linecap:round;stroke-linejoin:round;stroke-opacity:1"
     id="g284"
     transform="translate(-1309.1565,-1538.1565)" />
  <g
     style="fill:#ffffff;fill-opacity:1;stroke:#ffffff;stroke-width:0;stroke-linecap:round;stroke-linejoin:round;stroke-opacity:1"
     id="g288"
     transform="translate(-1309.1565,-1538.1565)">
    <circle
       cx="8819.9297"
       cy="6548.23"
       r="196.85001"
       id="circle286" />
  </g>
  <g
     style="fill:#ffffff;fill-opacity:1;stroke:#ffffff;stroke-width:39.37009811;stroke-linecap:round;stroke-linejoin:round;stroke-opacity:1"
     id="g290"
     transform="translate(-1309.1565,-1538.1565)" />
  <g
     style="fill:#000000;fill-opacity:1;stroke:#000000;stroke-width:39.37009811;stroke-linecap:round;stroke-linejoin:round;stroke-opacity:1"
     id="g292"
     transform="translate(-1309.1565,-1538.1565)" />
  <g
     style="fill:#c2c200;fill-opacity:1;stroke:#c2c200;stroke-width:39.37009811;stroke-linecap:round;stroke-linejoin:round;stroke-opacity:1"
     id="g294"
     transform="translate(-1309.1565,-1538.1565)" />
  <g
     style="fill:#c2c200;fill-opacity:1;stroke:#c2c200;stroke-width:19.68499947;stroke-linecap:round;stroke-linejoin:round;stroke-opacity:1"
     id="g296"
     transform="translate(-1309.1565,-1538.1565)" />
  <g
     style="fill:#c2c200;fill-opacity:0;stroke:#c2c200;stroke-width:19.68499947;stroke-linecap:round;stroke-linejoin:round;stroke-opacity:1"
     id="g332"
     transform="translate(-1309.1565,-1538.1565)">
    <path
       d="M 8569,1548 H 2069"
       id="path298"
       inkscape:connector-curvature="0" />
    <path
       d="M 2069,8548 H 8569"
       id="path300"
       inkscape:connector-curvature="0" />
    <path
       d="M 1319,2298 V 7798"
       id="path302"
       inkscape:connector-curvature="0" />
    <path
       d="m 1319.93,7798.23 a 750,750 0 0 0 750,750"
       id="path304"
       inkscape:connector-curvature="0" />
    <path
       d="m 8569.93,8548.23 a 750,750 0 0 0 750,-750"
       id="path306"
       inkscape:connector-curvature="0" />
    <path
       d="m 9319.93,2298.23 a 750,750 0 0 0 -750,-750"
       id="path308"
       inkscape:connector-curvature="0" />
    <path
       d="m 2069.93,1548.23 a 750,750 0 0 0 -750,750"
       id="path310"
       inkscape:connector-curvature="0" />
    <path
       d="M 9319,2298 V 7798"
       id="path312"
       inkscape:connector-curvature="0" />
    <g
       id="g314" />
    <g
       id="g316" />
    <g
       id="g318" />
    <g
       id="g320" />
    <g
       id="g322" />
    <g
       id="g324" />
    <g
       id="g326" />
    <g
       id="g328" />
    <g
       id="g330" />
  </g>
</svg>
