<?xml version="1.0" encoding="iso-8859-1"?>
<!-- Generator: Adobe Illustrator 19.1.1, SVG Export Plug-In . SVG Version: 6.00 Build 0)  -->
<svg version="1.1" id="Layer_1" xmlns="http://www.w3.org/2000/svg" xmlns:xlink="http://www.w3.org/1999/xlink" x="0px" y="0px"
	 viewBox="0 0 40 40" style="enable-background:new 0 0 40 40;" xml:space="preserve">
<g>
	<path style="fill:#8BB7F0;" d="M16.117,38.5L5.501,27.794C5.546,18.578,8.616,1.5,20,1.5s14.454,17.078,14.499,26.294L23.883,38.5
		H16.117z"/>
	<path style="fill:#4E7AB5;" d="M20,2c10.908,0,13.91,16.501,13.998,25.59L23.674,38h-7.349L6.002,27.59C6.09,18.501,9.092,2,20,2
		 M20,1C7.386,1,5,20.505,5,28l10.909,11h8.182L35,28C35,20.505,32.614,1,20,1L20,1z"/>
</g>
<g>
	<path style="fill:#839CB2;" d="M16.149,38.5C15.167,37.251,9.5,29.667,9.5,21c0-9.869,4.22-16.5,10.5-16.5S30.5,11.131,30.5,21
		c0,8.677-5.667,16.253-6.648,17.5H16.149z"/>
	<g>
		<path style="fill:#66798F;" d="M20,5c5.981,0,10,6.43,10,16c0,8.145-5.122,15.34-6.394,17h-7.213C15.121,36.343,10,29.163,10,21
			C10,11.43,14.019,5,20,5 M20,4C13.975,4,9,10.028,9,21c0,9.744,6.909,18,6.909,18h8.182c0,0,6.909-8.256,6.909-18
			C31,10.083,26.025,4,20,4L20,4z"/>
	</g>
</g>
<path style="fill:#8BB7F0;" d="M16,38c0-10.857-4-21-4-21c1.705-8.143,4.932-10,8-10s5.841,1.631,8,10c0,0-4,10.143-4,21H16z"/>
<g>
	<polygon style="fill:#B0C1D4;" points="17.59,38.5 19.424,27.5 20.576,27.5 22.41,38.5 	"/>
	<g>
		<path style="fill:#66798F;" d="M20.153,28l1.667,10H18.18l1.667-10H20.153 M21,27h-2l-2,12h6L21,27L21,27z"/>
	</g>
</g>
<g>
	<g>
		<polygon style="fill:#839CB2;" points="22,35 21.857,34 18.143,34 18,35 		"/>
		<polygon style="fill:#66798F;" points="21.857,34 18.143,34 18,35 22,35 21.857,34 		"/>
	</g>
	<g>
		<polygon style="fill:#839CB2;" points="22,37 21.875,36 18.125,36 18,37 		"/>
		<polygon style="fill:#66798F;" points="21.875,36 18.125,36 18,37 22,37 21.875,36 		"/>
	</g>
	<g>
		<polygon style="fill:#839CB2;" points="18.617,32 18.492,33 21.492,33 21.367,32 		"/>
		<polygon style="fill:#66798F;" points="21.367,32 18.617,32 18.492,33 21.492,33 21.367,32 		"/>
	</g>
	<g>
		<polygon style="fill:#839CB2;" points="18.617,30 18.492,31 21.492,31 21.367,30 		"/>
		<polygon style="fill:#66798F;" points="21.367,30 18.617,30 18.492,31 21.492,31 21.367,30 		"/>
	</g>
</g>
<path style="fill:#66798F;" d="M28.968,16.75C27.024,9.215,24.342,6,20,6c-4.521,0-7.458,3.531-8.979,10.795l-0.061,0.293
	l0.11,0.279C11.109,17.466,15,27.47,15,38h1c0-10.857-4-21-4-21c1.705-8.143,4.932-10,8-10s5.841,1.631,8,10c0,0-4,10.143-4,21h1
	c0-10.545,3.891-20.533,3.93-20.633l0.119-0.302L28.968,16.75z"/>
<g>
	<path style="fill:#C2E8FF;" d="M27.495,18.399C27.802,17.502,28,17,28,17c-0.425-1.647-0.874-3.024-1.344-4.188
		C25.172,14.772,22.748,17,20,17c-2.803,0-5.271-2.329-6.745-4.305C12.781,13.887,12.356,15.3,12,17c0,0,0.198,0.502,0.505,1.399
		C13.768,20.306,16.647,24,20,24S26.232,20.306,27.495,18.399z"/>
</g>
<g>
	<path style="fill:#7496C4;" d="M16.528,8.049C17.179,8.83,18,10.336,18,12.998h1c0-2.814-0.857-4.503-1.595-5.447
		C17.109,7.688,16.816,7.849,16.528,8.049z"/>
	<path style="fill:#7496C4;" d="M22.597,7.549C21.858,8.493,21,10.182,21,12.998h1c0-2.64,0.807-4.141,1.455-4.927
		C23.173,7.862,22.887,7.689,22.597,7.549z"/>
</g>
<path style="fill:#36404D;" d="M27,16c0,0-5.182,7-7,7s-7-7-7-7s5.068,4,7,4S27,16,27,16z"/>
</svg>
