G04 #@! TF.GenerationSoftware,KiCad,Pcbnew,5.1.5-52549c5~86~ubuntu18.04.1*
G04 #@! TF.CreationDate,2020-04-16T18:44:58-06:00*
G04 #@! TF.ProjectId,001,3030312e-6b69-4636-9164-5f7063625858,rev?*
G04 #@! TF.SameCoordinates,Original*
G04 #@! TF.FileFunction,Legend,Top*
G04 #@! TF.FilePolarity,Positive*
%FSLAX46Y46*%
G04 Gerber Fmt 4.6, Leading zero omitted, Abs format (unit mm)*
G04 Created by KiCad (PCBNEW 5.1.5-52549c5~86~ubuntu18.04.1) date 2020-04-16 18:44:58*
%MOMM*%
%LPD*%
G04 APERTURE LIST*
%ADD10C,0.010000*%
G04 APERTURE END LIST*
D10*
G36*
X153943670Y-134001732D02*
G01*
X154330066Y-134002249D01*
X154756035Y-134003051D01*
X154887465Y-134003330D01*
X157723772Y-134009477D01*
X157760516Y-134284644D01*
X157771924Y-134366886D01*
X157788685Y-134483455D01*
X157809691Y-134626994D01*
X157833835Y-134790144D01*
X157860010Y-134965548D01*
X157887109Y-135145850D01*
X157914025Y-135323691D01*
X157939650Y-135491714D01*
X157962878Y-135642563D01*
X157982600Y-135768879D01*
X157997711Y-135863305D01*
X158001799Y-135888019D01*
X158015115Y-135967394D01*
X154392845Y-135967394D01*
X153926450Y-135967355D01*
X153500634Y-135967227D01*
X153113642Y-135966998D01*
X152763722Y-135966651D01*
X152449118Y-135966174D01*
X152168077Y-135965552D01*
X151918844Y-135964771D01*
X151699665Y-135963816D01*
X151508786Y-135962673D01*
X151344453Y-135961328D01*
X151204912Y-135959767D01*
X151088408Y-135957975D01*
X150993188Y-135955939D01*
X150917497Y-135953644D01*
X150859581Y-135951075D01*
X150817687Y-135948218D01*
X150790059Y-135945060D01*
X150774943Y-135941586D01*
X150770576Y-135937974D01*
X150774659Y-135905548D01*
X150785642Y-135842276D01*
X150801623Y-135758721D01*
X150812831Y-135703192D01*
X150842583Y-135551232D01*
X150875607Y-135370150D01*
X150909726Y-135172808D01*
X150942759Y-134972065D01*
X150972529Y-134780781D01*
X150992962Y-134640098D01*
X151009126Y-134536560D01*
X151027088Y-134441587D01*
X151044391Y-134367259D01*
X151055731Y-134331666D01*
X151121953Y-134227043D01*
X151222687Y-134143683D01*
X151354238Y-134084623D01*
X151357870Y-134083490D01*
X151398647Y-134071745D01*
X151442649Y-134061109D01*
X151492015Y-134051534D01*
X151548882Y-134042973D01*
X151615390Y-134035375D01*
X151693675Y-134028693D01*
X151785877Y-134022878D01*
X151894133Y-134017882D01*
X152020581Y-134013655D01*
X152167360Y-134010150D01*
X152336608Y-134007317D01*
X152530462Y-134005109D01*
X152751061Y-134003476D01*
X153000544Y-134002371D01*
X153281047Y-134001744D01*
X153594710Y-134001547D01*
X153943670Y-134001732D01*
G37*
X153943670Y-134001732D02*
X154330066Y-134002249D01*
X154756035Y-134003051D01*
X154887465Y-134003330D01*
X157723772Y-134009477D01*
X157760516Y-134284644D01*
X157771924Y-134366886D01*
X157788685Y-134483455D01*
X157809691Y-134626994D01*
X157833835Y-134790144D01*
X157860010Y-134965548D01*
X157887109Y-135145850D01*
X157914025Y-135323691D01*
X157939650Y-135491714D01*
X157962878Y-135642563D01*
X157982600Y-135768879D01*
X157997711Y-135863305D01*
X158001799Y-135888019D01*
X158015115Y-135967394D01*
X154392845Y-135967394D01*
X153926450Y-135967355D01*
X153500634Y-135967227D01*
X153113642Y-135966998D01*
X152763722Y-135966651D01*
X152449118Y-135966174D01*
X152168077Y-135965552D01*
X151918844Y-135964771D01*
X151699665Y-135963816D01*
X151508786Y-135962673D01*
X151344453Y-135961328D01*
X151204912Y-135959767D01*
X151088408Y-135957975D01*
X150993188Y-135955939D01*
X150917497Y-135953644D01*
X150859581Y-135951075D01*
X150817687Y-135948218D01*
X150790059Y-135945060D01*
X150774943Y-135941586D01*
X150770576Y-135937974D01*
X150774659Y-135905548D01*
X150785642Y-135842276D01*
X150801623Y-135758721D01*
X150812831Y-135703192D01*
X150842583Y-135551232D01*
X150875607Y-135370150D01*
X150909726Y-135172808D01*
X150942759Y-134972065D01*
X150972529Y-134780781D01*
X150992962Y-134640098D01*
X151009126Y-134536560D01*
X151027088Y-134441587D01*
X151044391Y-134367259D01*
X151055731Y-134331666D01*
X151121953Y-134227043D01*
X151222687Y-134143683D01*
X151354238Y-134084623D01*
X151357870Y-134083490D01*
X151398647Y-134071745D01*
X151442649Y-134061109D01*
X151492015Y-134051534D01*
X151548882Y-134042973D01*
X151615390Y-134035375D01*
X151693675Y-134028693D01*
X151785877Y-134022878D01*
X151894133Y-134017882D01*
X152020581Y-134013655D01*
X152167360Y-134010150D01*
X152336608Y-134007317D01*
X152530462Y-134005109D01*
X152751061Y-134003476D01*
X153000544Y-134002371D01*
X153281047Y-134001744D01*
X153594710Y-134001547D01*
X153943670Y-134001732D01*
G36*
X151968953Y-130073053D02*
G01*
X152098914Y-130073835D01*
X152258771Y-130075024D01*
X152445418Y-130076585D01*
X152655747Y-130078483D01*
X152886648Y-130080681D01*
X153135015Y-130083146D01*
X153397740Y-130085842D01*
X153671715Y-130088733D01*
X153953831Y-130091784D01*
X154240982Y-130094961D01*
X154530058Y-130098228D01*
X154817953Y-130101550D01*
X155101558Y-130104891D01*
X155377765Y-130108216D01*
X155643467Y-130111491D01*
X155895556Y-130114680D01*
X156130923Y-130117747D01*
X156346461Y-130120658D01*
X156539062Y-130123378D01*
X156705618Y-130125870D01*
X156843021Y-130128101D01*
X156948164Y-130130034D01*
X157017937Y-130131634D01*
X157049235Y-130132867D01*
X157050676Y-130133105D01*
X157056165Y-130155279D01*
X157067513Y-130213525D01*
X157083748Y-130302138D01*
X157103899Y-130415412D01*
X157126993Y-130547641D01*
X157152058Y-130693118D01*
X157178122Y-130846139D01*
X157204213Y-131000996D01*
X157229360Y-131151985D01*
X157252591Y-131293399D01*
X157272933Y-131419532D01*
X157289414Y-131524678D01*
X157300960Y-131602404D01*
X157315953Y-131711281D01*
X157324651Y-131786300D01*
X157327047Y-131835469D01*
X157323132Y-131866793D01*
X157312898Y-131888280D01*
X157300639Y-131903232D01*
X157260015Y-131936523D01*
X157201436Y-131962745D01*
X157118127Y-131983809D01*
X157003317Y-132001624D01*
X156916581Y-132011539D01*
X156863810Y-132014839D01*
X156772206Y-132018019D01*
X156645267Y-132021065D01*
X156486493Y-132023962D01*
X156299382Y-132026698D01*
X156087433Y-132029258D01*
X155854147Y-132031629D01*
X155603022Y-132033797D01*
X155337557Y-132035748D01*
X155061252Y-132037469D01*
X154777605Y-132038946D01*
X154490116Y-132040165D01*
X154202284Y-132041113D01*
X153917609Y-132041775D01*
X153639589Y-132042138D01*
X153371723Y-132042188D01*
X153117512Y-132041912D01*
X152880453Y-132041296D01*
X152664047Y-132040326D01*
X152471792Y-132038988D01*
X152307187Y-132037268D01*
X152173733Y-132035154D01*
X152074927Y-132032630D01*
X152029993Y-132030712D01*
X151850195Y-132017697D01*
X151709290Y-131999530D01*
X151603937Y-131973983D01*
X151530795Y-131938830D01*
X151486525Y-131891843D01*
X151467788Y-131830794D01*
X151471241Y-131753458D01*
X151489873Y-131670561D01*
X151498672Y-131631027D01*
X151513419Y-131555766D01*
X151533011Y-131450792D01*
X151556348Y-131322119D01*
X151582327Y-131175763D01*
X151609846Y-131017737D01*
X151615888Y-130982644D01*
X151658536Y-130736401D01*
X151694902Y-130530840D01*
X151725205Y-130364813D01*
X151749663Y-130237170D01*
X151768497Y-130146764D01*
X151781925Y-130092446D01*
X151789533Y-130073500D01*
X151811155Y-130072850D01*
X151871998Y-130072713D01*
X151968953Y-130073053D01*
G37*
X151968953Y-130073053D02*
X152098914Y-130073835D01*
X152258771Y-130075024D01*
X152445418Y-130076585D01*
X152655747Y-130078483D01*
X152886648Y-130080681D01*
X153135015Y-130083146D01*
X153397740Y-130085842D01*
X153671715Y-130088733D01*
X153953831Y-130091784D01*
X154240982Y-130094961D01*
X154530058Y-130098228D01*
X154817953Y-130101550D01*
X155101558Y-130104891D01*
X155377765Y-130108216D01*
X155643467Y-130111491D01*
X155895556Y-130114680D01*
X156130923Y-130117747D01*
X156346461Y-130120658D01*
X156539062Y-130123378D01*
X156705618Y-130125870D01*
X156843021Y-130128101D01*
X156948164Y-130130034D01*
X157017937Y-130131634D01*
X157049235Y-130132867D01*
X157050676Y-130133105D01*
X157056165Y-130155279D01*
X157067513Y-130213525D01*
X157083748Y-130302138D01*
X157103899Y-130415412D01*
X157126993Y-130547641D01*
X157152058Y-130693118D01*
X157178122Y-130846139D01*
X157204213Y-131000996D01*
X157229360Y-131151985D01*
X157252591Y-131293399D01*
X157272933Y-131419532D01*
X157289414Y-131524678D01*
X157300960Y-131602404D01*
X157315953Y-131711281D01*
X157324651Y-131786300D01*
X157327047Y-131835469D01*
X157323132Y-131866793D01*
X157312898Y-131888280D01*
X157300639Y-131903232D01*
X157260015Y-131936523D01*
X157201436Y-131962745D01*
X157118127Y-131983809D01*
X157003317Y-132001624D01*
X156916581Y-132011539D01*
X156863810Y-132014839D01*
X156772206Y-132018019D01*
X156645267Y-132021065D01*
X156486493Y-132023962D01*
X156299382Y-132026698D01*
X156087433Y-132029258D01*
X155854147Y-132031629D01*
X155603022Y-132033797D01*
X155337557Y-132035748D01*
X155061252Y-132037469D01*
X154777605Y-132038946D01*
X154490116Y-132040165D01*
X154202284Y-132041113D01*
X153917609Y-132041775D01*
X153639589Y-132042138D01*
X153371723Y-132042188D01*
X153117512Y-132041912D01*
X152880453Y-132041296D01*
X152664047Y-132040326D01*
X152471792Y-132038988D01*
X152307187Y-132037268D01*
X152173733Y-132035154D01*
X152074927Y-132032630D01*
X152029993Y-132030712D01*
X151850195Y-132017697D01*
X151709290Y-131999530D01*
X151603937Y-131973983D01*
X151530795Y-131938830D01*
X151486525Y-131891843D01*
X151467788Y-131830794D01*
X151471241Y-131753458D01*
X151489873Y-131670561D01*
X151498672Y-131631027D01*
X151513419Y-131555766D01*
X151533011Y-131450792D01*
X151556348Y-131322119D01*
X151582327Y-131175763D01*
X151609846Y-131017737D01*
X151615888Y-130982644D01*
X151658536Y-130736401D01*
X151694902Y-130530840D01*
X151725205Y-130364813D01*
X151749663Y-130237170D01*
X151768497Y-130146764D01*
X151781925Y-130092446D01*
X151789533Y-130073500D01*
X151811155Y-130072850D01*
X151871998Y-130072713D01*
X151968953Y-130073053D01*
G36*
X154660651Y-65493683D02*
G01*
X154921003Y-65496646D01*
X155169907Y-65501253D01*
X155400693Y-65507480D01*
X155606696Y-65515302D01*
X155781245Y-65524695D01*
X155871743Y-65531381D01*
X156694594Y-65615636D01*
X157489953Y-65727113D01*
X158263815Y-65867133D01*
X159022172Y-66037018D01*
X159771019Y-66238089D01*
X160516348Y-66471667D01*
X161142243Y-66693272D01*
X161963677Y-67021094D01*
X162765505Y-67385863D01*
X163548506Y-67788024D01*
X164313462Y-68228026D01*
X165061152Y-68706314D01*
X165792356Y-69223335D01*
X166451865Y-69734146D01*
X166572558Y-69831453D01*
X166689405Y-69925310D01*
X166796102Y-70010680D01*
X166886346Y-70082526D01*
X166953833Y-70135812D01*
X166981032Y-70156972D01*
X167088249Y-70243523D01*
X167220344Y-70356878D01*
X167373147Y-70493042D01*
X167542490Y-70648023D01*
X167724203Y-70817827D01*
X167914118Y-70998461D01*
X168108067Y-71185932D01*
X168301880Y-71376245D01*
X168491389Y-71565407D01*
X168672424Y-71749426D01*
X168840818Y-71924307D01*
X168973909Y-72066039D01*
X169663207Y-72839098D01*
X170335375Y-73650720D01*
X170990318Y-74500712D01*
X171627944Y-75388885D01*
X172248160Y-76315046D01*
X172850873Y-77279005D01*
X173435990Y-78280570D01*
X174003417Y-79319550D01*
X174553062Y-80395755D01*
X175084832Y-81508992D01*
X175598633Y-82659071D01*
X176094373Y-83845800D01*
X176571958Y-85068989D01*
X177031295Y-86328445D01*
X177472291Y-87623979D01*
X177894854Y-88955399D01*
X178298889Y-90322513D01*
X178684305Y-91725131D01*
X178845252Y-92342894D01*
X179175791Y-93678956D01*
X179491500Y-95048945D01*
X179791303Y-96446751D01*
X180074125Y-97866266D01*
X180338888Y-99301379D01*
X180584518Y-100745981D01*
X180809938Y-102193962D01*
X181014072Y-103639213D01*
X181195843Y-105075624D01*
X181354177Y-106497085D01*
X181376489Y-106715061D01*
X181442005Y-107381989D01*
X181500515Y-108019792D01*
X181552596Y-108637095D01*
X181598825Y-109242519D01*
X181639778Y-109844690D01*
X181676031Y-110452230D01*
X181708160Y-111073764D01*
X181736742Y-111717914D01*
X181762354Y-112393306D01*
X181769059Y-112588811D01*
X181781720Y-112960175D01*
X181793533Y-113293233D01*
X181804697Y-113592001D01*
X181815408Y-113860492D01*
X181825866Y-114102722D01*
X181836267Y-114322705D01*
X181846808Y-114524456D01*
X181857689Y-114711989D01*
X181869106Y-114889321D01*
X181881257Y-115060464D01*
X181894340Y-115229434D01*
X181906066Y-115371117D01*
X181924850Y-115592257D01*
X181547337Y-115984951D01*
X181500107Y-116033457D01*
X181425024Y-116109723D01*
X181323297Y-116212542D01*
X181196137Y-116340706D01*
X181044751Y-116493006D01*
X180870350Y-116668235D01*
X180674143Y-116865186D01*
X180457340Y-117082650D01*
X180221149Y-117319419D01*
X179966781Y-117574286D01*
X179695444Y-117846044D01*
X179408348Y-118133483D01*
X179106703Y-118435396D01*
X178791718Y-118750576D01*
X178464602Y-119077815D01*
X178126565Y-119415905D01*
X177778816Y-119763637D01*
X177422565Y-120119805D01*
X177059020Y-120483200D01*
X176689392Y-120852615D01*
X176314889Y-121226842D01*
X175936722Y-121604673D01*
X175556099Y-121984899D01*
X175174231Y-122366315D01*
X174792325Y-122747710D01*
X174411593Y-123127879D01*
X174033242Y-123505612D01*
X173658483Y-123879703D01*
X173288526Y-124248943D01*
X172924578Y-124612124D01*
X172567851Y-124968039D01*
X172219552Y-125315480D01*
X171880893Y-125653238D01*
X171553081Y-125980108D01*
X171237327Y-126294879D01*
X170934839Y-126596345D01*
X170646828Y-126883298D01*
X170374503Y-127154530D01*
X170119072Y-127408833D01*
X169881746Y-127644999D01*
X169663734Y-127861821D01*
X169466246Y-128058091D01*
X169290490Y-128232600D01*
X169137676Y-128384142D01*
X169009013Y-128511508D01*
X168905712Y-128613490D01*
X168828981Y-128688881D01*
X168780030Y-128736473D01*
X168761974Y-128753463D01*
X168652386Y-128842261D01*
X168563636Y-128896918D01*
X168496466Y-128917179D01*
X168451619Y-128902789D01*
X168432435Y-128866642D01*
X168429952Y-128839533D01*
X168435160Y-128802997D01*
X168449442Y-128754089D01*
X168474183Y-128689867D01*
X168510767Y-128607389D01*
X168560577Y-128503711D01*
X168624998Y-128375892D01*
X168705415Y-128220988D01*
X168803210Y-128036057D01*
X168919767Y-127818156D01*
X168966078Y-127732022D01*
X169540377Y-126642315D01*
X170082058Y-125567079D01*
X170594598Y-124498665D01*
X171081475Y-123429429D01*
X171546167Y-122351723D01*
X171992152Y-121257900D01*
X172422908Y-120140314D01*
X172440849Y-120092394D01*
X172823336Y-119039764D01*
X173186442Y-117980151D01*
X173529422Y-116916657D01*
X173851530Y-115852386D01*
X174152022Y-114790441D01*
X174430152Y-113733927D01*
X174685174Y-112685947D01*
X174916343Y-111649605D01*
X175122914Y-110628003D01*
X175304142Y-109624247D01*
X175459281Y-108641439D01*
X175587585Y-107682684D01*
X175688310Y-106751084D01*
X175714438Y-106461061D01*
X175740135Y-106153951D01*
X175762816Y-105866466D01*
X175782656Y-105593731D01*
X175799829Y-105330873D01*
X175814510Y-105073020D01*
X175826873Y-104815298D01*
X175837093Y-104552835D01*
X175845344Y-104280759D01*
X175851801Y-103994195D01*
X175856638Y-103688271D01*
X175860029Y-103358114D01*
X175862148Y-102998851D01*
X175863172Y-102605610D01*
X175863328Y-102301811D01*
X175863139Y-101952692D01*
X175862626Y-101641035D01*
X175861666Y-101361969D01*
X175860138Y-101110624D01*
X175857919Y-100882128D01*
X175854887Y-100671612D01*
X175850920Y-100474203D01*
X175845896Y-100285032D01*
X175839693Y-100099228D01*
X175832188Y-99911919D01*
X175823259Y-99718236D01*
X175812784Y-99513306D01*
X175800642Y-99292260D01*
X175786709Y-99050227D01*
X175778130Y-98904561D01*
X175685605Y-97584946D01*
X175565627Y-96284324D01*
X175418476Y-95003949D01*
X175244431Y-93745076D01*
X175043772Y-92508962D01*
X174816778Y-91296862D01*
X174563728Y-90110031D01*
X174284902Y-88949726D01*
X173980579Y-87817201D01*
X173651040Y-86713712D01*
X173296562Y-85640515D01*
X172917426Y-84598865D01*
X172513912Y-83590018D01*
X172216447Y-82902561D01*
X171924764Y-82270833D01*
X171614356Y-81638332D01*
X171287569Y-81008810D01*
X170946745Y-80386018D01*
X170594229Y-79773706D01*
X170232364Y-79175625D01*
X169863496Y-78595528D01*
X169489967Y-78037165D01*
X169114121Y-77504288D01*
X168738303Y-77000647D01*
X168364857Y-76529993D01*
X167996127Y-76096079D01*
X167886772Y-75973624D01*
X167452668Y-75501150D01*
X167034519Y-75062350D01*
X166628324Y-74653562D01*
X166230082Y-74271127D01*
X165835792Y-73911382D01*
X165441454Y-73570668D01*
X165043067Y-73245322D01*
X164636630Y-72931685D01*
X164264746Y-72659327D01*
X163557338Y-72178299D01*
X162836517Y-71737402D01*
X162102213Y-71336614D01*
X161354360Y-70975914D01*
X160592888Y-70655280D01*
X159817730Y-70374690D01*
X159028819Y-70134122D01*
X158226085Y-69933556D01*
X157409460Y-69772969D01*
X156578877Y-69652339D01*
X155734268Y-69571645D01*
X154875565Y-69530866D01*
X154413431Y-69525430D01*
X153546913Y-69544869D01*
X152697715Y-69602643D01*
X151864920Y-69699049D01*
X151047608Y-69834382D01*
X150244860Y-70008939D01*
X149455757Y-70223016D01*
X148679381Y-70476908D01*
X147914812Y-70770913D01*
X147161131Y-71105326D01*
X146417420Y-71480444D01*
X145682759Y-71896562D01*
X144956230Y-72353976D01*
X144357026Y-72766423D01*
X144057783Y-72988738D01*
X143738547Y-73241196D01*
X143403873Y-73519450D01*
X143058316Y-73819154D01*
X142706431Y-74135962D01*
X142352771Y-74465526D01*
X142001893Y-74803499D01*
X141658351Y-75145536D01*
X141326699Y-75487290D01*
X141011492Y-75824414D01*
X140717285Y-76152561D01*
X140448632Y-76467385D01*
X140340891Y-76599082D01*
X139760965Y-77348667D01*
X139200518Y-78134854D01*
X138660379Y-78956243D01*
X138141373Y-79811433D01*
X137644329Y-80699024D01*
X137170074Y-81617615D01*
X136719434Y-82565807D01*
X136429377Y-83221032D01*
X136014922Y-84230131D01*
X135624644Y-85273080D01*
X135258845Y-86348767D01*
X134917831Y-87456082D01*
X134601905Y-88593913D01*
X134311371Y-89761151D01*
X134046533Y-90956683D01*
X133807695Y-92179400D01*
X133595162Y-93428190D01*
X133542031Y-93771644D01*
X133473669Y-94231828D01*
X133411032Y-94673059D01*
X133353895Y-95098877D01*
X133302033Y-95512821D01*
X133255221Y-95918432D01*
X133213234Y-96319250D01*
X133175847Y-96718814D01*
X133142835Y-97120665D01*
X133113972Y-97528342D01*
X133089033Y-97945387D01*
X133067794Y-98375338D01*
X133050029Y-98821736D01*
X133035513Y-99288121D01*
X133024022Y-99778032D01*
X133015330Y-100295011D01*
X133009211Y-100842597D01*
X133005441Y-101424330D01*
X133003795Y-102043749D01*
X133003682Y-102238311D01*
X133004534Y-102841438D01*
X133007334Y-103404561D01*
X133012174Y-103929969D01*
X133019142Y-104419949D01*
X133028330Y-104876791D01*
X133039826Y-105302783D01*
X133053720Y-105700213D01*
X133070103Y-106071369D01*
X133089064Y-106418541D01*
X133110694Y-106744016D01*
X133135082Y-107050083D01*
X133162318Y-107339031D01*
X133192492Y-107613147D01*
X133224870Y-107868644D01*
X133301349Y-108407491D01*
X133388733Y-108975731D01*
X133485170Y-109562393D01*
X133588806Y-110156506D01*
X133697791Y-110747097D01*
X133796674Y-111255311D01*
X133839486Y-111467429D01*
X133884587Y-111686563D01*
X133930950Y-111908051D01*
X133977549Y-112127233D01*
X134023359Y-112339447D01*
X134067354Y-112540032D01*
X134108508Y-112724326D01*
X134145794Y-112887669D01*
X134178187Y-113025398D01*
X134204662Y-113132852D01*
X134224192Y-113205371D01*
X134229916Y-113223811D01*
X134244497Y-113272900D01*
X134266567Y-113354126D01*
X134293758Y-113458456D01*
X134323702Y-113576858D01*
X134343677Y-113657727D01*
X134674949Y-114936203D01*
X135046455Y-116227159D01*
X135458078Y-117530267D01*
X135909702Y-118845201D01*
X136401210Y-120171635D01*
X136932486Y-121509241D01*
X137503414Y-122857693D01*
X138081550Y-124146589D01*
X138260081Y-124530716D01*
X138447221Y-124926962D01*
X138640343Y-125330048D01*
X138836823Y-125734696D01*
X139034036Y-126135627D01*
X139229357Y-126527562D01*
X139420162Y-126905221D01*
X139603825Y-127263326D01*
X139777722Y-127596598D01*
X139939228Y-127899758D01*
X140037856Y-128080961D01*
X140153688Y-128293777D01*
X140248587Y-128473076D01*
X140323731Y-128621439D01*
X140380299Y-128741450D01*
X140419469Y-128835690D01*
X140442419Y-128906742D01*
X140450328Y-128957188D01*
X140448043Y-128979843D01*
X140432808Y-129008663D01*
X140400784Y-129020608D01*
X140342812Y-129017415D01*
X140293076Y-129009197D01*
X140270291Y-128992712D01*
X140218469Y-128946652D01*
X140138237Y-128871641D01*
X140030220Y-128768308D01*
X139895046Y-128637278D01*
X139733339Y-128479179D01*
X139545727Y-128294637D01*
X139332835Y-128084278D01*
X139095290Y-127848730D01*
X138833718Y-127588619D01*
X138548745Y-127304572D01*
X138240997Y-126997215D01*
X137911101Y-126667176D01*
X137559682Y-126315080D01*
X137187368Y-125941555D01*
X136794783Y-125547227D01*
X136382554Y-125132723D01*
X135951308Y-124698670D01*
X135501671Y-124245694D01*
X135034268Y-123774422D01*
X134549727Y-123285480D01*
X134048672Y-122779496D01*
X133531731Y-122257096D01*
X132999529Y-121718907D01*
X132452694Y-121165555D01*
X132197608Y-120907311D01*
X131861497Y-120567014D01*
X131526765Y-120228170D01*
X131195129Y-119892510D01*
X130868303Y-119561769D01*
X130548000Y-119237681D01*
X130235936Y-118921977D01*
X129933824Y-118616392D01*
X129643379Y-118322660D01*
X129366317Y-118042513D01*
X129104350Y-117777684D01*
X128859193Y-117529909D01*
X128632561Y-117300919D01*
X128426168Y-117092448D01*
X128241729Y-116906230D01*
X128080958Y-116743998D01*
X127945570Y-116607485D01*
X127837278Y-116498424D01*
X127790491Y-116451377D01*
X126958076Y-115614943D01*
X126958076Y-114770248D01*
X126961781Y-114293181D01*
X126972717Y-113777672D01*
X126990609Y-113226946D01*
X127015186Y-112644223D01*
X127046176Y-112032727D01*
X127083306Y-111395680D01*
X127126304Y-110736304D01*
X127174897Y-110057823D01*
X127228813Y-109363458D01*
X127287780Y-108656431D01*
X127351526Y-107939966D01*
X127419777Y-107217285D01*
X127492262Y-106491610D01*
X127568709Y-105766164D01*
X127648844Y-105044169D01*
X127732396Y-104328847D01*
X127819092Y-103623422D01*
X127908660Y-102931115D01*
X128000828Y-102255150D01*
X128038052Y-101992224D01*
X128171157Y-101101784D01*
X128319669Y-100180930D01*
X128481996Y-99238020D01*
X128656547Y-98281410D01*
X128841729Y-97319458D01*
X129035949Y-96360519D01*
X129237617Y-95412952D01*
X129445140Y-94485113D01*
X129571891Y-93940977D01*
X129925048Y-92504070D01*
X130296467Y-91101190D01*
X130686016Y-89732632D01*
X131093560Y-88398692D01*
X131518966Y-87099666D01*
X131962100Y-85835850D01*
X132422829Y-84607540D01*
X132901019Y-83415032D01*
X133396536Y-82258622D01*
X133909247Y-81138606D01*
X134439019Y-80055280D01*
X134985717Y-79008940D01*
X135549209Y-77999882D01*
X136129359Y-77028401D01*
X136726036Y-76094794D01*
X137339105Y-75199357D01*
X137968433Y-74342386D01*
X138613886Y-73524176D01*
X138992893Y-73070644D01*
X139169978Y-72864825D01*
X139338245Y-72672915D01*
X139503257Y-72488947D01*
X139670578Y-72306956D01*
X139845772Y-72120975D01*
X140034404Y-71925039D01*
X140242036Y-71713182D01*
X140474233Y-71479438D01*
X140514057Y-71439588D01*
X140978783Y-70982701D01*
X141426432Y-70559263D01*
X141861256Y-70166155D01*
X142287511Y-69800259D01*
X142709448Y-69458458D01*
X143131322Y-69137633D01*
X143557387Y-68834667D01*
X143991895Y-68546441D01*
X144439100Y-68269837D01*
X144903256Y-68001738D01*
X145388616Y-67739025D01*
X145899434Y-67478580D01*
X145955159Y-67451021D01*
X146108982Y-67375764D01*
X146267412Y-67299324D01*
X146421309Y-67226035D01*
X146561531Y-67160232D01*
X146678938Y-67106247D01*
X146738326Y-67079706D01*
X147556784Y-66742990D01*
X148388040Y-66445866D01*
X149232915Y-66188133D01*
X150092233Y-65969588D01*
X150966815Y-65790029D01*
X151857484Y-65649253D01*
X152765061Y-65547060D01*
X153077743Y-65521059D01*
X153231529Y-65511821D01*
X153420543Y-65504399D01*
X153638118Y-65498770D01*
X153877583Y-65494909D01*
X154132273Y-65492790D01*
X154395518Y-65492390D01*
X154660651Y-65493683D01*
G37*
X154660651Y-65493683D02*
X154921003Y-65496646D01*
X155169907Y-65501253D01*
X155400693Y-65507480D01*
X155606696Y-65515302D01*
X155781245Y-65524695D01*
X155871743Y-65531381D01*
X156694594Y-65615636D01*
X157489953Y-65727113D01*
X158263815Y-65867133D01*
X159022172Y-66037018D01*
X159771019Y-66238089D01*
X160516348Y-66471667D01*
X161142243Y-66693272D01*
X161963677Y-67021094D01*
X162765505Y-67385863D01*
X163548506Y-67788024D01*
X164313462Y-68228026D01*
X165061152Y-68706314D01*
X165792356Y-69223335D01*
X166451865Y-69734146D01*
X166572558Y-69831453D01*
X166689405Y-69925310D01*
X166796102Y-70010680D01*
X166886346Y-70082526D01*
X166953833Y-70135812D01*
X166981032Y-70156972D01*
X167088249Y-70243523D01*
X167220344Y-70356878D01*
X167373147Y-70493042D01*
X167542490Y-70648023D01*
X167724203Y-70817827D01*
X167914118Y-70998461D01*
X168108067Y-71185932D01*
X168301880Y-71376245D01*
X168491389Y-71565407D01*
X168672424Y-71749426D01*
X168840818Y-71924307D01*
X168973909Y-72066039D01*
X169663207Y-72839098D01*
X170335375Y-73650720D01*
X170990318Y-74500712D01*
X171627944Y-75388885D01*
X172248160Y-76315046D01*
X172850873Y-77279005D01*
X173435990Y-78280570D01*
X174003417Y-79319550D01*
X174553062Y-80395755D01*
X175084832Y-81508992D01*
X175598633Y-82659071D01*
X176094373Y-83845800D01*
X176571958Y-85068989D01*
X177031295Y-86328445D01*
X177472291Y-87623979D01*
X177894854Y-88955399D01*
X178298889Y-90322513D01*
X178684305Y-91725131D01*
X178845252Y-92342894D01*
X179175791Y-93678956D01*
X179491500Y-95048945D01*
X179791303Y-96446751D01*
X180074125Y-97866266D01*
X180338888Y-99301379D01*
X180584518Y-100745981D01*
X180809938Y-102193962D01*
X181014072Y-103639213D01*
X181195843Y-105075624D01*
X181354177Y-106497085D01*
X181376489Y-106715061D01*
X181442005Y-107381989D01*
X181500515Y-108019792D01*
X181552596Y-108637095D01*
X181598825Y-109242519D01*
X181639778Y-109844690D01*
X181676031Y-110452230D01*
X181708160Y-111073764D01*
X181736742Y-111717914D01*
X181762354Y-112393306D01*
X181769059Y-112588811D01*
X181781720Y-112960175D01*
X181793533Y-113293233D01*
X181804697Y-113592001D01*
X181815408Y-113860492D01*
X181825866Y-114102722D01*
X181836267Y-114322705D01*
X181846808Y-114524456D01*
X181857689Y-114711989D01*
X181869106Y-114889321D01*
X181881257Y-115060464D01*
X181894340Y-115229434D01*
X181906066Y-115371117D01*
X181924850Y-115592257D01*
X181547337Y-115984951D01*
X181500107Y-116033457D01*
X181425024Y-116109723D01*
X181323297Y-116212542D01*
X181196137Y-116340706D01*
X181044751Y-116493006D01*
X180870350Y-116668235D01*
X180674143Y-116865186D01*
X180457340Y-117082650D01*
X180221149Y-117319419D01*
X179966781Y-117574286D01*
X179695444Y-117846044D01*
X179408348Y-118133483D01*
X179106703Y-118435396D01*
X178791718Y-118750576D01*
X178464602Y-119077815D01*
X178126565Y-119415905D01*
X177778816Y-119763637D01*
X177422565Y-120119805D01*
X177059020Y-120483200D01*
X176689392Y-120852615D01*
X176314889Y-121226842D01*
X175936722Y-121604673D01*
X175556099Y-121984899D01*
X175174231Y-122366315D01*
X174792325Y-122747710D01*
X174411593Y-123127879D01*
X174033242Y-123505612D01*
X173658483Y-123879703D01*
X173288526Y-124248943D01*
X172924578Y-124612124D01*
X172567851Y-124968039D01*
X172219552Y-125315480D01*
X171880893Y-125653238D01*
X171553081Y-125980108D01*
X171237327Y-126294879D01*
X170934839Y-126596345D01*
X170646828Y-126883298D01*
X170374503Y-127154530D01*
X170119072Y-127408833D01*
X169881746Y-127644999D01*
X169663734Y-127861821D01*
X169466246Y-128058091D01*
X169290490Y-128232600D01*
X169137676Y-128384142D01*
X169009013Y-128511508D01*
X168905712Y-128613490D01*
X168828981Y-128688881D01*
X168780030Y-128736473D01*
X168761974Y-128753463D01*
X168652386Y-128842261D01*
X168563636Y-128896918D01*
X168496466Y-128917179D01*
X168451619Y-128902789D01*
X168432435Y-128866642D01*
X168429952Y-128839533D01*
X168435160Y-128802997D01*
X168449442Y-128754089D01*
X168474183Y-128689867D01*
X168510767Y-128607389D01*
X168560577Y-128503711D01*
X168624998Y-128375892D01*
X168705415Y-128220988D01*
X168803210Y-128036057D01*
X168919767Y-127818156D01*
X168966078Y-127732022D01*
X169540377Y-126642315D01*
X170082058Y-125567079D01*
X170594598Y-124498665D01*
X171081475Y-123429429D01*
X171546167Y-122351723D01*
X171992152Y-121257900D01*
X172422908Y-120140314D01*
X172440849Y-120092394D01*
X172823336Y-119039764D01*
X173186442Y-117980151D01*
X173529422Y-116916657D01*
X173851530Y-115852386D01*
X174152022Y-114790441D01*
X174430152Y-113733927D01*
X174685174Y-112685947D01*
X174916343Y-111649605D01*
X175122914Y-110628003D01*
X175304142Y-109624247D01*
X175459281Y-108641439D01*
X175587585Y-107682684D01*
X175688310Y-106751084D01*
X175714438Y-106461061D01*
X175740135Y-106153951D01*
X175762816Y-105866466D01*
X175782656Y-105593731D01*
X175799829Y-105330873D01*
X175814510Y-105073020D01*
X175826873Y-104815298D01*
X175837093Y-104552835D01*
X175845344Y-104280759D01*
X175851801Y-103994195D01*
X175856638Y-103688271D01*
X175860029Y-103358114D01*
X175862148Y-102998851D01*
X175863172Y-102605610D01*
X175863328Y-102301811D01*
X175863139Y-101952692D01*
X175862626Y-101641035D01*
X175861666Y-101361969D01*
X175860138Y-101110624D01*
X175857919Y-100882128D01*
X175854887Y-100671612D01*
X175850920Y-100474203D01*
X175845896Y-100285032D01*
X175839693Y-100099228D01*
X175832188Y-99911919D01*
X175823259Y-99718236D01*
X175812784Y-99513306D01*
X175800642Y-99292260D01*
X175786709Y-99050227D01*
X175778130Y-98904561D01*
X175685605Y-97584946D01*
X175565627Y-96284324D01*
X175418476Y-95003949D01*
X175244431Y-93745076D01*
X175043772Y-92508962D01*
X174816778Y-91296862D01*
X174563728Y-90110031D01*
X174284902Y-88949726D01*
X173980579Y-87817201D01*
X173651040Y-86713712D01*
X173296562Y-85640515D01*
X172917426Y-84598865D01*
X172513912Y-83590018D01*
X172216447Y-82902561D01*
X171924764Y-82270833D01*
X171614356Y-81638332D01*
X171287569Y-81008810D01*
X170946745Y-80386018D01*
X170594229Y-79773706D01*
X170232364Y-79175625D01*
X169863496Y-78595528D01*
X169489967Y-78037165D01*
X169114121Y-77504288D01*
X168738303Y-77000647D01*
X168364857Y-76529993D01*
X167996127Y-76096079D01*
X167886772Y-75973624D01*
X167452668Y-75501150D01*
X167034519Y-75062350D01*
X166628324Y-74653562D01*
X166230082Y-74271127D01*
X165835792Y-73911382D01*
X165441454Y-73570668D01*
X165043067Y-73245322D01*
X164636630Y-72931685D01*
X164264746Y-72659327D01*
X163557338Y-72178299D01*
X162836517Y-71737402D01*
X162102213Y-71336614D01*
X161354360Y-70975914D01*
X160592888Y-70655280D01*
X159817730Y-70374690D01*
X159028819Y-70134122D01*
X158226085Y-69933556D01*
X157409460Y-69772969D01*
X156578877Y-69652339D01*
X155734268Y-69571645D01*
X154875565Y-69530866D01*
X154413431Y-69525430D01*
X153546913Y-69544869D01*
X152697715Y-69602643D01*
X151864920Y-69699049D01*
X151047608Y-69834382D01*
X150244860Y-70008939D01*
X149455757Y-70223016D01*
X148679381Y-70476908D01*
X147914812Y-70770913D01*
X147161131Y-71105326D01*
X146417420Y-71480444D01*
X145682759Y-71896562D01*
X144956230Y-72353976D01*
X144357026Y-72766423D01*
X144057783Y-72988738D01*
X143738547Y-73241196D01*
X143403873Y-73519450D01*
X143058316Y-73819154D01*
X142706431Y-74135962D01*
X142352771Y-74465526D01*
X142001893Y-74803499D01*
X141658351Y-75145536D01*
X141326699Y-75487290D01*
X141011492Y-75824414D01*
X140717285Y-76152561D01*
X140448632Y-76467385D01*
X140340891Y-76599082D01*
X139760965Y-77348667D01*
X139200518Y-78134854D01*
X138660379Y-78956243D01*
X138141373Y-79811433D01*
X137644329Y-80699024D01*
X137170074Y-81617615D01*
X136719434Y-82565807D01*
X136429377Y-83221032D01*
X136014922Y-84230131D01*
X135624644Y-85273080D01*
X135258845Y-86348767D01*
X134917831Y-87456082D01*
X134601905Y-88593913D01*
X134311371Y-89761151D01*
X134046533Y-90956683D01*
X133807695Y-92179400D01*
X133595162Y-93428190D01*
X133542031Y-93771644D01*
X133473669Y-94231828D01*
X133411032Y-94673059D01*
X133353895Y-95098877D01*
X133302033Y-95512821D01*
X133255221Y-95918432D01*
X133213234Y-96319250D01*
X133175847Y-96718814D01*
X133142835Y-97120665D01*
X133113972Y-97528342D01*
X133089033Y-97945387D01*
X133067794Y-98375338D01*
X133050029Y-98821736D01*
X133035513Y-99288121D01*
X133024022Y-99778032D01*
X133015330Y-100295011D01*
X133009211Y-100842597D01*
X133005441Y-101424330D01*
X133003795Y-102043749D01*
X133003682Y-102238311D01*
X133004534Y-102841438D01*
X133007334Y-103404561D01*
X133012174Y-103929969D01*
X133019142Y-104419949D01*
X133028330Y-104876791D01*
X133039826Y-105302783D01*
X133053720Y-105700213D01*
X133070103Y-106071369D01*
X133089064Y-106418541D01*
X133110694Y-106744016D01*
X133135082Y-107050083D01*
X133162318Y-107339031D01*
X133192492Y-107613147D01*
X133224870Y-107868644D01*
X133301349Y-108407491D01*
X133388733Y-108975731D01*
X133485170Y-109562393D01*
X133588806Y-110156506D01*
X133697791Y-110747097D01*
X133796674Y-111255311D01*
X133839486Y-111467429D01*
X133884587Y-111686563D01*
X133930950Y-111908051D01*
X133977549Y-112127233D01*
X134023359Y-112339447D01*
X134067354Y-112540032D01*
X134108508Y-112724326D01*
X134145794Y-112887669D01*
X134178187Y-113025398D01*
X134204662Y-113132852D01*
X134224192Y-113205371D01*
X134229916Y-113223811D01*
X134244497Y-113272900D01*
X134266567Y-113354126D01*
X134293758Y-113458456D01*
X134323702Y-113576858D01*
X134343677Y-113657727D01*
X134674949Y-114936203D01*
X135046455Y-116227159D01*
X135458078Y-117530267D01*
X135909702Y-118845201D01*
X136401210Y-120171635D01*
X136932486Y-121509241D01*
X137503414Y-122857693D01*
X138081550Y-124146589D01*
X138260081Y-124530716D01*
X138447221Y-124926962D01*
X138640343Y-125330048D01*
X138836823Y-125734696D01*
X139034036Y-126135627D01*
X139229357Y-126527562D01*
X139420162Y-126905221D01*
X139603825Y-127263326D01*
X139777722Y-127596598D01*
X139939228Y-127899758D01*
X140037856Y-128080961D01*
X140153688Y-128293777D01*
X140248587Y-128473076D01*
X140323731Y-128621439D01*
X140380299Y-128741450D01*
X140419469Y-128835690D01*
X140442419Y-128906742D01*
X140450328Y-128957188D01*
X140448043Y-128979843D01*
X140432808Y-129008663D01*
X140400784Y-129020608D01*
X140342812Y-129017415D01*
X140293076Y-129009197D01*
X140270291Y-128992712D01*
X140218469Y-128946652D01*
X140138237Y-128871641D01*
X140030220Y-128768308D01*
X139895046Y-128637278D01*
X139733339Y-128479179D01*
X139545727Y-128294637D01*
X139332835Y-128084278D01*
X139095290Y-127848730D01*
X138833718Y-127588619D01*
X138548745Y-127304572D01*
X138240997Y-126997215D01*
X137911101Y-126667176D01*
X137559682Y-126315080D01*
X137187368Y-125941555D01*
X136794783Y-125547227D01*
X136382554Y-125132723D01*
X135951308Y-124698670D01*
X135501671Y-124245694D01*
X135034268Y-123774422D01*
X134549727Y-123285480D01*
X134048672Y-122779496D01*
X133531731Y-122257096D01*
X132999529Y-121718907D01*
X132452694Y-121165555D01*
X132197608Y-120907311D01*
X131861497Y-120567014D01*
X131526765Y-120228170D01*
X131195129Y-119892510D01*
X130868303Y-119561769D01*
X130548000Y-119237681D01*
X130235936Y-118921977D01*
X129933824Y-118616392D01*
X129643379Y-118322660D01*
X129366317Y-118042513D01*
X129104350Y-117777684D01*
X128859193Y-117529909D01*
X128632561Y-117300919D01*
X128426168Y-117092448D01*
X128241729Y-116906230D01*
X128080958Y-116743998D01*
X127945570Y-116607485D01*
X127837278Y-116498424D01*
X127790491Y-116451377D01*
X126958076Y-115614943D01*
X126958076Y-114770248D01*
X126961781Y-114293181D01*
X126972717Y-113777672D01*
X126990609Y-113226946D01*
X127015186Y-112644223D01*
X127046176Y-112032727D01*
X127083306Y-111395680D01*
X127126304Y-110736304D01*
X127174897Y-110057823D01*
X127228813Y-109363458D01*
X127287780Y-108656431D01*
X127351526Y-107939966D01*
X127419777Y-107217285D01*
X127492262Y-106491610D01*
X127568709Y-105766164D01*
X127648844Y-105044169D01*
X127732396Y-104328847D01*
X127819092Y-103623422D01*
X127908660Y-102931115D01*
X128000828Y-102255150D01*
X128038052Y-101992224D01*
X128171157Y-101101784D01*
X128319669Y-100180930D01*
X128481996Y-99238020D01*
X128656547Y-98281410D01*
X128841729Y-97319458D01*
X129035949Y-96360519D01*
X129237617Y-95412952D01*
X129445140Y-94485113D01*
X129571891Y-93940977D01*
X129925048Y-92504070D01*
X130296467Y-91101190D01*
X130686016Y-89732632D01*
X131093560Y-88398692D01*
X131518966Y-87099666D01*
X131962100Y-85835850D01*
X132422829Y-84607540D01*
X132901019Y-83415032D01*
X133396536Y-82258622D01*
X133909247Y-81138606D01*
X134439019Y-80055280D01*
X134985717Y-79008940D01*
X135549209Y-77999882D01*
X136129359Y-77028401D01*
X136726036Y-76094794D01*
X137339105Y-75199357D01*
X137968433Y-74342386D01*
X138613886Y-73524176D01*
X138992893Y-73070644D01*
X139169978Y-72864825D01*
X139338245Y-72672915D01*
X139503257Y-72488947D01*
X139670578Y-72306956D01*
X139845772Y-72120975D01*
X140034404Y-71925039D01*
X140242036Y-71713182D01*
X140474233Y-71479438D01*
X140514057Y-71439588D01*
X140978783Y-70982701D01*
X141426432Y-70559263D01*
X141861256Y-70166155D01*
X142287511Y-69800259D01*
X142709448Y-69458458D01*
X143131322Y-69137633D01*
X143557387Y-68834667D01*
X143991895Y-68546441D01*
X144439100Y-68269837D01*
X144903256Y-68001738D01*
X145388616Y-67739025D01*
X145899434Y-67478580D01*
X145955159Y-67451021D01*
X146108982Y-67375764D01*
X146267412Y-67299324D01*
X146421309Y-67226035D01*
X146561531Y-67160232D01*
X146678938Y-67106247D01*
X146738326Y-67079706D01*
X147556784Y-66742990D01*
X148388040Y-66445866D01*
X149232915Y-66188133D01*
X150092233Y-65969588D01*
X150966815Y-65790029D01*
X151857484Y-65649253D01*
X152765061Y-65547060D01*
X153077743Y-65521059D01*
X153231529Y-65511821D01*
X153420543Y-65504399D01*
X153638118Y-65498770D01*
X153877583Y-65494909D01*
X154132273Y-65492790D01*
X154395518Y-65492390D01*
X154660651Y-65493683D01*
G36*
X154173899Y-126152350D02*
G01*
X154499879Y-126154144D01*
X154786366Y-126155930D01*
X155036199Y-126157846D01*
X155252220Y-126160028D01*
X155437267Y-126162614D01*
X155594182Y-126165741D01*
X155725803Y-126169545D01*
X155834971Y-126174164D01*
X155924527Y-126179734D01*
X155997309Y-126186393D01*
X156056158Y-126194278D01*
X156103915Y-126203525D01*
X156143418Y-126214272D01*
X156177509Y-126226655D01*
X156209026Y-126240813D01*
X156230513Y-126251561D01*
X156291440Y-126286577D01*
X156341129Y-126326146D01*
X156381812Y-126375601D01*
X156415723Y-126440275D01*
X156445094Y-126525502D01*
X156472158Y-126636614D01*
X156499148Y-126778945D01*
X156528296Y-126957827D01*
X156529526Y-126965735D01*
X156552306Y-127108613D01*
X156578428Y-127266129D01*
X156606492Y-127430415D01*
X156635099Y-127593605D01*
X156662849Y-127747832D01*
X156688341Y-127885229D01*
X156710176Y-127997929D01*
X156726953Y-128078065D01*
X156729253Y-128088102D01*
X156740382Y-128135727D01*
X154988437Y-128132224D01*
X154709227Y-128131493D01*
X154434552Y-128130447D01*
X154168468Y-128129118D01*
X153915030Y-128127543D01*
X153678296Y-128125754D01*
X153462321Y-128123788D01*
X153271160Y-128121679D01*
X153108869Y-128119460D01*
X152979506Y-128117168D01*
X152887124Y-128114837D01*
X152866076Y-128114090D01*
X152683724Y-128106042D01*
X152538421Y-128097459D01*
X152424883Y-128087665D01*
X152337825Y-128075988D01*
X152271964Y-128061754D01*
X152222015Y-128044289D01*
X152190743Y-128028016D01*
X152157181Y-128003574D01*
X152136156Y-127974038D01*
X152127163Y-127932121D01*
X152129696Y-127870535D01*
X152143249Y-127781990D01*
X152165701Y-127667099D01*
X152179753Y-127593557D01*
X152199025Y-127485832D01*
X152222217Y-127351566D01*
X152248025Y-127198404D01*
X152275148Y-127033990D01*
X152302284Y-126865967D01*
X152304010Y-126855144D01*
X152329345Y-126696804D01*
X152352971Y-126550247D01*
X152373951Y-126421205D01*
X152391348Y-126315409D01*
X152404223Y-126238589D01*
X152411638Y-126196477D01*
X152412500Y-126192177D01*
X152423140Y-126143043D01*
X154173899Y-126152350D01*
G37*
X154173899Y-126152350D02*
X154499879Y-126154144D01*
X154786366Y-126155930D01*
X155036199Y-126157846D01*
X155252220Y-126160028D01*
X155437267Y-126162614D01*
X155594182Y-126165741D01*
X155725803Y-126169545D01*
X155834971Y-126174164D01*
X155924527Y-126179734D01*
X155997309Y-126186393D01*
X156056158Y-126194278D01*
X156103915Y-126203525D01*
X156143418Y-126214272D01*
X156177509Y-126226655D01*
X156209026Y-126240813D01*
X156230513Y-126251561D01*
X156291440Y-126286577D01*
X156341129Y-126326146D01*
X156381812Y-126375601D01*
X156415723Y-126440275D01*
X156445094Y-126525502D01*
X156472158Y-126636614D01*
X156499148Y-126778945D01*
X156528296Y-126957827D01*
X156529526Y-126965735D01*
X156552306Y-127108613D01*
X156578428Y-127266129D01*
X156606492Y-127430415D01*
X156635099Y-127593605D01*
X156662849Y-127747832D01*
X156688341Y-127885229D01*
X156710176Y-127997929D01*
X156726953Y-128078065D01*
X156729253Y-128088102D01*
X156740382Y-128135727D01*
X154988437Y-128132224D01*
X154709227Y-128131493D01*
X154434552Y-128130447D01*
X154168468Y-128129118D01*
X153915030Y-128127543D01*
X153678296Y-128125754D01*
X153462321Y-128123788D01*
X153271160Y-128121679D01*
X153108869Y-128119460D01*
X152979506Y-128117168D01*
X152887124Y-128114837D01*
X152866076Y-128114090D01*
X152683724Y-128106042D01*
X152538421Y-128097459D01*
X152424883Y-128087665D01*
X152337825Y-128075988D01*
X152271964Y-128061754D01*
X152222015Y-128044289D01*
X152190743Y-128028016D01*
X152157181Y-128003574D01*
X152136156Y-127974038D01*
X152127163Y-127932121D01*
X152129696Y-127870535D01*
X152143249Y-127781990D01*
X152165701Y-127667099D01*
X152179753Y-127593557D01*
X152199025Y-127485832D01*
X152222217Y-127351566D01*
X152248025Y-127198404D01*
X152275148Y-127033990D01*
X152302284Y-126865967D01*
X152304010Y-126855144D01*
X152329345Y-126696804D01*
X152352971Y-126550247D01*
X152373951Y-126421205D01*
X152391348Y-126315409D01*
X152404223Y-126238589D01*
X152411638Y-126196477D01*
X152412500Y-126192177D01*
X152423140Y-126143043D01*
X154173899Y-126152350D01*
G36*
X155772924Y-122521269D02*
G01*
X155795539Y-122644177D01*
X155822377Y-122794103D01*
X155850837Y-122956282D01*
X155878319Y-123115953D01*
X155893170Y-123203894D01*
X155917334Y-123344980D01*
X155942758Y-123487777D01*
X155967302Y-123620650D01*
X155988827Y-123731962D01*
X156001533Y-123793512D01*
X156021540Y-123896964D01*
X156029589Y-123980008D01*
X156021985Y-124045120D01*
X155995035Y-124094779D01*
X155945045Y-124131461D01*
X155868318Y-124157644D01*
X155761163Y-124175806D01*
X155619883Y-124188423D01*
X155440785Y-124197975D01*
X155395493Y-124199929D01*
X155178148Y-124207083D01*
X154928928Y-124211894D01*
X154658223Y-124214371D01*
X154376427Y-124214523D01*
X154093931Y-124212358D01*
X153821127Y-124207885D01*
X153568408Y-124201113D01*
X153490493Y-124198348D01*
X153305813Y-124189417D01*
X153158801Y-124177364D01*
X153044832Y-124160930D01*
X152959283Y-124138854D01*
X152897527Y-124109875D01*
X152854942Y-124072733D01*
X152826902Y-124026167D01*
X152822925Y-124016380D01*
X152817250Y-123975210D01*
X152819049Y-123899892D01*
X152828459Y-123789281D01*
X152845622Y-123642231D01*
X152870674Y-123457597D01*
X152903756Y-123234233D01*
X152945007Y-122970993D01*
X152964626Y-122849352D01*
X153065198Y-122230227D01*
X155718221Y-122230227D01*
X155772924Y-122521269D01*
G37*
X155772924Y-122521269D02*
X155795539Y-122644177D01*
X155822377Y-122794103D01*
X155850837Y-122956282D01*
X155878319Y-123115953D01*
X155893170Y-123203894D01*
X155917334Y-123344980D01*
X155942758Y-123487777D01*
X155967302Y-123620650D01*
X155988827Y-123731962D01*
X156001533Y-123793512D01*
X156021540Y-123896964D01*
X156029589Y-123980008D01*
X156021985Y-124045120D01*
X155995035Y-124094779D01*
X155945045Y-124131461D01*
X155868318Y-124157644D01*
X155761163Y-124175806D01*
X155619883Y-124188423D01*
X155440785Y-124197975D01*
X155395493Y-124199929D01*
X155178148Y-124207083D01*
X154928928Y-124211894D01*
X154658223Y-124214371D01*
X154376427Y-124214523D01*
X154093931Y-124212358D01*
X153821127Y-124207885D01*
X153568408Y-124201113D01*
X153490493Y-124198348D01*
X153305813Y-124189417D01*
X153158801Y-124177364D01*
X153044832Y-124160930D01*
X152959283Y-124138854D01*
X152897527Y-124109875D01*
X152854942Y-124072733D01*
X152826902Y-124026167D01*
X152822925Y-124016380D01*
X152817250Y-123975210D01*
X152819049Y-123899892D01*
X152828459Y-123789281D01*
X152845622Y-123642231D01*
X152870674Y-123457597D01*
X152903756Y-123234233D01*
X152945007Y-122970993D01*
X152964626Y-122849352D01*
X153065198Y-122230227D01*
X155718221Y-122230227D01*
X155772924Y-122521269D01*
G36*
X154739084Y-116285680D02*
G01*
X154743843Y-116307441D01*
X154754757Y-116367341D01*
X154771212Y-116461728D01*
X154792592Y-116586955D01*
X154818282Y-116739370D01*
X154847667Y-116915324D01*
X154880132Y-117111167D01*
X154915060Y-117323250D01*
X154950900Y-117542174D01*
X155017172Y-117947222D01*
X155077223Y-118312208D01*
X155131352Y-118638901D01*
X155179861Y-118929068D01*
X155223050Y-119184475D01*
X155261220Y-119406890D01*
X155294670Y-119598080D01*
X155323702Y-119759811D01*
X155348616Y-119893852D01*
X155366198Y-119984415D01*
X155387297Y-120101666D01*
X155395294Y-120186168D01*
X155388608Y-120245905D01*
X155365661Y-120288862D01*
X155324875Y-120323023D01*
X155295869Y-120340084D01*
X155273896Y-120350309D01*
X155246270Y-120358594D01*
X155208485Y-120365171D01*
X155156036Y-120370275D01*
X155084419Y-120374137D01*
X154989129Y-120376990D01*
X154865661Y-120379069D01*
X154709512Y-120380604D01*
X154516177Y-120381830D01*
X154485326Y-120381993D01*
X154309185Y-120382403D01*
X154143907Y-120381827D01*
X153994917Y-120380357D01*
X153867641Y-120378084D01*
X153767504Y-120375100D01*
X153699932Y-120371498D01*
X153672969Y-120368233D01*
X153604818Y-120348546D01*
X153550809Y-120323814D01*
X153510186Y-120289781D01*
X153482193Y-120242191D01*
X153466073Y-120176789D01*
X153461071Y-120089318D01*
X153466430Y-119975522D01*
X153481395Y-119831147D01*
X153505209Y-119651936D01*
X153523379Y-119526270D01*
X153545157Y-119381769D01*
X153572311Y-119207220D01*
X153603792Y-119008940D01*
X153638550Y-118793248D01*
X153675538Y-118566461D01*
X153713707Y-118334895D01*
X153752008Y-118104869D01*
X153789393Y-117882701D01*
X153824813Y-117674707D01*
X153857220Y-117487206D01*
X153885564Y-117326514D01*
X153908798Y-117198950D01*
X153916005Y-117160811D01*
X153958382Y-116951432D01*
X153998423Y-116780381D01*
X154037610Y-116643823D01*
X154077424Y-116537927D01*
X154119350Y-116458857D01*
X154164867Y-116402781D01*
X154215460Y-116365865D01*
X154225312Y-116360916D01*
X154266995Y-116347747D01*
X154335439Y-116332760D01*
X154420491Y-116317443D01*
X154511994Y-116303281D01*
X154599794Y-116291763D01*
X154673737Y-116284374D01*
X154723666Y-116282604D01*
X154739084Y-116285680D01*
G37*
X154739084Y-116285680D02*
X154743843Y-116307441D01*
X154754757Y-116367341D01*
X154771212Y-116461728D01*
X154792592Y-116586955D01*
X154818282Y-116739370D01*
X154847667Y-116915324D01*
X154880132Y-117111167D01*
X154915060Y-117323250D01*
X154950900Y-117542174D01*
X155017172Y-117947222D01*
X155077223Y-118312208D01*
X155131352Y-118638901D01*
X155179861Y-118929068D01*
X155223050Y-119184475D01*
X155261220Y-119406890D01*
X155294670Y-119598080D01*
X155323702Y-119759811D01*
X155348616Y-119893852D01*
X155366198Y-119984415D01*
X155387297Y-120101666D01*
X155395294Y-120186168D01*
X155388608Y-120245905D01*
X155365661Y-120288862D01*
X155324875Y-120323023D01*
X155295869Y-120340084D01*
X155273896Y-120350309D01*
X155246270Y-120358594D01*
X155208485Y-120365171D01*
X155156036Y-120370275D01*
X155084419Y-120374137D01*
X154989129Y-120376990D01*
X154865661Y-120379069D01*
X154709512Y-120380604D01*
X154516177Y-120381830D01*
X154485326Y-120381993D01*
X154309185Y-120382403D01*
X154143907Y-120381827D01*
X153994917Y-120380357D01*
X153867641Y-120378084D01*
X153767504Y-120375100D01*
X153699932Y-120371498D01*
X153672969Y-120368233D01*
X153604818Y-120348546D01*
X153550809Y-120323814D01*
X153510186Y-120289781D01*
X153482193Y-120242191D01*
X153466073Y-120176789D01*
X153461071Y-120089318D01*
X153466430Y-119975522D01*
X153481395Y-119831147D01*
X153505209Y-119651936D01*
X153523379Y-119526270D01*
X153545157Y-119381769D01*
X153572311Y-119207220D01*
X153603792Y-119008940D01*
X153638550Y-118793248D01*
X153675538Y-118566461D01*
X153713707Y-118334895D01*
X153752008Y-118104869D01*
X153789393Y-117882701D01*
X153824813Y-117674707D01*
X153857220Y-117487206D01*
X153885564Y-117326514D01*
X153908798Y-117198950D01*
X153916005Y-117160811D01*
X153958382Y-116951432D01*
X153998423Y-116780381D01*
X154037610Y-116643823D01*
X154077424Y-116537927D01*
X154119350Y-116458857D01*
X154164867Y-116402781D01*
X154215460Y-116365865D01*
X154225312Y-116360916D01*
X154266995Y-116347747D01*
X154335439Y-116332760D01*
X154420491Y-116317443D01*
X154511994Y-116303281D01*
X154599794Y-116291763D01*
X154673737Y-116284374D01*
X154723666Y-116282604D01*
X154739084Y-116285680D01*
G36*
X141223760Y-86470194D02*
G01*
X141253681Y-86487917D01*
X141291478Y-86519716D01*
X141339769Y-86568375D01*
X141401170Y-86636674D01*
X141478297Y-86727395D01*
X141573768Y-86843321D01*
X141690200Y-86987233D01*
X141820963Y-87150348D01*
X142070216Y-87459736D01*
X142301009Y-87740891D01*
X142519082Y-88000315D01*
X142730172Y-88244511D01*
X142940016Y-88479983D01*
X143154355Y-88713232D01*
X143378924Y-88950762D01*
X143619463Y-89199076D01*
X143711085Y-89292374D01*
X144008321Y-89591161D01*
X144284774Y-89862742D01*
X144546375Y-90112753D01*
X144799055Y-90346826D01*
X145048744Y-90570596D01*
X145150826Y-90659973D01*
X145776377Y-91186417D01*
X146404686Y-91680237D01*
X147034135Y-92140442D01*
X147663103Y-92566041D01*
X148289971Y-92956043D01*
X148913119Y-93309459D01*
X149530929Y-93625297D01*
X150141780Y-93902567D01*
X150744052Y-94140278D01*
X150971659Y-94220483D01*
X151615260Y-94417850D01*
X152262624Y-94573120D01*
X152913367Y-94686328D01*
X153567106Y-94757506D01*
X154223456Y-94786688D01*
X154882032Y-94773907D01*
X155542451Y-94719196D01*
X156204329Y-94622589D01*
X156867280Y-94484119D01*
X157530922Y-94303820D01*
X158194870Y-94081724D01*
X158858739Y-93817865D01*
X159522145Y-93512277D01*
X159604652Y-93471330D01*
X160234892Y-93137950D01*
X160860997Y-92770218D01*
X161483956Y-92367329D01*
X162104761Y-91928479D01*
X162724400Y-91452860D01*
X163343864Y-90939670D01*
X163964142Y-90388101D01*
X164586225Y-89797350D01*
X165211103Y-89166611D01*
X165839765Y-88495079D01*
X166158004Y-88141311D01*
X166260102Y-88025264D01*
X166367645Y-87901116D01*
X166477121Y-87773105D01*
X166585019Y-87645472D01*
X166687827Y-87522455D01*
X166782034Y-87408294D01*
X166864128Y-87307229D01*
X166930599Y-87223499D01*
X166977935Y-87161344D01*
X167002623Y-87125004D01*
X167005409Y-87118183D01*
X167019231Y-87096459D01*
X167056859Y-87051086D01*
X167112534Y-86988713D01*
X167180034Y-86916480D01*
X167270584Y-86825322D01*
X167340672Y-86765822D01*
X167395766Y-86736175D01*
X167441336Y-86734577D01*
X167482849Y-86759223D01*
X167522178Y-86803550D01*
X167565372Y-86872512D01*
X167619613Y-86979765D01*
X167684091Y-87122964D01*
X167757995Y-87299761D01*
X167840515Y-87507811D01*
X167930838Y-87744766D01*
X168028155Y-88008281D01*
X168131654Y-88296009D01*
X168240525Y-88605602D01*
X168353956Y-88934715D01*
X168471138Y-89281001D01*
X168591258Y-89642114D01*
X168713506Y-90015706D01*
X168837072Y-90399432D01*
X168961144Y-90790945D01*
X169084911Y-91187898D01*
X169207563Y-91587945D01*
X169328288Y-91988739D01*
X169414427Y-92279394D01*
X169468401Y-92463646D01*
X169526293Y-92662746D01*
X169587008Y-92872816D01*
X169649453Y-93089981D01*
X169712532Y-93310364D01*
X169775151Y-93530088D01*
X169836217Y-93745278D01*
X169894634Y-93952055D01*
X169949308Y-94146544D01*
X169999146Y-94324869D01*
X170043052Y-94483152D01*
X170079932Y-94617518D01*
X170108693Y-94724089D01*
X170128239Y-94798989D01*
X170137476Y-94838342D01*
X170138076Y-94842803D01*
X170131000Y-94869046D01*
X170110820Y-94930533D01*
X170079108Y-95022800D01*
X170037437Y-95141382D01*
X169987378Y-95281815D01*
X169930505Y-95439635D01*
X169868388Y-95610377D01*
X169851543Y-95656418D01*
X169716396Y-96022815D01*
X169592611Y-96352454D01*
X169478542Y-96648863D01*
X169372545Y-96915570D01*
X169272975Y-97156102D01*
X169178188Y-97373987D01*
X169086537Y-97572754D01*
X168996379Y-97755929D01*
X168906068Y-97927041D01*
X168813959Y-98089617D01*
X168718409Y-98247186D01*
X168617770Y-98403275D01*
X168510400Y-98561411D01*
X168470282Y-98618811D01*
X168358800Y-98775843D01*
X168236769Y-98945241D01*
X168107049Y-99123225D01*
X167972502Y-99306015D01*
X167835988Y-99489829D01*
X167700369Y-99670888D01*
X167568504Y-99845411D01*
X167443256Y-100009618D01*
X167327484Y-100159728D01*
X167224050Y-100291961D01*
X167135815Y-100402537D01*
X167065639Y-100487674D01*
X167016383Y-100543594D01*
X167004619Y-100555561D01*
X166971186Y-100591345D01*
X166918007Y-100652377D01*
X166851755Y-100730830D01*
X166779109Y-100818876D01*
X166760859Y-100841311D01*
X166311290Y-101382124D01*
X165839512Y-101924022D01*
X165350289Y-102462208D01*
X164848385Y-102991886D01*
X164338563Y-103508260D01*
X163825587Y-104006533D01*
X163314219Y-104481908D01*
X162809224Y-104929591D01*
X162315364Y-105344785D01*
X162177041Y-105456719D01*
X161533973Y-105949746D01*
X160886671Y-106400758D01*
X160234830Y-106809891D01*
X159578146Y-107177280D01*
X158916317Y-107503061D01*
X158249039Y-107787370D01*
X157576008Y-108030341D01*
X156896920Y-108232111D01*
X156211473Y-108392815D01*
X155519363Y-108512589D01*
X155257909Y-108546995D01*
X155137202Y-108558471D01*
X154983121Y-108568426D01*
X154804009Y-108576720D01*
X154608205Y-108583212D01*
X154404051Y-108587763D01*
X154199887Y-108590230D01*
X154004055Y-108590475D01*
X153824895Y-108588355D01*
X153670748Y-108583731D01*
X153549955Y-108576462D01*
X153543409Y-108575891D01*
X153353401Y-108554820D01*
X153134028Y-108523637D01*
X152896491Y-108484320D01*
X152651995Y-108438852D01*
X152411742Y-108389213D01*
X152186935Y-108337385D01*
X152167576Y-108332614D01*
X151573589Y-108166429D01*
X150970970Y-107960730D01*
X150362141Y-107716866D01*
X149749525Y-107436186D01*
X149135546Y-107120040D01*
X148522626Y-106769777D01*
X147913188Y-106386748D01*
X147309655Y-105972301D01*
X146714450Y-105527786D01*
X146129997Y-105054552D01*
X145849326Y-104813514D01*
X145393733Y-104403293D01*
X144924931Y-103959471D01*
X144447267Y-103486968D01*
X143965089Y-102990704D01*
X143482744Y-102475600D01*
X143004580Y-101946575D01*
X142534946Y-101408550D01*
X142078187Y-100866444D01*
X141638653Y-100325178D01*
X141220691Y-99789672D01*
X140828648Y-99264846D01*
X140466872Y-98755619D01*
X140365975Y-98608227D01*
X140143584Y-98266494D01*
X139943465Y-97928217D01*
X139760018Y-97582688D01*
X139587643Y-97219195D01*
X139420739Y-96827029D01*
X139375481Y-96713811D01*
X139298557Y-96515215D01*
X139220195Y-96306021D01*
X139142116Y-96091357D01*
X139066039Y-95876355D01*
X138993686Y-95666142D01*
X138926776Y-95465851D01*
X138867029Y-95280610D01*
X138816167Y-95115548D01*
X138775909Y-94975797D01*
X138747975Y-94866486D01*
X138736076Y-94807109D01*
X138735133Y-94740738D01*
X138746805Y-94634334D01*
X138771012Y-94488248D01*
X138807669Y-94302831D01*
X138856696Y-94078435D01*
X138918008Y-93815410D01*
X138991525Y-93514108D01*
X139066374Y-93217614D01*
X140990867Y-93217614D01*
X140999980Y-93239503D01*
X141027398Y-93282152D01*
X141074597Y-93348211D01*
X141143050Y-93440332D01*
X141234231Y-93561164D01*
X141337634Y-93697561D01*
X141542679Y-93965782D01*
X141772462Y-94262497D01*
X142024085Y-94584132D01*
X142294647Y-94927114D01*
X142581250Y-95287869D01*
X142880994Y-95662824D01*
X143190979Y-96048407D01*
X143508306Y-96441044D01*
X143830076Y-96837161D01*
X144153389Y-97233186D01*
X144475346Y-97625546D01*
X144793047Y-98010667D01*
X145103593Y-98384977D01*
X145404085Y-98744901D01*
X145691622Y-99086868D01*
X145963305Y-99407303D01*
X146112433Y-99581832D01*
X146310458Y-99811775D01*
X146501402Y-100031100D01*
X146688220Y-100242942D01*
X146873865Y-100450436D01*
X147061292Y-100656718D01*
X147253455Y-100864924D01*
X147453307Y-101078188D01*
X147663803Y-101299645D01*
X147887896Y-101532432D01*
X148128541Y-101779684D01*
X148388692Y-102044536D01*
X148671302Y-102330122D01*
X148979326Y-102639580D01*
X149224021Y-102884450D01*
X149508006Y-103167832D01*
X149764995Y-103423281D01*
X149997553Y-103653166D01*
X150208246Y-103859854D01*
X150399639Y-104045716D01*
X150574298Y-104213119D01*
X150734789Y-104364432D01*
X150883677Y-104502024D01*
X151023527Y-104628264D01*
X151156905Y-104745520D01*
X151286378Y-104856161D01*
X151414509Y-104962556D01*
X151543866Y-105067073D01*
X151677013Y-105172081D01*
X151816516Y-105279950D01*
X151828909Y-105289449D01*
X152183625Y-105552673D01*
X152516519Y-105781864D01*
X152829540Y-105978020D01*
X153124637Y-106142137D01*
X153403757Y-106275213D01*
X153668850Y-106378244D01*
X153921863Y-106452228D01*
X154164746Y-106498162D01*
X154199576Y-106502593D01*
X154315811Y-106514998D01*
X154409624Y-106520367D01*
X154498859Y-106518644D01*
X154601360Y-106509772D01*
X154675826Y-106501096D01*
X154900330Y-106462337D01*
X155128619Y-106399759D01*
X155364767Y-106311570D01*
X155612851Y-106195976D01*
X155876946Y-106051186D01*
X156161127Y-105875408D01*
X156285686Y-105793097D01*
X156595819Y-105576894D01*
X156917721Y-105337013D01*
X157252897Y-105072132D01*
X157602853Y-104780934D01*
X157969093Y-104462097D01*
X158353124Y-104114304D01*
X158756450Y-103736234D01*
X159180576Y-103326568D01*
X159627009Y-102883987D01*
X159777236Y-102732758D01*
X160301685Y-102196124D01*
X160829752Y-101642036D01*
X161363592Y-101068071D01*
X161905361Y-100471803D01*
X162457213Y-99850808D01*
X163021303Y-99202661D01*
X163599785Y-98524936D01*
X164194815Y-97815211D01*
X164806432Y-97073644D01*
X164929330Y-96922878D01*
X165064918Y-96755450D01*
X165210796Y-96574399D01*
X165364563Y-96382765D01*
X165523819Y-96183587D01*
X165686163Y-95979905D01*
X165849195Y-95774759D01*
X166010514Y-95571188D01*
X166167719Y-95372232D01*
X166318411Y-95180931D01*
X166460187Y-95000323D01*
X166590649Y-94833449D01*
X166707396Y-94683348D01*
X166808026Y-94553060D01*
X166890140Y-94445624D01*
X166951336Y-94364080D01*
X166989215Y-94311467D01*
X166996291Y-94300811D01*
X167024425Y-94259989D01*
X167072098Y-94194442D01*
X167132884Y-94112876D01*
X167200355Y-94024001D01*
X167207211Y-94015061D01*
X167284981Y-93913683D01*
X167377900Y-93792444D01*
X167475417Y-93665120D01*
X167566977Y-93545485D01*
X167585445Y-93521341D01*
X167793064Y-93249872D01*
X167410937Y-93531924D01*
X167005993Y-93828740D01*
X166583998Y-94134113D01*
X166147862Y-94446093D01*
X165700493Y-94762728D01*
X165244798Y-95082068D01*
X164783686Y-95402161D01*
X164320065Y-95721057D01*
X163856843Y-96036805D01*
X163396930Y-96347453D01*
X162943232Y-96651052D01*
X162498658Y-96945649D01*
X162066116Y-97229294D01*
X161648515Y-97500037D01*
X161248763Y-97755925D01*
X160869767Y-97995008D01*
X160514437Y-98215336D01*
X160185681Y-98414957D01*
X159886406Y-98591920D01*
X159755826Y-98667243D01*
X159241609Y-98957228D01*
X158758199Y-99221587D01*
X158303428Y-99461245D01*
X157875129Y-99677124D01*
X157471134Y-99870148D01*
X157089276Y-100041241D01*
X156727387Y-100191325D01*
X156383301Y-100321325D01*
X156054850Y-100432163D01*
X155739865Y-100524763D01*
X155436181Y-100600048D01*
X155141630Y-100658942D01*
X155041724Y-100675627D01*
X154916984Y-100690531D01*
X154761496Y-100701640D01*
X154586019Y-100708857D01*
X154401313Y-100712087D01*
X154218136Y-100711231D01*
X154047249Y-100706194D01*
X153899410Y-100696878D01*
X153807993Y-100686721D01*
X153535248Y-100639755D01*
X153251467Y-100575322D01*
X152953842Y-100492385D01*
X152639567Y-100389908D01*
X152305835Y-100266854D01*
X151949839Y-100122188D01*
X151568772Y-99954871D01*
X151159828Y-99763869D01*
X150720201Y-99548143D01*
X150707076Y-99541564D01*
X150054848Y-99204278D01*
X149376704Y-98833777D01*
X148672826Y-98430176D01*
X147943395Y-97993591D01*
X147188594Y-97524138D01*
X146408604Y-97021934D01*
X145603607Y-96487094D01*
X144773784Y-95919735D01*
X143919316Y-95319972D01*
X143040387Y-94687923D01*
X142526159Y-94311513D01*
X142246277Y-94105757D01*
X141994551Y-93921566D01*
X141765417Y-93754912D01*
X141553310Y-93601766D01*
X141352666Y-93458098D01*
X141157922Y-93319880D01*
X141107993Y-93284638D01*
X141058623Y-93249996D01*
X141021663Y-93225511D01*
X140998586Y-93213834D01*
X140990867Y-93217614D01*
X139066374Y-93217614D01*
X139077163Y-93174879D01*
X139174841Y-92798075D01*
X139284475Y-92384047D01*
X139405984Y-91933145D01*
X139438472Y-91813727D01*
X139573220Y-91322431D01*
X139699963Y-90867159D01*
X139820288Y-90442704D01*
X139935784Y-90043858D01*
X140048039Y-89665414D01*
X140158640Y-89302164D01*
X140269178Y-88948901D01*
X140381238Y-88600418D01*
X140496411Y-88251506D01*
X140616283Y-87896959D01*
X140742444Y-87531569D01*
X140758641Y-87485144D01*
X140837612Y-87259240D01*
X140904052Y-87070009D01*
X140959324Y-86914138D01*
X141004788Y-86788311D01*
X141041804Y-86689212D01*
X141071735Y-86613527D01*
X141095941Y-86557940D01*
X141115783Y-86519135D01*
X141132622Y-86493798D01*
X141147818Y-86478614D01*
X141162734Y-86470267D01*
X141177078Y-86465850D01*
X141199098Y-86463766D01*
X141223760Y-86470194D01*
G37*
X141223760Y-86470194D02*
X141253681Y-86487917D01*
X141291478Y-86519716D01*
X141339769Y-86568375D01*
X141401170Y-86636674D01*
X141478297Y-86727395D01*
X141573768Y-86843321D01*
X141690200Y-86987233D01*
X141820963Y-87150348D01*
X142070216Y-87459736D01*
X142301009Y-87740891D01*
X142519082Y-88000315D01*
X142730172Y-88244511D01*
X142940016Y-88479983D01*
X143154355Y-88713232D01*
X143378924Y-88950762D01*
X143619463Y-89199076D01*
X143711085Y-89292374D01*
X144008321Y-89591161D01*
X144284774Y-89862742D01*
X144546375Y-90112753D01*
X144799055Y-90346826D01*
X145048744Y-90570596D01*
X145150826Y-90659973D01*
X145776377Y-91186417D01*
X146404686Y-91680237D01*
X147034135Y-92140442D01*
X147663103Y-92566041D01*
X148289971Y-92956043D01*
X148913119Y-93309459D01*
X149530929Y-93625297D01*
X150141780Y-93902567D01*
X150744052Y-94140278D01*
X150971659Y-94220483D01*
X151615260Y-94417850D01*
X152262624Y-94573120D01*
X152913367Y-94686328D01*
X153567106Y-94757506D01*
X154223456Y-94786688D01*
X154882032Y-94773907D01*
X155542451Y-94719196D01*
X156204329Y-94622589D01*
X156867280Y-94484119D01*
X157530922Y-94303820D01*
X158194870Y-94081724D01*
X158858739Y-93817865D01*
X159522145Y-93512277D01*
X159604652Y-93471330D01*
X160234892Y-93137950D01*
X160860997Y-92770218D01*
X161483956Y-92367329D01*
X162104761Y-91928479D01*
X162724400Y-91452860D01*
X163343864Y-90939670D01*
X163964142Y-90388101D01*
X164586225Y-89797350D01*
X165211103Y-89166611D01*
X165839765Y-88495079D01*
X166158004Y-88141311D01*
X166260102Y-88025264D01*
X166367645Y-87901116D01*
X166477121Y-87773105D01*
X166585019Y-87645472D01*
X166687827Y-87522455D01*
X166782034Y-87408294D01*
X166864128Y-87307229D01*
X166930599Y-87223499D01*
X166977935Y-87161344D01*
X167002623Y-87125004D01*
X167005409Y-87118183D01*
X167019231Y-87096459D01*
X167056859Y-87051086D01*
X167112534Y-86988713D01*
X167180034Y-86916480D01*
X167270584Y-86825322D01*
X167340672Y-86765822D01*
X167395766Y-86736175D01*
X167441336Y-86734577D01*
X167482849Y-86759223D01*
X167522178Y-86803550D01*
X167565372Y-86872512D01*
X167619613Y-86979765D01*
X167684091Y-87122964D01*
X167757995Y-87299761D01*
X167840515Y-87507811D01*
X167930838Y-87744766D01*
X168028155Y-88008281D01*
X168131654Y-88296009D01*
X168240525Y-88605602D01*
X168353956Y-88934715D01*
X168471138Y-89281001D01*
X168591258Y-89642114D01*
X168713506Y-90015706D01*
X168837072Y-90399432D01*
X168961144Y-90790945D01*
X169084911Y-91187898D01*
X169207563Y-91587945D01*
X169328288Y-91988739D01*
X169414427Y-92279394D01*
X169468401Y-92463646D01*
X169526293Y-92662746D01*
X169587008Y-92872816D01*
X169649453Y-93089981D01*
X169712532Y-93310364D01*
X169775151Y-93530088D01*
X169836217Y-93745278D01*
X169894634Y-93952055D01*
X169949308Y-94146544D01*
X169999146Y-94324869D01*
X170043052Y-94483152D01*
X170079932Y-94617518D01*
X170108693Y-94724089D01*
X170128239Y-94798989D01*
X170137476Y-94838342D01*
X170138076Y-94842803D01*
X170131000Y-94869046D01*
X170110820Y-94930533D01*
X170079108Y-95022800D01*
X170037437Y-95141382D01*
X169987378Y-95281815D01*
X169930505Y-95439635D01*
X169868388Y-95610377D01*
X169851543Y-95656418D01*
X169716396Y-96022815D01*
X169592611Y-96352454D01*
X169478542Y-96648863D01*
X169372545Y-96915570D01*
X169272975Y-97156102D01*
X169178188Y-97373987D01*
X169086537Y-97572754D01*
X168996379Y-97755929D01*
X168906068Y-97927041D01*
X168813959Y-98089617D01*
X168718409Y-98247186D01*
X168617770Y-98403275D01*
X168510400Y-98561411D01*
X168470282Y-98618811D01*
X168358800Y-98775843D01*
X168236769Y-98945241D01*
X168107049Y-99123225D01*
X167972502Y-99306015D01*
X167835988Y-99489829D01*
X167700369Y-99670888D01*
X167568504Y-99845411D01*
X167443256Y-100009618D01*
X167327484Y-100159728D01*
X167224050Y-100291961D01*
X167135815Y-100402537D01*
X167065639Y-100487674D01*
X167016383Y-100543594D01*
X167004619Y-100555561D01*
X166971186Y-100591345D01*
X166918007Y-100652377D01*
X166851755Y-100730830D01*
X166779109Y-100818876D01*
X166760859Y-100841311D01*
X166311290Y-101382124D01*
X165839512Y-101924022D01*
X165350289Y-102462208D01*
X164848385Y-102991886D01*
X164338563Y-103508260D01*
X163825587Y-104006533D01*
X163314219Y-104481908D01*
X162809224Y-104929591D01*
X162315364Y-105344785D01*
X162177041Y-105456719D01*
X161533973Y-105949746D01*
X160886671Y-106400758D01*
X160234830Y-106809891D01*
X159578146Y-107177280D01*
X158916317Y-107503061D01*
X158249039Y-107787370D01*
X157576008Y-108030341D01*
X156896920Y-108232111D01*
X156211473Y-108392815D01*
X155519363Y-108512589D01*
X155257909Y-108546995D01*
X155137202Y-108558471D01*
X154983121Y-108568426D01*
X154804009Y-108576720D01*
X154608205Y-108583212D01*
X154404051Y-108587763D01*
X154199887Y-108590230D01*
X154004055Y-108590475D01*
X153824895Y-108588355D01*
X153670748Y-108583731D01*
X153549955Y-108576462D01*
X153543409Y-108575891D01*
X153353401Y-108554820D01*
X153134028Y-108523637D01*
X152896491Y-108484320D01*
X152651995Y-108438852D01*
X152411742Y-108389213D01*
X152186935Y-108337385D01*
X152167576Y-108332614D01*
X151573589Y-108166429D01*
X150970970Y-107960730D01*
X150362141Y-107716866D01*
X149749525Y-107436186D01*
X149135546Y-107120040D01*
X148522626Y-106769777D01*
X147913188Y-106386748D01*
X147309655Y-105972301D01*
X146714450Y-105527786D01*
X146129997Y-105054552D01*
X145849326Y-104813514D01*
X145393733Y-104403293D01*
X144924931Y-103959471D01*
X144447267Y-103486968D01*
X143965089Y-102990704D01*
X143482744Y-102475600D01*
X143004580Y-101946575D01*
X142534946Y-101408550D01*
X142078187Y-100866444D01*
X141638653Y-100325178D01*
X141220691Y-99789672D01*
X140828648Y-99264846D01*
X140466872Y-98755619D01*
X140365975Y-98608227D01*
X140143584Y-98266494D01*
X139943465Y-97928217D01*
X139760018Y-97582688D01*
X139587643Y-97219195D01*
X139420739Y-96827029D01*
X139375481Y-96713811D01*
X139298557Y-96515215D01*
X139220195Y-96306021D01*
X139142116Y-96091357D01*
X139066039Y-95876355D01*
X138993686Y-95666142D01*
X138926776Y-95465851D01*
X138867029Y-95280610D01*
X138816167Y-95115548D01*
X138775909Y-94975797D01*
X138747975Y-94866486D01*
X138736076Y-94807109D01*
X138735133Y-94740738D01*
X138746805Y-94634334D01*
X138771012Y-94488248D01*
X138807669Y-94302831D01*
X138856696Y-94078435D01*
X138918008Y-93815410D01*
X138991525Y-93514108D01*
X139066374Y-93217614D01*
X140990867Y-93217614D01*
X140999980Y-93239503D01*
X141027398Y-93282152D01*
X141074597Y-93348211D01*
X141143050Y-93440332D01*
X141234231Y-93561164D01*
X141337634Y-93697561D01*
X141542679Y-93965782D01*
X141772462Y-94262497D01*
X142024085Y-94584132D01*
X142294647Y-94927114D01*
X142581250Y-95287869D01*
X142880994Y-95662824D01*
X143190979Y-96048407D01*
X143508306Y-96441044D01*
X143830076Y-96837161D01*
X144153389Y-97233186D01*
X144475346Y-97625546D01*
X144793047Y-98010667D01*
X145103593Y-98384977D01*
X145404085Y-98744901D01*
X145691622Y-99086868D01*
X145963305Y-99407303D01*
X146112433Y-99581832D01*
X146310458Y-99811775D01*
X146501402Y-100031100D01*
X146688220Y-100242942D01*
X146873865Y-100450436D01*
X147061292Y-100656718D01*
X147253455Y-100864924D01*
X147453307Y-101078188D01*
X147663803Y-101299645D01*
X147887896Y-101532432D01*
X148128541Y-101779684D01*
X148388692Y-102044536D01*
X148671302Y-102330122D01*
X148979326Y-102639580D01*
X149224021Y-102884450D01*
X149508006Y-103167832D01*
X149764995Y-103423281D01*
X149997553Y-103653166D01*
X150208246Y-103859854D01*
X150399639Y-104045716D01*
X150574298Y-104213119D01*
X150734789Y-104364432D01*
X150883677Y-104502024D01*
X151023527Y-104628264D01*
X151156905Y-104745520D01*
X151286378Y-104856161D01*
X151414509Y-104962556D01*
X151543866Y-105067073D01*
X151677013Y-105172081D01*
X151816516Y-105279950D01*
X151828909Y-105289449D01*
X152183625Y-105552673D01*
X152516519Y-105781864D01*
X152829540Y-105978020D01*
X153124637Y-106142137D01*
X153403757Y-106275213D01*
X153668850Y-106378244D01*
X153921863Y-106452228D01*
X154164746Y-106498162D01*
X154199576Y-106502593D01*
X154315811Y-106514998D01*
X154409624Y-106520367D01*
X154498859Y-106518644D01*
X154601360Y-106509772D01*
X154675826Y-106501096D01*
X154900330Y-106462337D01*
X155128619Y-106399759D01*
X155364767Y-106311570D01*
X155612851Y-106195976D01*
X155876946Y-106051186D01*
X156161127Y-105875408D01*
X156285686Y-105793097D01*
X156595819Y-105576894D01*
X156917721Y-105337013D01*
X157252897Y-105072132D01*
X157602853Y-104780934D01*
X157969093Y-104462097D01*
X158353124Y-104114304D01*
X158756450Y-103736234D01*
X159180576Y-103326568D01*
X159627009Y-102883987D01*
X159777236Y-102732758D01*
X160301685Y-102196124D01*
X160829752Y-101642036D01*
X161363592Y-101068071D01*
X161905361Y-100471803D01*
X162457213Y-99850808D01*
X163021303Y-99202661D01*
X163599785Y-98524936D01*
X164194815Y-97815211D01*
X164806432Y-97073644D01*
X164929330Y-96922878D01*
X165064918Y-96755450D01*
X165210796Y-96574399D01*
X165364563Y-96382765D01*
X165523819Y-96183587D01*
X165686163Y-95979905D01*
X165849195Y-95774759D01*
X166010514Y-95571188D01*
X166167719Y-95372232D01*
X166318411Y-95180931D01*
X166460187Y-95000323D01*
X166590649Y-94833449D01*
X166707396Y-94683348D01*
X166808026Y-94553060D01*
X166890140Y-94445624D01*
X166951336Y-94364080D01*
X166989215Y-94311467D01*
X166996291Y-94300811D01*
X167024425Y-94259989D01*
X167072098Y-94194442D01*
X167132884Y-94112876D01*
X167200355Y-94024001D01*
X167207211Y-94015061D01*
X167284981Y-93913683D01*
X167377900Y-93792444D01*
X167475417Y-93665120D01*
X167566977Y-93545485D01*
X167585445Y-93521341D01*
X167793064Y-93249872D01*
X167410937Y-93531924D01*
X167005993Y-93828740D01*
X166583998Y-94134113D01*
X166147862Y-94446093D01*
X165700493Y-94762728D01*
X165244798Y-95082068D01*
X164783686Y-95402161D01*
X164320065Y-95721057D01*
X163856843Y-96036805D01*
X163396930Y-96347453D01*
X162943232Y-96651052D01*
X162498658Y-96945649D01*
X162066116Y-97229294D01*
X161648515Y-97500037D01*
X161248763Y-97755925D01*
X160869767Y-97995008D01*
X160514437Y-98215336D01*
X160185681Y-98414957D01*
X159886406Y-98591920D01*
X159755826Y-98667243D01*
X159241609Y-98957228D01*
X158758199Y-99221587D01*
X158303428Y-99461245D01*
X157875129Y-99677124D01*
X157471134Y-99870148D01*
X157089276Y-100041241D01*
X156727387Y-100191325D01*
X156383301Y-100321325D01*
X156054850Y-100432163D01*
X155739865Y-100524763D01*
X155436181Y-100600048D01*
X155141630Y-100658942D01*
X155041724Y-100675627D01*
X154916984Y-100690531D01*
X154761496Y-100701640D01*
X154586019Y-100708857D01*
X154401313Y-100712087D01*
X154218136Y-100711231D01*
X154047249Y-100706194D01*
X153899410Y-100696878D01*
X153807993Y-100686721D01*
X153535248Y-100639755D01*
X153251467Y-100575322D01*
X152953842Y-100492385D01*
X152639567Y-100389908D01*
X152305835Y-100266854D01*
X151949839Y-100122188D01*
X151568772Y-99954871D01*
X151159828Y-99763869D01*
X150720201Y-99548143D01*
X150707076Y-99541564D01*
X150054848Y-99204278D01*
X149376704Y-98833777D01*
X148672826Y-98430176D01*
X147943395Y-97993591D01*
X147188594Y-97524138D01*
X146408604Y-97021934D01*
X145603607Y-96487094D01*
X144773784Y-95919735D01*
X143919316Y-95319972D01*
X143040387Y-94687923D01*
X142526159Y-94311513D01*
X142246277Y-94105757D01*
X141994551Y-93921566D01*
X141765417Y-93754912D01*
X141553310Y-93601766D01*
X141352666Y-93458098D01*
X141157922Y-93319880D01*
X141107993Y-93284638D01*
X141058623Y-93249996D01*
X141021663Y-93225511D01*
X140998586Y-93213834D01*
X140990867Y-93217614D01*
X139066374Y-93217614D01*
X139077163Y-93174879D01*
X139174841Y-92798075D01*
X139284475Y-92384047D01*
X139405984Y-91933145D01*
X139438472Y-91813727D01*
X139573220Y-91322431D01*
X139699963Y-90867159D01*
X139820288Y-90442704D01*
X139935784Y-90043858D01*
X140048039Y-89665414D01*
X140158640Y-89302164D01*
X140269178Y-88948901D01*
X140381238Y-88600418D01*
X140496411Y-88251506D01*
X140616283Y-87896959D01*
X140742444Y-87531569D01*
X140758641Y-87485144D01*
X140837612Y-87259240D01*
X140904052Y-87070009D01*
X140959324Y-86914138D01*
X141004788Y-86788311D01*
X141041804Y-86689212D01*
X141071735Y-86613527D01*
X141095941Y-86557940D01*
X141115783Y-86519135D01*
X141132622Y-86493798D01*
X141147818Y-86478614D01*
X141162734Y-86470267D01*
X141177078Y-86465850D01*
X141199098Y-86463766D01*
X141223760Y-86470194D01*
G36*
X149334140Y-76372680D02*
G01*
X149372617Y-76399992D01*
X149425614Y-76451918D01*
X149434227Y-76460831D01*
X149523692Y-76563244D01*
X149628338Y-76699412D01*
X149745444Y-76864729D01*
X149872284Y-77054588D01*
X150006136Y-77264384D01*
X150144276Y-77489512D01*
X150283982Y-77725364D01*
X150422529Y-77967336D01*
X150557194Y-78210821D01*
X150685254Y-78451214D01*
X150803986Y-78683909D01*
X150910666Y-78904300D01*
X151002571Y-79107781D01*
X151011221Y-79127903D01*
X151296959Y-79844983D01*
X151553483Y-80590607D01*
X151780193Y-81362118D01*
X151976488Y-82156861D01*
X152141770Y-82972182D01*
X152275439Y-83805426D01*
X152376894Y-84653937D01*
X152442395Y-85463727D01*
X152448616Y-85571914D01*
X152455607Y-85707713D01*
X152463081Y-85864157D01*
X152470755Y-86034282D01*
X152478345Y-86211121D01*
X152485565Y-86387709D01*
X152492130Y-86557079D01*
X152497758Y-86712267D01*
X152502162Y-86846305D01*
X152505058Y-86952228D01*
X152506162Y-87023071D01*
X152506165Y-87024769D01*
X152506243Y-87114727D01*
X150410743Y-87114727D01*
X150410743Y-87001346D01*
X150409648Y-86938756D01*
X150406558Y-86840057D01*
X150401757Y-86711413D01*
X150395534Y-86558988D01*
X150388176Y-86388945D01*
X150379969Y-86207447D01*
X150371201Y-86020659D01*
X150362159Y-85834743D01*
X150353130Y-85655863D01*
X150344402Y-85490183D01*
X150336260Y-85343865D01*
X150328994Y-85223074D01*
X150325310Y-85167394D01*
X150255884Y-84404700D01*
X150154783Y-83655559D01*
X150022687Y-82922242D01*
X149860272Y-82207017D01*
X149668215Y-81512156D01*
X149447195Y-80839926D01*
X149197888Y-80192600D01*
X148920973Y-79572445D01*
X148617125Y-78981732D01*
X148335255Y-78499742D01*
X148275666Y-78405886D01*
X148197500Y-78286081D01*
X148106539Y-78149004D01*
X148008563Y-78003330D01*
X147909355Y-77857735D01*
X147851565Y-77773912D01*
X147766472Y-77650519D01*
X147689971Y-77538461D01*
X147625213Y-77442446D01*
X147575346Y-77367176D01*
X147543520Y-77317359D01*
X147532865Y-77297814D01*
X147550367Y-77282893D01*
X147598923Y-77249497D01*
X147673327Y-77200994D01*
X147768370Y-77140755D01*
X147878846Y-77072151D01*
X147929740Y-77040955D01*
X148219898Y-76866696D01*
X148477297Y-76718265D01*
X148701841Y-76595712D01*
X148893432Y-76499085D01*
X149051973Y-76428435D01*
X149177369Y-76383810D01*
X149252610Y-76367033D01*
X149298150Y-76363766D01*
X149334140Y-76372680D01*
G37*
X149334140Y-76372680D02*
X149372617Y-76399992D01*
X149425614Y-76451918D01*
X149434227Y-76460831D01*
X149523692Y-76563244D01*
X149628338Y-76699412D01*
X149745444Y-76864729D01*
X149872284Y-77054588D01*
X150006136Y-77264384D01*
X150144276Y-77489512D01*
X150283982Y-77725364D01*
X150422529Y-77967336D01*
X150557194Y-78210821D01*
X150685254Y-78451214D01*
X150803986Y-78683909D01*
X150910666Y-78904300D01*
X151002571Y-79107781D01*
X151011221Y-79127903D01*
X151296959Y-79844983D01*
X151553483Y-80590607D01*
X151780193Y-81362118D01*
X151976488Y-82156861D01*
X152141770Y-82972182D01*
X152275439Y-83805426D01*
X152376894Y-84653937D01*
X152442395Y-85463727D01*
X152448616Y-85571914D01*
X152455607Y-85707713D01*
X152463081Y-85864157D01*
X152470755Y-86034282D01*
X152478345Y-86211121D01*
X152485565Y-86387709D01*
X152492130Y-86557079D01*
X152497758Y-86712267D01*
X152502162Y-86846305D01*
X152505058Y-86952228D01*
X152506162Y-87023071D01*
X152506165Y-87024769D01*
X152506243Y-87114727D01*
X150410743Y-87114727D01*
X150410743Y-87001346D01*
X150409648Y-86938756D01*
X150406558Y-86840057D01*
X150401757Y-86711413D01*
X150395534Y-86558988D01*
X150388176Y-86388945D01*
X150379969Y-86207447D01*
X150371201Y-86020659D01*
X150362159Y-85834743D01*
X150353130Y-85655863D01*
X150344402Y-85490183D01*
X150336260Y-85343865D01*
X150328994Y-85223074D01*
X150325310Y-85167394D01*
X150255884Y-84404700D01*
X150154783Y-83655559D01*
X150022687Y-82922242D01*
X149860272Y-82207017D01*
X149668215Y-81512156D01*
X149447195Y-80839926D01*
X149197888Y-80192600D01*
X148920973Y-79572445D01*
X148617125Y-78981732D01*
X148335255Y-78499742D01*
X148275666Y-78405886D01*
X148197500Y-78286081D01*
X148106539Y-78149004D01*
X148008563Y-78003330D01*
X147909355Y-77857735D01*
X147851565Y-77773912D01*
X147766472Y-77650519D01*
X147689971Y-77538461D01*
X147625213Y-77442446D01*
X147575346Y-77367176D01*
X147543520Y-77317359D01*
X147532865Y-77297814D01*
X147550367Y-77282893D01*
X147598923Y-77249497D01*
X147673327Y-77200994D01*
X147768370Y-77140755D01*
X147878846Y-77072151D01*
X147929740Y-77040955D01*
X148219898Y-76866696D01*
X148477297Y-76718265D01*
X148701841Y-76595712D01*
X148893432Y-76499085D01*
X149051973Y-76428435D01*
X149177369Y-76383810D01*
X149252610Y-76367033D01*
X149298150Y-76363766D01*
X149334140Y-76372680D01*
G36*
X159534568Y-76253404D02*
G01*
X159586949Y-76281945D01*
X159666766Y-76327812D01*
X159769793Y-76388438D01*
X159891807Y-76461256D01*
X160028582Y-76543699D01*
X160175894Y-76633202D01*
X160329517Y-76727198D01*
X160485228Y-76823119D01*
X160638802Y-76918400D01*
X160786014Y-77010474D01*
X160922640Y-77096774D01*
X161041701Y-77172958D01*
X161126361Y-77228961D01*
X161180859Y-77269641D01*
X161211528Y-77301129D01*
X161224701Y-77329557D01*
X161226909Y-77352274D01*
X161210593Y-77419031D01*
X161161843Y-77512139D01*
X161080961Y-77631104D01*
X160973317Y-77769236D01*
X160716883Y-78107915D01*
X160467970Y-78485810D01*
X160227611Y-78900306D01*
X159996840Y-79348784D01*
X159776691Y-79828628D01*
X159568196Y-80337222D01*
X159372391Y-80871948D01*
X159190307Y-81430191D01*
X159022980Y-82009332D01*
X158871441Y-82606755D01*
X158736726Y-83219844D01*
X158657347Y-83632811D01*
X158584027Y-84061340D01*
X158524543Y-84465822D01*
X158477749Y-84858111D01*
X158442499Y-85250062D01*
X158417648Y-85653529D01*
X158402049Y-86080368D01*
X158397047Y-86326269D01*
X158384934Y-87114727D01*
X156316243Y-87114727D01*
X156316434Y-86601436D01*
X156335888Y-85767727D01*
X156393085Y-84922147D01*
X156487202Y-84070288D01*
X156617418Y-83217741D01*
X156782911Y-82370095D01*
X156982860Y-81532943D01*
X157149622Y-80933303D01*
X157265899Y-80566936D01*
X157405071Y-80175233D01*
X157563635Y-79765949D01*
X157738088Y-79346842D01*
X157924927Y-78925670D01*
X158120650Y-78510191D01*
X158321755Y-78108162D01*
X158524737Y-77727341D01*
X158726096Y-77375486D01*
X158840871Y-77187561D01*
X158884623Y-77120156D01*
X158943677Y-77032538D01*
X159014097Y-76930222D01*
X159091942Y-76818727D01*
X159173276Y-76703569D01*
X159254160Y-76590265D01*
X159330656Y-76484333D01*
X159398824Y-76391290D01*
X159454729Y-76316654D01*
X159494430Y-76265942D01*
X159513847Y-76244755D01*
X159534568Y-76253404D01*
G37*
X159534568Y-76253404D02*
X159586949Y-76281945D01*
X159666766Y-76327812D01*
X159769793Y-76388438D01*
X159891807Y-76461256D01*
X160028582Y-76543699D01*
X160175894Y-76633202D01*
X160329517Y-76727198D01*
X160485228Y-76823119D01*
X160638802Y-76918400D01*
X160786014Y-77010474D01*
X160922640Y-77096774D01*
X161041701Y-77172958D01*
X161126361Y-77228961D01*
X161180859Y-77269641D01*
X161211528Y-77301129D01*
X161224701Y-77329557D01*
X161226909Y-77352274D01*
X161210593Y-77419031D01*
X161161843Y-77512139D01*
X161080961Y-77631104D01*
X160973317Y-77769236D01*
X160716883Y-78107915D01*
X160467970Y-78485810D01*
X160227611Y-78900306D01*
X159996840Y-79348784D01*
X159776691Y-79828628D01*
X159568196Y-80337222D01*
X159372391Y-80871948D01*
X159190307Y-81430191D01*
X159022980Y-82009332D01*
X158871441Y-82606755D01*
X158736726Y-83219844D01*
X158657347Y-83632811D01*
X158584027Y-84061340D01*
X158524543Y-84465822D01*
X158477749Y-84858111D01*
X158442499Y-85250062D01*
X158417648Y-85653529D01*
X158402049Y-86080368D01*
X158397047Y-86326269D01*
X158384934Y-87114727D01*
X156316243Y-87114727D01*
X156316434Y-86601436D01*
X156335888Y-85767727D01*
X156393085Y-84922147D01*
X156487202Y-84070288D01*
X156617418Y-83217741D01*
X156782911Y-82370095D01*
X156982860Y-81532943D01*
X157149622Y-80933303D01*
X157265899Y-80566936D01*
X157405071Y-80175233D01*
X157563635Y-79765949D01*
X157738088Y-79346842D01*
X157924927Y-78925670D01*
X158120650Y-78510191D01*
X158321755Y-78108162D01*
X158524737Y-77727341D01*
X158726096Y-77375486D01*
X158840871Y-77187561D01*
X158884623Y-77120156D01*
X158943677Y-77032538D01*
X159014097Y-76930222D01*
X159091942Y-76818727D01*
X159173276Y-76703569D01*
X159254160Y-76590265D01*
X159330656Y-76484333D01*
X159398824Y-76391290D01*
X159454729Y-76316654D01*
X159494430Y-76265942D01*
X159513847Y-76244755D01*
X159534568Y-76253404D01*
M02*
