G04 #@! TF.GenerationSoftware,KiCad,Pcbnew,5.1.5-52549c5~86~ubuntu18.04.1*
G04 #@! TF.CreationDate,2020-04-16T18:44:58-06:00*
G04 #@! TF.ProjectId,001,3030312e-6b69-4636-9164-5f7063625858,rev?*
G04 #@! TF.SameCoordinates,Original*
G04 #@! TF.FileFunction,Paste,Bot*
G04 #@! TF.FilePolarity,Positive*
%FSLAX46Y46*%
G04 Gerber Fmt 4.6, Leading zero omitted, Abs format (unit mm)*
G04 Created by KiCad (PCBNEW 5.1.5-52549c5~86~ubuntu18.04.1) date 2020-04-16 18:44:58*
%MOMM*%
%LPD*%
G04 APERTURE LIST*
%ADD10C,0.100000*%
%ADD11R,3.847600X3.847600*%
%ADD12R,5.347600X5.347600*%
%ADD13R,0.847600X3.347600*%
%ADD14R,1.747600X0.847600*%
%ADD15R,0.847600X1.747600*%
%ADD16R,1.397600X0.847600*%
G04 APERTURE END LIST*
D10*
G36*
X151638136Y-103550398D02*
G01*
X151661523Y-103553347D01*
X152860223Y-103764710D01*
X152883209Y-103769938D01*
X152905571Y-103777393D01*
X152927095Y-103787004D01*
X152947573Y-103798679D01*
X152966809Y-103812305D01*
X152984616Y-103827750D01*
X153000824Y-103844867D01*
X153015276Y-103863490D01*
X153027832Y-103883439D01*
X153038373Y-103904524D01*
X153046797Y-103926540D01*
X153053022Y-103949275D01*
X153056989Y-103972512D01*
X153058659Y-103996025D01*
X153058016Y-104019589D01*
X153055067Y-104042976D01*
X152900139Y-104921613D01*
X152894911Y-104944599D01*
X152887456Y-104966961D01*
X152877845Y-104988485D01*
X152866170Y-105008964D01*
X152852544Y-105028199D01*
X152837099Y-105046006D01*
X152819982Y-105062214D01*
X152801359Y-105076666D01*
X152781410Y-105089223D01*
X152760325Y-105099764D01*
X152738309Y-105108187D01*
X152715574Y-105114412D01*
X152692337Y-105118379D01*
X152668824Y-105120049D01*
X152645260Y-105119406D01*
X152621873Y-105116457D01*
X151423173Y-104905094D01*
X151400187Y-104899866D01*
X151377825Y-104892411D01*
X151356301Y-104882800D01*
X151335823Y-104871125D01*
X151316587Y-104857499D01*
X151298780Y-104842054D01*
X151282572Y-104824937D01*
X151268120Y-104806314D01*
X151255564Y-104786365D01*
X151245023Y-104765280D01*
X151236599Y-104743264D01*
X151230374Y-104720529D01*
X151226407Y-104697292D01*
X151224737Y-104673779D01*
X151225380Y-104650215D01*
X151228329Y-104626828D01*
X151383257Y-103748191D01*
X151388485Y-103725205D01*
X151395940Y-103702843D01*
X151405551Y-103681319D01*
X151417226Y-103660840D01*
X151430852Y-103641605D01*
X151446297Y-103623798D01*
X151463414Y-103607590D01*
X151482037Y-103593138D01*
X151501986Y-103580581D01*
X151523071Y-103570040D01*
X151545087Y-103561617D01*
X151567822Y-103555392D01*
X151591059Y-103551425D01*
X151614572Y-103549755D01*
X151638136Y-103550398D01*
G37*
G36*
X152154740Y-100620594D02*
G01*
X152178127Y-100623543D01*
X153376827Y-100834906D01*
X153399813Y-100840134D01*
X153422175Y-100847589D01*
X153443699Y-100857200D01*
X153464177Y-100868875D01*
X153483413Y-100882501D01*
X153501220Y-100897946D01*
X153517428Y-100915063D01*
X153531880Y-100933686D01*
X153544436Y-100953635D01*
X153554977Y-100974720D01*
X153563401Y-100996736D01*
X153569626Y-101019471D01*
X153573593Y-101042708D01*
X153575263Y-101066221D01*
X153574620Y-101089785D01*
X153571671Y-101113172D01*
X153416743Y-101991809D01*
X153411515Y-102014795D01*
X153404060Y-102037157D01*
X153394449Y-102058681D01*
X153382774Y-102079160D01*
X153369148Y-102098395D01*
X153353703Y-102116202D01*
X153336586Y-102132410D01*
X153317963Y-102146862D01*
X153298014Y-102159419D01*
X153276929Y-102169960D01*
X153254913Y-102178383D01*
X153232178Y-102184608D01*
X153208941Y-102188575D01*
X153185428Y-102190245D01*
X153161864Y-102189602D01*
X153138477Y-102186653D01*
X151939777Y-101975290D01*
X151916791Y-101970062D01*
X151894429Y-101962607D01*
X151872905Y-101952996D01*
X151852427Y-101941321D01*
X151833191Y-101927695D01*
X151815384Y-101912250D01*
X151799176Y-101895133D01*
X151784724Y-101876510D01*
X151772168Y-101856561D01*
X151761627Y-101835476D01*
X151753203Y-101813460D01*
X151746978Y-101790725D01*
X151743011Y-101767488D01*
X151741341Y-101743975D01*
X151741984Y-101720411D01*
X151744933Y-101697024D01*
X151899861Y-100818387D01*
X151905089Y-100795401D01*
X151912544Y-100773039D01*
X151922155Y-100751515D01*
X151933830Y-100731036D01*
X151947456Y-100711801D01*
X151962901Y-100693994D01*
X151980018Y-100677786D01*
X151998641Y-100663334D01*
X152018590Y-100650777D01*
X152039675Y-100640236D01*
X152061691Y-100631813D01*
X152084426Y-100625588D01*
X152107663Y-100621621D01*
X152131176Y-100619951D01*
X152154740Y-100620594D01*
G37*
G36*
X162261637Y-95520973D02*
G01*
X162284915Y-95524686D01*
X162307718Y-95530662D01*
X162329824Y-95538845D01*
X162351022Y-95549156D01*
X162371108Y-95561494D01*
X162389887Y-95575742D01*
X163073345Y-96149232D01*
X163090638Y-96165252D01*
X163106276Y-96182890D01*
X163120111Y-96201975D01*
X163132009Y-96222325D01*
X163141854Y-96243743D01*
X163149553Y-96266023D01*
X163155031Y-96288950D01*
X163158235Y-96312304D01*
X163159135Y-96335859D01*
X163157721Y-96359389D01*
X163154008Y-96382668D01*
X163148032Y-96405470D01*
X163139849Y-96427576D01*
X163129538Y-96448775D01*
X163117200Y-96468860D01*
X163102952Y-96487639D01*
X162320556Y-97420063D01*
X162304536Y-97437355D01*
X162286898Y-97452994D01*
X162267813Y-97466829D01*
X162247463Y-97478727D01*
X162226045Y-97488572D01*
X162203765Y-97496271D01*
X162180838Y-97501749D01*
X162157484Y-97504953D01*
X162133929Y-97505853D01*
X162110399Y-97504439D01*
X162087121Y-97500726D01*
X162064318Y-97494750D01*
X162042212Y-97486567D01*
X162021014Y-97476256D01*
X162000928Y-97463918D01*
X161982149Y-97449670D01*
X161298691Y-96876180D01*
X161281398Y-96860160D01*
X161265760Y-96842522D01*
X161251925Y-96823437D01*
X161240027Y-96803087D01*
X161230182Y-96781669D01*
X161222483Y-96759389D01*
X161217005Y-96736462D01*
X161213801Y-96713108D01*
X161212901Y-96689553D01*
X161214315Y-96666023D01*
X161218028Y-96642744D01*
X161224004Y-96619942D01*
X161232187Y-96597836D01*
X161242498Y-96576637D01*
X161254836Y-96556552D01*
X161269084Y-96537773D01*
X162051480Y-95605349D01*
X162067500Y-95588057D01*
X162085138Y-95572418D01*
X162104223Y-95558583D01*
X162124573Y-95546685D01*
X162145991Y-95536840D01*
X162168271Y-95529141D01*
X162191198Y-95523663D01*
X162214552Y-95520459D01*
X162238107Y-95519559D01*
X162261637Y-95520973D01*
G37*
G36*
X164540619Y-97433267D02*
G01*
X164563897Y-97436980D01*
X164586700Y-97442956D01*
X164608806Y-97451139D01*
X164630004Y-97461450D01*
X164650090Y-97473788D01*
X164668869Y-97488036D01*
X165352327Y-98061526D01*
X165369620Y-98077546D01*
X165385258Y-98095184D01*
X165399093Y-98114269D01*
X165410991Y-98134619D01*
X165420836Y-98156037D01*
X165428535Y-98178317D01*
X165434013Y-98201244D01*
X165437217Y-98224598D01*
X165438117Y-98248153D01*
X165436703Y-98271683D01*
X165432990Y-98294962D01*
X165427014Y-98317764D01*
X165418831Y-98339870D01*
X165408520Y-98361069D01*
X165396182Y-98381154D01*
X165381934Y-98399933D01*
X164599538Y-99332357D01*
X164583518Y-99349649D01*
X164565880Y-99365288D01*
X164546795Y-99379123D01*
X164526445Y-99391021D01*
X164505027Y-99400866D01*
X164482747Y-99408565D01*
X164459820Y-99414043D01*
X164436466Y-99417247D01*
X164412911Y-99418147D01*
X164389381Y-99416733D01*
X164366103Y-99413020D01*
X164343300Y-99407044D01*
X164321194Y-99398861D01*
X164299996Y-99388550D01*
X164279910Y-99376212D01*
X164261131Y-99361964D01*
X163577673Y-98788474D01*
X163560380Y-98772454D01*
X163544742Y-98754816D01*
X163530907Y-98735731D01*
X163519009Y-98715381D01*
X163509164Y-98693963D01*
X163501465Y-98671683D01*
X163495987Y-98648756D01*
X163492783Y-98625402D01*
X163491883Y-98601847D01*
X163493297Y-98578317D01*
X163497010Y-98555038D01*
X163502986Y-98532236D01*
X163511169Y-98510130D01*
X163521480Y-98488931D01*
X163533818Y-98468846D01*
X163548066Y-98450067D01*
X164330462Y-97517643D01*
X164346482Y-97500351D01*
X164364120Y-97484712D01*
X164383205Y-97470877D01*
X164403555Y-97458979D01*
X164424973Y-97449134D01*
X164447253Y-97441435D01*
X164470180Y-97435957D01*
X164493534Y-97432753D01*
X164517089Y-97431853D01*
X164540619Y-97433267D01*
G37*
G36*
X161811549Y-99862274D02*
G01*
X161834903Y-99865478D01*
X161857830Y-99870956D01*
X161880110Y-99878655D01*
X161901528Y-99888500D01*
X161921878Y-99900398D01*
X161940963Y-99914233D01*
X161958601Y-99929872D01*
X161974621Y-99947164D01*
X162548111Y-100630622D01*
X162562359Y-100649401D01*
X162574697Y-100669486D01*
X162585008Y-100690685D01*
X162593191Y-100712791D01*
X162599167Y-100735593D01*
X162602880Y-100758872D01*
X162604294Y-100782402D01*
X162603394Y-100805957D01*
X162600190Y-100829311D01*
X162594712Y-100852238D01*
X162587013Y-100874518D01*
X162577168Y-100895936D01*
X162565270Y-100916286D01*
X162551435Y-100935371D01*
X162535797Y-100953009D01*
X162518504Y-100969029D01*
X161586080Y-101751425D01*
X161567301Y-101765673D01*
X161547215Y-101778011D01*
X161526017Y-101788322D01*
X161503911Y-101796505D01*
X161481108Y-101802481D01*
X161457830Y-101806194D01*
X161434300Y-101807608D01*
X161410745Y-101806708D01*
X161387391Y-101803504D01*
X161364464Y-101798026D01*
X161342184Y-101790327D01*
X161320766Y-101780482D01*
X161300416Y-101768584D01*
X161281331Y-101754749D01*
X161263693Y-101739110D01*
X161247673Y-101721818D01*
X160674183Y-101038360D01*
X160659935Y-101019581D01*
X160647597Y-100999496D01*
X160637286Y-100978297D01*
X160629103Y-100956191D01*
X160623127Y-100933389D01*
X160619414Y-100910110D01*
X160618000Y-100886580D01*
X160618900Y-100863025D01*
X160622104Y-100839671D01*
X160627582Y-100816744D01*
X160635281Y-100794464D01*
X160645126Y-100773046D01*
X160657024Y-100752696D01*
X160670859Y-100733611D01*
X160686497Y-100715973D01*
X160703790Y-100699953D01*
X161636214Y-99917557D01*
X161654993Y-99903309D01*
X161675079Y-99890971D01*
X161696277Y-99880660D01*
X161718383Y-99872477D01*
X161741186Y-99866501D01*
X161764464Y-99862788D01*
X161787994Y-99861374D01*
X161811549Y-99862274D01*
G37*
G36*
X159899255Y-97583292D02*
G01*
X159922609Y-97586496D01*
X159945536Y-97591974D01*
X159967816Y-97599673D01*
X159989234Y-97609518D01*
X160009584Y-97621416D01*
X160028669Y-97635251D01*
X160046307Y-97650890D01*
X160062327Y-97668182D01*
X160635817Y-98351640D01*
X160650065Y-98370419D01*
X160662403Y-98390504D01*
X160672714Y-98411703D01*
X160680897Y-98433809D01*
X160686873Y-98456611D01*
X160690586Y-98479890D01*
X160692000Y-98503420D01*
X160691100Y-98526975D01*
X160687896Y-98550329D01*
X160682418Y-98573256D01*
X160674719Y-98595536D01*
X160664874Y-98616954D01*
X160652976Y-98637304D01*
X160639141Y-98656389D01*
X160623503Y-98674027D01*
X160606210Y-98690047D01*
X159673786Y-99472443D01*
X159655007Y-99486691D01*
X159634921Y-99499029D01*
X159613723Y-99509340D01*
X159591617Y-99517523D01*
X159568814Y-99523499D01*
X159545536Y-99527212D01*
X159522006Y-99528626D01*
X159498451Y-99527726D01*
X159475097Y-99524522D01*
X159452170Y-99519044D01*
X159429890Y-99511345D01*
X159408472Y-99501500D01*
X159388122Y-99489602D01*
X159369037Y-99475767D01*
X159351399Y-99460128D01*
X159335379Y-99442836D01*
X158761889Y-98759378D01*
X158747641Y-98740599D01*
X158735303Y-98720514D01*
X158724992Y-98699315D01*
X158716809Y-98677209D01*
X158710833Y-98654407D01*
X158707120Y-98631128D01*
X158705706Y-98607598D01*
X158706606Y-98584043D01*
X158709810Y-98560689D01*
X158715288Y-98537762D01*
X158722987Y-98515482D01*
X158732832Y-98494064D01*
X158744730Y-98473714D01*
X158758565Y-98454629D01*
X158774203Y-98436991D01*
X158791496Y-98420971D01*
X159723920Y-97638575D01*
X159742699Y-97624327D01*
X159762785Y-97611989D01*
X159783983Y-97601678D01*
X159806089Y-97593495D01*
X159828892Y-97587519D01*
X159852170Y-97583806D01*
X159875700Y-97582392D01*
X159899255Y-97583292D01*
G37*
G36*
X156756337Y-100520021D02*
G01*
X156779574Y-100523988D01*
X156802309Y-100530213D01*
X156824325Y-100538637D01*
X156845410Y-100549178D01*
X156865359Y-100561734D01*
X156883982Y-100576186D01*
X156901099Y-100592394D01*
X156916544Y-100610201D01*
X156930170Y-100629437D01*
X156941845Y-100649915D01*
X156951456Y-100671439D01*
X156958911Y-100693801D01*
X156964139Y-100716787D01*
X157119067Y-101595424D01*
X157122016Y-101618811D01*
X157122659Y-101642375D01*
X157120989Y-101665888D01*
X157117022Y-101689125D01*
X157110797Y-101711860D01*
X157102374Y-101733876D01*
X157091833Y-101754961D01*
X157079276Y-101774910D01*
X157064824Y-101793533D01*
X157048616Y-101810650D01*
X157030809Y-101826095D01*
X157011574Y-101839721D01*
X156991095Y-101851396D01*
X156969571Y-101861007D01*
X156947209Y-101868462D01*
X156924223Y-101873690D01*
X155725523Y-102085053D01*
X155702136Y-102088002D01*
X155678572Y-102088645D01*
X155655059Y-102086975D01*
X155631822Y-102083008D01*
X155609087Y-102076783D01*
X155587071Y-102068359D01*
X155565986Y-102057818D01*
X155546037Y-102045262D01*
X155527414Y-102030810D01*
X155510297Y-102014602D01*
X155494852Y-101996795D01*
X155481226Y-101977559D01*
X155469551Y-101957081D01*
X155459940Y-101935557D01*
X155452485Y-101913195D01*
X155447257Y-101890209D01*
X155292329Y-101011572D01*
X155289380Y-100988185D01*
X155288737Y-100964621D01*
X155290407Y-100941108D01*
X155294374Y-100917871D01*
X155300599Y-100895136D01*
X155309022Y-100873120D01*
X155319563Y-100852035D01*
X155332120Y-100832086D01*
X155346572Y-100813463D01*
X155362780Y-100796346D01*
X155380587Y-100780901D01*
X155399822Y-100767275D01*
X155420301Y-100755600D01*
X155441825Y-100745989D01*
X155464187Y-100738534D01*
X155487173Y-100733306D01*
X156685873Y-100521943D01*
X156709260Y-100518994D01*
X156732824Y-100518351D01*
X156756337Y-100520021D01*
G37*
G36*
X157272941Y-103449825D02*
G01*
X157296178Y-103453792D01*
X157318913Y-103460017D01*
X157340929Y-103468441D01*
X157362014Y-103478982D01*
X157381963Y-103491538D01*
X157400586Y-103505990D01*
X157417703Y-103522198D01*
X157433148Y-103540005D01*
X157446774Y-103559241D01*
X157458449Y-103579719D01*
X157468060Y-103601243D01*
X157475515Y-103623605D01*
X157480743Y-103646591D01*
X157635671Y-104525228D01*
X157638620Y-104548615D01*
X157639263Y-104572179D01*
X157637593Y-104595692D01*
X157633626Y-104618929D01*
X157627401Y-104641664D01*
X157618978Y-104663680D01*
X157608437Y-104684765D01*
X157595880Y-104704714D01*
X157581428Y-104723337D01*
X157565220Y-104740454D01*
X157547413Y-104755899D01*
X157528178Y-104769525D01*
X157507699Y-104781200D01*
X157486175Y-104790811D01*
X157463813Y-104798266D01*
X157440827Y-104803494D01*
X156242127Y-105014857D01*
X156218740Y-105017806D01*
X156195176Y-105018449D01*
X156171663Y-105016779D01*
X156148426Y-105012812D01*
X156125691Y-105006587D01*
X156103675Y-104998163D01*
X156082590Y-104987622D01*
X156062641Y-104975066D01*
X156044018Y-104960614D01*
X156026901Y-104944406D01*
X156011456Y-104926599D01*
X155997830Y-104907363D01*
X155986155Y-104886885D01*
X155976544Y-104865361D01*
X155969089Y-104842999D01*
X155963861Y-104820013D01*
X155808933Y-103941376D01*
X155805984Y-103917989D01*
X155805341Y-103894425D01*
X155807011Y-103870912D01*
X155810978Y-103847675D01*
X155817203Y-103824940D01*
X155825626Y-103802924D01*
X155836167Y-103781839D01*
X155848724Y-103761890D01*
X155863176Y-103743267D01*
X155879384Y-103726150D01*
X155897191Y-103710705D01*
X155916426Y-103697079D01*
X155936905Y-103685404D01*
X155958429Y-103675793D01*
X155980791Y-103668338D01*
X156003777Y-103663110D01*
X157202477Y-103451747D01*
X157225864Y-103448798D01*
X157249428Y-103448155D01*
X157272941Y-103449825D01*
G37*
G36*
X148757830Y-97583806D02*
G01*
X148781109Y-97587519D01*
X148803911Y-97593495D01*
X148826017Y-97601678D01*
X148847216Y-97611989D01*
X148867301Y-97624327D01*
X148886080Y-97638575D01*
X149818504Y-98420971D01*
X149835796Y-98436991D01*
X149851435Y-98454629D01*
X149865270Y-98473714D01*
X149877168Y-98494064D01*
X149887013Y-98515482D01*
X149894712Y-98537762D01*
X149900190Y-98560689D01*
X149903394Y-98584043D01*
X149904294Y-98607598D01*
X149902880Y-98631128D01*
X149899167Y-98654406D01*
X149893191Y-98677209D01*
X149885008Y-98699315D01*
X149874697Y-98720513D01*
X149862359Y-98740599D01*
X149848111Y-98759378D01*
X149274621Y-99442836D01*
X149258601Y-99460129D01*
X149240963Y-99475767D01*
X149221878Y-99489602D01*
X149201528Y-99501500D01*
X149180110Y-99511345D01*
X149157830Y-99519044D01*
X149134903Y-99524522D01*
X149111549Y-99527726D01*
X149087994Y-99528626D01*
X149064464Y-99527212D01*
X149041185Y-99523499D01*
X149018383Y-99517523D01*
X148996277Y-99509340D01*
X148975078Y-99499029D01*
X148954993Y-99486691D01*
X148936214Y-99472443D01*
X148003790Y-98690047D01*
X147986498Y-98674027D01*
X147970859Y-98656389D01*
X147957024Y-98637304D01*
X147945126Y-98616954D01*
X147935281Y-98595536D01*
X147927582Y-98573256D01*
X147922104Y-98550329D01*
X147918900Y-98526975D01*
X147918000Y-98503420D01*
X147919414Y-98479890D01*
X147923127Y-98456612D01*
X147929103Y-98433809D01*
X147937286Y-98411703D01*
X147947597Y-98390505D01*
X147959935Y-98370419D01*
X147974183Y-98351640D01*
X148547673Y-97668182D01*
X148563693Y-97650889D01*
X148581331Y-97635251D01*
X148600416Y-97621416D01*
X148620766Y-97609518D01*
X148642184Y-97599673D01*
X148664464Y-97591974D01*
X148687391Y-97586496D01*
X148710745Y-97583292D01*
X148734300Y-97582392D01*
X148757830Y-97583806D01*
G37*
G36*
X146845536Y-99862788D02*
G01*
X146868815Y-99866501D01*
X146891617Y-99872477D01*
X146913723Y-99880660D01*
X146934922Y-99890971D01*
X146955007Y-99903309D01*
X146973786Y-99917557D01*
X147906210Y-100699953D01*
X147923502Y-100715973D01*
X147939141Y-100733611D01*
X147952976Y-100752696D01*
X147964874Y-100773046D01*
X147974719Y-100794464D01*
X147982418Y-100816744D01*
X147987896Y-100839671D01*
X147991100Y-100863025D01*
X147992000Y-100886580D01*
X147990586Y-100910110D01*
X147986873Y-100933388D01*
X147980897Y-100956191D01*
X147972714Y-100978297D01*
X147962403Y-100999495D01*
X147950065Y-101019581D01*
X147935817Y-101038360D01*
X147362327Y-101721818D01*
X147346307Y-101739111D01*
X147328669Y-101754749D01*
X147309584Y-101768584D01*
X147289234Y-101780482D01*
X147267816Y-101790327D01*
X147245536Y-101798026D01*
X147222609Y-101803504D01*
X147199255Y-101806708D01*
X147175700Y-101807608D01*
X147152170Y-101806194D01*
X147128891Y-101802481D01*
X147106089Y-101796505D01*
X147083983Y-101788322D01*
X147062784Y-101778011D01*
X147042699Y-101765673D01*
X147023920Y-101751425D01*
X146091496Y-100969029D01*
X146074204Y-100953009D01*
X146058565Y-100935371D01*
X146044730Y-100916286D01*
X146032832Y-100895936D01*
X146022987Y-100874518D01*
X146015288Y-100852238D01*
X146009810Y-100829311D01*
X146006606Y-100805957D01*
X146005706Y-100782402D01*
X146007120Y-100758872D01*
X146010833Y-100735594D01*
X146016809Y-100712791D01*
X146024992Y-100690685D01*
X146035303Y-100669487D01*
X146047641Y-100649401D01*
X146061889Y-100630622D01*
X146635379Y-99947164D01*
X146651399Y-99929871D01*
X146669037Y-99914233D01*
X146688122Y-99900398D01*
X146708472Y-99888500D01*
X146729890Y-99878655D01*
X146752170Y-99870956D01*
X146775097Y-99865478D01*
X146798451Y-99862274D01*
X146822006Y-99861374D01*
X146845536Y-99862788D01*
G37*
G36*
X143760866Y-96924753D02*
G01*
X143784220Y-96927957D01*
X143807147Y-96933435D01*
X143829427Y-96941134D01*
X143850845Y-96950979D01*
X143871195Y-96962877D01*
X143890280Y-96976712D01*
X143907918Y-96992350D01*
X143923938Y-97009643D01*
X144706334Y-97942067D01*
X144720582Y-97960846D01*
X144732920Y-97980932D01*
X144743231Y-98002130D01*
X144751414Y-98024236D01*
X144757390Y-98047039D01*
X144761103Y-98070317D01*
X144762517Y-98093847D01*
X144761617Y-98117402D01*
X144758413Y-98140756D01*
X144752935Y-98163683D01*
X144745236Y-98185963D01*
X144735391Y-98207381D01*
X144723493Y-98227731D01*
X144709658Y-98246816D01*
X144694019Y-98264454D01*
X144676727Y-98280474D01*
X143993269Y-98853964D01*
X143974490Y-98868212D01*
X143954405Y-98880550D01*
X143933206Y-98890861D01*
X143911100Y-98899044D01*
X143888298Y-98905020D01*
X143865019Y-98908733D01*
X143841489Y-98910147D01*
X143817934Y-98909247D01*
X143794580Y-98906043D01*
X143771653Y-98900565D01*
X143749373Y-98892866D01*
X143727955Y-98883021D01*
X143707605Y-98871123D01*
X143688520Y-98857288D01*
X143670882Y-98841650D01*
X143654862Y-98824357D01*
X142872466Y-97891933D01*
X142858218Y-97873154D01*
X142845880Y-97853068D01*
X142835569Y-97831870D01*
X142827386Y-97809764D01*
X142821410Y-97786961D01*
X142817697Y-97763683D01*
X142816283Y-97740153D01*
X142817183Y-97716598D01*
X142820387Y-97693244D01*
X142825865Y-97670317D01*
X142833564Y-97648037D01*
X142843409Y-97626619D01*
X142855307Y-97606269D01*
X142869142Y-97587184D01*
X142884781Y-97569546D01*
X142902073Y-97553526D01*
X143585531Y-96980036D01*
X143604310Y-96965788D01*
X143624395Y-96953450D01*
X143645594Y-96943139D01*
X143667700Y-96934956D01*
X143690502Y-96928980D01*
X143713781Y-96925267D01*
X143737311Y-96923853D01*
X143760866Y-96924753D01*
G37*
G36*
X146039848Y-95012459D02*
G01*
X146063202Y-95015663D01*
X146086129Y-95021141D01*
X146108409Y-95028840D01*
X146129827Y-95038685D01*
X146150177Y-95050583D01*
X146169262Y-95064418D01*
X146186900Y-95080056D01*
X146202920Y-95097349D01*
X146985316Y-96029773D01*
X146999564Y-96048552D01*
X147011902Y-96068638D01*
X147022213Y-96089836D01*
X147030396Y-96111942D01*
X147036372Y-96134745D01*
X147040085Y-96158023D01*
X147041499Y-96181553D01*
X147040599Y-96205108D01*
X147037395Y-96228462D01*
X147031917Y-96251389D01*
X147024218Y-96273669D01*
X147014373Y-96295087D01*
X147002475Y-96315437D01*
X146988640Y-96334522D01*
X146973001Y-96352160D01*
X146955709Y-96368180D01*
X146272251Y-96941670D01*
X146253472Y-96955918D01*
X146233387Y-96968256D01*
X146212188Y-96978567D01*
X146190082Y-96986750D01*
X146167280Y-96992726D01*
X146144001Y-96996439D01*
X146120471Y-96997853D01*
X146096916Y-96996953D01*
X146073562Y-96993749D01*
X146050635Y-96988271D01*
X146028355Y-96980572D01*
X146006937Y-96970727D01*
X145986587Y-96958829D01*
X145967502Y-96944994D01*
X145949864Y-96929356D01*
X145933844Y-96912063D01*
X145151448Y-95979639D01*
X145137200Y-95960860D01*
X145124862Y-95940774D01*
X145114551Y-95919576D01*
X145106368Y-95897470D01*
X145100392Y-95874667D01*
X145096679Y-95851389D01*
X145095265Y-95827859D01*
X145096165Y-95804304D01*
X145099369Y-95780950D01*
X145104847Y-95758023D01*
X145112546Y-95735743D01*
X145122391Y-95714325D01*
X145134289Y-95693975D01*
X145148124Y-95674890D01*
X145163763Y-95657252D01*
X145181055Y-95641232D01*
X145864513Y-95067742D01*
X145883292Y-95053494D01*
X145903377Y-95041156D01*
X145924576Y-95030845D01*
X145946682Y-95022662D01*
X145969484Y-95016686D01*
X145992763Y-95012973D01*
X146016293Y-95011559D01*
X146039848Y-95012459D01*
G37*
D11*
X154686000Y-81788000D03*
D12*
X141886000Y-81788000D03*
X167486000Y-81788000D03*
D10*
G36*
X127861567Y-108987297D02*
G01*
X127863530Y-108987588D01*
X127865454Y-108988070D01*
X127867322Y-108988739D01*
X127869115Y-108989587D01*
X127870816Y-108990607D01*
X127872410Y-108991788D01*
X127873879Y-108993121D01*
X127875212Y-108994590D01*
X127876393Y-108996184D01*
X127877413Y-108997885D01*
X127878261Y-108999678D01*
X127878930Y-109001546D01*
X127879412Y-109003470D01*
X127879703Y-109005433D01*
X127879800Y-109007414D01*
X127879800Y-112214586D01*
X127879703Y-112216567D01*
X127879412Y-112218530D01*
X127878930Y-112220454D01*
X127878261Y-112222322D01*
X127877413Y-112224115D01*
X127876393Y-112225816D01*
X127875212Y-112227410D01*
X127873879Y-112228879D01*
X127872410Y-112230212D01*
X127870816Y-112231393D01*
X127869115Y-112232413D01*
X127867322Y-112233261D01*
X127865454Y-112233930D01*
X127863530Y-112234412D01*
X127861567Y-112234703D01*
X127859586Y-112234800D01*
X126552414Y-112234800D01*
X126550433Y-112234703D01*
X126548470Y-112234412D01*
X126546546Y-112233930D01*
X126544678Y-112233261D01*
X126542885Y-112232413D01*
X126541184Y-112231393D01*
X126539590Y-112230212D01*
X126538121Y-112228879D01*
X126536788Y-112227410D01*
X126535607Y-112225816D01*
X126534587Y-112224115D01*
X126533739Y-112222322D01*
X126533070Y-112220454D01*
X126532588Y-112218530D01*
X126532297Y-112216567D01*
X126532200Y-112214586D01*
X126532200Y-109007414D01*
X126532297Y-109005433D01*
X126532588Y-109003470D01*
X126533070Y-109001546D01*
X126533739Y-108999678D01*
X126534587Y-108997885D01*
X126535607Y-108996184D01*
X126536788Y-108994590D01*
X126538121Y-108993121D01*
X126539590Y-108991788D01*
X126541184Y-108990607D01*
X126542885Y-108989587D01*
X126544678Y-108988739D01*
X126546546Y-108988070D01*
X126548470Y-108987588D01*
X126550433Y-108987297D01*
X126552414Y-108987200D01*
X127859586Y-108987200D01*
X127861567Y-108987297D01*
G37*
G36*
X134561567Y-108987297D02*
G01*
X134563530Y-108987588D01*
X134565454Y-108988070D01*
X134567322Y-108988739D01*
X134569115Y-108989587D01*
X134570816Y-108990607D01*
X134572410Y-108991788D01*
X134573879Y-108993121D01*
X134575212Y-108994590D01*
X134576393Y-108996184D01*
X134577413Y-108997885D01*
X134578261Y-108999678D01*
X134578930Y-109001546D01*
X134579412Y-109003470D01*
X134579703Y-109005433D01*
X134579800Y-109007414D01*
X134579800Y-112214586D01*
X134579703Y-112216567D01*
X134579412Y-112218530D01*
X134578930Y-112220454D01*
X134578261Y-112222322D01*
X134577413Y-112224115D01*
X134576393Y-112225816D01*
X134575212Y-112227410D01*
X134573879Y-112228879D01*
X134572410Y-112230212D01*
X134570816Y-112231393D01*
X134569115Y-112232413D01*
X134567322Y-112233261D01*
X134565454Y-112233930D01*
X134563530Y-112234412D01*
X134561567Y-112234703D01*
X134559586Y-112234800D01*
X133252414Y-112234800D01*
X133250433Y-112234703D01*
X133248470Y-112234412D01*
X133246546Y-112233930D01*
X133244678Y-112233261D01*
X133242885Y-112232413D01*
X133241184Y-112231393D01*
X133239590Y-112230212D01*
X133238121Y-112228879D01*
X133236788Y-112227410D01*
X133235607Y-112225816D01*
X133234587Y-112224115D01*
X133233739Y-112222322D01*
X133233070Y-112220454D01*
X133232588Y-112218530D01*
X133232297Y-112216567D01*
X133232200Y-112214586D01*
X133232200Y-109007414D01*
X133232297Y-109005433D01*
X133232588Y-109003470D01*
X133233070Y-109001546D01*
X133233739Y-108999678D01*
X133234587Y-108997885D01*
X133235607Y-108996184D01*
X133236788Y-108994590D01*
X133238121Y-108993121D01*
X133239590Y-108991788D01*
X133241184Y-108990607D01*
X133242885Y-108989587D01*
X133244678Y-108988739D01*
X133246546Y-108988070D01*
X133248470Y-108987588D01*
X133250433Y-108987297D01*
X133252414Y-108987200D01*
X134559586Y-108987200D01*
X134561567Y-108987297D01*
G37*
D13*
X129556000Y-116361000D03*
D10*
G36*
X131968332Y-114687261D02*
G01*
X131969566Y-114687444D01*
X131970777Y-114687747D01*
X131971951Y-114688168D01*
X131973079Y-114688701D01*
X131974150Y-114689343D01*
X131975152Y-114690086D01*
X131976076Y-114690924D01*
X131976914Y-114691848D01*
X131977657Y-114692850D01*
X131978299Y-114693921D01*
X131978832Y-114695049D01*
X131979253Y-114696223D01*
X131979556Y-114697434D01*
X131979739Y-114698668D01*
X131979800Y-114699914D01*
X131979800Y-118022086D01*
X131979739Y-118023332D01*
X131979556Y-118024566D01*
X131979253Y-118025777D01*
X131978832Y-118026951D01*
X131978299Y-118028079D01*
X131977657Y-118029150D01*
X131976914Y-118030152D01*
X131976076Y-118031076D01*
X131975152Y-118031914D01*
X131974150Y-118032657D01*
X131973079Y-118033299D01*
X131971951Y-118033832D01*
X131970777Y-118034253D01*
X131969566Y-118034556D01*
X131968332Y-118034739D01*
X131967086Y-118034800D01*
X131144914Y-118034800D01*
X131143668Y-118034739D01*
X131142434Y-118034556D01*
X131141223Y-118034253D01*
X131140049Y-118033832D01*
X131138921Y-118033299D01*
X131137850Y-118032657D01*
X131136848Y-118031914D01*
X131135924Y-118031076D01*
X131135086Y-118030152D01*
X131134343Y-118029150D01*
X131133701Y-118028079D01*
X131133168Y-118026951D01*
X131132747Y-118025777D01*
X131132444Y-118024566D01*
X131132261Y-118023332D01*
X131132200Y-118022086D01*
X131132200Y-114699914D01*
X131132261Y-114698668D01*
X131132444Y-114697434D01*
X131132747Y-114696223D01*
X131133168Y-114695049D01*
X131133701Y-114693921D01*
X131134343Y-114692850D01*
X131135086Y-114691848D01*
X131135924Y-114690924D01*
X131136848Y-114690086D01*
X131137850Y-114689343D01*
X131138921Y-114688701D01*
X131140049Y-114688168D01*
X131141223Y-114687747D01*
X131142434Y-114687444D01*
X131143668Y-114687261D01*
X131144914Y-114687200D01*
X131967086Y-114687200D01*
X131968332Y-114687261D01*
G37*
D14*
X163727400Y-125603000D03*
X160427400Y-123063000D03*
X163727400Y-120523000D03*
D15*
X159588200Y-111126000D03*
X157048200Y-114426000D03*
X154508200Y-111126000D03*
X151968200Y-114426000D03*
X149428200Y-111126000D03*
X146888200Y-114426000D03*
D10*
G36*
X167857421Y-114137275D02*
G01*
X167879093Y-114140490D01*
X167900347Y-114145814D01*
X167920976Y-114153195D01*
X167940782Y-114162563D01*
X167959575Y-114173827D01*
X167977174Y-114186878D01*
X167993408Y-114201592D01*
X168008122Y-114217826D01*
X168021173Y-114235425D01*
X168032437Y-114254218D01*
X168041805Y-114274024D01*
X168049186Y-114294653D01*
X168054510Y-114315907D01*
X168057725Y-114337579D01*
X168058800Y-114359463D01*
X168058800Y-115510537D01*
X168057725Y-115532421D01*
X168054510Y-115554093D01*
X168049186Y-115575347D01*
X168041805Y-115595976D01*
X168032437Y-115615782D01*
X168021173Y-115634575D01*
X168008122Y-115652174D01*
X167993408Y-115668408D01*
X167977174Y-115683122D01*
X167959575Y-115696173D01*
X167940782Y-115707437D01*
X167920976Y-115716805D01*
X167900347Y-115724186D01*
X167879093Y-115729510D01*
X167857421Y-115732725D01*
X167835537Y-115733800D01*
X167009463Y-115733800D01*
X166987579Y-115732725D01*
X166965907Y-115729510D01*
X166944653Y-115724186D01*
X166924024Y-115716805D01*
X166904218Y-115707437D01*
X166885425Y-115696173D01*
X166867826Y-115683122D01*
X166851592Y-115668408D01*
X166836878Y-115652174D01*
X166823827Y-115634575D01*
X166812563Y-115615782D01*
X166803195Y-115595976D01*
X166795814Y-115575347D01*
X166790490Y-115554093D01*
X166787275Y-115532421D01*
X166786200Y-115510537D01*
X166786200Y-114359463D01*
X166787275Y-114337579D01*
X166790490Y-114315907D01*
X166795814Y-114294653D01*
X166803195Y-114274024D01*
X166812563Y-114254218D01*
X166823827Y-114235425D01*
X166836878Y-114217826D01*
X166851592Y-114201592D01*
X166867826Y-114186878D01*
X166885425Y-114173827D01*
X166904218Y-114162563D01*
X166924024Y-114153195D01*
X166944653Y-114145814D01*
X166965907Y-114140490D01*
X166987579Y-114137275D01*
X167009463Y-114136200D01*
X167835537Y-114136200D01*
X167857421Y-114137275D01*
G37*
G36*
X170832421Y-114137275D02*
G01*
X170854093Y-114140490D01*
X170875347Y-114145814D01*
X170895976Y-114153195D01*
X170915782Y-114162563D01*
X170934575Y-114173827D01*
X170952174Y-114186878D01*
X170968408Y-114201592D01*
X170983122Y-114217826D01*
X170996173Y-114235425D01*
X171007437Y-114254218D01*
X171016805Y-114274024D01*
X171024186Y-114294653D01*
X171029510Y-114315907D01*
X171032725Y-114337579D01*
X171033800Y-114359463D01*
X171033800Y-115510537D01*
X171032725Y-115532421D01*
X171029510Y-115554093D01*
X171024186Y-115575347D01*
X171016805Y-115595976D01*
X171007437Y-115615782D01*
X170996173Y-115634575D01*
X170983122Y-115652174D01*
X170968408Y-115668408D01*
X170952174Y-115683122D01*
X170934575Y-115696173D01*
X170915782Y-115707437D01*
X170895976Y-115716805D01*
X170875347Y-115724186D01*
X170854093Y-115729510D01*
X170832421Y-115732725D01*
X170810537Y-115733800D01*
X169984463Y-115733800D01*
X169962579Y-115732725D01*
X169940907Y-115729510D01*
X169919653Y-115724186D01*
X169899024Y-115716805D01*
X169879218Y-115707437D01*
X169860425Y-115696173D01*
X169842826Y-115683122D01*
X169826592Y-115668408D01*
X169811878Y-115652174D01*
X169798827Y-115634575D01*
X169787563Y-115615782D01*
X169778195Y-115595976D01*
X169770814Y-115575347D01*
X169765490Y-115554093D01*
X169762275Y-115532421D01*
X169761200Y-115510537D01*
X169761200Y-114359463D01*
X169762275Y-114337579D01*
X169765490Y-114315907D01*
X169770814Y-114294653D01*
X169778195Y-114274024D01*
X169787563Y-114254218D01*
X169798827Y-114235425D01*
X169811878Y-114217826D01*
X169826592Y-114201592D01*
X169842826Y-114186878D01*
X169860425Y-114173827D01*
X169879218Y-114162563D01*
X169899024Y-114153195D01*
X169919653Y-114145814D01*
X169940907Y-114140490D01*
X169962579Y-114137275D01*
X169984463Y-114136200D01*
X170810537Y-114136200D01*
X170832421Y-114137275D01*
G37*
D16*
X179282000Y-113589000D03*
X174032000Y-113589000D03*
X179282000Y-116789000D03*
X174032000Y-116789000D03*
M02*
