G04 #@! TF.GenerationSoftware,KiCad,Pcbnew,5.1.5-52549c5~86~ubuntu18.04.1*
G04 #@! TF.CreationDate,2020-04-16T18:44:58-06:00*
G04 #@! TF.ProjectId,001,3030312e-6b69-4636-9164-5f7063625858,rev?*
G04 #@! TF.SameCoordinates,Original*
G04 #@! TF.FileFunction,Soldermask,Bot*
G04 #@! TF.FilePolarity,Negative*
%FSLAX46Y46*%
G04 Gerber Fmt 4.6, Leading zero omitted, Abs format (unit mm)*
G04 Created by KiCad (PCBNEW 5.1.5-52549c5~86~ubuntu18.04.1) date 2020-04-16 18:44:58*
%MOMM*%
%LPD*%
G04 APERTURE LIST*
%ADD10C,0.010000*%
%ADD11C,0.100000*%
G04 APERTURE END LIST*
D10*
G36*
X141231323Y-93350202D02*
G01*
X141299461Y-93386186D01*
X141394661Y-93443516D01*
X141513620Y-93520030D01*
X141653039Y-93613567D01*
X141809616Y-93721963D01*
X141980052Y-93843057D01*
X142120766Y-93945137D01*
X142525789Y-94241078D01*
X142900724Y-94514001D01*
X143249214Y-94766462D01*
X143574902Y-95001023D01*
X143881433Y-95220241D01*
X144172449Y-95426675D01*
X144451594Y-95622885D01*
X144722511Y-95811431D01*
X144988845Y-95994870D01*
X145254238Y-96175761D01*
X145522334Y-96356665D01*
X145796776Y-96540140D01*
X146081209Y-96728745D01*
X146127407Y-96759251D01*
X146750473Y-97165212D01*
X147364020Y-97554533D01*
X147966093Y-97926140D01*
X148554736Y-98278958D01*
X149127996Y-98611912D01*
X149683918Y-98923926D01*
X150220546Y-99213927D01*
X150735927Y-99480840D01*
X151228105Y-99723588D01*
X151695126Y-99941099D01*
X152135035Y-100132296D01*
X152545878Y-100296105D01*
X152588192Y-100312024D01*
X153026587Y-100453600D01*
X153476226Y-100555513D01*
X153933331Y-100617591D01*
X154394125Y-100639663D01*
X154854828Y-100621557D01*
X155311663Y-100563101D01*
X155760852Y-100464122D01*
X155785326Y-100457481D01*
X156045763Y-100377783D01*
X156337640Y-100273202D01*
X156658978Y-100144840D01*
X157007797Y-99993800D01*
X157382118Y-99821184D01*
X157779961Y-99628094D01*
X158199348Y-99415633D01*
X158638299Y-99184904D01*
X159094835Y-98937009D01*
X159566976Y-98673050D01*
X160052744Y-98394130D01*
X160550158Y-98101351D01*
X161057239Y-97795816D01*
X161572009Y-97478627D01*
X162092487Y-97150887D01*
X162616694Y-96813698D01*
X163142652Y-96468162D01*
X163668381Y-96115383D01*
X164052659Y-95852687D01*
X164223151Y-95734546D01*
X164410000Y-95603884D01*
X164610003Y-95463021D01*
X164819959Y-95314277D01*
X165036663Y-95159972D01*
X165256914Y-95002425D01*
X165477508Y-94843957D01*
X165695243Y-94686887D01*
X165906916Y-94533536D01*
X166109325Y-94386223D01*
X166299265Y-94247268D01*
X166473535Y-94118991D01*
X166628932Y-94003712D01*
X166762252Y-93903750D01*
X166870294Y-93821426D01*
X166949855Y-93759060D01*
X166994826Y-93721585D01*
X167074119Y-93657904D01*
X167168342Y-93592909D01*
X167268341Y-93531778D01*
X167364959Y-93479694D01*
X167449041Y-93441834D01*
X167511431Y-93423379D01*
X167523673Y-93422394D01*
X167572966Y-93440442D01*
X167602945Y-93486335D01*
X167607501Y-93547696D01*
X167599804Y-93576599D01*
X167577669Y-93618753D01*
X167534475Y-93687986D01*
X167474890Y-93777758D01*
X167403580Y-93881527D01*
X167325212Y-93992752D01*
X167244453Y-94104893D01*
X167165970Y-94211408D01*
X167094430Y-94305756D01*
X167034499Y-94381397D01*
X166990845Y-94431789D01*
X166986347Y-94436407D01*
X166962334Y-94464275D01*
X166917881Y-94519304D01*
X166858169Y-94594951D01*
X166788377Y-94684676D01*
X166741609Y-94745428D01*
X166540894Y-95005221D01*
X166316363Y-95292247D01*
X166071879Y-95601704D01*
X165811303Y-95928792D01*
X165538496Y-96268710D01*
X165257320Y-96616658D01*
X164971636Y-96967835D01*
X164685307Y-97317441D01*
X164402193Y-97660674D01*
X164221812Y-97877977D01*
X163592974Y-98627028D01*
X162979551Y-99344631D01*
X162381870Y-100030469D01*
X161800256Y-100684225D01*
X161235036Y-101305585D01*
X160686537Y-101894230D01*
X160155084Y-102449846D01*
X159641003Y-102972116D01*
X159144621Y-103460725D01*
X158666265Y-103915354D01*
X158206260Y-104335689D01*
X157764933Y-104721414D01*
X157342610Y-105072211D01*
X156939617Y-105387765D01*
X156556280Y-105667760D01*
X156192926Y-105911880D01*
X155849882Y-106119807D01*
X155555385Y-106277427D01*
X155294201Y-106400469D01*
X155059065Y-106495641D01*
X154845258Y-106564150D01*
X154648059Y-106607205D01*
X154462751Y-106626011D01*
X154284612Y-106621776D01*
X154231326Y-106616127D01*
X153994809Y-106571957D01*
X153741793Y-106496129D01*
X153471046Y-106388053D01*
X153181333Y-106247137D01*
X152871422Y-106072791D01*
X152540079Y-105864424D01*
X152252243Y-105668271D01*
X151892379Y-105405022D01*
X151511465Y-105106643D01*
X151110512Y-104774134D01*
X150690533Y-104408493D01*
X150252540Y-104010721D01*
X149797546Y-103581816D01*
X149326563Y-103122778D01*
X148840603Y-102634607D01*
X148340678Y-102118301D01*
X147827801Y-101574860D01*
X147302985Y-101005284D01*
X146767241Y-100410571D01*
X146221582Y-99791722D01*
X145765255Y-99264394D01*
X145536547Y-98996758D01*
X145299165Y-98716792D01*
X145054713Y-98426493D01*
X144804794Y-98127856D01*
X144551011Y-97822878D01*
X144294966Y-97513554D01*
X144038263Y-97201881D01*
X143782504Y-96889854D01*
X143529294Y-96579469D01*
X143280234Y-96272723D01*
X143036927Y-95971612D01*
X142800978Y-95678130D01*
X142573988Y-95394276D01*
X142357561Y-95122043D01*
X142153299Y-94863429D01*
X141962807Y-94620429D01*
X141787686Y-94395040D01*
X141629540Y-94189257D01*
X141489971Y-94005076D01*
X141370584Y-93844494D01*
X141272980Y-93709506D01*
X141198763Y-93602109D01*
X141149535Y-93524297D01*
X141136977Y-93501468D01*
X141112458Y-93428214D01*
X141120347Y-93373556D01*
X141158849Y-93342687D01*
X141193545Y-93337727D01*
X141231323Y-93350202D01*
G37*
X141231323Y-93350202D02*
X141299461Y-93386186D01*
X141394661Y-93443516D01*
X141513620Y-93520030D01*
X141653039Y-93613567D01*
X141809616Y-93721963D01*
X141980052Y-93843057D01*
X142120766Y-93945137D01*
X142525789Y-94241078D01*
X142900724Y-94514001D01*
X143249214Y-94766462D01*
X143574902Y-95001023D01*
X143881433Y-95220241D01*
X144172449Y-95426675D01*
X144451594Y-95622885D01*
X144722511Y-95811431D01*
X144988845Y-95994870D01*
X145254238Y-96175761D01*
X145522334Y-96356665D01*
X145796776Y-96540140D01*
X146081209Y-96728745D01*
X146127407Y-96759251D01*
X146750473Y-97165212D01*
X147364020Y-97554533D01*
X147966093Y-97926140D01*
X148554736Y-98278958D01*
X149127996Y-98611912D01*
X149683918Y-98923926D01*
X150220546Y-99213927D01*
X150735927Y-99480840D01*
X151228105Y-99723588D01*
X151695126Y-99941099D01*
X152135035Y-100132296D01*
X152545878Y-100296105D01*
X152588192Y-100312024D01*
X153026587Y-100453600D01*
X153476226Y-100555513D01*
X153933331Y-100617591D01*
X154394125Y-100639663D01*
X154854828Y-100621557D01*
X155311663Y-100563101D01*
X155760852Y-100464122D01*
X155785326Y-100457481D01*
X156045763Y-100377783D01*
X156337640Y-100273202D01*
X156658978Y-100144840D01*
X157007797Y-99993800D01*
X157382118Y-99821184D01*
X157779961Y-99628094D01*
X158199348Y-99415633D01*
X158638299Y-99184904D01*
X159094835Y-98937009D01*
X159566976Y-98673050D01*
X160052744Y-98394130D01*
X160550158Y-98101351D01*
X161057239Y-97795816D01*
X161572009Y-97478627D01*
X162092487Y-97150887D01*
X162616694Y-96813698D01*
X163142652Y-96468162D01*
X163668381Y-96115383D01*
X164052659Y-95852687D01*
X164223151Y-95734546D01*
X164410000Y-95603884D01*
X164610003Y-95463021D01*
X164819959Y-95314277D01*
X165036663Y-95159972D01*
X165256914Y-95002425D01*
X165477508Y-94843957D01*
X165695243Y-94686887D01*
X165906916Y-94533536D01*
X166109325Y-94386223D01*
X166299265Y-94247268D01*
X166473535Y-94118991D01*
X166628932Y-94003712D01*
X166762252Y-93903750D01*
X166870294Y-93821426D01*
X166949855Y-93759060D01*
X166994826Y-93721585D01*
X167074119Y-93657904D01*
X167168342Y-93592909D01*
X167268341Y-93531778D01*
X167364959Y-93479694D01*
X167449041Y-93441834D01*
X167511431Y-93423379D01*
X167523673Y-93422394D01*
X167572966Y-93440442D01*
X167602945Y-93486335D01*
X167607501Y-93547696D01*
X167599804Y-93576599D01*
X167577669Y-93618753D01*
X167534475Y-93687986D01*
X167474890Y-93777758D01*
X167403580Y-93881527D01*
X167325212Y-93992752D01*
X167244453Y-94104893D01*
X167165970Y-94211408D01*
X167094430Y-94305756D01*
X167034499Y-94381397D01*
X166990845Y-94431789D01*
X166986347Y-94436407D01*
X166962334Y-94464275D01*
X166917881Y-94519304D01*
X166858169Y-94594951D01*
X166788377Y-94684676D01*
X166741609Y-94745428D01*
X166540894Y-95005221D01*
X166316363Y-95292247D01*
X166071879Y-95601704D01*
X165811303Y-95928792D01*
X165538496Y-96268710D01*
X165257320Y-96616658D01*
X164971636Y-96967835D01*
X164685307Y-97317441D01*
X164402193Y-97660674D01*
X164221812Y-97877977D01*
X163592974Y-98627028D01*
X162979551Y-99344631D01*
X162381870Y-100030469D01*
X161800256Y-100684225D01*
X161235036Y-101305585D01*
X160686537Y-101894230D01*
X160155084Y-102449846D01*
X159641003Y-102972116D01*
X159144621Y-103460725D01*
X158666265Y-103915354D01*
X158206260Y-104335689D01*
X157764933Y-104721414D01*
X157342610Y-105072211D01*
X156939617Y-105387765D01*
X156556280Y-105667760D01*
X156192926Y-105911880D01*
X155849882Y-106119807D01*
X155555385Y-106277427D01*
X155294201Y-106400469D01*
X155059065Y-106495641D01*
X154845258Y-106564150D01*
X154648059Y-106607205D01*
X154462751Y-106626011D01*
X154284612Y-106621776D01*
X154231326Y-106616127D01*
X153994809Y-106571957D01*
X153741793Y-106496129D01*
X153471046Y-106388053D01*
X153181333Y-106247137D01*
X152871422Y-106072791D01*
X152540079Y-105864424D01*
X152252243Y-105668271D01*
X151892379Y-105405022D01*
X151511465Y-105106643D01*
X151110512Y-104774134D01*
X150690533Y-104408493D01*
X150252540Y-104010721D01*
X149797546Y-103581816D01*
X149326563Y-103122778D01*
X148840603Y-102634607D01*
X148340678Y-102118301D01*
X147827801Y-101574860D01*
X147302985Y-101005284D01*
X146767241Y-100410571D01*
X146221582Y-99791722D01*
X145765255Y-99264394D01*
X145536547Y-98996758D01*
X145299165Y-98716792D01*
X145054713Y-98426493D01*
X144804794Y-98127856D01*
X144551011Y-97822878D01*
X144294966Y-97513554D01*
X144038263Y-97201881D01*
X143782504Y-96889854D01*
X143529294Y-96579469D01*
X143280234Y-96272723D01*
X143036927Y-95971612D01*
X142800978Y-95678130D01*
X142573988Y-95394276D01*
X142357561Y-95122043D01*
X142153299Y-94863429D01*
X141962807Y-94620429D01*
X141787686Y-94395040D01*
X141629540Y-94189257D01*
X141489971Y-94005076D01*
X141370584Y-93844494D01*
X141272980Y-93709506D01*
X141198763Y-93602109D01*
X141149535Y-93524297D01*
X141136977Y-93501468D01*
X141112458Y-93428214D01*
X141120347Y-93373556D01*
X141158849Y-93342687D01*
X141193545Y-93337727D01*
X141231323Y-93350202D01*
D11*
G36*
X172378623Y-110942496D02*
G01*
X172872839Y-110637681D01*
X172779819Y-110630781D01*
X172685079Y-110615280D01*
X172710919Y-110508483D01*
X172740199Y-110396516D01*
X172750539Y-110413746D01*
X172817719Y-110494707D01*
X172871119Y-110579117D01*
X172891789Y-110610127D01*
X172910739Y-110641137D01*
X172891789Y-110639437D01*
X172872839Y-110637737D01*
X172872839Y-110637681D01*
X172378623Y-110942496D01*
X172409633Y-111002786D01*
X172456143Y-111056186D01*
X172514713Y-111094086D01*
X172583613Y-111111316D01*
X172614623Y-111099256D01*
X172630123Y-111088926D01*
X172640463Y-111083726D01*
X172647363Y-111078526D01*
X172668033Y-111069926D01*
X172661133Y-111047536D01*
X172662833Y-111026866D01*
X172683503Y-111004476D01*
X172693843Y-110994135D01*
X172702443Y-110983806D01*
X172731723Y-110951076D01*
X172685213Y-110939016D01*
X172628363Y-110908006D01*
X172616303Y-110844266D01*
X172674873Y-110842566D01*
X172721383Y-110854626D01*
X172785113Y-110870126D01*
X172854013Y-110875326D01*
X172879853Y-110875326D01*
X172905693Y-110871926D01*
X172922913Y-110868526D01*
X172929813Y-110847856D01*
X172936713Y-110840956D01*
X172955663Y-110818566D01*
X172959063Y-110780666D01*
X172969393Y-110749655D01*
X172984893Y-110792716D01*
X172991793Y-110809946D01*
X173009023Y-110813346D01*
X173014223Y-110821946D01*
X173015923Y-110830546D01*
X173024523Y-110859826D01*
X173031423Y-110866726D01*
X173038323Y-110871926D01*
X173046923Y-110902936D01*
X173057263Y-110932216D01*
X173072763Y-110977006D01*
X173076163Y-111018346D01*
X173083063Y-111037296D01*
X173102013Y-111054526D01*
X173122683Y-111064856D01*
X173133023Y-111071756D01*
X173141623Y-111075156D01*
X173146823Y-111094106D01*
X173167493Y-111097506D01*
X173195053Y-111102706D01*
X173212283Y-111104406D01*
X173229513Y-111102706D01*
X173258793Y-111078586D01*
X173282913Y-111059636D01*
X173300133Y-111028626D01*
X173303533Y-111009675D01*
X173306933Y-110992446D01*
X173312133Y-110982116D01*
X173334523Y-110961446D01*
X173315573Y-110945946D01*
X173313873Y-110916666D01*
X173241523Y-110747857D01*
X173160563Y-110582492D01*
X173134723Y-110527372D01*
X173107163Y-110472251D01*
X173108863Y-110460191D01*
X173105463Y-110444691D01*
X173074453Y-110393011D01*
X173050333Y-110344781D01*
X173022773Y-110287941D01*
X172984873Y-110231102D01*
X172957313Y-110219041D01*
X172945253Y-110215641D01*
X172929753Y-110212241D01*
X172903913Y-110215641D01*
X172819513Y-110153631D01*
X172745443Y-110055441D01*
X172728213Y-110031331D01*
X172705823Y-110045111D01*
X172681703Y-110055441D01*
X172648973Y-110064041D01*
X172590403Y-110079541D01*
X172545613Y-110105381D01*
X172533553Y-110146721D01*
X172528353Y-110174281D01*
X172519753Y-110232851D01*
X172512853Y-110298311D01*
X172499073Y-110356881D01*
X172487013Y-110413721D01*
X172469783Y-110494682D01*
X172447393Y-110567032D01*
X172430163Y-110568732D01*
X172412943Y-110563532D01*
X172390553Y-110560132D01*
X172371603Y-110558432D01*
X172364703Y-110575662D01*
X172347473Y-110592892D01*
X172314743Y-110603232D01*
X172295793Y-110618732D01*
X172282013Y-110629072D01*
X172256173Y-110639402D01*
X172269953Y-110665242D01*
X172319903Y-110725532D01*
X172390523Y-110772042D01*
X172388823Y-110792712D01*
X172383623Y-110811662D01*
X172375023Y-110871952D01*
X172375023Y-110935682D01*
X172378623Y-110942496D01*
G37*
G36*
X173306924Y-110788824D02*
G01*
X173415445Y-110904235D01*
X173563584Y-110971415D01*
X173734116Y-111017925D01*
X173904649Y-111071325D01*
X173947709Y-111073025D01*
X173982159Y-111078225D01*
X174013169Y-111083425D01*
X174047619Y-111086825D01*
X174056219Y-111090225D01*
X174061419Y-111097125D01*
X174114819Y-111102325D01*
X174152719Y-111102325D01*
X174195779Y-111107525D01*
X174233679Y-111112725D01*
X174436940Y-111021425D01*
X174517900Y-110783713D01*
X174521300Y-110773383D01*
X174528200Y-110768183D01*
X174524800Y-110738903D01*
X174523100Y-110707893D01*
X174421470Y-110532193D01*
X174285389Y-110387498D01*
X174264719Y-110366828D01*
X174249219Y-110346158D01*
X174230269Y-110328928D01*
X174204429Y-110316868D01*
X174118299Y-110241078D01*
X174013224Y-110175618D01*
X173904704Y-110111888D01*
X173804794Y-110039538D01*
X173777234Y-110044738D01*
X173758284Y-110044738D01*
X173725554Y-110080908D01*
X173682494Y-110103298D01*
X173641154Y-110129138D01*
X173611874Y-110170478D01*
X173622214Y-110179078D01*
X173617014Y-110194578D01*
X173615314Y-110210078D01*
X173627374Y-110216978D01*
X173617044Y-110227318D01*
X173606704Y-110235918D01*
X173611904Y-110249698D01*
X173611904Y-110266928D01*
X173689424Y-110309988D01*
X173777274Y-110354778D01*
X173872014Y-110404728D01*
X173966754Y-110465018D01*
X174061494Y-110542539D01*
X174154514Y-110630389D01*
X174238924Y-110726849D01*
X174306104Y-110823309D01*
X174299204Y-110837089D01*
X174290604Y-110849149D01*
X174188974Y-110849149D01*
X174092514Y-110854349D01*
X174085614Y-110844009D01*
X174077014Y-110833669D01*
X173894424Y-110802659D01*
X173722169Y-110756149D01*
X173748009Y-110747549D01*
X173768679Y-110738949D01*
X173768679Y-110725169D01*
X173751449Y-110711389D01*
X173791069Y-110676939D01*
X173808299Y-110621819D01*
X173797969Y-110601149D01*
X173808299Y-110582199D01*
X173816899Y-110582199D01*
X173820299Y-110587399D01*
X173821999Y-110594299D01*
X173830599Y-110592599D01*
X173823699Y-110566759D01*
X173813359Y-110542649D01*
X173694504Y-110463408D01*
X173647994Y-110494419D01*
X173591154Y-110527149D01*
X173529144Y-110559879D01*
X173468854Y-110590889D01*
X173425794Y-110618449D01*
X173389624Y-110654619D01*
X173355174Y-110689069D01*
X173312114Y-110718349D01*
X173310414Y-110754519D01*
X173307014Y-110788969D01*
X173306924Y-110788824D01*
G37*
G36*
X174643622Y-110954189D02*
G01*
X175141438Y-110656188D01*
X175048418Y-110649288D01*
X174953678Y-110633788D01*
X174979518Y-110526990D01*
X175008798Y-110415023D01*
X175019128Y-110432253D01*
X175086308Y-110513214D01*
X175139708Y-110597624D01*
X175160378Y-110628634D01*
X175179328Y-110659644D01*
X175160378Y-110657944D01*
X175141428Y-110656244D01*
X175141438Y-110656188D01*
X174643622Y-110954189D01*
X174674632Y-111014479D01*
X174721142Y-111067879D01*
X174779712Y-111105779D01*
X174848612Y-111123009D01*
X174879622Y-111110949D01*
X174895122Y-111100619D01*
X174905462Y-111095419D01*
X174912362Y-111090219D01*
X174933032Y-111081619D01*
X174926132Y-111059229D01*
X174927832Y-111038559D01*
X174948502Y-111016169D01*
X174958842Y-111005829D01*
X174967442Y-110995498D01*
X174996722Y-110962769D01*
X174950212Y-110950709D01*
X174893362Y-110919699D01*
X174881302Y-110855959D01*
X174939872Y-110854259D01*
X174986382Y-110866319D01*
X175050112Y-110881819D01*
X175119012Y-110887019D01*
X175144852Y-110887019D01*
X175170692Y-110883619D01*
X175187912Y-110880219D01*
X175194812Y-110859549D01*
X175201712Y-110852649D01*
X175220662Y-110830259D01*
X175224062Y-110792359D01*
X175234392Y-110761349D01*
X175249892Y-110804409D01*
X175256792Y-110821639D01*
X175274022Y-110825039D01*
X175279222Y-110833639D01*
X175280922Y-110842239D01*
X175289522Y-110871519D01*
X175296422Y-110878419D01*
X175303322Y-110883619D01*
X175311922Y-110914629D01*
X175322262Y-110943909D01*
X175337762Y-110988699D01*
X175341162Y-111030039D01*
X175348062Y-111048989D01*
X175367012Y-111066219D01*
X175387682Y-111076549D01*
X175398022Y-111083449D01*
X175406622Y-111086849D01*
X175411822Y-111105799D01*
X175432492Y-111109199D01*
X175460052Y-111114399D01*
X175477282Y-111116099D01*
X175494512Y-111114399D01*
X175523792Y-111090279D01*
X175547912Y-111071329D01*
X175565132Y-111040319D01*
X175568532Y-111021369D01*
X175571932Y-111004139D01*
X175577132Y-110993809D01*
X175599522Y-110973139D01*
X175580572Y-110957639D01*
X175578872Y-110928359D01*
X175506522Y-110759550D01*
X175425562Y-110594185D01*
X175399722Y-110539065D01*
X175372162Y-110483944D01*
X175373862Y-110471884D01*
X175370462Y-110456384D01*
X175339452Y-110404704D01*
X175315332Y-110356474D01*
X175287772Y-110299634D01*
X175249872Y-110242794D01*
X175222312Y-110230735D01*
X175210252Y-110227334D01*
X175194752Y-110223934D01*
X175168912Y-110227334D01*
X175084512Y-110165324D01*
X175010442Y-110067134D01*
X174993212Y-110043024D01*
X174970822Y-110056804D01*
X174946702Y-110067134D01*
X174913972Y-110075734D01*
X174855402Y-110091234D01*
X174810612Y-110117074D01*
X174798552Y-110158414D01*
X174793352Y-110185974D01*
X174784752Y-110244544D01*
X174777852Y-110310004D01*
X174764072Y-110368574D01*
X174752012Y-110425414D01*
X174734792Y-110506375D01*
X174712402Y-110578725D01*
X174695172Y-110580425D01*
X174677952Y-110575225D01*
X174655562Y-110571825D01*
X174636612Y-110570125D01*
X174629712Y-110587355D01*
X174612482Y-110604585D01*
X174579752Y-110614925D01*
X174560802Y-110630425D01*
X174547022Y-110640765D01*
X174521182Y-110651095D01*
X174534962Y-110676935D01*
X174584912Y-110737225D01*
X174655532Y-110783735D01*
X174653832Y-110804405D01*
X174648632Y-110823355D01*
X174640032Y-110883645D01*
X174640032Y-110947375D01*
X174643622Y-110954189D01*
G37*
G36*
X176197360Y-110785379D02*
G01*
X176219750Y-110804329D01*
X176233530Y-110833609D01*
X176245590Y-110862889D01*
X176262820Y-110874949D01*
X176273150Y-110899069D01*
X176286930Y-110921459D01*
X176297260Y-110945579D01*
X176293860Y-110974859D01*
X176311080Y-111004139D01*
X176319680Y-111040309D01*
X176333460Y-111069589D01*
X176371360Y-111079929D01*
X176373060Y-111088529D01*
X176367860Y-111100589D01*
X176397140Y-111102289D01*
X176419530Y-111110889D01*
X176474650Y-111074719D01*
X176512550Y-111017879D01*
X176541830Y-110952419D01*
X176565950Y-110895579D01*
X176564250Y-110859409D01*
X176576310Y-110828399D01*
X176554970Y-110783239D01*
X176533140Y-110737319D01*
X176510830Y-110690649D01*
X176488030Y-110643229D01*
X176464750Y-110595049D01*
X176440980Y-110546119D01*
X176416730Y-110496429D01*
X176391990Y-110445988D01*
X176367170Y-110395248D01*
X176342680Y-110344678D01*
X176318510Y-110294268D01*
X176294660Y-110244018D01*
X176271140Y-110193928D01*
X176247940Y-110143998D01*
X176225060Y-110094228D01*
X176202510Y-110044628D01*
X176125000Y-110080798D01*
X176054380Y-110125588D01*
X175999260Y-110185878D01*
X175969980Y-110259948D01*
X175978580Y-110268548D01*
X175985480Y-110270248D01*
X175978580Y-110282308D01*
X175978580Y-110289208D01*
X175978580Y-110299548D01*
X175973380Y-110315048D01*
X175983710Y-110316748D01*
X175994050Y-110316748D01*
X175990650Y-110347758D01*
X175997550Y-110370148D01*
X176006150Y-110390818D01*
X176004450Y-110418378D01*
X176013050Y-110421778D01*
X176016450Y-110426979D01*
X176021650Y-110432178D01*
X176028550Y-110432178D01*
X176025150Y-110507969D01*
X176028550Y-110585479D01*
X176026850Y-110666439D01*
X176014790Y-110752569D01*
X175916610Y-110659549D01*
X175856320Y-110532080D01*
X175820150Y-110380495D01*
X175794310Y-110215130D01*
X175770190Y-110177230D01*
X175754690Y-110130720D01*
X175740910Y-110080770D01*
X175723680Y-110034260D01*
X175680620Y-110051490D01*
X175646170Y-110079050D01*
X175613440Y-110106610D01*
X175570380Y-110122110D01*
X175532480Y-110178950D01*
X175510090Y-110237520D01*
X175523870Y-110268530D01*
X175532470Y-110302980D01*
X175546250Y-110335710D01*
X175570370Y-110359830D01*
X175584150Y-110442510D01*
X175599650Y-110514861D01*
X175611710Y-110590651D01*
X175615110Y-110675051D01*
X175644390Y-110759451D01*
X175668510Y-110840411D01*
X175711570Y-110893811D01*
X175744300Y-110955821D01*
X175752900Y-110959221D01*
X175764960Y-110954021D01*
X175764960Y-110964361D01*
X175770160Y-110971261D01*
X175773560Y-110978161D01*
X175770160Y-110991941D01*
X175813220Y-111021221D01*
X175854560Y-111055671D01*
X175906240Y-111076341D01*
X175983750Y-111064281D01*
X176109496Y-110945425D01*
X176197346Y-110785228D01*
X176197360Y-110785379D01*
G37*
G36*
X176705512Y-110647575D02*
G01*
X176726182Y-110673415D01*
X176743412Y-110702695D01*
X176762362Y-110738865D01*
X176788202Y-110769875D01*
X176805432Y-110811215D01*
X176832992Y-110843945D01*
X176913952Y-110993807D01*
X176924292Y-111024817D01*
X176939792Y-111052377D01*
X176946692Y-111064437D01*
X176951892Y-111073037D01*
X176955292Y-111090267D01*
X176974242Y-111114387D01*
X176993192Y-111133337D01*
X177005252Y-111147117D01*
X177031092Y-111157447D01*
X177184398Y-111023089D01*
X177182698Y-111005859D01*
X177177498Y-110988639D01*
X177170598Y-110967969D01*
X177155098Y-110919739D01*
X177125818Y-110876679D01*
X177110318Y-110838779D01*
X177068978Y-110757819D01*
X177031078Y-110692359D01*
X177008688Y-110654459D01*
X177050028Y-110604509D01*
X177089648Y-110521829D01*
X177113768Y-110451208D01*
X177118968Y-110413308D01*
X177125868Y-110380578D01*
X177134468Y-110342678D01*
X177137868Y-110303058D01*
X177148198Y-110278938D01*
X177144798Y-110261708D01*
X177143098Y-110230698D01*
X177151698Y-110189358D01*
X177160298Y-110151458D01*
X177161998Y-110110118D01*
X177151658Y-110072218D01*
X177118928Y-110039488D01*
X177089648Y-110037788D01*
X177060368Y-110055018D01*
X177031088Y-110070518D01*
X176994918Y-110087748D01*
X176958748Y-110110138D01*
X176946688Y-110134258D01*
X176924298Y-110153208D01*
X176924298Y-110172158D01*
X176922598Y-110191108D01*
X176915698Y-110218668D01*
X176908798Y-110239339D01*
X176903598Y-110285848D01*
X176893268Y-110325468D01*
X176882938Y-110365088D01*
X176881238Y-110409878D01*
X176864008Y-110397818D01*
X176857108Y-110392618D01*
X176850208Y-110387418D01*
X176748578Y-110249614D01*
X176751978Y-110232384D01*
X176715808Y-110197934D01*
X176689968Y-110172094D01*
X176667578Y-110146254D01*
X176648628Y-110132474D01*
X176491876Y-110025676D01*
X176467756Y-110022276D01*
X176460856Y-110044666D01*
X176433296Y-110079116D01*
X176386786Y-110108396D01*
X176371286Y-110118736D01*
X176362686Y-110144576D01*
X176364386Y-110160076D01*
X176357486Y-110177306D01*
X176391936Y-110237596D01*
X176429836Y-110272046D01*
X176459116Y-110297886D01*
X176478066Y-110325446D01*
X176490126Y-110339226D01*
X176536636Y-110394346D01*
X176541836Y-110415016D01*
X176562506Y-110415016D01*
X176571106Y-110421916D01*
X176588336Y-110451196D01*
X176605556Y-110473586D01*
X176614156Y-110482187D01*
X176619356Y-110495967D01*
X176624556Y-110509747D01*
X176652116Y-110544197D01*
X176664176Y-110568317D01*
X176677956Y-110595877D01*
X176696906Y-110621717D01*
X176705512Y-110647575D01*
G37*
G36*
X177215386Y-110129087D02*
G01*
X177215386Y-110148037D01*
X177217086Y-110158367D01*
X177217086Y-110170427D01*
X177213686Y-110187657D01*
X177298096Y-110268617D01*
X177399726Y-110299627D01*
X177513414Y-110318577D01*
X177627102Y-110363367D01*
X177668442Y-110363367D01*
X177720122Y-110368567D01*
X177745962Y-110384067D01*
X177776972Y-110392667D01*
X177771772Y-110425398D01*
X177766572Y-110451237D01*
X177633935Y-110449537D01*
X177489241Y-110440937D01*
X177490941Y-110452997D01*
X177492641Y-110461597D01*
X177468521Y-110483987D01*
X177444401Y-110508108D01*
X177420281Y-110528778D01*
X177389271Y-110533978D01*
X177380671Y-110564988D01*
X177384071Y-110597718D01*
X177439191Y-110637338D01*
X177497761Y-110671788D01*
X177561491Y-110697628D01*
X177635561Y-110704528D01*
X177649341Y-110704528D01*
X177659681Y-110699328D01*
X177699301Y-110704528D01*
X177737201Y-110709728D01*
X177783711Y-110702828D01*
X177830221Y-110695928D01*
X177880171Y-110773438D01*
X177919791Y-110861288D01*
X177823331Y-110868188D01*
X177749261Y-110862988D01*
X177678641Y-110854388D01*
X177587341Y-110850988D01*
X177506381Y-110826868D01*
X177418531Y-110806198D01*
X177394411Y-110825148D01*
X177375461Y-110849268D01*
X177354791Y-110868218D01*
X177328951Y-110875118D01*
X177320351Y-110892348D01*
X177315151Y-110909568D01*
X177309951Y-110925068D01*
X177294451Y-110928468D01*
X177354741Y-111016318D01*
X177430531Y-111061108D01*
X177526991Y-111085218D01*
X177642402Y-111105888D01*
X177668242Y-111104188D01*
X177692362Y-111100788D01*
X177787102Y-111116288D01*
X177899068Y-111121488D01*
X178007588Y-111105988D01*
X178091988Y-111061198D01*
X178110938Y-111033638D01*
X178133328Y-111007798D01*
X178140228Y-110957848D01*
X178150558Y-110901008D01*
X178159158Y-110840718D01*
X178155758Y-110787318D01*
X178135088Y-110740808D01*
X178123028Y-110696018D01*
X178112688Y-110687418D01*
X178098908Y-110680518D01*
X178076518Y-110621948D01*
X178052398Y-110568548D01*
X178026558Y-110516868D01*
X178000718Y-110456577D01*
X178036888Y-110408347D01*
X178052388Y-110354947D01*
X178060988Y-110299827D01*
X178073048Y-110241257D01*
X178031708Y-110199917D01*
X177976588Y-110172357D01*
X177912848Y-110155127D01*
X177840498Y-110139627D01*
X177718197Y-110105177D01*
X177611399Y-110086227D01*
X177501156Y-110070727D01*
X177371965Y-110050057D01*
X177342685Y-110065557D01*
X177327185Y-110056957D01*
X177318585Y-110046627D01*
X177275525Y-110096577D01*
X177215235Y-110129307D01*
X177215386Y-110129087D01*
G37*
G36*
X179268664Y-110950743D02*
G01*
X178845093Y-110341105D01*
X178874373Y-110420345D01*
X178722789Y-110380725D01*
X178572927Y-110318715D01*
X178617717Y-110217085D01*
X178693507Y-110163685D01*
X178693513Y-110163685D01*
X178743463Y-110223975D01*
X178798583Y-110279095D01*
X178845093Y-110341105D01*
X179268664Y-110950743D01*
X179284164Y-110938683D01*
X179299664Y-110909403D01*
X179280714Y-110909403D01*
X179287614Y-110840503D01*
X179272114Y-110778493D01*
X179258334Y-110719923D01*
X179263534Y-110659633D01*
X179251474Y-110656233D01*
X179244574Y-110632113D01*
X179242874Y-110601103D01*
X179244574Y-110573543D01*
X179210124Y-110463299D01*
X179186004Y-110351334D01*
X179163614Y-110242813D01*
X179129164Y-110142903D01*
X179079214Y-110149803D01*
X179043044Y-110172193D01*
X178948304Y-110072283D01*
X178865624Y-109958595D01*
X178769164Y-109858685D01*
X178636527Y-109807005D01*
X178543507Y-109870735D01*
X178459097Y-109953415D01*
X178433257Y-109972365D01*
X178405697Y-109989595D01*
X178405697Y-110015435D01*
X178366077Y-110068835D01*
X178336797Y-110132565D01*
X178310957Y-110199745D01*
X178283397Y-110263475D01*
X178286797Y-110282425D01*
X178283397Y-110297925D01*
X178278197Y-110315145D01*
X178276497Y-110337535D01*
X178336787Y-110485674D01*
X178464256Y-110576975D01*
X178622730Y-110637265D01*
X178776037Y-110690665D01*
X178769137Y-110697565D01*
X178763937Y-110707895D01*
X178684697Y-110757845D01*
X178631297Y-110790575D01*
X178576177Y-110811245D01*
X178491767Y-110831915D01*
X178409087Y-110852585D01*
X178353967Y-110864645D01*
X178302287Y-110871545D01*
X178228217Y-110880145D01*
X178197207Y-110924935D01*
X178179977Y-110976615D01*
X178178277Y-111026565D01*
X178192057Y-111062735D01*
X178183457Y-111069635D01*
X178166237Y-111069635D01*
X178186907Y-111090305D01*
X178204137Y-111114425D01*
X178224807Y-111136815D01*
X178252367Y-111148875D01*
X178410842Y-111150575D01*
X178657166Y-111071335D01*
X178777744Y-111021385D01*
X178858704Y-110978325D01*
X178922434Y-110931815D01*
X178989614Y-110871525D01*
X178996514Y-110878425D01*
X179001714Y-110885325D01*
X179029274Y-110997289D01*
X179080954Y-111085140D01*
X179118854Y-111090340D01*
X179141244Y-111109290D01*
X179167084Y-111107590D01*
X179182584Y-111098990D01*
X179198084Y-111088650D01*
X179225644Y-111085250D01*
X179235984Y-111055970D01*
X179263544Y-111042190D01*
X179260144Y-111016350D01*
X179265344Y-110995679D01*
X179272244Y-110975010D01*
X179268844Y-110950890D01*
X179268664Y-110950743D01*
G37*
G36*
X180803799Y-110682371D02*
G01*
X180798599Y-110647921D01*
X180796899Y-110608301D01*
X180676320Y-110398149D01*
X180512678Y-110225894D01*
X180488568Y-110201774D01*
X180469618Y-110175934D01*
X180447228Y-110155264D01*
X180416218Y-110141484D01*
X180312866Y-110050184D01*
X180187120Y-109970944D01*
X180056206Y-109893434D01*
X179935628Y-109807304D01*
X179906348Y-109815904D01*
X179882228Y-109814204D01*
X179842608Y-109860714D01*
X179790928Y-109886554D01*
X179740978Y-109917564D01*
X179704808Y-109965794D01*
X179716868Y-109974394D01*
X179711668Y-109993344D01*
X179708268Y-110012294D01*
X179723768Y-110020894D01*
X179711708Y-110032954D01*
X179699648Y-110045014D01*
X179704848Y-110062234D01*
X179704848Y-110081184D01*
X179797868Y-110134584D01*
X179904666Y-110186264D01*
X180018354Y-110246554D01*
X180132042Y-110318904D01*
X180247453Y-110410204D01*
X180357696Y-110517003D01*
X180457606Y-110632414D01*
X180536846Y-110747825D01*
X180528246Y-110763325D01*
X180517916Y-110778825D01*
X180395615Y-110778825D01*
X180281927Y-110785725D01*
X180273327Y-110771945D01*
X180262987Y-110759885D01*
X180044223Y-110721985D01*
X179837517Y-110666865D01*
X179892637Y-110647915D01*
X179892637Y-110630685D01*
X179873687Y-110613465D01*
X179920197Y-110572125D01*
X179940867Y-110504945D01*
X179928807Y-110480834D01*
X179940867Y-110458444D01*
X179951207Y-110458444D01*
X179954607Y-110465344D01*
X179958007Y-110472244D01*
X179966607Y-110472244D01*
X179958007Y-110441234D01*
X179947667Y-110411954D01*
X179804696Y-110317214D01*
X179749576Y-110353384D01*
X179680676Y-110391284D01*
X179606606Y-110430904D01*
X179535986Y-110468804D01*
X179482586Y-110503255D01*
X179439526Y-110544595D01*
X179398186Y-110585935D01*
X179348236Y-110620384D01*
X179344836Y-110665175D01*
X179341436Y-110706515D01*
X179420676Y-110806425D01*
X179525751Y-110875325D01*
X179648052Y-110925275D01*
X179782411Y-110963175D01*
X179921937Y-111001075D01*
X180058018Y-111045865D01*
X180107968Y-111047565D01*
X180147588Y-111052765D01*
X180185488Y-111059665D01*
X180226828Y-111064865D01*
X180238888Y-111068265D01*
X180245788Y-111076865D01*
X180307798Y-111082065D01*
X180354308Y-111082065D01*
X180404258Y-111088965D01*
X180452488Y-111094165D01*
X180695367Y-110983922D01*
X180791827Y-110699701D01*
X180795227Y-110689371D01*
X180803827Y-110682471D01*
X180803799Y-110682371D01*
G37*
D10*
G36*
X151760073Y-128516543D02*
G01*
X151870255Y-128518663D01*
X151956650Y-128523171D01*
X152028530Y-128530949D01*
X152095166Y-128542879D01*
X152165829Y-128559842D01*
X152213533Y-128572670D01*
X152539285Y-128683894D01*
X152849099Y-128833287D01*
X153140755Y-129018969D01*
X153412037Y-129239062D01*
X153660727Y-129491685D01*
X153884607Y-129774960D01*
X154081459Y-130087008D01*
X154148448Y-130212218D01*
X154204382Y-130329076D01*
X154235848Y-130411686D01*
X154243389Y-130459957D01*
X154227550Y-130473793D01*
X154188875Y-130453102D01*
X154127909Y-130397789D01*
X154045195Y-130307763D01*
X153987654Y-130239826D01*
X153733699Y-129959528D01*
X153467470Y-129716997D01*
X153190240Y-129513074D01*
X152903286Y-129348599D01*
X152607882Y-129224413D01*
X152327887Y-129146068D01*
X152197232Y-129125835D01*
X152046554Y-129114765D01*
X151889849Y-129112870D01*
X151741109Y-129120163D01*
X151614329Y-129136656D01*
X151574500Y-129145420D01*
X151381268Y-129208339D01*
X151210695Y-129294965D01*
X151051485Y-129411900D01*
X150939500Y-129516589D01*
X150816909Y-129652686D01*
X150719997Y-129790154D01*
X150641504Y-129941473D01*
X150574167Y-130119126D01*
X150556411Y-130175000D01*
X150519152Y-130348619D01*
X150507589Y-130533039D01*
X150521789Y-130712640D01*
X150553471Y-130847723D01*
X150632184Y-131033236D01*
X150748550Y-131221428D01*
X150903236Y-131412963D01*
X151096912Y-131608506D01*
X151330247Y-131808722D01*
X151603910Y-132014275D01*
X151918570Y-132225831D01*
X151979349Y-132264434D01*
X152143634Y-132365356D01*
X152335567Y-132478465D01*
X152557224Y-132604927D01*
X152810680Y-132745909D01*
X153098009Y-132902577D01*
X153421288Y-133076098D01*
X153458334Y-133095839D01*
X153690936Y-133220015D01*
X153890282Y-133327213D01*
X154060709Y-133419915D01*
X154206556Y-133500603D01*
X154332160Y-133571760D01*
X154441861Y-133635869D01*
X154539995Y-133695412D01*
X154630902Y-133752872D01*
X154718919Y-133810731D01*
X154781250Y-133852878D01*
X155097956Y-134080641D01*
X155373220Y-134303276D01*
X155607557Y-134521293D01*
X155801481Y-134735203D01*
X155955506Y-134945517D01*
X156052972Y-135116818D01*
X156123683Y-135279827D01*
X156166677Y-135432325D01*
X156186128Y-135591637D01*
X156188331Y-135678334D01*
X156174876Y-135877757D01*
X156132827Y-136050771D01*
X156059662Y-136204318D01*
X155952855Y-136345342D01*
X155941370Y-136357803D01*
X155787685Y-136494272D01*
X155615519Y-136597364D01*
X155431027Y-136664304D01*
X155240362Y-136692316D01*
X155198329Y-136692980D01*
X155117653Y-136691873D01*
X155074088Y-136689146D01*
X155062412Y-136683175D01*
X155077403Y-136672336D01*
X155098750Y-136662015D01*
X155148519Y-136640038D01*
X155223268Y-136608444D01*
X155308646Y-136573279D01*
X155327792Y-136565519D01*
X155513662Y-136477235D01*
X155660033Y-136377282D01*
X155768766Y-136263020D01*
X155841721Y-136131813D01*
X155880758Y-135981022D01*
X155887737Y-135808010D01*
X155885734Y-135774330D01*
X155847911Y-135543097D01*
X155769479Y-135316101D01*
X155652154Y-135096824D01*
X155497654Y-134888750D01*
X155393882Y-134776765D01*
X155305132Y-134691940D01*
X155210458Y-134609887D01*
X155107005Y-134529018D01*
X154991918Y-134447743D01*
X154862342Y-134364475D01*
X154715422Y-134277625D01*
X154548303Y-134185604D01*
X154358129Y-134086824D01*
X154142047Y-133979696D01*
X153897200Y-133862632D01*
X153620733Y-133734043D01*
X153309792Y-133592340D01*
X153076157Y-133487214D01*
X152751342Y-133340869D01*
X152461882Y-133208671D01*
X152203941Y-133088756D01*
X151973686Y-132979262D01*
X151767280Y-132878327D01*
X151580890Y-132784090D01*
X151410680Y-132694686D01*
X151252815Y-132608255D01*
X151172164Y-132562628D01*
X150875459Y-132384969D01*
X150617593Y-132213004D01*
X150395905Y-132044081D01*
X150207730Y-131875547D01*
X150050406Y-131704750D01*
X149921270Y-131529036D01*
X149817659Y-131345754D01*
X149736911Y-131152250D01*
X149726829Y-131122847D01*
X149703923Y-131052761D01*
X149687065Y-130994000D01*
X149675310Y-130938065D01*
X149667715Y-130876454D01*
X149663334Y-130800670D01*
X149661223Y-130702213D01*
X149660438Y-130572582D01*
X149660315Y-130524250D01*
X149662635Y-130325824D01*
X149671902Y-130159554D01*
X149690098Y-130015555D01*
X149719207Y-129883941D01*
X149761213Y-129754826D01*
X149818096Y-129618326D01*
X149859879Y-129529417D01*
X149992739Y-129296510D01*
X150151292Y-129095361D01*
X150338842Y-128922660D01*
X150558693Y-128775098D01*
X150674917Y-128713091D01*
X150813494Y-128647416D01*
X150935983Y-128597754D01*
X151052429Y-128562001D01*
X151172874Y-128538055D01*
X151307361Y-128523815D01*
X151465934Y-128517179D01*
X151616834Y-128515931D01*
X151760073Y-128516543D01*
G37*
X151760073Y-128516543D02*
X151870255Y-128518663D01*
X151956650Y-128523171D01*
X152028530Y-128530949D01*
X152095166Y-128542879D01*
X152165829Y-128559842D01*
X152213533Y-128572670D01*
X152539285Y-128683894D01*
X152849099Y-128833287D01*
X153140755Y-129018969D01*
X153412037Y-129239062D01*
X153660727Y-129491685D01*
X153884607Y-129774960D01*
X154081459Y-130087008D01*
X154148448Y-130212218D01*
X154204382Y-130329076D01*
X154235848Y-130411686D01*
X154243389Y-130459957D01*
X154227550Y-130473793D01*
X154188875Y-130453102D01*
X154127909Y-130397789D01*
X154045195Y-130307763D01*
X153987654Y-130239826D01*
X153733699Y-129959528D01*
X153467470Y-129716997D01*
X153190240Y-129513074D01*
X152903286Y-129348599D01*
X152607882Y-129224413D01*
X152327887Y-129146068D01*
X152197232Y-129125835D01*
X152046554Y-129114765D01*
X151889849Y-129112870D01*
X151741109Y-129120163D01*
X151614329Y-129136656D01*
X151574500Y-129145420D01*
X151381268Y-129208339D01*
X151210695Y-129294965D01*
X151051485Y-129411900D01*
X150939500Y-129516589D01*
X150816909Y-129652686D01*
X150719997Y-129790154D01*
X150641504Y-129941473D01*
X150574167Y-130119126D01*
X150556411Y-130175000D01*
X150519152Y-130348619D01*
X150507589Y-130533039D01*
X150521789Y-130712640D01*
X150553471Y-130847723D01*
X150632184Y-131033236D01*
X150748550Y-131221428D01*
X150903236Y-131412963D01*
X151096912Y-131608506D01*
X151330247Y-131808722D01*
X151603910Y-132014275D01*
X151918570Y-132225831D01*
X151979349Y-132264434D01*
X152143634Y-132365356D01*
X152335567Y-132478465D01*
X152557224Y-132604927D01*
X152810680Y-132745909D01*
X153098009Y-132902577D01*
X153421288Y-133076098D01*
X153458334Y-133095839D01*
X153690936Y-133220015D01*
X153890282Y-133327213D01*
X154060709Y-133419915D01*
X154206556Y-133500603D01*
X154332160Y-133571760D01*
X154441861Y-133635869D01*
X154539995Y-133695412D01*
X154630902Y-133752872D01*
X154718919Y-133810731D01*
X154781250Y-133852878D01*
X155097956Y-134080641D01*
X155373220Y-134303276D01*
X155607557Y-134521293D01*
X155801481Y-134735203D01*
X155955506Y-134945517D01*
X156052972Y-135116818D01*
X156123683Y-135279827D01*
X156166677Y-135432325D01*
X156186128Y-135591637D01*
X156188331Y-135678334D01*
X156174876Y-135877757D01*
X156132827Y-136050771D01*
X156059662Y-136204318D01*
X155952855Y-136345342D01*
X155941370Y-136357803D01*
X155787685Y-136494272D01*
X155615519Y-136597364D01*
X155431027Y-136664304D01*
X155240362Y-136692316D01*
X155198329Y-136692980D01*
X155117653Y-136691873D01*
X155074088Y-136689146D01*
X155062412Y-136683175D01*
X155077403Y-136672336D01*
X155098750Y-136662015D01*
X155148519Y-136640038D01*
X155223268Y-136608444D01*
X155308646Y-136573279D01*
X155327792Y-136565519D01*
X155513662Y-136477235D01*
X155660033Y-136377282D01*
X155768766Y-136263020D01*
X155841721Y-136131813D01*
X155880758Y-135981022D01*
X155887737Y-135808010D01*
X155885734Y-135774330D01*
X155847911Y-135543097D01*
X155769479Y-135316101D01*
X155652154Y-135096824D01*
X155497654Y-134888750D01*
X155393882Y-134776765D01*
X155305132Y-134691940D01*
X155210458Y-134609887D01*
X155107005Y-134529018D01*
X154991918Y-134447743D01*
X154862342Y-134364475D01*
X154715422Y-134277625D01*
X154548303Y-134185604D01*
X154358129Y-134086824D01*
X154142047Y-133979696D01*
X153897200Y-133862632D01*
X153620733Y-133734043D01*
X153309792Y-133592340D01*
X153076157Y-133487214D01*
X152751342Y-133340869D01*
X152461882Y-133208671D01*
X152203941Y-133088756D01*
X151973686Y-132979262D01*
X151767280Y-132878327D01*
X151580890Y-132784090D01*
X151410680Y-132694686D01*
X151252815Y-132608255D01*
X151172164Y-132562628D01*
X150875459Y-132384969D01*
X150617593Y-132213004D01*
X150395905Y-132044081D01*
X150207730Y-131875547D01*
X150050406Y-131704750D01*
X149921270Y-131529036D01*
X149817659Y-131345754D01*
X149736911Y-131152250D01*
X149726829Y-131122847D01*
X149703923Y-131052761D01*
X149687065Y-130994000D01*
X149675310Y-130938065D01*
X149667715Y-130876454D01*
X149663334Y-130800670D01*
X149661223Y-130702213D01*
X149660438Y-130572582D01*
X149660315Y-130524250D01*
X149662635Y-130325824D01*
X149671902Y-130159554D01*
X149690098Y-130015555D01*
X149719207Y-129883941D01*
X149761213Y-129754826D01*
X149818096Y-129618326D01*
X149859879Y-129529417D01*
X149992739Y-129296510D01*
X150151292Y-129095361D01*
X150338842Y-128922660D01*
X150558693Y-128775098D01*
X150674917Y-128713091D01*
X150813494Y-128647416D01*
X150935983Y-128597754D01*
X151052429Y-128562001D01*
X151172874Y-128538055D01*
X151307361Y-128523815D01*
X151465934Y-128517179D01*
X151616834Y-128515931D01*
X151760073Y-128516543D01*
G36*
X157146285Y-128347291D02*
G01*
X157200986Y-128352531D01*
X157506856Y-128401993D01*
X157784907Y-128482455D01*
X158034665Y-128593621D01*
X158255659Y-128735192D01*
X158447416Y-128906870D01*
X158609462Y-129108359D01*
X158729603Y-129315128D01*
X158795008Y-129455282D01*
X158844149Y-129581341D01*
X158879173Y-129703631D01*
X158902228Y-129832480D01*
X158915461Y-129978217D01*
X158921020Y-130151169D01*
X158921587Y-130238500D01*
X158919687Y-130421165D01*
X158913265Y-130568837D01*
X158901863Y-130688659D01*
X158887036Y-130778250D01*
X158791319Y-131139236D01*
X158654616Y-131495660D01*
X158478202Y-131845472D01*
X158263349Y-132186620D01*
X158011331Y-132517055D01*
X157723422Y-132834724D01*
X157447301Y-133096842D01*
X157255512Y-133260310D01*
X157044204Y-133428792D01*
X156825624Y-133593063D01*
X156612022Y-133743899D01*
X156428952Y-133863798D01*
X156287736Y-133948977D01*
X156144974Y-134029592D01*
X156005295Y-134103559D01*
X155873324Y-134168794D01*
X155753688Y-134223211D01*
X155651014Y-134264726D01*
X155569929Y-134291256D01*
X155515059Y-134300714D01*
X155491031Y-134291017D01*
X155490334Y-134286677D01*
X155496648Y-134273167D01*
X155517843Y-134250935D01*
X155557290Y-134217341D01*
X155618364Y-134169747D01*
X155704438Y-134105513D01*
X155818888Y-134022000D01*
X155945417Y-133930708D01*
X156196605Y-133744784D01*
X156421726Y-133566087D01*
X156633222Y-133384261D01*
X156843537Y-133188954D01*
X156884779Y-133149089D01*
X157189417Y-132834114D01*
X157452630Y-132521900D01*
X157674315Y-132212641D01*
X157854366Y-131906533D01*
X157992680Y-131603771D01*
X158089151Y-131304550D01*
X158143675Y-131009066D01*
X158157021Y-130773851D01*
X158138571Y-130508702D01*
X158083232Y-130260314D01*
X157989889Y-130026226D01*
X157857430Y-129803975D01*
X157684742Y-129591101D01*
X157569216Y-129474280D01*
X157348703Y-129292018D01*
X157114278Y-129149267D01*
X156867920Y-129046299D01*
X156611611Y-128983389D01*
X156347332Y-128960811D01*
X156077063Y-128978837D01*
X155802785Y-129037742D01*
X155526480Y-129137800D01*
X155436011Y-129179498D01*
X155259171Y-129274013D01*
X155090021Y-129383387D01*
X154922657Y-129512425D01*
X154751172Y-129665935D01*
X154569660Y-129848721D01*
X154437813Y-129991833D01*
X154378723Y-130053790D01*
X154328561Y-130099446D01*
X154294660Y-130122452D01*
X154285924Y-130123375D01*
X154276301Y-130094093D01*
X154292478Y-130038300D01*
X154331297Y-129960369D01*
X154389605Y-129864671D01*
X154464245Y-129755579D01*
X154552062Y-129637466D01*
X154649901Y-129514704D01*
X154754606Y-129391664D01*
X154863022Y-129272720D01*
X154971993Y-129162244D01*
X154996432Y-129138844D01*
X155268013Y-128908311D01*
X155554616Y-128715798D01*
X155854336Y-128561982D01*
X156165267Y-128447545D01*
X156485506Y-128373164D01*
X156813147Y-128339520D01*
X157146285Y-128347291D01*
G37*
X157146285Y-128347291D02*
X157200986Y-128352531D01*
X157506856Y-128401993D01*
X157784907Y-128482455D01*
X158034665Y-128593621D01*
X158255659Y-128735192D01*
X158447416Y-128906870D01*
X158609462Y-129108359D01*
X158729603Y-129315128D01*
X158795008Y-129455282D01*
X158844149Y-129581341D01*
X158879173Y-129703631D01*
X158902228Y-129832480D01*
X158915461Y-129978217D01*
X158921020Y-130151169D01*
X158921587Y-130238500D01*
X158919687Y-130421165D01*
X158913265Y-130568837D01*
X158901863Y-130688659D01*
X158887036Y-130778250D01*
X158791319Y-131139236D01*
X158654616Y-131495660D01*
X158478202Y-131845472D01*
X158263349Y-132186620D01*
X158011331Y-132517055D01*
X157723422Y-132834724D01*
X157447301Y-133096842D01*
X157255512Y-133260310D01*
X157044204Y-133428792D01*
X156825624Y-133593063D01*
X156612022Y-133743899D01*
X156428952Y-133863798D01*
X156287736Y-133948977D01*
X156144974Y-134029592D01*
X156005295Y-134103559D01*
X155873324Y-134168794D01*
X155753688Y-134223211D01*
X155651014Y-134264726D01*
X155569929Y-134291256D01*
X155515059Y-134300714D01*
X155491031Y-134291017D01*
X155490334Y-134286677D01*
X155496648Y-134273167D01*
X155517843Y-134250935D01*
X155557290Y-134217341D01*
X155618364Y-134169747D01*
X155704438Y-134105513D01*
X155818888Y-134022000D01*
X155945417Y-133930708D01*
X156196605Y-133744784D01*
X156421726Y-133566087D01*
X156633222Y-133384261D01*
X156843537Y-133188954D01*
X156884779Y-133149089D01*
X157189417Y-132834114D01*
X157452630Y-132521900D01*
X157674315Y-132212641D01*
X157854366Y-131906533D01*
X157992680Y-131603771D01*
X158089151Y-131304550D01*
X158143675Y-131009066D01*
X158157021Y-130773851D01*
X158138571Y-130508702D01*
X158083232Y-130260314D01*
X157989889Y-130026226D01*
X157857430Y-129803975D01*
X157684742Y-129591101D01*
X157569216Y-129474280D01*
X157348703Y-129292018D01*
X157114278Y-129149267D01*
X156867920Y-129046299D01*
X156611611Y-128983389D01*
X156347332Y-128960811D01*
X156077063Y-128978837D01*
X155802785Y-129037742D01*
X155526480Y-129137800D01*
X155436011Y-129179498D01*
X155259171Y-129274013D01*
X155090021Y-129383387D01*
X154922657Y-129512425D01*
X154751172Y-129665935D01*
X154569660Y-129848721D01*
X154437813Y-129991833D01*
X154378723Y-130053790D01*
X154328561Y-130099446D01*
X154294660Y-130122452D01*
X154285924Y-130123375D01*
X154276301Y-130094093D01*
X154292478Y-130038300D01*
X154331297Y-129960369D01*
X154389605Y-129864671D01*
X154464245Y-129755579D01*
X154552062Y-129637466D01*
X154649901Y-129514704D01*
X154754606Y-129391664D01*
X154863022Y-129272720D01*
X154971993Y-129162244D01*
X154996432Y-129138844D01*
X155268013Y-128908311D01*
X155554616Y-128715798D01*
X155854336Y-128561982D01*
X156165267Y-128447545D01*
X156485506Y-128373164D01*
X156813147Y-128339520D01*
X157146285Y-128347291D01*
G36*
X153602794Y-130674380D02*
G01*
X153667590Y-130706049D01*
X153713037Y-130747888D01*
X153722589Y-130766635D01*
X153727359Y-130785330D01*
X153727198Y-130805192D01*
X153719426Y-130831830D01*
X153701362Y-130870849D01*
X153670327Y-130927856D01*
X153623640Y-131008456D01*
X153558620Y-131118257D01*
X153537505Y-131153752D01*
X153389633Y-131402254D01*
X153467034Y-131582428D01*
X153507099Y-131683311D01*
X153525809Y-131755105D01*
X153522958Y-131805390D01*
X153498336Y-131841748D01*
X153459240Y-131867848D01*
X153401858Y-131885633D01*
X153338526Y-131887670D01*
X153287735Y-131874438D01*
X153273425Y-131863042D01*
X153256577Y-131833216D01*
X153226437Y-131771595D01*
X153185770Y-131684474D01*
X153137342Y-131578152D01*
X153083919Y-131458926D01*
X153028266Y-131333093D01*
X152973150Y-131206951D01*
X152921334Y-131086797D01*
X152875586Y-130978929D01*
X152838671Y-130889644D01*
X152813354Y-130825239D01*
X152802402Y-130792012D01*
X152802167Y-130789970D01*
X152820941Y-130738597D01*
X152868501Y-130698013D01*
X152931705Y-130673168D01*
X152997411Y-130669011D01*
X153052477Y-130690492D01*
X153056741Y-130694103D01*
X153087916Y-130727376D01*
X153098500Y-130746933D01*
X153106838Y-130771962D01*
X153128974Y-130825024D01*
X153160591Y-130895890D01*
X153169965Y-130916258D01*
X153241429Y-131070546D01*
X153361700Y-130866190D01*
X153416925Y-130774743D01*
X153457534Y-130714679D01*
X153488660Y-130679938D01*
X153515433Y-130664457D01*
X153534703Y-130661834D01*
X153602794Y-130674380D01*
G37*
X153602794Y-130674380D02*
X153667590Y-130706049D01*
X153713037Y-130747888D01*
X153722589Y-130766635D01*
X153727359Y-130785330D01*
X153727198Y-130805192D01*
X153719426Y-130831830D01*
X153701362Y-130870849D01*
X153670327Y-130927856D01*
X153623640Y-131008456D01*
X153558620Y-131118257D01*
X153537505Y-131153752D01*
X153389633Y-131402254D01*
X153467034Y-131582428D01*
X153507099Y-131683311D01*
X153525809Y-131755105D01*
X153522958Y-131805390D01*
X153498336Y-131841748D01*
X153459240Y-131867848D01*
X153401858Y-131885633D01*
X153338526Y-131887670D01*
X153287735Y-131874438D01*
X153273425Y-131863042D01*
X153256577Y-131833216D01*
X153226437Y-131771595D01*
X153185770Y-131684474D01*
X153137342Y-131578152D01*
X153083919Y-131458926D01*
X153028266Y-131333093D01*
X152973150Y-131206951D01*
X152921334Y-131086797D01*
X152875586Y-130978929D01*
X152838671Y-130889644D01*
X152813354Y-130825239D01*
X152802402Y-130792012D01*
X152802167Y-130789970D01*
X152820941Y-130738597D01*
X152868501Y-130698013D01*
X152931705Y-130673168D01*
X152997411Y-130669011D01*
X153052477Y-130690492D01*
X153056741Y-130694103D01*
X153087916Y-130727376D01*
X153098500Y-130746933D01*
X153106838Y-130771962D01*
X153128974Y-130825024D01*
X153160591Y-130895890D01*
X153169965Y-130916258D01*
X153241429Y-131070546D01*
X153361700Y-130866190D01*
X153416925Y-130774743D01*
X153457534Y-130714679D01*
X153488660Y-130679938D01*
X153515433Y-130664457D01*
X153534703Y-130661834D01*
X153602794Y-130674380D01*
G36*
X151534192Y-130345994D02*
G01*
X151624670Y-130351977D01*
X151686100Y-130363785D01*
X151725077Y-130382922D01*
X151748196Y-130410891D01*
X151753792Y-130423120D01*
X151764773Y-130465227D01*
X151778367Y-130537853D01*
X151792921Y-130629402D01*
X151806782Y-130728276D01*
X151818298Y-130822876D01*
X151825815Y-130901605D01*
X151827829Y-130942603D01*
X151821986Y-131001103D01*
X151795545Y-131039284D01*
X151759709Y-131064232D01*
X151677326Y-131100526D01*
X151607647Y-131099066D01*
X151562671Y-131075257D01*
X151511593Y-131050000D01*
X151477239Y-131043507D01*
X151425849Y-131060254D01*
X151382194Y-131101416D01*
X151362866Y-131151110D01*
X151362834Y-131153033D01*
X151380927Y-131198191D01*
X151426616Y-131228042D01*
X151487009Y-131239655D01*
X151549218Y-131230096D01*
X151591769Y-131205111D01*
X151655763Y-131172788D01*
X151727206Y-131174675D01*
X151790760Y-131209303D01*
X151805797Y-131225605D01*
X151843586Y-131295680D01*
X151840125Y-131360840D01*
X151795031Y-131425786D01*
X151789041Y-131431663D01*
X151699513Y-131492050D01*
X151586679Y-131531461D01*
X151465719Y-131546552D01*
X151351811Y-131533979D01*
X151339837Y-131530604D01*
X151229389Y-131476341D01*
X151143922Y-131391497D01*
X151088112Y-131282636D01*
X151066630Y-131156321D01*
X151066533Y-131146807D01*
X151084643Y-131019056D01*
X151135692Y-130909815D01*
X151214878Y-130824760D01*
X151317396Y-130769565D01*
X151400946Y-130751689D01*
X151462301Y-130743966D01*
X151491153Y-130732130D01*
X151497277Y-130709866D01*
X151494561Y-130691216D01*
X151487382Y-130666317D01*
X151471555Y-130651309D01*
X151438055Y-130643697D01*
X151377855Y-130640985D01*
X151311683Y-130640667D01*
X151214756Y-130637436D01*
X151145857Y-130628362D01*
X151113067Y-130615267D01*
X151094007Y-130572497D01*
X151088040Y-130508076D01*
X151094556Y-130440404D01*
X151112948Y-130387885D01*
X151120929Y-130377595D01*
X151144332Y-130362772D01*
X151184249Y-130352901D01*
X151247984Y-130347135D01*
X151342841Y-130344629D01*
X151408070Y-130344334D01*
X151534192Y-130345994D01*
G37*
X151534192Y-130345994D02*
X151624670Y-130351977D01*
X151686100Y-130363785D01*
X151725077Y-130382922D01*
X151748196Y-130410891D01*
X151753792Y-130423120D01*
X151764773Y-130465227D01*
X151778367Y-130537853D01*
X151792921Y-130629402D01*
X151806782Y-130728276D01*
X151818298Y-130822876D01*
X151825815Y-130901605D01*
X151827829Y-130942603D01*
X151821986Y-131001103D01*
X151795545Y-131039284D01*
X151759709Y-131064232D01*
X151677326Y-131100526D01*
X151607647Y-131099066D01*
X151562671Y-131075257D01*
X151511593Y-131050000D01*
X151477239Y-131043507D01*
X151425849Y-131060254D01*
X151382194Y-131101416D01*
X151362866Y-131151110D01*
X151362834Y-131153033D01*
X151380927Y-131198191D01*
X151426616Y-131228042D01*
X151487009Y-131239655D01*
X151549218Y-131230096D01*
X151591769Y-131205111D01*
X151655763Y-131172788D01*
X151727206Y-131174675D01*
X151790760Y-131209303D01*
X151805797Y-131225605D01*
X151843586Y-131295680D01*
X151840125Y-131360840D01*
X151795031Y-131425786D01*
X151789041Y-131431663D01*
X151699513Y-131492050D01*
X151586679Y-131531461D01*
X151465719Y-131546552D01*
X151351811Y-131533979D01*
X151339837Y-131530604D01*
X151229389Y-131476341D01*
X151143922Y-131391497D01*
X151088112Y-131282636D01*
X151066630Y-131156321D01*
X151066533Y-131146807D01*
X151084643Y-131019056D01*
X151135692Y-130909815D01*
X151214878Y-130824760D01*
X151317396Y-130769565D01*
X151400946Y-130751689D01*
X151462301Y-130743966D01*
X151491153Y-130732130D01*
X151497277Y-130709866D01*
X151494561Y-130691216D01*
X151487382Y-130666317D01*
X151471555Y-130651309D01*
X151438055Y-130643697D01*
X151377855Y-130640985D01*
X151311683Y-130640667D01*
X151214756Y-130637436D01*
X151145857Y-130628362D01*
X151113067Y-130615267D01*
X151094007Y-130572497D01*
X151088040Y-130508076D01*
X151094556Y-130440404D01*
X151112948Y-130387885D01*
X151120929Y-130377595D01*
X151144332Y-130362772D01*
X151184249Y-130352901D01*
X151247984Y-130347135D01*
X151342841Y-130344629D01*
X151408070Y-130344334D01*
X151534192Y-130345994D01*
G36*
X152449753Y-130344461D02*
G01*
X152546665Y-130379756D01*
X152626932Y-130444378D01*
X152663159Y-130487956D01*
X152697315Y-130561287D01*
X152713414Y-130655059D01*
X152710156Y-130750838D01*
X152687163Y-130828435D01*
X152666244Y-130874679D01*
X152666427Y-130907946D01*
X152689748Y-130948667D01*
X152700704Y-130964189D01*
X152736041Y-131042454D01*
X152751457Y-131139541D01*
X152746776Y-131239157D01*
X152721822Y-131325008D01*
X152704922Y-131353490D01*
X152605978Y-131453203D01*
X152485120Y-131518038D01*
X152366231Y-131543651D01*
X152286576Y-131546819D01*
X152224061Y-131537184D01*
X152156742Y-131510259D01*
X152124856Y-131494315D01*
X152015474Y-131420651D01*
X151942965Y-131329402D01*
X151903958Y-131216123D01*
X151901110Y-131199133D01*
X151898004Y-131156529D01*
X152209500Y-131156529D01*
X152225469Y-131215566D01*
X152273780Y-131247718D01*
X152328950Y-131254500D01*
X152396663Y-131239037D01*
X152430550Y-131207457D01*
X152458046Y-131160861D01*
X152456324Y-131127323D01*
X152423935Y-131087946D01*
X152421167Y-131085167D01*
X152363050Y-131050067D01*
X152301437Y-131046985D01*
X152248126Y-131071941D01*
X152214919Y-131120957D01*
X152209500Y-131156529D01*
X151898004Y-131156529D01*
X151896330Y-131133569D01*
X151907505Y-131075393D01*
X151938760Y-131004689D01*
X151943154Y-130996152D01*
X151974218Y-130933537D01*
X151986981Y-130892748D01*
X151983247Y-130858356D01*
X151964821Y-130814934D01*
X151964444Y-130814139D01*
X151940858Y-130723869D01*
X151941979Y-130675650D01*
X152233657Y-130675650D01*
X152242690Y-130710133D01*
X152263929Y-130734405D01*
X152310784Y-130764430D01*
X152360276Y-130756345D01*
X152390663Y-130737157D01*
X152418417Y-130706543D01*
X152410906Y-130672577D01*
X152408422Y-130668365D01*
X152365331Y-130632330D01*
X152308406Y-130623142D01*
X152261252Y-130641634D01*
X152233657Y-130675650D01*
X151941979Y-130675650D01*
X151943218Y-130622359D01*
X151970239Y-130529730D01*
X151984180Y-130504798D01*
X152022585Y-130459326D01*
X152077471Y-130408415D01*
X152096292Y-130393368D01*
X152143758Y-130361164D01*
X152189807Y-130343119D01*
X152249586Y-130335298D01*
X152325820Y-130333750D01*
X152449753Y-130344461D01*
G37*
X152449753Y-130344461D02*
X152546665Y-130379756D01*
X152626932Y-130444378D01*
X152663159Y-130487956D01*
X152697315Y-130561287D01*
X152713414Y-130655059D01*
X152710156Y-130750838D01*
X152687163Y-130828435D01*
X152666244Y-130874679D01*
X152666427Y-130907946D01*
X152689748Y-130948667D01*
X152700704Y-130964189D01*
X152736041Y-131042454D01*
X152751457Y-131139541D01*
X152746776Y-131239157D01*
X152721822Y-131325008D01*
X152704922Y-131353490D01*
X152605978Y-131453203D01*
X152485120Y-131518038D01*
X152366231Y-131543651D01*
X152286576Y-131546819D01*
X152224061Y-131537184D01*
X152156742Y-131510259D01*
X152124856Y-131494315D01*
X152015474Y-131420651D01*
X151942965Y-131329402D01*
X151903958Y-131216123D01*
X151901110Y-131199133D01*
X151898004Y-131156529D01*
X152209500Y-131156529D01*
X152225469Y-131215566D01*
X152273780Y-131247718D01*
X152328950Y-131254500D01*
X152396663Y-131239037D01*
X152430550Y-131207457D01*
X152458046Y-131160861D01*
X152456324Y-131127323D01*
X152423935Y-131087946D01*
X152421167Y-131085167D01*
X152363050Y-131050067D01*
X152301437Y-131046985D01*
X152248126Y-131071941D01*
X152214919Y-131120957D01*
X152209500Y-131156529D01*
X151898004Y-131156529D01*
X151896330Y-131133569D01*
X151907505Y-131075393D01*
X151938760Y-131004689D01*
X151943154Y-130996152D01*
X151974218Y-130933537D01*
X151986981Y-130892748D01*
X151983247Y-130858356D01*
X151964821Y-130814934D01*
X151964444Y-130814139D01*
X151940858Y-130723869D01*
X151941979Y-130675650D01*
X152233657Y-130675650D01*
X152242690Y-130710133D01*
X152263929Y-130734405D01*
X152310784Y-130764430D01*
X152360276Y-130756345D01*
X152390663Y-130737157D01*
X152418417Y-130706543D01*
X152410906Y-130672577D01*
X152408422Y-130668365D01*
X152365331Y-130632330D01*
X152308406Y-130623142D01*
X152261252Y-130641634D01*
X152233657Y-130675650D01*
X151941979Y-130675650D01*
X151943218Y-130622359D01*
X151970239Y-130529730D01*
X151984180Y-130504798D01*
X152022585Y-130459326D01*
X152077471Y-130408415D01*
X152096292Y-130393368D01*
X152143758Y-130361164D01*
X152189807Y-130343119D01*
X152249586Y-130335298D01*
X152325820Y-130333750D01*
X152449753Y-130344461D01*
G36*
X157122303Y-130359651D02*
G01*
X157169940Y-130391959D01*
X157191573Y-130422164D01*
X157227418Y-130483869D01*
X157274301Y-130570619D01*
X157329050Y-130675957D01*
X157388493Y-130793429D01*
X157449457Y-130916580D01*
X157508769Y-131038954D01*
X157563257Y-131154097D01*
X157609747Y-131255554D01*
X157645068Y-131336869D01*
X157666046Y-131391588D01*
X157670500Y-131410392D01*
X157651625Y-131454251D01*
X157603900Y-131493343D01*
X157540679Y-131519558D01*
X157481128Y-131525405D01*
X157437898Y-131518142D01*
X157406235Y-131498998D01*
X157376130Y-131458736D01*
X157342417Y-131397436D01*
X157278917Y-131275788D01*
X157072847Y-131275727D01*
X156866776Y-131275667D01*
X156804011Y-131400003D01*
X156757698Y-131479111D01*
X156713743Y-131531255D01*
X156677258Y-131550791D01*
X156668644Y-131549492D01*
X156648801Y-131541633D01*
X156612602Y-131527211D01*
X156542127Y-131487713D01*
X156496921Y-131439180D01*
X156485167Y-131401270D01*
X156494348Y-131370005D01*
X156519821Y-131307580D01*
X156558485Y-131220361D01*
X156607234Y-131114717D01*
X156651294Y-131021667D01*
X156993852Y-131021667D01*
X157161815Y-131021667D01*
X157126487Y-130947584D01*
X157100838Y-130900277D01*
X157081047Y-130874878D01*
X157077834Y-130873500D01*
X157061131Y-130890682D01*
X157036206Y-130933369D01*
X157029180Y-130947584D01*
X156993852Y-131021667D01*
X156651294Y-131021667D01*
X156662968Y-130997015D01*
X156722581Y-130873622D01*
X156782971Y-130750908D01*
X156841036Y-130635238D01*
X156893671Y-130532982D01*
X156937774Y-130450507D01*
X156970241Y-130394180D01*
X156987343Y-130370792D01*
X157052141Y-130345972D01*
X157122303Y-130359651D01*
G37*
X157122303Y-130359651D02*
X157169940Y-130391959D01*
X157191573Y-130422164D01*
X157227418Y-130483869D01*
X157274301Y-130570619D01*
X157329050Y-130675957D01*
X157388493Y-130793429D01*
X157449457Y-130916580D01*
X157508769Y-131038954D01*
X157563257Y-131154097D01*
X157609747Y-131255554D01*
X157645068Y-131336869D01*
X157666046Y-131391588D01*
X157670500Y-131410392D01*
X157651625Y-131454251D01*
X157603900Y-131493343D01*
X157540679Y-131519558D01*
X157481128Y-131525405D01*
X157437898Y-131518142D01*
X157406235Y-131498998D01*
X157376130Y-131458736D01*
X157342417Y-131397436D01*
X157278917Y-131275788D01*
X157072847Y-131275727D01*
X156866776Y-131275667D01*
X156804011Y-131400003D01*
X156757698Y-131479111D01*
X156713743Y-131531255D01*
X156677258Y-131550791D01*
X156668644Y-131549492D01*
X156648801Y-131541633D01*
X156612602Y-131527211D01*
X156542127Y-131487713D01*
X156496921Y-131439180D01*
X156485167Y-131401270D01*
X156494348Y-131370005D01*
X156519821Y-131307580D01*
X156558485Y-131220361D01*
X156607234Y-131114717D01*
X156651294Y-131021667D01*
X156993852Y-131021667D01*
X157161815Y-131021667D01*
X157126487Y-130947584D01*
X157100838Y-130900277D01*
X157081047Y-130874878D01*
X157077834Y-130873500D01*
X157061131Y-130890682D01*
X157036206Y-130933369D01*
X157029180Y-130947584D01*
X156993852Y-131021667D01*
X156651294Y-131021667D01*
X156662968Y-130997015D01*
X156722581Y-130873622D01*
X156782971Y-130750908D01*
X156841036Y-130635238D01*
X156893671Y-130532982D01*
X156937774Y-130450507D01*
X156970241Y-130394180D01*
X156987343Y-130370792D01*
X157052141Y-130345972D01*
X157122303Y-130359651D01*
G36*
X154512440Y-130683800D02*
G01*
X154565210Y-130701175D01*
X154571134Y-130705453D01*
X154582567Y-130723285D01*
X154590864Y-130758646D01*
X154596448Y-130817064D01*
X154599745Y-130904064D01*
X154601181Y-131025172D01*
X154601334Y-131097854D01*
X154601334Y-131465191D01*
X154548007Y-131500132D01*
X154491458Y-131520545D01*
X154423575Y-131523511D01*
X154361574Y-131510358D01*
X154322912Y-131482792D01*
X154315393Y-131450775D01*
X154309457Y-131387283D01*
X154305933Y-131303171D01*
X154305324Y-131252489D01*
X154301954Y-131138744D01*
X154290082Y-131060787D01*
X154266426Y-131012397D01*
X154227703Y-130987352D01*
X154170629Y-130979430D01*
X154161203Y-130979334D01*
X154115213Y-130985694D01*
X154083688Y-131008897D01*
X154064139Y-131055122D01*
X154054078Y-131130553D01*
X154051017Y-131241369D01*
X154051000Y-131253109D01*
X154049680Y-131348300D01*
X154044515Y-131411208D01*
X154033698Y-131451835D01*
X154015420Y-131480183D01*
X154008667Y-131487334D01*
X153946143Y-131521577D01*
X153864745Y-131524756D01*
X153800650Y-131507233D01*
X153780816Y-131497878D01*
X153767379Y-131483771D01*
X153759338Y-131457752D01*
X153755688Y-131412656D01*
X153755426Y-131341320D01*
X153757549Y-131236583D01*
X153758317Y-131205044D01*
X153761630Y-131089430D01*
X153765969Y-131007300D01*
X153772899Y-130949805D01*
X153783984Y-130908099D01*
X153800789Y-130873336D01*
X153822978Y-130839400D01*
X153872532Y-130779659D01*
X153927165Y-130730176D01*
X153943943Y-130718840D01*
X154019354Y-130690766D01*
X154108640Y-130680628D01*
X154193671Y-130688919D01*
X154248678Y-130710572D01*
X154287824Y-130731693D01*
X154313944Y-130726472D01*
X154331702Y-130710727D01*
X154376711Y-130688994D01*
X154443281Y-130679879D01*
X154512440Y-130683800D01*
G37*
X154512440Y-130683800D02*
X154565210Y-130701175D01*
X154571134Y-130705453D01*
X154582567Y-130723285D01*
X154590864Y-130758646D01*
X154596448Y-130817064D01*
X154599745Y-130904064D01*
X154601181Y-131025172D01*
X154601334Y-131097854D01*
X154601334Y-131465191D01*
X154548007Y-131500132D01*
X154491458Y-131520545D01*
X154423575Y-131523511D01*
X154361574Y-131510358D01*
X154322912Y-131482792D01*
X154315393Y-131450775D01*
X154309457Y-131387283D01*
X154305933Y-131303171D01*
X154305324Y-131252489D01*
X154301954Y-131138744D01*
X154290082Y-131060787D01*
X154266426Y-131012397D01*
X154227703Y-130987352D01*
X154170629Y-130979430D01*
X154161203Y-130979334D01*
X154115213Y-130985694D01*
X154083688Y-131008897D01*
X154064139Y-131055122D01*
X154054078Y-131130553D01*
X154051017Y-131241369D01*
X154051000Y-131253109D01*
X154049680Y-131348300D01*
X154044515Y-131411208D01*
X154033698Y-131451835D01*
X154015420Y-131480183D01*
X154008667Y-131487334D01*
X153946143Y-131521577D01*
X153864745Y-131524756D01*
X153800650Y-131507233D01*
X153780816Y-131497878D01*
X153767379Y-131483771D01*
X153759338Y-131457752D01*
X153755688Y-131412656D01*
X153755426Y-131341320D01*
X153757549Y-131236583D01*
X153758317Y-131205044D01*
X153761630Y-131089430D01*
X153765969Y-131007300D01*
X153772899Y-130949805D01*
X153783984Y-130908099D01*
X153800789Y-130873336D01*
X153822978Y-130839400D01*
X153872532Y-130779659D01*
X153927165Y-130730176D01*
X153943943Y-130718840D01*
X154019354Y-130690766D01*
X154108640Y-130680628D01*
X154193671Y-130688919D01*
X154248678Y-130710572D01*
X154287824Y-130731693D01*
X154313944Y-130726472D01*
X154331702Y-130710727D01*
X154376711Y-130688994D01*
X154443281Y-130679879D01*
X154512440Y-130683800D01*
G36*
X154919532Y-130688224D02*
G01*
X154967295Y-130701390D01*
X154978100Y-130708400D01*
X154986505Y-130737283D01*
X154993350Y-130799896D01*
X154998558Y-130887663D01*
X155002052Y-130992007D01*
X155003756Y-131104350D01*
X155003593Y-131216117D01*
X155001485Y-131318729D01*
X154997355Y-131403611D01*
X154991126Y-131462185D01*
X154985060Y-131483647D01*
X154952910Y-131503638D01*
X154896142Y-131517789D01*
X154832347Y-131523501D01*
X154779115Y-131518176D01*
X154770667Y-131515307D01*
X154732740Y-131489763D01*
X154723366Y-131478868D01*
X154716022Y-131446884D01*
X154710834Y-131381979D01*
X154707700Y-131292734D01*
X154706516Y-131187734D01*
X154707181Y-131075562D01*
X154709592Y-130964801D01*
X154713646Y-130864035D01*
X154719242Y-130781847D01*
X154726275Y-130726821D01*
X154732567Y-130708400D01*
X154767977Y-130693016D01*
X154827471Y-130683990D01*
X154855334Y-130683000D01*
X154919532Y-130688224D01*
G37*
X154919532Y-130688224D02*
X154967295Y-130701390D01*
X154978100Y-130708400D01*
X154986505Y-130737283D01*
X154993350Y-130799896D01*
X154998558Y-130887663D01*
X155002052Y-130992007D01*
X155003756Y-131104350D01*
X155003593Y-131216117D01*
X155001485Y-131318729D01*
X154997355Y-131403611D01*
X154991126Y-131462185D01*
X154985060Y-131483647D01*
X154952910Y-131503638D01*
X154896142Y-131517789D01*
X154832347Y-131523501D01*
X154779115Y-131518176D01*
X154770667Y-131515307D01*
X154732740Y-131489763D01*
X154723366Y-131478868D01*
X154716022Y-131446884D01*
X154710834Y-131381979D01*
X154707700Y-131292734D01*
X154706516Y-131187734D01*
X154707181Y-131075562D01*
X154709592Y-130964801D01*
X154713646Y-130864035D01*
X154719242Y-130781847D01*
X154726275Y-130726821D01*
X154732567Y-130708400D01*
X154767977Y-130693016D01*
X154827471Y-130683990D01*
X154855334Y-130683000D01*
X154919532Y-130688224D01*
G36*
X156171937Y-130344658D02*
G01*
X156316614Y-130345535D01*
X156448140Y-130347827D01*
X156560291Y-130351305D01*
X156646844Y-130355738D01*
X156701575Y-130360898D01*
X156717519Y-130364755D01*
X156740006Y-130401273D01*
X156748769Y-130467644D01*
X156748788Y-130471334D01*
X156740756Y-130538839D01*
X156718844Y-130577021D01*
X156717519Y-130577912D01*
X156682644Y-130587173D01*
X156617805Y-130594200D01*
X156535362Y-130597787D01*
X156511625Y-130598009D01*
X156337000Y-130598334D01*
X156337000Y-131030738D01*
X156336595Y-131188455D01*
X156334384Y-131308868D01*
X156328873Y-131397008D01*
X156318570Y-131457904D01*
X156301979Y-131496586D01*
X156277609Y-131518082D01*
X156243964Y-131527423D01*
X156199552Y-131529637D01*
X156188834Y-131529667D01*
X156141997Y-131528303D01*
X156106237Y-131520857D01*
X156080062Y-131502301D01*
X156061978Y-131467605D01*
X156050491Y-131411739D01*
X156044107Y-131329675D01*
X156041333Y-131216382D01*
X156040676Y-131066831D01*
X156040667Y-131030738D01*
X156040667Y-130598334D01*
X155862262Y-130598334D01*
X155763828Y-130595972D01*
X155699357Y-130588035D01*
X155660701Y-130573241D01*
X155650595Y-130565072D01*
X155628567Y-130547266D01*
X155619259Y-130558562D01*
X155617334Y-130605530D01*
X155617334Y-130605999D01*
X155621671Y-130656838D01*
X155641338Y-130679555D01*
X155675542Y-130686886D01*
X155708379Y-130693560D01*
X155726588Y-130711055D01*
X155735482Y-130750050D01*
X155740141Y-130816716D01*
X155742487Y-130886297D01*
X155737271Y-130925758D01*
X155719920Y-130947206D01*
X155685860Y-130962748D01*
X155684826Y-130963139D01*
X155654681Y-130976541D01*
X155635584Y-130995290D01*
X155624031Y-131028910D01*
X155616518Y-131086927D01*
X155610505Y-131165200D01*
X155593899Y-131296448D01*
X155562236Y-131392149D01*
X155510808Y-131457801D01*
X155434906Y-131498905D01*
X155329823Y-131520962D01*
X155303655Y-131523684D01*
X155232039Y-131528444D01*
X155189272Y-131524231D01*
X155162274Y-131507894D01*
X155144148Y-131485286D01*
X155114952Y-131419281D01*
X155111930Y-131352298D01*
X155132164Y-131295618D01*
X155172740Y-131260522D01*
X155203816Y-131254500D01*
X155264774Y-131239920D01*
X155302755Y-131194216D01*
X155319686Y-131114442D01*
X155321000Y-131075086D01*
X155321000Y-130962195D01*
X155238791Y-130973222D01*
X155157806Y-130967264D01*
X155099453Y-130928438D01*
X155069628Y-130861668D01*
X155067000Y-130829775D01*
X155075468Y-130751758D01*
X155105544Y-130706075D01*
X155164234Y-130685820D01*
X155215912Y-130683000D01*
X155321000Y-130683000D01*
X155321000Y-130556745D01*
X155323592Y-130481902D01*
X155333442Y-130437935D01*
X155353658Y-130413594D01*
X155361942Y-130408578D01*
X155426515Y-130388545D01*
X155496068Y-130388063D01*
X155554183Y-130405666D01*
X155579277Y-130427983D01*
X155598249Y-130453222D01*
X155612452Y-130447039D01*
X155631351Y-130406816D01*
X155657623Y-130344334D01*
X156171937Y-130344658D01*
G37*
X156171937Y-130344658D02*
X156316614Y-130345535D01*
X156448140Y-130347827D01*
X156560291Y-130351305D01*
X156646844Y-130355738D01*
X156701575Y-130360898D01*
X156717519Y-130364755D01*
X156740006Y-130401273D01*
X156748769Y-130467644D01*
X156748788Y-130471334D01*
X156740756Y-130538839D01*
X156718844Y-130577021D01*
X156717519Y-130577912D01*
X156682644Y-130587173D01*
X156617805Y-130594200D01*
X156535362Y-130597787D01*
X156511625Y-130598009D01*
X156337000Y-130598334D01*
X156337000Y-131030738D01*
X156336595Y-131188455D01*
X156334384Y-131308868D01*
X156328873Y-131397008D01*
X156318570Y-131457904D01*
X156301979Y-131496586D01*
X156277609Y-131518082D01*
X156243964Y-131527423D01*
X156199552Y-131529637D01*
X156188834Y-131529667D01*
X156141997Y-131528303D01*
X156106237Y-131520857D01*
X156080062Y-131502301D01*
X156061978Y-131467605D01*
X156050491Y-131411739D01*
X156044107Y-131329675D01*
X156041333Y-131216382D01*
X156040676Y-131066831D01*
X156040667Y-131030738D01*
X156040667Y-130598334D01*
X155862262Y-130598334D01*
X155763828Y-130595972D01*
X155699357Y-130588035D01*
X155660701Y-130573241D01*
X155650595Y-130565072D01*
X155628567Y-130547266D01*
X155619259Y-130558562D01*
X155617334Y-130605530D01*
X155617334Y-130605999D01*
X155621671Y-130656838D01*
X155641338Y-130679555D01*
X155675542Y-130686886D01*
X155708379Y-130693560D01*
X155726588Y-130711055D01*
X155735482Y-130750050D01*
X155740141Y-130816716D01*
X155742487Y-130886297D01*
X155737271Y-130925758D01*
X155719920Y-130947206D01*
X155685860Y-130962748D01*
X155684826Y-130963139D01*
X155654681Y-130976541D01*
X155635584Y-130995290D01*
X155624031Y-131028910D01*
X155616518Y-131086927D01*
X155610505Y-131165200D01*
X155593899Y-131296448D01*
X155562236Y-131392149D01*
X155510808Y-131457801D01*
X155434906Y-131498905D01*
X155329823Y-131520962D01*
X155303655Y-131523684D01*
X155232039Y-131528444D01*
X155189272Y-131524231D01*
X155162274Y-131507894D01*
X155144148Y-131485286D01*
X155114952Y-131419281D01*
X155111930Y-131352298D01*
X155132164Y-131295618D01*
X155172740Y-131260522D01*
X155203816Y-131254500D01*
X155264774Y-131239920D01*
X155302755Y-131194216D01*
X155319686Y-131114442D01*
X155321000Y-131075086D01*
X155321000Y-130962195D01*
X155238791Y-130973222D01*
X155157806Y-130967264D01*
X155099453Y-130928438D01*
X155069628Y-130861668D01*
X155067000Y-130829775D01*
X155075468Y-130751758D01*
X155105544Y-130706075D01*
X155164234Y-130685820D01*
X155215912Y-130683000D01*
X155321000Y-130683000D01*
X155321000Y-130556745D01*
X155323592Y-130481902D01*
X155333442Y-130437935D01*
X155353658Y-130413594D01*
X155361942Y-130408578D01*
X155426515Y-130388545D01*
X155496068Y-130388063D01*
X155554183Y-130405666D01*
X155579277Y-130427983D01*
X155598249Y-130453222D01*
X155612452Y-130447039D01*
X155631351Y-130406816D01*
X155657623Y-130344334D01*
X156171937Y-130344658D01*
G36*
X154933663Y-130292996D02*
G01*
X154981293Y-130332101D01*
X155001948Y-130402071D01*
X155003500Y-130436862D01*
X154996348Y-130510689D01*
X154969715Y-130553842D01*
X154915832Y-130573508D01*
X154851845Y-130577167D01*
X154783662Y-130572660D01*
X154744969Y-130556438D01*
X154729078Y-130536225D01*
X154710648Y-130473890D01*
X154709399Y-130401802D01*
X154724355Y-130339052D01*
X154740429Y-130314095D01*
X154784191Y-130291473D01*
X154847494Y-130280971D01*
X154855334Y-130280834D01*
X154933663Y-130292996D01*
G37*
X154933663Y-130292996D02*
X154981293Y-130332101D01*
X155001948Y-130402071D01*
X155003500Y-130436862D01*
X154996348Y-130510689D01*
X154969715Y-130553842D01*
X154915832Y-130573508D01*
X154851845Y-130577167D01*
X154783662Y-130572660D01*
X154744969Y-130556438D01*
X154729078Y-130536225D01*
X154710648Y-130473890D01*
X154709399Y-130401802D01*
X154724355Y-130339052D01*
X154740429Y-130314095D01*
X154784191Y-130291473D01*
X154847494Y-130280971D01*
X154855334Y-130280834D01*
X154933663Y-130292996D01*
D11*
G36*
X164728200Y-126153800D02*
G01*
X162726600Y-126153800D01*
X162726600Y-125052200D01*
X164728200Y-125052200D01*
X164728200Y-126153800D01*
G37*
G36*
X161428200Y-123613800D02*
G01*
X159426600Y-123613800D01*
X159426600Y-122512200D01*
X161428200Y-122512200D01*
X161428200Y-123613800D01*
G37*
G36*
X164728200Y-121073800D02*
G01*
X162726600Y-121073800D01*
X162726600Y-119972200D01*
X164728200Y-119972200D01*
X164728200Y-121073800D01*
G37*
G36*
X132106800Y-118161800D02*
G01*
X131005200Y-118161800D01*
X131005200Y-114560200D01*
X132106800Y-114560200D01*
X132106800Y-118161800D01*
G37*
G36*
X130106800Y-118161800D02*
G01*
X129005200Y-118161800D01*
X129005200Y-114560200D01*
X130106800Y-114560200D01*
X130106800Y-118161800D01*
G37*
G36*
X174857800Y-117339800D02*
G01*
X173206200Y-117339800D01*
X173206200Y-116238200D01*
X174857800Y-116238200D01*
X174857800Y-117339800D01*
G37*
G36*
X180107800Y-117339800D02*
G01*
X178456200Y-117339800D01*
X178456200Y-116238200D01*
X180107800Y-116238200D01*
X180107800Y-117339800D01*
G37*
G36*
X170971561Y-114013956D02*
G01*
X171015612Y-114027319D01*
X171056204Y-114049016D01*
X171091784Y-114078216D01*
X171120984Y-114113796D01*
X171142681Y-114154388D01*
X171156044Y-114198439D01*
X171160800Y-114246728D01*
X171160800Y-115623272D01*
X171156044Y-115671561D01*
X171142681Y-115715612D01*
X171120984Y-115756204D01*
X171091784Y-115791784D01*
X171056204Y-115820984D01*
X171015612Y-115842681D01*
X170971561Y-115856044D01*
X170923272Y-115860800D01*
X169871728Y-115860800D01*
X169823439Y-115856044D01*
X169779388Y-115842681D01*
X169738796Y-115820984D01*
X169703216Y-115791784D01*
X169674016Y-115756204D01*
X169652319Y-115715612D01*
X169638956Y-115671561D01*
X169634200Y-115623272D01*
X169634200Y-114246728D01*
X169638956Y-114198439D01*
X169652319Y-114154388D01*
X169674016Y-114113796D01*
X169703216Y-114078216D01*
X169738796Y-114049016D01*
X169779388Y-114027319D01*
X169823439Y-114013956D01*
X169871728Y-114009200D01*
X170923272Y-114009200D01*
X170971561Y-114013956D01*
G37*
G36*
X167996561Y-114013956D02*
G01*
X168040612Y-114027319D01*
X168081204Y-114049016D01*
X168116784Y-114078216D01*
X168145984Y-114113796D01*
X168167681Y-114154388D01*
X168181044Y-114198439D01*
X168185800Y-114246728D01*
X168185800Y-115623272D01*
X168181044Y-115671561D01*
X168167681Y-115715612D01*
X168145984Y-115756204D01*
X168116784Y-115791784D01*
X168081204Y-115820984D01*
X168040612Y-115842681D01*
X167996561Y-115856044D01*
X167948272Y-115860800D01*
X166896728Y-115860800D01*
X166848439Y-115856044D01*
X166804388Y-115842681D01*
X166763796Y-115820984D01*
X166728216Y-115791784D01*
X166699016Y-115756204D01*
X166677319Y-115715612D01*
X166663956Y-115671561D01*
X166659200Y-115623272D01*
X166659200Y-114246728D01*
X166663956Y-114198439D01*
X166677319Y-114154388D01*
X166699016Y-114113796D01*
X166728216Y-114078216D01*
X166763796Y-114049016D01*
X166804388Y-114027319D01*
X166848439Y-114013956D01*
X166896728Y-114009200D01*
X167948272Y-114009200D01*
X167996561Y-114013956D01*
G37*
G36*
X147439000Y-115426800D02*
G01*
X146337400Y-115426800D01*
X146337400Y-113425200D01*
X147439000Y-113425200D01*
X147439000Y-115426800D01*
G37*
G36*
X152519000Y-115426800D02*
G01*
X151417400Y-115426800D01*
X151417400Y-113425200D01*
X152519000Y-113425200D01*
X152519000Y-115426800D01*
G37*
G36*
X157599000Y-115426800D02*
G01*
X156497400Y-115426800D01*
X156497400Y-113425200D01*
X157599000Y-113425200D01*
X157599000Y-115426800D01*
G37*
G36*
X174857800Y-114139800D02*
G01*
X173206200Y-114139800D01*
X173206200Y-113038200D01*
X174857800Y-113038200D01*
X174857800Y-114139800D01*
G37*
G36*
X180107800Y-114139800D02*
G01*
X178456200Y-114139800D01*
X178456200Y-113038200D01*
X180107800Y-113038200D01*
X180107800Y-114139800D01*
G37*
G36*
X134706800Y-112361800D02*
G01*
X133105200Y-112361800D01*
X133105200Y-108860200D01*
X134706800Y-108860200D01*
X134706800Y-112361800D01*
G37*
G36*
X128006800Y-112361800D02*
G01*
X126405200Y-112361800D01*
X126405200Y-108860200D01*
X128006800Y-108860200D01*
X128006800Y-112361800D01*
G37*
G36*
X160139000Y-112126800D02*
G01*
X159037400Y-112126800D01*
X159037400Y-110125200D01*
X160139000Y-110125200D01*
X160139000Y-112126800D01*
G37*
G36*
X155059000Y-112126800D02*
G01*
X153957400Y-112126800D01*
X153957400Y-110125200D01*
X155059000Y-110125200D01*
X155059000Y-112126800D01*
G37*
G36*
X149979000Y-112126800D02*
G01*
X148877400Y-112126800D01*
X148877400Y-110125200D01*
X149979000Y-110125200D01*
X149979000Y-112126800D01*
G37*
G36*
X151572398Y-103408673D02*
G01*
X151602279Y-103413942D01*
X151602281Y-103413942D01*
X152472602Y-103567403D01*
X152993453Y-103659243D01*
X153043352Y-103673199D01*
X153087345Y-103695493D01*
X153126143Y-103725942D01*
X153158255Y-103763374D01*
X153182447Y-103806353D01*
X153197790Y-103853224D01*
X153203694Y-103902189D01*
X153199741Y-103953851D01*
X153005606Y-105054846D01*
X152991651Y-105104742D01*
X152969356Y-105148735D01*
X152938906Y-105187534D01*
X152901475Y-105219645D01*
X152858496Y-105243837D01*
X152811625Y-105259180D01*
X152762660Y-105265084D01*
X152710998Y-105261131D01*
X152681117Y-105255862D01*
X152681115Y-105255862D01*
X151319825Y-105015830D01*
X151289943Y-105010561D01*
X151240044Y-104996605D01*
X151196051Y-104974311D01*
X151157253Y-104943862D01*
X151125141Y-104906430D01*
X151100949Y-104863451D01*
X151085606Y-104816580D01*
X151079702Y-104767615D01*
X151083655Y-104715953D01*
X151277790Y-103614958D01*
X151291745Y-103565062D01*
X151314040Y-103521069D01*
X151344490Y-103482270D01*
X151381921Y-103450159D01*
X151424900Y-103425967D01*
X151471771Y-103410624D01*
X151520736Y-103404720D01*
X151572398Y-103408673D01*
G37*
G36*
X157392229Y-103309024D02*
G01*
X157439100Y-103324367D01*
X157482079Y-103348559D01*
X157519511Y-103380671D01*
X157549960Y-103419469D01*
X157572254Y-103463462D01*
X157586210Y-103513361D01*
X157780345Y-104614353D01*
X157784298Y-104666015D01*
X157778394Y-104714980D01*
X157763051Y-104761851D01*
X157738859Y-104804830D01*
X157706748Y-104842261D01*
X157667949Y-104872711D01*
X157623956Y-104895006D01*
X157574060Y-104908961D01*
X156570398Y-105085933D01*
X156182885Y-105154262D01*
X156182883Y-105154262D01*
X156153002Y-105159531D01*
X156101340Y-105163484D01*
X156052375Y-105157580D01*
X156005504Y-105142237D01*
X155962525Y-105118045D01*
X155925093Y-105085933D01*
X155894644Y-105047135D01*
X155872350Y-105003142D01*
X155858394Y-104953243D01*
X155850140Y-104906430D01*
X155803180Y-104640110D01*
X155664259Y-103852251D01*
X155660306Y-103800589D01*
X155666210Y-103751624D01*
X155681553Y-103704753D01*
X155705745Y-103661774D01*
X155737856Y-103624343D01*
X155776655Y-103593893D01*
X155820648Y-103571598D01*
X155870544Y-103557643D01*
X157149530Y-103332124D01*
X157261719Y-103312342D01*
X157261721Y-103312342D01*
X157291602Y-103307073D01*
X157343264Y-103303120D01*
X157392229Y-103309024D01*
G37*
G36*
X152089002Y-100478869D02*
G01*
X152118883Y-100484138D01*
X152118885Y-100484138D01*
X153219659Y-100678234D01*
X153510057Y-100729439D01*
X153559956Y-100743395D01*
X153603949Y-100765689D01*
X153642747Y-100796138D01*
X153674859Y-100833570D01*
X153699051Y-100876549D01*
X153714394Y-100923420D01*
X153720298Y-100972385D01*
X153716345Y-101024047D01*
X153522210Y-102125042D01*
X153508255Y-102174938D01*
X153485960Y-102218931D01*
X153455510Y-102257730D01*
X153418079Y-102289841D01*
X153375100Y-102314033D01*
X153328229Y-102329376D01*
X153279264Y-102335280D01*
X153227602Y-102331327D01*
X153197721Y-102326058D01*
X153197719Y-102326058D01*
X151836429Y-102086026D01*
X151806547Y-102080757D01*
X151756648Y-102066801D01*
X151712655Y-102044507D01*
X151673857Y-102014058D01*
X151641745Y-101976626D01*
X151617553Y-101933647D01*
X151602210Y-101886776D01*
X151596306Y-101837811D01*
X151600259Y-101786149D01*
X151794394Y-100685154D01*
X151808349Y-100635258D01*
X151830644Y-100591265D01*
X151861094Y-100552466D01*
X151898525Y-100520355D01*
X151941504Y-100496163D01*
X151988375Y-100480820D01*
X152037340Y-100474916D01*
X152089002Y-100478869D01*
G37*
G36*
X156875625Y-100379220D02*
G01*
X156922496Y-100394563D01*
X156965475Y-100418755D01*
X157002907Y-100450867D01*
X157033356Y-100489665D01*
X157055650Y-100533658D01*
X157069606Y-100583557D01*
X157263741Y-101684549D01*
X157267694Y-101736211D01*
X157261790Y-101785176D01*
X157246447Y-101832047D01*
X157222255Y-101875026D01*
X157190144Y-101912457D01*
X157151345Y-101942907D01*
X157107352Y-101965202D01*
X157057456Y-101979157D01*
X156053794Y-102156129D01*
X155666281Y-102224458D01*
X155666279Y-102224458D01*
X155636398Y-102229727D01*
X155584736Y-102233680D01*
X155535771Y-102227776D01*
X155488900Y-102212433D01*
X155445921Y-102188241D01*
X155408489Y-102156129D01*
X155378040Y-102117331D01*
X155355746Y-102073338D01*
X155341790Y-102023439D01*
X155334235Y-101980590D01*
X155286576Y-101710306D01*
X155147655Y-100922447D01*
X155143702Y-100870785D01*
X155149606Y-100821820D01*
X155164949Y-100774949D01*
X155189141Y-100731970D01*
X155221252Y-100694539D01*
X155260051Y-100664089D01*
X155304044Y-100641794D01*
X155353940Y-100627839D01*
X156632926Y-100402320D01*
X156745115Y-100382538D01*
X156745117Y-100382538D01*
X156774998Y-100377269D01*
X156826660Y-100373316D01*
X156875625Y-100379220D01*
G37*
G36*
X161875234Y-99697486D02*
G01*
X161921003Y-99715862D01*
X161962308Y-99742813D01*
X161999344Y-99779051D01*
X162018846Y-99802293D01*
X162674405Y-100583557D01*
X162717957Y-100635461D01*
X162747218Y-100678234D01*
X162766588Y-100723593D01*
X162776736Y-100771853D01*
X162777275Y-100821171D01*
X162768181Y-100869643D01*
X162749805Y-100915412D01*
X162722854Y-100956717D01*
X162686616Y-100993753D01*
X161933061Y-101626061D01*
X161646292Y-101866689D01*
X161581242Y-101921272D01*
X161538469Y-101950533D01*
X161493110Y-101969903D01*
X161444850Y-101980051D01*
X161395532Y-101980590D01*
X161347060Y-101971496D01*
X161301291Y-101953120D01*
X161259986Y-101926169D01*
X161222950Y-101889931D01*
X160504337Y-101033521D01*
X160475076Y-100990748D01*
X160455706Y-100945389D01*
X160445558Y-100897129D01*
X160445019Y-100847811D01*
X160454113Y-100799339D01*
X160472489Y-100753570D01*
X160499440Y-100712265D01*
X160535678Y-100675229D01*
X161289233Y-100042921D01*
X161617815Y-99767208D01*
X161617816Y-99767207D01*
X161641052Y-99747710D01*
X161683825Y-99718449D01*
X161729184Y-99699079D01*
X161777444Y-99688931D01*
X161826762Y-99688392D01*
X161875234Y-99697486D01*
G37*
G36*
X146832556Y-99688931D02*
G01*
X146880816Y-99699079D01*
X146926175Y-99718449D01*
X146968948Y-99747710D01*
X146992184Y-99767207D01*
X146992185Y-99767208D01*
X147320767Y-100042921D01*
X148074322Y-100675229D01*
X148110560Y-100712265D01*
X148137511Y-100753570D01*
X148155887Y-100799339D01*
X148164981Y-100847811D01*
X148164442Y-100897129D01*
X148154294Y-100945389D01*
X148134924Y-100990748D01*
X148105663Y-101033521D01*
X147387050Y-101889931D01*
X147350014Y-101926169D01*
X147308709Y-101953120D01*
X147262940Y-101971496D01*
X147214468Y-101980590D01*
X147165150Y-101980051D01*
X147116890Y-101969903D01*
X147071531Y-101950533D01*
X147028758Y-101921272D01*
X146963709Y-101866689D01*
X146676939Y-101626061D01*
X145923384Y-100993753D01*
X145887146Y-100956717D01*
X145860195Y-100915412D01*
X145841819Y-100869643D01*
X145832725Y-100821171D01*
X145833264Y-100771853D01*
X145843412Y-100723593D01*
X145862782Y-100678234D01*
X145892043Y-100635461D01*
X145935596Y-100583557D01*
X146591154Y-99802293D01*
X146610656Y-99779051D01*
X146647692Y-99742813D01*
X146688997Y-99715862D01*
X146734766Y-99697486D01*
X146783238Y-99688392D01*
X146832556Y-99688931D01*
G37*
G36*
X159962940Y-97418504D02*
G01*
X160008709Y-97436880D01*
X160050014Y-97463831D01*
X160087050Y-97500069D01*
X160521059Y-98017301D01*
X160778997Y-98324699D01*
X160805663Y-98356479D01*
X160834924Y-98399252D01*
X160854294Y-98444611D01*
X160864442Y-98492871D01*
X160864981Y-98542189D01*
X160855887Y-98590661D01*
X160837511Y-98636430D01*
X160810560Y-98677735D01*
X160774322Y-98714771D01*
X160335331Y-99083128D01*
X159729921Y-99591128D01*
X159668948Y-99642290D01*
X159626175Y-99671551D01*
X159580816Y-99690921D01*
X159532556Y-99701069D01*
X159483238Y-99701608D01*
X159434766Y-99692514D01*
X159388997Y-99674138D01*
X159347692Y-99647187D01*
X159310656Y-99610949D01*
X158592043Y-98754539D01*
X158562782Y-98711766D01*
X158543412Y-98666407D01*
X158533264Y-98618147D01*
X158532725Y-98568829D01*
X158541819Y-98520357D01*
X158560195Y-98474588D01*
X158587146Y-98433283D01*
X158623384Y-98396247D01*
X159586407Y-97588175D01*
X159705521Y-97488226D01*
X159705522Y-97488225D01*
X159728758Y-97468728D01*
X159771531Y-97439467D01*
X159816890Y-97420097D01*
X159865150Y-97409949D01*
X159914468Y-97409410D01*
X159962940Y-97418504D01*
G37*
G36*
X148744850Y-97409949D02*
G01*
X148793110Y-97420097D01*
X148838469Y-97439467D01*
X148881242Y-97468728D01*
X148904478Y-97488225D01*
X148904479Y-97488226D01*
X149023593Y-97588175D01*
X149986616Y-98396247D01*
X150022854Y-98433283D01*
X150049805Y-98474588D01*
X150068181Y-98520357D01*
X150077275Y-98568829D01*
X150076736Y-98618147D01*
X150066588Y-98666407D01*
X150047218Y-98711766D01*
X150017957Y-98754539D01*
X149299344Y-99610949D01*
X149262308Y-99647187D01*
X149221003Y-99674138D01*
X149175234Y-99692514D01*
X149126762Y-99701608D01*
X149077444Y-99701069D01*
X149029184Y-99690921D01*
X148983825Y-99671551D01*
X148941052Y-99642290D01*
X148880080Y-99591128D01*
X148274669Y-99083128D01*
X147835678Y-98714771D01*
X147799440Y-98677735D01*
X147772489Y-98636430D01*
X147754113Y-98590661D01*
X147745019Y-98542189D01*
X147745558Y-98492871D01*
X147755706Y-98444611D01*
X147775076Y-98399252D01*
X147804337Y-98356479D01*
X147831004Y-98324699D01*
X148088941Y-98017301D01*
X148522950Y-97500069D01*
X148559986Y-97463831D01*
X148601291Y-97436880D01*
X148647060Y-97418504D01*
X148695532Y-97409410D01*
X148744850Y-97409949D01*
G37*
G36*
X164527638Y-97259411D02*
G01*
X164575898Y-97269559D01*
X164621257Y-97288929D01*
X164664030Y-97318190D01*
X164687266Y-97337687D01*
X164687267Y-97337688D01*
X164803005Y-97434804D01*
X165520440Y-98036803D01*
X165556678Y-98073839D01*
X165583629Y-98115144D01*
X165602005Y-98160913D01*
X165611099Y-98209385D01*
X165610560Y-98258703D01*
X165600412Y-98306963D01*
X165581042Y-98352322D01*
X165551781Y-98395095D01*
X165532284Y-98418331D01*
X165532283Y-98418332D01*
X165427643Y-98543037D01*
X164624262Y-99500469D01*
X164587226Y-99536707D01*
X164545921Y-99563658D01*
X164500152Y-99582034D01*
X164451680Y-99591128D01*
X164402362Y-99590589D01*
X164354102Y-99580441D01*
X164308743Y-99561071D01*
X164265970Y-99531810D01*
X163409560Y-98813197D01*
X163373322Y-98776161D01*
X163346371Y-98734856D01*
X163327995Y-98689087D01*
X163318901Y-98640615D01*
X163319440Y-98591297D01*
X163329588Y-98543037D01*
X163348958Y-98497678D01*
X163378219Y-98454905D01*
X163428406Y-98395095D01*
X163854668Y-97887095D01*
X164305738Y-97349531D01*
X164342774Y-97313293D01*
X164384079Y-97286342D01*
X164429848Y-97267966D01*
X164478320Y-97258872D01*
X164527638Y-97259411D01*
G37*
G36*
X143824552Y-96759966D02*
G01*
X143870321Y-96778342D01*
X143911626Y-96805293D01*
X143948662Y-96841531D01*
X144491304Y-97488226D01*
X144825995Y-97887095D01*
X144876181Y-97946905D01*
X144905442Y-97989678D01*
X144924812Y-98035037D01*
X144934960Y-98083297D01*
X144935499Y-98132615D01*
X144926405Y-98181087D01*
X144908029Y-98226856D01*
X144881078Y-98268161D01*
X144844840Y-98305197D01*
X143988430Y-99023810D01*
X143945657Y-99053071D01*
X143900298Y-99072441D01*
X143852038Y-99082589D01*
X143802720Y-99083128D01*
X143754248Y-99074034D01*
X143708479Y-99055658D01*
X143667174Y-99028707D01*
X143630138Y-98992469D01*
X142826757Y-98035037D01*
X142722117Y-97910332D01*
X142722116Y-97910331D01*
X142702619Y-97887095D01*
X142673358Y-97844322D01*
X142653988Y-97798963D01*
X142643840Y-97750703D01*
X142643301Y-97701385D01*
X142652395Y-97652913D01*
X142670771Y-97607144D01*
X142697722Y-97565839D01*
X142733960Y-97528803D01*
X143590370Y-96810190D01*
X143633143Y-96780929D01*
X143678502Y-96761559D01*
X143726762Y-96751411D01*
X143776080Y-96750872D01*
X143824552Y-96759966D01*
G37*
G36*
X162248656Y-95347117D02*
G01*
X162296916Y-95357265D01*
X162342275Y-95376635D01*
X162385048Y-95405896D01*
X163241458Y-96124509D01*
X163277696Y-96161545D01*
X163304647Y-96202850D01*
X163323023Y-96248619D01*
X163332117Y-96297091D01*
X163331578Y-96346409D01*
X163321430Y-96394669D01*
X163302060Y-96440028D01*
X163272799Y-96482801D01*
X163253302Y-96506037D01*
X163253301Y-96506038D01*
X163148661Y-96630743D01*
X162345280Y-97588175D01*
X162308244Y-97624413D01*
X162266939Y-97651364D01*
X162221170Y-97669740D01*
X162172698Y-97678834D01*
X162123380Y-97678295D01*
X162075120Y-97668147D01*
X162029761Y-97648777D01*
X161986988Y-97619516D01*
X161844637Y-97500069D01*
X161646423Y-97333748D01*
X161130578Y-96900903D01*
X161094340Y-96863867D01*
X161067389Y-96822562D01*
X161049013Y-96776793D01*
X161039919Y-96728321D01*
X161040458Y-96679003D01*
X161050606Y-96630743D01*
X161069976Y-96585384D01*
X161099237Y-96542611D01*
X161149424Y-96482801D01*
X161575686Y-95974801D01*
X162026756Y-95437237D01*
X162063792Y-95400999D01*
X162105097Y-95374048D01*
X162150866Y-95355672D01*
X162199338Y-95346578D01*
X162248656Y-95347117D01*
G37*
G36*
X146103534Y-94847672D02*
G01*
X146149303Y-94866048D01*
X146190608Y-94892999D01*
X146227644Y-94929237D01*
X146617532Y-95393887D01*
X147104977Y-95974801D01*
X147155163Y-96034611D01*
X147184424Y-96077384D01*
X147203794Y-96122743D01*
X147213942Y-96171003D01*
X147214481Y-96220321D01*
X147205387Y-96268793D01*
X147187011Y-96314562D01*
X147160060Y-96355867D01*
X147123822Y-96392903D01*
X146267412Y-97111516D01*
X146224639Y-97140777D01*
X146179280Y-97160147D01*
X146131020Y-97170295D01*
X146081702Y-97170834D01*
X146033230Y-97161740D01*
X145987461Y-97143364D01*
X145946156Y-97116413D01*
X145909120Y-97080175D01*
X145105739Y-96122743D01*
X145001099Y-95998038D01*
X145001098Y-95998037D01*
X144981601Y-95974801D01*
X144952340Y-95932028D01*
X144932970Y-95886669D01*
X144922822Y-95838409D01*
X144922283Y-95789091D01*
X144931377Y-95740619D01*
X144949753Y-95694850D01*
X144976704Y-95653545D01*
X145012942Y-95616509D01*
X145869352Y-94897896D01*
X145912125Y-94868635D01*
X145957484Y-94849265D01*
X146005744Y-94839117D01*
X146055062Y-94838578D01*
X146103534Y-94847672D01*
G37*
G36*
X170286800Y-84588800D02*
G01*
X164685200Y-84588800D01*
X164685200Y-78987200D01*
X170286800Y-78987200D01*
X170286800Y-84588800D01*
G37*
G36*
X144686800Y-84588800D02*
G01*
X139085200Y-84588800D01*
X139085200Y-78987200D01*
X144686800Y-78987200D01*
X144686800Y-84588800D01*
G37*
G36*
X156736800Y-83838800D02*
G01*
X152635200Y-83838800D01*
X152635200Y-79737200D01*
X156736800Y-79737200D01*
X156736800Y-83838800D01*
G37*
M02*
