G04 #@! TF.GenerationSoftware,KiCad,Pcbnew,5.1.5-52549c5~86~ubuntu18.04.1*
G04 #@! TF.CreationDate,2020-04-16T18:44:58-06:00*
G04 #@! TF.ProjectId,001,3030312e-6b69-4636-9164-5f7063625858,rev?*
G04 #@! TF.SameCoordinates,Original*
G04 #@! TF.FileFunction,Profile,NP*
%FSLAX46Y46*%
G04 Gerber Fmt 4.6, Leading zero omitted, Abs format (unit mm)*
G04 Created by KiCad (PCBNEW 5.1.5-52549c5~86~ubuntu18.04.1) date 2020-04-16 18:44:58*
%MOMM*%
%LPD*%
G04 APERTURE LIST*
%ADD10C,0.152400*%
%ADD11C,0.100000*%
G04 APERTURE END LIST*
D10*
X156101051Y-66040000D02*
G75*
G03X156101051Y-66040000I-1796051J0D01*
G01*
D11*
X154396680Y-63550001D02*
X154010641Y-63550001D01*
X154010641Y-63550001D02*
X152876863Y-63596116D01*
X152876863Y-63596116D02*
X151771961Y-63696251D01*
X151771961Y-63696251D02*
X150695585Y-63848995D01*
X150695585Y-63848995D02*
X149647381Y-64052937D01*
X149647381Y-64052937D02*
X148627000Y-64306666D01*
X148627000Y-64306666D02*
X147634089Y-64608769D01*
X147634089Y-64608769D02*
X146668297Y-64957837D01*
X146668297Y-64957837D02*
X145729273Y-65352457D01*
X145729273Y-65352457D02*
X144816664Y-65791219D01*
X144816664Y-65791219D02*
X143930119Y-66272710D01*
X143930119Y-66272710D02*
X143069287Y-66795520D01*
X143069287Y-66795520D02*
X142233816Y-67358238D01*
X142233816Y-67358238D02*
X141423355Y-67959452D01*
X141423355Y-67959452D02*
X140637551Y-68597750D01*
X140637551Y-68597750D02*
X139876054Y-69271722D01*
X139876054Y-69271722D02*
X139138512Y-69979956D01*
X139138512Y-69979956D02*
X138424573Y-70721041D01*
X138424573Y-70721041D02*
X137733886Y-71493566D01*
X137733886Y-71493566D02*
X137066099Y-72296119D01*
X137066099Y-72296119D02*
X136420860Y-73127289D01*
X136420860Y-73127289D02*
X135797819Y-73985664D01*
X135797819Y-73985664D02*
X135196623Y-74869834D01*
X135196623Y-74869834D02*
X134616921Y-75778387D01*
X134616921Y-75778387D02*
X134058362Y-76709912D01*
X134058362Y-76709912D02*
X133520593Y-77662997D01*
X133520593Y-77662997D02*
X133003263Y-78636232D01*
X133003263Y-78636232D02*
X132506022Y-79628204D01*
X132506022Y-79628204D02*
X132028516Y-80637503D01*
X132028516Y-80637503D02*
X131570395Y-81662717D01*
X131570395Y-81662717D02*
X131131307Y-82702435D01*
X131131307Y-82702435D02*
X130710901Y-83755246D01*
X130710901Y-83755246D02*
X130308824Y-84819738D01*
X130308824Y-84819738D02*
X129924726Y-85894500D01*
X129924726Y-85894500D02*
X129558255Y-86978121D01*
X129558255Y-86978121D02*
X129209059Y-88069189D01*
X129209059Y-88069189D02*
X128876786Y-89166294D01*
X128876786Y-89166294D02*
X128561086Y-90268023D01*
X128561086Y-90268023D02*
X128261605Y-91372966D01*
X128261605Y-91372966D02*
X127977994Y-92479711D01*
X127977994Y-92479711D02*
X127709898Y-93586847D01*
X127709898Y-93586847D02*
X127456975Y-94692963D01*
X127456975Y-94692963D02*
X127218864Y-95796647D01*
X127218864Y-95796647D02*
X126995213Y-96896488D01*
X126995213Y-96896488D02*
X126785674Y-97991075D01*
X126785674Y-97991075D02*
X126589895Y-99078997D01*
X126589895Y-99078997D02*
X126407524Y-100158841D01*
X126407524Y-100158841D02*
X126238209Y-101229197D01*
X126238209Y-101229197D02*
X126081600Y-102288654D01*
X126081600Y-102288654D02*
X125937344Y-103335800D01*
X125937344Y-103335800D02*
X125805090Y-104369224D01*
X125805090Y-104369224D02*
X125684486Y-105387515D01*
X125684486Y-105387515D02*
X125575182Y-106389261D01*
X125575182Y-106389261D02*
X125476823Y-107373051D01*
X125476823Y-107373051D02*
X125389062Y-108337473D01*
X125389062Y-108337473D02*
X125311544Y-109281117D01*
X125311544Y-109281117D02*
X125243919Y-110202572D01*
X125243919Y-110202572D02*
X125185835Y-111100425D01*
X125185835Y-111100425D02*
X125136939Y-111973265D01*
X125136939Y-111973265D02*
X125096882Y-112819682D01*
X125096882Y-112819682D02*
X125065311Y-113638264D01*
X125065311Y-113638264D02*
X125041878Y-114427599D01*
X125041878Y-114427599D02*
X125026220Y-115186277D01*
X125026220Y-115186277D02*
X125018001Y-115912885D01*
X125018001Y-115912885D02*
X125350720Y-116713165D01*
X125350720Y-116713165D02*
X125684579Y-117049447D01*
X125684579Y-117049447D02*
X126018438Y-117385730D01*
X126018438Y-117385730D02*
X126352296Y-117722012D01*
X126352296Y-117722012D02*
X126686155Y-118058294D01*
X126686155Y-118058294D02*
X127020015Y-118394577D01*
X127020015Y-118394577D02*
X127353873Y-118730859D01*
X127353873Y-118730859D02*
X127687732Y-119067141D01*
X127687732Y-119067141D02*
X128021591Y-119403423D01*
X128021591Y-119403423D02*
X128355450Y-119739705D01*
X128355450Y-119739705D02*
X128689309Y-120075988D01*
X128689309Y-120075988D02*
X129023167Y-120412270D01*
X129023167Y-120412270D02*
X129357026Y-120748552D01*
X129357026Y-120748552D02*
X129690885Y-121084835D01*
X129690885Y-121084835D02*
X130024744Y-121421117D01*
X130024744Y-121421117D02*
X130358603Y-121757399D01*
X130358603Y-121757399D02*
X130692461Y-122093681D01*
X130692461Y-122093681D02*
X131026320Y-122429964D01*
X131026320Y-122429964D02*
X131360179Y-122766246D01*
X131360179Y-122766246D02*
X131694038Y-123102528D01*
X131694038Y-123102528D02*
X132027897Y-123438810D01*
X132027897Y-123438810D02*
X132361755Y-123775093D01*
X132361755Y-123775093D02*
X132695614Y-124111375D01*
X132695614Y-124111375D02*
X133029473Y-124447657D01*
X133029473Y-124447657D02*
X133363332Y-124783939D01*
X133363332Y-124783939D02*
X133697191Y-125120222D01*
X133697191Y-125120222D02*
X134031049Y-125456504D01*
X134031049Y-125456504D02*
X134364908Y-125792786D01*
X134364908Y-125792786D02*
X134698767Y-126129068D01*
X134698767Y-126129068D02*
X135032626Y-126465351D01*
X135032626Y-126465351D02*
X135366485Y-126801633D01*
X135366485Y-126801633D02*
X135700343Y-127137915D01*
X135700343Y-127137915D02*
X136034202Y-127474197D01*
X136034202Y-127474197D02*
X136368061Y-127810480D01*
X136368061Y-127810480D02*
X136701920Y-128146762D01*
X136701920Y-128146762D02*
X137035779Y-128483044D01*
X137035779Y-128483044D02*
X137369637Y-128819326D01*
X137369637Y-128819326D02*
X137703496Y-129155609D01*
X137703496Y-129155609D02*
X138037355Y-129491891D01*
X138037355Y-129491891D02*
X138371214Y-129828173D01*
X138371214Y-129828173D02*
X138705073Y-130164455D01*
X138705073Y-130164455D02*
X139038931Y-130500738D01*
X139038931Y-130500738D02*
X139372790Y-130837020D01*
X139372790Y-130837020D02*
X139706649Y-131173302D01*
X139706649Y-131173302D02*
X140040508Y-131509584D01*
X140040508Y-131509584D02*
X140374367Y-131845867D01*
X140374367Y-131845867D02*
X140708225Y-132182149D01*
X140708225Y-132182149D02*
X141042084Y-132518431D01*
X141042084Y-132518431D02*
X141375943Y-132854713D01*
X141375943Y-132854713D02*
X141709802Y-133190996D01*
X141709802Y-133190996D02*
X142043661Y-133527278D01*
X142043661Y-133527278D02*
X142377519Y-133863560D01*
X142377519Y-133863560D02*
X142711378Y-134199842D01*
X142711378Y-134199842D02*
X143045237Y-134536125D01*
X143045237Y-134536125D02*
X143379096Y-134872407D01*
X143379096Y-134872407D02*
X143712955Y-135208689D01*
X143712955Y-135208689D02*
X144046813Y-135544971D01*
X144046813Y-135544971D02*
X144380672Y-135881254D01*
X144380672Y-135881254D02*
X144714531Y-136217536D01*
X144714531Y-136217536D02*
X145048390Y-136553818D01*
X145048390Y-136553818D02*
X145382249Y-136890100D01*
X145382249Y-136890100D02*
X145716107Y-137226383D01*
X145716107Y-137226383D02*
X146049966Y-137562665D01*
X146049966Y-137562665D02*
X146383825Y-137898947D01*
X146383825Y-137898947D02*
X146634227Y-137898947D01*
X146634227Y-137898947D02*
X146884628Y-137898947D01*
X146884628Y-137898947D02*
X147135030Y-137898947D01*
X147135030Y-137898947D02*
X147385432Y-137898947D01*
X147385432Y-137898947D02*
X147635834Y-137898947D01*
X147635834Y-137898947D02*
X147886236Y-137898947D01*
X147886236Y-137898947D02*
X148136637Y-137898947D01*
X148136637Y-137898947D02*
X148387039Y-137898947D01*
X148387039Y-137898947D02*
X148637441Y-137898947D01*
X148637441Y-137898947D02*
X148887842Y-137898947D01*
X148887842Y-137898947D02*
X149138244Y-137898947D01*
X149138244Y-137898947D02*
X149388646Y-137898947D01*
X149388646Y-137898947D02*
X149639048Y-137898947D01*
X149639048Y-137898947D02*
X149889450Y-137898947D01*
X149889450Y-137898947D02*
X150139851Y-137898947D01*
X150139851Y-137898947D02*
X150390253Y-137898947D01*
X150390253Y-137898947D02*
X150640655Y-137898947D01*
X150640655Y-137898947D02*
X150891057Y-137898947D01*
X150891057Y-137898947D02*
X151141458Y-137898947D01*
X151141458Y-137898947D02*
X151391860Y-137898947D01*
X151391860Y-137898947D02*
X151642262Y-137898947D01*
X151642262Y-137898947D02*
X151892664Y-137898947D01*
X151892664Y-137898947D02*
X152143065Y-137898947D01*
X152143065Y-137898947D02*
X152393467Y-137898947D01*
X152393467Y-137898947D02*
X152643869Y-137898947D01*
X152643869Y-137898947D02*
X152894271Y-137898947D01*
X152894271Y-137898947D02*
X153144672Y-137898947D01*
X153144672Y-137898947D02*
X153395074Y-137898947D01*
X153395074Y-137898947D02*
X153645476Y-137898947D01*
X153645476Y-137898947D02*
X153895878Y-137898947D01*
X153895878Y-137898947D02*
X154146279Y-137898947D01*
X154146279Y-137898947D02*
X154396681Y-137898947D01*
X154396681Y-137898947D02*
X154647083Y-137898947D01*
X154647083Y-137898947D02*
X154897485Y-137898947D01*
X154897485Y-137898947D02*
X155147886Y-137898947D01*
X155147886Y-137898947D02*
X155398288Y-137898947D01*
X155398288Y-137898947D02*
X155648690Y-137898947D01*
X155648690Y-137898947D02*
X155899092Y-137898947D01*
X155899092Y-137898947D02*
X156149493Y-137898947D01*
X156149493Y-137898947D02*
X156399895Y-137898947D01*
X156399895Y-137898947D02*
X156650297Y-137898947D01*
X156650297Y-137898947D02*
X156900699Y-137898947D01*
X156900699Y-137898947D02*
X157151100Y-137898947D01*
X157151100Y-137898947D02*
X157401502Y-137898947D01*
X157401502Y-137898947D02*
X157651904Y-137898947D01*
X157651904Y-137898947D02*
X157902306Y-137898947D01*
X157902306Y-137898947D02*
X158152707Y-137898947D01*
X158152707Y-137898947D02*
X158403109Y-137898947D01*
X158403109Y-137898947D02*
X158653511Y-137898947D01*
X158653511Y-137898947D02*
X158903913Y-137898947D01*
X158903913Y-137898947D02*
X159154314Y-137898947D01*
X159154314Y-137898947D02*
X159404716Y-137898947D01*
X159404716Y-137898947D02*
X159655118Y-137898947D01*
X159655118Y-137898947D02*
X159905520Y-137898947D01*
X159905520Y-137898947D02*
X160155921Y-137898947D01*
X160155921Y-137898947D02*
X160406323Y-137898947D01*
X160406323Y-137898947D02*
X160656725Y-137898947D01*
X160656725Y-137898947D02*
X160907127Y-137898947D01*
X160907127Y-137898947D02*
X161157528Y-137898947D01*
X161157528Y-137898947D02*
X161407930Y-137898947D01*
X161407930Y-137898947D02*
X161658332Y-137898947D01*
X161658332Y-137898947D02*
X161908734Y-137898947D01*
X161908734Y-137898947D02*
X162159135Y-137898947D01*
X162159135Y-137898947D02*
X162409537Y-137898947D01*
X162409537Y-137898947D02*
X162743396Y-137562665D01*
X162743396Y-137562665D02*
X163077255Y-137226383D01*
X163077255Y-137226383D02*
X163411113Y-136890100D01*
X163411113Y-136890100D02*
X163744972Y-136553818D01*
X163744972Y-136553818D02*
X164078831Y-136217536D01*
X164078831Y-136217536D02*
X164412690Y-135881254D01*
X164412690Y-135881254D02*
X164746549Y-135544971D01*
X164746549Y-135544971D02*
X165080407Y-135208689D01*
X165080407Y-135208689D02*
X165414266Y-134872407D01*
X165414266Y-134872407D02*
X165748125Y-134536125D01*
X165748125Y-134536125D02*
X166081984Y-134199842D01*
X166081984Y-134199842D02*
X166415843Y-133863560D01*
X166415843Y-133863560D02*
X166749701Y-133527278D01*
X166749701Y-133527278D02*
X167083560Y-133190996D01*
X167083560Y-133190996D02*
X167417419Y-132854713D01*
X167417419Y-132854713D02*
X167751278Y-132518431D01*
X167751278Y-132518431D02*
X168085137Y-132182149D01*
X168085137Y-132182149D02*
X168418995Y-131845867D01*
X168418995Y-131845867D02*
X168752854Y-131509584D01*
X168752854Y-131509584D02*
X169086713Y-131173302D01*
X169086713Y-131173302D02*
X169420572Y-130837020D01*
X169420572Y-130837020D02*
X169754431Y-130500738D01*
X169754431Y-130500738D02*
X170088289Y-130164455D01*
X170088289Y-130164455D02*
X170422148Y-129828173D01*
X170422148Y-129828173D02*
X170756007Y-129491891D01*
X170756007Y-129491891D02*
X171089866Y-129155609D01*
X171089866Y-129155609D02*
X171423725Y-128819326D01*
X171423725Y-128819326D02*
X171757583Y-128483044D01*
X171757583Y-128483044D02*
X172091442Y-128146762D01*
X172091442Y-128146762D02*
X172425301Y-127810480D01*
X172425301Y-127810480D02*
X172759160Y-127474197D01*
X172759160Y-127474197D02*
X173093019Y-127137915D01*
X173093019Y-127137915D02*
X173426877Y-126801633D01*
X173426877Y-126801633D02*
X173760736Y-126465351D01*
X173760736Y-126465351D02*
X174094595Y-126129068D01*
X174094595Y-126129068D02*
X174428454Y-125792786D01*
X174428454Y-125792786D02*
X174762312Y-125456504D01*
X174762312Y-125456504D02*
X175096171Y-125120222D01*
X175096171Y-125120222D02*
X175430030Y-124783939D01*
X175430030Y-124783939D02*
X175763889Y-124447657D01*
X175763889Y-124447657D02*
X176097748Y-124111375D01*
X176097748Y-124111375D02*
X176431606Y-123775093D01*
X176431606Y-123775093D02*
X176765465Y-123438810D01*
X176765465Y-123438810D02*
X177099324Y-123102528D01*
X177099324Y-123102528D02*
X177433183Y-122766246D01*
X177433183Y-122766246D02*
X177767042Y-122429964D01*
X177767042Y-122429964D02*
X178100900Y-122093681D01*
X178100900Y-122093681D02*
X178434759Y-121757399D01*
X178434759Y-121757399D02*
X178768618Y-121421117D01*
X178768618Y-121421117D02*
X179102477Y-121084835D01*
X179102477Y-121084835D02*
X179436336Y-120748552D01*
X179436336Y-120748552D02*
X179770194Y-120412270D01*
X179770194Y-120412270D02*
X180104053Y-120075988D01*
X180104053Y-120075988D02*
X180437912Y-119739705D01*
X180437912Y-119739705D02*
X180771771Y-119403423D01*
X180771771Y-119403423D02*
X181105630Y-119067141D01*
X181105630Y-119067141D02*
X181439488Y-118730859D01*
X181439488Y-118730859D02*
X181773347Y-118394577D01*
X181773347Y-118394577D02*
X182107206Y-118058294D01*
X182107206Y-118058294D02*
X182441065Y-117722012D01*
X182441065Y-117722012D02*
X182774924Y-117385730D01*
X182774924Y-117385730D02*
X183108782Y-117049447D01*
X183108782Y-117049447D02*
X183442641Y-116713165D01*
X183442641Y-116713165D02*
X183776500Y-116376883D01*
X183776500Y-116376883D02*
X183776500Y-116147753D01*
X183776500Y-116147753D02*
X183770700Y-115432147D01*
X183770700Y-115432147D02*
X183757520Y-114684002D01*
X183757520Y-114684002D02*
X183736690Y-113904730D01*
X183736690Y-113904730D02*
X183707890Y-113095740D01*
X183707890Y-113095740D02*
X183670710Y-112258445D01*
X183670710Y-112258445D02*
X183624800Y-111394255D01*
X183624800Y-111394255D02*
X183569820Y-110504583D01*
X183569820Y-110504583D02*
X183505420Y-109590839D01*
X183505420Y-109590839D02*
X183431240Y-108654435D01*
X183431240Y-108654435D02*
X183346930Y-107696781D01*
X183346930Y-107696781D02*
X183252150Y-106719290D01*
X183252150Y-106719290D02*
X183146533Y-105723373D01*
X183146533Y-105723373D02*
X183029731Y-104710440D01*
X183029731Y-104710440D02*
X182901404Y-103681904D01*
X182901404Y-103681904D02*
X182761189Y-102639175D01*
X182761189Y-102639175D02*
X182608734Y-101583665D01*
X182608734Y-101583665D02*
X182443690Y-100516785D01*
X182443690Y-100516785D02*
X182265713Y-99439947D01*
X182265713Y-99439947D02*
X182074442Y-98354561D01*
X182074442Y-98354561D02*
X181869526Y-97262039D01*
X181869526Y-97262039D02*
X181650623Y-96163792D01*
X181650623Y-96163792D02*
X181417371Y-95061232D01*
X181417371Y-95061232D02*
X181169420Y-93955770D01*
X181169420Y-93955770D02*
X180906417Y-92848818D01*
X180906417Y-92848818D02*
X180628021Y-91741785D01*
X180628021Y-91741785D02*
X180333870Y-90636085D01*
X180333870Y-90636085D02*
X180023617Y-89533128D01*
X180023617Y-89533128D02*
X179696908Y-88434325D01*
X179696908Y-88434325D02*
X179353397Y-87341087D01*
X179353397Y-87341087D02*
X178992723Y-86254827D01*
X178992723Y-86254827D02*
X178614540Y-85176955D01*
X178614540Y-85176955D02*
X178218495Y-84108883D01*
X178218495Y-84108883D02*
X177804238Y-83052022D01*
X177804238Y-83052022D02*
X177371416Y-82007783D01*
X177371416Y-82007783D02*
X176919679Y-80977577D01*
X176919679Y-80977577D02*
X176448674Y-79962816D01*
X176448674Y-79962816D02*
X175958050Y-78964912D01*
X175958050Y-78964912D02*
X175447455Y-77985274D01*
X175447455Y-77985274D02*
X174916539Y-77025316D01*
X174916539Y-77025316D02*
X174364948Y-76086448D01*
X174364948Y-76086448D02*
X173792333Y-75170080D01*
X173792333Y-75170080D02*
X173198341Y-74277626D01*
X173198341Y-74277626D02*
X172582620Y-73410496D01*
X172582620Y-73410496D02*
X171944820Y-72570100D01*
X171944820Y-72570100D02*
X171284588Y-71757851D01*
X171284588Y-71757851D02*
X170601573Y-70975161D01*
X170601573Y-70975161D02*
X169895424Y-70223439D01*
X169895424Y-70223439D02*
X169165789Y-69504098D01*
X169165789Y-69504098D02*
X168412316Y-68818548D01*
X168412316Y-68818548D02*
X167634653Y-68168202D01*
X167634653Y-68168202D02*
X166832450Y-67554470D01*
X166832450Y-67554470D02*
X166005355Y-66978763D01*
X166005355Y-66978763D02*
X165153016Y-66442494D01*
X165153016Y-66442494D02*
X164275081Y-65947072D01*
X164275081Y-65947072D02*
X163371199Y-65493911D01*
X163371199Y-65493911D02*
X162441019Y-65084420D01*
X162441019Y-65084420D02*
X161484188Y-64720011D01*
X161484188Y-64720011D02*
X160500356Y-64402096D01*
X160500356Y-64402096D02*
X159489171Y-64132086D01*
X159489171Y-64132086D02*
X158450281Y-63911392D01*
X158450281Y-63911392D02*
X157383334Y-63741425D01*
X157383334Y-63741425D02*
X156287980Y-63623596D01*
X156287980Y-63623596D02*
X155163866Y-63559318D01*
X155163866Y-63559318D02*
X154396680Y-63550001D01*
M02*
