G04 #@! TF.GenerationSoftware,KiCad,Pcbnew,5.1.4-e60b266~84~ubuntu18.04.1*
G04 #@! TF.CreationDate,2019-10-18T09:02:20-06:00*
G04 #@! TF.ProjectId,001,3030312e-6b69-4636-9164-5f7063625858,rev?*
G04 #@! TF.SameCoordinates,Original*
G04 #@! TF.FileFunction,Soldermask,Bot*
G04 #@! TF.FilePolarity,Negative*
%FSLAX46Y46*%
G04 Gerber Fmt 4.6, Leading zero omitted, Abs format (unit mm)*
G04 Created by KiCad (PCBNEW 5.1.4-e60b266~84~ubuntu18.04.1) date 2019-10-18 09:02:20*
%MOMM*%
%LPD*%
G04 APERTURE LIST*
%ADD10C,0.010000*%
%ADD11C,0.100000*%
G04 APERTURE END LIST*
D10*
G36*
X152411852Y-98335659D02*
G01*
X152442576Y-98381415D01*
X152444224Y-98387315D01*
X152444521Y-98440427D01*
X152431098Y-98470571D01*
X152393030Y-98492588D01*
X152338968Y-98502063D01*
X152290723Y-98496552D01*
X152276104Y-98487935D01*
X152265714Y-98458286D01*
X152261993Y-98414597D01*
X152277788Y-98359418D01*
X152316601Y-98326585D01*
X152365575Y-98318024D01*
X152411852Y-98335659D01*
X152411852Y-98335659D01*
G37*
X152411852Y-98335659D02*
X152442576Y-98381415D01*
X152444224Y-98387315D01*
X152444521Y-98440427D01*
X152431098Y-98470571D01*
X152393030Y-98492588D01*
X152338968Y-98502063D01*
X152290723Y-98496552D01*
X152276104Y-98487935D01*
X152265714Y-98458286D01*
X152261993Y-98414597D01*
X152277788Y-98359418D01*
X152316601Y-98326585D01*
X152365575Y-98318024D01*
X152411852Y-98335659D01*
G36*
X153132046Y-98399935D02*
G01*
X153177471Y-98407455D01*
X153199460Y-98426962D01*
X153208354Y-98471231D01*
X153210419Y-98496755D01*
X153218629Y-98555420D01*
X153235394Y-98581917D01*
X153256617Y-98586713D01*
X153294495Y-98604445D01*
X153309743Y-98629047D01*
X153315082Y-98688228D01*
X153296317Y-98735019D01*
X153259233Y-98755900D01*
X153255400Y-98756047D01*
X153232416Y-98761129D01*
X153220042Y-98782801D01*
X153215148Y-98830696D01*
X153214493Y-98881866D01*
X153203852Y-98989021D01*
X153169603Y-99063378D01*
X153108263Y-99109381D01*
X153019067Y-99131178D01*
X152958574Y-99136088D01*
X152927143Y-99129586D01*
X152911985Y-99106640D01*
X152906358Y-99086810D01*
X152900860Y-99018111D01*
X152925821Y-98978347D01*
X152970412Y-98967713D01*
X153002510Y-98964253D01*
X153018327Y-98946562D01*
X153023561Y-98903674D01*
X153023993Y-98864593D01*
X153023993Y-98761473D01*
X152939327Y-98763693D01*
X152854660Y-98765913D01*
X152854660Y-98867864D01*
X152840734Y-98982945D01*
X152798967Y-99066148D01*
X152729370Y-99117458D01*
X152631955Y-99136861D01*
X152619784Y-99137047D01*
X152570926Y-99127815D01*
X152545405Y-99106836D01*
X152537488Y-99043737D01*
X152559720Y-98992499D01*
X152600660Y-98967729D01*
X152633343Y-98954699D01*
X152650570Y-98927173D01*
X152658729Y-98872826D01*
X152660140Y-98852984D01*
X152662221Y-98792208D01*
X152656221Y-98764656D01*
X152639219Y-98761529D01*
X152630700Y-98764357D01*
X152571375Y-98769366D01*
X152525098Y-98741574D01*
X152508782Y-98709590D01*
X152509136Y-98645817D01*
X152542991Y-98602000D01*
X152600188Y-98586713D01*
X152639157Y-98583050D01*
X152658302Y-98564231D01*
X152666504Y-98518513D01*
X152668234Y-98496755D01*
X152674209Y-98440413D01*
X152689189Y-98414489D01*
X152725148Y-98407171D01*
X152759410Y-98406797D01*
X152812583Y-98408813D01*
X152837989Y-98422737D01*
X152847601Y-98460381D01*
X152850585Y-98496755D01*
X152856585Y-98553100D01*
X152871535Y-98579024D01*
X152907251Y-98586340D01*
X152940544Y-98586713D01*
X152994288Y-98584235D01*
X153018039Y-98570062D01*
X153024107Y-98534086D01*
X153024317Y-98517922D01*
X153032321Y-98446492D01*
X153059381Y-98408877D01*
X153111344Y-98398670D01*
X153132046Y-98399935D01*
X153132046Y-98399935D01*
G37*
X153132046Y-98399935D02*
X153177471Y-98407455D01*
X153199460Y-98426962D01*
X153208354Y-98471231D01*
X153210419Y-98496755D01*
X153218629Y-98555420D01*
X153235394Y-98581917D01*
X153256617Y-98586713D01*
X153294495Y-98604445D01*
X153309743Y-98629047D01*
X153315082Y-98688228D01*
X153296317Y-98735019D01*
X153259233Y-98755900D01*
X153255400Y-98756047D01*
X153232416Y-98761129D01*
X153220042Y-98782801D01*
X153215148Y-98830696D01*
X153214493Y-98881866D01*
X153203852Y-98989021D01*
X153169603Y-99063378D01*
X153108263Y-99109381D01*
X153019067Y-99131178D01*
X152958574Y-99136088D01*
X152927143Y-99129586D01*
X152911985Y-99106640D01*
X152906358Y-99086810D01*
X152900860Y-99018111D01*
X152925821Y-98978347D01*
X152970412Y-98967713D01*
X153002510Y-98964253D01*
X153018327Y-98946562D01*
X153023561Y-98903674D01*
X153023993Y-98864593D01*
X153023993Y-98761473D01*
X152939327Y-98763693D01*
X152854660Y-98765913D01*
X152854660Y-98867864D01*
X152840734Y-98982945D01*
X152798967Y-99066148D01*
X152729370Y-99117458D01*
X152631955Y-99136861D01*
X152619784Y-99137047D01*
X152570926Y-99127815D01*
X152545405Y-99106836D01*
X152537488Y-99043737D01*
X152559720Y-98992499D01*
X152600660Y-98967729D01*
X152633343Y-98954699D01*
X152650570Y-98927173D01*
X152658729Y-98872826D01*
X152660140Y-98852984D01*
X152662221Y-98792208D01*
X152656221Y-98764656D01*
X152639219Y-98761529D01*
X152630700Y-98764357D01*
X152571375Y-98769366D01*
X152525098Y-98741574D01*
X152508782Y-98709590D01*
X152509136Y-98645817D01*
X152542991Y-98602000D01*
X152600188Y-98586713D01*
X152639157Y-98583050D01*
X152658302Y-98564231D01*
X152666504Y-98518513D01*
X152668234Y-98496755D01*
X152674209Y-98440413D01*
X152689189Y-98414489D01*
X152725148Y-98407171D01*
X152759410Y-98406797D01*
X152812583Y-98408813D01*
X152837989Y-98422737D01*
X152847601Y-98460381D01*
X152850585Y-98496755D01*
X152856585Y-98553100D01*
X152871535Y-98579024D01*
X152907251Y-98586340D01*
X152940544Y-98586713D01*
X152994288Y-98584235D01*
X153018039Y-98570062D01*
X153024107Y-98534086D01*
X153024317Y-98517922D01*
X153032321Y-98446492D01*
X153059381Y-98408877D01*
X153111344Y-98398670D01*
X153132046Y-98399935D01*
G36*
X152403022Y-98593531D02*
G01*
X152434074Y-98611601D01*
X152443634Y-98647997D01*
X152449684Y-98713965D01*
X152452378Y-98798455D01*
X152451870Y-98890419D01*
X152448315Y-98978808D01*
X152441867Y-99052573D01*
X152432680Y-99100666D01*
X152427093Y-99111647D01*
X152387571Y-99131222D01*
X152335620Y-99136096D01*
X152290095Y-99126552D01*
X152271182Y-99109294D01*
X152267433Y-99077957D01*
X152265355Y-99014011D01*
X152265114Y-98927157D01*
X152266554Y-98839419D01*
X152272577Y-98597297D01*
X152344440Y-98590435D01*
X152403022Y-98593531D01*
X152403022Y-98593531D01*
G37*
X152403022Y-98593531D02*
X152434074Y-98611601D01*
X152443634Y-98647997D01*
X152449684Y-98713965D01*
X152452378Y-98798455D01*
X152451870Y-98890419D01*
X152448315Y-98978808D01*
X152441867Y-99052573D01*
X152432680Y-99100666D01*
X152427093Y-99111647D01*
X152387571Y-99131222D01*
X152335620Y-99136096D01*
X152290095Y-99126552D01*
X152271182Y-99109294D01*
X152267433Y-99077957D01*
X152265355Y-99014011D01*
X152265114Y-98927157D01*
X152266554Y-98839419D01*
X152272577Y-98597297D01*
X152344440Y-98590435D01*
X152403022Y-98593531D01*
G36*
X151929787Y-98599225D02*
G01*
X151943783Y-98606993D01*
X151985843Y-98613541D01*
X152000609Y-98605225D01*
X152038332Y-98592261D01*
X152094110Y-98590339D01*
X152096569Y-98590561D01*
X152166743Y-98597297D01*
X152172749Y-98837684D01*
X152174010Y-98957260D01*
X152169606Y-99040773D01*
X152157726Y-99094316D01*
X152136556Y-99123983D01*
X152104285Y-99135868D01*
X152083718Y-99137047D01*
X152036613Y-99128264D01*
X152006920Y-99097569D01*
X151991403Y-99038436D01*
X151986829Y-98944342D01*
X151986827Y-98941631D01*
X151985446Y-98863894D01*
X151979249Y-98817896D01*
X151965152Y-98793079D01*
X151940071Y-98778884D01*
X151939202Y-98778545D01*
X151882345Y-98768525D01*
X151841273Y-98791041D01*
X151813948Y-98848824D01*
X151798333Y-98944606D01*
X151796327Y-98970165D01*
X151790281Y-99050118D01*
X151782759Y-99097159D01*
X151769468Y-99120614D01*
X151746114Y-99129811D01*
X151721482Y-99132758D01*
X151671292Y-99132723D01*
X151642107Y-99123939D01*
X151635375Y-99097283D01*
X151630186Y-99038816D01*
X151627318Y-98959054D01*
X151626993Y-98919735D01*
X151627615Y-98829166D01*
X151631569Y-98769562D01*
X151641989Y-98729558D01*
X151662009Y-98697787D01*
X151694762Y-98662882D01*
X151698960Y-98658680D01*
X151774378Y-98605133D01*
X151854908Y-98584557D01*
X151929787Y-98599225D01*
X151929787Y-98599225D01*
G37*
X151929787Y-98599225D02*
X151943783Y-98606993D01*
X151985843Y-98613541D01*
X152000609Y-98605225D01*
X152038332Y-98592261D01*
X152094110Y-98590339D01*
X152096569Y-98590561D01*
X152166743Y-98597297D01*
X152172749Y-98837684D01*
X152174010Y-98957260D01*
X152169606Y-99040773D01*
X152157726Y-99094316D01*
X152136556Y-99123983D01*
X152104285Y-99135868D01*
X152083718Y-99137047D01*
X152036613Y-99128264D01*
X152006920Y-99097569D01*
X151991403Y-99038436D01*
X151986829Y-98944342D01*
X151986827Y-98941631D01*
X151985446Y-98863894D01*
X151979249Y-98817896D01*
X151965152Y-98793079D01*
X151940071Y-98778884D01*
X151939202Y-98778545D01*
X151882345Y-98768525D01*
X151841273Y-98791041D01*
X151813948Y-98848824D01*
X151798333Y-98944606D01*
X151796327Y-98970165D01*
X151790281Y-99050118D01*
X151782759Y-99097159D01*
X151769468Y-99120614D01*
X151746114Y-99129811D01*
X151721482Y-99132758D01*
X151671292Y-99132723D01*
X151642107Y-99123939D01*
X151635375Y-99097283D01*
X151630186Y-99038816D01*
X151627318Y-98959054D01*
X151626993Y-98919735D01*
X151627615Y-98829166D01*
X151631569Y-98769562D01*
X151641989Y-98729558D01*
X151662009Y-98697787D01*
X151694762Y-98662882D01*
X151698960Y-98658680D01*
X151774378Y-98605133D01*
X151854908Y-98584557D01*
X151929787Y-98599225D01*
G36*
X153769819Y-98377718D02*
G01*
X153795459Y-98405764D01*
X153834702Y-98467023D01*
X153884493Y-98555786D01*
X153941778Y-98666348D01*
X154003503Y-98793002D01*
X154066614Y-98930040D01*
X154072780Y-98943861D01*
X154103593Y-99014952D01*
X154118042Y-99057856D01*
X154117393Y-99082873D01*
X154102910Y-99100305D01*
X154092925Y-99107903D01*
X154030929Y-99136259D01*
X153977187Y-99123560D01*
X153930145Y-99069344D01*
X153923577Y-99057614D01*
X153899213Y-99015374D01*
X153874640Y-98991126D01*
X153837549Y-98979155D01*
X153775629Y-98973747D01*
X153739281Y-98972059D01*
X153597319Y-98965821D01*
X153554974Y-99048823D01*
X153515344Y-99113725D01*
X153476844Y-99141882D01*
X153430392Y-99137632D01*
X153398856Y-99123417D01*
X153358418Y-99097010D01*
X153341494Y-99075587D01*
X153341493Y-99075517D01*
X153350841Y-99043925D01*
X153376304Y-98983434D01*
X153414009Y-98901706D01*
X153460082Y-98806404D01*
X153475087Y-98776371D01*
X153682127Y-98776371D01*
X153691980Y-98807988D01*
X153738961Y-98819486D01*
X153744203Y-98819547D01*
X153808247Y-98819547D01*
X153773325Y-98752015D01*
X153748972Y-98709092D01*
X153732266Y-98699843D01*
X153712675Y-98719710D01*
X153709282Y-98724311D01*
X153682127Y-98776371D01*
X153475087Y-98776371D01*
X153510650Y-98705191D01*
X153561841Y-98605730D01*
X153609781Y-98515684D01*
X153650597Y-98442716D01*
X153680416Y-98394490D01*
X153693535Y-98378986D01*
X153748467Y-98369840D01*
X153769819Y-98377718D01*
X153769819Y-98377718D01*
G37*
X153769819Y-98377718D02*
X153795459Y-98405764D01*
X153834702Y-98467023D01*
X153884493Y-98555786D01*
X153941778Y-98666348D01*
X154003503Y-98793002D01*
X154066614Y-98930040D01*
X154072780Y-98943861D01*
X154103593Y-99014952D01*
X154118042Y-99057856D01*
X154117393Y-99082873D01*
X154102910Y-99100305D01*
X154092925Y-99107903D01*
X154030929Y-99136259D01*
X153977187Y-99123560D01*
X153930145Y-99069344D01*
X153923577Y-99057614D01*
X153899213Y-99015374D01*
X153874640Y-98991126D01*
X153837549Y-98979155D01*
X153775629Y-98973747D01*
X153739281Y-98972059D01*
X153597319Y-98965821D01*
X153554974Y-99048823D01*
X153515344Y-99113725D01*
X153476844Y-99141882D01*
X153430392Y-99137632D01*
X153398856Y-99123417D01*
X153358418Y-99097010D01*
X153341494Y-99075587D01*
X153341493Y-99075517D01*
X153350841Y-99043925D01*
X153376304Y-98983434D01*
X153414009Y-98901706D01*
X153460082Y-98806404D01*
X153475087Y-98776371D01*
X153682127Y-98776371D01*
X153691980Y-98807988D01*
X153738961Y-98819486D01*
X153744203Y-98819547D01*
X153808247Y-98819547D01*
X153773325Y-98752015D01*
X153748972Y-98709092D01*
X153732266Y-98699843D01*
X153712675Y-98719710D01*
X153709282Y-98724311D01*
X153682127Y-98776371D01*
X153475087Y-98776371D01*
X153510650Y-98705191D01*
X153561841Y-98605730D01*
X153609781Y-98515684D01*
X153650597Y-98442716D01*
X153680416Y-98394490D01*
X153693535Y-98378986D01*
X153748467Y-98369840D01*
X153769819Y-98377718D01*
G36*
X150743861Y-98363617D02*
G01*
X150807010Y-98398557D01*
X150832507Y-98419573D01*
X150880762Y-98468579D01*
X150902510Y-98515153D01*
X150907327Y-98574089D01*
X150902691Y-98634473D01*
X150891119Y-98676930D01*
X150886535Y-98683704D01*
X150881487Y-98718152D01*
X150904121Y-98781774D01*
X150909572Y-98793079D01*
X150936077Y-98855547D01*
X150941514Y-98903411D01*
X150929749Y-98953326D01*
X150877450Y-99047119D01*
X150794077Y-99116225D01*
X150752490Y-99135637D01*
X150689142Y-99153989D01*
X150632585Y-99152964D01*
X150564996Y-99131053D01*
X150533022Y-99117078D01*
X150454378Y-99063309D01*
X150401772Y-98990762D01*
X150378528Y-98909236D01*
X150381607Y-98882911D01*
X150574609Y-98882911D01*
X150575194Y-98933043D01*
X150575210Y-98933086D01*
X150604884Y-98959267D01*
X150654884Y-98967138D01*
X150707310Y-98956579D01*
X150739466Y-98934189D01*
X150754627Y-98891403D01*
X150735027Y-98854065D01*
X150687981Y-98832253D01*
X150663910Y-98830130D01*
X150607214Y-98845085D01*
X150574609Y-98882911D01*
X150381607Y-98882911D01*
X150387968Y-98828532D01*
X150417325Y-98775870D01*
X150443074Y-98735233D01*
X150439928Y-98698299D01*
X150428038Y-98672983D01*
X150403521Y-98587249D01*
X150407773Y-98560247D01*
X150595435Y-98560247D01*
X150596418Y-98599488D01*
X150615227Y-98624813D01*
X150660140Y-98648845D01*
X150700466Y-98631605D01*
X150715637Y-98610102D01*
X150721462Y-98566580D01*
X150695663Y-98536548D01*
X150648789Y-98529806D01*
X150633176Y-98533474D01*
X150595435Y-98560247D01*
X150407773Y-98560247D01*
X150416283Y-98506215D01*
X150461314Y-98436419D01*
X150533598Y-98384399D01*
X150628125Y-98356693D01*
X150672706Y-98353880D01*
X150743861Y-98363617D01*
X150743861Y-98363617D01*
G37*
X150743861Y-98363617D02*
X150807010Y-98398557D01*
X150832507Y-98419573D01*
X150880762Y-98468579D01*
X150902510Y-98515153D01*
X150907327Y-98574089D01*
X150902691Y-98634473D01*
X150891119Y-98676930D01*
X150886535Y-98683704D01*
X150881487Y-98718152D01*
X150904121Y-98781774D01*
X150909572Y-98793079D01*
X150936077Y-98855547D01*
X150941514Y-98903411D01*
X150929749Y-98953326D01*
X150877450Y-99047119D01*
X150794077Y-99116225D01*
X150752490Y-99135637D01*
X150689142Y-99153989D01*
X150632585Y-99152964D01*
X150564996Y-99131053D01*
X150533022Y-99117078D01*
X150454378Y-99063309D01*
X150401772Y-98990762D01*
X150378528Y-98909236D01*
X150381607Y-98882911D01*
X150574609Y-98882911D01*
X150575194Y-98933043D01*
X150575210Y-98933086D01*
X150604884Y-98959267D01*
X150654884Y-98967138D01*
X150707310Y-98956579D01*
X150739466Y-98934189D01*
X150754627Y-98891403D01*
X150735027Y-98854065D01*
X150687981Y-98832253D01*
X150663910Y-98830130D01*
X150607214Y-98845085D01*
X150574609Y-98882911D01*
X150381607Y-98882911D01*
X150387968Y-98828532D01*
X150417325Y-98775870D01*
X150443074Y-98735233D01*
X150439928Y-98698299D01*
X150428038Y-98672983D01*
X150403521Y-98587249D01*
X150407773Y-98560247D01*
X150595435Y-98560247D01*
X150596418Y-98599488D01*
X150615227Y-98624813D01*
X150660140Y-98648845D01*
X150700466Y-98631605D01*
X150715637Y-98610102D01*
X150721462Y-98566580D01*
X150695663Y-98536548D01*
X150648789Y-98529806D01*
X150633176Y-98533474D01*
X150595435Y-98560247D01*
X150407773Y-98560247D01*
X150416283Y-98506215D01*
X150461314Y-98436419D01*
X150533598Y-98384399D01*
X150628125Y-98356693D01*
X150672706Y-98353880D01*
X150743861Y-98363617D01*
G36*
X150151357Y-98359621D02*
G01*
X150212337Y-98370269D01*
X150235665Y-98380338D01*
X150256493Y-98414566D01*
X150277399Y-98479138D01*
X150295773Y-98562151D01*
X150309003Y-98651703D01*
X150314477Y-98735889D01*
X150314500Y-98739684D01*
X150298478Y-98795527D01*
X150258647Y-98836945D01*
X150207863Y-98854944D01*
X150164704Y-98844508D01*
X150106371Y-98823140D01*
X150053171Y-98827499D01*
X150015848Y-98852886D01*
X150005143Y-98894603D01*
X150009713Y-98912296D01*
X150043563Y-98948664D01*
X150098367Y-98960115D01*
X150159386Y-98944495D01*
X150173663Y-98936253D01*
X150223973Y-98913673D01*
X150267306Y-98922700D01*
X150268417Y-98923287D01*
X150315452Y-98963203D01*
X150326945Y-99008452D01*
X150308478Y-99054326D01*
X150265634Y-99096118D01*
X150203995Y-99129119D01*
X150129144Y-99148622D01*
X150046664Y-99149919D01*
X150007743Y-99143116D01*
X149946306Y-99111334D01*
X149886282Y-99053329D01*
X149841065Y-98983481D01*
X149828868Y-98951120D01*
X149823229Y-98862320D01*
X149849559Y-98775809D01*
X149900959Y-98701492D01*
X149970530Y-98649273D01*
X150051374Y-98629056D01*
X150053207Y-98629047D01*
X150093077Y-98617786D01*
X150102993Y-98586713D01*
X150098276Y-98562901D01*
X150077623Y-98550129D01*
X150031279Y-98545085D01*
X149978258Y-98544380D01*
X149901753Y-98541193D01*
X149858584Y-98530234D01*
X149840674Y-98510899D01*
X149828519Y-98441605D01*
X149849306Y-98390634D01*
X149868768Y-98375791D01*
X149916559Y-98362579D01*
X149989140Y-98355599D01*
X150072182Y-98354672D01*
X150151357Y-98359621D01*
X150151357Y-98359621D01*
G37*
X150151357Y-98359621D02*
X150212337Y-98370269D01*
X150235665Y-98380338D01*
X150256493Y-98414566D01*
X150277399Y-98479138D01*
X150295773Y-98562151D01*
X150309003Y-98651703D01*
X150314477Y-98735889D01*
X150314500Y-98739684D01*
X150298478Y-98795527D01*
X150258647Y-98836945D01*
X150207863Y-98854944D01*
X150164704Y-98844508D01*
X150106371Y-98823140D01*
X150053171Y-98827499D01*
X150015848Y-98852886D01*
X150005143Y-98894603D01*
X150009713Y-98912296D01*
X150043563Y-98948664D01*
X150098367Y-98960115D01*
X150159386Y-98944495D01*
X150173663Y-98936253D01*
X150223973Y-98913673D01*
X150267306Y-98922700D01*
X150268417Y-98923287D01*
X150315452Y-98963203D01*
X150326945Y-99008452D01*
X150308478Y-99054326D01*
X150265634Y-99096118D01*
X150203995Y-99129119D01*
X150129144Y-99148622D01*
X150046664Y-99149919D01*
X150007743Y-99143116D01*
X149946306Y-99111334D01*
X149886282Y-99053329D01*
X149841065Y-98983481D01*
X149828868Y-98951120D01*
X149823229Y-98862320D01*
X149849559Y-98775809D01*
X149900959Y-98701492D01*
X149970530Y-98649273D01*
X150051374Y-98629056D01*
X150053207Y-98629047D01*
X150093077Y-98617786D01*
X150102993Y-98586713D01*
X150098276Y-98562901D01*
X150077623Y-98550129D01*
X150031279Y-98545085D01*
X149978258Y-98544380D01*
X149901753Y-98541193D01*
X149858584Y-98530234D01*
X149840674Y-98510899D01*
X149828519Y-98441605D01*
X149849306Y-98390634D01*
X149868768Y-98375791D01*
X149916559Y-98362579D01*
X149989140Y-98355599D01*
X150072182Y-98354672D01*
X150151357Y-98359621D01*
G36*
X151494094Y-98578637D02*
G01*
X151540135Y-98601604D01*
X151575506Y-98633853D01*
X151584295Y-98655993D01*
X151573914Y-98684147D01*
X151546177Y-98739596D01*
X151505709Y-98813456D01*
X151471697Y-98872349D01*
X151359463Y-99062734D01*
X151413098Y-99187039D01*
X151466732Y-99311343D01*
X151417518Y-99351195D01*
X151358979Y-99386041D01*
X151315508Y-99382348D01*
X151291219Y-99354005D01*
X151264242Y-99299576D01*
X151227919Y-99220952D01*
X151185585Y-99125966D01*
X151140573Y-99022450D01*
X151096215Y-98918237D01*
X151055845Y-98821159D01*
X151022796Y-98739049D01*
X151000402Y-98679739D01*
X150991996Y-98651062D01*
X150991993Y-98650881D01*
X151010109Y-98614421D01*
X151052262Y-98586945D01*
X151100157Y-98576978D01*
X151129623Y-98586752D01*
X151152376Y-98617566D01*
X151183030Y-98673837D01*
X151206629Y-98724600D01*
X151234994Y-98786024D01*
X151257784Y-98828020D01*
X151268259Y-98840352D01*
X151283827Y-98823619D01*
X151313633Y-98779319D01*
X151351346Y-98716885D01*
X151352925Y-98714150D01*
X151393783Y-98648734D01*
X151430617Y-98599108D01*
X151455351Y-98576087D01*
X151494094Y-98578637D01*
X151494094Y-98578637D01*
G37*
X151494094Y-98578637D02*
X151540135Y-98601604D01*
X151575506Y-98633853D01*
X151584295Y-98655993D01*
X151573914Y-98684147D01*
X151546177Y-98739596D01*
X151505709Y-98813456D01*
X151471697Y-98872349D01*
X151359463Y-99062734D01*
X151413098Y-99187039D01*
X151466732Y-99311343D01*
X151417518Y-99351195D01*
X151358979Y-99386041D01*
X151315508Y-99382348D01*
X151291219Y-99354005D01*
X151264242Y-99299576D01*
X151227919Y-99220952D01*
X151185585Y-99125966D01*
X151140573Y-99022450D01*
X151096215Y-98918237D01*
X151055845Y-98821159D01*
X151022796Y-98739049D01*
X151000402Y-98679739D01*
X150991996Y-98651062D01*
X150991993Y-98650881D01*
X151010109Y-98614421D01*
X151052262Y-98586945D01*
X151100157Y-98576978D01*
X151129623Y-98586752D01*
X151152376Y-98617566D01*
X151183030Y-98673837D01*
X151206629Y-98724600D01*
X151234994Y-98786024D01*
X151257784Y-98828020D01*
X151268259Y-98840352D01*
X151283827Y-98823619D01*
X151313633Y-98779319D01*
X151351346Y-98716885D01*
X151352925Y-98714150D01*
X151393783Y-98648734D01*
X151430617Y-98599108D01*
X151455351Y-98576087D01*
X151494094Y-98578637D01*
G36*
X153734212Y-96995276D02*
G01*
X153962381Y-97045328D01*
X154165528Y-97125750D01*
X154342845Y-97234088D01*
X154493523Y-97367888D01*
X154616751Y-97524698D01*
X154711722Y-97702064D01*
X154777625Y-97897532D01*
X154813651Y-98108649D01*
X154818992Y-98332962D01*
X154792838Y-98568018D01*
X154734379Y-98811362D01*
X154642807Y-99060541D01*
X154517313Y-99313103D01*
X154357086Y-99566593D01*
X154342442Y-99587260D01*
X154180053Y-99791344D01*
X153984022Y-99999013D01*
X153761893Y-100204056D01*
X153521210Y-100400262D01*
X153269515Y-100581419D01*
X153014353Y-100741318D01*
X152803620Y-100854285D01*
X152702770Y-100901403D01*
X152620543Y-100935122D01*
X152560809Y-100954490D01*
X152527440Y-100958554D01*
X152524308Y-100946361D01*
X152555283Y-100916960D01*
X152558327Y-100914617D01*
X152592556Y-100888847D01*
X152653980Y-100842965D01*
X152735771Y-100782058D01*
X152831104Y-100711208D01*
X152908012Y-100654139D01*
X153203598Y-100420562D01*
X153465252Y-100184054D01*
X153692478Y-99946008D01*
X153884782Y-99707818D01*
X154041667Y-99470875D01*
X154162640Y-99236573D01*
X154247205Y-99006306D01*
X154294866Y-98781465D01*
X154305129Y-98563445D01*
X154277499Y-98353637D01*
X154211479Y-98153436D01*
X154106576Y-97964233D01*
X153962293Y-97787422D01*
X153936365Y-97761208D01*
X153764032Y-97612629D01*
X153587028Y-97504167D01*
X153400176Y-97433611D01*
X153198297Y-97398749D01*
X153076910Y-97393991D01*
X152861332Y-97410324D01*
X152655961Y-97459313D01*
X152457075Y-97542814D01*
X152260952Y-97662683D01*
X152063870Y-97820774D01*
X151897169Y-97982065D01*
X151827930Y-98051571D01*
X151770434Y-98104814D01*
X151730081Y-98137128D01*
X151712268Y-98143846D01*
X151711870Y-98142213D01*
X151724953Y-98101971D01*
X151761479Y-98037228D01*
X151816415Y-97954806D01*
X151884724Y-97861526D01*
X151961373Y-97764211D01*
X152041328Y-97669682D01*
X152119553Y-97584761D01*
X152134431Y-97569646D01*
X152358839Y-97370864D01*
X152595196Y-97212508D01*
X152843238Y-97094695D01*
X153102701Y-97017540D01*
X153373322Y-96981158D01*
X153481831Y-96978047D01*
X153734212Y-96995276D01*
X153734212Y-96995276D01*
G37*
X153734212Y-96995276D02*
X153962381Y-97045328D01*
X154165528Y-97125750D01*
X154342845Y-97234088D01*
X154493523Y-97367888D01*
X154616751Y-97524698D01*
X154711722Y-97702064D01*
X154777625Y-97897532D01*
X154813651Y-98108649D01*
X154818992Y-98332962D01*
X154792838Y-98568018D01*
X154734379Y-98811362D01*
X154642807Y-99060541D01*
X154517313Y-99313103D01*
X154357086Y-99566593D01*
X154342442Y-99587260D01*
X154180053Y-99791344D01*
X153984022Y-99999013D01*
X153761893Y-100204056D01*
X153521210Y-100400262D01*
X153269515Y-100581419D01*
X153014353Y-100741318D01*
X152803620Y-100854285D01*
X152702770Y-100901403D01*
X152620543Y-100935122D01*
X152560809Y-100954490D01*
X152527440Y-100958554D01*
X152524308Y-100946361D01*
X152555283Y-100916960D01*
X152558327Y-100914617D01*
X152592556Y-100888847D01*
X152653980Y-100842965D01*
X152735771Y-100782058D01*
X152831104Y-100711208D01*
X152908012Y-100654139D01*
X153203598Y-100420562D01*
X153465252Y-100184054D01*
X153692478Y-99946008D01*
X153884782Y-99707818D01*
X154041667Y-99470875D01*
X154162640Y-99236573D01*
X154247205Y-99006306D01*
X154294866Y-98781465D01*
X154305129Y-98563445D01*
X154277499Y-98353637D01*
X154211479Y-98153436D01*
X154106576Y-97964233D01*
X153962293Y-97787422D01*
X153936365Y-97761208D01*
X153764032Y-97612629D01*
X153587028Y-97504167D01*
X153400176Y-97433611D01*
X153198297Y-97398749D01*
X153076910Y-97393991D01*
X152861332Y-97410324D01*
X152655961Y-97459313D01*
X152457075Y-97542814D01*
X152260952Y-97662683D01*
X152063870Y-97820774D01*
X151897169Y-97982065D01*
X151827930Y-98051571D01*
X151770434Y-98104814D01*
X151730081Y-98137128D01*
X151712268Y-98143846D01*
X151711870Y-98142213D01*
X151724953Y-98101971D01*
X151761479Y-98037228D01*
X151816415Y-97954806D01*
X151884724Y-97861526D01*
X151961373Y-97764211D01*
X152041328Y-97669682D01*
X152119553Y-97584761D01*
X152134431Y-97569646D01*
X152358839Y-97370864D01*
X152595196Y-97212508D01*
X152843238Y-97094695D01*
X153102701Y-97017540D01*
X153373322Y-96981158D01*
X153481831Y-96978047D01*
X153734212Y-96995276D01*
G36*
X150121946Y-97099250D02*
G01*
X150362797Y-97150269D01*
X150597976Y-97237799D01*
X150824148Y-97359972D01*
X151037975Y-97514924D01*
X151236120Y-97700786D01*
X151415246Y-97915693D01*
X151572015Y-98157779D01*
X151602898Y-98213984D01*
X151649365Y-98308417D01*
X151670806Y-98368847D01*
X151668103Y-98394752D01*
X151642137Y-98385610D01*
X151593790Y-98340898D01*
X151524319Y-98260555D01*
X151340305Y-98056964D01*
X151143802Y-97882384D01*
X150938272Y-97738063D01*
X150727180Y-97625251D01*
X150513990Y-97545195D01*
X150302166Y-97499145D01*
X150095172Y-97488348D01*
X149896473Y-97514053D01*
X149709531Y-97577509D01*
X149675276Y-97594116D01*
X149534316Y-97688474D01*
X149410508Y-97815022D01*
X149308307Y-97965570D01*
X149232164Y-98131925D01*
X149186532Y-98305897D01*
X149175864Y-98479292D01*
X149177937Y-98509109D01*
X149201336Y-98637353D01*
X149249882Y-98761134D01*
X149327146Y-98886624D01*
X149436701Y-99019995D01*
X149529260Y-99116156D01*
X149620910Y-99203652D01*
X149716215Y-99287361D01*
X149818900Y-99369686D01*
X149932690Y-99453031D01*
X150061314Y-99539797D01*
X150208496Y-99632388D01*
X150377963Y-99733206D01*
X150573443Y-99844654D01*
X150798660Y-99969135D01*
X151057341Y-100109052D01*
X151126763Y-100146236D01*
X151286944Y-100232653D01*
X151445418Y-100319548D01*
X151595570Y-100403192D01*
X151730782Y-100479853D01*
X151844438Y-100545801D01*
X151929921Y-100597307D01*
X151955077Y-100613244D01*
X152230040Y-100804711D01*
X152462928Y-100995215D01*
X152653677Y-101184694D01*
X152802226Y-101373086D01*
X152893030Y-101527782D01*
X152929953Y-101605253D01*
X152952937Y-101666011D01*
X152965264Y-101725184D01*
X152970214Y-101797905D01*
X152971077Y-101887615D01*
X152969889Y-101986067D01*
X152964574Y-102055489D01*
X152952500Y-102109159D01*
X152931036Y-102160355D01*
X152908711Y-102202379D01*
X152810711Y-102337435D01*
X152684634Y-102444908D01*
X152537555Y-102520195D01*
X152376547Y-102558691D01*
X152358568Y-102560458D01*
X152285766Y-102563999D01*
X152251317Y-102559293D01*
X152251410Y-102550797D01*
X152281220Y-102533359D01*
X152338302Y-102507943D01*
X152404784Y-102482119D01*
X152553616Y-102410644D01*
X152665793Y-102318246D01*
X152741057Y-102205337D01*
X152779153Y-102072329D01*
X152779823Y-101919635D01*
X152775397Y-101886470D01*
X152724752Y-101696422D01*
X152633426Y-101513583D01*
X152502836Y-101340685D01*
X152478944Y-101314711D01*
X152402164Y-101238193D01*
X152317662Y-101164349D01*
X152222070Y-101091276D01*
X152112018Y-101017072D01*
X151984138Y-100939835D01*
X151835061Y-100857662D01*
X151661418Y-100768651D01*
X151459839Y-100670899D01*
X151226957Y-100562505D01*
X150959402Y-100441565D01*
X150833243Y-100385402D01*
X150469173Y-100220631D01*
X150143955Y-100065892D01*
X149855756Y-99919508D01*
X149602749Y-99779798D01*
X149383101Y-99645085D01*
X149194984Y-99513689D01*
X149036568Y-99383932D01*
X148906021Y-99254134D01*
X148801514Y-99122617D01*
X148721216Y-98987702D01*
X148663299Y-98847709D01*
X148625930Y-98700960D01*
X148607281Y-98545777D01*
X148605521Y-98380479D01*
X148607181Y-98343297D01*
X148638943Y-98098018D01*
X148705709Y-97873970D01*
X148805664Y-97673323D01*
X148936987Y-97498247D01*
X149097863Y-97350913D01*
X149286472Y-97233492D01*
X149500998Y-97148152D01*
X149636583Y-97114211D01*
X149878763Y-97086609D01*
X150121946Y-97099250D01*
X150121946Y-97099250D01*
G37*
X150121946Y-97099250D02*
X150362797Y-97150269D01*
X150597976Y-97237799D01*
X150824148Y-97359972D01*
X151037975Y-97514924D01*
X151236120Y-97700786D01*
X151415246Y-97915693D01*
X151572015Y-98157779D01*
X151602898Y-98213984D01*
X151649365Y-98308417D01*
X151670806Y-98368847D01*
X151668103Y-98394752D01*
X151642137Y-98385610D01*
X151593790Y-98340898D01*
X151524319Y-98260555D01*
X151340305Y-98056964D01*
X151143802Y-97882384D01*
X150938272Y-97738063D01*
X150727180Y-97625251D01*
X150513990Y-97545195D01*
X150302166Y-97499145D01*
X150095172Y-97488348D01*
X149896473Y-97514053D01*
X149709531Y-97577509D01*
X149675276Y-97594116D01*
X149534316Y-97688474D01*
X149410508Y-97815022D01*
X149308307Y-97965570D01*
X149232164Y-98131925D01*
X149186532Y-98305897D01*
X149175864Y-98479292D01*
X149177937Y-98509109D01*
X149201336Y-98637353D01*
X149249882Y-98761134D01*
X149327146Y-98886624D01*
X149436701Y-99019995D01*
X149529260Y-99116156D01*
X149620910Y-99203652D01*
X149716215Y-99287361D01*
X149818900Y-99369686D01*
X149932690Y-99453031D01*
X150061314Y-99539797D01*
X150208496Y-99632388D01*
X150377963Y-99733206D01*
X150573443Y-99844654D01*
X150798660Y-99969135D01*
X151057341Y-100109052D01*
X151126763Y-100146236D01*
X151286944Y-100232653D01*
X151445418Y-100319548D01*
X151595570Y-100403192D01*
X151730782Y-100479853D01*
X151844438Y-100545801D01*
X151929921Y-100597307D01*
X151955077Y-100613244D01*
X152230040Y-100804711D01*
X152462928Y-100995215D01*
X152653677Y-101184694D01*
X152802226Y-101373086D01*
X152893030Y-101527782D01*
X152929953Y-101605253D01*
X152952937Y-101666011D01*
X152965264Y-101725184D01*
X152970214Y-101797905D01*
X152971077Y-101887615D01*
X152969889Y-101986067D01*
X152964574Y-102055489D01*
X152952500Y-102109159D01*
X152931036Y-102160355D01*
X152908711Y-102202379D01*
X152810711Y-102337435D01*
X152684634Y-102444908D01*
X152537555Y-102520195D01*
X152376547Y-102558691D01*
X152358568Y-102560458D01*
X152285766Y-102563999D01*
X152251317Y-102559293D01*
X152251410Y-102550797D01*
X152281220Y-102533359D01*
X152338302Y-102507943D01*
X152404784Y-102482119D01*
X152553616Y-102410644D01*
X152665793Y-102318246D01*
X152741057Y-102205337D01*
X152779153Y-102072329D01*
X152779823Y-101919635D01*
X152775397Y-101886470D01*
X152724752Y-101696422D01*
X152633426Y-101513583D01*
X152502836Y-101340685D01*
X152478944Y-101314711D01*
X152402164Y-101238193D01*
X152317662Y-101164349D01*
X152222070Y-101091276D01*
X152112018Y-101017072D01*
X151984138Y-100939835D01*
X151835061Y-100857662D01*
X151661418Y-100768651D01*
X151459839Y-100670899D01*
X151226957Y-100562505D01*
X150959402Y-100441565D01*
X150833243Y-100385402D01*
X150469173Y-100220631D01*
X150143955Y-100065892D01*
X149855756Y-99919508D01*
X149602749Y-99779798D01*
X149383101Y-99645085D01*
X149194984Y-99513689D01*
X149036568Y-99383932D01*
X148906021Y-99254134D01*
X148801514Y-99122617D01*
X148721216Y-98987702D01*
X148663299Y-98847709D01*
X148625930Y-98700960D01*
X148607281Y-98545777D01*
X148605521Y-98380479D01*
X148607181Y-98343297D01*
X148638943Y-98098018D01*
X148705709Y-97873970D01*
X148805664Y-97673323D01*
X148936987Y-97498247D01*
X149097863Y-97350913D01*
X149286472Y-97233492D01*
X149500998Y-97148152D01*
X149636583Y-97114211D01*
X149878763Y-97086609D01*
X150121946Y-97099250D01*
D11*
G36*
X151306588Y-102617234D02*
G01*
X151476389Y-102668743D01*
X151632879Y-102752389D01*
X151770043Y-102864957D01*
X151882611Y-103002121D01*
X151966257Y-103158611D01*
X152017766Y-103328412D01*
X152035158Y-103505000D01*
X152017766Y-103681588D01*
X151966257Y-103851389D01*
X151910493Y-103955716D01*
X151882611Y-104007880D01*
X151800848Y-104107508D01*
X151795348Y-104115739D01*
X151791559Y-104124885D01*
X151789628Y-104134594D01*
X151789628Y-104144494D01*
X151791559Y-104154203D01*
X151795348Y-104163349D01*
X151800848Y-104171580D01*
X151804176Y-104175252D01*
X151829697Y-104200773D01*
X151928279Y-104348311D01*
X151996183Y-104512246D01*
X152030800Y-104686279D01*
X152030800Y-104863721D01*
X151996183Y-105037754D01*
X151928279Y-105201689D01*
X151829697Y-105349227D01*
X151704227Y-105474697D01*
X151556689Y-105573279D01*
X151392754Y-105641183D01*
X151218721Y-105675800D01*
X151041279Y-105675800D01*
X150867246Y-105641183D01*
X150703311Y-105573279D01*
X150555773Y-105474697D01*
X150430303Y-105349227D01*
X150331721Y-105201689D01*
X150263817Y-105037754D01*
X150229200Y-104863721D01*
X150229200Y-104686279D01*
X150263817Y-104512246D01*
X150331721Y-104348311D01*
X150430303Y-104200773D01*
X150455824Y-104175252D01*
X150462104Y-104167600D01*
X150466771Y-104158869D01*
X150469645Y-104149396D01*
X150470615Y-104139544D01*
X150469645Y-104129692D01*
X150466771Y-104120219D01*
X150462104Y-104111488D01*
X150459152Y-104107508D01*
X150377389Y-104007880D01*
X150349507Y-103955716D01*
X150293743Y-103851389D01*
X150242234Y-103681588D01*
X150224842Y-103505000D01*
X150242234Y-103328412D01*
X150293743Y-103158611D01*
X150377389Y-103002121D01*
X150489957Y-102864957D01*
X150627121Y-102752389D01*
X150783611Y-102668743D01*
X150953412Y-102617234D01*
X151085751Y-102604200D01*
X151174249Y-102604200D01*
X151306588Y-102617234D01*
X151306588Y-102617234D01*
G37*
G36*
X148766588Y-102617234D02*
G01*
X148936389Y-102668743D01*
X149092879Y-102752389D01*
X149230043Y-102864957D01*
X149342611Y-103002121D01*
X149426257Y-103158611D01*
X149477766Y-103328412D01*
X149495158Y-103505000D01*
X149477766Y-103681588D01*
X149426257Y-103851389D01*
X149370493Y-103955716D01*
X149342611Y-104007880D01*
X149260848Y-104107508D01*
X149255348Y-104115739D01*
X149251559Y-104124885D01*
X149249628Y-104134594D01*
X149249628Y-104144494D01*
X149251559Y-104154203D01*
X149255348Y-104163349D01*
X149260848Y-104171580D01*
X149264176Y-104175252D01*
X149289697Y-104200773D01*
X149388279Y-104348311D01*
X149456183Y-104512246D01*
X149490800Y-104686279D01*
X149490800Y-104863721D01*
X149456183Y-105037754D01*
X149388279Y-105201689D01*
X149289697Y-105349227D01*
X149164227Y-105474697D01*
X149016689Y-105573279D01*
X148852754Y-105641183D01*
X148678721Y-105675800D01*
X148501279Y-105675800D01*
X148327246Y-105641183D01*
X148163311Y-105573279D01*
X148015773Y-105474697D01*
X147890303Y-105349227D01*
X147791721Y-105201689D01*
X147723817Y-105037754D01*
X147689200Y-104863721D01*
X147689200Y-104686279D01*
X147723817Y-104512246D01*
X147791721Y-104348311D01*
X147890303Y-104200773D01*
X147915824Y-104175252D01*
X147922104Y-104167600D01*
X147926771Y-104158869D01*
X147929645Y-104149396D01*
X147930615Y-104139544D01*
X147929645Y-104129692D01*
X147926771Y-104120219D01*
X147922104Y-104111488D01*
X147919152Y-104107508D01*
X147837389Y-104007880D01*
X147809507Y-103955716D01*
X147753743Y-103851389D01*
X147702234Y-103681588D01*
X147684842Y-103505000D01*
X147702234Y-103328412D01*
X147753743Y-103158611D01*
X147837389Y-103002121D01*
X147949957Y-102864957D01*
X148087121Y-102752389D01*
X148243611Y-102668743D01*
X148413412Y-102617234D01*
X148545751Y-102604200D01*
X148634249Y-102604200D01*
X148766588Y-102617234D01*
X148766588Y-102617234D01*
G37*
G36*
X146226588Y-102617234D02*
G01*
X146396389Y-102668743D01*
X146552879Y-102752389D01*
X146690043Y-102864957D01*
X146802611Y-103002121D01*
X146886257Y-103158611D01*
X146937766Y-103328412D01*
X146955158Y-103505000D01*
X146937766Y-103681588D01*
X146886257Y-103851389D01*
X146830493Y-103955716D01*
X146802611Y-104007880D01*
X146720848Y-104107508D01*
X146715348Y-104115739D01*
X146711559Y-104124885D01*
X146709628Y-104134594D01*
X146709628Y-104144494D01*
X146711559Y-104154203D01*
X146715348Y-104163349D01*
X146720848Y-104171580D01*
X146724176Y-104175252D01*
X146749697Y-104200773D01*
X146848279Y-104348311D01*
X146916183Y-104512246D01*
X146950800Y-104686279D01*
X146950800Y-104863721D01*
X146916183Y-105037754D01*
X146848279Y-105201689D01*
X146749697Y-105349227D01*
X146624227Y-105474697D01*
X146476689Y-105573279D01*
X146312754Y-105641183D01*
X146138721Y-105675800D01*
X145961279Y-105675800D01*
X145787246Y-105641183D01*
X145623311Y-105573279D01*
X145475773Y-105474697D01*
X145350303Y-105349227D01*
X145251721Y-105201689D01*
X145183817Y-105037754D01*
X145149200Y-104863721D01*
X145149200Y-104686279D01*
X145183817Y-104512246D01*
X145251721Y-104348311D01*
X145350303Y-104200773D01*
X145375824Y-104175252D01*
X145382104Y-104167600D01*
X145386771Y-104158869D01*
X145389645Y-104149396D01*
X145390615Y-104139544D01*
X145389645Y-104129692D01*
X145386771Y-104120219D01*
X145382104Y-104111488D01*
X145379152Y-104107508D01*
X145297389Y-104007880D01*
X145269507Y-103955716D01*
X145213743Y-103851389D01*
X145162234Y-103681588D01*
X145144842Y-103505000D01*
X145162234Y-103328412D01*
X145213743Y-103158611D01*
X145297389Y-103002121D01*
X145409957Y-102864957D01*
X145547121Y-102752389D01*
X145703611Y-102668743D01*
X145873412Y-102617234D01*
X146005751Y-102604200D01*
X146094249Y-102604200D01*
X146226588Y-102617234D01*
X146226588Y-102617234D01*
G37*
G36*
X153932754Y-102638817D02*
G01*
X154096689Y-102706721D01*
X154244227Y-102805303D01*
X154369697Y-102930773D01*
X154468279Y-103078311D01*
X154536183Y-103242246D01*
X154570800Y-103416279D01*
X154570800Y-103593721D01*
X154536183Y-103767754D01*
X154468279Y-103931689D01*
X154372319Y-104075303D01*
X154369697Y-104079227D01*
X154344632Y-104104292D01*
X154338352Y-104111944D01*
X154333685Y-104120675D01*
X154330811Y-104130148D01*
X154329841Y-104140000D01*
X154330811Y-104149852D01*
X154333685Y-104159325D01*
X154338352Y-104168056D01*
X154344632Y-104175708D01*
X154369697Y-104200773D01*
X154468279Y-104348311D01*
X154536183Y-104512246D01*
X154570800Y-104686279D01*
X154570800Y-104863721D01*
X154536183Y-105037754D01*
X154468279Y-105201689D01*
X154369697Y-105349227D01*
X154244227Y-105474697D01*
X154096689Y-105573279D01*
X153932754Y-105641183D01*
X153758721Y-105675800D01*
X153581279Y-105675800D01*
X153407246Y-105641183D01*
X153243311Y-105573279D01*
X153095773Y-105474697D01*
X152970303Y-105349227D01*
X152871721Y-105201689D01*
X152803817Y-105037754D01*
X152769200Y-104863721D01*
X152769200Y-104686279D01*
X152803817Y-104512246D01*
X152871721Y-104348311D01*
X152970303Y-104200773D01*
X152995368Y-104175708D01*
X153001648Y-104168056D01*
X153006315Y-104159325D01*
X153009189Y-104149852D01*
X153010159Y-104140000D01*
X153009189Y-104130148D01*
X153006315Y-104120675D01*
X153001648Y-104111944D01*
X152995368Y-104104292D01*
X152970303Y-104079227D01*
X152967681Y-104075303D01*
X152871721Y-103931689D01*
X152803817Y-103767754D01*
X152769200Y-103593721D01*
X152769200Y-103416279D01*
X152803817Y-103242246D01*
X152871721Y-103078311D01*
X152970303Y-102930773D01*
X153095773Y-102805303D01*
X153243311Y-102706721D01*
X153407246Y-102638817D01*
X153581279Y-102604200D01*
X153758721Y-102604200D01*
X153932754Y-102638817D01*
X153932754Y-102638817D01*
G37*
G36*
X148852754Y-93748817D02*
G01*
X149016689Y-93816721D01*
X149164227Y-93915303D01*
X149289697Y-94040773D01*
X149388279Y-94188311D01*
X149456183Y-94352246D01*
X149490800Y-94526279D01*
X149490800Y-94703721D01*
X149456183Y-94877754D01*
X149388279Y-95041689D01*
X149327675Y-95132389D01*
X149289697Y-95189227D01*
X149264176Y-95214748D01*
X149257896Y-95222400D01*
X149253229Y-95231131D01*
X149250355Y-95240604D01*
X149249385Y-95250456D01*
X149250355Y-95260308D01*
X149253229Y-95269781D01*
X149257896Y-95278512D01*
X149260848Y-95282492D01*
X149342611Y-95382120D01*
X149370493Y-95434284D01*
X149426257Y-95538611D01*
X149477766Y-95708412D01*
X149495158Y-95885000D01*
X149477766Y-96061588D01*
X149426257Y-96231389D01*
X149342611Y-96387879D01*
X149230043Y-96525043D01*
X149092879Y-96637611D01*
X148936389Y-96721257D01*
X148766588Y-96772766D01*
X148634249Y-96785800D01*
X148545751Y-96785800D01*
X148413412Y-96772766D01*
X148243611Y-96721257D01*
X148087121Y-96637611D01*
X147949957Y-96525043D01*
X147837389Y-96387879D01*
X147753743Y-96231389D01*
X147702234Y-96061588D01*
X147684842Y-95885000D01*
X147702234Y-95708412D01*
X147753743Y-95538611D01*
X147809507Y-95434284D01*
X147837389Y-95382120D01*
X147919152Y-95282492D01*
X147924652Y-95274261D01*
X147928441Y-95265115D01*
X147930372Y-95255406D01*
X147930372Y-95245506D01*
X147928441Y-95235797D01*
X147924652Y-95226651D01*
X147919152Y-95218420D01*
X147915824Y-95214748D01*
X147890303Y-95189227D01*
X147852325Y-95132389D01*
X147791721Y-95041689D01*
X147723817Y-94877754D01*
X147689200Y-94703721D01*
X147689200Y-94526279D01*
X147723817Y-94352246D01*
X147791721Y-94188311D01*
X147890303Y-94040773D01*
X148015773Y-93915303D01*
X148163311Y-93816721D01*
X148327246Y-93748817D01*
X148501279Y-93714200D01*
X148678721Y-93714200D01*
X148852754Y-93748817D01*
X148852754Y-93748817D01*
G37*
G36*
X153932754Y-93748817D02*
G01*
X154096689Y-93816721D01*
X154244227Y-93915303D01*
X154369697Y-94040773D01*
X154468279Y-94188311D01*
X154536183Y-94352246D01*
X154570800Y-94526279D01*
X154570800Y-94703721D01*
X154536183Y-94877754D01*
X154468279Y-95041689D01*
X154407675Y-95132389D01*
X154369697Y-95189227D01*
X154344176Y-95214748D01*
X154337896Y-95222400D01*
X154333229Y-95231131D01*
X154330355Y-95240604D01*
X154329385Y-95250456D01*
X154330355Y-95260308D01*
X154333229Y-95269781D01*
X154337896Y-95278512D01*
X154340848Y-95282492D01*
X154422611Y-95382120D01*
X154450493Y-95434284D01*
X154506257Y-95538611D01*
X154557766Y-95708412D01*
X154575158Y-95885000D01*
X154557766Y-96061588D01*
X154506257Y-96231389D01*
X154422611Y-96387879D01*
X154310043Y-96525043D01*
X154172879Y-96637611D01*
X154016389Y-96721257D01*
X153846588Y-96772766D01*
X153714249Y-96785800D01*
X153625751Y-96785800D01*
X153493412Y-96772766D01*
X153323611Y-96721257D01*
X153167121Y-96637611D01*
X153029957Y-96525043D01*
X152917389Y-96387879D01*
X152833743Y-96231389D01*
X152782234Y-96061588D01*
X152764842Y-95885000D01*
X152782234Y-95708412D01*
X152833743Y-95538611D01*
X152889507Y-95434284D01*
X152917389Y-95382120D01*
X152999152Y-95282492D01*
X153004652Y-95274261D01*
X153008441Y-95265115D01*
X153010372Y-95255406D01*
X153010372Y-95245506D01*
X153008441Y-95235797D01*
X153004652Y-95226651D01*
X152999152Y-95218420D01*
X152995824Y-95214748D01*
X152970303Y-95189227D01*
X152932325Y-95132389D01*
X152871721Y-95041689D01*
X152803817Y-94877754D01*
X152769200Y-94703721D01*
X152769200Y-94526279D01*
X152803817Y-94352246D01*
X152871721Y-94188311D01*
X152970303Y-94040773D01*
X153095773Y-93915303D01*
X153243311Y-93816721D01*
X153407246Y-93748817D01*
X153581279Y-93714200D01*
X153758721Y-93714200D01*
X153932754Y-93748817D01*
X153932754Y-93748817D01*
G37*
G36*
X151392754Y-93748817D02*
G01*
X151556689Y-93816721D01*
X151704227Y-93915303D01*
X151829697Y-94040773D01*
X151928279Y-94188311D01*
X151996183Y-94352246D01*
X152030800Y-94526279D01*
X152030800Y-94703721D01*
X151996183Y-94877754D01*
X151928279Y-95041689D01*
X151867675Y-95132389D01*
X151829697Y-95189227D01*
X151804176Y-95214748D01*
X151797896Y-95222400D01*
X151793229Y-95231131D01*
X151790355Y-95240604D01*
X151789385Y-95250456D01*
X151790355Y-95260308D01*
X151793229Y-95269781D01*
X151797896Y-95278512D01*
X151800848Y-95282492D01*
X151882611Y-95382120D01*
X151910493Y-95434284D01*
X151966257Y-95538611D01*
X152017766Y-95708412D01*
X152035158Y-95885000D01*
X152017766Y-96061588D01*
X151966257Y-96231389D01*
X151882611Y-96387879D01*
X151770043Y-96525043D01*
X151632879Y-96637611D01*
X151476389Y-96721257D01*
X151306588Y-96772766D01*
X151174249Y-96785800D01*
X151085751Y-96785800D01*
X150953412Y-96772766D01*
X150783611Y-96721257D01*
X150627121Y-96637611D01*
X150489957Y-96525043D01*
X150377389Y-96387879D01*
X150293743Y-96231389D01*
X150242234Y-96061588D01*
X150224842Y-95885000D01*
X150242234Y-95708412D01*
X150293743Y-95538611D01*
X150349507Y-95434284D01*
X150377389Y-95382120D01*
X150459152Y-95282492D01*
X150464652Y-95274261D01*
X150468441Y-95265115D01*
X150470372Y-95255406D01*
X150470372Y-95245506D01*
X150468441Y-95235797D01*
X150464652Y-95226651D01*
X150459152Y-95218420D01*
X150455824Y-95214748D01*
X150430303Y-95189227D01*
X150392325Y-95132389D01*
X150331721Y-95041689D01*
X150263817Y-94877754D01*
X150229200Y-94703721D01*
X150229200Y-94526279D01*
X150263817Y-94352246D01*
X150331721Y-94188311D01*
X150430303Y-94040773D01*
X150555773Y-93915303D01*
X150703311Y-93816721D01*
X150867246Y-93748817D01*
X151041279Y-93714200D01*
X151218721Y-93714200D01*
X151392754Y-93748817D01*
X151392754Y-93748817D01*
G37*
G36*
X146312754Y-93748817D02*
G01*
X146476689Y-93816721D01*
X146624227Y-93915303D01*
X146749697Y-94040773D01*
X146848279Y-94188311D01*
X146916183Y-94352246D01*
X146950800Y-94526279D01*
X146950800Y-94703721D01*
X146916183Y-94877754D01*
X146848279Y-95041689D01*
X146787675Y-95132389D01*
X146749697Y-95189227D01*
X146724632Y-95214292D01*
X146718352Y-95221944D01*
X146713685Y-95230675D01*
X146710811Y-95240148D01*
X146709841Y-95250000D01*
X146710811Y-95259852D01*
X146713685Y-95269325D01*
X146718352Y-95278056D01*
X146724632Y-95285708D01*
X146749697Y-95310773D01*
X146848279Y-95458311D01*
X146916183Y-95622246D01*
X146950800Y-95796279D01*
X146950800Y-95973721D01*
X146916183Y-96147754D01*
X146848279Y-96311689D01*
X146749697Y-96459227D01*
X146624227Y-96584697D01*
X146476689Y-96683279D01*
X146312754Y-96751183D01*
X146138721Y-96785800D01*
X145961279Y-96785800D01*
X145787246Y-96751183D01*
X145623311Y-96683279D01*
X145475773Y-96584697D01*
X145350303Y-96459227D01*
X145251721Y-96311689D01*
X145183817Y-96147754D01*
X145149200Y-95973721D01*
X145149200Y-95796279D01*
X145183817Y-95622246D01*
X145251721Y-95458311D01*
X145350303Y-95310773D01*
X145375368Y-95285708D01*
X145381648Y-95278056D01*
X145386315Y-95269325D01*
X145389189Y-95259852D01*
X145390159Y-95250000D01*
X145389189Y-95240148D01*
X145386315Y-95230675D01*
X145381648Y-95221944D01*
X145375368Y-95214292D01*
X145350303Y-95189227D01*
X145312325Y-95132389D01*
X145251721Y-95041689D01*
X145183817Y-94877754D01*
X145149200Y-94703721D01*
X145149200Y-94526279D01*
X145183817Y-94352246D01*
X145251721Y-94188311D01*
X145350303Y-94040773D01*
X145475773Y-93915303D01*
X145623311Y-93816721D01*
X145787246Y-93748817D01*
X145961279Y-93714200D01*
X146138721Y-93714200D01*
X146312754Y-93748817D01*
X146312754Y-93748817D01*
G37*
M02*
