G04 #@! TF.GenerationSoftware,KiCad,Pcbnew,5.1.4-e60b266~84~ubuntu18.04.1*
G04 #@! TF.CreationDate,2019-10-18T09:02:20-06:00*
G04 #@! TF.ProjectId,001,3030312e-6b69-4636-9164-5f7063625858,rev?*
G04 #@! TF.SameCoordinates,Original*
G04 #@! TF.FileFunction,Soldermask,Top*
G04 #@! TF.FilePolarity,Negative*
%FSLAX46Y46*%
G04 Gerber Fmt 4.6, Leading zero omitted, Abs format (unit mm)*
G04 Created by KiCad (PCBNEW 5.1.4-e60b266~84~ubuntu18.04.1) date 2019-10-18 09:02:20*
%MOMM*%
%LPD*%
G04 APERTURE LIST*
%ADD10C,0.100000*%
G04 APERTURE END LIST*
D10*
G36*
X151306588Y-102617234D02*
G01*
X151476389Y-102668743D01*
X151632879Y-102752389D01*
X151770043Y-102864957D01*
X151882611Y-103002121D01*
X151966257Y-103158611D01*
X152017766Y-103328412D01*
X152035158Y-103505000D01*
X152017766Y-103681588D01*
X151966257Y-103851389D01*
X151910493Y-103955716D01*
X151882611Y-104007880D01*
X151800848Y-104107508D01*
X151795348Y-104115739D01*
X151791559Y-104124885D01*
X151789628Y-104134594D01*
X151789628Y-104144494D01*
X151791559Y-104154203D01*
X151795348Y-104163349D01*
X151800848Y-104171580D01*
X151804176Y-104175252D01*
X151829697Y-104200773D01*
X151928279Y-104348311D01*
X151996183Y-104512246D01*
X152030800Y-104686279D01*
X152030800Y-104863721D01*
X151996183Y-105037754D01*
X151928279Y-105201689D01*
X151829697Y-105349227D01*
X151704227Y-105474697D01*
X151556689Y-105573279D01*
X151392754Y-105641183D01*
X151218721Y-105675800D01*
X151041279Y-105675800D01*
X150867246Y-105641183D01*
X150703311Y-105573279D01*
X150555773Y-105474697D01*
X150430303Y-105349227D01*
X150331721Y-105201689D01*
X150263817Y-105037754D01*
X150229200Y-104863721D01*
X150229200Y-104686279D01*
X150263817Y-104512246D01*
X150331721Y-104348311D01*
X150430303Y-104200773D01*
X150455824Y-104175252D01*
X150462104Y-104167600D01*
X150466771Y-104158869D01*
X150469645Y-104149396D01*
X150470615Y-104139544D01*
X150469645Y-104129692D01*
X150466771Y-104120219D01*
X150462104Y-104111488D01*
X150459152Y-104107508D01*
X150377389Y-104007880D01*
X150349507Y-103955716D01*
X150293743Y-103851389D01*
X150242234Y-103681588D01*
X150224842Y-103505000D01*
X150242234Y-103328412D01*
X150293743Y-103158611D01*
X150377389Y-103002121D01*
X150489957Y-102864957D01*
X150627121Y-102752389D01*
X150783611Y-102668743D01*
X150953412Y-102617234D01*
X151085751Y-102604200D01*
X151174249Y-102604200D01*
X151306588Y-102617234D01*
X151306588Y-102617234D01*
G37*
G36*
X148766588Y-102617234D02*
G01*
X148936389Y-102668743D01*
X149092879Y-102752389D01*
X149230043Y-102864957D01*
X149342611Y-103002121D01*
X149426257Y-103158611D01*
X149477766Y-103328412D01*
X149495158Y-103505000D01*
X149477766Y-103681588D01*
X149426257Y-103851389D01*
X149370493Y-103955716D01*
X149342611Y-104007880D01*
X149260848Y-104107508D01*
X149255348Y-104115739D01*
X149251559Y-104124885D01*
X149249628Y-104134594D01*
X149249628Y-104144494D01*
X149251559Y-104154203D01*
X149255348Y-104163349D01*
X149260848Y-104171580D01*
X149264176Y-104175252D01*
X149289697Y-104200773D01*
X149388279Y-104348311D01*
X149456183Y-104512246D01*
X149490800Y-104686279D01*
X149490800Y-104863721D01*
X149456183Y-105037754D01*
X149388279Y-105201689D01*
X149289697Y-105349227D01*
X149164227Y-105474697D01*
X149016689Y-105573279D01*
X148852754Y-105641183D01*
X148678721Y-105675800D01*
X148501279Y-105675800D01*
X148327246Y-105641183D01*
X148163311Y-105573279D01*
X148015773Y-105474697D01*
X147890303Y-105349227D01*
X147791721Y-105201689D01*
X147723817Y-105037754D01*
X147689200Y-104863721D01*
X147689200Y-104686279D01*
X147723817Y-104512246D01*
X147791721Y-104348311D01*
X147890303Y-104200773D01*
X147915824Y-104175252D01*
X147922104Y-104167600D01*
X147926771Y-104158869D01*
X147929645Y-104149396D01*
X147930615Y-104139544D01*
X147929645Y-104129692D01*
X147926771Y-104120219D01*
X147922104Y-104111488D01*
X147919152Y-104107508D01*
X147837389Y-104007880D01*
X147809507Y-103955716D01*
X147753743Y-103851389D01*
X147702234Y-103681588D01*
X147684842Y-103505000D01*
X147702234Y-103328412D01*
X147753743Y-103158611D01*
X147837389Y-103002121D01*
X147949957Y-102864957D01*
X148087121Y-102752389D01*
X148243611Y-102668743D01*
X148413412Y-102617234D01*
X148545751Y-102604200D01*
X148634249Y-102604200D01*
X148766588Y-102617234D01*
X148766588Y-102617234D01*
G37*
G36*
X146226588Y-102617234D02*
G01*
X146396389Y-102668743D01*
X146552879Y-102752389D01*
X146690043Y-102864957D01*
X146802611Y-103002121D01*
X146886257Y-103158611D01*
X146937766Y-103328412D01*
X146955158Y-103505000D01*
X146937766Y-103681588D01*
X146886257Y-103851389D01*
X146830493Y-103955716D01*
X146802611Y-104007880D01*
X146720848Y-104107508D01*
X146715348Y-104115739D01*
X146711559Y-104124885D01*
X146709628Y-104134594D01*
X146709628Y-104144494D01*
X146711559Y-104154203D01*
X146715348Y-104163349D01*
X146720848Y-104171580D01*
X146724176Y-104175252D01*
X146749697Y-104200773D01*
X146848279Y-104348311D01*
X146916183Y-104512246D01*
X146950800Y-104686279D01*
X146950800Y-104863721D01*
X146916183Y-105037754D01*
X146848279Y-105201689D01*
X146749697Y-105349227D01*
X146624227Y-105474697D01*
X146476689Y-105573279D01*
X146312754Y-105641183D01*
X146138721Y-105675800D01*
X145961279Y-105675800D01*
X145787246Y-105641183D01*
X145623311Y-105573279D01*
X145475773Y-105474697D01*
X145350303Y-105349227D01*
X145251721Y-105201689D01*
X145183817Y-105037754D01*
X145149200Y-104863721D01*
X145149200Y-104686279D01*
X145183817Y-104512246D01*
X145251721Y-104348311D01*
X145350303Y-104200773D01*
X145375824Y-104175252D01*
X145382104Y-104167600D01*
X145386771Y-104158869D01*
X145389645Y-104149396D01*
X145390615Y-104139544D01*
X145389645Y-104129692D01*
X145386771Y-104120219D01*
X145382104Y-104111488D01*
X145379152Y-104107508D01*
X145297389Y-104007880D01*
X145269507Y-103955716D01*
X145213743Y-103851389D01*
X145162234Y-103681588D01*
X145144842Y-103505000D01*
X145162234Y-103328412D01*
X145213743Y-103158611D01*
X145297389Y-103002121D01*
X145409957Y-102864957D01*
X145547121Y-102752389D01*
X145703611Y-102668743D01*
X145873412Y-102617234D01*
X146005751Y-102604200D01*
X146094249Y-102604200D01*
X146226588Y-102617234D01*
X146226588Y-102617234D01*
G37*
G36*
X153932754Y-102638817D02*
G01*
X154096689Y-102706721D01*
X154244227Y-102805303D01*
X154369697Y-102930773D01*
X154468279Y-103078311D01*
X154536183Y-103242246D01*
X154570800Y-103416279D01*
X154570800Y-103593721D01*
X154536183Y-103767754D01*
X154468279Y-103931689D01*
X154372319Y-104075303D01*
X154369697Y-104079227D01*
X154344632Y-104104292D01*
X154338352Y-104111944D01*
X154333685Y-104120675D01*
X154330811Y-104130148D01*
X154329841Y-104140000D01*
X154330811Y-104149852D01*
X154333685Y-104159325D01*
X154338352Y-104168056D01*
X154344632Y-104175708D01*
X154369697Y-104200773D01*
X154468279Y-104348311D01*
X154536183Y-104512246D01*
X154570800Y-104686279D01*
X154570800Y-104863721D01*
X154536183Y-105037754D01*
X154468279Y-105201689D01*
X154369697Y-105349227D01*
X154244227Y-105474697D01*
X154096689Y-105573279D01*
X153932754Y-105641183D01*
X153758721Y-105675800D01*
X153581279Y-105675800D01*
X153407246Y-105641183D01*
X153243311Y-105573279D01*
X153095773Y-105474697D01*
X152970303Y-105349227D01*
X152871721Y-105201689D01*
X152803817Y-105037754D01*
X152769200Y-104863721D01*
X152769200Y-104686279D01*
X152803817Y-104512246D01*
X152871721Y-104348311D01*
X152970303Y-104200773D01*
X152995368Y-104175708D01*
X153001648Y-104168056D01*
X153006315Y-104159325D01*
X153009189Y-104149852D01*
X153010159Y-104140000D01*
X153009189Y-104130148D01*
X153006315Y-104120675D01*
X153001648Y-104111944D01*
X152995368Y-104104292D01*
X152970303Y-104079227D01*
X152967681Y-104075303D01*
X152871721Y-103931689D01*
X152803817Y-103767754D01*
X152769200Y-103593721D01*
X152769200Y-103416279D01*
X152803817Y-103242246D01*
X152871721Y-103078311D01*
X152970303Y-102930773D01*
X153095773Y-102805303D01*
X153243311Y-102706721D01*
X153407246Y-102638817D01*
X153581279Y-102604200D01*
X153758721Y-102604200D01*
X153932754Y-102638817D01*
X153932754Y-102638817D01*
G37*
G36*
X146910800Y-101950800D02*
G01*
X145309200Y-101950800D01*
X145309200Y-101249200D01*
X146910800Y-101249200D01*
X146910800Y-101950800D01*
X146910800Y-101950800D01*
G37*
G36*
X154410800Y-101950800D02*
G01*
X152809200Y-101950800D01*
X152809200Y-101249200D01*
X154410800Y-101249200D01*
X154410800Y-101950800D01*
X154410800Y-101950800D01*
G37*
G36*
X154410800Y-100680800D02*
G01*
X152809200Y-100680800D01*
X152809200Y-99979200D01*
X154410800Y-99979200D01*
X154410800Y-100680800D01*
X154410800Y-100680800D01*
G37*
G36*
X146910800Y-100680800D02*
G01*
X145309200Y-100680800D01*
X145309200Y-99979200D01*
X146910800Y-99979200D01*
X146910800Y-100680800D01*
X146910800Y-100680800D01*
G37*
G36*
X154410800Y-99410800D02*
G01*
X152809200Y-99410800D01*
X152809200Y-98709200D01*
X154410800Y-98709200D01*
X154410800Y-99410800D01*
X154410800Y-99410800D01*
G37*
G36*
X146910800Y-99410800D02*
G01*
X145309200Y-99410800D01*
X145309200Y-98709200D01*
X146910800Y-98709200D01*
X146910800Y-99410800D01*
X146910800Y-99410800D01*
G37*
G36*
X154410800Y-98140800D02*
G01*
X152809200Y-98140800D01*
X152809200Y-97439200D01*
X154410800Y-97439200D01*
X154410800Y-98140800D01*
X154410800Y-98140800D01*
G37*
G36*
X146910800Y-98140800D02*
G01*
X145309200Y-98140800D01*
X145309200Y-97439200D01*
X146910800Y-97439200D01*
X146910800Y-98140800D01*
X146910800Y-98140800D01*
G37*
G36*
X146312754Y-93748817D02*
G01*
X146476689Y-93816721D01*
X146624227Y-93915303D01*
X146749697Y-94040773D01*
X146848279Y-94188311D01*
X146916183Y-94352246D01*
X146950800Y-94526279D01*
X146950800Y-94703721D01*
X146916183Y-94877754D01*
X146848279Y-95041689D01*
X146787675Y-95132389D01*
X146749697Y-95189227D01*
X146724632Y-95214292D01*
X146718352Y-95221944D01*
X146713685Y-95230675D01*
X146710811Y-95240148D01*
X146709841Y-95250000D01*
X146710811Y-95259852D01*
X146713685Y-95269325D01*
X146718352Y-95278056D01*
X146724632Y-95285708D01*
X146749697Y-95310773D01*
X146848279Y-95458311D01*
X146916183Y-95622246D01*
X146950800Y-95796279D01*
X146950800Y-95973721D01*
X146916183Y-96147754D01*
X146848279Y-96311689D01*
X146749697Y-96459227D01*
X146624227Y-96584697D01*
X146476689Y-96683279D01*
X146312754Y-96751183D01*
X146138721Y-96785800D01*
X145961279Y-96785800D01*
X145787246Y-96751183D01*
X145623311Y-96683279D01*
X145475773Y-96584697D01*
X145350303Y-96459227D01*
X145251721Y-96311689D01*
X145183817Y-96147754D01*
X145149200Y-95973721D01*
X145149200Y-95796279D01*
X145183817Y-95622246D01*
X145251721Y-95458311D01*
X145350303Y-95310773D01*
X145375368Y-95285708D01*
X145381648Y-95278056D01*
X145386315Y-95269325D01*
X145389189Y-95259852D01*
X145390159Y-95250000D01*
X145389189Y-95240148D01*
X145386315Y-95230675D01*
X145381648Y-95221944D01*
X145375368Y-95214292D01*
X145350303Y-95189227D01*
X145312325Y-95132389D01*
X145251721Y-95041689D01*
X145183817Y-94877754D01*
X145149200Y-94703721D01*
X145149200Y-94526279D01*
X145183817Y-94352246D01*
X145251721Y-94188311D01*
X145350303Y-94040773D01*
X145475773Y-93915303D01*
X145623311Y-93816721D01*
X145787246Y-93748817D01*
X145961279Y-93714200D01*
X146138721Y-93714200D01*
X146312754Y-93748817D01*
X146312754Y-93748817D01*
G37*
G36*
X148852754Y-93748817D02*
G01*
X149016689Y-93816721D01*
X149164227Y-93915303D01*
X149289697Y-94040773D01*
X149388279Y-94188311D01*
X149456183Y-94352246D01*
X149490800Y-94526279D01*
X149490800Y-94703721D01*
X149456183Y-94877754D01*
X149388279Y-95041689D01*
X149327675Y-95132389D01*
X149289697Y-95189227D01*
X149264176Y-95214748D01*
X149257896Y-95222400D01*
X149253229Y-95231131D01*
X149250355Y-95240604D01*
X149249385Y-95250456D01*
X149250355Y-95260308D01*
X149253229Y-95269781D01*
X149257896Y-95278512D01*
X149260848Y-95282492D01*
X149342611Y-95382120D01*
X149370493Y-95434284D01*
X149426257Y-95538611D01*
X149477766Y-95708412D01*
X149495158Y-95885000D01*
X149477766Y-96061588D01*
X149426257Y-96231389D01*
X149342611Y-96387879D01*
X149230043Y-96525043D01*
X149092879Y-96637611D01*
X148936389Y-96721257D01*
X148766588Y-96772766D01*
X148634249Y-96785800D01*
X148545751Y-96785800D01*
X148413412Y-96772766D01*
X148243611Y-96721257D01*
X148087121Y-96637611D01*
X147949957Y-96525043D01*
X147837389Y-96387879D01*
X147753743Y-96231389D01*
X147702234Y-96061588D01*
X147684842Y-95885000D01*
X147702234Y-95708412D01*
X147753743Y-95538611D01*
X147809507Y-95434284D01*
X147837389Y-95382120D01*
X147919152Y-95282492D01*
X147924652Y-95274261D01*
X147928441Y-95265115D01*
X147930372Y-95255406D01*
X147930372Y-95245506D01*
X147928441Y-95235797D01*
X147924652Y-95226651D01*
X147919152Y-95218420D01*
X147915824Y-95214748D01*
X147890303Y-95189227D01*
X147852325Y-95132389D01*
X147791721Y-95041689D01*
X147723817Y-94877754D01*
X147689200Y-94703721D01*
X147689200Y-94526279D01*
X147723817Y-94352246D01*
X147791721Y-94188311D01*
X147890303Y-94040773D01*
X148015773Y-93915303D01*
X148163311Y-93816721D01*
X148327246Y-93748817D01*
X148501279Y-93714200D01*
X148678721Y-93714200D01*
X148852754Y-93748817D01*
X148852754Y-93748817D01*
G37*
G36*
X151392754Y-93748817D02*
G01*
X151556689Y-93816721D01*
X151704227Y-93915303D01*
X151829697Y-94040773D01*
X151928279Y-94188311D01*
X151996183Y-94352246D01*
X152030800Y-94526279D01*
X152030800Y-94703721D01*
X151996183Y-94877754D01*
X151928279Y-95041689D01*
X151867675Y-95132389D01*
X151829697Y-95189227D01*
X151804176Y-95214748D01*
X151797896Y-95222400D01*
X151793229Y-95231131D01*
X151790355Y-95240604D01*
X151789385Y-95250456D01*
X151790355Y-95260308D01*
X151793229Y-95269781D01*
X151797896Y-95278512D01*
X151800848Y-95282492D01*
X151882611Y-95382120D01*
X151910493Y-95434284D01*
X151966257Y-95538611D01*
X152017766Y-95708412D01*
X152035158Y-95885000D01*
X152017766Y-96061588D01*
X151966257Y-96231389D01*
X151882611Y-96387879D01*
X151770043Y-96525043D01*
X151632879Y-96637611D01*
X151476389Y-96721257D01*
X151306588Y-96772766D01*
X151174249Y-96785800D01*
X151085751Y-96785800D01*
X150953412Y-96772766D01*
X150783611Y-96721257D01*
X150627121Y-96637611D01*
X150489957Y-96525043D01*
X150377389Y-96387879D01*
X150293743Y-96231389D01*
X150242234Y-96061588D01*
X150224842Y-95885000D01*
X150242234Y-95708412D01*
X150293743Y-95538611D01*
X150349507Y-95434284D01*
X150377389Y-95382120D01*
X150459152Y-95282492D01*
X150464652Y-95274261D01*
X150468441Y-95265115D01*
X150470372Y-95255406D01*
X150470372Y-95245506D01*
X150468441Y-95235797D01*
X150464652Y-95226651D01*
X150459152Y-95218420D01*
X150455824Y-95214748D01*
X150430303Y-95189227D01*
X150392325Y-95132389D01*
X150331721Y-95041689D01*
X150263817Y-94877754D01*
X150229200Y-94703721D01*
X150229200Y-94526279D01*
X150263817Y-94352246D01*
X150331721Y-94188311D01*
X150430303Y-94040773D01*
X150555773Y-93915303D01*
X150703311Y-93816721D01*
X150867246Y-93748817D01*
X151041279Y-93714200D01*
X151218721Y-93714200D01*
X151392754Y-93748817D01*
X151392754Y-93748817D01*
G37*
G36*
X153932754Y-93748817D02*
G01*
X154096689Y-93816721D01*
X154244227Y-93915303D01*
X154369697Y-94040773D01*
X154468279Y-94188311D01*
X154536183Y-94352246D01*
X154570800Y-94526279D01*
X154570800Y-94703721D01*
X154536183Y-94877754D01*
X154468279Y-95041689D01*
X154407675Y-95132389D01*
X154369697Y-95189227D01*
X154344176Y-95214748D01*
X154337896Y-95222400D01*
X154333229Y-95231131D01*
X154330355Y-95240604D01*
X154329385Y-95250456D01*
X154330355Y-95260308D01*
X154333229Y-95269781D01*
X154337896Y-95278512D01*
X154340848Y-95282492D01*
X154422611Y-95382120D01*
X154450493Y-95434284D01*
X154506257Y-95538611D01*
X154557766Y-95708412D01*
X154575158Y-95885000D01*
X154557766Y-96061588D01*
X154506257Y-96231389D01*
X154422611Y-96387879D01*
X154310043Y-96525043D01*
X154172879Y-96637611D01*
X154016389Y-96721257D01*
X153846588Y-96772766D01*
X153714249Y-96785800D01*
X153625751Y-96785800D01*
X153493412Y-96772766D01*
X153323611Y-96721257D01*
X153167121Y-96637611D01*
X153029957Y-96525043D01*
X152917389Y-96387879D01*
X152833743Y-96231389D01*
X152782234Y-96061588D01*
X152764842Y-95885000D01*
X152782234Y-95708412D01*
X152833743Y-95538611D01*
X152889507Y-95434284D01*
X152917389Y-95382120D01*
X152999152Y-95282492D01*
X153004652Y-95274261D01*
X153008441Y-95265115D01*
X153010372Y-95255406D01*
X153010372Y-95245506D01*
X153008441Y-95235797D01*
X153004652Y-95226651D01*
X152999152Y-95218420D01*
X152995824Y-95214748D01*
X152970303Y-95189227D01*
X152932325Y-95132389D01*
X152871721Y-95041689D01*
X152803817Y-94877754D01*
X152769200Y-94703721D01*
X152769200Y-94526279D01*
X152803817Y-94352246D01*
X152871721Y-94188311D01*
X152970303Y-94040773D01*
X153095773Y-93915303D01*
X153243311Y-93816721D01*
X153407246Y-93748817D01*
X153581279Y-93714200D01*
X153758721Y-93714200D01*
X153932754Y-93748817D01*
X153932754Y-93748817D01*
G37*
M02*
