G04 #@! TF.GenerationSoftware,KiCad,Pcbnew,5.1.4-e60b266~84~ubuntu18.04.1*
G04 #@! TF.CreationDate,2019-10-16T13:57:42-06:00*
G04 #@! TF.ProjectId,001,3030312e-6b69-4636-9164-5f7063625858,rev?*
G04 #@! TF.SameCoordinates,Original*
G04 #@! TF.FileFunction,Copper,L2,Bot*
G04 #@! TF.FilePolarity,Positive*
%FSLAX46Y46*%
G04 Gerber Fmt 4.6, Leading zero omitted, Abs format (unit mm)*
G04 Created by KiCad (PCBNEW 5.1.4-e60b266~84~ubuntu18.04.1) date 2019-10-16 13:57:42*
%MOMM*%
%LPD*%
G04 APERTURE LIST*
%ADD10C,1.700000*%
%ADD11O,1.700000X1.700000*%
%ADD12C,0.254000*%
G04 APERTURE END LIST*
D10*
X154305000Y-93980000D03*
X154305000Y-96520000D03*
X155575000Y-99060000D03*
D11*
X155575000Y-96520000D03*
X155575000Y-93980000D03*
X155575000Y-91440000D03*
D10*
X154305000Y-91440000D03*
X154305000Y-99060000D03*
X163195000Y-93980000D03*
X163195000Y-96520000D03*
X164465000Y-99060000D03*
D11*
X164465000Y-96520000D03*
X164465000Y-93980000D03*
X164465000Y-91440000D03*
D10*
X163195000Y-91440000D03*
X163195000Y-99060000D03*
D12*
G36*
X161767068Y-91006842D02*
G01*
X161710000Y-91293740D01*
X161710000Y-91586260D01*
X161767068Y-91873158D01*
X161879010Y-92143411D01*
X162041525Y-92386632D01*
X162248368Y-92593475D01*
X162422760Y-92710000D01*
X162248368Y-92826525D01*
X162041525Y-93033368D01*
X161879010Y-93276589D01*
X161767068Y-93546842D01*
X161710000Y-93833740D01*
X161710000Y-94126260D01*
X161767068Y-94413158D01*
X161879010Y-94683411D01*
X162041525Y-94926632D01*
X162248368Y-95133475D01*
X162422760Y-95250000D01*
X162248368Y-95366525D01*
X162041525Y-95573368D01*
X161879010Y-95816589D01*
X161767068Y-96086842D01*
X161710000Y-96373740D01*
X161710000Y-96666260D01*
X161767068Y-96953158D01*
X161879010Y-97223411D01*
X162041525Y-97466632D01*
X162248368Y-97673475D01*
X162422760Y-97790000D01*
X162248368Y-97906525D01*
X162041525Y-98113368D01*
X161879010Y-98356589D01*
X161767068Y-98626842D01*
X161710000Y-98913740D01*
X161710000Y-99206260D01*
X161767068Y-99493158D01*
X161819110Y-99618800D01*
X156950890Y-99618800D01*
X157002932Y-99493158D01*
X157060000Y-99206260D01*
X157060000Y-98913740D01*
X157002932Y-98626842D01*
X156890990Y-98356589D01*
X156728475Y-98113368D01*
X156521632Y-97906525D01*
X156348115Y-97790585D01*
X156404014Y-97760706D01*
X156630134Y-97575134D01*
X156815706Y-97349014D01*
X156953599Y-97091034D01*
X157038513Y-96811111D01*
X157067185Y-96520000D01*
X157038513Y-96228889D01*
X156953599Y-95948966D01*
X156815706Y-95690986D01*
X156630134Y-95464866D01*
X156404014Y-95279294D01*
X156349209Y-95250000D01*
X156404014Y-95220706D01*
X156630134Y-95035134D01*
X156815706Y-94809014D01*
X156953599Y-94551034D01*
X157038513Y-94271111D01*
X157067185Y-93980000D01*
X157038513Y-93688889D01*
X156953599Y-93408966D01*
X156815706Y-93150986D01*
X156630134Y-92924866D01*
X156404014Y-92739294D01*
X156339477Y-92704799D01*
X156456355Y-92635178D01*
X156672588Y-92440269D01*
X156846641Y-92206920D01*
X156971825Y-91944099D01*
X157016476Y-91796890D01*
X156895155Y-91567000D01*
X155790000Y-91567000D01*
X155790000Y-91313000D01*
X156895155Y-91313000D01*
X157016476Y-91083110D01*
X156971825Y-90935901D01*
X156945770Y-90881200D01*
X161819110Y-90881200D01*
X161767068Y-91006842D01*
X161767068Y-91006842D01*
G37*
X161767068Y-91006842D02*
X161710000Y-91293740D01*
X161710000Y-91586260D01*
X161767068Y-91873158D01*
X161879010Y-92143411D01*
X162041525Y-92386632D01*
X162248368Y-92593475D01*
X162422760Y-92710000D01*
X162248368Y-92826525D01*
X162041525Y-93033368D01*
X161879010Y-93276589D01*
X161767068Y-93546842D01*
X161710000Y-93833740D01*
X161710000Y-94126260D01*
X161767068Y-94413158D01*
X161879010Y-94683411D01*
X162041525Y-94926632D01*
X162248368Y-95133475D01*
X162422760Y-95250000D01*
X162248368Y-95366525D01*
X162041525Y-95573368D01*
X161879010Y-95816589D01*
X161767068Y-96086842D01*
X161710000Y-96373740D01*
X161710000Y-96666260D01*
X161767068Y-96953158D01*
X161879010Y-97223411D01*
X162041525Y-97466632D01*
X162248368Y-97673475D01*
X162422760Y-97790000D01*
X162248368Y-97906525D01*
X162041525Y-98113368D01*
X161879010Y-98356589D01*
X161767068Y-98626842D01*
X161710000Y-98913740D01*
X161710000Y-99206260D01*
X161767068Y-99493158D01*
X161819110Y-99618800D01*
X156950890Y-99618800D01*
X157002932Y-99493158D01*
X157060000Y-99206260D01*
X157060000Y-98913740D01*
X157002932Y-98626842D01*
X156890990Y-98356589D01*
X156728475Y-98113368D01*
X156521632Y-97906525D01*
X156348115Y-97790585D01*
X156404014Y-97760706D01*
X156630134Y-97575134D01*
X156815706Y-97349014D01*
X156953599Y-97091034D01*
X157038513Y-96811111D01*
X157067185Y-96520000D01*
X157038513Y-96228889D01*
X156953599Y-95948966D01*
X156815706Y-95690986D01*
X156630134Y-95464866D01*
X156404014Y-95279294D01*
X156349209Y-95250000D01*
X156404014Y-95220706D01*
X156630134Y-95035134D01*
X156815706Y-94809014D01*
X156953599Y-94551034D01*
X157038513Y-94271111D01*
X157067185Y-93980000D01*
X157038513Y-93688889D01*
X156953599Y-93408966D01*
X156815706Y-93150986D01*
X156630134Y-92924866D01*
X156404014Y-92739294D01*
X156339477Y-92704799D01*
X156456355Y-92635178D01*
X156672588Y-92440269D01*
X156846641Y-92206920D01*
X156971825Y-91944099D01*
X157016476Y-91796890D01*
X156895155Y-91567000D01*
X155790000Y-91567000D01*
X155790000Y-91313000D01*
X156895155Y-91313000D01*
X157016476Y-91083110D01*
X156971825Y-90935901D01*
X156945770Y-90881200D01*
X161819110Y-90881200D01*
X161767068Y-91006842D01*
M02*
