G04 #@! TF.GenerationSoftware,KiCad,Pcbnew,5.1.4-e60b266~84~ubuntu18.04.1*
G04 #@! TF.CreationDate,2019-10-16T13:57:42-06:00*
G04 #@! TF.ProjectId,001,3030312e-6b69-4636-9164-5f7063625858,rev?*
G04 #@! TF.SameCoordinates,Original*
G04 #@! TF.FileFunction,Copper,L1,Top*
G04 #@! TF.FilePolarity,Positive*
%FSLAX46Y46*%
G04 Gerber Fmt 4.6, Leading zero omitted, Abs format (unit mm)*
G04 Created by KiCad (PCBNEW 5.1.4-e60b266~84~ubuntu18.04.1) date 2019-10-16 13:57:42*
%MOMM*%
%LPD*%
G04 APERTURE LIST*
%ADD10C,1.700000*%
%ADD11O,3.000000X1.700000*%
%ADD12O,1.700000X1.700000*%
%ADD13R,0.600000X1.500000*%
%ADD14C,0.254000*%
G04 APERTURE END LIST*
D10*
X154305000Y-93980000D03*
X154305000Y-96520000D03*
D11*
X154940000Y-96520000D03*
D10*
X155575000Y-99060000D03*
D12*
X155575000Y-96520000D03*
X155575000Y-93980000D03*
X155575000Y-91440000D03*
D11*
X154940000Y-91440000D03*
X154940000Y-99060000D03*
D10*
X154305000Y-91440000D03*
X154305000Y-99060000D03*
D11*
X154940000Y-93980000D03*
D10*
X163195000Y-93980000D03*
X163195000Y-96520000D03*
D11*
X163830000Y-96520000D03*
D10*
X164465000Y-99060000D03*
D12*
X164465000Y-96520000D03*
X164465000Y-93980000D03*
X164465000Y-91440000D03*
D11*
X163830000Y-91440000D03*
X163830000Y-99060000D03*
D10*
X163195000Y-91440000D03*
X163195000Y-99060000D03*
D11*
X163830000Y-93980000D03*
D13*
X157480000Y-99000000D03*
X158750000Y-99000000D03*
X160020000Y-99000000D03*
X161290000Y-99000000D03*
X161290000Y-91500000D03*
X160020000Y-91500000D03*
X158750000Y-91500000D03*
X157480000Y-91500000D03*
D14*
G36*
X162350986Y-92680706D02*
G01*
X162405791Y-92710000D01*
X162350986Y-92739294D01*
X162124866Y-92924866D01*
X161939294Y-93150986D01*
X161801401Y-93408966D01*
X161716487Y-93688889D01*
X161687815Y-93980000D01*
X161716487Y-94271111D01*
X161801401Y-94551034D01*
X161939294Y-94809014D01*
X162124866Y-95035134D01*
X162350986Y-95220706D01*
X162405791Y-95250000D01*
X162350986Y-95279294D01*
X162124866Y-95464866D01*
X161939294Y-95690986D01*
X161801401Y-95948966D01*
X161716487Y-96228889D01*
X161687815Y-96520000D01*
X161716487Y-96811111D01*
X161801401Y-97091034D01*
X161939294Y-97349014D01*
X162124866Y-97575134D01*
X162350986Y-97760706D01*
X162405791Y-97790000D01*
X162350986Y-97819294D01*
X162162488Y-97973990D01*
X162120537Y-97895506D01*
X162041185Y-97798815D01*
X161944494Y-97719463D01*
X161834180Y-97660498D01*
X161714482Y-97624188D01*
X161590000Y-97611928D01*
X161575750Y-97615000D01*
X161417000Y-97773750D01*
X161417000Y-98873000D01*
X161437000Y-98873000D01*
X161437000Y-99127000D01*
X161417000Y-99127000D01*
X161417000Y-99147000D01*
X161163000Y-99147000D01*
X161163000Y-99127000D01*
X161143000Y-99127000D01*
X161143000Y-98873000D01*
X161163000Y-98873000D01*
X161163000Y-97773750D01*
X161004250Y-97615000D01*
X160990000Y-97611928D01*
X160865518Y-97624188D01*
X160745820Y-97660498D01*
X160655000Y-97709043D01*
X160564180Y-97660498D01*
X160444482Y-97624188D01*
X160320000Y-97611928D01*
X159720000Y-97611928D01*
X159595518Y-97624188D01*
X159475820Y-97660498D01*
X159385000Y-97709043D01*
X159294180Y-97660498D01*
X159174482Y-97624188D01*
X159050000Y-97611928D01*
X158450000Y-97611928D01*
X158325518Y-97624188D01*
X158205820Y-97660498D01*
X158115000Y-97709043D01*
X158024180Y-97660498D01*
X157904482Y-97624188D01*
X157780000Y-97611928D01*
X157180000Y-97611928D01*
X157055518Y-97624188D01*
X156935820Y-97660498D01*
X156825506Y-97719463D01*
X156728815Y-97798815D01*
X156649463Y-97895506D01*
X156607512Y-97973990D01*
X156419014Y-97819294D01*
X156364209Y-97790000D01*
X156419014Y-97760706D01*
X156645134Y-97575134D01*
X156830706Y-97349014D01*
X156968599Y-97091034D01*
X157053513Y-96811111D01*
X157082185Y-96520000D01*
X157053513Y-96228889D01*
X156968599Y-95948966D01*
X156830706Y-95690986D01*
X156645134Y-95464866D01*
X156419014Y-95279294D01*
X156364209Y-95250000D01*
X156419014Y-95220706D01*
X156645134Y-95035134D01*
X156830706Y-94809014D01*
X156968599Y-94551034D01*
X157053513Y-94271111D01*
X157082185Y-93980000D01*
X157053513Y-93688889D01*
X156968599Y-93408966D01*
X156830706Y-93150986D01*
X156645134Y-92924866D01*
X156419014Y-92739294D01*
X156364209Y-92710000D01*
X156419014Y-92680706D01*
X156607512Y-92526010D01*
X156649463Y-92604494D01*
X156728815Y-92701185D01*
X156825506Y-92780537D01*
X156935820Y-92839502D01*
X157055518Y-92875812D01*
X157180000Y-92888072D01*
X157780000Y-92888072D01*
X157904482Y-92875812D01*
X158024180Y-92839502D01*
X158115000Y-92790957D01*
X158205820Y-92839502D01*
X158325518Y-92875812D01*
X158450000Y-92888072D01*
X159050000Y-92888072D01*
X159174482Y-92875812D01*
X159294180Y-92839502D01*
X159385000Y-92790957D01*
X159475820Y-92839502D01*
X159595518Y-92875812D01*
X159720000Y-92888072D01*
X160320000Y-92888072D01*
X160444482Y-92875812D01*
X160564180Y-92839502D01*
X160655000Y-92790957D01*
X160745820Y-92839502D01*
X160865518Y-92875812D01*
X160990000Y-92888072D01*
X161590000Y-92888072D01*
X161714482Y-92875812D01*
X161834180Y-92839502D01*
X161944494Y-92780537D01*
X162041185Y-92701185D01*
X162120537Y-92604494D01*
X162162488Y-92526010D01*
X162350986Y-92680706D01*
X162350986Y-92680706D01*
G37*
X162350986Y-92680706D02*
X162405791Y-92710000D01*
X162350986Y-92739294D01*
X162124866Y-92924866D01*
X161939294Y-93150986D01*
X161801401Y-93408966D01*
X161716487Y-93688889D01*
X161687815Y-93980000D01*
X161716487Y-94271111D01*
X161801401Y-94551034D01*
X161939294Y-94809014D01*
X162124866Y-95035134D01*
X162350986Y-95220706D01*
X162405791Y-95250000D01*
X162350986Y-95279294D01*
X162124866Y-95464866D01*
X161939294Y-95690986D01*
X161801401Y-95948966D01*
X161716487Y-96228889D01*
X161687815Y-96520000D01*
X161716487Y-96811111D01*
X161801401Y-97091034D01*
X161939294Y-97349014D01*
X162124866Y-97575134D01*
X162350986Y-97760706D01*
X162405791Y-97790000D01*
X162350986Y-97819294D01*
X162162488Y-97973990D01*
X162120537Y-97895506D01*
X162041185Y-97798815D01*
X161944494Y-97719463D01*
X161834180Y-97660498D01*
X161714482Y-97624188D01*
X161590000Y-97611928D01*
X161575750Y-97615000D01*
X161417000Y-97773750D01*
X161417000Y-98873000D01*
X161437000Y-98873000D01*
X161437000Y-99127000D01*
X161417000Y-99127000D01*
X161417000Y-99147000D01*
X161163000Y-99147000D01*
X161163000Y-99127000D01*
X161143000Y-99127000D01*
X161143000Y-98873000D01*
X161163000Y-98873000D01*
X161163000Y-97773750D01*
X161004250Y-97615000D01*
X160990000Y-97611928D01*
X160865518Y-97624188D01*
X160745820Y-97660498D01*
X160655000Y-97709043D01*
X160564180Y-97660498D01*
X160444482Y-97624188D01*
X160320000Y-97611928D01*
X159720000Y-97611928D01*
X159595518Y-97624188D01*
X159475820Y-97660498D01*
X159385000Y-97709043D01*
X159294180Y-97660498D01*
X159174482Y-97624188D01*
X159050000Y-97611928D01*
X158450000Y-97611928D01*
X158325518Y-97624188D01*
X158205820Y-97660498D01*
X158115000Y-97709043D01*
X158024180Y-97660498D01*
X157904482Y-97624188D01*
X157780000Y-97611928D01*
X157180000Y-97611928D01*
X157055518Y-97624188D01*
X156935820Y-97660498D01*
X156825506Y-97719463D01*
X156728815Y-97798815D01*
X156649463Y-97895506D01*
X156607512Y-97973990D01*
X156419014Y-97819294D01*
X156364209Y-97790000D01*
X156419014Y-97760706D01*
X156645134Y-97575134D01*
X156830706Y-97349014D01*
X156968599Y-97091034D01*
X157053513Y-96811111D01*
X157082185Y-96520000D01*
X157053513Y-96228889D01*
X156968599Y-95948966D01*
X156830706Y-95690986D01*
X156645134Y-95464866D01*
X156419014Y-95279294D01*
X156364209Y-95250000D01*
X156419014Y-95220706D01*
X156645134Y-95035134D01*
X156830706Y-94809014D01*
X156968599Y-94551034D01*
X157053513Y-94271111D01*
X157082185Y-93980000D01*
X157053513Y-93688889D01*
X156968599Y-93408966D01*
X156830706Y-93150986D01*
X156645134Y-92924866D01*
X156419014Y-92739294D01*
X156364209Y-92710000D01*
X156419014Y-92680706D01*
X156607512Y-92526010D01*
X156649463Y-92604494D01*
X156728815Y-92701185D01*
X156825506Y-92780537D01*
X156935820Y-92839502D01*
X157055518Y-92875812D01*
X157180000Y-92888072D01*
X157780000Y-92888072D01*
X157904482Y-92875812D01*
X158024180Y-92839502D01*
X158115000Y-92790957D01*
X158205820Y-92839502D01*
X158325518Y-92875812D01*
X158450000Y-92888072D01*
X159050000Y-92888072D01*
X159174482Y-92875812D01*
X159294180Y-92839502D01*
X159385000Y-92790957D01*
X159475820Y-92839502D01*
X159595518Y-92875812D01*
X159720000Y-92888072D01*
X160320000Y-92888072D01*
X160444482Y-92875812D01*
X160564180Y-92839502D01*
X160655000Y-92790957D01*
X160745820Y-92839502D01*
X160865518Y-92875812D01*
X160990000Y-92888072D01*
X161590000Y-92888072D01*
X161714482Y-92875812D01*
X161834180Y-92839502D01*
X161944494Y-92780537D01*
X162041185Y-92701185D01*
X162120537Y-92604494D01*
X162162488Y-92526010D01*
X162350986Y-92680706D01*
M02*
