G04 #@! TF.GenerationSoftware,KiCad,Pcbnew,5.1.4-e60b266~84~ubuntu18.04.1*
G04 #@! TF.CreationDate,2019-10-16T13:57:42-06:00*
G04 #@! TF.ProjectId,001,3030312e-6b69-4636-9164-5f7063625858,rev?*
G04 #@! TF.SameCoordinates,Original*
G04 #@! TF.FileFunction,Soldermask,Top*
G04 #@! TF.FilePolarity,Negative*
%FSLAX46Y46*%
G04 Gerber Fmt 4.6, Leading zero omitted, Abs format (unit mm)*
G04 Created by KiCad (PCBNEW 5.1.4-e60b266~84~ubuntu18.04.1) date 2019-10-16 13:57:42*
%MOMM*%
%LPD*%
G04 APERTURE LIST*
%ADD10C,0.100000*%
G04 APERTURE END LIST*
D10*
G36*
X155690216Y-98164470D02*
G01*
X155695081Y-98165191D01*
X155766588Y-98172234D01*
X155835343Y-98193091D01*
X155837789Y-98193703D01*
X155840177Y-98194557D01*
X155874120Y-98204854D01*
X155936389Y-98223743D01*
X156092879Y-98307389D01*
X156230043Y-98419957D01*
X156342611Y-98557121D01*
X156426257Y-98713611D01*
X156477766Y-98883412D01*
X156495158Y-99060000D01*
X156477766Y-99236588D01*
X156426257Y-99406389D01*
X156342611Y-99562879D01*
X156230043Y-99700043D01*
X156092879Y-99812611D01*
X155936389Y-99896257D01*
X155874120Y-99915146D01*
X155840177Y-99925443D01*
X155837789Y-99926297D01*
X155835343Y-99926909D01*
X155766588Y-99947766D01*
X155695081Y-99954809D01*
X155690216Y-99955530D01*
X155663721Y-99960800D01*
X154216279Y-99960800D01*
X154189784Y-99955530D01*
X154184919Y-99954809D01*
X154113412Y-99947766D01*
X154044657Y-99926909D01*
X154042211Y-99926297D01*
X154039823Y-99925443D01*
X154005880Y-99915146D01*
X153943611Y-99896257D01*
X153787121Y-99812611D01*
X153649957Y-99700043D01*
X153537389Y-99562879D01*
X153453743Y-99406389D01*
X153402234Y-99236588D01*
X153384842Y-99060000D01*
X153402234Y-98883412D01*
X153453743Y-98713611D01*
X153537389Y-98557121D01*
X153649957Y-98419957D01*
X153787121Y-98307389D01*
X153943611Y-98223743D01*
X154005880Y-98204854D01*
X154039823Y-98194557D01*
X154042211Y-98193703D01*
X154044657Y-98193091D01*
X154113412Y-98172234D01*
X154184919Y-98165191D01*
X154189784Y-98164470D01*
X154216279Y-98159200D01*
X155663721Y-98159200D01*
X155690216Y-98164470D01*
X155690216Y-98164470D01*
G37*
G36*
X164580216Y-98164470D02*
G01*
X164585081Y-98165191D01*
X164656588Y-98172234D01*
X164725343Y-98193091D01*
X164727789Y-98193703D01*
X164730177Y-98194557D01*
X164764120Y-98204854D01*
X164826389Y-98223743D01*
X164982879Y-98307389D01*
X165120043Y-98419957D01*
X165232611Y-98557121D01*
X165316257Y-98713611D01*
X165367766Y-98883412D01*
X165385158Y-99060000D01*
X165367766Y-99236588D01*
X165316257Y-99406389D01*
X165232611Y-99562879D01*
X165120043Y-99700043D01*
X164982879Y-99812611D01*
X164826389Y-99896257D01*
X164764120Y-99915146D01*
X164730177Y-99925443D01*
X164727789Y-99926297D01*
X164725343Y-99926909D01*
X164656588Y-99947766D01*
X164585081Y-99954809D01*
X164580216Y-99955530D01*
X164553721Y-99960800D01*
X163106279Y-99960800D01*
X163079784Y-99955530D01*
X163074919Y-99954809D01*
X163003412Y-99947766D01*
X162934657Y-99926909D01*
X162932211Y-99926297D01*
X162929823Y-99925443D01*
X162895880Y-99915146D01*
X162833611Y-99896257D01*
X162677121Y-99812611D01*
X162539957Y-99700043D01*
X162427389Y-99562879D01*
X162343743Y-99406389D01*
X162292234Y-99236588D01*
X162274842Y-99060000D01*
X162292234Y-98883412D01*
X162343743Y-98713611D01*
X162427389Y-98557121D01*
X162539957Y-98419957D01*
X162677121Y-98307389D01*
X162833611Y-98223743D01*
X162895880Y-98204854D01*
X162929823Y-98194557D01*
X162932211Y-98193703D01*
X162934657Y-98193091D01*
X163003412Y-98172234D01*
X163074919Y-98165191D01*
X163079784Y-98164470D01*
X163106279Y-98159200D01*
X164553721Y-98159200D01*
X164580216Y-98164470D01*
X164580216Y-98164470D01*
G37*
G36*
X159100800Y-99800800D02*
G01*
X158399200Y-99800800D01*
X158399200Y-98199200D01*
X159100800Y-98199200D01*
X159100800Y-99800800D01*
X159100800Y-99800800D01*
G37*
G36*
X161640800Y-99800800D02*
G01*
X160939200Y-99800800D01*
X160939200Y-98199200D01*
X161640800Y-98199200D01*
X161640800Y-99800800D01*
X161640800Y-99800800D01*
G37*
G36*
X160370800Y-99800800D02*
G01*
X159669200Y-99800800D01*
X159669200Y-98199200D01*
X160370800Y-98199200D01*
X160370800Y-99800800D01*
X160370800Y-99800800D01*
G37*
G36*
X157830800Y-99800800D02*
G01*
X157129200Y-99800800D01*
X157129200Y-98199200D01*
X157830800Y-98199200D01*
X157830800Y-99800800D01*
X157830800Y-99800800D01*
G37*
G36*
X155766588Y-95632234D02*
G01*
X155936389Y-95683743D01*
X156092879Y-95767389D01*
X156230043Y-95879957D01*
X156342611Y-96017121D01*
X156426257Y-96173611D01*
X156477766Y-96343412D01*
X156495158Y-96520000D01*
X156477766Y-96696588D01*
X156426257Y-96866389D01*
X156342611Y-97022879D01*
X156230043Y-97160043D01*
X156092879Y-97272611D01*
X155936389Y-97356257D01*
X155766588Y-97407766D01*
X155634249Y-97420800D01*
X154216279Y-97420800D01*
X154189784Y-97415530D01*
X154184919Y-97414809D01*
X154113412Y-97407766D01*
X154044657Y-97386909D01*
X154042211Y-97386297D01*
X154039823Y-97385443D01*
X154005880Y-97375146D01*
X153943611Y-97356257D01*
X153787121Y-97272611D01*
X153649957Y-97160043D01*
X153537389Y-97022879D01*
X153453743Y-96866389D01*
X153402234Y-96696588D01*
X153384842Y-96520000D01*
X153402234Y-96343412D01*
X153453743Y-96173611D01*
X153537389Y-96017121D01*
X153649957Y-95879957D01*
X153787121Y-95767389D01*
X153943611Y-95683743D01*
X154005880Y-95664854D01*
X154039823Y-95654557D01*
X154042211Y-95653703D01*
X154044657Y-95653091D01*
X154113412Y-95632234D01*
X154184919Y-95625191D01*
X154189784Y-95624470D01*
X154216279Y-95619200D01*
X155634249Y-95619200D01*
X155766588Y-95632234D01*
X155766588Y-95632234D01*
G37*
G36*
X164656588Y-95632234D02*
G01*
X164826389Y-95683743D01*
X164982879Y-95767389D01*
X165120043Y-95879957D01*
X165232611Y-96017121D01*
X165316257Y-96173611D01*
X165367766Y-96343412D01*
X165385158Y-96520000D01*
X165367766Y-96696588D01*
X165316257Y-96866389D01*
X165232611Y-97022879D01*
X165120043Y-97160043D01*
X164982879Y-97272611D01*
X164826389Y-97356257D01*
X164656588Y-97407766D01*
X164524249Y-97420800D01*
X163106279Y-97420800D01*
X163079784Y-97415530D01*
X163074919Y-97414809D01*
X163003412Y-97407766D01*
X162934657Y-97386909D01*
X162932211Y-97386297D01*
X162929823Y-97385443D01*
X162895880Y-97375146D01*
X162833611Y-97356257D01*
X162677121Y-97272611D01*
X162539957Y-97160043D01*
X162427389Y-97022879D01*
X162343743Y-96866389D01*
X162292234Y-96696588D01*
X162274842Y-96520000D01*
X162292234Y-96343412D01*
X162343743Y-96173611D01*
X162427389Y-96017121D01*
X162539957Y-95879957D01*
X162677121Y-95767389D01*
X162833611Y-95683743D01*
X162895880Y-95664854D01*
X162929823Y-95654557D01*
X162932211Y-95653703D01*
X162934657Y-95653091D01*
X163003412Y-95632234D01*
X163074919Y-95625191D01*
X163079784Y-95624470D01*
X163106279Y-95619200D01*
X164524249Y-95619200D01*
X164656588Y-95632234D01*
X164656588Y-95632234D01*
G37*
G36*
X164656588Y-93092234D02*
G01*
X164826389Y-93143743D01*
X164982879Y-93227389D01*
X165120043Y-93339957D01*
X165232611Y-93477121D01*
X165316257Y-93633611D01*
X165367766Y-93803412D01*
X165385158Y-93980000D01*
X165367766Y-94156588D01*
X165316257Y-94326389D01*
X165232611Y-94482879D01*
X165120043Y-94620043D01*
X164982879Y-94732611D01*
X164826389Y-94816257D01*
X164656588Y-94867766D01*
X164524249Y-94880800D01*
X163106279Y-94880800D01*
X163079784Y-94875530D01*
X163074919Y-94874809D01*
X163003412Y-94867766D01*
X162934657Y-94846909D01*
X162932211Y-94846297D01*
X162929823Y-94845443D01*
X162895880Y-94835146D01*
X162833611Y-94816257D01*
X162677121Y-94732611D01*
X162539957Y-94620043D01*
X162427389Y-94482879D01*
X162343743Y-94326389D01*
X162292234Y-94156588D01*
X162274842Y-93980000D01*
X162292234Y-93803412D01*
X162343743Y-93633611D01*
X162427389Y-93477121D01*
X162539957Y-93339957D01*
X162677121Y-93227389D01*
X162833611Y-93143743D01*
X162895880Y-93124854D01*
X162929823Y-93114557D01*
X162932211Y-93113703D01*
X162934657Y-93113091D01*
X163003412Y-93092234D01*
X163074919Y-93085191D01*
X163079784Y-93084470D01*
X163106279Y-93079200D01*
X164524249Y-93079200D01*
X164656588Y-93092234D01*
X164656588Y-93092234D01*
G37*
G36*
X155766588Y-93092234D02*
G01*
X155936389Y-93143743D01*
X156092879Y-93227389D01*
X156230043Y-93339957D01*
X156342611Y-93477121D01*
X156426257Y-93633611D01*
X156477766Y-93803412D01*
X156495158Y-93980000D01*
X156477766Y-94156588D01*
X156426257Y-94326389D01*
X156342611Y-94482879D01*
X156230043Y-94620043D01*
X156092879Y-94732611D01*
X155936389Y-94816257D01*
X155766588Y-94867766D01*
X155634249Y-94880800D01*
X154216279Y-94880800D01*
X154189784Y-94875530D01*
X154184919Y-94874809D01*
X154113412Y-94867766D01*
X154044657Y-94846909D01*
X154042211Y-94846297D01*
X154039823Y-94845443D01*
X154005880Y-94835146D01*
X153943611Y-94816257D01*
X153787121Y-94732611D01*
X153649957Y-94620043D01*
X153537389Y-94482879D01*
X153453743Y-94326389D01*
X153402234Y-94156588D01*
X153384842Y-93980000D01*
X153402234Y-93803412D01*
X153453743Y-93633611D01*
X153537389Y-93477121D01*
X153649957Y-93339957D01*
X153787121Y-93227389D01*
X153943611Y-93143743D01*
X154005880Y-93124854D01*
X154039823Y-93114557D01*
X154042211Y-93113703D01*
X154044657Y-93113091D01*
X154113412Y-93092234D01*
X154184919Y-93085191D01*
X154189784Y-93084470D01*
X154216279Y-93079200D01*
X155634249Y-93079200D01*
X155766588Y-93092234D01*
X155766588Y-93092234D01*
G37*
G36*
X155766588Y-90552234D02*
G01*
X155936389Y-90603743D01*
X156092879Y-90687389D01*
X156230043Y-90799957D01*
X156342611Y-90937121D01*
X156426257Y-91093611D01*
X156477766Y-91263412D01*
X156495158Y-91440000D01*
X156477766Y-91616588D01*
X156426257Y-91786389D01*
X156342611Y-91942879D01*
X156230043Y-92080043D01*
X156092879Y-92192611D01*
X155936389Y-92276257D01*
X155766588Y-92327766D01*
X155634249Y-92340800D01*
X154216279Y-92340800D01*
X154189784Y-92335530D01*
X154184919Y-92334809D01*
X154113412Y-92327766D01*
X154044657Y-92306909D01*
X154042211Y-92306297D01*
X154039823Y-92305443D01*
X154005880Y-92295146D01*
X153943611Y-92276257D01*
X153787121Y-92192611D01*
X153649957Y-92080043D01*
X153537389Y-91942879D01*
X153453743Y-91786389D01*
X153402234Y-91616588D01*
X153384842Y-91440000D01*
X153402234Y-91263412D01*
X153453743Y-91093611D01*
X153537389Y-90937121D01*
X153649957Y-90799957D01*
X153787121Y-90687389D01*
X153943611Y-90603743D01*
X154005880Y-90584854D01*
X154039823Y-90574557D01*
X154042211Y-90573703D01*
X154044657Y-90573091D01*
X154113412Y-90552234D01*
X154184919Y-90545191D01*
X154189784Y-90544470D01*
X154216279Y-90539200D01*
X155634249Y-90539200D01*
X155766588Y-90552234D01*
X155766588Y-90552234D01*
G37*
G36*
X164656588Y-90552234D02*
G01*
X164826389Y-90603743D01*
X164982879Y-90687389D01*
X165120043Y-90799957D01*
X165232611Y-90937121D01*
X165316257Y-91093611D01*
X165367766Y-91263412D01*
X165385158Y-91440000D01*
X165367766Y-91616588D01*
X165316257Y-91786389D01*
X165232611Y-91942879D01*
X165120043Y-92080043D01*
X164982879Y-92192611D01*
X164826389Y-92276257D01*
X164656588Y-92327766D01*
X164524249Y-92340800D01*
X163106279Y-92340800D01*
X163079784Y-92335530D01*
X163074919Y-92334809D01*
X163003412Y-92327766D01*
X162934657Y-92306909D01*
X162932211Y-92306297D01*
X162929823Y-92305443D01*
X162895880Y-92295146D01*
X162833611Y-92276257D01*
X162677121Y-92192611D01*
X162539957Y-92080043D01*
X162427389Y-91942879D01*
X162343743Y-91786389D01*
X162292234Y-91616588D01*
X162274842Y-91440000D01*
X162292234Y-91263412D01*
X162343743Y-91093611D01*
X162427389Y-90937121D01*
X162539957Y-90799957D01*
X162677121Y-90687389D01*
X162833611Y-90603743D01*
X162895880Y-90584854D01*
X162929823Y-90574557D01*
X162932211Y-90573703D01*
X162934657Y-90573091D01*
X163003412Y-90552234D01*
X163074919Y-90545191D01*
X163079784Y-90544470D01*
X163106279Y-90539200D01*
X164524249Y-90539200D01*
X164656588Y-90552234D01*
X164656588Y-90552234D01*
G37*
G36*
X157830800Y-92300800D02*
G01*
X157129200Y-92300800D01*
X157129200Y-90699200D01*
X157830800Y-90699200D01*
X157830800Y-92300800D01*
X157830800Y-92300800D01*
G37*
G36*
X159100800Y-92300800D02*
G01*
X158399200Y-92300800D01*
X158399200Y-90699200D01*
X159100800Y-90699200D01*
X159100800Y-92300800D01*
X159100800Y-92300800D01*
G37*
G36*
X160370800Y-92300800D02*
G01*
X159669200Y-92300800D01*
X159669200Y-90699200D01*
X160370800Y-90699200D01*
X160370800Y-92300800D01*
X160370800Y-92300800D01*
G37*
G36*
X161640800Y-92300800D02*
G01*
X160939200Y-92300800D01*
X160939200Y-90699200D01*
X161640800Y-90699200D01*
X161640800Y-92300800D01*
X161640800Y-92300800D01*
G37*
M02*
