G04 #@! TF.GenerationSoftware,KiCad,Pcbnew,5.1.5-52549c5~84~ubuntu18.04.1*
G04 #@! TF.CreationDate,2019-12-20T17:19:42-07:00*
G04 #@! TF.ProjectId,Tiny,54696e79-2e6b-4696-9361-645f70636258,rev?*
G04 #@! TF.SameCoordinates,Original*
G04 #@! TF.FileFunction,Profile,NP*
%FSLAX46Y46*%
G04 Gerber Fmt 4.6, Leading zero omitted, Abs format (unit mm)*
G04 Created by KiCad (PCBNEW 5.1.5-52549c5~84~ubuntu18.04.1) date 2019-12-20 17:19:42*
%MOMM*%
%LPD*%
G04 APERTURE LIST*
%ADD10C,0.100000*%
G04 APERTURE END LIST*
D10*
X166104257Y-74848559D02*
X166104659Y-74961285D01*
X166101740Y-74679926D02*
X166104257Y-74848559D01*
X166097140Y-74511830D02*
X166101740Y-74679926D01*
X166090440Y-74344253D02*
X166097140Y-74511830D01*
X166081640Y-74177238D02*
X166090440Y-74344253D01*
X166070750Y-74010778D02*
X166081640Y-74177238D01*
X166057790Y-73844886D02*
X166070750Y-74010778D01*
X166042780Y-73679584D02*
X166057790Y-73844886D01*
X166025720Y-73514885D02*
X166042780Y-73679584D01*
X166006540Y-73350792D02*
X166025720Y-73514885D01*
X165985440Y-73187328D02*
X166006540Y-73350792D01*
X165962340Y-73024507D02*
X165985440Y-73187328D01*
X165937150Y-72862319D02*
X165962340Y-73024507D01*
X165910080Y-72700809D02*
X165937150Y-72862319D01*
X165880990Y-72539970D02*
X165910080Y-72700809D01*
X165849950Y-72379823D02*
X165880990Y-72539970D01*
X165816980Y-72220373D02*
X165849950Y-72379823D01*
X165782080Y-72061641D02*
X165816980Y-72220373D01*
X165745250Y-71903631D02*
X165782080Y-72061641D01*
X165706520Y-71746366D02*
X165745250Y-71903631D01*
X165665910Y-71589858D02*
X165706520Y-71746366D01*
X165623410Y-71434110D02*
X165665910Y-71589858D01*
X165579050Y-71279145D02*
X165623410Y-71434110D01*
X165532830Y-71124965D02*
X165579050Y-71279145D01*
X165484780Y-70971594D02*
X165532830Y-71124965D01*
X165434910Y-70819035D02*
X165484780Y-70971594D01*
X165383220Y-70667310D02*
X165434910Y-70819035D01*
X165329730Y-70516429D02*
X165383220Y-70667310D01*
X165274450Y-70366403D02*
X165329730Y-70516429D01*
X165217390Y-70217245D02*
X165274450Y-70366403D01*
X165158570Y-70068967D02*
X165217390Y-70217245D01*
X165098000Y-69921586D02*
X165158570Y-70068967D01*
X165035700Y-69775110D02*
X165098000Y-69921586D01*
X164971670Y-69629555D02*
X165035700Y-69775110D01*
X164905930Y-69484932D02*
X164971670Y-69629555D01*
X164838490Y-69341255D02*
X164905930Y-69484932D01*
X164769370Y-69198535D02*
X164838490Y-69341255D01*
X164698570Y-69056788D02*
X164769370Y-69198535D01*
X164626110Y-68916025D02*
X164698570Y-69056788D01*
X164552010Y-68776258D02*
X164626110Y-68916025D01*
X164476270Y-68637501D02*
X164552010Y-68776258D01*
X164398900Y-68499766D02*
X164476270Y-68637501D01*
X164319940Y-68363067D02*
X164398900Y-68499766D01*
X164239370Y-68227417D02*
X164319940Y-68363067D01*
X164157220Y-68092827D02*
X164239370Y-68227417D01*
X164073500Y-67959312D02*
X164157220Y-68092827D01*
X163988230Y-67826882D02*
X164073500Y-67959312D01*
X163901410Y-67695553D02*
X163988230Y-67826882D01*
X163813050Y-67565336D02*
X163901410Y-67695553D01*
X163723190Y-67436244D02*
X163813050Y-67565336D01*
X163631800Y-67308290D02*
X163723190Y-67436244D01*
X163538930Y-67181487D02*
X163631800Y-67308290D01*
X163444580Y-67055847D02*
X163538930Y-67181487D01*
X163348750Y-66931384D02*
X163444580Y-67055847D01*
X163251490Y-66808111D02*
X163348750Y-66931384D01*
X163152770Y-66686040D02*
X163251490Y-66808111D01*
X163052623Y-66565183D02*
X163152770Y-66686040D01*
X162951063Y-66445556D02*
X163052623Y-66565183D01*
X162848106Y-66327169D02*
X162951063Y-66445556D01*
X162743751Y-66210035D02*
X162848106Y-66327169D01*
X162638014Y-66094167D02*
X162743751Y-66210035D01*
X162530925Y-65979579D02*
X162638014Y-66094167D01*
X162422470Y-65866283D02*
X162530925Y-65979579D01*
X162312689Y-65754292D02*
X162422470Y-65866283D01*
X162201566Y-65643618D02*
X162312689Y-65754292D01*
X162089145Y-65534275D02*
X162201566Y-65643618D01*
X161975416Y-65426275D02*
X162089145Y-65534275D01*
X161860395Y-65319633D02*
X161975416Y-65426275D01*
X161744102Y-65214359D02*
X161860395Y-65319633D01*
X161626552Y-65110466D02*
X161744102Y-65214359D01*
X161507746Y-65007968D02*
X161626552Y-65110466D01*
X161387709Y-64906878D02*
X161507746Y-65007968D01*
X161266452Y-64807208D02*
X161387709Y-64906878D01*
X161143979Y-64708972D02*
X161266452Y-64807208D01*
X161020302Y-64612181D02*
X161143979Y-64708972D01*
X160895454Y-64516850D02*
X161020302Y-64612181D01*
X160769418Y-64422991D02*
X160895454Y-64516850D01*
X160642237Y-64330616D02*
X160769418Y-64422991D01*
X160513894Y-64239738D02*
X160642237Y-64330616D01*
X160384431Y-64150371D02*
X160513894Y-64239738D01*
X160253842Y-64062527D02*
X160384431Y-64150371D01*
X160122138Y-63976218D02*
X160253842Y-64062527D01*
X159989354Y-63891459D02*
X160122138Y-63976218D01*
X159855472Y-63808261D02*
X159989354Y-63891459D01*
X159720534Y-63726637D02*
X159855472Y-63808261D01*
X159584523Y-63646600D02*
X159720534Y-63726637D01*
X159447483Y-63568164D02*
X159584523Y-63646600D01*
X159309407Y-63491341D02*
X159447483Y-63568164D01*
X159170306Y-63416144D02*
X159309407Y-63491341D01*
X159030214Y-63342585D02*
X159170306Y-63416144D01*
X158889113Y-63270678D02*
X159030214Y-63342585D01*
X158747048Y-63200435D02*
X158889113Y-63270678D01*
X158604009Y-63131869D02*
X158747048Y-63200435D01*
X158460011Y-63064993D02*
X158604009Y-63131869D01*
X158315076Y-62999820D02*
X158460011Y-63064993D01*
X158169216Y-62936363D02*
X158315076Y-62999820D01*
X158022435Y-62874633D02*
X158169216Y-62936363D01*
X157874756Y-62814645D02*
X158022435Y-62874633D01*
X157726181Y-62756411D02*
X157874756Y-62814645D01*
X157576734Y-62699944D02*
X157726181Y-62756411D01*
X157426416Y-62645258D02*
X157576734Y-62699944D01*
X157275251Y-62592362D02*
X157426416Y-62645258D01*
X157123252Y-62541273D02*
X157275251Y-62592362D01*
X156970421Y-62492002D02*
X157123252Y-62541273D01*
X156816782Y-62444562D02*
X156970421Y-62492002D01*
X156662337Y-62398966D02*
X156816782Y-62444562D01*
X156507109Y-62355226D02*
X156662337Y-62398966D01*
X156351101Y-62313357D02*
X156507109Y-62355226D01*
X156194335Y-62273370D02*
X156351101Y-62313357D01*
X156036825Y-62235278D02*
X156194335Y-62273370D01*
X155878574Y-62199095D02*
X156036825Y-62235278D01*
X155719603Y-62164832D02*
X155878574Y-62199095D01*
X155559917Y-62132503D02*
X155719603Y-62164832D01*
X155399538Y-62102117D02*
X155559917Y-62132503D01*
X155238468Y-62073701D02*
X155399538Y-62102117D01*
X155076741Y-62047251D02*
X155238468Y-62073701D01*
X154914338Y-62022781D02*
X155076741Y-62047251D01*
X154751295Y-62000313D02*
X154914338Y-62022781D01*
X154587622Y-61979860D02*
X154751295Y-62000313D01*
X154423323Y-61961425D02*
X154587622Y-61979860D01*
X154258421Y-61945031D02*
X154423323Y-61961425D01*
X154092929Y-61930680D02*
X154258421Y-61945031D01*
X153926848Y-61918396D02*
X154092929Y-61930680D01*
X153760193Y-61908186D02*
X153926848Y-61918396D01*
X153592996Y-61900066D02*
X153760193Y-61908186D01*
X153425241Y-61894046D02*
X153592996Y-61900066D01*
X153256968Y-61890138D02*
X153425241Y-61894046D01*
X153088172Y-61888356D02*
X153256968Y-61890138D01*
X152919036Y-61888714D02*
X153088172Y-61888356D01*
X152750404Y-61891206D02*
X152919036Y-61888714D01*
X152582308Y-61895826D02*
X152750404Y-61891206D01*
X152414731Y-61902546D02*
X152582308Y-61895826D01*
X152247716Y-61911356D02*
X152414731Y-61902546D01*
X152081256Y-61922260D02*
X152247716Y-61911356D01*
X151915363Y-61935231D02*
X152081256Y-61922260D01*
X151750061Y-61950265D02*
X151915363Y-61935231D01*
X151585362Y-61967340D02*
X151750061Y-61950265D01*
X151421270Y-61986453D02*
X151585362Y-61967340D01*
X151257806Y-62007581D02*
X151421270Y-61986453D01*
X151094984Y-62030711D02*
X151257806Y-62007581D01*
X150932797Y-62055841D02*
X151094984Y-62030711D01*
X150771287Y-62082957D02*
X150932797Y-62055841D01*
X150610447Y-62112031D02*
X150771287Y-62082957D01*
X150450301Y-62143064D02*
X150610447Y-62112031D01*
X150290851Y-62176039D02*
X150450301Y-62143064D01*
X150132119Y-62210943D02*
X150290851Y-62176039D01*
X149974109Y-62247764D02*
X150132119Y-62210943D01*
X149816843Y-62286489D02*
X149974109Y-62247764D01*
X149660335Y-62327105D02*
X149816843Y-62286489D01*
X149504587Y-62369600D02*
X149660335Y-62327105D01*
X149349622Y-62413960D02*
X149504587Y-62369600D01*
X149195442Y-62460172D02*
X149349622Y-62413960D01*
X149042069Y-62508223D02*
X149195442Y-62460172D01*
X148889514Y-62558102D02*
X149042069Y-62508223D01*
X148737789Y-62609794D02*
X148889514Y-62558102D01*
X148586907Y-62663288D02*
X148737789Y-62609794D01*
X148436881Y-62718569D02*
X148586907Y-62663288D01*
X148287723Y-62775627D02*
X148436881Y-62718569D01*
X148139446Y-62834447D02*
X148287723Y-62775627D01*
X147992064Y-62895017D02*
X148139446Y-62834447D01*
X147845589Y-62957324D02*
X147992064Y-62895017D01*
X147700033Y-63021355D02*
X147845589Y-62957324D01*
X147555410Y-63087097D02*
X147700033Y-63021355D01*
X147411733Y-63154537D02*
X147555410Y-63087097D01*
X147269014Y-63223664D02*
X147411733Y-63154537D01*
X147127267Y-63294463D02*
X147269014Y-63223664D01*
X146986503Y-63366922D02*
X147127267Y-63294463D01*
X146846737Y-63441029D02*
X146986503Y-63366922D01*
X146707980Y-63516770D02*
X146846737Y-63441029D01*
X146570245Y-63594132D02*
X146707980Y-63516770D01*
X146433546Y-63673103D02*
X146570245Y-63594132D01*
X146297896Y-63753670D02*
X146433546Y-63673103D01*
X146163305Y-63835819D02*
X146297896Y-63753670D01*
X146029790Y-63919540D02*
X146163305Y-63835819D01*
X145897361Y-64004817D02*
X146029790Y-63919540D01*
X145766031Y-64091639D02*
X145897361Y-64004817D01*
X145635813Y-64179992D02*
X145766031Y-64091639D01*
X145506722Y-64269864D02*
X145635813Y-64179992D01*
X145378768Y-64361243D02*
X145506722Y-64269864D01*
X145251965Y-64454113D02*
X145378768Y-64361243D01*
X145126325Y-64548465D02*
X145251965Y-64454113D01*
X145001862Y-64644284D02*
X145126325Y-64548465D01*
X144878589Y-64741558D02*
X145001862Y-64644284D01*
X144756518Y-64840274D02*
X144878589Y-64741558D01*
X144635663Y-64940418D02*
X144756518Y-64840274D01*
X144516033Y-65041979D02*
X144635663Y-64940418D01*
X144397647Y-65144942D02*
X144516033Y-65041979D01*
X144280513Y-65249297D02*
X144397647Y-65144942D01*
X144164645Y-65355029D02*
X144280513Y-65249297D01*
X144050057Y-65462126D02*
X144164645Y-65355029D01*
X143936761Y-65570574D02*
X144050057Y-65462126D01*
X143824769Y-65680363D02*
X143936761Y-65570574D01*
X143714096Y-65791477D02*
X143824769Y-65680363D01*
X143604753Y-65903905D02*
X143714096Y-65791477D01*
X143496753Y-66017633D02*
X143604753Y-65903905D01*
X143390111Y-66132648D02*
X143496753Y-66017633D01*
X143284837Y-66248939D02*
X143390111Y-66132648D01*
X143180944Y-66366492D02*
X143284837Y-66248939D01*
X143078447Y-66485295D02*
X143180944Y-66366492D01*
X142977356Y-66605334D02*
X143078447Y-66485295D01*
X142877686Y-66726596D02*
X142977356Y-66605334D01*
X142779450Y-66849070D02*
X142877686Y-66726596D01*
X142682660Y-66972741D02*
X142779450Y-66849070D01*
X142587328Y-67097598D02*
X142682660Y-66972741D01*
X142493469Y-67223626D02*
X142587328Y-67097598D01*
X142401094Y-67350814D02*
X142493469Y-67223626D01*
X142310216Y-67479149D02*
X142401094Y-67350814D01*
X142220849Y-67608617D02*
X142310216Y-67479149D01*
X142133005Y-67739206D02*
X142220849Y-67608617D01*
X142046696Y-67870904D02*
X142133005Y-67739206D01*
X141961937Y-68003697D02*
X142046696Y-67870904D01*
X141878739Y-68137572D02*
X141961937Y-68003697D01*
X141797115Y-68272517D02*
X141878739Y-68137572D01*
X141717079Y-68408519D02*
X141797115Y-68272517D01*
X141638642Y-68545565D02*
X141717079Y-68408519D01*
X141561819Y-68683641D02*
X141638642Y-68545565D01*
X141486622Y-68822735D02*
X141561819Y-68683641D01*
X141413063Y-68962836D02*
X141486622Y-68822735D01*
X141341156Y-69103930D02*
X141413063Y-68962836D01*
X141270913Y-69246002D02*
X141341156Y-69103930D01*
X141202347Y-69389042D02*
X141270913Y-69246002D01*
X141135471Y-69533035D02*
X141202347Y-69389042D01*
X141070298Y-69677970D02*
X141135471Y-69533035D01*
X141006841Y-69823834D02*
X141070298Y-69677970D01*
X140945111Y-69970613D02*
X141006841Y-69823834D01*
X140885123Y-70118295D02*
X140945111Y-69970613D01*
X140826889Y-70266867D02*
X140885123Y-70118295D01*
X140770422Y-70416315D02*
X140826889Y-70266867D01*
X140715736Y-70566629D02*
X140770422Y-70416315D01*
X140662840Y-70717795D02*
X140715736Y-70566629D01*
X140611751Y-70869794D02*
X140662840Y-70717795D01*
X140562480Y-71022625D02*
X140611751Y-70869794D01*
X140515040Y-71176265D02*
X140562480Y-71022625D01*
X140469444Y-71330710D02*
X140515040Y-71176265D01*
X140425705Y-71485938D02*
X140469444Y-71330710D01*
X140383835Y-71641946D02*
X140425705Y-71485938D01*
X140343848Y-71798711D02*
X140383835Y-71641946D01*
X140305756Y-71956221D02*
X140343848Y-71798711D01*
X140269573Y-72114473D02*
X140305756Y-71956221D01*
X140235311Y-72273443D02*
X140269573Y-72114473D01*
X140202982Y-72433130D02*
X140235311Y-72273443D01*
X140172599Y-72593509D02*
X140202982Y-72433130D01*
X140144177Y-72754569D02*
X140172599Y-72593509D01*
X140117727Y-72916306D02*
X140144177Y-72754569D01*
X140093260Y-73078708D02*
X140117727Y-72916306D01*
X140070793Y-73241752D02*
X140093260Y-73078708D01*
X140050337Y-73405425D02*
X140070793Y-73241752D01*
X140031904Y-73569724D02*
X140050337Y-73405425D01*
X140015507Y-73734626D02*
X140031904Y-73569724D01*
X140001160Y-73900118D02*
X140015507Y-73734626D01*
X139988875Y-74066198D02*
X140001160Y-73900118D01*
X139978665Y-74232853D02*
X139988875Y-74066198D01*
X139970542Y-74400050D02*
X139978665Y-74232853D01*
X139964520Y-74567806D02*
X139970542Y-74400050D01*
X139960613Y-74736079D02*
X139964520Y-74567806D01*
X139958830Y-74904875D02*
X139960613Y-74736079D01*
X139959188Y-75074010D02*
X139958830Y-74904875D01*
X139961680Y-75242643D02*
X139959188Y-75074010D01*
X139966294Y-75410739D02*
X139961680Y-75242643D01*
X139973017Y-75578316D02*
X139966294Y-75410739D01*
X139981837Y-75745331D02*
X139973017Y-75578316D01*
X139992740Y-75911791D02*
X139981837Y-75745331D01*
X140005715Y-76077683D02*
X139992740Y-75911791D01*
X140020746Y-76242986D02*
X140005715Y-76077683D01*
X140037823Y-76407684D02*
X140020746Y-76242986D01*
X140056931Y-76571777D02*
X140037823Y-76407684D01*
X140078060Y-76735241D02*
X140056931Y-76571777D01*
X140101194Y-76898063D02*
X140078060Y-76735241D01*
X140126323Y-77060250D02*
X140101194Y-76898063D01*
X140153433Y-77221760D02*
X140126323Y-77060250D01*
X140182510Y-77382599D02*
X140153433Y-77221760D01*
X140213542Y-77542746D02*
X140182510Y-77382599D01*
X140246517Y-77702196D02*
X140213542Y-77542746D01*
X140281422Y-77860928D02*
X140246517Y-77702196D01*
X140318242Y-78018938D02*
X140281422Y-77860928D01*
X140356967Y-78176203D02*
X140318242Y-78018938D01*
X140397583Y-78332711D02*
X140356967Y-78176203D01*
X140440078Y-78488460D02*
X140397583Y-78332711D01*
X140484438Y-78643425D02*
X140440078Y-78488460D01*
X140530650Y-78797604D02*
X140484438Y-78643425D01*
X140578701Y-78950974D02*
X140530650Y-78797604D01*
X140628580Y-79103534D02*
X140578701Y-78950974D01*
X140680272Y-79255258D02*
X140628580Y-79103534D01*
X140733765Y-79406136D02*
X140680272Y-79255258D01*
X140789046Y-79556164D02*
X140733765Y-79406136D01*
X140846104Y-79705319D02*
X140789046Y-79556164D01*
X140904924Y-79853598D02*
X140846104Y-79705319D01*
X140965494Y-80000979D02*
X140904924Y-79853598D01*
X141027801Y-80147458D02*
X140965494Y-80000979D01*
X141091832Y-80293013D02*
X141027801Y-80147458D01*
X141157574Y-80437632D02*
X141091832Y-80293013D01*
X141225015Y-80581310D02*
X141157574Y-80437632D01*
X141294142Y-80724036D02*
X141225015Y-80581310D01*
X141364941Y-80865776D02*
X141294142Y-80724036D01*
X141437400Y-81006538D02*
X141364941Y-80865776D01*
X141511507Y-81146309D02*
X141437400Y-81006538D01*
X141587247Y-81285066D02*
X141511507Y-81146309D01*
X141664610Y-81422796D02*
X141587247Y-81285066D01*
X141743581Y-81559496D02*
X141664610Y-81422796D01*
X141824147Y-81695154D02*
X141743581Y-81559496D01*
X141906297Y-81829746D02*
X141824147Y-81695154D01*
X141990018Y-81963261D02*
X141906297Y-81829746D01*
X142075295Y-82095684D02*
X141990018Y-81963261D01*
X142162117Y-82227013D02*
X142075295Y-82095684D01*
X142250470Y-82357236D02*
X142162117Y-82227013D01*
X142340342Y-82486320D02*
X142250470Y-82357236D01*
X142431721Y-82614281D02*
X142340342Y-82486320D01*
X142524600Y-82741087D02*
X142431721Y-82614281D01*
X142618952Y-82866724D02*
X142524600Y-82741087D01*
X142714771Y-82991181D02*
X142618952Y-82866724D01*
X142812045Y-83114455D02*
X142714771Y-82991181D01*
X142910761Y-83236532D02*
X142812045Y-83114455D01*
X143010905Y-83357389D02*
X142910761Y-83236532D01*
X143112466Y-83477014D02*
X143010905Y-83357389D01*
X143215429Y-83595404D02*
X143112466Y-83477014D01*
X143319784Y-83712537D02*
X143215429Y-83595404D01*
X143425516Y-83828399D02*
X143319784Y-83712537D01*
X143532612Y-83942987D02*
X143425516Y-83828399D01*
X143641061Y-84056289D02*
X143532612Y-83942987D01*
X143750849Y-84168281D02*
X143641061Y-84056289D01*
X143861964Y-84278952D02*
X143750849Y-84168281D01*
X143974390Y-84388288D02*
X143861964Y-84278952D01*
X144088119Y-84496296D02*
X143974390Y-84388288D01*
X144203135Y-84602934D02*
X144088119Y-84496296D01*
X144319427Y-84708208D02*
X144203135Y-84602934D01*
X144436979Y-84812106D02*
X144319427Y-84708208D01*
X144555782Y-84914595D02*
X144436979Y-84812106D01*
X144675821Y-85015692D02*
X144555782Y-84914595D01*
X144797083Y-85115352D02*
X144675821Y-85015692D01*
X144919557Y-85213592D02*
X144797083Y-85115352D01*
X145043228Y-85310372D02*
X144919557Y-85213592D01*
X145168084Y-85405702D02*
X145043228Y-85310372D01*
X145294113Y-85499562D02*
X145168084Y-85405702D01*
X145421301Y-85591932D02*
X145294113Y-85499562D01*
X145549636Y-85682812D02*
X145421301Y-85591932D01*
X145679104Y-85772172D02*
X145549636Y-85682812D01*
X145809693Y-85860012D02*
X145679104Y-85772172D01*
X145941391Y-85946322D02*
X145809693Y-85860012D01*
X146074184Y-86031082D02*
X145941391Y-85946322D01*
X146208058Y-86114272D02*
X146074184Y-86031082D01*
X146343004Y-86195902D02*
X146208058Y-86114272D01*
X146479005Y-86275942D02*
X146343004Y-86195902D01*
X146616050Y-86354372D02*
X146479005Y-86275942D01*
X146754127Y-86431192D02*
X146616050Y-86354372D01*
X146893222Y-86506392D02*
X146754127Y-86431192D01*
X147033323Y-86579952D02*
X146893222Y-86506392D01*
X147174416Y-86651852D02*
X147033323Y-86579952D01*
X147316489Y-86722092D02*
X147174416Y-86651852D01*
X147459529Y-86790652D02*
X147316489Y-86722092D01*
X147603522Y-86857532D02*
X147459529Y-86790652D01*
X147748457Y-86922702D02*
X147603522Y-86857532D01*
X147894321Y-86986162D02*
X147748457Y-86922702D01*
X148041099Y-87047892D02*
X147894321Y-86986162D01*
X148188782Y-87107872D02*
X148041099Y-87047892D01*
X148337354Y-87166112D02*
X148188782Y-87107872D01*
X148486802Y-87222582D02*
X148337354Y-87166112D01*
X148637116Y-87277272D02*
X148486802Y-87222582D01*
X148788281Y-87330162D02*
X148637116Y-87277272D01*
X148940284Y-87381242D02*
X148788281Y-87330162D01*
X149093112Y-87430512D02*
X148940284Y-87381242D01*
X149246750Y-87477952D02*
X149093112Y-87430512D01*
X149401196Y-87523552D02*
X149246750Y-87477952D01*
X149556424Y-87567292D02*
X149401196Y-87523552D01*
X149712432Y-87609152D02*
X149556424Y-87567292D01*
X149869198Y-87649152D02*
X149712432Y-87609152D01*
X150026708Y-87687242D02*
X149869198Y-87649152D01*
X150184959Y-87723422D02*
X150026708Y-87687242D01*
X150343930Y-87757692D02*
X150184959Y-87723422D01*
X150503616Y-87790012D02*
X150343930Y-87757692D01*
X150663996Y-87820382D02*
X150503616Y-87790012D01*
X150825056Y-87848852D02*
X150663996Y-87820382D01*
X150986793Y-87875242D02*
X150825056Y-87848852D01*
X151149195Y-87899742D02*
X150986793Y-87875242D01*
X151312239Y-87922242D02*
X151149195Y-87899742D01*
X151475911Y-87942622D02*
X151312239Y-87922242D01*
X151640210Y-87961082D02*
X151475911Y-87942622D01*
X151805112Y-87977492D02*
X151640210Y-87961082D01*
X151970605Y-87991852D02*
X151805112Y-87977492D01*
X152136685Y-88004142D02*
X151970605Y-87991852D01*
X152303340Y-88014342D02*
X152136685Y-88004142D01*
X152470537Y-88022442D02*
X152303340Y-88014342D01*
X152638293Y-88028442D02*
X152470537Y-88022442D01*
X152806565Y-88032326D02*
X152638293Y-88028442D01*
X152975361Y-88034142D02*
X152806565Y-88032326D01*
X153144497Y-88033758D02*
X152975361Y-88034142D01*
X153313129Y-88031242D02*
X153144497Y-88033758D01*
X153481225Y-88026642D02*
X153313129Y-88031242D01*
X153648802Y-88019942D02*
X153481225Y-88026642D01*
X153815817Y-88011142D02*
X153648802Y-88019942D01*
X153982277Y-88000252D02*
X153815817Y-88011142D01*
X154148170Y-87987292D02*
X153982277Y-88000252D01*
X154313472Y-87972282D02*
X154148170Y-87987292D01*
X154478171Y-87955222D02*
X154313472Y-87972282D01*
X154642263Y-87936042D02*
X154478171Y-87955222D01*
X154805727Y-87914942D02*
X154642263Y-87936042D01*
X154968549Y-87891842D02*
X154805727Y-87914942D01*
X155130736Y-87866652D02*
X154968549Y-87891842D01*
X155292246Y-87839582D02*
X155130736Y-87866652D01*
X155453086Y-87810492D02*
X155292246Y-87839582D01*
X155613232Y-87779452D02*
X155453086Y-87810492D01*
X155772683Y-87746482D02*
X155613232Y-87779452D01*
X155931414Y-87711582D02*
X155772683Y-87746482D01*
X156089424Y-87674752D02*
X155931414Y-87711582D01*
X156246690Y-87636022D02*
X156089424Y-87674752D01*
X156403198Y-87595412D02*
X156246690Y-87636022D01*
X156558946Y-87552912D02*
X156403198Y-87595412D01*
X156713911Y-87508552D02*
X156558946Y-87552912D01*
X156868090Y-87462342D02*
X156713911Y-87508552D01*
X157021461Y-87414292D02*
X156868090Y-87462342D01*
X157174020Y-87364422D02*
X157021461Y-87414292D01*
X157325745Y-87312732D02*
X157174020Y-87364422D01*
X157476622Y-87259242D02*
X157325745Y-87312732D01*
X157626650Y-87203952D02*
X157476622Y-87259242D01*
X157775815Y-87146892D02*
X157626650Y-87203952D01*
X157924084Y-87088072D02*
X157775815Y-87146892D01*
X158071465Y-87027502D02*
X157924084Y-87088072D01*
X158217944Y-86965202D02*
X158071465Y-87027502D01*
X158363499Y-86901172D02*
X158217944Y-86965202D01*
X158508118Y-86835432D02*
X158363499Y-86901172D01*
X158651796Y-86767992D02*
X158508118Y-86835432D01*
X158794522Y-86698872D02*
X158651796Y-86767992D01*
X158936262Y-86628072D02*
X158794522Y-86698872D01*
X159077034Y-86555612D02*
X158936262Y-86628072D01*
X159216795Y-86481512D02*
X159077034Y-86555612D01*
X159355552Y-86405772D02*
X159216795Y-86481512D01*
X159493292Y-86328402D02*
X159355552Y-86405772D01*
X159629983Y-86249442D02*
X159493292Y-86328402D01*
X159765640Y-86168872D02*
X159629983Y-86249442D01*
X159900223Y-86086722D02*
X159765640Y-86168872D01*
X160033747Y-86003002D02*
X159900223Y-86086722D01*
X160166170Y-85917732D02*
X160033747Y-86003002D01*
X160297500Y-85830912D02*
X160166170Y-85917732D01*
X160427723Y-85742552D02*
X160297500Y-85830912D01*
X160556806Y-85652692D02*
X160427723Y-85742552D01*
X160684767Y-85561302D02*
X160556806Y-85652692D01*
X160811563Y-85468442D02*
X160684767Y-85561302D01*
X160937211Y-85374092D02*
X160811563Y-85468442D01*
X161061668Y-85278272D02*
X160937211Y-85374092D01*
X161184941Y-85181002D02*
X161061668Y-85278272D01*
X161307018Y-85082292D02*
X161184941Y-85181002D01*
X161427875Y-84982145D02*
X161307018Y-85082292D01*
X161547501Y-84880586D02*
X161427875Y-84982145D01*
X161665891Y-84777628D02*
X161547501Y-84880586D01*
X161783023Y-84673274D02*
X161665891Y-84777628D01*
X161898885Y-84567536D02*
X161783023Y-84673274D01*
X162013473Y-84460448D02*
X161898885Y-84567536D01*
X162126775Y-84351992D02*
X162013473Y-84460448D01*
X162238758Y-84242201D02*
X162126775Y-84351992D01*
X162349439Y-84131089D02*
X162238758Y-84242201D01*
X162458774Y-84018667D02*
X162349439Y-84131089D01*
X162566782Y-83904939D02*
X162458774Y-84018667D01*
X162673420Y-83789917D02*
X162566782Y-83904939D01*
X162778694Y-83673634D02*
X162673420Y-83789917D01*
X162882592Y-83556074D02*
X162778694Y-83673634D01*
X162985091Y-83437269D02*
X162882592Y-83556074D01*
X163086179Y-83317232D02*
X162985091Y-83437269D01*
X163185839Y-83195975D02*
X163086179Y-83317232D01*
X163284079Y-83073501D02*
X163185839Y-83195975D01*
X163380869Y-82949824D02*
X163284079Y-83073501D01*
X163476199Y-82824967D02*
X163380869Y-82949824D01*
X163570059Y-82698941D02*
X163476199Y-82824967D01*
X163662439Y-82571750D02*
X163570059Y-82698941D01*
X163753329Y-82443416D02*
X163662439Y-82571750D01*
X163842689Y-82313953D02*
X163753329Y-82443416D01*
X163930529Y-82183364D02*
X163842689Y-82313953D01*
X164016839Y-82051661D02*
X163930529Y-82183364D01*
X164101599Y-81918876D02*
X164016839Y-82051661D01*
X164184799Y-81784994D02*
X164101599Y-81918876D01*
X164266419Y-81650056D02*
X164184799Y-81784994D01*
X164346459Y-81514046D02*
X164266419Y-81650056D01*
X164424889Y-81377006D02*
X164346459Y-81514046D01*
X164501709Y-81238929D02*
X164424889Y-81377006D01*
X164576909Y-81099828D02*
X164501709Y-81238929D01*
X164650469Y-80959736D02*
X164576909Y-81099828D01*
X164722369Y-80818636D02*
X164650469Y-80959736D01*
X164792609Y-80676570D02*
X164722369Y-80818636D01*
X164861169Y-80533522D02*
X164792609Y-80676570D01*
X164928049Y-80389533D02*
X164861169Y-80533522D01*
X164993219Y-80244598D02*
X164928049Y-80389533D01*
X165056679Y-80098729D02*
X164993219Y-80244598D01*
X165118409Y-79951958D02*
X165056679Y-80098729D01*
X165178389Y-79804269D02*
X165118409Y-79951958D01*
X165236629Y-79655704D02*
X165178389Y-79804269D01*
X165293089Y-79506256D02*
X165236629Y-79655704D01*
X165347779Y-79355938D02*
X165293089Y-79506256D01*
X165400669Y-79204774D02*
X165347779Y-79355938D01*
X165451759Y-79052774D02*
X165400669Y-79204774D01*
X165501029Y-78899944D02*
X165451759Y-79052774D01*
X165548469Y-78746305D02*
X165501029Y-78899944D01*
X165594069Y-78591859D02*
X165548469Y-78746305D01*
X165637809Y-78436631D02*
X165594069Y-78591859D01*
X165679669Y-78280623D02*
X165637809Y-78436631D01*
X165719659Y-78123858D02*
X165679669Y-78280623D01*
X165757759Y-77966348D02*
X165719659Y-78123858D01*
X165793939Y-77808096D02*
X165757759Y-77966348D01*
X165828209Y-77649126D02*
X165793939Y-77808096D01*
X165860529Y-77489439D02*
X165828209Y-77649126D01*
X165890899Y-77329060D02*
X165860529Y-77489439D01*
X165919369Y-77168000D02*
X165890899Y-77329060D01*
X165945759Y-77006263D02*
X165919369Y-77168000D01*
X165970259Y-76843861D02*
X165945759Y-77006263D01*
X165992759Y-76680817D02*
X165970259Y-76843861D01*
X166013139Y-76517144D02*
X165992759Y-76680817D01*
X166031599Y-76352846D02*
X166013139Y-76517144D01*
X166048009Y-76187943D02*
X166031599Y-76352846D01*
X166062369Y-76022451D02*
X166048009Y-76187943D01*
X166074659Y-75856371D02*
X166062369Y-76022451D01*
X166084859Y-75689716D02*
X166074659Y-75856371D01*
X166092959Y-75522519D02*
X166084859Y-75689716D01*
X166098959Y-75354763D02*
X166092959Y-75522519D01*
X166102843Y-75186490D02*
X166098959Y-75354763D01*
X166104659Y-75017695D02*
X166102843Y-75186490D01*
X166104659Y-74961285D02*
X166104659Y-75017695D01*
M02*
