<?xml version="1.0" encoding="UTF-8" standalone="no"?>
<!-- Created with Inkscape (http://www.inkscape.org/) -->

<svg
   xmlns:dc="http://purl.org/dc/elements/1.1/"
   xmlns:cc="http://creativecommons.org/ns#"
   xmlns:rdf="http://www.w3.org/1999/02/22-rdf-syntax-ns#"
   xmlns:svg="http://www.w3.org/2000/svg"
   xmlns="http://www.w3.org/2000/svg"
   xmlns:sodipodi="http://sodipodi.sourceforge.net/DTD/sodipodi-0.dtd"
   xmlns:inkscape="http://www.inkscape.org/namespaces/inkscape"
   width="50.0mm"
   height="50.0mm"
   viewBox="0 0 50.0 50.0"
   version="1.1"
   id="svg1248"
   inkscape:version="0.92.3 (2405546, 2018-03-11)"
   sodipodi:docname="lober2.svg">
  <sodipodi:namedview
     id="base"
     pagecolor="#ffffff"
     bordercolor="#666666"
     borderopacity="1.0"
     inkscape:pageopacity="0.0"
     inkscape:pageshadow="2"
     inkscape:zoom="2.8"
     inkscape:cx="97.022829"
     inkscape:cy="45.316894"
     inkscape:document-units="mm"
     inkscape:current-layer="g1802"
     showgrid="true"
     inkscape:window-width="1197"
     inkscape:window-height="1015"
     inkscape:window-x="59"
     inkscape:window-y="31"
     inkscape:window-maximized="0"
     borderlayer="true"
     inkscape:snap-bbox="true">
    <inkscape:grid
       id="grid1794"
       units="mm"
       type="xygrid"
       empspacing="1"
       spacingy="2.54"
       spacingx="2.54" />
  </sodipodi:namedview>
  <defs
     id="defs1242" />
  <metadata
     id="metadata1245">
    <rdf:RDF>
      <cc:Work
         rdf:about="">
        <dc:format>image/svg+xml</dc:format>
        <dc:type
           rdf:resource="http://purl.org/dc/dcmitype/StillImage" />
        <dc:title></dc:title>
      </cc:Work>
    </rdf:RDF>
  </metadata>
  <g
     id="g1800"
     sodipodi:insensitive="true"
     inkscape:groupmode="layer"
     inkscape:label="[fixed] BG">
    <rect
       id="rect1798"
       style="stroke:none;fill-opacity:1;fill:#FFFFFF"
       height="50.0"
       width="50.0"
       y="0"
       x="0" />
  </g>
  <g
     id="g1802"
     inkscape:groupmode="layer"
     inkscape:label="F.Cu" />
  <g
     id="g1804"
     inkscape:groupmode="layer"
     inkscape:label="B.Cu-disabled" />
  <g
     id="g1806"
     inkscape:groupmode="layer"
     inkscape:label="B.Adhes-disabled" />
  <g
     id="g1808"
     inkscape:groupmode="layer"
     inkscape:label="F.Adhes-disabled" />
  <g
     id="g1810"
     inkscape:groupmode="layer"
     inkscape:label="B.Paste-disabled" />
  <g
     id="g1812"
     inkscape:groupmode="layer"
     inkscape:label="F.Paste-disabled" />
  <g
     id="g1814"
     inkscape:groupmode="layer"
     inkscape:label="B.SilkS-disabled" />
  <g
     id="g1816"
     inkscape:groupmode="layer"
     inkscape:label="F.SilkS-disabled" />
  <g
     id="g1818"
     inkscape:groupmode="layer"
     inkscape:label="B.Mask-disabled" />
  <g
     id="g1820"
     inkscape:groupmode="layer"
     inkscape:label="F.Mask-disabled" />
  <g
     id="g1822"
     inkscape:groupmode="layer"
     inkscape:label="Dwgs.User-disabled" />
  <g
     id="g1824"
     inkscape:groupmode="layer"
     inkscape:label="Cmts.User-disabled" />
  <g
     id="g1826"
     inkscape:groupmode="layer"
     inkscape:label="Eco1.User-disabled" />
  <g
     id="g1828"
     inkscape:groupmode="layer"
     inkscape:label="Eco2.User-disabled" />
  <g
     id="g1830"
     inkscape:groupmode="layer"
     inkscape:label="Edge.Cuts">
    <path
       d="m 0.39302982,15.795991 c 0.0012,0.04902 0.00257,0.09774 0.00415,0.146013 0.00158,0.04827 0.00337,0.09612 0.00537,0.143427 0.00201,0.0473 0.00424,0.09405 0.00672,0.140159 0.00248,0.04609 0.0052,0.09154 0.00819,0.136216 0.00299,0.04467 0.00624,0.08858 0.00978,0.131592 0.00354,0.04302 0.00736,0.08516 0.011489,0.126292 0.00413,0.04113 0.00856,0.08128 0.013327,0.120311 0.00476,0.03903 0.00985,0.07695 0.015289,0.113655 0.00985,0.06639 0.018482,0.133123 0.026193,0.200075 0.00771,0.06695 0.014499,0.134116 0.020657,0.201357 0.00616,0.06724 0.011687,0.134554 0.01688,0.201805 0.00519,0.06725 0.010049,0.134439 0.01486,0.201425 0.00481,0.06699 0.00958,0.133769 0.0146,0.200213 0.00502,0.06644 0.010287,0.132545 0.016098,0.198168 0.00581,0.06562 0.012164,0.130769 0.019354,0.195295 0.00719,0.06453 0.015215,0.128437 0.024369,0.191591 0.059035,0.407544 0.1277625,0.808737 0.2067007,1.203948 0.078938,0.395212 0.168087,0.784444 0.26796398,1.16807 0.099878,0.383625 0.2104826,0.761646 0.3323343,1.134434 0.1218517,0.372788 0.2549496,0.740344 0.3998116,1.103042 0.1448619,0.362698 0.3014878,0.720536 0.4703958,1.073892 0.168908,0.353355 0.3500977,0.702226 0.5440871,1.046984 0.1939895,0.344761 0.4007786,0.68541 0.6208855,1.022324 0.2201066,0.336912 0.453531,0.670087 0.7007905,0.999901 0.030993,0.04133 0.061822,0.0827 0.092592,0.124048 0.03077,0.04134 0.061482,0.08268 0.092239,0.123961 0.030757,0.04128 0.061561,0.08251 0.092515,0.123644 0.030955,0.04113 0.062061,0.08217 0.093423,0.123097 0.031362,0.04091 0.06298,0.0817 0.09496,0.122318 0.031979,0.04062 0.064321,0.08107 0.097127,0.121312 0.032807,0.04025 0.066079,0.08028 0.099924,0.120073 0.033844,0.0398 0.068259,0.07934 0.1033505,0.118607 0.035159,0.03932 0.06942,0.0789 0.1030349,0.118636 0.033615,0.03974 0.066585,0.07963 0.09916,0.119597 0.032576,0.03996 0.064758,0.07998 0.096799,0.119955 0.032041,0.03998 0.06394,0.07991 0.09595,0.119729 0.032011,0.03981 0.064132,0.07947 0.096616,0.118901 0.032485,0.03943 0.065333,0.07863 0.098796,0.117486 0.033463,0.03885 0.067541,0.07739 0.1024885,0.115474 0.034946,0.03809 0.070761,0.07575 0.1076947,0.112874 l 0.1070927,0.116721 0.107093,0.116718 0.107093,0.116721 0.1070928,0.116719 0.107093,0.116721 0.1070928,0.116718 0.107093,0.116721 0.107093,0.116718 c 0.033447,0.04329 0.073006,0.09115 0.1173324,0.14237 0.044327,0.05122 0.093421,0.105799 0.1459399,0.162552 0.052519,0.05675 0.108462,0.115676 0.1664859,0.175575 0.058024,0.0599 0.1181288,0.120777 0.1789708,0.181438 0.060842,0.06065 0.1224208,0.121102 0.1833935,0.180136 0.060973,0.05904 0.1213393,0.116655 0.1797556,0.171675 0.058416,0.05502 0.1148829,0.107437 0.1680556,0.156051 0.053173,0.04862 0.1030523,0.09344 0.1482945,0.133268 0.085377,0.07515 0.1715355,0.152987 0.258187,0.232706 0.086651,0.07971 0.1737969,0.161325 0.2611483,0.244002 0.087351,0.08267 0.1749086,0.166423 0.2623849,0.250433 0.087476,0.08401 0.174871,0.168286 0.2618975,0.252013 0.087026,0.08373 0.1736842,0.16691 0.2596859,0.248738 0.086001,0.08182 0.1713476,0.162292 0.2557502,0.240598 0.084402,0.07831 0.1678615,0.154446 0.25009,0.227611 0.082228,0.07316 0.1632252,0.143356 0.2427052,0.209762 0.014139,0.01183 0.027043,0.02228 0.039012,0.0318 0.01197,0.0095 0.023006,0.01802 0.03342,0.02596 0.010409,0.0079 0.02019,0.01521 0.02966,0.02228 0.0094,0.0071 0.01861,0.01389 0.02773,0.02082 0.0091,0.0069 0.01822,0.014 0.02762,0.02154 0.0094,0.0075 0.01908,0.01558 0.02935,0.02442 0.01027,0.0089 0.02115,0.0186 0.03291,0.02954 0.01177,0.01093 0.02443,0.0231 0.0383,0.03683 0.0099,0.0099 0.01946,0.01945 0.02859,0.02876 0.0091,0.0093 0.0179,0.01839 0.02644,0.02728 0.0085,0.0089 0.01684,0.01762 0.02505,0.02625 0.0082,0.0086 0.01628,0.01714 0.02438,0.02564 0.0081,0.0085 0.01623,0.01696 0.02448,0.0255 0.0083,0.0085 0.01667,0.01709 0.02534,0.02577 0.0087,0.0087 0.0176,0.01749 0.02694,0.02652 0.0093,0.009 0.01905,0.01823 0.02927,0.02771 l 0.557382,0.485063 0.557382,0.485063 0.557384,0.485064 0.557383,0.485066 0.557382,0.48506 0.557383,0.485063 0.557382,0.485066 0.557383,0.485064 c 0.13637,0.109736 0.277209,0.226671 0.421285,0.348911 0.144078,0.122243 0.291394,0.24979 0.440719,0.380757 0.149325,0.130963 0.30066,0.265342 0.452774,0.401253 0.152114,0.135909 0.305006,0.273341 0.45745,0.410414 0.152444,0.137073 0.304437,0.273783 0.454751,0.408239 0.150313,0.134453 0.298947,0.266658 0.444672,0.394719 0.145726,0.128058 0.288541,0.251976 0.427219,0.369858 0.138677,0.117885 0.273215,0.229735 0.402384,0.333661 l 0.08663,0.07829 0.08663,0.07829 0.08663,0.07829 0.08663,0.07829 0.08663,0.07829 0.08663,0.07829 0.08663,0.07829 0.08663,0.07829 c 0.09691,0.07728 0.194652,0.158904 0.292938,0.243687 0.09829,0.08479 0.197122,0.172731 0.296232,0.26266 0.0991,0.08994 0.198494,0.181845 0.297877,0.274568 0.09938,0.09273 0.198768,0.186257 0.297876,0.279422 0.0991,0.09317 0.197942,0.185959 0.296226,0.277212 0.09829,0.09125 0.196018,0.180959 0.292927,0.267943 0.09691,0.08698 0.192996,0.171249 0.287982,0.251616 0.09499,0.08037 0.188875,0.156835 0.281388,0.22823 l 0.456088,0.421447 0.456088,0.421452 0.456088,0.421447 0.456088,0.421449 0.456089,0.42145 0.456088,0.421452 0.456087,0.421447 0.456088,0.421449 c 0.04596,-0.03076 0.120172,-0.09121 0.216108,-0.174519 0.09594,-0.08331 0.213602,-0.189471 0.346481,-0.31164 0.13288,-0.122166 0.280976,-0.260336 0.437774,-0.407662 0.156797,-0.147328 0.322297,-0.30381 0.489986,-0.4626 0.167689,-0.158789 0.337567,-0.319886 0.50312,-0.47644 0.165552,-0.156557 0.326778,-0.308571 0.47717,-0.449194 0.150389,-0.140623 0.289941,-0.269859 0.412142,-0.380852 0.1222,-0.110995 0.227052,-0.203753 0.308036,-0.27142 0.02209,-0.01847 0.04293,-0.0369 0.06282,-0.05531 0.0199,-0.01842 0.03885,-0.0368 0.05721,-0.05516 0.01836,-0.01836 0.03611,-0.03669 0.0536,-0.05498 0.01749,-0.01831 0.03471,-0.03655 0.05201,-0.0548 0.01728,-0.01823 0.03466,-0.03642 0.05243,-0.05459 0.01778,-0.01815 0.03594,-0.03628 0.05486,-0.05436 0.01892,-0.01807 0.03856,-0.03612 0.05929,-0.05411 0.02074,-0.01799 0.04253,-0.03596 0.06574,-0.05386 0.08372,-0.0646 0.164925,-0.13036 0.244221,-0.197059 0.0793,-0.06671 0.156686,-0.134334 0.232757,-0.202668 0.07607,-0.06833 0.15082,-0.137367 0.22485,-0.206865 0.07403,-0.0695 0.147328,-0.139462 0.220499,-0.209656 0.07317,-0.07019 0.146211,-0.140615 0.219713,-0.211036 0.0735,-0.07042 0.147462,-0.140833 0.222482,-0.211008 0.07502,-0.07017 0.151088,-0.140108 0.228809,-0.209569 0.07772,-0.06946 0.157086,-0.138446 0.238694,-0.206721 0.0131,-0.01098 0.02495,-0.02058 0.03584,-0.02918 0.0109,-0.0086 0.02085,-0.01619 0.03017,-0.02318 0.0093,-0.007 0.01802,-0.01331 0.02641,-0.01939 0.0084,-0.0061 0.01646,-0.01191 0.0245,-0.01786 0.0081,-0.0059 0.01614,-0.01199 0.02453,-0.01852 0.0084,-0.0066 0.01709,-0.01355 0.02643,-0.02143 0.0093,-0.0079 0.01931,-0.01659 0.03024,-0.02655 0.01093,-0.0099 0.02278,-0.02114 0.03593,-0.0339 0.01236,-0.01204 0.02347,-0.02294 0.03368,-0.03299 0.01021,-0.01003 0.0195,-0.01921 0.02821,-0.02777 0.0087,-0.0085 0.0168,-0.01648 0.02463,-0.02405 0.0078,-0.0076 0.0154,-0.01474 0.02299,-0.02178 0.0076,-0.0071 0.01524,-0.01397 0.02326,-0.02101 0.008,-0.007 0.01638,-0.01418 0.02543,-0.0217 0.009,-0.0075 0.01879,-0.0154 0.02953,-0.02389 0.01074,-0.0085 0.02246,-0.0176 0.03554,-0.02755 0.0226,-0.01722 0.04408,-0.03463 0.06474,-0.05216 0.02066,-0.01751 0.04049,-0.03516 0.05976,-0.05287 0.01926,-0.01773 0.038,-0.03552 0.05645,-0.05334 0.01844,-0.01783 0.03661,-0.03572 0.05479,-0.05359 0.01818,-0.01786 0.03633,-0.03576 0.05478,-0.05359 0.01844,-0.01783 0.03716,-0.03564 0.05644,-0.05335 0.01926,-0.0177 0.0391,-0.03535 0.05975,-0.05287 0.02066,-0.01751 0.04213,-0.03492 0.06472,-0.05215 0.01304,-0.0099 0.02476,-0.01908 0.03551,-0.02756 0.01072,-0.0085 0.02045,-0.01638 0.02951,-0.02389 0.009,-0.0075 0.01741,-0.01466 0.02543,-0.02169 0.008,-0.007 0.01564,-0.01397 0.02326,-0.02101 0.0076,-0.0071 0.01516,-0.01421 0.02299,-0.02178 0.0078,-0.0076 0.01595,-0.01548 0.02466,-0.02402 0.0087,-0.0085 0.01802,-0.01773 0.02823,-0.02777 0.01021,-0.01003 0.02135,-0.02098 0.03371,-0.033 l 0.264147,-0.230569 0.264144,-0.230568 0.264146,-0.230566 0.264147,-0.230569 0.264147,-0.230568 0.264147,-0.230566 0.264144,-0.230568 0.264147,-0.230569 c 0.01318,-0.01021 0.02503,-0.01979 0.03589,-0.02886 0.01087,-0.0091 0.02074,-0.01762 0.02992,-0.02585 0.0092,-0.0082 0.01767,-0.01614 0.0258,-0.02384 0.0081,-0.0077 0.01585,-0.01524 0.02349,-0.02278 0.0077,-0.0075 0.01521,-0.01503 0.02302,-0.0227 0.0078,-0.0077 0.0158,-0.0155 0.02434,-0.02363 0.0085,-0.0081 0.01762,-0.01659 0.02754,-0.02551 0.0099,-0.0089 0.02066,-0.01834 0.03255,-0.02838 0.01416,-0.01193 0.02701,-0.02249 0.03894,-0.03205 0.01193,-0.0095 0.02289,-0.0181 0.03321,-0.02604 0.01032,-0.0079 0.02,-0.01519 0.02937,-0.02222 0.0093,-0.007 0.01839,-0.01381 0.02744,-0.02072 0.009,-0.0069 0.01804,-0.01394 0.02738,-0.02146 0.0093,-0.0075 0.01897,-0.01558 0.02922,-0.02447 0.01024,-0.0089 0.02114,-0.01871 0.03297,-0.02974 0.01183,-0.01103 0.02458,-0.02334 0.0386,-0.03726 l 0.05622,-0.04979 0.05622,-0.0498 0.05622,-0.0498 0.05622,-0.04979 0.05622,-0.0498 0.05622,-0.0498 0.05622,-0.04979 0.05622,-0.0498 c 0.01297,-0.01095 0.02471,-0.02056 0.03552,-0.02918 0.01082,-0.0086 0.02074,-0.01625 0.03003,-0.02323 0.0093,-0.007 0.01799,-0.01336 0.02638,-0.01947 0.0084,-0.0061 0.01648,-0.01196 0.02458,-0.01791 0.0081,-0.0059 0.01622,-0.01204 0.02463,-0.0186 0.0084,-0.0066 0.01717,-0.01357 0.02653,-0.02146 0.0093,-0.0079 0.01934,-0.01659 0.03027,-0.02654 0.01093,-0.0099 0.02275,-0.02109 0.03584,-0.03382 l 0.733486,-0.644663 0.733489,-0.644662 0.733486,-0.644663 0.733485,-0.644662 0.733486,-0.644663 0.733489,-0.644663 0.733486,-0.64466 0.733486,-0.644665 c 0.03847,-0.03807 0.07652,-0.07508 0.114241,-0.111336 0.03772,-0.03625 0.07512,-0.07173 0.112287,-0.106691 0.03717,-0.03497 0.07413,-0.06942 0.110966,-0.103619 0.03684,-0.0342 0.07356,-0.06816 0.11027,-0.102124 0.03671,-0.03396 0.07341,-0.06795 0.110205,-0.102206 0.03679,-0.03426 0.07368,-0.06879 0.110762,-0.103862 0.03708,-0.03507 0.07437,-0.07068 0.111953,-0.107093 0.03759,-0.03641 0.07547,-0.07362 0.113771,-0.1119 0.0731,-0.07309 0.147701,-0.145063 0.223269,-0.216339 0.07556,-0.07127 0.152104,-0.141854 0.229097,-0.212169 0.07699,-0.07032 0.154438,-0.140364 0.23182,-0.21058 0.07739,-0.07021 0.154702,-0.140591 0.231439,-0.211563 0.07674,-0.07097 0.152895,-0.142534 0.227949,-0.215122 0.07506,-0.07258 0.149016,-0.146196 0.221359,-0.221255 0.07234,-0.07506 0.143065,-0.151575 0.211656,-0.229968 0.06859,-0.07839 0.135048,-0.158668 0.198853,-0.241255 l 0.104989,-0.112911 0.104987,-0.112911 0.104989,-0.112911 0.104987,-0.112911 0.104989,-0.112911 0.104987,-0.112911 0.104986,-0.112911 0.10499,-0.112911 c 0.01894,-0.01902 0.03703,-0.03775 0.0545,-0.05626 0.01746,-0.01852 0.03431,-0.03682 0.05073,-0.05501 0.01643,-0.01818 0.03242,-0.03626 0.04823,-0.05432 0.0158,-0.01807 0.03139,-0.03609 0.04699,-0.05421 0.01558,-0.01812 0.0312,-0.0363 0.04701,-0.05466 0.0158,-0.01836 0.03184,-0.03689 0.04829,-0.05568 0.01646,-0.01879 0.03333,-0.03786 0.05083,-0.05729 0.01749,-0.01942 0.03566,-0.03921 0.05464,-0.05945 0.07586,-0.08087 0.154768,-0.169325 0.235762,-0.263652 0.08099,-0.09432 0.164068,-0.194524 0.24824,-0.298889 0.08417,-0.104365 0.169445,-0.212899 0.254834,-0.323892 0.08538,-0.110994 0.170897,-0.224449 0.25554,-0.338658 0.08465,-0.11421 0.168428,-0.229174 0.250364,-0.343188 0.08193,-0.114014 0.162034,-0.227078 0.239305,-0.337483 0.07726,-0.110406 0.151715,-0.218156 0.222356,-0.321541 0.07064,-0.103387 0.137475,-0.20241 0.199525,-0.295365 0.05983,-0.08962 0.118081,-0.179636 0.174988,-0.270074 0.05691,-0.09044 0.112461,-0.181298 0.166891,-0.272601 0.05443,-0.0913 0.10773,-0.18305 0.16012,-0.275263 0.0524,-0.09221 0.103876,-0.184891 0.154673,-0.278059 0.05079,-0.09316 0.100899,-0.186822 0.150545,-0.280988 0.04964,-0.09417 0.09881,-0.188845 0.147746,-0.284056 0.04893,-0.09521 0.09761,-0.190956 0.146265,-0.287256 0.04865,-0.0963 0.09729,-0.193156 0.146111,-0.290591 0.158562,-0.316449 0.305712,-0.645912 0.441825,-0.985756 0.136112,-0.339845 0.261191,-0.69007 0.375605,-1.048044 0.114414,-0.357973 0.218167,-0.723696 0.311637,-1.094534 0.09347,-0.370837 0.176649,-0.74679 0.249922,-1.125227 0.07327,-0.378436 0.136634,-0.759355 0.190463,-1.140124 0.05382,-0.380768 0.09812,-0.761388 0.133255,-1.139224 0.03514,-0.377838 0.06111,-0.752892 0.0783,-1.122531 0.0172,-0.369638 0.02558,-0.733861 0.02558,-1.090037 v -0.153105 -0.153081 -0.153083 -0.153082 -0.153081 -0.153082 -0.153082 -0.153082 c 0,-0.217236 -0.0086,-0.440194 -0.02474,-0.666299 -0.01617,-0.226105 -0.0399,-0.455355 -0.07019,-0.685175 -0.0303,-0.229819 -0.06716,-0.460208 -0.109577,-0.68859 -0.04243,-0.22838 -0.0904,-0.454754 -0.142905,-0.676543 C 49.288869,11.022008 49.231819,10.804803 49.17123,10.59476 49.110645,10.384717 49.046521,10.181836 48.979878,9.9886914 48.913229,9.7955471 48.84407,9.6121427 48.773394,9.4410512 48.702719,9.26996 48.63053,9.1111846 48.557841,8.9673005 48.526971,8.9062165 48.496121,8.8446904 48.465171,8.7828822 48.434221,8.7210742 48.403191,8.6589831 48.371961,8.59677 48.340731,8.534557 48.309311,8.4722206 48.277581,8.4099213 48.245861,8.3476223 48.213821,8.2853597 48.181391,8.2232937 48.148961,8.1612277 48.116111,8.0993579 48.082751,8.0378438 48.049351,7.9762938 48.015471,7.9151354 47.980977,7.8544929 47.946487,7.7938499 47.911367,7.733723 47.87552,7.6742709 47.839672,7.6148182 47.803098,7.5560413 47.765697,7.4980986 47.715889,7.4209958 47.665785,7.3436055 47.615215,7.2662019 47.564648,7.1887986 47.513612,7.1113817 47.461939,7.0342163 47.410263,6.9570505 47.35795,6.8801359 47.304819,6.8037367 47.251691,6.7273377 47.197745,6.6514539 47.142809,6.5763495 47.087877,6.5012452 47.031952,6.4269205 46.974862,6.3536399 46.917773,6.2803594 46.85952,6.2081226 46.799928,6.1371941 46.740328,6.0662651 46.6794,5.9966451 46.616953,5.9285974 46.554503,5.8605494 46.490543,5.794074 46.424892,5.7294355 c -0.02011,-0.019801 -0.03875,-0.038999 -0.05625,-0.057724 -0.01749,-0.018725 -0.03386,-0.036975 -0.04944,-0.054882 -0.01558,-0.017907 -0.03035,-0.035472 -0.04468,-0.052823 -0.01434,-0.017351 -0.02822,-0.03449 -0.04201,-0.051545 -0.01378,-0.017055 -0.02746,-0.034027 -0.04139,-0.051046 -0.01392,-0.017021 -0.0281,-0.034087 -0.04286,-0.051331 -0.01476,-0.017246 -0.0301,-0.034666 -0.0464,-0.052395 -0.0163,-0.01773 -0.0335,-0.035767 -0.052,-0.054242 C 45.969163,5.2227867 45.880654,5.1381581 45.785973,5.0509753 45.691287,4.9637927 45.590433,4.8740561 45.485049,4.7831818 45.379663,4.6923077 45.269747,4.6002957 45.156937,4.5085628 45.044126,4.4168296 44.928421,4.3253751 44.811462,4.2356154 44.694501,4.1458557 44.576285,4.0577908 44.458453,3.9728369 44.340623,3.8878829 44.223172,3.80604 44.107742,3.7287242 43.992315,3.6514084 43.878907,3.5786197 43.76916,3.5117745 43.659411,3.4449291 43.553324,3.3840271 43.452533,3.3304846 l -0.12964,-0.064718 -0.129643,-0.064718 -0.129644,-0.064718 -0.129643,-0.064718 -0.12964,-0.064718 -0.129646,-0.064718 -0.129641,-0.064718 -0.129643,-0.064718 C 42.266808,2.7378199 42.104494,2.6637215 41.930748,2.5914102 41.756999,2.5190989 41.571819,2.4485748 41.377499,2.3808031 41.183181,2.3130313 40.979722,2.2480118 40.76942,2.1867099 40.559116,2.1254078 40.34197,2.0678232 40.12027,2.014921 39.898573,1.962019 39.672325,1.9137994 39.443823,1.8712276 39.215319,1.8286556 38.98456,1.7917314 38.753838,1.7614199 38.523116,1.7311087 38.292433,1.70741 38.064082,1.6912889 c -0.228349,-0.016121 -0.454366,-0.024664 -0.675756,-0.024664 -0.122661,0 -0.247637,7.686e-4 -0.374214,0.00247 -0.126574,0.0017 -0.254749,0.00433 -0.383804,0.00805 -0.129056,0.00373 -0.25899,0.00854 -0.389089,0.014608 -0.130098,0.00606 -0.26036,0.013395 -0.390064,0.022137 -0.129707,0.00874 -0.258858,0.018901 -0.386737,0.03064 -0.127878,0.011739 -0.254484,0.025056 -0.379097,0.040114 -0.124616,0.015059 -0.24724,0.031859 -0.367155,0.050563 -0.119914,0.018704 -0.237122,0.039311 -0.350903,0.061983 -0.23562,0.046966 -0.469315,0.1008425 -0.700842,0.1613937 -0.231523,0.060551 -0.460877,0.127778 -0.687813,0.2014432 -0.226936,0.073665 -0.451453,0.1537697 -0.673304,0.2400772 -0.221853,0.086308 -0.441039,0.1788182 -0.657315,0.2772961 -0.216273,0.098478 -0.429633,0.2029231 -0.639836,0.3130999 -0.210199,0.1101764 -0.41724,0.2260846 -0.620874,0.3474882 -0.203634,0.1214036 -0.40386,0.2483027 -0.600433,0.3804617 -0.196569,0.1321589 -0.389487,0.2695773 -0.578503,0.4120197 -0.01611,0.012126 -0.03135,0.023402 -0.04597,0.034041 -0.0146,0.010639 -0.0286,0.020637 -0.04215,0.030205 -0.01355,0.00957 -0.02666,0.018706 -0.03956,0.027619 -0.01288,0.00891 -0.02556,0.017605 -0.03824,0.026281 -0.01267,0.00868 -0.02532,0.017338 -0.03816,0.026194 -0.01286,0.00885 -0.0259,0.017904 -0.03933,0.027355 -0.01344,0.00945 -0.0273,0.019304 -0.04176,0.029766 -0.01447,0.010462 -0.02954,0.021534 -0.04544,0.033425 l -0.08044,0.066779 -0.08043,0.066779 -0.08044,0.066779 -0.08043,0.066779 -0.08044,0.066779 -0.08043,0.066779 -0.08044,0.066779 -0.08043,0.066779 c -0.07599,0.06749 -0.151159,0.1358156 -0.225565,0.2049052 -0.07441,0.06909 -0.148056,0.1389436 -0.220996,0.20949 -0.07294,0.070546 -0.14518,0.1417859 -0.216768,0.2136465 -0.0716,0.07186 -0.142531,0.1443429 -0.212881,0.2173751 -0.07035,0.073032 -0.140116,0.1466143 -0.209341,0.2206752 -0.06923,0.074061 -0.137925,0.1486003 -0.206145,0.2235472 -0.06822,0.074947 -0.135961,0.1503011 -0.203287,0.2259912 -0.06732,0.07569 -0.13423,0.1517161 -0.200775,0.2280068 -0.024,0.027514 -0.04737,0.054704 -0.07024,0.081684 -0.02287,0.02698 -0.04522,0.053751 -0.06721,0.080426 -0.02198,0.026674 -0.04359,0.053253 -0.06497,0.079849 -0.02137,0.026597 -0.0425,0.05321 -0.06352,0.079956 -0.02102,0.026745 -0.04194,0.053623 -0.06286,0.080744 -0.02093,0.027122 -0.04189,0.05449 -0.06299,0.082217 -0.02112,0.027728 -0.04238,0.055813 -0.06393,0.084372 -0.02155,0.028559 -0.04339,0.057592 -0.06565,0.087209 -0.02239,0.029821 -0.05283,0.070747 -0.08907,0.1200002 -0.03624,0.049254 -0.07828,0.1068361 -0.12385,0.1699707 -0.04558,0.063135 -0.0947,0.1318228 -0.145109,0.2032876 -0.05041,0.071465 -0.102109,0.1457068 -0.152844,0.2199502 -0.05073,0.074243 -0.100505,0.1484884 -0.147057,0.219959 -0.04655,0.071471 -0.08988,0.1401675 -0.127746,0.2033143 -0.03787,0.063147 -0.07025,0.1207437 -0.09492,0.1700154 -0.02465,0.049271 -0.0416,0.090218 -0.04855,0.1200629 h -0.01179 -0.01179 -0.01179 -0.01179 -0.01179 -0.01179 -0.01179 -0.01179 c -0.0054,-0.02373 -0.01456,-0.049983 -0.02637,-0.078082 -0.01182,-0.0281 -0.0264,-0.058045 -0.04301,-0.089156 -0.01661,-0.031111 -0.03523,-0.06339 -0.05513,-0.096155 -0.0199,-0.032766 -0.04106,-0.066019 -0.06274,-0.09908 -0.02168,-0.033061 -0.04388,-0.06593 -0.06584,-0.097928 -0.02196,-0.031997 -0.04368,-0.063126 -0.06443,-0.092702 -0.02074,-0.029576 -0.04049,-0.057604 -0.0585,-0.083401 -0.01801,-0.025797 -0.03428,-0.049365 -0.04806,-0.070025 C 24.491914,8.0032691 24.418909,7.8971445 24.349481,7.7991042 24.280052,7.7010642 24.214202,7.6111077 24.150832,7.5269985 24.087458,7.4428893 24.026573,7.3646266 23.967071,7.2899736 23.907563,7.2153209 23.849453,7.1442782 23.791629,7.0746076 23.733808,7.0049375 23.67627,6.9366398 23.617933,6.8674772 23.55959,6.7983154 23.500454,6.7282884 23.439413,6.6551599 23.378369,6.5820312 23.315433,6.5058013 23.249499,6.4242324 23.183565,6.3426637 23.114636,6.2557558 23.041617,6.161272 23.003767,6.112312 22.962847,6.063161 22.919478,6.0139583 22.876118,5.9647553 22.830318,5.9155033 22.782726,5.8663444 22.735126,5.8171844 22.685756,5.7681174 22.635227,5.7192861 22.584697,5.6704541 22.533026,5.6218581 22.480851,5.573639 22.428681,5.52542 22.375998,5.477579 22.323465,5.4302587 22.270925,5.3829377 22.21854,5.3361377 22.166937,5.2900004 22.115337,5.2438634 22.064518,5.1983894 22.015135,5.1537199 21.965745,5.1090509 21.917795,5.0651879 21.871927,5.022273 21.822727,4.976238 21.772317,4.930956 21.72095,4.8863195 21.669576,4.8416825 21.617232,4.7976915 21.564151,4.7542411 21.51107,4.7107912 21.457249,4.6678816 21.402914,4.6254094 21.348579,4.5829372 21.29373,4.5409012 21.238593,4.4991976 21.183456,4.4574937 21.128031,4.4161224 21.072544,4.3749784 21.017057,4.3338341 20.961509,4.2929178 20.906124,4.2521244 20.850732,4.2113285 20.795511,4.1706584 20.74068,4.1300069 20.68585,4.0893553 20.631409,4.0487224 20.577585,4.0080036 20.480682,3.9346954 20.374088,3.8595004 20.260051,3.7834719 20.146013,3.7074435 20.024532,3.6305819 19.897854,3.5539404 19.771178,3.477299 19.639305,3.4008779 19.504485,3.3257307 19.369665,3.2505835 19.231897,3.1767101 19.09343,3.1051643 18.954964,3.0336184 18.815796,2.9644 18.678179,2.8985628 18.540561,2.8327256 18.404492,2.7702694 18.27222,2.7122479 18.139946,2.6542265 18.011471,2.6006396 17.88904,2.5525411 17.766609,2.5044426 17.650221,2.4618325 17.542128,2.4257642 17.314928,2.3499421 17.099158,2.2812139 16.891709,2.218991 16.684262,2.156768 16.485138,2.1010502 16.29123,2.0512489 16.097323,2.0014474 15.908633,1.9575624 15.722053,1.919005 15.535475,1.8804476 15.351007,1.8472179 15.165544,1.818727 c -0.185462,-0.028491 -0.37192,-0.052242 -0.562479,-0.071845 -0.190558,-0.019602 -0.385216,-0.035054 -0.587082,-0.046944 -0.201867,-0.011891 -0.410939,-0.020219 -0.630325,-0.025575 -0.219386,-0.00535 -0.449084,-0.00773 -0.692202,-0.00773 -0.217868,0 -0.44133,0.00852 -0.667837,0.024575 -0.226505,0.016054 -0.456053,0.039641 -0.686089,0.069775 -0.230036,0.030134 -0.46056,0.066812 -0.689019,0.1090505 -0.228459,0.042238 -0.454852,0.090035 -0.6766256,0.1424025 C 9.7521119,2.0647923 9.5349585,2.1217315 9.3249789,2.1822548 9.1149992,2.2427781 8.9121931,2.3068854 8.7191148,2.3735894 8.5260364,2.4402933 8.342686,2.509594 8.171617,2.5805039 8.0005482,2.651414 7.8417609,2.7239332 7.6978093,2.7970746 7.5081867,2.8934249 7.3285963,2.9854007 7.1570055,3.0750222 6.985415,3.1646438 6.8218237,3.2519112 6.6641997,3.3388448 6.5065758,3.4257783 6.3549188,3.5123781 6.2071961,3.6006642 6.0594734,3.6889502 5.9156853,3.7789231 5.7737988,3.8726025 5.6319125,3.9662815 5.4919278,4.0636682 5.3518124,4.1667817 5.2116973,4.2698951 5.0714509,4.3787357 4.9290413,4.4953238 4.7866317,4.6119119 4.6420586,4.7362473 4.4932895,4.8703506 4.3445207,5.0044539 4.1915552,5.148325 4.0323615,5.3039842 c -0.048237,0.047169 -0.095411,0.095038 -0.1416941,0.1435184 -0.046283,0.048481 -0.091674,0.097573 -0.1363417,0.1471869 -0.044668,0.049614 -0.088614,0.09975 -0.1320083,0.150318 -0.043394,0.050569 -0.086234,0.1015688 -0.1286928,0.1529123 -0.042459,0.051344 -0.084534,0.1030292 -0.1263962,0.1549685 -0.041863,0.051939 -0.083512,0.1041321 -0.1251188,0.1564884 -0.041606,0.052356 -0.08317,0.104876 -0.1248595,0.1574702 -0.04169,0.052594 -0.083506,0.1052626 -0.1256189,0.1579152 -0.043332,0.054146 -0.085861,0.1087316 -0.127673,0.1637475 -0.041812,0.055015 -0.082906,0.1104611 -0.1233674,0.1663279 -0.040462,0.055867 -0.080291,0.1121545 -0.1195729,0.1688542 -0.039282,0.0567 -0.078016,0.1138108 -0.1162888,0.1713246 C 2.4664571,7.2525303 2.4286461,7.3104466 2.391213,7.3687565 2.35378,7.4270665 2.316724,7.4857695 2.2799594,7.5448573 2.2431954,7.6039453 2.2067224,7.6634166 2.1704571,7.7232635 2.1341911,7.7831105 2.0981331,7.8433322 2.0621954,7.90392 1.9388714,8.1118269 1.8202976,8.3268942 1.7072135,8.5485204 1.5941295,8.7701465 1.486535,8.9983311 1.3851696,9.2324733 1.2838043,9.466615 1.1886678,9.7067127 1.1004999,9.9521667 1.0123319,10.19762 0.93113232,10.448428 0.85764042,10.703991 c -0.073492,0.255562 -0.1392758,0.515876 -0.1966128,0.780343 -0.057337,0.264467 -0.1062268,0.533086 -0.1459302,0.805253 -0.039703,0.272167 -0.07022,0.547885 -0.090811,0.82655 -0.020591,0.278666 -0.031256,0.560278 -0.031256,0.84424 v 0.229452 0.22945 0.229453 0.229452 0.22945 0.229454 0.229451 z"
       style="display:inline;fill:none;fill-rule:evenodd;stroke:#000000;stroke-width:0.3177124;stroke-opacity:1"
       id="path1125"
       inkscape:connector-curvature="0"
       sodipodi:nodetypes="cssssssscssssssscssssssscssssssscssssssscccccccccssssssscssssssscssssssscssssssscccccccccssssssscccccccccssssssscccccccccssssssscssssssscssssssscssssssscssssssscssssssscssssssscccccccccssssssscssssssscccccccccssssssscccccccccssssssscssssssscccccccccssssssscssssssscssssssscsssssssscccccccsssssssscssssssscssssssscssssssscssssssscccccccccssssssssssssssscssssssscssssssscccccccccssssssscssssssscssssssscccccccccssssssscssssssscssssssscssssssscssssssscssssssssssssssscssssssscssssssscssssssscsssssssscccccccc" />
  </g>
  <g
     id="g1832"
     inkscape:groupmode="layer"
     inkscape:label="Margin-disabled" />
  <g
     id="g1834"
     inkscape:groupmode="layer"
     inkscape:label="B.CrtYd-disabled" />
  <g
     id="g1836"
     inkscape:groupmode="layer"
     inkscape:label="F.CrtYd-disabled" />
  <g
     id="g1838"
     inkscape:groupmode="layer"
     inkscape:label="B.Fab-disabled" />
  <g
     id="g1840"
     inkscape:groupmode="layer"
     inkscape:label="F.Fab-disabled" />
  <g
     id="g1842"
     inkscape:groupmode="layer"
     inkscape:label="Drill" />
</svg>
