G04 #@! TF.GenerationSoftware,KiCad,Pcbnew,5.1.4-e60b266~84~ubuntu18.04.1*
G04 #@! TF.CreationDate,2019-10-14T19:22:29-06:00*
G04 #@! TF.ProjectId,001,3030312e-6b69-4636-9164-5f7063625858,rev?*
G04 #@! TF.SameCoordinates,Original*
G04 #@! TF.FileFunction,Soldermask,Bot*
G04 #@! TF.FilePolarity,Negative*
%FSLAX46Y46*%
G04 Gerber Fmt 4.6, Leading zero omitted, Abs format (unit mm)*
G04 Created by KiCad (PCBNEW 5.1.4-e60b266~84~ubuntu18.04.1) date 2019-10-14 19:22:29*
%MOMM*%
%LPD*%
G04 APERTURE LIST*
%ADD10C,0.100000*%
%ADD11C,0.010000*%
G04 APERTURE END LIST*
D10*
G36*
X158197799Y-137352371D02*
G01*
X158192599Y-137317921D01*
X158190899Y-137278301D01*
X158070320Y-137068149D01*
X157906678Y-136895894D01*
X157882568Y-136871774D01*
X157863618Y-136845934D01*
X157841228Y-136825264D01*
X157810218Y-136811484D01*
X157706866Y-136720184D01*
X157581120Y-136640944D01*
X157450206Y-136563434D01*
X157329628Y-136477304D01*
X157300348Y-136485904D01*
X157276228Y-136484204D01*
X157236608Y-136530714D01*
X157184928Y-136556554D01*
X157134978Y-136587564D01*
X157098808Y-136635794D01*
X157110868Y-136644394D01*
X157105668Y-136663344D01*
X157102268Y-136682294D01*
X157117768Y-136690894D01*
X157105708Y-136702954D01*
X157093648Y-136715014D01*
X157098848Y-136732234D01*
X157098848Y-136751184D01*
X157191868Y-136804584D01*
X157298666Y-136856264D01*
X157412354Y-136916554D01*
X157526042Y-136988904D01*
X157641453Y-137080204D01*
X157751696Y-137187003D01*
X157851606Y-137302414D01*
X157930846Y-137417825D01*
X157922246Y-137433325D01*
X157911916Y-137448825D01*
X157789615Y-137448825D01*
X157675927Y-137455725D01*
X157667327Y-137441945D01*
X157656987Y-137429885D01*
X157438223Y-137391985D01*
X157231517Y-137336865D01*
X157286637Y-137317915D01*
X157286637Y-137300685D01*
X157267687Y-137283465D01*
X157314197Y-137242125D01*
X157334867Y-137174945D01*
X157322807Y-137150834D01*
X157334867Y-137128444D01*
X157345207Y-137128444D01*
X157348607Y-137135344D01*
X157352007Y-137142244D01*
X157360607Y-137142244D01*
X157352007Y-137111234D01*
X157341667Y-137081954D01*
X157198696Y-136987214D01*
X157143576Y-137023384D01*
X157074676Y-137061284D01*
X157000606Y-137100904D01*
X156929986Y-137138804D01*
X156876586Y-137173255D01*
X156833526Y-137214595D01*
X156792186Y-137255935D01*
X156742236Y-137290384D01*
X156738836Y-137335175D01*
X156735436Y-137376515D01*
X156814676Y-137476425D01*
X156919751Y-137545325D01*
X157042052Y-137595275D01*
X157176411Y-137633175D01*
X157315937Y-137671075D01*
X157452018Y-137715865D01*
X157501968Y-137717565D01*
X157541588Y-137722765D01*
X157579488Y-137729665D01*
X157620828Y-137734865D01*
X157632888Y-137738265D01*
X157639788Y-137746865D01*
X157701798Y-137752065D01*
X157748308Y-137752065D01*
X157798258Y-137758965D01*
X157846488Y-137764165D01*
X158089367Y-137653922D01*
X158185827Y-137369701D01*
X158189227Y-137359371D01*
X158197827Y-137352471D01*
X158197799Y-137352371D01*
X158197799Y-137352371D01*
G37*
G36*
X156662664Y-137620743D02*
G01*
X156239093Y-137011105D01*
X156268373Y-137090345D01*
X156116789Y-137050725D01*
X155966927Y-136988715D01*
X156011717Y-136887085D01*
X156087507Y-136833685D01*
X156087513Y-136833685D01*
X156137463Y-136893975D01*
X156192583Y-136949095D01*
X156239093Y-137011105D01*
X156662664Y-137620743D01*
X156678164Y-137608683D01*
X156693664Y-137579403D01*
X156674714Y-137579403D01*
X156681614Y-137510503D01*
X156666114Y-137448493D01*
X156652334Y-137389923D01*
X156657534Y-137329633D01*
X156645474Y-137326233D01*
X156638574Y-137302113D01*
X156636874Y-137271103D01*
X156638574Y-137243543D01*
X156604124Y-137133299D01*
X156580004Y-137021334D01*
X156557614Y-136912813D01*
X156523164Y-136812903D01*
X156473214Y-136819803D01*
X156437044Y-136842193D01*
X156342304Y-136742283D01*
X156259624Y-136628595D01*
X156163164Y-136528685D01*
X156030527Y-136477005D01*
X155937507Y-136540735D01*
X155853097Y-136623415D01*
X155827257Y-136642365D01*
X155799697Y-136659595D01*
X155799697Y-136685435D01*
X155760077Y-136738835D01*
X155730797Y-136802565D01*
X155704957Y-136869745D01*
X155677397Y-136933475D01*
X155680797Y-136952425D01*
X155677397Y-136967925D01*
X155672197Y-136985145D01*
X155670497Y-137007535D01*
X155730787Y-137155674D01*
X155858256Y-137246975D01*
X156016730Y-137307265D01*
X156170037Y-137360665D01*
X156163137Y-137367565D01*
X156157937Y-137377895D01*
X156078697Y-137427845D01*
X156025297Y-137460575D01*
X155970177Y-137481245D01*
X155885767Y-137501915D01*
X155803087Y-137522585D01*
X155747967Y-137534645D01*
X155696287Y-137541545D01*
X155622217Y-137550145D01*
X155591207Y-137594935D01*
X155573977Y-137646615D01*
X155572277Y-137696565D01*
X155586057Y-137732735D01*
X155577457Y-137739635D01*
X155560237Y-137739635D01*
X155580907Y-137760305D01*
X155598137Y-137784425D01*
X155618807Y-137806815D01*
X155646367Y-137818875D01*
X155804842Y-137820575D01*
X156051166Y-137741335D01*
X156171744Y-137691385D01*
X156252704Y-137648325D01*
X156316434Y-137601815D01*
X156383614Y-137541525D01*
X156390514Y-137548425D01*
X156395714Y-137555325D01*
X156423274Y-137667289D01*
X156474954Y-137755140D01*
X156512854Y-137760340D01*
X156535244Y-137779290D01*
X156561084Y-137777590D01*
X156576584Y-137768990D01*
X156592084Y-137758650D01*
X156619644Y-137755250D01*
X156629984Y-137725970D01*
X156657544Y-137712190D01*
X156654144Y-137686350D01*
X156659344Y-137665679D01*
X156666244Y-137645010D01*
X156662844Y-137620890D01*
X156662664Y-137620743D01*
X156662664Y-137620743D01*
G37*
G36*
X154609386Y-136799087D02*
G01*
X154609386Y-136818037D01*
X154611086Y-136828367D01*
X154611086Y-136840427D01*
X154607686Y-136857657D01*
X154692096Y-136938617D01*
X154793726Y-136969627D01*
X154907414Y-136988577D01*
X155021102Y-137033367D01*
X155062442Y-137033367D01*
X155114122Y-137038567D01*
X155139962Y-137054067D01*
X155170972Y-137062667D01*
X155165772Y-137095398D01*
X155160572Y-137121237D01*
X155027935Y-137119537D01*
X154883241Y-137110937D01*
X154884941Y-137122997D01*
X154886641Y-137131597D01*
X154862521Y-137153987D01*
X154838401Y-137178108D01*
X154814281Y-137198778D01*
X154783271Y-137203978D01*
X154774671Y-137234988D01*
X154778071Y-137267718D01*
X154833191Y-137307338D01*
X154891761Y-137341788D01*
X154955491Y-137367628D01*
X155029561Y-137374528D01*
X155043341Y-137374528D01*
X155053681Y-137369328D01*
X155093301Y-137374528D01*
X155131201Y-137379728D01*
X155177711Y-137372828D01*
X155224221Y-137365928D01*
X155274171Y-137443438D01*
X155313791Y-137531288D01*
X155217331Y-137538188D01*
X155143261Y-137532988D01*
X155072641Y-137524388D01*
X154981341Y-137520988D01*
X154900381Y-137496868D01*
X154812531Y-137476198D01*
X154788411Y-137495148D01*
X154769461Y-137519268D01*
X154748791Y-137538218D01*
X154722951Y-137545118D01*
X154714351Y-137562348D01*
X154709151Y-137579568D01*
X154703951Y-137595068D01*
X154688451Y-137598468D01*
X154748741Y-137686318D01*
X154824531Y-137731108D01*
X154920991Y-137755218D01*
X155036402Y-137775888D01*
X155062242Y-137774188D01*
X155086362Y-137770788D01*
X155181102Y-137786288D01*
X155293068Y-137791488D01*
X155401588Y-137775988D01*
X155485988Y-137731198D01*
X155504938Y-137703638D01*
X155527328Y-137677798D01*
X155534228Y-137627848D01*
X155544558Y-137571008D01*
X155553158Y-137510718D01*
X155549758Y-137457318D01*
X155529088Y-137410808D01*
X155517028Y-137366018D01*
X155506688Y-137357418D01*
X155492908Y-137350518D01*
X155470518Y-137291948D01*
X155446398Y-137238548D01*
X155420558Y-137186868D01*
X155394718Y-137126577D01*
X155430888Y-137078347D01*
X155446388Y-137024947D01*
X155454988Y-136969827D01*
X155467048Y-136911257D01*
X155425708Y-136869917D01*
X155370588Y-136842357D01*
X155306848Y-136825127D01*
X155234498Y-136809627D01*
X155112197Y-136775177D01*
X155005399Y-136756227D01*
X154895156Y-136740727D01*
X154765965Y-136720057D01*
X154736685Y-136735557D01*
X154721185Y-136726957D01*
X154712585Y-136716627D01*
X154669525Y-136766577D01*
X154609235Y-136799307D01*
X154609386Y-136799087D01*
X154609386Y-136799087D01*
G37*
G36*
X154099512Y-137317575D02*
G01*
X154120182Y-137343415D01*
X154137412Y-137372695D01*
X154156362Y-137408865D01*
X154182202Y-137439875D01*
X154199432Y-137481215D01*
X154226992Y-137513945D01*
X154307952Y-137663807D01*
X154318292Y-137694817D01*
X154333792Y-137722377D01*
X154340692Y-137734437D01*
X154345892Y-137743037D01*
X154349292Y-137760267D01*
X154368242Y-137784387D01*
X154387192Y-137803337D01*
X154399252Y-137817117D01*
X154425092Y-137827447D01*
X154578398Y-137693089D01*
X154576698Y-137675859D01*
X154571498Y-137658639D01*
X154564598Y-137637969D01*
X154549098Y-137589739D01*
X154519818Y-137546679D01*
X154504318Y-137508779D01*
X154462978Y-137427819D01*
X154425078Y-137362359D01*
X154402688Y-137324459D01*
X154444028Y-137274509D01*
X154483648Y-137191829D01*
X154507768Y-137121208D01*
X154512968Y-137083308D01*
X154519868Y-137050578D01*
X154528468Y-137012678D01*
X154531868Y-136973058D01*
X154542198Y-136948938D01*
X154538798Y-136931708D01*
X154537098Y-136900698D01*
X154545698Y-136859358D01*
X154554298Y-136821458D01*
X154555998Y-136780118D01*
X154545658Y-136742218D01*
X154512928Y-136709488D01*
X154483648Y-136707788D01*
X154454368Y-136725018D01*
X154425088Y-136740518D01*
X154388918Y-136757748D01*
X154352748Y-136780138D01*
X154340688Y-136804258D01*
X154318298Y-136823208D01*
X154318298Y-136842158D01*
X154316598Y-136861108D01*
X154309698Y-136888668D01*
X154302798Y-136909339D01*
X154297598Y-136955848D01*
X154287268Y-136995468D01*
X154276938Y-137035088D01*
X154275238Y-137079878D01*
X154258008Y-137067818D01*
X154251108Y-137062618D01*
X154244208Y-137057418D01*
X154142578Y-136919614D01*
X154145978Y-136902384D01*
X154109808Y-136867934D01*
X154083968Y-136842094D01*
X154061578Y-136816254D01*
X154042628Y-136802474D01*
X153885876Y-136695676D01*
X153861756Y-136692276D01*
X153854856Y-136714666D01*
X153827296Y-136749116D01*
X153780786Y-136778396D01*
X153765286Y-136788736D01*
X153756686Y-136814576D01*
X153758386Y-136830076D01*
X153751486Y-136847306D01*
X153785936Y-136907596D01*
X153823836Y-136942046D01*
X153853116Y-136967886D01*
X153872066Y-136995446D01*
X153884126Y-137009226D01*
X153930636Y-137064346D01*
X153935836Y-137085016D01*
X153956506Y-137085016D01*
X153965106Y-137091916D01*
X153982336Y-137121196D01*
X153999556Y-137143586D01*
X154008156Y-137152187D01*
X154013356Y-137165967D01*
X154018556Y-137179747D01*
X154046116Y-137214197D01*
X154058176Y-137238317D01*
X154071956Y-137265877D01*
X154090906Y-137291717D01*
X154099512Y-137317575D01*
X154099512Y-137317575D01*
G37*
G36*
X153591360Y-137455379D02*
G01*
X153613750Y-137474329D01*
X153627530Y-137503609D01*
X153639590Y-137532889D01*
X153656820Y-137544949D01*
X153667150Y-137569069D01*
X153680930Y-137591459D01*
X153691260Y-137615579D01*
X153687860Y-137644859D01*
X153705080Y-137674139D01*
X153713680Y-137710309D01*
X153727460Y-137739589D01*
X153765360Y-137749929D01*
X153767060Y-137758529D01*
X153761860Y-137770589D01*
X153791140Y-137772289D01*
X153813530Y-137780889D01*
X153868650Y-137744719D01*
X153906550Y-137687879D01*
X153935830Y-137622419D01*
X153959950Y-137565579D01*
X153958250Y-137529409D01*
X153970310Y-137498399D01*
X153948970Y-137453239D01*
X153927140Y-137407319D01*
X153904830Y-137360649D01*
X153882030Y-137313229D01*
X153858750Y-137265049D01*
X153834980Y-137216119D01*
X153810730Y-137166429D01*
X153785990Y-137115988D01*
X153761170Y-137065248D01*
X153736680Y-137014678D01*
X153712510Y-136964268D01*
X153688660Y-136914018D01*
X153665140Y-136863928D01*
X153641940Y-136813998D01*
X153619060Y-136764228D01*
X153596510Y-136714628D01*
X153519000Y-136750798D01*
X153448380Y-136795588D01*
X153393260Y-136855878D01*
X153363980Y-136929948D01*
X153372580Y-136938548D01*
X153379480Y-136940248D01*
X153372580Y-136952308D01*
X153372580Y-136959208D01*
X153372580Y-136969548D01*
X153367380Y-136985048D01*
X153377710Y-136986748D01*
X153388050Y-136986748D01*
X153384650Y-137017758D01*
X153391550Y-137040148D01*
X153400150Y-137060818D01*
X153398450Y-137088378D01*
X153407050Y-137091778D01*
X153410450Y-137096979D01*
X153415650Y-137102178D01*
X153422550Y-137102178D01*
X153419150Y-137177969D01*
X153422550Y-137255479D01*
X153420850Y-137336439D01*
X153408790Y-137422569D01*
X153310610Y-137329549D01*
X153250320Y-137202080D01*
X153214150Y-137050495D01*
X153188310Y-136885130D01*
X153164190Y-136847230D01*
X153148690Y-136800720D01*
X153134910Y-136750770D01*
X153117680Y-136704260D01*
X153074620Y-136721490D01*
X153040170Y-136749050D01*
X153007440Y-136776610D01*
X152964380Y-136792110D01*
X152926480Y-136848950D01*
X152904090Y-136907520D01*
X152917870Y-136938530D01*
X152926470Y-136972980D01*
X152940250Y-137005710D01*
X152964370Y-137029830D01*
X152978150Y-137112510D01*
X152993650Y-137184861D01*
X153005710Y-137260651D01*
X153009110Y-137345051D01*
X153038390Y-137429451D01*
X153062510Y-137510411D01*
X153105570Y-137563811D01*
X153138300Y-137625821D01*
X153146900Y-137629221D01*
X153158960Y-137624021D01*
X153158960Y-137634361D01*
X153164160Y-137641261D01*
X153167560Y-137648161D01*
X153164160Y-137661941D01*
X153207220Y-137691221D01*
X153248560Y-137725671D01*
X153300240Y-137746341D01*
X153377750Y-137734281D01*
X153503496Y-137615425D01*
X153591346Y-137455228D01*
X153591360Y-137455379D01*
X153591360Y-137455379D01*
G37*
G36*
X152037622Y-137624189D02*
G01*
X152535438Y-137326188D01*
X152442418Y-137319288D01*
X152347678Y-137303788D01*
X152373518Y-137196990D01*
X152402798Y-137085023D01*
X152413128Y-137102253D01*
X152480308Y-137183214D01*
X152533708Y-137267624D01*
X152554378Y-137298634D01*
X152573328Y-137329644D01*
X152554378Y-137327944D01*
X152535428Y-137326244D01*
X152535438Y-137326188D01*
X152037622Y-137624189D01*
X152068632Y-137684479D01*
X152115142Y-137737879D01*
X152173712Y-137775779D01*
X152242612Y-137793009D01*
X152273622Y-137780949D01*
X152289122Y-137770619D01*
X152299462Y-137765419D01*
X152306362Y-137760219D01*
X152327032Y-137751619D01*
X152320132Y-137729229D01*
X152321832Y-137708559D01*
X152342502Y-137686169D01*
X152352842Y-137675829D01*
X152361442Y-137665498D01*
X152390722Y-137632769D01*
X152344212Y-137620709D01*
X152287362Y-137589699D01*
X152275302Y-137525959D01*
X152333872Y-137524259D01*
X152380382Y-137536319D01*
X152444112Y-137551819D01*
X152513012Y-137557019D01*
X152538852Y-137557019D01*
X152564692Y-137553619D01*
X152581912Y-137550219D01*
X152588812Y-137529549D01*
X152595712Y-137522649D01*
X152614662Y-137500259D01*
X152618062Y-137462359D01*
X152628392Y-137431349D01*
X152643892Y-137474409D01*
X152650792Y-137491639D01*
X152668022Y-137495039D01*
X152673222Y-137503639D01*
X152674922Y-137512239D01*
X152683522Y-137541519D01*
X152690422Y-137548419D01*
X152697322Y-137553619D01*
X152705922Y-137584629D01*
X152716262Y-137613909D01*
X152731762Y-137658699D01*
X152735162Y-137700039D01*
X152742062Y-137718989D01*
X152761012Y-137736219D01*
X152781682Y-137746549D01*
X152792022Y-137753449D01*
X152800622Y-137756849D01*
X152805822Y-137775799D01*
X152826492Y-137779199D01*
X152854052Y-137784399D01*
X152871282Y-137786099D01*
X152888512Y-137784399D01*
X152917792Y-137760279D01*
X152941912Y-137741329D01*
X152959132Y-137710319D01*
X152962532Y-137691369D01*
X152965932Y-137674139D01*
X152971132Y-137663809D01*
X152993522Y-137643139D01*
X152974572Y-137627639D01*
X152972872Y-137598359D01*
X152900522Y-137429550D01*
X152819562Y-137264185D01*
X152793722Y-137209065D01*
X152766162Y-137153944D01*
X152767862Y-137141884D01*
X152764462Y-137126384D01*
X152733452Y-137074704D01*
X152709332Y-137026474D01*
X152681772Y-136969634D01*
X152643872Y-136912794D01*
X152616312Y-136900735D01*
X152604252Y-136897334D01*
X152588752Y-136893934D01*
X152562912Y-136897334D01*
X152478512Y-136835324D01*
X152404442Y-136737134D01*
X152387212Y-136713024D01*
X152364822Y-136726804D01*
X152340702Y-136737134D01*
X152307972Y-136745734D01*
X152249402Y-136761234D01*
X152204612Y-136787074D01*
X152192552Y-136828414D01*
X152187352Y-136855974D01*
X152178752Y-136914544D01*
X152171852Y-136980004D01*
X152158072Y-137038574D01*
X152146012Y-137095414D01*
X152128792Y-137176375D01*
X152106402Y-137248725D01*
X152089172Y-137250425D01*
X152071952Y-137245225D01*
X152049562Y-137241825D01*
X152030612Y-137240125D01*
X152023712Y-137257355D01*
X152006482Y-137274585D01*
X151973752Y-137284925D01*
X151954802Y-137300425D01*
X151941022Y-137310765D01*
X151915182Y-137321095D01*
X151928962Y-137346935D01*
X151978912Y-137407225D01*
X152049532Y-137453735D01*
X152047832Y-137474405D01*
X152042632Y-137493355D01*
X152034032Y-137553645D01*
X152034032Y-137617375D01*
X152037622Y-137624189D01*
X152037622Y-137624189D01*
G37*
G36*
X150700924Y-137458824D02*
G01*
X150809445Y-137574235D01*
X150957584Y-137641415D01*
X151128116Y-137687925D01*
X151298649Y-137741325D01*
X151341709Y-137743025D01*
X151376159Y-137748225D01*
X151407169Y-137753425D01*
X151441619Y-137756825D01*
X151450219Y-137760225D01*
X151455419Y-137767125D01*
X151508819Y-137772325D01*
X151546719Y-137772325D01*
X151589779Y-137777525D01*
X151627679Y-137782725D01*
X151830940Y-137691425D01*
X151911900Y-137453713D01*
X151915300Y-137443383D01*
X151922200Y-137438183D01*
X151918800Y-137408903D01*
X151917100Y-137377893D01*
X151815470Y-137202193D01*
X151679389Y-137057498D01*
X151658719Y-137036828D01*
X151643219Y-137016158D01*
X151624269Y-136998928D01*
X151598429Y-136986868D01*
X151512299Y-136911078D01*
X151407224Y-136845618D01*
X151298704Y-136781888D01*
X151198794Y-136709538D01*
X151171234Y-136714738D01*
X151152284Y-136714738D01*
X151119554Y-136750908D01*
X151076494Y-136773298D01*
X151035154Y-136799138D01*
X151005874Y-136840478D01*
X151016214Y-136849078D01*
X151011014Y-136864578D01*
X151009314Y-136880078D01*
X151021374Y-136886978D01*
X151011044Y-136897318D01*
X151000704Y-136905918D01*
X151005904Y-136919698D01*
X151005904Y-136936928D01*
X151083424Y-136979988D01*
X151171274Y-137024778D01*
X151266014Y-137074728D01*
X151360754Y-137135018D01*
X151455494Y-137212539D01*
X151548514Y-137300389D01*
X151632924Y-137396849D01*
X151700104Y-137493309D01*
X151693204Y-137507089D01*
X151684604Y-137519149D01*
X151582974Y-137519149D01*
X151486514Y-137524349D01*
X151479614Y-137514009D01*
X151471014Y-137503669D01*
X151288424Y-137472659D01*
X151116169Y-137426149D01*
X151142009Y-137417549D01*
X151162679Y-137408949D01*
X151162679Y-137395169D01*
X151145449Y-137381389D01*
X151185069Y-137346939D01*
X151202299Y-137291819D01*
X151191969Y-137271149D01*
X151202299Y-137252199D01*
X151210899Y-137252199D01*
X151214299Y-137257399D01*
X151215999Y-137264299D01*
X151224599Y-137262599D01*
X151217699Y-137236759D01*
X151207359Y-137212649D01*
X151088504Y-137133408D01*
X151041994Y-137164419D01*
X150985154Y-137197149D01*
X150923144Y-137229879D01*
X150862854Y-137260889D01*
X150819794Y-137288449D01*
X150783624Y-137324619D01*
X150749174Y-137359069D01*
X150706114Y-137388349D01*
X150704414Y-137424519D01*
X150701014Y-137458969D01*
X150700924Y-137458824D01*
X150700924Y-137458824D01*
G37*
G36*
X149772623Y-137612496D02*
G01*
X150266839Y-137307681D01*
X150173819Y-137300781D01*
X150079079Y-137285280D01*
X150104919Y-137178483D01*
X150134199Y-137066516D01*
X150144539Y-137083746D01*
X150211719Y-137164707D01*
X150265119Y-137249117D01*
X150285789Y-137280127D01*
X150304739Y-137311137D01*
X150285789Y-137309437D01*
X150266839Y-137307737D01*
X150266839Y-137307681D01*
X149772623Y-137612496D01*
X149803633Y-137672786D01*
X149850143Y-137726186D01*
X149908713Y-137764086D01*
X149977613Y-137781316D01*
X150008623Y-137769256D01*
X150024123Y-137758926D01*
X150034463Y-137753726D01*
X150041363Y-137748526D01*
X150062033Y-137739926D01*
X150055133Y-137717536D01*
X150056833Y-137696866D01*
X150077503Y-137674476D01*
X150087843Y-137664135D01*
X150096443Y-137653806D01*
X150125723Y-137621076D01*
X150079213Y-137609016D01*
X150022363Y-137578006D01*
X150010303Y-137514266D01*
X150068873Y-137512566D01*
X150115383Y-137524626D01*
X150179113Y-137540126D01*
X150248013Y-137545326D01*
X150273853Y-137545326D01*
X150299693Y-137541926D01*
X150316913Y-137538526D01*
X150323813Y-137517856D01*
X150330713Y-137510956D01*
X150349663Y-137488566D01*
X150353063Y-137450666D01*
X150363393Y-137419655D01*
X150378893Y-137462716D01*
X150385793Y-137479946D01*
X150403023Y-137483346D01*
X150408223Y-137491946D01*
X150409923Y-137500546D01*
X150418523Y-137529826D01*
X150425423Y-137536726D01*
X150432323Y-137541926D01*
X150440923Y-137572936D01*
X150451263Y-137602216D01*
X150466763Y-137647006D01*
X150470163Y-137688346D01*
X150477063Y-137707296D01*
X150496013Y-137724526D01*
X150516683Y-137734856D01*
X150527023Y-137741756D01*
X150535623Y-137745156D01*
X150540823Y-137764106D01*
X150561493Y-137767506D01*
X150589053Y-137772706D01*
X150606283Y-137774406D01*
X150623513Y-137772706D01*
X150652793Y-137748586D01*
X150676913Y-137729636D01*
X150694133Y-137698626D01*
X150697533Y-137679675D01*
X150700933Y-137662446D01*
X150706133Y-137652116D01*
X150728523Y-137631446D01*
X150709573Y-137615946D01*
X150707873Y-137586666D01*
X150635523Y-137417857D01*
X150554563Y-137252492D01*
X150528723Y-137197372D01*
X150501163Y-137142251D01*
X150502863Y-137130191D01*
X150499463Y-137114691D01*
X150468453Y-137063011D01*
X150444333Y-137014781D01*
X150416773Y-136957941D01*
X150378873Y-136901102D01*
X150351313Y-136889041D01*
X150339253Y-136885641D01*
X150323753Y-136882241D01*
X150297913Y-136885641D01*
X150213513Y-136823631D01*
X150139443Y-136725441D01*
X150122213Y-136701331D01*
X150099823Y-136715111D01*
X150075703Y-136725441D01*
X150042973Y-136734041D01*
X149984403Y-136749541D01*
X149939613Y-136775381D01*
X149927553Y-136816721D01*
X149922353Y-136844281D01*
X149913753Y-136902851D01*
X149906853Y-136968311D01*
X149893073Y-137026881D01*
X149881013Y-137083721D01*
X149863783Y-137164682D01*
X149841393Y-137237032D01*
X149824163Y-137238732D01*
X149806943Y-137233532D01*
X149784553Y-137230132D01*
X149765603Y-137228432D01*
X149758703Y-137245662D01*
X149741473Y-137262892D01*
X149708743Y-137273232D01*
X149689793Y-137288732D01*
X149676013Y-137299072D01*
X149650173Y-137309402D01*
X149663953Y-137335242D01*
X149713903Y-137395532D01*
X149784523Y-137442042D01*
X149782823Y-137462712D01*
X149777623Y-137481662D01*
X149769023Y-137541952D01*
X149769023Y-137605682D01*
X149772623Y-137612496D01*
X149772623Y-137612496D01*
G37*
D11*
G36*
X167205272Y-126950987D02*
G01*
X167350602Y-126960011D01*
X167470401Y-126976097D01*
X167513000Y-126985639D01*
X167713705Y-127056211D01*
X167882842Y-127152254D01*
X168019009Y-127272708D01*
X168120804Y-127416517D01*
X168142888Y-127460676D01*
X168186169Y-127593546D01*
X168208115Y-127748799D01*
X168207813Y-127911733D01*
X168184348Y-128067649D01*
X168181378Y-128079631D01*
X168109598Y-128285900D01*
X167999440Y-128499710D01*
X167853671Y-128718635D01*
X167675056Y-128940248D01*
X167466363Y-129162122D01*
X167230356Y-129381831D01*
X166969801Y-129596947D01*
X166687464Y-129805045D01*
X166386112Y-130003697D01*
X166068510Y-130190476D01*
X165737424Y-130362956D01*
X165406917Y-130513914D01*
X165125260Y-130624528D01*
X164840525Y-130718891D01*
X164558522Y-130795863D01*
X164285059Y-130854304D01*
X164025944Y-130893073D01*
X163786986Y-130911030D01*
X163573994Y-130907034D01*
X163467415Y-130894654D01*
X163255333Y-130843949D01*
X163071592Y-130765179D01*
X162917946Y-130660436D01*
X162796153Y-130531813D01*
X162707965Y-130381404D01*
X162655140Y-130211301D01*
X162639432Y-130023596D01*
X162646912Y-129916393D01*
X162690185Y-129710484D01*
X162771341Y-129500165D01*
X162891104Y-129284228D01*
X163050195Y-129061465D01*
X163249338Y-128830669D01*
X163373015Y-128703038D01*
X163682888Y-128418555D01*
X164024155Y-128148996D01*
X164390664Y-127897643D01*
X164776262Y-127667778D01*
X165174797Y-127462685D01*
X165580114Y-127285647D01*
X165986063Y-127139945D01*
X166386489Y-127028862D01*
X166592250Y-126985541D01*
X166727902Y-126966303D01*
X166882743Y-126954132D01*
X167045593Y-126949028D01*
X167205272Y-126950987D01*
X167205272Y-126950987D01*
G37*
X167205272Y-126950987D02*
X167350602Y-126960011D01*
X167470401Y-126976097D01*
X167513000Y-126985639D01*
X167713705Y-127056211D01*
X167882842Y-127152254D01*
X168019009Y-127272708D01*
X168120804Y-127416517D01*
X168142888Y-127460676D01*
X168186169Y-127593546D01*
X168208115Y-127748799D01*
X168207813Y-127911733D01*
X168184348Y-128067649D01*
X168181378Y-128079631D01*
X168109598Y-128285900D01*
X167999440Y-128499710D01*
X167853671Y-128718635D01*
X167675056Y-128940248D01*
X167466363Y-129162122D01*
X167230356Y-129381831D01*
X166969801Y-129596947D01*
X166687464Y-129805045D01*
X166386112Y-130003697D01*
X166068510Y-130190476D01*
X165737424Y-130362956D01*
X165406917Y-130513914D01*
X165125260Y-130624528D01*
X164840525Y-130718891D01*
X164558522Y-130795863D01*
X164285059Y-130854304D01*
X164025944Y-130893073D01*
X163786986Y-130911030D01*
X163573994Y-130907034D01*
X163467415Y-130894654D01*
X163255333Y-130843949D01*
X163071592Y-130765179D01*
X162917946Y-130660436D01*
X162796153Y-130531813D01*
X162707965Y-130381404D01*
X162655140Y-130211301D01*
X162639432Y-130023596D01*
X162646912Y-129916393D01*
X162690185Y-129710484D01*
X162771341Y-129500165D01*
X162891104Y-129284228D01*
X163050195Y-129061465D01*
X163249338Y-128830669D01*
X163373015Y-128703038D01*
X163682888Y-128418555D01*
X164024155Y-128148996D01*
X164390664Y-127897643D01*
X164776262Y-127667778D01*
X165174797Y-127462685D01*
X165580114Y-127285647D01*
X165986063Y-127139945D01*
X166386489Y-127028862D01*
X166592250Y-126985541D01*
X166727902Y-126966303D01*
X166882743Y-126954132D01*
X167045593Y-126949028D01*
X167205272Y-126950987D01*
G36*
X152024693Y-116760379D02*
G01*
X152204297Y-116764762D01*
X152382233Y-116771878D01*
X152549735Y-116781517D01*
X152698037Y-116793469D01*
X152812750Y-116806718D01*
X153047222Y-116843458D01*
X153305635Y-116890112D01*
X153578990Y-116944640D01*
X153858290Y-117005000D01*
X154134536Y-117069152D01*
X154398731Y-117135055D01*
X154641876Y-117200668D01*
X154854974Y-117263951D01*
X154917501Y-117284084D01*
X155099868Y-117362449D01*
X155285566Y-117475884D01*
X155467776Y-117618359D01*
X155639677Y-117783848D01*
X155794447Y-117966321D01*
X155925267Y-118159749D01*
X155943080Y-118190532D01*
X156019916Y-118367070D01*
X156066605Y-118567291D01*
X156083469Y-118785488D01*
X156070830Y-119015954D01*
X156029008Y-119252981D01*
X155958326Y-119490863D01*
X155859104Y-119723891D01*
X155856437Y-119729250D01*
X155709694Y-119986144D01*
X155540933Y-120211158D01*
X155347996Y-120405796D01*
X155128725Y-120571564D01*
X154880962Y-120709965D01*
X154602548Y-120822504D01*
X154291326Y-120910684D01*
X154106087Y-120949216D01*
X153997221Y-120964493D01*
X153853221Y-120977427D01*
X153681230Y-120987909D01*
X153488388Y-120995833D01*
X153281838Y-121001091D01*
X153068721Y-121003576D01*
X152856177Y-121003180D01*
X152651349Y-120999796D01*
X152461377Y-120993316D01*
X152293403Y-120983634D01*
X152220084Y-120977576D01*
X151772384Y-120929058D01*
X151365409Y-120870771D01*
X150998657Y-120802573D01*
X150671629Y-120724323D01*
X150383825Y-120635879D01*
X150134745Y-120537099D01*
X149923889Y-120427841D01*
X149750756Y-120307964D01*
X149699006Y-120263497D01*
X149597604Y-120159564D01*
X149509322Y-120042601D01*
X149431341Y-119906899D01*
X149360846Y-119746747D01*
X149295019Y-119556436D01*
X149231042Y-119330254D01*
X149222828Y-119298367D01*
X149184595Y-119125534D01*
X149165981Y-118974118D01*
X149166583Y-118828237D01*
X149185997Y-118672011D01*
X149204483Y-118576225D01*
X149253274Y-118398635D01*
X149324661Y-118228840D01*
X149422435Y-118060374D01*
X149550390Y-117886768D01*
X149712319Y-117701556D01*
X149725868Y-117687092D01*
X149981743Y-117444132D01*
X150259581Y-117234715D01*
X150556079Y-117060573D01*
X150867935Y-116923441D01*
X151191847Y-116825051D01*
X151464927Y-116774390D01*
X151563539Y-116765736D01*
X151695548Y-116760656D01*
X151852188Y-116758941D01*
X152024693Y-116760379D01*
X152024693Y-116760379D01*
G37*
X152024693Y-116760379D02*
X152204297Y-116764762D01*
X152382233Y-116771878D01*
X152549735Y-116781517D01*
X152698037Y-116793469D01*
X152812750Y-116806718D01*
X153047222Y-116843458D01*
X153305635Y-116890112D01*
X153578990Y-116944640D01*
X153858290Y-117005000D01*
X154134536Y-117069152D01*
X154398731Y-117135055D01*
X154641876Y-117200668D01*
X154854974Y-117263951D01*
X154917501Y-117284084D01*
X155099868Y-117362449D01*
X155285566Y-117475884D01*
X155467776Y-117618359D01*
X155639677Y-117783848D01*
X155794447Y-117966321D01*
X155925267Y-118159749D01*
X155943080Y-118190532D01*
X156019916Y-118367070D01*
X156066605Y-118567291D01*
X156083469Y-118785488D01*
X156070830Y-119015954D01*
X156029008Y-119252981D01*
X155958326Y-119490863D01*
X155859104Y-119723891D01*
X155856437Y-119729250D01*
X155709694Y-119986144D01*
X155540933Y-120211158D01*
X155347996Y-120405796D01*
X155128725Y-120571564D01*
X154880962Y-120709965D01*
X154602548Y-120822504D01*
X154291326Y-120910684D01*
X154106087Y-120949216D01*
X153997221Y-120964493D01*
X153853221Y-120977427D01*
X153681230Y-120987909D01*
X153488388Y-120995833D01*
X153281838Y-121001091D01*
X153068721Y-121003576D01*
X152856177Y-121003180D01*
X152651349Y-120999796D01*
X152461377Y-120993316D01*
X152293403Y-120983634D01*
X152220084Y-120977576D01*
X151772384Y-120929058D01*
X151365409Y-120870771D01*
X150998657Y-120802573D01*
X150671629Y-120724323D01*
X150383825Y-120635879D01*
X150134745Y-120537099D01*
X149923889Y-120427841D01*
X149750756Y-120307964D01*
X149699006Y-120263497D01*
X149597604Y-120159564D01*
X149509322Y-120042601D01*
X149431341Y-119906899D01*
X149360846Y-119746747D01*
X149295019Y-119556436D01*
X149231042Y-119330254D01*
X149222828Y-119298367D01*
X149184595Y-119125534D01*
X149165981Y-118974118D01*
X149166583Y-118828237D01*
X149185997Y-118672011D01*
X149204483Y-118576225D01*
X149253274Y-118398635D01*
X149324661Y-118228840D01*
X149422435Y-118060374D01*
X149550390Y-117886768D01*
X149712319Y-117701556D01*
X149725868Y-117687092D01*
X149981743Y-117444132D01*
X150259581Y-117234715D01*
X150556079Y-117060573D01*
X150867935Y-116923441D01*
X151191847Y-116825051D01*
X151464927Y-116774390D01*
X151563539Y-116765736D01*
X151695548Y-116760656D01*
X151852188Y-116758941D01*
X152024693Y-116760379D01*
G36*
X127644854Y-99048074D02*
G01*
X127760896Y-99071408D01*
X127780365Y-99078155D01*
X127928417Y-99148945D01*
X128091789Y-99253497D01*
X128265715Y-99388309D01*
X128445430Y-99549876D01*
X128514569Y-99617882D01*
X128718858Y-99838822D01*
X128888324Y-100056426D01*
X129028889Y-100278848D01*
X129113606Y-100442501D01*
X129158773Y-100538914D01*
X129194406Y-100620908D01*
X129221741Y-100695517D01*
X129242010Y-100769776D01*
X129256449Y-100850718D01*
X129266291Y-100945378D01*
X129272771Y-101060791D01*
X129277123Y-101203991D01*
X129280582Y-101382011D01*
X129280814Y-101395487D01*
X129282922Y-101726013D01*
X129276540Y-102029270D01*
X129260497Y-102313647D01*
X129233626Y-102587533D01*
X129194757Y-102859317D01*
X129142722Y-103137389D01*
X129076352Y-103430137D01*
X128994477Y-103745950D01*
X128913165Y-104034167D01*
X128852684Y-104230645D01*
X128794098Y-104393632D01*
X128733463Y-104531567D01*
X128666837Y-104652887D01*
X128590278Y-104766031D01*
X128542012Y-104828448D01*
X128451371Y-104932335D01*
X128341611Y-105044678D01*
X128223687Y-105155251D01*
X128108557Y-105253825D01*
X128007175Y-105330173D01*
X127997811Y-105336459D01*
X127907713Y-105378881D01*
X127784047Y-105412086D01*
X127634728Y-105435297D01*
X127467672Y-105447735D01*
X127290794Y-105448624D01*
X127112009Y-105437184D01*
X127048027Y-105429810D01*
X126835290Y-105390369D01*
X126640951Y-105327890D01*
X126458094Y-105238633D01*
X126279801Y-105118857D01*
X126099155Y-104964819D01*
X125989794Y-104857504D01*
X125831056Y-104682037D01*
X125700970Y-104507272D01*
X125595801Y-104325318D01*
X125511810Y-104128288D01*
X125445261Y-103908293D01*
X125392418Y-103657444D01*
X125376878Y-103563521D01*
X125361276Y-103430455D01*
X125349837Y-103263786D01*
X125342555Y-103072035D01*
X125339425Y-102863728D01*
X125340443Y-102647386D01*
X125345603Y-102431534D01*
X125354900Y-102224696D01*
X125368329Y-102035394D01*
X125377825Y-101938667D01*
X125425676Y-101542179D01*
X125477696Y-101185478D01*
X125534898Y-100866131D01*
X125598298Y-100581711D01*
X125668911Y-100329786D01*
X125747751Y-100107926D01*
X125835835Y-99913702D01*
X125934176Y-99744684D01*
X126043790Y-99598440D01*
X126165691Y-99472542D01*
X126300896Y-99364560D01*
X126450417Y-99272062D01*
X126503117Y-99244500D01*
X126641977Y-99185648D01*
X126803096Y-99135213D01*
X126977967Y-99094304D01*
X127158084Y-99064027D01*
X127334941Y-99045491D01*
X127500033Y-99039805D01*
X127644854Y-99048074D01*
X127644854Y-99048074D01*
G37*
X127644854Y-99048074D02*
X127760896Y-99071408D01*
X127780365Y-99078155D01*
X127928417Y-99148945D01*
X128091789Y-99253497D01*
X128265715Y-99388309D01*
X128445430Y-99549876D01*
X128514569Y-99617882D01*
X128718858Y-99838822D01*
X128888324Y-100056426D01*
X129028889Y-100278848D01*
X129113606Y-100442501D01*
X129158773Y-100538914D01*
X129194406Y-100620908D01*
X129221741Y-100695517D01*
X129242010Y-100769776D01*
X129256449Y-100850718D01*
X129266291Y-100945378D01*
X129272771Y-101060791D01*
X129277123Y-101203991D01*
X129280582Y-101382011D01*
X129280814Y-101395487D01*
X129282922Y-101726013D01*
X129276540Y-102029270D01*
X129260497Y-102313647D01*
X129233626Y-102587533D01*
X129194757Y-102859317D01*
X129142722Y-103137389D01*
X129076352Y-103430137D01*
X128994477Y-103745950D01*
X128913165Y-104034167D01*
X128852684Y-104230645D01*
X128794098Y-104393632D01*
X128733463Y-104531567D01*
X128666837Y-104652887D01*
X128590278Y-104766031D01*
X128542012Y-104828448D01*
X128451371Y-104932335D01*
X128341611Y-105044678D01*
X128223687Y-105155251D01*
X128108557Y-105253825D01*
X128007175Y-105330173D01*
X127997811Y-105336459D01*
X127907713Y-105378881D01*
X127784047Y-105412086D01*
X127634728Y-105435297D01*
X127467672Y-105447735D01*
X127290794Y-105448624D01*
X127112009Y-105437184D01*
X127048027Y-105429810D01*
X126835290Y-105390369D01*
X126640951Y-105327890D01*
X126458094Y-105238633D01*
X126279801Y-105118857D01*
X126099155Y-104964819D01*
X125989794Y-104857504D01*
X125831056Y-104682037D01*
X125700970Y-104507272D01*
X125595801Y-104325318D01*
X125511810Y-104128288D01*
X125445261Y-103908293D01*
X125392418Y-103657444D01*
X125376878Y-103563521D01*
X125361276Y-103430455D01*
X125349837Y-103263786D01*
X125342555Y-103072035D01*
X125339425Y-102863728D01*
X125340443Y-102647386D01*
X125345603Y-102431534D01*
X125354900Y-102224696D01*
X125368329Y-102035394D01*
X125377825Y-101938667D01*
X125425676Y-101542179D01*
X125477696Y-101185478D01*
X125534898Y-100866131D01*
X125598298Y-100581711D01*
X125668911Y-100329786D01*
X125747751Y-100107926D01*
X125835835Y-99913702D01*
X125934176Y-99744684D01*
X126043790Y-99598440D01*
X126165691Y-99472542D01*
X126300896Y-99364560D01*
X126450417Y-99272062D01*
X126503117Y-99244500D01*
X126641977Y-99185648D01*
X126803096Y-99135213D01*
X126977967Y-99094304D01*
X127158084Y-99064027D01*
X127334941Y-99045491D01*
X127500033Y-99039805D01*
X127644854Y-99048074D01*
G36*
X175700412Y-93157967D02*
G01*
X175723349Y-93158374D01*
X176159584Y-93166432D01*
X176345164Y-93243428D01*
X176576551Y-93356709D01*
X176792687Y-93498885D01*
X176994429Y-93671303D01*
X177182628Y-93875313D01*
X177358141Y-94112264D01*
X177521821Y-94383504D01*
X177674522Y-94690382D01*
X177817099Y-95034246D01*
X177950405Y-95416446D01*
X178075295Y-95838331D01*
X178136840Y-96072439D01*
X178211655Y-96378665D01*
X178272461Y-96651543D01*
X178320230Y-96897320D01*
X178355933Y-97122242D01*
X178380538Y-97332557D01*
X178395018Y-97534512D01*
X178400343Y-97734353D01*
X178400407Y-97768834D01*
X178394449Y-97991790D01*
X178375957Y-98180467D01*
X178342861Y-98341602D01*
X178293091Y-98481937D01*
X178224576Y-98608210D01*
X178135246Y-98727161D01*
X178090744Y-98776857D01*
X177950533Y-98912057D01*
X177786818Y-99045776D01*
X177610388Y-99170627D01*
X177432035Y-99279220D01*
X177262550Y-99364166D01*
X177190529Y-99393269D01*
X177060767Y-99428073D01*
X176906075Y-99449518D01*
X176741956Y-99456798D01*
X176583909Y-99449106D01*
X176468715Y-99430834D01*
X176145288Y-99335973D01*
X175836556Y-99203015D01*
X175545844Y-99034640D01*
X175276476Y-98833528D01*
X175031775Y-98602360D01*
X174815066Y-98343815D01*
X174629671Y-98060575D01*
X174528351Y-97866230D01*
X174454049Y-97688531D01*
X174380703Y-97474416D01*
X174309464Y-97229805D01*
X174241486Y-96960614D01*
X174177920Y-96672761D01*
X174119921Y-96372164D01*
X174068640Y-96064740D01*
X174025230Y-95756408D01*
X173990845Y-95453086D01*
X173966636Y-95160690D01*
X173954817Y-94921917D01*
X173950600Y-94751882D01*
X173951216Y-94614752D01*
X173958448Y-94501210D01*
X173974083Y-94401936D01*
X173999907Y-94307613D01*
X174037704Y-94208921D01*
X174089262Y-94096544D01*
X174128133Y-94017488D01*
X174226219Y-93831814D01*
X174319857Y-93680824D01*
X174414929Y-93558151D01*
X174517315Y-93457425D01*
X174632895Y-93372278D01*
X174767549Y-93296340D01*
X174815500Y-93273005D01*
X174905876Y-93234180D01*
X174996939Y-93204249D01*
X175095485Y-93182353D01*
X175208310Y-93167635D01*
X175342209Y-93159237D01*
X175503977Y-93156300D01*
X175700412Y-93157967D01*
X175700412Y-93157967D01*
G37*
X175700412Y-93157967D02*
X175723349Y-93158374D01*
X176159584Y-93166432D01*
X176345164Y-93243428D01*
X176576551Y-93356709D01*
X176792687Y-93498885D01*
X176994429Y-93671303D01*
X177182628Y-93875313D01*
X177358141Y-94112264D01*
X177521821Y-94383504D01*
X177674522Y-94690382D01*
X177817099Y-95034246D01*
X177950405Y-95416446D01*
X178075295Y-95838331D01*
X178136840Y-96072439D01*
X178211655Y-96378665D01*
X178272461Y-96651543D01*
X178320230Y-96897320D01*
X178355933Y-97122242D01*
X178380538Y-97332557D01*
X178395018Y-97534512D01*
X178400343Y-97734353D01*
X178400407Y-97768834D01*
X178394449Y-97991790D01*
X178375957Y-98180467D01*
X178342861Y-98341602D01*
X178293091Y-98481937D01*
X178224576Y-98608210D01*
X178135246Y-98727161D01*
X178090744Y-98776857D01*
X177950533Y-98912057D01*
X177786818Y-99045776D01*
X177610388Y-99170627D01*
X177432035Y-99279220D01*
X177262550Y-99364166D01*
X177190529Y-99393269D01*
X177060767Y-99428073D01*
X176906075Y-99449518D01*
X176741956Y-99456798D01*
X176583909Y-99449106D01*
X176468715Y-99430834D01*
X176145288Y-99335973D01*
X175836556Y-99203015D01*
X175545844Y-99034640D01*
X175276476Y-98833528D01*
X175031775Y-98602360D01*
X174815066Y-98343815D01*
X174629671Y-98060575D01*
X174528351Y-97866230D01*
X174454049Y-97688531D01*
X174380703Y-97474416D01*
X174309464Y-97229805D01*
X174241486Y-96960614D01*
X174177920Y-96672761D01*
X174119921Y-96372164D01*
X174068640Y-96064740D01*
X174025230Y-95756408D01*
X173990845Y-95453086D01*
X173966636Y-95160690D01*
X173954817Y-94921917D01*
X173950600Y-94751882D01*
X173951216Y-94614752D01*
X173958448Y-94501210D01*
X173974083Y-94401936D01*
X173999907Y-94307613D01*
X174037704Y-94208921D01*
X174089262Y-94096544D01*
X174128133Y-94017488D01*
X174226219Y-93831814D01*
X174319857Y-93680824D01*
X174414929Y-93558151D01*
X174517315Y-93457425D01*
X174632895Y-93372278D01*
X174767549Y-93296340D01*
X174815500Y-93273005D01*
X174905876Y-93234180D01*
X174996939Y-93204249D01*
X175095485Y-93182353D01*
X175208310Y-93167635D01*
X175342209Y-93159237D01*
X175503977Y-93156300D01*
X175700412Y-93157967D01*
G36*
X166649107Y-80604052D02*
G01*
X166780432Y-80611074D01*
X166871572Y-80622321D01*
X167118895Y-80678919D01*
X167368215Y-80765897D01*
X167621652Y-80884571D01*
X167881328Y-81036260D01*
X168149365Y-81222279D01*
X168427885Y-81443947D01*
X168719010Y-81702582D01*
X168917445Y-81892555D01*
X169246881Y-82226172D01*
X169539303Y-82543118D01*
X169794574Y-82843189D01*
X170012557Y-83126179D01*
X170193117Y-83391884D01*
X170336117Y-83640100D01*
X170441421Y-83870621D01*
X170508893Y-84083244D01*
X170538395Y-84277763D01*
X170539834Y-84328000D01*
X170525769Y-84478209D01*
X170486155Y-84650237D01*
X170424857Y-84835461D01*
X170345741Y-85025259D01*
X170252675Y-85211007D01*
X170149526Y-85384082D01*
X170040159Y-85535861D01*
X169955268Y-85631658D01*
X169806661Y-85754289D01*
X169624818Y-85858214D01*
X169415043Y-85942241D01*
X169182641Y-86005181D01*
X168932915Y-86045841D01*
X168671169Y-86063032D01*
X168402708Y-86055563D01*
X168180560Y-86030090D01*
X167886128Y-85970186D01*
X167608401Y-85883423D01*
X167343442Y-85767456D01*
X167087315Y-85619940D01*
X166836084Y-85438529D01*
X166585811Y-85220880D01*
X166332559Y-84964647D01*
X166262077Y-84887337D01*
X166055363Y-84651513D01*
X165855386Y-84412771D01*
X165664565Y-84174574D01*
X165485320Y-83940379D01*
X165320069Y-83713649D01*
X165171232Y-83497842D01*
X165041229Y-83296420D01*
X164932478Y-83112841D01*
X164847398Y-82950567D01*
X164788409Y-82813057D01*
X164768465Y-82751084D01*
X164752370Y-82667553D01*
X164739423Y-82552938D01*
X164730006Y-82418398D01*
X164724497Y-82275092D01*
X164723278Y-82134180D01*
X164726727Y-82006819D01*
X164735226Y-81904169D01*
X164738791Y-81880020D01*
X164786907Y-81702011D01*
X164867599Y-81523829D01*
X164973957Y-81356912D01*
X165099069Y-81212699D01*
X165188724Y-81135389D01*
X165257924Y-81087900D01*
X165355323Y-81027021D01*
X165471888Y-80957824D01*
X165598587Y-80885377D01*
X165726387Y-80814751D01*
X165846256Y-80751016D01*
X165949163Y-80699241D01*
X166026075Y-80664497D01*
X166031334Y-80662410D01*
X166113781Y-80639990D01*
X166227560Y-80622430D01*
X166361893Y-80610244D01*
X166506001Y-80603946D01*
X166649107Y-80604052D01*
X166649107Y-80604052D01*
G37*
X166649107Y-80604052D02*
X166780432Y-80611074D01*
X166871572Y-80622321D01*
X167118895Y-80678919D01*
X167368215Y-80765897D01*
X167621652Y-80884571D01*
X167881328Y-81036260D01*
X168149365Y-81222279D01*
X168427885Y-81443947D01*
X168719010Y-81702582D01*
X168917445Y-81892555D01*
X169246881Y-82226172D01*
X169539303Y-82543118D01*
X169794574Y-82843189D01*
X170012557Y-83126179D01*
X170193117Y-83391884D01*
X170336117Y-83640100D01*
X170441421Y-83870621D01*
X170508893Y-84083244D01*
X170538395Y-84277763D01*
X170539834Y-84328000D01*
X170525769Y-84478209D01*
X170486155Y-84650237D01*
X170424857Y-84835461D01*
X170345741Y-85025259D01*
X170252675Y-85211007D01*
X170149526Y-85384082D01*
X170040159Y-85535861D01*
X169955268Y-85631658D01*
X169806661Y-85754289D01*
X169624818Y-85858214D01*
X169415043Y-85942241D01*
X169182641Y-86005181D01*
X168932915Y-86045841D01*
X168671169Y-86063032D01*
X168402708Y-86055563D01*
X168180560Y-86030090D01*
X167886128Y-85970186D01*
X167608401Y-85883423D01*
X167343442Y-85767456D01*
X167087315Y-85619940D01*
X166836084Y-85438529D01*
X166585811Y-85220880D01*
X166332559Y-84964647D01*
X166262077Y-84887337D01*
X166055363Y-84651513D01*
X165855386Y-84412771D01*
X165664565Y-84174574D01*
X165485320Y-83940379D01*
X165320069Y-83713649D01*
X165171232Y-83497842D01*
X165041229Y-83296420D01*
X164932478Y-83112841D01*
X164847398Y-82950567D01*
X164788409Y-82813057D01*
X164768465Y-82751084D01*
X164752370Y-82667553D01*
X164739423Y-82552938D01*
X164730006Y-82418398D01*
X164724497Y-82275092D01*
X164723278Y-82134180D01*
X164726727Y-82006819D01*
X164735226Y-81904169D01*
X164738791Y-81880020D01*
X164786907Y-81702011D01*
X164867599Y-81523829D01*
X164973957Y-81356912D01*
X165099069Y-81212699D01*
X165188724Y-81135389D01*
X165257924Y-81087900D01*
X165355323Y-81027021D01*
X165471888Y-80957824D01*
X165598587Y-80885377D01*
X165726387Y-80814751D01*
X165846256Y-80751016D01*
X165949163Y-80699241D01*
X166026075Y-80664497D01*
X166031334Y-80662410D01*
X166113781Y-80639990D01*
X166227560Y-80622430D01*
X166361893Y-80610244D01*
X166506001Y-80603946D01*
X166649107Y-80604052D01*
G36*
X140451417Y-77752306D02*
G01*
X140668988Y-77770594D01*
X140852926Y-77802748D01*
X141010368Y-77851240D01*
X141148451Y-77918542D01*
X141274315Y-78007128D01*
X141331740Y-78057246D01*
X141447586Y-78176476D01*
X141565194Y-78318942D01*
X141678899Y-78475867D01*
X141783032Y-78638473D01*
X141871925Y-78797984D01*
X141939912Y-78945622D01*
X141977623Y-79057500D01*
X142009843Y-79261984D01*
X142006913Y-79481998D01*
X141970955Y-79712995D01*
X141904088Y-79950429D01*
X141808434Y-80189751D01*
X141686112Y-80426416D01*
X141539243Y-80655877D01*
X141369948Y-80873586D01*
X141180347Y-81074998D01*
X140972560Y-81255564D01*
X140941364Y-81279507D01*
X140774507Y-81396099D01*
X140596375Y-81501376D01*
X140403365Y-81596473D01*
X140191871Y-81682525D01*
X139958291Y-81760669D01*
X139699018Y-81832040D01*
X139410449Y-81897776D01*
X139088979Y-81959010D01*
X138731004Y-82016881D01*
X138493500Y-82050970D01*
X138223357Y-82085230D01*
X137964807Y-82112307D01*
X137722572Y-82131965D01*
X137501378Y-82143972D01*
X137305947Y-82148093D01*
X137141003Y-82144095D01*
X137011269Y-82131743D01*
X136978131Y-82126021D01*
X136863810Y-82093703D01*
X136726291Y-82039348D01*
X136575194Y-81967662D01*
X136420135Y-81883352D01*
X136270735Y-81791123D01*
X136211982Y-81751153D01*
X136060181Y-81620043D01*
X135929494Y-81457382D01*
X135825074Y-81270831D01*
X135752074Y-81068047D01*
X135751895Y-81067374D01*
X135741399Y-81004532D01*
X135732915Y-80907941D01*
X135726518Y-80786136D01*
X135722287Y-80647659D01*
X135720297Y-80501046D01*
X135720627Y-80354836D01*
X135723354Y-80217568D01*
X135728555Y-80097780D01*
X135736306Y-80004012D01*
X135741935Y-79965264D01*
X135784318Y-79817262D01*
X135856477Y-79654173D01*
X135952968Y-79484394D01*
X136068343Y-79316322D01*
X136197160Y-79158355D01*
X136333971Y-79018890D01*
X136384256Y-78974724D01*
X136572050Y-78828239D01*
X136773727Y-78693478D01*
X136993126Y-78568788D01*
X137234082Y-78452519D01*
X137500433Y-78343017D01*
X137796015Y-78238630D01*
X138124665Y-78137707D01*
X138490221Y-78038595D01*
X138653243Y-77997710D01*
X139051970Y-77906555D01*
X139421865Y-77835868D01*
X139761212Y-77785882D01*
X140068294Y-77756832D01*
X140341393Y-77748952D01*
X140451417Y-77752306D01*
X140451417Y-77752306D01*
G37*
X140451417Y-77752306D02*
X140668988Y-77770594D01*
X140852926Y-77802748D01*
X141010368Y-77851240D01*
X141148451Y-77918542D01*
X141274315Y-78007128D01*
X141331740Y-78057246D01*
X141447586Y-78176476D01*
X141565194Y-78318942D01*
X141678899Y-78475867D01*
X141783032Y-78638473D01*
X141871925Y-78797984D01*
X141939912Y-78945622D01*
X141977623Y-79057500D01*
X142009843Y-79261984D01*
X142006913Y-79481998D01*
X141970955Y-79712995D01*
X141904088Y-79950429D01*
X141808434Y-80189751D01*
X141686112Y-80426416D01*
X141539243Y-80655877D01*
X141369948Y-80873586D01*
X141180347Y-81074998D01*
X140972560Y-81255564D01*
X140941364Y-81279507D01*
X140774507Y-81396099D01*
X140596375Y-81501376D01*
X140403365Y-81596473D01*
X140191871Y-81682525D01*
X139958291Y-81760669D01*
X139699018Y-81832040D01*
X139410449Y-81897776D01*
X139088979Y-81959010D01*
X138731004Y-82016881D01*
X138493500Y-82050970D01*
X138223357Y-82085230D01*
X137964807Y-82112307D01*
X137722572Y-82131965D01*
X137501378Y-82143972D01*
X137305947Y-82148093D01*
X137141003Y-82144095D01*
X137011269Y-82131743D01*
X136978131Y-82126021D01*
X136863810Y-82093703D01*
X136726291Y-82039348D01*
X136575194Y-81967662D01*
X136420135Y-81883352D01*
X136270735Y-81791123D01*
X136211982Y-81751153D01*
X136060181Y-81620043D01*
X135929494Y-81457382D01*
X135825074Y-81270831D01*
X135752074Y-81068047D01*
X135751895Y-81067374D01*
X135741399Y-81004532D01*
X135732915Y-80907941D01*
X135726518Y-80786136D01*
X135722287Y-80647659D01*
X135720297Y-80501046D01*
X135720627Y-80354836D01*
X135723354Y-80217568D01*
X135728555Y-80097780D01*
X135736306Y-80004012D01*
X135741935Y-79965264D01*
X135784318Y-79817262D01*
X135856477Y-79654173D01*
X135952968Y-79484394D01*
X136068343Y-79316322D01*
X136197160Y-79158355D01*
X136333971Y-79018890D01*
X136384256Y-78974724D01*
X136572050Y-78828239D01*
X136773727Y-78693478D01*
X136993126Y-78568788D01*
X137234082Y-78452519D01*
X137500433Y-78343017D01*
X137796015Y-78238630D01*
X138124665Y-78137707D01*
X138490221Y-78038595D01*
X138653243Y-77997710D01*
X139051970Y-77906555D01*
X139421865Y-77835868D01*
X139761212Y-77785882D01*
X140068294Y-77756832D01*
X140341393Y-77748952D01*
X140451417Y-77752306D01*
D10*
G36*
X168601203Y-130991343D02*
G01*
X166224351Y-132655632D01*
X165190995Y-131179847D01*
X167567847Y-129515558D01*
X168601203Y-130991343D01*
X168601203Y-130991343D01*
G37*
G36*
X165618605Y-126731753D02*
G01*
X163241753Y-128396042D01*
X162208398Y-126920258D01*
X162208397Y-126920257D01*
X164585249Y-125255968D01*
X165618605Y-126731753D01*
X165618605Y-126731753D01*
G37*
G36*
X136948800Y-125663000D02*
G01*
X135847200Y-125663000D01*
X135847200Y-123661400D01*
X136948800Y-123661400D01*
X136948800Y-125663000D01*
X136948800Y-125663000D01*
G37*
G36*
X131868800Y-125663000D02*
G01*
X130767200Y-125663000D01*
X130767200Y-123661400D01*
X131868800Y-123661400D01*
X131868800Y-125663000D01*
X131868800Y-125663000D01*
G37*
G36*
X153977800Y-122423600D02*
G01*
X151076200Y-122423600D01*
X151076200Y-120622000D01*
X153977800Y-120622000D01*
X153977800Y-122423600D01*
X153977800Y-122423600D01*
G37*
G36*
X134408800Y-122363000D02*
G01*
X133307200Y-122363000D01*
X133307200Y-120361400D01*
X134408800Y-120361400D01*
X134408800Y-122363000D01*
X134408800Y-122363000D01*
G37*
G36*
X146795800Y-121073800D02*
G01*
X144794200Y-121073800D01*
X144794200Y-119972200D01*
X146795800Y-119972200D01*
X146795800Y-121073800D01*
X146795800Y-121073800D01*
G37*
G36*
X143495800Y-118533800D02*
G01*
X141494200Y-118533800D01*
X141494200Y-117432200D01*
X143495800Y-117432200D01*
X143495800Y-118533800D01*
X143495800Y-118533800D01*
G37*
G36*
X153977800Y-117223600D02*
G01*
X151076200Y-117223600D01*
X151076200Y-115422000D01*
X153977800Y-115422000D01*
X153977800Y-117223600D01*
X153977800Y-117223600D01*
G37*
G36*
X182077800Y-117022000D02*
G01*
X180476200Y-117022000D01*
X180476200Y-113520400D01*
X182077800Y-113520400D01*
X182077800Y-117022000D01*
X182077800Y-117022000D01*
G37*
G36*
X175377800Y-117022000D02*
G01*
X173776200Y-117022000D01*
X173776200Y-113520400D01*
X175377800Y-113520400D01*
X175377800Y-117022000D01*
X175377800Y-117022000D01*
G37*
G36*
X146795800Y-115993800D02*
G01*
X144794200Y-115993800D01*
X144794200Y-114892200D01*
X146795800Y-114892200D01*
X146795800Y-115993800D01*
X146795800Y-115993800D01*
G37*
G36*
X143495800Y-113453800D02*
G01*
X141494200Y-113453800D01*
X141494200Y-112352200D01*
X143495800Y-112352200D01*
X143495800Y-113453800D01*
X143495800Y-113453800D01*
G37*
G36*
X179477800Y-111322000D02*
G01*
X178376200Y-111322000D01*
X178376200Y-107720400D01*
X179477800Y-107720400D01*
X179477800Y-111322000D01*
X179477800Y-111322000D01*
G37*
G36*
X177477800Y-111322000D02*
G01*
X176376200Y-111322000D01*
X176376200Y-107720400D01*
X177477800Y-107720400D01*
X177477800Y-111322000D01*
X177477800Y-111322000D01*
G37*
G36*
X146795800Y-110913800D02*
G01*
X144794200Y-110913800D01*
X144794200Y-109812200D01*
X146795800Y-109812200D01*
X146795800Y-110913800D01*
X146795800Y-110913800D01*
G37*
G36*
X143495800Y-108373800D02*
G01*
X141494200Y-108373800D01*
X141494200Y-107272200D01*
X143495800Y-107272200D01*
X143495800Y-108373800D01*
X143495800Y-108373800D01*
G37*
G36*
X125504000Y-103787400D02*
G01*
X123702400Y-103787400D01*
X123702400Y-100885800D01*
X125504000Y-100885800D01*
X125504000Y-103787400D01*
X125504000Y-103787400D01*
G37*
G36*
X130704000Y-103787400D02*
G01*
X128902400Y-103787400D01*
X128902400Y-100885800D01*
X130704000Y-100885800D01*
X130704000Y-103787400D01*
X130704000Y-103787400D01*
G37*
G36*
X175048477Y-98286666D02*
G01*
X173355527Y-98902850D01*
X172363121Y-96176238D01*
X174056071Y-95560054D01*
X175048477Y-98286666D01*
X175048477Y-98286666D01*
G37*
G36*
X179934879Y-96508162D02*
G01*
X178241929Y-97124346D01*
X177249523Y-94397734D01*
X178942473Y-93781550D01*
X179934879Y-96508162D01*
X179934879Y-96508162D01*
G37*
G36*
X142400800Y-96780800D02*
G01*
X136799200Y-96780800D01*
X136799200Y-91179200D01*
X142400800Y-91179200D01*
X142400800Y-96780800D01*
X142400800Y-96780800D01*
G37*
G36*
X168000800Y-96780800D02*
G01*
X162399200Y-96780800D01*
X162399200Y-91179200D01*
X168000800Y-91179200D01*
X168000800Y-96780800D01*
X168000800Y-96780800D01*
G37*
G36*
X154450800Y-96030800D02*
G01*
X150349200Y-96030800D01*
X150349200Y-91929200D01*
X154450800Y-91929200D01*
X154450800Y-96030800D01*
X154450800Y-96030800D01*
G37*
G36*
X167105642Y-85551247D02*
G01*
X165629858Y-86584602D01*
X165629857Y-86584603D01*
X163965568Y-84207751D01*
X165441353Y-83174395D01*
X167105642Y-85551247D01*
X167105642Y-85551247D01*
G37*
G36*
X141503773Y-82518867D02*
G01*
X138874030Y-83745137D01*
X138112641Y-82112333D01*
X140742384Y-80886063D01*
X141503773Y-82518867D01*
X141503773Y-82518867D01*
G37*
G36*
X171045716Y-82112333D02*
G01*
X171365232Y-82568649D01*
X169889448Y-83602004D01*
X169889447Y-83602005D01*
X168225158Y-81225153D01*
X169700943Y-80191797D01*
X171045716Y-82112333D01*
X171045716Y-82112333D01*
G37*
G36*
X139306159Y-77806067D02*
G01*
X136676416Y-79032337D01*
X135915027Y-77399533D01*
X138544770Y-76173263D01*
X139306159Y-77806067D01*
X139306159Y-77806067D01*
G37*
M02*
