  0
SECTION
  2
HEADER
  9
$ANGBASE
  50
0.0
  9
$ANGDIR
  70
  1
  9
$MEASUREMENT
  70
0
  0
ENDSEC
  0
SECTION
  2
TABLES
  0
TABLE
  2
LTYPE
  70
4
  0
LTYPE
  5
40F
  2
CONTINUOUS
  70
0
  3
Solid line
  72
65
  73
0
  40
0.0
  0
LTYPE
  5
410
  2
DASHDOT
 70
0
  3
Dash Dot ____ _ ____ _
 72
65
 73
4
 40
2.0
 49
1.25
 49
-0.25
 49
0.25
 49
-0.25
  0
LTYPE
  5
411
  2
DASHED
 70
0
  3
Dashed __ __ __ __ __
 72
65
 73
2
 40
0.75
 49
0.5
 49
-0.25
  0
LTYPE
  5
43B
  2
DOTTED
 70
0
  3
Dotted .  .  .  .
 72
65
 73
2
 40
0.2
 49
0.0
 49
-0.2
  0
ENDTAB
  0
TABLE
  2
STYLE
  70
4
  0
STYLE
  2
KICAD
  70
0
  40
0
  41
1
  42
1
  50
0
  71
0
  3
isocp.shx
  0
STYLE
  2
KICADB
  70
0
  40
0
  41
1
  42
1
  50
0
  71
0
  3
isocp.shx
  0
STYLE
  2
KICADI
  70
0
  40
0
  41
1
  42
1
  50
15
  71
0
  3
isocp.shx
  0
STYLE
  2
KICADBI
  70
0
  40
0
  41
1
  42
1
  50
15
  71
0
  3
isocp.shx
  0
ENDTAB
  0
TABLE
  2
LAYER
  70
30
  0
LAYER
  2
BLACK
  70
0
  62
7
  6
CONTINUOUS
  0
LAYER
  2
GRAY1
  70
0
  62
251
  6
CONTINUOUS
  0
LAYER
  2
GRAY2
  70
0
  62
8
  6
CONTINUOUS
  0
LAYER
  2
GRAY3
  70
0
  62
9
  6
CONTINUOUS
  0
LAYER
  2
WHITE
  70
0
  62
7
  6
CONTINUOUS
  0
LAYER
  2
LYELLOW
  70
0
  62
51
  6
CONTINUOUS
  0
LAYER
  2
BLUE1
  70
0
  62
178
  6
CONTINUOUS
  0
LAYER
  2
GREEN1
  70
0
  62
98
  6
CONTINUOUS
  0
LAYER
  2
CYAN1
  70
0
  62
138
  6
CONTINUOUS
  0
LAYER
  2
RED1
  70
0
  62
18
  6
CONTINUOUS
  0
LAYER
  2
MAGENTA1
  70
0
  62
228
  6
CONTINUOUS
  0
LAYER
  2
BROWN1
  70
0
  62
58
  6
CONTINUOUS
  0
LAYER
  2
BLUE2
  70
0
  62
5
  6
CONTINUOUS
  0
LAYER
  2
GREEN2
  70
0
  62
3
  6
CONTINUOUS
  0
LAYER
  2
CYAN2
  70
0
  62
4
  6
CONTINUOUS
  0
LAYER
  2
RED2
  70
0
  62
1
  6
CONTINUOUS
  0
LAYER
  2
MAGENTA2
  70
0
  62
6
  6
CONTINUOUS
  0
LAYER
  2
BROWN2
  70
0
  62
54
  6
CONTINUOUS
  0
LAYER
  2
BLUE3
  70
0
  62
171
  6
CONTINUOUS
  0
LAYER
  2
GREEN3
  70
0
  62
91
  6
CONTINUOUS
  0
LAYER
  2
CYAN3
  70
0
  62
131
  6
CONTINUOUS
  0
LAYER
  2
RED3
  70
0
  62
11
  6
CONTINUOUS
  0
LAYER
  2
MAGENTA3
  70
0
  62
221
  6
CONTINUOUS
  0
LAYER
  2
YELLOW3
  70
0
  62
2
  6
CONTINUOUS
  0
LAYER
  2
BLUE4
  70
0
  62
5
  6
CONTINUOUS
  0
LAYER
  2
GREEN4
  70
0
  62
3
  6
CONTINUOUS
  0
LAYER
  2
CYAN4
  70
0
  62
4
  6
CONTINUOUS
  0
LAYER
  2
RED4
  70
0
  62
1
  6
CONTINUOUS
  0
LAYER
  2
MAGENTA4
  70
0
  62
6
  6
CONTINUOUS
  0
LAYER
  2
YELLOW4
  70
0
  62
2
  6
CONTINUOUS
  0
ENDTAB
  0
ENDSEC
  0
SECTION
  2
ENTITIES
0
LINE
8
BLACK
6
CONTINUOUS
10
147.993
20
-108.264
11
148.013
21
-108.281
0
LINE
8
BLACK
6
CONTINUOUS
10
148.013
20
-108.281
11
148.027
21
-108.304
0
LINE
8
BLACK
6
CONTINUOUS
10
148.027
20
-108.304
11
148.03
21
-108.323
0
LINE
8
BLACK
6
CONTINUOUS
10
148.03
20
-108.323
11
148.03
21
-109.836
0
LINE
8
BLACK
6
CONTINUOUS
10
148.03
20
-109.836
11
148.027
21
-109.856
0
LINE
8
BLACK
6
CONTINUOUS
10
148.027
20
-109.856
11
148.013
21
-109.879
0
LINE
8
BLACK
6
CONTINUOUS
10
148.013
20
-109.879
11
147.993
21
-109.896
0
LINE
8
BLACK
6
CONTINUOUS
10
147.993
20
-109.896
11
147.968
21
-109.905
0
LINE
8
BLACK
6
CONTINUOUS
10
147.968
20
-109.905
11
147.942
21
-109.905
0
LINE
8
BLACK
6
CONTINUOUS
10
147.942
20
-109.905
11
147.917
21
-109.896
0
LINE
8
BLACK
6
CONTINUOUS
10
147.917
20
-109.896
11
147.897
21
-109.879
0
LINE
8
BLACK
6
CONTINUOUS
10
147.897
20
-109.879
11
147.883
21
-109.856
0
LINE
8
BLACK
6
CONTINUOUS
10
147.883
20
-109.856
11
147.88
21
-109.836
0
LINE
8
BLACK
6
CONTINUOUS
10
147.88
20
-109.836
11
147.88
21
-108.323
0
LINE
8
BLACK
6
CONTINUOUS
10
147.88
20
-108.323
11
147.883
21
-108.304
0
LINE
8
BLACK
6
CONTINUOUS
10
147.883
20
-108.304
11
147.897
21
-108.281
0
LINE
8
BLACK
6
CONTINUOUS
10
147.897
20
-108.281
11
147.917
21
-108.264
0
LINE
8
BLACK
6
CONTINUOUS
10
147.917
20
-108.264
11
147.942
21
-108.255
0
LINE
8
BLACK
6
CONTINUOUS
10
147.942
20
-108.255
11
147.968
21
-108.255
0
LINE
8
BLACK
6
CONTINUOUS
10
147.968
20
-108.255
11
147.993
21
-108.264
0
LINE
8
BLACK
6
CONTINUOUS
10
140.724
20
-103.765
11
140.735
21
-103.767
0
LINE
8
BLACK
6
CONTINUOUS
10
140.735
20
-103.767
11
140.878
21
-103.815
0
LINE
8
BLACK
6
CONTINUOUS
10
140.878
20
-103.815
11
140.882
21
-103.817
0
LINE
8
BLACK
6
CONTINUOUS
10
140.882
20
-103.817
11
140.886
21
-103.818
0
LINE
8
BLACK
6
CONTINUOUS
10
140.886
20
-103.818
11
140.893
21
-103.823
0
LINE
8
BLACK
6
CONTINUOUS
10
140.893
20
-103.823
11
140.901
21
-103.827
0
LINE
8
BLACK
6
CONTINUOUS
10
140.901
20
-103.827
11
140.904
21
-103.83
0
LINE
8
BLACK
6
CONTINUOUS
10
140.904
20
-103.83
11
140.908
21
-103.833
0
LINE
8
BLACK
6
CONTINUOUS
10
140.908
20
-103.833
11
141.003
21
-103.928
0
LINE
8
BLACK
6
CONTINUOUS
10
141.003
20
-103.928
11
141.005
21
-103.932
0
LINE
8
BLACK
6
CONTINUOUS
10
141.005
20
-103.932
11
141.009
21
-103.935
0
LINE
8
BLACK
6
CONTINUOUS
10
141.009
20
-103.935
11
141.013
21
-103.942
0
LINE
8
BLACK
6
CONTINUOUS
10
141.013
20
-103.942
11
141.018
21
-103.949
0
LINE
8
BLACK
6
CONTINUOUS
10
141.018
20
-103.949
11
141.019
21
-103.954
0
LINE
8
BLACK
6
CONTINUOUS
10
141.019
20
-103.954
11
141.021
21
-103.957
0
LINE
8
BLACK
6
CONTINUOUS
10
141.021
20
-103.957
11
141.069
21
-104.1
0
LINE
8
BLACK
6
CONTINUOUS
10
141.069
20
-104.1
11
141.07
21
-104.112
0
LINE
8
BLACK
6
CONTINUOUS
10
141.07
20
-104.112
11
141.072
21
-104.124
0
LINE
8
BLACK
6
CONTINUOUS
10
141.072
20
-104.124
11
141.072
21
-104.219
0
LINE
8
BLACK
6
CONTINUOUS
10
141.072
20
-104.219
11
141.068
21
-104.245
0
LINE
8
BLACK
6
CONTINUOUS
10
141.068
20
-104.245
11
141.055
21
-104.267
0
LINE
8
BLACK
6
CONTINUOUS
10
141.055
20
-104.267
11
141.035
21
-104.284
0
LINE
8
BLACK
6
CONTINUOUS
10
141.035
20
-104.284
11
141.01
21
-104.293
0
LINE
8
BLACK
6
CONTINUOUS
10
141.01
20
-104.293
11
140.984
21
-104.293
0
LINE
8
BLACK
6
CONTINUOUS
10
140.984
20
-104.293
11
140.96
21
-104.284
0
LINE
8
BLACK
6
CONTINUOUS
10
140.96
20
-104.284
11
140.94
21
-104.267
0
LINE
8
BLACK
6
CONTINUOUS
10
140.94
20
-104.267
11
140.927
21
-104.245
0
LINE
8
BLACK
6
CONTINUOUS
10
140.927
20
-104.245
11
140.922
21
-104.219
0
LINE
8
BLACK
6
CONTINUOUS
10
140.922
20
-104.219
11
140.922
21
-104.136
0
LINE
8
BLACK
6
CONTINUOUS
10
140.922
20
-104.136
11
140.884
21
-104.022
0
LINE
8
BLACK
6
CONTINUOUS
10
140.884
20
-104.022
11
140.814
21
-103.952
0
LINE
8
BLACK
6
CONTINUOUS
10
140.814
20
-103.952
11
140.699
21
-103.913
0
LINE
8
BLACK
6
CONTINUOUS
10
140.699
20
-103.913
11
139.997
21
-103.913
0
LINE
8
BLACK
6
CONTINUOUS
10
139.997
20
-103.913
11
139.972
21
-103.909
0
LINE
8
BLACK
6
CONTINUOUS
10
139.972
20
-103.909
11
139.949
21
-103.896
0
LINE
8
BLACK
6
CONTINUOUS
10
139.949
20
-103.896
11
139.932
21
-103.876
0
LINE
8
BLACK
6
CONTINUOUS
10
139.932
20
-103.876
11
139.924
21
-103.851
0
LINE
8
BLACK
6
CONTINUOUS
10
139.924
20
-103.851
11
139.924
21
-103.825
0
LINE
8
BLACK
6
CONTINUOUS
10
139.924
20
-103.825
11
139.932
21
-103.801
0
LINE
8
BLACK
6
CONTINUOUS
10
139.932
20
-103.801
11
139.949
21
-103.781
0
LINE
8
BLACK
6
CONTINUOUS
10
139.949
20
-103.781
11
139.972
21
-103.768
0
LINE
8
BLACK
6
CONTINUOUS
10
139.972
20
-103.768
11
139.997
21
-103.763
0
LINE
8
BLACK
6
CONTINUOUS
10
139.997
20
-103.763
11
140.712
21
-103.763
0
LINE
8
BLACK
6
CONTINUOUS
10
140.712
20
-103.763
11
140.724
21
-103.765
0
LINE
8
BLACK
6
CONTINUOUS
10
141.035
20
-102.773
11
141.055
21
-102.79
0
LINE
8
BLACK
6
CONTINUOUS
10
141.055
20
-102.79
11
141.068
21
-102.813
0
LINE
8
BLACK
6
CONTINUOUS
10
141.068
20
-102.813
11
141.072
21
-102.838
0
LINE
8
BLACK
6
CONTINUOUS
10
141.072
20
-102.838
11
141.072
21
-103.41
0
LINE
8
BLACK
6
CONTINUOUS
10
141.072
20
-103.41
11
141.068
21
-103.435
0
LINE
8
BLACK
6
CONTINUOUS
10
141.068
20
-103.435
11
141.055
21
-103.458
0
LINE
8
BLACK
6
CONTINUOUS
10
141.055
20
-103.458
11
141.035
21
-103.475
0
LINE
8
BLACK
6
CONTINUOUS
10
141.035
20
-103.475
11
141.01
21
-103.484
0
LINE
8
BLACK
6
CONTINUOUS
10
141.01
20
-103.484
11
140.984
21
-103.484
0
LINE
8
BLACK
6
CONTINUOUS
10
140.984
20
-103.484
11
140.96
21
-103.475
0
LINE
8
BLACK
6
CONTINUOUS
10
140.96
20
-103.475
11
140.94
21
-103.458
0
LINE
8
BLACK
6
CONTINUOUS
10
140.94
20
-103.458
11
140.927
21
-103.435
0
LINE
8
BLACK
6
CONTINUOUS
10
140.927
20
-103.435
11
140.922
21
-103.41
0
LINE
8
BLACK
6
CONTINUOUS
10
140.922
20
-103.41
11
140.922
21
-103.199
0
LINE
8
BLACK
6
CONTINUOUS
10
140.922
20
-103.199
11
140.226
21
-103.199
0
LINE
8
BLACK
6
CONTINUOUS
10
140.226
20
-103.199
11
140.289
21
-103.261
0
LINE
8
BLACK
6
CONTINUOUS
10
140.289
20
-103.261
11
140.295
21
-103.271
0
LINE
8
BLACK
6
CONTINUOUS
10
140.295
20
-103.271
11
140.303
21
-103.281
0
LINE
8
BLACK
6
CONTINUOUS
10
140.303
20
-103.281
11
140.35
21
-103.376
0
LINE
8
BLACK
6
CONTINUOUS
10
140.35
20
-103.376
11
140.358
21
-103.401
0
LINE
8
BLACK
6
CONTINUOUS
10
140.358
20
-103.401
11
140.356
21
-103.427
0
LINE
8
BLACK
6
CONTINUOUS
10
140.356
20
-103.427
11
140.346
21
-103.451
0
LINE
8
BLACK
6
CONTINUOUS
10
140.346
20
-103.451
11
140.328
21
-103.47
0
LINE
8
BLACK
6
CONTINUOUS
10
140.328
20
-103.47
11
140.304
21
-103.482
0
LINE
8
BLACK
6
CONTINUOUS
10
140.304
20
-103.482
11
140.279
21
-103.485
0
LINE
8
BLACK
6
CONTINUOUS
10
140.279
20
-103.485
11
140.253
21
-103.479
0
LINE
8
BLACK
6
CONTINUOUS
10
140.253
20
-103.479
11
140.232
21
-103.464
0
LINE
8
BLACK
6
CONTINUOUS
10
140.232
20
-103.464
11
140.216
21
-103.443
0
LINE
8
BLACK
6
CONTINUOUS
10
140.216
20
-103.443
11
140.174
21
-103.359
0
LINE
8
BLACK
6
CONTINUOUS
10
140.174
20
-103.359
11
140.092
21
-103.278
0
LINE
8
BLACK
6
CONTINUOUS
10
140.092
20
-103.278
11
139.956
21
-103.186
0
LINE
8
BLACK
6
CONTINUOUS
10
139.956
20
-103.186
11
139.953
21
-103.184
0
LINE
8
BLACK
6
CONTINUOUS
10
139.953
20
-103.184
11
139.949
21
-103.181
0
LINE
8
BLACK
6
CONTINUOUS
10
139.949
20
-103.181
11
139.943
21
-103.175
0
LINE
8
BLACK
6
CONTINUOUS
10
139.943
20
-103.175
11
139.937
21
-103.168
0
LINE
8
BLACK
6
CONTINUOUS
10
139.937
20
-103.168
11
139.935
21
-103.165
0
LINE
8
BLACK
6
CONTINUOUS
10
139.935
20
-103.165
11
139.932
21
-103.162
0
LINE
8
BLACK
6
CONTINUOUS
10
139.932
20
-103.162
11
139.929
21
-103.153
0
LINE
8
BLACK
6
CONTINUOUS
10
139.929
20
-103.153
11
139.925
21
-103.145
0
LINE
8
BLACK
6
CONTINUOUS
10
139.925
20
-103.145
11
139.925
21
-103.141
0
LINE
8
BLACK
6
CONTINUOUS
10
139.925
20
-103.141
11
139.924
21
-103.137
0
LINE
8
BLACK
6
CONTINUOUS
10
139.924
20
-103.137
11
139.924
21
-103.128
0
LINE
8
BLACK
6
CONTINUOUS
10
139.924
20
-103.128
11
139.923
21
-103.119
0
LINE
8
BLACK
6
CONTINUOUS
10
139.923
20
-103.119
11
139.924
21
-103.115
0
LINE
8
BLACK
6
CONTINUOUS
10
139.924
20
-103.115
11
139.924
21
-103.111
0
LINE
8
BLACK
6
CONTINUOUS
10
139.924
20
-103.111
11
139.927
21
-103.103
0
LINE
8
BLACK
6
CONTINUOUS
10
139.927
20
-103.103
11
139.929
21
-103.094
0
LINE
8
BLACK
6
CONTINUOUS
10
139.929
20
-103.094
11
139.931
21
-103.09
0
LINE
8
BLACK
6
CONTINUOUS
10
139.931
20
-103.09
11
139.932
21
-103.087
0
LINE
8
BLACK
6
CONTINUOUS
10
139.932
20
-103.087
11
139.938
21
-103.08
0
LINE
8
BLACK
6
CONTINUOUS
10
139.938
20
-103.08
11
139.943
21
-103.072
0
LINE
8
BLACK
6
CONTINUOUS
10
139.943
20
-103.072
11
139.946
21
-103.07
0
LINE
8
BLACK
6
CONTINUOUS
10
139.946
20
-103.07
11
139.949
21
-103.067
0
LINE
8
BLACK
6
CONTINUOUS
10
139.949
20
-103.067
11
139.957
21
-103.062
0
LINE
8
BLACK
6
CONTINUOUS
10
139.957
20
-103.062
11
139.964
21
-103.057
0
LINE
8
BLACK
6
CONTINUOUS
10
139.964
20
-103.057
11
139.968
21
-103.056
0
LINE
8
BLACK
6
CONTINUOUS
10
139.968
20
-103.056
11
139.972
21
-103.054
0
LINE
8
BLACK
6
CONTINUOUS
10
139.972
20
-103.054
11
139.981
21
-103.052
0
LINE
8
BLACK
6
CONTINUOUS
10
139.981
20
-103.052
11
139.989
21
-103.05
0
LINE
8
BLACK
6
CONTINUOUS
10
139.989
20
-103.05
11
139.993
21
-103.05
0
LINE
8
BLACK
6
CONTINUOUS
10
139.993
20
-103.05
11
139.997
21
-103.049
0
LINE
8
BLACK
6
CONTINUOUS
10
139.997
20
-103.049
11
140.922
21
-103.049
0
LINE
8
BLACK
6
CONTINUOUS
10
140.922
20
-103.049
11
140.922
21
-102.838
0
LINE
8
BLACK
6
CONTINUOUS
10
140.922
20
-102.838
11
140.927
21
-102.813
0
LINE
8
BLACK
6
CONTINUOUS
10
140.927
20
-102.813
11
140.94
21
-102.79
0
LINE
8
BLACK
6
CONTINUOUS
10
140.94
20
-102.79
11
140.96
21
-102.773
0
LINE
8
BLACK
6
CONTINUOUS
10
140.96
20
-102.773
11
140.984
21
-102.764
0
LINE
8
BLACK
6
CONTINUOUS
10
140.984
20
-102.764
11
141.01
21
-102.764
0
LINE
8
BLACK
6
CONTINUOUS
10
141.01
20
-102.764
11
141.035
21
-102.773
  0
ENDSEC
  0
EOF
