  0
SECTION
  2
HEADER
  9
$ANGBASE
  50
0.0
  9
$ANGDIR
  70
  1
  9
$MEASUREMENT
  70
0
  0
ENDSEC
  0
SECTION
  2
TABLES
  0
TABLE
  2
LTYPE
  70
4
  0
LTYPE
  5
40F
  2
CONTINUOUS
  70
0
  3
Solid line
  72
65
  73
0
  40
0.0
  0
LTYPE
  5
410
  2
DASHDOT
 70
0
  3
Dash Dot ____ _ ____ _
 72
65
 73
4
 40
2.0
 49
1.25
 49
-0.25
 49
0.25
 49
-0.25
  0
LTYPE
  5
411
  2
DASHED
 70
0
  3
Dashed __ __ __ __ __
 72
65
 73
2
 40
0.75
 49
0.5
 49
-0.25
  0
LTYPE
  5
43B
  2
DOTTED
 70
0
  3
Dotted .  .  .  .
 72
65
 73
2
 40
0.2
 49
0.0
 49
-0.2
  0
ENDTAB
  0
TABLE
  2
STYLE
  70
4
  0
STYLE
  2
KICAD
  70
0
  40
0
  41
1
  42
1
  50
0
  71
0
  3
isocp.shx
  0
STYLE
  2
KICADB
  70
0
  40
0
  41
1
  42
1
  50
0
  71
0
  3
isocp.shx
  0
STYLE
  2
KICADI
  70
0
  40
0
  41
1
  42
1
  50
15
  71
0
  3
isocp.shx
  0
STYLE
  2
KICADBI
  70
0
  40
0
  41
1
  42
1
  50
15
  71
0
  3
isocp.shx
  0
ENDTAB
  0
TABLE
  2
LAYER
  70
30
  0
LAYER
  2
BLACK
  70
0
  62
7
  6
CONTINUOUS
  0
LAYER
  2
GRAY1
  70
0
  62
251
  6
CONTINUOUS
  0
LAYER
  2
GRAY2
  70
0
  62
8
  6
CONTINUOUS
  0
LAYER
  2
GRAY3
  70
0
  62
9
  6
CONTINUOUS
  0
LAYER
  2
WHITE
  70
0
  62
7
  6
CONTINUOUS
  0
LAYER
  2
LYELLOW
  70
0
  62
51
  6
CONTINUOUS
  0
LAYER
  2
BLUE1
  70
0
  62
178
  6
CONTINUOUS
  0
LAYER
  2
GREEN1
  70
0
  62
98
  6
CONTINUOUS
  0
LAYER
  2
CYAN1
  70
0
  62
138
  6
CONTINUOUS
  0
LAYER
  2
RED1
  70
0
  62
18
  6
CONTINUOUS
  0
LAYER
  2
MAGENTA1
  70
0
  62
228
  6
CONTINUOUS
  0
LAYER
  2
BROWN1
  70
0
  62
58
  6
CONTINUOUS
  0
LAYER
  2
BLUE2
  70
0
  62
5
  6
CONTINUOUS
  0
LAYER
  2
GREEN2
  70
0
  62
3
  6
CONTINUOUS
  0
LAYER
  2
CYAN2
  70
0
  62
4
  6
CONTINUOUS
  0
LAYER
  2
RED2
  70
0
  62
1
  6
CONTINUOUS
  0
LAYER
  2
MAGENTA2
  70
0
  62
6
  6
CONTINUOUS
  0
LAYER
  2
BROWN2
  70
0
  62
54
  6
CONTINUOUS
  0
LAYER
  2
BLUE3
  70
0
  62
171
  6
CONTINUOUS
  0
LAYER
  2
GREEN3
  70
0
  62
91
  6
CONTINUOUS
  0
LAYER
  2
CYAN3
  70
0
  62
131
  6
CONTINUOUS
  0
LAYER
  2
RED3
  70
0
  62
11
  6
CONTINUOUS
  0
LAYER
  2
MAGENTA3
  70
0
  62
221
  6
CONTINUOUS
  0
LAYER
  2
YELLOW3
  70
0
  62
2
  6
CONTINUOUS
  0
LAYER
  2
BLUE4
  70
0
  62
5
  6
CONTINUOUS
  0
LAYER
  2
GREEN4
  70
0
  62
3
  6
CONTINUOUS
  0
LAYER
  2
CYAN4
  70
0
  62
4
  6
CONTINUOUS
  0
LAYER
  2
RED4
  70
0
  62
1
  6
CONTINUOUS
  0
LAYER
  2
MAGENTA4
  70
0
  62
6
  6
CONTINUOUS
  0
LAYER
  2
YELLOW4
  70
0
  62
2
  6
CONTINUOUS
  0
ENDTAB
  0
ENDSEC
  0
SECTION
  2
ENTITIES
0
LINE
8
BLACK
6
CONTINUOUS
10
147.203
20
-111.6
11
147.212
21
-111.6
0
LINE
8
BLACK
6
CONTINUOUS
10
147.212
20
-111.6
11
147.22
21
-111.603
0
LINE
8
BLACK
6
CONTINUOUS
10
147.22
20
-111.603
11
147.228
21
-111.604
0
LINE
8
BLACK
6
CONTINUOUS
10
147.228
20
-111.604
11
147.236
21
-111.609
0
LINE
8
BLACK
6
CONTINUOUS
10
147.236
20
-111.609
11
147.244
21
-111.612
0
LINE
8
BLACK
6
CONTINUOUS
10
147.244
20
-111.612
11
147.251
21
-111.617
0
LINE
8
BLACK
6
CONTINUOUS
10
147.251
20
-111.617
11
147.258
21
-111.622
0
LINE
8
BLACK
6
CONTINUOUS
10
147.258
20
-111.622
11
147.264
21
-111.628
0
LINE
8
BLACK
6
CONTINUOUS
10
147.264
20
-111.628
11
147.271
21
-111.634
0
LINE
8
BLACK
6
CONTINUOUS
10
147.271
20
-111.634
11
147.275
21
-111.642
0
LINE
8
BLACK
6
CONTINUOUS
10
147.275
20
-111.642
11
147.281
21
-111.648
0
LINE
8
BLACK
6
CONTINUOUS
10
147.281
20
-111.648
11
147.284
21
-111.657
0
LINE
8
BLACK
6
CONTINUOUS
10
147.284
20
-111.657
11
147.288
21
-111.664
0
LINE
8
BLACK
6
CONTINUOUS
10
147.288
20
-111.664
11
147.29
21
-111.673
0
LINE
8
BLACK
6
CONTINUOUS
10
147.29
20
-111.673
11
147.293
21
-111.681
0
LINE
8
BLACK
6
CONTINUOUS
10
147.293
20
-111.681
11
147.293
21
-111.69
0
LINE
8
BLACK
6
CONTINUOUS
10
147.293
20
-111.69
11
147.294
21
-111.698
0
LINE
8
BLACK
6
CONTINUOUS
10
147.294
20
-111.698
11
147.294
21
-111.892
0
LINE
8
BLACK
6
CONTINUOUS
10
147.294
20
-111.892
11
147.288
21
-111.926
0
LINE
8
BLACK
6
CONTINUOUS
10
147.288
20
-111.926
11
147.271
21
-111.956
0
LINE
8
BLACK
6
CONTINUOUS
10
147.271
20
-111.956
11
147.244
21
-111.978
0
LINE
8
BLACK
6
CONTINUOUS
10
147.244
20
-111.978
11
147.212
21
-111.99
0
LINE
8
BLACK
6
CONTINUOUS
10
147.212
20
-111.99
11
147.177
21
-111.99
0
LINE
8
BLACK
6
CONTINUOUS
10
147.177
20
-111.99
11
147.144
21
-111.978
0
LINE
8
BLACK
6
CONTINUOUS
10
147.144
20
-111.978
11
147.118
21
-111.956
0
LINE
8
BLACK
6
CONTINUOUS
10
147.118
20
-111.956
11
147.1
21
-111.926
0
LINE
8
BLACK
6
CONTINUOUS
10
147.1
20
-111.926
11
147.094
21
-111.892
0
LINE
8
BLACK
6
CONTINUOUS
10
147.094
20
-111.892
11
147.094
21
-111.798
0
LINE
8
BLACK
6
CONTINUOUS
10
147.094
20
-111.798
11
146.897
21
-111.798
0
LINE
8
BLACK
6
CONTINUOUS
10
146.897
20
-111.798
11
146.895
21
-111.801
0
LINE
8
BLACK
6
CONTINUOUS
10
146.895
20
-111.801
11
146.859
21
-111.908
0
LINE
8
BLACK
6
CONTINUOUS
10
146.859
20
-111.908
11
146.859
21
-111.972
0
LINE
8
BLACK
6
CONTINUOUS
10
146.859
20
-111.972
11
146.895
21
-112.08
0
LINE
8
BLACK
6
CONTINUOUS
10
146.895
20
-112.08
11
146.963
21
-112.148
0
LINE
8
BLACK
6
CONTINUOUS
10
146.963
20
-112.148
11
147.036
21
-112.185
0
LINE
8
BLACK
6
CONTINUOUS
10
147.036
20
-112.185
11
147.207
21
-112.227
0
LINE
8
BLACK
6
CONTINUOUS
10
147.207
20
-112.227
11
147.327
21
-112.227
0
LINE
8
BLACK
6
CONTINUOUS
10
147.327
20
-112.227
11
147.498
21
-112.185
0
LINE
8
BLACK
6
CONTINUOUS
10
147.498
20
-112.185
11
147.57
21
-112.148
0
LINE
8
BLACK
6
CONTINUOUS
10
147.57
20
-112.148
11
147.639
21
-112.08
0
LINE
8
BLACK
6
CONTINUOUS
10
147.639
20
-112.08
11
147.675
21
-111.972
0
LINE
8
BLACK
6
CONTINUOUS
10
147.675
20
-111.972
11
147.675
21
-111.867
0
LINE
8
BLACK
6
CONTINUOUS
10
147.675
20
-111.867
11
147.637
21
-111.791
0
LINE
8
BLACK
6
CONTINUOUS
10
147.637
20
-111.791
11
147.627
21
-111.758
0
LINE
8
BLACK
6
CONTINUOUS
10
147.627
20
-111.758
11
147.629
21
-111.723
0
LINE
8
BLACK
6
CONTINUOUS
10
147.629
20
-111.723
11
147.643
21
-111.692
0
LINE
8
BLACK
6
CONTINUOUS
10
147.643
20
-111.692
11
147.667
21
-111.666
0
LINE
8
BLACK
6
CONTINUOUS
10
147.667
20
-111.666
11
147.698
21
-111.651
0
LINE
8
BLACK
6
CONTINUOUS
10
147.698
20
-111.651
11
147.732
21
-111.647
0
LINE
8
BLACK
6
CONTINUOUS
10
147.732
20
-111.647
11
147.766
21
-111.655
0
LINE
8
BLACK
6
CONTINUOUS
10
147.766
20
-111.655
11
147.795
21
-111.674
0
LINE
8
BLACK
6
CONTINUOUS
10
147.795
20
-111.674
11
147.816
21
-111.702
0
LINE
8
BLACK
6
CONTINUOUS
10
147.816
20
-111.702
11
147.864
21
-111.799
0
LINE
8
BLACK
6
CONTINUOUS
10
147.864
20
-111.799
11
147.866
21
-111.804
0
LINE
8
BLACK
6
CONTINUOUS
10
147.866
20
-111.804
11
147.869
21
-111.809
0
LINE
8
BLACK
6
CONTINUOUS
10
147.869
20
-111.809
11
147.871
21
-111.821
0
LINE
8
BLACK
6
CONTINUOUS
10
147.871
20
-111.821
11
147.874
21
-111.832
0
LINE
8
BLACK
6
CONTINUOUS
10
147.874
20
-111.832
11
147.874
21
-111.838
0
LINE
8
BLACK
6
CONTINUOUS
10
147.874
20
-111.838
11
147.875
21
-111.843
0
LINE
8
BLACK
6
CONTINUOUS
10
147.875
20
-111.843
11
147.875
21
-111.989
0
LINE
8
BLACK
6
CONTINUOUS
10
147.875
20
-111.989
11
147.872
21
-112.004
0
LINE
8
BLACK
6
CONTINUOUS
10
147.872
20
-112.004
11
147.87
21
-112.02
0
LINE
8
BLACK
6
CONTINUOUS
10
147.87
20
-112.02
11
147.821
21
-112.165
0
LINE
8
BLACK
6
CONTINUOUS
10
147.821
20
-112.165
11
147.819
21
-112.17
0
LINE
8
BLACK
6
CONTINUOUS
10
147.819
20
-112.17
11
147.817
21
-112.176
0
LINE
8
BLACK
6
CONTINUOUS
10
147.817
20
-112.176
11
147.81
21
-112.186
0
LINE
8
BLACK
6
CONTINUOUS
10
147.81
20
-112.186
11
147.805
21
-112.196
0
LINE
8
BLACK
6
CONTINUOUS
10
147.805
20
-112.196
11
147.8
21
-112.2
0
LINE
8
BLACK
6
CONTINUOUS
10
147.8
20
-112.2
11
147.797
21
-112.204
0
LINE
8
BLACK
6
CONTINUOUS
10
147.797
20
-112.204
11
147.7
21
-112.301
0
LINE
8
BLACK
6
CONTINUOUS
10
147.7
20
-112.301
11
147.687
21
-112.31
0
LINE
8
BLACK
6
CONTINUOUS
10
147.687
20
-112.31
11
147.674
21
-112.32
0
LINE
8
BLACK
6
CONTINUOUS
10
147.674
20
-112.32
11
147.578
21
-112.368
0
LINE
8
BLACK
6
CONTINUOUS
10
147.578
20
-112.368
11
147.567
21
-112.371
0
LINE
8
BLACK
6
CONTINUOUS
10
147.567
20
-112.371
11
147.557
21
-112.376
0
LINE
8
BLACK
6
CONTINUOUS
10
147.557
20
-112.376
11
147.364
21
-112.424
0
LINE
8
BLACK
6
CONTINUOUS
10
147.364
20
-112.424
11
147.351
21
-112.425
0
LINE
8
BLACK
6
CONTINUOUS
10
147.351
20
-112.425
11
147.339
21
-112.427
0
LINE
8
BLACK
6
CONTINUOUS
10
147.339
20
-112.427
11
147.194
21
-112.427
0
LINE
8
BLACK
6
CONTINUOUS
10
147.194
20
-112.427
11
147.182
21
-112.425
0
LINE
8
BLACK
6
CONTINUOUS
10
147.182
20
-112.425
11
147.17
21
-112.424
0
LINE
8
BLACK
6
CONTINUOUS
10
147.17
20
-112.424
11
146.976
21
-112.376
0
LINE
8
BLACK
6
CONTINUOUS
10
146.976
20
-112.376
11
146.966
21
-112.371
0
LINE
8
BLACK
6
CONTINUOUS
10
146.966
20
-112.371
11
146.956
21
-112.368
0
LINE
8
BLACK
6
CONTINUOUS
10
146.956
20
-112.368
11
146.859
21
-112.32
0
LINE
8
BLACK
6
CONTINUOUS
10
146.859
20
-112.32
11
146.846
21
-112.31
0
LINE
8
BLACK
6
CONTINUOUS
10
146.846
20
-112.31
11
146.833
21
-112.301
0
LINE
8
BLACK
6
CONTINUOUS
10
146.833
20
-112.301
11
146.736
21
-112.204
0
LINE
8
BLACK
6
CONTINUOUS
10
146.736
20
-112.204
11
146.733
21
-112.2
0
LINE
8
BLACK
6
CONTINUOUS
10
146.733
20
-112.2
11
146.729
21
-112.196
0
LINE
8
BLACK
6
CONTINUOUS
10
146.729
20
-112.196
11
146.723
21
-112.186
0
LINE
8
BLACK
6
CONTINUOUS
10
146.723
20
-112.186
11
146.717
21
-112.176
0
LINE
8
BLACK
6
CONTINUOUS
10
146.717
20
-112.176
11
146.715
21
-112.17
0
LINE
8
BLACK
6
CONTINUOUS
10
146.715
20
-112.17
11
146.712
21
-112.165
0
LINE
8
BLACK
6
CONTINUOUS
10
146.712
20
-112.165
11
146.664
21
-112.02
0
LINE
8
BLACK
6
CONTINUOUS
10
146.664
20
-112.02
11
146.662
21
-112.004
0
LINE
8
BLACK
6
CONTINUOUS
10
146.662
20
-112.004
11
146.659
21
-111.989
0
LINE
8
BLACK
6
CONTINUOUS
10
146.659
20
-111.989
11
146.659
21
-111.892
0
LINE
8
BLACK
6
CONTINUOUS
10
146.659
20
-111.892
11
146.662
21
-111.876
0
LINE
8
BLACK
6
CONTINUOUS
10
146.662
20
-111.876
11
146.664
21
-111.86
0
LINE
8
BLACK
6
CONTINUOUS
10
146.664
20
-111.86
11
146.712
21
-111.715
0
LINE
8
BLACK
6
CONTINUOUS
10
146.712
20
-111.715
11
146.715
21
-111.71
0
LINE
8
BLACK
6
CONTINUOUS
10
146.715
20
-111.71
11
146.717
21
-111.704
0
LINE
8
BLACK
6
CONTINUOUS
10
146.717
20
-111.704
11
146.723
21
-111.695
0
LINE
8
BLACK
6
CONTINUOUS
10
146.723
20
-111.695
11
146.729
21
-111.685
0
LINE
8
BLACK
6
CONTINUOUS
10
146.729
20
-111.685
11
146.733
21
-111.681
0
LINE
8
BLACK
6
CONTINUOUS
10
146.733
20
-111.681
11
146.736
21
-111.676
0
LINE
8
BLACK
6
CONTINUOUS
10
146.736
20
-111.676
11
146.785
21
-111.628
0
LINE
8
BLACK
6
CONTINUOUS
10
146.785
20
-111.628
11
146.788
21
-111.625
0
LINE
8
BLACK
6
CONTINUOUS
10
146.788
20
-111.625
11
146.791
21
-111.622
0
LINE
8
BLACK
6
CONTINUOUS
10
146.791
20
-111.622
11
146.803
21
-111.615
0
LINE
8
BLACK
6
CONTINUOUS
10
146.803
20
-111.615
11
146.813
21
-111.608
0
LINE
8
BLACK
6
CONTINUOUS
10
146.813
20
-111.608
11
146.818
21
-111.607
0
LINE
8
BLACK
6
CONTINUOUS
10
146.818
20
-111.607
11
146.821
21
-111.604
0
LINE
8
BLACK
6
CONTINUOUS
10
146.821
20
-111.604
11
146.834
21
-111.602
0
LINE
8
BLACK
6
CONTINUOUS
10
146.834
20
-111.602
11
146.847
21
-111.599
0
LINE
8
BLACK
6
CONTINUOUS
10
146.847
20
-111.599
11
146.851
21
-111.599
0
LINE
8
BLACK
6
CONTINUOUS
10
146.851
20
-111.599
11
146.856
21
-111.598
0
LINE
8
BLACK
6
CONTINUOUS
10
146.856
20
-111.598
11
147.194
21
-111.598
0
LINE
8
BLACK
6
CONTINUOUS
10
147.194
20
-111.598
11
147.203
21
-111.6
0
LINE
8
BLACK
6
CONTINUOUS
10
141.035
20
-110.346
11
141.055
21
-110.363
0
LINE
8
BLACK
6
CONTINUOUS
10
141.055
20
-110.363
11
141.068
21
-110.385
0
LINE
8
BLACK
6
CONTINUOUS
10
141.068
20
-110.385
11
141.072
21
-110.411
0
LINE
8
BLACK
6
CONTINUOUS
10
141.072
20
-110.411
11
141.072
21
-110.488
0
LINE
8
BLACK
6
CONTINUOUS
10
141.072
20
-110.488
11
141.603
21
-110.488
0
LINE
8
BLACK
6
CONTINUOUS
10
141.603
20
-110.488
11
141.637
21
-110.494
0
LINE
8
BLACK
6
CONTINUOUS
10
141.637
20
-110.494
11
141.667
21
-110.511
0
LINE
8
BLACK
6
CONTINUOUS
10
141.667
20
-110.511
11
141.689
21
-110.538
0
LINE
8
BLACK
6
CONTINUOUS
10
141.689
20
-110.538
11
141.701
21
-110.571
0
LINE
8
BLACK
6
CONTINUOUS
10
141.701
20
-110.571
11
141.701
21
-110.605
0
LINE
8
BLACK
6
CONTINUOUS
10
141.701
20
-110.605
11
141.689
21
-110.638
0
LINE
8
BLACK
6
CONTINUOUS
10
141.689
20
-110.638
11
141.667
21
-110.665
0
LINE
8
BLACK
6
CONTINUOUS
10
141.667
20
-110.665
11
141.637
21
-110.682
0
LINE
8
BLACK
6
CONTINUOUS
10
141.637
20
-110.682
11
141.603
21
-110.688
0
LINE
8
BLACK
6
CONTINUOUS
10
141.603
20
-110.688
11
141.013
21
-110.688
0
LINE
8
BLACK
6
CONTINUOUS
10
141.013
20
-110.688
11
141.009
21
-110.695
0
LINE
8
BLACK
6
CONTINUOUS
10
141.009
20
-110.695
11
141.005
21
-110.698
0
LINE
8
BLACK
6
CONTINUOUS
10
141.005
20
-110.698
11
141.003
21
-110.702
0
LINE
8
BLACK
6
CONTINUOUS
10
141.003
20
-110.702
11
140.908
21
-110.797
0
LINE
8
BLACK
6
CONTINUOUS
10
140.908
20
-110.797
11
140.904
21
-110.8
0
LINE
8
BLACK
6
CONTINUOUS
10
140.904
20
-110.8
11
140.901
21
-110.803
0
LINE
8
BLACK
6
CONTINUOUS
10
140.901
20
-110.803
11
140.893
21
-110.807
0
LINE
8
BLACK
6
CONTINUOUS
10
140.893
20
-110.807
11
140.886
21
-110.812
0
LINE
8
BLACK
6
CONTINUOUS
10
140.886
20
-110.812
11
140.882
21
-110.813
0
LINE
8
BLACK
6
CONTINUOUS
10
140.882
20
-110.813
11
140.878
21
-110.815
0
LINE
8
BLACK
6
CONTINUOUS
10
140.878
20
-110.815
11
140.735
21
-110.863
0
LINE
8
BLACK
6
CONTINUOUS
10
140.735
20
-110.863
11
140.724
21
-110.865
0
LINE
8
BLACK
6
CONTINUOUS
10
140.724
20
-110.865
11
140.712
21
-110.867
0
LINE
8
BLACK
6
CONTINUOUS
10
140.712
20
-110.867
11
140.687
21
-110.867
0
LINE
8
BLACK
6
CONTINUOUS
10
140.687
20
-110.867
11
140.687
21
-110.951
0
LINE
8
BLACK
6
CONTINUOUS
10
140.687
20
-110.951
11
140.717
21
-111.013
0
LINE
8
BLACK
6
CONTINUOUS
10
140.717
20
-111.013
11
140.743
21
-111.038
0
LINE
8
BLACK
6
CONTINUOUS
10
140.743
20
-111.038
11
140.804
21
-111.069
0
LINE
8
BLACK
6
CONTINUOUS
10
140.804
20
-111.069
11
141.603
21
-111.069
0
LINE
8
BLACK
6
CONTINUOUS
10
141.603
20
-111.069
11
141.637
21
-111.075
0
LINE
8
BLACK
6
CONTINUOUS
10
141.637
20
-111.075
11
141.667
21
-111.092
0
LINE
8
BLACK
6
CONTINUOUS
10
141.667
20
-111.092
11
141.689
21
-111.119
0
LINE
8
BLACK
6
CONTINUOUS
10
141.689
20
-111.119
11
141.701
21
-111.151
0
LINE
8
BLACK
6
CONTINUOUS
10
141.701
20
-111.151
11
141.701
21
-111.186
0
LINE
8
BLACK
6
CONTINUOUS
10
141.701
20
-111.186
11
141.689
21
-111.219
0
LINE
8
BLACK
6
CONTINUOUS
10
141.689
20
-111.219
11
141.667
21
-111.245
0
LINE
8
BLACK
6
CONTINUOUS
10
141.667
20
-111.245
11
141.637
21
-111.263
0
LINE
8
BLACK
6
CONTINUOUS
10
141.637
20
-111.263
11
141.603
21
-111.269
0
LINE
8
BLACK
6
CONTINUOUS
10
141.603
20
-111.269
11
141.072
21
-111.269
0
LINE
8
BLACK
6
CONTINUOUS
10
141.072
20
-111.269
11
141.072
21
-111.504
0
LINE
8
BLACK
6
CONTINUOUS
10
141.072
20
-111.504
11
141.264
21
-111.504
0
LINE
8
BLACK
6
CONTINUOUS
10
141.264
20
-111.504
11
141.276
21
-111.506
0
LINE
8
BLACK
6
CONTINUOUS
10
141.276
20
-111.506
11
141.288
21
-111.507
0
LINE
8
BLACK
6
CONTINUOUS
10
141.288
20
-111.507
11
141.482
21
-111.555
0
LINE
8
BLACK
6
CONTINUOUS
10
141.482
20
-111.555
11
141.49
21
-111.559
0
LINE
8
BLACK
6
CONTINUOUS
10
141.49
20
-111.559
11
141.5
21
-111.562
0
LINE
8
BLACK
6
CONTINUOUS
10
141.5
20
-111.562
11
141.506
21
-111.566
0
LINE
8
BLACK
6
CONTINUOUS
10
141.506
20
-111.566
11
141.513
21
-111.569
0
LINE
8
BLACK
6
CONTINUOUS
10
141.513
20
-111.569
11
141.52
21
-111.576
0
LINE
8
BLACK
6
CONTINUOUS
10
141.52
20
-111.576
11
141.528
21
-111.582
0
LINE
8
BLACK
6
CONTINUOUS
10
141.528
20
-111.582
11
141.625
21
-111.678
0
LINE
8
BLACK
6
CONTINUOUS
10
141.625
20
-111.678
11
141.634
21
-111.692
0
LINE
8
BLACK
6
CONTINUOUS
10
141.634
20
-111.692
11
141.644
21
-111.704
0
LINE
8
BLACK
6
CONTINUOUS
10
141.644
20
-111.704
11
141.692
21
-111.801
0
LINE
8
BLACK
6
CONTINUOUS
10
141.692
20
-111.801
11
141.694
21
-111.807
0
LINE
8
BLACK
6
CONTINUOUS
10
141.694
20
-111.807
11
141.697
21
-111.812
0
LINE
8
BLACK
6
CONTINUOUS
10
141.697
20
-111.812
11
141.699
21
-111.823
0
LINE
8
BLACK
6
CONTINUOUS
10
141.699
20
-111.823
11
141.702
21
-111.834
0
LINE
8
BLACK
6
CONTINUOUS
10
141.702
20
-111.834
11
141.702
21
-111.84
0
LINE
8
BLACK
6
CONTINUOUS
10
141.702
20
-111.84
11
141.703
21
-111.846
0
LINE
8
BLACK
6
CONTINUOUS
10
141.703
20
-111.846
11
141.703
21
-112.039
0
LINE
8
BLACK
6
CONTINUOUS
10
141.703
20
-112.039
11
141.702
21
-112.045
0
LINE
8
BLACK
6
CONTINUOUS
10
141.702
20
-112.045
11
141.702
21
-112.051
0
LINE
8
BLACK
6
CONTINUOUS
10
141.702
20
-112.051
11
141.699
21
-112.062
0
LINE
8
BLACK
6
CONTINUOUS
10
141.699
20
-112.062
11
141.697
21
-112.074
0
LINE
8
BLACK
6
CONTINUOUS
10
141.697
20
-112.074
11
141.694
21
-112.079
0
LINE
8
BLACK
6
CONTINUOUS
10
141.694
20
-112.079
11
141.692
21
-112.084
0
LINE
8
BLACK
6
CONTINUOUS
10
141.692
20
-112.084
11
141.644
21
-112.181
0
LINE
8
BLACK
6
CONTINUOUS
10
141.644
20
-112.181
11
141.634
21
-112.194
0
LINE
8
BLACK
6
CONTINUOUS
10
141.634
20
-112.194
11
141.625
21
-112.207
0
LINE
8
BLACK
6
CONTINUOUS
10
141.625
20
-112.207
11
141.528
21
-112.304
0
LINE
8
BLACK
6
CONTINUOUS
10
141.528
20
-112.304
11
141.52
21
-112.309
0
LINE
8
BLACK
6
CONTINUOUS
10
141.52
20
-112.309
11
141.513
21
-112.316
0
LINE
8
BLACK
6
CONTINUOUS
10
141.513
20
-112.316
11
141.506
21
-112.319
0
LINE
8
BLACK
6
CONTINUOUS
10
141.506
20
-112.319
11
141.5
21
-112.324
0
LINE
8
BLACK
6
CONTINUOUS
10
141.5
20
-112.324
11
141.49
21
-112.326
0
LINE
8
BLACK
6
CONTINUOUS
10
141.49
20
-112.326
11
141.482
21
-112.33
0
LINE
8
BLACK
6
CONTINUOUS
10
141.482
20
-112.33
11
141.288
21
-112.378
0
LINE
8
BLACK
6
CONTINUOUS
10
141.288
20
-112.378
11
141.276
21
-112.379
0
LINE
8
BLACK
6
CONTINUOUS
10
141.276
20
-112.379
11
141.264
21
-112.381
0
LINE
8
BLACK
6
CONTINUOUS
10
141.264
20
-112.381
11
140.925
21
-112.381
0
LINE
8
BLACK
6
CONTINUOUS
10
140.925
20
-112.381
11
140.913
21
-112.379
0
LINE
8
BLACK
6
CONTINUOUS
10
140.913
20
-112.379
11
140.901
21
-112.378
0
LINE
8
BLACK
6
CONTINUOUS
10
140.901
20
-112.378
11
140.707
21
-112.33
0
LINE
8
BLACK
6
CONTINUOUS
10
140.707
20
-112.33
11
140.699
21
-112.326
0
LINE
8
BLACK
6
CONTINUOUS
10
140.699
20
-112.326
11
140.689
21
-112.324
0
LINE
8
BLACK
6
CONTINUOUS
10
140.689
20
-112.324
11
140.683
21
-112.319
0
LINE
8
BLACK
6
CONTINUOUS
10
140.683
20
-112.319
11
140.676
21
-112.316
0
LINE
8
BLACK
6
CONTINUOUS
10
140.676
20
-112.316
11
140.669
21
-112.309
0
LINE
8
BLACK
6
CONTINUOUS
10
140.669
20
-112.309
11
140.661
21
-112.304
0
LINE
8
BLACK
6
CONTINUOUS
10
140.661
20
-112.304
11
140.564
21
-112.207
0
LINE
8
BLACK
6
CONTINUOUS
10
140.564
20
-112.207
11
140.555
21
-112.194
0
LINE
8
BLACK
6
CONTINUOUS
10
140.555
20
-112.194
11
140.546
21
-112.181
0
LINE
8
BLACK
6
CONTINUOUS
10
140.546
20
-112.181
11
140.497
21
-112.084
0
LINE
8
BLACK
6
CONTINUOUS
10
140.497
20
-112.084
11
140.495
21
-112.079
0
LINE
8
BLACK
6
CONTINUOUS
10
140.495
20
-112.079
11
140.493
21
-112.074
0
LINE
8
BLACK
6
CONTINUOUS
10
140.493
20
-112.074
11
140.491
21
-112.062
0
LINE
8
BLACK
6
CONTINUOUS
10
140.491
20
-112.062
11
140.487
21
-112.051
0
LINE
8
BLACK
6
CONTINUOUS
10
140.487
20
-112.051
11
140.488
21
-112.045
0
LINE
8
BLACK
6
CONTINUOUS
10
140.488
20
-112.045
11
140.487
21
-112.039
0
LINE
8
BLACK
6
CONTINUOUS
10
140.487
20
-112.039
11
140.487
21
-111.846
0
LINE
8
BLACK
6
CONTINUOUS
10
140.487
20
-111.846
11
140.488
21
-111.84
0
LINE
8
BLACK
6
CONTINUOUS
10
140.488
20
-111.84
11
140.487
21
-111.834
0
LINE
8
BLACK
6
CONTINUOUS
10
140.487
20
-111.834
11
140.491
21
-111.823
0
LINE
8
BLACK
6
CONTINUOUS
10
140.491
20
-111.823
11
140.493
21
-111.812
0
LINE
8
BLACK
6
CONTINUOUS
10
140.493
20
-111.812
11
140.495
21
-111.807
0
LINE
8
BLACK
6
CONTINUOUS
10
140.495
20
-111.807
11
140.497
21
-111.801
0
LINE
8
BLACK
6
CONTINUOUS
10
140.497
20
-111.801
11
140.519
21
-111.757
0
LINE
8
BLACK
6
CONTINUOUS
10
140.519
20
-111.757
11
140.479
21
-111.797
0
LINE
8
BLACK
6
CONTINUOUS
10
140.479
20
-111.797
11
140.475
21
-111.8
0
LINE
8
BLACK
6
CONTINUOUS
10
140.475
20
-111.8
11
140.473
21
-111.803
0
LINE
8
BLACK
6
CONTINUOUS
10
140.473
20
-111.803
11
140.465
21
-111.807
0
LINE
8
BLACK
6
CONTINUOUS
10
140.465
20
-111.807
11
140.458
21
-111.812
0
LINE
8
BLACK
6
CONTINUOUS
10
140.458
20
-111.812
11
140.453
21
-111.813
0
LINE
8
BLACK
6
CONTINUOUS
10
140.453
20
-111.813
11
140.45
21
-111.815
0
LINE
8
BLACK
6
CONTINUOUS
10
140.45
20
-111.815
11
140.307
21
-111.863
0
LINE
8
BLACK
6
CONTINUOUS
10
140.307
20
-111.863
11
140.295
21
-111.865
0
LINE
8
BLACK
6
CONTINUOUS
10
140.295
20
-111.865
11
140.283
21
-111.867
0
LINE
8
BLACK
6
CONTINUOUS
10
140.283
20
-111.867
11
140.188
21
-111.867
0
LINE
8
BLACK
6
CONTINUOUS
10
140.188
20
-111.867
11
140.184
21
-111.866
0
LINE
8
BLACK
6
CONTINUOUS
10
140.184
20
-111.866
11
140.179
21
-111.866
0
LINE
8
BLACK
6
CONTINUOUS
10
140.179
20
-111.866
11
140.171
21
-111.864
0
LINE
8
BLACK
6
CONTINUOUS
10
140.171
20
-111.864
11
140.162
21
-111.862
0
LINE
8
BLACK
6
CONTINUOUS
10
140.162
20
-111.862
11
140.158
21
-111.86
0
LINE
8
BLACK
6
CONTINUOUS
10
140.158
20
-111.86
11
140.154
21
-111.859
0
LINE
8
BLACK
6
CONTINUOUS
10
140.154
20
-111.859
11
140.059
21
-111.811
0
LINE
8
BLACK
6
CONTINUOUS
10
140.059
20
-111.811
11
140.049
21
-111.804
0
LINE
8
BLACK
6
CONTINUOUS
10
140.049
20
-111.804
11
140.04
21
-111.797
0
LINE
8
BLACK
6
CONTINUOUS
10
140.04
20
-111.797
11
139.992
21
-111.749
0
LINE
8
BLACK
6
CONTINUOUS
10
139.992
20
-111.749
11
139.985
21
-111.74
0
LINE
8
BLACK
6
CONTINUOUS
10
139.985
20
-111.74
11
139.978
21
-111.73
0
LINE
8
BLACK
6
CONTINUOUS
10
139.978
20
-111.73
11
139.93
21
-111.635
0
LINE
8
BLACK
6
CONTINUOUS
10
139.93
20
-111.635
11
139.929
21
-111.631
0
LINE
8
BLACK
6
CONTINUOUS
10
139.929
20
-111.631
11
139.927
21
-111.627
0
LINE
8
BLACK
6
CONTINUOUS
10
139.927
20
-111.627
11
139.925
21
-111.618
0
LINE
8
BLACK
6
CONTINUOUS
10
139.925
20
-111.618
11
139.923
21
-111.61
0
LINE
8
BLACK
6
CONTINUOUS
10
139.923
20
-111.61
11
139.923
21
-111.605
0
LINE
8
BLACK
6
CONTINUOUS
10
139.923
20
-111.605
11
139.922
21
-111.601
0
LINE
8
BLACK
6
CONTINUOUS
10
139.922
20
-111.601
11
139.922
21
-111.363
0
LINE
8
BLACK
6
CONTINUOUS
10
139.922
20
-111.363
11
139.923
21
-111.359
0
LINE
8
BLACK
6
CONTINUOUS
10
139.923
20
-111.359
11
139.923
21
-111.355
0
LINE
8
BLACK
6
CONTINUOUS
10
139.923
20
-111.355
11
139.925
21
-111.346
0
LINE
8
BLACK
6
CONTINUOUS
10
139.925
20
-111.346
11
139.927
21
-111.337
0
LINE
8
BLACK
6
CONTINUOUS
10
139.927
20
-111.337
11
139.929
21
-111.334
0
LINE
8
BLACK
6
CONTINUOUS
10
139.929
20
-111.334
11
139.93
21
-111.33
0
LINE
8
BLACK
6
CONTINUOUS
10
139.93
20
-111.33
11
139.978
21
-111.234
0
LINE
8
BLACK
6
CONTINUOUS
10
139.978
20
-111.234
11
139.985
21
-111.225
0
LINE
8
BLACK
6
CONTINUOUS
10
139.985
20
-111.225
11
139.992
21
-111.215
0
LINE
8
BLACK
6
CONTINUOUS
10
139.992
20
-111.215
11
140.04
21
-111.167
0
LINE
8
BLACK
6
CONTINUOUS
10
140.04
20
-111.167
11
140.061
21
-111.152
0
LINE
8
BLACK
6
CONTINUOUS
10
140.061
20
-111.152
11
140.086
21
-111.146
0
LINE
8
BLACK
6
CONTINUOUS
10
140.086
20
-111.146
11
140.112
21
-111.148
0
LINE
8
BLACK
6
CONTINUOUS
10
140.112
20
-111.148
11
140.136
21
-111.159
0
LINE
8
BLACK
6
CONTINUOUS
10
140.136
20
-111.159
11
140.154
21
-111.177
0
LINE
8
BLACK
6
CONTINUOUS
10
140.154
20
-111.177
11
140.165
21
-111.201
0
LINE
8
BLACK
6
CONTINUOUS
10
140.165
20
-111.201
11
140.167
21
-111.227
0
LINE
8
BLACK
6
CONTINUOUS
10
140.167
20
-111.227
11
140.161
21
-111.252
0
LINE
8
BLACK
6
CONTINUOUS
10
140.161
20
-111.252
11
140.146
21
-111.273
0
LINE
8
BLACK
6
CONTINUOUS
10
140.146
20
-111.273
11
140.107
21
-111.312
0
LINE
8
BLACK
6
CONTINUOUS
10
140.107
20
-111.312
11
140.072
21
-111.381
0
LINE
8
BLACK
6
CONTINUOUS
10
140.072
20
-111.381
11
140.072
21
-111.583
0
LINE
8
BLACK
6
CONTINUOUS
10
140.072
20
-111.583
11
140.107
21
-111.652
0
LINE
8
BLACK
6
CONTINUOUS
10
140.107
20
-111.652
11
140.137
21
-111.682
0
LINE
8
BLACK
6
CONTINUOUS
10
140.137
20
-111.682
11
140.206
21
-111.717
0
LINE
8
BLACK
6
CONTINUOUS
10
140.206
20
-111.717
11
140.271
21
-111.717
0
LINE
8
BLACK
6
CONTINUOUS
10
140.271
20
-111.717
11
140.385
21
-111.678
0
LINE
8
BLACK
6
CONTINUOUS
10
140.385
20
-111.678
11
140.795
21
-111.269
0
LINE
8
BLACK
6
CONTINUOUS
10
140.795
20
-111.269
11
140.78
21
-111.269
0
LINE
8
BLACK
6
CONTINUOUS
10
140.78
20
-111.269
11
140.774
21
-111.268
0
LINE
8
BLACK
6
CONTINUOUS
10
140.774
20
-111.268
11
140.769
21
-111.268
0
LINE
8
BLACK
6
CONTINUOUS
10
140.769
20
-111.268
11
140.757
21
-111.265
0
LINE
8
BLACK
6
CONTINUOUS
10
140.757
20
-111.265
11
140.746
21
-111.263
0
LINE
8
BLACK
6
CONTINUOUS
10
140.746
20
-111.263
11
140.741
21
-111.26
0
LINE
8
BLACK
6
CONTINUOUS
10
140.741
20
-111.26
11
140.735
21
-111.258
0
LINE
8
BLACK
6
CONTINUOUS
10
140.735
20
-111.258
11
140.639
21
-111.21
0
LINE
8
BLACK
6
CONTINUOUS
10
140.639
20
-111.21
11
140.626
21
-111.2
0
LINE
8
BLACK
6
CONTINUOUS
10
140.626
20
-111.2
11
140.613
21
-111.191
0
LINE
8
BLACK
6
CONTINUOUS
10
140.613
20
-111.191
11
140.564
21
-111.142
0
LINE
8
BLACK
6
CONTINUOUS
10
140.564
20
-111.142
11
140.555
21
-111.129
0
LINE
8
BLACK
6
CONTINUOUS
10
140.555
20
-111.129
11
140.546
21
-111.117
0
LINE
8
BLACK
6
CONTINUOUS
10
140.546
20
-111.117
11
140.497
21
-111.02
0
LINE
8
BLACK
6
CONTINUOUS
10
140.497
20
-111.02
11
140.495
21
-111.014
0
LINE
8
BLACK
6
CONTINUOUS
10
140.495
20
-111.014
11
140.493
21
-111.009
0
LINE
8
BLACK
6
CONTINUOUS
10
140.493
20
-111.009
11
140.491
21
-110.998
0
LINE
8
BLACK
6
CONTINUOUS
10
140.491
20
-110.998
11
140.487
21
-110.986
0
LINE
8
BLACK
6
CONTINUOUS
10
140.487
20
-110.986
11
140.488
21
-110.981
0
LINE
8
BLACK
6
CONTINUOUS
10
140.488
20
-110.981
11
140.487
21
-110.975
0
LINE
8
BLACK
6
CONTINUOUS
10
140.487
20
-110.975
11
140.487
21
-110.867
0
LINE
8
BLACK
6
CONTINUOUS
10
140.487
20
-110.867
11
139.997
21
-110.867
0
LINE
8
BLACK
6
CONTINUOUS
10
139.997
20
-110.867
11
139.972
21
-110.862
0
LINE
8
BLACK
6
CONTINUOUS
10
139.972
20
-110.862
11
139.949
21
-110.849
0
LINE
8
BLACK
6
CONTINUOUS
10
139.949
20
-110.849
11
139.932
21
-110.829
0
LINE
8
BLACK
6
CONTINUOUS
10
139.932
20
-110.829
11
139.924
21
-110.805
0
LINE
8
BLACK
6
CONTINUOUS
10
139.924
20
-110.805
11
139.924
21
-110.779
0
LINE
8
BLACK
6
CONTINUOUS
10
139.924
20
-110.779
11
139.932
21
-110.754
0
LINE
8
BLACK
6
CONTINUOUS
10
139.932
20
-110.754
11
139.949
21
-110.734
0
LINE
8
BLACK
6
CONTINUOUS
10
139.949
20
-110.734
11
139.972
21
-110.721
0
LINE
8
BLACK
6
CONTINUOUS
10
139.972
20
-110.721
11
139.997
21
-110.717
0
LINE
8
BLACK
6
CONTINUOUS
10
139.997
20
-110.717
11
140.507
21
-110.717
0
LINE
8
BLACK
6
CONTINUOUS
10
140.507
20
-110.717
11
140.546
21
-110.64
0
LINE
8
BLACK
6
CONTINUOUS
10
140.546
20
-110.64
11
140.555
21
-110.627
0
LINE
8
BLACK
6
CONTINUOUS
10
140.555
20
-110.627
11
140.564
21
-110.614
0
LINE
8
BLACK
6
CONTINUOUS
10
140.564
20
-110.614
11
140.613
21
-110.566
0
LINE
8
BLACK
6
CONTINUOUS
10
140.613
20
-110.566
11
140.626
21
-110.556
0
LINE
8
BLACK
6
CONTINUOUS
10
140.626
20
-110.556
11
140.639
21
-110.547
0
LINE
8
BLACK
6
CONTINUOUS
10
140.639
20
-110.547
11
140.735
21
-110.499
0
LINE
8
BLACK
6
CONTINUOUS
10
140.735
20
-110.499
11
140.741
21
-110.497
0
LINE
8
BLACK
6
CONTINUOUS
10
140.741
20
-110.497
11
140.746
21
-110.494
0
LINE
8
BLACK
6
CONTINUOUS
10
140.746
20
-110.494
11
140.757
21
-110.492
0
LINE
8
BLACK
6
CONTINUOUS
10
140.757
20
-110.492
11
140.769
21
-110.489
0
LINE
8
BLACK
6
CONTINUOUS
10
140.769
20
-110.489
11
140.774
21
-110.489
0
LINE
8
BLACK
6
CONTINUOUS
10
140.774
20
-110.489
11
140.78
21
-110.488
0
LINE
8
BLACK
6
CONTINUOUS
10
140.78
20
-110.488
11
140.922
21
-110.488
0
LINE
8
BLACK
6
CONTINUOUS
10
140.922
20
-110.488
11
140.922
21
-110.411
0
LINE
8
BLACK
6
CONTINUOUS
10
140.922
20
-110.411
11
140.927
21
-110.385
0
LINE
8
BLACK
6
CONTINUOUS
10
140.927
20
-110.385
11
140.94
21
-110.363
0
LINE
8
BLACK
6
CONTINUOUS
10
140.94
20
-110.363
11
140.96
21
-110.346
0
LINE
8
BLACK
6
CONTINUOUS
10
140.96
20
-110.346
11
140.984
21
-110.337
0
LINE
8
BLACK
6
CONTINUOUS
10
140.984
20
-110.337
11
141.01
21
-110.337
0
LINE
8
BLACK
6
CONTINUOUS
10
141.01
20
-110.337
11
141.035
21
-110.346
0
LINE
8
BLACK
6
CONTINUOUS
10
141.072
20
-111.704
11
141.072
21
-111.792
0
LINE
8
BLACK
6
CONTINUOUS
10
141.072
20
-111.792
11
141.068
21
-111.817
0
LINE
8
BLACK
6
CONTINUOUS
10
141.068
20
-111.817
11
141.055
21
-111.84
0
LINE
8
BLACK
6
CONTINUOUS
10
141.055
20
-111.84
11
141.035
21
-111.857
0
LINE
8
BLACK
6
CONTINUOUS
10
141.035
20
-111.857
11
141.01
21
-111.866
0
LINE
8
BLACK
6
CONTINUOUS
10
141.01
20
-111.866
11
140.984
21
-111.866
0
LINE
8
BLACK
6
CONTINUOUS
10
140.984
20
-111.866
11
140.96
21
-111.857
0
LINE
8
BLACK
6
CONTINUOUS
10
140.96
20
-111.857
11
140.94
21
-111.84
0
LINE
8
BLACK
6
CONTINUOUS
10
140.94
20
-111.84
11
140.927
21
-111.817
0
LINE
8
BLACK
6
CONTINUOUS
10
140.927
20
-111.817
11
140.922
21
-111.792
0
LINE
8
BLACK
6
CONTINUOUS
10
140.922
20
-111.792
11
140.922
21
-111.708
0
LINE
8
BLACK
6
CONTINUOUS
10
140.922
20
-111.708
11
140.783
21
-111.743
0
LINE
8
BLACK
6
CONTINUOUS
10
140.783
20
-111.743
11
140.717
21
-111.808
0
LINE
8
BLACK
6
CONTINUOUS
10
140.717
20
-111.808
11
140.687
21
-111.869
0
LINE
8
BLACK
6
CONTINUOUS
10
140.687
20
-111.869
11
140.687
21
-112.016
0
LINE
8
BLACK
6
CONTINUOUS
10
140.687
20
-112.016
11
140.717
21
-112.077
0
LINE
8
BLACK
6
CONTINUOUS
10
140.717
20
-112.077
11
140.783
21
-112.143
0
LINE
8
BLACK
6
CONTINUOUS
10
140.783
20
-112.143
11
140.938
21
-112.181
0
LINE
8
BLACK
6
CONTINUOUS
10
140.938
20
-112.181
11
141.252
21
-112.181
0
LINE
8
BLACK
6
CONTINUOUS
10
141.252
20
-112.181
11
141.406
21
-112.143
0
LINE
8
BLACK
6
CONTINUOUS
10
141.406
20
-112.143
11
141.472
21
-112.077
0
LINE
8
BLACK
6
CONTINUOUS
10
141.472
20
-112.077
11
141.503
21
-112.016
0
LINE
8
BLACK
6
CONTINUOUS
10
141.503
20
-112.016
11
141.503
21
-111.869
0
LINE
8
BLACK
6
CONTINUOUS
10
141.503
20
-111.869
11
141.472
21
-111.808
0
LINE
8
BLACK
6
CONTINUOUS
10
141.472
20
-111.808
11
141.406
21
-111.743
0
LINE
8
BLACK
6
CONTINUOUS
10
141.406
20
-111.743
11
141.252
21
-111.704
0
LINE
8
BLACK
6
CONTINUOUS
10
141.252
20
-111.704
11
141.072
21
-111.704
0
LINE
8
BLACK
6
CONTINUOUS
10
140.725
20
-111.551
11
140.901
21
-111.507
0
LINE
8
BLACK
6
CONTINUOUS
10
140.901
20
-111.507
11
140.913
21
-111.506
0
LINE
8
BLACK
6
CONTINUOUS
10
140.913
20
-111.506
11
140.922
21
-111.504
0
LINE
8
BLACK
6
CONTINUOUS
10
140.922
20
-111.504
11
140.922
21
-111.354
0
LINE
8
BLACK
6
CONTINUOUS
10
140.922
20
-111.354
11
140.725
21
-111.551
0
LINE
8
BLACK
6
CONTINUOUS
10
147.809
20
-110.588
11
147.839
21
-110.606
0
LINE
8
BLACK
6
CONTINUOUS
10
147.839
20
-110.606
11
147.861
21
-110.632
0
LINE
8
BLACK
6
CONTINUOUS
10
147.861
20
-110.632
11
147.873
21
-110.665
0
LINE
8
BLACK
6
CONTINUOUS
10
147.873
20
-110.665
11
147.873
21
-110.7
0
LINE
8
BLACK
6
CONTINUOUS
10
147.873
20
-110.7
11
147.861
21
-110.732
0
LINE
8
BLACK
6
CONTINUOUS
10
147.861
20
-110.732
11
147.839
21
-110.759
0
LINE
8
BLACK
6
CONTINUOUS
10
147.839
20
-110.759
11
147.809
21
-110.776
0
LINE
8
BLACK
6
CONTINUOUS
10
147.809
20
-110.776
11
147.775
21
-110.782
0
LINE
8
BLACK
6
CONTINUOUS
10
147.775
20
-110.782
11
147.135
21
-110.782
0
LINE
8
BLACK
6
CONTINUOUS
10
147.135
20
-110.782
11
147.824
21
-111.176
0
LINE
8
BLACK
6
CONTINUOUS
10
147.824
20
-111.176
11
147.831
21
-111.182
0
LINE
8
BLACK
6
CONTINUOUS
10
147.831
20
-111.182
11
147.839
21
-111.186
0
LINE
8
BLACK
6
CONTINUOUS
10
147.839
20
-111.186
11
147.845
21
-111.193
0
LINE
8
BLACK
6
CONTINUOUS
10
147.845
20
-111.193
11
147.851
21
-111.198
0
LINE
8
BLACK
6
CONTINUOUS
10
147.851
20
-111.198
11
147.856
21
-111.206
0
LINE
8
BLACK
6
CONTINUOUS
10
147.856
20
-111.206
11
147.861
21
-111.213
0
LINE
8
BLACK
6
CONTINUOUS
10
147.861
20
-111.213
11
147.864
21
-111.221
0
LINE
8
BLACK
6
CONTINUOUS
10
147.864
20
-111.221
11
147.869
21
-111.228
0
LINE
8
BLACK
6
CONTINUOUS
10
147.869
20
-111.228
11
147.87
21
-111.237
0
LINE
8
BLACK
6
CONTINUOUS
10
147.87
20
-111.237
11
147.873
21
-111.246
0
LINE
8
BLACK
6
CONTINUOUS
10
147.873
20
-111.246
11
147.873
21
-111.254
0
LINE
8
BLACK
6
CONTINUOUS
10
147.873
20
-111.254
11
147.875
21
-111.262
0
LINE
8
BLACK
6
CONTINUOUS
10
147.875
20
-111.262
11
147.873
21
-111.271
0
LINE
8
BLACK
6
CONTINUOUS
10
147.873
20
-111.271
11
147.873
21
-111.28
0
LINE
8
BLACK
6
CONTINUOUS
10
147.873
20
-111.28
11
147.87
21
-111.288
0
LINE
8
BLACK
6
CONTINUOUS
10
147.87
20
-111.288
11
147.869
21
-111.297
0
LINE
8
BLACK
6
CONTINUOUS
10
147.869
20
-111.297
11
147.864
21
-111.304
0
LINE
8
BLACK
6
CONTINUOUS
10
147.864
20
-111.304
11
147.861
21
-111.313
0
LINE
8
BLACK
6
CONTINUOUS
10
147.861
20
-111.313
11
147.856
21
-111.319
0
LINE
8
BLACK
6
CONTINUOUS
10
147.856
20
-111.319
11
147.852
21
-111.327
0
LINE
8
BLACK
6
CONTINUOUS
10
147.852
20
-111.327
11
147.845
21
-111.333
0
LINE
8
BLACK
6
CONTINUOUS
10
147.845
20
-111.333
11
147.839
21
-111.339
0
LINE
8
BLACK
6
CONTINUOUS
10
147.839
20
-111.339
11
147.832
21
-111.344
0
LINE
8
BLACK
6
CONTINUOUS
10
147.832
20
-111.344
11
147.825
21
-111.349
0
LINE
8
BLACK
6
CONTINUOUS
10
147.825
20
-111.349
11
147.817
21
-111.352
0
LINE
8
BLACK
6
CONTINUOUS
10
147.817
20
-111.352
11
147.809
21
-111.357
0
LINE
8
BLACK
6
CONTINUOUS
10
147.809
20
-111.357
11
147.801
21
-111.358
0
LINE
8
BLACK
6
CONTINUOUS
10
147.801
20
-111.358
11
147.793
21
-111.361
0
LINE
8
BLACK
6
CONTINUOUS
10
147.793
20
-111.361
11
147.784
21
-111.361
0
LINE
8
BLACK
6
CONTINUOUS
10
147.784
20
-111.361
11
147.775
21
-111.363
0
LINE
8
BLACK
6
CONTINUOUS
10
147.775
20
-111.363
11
146.759
21
-111.363
0
LINE
8
BLACK
6
CONTINUOUS
10
146.759
20
-111.363
11
146.725
21
-111.357
0
LINE
8
BLACK
6
CONTINUOUS
10
146.725
20
-111.357
11
146.695
21
-111.339
0
LINE
8
BLACK
6
CONTINUOUS
10
146.695
20
-111.339
11
146.672
21
-111.313
0
LINE
8
BLACK
6
CONTINUOUS
10
146.672
20
-111.313
11
146.66
21
-111.28
0
LINE
8
BLACK
6
CONTINUOUS
10
146.66
20
-111.28
11
146.66
21
-111.246
0
LINE
8
BLACK
6
CONTINUOUS
10
146.66
20
-111.246
11
146.672
21
-111.213
0
LINE
8
BLACK
6
CONTINUOUS
10
146.672
20
-111.213
11
146.695
21
-111.186
0
LINE
8
BLACK
6
CONTINUOUS
10
146.695
20
-111.186
11
146.725
21
-111.169
0
LINE
8
BLACK
6
CONTINUOUS
10
146.725
20
-111.169
11
146.759
21
-111.163
0
LINE
8
BLACK
6
CONTINUOUS
10
146.759
20
-111.163
11
147.398
21
-111.163
0
LINE
8
BLACK
6
CONTINUOUS
10
147.398
20
-111.163
11
146.709
21
-110.769
0
LINE
8
BLACK
6
CONTINUOUS
10
146.709
20
-110.769
11
146.702
21
-110.763
0
LINE
8
BLACK
6
CONTINUOUS
10
146.702
20
-110.763
11
146.695
21
-110.759
0
LINE
8
BLACK
6
CONTINUOUS
10
146.695
20
-110.759
11
146.689
21
-110.752
0
LINE
8
BLACK
6
CONTINUOUS
10
146.689
20
-110.752
11
146.682
21
-110.747
0
LINE
8
BLACK
6
CONTINUOUS
10
146.682
20
-110.747
11
146.678
21
-110.739
0
LINE
8
BLACK
6
CONTINUOUS
10
146.678
20
-110.739
11
146.672
21
-110.732
0
LINE
8
BLACK
6
CONTINUOUS
10
146.672
20
-110.732
11
146.669
21
-110.724
0
LINE
8
BLACK
6
CONTINUOUS
10
146.669
20
-110.724
11
146.665
21
-110.717
0
LINE
8
BLACK
6
CONTINUOUS
10
146.665
20
-110.717
11
146.663
21
-110.708
0
LINE
8
BLACK
6
CONTINUOUS
10
146.663
20
-110.708
11
146.66
21
-110.7
0
LINE
8
BLACK
6
CONTINUOUS
10
146.66
20
-110.7
11
146.66
21
-110.691
0
LINE
8
BLACK
6
CONTINUOUS
10
146.66
20
-110.691
11
146.659
21
-110.683
0
LINE
8
BLACK
6
CONTINUOUS
10
146.659
20
-110.683
11
146.66
21
-110.674
0
LINE
8
BLACK
6
CONTINUOUS
10
146.66
20
-110.674
11
146.66
21
-110.665
0
LINE
8
BLACK
6
CONTINUOUS
10
146.66
20
-110.665
11
146.663
21
-110.657
0
LINE
8
BLACK
6
CONTINUOUS
10
146.663
20
-110.657
11
146.665
21
-110.649
0
LINE
8
BLACK
6
CONTINUOUS
10
146.665
20
-110.649
11
146.669
21
-110.641
0
LINE
8
BLACK
6
CONTINUOUS
10
146.669
20
-110.641
11
146.672
21
-110.632
0
LINE
8
BLACK
6
CONTINUOUS
10
146.672
20
-110.632
11
146.678
21
-110.626
0
LINE
8
BLACK
6
CONTINUOUS
10
146.678
20
-110.626
11
146.682
21
-110.618
0
LINE
8
BLACK
6
CONTINUOUS
10
146.682
20
-110.618
11
146.689
21
-110.613
0
LINE
8
BLACK
6
CONTINUOUS
10
146.689
20
-110.613
11
146.695
21
-110.606
0
LINE
8
BLACK
6
CONTINUOUS
10
146.695
20
-110.606
11
146.702
21
-110.601
0
LINE
8
BLACK
6
CONTINUOUS
10
146.702
20
-110.601
11
146.708
21
-110.596
0
LINE
8
BLACK
6
CONTINUOUS
10
146.708
20
-110.596
11
146.717
21
-110.593
0
LINE
8
BLACK
6
CONTINUOUS
10
146.717
20
-110.593
11
146.725
21
-110.588
0
LINE
8
BLACK
6
CONTINUOUS
10
146.725
20
-110.588
11
146.733
21
-110.587
0
LINE
8
BLACK
6
CONTINUOUS
10
146.733
20
-110.587
11
146.741
21
-110.584
0
LINE
8
BLACK
6
CONTINUOUS
10
146.741
20
-110.584
11
146.75
21
-110.584
0
LINE
8
BLACK
6
CONTINUOUS
10
146.75
20
-110.584
11
146.759
21
-110.582
0
LINE
8
BLACK
6
CONTINUOUS
10
146.759
20
-110.582
11
147.775
21
-110.582
0
LINE
8
BLACK
6
CONTINUOUS
10
147.775
20
-110.582
11
147.809
21
-110.588
0
LINE
8
BLACK
6
CONTINUOUS
10
141.653
20
-109.582
11
141.679
21
-109.604
0
LINE
8
BLACK
6
CONTINUOUS
10
141.679
20
-109.604
11
141.697
21
-109.635
0
LINE
8
BLACK
6
CONTINUOUS
10
141.697
20
-109.635
11
141.703
21
-109.669
0
LINE
8
BLACK
6
CONTINUOUS
10
141.703
20
-109.669
11
141.703
21
-110.249
0
LINE
8
BLACK
6
CONTINUOUS
10
141.703
20
-110.249
11
141.697
21
-110.284
0
LINE
8
BLACK
6
CONTINUOUS
10
141.697
20
-110.284
11
141.679
21
-110.314
0
LINE
8
BLACK
6
CONTINUOUS
10
141.679
20
-110.314
11
141.653
21
-110.336
0
LINE
8
BLACK
6
CONTINUOUS
10
141.653
20
-110.336
11
141.62
21
-110.348
0
LINE
8
BLACK
6
CONTINUOUS
10
141.62
20
-110.348
11
141.585
21
-110.348
0
LINE
8
BLACK
6
CONTINUOUS
10
141.585
20
-110.348
11
141.553
21
-110.336
0
LINE
8
BLACK
6
CONTINUOUS
10
141.553
20
-110.336
11
141.526
21
-110.314
0
LINE
8
BLACK
6
CONTINUOUS
10
141.526
20
-110.314
11
141.509
21
-110.284
0
LINE
8
BLACK
6
CONTINUOUS
10
141.509
20
-110.284
11
141.503
21
-110.249
0
LINE
8
BLACK
6
CONTINUOUS
10
141.503
20
-110.249
11
141.503
21
-110.059
0
LINE
8
BLACK
6
CONTINUOUS
10
141.503
20
-110.059
11
140.587
21
-110.059
0
LINE
8
BLACK
6
CONTINUOUS
10
140.587
20
-110.059
11
140.552
21
-110.053
0
LINE
8
BLACK
6
CONTINUOUS
10
140.552
20
-110.053
11
140.522
21
-110.036
0
LINE
8
BLACK
6
CONTINUOUS
10
140.522
20
-110.036
11
140.5
21
-110.009
0
LINE
8
BLACK
6
CONTINUOUS
10
140.5
20
-110.009
11
140.488
21
-109.976
0
LINE
8
BLACK
6
CONTINUOUS
10
140.488
20
-109.976
11
140.488
21
-109.942
0
LINE
8
BLACK
6
CONTINUOUS
10
140.488
20
-109.942
11
140.5
21
-109.909
0
LINE
8
BLACK
6
CONTINUOUS
10
140.5
20
-109.909
11
140.522
21
-109.882
0
LINE
8
BLACK
6
CONTINUOUS
10
140.522
20
-109.882
11
140.552
21
-109.865
0
LINE
8
BLACK
6
CONTINUOUS
10
140.552
20
-109.865
11
140.587
21
-109.859
0
LINE
8
BLACK
6
CONTINUOUS
10
140.587
20
-109.859
11
141.503
21
-109.859
0
LINE
8
BLACK
6
CONTINUOUS
10
141.503
20
-109.859
11
141.503
21
-109.669
0
LINE
8
BLACK
6
CONTINUOUS
10
141.503
20
-109.669
11
141.509
21
-109.635
0
LINE
8
BLACK
6
CONTINUOUS
10
141.509
20
-109.635
11
141.526
21
-109.604
0
LINE
8
BLACK
6
CONTINUOUS
10
141.526
20
-109.604
11
141.553
21
-109.582
0
LINE
8
BLACK
6
CONTINUOUS
10
141.553
20
-109.582
11
141.585
21
-109.57
0
LINE
8
BLACK
6
CONTINUOUS
10
141.585
20
-109.57
11
141.62
21
-109.57
0
LINE
8
BLACK
6
CONTINUOUS
10
141.62
20
-109.57
11
141.653
21
-109.582
0
LINE
8
BLACK
6
CONTINUOUS
10
147.351
20
-109.52
11
147.364
21
-109.521
0
LINE
8
BLACK
6
CONTINUOUS
10
147.364
20
-109.521
11
147.557
21
-109.569
0
LINE
8
BLACK
6
CONTINUOUS
10
147.557
20
-109.569
11
147.567
21
-109.574
0
LINE
8
BLACK
6
CONTINUOUS
10
147.567
20
-109.574
11
147.578
21
-109.577
0
LINE
8
BLACK
6
CONTINUOUS
10
147.578
20
-109.577
11
147.674
21
-109.625
0
LINE
8
BLACK
6
CONTINUOUS
10
147.674
20
-109.625
11
147.687
21
-109.635
0
LINE
8
BLACK
6
CONTINUOUS
10
147.687
20
-109.635
11
147.7
21
-109.644
0
LINE
8
BLACK
6
CONTINUOUS
10
147.7
20
-109.644
11
147.797
21
-109.741
0
LINE
8
BLACK
6
CONTINUOUS
10
147.797
20
-109.741
11
147.8
21
-109.745
0
LINE
8
BLACK
6
CONTINUOUS
10
147.8
20
-109.745
11
147.805
21
-109.749
0
LINE
8
BLACK
6
CONTINUOUS
10
147.805
20
-109.749
11
147.81
21
-109.76
0
LINE
8
BLACK
6
CONTINUOUS
10
147.81
20
-109.76
11
147.817
21
-109.769
0
LINE
8
BLACK
6
CONTINUOUS
10
147.817
20
-109.769
11
147.819
21
-109.775
0
LINE
8
BLACK
6
CONTINUOUS
10
147.819
20
-109.775
11
147.821
21
-109.78
0
LINE
8
BLACK
6
CONTINUOUS
10
147.821
20
-109.78
11
147.87
21
-109.925
0
LINE
8
BLACK
6
CONTINUOUS
10
147.87
20
-109.925
11
147.872
21
-109.941
0
LINE
8
BLACK
6
CONTINUOUS
10
147.872
20
-109.941
11
147.875
21
-109.957
0
LINE
8
BLACK
6
CONTINUOUS
10
147.875
20
-109.957
11
147.875
21
-110.199
0
LINE
8
BLACK
6
CONTINUOUS
10
147.875
20
-110.199
11
147.873
21
-110.207
0
LINE
8
BLACK
6
CONTINUOUS
10
147.873
20
-110.207
11
147.873
21
-110.216
0
LINE
8
BLACK
6
CONTINUOUS
10
147.873
20
-110.216
11
147.87
21
-110.224
0
LINE
8
BLACK
6
CONTINUOUS
10
147.87
20
-110.224
11
147.869
21
-110.233
0
LINE
8
BLACK
6
CONTINUOUS
10
147.869
20
-110.233
11
147.864
21
-110.24
0
LINE
8
BLACK
6
CONTINUOUS
10
147.864
20
-110.24
11
147.861
21
-110.249
0
LINE
8
BLACK
6
CONTINUOUS
10
147.861
20
-110.249
11
147.856
21
-110.255
0
LINE
8
BLACK
6
CONTINUOUS
10
147.856
20
-110.255
11
147.851
21
-110.263
0
LINE
8
BLACK
6
CONTINUOUS
10
147.851
20
-110.263
11
147.845
21
-110.268
0
LINE
8
BLACK
6
CONTINUOUS
10
147.845
20
-110.268
11
147.839
21
-110.275
0
LINE
8
BLACK
6
CONTINUOUS
10
147.839
20
-110.275
11
147.831
21
-110.279
0
LINE
8
BLACK
6
CONTINUOUS
10
147.831
20
-110.279
11
147.825
21
-110.285
0
LINE
8
BLACK
6
CONTINUOUS
10
147.825
20
-110.285
11
147.817
21
-110.288
0
LINE
8
BLACK
6
CONTINUOUS
10
147.817
20
-110.288
11
147.809
21
-110.292
0
LINE
8
BLACK
6
CONTINUOUS
10
147.809
20
-110.292
11
147.8
21
-110.294
0
LINE
8
BLACK
6
CONTINUOUS
10
147.8
20
-110.294
11
147.792
21
-110.297
0
LINE
8
BLACK
6
CONTINUOUS
10
147.792
20
-110.297
11
147.783
21
-110.297
0
LINE
8
BLACK
6
CONTINUOUS
10
147.783
20
-110.297
11
147.775
21
-110.299
0
LINE
8
BLACK
6
CONTINUOUS
10
147.775
20
-110.299
11
146.759
21
-110.299
0
LINE
8
BLACK
6
CONTINUOUS
10
146.759
20
-110.299
11
146.75
21
-110.297
0
LINE
8
BLACK
6
CONTINUOUS
10
146.75
20
-110.297
11
146.741
21
-110.297
0
LINE
8
BLACK
6
CONTINUOUS
10
146.741
20
-110.297
11
146.733
21
-110.294
0
LINE
8
BLACK
6
CONTINUOUS
10
146.733
20
-110.294
11
146.725
21
-110.292
0
LINE
8
BLACK
6
CONTINUOUS
10
146.725
20
-110.292
11
146.717
21
-110.288
0
LINE
8
BLACK
6
CONTINUOUS
10
146.717
20
-110.288
11
146.709
21
-110.285
0
LINE
8
BLACK
6
CONTINUOUS
10
146.709
20
-110.285
11
146.702
21
-110.279
0
LINE
8
BLACK
6
CONTINUOUS
10
146.702
20
-110.279
11
146.695
21
-110.275
0
LINE
8
BLACK
6
CONTINUOUS
10
146.695
20
-110.275
11
146.689
21
-110.268
0
LINE
8
BLACK
6
CONTINUOUS
10
146.689
20
-110.268
11
146.682
21
-110.263
0
LINE
8
BLACK
6
CONTINUOUS
10
146.682
20
-110.263
11
146.678
21
-110.255
0
LINE
8
BLACK
6
CONTINUOUS
10
146.678
20
-110.255
11
146.672
21
-110.249
0
LINE
8
BLACK
6
CONTINUOUS
10
146.672
20
-110.249
11
146.669
21
-110.24
0
LINE
8
BLACK
6
CONTINUOUS
10
146.669
20
-110.24
11
146.665
21
-110.233
0
LINE
8
BLACK
6
CONTINUOUS
10
146.665
20
-110.233
11
146.663
21
-110.224
0
LINE
8
BLACK
6
CONTINUOUS
10
146.663
20
-110.224
11
146.66
21
-110.216
0
LINE
8
BLACK
6
CONTINUOUS
10
146.66
20
-110.216
11
146.66
21
-110.207
0
LINE
8
BLACK
6
CONTINUOUS
10
146.66
20
-110.207
11
146.659
21
-110.199
0
LINE
8
BLACK
6
CONTINUOUS
10
146.659
20
-110.199
11
146.659
21
-109.957
0
LINE
8
BLACK
6
CONTINUOUS
10
146.659
20
-109.957
11
146.662
21
-109.941
0
LINE
8
BLACK
6
CONTINUOUS
10
146.662
20
-109.941
11
146.664
21
-109.925
0
LINE
8
BLACK
6
CONTINUOUS
10
146.664
20
-109.925
11
146.712
21
-109.78
0
LINE
8
BLACK
6
CONTINUOUS
10
146.712
20
-109.78
11
146.715
21
-109.775
0
LINE
8
BLACK
6
CONTINUOUS
10
146.715
20
-109.775
11
146.717
21
-109.769
0
LINE
8
BLACK
6
CONTINUOUS
10
146.717
20
-109.769
11
146.723
21
-109.76
0
LINE
8
BLACK
6
CONTINUOUS
10
146.723
20
-109.76
11
146.729
21
-109.749
0
LINE
8
BLACK
6
CONTINUOUS
10
146.729
20
-109.749
11
146.733
21
-109.745
0
LINE
8
BLACK
6
CONTINUOUS
10
146.733
20
-109.745
11
146.736
21
-109.741
0
LINE
8
BLACK
6
CONTINUOUS
10
146.736
20
-109.741
11
146.833
21
-109.644
0
LINE
8
BLACK
6
CONTINUOUS
10
146.833
20
-109.644
11
146.846
21
-109.635
0
LINE
8
BLACK
6
CONTINUOUS
10
146.846
20
-109.635
11
146.859
21
-109.625
0
LINE
8
BLACK
6
CONTINUOUS
10
146.859
20
-109.625
11
146.956
21
-109.577
0
LINE
8
BLACK
6
CONTINUOUS
10
146.956
20
-109.577
11
146.966
21
-109.574
0
LINE
8
BLACK
6
CONTINUOUS
10
146.966
20
-109.574
11
146.976
21
-109.569
0
LINE
8
BLACK
6
CONTINUOUS
10
146.976
20
-109.569
11
147.17
21
-109.521
0
LINE
8
BLACK
6
CONTINUOUS
10
147.17
20
-109.521
11
147.182
21
-109.52
0
LINE
8
BLACK
6
CONTINUOUS
10
147.182
20
-109.52
11
147.194
21
-109.518
0
LINE
8
BLACK
6
CONTINUOUS
10
147.194
20
-109.518
11
147.339
21
-109.518
0
LINE
8
BLACK
6
CONTINUOUS
10
147.339
20
-109.518
11
147.351
21
-109.52
0
LINE
8
BLACK
6
CONTINUOUS
10
147.207
20
-109.718
11
147.036
21
-109.761
0
LINE
8
BLACK
6
CONTINUOUS
10
147.036
20
-109.761
11
146.963
21
-109.797
0
LINE
8
BLACK
6
CONTINUOUS
10
146.963
20
-109.797
11
146.895
21
-109.865
0
LINE
8
BLACK
6
CONTINUOUS
10
146.895
20
-109.865
11
146.859
21
-109.973
0
LINE
8
BLACK
6
CONTINUOUS
10
146.859
20
-109.973
11
146.859
21
-110.099
0
LINE
8
BLACK
6
CONTINUOUS
10
146.859
20
-110.099
11
147.675
21
-110.099
0
LINE
8
BLACK
6
CONTINUOUS
10
147.675
20
-110.099
11
147.675
21
-109.973
0
LINE
8
BLACK
6
CONTINUOUS
10
147.675
20
-109.973
11
147.639
21
-109.865
0
LINE
8
BLACK
6
CONTINUOUS
10
147.639
20
-109.865
11
147.57
21
-109.797
0
LINE
8
BLACK
6
CONTINUOUS
10
147.57
20
-109.797
11
147.498
21
-109.761
0
LINE
8
BLACK
6
CONTINUOUS
10
147.498
20
-109.761
11
147.327
21
-109.718
0
LINE
8
BLACK
6
CONTINUOUS
10
147.327
20
-109.718
11
147.207
21
-109.718
0
LINE
8
BLACK
6
CONTINUOUS
10
143.24
20
-106.762
11
143.256
21
-106.776
0
LINE
8
BLACK
6
CONTINUOUS
10
143.256
20
-106.776
11
143.267
21
-106.794
0
LINE
8
BLACK
6
CONTINUOUS
10
143.267
20
-106.794
11
143.27
21
-106.81
0
LINE
8
BLACK
6
CONTINUOUS
10
143.27
20
-106.81
11
143.27
21
-107.82
0
LINE
8
BLACK
6
CONTINUOUS
10
143.27
20
-107.82
11
143.267
21
-107.836
0
LINE
8
BLACK
6
CONTINUOUS
10
143.267
20
-107.836
11
143.256
21
-107.854
0
LINE
8
BLACK
6
CONTINUOUS
10
143.256
20
-107.854
11
143.24
21
-107.868
0
LINE
8
BLACK
6
CONTINUOUS
10
143.24
20
-107.868
11
143.22
21
-107.875
0
LINE
8
BLACK
6
CONTINUOUS
10
143.22
20
-107.875
11
143.199
21
-107.875
0
LINE
8
BLACK
6
CONTINUOUS
10
143.199
20
-107.875
11
143.179
21
-107.868
0
LINE
8
BLACK
6
CONTINUOUS
10
143.179
20
-107.868
11
143.163
21
-107.854
0
LINE
8
BLACK
6
CONTINUOUS
10
143.163
20
-107.854
11
143.152
21
-107.836
0
LINE
8
BLACK
6
CONTINUOUS
10
143.152
20
-107.836
11
143.15
21
-107.82
0
LINE
8
BLACK
6
CONTINUOUS
10
143.15
20
-107.82
11
143.15
21
-106.81
0
LINE
8
BLACK
6
CONTINUOUS
10
143.15
20
-106.81
11
143.152
21
-106.794
0
LINE
8
BLACK
6
CONTINUOUS
10
143.152
20
-106.794
11
143.163
21
-106.776
0
LINE
8
BLACK
6
CONTINUOUS
10
143.163
20
-106.776
11
143.179
21
-106.762
0
LINE
8
BLACK
6
CONTINUOUS
10
143.179
20
-106.762
11
143.199
21
-106.755
0
LINE
8
BLACK
6
CONTINUOUS
10
143.199
20
-106.755
11
143.22
21
-106.755
0
LINE
8
BLACK
6
CONTINUOUS
10
143.22
20
-106.755
11
143.24
21
-106.762
0
LINE
8
BLACK
6
CONTINUOUS
10
145.06
20
-106.762
11
145.076
21
-106.776
0
LINE
8
BLACK
6
CONTINUOUS
10
145.076
20
-106.776
11
145.087
21
-106.794
0
LINE
8
BLACK
6
CONTINUOUS
10
145.087
20
-106.794
11
145.09
21
-106.81
0
LINE
8
BLACK
6
CONTINUOUS
10
145.09
20
-106.81
11
145.09
21
-107.82
0
LINE
8
BLACK
6
CONTINUOUS
10
145.09
20
-107.82
11
145.087
21
-107.836
0
LINE
8
BLACK
6
CONTINUOUS
10
145.087
20
-107.836
11
145.076
21
-107.854
0
LINE
8
BLACK
6
CONTINUOUS
10
145.076
20
-107.854
11
145.06
21
-107.868
0
LINE
8
BLACK
6
CONTINUOUS
10
145.06
20
-107.868
11
145.04
21
-107.875
0
LINE
8
BLACK
6
CONTINUOUS
10
145.04
20
-107.875
11
145.019
21
-107.875
0
LINE
8
BLACK
6
CONTINUOUS
10
145.019
20
-107.875
11
144.999
21
-107.868
0
LINE
8
BLACK
6
CONTINUOUS
10
144.999
20
-107.868
11
144.983
21
-107.854
0
LINE
8
BLACK
6
CONTINUOUS
10
144.983
20
-107.854
11
144.972
21
-107.836
0
LINE
8
BLACK
6
CONTINUOUS
10
144.972
20
-107.836
11
144.97
21
-107.82
0
LINE
8
BLACK
6
CONTINUOUS
10
144.97
20
-107.82
11
144.97
21
-106.81
0
LINE
8
BLACK
6
CONTINUOUS
10
144.97
20
-106.81
11
144.972
21
-106.794
0
LINE
8
BLACK
6
CONTINUOUS
10
144.972
20
-106.794
11
144.983
21
-106.776
0
LINE
8
BLACK
6
CONTINUOUS
10
144.983
20
-106.776
11
144.999
21
-106.762
0
LINE
8
BLACK
6
CONTINUOUS
10
144.999
20
-106.762
11
145.019
21
-106.755
0
LINE
8
BLACK
6
CONTINUOUS
10
145.019
20
-106.755
11
145.04
21
-106.755
0
LINE
8
BLACK
6
CONTINUOUS
10
145.04
20
-106.755
11
145.06
21
-106.762
0
LINE
8
BLACK
6
CONTINUOUS
10
141.589
20
-104.242
11
141.618
21
-104.26
0
LINE
8
BLACK
6
CONTINUOUS
10
141.618
20
-104.26
11
141.64
21
-104.287
0
LINE
8
BLACK
6
CONTINUOUS
10
141.64
20
-104.287
11
141.651
21
-104.32
0
LINE
8
BLACK
6
CONTINUOUS
10
141.651
20
-104.32
11
141.65
21
-104.355
0
LINE
8
BLACK
6
CONTINUOUS
10
141.65
20
-104.355
11
141.637
21
-104.387
0
LINE
8
BLACK
6
CONTINUOUS
10
141.637
20
-104.387
11
141.614
21
-104.413
0
LINE
8
BLACK
6
CONTINUOUS
10
141.614
20
-104.413
11
141.583
21
-104.43
0
LINE
8
BLACK
6
CONTINUOUS
10
141.583
20
-104.43
11
140.852
21
-104.673
0
LINE
8
BLACK
6
CONTINUOUS
10
140.852
20
-104.673
11
141.583
21
-104.917
0
LINE
8
BLACK
6
CONTINUOUS
10
141.583
20
-104.917
11
141.614
21
-104.934
0
LINE
8
BLACK
6
CONTINUOUS
10
141.614
20
-104.934
11
141.637
21
-104.96
0
LINE
8
BLACK
6
CONTINUOUS
10
141.637
20
-104.96
11
141.65
21
-104.992
0
LINE
8
BLACK
6
CONTINUOUS
10
141.65
20
-104.992
11
141.651
21
-105.027
0
LINE
8
BLACK
6
CONTINUOUS
10
141.651
20
-105.027
11
141.64
21
-105.06
0
LINE
8
BLACK
6
CONTINUOUS
10
141.64
20
-105.06
11
141.618
21
-105.087
0
LINE
8
BLACK
6
CONTINUOUS
10
141.618
20
-105.087
11
141.589
21
-105.105
0
LINE
8
BLACK
6
CONTINUOUS
10
141.589
20
-105.105
11
141.555
21
-105.112
0
LINE
8
BLACK
6
CONTINUOUS
10
141.555
20
-105.112
11
141.52
21
-105.107
0
LINE
8
BLACK
6
CONTINUOUS
10
141.52
20
-105.107
11
140.504
21
-104.768
0
LINE
8
BLACK
6
CONTINUOUS
10
140.504
20
-104.768
11
140.502
21
-104.767
0
LINE
8
BLACK
6
CONTINUOUS
10
140.502
20
-104.767
11
140.499
21
-104.766
0
LINE
8
BLACK
6
CONTINUOUS
10
140.499
20
-104.766
11
140.487
21
-104.759
0
LINE
8
BLACK
6
CONTINUOUS
10
140.487
20
-104.759
11
140.474
21
-104.752
0
LINE
8
BLACK
6
CONTINUOUS
10
140.474
20
-104.752
11
140.472
21
-104.75
0
LINE
8
BLACK
6
CONTINUOUS
10
140.472
20
-104.75
11
140.469
21
-104.748
0
LINE
8
BLACK
6
CONTINUOUS
10
140.469
20
-104.748
11
140.46
21
-104.737
0
LINE
8
BLACK
6
CONTINUOUS
10
140.46
20
-104.737
11
140.451
21
-104.726
0
LINE
8
BLACK
6
CONTINUOUS
10
140.451
20
-104.726
11
140.45
21
-104.723
0
LINE
8
BLACK
6
CONTINUOUS
10
140.45
20
-104.723
11
140.448
21
-104.721
0
LINE
8
BLACK
6
CONTINUOUS
10
140.448
20
-104.721
11
140.443
21
-104.707
0
LINE
8
BLACK
6
CONTINUOUS
10
140.443
20
-104.707
11
140.438
21
-104.693
0
LINE
8
BLACK
6
CONTINUOUS
10
140.438
20
-104.693
11
140.438
21
-104.691
0
LINE
8
BLACK
6
CONTINUOUS
10
140.438
20
-104.691
11
140.437
21
-104.688
0
LINE
8
BLACK
6
CONTINUOUS
10
140.437
20
-104.688
11
140.437
21
-104.673
0
LINE
8
BLACK
6
CONTINUOUS
10
140.437
20
-104.673
11
140.437
21
-104.659
0
LINE
8
BLACK
6
CONTINUOUS
10
140.437
20
-104.659
11
140.438
21
-104.656
0
LINE
8
BLACK
6
CONTINUOUS
10
140.438
20
-104.656
11
140.438
21
-104.653
0
LINE
8
BLACK
6
CONTINUOUS
10
140.438
20
-104.653
11
140.443
21
-104.64
0
LINE
8
BLACK
6
CONTINUOUS
10
140.443
20
-104.64
11
140.448
21
-104.626
0
LINE
8
BLACK
6
CONTINUOUS
10
140.448
20
-104.626
11
140.45
21
-104.624
0
LINE
8
BLACK
6
CONTINUOUS
10
140.45
20
-104.624
11
140.451
21
-104.621
0
LINE
8
BLACK
6
CONTINUOUS
10
140.451
20
-104.621
11
140.46
21
-104.61
0
LINE
8
BLACK
6
CONTINUOUS
10
140.46
20
-104.61
11
140.469
21
-104.599
0
LINE
8
BLACK
6
CONTINUOUS
10
140.469
20
-104.599
11
140.472
21
-104.597
0
LINE
8
BLACK
6
CONTINUOUS
10
140.472
20
-104.597
11
140.474
21
-104.595
0
LINE
8
BLACK
6
CONTINUOUS
10
140.474
20
-104.595
11
140.487
21
-104.588
0
LINE
8
BLACK
6
CONTINUOUS
10
140.487
20
-104.588
11
140.499
21
-104.58
0
LINE
8
BLACK
6
CONTINUOUS
10
140.499
20
-104.58
11
140.502
21
-104.58
0
LINE
8
BLACK
6
CONTINUOUS
10
140.502
20
-104.58
11
140.504
21
-104.579
0
LINE
8
BLACK
6
CONTINUOUS
10
140.504
20
-104.579
11
141.52
21
-104.24
0
LINE
8
BLACK
6
CONTINUOUS
10
141.52
20
-104.24
11
141.555
21
-104.235
0
LINE
8
BLACK
6
CONTINUOUS
10
141.555
20
-104.235
11
141.589
21
-104.242
0
LINE
8
BLACK
6
CONTINUOUS
10
141.497
20
-103.325
11
141.526
21
-103.345
0
LINE
8
BLACK
6
CONTINUOUS
10
141.526
20
-103.345
11
141.574
21
-103.393
0
LINE
8
BLACK
6
CONTINUOUS
10
141.574
20
-103.393
11
141.577
21
-103.398
0
LINE
8
BLACK
6
CONTINUOUS
10
141.577
20
-103.398
11
141.582
21
-103.402
0
LINE
8
BLACK
6
CONTINUOUS
10
141.582
20
-103.402
11
141.587
21
-103.412
0
LINE
8
BLACK
6
CONTINUOUS
10
141.587
20
-103.412
11
141.594
21
-103.422
0
LINE
8
BLACK
6
CONTINUOUS
10
141.594
20
-103.422
11
141.596
21
-103.427
0
LINE
8
BLACK
6
CONTINUOUS
10
141.596
20
-103.427
11
141.598
21
-103.432
0
LINE
8
BLACK
6
CONTINUOUS
10
141.598
20
-103.432
11
141.647
21
-103.577
0
LINE
8
BLACK
6
CONTINUOUS
10
141.647
20
-103.577
11
141.649
21
-103.593
0
LINE
8
BLACK
6
CONTINUOUS
10
141.649
20
-103.593
11
141.652
21
-103.609
0
LINE
8
BLACK
6
CONTINUOUS
10
141.652
20
-103.609
11
141.652
21
-103.706
0
LINE
8
BLACK
6
CONTINUOUS
10
141.652
20
-103.706
11
141.649
21
-103.722
0
LINE
8
BLACK
6
CONTINUOUS
10
141.649
20
-103.722
11
141.647
21
-103.737
0
LINE
8
BLACK
6
CONTINUOUS
10
141.647
20
-103.737
11
141.598
21
-103.883
0
LINE
8
BLACK
6
CONTINUOUS
10
141.598
20
-103.883
11
141.596
21
-103.888
0
LINE
8
BLACK
6
CONTINUOUS
10
141.596
20
-103.888
11
141.594
21
-103.893
0
LINE
8
BLACK
6
CONTINUOUS
10
141.594
20
-103.893
11
141.587
21
-103.903
0
LINE
8
BLACK
6
CONTINUOUS
10
141.587
20
-103.903
11
141.582
21
-103.913
0
LINE
8
BLACK
6
CONTINUOUS
10
141.582
20
-103.913
11
141.577
21
-103.917
0
LINE
8
BLACK
6
CONTINUOUS
10
141.577
20
-103.917
11
141.574
21
-103.922
0
LINE
8
BLACK
6
CONTINUOUS
10
141.574
20
-103.922
11
141.477
21
-104.018
0
LINE
8
BLACK
6
CONTINUOUS
10
141.477
20
-104.018
11
141.464
21
-104.028
0
LINE
8
BLACK
6
CONTINUOUS
10
141.464
20
-104.028
11
141.451
21
-104.037
0
LINE
8
BLACK
6
CONTINUOUS
10
141.451
20
-104.037
11
141.355
21
-104.086
0
LINE
8
BLACK
6
CONTINUOUS
10
141.355
20
-104.086
11
141.344
21
-104.089
0
LINE
8
BLACK
6
CONTINUOUS
10
141.344
20
-104.089
11
141.334
21
-104.093
0
LINE
8
BLACK
6
CONTINUOUS
10
141.334
20
-104.093
11
141.141
21
-104.141
0
LINE
8
BLACK
6
CONTINUOUS
10
141.141
20
-104.141
11
141.128
21
-104.142
0
LINE
8
BLACK
6
CONTINUOUS
10
141.128
20
-104.142
11
141.116
21
-104.144
0
LINE
8
BLACK
6
CONTINUOUS
10
141.116
20
-104.144
11
140.971
21
-104.144
0
LINE
8
BLACK
6
CONTINUOUS
10
140.971
20
-104.144
11
140.959
21
-104.142
0
LINE
8
BLACK
6
CONTINUOUS
10
140.959
20
-104.142
11
140.947
21
-104.141
0
LINE
8
BLACK
6
CONTINUOUS
10
140.947
20
-104.141
11
140.753
21
-104.093
0
LINE
8
BLACK
6
CONTINUOUS
10
140.753
20
-104.093
11
140.743
21
-104.089
0
LINE
8
BLACK
6
CONTINUOUS
10
140.743
20
-104.089
11
140.733
21
-104.086
0
LINE
8
BLACK
6
CONTINUOUS
10
140.733
20
-104.086
11
140.636
21
-104.037
0
LINE
8
BLACK
6
CONTINUOUS
10
140.636
20
-104.037
11
140.623
21
-104.028
0
LINE
8
BLACK
6
CONTINUOUS
10
140.623
20
-104.028
11
140.61
21
-104.018
0
LINE
8
BLACK
6
CONTINUOUS
10
140.61
20
-104.018
11
140.513
21
-103.922
0
LINE
8
BLACK
6
CONTINUOUS
10
140.513
20
-103.922
11
140.51
21
-103.917
0
LINE
8
BLACK
6
CONTINUOUS
10
140.51
20
-103.917
11
140.506
21
-103.913
0
LINE
8
BLACK
6
CONTINUOUS
10
140.506
20
-103.913
11
140.5
21
-103.903
0
LINE
8
BLACK
6
CONTINUOUS
10
140.5
20
-103.903
11
140.494
21
-103.893
0
LINE
8
BLACK
6
CONTINUOUS
10
140.494
20
-103.893
11
140.492
21
-103.888
0
LINE
8
BLACK
6
CONTINUOUS
10
140.492
20
-103.888
11
140.489
21
-103.883
0
LINE
8
BLACK
6
CONTINUOUS
10
140.489
20
-103.883
11
140.441
21
-103.737
0
LINE
8
BLACK
6
CONTINUOUS
10
140.441
20
-103.737
11
140.439
21
-103.722
0
LINE
8
BLACK
6
CONTINUOUS
10
140.439
20
-103.722
11
140.436
21
-103.706
0
LINE
8
BLACK
6
CONTINUOUS
10
140.436
20
-103.706
11
140.436
21
-103.609
0
LINE
8
BLACK
6
CONTINUOUS
10
140.436
20
-103.609
11
140.439
21
-103.593
0
LINE
8
BLACK
6
CONTINUOUS
10
140.439
20
-103.593
11
140.441
21
-103.577
0
LINE
8
BLACK
6
CONTINUOUS
10
140.441
20
-103.577
11
140.489
21
-103.432
0
LINE
8
BLACK
6
CONTINUOUS
10
140.489
20
-103.432
11
140.492
21
-103.427
0
LINE
8
BLACK
6
CONTINUOUS
10
140.492
20
-103.427
11
140.494
21
-103.422
0
LINE
8
BLACK
6
CONTINUOUS
10
140.494
20
-103.422
11
140.5
21
-103.412
0
LINE
8
BLACK
6
CONTINUOUS
10
140.5
20
-103.412
11
140.506
21
-103.402
0
LINE
8
BLACK
6
CONTINUOUS
10
140.506
20
-103.402
11
140.51
21
-103.398
0
LINE
8
BLACK
6
CONTINUOUS
10
140.51
20
-103.398
11
140.513
21
-103.393
0
LINE
8
BLACK
6
CONTINUOUS
10
140.513
20
-103.393
11
140.562
21
-103.345
0
LINE
8
BLACK
6
CONTINUOUS
10
140.562
20
-103.345
11
140.59
21
-103.325
0
LINE
8
BLACK
6
CONTINUOUS
10
140.59
20
-103.325
11
140.624
21
-103.316
0
LINE
8
BLACK
6
CONTINUOUS
10
140.624
20
-103.316
11
140.658
21
-103.319
0
LINE
8
BLACK
6
CONTINUOUS
10
140.658
20
-103.319
11
140.69
21
-103.334
0
LINE
8
BLACK
6
CONTINUOUS
10
140.69
20
-103.334
11
140.714
21
-103.358
0
LINE
8
BLACK
6
CONTINUOUS
10
140.714
20
-103.358
11
140.729
21
-103.39
0
LINE
8
BLACK
6
CONTINUOUS
10
140.729
20
-103.39
11
140.732
21
-103.424
0
LINE
8
BLACK
6
CONTINUOUS
10
140.732
20
-103.424
11
140.723
21
-103.458
0
LINE
8
BLACK
6
CONTINUOUS
10
140.723
20
-103.458
11
140.703
21
-103.486
0
LINE
8
BLACK
6
CONTINUOUS
10
140.703
20
-103.486
11
140.672
21
-103.518
0
LINE
8
BLACK
6
CONTINUOUS
10
140.672
20
-103.518
11
140.636
21
-103.625
0
LINE
8
BLACK
6
CONTINUOUS
10
140.636
20
-103.625
11
140.636
21
-103.69
0
LINE
8
BLACK
6
CONTINUOUS
10
140.636
20
-103.69
11
140.672
21
-103.797
0
LINE
8
BLACK
6
CONTINUOUS
10
140.672
20
-103.797
11
140.74
21
-103.865
0
LINE
8
BLACK
6
CONTINUOUS
10
140.74
20
-103.865
11
140.813
21
-103.902
0
LINE
8
BLACK
6
CONTINUOUS
10
140.813
20
-103.902
11
140.984
21
-103.944
0
LINE
8
BLACK
6
CONTINUOUS
10
140.984
20
-103.944
11
141.104
21
-103.944
0
LINE
8
BLACK
6
CONTINUOUS
10
141.104
20
-103.944
11
141.275
21
-103.902
0
LINE
8
BLACK
6
CONTINUOUS
10
141.275
20
-103.902
11
141.347
21
-103.865
0
LINE
8
BLACK
6
CONTINUOUS
10
141.347
20
-103.865
11
141.416
21
-103.797
0
LINE
8
BLACK
6
CONTINUOUS
10
141.416
20
-103.797
11
141.452
21
-103.69
0
LINE
8
BLACK
6
CONTINUOUS
10
141.452
20
-103.69
11
141.452
21
-103.625
0
LINE
8
BLACK
6
CONTINUOUS
10
141.452
20
-103.625
11
141.416
21
-103.518
0
LINE
8
BLACK
6
CONTINUOUS
10
141.416
20
-103.518
11
141.384
21
-103.486
0
LINE
8
BLACK
6
CONTINUOUS
10
141.384
20
-103.486
11
141.364
21
-103.458
0
LINE
8
BLACK
6
CONTINUOUS
10
141.364
20
-103.458
11
141.355
21
-103.424
0
LINE
8
BLACK
6
CONTINUOUS
10
141.355
20
-103.424
11
141.358
21
-103.39
0
LINE
8
BLACK
6
CONTINUOUS
10
141.358
20
-103.39
11
141.373
21
-103.358
0
LINE
8
BLACK
6
CONTINUOUS
10
141.373
20
-103.358
11
141.398
21
-103.334
0
LINE
8
BLACK
6
CONTINUOUS
10
141.398
20
-103.334
11
141.429
21
-103.319
0
LINE
8
BLACK
6
CONTINUOUS
10
141.429
20
-103.319
11
141.464
21
-103.316
0
LINE
8
BLACK
6
CONTINUOUS
10
141.464
20
-103.316
11
141.497
21
-103.325
0
LINE
8
BLACK
6
CONTINUOUS
10
147.834
20
-103.664
11
147.864
21
-103.681
0
LINE
8
BLACK
6
CONTINUOUS
10
147.864
20
-103.681
11
147.887
21
-103.708
0
LINE
8
BLACK
6
CONTINUOUS
10
147.887
20
-103.708
11
147.899
21
-103.74
0
LINE
8
BLACK
6
CONTINUOUS
10
147.899
20
-103.74
11
147.899
21
-103.775
0
LINE
8
BLACK
6
CONTINUOUS
10
147.899
20
-103.775
11
147.887
21
-103.808
0
LINE
8
BLACK
6
CONTINUOUS
10
147.887
20
-103.808
11
147.864
21
-103.834
0
LINE
8
BLACK
6
CONTINUOUS
10
147.864
20
-103.834
11
147.834
21
-103.852
0
LINE
8
BLACK
6
CONTINUOUS
10
147.834
20
-103.852
11
147.8
21
-103.858
0
LINE
8
BLACK
6
CONTINUOUS
10
147.8
20
-103.858
11
146.784
21
-103.858
0
LINE
8
BLACK
6
CONTINUOUS
10
146.784
20
-103.858
11
146.75
21
-103.852
0
LINE
8
BLACK
6
CONTINUOUS
10
146.75
20
-103.852
11
146.72
21
-103.834
0
LINE
8
BLACK
6
CONTINUOUS
10
146.72
20
-103.834
11
146.698
21
-103.808
0
LINE
8
BLACK
6
CONTINUOUS
10
146.698
20
-103.808
11
146.686
21
-103.775
0
LINE
8
BLACK
6
CONTINUOUS
10
146.686
20
-103.775
11
146.686
21
-103.74
0
LINE
8
BLACK
6
CONTINUOUS
10
146.686
20
-103.74
11
146.698
21
-103.708
0
LINE
8
BLACK
6
CONTINUOUS
10
146.698
20
-103.708
11
146.72
21
-103.681
0
LINE
8
BLACK
6
CONTINUOUS
10
146.72
20
-103.681
11
146.75
21
-103.664
0
LINE
8
BLACK
6
CONTINUOUS
10
146.75
20
-103.664
11
146.784
21
-103.658
0
LINE
8
BLACK
6
CONTINUOUS
10
146.784
20
-103.658
11
147.8
21
-103.658
0
LINE
8
BLACK
6
CONTINUOUS
10
147.8
20
-103.658
11
147.834
21
-103.664
0
LINE
8
BLACK
6
CONTINUOUS
10
147.834
20
-102.599
11
147.864
21
-102.617
0
LINE
8
BLACK
6
CONTINUOUS
10
147.864
20
-102.617
11
147.887
21
-102.643
0
LINE
8
BLACK
6
CONTINUOUS
10
147.887
20
-102.643
11
147.899
21
-102.676
0
LINE
8
BLACK
6
CONTINUOUS
10
147.899
20
-102.676
11
147.899
21
-102.711
0
LINE
8
BLACK
6
CONTINUOUS
10
147.899
20
-102.711
11
147.887
21
-102.743
0
LINE
8
BLACK
6
CONTINUOUS
10
147.887
20
-102.743
11
147.864
21
-102.77
0
LINE
8
BLACK
6
CONTINUOUS
10
147.864
20
-102.77
11
147.834
21
-102.787
0
LINE
8
BLACK
6
CONTINUOUS
10
147.834
20
-102.787
11
147.8
21
-102.793
0
LINE
8
BLACK
6
CONTINUOUS
10
147.8
20
-102.793
11
147.161
21
-102.793
0
LINE
8
BLACK
6
CONTINUOUS
10
147.161
20
-102.793
11
147.85
21
-103.187
0
LINE
8
BLACK
6
CONTINUOUS
10
147.85
20
-103.187
11
147.857
21
-103.193
0
LINE
8
BLACK
6
CONTINUOUS
10
147.857
20
-103.193
11
147.864
21
-103.197
0
LINE
8
BLACK
6
CONTINUOUS
10
147.864
20
-103.197
11
147.87
21
-103.204
0
LINE
8
BLACK
6
CONTINUOUS
10
147.87
20
-103.204
11
147.876
21
-103.209
0
LINE
8
BLACK
6
CONTINUOUS
10
147.876
20
-103.209
11
147.881
21
-103.217
0
LINE
8
BLACK
6
CONTINUOUS
10
147.881
20
-103.217
11
147.887
21
-103.224
0
LINE
8
BLACK
6
CONTINUOUS
10
147.887
20
-103.224
11
147.89
21
-103.232
0
LINE
8
BLACK
6
CONTINUOUS
10
147.89
20
-103.232
11
147.894
21
-103.239
0
LINE
8
BLACK
6
CONTINUOUS
10
147.894
20
-103.239
11
147.896
21
-103.248
0
LINE
8
BLACK
6
CONTINUOUS
10
147.896
20
-103.248
11
147.899
21
-103.257
0
LINE
8
BLACK
6
CONTINUOUS
10
147.899
20
-103.257
11
147.899
21
-103.265
0
LINE
8
BLACK
6
CONTINUOUS
10
147.899
20
-103.265
11
147.9
21
-103.274
0
LINE
8
BLACK
6
CONTINUOUS
10
147.9
20
-103.274
11
147.899
21
-103.282
0
LINE
8
BLACK
6
CONTINUOUS
10
147.899
20
-103.282
11
147.899
21
-103.291
0
LINE
8
BLACK
6
CONTINUOUS
10
147.899
20
-103.291
11
147.896
21
-103.299
0
LINE
8
BLACK
6
CONTINUOUS
10
147.896
20
-103.299
11
147.894
21
-103.308
0
LINE
8
BLACK
6
CONTINUOUS
10
147.894
20
-103.308
11
147.89
21
-103.316
0
LINE
8
BLACK
6
CONTINUOUS
10
147.89
20
-103.316
11
147.887
21
-103.324
0
LINE
8
BLACK
6
CONTINUOUS
10
147.887
20
-103.324
11
147.881
21
-103.331
0
LINE
8
BLACK
6
CONTINUOUS
10
147.881
20
-103.331
11
147.877
21
-103.338
0
LINE
8
BLACK
6
CONTINUOUS
10
147.877
20
-103.338
11
147.87
21
-103.344
0
LINE
8
BLACK
6
CONTINUOUS
10
147.87
20
-103.344
11
147.864
21
-103.351
0
LINE
8
BLACK
6
CONTINUOUS
10
147.864
20
-103.351
11
147.857
21
-103.355
0
LINE
8
BLACK
6
CONTINUOUS
10
147.857
20
-103.355
11
147.851
21
-103.36
0
LINE
8
BLACK
6
CONTINUOUS
10
147.851
20
-103.36
11
147.842
21
-103.363
0
LINE
8
BLACK
6
CONTINUOUS
10
147.842
20
-103.363
11
147.834
21
-103.368
0
LINE
8
BLACK
6
CONTINUOUS
10
147.834
20
-103.368
11
147.826
21
-103.369
0
LINE
8
BLACK
6
CONTINUOUS
10
147.826
20
-103.369
11
147.818
21
-103.372
0
LINE
8
BLACK
6
CONTINUOUS
10
147.818
20
-103.372
11
147.809
21
-103.372
0
LINE
8
BLACK
6
CONTINUOUS
10
147.809
20
-103.372
11
147.8
21
-103.374
0
LINE
8
BLACK
6
CONTINUOUS
10
147.8
20
-103.374
11
146.784
21
-103.374
0
LINE
8
BLACK
6
CONTINUOUS
10
146.784
20
-103.374
11
146.75
21
-103.368
0
LINE
8
BLACK
6
CONTINUOUS
10
146.75
20
-103.368
11
146.72
21
-103.351
0
LINE
8
BLACK
6
CONTINUOUS
10
146.72
20
-103.351
11
146.698
21
-103.324
0
LINE
8
BLACK
6
CONTINUOUS
10
146.698
20
-103.324
11
146.686
21
-103.291
0
LINE
8
BLACK
6
CONTINUOUS
10
146.686
20
-103.291
11
146.686
21
-103.257
0
LINE
8
BLACK
6
CONTINUOUS
10
146.686
20
-103.257
11
146.698
21
-103.224
0
LINE
8
BLACK
6
CONTINUOUS
10
146.698
20
-103.224
11
146.72
21
-103.197
0
LINE
8
BLACK
6
CONTINUOUS
10
146.72
20
-103.197
11
146.75
21
-103.18
0
LINE
8
BLACK
6
CONTINUOUS
10
146.75
20
-103.18
11
146.784
21
-103.174
0
LINE
8
BLACK
6
CONTINUOUS
10
146.784
20
-103.174
11
147.424
21
-103.174
0
LINE
8
BLACK
6
CONTINUOUS
10
147.424
20
-103.174
11
146.735
21
-102.78
0
LINE
8
BLACK
6
CONTINUOUS
10
146.735
20
-102.78
11
146.728
21
-102.774
0
LINE
8
BLACK
6
CONTINUOUS
10
146.728
20
-102.774
11
146.72
21
-102.77
0
LINE
8
BLACK
6
CONTINUOUS
10
146.72
20
-102.77
11
146.714
21
-102.763
0
LINE
8
BLACK
6
CONTINUOUS
10
146.714
20
-102.763
11
146.708
21
-102.758
0
LINE
8
BLACK
6
CONTINUOUS
10
146.708
20
-102.758
11
146.703
21
-102.75
0
LINE
8
BLACK
6
CONTINUOUS
10
146.703
20
-102.75
11
146.698
21
-102.743
0
LINE
8
BLACK
6
CONTINUOUS
10
146.698
20
-102.743
11
146.695
21
-102.735
0
LINE
8
BLACK
6
CONTINUOUS
10
146.695
20
-102.735
11
146.69
21
-102.728
0
LINE
8
BLACK
6
CONTINUOUS
10
146.69
20
-102.728
11
146.689
21
-102.719
0
LINE
8
BLACK
6
CONTINUOUS
10
146.689
20
-102.719
11
146.686
21
-102.711
0
LINE
8
BLACK
6
CONTINUOUS
10
146.686
20
-102.711
11
146.686
21
-102.702
0
LINE
8
BLACK
6
CONTINUOUS
10
146.686
20
-102.702
11
146.684
21
-102.694
0
LINE
8
BLACK
6
CONTINUOUS
10
146.684
20
-102.694
11
146.686
21
-102.685
0
LINE
8
BLACK
6
CONTINUOUS
10
146.686
20
-102.685
11
146.686
21
-102.676
0
LINE
8
BLACK
6
CONTINUOUS
10
146.686
20
-102.676
11
146.689
21
-102.668
0
LINE
8
BLACK
6
CONTINUOUS
10
146.689
20
-102.668
11
146.69
21
-102.66
0
LINE
8
BLACK
6
CONTINUOUS
10
146.69
20
-102.66
11
146.695
21
-102.652
0
LINE
8
BLACK
6
CONTINUOUS
10
146.695
20
-102.652
11
146.698
21
-102.643
0
LINE
8
BLACK
6
CONTINUOUS
10
146.698
20
-102.643
11
146.703
21
-102.637
0
LINE
8
BLACK
6
CONTINUOUS
10
146.703
20
-102.637
11
146.707
21
-102.629
0
LINE
8
BLACK
6
CONTINUOUS
10
146.707
20
-102.629
11
146.714
21
-102.624
0
LINE
8
BLACK
6
CONTINUOUS
10
146.714
20
-102.624
11
146.72
21
-102.617
0
LINE
8
BLACK
6
CONTINUOUS
10
146.72
20
-102.617
11
146.727
21
-102.613
0
LINE
8
BLACK
6
CONTINUOUS
10
146.727
20
-102.613
11
146.734
21
-102.607
0
LINE
8
BLACK
6
CONTINUOUS
10
146.734
20
-102.607
11
146.742
21
-102.604
0
LINE
8
BLACK
6
CONTINUOUS
10
146.742
20
-102.604
11
146.75
21
-102.599
0
LINE
8
BLACK
6
CONTINUOUS
10
146.75
20
-102.599
11
146.758
21
-102.598
0
LINE
8
BLACK
6
CONTINUOUS
10
146.758
20
-102.598
11
146.766
21
-102.595
0
LINE
8
BLACK
6
CONTINUOUS
10
146.766
20
-102.595
11
146.775
21
-102.595
0
LINE
8
BLACK
6
CONTINUOUS
10
146.775
20
-102.595
11
146.784
21
-102.593
0
LINE
8
BLACK
6
CONTINUOUS
10
146.784
20
-102.593
11
147.8
21
-102.593
0
LINE
8
BLACK
6
CONTINUOUS
10
147.8
20
-102.593
11
147.834
21
-102.599
0
LINE
8
BLACK
6
CONTINUOUS
10
141.497
20
-102.309
11
141.526
21
-102.329
0
LINE
8
BLACK
6
CONTINUOUS
10
141.526
20
-102.329
11
141.574
21
-102.377
0
LINE
8
BLACK
6
CONTINUOUS
10
141.574
20
-102.377
11
141.577
21
-102.382
0
LINE
8
BLACK
6
CONTINUOUS
10
141.577
20
-102.382
11
141.582
21
-102.386
0
LINE
8
BLACK
6
CONTINUOUS
10
141.582
20
-102.386
11
141.587
21
-102.396
0
LINE
8
BLACK
6
CONTINUOUS
10
141.587
20
-102.396
11
141.594
21
-102.406
0
LINE
8
BLACK
6
CONTINUOUS
10
141.594
20
-102.406
11
141.596
21
-102.411
0
LINE
8
BLACK
6
CONTINUOUS
10
141.596
20
-102.411
11
141.598
21
-102.416
0
LINE
8
BLACK
6
CONTINUOUS
10
141.598
20
-102.416
11
141.647
21
-102.561
0
LINE
8
BLACK
6
CONTINUOUS
10
141.647
20
-102.561
11
141.649
21
-102.577
0
LINE
8
BLACK
6
CONTINUOUS
10
141.649
20
-102.577
11
141.652
21
-102.593
0
LINE
8
BLACK
6
CONTINUOUS
10
141.652
20
-102.593
11
141.652
21
-102.69
0
LINE
8
BLACK
6
CONTINUOUS
10
141.652
20
-102.69
11
141.649
21
-102.706
0
LINE
8
BLACK
6
CONTINUOUS
10
141.649
20
-102.706
11
141.647
21
-102.721
0
LINE
8
BLACK
6
CONTINUOUS
10
141.647
20
-102.721
11
141.598
21
-102.867
0
LINE
8
BLACK
6
CONTINUOUS
10
141.598
20
-102.867
11
141.596
21
-102.872
0
LINE
8
BLACK
6
CONTINUOUS
10
141.596
20
-102.872
11
141.594
21
-102.877
0
LINE
8
BLACK
6
CONTINUOUS
10
141.594
20
-102.877
11
141.587
21
-102.887
0
LINE
8
BLACK
6
CONTINUOUS
10
141.587
20
-102.887
11
141.582
21
-102.897
0
LINE
8
BLACK
6
CONTINUOUS
10
141.582
20
-102.897
11
141.577
21
-102.901
0
LINE
8
BLACK
6
CONTINUOUS
10
141.577
20
-102.901
11
141.574
21
-102.906
0
LINE
8
BLACK
6
CONTINUOUS
10
141.574
20
-102.906
11
141.477
21
-103.002
0
LINE
8
BLACK
6
CONTINUOUS
10
141.477
20
-103.002
11
141.464
21
-103.012
0
LINE
8
BLACK
6
CONTINUOUS
10
141.464
20
-103.012
11
141.451
21
-103.021
0
LINE
8
BLACK
6
CONTINUOUS
10
141.451
20
-103.021
11
141.355
21
-103.07
0
LINE
8
BLACK
6
CONTINUOUS
10
141.355
20
-103.07
11
141.344
21
-103.073
0
LINE
8
BLACK
6
CONTINUOUS
10
141.344
20
-103.073
11
141.334
21
-103.077
0
LINE
8
BLACK
6
CONTINUOUS
10
141.334
20
-103.077
11
141.141
21
-103.125
0
LINE
8
BLACK
6
CONTINUOUS
10
141.141
20
-103.125
11
141.128
21
-103.126
0
LINE
8
BLACK
6
CONTINUOUS
10
141.128
20
-103.126
11
141.116
21
-103.128
0
LINE
8
BLACK
6
CONTINUOUS
10
141.116
20
-103.128
11
140.971
21
-103.128
0
LINE
8
BLACK
6
CONTINUOUS
10
140.971
20
-103.128
11
140.959
21
-103.126
0
LINE
8
BLACK
6
CONTINUOUS
10
140.959
20
-103.126
11
140.947
21
-103.125
0
LINE
8
BLACK
6
CONTINUOUS
10
140.947
20
-103.125
11
140.753
21
-103.077
0
LINE
8
BLACK
6
CONTINUOUS
10
140.753
20
-103.077
11
140.743
21
-103.073
0
LINE
8
BLACK
6
CONTINUOUS
10
140.743
20
-103.073
11
140.733
21
-103.07
0
LINE
8
BLACK
6
CONTINUOUS
10
140.733
20
-103.07
11
140.636
21
-103.021
0
LINE
8
BLACK
6
CONTINUOUS
10
140.636
20
-103.021
11
140.623
21
-103.012
0
LINE
8
BLACK
6
CONTINUOUS
10
140.623
20
-103.012
11
140.61
21
-103.002
0
LINE
8
BLACK
6
CONTINUOUS
10
140.61
20
-103.002
11
140.513
21
-102.906
0
LINE
8
BLACK
6
CONTINUOUS
10
140.513
20
-102.906
11
140.51
21
-102.901
0
LINE
8
BLACK
6
CONTINUOUS
10
140.51
20
-102.901
11
140.506
21
-102.897
0
LINE
8
BLACK
6
CONTINUOUS
10
140.506
20
-102.897
11
140.5
21
-102.887
0
LINE
8
BLACK
6
CONTINUOUS
10
140.5
20
-102.887
11
140.494
21
-102.877
0
LINE
8
BLACK
6
CONTINUOUS
10
140.494
20
-102.877
11
140.492
21
-102.872
0
LINE
8
BLACK
6
CONTINUOUS
10
140.492
20
-102.872
11
140.489
21
-102.867
0
LINE
8
BLACK
6
CONTINUOUS
10
140.489
20
-102.867
11
140.441
21
-102.721
0
LINE
8
BLACK
6
CONTINUOUS
10
140.441
20
-102.721
11
140.439
21
-102.706
0
LINE
8
BLACK
6
CONTINUOUS
10
140.439
20
-102.706
11
140.436
21
-102.69
0
LINE
8
BLACK
6
CONTINUOUS
10
140.436
20
-102.69
11
140.436
21
-102.593
0
LINE
8
BLACK
6
CONTINUOUS
10
140.436
20
-102.593
11
140.439
21
-102.577
0
LINE
8
BLACK
6
CONTINUOUS
10
140.439
20
-102.577
11
140.441
21
-102.561
0
LINE
8
BLACK
6
CONTINUOUS
10
140.441
20
-102.561
11
140.489
21
-102.416
0
LINE
8
BLACK
6
CONTINUOUS
10
140.489
20
-102.416
11
140.492
21
-102.411
0
LINE
8
BLACK
6
CONTINUOUS
10
140.492
20
-102.411
11
140.494
21
-102.406
0
LINE
8
BLACK
6
CONTINUOUS
10
140.494
20
-102.406
11
140.5
21
-102.396
0
LINE
8
BLACK
6
CONTINUOUS
10
140.5
20
-102.396
11
140.506
21
-102.386
0
LINE
8
BLACK
6
CONTINUOUS
10
140.506
20
-102.386
11
140.51
21
-102.382
0
LINE
8
BLACK
6
CONTINUOUS
10
140.51
20
-102.382
11
140.513
21
-102.377
0
LINE
8
BLACK
6
CONTINUOUS
10
140.513
20
-102.377
11
140.562
21
-102.329
0
LINE
8
BLACK
6
CONTINUOUS
10
140.562
20
-102.329
11
140.59
21
-102.309
0
LINE
8
BLACK
6
CONTINUOUS
10
140.59
20
-102.309
11
140.624
21
-102.3
0
LINE
8
BLACK
6
CONTINUOUS
10
140.624
20
-102.3
11
140.658
21
-102.303
0
LINE
8
BLACK
6
CONTINUOUS
10
140.658
20
-102.303
11
140.69
21
-102.318
0
LINE
8
BLACK
6
CONTINUOUS
10
140.69
20
-102.318
11
140.714
21
-102.342
0
LINE
8
BLACK
6
CONTINUOUS
10
140.714
20
-102.342
11
140.729
21
-102.374
0
LINE
8
BLACK
6
CONTINUOUS
10
140.729
20
-102.374
11
140.732
21
-102.408
0
LINE
8
BLACK
6
CONTINUOUS
10
140.732
20
-102.408
11
140.723
21
-102.442
0
LINE
8
BLACK
6
CONTINUOUS
10
140.723
20
-102.442
11
140.703
21
-102.47
0
LINE
8
BLACK
6
CONTINUOUS
10
140.703
20
-102.47
11
140.672
21
-102.502
0
LINE
8
BLACK
6
CONTINUOUS
10
140.672
20
-102.502
11
140.636
21
-102.609
0
LINE
8
BLACK
6
CONTINUOUS
10
140.636
20
-102.609
11
140.636
21
-102.674
0
LINE
8
BLACK
6
CONTINUOUS
10
140.636
20
-102.674
11
140.672
21
-102.781
0
LINE
8
BLACK
6
CONTINUOUS
10
140.672
20
-102.781
11
140.74
21
-102.849
0
LINE
8
BLACK
6
CONTINUOUS
10
140.74
20
-102.849
11
140.813
21
-102.886
0
LINE
8
BLACK
6
CONTINUOUS
10
140.813
20
-102.886
11
140.984
21
-102.928
0
LINE
8
BLACK
6
CONTINUOUS
10
140.984
20
-102.928
11
141.104
21
-102.928
0
LINE
8
BLACK
6
CONTINUOUS
10
141.104
20
-102.928
11
141.275
21
-102.886
0
LINE
8
BLACK
6
CONTINUOUS
10
141.275
20
-102.886
11
141.347
21
-102.849
0
LINE
8
BLACK
6
CONTINUOUS
10
141.347
20
-102.849
11
141.416
21
-102.781
0
LINE
8
BLACK
6
CONTINUOUS
10
141.416
20
-102.781
11
141.452
21
-102.674
0
LINE
8
BLACK
6
CONTINUOUS
10
141.452
20
-102.674
11
141.452
21
-102.609
0
LINE
8
BLACK
6
CONTINUOUS
10
141.452
20
-102.609
11
141.416
21
-102.502
0
LINE
8
BLACK
6
CONTINUOUS
10
141.416
20
-102.502
11
141.384
21
-102.47
0
LINE
8
BLACK
6
CONTINUOUS
10
141.384
20
-102.47
11
141.364
21
-102.442
0
LINE
8
BLACK
6
CONTINUOUS
10
141.364
20
-102.442
11
141.355
21
-102.408
0
LINE
8
BLACK
6
CONTINUOUS
10
141.355
20
-102.408
11
141.358
21
-102.374
0
LINE
8
BLACK
6
CONTINUOUS
10
141.358
20
-102.374
11
141.373
21
-102.342
0
LINE
8
BLACK
6
CONTINUOUS
10
141.373
20
-102.342
11
141.398
21
-102.318
0
LINE
8
BLACK
6
CONTINUOUS
10
141.398
20
-102.318
11
141.429
21
-102.303
0
LINE
8
BLACK
6
CONTINUOUS
10
141.429
20
-102.303
11
141.464
21
-102.3
0
LINE
8
BLACK
6
CONTINUOUS
10
141.464
20
-102.3
11
141.497
21
-102.309
  0
ENDSEC
  0
EOF
