G04 #@! TF.GenerationSoftware,KiCad,Pcbnew,5.1.5-52549c5~84~ubuntu18.04.1*
G04 #@! TF.CreationDate,2019-12-20T17:19:42-07:00*
G04 #@! TF.ProjectId,Tiny,54696e79-2e6b-4696-9361-645f70636258,rev?*
G04 #@! TF.SameCoordinates,Original*
G04 #@! TF.FileFunction,Soldermask,Top*
G04 #@! TF.FilePolarity,Negative*
%FSLAX46Y46*%
G04 Gerber Fmt 4.6, Leading zero omitted, Abs format (unit mm)*
G04 Created by KiCad (PCBNEW 5.1.5-52549c5~84~ubuntu18.04.1) date 2019-12-20 17:19:42*
%MOMM*%
%LPD*%
G04 APERTURE LIST*
%ADD10C,0.010000*%
G04 APERTURE END LIST*
D10*
G36*
X143557274Y-67916190D02*
G01*
X143639654Y-67951191D01*
X143722092Y-67999606D01*
X143789572Y-68053253D01*
X143812139Y-68078326D01*
X143900619Y-68219680D01*
X143959193Y-68375144D01*
X143990115Y-68552355D01*
X143996520Y-68702750D01*
X143982874Y-68888031D01*
X143944679Y-69065684D01*
X143884978Y-69229115D01*
X143806811Y-69371726D01*
X143713219Y-69486923D01*
X143607244Y-69568111D01*
X143594335Y-69575002D01*
X143483736Y-69619412D01*
X143385356Y-69629628D01*
X143286944Y-69606000D01*
X143240776Y-69585124D01*
X143127690Y-69505357D01*
X143027064Y-69387854D01*
X142941860Y-69236132D01*
X142936289Y-69223731D01*
X142911043Y-69141293D01*
X142892029Y-69029463D01*
X142880018Y-68900827D01*
X142875780Y-68767973D01*
X142880086Y-68643488D01*
X142893705Y-68539959D01*
X142894269Y-68537296D01*
X142943197Y-68377809D01*
X143015918Y-68233141D01*
X143107608Y-68108428D01*
X143213443Y-68008806D01*
X143328602Y-67939414D01*
X143448261Y-67905387D01*
X143489969Y-67902785D01*
X143557274Y-67916190D01*
G37*
X143557274Y-67916190D02*
X143639654Y-67951191D01*
X143722092Y-67999606D01*
X143789572Y-68053253D01*
X143812139Y-68078326D01*
X143900619Y-68219680D01*
X143959193Y-68375144D01*
X143990115Y-68552355D01*
X143996520Y-68702750D01*
X143982874Y-68888031D01*
X143944679Y-69065684D01*
X143884978Y-69229115D01*
X143806811Y-69371726D01*
X143713219Y-69486923D01*
X143607244Y-69568111D01*
X143594335Y-69575002D01*
X143483736Y-69619412D01*
X143385356Y-69629628D01*
X143286944Y-69606000D01*
X143240776Y-69585124D01*
X143127690Y-69505357D01*
X143027064Y-69387854D01*
X142941860Y-69236132D01*
X142936289Y-69223731D01*
X142911043Y-69141293D01*
X142892029Y-69029463D01*
X142880018Y-68900827D01*
X142875780Y-68767973D01*
X142880086Y-68643488D01*
X142893705Y-68539959D01*
X142894269Y-68537296D01*
X142943197Y-68377809D01*
X143015918Y-68233141D01*
X143107608Y-68108428D01*
X143213443Y-68008806D01*
X143328602Y-67939414D01*
X143448261Y-67905387D01*
X143489969Y-67902785D01*
X143557274Y-67916190D01*
G36*
X145684697Y-67975801D02*
G01*
X145798524Y-68022941D01*
X145904200Y-68108275D01*
X145926285Y-68132711D01*
X145995496Y-68234778D01*
X146044205Y-68358149D01*
X146074514Y-68509533D01*
X146086331Y-68643500D01*
X146081214Y-68854295D01*
X146045746Y-69063095D01*
X145982675Y-69256628D01*
X145941238Y-69344290D01*
X145894689Y-69418071D01*
X145834180Y-69495347D01*
X145767476Y-69568179D01*
X145702339Y-69628629D01*
X145646532Y-69668755D01*
X145612059Y-69680956D01*
X145558241Y-69686690D01*
X145531417Y-69692384D01*
X145489586Y-69689412D01*
X145426974Y-69669761D01*
X145380066Y-69648919D01*
X145264761Y-69572817D01*
X145155028Y-69467186D01*
X145062466Y-69344400D01*
X145017326Y-69261949D01*
X144980958Y-69151897D01*
X144957729Y-69015586D01*
X144948387Y-68867237D01*
X144953684Y-68721068D01*
X144974370Y-68591303D01*
X144980697Y-68567613D01*
X145044576Y-68396608D01*
X145127055Y-68251494D01*
X145224313Y-68134028D01*
X145332527Y-68045969D01*
X145447877Y-67989073D01*
X145566541Y-67965097D01*
X145684697Y-67975801D01*
G37*
X145684697Y-67975801D02*
X145798524Y-68022941D01*
X145904200Y-68108275D01*
X145926285Y-68132711D01*
X145995496Y-68234778D01*
X146044205Y-68358149D01*
X146074514Y-68509533D01*
X146086331Y-68643500D01*
X146081214Y-68854295D01*
X146045746Y-69063095D01*
X145982675Y-69256628D01*
X145941238Y-69344290D01*
X145894689Y-69418071D01*
X145834180Y-69495347D01*
X145767476Y-69568179D01*
X145702339Y-69628629D01*
X145646532Y-69668755D01*
X145612059Y-69680956D01*
X145558241Y-69686690D01*
X145531417Y-69692384D01*
X145489586Y-69689412D01*
X145426974Y-69669761D01*
X145380066Y-69648919D01*
X145264761Y-69572817D01*
X145155028Y-69467186D01*
X145062466Y-69344400D01*
X145017326Y-69261949D01*
X144980958Y-69151897D01*
X144957729Y-69015586D01*
X144948387Y-68867237D01*
X144953684Y-68721068D01*
X144974370Y-68591303D01*
X144980697Y-68567613D01*
X145044576Y-68396608D01*
X145127055Y-68251494D01*
X145224313Y-68134028D01*
X145332527Y-68045969D01*
X145447877Y-67989073D01*
X145566541Y-67965097D01*
X145684697Y-67975801D01*
G36*
X154864169Y-68100330D02*
G01*
X155044424Y-68148068D01*
X155211973Y-68230928D01*
X155359902Y-68347789D01*
X155360362Y-68348242D01*
X155484555Y-68498747D01*
X155572475Y-68666932D01*
X155623226Y-68847228D01*
X155635911Y-69034066D01*
X155609635Y-69221876D01*
X155543502Y-69405090D01*
X155533557Y-69425113D01*
X155475533Y-69515684D01*
X155394174Y-69613649D01*
X155302263Y-69705428D01*
X155212580Y-69777440D01*
X155186087Y-69794298D01*
X155042502Y-69858474D01*
X154879332Y-69898759D01*
X154710012Y-69913686D01*
X154547980Y-69901790D01*
X154442307Y-69875426D01*
X154261364Y-69792430D01*
X154107460Y-69680585D01*
X153982644Y-69544577D01*
X153888964Y-69389097D01*
X153828468Y-69218833D01*
X153803204Y-69038474D01*
X153815220Y-68852708D01*
X153866565Y-68666224D01*
X153889915Y-68610903D01*
X153964800Y-68485775D01*
X154069152Y-68363855D01*
X154191044Y-68257223D01*
X154316319Y-68179050D01*
X154493201Y-68114700D01*
X154678123Y-68088834D01*
X154864169Y-68100330D01*
G37*
X154864169Y-68100330D02*
X155044424Y-68148068D01*
X155211973Y-68230928D01*
X155359902Y-68347789D01*
X155360362Y-68348242D01*
X155484555Y-68498747D01*
X155572475Y-68666932D01*
X155623226Y-68847228D01*
X155635911Y-69034066D01*
X155609635Y-69221876D01*
X155543502Y-69405090D01*
X155533557Y-69425113D01*
X155475533Y-69515684D01*
X155394174Y-69613649D01*
X155302263Y-69705428D01*
X155212580Y-69777440D01*
X155186087Y-69794298D01*
X155042502Y-69858474D01*
X154879332Y-69898759D01*
X154710012Y-69913686D01*
X154547980Y-69901790D01*
X154442307Y-69875426D01*
X154261364Y-69792430D01*
X154107460Y-69680585D01*
X153982644Y-69544577D01*
X153888964Y-69389097D01*
X153828468Y-69218833D01*
X153803204Y-69038474D01*
X153815220Y-68852708D01*
X153866565Y-68666224D01*
X153889915Y-68610903D01*
X153964800Y-68485775D01*
X154069152Y-68363855D01*
X154191044Y-68257223D01*
X154316319Y-68179050D01*
X154493201Y-68114700D01*
X154678123Y-68088834D01*
X154864169Y-68100330D01*
G36*
X157843141Y-69276574D02*
G01*
X157963265Y-69279475D01*
X158103886Y-69284238D01*
X158259571Y-69290580D01*
X158424889Y-69298219D01*
X158594405Y-69306871D01*
X158762688Y-69316253D01*
X158924305Y-69326084D01*
X159073824Y-69336080D01*
X159205811Y-69345959D01*
X159314835Y-69355439D01*
X159395462Y-69364235D01*
X159442260Y-69372066D01*
X159450592Y-69375043D01*
X159471292Y-69411021D01*
X159467742Y-69472218D01*
X159441859Y-69550580D01*
X159395562Y-69638050D01*
X159383482Y-69656739D01*
X159260136Y-69809602D01*
X159114400Y-69936257D01*
X158953040Y-70032510D01*
X158782822Y-70094168D01*
X158642665Y-70115897D01*
X158484668Y-70113501D01*
X158369000Y-70093029D01*
X158175527Y-70023241D01*
X158010274Y-69929266D01*
X157876892Y-69813616D01*
X157787044Y-69692950D01*
X157761311Y-69639782D01*
X157732933Y-69567283D01*
X157705146Y-69485936D01*
X157681189Y-69406227D01*
X157664301Y-69338639D01*
X157657719Y-69293657D01*
X157660077Y-69281867D01*
X157686114Y-69277487D01*
X157748946Y-69275817D01*
X157843141Y-69276574D01*
G37*
X157843141Y-69276574D02*
X157963265Y-69279475D01*
X158103886Y-69284238D01*
X158259571Y-69290580D01*
X158424889Y-69298219D01*
X158594405Y-69306871D01*
X158762688Y-69316253D01*
X158924305Y-69326084D01*
X159073824Y-69336080D01*
X159205811Y-69345959D01*
X159314835Y-69355439D01*
X159395462Y-69364235D01*
X159442260Y-69372066D01*
X159450592Y-69375043D01*
X159471292Y-69411021D01*
X159467742Y-69472218D01*
X159441859Y-69550580D01*
X159395562Y-69638050D01*
X159383482Y-69656739D01*
X159260136Y-69809602D01*
X159114400Y-69936257D01*
X158953040Y-70032510D01*
X158782822Y-70094168D01*
X158642665Y-70115897D01*
X158484668Y-70113501D01*
X158369000Y-70093029D01*
X158175527Y-70023241D01*
X158010274Y-69929266D01*
X157876892Y-69813616D01*
X157787044Y-69692950D01*
X157761311Y-69639782D01*
X157732933Y-69567283D01*
X157705146Y-69485936D01*
X157681189Y-69406227D01*
X157664301Y-69338639D01*
X157657719Y-69293657D01*
X157660077Y-69281867D01*
X157686114Y-69277487D01*
X157748946Y-69275817D01*
X157843141Y-69276574D01*
G36*
X154705710Y-66200908D02*
G01*
X154840403Y-66206160D01*
X154950988Y-66217027D01*
X155046540Y-66235058D01*
X155136133Y-66261805D01*
X155228844Y-66298817D01*
X155294955Y-66329057D01*
X155405744Y-66388203D01*
X155523901Y-66462925D01*
X155644029Y-66548539D01*
X155760728Y-66640361D01*
X155868599Y-66733708D01*
X155962243Y-66823896D01*
X156036261Y-66906241D01*
X156085253Y-66976061D01*
X156103821Y-67028671D01*
X156103854Y-67030748D01*
X156097220Y-67097591D01*
X156077478Y-67194420D01*
X156043996Y-67323713D01*
X155996141Y-67487953D01*
X155947567Y-67644650D01*
X155911092Y-67763937D01*
X155877476Y-67881024D01*
X155849892Y-67984359D01*
X155831515Y-68062389D01*
X155828372Y-68078567D01*
X155810415Y-68177866D01*
X155797201Y-68242803D01*
X155785947Y-68280675D01*
X155773864Y-68298778D01*
X155758167Y-68304407D01*
X155741967Y-68304833D01*
X155706440Y-68291202D01*
X155651063Y-68255002D01*
X155586245Y-68203270D01*
X155568341Y-68187431D01*
X155392779Y-68053531D01*
X155204059Y-67958832D01*
X154998895Y-67902091D01*
X154773995Y-67882064D01*
X154760083Y-67882002D01*
X154550038Y-67896101D01*
X154364805Y-67940480D01*
X154196723Y-68018260D01*
X154038129Y-68132564D01*
X153953745Y-68210564D01*
X153817194Y-68371493D01*
X153710749Y-68550108D01*
X153636289Y-68739985D01*
X153595694Y-68934705D01*
X153590844Y-69127845D01*
X153623620Y-69312984D01*
X153627354Y-69325422D01*
X153702335Y-69501450D01*
X153813295Y-69669453D01*
X153953891Y-69822314D01*
X154117780Y-69952914D01*
X154260991Y-70036382D01*
X154335554Y-70071767D01*
X154396315Y-70094923D01*
X154456960Y-70108898D01*
X154531170Y-70116740D01*
X154632631Y-70121496D01*
X154645079Y-70121929D01*
X154839578Y-70120644D01*
X155004035Y-70099933D01*
X155147614Y-70056340D01*
X155279479Y-69986407D01*
X155408794Y-69886678D01*
X155500917Y-69799099D01*
X155607211Y-69684486D01*
X155689247Y-69576884D01*
X155755147Y-69462926D01*
X155813035Y-69329244D01*
X155851060Y-69222941D01*
X155893217Y-69106546D01*
X155932156Y-69026487D01*
X155974658Y-68977961D01*
X156027501Y-68956169D01*
X156097465Y-68956308D01*
X156191330Y-68973578D01*
X156200319Y-68975612D01*
X156317831Y-69011957D01*
X156394401Y-69058157D01*
X156430309Y-69114448D01*
X156429945Y-69166928D01*
X156410467Y-69223129D01*
X156373954Y-69306447D01*
X156325114Y-69407675D01*
X156268655Y-69517607D01*
X156209286Y-69627038D01*
X156151714Y-69726760D01*
X156107664Y-69797083D01*
X156020506Y-69915229D01*
X155909215Y-70045873D01*
X155784602Y-70177614D01*
X155657475Y-70299050D01*
X155538644Y-70398782D01*
X155533337Y-70402825D01*
X155422797Y-70478444D01*
X155291468Y-70555647D01*
X155152598Y-70627606D01*
X155019431Y-70687488D01*
X154905216Y-70728463D01*
X154897667Y-70730616D01*
X154816927Y-70746292D01*
X154704813Y-70758728D01*
X154570811Y-70767776D01*
X154424402Y-70773290D01*
X154275071Y-70775124D01*
X154132302Y-70773132D01*
X154005578Y-70767167D01*
X153904383Y-70757084D01*
X153851057Y-70746761D01*
X153716623Y-70700089D01*
X153581915Y-70632069D01*
X153441513Y-70539088D01*
X153290000Y-70417535D01*
X153121960Y-70263797D01*
X153111515Y-70253743D01*
X152930734Y-70070086D01*
X152783383Y-69897441D01*
X152665711Y-69727904D01*
X152573970Y-69553574D01*
X152504409Y-69366546D01*
X152453278Y-69158917D01*
X152416827Y-68922784D01*
X152399471Y-68753058D01*
X152390522Y-68587495D01*
X152390459Y-68411779D01*
X152398556Y-68236288D01*
X152414085Y-68071400D01*
X152436321Y-67927494D01*
X152464535Y-67814946D01*
X152465346Y-67812521D01*
X152510419Y-67696301D01*
X152573615Y-67557338D01*
X152648829Y-67407605D01*
X152729955Y-67259075D01*
X152810887Y-67123719D01*
X152838095Y-67081587D01*
X153015683Y-66844694D01*
X153210521Y-66645868D01*
X153424502Y-66483726D01*
X153659514Y-66356887D01*
X153917451Y-66263970D01*
X153979520Y-66247426D01*
X154059145Y-66229172D01*
X154135644Y-66216164D01*
X154218895Y-66207557D01*
X154318775Y-66202508D01*
X154445162Y-66200171D01*
X154537833Y-66199721D01*
X154705710Y-66200908D01*
G37*
X154705710Y-66200908D02*
X154840403Y-66206160D01*
X154950988Y-66217027D01*
X155046540Y-66235058D01*
X155136133Y-66261805D01*
X155228844Y-66298817D01*
X155294955Y-66329057D01*
X155405744Y-66388203D01*
X155523901Y-66462925D01*
X155644029Y-66548539D01*
X155760728Y-66640361D01*
X155868599Y-66733708D01*
X155962243Y-66823896D01*
X156036261Y-66906241D01*
X156085253Y-66976061D01*
X156103821Y-67028671D01*
X156103854Y-67030748D01*
X156097220Y-67097591D01*
X156077478Y-67194420D01*
X156043996Y-67323713D01*
X155996141Y-67487953D01*
X155947567Y-67644650D01*
X155911092Y-67763937D01*
X155877476Y-67881024D01*
X155849892Y-67984359D01*
X155831515Y-68062389D01*
X155828372Y-68078567D01*
X155810415Y-68177866D01*
X155797201Y-68242803D01*
X155785947Y-68280675D01*
X155773864Y-68298778D01*
X155758167Y-68304407D01*
X155741967Y-68304833D01*
X155706440Y-68291202D01*
X155651063Y-68255002D01*
X155586245Y-68203270D01*
X155568341Y-68187431D01*
X155392779Y-68053531D01*
X155204059Y-67958832D01*
X154998895Y-67902091D01*
X154773995Y-67882064D01*
X154760083Y-67882002D01*
X154550038Y-67896101D01*
X154364805Y-67940480D01*
X154196723Y-68018260D01*
X154038129Y-68132564D01*
X153953745Y-68210564D01*
X153817194Y-68371493D01*
X153710749Y-68550108D01*
X153636289Y-68739985D01*
X153595694Y-68934705D01*
X153590844Y-69127845D01*
X153623620Y-69312984D01*
X153627354Y-69325422D01*
X153702335Y-69501450D01*
X153813295Y-69669453D01*
X153953891Y-69822314D01*
X154117780Y-69952914D01*
X154260991Y-70036382D01*
X154335554Y-70071767D01*
X154396315Y-70094923D01*
X154456960Y-70108898D01*
X154531170Y-70116740D01*
X154632631Y-70121496D01*
X154645079Y-70121929D01*
X154839578Y-70120644D01*
X155004035Y-70099933D01*
X155147614Y-70056340D01*
X155279479Y-69986407D01*
X155408794Y-69886678D01*
X155500917Y-69799099D01*
X155607211Y-69684486D01*
X155689247Y-69576884D01*
X155755147Y-69462926D01*
X155813035Y-69329244D01*
X155851060Y-69222941D01*
X155893217Y-69106546D01*
X155932156Y-69026487D01*
X155974658Y-68977961D01*
X156027501Y-68956169D01*
X156097465Y-68956308D01*
X156191330Y-68973578D01*
X156200319Y-68975612D01*
X156317831Y-69011957D01*
X156394401Y-69058157D01*
X156430309Y-69114448D01*
X156429945Y-69166928D01*
X156410467Y-69223129D01*
X156373954Y-69306447D01*
X156325114Y-69407675D01*
X156268655Y-69517607D01*
X156209286Y-69627038D01*
X156151714Y-69726760D01*
X156107664Y-69797083D01*
X156020506Y-69915229D01*
X155909215Y-70045873D01*
X155784602Y-70177614D01*
X155657475Y-70299050D01*
X155538644Y-70398782D01*
X155533337Y-70402825D01*
X155422797Y-70478444D01*
X155291468Y-70555647D01*
X155152598Y-70627606D01*
X155019431Y-70687488D01*
X154905216Y-70728463D01*
X154897667Y-70730616D01*
X154816927Y-70746292D01*
X154704813Y-70758728D01*
X154570811Y-70767776D01*
X154424402Y-70773290D01*
X154275071Y-70775124D01*
X154132302Y-70773132D01*
X154005578Y-70767167D01*
X153904383Y-70757084D01*
X153851057Y-70746761D01*
X153716623Y-70700089D01*
X153581915Y-70632069D01*
X153441513Y-70539088D01*
X153290000Y-70417535D01*
X153121960Y-70263797D01*
X153111515Y-70253743D01*
X152930734Y-70070086D01*
X152783383Y-69897441D01*
X152665711Y-69727904D01*
X152573970Y-69553574D01*
X152504409Y-69366546D01*
X152453278Y-69158917D01*
X152416827Y-68922784D01*
X152399471Y-68753058D01*
X152390522Y-68587495D01*
X152390459Y-68411779D01*
X152398556Y-68236288D01*
X152414085Y-68071400D01*
X152436321Y-67927494D01*
X152464535Y-67814946D01*
X152465346Y-67812521D01*
X152510419Y-67696301D01*
X152573615Y-67557338D01*
X152648829Y-67407605D01*
X152729955Y-67259075D01*
X152810887Y-67123719D01*
X152838095Y-67081587D01*
X153015683Y-66844694D01*
X153210521Y-66645868D01*
X153424502Y-66483726D01*
X153659514Y-66356887D01*
X153917451Y-66263970D01*
X153979520Y-66247426D01*
X154059145Y-66229172D01*
X154135644Y-66216164D01*
X154218895Y-66207557D01*
X154318775Y-66202508D01*
X154445162Y-66200171D01*
X154537833Y-66199721D01*
X154705710Y-66200908D01*
G36*
X156886774Y-69142238D02*
G01*
X156962761Y-69154217D01*
X157042599Y-69169086D01*
X157175428Y-69196324D01*
X157273251Y-69222019D01*
X157343044Y-69250071D01*
X157391784Y-69284379D01*
X157426446Y-69328845D01*
X157454006Y-69387367D01*
X157459715Y-69402263D01*
X157550906Y-69607284D01*
X157660352Y-69779909D01*
X157765405Y-69901055D01*
X157911791Y-70027644D01*
X158068500Y-70119679D01*
X158241965Y-70179639D01*
X158438622Y-70210002D01*
X158580667Y-70215043D01*
X158798319Y-70195544D01*
X159003011Y-70139940D01*
X159190139Y-70050914D01*
X159355102Y-69931148D01*
X159493296Y-69783327D01*
X159592696Y-69625136D01*
X159632142Y-69550899D01*
X159669959Y-69494210D01*
X159712785Y-69451886D01*
X159767261Y-69420747D01*
X159840024Y-69397610D01*
X159937715Y-69379293D01*
X160066973Y-69362616D01*
X160162516Y-69352064D01*
X160360120Y-69330720D01*
X160550737Y-69309925D01*
X160727799Y-69290409D01*
X160884736Y-69272901D01*
X161014981Y-69258131D01*
X161111965Y-69246830D01*
X161136542Y-69243864D01*
X161200971Y-69236987D01*
X161233942Y-69239614D01*
X161245994Y-69255925D01*
X161247667Y-69287944D01*
X161235952Y-69342945D01*
X161203749Y-69424100D01*
X161155463Y-69523323D01*
X161095502Y-69632531D01*
X161028274Y-69743639D01*
X160958186Y-69848562D01*
X160898684Y-69928061D01*
X160716667Y-70133396D01*
X160515884Y-70320390D01*
X160302435Y-70484905D01*
X160082422Y-70622804D01*
X159861945Y-70729950D01*
X159647105Y-70802205D01*
X159590281Y-70815314D01*
X159516979Y-70825915D01*
X159410225Y-70835415D01*
X159278793Y-70843576D01*
X159131457Y-70850164D01*
X158976991Y-70854943D01*
X158824169Y-70857676D01*
X158681765Y-70858127D01*
X158558553Y-70856062D01*
X158463306Y-70851243D01*
X158421917Y-70846734D01*
X158224916Y-70797374D01*
X158022993Y-70710999D01*
X157820628Y-70591872D01*
X157622298Y-70444254D01*
X157432485Y-70272407D01*
X157255668Y-70080592D01*
X157096326Y-69873072D01*
X156958938Y-69654108D01*
X156847985Y-69427962D01*
X156800604Y-69304257D01*
X156778671Y-69234973D01*
X156772067Y-69193105D01*
X156779904Y-69166963D01*
X156789327Y-69155767D01*
X156808144Y-69143438D01*
X156837931Y-69138787D01*
X156886774Y-69142238D01*
G37*
X156886774Y-69142238D02*
X156962761Y-69154217D01*
X157042599Y-69169086D01*
X157175428Y-69196324D01*
X157273251Y-69222019D01*
X157343044Y-69250071D01*
X157391784Y-69284379D01*
X157426446Y-69328845D01*
X157454006Y-69387367D01*
X157459715Y-69402263D01*
X157550906Y-69607284D01*
X157660352Y-69779909D01*
X157765405Y-69901055D01*
X157911791Y-70027644D01*
X158068500Y-70119679D01*
X158241965Y-70179639D01*
X158438622Y-70210002D01*
X158580667Y-70215043D01*
X158798319Y-70195544D01*
X159003011Y-70139940D01*
X159190139Y-70050914D01*
X159355102Y-69931148D01*
X159493296Y-69783327D01*
X159592696Y-69625136D01*
X159632142Y-69550899D01*
X159669959Y-69494210D01*
X159712785Y-69451886D01*
X159767261Y-69420747D01*
X159840024Y-69397610D01*
X159937715Y-69379293D01*
X160066973Y-69362616D01*
X160162516Y-69352064D01*
X160360120Y-69330720D01*
X160550737Y-69309925D01*
X160727799Y-69290409D01*
X160884736Y-69272901D01*
X161014981Y-69258131D01*
X161111965Y-69246830D01*
X161136542Y-69243864D01*
X161200971Y-69236987D01*
X161233942Y-69239614D01*
X161245994Y-69255925D01*
X161247667Y-69287944D01*
X161235952Y-69342945D01*
X161203749Y-69424100D01*
X161155463Y-69523323D01*
X161095502Y-69632531D01*
X161028274Y-69743639D01*
X160958186Y-69848562D01*
X160898684Y-69928061D01*
X160716667Y-70133396D01*
X160515884Y-70320390D01*
X160302435Y-70484905D01*
X160082422Y-70622804D01*
X159861945Y-70729950D01*
X159647105Y-70802205D01*
X159590281Y-70815314D01*
X159516979Y-70825915D01*
X159410225Y-70835415D01*
X159278793Y-70843576D01*
X159131457Y-70850164D01*
X158976991Y-70854943D01*
X158824169Y-70857676D01*
X158681765Y-70858127D01*
X158558553Y-70856062D01*
X158463306Y-70851243D01*
X158421917Y-70846734D01*
X158224916Y-70797374D01*
X158022993Y-70710999D01*
X157820628Y-70591872D01*
X157622298Y-70444254D01*
X157432485Y-70272407D01*
X157255668Y-70080592D01*
X157096326Y-69873072D01*
X156958938Y-69654108D01*
X156847985Y-69427962D01*
X156800604Y-69304257D01*
X156778671Y-69234973D01*
X156772067Y-69193105D01*
X156779904Y-69166963D01*
X156789327Y-69155767D01*
X156808144Y-69143438D01*
X156837931Y-69138787D01*
X156886774Y-69142238D01*
G36*
X155479812Y-72481607D02*
G01*
X155481990Y-72510431D01*
X155478707Y-72522292D01*
X155452165Y-72590384D01*
X155407946Y-72682168D01*
X155349595Y-72791939D01*
X155280657Y-72913992D01*
X155204679Y-73042620D01*
X155125206Y-73172119D01*
X155045782Y-73296783D01*
X154969954Y-73410906D01*
X154901266Y-73508784D01*
X154843265Y-73584710D01*
X154799495Y-73632979D01*
X154779766Y-73647057D01*
X154749449Y-73637307D01*
X154707499Y-73594228D01*
X154688255Y-73568028D01*
X154653724Y-73513898D01*
X154605651Y-73433301D01*
X154550406Y-73337131D01*
X154494441Y-73236438D01*
X154362756Y-72995153D01*
X154434420Y-72934271D01*
X154488384Y-72896585D01*
X154571677Y-72848413D01*
X154677138Y-72793006D01*
X154797606Y-72733616D01*
X154925921Y-72673493D01*
X155054923Y-72615887D01*
X155177450Y-72564051D01*
X155286342Y-72521235D01*
X155374438Y-72490689D01*
X155434579Y-72475665D01*
X155446759Y-72474667D01*
X155479812Y-72481607D01*
G37*
X155479812Y-72481607D02*
X155481990Y-72510431D01*
X155478707Y-72522292D01*
X155452165Y-72590384D01*
X155407946Y-72682168D01*
X155349595Y-72791939D01*
X155280657Y-72913992D01*
X155204679Y-73042620D01*
X155125206Y-73172119D01*
X155045782Y-73296783D01*
X154969954Y-73410906D01*
X154901266Y-73508784D01*
X154843265Y-73584710D01*
X154799495Y-73632979D01*
X154779766Y-73647057D01*
X154749449Y-73637307D01*
X154707499Y-73594228D01*
X154688255Y-73568028D01*
X154653724Y-73513898D01*
X154605651Y-73433301D01*
X154550406Y-73337131D01*
X154494441Y-73236438D01*
X154362756Y-72995153D01*
X154434420Y-72934271D01*
X154488384Y-72896585D01*
X154571677Y-72848413D01*
X154677138Y-72793006D01*
X154797606Y-72733616D01*
X154925921Y-72673493D01*
X155054923Y-72615887D01*
X155177450Y-72564051D01*
X155286342Y-72521235D01*
X155374438Y-72490689D01*
X155434579Y-72475665D01*
X155446759Y-72474667D01*
X155479812Y-72481607D01*
G36*
X152944883Y-73411311D02*
G01*
X152974489Y-73421689D01*
X152985695Y-73447458D01*
X152979155Y-73488751D01*
X152952953Y-73549859D01*
X152905170Y-73635077D01*
X152833890Y-73748696D01*
X152816491Y-73775443D01*
X152721817Y-73916011D01*
X152642535Y-74024660D01*
X152579871Y-74099867D01*
X152535054Y-74140107D01*
X152517192Y-74146833D01*
X152487673Y-74131989D01*
X152444425Y-74094267D01*
X152420762Y-74069055D01*
X152380007Y-74014076D01*
X152333827Y-73938866D01*
X152287955Y-73854562D01*
X152248122Y-73772302D01*
X152220059Y-73703222D01*
X152209500Y-73658586D01*
X152224204Y-73618862D01*
X152250076Y-73587507D01*
X152299329Y-73556815D01*
X152376591Y-73524646D01*
X152473228Y-73492979D01*
X152580607Y-73463787D01*
X152690095Y-73439049D01*
X152793060Y-73420739D01*
X152880866Y-73410834D01*
X152944883Y-73411311D01*
G37*
X152944883Y-73411311D02*
X152974489Y-73421689D01*
X152985695Y-73447458D01*
X152979155Y-73488751D01*
X152952953Y-73549859D01*
X152905170Y-73635077D01*
X152833890Y-73748696D01*
X152816491Y-73775443D01*
X152721817Y-73916011D01*
X152642535Y-74024660D01*
X152579871Y-74099867D01*
X152535054Y-74140107D01*
X152517192Y-74146833D01*
X152487673Y-74131989D01*
X152444425Y-74094267D01*
X152420762Y-74069055D01*
X152380007Y-74014076D01*
X152333827Y-73938866D01*
X152287955Y-73854562D01*
X152248122Y-73772302D01*
X152220059Y-73703222D01*
X152209500Y-73658586D01*
X152224204Y-73618862D01*
X152250076Y-73587507D01*
X152299329Y-73556815D01*
X152376591Y-73524646D01*
X152473228Y-73492979D01*
X152580607Y-73463787D01*
X152690095Y-73439049D01*
X152793060Y-73420739D01*
X152880866Y-73410834D01*
X152944883Y-73411311D01*
G36*
X146324656Y-73479853D02*
G01*
X146439533Y-73492500D01*
X146593103Y-73516080D01*
X146784654Y-73550510D01*
X146872134Y-73567375D01*
X147012791Y-73596617D01*
X147116081Y-73622706D01*
X147186636Y-73647784D01*
X147229092Y-73673990D01*
X147248081Y-73703467D01*
X147248237Y-73738355D01*
X147247696Y-73740906D01*
X147228149Y-73800175D01*
X147192476Y-73882196D01*
X147144714Y-73979825D01*
X147088901Y-74085915D01*
X147029074Y-74193320D01*
X146969271Y-74294895D01*
X146913531Y-74383492D01*
X146865889Y-74451967D01*
X146830386Y-74493172D01*
X146817945Y-74501488D01*
X146792624Y-74490151D01*
X146754141Y-74452244D01*
X146722695Y-74412165D01*
X146632348Y-74281089D01*
X146544084Y-74145478D01*
X146460643Y-74010305D01*
X146384762Y-73880546D01*
X146319178Y-73761174D01*
X146266631Y-73657163D01*
X146229858Y-73573487D01*
X146211597Y-73515120D01*
X146213824Y-73487709D01*
X146249182Y-73478228D01*
X146324656Y-73479853D01*
G37*
X146324656Y-73479853D02*
X146439533Y-73492500D01*
X146593103Y-73516080D01*
X146784654Y-73550510D01*
X146872134Y-73567375D01*
X147012791Y-73596617D01*
X147116081Y-73622706D01*
X147186636Y-73647784D01*
X147229092Y-73673990D01*
X147248081Y-73703467D01*
X147248237Y-73738355D01*
X147247696Y-73740906D01*
X147228149Y-73800175D01*
X147192476Y-73882196D01*
X147144714Y-73979825D01*
X147088901Y-74085915D01*
X147029074Y-74193320D01*
X146969271Y-74294895D01*
X146913531Y-74383492D01*
X146865889Y-74451967D01*
X146830386Y-74493172D01*
X146817945Y-74501488D01*
X146792624Y-74490151D01*
X146754141Y-74452244D01*
X146722695Y-74412165D01*
X146632348Y-74281089D01*
X146544084Y-74145478D01*
X146460643Y-74010305D01*
X146384762Y-73880546D01*
X146319178Y-73761174D01*
X146266631Y-73657163D01*
X146229858Y-73573487D01*
X146211597Y-73515120D01*
X146213824Y-73487709D01*
X146249182Y-73478228D01*
X146324656Y-73479853D01*
G36*
X149611962Y-73811026D02*
G01*
X149720117Y-73812924D01*
X149802616Y-73816223D01*
X149831188Y-73818344D01*
X149920498Y-73830111D01*
X149973247Y-73844900D01*
X149987000Y-73858613D01*
X149976250Y-73884735D01*
X149946384Y-73940682D01*
X149900976Y-74020541D01*
X149843600Y-74118400D01*
X149777831Y-74228346D01*
X149707242Y-74344465D01*
X149635410Y-74460844D01*
X149565907Y-74571571D01*
X149502308Y-74670733D01*
X149448188Y-74752416D01*
X149435473Y-74770985D01*
X149362009Y-74871039D01*
X149303903Y-74935650D01*
X149258383Y-74967629D01*
X149236932Y-74972333D01*
X149220399Y-74956301D01*
X149184519Y-74912741D01*
X149134712Y-74848459D01*
X149081008Y-74776542D01*
X148979261Y-74633743D01*
X148882135Y-74489243D01*
X148792734Y-74348379D01*
X148714160Y-74216489D01*
X148649516Y-74098908D01*
X148601905Y-74000974D01*
X148574431Y-73928023D01*
X148568833Y-73895626D01*
X148586099Y-73853641D01*
X148605875Y-73838507D01*
X148638983Y-73832835D01*
X148707625Y-73827556D01*
X148805002Y-73822783D01*
X148924315Y-73818627D01*
X149058765Y-73815201D01*
X149201554Y-73812615D01*
X149345882Y-73810983D01*
X149484951Y-73810416D01*
X149611962Y-73811026D01*
G37*
X149611962Y-73811026D02*
X149720117Y-73812924D01*
X149802616Y-73816223D01*
X149831188Y-73818344D01*
X149920498Y-73830111D01*
X149973247Y-73844900D01*
X149987000Y-73858613D01*
X149976250Y-73884735D01*
X149946384Y-73940682D01*
X149900976Y-74020541D01*
X149843600Y-74118400D01*
X149777831Y-74228346D01*
X149707242Y-74344465D01*
X149635410Y-74460844D01*
X149565907Y-74571571D01*
X149502308Y-74670733D01*
X149448188Y-74752416D01*
X149435473Y-74770985D01*
X149362009Y-74871039D01*
X149303903Y-74935650D01*
X149258383Y-74967629D01*
X149236932Y-74972333D01*
X149220399Y-74956301D01*
X149184519Y-74912741D01*
X149134712Y-74848459D01*
X149081008Y-74776542D01*
X148979261Y-74633743D01*
X148882135Y-74489243D01*
X148792734Y-74348379D01*
X148714160Y-74216489D01*
X148649516Y-74098908D01*
X148601905Y-74000974D01*
X148574431Y-73928023D01*
X148568833Y-73895626D01*
X148586099Y-73853641D01*
X148605875Y-73838507D01*
X148638983Y-73832835D01*
X148707625Y-73827556D01*
X148805002Y-73822783D01*
X148924315Y-73818627D01*
X149058765Y-73815201D01*
X149201554Y-73812615D01*
X149345882Y-73810983D01*
X149484951Y-73810416D01*
X149611962Y-73811026D01*
G36*
X157217185Y-71855707D02*
G01*
X157194599Y-72276885D01*
X157160358Y-72676002D01*
X157115033Y-73048575D01*
X157059195Y-73390119D01*
X156993415Y-73696152D01*
X156972121Y-73779267D01*
X156876866Y-74095580D01*
X156766928Y-74379300D01*
X156637516Y-74638992D01*
X156483837Y-74883224D01*
X156301103Y-75120562D01*
X156093583Y-75350196D01*
X155849076Y-75588361D01*
X155601475Y-75797036D01*
X155345882Y-75978599D01*
X155077399Y-76135430D01*
X154791126Y-76269908D01*
X154482166Y-76384411D01*
X154145621Y-76481320D01*
X153776591Y-76563014D01*
X153494206Y-76612759D01*
X153228093Y-76649839D01*
X152942417Y-76679698D01*
X152647765Y-76701796D01*
X152354722Y-76715594D01*
X152073873Y-76720554D01*
X151815806Y-76716136D01*
X151648583Y-76706733D01*
X151267080Y-76665358D01*
X150877776Y-76598868D01*
X150476978Y-76506231D01*
X150060996Y-76386414D01*
X149626135Y-76238385D01*
X149168704Y-76061112D01*
X148834957Y-75919879D01*
X148693703Y-75857732D01*
X148570725Y-75801873D01*
X148461525Y-75749220D01*
X148361607Y-75696688D01*
X148266472Y-75641193D01*
X148171625Y-75579652D01*
X148072568Y-75508981D01*
X147964805Y-75426096D01*
X147843839Y-75327912D01*
X147705172Y-75211347D01*
X147544308Y-75073316D01*
X147356751Y-74910735D01*
X147331751Y-74889007D01*
X147259662Y-74825024D01*
X147201186Y-74770614D01*
X147162768Y-74731943D01*
X147150666Y-74715739D01*
X147162069Y-74692011D01*
X147192255Y-74643561D01*
X147235195Y-74579965D01*
X147244811Y-74566232D01*
X147289004Y-74503071D01*
X147350785Y-74414194D01*
X147423787Y-74308789D01*
X147501643Y-74196043D01*
X147553204Y-74121189D01*
X147642848Y-73993211D01*
X147715654Y-73896322D01*
X147777055Y-73825609D01*
X147832485Y-73776160D01*
X147887377Y-73743062D01*
X147947164Y-73721402D01*
X148010845Y-73707412D01*
X148111952Y-73693654D01*
X148188057Y-73697625D01*
X148247211Y-73724302D01*
X148297462Y-73778660D01*
X148346859Y-73865674D01*
X148379214Y-73935133D01*
X148461924Y-74107480D01*
X148559934Y-74290974D01*
X148668039Y-74477300D01*
X148781035Y-74658145D01*
X148893719Y-74825194D01*
X149000887Y-74970132D01*
X149097334Y-75084646D01*
X149101467Y-75089087D01*
X149199938Y-75183094D01*
X149297282Y-75255509D01*
X149387336Y-75302945D01*
X149463933Y-75322012D01*
X149511504Y-75314507D01*
X149560405Y-75277586D01*
X149625734Y-75205158D01*
X149705706Y-75099930D01*
X149798532Y-74964611D01*
X149902426Y-74801905D01*
X150015599Y-74614522D01*
X150136265Y-74405167D01*
X150261533Y-74178583D01*
X150319931Y-74072061D01*
X150372912Y-73977653D01*
X150416604Y-73902090D01*
X150447129Y-73852103D01*
X150459036Y-73835465D01*
X150486198Y-73825103D01*
X150549228Y-73809444D01*
X150642162Y-73789706D01*
X150759039Y-73767103D01*
X150893897Y-73742851D01*
X151008231Y-73723489D01*
X151162839Y-73697398D01*
X151313222Y-73670914D01*
X151451231Y-73645556D01*
X151568716Y-73622844D01*
X151657526Y-73604296D01*
X151694241Y-73595649D01*
X151775756Y-73575884D01*
X151844245Y-73561233D01*
X151887009Y-73554370D01*
X151891248Y-73554167D01*
X151918417Y-73573093D01*
X151960616Y-73628041D01*
X152015872Y-73716264D01*
X152047764Y-73771967D01*
X152213199Y-74041074D01*
X152389904Y-74275144D01*
X152491913Y-74389561D01*
X152567051Y-74462364D01*
X152628903Y-74501739D01*
X152685721Y-74507314D01*
X152745755Y-74478716D01*
X152817260Y-74415572D01*
X152857948Y-74373024D01*
X152897108Y-74330472D01*
X152931563Y-74291452D01*
X152964757Y-74251129D01*
X153000137Y-74204670D01*
X153041149Y-74147239D01*
X153091239Y-74074002D01*
X153153853Y-73980125D01*
X153232438Y-73860771D01*
X153330440Y-73711108D01*
X153337957Y-73699615D01*
X153413999Y-73586511D01*
X153492360Y-73475435D01*
X153566154Y-73375778D01*
X153628500Y-73296931D01*
X153657686Y-73263372D01*
X153709052Y-73212794D01*
X153776054Y-73153628D01*
X153851482Y-73091401D01*
X153928128Y-73031640D01*
X153998781Y-72979870D01*
X154056233Y-72941619D01*
X154093275Y-72922412D01*
X154102652Y-72922267D01*
X154115151Y-72943946D01*
X154139726Y-72991029D01*
X154156885Y-73025000D01*
X154207346Y-73116727D01*
X154277313Y-73231153D01*
X154359930Y-73357852D01*
X154448339Y-73486402D01*
X154535685Y-73606377D01*
X154561939Y-73640801D01*
X154663641Y-73756206D01*
X154766399Y-73842651D01*
X154864988Y-73896460D01*
X154950249Y-73914000D01*
X155012695Y-73905967D01*
X155075672Y-73880225D01*
X155141083Y-73834308D01*
X155210830Y-73765749D01*
X155286815Y-73672084D01*
X155370938Y-73550845D01*
X155465104Y-73399567D01*
X155571212Y-73215784D01*
X155691166Y-72997030D01*
X155766506Y-72855667D01*
X155867507Y-72665976D01*
X155952524Y-72509669D01*
X156024261Y-72382146D01*
X156085427Y-72278808D01*
X156138729Y-72195055D01*
X156186874Y-72126288D01*
X156224093Y-72078237D01*
X156285350Y-72016798D01*
X156376916Y-71942746D01*
X156490648Y-71861172D01*
X156618398Y-71777165D01*
X156752024Y-71695812D01*
X156883379Y-71622205D01*
X157004318Y-71561431D01*
X157106696Y-71518580D01*
X157134542Y-71509383D01*
X157231630Y-71480163D01*
X157217185Y-71855707D01*
G37*
X157217185Y-71855707D02*
X157194599Y-72276885D01*
X157160358Y-72676002D01*
X157115033Y-73048575D01*
X157059195Y-73390119D01*
X156993415Y-73696152D01*
X156972121Y-73779267D01*
X156876866Y-74095580D01*
X156766928Y-74379300D01*
X156637516Y-74638992D01*
X156483837Y-74883224D01*
X156301103Y-75120562D01*
X156093583Y-75350196D01*
X155849076Y-75588361D01*
X155601475Y-75797036D01*
X155345882Y-75978599D01*
X155077399Y-76135430D01*
X154791126Y-76269908D01*
X154482166Y-76384411D01*
X154145621Y-76481320D01*
X153776591Y-76563014D01*
X153494206Y-76612759D01*
X153228093Y-76649839D01*
X152942417Y-76679698D01*
X152647765Y-76701796D01*
X152354722Y-76715594D01*
X152073873Y-76720554D01*
X151815806Y-76716136D01*
X151648583Y-76706733D01*
X151267080Y-76665358D01*
X150877776Y-76598868D01*
X150476978Y-76506231D01*
X150060996Y-76386414D01*
X149626135Y-76238385D01*
X149168704Y-76061112D01*
X148834957Y-75919879D01*
X148693703Y-75857732D01*
X148570725Y-75801873D01*
X148461525Y-75749220D01*
X148361607Y-75696688D01*
X148266472Y-75641193D01*
X148171625Y-75579652D01*
X148072568Y-75508981D01*
X147964805Y-75426096D01*
X147843839Y-75327912D01*
X147705172Y-75211347D01*
X147544308Y-75073316D01*
X147356751Y-74910735D01*
X147331751Y-74889007D01*
X147259662Y-74825024D01*
X147201186Y-74770614D01*
X147162768Y-74731943D01*
X147150666Y-74715739D01*
X147162069Y-74692011D01*
X147192255Y-74643561D01*
X147235195Y-74579965D01*
X147244811Y-74566232D01*
X147289004Y-74503071D01*
X147350785Y-74414194D01*
X147423787Y-74308789D01*
X147501643Y-74196043D01*
X147553204Y-74121189D01*
X147642848Y-73993211D01*
X147715654Y-73896322D01*
X147777055Y-73825609D01*
X147832485Y-73776160D01*
X147887377Y-73743062D01*
X147947164Y-73721402D01*
X148010845Y-73707412D01*
X148111952Y-73693654D01*
X148188057Y-73697625D01*
X148247211Y-73724302D01*
X148297462Y-73778660D01*
X148346859Y-73865674D01*
X148379214Y-73935133D01*
X148461924Y-74107480D01*
X148559934Y-74290974D01*
X148668039Y-74477300D01*
X148781035Y-74658145D01*
X148893719Y-74825194D01*
X149000887Y-74970132D01*
X149097334Y-75084646D01*
X149101467Y-75089087D01*
X149199938Y-75183094D01*
X149297282Y-75255509D01*
X149387336Y-75302945D01*
X149463933Y-75322012D01*
X149511504Y-75314507D01*
X149560405Y-75277586D01*
X149625734Y-75205158D01*
X149705706Y-75099930D01*
X149798532Y-74964611D01*
X149902426Y-74801905D01*
X150015599Y-74614522D01*
X150136265Y-74405167D01*
X150261533Y-74178583D01*
X150319931Y-74072061D01*
X150372912Y-73977653D01*
X150416604Y-73902090D01*
X150447129Y-73852103D01*
X150459036Y-73835465D01*
X150486198Y-73825103D01*
X150549228Y-73809444D01*
X150642162Y-73789706D01*
X150759039Y-73767103D01*
X150893897Y-73742851D01*
X151008231Y-73723489D01*
X151162839Y-73697398D01*
X151313222Y-73670914D01*
X151451231Y-73645556D01*
X151568716Y-73622844D01*
X151657526Y-73604296D01*
X151694241Y-73595649D01*
X151775756Y-73575884D01*
X151844245Y-73561233D01*
X151887009Y-73554370D01*
X151891248Y-73554167D01*
X151918417Y-73573093D01*
X151960616Y-73628041D01*
X152015872Y-73716264D01*
X152047764Y-73771967D01*
X152213199Y-74041074D01*
X152389904Y-74275144D01*
X152491913Y-74389561D01*
X152567051Y-74462364D01*
X152628903Y-74501739D01*
X152685721Y-74507314D01*
X152745755Y-74478716D01*
X152817260Y-74415572D01*
X152857948Y-74373024D01*
X152897108Y-74330472D01*
X152931563Y-74291452D01*
X152964757Y-74251129D01*
X153000137Y-74204670D01*
X153041149Y-74147239D01*
X153091239Y-74074002D01*
X153153853Y-73980125D01*
X153232438Y-73860771D01*
X153330440Y-73711108D01*
X153337957Y-73699615D01*
X153413999Y-73586511D01*
X153492360Y-73475435D01*
X153566154Y-73375778D01*
X153628500Y-73296931D01*
X153657686Y-73263372D01*
X153709052Y-73212794D01*
X153776054Y-73153628D01*
X153851482Y-73091401D01*
X153928128Y-73031640D01*
X153998781Y-72979870D01*
X154056233Y-72941619D01*
X154093275Y-72922412D01*
X154102652Y-72922267D01*
X154115151Y-72943946D01*
X154139726Y-72991029D01*
X154156885Y-73025000D01*
X154207346Y-73116727D01*
X154277313Y-73231153D01*
X154359930Y-73357852D01*
X154448339Y-73486402D01*
X154535685Y-73606377D01*
X154561939Y-73640801D01*
X154663641Y-73756206D01*
X154766399Y-73842651D01*
X154864988Y-73896460D01*
X154950249Y-73914000D01*
X155012695Y-73905967D01*
X155075672Y-73880225D01*
X155141083Y-73834308D01*
X155210830Y-73765749D01*
X155286815Y-73672084D01*
X155370938Y-73550845D01*
X155465104Y-73399567D01*
X155571212Y-73215784D01*
X155691166Y-72997030D01*
X155766506Y-72855667D01*
X155867507Y-72665976D01*
X155952524Y-72509669D01*
X156024261Y-72382146D01*
X156085427Y-72278808D01*
X156138729Y-72195055D01*
X156186874Y-72126288D01*
X156224093Y-72078237D01*
X156285350Y-72016798D01*
X156376916Y-71942746D01*
X156490648Y-71861172D01*
X156618398Y-71777165D01*
X156752024Y-71695812D01*
X156883379Y-71622205D01*
X157004318Y-71561431D01*
X157106696Y-71518580D01*
X157134542Y-71509383D01*
X157231630Y-71480163D01*
X157217185Y-71855707D01*
G36*
X153518423Y-78957345D02*
G01*
X153676101Y-78960960D01*
X153799432Y-78964852D01*
X153896402Y-78969859D01*
X153974993Y-78976819D01*
X154043189Y-78986570D01*
X154108974Y-78999949D01*
X154180331Y-79017795D01*
X154234687Y-79032518D01*
X154587125Y-79147286D01*
X154943473Y-79297791D01*
X155294114Y-79479658D01*
X155525988Y-79620041D01*
X155690807Y-79730953D01*
X155858288Y-79852527D01*
X156023580Y-79980531D01*
X156181833Y-80110729D01*
X156328197Y-80238889D01*
X156457821Y-80360778D01*
X156565857Y-80472161D01*
X156647453Y-80568806D01*
X156694402Y-80639922D01*
X156707076Y-80675512D01*
X156695772Y-80706228D01*
X156660651Y-80742979D01*
X156600636Y-80787342D01*
X156505020Y-80843052D01*
X156378385Y-80908139D01*
X156225314Y-80980636D01*
X156050390Y-81058573D01*
X155858197Y-81139981D01*
X155653318Y-81222893D01*
X155440335Y-81305339D01*
X155223832Y-81385350D01*
X155008391Y-81460959D01*
X154919838Y-81490757D01*
X154471657Y-81629509D01*
X154039843Y-81741618D01*
X153611802Y-81829528D01*
X153174936Y-81895681D01*
X152716652Y-81942521D01*
X152516778Y-81956894D01*
X152424421Y-81961466D01*
X152303567Y-81965450D01*
X152160419Y-81968816D01*
X152001174Y-81971534D01*
X151832034Y-81973576D01*
X151659198Y-81974912D01*
X151488868Y-81975512D01*
X151327242Y-81975347D01*
X151180522Y-81974388D01*
X151054908Y-81972604D01*
X150956599Y-81969967D01*
X150891795Y-81966447D01*
X150876000Y-81964689D01*
X150834643Y-81958800D01*
X150761792Y-81948808D01*
X150667924Y-81936137D01*
X150569083Y-81922951D01*
X150419517Y-81901481D01*
X150271617Y-81877306D01*
X150133858Y-81852050D01*
X150014714Y-81827339D01*
X149922660Y-81804795D01*
X149875875Y-81790054D01*
X149838561Y-81770216D01*
X149821748Y-81738938D01*
X149817724Y-81681280D01*
X149817720Y-81677399D01*
X149827222Y-81581692D01*
X149854308Y-81454498D01*
X149896983Y-81301865D01*
X149953254Y-81129841D01*
X150021127Y-80944474D01*
X150098606Y-80751810D01*
X150183700Y-80557898D01*
X150194689Y-80534053D01*
X150347186Y-80251586D01*
X150531753Y-79989663D01*
X150744521Y-79751435D01*
X150981616Y-79540053D01*
X151239170Y-79358667D01*
X151513310Y-79210428D01*
X151800165Y-79098487D01*
X152033132Y-79037808D01*
X152177545Y-79014066D01*
X152357095Y-78993783D01*
X152564697Y-78977342D01*
X152793267Y-78965129D01*
X153035719Y-78957525D01*
X153284969Y-78954916D01*
X153518423Y-78957345D01*
G37*
X153518423Y-78957345D02*
X153676101Y-78960960D01*
X153799432Y-78964852D01*
X153896402Y-78969859D01*
X153974993Y-78976819D01*
X154043189Y-78986570D01*
X154108974Y-78999949D01*
X154180331Y-79017795D01*
X154234687Y-79032518D01*
X154587125Y-79147286D01*
X154943473Y-79297791D01*
X155294114Y-79479658D01*
X155525988Y-79620041D01*
X155690807Y-79730953D01*
X155858288Y-79852527D01*
X156023580Y-79980531D01*
X156181833Y-80110729D01*
X156328197Y-80238889D01*
X156457821Y-80360778D01*
X156565857Y-80472161D01*
X156647453Y-80568806D01*
X156694402Y-80639922D01*
X156707076Y-80675512D01*
X156695772Y-80706228D01*
X156660651Y-80742979D01*
X156600636Y-80787342D01*
X156505020Y-80843052D01*
X156378385Y-80908139D01*
X156225314Y-80980636D01*
X156050390Y-81058573D01*
X155858197Y-81139981D01*
X155653318Y-81222893D01*
X155440335Y-81305339D01*
X155223832Y-81385350D01*
X155008391Y-81460959D01*
X154919838Y-81490757D01*
X154471657Y-81629509D01*
X154039843Y-81741618D01*
X153611802Y-81829528D01*
X153174936Y-81895681D01*
X152716652Y-81942521D01*
X152516778Y-81956894D01*
X152424421Y-81961466D01*
X152303567Y-81965450D01*
X152160419Y-81968816D01*
X152001174Y-81971534D01*
X151832034Y-81973576D01*
X151659198Y-81974912D01*
X151488868Y-81975512D01*
X151327242Y-81975347D01*
X151180522Y-81974388D01*
X151054908Y-81972604D01*
X150956599Y-81969967D01*
X150891795Y-81966447D01*
X150876000Y-81964689D01*
X150834643Y-81958800D01*
X150761792Y-81948808D01*
X150667924Y-81936137D01*
X150569083Y-81922951D01*
X150419517Y-81901481D01*
X150271617Y-81877306D01*
X150133858Y-81852050D01*
X150014714Y-81827339D01*
X149922660Y-81804795D01*
X149875875Y-81790054D01*
X149838561Y-81770216D01*
X149821748Y-81738938D01*
X149817724Y-81681280D01*
X149817720Y-81677399D01*
X149827222Y-81581692D01*
X149854308Y-81454498D01*
X149896983Y-81301865D01*
X149953254Y-81129841D01*
X150021127Y-80944474D01*
X150098606Y-80751810D01*
X150183700Y-80557898D01*
X150194689Y-80534053D01*
X150347186Y-80251586D01*
X150531753Y-79989663D01*
X150744521Y-79751435D01*
X150981616Y-79540053D01*
X151239170Y-79358667D01*
X151513310Y-79210428D01*
X151800165Y-79098487D01*
X152033132Y-79037808D01*
X152177545Y-79014066D01*
X152357095Y-78993783D01*
X152564697Y-78977342D01*
X152793267Y-78965129D01*
X153035719Y-78957525D01*
X153284969Y-78954916D01*
X153518423Y-78957345D01*
G36*
X157107051Y-81197917D02*
G01*
X157147307Y-81234525D01*
X157187707Y-81279771D01*
X157258426Y-81370380D01*
X157341493Y-81490612D01*
X157431875Y-81631812D01*
X157524538Y-81785327D01*
X157614448Y-81942501D01*
X157696573Y-82094679D01*
X157765879Y-82233207D01*
X157817331Y-82349431D01*
X157831313Y-82386394D01*
X157849439Y-82442797D01*
X157850456Y-82475460D01*
X157832281Y-82500218D01*
X157814345Y-82515396D01*
X157758301Y-82552800D01*
X157669172Y-82602277D01*
X157553405Y-82660762D01*
X157417449Y-82725187D01*
X157267753Y-82792487D01*
X157110765Y-82859597D01*
X156971820Y-82916014D01*
X156484443Y-83095191D01*
X155968764Y-83259777D01*
X155436775Y-83406677D01*
X154900467Y-83532796D01*
X154371833Y-83635039D01*
X153924000Y-83702612D01*
X153778107Y-83718175D01*
X153597433Y-83732192D01*
X153389156Y-83744504D01*
X153160455Y-83754956D01*
X152918510Y-83763390D01*
X152670500Y-83769649D01*
X152423604Y-83773576D01*
X152185001Y-83775015D01*
X151961871Y-83773807D01*
X151761391Y-83769797D01*
X151590742Y-83762827D01*
X151489833Y-83755840D01*
X151400163Y-83745911D01*
X151283103Y-83729864D01*
X151152796Y-83709784D01*
X151023384Y-83687756D01*
X151003000Y-83684061D01*
X150716801Y-83631342D01*
X150470378Y-83585242D01*
X150261757Y-83545380D01*
X150088964Y-83511372D01*
X149950025Y-83482836D01*
X149842967Y-83459388D01*
X149833542Y-83457216D01*
X149648333Y-83414306D01*
X149649474Y-83093278D01*
X149651129Y-82963721D01*
X149654866Y-82833040D01*
X149660172Y-82714592D01*
X149666536Y-82621735D01*
X149668254Y-82603877D01*
X149679347Y-82515204D01*
X149692650Y-82457286D01*
X149712107Y-82418577D01*
X149741661Y-82387535D01*
X149742376Y-82386919D01*
X149783402Y-82359364D01*
X149833346Y-82343812D01*
X149899946Y-82339914D01*
X149990939Y-82347323D01*
X150114061Y-82365691D01*
X150135167Y-82369265D01*
X150293475Y-82392020D01*
X150486060Y-82411838D01*
X150714593Y-82428829D01*
X150980743Y-82443103D01*
X151286182Y-82454768D01*
X151553333Y-82462140D01*
X151873987Y-82468252D01*
X152158894Y-82470132D01*
X152414475Y-82467288D01*
X152647152Y-82459228D01*
X152863346Y-82445460D01*
X153069477Y-82425491D01*
X153271967Y-82398830D01*
X153477237Y-82364984D01*
X153691708Y-82323462D01*
X153875116Y-82284188D01*
X154457816Y-82142944D01*
X155008675Y-81983924D01*
X155535329Y-81804636D01*
X156045413Y-81602590D01*
X156281475Y-81499114D01*
X156428157Y-81433771D01*
X156573312Y-81370823D01*
X156710427Y-81312948D01*
X156832990Y-81262826D01*
X156934490Y-81223133D01*
X157008416Y-81196548D01*
X157039540Y-81187341D01*
X157074506Y-81184295D01*
X157107051Y-81197917D01*
G37*
X157107051Y-81197917D02*
X157147307Y-81234525D01*
X157187707Y-81279771D01*
X157258426Y-81370380D01*
X157341493Y-81490612D01*
X157431875Y-81631812D01*
X157524538Y-81785327D01*
X157614448Y-81942501D01*
X157696573Y-82094679D01*
X157765879Y-82233207D01*
X157817331Y-82349431D01*
X157831313Y-82386394D01*
X157849439Y-82442797D01*
X157850456Y-82475460D01*
X157832281Y-82500218D01*
X157814345Y-82515396D01*
X157758301Y-82552800D01*
X157669172Y-82602277D01*
X157553405Y-82660762D01*
X157417449Y-82725187D01*
X157267753Y-82792487D01*
X157110765Y-82859597D01*
X156971820Y-82916014D01*
X156484443Y-83095191D01*
X155968764Y-83259777D01*
X155436775Y-83406677D01*
X154900467Y-83532796D01*
X154371833Y-83635039D01*
X153924000Y-83702612D01*
X153778107Y-83718175D01*
X153597433Y-83732192D01*
X153389156Y-83744504D01*
X153160455Y-83754956D01*
X152918510Y-83763390D01*
X152670500Y-83769649D01*
X152423604Y-83773576D01*
X152185001Y-83775015D01*
X151961871Y-83773807D01*
X151761391Y-83769797D01*
X151590742Y-83762827D01*
X151489833Y-83755840D01*
X151400163Y-83745911D01*
X151283103Y-83729864D01*
X151152796Y-83709784D01*
X151023384Y-83687756D01*
X151003000Y-83684061D01*
X150716801Y-83631342D01*
X150470378Y-83585242D01*
X150261757Y-83545380D01*
X150088964Y-83511372D01*
X149950025Y-83482836D01*
X149842967Y-83459388D01*
X149833542Y-83457216D01*
X149648333Y-83414306D01*
X149649474Y-83093278D01*
X149651129Y-82963721D01*
X149654866Y-82833040D01*
X149660172Y-82714592D01*
X149666536Y-82621735D01*
X149668254Y-82603877D01*
X149679347Y-82515204D01*
X149692650Y-82457286D01*
X149712107Y-82418577D01*
X149741661Y-82387535D01*
X149742376Y-82386919D01*
X149783402Y-82359364D01*
X149833346Y-82343812D01*
X149899946Y-82339914D01*
X149990939Y-82347323D01*
X150114061Y-82365691D01*
X150135167Y-82369265D01*
X150293475Y-82392020D01*
X150486060Y-82411838D01*
X150714593Y-82428829D01*
X150980743Y-82443103D01*
X151286182Y-82454768D01*
X151553333Y-82462140D01*
X151873987Y-82468252D01*
X152158894Y-82470132D01*
X152414475Y-82467288D01*
X152647152Y-82459228D01*
X152863346Y-82445460D01*
X153069477Y-82425491D01*
X153271967Y-82398830D01*
X153477237Y-82364984D01*
X153691708Y-82323462D01*
X153875116Y-82284188D01*
X154457816Y-82142944D01*
X155008675Y-81983924D01*
X155535329Y-81804636D01*
X156045413Y-81602590D01*
X156281475Y-81499114D01*
X156428157Y-81433771D01*
X156573312Y-81370823D01*
X156710427Y-81312948D01*
X156832990Y-81262826D01*
X156934490Y-81223133D01*
X157008416Y-81196548D01*
X157039540Y-81187341D01*
X157074506Y-81184295D01*
X157107051Y-81197917D01*
G36*
X158161199Y-83013637D02*
G01*
X158186895Y-83066351D01*
X158223878Y-83147585D01*
X158269887Y-83251964D01*
X158322661Y-83374113D01*
X158379941Y-83508656D01*
X158439466Y-83650217D01*
X158498975Y-83793423D01*
X158556207Y-83932896D01*
X158608902Y-84063263D01*
X158654800Y-84179146D01*
X158691639Y-84275172D01*
X158716737Y-84344719D01*
X158744451Y-84438128D01*
X158752475Y-84499105D01*
X158746305Y-84525854D01*
X158709912Y-84560960D01*
X158636302Y-84605938D01*
X158529033Y-84659266D01*
X158391660Y-84719423D01*
X158227739Y-84784889D01*
X158040826Y-84854142D01*
X157834476Y-84925660D01*
X157734000Y-84958904D01*
X157006814Y-85180070D01*
X156292505Y-85364704D01*
X155584997Y-85514129D01*
X154878212Y-85629666D01*
X154357917Y-85693508D01*
X154203480Y-85706845D01*
X154018908Y-85717882D01*
X153812546Y-85726522D01*
X153592735Y-85732666D01*
X153367819Y-85736214D01*
X153146142Y-85737069D01*
X152936045Y-85735131D01*
X152745874Y-85730303D01*
X152583969Y-85722486D01*
X152495250Y-85715507D01*
X152133774Y-85676054D01*
X151789983Y-85629510D01*
X151475761Y-85577493D01*
X151458083Y-85574229D01*
X151282754Y-85538949D01*
X151089166Y-85495327D01*
X150884656Y-85445399D01*
X150676564Y-85391200D01*
X150472225Y-85334764D01*
X150278979Y-85278128D01*
X150104163Y-85223327D01*
X149955114Y-85172395D01*
X149839171Y-85127368D01*
X149825336Y-85121359D01*
X149759070Y-85088511D01*
X149721162Y-85056818D01*
X149699650Y-85014538D01*
X149692732Y-84991190D01*
X149682019Y-84932768D01*
X149671415Y-84842827D01*
X149661401Y-84730230D01*
X149652456Y-84603840D01*
X149645060Y-84472519D01*
X149639694Y-84345130D01*
X149636837Y-84230537D01*
X149636971Y-84137603D01*
X149640574Y-84075190D01*
X149642472Y-84063417D01*
X149657548Y-84008830D01*
X149680740Y-83983164D01*
X149726074Y-83973417D01*
X149741026Y-83972067D01*
X149795220Y-83974202D01*
X149877667Y-83985264D01*
X149975704Y-84003308D01*
X150047112Y-84019118D01*
X150304676Y-84073655D01*
X150590882Y-84122145D01*
X150892219Y-84162465D01*
X151098250Y-84184078D01*
X151211754Y-84192080D01*
X151361344Y-84198733D01*
X151541321Y-84204056D01*
X151745989Y-84208069D01*
X151969648Y-84210793D01*
X152206601Y-84212248D01*
X152451151Y-84212454D01*
X152697600Y-84211431D01*
X152940249Y-84209201D01*
X153173400Y-84205782D01*
X153391357Y-84201195D01*
X153588421Y-84195461D01*
X153758895Y-84188600D01*
X153897080Y-84180632D01*
X153977051Y-84173843D01*
X154257717Y-84140861D01*
X154534815Y-84100312D01*
X154812495Y-84051079D01*
X155094904Y-83992044D01*
X155386191Y-83922087D01*
X155690503Y-83840092D01*
X156011990Y-83744939D01*
X156354800Y-83635511D01*
X156723081Y-83510688D01*
X157120981Y-83369354D01*
X157552649Y-83210389D01*
X157556384Y-83208993D01*
X157703702Y-83154170D01*
X157838318Y-83104543D01*
X157955086Y-83061973D01*
X158048862Y-83028318D01*
X158114501Y-83005438D01*
X158146855Y-82995193D01*
X158149051Y-82994819D01*
X158161199Y-83013637D01*
G37*
X158161199Y-83013637D02*
X158186895Y-83066351D01*
X158223878Y-83147585D01*
X158269887Y-83251964D01*
X158322661Y-83374113D01*
X158379941Y-83508656D01*
X158439466Y-83650217D01*
X158498975Y-83793423D01*
X158556207Y-83932896D01*
X158608902Y-84063263D01*
X158654800Y-84179146D01*
X158691639Y-84275172D01*
X158716737Y-84344719D01*
X158744451Y-84438128D01*
X158752475Y-84499105D01*
X158746305Y-84525854D01*
X158709912Y-84560960D01*
X158636302Y-84605938D01*
X158529033Y-84659266D01*
X158391660Y-84719423D01*
X158227739Y-84784889D01*
X158040826Y-84854142D01*
X157834476Y-84925660D01*
X157734000Y-84958904D01*
X157006814Y-85180070D01*
X156292505Y-85364704D01*
X155584997Y-85514129D01*
X154878212Y-85629666D01*
X154357917Y-85693508D01*
X154203480Y-85706845D01*
X154018908Y-85717882D01*
X153812546Y-85726522D01*
X153592735Y-85732666D01*
X153367819Y-85736214D01*
X153146142Y-85737069D01*
X152936045Y-85735131D01*
X152745874Y-85730303D01*
X152583969Y-85722486D01*
X152495250Y-85715507D01*
X152133774Y-85676054D01*
X151789983Y-85629510D01*
X151475761Y-85577493D01*
X151458083Y-85574229D01*
X151282754Y-85538949D01*
X151089166Y-85495327D01*
X150884656Y-85445399D01*
X150676564Y-85391200D01*
X150472225Y-85334764D01*
X150278979Y-85278128D01*
X150104163Y-85223327D01*
X149955114Y-85172395D01*
X149839171Y-85127368D01*
X149825336Y-85121359D01*
X149759070Y-85088511D01*
X149721162Y-85056818D01*
X149699650Y-85014538D01*
X149692732Y-84991190D01*
X149682019Y-84932768D01*
X149671415Y-84842827D01*
X149661401Y-84730230D01*
X149652456Y-84603840D01*
X149645060Y-84472519D01*
X149639694Y-84345130D01*
X149636837Y-84230537D01*
X149636971Y-84137603D01*
X149640574Y-84075190D01*
X149642472Y-84063417D01*
X149657548Y-84008830D01*
X149680740Y-83983164D01*
X149726074Y-83973417D01*
X149741026Y-83972067D01*
X149795220Y-83974202D01*
X149877667Y-83985264D01*
X149975704Y-84003308D01*
X150047112Y-84019118D01*
X150304676Y-84073655D01*
X150590882Y-84122145D01*
X150892219Y-84162465D01*
X151098250Y-84184078D01*
X151211754Y-84192080D01*
X151361344Y-84198733D01*
X151541321Y-84204056D01*
X151745989Y-84208069D01*
X151969648Y-84210793D01*
X152206601Y-84212248D01*
X152451151Y-84212454D01*
X152697600Y-84211431D01*
X152940249Y-84209201D01*
X153173400Y-84205782D01*
X153391357Y-84201195D01*
X153588421Y-84195461D01*
X153758895Y-84188600D01*
X153897080Y-84180632D01*
X153977051Y-84173843D01*
X154257717Y-84140861D01*
X154534815Y-84100312D01*
X154812495Y-84051079D01*
X155094904Y-83992044D01*
X155386191Y-83922087D01*
X155690503Y-83840092D01*
X156011990Y-83744939D01*
X156354800Y-83635511D01*
X156723081Y-83510688D01*
X157120981Y-83369354D01*
X157552649Y-83210389D01*
X157556384Y-83208993D01*
X157703702Y-83154170D01*
X157838318Y-83104543D01*
X157955086Y-83061973D01*
X158048862Y-83028318D01*
X158114501Y-83005438D01*
X158146855Y-82995193D01*
X158149051Y-82994819D01*
X158161199Y-83013637D01*
G36*
X159370218Y-65323711D02*
G01*
X159560492Y-65334390D01*
X159728173Y-65353646D01*
X159882909Y-65382695D01*
X160034345Y-65422753D01*
X160085199Y-65438583D01*
X160391643Y-65557620D01*
X160696669Y-65715788D01*
X160996619Y-65909947D01*
X161287832Y-66136954D01*
X161566651Y-66393666D01*
X161829414Y-66676942D01*
X162072465Y-66983639D01*
X162292142Y-67310617D01*
X162321338Y-67358691D01*
X162421324Y-67530000D01*
X162514123Y-67699278D01*
X162602609Y-67872782D01*
X162689657Y-68056767D01*
X162778143Y-68257488D01*
X162870940Y-68481201D01*
X162970924Y-68734162D01*
X163057718Y-68961000D01*
X163114878Y-69111785D01*
X163171166Y-69259689D01*
X163223604Y-69396927D01*
X163269211Y-69515713D01*
X163305009Y-69608264D01*
X163323006Y-69654208D01*
X163392123Y-69828833D01*
X163734903Y-69828833D01*
X163896493Y-69830674D01*
X164020204Y-69836651D01*
X164110350Y-69847448D01*
X164171245Y-69863748D01*
X164207202Y-69886234D01*
X164219692Y-69905620D01*
X164221216Y-69942530D01*
X164200996Y-69993911D01*
X164157055Y-70062500D01*
X164087416Y-70151033D01*
X163990100Y-70262246D01*
X163863630Y-70398350D01*
X163775289Y-70492684D01*
X163697907Y-70577509D01*
X163635937Y-70647762D01*
X163593832Y-70698380D01*
X163576044Y-70724302D01*
X163575748Y-70725670D01*
X163580745Y-70757241D01*
X163594591Y-70820927D01*
X163615160Y-70908367D01*
X163640328Y-71011198D01*
X163667971Y-71121058D01*
X163695965Y-71229585D01*
X163722185Y-71328417D01*
X163744508Y-71409191D01*
X163760810Y-71463546D01*
X163767900Y-71482099D01*
X163780480Y-71491327D01*
X163807453Y-71495643D01*
X163854105Y-71494678D01*
X163925721Y-71488059D01*
X164027586Y-71475417D01*
X164164987Y-71456381D01*
X164194117Y-71452216D01*
X164322882Y-71434052D01*
X164438962Y-71418260D01*
X164535198Y-71405767D01*
X164604429Y-71397501D01*
X164639495Y-71394389D01*
X164640587Y-71394390D01*
X164694998Y-71414334D01*
X164743463Y-71463159D01*
X164775480Y-71527662D01*
X164782500Y-71572834D01*
X164778805Y-71607479D01*
X164765722Y-71644931D01*
X164740259Y-71688736D01*
X164699419Y-71742444D01*
X164640208Y-71809603D01*
X164559633Y-71893760D01*
X164454697Y-71998466D01*
X164322408Y-72127267D01*
X164280319Y-72167879D01*
X163950683Y-72485509D01*
X163986693Y-72739379D01*
X164010552Y-72902828D01*
X164034259Y-73056522D01*
X164056868Y-73195028D01*
X164077435Y-73312912D01*
X164095014Y-73404742D01*
X164108661Y-73465085D01*
X164116954Y-73488144D01*
X164148236Y-73496641D01*
X164213610Y-73499516D01*
X164305277Y-73497222D01*
X164415435Y-73490213D01*
X164536282Y-73478942D01*
X164660016Y-73463862D01*
X164740167Y-73451931D01*
X164944932Y-73421122D01*
X165112607Y-73401246D01*
X165247037Y-73392435D01*
X165352062Y-73394822D01*
X165431527Y-73408538D01*
X165489274Y-73433715D01*
X165529146Y-73470487D01*
X165535351Y-73479301D01*
X165555505Y-73517397D01*
X165554159Y-73551518D01*
X165533027Y-73598220D01*
X165495034Y-73653182D01*
X165427584Y-73730565D01*
X165334523Y-73826652D01*
X165219693Y-73937725D01*
X165086939Y-74060068D01*
X164940105Y-74189962D01*
X164783034Y-74323691D01*
X164781659Y-74324840D01*
X164639542Y-74443810D01*
X164526732Y-74539360D01*
X164439858Y-74614983D01*
X164375550Y-74674171D01*
X164330436Y-74720417D01*
X164301147Y-74757214D01*
X164284311Y-74788055D01*
X164276560Y-74816433D01*
X164274521Y-74845840D01*
X164274500Y-74850420D01*
X164290963Y-74966780D01*
X164339965Y-75056868D01*
X164419510Y-75118889D01*
X164468186Y-75138841D01*
X164549011Y-75166568D01*
X164653146Y-75199266D01*
X164771750Y-75234129D01*
X164860319Y-75258773D01*
X165012206Y-75301554D01*
X165185790Y-75352933D01*
X165362864Y-75407378D01*
X165525220Y-75459357D01*
X165575649Y-75476095D01*
X165934882Y-75596750D01*
X165953782Y-75692000D01*
X165960829Y-75767031D01*
X165960480Y-75878281D01*
X165953325Y-76020393D01*
X165939951Y-76188011D01*
X165920945Y-76375781D01*
X165896895Y-76578346D01*
X165868390Y-76790351D01*
X165836016Y-77006440D01*
X165800362Y-77221258D01*
X165764494Y-77416656D01*
X165727870Y-77593730D01*
X165681984Y-77795698D01*
X165629049Y-78014254D01*
X165571276Y-78241096D01*
X165510875Y-78467918D01*
X165450057Y-78686417D01*
X165391034Y-78888290D01*
X165336016Y-79065231D01*
X165287487Y-79208186D01*
X165244516Y-79327122D01*
X164955300Y-79181995D01*
X164849512Y-79130601D01*
X164752236Y-79086437D01*
X164671878Y-79053096D01*
X164616843Y-79034167D01*
X164602583Y-79031309D01*
X164539083Y-79025750D01*
X164540251Y-79300917D01*
X164542203Y-79433406D01*
X164546576Y-79577883D01*
X164552673Y-79714834D01*
X164558206Y-79804256D01*
X164574993Y-80032428D01*
X164654753Y-80073119D01*
X164723340Y-80113122D01*
X164785511Y-80157944D01*
X164832652Y-80200289D01*
X164856147Y-80232861D01*
X164856091Y-80243630D01*
X164829046Y-80249415D01*
X164772974Y-80235364D01*
X164694796Y-80204000D01*
X164601434Y-80157841D01*
X164563833Y-80137182D01*
X164443833Y-80069459D01*
X164442525Y-79653438D01*
X164441219Y-79512137D01*
X164438390Y-79373551D01*
X164434358Y-79247766D01*
X164429440Y-79144869D01*
X164424364Y-79078667D01*
X164418156Y-79000084D01*
X164417217Y-78938132D01*
X164421651Y-78904563D01*
X164422839Y-78902642D01*
X164454470Y-78896781D01*
X164520247Y-78908306D01*
X164616259Y-78936066D01*
X164738591Y-78978910D01*
X164883332Y-79035689D01*
X164903348Y-79043934D01*
X164998075Y-79082115D01*
X165080392Y-79113371D01*
X165141443Y-79134466D01*
X165172314Y-79142167D01*
X165187837Y-79131969D01*
X165207114Y-79099416D01*
X165231134Y-79041569D01*
X165260888Y-78955491D01*
X165297368Y-78838241D01*
X165341565Y-78686882D01*
X165394469Y-78498474D01*
X165417317Y-78415624D01*
X165578435Y-77772303D01*
X165706811Y-77131490D01*
X165805771Y-76476293D01*
X165817775Y-76379917D01*
X165839059Y-76202681D01*
X165855081Y-76062456D01*
X165865964Y-75954265D01*
X165871834Y-75873129D01*
X165872816Y-75814072D01*
X165869034Y-75772115D01*
X165860614Y-75742280D01*
X165847679Y-75719590D01*
X165834724Y-75703857D01*
X165798733Y-75675677D01*
X165736416Y-75643179D01*
X165645363Y-75605508D01*
X165523163Y-75561813D01*
X165367405Y-75511241D01*
X165175679Y-75452938D01*
X164945575Y-75386052D01*
X164898917Y-75372757D01*
X164761768Y-75332861D01*
X164632640Y-75293588D01*
X164519178Y-75257396D01*
X164429030Y-75226744D01*
X164369841Y-75204089D01*
X164359522Y-75199348D01*
X164273019Y-75140093D01*
X164215292Y-75059353D01*
X164182356Y-74950465D01*
X164174516Y-74890020D01*
X164169652Y-74821661D01*
X164174277Y-74775715D01*
X164194134Y-74736274D01*
X164234963Y-74687427D01*
X164255909Y-74664467D01*
X164299745Y-74620853D01*
X164370026Y-74555975D01*
X164460462Y-74475409D01*
X164564761Y-74384733D01*
X164676633Y-74289523D01*
X164717816Y-74254989D01*
X164920829Y-74082745D01*
X165089034Y-73934119D01*
X165222626Y-73808923D01*
X165321802Y-73706970D01*
X165386758Y-73628071D01*
X165409059Y-73592357D01*
X165430329Y-73546285D01*
X165429766Y-73520457D01*
X165406524Y-73498353D01*
X165404169Y-73496623D01*
X165386582Y-73486347D01*
X165363335Y-73479711D01*
X165329657Y-73477145D01*
X165280775Y-73479075D01*
X165211917Y-73485931D01*
X165118311Y-73498140D01*
X164995184Y-73516131D01*
X164837763Y-73540331D01*
X164731490Y-73556969D01*
X164543185Y-73585554D01*
X164392258Y-73605951D01*
X164274588Y-73618345D01*
X164186055Y-73622921D01*
X164122539Y-73619864D01*
X164079920Y-73609359D01*
X164054078Y-73591591D01*
X164050808Y-73587525D01*
X164030683Y-73547028D01*
X164009138Y-73477409D01*
X163985632Y-73376073D01*
X163959624Y-73240429D01*
X163930575Y-73067885D01*
X163897943Y-72855847D01*
X163897337Y-72851772D01*
X163838578Y-72456294D01*
X164206813Y-72102008D01*
X164347798Y-71965025D01*
X164459548Y-71853113D01*
X164544550Y-71763310D01*
X164605293Y-71692656D01*
X164644263Y-71638189D01*
X164663948Y-71596948D01*
X164666836Y-71565971D01*
X164664430Y-71557242D01*
X164653023Y-71538911D01*
X164631917Y-71526293D01*
X164596449Y-71519527D01*
X164541958Y-71518752D01*
X164463780Y-71524108D01*
X164357252Y-71535733D01*
X164217712Y-71553767D01*
X164062833Y-71575200D01*
X163945515Y-71590535D01*
X163842690Y-71601745D01*
X163761712Y-71608206D01*
X163709935Y-71609295D01*
X163694869Y-71606409D01*
X163683240Y-71579873D01*
X163664608Y-71519909D01*
X163640928Y-71434463D01*
X163614156Y-71331481D01*
X163586244Y-71218912D01*
X163559149Y-71104700D01*
X163534824Y-70996793D01*
X163515225Y-70903137D01*
X163502305Y-70831679D01*
X163499633Y-70812656D01*
X163494403Y-70753355D01*
X163499806Y-70709754D01*
X163521026Y-70666825D01*
X163563249Y-70609540D01*
X163574759Y-70594926D01*
X163632257Y-70525148D01*
X163705166Y-70440758D01*
X163779628Y-70357731D01*
X163794731Y-70341354D01*
X163903958Y-70222929D01*
X163986672Y-70131281D01*
X164045766Y-70062736D01*
X164084135Y-70013618D01*
X164104670Y-69980252D01*
X164110267Y-69958964D01*
X164105060Y-69947229D01*
X164075194Y-69937785D01*
X164008288Y-69928966D01*
X163909634Y-69921255D01*
X163784526Y-69915135D01*
X163735382Y-69913456D01*
X163606148Y-69909176D01*
X163512205Y-69904774D01*
X163446518Y-69899177D01*
X163402055Y-69891313D01*
X163371782Y-69880109D01*
X163348668Y-69864494D01*
X163335185Y-69852445D01*
X163312793Y-69827165D01*
X163288250Y-69789913D01*
X163259950Y-69736986D01*
X163226288Y-69664678D01*
X163185660Y-69569287D01*
X163136459Y-69447108D01*
X163077081Y-69294436D01*
X163005920Y-69107568D01*
X162962817Y-68993233D01*
X162822662Y-68630280D01*
X162688427Y-68304321D01*
X162557486Y-68010891D01*
X162427211Y-67745522D01*
X162294975Y-67503748D01*
X162158149Y-67281103D01*
X162014107Y-67073119D01*
X161860220Y-66875332D01*
X161693861Y-66683273D01*
X161512403Y-66492477D01*
X161462064Y-66442167D01*
X161250412Y-66240626D01*
X161053122Y-66070826D01*
X160863035Y-65928051D01*
X160672990Y-65807586D01*
X160475828Y-65704719D01*
X160264389Y-65614734D01*
X160132138Y-65566500D01*
X159953975Y-65509287D01*
X159792581Y-65468437D01*
X159632559Y-65441210D01*
X159458513Y-65424863D01*
X159296287Y-65417706D01*
X158934367Y-65419113D01*
X158600951Y-65446158D01*
X158290803Y-65500861D01*
X157998689Y-65585241D01*
X157719375Y-65701317D01*
X157447626Y-65851110D01*
X157178208Y-66036639D01*
X156905887Y-66259923D01*
X156753911Y-66398674D01*
X156525238Y-66614423D01*
X156202423Y-66300753D01*
X156022772Y-66129592D01*
X155864425Y-65987279D01*
X155721556Y-65870165D01*
X155588338Y-65774603D01*
X155458943Y-65696945D01*
X155327543Y-65633544D01*
X155188311Y-65580751D01*
X155035419Y-65534920D01*
X154940000Y-65510531D01*
X154793483Y-65483048D01*
X154620316Y-65463461D01*
X154435569Y-65452497D01*
X154254314Y-65450881D01*
X154091620Y-65459339D01*
X154028450Y-65466630D01*
X153745527Y-65521756D01*
X153468754Y-65604524D01*
X153207718Y-65711293D01*
X152972006Y-65838423D01*
X152868643Y-65907056D01*
X152676684Y-66063519D01*
X152486859Y-66255302D01*
X152304379Y-66475505D01*
X152134453Y-66717227D01*
X151982289Y-66973567D01*
X151853097Y-67237624D01*
X151838374Y-67271889D01*
X151787417Y-67394604D01*
X151746787Y-67500154D01*
X151715293Y-67595794D01*
X151691743Y-67688776D01*
X151674945Y-67786351D01*
X151663707Y-67895774D01*
X151656836Y-68024296D01*
X151653142Y-68179170D01*
X151651432Y-68367650D01*
X151651220Y-68410667D01*
X151651084Y-68614141D01*
X151652824Y-68780090D01*
X151656617Y-68913287D01*
X151662644Y-69018507D01*
X151671082Y-69100524D01*
X151678848Y-69148390D01*
X151694599Y-69236872D01*
X151697763Y-69298524D01*
X151682738Y-69338917D01*
X151643920Y-69363623D01*
X151575706Y-69378212D01*
X151472493Y-69388257D01*
X151434683Y-69391155D01*
X151326896Y-69396879D01*
X151180918Y-69400926D01*
X151000857Y-69403387D01*
X150790819Y-69404351D01*
X150554912Y-69403909D01*
X150297240Y-69402151D01*
X150021912Y-69399164D01*
X149733033Y-69395041D01*
X149434711Y-69389870D01*
X149131051Y-69383741D01*
X148826161Y-69376744D01*
X148524147Y-69368969D01*
X148229115Y-69360506D01*
X147945173Y-69351443D01*
X147676426Y-69341872D01*
X147426982Y-69331882D01*
X147200946Y-69321562D01*
X147002426Y-69311002D01*
X146835529Y-69300292D01*
X146704360Y-69289523D01*
X146681671Y-69287255D01*
X146561925Y-69274799D01*
X146547831Y-69123191D01*
X146516698Y-68847072D01*
X146477112Y-68605437D01*
X146427296Y-68390964D01*
X146365473Y-68196333D01*
X146289869Y-68014225D01*
X146267262Y-67967064D01*
X146158505Y-67781102D01*
X146032355Y-67626534D01*
X145891934Y-67505363D01*
X145740364Y-67419591D01*
X145580767Y-67371221D01*
X145416265Y-67362255D01*
X145339415Y-67371986D01*
X145233742Y-67398218D01*
X145134168Y-67438760D01*
X145034243Y-67497868D01*
X144927522Y-67579798D01*
X144807555Y-67688806D01*
X144705394Y-67790500D01*
X144621211Y-67875727D01*
X144546954Y-67949249D01*
X144487739Y-68006130D01*
X144448684Y-68041437D01*
X144435380Y-68050833D01*
X144417715Y-68034211D01*
X144383931Y-67989862D01*
X144340175Y-67926067D01*
X144322088Y-67898254D01*
X144180141Y-67710847D01*
X144017935Y-67559296D01*
X143836959Y-67444986D01*
X143831345Y-67442190D01*
X143753725Y-67405493D01*
X143690523Y-67381822D01*
X143627088Y-67367798D01*
X143548771Y-67360041D01*
X143456661Y-67355743D01*
X143318242Y-67355661D01*
X143208581Y-67370004D01*
X143115294Y-67403228D01*
X143025998Y-67459791D01*
X142928307Y-67544148D01*
X142925343Y-67546942D01*
X142751847Y-67739262D01*
X142606050Y-67960593D01*
X142489430Y-68206709D01*
X142403466Y-68473385D01*
X142349636Y-68756397D01*
X142329418Y-69051518D01*
X142334252Y-69236167D01*
X142379245Y-69659547D01*
X142460274Y-70071601D01*
X142575953Y-70469188D01*
X142724893Y-70849169D01*
X142905706Y-71208401D01*
X143117006Y-71543746D01*
X143357404Y-71852062D01*
X143604050Y-72110062D01*
X143769850Y-72258706D01*
X143946236Y-72399707D01*
X144138776Y-72536733D01*
X144353040Y-72673457D01*
X144594597Y-72813550D01*
X144869015Y-72960681D01*
X144983978Y-73019661D01*
X145346706Y-73203770D01*
X145670529Y-73744093D01*
X145795670Y-73951642D01*
X145920767Y-74156755D01*
X146043155Y-74355215D01*
X146160168Y-74542803D01*
X146269140Y-74715302D01*
X146367405Y-74868493D01*
X146452297Y-74998158D01*
X146521152Y-75100080D01*
X146571302Y-75170040D01*
X146573772Y-75173277D01*
X146621775Y-75229987D01*
X146664924Y-75270935D01*
X146689916Y-75285731D01*
X146720524Y-75274318D01*
X146774102Y-75236477D01*
X146844715Y-75176709D01*
X146894774Y-75130304D01*
X147064533Y-74968117D01*
X147126176Y-75017850D01*
X147348341Y-75198461D01*
X147536764Y-75354617D01*
X147691944Y-75486755D01*
X147814379Y-75595317D01*
X147904566Y-75680740D01*
X147963004Y-75743466D01*
X147987570Y-75778252D01*
X148016688Y-75872458D01*
X148013486Y-75968632D01*
X147981146Y-76055943D01*
X147922855Y-76123564D01*
X147878381Y-76149507D01*
X147812564Y-76167537D01*
X147711487Y-76183099D01*
X147582166Y-76195868D01*
X147431621Y-76205520D01*
X147266869Y-76211730D01*
X147094928Y-76214173D01*
X146922817Y-76212524D01*
X146757552Y-76206460D01*
X146708645Y-76203622D01*
X146410490Y-76179259D01*
X146145210Y-76145253D01*
X145904024Y-76099507D01*
X145678152Y-76039921D01*
X145458813Y-75964398D01*
X145237226Y-75870838D01*
X145155381Y-75832418D01*
X144961226Y-75733187D01*
X144782325Y-75628229D01*
X144613769Y-75513277D01*
X144450645Y-75384066D01*
X144288044Y-75236328D01*
X144121055Y-75065799D01*
X143944767Y-74868213D01*
X143754269Y-74639302D01*
X143690181Y-74559583D01*
X143594627Y-74439869D01*
X143521654Y-74349845D01*
X143467067Y-74286410D01*
X143426671Y-74246462D01*
X143396272Y-74226901D01*
X143371675Y-74224626D01*
X143348688Y-74236534D01*
X143323115Y-74259526D01*
X143306385Y-74275813D01*
X143241874Y-74355425D01*
X143176460Y-74466504D01*
X143114282Y-74598486D01*
X143059478Y-74740806D01*
X143016185Y-74882899D01*
X142988541Y-75014201D01*
X142980443Y-75108011D01*
X142984089Y-75163074D01*
X142994291Y-75247840D01*
X143009457Y-75350469D01*
X143026792Y-75452518D01*
X143047685Y-75576624D01*
X143057117Y-75672677D01*
X143050967Y-75744270D01*
X143025109Y-75794994D01*
X142975420Y-75828442D01*
X142897776Y-75848207D01*
X142788054Y-75857880D01*
X142642130Y-75861054D01*
X142557500Y-75861324D01*
X142363231Y-75863378D01*
X142159757Y-75868975D01*
X141952536Y-75877684D01*
X141747026Y-75889073D01*
X141548684Y-75902711D01*
X141362967Y-75918168D01*
X141195335Y-75935011D01*
X141051244Y-75952811D01*
X140936153Y-75971135D01*
X140855519Y-75989553D01*
X140832252Y-75997621D01*
X140777105Y-76032644D01*
X140759525Y-76078447D01*
X140779139Y-76138964D01*
X140813831Y-76190919D01*
X140895634Y-76274539D01*
X141014987Y-76362376D01*
X141167607Y-76452174D01*
X141349208Y-76541678D01*
X141555506Y-76628631D01*
X141782217Y-76710779D01*
X141833498Y-76727688D01*
X142140929Y-76827320D01*
X141486673Y-77183601D01*
X141261167Y-77307044D01*
X141070908Y-77412679D01*
X140913455Y-77501985D01*
X140786371Y-77576442D01*
X140687218Y-77637528D01*
X140613557Y-77686724D01*
X140562950Y-77725509D01*
X140532958Y-77755362D01*
X140525145Y-77766997D01*
X140514335Y-77822822D01*
X140544930Y-77873697D01*
X140596857Y-77909991D01*
X140619165Y-77919877D01*
X140649420Y-77928010D01*
X140692060Y-77934651D01*
X140751525Y-77940057D01*
X140832254Y-77944488D01*
X140938685Y-77948204D01*
X141075258Y-77951462D01*
X141246412Y-77954523D01*
X141399332Y-77956833D01*
X142135581Y-77967417D01*
X141890586Y-78316667D01*
X141776659Y-78481516D01*
X141687646Y-78616149D01*
X141621997Y-78723392D01*
X141578165Y-78806073D01*
X141554601Y-78867019D01*
X141549756Y-78909056D01*
X141555936Y-78927618D01*
X141590897Y-78949196D01*
X141657156Y-78963338D01*
X141744285Y-78969763D01*
X141841858Y-78968186D01*
X141939447Y-78958325D01*
X142025023Y-78940359D01*
X142118515Y-78906821D01*
X142232362Y-78856108D01*
X142352486Y-78795441D01*
X142464811Y-78732045D01*
X142555262Y-78673141D01*
X142575327Y-78657982D01*
X142645562Y-78608045D01*
X142724460Y-78559709D01*
X142744218Y-78548992D01*
X142835685Y-78501319D01*
X142987634Y-78610353D01*
X143234129Y-78782894D01*
X143458419Y-78930311D01*
X143668255Y-79057389D01*
X143871388Y-79168915D01*
X143986250Y-79226921D01*
X144325793Y-79383600D01*
X144658738Y-79516517D01*
X144997797Y-79630007D01*
X145355678Y-79728405D01*
X145664085Y-79799172D01*
X145833532Y-79835684D01*
X145966095Y-79865775D01*
X146066481Y-79890919D01*
X146139398Y-79912590D01*
X146189551Y-79932265D01*
X146221647Y-79951418D01*
X146240394Y-79971523D01*
X146245807Y-79981446D01*
X146250830Y-80005734D01*
X146249605Y-80046878D01*
X146241373Y-80109283D01*
X146225378Y-80197352D01*
X146200863Y-80315492D01*
X146167071Y-80468105D01*
X146146915Y-80556724D01*
X146066815Y-80916109D01*
X145999165Y-81241371D01*
X145943077Y-81538563D01*
X145897665Y-81813740D01*
X145862043Y-82072956D01*
X145835324Y-82322266D01*
X145816622Y-82567724D01*
X145805050Y-82815383D01*
X145802373Y-82909833D01*
X145798838Y-83095050D01*
X145798133Y-83247254D01*
X145800541Y-83375688D01*
X145806346Y-83489595D01*
X145815829Y-83598218D01*
X145826170Y-83686849D01*
X145898433Y-84109755D01*
X146004789Y-84508326D01*
X146145942Y-84884249D01*
X146322594Y-85239212D01*
X146535449Y-85574905D01*
X146706228Y-85799158D01*
X146796495Y-85916876D01*
X146858025Y-86013464D01*
X146889632Y-86086780D01*
X146890889Y-86132859D01*
X146864703Y-86156040D01*
X146812098Y-86179199D01*
X146783309Y-86187688D01*
X146723448Y-86206330D01*
X146682601Y-86225639D01*
X146674424Y-86232988D01*
X146645471Y-86252855D01*
X146613861Y-86247506D01*
X146600333Y-86222417D01*
X146619122Y-86177112D01*
X146672286Y-86121221D01*
X146726341Y-86079444D01*
X146775695Y-86044875D01*
X146616331Y-85847896D01*
X146372842Y-85513469D01*
X146164863Y-85156387D01*
X145993153Y-84778176D01*
X145858474Y-84380361D01*
X145827923Y-84267305D01*
X145792053Y-84123636D01*
X145763587Y-83998730D01*
X145741689Y-83884616D01*
X145725526Y-83773320D01*
X145714265Y-83656871D01*
X145707070Y-83527295D01*
X145703109Y-83376621D01*
X145701547Y-83196876D01*
X145701425Y-83058000D01*
X145702111Y-82864599D01*
X145704036Y-82705431D01*
X145707614Y-82572402D01*
X145713258Y-82457419D01*
X145721380Y-82352389D01*
X145732394Y-82249219D01*
X145746712Y-82139817D01*
X145749156Y-82122464D01*
X145794387Y-81825788D01*
X145848811Y-81509662D01*
X145913585Y-81167790D01*
X145989866Y-80793878D01*
X146015931Y-80670942D01*
X146045361Y-80531452D01*
X146072477Y-80399563D01*
X146095714Y-80283159D01*
X146113504Y-80190125D01*
X146124283Y-80128343D01*
X146125840Y-80117648D01*
X146139502Y-80014662D01*
X145951876Y-79971814D01*
X145844429Y-79947686D01*
X145716872Y-79919649D01*
X145590547Y-79892378D01*
X145542000Y-79882066D01*
X145034180Y-79753377D01*
X144538979Y-79584660D01*
X144058781Y-79376966D01*
X143595973Y-79131347D01*
X143152938Y-78848853D01*
X143080401Y-78797696D01*
X142995946Y-78737498D01*
X142922452Y-78685520D01*
X142867629Y-78647187D01*
X142839186Y-78627925D01*
X142838731Y-78627643D01*
X142805880Y-78631142D01*
X142743532Y-78662753D01*
X142653153Y-78721719D01*
X142641993Y-78729539D01*
X142506244Y-78818159D01*
X142358935Y-78902348D01*
X142211473Y-78976337D01*
X142075262Y-79034358D01*
X141973368Y-79067727D01*
X141825355Y-79095981D01*
X141695249Y-79100471D01*
X141587317Y-79082330D01*
X141505828Y-79042692D01*
X141455050Y-78982690D01*
X141439769Y-78926015D01*
X141440021Y-78882144D01*
X141449872Y-78834435D01*
X141471974Y-78777757D01*
X141508977Y-78706977D01*
X141563531Y-78616964D01*
X141638286Y-78502585D01*
X141723094Y-78377398D01*
X141788253Y-78280795D01*
X141843165Y-78196756D01*
X141884075Y-78131244D01*
X141907233Y-78090221D01*
X141910812Y-78079201D01*
X141887784Y-78076850D01*
X141828524Y-78075561D01*
X141739120Y-78075331D01*
X141625661Y-78076155D01*
X141494234Y-78078031D01*
X141418005Y-78079478D01*
X141210170Y-78082206D01*
X141039210Y-78080654D01*
X140899836Y-78074318D01*
X140786758Y-78062694D01*
X140694687Y-78045279D01*
X140618334Y-78021567D01*
X140566108Y-77998286D01*
X140478500Y-77937293D01*
X140430454Y-77863203D01*
X140419666Y-77797526D01*
X140425207Y-77759480D01*
X140443756Y-77720121D01*
X140478207Y-77677389D01*
X140531452Y-77629227D01*
X140606383Y-77573575D01*
X140705893Y-77508374D01*
X140832873Y-77431567D01*
X140990217Y-77341094D01*
X141180817Y-77234897D01*
X141308667Y-77164782D01*
X141466829Y-77078191D01*
X141591320Y-77009387D01*
X141685777Y-76956160D01*
X141753841Y-76916299D01*
X141799151Y-76887593D01*
X141825347Y-76867831D01*
X141836067Y-76854802D01*
X141834952Y-76846296D01*
X141834235Y-76845512D01*
X141811180Y-76834446D01*
X141756218Y-76812221D01*
X141677301Y-76781947D01*
X141582377Y-76746733D01*
X141571197Y-76742654D01*
X141395134Y-76675458D01*
X141248927Y-76611977D01*
X141121159Y-76546512D01*
X141000410Y-76473367D01*
X140914838Y-76415173D01*
X140799074Y-76321298D01*
X140710446Y-76224006D01*
X140653158Y-76128918D01*
X140631416Y-76041649D01*
X140631333Y-76036431D01*
X140635616Y-75990792D01*
X140655425Y-75960905D01*
X140701195Y-75934172D01*
X140725026Y-75923341D01*
X140810928Y-75894487D01*
X140931489Y-75868923D01*
X141088273Y-75846458D01*
X141282840Y-75826901D01*
X141516755Y-75810060D01*
X141753167Y-75797484D01*
X142014225Y-75785251D01*
X142235905Y-75774483D01*
X142421129Y-75764985D01*
X142572817Y-75756562D01*
X142693893Y-75749021D01*
X142787277Y-75742165D01*
X142855893Y-75735802D01*
X142902663Y-75729736D01*
X142930507Y-75723772D01*
X142941800Y-75718333D01*
X142948548Y-75686279D01*
X142944374Y-75617353D01*
X142929549Y-75515507D01*
X142926713Y-75499261D01*
X142896181Y-75259745D01*
X142894823Y-75044970D01*
X142922719Y-74848923D01*
X142936314Y-74794638D01*
X142989294Y-74629624D01*
X143051797Y-74480091D01*
X143120750Y-74350771D01*
X143193080Y-74246399D01*
X143265714Y-74171710D01*
X143335579Y-74131438D01*
X143370544Y-74125667D01*
X143409347Y-74133235D01*
X143454658Y-74157973D01*
X143509559Y-74202935D01*
X143577135Y-74271172D01*
X143660470Y-74365736D01*
X143762648Y-74489680D01*
X143853161Y-74603322D01*
X144043210Y-74835162D01*
X144223249Y-75034445D01*
X144399941Y-75207528D01*
X144579950Y-75360764D01*
X144769937Y-75500510D01*
X144849394Y-75553518D01*
X145076694Y-75686404D01*
X145328459Y-75807760D01*
X145590137Y-75911522D01*
X145847179Y-75991631D01*
X145973410Y-76021765D01*
X146053357Y-76034528D01*
X146164541Y-76046458D01*
X146301064Y-76057392D01*
X146457024Y-76067166D01*
X146626524Y-76075619D01*
X146803663Y-76082588D01*
X146982543Y-76087909D01*
X147157263Y-76091420D01*
X147321923Y-76092958D01*
X147470626Y-76092361D01*
X147597470Y-76089465D01*
X147696556Y-76084107D01*
X147761986Y-76076126D01*
X147778997Y-76071590D01*
X147843266Y-76037494D01*
X147897395Y-75992077D01*
X147929610Y-75946291D01*
X147933833Y-75927573D01*
X147925612Y-75892521D01*
X147899492Y-75847375D01*
X147853287Y-75789991D01*
X147784811Y-75718225D01*
X147691879Y-75629934D01*
X147572304Y-75522973D01*
X147423900Y-75395199D01*
X147244482Y-75244468D01*
X147197692Y-75205575D01*
X147085968Y-75112862D01*
X146996609Y-75199319D01*
X146880159Y-75301354D01*
X146780300Y-75365523D01*
X146695685Y-75392304D01*
X146624965Y-75382175D01*
X146577701Y-75348042D01*
X146536956Y-75298380D01*
X146476730Y-75215014D01*
X146398851Y-75100818D01*
X146305147Y-74958668D01*
X146197446Y-74791438D01*
X146077575Y-74602003D01*
X145947362Y-74393238D01*
X145808635Y-74168018D01*
X145663221Y-73929218D01*
X145512949Y-73679712D01*
X145448923Y-73572582D01*
X145264274Y-73262914D01*
X145006262Y-73142263D01*
X144593516Y-72933913D01*
X144219619Y-72712392D01*
X143882619Y-72475807D01*
X143580562Y-72222268D01*
X143311495Y-71949884D01*
X143073466Y-71656764D01*
X142864521Y-71341016D01*
X142682707Y-71000749D01*
X142596148Y-70808569D01*
X142523565Y-70624250D01*
X142452830Y-70420734D01*
X142388229Y-70211943D01*
X142334047Y-70011799D01*
X142294571Y-69834223D01*
X142292074Y-69820851D01*
X142264714Y-69634146D01*
X142246590Y-69429154D01*
X142237635Y-69215339D01*
X142237781Y-69002167D01*
X142246958Y-68799104D01*
X142265099Y-68615616D01*
X142292135Y-68461168D01*
X142302193Y-68421098D01*
X142363769Y-68236319D01*
X142445358Y-68051579D01*
X142542627Y-67873136D01*
X142651247Y-67707253D01*
X142766885Y-67560188D01*
X142885210Y-67438204D01*
X143001891Y-67347559D01*
X143070831Y-67310142D01*
X143199191Y-67271279D01*
X143351623Y-67253586D01*
X143515903Y-67256454D01*
X143679802Y-67279272D01*
X143831094Y-67321431D01*
X143902491Y-67351653D01*
X143993108Y-67407963D01*
X144098430Y-67493285D01*
X144210918Y-67600612D01*
X144323035Y-67722935D01*
X144391209Y-67805976D01*
X144456437Y-67889203D01*
X144655260Y-67699012D01*
X144788257Y-67574548D01*
X144899589Y-67477628D01*
X144995650Y-67404094D01*
X145082829Y-67349790D01*
X145167520Y-67310556D01*
X145256112Y-67282237D01*
X145318062Y-67267868D01*
X145491206Y-67252916D01*
X145661841Y-67278315D01*
X145826913Y-67342084D01*
X145983365Y-67442245D01*
X146128141Y-67576817D01*
X146258183Y-67743822D01*
X146370437Y-67941279D01*
X146376117Y-67953158D01*
X146427583Y-68069523D01*
X146471032Y-68186819D01*
X146508895Y-68313861D01*
X146543604Y-68459465D01*
X146577590Y-68632446D01*
X146601578Y-68770500D01*
X146629737Y-68929417D01*
X146654216Y-69047061D01*
X146675227Y-69124315D01*
X146692980Y-69162061D01*
X146695770Y-69164672D01*
X146717857Y-69175086D01*
X146756465Y-69184418D01*
X146815127Y-69192945D01*
X146897373Y-69200942D01*
X147006736Y-69208688D01*
X147146746Y-69216459D01*
X147320936Y-69224532D01*
X147532837Y-69233183D01*
X147605750Y-69235988D01*
X147839271Y-69244384D01*
X148088485Y-69252454D01*
X148350132Y-69260152D01*
X148620948Y-69267429D01*
X148897673Y-69274236D01*
X149177046Y-69280527D01*
X149455803Y-69286251D01*
X149730685Y-69291362D01*
X149998428Y-69295812D01*
X150255773Y-69299551D01*
X150499456Y-69302532D01*
X150726217Y-69304707D01*
X150932793Y-69306028D01*
X151115924Y-69306446D01*
X151272347Y-69305914D01*
X151398801Y-69304382D01*
X151492025Y-69301804D01*
X151548756Y-69298130D01*
X151565606Y-69294444D01*
X151569394Y-69268782D01*
X151569095Y-69208938D01*
X151565006Y-69122833D01*
X151557428Y-69018390D01*
X151553504Y-68973454D01*
X151541640Y-68794631D01*
X151536186Y-68597093D01*
X151536868Y-68391898D01*
X151543408Y-68190108D01*
X151555531Y-68002782D01*
X151572962Y-67840981D01*
X151583447Y-67773856D01*
X151652815Y-67488336D01*
X151758246Y-67197480D01*
X151895568Y-66909119D01*
X152060609Y-66631085D01*
X152249197Y-66371206D01*
X152453040Y-66141485D01*
X152672934Y-65937483D01*
X152896736Y-65769683D01*
X153133649Y-65632287D01*
X153392880Y-65519499D01*
X153501524Y-65481093D01*
X153631187Y-65440115D01*
X153747300Y-65409572D01*
X153860212Y-65388037D01*
X153980269Y-65374083D01*
X154117819Y-65366284D01*
X154283209Y-65363211D01*
X154357917Y-65362986D01*
X154583360Y-65366904D01*
X154776376Y-65379947D01*
X154946255Y-65404054D01*
X155102287Y-65441161D01*
X155253762Y-65493204D01*
X155409971Y-65562122D01*
X155479878Y-65596898D01*
X155602449Y-65663503D01*
X155716395Y-65734803D01*
X155828988Y-65816411D01*
X155947499Y-65913940D01*
X156079201Y-66033003D01*
X156220583Y-66168652D01*
X156516917Y-66458627D01*
X156759541Y-66249476D01*
X156971564Y-66072985D01*
X157166909Y-65924671D01*
X157354319Y-65798861D01*
X157542536Y-65689880D01*
X157740301Y-65592054D01*
X157841291Y-65547349D01*
X158031541Y-65472796D01*
X158218459Y-65414952D01*
X158410734Y-65372309D01*
X158617054Y-65343355D01*
X158846107Y-65326582D01*
X159106584Y-65320481D01*
X159147705Y-65320393D01*
X159370218Y-65323711D01*
G37*
X159370218Y-65323711D02*
X159560492Y-65334390D01*
X159728173Y-65353646D01*
X159882909Y-65382695D01*
X160034345Y-65422753D01*
X160085199Y-65438583D01*
X160391643Y-65557620D01*
X160696669Y-65715788D01*
X160996619Y-65909947D01*
X161287832Y-66136954D01*
X161566651Y-66393666D01*
X161829414Y-66676942D01*
X162072465Y-66983639D01*
X162292142Y-67310617D01*
X162321338Y-67358691D01*
X162421324Y-67530000D01*
X162514123Y-67699278D01*
X162602609Y-67872782D01*
X162689657Y-68056767D01*
X162778143Y-68257488D01*
X162870940Y-68481201D01*
X162970924Y-68734162D01*
X163057718Y-68961000D01*
X163114878Y-69111785D01*
X163171166Y-69259689D01*
X163223604Y-69396927D01*
X163269211Y-69515713D01*
X163305009Y-69608264D01*
X163323006Y-69654208D01*
X163392123Y-69828833D01*
X163734903Y-69828833D01*
X163896493Y-69830674D01*
X164020204Y-69836651D01*
X164110350Y-69847448D01*
X164171245Y-69863748D01*
X164207202Y-69886234D01*
X164219692Y-69905620D01*
X164221216Y-69942530D01*
X164200996Y-69993911D01*
X164157055Y-70062500D01*
X164087416Y-70151033D01*
X163990100Y-70262246D01*
X163863630Y-70398350D01*
X163775289Y-70492684D01*
X163697907Y-70577509D01*
X163635937Y-70647762D01*
X163593832Y-70698380D01*
X163576044Y-70724302D01*
X163575748Y-70725670D01*
X163580745Y-70757241D01*
X163594591Y-70820927D01*
X163615160Y-70908367D01*
X163640328Y-71011198D01*
X163667971Y-71121058D01*
X163695965Y-71229585D01*
X163722185Y-71328417D01*
X163744508Y-71409191D01*
X163760810Y-71463546D01*
X163767900Y-71482099D01*
X163780480Y-71491327D01*
X163807453Y-71495643D01*
X163854105Y-71494678D01*
X163925721Y-71488059D01*
X164027586Y-71475417D01*
X164164987Y-71456381D01*
X164194117Y-71452216D01*
X164322882Y-71434052D01*
X164438962Y-71418260D01*
X164535198Y-71405767D01*
X164604429Y-71397501D01*
X164639495Y-71394389D01*
X164640587Y-71394390D01*
X164694998Y-71414334D01*
X164743463Y-71463159D01*
X164775480Y-71527662D01*
X164782500Y-71572834D01*
X164778805Y-71607479D01*
X164765722Y-71644931D01*
X164740259Y-71688736D01*
X164699419Y-71742444D01*
X164640208Y-71809603D01*
X164559633Y-71893760D01*
X164454697Y-71998466D01*
X164322408Y-72127267D01*
X164280319Y-72167879D01*
X163950683Y-72485509D01*
X163986693Y-72739379D01*
X164010552Y-72902828D01*
X164034259Y-73056522D01*
X164056868Y-73195028D01*
X164077435Y-73312912D01*
X164095014Y-73404742D01*
X164108661Y-73465085D01*
X164116954Y-73488144D01*
X164148236Y-73496641D01*
X164213610Y-73499516D01*
X164305277Y-73497222D01*
X164415435Y-73490213D01*
X164536282Y-73478942D01*
X164660016Y-73463862D01*
X164740167Y-73451931D01*
X164944932Y-73421122D01*
X165112607Y-73401246D01*
X165247037Y-73392435D01*
X165352062Y-73394822D01*
X165431527Y-73408538D01*
X165489274Y-73433715D01*
X165529146Y-73470487D01*
X165535351Y-73479301D01*
X165555505Y-73517397D01*
X165554159Y-73551518D01*
X165533027Y-73598220D01*
X165495034Y-73653182D01*
X165427584Y-73730565D01*
X165334523Y-73826652D01*
X165219693Y-73937725D01*
X165086939Y-74060068D01*
X164940105Y-74189962D01*
X164783034Y-74323691D01*
X164781659Y-74324840D01*
X164639542Y-74443810D01*
X164526732Y-74539360D01*
X164439858Y-74614983D01*
X164375550Y-74674171D01*
X164330436Y-74720417D01*
X164301147Y-74757214D01*
X164284311Y-74788055D01*
X164276560Y-74816433D01*
X164274521Y-74845840D01*
X164274500Y-74850420D01*
X164290963Y-74966780D01*
X164339965Y-75056868D01*
X164419510Y-75118889D01*
X164468186Y-75138841D01*
X164549011Y-75166568D01*
X164653146Y-75199266D01*
X164771750Y-75234129D01*
X164860319Y-75258773D01*
X165012206Y-75301554D01*
X165185790Y-75352933D01*
X165362864Y-75407378D01*
X165525220Y-75459357D01*
X165575649Y-75476095D01*
X165934882Y-75596750D01*
X165953782Y-75692000D01*
X165960829Y-75767031D01*
X165960480Y-75878281D01*
X165953325Y-76020393D01*
X165939951Y-76188011D01*
X165920945Y-76375781D01*
X165896895Y-76578346D01*
X165868390Y-76790351D01*
X165836016Y-77006440D01*
X165800362Y-77221258D01*
X165764494Y-77416656D01*
X165727870Y-77593730D01*
X165681984Y-77795698D01*
X165629049Y-78014254D01*
X165571276Y-78241096D01*
X165510875Y-78467918D01*
X165450057Y-78686417D01*
X165391034Y-78888290D01*
X165336016Y-79065231D01*
X165287487Y-79208186D01*
X165244516Y-79327122D01*
X164955300Y-79181995D01*
X164849512Y-79130601D01*
X164752236Y-79086437D01*
X164671878Y-79053096D01*
X164616843Y-79034167D01*
X164602583Y-79031309D01*
X164539083Y-79025750D01*
X164540251Y-79300917D01*
X164542203Y-79433406D01*
X164546576Y-79577883D01*
X164552673Y-79714834D01*
X164558206Y-79804256D01*
X164574993Y-80032428D01*
X164654753Y-80073119D01*
X164723340Y-80113122D01*
X164785511Y-80157944D01*
X164832652Y-80200289D01*
X164856147Y-80232861D01*
X164856091Y-80243630D01*
X164829046Y-80249415D01*
X164772974Y-80235364D01*
X164694796Y-80204000D01*
X164601434Y-80157841D01*
X164563833Y-80137182D01*
X164443833Y-80069459D01*
X164442525Y-79653438D01*
X164441219Y-79512137D01*
X164438390Y-79373551D01*
X164434358Y-79247766D01*
X164429440Y-79144869D01*
X164424364Y-79078667D01*
X164418156Y-79000084D01*
X164417217Y-78938132D01*
X164421651Y-78904563D01*
X164422839Y-78902642D01*
X164454470Y-78896781D01*
X164520247Y-78908306D01*
X164616259Y-78936066D01*
X164738591Y-78978910D01*
X164883332Y-79035689D01*
X164903348Y-79043934D01*
X164998075Y-79082115D01*
X165080392Y-79113371D01*
X165141443Y-79134466D01*
X165172314Y-79142167D01*
X165187837Y-79131969D01*
X165207114Y-79099416D01*
X165231134Y-79041569D01*
X165260888Y-78955491D01*
X165297368Y-78838241D01*
X165341565Y-78686882D01*
X165394469Y-78498474D01*
X165417317Y-78415624D01*
X165578435Y-77772303D01*
X165706811Y-77131490D01*
X165805771Y-76476293D01*
X165817775Y-76379917D01*
X165839059Y-76202681D01*
X165855081Y-76062456D01*
X165865964Y-75954265D01*
X165871834Y-75873129D01*
X165872816Y-75814072D01*
X165869034Y-75772115D01*
X165860614Y-75742280D01*
X165847679Y-75719590D01*
X165834724Y-75703857D01*
X165798733Y-75675677D01*
X165736416Y-75643179D01*
X165645363Y-75605508D01*
X165523163Y-75561813D01*
X165367405Y-75511241D01*
X165175679Y-75452938D01*
X164945575Y-75386052D01*
X164898917Y-75372757D01*
X164761768Y-75332861D01*
X164632640Y-75293588D01*
X164519178Y-75257396D01*
X164429030Y-75226744D01*
X164369841Y-75204089D01*
X164359522Y-75199348D01*
X164273019Y-75140093D01*
X164215292Y-75059353D01*
X164182356Y-74950465D01*
X164174516Y-74890020D01*
X164169652Y-74821661D01*
X164174277Y-74775715D01*
X164194134Y-74736274D01*
X164234963Y-74687427D01*
X164255909Y-74664467D01*
X164299745Y-74620853D01*
X164370026Y-74555975D01*
X164460462Y-74475409D01*
X164564761Y-74384733D01*
X164676633Y-74289523D01*
X164717816Y-74254989D01*
X164920829Y-74082745D01*
X165089034Y-73934119D01*
X165222626Y-73808923D01*
X165321802Y-73706970D01*
X165386758Y-73628071D01*
X165409059Y-73592357D01*
X165430329Y-73546285D01*
X165429766Y-73520457D01*
X165406524Y-73498353D01*
X165404169Y-73496623D01*
X165386582Y-73486347D01*
X165363335Y-73479711D01*
X165329657Y-73477145D01*
X165280775Y-73479075D01*
X165211917Y-73485931D01*
X165118311Y-73498140D01*
X164995184Y-73516131D01*
X164837763Y-73540331D01*
X164731490Y-73556969D01*
X164543185Y-73585554D01*
X164392258Y-73605951D01*
X164274588Y-73618345D01*
X164186055Y-73622921D01*
X164122539Y-73619864D01*
X164079920Y-73609359D01*
X164054078Y-73591591D01*
X164050808Y-73587525D01*
X164030683Y-73547028D01*
X164009138Y-73477409D01*
X163985632Y-73376073D01*
X163959624Y-73240429D01*
X163930575Y-73067885D01*
X163897943Y-72855847D01*
X163897337Y-72851772D01*
X163838578Y-72456294D01*
X164206813Y-72102008D01*
X164347798Y-71965025D01*
X164459548Y-71853113D01*
X164544550Y-71763310D01*
X164605293Y-71692656D01*
X164644263Y-71638189D01*
X164663948Y-71596948D01*
X164666836Y-71565971D01*
X164664430Y-71557242D01*
X164653023Y-71538911D01*
X164631917Y-71526293D01*
X164596449Y-71519527D01*
X164541958Y-71518752D01*
X164463780Y-71524108D01*
X164357252Y-71535733D01*
X164217712Y-71553767D01*
X164062833Y-71575200D01*
X163945515Y-71590535D01*
X163842690Y-71601745D01*
X163761712Y-71608206D01*
X163709935Y-71609295D01*
X163694869Y-71606409D01*
X163683240Y-71579873D01*
X163664608Y-71519909D01*
X163640928Y-71434463D01*
X163614156Y-71331481D01*
X163586244Y-71218912D01*
X163559149Y-71104700D01*
X163534824Y-70996793D01*
X163515225Y-70903137D01*
X163502305Y-70831679D01*
X163499633Y-70812656D01*
X163494403Y-70753355D01*
X163499806Y-70709754D01*
X163521026Y-70666825D01*
X163563249Y-70609540D01*
X163574759Y-70594926D01*
X163632257Y-70525148D01*
X163705166Y-70440758D01*
X163779628Y-70357731D01*
X163794731Y-70341354D01*
X163903958Y-70222929D01*
X163986672Y-70131281D01*
X164045766Y-70062736D01*
X164084135Y-70013618D01*
X164104670Y-69980252D01*
X164110267Y-69958964D01*
X164105060Y-69947229D01*
X164075194Y-69937785D01*
X164008288Y-69928966D01*
X163909634Y-69921255D01*
X163784526Y-69915135D01*
X163735382Y-69913456D01*
X163606148Y-69909176D01*
X163512205Y-69904774D01*
X163446518Y-69899177D01*
X163402055Y-69891313D01*
X163371782Y-69880109D01*
X163348668Y-69864494D01*
X163335185Y-69852445D01*
X163312793Y-69827165D01*
X163288250Y-69789913D01*
X163259950Y-69736986D01*
X163226288Y-69664678D01*
X163185660Y-69569287D01*
X163136459Y-69447108D01*
X163077081Y-69294436D01*
X163005920Y-69107568D01*
X162962817Y-68993233D01*
X162822662Y-68630280D01*
X162688427Y-68304321D01*
X162557486Y-68010891D01*
X162427211Y-67745522D01*
X162294975Y-67503748D01*
X162158149Y-67281103D01*
X162014107Y-67073119D01*
X161860220Y-66875332D01*
X161693861Y-66683273D01*
X161512403Y-66492477D01*
X161462064Y-66442167D01*
X161250412Y-66240626D01*
X161053122Y-66070826D01*
X160863035Y-65928051D01*
X160672990Y-65807586D01*
X160475828Y-65704719D01*
X160264389Y-65614734D01*
X160132138Y-65566500D01*
X159953975Y-65509287D01*
X159792581Y-65468437D01*
X159632559Y-65441210D01*
X159458513Y-65424863D01*
X159296287Y-65417706D01*
X158934367Y-65419113D01*
X158600951Y-65446158D01*
X158290803Y-65500861D01*
X157998689Y-65585241D01*
X157719375Y-65701317D01*
X157447626Y-65851110D01*
X157178208Y-66036639D01*
X156905887Y-66259923D01*
X156753911Y-66398674D01*
X156525238Y-66614423D01*
X156202423Y-66300753D01*
X156022772Y-66129592D01*
X155864425Y-65987279D01*
X155721556Y-65870165D01*
X155588338Y-65774603D01*
X155458943Y-65696945D01*
X155327543Y-65633544D01*
X155188311Y-65580751D01*
X155035419Y-65534920D01*
X154940000Y-65510531D01*
X154793483Y-65483048D01*
X154620316Y-65463461D01*
X154435569Y-65452497D01*
X154254314Y-65450881D01*
X154091620Y-65459339D01*
X154028450Y-65466630D01*
X153745527Y-65521756D01*
X153468754Y-65604524D01*
X153207718Y-65711293D01*
X152972006Y-65838423D01*
X152868643Y-65907056D01*
X152676684Y-66063519D01*
X152486859Y-66255302D01*
X152304379Y-66475505D01*
X152134453Y-66717227D01*
X151982289Y-66973567D01*
X151853097Y-67237624D01*
X151838374Y-67271889D01*
X151787417Y-67394604D01*
X151746787Y-67500154D01*
X151715293Y-67595794D01*
X151691743Y-67688776D01*
X151674945Y-67786351D01*
X151663707Y-67895774D01*
X151656836Y-68024296D01*
X151653142Y-68179170D01*
X151651432Y-68367650D01*
X151651220Y-68410667D01*
X151651084Y-68614141D01*
X151652824Y-68780090D01*
X151656617Y-68913287D01*
X151662644Y-69018507D01*
X151671082Y-69100524D01*
X151678848Y-69148390D01*
X151694599Y-69236872D01*
X151697763Y-69298524D01*
X151682738Y-69338917D01*
X151643920Y-69363623D01*
X151575706Y-69378212D01*
X151472493Y-69388257D01*
X151434683Y-69391155D01*
X151326896Y-69396879D01*
X151180918Y-69400926D01*
X151000857Y-69403387D01*
X150790819Y-69404351D01*
X150554912Y-69403909D01*
X150297240Y-69402151D01*
X150021912Y-69399164D01*
X149733033Y-69395041D01*
X149434711Y-69389870D01*
X149131051Y-69383741D01*
X148826161Y-69376744D01*
X148524147Y-69368969D01*
X148229115Y-69360506D01*
X147945173Y-69351443D01*
X147676426Y-69341872D01*
X147426982Y-69331882D01*
X147200946Y-69321562D01*
X147002426Y-69311002D01*
X146835529Y-69300292D01*
X146704360Y-69289523D01*
X146681671Y-69287255D01*
X146561925Y-69274799D01*
X146547831Y-69123191D01*
X146516698Y-68847072D01*
X146477112Y-68605437D01*
X146427296Y-68390964D01*
X146365473Y-68196333D01*
X146289869Y-68014225D01*
X146267262Y-67967064D01*
X146158505Y-67781102D01*
X146032355Y-67626534D01*
X145891934Y-67505363D01*
X145740364Y-67419591D01*
X145580767Y-67371221D01*
X145416265Y-67362255D01*
X145339415Y-67371986D01*
X145233742Y-67398218D01*
X145134168Y-67438760D01*
X145034243Y-67497868D01*
X144927522Y-67579798D01*
X144807555Y-67688806D01*
X144705394Y-67790500D01*
X144621211Y-67875727D01*
X144546954Y-67949249D01*
X144487739Y-68006130D01*
X144448684Y-68041437D01*
X144435380Y-68050833D01*
X144417715Y-68034211D01*
X144383931Y-67989862D01*
X144340175Y-67926067D01*
X144322088Y-67898254D01*
X144180141Y-67710847D01*
X144017935Y-67559296D01*
X143836959Y-67444986D01*
X143831345Y-67442190D01*
X143753725Y-67405493D01*
X143690523Y-67381822D01*
X143627088Y-67367798D01*
X143548771Y-67360041D01*
X143456661Y-67355743D01*
X143318242Y-67355661D01*
X143208581Y-67370004D01*
X143115294Y-67403228D01*
X143025998Y-67459791D01*
X142928307Y-67544148D01*
X142925343Y-67546942D01*
X142751847Y-67739262D01*
X142606050Y-67960593D01*
X142489430Y-68206709D01*
X142403466Y-68473385D01*
X142349636Y-68756397D01*
X142329418Y-69051518D01*
X142334252Y-69236167D01*
X142379245Y-69659547D01*
X142460274Y-70071601D01*
X142575953Y-70469188D01*
X142724893Y-70849169D01*
X142905706Y-71208401D01*
X143117006Y-71543746D01*
X143357404Y-71852062D01*
X143604050Y-72110062D01*
X143769850Y-72258706D01*
X143946236Y-72399707D01*
X144138776Y-72536733D01*
X144353040Y-72673457D01*
X144594597Y-72813550D01*
X144869015Y-72960681D01*
X144983978Y-73019661D01*
X145346706Y-73203770D01*
X145670529Y-73744093D01*
X145795670Y-73951642D01*
X145920767Y-74156755D01*
X146043155Y-74355215D01*
X146160168Y-74542803D01*
X146269140Y-74715302D01*
X146367405Y-74868493D01*
X146452297Y-74998158D01*
X146521152Y-75100080D01*
X146571302Y-75170040D01*
X146573772Y-75173277D01*
X146621775Y-75229987D01*
X146664924Y-75270935D01*
X146689916Y-75285731D01*
X146720524Y-75274318D01*
X146774102Y-75236477D01*
X146844715Y-75176709D01*
X146894774Y-75130304D01*
X147064533Y-74968117D01*
X147126176Y-75017850D01*
X147348341Y-75198461D01*
X147536764Y-75354617D01*
X147691944Y-75486755D01*
X147814379Y-75595317D01*
X147904566Y-75680740D01*
X147963004Y-75743466D01*
X147987570Y-75778252D01*
X148016688Y-75872458D01*
X148013486Y-75968632D01*
X147981146Y-76055943D01*
X147922855Y-76123564D01*
X147878381Y-76149507D01*
X147812564Y-76167537D01*
X147711487Y-76183099D01*
X147582166Y-76195868D01*
X147431621Y-76205520D01*
X147266869Y-76211730D01*
X147094928Y-76214173D01*
X146922817Y-76212524D01*
X146757552Y-76206460D01*
X146708645Y-76203622D01*
X146410490Y-76179259D01*
X146145210Y-76145253D01*
X145904024Y-76099507D01*
X145678152Y-76039921D01*
X145458813Y-75964398D01*
X145237226Y-75870838D01*
X145155381Y-75832418D01*
X144961226Y-75733187D01*
X144782325Y-75628229D01*
X144613769Y-75513277D01*
X144450645Y-75384066D01*
X144288044Y-75236328D01*
X144121055Y-75065799D01*
X143944767Y-74868213D01*
X143754269Y-74639302D01*
X143690181Y-74559583D01*
X143594627Y-74439869D01*
X143521654Y-74349845D01*
X143467067Y-74286410D01*
X143426671Y-74246462D01*
X143396272Y-74226901D01*
X143371675Y-74224626D01*
X143348688Y-74236534D01*
X143323115Y-74259526D01*
X143306385Y-74275813D01*
X143241874Y-74355425D01*
X143176460Y-74466504D01*
X143114282Y-74598486D01*
X143059478Y-74740806D01*
X143016185Y-74882899D01*
X142988541Y-75014201D01*
X142980443Y-75108011D01*
X142984089Y-75163074D01*
X142994291Y-75247840D01*
X143009457Y-75350469D01*
X143026792Y-75452518D01*
X143047685Y-75576624D01*
X143057117Y-75672677D01*
X143050967Y-75744270D01*
X143025109Y-75794994D01*
X142975420Y-75828442D01*
X142897776Y-75848207D01*
X142788054Y-75857880D01*
X142642130Y-75861054D01*
X142557500Y-75861324D01*
X142363231Y-75863378D01*
X142159757Y-75868975D01*
X141952536Y-75877684D01*
X141747026Y-75889073D01*
X141548684Y-75902711D01*
X141362967Y-75918168D01*
X141195335Y-75935011D01*
X141051244Y-75952811D01*
X140936153Y-75971135D01*
X140855519Y-75989553D01*
X140832252Y-75997621D01*
X140777105Y-76032644D01*
X140759525Y-76078447D01*
X140779139Y-76138964D01*
X140813831Y-76190919D01*
X140895634Y-76274539D01*
X141014987Y-76362376D01*
X141167607Y-76452174D01*
X141349208Y-76541678D01*
X141555506Y-76628631D01*
X141782217Y-76710779D01*
X141833498Y-76727688D01*
X142140929Y-76827320D01*
X141486673Y-77183601D01*
X141261167Y-77307044D01*
X141070908Y-77412679D01*
X140913455Y-77501985D01*
X140786371Y-77576442D01*
X140687218Y-77637528D01*
X140613557Y-77686724D01*
X140562950Y-77725509D01*
X140532958Y-77755362D01*
X140525145Y-77766997D01*
X140514335Y-77822822D01*
X140544930Y-77873697D01*
X140596857Y-77909991D01*
X140619165Y-77919877D01*
X140649420Y-77928010D01*
X140692060Y-77934651D01*
X140751525Y-77940057D01*
X140832254Y-77944488D01*
X140938685Y-77948204D01*
X141075258Y-77951462D01*
X141246412Y-77954523D01*
X141399332Y-77956833D01*
X142135581Y-77967417D01*
X141890586Y-78316667D01*
X141776659Y-78481516D01*
X141687646Y-78616149D01*
X141621997Y-78723392D01*
X141578165Y-78806073D01*
X141554601Y-78867019D01*
X141549756Y-78909056D01*
X141555936Y-78927618D01*
X141590897Y-78949196D01*
X141657156Y-78963338D01*
X141744285Y-78969763D01*
X141841858Y-78968186D01*
X141939447Y-78958325D01*
X142025023Y-78940359D01*
X142118515Y-78906821D01*
X142232362Y-78856108D01*
X142352486Y-78795441D01*
X142464811Y-78732045D01*
X142555262Y-78673141D01*
X142575327Y-78657982D01*
X142645562Y-78608045D01*
X142724460Y-78559709D01*
X142744218Y-78548992D01*
X142835685Y-78501319D01*
X142987634Y-78610353D01*
X143234129Y-78782894D01*
X143458419Y-78930311D01*
X143668255Y-79057389D01*
X143871388Y-79168915D01*
X143986250Y-79226921D01*
X144325793Y-79383600D01*
X144658738Y-79516517D01*
X144997797Y-79630007D01*
X145355678Y-79728405D01*
X145664085Y-79799172D01*
X145833532Y-79835684D01*
X145966095Y-79865775D01*
X146066481Y-79890919D01*
X146139398Y-79912590D01*
X146189551Y-79932265D01*
X146221647Y-79951418D01*
X146240394Y-79971523D01*
X146245807Y-79981446D01*
X146250830Y-80005734D01*
X146249605Y-80046878D01*
X146241373Y-80109283D01*
X146225378Y-80197352D01*
X146200863Y-80315492D01*
X146167071Y-80468105D01*
X146146915Y-80556724D01*
X146066815Y-80916109D01*
X145999165Y-81241371D01*
X145943077Y-81538563D01*
X145897665Y-81813740D01*
X145862043Y-82072956D01*
X145835324Y-82322266D01*
X145816622Y-82567724D01*
X145805050Y-82815383D01*
X145802373Y-82909833D01*
X145798838Y-83095050D01*
X145798133Y-83247254D01*
X145800541Y-83375688D01*
X145806346Y-83489595D01*
X145815829Y-83598218D01*
X145826170Y-83686849D01*
X145898433Y-84109755D01*
X146004789Y-84508326D01*
X146145942Y-84884249D01*
X146322594Y-85239212D01*
X146535449Y-85574905D01*
X146706228Y-85799158D01*
X146796495Y-85916876D01*
X146858025Y-86013464D01*
X146889632Y-86086780D01*
X146890889Y-86132859D01*
X146864703Y-86156040D01*
X146812098Y-86179199D01*
X146783309Y-86187688D01*
X146723448Y-86206330D01*
X146682601Y-86225639D01*
X146674424Y-86232988D01*
X146645471Y-86252855D01*
X146613861Y-86247506D01*
X146600333Y-86222417D01*
X146619122Y-86177112D01*
X146672286Y-86121221D01*
X146726341Y-86079444D01*
X146775695Y-86044875D01*
X146616331Y-85847896D01*
X146372842Y-85513469D01*
X146164863Y-85156387D01*
X145993153Y-84778176D01*
X145858474Y-84380361D01*
X145827923Y-84267305D01*
X145792053Y-84123636D01*
X145763587Y-83998730D01*
X145741689Y-83884616D01*
X145725526Y-83773320D01*
X145714265Y-83656871D01*
X145707070Y-83527295D01*
X145703109Y-83376621D01*
X145701547Y-83196876D01*
X145701425Y-83058000D01*
X145702111Y-82864599D01*
X145704036Y-82705431D01*
X145707614Y-82572402D01*
X145713258Y-82457419D01*
X145721380Y-82352389D01*
X145732394Y-82249219D01*
X145746712Y-82139817D01*
X145749156Y-82122464D01*
X145794387Y-81825788D01*
X145848811Y-81509662D01*
X145913585Y-81167790D01*
X145989866Y-80793878D01*
X146015931Y-80670942D01*
X146045361Y-80531452D01*
X146072477Y-80399563D01*
X146095714Y-80283159D01*
X146113504Y-80190125D01*
X146124283Y-80128343D01*
X146125840Y-80117648D01*
X146139502Y-80014662D01*
X145951876Y-79971814D01*
X145844429Y-79947686D01*
X145716872Y-79919649D01*
X145590547Y-79892378D01*
X145542000Y-79882066D01*
X145034180Y-79753377D01*
X144538979Y-79584660D01*
X144058781Y-79376966D01*
X143595973Y-79131347D01*
X143152938Y-78848853D01*
X143080401Y-78797696D01*
X142995946Y-78737498D01*
X142922452Y-78685520D01*
X142867629Y-78647187D01*
X142839186Y-78627925D01*
X142838731Y-78627643D01*
X142805880Y-78631142D01*
X142743532Y-78662753D01*
X142653153Y-78721719D01*
X142641993Y-78729539D01*
X142506244Y-78818159D01*
X142358935Y-78902348D01*
X142211473Y-78976337D01*
X142075262Y-79034358D01*
X141973368Y-79067727D01*
X141825355Y-79095981D01*
X141695249Y-79100471D01*
X141587317Y-79082330D01*
X141505828Y-79042692D01*
X141455050Y-78982690D01*
X141439769Y-78926015D01*
X141440021Y-78882144D01*
X141449872Y-78834435D01*
X141471974Y-78777757D01*
X141508977Y-78706977D01*
X141563531Y-78616964D01*
X141638286Y-78502585D01*
X141723094Y-78377398D01*
X141788253Y-78280795D01*
X141843165Y-78196756D01*
X141884075Y-78131244D01*
X141907233Y-78090221D01*
X141910812Y-78079201D01*
X141887784Y-78076850D01*
X141828524Y-78075561D01*
X141739120Y-78075331D01*
X141625661Y-78076155D01*
X141494234Y-78078031D01*
X141418005Y-78079478D01*
X141210170Y-78082206D01*
X141039210Y-78080654D01*
X140899836Y-78074318D01*
X140786758Y-78062694D01*
X140694687Y-78045279D01*
X140618334Y-78021567D01*
X140566108Y-77998286D01*
X140478500Y-77937293D01*
X140430454Y-77863203D01*
X140419666Y-77797526D01*
X140425207Y-77759480D01*
X140443756Y-77720121D01*
X140478207Y-77677389D01*
X140531452Y-77629227D01*
X140606383Y-77573575D01*
X140705893Y-77508374D01*
X140832873Y-77431567D01*
X140990217Y-77341094D01*
X141180817Y-77234897D01*
X141308667Y-77164782D01*
X141466829Y-77078191D01*
X141591320Y-77009387D01*
X141685777Y-76956160D01*
X141753841Y-76916299D01*
X141799151Y-76887593D01*
X141825347Y-76867831D01*
X141836067Y-76854802D01*
X141834952Y-76846296D01*
X141834235Y-76845512D01*
X141811180Y-76834446D01*
X141756218Y-76812221D01*
X141677301Y-76781947D01*
X141582377Y-76746733D01*
X141571197Y-76742654D01*
X141395134Y-76675458D01*
X141248927Y-76611977D01*
X141121159Y-76546512D01*
X141000410Y-76473367D01*
X140914838Y-76415173D01*
X140799074Y-76321298D01*
X140710446Y-76224006D01*
X140653158Y-76128918D01*
X140631416Y-76041649D01*
X140631333Y-76036431D01*
X140635616Y-75990792D01*
X140655425Y-75960905D01*
X140701195Y-75934172D01*
X140725026Y-75923341D01*
X140810928Y-75894487D01*
X140931489Y-75868923D01*
X141088273Y-75846458D01*
X141282840Y-75826901D01*
X141516755Y-75810060D01*
X141753167Y-75797484D01*
X142014225Y-75785251D01*
X142235905Y-75774483D01*
X142421129Y-75764985D01*
X142572817Y-75756562D01*
X142693893Y-75749021D01*
X142787277Y-75742165D01*
X142855893Y-75735802D01*
X142902663Y-75729736D01*
X142930507Y-75723772D01*
X142941800Y-75718333D01*
X142948548Y-75686279D01*
X142944374Y-75617353D01*
X142929549Y-75515507D01*
X142926713Y-75499261D01*
X142896181Y-75259745D01*
X142894823Y-75044970D01*
X142922719Y-74848923D01*
X142936314Y-74794638D01*
X142989294Y-74629624D01*
X143051797Y-74480091D01*
X143120750Y-74350771D01*
X143193080Y-74246399D01*
X143265714Y-74171710D01*
X143335579Y-74131438D01*
X143370544Y-74125667D01*
X143409347Y-74133235D01*
X143454658Y-74157973D01*
X143509559Y-74202935D01*
X143577135Y-74271172D01*
X143660470Y-74365736D01*
X143762648Y-74489680D01*
X143853161Y-74603322D01*
X144043210Y-74835162D01*
X144223249Y-75034445D01*
X144399941Y-75207528D01*
X144579950Y-75360764D01*
X144769937Y-75500510D01*
X144849394Y-75553518D01*
X145076694Y-75686404D01*
X145328459Y-75807760D01*
X145590137Y-75911522D01*
X145847179Y-75991631D01*
X145973410Y-76021765D01*
X146053357Y-76034528D01*
X146164541Y-76046458D01*
X146301064Y-76057392D01*
X146457024Y-76067166D01*
X146626524Y-76075619D01*
X146803663Y-76082588D01*
X146982543Y-76087909D01*
X147157263Y-76091420D01*
X147321923Y-76092958D01*
X147470626Y-76092361D01*
X147597470Y-76089465D01*
X147696556Y-76084107D01*
X147761986Y-76076126D01*
X147778997Y-76071590D01*
X147843266Y-76037494D01*
X147897395Y-75992077D01*
X147929610Y-75946291D01*
X147933833Y-75927573D01*
X147925612Y-75892521D01*
X147899492Y-75847375D01*
X147853287Y-75789991D01*
X147784811Y-75718225D01*
X147691879Y-75629934D01*
X147572304Y-75522973D01*
X147423900Y-75395199D01*
X147244482Y-75244468D01*
X147197692Y-75205575D01*
X147085968Y-75112862D01*
X146996609Y-75199319D01*
X146880159Y-75301354D01*
X146780300Y-75365523D01*
X146695685Y-75392304D01*
X146624965Y-75382175D01*
X146577701Y-75348042D01*
X146536956Y-75298380D01*
X146476730Y-75215014D01*
X146398851Y-75100818D01*
X146305147Y-74958668D01*
X146197446Y-74791438D01*
X146077575Y-74602003D01*
X145947362Y-74393238D01*
X145808635Y-74168018D01*
X145663221Y-73929218D01*
X145512949Y-73679712D01*
X145448923Y-73572582D01*
X145264274Y-73262914D01*
X145006262Y-73142263D01*
X144593516Y-72933913D01*
X144219619Y-72712392D01*
X143882619Y-72475807D01*
X143580562Y-72222268D01*
X143311495Y-71949884D01*
X143073466Y-71656764D01*
X142864521Y-71341016D01*
X142682707Y-71000749D01*
X142596148Y-70808569D01*
X142523565Y-70624250D01*
X142452830Y-70420734D01*
X142388229Y-70211943D01*
X142334047Y-70011799D01*
X142294571Y-69834223D01*
X142292074Y-69820851D01*
X142264714Y-69634146D01*
X142246590Y-69429154D01*
X142237635Y-69215339D01*
X142237781Y-69002167D01*
X142246958Y-68799104D01*
X142265099Y-68615616D01*
X142292135Y-68461168D01*
X142302193Y-68421098D01*
X142363769Y-68236319D01*
X142445358Y-68051579D01*
X142542627Y-67873136D01*
X142651247Y-67707253D01*
X142766885Y-67560188D01*
X142885210Y-67438204D01*
X143001891Y-67347559D01*
X143070831Y-67310142D01*
X143199191Y-67271279D01*
X143351623Y-67253586D01*
X143515903Y-67256454D01*
X143679802Y-67279272D01*
X143831094Y-67321431D01*
X143902491Y-67351653D01*
X143993108Y-67407963D01*
X144098430Y-67493285D01*
X144210918Y-67600612D01*
X144323035Y-67722935D01*
X144391209Y-67805976D01*
X144456437Y-67889203D01*
X144655260Y-67699012D01*
X144788257Y-67574548D01*
X144899589Y-67477628D01*
X144995650Y-67404094D01*
X145082829Y-67349790D01*
X145167520Y-67310556D01*
X145256112Y-67282237D01*
X145318062Y-67267868D01*
X145491206Y-67252916D01*
X145661841Y-67278315D01*
X145826913Y-67342084D01*
X145983365Y-67442245D01*
X146128141Y-67576817D01*
X146258183Y-67743822D01*
X146370437Y-67941279D01*
X146376117Y-67953158D01*
X146427583Y-68069523D01*
X146471032Y-68186819D01*
X146508895Y-68313861D01*
X146543604Y-68459465D01*
X146577590Y-68632446D01*
X146601578Y-68770500D01*
X146629737Y-68929417D01*
X146654216Y-69047061D01*
X146675227Y-69124315D01*
X146692980Y-69162061D01*
X146695770Y-69164672D01*
X146717857Y-69175086D01*
X146756465Y-69184418D01*
X146815127Y-69192945D01*
X146897373Y-69200942D01*
X147006736Y-69208688D01*
X147146746Y-69216459D01*
X147320936Y-69224532D01*
X147532837Y-69233183D01*
X147605750Y-69235988D01*
X147839271Y-69244384D01*
X148088485Y-69252454D01*
X148350132Y-69260152D01*
X148620948Y-69267429D01*
X148897673Y-69274236D01*
X149177046Y-69280527D01*
X149455803Y-69286251D01*
X149730685Y-69291362D01*
X149998428Y-69295812D01*
X150255773Y-69299551D01*
X150499456Y-69302532D01*
X150726217Y-69304707D01*
X150932793Y-69306028D01*
X151115924Y-69306446D01*
X151272347Y-69305914D01*
X151398801Y-69304382D01*
X151492025Y-69301804D01*
X151548756Y-69298130D01*
X151565606Y-69294444D01*
X151569394Y-69268782D01*
X151569095Y-69208938D01*
X151565006Y-69122833D01*
X151557428Y-69018390D01*
X151553504Y-68973454D01*
X151541640Y-68794631D01*
X151536186Y-68597093D01*
X151536868Y-68391898D01*
X151543408Y-68190108D01*
X151555531Y-68002782D01*
X151572962Y-67840981D01*
X151583447Y-67773856D01*
X151652815Y-67488336D01*
X151758246Y-67197480D01*
X151895568Y-66909119D01*
X152060609Y-66631085D01*
X152249197Y-66371206D01*
X152453040Y-66141485D01*
X152672934Y-65937483D01*
X152896736Y-65769683D01*
X153133649Y-65632287D01*
X153392880Y-65519499D01*
X153501524Y-65481093D01*
X153631187Y-65440115D01*
X153747300Y-65409572D01*
X153860212Y-65388037D01*
X153980269Y-65374083D01*
X154117819Y-65366284D01*
X154283209Y-65363211D01*
X154357917Y-65362986D01*
X154583360Y-65366904D01*
X154776376Y-65379947D01*
X154946255Y-65404054D01*
X155102287Y-65441161D01*
X155253762Y-65493204D01*
X155409971Y-65562122D01*
X155479878Y-65596898D01*
X155602449Y-65663503D01*
X155716395Y-65734803D01*
X155828988Y-65816411D01*
X155947499Y-65913940D01*
X156079201Y-66033003D01*
X156220583Y-66168652D01*
X156516917Y-66458627D01*
X156759541Y-66249476D01*
X156971564Y-66072985D01*
X157166909Y-65924671D01*
X157354319Y-65798861D01*
X157542536Y-65689880D01*
X157740301Y-65592054D01*
X157841291Y-65547349D01*
X158031541Y-65472796D01*
X158218459Y-65414952D01*
X158410734Y-65372309D01*
X158617054Y-65343355D01*
X158846107Y-65326582D01*
X159106584Y-65320481D01*
X159147705Y-65320393D01*
X159370218Y-65323711D01*
G36*
X158899620Y-85212346D02*
G01*
X158937286Y-85239594D01*
X158974761Y-85300881D01*
X159008385Y-85396125D01*
X159036029Y-85516984D01*
X159055562Y-85655115D01*
X159061482Y-85725886D01*
X159066521Y-85818395D01*
X159065575Y-85883415D01*
X159056151Y-85935646D01*
X159035758Y-85989789D01*
X159006231Y-86051760D01*
X158918714Y-86187220D01*
X158791079Y-86322061D01*
X158625540Y-86455547D01*
X158424313Y-86586942D01*
X158189611Y-86715513D01*
X157923650Y-86840525D01*
X157628645Y-86961243D01*
X157306810Y-87076931D01*
X156960361Y-87186856D01*
X156591511Y-87290282D01*
X156202476Y-87386475D01*
X155795470Y-87474699D01*
X155372709Y-87554221D01*
X154936406Y-87624305D01*
X154488778Y-87684217D01*
X154032038Y-87733221D01*
X153902833Y-87744886D01*
X153671758Y-87762805D01*
X153427458Y-87778005D01*
X153177655Y-87790258D01*
X152930069Y-87799339D01*
X152692421Y-87805020D01*
X152472431Y-87807076D01*
X152277820Y-87805279D01*
X152116307Y-87799403D01*
X152093083Y-87798007D01*
X151959832Y-87786234D01*
X151799134Y-87766844D01*
X151617872Y-87741109D01*
X151422926Y-87710300D01*
X151221176Y-87675689D01*
X151019505Y-87638548D01*
X150824792Y-87600146D01*
X150643920Y-87561757D01*
X150483769Y-87524650D01*
X150351221Y-87490098D01*
X150253155Y-87459372D01*
X150245961Y-87456728D01*
X150162317Y-87421163D01*
X150092339Y-87379702D01*
X150033970Y-87327907D01*
X149985154Y-87261346D01*
X149943834Y-87175584D01*
X149907953Y-87066184D01*
X149875456Y-86928714D01*
X149844287Y-86758738D01*
X149812387Y-86551821D01*
X149806103Y-86508167D01*
X149781517Y-86323731D01*
X149766159Y-86176226D01*
X149760107Y-86061250D01*
X149763439Y-85974400D01*
X149776234Y-85911275D01*
X149798571Y-85867472D01*
X149817896Y-85847557D01*
X149863582Y-85822925D01*
X149900530Y-85820775D01*
X149985253Y-85850088D01*
X150102058Y-85885691D01*
X150241621Y-85925066D01*
X150394619Y-85965692D01*
X150551727Y-86005051D01*
X150703621Y-86040624D01*
X150761500Y-86053373D01*
X151325662Y-86165236D01*
X151863578Y-86251187D01*
X152382155Y-86311638D01*
X152888301Y-86347000D01*
X153388922Y-86357687D01*
X153890926Y-86344109D01*
X154401221Y-86306678D01*
X154622500Y-86283626D01*
X154942791Y-86242011D01*
X155290966Y-86186991D01*
X155655572Y-86120810D01*
X156025158Y-86045711D01*
X156388273Y-85963939D01*
X156733465Y-85877739D01*
X156841032Y-85848830D01*
X157045776Y-85791655D01*
X157223243Y-85739291D01*
X157385855Y-85687568D01*
X157546037Y-85632320D01*
X157716212Y-85569377D01*
X157908801Y-85494572D01*
X157974035Y-85468706D01*
X158208763Y-85377651D01*
X158409748Y-85304693D01*
X158576098Y-85250116D01*
X158706919Y-85214206D01*
X158801320Y-85197249D01*
X158827635Y-85195833D01*
X158899620Y-85212346D01*
G37*
X158899620Y-85212346D02*
X158937286Y-85239594D01*
X158974761Y-85300881D01*
X159008385Y-85396125D01*
X159036029Y-85516984D01*
X159055562Y-85655115D01*
X159061482Y-85725886D01*
X159066521Y-85818395D01*
X159065575Y-85883415D01*
X159056151Y-85935646D01*
X159035758Y-85989789D01*
X159006231Y-86051760D01*
X158918714Y-86187220D01*
X158791079Y-86322061D01*
X158625540Y-86455547D01*
X158424313Y-86586942D01*
X158189611Y-86715513D01*
X157923650Y-86840525D01*
X157628645Y-86961243D01*
X157306810Y-87076931D01*
X156960361Y-87186856D01*
X156591511Y-87290282D01*
X156202476Y-87386475D01*
X155795470Y-87474699D01*
X155372709Y-87554221D01*
X154936406Y-87624305D01*
X154488778Y-87684217D01*
X154032038Y-87733221D01*
X153902833Y-87744886D01*
X153671758Y-87762805D01*
X153427458Y-87778005D01*
X153177655Y-87790258D01*
X152930069Y-87799339D01*
X152692421Y-87805020D01*
X152472431Y-87807076D01*
X152277820Y-87805279D01*
X152116307Y-87799403D01*
X152093083Y-87798007D01*
X151959832Y-87786234D01*
X151799134Y-87766844D01*
X151617872Y-87741109D01*
X151422926Y-87710300D01*
X151221176Y-87675689D01*
X151019505Y-87638548D01*
X150824792Y-87600146D01*
X150643920Y-87561757D01*
X150483769Y-87524650D01*
X150351221Y-87490098D01*
X150253155Y-87459372D01*
X150245961Y-87456728D01*
X150162317Y-87421163D01*
X150092339Y-87379702D01*
X150033970Y-87327907D01*
X149985154Y-87261346D01*
X149943834Y-87175584D01*
X149907953Y-87066184D01*
X149875456Y-86928714D01*
X149844287Y-86758738D01*
X149812387Y-86551821D01*
X149806103Y-86508167D01*
X149781517Y-86323731D01*
X149766159Y-86176226D01*
X149760107Y-86061250D01*
X149763439Y-85974400D01*
X149776234Y-85911275D01*
X149798571Y-85867472D01*
X149817896Y-85847557D01*
X149863582Y-85822925D01*
X149900530Y-85820775D01*
X149985253Y-85850088D01*
X150102058Y-85885691D01*
X150241621Y-85925066D01*
X150394619Y-85965692D01*
X150551727Y-86005051D01*
X150703621Y-86040624D01*
X150761500Y-86053373D01*
X151325662Y-86165236D01*
X151863578Y-86251187D01*
X152382155Y-86311638D01*
X152888301Y-86347000D01*
X153388922Y-86357687D01*
X153890926Y-86344109D01*
X154401221Y-86306678D01*
X154622500Y-86283626D01*
X154942791Y-86242011D01*
X155290966Y-86186991D01*
X155655572Y-86120810D01*
X156025158Y-86045711D01*
X156388273Y-85963939D01*
X156733465Y-85877739D01*
X156841032Y-85848830D01*
X157045776Y-85791655D01*
X157223243Y-85739291D01*
X157385855Y-85687568D01*
X157546037Y-85632320D01*
X157716212Y-85569377D01*
X157908801Y-85494572D01*
X157974035Y-85468706D01*
X158208763Y-85377651D01*
X158409748Y-85304693D01*
X158576098Y-85250116D01*
X158706919Y-85214206D01*
X158801320Y-85197249D01*
X158827635Y-85195833D01*
X158899620Y-85212346D01*
M02*
