<?xml version="1.0" standalone="no"?>
 <!DOCTYPE svg PUBLIC "-//W3C//DTD SVG 1.1//EN" 
 "http://www.w3.org/Graphics/SVG/1.1/DTD/svg11.dtd"> 
<svg xmlns="http://www.w3.org/2000/svg" version="1.1" 
    width="2.70002cm" height="2.15392cm" viewBox="0 0 10630 8480 ">
<title>SVG Picture created as 001-F_Cu.svg date 2019/12/23 17:14:15 </title>
  <desc>Picture generated by PCBNEW </desc>
<g style="fill:#000000; fill-opacity:1;stroke:#000000; stroke-opacity:1;
stroke-linecap:round; stroke-linejoin:round; "
 transform="translate(0 0) scale(1 1)">
</g>
<g style="fill:#000000; fill-opacity:0.0; 
stroke:#000000; stroke-width:-0.000393701; stroke-opacity:1; 
stroke-linecap:round; stroke-linejoin:round;">
<g >
</g>
<g style="fill:#848400; fill-opacity:0.0; 
stroke:#848400; stroke-width:-0.000393701; stroke-opacity:1; 
stroke-linecap:round; stroke-linejoin:round;">
</g>
<g style="fill:#848400; fill-opacity:0.0; 
stroke:#848400; stroke-width:669.291; stroke-opacity:1; 
stroke-linecap:round; stroke-linejoin:round;">
<path d="M1819 7215
L1819 7215
" />
<path d="M1819 6215
L1819 6215
" />
<path d="M1819 5215
L1819 5215
" />
<path d="M1819 4215
L1819 4215
" />
<path d="M1819 3215
L1819 3215
" />
<path d="M1819 2215
L1819 2215
" />
</g>
<g style="fill:#848400; fill-opacity:1.0; 
stroke:#848400; stroke-width:0; stroke-opacity:1; 
stroke-linecap:round; stroke-linejoin:round;">
<circle cx="1819.93" cy="1215.55" r="334.646" /> 
</g>
<g style="fill:#848400; fill-opacity:1.0; 
stroke:#848400; stroke-width:39.3701; stroke-opacity:1; 
stroke-linecap:round; stroke-linejoin:round;">
</g>
<g >
</g>
<g style="fill:#848400; fill-opacity:1.0; 
stroke:#848400; stroke-width:39.3701; stroke-opacity:1; 
stroke-linecap:round; stroke-linejoin:round;">
</g>
<g style="fill:#848400; fill-opacity:1.0; 
stroke:#848400; stroke-width:669.291; stroke-opacity:1; 
stroke-linecap:round; stroke-linejoin:round;">
</g>
<g style="fill:#848400; fill-opacity:0.0; 
stroke:#848400; stroke-width:669.291; stroke-opacity:1; 
stroke-linecap:round; stroke-linejoin:round;">
<path d="M8819 7215
L8819 7215
" />
<path d="M8819 6215
L8819 6215
" />
<path d="M8819 5215
L8819 5215
" />
<path d="M8819 4215
L8819 4215
" />
<path d="M8819 3215
L8819 3215
" />
<path d="M8819 2215
L8819 2215
" />
</g>
<g style="fill:#848400; fill-opacity:1.0; 
stroke:#848400; stroke-width:0; stroke-opacity:1; 
stroke-linecap:round; stroke-linejoin:round;">
<circle cx="8819.93" cy="1215.55" r="334.646" /> 
</g>
<g style="fill:#848400; fill-opacity:1.0; 
stroke:#848400; stroke-width:39.3701; stroke-opacity:1; 
stroke-linecap:round; stroke-linejoin:round;">
</g>
<g >
</g>
<g style="fill:#840000; fill-opacity:1.0; 
stroke:#840000; stroke-width:39.3701; stroke-opacity:1; 
stroke-linecap:round; stroke-linejoin:round;">
</g>
<g style="fill:#840000; fill-opacity:1.0; 
stroke:#840000; stroke-width:0; stroke-opacity:1; 
stroke-linecap:round; stroke-linejoin:round;">
<path style="fill:#840000; fill-opacity:1.0; 
stroke:#840000; stroke-width:0; stroke-opacity:1; 
stroke-linecap:round; stroke-linejoin:round;fill-rule:evenodd;"
d="M 5926.03,1121.54
5935.59,1122.95
5944.96,1125.3
5954.05,1128.56
5962.78,1132.69
5971.07,1137.65
5978.83,1143.4
5985.98,1149.89
5992.47,1157.05
5998.22,1164.81
6003.19,1173.09
6007.32,1181.82
6010.57,1190.92
6012.92,1200.29
6014.34,1209.84
6014.81,1219.49
6014.81,1711.61
6014.34,1721.26
6012.92,1730.82
6010.57,1740.19
6007.32,1749.28
6003.19,1758.01
5998.22,1766.3
5992.47,1774.05
5985.98,1781.21
5978.83,1787.7
5971.07,1793.45
5962.78,1798.42
5954.05,1802.55
5944.96,1805.8
5935.59,1808.15
5926.03,1809.57
5916.39,1810.04
5552.21,1810.04
5542.56,1809.57
5533.01,1808.15
5523.64,1805.8
5514.55,1802.55
5505.81,1798.42
5497.53,1793.45
5489.77,1787.7
5482.61,1781.21
5476.13,1774.05
5470.37,1766.3
5465.41,1758.01
5461.28,1749.28
5458.03,1740.19
5455.68,1730.82
5454.26,1721.26
5453.79,1711.61
5453.79,1219.49
5454.26,1209.84
5455.68,1200.29
5458.03,1190.92
5461.28,1181.82
5465.41,1173.09
5470.37,1164.81
5476.13,1157.05
5482.61,1149.89
5489.77,1143.4
5497.53,1137.65
5505.81,1132.69
5514.55,1128.56
5523.64,1125.3
5533.01,1122.95
5542.56,1121.54
5552.21,1121.06
5916.39,1121.06
Z" /> 
<path style="fill:#840000; fill-opacity:1.0; 
stroke:#840000; stroke-width:0; stroke-opacity:1; 
stroke-linecap:round; stroke-linejoin:round;fill-rule:evenodd;"
d="M 7097.29,1121.54
7106.85,1122.95
7116.22,1125.3
7125.31,1128.56
7134.04,1132.69
7142.33,1137.65
7150.09,1143.4
7157.24,1149.89
7163.73,1157.05
7169.48,1164.81
7174.45,1173.09
7178.58,1181.82
7181.83,1190.92
7184.18,1200.29
7185.6,1209.84
7186.07,1219.49
7186.07,1711.61
7185.6,1721.26
7184.18,1730.82
7181.83,1740.19
7178.58,1749.28
7174.45,1758.01
7169.48,1766.3
7163.73,1774.05
7157.24,1781.21
7150.09,1787.7
7142.33,1793.45
7134.04,1798.42
7125.31,1802.55
7116.22,1805.8
7106.85,1808.15
7097.29,1809.57
7087.65,1810.04
6723.47,1810.04
6713.82,1809.57
6704.27,1808.15
6694.9,1805.8
6685.81,1802.55
6677.07,1798.42
6668.79,1793.45
6661.03,1787.7
6653.87,1781.21
6647.39,1774.05
6641.63,1766.3
6636.67,1758.01
6632.54,1749.28
6629.29,1740.19
6626.94,1730.82
6625.52,1721.26
6625.05,1711.61
6625.05,1219.49
6625.52,1209.84
6626.94,1200.29
6629.29,1190.92
6632.54,1181.82
6636.67,1173.09
6641.63,1164.81
6647.39,1157.05
6653.87,1149.89
6661.03,1143.4
6668.79,1137.65
6677.07,1132.69
6685.81,1128.56
6694.9,1125.3
6704.27,1122.95
6713.82,1121.54
6723.47,1121.06
7087.65,1121.06
Z" /> 
</g>
<g >
</g>
<g style="fill:#840000; fill-opacity:1.0; 
stroke:#840000; stroke-width:0; stroke-opacity:1; 
stroke-linecap:round; stroke-linejoin:round;">
<path style="fill:#840000; fill-opacity:1.0; 
stroke:#840000; stroke-width:0; stroke-opacity:1; 
stroke-linecap:round; stroke-linejoin:round;fill-rule:evenodd;"
d="M 5097.29,1121.54
5106.85,1122.95
5116.22,1125.3
5125.31,1128.56
5134.04,1132.69
5142.33,1137.65
5150.09,1143.4
5157.24,1149.89
5163.73,1157.05
5169.48,1164.81
5174.45,1173.09
5178.58,1181.82
5181.83,1190.92
5184.18,1200.29
5185.6,1209.84
5186.07,1219.49
5186.07,1711.61
5185.6,1721.26
5184.18,1730.82
5181.83,1740.19
5178.58,1749.28
5174.45,1758.01
5169.48,1766.3
5163.73,1774.05
5157.24,1781.21
5150.09,1787.7
5142.33,1793.45
5134.04,1798.42
5125.31,1802.55
5116.22,1805.8
5106.85,1808.15
5097.29,1809.57
5087.65,1810.04
4723.47,1810.04
4713.82,1809.57
4704.27,1808.15
4694.9,1805.8
4685.81,1802.55
4677.07,1798.42
4668.79,1793.45
4661.03,1787.7
4653.87,1781.21
4647.39,1774.05
4641.63,1766.3
4636.67,1758.01
4632.54,1749.28
4629.29,1740.19
4626.94,1730.82
4625.52,1721.26
4625.05,1711.61
4625.05,1219.49
4625.52,1209.84
4626.94,1200.29
4629.29,1190.92
4632.54,1181.82
4636.67,1173.09
4641.63,1164.81
4647.39,1157.05
4653.87,1149.89
4661.03,1143.4
4668.79,1137.65
4677.07,1132.69
4685.81,1128.56
4694.9,1125.3
4704.27,1122.95
4713.82,1121.54
4723.47,1121.06
5087.65,1121.06
Z" /> 
<path style="fill:#840000; fill-opacity:1.0; 
stroke:#840000; stroke-width:0; stroke-opacity:1; 
stroke-linecap:round; stroke-linejoin:round;fill-rule:evenodd;"
d="M 3926.03,1121.54
3935.59,1122.95
3944.96,1125.3
3954.05,1128.56
3962.78,1132.69
3971.07,1137.65
3978.83,1143.4
3985.98,1149.89
3992.47,1157.05
3998.22,1164.81
4003.19,1173.09
4007.32,1181.82
4010.57,1190.92
4012.92,1200.29
4014.34,1209.84
4014.81,1219.49
4014.81,1711.61
4014.34,1721.26
4012.92,1730.82
4010.57,1740.19
4007.32,1749.28
4003.19,1758.01
3998.22,1766.3
3992.47,1774.05
3985.98,1781.21
3978.83,1787.7
3971.07,1793.45
3962.78,1798.42
3954.05,1802.55
3944.96,1805.8
3935.59,1808.15
3926.03,1809.57
3916.39,1810.04
3552.21,1810.04
3542.56,1809.57
3533.01,1808.15
3523.64,1805.8
3514.55,1802.55
3505.81,1798.42
3497.53,1793.45
3489.77,1787.7
3482.61,1781.21
3476.13,1774.05
3470.37,1766.3
3465.41,1758.01
3461.28,1749.28
3458.03,1740.19
3455.68,1730.82
3454.26,1721.26
3453.79,1711.61
3453.79,1219.49
3454.26,1209.84
3455.68,1200.29
3458.03,1190.92
3461.28,1181.82
3465.41,1173.09
3470.37,1164.81
3476.13,1157.05
3482.61,1149.89
3489.77,1143.4
3497.53,1137.65
3505.81,1132.69
3514.55,1128.56
3523.64,1125.3
3533.01,1122.95
3542.56,1121.54
3552.21,1121.06
3916.39,1121.06
Z" /> 
</g>
<g >
</g>
<g style="fill:#840000; fill-opacity:1.0; 
stroke:#840000; stroke-width:0; stroke-opacity:1; 
stroke-linecap:round; stroke-linejoin:round;">
<path style="fill:#840000; fill-opacity:1.0; 
stroke:#840000; stroke-width:0; stroke-opacity:1; 
stroke-linecap:round; stroke-linejoin:round;fill-rule:evenodd;"
d="M 5926.03,2121.54
5935.59,2122.95
5944.96,2125.3
5954.05,2128.56
5962.78,2132.69
5971.07,2137.65
5978.83,2143.4
5985.98,2149.89
5992.47,2157.05
5998.22,2164.81
6003.19,2173.09
6007.32,2181.82
6010.57,2190.92
6012.92,2200.29
6014.34,2209.84
6014.81,2219.49
6014.81,2711.61
6014.34,2721.26
6012.92,2730.82
6010.57,2740.19
6007.32,2749.28
6003.19,2758.01
5998.22,2766.3
5992.47,2774.05
5985.98,2781.21
5978.83,2787.7
5971.07,2793.45
5962.78,2798.42
5954.05,2802.55
5944.96,2805.8
5935.59,2808.15
5926.03,2809.57
5916.39,2810.04
5552.21,2810.04
5542.56,2809.57
5533.01,2808.15
5523.64,2805.8
5514.55,2802.55
5505.81,2798.42
5497.53,2793.45
5489.77,2787.7
5482.61,2781.21
5476.13,2774.05
5470.37,2766.3
5465.41,2758.01
5461.28,2749.28
5458.03,2740.19
5455.68,2730.82
5454.26,2721.26
5453.79,2711.61
5453.79,2219.49
5454.26,2209.84
5455.68,2200.29
5458.03,2190.92
5461.28,2181.82
5465.41,2173.09
5470.37,2164.81
5476.13,2157.05
5482.61,2149.89
5489.77,2143.4
5497.53,2137.65
5505.81,2132.69
5514.55,2128.56
5523.64,2125.3
5533.01,2122.95
5542.56,2121.54
5552.21,2121.06
5916.39,2121.06
Z" /> 
<path style="fill:#840000; fill-opacity:1.0; 
stroke:#840000; stroke-width:0; stroke-opacity:1; 
stroke-linecap:round; stroke-linejoin:round;fill-rule:evenodd;"
d="M 7097.29,2121.54
7106.85,2122.95
7116.22,2125.3
7125.31,2128.56
7134.04,2132.69
7142.33,2137.65
7150.09,2143.4
7157.24,2149.89
7163.73,2157.05
7169.48,2164.81
7174.45,2173.09
7178.58,2181.82
7181.83,2190.92
7184.18,2200.29
7185.6,2209.84
7186.07,2219.49
7186.07,2711.61
7185.6,2721.26
7184.18,2730.82
7181.83,2740.19
7178.58,2749.28
7174.45,2758.01
7169.48,2766.3
7163.73,2774.05
7157.24,2781.21
7150.09,2787.7
7142.33,2793.45
7134.04,2798.42
7125.31,2802.55
7116.22,2805.8
7106.85,2808.15
7097.29,2809.57
7087.65,2810.04
6723.47,2810.04
6713.82,2809.57
6704.27,2808.15
6694.9,2805.8
6685.81,2802.55
6677.07,2798.42
6668.79,2793.45
6661.03,2787.7
6653.87,2781.21
6647.39,2774.05
6641.63,2766.3
6636.67,2758.01
6632.54,2749.28
6629.29,2740.19
6626.94,2730.82
6625.52,2721.26
6625.05,2711.61
6625.05,2219.49
6625.52,2209.84
6626.94,2200.29
6629.29,2190.92
6632.54,2181.82
6636.67,2173.09
6641.63,2164.81
6647.39,2157.05
6653.87,2149.89
6661.03,2143.4
6668.79,2137.65
6677.07,2132.69
6685.81,2128.56
6694.9,2125.3
6704.27,2122.95
6713.82,2121.54
6723.47,2121.06
7087.65,2121.06
Z" /> 
</g>
<g >
</g>
<g style="fill:#840000; fill-opacity:1.0; 
stroke:#840000; stroke-width:0; stroke-opacity:1; 
stroke-linecap:round; stroke-linejoin:round;">
<path style="fill:#840000; fill-opacity:1.0; 
stroke:#840000; stroke-width:0; stroke-opacity:1; 
stroke-linecap:round; stroke-linejoin:round;fill-rule:evenodd;"
d="M 5097.29,2121.54
5106.85,2122.95
5116.22,2125.3
5125.31,2128.56
5134.04,2132.69
5142.33,2137.65
5150.09,2143.4
5157.24,2149.89
5163.73,2157.05
5169.48,2164.81
5174.45,2173.09
5178.58,2181.82
5181.83,2190.92
5184.18,2200.29
5185.6,2209.84
5186.07,2219.49
5186.07,2711.61
5185.6,2721.26
5184.18,2730.82
5181.83,2740.19
5178.58,2749.28
5174.45,2758.01
5169.48,2766.3
5163.73,2774.05
5157.24,2781.21
5150.09,2787.7
5142.33,2793.45
5134.04,2798.42
5125.31,2802.55
5116.22,2805.8
5106.85,2808.15
5097.29,2809.57
5087.65,2810.04
4723.47,2810.04
4713.82,2809.57
4704.27,2808.15
4694.9,2805.8
4685.81,2802.55
4677.07,2798.42
4668.79,2793.45
4661.03,2787.7
4653.87,2781.21
4647.39,2774.05
4641.63,2766.3
4636.67,2758.01
4632.54,2749.28
4629.29,2740.19
4626.94,2730.82
4625.52,2721.26
4625.05,2711.61
4625.05,2219.49
4625.52,2209.84
4626.94,2200.29
4629.29,2190.92
4632.54,2181.82
4636.67,2173.09
4641.63,2164.81
4647.39,2157.05
4653.87,2149.89
4661.03,2143.4
4668.79,2137.65
4677.07,2132.69
4685.81,2128.56
4694.9,2125.3
4704.27,2122.95
4713.82,2121.54
4723.47,2121.06
5087.65,2121.06
Z" /> 
<path style="fill:#840000; fill-opacity:1.0; 
stroke:#840000; stroke-width:0; stroke-opacity:1; 
stroke-linecap:round; stroke-linejoin:round;fill-rule:evenodd;"
d="M 3926.03,2121.54
3935.59,2122.95
3944.96,2125.3
3954.05,2128.56
3962.78,2132.69
3971.07,2137.65
3978.83,2143.4
3985.98,2149.89
3992.47,2157.05
3998.22,2164.81
4003.19,2173.09
4007.32,2181.82
4010.57,2190.92
4012.92,2200.29
4014.34,2209.84
4014.81,2219.49
4014.81,2711.61
4014.34,2721.26
4012.92,2730.82
4010.57,2740.19
4007.32,2749.28
4003.19,2758.01
3998.22,2766.3
3992.47,2774.05
3985.98,2781.21
3978.83,2787.7
3971.07,2793.45
3962.78,2798.42
3954.05,2802.55
3944.96,2805.8
3935.59,2808.15
3926.03,2809.57
3916.39,2810.04
3552.21,2810.04
3542.56,2809.57
3533.01,2808.15
3523.64,2805.8
3514.55,2802.55
3505.81,2798.42
3497.53,2793.45
3489.77,2787.7
3482.61,2781.21
3476.13,2774.05
3470.37,2766.3
3465.41,2758.01
3461.28,2749.28
3458.03,2740.19
3455.68,2730.82
3454.26,2721.26
3453.79,2711.61
3453.79,2219.49
3454.26,2209.84
3455.68,2200.29
3458.03,2190.92
3461.28,2181.82
3465.41,2173.09
3470.37,2164.81
3476.13,2157.05
3482.61,2149.89
3489.77,2143.4
3497.53,2137.65
3505.81,2132.69
3514.55,2128.56
3523.64,2125.3
3533.01,2122.95
3542.56,2121.54
3552.21,2121.06
3916.39,2121.06
Z" /> 
</g>
<g >
</g>
<g style="fill:#840000; fill-opacity:1.0; 
stroke:#840000; stroke-width:0; stroke-opacity:1; 
stroke-linecap:round; stroke-linejoin:round;">
<path style="fill:#840000; fill-opacity:1.0; 
stroke:#840000; stroke-width:0; stroke-opacity:1; 
stroke-linecap:round; stroke-linejoin:round;fill-rule:evenodd;"
d="M 6647.84,4593.35
6047.45,4593.35
6047.45,4317.76
6647.84,4317.76
Z" /> 
<path style="fill:#840000; fill-opacity:1.0; 
stroke:#840000; stroke-width:0; stroke-opacity:1; 
stroke-linecap:round; stroke-linejoin:round;fill-rule:evenodd;"
d="M 6647.84,5093.35
6047.45,5093.35
6047.45,4817.76
6647.84,4817.76
Z" /> 
<path style="fill:#840000; fill-opacity:1.0; 
stroke:#840000; stroke-width:0; stroke-opacity:1; 
stroke-linecap:round; stroke-linejoin:round;fill-rule:evenodd;"
d="M 6647.84,5593.35
6047.45,5593.35
6047.45,5317.76
6647.84,5317.76
Z" /> 
<path style="fill:#840000; fill-opacity:1.0; 
stroke:#840000; stroke-width:0; stroke-opacity:1; 
stroke-linecap:round; stroke-linejoin:round;fill-rule:evenodd;"
d="M 6647.84,6093.35
6047.45,6093.35
6047.45,5817.76
6647.84,5817.76
Z" /> 
<path style="fill:#840000; fill-opacity:1.0; 
stroke:#840000; stroke-width:0; stroke-opacity:1; 
stroke-linecap:round; stroke-linejoin:round;fill-rule:evenodd;"
d="M 6647.84,6593.35
6047.45,6593.35
6047.45,6317.76
6647.84,6317.76
Z" /> 
<path style="fill:#840000; fill-opacity:1.0; 
stroke:#840000; stroke-width:0; stroke-opacity:1; 
stroke-linecap:round; stroke-linejoin:round;fill-rule:evenodd;"
d="M 6647.84,7093.35
6047.45,7093.35
6047.45,6817.76
6647.84,6817.76
Z" /> 
<path style="fill:#840000; fill-opacity:1.0; 
stroke:#840000; stroke-width:0; stroke-opacity:1; 
stroke-linecap:round; stroke-linejoin:round;fill-rule:evenodd;"
d="M 6647.84,7593.35
6047.45,7593.35
6047.45,7317.76
6647.84,7317.76
Z" /> 
<path style="fill:#840000; fill-opacity:1.0; 
stroke:#840000; stroke-width:0; stroke-opacity:1; 
stroke-linecap:round; stroke-linejoin:round;fill-rule:evenodd;"
d="M 4512.41,7593.35
3912.02,7593.35
3912.02,7317.76
4512.41,7317.76
Z" /> 
<path style="fill:#840000; fill-opacity:1.0; 
stroke:#840000; stroke-width:0; stroke-opacity:1; 
stroke-linecap:round; stroke-linejoin:round;fill-rule:evenodd;"
d="M 4512.41,7093.35
3912.02,7093.35
3912.02,6817.76
4512.41,6817.76
Z" /> 
<path style="fill:#840000; fill-opacity:1.0; 
stroke:#840000; stroke-width:0; stroke-opacity:1; 
stroke-linecap:round; stroke-linejoin:round;fill-rule:evenodd;"
d="M 4512.41,6593.35
3912.02,6593.35
3912.02,6317.76
4512.41,6317.76
Z" /> 
<path style="fill:#840000; fill-opacity:1.0; 
stroke:#840000; stroke-width:0; stroke-opacity:1; 
stroke-linecap:round; stroke-linejoin:round;fill-rule:evenodd;"
d="M 4512.41,6093.35
3912.02,6093.35
3912.02,5817.76
4512.41,5817.76
Z" /> 
<path style="fill:#840000; fill-opacity:1.0; 
stroke:#840000; stroke-width:0; stroke-opacity:1; 
stroke-linecap:round; stroke-linejoin:round;fill-rule:evenodd;"
d="M 4512.41,5593.35
3912.02,5593.35
3912.02,5317.76
4512.41,5317.76
Z" /> 
<path style="fill:#840000; fill-opacity:1.0; 
stroke:#840000; stroke-width:0; stroke-opacity:1; 
stroke-linecap:round; stroke-linejoin:round;fill-rule:evenodd;"
d="M 4512.41,5093.35
3912.02,5093.35
3912.02,4817.76
4512.41,4817.76
Z" /> 
<path style="fill:#840000; fill-opacity:1.0; 
stroke:#840000; stroke-width:0; stroke-opacity:1; 
stroke-linecap:round; stroke-linejoin:round;fill-rule:evenodd;"
d="M 4512.41,4593.35
3912.02,4593.35
3912.02,4317.76
4512.41,4317.76
Z" /> 
</g>
<g >
</g>
<g >
</g>
<g style="fill:#C2C2C2; fill-opacity:1.0; 
stroke:#C2C2C2; stroke-width:0; stroke-opacity:1; 
stroke-linecap:round; stroke-linejoin:round;">
<circle cx="5559.93" cy="6315.55" r="157.48" /> 
</g>
<g style="fill:#C2C2C2; fill-opacity:1.0; 
stroke:#C2C2C2; stroke-width:39.3701; stroke-opacity:1; 
stroke-linecap:round; stroke-linejoin:round;">
</g>
<g style="fill:#C2C2C2; fill-opacity:1.0; 
stroke:#C2C2C2; stroke-width:0; stroke-opacity:1; 
stroke-linecap:round; stroke-linejoin:round;">
<circle cx="5569.93" cy="5115.55" r="157.48" /> 
</g>
<g style="fill:#C2C2C2; fill-opacity:1.0; 
stroke:#C2C2C2; stroke-width:39.3701; stroke-opacity:1; 
stroke-linecap:round; stroke-linejoin:round;">
</g>
<g >
</g>
<g style="fill:#840000; fill-opacity:1.0; 
stroke:#840000; stroke-width:39.3701; stroke-opacity:1; 
stroke-linecap:round; stroke-linejoin:round;">
</g>
<g style="fill:#840000; fill-opacity:1.0; 
stroke:#840000; stroke-width:157.48; stroke-opacity:1; 
stroke-linecap:round; stroke-linejoin:round;">
</g>
<g style="fill:#840000; fill-opacity:0.0; 
stroke:#840000; stroke-width:157.48; stroke-opacity:1; 
stroke-linecap:round; stroke-linejoin:round;">
<path d="M3819 1379
L3734 1465
" />
</g>
<g style="fill:#840000; fill-opacity:0.0; 
stroke:#840000; stroke-width:240.157; stroke-opacity:1; 
stroke-linecap:round; stroke-linejoin:round;">
<path d="M3819 965
L3819 1379
" />
<path d="M6569 715
L4069 715
" />
<path d="M6905 1465
L6905 1051
" />
<path d="M4069 715
L3819 965
" />
<path d="M6905 1051
L6569 715
" />
</g>
<g style="fill:#840000; fill-opacity:0.0; 
stroke:#840000; stroke-width:240; stroke-opacity:1; 
stroke-linecap:round; stroke-linejoin:round;">
<path d="M5919 5955
L6347 5955
" />
<path d="M5559 6315
L5919 5955
" />
<path d="M5269 6315
L5559 6315
" />
<path d="M6905 1465
L6625 1465
" />
<path d="M5001 3833
L5001 6046
" />
<path d="M6625 1465
L6319 1770
" />
<path d="M6319 2965
L6138 3146
" />
<path d="M6319 1770
L6319 2965
" />
<path d="M6138 3146
L5687 3146
" />
<path d="M5001 6046
L5269 6315
" />
<path d="M5687 3146
L5001 3833
" />
<path d="M5539 6335
L5559 6315
" />
<path d="M6039 7965
L5539 7465
" />
<path d="M8543 7965
L6039 7965
" />
<path d="M8819 7215
L8819 7688
" />
<path d="M5539 7465
L5539 6335
" />
<path d="M8819 7688
L8543 7965
" />
<path d="M3879 4955
L4212 4955
" />
<path d="M2549 3625
L3879 4955
" />
<path d="M1819 2215
L2549 2945
" />
<path d="M2549 2945
L2549 3625
" />
<path d="M3859 5455
L4212 5455
" />
<path d="M1819 3215
L1819 3415
" />
<path d="M1819 3415
L3859 5455
" />
<path d="M3619 5955
L4212 5955
" />
<path d="M1819 4215
L1879 4215
" />
<path d="M1879 4215
L3619 5955
" />
<path d="M3379 6455
L4212 6455
" />
<path d="M1819 5215
L2139 5215
" />
<path d="M2139 5215
L3379 6455
" />
<path d="M3329 6955
L4212 6955
" />
<path d="M1819 6215
L2589 6215
" />
<path d="M2589 6215
L3329 6955
" />
<path d="M4202 7465
L4212 7455
" />
<path d="M1819 7215
L2069 7465
" />
<path d="M2069 7465
L4202 7465
" />
<path d="M7579 7455
L6347 7455
" />
<path d="M8819 6215
L7579 7455
" />
<path d="M7139 6955
L6347 6955
" />
<path d="M8819 5215
L8819 5275
" />
<path d="M8819 5275
L7139 6955
" />
<path d="M6689 6455
L6347 6455
" />
<path d="M8819 4215
L8819 4325
" />
<path d="M8819 4325
L6689 6455
" />
<path d="M7079 4955
L6347 4955
" />
<path d="M8819 3215
L7079 4955
" />
<path d="M6779 4455
L6347 4455
" />
<path d="M8819 2215
L8819 2415
" />
<path d="M8819 2415
L6779 4455
" />
<path d="M5734 2465
L5734 1465
" />
<path d="M4905 2465
L4905 1465
" />
<path d="M6357 5465
L6347 5455
" />
<path d="M5319 3965
L5819 3465
" />
<path d="M5819 3465
L7069 3465
" />
<path d="M7069 3465
L7819 2715
" />
<path d="M7819 2715
L7819 2465
" />
<path d="M6905 2465
L7819 2465
" />
<path d="M5319 4865
L5569 5115
" />
<path d="M5319 3965
L5319 4865
" />
<path d="M5909 5455
L6347 5455
" />
<path d="M5569 5115
L5909 5455
" />
<path d="M7819 1965
L7819 2465
" />
<path d="M7819 1715
L7819 1965
" />
<path d="M8819 1215
L8319 1215
" />
<path d="M8319 1215
L7819 1715
" />
</g>
<g style="fill:#840000; fill-opacity:0.0; 
stroke:#840000; stroke-width:240.157; stroke-opacity:1; 
stroke-linecap:round; stroke-linejoin:round;">
<path d="M3069 2465
L3734 2465
" />
<path d="M1819 1215
L3069 2465
" />
</g>
<g style="fill:#840000; fill-opacity:0.0; 
stroke:#840000; stroke-width:196.85; stroke-opacity:1; 
stroke-linecap:round; stroke-linejoin:round;">
<path d="M3719 2479
L3734 2465
" />
</g>
<g style="fill:#840000; fill-opacity:0.0; 
stroke:#840000; stroke-width:240.157; stroke-opacity:1; 
stroke-linecap:round; stroke-linejoin:round;">
<path d="M3719 4265
L3719 2479
" />
<path d="M4212 4455
L3909 4455
" />
<path d="M3909 4455
L3719 4265
" />
</g>
<g >
</g>
</g>
<g style="fill:#FFFFFF; fill-opacity:0.0; 
stroke:#FFFFFF; stroke-width:240.157; stroke-opacity:1; 
stroke-linecap:round; stroke-linejoin:round;">
</g>
<g style="fill:#FFFFFF; fill-opacity:1.0; 
stroke:#FFFFFF; stroke-width:0; stroke-opacity:1; 
stroke-linecap:round; stroke-linejoin:round;">
<circle cx="5559.93" cy="6315.55" r="78.7402" /> 
</g>
<g style="fill:#FFFFFF; fill-opacity:1.0; 
stroke:#FFFFFF; stroke-width:39.3701; stroke-opacity:1; 
stroke-linecap:round; stroke-linejoin:round;">
</g>
<g style="fill:#FFFFFF; fill-opacity:1.0; 
stroke:#FFFFFF; stroke-width:0; stroke-opacity:1; 
stroke-linecap:round; stroke-linejoin:round;">
<circle cx="5569.93" cy="5115.55" r="78.7402" /> 
</g>
<g style="fill:#FFFFFF; fill-opacity:1.0; 
stroke:#FFFFFF; stroke-width:39.3701; stroke-opacity:1; 
stroke-linecap:round; stroke-linejoin:round;">
</g>
<g style="fill:#FFFFFF; fill-opacity:1.0; 
stroke:#FFFFFF; stroke-width:0; stroke-opacity:1; 
stroke-linecap:round; stroke-linejoin:round;">
<circle cx="1819.93" cy="7215.55" r="196.85" /> 
</g>
<g style="fill:#FFFFFF; fill-opacity:1.0; 
stroke:#FFFFFF; stroke-width:39.3701; stroke-opacity:1; 
stroke-linecap:round; stroke-linejoin:round;">
</g>
<g style="fill:#FFFFFF; fill-opacity:1.0; 
stroke:#FFFFFF; stroke-width:0; stroke-opacity:1; 
stroke-linecap:round; stroke-linejoin:round;">
<circle cx="1819.93" cy="6215.55" r="196.85" /> 
</g>
<g style="fill:#FFFFFF; fill-opacity:1.0; 
stroke:#FFFFFF; stroke-width:39.3701; stroke-opacity:1; 
stroke-linecap:round; stroke-linejoin:round;">
</g>
<g style="fill:#FFFFFF; fill-opacity:1.0; 
stroke:#FFFFFF; stroke-width:0; stroke-opacity:1; 
stroke-linecap:round; stroke-linejoin:round;">
<circle cx="1819.93" cy="5215.55" r="196.85" /> 
</g>
<g style="fill:#FFFFFF; fill-opacity:1.0; 
stroke:#FFFFFF; stroke-width:39.3701; stroke-opacity:1; 
stroke-linecap:round; stroke-linejoin:round;">
</g>
<g style="fill:#FFFFFF; fill-opacity:1.0; 
stroke:#FFFFFF; stroke-width:0; stroke-opacity:1; 
stroke-linecap:round; stroke-linejoin:round;">
<circle cx="1819.93" cy="4215.55" r="196.85" /> 
</g>
<g style="fill:#FFFFFF; fill-opacity:1.0; 
stroke:#FFFFFF; stroke-width:39.3701; stroke-opacity:1; 
stroke-linecap:round; stroke-linejoin:round;">
</g>
<g style="fill:#FFFFFF; fill-opacity:1.0; 
stroke:#FFFFFF; stroke-width:0; stroke-opacity:1; 
stroke-linecap:round; stroke-linejoin:round;">
<circle cx="1819.93" cy="3215.55" r="196.85" /> 
</g>
<g style="fill:#FFFFFF; fill-opacity:1.0; 
stroke:#FFFFFF; stroke-width:39.3701; stroke-opacity:1; 
stroke-linecap:round; stroke-linejoin:round;">
</g>
<g style="fill:#FFFFFF; fill-opacity:1.0; 
stroke:#FFFFFF; stroke-width:0; stroke-opacity:1; 
stroke-linecap:round; stroke-linejoin:round;">
<circle cx="1819.93" cy="2215.55" r="196.85" /> 
</g>
<g style="fill:#FFFFFF; fill-opacity:1.0; 
stroke:#FFFFFF; stroke-width:39.3701; stroke-opacity:1; 
stroke-linecap:round; stroke-linejoin:round;">
</g>
<g style="fill:#FFFFFF; fill-opacity:1.0; 
stroke:#FFFFFF; stroke-width:0; stroke-opacity:1; 
stroke-linecap:round; stroke-linejoin:round;">
<circle cx="1819.93" cy="1215.55" r="196.85" /> 
</g>
<g style="fill:#FFFFFF; fill-opacity:1.0; 
stroke:#FFFFFF; stroke-width:39.3701; stroke-opacity:1; 
stroke-linecap:round; stroke-linejoin:round;">
</g>
<g style="fill:#FFFFFF; fill-opacity:1.0; 
stroke:#FFFFFF; stroke-width:0; stroke-opacity:1; 
stroke-linecap:round; stroke-linejoin:round;">
<circle cx="8819.93" cy="7215.55" r="196.85" /> 
</g>
<g style="fill:#FFFFFF; fill-opacity:1.0; 
stroke:#FFFFFF; stroke-width:39.3701; stroke-opacity:1; 
stroke-linecap:round; stroke-linejoin:round;">
</g>
<g style="fill:#FFFFFF; fill-opacity:1.0; 
stroke:#FFFFFF; stroke-width:0; stroke-opacity:1; 
stroke-linecap:round; stroke-linejoin:round;">
<circle cx="8819.93" cy="6215.55" r="196.85" /> 
</g>
<g style="fill:#FFFFFF; fill-opacity:1.0; 
stroke:#FFFFFF; stroke-width:39.3701; stroke-opacity:1; 
stroke-linecap:round; stroke-linejoin:round;">
</g>
<g style="fill:#FFFFFF; fill-opacity:1.0; 
stroke:#FFFFFF; stroke-width:0; stroke-opacity:1; 
stroke-linecap:round; stroke-linejoin:round;">
<circle cx="8819.93" cy="5215.55" r="196.85" /> 
</g>
<g style="fill:#FFFFFF; fill-opacity:1.0; 
stroke:#FFFFFF; stroke-width:39.3701; stroke-opacity:1; 
stroke-linecap:round; stroke-linejoin:round;">
</g>
<g style="fill:#FFFFFF; fill-opacity:1.0; 
stroke:#FFFFFF; stroke-width:0; stroke-opacity:1; 
stroke-linecap:round; stroke-linejoin:round;">
<circle cx="8819.93" cy="4215.55" r="196.85" /> 
</g>
<g style="fill:#FFFFFF; fill-opacity:1.0; 
stroke:#FFFFFF; stroke-width:39.3701; stroke-opacity:1; 
stroke-linecap:round; stroke-linejoin:round;">
</g>
<g style="fill:#FFFFFF; fill-opacity:1.0; 
stroke:#FFFFFF; stroke-width:0; stroke-opacity:1; 
stroke-linecap:round; stroke-linejoin:round;">
<circle cx="8819.93" cy="3215.55" r="196.85" /> 
</g>
<g style="fill:#FFFFFF; fill-opacity:1.0; 
stroke:#FFFFFF; stroke-width:39.3701; stroke-opacity:1; 
stroke-linecap:round; stroke-linejoin:round;">
</g>
<g style="fill:#FFFFFF; fill-opacity:1.0; 
stroke:#FFFFFF; stroke-width:0; stroke-opacity:1; 
stroke-linecap:round; stroke-linejoin:round;">
<circle cx="8819.93" cy="2215.55" r="196.85" /> 
</g>
<g style="fill:#FFFFFF; fill-opacity:1.0; 
stroke:#FFFFFF; stroke-width:39.3701; stroke-opacity:1; 
stroke-linecap:round; stroke-linejoin:round;">
</g>
<g style="fill:#FFFFFF; fill-opacity:1.0; 
stroke:#FFFFFF; stroke-width:0; stroke-opacity:1; 
stroke-linecap:round; stroke-linejoin:round;">
<circle cx="8819.93" cy="1215.55" r="196.85" /> 
</g>
<g style="fill:#FFFFFF; fill-opacity:1.0; 
stroke:#FFFFFF; stroke-width:39.3701; stroke-opacity:1; 
stroke-linecap:round; stroke-linejoin:round;">
</g>
<g style="fill:#000000; fill-opacity:1.0; 
stroke:#000000; stroke-width:39.3701; stroke-opacity:1; 
stroke-linecap:round; stroke-linejoin:round;">
</g> 
</svg>
