<?xml version="1.0" encoding="UTF-8" standalone="no"?>
<svg
   xmlns:dc="http://purl.org/dc/elements/1.1/"
   xmlns:cc="http://creativecommons.org/ns#"
   xmlns:rdf="http://www.w3.org/1999/02/22-rdf-syntax-ns#"
   xmlns:svg="http://www.w3.org/2000/svg"
   xmlns="http://www.w3.org/2000/svg"
   xmlns:sodipodi="http://sodipodi.sourceforge.net/DTD/sodipodi-0.dtd"
   xmlns:inkscape="http://www.inkscape.org/namespaces/inkscape"
   version="1.1"
   width="3.1877cm"
   height="3.65506cm"
   viewBox="0 0 12550 14390 "
   id="svg416"
   sodipodi:docname="001-F_Cu.svg"
   inkscape:version="0.92.3 (2405546, 2018-03-11)">
  <metadata
     id="metadata422">
    <rdf:RDF>
      <cc:Work
         rdf:about="">
        <dc:format>image/svg+xml</dc:format>
        <dc:type
           rdf:resource="http://purl.org/dc/dcmitype/StillImage" />
        <dc:title>SVG Picture created as 001-F_Cu.svg date 2019/12/23 12:22:48 </dc:title>
      </cc:Work>
    </rdf:RDF>
  </metadata>
  <defs
     id="defs420" />
  <sodipodi:namedview
     pagecolor="#ffffff"
     bordercolor="#666666"
     borderopacity="1"
     objecttolerance="10"
     gridtolerance="10"
     guidetolerance="10"
     inkscape:pageopacity="0"
     inkscape:pageshadow="2"
     inkscape:window-width="1920"
     inkscape:window-height="1015"
     id="namedview418"
     showgrid="false"
     inkscape:zoom="2.4159891"
     inkscape:cx="69.130899"
     inkscape:cy="60.71423"
     inkscape:window-x="0"
     inkscape:window-y="41"
     inkscape:window-maximized="1"
     inkscape:current-layer="layer1" />
  <title
     id="title2">SVG Picture created as 001-F_Cu.svg date 2019/12/23 12:22:48 </title>
  <desc
     id="desc4">Picture generated by PCBNEW </desc>
  <g
     style="fill:#000000; fill-opacity:1;stroke:#000000; stroke-opacity:1; stroke-linecap:round; stroke-linejoin:round; "
     transform="translate(0 0) scale(1 1)"
     id="g6" />
  <g
     style="fill:#FFFFFF; fill-opacity:0.0;  stroke:#FFFFFF; stroke-width:196.85; stroke-opacity:1;  stroke-linecap:round; stroke-linejoin:round;"
     id="g290" />
  <g
     style="fill:#FFFFFF; fill-opacity:1.0;  stroke:#FFFFFF; stroke-width:39.3701; stroke-opacity:1;  stroke-linecap:round; stroke-linejoin:round;"
     id="g296" />
  <g
     style="fill:#FFFFFF; fill-opacity:1.0;  stroke:#FFFFFF; stroke-width:39.3701; stroke-opacity:1;  stroke-linecap:round; stroke-linejoin:round;"
     id="g302" />
  <g
     style="fill:#FFFFFF; fill-opacity:1.0;  stroke:#FFFFFF; stroke-width:39.3701; stroke-opacity:1;  stroke-linecap:round; stroke-linejoin:round;"
     id="g308" />
  <g
     style="fill:#FFFFFF; fill-opacity:1.0;  stroke:#FFFFFF; stroke-width:39.3701; stroke-opacity:1;  stroke-linecap:round; stroke-linejoin:round;"
     id="g314" />
  <g
     style="fill:#FFFFFF; fill-opacity:1.0;  stroke:#FFFFFF; stroke-width:39.3701; stroke-opacity:1;  stroke-linecap:round; stroke-linejoin:round;"
     id="g320" />
  <g
     style="fill:#FFFFFF; fill-opacity:1.0;  stroke:#FFFFFF; stroke-width:39.3701; stroke-opacity:1;  stroke-linecap:round; stroke-linejoin:round;"
     id="g326" />
  <g
     style="fill:#FFFFFF; fill-opacity:1.0;  stroke:#FFFFFF; stroke-width:39.3701; stroke-opacity:1;  stroke-linecap:round; stroke-linejoin:round;"
     id="g332" />
  <g
     style="fill:#FFFFFF; fill-opacity:1.0;  stroke:#FFFFFF; stroke-width:39.3701; stroke-opacity:1;  stroke-linecap:round; stroke-linejoin:round;"
     id="g338" />
  <g
     style="fill:#FFFFFF; fill-opacity:1.0;  stroke:#FFFFFF; stroke-width:39.3701; stroke-opacity:1;  stroke-linecap:round; stroke-linejoin:round;"
     id="g344" />
  <g
     style="fill:#FFFFFF; fill-opacity:1.0;  stroke:#FFFFFF; stroke-width:39.3701; stroke-opacity:1;  stroke-linecap:round; stroke-linejoin:round;"
     id="g350" />
  <g
     style="fill:#FFFFFF; fill-opacity:1.0;  stroke:#FFFFFF; stroke-width:39.3701; stroke-opacity:1;  stroke-linecap:round; stroke-linejoin:round;"
     id="g356" />
  <g
     style="fill:#FFFFFF; fill-opacity:1.0;  stroke:#FFFFFF; stroke-width:39.3701; stroke-opacity:1;  stroke-linecap:round; stroke-linejoin:round;"
     id="g362" />
  <g
     style="fill:#FFFFFF; fill-opacity:1.0;  stroke:#FFFFFF; stroke-width:39.3701; stroke-opacity:1;  stroke-linecap:round; stroke-linejoin:round;"
     id="g368" />
  <g
     style="fill:#FFFFFF; fill-opacity:1.0;  stroke:#FFFFFF; stroke-width:39.3701; stroke-opacity:1;  stroke-linecap:round; stroke-linejoin:round;"
     id="g374" />
  <g
     style="fill:#000000; fill-opacity:1.0;  stroke:#000000; stroke-width:39.3701; stroke-opacity:1;  stroke-linecap:round; stroke-linejoin:round;"
     id="g376" />
  <g
     style="fill:#C2C200; fill-opacity:1.0;  stroke:#C2C200; stroke-width:39.3701; stroke-opacity:1;  stroke-linecap:round; stroke-linejoin:round;"
     id="g378" />
  <g
     style="fill:#C2C200; fill-opacity:1.0;  stroke:#C2C200; stroke-width:19.685; stroke-opacity:1;  stroke-linecap:round; stroke-linejoin:round;"
     id="g380" />
  <g
     inkscape:groupmode="layer"
     id="layer1"
     inkscape:label="Base">
    <g
       style="fill:#000000;fill-opacity:0;stroke:#000000;stroke-width:-0.0003937;stroke-linecap:round;stroke-linejoin:round;stroke-opacity:1"
       id="g288"
       transform="translate(-732.96413,-689.84859)">
      <g
         id="g8" />
      <g
         style="fill:#848400;fill-opacity:0;stroke:#848400;stroke-width:-0.0003937;stroke-linecap:round;stroke-linejoin:round;stroke-opacity:1"
         id="g10" />
      <g
         style="fill:#848400;fill-opacity:0;stroke:#848400;stroke-width:669.29101562;stroke-linecap:round;stroke-linejoin:round;stroke-opacity:1"
         id="g24">
        <path
           d="m 3735,10548 v 0"
           id="path12"
           inkscape:connector-curvature="0" />
        <path
           d="m 3735,9548 v 0"
           id="path14"
           inkscape:connector-curvature="0" />
        <path
           d="m 3735,8548 v 0"
           id="path16"
           inkscape:connector-curvature="0" />
        <path
           d="m 3735,7548 v 0"
           id="path18"
           inkscape:connector-curvature="0" />
        <path
           d="m 3735,6548 v 0"
           id="path20"
           inkscape:connector-curvature="0" />
        <path
           d="m 3735,5548 v 0"
           id="path22"
           inkscape:connector-curvature="0" />
      </g>
      <g
         style="fill:#848400;fill-opacity:1;stroke:#848400;stroke-width:0;stroke-linecap:round;stroke-linejoin:round;stroke-opacity:1"
         id="g28">
        <circle
           cx="3735.5601"
           cy="4548.23"
           r="334.646"
           id="circle26" />
      </g>
      <g
         style="fill:#848400;fill-opacity:1;stroke:#848400;stroke-width:39.37009811;stroke-linecap:round;stroke-linejoin:round;stroke-opacity:1"
         id="g30" />
      <g
         id="g32" />
      <g
         style="fill:#848400;fill-opacity:1;stroke:#848400;stroke-width:39.37009811;stroke-linecap:round;stroke-linejoin:round;stroke-opacity:1"
         id="g34" />
      <g
         style="fill:#848400;fill-opacity:1;stroke:#848400;stroke-width:669.29101562;stroke-linecap:round;stroke-linejoin:round;stroke-opacity:1"
         id="g36" />
      <g
         style="fill:#848400;fill-opacity:0;stroke:#848400;stroke-width:669.29101562;stroke-linecap:round;stroke-linejoin:round;stroke-opacity:1"
         id="g50">
        <path
           d="m 10735,10548 v 0"
           id="path38"
           inkscape:connector-curvature="0" />
        <path
           d="m 10735,9548 v 0"
           id="path40"
           inkscape:connector-curvature="0" />
        <path
           d="m 10735,8548 v 0"
           id="path42"
           inkscape:connector-curvature="0" />
        <path
           d="m 10735,7548 v 0"
           id="path44"
           inkscape:connector-curvature="0" />
        <path
           d="m 10735,6548 v 0"
           id="path46"
           inkscape:connector-curvature="0" />
        <path
           d="m 10735,5548 v 0"
           id="path48"
           inkscape:connector-curvature="0" />
      </g>
      <g
         style="fill:#848400;fill-opacity:1;stroke:#848400;stroke-width:0;stroke-linecap:round;stroke-linejoin:round;stroke-opacity:1"
         id="g54">
        <circle
           cx="10735.6"
           cy="4548.23"
           r="334.646"
           id="circle52" />
      </g>
      <g
         style="fill:#848400;fill-opacity:1;stroke:#848400;stroke-width:39.37009811;stroke-linecap:round;stroke-linejoin:round;stroke-opacity:1"
         id="g56" />
      <g
         id="g58" />
      <g
         style="fill:#840000;fill-opacity:1;stroke:#840000;stroke-width:39.37009811;stroke-linecap:round;stroke-linejoin:round;stroke-opacity:1"
         id="g60" />
      <g
         style="fill:#840000;fill-opacity:1;stroke:#840000;stroke-width:0;stroke-linecap:round;stroke-linejoin:round;stroke-opacity:1"
         id="g66">
        <path
           style="fill:#840000;fill-opacity:1;fill-rule:evenodd;stroke:#840000;stroke-width:0;stroke-linecap:round;stroke-linejoin:round;stroke-opacity:1"
           d="m 7841.67,4454.21 9.55,1.42 9.37,2.35 9.1,3.25 8.73,4.13 8.28,4.97 7.76,5.75 7.16,6.49 6.48,7.16 5.76,7.75 4.96,8.29 4.13,8.73 3.26,9.09 2.34,9.37 1.42,9.56 0.48,9.65 v 492.12 l -0.48,9.65 -1.42,9.55 -2.34,9.37 -3.26,9.1 -4.13,8.73 -4.96,8.28 -5.76,7.76 -6.48,7.16 -7.16,6.49 -7.76,5.75 -8.28,4.96 -8.73,4.13 -9.1,3.26 -9.37,2.35 -9.55,1.41 -9.65,0.48 h -364.17 l -9.65,-0.48 -9.55,-1.41 -9.37,-2.35 -9.1,-3.26 -8.73,-4.13 -8.28,-4.96 -7.76,-5.75 -7.16,-6.49 -6.49,-7.16 -5.75,-7.76 -4.97,-8.28 -4.13,-8.73 -3.25,-9.1 -2.35,-9.37 -1.41,-9.55 -0.48,-9.65 v -492.12 l 0.48,-9.65 1.41,-9.56 2.35,-9.37 3.25,-9.09 4.13,-8.73 4.97,-8.29 5.75,-7.75 6.49,-7.16 7.16,-6.49 7.76,-5.75 8.28,-4.97 8.73,-4.13 9.1,-3.25 9.37,-2.35 9.55,-1.42 9.65,-0.47 h 364.17 z"
           id="path62"
           inkscape:connector-curvature="0" />
        <path
           style="fill:#840000;fill-opacity:1;fill-rule:evenodd;stroke:#840000;stroke-width:0;stroke-linecap:round;stroke-linejoin:round;stroke-opacity:1"
           d="m 9012.93,4454.21 9.55,1.42 9.37,2.35 9.1,3.25 8.73,4.13 8.28,4.97 7.76,5.75 7.16,6.49 6.48,7.16 5.76,7.75 4.96,8.29 4.13,8.73 3.26,9.09 2.34,9.37 1.42,9.56 0.48,9.65 v 492.12 l -0.48,9.65 -1.42,9.55 -2.34,9.37 -3.26,9.1 -4.13,8.73 -4.96,8.28 -5.76,7.76 -6.48,7.16 -7.16,6.49 -7.76,5.75 -8.28,4.96 -8.73,4.13 -9.1,3.26 -9.37,2.35 -9.55,1.41 -9.65,0.48 h -364.17 l -9.65,-0.48 -9.55,-1.41 -9.37,-2.35 -9.1,-3.26 -8.73,-4.13 -8.28,-4.96 -7.76,-5.75 -7.16,-6.49 -6.49,-7.16 -5.75,-7.76 -4.97,-8.28 -4.13,-8.73 -3.25,-9.1 -2.35,-9.37 -1.41,-9.55 -0.48,-9.65 v -492.12 l 0.48,-9.65 1.41,-9.56 2.35,-9.37 3.25,-9.09 4.13,-8.73 4.97,-8.29 5.75,-7.75 6.49,-7.16 7.16,-6.49 7.76,-5.75 8.28,-4.97 8.73,-4.13 9.1,-3.25 9.37,-2.35 9.55,-1.42 9.65,-0.47 h 364.17 z"
           id="path64"
           inkscape:connector-curvature="0" />
      </g>
      <g
         id="g68" />
      <g
         style="fill:#840000;fill-opacity:1;stroke:#840000;stroke-width:0;stroke-linecap:round;stroke-linejoin:round;stroke-opacity:1"
         id="g74">
        <path
           style="fill:#840000;fill-opacity:1;fill-rule:evenodd;stroke:#840000;stroke-width:0;stroke-linecap:round;stroke-linejoin:round;stroke-opacity:1"
           d="m 7012.93,4454.21 9.55,1.42 9.37,2.35 9.1,3.25 8.73,4.13 8.28,4.97 7.76,5.75 7.16,6.49 6.48,7.16 5.76,7.75 4.96,8.29 4.13,8.73 3.26,9.09 2.34,9.37 1.42,9.56 0.48,9.65 v 492.12 l -0.48,9.65 -1.42,9.55 -2.34,9.37 -3.26,9.1 -4.13,8.73 -4.96,8.28 -5.76,7.76 -6.48,7.16 -7.16,6.49 -7.76,5.75 -8.28,4.96 -8.73,4.13 -9.1,3.26 -9.37,2.35 -9.55,1.41 -9.65,0.48 h -364.17 l -9.65,-0.48 -9.55,-1.41 -9.37,-2.35 -9.1,-3.26 -8.73,-4.13 -8.28,-4.96 -7.76,-5.75 -7.16,-6.49 -6.49,-7.16 -5.75,-7.76 -4.97,-8.28 -4.13,-8.73 -3.25,-9.1 -2.35,-9.37 -1.41,-9.55 -0.48,-9.65 v -492.12 l 0.48,-9.65 1.41,-9.56 2.35,-9.37 3.25,-9.09 4.13,-8.73 4.97,-8.29 5.75,-7.75 6.49,-7.16 7.16,-6.49 7.76,-5.75 8.28,-4.97 8.73,-4.13 9.1,-3.25 9.37,-2.35 9.55,-1.42 9.65,-0.47 h 364.17 z"
           id="path70"
           inkscape:connector-curvature="0" />
        <path
           style="fill:#840000;fill-opacity:1;fill-rule:evenodd;stroke:#840000;stroke-width:0;stroke-linecap:round;stroke-linejoin:round;stroke-opacity:1"
           d="m 5841.67,4454.21 9.55,1.42 9.37,2.35 9.1,3.25 8.73,4.13 8.28,4.97 7.76,5.75 7.16,6.49 6.48,7.16 5.76,7.75 4.96,8.29 4.13,8.73 3.26,9.09 2.34,9.37 1.42,9.56 0.48,9.65 v 492.12 l -0.48,9.65 -1.42,9.55 -2.34,9.37 -3.26,9.1 -4.13,8.73 -4.96,8.28 -5.76,7.76 -6.48,7.16 -7.16,6.49 -7.76,5.75 -8.28,4.96 -8.73,4.13 -9.1,3.26 -9.37,2.35 -9.55,1.41 -9.65,0.48 h -364.17 l -9.65,-0.48 -9.55,-1.41 -9.37,-2.35 -9.1,-3.26 -8.73,-4.13 -8.28,-4.96 -7.76,-5.75 -7.16,-6.49 -6.49,-7.16 -5.75,-7.76 -4.97,-8.28 -4.13,-8.73 -3.25,-9.1 -2.35,-9.37 -1.41,-9.55 -0.48,-9.65 v -492.12 l 0.48,-9.65 1.41,-9.56 2.35,-9.37 3.25,-9.09 4.13,-8.73 4.97,-8.29 5.75,-7.75 6.49,-7.16 7.16,-6.49 7.76,-5.75 8.28,-4.97 8.73,-4.13 9.1,-3.25 9.37,-2.35 9.55,-1.42 9.65,-0.47 h 364.17 z"
           id="path72"
           inkscape:connector-curvature="0" />
      </g>
      <g
         id="g76" />
      <g
         style="fill:#840000;fill-opacity:1;stroke:#840000;stroke-width:0;stroke-linecap:round;stroke-linejoin:round;stroke-opacity:1"
         id="g82">
        <path
           style="fill:#840000;fill-opacity:1;fill-rule:evenodd;stroke:#840000;stroke-width:0;stroke-linecap:round;stroke-linejoin:round;stroke-opacity:1"
           d="m 7841.67,5454.21 9.55,1.42 9.37,2.35 9.1,3.25 8.73,4.13 8.28,4.97 7.76,5.75 7.16,6.49 6.48,7.16 5.76,7.75 4.96,8.29 4.13,8.73 3.26,9.09 2.34,9.37 1.42,9.56 0.48,9.65 v 492.12 l -0.48,9.65 -1.42,9.55 -2.34,9.37 -3.26,9.1 -4.13,8.73 -4.96,8.28 -5.76,7.76 -6.48,7.16 -7.16,6.49 -7.76,5.75 -8.28,4.96 -8.73,4.13 -9.1,3.26 -9.37,2.35 -9.55,1.41 -9.65,0.48 h -364.17 l -9.65,-0.48 -9.55,-1.41 -9.37,-2.35 -9.1,-3.26 -8.73,-4.13 -8.28,-4.96 -7.76,-5.75 -7.16,-6.49 -6.49,-7.16 -5.75,-7.76 -4.97,-8.28 -4.13,-8.73 -3.25,-9.1 -2.35,-9.37 -1.41,-9.55 -0.48,-9.65 v -492.12 l 0.48,-9.65 1.41,-9.56 2.35,-9.37 3.25,-9.09 4.13,-8.73 4.97,-8.29 5.75,-7.75 6.49,-7.16 7.16,-6.49 7.76,-5.75 8.28,-4.97 8.73,-4.13 9.1,-3.25 9.37,-2.35 9.55,-1.42 9.65,-0.47 h 364.17 z"
           id="path78"
           inkscape:connector-curvature="0" />
        <path
           style="fill:#840000;fill-opacity:1;fill-rule:evenodd;stroke:#840000;stroke-width:0;stroke-linecap:round;stroke-linejoin:round;stroke-opacity:1"
           d="m 9012.93,5454.21 9.55,1.42 9.37,2.35 9.1,3.25 8.73,4.13 8.28,4.97 7.76,5.75 7.16,6.49 6.48,7.16 5.76,7.75 4.96,8.29 4.13,8.73 3.26,9.09 2.34,9.37 1.42,9.56 0.48,9.65 v 492.12 l -0.48,9.65 -1.42,9.55 -2.34,9.37 -3.26,9.1 -4.13,8.73 -4.96,8.28 -5.76,7.76 -6.48,7.16 -7.16,6.49 -7.76,5.75 -8.28,4.96 -8.73,4.13 -9.1,3.26 -9.37,2.35 -9.55,1.41 -9.65,0.48 h -364.17 l -9.65,-0.48 -9.55,-1.41 -9.37,-2.35 -9.1,-3.26 -8.73,-4.13 -8.28,-4.96 -7.76,-5.75 -7.16,-6.49 -6.49,-7.16 -5.75,-7.76 -4.97,-8.28 -4.13,-8.73 -3.25,-9.1 -2.35,-9.37 -1.41,-9.55 -0.48,-9.65 v -492.12 l 0.48,-9.65 1.41,-9.56 2.35,-9.37 3.25,-9.09 4.13,-8.73 4.97,-8.29 5.75,-7.75 6.49,-7.16 7.16,-6.49 7.76,-5.75 8.28,-4.97 8.73,-4.13 9.1,-3.25 9.37,-2.35 9.55,-1.42 9.65,-0.47 h 364.17 z"
           id="path80"
           inkscape:connector-curvature="0" />
      </g>
      <g
         id="g84" />
      <g
         style="fill:#840000;fill-opacity:1;stroke:#840000;stroke-width:0;stroke-linecap:round;stroke-linejoin:round;stroke-opacity:1"
         id="g90">
        <path
           style="fill:#840000;fill-opacity:1;fill-rule:evenodd;stroke:#840000;stroke-width:0;stroke-linecap:round;stroke-linejoin:round;stroke-opacity:1"
           d="m 7012.93,5454.21 9.55,1.42 9.37,2.35 9.1,3.25 8.73,4.13 8.28,4.97 7.76,5.75 7.16,6.49 6.48,7.16 5.76,7.75 4.96,8.29 4.13,8.73 3.26,9.09 2.34,9.37 1.42,9.56 0.48,9.65 v 492.12 l -0.48,9.65 -1.42,9.55 -2.34,9.37 -3.26,9.1 -4.13,8.73 -4.96,8.28 -5.76,7.76 -6.48,7.16 -7.16,6.49 -7.76,5.75 -8.28,4.96 -8.73,4.13 -9.1,3.26 -9.37,2.35 -9.55,1.41 -9.65,0.48 h -364.17 l -9.65,-0.48 -9.55,-1.41 -9.37,-2.35 -9.1,-3.26 -8.73,-4.13 -8.28,-4.96 -7.76,-5.75 -7.16,-6.49 -6.49,-7.16 -5.75,-7.76 -4.97,-8.28 -4.13,-8.73 -3.25,-9.1 -2.35,-9.37 -1.41,-9.55 -0.48,-9.65 v -492.12 l 0.48,-9.65 1.41,-9.56 2.35,-9.37 3.25,-9.09 4.13,-8.73 4.97,-8.29 5.75,-7.75 6.49,-7.16 7.16,-6.49 7.76,-5.75 8.28,-4.97 8.73,-4.13 9.1,-3.25 9.37,-2.35 9.55,-1.42 9.65,-0.47 h 364.17 z"
           id="path86"
           inkscape:connector-curvature="0" />
        <path
           style="fill:#840000;fill-opacity:1;fill-rule:evenodd;stroke:#840000;stroke-width:0;stroke-linecap:round;stroke-linejoin:round;stroke-opacity:1"
           d="m 5841.67,5454.21 9.55,1.42 9.37,2.35 9.1,3.25 8.73,4.13 8.28,4.97 7.76,5.75 7.16,6.49 6.48,7.16 5.76,7.75 4.96,8.29 4.13,8.73 3.26,9.09 2.34,9.37 1.42,9.56 0.48,9.65 v 492.12 l -0.48,9.65 -1.42,9.55 -2.34,9.37 -3.26,9.1 -4.13,8.73 -4.96,8.28 -5.76,7.76 -6.48,7.16 -7.16,6.49 -7.76,5.75 -8.28,4.96 -8.73,4.13 -9.1,3.26 -9.37,2.35 -9.55,1.41 -9.65,0.48 h -364.17 l -9.65,-0.48 -9.55,-1.41 -9.37,-2.35 -9.1,-3.26 -8.73,-4.13 -8.28,-4.96 -7.76,-5.75 -7.16,-6.49 -6.49,-7.16 -5.75,-7.76 -4.97,-8.28 -4.13,-8.73 -3.25,-9.1 -2.35,-9.37 -1.41,-9.55 -0.48,-9.65 v -492.12 l 0.48,-9.65 1.41,-9.56 2.35,-9.37 3.25,-9.09 4.13,-8.73 4.97,-8.29 5.75,-7.75 6.49,-7.16 7.16,-6.49 7.76,-5.75 8.28,-4.97 8.73,-4.13 9.1,-3.25 9.37,-2.35 9.55,-1.42 9.65,-0.47 h 364.17 z"
           id="path88"
           inkscape:connector-curvature="0" />
      </g>
      <g
         id="g92" />
      <g
         style="fill:#840000;fill-opacity:1;stroke:#840000;stroke-width:0;stroke-linecap:round;stroke-linejoin:round;stroke-opacity:1"
         id="g122">
        <path
           style="fill:#840000;fill-opacity:1;fill-rule:evenodd;stroke:#840000;stroke-width:0;stroke-linecap:round;stroke-linejoin:round;stroke-opacity:1"
           d="m 8563.48,7926.02 h -600.4 v -275.59 h 600.4 z"
           id="path94"
           inkscape:connector-curvature="0" />
        <path
           style="fill:#840000;fill-opacity:1;fill-rule:evenodd;stroke:#840000;stroke-width:0;stroke-linecap:round;stroke-linejoin:round;stroke-opacity:1"
           d="m 8563.48,8426.02 h -600.4 v -275.59 h 600.4 z"
           id="path96"
           inkscape:connector-curvature="0" />
        <path
           style="fill:#840000;fill-opacity:1;fill-rule:evenodd;stroke:#840000;stroke-width:0;stroke-linecap:round;stroke-linejoin:round;stroke-opacity:1"
           d="m 8563.48,8926.02 h -600.4 v -275.59 h 600.4 z"
           id="path98"
           inkscape:connector-curvature="0" />
        <path
           style="fill:#840000;fill-opacity:1;fill-rule:evenodd;stroke:#840000;stroke-width:0;stroke-linecap:round;stroke-linejoin:round;stroke-opacity:1"
           d="m 8563.48,9426.02 h -600.4 v -275.59 h 600.4 z"
           id="path100"
           inkscape:connector-curvature="0" />
        <path
           style="fill:#840000;fill-opacity:1;fill-rule:evenodd;stroke:#840000;stroke-width:0;stroke-linecap:round;stroke-linejoin:round;stroke-opacity:1"
           d="m 8563.48,9926.02 h -600.4 v -275.59 h 600.4 z"
           id="path102"
           inkscape:connector-curvature="0" />
        <path
           style="fill:#840000;fill-opacity:1;fill-rule:evenodd;stroke:#840000;stroke-width:0;stroke-linecap:round;stroke-linejoin:round;stroke-opacity:1"
           d="m 8563.48,10426 h -600.4 v -275.6 h 600.4 z"
           id="path104"
           inkscape:connector-curvature="0" />
        <path
           style="fill:#840000;fill-opacity:1;fill-rule:evenodd;stroke:#840000;stroke-width:0;stroke-linecap:round;stroke-linejoin:round;stroke-opacity:1"
           d="m 8563.48,10926 h -600.4 v -275.6 h 600.4 z"
           id="path106"
           inkscape:connector-curvature="0" />
        <path
           style="fill:#840000;fill-opacity:1;fill-rule:evenodd;stroke:#840000;stroke-width:0;stroke-linecap:round;stroke-linejoin:round;stroke-opacity:1"
           d="m 6428.04,10926 h -600.39 v -275.6 h 600.39 z"
           id="path108"
           inkscape:connector-curvature="0" />
        <path
           style="fill:#840000;fill-opacity:1;fill-rule:evenodd;stroke:#840000;stroke-width:0;stroke-linecap:round;stroke-linejoin:round;stroke-opacity:1"
           d="m 6428.04,10426 h -600.39 v -275.6 h 600.39 z"
           id="path110"
           inkscape:connector-curvature="0" />
        <path
           style="fill:#840000;fill-opacity:1;fill-rule:evenodd;stroke:#840000;stroke-width:0;stroke-linecap:round;stroke-linejoin:round;stroke-opacity:1"
           d="m 6428.04,9926.02 h -600.39 v -275.59 h 600.39 z"
           id="path112"
           inkscape:connector-curvature="0" />
        <path
           style="fill:#840000;fill-opacity:1;fill-rule:evenodd;stroke:#840000;stroke-width:0;stroke-linecap:round;stroke-linejoin:round;stroke-opacity:1"
           d="m 6428.04,9426.02 h -600.39 v -275.59 h 600.39 z"
           id="path114"
           inkscape:connector-curvature="0" />
        <path
           style="fill:#840000;fill-opacity:1;fill-rule:evenodd;stroke:#840000;stroke-width:0;stroke-linecap:round;stroke-linejoin:round;stroke-opacity:1"
           d="m 6428.04,8926.02 h -600.39 v -275.59 h 600.39 z"
           id="path116"
           inkscape:connector-curvature="0" />
        <path
           style="fill:#840000;fill-opacity:1;fill-rule:evenodd;stroke:#840000;stroke-width:0;stroke-linecap:round;stroke-linejoin:round;stroke-opacity:1"
           d="m 6428.04,8426.02 h -600.39 v -275.59 h 600.39 z"
           id="path118"
           inkscape:connector-curvature="0" />
        <path
           style="fill:#840000;fill-opacity:1;fill-rule:evenodd;stroke:#840000;stroke-width:0;stroke-linecap:round;stroke-linejoin:round;stroke-opacity:1"
           d="m 6428.04,7926.02 h -600.39 v -275.59 h 600.39 z"
           id="path120"
           inkscape:connector-curvature="0" />
      </g>
      <g
         id="g124" />
      <g
         id="g126" />
      <g
         style="fill:#840000;fill-opacity:1;stroke:#840000;stroke-width:0;stroke-linecap:round;stroke-linejoin:round;stroke-opacity:1"
         id="g128" />
      <g
         style="fill:#840000;fill-opacity:1;stroke:#840000;stroke-width:157.47999573;stroke-linecap:round;stroke-linejoin:round;stroke-opacity:1"
         id="g130" />
      <g
         style="fill:#840000;fill-opacity:0;stroke:#840000;stroke-width:157.47999573;stroke-linecap:round;stroke-linejoin:round;stroke-opacity:1"
         id="g144">
        <path
           d="m 5735,4712 -86,86"
           id="path132"
           inkscape:connector-curvature="0" />
        <path
           d="m 5735,4298 v 414"
           id="path134"
           inkscape:connector-curvature="0" />
        <path
           d="M 8485,4048 H 5985"
           id="path136"
           inkscape:connector-curvature="0" />
        <path
           d="M 8821,4798 V 4383"
           id="path138"
           inkscape:connector-curvature="0" />
        <path
           d="m 5985,4048 -250,250"
           id="path140"
           inkscape:connector-curvature="0" />
        <path
           d="M 8821,4383 8485,4048"
           id="path142"
           inkscape:connector-curvature="0" />
      </g>
      <g
         style="fill:#840000;fill-opacity:0;stroke:#840000;stroke-width:240;stroke-linecap:round;stroke-linejoin:round;stroke-opacity:1"
         id="g270">
        <path
           d="m 10735,11021 -277,277"
           id="path146"
           inkscape:connector-curvature="0" />
        <path
           d="m 10735,10548 v 473"
           id="path148"
           inkscape:connector-curvature="0" />
        <path
           d="M 10458,11298 H 7485"
           id="path150"
           inkscape:connector-curvature="0" />
        <path
           d="m 7485,11298 -250,-250"
           id="path152"
           inkscape:connector-curvature="0" />
        <path
           d="M 7235,11048 V 9548"
           id="path154"
           inkscape:connector-curvature="0" />
        <path
           d="m 7495,9288 h 768"
           id="path156"
           inkscape:connector-curvature="0" />
        <path
           d="m 7235,9548 260,-260"
           id="path158"
           inkscape:connector-curvature="0" />
        <path
           d="m 8540,4798 -305,305"
           id="path160"
           inkscape:connector-curvature="0" />
        <path
           d="M 8821,4798 H 8540"
           id="path162"
           inkscape:connector-curvature="0" />
        <path
           d="m 8235,6298 -181,181"
           id="path164"
           inkscape:connector-curvature="0" />
        <path
           d="M 8235,5103 V 6298"
           id="path166"
           inkscape:connector-curvature="0" />
        <path
           d="m 6916,8709 579,579"
           id="path168"
           inkscape:connector-curvature="0" />
        <path
           d="M 6916,7166 V 8709"
           id="path170"
           inkscape:connector-curvature="0" />
        <path
           d="m 7603,6479 -687,687"
           id="path172"
           inkscape:connector-curvature="0" />
        <path
           d="M 8054,6479 H 7603"
           id="path174"
           inkscape:connector-curvature="0" />
        <path
           d="m 5795,8288 h 332"
           id="path176"
           inkscape:connector-curvature="0" />
        <path
           d="M 4465,6958 5795,8288"
           id="path178"
           inkscape:connector-curvature="0" />
        <path
           d="m 3735,5548 730,730"
           id="path180"
           inkscape:connector-curvature="0" />
        <path
           d="m 4465,6278 v 680"
           id="path182"
           inkscape:connector-curvature="0" />
        <path
           d="m 5775,8788 h 352"
           id="path184"
           inkscape:connector-curvature="0" />
        <path
           d="m 3735,6548 v 200"
           id="path186"
           inkscape:connector-curvature="0" />
        <path
           d="M 3735,6748 5775,8788"
           id="path188"
           inkscape:connector-curvature="0" />
        <path
           d="m 5535,9288 h 592"
           id="path190"
           inkscape:connector-curvature="0" />
        <path
           d="m 3735,7548 h 60"
           id="path192"
           inkscape:connector-curvature="0" />
        <path
           d="M 3795,7548 5535,9288"
           id="path194"
           inkscape:connector-curvature="0" />
        <path
           d="m 5295,9788 h 832"
           id="path196"
           inkscape:connector-curvature="0" />
        <path
           d="m 3735,8548 h 320"
           id="path198"
           inkscape:connector-curvature="0" />
        <path
           d="M 4055,8548 5295,9788"
           id="path200"
           inkscape:connector-curvature="0" />
        <path
           d="m 5245,10288 h 882"
           id="path202"
           inkscape:connector-curvature="0" />
        <path
           d="m 3735,9548 h 770"
           id="path204"
           inkscape:connector-curvature="0" />
        <path
           d="m 4505,9548 740,740"
           id="path206"
           inkscape:connector-curvature="0" />
        <path
           d="m 6117,10798 10,-10"
           id="path208"
           inkscape:connector-curvature="0" />
        <path
           d="m 3735,10548 250,250"
           id="path210"
           inkscape:connector-curvature="0" />
        <path
           d="M 3985,10798 H 6117"
           id="path212"
           inkscape:connector-curvature="0" />
        <path
           d="M 9495,10788 H 8263"
           id="path214"
           inkscape:connector-curvature="0" />
        <path
           d="M 10735,9548 9495,10788"
           id="path216"
           inkscape:connector-curvature="0" />
        <path
           d="M 9055,10288 H 8263"
           id="path218"
           inkscape:connector-curvature="0" />
        <path
           d="m 10735,8548 v 60"
           id="path220"
           inkscape:connector-curvature="0" />
        <path
           d="M 10735,8608 9055,10288"
           id="path222"
           inkscape:connector-curvature="0" />
        <path
           d="M 8605,9788 H 8263"
           id="path224"
           inkscape:connector-curvature="0" />
        <path
           d="m 10735,7548 v 110"
           id="path226"
           inkscape:connector-curvature="0" />
        <path
           d="M 10735,7658 8605,9788"
           id="path228"
           inkscape:connector-curvature="0" />
        <path
           d="M 8995,8288 H 8263"
           id="path230"
           inkscape:connector-curvature="0" />
        <path
           d="M 10735,6548 8995,8288"
           id="path232"
           inkscape:connector-curvature="0" />
        <path
           d="M 8695,7788 H 8263"
           id="path234"
           inkscape:connector-curvature="0" />
        <path
           d="m 10735,5548 v 200"
           id="path236"
           inkscape:connector-curvature="0" />
        <path
           d="M 10735,5748 8695,7788"
           id="path238"
           inkscape:connector-curvature="0" />
        <path
           d="M 7649,5798 V 4798"
           id="path240"
           inkscape:connector-curvature="0" />
        <path
           d="M 6821,5798 V 4798"
           id="path242"
           inkscape:connector-curvature="0" />
        <path
           d="m 8273,8798 -10,-10"
           id="path244"
           inkscape:connector-curvature="0" />
        <path
           d="M 7723,8788 7235,8300"
           id="path246"
           inkscape:connector-curvature="0" />
        <path
           d="M 8263,8788 H 7723"
           id="path248"
           inkscape:connector-curvature="0" />
        <path
           d="M 7235,8300 V 7298"
           id="path250"
           inkscape:connector-curvature="0" />
        <path
           d="m 7235,7298 500,-500"
           id="path252"
           inkscape:connector-curvature="0" />
        <path
           d="M 7735,6798 H 8985"
           id="path254"
           inkscape:connector-curvature="0" />
        <path
           d="m 8985,6798 750,-750"
           id="path256"
           inkscape:connector-curvature="0" />
        <path
           d="M 9735,6048 V 5798"
           id="path258"
           inkscape:connector-curvature="0" />
        <path
           d="m 9735,5048 v 250"
           id="path260"
           inkscape:connector-curvature="0" />
        <path
           d="m 9735,5298 v 500"
           id="path262"
           inkscape:connector-curvature="0" />
        <path
           d="m 10735,4548 h -500"
           id="path264"
           inkscape:connector-curvature="0" />
        <path
           d="m 10235,4548 -500,500"
           id="path266"
           inkscape:connector-curvature="0" />
        <path
           d="m 8821,5798 h 914"
           id="path268"
           inkscape:connector-curvature="0" />
      </g>
      <g
         style="fill:#840000;fill-opacity:0;stroke:#840000;stroke-width:196.8500061;stroke-linecap:round;stroke-linejoin:round;stroke-opacity:1"
         id="g284">
        <path
           d="m 4985,5798 h 664"
           id="path272"
           inkscape:connector-curvature="0" />
        <path
           d="M 3735,4548 4985,5798"
           id="path274"
           inkscape:connector-curvature="0" />
        <path
           d="m 5635,5812 14,-14"
           id="path276"
           inkscape:connector-curvature="0" />
        <path
           d="M 5635,7598 V 5812"
           id="path278"
           inkscape:connector-curvature="0" />
        <path
           d="M 6127,7788 H 5825"
           id="path280"
           inkscape:connector-curvature="0" />
        <path
           d="M 5825,7788 5635,7598"
           id="path282"
           inkscape:connector-curvature="0" />
      </g>
      <g
         id="g286" />
    </g>
    <g
       style="fill:#ffffff;fill-opacity:1;stroke:#ffffff;stroke-width:0;stroke-linecap:round;stroke-linejoin:round;stroke-opacity:1"
       id="g294"
       transform="translate(-732.96413,-689.84859)">
      <circle
         cx="3735.5601"
         cy="10548.2"
         r="196.85001"
         id="circle292" />
    </g>
    <g
       style="fill:#ffffff;fill-opacity:1;stroke:#ffffff;stroke-width:0;stroke-linecap:round;stroke-linejoin:round;stroke-opacity:1"
       id="g300"
       transform="translate(-732.96413,-689.84859)">
      <circle
         cx="3735.5601"
         cy="9548.2305"
         r="196.85001"
         id="circle298" />
    </g>
    <g
       style="fill:#ffffff;fill-opacity:1;stroke:#ffffff;stroke-width:0;stroke-linecap:round;stroke-linejoin:round;stroke-opacity:1"
       id="g306"
       transform="translate(-732.96413,-689.84859)">
      <circle
         cx="3735.5601"
         cy="8548.2305"
         r="196.85001"
         id="circle304" />
    </g>
    <g
       style="fill:#ffffff;fill-opacity:1;stroke:#ffffff;stroke-width:0;stroke-linecap:round;stroke-linejoin:round;stroke-opacity:1"
       id="g312"
       transform="translate(-732.96413,-689.84859)">
      <circle
         cx="3735.5601"
         cy="7548.23"
         r="196.85001"
         id="circle310" />
    </g>
    <g
       style="fill:#ffffff;fill-opacity:1;stroke:#ffffff;stroke-width:0;stroke-linecap:round;stroke-linejoin:round;stroke-opacity:1"
       id="g318"
       transform="translate(-732.96413,-689.84859)">
      <circle
         cx="3735.5601"
         cy="6548.23"
         r="196.85001"
         id="circle316" />
    </g>
    <g
       style="fill:#ffffff;fill-opacity:1;stroke:#ffffff;stroke-width:0;stroke-linecap:round;stroke-linejoin:round;stroke-opacity:1"
       id="g324"
       transform="translate(-732.96413,-689.84859)">
      <circle
         cx="3735.5601"
         cy="5548.23"
         r="196.85001"
         id="circle322" />
    </g>
    <g
       style="fill:#ffffff;fill-opacity:1;stroke:#ffffff;stroke-width:0;stroke-linecap:round;stroke-linejoin:round;stroke-opacity:1"
       id="g330"
       transform="translate(-732.96413,-689.84859)">
      <circle
         cx="3735.5601"
         cy="4548.23"
         r="196.85001"
         id="circle328" />
    </g>
    <g
       style="fill:#ffffff;fill-opacity:1;stroke:#ffffff;stroke-width:0;stroke-linecap:round;stroke-linejoin:round;stroke-opacity:1"
       id="g336"
       transform="translate(-732.96413,-689.84859)">
      <circle
         cx="10735.6"
         cy="10548.2"
         r="196.85001"
         id="circle334" />
    </g>
    <g
       style="fill:#ffffff;fill-opacity:1;stroke:#ffffff;stroke-width:0;stroke-linecap:round;stroke-linejoin:round;stroke-opacity:1"
       id="g342"
       transform="translate(-732.96413,-689.84859)">
      <circle
         cx="10735.6"
         cy="9548.2305"
         r="196.85001"
         id="circle340" />
    </g>
    <g
       style="fill:#ffffff;fill-opacity:1;stroke:#ffffff;stroke-width:0;stroke-linecap:round;stroke-linejoin:round;stroke-opacity:1"
       id="g348"
       transform="translate(-732.96413,-689.84859)">
      <circle
         cx="10735.6"
         cy="8548.2305"
         r="196.85001"
         id="circle346" />
    </g>
    <g
       style="fill:#ffffff;fill-opacity:1;stroke:#ffffff;stroke-width:0;stroke-linecap:round;stroke-linejoin:round;stroke-opacity:1"
       id="g354"
       transform="translate(-732.96413,-689.84859)">
      <circle
         cx="10735.6"
         cy="7548.23"
         r="196.85001"
         id="circle352" />
    </g>
    <g
       style="fill:#ffffff;fill-opacity:1;stroke:#ffffff;stroke-width:0;stroke-linecap:round;stroke-linejoin:round;stroke-opacity:1"
       id="g360"
       transform="translate(-732.96413,-689.84859)">
      <circle
         cx="10735.6"
         cy="6548.23"
         r="196.85001"
         id="circle358" />
    </g>
    <g
       style="fill:#ffffff;fill-opacity:1;stroke:#ffffff;stroke-width:0;stroke-linecap:round;stroke-linejoin:round;stroke-opacity:1"
       id="g366"
       transform="translate(-732.96413,-689.84859)">
      <circle
         cx="10735.6"
         cy="5548.23"
         r="196.85001"
         id="circle364" />
    </g>
    <g
       style="fill:#ffffff;fill-opacity:1;stroke:#ffffff;stroke-width:0;stroke-linecap:round;stroke-linejoin:round;stroke-opacity:1"
       id="g372"
       transform="translate(-732.96413,-689.84859)">
      <circle
         cx="10735.6"
         cy="4548.23"
         r="196.85001"
         id="circle370" />
    </g>
    <g
       style="fill:#c2c200;fill-opacity:0;stroke:#c2c200;stroke-width:19.68499947;stroke-linecap:round;stroke-linejoin:round;stroke-opacity:1"
       id="g414"
       transform="translate(-732.96413,-689.84859)">
      <path
         d="m 3985,3798 h 6500"
         id="path382"
         inkscape:connector-curvature="0" />
      <path
         d="M 3235,10798 V 4548"
         id="path384"
         inkscape:connector-curvature="0" />
      <path
         d="M 10485,11548 H 3985"
         id="path386"
         inkscape:connector-curvature="0" />
      <path
         d="m 11235,4548 v 6250"
         id="path388"
         inkscape:connector-curvature="0" />
      <path
         d="m 3235.56,10798.2 a 750,750 0 0 0 750,750"
         id="path390"
         inkscape:connector-curvature="0" />
      <path
         d="m 10485.6,11548.2 a 750,750 0 0 0 750,-750"
         id="path392"
         inkscape:connector-curvature="0" />
      <path
         d="m 11235.6,4548.23 a 750,750 0 0 0 -750,-750"
         id="path394"
         inkscape:connector-curvature="0" />
      <path
         d="m 3985.56,3798.23 a 750,750 0 0 0 -750,750"
         id="path396"
         inkscape:connector-curvature="0" />
      <g
         id="g398" />
      <g
         id="g400" />
      <g
         id="g402" />
      <g
         id="g404" />
      <g
         id="g406" />
      <g
         id="g408" />
      <g
         id="g410" />
      <g
         id="g412" />
    </g>
  </g>
</svg>
