G04 #@! TF.GenerationSoftware,KiCad,Pcbnew,5.1.5-52549c5~84~ubuntu18.04.1*
G04 #@! TF.CreationDate,2019-12-20T17:19:42-07:00*
G04 #@! TF.ProjectId,Tiny,54696e79-2e6b-4696-9361-645f70636258,rev?*
G04 #@! TF.SameCoordinates,Original*
G04 #@! TF.FileFunction,Copper,L1,Top*
G04 #@! TF.FilePolarity,Positive*
%FSLAX46Y46*%
G04 Gerber Fmt 4.6, Leading zero omitted, Abs format (unit mm)*
G04 Created by KiCad (PCBNEW 5.1.5-52549c5~84~ubuntu18.04.1) date 2019-12-20 17:19:42*
%MOMM*%
%LPD*%
G04 APERTURE LIST*
%ADD10C,0.010000*%
G04 APERTURE END LIST*
D10*
G36*
X159130538Y-65586497D02*
G01*
X159162750Y-65586573D01*
X159372660Y-65587604D01*
X159543898Y-65589792D01*
X159680121Y-65593475D01*
X159784982Y-65598987D01*
X159862136Y-65606666D01*
X159915238Y-65616846D01*
X159947942Y-65629865D01*
X159963902Y-65646057D01*
X159967083Y-65660523D01*
X159966235Y-65668184D01*
X159961266Y-65675194D01*
X159948540Y-65682258D01*
X159924421Y-65690077D01*
X159885271Y-65699354D01*
X159827454Y-65710793D01*
X159747334Y-65725096D01*
X159641273Y-65742967D01*
X159505637Y-65765107D01*
X159336787Y-65792221D01*
X159131088Y-65825011D01*
X159046333Y-65838496D01*
X158810321Y-65878240D01*
X158610115Y-65917074D01*
X158439263Y-65956608D01*
X158291314Y-65998455D01*
X158159816Y-66044226D01*
X158064452Y-66083715D01*
X157821982Y-66209459D01*
X157584315Y-66367007D01*
X157360587Y-66548854D01*
X157159937Y-66747497D01*
X156991503Y-66955431D01*
X156975919Y-66977700D01*
X156867121Y-67153924D01*
X156760908Y-67359680D01*
X156662572Y-67582257D01*
X156577402Y-67808938D01*
X156510691Y-68027011D01*
X156475319Y-68180592D01*
X156459734Y-68267656D01*
X156453192Y-68324413D01*
X156455742Y-68361927D01*
X156467431Y-68391258D01*
X156476312Y-68405693D01*
X156528413Y-68454834D01*
X156620230Y-68505902D01*
X156749230Y-68558126D01*
X156912884Y-68610737D01*
X157108658Y-68662965D01*
X157334022Y-68714039D01*
X157586444Y-68763189D01*
X157737826Y-68789445D01*
X157933645Y-68820927D01*
X158122788Y-68848842D01*
X158310748Y-68873706D01*
X158503015Y-68896033D01*
X158705083Y-68916338D01*
X158922442Y-68935137D01*
X159160585Y-68952944D01*
X159425005Y-68970274D01*
X159721192Y-68987643D01*
X160027001Y-69004127D01*
X160161936Y-69011835D01*
X160284610Y-69020103D01*
X160387948Y-69028352D01*
X160464877Y-69036004D01*
X160508321Y-69042482D01*
X160513050Y-69043824D01*
X160544787Y-69057972D01*
X160537783Y-69070860D01*
X160516632Y-69082707D01*
X160480837Y-69093358D01*
X160412145Y-69106868D01*
X160319761Y-69121654D01*
X160212888Y-69136133D01*
X160189333Y-69139002D01*
X160067599Y-69153732D01*
X159945715Y-69168824D01*
X159837609Y-69182534D01*
X159757212Y-69193117D01*
X159755417Y-69193362D01*
X159679053Y-69200287D01*
X159570263Y-69205462D01*
X159438918Y-69208802D01*
X159294891Y-69210222D01*
X159148057Y-69209636D01*
X159008288Y-69206959D01*
X158885457Y-69202107D01*
X158866417Y-69201027D01*
X158589964Y-69183847D01*
X158350375Y-69167423D01*
X158142205Y-69151085D01*
X157960008Y-69134164D01*
X157798338Y-69115988D01*
X157651750Y-69095887D01*
X157514799Y-69073191D01*
X157382039Y-69047231D01*
X157248024Y-69017334D01*
X157120167Y-68986087D01*
X156960206Y-68946359D01*
X156782408Y-68903286D01*
X156602778Y-68860679D01*
X156437324Y-68822348D01*
X156341847Y-68800839D01*
X155976277Y-68719797D01*
X155989318Y-68528190D01*
X156012803Y-68311968D01*
X156053555Y-68077864D01*
X156108545Y-67837576D01*
X156174743Y-67602802D01*
X156249121Y-67385240D01*
X156328649Y-67196590D01*
X156340385Y-67172417D01*
X156460227Y-66967809D01*
X156616065Y-66760908D01*
X156802193Y-66556676D01*
X157012900Y-66360077D01*
X157242477Y-66176072D01*
X157485215Y-66009624D01*
X157735405Y-65865697D01*
X157969036Y-65756705D01*
X158079548Y-65711730D01*
X158174406Y-65675377D01*
X158259951Y-65646742D01*
X158342522Y-65624922D01*
X158428459Y-65609012D01*
X158524103Y-65598109D01*
X158635792Y-65591310D01*
X158769868Y-65587710D01*
X158932670Y-65586407D01*
X159130538Y-65586497D01*
G37*
X159130538Y-65586497D02*
X159162750Y-65586573D01*
X159372660Y-65587604D01*
X159543898Y-65589792D01*
X159680121Y-65593475D01*
X159784982Y-65598987D01*
X159862136Y-65606666D01*
X159915238Y-65616846D01*
X159947942Y-65629865D01*
X159963902Y-65646057D01*
X159967083Y-65660523D01*
X159966235Y-65668184D01*
X159961266Y-65675194D01*
X159948540Y-65682258D01*
X159924421Y-65690077D01*
X159885271Y-65699354D01*
X159827454Y-65710793D01*
X159747334Y-65725096D01*
X159641273Y-65742967D01*
X159505637Y-65765107D01*
X159336787Y-65792221D01*
X159131088Y-65825011D01*
X159046333Y-65838496D01*
X158810321Y-65878240D01*
X158610115Y-65917074D01*
X158439263Y-65956608D01*
X158291314Y-65998455D01*
X158159816Y-66044226D01*
X158064452Y-66083715D01*
X157821982Y-66209459D01*
X157584315Y-66367007D01*
X157360587Y-66548854D01*
X157159937Y-66747497D01*
X156991503Y-66955431D01*
X156975919Y-66977700D01*
X156867121Y-67153924D01*
X156760908Y-67359680D01*
X156662572Y-67582257D01*
X156577402Y-67808938D01*
X156510691Y-68027011D01*
X156475319Y-68180592D01*
X156459734Y-68267656D01*
X156453192Y-68324413D01*
X156455742Y-68361927D01*
X156467431Y-68391258D01*
X156476312Y-68405693D01*
X156528413Y-68454834D01*
X156620230Y-68505902D01*
X156749230Y-68558126D01*
X156912884Y-68610737D01*
X157108658Y-68662965D01*
X157334022Y-68714039D01*
X157586444Y-68763189D01*
X157737826Y-68789445D01*
X157933645Y-68820927D01*
X158122788Y-68848842D01*
X158310748Y-68873706D01*
X158503015Y-68896033D01*
X158705083Y-68916338D01*
X158922442Y-68935137D01*
X159160585Y-68952944D01*
X159425005Y-68970274D01*
X159721192Y-68987643D01*
X160027001Y-69004127D01*
X160161936Y-69011835D01*
X160284610Y-69020103D01*
X160387948Y-69028352D01*
X160464877Y-69036004D01*
X160508321Y-69042482D01*
X160513050Y-69043824D01*
X160544787Y-69057972D01*
X160537783Y-69070860D01*
X160516632Y-69082707D01*
X160480837Y-69093358D01*
X160412145Y-69106868D01*
X160319761Y-69121654D01*
X160212888Y-69136133D01*
X160189333Y-69139002D01*
X160067599Y-69153732D01*
X159945715Y-69168824D01*
X159837609Y-69182534D01*
X159757212Y-69193117D01*
X159755417Y-69193362D01*
X159679053Y-69200287D01*
X159570263Y-69205462D01*
X159438918Y-69208802D01*
X159294891Y-69210222D01*
X159148057Y-69209636D01*
X159008288Y-69206959D01*
X158885457Y-69202107D01*
X158866417Y-69201027D01*
X158589964Y-69183847D01*
X158350375Y-69167423D01*
X158142205Y-69151085D01*
X157960008Y-69134164D01*
X157798338Y-69115988D01*
X157651750Y-69095887D01*
X157514799Y-69073191D01*
X157382039Y-69047231D01*
X157248024Y-69017334D01*
X157120167Y-68986087D01*
X156960206Y-68946359D01*
X156782408Y-68903286D01*
X156602778Y-68860679D01*
X156437324Y-68822348D01*
X156341847Y-68800839D01*
X155976277Y-68719797D01*
X155989318Y-68528190D01*
X156012803Y-68311968D01*
X156053555Y-68077864D01*
X156108545Y-67837576D01*
X156174743Y-67602802D01*
X156249121Y-67385240D01*
X156328649Y-67196590D01*
X156340385Y-67172417D01*
X156460227Y-66967809D01*
X156616065Y-66760908D01*
X156802193Y-66556676D01*
X157012900Y-66360077D01*
X157242477Y-66176072D01*
X157485215Y-66009624D01*
X157735405Y-65865697D01*
X157969036Y-65756705D01*
X158079548Y-65711730D01*
X158174406Y-65675377D01*
X158259951Y-65646742D01*
X158342522Y-65624922D01*
X158428459Y-65609012D01*
X158524103Y-65598109D01*
X158635792Y-65591310D01*
X158769868Y-65587710D01*
X158932670Y-65586407D01*
X159130538Y-65586497D01*
G36*
X163765108Y-70048563D02*
G01*
X163787474Y-70056719D01*
X163787667Y-70057891D01*
X163772187Y-70084720D01*
X163731220Y-70129946D01*
X163672973Y-70186338D01*
X163605650Y-70246665D01*
X163537460Y-70303694D01*
X163476609Y-70350195D01*
X163431302Y-70378936D01*
X163417170Y-70384362D01*
X163350429Y-70376783D01*
X163310711Y-70353663D01*
X163273321Y-70309848D01*
X163258500Y-70265174D01*
X163276568Y-70214212D01*
X163323555Y-70159356D01*
X163388635Y-70111285D01*
X163438417Y-70087662D01*
X163494935Y-70072385D01*
X163567103Y-70059879D01*
X163643682Y-70051101D01*
X163713430Y-70047009D01*
X163765108Y-70048563D01*
G37*
X163765108Y-70048563D02*
X163787474Y-70056719D01*
X163787667Y-70057891D01*
X163772187Y-70084720D01*
X163731220Y-70129946D01*
X163672973Y-70186338D01*
X163605650Y-70246665D01*
X163537460Y-70303694D01*
X163476609Y-70350195D01*
X163431302Y-70378936D01*
X163417170Y-70384362D01*
X163350429Y-70376783D01*
X163310711Y-70353663D01*
X163273321Y-70309848D01*
X163258500Y-70265174D01*
X163276568Y-70214212D01*
X163323555Y-70159356D01*
X163388635Y-70111285D01*
X163438417Y-70087662D01*
X163494935Y-70072385D01*
X163567103Y-70059879D01*
X163643682Y-70051101D01*
X163713430Y-70047009D01*
X163765108Y-70048563D01*
G36*
X150353076Y-70304153D02*
G01*
X150443878Y-70326083D01*
X150487094Y-70347224D01*
X150529564Y-70385169D01*
X150530803Y-70415945D01*
X150491342Y-70439318D01*
X150411713Y-70455055D01*
X150292446Y-70462921D01*
X150222501Y-70463833D01*
X150112029Y-70461570D01*
X150036729Y-70454187D01*
X149989649Y-70440791D01*
X149975170Y-70432069D01*
X149948374Y-70407991D01*
X149951048Y-70388414D01*
X149982620Y-70359146D01*
X150049046Y-70324635D01*
X150142023Y-70303752D01*
X150247912Y-70296817D01*
X150353076Y-70304153D01*
G37*
X150353076Y-70304153D02*
X150443878Y-70326083D01*
X150487094Y-70347224D01*
X150529564Y-70385169D01*
X150530803Y-70415945D01*
X150491342Y-70439318D01*
X150411713Y-70455055D01*
X150292446Y-70462921D01*
X150222501Y-70463833D01*
X150112029Y-70461570D01*
X150036729Y-70454187D01*
X149989649Y-70440791D01*
X149975170Y-70432069D01*
X149948374Y-70407991D01*
X149951048Y-70388414D01*
X149982620Y-70359146D01*
X150049046Y-70324635D01*
X150142023Y-70303752D01*
X150247912Y-70296817D01*
X150353076Y-70304153D01*
G36*
X154862531Y-66202451D02*
G01*
X155018284Y-66226346D01*
X155161107Y-66266862D01*
X155300473Y-66326522D01*
X155445858Y-66407852D01*
X155565247Y-66485060D01*
X155664717Y-66557484D01*
X155769377Y-66642689D01*
X155871601Y-66733538D01*
X155963764Y-66822896D01*
X156038239Y-66903626D01*
X156087402Y-66968591D01*
X156093912Y-66979779D01*
X156133491Y-67053273D01*
X155990283Y-67508463D01*
X155946349Y-67650980D01*
X155905115Y-67790079D01*
X155868988Y-67917216D01*
X155840379Y-68023849D01*
X155821697Y-68101434D01*
X155818276Y-68118368D01*
X155798163Y-68227385D01*
X155781882Y-68297987D01*
X155763403Y-68332929D01*
X155736699Y-68334965D01*
X155695739Y-68306849D01*
X155634497Y-68251335D01*
X155599096Y-68218502D01*
X155427601Y-68079694D01*
X155253926Y-67979940D01*
X155070694Y-67916282D01*
X154870530Y-67885762D01*
X154760083Y-67882002D01*
X154550038Y-67896101D01*
X154364805Y-67940480D01*
X154196723Y-68018260D01*
X154038129Y-68132564D01*
X153953745Y-68210564D01*
X153817194Y-68371493D01*
X153710749Y-68550108D01*
X153636289Y-68739985D01*
X153595694Y-68934705D01*
X153590844Y-69127845D01*
X153623620Y-69312984D01*
X153627354Y-69325422D01*
X153702335Y-69501450D01*
X153813295Y-69669453D01*
X153953891Y-69822314D01*
X154117780Y-69952914D01*
X154260991Y-70036382D01*
X154335554Y-70071767D01*
X154396315Y-70094923D01*
X154456960Y-70108898D01*
X154531170Y-70116740D01*
X154632631Y-70121496D01*
X154645079Y-70121929D01*
X154839570Y-70120644D01*
X155004025Y-70099931D01*
X155147615Y-70056333D01*
X155279511Y-69986389D01*
X155408881Y-69886642D01*
X155501008Y-69799099D01*
X155613282Y-69676258D01*
X155701217Y-69555980D01*
X155772653Y-69425135D01*
X155835426Y-69270595D01*
X155860747Y-69196519D01*
X155900009Y-69086209D01*
X155936074Y-69011753D01*
X155974376Y-68967560D01*
X156020351Y-68948038D01*
X156079434Y-68947598D01*
X156100133Y-68950292D01*
X156187889Y-68968521D01*
X156275634Y-68995145D01*
X156352601Y-69025939D01*
X156408025Y-69056676D01*
X156430268Y-69079885D01*
X156436218Y-69116544D01*
X156428380Y-69167105D01*
X156404812Y-69237802D01*
X156363573Y-69334864D01*
X156324795Y-69418371D01*
X156176407Y-69692262D01*
X156003886Y-69941924D01*
X155810460Y-70164533D01*
X155599357Y-70357267D01*
X155373804Y-70517302D01*
X155137030Y-70641817D01*
X154892263Y-70727988D01*
X154803078Y-70749025D01*
X154721415Y-70761984D01*
X154614148Y-70773669D01*
X154491662Y-70783525D01*
X154364338Y-70790998D01*
X154242559Y-70795536D01*
X154136710Y-70796583D01*
X154057171Y-70793586D01*
X154029833Y-70790278D01*
X153808759Y-70730880D01*
X153586384Y-70634111D01*
X153368197Y-70504382D01*
X153159689Y-70346106D01*
X152966347Y-70163697D01*
X152793663Y-69961568D01*
X152647125Y-69744131D01*
X152583717Y-69627750D01*
X152502346Y-69427332D01*
X152441585Y-69193664D01*
X152402055Y-68930809D01*
X152384379Y-68642835D01*
X152388357Y-68350488D01*
X152401181Y-68161422D01*
X152422084Y-68001437D01*
X152454265Y-67857565D01*
X152500923Y-67716836D01*
X152565256Y-67566281D01*
X152599412Y-67494755D01*
X152756699Y-67204567D01*
X152926064Y-66953813D01*
X153109280Y-66740863D01*
X153308119Y-66564090D01*
X153524354Y-66421868D01*
X153759759Y-66312567D01*
X153955750Y-66249670D01*
X154044551Y-66229482D01*
X154142914Y-66214600D01*
X154260488Y-66203998D01*
X154406922Y-66196646D01*
X154474333Y-66194427D01*
X154684372Y-66192653D01*
X154862531Y-66202451D01*
G37*
X154862531Y-66202451D02*
X155018284Y-66226346D01*
X155161107Y-66266862D01*
X155300473Y-66326522D01*
X155445858Y-66407852D01*
X155565247Y-66485060D01*
X155664717Y-66557484D01*
X155769377Y-66642689D01*
X155871601Y-66733538D01*
X155963764Y-66822896D01*
X156038239Y-66903626D01*
X156087402Y-66968591D01*
X156093912Y-66979779D01*
X156133491Y-67053273D01*
X155990283Y-67508463D01*
X155946349Y-67650980D01*
X155905115Y-67790079D01*
X155868988Y-67917216D01*
X155840379Y-68023849D01*
X155821697Y-68101434D01*
X155818276Y-68118368D01*
X155798163Y-68227385D01*
X155781882Y-68297987D01*
X155763403Y-68332929D01*
X155736699Y-68334965D01*
X155695739Y-68306849D01*
X155634497Y-68251335D01*
X155599096Y-68218502D01*
X155427601Y-68079694D01*
X155253926Y-67979940D01*
X155070694Y-67916282D01*
X154870530Y-67885762D01*
X154760083Y-67882002D01*
X154550038Y-67896101D01*
X154364805Y-67940480D01*
X154196723Y-68018260D01*
X154038129Y-68132564D01*
X153953745Y-68210564D01*
X153817194Y-68371493D01*
X153710749Y-68550108D01*
X153636289Y-68739985D01*
X153595694Y-68934705D01*
X153590844Y-69127845D01*
X153623620Y-69312984D01*
X153627354Y-69325422D01*
X153702335Y-69501450D01*
X153813295Y-69669453D01*
X153953891Y-69822314D01*
X154117780Y-69952914D01*
X154260991Y-70036382D01*
X154335554Y-70071767D01*
X154396315Y-70094923D01*
X154456960Y-70108898D01*
X154531170Y-70116740D01*
X154632631Y-70121496D01*
X154645079Y-70121929D01*
X154839570Y-70120644D01*
X155004025Y-70099931D01*
X155147615Y-70056333D01*
X155279511Y-69986389D01*
X155408881Y-69886642D01*
X155501008Y-69799099D01*
X155613282Y-69676258D01*
X155701217Y-69555980D01*
X155772653Y-69425135D01*
X155835426Y-69270595D01*
X155860747Y-69196519D01*
X155900009Y-69086209D01*
X155936074Y-69011753D01*
X155974376Y-68967560D01*
X156020351Y-68948038D01*
X156079434Y-68947598D01*
X156100133Y-68950292D01*
X156187889Y-68968521D01*
X156275634Y-68995145D01*
X156352601Y-69025939D01*
X156408025Y-69056676D01*
X156430268Y-69079885D01*
X156436218Y-69116544D01*
X156428380Y-69167105D01*
X156404812Y-69237802D01*
X156363573Y-69334864D01*
X156324795Y-69418371D01*
X156176407Y-69692262D01*
X156003886Y-69941924D01*
X155810460Y-70164533D01*
X155599357Y-70357267D01*
X155373804Y-70517302D01*
X155137030Y-70641817D01*
X154892263Y-70727988D01*
X154803078Y-70749025D01*
X154721415Y-70761984D01*
X154614148Y-70773669D01*
X154491662Y-70783525D01*
X154364338Y-70790998D01*
X154242559Y-70795536D01*
X154136710Y-70796583D01*
X154057171Y-70793586D01*
X154029833Y-70790278D01*
X153808759Y-70730880D01*
X153586384Y-70634111D01*
X153368197Y-70504382D01*
X153159689Y-70346106D01*
X152966347Y-70163697D01*
X152793663Y-69961568D01*
X152647125Y-69744131D01*
X152583717Y-69627750D01*
X152502346Y-69427332D01*
X152441585Y-69193664D01*
X152402055Y-68930809D01*
X152384379Y-68642835D01*
X152388357Y-68350488D01*
X152401181Y-68161422D01*
X152422084Y-68001437D01*
X152454265Y-67857565D01*
X152500923Y-67716836D01*
X152565256Y-67566281D01*
X152599412Y-67494755D01*
X152756699Y-67204567D01*
X152926064Y-66953813D01*
X153109280Y-66740863D01*
X153308119Y-66564090D01*
X153524354Y-66421868D01*
X153759759Y-66312567D01*
X153955750Y-66249670D01*
X154044551Y-66229482D01*
X154142914Y-66214600D01*
X154260488Y-66203998D01*
X154406922Y-66196646D01*
X154474333Y-66194427D01*
X154684372Y-66192653D01*
X154862531Y-66202451D01*
G36*
X156913134Y-69142976D02*
G01*
X157049930Y-69166315D01*
X157077184Y-69171530D01*
X157202108Y-69197931D01*
X157293005Y-69224622D01*
X157357882Y-69256933D01*
X157404745Y-69300190D01*
X157441599Y-69359723D01*
X157474546Y-69435984D01*
X157573690Y-69639760D01*
X157699628Y-69818100D01*
X157848542Y-69967467D01*
X158016615Y-70084324D01*
X158200032Y-70165136D01*
X158287174Y-70188937D01*
X158396930Y-70204180D01*
X158529713Y-70208799D01*
X158671543Y-70203598D01*
X158808437Y-70189381D01*
X158926412Y-70166950D01*
X158985062Y-70148836D01*
X159165796Y-70059754D01*
X159332428Y-69939654D01*
X159476082Y-69796215D01*
X159587878Y-69637116D01*
X159598024Y-69618661D01*
X159629162Y-69561318D01*
X159658271Y-69514230D01*
X159689854Y-69475891D01*
X159728414Y-69444793D01*
X159778453Y-69419428D01*
X159844474Y-69398289D01*
X159930979Y-69379869D01*
X160042472Y-69362661D01*
X160183455Y-69345157D01*
X160358430Y-69325849D01*
X160525647Y-69308120D01*
X160675806Y-69292236D01*
X160817461Y-69277212D01*
X160943395Y-69263816D01*
X161046391Y-69252817D01*
X161119230Y-69244982D01*
X161147125Y-69241936D01*
X161207584Y-69236600D01*
X161237113Y-69241666D01*
X161246784Y-69262248D01*
X161247667Y-69288364D01*
X161236807Y-69339201D01*
X161207086Y-69416768D01*
X161162790Y-69512352D01*
X161108206Y-69617238D01*
X161047621Y-69722713D01*
X160988168Y-69815878D01*
X160902162Y-69929143D01*
X160790735Y-70055961D01*
X160663726Y-70186461D01*
X160530972Y-70310766D01*
X160402314Y-70419004D01*
X160341824Y-70464565D01*
X160116365Y-70610369D01*
X159894697Y-70719407D01*
X159667409Y-70795136D01*
X159425091Y-70841014D01*
X159279167Y-70854965D01*
X159121361Y-70864965D01*
X158995548Y-70871468D01*
X158891545Y-70874618D01*
X158799168Y-70874557D01*
X158708232Y-70871427D01*
X158608555Y-70865373D01*
X158596689Y-70864539D01*
X158391441Y-70839925D01*
X158212735Y-70796161D01*
X158197401Y-70791162D01*
X158018159Y-70714389D01*
X157831092Y-70603190D01*
X157642316Y-70463112D01*
X157457947Y-70299700D01*
X157284103Y-70118500D01*
X157126897Y-69925060D01*
X156992448Y-69724925D01*
X156960121Y-69669171D01*
X156925331Y-69602113D01*
X156884988Y-69516941D01*
X156843067Y-69423038D01*
X156803547Y-69329789D01*
X156770405Y-69246580D01*
X156747619Y-69182794D01*
X156739167Y-69147855D01*
X156758310Y-69133785D01*
X156816113Y-69132146D01*
X156913134Y-69142976D01*
G37*
X156913134Y-69142976D02*
X157049930Y-69166315D01*
X157077184Y-69171530D01*
X157202108Y-69197931D01*
X157293005Y-69224622D01*
X157357882Y-69256933D01*
X157404745Y-69300190D01*
X157441599Y-69359723D01*
X157474546Y-69435984D01*
X157573690Y-69639760D01*
X157699628Y-69818100D01*
X157848542Y-69967467D01*
X158016615Y-70084324D01*
X158200032Y-70165136D01*
X158287174Y-70188937D01*
X158396930Y-70204180D01*
X158529713Y-70208799D01*
X158671543Y-70203598D01*
X158808437Y-70189381D01*
X158926412Y-70166950D01*
X158985062Y-70148836D01*
X159165796Y-70059754D01*
X159332428Y-69939654D01*
X159476082Y-69796215D01*
X159587878Y-69637116D01*
X159598024Y-69618661D01*
X159629162Y-69561318D01*
X159658271Y-69514230D01*
X159689854Y-69475891D01*
X159728414Y-69444793D01*
X159778453Y-69419428D01*
X159844474Y-69398289D01*
X159930979Y-69379869D01*
X160042472Y-69362661D01*
X160183455Y-69345157D01*
X160358430Y-69325849D01*
X160525647Y-69308120D01*
X160675806Y-69292236D01*
X160817461Y-69277212D01*
X160943395Y-69263816D01*
X161046391Y-69252817D01*
X161119230Y-69244982D01*
X161147125Y-69241936D01*
X161207584Y-69236600D01*
X161237113Y-69241666D01*
X161246784Y-69262248D01*
X161247667Y-69288364D01*
X161236807Y-69339201D01*
X161207086Y-69416768D01*
X161162790Y-69512352D01*
X161108206Y-69617238D01*
X161047621Y-69722713D01*
X160988168Y-69815878D01*
X160902162Y-69929143D01*
X160790735Y-70055961D01*
X160663726Y-70186461D01*
X160530972Y-70310766D01*
X160402314Y-70419004D01*
X160341824Y-70464565D01*
X160116365Y-70610369D01*
X159894697Y-70719407D01*
X159667409Y-70795136D01*
X159425091Y-70841014D01*
X159279167Y-70854965D01*
X159121361Y-70864965D01*
X158995548Y-70871468D01*
X158891545Y-70874618D01*
X158799168Y-70874557D01*
X158708232Y-70871427D01*
X158608555Y-70865373D01*
X158596689Y-70864539D01*
X158391441Y-70839925D01*
X158212735Y-70796161D01*
X158197401Y-70791162D01*
X158018159Y-70714389D01*
X157831092Y-70603190D01*
X157642316Y-70463112D01*
X157457947Y-70299700D01*
X157284103Y-70118500D01*
X157126897Y-69925060D01*
X156992448Y-69724925D01*
X156960121Y-69669171D01*
X156925331Y-69602113D01*
X156884988Y-69516941D01*
X156843067Y-69423038D01*
X156803547Y-69329789D01*
X156770405Y-69246580D01*
X156747619Y-69182794D01*
X156739167Y-69147855D01*
X156758310Y-69133785D01*
X156816113Y-69132146D01*
X156913134Y-69142976D01*
G36*
X148339663Y-70330954D02*
G01*
X148468915Y-70340399D01*
X148570707Y-70357444D01*
X148590415Y-70362864D01*
X148686936Y-70400207D01*
X148780790Y-70449835D01*
X148861269Y-70504854D01*
X148917661Y-70558373D01*
X148934301Y-70584164D01*
X148944132Y-70617376D01*
X148935240Y-70648586D01*
X148902367Y-70689977D01*
X148877276Y-70716271D01*
X148807947Y-70777358D01*
X148727636Y-70834658D01*
X148698131Y-70852123D01*
X148662646Y-70870429D01*
X148628187Y-70884265D01*
X148588025Y-70894447D01*
X148535432Y-70901792D01*
X148463681Y-70907117D01*
X148366044Y-70911236D01*
X148235792Y-70914968D01*
X148165830Y-70916712D01*
X148026500Y-70919110D01*
X147894197Y-70919535D01*
X147777517Y-70918101D01*
X147685054Y-70914922D01*
X147625402Y-70910111D01*
X147621395Y-70909517D01*
X147501548Y-70877110D01*
X147403664Y-70817694D01*
X147348025Y-70764731D01*
X147305069Y-70695697D01*
X147302646Y-70627430D01*
X147338968Y-70561594D01*
X147412244Y-70499852D01*
X147520685Y-70443868D01*
X147662501Y-70395305D01*
X147775083Y-70367794D01*
X147900662Y-70347528D01*
X148044186Y-70334587D01*
X148194303Y-70329040D01*
X148339663Y-70330954D01*
G37*
X148339663Y-70330954D02*
X148468915Y-70340399D01*
X148570707Y-70357444D01*
X148590415Y-70362864D01*
X148686936Y-70400207D01*
X148780790Y-70449835D01*
X148861269Y-70504854D01*
X148917661Y-70558373D01*
X148934301Y-70584164D01*
X148944132Y-70617376D01*
X148935240Y-70648586D01*
X148902367Y-70689977D01*
X148877276Y-70716271D01*
X148807947Y-70777358D01*
X148727636Y-70834658D01*
X148698131Y-70852123D01*
X148662646Y-70870429D01*
X148628187Y-70884265D01*
X148588025Y-70894447D01*
X148535432Y-70901792D01*
X148463681Y-70907117D01*
X148366044Y-70911236D01*
X148235792Y-70914968D01*
X148165830Y-70916712D01*
X148026500Y-70919110D01*
X147894197Y-70919535D01*
X147777517Y-70918101D01*
X147685054Y-70914922D01*
X147625402Y-70910111D01*
X147621395Y-70909517D01*
X147501548Y-70877110D01*
X147403664Y-70817694D01*
X147348025Y-70764731D01*
X147305069Y-70695697D01*
X147302646Y-70627430D01*
X147338968Y-70561594D01*
X147412244Y-70499852D01*
X147520685Y-70443868D01*
X147662501Y-70395305D01*
X147775083Y-70367794D01*
X147900662Y-70347528D01*
X148044186Y-70334587D01*
X148194303Y-70329040D01*
X148339663Y-70330954D01*
G36*
X149555568Y-71124590D02*
G01*
X149697202Y-71137740D01*
X149815790Y-71162707D01*
X149906330Y-71197672D01*
X149963818Y-71240814D01*
X149982640Y-71279918D01*
X149969793Y-71331033D01*
X149919767Y-71378778D01*
X149837698Y-71421059D01*
X149728722Y-71455783D01*
X149597974Y-71480856D01*
X149457833Y-71493851D01*
X149361660Y-71497574D01*
X149295924Y-71496424D01*
X149248842Y-71488631D01*
X149208633Y-71472423D01*
X149171102Y-71450734D01*
X149111998Y-71406225D01*
X149065656Y-71357420D01*
X149055217Y-71341409D01*
X149038617Y-71303723D01*
X149043070Y-71275662D01*
X149073483Y-71241827D01*
X149092411Y-71224661D01*
X149162198Y-71175437D01*
X149246376Y-71143117D01*
X149352693Y-71126027D01*
X149488894Y-71122492D01*
X149555568Y-71124590D01*
G37*
X149555568Y-71124590D02*
X149697202Y-71137740D01*
X149815790Y-71162707D01*
X149906330Y-71197672D01*
X149963818Y-71240814D01*
X149982640Y-71279918D01*
X149969793Y-71331033D01*
X149919767Y-71378778D01*
X149837698Y-71421059D01*
X149728722Y-71455783D01*
X149597974Y-71480856D01*
X149457833Y-71493851D01*
X149361660Y-71497574D01*
X149295924Y-71496424D01*
X149248842Y-71488631D01*
X149208633Y-71472423D01*
X149171102Y-71450734D01*
X149111998Y-71406225D01*
X149065656Y-71357420D01*
X149055217Y-71341409D01*
X149038617Y-71303723D01*
X149043070Y-71275662D01*
X149073483Y-71241827D01*
X149092411Y-71224661D01*
X149162198Y-71175437D01*
X149246376Y-71143117D01*
X149352693Y-71126027D01*
X149488894Y-71122492D01*
X149555568Y-71124590D01*
G36*
X164321773Y-71685092D02*
G01*
X164326446Y-71689930D01*
X164319236Y-71715766D01*
X164284486Y-71761775D01*
X164228339Y-71822485D01*
X164156936Y-71892421D01*
X164076419Y-71966112D01*
X163992929Y-72038083D01*
X163912607Y-72102862D01*
X163841596Y-72154976D01*
X163786036Y-72188951D01*
X163754644Y-72199500D01*
X163720605Y-72185209D01*
X163680829Y-72151875D01*
X163655006Y-72117142D01*
X163643295Y-72075019D01*
X163642637Y-72010964D01*
X163644544Y-71979348D01*
X163653475Y-71901532D01*
X163670492Y-71851184D01*
X163701097Y-71813517D01*
X163708796Y-71806665D01*
X163757962Y-71777871D01*
X163833253Y-71749506D01*
X163925530Y-71723299D01*
X164025651Y-71700978D01*
X164124476Y-71684269D01*
X164212865Y-71674900D01*
X164281678Y-71674598D01*
X164321773Y-71685092D01*
G37*
X164321773Y-71685092D02*
X164326446Y-71689930D01*
X164319236Y-71715766D01*
X164284486Y-71761775D01*
X164228339Y-71822485D01*
X164156936Y-71892421D01*
X164076419Y-71966112D01*
X163992929Y-72038083D01*
X163912607Y-72102862D01*
X163841596Y-72154976D01*
X163786036Y-72188951D01*
X163754644Y-72199500D01*
X163720605Y-72185209D01*
X163680829Y-72151875D01*
X163655006Y-72117142D01*
X163643295Y-72075019D01*
X163642637Y-72010964D01*
X163644544Y-71979348D01*
X163653475Y-71901532D01*
X163670492Y-71851184D01*
X163701097Y-71813517D01*
X163708796Y-71806665D01*
X163757962Y-71777871D01*
X163833253Y-71749506D01*
X163925530Y-71723299D01*
X164025651Y-71700978D01*
X164124476Y-71684269D01*
X164212865Y-71674900D01*
X164281678Y-71674598D01*
X164321773Y-71685092D01*
G36*
X155459630Y-72479241D02*
G01*
X155462110Y-72509696D01*
X155444023Y-72569952D01*
X155408387Y-72654654D01*
X155358223Y-72758450D01*
X155296550Y-72875986D01*
X155226387Y-73001910D01*
X155150756Y-73130868D01*
X155072675Y-73257508D01*
X154995165Y-73376477D01*
X154921245Y-73482420D01*
X154853934Y-73569986D01*
X154825700Y-73602983D01*
X154753537Y-73683549D01*
X154637379Y-73495765D01*
X154546065Y-73343205D01*
X154474777Y-73213546D01*
X154424927Y-73109676D01*
X154397922Y-73034480D01*
X154393727Y-72996827D01*
X154408361Y-72966211D01*
X154446211Y-72930220D01*
X154510436Y-72886971D01*
X154604193Y-72834581D01*
X154730640Y-72771167D01*
X154892936Y-72694845D01*
X154924392Y-72680417D01*
X155103226Y-72600237D01*
X155245376Y-72540047D01*
X155351368Y-72499652D01*
X155421727Y-72478854D01*
X155456979Y-72477454D01*
X155459630Y-72479241D01*
G37*
X155459630Y-72479241D02*
X155462110Y-72509696D01*
X155444023Y-72569952D01*
X155408387Y-72654654D01*
X155358223Y-72758450D01*
X155296550Y-72875986D01*
X155226387Y-73001910D01*
X155150756Y-73130868D01*
X155072675Y-73257508D01*
X154995165Y-73376477D01*
X154921245Y-73482420D01*
X154853934Y-73569986D01*
X154825700Y-73602983D01*
X154753537Y-73683549D01*
X154637379Y-73495765D01*
X154546065Y-73343205D01*
X154474777Y-73213546D01*
X154424927Y-73109676D01*
X154397922Y-73034480D01*
X154393727Y-72996827D01*
X154408361Y-72966211D01*
X154446211Y-72930220D01*
X154510436Y-72886971D01*
X154604193Y-72834581D01*
X154730640Y-72771167D01*
X154892936Y-72694845D01*
X154924392Y-72680417D01*
X155103226Y-72600237D01*
X155245376Y-72540047D01*
X155351368Y-72499652D01*
X155421727Y-72478854D01*
X155456979Y-72477454D01*
X155459630Y-72479241D01*
G36*
X152964047Y-73413502D02*
G01*
X152980693Y-73424918D01*
X152980642Y-73460372D01*
X152958693Y-73522169D01*
X152919250Y-73603480D01*
X152866717Y-73697474D01*
X152805497Y-73797324D01*
X152739992Y-73896199D01*
X152674605Y-73987270D01*
X152613741Y-74063707D01*
X152561801Y-74118681D01*
X152523190Y-74145362D01*
X152515259Y-74146833D01*
X152487524Y-74131259D01*
X152444739Y-74090682D01*
X152402137Y-74041180D01*
X152337854Y-73951101D01*
X152282198Y-73856904D01*
X152240001Y-73768417D01*
X152216095Y-73695470D01*
X152213106Y-73656657D01*
X152239963Y-73608708D01*
X152307169Y-73561316D01*
X152415354Y-73514155D01*
X152565145Y-73466896D01*
X152591647Y-73459670D01*
X152716549Y-73430125D01*
X152824481Y-73412204D01*
X152909096Y-73406474D01*
X152964047Y-73413502D01*
G37*
X152964047Y-73413502D02*
X152980693Y-73424918D01*
X152980642Y-73460372D01*
X152958693Y-73522169D01*
X152919250Y-73603480D01*
X152866717Y-73697474D01*
X152805497Y-73797324D01*
X152739992Y-73896199D01*
X152674605Y-73987270D01*
X152613741Y-74063707D01*
X152561801Y-74118681D01*
X152523190Y-74145362D01*
X152515259Y-74146833D01*
X152487524Y-74131259D01*
X152444739Y-74090682D01*
X152402137Y-74041180D01*
X152337854Y-73951101D01*
X152282198Y-73856904D01*
X152240001Y-73768417D01*
X152216095Y-73695470D01*
X152213106Y-73656657D01*
X152239963Y-73608708D01*
X152307169Y-73561316D01*
X152415354Y-73514155D01*
X152565145Y-73466896D01*
X152591647Y-73459670D01*
X152716549Y-73430125D01*
X152824481Y-73412204D01*
X152909096Y-73406474D01*
X152964047Y-73413502D01*
G36*
X165081179Y-73644307D02*
G01*
X165099944Y-73657741D01*
X165100000Y-73658792D01*
X165084331Y-73677088D01*
X165040677Y-73717675D01*
X164974064Y-73776342D01*
X164889520Y-73848878D01*
X164792071Y-73931074D01*
X164686747Y-74018719D01*
X164578573Y-74107604D01*
X164472577Y-74193518D01*
X164373786Y-74272252D01*
X164287229Y-74339595D01*
X164285083Y-74341235D01*
X164196386Y-74407384D01*
X164133945Y-74449061D01*
X164091691Y-74469133D01*
X164063558Y-74470468D01*
X164043479Y-74455932D01*
X164043170Y-74455562D01*
X164029372Y-74422882D01*
X164011060Y-74356876D01*
X163990061Y-74266071D01*
X163968203Y-74158997D01*
X163947312Y-74044182D01*
X163929215Y-73930155D01*
X163926407Y-73910463D01*
X163920323Y-73848588D01*
X163926319Y-73816089D01*
X163947004Y-73801082D01*
X163950674Y-73799868D01*
X163982172Y-73793049D01*
X164048762Y-73780645D01*
X164143747Y-73763833D01*
X164260430Y-73743791D01*
X164392114Y-73721698D01*
X164442037Y-73713447D01*
X164647029Y-73681074D01*
X164812103Y-73658085D01*
X164938595Y-73644368D01*
X165027842Y-73639812D01*
X165081179Y-73644307D01*
G37*
X165081179Y-73644307D02*
X165099944Y-73657741D01*
X165100000Y-73658792D01*
X165084331Y-73677088D01*
X165040677Y-73717675D01*
X164974064Y-73776342D01*
X164889520Y-73848878D01*
X164792071Y-73931074D01*
X164686747Y-74018719D01*
X164578573Y-74107604D01*
X164472577Y-74193518D01*
X164373786Y-74272252D01*
X164287229Y-74339595D01*
X164285083Y-74341235D01*
X164196386Y-74407384D01*
X164133945Y-74449061D01*
X164091691Y-74469133D01*
X164063558Y-74470468D01*
X164043479Y-74455932D01*
X164043170Y-74455562D01*
X164029372Y-74422882D01*
X164011060Y-74356876D01*
X163990061Y-74266071D01*
X163968203Y-74158997D01*
X163947312Y-74044182D01*
X163929215Y-73930155D01*
X163926407Y-73910463D01*
X163920323Y-73848588D01*
X163926319Y-73816089D01*
X163947004Y-73801082D01*
X163950674Y-73799868D01*
X163982172Y-73793049D01*
X164048762Y-73780645D01*
X164143747Y-73763833D01*
X164260430Y-73743791D01*
X164392114Y-73721698D01*
X164442037Y-73713447D01*
X164647029Y-73681074D01*
X164812103Y-73658085D01*
X164938595Y-73644368D01*
X165027842Y-73639812D01*
X165081179Y-73644307D01*
G36*
X146348323Y-73476278D02*
G01*
X146435073Y-73487403D01*
X146544532Y-73505407D01*
X146667565Y-73528416D01*
X146795036Y-73554558D01*
X146917811Y-73581959D01*
X147026754Y-73608749D01*
X147112731Y-73633053D01*
X147166224Y-73652813D01*
X147218137Y-73683475D01*
X147238661Y-73714191D01*
X147239005Y-73744667D01*
X147224490Y-73798314D01*
X147193753Y-73875713D01*
X147150536Y-73970012D01*
X147098579Y-74074358D01*
X147041622Y-74181900D01*
X146983406Y-74285785D01*
X146927672Y-74379162D01*
X146878161Y-74455178D01*
X146838613Y-74506982D01*
X146812768Y-74527721D01*
X146811461Y-74527833D01*
X146793689Y-74511158D01*
X146757504Y-74465358D01*
X146707610Y-74396769D01*
X146648714Y-74311729D01*
X146626688Y-74279017D01*
X146533279Y-74135795D01*
X146446225Y-73995717D01*
X146368567Y-73864222D01*
X146303344Y-73746753D01*
X146253597Y-73648752D01*
X146222365Y-73575660D01*
X146212698Y-73538020D01*
X146214203Y-73500520D01*
X146233180Y-73482489D01*
X146281046Y-73474857D01*
X146293417Y-73473902D01*
X146348323Y-73476278D01*
G37*
X146348323Y-73476278D02*
X146435073Y-73487403D01*
X146544532Y-73505407D01*
X146667565Y-73528416D01*
X146795036Y-73554558D01*
X146917811Y-73581959D01*
X147026754Y-73608749D01*
X147112731Y-73633053D01*
X147166224Y-73652813D01*
X147218137Y-73683475D01*
X147238661Y-73714191D01*
X147239005Y-73744667D01*
X147224490Y-73798314D01*
X147193753Y-73875713D01*
X147150536Y-73970012D01*
X147098579Y-74074358D01*
X147041622Y-74181900D01*
X146983406Y-74285785D01*
X146927672Y-74379162D01*
X146878161Y-74455178D01*
X146838613Y-74506982D01*
X146812768Y-74527721D01*
X146811461Y-74527833D01*
X146793689Y-74511158D01*
X146757504Y-74465358D01*
X146707610Y-74396769D01*
X146648714Y-74311729D01*
X146626688Y-74279017D01*
X146533279Y-74135795D01*
X146446225Y-73995717D01*
X146368567Y-73864222D01*
X146303344Y-73746753D01*
X146253597Y-73648752D01*
X146222365Y-73575660D01*
X146212698Y-73538020D01*
X146214203Y-73500520D01*
X146233180Y-73482489D01*
X146281046Y-73474857D01*
X146293417Y-73473902D01*
X146348323Y-73476278D01*
G36*
X149501697Y-73812959D02*
G01*
X149640590Y-73815822D01*
X149763416Y-73820705D01*
X149863775Y-73827649D01*
X149935264Y-73836695D01*
X149971484Y-73847882D01*
X149972853Y-73849053D01*
X149973538Y-73879405D01*
X149948314Y-73943039D01*
X149897256Y-74039819D01*
X149820441Y-74169607D01*
X149717945Y-74332266D01*
X149638775Y-74453750D01*
X149535611Y-74607832D01*
X149444757Y-74738329D01*
X149368217Y-74842586D01*
X149307993Y-74917950D01*
X149266087Y-74961765D01*
X149247549Y-74972333D01*
X149227324Y-74956472D01*
X149188963Y-74914000D01*
X149139173Y-74852587D01*
X149113365Y-74818875D01*
X149027727Y-74700140D01*
X148935342Y-74563851D01*
X148842524Y-74420048D01*
X148755590Y-74278777D01*
X148680856Y-74150079D01*
X148624637Y-74043997D01*
X148619835Y-74034098D01*
X148584114Y-73957073D01*
X148566039Y-73908669D01*
X148563618Y-73880008D01*
X148574854Y-73862209D01*
X148580265Y-73857897D01*
X148617256Y-73846064D01*
X148689389Y-73835925D01*
X148790262Y-73827521D01*
X148913475Y-73820894D01*
X149052625Y-73816083D01*
X149201313Y-73813130D01*
X149353137Y-73812075D01*
X149501697Y-73812959D01*
G37*
X149501697Y-73812959D02*
X149640590Y-73815822D01*
X149763416Y-73820705D01*
X149863775Y-73827649D01*
X149935264Y-73836695D01*
X149971484Y-73847882D01*
X149972853Y-73849053D01*
X149973538Y-73879405D01*
X149948314Y-73943039D01*
X149897256Y-74039819D01*
X149820441Y-74169607D01*
X149717945Y-74332266D01*
X149638775Y-74453750D01*
X149535611Y-74607832D01*
X149444757Y-74738329D01*
X149368217Y-74842586D01*
X149307993Y-74917950D01*
X149266087Y-74961765D01*
X149247549Y-74972333D01*
X149227324Y-74956472D01*
X149188963Y-74914000D01*
X149139173Y-74852587D01*
X149113365Y-74818875D01*
X149027727Y-74700140D01*
X148935342Y-74563851D01*
X148842524Y-74420048D01*
X148755590Y-74278777D01*
X148680856Y-74150079D01*
X148624637Y-74043997D01*
X148619835Y-74034098D01*
X148584114Y-73957073D01*
X148566039Y-73908669D01*
X148563618Y-73880008D01*
X148574854Y-73862209D01*
X148580265Y-73857897D01*
X148617256Y-73846064D01*
X148689389Y-73835925D01*
X148790262Y-73827521D01*
X148913475Y-73820894D01*
X149052625Y-73816083D01*
X149201313Y-73813130D01*
X149353137Y-73812075D01*
X149501697Y-73812959D01*
G36*
X159038778Y-76579553D02*
G01*
X159097060Y-76633968D01*
X159156152Y-76715962D01*
X159213146Y-76818418D01*
X159265135Y-76934220D01*
X159309212Y-77056250D01*
X159342469Y-77177393D01*
X159362000Y-77290532D01*
X159364898Y-77388549D01*
X159350985Y-77457685D01*
X159321092Y-77486442D01*
X159271554Y-77486472D01*
X159212368Y-77459275D01*
X159177681Y-77431728D01*
X159075126Y-77310512D01*
X158991697Y-77161112D01*
X158932187Y-76995178D01*
X158901389Y-76824361D01*
X158898167Y-76752337D01*
X158903133Y-76656332D01*
X158919700Y-76596078D01*
X158950368Y-76565981D01*
X158984212Y-76559833D01*
X159038778Y-76579553D01*
G37*
X159038778Y-76579553D02*
X159097060Y-76633968D01*
X159156152Y-76715962D01*
X159213146Y-76818418D01*
X159265135Y-76934220D01*
X159309212Y-77056250D01*
X159342469Y-77177393D01*
X159362000Y-77290532D01*
X159364898Y-77388549D01*
X159350985Y-77457685D01*
X159321092Y-77486442D01*
X159271554Y-77486472D01*
X159212368Y-77459275D01*
X159177681Y-77431728D01*
X159075126Y-77310512D01*
X158991697Y-77161112D01*
X158932187Y-76995178D01*
X158901389Y-76824361D01*
X158898167Y-76752337D01*
X158903133Y-76656332D01*
X158919700Y-76596078D01*
X158950368Y-76565981D01*
X158984212Y-76559833D01*
X159038778Y-76579553D01*
G36*
X160610824Y-76951041D02*
G01*
X160683936Y-77006458D01*
X160759723Y-77088042D01*
X160835338Y-77193265D01*
X160907934Y-77319598D01*
X160974666Y-77464512D01*
X161022019Y-77592432D01*
X161069129Y-77749569D01*
X161094500Y-77876325D01*
X161097944Y-77978759D01*
X161079270Y-78062927D01*
X161038290Y-78134887D01*
X161003852Y-78173792D01*
X160930917Y-78223430D01*
X160853393Y-78231093D01*
X160771035Y-78196768D01*
X160721717Y-78158305D01*
X160637201Y-78059963D01*
X160560233Y-77929265D01*
X160493593Y-77775919D01*
X160440061Y-77609635D01*
X160402414Y-77440119D01*
X160383433Y-77277080D01*
X160385897Y-77130226D01*
X160402044Y-77041624D01*
X160435996Y-76967083D01*
X160484008Y-76928825D01*
X160543232Y-76924321D01*
X160610824Y-76951041D01*
G37*
X160610824Y-76951041D02*
X160683936Y-77006458D01*
X160759723Y-77088042D01*
X160835338Y-77193265D01*
X160907934Y-77319598D01*
X160974666Y-77464512D01*
X161022019Y-77592432D01*
X161069129Y-77749569D01*
X161094500Y-77876325D01*
X161097944Y-77978759D01*
X161079270Y-78062927D01*
X161038290Y-78134887D01*
X161003852Y-78173792D01*
X160930917Y-78223430D01*
X160853393Y-78231093D01*
X160771035Y-78196768D01*
X160721717Y-78158305D01*
X160637201Y-78059963D01*
X160560233Y-77929265D01*
X160493593Y-77775919D01*
X160440061Y-77609635D01*
X160402414Y-77440119D01*
X160383433Y-77277080D01*
X160385897Y-77130226D01*
X160402044Y-77041624D01*
X160435996Y-76967083D01*
X160484008Y-76928825D01*
X160543232Y-76924321D01*
X160610824Y-76951041D01*
G36*
X163895714Y-78637770D02*
G01*
X164006738Y-78641861D01*
X164084434Y-78647806D01*
X164137805Y-78657107D01*
X164175856Y-78671265D01*
X164204239Y-78689249D01*
X164238418Y-78719884D01*
X164257552Y-78756273D01*
X164266947Y-78812390D01*
X164270193Y-78862890D01*
X164271280Y-78940533D01*
X164263232Y-78989902D01*
X164243127Y-79024601D01*
X164233151Y-79035349D01*
X164207423Y-79056707D01*
X164176631Y-79069574D01*
X164133574Y-79073935D01*
X164071049Y-79069771D01*
X163981856Y-79057064D01*
X163858792Y-79035799D01*
X163851167Y-79034429D01*
X163771718Y-79021383D01*
X163692972Y-79011616D01*
X163607486Y-79004785D01*
X163507822Y-79000547D01*
X163386538Y-78998558D01*
X163236195Y-78998476D01*
X163093693Y-78999519D01*
X162925329Y-79000771D01*
X162794582Y-79000812D01*
X162696746Y-78999424D01*
X162627116Y-78996391D01*
X162580987Y-78991496D01*
X162553654Y-78984521D01*
X162540411Y-78975251D01*
X162539545Y-78973974D01*
X162532496Y-78928223D01*
X162539465Y-78908152D01*
X162579680Y-78869976D01*
X162656317Y-78831143D01*
X162763503Y-78792824D01*
X162895367Y-78756189D01*
X163046036Y-78722409D01*
X163209639Y-78692655D01*
X163380303Y-78668097D01*
X163552156Y-78649906D01*
X163719327Y-78639253D01*
X163875943Y-78637308D01*
X163895714Y-78637770D01*
G37*
X163895714Y-78637770D02*
X164006738Y-78641861D01*
X164084434Y-78647806D01*
X164137805Y-78657107D01*
X164175856Y-78671265D01*
X164204239Y-78689249D01*
X164238418Y-78719884D01*
X164257552Y-78756273D01*
X164266947Y-78812390D01*
X164270193Y-78862890D01*
X164271280Y-78940533D01*
X164263232Y-78989902D01*
X164243127Y-79024601D01*
X164233151Y-79035349D01*
X164207423Y-79056707D01*
X164176631Y-79069574D01*
X164133574Y-79073935D01*
X164071049Y-79069771D01*
X163981856Y-79057064D01*
X163858792Y-79035799D01*
X163851167Y-79034429D01*
X163771718Y-79021383D01*
X163692972Y-79011616D01*
X163607486Y-79004785D01*
X163507822Y-79000547D01*
X163386538Y-78998558D01*
X163236195Y-78998476D01*
X163093693Y-78999519D01*
X162925329Y-79000771D01*
X162794582Y-79000812D01*
X162696746Y-78999424D01*
X162627116Y-78996391D01*
X162580987Y-78991496D01*
X162553654Y-78984521D01*
X162540411Y-78975251D01*
X162539545Y-78973974D01*
X162532496Y-78928223D01*
X162539465Y-78908152D01*
X162579680Y-78869976D01*
X162656317Y-78831143D01*
X162763503Y-78792824D01*
X162895367Y-78756189D01*
X163046036Y-78722409D01*
X163209639Y-78692655D01*
X163380303Y-78668097D01*
X163552156Y-78649906D01*
X163719327Y-78639253D01*
X163875943Y-78637308D01*
X163895714Y-78637770D01*
G36*
X147810782Y-78440815D02*
G01*
X147848940Y-78493727D01*
X147863847Y-78530363D01*
X147875447Y-78584312D01*
X147883767Y-78663999D01*
X147888770Y-78759355D01*
X147890416Y-78860308D01*
X147888667Y-78956789D01*
X147883483Y-79038726D01*
X147874827Y-79096050D01*
X147866100Y-79116767D01*
X147839934Y-79137148D01*
X147815064Y-79135192D01*
X147781349Y-79106831D01*
X147746957Y-79068976D01*
X147700915Y-79000279D01*
X147672442Y-78915073D01*
X147659936Y-78805536D01*
X147661795Y-78663847D01*
X147662264Y-78655294D01*
X147670087Y-78568152D01*
X147683891Y-78510947D01*
X147707178Y-78471353D01*
X147717867Y-78459725D01*
X147766876Y-78429377D01*
X147810782Y-78440815D01*
G37*
X147810782Y-78440815D02*
X147848940Y-78493727D01*
X147863847Y-78530363D01*
X147875447Y-78584312D01*
X147883767Y-78663999D01*
X147888770Y-78759355D01*
X147890416Y-78860308D01*
X147888667Y-78956789D01*
X147883483Y-79038726D01*
X147874827Y-79096050D01*
X147866100Y-79116767D01*
X147839934Y-79137148D01*
X147815064Y-79135192D01*
X147781349Y-79106831D01*
X147746957Y-79068976D01*
X147700915Y-79000279D01*
X147672442Y-78915073D01*
X147659936Y-78805536D01*
X147661795Y-78663847D01*
X147662264Y-78655294D01*
X147670087Y-78568152D01*
X147683891Y-78510947D01*
X147707178Y-78471353D01*
X147717867Y-78459725D01*
X147766876Y-78429377D01*
X147810782Y-78440815D01*
G36*
X143440481Y-74500896D02*
G01*
X143489095Y-74543380D01*
X143553822Y-74607395D01*
X143629243Y-74687387D01*
X143709937Y-74777799D01*
X143785077Y-74866500D01*
X143974904Y-75082960D01*
X144180076Y-75292034D01*
X144391971Y-75485790D01*
X144601969Y-75656295D01*
X144780000Y-75781879D01*
X144999561Y-75914220D01*
X145220197Y-76025782D01*
X145447943Y-76118275D01*
X145688834Y-76193405D01*
X145948905Y-76252879D01*
X146234189Y-76298405D01*
X146550723Y-76331690D01*
X146780250Y-76347816D01*
X147037656Y-76363090D01*
X147255096Y-76376369D01*
X147434886Y-76387820D01*
X147579337Y-76397607D01*
X147690763Y-76405898D01*
X147771477Y-76412857D01*
X147823793Y-76418651D01*
X147850024Y-76423446D01*
X147853242Y-76424768D01*
X147860795Y-76432518D01*
X147863011Y-76446451D01*
X147858210Y-76470507D01*
X147844711Y-76508628D01*
X147820833Y-76564752D01*
X147784895Y-76642819D01*
X147735216Y-76746770D01*
X147670115Y-76880545D01*
X147587912Y-77048083D01*
X147583405Y-77057250D01*
X147473507Y-77282838D01*
X147374258Y-77491550D01*
X147281999Y-77691737D01*
X147193072Y-77891748D01*
X147103818Y-78099933D01*
X147010579Y-78324644D01*
X146909697Y-78574229D01*
X146821447Y-78796359D01*
X146732029Y-79020411D01*
X146655481Y-79206897D01*
X146590689Y-79358204D01*
X146536539Y-79476725D01*
X146491918Y-79564847D01*
X146455710Y-79624961D01*
X146426802Y-79659457D01*
X146415274Y-79667576D01*
X146362878Y-79683645D01*
X146285558Y-79695589D01*
X146200665Y-79701513D01*
X146125549Y-79699523D01*
X146124083Y-79699370D01*
X145751647Y-79642854D01*
X145362960Y-79551715D01*
X144963526Y-79427646D01*
X144558847Y-79272342D01*
X144185268Y-79102660D01*
X144067356Y-79043520D01*
X143948979Y-78980758D01*
X143824070Y-78910839D01*
X143686560Y-78830228D01*
X143530381Y-78735390D01*
X143349464Y-78622790D01*
X143205494Y-78531914D01*
X143090890Y-78461711D01*
X142994643Y-78407665D01*
X142921993Y-78372531D01*
X142878181Y-78359060D01*
X142876324Y-78359000D01*
X142835370Y-78369531D01*
X142768755Y-78398005D01*
X142686600Y-78439744D01*
X142619913Y-78477510D01*
X142453605Y-78572693D01*
X142301893Y-78652907D01*
X142168434Y-78716600D01*
X142056885Y-78762221D01*
X141970904Y-78788215D01*
X141914148Y-78793031D01*
X141895529Y-78784996D01*
X141893251Y-78753515D01*
X141917392Y-78689887D01*
X141968037Y-78593952D01*
X142045272Y-78465551D01*
X142149181Y-78304524D01*
X142158795Y-78290007D01*
X142254328Y-78141226D01*
X142332645Y-78009406D01*
X142391864Y-77898222D01*
X142430105Y-77811346D01*
X142445486Y-77752450D01*
X142443706Y-77733787D01*
X142429160Y-77709835D01*
X142403516Y-77695274D01*
X142360773Y-77690060D01*
X142294929Y-77694152D01*
X142199984Y-77707507D01*
X142069934Y-77730081D01*
X142064374Y-77731092D01*
X141832363Y-77770364D01*
X141617507Y-77800883D01*
X141423682Y-77822383D01*
X141254766Y-77834597D01*
X141114638Y-77837259D01*
X141007176Y-77830101D01*
X140936257Y-77812858D01*
X140928614Y-77809174D01*
X140895317Y-77788108D01*
X140896931Y-77768482D01*
X140919796Y-77744085D01*
X140947382Y-77724388D01*
X141007173Y-77686762D01*
X141094460Y-77634002D01*
X141204534Y-77568902D01*
X141332687Y-77494259D01*
X141474209Y-77412867D01*
X141562667Y-77362474D01*
X141774845Y-77241514D01*
X141952617Y-77138879D01*
X142098788Y-77052704D01*
X142216162Y-76981124D01*
X142307543Y-76922277D01*
X142375735Y-76874298D01*
X142423543Y-76835324D01*
X142453770Y-76803490D01*
X142469222Y-76776933D01*
X142472833Y-76757500D01*
X142452178Y-76725365D01*
X142391914Y-76690606D01*
X142294595Y-76654403D01*
X142180558Y-76622345D01*
X142017161Y-76577881D01*
X141853035Y-76527097D01*
X141693237Y-76472134D01*
X141542822Y-76415131D01*
X141406849Y-76358229D01*
X141290374Y-76303568D01*
X141198455Y-76253287D01*
X141136147Y-76209528D01*
X141108509Y-76174431D01*
X141107583Y-76168250D01*
X141108732Y-76155350D01*
X141114585Y-76144342D01*
X141128748Y-76134795D01*
X141154829Y-76126279D01*
X141196436Y-76118363D01*
X141257177Y-76110618D01*
X141340658Y-76102614D01*
X141450488Y-76093919D01*
X141590274Y-76084105D01*
X141763624Y-76072740D01*
X141974144Y-76059395D01*
X142071804Y-76053265D01*
X142333709Y-76036442D01*
X142556563Y-76021193D01*
X142743607Y-76007221D01*
X142898081Y-75994231D01*
X143023227Y-75981926D01*
X143122286Y-75970009D01*
X143198497Y-75958185D01*
X143255103Y-75946158D01*
X143261292Y-75944537D01*
X143300903Y-75931345D01*
X143326277Y-75912450D01*
X143338138Y-75880995D01*
X143337214Y-75830123D01*
X143324232Y-75752977D01*
X143299917Y-75642699D01*
X143295363Y-75622984D01*
X143269005Y-75480138D01*
X143252810Y-75328542D01*
X143246186Y-75173902D01*
X143248539Y-75021927D01*
X143259278Y-74878326D01*
X143277810Y-74748807D01*
X143303543Y-74639078D01*
X143335885Y-74554847D01*
X143374243Y-74501823D01*
X143413401Y-74485500D01*
X143440481Y-74500896D01*
G37*
X143440481Y-74500896D02*
X143489095Y-74543380D01*
X143553822Y-74607395D01*
X143629243Y-74687387D01*
X143709937Y-74777799D01*
X143785077Y-74866500D01*
X143974904Y-75082960D01*
X144180076Y-75292034D01*
X144391971Y-75485790D01*
X144601969Y-75656295D01*
X144780000Y-75781879D01*
X144999561Y-75914220D01*
X145220197Y-76025782D01*
X145447943Y-76118275D01*
X145688834Y-76193405D01*
X145948905Y-76252879D01*
X146234189Y-76298405D01*
X146550723Y-76331690D01*
X146780250Y-76347816D01*
X147037656Y-76363090D01*
X147255096Y-76376369D01*
X147434886Y-76387820D01*
X147579337Y-76397607D01*
X147690763Y-76405898D01*
X147771477Y-76412857D01*
X147823793Y-76418651D01*
X147850024Y-76423446D01*
X147853242Y-76424768D01*
X147860795Y-76432518D01*
X147863011Y-76446451D01*
X147858210Y-76470507D01*
X147844711Y-76508628D01*
X147820833Y-76564752D01*
X147784895Y-76642819D01*
X147735216Y-76746770D01*
X147670115Y-76880545D01*
X147587912Y-77048083D01*
X147583405Y-77057250D01*
X147473507Y-77282838D01*
X147374258Y-77491550D01*
X147281999Y-77691737D01*
X147193072Y-77891748D01*
X147103818Y-78099933D01*
X147010579Y-78324644D01*
X146909697Y-78574229D01*
X146821447Y-78796359D01*
X146732029Y-79020411D01*
X146655481Y-79206897D01*
X146590689Y-79358204D01*
X146536539Y-79476725D01*
X146491918Y-79564847D01*
X146455710Y-79624961D01*
X146426802Y-79659457D01*
X146415274Y-79667576D01*
X146362878Y-79683645D01*
X146285558Y-79695589D01*
X146200665Y-79701513D01*
X146125549Y-79699523D01*
X146124083Y-79699370D01*
X145751647Y-79642854D01*
X145362960Y-79551715D01*
X144963526Y-79427646D01*
X144558847Y-79272342D01*
X144185268Y-79102660D01*
X144067356Y-79043520D01*
X143948979Y-78980758D01*
X143824070Y-78910839D01*
X143686560Y-78830228D01*
X143530381Y-78735390D01*
X143349464Y-78622790D01*
X143205494Y-78531914D01*
X143090890Y-78461711D01*
X142994643Y-78407665D01*
X142921993Y-78372531D01*
X142878181Y-78359060D01*
X142876324Y-78359000D01*
X142835370Y-78369531D01*
X142768755Y-78398005D01*
X142686600Y-78439744D01*
X142619913Y-78477510D01*
X142453605Y-78572693D01*
X142301893Y-78652907D01*
X142168434Y-78716600D01*
X142056885Y-78762221D01*
X141970904Y-78788215D01*
X141914148Y-78793031D01*
X141895529Y-78784996D01*
X141893251Y-78753515D01*
X141917392Y-78689887D01*
X141968037Y-78593952D01*
X142045272Y-78465551D01*
X142149181Y-78304524D01*
X142158795Y-78290007D01*
X142254328Y-78141226D01*
X142332645Y-78009406D01*
X142391864Y-77898222D01*
X142430105Y-77811346D01*
X142445486Y-77752450D01*
X142443706Y-77733787D01*
X142429160Y-77709835D01*
X142403516Y-77695274D01*
X142360773Y-77690060D01*
X142294929Y-77694152D01*
X142199984Y-77707507D01*
X142069934Y-77730081D01*
X142064374Y-77731092D01*
X141832363Y-77770364D01*
X141617507Y-77800883D01*
X141423682Y-77822383D01*
X141254766Y-77834597D01*
X141114638Y-77837259D01*
X141007176Y-77830101D01*
X140936257Y-77812858D01*
X140928614Y-77809174D01*
X140895317Y-77788108D01*
X140896931Y-77768482D01*
X140919796Y-77744085D01*
X140947382Y-77724388D01*
X141007173Y-77686762D01*
X141094460Y-77634002D01*
X141204534Y-77568902D01*
X141332687Y-77494259D01*
X141474209Y-77412867D01*
X141562667Y-77362474D01*
X141774845Y-77241514D01*
X141952617Y-77138879D01*
X142098788Y-77052704D01*
X142216162Y-76981124D01*
X142307543Y-76922277D01*
X142375735Y-76874298D01*
X142423543Y-76835324D01*
X142453770Y-76803490D01*
X142469222Y-76776933D01*
X142472833Y-76757500D01*
X142452178Y-76725365D01*
X142391914Y-76690606D01*
X142294595Y-76654403D01*
X142180558Y-76622345D01*
X142017161Y-76577881D01*
X141853035Y-76527097D01*
X141693237Y-76472134D01*
X141542822Y-76415131D01*
X141406849Y-76358229D01*
X141290374Y-76303568D01*
X141198455Y-76253287D01*
X141136147Y-76209528D01*
X141108509Y-76174431D01*
X141107583Y-76168250D01*
X141108732Y-76155350D01*
X141114585Y-76144342D01*
X141128748Y-76134795D01*
X141154829Y-76126279D01*
X141196436Y-76118363D01*
X141257177Y-76110618D01*
X141340658Y-76102614D01*
X141450488Y-76093919D01*
X141590274Y-76084105D01*
X141763624Y-76072740D01*
X141974144Y-76059395D01*
X142071804Y-76053265D01*
X142333709Y-76036442D01*
X142556563Y-76021193D01*
X142743607Y-76007221D01*
X142898081Y-75994231D01*
X143023227Y-75981926D01*
X143122286Y-75970009D01*
X143198497Y-75958185D01*
X143255103Y-75946158D01*
X143261292Y-75944537D01*
X143300903Y-75931345D01*
X143326277Y-75912450D01*
X143338138Y-75880995D01*
X143337214Y-75830123D01*
X143324232Y-75752977D01*
X143299917Y-75642699D01*
X143295363Y-75622984D01*
X143269005Y-75480138D01*
X143252810Y-75328542D01*
X143246186Y-75173902D01*
X143248539Y-75021927D01*
X143259278Y-74878326D01*
X143277810Y-74748807D01*
X143303543Y-74639078D01*
X143335885Y-74554847D01*
X143374243Y-74501823D01*
X143413401Y-74485500D01*
X143440481Y-74500896D01*
G36*
X148612476Y-79276470D02*
G01*
X148684511Y-79318745D01*
X148706351Y-79338951D01*
X148751262Y-79391886D01*
X148784496Y-79452943D01*
X148808105Y-79529801D01*
X148824137Y-79630137D01*
X148834644Y-79761630D01*
X148838086Y-79832299D01*
X148841884Y-79948537D01*
X148841356Y-80031818D01*
X148835821Y-80091358D01*
X148824598Y-80136376D01*
X148813683Y-80162741D01*
X148761834Y-80235024D01*
X148695367Y-80275127D01*
X148623199Y-80280720D01*
X148554245Y-80249478D01*
X148537694Y-80234785D01*
X148486945Y-80158751D01*
X148447285Y-80044747D01*
X148419549Y-79895876D01*
X148406035Y-79745417D01*
X148403219Y-79592042D01*
X148414308Y-79473452D01*
X148440314Y-79384108D01*
X148482251Y-79318472D01*
X148484627Y-79315882D01*
X148545343Y-79275463D01*
X148612476Y-79276470D01*
G37*
X148612476Y-79276470D02*
X148684511Y-79318745D01*
X148706351Y-79338951D01*
X148751262Y-79391886D01*
X148784496Y-79452943D01*
X148808105Y-79529801D01*
X148824137Y-79630137D01*
X148834644Y-79761630D01*
X148838086Y-79832299D01*
X148841884Y-79948537D01*
X148841356Y-80031818D01*
X148835821Y-80091358D01*
X148824598Y-80136376D01*
X148813683Y-80162741D01*
X148761834Y-80235024D01*
X148695367Y-80275127D01*
X148623199Y-80280720D01*
X148554245Y-80249478D01*
X148537694Y-80234785D01*
X148486945Y-80158751D01*
X148447285Y-80044747D01*
X148419549Y-79895876D01*
X148406035Y-79745417D01*
X148403219Y-79592042D01*
X148414308Y-79473452D01*
X148440314Y-79384108D01*
X148482251Y-79318472D01*
X148484627Y-79315882D01*
X148545343Y-79275463D01*
X148612476Y-79276470D01*
G36*
X160229646Y-78717865D02*
G01*
X160332933Y-78764134D01*
X160440189Y-78840372D01*
X160548131Y-78945153D01*
X160653479Y-79077050D01*
X160743725Y-79218396D01*
X160836396Y-79397457D01*
X160924060Y-79599676D01*
X160998911Y-79805971D01*
X161038770Y-79939814D01*
X161063690Y-80057066D01*
X161082015Y-80190801D01*
X161093076Y-80329165D01*
X161096202Y-80460302D01*
X161090725Y-80572357D01*
X161078566Y-80644636D01*
X161049729Y-80711537D01*
X161002506Y-80782452D01*
X160945829Y-80847390D01*
X160888633Y-80896356D01*
X160839853Y-80919357D01*
X160832410Y-80919968D01*
X160792765Y-80909704D01*
X160732692Y-80883471D01*
X160686317Y-80858815D01*
X160573216Y-80776784D01*
X160456109Y-80661306D01*
X160340382Y-80520214D01*
X160231418Y-80361340D01*
X160134601Y-80192517D01*
X160055317Y-80021576D01*
X160000115Y-79860635D01*
X159963284Y-79706950D01*
X159933653Y-79544756D01*
X159911836Y-79381884D01*
X159898446Y-79226168D01*
X159894097Y-79085438D01*
X159899402Y-78967527D01*
X159914975Y-78880267D01*
X159921828Y-78861028D01*
X159976419Y-78773148D01*
X160048107Y-78720945D01*
X160133610Y-78702993D01*
X160229646Y-78717865D01*
G37*
X160229646Y-78717865D02*
X160332933Y-78764134D01*
X160440189Y-78840372D01*
X160548131Y-78945153D01*
X160653479Y-79077050D01*
X160743725Y-79218396D01*
X160836396Y-79397457D01*
X160924060Y-79599676D01*
X160998911Y-79805971D01*
X161038770Y-79939814D01*
X161063690Y-80057066D01*
X161082015Y-80190801D01*
X161093076Y-80329165D01*
X161096202Y-80460302D01*
X161090725Y-80572357D01*
X161078566Y-80644636D01*
X161049729Y-80711537D01*
X161002506Y-80782452D01*
X160945829Y-80847390D01*
X160888633Y-80896356D01*
X160839853Y-80919357D01*
X160832410Y-80919968D01*
X160792765Y-80909704D01*
X160732692Y-80883471D01*
X160686317Y-80858815D01*
X160573216Y-80776784D01*
X160456109Y-80661306D01*
X160340382Y-80520214D01*
X160231418Y-80361340D01*
X160134601Y-80192517D01*
X160055317Y-80021576D01*
X160000115Y-79860635D01*
X159963284Y-79706950D01*
X159933653Y-79544756D01*
X159911836Y-79381884D01*
X159898446Y-79226168D01*
X159894097Y-79085438D01*
X159899402Y-78967527D01*
X159914975Y-78880267D01*
X159921828Y-78861028D01*
X159976419Y-78773148D01*
X160048107Y-78720945D01*
X160133610Y-78702993D01*
X160229646Y-78717865D01*
G36*
X156784858Y-80787912D02*
G01*
X156823514Y-80813955D01*
X156866782Y-80864978D01*
X156904671Y-80926223D01*
X156927193Y-80982935D01*
X156929667Y-81001821D01*
X156924014Y-81033920D01*
X156902187Y-81059949D01*
X156856879Y-81084694D01*
X156780784Y-81112941D01*
X156739167Y-81126588D01*
X156675070Y-81149803D01*
X156581719Y-81187069D01*
X156468240Y-81234574D01*
X156343759Y-81288507D01*
X156231167Y-81338799D01*
X155796038Y-81526897D01*
X155357920Y-81698393D01*
X154922355Y-81851603D01*
X154494883Y-81984841D01*
X154081047Y-82096423D01*
X153686388Y-82184662D01*
X153316448Y-82247876D01*
X153186250Y-82264665D01*
X153011051Y-82281704D01*
X152801224Y-82296520D01*
X152564425Y-82308951D01*
X152308311Y-82318833D01*
X152040537Y-82326005D01*
X151768759Y-82330302D01*
X151500632Y-82331563D01*
X151243814Y-82329623D01*
X151005959Y-82324321D01*
X150795611Y-82315542D01*
X150675363Y-82307306D01*
X150540703Y-82295259D01*
X150398939Y-82280356D01*
X150257379Y-82263551D01*
X150123330Y-82245798D01*
X150004097Y-82228051D01*
X149906990Y-82211266D01*
X149839314Y-82196395D01*
X149812375Y-82187130D01*
X149786414Y-82152337D01*
X149775477Y-82094130D01*
X149780146Y-82028892D01*
X149801004Y-81973003D01*
X149804581Y-81967759D01*
X149817492Y-81952419D01*
X149834264Y-81942872D01*
X149861855Y-81939254D01*
X149907222Y-81941702D01*
X149977324Y-81950354D01*
X150079119Y-81965347D01*
X150137956Y-81974327D01*
X150398524Y-82008817D01*
X150675384Y-82034633D01*
X150972898Y-82051907D01*
X151295428Y-82060771D01*
X151647336Y-82061358D01*
X152032985Y-82053800D01*
X152368250Y-82041997D01*
X152663190Y-82028474D01*
X152922985Y-82013065D01*
X153154819Y-81994613D01*
X153365875Y-81971957D01*
X153563334Y-81943938D01*
X153754380Y-81909397D01*
X153946195Y-81867176D01*
X154145963Y-81816113D01*
X154360866Y-81755052D01*
X154598086Y-81682831D01*
X154602828Y-81681352D01*
X154850887Y-81598949D01*
X155125153Y-81499050D01*
X155415480Y-81385854D01*
X155711724Y-81263562D01*
X156003738Y-81136371D01*
X156281379Y-81008483D01*
X156534502Y-80884096D01*
X156558416Y-80871836D01*
X156653645Y-80826262D01*
X156729046Y-80797127D01*
X156777505Y-80787066D01*
X156784858Y-80787912D01*
G37*
X156784858Y-80787912D02*
X156823514Y-80813955D01*
X156866782Y-80864978D01*
X156904671Y-80926223D01*
X156927193Y-80982935D01*
X156929667Y-81001821D01*
X156924014Y-81033920D01*
X156902187Y-81059949D01*
X156856879Y-81084694D01*
X156780784Y-81112941D01*
X156739167Y-81126588D01*
X156675070Y-81149803D01*
X156581719Y-81187069D01*
X156468240Y-81234574D01*
X156343759Y-81288507D01*
X156231167Y-81338799D01*
X155796038Y-81526897D01*
X155357920Y-81698393D01*
X154922355Y-81851603D01*
X154494883Y-81984841D01*
X154081047Y-82096423D01*
X153686388Y-82184662D01*
X153316448Y-82247876D01*
X153186250Y-82264665D01*
X153011051Y-82281704D01*
X152801224Y-82296520D01*
X152564425Y-82308951D01*
X152308311Y-82318833D01*
X152040537Y-82326005D01*
X151768759Y-82330302D01*
X151500632Y-82331563D01*
X151243814Y-82329623D01*
X151005959Y-82324321D01*
X150795611Y-82315542D01*
X150675363Y-82307306D01*
X150540703Y-82295259D01*
X150398939Y-82280356D01*
X150257379Y-82263551D01*
X150123330Y-82245798D01*
X150004097Y-82228051D01*
X149906990Y-82211266D01*
X149839314Y-82196395D01*
X149812375Y-82187130D01*
X149786414Y-82152337D01*
X149775477Y-82094130D01*
X149780146Y-82028892D01*
X149801004Y-81973003D01*
X149804581Y-81967759D01*
X149817492Y-81952419D01*
X149834264Y-81942872D01*
X149861855Y-81939254D01*
X149907222Y-81941702D01*
X149977324Y-81950354D01*
X150079119Y-81965347D01*
X150137956Y-81974327D01*
X150398524Y-82008817D01*
X150675384Y-82034633D01*
X150972898Y-82051907D01*
X151295428Y-82060771D01*
X151647336Y-82061358D01*
X152032985Y-82053800D01*
X152368250Y-82041997D01*
X152663190Y-82028474D01*
X152922985Y-82013065D01*
X153154819Y-81994613D01*
X153365875Y-81971957D01*
X153563334Y-81943938D01*
X153754380Y-81909397D01*
X153946195Y-81867176D01*
X154145963Y-81816113D01*
X154360866Y-81755052D01*
X154598086Y-81682831D01*
X154602828Y-81681352D01*
X154850887Y-81598949D01*
X155125153Y-81499050D01*
X155415480Y-81385854D01*
X155711724Y-81263562D01*
X156003738Y-81136371D01*
X156281379Y-81008483D01*
X156534502Y-80884096D01*
X156558416Y-80871836D01*
X156653645Y-80826262D01*
X156729046Y-80797127D01*
X156777505Y-80787066D01*
X156784858Y-80787912D01*
G36*
X157925969Y-82605658D02*
G01*
X157946432Y-82618681D01*
X157961702Y-82634035D01*
X157991664Y-82678208D01*
X158018908Y-82737305D01*
X158037814Y-82796017D01*
X158042764Y-82839039D01*
X158040108Y-82847642D01*
X158016975Y-82861479D01*
X157963882Y-82884643D01*
X157890946Y-82912820D01*
X157866392Y-82921719D01*
X157804425Y-82944086D01*
X157709396Y-82978708D01*
X157587945Y-83023152D01*
X157446713Y-83074982D01*
X157292340Y-83131763D01*
X157131467Y-83191062D01*
X157088417Y-83206953D01*
X156919816Y-83268789D01*
X156749458Y-83330514D01*
X156585403Y-83389262D01*
X156435712Y-83442167D01*
X156308444Y-83486363D01*
X156211661Y-83518985D01*
X156201220Y-83522394D01*
X155641405Y-83690429D01*
X155072329Y-83834599D01*
X154504191Y-83952699D01*
X153947192Y-84042525D01*
X153602338Y-84084047D01*
X153484083Y-84093838D01*
X153332410Y-84102631D01*
X153154572Y-84110312D01*
X152957819Y-84116767D01*
X152749405Y-84121883D01*
X152536581Y-84125547D01*
X152326599Y-84127644D01*
X152126713Y-84128062D01*
X151944173Y-84126687D01*
X151786232Y-84123405D01*
X151660142Y-84118104D01*
X151616833Y-84115119D01*
X151489777Y-84103325D01*
X151340606Y-84086997D01*
X151174343Y-84066897D01*
X150996012Y-84043789D01*
X150810635Y-84018434D01*
X150623234Y-83991597D01*
X150438834Y-83964040D01*
X150262456Y-83936525D01*
X150099124Y-83909817D01*
X149953860Y-83884677D01*
X149831688Y-83861868D01*
X149737629Y-83842155D01*
X149676708Y-83826298D01*
X149655577Y-83817228D01*
X149639487Y-83783206D01*
X149629594Y-83723036D01*
X149626847Y-83652578D01*
X149632193Y-83587690D01*
X149640014Y-83557148D01*
X149648534Y-83540808D01*
X149663037Y-83530769D01*
X149689114Y-83527723D01*
X149732353Y-83532363D01*
X149798345Y-83545383D01*
X149892679Y-83567477D01*
X150020943Y-83599337D01*
X150060561Y-83609311D01*
X150385150Y-83683637D01*
X150732643Y-83749645D01*
X151083886Y-83803860D01*
X151246417Y-83824467D01*
X151351319Y-83833521D01*
X151492329Y-83840834D01*
X151663260Y-83846433D01*
X151857924Y-83850348D01*
X152070133Y-83852607D01*
X152293699Y-83853239D01*
X152522434Y-83852272D01*
X152750151Y-83849736D01*
X152970661Y-83845659D01*
X153177777Y-83840069D01*
X153365311Y-83832996D01*
X153527075Y-83824468D01*
X153656881Y-83814513D01*
X153670000Y-83813226D01*
X154003230Y-83776268D01*
X154306373Y-83735031D01*
X154591631Y-83687179D01*
X154871205Y-83630378D01*
X155157296Y-83562290D01*
X155462107Y-83480581D01*
X155574068Y-83448736D01*
X155945147Y-83337151D01*
X156317382Y-83216255D01*
X156681916Y-83089227D01*
X157029896Y-82959246D01*
X157352465Y-82829490D01*
X157602961Y-82720431D01*
X157718569Y-82668294D01*
X157802199Y-82632307D01*
X157860327Y-82610912D01*
X157899425Y-82602548D01*
X157925969Y-82605658D01*
G37*
X157925969Y-82605658D02*
X157946432Y-82618681D01*
X157961702Y-82634035D01*
X157991664Y-82678208D01*
X158018908Y-82737305D01*
X158037814Y-82796017D01*
X158042764Y-82839039D01*
X158040108Y-82847642D01*
X158016975Y-82861479D01*
X157963882Y-82884643D01*
X157890946Y-82912820D01*
X157866392Y-82921719D01*
X157804425Y-82944086D01*
X157709396Y-82978708D01*
X157587945Y-83023152D01*
X157446713Y-83074982D01*
X157292340Y-83131763D01*
X157131467Y-83191062D01*
X157088417Y-83206953D01*
X156919816Y-83268789D01*
X156749458Y-83330514D01*
X156585403Y-83389262D01*
X156435712Y-83442167D01*
X156308444Y-83486363D01*
X156211661Y-83518985D01*
X156201220Y-83522394D01*
X155641405Y-83690429D01*
X155072329Y-83834599D01*
X154504191Y-83952699D01*
X153947192Y-84042525D01*
X153602338Y-84084047D01*
X153484083Y-84093838D01*
X153332410Y-84102631D01*
X153154572Y-84110312D01*
X152957819Y-84116767D01*
X152749405Y-84121883D01*
X152536581Y-84125547D01*
X152326599Y-84127644D01*
X152126713Y-84128062D01*
X151944173Y-84126687D01*
X151786232Y-84123405D01*
X151660142Y-84118104D01*
X151616833Y-84115119D01*
X151489777Y-84103325D01*
X151340606Y-84086997D01*
X151174343Y-84066897D01*
X150996012Y-84043789D01*
X150810635Y-84018434D01*
X150623234Y-83991597D01*
X150438834Y-83964040D01*
X150262456Y-83936525D01*
X150099124Y-83909817D01*
X149953860Y-83884677D01*
X149831688Y-83861868D01*
X149737629Y-83842155D01*
X149676708Y-83826298D01*
X149655577Y-83817228D01*
X149639487Y-83783206D01*
X149629594Y-83723036D01*
X149626847Y-83652578D01*
X149632193Y-83587690D01*
X149640014Y-83557148D01*
X149648534Y-83540808D01*
X149663037Y-83530769D01*
X149689114Y-83527723D01*
X149732353Y-83532363D01*
X149798345Y-83545383D01*
X149892679Y-83567477D01*
X150020943Y-83599337D01*
X150060561Y-83609311D01*
X150385150Y-83683637D01*
X150732643Y-83749645D01*
X151083886Y-83803860D01*
X151246417Y-83824467D01*
X151351319Y-83833521D01*
X151492329Y-83840834D01*
X151663260Y-83846433D01*
X151857924Y-83850348D01*
X152070133Y-83852607D01*
X152293699Y-83853239D01*
X152522434Y-83852272D01*
X152750151Y-83849736D01*
X152970661Y-83845659D01*
X153177777Y-83840069D01*
X153365311Y-83832996D01*
X153527075Y-83824468D01*
X153656881Y-83814513D01*
X153670000Y-83813226D01*
X154003230Y-83776268D01*
X154306373Y-83735031D01*
X154591631Y-83687179D01*
X154871205Y-83630378D01*
X155157296Y-83562290D01*
X155462107Y-83480581D01*
X155574068Y-83448736D01*
X155945147Y-83337151D01*
X156317382Y-83216255D01*
X156681916Y-83089227D01*
X157029896Y-82959246D01*
X157352465Y-82829490D01*
X157602961Y-82720431D01*
X157718569Y-82668294D01*
X157802199Y-82632307D01*
X157860327Y-82610912D01*
X157899425Y-82602548D01*
X157925969Y-82605658D01*
G36*
X158821631Y-84740822D02*
G01*
X158844313Y-84793855D01*
X158864931Y-84857909D01*
X158882986Y-84929097D01*
X158886658Y-84979473D01*
X158870517Y-85014849D01*
X158829136Y-85041037D01*
X158757084Y-85063850D01*
X158649029Y-85089079D01*
X158573755Y-85107705D01*
X158466325Y-85136943D01*
X158334879Y-85174442D01*
X158187560Y-85217850D01*
X158032510Y-85264812D01*
X157918779Y-85300095D01*
X157521859Y-85422385D01*
X157157804Y-85529634D01*
X156820460Y-85623222D01*
X156503674Y-85704529D01*
X156201293Y-85774935D01*
X155907162Y-85835821D01*
X155615128Y-85888565D01*
X155319038Y-85934549D01*
X155012737Y-85975151D01*
X154796546Y-86000274D01*
X154615550Y-86017450D01*
X154401726Y-86033065D01*
X154162793Y-86046901D01*
X153906470Y-86058741D01*
X153640474Y-86068368D01*
X153372526Y-86075564D01*
X153110344Y-86080111D01*
X152861646Y-86081792D01*
X152634151Y-86080390D01*
X152435578Y-86075688D01*
X152315333Y-86070165D01*
X152079603Y-86051017D01*
X151811953Y-86020034D01*
X151520659Y-85978671D01*
X151213995Y-85928380D01*
X150900235Y-85870618D01*
X150587653Y-85806839D01*
X150284524Y-85738497D01*
X149999122Y-85667046D01*
X149955250Y-85655313D01*
X149849595Y-85626384D01*
X149777976Y-85604780D01*
X149733494Y-85587030D01*
X149709250Y-85569665D01*
X149698345Y-85549215D01*
X149694079Y-85523952D01*
X149694877Y-85468293D01*
X149705563Y-85404698D01*
X149722439Y-85347027D01*
X149741807Y-85309141D01*
X149753380Y-85301667D01*
X149778589Y-85307240D01*
X149838026Y-85322785D01*
X149925247Y-85346543D01*
X150033804Y-85376754D01*
X150157253Y-85411656D01*
X150181156Y-85418472D01*
X150458192Y-85495858D01*
X150717927Y-85565005D01*
X150955727Y-85624782D01*
X151166960Y-85674062D01*
X151346992Y-85711715D01*
X151479250Y-85734839D01*
X151625965Y-85754010D01*
X151793474Y-85770049D01*
X151984590Y-85783047D01*
X152202127Y-85793093D01*
X152448899Y-85800278D01*
X152727722Y-85804691D01*
X153041409Y-85806422D01*
X153392774Y-85805561D01*
X153634338Y-85803733D01*
X153911818Y-85800884D01*
X154152240Y-85797566D01*
X154360881Y-85793344D01*
X154543015Y-85787782D01*
X154703919Y-85780443D01*
X154848869Y-85770891D01*
X154983140Y-85758690D01*
X155112008Y-85743403D01*
X155240748Y-85724595D01*
X155374637Y-85701829D01*
X155518951Y-85674669D01*
X155678964Y-85642679D01*
X155744493Y-85629267D01*
X156014422Y-85571150D01*
X156296335Y-85505595D01*
X156585081Y-85434102D01*
X156875507Y-85358172D01*
X157162463Y-85279305D01*
X157440797Y-85199001D01*
X157705356Y-85118763D01*
X157950989Y-85040089D01*
X158172544Y-84964481D01*
X158364870Y-84893439D01*
X158522814Y-84828464D01*
X158573951Y-84805107D01*
X158660269Y-84766048D01*
X158733556Y-84736282D01*
X158784851Y-84719245D01*
X158803789Y-84716989D01*
X158821631Y-84740822D01*
G37*
X158821631Y-84740822D02*
X158844313Y-84793855D01*
X158864931Y-84857909D01*
X158882986Y-84929097D01*
X158886658Y-84979473D01*
X158870517Y-85014849D01*
X158829136Y-85041037D01*
X158757084Y-85063850D01*
X158649029Y-85089079D01*
X158573755Y-85107705D01*
X158466325Y-85136943D01*
X158334879Y-85174442D01*
X158187560Y-85217850D01*
X158032510Y-85264812D01*
X157918779Y-85300095D01*
X157521859Y-85422385D01*
X157157804Y-85529634D01*
X156820460Y-85623222D01*
X156503674Y-85704529D01*
X156201293Y-85774935D01*
X155907162Y-85835821D01*
X155615128Y-85888565D01*
X155319038Y-85934549D01*
X155012737Y-85975151D01*
X154796546Y-86000274D01*
X154615550Y-86017450D01*
X154401726Y-86033065D01*
X154162793Y-86046901D01*
X153906470Y-86058741D01*
X153640474Y-86068368D01*
X153372526Y-86075564D01*
X153110344Y-86080111D01*
X152861646Y-86081792D01*
X152634151Y-86080390D01*
X152435578Y-86075688D01*
X152315333Y-86070165D01*
X152079603Y-86051017D01*
X151811953Y-86020034D01*
X151520659Y-85978671D01*
X151213995Y-85928380D01*
X150900235Y-85870618D01*
X150587653Y-85806839D01*
X150284524Y-85738497D01*
X149999122Y-85667046D01*
X149955250Y-85655313D01*
X149849595Y-85626384D01*
X149777976Y-85604780D01*
X149733494Y-85587030D01*
X149709250Y-85569665D01*
X149698345Y-85549215D01*
X149694079Y-85523952D01*
X149694877Y-85468293D01*
X149705563Y-85404698D01*
X149722439Y-85347027D01*
X149741807Y-85309141D01*
X149753380Y-85301667D01*
X149778589Y-85307240D01*
X149838026Y-85322785D01*
X149925247Y-85346543D01*
X150033804Y-85376754D01*
X150157253Y-85411656D01*
X150181156Y-85418472D01*
X150458192Y-85495858D01*
X150717927Y-85565005D01*
X150955727Y-85624782D01*
X151166960Y-85674062D01*
X151346992Y-85711715D01*
X151479250Y-85734839D01*
X151625965Y-85754010D01*
X151793474Y-85770049D01*
X151984590Y-85783047D01*
X152202127Y-85793093D01*
X152448899Y-85800278D01*
X152727722Y-85804691D01*
X153041409Y-85806422D01*
X153392774Y-85805561D01*
X153634338Y-85803733D01*
X153911818Y-85800884D01*
X154152240Y-85797566D01*
X154360881Y-85793344D01*
X154543015Y-85787782D01*
X154703919Y-85780443D01*
X154848869Y-85770891D01*
X154983140Y-85758690D01*
X155112008Y-85743403D01*
X155240748Y-85724595D01*
X155374637Y-85701829D01*
X155518951Y-85674669D01*
X155678964Y-85642679D01*
X155744493Y-85629267D01*
X156014422Y-85571150D01*
X156296335Y-85505595D01*
X156585081Y-85434102D01*
X156875507Y-85358172D01*
X157162463Y-85279305D01*
X157440797Y-85199001D01*
X157705356Y-85118763D01*
X157950989Y-85040089D01*
X158172544Y-84964481D01*
X158364870Y-84893439D01*
X158522814Y-84828464D01*
X158573951Y-84805107D01*
X158660269Y-84766048D01*
X158733556Y-84736282D01*
X158784851Y-84719245D01*
X158803789Y-84716989D01*
X158821631Y-84740822D01*
G36*
X159390075Y-65290530D02*
G01*
X159753040Y-65336889D01*
X160102674Y-65423215D01*
X160438174Y-65549257D01*
X160758735Y-65714764D01*
X161063553Y-65919484D01*
X161077406Y-65930010D01*
X161181881Y-66015105D01*
X161305644Y-66124356D01*
X161440448Y-66249766D01*
X161578045Y-66383336D01*
X161710190Y-66517066D01*
X161828636Y-66642959D01*
X161921856Y-66749083D01*
X162104888Y-66984511D01*
X162280619Y-67245026D01*
X162450497Y-67533441D01*
X162615968Y-67852569D01*
X162778479Y-68205222D01*
X162939479Y-68594211D01*
X163100414Y-69022350D01*
X163120121Y-69077417D01*
X163194347Y-69283769D01*
X163256573Y-69451978D01*
X163307667Y-69584228D01*
X163348501Y-69682703D01*
X163379945Y-69749587D01*
X163402870Y-69787067D01*
X163402972Y-69787194D01*
X163422938Y-69808374D01*
X163446805Y-69819815D01*
X163484627Y-69822538D01*
X163546460Y-69817559D01*
X163617967Y-69808966D01*
X163813014Y-69790548D01*
X163970358Y-69789120D01*
X164091133Y-69804821D01*
X164176470Y-69837785D01*
X164223904Y-69882321D01*
X164242234Y-69915800D01*
X164244436Y-69947127D01*
X164229082Y-69991305D01*
X164209599Y-70032809D01*
X164174514Y-70087910D01*
X164112076Y-70167052D01*
X164026152Y-70265684D01*
X163920607Y-70379254D01*
X163875994Y-70425550D01*
X163590364Y-70719188D01*
X163678432Y-71096686D01*
X163706438Y-71217445D01*
X163730769Y-71323717D01*
X163749902Y-71408741D01*
X163762316Y-71465758D01*
X163766500Y-71487842D01*
X163771804Y-71493049D01*
X163790842Y-71494492D01*
X163828304Y-71491561D01*
X163888880Y-71483646D01*
X163977261Y-71470138D01*
X164098135Y-71450426D01*
X164248937Y-71425128D01*
X164393867Y-71401183D01*
X164503446Y-71385133D01*
X164583943Y-71377154D01*
X164641632Y-71377422D01*
X164682782Y-71386113D01*
X164713666Y-71403401D01*
X164740555Y-71429463D01*
X164748868Y-71439124D01*
X164785584Y-71494845D01*
X164801351Y-71553303D01*
X164794341Y-71617513D01*
X164762726Y-71690489D01*
X164704676Y-71775245D01*
X164618363Y-71874797D01*
X164501957Y-71992157D01*
X164353631Y-72130341D01*
X164300373Y-72178333D01*
X164189984Y-72277938D01*
X164107770Y-72354323D01*
X164049763Y-72411815D01*
X164011994Y-72454741D01*
X163990493Y-72487429D01*
X163981292Y-72514206D01*
X163980044Y-72527583D01*
X163982880Y-72571833D01*
X163991521Y-72649281D01*
X164004712Y-72751387D01*
X164021195Y-72869610D01*
X164039713Y-72995408D01*
X164059010Y-73120241D01*
X164077828Y-73235567D01*
X164094911Y-73332845D01*
X164108830Y-73402764D01*
X164133990Y-73515945D01*
X164273036Y-73501700D01*
X164340521Y-73493485D01*
X164439583Y-73479733D01*
X164560056Y-73461936D01*
X164691772Y-73441588D01*
X164791752Y-73425560D01*
X164926312Y-73405026D01*
X165058410Y-73387372D01*
X165177549Y-73373822D01*
X165273232Y-73365600D01*
X165322521Y-73363667D01*
X165405486Y-73365534D01*
X165458585Y-73373186D01*
X165494198Y-73389700D01*
X165519644Y-73412656D01*
X165550982Y-73458848D01*
X165562415Y-73511670D01*
X165552472Y-73572782D01*
X165519683Y-73643844D01*
X165462577Y-73726515D01*
X165379683Y-73822455D01*
X165269530Y-73933324D01*
X165130648Y-74060781D01*
X164961567Y-74206486D01*
X164760814Y-74372099D01*
X164526920Y-74559279D01*
X164449346Y-74620456D01*
X164373616Y-74684635D01*
X164316696Y-74742075D01*
X164285851Y-74785244D01*
X164283104Y-74792768D01*
X164279122Y-74862991D01*
X164293612Y-74944906D01*
X164321741Y-75022607D01*
X164358677Y-75080190D01*
X164374574Y-75093857D01*
X164411452Y-75110019D01*
X164481921Y-75133945D01*
X164578454Y-75163343D01*
X164693521Y-75195916D01*
X164816706Y-75228628D01*
X165130273Y-75313310D01*
X165412977Y-75398043D01*
X165660829Y-75481574D01*
X165838685Y-75549695D01*
X165995286Y-75613901D01*
X165981687Y-75901659D01*
X165949196Y-76334542D01*
X165891921Y-76794889D01*
X165811023Y-77276712D01*
X165707661Y-77774021D01*
X165582997Y-78280830D01*
X165438189Y-78791148D01*
X165394606Y-78932529D01*
X165356225Y-79055417D01*
X165322598Y-79164094D01*
X165295649Y-79252261D01*
X165277302Y-79313617D01*
X165269480Y-79341863D01*
X165269333Y-79342863D01*
X165260108Y-79353291D01*
X165229785Y-79346056D01*
X165174389Y-79319397D01*
X165089946Y-79271549D01*
X165036026Y-79239393D01*
X164941630Y-79186388D01*
X164839772Y-79135574D01*
X164740273Y-79091202D01*
X164652953Y-79057519D01*
X164587633Y-79038776D01*
X164566723Y-79036333D01*
X164557983Y-79053220D01*
X164552579Y-79104885D01*
X164550503Y-79192835D01*
X164551748Y-79318577D01*
X164556307Y-79483617D01*
X164563504Y-79673466D01*
X164577200Y-80003682D01*
X164743443Y-80103308D01*
X164822037Y-80151715D01*
X164869326Y-80185393D01*
X164891133Y-80209949D01*
X164893279Y-80230992D01*
X164888313Y-80242871D01*
X164861401Y-80281567D01*
X164845746Y-80295907D01*
X164819789Y-80291174D01*
X164766649Y-80267974D01*
X164694971Y-80230395D01*
X164639484Y-80198376D01*
X164561942Y-80152039D01*
X164499593Y-80114811D01*
X164460266Y-80091365D01*
X164450629Y-80085655D01*
X164447800Y-80064302D01*
X164444088Y-80007131D01*
X164439717Y-79920644D01*
X164434911Y-79811342D01*
X164429893Y-79685726D01*
X164424887Y-79550297D01*
X164420115Y-79411558D01*
X164415803Y-79276009D01*
X164412173Y-79150151D01*
X164409450Y-79040486D01*
X164407856Y-78953515D01*
X164407615Y-78895739D01*
X164408944Y-78873667D01*
X164439370Y-78869314D01*
X164500389Y-78879327D01*
X164583800Y-78901126D01*
X164681404Y-78932130D01*
X164785000Y-78969759D01*
X164886388Y-79011433D01*
X164967006Y-79049268D01*
X165183263Y-79158646D01*
X165266880Y-78891115D01*
X165450174Y-78260250D01*
X165599482Y-77647987D01*
X165715820Y-77049124D01*
X165800209Y-76458455D01*
X165851477Y-75903613D01*
X165865165Y-75702476D01*
X165794791Y-75675023D01*
X165610235Y-75607244D01*
X165397203Y-75536107D01*
X165168889Y-75465740D01*
X164938482Y-75400271D01*
X164802098Y-75364390D01*
X164633654Y-75320279D01*
X164501579Y-75282124D01*
X164400728Y-75247605D01*
X164325955Y-75214399D01*
X164272114Y-75180183D01*
X164234059Y-75142637D01*
X164206643Y-75099438D01*
X164204238Y-75094613D01*
X164171978Y-75002987D01*
X164154233Y-74898794D01*
X164152535Y-74798606D01*
X164168414Y-74718996D01*
X164169333Y-74716723D01*
X164197599Y-74676173D01*
X164257818Y-74614754D01*
X164350889Y-74531643D01*
X164477709Y-74426016D01*
X164547925Y-74369402D01*
X164751772Y-74203909D01*
X164932124Y-74052424D01*
X165087389Y-73916465D01*
X165215975Y-73797553D01*
X165316292Y-73697206D01*
X165386749Y-73616944D01*
X165425755Y-73558286D01*
X165432489Y-73524694D01*
X165410419Y-73506237D01*
X165358013Y-73497576D01*
X165273016Y-73498825D01*
X165153175Y-73510100D01*
X164996234Y-73531517D01*
X164852335Y-73554386D01*
X164711137Y-73576717D01*
X164568878Y-73597263D01*
X164436818Y-73614535D01*
X164326216Y-73627043D01*
X164261055Y-73632600D01*
X164169562Y-73637797D01*
X164110768Y-73638322D01*
X164075148Y-73632525D01*
X164053178Y-73618756D01*
X164035332Y-73595365D01*
X164033952Y-73593266D01*
X164013134Y-73547295D01*
X163990031Y-73474667D01*
X163969395Y-73390470D01*
X163968042Y-73383926D01*
X163955347Y-73315824D01*
X163939254Y-73220865D01*
X163920952Y-73107035D01*
X163901627Y-72982321D01*
X163882469Y-72854710D01*
X163864665Y-72732190D01*
X163849404Y-72622747D01*
X163837872Y-72534368D01*
X163831258Y-72475041D01*
X163830145Y-72456826D01*
X163845326Y-72432865D01*
X163887713Y-72385590D01*
X163952701Y-72319621D01*
X164035688Y-72239577D01*
X164132070Y-72150077D01*
X164170934Y-72114833D01*
X164323378Y-71975725D01*
X164444919Y-71860478D01*
X164537688Y-71766475D01*
X164603813Y-71691099D01*
X164645425Y-71631735D01*
X164664653Y-71585766D01*
X164663626Y-71550576D01*
X164648868Y-71527629D01*
X164630894Y-71514523D01*
X164604710Y-71508504D01*
X164562341Y-71509951D01*
X164495815Y-71519243D01*
X164397160Y-71536756D01*
X164376926Y-71540521D01*
X164274152Y-71558906D01*
X164160322Y-71577943D01*
X164043028Y-71596522D01*
X163929859Y-71613533D01*
X163828407Y-71627866D01*
X163746261Y-71638411D01*
X163691011Y-71644058D01*
X163670335Y-71643856D01*
X163663810Y-71621766D01*
X163649692Y-71565459D01*
X163629613Y-71482034D01*
X163605207Y-71378590D01*
X163578104Y-71262226D01*
X163549937Y-71140041D01*
X163522338Y-71019134D01*
X163496940Y-70906603D01*
X163475374Y-70809548D01*
X163459274Y-70735068D01*
X163450270Y-70690261D01*
X163448934Y-70680920D01*
X163463478Y-70657888D01*
X163503600Y-70611385D01*
X163564101Y-70547010D01*
X163639785Y-70470363D01*
X163690918Y-70420233D01*
X163789611Y-70322262D01*
X163882528Y-70225664D01*
X163965027Y-70135695D01*
X164032464Y-70057611D01*
X164080197Y-69996667D01*
X164103583Y-69958120D01*
X164105167Y-69951292D01*
X164085249Y-69936890D01*
X164029887Y-69927737D01*
X163945669Y-69924035D01*
X163839182Y-69925984D01*
X163717014Y-69933787D01*
X163671170Y-69937998D01*
X163560925Y-69948404D01*
X163484136Y-69953645D01*
X163432205Y-69953398D01*
X163396533Y-69947340D01*
X163368520Y-69935148D01*
X163353793Y-69926058D01*
X163321115Y-69896264D01*
X163285619Y-69846260D01*
X163245745Y-69772629D01*
X163199932Y-69671954D01*
X163146622Y-69540817D01*
X163084254Y-69375799D01*
X163014736Y-69183250D01*
X162926240Y-68937180D01*
X162846920Y-68723715D01*
X162773552Y-68534985D01*
X162702914Y-68363117D01*
X162631781Y-68200239D01*
X162556931Y-68038481D01*
X162486057Y-67892083D01*
X162326027Y-67584730D01*
X162163484Y-67310219D01*
X161991766Y-67059262D01*
X161804211Y-66822572D01*
X161594156Y-66590863D01*
X161445779Y-66441808D01*
X161218984Y-66229796D01*
X161006639Y-66050881D01*
X160802444Y-65901262D01*
X160600097Y-65777138D01*
X160393297Y-65674706D01*
X160175744Y-65590166D01*
X159941137Y-65519716D01*
X159899654Y-65509007D01*
X159547694Y-65441538D01*
X159188490Y-65413977D01*
X158827204Y-65425760D01*
X158469002Y-65476319D01*
X158119047Y-65565091D01*
X157782504Y-65691508D01*
X157646279Y-65755753D01*
X157508994Y-65827613D01*
X157385228Y-65899692D01*
X157267834Y-65977302D01*
X157149663Y-66065752D01*
X157023567Y-66170350D01*
X156882397Y-66296406D01*
X156742203Y-66427237D01*
X156662403Y-66500959D01*
X156592546Y-66562128D01*
X156538678Y-66605703D01*
X156506844Y-66626645D01*
X156501855Y-66627646D01*
X156481195Y-66610170D01*
X156437809Y-66566457D01*
X156376955Y-66502035D01*
X156303891Y-66422432D01*
X156254568Y-66367658D01*
X156073449Y-66174403D01*
X155903747Y-66014169D01*
X155738652Y-65881770D01*
X155571359Y-65772016D01*
X155395059Y-65679719D01*
X155293654Y-65635285D01*
X155004999Y-65538659D01*
X154703438Y-65479692D01*
X154394247Y-65457812D01*
X154082706Y-65472449D01*
X153774093Y-65523034D01*
X153473686Y-65608995D01*
X153186764Y-65729763D01*
X152918604Y-65884768D01*
X152906009Y-65893253D01*
X152695799Y-66057608D01*
X152493484Y-66257546D01*
X152303220Y-66486483D01*
X152129164Y-66737835D01*
X151975472Y-67005017D01*
X151846303Y-67281445D01*
X151745812Y-67560533D01*
X151678157Y-67835699D01*
X151677522Y-67839167D01*
X151662248Y-67954374D01*
X151652378Y-68096560D01*
X151647619Y-68258022D01*
X151647678Y-68431059D01*
X151652261Y-68607968D01*
X151661073Y-68781049D01*
X151673823Y-68942599D01*
X151690216Y-69084917D01*
X151709958Y-69200301D01*
X151732460Y-69280303D01*
X151729712Y-69320036D01*
X151705966Y-69362907D01*
X151682293Y-69386240D01*
X151649983Y-69402419D01*
X151599741Y-69413896D01*
X151522271Y-69423125D01*
X151456332Y-69428808D01*
X151382023Y-69432518D01*
X151272638Y-69434766D01*
X151131434Y-69435644D01*
X150961667Y-69435241D01*
X150766592Y-69433649D01*
X150549466Y-69430958D01*
X150313546Y-69427259D01*
X150062086Y-69422641D01*
X149798343Y-69417196D01*
X149525574Y-69411014D01*
X149247034Y-69404186D01*
X148965979Y-69396802D01*
X148685666Y-69388953D01*
X148409350Y-69380729D01*
X148140288Y-69372221D01*
X147881735Y-69363519D01*
X147636949Y-69354714D01*
X147409184Y-69345896D01*
X147201698Y-69337156D01*
X147017745Y-69328585D01*
X146860583Y-69320272D01*
X146733467Y-69312309D01*
X146639653Y-69304786D01*
X146582398Y-69297794D01*
X146565261Y-69292817D01*
X146558248Y-69268036D01*
X146548349Y-69209681D01*
X146536847Y-69126306D01*
X146525028Y-69026465D01*
X146524326Y-69020038D01*
X146488306Y-68739544D01*
X146444397Y-68496027D01*
X146390780Y-68284568D01*
X146325637Y-68100250D01*
X146247149Y-67938152D01*
X146153495Y-67793356D01*
X146042859Y-67660945D01*
X146008598Y-67625428D01*
X145892662Y-67518492D01*
X145786108Y-67444663D01*
X145678638Y-67399565D01*
X145559953Y-67378823D01*
X145425583Y-67377779D01*
X145292502Y-67394075D01*
X145167744Y-67432093D01*
X145046421Y-67495056D01*
X144923647Y-67586183D01*
X144794535Y-67708696D01*
X144654196Y-67865813D01*
X144617057Y-67910544D01*
X144557390Y-67983276D01*
X144507490Y-68044083D01*
X144473617Y-68085338D01*
X144462623Y-68098706D01*
X144446115Y-68089180D01*
X144411999Y-68050756D01*
X144365736Y-67990031D01*
X144327169Y-67935026D01*
X144204311Y-67764746D01*
X144089268Y-67630701D01*
X143975880Y-67529164D01*
X143857992Y-67456407D01*
X143729447Y-67408705D01*
X143584087Y-67382329D01*
X143415754Y-67373554D01*
X143399481Y-67373500D01*
X143283054Y-67376400D01*
X143192139Y-67388376D01*
X143116013Y-67414339D01*
X143043951Y-67459204D01*
X142965229Y-67527882D01*
X142884209Y-67609545D01*
X142736275Y-67776824D01*
X142620450Y-67940756D01*
X142529527Y-68113681D01*
X142456295Y-68307941D01*
X142434758Y-68378917D01*
X142375010Y-68651776D01*
X142345037Y-68949084D01*
X142344743Y-69265294D01*
X142374033Y-69594856D01*
X142432809Y-69932224D01*
X142463961Y-70065742D01*
X142555274Y-70379175D01*
X142671241Y-70693629D01*
X142807090Y-70998433D01*
X142958054Y-71282915D01*
X143119364Y-71536402D01*
X143124255Y-71543333D01*
X143212533Y-71657897D01*
X143326095Y-71790033D01*
X143456742Y-71931407D01*
X143596279Y-72073685D01*
X143736506Y-72208531D01*
X143869228Y-72327612D01*
X143986246Y-72422593D01*
X143996833Y-72430493D01*
X144219389Y-72583255D01*
X144477306Y-72739410D01*
X144764210Y-72895267D01*
X145008756Y-73016512D01*
X145353929Y-73180910D01*
X145778790Y-73891413D01*
X145900061Y-74092990D01*
X146019739Y-74289595D01*
X146135657Y-74477833D01*
X146245651Y-74654311D01*
X146347556Y-74815633D01*
X146439207Y-74958407D01*
X146518438Y-75079236D01*
X146583085Y-75174726D01*
X146630983Y-75241484D01*
X146659967Y-75276115D01*
X146664077Y-75279401D01*
X146700800Y-75279096D01*
X146758638Y-75245158D01*
X146838347Y-75177028D01*
X146939000Y-75075922D01*
X147076583Y-74930622D01*
X147309417Y-75143369D01*
X147413047Y-75235732D01*
X147526806Y-75333324D01*
X147637440Y-75424985D01*
X147731698Y-75499553D01*
X147738172Y-75504475D01*
X147855211Y-75596522D01*
X147940255Y-75672749D01*
X147997752Y-75738878D01*
X148032151Y-75800628D01*
X148047900Y-75863721D01*
X148050250Y-75905758D01*
X148032651Y-76013416D01*
X147979325Y-76098540D01*
X147890134Y-76162079D01*
X147810767Y-76188490D01*
X147695381Y-76208757D01*
X147549813Y-76223063D01*
X147379902Y-76231592D01*
X147191485Y-76234527D01*
X146990401Y-76232051D01*
X146782488Y-76224349D01*
X146573584Y-76211603D01*
X146369526Y-76193998D01*
X146176154Y-76171717D01*
X145999304Y-76144943D01*
X145844816Y-76113860D01*
X145773381Y-76095528D01*
X145433811Y-75984539D01*
X145119182Y-75848867D01*
X144825428Y-75685628D01*
X144548482Y-75491941D01*
X144284277Y-75264923D01*
X144028747Y-75001691D01*
X143777824Y-74699363D01*
X143747052Y-74659299D01*
X143670621Y-74559879D01*
X143595579Y-74463835D01*
X143529115Y-74380266D01*
X143478421Y-74318269D01*
X143465839Y-74303471D01*
X143381489Y-74206013D01*
X143307180Y-74284804D01*
X143226427Y-74391622D01*
X143152155Y-74529248D01*
X143088509Y-74686222D01*
X143039634Y-74851084D01*
X143009677Y-75012374D01*
X143002109Y-75128159D01*
X143006842Y-75211886D01*
X143019568Y-75321180D01*
X143038218Y-75440487D01*
X143055804Y-75531715D01*
X143078171Y-75640831D01*
X143091168Y-75716177D01*
X143095435Y-75765118D01*
X143091611Y-75795016D01*
X143080336Y-75813235D01*
X143080272Y-75813299D01*
X143033391Y-75837143D01*
X142946418Y-75856185D01*
X142821347Y-75870202D01*
X142660173Y-75878971D01*
X142464887Y-75882271D01*
X142462250Y-75882277D01*
X142246039Y-75884764D01*
X142025107Y-75891093D01*
X141805145Y-75900819D01*
X141591846Y-75913500D01*
X141390903Y-75928692D01*
X141208006Y-75945950D01*
X141048849Y-75964833D01*
X140919123Y-75984896D01*
X140824521Y-76005697D01*
X140805958Y-76011309D01*
X140756755Y-76029252D01*
X140740872Y-76048264D01*
X140752592Y-76083031D01*
X140767111Y-76111093D01*
X140834087Y-76202266D01*
X140938933Y-76296149D01*
X141077484Y-76390437D01*
X141245575Y-76482827D01*
X141439041Y-76571013D01*
X141653717Y-76652691D01*
X141869583Y-76721032D01*
X141972056Y-76751176D01*
X142059880Y-76778294D01*
X142124989Y-76799801D01*
X142159320Y-76813111D01*
X142162076Y-76814792D01*
X142148339Y-76827906D01*
X142101390Y-76858421D01*
X142025423Y-76903913D01*
X141924631Y-76961954D01*
X141803205Y-77030120D01*
X141665339Y-77105986D01*
X141560873Y-77162602D01*
X141335422Y-77284412D01*
X141144812Y-77388274D01*
X140986322Y-77475764D01*
X140857228Y-77548455D01*
X140754809Y-77607924D01*
X140676343Y-77655744D01*
X140619109Y-77693492D01*
X140580384Y-77722741D01*
X140560686Y-77741317D01*
X140529468Y-77795914D01*
X140539685Y-77844225D01*
X140590864Y-77885934D01*
X140682529Y-77920723D01*
X140814206Y-77948276D01*
X140885333Y-77958102D01*
X140967904Y-77966030D01*
X141060709Y-77970525D01*
X141170423Y-77971569D01*
X141303722Y-77969144D01*
X141467283Y-77963233D01*
X141621482Y-77956126D01*
X141767419Y-77949279D01*
X141898840Y-77943737D01*
X142010005Y-77939692D01*
X142095173Y-77937335D01*
X142148605Y-77936857D01*
X142164753Y-77938038D01*
X142155746Y-77957012D01*
X142125661Y-78004503D01*
X142078330Y-78074800D01*
X142017584Y-78162191D01*
X141960463Y-78242583D01*
X141838206Y-78414026D01*
X141739654Y-78554926D01*
X141663089Y-78668596D01*
X141606798Y-78758346D01*
X141569064Y-78827486D01*
X141548171Y-78879327D01*
X141542405Y-78917179D01*
X141550049Y-78944354D01*
X141569388Y-78964161D01*
X141582442Y-78972088D01*
X141665290Y-78994933D01*
X141775023Y-78992409D01*
X141906155Y-78966424D01*
X142053196Y-78918888D01*
X142210660Y-78851709D01*
X142373059Y-78766795D01*
X142534905Y-78666056D01*
X142606126Y-78616044D01*
X142686781Y-78557769D01*
X142754410Y-78509916D01*
X142802069Y-78477327D01*
X142822814Y-78464846D01*
X142822958Y-78464833D01*
X142842149Y-78476877D01*
X142889538Y-78510291D01*
X142959493Y-78560998D01*
X143046380Y-78624920D01*
X143129766Y-78686916D01*
X143446534Y-78909367D01*
X143764517Y-79102848D01*
X144095371Y-79273653D01*
X144450755Y-79428071D01*
X144631833Y-79497613D01*
X144776188Y-79549841D01*
X144910547Y-79595568D01*
X145041597Y-79636509D01*
X145176025Y-79674375D01*
X145320519Y-79710878D01*
X145481767Y-79747733D01*
X145666454Y-79786652D01*
X145881269Y-79829346D01*
X146064589Y-79864574D01*
X146163628Y-79893804D01*
X146236476Y-79936650D01*
X146276805Y-79988635D01*
X146282833Y-80019010D01*
X146277649Y-80058137D01*
X146263573Y-80127891D01*
X146242818Y-80218049D01*
X146220171Y-80308515D01*
X146175674Y-80489600D01*
X146128369Y-80699564D01*
X146079660Y-80930736D01*
X146030952Y-81175446D01*
X145983650Y-81426022D01*
X145939161Y-81674793D01*
X145898888Y-81914089D01*
X145864238Y-82136238D01*
X145836616Y-82333570D01*
X145817427Y-82498413D01*
X145815668Y-82516592D01*
X145803549Y-82699823D01*
X145798457Y-82906697D01*
X145800030Y-83125655D01*
X145807906Y-83345142D01*
X145821722Y-83553600D01*
X145841117Y-83739470D01*
X145857390Y-83847538D01*
X145906363Y-84101480D01*
X145959407Y-84325041D01*
X146020341Y-84530169D01*
X146092986Y-84728817D01*
X146181163Y-84932933D01*
X146251185Y-85079417D01*
X146323191Y-85220016D01*
X146394269Y-85345730D01*
X146470314Y-85465186D01*
X146557224Y-85587012D01*
X146660894Y-85719835D01*
X146787222Y-85872283D01*
X146817292Y-85907728D01*
X146876278Y-85982489D01*
X146918505Y-86046953D01*
X146938243Y-86092125D01*
X146939000Y-86098790D01*
X146920075Y-86148782D01*
X146867373Y-86180674D01*
X146795622Y-86190667D01*
X146741099Y-86203510D01*
X146710018Y-86243583D01*
X146686235Y-86284180D01*
X146659039Y-86291427D01*
X146615292Y-86267692D01*
X146607232Y-86262125D01*
X146561215Y-86229971D01*
X146604115Y-86157259D01*
X146644462Y-86106726D01*
X146689377Y-86074664D01*
X146697758Y-86071813D01*
X146736361Y-86055019D01*
X146748500Y-86038938D01*
X146735031Y-86014449D01*
X146699615Y-85969080D01*
X146649737Y-85912377D01*
X146646558Y-85908941D01*
X146423374Y-85637881D01*
X146226759Y-85334946D01*
X146057412Y-85001774D01*
X145916032Y-84639998D01*
X145803320Y-84251256D01*
X145719975Y-83837184D01*
X145698731Y-83693000D01*
X145682824Y-83538857D01*
X145671567Y-83355304D01*
X145665055Y-83154238D01*
X145663385Y-82947556D01*
X145666651Y-82747156D01*
X145674950Y-82564937D01*
X145688377Y-82412796D01*
X145688422Y-82412417D01*
X145713418Y-82225509D01*
X145746787Y-82006632D01*
X145786830Y-81764931D01*
X145831843Y-81509553D01*
X145880126Y-81249644D01*
X145929977Y-80994351D01*
X145979694Y-80752821D01*
X146027577Y-80534199D01*
X146071922Y-80347633D01*
X146074325Y-80338083D01*
X146099315Y-80237728D01*
X146120335Y-80150624D01*
X146135224Y-80085923D01*
X146141817Y-80052777D01*
X146141867Y-80052333D01*
X146133152Y-80036049D01*
X146099878Y-80019901D01*
X146036765Y-80002167D01*
X145938531Y-79981123D01*
X145901833Y-79973985D01*
X145528129Y-79896957D01*
X145188816Y-79814862D01*
X144876029Y-79725179D01*
X144581903Y-79625389D01*
X144298572Y-79512971D01*
X144018172Y-79385406D01*
X143930774Y-79342471D01*
X143701553Y-79222973D01*
X143496514Y-79104228D01*
X143298965Y-78975971D01*
X143092212Y-78827934D01*
X143083269Y-78821273D01*
X142994505Y-78755544D01*
X142918166Y-78699915D01*
X142860446Y-78658830D01*
X142827541Y-78636732D01*
X142822460Y-78634167D01*
X142802182Y-78645717D01*
X142755291Y-78676904D01*
X142689456Y-78722531D01*
X142634863Y-78761241D01*
X142462222Y-78873936D01*
X142289588Y-78966506D01*
X142121033Y-79038243D01*
X141960627Y-79088441D01*
X141812439Y-79116390D01*
X141680541Y-79121384D01*
X141569003Y-79102715D01*
X141481896Y-79059674D01*
X141423288Y-78991555D01*
X141414728Y-78973385D01*
X141399926Y-78927848D01*
X141400640Y-78886069D01*
X141418458Y-78830738D01*
X141430492Y-78801493D01*
X141458611Y-78746746D01*
X141505959Y-78667122D01*
X141566737Y-78571885D01*
X141635144Y-78470298D01*
X141661410Y-78432697D01*
X141728600Y-78337491D01*
X141788827Y-78252066D01*
X141837062Y-78183563D01*
X141868275Y-78139122D01*
X141875657Y-78128545D01*
X141882265Y-78116816D01*
X141880875Y-78107719D01*
X141867012Y-78100947D01*
X141836202Y-78096198D01*
X141783967Y-78093167D01*
X141705832Y-78091550D01*
X141597321Y-78091041D01*
X141453959Y-78091337D01*
X141335907Y-78091835D01*
X141159902Y-78092301D01*
X141020408Y-78091714D01*
X140911609Y-78089778D01*
X140827692Y-78086196D01*
X140762839Y-78080670D01*
X140711237Y-78072904D01*
X140667069Y-78062601D01*
X140646722Y-78056642D01*
X140523086Y-78005715D01*
X140439567Y-77941690D01*
X140395964Y-77864375D01*
X140388879Y-77811720D01*
X140391395Y-77771570D01*
X140400971Y-77733958D01*
X140420649Y-77696688D01*
X140453468Y-77657561D01*
X140502471Y-77614379D01*
X140570699Y-77564944D01*
X140661192Y-77507058D01*
X140776993Y-77438522D01*
X140921141Y-77357140D01*
X141096679Y-77260712D01*
X141306647Y-77147041D01*
X141313958Y-77143099D01*
X141446605Y-77071127D01*
X141566124Y-77005368D01*
X141667696Y-76948547D01*
X141746503Y-76903389D01*
X141797726Y-76872621D01*
X141816547Y-76858967D01*
X141816561Y-76858858D01*
X141797719Y-76847153D01*
X141747626Y-76827541D01*
X141675774Y-76803613D01*
X141647974Y-76795102D01*
X141466979Y-76732175D01*
X141284960Y-76653050D01*
X141110461Y-76562536D01*
X140952022Y-76465443D01*
X140818187Y-76366581D01*
X140718264Y-76271632D01*
X140655775Y-76193139D01*
X140621820Y-76127585D01*
X140611189Y-76062341D01*
X140613805Y-76018384D01*
X140629677Y-75973855D01*
X140667713Y-75934439D01*
X140730011Y-75899796D01*
X140818667Y-75869581D01*
X140935779Y-75843453D01*
X141083442Y-75821068D01*
X141263754Y-75802084D01*
X141478812Y-75786159D01*
X141730712Y-75772949D01*
X142021550Y-75762113D01*
X142215680Y-75756606D01*
X142384662Y-75751769D01*
X142540150Y-75746344D01*
X142677080Y-75740583D01*
X142790387Y-75734739D01*
X142875007Y-75729064D01*
X142925875Y-75723811D01*
X142938658Y-75720553D01*
X142941046Y-75694117D01*
X142935322Y-75634810D01*
X142922603Y-75551075D01*
X142904005Y-75451356D01*
X142901290Y-75438028D01*
X142878594Y-75324030D01*
X142864533Y-75239387D01*
X142858296Y-75172186D01*
X142859074Y-75110517D01*
X142866056Y-75042467D01*
X142871643Y-75002168D01*
X142903682Y-74837674D01*
X142950253Y-74676795D01*
X143008403Y-74524831D01*
X143075180Y-74387079D01*
X143147632Y-74268841D01*
X143222807Y-74175415D01*
X143297752Y-74112101D01*
X143369514Y-74084198D01*
X143383522Y-74083333D01*
X143414030Y-74086720D01*
X143445374Y-74099346D01*
X143481111Y-74124906D01*
X143524801Y-74167099D01*
X143580003Y-74229619D01*
X143650276Y-74316165D01*
X143739177Y-74430433D01*
X143821639Y-74538417D01*
X143970946Y-74724830D01*
X144132719Y-74909046D01*
X144300035Y-75084101D01*
X144465971Y-75243031D01*
X144623603Y-75378871D01*
X144754718Y-75477042D01*
X144994181Y-75625251D01*
X145251980Y-75757862D01*
X145517403Y-75870366D01*
X145779736Y-75958258D01*
X146028268Y-76017031D01*
X146045371Y-76020023D01*
X146195995Y-76041522D01*
X146372540Y-76059834D01*
X146566937Y-76074709D01*
X146771120Y-76085896D01*
X146977020Y-76093144D01*
X147176569Y-76096200D01*
X147361700Y-76094814D01*
X147524345Y-76088736D01*
X147656436Y-76077712D01*
X147700739Y-76071567D01*
X147801771Y-76049246D01*
X147866715Y-76018459D01*
X147901645Y-75974533D01*
X147912636Y-75912792D01*
X147912667Y-75908479D01*
X147906816Y-75866407D01*
X147886440Y-75823159D01*
X147847305Y-75774112D01*
X147785173Y-75714642D01*
X147695812Y-75640124D01*
X147593880Y-75560422D01*
X147507306Y-75491571D01*
X147405831Y-75407355D01*
X147305546Y-75321248D01*
X147259009Y-75280018D01*
X147081601Y-75120609D01*
X146969158Y-75237634D01*
X146898725Y-75302768D01*
X146822530Y-75360661D01*
X146757631Y-75398490D01*
X146698358Y-75423475D01*
X146662195Y-75431412D01*
X146633643Y-75422612D01*
X146602982Y-75401623D01*
X146562326Y-75360951D01*
X146502133Y-75284680D01*
X146423349Y-75174257D01*
X146326921Y-75031131D01*
X146213796Y-74856750D01*
X146084923Y-74652562D01*
X145941246Y-74420014D01*
X145783715Y-74160555D01*
X145699818Y-74020800D01*
X145257463Y-73281320D01*
X144971505Y-73147868D01*
X144635878Y-72982463D01*
X144336008Y-72815235D01*
X144065400Y-72641710D01*
X143817559Y-72457415D01*
X143585993Y-72257876D01*
X143369533Y-72044216D01*
X143104926Y-71736509D01*
X142873019Y-71403028D01*
X142673532Y-71043217D01*
X142506186Y-70656520D01*
X142370700Y-70242382D01*
X142285355Y-69892333D01*
X142227812Y-69542021D01*
X142203629Y-69201643D01*
X142212437Y-68874522D01*
X142253871Y-68563981D01*
X142327562Y-68273342D01*
X142433146Y-68005930D01*
X142509473Y-67861724D01*
X142568349Y-67773869D01*
X142646831Y-67674529D01*
X142737385Y-67571578D01*
X142832479Y-67472888D01*
X142924579Y-67386330D01*
X143006152Y-67319776D01*
X143061507Y-67284853D01*
X143110910Y-67263074D01*
X143160256Y-67248931D01*
X143220384Y-67240917D01*
X143302131Y-67237524D01*
X143404167Y-67237179D01*
X143611499Y-67249332D01*
X143791003Y-67285975D01*
X143949082Y-67350583D01*
X144092141Y-67446626D01*
X144226583Y-67577576D01*
X144358812Y-67746906D01*
X144367633Y-67759541D01*
X144410782Y-67819671D01*
X144444606Y-67863027D01*
X144462134Y-67880699D01*
X144462500Y-67880749D01*
X144480000Y-67865062D01*
X144513112Y-67825240D01*
X144536583Y-67794335D01*
X144616826Y-67697800D01*
X144717059Y-67595529D01*
X144826818Y-67496762D01*
X144935639Y-67410740D01*
X145033058Y-67346702D01*
X145059271Y-67332777D01*
X145246515Y-67260802D01*
X145429739Y-67230886D01*
X145608228Y-67242881D01*
X145781266Y-67296642D01*
X145948139Y-67392023D01*
X146108130Y-67528876D01*
X146130266Y-67551680D01*
X146280847Y-67740092D01*
X146407063Y-67962686D01*
X146508964Y-68219595D01*
X146586597Y-68510952D01*
X146640011Y-68836888D01*
X146655575Y-68988046D01*
X146664594Y-69067392D01*
X146675682Y-69129156D01*
X146686736Y-69162212D01*
X146688929Y-69164511D01*
X146719315Y-69170870D01*
X146788714Y-69177805D01*
X146893811Y-69185228D01*
X147031291Y-69193052D01*
X147197839Y-69201189D01*
X147390139Y-69209551D01*
X147604877Y-69218049D01*
X147838737Y-69226597D01*
X148088404Y-69235107D01*
X148350563Y-69243489D01*
X148621899Y-69251658D01*
X148899097Y-69259524D01*
X149178842Y-69267000D01*
X149457819Y-69273998D01*
X149732711Y-69280430D01*
X150000206Y-69286209D01*
X150256986Y-69291246D01*
X150499738Y-69295454D01*
X150725146Y-69298744D01*
X150929894Y-69301030D01*
X151110669Y-69302222D01*
X151264154Y-69302234D01*
X151387035Y-69300977D01*
X151475996Y-69298363D01*
X151527723Y-69294306D01*
X151534924Y-69292939D01*
X151588687Y-69279445D01*
X151559125Y-69146681D01*
X151544727Y-69056428D01*
X151533061Y-68932772D01*
X151524257Y-68784564D01*
X151518443Y-68620654D01*
X151515749Y-68449893D01*
X151516303Y-68281131D01*
X151520235Y-68123219D01*
X151527673Y-67985007D01*
X151538747Y-67875345D01*
X151540419Y-67863916D01*
X151607079Y-67556587D01*
X151711081Y-67249049D01*
X151848655Y-66947255D01*
X152016026Y-66657158D01*
X152209422Y-66384713D01*
X152425071Y-66135871D01*
X152659201Y-65916587D01*
X152878739Y-65751986D01*
X153127652Y-65609540D01*
X153402666Y-65493572D01*
X153695539Y-65405811D01*
X153998027Y-65347985D01*
X154301887Y-65321825D01*
X154598874Y-65329059D01*
X154783769Y-65352393D01*
X155086314Y-65420694D01*
X155366929Y-65519737D01*
X155629446Y-65651791D01*
X155877695Y-65819127D01*
X156115505Y-66024013D01*
X156346706Y-66268720D01*
X156363858Y-66288708D01*
X156422131Y-66354953D01*
X156471157Y-66406825D01*
X156504023Y-66437200D01*
X156512820Y-66442167D01*
X156533868Y-66428379D01*
X156579573Y-66390447D01*
X156644030Y-66333519D01*
X156721333Y-66262739D01*
X156756756Y-66229605D01*
X157013432Y-66005305D01*
X157269822Y-65817658D01*
X157533938Y-65661803D01*
X157813790Y-65532882D01*
X158042278Y-65449811D01*
X158256481Y-65386193D01*
X158461893Y-65339914D01*
X158673147Y-65308485D01*
X158904876Y-65289416D01*
X159014583Y-65284392D01*
X159390075Y-65290530D01*
G37*
X159390075Y-65290530D02*
X159753040Y-65336889D01*
X160102674Y-65423215D01*
X160438174Y-65549257D01*
X160758735Y-65714764D01*
X161063553Y-65919484D01*
X161077406Y-65930010D01*
X161181881Y-66015105D01*
X161305644Y-66124356D01*
X161440448Y-66249766D01*
X161578045Y-66383336D01*
X161710190Y-66517066D01*
X161828636Y-66642959D01*
X161921856Y-66749083D01*
X162104888Y-66984511D01*
X162280619Y-67245026D01*
X162450497Y-67533441D01*
X162615968Y-67852569D01*
X162778479Y-68205222D01*
X162939479Y-68594211D01*
X163100414Y-69022350D01*
X163120121Y-69077417D01*
X163194347Y-69283769D01*
X163256573Y-69451978D01*
X163307667Y-69584228D01*
X163348501Y-69682703D01*
X163379945Y-69749587D01*
X163402870Y-69787067D01*
X163402972Y-69787194D01*
X163422938Y-69808374D01*
X163446805Y-69819815D01*
X163484627Y-69822538D01*
X163546460Y-69817559D01*
X163617967Y-69808966D01*
X163813014Y-69790548D01*
X163970358Y-69789120D01*
X164091133Y-69804821D01*
X164176470Y-69837785D01*
X164223904Y-69882321D01*
X164242234Y-69915800D01*
X164244436Y-69947127D01*
X164229082Y-69991305D01*
X164209599Y-70032809D01*
X164174514Y-70087910D01*
X164112076Y-70167052D01*
X164026152Y-70265684D01*
X163920607Y-70379254D01*
X163875994Y-70425550D01*
X163590364Y-70719188D01*
X163678432Y-71096686D01*
X163706438Y-71217445D01*
X163730769Y-71323717D01*
X163749902Y-71408741D01*
X163762316Y-71465758D01*
X163766500Y-71487842D01*
X163771804Y-71493049D01*
X163790842Y-71494492D01*
X163828304Y-71491561D01*
X163888880Y-71483646D01*
X163977261Y-71470138D01*
X164098135Y-71450426D01*
X164248937Y-71425128D01*
X164393867Y-71401183D01*
X164503446Y-71385133D01*
X164583943Y-71377154D01*
X164641632Y-71377422D01*
X164682782Y-71386113D01*
X164713666Y-71403401D01*
X164740555Y-71429463D01*
X164748868Y-71439124D01*
X164785584Y-71494845D01*
X164801351Y-71553303D01*
X164794341Y-71617513D01*
X164762726Y-71690489D01*
X164704676Y-71775245D01*
X164618363Y-71874797D01*
X164501957Y-71992157D01*
X164353631Y-72130341D01*
X164300373Y-72178333D01*
X164189984Y-72277938D01*
X164107770Y-72354323D01*
X164049763Y-72411815D01*
X164011994Y-72454741D01*
X163990493Y-72487429D01*
X163981292Y-72514206D01*
X163980044Y-72527583D01*
X163982880Y-72571833D01*
X163991521Y-72649281D01*
X164004712Y-72751387D01*
X164021195Y-72869610D01*
X164039713Y-72995408D01*
X164059010Y-73120241D01*
X164077828Y-73235567D01*
X164094911Y-73332845D01*
X164108830Y-73402764D01*
X164133990Y-73515945D01*
X164273036Y-73501700D01*
X164340521Y-73493485D01*
X164439583Y-73479733D01*
X164560056Y-73461936D01*
X164691772Y-73441588D01*
X164791752Y-73425560D01*
X164926312Y-73405026D01*
X165058410Y-73387372D01*
X165177549Y-73373822D01*
X165273232Y-73365600D01*
X165322521Y-73363667D01*
X165405486Y-73365534D01*
X165458585Y-73373186D01*
X165494198Y-73389700D01*
X165519644Y-73412656D01*
X165550982Y-73458848D01*
X165562415Y-73511670D01*
X165552472Y-73572782D01*
X165519683Y-73643844D01*
X165462577Y-73726515D01*
X165379683Y-73822455D01*
X165269530Y-73933324D01*
X165130648Y-74060781D01*
X164961567Y-74206486D01*
X164760814Y-74372099D01*
X164526920Y-74559279D01*
X164449346Y-74620456D01*
X164373616Y-74684635D01*
X164316696Y-74742075D01*
X164285851Y-74785244D01*
X164283104Y-74792768D01*
X164279122Y-74862991D01*
X164293612Y-74944906D01*
X164321741Y-75022607D01*
X164358677Y-75080190D01*
X164374574Y-75093857D01*
X164411452Y-75110019D01*
X164481921Y-75133945D01*
X164578454Y-75163343D01*
X164693521Y-75195916D01*
X164816706Y-75228628D01*
X165130273Y-75313310D01*
X165412977Y-75398043D01*
X165660829Y-75481574D01*
X165838685Y-75549695D01*
X165995286Y-75613901D01*
X165981687Y-75901659D01*
X165949196Y-76334542D01*
X165891921Y-76794889D01*
X165811023Y-77276712D01*
X165707661Y-77774021D01*
X165582997Y-78280830D01*
X165438189Y-78791148D01*
X165394606Y-78932529D01*
X165356225Y-79055417D01*
X165322598Y-79164094D01*
X165295649Y-79252261D01*
X165277302Y-79313617D01*
X165269480Y-79341863D01*
X165269333Y-79342863D01*
X165260108Y-79353291D01*
X165229785Y-79346056D01*
X165174389Y-79319397D01*
X165089946Y-79271549D01*
X165036026Y-79239393D01*
X164941630Y-79186388D01*
X164839772Y-79135574D01*
X164740273Y-79091202D01*
X164652953Y-79057519D01*
X164587633Y-79038776D01*
X164566723Y-79036333D01*
X164557983Y-79053220D01*
X164552579Y-79104885D01*
X164550503Y-79192835D01*
X164551748Y-79318577D01*
X164556307Y-79483617D01*
X164563504Y-79673466D01*
X164577200Y-80003682D01*
X164743443Y-80103308D01*
X164822037Y-80151715D01*
X164869326Y-80185393D01*
X164891133Y-80209949D01*
X164893279Y-80230992D01*
X164888313Y-80242871D01*
X164861401Y-80281567D01*
X164845746Y-80295907D01*
X164819789Y-80291174D01*
X164766649Y-80267974D01*
X164694971Y-80230395D01*
X164639484Y-80198376D01*
X164561942Y-80152039D01*
X164499593Y-80114811D01*
X164460266Y-80091365D01*
X164450629Y-80085655D01*
X164447800Y-80064302D01*
X164444088Y-80007131D01*
X164439717Y-79920644D01*
X164434911Y-79811342D01*
X164429893Y-79685726D01*
X164424887Y-79550297D01*
X164420115Y-79411558D01*
X164415803Y-79276009D01*
X164412173Y-79150151D01*
X164409450Y-79040486D01*
X164407856Y-78953515D01*
X164407615Y-78895739D01*
X164408944Y-78873667D01*
X164439370Y-78869314D01*
X164500389Y-78879327D01*
X164583800Y-78901126D01*
X164681404Y-78932130D01*
X164785000Y-78969759D01*
X164886388Y-79011433D01*
X164967006Y-79049268D01*
X165183263Y-79158646D01*
X165266880Y-78891115D01*
X165450174Y-78260250D01*
X165599482Y-77647987D01*
X165715820Y-77049124D01*
X165800209Y-76458455D01*
X165851477Y-75903613D01*
X165865165Y-75702476D01*
X165794791Y-75675023D01*
X165610235Y-75607244D01*
X165397203Y-75536107D01*
X165168889Y-75465740D01*
X164938482Y-75400271D01*
X164802098Y-75364390D01*
X164633654Y-75320279D01*
X164501579Y-75282124D01*
X164400728Y-75247605D01*
X164325955Y-75214399D01*
X164272114Y-75180183D01*
X164234059Y-75142637D01*
X164206643Y-75099438D01*
X164204238Y-75094613D01*
X164171978Y-75002987D01*
X164154233Y-74898794D01*
X164152535Y-74798606D01*
X164168414Y-74718996D01*
X164169333Y-74716723D01*
X164197599Y-74676173D01*
X164257818Y-74614754D01*
X164350889Y-74531643D01*
X164477709Y-74426016D01*
X164547925Y-74369402D01*
X164751772Y-74203909D01*
X164932124Y-74052424D01*
X165087389Y-73916465D01*
X165215975Y-73797553D01*
X165316292Y-73697206D01*
X165386749Y-73616944D01*
X165425755Y-73558286D01*
X165432489Y-73524694D01*
X165410419Y-73506237D01*
X165358013Y-73497576D01*
X165273016Y-73498825D01*
X165153175Y-73510100D01*
X164996234Y-73531517D01*
X164852335Y-73554386D01*
X164711137Y-73576717D01*
X164568878Y-73597263D01*
X164436818Y-73614535D01*
X164326216Y-73627043D01*
X164261055Y-73632600D01*
X164169562Y-73637797D01*
X164110768Y-73638322D01*
X164075148Y-73632525D01*
X164053178Y-73618756D01*
X164035332Y-73595365D01*
X164033952Y-73593266D01*
X164013134Y-73547295D01*
X163990031Y-73474667D01*
X163969395Y-73390470D01*
X163968042Y-73383926D01*
X163955347Y-73315824D01*
X163939254Y-73220865D01*
X163920952Y-73107035D01*
X163901627Y-72982321D01*
X163882469Y-72854710D01*
X163864665Y-72732190D01*
X163849404Y-72622747D01*
X163837872Y-72534368D01*
X163831258Y-72475041D01*
X163830145Y-72456826D01*
X163845326Y-72432865D01*
X163887713Y-72385590D01*
X163952701Y-72319621D01*
X164035688Y-72239577D01*
X164132070Y-72150077D01*
X164170934Y-72114833D01*
X164323378Y-71975725D01*
X164444919Y-71860478D01*
X164537688Y-71766475D01*
X164603813Y-71691099D01*
X164645425Y-71631735D01*
X164664653Y-71585766D01*
X164663626Y-71550576D01*
X164648868Y-71527629D01*
X164630894Y-71514523D01*
X164604710Y-71508504D01*
X164562341Y-71509951D01*
X164495815Y-71519243D01*
X164397160Y-71536756D01*
X164376926Y-71540521D01*
X164274152Y-71558906D01*
X164160322Y-71577943D01*
X164043028Y-71596522D01*
X163929859Y-71613533D01*
X163828407Y-71627866D01*
X163746261Y-71638411D01*
X163691011Y-71644058D01*
X163670335Y-71643856D01*
X163663810Y-71621766D01*
X163649692Y-71565459D01*
X163629613Y-71482034D01*
X163605207Y-71378590D01*
X163578104Y-71262226D01*
X163549937Y-71140041D01*
X163522338Y-71019134D01*
X163496940Y-70906603D01*
X163475374Y-70809548D01*
X163459274Y-70735068D01*
X163450270Y-70690261D01*
X163448934Y-70680920D01*
X163463478Y-70657888D01*
X163503600Y-70611385D01*
X163564101Y-70547010D01*
X163639785Y-70470363D01*
X163690918Y-70420233D01*
X163789611Y-70322262D01*
X163882528Y-70225664D01*
X163965027Y-70135695D01*
X164032464Y-70057611D01*
X164080197Y-69996667D01*
X164103583Y-69958120D01*
X164105167Y-69951292D01*
X164085249Y-69936890D01*
X164029887Y-69927737D01*
X163945669Y-69924035D01*
X163839182Y-69925984D01*
X163717014Y-69933787D01*
X163671170Y-69937998D01*
X163560925Y-69948404D01*
X163484136Y-69953645D01*
X163432205Y-69953398D01*
X163396533Y-69947340D01*
X163368520Y-69935148D01*
X163353793Y-69926058D01*
X163321115Y-69896264D01*
X163285619Y-69846260D01*
X163245745Y-69772629D01*
X163199932Y-69671954D01*
X163146622Y-69540817D01*
X163084254Y-69375799D01*
X163014736Y-69183250D01*
X162926240Y-68937180D01*
X162846920Y-68723715D01*
X162773552Y-68534985D01*
X162702914Y-68363117D01*
X162631781Y-68200239D01*
X162556931Y-68038481D01*
X162486057Y-67892083D01*
X162326027Y-67584730D01*
X162163484Y-67310219D01*
X161991766Y-67059262D01*
X161804211Y-66822572D01*
X161594156Y-66590863D01*
X161445779Y-66441808D01*
X161218984Y-66229796D01*
X161006639Y-66050881D01*
X160802444Y-65901262D01*
X160600097Y-65777138D01*
X160393297Y-65674706D01*
X160175744Y-65590166D01*
X159941137Y-65519716D01*
X159899654Y-65509007D01*
X159547694Y-65441538D01*
X159188490Y-65413977D01*
X158827204Y-65425760D01*
X158469002Y-65476319D01*
X158119047Y-65565091D01*
X157782504Y-65691508D01*
X157646279Y-65755753D01*
X157508994Y-65827613D01*
X157385228Y-65899692D01*
X157267834Y-65977302D01*
X157149663Y-66065752D01*
X157023567Y-66170350D01*
X156882397Y-66296406D01*
X156742203Y-66427237D01*
X156662403Y-66500959D01*
X156592546Y-66562128D01*
X156538678Y-66605703D01*
X156506844Y-66626645D01*
X156501855Y-66627646D01*
X156481195Y-66610170D01*
X156437809Y-66566457D01*
X156376955Y-66502035D01*
X156303891Y-66422432D01*
X156254568Y-66367658D01*
X156073449Y-66174403D01*
X155903747Y-66014169D01*
X155738652Y-65881770D01*
X155571359Y-65772016D01*
X155395059Y-65679719D01*
X155293654Y-65635285D01*
X155004999Y-65538659D01*
X154703438Y-65479692D01*
X154394247Y-65457812D01*
X154082706Y-65472449D01*
X153774093Y-65523034D01*
X153473686Y-65608995D01*
X153186764Y-65729763D01*
X152918604Y-65884768D01*
X152906009Y-65893253D01*
X152695799Y-66057608D01*
X152493484Y-66257546D01*
X152303220Y-66486483D01*
X152129164Y-66737835D01*
X151975472Y-67005017D01*
X151846303Y-67281445D01*
X151745812Y-67560533D01*
X151678157Y-67835699D01*
X151677522Y-67839167D01*
X151662248Y-67954374D01*
X151652378Y-68096560D01*
X151647619Y-68258022D01*
X151647678Y-68431059D01*
X151652261Y-68607968D01*
X151661073Y-68781049D01*
X151673823Y-68942599D01*
X151690216Y-69084917D01*
X151709958Y-69200301D01*
X151732460Y-69280303D01*
X151729712Y-69320036D01*
X151705966Y-69362907D01*
X151682293Y-69386240D01*
X151649983Y-69402419D01*
X151599741Y-69413896D01*
X151522271Y-69423125D01*
X151456332Y-69428808D01*
X151382023Y-69432518D01*
X151272638Y-69434766D01*
X151131434Y-69435644D01*
X150961667Y-69435241D01*
X150766592Y-69433649D01*
X150549466Y-69430958D01*
X150313546Y-69427259D01*
X150062086Y-69422641D01*
X149798343Y-69417196D01*
X149525574Y-69411014D01*
X149247034Y-69404186D01*
X148965979Y-69396802D01*
X148685666Y-69388953D01*
X148409350Y-69380729D01*
X148140288Y-69372221D01*
X147881735Y-69363519D01*
X147636949Y-69354714D01*
X147409184Y-69345896D01*
X147201698Y-69337156D01*
X147017745Y-69328585D01*
X146860583Y-69320272D01*
X146733467Y-69312309D01*
X146639653Y-69304786D01*
X146582398Y-69297794D01*
X146565261Y-69292817D01*
X146558248Y-69268036D01*
X146548349Y-69209681D01*
X146536847Y-69126306D01*
X146525028Y-69026465D01*
X146524326Y-69020038D01*
X146488306Y-68739544D01*
X146444397Y-68496027D01*
X146390780Y-68284568D01*
X146325637Y-68100250D01*
X146247149Y-67938152D01*
X146153495Y-67793356D01*
X146042859Y-67660945D01*
X146008598Y-67625428D01*
X145892662Y-67518492D01*
X145786108Y-67444663D01*
X145678638Y-67399565D01*
X145559953Y-67378823D01*
X145425583Y-67377779D01*
X145292502Y-67394075D01*
X145167744Y-67432093D01*
X145046421Y-67495056D01*
X144923647Y-67586183D01*
X144794535Y-67708696D01*
X144654196Y-67865813D01*
X144617057Y-67910544D01*
X144557390Y-67983276D01*
X144507490Y-68044083D01*
X144473617Y-68085338D01*
X144462623Y-68098706D01*
X144446115Y-68089180D01*
X144411999Y-68050756D01*
X144365736Y-67990031D01*
X144327169Y-67935026D01*
X144204311Y-67764746D01*
X144089268Y-67630701D01*
X143975880Y-67529164D01*
X143857992Y-67456407D01*
X143729447Y-67408705D01*
X143584087Y-67382329D01*
X143415754Y-67373554D01*
X143399481Y-67373500D01*
X143283054Y-67376400D01*
X143192139Y-67388376D01*
X143116013Y-67414339D01*
X143043951Y-67459204D01*
X142965229Y-67527882D01*
X142884209Y-67609545D01*
X142736275Y-67776824D01*
X142620450Y-67940756D01*
X142529527Y-68113681D01*
X142456295Y-68307941D01*
X142434758Y-68378917D01*
X142375010Y-68651776D01*
X142345037Y-68949084D01*
X142344743Y-69265294D01*
X142374033Y-69594856D01*
X142432809Y-69932224D01*
X142463961Y-70065742D01*
X142555274Y-70379175D01*
X142671241Y-70693629D01*
X142807090Y-70998433D01*
X142958054Y-71282915D01*
X143119364Y-71536402D01*
X143124255Y-71543333D01*
X143212533Y-71657897D01*
X143326095Y-71790033D01*
X143456742Y-71931407D01*
X143596279Y-72073685D01*
X143736506Y-72208531D01*
X143869228Y-72327612D01*
X143986246Y-72422593D01*
X143996833Y-72430493D01*
X144219389Y-72583255D01*
X144477306Y-72739410D01*
X144764210Y-72895267D01*
X145008756Y-73016512D01*
X145353929Y-73180910D01*
X145778790Y-73891413D01*
X145900061Y-74092990D01*
X146019739Y-74289595D01*
X146135657Y-74477833D01*
X146245651Y-74654311D01*
X146347556Y-74815633D01*
X146439207Y-74958407D01*
X146518438Y-75079236D01*
X146583085Y-75174726D01*
X146630983Y-75241484D01*
X146659967Y-75276115D01*
X146664077Y-75279401D01*
X146700800Y-75279096D01*
X146758638Y-75245158D01*
X146838347Y-75177028D01*
X146939000Y-75075922D01*
X147076583Y-74930622D01*
X147309417Y-75143369D01*
X147413047Y-75235732D01*
X147526806Y-75333324D01*
X147637440Y-75424985D01*
X147731698Y-75499553D01*
X147738172Y-75504475D01*
X147855211Y-75596522D01*
X147940255Y-75672749D01*
X147997752Y-75738878D01*
X148032151Y-75800628D01*
X148047900Y-75863721D01*
X148050250Y-75905758D01*
X148032651Y-76013416D01*
X147979325Y-76098540D01*
X147890134Y-76162079D01*
X147810767Y-76188490D01*
X147695381Y-76208757D01*
X147549813Y-76223063D01*
X147379902Y-76231592D01*
X147191485Y-76234527D01*
X146990401Y-76232051D01*
X146782488Y-76224349D01*
X146573584Y-76211603D01*
X146369526Y-76193998D01*
X146176154Y-76171717D01*
X145999304Y-76144943D01*
X145844816Y-76113860D01*
X145773381Y-76095528D01*
X145433811Y-75984539D01*
X145119182Y-75848867D01*
X144825428Y-75685628D01*
X144548482Y-75491941D01*
X144284277Y-75264923D01*
X144028747Y-75001691D01*
X143777824Y-74699363D01*
X143747052Y-74659299D01*
X143670621Y-74559879D01*
X143595579Y-74463835D01*
X143529115Y-74380266D01*
X143478421Y-74318269D01*
X143465839Y-74303471D01*
X143381489Y-74206013D01*
X143307180Y-74284804D01*
X143226427Y-74391622D01*
X143152155Y-74529248D01*
X143088509Y-74686222D01*
X143039634Y-74851084D01*
X143009677Y-75012374D01*
X143002109Y-75128159D01*
X143006842Y-75211886D01*
X143019568Y-75321180D01*
X143038218Y-75440487D01*
X143055804Y-75531715D01*
X143078171Y-75640831D01*
X143091168Y-75716177D01*
X143095435Y-75765118D01*
X143091611Y-75795016D01*
X143080336Y-75813235D01*
X143080272Y-75813299D01*
X143033391Y-75837143D01*
X142946418Y-75856185D01*
X142821347Y-75870202D01*
X142660173Y-75878971D01*
X142464887Y-75882271D01*
X142462250Y-75882277D01*
X142246039Y-75884764D01*
X142025107Y-75891093D01*
X141805145Y-75900819D01*
X141591846Y-75913500D01*
X141390903Y-75928692D01*
X141208006Y-75945950D01*
X141048849Y-75964833D01*
X140919123Y-75984896D01*
X140824521Y-76005697D01*
X140805958Y-76011309D01*
X140756755Y-76029252D01*
X140740872Y-76048264D01*
X140752592Y-76083031D01*
X140767111Y-76111093D01*
X140834087Y-76202266D01*
X140938933Y-76296149D01*
X141077484Y-76390437D01*
X141245575Y-76482827D01*
X141439041Y-76571013D01*
X141653717Y-76652691D01*
X141869583Y-76721032D01*
X141972056Y-76751176D01*
X142059880Y-76778294D01*
X142124989Y-76799801D01*
X142159320Y-76813111D01*
X142162076Y-76814792D01*
X142148339Y-76827906D01*
X142101390Y-76858421D01*
X142025423Y-76903913D01*
X141924631Y-76961954D01*
X141803205Y-77030120D01*
X141665339Y-77105986D01*
X141560873Y-77162602D01*
X141335422Y-77284412D01*
X141144812Y-77388274D01*
X140986322Y-77475764D01*
X140857228Y-77548455D01*
X140754809Y-77607924D01*
X140676343Y-77655744D01*
X140619109Y-77693492D01*
X140580384Y-77722741D01*
X140560686Y-77741317D01*
X140529468Y-77795914D01*
X140539685Y-77844225D01*
X140590864Y-77885934D01*
X140682529Y-77920723D01*
X140814206Y-77948276D01*
X140885333Y-77958102D01*
X140967904Y-77966030D01*
X141060709Y-77970525D01*
X141170423Y-77971569D01*
X141303722Y-77969144D01*
X141467283Y-77963233D01*
X141621482Y-77956126D01*
X141767419Y-77949279D01*
X141898840Y-77943737D01*
X142010005Y-77939692D01*
X142095173Y-77937335D01*
X142148605Y-77936857D01*
X142164753Y-77938038D01*
X142155746Y-77957012D01*
X142125661Y-78004503D01*
X142078330Y-78074800D01*
X142017584Y-78162191D01*
X141960463Y-78242583D01*
X141838206Y-78414026D01*
X141739654Y-78554926D01*
X141663089Y-78668596D01*
X141606798Y-78758346D01*
X141569064Y-78827486D01*
X141548171Y-78879327D01*
X141542405Y-78917179D01*
X141550049Y-78944354D01*
X141569388Y-78964161D01*
X141582442Y-78972088D01*
X141665290Y-78994933D01*
X141775023Y-78992409D01*
X141906155Y-78966424D01*
X142053196Y-78918888D01*
X142210660Y-78851709D01*
X142373059Y-78766795D01*
X142534905Y-78666056D01*
X142606126Y-78616044D01*
X142686781Y-78557769D01*
X142754410Y-78509916D01*
X142802069Y-78477327D01*
X142822814Y-78464846D01*
X142822958Y-78464833D01*
X142842149Y-78476877D01*
X142889538Y-78510291D01*
X142959493Y-78560998D01*
X143046380Y-78624920D01*
X143129766Y-78686916D01*
X143446534Y-78909367D01*
X143764517Y-79102848D01*
X144095371Y-79273653D01*
X144450755Y-79428071D01*
X144631833Y-79497613D01*
X144776188Y-79549841D01*
X144910547Y-79595568D01*
X145041597Y-79636509D01*
X145176025Y-79674375D01*
X145320519Y-79710878D01*
X145481767Y-79747733D01*
X145666454Y-79786652D01*
X145881269Y-79829346D01*
X146064589Y-79864574D01*
X146163628Y-79893804D01*
X146236476Y-79936650D01*
X146276805Y-79988635D01*
X146282833Y-80019010D01*
X146277649Y-80058137D01*
X146263573Y-80127891D01*
X146242818Y-80218049D01*
X146220171Y-80308515D01*
X146175674Y-80489600D01*
X146128369Y-80699564D01*
X146079660Y-80930736D01*
X146030952Y-81175446D01*
X145983650Y-81426022D01*
X145939161Y-81674793D01*
X145898888Y-81914089D01*
X145864238Y-82136238D01*
X145836616Y-82333570D01*
X145817427Y-82498413D01*
X145815668Y-82516592D01*
X145803549Y-82699823D01*
X145798457Y-82906697D01*
X145800030Y-83125655D01*
X145807906Y-83345142D01*
X145821722Y-83553600D01*
X145841117Y-83739470D01*
X145857390Y-83847538D01*
X145906363Y-84101480D01*
X145959407Y-84325041D01*
X146020341Y-84530169D01*
X146092986Y-84728817D01*
X146181163Y-84932933D01*
X146251185Y-85079417D01*
X146323191Y-85220016D01*
X146394269Y-85345730D01*
X146470314Y-85465186D01*
X146557224Y-85587012D01*
X146660894Y-85719835D01*
X146787222Y-85872283D01*
X146817292Y-85907728D01*
X146876278Y-85982489D01*
X146918505Y-86046953D01*
X146938243Y-86092125D01*
X146939000Y-86098790D01*
X146920075Y-86148782D01*
X146867373Y-86180674D01*
X146795622Y-86190667D01*
X146741099Y-86203510D01*
X146710018Y-86243583D01*
X146686235Y-86284180D01*
X146659039Y-86291427D01*
X146615292Y-86267692D01*
X146607232Y-86262125D01*
X146561215Y-86229971D01*
X146604115Y-86157259D01*
X146644462Y-86106726D01*
X146689377Y-86074664D01*
X146697758Y-86071813D01*
X146736361Y-86055019D01*
X146748500Y-86038938D01*
X146735031Y-86014449D01*
X146699615Y-85969080D01*
X146649737Y-85912377D01*
X146646558Y-85908941D01*
X146423374Y-85637881D01*
X146226759Y-85334946D01*
X146057412Y-85001774D01*
X145916032Y-84639998D01*
X145803320Y-84251256D01*
X145719975Y-83837184D01*
X145698731Y-83693000D01*
X145682824Y-83538857D01*
X145671567Y-83355304D01*
X145665055Y-83154238D01*
X145663385Y-82947556D01*
X145666651Y-82747156D01*
X145674950Y-82564937D01*
X145688377Y-82412796D01*
X145688422Y-82412417D01*
X145713418Y-82225509D01*
X145746787Y-82006632D01*
X145786830Y-81764931D01*
X145831843Y-81509553D01*
X145880126Y-81249644D01*
X145929977Y-80994351D01*
X145979694Y-80752821D01*
X146027577Y-80534199D01*
X146071922Y-80347633D01*
X146074325Y-80338083D01*
X146099315Y-80237728D01*
X146120335Y-80150624D01*
X146135224Y-80085923D01*
X146141817Y-80052777D01*
X146141867Y-80052333D01*
X146133152Y-80036049D01*
X146099878Y-80019901D01*
X146036765Y-80002167D01*
X145938531Y-79981123D01*
X145901833Y-79973985D01*
X145528129Y-79896957D01*
X145188816Y-79814862D01*
X144876029Y-79725179D01*
X144581903Y-79625389D01*
X144298572Y-79512971D01*
X144018172Y-79385406D01*
X143930774Y-79342471D01*
X143701553Y-79222973D01*
X143496514Y-79104228D01*
X143298965Y-78975971D01*
X143092212Y-78827934D01*
X143083269Y-78821273D01*
X142994505Y-78755544D01*
X142918166Y-78699915D01*
X142860446Y-78658830D01*
X142827541Y-78636732D01*
X142822460Y-78634167D01*
X142802182Y-78645717D01*
X142755291Y-78676904D01*
X142689456Y-78722531D01*
X142634863Y-78761241D01*
X142462222Y-78873936D01*
X142289588Y-78966506D01*
X142121033Y-79038243D01*
X141960627Y-79088441D01*
X141812439Y-79116390D01*
X141680541Y-79121384D01*
X141569003Y-79102715D01*
X141481896Y-79059674D01*
X141423288Y-78991555D01*
X141414728Y-78973385D01*
X141399926Y-78927848D01*
X141400640Y-78886069D01*
X141418458Y-78830738D01*
X141430492Y-78801493D01*
X141458611Y-78746746D01*
X141505959Y-78667122D01*
X141566737Y-78571885D01*
X141635144Y-78470298D01*
X141661410Y-78432697D01*
X141728600Y-78337491D01*
X141788827Y-78252066D01*
X141837062Y-78183563D01*
X141868275Y-78139122D01*
X141875657Y-78128545D01*
X141882265Y-78116816D01*
X141880875Y-78107719D01*
X141867012Y-78100947D01*
X141836202Y-78096198D01*
X141783967Y-78093167D01*
X141705832Y-78091550D01*
X141597321Y-78091041D01*
X141453959Y-78091337D01*
X141335907Y-78091835D01*
X141159902Y-78092301D01*
X141020408Y-78091714D01*
X140911609Y-78089778D01*
X140827692Y-78086196D01*
X140762839Y-78080670D01*
X140711237Y-78072904D01*
X140667069Y-78062601D01*
X140646722Y-78056642D01*
X140523086Y-78005715D01*
X140439567Y-77941690D01*
X140395964Y-77864375D01*
X140388879Y-77811720D01*
X140391395Y-77771570D01*
X140400971Y-77733958D01*
X140420649Y-77696688D01*
X140453468Y-77657561D01*
X140502471Y-77614379D01*
X140570699Y-77564944D01*
X140661192Y-77507058D01*
X140776993Y-77438522D01*
X140921141Y-77357140D01*
X141096679Y-77260712D01*
X141306647Y-77147041D01*
X141313958Y-77143099D01*
X141446605Y-77071127D01*
X141566124Y-77005368D01*
X141667696Y-76948547D01*
X141746503Y-76903389D01*
X141797726Y-76872621D01*
X141816547Y-76858967D01*
X141816561Y-76858858D01*
X141797719Y-76847153D01*
X141747626Y-76827541D01*
X141675774Y-76803613D01*
X141647974Y-76795102D01*
X141466979Y-76732175D01*
X141284960Y-76653050D01*
X141110461Y-76562536D01*
X140952022Y-76465443D01*
X140818187Y-76366581D01*
X140718264Y-76271632D01*
X140655775Y-76193139D01*
X140621820Y-76127585D01*
X140611189Y-76062341D01*
X140613805Y-76018384D01*
X140629677Y-75973855D01*
X140667713Y-75934439D01*
X140730011Y-75899796D01*
X140818667Y-75869581D01*
X140935779Y-75843453D01*
X141083442Y-75821068D01*
X141263754Y-75802084D01*
X141478812Y-75786159D01*
X141730712Y-75772949D01*
X142021550Y-75762113D01*
X142215680Y-75756606D01*
X142384662Y-75751769D01*
X142540150Y-75746344D01*
X142677080Y-75740583D01*
X142790387Y-75734739D01*
X142875007Y-75729064D01*
X142925875Y-75723811D01*
X142938658Y-75720553D01*
X142941046Y-75694117D01*
X142935322Y-75634810D01*
X142922603Y-75551075D01*
X142904005Y-75451356D01*
X142901290Y-75438028D01*
X142878594Y-75324030D01*
X142864533Y-75239387D01*
X142858296Y-75172186D01*
X142859074Y-75110517D01*
X142866056Y-75042467D01*
X142871643Y-75002168D01*
X142903682Y-74837674D01*
X142950253Y-74676795D01*
X143008403Y-74524831D01*
X143075180Y-74387079D01*
X143147632Y-74268841D01*
X143222807Y-74175415D01*
X143297752Y-74112101D01*
X143369514Y-74084198D01*
X143383522Y-74083333D01*
X143414030Y-74086720D01*
X143445374Y-74099346D01*
X143481111Y-74124906D01*
X143524801Y-74167099D01*
X143580003Y-74229619D01*
X143650276Y-74316165D01*
X143739177Y-74430433D01*
X143821639Y-74538417D01*
X143970946Y-74724830D01*
X144132719Y-74909046D01*
X144300035Y-75084101D01*
X144465971Y-75243031D01*
X144623603Y-75378871D01*
X144754718Y-75477042D01*
X144994181Y-75625251D01*
X145251980Y-75757862D01*
X145517403Y-75870366D01*
X145779736Y-75958258D01*
X146028268Y-76017031D01*
X146045371Y-76020023D01*
X146195995Y-76041522D01*
X146372540Y-76059834D01*
X146566937Y-76074709D01*
X146771120Y-76085896D01*
X146977020Y-76093144D01*
X147176569Y-76096200D01*
X147361700Y-76094814D01*
X147524345Y-76088736D01*
X147656436Y-76077712D01*
X147700739Y-76071567D01*
X147801771Y-76049246D01*
X147866715Y-76018459D01*
X147901645Y-75974533D01*
X147912636Y-75912792D01*
X147912667Y-75908479D01*
X147906816Y-75866407D01*
X147886440Y-75823159D01*
X147847305Y-75774112D01*
X147785173Y-75714642D01*
X147695812Y-75640124D01*
X147593880Y-75560422D01*
X147507306Y-75491571D01*
X147405831Y-75407355D01*
X147305546Y-75321248D01*
X147259009Y-75280018D01*
X147081601Y-75120609D01*
X146969158Y-75237634D01*
X146898725Y-75302768D01*
X146822530Y-75360661D01*
X146757631Y-75398490D01*
X146698358Y-75423475D01*
X146662195Y-75431412D01*
X146633643Y-75422612D01*
X146602982Y-75401623D01*
X146562326Y-75360951D01*
X146502133Y-75284680D01*
X146423349Y-75174257D01*
X146326921Y-75031131D01*
X146213796Y-74856750D01*
X146084923Y-74652562D01*
X145941246Y-74420014D01*
X145783715Y-74160555D01*
X145699818Y-74020800D01*
X145257463Y-73281320D01*
X144971505Y-73147868D01*
X144635878Y-72982463D01*
X144336008Y-72815235D01*
X144065400Y-72641710D01*
X143817559Y-72457415D01*
X143585993Y-72257876D01*
X143369533Y-72044216D01*
X143104926Y-71736509D01*
X142873019Y-71403028D01*
X142673532Y-71043217D01*
X142506186Y-70656520D01*
X142370700Y-70242382D01*
X142285355Y-69892333D01*
X142227812Y-69542021D01*
X142203629Y-69201643D01*
X142212437Y-68874522D01*
X142253871Y-68563981D01*
X142327562Y-68273342D01*
X142433146Y-68005930D01*
X142509473Y-67861724D01*
X142568349Y-67773869D01*
X142646831Y-67674529D01*
X142737385Y-67571578D01*
X142832479Y-67472888D01*
X142924579Y-67386330D01*
X143006152Y-67319776D01*
X143061507Y-67284853D01*
X143110910Y-67263074D01*
X143160256Y-67248931D01*
X143220384Y-67240917D01*
X143302131Y-67237524D01*
X143404167Y-67237179D01*
X143611499Y-67249332D01*
X143791003Y-67285975D01*
X143949082Y-67350583D01*
X144092141Y-67446626D01*
X144226583Y-67577576D01*
X144358812Y-67746906D01*
X144367633Y-67759541D01*
X144410782Y-67819671D01*
X144444606Y-67863027D01*
X144462134Y-67880699D01*
X144462500Y-67880749D01*
X144480000Y-67865062D01*
X144513112Y-67825240D01*
X144536583Y-67794335D01*
X144616826Y-67697800D01*
X144717059Y-67595529D01*
X144826818Y-67496762D01*
X144935639Y-67410740D01*
X145033058Y-67346702D01*
X145059271Y-67332777D01*
X145246515Y-67260802D01*
X145429739Y-67230886D01*
X145608228Y-67242881D01*
X145781266Y-67296642D01*
X145948139Y-67392023D01*
X146108130Y-67528876D01*
X146130266Y-67551680D01*
X146280847Y-67740092D01*
X146407063Y-67962686D01*
X146508964Y-68219595D01*
X146586597Y-68510952D01*
X146640011Y-68836888D01*
X146655575Y-68988046D01*
X146664594Y-69067392D01*
X146675682Y-69129156D01*
X146686736Y-69162212D01*
X146688929Y-69164511D01*
X146719315Y-69170870D01*
X146788714Y-69177805D01*
X146893811Y-69185228D01*
X147031291Y-69193052D01*
X147197839Y-69201189D01*
X147390139Y-69209551D01*
X147604877Y-69218049D01*
X147838737Y-69226597D01*
X148088404Y-69235107D01*
X148350563Y-69243489D01*
X148621899Y-69251658D01*
X148899097Y-69259524D01*
X149178842Y-69267000D01*
X149457819Y-69273998D01*
X149732711Y-69280430D01*
X150000206Y-69286209D01*
X150256986Y-69291246D01*
X150499738Y-69295454D01*
X150725146Y-69298744D01*
X150929894Y-69301030D01*
X151110669Y-69302222D01*
X151264154Y-69302234D01*
X151387035Y-69300977D01*
X151475996Y-69298363D01*
X151527723Y-69294306D01*
X151534924Y-69292939D01*
X151588687Y-69279445D01*
X151559125Y-69146681D01*
X151544727Y-69056428D01*
X151533061Y-68932772D01*
X151524257Y-68784564D01*
X151518443Y-68620654D01*
X151515749Y-68449893D01*
X151516303Y-68281131D01*
X151520235Y-68123219D01*
X151527673Y-67985007D01*
X151538747Y-67875345D01*
X151540419Y-67863916D01*
X151607079Y-67556587D01*
X151711081Y-67249049D01*
X151848655Y-66947255D01*
X152016026Y-66657158D01*
X152209422Y-66384713D01*
X152425071Y-66135871D01*
X152659201Y-65916587D01*
X152878739Y-65751986D01*
X153127652Y-65609540D01*
X153402666Y-65493572D01*
X153695539Y-65405811D01*
X153998027Y-65347985D01*
X154301887Y-65321825D01*
X154598874Y-65329059D01*
X154783769Y-65352393D01*
X155086314Y-65420694D01*
X155366929Y-65519737D01*
X155629446Y-65651791D01*
X155877695Y-65819127D01*
X156115505Y-66024013D01*
X156346706Y-66268720D01*
X156363858Y-66288708D01*
X156422131Y-66354953D01*
X156471157Y-66406825D01*
X156504023Y-66437200D01*
X156512820Y-66442167D01*
X156533868Y-66428379D01*
X156579573Y-66390447D01*
X156644030Y-66333519D01*
X156721333Y-66262739D01*
X156756756Y-66229605D01*
X157013432Y-66005305D01*
X157269822Y-65817658D01*
X157533938Y-65661803D01*
X157813790Y-65532882D01*
X158042278Y-65449811D01*
X158256481Y-65386193D01*
X158461893Y-65339914D01*
X158673147Y-65308485D01*
X158904876Y-65289416D01*
X159014583Y-65284392D01*
X159390075Y-65290530D01*
M02*
