G04 #@! TF.GenerationSoftware,KiCad,Pcbnew,5.1.4-e60b266~84~ubuntu18.04.1*
G04 #@! TF.CreationDate,2019-08-18T12:13:47-06:00*
G04 #@! TF.ProjectId,Tiny,54696e79-2e6b-4696-9361-645f70636258,rev?*
G04 #@! TF.SameCoordinates,Original*
G04 #@! TF.FileFunction,Profile,NP*
%FSLAX46Y46*%
G04 Gerber Fmt 4.6, Leading zero omitted, Abs format (unit mm)*
G04 Created by KiCad (PCBNEW 5.1.4-e60b266~84~ubuntu18.04.1) date 2019-08-18 12:13:47*
%MOMM*%
%LPD*%
G04 APERTURE LIST*
%ADD10C,0.100000*%
G04 APERTURE END LIST*
D10*
X166005730Y-83717834D02*
X166005730Y-83774244D01*
X166005730Y-83774244D02*
X166003914Y-83943039D01*
X166003914Y-83943039D02*
X166000030Y-84111312D01*
X166000030Y-84111312D02*
X165994030Y-84279068D01*
X165994030Y-84279068D02*
X165985930Y-84446265D01*
X165985930Y-84446265D02*
X165975730Y-84612920D01*
X165975730Y-84612920D02*
X165963440Y-84779000D01*
X165963440Y-84779000D02*
X165949080Y-84944492D01*
X165949080Y-84944492D02*
X165932670Y-85109395D01*
X165932670Y-85109395D02*
X165914210Y-85273693D01*
X165914210Y-85273693D02*
X165893830Y-85437366D01*
X165893830Y-85437366D02*
X165871330Y-85600410D01*
X165871330Y-85600410D02*
X165846830Y-85762812D01*
X165846830Y-85762812D02*
X165820440Y-85924549D01*
X165820440Y-85924549D02*
X165791970Y-86085609D01*
X165791970Y-86085609D02*
X165761600Y-86245988D01*
X165761600Y-86245988D02*
X165729280Y-86405675D01*
X165729280Y-86405675D02*
X165695010Y-86564645D01*
X165695010Y-86564645D02*
X165658830Y-86722897D01*
X165658830Y-86722897D02*
X165620730Y-86880407D01*
X165620730Y-86880407D02*
X165580740Y-87037172D01*
X165580740Y-87037172D02*
X165538880Y-87193180D01*
X165538880Y-87193180D02*
X165495140Y-87348408D01*
X165495140Y-87348408D02*
X165449540Y-87502854D01*
X165449540Y-87502854D02*
X165402100Y-87656493D01*
X165402100Y-87656493D02*
X165352830Y-87809323D01*
X165352830Y-87809323D02*
X165301740Y-87961323D01*
X165301740Y-87961323D02*
X165248850Y-88112487D01*
X165248850Y-88112487D02*
X165194160Y-88262805D01*
X165194160Y-88262805D02*
X165137700Y-88412253D01*
X165137700Y-88412253D02*
X165079460Y-88560818D01*
X165079460Y-88560818D02*
X165019480Y-88708507D01*
X165019480Y-88708507D02*
X164957750Y-88855278D01*
X164957750Y-88855278D02*
X164894290Y-89001147D01*
X164894290Y-89001147D02*
X164829120Y-89146082D01*
X164829120Y-89146082D02*
X164762240Y-89290071D01*
X164762240Y-89290071D02*
X164693680Y-89433119D01*
X164693680Y-89433119D02*
X164623440Y-89575185D01*
X164623440Y-89575185D02*
X164551540Y-89716285D01*
X164551540Y-89716285D02*
X164477980Y-89856377D01*
X164477980Y-89856377D02*
X164402780Y-89995478D01*
X164402780Y-89995478D02*
X164325960Y-90133555D01*
X164325960Y-90133555D02*
X164247530Y-90270595D01*
X164247530Y-90270595D02*
X164167490Y-90406605D01*
X164167490Y-90406605D02*
X164085870Y-90541543D01*
X164085870Y-90541543D02*
X164002670Y-90675425D01*
X164002670Y-90675425D02*
X163917910Y-90808210D01*
X163917910Y-90808210D02*
X163831600Y-90939913D01*
X163831600Y-90939913D02*
X163743760Y-91070502D01*
X163743760Y-91070502D02*
X163654400Y-91199965D01*
X163654400Y-91199965D02*
X163563510Y-91328299D01*
X163563510Y-91328299D02*
X163471130Y-91455490D01*
X163471130Y-91455490D02*
X163377270Y-91581516D01*
X163377270Y-91581516D02*
X163281940Y-91706373D01*
X163281940Y-91706373D02*
X163185150Y-91830050D01*
X163185150Y-91830050D02*
X163086910Y-91952524D01*
X163086910Y-91952524D02*
X162987250Y-92073781D01*
X162987250Y-92073781D02*
X162886162Y-92193818D01*
X162886162Y-92193818D02*
X162783663Y-92312623D01*
X162783663Y-92312623D02*
X162679765Y-92430183D01*
X162679765Y-92430183D02*
X162574491Y-92546466D01*
X162574491Y-92546466D02*
X162467853Y-92661488D01*
X162467853Y-92661488D02*
X162359845Y-92775216D01*
X162359845Y-92775216D02*
X162250510Y-92887638D01*
X162250510Y-92887638D02*
X162139829Y-92998750D01*
X162139829Y-92998750D02*
X162027846Y-93108541D01*
X162027846Y-93108541D02*
X161914544Y-93216997D01*
X161914544Y-93216997D02*
X161799956Y-93324085D01*
X161799956Y-93324085D02*
X161684094Y-93429823D01*
X161684094Y-93429823D02*
X161566962Y-93534177D01*
X161566962Y-93534177D02*
X161448572Y-93637135D01*
X161448572Y-93637135D02*
X161328946Y-93738694D01*
X161328946Y-93738694D02*
X161208089Y-93838841D01*
X161208089Y-93838841D02*
X161086012Y-93937551D01*
X161086012Y-93937551D02*
X160962739Y-94034821D01*
X160962739Y-94034821D02*
X160838282Y-94130641D01*
X160838282Y-94130641D02*
X160712634Y-94224991D01*
X160712634Y-94224991D02*
X160585838Y-94317851D01*
X160585838Y-94317851D02*
X160457877Y-94409241D01*
X160457877Y-94409241D02*
X160328794Y-94499101D01*
X160328794Y-94499101D02*
X160198571Y-94587461D01*
X160198571Y-94587461D02*
X160067241Y-94674281D01*
X160067241Y-94674281D02*
X159934818Y-94759551D01*
X159934818Y-94759551D02*
X159801294Y-94843271D01*
X159801294Y-94843271D02*
X159666711Y-94925421D01*
X159666711Y-94925421D02*
X159531054Y-95005991D01*
X159531054Y-95005991D02*
X159394363Y-95084951D01*
X159394363Y-95084951D02*
X159256623Y-95162321D01*
X159256623Y-95162321D02*
X159117866Y-95238061D01*
X159117866Y-95238061D02*
X158978105Y-95312161D01*
X158978105Y-95312161D02*
X158837333Y-95384621D01*
X158837333Y-95384621D02*
X158695593Y-95455421D01*
X158695593Y-95455421D02*
X158552867Y-95524541D01*
X158552867Y-95524541D02*
X158409189Y-95591981D01*
X158409189Y-95591981D02*
X158264570Y-95657721D01*
X158264570Y-95657721D02*
X158119015Y-95721751D01*
X158119015Y-95721751D02*
X157972536Y-95784051D01*
X157972536Y-95784051D02*
X157825155Y-95844621D01*
X157825155Y-95844621D02*
X157676886Y-95903441D01*
X157676886Y-95903441D02*
X157527721Y-95960501D01*
X157527721Y-95960501D02*
X157377693Y-96015791D01*
X157377693Y-96015791D02*
X157226816Y-96069281D01*
X157226816Y-96069281D02*
X157075091Y-96120971D01*
X157075091Y-96120971D02*
X156922532Y-96170841D01*
X156922532Y-96170841D02*
X156769161Y-96218891D01*
X156769161Y-96218891D02*
X156614982Y-96265101D01*
X156614982Y-96265101D02*
X156460017Y-96309461D01*
X156460017Y-96309461D02*
X156304269Y-96351961D01*
X156304269Y-96351961D02*
X156147761Y-96392571D01*
X156147761Y-96392571D02*
X155990495Y-96431301D01*
X155990495Y-96431301D02*
X155832485Y-96468131D01*
X155832485Y-96468131D02*
X155673754Y-96503031D01*
X155673754Y-96503031D02*
X155514303Y-96536001D01*
X155514303Y-96536001D02*
X155354157Y-96567041D01*
X155354157Y-96567041D02*
X155193317Y-96596131D01*
X155193317Y-96596131D02*
X155031807Y-96623201D01*
X155031807Y-96623201D02*
X154869620Y-96648391D01*
X154869620Y-96648391D02*
X154706798Y-96671491D01*
X154706798Y-96671491D02*
X154543334Y-96692591D01*
X154543334Y-96692591D02*
X154379242Y-96711771D01*
X154379242Y-96711771D02*
X154214543Y-96728831D01*
X154214543Y-96728831D02*
X154049241Y-96743841D01*
X154049241Y-96743841D02*
X153883348Y-96756801D01*
X153883348Y-96756801D02*
X153716888Y-96767691D01*
X153716888Y-96767691D02*
X153549873Y-96776491D01*
X153549873Y-96776491D02*
X153382296Y-96783191D01*
X153382296Y-96783191D02*
X153214200Y-96787791D01*
X153214200Y-96787791D02*
X153045568Y-96790307D01*
X153045568Y-96790307D02*
X152876432Y-96790691D01*
X152876432Y-96790691D02*
X152707636Y-96788875D01*
X152707636Y-96788875D02*
X152539364Y-96784991D01*
X152539364Y-96784991D02*
X152371608Y-96778991D01*
X152371608Y-96778991D02*
X152204411Y-96770891D01*
X152204411Y-96770891D02*
X152037756Y-96760691D01*
X152037756Y-96760691D02*
X151871676Y-96748401D01*
X151871676Y-96748401D02*
X151706183Y-96734041D01*
X151706183Y-96734041D02*
X151541281Y-96717631D01*
X151541281Y-96717631D02*
X151376982Y-96699171D01*
X151376982Y-96699171D02*
X151213310Y-96678791D01*
X151213310Y-96678791D02*
X151050266Y-96656291D01*
X151050266Y-96656291D02*
X150887864Y-96631791D01*
X150887864Y-96631791D02*
X150726127Y-96605401D01*
X150726127Y-96605401D02*
X150565067Y-96576931D01*
X150565067Y-96576931D02*
X150404687Y-96546561D01*
X150404687Y-96546561D02*
X150245001Y-96514241D01*
X150245001Y-96514241D02*
X150086030Y-96479971D01*
X150086030Y-96479971D02*
X149927779Y-96443791D01*
X149927779Y-96443791D02*
X149770269Y-96405701D01*
X149770269Y-96405701D02*
X149613503Y-96365701D01*
X149613503Y-96365701D02*
X149457495Y-96323841D01*
X149457495Y-96323841D02*
X149302268Y-96280101D01*
X149302268Y-96280101D02*
X149147825Y-96234501D01*
X149147825Y-96234501D02*
X148994183Y-96187061D01*
X148994183Y-96187061D02*
X148841355Y-96137791D01*
X148841355Y-96137791D02*
X148689352Y-96086711D01*
X148689352Y-96086711D02*
X148538187Y-96033821D01*
X148538187Y-96033821D02*
X148387873Y-95979131D01*
X148387873Y-95979131D02*
X148238424Y-95922661D01*
X148238424Y-95922661D02*
X148089853Y-95864421D01*
X148089853Y-95864421D02*
X147942170Y-95804441D01*
X147942170Y-95804441D02*
X147795391Y-95742711D01*
X147795391Y-95742711D02*
X147649528Y-95679251D01*
X147649528Y-95679251D02*
X147504593Y-95614081D01*
X147504593Y-95614081D02*
X147360600Y-95547201D01*
X147360600Y-95547201D02*
X147217560Y-95478641D01*
X147217560Y-95478641D02*
X147075487Y-95408401D01*
X147075487Y-95408401D02*
X146934394Y-95336501D01*
X146934394Y-95336501D02*
X146794293Y-95262941D01*
X146794293Y-95262941D02*
X146655198Y-95187741D01*
X146655198Y-95187741D02*
X146517121Y-95110921D01*
X146517121Y-95110921D02*
X146380076Y-95032491D01*
X146380076Y-95032491D02*
X146244075Y-94952451D01*
X146244075Y-94952451D02*
X146109129Y-94870821D01*
X146109129Y-94870821D02*
X145975255Y-94787631D01*
X145975255Y-94787631D02*
X145842461Y-94702871D01*
X145842461Y-94702871D02*
X145710764Y-94616561D01*
X145710764Y-94616561D02*
X145580175Y-94528721D01*
X145580175Y-94528721D02*
X145450707Y-94439361D01*
X145450707Y-94439361D02*
X145322371Y-94348481D01*
X145322371Y-94348481D02*
X145195183Y-94256111D01*
X145195183Y-94256111D02*
X145069154Y-94162251D01*
X145069154Y-94162251D02*
X144944299Y-94066921D01*
X144944299Y-94066921D02*
X144820628Y-93970141D01*
X144820628Y-93970141D02*
X144698154Y-93871901D01*
X144698154Y-93871901D02*
X144576892Y-93772241D01*
X144576892Y-93772241D02*
X144456853Y-93671144D01*
X144456853Y-93671144D02*
X144338050Y-93568655D01*
X144338050Y-93568655D02*
X144220497Y-93464757D01*
X144220497Y-93464757D02*
X144104206Y-93359483D01*
X144104206Y-93359483D02*
X143989190Y-93252845D01*
X143989190Y-93252845D02*
X143875461Y-93144837D01*
X143875461Y-93144837D02*
X143763034Y-93035501D01*
X143763034Y-93035501D02*
X143651920Y-92924830D01*
X143651920Y-92924830D02*
X143542132Y-92812838D01*
X143542132Y-92812838D02*
X143433683Y-92699536D01*
X143433683Y-92699536D02*
X143326587Y-92584948D01*
X143326587Y-92584948D02*
X143220855Y-92469086D01*
X143220855Y-92469086D02*
X143116500Y-92351953D01*
X143116500Y-92351953D02*
X143013537Y-92233563D01*
X143013537Y-92233563D02*
X142911976Y-92113938D01*
X142911976Y-92113938D02*
X142811832Y-91993081D01*
X142811832Y-91993081D02*
X142713116Y-91871004D01*
X142713116Y-91871004D02*
X142615842Y-91747730D01*
X142615842Y-91747730D02*
X142520023Y-91623273D01*
X142520023Y-91623273D02*
X142425671Y-91497636D01*
X142425671Y-91497636D02*
X142332792Y-91370830D01*
X142332792Y-91370830D02*
X142241413Y-91242869D01*
X142241413Y-91242869D02*
X142151541Y-91113785D01*
X142151541Y-91113785D02*
X142063188Y-90983562D01*
X142063188Y-90983562D02*
X141976366Y-90852233D01*
X141976366Y-90852233D02*
X141891089Y-90719810D01*
X141891089Y-90719810D02*
X141807368Y-90586295D01*
X141807368Y-90586295D02*
X141725218Y-90451703D01*
X141725218Y-90451703D02*
X141644652Y-90316045D01*
X141644652Y-90316045D02*
X141565681Y-90179345D01*
X141565681Y-90179345D02*
X141488318Y-90041615D01*
X141488318Y-90041615D02*
X141412578Y-89902858D01*
X141412578Y-89902858D02*
X141338471Y-89763087D01*
X141338471Y-89763087D02*
X141266012Y-89622325D01*
X141266012Y-89622325D02*
X141195213Y-89480585D01*
X141195213Y-89480585D02*
X141126086Y-89337859D01*
X141126086Y-89337859D02*
X141058645Y-89194181D01*
X141058645Y-89194181D02*
X140992903Y-89049562D01*
X140992903Y-89049562D02*
X140928872Y-88904007D01*
X140928872Y-88904007D02*
X140866565Y-88757528D01*
X140866565Y-88757528D02*
X140805995Y-88610147D01*
X140805995Y-88610147D02*
X140747175Y-88461868D01*
X140747175Y-88461868D02*
X140690117Y-88312713D01*
X140690117Y-88312713D02*
X140634836Y-88162685D01*
X140634836Y-88162685D02*
X140581343Y-88011807D01*
X140581343Y-88011807D02*
X140529651Y-87860083D01*
X140529651Y-87860083D02*
X140479772Y-87707523D01*
X140479772Y-87707523D02*
X140431721Y-87554153D01*
X140431721Y-87554153D02*
X140385509Y-87399974D01*
X140385509Y-87399974D02*
X140341149Y-87245009D01*
X140341149Y-87245009D02*
X140298655Y-87089260D01*
X140298655Y-87089260D02*
X140258039Y-86932752D01*
X140258039Y-86932752D02*
X140219314Y-86775487D01*
X140219314Y-86775487D02*
X140182493Y-86617477D01*
X140182493Y-86617477D02*
X140147589Y-86458745D01*
X140147589Y-86458745D02*
X140114614Y-86299295D01*
X140114614Y-86299295D02*
X140083581Y-86139148D01*
X140083581Y-86139148D02*
X140054504Y-85978309D01*
X140054504Y-85978309D02*
X140027394Y-85816799D01*
X140027394Y-85816799D02*
X140002266Y-85654612D01*
X140002266Y-85654612D02*
X139979132Y-85491790D01*
X139979132Y-85491790D02*
X139958003Y-85328326D01*
X139958003Y-85328326D02*
X139938894Y-85164233D01*
X139938894Y-85164233D02*
X139921817Y-84999535D01*
X139921817Y-84999535D02*
X139906786Y-84834232D01*
X139906786Y-84834232D02*
X139893812Y-84668340D01*
X139893812Y-84668340D02*
X139882909Y-84501880D01*
X139882909Y-84501880D02*
X139874089Y-84334865D01*
X139874089Y-84334865D02*
X139867366Y-84167288D01*
X139867366Y-84167288D02*
X139862752Y-83999192D01*
X139862752Y-83999192D02*
X139860259Y-83830559D01*
X139860259Y-83830559D02*
X139859902Y-83661424D01*
X139859902Y-83661424D02*
X139861684Y-83492628D01*
X139861684Y-83492628D02*
X139865592Y-83324355D01*
X139865592Y-83324355D02*
X139871614Y-83156599D01*
X139871614Y-83156599D02*
X139879737Y-82989402D01*
X139879737Y-82989402D02*
X139889947Y-82822747D01*
X139889947Y-82822747D02*
X139902232Y-82656667D01*
X139902232Y-82656667D02*
X139916578Y-82491175D01*
X139916578Y-82491175D02*
X139932975Y-82326273D01*
X139932975Y-82326273D02*
X139951408Y-82161974D01*
X139951408Y-82161974D02*
X139971865Y-81998301D01*
X139971865Y-81998301D02*
X139994332Y-81835257D01*
X139994332Y-81835257D02*
X140018798Y-81672855D01*
X140018798Y-81672855D02*
X140045248Y-81511118D01*
X140045248Y-81511118D02*
X140073670Y-81350058D01*
X140073670Y-81350058D02*
X140104053Y-81189679D01*
X140104053Y-81189679D02*
X140136382Y-81029992D01*
X140136382Y-81029992D02*
X140170644Y-80871022D01*
X140170644Y-80871022D02*
X140206828Y-80712770D01*
X140206828Y-80712770D02*
X140244920Y-80555260D01*
X140244920Y-80555260D02*
X140284907Y-80398495D01*
X140284907Y-80398495D02*
X140326776Y-80242487D01*
X140326776Y-80242487D02*
X140370515Y-80087259D01*
X140370515Y-80087259D02*
X140416111Y-79932814D01*
X140416111Y-79932814D02*
X140463551Y-79779175D01*
X140463551Y-79779175D02*
X140512822Y-79626347D01*
X140512822Y-79626347D02*
X140563911Y-79474343D01*
X140563911Y-79474343D02*
X140616807Y-79323179D01*
X140616807Y-79323179D02*
X140671493Y-79172865D01*
X140671493Y-79172865D02*
X140727960Y-79023416D01*
X140727960Y-79023416D02*
X140786194Y-78874844D01*
X140786194Y-78874844D02*
X140846182Y-78727162D01*
X140846182Y-78727162D02*
X140907912Y-78580383D01*
X140907912Y-78580383D02*
X140971369Y-78434520D01*
X140971369Y-78434520D02*
X141036542Y-78289585D01*
X141036542Y-78289585D02*
X141103418Y-78145591D01*
X141103418Y-78145591D02*
X141171984Y-78002552D01*
X141171984Y-78002552D02*
X141242227Y-77860479D01*
X141242227Y-77860479D02*
X141314134Y-77719386D01*
X141314134Y-77719386D02*
X141387693Y-77579285D01*
X141387693Y-77579285D02*
X141462890Y-77440191D01*
X141462890Y-77440191D02*
X141539713Y-77302114D01*
X141539713Y-77302114D02*
X141618150Y-77165068D01*
X141618150Y-77165068D02*
X141698186Y-77029067D01*
X141698186Y-77029067D02*
X141779810Y-76894121D01*
X141779810Y-76894121D02*
X141863008Y-76760247D01*
X141863008Y-76760247D02*
X141947767Y-76627453D01*
X141947767Y-76627453D02*
X142034076Y-76495756D01*
X142034076Y-76495756D02*
X142121920Y-76365167D01*
X142121920Y-76365167D02*
X142211287Y-76235699D01*
X142211287Y-76235699D02*
X142302165Y-76107363D01*
X142302165Y-76107363D02*
X142394540Y-75980175D01*
X142394540Y-75980175D02*
X142488399Y-75854147D01*
X142488399Y-75854147D02*
X142583731Y-75729291D01*
X142583731Y-75729291D02*
X142680521Y-75605620D01*
X142680521Y-75605620D02*
X142778757Y-75483145D01*
X142778757Y-75483145D02*
X142878427Y-75361884D01*
X142878427Y-75361884D02*
X142979517Y-75241845D01*
X142979517Y-75241845D02*
X143082015Y-75123042D01*
X143082015Y-75123042D02*
X143185907Y-75005489D01*
X143185907Y-75005489D02*
X143291182Y-74889198D01*
X143291182Y-74889198D02*
X143397824Y-74774182D01*
X143397824Y-74774182D02*
X143505824Y-74660454D01*
X143505824Y-74660454D02*
X143615167Y-74548026D01*
X143615167Y-74548026D02*
X143725840Y-74436913D01*
X143725840Y-74436913D02*
X143837832Y-74327124D01*
X143837832Y-74327124D02*
X143951127Y-74218675D01*
X143951127Y-74218675D02*
X144065716Y-74111579D01*
X144065716Y-74111579D02*
X144181583Y-74005846D01*
X144181583Y-74005846D02*
X144298718Y-73901492D01*
X144298718Y-73901492D02*
X144417104Y-73798528D01*
X144417104Y-73798528D02*
X144536733Y-73696968D01*
X144536733Y-73696968D02*
X144657589Y-73596824D01*
X144657589Y-73596824D02*
X144779660Y-73498108D01*
X144779660Y-73498108D02*
X144902933Y-73400834D01*
X144902933Y-73400834D02*
X145027396Y-73305015D01*
X145027396Y-73305015D02*
X145153036Y-73210663D01*
X145153036Y-73210663D02*
X145279839Y-73117793D01*
X145279839Y-73117793D02*
X145407793Y-73026414D01*
X145407793Y-73026414D02*
X145536884Y-72936542D01*
X145536884Y-72936542D02*
X145667102Y-72848189D01*
X145667102Y-72848189D02*
X145798431Y-72761367D01*
X145798431Y-72761367D02*
X145930861Y-72676090D01*
X145930861Y-72676090D02*
X146064376Y-72592369D01*
X146064376Y-72592369D02*
X146198966Y-72510220D01*
X146198966Y-72510220D02*
X146334617Y-72429653D01*
X146334617Y-72429653D02*
X146471316Y-72350682D01*
X146471316Y-72350682D02*
X146609051Y-72273320D01*
X146609051Y-72273320D02*
X146747807Y-72197579D01*
X146747807Y-72197579D02*
X146887574Y-72123472D01*
X146887574Y-72123472D02*
X147028337Y-72051013D01*
X147028337Y-72051013D02*
X147170085Y-71980214D01*
X147170085Y-71980214D02*
X147312803Y-71911087D01*
X147312803Y-71911087D02*
X147456481Y-71843647D01*
X147456481Y-71843647D02*
X147601104Y-71777905D01*
X147601104Y-71777905D02*
X147746659Y-71713874D01*
X147746659Y-71713874D02*
X147893135Y-71651567D01*
X147893135Y-71651567D02*
X148040517Y-71590997D01*
X148040517Y-71590997D02*
X148188794Y-71532177D01*
X148188794Y-71532177D02*
X148337952Y-71475119D01*
X148337952Y-71475119D02*
X148487977Y-71419838D01*
X148487977Y-71419838D02*
X148638860Y-71366344D01*
X148638860Y-71366344D02*
X148790585Y-71314652D01*
X148790585Y-71314652D02*
X148943140Y-71264773D01*
X148943140Y-71264773D02*
X149096513Y-71216722D01*
X149096513Y-71216722D02*
X149250690Y-71170510D01*
X149250690Y-71170510D02*
X149405658Y-71126150D01*
X149405658Y-71126150D02*
X149561406Y-71083655D01*
X149561406Y-71083655D02*
X149717914Y-71043039D01*
X149717914Y-71043039D02*
X149875180Y-71004314D01*
X149875180Y-71004314D02*
X150033190Y-70967493D01*
X150033190Y-70967493D02*
X150191922Y-70932589D01*
X150191922Y-70932589D02*
X150351372Y-70899614D01*
X150351372Y-70899614D02*
X150511518Y-70868581D01*
X150511518Y-70868581D02*
X150672358Y-70839504D01*
X150672358Y-70839504D02*
X150833868Y-70812394D01*
X150833868Y-70812394D02*
X150996055Y-70787266D01*
X150996055Y-70787266D02*
X151158877Y-70764132D01*
X151158877Y-70764132D02*
X151322341Y-70743003D01*
X151322341Y-70743003D02*
X151486433Y-70723894D01*
X151486433Y-70723894D02*
X151651132Y-70706817D01*
X151651132Y-70706817D02*
X151816434Y-70691785D01*
X151816434Y-70691785D02*
X151982327Y-70678812D01*
X151982327Y-70678812D02*
X152148787Y-70667909D01*
X152148787Y-70667909D02*
X152315802Y-70659089D01*
X152315802Y-70659089D02*
X152483379Y-70652366D01*
X152483379Y-70652366D02*
X152651475Y-70647752D01*
X152651475Y-70647752D02*
X152820107Y-70645259D01*
X152820107Y-70645259D02*
X152989243Y-70644902D01*
X152989243Y-70644902D02*
X153158039Y-70646684D01*
X153158039Y-70646684D02*
X153326312Y-70650592D01*
X153326312Y-70650592D02*
X153494067Y-70656614D01*
X153494067Y-70656614D02*
X153661264Y-70664737D01*
X153661264Y-70664737D02*
X153827919Y-70674947D01*
X153827919Y-70674947D02*
X153994000Y-70687232D01*
X153994000Y-70687232D02*
X154159492Y-70701578D01*
X154159492Y-70701578D02*
X154324394Y-70717975D01*
X154324394Y-70717975D02*
X154488693Y-70736408D01*
X154488693Y-70736408D02*
X154652366Y-70756865D01*
X154652366Y-70756865D02*
X154815409Y-70779332D01*
X154815409Y-70779332D02*
X154977812Y-70803798D01*
X154977812Y-70803798D02*
X155139539Y-70830248D01*
X155139539Y-70830248D02*
X155300609Y-70858670D01*
X155300609Y-70858670D02*
X155460988Y-70889053D01*
X155460988Y-70889053D02*
X155620674Y-70921382D01*
X155620674Y-70921382D02*
X155779645Y-70955645D01*
X155779645Y-70955645D02*
X155937896Y-70991828D01*
X155937896Y-70991828D02*
X156095406Y-71029920D01*
X156095406Y-71029920D02*
X156252172Y-71069907D01*
X156252172Y-71069907D02*
X156408180Y-71111776D01*
X156408180Y-71111776D02*
X156563408Y-71155516D01*
X156563408Y-71155516D02*
X156717853Y-71201112D01*
X156717853Y-71201112D02*
X156871492Y-71248552D01*
X156871492Y-71248552D02*
X157024323Y-71297823D01*
X157024323Y-71297823D02*
X157176322Y-71348912D01*
X157176322Y-71348912D02*
X157327487Y-71401808D01*
X157327487Y-71401808D02*
X157477805Y-71456494D01*
X157477805Y-71456494D02*
X157627252Y-71512961D01*
X157627252Y-71512961D02*
X157775827Y-71571195D01*
X157775827Y-71571195D02*
X157923506Y-71631183D01*
X157923506Y-71631183D02*
X158070287Y-71692913D01*
X158070287Y-71692913D02*
X158216147Y-71756370D01*
X158216147Y-71756370D02*
X158361082Y-71821543D01*
X158361082Y-71821543D02*
X158505080Y-71888419D01*
X158505080Y-71888419D02*
X158648119Y-71956985D01*
X158648119Y-71956985D02*
X158790184Y-72027228D01*
X158790184Y-72027228D02*
X158931285Y-72099135D01*
X158931285Y-72099135D02*
X159071377Y-72172694D01*
X159071377Y-72172694D02*
X159210478Y-72247891D01*
X159210478Y-72247891D02*
X159348554Y-72324714D01*
X159348554Y-72324714D02*
X159485594Y-72403150D01*
X159485594Y-72403150D02*
X159621605Y-72483187D01*
X159621605Y-72483187D02*
X159756543Y-72564811D01*
X159756543Y-72564811D02*
X159890425Y-72648009D01*
X159890425Y-72648009D02*
X160023209Y-72732768D01*
X160023209Y-72732768D02*
X160154913Y-72819077D01*
X160154913Y-72819077D02*
X160285502Y-72906921D01*
X160285502Y-72906921D02*
X160414965Y-72996288D01*
X160414965Y-72996288D02*
X160543308Y-73087166D01*
X160543308Y-73087166D02*
X160670489Y-73179541D01*
X160670489Y-73179541D02*
X160796525Y-73273400D01*
X160796525Y-73273400D02*
X160921373Y-73368731D01*
X160921373Y-73368731D02*
X161045050Y-73465522D01*
X161045050Y-73465522D02*
X161167523Y-73563758D01*
X161167523Y-73563758D02*
X161288780Y-73663428D01*
X161288780Y-73663428D02*
X161408817Y-73764518D01*
X161408817Y-73764518D02*
X161527623Y-73867016D01*
X161527623Y-73867016D02*
X161645173Y-73970908D01*
X161645173Y-73970908D02*
X161761466Y-74076182D01*
X161761466Y-74076182D02*
X161876487Y-74182825D01*
X161876487Y-74182825D02*
X161990216Y-74290825D01*
X161990216Y-74290825D02*
X162102637Y-74400168D01*
X162102637Y-74400168D02*
X162213760Y-74510841D01*
X162213760Y-74510841D02*
X162323541Y-74622832D01*
X162323541Y-74622832D02*
X162431996Y-74736129D01*
X162431996Y-74736129D02*
X162539085Y-74850716D01*
X162539085Y-74850716D02*
X162644822Y-74966584D01*
X162644822Y-74966584D02*
X162749177Y-75083718D01*
X162749177Y-75083718D02*
X162852134Y-75202106D01*
X162852134Y-75202106D02*
X162953694Y-75321733D01*
X162953694Y-75321733D02*
X163053841Y-75442589D01*
X163053841Y-75442589D02*
X163152561Y-75564660D01*
X163152561Y-75564660D02*
X163249821Y-75687934D01*
X163249821Y-75687934D02*
X163345651Y-75812396D01*
X163345651Y-75812396D02*
X163440001Y-75938036D01*
X163440001Y-75938036D02*
X163532871Y-76064839D01*
X163532871Y-76064839D02*
X163624261Y-76192793D01*
X163624261Y-76192793D02*
X163714121Y-76321886D01*
X163714121Y-76321886D02*
X163802481Y-76452102D01*
X163802481Y-76452102D02*
X163889301Y-76583432D01*
X163889301Y-76583432D02*
X163974571Y-76715861D01*
X163974571Y-76715861D02*
X164058291Y-76849376D01*
X164058291Y-76849376D02*
X164140441Y-76983967D01*
X164140441Y-76983967D02*
X164221011Y-77119617D01*
X164221011Y-77119617D02*
X164299971Y-77256316D01*
X164299971Y-77256316D02*
X164377341Y-77394050D01*
X164377341Y-77394050D02*
X164453081Y-77532808D01*
X164453081Y-77532808D02*
X164527181Y-77672575D01*
X164527181Y-77672575D02*
X164599641Y-77813338D01*
X164599641Y-77813338D02*
X164670441Y-77955085D01*
X164670441Y-77955085D02*
X164739561Y-78097805D01*
X164739561Y-78097805D02*
X164807001Y-78241481D01*
X164807001Y-78241481D02*
X164872741Y-78386105D01*
X164872741Y-78386105D02*
X164936771Y-78531660D01*
X164936771Y-78531660D02*
X164999071Y-78678135D01*
X164999071Y-78678135D02*
X165059641Y-78825517D01*
X165059641Y-78825517D02*
X165118461Y-78973794D01*
X165118461Y-78973794D02*
X165175521Y-79122952D01*
X165175521Y-79122952D02*
X165230801Y-79272979D01*
X165230801Y-79272979D02*
X165284291Y-79423860D01*
X165284291Y-79423860D02*
X165335981Y-79575585D01*
X165335981Y-79575585D02*
X165385851Y-79728140D01*
X165385851Y-79728140D02*
X165433901Y-79881513D01*
X165433901Y-79881513D02*
X165480121Y-80035694D01*
X165480121Y-80035694D02*
X165524481Y-80190659D01*
X165524481Y-80190659D02*
X165566981Y-80346407D01*
X165566981Y-80346407D02*
X165607591Y-80502915D01*
X165607591Y-80502915D02*
X165646321Y-80660180D01*
X165646321Y-80660180D02*
X165683151Y-80818190D01*
X165683151Y-80818190D02*
X165718051Y-80976922D01*
X165718051Y-80976922D02*
X165751021Y-81136372D01*
X165751021Y-81136372D02*
X165782061Y-81296519D01*
X165782061Y-81296519D02*
X165811151Y-81457358D01*
X165811151Y-81457358D02*
X165838221Y-81618868D01*
X165838221Y-81618868D02*
X165863411Y-81781056D01*
X165863411Y-81781056D02*
X165886511Y-81943877D01*
X165886511Y-81943877D02*
X165907611Y-82107341D01*
X165907611Y-82107341D02*
X165926791Y-82271434D01*
X165926791Y-82271434D02*
X165943851Y-82436133D01*
X165943851Y-82436133D02*
X165958861Y-82601435D01*
X165958861Y-82601435D02*
X165971821Y-82767327D01*
X165971821Y-82767327D02*
X165982711Y-82933787D01*
X165982711Y-82933787D02*
X165991511Y-83100802D01*
X165991511Y-83100802D02*
X165998211Y-83268379D01*
X165998211Y-83268379D02*
X166002811Y-83436475D01*
X166002811Y-83436475D02*
X166005328Y-83605108D01*
X166005328Y-83605108D02*
X166005730Y-83717834D01*
M02*
