G04 #@! TF.GenerationSoftware,KiCad,Pcbnew,5.1.4-e60b266~84~ubuntu18.04.1*
G04 #@! TF.CreationDate,2019-10-18T09:02:20-06:00*
G04 #@! TF.ProjectId,001,3030312e-6b69-4636-9164-5f7063625858,rev?*
G04 #@! TF.SameCoordinates,Original*
G04 #@! TF.FileFunction,Copper,L1,Top*
G04 #@! TF.FilePolarity,Positive*
%FSLAX46Y46*%
G04 Gerber Fmt 4.6, Leading zero omitted, Abs format (unit mm)*
G04 Created by KiCad (PCBNEW 5.1.4-e60b266~84~ubuntu18.04.1) date 2019-10-18 09:02:20*
%MOMM*%
%LPD*%
G04 APERTURE LIST*
%ADD10R,1.500000X0.600000*%
%ADD11C,1.700000*%
%ADD12O,1.700000X1.700000*%
%ADD13C,0.609600*%
%ADD14C,0.254000*%
G04 APERTURE END LIST*
D10*
X153610000Y-97790000D03*
X153610000Y-99060000D03*
X153610000Y-100330000D03*
X153610000Y-101600000D03*
X146110000Y-101600000D03*
X146110000Y-100330000D03*
X146110000Y-99060000D03*
X146110000Y-97790000D03*
D11*
X151130000Y-94615000D03*
X148590000Y-94615000D03*
X146050000Y-95885000D03*
D12*
X148590000Y-95885000D03*
X151130000Y-95885000D03*
X153670000Y-95885000D03*
D11*
X153670000Y-94615000D03*
X146050000Y-94615000D03*
X153670000Y-104775000D03*
X146050000Y-104775000D03*
D12*
X146050000Y-103505000D03*
X148590000Y-103505000D03*
X151130000Y-103505000D03*
D11*
X153670000Y-103505000D03*
X151130000Y-104775000D03*
X148590000Y-104775000D03*
D13*
X153099799Y-103420199D02*
X153670000Y-103420199D01*
X148104600Y-98425000D02*
X153099799Y-103420199D01*
X147320000Y-98425000D02*
X148104600Y-98425000D01*
X146110000Y-97790000D02*
X146685000Y-97790000D01*
X146685000Y-97790000D02*
X147320000Y-98425000D01*
X147494611Y-99234611D02*
X151130000Y-102870000D01*
X146110000Y-99060000D02*
X146284611Y-99234611D01*
X151130000Y-102870000D02*
X151130000Y-103420199D01*
X146284611Y-99234611D02*
X147494611Y-99234611D01*
X148590000Y-101600000D02*
X148590000Y-103420199D01*
X146110000Y-100330000D02*
X147320000Y-100330000D01*
X147320000Y-100330000D02*
X148590000Y-101600000D01*
X146134801Y-95969801D02*
X146050000Y-95969801D01*
X147404801Y-97239801D02*
X146134801Y-95969801D01*
X148064361Y-97239801D02*
X147404801Y-97239801D01*
X153610000Y-101600000D02*
X152424560Y-101600000D01*
X152424560Y-101600000D02*
X148064361Y-97239801D01*
X148590000Y-96520000D02*
X148590000Y-95969801D01*
X153610000Y-100330000D02*
X152400000Y-100330000D01*
X152400000Y-100330000D02*
X148590000Y-96520000D01*
X151130000Y-97846821D02*
X151130000Y-95969801D01*
X153610000Y-99060000D02*
X152343179Y-99060000D01*
X152343179Y-99060000D02*
X151130000Y-97846821D01*
X153610000Y-96029801D02*
X153670000Y-95969801D01*
X153610000Y-97790000D02*
X153610000Y-96029801D01*
D14*
G36*
X146237000Y-101473000D02*
G01*
X146257000Y-101473000D01*
X146257000Y-101727000D01*
X146237000Y-101727000D01*
X146237000Y-102153181D01*
X146177000Y-102184845D01*
X146177000Y-103290000D01*
X145923000Y-103290000D01*
X145923000Y-102436250D01*
X145983000Y-102376250D01*
X145983000Y-101727000D01*
X145963000Y-101727000D01*
X145963000Y-101473000D01*
X145983000Y-101473000D01*
X145983000Y-101453000D01*
X146237000Y-101453000D01*
X146237000Y-101473000D01*
X146237000Y-101473000D01*
G37*
X146237000Y-101473000D02*
X146257000Y-101473000D01*
X146257000Y-101727000D01*
X146237000Y-101727000D01*
X146237000Y-102153181D01*
X146177000Y-102184845D01*
X146177000Y-103290000D01*
X145923000Y-103290000D01*
X145923000Y-102436250D01*
X145983000Y-102376250D01*
X145983000Y-101727000D01*
X145963000Y-101727000D01*
X145963000Y-101473000D01*
X145983000Y-101473000D01*
X145983000Y-101453000D01*
X146237000Y-101453000D01*
X146237000Y-101473000D01*
M02*
